<svg width="40" height="40" viewBox="0 0 40 40" fill="none" xmlns="http://www.w3.org/2000/svg">
<g clip-path="url(#clip0_24320_67519)">
<path d="M37.7906 11.7898C36.5727 11.7898 35.5812 12.7805 35.5812 13.9992C35.5812 15.0008 36.2508 15.8492 37.1648 16.1195V24.568H34.6719V23.982C34.6719 23.4 34.3 22.8875 33.7453 22.707L31.9461 22.1227C31.907 22.1102 31.8953 22.0922 31.8875 22.0602C31.607 20.9898 31.1805 19.9617 30.6203 19.0055C30.6008 18.9719 30.6 18.9508 30.6172 18.918L31.4805 17.2273C31.7461 16.7 31.6484 16.0898 31.2313 15.6727L30.818 15.2594L32.7125 13.3664C32.8297 13.2492 32.8961 13.0898 32.8961 12.9234V4.47031C33.8102 4.19922 34.4797 3.35156 34.4797 2.35C34.4797 1.13203 33.4891 0.140625 32.2703 0.140625C31.0508 0.140625 30.0594 1.13125 30.0594 2.35C30.0594 3.35234 30.7297 4.2 31.6453 4.47031V12.6648L29.9336 14.375L29.5195 13.9609C29.107 13.5484 28.4813 13.45 27.9625 13.7148L26.2773 14.5734C26.2391 14.593 26.2188 14.5883 26.1898 14.5711C25.2266 14.0102 24.1984 13.5836 23.1297 13.3031C23.0969 13.2945 23.0852 13.2836 23.0727 13.2461L22.4859 11.4453C22.3055 10.8914 21.793 10.5195 21.2109 10.5195H20.625V4.47109C21.5406 4.20078 22.2109 3.35234 22.2109 2.35C22.2109 1.13203 21.2203 0.140625 20.0016 0.140625C18.782 0.140625 17.7906 1.13125 17.7906 2.35C17.7906 3.35156 18.4594 4.19844 19.3742 4.46953V10.5203H18.7883C18.2078 10.5203 17.6961 10.8922 17.5156 11.4461L16.9266 13.2523C16.9164 13.2844 16.9047 13.2953 16.8687 13.3047C15.8031 13.5844 14.775 14.0109 13.8094 14.5727C13.782 14.5883 13.7625 14.593 13.7258 14.5742L12.0398 13.7156C11.5203 13.45 10.8945 13.5484 10.482 13.9609L10.068 14.375L8.35625 12.6648V4.47031C9.27188 4.2 9.94219 3.35156 9.94219 2.35C9.94219 1.13203 8.95 0.140625 7.73125 0.140625C6.51328 0.140625 5.52187 1.13125 5.52187 2.35C5.52187 3.35156 6.19141 4.19922 7.10547 4.47031V12.9242C7.10547 13.0898 7.17109 13.2492 7.28906 13.3672L9.18359 15.2602L8.77031 15.6734C8.35313 16.0906 8.25547 16.7008 8.52266 17.2305L9.38281 18.9156C9.40078 18.9508 9.4 18.9719 9.38125 19.0039C8.82109 19.9617 8.39453 20.9898 8.1125 22.0633C8.10547 22.0922 8.09375 22.1094 8.05547 22.1219L6.25547 22.7062C5.70078 22.8859 5.32891 23.3984 5.32891 23.9813V24.5672H2.83516V16.1195C3.75078 15.8492 4.42109 15.0008 4.42109 13.9992C4.42109 12.7812 3.42891 11.7898 2.21016 11.7898C0.991406 11.7898 0 12.7805 0 13.9984C0 15 0.669531 15.8484 1.58359 16.1187V25.193C1.58359 25.5383 1.86328 25.8188 2.20938 25.8188H5.32812V26.4047C5.32812 26.9883 5.70078 27.5008 6.25469 27.6797L8.05391 28.2641C8.08984 28.2758 8.10391 28.2906 8.1125 28.3242C8.39375 29.3969 8.82031 30.4258 9.38047 31.3836C9.39609 31.4109 9.40078 31.4305 9.38281 31.4664L8.51953 33.157C8.25391 33.6844 8.35156 34.2945 8.76875 34.7117L10.4805 36.4234C10.8977 36.8406 11.5078 36.9383 12.0375 36.6711L13.7227 35.8109C13.7609 35.7914 13.7805 35.7961 13.8094 35.8125C14.7656 36.3719 15.7945 36.7984 16.8656 37.0797C16.9062 37.0906 16.9172 37.1055 16.9273 37.1383L17.5141 38.9375C17.6937 39.4922 18.2047 39.8641 18.7867 39.8641H21.2094C21.8016 39.8641 22.3023 39.5 22.4844 38.9383L23.0727 37.1336C23.0812 37.1055 23.093 37.0898 23.1328 37.0789C24.2047 36.7977 25.2336 36.3711 26.1898 35.8109C26.2172 35.7953 26.2367 35.7906 26.2727 35.8086L27.9633 36.6719C28.4906 36.9375 29.1008 36.8398 29.518 36.4227L31.2297 34.7109C31.6469 34.2938 31.7445 33.6836 31.4773 33.1539L30.6172 31.4688C30.5977 31.4305 30.6023 31.4109 30.6188 31.382C31.1781 30.4258 31.6047 29.3969 31.8859 28.3258C31.8953 28.2898 31.9094 28.275 31.9438 28.2641L33.7445 27.6789C34.2984 27.4984 34.6703 26.9859 34.6703 26.4039V25.818H37.7898C38.1352 25.818 38.4156 25.5383 38.4156 25.1922V16.1187C39.3297 15.8477 39.9992 15 39.9992 13.9984C40 12.7805 39.0086 11.7898 37.7906 11.7898ZM31.3102 2.35C31.3102 1.82187 31.7406 1.39219 32.2703 1.39219C32.7984 1.39219 33.2281 1.82187 33.2281 2.35C33.2281 2.87969 32.7984 3.31016 32.2703 3.31016C31.7406 3.31016 31.3102 2.87969 31.3102 2.35ZM19.0414 2.35C19.0414 1.82187 19.4719 1.39219 20.0016 1.39219C20.5297 1.39219 20.9594 1.82187 20.9594 2.35C20.9594 2.87969 20.5297 3.31016 20.0016 3.31016C19.4719 3.31016 19.0414 2.87969 19.0414 2.35ZM6.77266 2.35C6.77266 1.82187 7.20234 1.39219 7.73047 1.39219C8.26016 1.39219 8.69063 1.82187 8.69063 2.35C8.69063 2.87969 8.26016 3.31016 7.73047 3.31016C7.20234 3.31016 6.77266 2.87969 6.77266 2.35ZM1.25156 13.9984C1.25156 13.4703 1.68125 13.0406 2.20938 13.0406C2.73906 13.0406 3.16953 13.4703 3.16953 13.9984C3.16953 14.5281 2.73906 14.9586 2.20938 14.9586C1.68125 14.9586 1.25156 14.5281 1.25156 13.9984ZM33.4203 26.4047C33.4203 26.4484 33.4 26.4758 33.3586 26.4898L31.557 27.075C31.1172 27.2188 30.7961 27.5578 30.6773 28.007C30.425 28.9695 30.0422 29.893 29.5406 30.75C29.3055 31.1492 29.2914 31.6172 29.5031 32.0359L30.3633 33.7203C30.3836 33.7609 30.3789 33.7953 30.3469 33.8266L28.6352 35.5383C28.6031 35.5703 28.5695 35.5758 28.5312 35.5563L26.8414 34.6937C26.4258 34.4836 25.9578 34.4984 25.5594 34.732C24.7016 35.2344 23.7781 35.6164 22.8156 35.8695C22.8148 35.8695 22.8141 35.8695 22.8133 35.8703C22.3617 35.9906 22.0227 36.3125 21.8828 36.7508L21.2953 38.5523C21.2812 38.5953 21.2563 38.6133 21.2109 38.6133H18.7883C18.7445 38.6133 18.7195 38.5953 18.7055 38.5508L18.1203 36.7547C17.9797 36.3125 17.6406 35.9898 17.1867 35.8695C16.2242 35.6172 15.3008 35.2344 14.4438 34.7328C14.232 34.6086 14.0016 34.5461 13.7695 34.5461C13.5633 34.5461 13.3547 34.5953 13.1578 34.6953L11.4734 35.5555C11.4328 35.5758 11.3984 35.5711 11.3672 35.5391L9.65547 33.8273C9.62344 33.7953 9.61797 33.7617 9.6375 33.7234L10.5 32.0336C10.7102 31.618 10.6961 31.15 10.4617 30.7516C9.95938 29.8938 9.57656 28.9703 9.32344 28.0055C9.20469 27.5586 8.88437 27.2195 8.44297 27.075L6.64062 26.4891C6.59922 26.4758 6.57969 26.4484 6.57969 26.4047V23.982C6.57969 23.9375 6.59922 23.9109 6.64141 23.8969L8.44297 23.3117C8.8875 23.1664 9.20859 22.825 9.32344 22.3773C9.575 21.4172 9.95781 20.4945 10.4617 19.6344C10.6945 19.2336 10.7086 18.7656 10.4984 18.3484L9.63828 16.6641C9.61797 16.6234 9.62266 16.5891 9.65469 16.5578L10.4891 15.7234C10.4969 15.7164 10.5047 15.7102 10.5125 15.7023C10.5195 15.6953 10.5258 15.6875 10.5328 15.6797L11.3656 14.8461C11.3969 14.8148 11.4289 14.8094 11.4695 14.8305L13.1586 15.6906C13.5742 15.9008 14.0422 15.8867 14.4398 15.6531C15.3055 15.1492 16.2289 14.7664 17.1812 14.5164C17.6359 14.3992 17.9773 14.0758 18.1164 13.6352L18.7031 11.8344C18.7211 11.7789 18.7594 11.7727 18.7859 11.7727H21.2086C21.2531 11.7727 21.2797 11.7922 21.2938 11.8344L21.8789 13.6289C22.0195 14.0766 22.3609 14.4 22.8133 14.5156C23.7695 14.7664 24.693 15.1492 25.5562 15.6523C25.9555 15.8875 26.4234 15.9016 26.8414 15.6906L28.5305 14.8305C28.5703 14.8102 28.6023 14.8148 28.6336 14.8469L29.468 15.6812C29.475 15.6891 29.4813 15.6969 29.4883 15.7039C29.4961 15.7117 29.5039 15.718 29.5117 15.725L30.3461 16.5594C30.3781 16.5914 30.3836 16.625 30.3641 16.6633L29.5016 18.3531C29.2922 18.768 29.3062 19.2352 29.5398 19.6375C30.043 20.4969 30.425 21.4188 30.6766 22.3758C30.7922 22.8258 31.1133 23.168 31.5586 23.3133L33.3586 23.8977C33.4008 23.9109 33.4211 23.9391 33.4211 23.9828V26.4047H33.4203ZM37.7906 14.9586C37.2625 14.9586 36.8328 14.5281 36.8328 13.9984C36.8328 13.4703 37.2625 13.0406 37.7906 13.0406C38.3187 13.0406 38.7484 13.4703 38.7484 13.9984C38.7484 14.5281 38.3187 14.9586 37.7906 14.9586ZM25.4875 22.7727C25.4875 21.5531 24.5109 20.5578 23.2992 20.5266C23.1422 19.5922 22.3281 18.8781 21.35 18.8781C20.8281 18.8781 20.3531 19.082 19.9992 19.4133C19.6461 19.082 19.1719 18.8781 18.65 18.8781C17.6719 18.8781 16.8578 19.5922 16.7008 20.5266C15.4891 20.5578 14.5125 21.5531 14.5125 22.7727C14.5125 22.9062 14.5242 23.0383 14.5469 23.168C14.0125 23.6109 13.6797 24.3602 13.6797 25.1938C13.6797 26.0266 14.0125 26.775 14.5469 27.2172C14.5234 27.3469 14.5125 27.4781 14.5125 27.6117C14.5125 28.8313 15.4891 29.8266 16.7008 29.8578C16.857 30.7922 17.6719 31.5063 18.65 31.5063C19.1711 31.5063 19.6461 31.3031 19.9992 30.9719C20.3531 31.3031 20.8281 31.5063 21.35 31.5063C22.3289 31.5063 23.1438 30.7922 23.2992 29.8578C24.5109 29.8266 25.4875 28.8313 25.4875 27.6117C25.4875 27.4781 25.4758 27.3461 25.4531 27.2172C25.9875 26.775 26.3203 26.0258 26.3203 25.1938C26.3203 24.3602 25.9875 23.6109 25.4531 23.168C25.4758 23.0383 25.4875 22.9062 25.4875 22.7727ZM19.3734 29.5312C19.3734 29.9297 19.0492 30.2547 18.6508 30.2547C18.2508 30.2547 17.9258 29.9305 17.9258 29.5312C17.9258 29.4523 17.9375 29.3773 17.9602 29.307C17.9609 29.3047 17.9609 29.3023 17.9617 29.2992C17.9625 29.2969 17.9641 29.2953 17.9648 29.293C18.0391 29.0781 18.2148 28.9086 18.4344 28.8391C18.7641 28.7352 18.9469 28.3836 18.843 28.0547C18.7391 27.725 18.3875 27.5422 18.0586 27.6461C17.5648 27.8016 17.1531 28.1469 16.9109 28.5945C16.8617 28.6023 16.8117 28.607 16.7602 28.607C16.2109 28.607 15.7648 28.1602 15.7648 27.6117C15.7648 27.468 15.7953 27.3289 15.8555 27.1984C15.9281 27.0414 15.932 26.8609 15.8672 26.7C15.8023 26.5398 15.6734 26.4133 15.5109 26.3516C15.2305 26.2437 14.932 25.8016 14.932 25.193C14.932 24.5828 15.2305 24.1398 15.5109 24.032C15.6727 23.9703 15.8016 23.8438 15.8672 23.6836C15.932 23.5234 15.9281 23.343 15.8555 23.1852C15.7953 23.0555 15.7648 22.9164 15.7648 22.7719C15.7648 22.2227 16.2117 21.7766 16.7602 21.7766C16.8109 21.7766 16.8609 21.7812 16.9102 21.7891C17.1531 22.2383 17.5641 22.5844 18.0578 22.7398C18.1203 22.7594 18.1836 22.7688 18.2461 22.7688C18.5117 22.7688 18.7586 22.5977 18.8422 22.3313C18.9461 22.0016 18.7633 21.65 18.4336 21.5469C18.2148 21.4781 18.0391 21.307 17.9641 21.0906C17.9633 21.0883 17.9617 21.0859 17.9609 21.0828C17.9602 21.0805 17.9602 21.0789 17.9594 21.0766C17.9367 21.0063 17.925 20.932 17.925 20.8547C17.925 20.4547 18.25 20.1297 18.65 20.1297C19.0484 20.1297 19.3727 20.4547 19.3727 20.8547V29.5312H19.3734ZM24.4898 26.3516C24.3281 26.4133 24.1992 26.5398 24.1336 26.7C24.0688 26.8602 24.0727 27.0406 24.1453 27.1984C24.2055 27.3281 24.2359 27.4672 24.2359 27.6109C24.2359 28.1602 23.7891 28.6063 23.2406 28.6063C23.1898 28.6063 23.1398 28.6016 23.0898 28.5938C22.8477 28.1461 22.4359 27.8008 21.9422 27.6453C21.6125 27.5414 21.2609 27.7242 21.1578 28.0539C21.0539 28.3836 21.2367 28.7352 21.5664 28.8383C21.7859 28.9078 21.9617 29.0773 22.0359 29.2922C22.0367 29.2945 22.0375 29.2961 22.0383 29.2984C22.0391 29.3008 22.0391 29.3031 22.0398 29.3063C22.0625 29.3766 22.0742 29.4523 22.0742 29.5305C22.0742 29.9289 21.7492 30.2539 21.3492 30.2539C20.9492 30.2539 20.6242 29.9297 20.6242 29.5305V20.8547C20.6242 20.4547 20.9492 20.1297 21.3492 20.1297C21.7492 20.1297 22.0742 20.4547 22.0742 20.8547C22.0742 20.932 22.0625 21.007 22.0398 21.0773C22.0391 21.0797 22.0391 21.0813 22.0383 21.0836C22.0375 21.0859 22.0359 21.0883 22.0352 21.0914C21.9602 21.3078 21.7844 21.4789 21.5656 21.5477C21.2359 21.6516 21.0531 22.0031 21.157 22.332C21.2414 22.5992 21.4875 22.7695 21.7539 22.7695C21.8164 22.7695 21.8797 22.7602 21.9422 22.7406C22.4352 22.5852 22.8469 22.2391 23.0898 21.7898C23.1391 21.782 23.1891 21.7773 23.2398 21.7773C23.7891 21.7773 24.2352 22.2242 24.2352 22.7727C24.2352 22.9164 24.2047 23.0555 24.1445 23.1852C24.0719 23.3422 24.0672 23.5227 24.1328 23.6836C24.1977 23.8438 24.3266 23.9703 24.4891 24.032C24.7695 24.1398 25.068 24.5828 25.068 25.193C25.0695 25.8016 24.7711 26.2445 24.4898 26.3516ZM17.4445 25.193C17.4445 25.5375 17.6039 25.7586 17.7117 25.8C18.0344 25.9234 18.1961 26.2852 18.0727 26.6078C17.9773 26.857 17.7398 27.0102 17.4883 27.0102C17.4141 27.0102 17.3383 26.9969 17.2648 26.9688C16.6242 26.7234 16.1938 26.0102 16.1938 25.193C16.1938 24.375 16.6242 23.6602 17.2648 23.4148C17.5875 23.2914 17.9492 23.4531 18.0727 23.7758C18.1961 24.0984 18.0352 24.4602 17.7117 24.5836C17.6039 24.625 17.4445 24.8477 17.4445 25.193ZM23.807 25.193C23.807 26.0086 23.3773 26.7219 22.7375 26.968C22.6633 26.9961 22.5875 27.0102 22.5125 27.0102C22.2609 27.0102 22.0242 26.8578 21.9289 26.6094C21.8047 26.2867 21.9656 25.925 22.2875 25.8008C22.4 25.7578 22.5555 25.5227 22.5555 25.193C22.5555 24.8477 22.3953 24.625 22.2875 24.5828C21.9648 24.4586 21.8047 24.0969 21.9289 23.7742C22.0531 23.4516 22.4148 23.2906 22.7375 23.4156C23.3773 23.6625 23.807 24.3766 23.807 25.193ZM20.0008 16.1437C15.0109 16.1437 10.9508 20.2031 10.9508 25.1938C10.9508 30.1828 15.0102 34.2414 20.0008 34.2414C24.9898 34.2414 29.0484 30.1828 29.0484 25.1938C29.0484 20.2031 24.9898 16.1437 20.0008 16.1437ZM20.0008 32.9898C15.7008 32.9898 12.2023 29.4922 12.2023 25.1938C12.2023 20.8938 15.7008 17.3953 20.0008 17.3953C24.3 17.3953 27.7969 20.8938 27.7969 25.1938C27.7977 29.4922 24.3 32.9898 20.0008 32.9898Z" fill="#F5FAFE"/>
</g>
<defs>
<clipPath id="clip0_24320_67519">
<rect width="40" height="40" fill="white"/>
</clipPath>
</defs>
</svg>
