<svg width="40" height="40" viewBox="0 0 40 40" fill="none" xmlns="http://www.w3.org/2000/svg">
<g clip-path="url(#clip0_24321_67522)">
<path d="M2 39.9972H14C14.5304 39.9972 15.0391 39.7865 15.4142 39.4114C15.7893 39.0364 16 38.5277 16 37.9972V33.4839C15.9999 33.3549 15.9625 33.2287 15.8921 33.1206C15.8217 33.0124 15.7215 32.927 15.6036 32.8748C15.4857 32.8225 15.3551 32.8055 15.2277 32.8259C15.1004 32.8464 14.9816 32.9033 14.886 32.9899C14.6344 33.2106 14.309 33.3287 13.9744 33.3206C13.6398 33.3125 13.3205 33.1788 13.0799 32.9462C12.8393 32.7135 12.6949 32.3989 12.6756 32.0648C12.6562 31.7306 12.7632 31.4014 12.9753 31.1426C13.2122 30.8738 13.5452 30.7088 13.9026 30.6831C14.2599 30.6574 14.6131 30.7731 14.886 31.0052C14.9817 31.0918 15.1005 31.1488 15.2279 31.1692C15.3553 31.1896 15.4859 31.1726 15.6039 31.1202C15.7218 31.0678 15.8221 30.9824 15.8924 30.8741C15.9627 30.7659 16.0001 30.6396 16 30.5106V25.9972C16 25.4668 15.7893 24.9581 15.4142 24.583C15.0391 24.2079 14.5304 23.9972 14 23.9972H10.582C10.7084 23.5085 10.6935 22.994 10.539 22.5134C10.3845 22.0329 10.0968 21.6061 9.70933 21.2826C9.40587 21.0316 9.0511 20.8501 8.66998 20.7509C8.28886 20.6518 7.89064 20.6373 7.50333 20.7086C6.98791 20.8049 6.51249 21.0515 6.13683 21.4173C5.76116 21.7832 5.50203 22.2519 5.392 22.7646C5.30588 23.1719 5.31432 23.5936 5.41667 23.9972H2C1.46957 23.9972 0.960859 24.2079 0.585786 24.583C0.210714 24.9581 0 25.4668 0 25.9972L0 37.9972C0 38.5277 0.210714 39.0364 0.585786 39.4114C0.960859 39.7865 1.46957 39.9972 2 39.9972ZM1.33333 25.9972C1.33333 25.8204 1.40357 25.6508 1.5286 25.5258C1.65362 25.4008 1.82319 25.3306 2 25.3306H6.51333C6.64246 25.3306 6.76883 25.2932 6.87708 25.2228C6.98533 25.1524 7.07081 25.0521 7.12313 24.934C7.17545 24.8159 7.19235 24.6852 7.1718 24.5578C7.15124 24.4303 7.09411 24.3115 7.00733 24.2159C6.8353 24.0242 6.72247 23.7868 6.68249 23.5323C6.64251 23.2778 6.67709 23.0173 6.78205 22.782C6.88702 22.5468 7.05786 22.347 7.27394 22.2068C7.49003 22.0666 7.74209 21.992 7.99967 21.992C8.25725 21.992 8.50931 22.0666 8.72539 22.2068C8.94147 22.347 9.11232 22.5468 9.21728 22.782C9.32224 23.0173 9.35682 23.2778 9.31684 23.5323C9.27686 23.7868 9.16404 24.0242 8.992 24.2159C8.90519 24.3116 8.84804 24.4304 8.82751 24.5579C8.80698 24.6855 8.82394 24.8162 8.87634 24.9343C8.92874 25.0524 9.01432 25.1527 9.12267 25.223C9.23103 25.2934 9.35748 25.3307 9.48667 25.3306H14C14.1768 25.3306 14.3464 25.4008 14.4714 25.5258C14.5964 25.6508 14.6667 25.8204 14.6667 25.9972V29.4152C14.2316 29.3025 13.7751 29.3016 13.3395 29.4125C12.904 29.5235 12.5036 29.7428 12.1755 30.0499C11.8474 30.3571 11.6022 30.7422 11.4628 31.1695C11.3234 31.5967 11.2942 32.0523 11.378 32.4939C11.4745 33.0092 11.7212 33.4846 12.087 33.8602C12.4528 34.2358 12.9214 34.495 13.434 34.6052C13.8414 34.6918 14.2632 34.6831 14.6667 34.5799V37.9972C14.6667 38.174 14.5964 38.3436 14.4714 38.4686C14.3464 38.5936 14.1768 38.6639 14 38.6639H2C1.82319 38.6639 1.65362 38.5936 1.5286 38.4686C1.40357 38.3436 1.33333 38.174 1.33333 37.9972V25.9972Z" fill="#F5FAFE"/>
<path d="M10.7671 13.9405C11.1748 14.0263 11.5968 14.0174 12.0005 13.9145V17.3338C12.0005 17.8643 12.2112 18.373 12.5863 18.748C12.9613 19.1231 13.47 19.3338 14.0005 19.3338H26.0005C26.5309 19.3338 27.0396 19.1231 27.4147 18.748C27.7898 18.373 28.0005 17.8643 28.0005 17.3338V13.9145C28.4053 14.0173 28.8283 14.0262 29.2371 13.9405C29.685 13.843 30.1001 13.6317 30.4425 13.3271C30.7849 13.0224 31.043 12.6346 31.1918 12.2012C31.3407 11.7677 31.3754 11.3032 31.2925 10.8525C31.2095 10.4017 31.0119 9.97993 30.7185 9.62783C30.3915 9.24384 29.964 8.95854 29.4839 8.80393C29.0038 8.64932 28.4901 8.63151 28.0005 8.7525V5.33383C28.0005 4.8034 27.7898 4.29469 27.4147 3.91962C27.0396 3.54455 26.5309 3.33383 26.0005 3.33383H22.5825C22.7084 2.8448 22.6931 2.33009 22.5385 1.84938C22.3838 1.36867 22.096 0.941648 21.7085 0.617834C21.4051 0.366327 21.05 0.184697 20.6686 0.08584C20.2871 -0.0130165 19.8885 -0.026675 19.5011 0.0458344C18.9866 0.142621 18.5121 0.389282 18.1373 0.754838C17.7625 1.12039 17.5041 1.58855 17.3945 2.1005C17.309 2.50822 17.3179 2.93008 17.4205 3.33383H14.0005C13.47 3.33383 12.9613 3.54455 12.5863 3.91962C12.2112 4.29469 12.0005 4.8034 12.0005 5.33383V8.75117C11.5108 8.63033 10.9972 8.64822 10.5172 8.80282C10.0371 8.95742 9.60958 9.24263 9.28248 9.6265C8.98876 9.97882 8.79089 10.4009 8.70798 10.8521C8.62508 11.3032 8.65994 11.7681 8.80921 12.2019C8.95848 12.6356 9.2171 13.0235 9.56008 13.328C9.90307 13.6326 10.3188 13.8436 10.7671 13.9405ZM10.3078 10.4812C10.5451 10.2122 10.8783 10.047 11.236 10.021C11.5937 9.99493 11.9474 10.1101 12.2211 10.3418C12.3168 10.428 12.4354 10.4845 12.5626 10.5047C12.6897 10.5249 12.82 10.5079 12.9377 10.4556C13.0553 10.4034 13.1554 10.3182 13.2257 10.2103C13.296 10.1025 13.3335 9.97658 13.3338 9.84783V5.33383C13.3338 5.15702 13.4041 4.98745 13.5291 4.86243C13.6541 4.73741 13.8237 4.66717 14.0005 4.66717H18.5138C18.6426 4.66715 18.7686 4.62982 18.8767 4.55971C18.9847 4.48959 19.0701 4.38969 19.1226 4.27207C19.175 4.15446 19.1923 4.02416 19.1723 3.89694C19.1523 3.76971 19.0958 3.65101 19.0098 3.55517C18.8649 3.3943 18.7614 3.20056 18.7081 2.9907C18.6549 2.78083 18.6535 2.56116 18.7042 2.35066C18.7549 2.14017 18.8561 1.94518 18.999 1.78256C19.1419 1.61993 19.3223 1.49456 19.5246 1.41728C19.7268 1.34 19.9449 1.31314 20.1598 1.33901C20.3748 1.36488 20.5802 1.44271 20.7583 1.56578C20.9365 1.68884 21.082 1.85343 21.1822 2.04533C21.2825 2.23723 21.3345 2.45066 21.3338 2.66717C21.3343 2.9945 21.2126 3.31024 20.9925 3.5525C20.9057 3.64813 20.8486 3.76689 20.828 3.89438C20.8075 4.02186 20.8244 4.15256 20.8767 4.27062C20.929 4.38867 21.0145 4.48899 21.1227 4.55939C21.231 4.62978 21.3574 4.66723 21.4865 4.66717H26.0005C26.1773 4.66717 26.3469 4.73741 26.4719 4.86243C26.5969 4.98745 26.6671 5.15702 26.6671 5.33383V9.8465C26.6672 9.9755 26.7047 10.1017 26.7751 10.2098C26.8454 10.318 26.9456 10.4033 27.0636 10.4556C27.1815 10.5079 27.312 10.5249 27.4394 10.5044C27.5668 10.484 27.6855 10.4271 27.7811 10.3405C28.0549 10.1088 28.4086 9.9936 28.7663 10.0196C29.124 10.0457 29.4572 10.2109 29.6945 10.4798C29.8216 10.6325 29.913 10.8116 29.962 11.0041C30.0111 11.1966 30.0165 11.3976 29.9778 11.5925C29.9316 11.8234 29.8251 12.0378 29.6691 12.2142C29.5131 12.3905 29.3131 12.5224 29.0897 12.5964C28.8662 12.6704 28.627 12.684 28.3966 12.6356C28.1662 12.5873 27.9527 12.4788 27.7778 12.3212C27.6817 12.2353 27.5627 12.1792 27.4354 12.1596C27.308 12.1399 27.1777 12.1577 27.0601 12.2106C26.9426 12.2635 26.843 12.3493 26.7732 12.4577C26.7035 12.566 26.6666 12.6923 26.6671 12.8212V17.3338C26.6671 17.5106 26.5969 17.6802 26.4719 17.8052C26.3469 17.9303 26.1773 18.0005 26.0005 18.0005H14.0005C13.8237 18.0005 13.6541 17.9303 13.5291 17.8052C13.4041 17.6802 13.3338 17.5106 13.3338 17.3338V12.8212C13.3338 12.6925 13.2965 12.5665 13.2265 12.4585C13.1565 12.3505 13.0567 12.2651 12.9392 12.2126C12.8216 12.16 12.6914 12.1427 12.5643 12.1625C12.4371 12.1824 12.3184 12.2386 12.2225 12.3245C11.9717 12.5479 11.6458 12.6684 11.3101 12.6619C10.9743 12.6555 10.6533 12.5225 10.4113 12.2897C10.1692 12.0568 10.024 11.7412 10.0046 11.406C9.98515 11.0707 10.093 10.7404 10.3065 10.4812H10.3078Z" fill="#F5FAFE"/>
<path d="M38 23.9976H34.5833C34.6857 23.594 34.6941 23.1723 34.608 22.765C34.498 22.2523 34.2388 21.7836 33.8632 21.4178C33.4875 21.0519 33.0121 20.8053 32.4967 20.709C32.1094 20.6373 31.711 20.6516 31.3299 20.7507C30.9487 20.8499 30.5939 21.0316 30.2907 21.283C29.9032 21.6065 29.6155 22.0333 29.461 22.5139C29.3065 22.9944 29.2916 23.5089 29.418 23.9976H26C25.4696 23.9976 24.9609 24.2083 24.5858 24.5834C24.2107 24.9585 24 25.4672 24 25.9976V30.511C23.9999 30.64 24.0373 30.7663 24.1076 30.8745C24.1779 30.9828 24.2782 31.0682 24.3961 31.1206C24.5141 31.173 24.6447 31.19 24.7721 31.1696C24.8995 31.1492 25.0183 31.0922 25.114 31.0056C25.3869 30.7735 25.7401 30.6578 26.0974 30.6835C26.4548 30.7092 26.7878 30.8742 27.0247 31.143C27.2351 31.402 27.3407 31.7305 27.3207 32.0636C27.3007 32.3968 27.1565 32.7103 26.9166 32.9422C26.6766 33.1742 26.3584 33.3078 26.0248 33.3165C25.6912 33.3253 25.3665 33.2087 25.1147 32.9896C25.019 32.9029 24.9003 32.8457 24.7728 32.8252C24.6453 32.8046 24.5146 32.8215 24.3966 32.8738C24.2785 32.9262 24.1782 33.0116 24.1078 33.1199C24.0374 33.2281 23.9999 33.3545 24 33.4836V37.9976C24 38.5281 24.2107 39.0368 24.5858 39.4118C24.9609 39.7869 25.4696 39.9976 26 39.9976H38C38.5304 39.9976 39.0391 39.7869 39.4142 39.4118C39.7893 39.0368 40 38.5281 40 37.9976V25.9976C40 25.4672 39.7893 24.9585 39.4142 24.5834C39.0391 24.2083 38.5304 23.9976 38 23.9976ZM38.6667 37.9976C38.6667 38.1744 38.5964 38.344 38.4714 38.469C38.3464 38.5941 38.1768 38.6643 38 38.6643H26C25.8232 38.6643 25.6536 38.5941 25.5286 38.469C25.4036 38.344 25.3333 38.1744 25.3333 37.9976V34.5803C25.7368 34.6835 26.1586 34.6922 26.566 34.6056C27.0147 34.5086 27.4308 34.2974 27.7739 33.9925C28.1171 33.6875 28.3757 33.2992 28.5247 32.865C28.6738 32.4308 28.7082 31.9654 28.6247 31.514C28.5412 31.0626 28.3425 30.6404 28.048 30.2883C27.7215 29.9047 27.2944 29.6199 26.8148 29.4657C26.3353 29.3116 25.8222 29.2942 25.3333 29.4156V25.9976C25.3333 25.8208 25.4036 25.6512 25.5286 25.5262C25.6536 25.4012 25.8232 25.331 26 25.331H30.5133C30.6424 25.331 30.7687 25.2936 30.8769 25.2233C30.9851 25.153 31.0706 25.0528 31.123 24.9349C31.1754 24.8169 31.1924 24.6863 31.172 24.5589C31.1516 24.4314 31.0946 24.3126 31.008 24.217C30.7881 23.9743 30.6664 23.6584 30.6667 23.331C30.6659 23.1146 30.7178 22.9012 30.8179 22.7094C30.918 22.5175 31.0633 22.3529 31.2412 22.2297C31.4192 22.1066 31.6244 22.0286 31.8393 22.0025C32.0541 21.9764 32.272 22.003 32.4743 22.08C32.6765 22.157 32.857 22.2821 33.0001 22.4444C33.1432 22.6067 33.2447 22.8014 33.2957 23.0117C33.3468 23.222 33.3458 23.4416 33.293 23.6515C33.2402 23.8613 33.1371 24.0552 32.9927 24.2163C32.9059 24.3119 32.8488 24.4306 32.8282 24.558C32.8077 24.6854 32.8245 24.8161 32.8767 24.9341C32.929 25.0521 33.0144 25.1525 33.1225 25.2229C33.2307 25.2934 33.3569 25.3309 33.486 25.331H38C38.1768 25.331 38.3464 25.4012 38.4714 25.5262C38.5964 25.6512 38.6667 25.8208 38.6667 25.9976V37.9976Z" fill="#F5FAFE"/>
<path d="M16.1945 13.1402C16.3203 13.2617 16.4887 13.3289 16.6635 13.3273C16.8383 13.3258 17.0055 13.2557 17.1291 13.1321C17.2527 13.0085 17.3228 12.8413 17.3243 12.6665C17.3258 12.4917 17.2586 12.3233 17.1372 12.1976L16.2752 11.3356L17.1372 10.4736C17.2586 10.3478 17.3258 10.1794 17.3243 10.0046C17.3228 9.82983 17.2527 9.66262 17.1291 9.53901C17.0055 9.41541 16.8383 9.34529 16.6635 9.34378C16.4887 9.34226 16.3203 9.40945 16.1945 9.53089L14.8612 10.8642C14.7362 10.9892 14.666 11.1588 14.666 11.3356C14.666 11.5123 14.7362 11.6819 14.8612 11.8069L16.1945 13.1402Z" fill="#F5FAFE"/>
<path d="M22.8612 13.1402C22.9862 13.2652 23.1558 13.3354 23.3325 13.3354C23.5093 13.3354 23.6789 13.2652 23.8039 13.1402L25.1372 11.8069C25.2622 11.6819 25.3324 11.5123 25.3324 11.3356C25.3324 11.1588 25.2622 10.9892 25.1372 10.8642L23.8039 9.53089C23.6781 9.40945 23.5097 9.34226 23.3349 9.34378C23.1601 9.34529 22.9929 9.41541 22.8693 9.53901C22.7457 9.66262 22.6756 9.82983 22.6741 10.0046C22.6726 10.1794 22.7398 10.3478 22.8612 10.4736L23.7232 11.3356L22.8612 12.1976C22.7362 12.3226 22.666 12.4921 22.666 12.6689C22.666 12.8457 22.7362 13.0152 22.8612 13.1402Z" fill="#F5FAFE"/>
<path d="M19.1221 13.9642C19.2898 14.0199 19.4727 14.0067 19.6307 13.9276C19.7887 13.8485 19.9089 13.7098 19.9647 13.5422L21.2981 9.54218C21.3257 9.45901 21.3367 9.3712 21.3305 9.28378C21.3242 9.19635 21.3008 9.11102 21.2615 9.03264C21.2223 8.95427 21.168 8.8844 21.1017 8.82701C21.0355 8.76962 20.9586 8.72585 20.8754 8.69818C20.7922 8.67052 20.7044 8.6595 20.617 8.66577C20.5296 8.67204 20.4442 8.69547 20.3659 8.73472C20.2875 8.77396 20.2176 8.82826 20.1602 8.89452C20.1028 8.96077 20.0591 9.03768 20.0314 9.12085L18.6981 13.1208C18.6704 13.2041 18.6595 13.2919 18.6658 13.3794C18.6722 13.4668 18.6957 13.5521 18.7351 13.6305C18.7745 13.7088 18.8289 13.7786 18.8953 13.8359C18.9617 13.8931 19.0388 13.9367 19.1221 13.9642Z" fill="#F5FAFE"/>
<path d="M21.5289 25.5261L20.6669 26.3881V21.3307C20.6669 21.1539 20.5967 20.9843 20.4717 20.8593C20.3467 20.7343 20.1771 20.6641 20.0003 20.6641C19.8235 20.6641 19.6539 20.7343 19.5289 20.8593C19.4038 20.9843 19.3336 21.1539 19.3336 21.3307V26.3881L18.4716 25.5261C18.3459 25.4046 18.1775 25.3374 18.0027 25.3389C17.8279 25.3405 17.6607 25.4106 17.5371 25.5342C17.4135 25.6578 17.3433 25.825 17.3418 25.9998C17.3403 26.1746 17.4075 26.343 17.5289 26.4687L19.5289 28.4687C19.654 28.5937 19.8235 28.6639 20.0003 28.6639C20.177 28.6639 20.3466 28.5937 20.4716 28.4687L22.4716 26.4687C22.593 26.343 22.6602 26.1746 22.6587 25.9998C22.6572 25.825 22.5871 25.6578 22.4635 25.5342C22.3399 25.4106 22.1727 25.3405 21.9979 25.3389C21.8231 25.3374 21.6547 25.4046 21.5289 25.5261Z" fill="#F5FAFE"/>
</g>
<defs>
<clipPath id="clip0_24321_67522">
<rect width="40" height="40" fill="white"/>
</clipPath>
</defs>
</svg>
