<svg width="74" height="74" viewBox="0 0 74 74" fill="none" xmlns="http://www.w3.org/2000/svg">
<g clip-path="url(#clip0_24391_46511)">
<path d="M54.0021 17C54.0021 17 49.3337 22.369 48.1659 21.7464L50.42 17.1746C50.42 17.1746 48.1653 21.7458 45.1325 20.9683C46.5315 19.1784 47.0721 17.5371 47.0721 17.5371C47.0721 17.5371 44.7423 21.2799 41.8632 20.2676C41.1868 20.0305 42.7044 18.3106 42.7044 18.3106C42.7044 18.3106 40.7734 20.1901 39.4512 19.9565C38.1285 19.7235 39.5287 17.311 39.5287 17.311C39.5287 17.311 37.1948 20.9688 36.7265 20.8127C36.2606 20.6578 36.9607 18.2447 36.9607 18.2447C36.9607 18.2447 35.2494 21.0463 34.3158 20.8908C33.3821 20.7347 34.3158 18.0117 34.3158 18.0117C34.3158 18.0117 33.304 21.0469 32.5259 20.8127C31.7472 20.5797 31.5922 18.7899 31.5922 18.7899C31.5922 18.7899 31.3818 21.2197 30.2695 21.4348C21.8658 23.0697 12.606 26.6495 1.01172 38.2426C11.9828 32.3284 16.3401 23.6137 36.8826 22.8362C52.4359 22.2465 59.6943 29.4251 62.0941 29.5274C69.4091 29.8396 74 22.7575 74 22.7575C74 22.7575 69.4091 28.0485 66.0623 26.7645C69.0588 25.0145 71.3539 20.7347 71.3539 20.7347C71.3539 20.7347 65.5178 26.7645 61.4726 25.8696C65.1287 22.9911 66.918 18.0129 66.918 18.0129C66.918 18.0129 62.2739 25.1799 59.3705 25.4822C62.7167 22.5251 64.117 18.3222 64.117 18.3222C64.117 18.3222 60.3042 23.9254 57.3471 24.315C61.3165 20.7353 61.4726 18.4788 61.4726 18.4788C61.4726 18.4788 55.9804 25.5759 53.7691 24.47C56.4129 21.5909 58.2033 17.9337 58.2033 17.9337C58.2033 17.9337 53.613 24.1589 52.3677 23.1472C51.5115 22.9911 53.7691 20.1901 53.7691 20.1901C53.7691 20.1901 50.9681 22.6801 50.1893 22.0574C51.5896 21.2018 54.0021 17 54.0021 17ZM61.4691 30.0876C60.6864 30.0344 59.9961 30.3269 59.6434 31.2872C56.0244 38.1738 48.4382 42.0259 39.5669 43.3093C30.6961 44.5928 24.1598 42.7277 18.7908 41.2148C11.7302 39.2237 6.12813 42.7653 0 39.6914C1.41756 40.813 3.03516 41.9091 7.70352 41.923C9.28642 41.9288 14.356 41.6744 15.2897 42.4913C16.2233 43.3087 12.1389 47.1602 12.1389 47.1602C12.1389 47.1602 19.0504 41.3165 19.725 43.3087C20.1448 44.5488 17.7409 47.8615 17.7409 47.8615C17.7409 47.8615 20.1517 44.5904 21.9439 43.8926C23.173 43.4128 24.2101 43.4706 25.0947 44.7101C25.6786 45.5264 22.2937 49.4953 22.2937 49.4953C22.2937 49.4953 26.8447 45.0605 27.6621 45.294C28.4796 45.5264 27.6621 49.4953 27.6621 49.4953C27.6621 49.4953 29.3364 45.4738 30.229 45.1767C31.4546 44.7685 27.428 54.5134 27.428 54.5134C27.428 54.5134 32.3461 45.4975 33.2642 45.2946C34.8401 44.9443 35.8912 51.5962 35.8912 51.5962C35.8912 51.5962 35.1234 45.7848 35.949 45.4102C41.1752 43.0457 38.1678 55.4482 38.1678 55.4482C38.1678 55.4482 41.5857 47.0319 39.4859 45.1651C45.029 48.8408 44.3538 55.4482 44.3538 55.4482C44.3538 55.4482 45.8106 52.302 41.7221 44.5662C43.941 44.4505 47.2698 50.3127 47.2698 50.3127C47.2698 50.3127 43.6525 43.8932 46.1037 43.777C50.9739 43.5458 51.4728 52.2968 51.4728 52.2968C51.4728 52.2968 52.9314 51.0712 49.0215 42.4918C51.5109 40.8974 57.5419 50.4295 57.5419 50.4295C57.5419 50.4295 51.9786 41.1309 52.8736 40.5083C53.7674 39.8857 57.0372 43.466 57.0372 43.466C57.0372 43.466 54.5473 40.0423 55.2075 39.692C55.8688 39.3411 62.4837 46.5006 62.4837 46.5006C62.4837 46.5006 56.647 39.4966 57.6587 38.6404C58.2571 38.1334 59.9915 39.0711 61.3154 39.9215C59.4596 38.5941 56.7938 36.5169 57.6587 36.0677C59.4486 35.1387 64.5459 38.29 64.5459 38.29C64.5459 38.29 61.472 35.7613 61.9773 35.1393C62.4832 34.516 68.513 39.1075 68.513 39.1075C68.513 39.1075 63.1827 34.9045 62.911 33.8547C62.6381 32.8048 67.114 34.205 67.114 34.205C67.114 34.205 62.1721 31.9098 62.0947 31.2485C62.016 30.5859 65.3622 31.9873 65.3622 31.9873C65.3622 31.9873 63.192 30.2032 61.4691 30.0876ZM61.3154 39.9215C61.8542 40.3069 62.3991 40.6839 62.9497 41.0523C62.9497 41.0523 62.2271 40.5077 61.3154 39.9215Z" fill="#353333"/>
<path d="M10.5714 38.2426C22.164 26.6478 31.4244 23.0692 39.8274 21.4348C40.9403 21.2186 41.1502 18.7887 41.1502 18.7887C41.1502 18.7887 41.3051 20.5786 42.0839 20.8122C42.8614 21.0451 43.8737 18.01 43.8737 18.01C43.8737 18.01 42.9401 20.7335 43.8737 20.8902C44.8074 21.0451 46.5187 18.2435 46.5187 18.2435C46.5187 18.2435 45.8191 20.6561 46.2863 20.8116C46.7528 20.9677 49.0867 17.3099 49.0867 17.3099C49.0867 17.3099 47.6871 19.7224 49.0092 19.956C50.3331 20.1901 52.2629 18.3095 52.2629 18.3095C52.2629 18.3095 50.7453 20.0294 51.4217 20.2676C54.3008 21.2793 56.6306 17.5371 56.6306 17.5371C56.6306 17.5371 56.0907 19.1778 54.6905 20.9677C57.7245 21.7464 59.9786 17.1752 59.9786 17.1752L57.7239 21.7464C58.8917 22.3685 63.5606 17 63.5606 17C63.5606 17 61.1481 21.2012 59.7479 22.0563C60.5255 22.6807 63.3265 20.1901 63.3265 20.1901C63.3265 20.1901 61.0706 22.99 61.9268 23.146C63.1716 24.1578 67.7619 17.9325 67.7619 17.9325C67.7619 17.9325 65.9731 21.5897 63.3265 24.4688C65.5378 25.5747 71.0306 18.4777 71.0306 18.4777C71.0306 18.4777 70.8745 20.7335 66.9068 24.3139C69.8628 23.9248 73.6767 18.3222 73.6767 18.3222C73.6767 18.3222 72.2753 22.524 68.9291 25.4799C71.8324 25.1793 76.4765 18.0106 76.4765 18.0106C76.4765 18.0106 74.6866 22.99 71.0306 25.8696C75.0763 26.7657 80.9125 20.7335 80.9125 20.7335C80.9125 20.7335 78.6167 25.014 75.6215 26.7651C78.9677 28.0485 83.558 22.7575 83.558 22.7575C83.558 22.7575 78.9677 29.8384 71.6526 29.5274C69.2534 29.4251 61.9945 22.2459 46.4412 22.835C25.9004 23.6137 21.5419 32.3284 10.5714 38.2426Z" fill="#353333"/>
<path d="M45.4737 17.0095C38.4541 17.1673 31.3096 19.3278 23.228 23.8036C21.7607 25.4993 21.0034 27.3371 21.1641 29.2033C21.7075 35.5453 32.5676 39.7917 45.4199 38.6892C58.2745 37.5861 68.253 31.5516 67.7089 25.2113C67.6066 24.0216 67.1412 22.9046 66.3677 21.8842C59.0139 18.5889 52.2984 16.8551 45.4737 17.0095Z" fill="#BAE6FA"/>
<path d="M49.8611 17.0001C44.1509 16.9897 38.3853 18.2904 32.119 21.0828C31.8559 22.0887 31.7143 23.1351 31.7143 24.2133C31.7143 31.7347 38.5061 37.8334 46.8843 37.8334C55.2613 37.8334 62.0537 31.7353 62.0537 24.2133C62.0537 22.1864 61.5554 20.2647 60.6703 18.5361C57.0165 17.5406 53.4495 17.007 49.8611 17.0001Z" fill="white"/>
<path d="M54.5021 17.0133C51.7866 16.8474 47.1079 18.2638 43.2072 19.6767C42.5979 21.1113 42.2845 22.6541 42.2857 24.2127C42.2857 30.8033 48.2606 36.1463 54.5813 36.1463C60.8597 36.1463 66.4155 30.7941 66.8768 24.2138C67.0272 22.0696 66.2889 20.0513 65.2656 18.3089C61.2205 17.5978 56.9296 17.1613 54.5021 17.0133Z" fill="white"/>
<path d="M54.8343 23.3485C55.1673 22.6108 55.6715 22.25 56.16 21.632C56.1062 21.4857 55.9865 21.0065 55.9865 20.84C55.9869 20.6211 56.0407 20.4056 56.1434 20.2123C56.246 20.019 56.3944 19.8538 56.5755 19.7309C56.7567 19.6081 56.9651 19.5314 57.1827 19.5076C57.4003 19.4837 57.6204 19.5134 57.8238 19.5941C58.9597 18.7249 60.2725 18.1155 61.6695 17.8088C63.0666 17.5021 64.5139 17.5057 65.9095 17.8193C66.1789 17.88 66.4413 17.9528 66.6998 18.0338C63.7947 17.6308 60.5208 18.6599 58.2938 20.4573C58.3615 20.6174 58.5499 21.0759 58.5499 21.2614C58.5499 22.0026 58.0707 22.1824 57.3301 22.1824C57.1607 22.1824 57.0006 22.15 56.8514 22.0939C56.3484 22.7692 55.7316 24.0561 55.4298 24.8608C56.6612 25.9627 57.7747 26.3611 59.224 26.9039C59.2211 26.8346 59.2738 26.771 59.2738 26.7004C59.2738 24.4654 61.2411 22.6495 63.4767 22.6495C64.4315 22.6499 65.3554 22.9881 66.0846 23.6044C66.8139 24.2207 67.3016 25.0752 67.4612 26.0165C68.4613 25.3806 69.4268 24.8932 70.1633 23.9509C69.9922 23.7416 69.806 23.1473 69.806 22.8553C69.806 22.1835 70.3518 21.6384 71.0253 21.6384C71.1201 21.6384 71.2115 21.6517 71.3011 21.6731C71.6761 20.9018 71.9566 20.0881 72.1365 19.2496C68.6417 16.663 61.8805 17.0163 61.8805 17.0163C61.8805 17.0163 56.4993 16.7353 52.8571 18.5101C53.1 20.2665 53.8006 21.9349 54.8343 23.3485Z" fill="#353333"/>
<path d="M70.3638 21.2255L68.2461 17.4388L69.3919 21.4585L65.9567 18.961L68.6479 22.3419L64.383 20.7734L67.7483 23.2634L63.4332 23.3964L67.8454 24.5353L63.4286 25.4909L67.7882 25.806L64.1113 28.1607L67.898 26.7882L65.2705 30.1159L68.5895 27.438L67.3951 31.9023L69.9573 28.2694L69.5977 32.5608L71.0529 28.67L72.2918 32.7585L72.5924 28.6579L74.4309 32.1567L73.3451 28.1561L76.7098 30.7623L74.5372 27.438L78.2291 28.8776L75.4062 26.1026L79.1917 26.3997L75.4628 24.9695L79.2016 24.078L75.4495 23.886L78.502 21.5522L75.0379 22.794L77.3926 19.5305L74.1401 21.6926L75.2772 17.8724L73.0434 21.0214L72.9931 17.0416L71.5223 20.5861L70.2978 17L70.3638 21.2255Z" fill="white"/>
<path d="M28.4209 46.1214C27.7037 45.4085 27.1011 44.5891 26.6345 43.6921C26.5454 43.7066 26.4553 43.7141 26.3651 43.7146C25.897 43.7145 25.4483 43.5284 25.1174 43.1975C24.7865 42.8665 24.6006 42.4176 24.6006 41.9496C24.6006 41.2506 25.0082 40.6488 25.5973 40.3632C25.4596 39.2496 25.5149 38.1205 25.7609 37.0257C25.832 36.7069 25.9188 36.3918 26.0211 36.0816C24.908 34.4543 24.3139 32.5281 24.3168 30.5565C24.3168 30.4819 24.3208 30.4079 24.3225 30.3333C22.5049 31.2445 21.1429 32.6811 21.1429 34.941C21.1429 39.94 24.1283 44.2401 28.4122 46.1624L28.4209 46.1214ZM38.8497 39.814C38.5722 40.6045 38.0562 41.2894 37.3728 41.7741C36.6894 42.2587 35.8724 42.5192 35.0346 42.5196C34.1287 42.5202 33.2492 42.215 32.5383 41.6536C31.1196 42.7584 30.0495 44.2638 29.3956 45.9468C29.6896 46.2634 30.0023 46.562 30.3322 46.8411C31.3466 47.1043 32.3904 47.2373 33.4384 47.2371C37.7587 47.2371 41.5553 45.0067 43.7487 41.6374C42.2907 40.6274 40.5991 39.9747 38.8497 39.814Z" fill="#1185B0"/>
<path d="M38.8871 46.7255C38.1679 46.0103 37.6713 44.5853 37.2047 43.6903C37.1163 43.7051 37.0268 43.7128 36.9371 43.7135C35.9623 43.7135 34.9414 42.8948 35.1726 41.9484C35.301 41.4247 35.6617 41.0824 36.2508 40.7968C36.1161 39.7117 36.0797 38.1519 36.3318 37.0246C36.404 36.7025 36.5572 36.5505 36.659 36.2441C35.5837 34.6698 34.8882 32.6042 34.8882 30.5559C34.8882 30.4808 34.8928 30.4073 34.894 30.3333C33.0769 31.2445 31.7143 32.6805 31.7143 34.9393C31.7143 39.9389 34.5933 44.8437 38.8773 46.7654C38.8807 46.7521 38.883 46.7388 38.8871 46.7255ZM49.4217 39.814C49.1442 40.6045 48.6282 41.2894 47.9448 41.7741C47.2614 42.2587 46.4444 42.5192 45.6066 42.5196C44.7005 42.5203 43.8208 42.2147 43.1103 41.6524C41.6916 42.7567 40.4047 44.6974 39.7514 46.3809C40.0439 46.696 40.2486 46.9567 40.5781 47.2365C41.5702 47.4956 42.9368 47.2365 44.0104 47.2365C48.3308 47.2365 52.1562 45.3143 54.349 41.945C52.8904 40.935 51.1705 39.9741 49.4217 39.814Z" fill="#353333"/>
<path d="M44.2629 36.6824C44.5912 35.9552 45.0073 35.271 45.5018 34.645C45.4261 34.442 45.4006 34.2237 45.4275 34.0087C45.4545 33.7937 45.533 33.5884 45.6565 33.4103C45.78 33.2322 45.9447 33.0867 46.1366 32.9861C46.3286 32.8855 46.542 32.8328 46.7587 32.8326C46.9327 32.8326 47.0998 32.8673 47.253 32.928C48.4991 31.9756 49.9559 31.3367 51.5006 31.0652C53.0454 30.7938 54.6328 30.8977 56.1289 31.3682C53.2233 30.9659 50.2222 31.8556 47.9947 33.653C48.0965 33.8952 48.125 34.162 48.0766 34.4202C48.0282 34.6785 47.9051 34.9169 47.7226 35.1058C47.54 35.2948 47.306 35.426 47.0496 35.4832C46.7932 35.5405 46.5256 35.5212 46.28 35.4278C45.7722 36.1094 45.3629 36.8591 45.0642 37.6548C46.1222 38.7942 47.4195 39.6955 48.8694 40.2378C48.8659 40.1684 48.8596 40.1008 48.8596 40.0297C48.8594 39.4984 48.9639 38.9722 49.1672 38.4813C49.3704 37.9904 49.6683 37.5443 50.044 37.1686C50.4196 36.7929 50.8656 36.4948 51.3564 36.2914C51.8473 36.0881 52.3734 35.9834 52.9047 35.9834C54.9085 35.9834 56.5671 37.4403 56.8909 39.3504C57.895 38.7072 58.7821 37.8974 59.5138 36.9558C59.3352 36.7406 59.2369 36.47 59.2358 36.1904C59.2358 35.5174 59.7809 34.9723 60.4539 34.9723C60.5487 34.9723 60.64 34.9861 60.7296 35.0069C61.1047 34.2361 61.3852 33.4228 61.565 32.5846C58.0714 29.9963 51.3091 30.3496 51.3091 30.3496C51.3091 30.3496 45.9279 30.0686 42.2857 31.8446C42.5291 33.6004 43.2292 35.2706 44.2629 36.6824Z" fill="#1185B0"/>
<path d="M69.3214 33.2638C69.5694 33.4858 69.7041 33.6818 69.8094 33.872C70.1372 34.4594 69.481 34.9976 68.8092 34.9976C68.7419 34.9964 68.6748 34.9897 68.6086 34.9774C67.8507 36.1608 66.5239 37.6796 65.3445 38.4438C67.1529 38.7404 68.8578 39.4637 70.2146 40.5829C71.2021 38.8121 71.9606 36.2568 71.9606 34.0865C71.9606 32.4331 71.2298 31.2219 70.1296 30.3333C70.0713 31.2184 69.5978 32.4568 69.3214 33.2638ZM54.6463 44.4743C55.2481 42.811 56.7304 41.5218 58.1324 40.3881C57.9266 40.1071 57.6196 39.4122 57.4918 39.0827C55.8026 38.5681 54.2836 37.6069 53.0952 36.3007C53.0877 36.3383 53.0778 36.3759 53.0674 36.4129C52.8528 37.3808 52.802 38.3778 52.9171 39.3625C53.3213 39.4382 53.6863 39.6529 53.9488 39.9695C54.2113 40.2861 54.3548 40.6845 54.3543 41.0957C54.3543 41.6073 53.9051 42.3479 53.5577 42.6711C53.9364 43.488 54.1936 43.8817 54.6463 44.4743Z" fill="#353333"/>
<path d="M0.000578135 53.2766C6.12755 56.3505 11.7307 52.8101 18.792 54.7994C24.1604 56.3123 30.6967 58.1791 39.5669 56.8939C48.4382 55.6117 56.0244 51.759 59.644 44.8724C60.7713 41.7985 65.3628 45.5719 65.3628 45.5719C65.3628 45.5719 62.0166 44.1729 62.0941 44.8337C62.1727 45.495 67.1122 47.7896 67.1122 47.7896C67.1122 47.7896 62.6393 46.3906 62.9116 47.4399C63.1844 48.4909 68.513 52.6927 68.513 52.6927C68.513 52.6927 62.4843 48.1012 61.9779 48.7233C61.472 49.3459 64.5448 51.8764 64.5448 51.8764C64.5448 51.8764 59.4492 48.7233 57.6593 49.6535C56.3724 50.3212 62.9503 54.6387 62.9503 54.6387C62.9503 54.6387 58.6704 51.3705 57.6593 52.2267C56.6476 53.0824 62.4843 60.0852 62.4843 60.0852C62.4843 60.0852 55.8683 52.9263 55.208 53.2766C54.5455 53.6264 57.0367 57.05 57.0367 57.05C57.0367 57.05 53.7679 53.4714 52.8742 54.0941C51.9792 54.7167 57.5431 64.0141 57.5431 64.0141C57.5431 64.0141 51.5121 54.4826 49.0215 56.0776C52.9325 64.6558 51.4728 65.8826 51.4728 65.8826C51.4728 65.8826 50.9744 57.1298 46.1043 57.3611C43.6531 57.4778 47.271 63.8979 47.271 63.8979C47.271 63.8979 43.941 58.0346 41.7233 58.1514C45.8106 65.8867 44.3538 69.0317 44.3538 69.0317C44.3538 69.0317 45.0284 62.4277 39.4842 58.7509C41.5851 60.6182 38.1661 69.034 38.1661 69.034C38.1661 69.034 41.1746 56.6315 35.9484 58.996C35.1222 59.3695 35.8906 65.1819 35.8906 65.1819C35.8906 65.1819 34.839 58.5277 33.2647 58.8798C32.3455 59.0833 27.4286 68.0997 27.4286 68.0997C27.4286 68.0997 31.4552 58.3537 30.2296 58.763C29.337 59.0607 27.6627 63.0816 27.6627 63.0816C27.6627 63.0816 28.4784 59.1134 27.6627 58.8798C26.8447 58.6457 22.2925 63.0816 22.2925 63.0816C22.2925 63.0816 25.6786 59.1134 25.0935 58.2959C24.209 57.0575 23.1724 56.9992 21.9427 57.4784C20.1523 58.1762 17.7409 61.4472 17.7409 61.4472C17.7409 61.4472 20.1448 58.1346 19.725 56.8945C19.051 54.9023 12.1389 60.7471 12.1389 60.7471C12.1389 60.7471 16.2233 56.8945 15.2897 56.0782C14.356 55.2607 9.28584 55.514 7.70352 55.5099C3.03516 55.4949 1.41814 54.3987 0.000578135 53.2766Z" fill="#353333"/>
<path d="M48.4784 46.211C48.7264 46.433 48.8848 46.7527 48.8848 47.1117C48.8846 47.4347 48.7562 47.7445 48.5278 47.9729C48.2994 48.2013 47.9897 48.3297 47.6667 48.3298C47.5984 48.3298 47.532 48.32 47.4661 48.309C46.7082 49.4939 45.7054 50.5028 44.5251 51.2679C46.2672 51.5404 47.9041 52.276 49.2646 53.3977C50.2854 51.5704 50.8203 49.5118 50.818 47.4187C50.818 45.7653 50.0879 44.5547 48.9871 43.6667C48.9293 44.5512 48.7559 45.4045 48.4784 46.211ZM33.8009 57.6226C34.4085 55.9415 35.4635 54.4583 36.8523 53.3329C36.6455 53.0504 36.4764 52.7422 36.3493 52.416C34.6604 51.9012 33.1419 50.9401 31.9538 49.6341C31.9451 49.6716 31.9347 49.7081 31.9261 49.7451C31.7104 50.7128 31.659 51.7099 31.774 52.6947C32.0951 52.7551 32.3931 52.9036 32.6347 53.1235C32.8763 53.3435 33.052 53.6262 33.1423 53.9402C33.2326 54.2542 33.2339 54.5871 33.146 54.9018C33.0582 55.2164 32.8846 55.5005 32.6447 55.7223C32.9624 56.3945 33.3499 57.0315 33.8009 57.6226Z" fill="#1185B0"/>
</g>
<defs>
<clipPath id="clip0_24391_46511">
<rect width="74" height="74" fill="white"/>
</clipPath>
</defs>
</svg>
