<svg width="295" height="46" viewBox="0 0 295 46" fill="none" xmlns="http://www.w3.org/2000/svg">
<path d="M17.5348 34.9136H11.7104C11.5728 34.9136 11.2946 34.776 11.2946 34.6353L9.4938 29.0892C9.35621 28.6734 8.66218 28.6734 8.5246 29.0892L6.72379 34.6353C6.72379 34.7729 6.44556 34.9136 6.30798 34.9136H0.483628C0.0678214 34.9136 -0.210403 35.4669 0.205403 35.7452L4.91992 39.2123C5.05751 39.3499 5.19814 39.4905 5.0575 39.7657L3.2567 45.3118C3.11911 45.7276 3.6725 46.1434 3.95072 45.8652L8.66524 42.3981C8.80283 42.2605 9.08105 42.2605 9.21863 42.3981L13.9331 45.8652C14.349 46.1434 14.7648 45.7276 14.6272 45.3118L12.8264 39.7657C12.8264 39.6281 12.8264 39.3499 12.964 39.2123L17.6785 35.7452C18.2288 35.47 18.0882 34.9136 17.5348 34.9136Z" fill="#FF5B14"/>
<path d="M36.2516 34.9136H30.4272C30.2896 34.9136 30.0114 34.776 30.0114 34.6353L28.2106 29.0892C28.073 28.6734 27.379 28.6734 27.2414 29.0892L25.4406 34.6353C25.4406 34.7729 25.1624 34.9136 25.0248 34.9136H19.2004C18.7846 34.9136 18.5064 35.4669 18.9222 35.7452L23.6367 39.2123C23.7743 39.3499 23.9149 39.4905 23.7743 39.7657L21.9735 45.3118C21.8359 45.7276 22.3893 46.1434 22.6675 45.8652L27.382 42.3981C27.5196 42.2605 27.7978 42.2605 27.9354 42.3981L32.6499 45.8652C33.0657 46.1434 33.4816 45.7276 33.344 45.3118L31.5432 39.7657C31.5432 39.6281 31.5432 39.3499 31.6807 39.2123L36.3953 35.7452C36.805 35.47 36.6674 34.9136 36.2516 34.9136Z" fill="#FF5B14"/>
<path d="M55.3824 34.9136H49.5581C49.4205 34.9136 49.1423 34.776 49.1423 34.6353L47.3415 29.0892C47.2039 28.6734 46.5098 28.6734 46.3723 29.0892L44.5714 34.6353C44.5714 34.7729 44.2932 34.9136 44.1556 34.9136H38.3313C37.9155 34.9136 37.6373 35.4669 38.0531 35.7452L42.7676 39.2123C42.9052 39.3499 43.0458 39.4905 42.9052 39.7657L41.1043 45.3118C40.9668 45.7276 41.5202 46.1434 41.7984 45.8652L46.5129 42.3981C46.6505 42.2605 46.9287 42.2605 47.0663 42.3981L51.7808 45.8652C52.1966 46.1434 52.6124 45.7276 52.4748 45.3118L50.674 39.7657C50.674 39.6281 50.674 39.3499 50.8116 39.2123L55.5261 35.7452C55.9389 35.47 55.7982 34.9136 55.3824 34.9136Z" fill="#FF5B14"/>
<path d="M74.3785 34.9136H68.5542C68.4166 34.9136 68.1384 34.776 68.1384 34.6353L66.3375 29.0892C66.2 28.6734 65.5059 28.6734 65.3683 29.0892L63.5675 34.6353C63.5675 34.7729 63.2893 34.9136 63.1517 34.9136H57.3274C56.9116 34.9136 56.6333 35.4669 57.0492 35.7452L61.7637 39.2123C61.9012 39.3499 62.0419 39.4905 61.9013 39.7657L60.1004 45.3118C59.9629 45.7276 60.5163 46.1434 60.7945 45.8652L65.509 42.3981C65.6466 42.2605 65.9248 42.2605 66.0624 42.3981L70.7769 45.8652C71.1927 46.1434 71.6085 45.7276 71.4709 45.3118L69.6701 39.7657C69.6701 39.6281 69.6701 39.3499 69.8077 39.2123L74.5222 35.7452C74.9319 35.47 74.7943 34.9136 74.3785 34.9136Z" fill="#FF5B14"/>
<path d="M93.2329 35.7491C93.6487 35.4708 93.3705 34.9175 92.9547 34.9175H87.1303C86.9928 34.9175 86.7145 34.7799 86.7145 34.6392L84.9137 29.0931C84.7761 28.6773 84.0821 28.6773 83.9445 29.0931L82.1437 34.6392C82.1437 34.7768 81.8655 34.9175 81.7279 34.9175H75.9035C75.4877 34.9175 75.2095 35.4708 75.6253 35.7491L80.3398 39.2162C80.4774 39.3537 80.6181 39.4944 80.4774 39.7696L78.6766 45.3157C78.539 45.7315 79.0924 46.1473 79.3706 45.8691L84.0852 42.402C84.2227 42.2644 84.501 42.2644 84.6385 42.402L89.3531 45.8691C89.7689 46.1473 90.1847 45.7315 90.0471 45.3157L88.2463 39.7696C88.2463 39.632 88.2463 39.3537 88.3839 39.2162L93.2329 35.7491Z" fill="#FF5B14"/>
<path d="M4.84091 17.2021C4.17424 17.2021 3.57386 17.0695 3.03977 16.8043C2.50568 16.5392 2.07765 16.1755 1.75568 15.7134C1.43371 15.2513 1.25758 14.7248 1.22727 14.1339H2.59091C2.64394 14.6604 2.88258 15.096 3.30682 15.4407C3.73485 15.7816 4.24621 15.9521 4.84091 15.9521C5.31818 15.9521 5.74242 15.8403 6.11364 15.6168C6.48864 15.3933 6.7822 15.0865 6.99432 14.6964C7.21023 14.3024 7.31818 13.8574 7.31818 13.3612C7.31818 12.8536 7.20644 12.4009 6.98295 12.0032C6.76326 11.6017 6.46023 11.2854 6.07386 11.0543C5.6875 10.8233 5.24621 10.7058 4.75 10.7021C4.39394 10.6983 4.02841 10.7532 3.65341 10.8668C3.27841 10.9767 2.9697 11.1187 2.72727 11.293L1.40909 11.1339L2.11364 5.4066H8.15909V6.6566H3.29545L2.88636 10.0884H2.95455C3.19318 9.89903 3.49242 9.74183 3.85227 9.61683C4.21212 9.49183 4.58712 9.42933 4.97727 9.42933C5.68939 9.42933 6.32386 9.59979 6.88068 9.9407C7.44129 10.2778 7.88068 10.7399 8.19886 11.3271C8.52083 11.9142 8.68182 12.5846 8.68182 13.3384C8.68182 14.0808 8.51515 14.7437 8.18182 15.3271C7.85227 15.9066 7.39773 16.3649 6.81818 16.7021C6.23864 17.0354 5.57955 17.2021 4.84091 17.2021ZM22.0071 8.3157C21.9389 7.73994 21.6624 7.29297 21.1776 6.97479C20.6927 6.6566 20.098 6.49751 19.3935 6.49751C18.8783 6.49751 18.4276 6.58085 18.0412 6.74751C17.6586 6.91418 17.3594 7.14335 17.1435 7.43501C16.9313 7.72668 16.8253 8.05812 16.8253 8.42933C16.8253 8.73994 16.8991 9.00698 17.0469 9.23047C17.1984 9.45017 17.3916 9.63388 17.6264 9.7816C17.8613 9.92554 18.1075 10.0449 18.3651 10.1396C18.6226 10.2305 18.8594 10.3043 19.0753 10.3612L20.2571 10.6793C20.5601 10.7589 20.8973 10.8687 21.2685 11.0089C21.6435 11.149 22.0014 11.3403 22.3423 11.5827C22.687 11.8214 22.9711 12.1282 23.1946 12.5032C23.4181 12.8782 23.5298 13.3384 23.5298 13.8839C23.5298 14.5127 23.3651 15.0808 23.0355 15.5884C22.7098 16.096 22.2325 16.4994 21.6037 16.7987C20.9787 17.0979 20.2192 17.2475 19.3253 17.2475C18.492 17.2475 17.7704 17.113 17.1605 16.8441C16.5545 16.5752 16.0772 16.2002 15.7287 15.7191C15.384 15.238 15.1889 14.6793 15.1435 14.043H16.598C16.6359 14.4824 16.7836 14.846 17.0412 15.1339C17.3026 15.418 17.6321 15.6301 18.0298 15.7702C18.4313 15.9066 18.8632 15.9748 19.3253 15.9748C19.8632 15.9748 20.3461 15.8877 20.7741 15.7134C21.2022 15.5354 21.5412 15.2892 21.7912 14.9748C22.0412 14.6566 22.1662 14.2854 22.1662 13.8612C22.1662 13.4748 22.0582 13.1604 21.8423 12.918C21.6264 12.6755 21.3423 12.4786 20.9901 12.3271C20.6378 12.1755 20.2571 12.043 19.848 11.9293L18.4162 11.5202C17.5071 11.2589 16.7874 10.8858 16.2571 10.4009C15.7268 9.91607 15.4616 9.2816 15.4616 8.49751C15.4616 7.846 15.6378 7.27782 15.9901 6.79297C16.3461 6.30433 16.8234 5.92554 17.4219 5.6566C18.0241 5.38388 18.6965 5.24751 19.4389 5.24751C20.1889 5.24751 20.8556 5.38198 21.4389 5.65092C22.0223 5.91607 22.4844 6.27971 22.8253 6.74183C23.17 7.20395 23.3518 7.72857 23.3707 8.3157H22.0071ZM29.4602 8.3157V9.45206H24.9375V8.3157H29.4602ZM26.2557 6.22479H27.5966V14.543C27.5966 14.9218 27.6515 15.2058 27.7614 15.3952C27.875 15.5808 28.0189 15.7058 28.1932 15.7702C28.3712 15.8308 28.5587 15.8612 28.7557 15.8612C28.9034 15.8612 29.0246 15.8536 29.1193 15.8384C29.214 15.8195 29.2898 15.8043 29.3466 15.793L29.6193 16.9975C29.5284 17.0316 29.4015 17.0657 29.2386 17.0998C29.0758 17.1377 28.8693 17.1566 28.6193 17.1566C28.2405 17.1566 27.8693 17.0752 27.5057 16.9123C27.1458 16.7494 26.8466 16.5013 26.608 16.168C26.3731 15.8346 26.2557 15.4142 26.2557 14.9066V6.22479ZM34.0455 17.2475C33.4924 17.2475 32.9905 17.1433 32.5398 16.935C32.089 16.7229 31.7311 16.418 31.4659 16.0202C31.2008 15.6187 31.0682 15.1339 31.0682 14.5657C31.0682 14.0657 31.1667 13.6604 31.3636 13.3498C31.5606 13.0354 31.8239 12.7892 32.1534 12.6112C32.483 12.4331 32.8466 12.3005 33.2443 12.2134C33.6458 12.1225 34.0492 12.0505 34.4545 11.9975C34.9848 11.9293 35.4148 11.8782 35.7443 11.8441C36.0777 11.8062 36.3201 11.7437 36.4716 11.6566C36.6269 11.5695 36.7045 11.418 36.7045 11.2021V11.1566C36.7045 10.596 36.5511 10.1604 36.2443 9.84979C35.9413 9.53918 35.4811 9.38388 34.8636 9.38388C34.2235 9.38388 33.7216 9.52403 33.358 9.80433C32.9943 10.0846 32.7386 10.3839 32.5909 10.7021L31.3182 10.2475C31.5455 9.71721 31.8485 9.30433 32.2273 9.00888C32.6098 8.70964 33.0265 8.5013 33.4773 8.38388C33.9318 8.26267 34.3788 8.20206 34.8182 8.20206C35.0985 8.20206 35.4205 8.23615 35.7841 8.30433C36.1515 8.36873 36.5057 8.5032 36.8466 8.70774C37.1913 8.91229 37.4773 9.221 37.7045 9.63388C37.9318 10.0468 38.0455 10.5998 38.0455 11.293V17.043H36.7045V15.8612H36.6364C36.5455 16.0505 36.3939 16.2532 36.1818 16.4691C35.9697 16.685 35.6875 16.8687 35.3352 17.0202C34.983 17.1718 34.553 17.2475 34.0455 17.2475ZM34.25 16.043C34.7803 16.043 35.2273 15.9388 35.5909 15.7305C35.9583 15.5221 36.2348 15.2532 36.4205 14.9237C36.6098 14.5941 36.7045 14.2475 36.7045 13.8839V12.6566C36.6477 12.7248 36.5227 12.7873 36.3295 12.8441C36.1402 12.8971 35.9205 12.9445 35.6705 12.9862C35.4242 13.024 35.1837 13.0581 34.9489 13.0884C34.7178 13.1149 34.5303 13.1377 34.3864 13.1566C34.0379 13.2021 33.7121 13.2759 33.4091 13.3782C33.1098 13.4767 32.8674 13.6263 32.6818 13.8271C32.5 14.024 32.4091 14.293 32.4091 14.6339C32.4091 15.0998 32.5814 15.4521 32.9261 15.6907C33.2746 15.9255 33.7159 16.043 34.25 16.043ZM40.4929 17.043V8.3157H41.7884V9.63388H41.8793C42.0384 9.20206 42.3262 8.85168 42.7429 8.58274C43.1596 8.3138 43.6293 8.17933 44.152 8.17933C44.2505 8.17933 44.3736 8.18123 44.5213 8.18501C44.669 8.1888 44.7808 8.19448 44.8565 8.20206V9.5657C44.8111 9.55433 44.7069 9.53729 44.544 9.51456C44.3849 9.48804 44.2164 9.47479 44.0384 9.47479C43.6141 9.47479 43.2353 9.5638 42.902 9.74183C42.5724 9.91607 42.3111 10.1585 42.1179 10.4691C41.9285 10.7759 41.8338 11.1263 41.8338 11.5202V17.043H40.4929ZM54.4915 17.2248C53.7036 17.2248 53.0123 17.0373 52.4176 16.6623C51.8267 16.2873 51.3646 15.7627 51.0312 15.0884C50.7017 14.4142 50.5369 13.6263 50.5369 12.7248C50.5369 11.8157 50.7017 11.0221 51.0312 10.3441C51.3646 9.66607 51.8267 9.13956 52.4176 8.76456C53.0123 8.38956 53.7036 8.20206 54.4915 8.20206C55.2794 8.20206 55.9688 8.38956 56.5597 8.76456C57.1544 9.13956 57.6165 9.66607 57.946 10.3441C58.2794 11.0221 58.446 11.8157 58.446 12.7248C58.446 13.6263 58.2794 14.4142 57.946 15.0884C57.6165 15.7627 57.1544 16.2873 56.5597 16.6623C55.9688 17.0373 55.2794 17.2248 54.4915 17.2248ZM54.4915 16.0202C55.09 16.0202 55.5824 15.8668 55.9688 15.56C56.3551 15.2532 56.6411 14.8498 56.8267 14.3498C57.0123 13.8498 57.1051 13.3081 57.1051 12.7248C57.1051 12.1415 57.0123 11.5979 56.8267 11.0941C56.6411 10.5903 56.3551 10.1831 55.9688 9.87251C55.5824 9.56191 55.09 9.4066 54.4915 9.4066C53.893 9.4066 53.4006 9.56191 53.0142 9.87251C52.6278 10.1831 52.3419 10.5903 52.1562 11.0941C51.9706 11.5979 51.8778 12.1415 51.8778 12.7248C51.8778 13.3081 51.9706 13.8498 52.1562 14.3498C52.3419 14.8498 52.6278 15.2532 53.0142 15.56C53.4006 15.8668 53.893 16.0202 54.4915 16.0202ZM61.8338 11.793V17.043H60.4929V8.3157H61.7884V9.67933H61.902C62.1065 9.23615 62.4171 8.88009 62.8338 8.61115C63.2505 8.33842 63.7884 8.20206 64.4474 8.20206C65.0384 8.20206 65.5554 8.32327 65.9986 8.5657C66.4418 8.80433 66.7865 9.16797 67.0327 9.6566C67.2789 10.1415 67.402 10.7551 67.402 11.4975V17.043H66.0611V11.5884C66.0611 10.9028 65.883 10.3687 65.527 9.98615C65.1709 9.59979 64.6823 9.4066 64.0611 9.4066C63.633 9.4066 63.2505 9.49941 62.9134 9.68501C62.58 9.87062 62.3168 10.1415 62.1236 10.4975C61.9304 10.8536 61.8338 11.2854 61.8338 11.793Z" fill="white"/>
<path d="M147.87 2.35547H141.211V43.6398H147.87V2.35547Z" fill="white"/>
<path d="M170.993 43.6388H177.651V15.6719H170.993V30.4416H171.113C171.113 36.6171 165.787 37.2204 164.334 37.2204C160.46 37.2204 159.614 33.4666 159.614 31.1678V15.6719H152.955V31.4108C152.955 35.2848 154.287 38.4326 156.223 40.734C158.039 42.5495 160.943 43.6388 164.214 43.6388C166.515 43.6388 169.54 43.0328 170.993 41.3374V43.6388Z" fill="white"/>
<path d="M184.069 43.6396H190.727V22.3314H195.571V15.6727H190.727V5.74609H184.069V15.6727H179.105V22.3314H184.069V43.6396Z" fill="white"/>
<path d="M211.067 43.5181C214.82 43.5181 218.331 42.1858 220.993 39.7643L221.962 38.7951L217.362 34.1949L216.393 35.4044C214.941 36.7366 213.125 37.4628 211.067 37.4628C206.466 37.4628 203.076 34.1949 203.076 29.3518C203.076 24.5086 206.344 21.3608 211.067 21.3608C213.125 21.3608 214.941 21.9669 216.393 23.4193L217.362 24.2656L221.719 19.9084L220.75 18.9392C217.965 16.6378 214.698 15.1854 211.064 15.1854C202.833 15.0652 196.777 20.9977 196.777 29.3491C196.78 37.2225 202.955 43.5181 211.067 43.5181Z" fill="white"/>
<path d="M231.768 28.0222C231.768 21.8468 236.368 21.2434 237.82 21.2434C241.694 21.2434 241.694 24.9973 241.694 27.296V43.641H248.353V27.1759C248.473 23.5448 247.627 20.2742 245.448 18.0956C243.633 16.2801 241.211 15.1908 238.184 15.1908C235.882 15.1908 233.463 15.7969 231.645 17.4922V2.35938H224.986V43.6437H231.645V28.0249H231.768V28.0222Z" fill="white"/>
<path d="M205.982 29.3532C205.982 32.0177 208.161 34.0735 210.703 34.0735C213.367 34.0735 215.423 31.8949 215.423 29.3532C215.423 26.6886 213.244 24.6328 210.703 24.6328C208.161 24.6328 205.982 26.6913 205.982 29.3532Z" fill="#E52421"/>
<path d="M122.444 43.5211C127.771 43.5211 132.857 41.4626 136.245 37.7088L137.214 36.7396L132.857 32.1394L132.011 33.3489C129.589 35.7705 125.958 37.2229 122.447 37.2229C114.942 37.2229 109.613 31.4105 109.613 23.5424C109.613 15.5515 114.939 9.86197 122.324 9.86197C125.835 9.86197 129.103 11.3144 131.888 13.736L132.857 14.7051L137.214 10.3479L136.245 9.37873C132.614 5.50474 127.648 3.56641 122.444 3.56641C111.549 3.68655 103.438 12.1634 103.438 23.5424C103.438 34.9214 111.549 43.5211 122.444 43.5211Z" fill="white"/>
</svg>
