<svg width="30" height="30" viewBox="0 0 30 30" fill="none" xmlns="http://www.w3.org/2000/svg">
<path d="M15.0001 19.7832C12.1545 19.7832 9.82617 17.5357 9.82617 14.7873V8.22254C9.82617 5.47413 12.1545 3.22656 15.0001 3.22656C17.8458 3.22656 20.1741 5.47413 20.1741 8.22254V14.7873C20.1741 17.5357 17.8458 19.7832 15.0001 19.7832Z" fill="#4361EE" stroke="#4361EE" stroke-width="2" stroke-linecap="round" stroke-linejoin="round"/>
<path d="M14.2246 25.9898C14.2246 26.1957 14.3064 26.3931 14.4519 26.5386C14.5975 26.6842 14.7949 26.7659 15.0007 26.7659C15.2065 26.7659 15.4039 26.6842 15.5495 26.5386C15.695 26.3931 15.7768 26.1957 15.7768 25.9898H14.2246ZM15.7768 22.8855V22.1094H14.2246V22.8855H15.7768ZM15.7768 25.9898V22.8855H14.2246V25.9898H15.7768Z" fill="#4361EE"/>
<path d="M6.72266 14.6094C6.72266 16.8049 7.59484 18.9106 9.14732 20.463C10.6998 22.0155 12.8054 22.8877 15.001 22.8877C17.1965 22.8877 19.3022 22.0155 20.8547 20.463C22.4071 18.9106 23.2793 16.8049 23.2793 14.6094" stroke="#4361EE" stroke-width="2" stroke-linecap="round"/>
</svg>
