<svg width="50" height="50" viewBox="0 0 50 50" fill="none" xmlns="http://www.w3.org/2000/svg">
<path d="M25.0002 32.9772C20.2574 32.9772 16.377 29.2313 16.377 24.6506V13.7094C16.377 9.12876 20.2574 5.38281 25.0002 5.38281C29.743 5.38281 33.6235 9.12876 33.6235 13.7094V24.6506C33.6235 29.2313 29.743 32.9772 25.0002 32.9772Z" fill="#F0F3FF" stroke="white" stroke-width="2" stroke-linecap="round" stroke-linejoin="round"/>
<path d="M23.707 43.3268C23.707 43.6699 23.8433 43.9989 24.0859 44.2415C24.3285 44.484 24.6575 44.6203 25.0005 44.6203C25.3436 44.6203 25.6726 44.484 25.9152 44.2415C26.1577 43.9989 26.294 43.6699 26.294 43.3268H23.707ZM26.294 38.1529V36.8594H23.707V38.1529H26.294ZM26.294 43.3268V38.1529H23.707V43.3268H26.294Z" fill="#F0F3FF"/>
<path d="M11.2031 24.3516C11.2031 28.0108 12.6568 31.5202 15.2442 34.1077C17.8317 36.6952 21.3411 38.1488 25.0003 38.1488C28.6596 38.1488 32.169 36.6952 34.7565 34.1077C37.3439 31.5202 38.7976 28.0108 38.7976 24.3516" stroke="white" stroke-width="2" stroke-linecap="round"/>
</svg>
