<svg width="74" height="74" viewBox="0 0 74 74" fill="none" xmlns="http://www.w3.org/2000/svg">
<g clip-path="url(#clip0_24365_47431)">
<g clip-path="url(#clip1_24365_47431)">
<path d="M73.2876 27.9819C73.0828 27.7469 71.228 25.7829 67.2474 25.7829C66.2176 25.7829 65.1517 25.9256 64.1219 26.169C63.3691 18.8504 59.0091 15.3086 58.8344 15.124L57.7685 14.2595L57.082 15.6443C56.2269 17.5075 55.5704 19.6142 55.1971 21.7627C54.4744 25.9256 54.9201 29.8451 56.4316 33.1938C54.6129 34.629 51.6621 34.9647 51.0418 35.0151H2.30466C1.03399 35.0151 0.00420574 36.4503 0.00420574 38.2212C-0.0620377 44.1549 0.654596 50.0803 2.13002 55.6784C3.81019 61.7968 6.3154 66.3457 9.54327 69.1153C13.1806 72.2207 19.1185 73.9916 25.8091 73.9916C28.8261 73.9916 31.8493 73.6055 34.8362 72.8418C38.9915 71.7927 42.9721 69.7784 46.6396 66.8661C49.6627 64.4237 52.3727 61.3184 54.6731 57.6843C58.5514 51.6078 60.8519 44.818 62.532 38.7919C62.7729 38.7919 62.9777 38.7919 63.2186 38.7919C67.4401 38.7919 70.0477 36.4503 71.4869 34.436C72.4505 33.1938 73.1671 31.6579 73.685 29.9374L73.9922 28.6952L73.2876 27.9819ZM43.1227 33.0512H49.6447C49.9518 33.0512 50.2288 32.7154 50.2288 32.237V24.1043C50.2288 23.6763 49.9879 23.2902 49.6447 23.2902H43.1227C42.8156 23.2902 42.5385 23.626 42.5385 24.1043V32.237C42.5747 32.7154 42.8156 33.0512 43.1227 33.0512ZM34.0293 9.76092H40.5512C40.8584 9.76092 41.1354 9.4252 41.1354 8.94681V0.814109C41.1354 0.386072 40.8584 0 40.5512 0H34.0293C33.7221 0 33.4451 0.335715 33.4451 0.814109V8.94681C33.4451 9.37484 33.7161 9.76092 34.0293 9.76092ZM34.0293 21.427H40.5512C40.8584 21.427 41.1354 21.0409 41.1354 20.6129V12.4802C41.1354 12.0522 40.8584 11.6661 40.5512 11.6661H34.0293C33.7221 11.6661 33.4451 12.0018 33.4451 12.4802V20.6129C33.4451 21.0493 33.7161 21.427 34.0293 21.427ZM25.0021 21.427H31.5241C31.8312 21.427 32.1082 21.0409 32.1082 20.6129V12.4802C32.1082 12.0522 31.8673 11.6661 31.5241 11.6661H25.0021C24.695 11.6661 24.4179 12.0018 24.4179 12.4802V20.6129C24.4179 21.0493 24.6588 21.427 25.0021 21.427ZM15.8364 21.427H22.3584C22.6655 21.427 22.9425 21.0409 22.9425 20.6129V12.4802C22.9425 12.0522 22.7016 11.6661 22.3584 11.6661H15.8364C15.5293 11.6661 15.2523 12.0018 15.2523 12.4802V20.6129C15.2884 21.0493 15.5293 21.427 15.8364 21.427ZM34.0293 33.0512H40.5512C40.8584 33.0512 41.1354 32.7154 41.1354 32.237V24.1043C41.1354 23.6763 40.8945 23.2902 40.5512 23.2902H34.0293C33.7221 23.2902 33.4451 23.626 33.4451 24.1043V32.237C33.4451 32.7154 33.7161 33.0512 34.0293 33.0512ZM25.0021 33.0512H31.5241C31.8312 33.0512 32.1082 32.7154 32.1082 32.237V24.1043C32.1082 23.6763 31.8673 23.2902 31.5241 23.2902H25.0021C24.695 23.2902 24.4179 23.626 24.4179 24.1043V32.237C24.4179 32.7154 24.6588 33.0512 25.0021 33.0512ZM15.8364 33.0512H22.3584C22.6655 33.0512 22.9425 32.7154 22.9425 32.237V24.1043C22.9425 23.6763 22.7016 23.2902 22.3584 23.2902H15.8364C15.5293 23.2902 15.2523 23.626 15.2523 24.1043V32.237C15.2884 32.7154 15.5293 33.0512 15.8364 33.0512ZM6.84535 33.0512H13.3673C13.6745 33.0512 13.9515 32.7154 13.9515 32.237V24.1043C13.9515 23.6763 13.7106 23.2902 13.3673 23.2902H6.84535C6.53822 23.2902 6.2612 23.626 6.2612 24.1043V32.237C6.29734 32.7154 6.53822 33.0512 6.84535 33.0512Z" fill="#0091E2"/>
</g>
</g>
<defs>
<clipPath id="clip0_24365_47431">
<rect width="74" height="74" fill="white"/>
</clipPath>
<clipPath id="clip1_24365_47431">
<rect width="74" height="74" fill="white"/>
</clipPath>
</defs>
</svg>
