<svg width="50" height="36" viewBox="0 0 50 36" fill="none" xmlns="http://www.w3.org/2000/svg">
<g clip-path="url(#clip0_24275_47296)">
<path d="M48.2143 29.4018H47.7054V2.67857C47.7054 1.20536 46.5 0 45.0268 0H4.97321C3.5 0 2.29464 1.20536 2.29464 2.67857V29.4018H1.78571C0.803571 29.4018 0 30.2054 0 31.1875V32.1429C0 34.1161 1.59821 35.7143 3.57143 35.7143H46.4286C48.4018 35.7143 50 34.1161 50 32.1429V31.1875C50 30.2054 49.1964 29.4018 48.2143 29.4018ZM4.08036 2.67857C4.08036 2.1875 4.48214 1.78571 4.97321 1.78571H45.0268C45.5179 1.78571 45.9196 2.1875 45.9196 2.67857V29.4018H4.08036V2.67857ZM48.2143 32.1429C48.2143 33.125 47.4107 33.9286 46.4286 33.9286H3.57143C2.58929 33.9286 1.78571 33.125 1.78571 32.1429V31.1875H20.5268V32.0446C20.5268 32.5357 20.9286 32.9375 21.4196 32.9375H28.5804C29.0714 32.9375 29.4732 32.5357 29.4732 32.0446V31.1875H48.2143V32.1429Z" fill="#F0F3FF"/>
<path d="M36.151 13.0392C36.151 12.2981 35.7135 11.6284 34.9188 11.2267L26.2313 7.72666C25.5259 7.36951 24.6599 7.36059 23.9456 7.7088L15.1509 11.2534C14.4188 11.6195 13.9902 12.2892 13.9902 13.0302C13.9902 13.7713 14.4277 14.4409 15.2224 14.8427L17.4902 15.7534V19.3784C17.4902 20.2088 17.9902 20.9409 18.767 21.2534L24.3117 23.4856C24.5617 23.5838 24.8206 23.6374 25.0795 23.6374C25.3384 23.6374 25.5974 23.5838 25.8474 23.4856L31.392 21.2534C32.1688 20.9409 32.6688 20.2088 32.6688 19.3784V15.7445L33.5527 15.3874V23.6552C33.2581 24.182 33.0617 24.8517 33.0617 25.2713C33.0617 26.0213 33.6777 26.6284 34.4456 26.6284C35.2135 26.6284 35.8295 26.0213 35.8295 25.2713C35.8295 24.8606 35.642 24.182 35.3385 23.6552V14.5749C35.8563 14.1909 36.1599 13.6374 36.1599 13.0213L36.151 13.0392ZM15.7759 13.0392C15.7759 13.0392 15.8295 12.9142 15.892 12.8874L24.6509 9.36059L24.7224 9.32487C24.8206 9.2713 24.9367 9.24452 25.0617 9.24452C25.2045 9.24452 25.3563 9.28023 25.5081 9.35166L34.1956 12.8517C34.3206 12.9142 34.3831 12.9945 34.3831 13.0392C34.3831 13.0838 34.3295 13.1642 34.267 13.1909L25.4456 16.7534C25.2313 16.8606 24.9456 16.8606 24.6599 16.7177L15.9724 13.2267C15.8474 13.1642 15.7849 13.0838 15.7849 13.0392H15.7759ZM30.8742 19.3874C30.8742 19.4856 30.8117 19.5659 30.7224 19.6106L25.1777 21.8427C25.1152 21.8695 25.0438 21.8695 24.9724 21.8427L19.4277 19.6106C19.3295 19.5749 19.2759 19.4856 19.2759 19.3874V16.4767L23.9188 18.3427C24.2849 18.5302 24.6956 18.6195 25.0974 18.6195C25.4813 18.6195 25.8563 18.5392 26.1688 18.3784L30.8742 16.4767V19.3874Z" fill="#F0F3FF"/>
</g>
<defs>
<clipPath id="clip0_24275_47296">
<rect width="50" height="35.7143" fill="white"/>
</clipPath>
</defs>
</svg>
