<svg width="50" height="46" viewBox="0 0 50 46" fill="none" xmlns="http://www.w3.org/2000/svg">
<path d="M29.4434 30.1719C27.3413 30.1719 25.4544 31.6068 24.8804 33.6156C24.8804 33.6874 24.6652 34.2613 25.0239 34.907C25.2392 35.2657 25.5333 35.481 25.9638 35.6245L32.1195 37.2028C32.9158 37.4181 33.7839 36.9159 34.0064 36.1267V35.9832C34.8027 33.1134 32.5571 30.1719 29.4434 30.1719ZM32.2701 35.4092L26.6884 33.9743C27.1978 32.5394 28.647 31.6785 30.168 32.109C31.689 32.4677 32.5571 33.9743 32.2701 35.4092Z" fill="#F0F3FF"/>
<path d="M34.8107 22.7091C34.5955 23.0678 34.6672 23.57 34.9542 23.857C37.128 25.9376 40.2418 25.5789 41.9134 22.9961C42.1286 22.6373 42.0569 22.1351 41.7699 21.8482C39.5243 19.7676 36.4106 20.1263 34.8107 22.7091ZM36.8339 23.0678C37.702 22.2069 38.7925 22.1351 39.8041 22.7091C38.936 23.4983 37.8455 23.6418 36.8339 23.0678Z" fill="#F0F3FF"/>
<path d="M20.5314 21.6316C20.5314 20.7707 19.8785 20.125 19.0104 20.125H12.6323C11.7642 20.125 11.1113 20.7707 11.1113 21.6316C11.1113 24.2144 13.2134 26.295 15.8178 26.295C18.4221 26.295 20.5242 24.2144 20.5242 21.6316H20.5314ZM15.8967 24.5014C14.3757 24.5014 13.1417 23.3535 12.9982 21.9186H18.7234C18.5799 23.3535 17.3459 24.5014 15.8967 24.5014Z" fill="#F5FAFE"/>
<path d="M44.5167 16.1779C39.5161 16.3931 33.2169 14.8147 28.7185 12.8059V5.12922C28.7185 3.55084 27.1975 2.40292 25.6048 2.83339C20.0948 4.55526 11.6217 4.55526 6.11176 2.90513C4.59078 2.40292 2.99805 3.62258 2.99805 5.20096V19.9804C2.99805 27.8005 10.1008 33.8271 18.0716 32.5357C19.2339 38.5622 24.5214 42.9386 30.6771 42.9386C36.4741 42.9386 41.6182 39.0644 43.0674 33.4683L46.9058 19.1912C47.3434 17.6128 46.1811 16.1061 44.5167 16.1779ZM4.80601 19.9804V5.12922C4.80601 4.69875 5.17191 4.48352 5.53063 4.55526C11.3993 6.34888 20.2383 6.34888 26.107 4.55526C26.4657 4.41177 26.8316 4.69875 26.8316 5.12922C26.8316 21.3435 26.9034 20.6978 26.6164 22.2762C25.82 25.9352 23.1368 29.0202 19.4419 30.3116C12.2675 32.7509 4.80601 27.3701 4.80601 19.9804ZM45.1695 18.6889L41.3312 32.9661C40.0972 37.773 35.6777 41.145 30.6771 41.145C25.2461 41.145 20.6759 37.1991 19.8078 32.1052C24.8084 30.5268 28.288 26.0786 28.6467 20.913C28.7185 20.2673 28.6467 20.1956 28.6467 14.8147C33.3532 16.8236 39.5161 18.1867 44.5167 18.0432C45.026 17.9715 45.313 18.3302 45.1695 18.6889Z" fill="#F5FAFE"/>
<path d="M18.2876 12.7373C20.9708 14.1722 23.8693 13.0243 24.7374 10.0828C24.8809 9.65229 24.6657 9.22182 24.2998 9.00659C21.6165 7.5717 18.718 8.71961 17.8499 11.6611C17.7782 12.0916 17.9217 12.5938 18.2876 12.7373ZM22.707 10.3697C22.1259 11.3742 21.0426 11.8046 19.8803 11.5177C20.239 11.0154 21.6165 10.0828 22.707 10.3697Z" fill="#F5FAFE"/>
<path d="M13.9375 11.7315C12.9976 8.78992 10.1709 7.64201 7.48762 9.0769C7.12889 9.29214 6.90649 9.7226 7.04998 10.1531C7.48762 11.588 8.42747 12.5924 9.58256 13.0946C10.3789 13.4533 11.1753 13.3816 11.1753 13.3816C11.9717 13.3816 12.768 13.1663 13.4926 12.7359C13.8514 12.5924 14.0738 12.0902 13.9303 11.7315H13.9375ZM9.08035 10.3683C10.2426 10.0813 11.2542 10.5118 11.9071 11.5162C11.326 11.6597 9.66148 11.3727 9.08035 10.3683Z" fill="#F5FAFE"/>
<path d="M31.4008 10.8654H44.0781C44.5875 10.8654 45.0179 10.4349 45.0179 9.93268C45.0179 9.43047 44.5803 9 44.0781 9H31.4008C30.8914 9 30.4609 9.43047 30.4609 9.93268C30.5327 10.4349 30.9703 10.8654 31.4008 10.8654Z" fill="#F5FAFE"/>
<path d="M37.7817 8.1388H45.9677C46.4771 8.1388 46.9076 7.70833 46.9076 7.20612C46.9076 6.70391 46.4699 6.27344 45.9677 6.27344H37.7817C37.2723 6.27344 36.8418 6.70391 36.8418 7.20612C36.8418 7.78007 37.2794 8.1388 37.7817 8.1388Z" fill="#F5FAFE"/>
<path d="M15.4605 39.5703H5.17228C4.66289 39.5703 4.23242 40.0008 4.23242 40.503C4.23242 41.0052 4.67006 41.4357 5.17228 41.4357H15.4605C15.9698 41.4357 16.4003 41.0052 16.4003 40.503C16.4003 39.929 15.9627 39.5703 15.4605 39.5703Z" fill="#F5FAFE"/>
<path d="M16.9082 36.8438H10.3149C9.80547 36.8438 9.375 37.2742 9.375 37.7764C9.375 38.2786 9.81264 38.7091 10.3149 38.7091H16.9082C17.4176 38.7091 17.848 38.2786 17.848 37.7764C17.848 37.2742 17.4104 36.8438 16.9082 36.8438Z" fill="#F5FAFE"/>
</svg>
