<svg width="50" height="53" viewBox="0 0 50 53" fill="none" xmlns="http://www.w3.org/2000/svg">
<g clip-path="url(#clip0_24275_47314)">
<path d="M48.788 30.209C47.1705 28.5241 44.4409 28.5241 42.7392 30.209L34.3061 38.5494C34.2219 38.2966 34.0534 38.0439 33.9692 37.7911C34.5673 36.8644 33.371 35.7692 32.4359 36.4432C32.0062 36.1905 31.5007 36.1062 30.9868 36.022L13.6827 34.5898C14.6178 34.0843 14.2809 32.6521 13.1688 32.6521C12.1494 32.5679 11.6355 34.0001 12.5707 34.5898C10.8689 34.674 9.15871 35.348 7.80235 36.4432L0.902598 42.5089C0.472943 42.9302 0.388697 43.6041 0.818352 44.0253L9.25138 52.3657C9.58836 52.7027 10.1865 52.7869 10.6162 52.4499L14.1966 49.9226L30.2202 51.0178C32.4359 51.1863 34.5673 50.3438 36.1006 48.8274L48.7965 36.2747C50.414 34.5055 50.414 31.8097 48.7965 30.209C47.0947 28.5241 50.414 31.8097 48.7965 30.209H48.788ZM47.2547 34.674L34.5589 47.2267C33.4553 48.3219 31.9136 48.9116 30.296 48.8274L14.2724 47.8164L9.24295 43.4356C8.22358 42.5089 6.77454 44.1096 7.87817 45.0363L12.2253 48.7431L10.1781 50.2596L3.18566 43.3514L9.23453 38.0439C10.3382 37.0329 11.8799 36.6117 13.3289 36.6959L30.7173 38.1281C31.9136 38.2124 32.6802 39.3918 32.3348 40.487C32.2505 40.6555 32.1663 40.7398 32.1663 40.9082C31.8293 41.498 31.1469 41.835 30.4645 41.835L19.0408 41.3295C17.676 41.2452 17.5917 43.3514 18.9565 43.4356L30.3803 43.9411C31.9978 44.0253 33.5311 43.0986 34.2135 41.6665L44.2724 31.7254C46.2354 29.7878 49.2177 32.7364 47.2547 34.674Z" fill="#F0F3FF"/>
<path d="M4.22105 23.7192C5.32467 23.7192 6.43672 23.2979 7.20336 22.4555L15.6364 14.1151C16.066 15.2103 17.0012 16.137 18.189 16.474C18.3575 17.5692 19.8066 17.7377 20.2362 16.7267L36.4283 18.0747C38.4755 18.2432 40.6069 17.5692 42.1402 16.2213L49.0399 10.1556C49.4696 9.73432 49.5538 9.06035 49.1242 8.63912L40.7754 0.29877C40.4384 -0.0382142 39.8403 -0.12246 39.4106 0.214524L35.8302 2.7419L19.8066 1.64671C17.5909 1.47821 15.4595 2.32067 13.9262 3.8371L1.23874 16.474C-1.40658 19.0856 0.472104 23.7192 4.22105 23.7192ZM2.68777 17.9904L15.3836 5.43778C16.4957 4.34258 18.1132 3.75286 19.6465 3.8371L35.6701 4.9323L40.6996 9.31309C41.7189 10.2398 43.168 8.63912 42.0644 7.71242L37.7173 4.00559L39.7644 2.48917L46.7484 9.39734L40.7838 14.6206C39.6802 15.6315 38.1385 16.0528 36.6895 15.9685L19.3011 14.5363C18.1048 14.4521 17.3382 13.2727 17.6836 12.1775C17.7678 12.009 17.8521 11.9247 17.8521 11.7562C18.189 11.1665 18.8714 10.8295 19.5538 10.8295L30.9776 11.335C32.3424 11.4192 32.4266 9.31309 31.0618 9.22885L19.6381 8.72337C18.0205 8.63912 16.4873 9.56583 15.8049 10.998L5.7459 20.939C3.78297 22.8767 0.800664 19.9281 2.67935 17.9904H2.68777Z" fill="#F0F3FF"/>
<path d="M34.7264 20.349C33.5301 21.1072 34.7264 22.8764 35.83 22.1182C37.0263 21.36 35.9143 19.5908 34.7264 20.349C35.2403 20.012 34.3894 20.5175 34.7264 20.349Z" fill="#F5FAFE"/>
<path d="M35.4941 23.886C35.4941 25.2339 37.6256 25.2339 37.6256 23.886C37.6256 22.538 35.4941 22.538 35.4941 23.886Z" fill="#F5FAFE"/>
<path d="M34.2212 19.6728C35.1563 18.7461 33.7073 17.2297 32.6879 18.1564C31.7528 19.1673 33.2018 20.5995 34.2212 19.6728C34.3897 19.4201 33.9684 19.8413 34.2212 19.6728Z" fill="#F5FAFE"/>
<path d="M37.3722 32.8998C37.8861 31.6361 35.9231 30.8779 35.4092 32.1416C34.8953 33.4053 36.8583 34.1635 37.3722 32.8998C37.3722 32.8156 37.2037 33.3211 37.3722 32.8998Z" fill="#F5FAFE"/>
<path d="M34.3897 36.0173C35.1563 36.5228 36.1757 35.8488 36.0072 34.9221C35.8387 33.9954 34.6424 33.7427 34.0443 34.5009C33.7915 35.0063 33.8758 35.6803 34.3812 36.0173C34.0443 35.7646 34.5497 36.1015 34.3812 36.0173H34.3897Z" fill="#F5FAFE"/>
<path d="M38.2226 26.665C38.1383 25.3171 35.9227 25.4856 36.0912 26.8335C36.2597 28.1814 38.3068 28.013 38.2226 26.665Z" fill="#F5FAFE"/>
<path d="M38.1389 29.8727C38.3074 28.5248 36.176 28.272 36.0075 29.62C35.839 30.8837 37.9705 31.2207 38.1389 29.8727C38.2232 29.7885 38.1389 30.3782 38.1389 29.8727Z" fill="#F5FAFE"/>
<path d="M11.9727 26.1632C13.3375 26.1632 13.3375 24.1413 12.0569 24.0571C10.6921 23.9728 10.6079 26.1632 11.9727 26.1632Z" fill="#F5FAFE"/>
<path d="M12.0553 31.9744C13.3359 31.9744 13.5044 30.0368 12.1396 29.8683C10.6905 29.6998 10.6063 31.9744 12.0553 31.9744Z" fill="#F5FAFE"/>
<path d="M10.6074 28.0193C10.6074 29.283 12.4861 29.4515 12.7388 28.1878C12.9916 26.7556 10.6074 26.5029 10.6074 28.0193Z" fill="#F5FAFE"/>
<path d="M13.934 22.7931C14.5321 21.6979 12.9146 20.687 12.148 21.6979C11.2128 22.8774 13.3443 24.0568 13.934 22.7931C14.0182 22.6246 13.7655 23.1301 13.934 22.7931Z" fill="#F5FAFE"/>
<path d="M16.7481 18.8327C18.1129 18.8327 18.1129 16.8108 16.8323 16.7266C15.4675 16.7266 15.3833 18.8327 16.7481 18.8327Z" fill="#F5FAFE"/>
<path d="M15.4687 20.5202C16.3196 19.5935 14.9548 18.2456 13.9355 19.0038C12.8234 20.0147 14.5336 21.6154 15.4687 20.5202C15.6372 20.3517 15.216 20.773 15.4687 20.5202Z" fill="#F5FAFE"/>
<path d="M18.3665 33.3257H29.6976C30.2958 33.3257 30.8097 32.8203 30.8097 32.2306V24.2272L31.6606 24.6484C32.8568 25.3224 33.8762 23.3847 32.6799 22.795L24.5839 18.5827C24.1542 18.4142 23.9857 18.5827 23.5645 18.5827L15.4685 22.8792C14.2722 23.5532 15.2157 25.4066 16.4878 24.7327L17.3387 24.3114V32.399C17.3387 32.9045 17.7684 33.3257 18.3581 33.3257H18.3665ZM23.2275 31.2196V28.271C23.2275 27.1758 24.8451 27.1758 24.8451 28.271V31.2196H23.2275ZM28.6782 31.2196H27.0607V28.271C27.0607 26.6703 25.6959 25.3224 24.0784 25.3224C22.4609 25.3224 21.0961 26.6703 21.0961 28.271V31.2196H19.4786V23.0477L24.0784 20.6046L28.6782 23.0477V31.2196Z" fill="#F5FAFE"/>
<path d="M44.7017 22.625H42.5703V24.7312H44.7017V22.625Z" fill="#F5FAFE"/>
<path d="M46.8326 20.5156H44.7012V22.6218H46.8326V20.5156Z" fill="#F5FAFE"/>
<path d="M44.7017 18.4141H42.5703V20.5202H44.7017V18.4141Z" fill="#F5FAFE"/>
<path d="M46.8326 16.3047H44.7012V18.4108H46.8326V16.3047Z" fill="#F5FAFE"/>
<path d="M5.32478 34.25H3.19336V36.3562H5.32478V34.25Z" fill="#F5FAFE"/>
<path d="M7.45564 32.1406H5.32422V34.2468H7.45564V32.1406Z" fill="#F5FAFE"/>
<path d="M5.32478 30.0391H3.19336V32.1452H5.32478V30.0391Z" fill="#F5FAFE"/>
<path d="M7.45564 27.9297H5.32422V30.0358H7.45564V27.9297Z" fill="#F5FAFE"/>
</g>
<defs>
<clipPath id="clip0_24275_47314">
<rect width="50" height="52.6622" fill="white"/>
</clipPath>
</defs>
</svg>
