<svg width="29" height="30" viewBox="0 0 29 30" fill="none" xmlns="http://www.w3.org/2000/svg">
<g clip-path="url(#clip0_26284_91825)">
<path d="M27.7909 17.2043C26.8694 16.2444 25.3145 16.2444 24.345 17.2043L19.541 21.9555C19.493 21.8115 19.397 21.6675 19.349 21.5236C19.6898 20.9957 19.0083 20.3718 18.4756 20.7557C18.2308 20.6117 17.9429 20.5637 17.6501 20.5157L7.79249 19.6999C8.3252 19.4119 8.13323 18.596 7.49974 18.596C6.91903 18.548 6.62628 19.3639 7.15899 19.6999C6.18955 19.7479 5.2153 20.1318 4.44263 20.7557L0.512054 24.2111C0.267294 24.4511 0.219301 24.835 0.464062 25.075L5.26809 29.8262C5.46006 30.0182 5.80081 30.0662 6.04557 29.8742L8.08524 28.4345L17.2134 29.0584C18.4756 29.1543 19.6898 28.6744 20.5632 27.8106L27.7957 20.6597C28.7171 19.6519 28.7171 18.1161 27.7957 17.2043C28.7171 18.1161 26.8262 16.2444 27.7957 17.2043H27.7909ZM26.9174 19.7479L19.685 26.8987C19.0563 27.5226 18.178 27.8586 17.2566 27.8106L8.12844 27.2347L5.26329 24.7391C4.68259 24.2111 3.85712 25.123 4.48582 25.6509L6.96222 27.7626L5.79601 28.6264L1.81265 24.6911L5.25849 21.6675C5.88719 21.0916 6.76545 20.8517 7.59092 20.8997L17.4965 21.7155C18.178 21.7635 18.6148 22.4354 18.418 23.0593C18.37 23.1553 18.322 23.2033 18.322 23.2993C18.13 23.6352 17.7413 23.8272 17.3526 23.8272L10.8448 23.5392C10.0673 23.4913 10.0193 24.6911 10.7968 24.7391L17.3046 25.027C18.226 25.075 19.0995 24.5471 19.4882 23.7312L25.2185 18.0681C26.3367 16.9643 28.0356 18.644 26.9174 19.7479Z" fill="#4361EE"/>
<path d="M2.40349 13.5121C3.03219 13.5121 3.66569 13.2721 4.10242 12.7922L8.90645 8.04094C9.15121 8.66484 9.68392 9.19276 10.3606 9.38473C10.4566 10.0086 11.2821 10.1046 11.5268 9.5287L20.751 10.2966C21.9172 10.3926 23.1314 10.0086 24.0048 9.24075L27.9354 5.7853C28.1802 5.54534 28.2282 5.1614 27.9834 4.92144L23.2274 0.1702C23.0354 -0.0217694 22.6946 -0.0697617 22.4499 0.122208L20.4102 1.56198L11.2821 0.938077C10.0199 0.842092 8.80566 1.32202 7.9322 2.18588L0.704561 9.38473C-0.802398 10.8725 0.267831 13.5121 2.40349 13.5121ZM1.53003 10.2486L8.76247 3.09773C9.39597 2.47383 10.3174 2.13789 11.1909 2.18588L20.319 2.80978L23.1842 5.30538C23.7649 5.83329 24.5903 4.92144 23.9616 4.39352L21.4852 2.28186L22.6514 1.418L26.63 5.35337L23.2322 8.3289C22.6035 8.9048 21.7252 9.14477 20.8997 9.09677L10.9941 8.2809C10.3126 8.23291 9.87589 7.56102 10.0727 6.93712C10.1207 6.84113 10.1686 6.79314 10.1686 6.69716C10.3606 6.36121 10.7494 6.16924 11.1381 6.16924L17.6459 6.45719C18.4233 6.50519 18.4713 5.30538 17.6938 5.25739L11.1861 4.96943C10.2646 4.92144 9.39117 5.44936 9.00243 6.26523L3.27215 11.9283C2.15393 13.0321 0.455 11.3524 1.52523 10.2486H1.53003Z" fill="#4361EE"/>
<path d="M19.7817 11.5897C19.1002 12.0217 19.7817 13.0295 20.4104 12.5976C21.0919 12.1656 20.4584 11.1578 19.7817 11.5897C20.0744 11.3978 19.5897 11.6857 19.7817 11.5897Z" fill="#4361EE"/>
<path d="M20.2188 13.6072C20.2188 14.375 21.433 14.375 21.433 13.6072C21.433 12.8393 20.2188 12.8393 20.2188 13.6072Z" fill="#4361EE"/>
<path d="M19.4943 11.2083C20.027 10.6804 19.2015 9.81651 18.6208 10.3444C18.0881 10.9203 18.9135 11.7362 19.4943 11.2083C19.5902 11.0643 19.3503 11.3043 19.4943 11.2083Z" fill="#4361EE"/>
<path d="M21.2877 18.7394C21.5805 18.0195 20.4623 17.5876 20.1695 18.3075C19.8768 19.0273 20.995 19.4593 21.2877 18.7394C21.2877 18.6914 21.1918 18.9794 21.2877 18.7394Z" fill="#4361EE"/>
<path d="M19.5898 20.5165C20.0266 20.8044 20.6073 20.4205 20.5113 19.8926C20.4153 19.3647 19.7338 19.2207 19.3931 19.6526C19.2491 19.9406 19.2971 20.3245 19.585 20.5165C19.681 20.5645 19.3931 20.3725 19.585 20.5165H19.5898Z" fill="#4361EE"/>
<path d="M21.7741 15.1942C21.7261 14.4263 20.4639 14.5223 20.5599 15.2902C20.6559 16.0581 21.8221 15.9621 21.7741 15.1942Z" fill="#4361EE"/>
<path d="M21.7255 17.0123C21.8214 16.2444 20.6072 16.1004 20.5113 16.8683C20.4153 17.5882 21.6295 17.7802 21.7255 17.0123C21.7735 16.9643 21.7255 17.3003 21.7255 17.0123Z" fill="#4361EE"/>
<path d="M6.81943 14.9043C7.59691 14.9043 7.59691 13.7525 6.86742 13.7045C6.08995 13.6565 6.04196 14.9043 6.81943 14.9043Z" fill="#4361EE"/>
<path d="M6.86711 18.2127C7.5966 18.2127 7.69258 17.1089 6.9151 17.0129C6.08964 16.9169 6.04164 18.2127 6.86711 18.2127Z" fill="#4361EE"/>
<path d="M6.04102 15.9601C6.04102 16.68 7.11124 16.776 7.25522 16.0561C7.3992 15.2402 6.04102 15.0962 6.04102 15.9601Z" fill="#4361EE"/>
<path d="M7.93779 12.9863C8.27854 12.3624 7.35709 11.7865 6.92036 12.3624C6.38764 13.0343 7.60185 13.7061 7.93779 12.9863C7.98579 12.8903 7.84181 13.1782 7.93779 12.9863Z" fill="#4361EE"/>
<path d="M9.54013 10.7311C10.3176 10.7311 10.3176 9.57924 9.58813 9.53125C8.81065 9.53125 8.76266 10.7311 9.54013 10.7311Z" fill="#4361EE"/>
<path d="M8.81083 11.686C9.29555 11.158 8.51808 10.3902 7.93737 10.8221C7.30387 11.398 8.27812 12.3099 8.81083 11.686C8.90682 11.59 8.66685 11.8299 8.81083 11.686Z" fill="#4361EE"/>
<path d="M10.4606 18.9804H16.9156C17.2563 18.9804 17.5491 18.6924 17.5491 18.3565V13.7972L18.0338 14.0372C18.7153 14.4211 19.296 13.3173 18.6145 12.9813L14.0025 10.5817C13.7577 10.4857 13.6617 10.5817 13.4218 10.5817L8.8097 13.0293C8.12821 13.4133 8.66572 14.4691 9.39041 14.0852L9.87513 13.8452V18.4525C9.87513 18.7404 10.1199 18.9804 10.4558 18.9804H10.4606ZM13.2298 17.7806V16.1008C13.2298 15.4769 14.1512 15.4769 14.1512 16.1008V17.7806H13.2298ZM16.3349 17.7806H15.4134V16.1008C15.4134 15.189 14.636 14.4211 13.7145 14.4211C12.7931 14.4211 12.0156 15.189 12.0156 16.1008V17.7806H11.0941V13.1253L13.7145 11.7335L16.3349 13.1253V17.7806Z" fill="#4361EE"/>
<path d="M25.4642 12.8906H24.25V14.0904H25.4642V12.8906Z" fill="#4361EE"/>
<path d="M26.6771 11.6875H25.4629V12.8873H26.6771V11.6875Z" fill="#4361EE"/>
<path d="M25.4642 10.4922H24.25V11.692H25.4642V10.4922Z" fill="#4361EE"/>
<path d="M26.6771 9.28906H25.4629V10.4889H26.6771V9.28906Z" fill="#4361EE"/>
<path d="M3.03257 19.5078H1.81836V20.7076H3.03257V19.5078Z" fill="#4361EE"/>
<path d="M4.24546 18.3125H3.03125V19.5123H4.24546V18.3125Z" fill="#4361EE"/>
<path d="M3.03257 17.1094H1.81836V18.3092H3.03257V17.1094Z" fill="#4361EE"/>
<path d="M4.24546 15.9141H3.03125V17.1139H4.24546V15.9141Z" fill="#4361EE"/>
</g>
<defs>
<clipPath id="clip0_26284_91825">
<rect width="28.4834" height="30" fill="white"/>
</clipPath>
</defs>
</svg>
