<svg width="50" height="50" viewBox="0 0 50 50" fill="none" xmlns="http://www.w3.org/2000/svg">
<g clip-path="url(#clip0_24275_47278)">
<path d="M24.2356 6.09984V14.278H25.7661V6.09984C27.105 5.75836 28.0999 4.54233 28.0999 3.09782C28.0999 1.39046 26.7095 0 25.0021 0C23.2948 0 21.9043 1.39046 21.9043 3.09782C21.9043 4.54233 22.8992 5.75836 24.2381 6.09984H24.2356ZM25.0021 1.52803C25.8669 1.52803 26.5719 2.23063 26.5719 3.09782C26.5719 3.96502 25.8693 4.66762 25.0021 4.66762C24.1349 4.66762 23.4323 3.96502 23.4323 3.09782C23.4323 2.23063 24.1349 1.52803 25.0021 1.52803Z" fill="#F0F3FF"/>
<path d="M25.7647 43.8969V35.7188H24.2342V43.8969C22.8953 44.2384 21.9004 45.4544 21.9004 46.8989C21.9004 48.6063 23.2908 49.9967 24.9982 49.9967C26.7056 49.9967 28.096 48.6063 28.096 46.8989C28.096 45.4544 27.1011 44.2384 25.7622 43.8969H25.7647ZM25.0007 48.4687C24.1359 48.4687 23.4309 47.7661 23.4309 46.8989C23.4309 46.0317 24.1335 45.3291 25.0007 45.3291C25.8679 45.3291 26.5705 46.0317 26.5705 46.8989C26.5705 47.7661 25.8679 48.4687 25.0007 48.4687Z" fill="#F0F3FF"/>
<path d="M43.8997 25.763C44.2411 27.1018 45.4572 28.0968 46.9017 28.0968C48.609 28.0968 49.9995 26.7063 49.9995 24.999C49.9995 23.2916 48.609 21.9011 46.9017 21.9011C45.4572 21.9011 44.2411 22.8961 43.8997 24.2349H35.7215V24.999C35.7215 22.5939 34.9305 20.3756 33.5941 18.5871L34.0756 19.1816L38.3943 15.6736H42.1211C42.4625 17.0124 43.6786 18.0074 45.1231 18.0074C46.8304 18.0074 48.2209 16.6169 48.2209 14.9095C48.2209 13.2022 46.8304 11.8117 45.1231 11.8117C43.6786 11.8117 42.4625 12.8067 42.1211 14.1455H38.1216C37.9472 14.1455 37.7753 14.2069 37.6401 14.3175L33.1126 17.9926C32.7711 17.5996 32.4026 17.2286 32.0071 16.8871L35.6847 12.3595C35.7952 12.2244 35.8566 12.0525 35.8566 11.878V7.88109C37.1955 7.53961 38.1904 6.32358 38.1904 4.87907C38.1904 3.17171 36.8 1.78125 35.0926 1.78125C33.3852 1.78125 31.9948 3.17171 31.9948 4.87907C31.9948 6.32358 32.9897 7.53961 34.3286 7.88109V11.6078L30.8205 15.9266L31.415 16.4081C29.6266 15.0717 27.4058 14.2806 25.0032 14.2806C22.6006 14.2806 20.3798 15.0717 18.5914 16.4081L19.1859 15.9266L15.6778 11.6078V7.88109C17.0166 7.53961 18.0116 6.32358 18.0116 4.87907C18.0116 3.17171 16.6211 1.78125 14.9138 1.78125C13.2064 1.78125 11.8159 3.17171 11.8159 4.87907C11.8159 6.32358 12.8109 7.53961 14.1497 7.88109V11.878C14.1497 12.0525 14.2112 12.2244 14.3217 12.3595L17.9993 16.8871C17.6038 17.2286 17.2353 17.5971 16.8938 17.9926L12.3662 14.3175C12.2311 14.2069 12.0591 14.1455 11.8847 14.1455H7.88777C7.5463 12.8067 6.33026 11.8117 4.88575 11.8117C3.17839 11.8117 1.78793 13.2022 1.78793 14.9095C1.78793 16.6169 3.17839 18.0074 4.88575 18.0074C6.33026 18.0074 7.5463 17.0124 7.88777 15.6736H11.6145L15.9333 19.1816L16.4148 18.5871C15.0784 20.3756 14.2873 22.5939 14.2873 24.999V24.2349H6.10179C5.76032 22.8961 4.54428 21.9011 3.09978 21.9011C1.39241 21.9011 0.00195312 23.2916 0.00195312 24.999C0.00195312 26.7063 1.39241 28.0968 3.09978 28.0968C4.54428 28.0968 5.76032 27.1018 6.10179 25.763H14.2799V24.999C14.2799 27.404 15.071 29.6224 16.4074 31.4108L15.9259 30.8163L11.6071 34.3244H7.8804C7.53893 32.9855 6.32289 31.9906 4.87838 31.9906C3.17102 31.9906 1.78056 33.381 1.78056 35.0884C1.78056 36.7957 3.17102 38.1862 4.87838 38.1862C6.32289 38.1862 7.53893 37.1913 7.8804 35.8524H11.8774C12.0518 35.8524 12.2237 35.791 12.3589 35.6804L16.8864 32.0053C17.2279 32.3984 17.5964 32.7693 17.9919 33.1108L14.3143 37.6384C14.2038 37.7735 14.1424 37.9454 14.1424 38.1199V42.1168C12.8035 42.4583 11.8086 43.6743 11.8086 45.1188C11.8086 46.8262 13.199 48.2167 14.9064 48.2167C16.6138 48.2167 18.0042 46.8262 18.0042 45.1188C18.0042 43.6743 17.0093 42.4583 15.6704 42.1168V38.3901L19.1785 34.0713L18.584 33.5898C20.3724 34.9262 22.5932 35.7173 24.9958 35.7173C27.3984 35.7173 29.6192 34.9262 31.4076 33.5898L30.8131 34.0713L34.3212 38.3901V42.1168C32.9824 42.4583 31.9874 43.6743 31.9874 45.1188C31.9874 46.8262 33.3779 48.2167 35.0852 48.2167C36.7926 48.2167 38.1831 46.8262 38.1831 45.1188C38.1831 43.6743 37.1881 42.4583 35.8492 42.1168V38.1199C35.8492 37.9454 35.7878 37.7735 35.6773 37.6384L31.9997 33.1108C32.3952 32.7693 32.7637 32.4008 33.1052 32.0053L37.6328 35.6804C37.7679 35.791 37.9398 35.8524 38.1143 35.8524H42.1137C42.4552 37.1913 43.6712 38.1862 45.1157 38.1862C46.8231 38.1862 48.2135 36.7957 48.2135 35.0884C48.2135 33.381 46.8231 31.9906 45.1157 31.9906C43.6712 31.9906 42.4552 32.9855 42.1137 34.3244H38.387L34.0682 30.8163L33.5867 31.4108C34.9231 29.6224 35.7141 27.404 35.7141 24.999V25.763H43.8923H43.8997ZM46.9017 23.4292C47.7664 23.4292 48.4715 24.1318 48.4715 24.999C48.4715 25.8661 47.7689 26.5688 46.9017 26.5688C46.0345 26.5688 45.3319 25.8661 45.3319 24.999C45.3319 24.1318 46.0345 23.4292 46.9017 23.4292ZM45.1231 13.3373C45.9878 13.3373 46.6929 14.0399 46.6929 14.9071C46.6929 15.7743 45.9903 16.4769 45.1231 16.4769C44.2559 16.4769 43.5533 15.7743 43.5533 14.9071C43.5533 14.0399 44.2559 13.3373 45.1231 13.3373ZM33.5228 4.87416C33.5228 4.00942 34.2254 3.30437 35.0926 3.30437C35.9598 3.30437 36.6624 4.00697 36.6624 4.87416C36.6624 5.74135 35.9598 6.44395 35.0926 6.44395C34.2254 6.44395 33.5228 5.74135 33.5228 4.87416ZM13.3391 4.87416C13.3391 4.00942 14.0417 3.30437 14.9088 3.30437C15.776 3.30437 16.4786 4.00697 16.4786 4.87416C16.4786 5.74135 15.776 6.44395 14.9088 6.44395C14.0417 6.44395 13.3391 5.74135 13.3391 4.87416ZM4.87593 16.4744C4.01119 16.4744 3.30613 15.7718 3.30613 14.9046C3.30613 14.0374 4.00873 13.3348 4.87593 13.3348C5.74312 13.3348 6.44572 14.0374 6.44572 14.9046C6.44572 15.7718 5.74312 16.4744 4.87593 16.4744ZM3.09732 26.5663C2.23258 26.5663 1.52753 25.8637 1.52753 24.9965C1.52753 24.1293 2.23013 23.4267 3.09732 23.4267C3.96451 23.4267 4.66711 24.1293 4.66711 24.9965C4.66711 25.8637 3.96451 26.5663 3.09732 26.5663ZM4.87593 36.6582C4.01119 36.6582 3.30613 35.9556 3.30613 35.0884C3.30613 34.2212 4.00873 33.5186 4.87593 33.5186C5.74312 33.5186 6.44572 34.2212 6.44572 35.0884C6.44572 35.9556 5.74312 36.6582 4.87593 36.6582ZM16.4762 45.1213C16.4762 45.986 15.7736 46.6911 14.9064 46.6911C14.0392 46.6911 13.3366 45.9885 13.3366 45.1213C13.3366 44.2541 14.0392 43.5515 14.9064 43.5515C15.7736 43.5515 16.4762 44.2541 16.4762 45.1213ZM30.2481 22.7094H26.8014C26.8014 22.1001 26.6565 21.6432 26.3642 21.3435C26.0718 21.0438 25.6837 20.8939 25.1973 20.8939C24.7108 20.8939 24.3399 21.0167 24.1041 21.2624C23.8682 21.5081 23.7503 21.8225 23.7503 22.2033C23.7503 22.5841 23.878 22.9034 24.1311 23.1442C24.3841 23.3849 24.8582 23.6282 25.5535 23.8763C27.165 24.4315 28.3467 24.9842 29.1033 25.5345C29.86 26.0872 30.2383 26.8734 30.2383 27.9002C30.2383 28.9271 29.8575 29.6592 29.0984 30.2537C28.3393 30.8482 27.3149 31.1971 26.0325 31.3027V32.9904H24.3767V31.2929C23.0305 31.1872 21.9127 30.8065 21.0234 30.1554C20.1341 29.502 19.7042 28.5463 19.7312 27.2861L19.7632 27.2345H23.1902C23.1902 27.9297 23.3769 28.4284 23.7528 28.7331C24.1286 29.0377 24.6126 29.19 25.2095 29.19C25.7082 29.19 26.0866 29.0721 26.3445 28.8362C26.6025 28.6004 26.7302 28.2933 26.7302 27.9125C26.7302 27.4703 26.5975 27.1264 26.3347 26.8832C26.0718 26.64 25.6026 26.3992 24.9295 26.1659C23.2909 25.6401 22.0994 25.107 21.3526 24.5666C20.6058 24.0261 20.2324 23.2326 20.2324 22.1836C20.2324 21.2378 20.6279 20.4566 21.4189 19.8449C22.21 19.2308 23.2663 18.8746 24.5856 18.7738V17.0001H26.2413V18.8058C27.4918 18.9507 28.4793 19.3659 29.209 20.0488C29.9386 20.7318 30.2923 21.6039 30.2702 22.6627L30.2506 22.7045L30.2481 22.7094ZM36.6599 45.1213C36.6599 45.986 35.9573 46.6911 35.0901 46.6911C34.223 46.6911 33.5204 45.9885 33.5204 45.1213C33.5204 44.2541 34.223 43.5515 35.0901 43.5515C35.9573 43.5515 36.6599 44.2541 36.6599 45.1213ZM45.1231 33.521C45.9878 33.521 46.6929 34.2236 46.6929 35.0908C46.6929 35.958 45.9903 36.6606 45.1231 36.6606C44.2559 36.6606 43.5533 35.958 43.5533 35.0908C43.5533 34.2236 44.2559 33.521 45.1231 33.521Z" fill="#F5FAFE"/>
</g>
<defs>
<clipPath id="clip0_24275_47278">
<rect width="50" height="50" fill="white"/>
</clipPath>
</defs>
</svg>
