<svg width="30" height="30" viewBox="0 0 30 30" fill="none" xmlns="http://www.w3.org/2000/svg">
<g clip-path="url(#clip0_26284_91654)">
<path d="M14.5414 3.6599V8.5668H15.4597V3.6599C16.263 3.45502 16.86 2.7254 16.86 1.85869C16.86 0.834275 16.0257 0 15.0013 0C13.9769 0 13.1426 0.834275 13.1426 1.85869C13.1426 2.7254 13.7395 3.45502 14.5429 3.6599H14.5414ZM15.0013 0.916818C15.5201 0.916818 15.9431 1.33838 15.9431 1.85869C15.9431 2.37901 15.5216 2.80057 15.0013 2.80057C14.481 2.80057 14.0594 2.37901 14.0594 1.85869C14.0594 1.33838 14.481 0.916818 15.0013 0.916818Z" fill="#F0F3FF"/>
<path d="M15.4592 26.3366V21.4297H14.5409V26.3366C13.7376 26.5415 13.1406 27.2711 13.1406 28.1378C13.1406 29.1622 13.9749 29.9965 14.9993 29.9965C16.0237 29.9965 16.858 29.1622 16.858 28.1378C16.858 27.2711 16.261 26.5415 15.4577 26.3366H15.4592ZM15.0008 29.0797C14.4819 29.0797 14.0589 28.6581 14.0589 28.1378C14.0589 27.6175 14.4805 27.1959 15.0008 27.1959C15.5211 27.1959 15.9427 27.6175 15.9427 28.1378C15.9427 28.6581 15.5211 29.0797 15.0008 29.0797Z" fill="#F0F3FF"/>
<path d="M26.3406 15.4593C26.5455 16.2627 27.2751 16.8596 28.1418 16.8596C29.1662 16.8596 30.0005 16.0254 30.0005 15.0009C30.0005 13.9765 29.1662 13.1422 28.1418 13.1422C27.2751 13.1422 26.5455 13.7392 26.3406 14.5425H21.4337V15.0009C21.4337 13.5579 20.9591 12.2269 20.1572 11.1538L20.4461 11.5105L23.0374 9.40569H25.2734C25.4783 10.209 26.2079 10.806 27.0746 10.806C28.099 10.806 28.9333 9.9717 28.9333 8.94728C28.9333 7.92287 28.099 7.08859 27.0746 7.08859C26.2079 7.08859 25.4783 7.68555 25.2734 8.48888H22.8738C22.7691 8.48888 22.6659 8.52572 22.5849 8.59205L19.8683 10.7971C19.6634 10.5613 19.4423 10.3387 19.205 10.1338L21.4116 7.41729C21.4779 7.33622 21.5148 7.23304 21.5148 7.12839V4.73022C22.3181 4.52533 22.915 3.79571 22.915 2.92901C22.915 1.90459 22.0808 1.07031 21.0563 1.07031C20.0319 1.07031 19.1977 1.90459 19.1977 2.92901C19.1977 3.79571 19.7946 4.52533 20.5979 4.73022V6.96625L18.4931 9.55751L18.8498 9.84641C17.7767 9.04457 16.4442 8.56994 15.0027 8.56994C13.5611 8.56994 12.2287 9.04457 11.1556 9.84641L11.5123 9.55751L9.40745 6.96625V4.73022C10.2108 4.52533 10.8077 3.79571 10.8077 2.92901C10.8077 1.90459 9.97346 1.07031 8.94904 1.07031C7.92462 1.07031 7.09034 1.90459 7.09034 2.92901C7.09034 3.79571 7.68731 4.52533 8.49063 4.73022V7.12839C8.49063 7.23304 8.52748 7.33622 8.59381 7.41729L10.8004 10.1338C10.563 10.3387 10.342 10.5598 10.1371 10.7971L7.42052 8.59205C7.33945 8.52572 7.23627 8.48888 7.13161 8.48888H4.73344C4.52856 7.68555 3.79894 7.08859 2.93223 7.08859C1.90781 7.08859 1.07354 7.92287 1.07354 8.94728C1.07354 9.9717 1.90781 10.806 2.93223 10.806C3.79894 10.806 4.52856 10.209 4.73344 9.40569H6.96948L9.56074 11.5105L9.84964 11.1538C9.04779 12.2269 8.57317 13.5579 8.57317 15.0009V14.5425H3.66186C3.45697 13.7392 2.72735 13.1422 1.86065 13.1422C0.836228 13.1422 0.00195312 13.9765 0.00195312 15.0009C0.00195312 16.0254 0.836228 16.8596 1.86065 16.8596C2.72735 16.8596 3.45697 16.2627 3.66186 15.4593H8.56875V15.0009C8.56875 16.444 9.04337 17.775 9.84522 18.848L9.55632 18.4913L6.96505 20.5962H4.72902C4.52414 19.7929 3.79451 19.1959 2.92781 19.1959C1.90339 19.1959 1.06912 20.0302 1.06912 21.0546C1.06912 22.079 1.90339 22.9133 2.92781 22.9133C3.79451 22.9133 4.52414 22.3163 4.72902 21.513H7.12719C7.23185 21.513 7.33502 21.4762 7.41609 21.4098L10.1326 19.2047C10.3375 19.4406 10.5586 19.6631 10.7959 19.868L8.58939 22.5846C8.52306 22.6657 8.48621 22.7688 8.48621 22.8735V25.2717C7.68288 25.4765 7.08592 26.2062 7.08592 27.0729C7.08592 28.0973 7.9202 28.9316 8.94462 28.9316C9.96903 28.9316 10.8033 28.0973 10.8033 27.0729C10.8033 26.2062 10.2063 25.4765 9.40302 25.2717V23.0356L11.5079 20.4444L11.1512 20.1555C12.2242 20.9573 13.5567 21.4319 14.9983 21.4319C16.4398 21.4319 17.7723 20.9573 18.8454 20.1555L18.4887 20.4444L20.5935 23.0356V25.2717C19.7902 25.4765 19.1932 26.2062 19.1932 27.0729C19.1932 28.0973 20.0275 28.9316 21.0519 28.9316C22.0763 28.9316 22.9106 28.0973 22.9106 27.0729C22.9106 26.2062 22.3137 25.4765 21.5103 25.2717V22.8735C21.5103 22.7688 21.4735 22.6657 21.4072 22.5846L19.2006 19.868C19.4379 19.6631 19.659 19.4421 19.8639 19.2047L22.5804 21.4098C22.6615 21.4762 22.7647 21.513 22.8693 21.513H25.269C25.4739 22.3163 26.2035 22.9133 27.0702 22.9133C28.0946 22.9133 28.9289 22.079 28.9289 21.0546C28.9289 20.0302 28.0946 19.1959 27.0702 19.1959C26.2035 19.1959 25.4739 19.7929 25.269 20.5962H23.033L20.4417 18.4913L20.1528 18.848C20.9546 17.775 21.4293 16.444 21.4293 15.0009V15.4593H26.3362H26.3406ZM28.1418 14.0591C28.6606 14.0591 29.0837 14.4806 29.0837 15.0009C29.0837 15.5213 28.6621 15.9428 28.1418 15.9428C27.6215 15.9428 27.1999 15.5213 27.1999 15.0009C27.1999 14.4806 27.6215 14.0591 28.1418 14.0591ZM27.0746 8.00393C27.5935 8.00393 28.0165 8.42549 28.0165 8.94581C28.0165 9.46613 27.5949 9.88769 27.0746 9.88769C26.5543 9.88769 26.1327 9.46613 26.1327 8.94581C26.1327 8.42549 26.5543 8.00393 27.0746 8.00393ZM20.1145 2.92606C20.1145 2.40722 20.536 1.98418 21.0563 1.98418C21.5767 1.98418 21.9982 2.40574 21.9982 2.92606C21.9982 3.44638 21.5767 3.86793 21.0563 3.86793C20.536 3.86793 20.1145 3.44638 20.1145 2.92606ZM8.00421 2.92606C8.00421 2.40722 8.42577 1.98418 8.94609 1.98418C9.4664 1.98418 9.88796 2.40574 9.88796 2.92606C9.88796 3.44638 9.4664 3.86793 8.94609 3.86793C8.42577 3.86793 8.00421 3.44638 8.00421 2.92606ZM2.92634 9.88621C2.4075 9.88621 1.98446 9.46465 1.98446 8.94434C1.98446 8.42402 2.40602 8.00246 2.92634 8.00246C3.44665 8.00246 3.86821 8.42402 3.86821 8.94434C3.86821 9.46465 3.44665 9.88621 2.92634 9.88621ZM1.85917 15.9413C1.34033 15.9413 0.917297 15.5198 0.917297 14.9995C0.917297 14.4791 1.33886 14.0576 1.85917 14.0576C2.37949 14.0576 2.80105 14.4791 2.80105 14.9995C2.80105 15.5198 2.37949 15.9413 1.85917 15.9413ZM2.92634 21.9965C2.4075 21.9965 1.98446 21.5749 1.98446 21.0546C1.98446 20.5343 2.40602 20.1127 2.92634 20.1127C3.44665 20.1127 3.86821 20.5343 3.86821 21.0546C3.86821 21.5749 3.44665 21.9965 2.92634 21.9965ZM9.88649 27.0743C9.88649 27.5932 9.46493 28.0162 8.94462 28.0162C8.4243 28.0162 8.00274 27.5947 8.00274 27.0743C8.00274 26.554 8.4243 26.1325 8.94462 26.1325C9.46493 26.1325 9.88649 26.554 9.88649 27.0743ZM18.1496 13.6272H16.0816C16.0816 13.2616 15.9947 12.9875 15.8193 12.8076C15.6439 12.6278 15.411 12.5379 15.1191 12.5379C14.8273 12.5379 14.6047 12.6116 14.4632 12.759C14.3217 12.9064 14.251 13.0951 14.251 13.3235C14.251 13.552 14.3276 13.7436 14.4794 13.8881C14.6312 14.0325 14.9157 14.1785 15.3329 14.3273C16.2998 14.6604 17.0088 14.9921 17.4628 15.3223C17.9168 15.6539 18.1437 16.1256 18.1437 16.7417C18.1437 17.3578 17.9153 17.7971 17.4598 18.1538C17.0044 18.5105 16.3897 18.7198 15.6203 18.7832V19.7958H14.6268V18.7773C13.8191 18.7139 13.1484 18.4854 12.6148 18.0948C12.0813 17.7028 11.8233 17.1294 11.8395 16.3732L11.8587 16.3423H13.9149C13.9149 16.7594 14.0269 17.0586 14.2524 17.2414C14.478 17.4242 14.7683 17.5156 15.1265 17.5156C15.4257 17.5156 15.6527 17.4448 15.8075 17.3033C15.9623 17.1618 16.0389 16.9775 16.0389 16.7491C16.0389 16.4838 15.9593 16.2774 15.8016 16.1315C15.6439 15.9856 15.3623 15.8411 14.9585 15.7011C13.9753 15.3856 13.2604 15.0658 12.8123 14.7415C12.3643 14.4172 12.1402 13.9411 12.1402 13.3118C12.1402 12.7443 12.3775 12.2755 12.8521 11.9085C13.3268 11.54 13.9606 11.3263 14.7521 11.2659V10.2016H15.7456V11.285C16.4958 11.372 17.0884 11.6211 17.5261 12.0309C17.9639 12.4406 18.1762 12.9639 18.1629 13.5992L18.1511 13.6242L18.1496 13.6272ZM21.9967 27.0743C21.9967 27.5932 21.5752 28.0162 21.0549 28.0162C20.5346 28.0162 20.113 27.5947 20.113 27.0743C20.113 26.554 20.5346 26.1325 21.0549 26.1325C21.5752 26.1325 21.9967 26.554 21.9967 27.0743ZM27.0746 20.1142C27.5935 20.1142 28.0165 20.5358 28.0165 21.0561C28.0165 21.5764 27.5949 21.9979 27.0746 21.9979C26.5543 21.9979 26.1327 21.5764 26.1327 21.0561C26.1327 20.5358 26.5543 20.1142 27.0746 20.1142Z" fill="#4361EE"/>
</g>
<defs>
<clipPath id="clip0_26284_91654">
<rect width="30" height="30" fill="white"/>
</clipPath>
</defs>
</svg>
