<svg width="74" height="74" viewBox="0 0 74 74" fill="none" xmlns="http://www.w3.org/2000/svg">
<g clip-path="url(#clip0_24365_47384)">
<path d="M11 58.6064L11.4333 58.0023L31.8765 19.2215L31.9198 18.8111L22.909 1.88566C22.7441 1.57615 22.4859 1.32635 22.1712 1.17159C21.8565 1.01683 21.501 0.964957 21.1552 1.0233C20.8094 1.08165 20.4906 1.24726 20.2441 1.49671C19.9975 1.74615 19.8357 2.06681 19.7814 2.41331L11 58.6064Z" fill="#FFC24A"/>
<path d="M11.2559 58.1476L11.5821 57.5104L31.8137 19.1324L22.8259 2.14059C22.6776 1.84509 22.4377 1.60557 22.1419 1.45791C21.8461 1.31025 21.5104 1.26241 21.1852 1.32155C20.8599 1.38068 20.5626 1.54362 20.3377 1.78594C20.1128 2.02826 19.9725 2.33693 19.9378 2.66569L11.2559 58.1476Z" fill="#FFA712"/>
<path d="M38.4886 31.6159L45.1976 24.7335L38.4861 11.9349C38.3383 11.6594 38.1187 11.4292 37.8505 11.2687C37.5823 11.1082 37.2756 11.0234 36.963 11.0234C36.6505 11.0234 36.3438 11.1082 36.0756 11.2687C35.8074 11.4292 35.5877 11.6594 35.44 11.9349L31.8535 18.7713V19.3551L38.4886 31.6159Z" fill="#F4BD62"/>
<path d="M38.3689 31.3312L44.8919 24.6528L38.3689 12.2136C38.2622 11.9443 38.0798 11.7117 37.8438 11.5438C37.6078 11.3758 37.3283 11.2797 37.0389 11.2671C36.7495 11.2544 36.4627 11.3257 36.2129 11.4724C35.9632 11.6191 35.7612 11.8349 35.6313 12.0938L32.027 19.0501L31.9199 19.4044L38.3689 31.3312Z" fill="#FFA50E"/>
<path d="M11.0059 58.606L11.2021 58.4072L11.9133 58.1191L38.0662 32.063L38.3976 31.1607L31.8747 18.7266L11.0059 58.606Z" fill="#F6820C"/>
<path d="M39.3247 71.7466L63 58.5453L56.2349 16.9172C56.1864 16.6238 56.058 16.3494 55.8638 16.1241C55.6695 15.8988 55.417 15.7315 55.1338 15.6403C54.8507 15.5492 54.5479 15.5379 54.2588 15.6075C53.9696 15.6772 53.7053 15.8252 53.4947 16.0353L11 58.6039L34.5351 71.7441C35.2668 72.1524 36.0907 72.3667 36.9286 72.3667C37.7665 72.3667 38.5905 72.1524 39.3222 71.7441" fill="#FDE068"/>
<path d="M63 58.3859L56.2296 17.3507C56.2176 17.072 56.1219 16.8029 55.9546 16.5777C55.7872 16.3525 55.5557 16.1812 55.2894 16.0855C55.0231 15.9898 54.7339 15.974 54.4585 16.0402C54.183 16.1063 53.9338 16.2514 53.7421 16.457L11 58.4746L34.4881 71.3867C35.2206 71.7889 36.0455 72 36.8842 72C37.723 72 38.5479 71.7889 39.2804 71.3867L63 58.3859Z" fill="#FCCA3F"/>
<path d="M39.3247 71.3481C38.593 71.7564 37.7691 71.9707 36.9312 71.9707C36.0933 71.9707 35.2693 71.7564 34.5376 71.3481L11.1937 58.4042L11 58.603L34.5351 71.7432C35.2668 72.1515 36.0907 72.3658 36.9286 72.3658C37.7665 72.3658 38.5905 72.1515 39.3222 71.7432L63 58.5444L62.9414 58.1875L39.3247 71.3481Z" fill="#EEAB37"/>
</g>
<defs>
<clipPath id="clip0_24365_47384">
<rect width="74" height="74" fill="white"/>
</clipPath>
</defs>
</svg>
