<svg width="45" height="31" viewBox="0 0 45 31" fill="none" xmlns="http://www.w3.org/2000/svg">
<path d="M30.6035 3.59961C31.9706 3.05921 33.5076 3.16582 35.0381 3.87793C38.1422 5.3223 41.0167 9.14765 42.583 13.8193C43.7351 17.2585 44.0871 20.7999 43.5625 23.793C43.0225 26.8739 41.6016 29.0791 39.501 29.9092L39.5 29.9082C38.9224 30.1368 38.3128 30.2509 37.6846 30.251C36.8375 30.251 35.9608 30.0449 35.0869 29.6416C32.1207 28.2725 29.3533 24.7118 27.7461 20.3223H16.3047C14.6961 24.7123 11.9282 28.2729 8.96191 29.6416C7.4385 30.3446 5.90834 30.4474 4.54785 29.9092C2.44732 29.0791 1.02698 26.8737 0.487305 23.793C-0.0370958 20.7997 0.314833 17.2583 1.46777 13.8193C3.03253 9.14829 5.9058 5.32277 9.00977 3.87793C10.5406 3.1656 12.0782 3.0596 13.4453 3.59961C13.8999 3.77948 14.3306 4.02827 14.7246 4.33887C15.0731 4.61348 15.4705 4.75482 15.875 4.75488H28.1738C28.5785 4.75488 28.9766 4.61368 29.3252 4.33887C29.7192 4.02844 30.1493 3.77937 30.6035 3.59961ZM34.4277 5.19043C33.2192 4.62812 32.1174 4.55841 31.1357 4.94629C30.8141 5.07352 30.5057 5.25105 30.2207 5.47559L30.2217 5.47656C29.6213 5.94975 28.9125 6.20311 28.1738 6.20312H15.875C15.1367 6.20306 14.4283 5.94957 13.8281 5.47656C13.5432 5.25195 13.235 5.07366 12.9131 4.94629C11.9315 4.55854 10.8297 4.62889 9.62109 5.19141C6.91935 6.44908 4.30337 9.91335 2.84082 14.2793V14.2803C1.75821 17.5095 1.43354 20.8001 1.91406 23.543C2.38037 26.2047 3.52939 27.9496 5.08008 28.5625H5.08105C6.05801 28.9488 7.15381 28.8816 8.35547 28.3271C11.0295 27.0934 13.6346 23.6764 15.1094 19.3643C15.2095 19.0713 15.4854 18.874 15.7949 18.874H28.2568C28.5662 18.8742 28.8413 19.0714 28.9414 19.3643C30.4148 23.676 33.0194 27.0929 35.6934 28.3271C36.8952 28.8818 37.9917 28.9491 38.9688 28.5625C40.5196 27.9496 41.6692 26.2048 42.1357 23.543C42.6165 20.8002 42.2917 17.5096 41.21 14.2803C39.746 9.9136 37.1297 6.44772 34.4277 5.19043Z" fill="#4361EE" stroke="#4361EE" stroke-width="0.5"/>
<path d="M22.9145 0H21.1367V5.47779H22.9145V0Z" fill="#4361EE"/>
<path d="M11.5041 16.8245C11.0132 16.8245 10.6152 16.4266 10.6152 15.9357V8.60762C10.6152 8.11673 11.0132 7.71875 11.5041 7.71875C11.995 7.71875 12.393 8.11673 12.393 8.60762V15.9357C12.393 16.4266 11.995 16.8245 11.5041 16.8245Z" fill="#4361EE"/>
<path d="M15.1681 13.1605H7.84004C7.34915 13.1605 6.95117 12.7626 6.95117 12.2717C6.95117 11.7808 7.34915 11.3828 7.84004 11.3828H15.1681C15.659 11.3828 16.057 11.7808 16.057 12.2717C16.057 12.7626 15.659 13.1605 15.1681 13.1605Z" fill="#4361EE"/>
<path d="M33.2469 11.1775C32.1426 11.1775 31.2441 10.279 31.2441 9.17467C31.2441 8.07034 32.1426 7.17188 33.2469 7.17188C34.3514 7.17188 35.2499 8.07034 35.2499 9.17467C35.2499 10.279 34.3514 11.1775 33.2469 11.1775ZM33.2469 8.35691C32.7961 8.35691 32.4293 8.72372 32.4293 9.17455C32.4293 9.62538 32.7961 9.99219 33.2469 9.99219C33.6979 9.99219 34.0647 9.62538 34.0647 9.17455C34.0647 8.72372 33.6979 8.35691 33.2469 8.35691Z" fill="#4361EE"/>
<path d="M33.2469 17.8884C32.1426 17.8884 31.2441 16.9899 31.2441 15.8856C31.2441 14.7813 32.1426 13.8828 33.2469 13.8828C34.3514 13.8828 35.2499 14.7813 35.2499 15.8856C35.2499 16.9899 34.3514 17.8884 33.2469 17.8884ZM33.2469 15.0679C32.7961 15.0679 32.4293 15.4347 32.4293 15.8855C32.4293 16.3363 32.7961 16.7031 33.2469 16.7031C33.6979 16.7031 34.0647 16.3363 34.0647 15.8855C34.0647 15.4347 33.6979 15.0679 33.2469 15.0679Z" fill="#4361EE"/>
<path d="M29.8915 14.5291C28.7871 14.5291 27.8887 13.6307 27.8887 12.5262C27.8887 11.4219 28.7871 10.5234 29.8915 10.5234C30.9959 10.5234 31.8944 11.4219 31.8944 12.5262C31.8944 13.6307 30.9959 14.5291 29.8915 14.5291ZM29.8915 11.7086C29.4406 11.7086 29.0738 12.0754 29.0738 12.5262C29.0738 12.9771 29.4406 13.344 29.8915 13.344C30.3424 13.344 30.7092 12.9772 30.7092 12.5262C30.7092 12.0753 30.3423 11.7086 29.8915 11.7086Z" fill="#4361EE"/>
<path d="M36.6024 14.5291C35.4981 14.5291 34.5996 13.6307 34.5996 12.5262C34.5996 11.4219 35.4981 10.5234 36.6024 10.5234C37.7069 10.5234 38.6053 11.4219 38.6053 12.5262C38.6052 13.6307 37.7067 14.5291 36.6024 14.5291ZM36.6024 11.7086C36.1516 11.7086 35.7848 12.0754 35.7848 12.5262C35.7848 12.9771 36.1516 13.344 36.6024 13.344C37.0534 13.344 37.4202 12.9772 37.4202 12.5262C37.4202 12.0753 37.0532 11.7086 36.6024 11.7086Z" fill="#4361EE"/>
</svg>
