<svg width="74" height="74" viewBox="0 0 74 74" fill="none" xmlns="http://www.w3.org/2000/svg">
<g clip-path="url(#clip0_24365_47446)">
<path d="M46.9706 23.3628H49.1955L55.623 16.9353L55.9526 14.216C44.0041 3.66841 25.7106 4.82205 15.163 16.7705C12.1965 20.0666 10.1364 24.022 8.90039 28.3069C9.64202 27.9773 10.3836 27.9773 11.1253 28.1421L23.9802 25.9997C23.9802 25.9997 24.6394 24.9284 24.969 25.0108C30.7372 18.7482 40.3784 18.0066 46.9706 23.3628Z" fill="#EA4335"/>
<path d="M64.8519 28.3097C63.3686 22.8711 60.3197 18.0093 56.1172 14.2188L47.0528 23.2831C50.8434 26.4144 53.0682 31.1114 52.9034 35.9732V37.5388C57.3532 37.5388 60.8965 41.1646 60.8965 45.5319C60.8965 49.8993 57.2708 53.525 52.9034 53.525H36.9172L35.3516 55.1731V64.8143L36.9172 66.3799H52.9858C64.5223 66.4623 73.9162 57.1508 73.9986 45.6143C74.081 38.7749 70.6201 32.265 64.8519 28.3097Z" fill="#4285F4"/>
<path d="M20.7659 66.3778H36.8345V53.5229H20.7659C19.6122 53.5229 18.4586 53.2757 17.4698 52.7812L15.2449 53.5229L8.73503 59.9503L8.1582 62.1752C11.7839 64.9769 16.2337 66.4602 20.7659 66.3778Z" fill="#34A853"/>
<path d="M20.7661 24.6797C9.22969 24.7621 -0.0818604 34.156 0.000542732 45.6925C0.000542732 52.1199 3.04946 58.2178 8.15845 62.0907L17.47 52.7792C13.4323 50.9663 11.6194 46.1869 13.4323 42.1491C15.2451 38.1114 20.0245 36.2985 24.0623 38.1114C25.8751 38.9354 27.276 40.3363 28.1 42.1491L37.4116 32.8376C33.4562 27.7286 27.276 24.6797 20.7661 24.6797Z" fill="#FBBC05"/>
</g>
<defs>
<clipPath id="clip0_24365_47446">
<rect width="74" height="74" fill="white"/>
</clipPath>
</defs>
</svg>
