<svg width="74" height="74" viewBox="0 0 74 74" fill="none" xmlns="http://www.w3.org/2000/svg">
<g clip-path="url(#clip0_24391_43410)">
<g clip-path="url(#clip1_24391_43410)">
<path d="M5.56343 30.1847C5.46119 30.1847 5.35895 30.0613 5.46119 29.938L6.17688 28.7046C6.27913 28.5813 6.38137 28.458 6.58585 28.458H19.4684C19.5706 28.458 19.6729 28.5813 19.5706 28.7046L18.9572 29.8146C18.8549 29.938 18.7527 30.0613 18.5482 30.0613L5.56343 30.1847ZM0.144593 34.1313C0.0423504 34.1313 -0.0598922 34.008 0.04235 33.8847L0.758047 32.6513C0.860289 32.528 0.962531 32.4046 1.16702 32.4046H17.628C17.7303 32.4046 17.8325 32.528 17.8325 32.6513L17.5258 33.8847C17.5258 34.008 17.3213 34.1313 17.219 34.1313H0.144593ZM8.83518 38.2013C8.73294 38.2013 8.6307 38.078 8.73294 37.9547L9.24415 36.8447C9.34639 36.7213 9.44864 36.598 9.65312 36.598H16.8101C16.9123 36.598 17.0146 36.7213 17.0146 36.8447L16.9123 37.8313C16.9123 37.9546 16.8101 38.078 16.7078 38.078L8.83518 38.2013ZM46.2558 29.3213L40.2236 31.1713C39.7123 31.2947 39.6101 31.418 39.2011 30.678C38.6899 29.938 38.2809 29.4446 37.463 29.0746C35.2137 27.718 32.9644 28.088 30.9195 29.6913C28.4657 31.5413 27.2388 34.378 27.2388 37.9547C27.2388 41.408 29.2836 44.2446 32.1464 44.738C34.6002 45.108 36.6451 44.1213 38.2809 41.9013C38.5877 41.408 38.8944 40.9146 39.3034 40.298H32.3509C31.6352 40.298 31.4307 39.6813 31.6352 38.9413C32.1464 37.5846 32.9644 35.3646 33.4756 34.2547C33.5778 34.008 33.8845 33.5146 34.3957 33.5146H47.4827C47.3805 34.748 47.3805 35.858 47.2783 37.0913C46.8693 40.1746 45.9491 43.1346 44.3132 45.6013C41.7572 49.6713 38.3832 52.2613 34.089 53.0013C30.5105 53.618 27.2388 52.7547 24.376 50.1646C21.7177 47.698 20.1841 44.4913 19.7751 40.5446C19.2639 35.858 20.4908 31.5413 22.8424 27.8413C25.3984 23.7713 28.7724 21.1813 32.9644 20.318C36.3383 19.578 39.6101 20.0713 42.4729 22.4146C44.4155 23.8946 45.7446 25.9913 46.6648 28.5813C46.7671 29.0746 46.6648 29.198 46.2558 29.3213Z" fill="#00ACD7"/>
<path d="M58.1162 53.3732C54.8444 53.2499 51.8794 52.1399 49.3233 49.5499C47.1763 47.3299 45.8471 44.4932 45.4381 41.1632C44.8247 36.2299 45.9494 31.9132 48.4032 28.0899C51.0615 23.8966 54.231 21.7999 58.5252 20.8132C62.2059 20.0732 65.6821 20.4432 68.7494 23.0332C71.6122 25.3766 73.3503 28.5832 73.8615 32.7766C74.4749 38.6966 73.0436 43.3832 69.7718 47.4532C67.4202 50.4132 64.4552 52.1399 61.1834 53.0032C60.0588 53.2499 59.0364 53.2499 58.1162 53.3732ZM66.7045 35.8599C66.7045 35.2432 66.7045 34.8732 66.6023 34.3799C65.9888 30.0632 62.7171 27.5966 59.2409 28.5832C55.8669 29.4466 53.7198 32.0366 52.9018 36.1066C52.2884 39.4366 53.6175 42.8899 56.1736 44.3699C58.1162 45.3566 60.161 45.2332 62.0014 44.1232C64.9664 42.3966 66.5 39.5599 66.7045 35.8599Z" fill="#00ACD7"/>
</g>
</g>
<defs>
<clipPath id="clip0_24391_43410">
<rect width="74" height="74" fill="white"/>
</clipPath>
<clipPath id="clip1_24391_43410">
<rect width="74" height="74" fill="white"/>
</clipPath>
</defs>
</svg>
