<svg width="40" height="40" viewBox="0 0 40 40" fill="none" xmlns="http://www.w3.org/2000/svg">
<path d="M3.84887 23.6754L5.99914 24.3038C6.09825 24.3349 6.1884 24.3894 6.26193 24.4628C6.33545 24.5361 6.3902 24.6262 6.42151 24.7252C6.60378 25.2484 6.81656 25.7604 7.05875 26.2587C7.10656 26.3508 7.13142 26.4531 7.1312 26.5569C7.13098 26.6606 7.1057 26.7628 7.0575 26.8547L5.98084 28.8216C5.78761 29.1776 5.71425 29.5865 5.77164 29.9875C5.82903 30.3885 6.01411 30.7603 6.29944 31.0478L8.95203 33.7004C9.23957 33.9859 9.61145 34.1711 10.0125 34.2285C10.4136 34.2859 10.8225 34.2126 11.1786 34.0193L13.1458 32.9421C13.2376 32.8941 13.3396 32.8689 13.4432 32.8688C13.5468 32.8686 13.6489 32.8934 13.7408 32.9412C14.2393 33.1832 14.7515 33.3959 15.2747 33.5784C15.3732 33.6092 15.4629 33.6634 15.536 33.7364C15.6091 33.8093 15.6635 33.8989 15.6946 33.9974L16.2616 35.9352C16.349 36.3685 16.5808 36.7592 16.9192 37.0435C17.2577 37.3277 17.6826 37.4886 18.1244 37.4999C43.7293 38.585 43.7333 1.41424 18.1241 2.49989C17.7191 2.50169 17.3254 2.63378 17.0013 2.87665C16.6772 3.11951 16.4399 3.46024 16.3245 3.84843L15.6958 5.99931C15.6647 6.09834 15.6102 6.18841 15.5369 6.26189C15.4636 6.33536 15.3736 6.39007 15.2747 6.42137C14.7519 6.60365 14.2401 6.81622 13.7421 7.05799C13.65 7.10594 13.5477 7.13096 13.4439 7.1309C13.34 7.13085 13.2378 7.10573 13.1457 7.05768L11.178 5.98009C10.8218 5.78735 10.4131 5.71433 10.0122 5.77181C9.61139 5.8293 9.23966 6.01424 8.95202 6.2993L6.29944 8.95189C6.01411 9.23938 5.82904 9.61117 5.77165 10.0121C5.71426 10.4131 5.78762 10.8219 5.98084 11.1778L7.0575 13.1453C7.1057 13.2372 7.13099 13.3393 7.1312 13.443C7.13142 13.5467 7.10656 13.649 7.05875 13.741C6.81657 14.2393 6.6038 14.7513 6.42154 15.2745C6.39061 15.373 6.33641 15.4626 6.26353 15.5358C6.19065 15.6089 6.10124 15.6635 6.00284 15.6948L4.06436 16.2615C3.63119 16.3489 3.24053 16.5808 2.95634 16.9192C2.67215 17.2576 2.51125 17.6825 2.5 18.1242V21.8755C2.50169 22.2806 2.63378 22.6744 2.87672 22.9986C3.11966 23.3227 3.46054 23.5601 3.84887 23.6754ZM23.466 35.874C25.1974 34.1464 26.5784 31.1473 27.3693 27.3969C29.1156 28.2886 30.6855 29.4899 32.0024 30.9426C29.7361 33.4305 26.7534 35.1536 23.466 35.874ZM32.8136 10.024C37.3521 15.5546 37.352 24.4458 32.8135 29.9757C31.3348 28.3792 29.5703 27.0737 27.6112 26.1267C28.2642 22.0683 28.2642 17.9315 27.6112 13.8731C29.5703 12.9259 31.3348 11.6204 32.8136 10.024ZM32.0024 9.05717C30.6854 10.5098 29.1155 11.7112 27.3693 12.6029C26.5784 8.85252 25.1974 5.85329 23.466 4.12572C26.7534 4.84609 29.7361 6.5692 32.0024 9.05717ZM20.625 3.82356C23.0546 4.37299 25.1624 8.07958 26.1888 13.1433C24.4224 13.8795 22.5376 14.2912 20.625 14.3587V3.82356ZM20.625 15.6087C22.611 15.5449 24.5709 15.137 26.4175 14.4032C26.9953 18.112 26.9953 21.8879 26.4175 25.5967C24.5709 24.8628 22.611 24.4549 20.625 24.391V15.6087ZM20.625 25.641C22.5376 25.7086 24.4223 26.1204 26.1888 26.8567C25.1624 31.9202 23.0546 35.6267 20.625 36.1762V25.641ZM19.375 30.2807C6.52292 29.0794 6.5307 10.9163 19.3751 9.71901L19.375 30.2807ZM3.75 18.1242C3.75 17.737 4.11133 17.5499 4.41467 17.4614L6.35376 16.8947C7.54492 16.5955 7.68433 15.2242 8.18296 14.2866C8.31722 14.015 8.3846 13.7152 8.37951 13.4123C8.37442 13.1093 8.29699 12.812 8.15369 12.545L7.07702 10.5775C7.01272 10.4589 6.98833 10.3227 7.00746 10.1891C7.02658 10.0554 7.08821 9.93154 7.18322 9.83567L9.83581 7.18309C9.93167 7.08796 10.0556 7.02624 10.1893 7.00706C10.323 6.98787 10.4593 7.01225 10.578 7.07658L12.5452 8.15386C13.5987 8.78916 14.6728 7.91394 15.686 7.60176C15.9726 7.50422 16.2318 7.33979 16.4422 7.1221C16.6526 6.90441 16.8081 6.63972 16.8957 6.34996L17.5244 4.19969C17.5628 4.0702 17.6419 3.95651 17.7499 3.87549C17.858 3.79447 17.9893 3.75041 18.1244 3.74986H19.375V8.46902C16.4222 8.62509 13.6418 9.908 11.6068 12.0533C9.57188 14.1987 8.4375 17.0429 8.4375 19.9999C8.4375 22.9568 9.57188 25.8011 11.6068 27.9464C13.6418 30.0917 16.4222 31.3746 19.375 31.5307V36.2499H18.1244C17.7368 36.2499 17.55 35.8882 17.4615 35.5846L16.8945 33.6467C16.8069 33.3575 16.6515 33.0934 16.4413 32.8762C16.2312 32.659 15.9722 32.4951 15.686 32.398C14.9245 32.1927 14.2372 31.6341 13.4363 31.6204C12.744 31.5499 11.1834 32.6495 10.5786 32.9229C10.4598 32.9873 10.3234 33.0119 10.1896 32.9927C10.0558 32.9736 9.93176 32.9119 9.83581 32.8167L7.18322 30.1641C7.0882 30.0681 7.02656 29.9442 7.00744 29.8105C6.98831 29.6769 7.01271 29.5406 7.07702 29.4219L8.15369 27.455C8.78862 26.3981 7.91369 25.3265 7.60189 24.3138C7.50425 24.0273 7.33979 23.7681 7.12212 23.5578C6.90444 23.3474 6.6398 23.1919 6.3501 23.1041L4.19983 22.4755C4.07031 22.4371 3.9566 22.358 3.87557 22.25C3.79454 22.1419 3.75051 22.0106 3.75 21.8755V18.1242Z" fill="#F5FAFE"/>
</svg>
