<svg width="50" height="50" viewBox="0 0 50 50" fill="none" xmlns="http://www.w3.org/2000/svg">
<path d="M4.99069 46H35.1678C35.1986 46 35.2295 46 35.2665 46C35.2788 46 35.2911 46 35.3096 46C35.3281 46 35.3466 46 35.3651 45.9938C35.3836 45.9938 35.396 45.9876 35.4145 45.9815C35.433 45.9815 35.4453 45.9753 35.4638 45.9691C35.4762 45.9691 35.4947 45.9567 35.507 45.9506C35.5193 45.9506 35.5378 45.9382 35.5502 45.932C35.5625 45.932 35.581 45.9197 35.5933 45.9135C35.6057 45.9073 35.6242 45.9011 35.6365 45.8888C35.6488 45.8826 35.6612 45.8764 35.6735 45.8641C35.6858 45.8579 35.7043 45.8455 35.7167 45.8394C35.729 45.8332 35.7414 45.8208 35.7599 45.8085C35.7722 45.8023 35.7845 45.7899 35.7969 45.7776C35.8092 45.7652 35.8277 45.7529 35.84 45.7405C35.8462 45.7343 35.8585 45.7281 35.8647 45.7158L45.7079 36.0282C45.7264 36.0097 45.7387 35.9973 45.7572 35.9788C45.7634 35.9726 45.7695 35.9665 45.7757 35.9603C45.7942 35.9356 45.8127 35.9109 45.8312 35.8861C45.8436 35.8676 45.8559 35.8491 45.8682 35.8305C45.8744 35.8182 45.8806 35.812 45.8867 35.7996C45.8929 35.7811 45.9052 35.7688 45.9114 35.7502C45.9176 35.7379 45.9237 35.7255 45.9299 35.7132C45.9299 35.7008 45.9422 35.6823 45.9484 35.6699C45.9484 35.6514 45.9607 35.639 45.9669 35.6205C45.9669 35.6081 45.9731 35.5958 45.9792 35.5772C45.9792 35.5587 45.9916 35.5402 45.9916 35.5278C45.9977 35.4969 46.0039 35.466 46.0039 35.4351C46.0039 35.4289 46.0039 35.4166 46.0039 35.4104C46.0039 35.3857 46.0039 35.361 46.0039 35.3363V4.98853C46.0039 4.44484 45.5599 4 45.0171 4H14.8339C14.8339 4 14.8154 4 14.803 4C14.7845 4 14.7599 4 14.7414 4C14.729 4 14.7105 4 14.6982 4C14.6797 4 14.6612 4 14.6488 4.00618C14.6303 4.00618 14.618 4.01236 14.5995 4.01853C14.581 4.01853 14.5687 4.02471 14.5502 4.03089C14.5378 4.03089 14.5193 4.04325 14.507 4.04943C14.4947 4.04943 14.4762 4.06178 14.4638 4.06796C14.4515 4.06796 14.433 4.08032 14.4206 4.0865C14.4083 4.09267 14.3898 4.09885 14.3775 4.11121C14.3651 4.11739 14.3528 4.12357 14.3405 4.13592C14.3281 4.1421 14.3096 4.15446 14.2973 4.16064C14.285 4.16681 14.2726 4.17917 14.2541 4.19153C14.2418 4.20388 14.2295 4.21006 14.2171 4.22242C14.2048 4.23477 14.1863 4.24713 14.174 4.25949C14.1678 4.26567 14.1554 4.27184 14.1493 4.2842L4.29994 13.9718C4.28144 13.9903 4.2691 14.0026 4.2506 14.0212C4.24443 14.0274 4.23827 14.0335 4.2321 14.0397C4.2136 14.0644 4.1951 14.0891 4.17659 14.1139C4.16426 14.1324 4.15192 14.1509 4.13959 14.1695C4.13342 14.1818 4.12725 14.188 4.12109 14.2004C4.11492 14.2189 4.10258 14.2312 4.09642 14.2498C4.09025 14.2621 4.08408 14.2745 4.07792 14.2868C4.07792 14.2992 4.06558 14.3177 4.05941 14.3301C4.05941 14.3486 4.04708 14.361 4.04091 14.3795C4.04091 14.3919 4.03474 14.4042 4.02858 14.4228C4.02858 14.4413 4.01624 14.4598 4.01624 14.4722C4.01007 14.5031 4.00391 14.534 4.00391 14.5649C4.00391 14.571 4.00391 14.5834 4.00391 14.5896C4.00391 14.6143 4.00391 14.639 4.00391 14.6637V44.9991C4.00391 45.5428 4.44796 45.9876 4.99069 45.9876V46ZM34.181 44.0229H5.97747V15.6646H15.3458V30.9373L17.9484 29.1271L19.9466 30.9373L21.9079 29.053L24.9607 30.9373V15.6646H34.181V44.0229ZM36.1546 15.0838L44.018 7.10768V34.91L36.1546 42.6514V15.0838ZM34.7546 13.6876H26.1325L33.6814 5.97705H42.359L34.7607 13.6876H34.7546ZM15.2347 5.97705H23.9863L16.1722 13.6876H7.40831L15.2347 5.97705Z" fill="#F0F3FF"/>
<path d="M17.6613 36H7.35263C7.15685 36 7.00391 36.1685 7.00391 36.3694V42.6306C7.00391 42.838 7.16297 43 7.35263 43H17.6552C17.851 43 18.0039 42.8315 18.0039 42.6306V36.3694C18.0039 36.162 17.8448 36 17.6552 36H17.6613ZM17.3065 42.2611H7.70135V36.7389H17.3065V42.2611Z" fill="#F0F3FF"/>
<path d="M9.00391 37H8.00391V41H9.00391V37Z" fill="#283A8F"/>
<path d="M17.0039 37H16.0039V41H17.0039V37Z" fill="#283A8F"/>
<path d="M10.0039 37H9.00391V41H10.0039V37Z" fill="#283A8F"/>
<path d="M12.0039 37H11.0039V41H12.0039V37Z" fill="#283A8F"/>
<path d="M14.0039 37H13.0039V41H14.0039V37Z" fill="#283A8F"/>
<path d="M13.0039 37H12.0039V41H13.0039V37Z" fill="#283A8F"/>
<path d="M11.0039 37H10.0039V41H11.0039V37Z" fill="#283A8F"/>
<path d="M16.0039 37H15.0039V41H16.0039V37Z" fill="#283A8F"/>
</svg>
