<svg width="52" height="45" viewBox="0 0 52 45" fill="none" xmlns="http://www.w3.org/2000/svg">
<path d="M45.7617 41.8616H6.23641C4.80122 41.8616 3.62695 40.6925 3.62695 39.2636V5.7386C3.62695 4.30972 4.80122 3.14062 6.23641 3.14062H45.7617C47.1969 3.14062 48.3711 4.30972 48.3711 5.7386V39.2636C48.3711 40.6925 47.1969 41.8616 45.7617 41.8616Z" stroke="#F5FAFE" stroke-width="1.5" stroke-miterlimit="10" stroke-linecap="round" stroke-linejoin="round"/>
<path d="M3.62695 10.1797H48.3711" stroke="#F5FAFE" stroke-width="1.5" stroke-miterlimit="10" stroke-linecap="round" stroke-linejoin="round"/>
<path d="M18.8789 25.7861C21.3778 23.2981 21.3778 19.2644 18.8789 16.7764C16.3799 14.2885 12.3284 14.2885 9.82942 16.7764C7.33048 19.2644 7.33048 23.2981 9.82942 25.7861C12.3284 28.274 16.3799 28.274 18.8789 25.7861Z" stroke="#F5FAFE" stroke-width="1.5" stroke-miterlimit="10" stroke-linecap="round" stroke-linejoin="round"/>
<path d="M14.3534 23.9139C15.8116 23.9139 16.9938 22.737 16.9938 21.2851C16.9938 19.8332 15.8116 18.6562 14.3534 18.6562C12.8951 18.6562 11.7129 19.8332 11.7129 21.2851C11.7129 22.737 12.8951 23.9139 14.3534 23.9139Z" stroke="#F5FAFE" stroke-width="1.5" stroke-miterlimit="10" stroke-linecap="round" stroke-linejoin="round"/>
<path d="M12.1777 15.2891L13.457 18.8076" stroke="#F5FAFE" stroke-width="1.5" stroke-miterlimit="10" stroke-linecap="round" stroke-linejoin="round"/>
<path d="M15.2539 23.7578L16.5332 27.2764" stroke="#F5FAFE" stroke-width="1.5" stroke-miterlimit="10" stroke-linecap="round" stroke-linejoin="round"/>
<path d="M16.8379 20.3908L20.372 19.1172" stroke="#F5FAFE" stroke-width="1.5" stroke-miterlimit="10" stroke-linecap="round" stroke-linejoin="round"/>
<path d="M8.33594 23.4533L11.87 22.1797" stroke="#F5FAFE" stroke-width="1.5" stroke-miterlimit="10" stroke-linecap="round" stroke-linejoin="round"/>
<path d="M24.1523 26.7109H45.0005" stroke="#F5FAFE" stroke-width="1.5" stroke-miterlimit="10" stroke-linecap="round" stroke-linejoin="round"/>
<path d="M29.3037 26.7124H25.7681C25.5669 26.7124 25.4023 26.5485 25.4023 26.3482V17.4267C25.4023 17.2264 25.5669 17.0625 25.7681 17.0625H29.3037C29.5049 17.0625 29.6695 17.2264 29.6695 17.4267V26.3482C29.6695 26.5485 29.5049 26.7124 29.3037 26.7124Z" stroke="#F5FAFE" stroke-width="1.5" stroke-miterlimit="10" stroke-linecap="round" stroke-linejoin="round"/>
<path d="M36.3079 26.7107H32.8498C32.6274 26.7107 32.4453 26.5294 32.4453 26.3079V15.309C32.4453 15.0875 32.6274 14.9062 32.8498 14.9062H36.3079C36.5304 14.9062 36.7125 15.0875 36.7125 15.309V26.3079C36.7125 26.5294 36.5304 26.7107 36.3079 26.7107Z" stroke="#F5FAFE" stroke-width="1.5" stroke-miterlimit="10" stroke-linecap="round" stroke-linejoin="round"/>
<path d="M43.316 26.7135H39.9238C39.6832 26.7135 39.4863 26.5175 39.4863 26.2779V13.3418C39.4863 13.1023 39.6832 12.9062 39.9238 12.9062H43.316C43.5566 12.9062 43.7535 13.1023 43.7535 13.3418V26.2779C43.7535 26.5175 43.5566 26.7135 43.316 26.7135Z" stroke="#F5FAFE" stroke-width="1.5" stroke-miterlimit="10" stroke-linecap="round" stroke-linejoin="round"/>
<path d="M12.4578 33.2101H11.4374C11.1313 33.2101 10.8809 32.9608 10.8809 32.656V31.6401C10.8809 31.3353 11.1313 31.0859 11.4374 31.0859H12.4578C12.764 31.0859 13.0144 31.3353 13.0144 31.6401V32.656C13.0144 32.9608 12.764 33.2101 12.4578 33.2101Z" fill="#F5FAFE" stroke="#F5FAFE" stroke-miterlimit="10" stroke-linecap="round" stroke-linejoin="round"/>
<path d="M12.4578 38.5539H11.4374C11.1313 38.5539 10.8809 38.3045 10.8809 37.9997V36.9838C10.8809 36.679 11.1313 36.4297 11.4374 36.4297H12.4578C12.764 36.4297 13.0144 36.679 13.0144 36.9838V37.9997C13.0144 38.3045 12.764 38.5539 12.4578 38.5539Z" fill="#F5FAFE" stroke="#F5FAFE" stroke-miterlimit="10" stroke-linecap="round" stroke-linejoin="round"/>
<path d="M14.9941 32.1484H41.6639" stroke="#F5FAFE" stroke-width="1.5" stroke-miterlimit="10" stroke-linecap="round" stroke-linejoin="round"/>
<path d="M14.9941 37.4922H41.6639" stroke="#F5FAFE" stroke-width="1.5" stroke-miterlimit="10" stroke-linecap="round" stroke-linejoin="round"/>
</svg>
