<svg width="35" height="30" viewBox="0 0 35 30" fill="none" xmlns="http://www.w3.org/2000/svg">
<path d="M30.3744 27.8999H4.14019C3.1876 27.8999 2.4082 27.1205 2.4082 26.1679V3.81792C2.4082 2.86534 3.1876 2.08594 4.14019 2.08594H30.3744C31.327 2.08594 32.1064 2.86534 32.1064 3.81792V26.1679C32.1064 27.1205 31.327 27.8999 30.3744 27.8999Z" stroke="#4361EE" stroke-width="1.5" stroke-miterlimit="10" stroke-linecap="round" stroke-linejoin="round"/>
<path d="M2.4082 6.78125H32.1064" stroke="#4361EE" stroke-width="1.5" stroke-miterlimit="10" stroke-linecap="round" stroke-linejoin="round"/>
<path d="M12.5311 17.1907C14.1898 15.5321 14.1898 12.8429 12.5311 11.1843C10.8725 9.52566 8.18333 9.52566 6.5247 11.1843C4.86607 12.8429 4.86607 15.5321 6.5247 17.1907C8.18333 18.8493 10.8725 18.8493 12.5311 17.1907Z" stroke="#4361EE" stroke-width="1.5" stroke-miterlimit="10" stroke-linecap="round" stroke-linejoin="round"/>
<path d="M9.52795 15.9348C10.4959 15.9348 11.2805 15.1502 11.2805 14.1823C11.2805 13.2143 10.4959 12.4297 9.52795 12.4297C8.56004 12.4297 7.77539 13.2143 7.77539 14.1823C7.77539 15.1502 8.56004 15.9348 9.52795 15.9348Z" stroke="#4361EE" stroke-width="1.5" stroke-miterlimit="10" stroke-linecap="round" stroke-linejoin="round"/>
<path d="M8.08398 10.1953L8.93305 12.541" stroke="#4361EE" stroke-width="1.5" stroke-miterlimit="10" stroke-linecap="round" stroke-linejoin="round"/>
<path d="M10.125 15.8359L10.9741 18.1816" stroke="#4361EE" stroke-width="1.5" stroke-miterlimit="10" stroke-linecap="round" stroke-linejoin="round"/>
<path d="M11.1758 13.5913L13.5215 12.7422" stroke="#4361EE" stroke-width="1.5" stroke-miterlimit="10" stroke-linecap="round" stroke-linejoin="round"/>
<path d="M5.5332 15.6303L7.8789 14.7812" stroke="#4361EE" stroke-width="1.5" stroke-miterlimit="10" stroke-linecap="round" stroke-linejoin="round"/>
<path d="M16.0312 17.8047H29.8688" stroke="#4361EE" stroke-width="1.5" stroke-miterlimit="10" stroke-linecap="round" stroke-linejoin="round"/>
<path d="M19.4508 17.8083H17.1041C16.9706 17.8083 16.8613 17.699 16.8613 17.5655V11.6178C16.8613 11.4842 16.9706 11.375 17.1041 11.375H19.4508C19.5843 11.375 19.6936 11.4842 19.6936 11.6178V17.5655C19.6936 17.699 19.5843 17.8083 19.4508 17.8083Z" stroke="#4361EE" stroke-width="1.5" stroke-miterlimit="10" stroke-linecap="round" stroke-linejoin="round"/>
<path d="M24.1009 17.8071H21.8056C21.6579 17.8071 21.5371 17.6863 21.5371 17.5386V10.206C21.5371 10.0583 21.6579 9.9375 21.8056 9.9375H24.1009C24.2485 9.9375 24.3694 10.0583 24.3694 10.206V17.5386C24.3694 17.6863 24.2485 17.8071 24.1009 17.8071Z" stroke="#4361EE" stroke-width="1.5" stroke-miterlimit="10" stroke-linecap="round" stroke-linejoin="round"/>
<path d="M28.7509 17.8064H26.4994C26.3397 17.8064 26.209 17.6757 26.209 17.516V8.89195C26.209 8.73223 26.3397 8.60156 26.4994 8.60156H28.7509C28.9106 8.60156 29.0412 8.73223 29.0412 8.89195V17.516C29.0412 17.6757 28.9106 17.8064 28.7509 17.8064Z" stroke="#4361EE" stroke-width="1.5" stroke-miterlimit="10" stroke-linecap="round" stroke-linejoin="round"/>
<path d="M8.26935 22.1349H7.59207C7.38889 22.1349 7.22266 21.9686 7.22266 21.7654V21.0882C7.22266 20.885 7.38889 20.7188 7.59207 20.7188H8.26935C8.47253 20.7188 8.63878 20.885 8.63878 21.0882V21.7654C8.63878 21.9686 8.47253 22.1349 8.26935 22.1349Z" fill="#4361EE" stroke="#4361EE" stroke-miterlimit="10" stroke-linecap="round" stroke-linejoin="round"/>
<path d="M8.26935 25.6974H7.59207C7.38889 25.6974 7.22266 25.5311 7.22266 25.3279V24.6507C7.22266 24.4475 7.38889 24.2812 7.59207 24.2812H8.26935C8.47253 24.2812 8.63878 24.4475 8.63878 24.6507V25.3279C8.63878 25.5311 8.47253 25.6974 8.26935 25.6974Z" fill="#4361EE" stroke="#4361EE" stroke-miterlimit="10" stroke-linecap="round" stroke-linejoin="round"/>
<path d="M9.95312 21.4297H27.6547" stroke="#4361EE" stroke-width="1.5" stroke-miterlimit="10" stroke-linecap="round" stroke-linejoin="round"/>
<path d="M9.95312 24.9922H27.6547" stroke="#4361EE" stroke-width="1.5" stroke-miterlimit="10" stroke-linecap="round" stroke-linejoin="round"/>
</svg>
