<svg width="74" height="74" viewBox="0 0 74 74" fill="none" xmlns="http://www.w3.org/2000/svg">
<g clip-path="url(#clip0_24365_47376)">
<path d="M34.3884 0.203125L36.3631 3.9121C36.8071 4.59654 37.288 5.20237 37.8546 5.76658C39.5155 7.40677 41.0636 9.15734 42.4885 11.0063C45.8344 15.3997 48.0912 20.2787 49.7029 25.5555C50.6695 28.7788 51.1944 32.0855 51.2337 35.4291C51.3955 45.4253 47.9687 54.0086 41.0595 61.1422C39.9356 62.2734 38.7215 63.3112 37.4291 64.2453C36.7447 64.2453 36.4209 63.7204 36.1388 63.2371C35.6251 62.341 35.2832 61.3568 35.1306 60.3352C34.8879 59.1258 34.7283 57.9165 34.8069 56.6678V56.1036C34.7514 55.9834 34.1479 0.487541 34.3884 0.203125Z" fill="#599636"/>
<path d="M34.3876 0.079551C34.3067 -0.0823118 34.2258 0.0402414 34.1448 0.118861C34.1841 0.928175 33.902 1.64962 33.4604 2.33869C32.9748 3.02314 32.332 3.54804 31.6868 4.11225C28.1027 7.21539 25.2817 10.9637 23.0225 15.1559C20.0165 20.798 18.4673 26.8447 18.0279 33.2106C17.8268 35.5067 18.754 43.6091 19.4778 45.9468C21.4525 52.1531 24.9996 57.3535 29.5942 61.8672C30.7226 62.954 31.9296 63.9622 33.1783 64.931C33.5413 64.931 33.5806 64.6073 33.6639 64.3668C33.823 63.8523 33.9444 63.3267 34.0269 62.7945L34.8362 56.75L34.3876 0.079551Z" fill="#6CAC48"/>
<path d="M36.3618 66.6979C36.4427 65.7729 36.8867 65.0052 37.37 64.2399C36.8844 64.0387 36.5237 63.6386 36.2416 63.1924C35.9983 62.7698 35.797 62.3245 35.6404 61.8628C35.0762 60.1702 34.9559 58.3943 34.7941 56.6647V55.6172C34.5929 55.7791 34.5513 57.1479 34.5513 57.3514C34.4336 59.1795 34.191 60.9974 33.8252 62.7923C33.7049 63.5184 33.624 64.2422 33.1777 64.8873C33.1777 64.9682 33.1777 65.0492 33.217 65.1694C33.9431 67.306 34.142 69.4819 34.2645 71.6994V72.5087C34.2645 73.4753 34.2252 73.2718 35.0276 73.5955C35.3513 73.7158 35.712 73.7574 36.0358 73.9979C36.2786 73.9979 36.3179 73.7967 36.3179 73.6348L36.1976 72.3052V68.5963C36.1583 67.9488 36.2786 67.306 36.3595 66.7002L36.3618 66.6979Z" fill="#C2BFBF"/>
</g>
<defs>
<clipPath id="clip0_24365_47376">
<rect width="74" height="74" fill="white"/>
</clipPath>
</defs>
</svg>
