<svg width="74" height="74" viewBox="0 0 74 74" fill="none" xmlns="http://www.w3.org/2000/svg">
<path fill-rule="evenodd" clip-rule="evenodd" d="M4.63633e-07 37.125C4.63633e-07 49.8946 10.3461 60.25 23.1111 60.25H49.9639C56.095 60.2475 61.9741 57.8099 66.3081 53.4733C70.6421 49.1366 73.0762 43.2561 73.075 37.125C73.075 24.3554 62.7289 14 49.9639 14H23.1111C16.98 14.0025 11.1009 16.4401 6.76689 20.7767C2.43285 25.1134 -0.00122649 30.9939 4.63633e-07 37.125ZM64.3384 37.125C64.3396 39.0902 63.9536 41.0364 63.2026 42.8524C62.4515 44.6685 61.35 46.3187 59.961 47.709C58.5721 49.0992 56.9228 50.2023 55.1075 50.955C53.2922 51.7078 51.3463 52.0955 49.3811 52.0961H23.7124C21.7464 52.0967 19.7995 51.7099 17.9832 50.9577C16.1668 50.2055 14.5164 49.1026 13.1265 47.7123C11.7365 46.3219 10.6342 44.6712 9.88256 42.8546C9.13091 41.0379 8.74466 39.091 8.74587 37.125C8.74527 35.1602 9.13167 33.2145 9.88301 31.399C10.6344 29.5835 11.7359 27.9338 13.1248 26.544C14.5137 25.1542 16.1628 24.0516 17.9778 23.2992C19.7928 22.5467 21.7383 22.1591 23.7031 22.1585H49.3765C51.3417 22.1585 53.2877 22.5457 55.1032 23.2978C56.9188 24.05 58.5684 25.1525 59.9578 26.5424C61.3472 27.9322 62.4492 29.5821 63.2008 31.3979C63.9524 33.2137 64.339 35.1598 64.3384 37.125Z" fill="#EA1B22"/>
</svg>
