<svg width="74" height="74" viewBox="0 0 74 74" fill="none" xmlns="http://www.w3.org/2000/svg">
<g clip-path="url(#clip0_24391_46486)">
<g clip-path="url(#clip1_24391_46486)">
<path d="M70.8813 45.5006C61.7348 47.3194 61.1043 44.3322 61.1043 44.3322C70.7627 30.5103 74.7959 12.9604 71.3121 8.66629C61.8098 -3.04768 45.3586 2.49312 45.0839 2.63766L44.9902 2.64971C43.1859 2.28835 41.1631 2.07153 38.8905 2.0354C34.7512 1.96915 31.6108 3.08333 29.2321 4.82387C29.2321 4.82387 -0.117834 -6.84193 1.24946 19.4949C1.54289 25.096 9.57181 61.8821 19.1553 50.7704C22.6578 46.7051 26.0417 43.2722 26.0417 43.2722C27.7212 44.3503 29.7378 44.8983 31.8418 44.6996L32.0041 44.5671C31.9542 45.073 31.9791 45.5668 32.0665 46.151C29.6004 48.813 30.3246 49.2767 25.3862 50.2584C20.3915 51.2522 23.3259 53.0168 25.2426 53.4805C27.5651 54.0406 32.9344 54.8356 36.568 49.9332L36.4244 50.4933C37.3921 51.2401 38.0726 55.3536 37.9602 59.0816C37.8479 62.8096 37.7729 65.3692 38.5346 67.3687C39.2963 69.3682 40.058 73.8671 46.5448 72.524C51.964 71.4038 54.7735 68.5009 55.1669 63.6587C55.4416 60.2138 56.0721 60.7257 56.1096 57.6482L56.6153 56.1907C57.1959 51.5232 56.709 50.0175 60.0491 50.7162L60.8608 50.7824C63.3206 50.8908 66.536 50.403 68.4214 49.5538C72.4734 47.741 74.8895 44.6996 70.8813 45.5006Z" fill="#336791"/>
<path d="M35.8307 48.1386C35.8494 47.5363 36.3676 47.0606 36.992 47.0786C37.6163 47.0967 38.1095 47.5966 38.0908 48.1988C37.9597 52.6736 37.9847 57.1605 38.1532 60.7499C38.3093 63.9841 38.5778 66.4172 38.9524 67.3206C39.3519 68.2782 39.97 69.6935 41.1563 70.6511C42.3113 71.5906 44.0906 72.1628 46.9251 71.5786C49.4037 71.0667 51.0707 70.3379 52.182 69.2238C53.2808 68.1216 53.9051 66.5618 54.2922 64.3816C54.5794 62.7916 54.9728 60.0152 55.3286 57.2508C55.7782 53.7938 56.1902 50.3007 56.2776 49.1745C56.3213 48.5722 56.8645 48.1205 57.4888 48.1687C58.1132 48.2109 58.5814 48.7348 58.5315 49.3371C58.4441 50.4332 58.032 53.9685 57.5637 57.5279C57.1891 60.3826 56.7896 63.2132 56.5149 64.749C56.0466 67.3568 55.2537 69.278 53.799 70.7354C52.3506 72.1869 50.3215 73.1023 47.3809 73.7106C43.7285 74.4634 41.3186 73.6383 39.6891 72.3134C38.0846 71.0125 37.3229 69.29 36.8421 68.1276C36.3676 66.9894 36.0492 64.3033 35.8807 60.8403C35.7183 57.2207 35.6996 52.6736 35.8307 48.1386Z" fill="white"/>
<path d="M29.5994 3.6203C30.1801 3.84314 30.461 4.47551 30.23 5.03561C29.999 5.59572 29.3435 5.86673 28.7628 5.6439C28.6879 5.61379 1.02997 -5.28714 2.30985 19.3333C2.46594 22.3747 4.96327 34.8174 8.75921 43.496C9.95793 46.2303 11.2753 48.567 12.6738 50.0606C13.8413 51.3134 15.0338 51.9156 16.1825 51.5181C16.8194 51.2953 17.4999 50.7954 18.2179 49.9643C21.7329 45.887 24.9294 42.6649 24.9419 42.6589C25.3727 42.2252 26.0845 42.2072 26.534 42.6227C26.9835 43.0383 27.0022 43.7249 26.5714 44.1585C26.5652 44.1645 23.4435 47.3023 19.9535 51.3555C18.9608 52.5118 17.9494 53.2285 16.9317 53.5779C14.7715 54.3186 12.7862 53.4514 10.9881 51.5241C9.41476 49.8438 7.96631 47.2963 6.68019 44.3392C2.7781 35.4317 0.212096 22.5915 0.0497692 19.4357C-1.40493 -8.6056 29.512 3.58417 29.5994 3.6203Z" fill="white"/>
<path d="M45.6384 3.44804L43.959 1.67739C44.0963 1.62921 44.2337 1.58706 44.371 1.55092C44.7394 1.43649 45.139 1.32206 45.5698 1.20161C46.2003 1.02093 47.1244 0.786048 48.2544 0.575257C53.8921 -0.4787 64.8929 -1.05085 72.1414 7.88671C74.1892 10.4102 74.0206 16.6556 71.9041 24.0514C70.0311 30.598 66.6535 38.1443 61.9835 44.8294C61.6338 45.3293 60.9284 45.4618 60.4102 45.1245C59.892 44.7872 59.7546 44.1067 60.1042 43.6068C64.6369 37.1205 67.9084 29.803 69.7252 23.4672C71.6606 16.7098 71.9666 11.1991 70.362 9.22373C63.8565 1.20763 53.8234 1.74967 48.6727 2.71931C47.6176 2.91805 46.7747 3.12884 46.2003 3.29145L45.6384 3.44804Z" fill="white"/>
<path d="M62.1153 43.8842C62.1278 43.9143 62.134 43.9444 62.1403 43.9746C62.1403 43.9806 62.5274 45.9259 70.5875 44.3239C71.73 44.095 72.5417 44.1432 73.0661 44.3901C73.7466 44.7033 74.0401 45.2273 73.9964 45.9018C73.9714 46.3113 73.7716 46.751 73.4407 47.1906C72.679 48.1964 70.9371 49.4973 68.8206 50.4428C67.2348 51.1535 64.8187 51.6293 62.6023 51.7497C61.2974 51.822 60.0488 51.7738 59.0561 51.5811C57.8074 51.3402 56.8584 50.8403 56.4651 50.0273C56.359 49.8105 56.2965 49.5756 56.284 49.3226C56.0343 45.0948 58.1695 44.354 59.6617 43.9444C59.5056 43.7276 59.2933 43.4687 59.0561 43.1856C58.3006 42.2762 57.3329 41.1078 56.565 39.3191C56.4464 39.0481 56.103 38.4458 55.641 37.6508C53.6868 34.2721 49.8409 27.6111 50.5964 23.0641C51.1333 19.8179 53.6993 17.6618 60.1112 18.3062L60.0488 18.1255C59.7428 17.2884 59.2559 16.1923 58.5504 14.9636C55.7534 10.0492 49.6536 3.19547 38.8214 3.02683C22.2954 2.76786 22.8385 22.8713 22.8385 22.9255C22.851 23.5278 22.3515 24.0217 21.7272 24.0337C21.1029 24.0457 20.5909 23.5639 20.5784 22.9617C20.5784 22.8954 19.9666 0.55154 38.8527 0.846648C50.7774 1.03335 57.4703 8.53752 60.5295 13.9097C61.2912 15.2467 61.8344 16.4633 62.1777 17.4088C62.5648 18.4688 62.7084 19.2999 62.646 19.6673C62.5586 20.2093 62.2464 20.5466 61.7095 20.649L61.3037 20.655C55.4225 19.7456 53.1998 21.1368 52.8252 23.4013C52.1947 27.2136 55.7908 33.429 57.6139 36.5908C58.1071 37.446 58.4817 38.0965 58.6503 38.494C59.2996 40.0057 60.1487 41.0295 60.8105 41.8365C61.4285 42.5653 61.9155 43.1555 62.1153 43.8842ZM71.0433 46.4559C65.0684 47.6483 62.2839 46.7751 61.004 45.8355C60.8292 45.8897 60.6419 45.9379 60.4421 45.9921C59.6429 46.2089 58.4005 46.5462 58.5316 49.1359C58.6253 49.2323 58.9749 49.3347 59.4869 49.4371C60.3047 49.5937 61.3536 49.6298 62.4712 49.5696C64.4253 49.4612 66.5293 49.0576 67.8717 48.4554C69.2514 47.835 70.4065 47.0882 71.1182 46.4378L71.0433 46.4559Z" fill="white"/>
<path d="M32.8393 46.7742C32.3773 47.2741 31.9965 47.7378 31.6718 48.1353C30.2858 49.8337 29.855 50.3637 25.5534 51.2189C24.7792 51.3755 24.2548 51.526 23.9301 51.6766C24.3297 51.9536 24.929 52.1825 25.4535 52.309C26.5148 52.568 28.2755 52.8751 30.161 52.568C31.9965 52.2668 33.9756 51.3574 35.5802 49.1893C35.6301 49.117 35.6738 49.0387 35.7113 48.9604C35.8736 48.581 35.8361 48.1052 35.6738 47.6535C35.499 47.1717 35.1806 46.7501 34.8122 46.4911C34.7248 46.4309 34.6374 46.3827 34.5438 46.3466L34.4876 46.3225C34.2566 46.2322 34.0006 46.1358 33.7821 46.1539C33.5448 46.178 33.2452 46.3346 32.8393 46.7742ZM29.8925 46.7802C30.1984 46.4068 30.5543 45.9732 31.0912 45.389C31.1349 45.3348 31.1849 45.2806 31.2348 45.2324C32.0652 44.3652 32.8581 44.0399 33.5885 43.9797C34.3128 43.9195 34.8747 44.1182 35.3492 44.311C35.3679 44.317 35.3866 44.323 35.4116 44.335C35.6551 44.4314 35.8923 44.5639 36.1233 44.7205C36.8663 45.2324 37.4781 46.0455 37.809 46.9308C38.1462 47.8523 38.2024 48.8821 37.8028 49.7976C37.7029 50.0264 37.578 50.2432 37.4219 50.454C35.3991 53.1883 32.8768 54.3326 30.5418 54.718C28.2505 55.0975 26.1652 54.7301 24.9041 54.4289C23.9863 54.2061 22.85 53.7123 22.182 53.11C21.7886 52.7547 21.5202 52.3331 21.4453 51.8633C21.3579 51.3032 21.5327 50.7612 22.0634 50.2794C22.5753 49.8156 23.5243 49.394 25.0914 49.0809C28.5814 48.3883 28.8936 48.0088 29.8925 46.7802Z" fill="white"/>
<path d="M32.9583 45.8322C33.0519 46.4284 32.6274 46.9885 32.0093 47.0728C31.3912 47.1571 30.8106 46.7536 30.7231 46.1574C30.6982 46.0128 30.6857 45.8683 30.6732 45.7177C30.2986 45.7057 29.9302 45.6816 29.5681 45.6274C27.1457 45.3022 24.9543 44.1217 23.3061 42.3752C21.6766 40.6527 20.5777 38.3762 20.3218 35.8346C20.2281 34.9312 20.2468 33.9917 20.3842 33.0462C20.9398 29.2278 20.7276 25.813 20.6214 24.0423C20.5902 23.5605 20.5715 23.1992 20.5715 22.9221C20.5777 22.2055 22.4445 20.6275 24.9044 19.6519C26.0157 19.2122 27.2581 18.8448 28.488 18.6642C29.7866 18.4775 31.0977 18.4955 32.2777 18.8509C34.1258 19.411 35.5929 20.7299 36.1548 23.2534C38.1839 32.2933 36.3671 36.1779 34.9499 39.2193C34.7064 39.7433 34.4754 40.2372 34.3006 40.6828C34.2943 40.7129 34.2818 40.737 34.2694 40.7671C33.6762 42.3089 34.5441 40.0504 34.0945 41.2008C33.389 43.0557 32.771 44.6457 32.9583 45.8322ZM30.9167 43.5436C31.1602 42.5739 31.5598 41.5501 31.9843 40.4479C32.3214 39.5807 31.4411 41.8512 32.1466 40.0143C32.1591 39.9842 32.1716 39.9541 32.1841 39.924C32.4026 39.3639 32.6398 38.864 32.8833 38.334C34.1695 35.5817 35.8052 32.0645 33.9385 23.7292C33.5763 22.1091 32.696 21.278 31.5972 20.9467C30.7731 20.6998 29.8054 20.6938 28.8127 20.8383C27.7513 20.9949 26.69 21.3081 25.741 21.6815C24.074 22.3379 22.8128 22.892 22.8128 22.9402C22.8128 23.0968 22.8316 23.4521 22.8628 23.9279C22.9752 25.7648 23.1937 29.3242 22.6131 33.3593C22.5007 34.1483 22.482 34.9132 22.5569 35.6479C22.7629 37.6956 23.6495 39.5325 24.9668 40.9237C26.2654 42.2969 27.9823 43.2304 29.8678 43.4833C30.2174 43.5195 30.5671 43.5436 30.9167 43.5436Z" fill="white"/>
<path d="M29.0747 22.7755C29.0247 23.1308 29.7552 24.0884 30.7042 24.2149C31.6532 24.3413 32.4711 23.5945 32.521 23.2392C32.5709 22.8839 31.8405 22.4864 30.8915 22.3599C29.9425 22.2334 29.1246 22.4201 29.0747 22.7755Z" fill="white"/>
<path d="M29.4504 22.8245C29.438 22.9028 29.5691 23.1075 29.7876 23.3304C30.0311 23.5773 30.3745 23.8001 30.7553 23.8543H30.7615C31.1361 23.9025 31.4858 23.7821 31.748 23.6074C31.9915 23.4508 32.1413 23.2822 32.16 23.1858C32.16 23.1677 32.0664 23.1135 31.9103 23.0292C31.6543 22.8907 31.2797 22.7763 30.8489 22.716H30.8365C30.4119 22.6618 30.0186 22.6739 29.7376 22.7401C29.5628 22.7823 29.4504 22.8124 29.4504 22.8245ZM29.2444 23.8302C28.8761 23.4568 28.67 23.0112 28.7075 22.7341V22.7221C28.7574 22.3788 29.0758 22.1439 29.5628 22.0295C29.9312 21.9452 30.4182 21.9271 30.9364 21.9933C30.9426 21.9933 30.9488 21.9933 30.9551 21.9933C31.4795 22.0656 31.9478 22.2101 32.2787 22.3908C32.7157 22.6257 32.9592 22.9449 32.9092 23.2822C32.8718 23.5472 32.5908 23.9326 32.1725 24.2036C31.7792 24.4626 31.2423 24.6493 30.6616 24.571H30.6554C30.081 24.4987 29.5878 24.1795 29.2444 23.8302Z" fill="white"/>
<path d="M58.0698 22.0489C58.1198 22.4042 57.3893 23.3618 56.4403 23.4883C55.4851 23.6148 54.6735 22.868 54.6235 22.5126C54.5736 22.1573 55.304 21.7598 56.2593 21.6333C57.202 21.5069 58.0136 21.6936 58.0698 22.0489Z" fill="white"/>
<path d="M58.2495 22.019C58.2807 22.2479 58.0934 22.6394 57.7625 22.9766C57.4441 23.3019 56.9821 23.597 56.4577 23.6632H56.4514C55.927 23.7295 55.44 23.5608 55.0779 23.3259C54.7033 23.085 54.4598 22.7538 54.4223 22.531C54.3849 22.272 54.5909 22.019 54.9593 21.8203C55.2714 21.6517 55.7147 21.5131 56.2142 21.4469C56.7136 21.3806 57.1819 21.3987 57.5315 21.477C57.9436 21.5673 58.212 21.754 58.2495 22.019ZM57.4878 22.7237C57.7438 22.4647 57.8936 22.1997 57.8749 22.0672C57.8624 21.9709 57.7001 21.8865 57.4503 21.8263C57.1444 21.754 56.7261 21.742 56.2704 21.8022C55.8208 21.8624 55.4213 21.9889 55.1466 22.1335C54.9218 22.2539 54.7907 22.3804 54.8032 22.4768C54.8219 22.6093 55.0092 22.8321 55.2964 23.0188C55.5898 23.2115 55.9894 23.35 56.414 23.2958H56.4202C56.8385 23.2416 57.2193 22.9947 57.4878 22.7237Z" fill="white"/>
<path d="M60.3411 19.6222C60.3099 19.02 60.7906 18.5081 61.415 18.4779C62.0393 18.4478 62.57 18.9116 62.6012 19.5138C62.6948 21.2002 62.4826 22.5372 62.2578 23.9405C62.0892 24.9884 61.9144 26.0845 61.877 27.3071C61.8395 28.4695 61.9956 29.7583 62.1642 31.0833C62.6012 34.5704 63.0632 38.3044 60.3786 42.1649C60.0289 42.6648 59.3297 42.7973 58.8115 42.466C58.2933 42.1287 58.1559 41.4542 58.4993 40.9543C60.7095 37.7684 60.2974 34.4499 59.9103 31.3422C59.7355 29.957 59.5669 28.608 59.6169 27.2469C59.6606 25.8376 59.8416 24.7114 60.0165 23.6213C60.2287 22.3083 60.4223 21.0677 60.3411 19.6222Z" fill="white"/>
</g>
</g>
<defs>
<clipPath id="clip0_24391_46486">
<rect width="74" height="74" fill="white"/>
</clipPath>
<clipPath id="clip1_24391_46486">
<rect width="74" height="74" fill="white"/>
</clipPath>
</defs>
</svg>
