<svg width="50" height="50" viewBox="0 0 50 50" fill="none" xmlns="http://www.w3.org/2000/svg">
<g clip-path="url(#clip0_24290_67482)">
<path d="M35.2998 41.7646C30.7639 44.2154 24.8038 43.6484 20.7852 39.6299C15.9854 34.8301 15.9836 27.0585 20.7852 22.2549C26.261 16.779 35.3348 17.6853 39.6484 24.0537V13.7656H26.9531C26.4141 13.7656 25.9766 13.3281 25.9766 12.7891V0.09375H5.46875C3.31445 0.09375 1.5625 1.8457 1.5625 4V46.0039C1.5625 48.1582 3.31445 49.9102 5.46875 49.9102H35.7422C37.3066 49.9102 38.6582 48.9863 39.2813 47.6562L36.0889 44.4639C35.3574 43.7324 35.0947 42.708 35.2998 41.7646ZM6.44531 4.97656C6.44531 4.4375 6.88281 4 7.42188 4H22.0703C22.6094 4 23.0469 4.4375 23.0469 4.97656V11.8125C23.0469 12.3516 22.6094 12.7891 22.0703 12.7891H7.42188C6.88281 12.7891 6.44531 12.3516 6.44531 11.8125V4.97656ZM6.44531 20.6133H11.3281C11.8672 20.6133 12.3047 21.0508 12.3047 21.5898C12.3047 22.1299 11.8672 22.5664 11.3281 22.5664H6.44531C5.90625 22.5664 5.46875 22.1299 5.46875 21.5898C5.46875 21.0508 5.90625 20.6133 6.44531 20.6133ZM6.44531 24.5195H15.2344C15.7734 24.5195 16.2109 24.957 16.2109 25.4961C16.2109 26.0352 15.7734 26.4727 15.2344 26.4727H6.44531C5.90625 26.4727 5.46875 26.0352 5.46875 25.4961C5.46875 24.957 5.90625 24.5195 6.44531 24.5195ZM6.44531 28.4258H14.2578C14.7969 28.4258 15.2344 28.8633 15.2344 29.4023C15.2344 29.9414 14.7969 30.3789 14.2578 30.3789H6.44531C5.90625 30.3789 5.46875 29.9414 5.46875 29.4023C5.46875 28.8633 5.90625 28.4258 6.44531 28.4258ZM6.44531 32.332H12.3047C12.8438 32.332 13.2813 32.7695 13.2813 33.3086C13.2813 33.8477 12.8438 34.2852 12.3047 34.2852H6.44531C5.90625 34.2852 5.46875 33.8477 5.46875 33.3086C5.46875 32.7695 5.90625 32.332 6.44531 32.332ZM6.44531 36.2627H15.2344C15.7734 36.2627 16.2109 36.7002 16.2109 37.2393C16.2109 37.7783 15.7734 38.2158 15.2344 38.2158H6.44531C5.90625 38.2158 5.46875 37.7783 5.46875 37.2393C5.46875 36.7002 5.90625 36.2627 6.44531 36.2627ZM6.44531 40.1689H17.1875C17.7266 40.1689 18.1641 40.6064 18.1641 41.1455C18.1641 41.6846 17.7266 42.1221 17.1875 42.1221H6.44531C5.90625 42.1221 5.46875 41.6846 5.46875 41.1455C5.46875 40.6064 5.90625 40.1689 6.44531 40.1689ZM26.9531 46.0283H6.44531C5.90625 46.0283 5.46875 45.5908 5.46875 45.0518C5.46875 44.5127 5.90625 44.0752 6.44531 44.0752H26.9531C27.4922 44.0752 27.9297 44.5127 27.9297 45.0518C27.9297 45.5908 27.4922 46.0283 26.9531 46.0283Z" fill="white"/>
<path d="M27.9297 0.664062V11.8107H39.0759L27.9297 0.664062Z" fill="white"/>
<path d="M8.39844 5.95312H21.0938V10.8359H8.39844V5.95312Z" fill="white"/>
<path d="M29.4734 25.4922C28.0158 25.4922 26.6473 26.058 25.6199 27.0854C23.4939 29.2113 23.4938 32.6664 25.6199 34.7925C27.7449 36.9174 31.2023 36.9174 33.3271 34.7925C34.3546 33.765 34.9203 32.3966 34.9203 30.939C34.9203 27.9235 32.4899 25.4922 29.4734 25.4922Z" fill="white"/>
<path d="M47.5835 44.9086L41.6138 38.9389C41.2319 38.558 40.6138 38.558 40.2319 38.9389L39.5415 39.6293C39.1505 39.2387 37.4951 37.5808 37.4358 37.527C40.8007 33.4677 40.5823 27.4386 36.7796 23.6357C32.7444 19.6006 26.2021 19.6006 22.167 23.6357C18.1318 27.6709 18.1318 34.2132 22.167 38.2482C25.9698 42.0511 31.999 42.2693 36.0583 38.9044C36.1108 38.9622 37.5395 40.3882 38.1606 41.0101L37.4702 41.7005C37.0884 42.0823 37.0884 42.7005 37.4702 43.0823L43.4399 49.052C44.5814 50.1936 46.4411 50.1944 47.5835 49.052C48.1548 48.4808 48.4399 47.7308 48.4399 46.9798C48.4399 46.2299 48.1548 45.4799 47.5835 44.9086ZM24.2386 36.1768C21.3494 33.2874 21.3491 28.5968 24.2387 25.7074C27.1277 22.8183 31.8186 22.8181 34.708 25.7074C37.5973 28.5967 37.5975 33.2874 34.7081 36.1768C31.8216 39.0632 27.1251 39.0632 24.2386 36.1768Z" fill="white"/>
</g>
<defs>
<clipPath id="clip0_24290_67482">
<rect width="50" height="50" fill="white"/>
</clipPath>
</defs>
</svg>
