<svg width="50" height="50" viewBox="0 0 50 50" fill="none" xmlns="http://www.w3.org/2000/svg">
<g clip-path="url(#clip0_24290_67559)">
<path d="M26.4648 3.03125V29.3984H49.9023V3.03125H26.4648ZM42.5781 23.5391H39.6484V20.6094H36.7188V23.5391H33.7891V13.2852C33.7891 10.862 35.7604 8.89062 38.1836 8.89062C40.6067 8.89062 42.5781 10.862 42.5781 13.2852V23.5391Z" fill="white"/>
<path d="M12.2461 12.25C11.4384 12.25 10.7812 12.9071 10.7812 13.7148V19.5742C10.7812 20.3819 11.4384 21.0391 12.2461 21.0391C13.0538 21.0391 13.7109 20.3819 13.7109 19.5742V13.7148C13.7109 12.9071 13.0538 12.25 12.2461 12.25Z" fill="white"/>
<path d="M38.1836 11.8203C37.3759 11.8203 36.7188 12.4774 36.7188 13.2852V17.6797H39.6484V13.2852C39.6484 12.4774 38.9913 11.8203 38.1836 11.8203Z" fill="white"/>
<path d="M0.0976562 38.1875H20.6055C20.6055 41.4184 17.977 44.0469 14.7461 44.0469H11.8164V46.9766H38.1836V44.0469H35.2539C32.023 44.0469 29.3945 41.4184 29.3945 38.1875H46.9727H49.9023V32.3281H0.0976562V38.1875Z" fill="white"/>
<path d="M23.5352 3.03125H0.0976562V29.3984H23.5352V3.03125ZM17.069 25.0039L15.0332 22.9681C14.2741 23.5926 13.3028 23.9682 12.2454 23.9682C9.82227 23.9682 7.85088 21.9968 7.85088 19.5736V13.7143C7.85088 11.2911 9.82227 9.31973 12.2454 9.31973C14.6686 9.31973 16.6399 11.2911 16.6399 13.7143V19.5736C16.6399 19.8421 16.6145 20.1046 16.5681 20.3599L19.1406 22.9323L17.069 25.0039Z" fill="white"/>
</g>
<defs>
<clipPath id="clip0_24290_67559">
<rect width="50" height="50" fill="white"/>
</clipPath>
</defs>
</svg>
