<svg width="55" height="55" viewBox="0 0 55 55" fill="none" xmlns="http://www.w3.org/2000/svg">
<path d="M17.8251 24.7118C17.9417 25.1118 18.2501 25.4118 18.6417 25.5118C18.7417 25.5368 18.8334 25.5535 18.9334 25.5535C19.2334 25.5535 19.5251 25.4368 19.7501 25.2118C20.9251 24.0368 22.0084 23.2618 23.0417 22.8618C23.0834 22.9201 23.1167 22.9868 23.1584 23.0451C22.9584 23.1201 22.7667 23.2451 22.6084 23.4035C22.3167 23.7035 22.1501 24.0951 22.1501 24.5118C22.1501 25.3785 22.8584 26.0785 23.7251 26.0785H23.9001C23.8751 26.2618 23.8584 26.4451 23.8667 26.6368C23.8917 27.9118 25.3417 30.7118 26.5501 32.8368C26.7667 33.2118 27.1667 33.4451 27.6001 33.4451H27.6167C28.0584 33.4368 28.4584 33.1868 28.6667 32.7951C29.8084 30.6368 31.1667 27.7868 31.1417 26.5118C31.1417 26.3535 31.1167 26.1951 31.1001 26.0368C31.4584 25.9951 31.7917 25.8451 32.0334 25.5951C32.3334 25.3035 32.4917 24.9035 32.4917 24.4868C32.4917 23.8868 32.1501 23.3785 31.6584 23.1118C31.7417 22.9868 31.8084 22.8618 31.8834 22.7285C32.9167 23.1035 34.0084 23.8285 35.2001 24.9535C35.4167 25.1535 35.7001 25.2618 35.9834 25.2618C36.0917 25.2618 36.2001 25.2451 36.3084 25.2118C36.7001 25.0951 37.0001 24.7868 37.1084 24.3868C37.6917 22.1035 36.7501 17.9201 34.0667 16.4285C34.7251 11.3951 33.0334 6.18681 29.1501 2.43681L28.1584 1.47014C27.5501 0.88681 26.5834 0.91181 26.0084 1.51181L25.0417 2.50348C21.2917 6.37848 19.7834 11.6368 20.6167 16.6368C17.9751 18.2201 17.1667 22.4451 17.8251 24.7118ZM23.7251 25.0618C23.4167 25.0618 23.1667 24.8118 23.1667 24.5118C23.1667 24.3618 23.2251 24.2201 23.3251 24.1201C23.4334 24.0118 23.5751 23.9535 23.7167 23.9535L25.9334 23.9451V24.1368C25.9334 24.3118 25.9501 24.6535 25.9751 25.0618H23.7251ZM27.9584 23.4451C27.9667 23.6535 27.9751 23.8701 27.9834 24.0951C28.0167 25.8868 27.7334 27.0535 27.5251 27.4785C27.3001 27.0618 26.9834 25.9035 26.9501 24.1118C26.9501 23.8868 26.9501 23.6701 26.9501 23.4618C26.9501 23.4535 26.9584 23.4451 26.9584 23.4368C26.9584 23.4285 26.9584 23.4285 26.9584 23.4201C27.0001 22.0201 27.2334 21.0951 27.4167 20.7285C27.6167 21.0868 27.8751 22.0118 27.9584 23.4285V23.4368V23.4451ZM31.3251 24.8868C31.2251 24.9868 31.0834 25.0451 30.9417 25.0451H28.9917C29.0084 24.6118 29.0084 24.2535 29.0084 24.0785C29.0084 24.0368 29.0084 23.9868 29.0084 23.9368H30.9417C31.2501 23.9368 31.5001 24.1868 31.5001 24.4951C31.4917 24.6368 31.4334 24.7785 31.3251 24.8868ZM25.7917 3.22014L26.7584 2.22848C26.9584 2.02014 27.2751 2.02014 27.4751 2.21181L28.4667 3.17848C32.1584 6.75348 33.7334 11.7285 33.0501 16.5118V16.5201C33.0167 16.6035 33.0084 16.6868 33.0167 16.7701C32.6751 18.9201 31.8667 21.0201 30.5917 22.9368H28.9417C28.8167 21.5701 28.4667 19.6035 27.4167 19.6035C27.4084 19.6035 27.4084 19.6035 27.4001 19.6035C26.5834 19.6201 26.3001 20.7951 26.2084 21.1785C26.0917 21.6785 26.0084 22.2868 25.9667 22.9451H24.3167C22.9917 21.0951 22.1167 19.0368 21.7084 16.9201C21.7084 16.8701 21.7001 16.8285 21.6834 16.7785C20.7917 11.9951 22.2001 6.92848 25.7917 3.22014Z" fill="white"/>
<path d="M17.7165 14.7146L11.0915 14.7313C9.47487 14.7313 8.1582 16.0563 8.1582 17.6729L8.19987 38.9563C8.19987 40.5729 9.51654 41.8896 11.1332 41.8896H11.1415L37.0582 41.8396C37.0749 41.8396 37.0915 41.8562 37.1165 41.8562H37.1249C37.1499 41.8562 37.1749 41.8479 37.1999 41.8396L43.8415 41.8229C44.6249 41.8229 45.3582 41.5146 45.9165 40.9562C46.4665 40.3979 46.7749 39.6646 46.7749 38.8813L46.7249 17.5896C46.7249 16.8063 46.4165 16.0646 45.8582 15.5146C45.3082 14.9646 44.5665 14.6562 43.7832 14.6562C43.7832 14.6562 43.7832 14.6562 43.7749 14.6562L36.9249 14.6729C36.6415 14.6729 36.4165 14.8979 36.4165 15.1812C36.4165 15.4646 36.6415 15.6896 36.9249 15.6896L43.7749 15.6729C44.2832 15.6729 44.7665 15.8729 45.1332 16.2312C45.4999 16.5979 45.6999 17.0729 45.6999 17.5896L45.7415 38.8729C45.7415 39.3896 45.5415 39.8729 45.1832 40.2313C44.8165 40.5979 44.3415 40.7979 43.8249 40.7979L37.5915 40.8146C37.3749 39.2812 36.0582 38.0979 34.4665 38.0979C34.1999 38.1062 33.9499 38.1312 33.7082 38.1896C33.2499 37.2562 32.2832 36.6479 31.2165 36.6479H31.2082C31.0332 36.6479 30.8499 36.6646 30.6749 36.6979C30.0915 35.5229 28.8832 34.7646 27.5415 34.7646H27.5332C26.1249 34.7646 24.8665 35.6146 24.3249 36.8813C24.2082 36.8646 24.0999 36.8812 23.9749 36.8646C22.9415 36.8646 22.0082 37.3979 21.4749 38.2563C21.1915 38.1729 20.8915 38.1313 20.5915 38.1313C20.5915 38.1313 20.5915 38.1313 20.5832 38.1313C19.7415 38.1313 18.9499 38.4646 18.3499 39.0562C17.8582 39.5479 17.5499 40.1812 17.4582 40.8563L11.1249 40.8729C10.0665 40.8729 9.19987 40.0146 9.19987 38.9563L9.16654 17.6646C9.16654 16.6063 10.0249 15.7396 11.0832 15.7396L17.7082 15.7229C17.9915 15.7229 18.2165 15.4979 18.2165 15.2146C18.2165 14.9313 17.9915 14.6896 17.7165 14.7146Z" fill="white"/>
<path d="M53.9257 45.7115C53.9257 45.2781 53.759 44.8698 53.4506 44.5698C53.1423 44.2698 52.7423 44.1031 52.3173 44.1031C52.3173 44.1031 52.3173 44.1031 52.309 44.1031L50.109 44.1115L50.0507 15.4698C50.0423 13.1865 48.184 11.3281 45.9007 11.3281H45.8923L36.8256 11.3448C36.5423 11.3448 36.3173 11.5698 36.3173 11.8531C36.3173 12.1365 36.5423 12.3615 36.8256 12.3615L45.8923 12.3448H45.9007C47.6257 12.3448 49.034 13.7448 49.0423 15.4781L49.1007 44.1198L5.90065 44.2031L5.84232 15.5615C5.84232 13.8281 7.24232 12.4198 8.97565 12.4198L17.6756 12.4031C17.959 12.4031 18.184 12.1781 18.184 11.8948C18.184 11.6115 17.959 11.3865 17.6756 11.3865L8.97565 11.4031C6.68398 11.4115 4.82565 13.2781 4.83398 15.5615L4.89232 44.2031L2.69232 44.2115C1.80065 44.2115 1.08398 44.9365 1.08398 45.8281L1.09232 47.9198C1.10065 51.2531 3.80898 53.9531 7.14232 53.9531H7.15898L47.9173 53.8698C51.2507 53.8615 53.959 51.1448 53.9506 47.8115L53.9257 45.7115ZM8.43398 51.2615C8.42565 51.2615 8.42565 51.2615 8.43398 51.2615C7.22565 51.2615 6.24232 50.2781 6.24232 49.0781C6.24232 48.4948 6.46732 47.9448 6.88398 47.5281C7.30065 47.1115 7.85065 46.8865 8.43398 46.8865H8.44232C9.65065 46.8865 10.634 47.8698 10.634 49.0698C10.6173 50.2698 9.64232 51.2615 8.43398 51.2615ZM15.6007 50.6031C15.184 51.0198 14.634 51.2448 14.0507 51.2448C14.0507 51.2448 14.0507 51.2448 14.0423 51.2448C13.459 51.2448 12.909 51.0198 12.4923 50.6031C12.0757 50.1865 11.8507 49.6365 11.8507 49.0531C11.8507 48.4698 12.0757 47.9198 12.4923 47.5031C12.909 47.0865 13.459 46.8615 14.0423 46.8615H14.0507C14.634 46.8615 15.184 47.0865 15.5923 47.5031C16.009 47.9198 16.234 48.4615 16.234 49.0531C16.2423 49.6365 16.009 50.1865 15.6007 50.6031ZM21.2173 50.5948C20.8006 51.0115 20.2507 51.2365 19.6673 51.2365C19.6673 51.2365 19.6673 51.2365 19.659 51.2365C18.4507 51.2365 17.4673 50.2531 17.4673 49.0531C17.4673 48.4698 17.6923 47.9198 18.109 47.5031C18.5257 47.0865 19.0757 46.8615 19.659 46.8615H19.6673C20.2507 46.8615 20.8007 47.0865 21.209 47.5031C21.6257 47.9198 21.8507 48.4698 21.8507 49.0531C21.859 49.6281 21.634 50.1781 21.2173 50.5948Z" fill="white"/>
<path d="M27.208 8.17254C26.0497 8.18921 24.9663 8.65588 24.1663 9.48921C23.3663 10.3225 22.933 11.4142 22.9497 12.5725C22.9663 13.7309 23.4413 14.8142 24.2663 15.6142C25.083 16.4059 26.1497 16.8309 27.2747 16.8309H27.3497C28.508 16.8142 29.5913 16.3475 30.3913 15.5142C31.1997 14.6809 31.6247 13.5892 31.608 12.4309C31.5747 10.0392 29.6163 8.13088 27.208 8.17254ZM29.0913 14.2559C28.6247 14.7392 27.9913 15.0142 27.3247 15.0225C27.308 15.0225 27.2997 15.0225 27.283 15.0225C26.6247 15.0225 26.008 14.7725 25.533 14.3142C25.0497 13.8475 24.7747 13.2142 24.7663 12.5475C24.7413 11.1559 25.858 10.0142 27.2413 9.98921C27.908 9.99754 28.5497 10.2309 29.033 10.6975C29.5163 11.1642 29.7913 11.7975 29.7997 12.4642C29.808 13.1309 29.558 13.7642 29.0913 14.2559Z" fill="white"/>
</svg>
