<svg width="50" height="50" viewBox="0 0 50 50" fill="none" xmlns="http://www.w3.org/2000/svg">
<g clip-path="url(#clip0_24290_67602)">
<path d="M21.5234 45.1284C21.6034 45.427 21.4247 45.7368 21.1259 45.8169L8.88027 49.0981C8.58145 49.1782 8.27168 48.9992 8.1917 48.7007L7.58535 46.4374C7.50527 46.1387 7.68408 45.829 7.98291 45.7489L20.2285 42.4677C20.5273 42.3876 20.837 42.5664 20.9171 42.8651L21.5234 45.1284ZM42.018 45.7488L29.7724 42.4676C29.4735 42.3875 29.1639 42.5663 29.0838 42.865L28.4773 45.1283C28.3974 45.4269 28.5761 45.7367 28.8749 45.8168L41.1205 49.098C41.4193 49.1781 41.7291 48.9991 41.8091 48.7006L42.4154 46.4373C42.4956 46.1387 42.3168 45.8289 42.018 45.7488ZM45.0731 14.8941C43.6693 14.8939 42.5206 16.0427 42.5206 17.4466L42.5204 26.547C42.9229 26.7228 43.2987 26.9752 43.6251 27.3041C44.3233 28.008 44.6702 28.933 44.6666 29.8563C44.663 30.7797 44.3092 31.7016 43.6063 32.399L39.8681 36.1079C39.563 36.4112 39.0697 36.41 38.7663 36.1049C38.463 35.7998 38.4644 35.3065 38.7693 35.0032L42.5075 31.2943C42.907 30.8979 43.1081 30.3744 43.1102 29.8503C43.1125 29.2528 42.8803 28.7637 42.4684 28.349C41.3761 27.248 39.5761 27.2409 38.475 28.3332L31.477 35.2764C30.573 36.1733 30.3927 37.4316 30.5577 38.6944L30.8781 41.1464L41.0239 43.8649C41.0826 42.6474 41.5089 41.5717 42.465 40.5432L46.2709 36.4493C47.1376 35.5172 47.6254 34.4523 47.6254 33.1793L47.6256 17.4467C47.6258 16.0428 46.4772 14.8943 45.0731 14.8941ZM27.5585 11.7271V15.7938L25.0004 17.2707L22.4423 15.7938V11.7271C21.0416 12.5879 20.1074 14.1341 20.1074 15.8986C20.1074 17.9808 21.408 19.7588 23.2409 20.4654V23.3515C23.8059 23.4843 24.3948 23.5547 25.0002 23.5547C25.6058 23.5547 26.1947 23.4843 26.7598 23.3515V20.4654C28.5927 19.7588 29.8933 17.9808 29.8933 15.8987C29.8934 14.1341 28.9592 12.5879 27.5585 11.7271ZM32.0712 26.5149C30.7115 27.4225 29.1676 28.0753 27.5075 28.4063V30.9223H22.4934V28.4063C20.8332 28.0754 19.2895 27.4222 17.9297 26.5148L16.1498 28.2947L12.6043 24.7491L14.3842 22.9692C13.4767 21.6096 12.8237 20.0656 12.4927 18.4057H9.97676V13.3916H12.4927C12.8236 11.7314 13.4768 10.1877 14.3842 8.82783L12.6044 7.04805L16.15 3.50254L17.9297 5.28223C19.2894 4.37471 20.8334 3.72178 22.4935 3.39072V0.875H27.5076V3.39072C29.1678 3.72168 30.7115 4.3748 32.0714 5.28223L33.8512 3.50244L37.3967 7.04805L35.617 8.82773C36.5245 10.1875 37.1774 11.7314 37.5085 13.3916H40.0242V18.4058H37.5085C37.1775 20.0659 36.5243 21.6097 35.6169 22.9695L37.3967 24.7493L33.8511 28.2948L32.0712 26.5149ZM31.5188 22.4171C33.1871 20.7488 34.2189 18.4441 34.2189 15.8986C34.2189 13.3531 33.1871 11.0484 31.5188 9.38018C29.8506 7.71191 27.5459 6.68008 25.0004 6.68008C22.4549 6.68008 20.1502 7.71191 18.4819 9.38018C16.8137 11.0483 15.7818 13.353 15.7818 15.8986C15.7818 18.4441 16.8137 20.7488 18.4819 22.4171C20.1502 24.0853 22.4549 25.1172 25.0004 25.1172C27.5459 25.1172 29.8506 24.0854 31.5188 22.4171ZM19.1226 41.1464L19.443 38.6944C19.608 37.4316 19.4278 36.1733 18.5237 35.2764L11.5257 28.3332C10.4247 27.2409 8.62461 27.248 7.53232 28.349C7.12031 28.7637 6.88818 29.2528 6.89053 29.8503C6.89258 30.3744 7.09365 30.8979 7.49316 31.2943L11.2313 35.0032C11.5364 35.3065 11.5378 35.7999 11.2344 36.1049C10.931 36.41 10.4377 36.4113 10.1326 36.1079L6.39443 32.399C5.6915 31.7016 5.3377 30.7797 5.33408 29.8563C5.33047 28.9331 5.67734 28.008 6.37559 27.3041C6.70195 26.9751 7.07793 26.7227 7.48027 26.547L7.48008 17.4466C7.48008 16.0428 6.33135 14.8939 4.92754 14.8941C3.52354 14.8943 2.375 16.0427 2.375 17.4466L2.3752 33.1792C2.3752 34.4522 2.86299 35.5171 3.72969 36.4492L7.53555 40.5431C8.4917 41.5716 8.91797 42.6473 8.97666 43.8648L19.1226 41.1464Z" fill="white"/>
</g>
<defs>
<clipPath id="clip0_24290_67602">
<rect width="50" height="50" fill="white"/>
</clipPath>
</defs>
</svg>
