<svg width="50" height="50" viewBox="0 0 50 50" fill="none" xmlns="http://www.w3.org/2000/svg">
<path d="M43.75 1.5625H6.25C5.0068 1.5625 3.81451 2.05636 2.93544 2.93544C2.05636 3.81451 1.5625 5.0068 1.5625 6.25V10.9375H48.4375V6.25C48.4375 5.0068 47.9436 3.81451 47.0646 2.93544C46.1855 2.05636 44.9932 1.5625 43.75 1.5625ZM34.375 7.8125H33.5938C33.1793 7.8125 32.7819 7.64788 32.4889 7.35485C32.1959 7.06183 32.0312 6.6644 32.0312 6.25C32.0312 5.8356 32.1959 5.43817 32.4889 5.14515C32.7819 4.85212 33.1793 4.6875 33.5938 4.6875H34.375C34.7894 4.6875 35.1868 4.85212 35.4799 5.14515C35.7729 5.43817 35.9375 5.8356 35.9375 6.25C35.9375 6.6644 35.7729 7.06183 35.4799 7.35485C35.1868 7.64788 34.7894 7.8125 34.375 7.8125ZM40.625 7.8125H39.8438C39.4293 7.8125 39.0319 7.64788 38.7389 7.35485C38.4459 7.06183 38.2812 6.6644 38.2812 6.25C38.2812 5.8356 38.4459 5.43817 38.7389 5.14515C39.0319 4.85212 39.4293 4.6875 39.8438 4.6875H40.625C41.0394 4.6875 41.4368 4.85212 41.7299 5.14515C42.0229 5.43817 42.1875 5.8356 42.1875 6.25C42.1875 6.6644 42.0229 7.06183 41.7299 7.35485C41.4368 7.64788 41.0394 7.8125 40.625 7.8125Z" fill="white"/>
<path d="M1.5625 43.75C1.5625 44.9932 2.05636 46.1855 2.93544 47.0646C3.81451 47.9436 5.0068 48.4375 6.25 48.4375H43.75C44.9932 48.4375 46.1855 47.9436 47.0646 47.0646C47.9436 46.1855 48.4375 44.9932 48.4375 43.75V14.0625H1.5625V43.75ZM33.2656 26.1094C32.9714 25.8151 32.8061 25.4161 32.8061 25C32.8061 24.5839 32.9714 24.1848 33.2656 23.8906C33.5599 23.5964 33.9589 23.4311 34.375 23.4311C34.7911 23.4311 35.1901 23.5964 35.4844 23.8906L41.7344 30.1406C41.8808 30.2859 41.9971 30.4587 42.0764 30.6491C42.1557 30.8395 42.1966 31.0437 42.1966 31.25C42.1966 31.4563 42.1557 31.6605 42.0764 31.8509C41.9971 32.0413 41.8808 32.2141 41.7344 32.3594L35.4844 38.6094C35.3391 38.7558 35.1663 38.8721 34.9759 38.9514C34.7855 39.0307 34.5813 39.0716 34.375 39.0716C34.1687 39.0716 33.9645 39.0307 33.7741 38.9514C33.5837 38.8721 33.4109 38.7558 33.2656 38.6094C33.1192 38.4641 33.0029 38.2913 32.9236 38.1009C32.8443 37.9105 32.8034 37.7063 32.8034 37.5C32.8034 37.2937 32.8443 37.0895 32.9236 36.8991C33.0029 36.7087 33.1192 36.5359 33.2656 36.3906L38.4219 31.25L33.2656 26.1094ZM20.3906 40.1719L26.6406 21.4219C26.7063 21.2269 26.8097 21.0469 26.945 20.8919C27.0802 20.7369 27.2447 20.6101 27.4289 20.5187C27.6132 20.4273 27.8137 20.3731 28.0189 20.3591C28.2241 20.3452 28.4301 20.3718 28.625 20.4375C28.8199 20.5032 29 20.6066 29.155 20.7418C29.31 20.8771 29.4368 21.0415 29.5282 21.2258C29.6196 21.4101 29.6738 21.6105 29.6877 21.8158C29.7017 22.021 29.675 22.2269 29.6094 22.4219L23.3594 41.1719C23.2467 41.4735 23.0437 41.7329 22.778 41.9147C22.5123 42.0965 22.1969 42.1918 21.875 42.1875C21.7057 42.1833 21.5376 42.157 21.375 42.1094C21.1798 42.0441 20.9994 41.941 20.8441 41.8058C20.6889 41.6707 20.5619 41.5062 20.4704 41.3218C20.3789 41.1374 20.3248 40.9367 20.3111 40.7313C20.2974 40.526 20.3244 40.3199 20.3906 40.125V40.1719ZM8.26562 30.1406L14.5156 23.8906C14.6613 23.7449 14.8343 23.6294 15.0246 23.5505C15.215 23.4717 15.419 23.4311 15.625 23.4311C15.831 23.4311 16.035 23.4717 16.2254 23.5505C16.4157 23.6294 16.5887 23.7449 16.7344 23.8906C16.8801 24.0363 16.9956 24.2093 17.0745 24.3996C17.1533 24.59 17.1939 24.794 17.1939 25C17.1939 25.206 17.1533 25.41 17.0745 25.6004C16.9956 25.7907 16.8801 25.9637 16.7344 26.1094L11.5781 31.25L16.7344 36.3906C16.8808 36.5359 16.9971 36.7087 17.0764 36.8991C17.1557 37.0895 17.1966 37.2937 17.1966 37.5C17.1966 37.7063 17.1557 37.9105 17.0764 38.1009C16.9971 38.2913 16.8808 38.4641 16.7344 38.6094C16.5891 38.7558 16.4163 38.8721 16.2259 38.9514C16.0355 39.0307 15.8313 39.0716 15.625 39.0716C15.4187 39.0716 15.2145 39.0307 15.0241 38.9514C14.8337 38.8721 14.6609 38.7558 14.5156 38.6094L8.26562 32.3594C8.11917 32.2141 8.00293 32.0413 7.92361 31.8509C7.84428 31.6605 7.80344 31.4563 7.80344 31.25C7.80344 31.0437 7.84428 30.8395 7.92361 30.6491C8.00293 30.4587 8.11917 30.2859 8.26562 30.1406Z" fill="white"/>
</svg>
