<svg width="74" height="74" viewBox="0 0 74 74" fill="none" xmlns="http://www.w3.org/2000/svg">
<g clip-path="url(#clip0_24365_47407)">
<path d="M72.9135 37.2185C72.9135 32.4263 66.8648 27.8848 57.5907 25.0684C59.7309 15.6904 58.7798 8.22925 54.5885 5.84049C53.6224 5.28016 52.4931 5.01474 51.2595 5.01474V8.30297C51.9431 8.30297 52.4931 8.43569 52.9537 8.68634C54.9749 9.83647 55.852 14.2159 55.168 19.8486C55.0049 21.2346 54.7373 22.6944 54.4103 24.1837C51.4971 23.4759 48.3167 22.9304 44.9728 22.5765C42.9665 19.8486 40.8858 17.3713 38.7901 15.2038C43.6351 10.7359 48.1831 8.2882 51.2744 8.2882V5C47.1871 5 41.8369 7.8901 36.4272 12.9035C31.0172 7.91958 25.667 5.05899 21.5799 5.05899V8.34719C24.6563 8.34719 29.2189 10.7802 34.064 15.2185C31.9833 17.3861 29.9025 19.8486 27.9258 22.5765C24.5669 22.9304 21.3865 23.4759 18.4736 24.1984C18.1317 22.7239 17.8791 21.2936 17.7006 19.9223C17.0024 14.2896 17.8642 9.9102 19.8708 8.74533C20.3164 8.4799 20.896 8.36196 21.5799 8.36196V5.07373C20.3314 5.07373 19.2018 5.33915 18.2211 5.89948C14.0447 8.2882 13.1085 15.7346 15.2633 25.0832C6.01916 27.9143 0 32.4412 0 37.2185C0 42.011 6.04886 46.5525 15.3228 49.3687C13.1826 58.7469 14.1337 66.2078 18.3251 68.5966C19.2912 69.1568 20.4204 69.4223 21.669 69.4223C25.756 69.4223 31.1066 66.5323 36.5163 61.5189C41.926 66.5029 47.2765 69.3636 51.3635 69.3636C52.6117 69.3636 53.7413 69.0982 54.7224 68.5376C58.8985 66.1488 59.835 58.7024 57.6798 49.3542C66.8944 46.5377 72.9135 41.9961 72.9135 37.2185ZM53.5632 27.3834C53.0132 29.2857 52.3296 31.2466 51.5566 33.2078C50.9474 32.0283 50.3083 30.8486 49.6098 29.6689C48.9262 28.4894 48.1977 27.3392 47.4696 26.2186C49.5799 26.5282 51.6161 26.9116 53.5632 27.3834ZM46.7561 43.0872C45.5969 45.078 44.4081 46.9653 43.1745 48.7201C40.9599 48.9117 38.716 49.0149 36.4568 49.0149C34.2125 49.0149 31.9683 48.9117 29.7689 48.7346C28.5353 46.9799 27.3313 45.1074 26.1721 43.1314C25.0425 41.1999 24.0173 39.2387 23.0808 37.263C24.0023 35.287 25.0425 33.311 26.1575 31.3795C27.3167 29.3889 28.5054 27.5014 29.739 25.7467C31.9537 25.555 34.1976 25.4518 36.4568 25.4518C38.701 25.4518 40.9452 25.555 43.1446 25.732C44.3782 27.4867 45.5823 29.3593 46.7414 31.3353C47.871 33.2668 48.8963 35.228 49.8328 37.204C48.8963 39.1796 47.871 41.1557 46.7561 43.0872ZM51.5566 41.1705C52.3368 43.0921 53.0213 45.0506 53.6077 47.0389C51.6606 47.5107 49.6098 47.909 47.4845 48.2186C48.2127 47.0834 48.9408 45.9185 49.6247 44.7239C50.3083 43.5445 50.9474 42.3499 51.5566 41.1705ZM36.4863 56.9038C35.1042 55.488 33.722 53.9102 32.3548 52.1851C33.6924 52.2442 35.0597 52.2883 36.4418 52.2883C37.8389 52.2883 39.2211 52.259 40.5737 52.1851C39.2979 53.8299 37.9335 55.4051 36.4863 56.9038ZM25.429 48.2186C23.3187 47.909 21.2825 47.5255 19.3357 47.0537C19.8854 45.1516 20.5693 43.1904 21.342 41.2292C21.9515 42.4089 22.5906 43.5887 23.2888 44.7681C23.9874 45.9478 24.7009 47.0979 25.429 48.2186ZM36.4122 17.5336C37.7944 18.9491 39.1766 20.5269 40.5438 22.2521C39.2062 22.1931 37.8389 22.1489 36.4568 22.1489C35.0597 22.1489 33.6775 22.1783 32.3252 22.2521C33.6009 20.6073 34.9652 19.0322 36.4122 17.5336ZM25.4141 26.2186C24.6859 27.354 23.9578 28.5188 23.2742 29.713C22.5906 30.8928 21.9515 32.0725 21.342 33.2519C20.5618 31.3303 19.8773 29.3718 19.2912 27.3834C21.238 26.9263 23.2888 26.5282 25.4141 26.2186ZM11.9639 44.6797C6.70283 42.4531 3.29939 39.5338 3.29939 37.2185C3.29939 34.9035 6.70283 31.9693 11.9639 29.7576C13.2421 29.2119 14.6392 28.7253 16.0809 28.2682C16.928 31.1582 18.0426 34.1663 19.4248 37.2481C18.0576 40.3152 16.9575 43.3084 16.1254 46.1839C14.6542 45.7266 13.257 45.2254 11.9639 44.6797ZM19.9598 65.7508C17.9386 64.6008 17.0616 60.2214 17.7455 54.5885C17.909 53.2027 18.1762 51.7427 18.5032 50.2533C21.4164 50.9612 24.5969 51.5069 27.9408 51.8607C29.9471 54.5885 32.0278 57.0657 34.1235 59.2332C29.2784 63.7013 24.7305 66.1488 21.6391 66.1488C20.9705 66.1343 20.4058 66.0014 19.9598 65.7508ZM55.2129 54.515C55.9111 60.1476 55.0494 64.5269 53.0428 65.6918C52.5971 65.9572 52.0175 66.0753 51.3336 66.0753C48.2572 66.0753 43.6946 63.6423 38.8496 59.2039C40.9303 57.0363 43.011 54.574 44.9877 51.8459C48.3466 51.4921 51.527 50.9464 54.4399 50.224C54.7819 51.7133 55.0494 53.1436 55.2129 54.515ZM60.9347 44.6797C59.6565 45.2254 58.2594 45.7121 56.8177 46.1691C55.9706 43.2791 54.856 40.271 53.4738 37.1891C54.8414 34.1221 55.941 31.1289 56.7732 28.2534C58.2448 28.7105 59.6415 29.2119 60.9496 29.7576C66.2107 31.9838 69.6142 34.9035 69.6142 37.2185C69.5992 39.5338 66.1958 42.468 60.9347 44.6797Z" fill="#61DAFB"/>
<path d="M36.4423 43.9539C40.1936 43.9539 43.2344 40.9369 43.2344 37.2151C43.2344 33.4935 40.1936 30.4766 36.4423 30.4766C32.6912 30.4766 29.6504 33.4935 29.6504 37.2151C29.6504 40.9369 32.6912 43.9539 36.4423 43.9539Z" fill="#61DAFB"/>
</g>
<defs>
<clipPath id="clip0_24365_47407">
<rect width="74" height="74" fill="white"/>
</clipPath>
</defs>
</svg>
