<svg width="74" height="74" viewBox="0 0 74 74" fill="none" xmlns="http://www.w3.org/2000/svg">
<g clip-path="url(#clip0_24365_47454)">
<path d="M58.6937 25.0748C57.9716 24.8263 57.2233 24.5911 56.4528 24.3687C56.5794 23.8518 56.6957 23.3417 56.799 22.8402C58.4954 14.6059 57.3862 7.97226 53.5989 5.78819C49.9672 3.69395 44.028 5.87753 38.0297 11.0977C37.4529 11.5997 36.8744 12.1311 36.2963 12.6881C35.911 12.3196 35.5264 11.9635 35.1428 11.6228C28.8563 6.04109 22.5552 3.68887 18.7715 5.87926C15.1434 7.97957 14.0689 14.2158 15.5959 22.0195C15.7433 22.7733 15.9157 23.543 16.1106 24.3257C15.2188 24.5788 14.3579 24.8487 13.5341 25.1358C6.16395 27.7054 1.45703 31.7325 1.45703 35.9097C1.45703 40.224 6.50992 44.5512 14.1865 47.1751C14.7923 47.3821 15.4209 47.5779 16.0687 47.7638C15.8585 48.6102 15.6756 49.4397 15.522 50.2487C14.0661 57.917 15.2031 64.0059 18.8216 66.093C22.5591 68.2483 28.8318 66.0329 34.9398 60.6937C35.4226 60.2717 35.9071 59.8241 36.3924 59.355C37.0215 59.9608 37.6496 60.5341 38.2744 61.0719C44.1907 66.1631 50.034 68.2189 53.6492 66.126C57.383 63.9645 58.5965 57.4236 57.0211 49.4654C56.9007 48.8577 56.7607 48.2367 56.6035 47.6048C57.044 47.4745 57.4764 47.3401 57.8981 47.2003C65.8787 44.5562 71.0711 40.2816 71.0711 35.9097C71.0711 31.7174 66.2124 27.6631 58.6937 25.0748ZM56.9628 44.3775C56.5822 44.5035 56.1916 44.6253 55.7936 44.7434C54.9126 41.9543 53.7235 38.9884 52.2684 35.9242C53.657 32.933 54.8001 30.0051 55.6564 27.234C56.3685 27.4401 57.0597 27.6574 57.7257 27.8868C64.1677 30.1044 68.0972 33.3833 68.0972 35.9097C68.0972 38.6008 63.8534 42.0943 56.9628 44.3775ZM54.1037 50.043C54.8003 53.562 54.8998 56.7435 54.4384 59.2307C54.0237 61.4656 53.1899 62.9556 52.159 63.5524C49.9651 64.8222 45.2736 63.1716 40.2139 58.8176C39.6338 58.3185 39.0496 57.7855 38.4635 57.2215C40.425 55.0762 42.3854 52.5822 44.2988 49.8124C47.6641 49.5138 50.8435 49.0256 53.7269 48.359C53.8689 48.9319 53.995 49.4937 54.1037 50.043ZM25.19 63.3329C23.0466 64.0899 21.3395 64.1116 20.3075 63.5166C18.1117 62.2501 17.1988 57.3612 18.444 50.8033C18.5866 50.0523 18.7564 49.2808 18.952 48.4922C21.8038 49.1228 24.9599 49.5766 28.3333 49.8501C30.2595 52.5604 32.2766 55.0516 34.3092 57.233C33.8651 57.6617 33.4227 58.0699 32.9829 58.4545C30.2819 60.8154 27.5753 62.4905 25.19 63.3329ZM15.1483 44.361C11.7539 43.2008 8.95061 41.6929 7.02911 40.0475C5.30252 38.5689 4.4308 37.1009 4.4308 35.9097C4.4308 33.3748 8.20999 30.1416 14.513 27.944C15.2778 27.6774 16.0784 27.4261 16.9092 27.19C17.7803 30.0236 18.9231 32.9863 20.3021 35.9821C18.9052 39.0224 17.7463 42.0322 16.8666 44.899C16.2743 44.7288 15.7005 44.5496 15.1483 44.361ZM18.5144 21.4484C17.2061 14.7624 18.075 9.71868 20.2614 8.45304C22.5904 7.10475 27.7403 9.02712 33.1681 13.8467C33.5151 14.1547 33.8634 14.4771 34.2127 14.8107C32.1901 16.9825 30.1915 19.4551 28.2824 22.1494C25.0084 22.4529 21.8744 22.9403 18.9929 23.5931C18.8118 22.8644 18.6513 22.1484 18.5144 21.4484ZM48.5427 28.8632C47.8539 27.6734 47.1467 26.5117 46.4258 25.3818C48.647 25.6626 50.775 26.0353 52.7735 26.4914C52.1735 28.4143 51.4257 30.4248 50.5454 32.4858C49.914 31.2869 49.2461 30.0782 48.5427 28.8632ZM36.2973 16.9361C37.669 18.4221 39.0427 20.0813 40.3938 21.8815C39.0322 21.8172 37.6538 21.7837 36.264 21.7837C34.8874 21.7837 33.5191 21.8165 32.166 21.8797C33.5185 20.0962 34.9041 18.4392 36.2973 16.9361ZM23.9733 28.8838C23.2853 30.0769 22.6298 31.2791 22.0082 32.4835C21.1422 30.4297 20.4013 28.4101 19.7961 26.4599C21.7823 26.0155 23.9004 25.652 26.1074 25.3766C25.3763 26.5169 24.6633 27.6874 23.9733 28.8838ZM26.1709 46.655C23.8907 46.4006 21.7408 46.0559 19.7551 45.6237C20.37 43.6387 21.1272 41.576 22.0116 39.4779C22.6347 40.6814 23.2928 41.8841 23.9851 43.0799C24.6903 44.2981 25.421 45.4913 26.1709 46.655ZM36.3795 55.093C34.97 53.5723 33.5641 51.89 32.1911 50.0805C33.524 50.1328 34.8829 50.1596 36.264 50.1596C37.683 50.1596 39.0856 50.1276 40.4663 50.0662C39.1107 51.9082 37.742 53.5931 36.3795 55.093ZM50.5738 39.371C51.5042 41.4917 52.2886 43.5437 52.9114 45.4948C50.893 45.9553 48.7137 46.3261 46.4177 46.6017C47.1403 45.4565 47.8537 44.2749 48.5546 43.0594C49.2638 41.8297 49.9371 40.5982 50.5738 39.371ZM45.9786 41.5737C44.8904 43.4605 43.7732 45.2617 42.6391 46.9619C40.5733 47.1096 38.4392 47.1857 36.264 47.1857C34.0977 47.1857 31.9904 47.1184 29.9613 46.9867C28.7814 45.2642 27.6399 43.4577 26.5586 41.59C25.4802 39.7273 24.4879 37.8489 23.5886 35.9811C24.4877 34.1089 25.4776 32.2284 26.5498 30.3691L26.5496 30.3695C27.6247 28.5052 28.7561 26.7075 29.9251 24.9958C31.9954 24.8393 34.1184 24.7576 36.2639 24.7576C38.4191 24.7576 40.545 24.8399 42.6147 24.9978C43.7658 26.697 44.8896 28.4889 45.9688 30.3534C47.0604 32.2388 48.0631 34.1068 48.9699 35.9388C48.0658 37.8023 47.0653 39.6892 45.9786 41.5737ZM52.1134 8.36457C54.4446 9.70889 55.3511 15.1305 53.8864 22.24C53.793 22.6936 53.6878 23.1557 53.5736 23.624C50.6854 22.9576 47.5492 22.4617 44.2657 22.1536C42.3528 19.4297 40.3706 16.9533 38.381 14.8094C38.9159 14.2947 39.4501 13.8041 39.982 13.341C45.1214 8.86839 49.9249 7.10252 52.1134 8.36457ZM36.264 29.6934C39.6972 29.6934 42.4803 32.4765 42.4803 35.9097C42.4803 39.3428 39.6972 42.126 36.264 42.126C32.8309 42.126 30.0478 39.3428 30.0478 35.9097C30.0478 32.4765 32.8309 29.6934 36.264 29.6934Z" fill="#257BC2"/>
</g>
<defs>
<clipPath id="clip0_24365_47454">
<rect width="74" height="74" fill="white"/>
</clipPath>
</defs>
</svg>
