<svg width="74" height="74" viewBox="0 0 74 74" fill="none" xmlns="http://www.w3.org/2000/svg">
<g clip-path="url(#clip0_24391_46504)">
<path d="M59.3994 19.0024C56.7668 20.3685 43.1288 25.9516 40.2253 27.4585C37.3219 28.9653 35.709 28.9506 33.4153 27.8595C31.1217 26.7678 16.6085 20.9306 13.9944 19.6868C11.3799 18.4431 11.3254 17.5865 13.8932 16.5852C16.4613 15.584 30.8949 9.94661 33.9455 8.85684C36.9957 7.76727 38.0538 7.72813 40.6496 8.67496C43.2456 9.62179 56.8022 14.9937 59.3674 15.9294C61.9335 16.8649 62.032 17.6364 59.3994 19.0024Z" fill="#C6302B"/>
<path d="M50.926 11.5897L46.6845 12.0281L45.735 14.3028L44.2014 11.7645L39.3037 11.3263L42.9583 10.0141L41.8618 8L45.2833 9.33228L48.5089 8.28088L47.637 10.3635L50.926 11.5897ZM45.4818 22.6251L37.5659 19.3564L48.9087 17.6229L45.4818 22.6251ZM34.507 12.8541C37.8554 12.8541 40.5697 13.9016 40.5697 15.1936C40.5697 16.486 37.8554 17.5333 34.507 17.5333C31.1587 17.5333 28.4444 16.4858 28.4444 15.1936C28.4444 13.9016 31.1587 12.8541 34.507 12.8541Z" fill="white"/>
<path d="M44.8889 8.00019L51.6021 10.6413L44.8947 13.28L44.8889 8.00019Z" fill="#621B1C"/>
<path d="M59.4005 27.0435C56.7677 28.4095 43.1293 33.9926 40.2258 35.5003C37.3223 37.0072 35.7093 36.9924 33.4155 35.9007C31.1217 34.8096 16.6082 28.972 13.9938 27.7284C12.6872 27.1062 12 26.5819 12 26.0865V21.1211C12 21.1211 30.8951 17.0262 33.9454 15.9369C36.9956 14.8471 38.054 14.808 40.6498 15.7546C43.2461 16.7014 58.768 19.489 61.3333 20.4247L61.3322 25.3194C61.3326 25.8096 60.7406 26.348 59.4005 27.0435Z" fill="#912626"/>
<path d="M44.8889 18.0047L52.3159 15.0798L52.3216 20.3596L51.5934 20.6432L44.8889 18.0047Z" fill="#9A2928"/>
<path d="M59.3995 33.1623C56.7669 34.5283 43.1289 40.1111 40.2254 41.6185C37.322 43.1254 35.7091 43.1106 33.4154 42.0189C31.1216 40.928 16.6086 35.0905 13.9943 33.8468C11.38 32.603 11.3253 31.7465 13.8933 30.745C16.4613 29.7441 30.895 24.1059 33.9456 23.0165C36.9958 21.9271 38.0539 21.8876 40.6497 22.8344C43.2457 23.7811 56.8023 29.153 59.3675 30.0887C61.9336 31.025 62.032 31.7962 59.3995 33.1623Z" fill="#C6302B"/>
<path d="M59.4005 41.2035C56.7677 42.5699 43.1293 48.1527 40.2258 49.6603C37.3223 51.167 35.7093 51.1524 33.4155 50.0607C31.1217 48.9696 16.6082 43.1323 13.9938 41.8881C12.6872 41.2664 12 40.7423 12 40.2463V35.2811C12 35.2811 30.8951 31.1861 33.9454 30.0965C36.9956 29.0069 38.054 28.9674 40.6498 29.9142C43.2461 30.8611 58.768 33.6486 61.3333 34.5843L61.3322 39.4792C61.3326 39.9698 60.7406 40.5082 59.4005 41.2035Z" fill="#912626"/>
<path d="M59.3995 47.322C56.7669 48.6877 43.1289 54.2708 40.2254 55.7777C37.322 57.2851 35.7091 57.2704 33.4154 56.1787C31.1216 55.0878 16.6086 49.25 13.9943 48.0066C11.38 46.7624 11.3253 45.9061 13.8933 44.905C16.4613 43.9035 30.8948 38.2656 33.9456 37.1761C36.9958 36.0869 38.0539 36.0472 40.6497 36.9942C43.2457 37.9408 56.8023 43.3131 59.3675 44.2484C61.9336 45.1849 62.032 45.956 59.3995 47.322Z" fill="#C6302B"/>
<path d="M59.4005 55.3632C56.7677 56.7295 43.1293 62.3124 40.2258 63.8195C37.3223 65.3267 35.7093 65.3122 33.4155 64.2205C31.1219 63.1288 16.6082 57.292 13.9938 56.0478C12.6872 55.4262 12 54.9012 12 54.4055V49.4409C12 49.4409 30.8951 45.3456 33.9454 44.2561C36.9956 43.1665 38.054 43.1272 40.6498 44.0738C43.2459 45.0208 58.7678 47.8089 61.3333 48.7445L61.3322 53.6388C61.3326 54.1296 60.7406 54.6679 59.4005 55.3632Z" fill="#912626"/>
</g>
<defs>
<clipPath id="clip0_24391_46504">
<rect width="74" height="74" fill="white"/>
</clipPath>
</defs>
</svg>
