<svg width="30" height="30" viewBox="0 0 30 30" fill="none" xmlns="http://www.w3.org/2000/svg">
<g clip-path="url(#clip0_26284_91954)">
<path d="M15.6416 13.5936C15.854 13.8053 15.864 14.1599 15.6642 14.386C15.4643 14.6112 15.1298 14.6217 14.9164 14.4099C14.6217 14.1148 14.3983 13.8465 14.2202 13.5534C14.0376 13.2544 13.9074 12.9411 13.8034 12.5636C13.7166 12.2493 13.6497 11.8517 13.5954 11.4119C13.5412 10.9692 13.5005 10.5074 13.468 10.057C13.468 10.0465 13.467 10.0369 13.4661 10.0264C13.411 9.3959 13.3477 8.89957 13.1868 8.46648C13.0303 8.04489 12.7672 7.65396 12.3016 7.20554C12.298 7.20171 12.2944 7.19883 12.2916 7.195L5.53124 0.983247C5.31063 0.781075 5.28621 0.427514 5.47699 0.193723C5.66777 -0.0400681 6.0014 -0.0659384 6.22202 0.136233L12.9833 6.34895C12.9933 6.35757 13.0041 6.36619 13.0141 6.37577C13.6108 6.94971 13.9562 7.47191 14.1732 8.05734C14.3784 8.61212 14.4544 9.19372 14.5186 9.92288C14.5213 9.93917 14.5231 9.95642 14.524 9.97271C14.5575 10.4326 14.5963 10.883 14.6434 11.2662C14.6913 11.6533 14.7473 11.9963 14.8179 12.2512C14.892 12.5205 14.9815 12.7389 15.1063 12.942C15.2347 13.1519 15.4065 13.3569 15.6416 13.5917M15.2871 19.5763C15.0882 19.3493 15.1 18.9947 15.3142 18.7839C15.5285 18.5732 15.8631 18.5856 16.062 18.8127L24.3341 28.2707C24.3423 28.2803 24.3504 28.2908 24.3585 28.3004C24.6994 28.7105 25.0873 28.8801 25.4598 28.8801C25.8468 28.8801 26.2283 28.7028 26.534 28.423L26.5385 28.4192C26.5457 28.4125 26.5538 28.4058 26.5611 28.3991L26.5629 28.3972C26.5701 28.3885 26.5783 28.3809 26.5855 28.3732L26.5873 28.3713C26.5972 28.3579 26.609 28.3445 26.6199 28.3311C26.8812 28.0129 27.0475 27.6153 27.052 27.211C27.0566 26.8124 26.8983 26.3956 26.5077 26.0286L26.5032 26.0238C26.4915 26.0133 26.4806 26.0018 26.4698 25.9893L18.8486 18.3489C18.637 18.1372 18.628 17.7836 18.8278 17.5594C19.0276 17.3352 19.3613 17.3256 19.5728 17.5374L27.194 25.1778C27.194 25.1778 27.1994 25.1825 27.2021 25.1854L27.2066 25.1902C27.8531 25.7977 28.1144 26.5173 28.1072 27.2196C28.1 27.8826 27.8486 28.5189 27.4526 29.02C27.4318 29.0554 27.4065 29.088 27.3775 29.1187C27.3631 29.134 27.3513 29.1465 27.3414 29.156L27.3142 29.1838L27.2953 29.2039V29.2059C27.2817 29.2193 27.269 29.2317 27.2564 29.2461C27.2284 29.2758 27.1976 29.3007 27.1651 29.3218C26.6877 29.7376 26.0846 29.9983 25.458 29.9992C24.7989 29.9992 24.1262 29.7185 23.562 29.0382L23.5584 29.0343L15.2862 19.5763H15.2871ZM0.125273 6.53195C-0.0636962 6.29529 -0.0356673 5.94173 0.18766 5.74243C0.410987 5.54217 0.744622 5.57188 0.932687 5.80854L6.73468 13.0474C7.1533 13.5466 7.51858 13.8293 7.9137 13.9979C8.3269 14.1752 8.8043 14.2461 9.4137 14.3122V14.3103C9.83956 14.3505 10.2736 14.3975 10.6895 14.4598C11.1009 14.5211 11.4761 14.5968 11.7763 14.6936C12.0557 14.7836 12.213 15.096 12.128 15.3911C12.043 15.6872 11.7482 15.8539 11.4698 15.7638C11.2347 15.6881 10.9119 15.6249 10.5448 15.5703C10.1813 15.5166 9.75638 15.4706 9.32329 15.4304V15.4285C9.32329 15.4285 9.31876 15.4285 9.31696 15.4285C8.61262 15.3528 8.05294 15.2665 7.52039 15.0385C6.96885 14.8018 6.4788 14.431 5.94354 13.7939C5.94354 13.7939 5.93811 13.7862 5.9345 13.7833L0.125273 6.53195Z" fill="#4361EE"/>
<path d="M3.71459 2.83065C3.50845 2.61123 3.50935 2.25671 3.7164 2.03825C3.92346 1.81979 4.25799 1.82075 4.46414 2.04016L11.4877 9.55885C11.6938 9.77827 11.6929 10.1328 11.4858 10.3512C11.2788 10.5697 10.9443 10.5688 10.7381 10.3493L3.71459 2.83065Z" fill="#4361EE"/>
<path d="M1.94116 4.69002C1.73501 4.4706 1.73591 4.11608 1.94297 3.89762C2.15002 3.67916 2.48456 3.68012 2.69071 3.89954L9.71421 11.4192C9.92036 11.6386 9.91946 11.9931 9.7124 12.2116C9.50535 12.43 9.17081 12.4291 8.96467 12.2097L1.94116 4.69002Z" fill="#4361EE"/>
<path d="M6.39189 29.9859C5.70653 30.0607 5.03022 29.8135 4.49677 29.3765C4.42896 29.321 4.37652 29.274 4.32769 29.2242C4.27615 29.1725 4.23095 29.1198 4.17851 29.0546C3.74089 28.5113 3.47417 27.809 3.51124 27.0808C3.54379 26.4417 3.80328 25.7959 4.37561 25.2373L15.6288 13.4902C15.6324 13.4864 15.636 13.4826 15.6396 13.4787C16.7897 12.3079 16.7951 11.8805 16.8114 10.6512C16.8168 10.2325 16.8232 9.73617 16.8611 9.15361C16.8955 8.61704 16.9904 8.0843 17.1387 7.56402C17.674 5.68507 18.9082 3.94121 20.4995 2.7071C22.0962 1.4682 24.0601 0.734251 26.0492 0.877017C26.5763 0.914385 27.1035 1.01403 27.6243 1.1798C28.0926 1.32831 28.4995 1.57839 28.8322 1.91279C29.1595 2.2424 29.4109 2.65153 29.5736 3.1239C29.5772 3.13349 29.5809 3.14307 29.5845 3.15265C29.768 3.69688 29.8883 4.24974 29.9507 4.80547C30.1857 6.90193 29.5926 9.01755 28.5049 10.771C27.4208 12.5196 25.8413 13.9147 24.0998 14.5749C23.6161 14.7579 23.1188 14.8853 22.6143 14.9486C22.0555 15.0185 21.5944 15.0501 21.2056 15.077C20.0546 15.1555 19.6487 15.1843 18.6197 16.4337C18.6125 16.4442 18.6044 16.4538 18.5962 16.4644L8.07724 28.9894H8.07634C7.58086 29.6142 6.98954 29.9179 6.3946 29.9831M5.14234 28.4902C5.47326 28.7614 5.88194 28.9157 6.28429 28.8716C6.62426 28.8342 6.97055 28.6483 7.27435 28.2622C7.27796 28.2574 7.28158 28.2526 7.2861 28.2478H7.2852L17.8042 15.7218C17.8105 15.7141 17.8168 15.7074 17.8232 15.7007C19.1414 14.0987 19.6604 14.0632 21.1387 13.9617C21.504 13.9367 21.938 13.907 22.4895 13.8371C22.9118 13.7844 23.3313 13.6761 23.7427 13.5199C25.2707 12.9403 26.6622 11.7081 27.6224 10.1597C28.5791 8.61608 29.1026 6.76395 28.8982 4.93962C28.8458 4.4682 28.7436 3.99679 28.5863 3.53208C28.5836 3.52346 28.5809 3.51483 28.5781 3.50717C28.4715 3.1996 28.3105 2.9361 28.1026 2.72722C27.8919 2.51451 27.6288 2.3545 27.3214 2.25677C26.8747 2.114 26.4253 2.02968 25.9778 1.99711C24.2499 1.87255 22.5302 2.52122 21.1234 3.61257C19.7111 4.70774 18.6197 6.24176 18.1514 7.88596C18.0248 8.32959 17.9443 8.77992 17.9154 9.23026C17.8774 9.82911 17.8711 10.2833 17.8657 10.6665C17.8449 12.2456 17.8376 12.7946 16.3711 14.2884H16.3702L5.10346 26.0508C5.09894 26.0556 5.09532 26.0594 5.0908 26.0632C4.7418 26.4043 4.58357 26.779 4.56549 27.1392C4.54379 27.5666 4.70925 27.991 4.98049 28.3274C5.00943 28.3638 5.03294 28.3906 5.05554 28.4136C5.07995 28.4385 5.10708 28.4625 5.14234 28.4912V28.4902Z" fill="#4361EE"/>
</g>
<defs>
<clipPath id="clip0_26284_91954">
<rect width="30" height="30" fill="white"/>
</clipPath>
</defs>
</svg>
