<svg width="50" height="50" viewBox="0 0 50 50" fill="none" xmlns="http://www.w3.org/2000/svg">
<g clip-path="url(#clip0_24298_67752)">
<path d="M21.8559 14.7443C23.8711 14.7443 25.515 16.1989 25.515 17.9792C25.515 18.3428 25.8105 18.6458 26.1817 18.6458C26.5529 18.6458 26.8484 18.3504 26.8484 17.9792C26.8484 15.6686 24.962 13.7595 22.5302 13.464V11.4792C22.5302 11.1155 22.2347 10.8125 21.8635 10.8125C21.4923 10.8125 21.1969 11.108 21.1969 11.4792V13.464C18.765 13.7595 16.8787 15.6686 16.8787 17.9792C16.8787 20.4943 19.1135 22.5398 21.8635 22.5398C23.8787 22.5398 25.5226 23.9943 25.5226 25.7746C25.5226 27.5549 23.8787 29.0095 21.8635 29.0095C19.8484 29.0095 18.2044 27.5549 18.2044 25.7746C18.2044 25.411 17.909 25.108 17.5378 25.108C17.1665 25.108 16.8711 25.4034 16.8711 25.7746C16.8711 28.0852 18.7575 29.9943 21.1893 30.2898V32.2746C21.1893 32.6383 21.4847 32.9413 21.8559 32.9413C22.2272 32.9413 22.5226 32.6458 22.5226 32.2746V30.2898C24.9544 29.9943 26.8408 28.0852 26.8408 25.7746C26.8408 23.2595 24.6059 21.214 21.8559 21.214C19.8408 21.214 18.1969 19.7595 18.1969 17.9792C18.1969 16.1989 19.8408 14.7443 21.8559 14.7443Z" fill="#A3ACB5"/>
<path d="M24.9552 41.3215C23.9628 41.4882 22.9249 41.5715 21.8567 41.5715C10.9931 41.5715 2.15974 32.7382 2.15974 21.8745C2.15974 11.0109 11.0007 2.17756 21.8567 2.17756C32.7128 2.17756 41.5537 11.0109 41.5537 21.8745C41.5537 22.8745 41.4779 23.8669 41.334 24.8215C41.281 25.1851 41.531 25.5185 41.887 25.5791C42.2507 25.6321 42.584 25.3897 42.6446 25.026C42.8037 24.0033 42.8794 22.9427 42.8794 21.8821C42.8794 10.2912 33.4476 0.859375 21.8567 0.859375C10.2658 0.859375 0.833984 10.2836 0.833984 21.8745C0.833984 33.4654 10.2658 42.8973 21.8567 42.8973C22.9931 42.8973 24.1067 42.8063 25.1673 42.6321C25.531 42.5715 25.7734 42.2306 25.7128 41.8669C25.6597 41.5033 25.3188 41.2609 24.9552 41.3215Z" fill="#A3ACB5"/>
<path d="M36.9556 23.7801C37.3192 23.8104 37.6449 23.5452 37.6752 23.1816C37.7131 22.7725 37.7283 22.3482 37.7283 21.871C37.7283 13.121 30.6071 5.99219 21.8495 5.99219C13.0919 5.99219 5.9707 13.1134 5.9707 21.871C5.9707 30.6286 13.0919 37.7498 21.8495 37.7498C22.2965 37.7498 22.7586 37.727 23.2586 37.6892C23.6222 37.6589 23.8949 37.3407 23.8646 36.9695C23.8343 36.6058 23.5162 36.3331 23.1449 36.3634C22.6904 36.4013 22.251 36.424 21.8419 36.424C13.8116 36.424 7.28888 29.8937 7.28888 21.871C7.28888 13.8482 13.8343 7.32552 21.8571 7.32552C29.8798 7.32552 36.4101 13.8558 36.4101 21.8786C36.4101 22.3104 36.3949 22.7043 36.3571 23.0679C36.3268 23.424 36.5919 23.7498 36.9556 23.7801Z" fill="#A3ACB5"/>
<path d="M31.6134 21.2188H29.4089C29.0452 21.2188 28.7422 21.5142 28.7422 21.8854C28.7422 22.2491 29.0376 22.5521 29.4089 22.5521H31.6134C31.977 22.5521 32.2801 22.2566 32.2801 21.8854C32.2725 21.5142 31.977 21.2188 31.6134 21.2188Z" fill="#A3ACB5"/>
<path d="M12.0983 21.2188C11.7347 21.2188 11.4316 21.5142 11.4316 21.8854C11.4316 22.2491 11.7271 22.5521 12.0983 22.5521H14.3029C14.6665 22.5521 14.9695 22.2566 14.9695 21.8854C14.9695 21.5218 14.6741 21.2188 14.3029 21.2188H12.0983Z" fill="#A3ACB5"/>
<path d="M37.3728 32.5469C34.7516 32.5469 32.6152 34.6908 32.6152 37.3196C32.6152 39.9484 34.7516 42.0923 37.3728 42.0923C39.994 42.0923 42.1304 39.9484 42.1304 37.3196C42.1304 34.6908 40.0016 32.5469 37.3728 32.5469ZM37.3728 40.7666C35.4789 40.7666 33.941 39.2211 33.941 37.3196C33.941 35.4181 35.4789 33.8726 37.3728 33.8726C39.2668 33.8726 40.8046 35.4181 40.8046 37.3196C40.8046 39.2211 39.2668 40.7666 37.3728 40.7666Z" fill="#A3ACB5"/>
<path d="M47.8716 34.4543L46.0534 34.1285C45.9701 34.1134 45.9019 34.0604 45.8716 33.9922C45.8262 33.871 45.7731 33.7498 45.7201 33.6361C45.6898 33.5679 45.6974 33.477 45.7504 33.4089L46.811 31.8861C47.2504 31.2573 47.1747 30.4089 46.6368 29.871L44.7883 28.0301C44.2504 27.4922 43.4019 27.4164 42.7731 27.8558L41.2656 28.9164C41.1974 28.9695 41.1065 28.977 41.0231 28.9392C40.9171 28.8937 40.8034 28.8482 40.6974 28.8028C40.6141 28.7725 40.5534 28.6967 40.5383 28.6134L40.2201 26.7952C40.0837 26.0376 39.4322 25.4922 38.6671 25.4922H36.0686C35.3034 25.4922 34.6519 26.0376 34.5156 26.7952L34.2277 28.4392L33.8716 28.871C33.8186 28.8937 33.7731 28.9164 33.7201 28.9316C33.6368 28.9695 33.5534 28.9619 33.4853 28.9089L31.9701 27.8482C31.3413 27.4089 30.4928 27.4846 29.955 28.0225L28.1141 29.871C27.5762 30.4089 27.5004 31.2649 27.9398 31.8861L28.9928 33.4013C29.0459 33.4695 29.0534 33.5604 29.0231 33.6286C28.9701 33.7498 28.9247 33.8634 28.8716 33.9846C28.8413 34.0528 28.7731 34.1058 28.6898 34.121L26.8716 34.4467C26.1216 34.5831 25.5762 35.2346 25.5762 35.9998V38.6134C25.5762 39.3786 26.1216 40.0376 26.8792 40.1664L28.6898 40.4846C28.7731 40.4998 28.8413 40.5604 28.8792 40.6437C28.9247 40.7498 28.9701 40.8634 29.0156 40.9695C29.0534 41.0528 29.0459 41.1437 28.9928 41.2195L27.9398 42.727C27.5004 43.3558 27.5762 44.2043 28.1141 44.7422L29.9625 46.5907C30.5004 47.1286 31.3489 47.2043 31.9777 46.7725L33.4928 45.7119C33.561 45.6664 33.6519 45.6589 33.7353 45.6892C33.8413 45.7346 33.9474 45.7801 34.0534 45.8179C34.1368 45.8482 34.1974 45.924 34.2125 46.0073L34.6671 48.5755C34.7201 48.8937 35.0004 49.1285 35.3186 49.1285H38.6898C39.455 49.1285 40.1065 48.5831 40.2428 47.8255L40.561 46.0073C40.5762 45.924 40.6368 45.8482 40.7201 45.8179C40.8262 45.7725 40.9322 45.7346 41.0383 45.6892C41.1216 45.6513 41.2125 45.6589 41.2807 45.7119L42.7883 46.7725C43.4171 47.2119 44.2656 47.1361 44.8034 46.5907L46.6519 44.7422C47.1898 44.2043 47.2656 43.3558 46.8262 42.727L45.7731 41.2119C45.7201 41.1361 45.7125 41.0452 45.7504 40.9619C45.7959 40.8558 45.8413 40.7498 45.8868 40.6437C45.9171 40.5604 45.9928 40.4998 46.0762 40.4846L47.8868 40.1664C48.6444 40.0376 49.1898 39.3786 49.1898 38.6134V35.9998C49.1671 35.2422 48.6216 34.5907 47.8716 34.4543ZM47.8413 38.621C47.8413 38.7422 47.758 38.8482 47.6368 38.871L45.8262 39.1892C45.2883 39.2876 44.8337 39.6589 44.6368 40.1664C44.5989 40.2573 44.561 40.3482 44.5231 40.4392C44.3034 40.9392 44.3565 41.5301 44.6671 41.977L45.7201 43.4922C45.7883 43.5907 45.7807 43.727 45.6898 43.8179L43.8413 45.6664C43.758 45.7498 43.6216 45.7649 43.5231 45.6967L42.0156 44.6361C41.561 44.3179 40.9928 44.2649 40.4853 44.4846C40.3944 44.5225 40.311 44.5604 40.2201 44.5982C39.7125 44.7952 39.3337 45.2573 39.2428 45.7952L38.9247 47.6134C38.9019 47.7346 38.8034 47.8179 38.6822 47.8179H35.8716L35.508 45.7876C35.4095 45.2498 35.0383 44.7952 34.5231 44.5907C34.4322 44.5528 34.3413 44.5225 34.258 44.4846C33.7504 44.2649 33.1747 44.3179 32.7277 44.6361L31.2125 45.6967C31.1141 45.7649 30.9853 45.7498 30.8944 45.6664L29.0459 43.8179C28.9625 43.7346 28.9474 43.5982 29.0156 43.4922L30.0686 41.9846C30.3868 41.5376 30.4398 40.9467 30.2201 40.4467C30.1822 40.3558 30.1444 40.2649 30.1065 40.174C29.9095 39.6664 29.4474 39.2876 28.9171 39.1967L27.1065 38.8786C26.9853 38.8558 26.9019 38.7498 26.9019 38.6286V36.0149C26.9019 35.8937 26.9853 35.7876 27.1065 35.7649L28.9247 35.4392C29.4625 35.3407 29.9095 34.977 30.1065 34.4846C30.1444 34.3786 30.1898 34.2801 30.2353 34.1816C30.455 33.6892 30.3944 33.1058 30.0837 32.6589L29.0307 31.1437C28.9625 31.0452 28.9701 30.9089 29.061 30.8179L30.9019 28.9695C30.9853 28.8861 31.1216 28.871 31.2201 28.9392L32.7353 29.9998C33.1822 30.3179 33.758 30.371 34.2656 30.1513C34.3489 30.1134 34.4398 30.0755 34.5307 30.0452C34.6368 30.0073 34.7277 29.9392 34.8034 29.8482L35.3792 29.1513C35.455 29.0604 35.5004 28.9543 35.5231 28.8407L35.8413 27.0225C35.8641 26.9013 35.9625 26.8179 36.0838 26.8179H38.6822C38.8034 26.8179 38.9019 26.9089 38.9247 27.0225L39.2428 28.8407C39.3413 29.3786 39.7125 29.8407 40.2277 30.0376C40.3186 30.0755 40.4095 30.1134 40.5004 30.1513C41.008 30.371 41.5762 30.3179 42.0307 29.9998L43.5383 28.9392C43.6368 28.871 43.7731 28.8786 43.8565 28.9695L45.6974 30.8179C45.7807 30.9013 45.7959 31.0376 45.7277 31.1437L44.6671 32.6589C44.3565 33.1058 44.2959 33.6892 44.5156 34.1816C44.561 34.2801 44.5989 34.3786 44.6444 34.4846C44.8413 34.977 45.2883 35.3482 45.8262 35.4392L47.6444 35.7649C47.7656 35.7876 47.8489 35.8937 47.8489 36.0149V38.621H47.8413Z" fill="#A3ACB5"/>
</g>
<defs>
<clipPath id="clip0_24298_67752">
<rect width="50" height="50" fill="white"/>
</clipPath>
</defs>
</svg>
