<svg width="50" height="50" viewBox="0 0 50 50" fill="none" xmlns="http://www.w3.org/2000/svg">
<path d="M14.3939 43.9614C12.7535 43.9565 11.4277 42.6227 11.4327 40.9823C11.4331 40.8181 11.4472 40.6543 11.4748 40.4924L13.1416 30.773C13.177 30.565 13.1081 30.3529 12.9572 30.2053L5.89599 23.3222C4.7233 22.1801 4.69852 20.3035 5.84062 19.1308C6.29595 18.6633 6.89287 18.3591 7.53873 18.2654L17.2976 16.8442C17.5066 16.8137 17.6872 16.6826 17.7809 16.4934L22.1445 7.65385C22.8689 6.18537 24.6466 5.58218 26.115 6.30658C26.7001 6.59524 27.1736 7.06878 27.4623 7.65385L31.8267 16.4965C31.9198 16.6858 32.1003 16.8171 32.3092 16.8473L42.068 18.2654C43.6881 18.5003 44.811 20.0041 44.5761 21.6241C44.4825 22.27 44.1784 22.8669 43.7108 23.3222L36.6496 30.2053C36.4987 30.3529 36.4297 30.565 36.4652 30.773L38.132 40.4924C38.409 42.1062 37.3253 43.6391 35.7115 43.9161C35.0687 44.0265 34.4076 43.9218 33.8303 43.6183L25.1016 39.0293C24.9149 38.931 24.6919 38.931 24.5052 39.0293L15.7764 43.6183C15.3503 43.8433 14.8758 43.9611 14.3939 43.9614ZM24.8034 8.32457C24.5579 8.32047 24.3329 8.4605 24.2279 8.6824L19.8643 17.525C19.4325 18.4003 18.5974 19.0068 17.6314 19.1468L7.87332 20.5619C7.52317 20.612 7.27989 20.9364 7.32993 21.2867C7.34999 21.427 7.41605 21.5567 7.51782 21.6555L14.5791 28.5393C15.2777 29.2208 15.5962 30.2024 15.431 31.1642L13.765 40.8851C13.7055 41.2342 13.9402 41.5655 14.2893 41.6251C14.4277 41.6487 14.5701 41.6263 14.6945 41.5612L23.4232 36.973C24.2869 36.5184 25.3191 36.5184 26.1828 36.973L34.9108 41.5612C35.2246 41.7254 35.6121 41.604 35.7763 41.2902C35.8414 41.1658 35.8638 41.0235 35.8402 40.8851L34.175 31.1665C34.0099 30.2047 34.3285 29.2232 35.0269 28.5417L42.0882 21.6586C42.3435 21.4138 42.3521 21.0083 42.1072 20.7529C42.0076 20.6491 41.876 20.5818 41.7335 20.5619L31.9746 19.1437C31.0088 19.0035 30.1738 18.397 29.7417 17.5219L25.3788 8.6824C25.2739 8.46042 25.0488 8.32047 24.8034 8.32457Z" fill="#A3ACB5"/>
</svg>
