<svg width="50" height="50" viewBox="0 0 50 50" fill="none" xmlns="http://www.w3.org/2000/svg">
<path d="M45.8327 1.03906H15.6243C14.7958 1.03997 14.0015 1.3695 13.4156 1.95536C12.8298 2.54121 12.5003 3.33554 12.4993 4.16406V23.9557H4.16602C3.33749 23.9566 2.54317 24.2862 1.95731 24.872C1.37146 25.4579 1.04193 26.2522 1.04102 27.0807V45.8307C1.04193 46.6593 1.37146 47.4536 1.95731 48.0394C2.54317 48.6253 3.33749 48.9548 4.16602 48.9557H22.916C23.7445 48.9548 24.5389 48.6253 25.1247 48.0394C25.7106 47.4536 26.0401 46.6593 26.041 45.8307V37.4974H45.8327C46.6612 37.4965 47.4555 37.167 48.0414 36.5811C48.6272 35.9953 48.9568 35.2009 48.9577 34.3724V4.16406C48.9568 3.33554 48.6272 2.54121 48.0414 1.95536C47.4555 1.3695 46.6612 1.03997 45.8327 1.03906ZM23.9577 45.8307C23.9575 46.1069 23.8477 46.3718 23.6524 46.5671C23.4571 46.7624 23.1922 46.8722 22.916 46.8724H4.16602C3.88981 46.8722 3.62497 46.7624 3.42966 46.5671C3.23435 46.3718 3.12454 46.1069 3.12435 45.8307V27.0807C3.12454 26.8045 3.23435 26.5397 3.42966 26.3444C3.62497 26.1491 3.88981 26.0393 4.16602 26.0391H12.4993V34.3724C12.5003 35.2009 12.8298 35.9953 13.4156 36.5811C14.0015 37.167 14.7958 37.4965 15.6243 37.4974H23.9577V45.8307ZM23.9577 35.4141H15.6243C15.3481 35.4139 15.0833 35.3041 14.888 35.1088C14.6927 34.9134 14.5829 34.6486 14.5827 34.3724V26.0391H22.916C23.1922 26.0393 23.4571 26.1491 23.6524 26.3444C23.8477 26.5397 23.9575 26.8045 23.9577 27.0807V35.4141ZM46.8744 34.3724C46.8742 34.6486 46.7644 34.9134 46.569 35.1088C46.3737 35.3041 46.1089 35.4139 45.8327 35.4141H26.041V27.0807C26.0401 26.2522 25.7106 25.4579 25.1247 24.872C24.5389 24.2862 23.7445 23.9566 22.916 23.9557H14.5827V4.16406C14.5829 3.88785 14.6927 3.62301 14.888 3.42771C15.0833 3.2324 15.3481 3.12259 15.6243 3.1224H45.8327C46.1089 3.12259 46.3737 3.2324 46.569 3.42771C46.7644 3.62301 46.8742 3.88785 46.8744 4.16406V34.3724ZM43.1054 6.3276C42.9794 6.27506 42.8442 6.24781 42.7077 6.2474H36.4577C36.1814 6.2474 35.9165 6.35714 35.7211 6.55249C35.5258 6.74784 35.416 7.0128 35.416 7.28906C35.416 7.56533 35.5258 7.83028 35.7211 8.02563C35.9165 8.22098 36.1814 8.33073 36.4577 8.33073H40.193L30.5128 18.0109C30.4136 18.1071 30.3346 18.222 30.2803 18.3491C30.226 18.4761 30.1975 18.6126 30.1965 18.7507C30.1954 18.8888 30.2218 19.0258 30.2742 19.1536C30.3266 19.2814 30.4039 19.3975 30.5016 19.4952C30.5992 19.5929 30.7154 19.6701 30.8432 19.7225C30.971 19.7749 31.1079 19.8013 31.2461 19.8002C31.3842 19.7992 31.5207 19.7707 31.6477 19.7164C31.7747 19.662 31.8896 19.583 31.9858 19.4839L41.666 9.80375V13.5391C41.666 13.8153 41.7758 14.0803 41.9711 14.2756C42.1665 14.471 42.4314 14.5807 42.7077 14.5807C42.984 14.5807 43.2489 14.471 43.4443 14.2756C43.6396 14.0803 43.7494 13.8153 43.7494 13.5391V7.28906C43.7486 7.08321 43.6871 6.88216 43.5725 6.71112C43.458 6.54008 43.2955 6.40667 43.1054 6.3276Z" fill="#A3ACB5"/>
</svg>
