<svg width="50" height="50" viewBox="0 0 50 50" fill="none" xmlns="http://www.w3.org/2000/svg">
<path d="M47.8711 35.9785L40.0836 28.1895C42.4289 22.241 42.5617 16.4145 42.532 14.5332C42.5148 13.4332 41.8898 12.4379 40.8961 11.9379L26.332 4.61914C25.4992 4.20039 24.5039 4.19883 23.6679 4.6207L9.10545 11.9379C8.1117 12.4395 7.4867 13.4348 7.46951 14.5363C7.43982 16.416 7.57263 22.2426 9.91795 28.191L2.13045 35.9801C1.79295 36.3191 1.6492 36.8051 1.75076 37.2723C1.85232 37.7395 2.18357 38.1238 2.63045 38.291L7.35857 40.0645L9.11951 44.7785C9.28513 45.227 9.67107 45.5598 10.1367 45.6613C10.2351 45.6832 10.3367 45.6941 10.4351 45.6941C10.8039 45.6941 11.1633 45.5473 11.4304 45.2816L17.8445 38.8676C19.5945 40.1598 21.632 41.2613 24.0195 42.0723C24.3351 42.1801 24.6664 42.2348 24.9992 42.2348C25.332 42.2348 25.6633 42.1816 25.9789 42.0723L25.9773 42.0738C28.3648 41.2629 30.4023 40.1598 32.1539 38.8676L38.5679 45.2816C38.8351 45.5473 39.1929 45.6941 39.5633 45.6941C39.6617 45.6941 39.7633 45.6832 39.8617 45.6613C40.3289 45.5598 40.7133 45.227 40.8789 44.7785L42.6398 40.0645L47.3679 38.291C47.8148 38.1238 48.1461 37.7379 48.2476 37.2723C48.3508 36.8051 48.2086 36.3176 47.8711 35.9785ZM10.9898 41.7457L9.77107 38.4816C9.62888 38.1004 9.32888 37.7988 8.9492 37.6566L5.66326 36.4254L11.1601 30.9285C12.2914 33.0957 13.7679 35.1973 15.6867 37.0488L10.9898 41.7457ZM25.0758 39.4098C25.0695 39.4082 24.982 39.4082 24.9445 39.4098C24.9336 39.4098 24.9273 39.4098 24.9258 39.4098C11.0508 34.6941 10.2086 19.2129 10.2804 14.5801C10.282 14.5051 10.3367 14.4676 10.3695 14.4504L25.0711 7.1332L39.6304 14.4504C39.6633 14.4676 39.7195 14.5051 39.7211 14.5785C39.7929 19.2129 38.9508 34.6941 25.0758 39.4098ZM41.0523 37.6566C40.6726 37.8004 40.3711 38.1004 40.2304 38.4816L39.0117 41.7457L34.3148 37.0473C36.2336 35.1957 37.7101 33.0941 38.8414 30.927L44.3398 36.4254L41.0523 37.6566Z" fill="#A3ACB5"/>
<path d="M31.9201 18.3941C30.0389 16.5159 27.0779 16.3425 25.0014 17.8863C22.9248 16.3409 19.9654 16.5159 18.0811 18.3956C16.0123 20.4659 16.0123 23.8316 18.0795 25.9019L22.9342 30.755C23.4873 31.3081 24.2201 31.6128 24.9998 31.6128C25.7795 31.6128 26.5139 31.3081 27.0639 30.7566L31.9201 25.9019C33.9904 23.8331 33.9889 20.4659 31.9201 18.3941ZM29.9326 23.9128L24.9264 28.7675L20.0701 23.9128C19.0982 22.9409 19.0998 21.3581 20.0732 20.3847C20.5607 19.8972 21.1998 19.6534 21.8389 19.6534C22.4748 19.6534 23.1123 19.8956 23.5967 20.38L24.0076 20.7909C24.5576 21.3409 25.4482 21.3409 25.9967 20.7909L26.4061 20.3816C27.3795 19.4066 28.9623 19.4159 29.9326 20.3863C30.9045 21.3581 30.9045 22.9409 29.9326 23.9128Z" fill="#A3ACB5"/>
</svg>
