<svg width="30" height="30" viewBox="0 0 30 30" fill="none" xmlns="http://www.w3.org/2000/svg">
<g clip-path="url(#clip0_26284_92039)">
<path d="M14.7719 6.29249V10.6619C14.9219 10.6392 15.0719 10.6256 15.2265 10.621V6.29262C16.734 6.17662 17.9258 4.91562 17.9258 3.37881C17.9258 1.76572 16.6136 0.453125 15.0005 0.453125C13.3874 0.453125 12.0749 1.76572 12.0749 3.37881C12.0749 4.91476 13.2656 6.17517 14.7719 6.29249ZM15.0005 1.36222C16.112 1.36222 17.0167 2.26685 17.0167 3.37881C17.0167 4.49031 16.112 5.39494 15.0005 5.39494C13.8886 5.39494 12.9839 4.49031 12.9839 3.37881C12.9839 2.26685 13.8886 1.36222 15.0005 1.36222ZM15.2265 23.705V20.5074C15.081 20.5211 14.9265 20.5256 14.7719 20.5256V23.7051C13.2656 23.8224 12.0749 25.0829 12.0749 26.6188C12.0749 28.2319 13.3874 29.544 15.0005 29.544C16.6136 29.544 17.9258 28.2319 17.9258 26.6188C17.9258 25.0819 16.734 23.821 15.2265 23.705ZM15.0005 28.6349C13.8886 28.6349 12.9839 27.7303 12.9839 26.6188C12.9839 25.5073 13.8886 24.6026 15.0005 24.6026C16.112 24.6026 17.0167 25.5073 17.0167 26.6188C17.0167 27.7303 16.112 28.6349 15.0005 28.6349ZM26.6203 12.0734C25.084 12.0734 23.8234 13.2642 23.7066 14.7711H19.7265C19.731 14.812 19.731 14.8484 19.731 14.8893C19.731 15.0029 19.7265 15.1165 19.7173 15.2256H23.7065C23.823 16.7328 25.0838 17.9243 26.6203 17.9243C28.2334 17.9243 29.546 16.6117 29.546 14.9986C29.546 13.3855 28.2334 12.0734 26.6203 12.0734ZM26.6203 17.0152C25.5088 17.0152 24.6042 16.1105 24.6042 14.9986C24.6042 13.8871 25.5088 12.9824 26.6203 12.9824C27.7323 12.9824 28.6369 13.8871 28.6369 14.9986C28.6369 16.1105 27.7323 17.0152 26.6203 17.0152ZM6.29408 15.2256H10.3674C10.3901 15.0711 10.4128 14.9211 10.4446 14.7711H6.29403C6.17721 13.2642 4.91662 12.0734 3.38031 12.0734C1.76721 12.0734 0.455078 13.3855 0.455078 14.9986C0.455078 16.6117 1.76721 17.9243 3.38031 17.9243C4.91681 17.9243 6.17753 16.7327 6.29408 15.2256ZM3.38031 17.0152C2.26881 17.0152 1.36417 16.1105 1.36417 14.9986C1.36417 13.8871 2.26881 12.9824 3.38031 12.9824C4.49181 12.9824 5.39649 13.8871 5.39649 14.9986C5.39649 16.1105 4.49185 17.0152 3.38031 17.0152ZM21.3173 20.9937L18.3538 18.0301C18.2265 18.121 18.0901 18.2029 17.9538 18.271L20.9968 21.314C20.0076 22.4655 20.058 24.1936 21.1484 25.2839C22.2923 26.4278 24.1419 26.4276 25.2855 25.2839C26.4293 24.1401 26.4292 22.2905 25.2855 21.1469C24.2 20.0615 22.4739 20.0017 21.3173 20.9937ZM24.6428 24.6413C23.8562 25.4269 22.5778 25.4269 21.7912 24.6413C21.0051 23.8551 21.0051 22.5759 21.7912 21.7897C22.5783 21.0035 23.8562 21.004 24.6428 21.7897C25.4289 22.5758 25.4289 23.8551 24.6428 24.6413ZM8.68271 9.00453L11.8129 12.1347C11.9174 12.0211 12.0265 11.9165 12.1401 11.8165L9.0054 8.68181C9.99685 7.52585 9.9383 5.79972 8.85221 4.71362C7.70949 3.56999 5.85894 3.56985 4.71512 4.71362C3.57476 5.85444 3.57476 7.7099 4.71512 8.85072C5.80226 9.93781 7.52894 9.99413 8.68271 9.00453ZM5.35785 5.35635C6.14299 4.57122 7.41812 4.56503 8.2094 5.35635C10.0961 7.24303 7.22235 10.0724 5.35785 8.2079C4.57217 7.42181 4.57217 6.14249 5.35785 5.35635ZM11.081 18.5938L8.68221 20.9926C8.15326 20.5391 7.48821 20.2898 6.78367 20.2898C6.0024 20.2898 5.26776 20.5943 4.71512 21.1469C2.88467 22.9781 4.18467 26.1411 6.78367 26.1411C8.40244 26.1411 9.70935 24.8298 9.70935 23.2154C9.70935 22.5105 9.4594 21.8449 9.00494 21.3153L11.3538 18.9665C11.2538 18.8483 11.1629 18.7211 11.081 18.5938ZM6.78367 25.2321C5.00476 25.2321 4.08335 23.0649 5.3579 21.7897C5.73876 21.4089 6.24521 21.1989 6.78367 21.1989C7.32253 21.1989 7.82858 21.4089 8.20944 21.7897C9.4714 23.0516 8.57499 25.2321 6.78367 25.2321ZM18.5083 11.8119L21.3168 9.0034C22.4752 9.99744 24.2016 9.93458 25.2855 8.85062C26.4293 7.70681 26.4291 5.85717 25.2855 4.71353C24.1417 3.56972 22.292 3.5699 21.1484 4.71353C20.062 5.7999 20.0036 7.52694 20.9963 8.68294L18.1673 11.5119C18.2901 11.6074 18.3992 11.7074 18.5083 11.8119ZM21.7912 5.35635C22.5783 4.57012 23.8562 4.57062 24.6428 5.35635C25.4289 6.14249 25.4289 7.42176 24.6428 8.2079C23.8562 8.99358 22.5778 8.99358 21.7912 8.2079C21.0051 7.42181 21.0051 6.14249 21.7912 5.35635Z" fill="#4361EE"/>
<circle cx="15.0002" cy="15.0021" r="3.18182" fill="#4361EE"/>
</g>
<defs>
<clipPath id="clip0_26284_92039">
<rect width="30" height="30" fill="white"/>
</clipPath>
</defs>
</svg>
