<svg width="105" height="50" viewBox="0 0 105 50" fill="none" xmlns="http://www.w3.org/2000/svg">
<rect width="47.0588" height="50" rx="13.5294" fill="#1B1D1E"/>
<g clip-path="url(#clip0_15497_17519)">
<path d="M37.7008 27.8258C37.7008 31.0575 36.6236 34.02 34.7951 36.4013C32.2153 39.7889 28.133 41.9718 23.5405 41.9718C18.9623 41.9718 14.8942 39.7889 12.3002 36.4154C10.4859 34.0341 9.39453 31.0575 9.39453 27.8258C9.39453 20.0158 15.7305 13.6797 23.5405 13.6797C31.3649 13.6797 37.7008 20.0156 37.7008 27.8258Z" fill="#D1E8FF"/>
<path d="M37.376 24.7055C37.206 23.9412 36.4419 23.46 35.6917 23.644C34.9274 23.8138 34.4462 24.564 34.6161 25.3282C34.8 26.1491 34.885 26.9842 34.885 27.8334C34.885 30.282 34.1065 32.5322 32.7903 34.3865C31.4881 32.3767 29.5774 30.8621 27.3553 30.0554C28.5159 29.0222 29.2519 27.5077 29.2519 25.8235C29.2519 22.6672 26.6901 20.1055 23.5339 20.1055C20.3918 20.1055 17.83 22.6672 17.83 25.8235C17.83 27.4936 18.5518 29.008 19.7124 30.0554C17.5045 30.8621 15.6079 32.3624 14.3058 34.358C12.9895 32.5181 12.2252 30.2677 12.2252 27.8333C12.2252 26.9841 12.3101 26.149 12.4941 25.3281C12.664 24.5638 12.1969 23.8137 11.4326 23.6438C10.6683 23.4598 9.90406 23.9411 9.73421 24.7054C9.50776 25.7244 9.39453 26.7718 9.39453 27.8333C9.39453 35.646 15.7494 42.0008 23.5622 42.0008C31.3749 42.0008 37.7157 35.6459 37.7157 27.8333C37.7157 26.7719 37.6024 25.7245 37.376 24.7055ZM23.5339 22.9363C25.1191 22.9363 26.4212 24.2384 26.4212 25.8236C26.4212 27.4088 25.1191 28.6968 23.5339 28.6968C21.9487 28.6968 20.6607 27.4088 20.6607 25.8236C20.6607 24.2384 21.9487 22.9363 23.5339 22.9363ZM23.5622 39.1704C20.8022 39.1704 18.2688 38.1796 16.3014 36.5237C17.7168 33.877 20.4909 32.2068 23.5339 32.2068C26.6052 32.2068 29.3793 33.8911 30.7946 36.552C28.8273 38.1796 26.308 39.1704 23.5622 39.1704Z" fill="#003677"/>
<path d="M30.794 36.5522C28.8266 38.1798 26.3073 39.1705 23.5615 39.1705C20.8016 39.1705 18.2681 38.1798 16.3008 36.5238C17.7161 33.8771 20.4902 32.207 23.5332 32.207C26.6045 32.207 29.3786 33.8913 30.794 36.5522Z" fill="#81C0FF"/>
<path d="M26.4206 25.8209C26.4206 27.4061 25.1185 28.6941 23.5333 28.6941C21.9481 28.6941 20.6602 27.4061 20.6602 25.8209C20.6602 24.2357 21.9481 22.9336 23.5333 22.9336C25.1185 22.9336 26.4206 24.2357 26.4206 25.8209Z" fill="#FBEDB0"/>
<path d="M39.0704 16.4545C38.5184 17.0065 37.6126 17.0065 37.0606 16.4545L36.268 15.6619V19.0729C36.268 19.8655 35.6311 20.4882 34.8526 20.4882C34.06 20.4882 33.4373 19.8655 33.4373 19.0729V15.6902C33.1825 15.9308 32.9136 16.1997 32.6305 16.4828C32.3616 16.7517 31.9936 16.8933 31.6398 16.8933C31.2718 16.8933 30.9038 16.7517 30.6349 16.4687C30.0829 15.9167 30.0829 15.025 30.649 14.473C32.0078 13.1143 33.5364 11.5999 33.777 11.3309C33.8053 11.3026 33.8336 11.2743 33.8619 11.246C34.4139 10.694 35.3055 10.694 35.8575 11.246L39.0704 14.4589C39.6224 15.0108 39.6224 15.9025 39.0704 16.4545Z" fill="#003677"/>
<path d="M16.4258 16.4545C15.8739 17.0065 14.968 17.0065 14.416 16.4545L13.6376 15.6761V19.1578C13.6376 19.9363 13.0007 20.5732 12.2223 20.5732C11.4438 20.5732 10.8069 19.9363 10.8069 19.1578V15.6761C10.5521 15.9167 10.2832 16.1856 9.986 16.4828C9.71709 16.7517 9.3491 16.8933 8.99526 16.8933C8.62727 16.8933 8.25928 16.7517 7.99036 16.4687C7.43838 15.9167 7.43838 15.025 8.00452 14.473C9.36325 13.1143 10.8918 11.5999 11.1324 11.3309L11.2174 11.246C11.7693 10.694 12.661 10.694 13.213 11.246L16.4258 14.4589C16.9778 15.0108 16.9778 15.9025 16.4258 16.4545Z" fill="#003677"/>
<path d="M27.7501 13.6225C27.1981 14.1745 26.2923 14.1745 25.7403 13.6225L24.9618 12.844V16.3258C24.9618 17.1042 24.3249 17.7411 23.5465 17.7411C22.768 17.7411 22.1311 17.1042 22.1311 16.3258V12.844C21.8764 13.0846 21.6074 13.3536 21.3102 13.6508C21.0413 13.9197 20.6733 14.0612 20.3195 14.0612C19.9515 14.0612 19.5835 13.9197 19.3146 13.6366C18.7626 13.0846 18.7626 12.193 19.3287 11.641C20.6875 10.2823 22.216 8.76783 22.4567 8.49891C22.485 8.4706 22.5133 8.4423 22.5416 8.41399C23.0936 7.862 23.9852 7.862 24.5372 8.41399L27.7501 11.6268C28.302 12.1788 28.302 13.0705 27.7501 13.6225Z" fill="#003677"/>
</g>
<rect x="57.0586" width="47.0588" height="50" rx="13.5294" fill="#1B1D1E"/>
<g clip-path="url(#clip1_15497_17519)">
<path d="M95.6347 24.9969C95.6347 22.9894 93.1008 21.0869 89.2157 19.907C90.1123 15.9784 89.7138 12.8528 87.958 11.8521C87.5533 11.6174 87.0802 11.5062 86.5634 11.5062V12.8837C86.8498 12.8837 87.0802 12.9393 87.2732 13.0443C88.1199 13.5261 88.4873 15.3607 88.2008 17.7203C88.1324 18.301 88.0203 18.9125 87.8834 19.5364C86.663 19.2399 85.3306 19.0114 83.9298 18.8631C83.0893 17.7203 82.2177 16.6826 81.3397 15.7746C83.3694 13.9029 85.2747 12.8775 86.5697 12.8775V11.5C84.8574 11.5 82.6161 12.7107 80.3499 14.8109C78.0835 12.7231 75.8422 11.5247 74.1301 11.5247V12.9022C75.4189 12.9022 77.3302 13.9214 79.3599 15.7807C78.4882 16.6888 77.6166 17.7203 76.7885 18.8631C75.3814 19.0114 74.0491 19.2399 72.8288 19.5426C72.6855 18.9249 72.5797 18.3257 72.505 17.7512C72.2125 15.3916 72.5735 13.557 73.4141 13.069C73.6008 12.9578 73.8436 12.9084 74.1301 12.9084V11.5309C73.607 11.5309 73.1338 11.6421 72.723 11.8768C70.9734 12.8775 70.5812 15.9969 71.4839 19.9132C67.6114 21.0992 65.0898 22.9956 65.0898 24.9969C65.0898 27.0046 67.6238 28.9071 71.5089 30.0869C70.6123 34.0156 71.0107 37.1411 72.7666 38.1418C73.1713 38.3765 73.6444 38.4877 74.1674 38.4877C75.8795 38.4877 78.121 37.277 80.3872 35.1768C82.6534 37.2647 84.8949 38.4631 86.607 38.4631C87.1299 38.4631 87.6031 38.3519 88.0141 38.1171C89.7635 37.1164 90.1558 33.997 89.253 30.0808C93.1132 28.9009 95.6347 26.9984 95.6347 24.9969ZM87.5285 20.8768C87.2981 21.6738 87.0117 22.4952 86.6879 23.3168C86.4327 22.8227 86.165 22.3285 85.8723 21.8343C85.5859 21.3401 85.2808 20.8583 84.9757 20.3889C85.8598 20.5186 86.7128 20.6792 87.5285 20.8768ZM84.6768 27.4554C84.1912 28.2894 83.6933 29.0801 83.1765 29.8152C82.2487 29.8954 81.3087 29.9387 80.3623 29.9387C79.4221 29.9387 78.482 29.8954 77.5606 29.8213C77.0438 29.0862 76.5394 28.3017 76.0538 27.4739C75.5806 26.6648 75.1511 25.8432 74.7588 25.0156C75.1449 24.1878 75.5806 23.36 76.0477 22.5509C76.5333 21.717 77.0313 20.9263 77.5481 20.1912C78.4758 20.1109 79.4159 20.0676 80.3623 20.0676C81.3024 20.0676 82.2426 20.1109 83.1639 20.185C83.6807 20.9201 84.1851 21.7046 84.6707 22.5323C85.1439 23.3415 85.5734 24.1631 85.9657 24.9909C85.5734 25.8185 85.1439 26.6463 84.6768 27.4554ZM86.6879 26.6525C87.0147 27.4575 87.3015 28.278 87.5471 29.1109C86.7315 29.3085 85.8723 29.4754 84.982 29.6051C85.287 29.1295 85.5921 28.6415 85.8786 28.1411C86.165 27.647 86.4327 27.1466 86.6879 26.6525ZM80.3747 33.2435C79.7956 32.6504 79.2166 31.9894 78.6439 31.2668C79.2042 31.2915 79.777 31.31 80.356 31.31C80.9413 31.31 81.5203 31.2977 82.0869 31.2668C81.5525 31.9558 80.9809 32.6157 80.3747 33.2435ZM75.7425 29.6051C74.8585 29.4754 74.0055 29.3148 73.1899 29.1171C73.4202 28.3202 73.7067 27.4987 74.0304 26.6771C74.2857 27.1713 74.5535 27.6655 74.846 28.1596C75.1386 28.6538 75.4375 29.1356 75.7425 29.6051ZM80.3436 16.7505C80.9226 17.3435 81.5017 18.0045 82.0744 18.7272C81.514 18.7025 80.9413 18.684 80.3623 18.684C79.777 18.684 79.198 18.6963 78.6315 18.7272C79.1659 18.0382 79.7374 17.3783 80.3436 16.7505ZM75.7363 20.3889C75.4312 20.8645 75.1262 21.3525 74.8398 21.8528C74.5535 22.347 74.2857 22.8412 74.0304 23.3353C73.7036 22.5303 73.4168 21.7098 73.1713 20.8768C73.9868 20.6854 74.846 20.5186 75.7363 20.3889ZM70.1018 28.1226C67.8978 27.1898 66.472 25.9668 66.472 24.9969C66.472 24.0271 67.8978 22.798 70.1018 21.8714C70.6372 21.6428 71.2225 21.439 71.8264 21.2475C72.1813 22.4582 72.6482 23.7183 73.2273 25.0094C72.6545 26.2942 72.1937 27.5481 71.8451 28.7527C71.2287 28.5611 70.6435 28.3512 70.1018 28.1226ZM73.4514 36.9497C72.6047 36.4679 72.2373 34.6333 72.5238 32.2736C72.5923 31.693 72.7042 31.0814 72.8412 30.4575C74.0616 30.754 75.3939 30.9826 76.7948 31.1308C77.6352 32.2736 78.5069 33.3113 79.3848 34.2193C77.3551 36.0911 75.4499 37.1164 74.1549 37.1164C73.8748 37.1103 73.6382 37.0547 73.4514 36.9497ZM88.2196 32.2428C88.5121 34.6024 88.1511 36.437 87.3105 36.925C87.1238 37.0361 86.881 37.0856 86.5945 37.0856C85.3057 37.0856 83.3943 36.0664 81.3647 34.207C82.2363 33.299 83.108 32.2675 83.9361 31.1246C85.3431 30.9764 86.6755 30.7478 87.8957 30.4452C88.039 31.0691 88.1511 31.6683 88.2196 32.2428ZM90.6165 28.1226C90.0811 28.3512 89.4958 28.5551 88.8919 28.7465C88.537 27.5358 88.0701 26.2757 87.491 24.9846C88.0639 23.6998 88.5246 22.4459 88.8732 21.2413C89.4897 21.4328 90.0748 21.6428 90.6228 21.8714C92.8268 22.804 94.2525 24.0271 94.2525 24.9969C94.2463 25.9668 92.8205 27.196 90.6165 28.1226Z" fill="#61DAFB"/>
<path d="M80.357 27.8217C81.9285 27.8217 83.2023 26.5578 83.2023 24.9987C83.2023 23.4396 81.9285 22.1758 80.357 22.1758C78.7856 22.1758 77.5117 23.4396 77.5117 24.9987C77.5117 26.5578 78.7856 27.8217 80.357 27.8217Z" fill="#61DAFB"/>
</g>
<defs>
<clipPath id="clip0_15497_17519">
<rect width="34" height="34" fill="white" transform="translate(6.53125 8)"/>
</clipPath>
<clipPath id="clip1_15497_17519">
<rect width="31" height="31" fill="white" transform="translate(65.0898 9.5)"/>
</clipPath>
</defs>
</svg>
