<svg width="105" height="50" viewBox="0 0 105 50" fill="none" xmlns="http://www.w3.org/2000/svg">
<rect width="47.0588" height="50" rx="13.5294" fill="#1B1D1E"/>
<g clip-path="url(#clip0_15497_17768)">
<path d="M37.7008 27.8258C37.7008 31.0575 36.6236 34.02 34.7951 36.4013C32.2153 39.7889 28.133 41.9718 23.5405 41.9718C18.9623 41.9718 14.8942 39.7889 12.3002 36.4154C10.4859 34.0341 9.39453 31.0575 9.39453 27.8258C9.39453 20.0158 15.7305 13.6797 23.5405 13.6797C31.3649 13.6797 37.7008 20.0156 37.7008 27.8258Z" fill="#D1E8FF"/>
<path d="M37.376 24.7055C37.206 23.9412 36.4419 23.46 35.6917 23.644C34.9274 23.8138 34.4462 24.564 34.6161 25.3282C34.8 26.1491 34.885 26.9842 34.885 27.8334C34.885 30.282 34.1065 32.5322 32.7903 34.3865C31.4881 32.3767 29.5774 30.8621 27.3553 30.0554C28.5159 29.0222 29.2519 27.5077 29.2519 25.8235C29.2519 22.6672 26.6901 20.1055 23.5339 20.1055C20.3918 20.1055 17.83 22.6672 17.83 25.8235C17.83 27.4936 18.5518 29.008 19.7124 30.0554C17.5045 30.8621 15.6079 32.3624 14.3058 34.358C12.9895 32.5181 12.2252 30.2677 12.2252 27.8333C12.2252 26.9841 12.3101 26.149 12.4941 25.3281C12.664 24.5638 12.1969 23.8137 11.4326 23.6438C10.6683 23.4598 9.90406 23.9411 9.73421 24.7054C9.50776 25.7244 9.39453 26.7718 9.39453 27.8333C9.39453 35.646 15.7494 42.0008 23.5622 42.0008C31.3749 42.0008 37.7157 35.6459 37.7157 27.8333C37.7157 26.7719 37.6024 25.7245 37.376 24.7055ZM23.5339 22.9363C25.1191 22.9363 26.4212 24.2384 26.4212 25.8236C26.4212 27.4088 25.1191 28.6968 23.5339 28.6968C21.9487 28.6968 20.6607 27.4088 20.6607 25.8236C20.6607 24.2384 21.9487 22.9363 23.5339 22.9363ZM23.5622 39.1704C20.8022 39.1704 18.2688 38.1796 16.3014 36.5237C17.7168 33.877 20.4909 32.2068 23.5339 32.2068C26.6052 32.2068 29.3793 33.8911 30.7946 36.552C28.8273 38.1796 26.308 39.1704 23.5622 39.1704Z" fill="#003677"/>
<path d="M30.794 36.5522C28.8266 38.1798 26.3073 39.1705 23.5615 39.1705C20.8016 39.1705 18.2681 38.1798 16.3008 36.5238C17.7161 33.8771 20.4902 32.207 23.5332 32.207C26.6045 32.207 29.3786 33.8913 30.794 36.5522Z" fill="#81C0FF"/>
<path d="M26.4206 25.8209C26.4206 27.4061 25.1185 28.6941 23.5333 28.6941C21.9481 28.6941 20.6602 27.4061 20.6602 25.8209C20.6602 24.2357 21.9481 22.9336 23.5333 22.9336C25.1185 22.9336 26.4206 24.2357 26.4206 25.8209Z" fill="#FBEDB0"/>
<path d="M39.0704 16.4545C38.5184 17.0065 37.6126 17.0065 37.0606 16.4545L36.268 15.6619V19.0729C36.268 19.8655 35.6311 20.4882 34.8526 20.4882C34.06 20.4882 33.4373 19.8655 33.4373 19.0729V15.6902C33.1825 15.9308 32.9136 16.1997 32.6305 16.4828C32.3616 16.7517 31.9936 16.8933 31.6398 16.8933C31.2718 16.8933 30.9038 16.7517 30.6349 16.4687C30.0829 15.9167 30.0829 15.025 30.649 14.473C32.0078 13.1143 33.5364 11.5999 33.777 11.3309C33.8053 11.3026 33.8336 11.2743 33.8619 11.246C34.4139 10.694 35.3055 10.694 35.8575 11.246L39.0704 14.4589C39.6224 15.0108 39.6224 15.9025 39.0704 16.4545Z" fill="#003677"/>
<path d="M16.4258 16.4545C15.8739 17.0065 14.968 17.0065 14.416 16.4545L13.6376 15.6761V19.1578C13.6376 19.9363 13.0007 20.5732 12.2223 20.5732C11.4438 20.5732 10.8069 19.9363 10.8069 19.1578V15.6761C10.5521 15.9167 10.2832 16.1856 9.986 16.4828C9.71709 16.7517 9.3491 16.8933 8.99526 16.8933C8.62727 16.8933 8.25928 16.7517 7.99036 16.4687C7.43838 15.9167 7.43838 15.025 8.00452 14.473C9.36325 13.1143 10.8918 11.5999 11.1324 11.3309L11.2174 11.246C11.7693 10.694 12.661 10.694 13.213 11.246L16.4258 14.4589C16.9778 15.0108 16.9778 15.9025 16.4258 16.4545Z" fill="#003677"/>
<path d="M27.7501 13.6225C27.1981 14.1745 26.2923 14.1745 25.7403 13.6225L24.9618 12.844V16.3258C24.9618 17.1042 24.3249 17.7411 23.5465 17.7411C22.768 17.7411 22.1311 17.1042 22.1311 16.3258V12.844C21.8764 13.0846 21.6074 13.3536 21.3102 13.6508C21.0413 13.9197 20.6733 14.0612 20.3195 14.0612C19.9515 14.0612 19.5835 13.9197 19.3146 13.6366C18.7626 13.0846 18.7626 12.193 19.3287 11.641C20.6875 10.2823 22.216 8.76783 22.4567 8.49891C22.485 8.4706 22.5133 8.4423 22.5416 8.41399C23.0936 7.862 23.9852 7.862 24.5372 8.41399L27.7501 11.6268C28.302 12.1788 28.302 13.0705 27.7501 13.6225Z" fill="#003677"/>
</g>
<rect x="57.0586" width="47.0588" height="50" rx="13.5294" fill="#1B1D1E"/>
<g clip-path="url(#clip1_15497_17768)">
<path d="M93.5899 29.0427C93.5933 30.0241 93.2059 30.9667 92.5132 31.6621C91.8208 32.3572 90.8798 32.7485 89.8984 32.7487H71.2838C70.3006 32.7482 69.3583 32.3559 68.6652 31.6589C67.9718 30.9617 67.5849 30.0171 67.5899 29.0341C67.5903 29.0291 67.5906 29.0244 67.5906 29.0196L67.5962 28.8243C67.601 26.4926 69.1907 24.5058 71.375 24.0036V24.0025C71.3755 20.8481 73.5841 18.1245 76.6704 17.4728C79.7567 16.821 82.878 18.4188 84.1537 21.3038C86.6833 20.9461 89.1296 22.3643 90.076 24.7376C92.0106 24.943 93.5806 26.7337 93.5847 28.832L93.5892 29.0305C93.5892 29.0346 93.5899 29.0386 93.5899 29.0427Z" fill="#00ACEA"/>
</g>
<defs>
<clipPath id="clip0_15497_17768">
<rect width="34" height="34" fill="white" transform="translate(6.53125 8)"/>
</clipPath>
<clipPath id="clip1_15497_17768">
<rect width="26" height="26" fill="white" transform="translate(67.5898 12)"/>
</clipPath>
</defs>
</svg>
