<svg width="50" height="50" viewBox="0 0 50 50" fill="none" xmlns="http://www.w3.org/2000/svg">
<path d="M25.0013 4.16797C13.5013 4.16797 4.16797 13.5013 4.16797 25.0013C4.16797 36.5013 13.5013 45.8346 25.0013 45.8346C36.5013 45.8346 45.8346 36.5013 45.8346 25.0013C45.8346 13.5013 36.5013 4.16797 25.0013 4.16797ZM17.7721 28.0638C18.3763 28.668 18.3763 29.668 17.7721 30.2721C17.4596 30.5846 17.0638 30.7305 16.668 30.7305C16.2721 30.7305 15.8763 30.5846 15.5638 30.2721L11.3971 26.1055C10.793 25.5013 10.793 24.5013 11.3971 23.8971L15.5638 19.7305C16.168 19.1263 17.168 19.1263 17.7721 19.7305C18.3763 20.3346 18.3763 21.3346 17.7721 21.9388L14.7096 25.0013L17.7721 28.0638ZM28.5221 20.7513L24.3555 30.4805C24.1055 31.0638 23.5221 31.418 22.918 31.418C22.7096 31.418 22.5013 31.3763 22.3138 31.293C21.5221 30.9596 21.1471 30.043 21.5013 29.2305L25.668 19.5013C26.0013 18.7096 26.918 18.3346 27.7096 18.6888C28.5013 19.043 28.8555 19.9596 28.5221 20.7513ZM38.6055 26.1055L34.4388 30.2721C34.1263 30.5846 33.7305 30.7305 33.3346 30.7305C32.9388 30.7305 32.543 30.5846 32.2305 30.2721C31.6263 29.668 31.6263 28.668 32.2305 28.0638L35.293 25.0013L32.2305 21.9388C31.6263 21.3346 31.6263 20.3346 32.2305 19.7305C32.8346 19.1263 33.8346 19.1263 34.4388 19.7305L38.6055 23.8971C39.2096 24.5013 39.2096 25.5013 38.6055 26.1055Z" fill="url(#paint0_linear_17266_26776)"/>
<defs>
<linearGradient id="paint0_linear_17266_26776" x1="25.0013" y1="4.16797" x2="25.0013" y2="45.8346" gradientUnits="userSpaceOnUse">
<stop stop-color="#9613D7"/>
<stop offset="1" stop-color="#DC62FB"/>
</linearGradient>
</defs>
</svg>
