<svg width="40" height="40" viewBox="0 0 40 40" fill="none" xmlns="http://www.w3.org/2000/svg">
<g clip-path="url(#clip0_18875_30866)">
<path d="M2.34375 37.8127H33.1791V38.5549C33.179 38.8364 33.2635 39.1114 33.4215 39.3444C33.5795 39.5774 33.8038 39.7575 34.0654 39.8616C34.3269 39.9657 34.6137 39.9889 34.8886 39.9282C35.1635 39.8675 35.4138 39.7257 35.6072 39.5211L39.5625 35.3417C39.8095 35.0806 39.9472 34.7348 39.9472 34.3753C39.9472 34.0159 39.8095 33.67 39.5625 33.4089L35.6072 29.2292C35.4138 29.0247 35.1635 28.8829 34.8886 28.8222C34.6137 28.7614 34.3269 28.7846 34.0654 28.8887C33.8038 28.9928 33.5795 29.173 33.4215 29.406C33.2635 29.6389 33.179 29.914 33.1791 30.1955V30.9377H2.34375C1.72235 30.9383 1.12659 31.1855 0.687199 31.6249C0.247804 32.0643 0.000661766 32.66 0 33.2814L0 35.4689C0.000661766 36.0903 0.247804 36.6861 0.687199 37.1255C1.12659 37.5649 1.72235 37.812 2.34375 37.8127Z" fill="white"/>
<path d="M15.2709 6.90408L19.449 11.3228C19.6424 11.5274 19.8927 11.6692 20.1676 11.7299C20.4424 11.7906 20.7292 11.7674 20.9907 11.6634C21.2523 11.5594 21.4766 11.3792 21.6346 11.1463C21.7926 10.9134 21.8771 10.6384 21.8772 10.3569V9.5347C23.995 9.90152 25.9576 10.8847 27.5194 12.3613C29.0813 13.8379 30.173 15.7423 30.6579 17.8362C31.1429 19.9302 30.9996 22.1206 30.246 24.1335C29.4923 26.1464 28.1618 27.8923 26.4209 29.1528C26.3426 29.212 26.2847 29.2941 26.2552 29.3877C26.2258 29.4813 26.2263 29.5818 26.2567 29.6751C26.287 29.7684 26.3458 29.8499 26.4247 29.9083C26.5036 29.9666 26.5987 29.9989 26.6968 30.0006H31.8531C31.9582 30.0007 32.0603 29.9654 32.1429 29.9004C32.2255 29.8355 32.2839 29.7446 32.3087 29.6425C32.4329 29.1301 32.7261 28.6745 33.1412 28.3494C33.5562 28.0243 34.0687 27.8485 34.5959 27.8506C35.0059 27.8506 35.4085 27.9596 35.7625 28.1666C35.8188 28.1991 35.8813 28.2195 35.9459 28.2267C36.0105 28.2339 36.076 28.2277 36.1381 28.2084C36.2002 28.189 36.2576 28.1571 36.3068 28.1145C36.3559 28.0719 36.3957 28.0197 36.4237 27.961C37.5497 25.5689 38.1315 22.957 38.1272 20.3131C38.1075 15.8363 36.4398 11.5235 33.4424 8.19822C30.445 4.87289 26.3279 2.76796 21.8772 2.28533V1.51939C21.8771 1.23791 21.7926 0.962917 21.6346 0.72999C21.4766 0.497063 21.2523 0.316923 20.9907 0.212878C20.7292 0.108833 20.4424 0.0856705 20.1676 0.146389C19.8927 0.207107 19.6424 0.34891 19.449 0.553452L15.2728 4.96939C15.0229 5.22932 14.8832 5.57579 14.8828 5.93636C14.8825 6.29692 15.0215 6.64366 15.2709 6.90408Z" fill="white"/>
<path d="M4.95159 29.999H13.2988C13.3969 29.9974 13.4921 29.9652 13.5711 29.9069C13.65 29.8486 13.7088 29.7671 13.7392 29.6737C13.7695 29.5804 13.77 29.4799 13.7405 29.3863C13.7111 29.2927 13.6531 29.2106 13.5747 29.1515C11.9799 27.9949 10.7274 26.4285 9.94988 24.6183C9.17235 22.8081 8.89866 20.8214 9.15779 18.8684C9.41692 16.9153 10.1992 15.0687 11.4219 13.5239C12.6446 11.9791 14.2622 10.7936 16.1035 10.0928C16.1749 10.0646 16.2384 10.0194 16.2884 9.96117C16.3385 9.9029 16.3735 9.8333 16.3905 9.75841C16.4076 9.68352 16.4061 9.60561 16.3862 9.53144C16.3662 9.45727 16.3285 9.38907 16.2763 9.33278L14.5857 7.54466C14.1704 7.10983 13.9394 6.53118 13.9412 5.9299C13.943 5.32861 14.1774 4.75136 14.5953 4.31903L15.115 3.76903C15.1842 3.69314 15.2266 3.59675 15.2359 3.49452C15.2452 3.39228 15.2209 3.2898 15.1667 3.20266C15.1124 3.11551 15.0312 3.04846 14.9353 3.01171C14.8395 2.97495 14.7343 2.9705 14.6357 2.99903C11.9978 3.81438 9.58131 5.22213 7.57096 7.11465C5.56062 9.00716 4.00966 11.3343 3.03667 13.9182C2.06369 16.5021 1.69444 19.2742 1.95717 22.0227C2.2199 24.7712 3.10765 27.4232 4.55253 29.7759C4.59447 29.8441 4.65316 29.9004 4.72301 29.9394C4.79287 29.9785 4.87156 29.999 4.95159 29.999Z" fill="white"/>
</g>
<defs>
<clipPath id="clip0_18875_30866">
<rect width="40" height="40" fill="white"/>
</clipPath>
</defs>
</svg>
