<svg width="40" height="40" viewBox="0 0 40 40" fill="none" xmlns="http://www.w3.org/2000/svg">
<g clip-path="url(#clip0_18875_30855)">
<path d="M38.8499 15.0168C38.7295 15.0457 38.6254 15.1211 38.5605 15.2265C38.4955 15.3319 38.4748 15.4587 38.503 15.5793C38.8447 17.0295 39.0177 18.5143 39.0186 20.0043C39.0126 25.0457 37.0072 29.8788 33.4424 33.4437C29.8776 37.0085 25.0444 39.0138 20.003 39.0199C15.8624 39.0344 11.8329 37.681 8.5405 35.1699C8.98256 34.5107 9.15918 33.7089 9.03498 32.925C8.91078 32.1412 8.49493 31.4332 7.87076 30.943C7.2466 30.4528 6.46024 30.2167 5.66928 30.2818C4.87832 30.3469 4.14119 30.7086 3.60563 31.2943C3.07006 31.88 2.77563 32.6464 2.78133 33.44C2.78704 34.2337 3.09246 34.9958 3.63638 35.5737C4.18031 36.1517 4.92256 36.5027 5.71438 36.5564C6.50619 36.6102 7.28908 36.3627 7.90613 35.8636C11.3727 38.5323 15.6282 39.9725 20.003 39.9574C23.0168 39.9541 25.9908 39.2689 28.7023 37.9531C31.4137 36.6373 33.7922 34.725 35.6596 32.3595C37.5271 29.9939 38.835 27.2364 39.4854 24.2936C40.1359 21.3508 40.112 18.299 39.4155 15.3668C39.4015 15.3065 39.3758 15.2497 39.3398 15.1994C39.3037 15.1492 39.2581 15.1066 39.2055 15.074C39.153 15.0415 39.0945 15.0197 39.0334 15.0099C38.9724 15 38.91 15.0024 38.8499 15.0168Z" fill="white"/>
<path d="M0.984394 20.004C0.984599 16.6215 1.88696 13.3003 3.59843 10.3828C5.30991 7.46533 7.76856 5.05711 10.7209 3.40645C13.6732 1.75579 17.0124 0.922436 20.3941 0.992314C23.7759 1.06219 27.0778 2.03277 29.9594 3.80398C29.662 4.44031 29.6144 5.16514 29.826 5.83491C30.0377 6.50467 30.4931 7.07053 31.1022 7.42039C31.7113 7.77025 32.4296 7.87861 33.1148 7.724C33.7999 7.56939 34.4021 7.16309 34.8019 6.58557C35.2017 6.00805 35.3701 5.30144 35.2736 4.60568C35.1771 3.90992 34.8229 3.27577 34.281 2.82882C33.7391 2.38187 33.0492 2.15473 32.3478 2.19238C31.6464 2.23003 30.9847 2.52972 30.4938 3.0321C27.4712 1.16357 24.0044 0.136096 20.4518 0.0558686C16.8992 -0.0243591 13.3895 0.84557 10.2857 2.57575C7.18179 4.30593 4.59625 6.8336 2.79625 9.89752C0.996253 12.9614 0.0471036 16.4504 0.0468938 20.004C0.0452133 21.222 0.156102 22.4376 0.378144 23.6352C0.397203 23.7431 0.453728 23.8408 0.537762 23.9112C0.621796 23.9815 0.727948 24.0199 0.837519 24.0196C0.865902 24.0196 0.894197 24.0164 0.921894 24.0102C1.04409 23.9882 1.15253 23.9185 1.22342 23.8166C1.29432 23.7146 1.32186 23.5887 1.30002 23.4665C1.08937 22.3244 0.983719 21.1654 0.984394 20.004Z" fill="white"/>
<path d="M17.1875 16.9086V17.1898H22.8125V16.9086C22.7688 13.1086 17.2312 13.1086 17.1875 16.9086Z" fill="white"/>
<path d="M33.1109 10.264C27.8359 10.3172 22.7609 7.05778 20.8203 5.65153C20.582 5.47938 20.2955 5.38672 20.0016 5.38672C19.7076 5.38672 19.4211 5.47938 19.1828 5.65153C17.2422 7.05778 12.1547 10.3047 6.89219 10.264C6.70529 10.2622 6.51988 10.2973 6.34662 10.3674C6.17336 10.4375 6.01567 10.5412 5.88264 10.6725C5.74961 10.8037 5.64387 10.96 5.57149 11.1324C5.49912 11.3047 5.46155 11.4896 5.46094 11.6765C5.46406 18.8922 6.90781 29.214 19.3672 35.5203C19.5637 35.6204 19.781 35.6726 20.0016 35.6726C20.2221 35.6726 20.4395 35.6204 20.6359 35.5203C33.0953 29.214 34.5391 18.8922 34.5422 11.6765C34.5394 11.2995 34.3871 10.939 34.1187 10.6742C33.8504 10.4094 33.4879 10.2619 33.1109 10.264ZM25.1578 24.5328C25.1578 25.1544 24.9109 25.7505 24.4713 26.1901C24.0318 26.6296 23.4357 26.8765 22.8141 26.8765H17.1891C16.5675 26.8765 15.9713 26.6296 15.5318 26.1901C15.0922 25.7505 14.8453 25.1544 14.8453 24.5328V19.5328C14.8455 19.0769 14.9787 18.6311 15.2285 18.2498C15.4782 17.8684 15.8338 17.5682 16.2516 17.3859V16.9015C16.3078 11.8859 23.6953 11.8859 23.7516 16.9015V17.3859C24.1693 17.5682 24.5249 17.8684 24.7747 18.2498C25.0244 18.6311 25.1576 19.0769 25.1578 19.5328V24.5328Z" fill="white"/>
<path d="M20.7708 21.4931C20.7639 21.4512 20.7658 21.4082 20.7766 21.3671C20.7874 21.326 20.8067 21.2875 20.8333 21.2544C20.938 21.103 20.9993 20.9259 21.0105 20.7422C21.0217 20.5585 20.9825 20.3752 20.897 20.2122C20.8116 20.0492 20.6832 19.9127 20.5257 19.8175C20.3682 19.7222 20.1877 19.6719 20.0036 19.6719C19.8196 19.6719 19.6391 19.7222 19.4816 19.8175C19.3241 19.9127 19.1957 20.0492 19.1102 20.2122C19.0248 20.3752 18.9855 20.5585 18.9968 20.7422C19.008 20.9259 19.0693 21.103 19.1739 21.2544C19.2004 21.2872 19.2197 21.3252 19.2305 21.366C19.2412 21.4068 19.2433 21.4493 19.2364 21.4909C19.163 21.8569 18.9552 22.9031 18.8086 23.6294C18.7908 23.72 18.7933 23.8134 18.8159 23.9029C18.8384 23.9924 18.8806 24.0758 18.9392 24.1471C18.9979 24.2184 19.0716 24.2758 19.1551 24.3152C19.2386 24.3546 19.3297 24.375 19.4221 24.375H20.5846C20.677 24.375 20.7684 24.3546 20.852 24.315C20.9356 24.2755 21.0094 24.2179 21.068 24.1464C21.1267 24.0749 21.1688 23.9912 21.1912 23.9015C21.2136 23.8118 21.2158 23.7182 21.1977 23.6275L20.7708 21.4931Z" fill="white"/>
</g>
<defs>
<clipPath id="clip0_18875_30855">
<rect width="40" height="40" fill="white"/>
</clipPath>
</defs>
</svg>
