<svg width="40" height="40" viewBox="0 0 40 40" fill="none" xmlns="http://www.w3.org/2000/svg">
<path d="M16.7344 19.2539V23.0941C17.6188 23.1159 18.4997 23.2142 19.3672 23.3879C19.8582 21.8268 20.7208 20.4082 21.8808 19.2539H16.7344Z" fill="#F5FAFE"/>
<path d="M5.60156 8.90211C6.47121 9.83963 7.46089 10.6582 8.54492 11.3365C9.66062 8.45875 11.4522 6.08734 13.7965 4.44922C10.6499 4.99325 7.77005 6.55811 5.60156 8.90211Z" fill="#F5FAFE"/>
<path d="M5.60156 28.6728C7.76977 31.0164 10.6491 32.5811 13.7951 33.1254C11.4513 31.487 9.66016 29.1157 8.54461 26.2383C7.46066 26.9166 6.47108 27.7352 5.60156 28.6728Z" fill="#F5FAFE"/>
<path d="M8.22055 12.2348C7.02719 11.5099 5.93754 10.6268 4.98133 9.60938C2.96755 12.0746 1.82226 15.1347 1.72266 18.3162H7.2293C7.27195 16.1377 7.61219 14.0924 8.22055 12.2348Z" fill="#F5FAFE"/>
<path d="M8.22039 25.3356C7.61211 23.478 7.27187 21.4325 7.22922 19.2539H1.72266C1.82225 22.4355 2.96753 25.4956 4.98133 27.9608C5.93749 26.9435 7.02709 26.0604 8.22039 25.3356Z" fill="#F5FAFE"/>
<path d="M29.0577 16.2848C29.581 16.2847 30.1036 16.3249 30.6208 16.4051C30.2117 13.9095 29.1551 11.5649 27.5563 9.60547C26.5993 10.6342 25.5052 11.5263 24.3047 12.2564C24.8044 13.8053 25.1176 15.4082 25.2377 17.0312C26.4508 16.5378 27.748 16.2843 29.0577 16.2848Z" fill="#F5FAFE"/>
<path d="M22.9121 9.08492C23.3257 9.81329 23.6838 10.5718 23.9834 11.3539C25.0739 10.6703 26.0674 9.84314 26.9375 8.89477C24.7634 6.55013 21.8779 4.98648 18.7266 4.44531C20.4475 5.66351 21.877 7.24806 22.9121 9.08492Z" fill="#F5FAFE"/>
<path d="M24.3264 17.4577C24.2354 15.853 23.9487 14.2655 23.4726 12.7305C21.3909 13.8239 19.0851 14.4224 16.7344 14.4794V18.3195H22.9642C23.3949 17.9968 23.8503 17.7086 24.3264 17.4577Z" fill="#F5FAFE"/>
<path d="M16.7344 13.5415C18.9819 13.4829 21.1843 12.8971 23.1641 11.8315C22.8701 11.0444 22.514 10.2819 22.099 9.55141C20.7735 7.23109 18.9691 5.48008 16.7346 4.33984L16.7344 13.5415Z" fill="#F5FAFE"/>
<path d="M15.7965 18.316V14.4742C13.4443 14.4063 11.1387 13.8018 9.0557 12.707C8.49426 14.525 8.19533 16.4139 8.16797 18.3164L15.7965 18.316Z" fill="#F5FAFE"/>
<path d="M31.9146 21.704C31.8326 21.622 31.7353 21.5569 31.6282 21.5125C31.521 21.4682 31.4062 21.4453 31.2903 21.4453C31.1743 21.4453 31.0595 21.4682 30.9524 21.5125C30.8452 21.5569 30.7479 21.622 30.6659 21.704L30.6147 21.7553L30.8413 21.9819C30.9292 22.0698 30.9785 22.189 30.9785 22.3133C30.9785 22.4376 30.9292 22.5568 30.8413 22.6448L29.5023 23.983C29.4145 24.0709 29.2952 24.1203 29.1709 24.1203H27.946C27.83 24.12 27.7151 24.1427 27.6079 24.1871C27.5008 24.2315 27.4035 24.2967 27.3216 24.3789L26.9336 24.767L30.7326 28.566L31.1207 28.178C31.203 28.0962 31.2682 27.9989 31.3125 27.8917C31.3569 27.7845 31.3796 27.6696 31.3793 27.5536V26.3287C31.3793 26.2044 31.4287 26.0852 31.5166 25.9973L32.8552 24.6588C32.9431 24.5709 33.0623 24.5215 33.1866 24.5215C33.3109 24.5215 33.4301 24.5709 33.518 24.6588L33.7446 24.8854L33.7959 24.8341C33.8779 24.7521 33.9429 24.6547 33.9873 24.5476C34.0317 24.4405 34.0546 24.3256 34.0546 24.2097C34.0546 24.0937 34.0317 23.9789 33.9873 23.8718C33.9429 23.7646 33.8779 23.6673 33.7959 23.5853L31.9146 21.704Z" fill="#F5FAFE"/>
<path d="M18.7305 33.1267C19.4854 32.998 20.2289 32.8094 20.9538 32.5625C20.7559 32.301 20.5705 32.0302 20.3977 31.75C19.8797 32.2528 19.3221 32.7131 18.7305 33.1267Z" fill="#F5FAFE"/>
<path d="M15.7938 33.2364V24.0352C13.5456 24.1045 11.3442 24.6952 9.36328 25.7607C10.6269 29.1049 12.8415 31.7272 15.7938 33.2364Z" fill="#F5FAFE"/>
<path d="M29.0565 17.2227C27.2328 17.2227 25.4501 17.7634 23.9338 18.7766C22.4175 19.7898 21.2357 21.2298 20.5378 22.9147C19.8399 24.5995 19.6573 26.4534 20.0131 28.242C20.3689 30.0307 21.2471 31.6736 22.5366 32.9631C23.8261 34.2526 25.469 35.1308 27.2576 35.4866C29.0463 35.8424 30.9002 35.6598 32.585 34.9619C34.2699 34.264 35.7099 33.0822 36.7231 31.5659C37.7363 30.0496 38.277 28.2669 38.277 26.4432C38.2747 23.9985 37.3026 21.6545 35.5739 19.9258C33.8452 18.1971 31.5012 17.225 29.0565 17.2227ZM34.4568 25.4984L34.074 25.8812C34.0305 25.9248 33.9788 25.9593 33.9219 25.9829C33.865 26.0064 33.8041 26.0186 33.7425 26.0186C33.6809 26.0186 33.62 26.0064 33.5631 25.9829C33.5062 25.9593 33.4545 25.9248 33.411 25.8812L33.1845 25.6547L32.3146 26.5245V27.5552C32.3153 27.7944 32.2685 28.0313 32.177 28.2523C32.0854 28.4732 31.951 28.6738 31.7815 28.8425L31.0619 29.562C30.974 29.6499 30.8547 29.6993 30.7304 29.6993C30.6061 29.6993 30.4869 29.6499 30.399 29.562L28.4999 27.6627L23.9233 32.2394C23.8799 32.2835 23.8282 32.3186 23.7712 32.3426C23.7142 32.3666 23.6529 32.3792 23.5911 32.3794C23.5292 32.3797 23.4679 32.3677 23.4107 32.3441C23.3534 32.3206 23.3014 32.2859 23.2577 32.2422C23.2139 32.1984 23.1793 32.1464 23.1557 32.0892C23.1321 32.032 23.1201 31.9707 23.1204 31.9088C23.1206 31.8469 23.1331 31.7857 23.1571 31.7287C23.1811 31.6717 23.2162 31.62 23.2603 31.5766L27.837 26.9999L25.9374 25.1003C25.8495 25.0124 25.8002 24.8932 25.8002 24.7689C25.8002 24.6446 25.8495 24.5254 25.9374 24.4375L26.657 23.7179C26.8256 23.5483 27.0262 23.4139 27.2472 23.3224C27.4681 23.2309 27.7051 23.1841 27.9442 23.1847H28.9749L29.8448 22.3148L29.6182 22.0887C29.5747 22.0451 29.5401 21.9935 29.5165 21.9366C29.493 21.8797 29.4808 21.8187 29.4808 21.7571C29.4808 21.6956 29.493 21.6346 29.5165 21.5777C29.5401 21.5208 29.5747 21.4692 29.6182 21.4256L30.001 21.0428C30.1701 20.8738 30.3707 20.7397 30.5916 20.6482C30.8125 20.5567 31.0492 20.5096 31.2882 20.5096C31.5273 20.5096 31.764 20.5567 31.9849 20.6482C32.2058 20.7397 32.4064 20.8738 32.5755 21.0428L34.4565 22.9238C34.6255 23.0929 34.7596 23.2935 34.8511 23.5144C34.9426 23.7353 34.9897 23.972 34.9897 24.2111C34.9897 24.4501 34.9426 24.6868 34.8511 24.9077C34.7596 25.1286 34.6255 25.3292 34.4565 25.4983L34.4568 25.4984Z" fill="#F5FAFE"/>
<path d="M9.05547 24.8631C11.1385 23.7685 13.444 23.164 15.7961 23.0958V19.2539H8.16797C8.19521 21.1564 8.49406 23.0452 9.05547 24.8631Z" fill="#F5FAFE"/>
<path d="M15.7973 13.5367V4.33594C12.8452 5.84469 10.6308 8.46656 9.36719 11.8104C11.3479 12.8762 13.5492 13.4672 15.7973 13.5367Z" fill="#F5FAFE"/>
<path d="M19.1284 24.2969C18.3393 24.1409 17.5384 24.052 16.7344 24.0312V33.2361C17.9172 32.6308 18.9959 31.8406 19.9297 30.8954C19.2504 29.5091 18.8981 27.9855 18.8998 26.4418C18.9001 25.7208 18.9767 25.0018 19.1284 24.2969Z" fill="#F5FAFE"/>
</svg>
