<svg width="45" height="45" viewBox="0 0 45 45" fill="none" xmlns="http://www.w3.org/2000/svg">
<path d="M19.1234 8.79609C18.575 7.05938 17.4641 5.51953 15.9875 4.45078C14.7992 3.57891 13.4 3.03047 11.9445 2.87578C11.9094 2.86875 11.8812 2.86172 11.8461 2.86172C11.5508 2.82656 11.2555 2.8125 10.9531 2.8125C7.47969 2.8125 4.37187 4.87969 3.03594 8.08594C2.6 9.12656 2.375 10.2305 2.375 11.3836C2.375 16.1156 6.22109 19.9688 10.9531 19.9688C11.3047 19.9688 11.6633 19.9477 12.0289 19.8914C12.057 19.8914 12.0922 19.8914 12.1203 19.8844C12.6406 19.8141 13.1469 19.7016 13.632 19.5398C13.9625 19.4273 14.1664 19.0828 14.0961 18.7383C13.9977 18.225 13.9484 17.7047 13.9484 17.1844C13.9484 16.643 14.0047 16.0875 14.1102 15.532C14.3914 14.1609 15.0172 12.8812 15.9172 11.8195C16.6906 10.8984 17.675 10.1461 18.7508 9.64688C19.0742 9.49219 19.2289 9.13359 19.1234 8.79609ZM14.8484 10.9055C14.7289 11.0461 14.6094 11.1937 14.4969 11.3484C13.6883 12.4172 13.1047 13.6547 12.8023 14.9766V14.9836C12.7742 15.075 12.7531 15.1734 12.732 15.2648C12.6055 15.9047 12.5422 16.5516 12.5422 17.1844C12.5422 17.5781 12.5703 17.9719 12.6125 18.3656C12.3945 18.4219 12.1625 18.4641 11.9305 18.4922C11.7266 18.5203 11.5227 18.5414 11.3258 18.5484C11.1992 18.5625 11.0727 18.5625 10.9531 18.5625C7.00156 18.5625 3.78125 15.3422 3.78125 11.3836C3.78125 10.6945 3.87266 10.0195 4.06953 9.37266C4.13984 9.11953 4.22422 8.87344 4.32969 8.62734C5.44766 5.94844 8.04922 4.21875 10.9531 4.21875C11.2133 4.21875 11.4523 4.23281 11.7055 4.26094C11.825 4.275 11.9305 4.28906 12.05 4.31016H12.057C12.9148 4.42969 13.7375 4.71797 14.4898 5.15391C14.7219 5.2875 14.9398 5.42812 15.1578 5.58984C16.2336 6.36328 17.0773 7.43906 17.5836 8.6625C16.55 9.23906 15.6078 10.0055 14.8484 10.9055Z" fill="#F5FAFE"/>
<path d="M12.3051 4.01906C12.4773 3.82148 12.5245 3.54445 12.4288 3.30047C12.3325 3.05648 12.1089 2.88633 11.848 2.85891C11.5534 2.82797 11.2588 2.8125 10.9558 2.8125C7.48375 2.8125 4.37523 4.88109 3.03507 8.08242C2.89656 8.41359 3.02945 8.7968 3.34445 8.96977L5.08117 9.92672C5.10859 9.94148 5.12687 9.96891 5.13039 9.99914L5.39406 12.0255C5.45031 12.4566 5.68937 12.8419 6.05148 13.0823L7.04007 13.7595L7.49781 14.8071C7.73898 15.3584 8.27617 15.7078 8.87453 15.7078H8.91812C9.53406 15.6902 10.0705 15.3056 10.285 14.7284L11.2054 12.2505C11.4255 11.6578 11.249 10.9849 10.7645 10.5771L9.70843 9.68766C9.68804 9.67078 9.67539 9.64477 9.67398 9.61734L9.57906 7.19297C9.57906 7.16766 9.58679 7.14375 9.60296 7.12477L12.3051 4.01906Z" fill="#F5FAFE"/>
<path d="M19.128 8.79468C18.5803 7.06078 17.4644 5.51742 15.9865 4.45007C15.6975 4.24125 15.3016 4.28132 15.0605 4.54078L13.2478 6.48703C12.9138 6.84281 12.7423 7.32515 12.7781 7.80961C12.8133 8.29476 13.0537 8.74757 13.4384 9.05343L14.0684 9.54914C14.1387 9.60328 14.1837 9.68203 14.1949 9.76922L14.3222 10.7866C14.3791 11.2155 14.5936 11.61 14.9269 11.8962C15.0548 12.0059 15.2173 12.0656 15.3846 12.0656C15.4029 12.0656 15.4219 12.0656 15.4409 12.0635C15.6279 12.0487 15.8009 11.9594 15.9218 11.816C16.6945 10.9005 17.674 10.1489 18.7547 9.64406C19.0746 9.495 19.2335 9.13148 19.1273 8.79539L19.128 8.79468Z" fill="#F5FAFE"/>
<path d="M13.7978 14.8052C13.5545 14.6505 13.2409 14.6597 13.0068 14.8291L12.1673 15.438C11.6392 15.8156 11.3242 16.4259 11.3242 17.0721V19.1885C11.3242 19.3917 11.4121 19.5837 11.564 19.7173C11.6934 19.8305 11.8579 19.8916 12.0273 19.8916C12.0583 19.8916 12.0892 19.8895 12.1209 19.8853C12.6398 19.8157 13.1467 19.699 13.6284 19.5387C13.963 19.4269 14.1627 19.0851 14.0966 18.7385C13.9975 18.2245 13.9476 17.7007 13.9476 17.1839C13.9476 16.6425 14.0024 16.087 14.11 15.5323C14.1655 15.2489 14.0418 14.9613 13.7978 14.8052Z" fill="#F5FAFE"/>
<path d="M12.9148 30.1133H6.20703C5.82031 30.1133 5.50391 30.4297 5.50391 30.8164V39.3734C5.50391 39.8867 5.64453 40.3648 5.88359 40.7797C6.36875 41.6234 7.28281 42.1859 8.31641 42.1859H10.8055C11.8391 42.1859 12.7461 41.6234 13.2312 40.7867C13.4773 40.3719 13.618 39.8867 13.618 39.3734V30.8164C13.618 30.4297 13.3016 30.1133 12.9148 30.1133ZM8.31641 40.7797C7.54297 40.7797 6.91016 40.1469 6.91016 39.3734V31.5195H12.2117V39.3734C12.2117 40.1469 11.5789 40.7797 10.8055 40.7797H8.31641Z" fill="#F5FAFE"/>
<path d="M6.20859 31.6055H4.54922C3.59297 31.6055 2.8125 32.3859 2.8125 33.3422V36.7313C2.8125 37.6875 3.59297 38.468 4.54922 38.468H6.20859C6.60234 38.468 6.91172 38.1516 6.91172 37.7648V32.3086C6.91172 31.9219 6.60234 31.6055 6.20859 31.6055ZM5.50547 37.0617H4.54922C4.36641 37.0617 4.21875 36.9141 4.21875 36.7313V33.3422C4.21875 33.1594 4.36641 33.0117 4.54922 33.0117H5.50547V37.0617Z" fill="#F5FAFE"/>
<path d="M13.1801 42.1875H3.51562C3.1275 42.1875 2.8125 41.8725 2.8125 41.4844C2.8125 41.0962 3.1275 40.7812 3.51562 40.7812H13.1794C13.5675 40.7812 13.8825 41.0962 13.8825 41.4844C13.8825 41.8725 13.5675 42.1875 13.1794 42.1875H13.1801Z" fill="#F5FAFE"/>
<path d="M34.9656 34.9617C34.9023 35.3977 34.4664 35.7844 34.0305 35.7844C33.8547 35.7844 33.7141 35.7211 33.6156 35.6156C33.5383 35.5172 33.4961 35.3977 33.4961 35.257C33.4961 35.2289 33.4961 35.1937 33.5031 35.1586C33.5664 34.7227 34.0094 34.3359 34.4383 34.3359C34.6141 34.3359 34.7547 34.3922 34.8531 34.5047C34.9516 34.6172 34.9938 34.7789 34.9656 34.9617Z" fill="#F5FAFE"/>
<path d="M43.818 29.118C43.4172 28.5625 42.7984 28.2461 42.1094 28.2461H29.2492C28.3422 28.2461 27.5336 28.8297 27.2523 29.6945L23.582 40.7828H17.4648C17.0711 40.7828 16.7617 41.0992 16.7617 41.4859C16.7617 41.8727 17.0711 42.1891 17.4648 42.1891H39.9156C40.218 42.1891 40.4852 41.9922 40.5766 41.7039L44.1133 31.0164C44.3242 30.3695 44.2188 29.6734 43.818 29.118ZM36.3578 35.1578C36.1961 36.2969 35.1695 37.1898 34.0305 37.1898C33.4469 37.1898 32.9195 36.9578 32.5539 36.5359C32.1883 36.1141 32.0266 35.5375 32.1109 34.9609C32.2797 33.8219 33.2992 32.9289 34.4383 32.9289C35.0289 32.9289 35.5492 33.1609 35.9148 33.5828C36.2805 34.0047 36.4422 34.5813 36.3578 35.1578Z" fill="#F5FAFE"/>
<path d="M12.7256 28.4689C12.5864 28.4689 12.4464 28.4274 12.3234 28.3416C12.0049 28.1195 11.9282 27.6807 12.1504 27.3622C13.6607 25.2029 16.1336 23.9141 18.7654 23.9141H27.3857C29.1302 23.9141 30.7924 24.4653 32.1923 25.508C32.5031 25.7401 32.5678 26.1802 32.3357 26.4917C32.1037 26.8025 31.6643 26.8686 31.3521 26.6352C30.1968 25.7745 28.8257 25.3196 27.3857 25.3196H18.7654C16.5921 25.3196 14.5495 26.3841 13.3022 28.1673C13.1657 28.3627 12.9471 28.4675 12.7256 28.4675V28.4689Z" fill="#F5FAFE"/>
<path d="M23.0781 10.0625C18.8664 10.0625 15.4492 13.4867 15.4492 17.6914C15.4492 20.2578 16.7219 22.5359 18.6695 23.9141H18.6836C19.8297 24.7367 21.1937 25.243 22.6844 25.3203C22.818 25.3273 22.9445 25.3273 23.0781 25.3273C23.2117 25.3273 23.3383 25.3273 23.4719 25.3203C24.9625 25.243 26.3406 24.7367 27.4867 23.9211C29.4344 22.5359 30.707 20.2578 30.707 17.6914C30.707 13.4867 27.2828 10.0625 23.0781 10.0625ZM23.3945 23.9141C23.2891 23.9211 23.1836 23.9211 23.0781 23.9211C22.9727 23.9211 22.8672 23.9211 22.7617 23.9141C19.4781 23.7453 16.8555 21.0172 16.8555 17.6914C16.8555 14.2602 19.6469 11.4687 23.0781 11.4687C26.5094 11.4687 29.3008 14.2602 29.3008 17.6914C29.3008 21.0172 26.6781 23.7453 23.3945 23.9141Z" fill="#F5FAFE"/>
<path d="M22.4983 38.9435H15.9649C15.7483 38.9435 15.543 38.8436 15.4101 38.6728C15.2772 38.5019 15.2301 38.2783 15.2829 38.0688L16.7791 32.1365C16.874 31.7597 17.2587 31.5325 17.6327 31.6268C18.0096 31.7217 18.2374 32.1042 18.1425 32.4804L16.867 37.5372H22.4976C22.8858 37.5372 23.2008 37.8522 23.2008 38.2404C23.2008 38.6285 22.8865 38.9435 22.4983 38.9435Z" fill="#F5FAFE"/>
</svg>
