<svg width="40" height="40" viewBox="0 0 40 40" fill="none" xmlns="http://www.w3.org/2000/svg">
<path d="M14.375 14C14.6875 14 15 13.9375 15.25 13.8125L17.875 12.6875C18.375 12.4375 18.9375 12.375 19.5 12.375H32.375C33.25 12.375 34.0625 12.625 34.75 13.125V12.9375C34.75 11.8125 33.8125 10.875 32.6875 10.875H19.5C18.625 10.875 17.75 10.5625 17.0625 10L13.6875 7.25C13.3125 6.9375 12.875 6.8125 12.375 6.8125H7.25C6.125 6.8125 5.1875 7.75 5.1875 8.875V14.75C5.8125 14.3125 6.625 14.0625 7.4375 14.0625L14.375 14Z" fill="#F5FAFE"/>
<path d="M18.25 18.8769C17.3125 19.4394 16.75 20.5644 16.75 21.6269C16.75 22.8769 17.5 24.0019 18.5625 24.5644C18.875 24.6894 19 25.0644 19 25.3769V26.9394H21C21 26.4394 21 25.8769 21 25.3769C21 25.0644 21.125 24.7519 21.4375 24.5644C22.6875 23.8769 23.4375 22.5644 23.25 21.1894C22.9375 18.8769 20.1875 17.6269 18.25 18.8769Z" fill="#F5FAFE"/>
<path d="M34.75 30.9375V16.625C34.75 15.3125 33.6875 14.25 32.375 14.25H19.5C19.1875 14.25 18.875 14.3125 18.5625 14.4375L15.9375 15.5625C15.4375 15.75 14.875 15.875 14.3125 15.875L7.4375 15.9375C6.1875 15.9375 5.1875 17 5.1875 18.25V30.9375C5.1875 32.1875 6.0625 33.1875 7.1875 33.1875H7.25H32.6875H32.75C33.875 33.1875 34.75 32.1875 34.75 30.9375ZM22.125 31.4375C21.9375 31.4375 21.75 31.4375 21.625 31.4375C20.375 31.4375 19.125 31.4375 17.875 31.4375C17.375 31.4375 16.9375 31 16.9375 30.5C16.9375 30 17.375 29.5625 17.875 29.5625H18.375H22.125C22.625 29.5625 23.0625 30 23.0625 30.5C23.125 31 22.625 31.4375 22.125 31.4375ZM22.875 25.9375V27.9375C22.875 28.4375 22.4375 28.875 21.9375 28.875C20.625 28.875 19.375 28.875 18.0625 28.875C17.5625 28.875 17.125 28.4375 17.125 27.9375C17.125 27.25 17.125 26.625 17.125 25.9375C15.5625 24.875 14.625 23 14.875 21.125C15.0625 19.375 16.125 17.8125 17.75 17.0625C19.375 16.3125 21.25 16.375 22.75 17.375C24.1875 18.3125 25.125 19.9375 25.125 21.75C25.125 23.375 24.25 25 22.875 25.9375Z" fill="#F5FAFE"/>
</svg>
