<svg width="40" height="38" viewBox="0 0 40 38" fill="none" xmlns="http://www.w3.org/2000/svg">
<path d="M33.4184 27.3398H38.8274C39.4748 27.3398 39.9997 26.8152 39.9997 26.168C39.9997 25.5208 39.4748 24.9961 38.8274 24.9961H33.4184C32.7709 24.9961 32.2461 25.5208 32.2461 26.168C32.2461 26.8152 32.771 27.3398 33.4184 27.3398Z" fill="white"/>
<path d="M38.8284 29.8164H31.2348C30.5873 29.8164 30.0625 30.3411 30.0625 30.9883C30.0625 31.6355 30.5873 32.1602 31.2348 32.1602H38.8284C39.4759 32.1602 40.0007 31.6355 40.0007 30.9883C40.0007 30.3411 39.4759 29.8164 38.8284 29.8164Z" fill="white"/>
<path d="M38.8284 34.6328H28.2973C27.6498 34.6328 27.125 35.1575 27.125 35.8047C27.125 36.4519 27.6498 36.9766 28.2973 36.9766H38.8284C39.4758 36.9766 40.0006 36.4519 40.0006 35.8047C40.0006 35.1575 39.4758 34.6328 38.8284 34.6328Z" fill="white"/>
<path d="M14.849 7.49609C6.66117 7.49609 0 14.1506 0 22.3301C0 30.5095 6.66117 37.1641 14.849 37.1641C23.0367 37.1641 29.6979 30.5095 29.6979 22.3301C29.6979 14.1506 23.0366 7.49609 14.849 7.49609ZM14.849 33.6523C8.60039 33.6523 3.51672 28.5731 3.51672 22.3301C3.51672 21.6829 4.04156 21.1582 4.68898 21.1582H13.6768V12.1798C13.6768 11.5326 14.2016 11.0079 14.8491 11.0079C21.0977 11.0079 26.1813 16.087 26.1813 22.3301C26.1812 28.5731 21.0976 33.6523 14.849 33.6523Z" fill="white"/>
<path d="M27.4602 10.6583L28.701 9.41875C29.1589 8.96125 29.1591 8.2193 28.7016 7.76148C28.2439 7.30367 27.5017 7.30344 27.0438 7.76094L25.7539 9.04953C26.1864 9.40531 26.6042 9.78383 27.0055 10.1848C27.1608 10.3399 27.3116 10.4983 27.4602 10.6583Z" fill="white"/>
<path d="M8.1293 2.34375H10.2423V5.77281C11.7243 5.36359 13.2712 5.15227 14.8505 5.15227C16.4299 5.15227 17.9767 5.36359 19.4587 5.77281V2.34375H21.563C22.2104 2.34375 22.7352 1.81906 22.7352 1.17188C22.7352 0.524688 22.2104 0 21.563 0H8.1293C7.48188 0 6.95703 0.524688 6.95703 1.17188C6.95703 1.81906 7.48188 2.34375 8.1293 2.34375Z" fill="white"/>
<path d="M2.14404 10.7571C2.32201 10.5625 2.50436 10.3709 2.69217 10.1832C3.06068 9.81503 3.44373 9.46667 3.83865 9.13651L2.51256 7.81175C2.05467 7.35425 1.31248 7.3544 0.854746 7.8123C0.397168 8.27011 0.397402 9.01206 0.855293 9.46956L2.14404 10.7571Z" fill="white"/>
<path d="M16.0212 13.4258V22.3282C16.0212 22.9754 15.4964 23.5001 14.849 23.5001H5.9375C6.51391 27.8992 10.2906 31.3066 14.8491 31.3066C19.8048 31.3066 23.8368 27.2789 23.8368 22.3282C23.8368 17.7742 20.4254 14.0013 16.0212 13.4258Z" fill="white"/>
</svg>
