<svg width="50" height="50" viewBox="0 0 50 50" fill="none" xmlns="http://www.w3.org/2000/svg">
<path d="M24.5846 49.9682C18.7609 49.7908 14.7119 49.2397 11.4805 48.1846C11.0088 48.0306 11.0796 48.1336 10.5709 46.8595C9.68488 44.6403 9.01145 42.6297 8.29002 40.0496C7.92431 38.7416 7.75304 38.1949 6.90849 35.639C5.39302 31.0527 4.81744 28.9439 4.48625 26.7645C4.40238 26.2125 4.55337 25.4578 4.79062 25.2432C4.93106 25.1161 4.93391 24.7918 4.79482 24.7659C4.71367 24.7508 4.69355 24.702 4.66387 24.4485C4.63923 24.238 4.60086 24.1236 4.53482 24.0639C4.4711 24.0063 4.44083 23.9212 4.44083 23.7998C4.44083 23.7014 4.41834 23.6109 4.39085 23.5988C4.36082 23.5856 4.34087 23.3442 4.34087 22.9942C4.34087 22.6441 4.32091 22.4027 4.29088 22.3895C4.26339 22.3774 4.2409 22.3995 4.2409 22.4386C4.2409 22.8771 3.79812 22.0785 3.54001 21.1746C2.87763 18.8549 1.79052 16.5498 2.0406 17.9953C2.12858 18.5038 2.29071 19.0038 2.75619 20.202C3.30302 21.6096 3.55213 22.6063 3.44091 22.9415C3.28199 23.4206 2.25504 20.5436 1.66316 17.9611C1.51295 17.3058 1.28741 16.3214 1.16196 15.7736C0.88165 14.5497 0.620907 13.6305 0.264648 12.6104C-0.0919509 11.5894 -0.0818749 11.4238 0.361276 11.0222C1.27475 10.1943 3.9553 9.55077 4.24506 10.0897C4.44367 10.4591 3.85832 10.715 2.26651 10.9547C0.886876 11.1624 0.759272 11.3109 1.50822 11.8372C2.25699 12.3634 6.60004 12.8337 11.7386 12.9451C20.8395 13.1422 26.6092 13.1942 28.2334 13.0935C28.6321 13.0688 29.1988 13.0392 29.4929 13.0278C30.0276 13.0071 30.0276 13.0071 30.0033 12.9142C29.9848 12.8439 30.0275 12.7782 30.1788 12.6435C30.2888 12.5457 30.4529 12.3936 30.5435 12.3056C30.8519 12.0062 31.3697 11.892 31.5844 12.0762C31.8531 12.3065 31.6158 12.8398 31.1719 13.0031C30.9669 13.0785 31.0258 13.1018 31.4989 13.1321C31.7235 13.1466 32.0361 13.168 32.1936 13.1798C32.6699 13.2156 33.0331 13.0932 32.833 12.9643C32.3921 12.6804 33.2217 12.1077 34.5065 11.809C34.6989 11.7643 34.8777 11.7137 34.9039 11.6965C34.93 11.6794 34.987 11.6654 35.0305 11.6654C35.1944 11.6654 35.6633 11.4067 36.1848 11.0288C36.4815 10.8137 36.8147 10.5971 36.9253 10.5474C37.0359 10.4977 37.1506 10.4248 37.1803 10.3854C37.2702 10.2659 37.095 10.2981 36.7058 10.4726C36.5134 10.559 36.2434 10.6785 36.106 10.7383C35.8206 10.8624 35.1855 11.162 34.5747 11.4608C34.3447 11.5733 34.1004 11.6924 34.0316 11.7255C33.9629 11.7586 33.8658 11.8101 33.8159 11.8399C33.7054 11.9058 33.1924 11.9217 32.907 11.8679C32.1658 11.7284 32.1125 11.2654 32.7451 10.4612C33.0221 10.1091 33.7854 9.38894 33.8816 9.38894C33.9055 9.38894 33.9884 9.32211 34.0658 9.24042C34.2059 9.09257 34.2947 9.04484 34.7407 8.87743C35.0614 8.75703 35.2488 8.74394 35.2997 8.83838C35.33 8.89448 35.1052 9.24651 34.852 9.53961C34.3211 10.154 34.2749 10.2165 34.3245 10.2518C34.3953 10.3022 34.9357 10.0714 35.0158 9.95664C35.0493 9.90851 35.1391 9.77352 35.2153 9.65666C35.7308 8.86609 36.9647 8.78825 37.7237 9.4984C37.9243 9.68611 37.9801 9.70737 37.9812 9.59643C37.9847 9.2493 38.6639 8.96448 39.4924 8.96272C39.8359 8.96199 39.8584 8.922 39.561 8.84117C39.1545 8.73069 39.1312 8.67542 39.3992 8.45741C39.7707 8.15517 39.5944 8.09643 38.8886 8.28728C38.2076 8.47142 37.5456 8.57111 37.0929 8.5577C36.8525 8.55058 36.6018 8.55915 36.5358 8.57675C36.4698 8.59435 36.2935 8.61616 36.144 8.62521C35.9945 8.63426 35.8541 8.64966 35.8318 8.65944C35.8096 8.66921 35.6823 8.6666 35.5488 8.65364C34.807 8.58157 34.8759 8.12385 35.8048 6.95245C35.929 6.79595 36.1002 6.56386 36.1855 6.4367C36.2707 6.30954 36.617 5.80535 36.9551 5.31627C37.2932 4.8272 37.6628 4.28299 37.7763 4.10692C37.8898 3.93085 38.0384 3.71076 38.1065 3.61783C38.1746 3.52489 38.2303 3.43278 38.2303 3.41313C38.2303 3.39348 38.2879 3.29345 38.3583 3.19084C38.8127 2.52851 39.5374 0.893567 39.4491 0.729843C39.4312 0.696623 39.4462 0.674495 39.4867 0.674495C39.5237 0.674495 39.6667 0.621136 39.8044 0.55592C39.9421 0.490705 40.116 0.41058 40.1909 0.377865C40.3026 0.329068 40.322 0.300299 40.2988 0.217708C40.1698 -0.241047 41.3603 0.0521914 42.8415 0.844049C45.0204 2.00886 46.9546 3.97716 48.5707 6.67435C50.0071 9.07145 50.3842 13.1368 49.4528 16.1827C48.7998 18.318 48.3554 21.5951 47.8778 27.796C47.5738 31.744 47.4 33.5256 47.1492 35.2655C47.0815 35.735 46.993 36.4393 46.9524 36.8306C46.7489 38.795 46.4421 40.6189 45.9205 42.9662C45.7421 43.7687 45.7171 43.9573 45.7035 44.6024C45.6522 47.0348 44.3992 48.416 42.0231 48.6596C41.7928 48.6832 41.3119 48.7636 40.9545 48.8383C38.0576 49.4435 34.9671 49.7644 30.7327 49.8998C27.2987 50.0095 26.3056 50.0206 24.5846 49.9682ZM12.788 46.2893C12.1713 44.5001 11.8106 43.6506 11.3769 42.9662C10.9125 42.2337 10.807 42.1366 10.8644 42.495C11.128 44.142 11.7633 45.6694 12.7974 47.1423C13.3427 47.919 13.3424 47.898 12.788 46.2893ZM11.7071 47.4746C11.887 46.9968 11.5992 45.9916 10.7611 44.1711C10.2831 43.1327 9.93082 42.2297 9.86447 41.8725C9.82099 41.6384 9.7758 41.6187 9.58868 41.7518C9.28855 41.9654 9.37929 42.4073 10.0552 44.0239C10.2371 44.4589 10.4117 44.9551 10.4431 45.1266C10.6281 46.1341 11.5599 47.8653 11.7071 47.4746ZM28.6557 42.1776C29.5678 41.7477 29.4481 40.4947 28.4568 40.0951C27.5644 39.7355 27.0852 40.5192 27.4641 41.7186C27.634 42.2566 28.104 42.4376 28.6557 42.1776ZM25.9672 42.0828C26.6473 41.8347 26.8732 41.0066 26.4471 40.3237C26.0269 39.6505 25.1841 39.9917 25.0322 40.8965C25.0103 41.0274 24.9584 41.2881 24.917 41.4759C24.7685 42.1492 25.162 42.3766 25.9672 42.0828ZM9.41734 40.8448C9.52637 40.2238 9.30023 39.3266 8.56865 37.4774C8.36112 36.9529 8.12183 36.2726 8.03691 35.9657C7.75922 34.9624 7.33881 34.4734 7.54186 35.39C7.64042 35.8349 8.19685 37.8653 8.3168 38.2178C8.38339 38.4134 8.49586 38.9069 8.56675 39.3144C8.7433 40.3292 8.89816 40.7313 9.2027 40.9655C9.35365 41.0816 9.37819 41.0678 9.41734 40.8448ZM20.9856 37.4127C24.7931 36.7919 26.0209 33.4037 23.0156 31.8104C21.0779 30.7831 19.8644 30.7084 16.837 31.4303C16.2184 31.5778 15.6616 31.7212 15.5995 31.749C15.3789 31.8478 15.0376 32.198 15.0376 32.3257C15.0376 32.3912 14.9492 32.6007 14.8413 32.7912C13.4112 35.3153 17.0523 38.0541 20.9856 37.4127ZM16.1622 35.4737C14.6644 35.3145 14.3416 34.407 15.488 33.5784C16.3208 32.9765 17.2906 32.9244 18.0025 33.4433C19.4112 34.47 18.296 35.7004 16.1622 35.4737ZM35.1529 36.9139C37.7683 36.6012 39.4082 34.4616 38.3297 32.769C35.8044 28.8057 26.7349 30.7096 28.7239 34.7855C29.5743 36.5281 31.9103 37.3015 35.1529 36.9139ZM30.0579 35.269C28.8921 35.0648 28.5139 34.3066 29.1386 33.426C29.9196 32.325 31.5908 32.338 32.4152 33.4515C32.9131 34.124 32.8003 34.3481 31.9928 34.2902C31.2665 34.2381 31.0282 34.312 31.3833 34.4791C31.642 34.601 31.9728 34.813 32.0366 34.8979C32.2361 35.163 30.8919 35.4152 30.0579 35.269ZM17.7676 20.5636C17.9631 20.5434 18.1018 20.4955 18.3555 20.3607C18.5382 20.2636 18.8279 20.1109 18.9994 20.0214C20.5455 19.2139 21.0428 18.931 21.6105 18.5357C21.8029 18.4018 22.3653 18.0408 22.8601 17.7336C23.355 17.4264 23.8522 17.1158 23.965 17.0434C24.0779 16.971 24.2804 16.8425 24.4149 16.7577C24.8371 16.4918 25.5845 16.0057 26.1591 15.6232C26.8335 15.1743 28.2914 14.125 28.2813 14.0958C28.2571 14.026 27.8271 13.9676 27.3087 13.9637C26.7706 13.9597 26.759 13.9579 26.763 13.8787C26.7684 13.7714 26.7747 13.772 25.3093 13.7479C13.587 13.5553 5.73231 13.2677 1.48701 12.8755C0.992561 12.8299 0.941922 12.831 0.941922 12.8875C0.941922 12.9864 1.34663 13.26 1.66652 13.3773C2.06906 13.525 2.07512 13.5897 1.69111 13.6395C1.2794 13.6928 1.29181 13.6582 1.45345 14.3019C2.10188 16.8841 3.05518 17.4686 5.06769 16.518C6.22514 15.9713 13.6418 15.4051 18.5365 15.4897C19.3766 15.5043 19.9559 15.4981 20.2359 15.4715C20.4696 15.4494 20.789 15.4229 20.9457 15.4126C21.1023 15.4024 21.2569 15.3714 21.2892 15.3437C21.3214 15.3161 21.4336 15.2934 21.5384 15.2934C21.6432 15.2934 21.7923 15.2749 21.8697 15.2523C22.3995 15.0974 26.434 15.038 26.434 15.185C26.434 15.2108 26.2264 15.3516 25.7448 15.6525C25.6323 15.7228 25.0497 16.0427 24.4501 16.3635C23.5409 16.8499 22.9337 17.1857 22.6602 17.3532C22.6327 17.37 22.3321 17.5945 21.9921 17.8519C20.5941 18.9107 19.1342 19.6393 17.8795 19.9044C17.704 19.9415 17.6329 19.9779 17.5928 20.0512C17.5252 20.1746 17.3072 20.4507 17.2388 20.4993C17.1251 20.5803 17.1807 20.6378 17.3493 20.6135C17.4387 20.6006 17.6269 20.5781 17.7676 20.5636ZM20.1609 20.2375C20.1798 20.2159 20.5587 20.202 21.1308 20.202C22.2388 20.202 23.135 20.1677 23.135 20.1254C23.135 20.1088 23.1029 20.0953 23.0636 20.0953C22.8507 20.0953 22.7843 19.9184 22.9186 19.7094C23.0853 19.4501 23.2407 19.3254 24.9435 18.0856C25.6152 17.5965 26.2557 17.1163 26.3669 17.0185C27.3282 16.1723 28.1035 15.367 28.0164 15.305C27.9789 15.2783 27.241 15.7697 27.1283 15.8965C27.084 15.9463 26.8703 16.1119 26.6534 16.2646C26.2282 16.5639 26.2035 16.5834 25.4063 17.2497C25.1138 17.4943 24.8107 17.7424 24.7328 17.8011C24.6549 17.8597 24.48 17.9958 24.3442 18.1034C23.8974 18.4574 23.077 19.0227 22.7102 19.2294C21.8861 19.6936 20.6132 20.1512 20.2109 20.1277C20.0752 20.1198 19.7861 20.1693 19.7861 20.2005C19.7861 20.2755 20.1009 20.3066 20.1609 20.2375ZM31.626 20.0976C31.6896 20.0294 31.7433 20.0241 32.3757 20.0236C33.304 20.0229 33.8007 19.8854 33.456 19.7247C33.3857 19.6919 33.3316 19.6324 33.3314 19.5876C33.3297 19.312 33.0435 19.0844 32.8851 19.2327C32.4246 19.6641 32.3387 19.7279 32.1066 19.8107C30.5993 20.3484 29.7041 19.1121 30.4577 17.5335C31.1077 16.172 31.1597 16.0488 31.3133 15.5068C31.3878 15.2443 31.3188 14.7282 31.2075 14.7148C30.9727 14.6865 29.8883 17.1298 29.4351 18.7081C29.24 19.3877 29.2359 19.3948 28.9726 19.5134C28.0479 19.9301 27.6769 19.7376 27.9691 18.9926C28.0606 18.7594 28.3536 18.1819 28.4877 17.9704C28.5403 17.8875 28.5833 17.8106 28.5833 17.7995C28.5833 17.7884 28.6295 17.7042 28.686 17.6124C29.3438 16.5427 29.4986 16.1529 29.2831 16.1087C28.6616 15.9812 27.8077 16.3209 27.4348 16.8438C27.3942 16.9008 27.3103 17.0066 27.2483 17.079C27.1072 17.2439 26.8616 17.5678 26.4446 18.139C25.8762 18.9174 25.751 19.0658 25.3679 19.4149C24.9617 19.7849 24.5393 19.9658 23.8598 20.0609C23.3741 20.1289 23.3821 20.1464 23.9098 20.1707C25.2805 20.2339 31.5542 20.1745 31.626 20.0976ZM25.9944 19.9157C25.7804 19.8546 25.6706 19.5365 25.7899 19.3233C26.0256 18.9021 26.3423 18.5515 27.4382 17.4987C27.6724 17.2737 27.9493 16.9976 28.0536 16.8851C28.6096 16.2853 28.6928 17.3455 28.159 18.2279C27.5887 19.1707 26.6521 19.9756 26.1543 19.9507C26.1294 19.9495 26.0575 19.9337 25.9944 19.9157ZM39.2695 19.7723C39.5479 19.7503 39.7885 19.7124 39.8338 19.6834C39.8883 19.6485 40.038 19.6329 40.3182 19.6329C40.5412 19.6329 40.7376 19.6169 40.7545 19.5973C40.7715 19.5777 40.8265 19.5617 40.8766 19.5617C40.9601 19.5617 41.0577 19.4277 41.0028 19.3886C40.9903 19.3797 40.8619 19.3912 40.7174 19.4142C40.4618 19.4548 40.2425 19.4788 39.7798 19.517C39.1659 19.5677 37.4542 19.5337 36.983 19.4615C36.8175 19.4361 36.808 19.4259 36.7551 19.218C36.6598 18.8429 36.3806 18.6667 36.0229 18.7559C35.6693 18.8442 35.6493 18.8905 35.9304 18.9705C36.1344 19.0286 36.3309 19.1435 36.3309 19.2048C36.3309 19.2699 36.0204 19.4906 35.9288 19.4906C35.8783 19.4906 35.8244 19.505 35.8091 19.5227C35.7753 19.5616 35.1876 19.6913 34.8939 19.7246C34.3417 19.7872 34.8436 19.8107 36.7328 19.8107C37.8667 19.8107 39.0012 19.7936 39.2695 19.7723ZM42.5178 17.8381C42.7872 17.8055 43.0788 17.6217 43.0788 17.4845C43.0788 17.3819 42.9651 17.3276 42.8657 17.3829C42.8039 17.4173 42.4207 17.4892 42.2791 17.4929C42.2378 17.494 42.1092 17.5058 41.9932 17.5191C41.2265 17.6072 39.0938 17.1262 38.0964 16.6402C37.9814 16.5842 37.8744 16.5383 37.8584 16.5383C37.8118 16.5383 37.3182 16.2887 37.1682 16.1893C36.6511 15.8466 37.6177 15.8135 38.8801 16.1306C39.6783 16.3311 39.7833 16.3601 39.9977 16.4389C40.3284 16.5604 40.3669 16.5723 40.7195 16.661C41.5316 16.8654 41.599 16.8166 40.9545 16.4908C39.9946 16.0055 38.9734 15.7049 38.5904 15.7949C38.1753 15.8924 37.227 15.7163 36.331 15.3755C34.7262 14.765 34.1191 14.6543 34.6665 15.0719C35.4 15.6316 36.3512 16.256 36.951 16.5715C37.3238 16.7677 37.8324 17.015 37.9304 17.0477C37.9717 17.0615 38.1066 17.1147 38.2303 17.1658C38.5187 17.285 39.4732 17.5902 39.7173 17.6412C40.1944 17.741 40.4328 17.781 40.6836 17.8037C40.8326 17.8171 40.982 17.8385 41.0157 17.8511C41.0961 17.8812 42.2434 17.8713 42.5178 17.8381ZM36.6308 12.6017C36.7545 12.5942 36.957 12.5809 37.0807 12.572C37.3212 12.5546 38.0633 12.4478 38.5552 12.3597C38.7202 12.3302 39.4287 12.2502 40.1297 12.182C42.7215 11.9299 43.4884 11.7242 44.1324 11.1088C44.4144 10.8393 44.4156 10.8048 44.1553 10.4457C43.6343 9.72709 44.1812 9.50571 45.4031 9.94056C45.8315 10.093 45.828 10.093 45.828 9.94236C45.828 9.80569 45.7899 9.77996 45.5319 9.7423C44.1274 9.53726 43.4785 8.7816 44.216 8.20981C44.3485 8.10707 44.3376 7.99412 44.1489 7.51267C44.0658 7.30065 44.0177 7.28849 43.7758 7.41836C43.6811 7.4692 43.5063 7.54121 43.3872 7.57838C43.1708 7.64597 43.1708 7.64597 43.3921 7.8035C44.0979 8.30573 43.2054 8.92736 41.6793 8.99656C40.6795 9.0419 40.5931 9.06383 41.0453 9.15738C41.8096 9.31548 41.9239 9.6539 41.2873 9.8741C40.6945 10.0792 40.7209 10.0949 41.4579 9.97524C42.6399 9.7834 43.549 9.81138 43.6634 10.0431C43.9787 10.6815 43.3647 11.3356 42.1291 11.6774C41.8335 11.7591 41.6567 11.7974 41.0544 11.9099C40.7499 11.9667 39.8712 12.0623 39.8422 12.0417C39.8282 12.0317 39.7793 12.0378 39.7335 12.0552C39.6878 12.0726 39.4715 12.0974 39.2528 12.1103C37.9729 12.1856 37.2979 12.2491 35.8698 12.4282C35.0793 12.5274 34.9813 12.5455 34.9813 12.5928C34.9813 12.6273 35.9623 12.6582 36.2309 12.6322C36.3272 12.6229 36.5071 12.6092 36.6308 12.6017ZM40.8966 7.54633C41.0934 7.45251 41.5133 7.25391 41.8297 7.10499C42.829 6.63462 43.5093 6.12779 43.6511 5.748C43.6886 5.64749 43.734 5.5392 43.752 5.50735C43.807 5.40983 43.623 5.05726 43.5573 5.13432C43.2553 5.48861 43.0281 5.69135 42.5802 6.0062C41.8368 6.52876 41.566 6.7098 41.4757 6.74445C41.327 6.80154 40.5214 7.4506 40.4506 7.57037C40.311 7.80644 40.3562 7.80401 40.8966 7.54633ZM5.24059 10.1766C5.24059 10.1403 5.31592 10.0402 5.408 9.95427C5.63917 9.73848 5.74043 9.58913 5.74043 9.46395C5.74043 9.3249 5.6738 9.34277 6.87091 9.16075C9.54931 8.75348 10.6965 8.6488 12.7469 8.62457C23.5624 8.49677 26.7369 8.42615 30.1744 8.23689C31.0491 8.18872 31.0475 8.18841 31.2877 8.45794C31.8069 9.04049 30.3369 9.42339 28.0585 9.29909C27.8386 9.28709 26.7926 9.27264 25.7342 9.26698C23.8098 9.25668 23.8098 9.25668 22.7648 9.10693C21.2393 8.88832 20.7926 8.90101 20.3534 9.17541C20.1475 9.3041 20.2133 9.30365 19.7196 9.1798C18.4714 8.86671 16.9272 8.84754 14.4377 9.11422C13.5992 9.20405 12.6208 9.29518 12.2634 9.31675C10.4065 9.42878 8.66516 9.65777 6.43127 10.0837C5.50257 10.2607 5.24059 10.2812 5.24059 10.1766Z" fill="#F3D71D"/>
<path d="M24.5846 49.9695C18.7609 49.7921 14.7119 49.241 11.4805 48.1859C11.0088 48.0319 11.0796 48.1349 10.5709 46.8608C9.68488 44.6416 9.01145 42.631 8.29002 40.0509C7.92431 38.743 7.75304 38.1962 6.90849 35.6403C5.39302 31.054 4.81744 28.9452 4.48625 26.7658C4.40238 26.2138 4.55337 25.4591 4.79062 25.2445C4.93106 25.1174 4.93391 24.7931 4.79482 24.7672C4.71367 24.7521 4.69355 24.7033 4.66387 24.4498C4.63923 24.2393 4.60086 24.1249 4.53482 24.0652C4.4711 24.0076 4.44083 23.9225 4.44083 23.8012C4.44083 23.7027 4.41834 23.6122 4.39085 23.6001C4.36082 23.5869 4.34087 23.3456 4.34087 22.9955C4.34087 22.6454 4.32091 22.404 4.29088 22.3908C4.26339 22.3787 4.2409 22.4008 4.2409 22.4399C4.2409 22.8784 3.79812 22.0799 3.54001 21.1759C2.87763 18.8562 1.79052 16.5511 2.0406 17.9966C2.12858 18.5051 2.29071 19.0051 2.75619 20.2033C3.30302 21.6109 3.55213 22.6076 3.44091 22.9428C3.28199 23.4219 2.25504 20.5449 1.66316 17.9624C1.51295 17.3071 1.28741 16.3227 1.16196 15.7749C0.88165 14.551 0.620907 13.6318 0.264648 12.6117C-0.0919509 11.5907 -0.0818749 11.4251 0.361276 11.0235C1.27475 10.1956 3.9553 9.55208 4.24506 10.091C4.44367 10.4604 3.85832 10.7163 2.26651 10.956C0.886876 11.1637 0.759272 11.3122 1.50822 11.8385C2.25699 12.3647 6.60004 12.8351 11.7386 12.9464C20.8395 13.1436 26.6092 13.1955 28.2334 13.0948C28.6321 13.0701 29.1988 13.0405 29.4929 13.0291C30.0276 13.0084 30.0276 13.0084 30.0033 12.9155C29.9848 12.8452 30.0275 12.7795 30.1788 12.6448C30.2888 12.547 30.4529 12.395 30.5435 12.3069C30.8711 11.9888 31.3958 11.8893 31.6082 12.1051C31.7487 12.2479 31.6837 12.2888 31.5288 12.155C31.2828 11.9426 30.91 12.0277 30.5577 12.3766C30.4752 12.4583 30.3347 12.5896 30.2453 12.6684C29.8974 12.9752 30.2133 13.1925 30.8249 13.0671C31.2571 12.9785 31.6324 12.6638 31.6324 12.3899C31.6324 12.3248 31.649 12.3045 31.6826 12.3284C31.825 12.4297 31.4751 12.8929 31.1719 13.0044C30.9669 13.0799 31.0258 13.1031 31.4989 13.1335C31.7235 13.1479 32.0361 13.1693 32.1936 13.1812C32.6699 13.2169 33.0331 13.0945 32.833 12.9656C32.3921 12.6817 33.2217 12.109 34.5065 11.8103C34.6989 11.7656 34.8777 11.715 34.9039 11.6978C34.93 11.6807 34.987 11.6667 35.0305 11.6667C35.1942 11.6667 35.6631 11.4082 36.1831 11.0313C36.7139 10.6465 36.9584 10.5007 37.0105 10.5378C37.0252 10.5483 36.9514 10.6019 36.8465 10.6569C36.0708 11.064 36.0386 11.2207 36.7875 10.9438C37.8759 10.5413 38.3298 10.4586 37.9772 10.727C37.5245 11.0716 36.029 11.5799 35.8475 11.4508C35.8095 11.4237 35.7148 11.4487 35.5204 11.5373C35.3699 11.6058 35.024 11.7174 34.7517 11.7853C33.8173 12.0183 33.5741 12.1155 33.0329 12.472C31.3017 13.6126 40.6008 13.1379 45.7098 11.8249C46.5668 11.6047 46.7305 11.4732 46.6618 11.0605C46.5437 10.351 44.5929 9.46661 44.0555 9.87897C43.9275 9.97721 43.875 9.95003 43.991 9.84559C44.1908 9.66584 44.7309 9.70266 45.4031 9.94187C45.8317 10.0944 45.828 10.0944 45.828 9.94283C45.828 9.81044 45.7315 9.74815 45.5188 9.74331C45.4066 9.74075 44.9605 9.61161 45.0455 9.60631C45.0688 9.60486 45.2122 9.62941 45.3643 9.66088C46.445 9.88443 46.8465 9.49848 46.3275 8.73486C46.2734 8.65516 46.1179 8.27783 45.9821 7.89635C45.2694 5.89481 43.8224 3.73487 43.1942 3.73477C43.0457 3.73475 43.0487 3.73987 42.801 3.0589C42.3759 1.89022 42.0623 1.46015 41.456 1.21469C40.1387 0.681316 39.8162 -0.288149 41.0794 0.0823025C43.7903 0.877302 46.5537 3.30947 48.5707 6.67567C50.0071 9.07276 50.3842 13.1381 49.4528 16.184C48.7998 18.3193 48.3554 21.5964 47.8778 27.7973C47.5738 31.7453 47.4 33.5269 47.1492 35.2668C47.0815 35.7363 46.993 36.4406 46.9524 36.8319C46.7489 38.7963 46.4421 40.6202 45.9205 42.9676C45.7421 43.77 45.7171 43.9586 45.7035 44.6037C45.6522 47.0361 44.3992 48.4173 42.0231 48.6609C41.7928 48.6845 41.3119 48.7649 40.9545 48.8396C38.0576 49.4448 34.9671 49.7657 30.7327 49.9011C27.2987 50.0108 26.3056 50.0219 24.5846 49.9695ZM12.788 46.2906C12.1713 44.5014 11.8106 43.6519 11.3769 42.9676C10.9125 42.235 10.807 42.1379 10.8644 42.4963C11.128 44.1433 11.7633 45.6707 12.7974 47.1436C13.3427 47.9203 13.3424 47.8993 12.788 46.2906ZM11.7071 47.4759C11.887 46.9981 11.5992 45.9929 10.7611 44.1724C10.2831 43.1341 9.93082 42.231 9.86447 41.8738C9.82099 41.6398 9.7758 41.62 9.58868 41.7531C9.28855 41.9667 9.37929 42.4086 10.0552 44.0252C10.2371 44.4602 10.4117 44.9564 10.4431 45.1279C10.6281 46.1355 11.5599 47.8666 11.7071 47.4759ZM28.6557 42.1789C29.5678 41.749 29.4481 40.496 28.4568 40.0964C27.5644 39.7368 27.0852 40.5205 27.4641 41.7199C27.634 42.2579 28.104 42.4389 28.6557 42.1789ZM25.9672 42.0841C26.6473 41.836 26.8732 41.0079 26.4471 40.3251C26.0269 39.6518 25.1841 39.993 25.0322 40.8978C25.0103 41.0287 24.9584 41.2894 24.917 41.4773C24.7685 42.1505 25.162 42.3779 25.9672 42.0841ZM9.41734 40.8461C9.52637 40.2251 9.30023 39.3279 8.56865 37.4787C8.36112 36.9542 8.12183 36.2739 8.03691 35.9671C7.75922 34.9637 7.33881 34.4747 7.54186 35.3913C7.64042 35.8362 8.19685 37.8666 8.3168 38.2191C8.38339 38.4147 8.49586 38.9082 8.56675 39.3157C8.7433 40.3305 8.89816 40.7326 9.2027 40.9668C9.35365 41.0829 9.37819 41.0691 9.41734 40.8461ZM20.9856 37.414C24.7931 36.7932 26.0209 33.405 23.0156 31.8117C21.0779 30.7844 19.8644 30.7097 16.837 31.4316C16.2184 31.5791 15.6616 31.7225 15.5995 31.7503C15.3789 31.8491 15.0376 32.1994 15.0376 32.327C15.0376 32.3925 14.9492 32.602 14.8413 32.7925C13.4112 35.3167 17.0523 38.0554 20.9856 37.414ZM16.1622 35.475C14.6644 35.3158 14.3416 34.4083 15.488 33.5797C16.3208 32.9778 17.2906 32.9257 18.0025 33.4446C19.4112 34.4714 18.296 35.7018 16.1622 35.475ZM35.1529 36.9152C37.7683 36.6026 39.4082 34.4629 38.3297 32.7703C35.8044 28.807 26.7349 30.7109 28.7239 34.7868C29.5743 36.5294 31.9103 37.3028 35.1529 36.9152ZM30.0579 35.2703C28.8921 35.0661 28.5139 34.3079 29.1386 33.4273C29.9196 32.3263 31.5908 32.3393 32.4152 33.4528C32.9131 34.1253 32.8003 34.3494 31.9928 34.2915C31.2665 34.2394 31.0282 34.3133 31.3833 34.4805C31.642 34.6023 31.9728 34.8143 32.0366 34.8992C32.2361 35.1644 30.8919 35.4165 30.0579 35.2703ZM17.7683 20.5649C17.9653 20.5445 18.1014 20.4974 18.3545 20.3619C18.5358 20.2649 18.814 20.1182 18.9727 20.0358C19.8452 19.5833 20.5958 19.1769 20.8607 19.0136C21.2044 18.8018 21.2856 18.7629 21.2856 18.8096C21.2856 18.828 21.1563 18.9178 20.9982 19.0092C20.8401 19.1007 20.6717 19.1983 20.624 19.2262C20.4909 19.304 19.5542 19.8004 19.0169 20.078C18.4408 20.3755 18.4341 20.3919 18.8988 20.3684C19.5564 20.3352 19.6933 20.3112 19.6594 20.235C19.6251 20.1581 19.8296 20.0832 20.0077 20.1074C20.0887 20.1184 20.0755 20.1274 19.9466 20.1493C19.8561 20.1646 19.7904 20.195 19.8005 20.2169C19.8253 20.2709 20.0852 20.2892 20.152 20.2416C20.1867 20.217 20.5382 20.2033 21.1379 20.2033C22.2395 20.2033 23.135 20.169 23.135 20.1267C23.135 20.1102 23.1029 20.0966 23.0636 20.0966C22.9836 20.0966 22.8351 20.0025 22.8351 19.9518C22.8351 19.9336 22.8801 19.9507 22.9351 19.9899C23.0061 20.0404 23.1017 20.061 23.2653 20.061C23.4417 20.061 23.4893 20.0726 23.4689 20.1106C23.3957 20.2463 31.4968 20.2334 31.626 20.0976C31.6892 20.0311 31.7478 20.0254 32.3757 20.0249C33.304 20.0242 33.8007 19.8867 33.456 19.726C33.3857 19.6932 33.3316 19.6337 33.3314 19.5889C33.3311 19.5453 33.2759 19.4257 33.2087 19.3229C33.1415 19.2202 33.1067 19.1362 33.1313 19.1362C33.1955 19.1362 33.2335 19.1891 33.3581 19.4523C33.4656 19.6795 33.4751 19.6874 33.6877 19.7262C33.9006 19.765 33.9025 19.7666 33.7567 19.7838C33.6742 19.7934 33.8092 19.8017 34.0566 19.802C34.3724 19.8025 34.4544 19.7948 34.3315 19.7765C34.2353 19.762 34.1718 19.7481 34.1905 19.7456C34.2091 19.743 34.3994 19.7236 34.6133 19.7024C35.2885 19.6356 35.7717 19.5087 35.7904 19.3933C35.8045 19.3057 35.8255 19.2963 36.0052 19.2963C36.3541 19.2963 36.2676 19.0576 35.901 19.0087C35.7189 18.9844 35.604 18.9116 35.655 18.853C35.7045 18.7959 35.9802 18.703 36.0469 18.7209C36.0806 18.7299 36.063 18.7472 36.006 18.7612C35.6921 18.8381 35.67 18.8977 35.9283 18.9712C36.1341 19.0298 36.3309 19.1446 36.3309 19.2061C36.3309 19.2712 36.0204 19.4919 35.9288 19.4919C35.8783 19.4919 35.8244 19.5063 35.8091 19.524C35.7753 19.5629 35.1876 19.6926 34.8939 19.7259C34.3417 19.7885 34.8436 19.812 36.7328 19.812C38.821 19.812 39.6908 19.7763 39.8338 19.6847C39.8883 19.6498 40.038 19.6342 40.3182 19.6342C40.5412 19.6342 40.7376 19.6182 40.7545 19.5986C40.7715 19.579 40.8265 19.563 40.8766 19.563C40.9601 19.563 41.0577 19.429 41.0028 19.3899C40.9903 19.381 40.8619 19.3914 40.7174 19.4129C40.1913 19.4914 40.1297 19.497 40.1297 19.4669C40.1297 19.45 40.2903 19.4151 40.4865 19.3893C42.2313 19.1596 43.5696 18.4645 44.1305 17.4966C44.2083 17.3622 44.4345 17.0399 44.6331 16.7804C45.8473 15.1931 46.5564 13.8215 46.3752 13.4107C46.3534 13.3612 46.3223 13.2634 46.306 13.1934C46.25 12.9515 46.2221 12.9435 45.628 12.9998C42.9722 13.2512 37.8112 13.6271 34.6564 13.7989C32.4409 13.9196 29.4268 14.049 28.8192 14.0496C28.5803 14.0498 28.5803 14.0498 27.6964 14.6528C26.5904 15.4074 26.4976 15.4106 27.5541 14.6578C27.9888 14.3479 28.3251 14.0864 28.3015 14.0766C28.1402 14.0094 27.5408 13.9427 27.1759 13.9512C26.7705 13.9606 26.759 13.9586 26.763 13.88C26.7684 13.7727 26.7747 13.7733 25.3093 13.7492C13.587 13.5566 5.73231 13.269 1.48701 12.8768C0.992561 12.8312 0.941922 12.8323 0.941922 12.8888C0.941922 12.9877 1.34663 13.2613 1.66652 13.3786C2.06906 13.5263 2.07512 13.591 1.69111 13.6408C1.2794 13.6942 1.29181 13.6595 1.45345 14.3032C2.10188 16.8854 3.05518 17.4699 5.06769 16.5193C6.22514 15.9726 13.6418 15.4064 18.5365 15.491C19.3766 15.5056 19.9559 15.4994 20.2359 15.4728C20.4696 15.4507 20.789 15.4242 20.9457 15.4139C21.1023 15.4037 21.2569 15.3727 21.2892 15.345C21.3214 15.3174 21.4336 15.2947 21.5384 15.2947C21.6432 15.2947 21.7923 15.2762 21.8697 15.2536C22.3995 15.0987 26.434 15.0393 26.434 15.1863C26.434 15.2121 26.2264 15.3529 25.7448 15.6538C25.6323 15.7241 25.0497 16.044 24.4501 16.3648C23.5409 16.8512 22.9337 17.187 22.6602 17.3545C22.6327 17.3713 22.3321 17.5958 21.9921 17.8532C20.5941 18.912 19.1342 19.6406 17.8795 19.9058C17.704 19.9428 17.6329 19.9792 17.5928 20.0525C17.5252 20.1759 17.3072 20.452 17.2388 20.5007C17.1251 20.5816 17.1807 20.6391 17.3493 20.6148C17.4387 20.6019 17.6272 20.5794 17.7683 20.5649ZM5.24059 10.1779C5.24059 10.1416 5.31592 10.0415 5.408 9.95558C5.63917 9.73979 5.74043 9.59044 5.74043 9.46526C5.74043 9.32622 5.6738 9.34409 6.87091 9.16206C9.54931 8.75479 10.6965 8.65011 12.7469 8.62588C23.5624 8.49809 26.7369 8.42747 30.1744 8.2382C31.0491 8.19004 31.0475 8.18972 31.2877 8.45925C31.8069 9.0418 30.3369 9.4247 28.0585 9.3004C27.8386 9.2884 26.7926 9.27395 25.7342 9.26829C23.8098 9.25799 23.8098 9.25799 22.7648 9.10824C21.2393 8.88964 20.7926 8.90232 20.3534 9.17672C20.1475 9.30542 20.2133 9.30496 19.7196 9.18112C18.4714 8.86803 16.9272 8.84885 14.4377 9.11554C13.5992 9.20536 12.6208 9.29649 12.2634 9.31806C10.4065 9.43009 8.66516 9.65908 6.43127 10.085C5.50257 10.262 5.24059 10.2825 5.24059 10.1779Z" fill="#D5AD2D"/>
<path d="M24.5846 49.9705C18.7609 49.7932 14.7119 49.2421 11.4805 48.187C11.0088 48.033 11.0796 48.136 10.5709 46.8619C9.68488 44.6427 9.01145 42.6321 8.29002 40.052C7.92431 38.744 7.75304 38.1973 6.90849 35.6414C5.39302 31.0551 4.81744 28.9463 4.48625 26.7669C4.40238 26.2149 4.55337 25.4602 4.79062 25.2456C4.93106 25.1185 4.93391 24.7942 4.79482 24.7683C4.71367 24.7532 4.69355 24.7044 4.66387 24.4509C4.63923 24.2404 4.60086 24.126 4.53482 24.0663C4.4711 24.0086 4.44083 23.9236 4.44083 23.8022C4.44083 23.7038 4.41834 23.6133 4.39085 23.6012C4.36082 23.588 4.34087 23.3466 4.34087 22.9965C4.34087 22.6465 4.32091 22.4051 4.29088 22.3919C4.26339 22.3798 4.2409 22.4019 4.2409 22.441C4.2409 22.8795 3.79812 22.0809 3.54001 21.177C2.87763 18.8573 1.79052 16.5522 2.0406 17.9976C2.12858 18.5062 2.29071 19.0062 2.75619 20.2044C3.30302 21.612 3.55213 22.6087 3.44091 22.9439C3.28199 23.423 2.25504 20.546 1.66316 17.9635C1.51295 17.3081 1.28741 16.3238 1.16196 15.776C0.88165 14.5521 0.620907 13.6329 0.264648 12.6128C-0.0919509 11.5918 -0.0818749 11.4262 0.361276 11.0246C1.27475 10.1967 3.9553 9.55316 4.24506 10.0921C4.44367 10.4615 3.85832 10.7174 2.26651 10.957C0.886876 11.1648 0.759272 11.3133 1.50822 11.8396C2.25699 12.3658 6.60004 12.8361 11.7386 12.9475C20.8316 13.1445 26.6059 13.1965 28.2334 13.0961C29.841 12.9969 29.9378 12.9976 30.2066 13.1097C30.4461 13.2096 30.4461 13.2096 30.7518 13.1555C31.0578 13.1015 31.1311 13.1028 32.1972 13.1824C32.4294 13.1997 32.541 13.1885 32.757 13.1261C32.9965 13.0569 33.048 13.0533 33.2168 13.0932C33.567 13.1761 36.9047 13.1522 38.0804 13.0583C41.3497 12.7975 45.2196 12.1623 46.5066 11.6753C46.6581 11.6179 47.6534 11.4463 48.3022 11.3655C48.9251 11.2881 49.3278 11.2197 49.6268 11.1408C49.9017 11.0682 49.9017 11.0682 49.934 11.3769C50.0776 12.7492 49.8629 14.9638 49.4766 16.0961C49.3752 16.3931 49.256 16.867 49.0783 17.679C49.0205 17.9431 48.9485 18.1941 48.9184 18.2368C48.8883 18.2796 48.8772 18.3516 48.8939 18.3968C48.9105 18.4421 48.8688 18.7993 48.8012 19.1906C48.4454 21.2494 48.2214 23.3375 47.8778 27.7984C47.5738 31.7464 47.4 33.528 47.1492 35.2679C47.0815 35.7374 46.993 36.4417 46.9524 36.833C46.7489 38.7974 46.4421 40.6212 45.9205 42.9686C45.7421 43.7711 45.7171 43.9597 45.7035 44.6048C45.6522 47.0372 44.3992 48.4184 42.0231 48.662C41.7928 48.6856 41.3119 48.766 40.9545 48.8407C38.0576 49.4459 34.9671 49.7668 30.7327 49.9022C27.2987 50.0119 26.3056 50.023 24.5846 49.9705ZM12.788 46.2917C12.1713 44.5025 11.8106 43.653 11.3769 42.9686C10.9125 42.2361 10.807 42.139 10.8644 42.4973C11.128 44.1444 11.7633 45.6718 12.7974 47.1447C13.3427 47.9214 13.3424 47.9004 12.788 46.2917ZM11.7071 47.477C11.887 46.9992 11.5992 45.994 10.7611 44.1735C10.2831 43.1351 9.93082 42.2321 9.86447 41.8749C9.82099 41.6408 9.7758 41.6211 9.58868 41.7542C9.28855 41.9678 9.37929 42.4097 10.0552 44.0263C10.2371 44.4613 10.4117 44.9575 10.4431 45.129C10.6281 46.1365 11.5599 47.8677 11.7071 47.477ZM28.6557 42.18C29.5678 41.7501 29.4481 40.497 28.4568 40.0975C27.5644 39.7379 27.0852 40.5216 27.4641 41.721C27.634 42.259 28.104 42.44 28.6557 42.18ZM25.9672 42.0852C26.6473 41.837 26.8732 41.009 26.4471 40.3261C26.0269 39.6529 25.1841 39.9941 25.0322 40.8989C25.0103 41.0297 24.9584 41.2905 24.917 41.4783C24.7685 42.1516 25.162 42.379 25.9672 42.0852ZM9.41734 40.8472C9.52637 40.2262 9.30023 39.329 8.56865 37.4798C8.36112 36.9553 8.12183 36.275 8.03691 35.9681C7.75922 34.9647 7.33881 34.4758 7.54186 35.3924C7.64042 35.8373 8.19685 37.8677 8.3168 38.2202C8.38339 38.4158 8.49586 38.9092 8.56675 39.3167C8.7433 40.3316 8.89816 40.7336 9.2027 40.9679C9.35365 41.084 9.37819 41.0702 9.41734 40.8472ZM24.4477 39.6963C24.9568 39.5009 25.4765 39.4117 26.1046 39.4119C26.5878 39.4123 26.9522 39.4476 28.3334 39.629C30.0191 39.8504 31.0099 39.6838 30.893 39.1984C30.628 38.099 29.8424 37.8577 27.4299 38.1348C26.0226 38.2965 25.0035 38.3041 24.4309 38.1572C23.9785 38.0412 24.0061 38.0421 23.6703 38.1315C22.4561 38.4548 22.5095 39.4848 23.755 39.7658C23.9226 39.8036 24.0636 39.8355 24.0684 39.8366C24.0732 39.8377 24.2438 39.7745 24.4477 39.6963ZM20.9856 37.4151C24.7931 36.7942 26.0209 33.406 23.0156 31.8128C21.0779 30.7855 19.8644 30.7108 16.837 31.4327C16.2184 31.5802 15.6616 31.7236 15.5995 31.7514C15.3789 31.8502 15.0376 32.2004 15.0376 32.3281C15.0376 32.3936 14.9492 32.6031 14.8413 32.7936C13.4112 35.3177 17.0523 38.0565 20.9856 37.4151ZM16.1622 35.4761C14.6644 35.3169 14.3416 34.4094 15.488 33.5808C16.3208 32.9789 17.2906 32.9268 18.0025 33.4457C19.4112 34.4724 18.296 35.7028 16.1622 35.4761ZM35.1529 36.9163C37.7683 36.6036 39.4082 34.464 38.3297 32.7714C35.8044 28.8081 26.7349 30.712 28.7239 34.7879C29.5743 36.5305 31.9103 37.3039 35.1529 36.9163ZM30.0579 35.2714C28.8921 35.0672 28.5139 34.309 29.1386 33.4284C29.9196 32.3274 31.5908 32.3404 32.4152 33.4539C32.9131 34.1264 32.8003 34.3505 31.9928 34.2926C31.2665 34.2405 31.0282 34.3143 31.3833 34.4815C31.642 34.6034 31.9728 34.8154 32.0366 34.9003C32.2361 35.1654 30.8919 35.4176 30.0579 35.2714ZM17.4839 20.5967C17.5336 20.5778 17.7146 20.5583 17.886 20.5535C18.1371 20.5465 18.2044 20.5319 18.232 20.4788C18.262 20.4211 18.335 20.4113 18.8138 20.401C19.5335 20.3854 19.8186 20.3569 20.061 20.2761C20.2774 20.204 22.358 20.1462 23.7348 20.174C26.1834 20.2234 31.5575 20.1734 31.6255 20.1006C31.6898 20.0316 31.7415 20.0265 32.3757 20.026C33.0883 20.0254 33.379 19.9848 33.4977 19.8693C33.5582 19.8104 33.7289 19.8067 36.1587 19.8109C38.8049 19.8155 39.6777 19.7858 39.8338 19.6858C39.8883 19.6509 40.038 19.6353 40.3182 19.6353C40.5412 19.6353 40.7376 19.6193 40.7545 19.5997C40.7743 19.5769 41.5126 19.5641 42.8051 19.5641C44.7519 19.5641 44.8266 19.5616 44.8766 19.4952C44.9214 19.4356 45.0013 19.4237 45.4657 19.4072C46.5706 19.3678 46.8516 19.3457 46.9362 19.2916C47.0011 19.25 47.1287 19.2403 47.5084 19.2482C47.997 19.2583 47.997 19.2583 48.0575 19.1C48.0908 19.0129 48.1632 18.8536 48.2183 18.746C48.2983 18.5898 48.3255 18.4177 48.3533 17.8924C48.3912 17.1736 48.4264 16.9443 48.5606 16.5407C48.6683 16.2171 48.671 14.0586 48.5648 13.215C48.4985 12.6886 47.1335 12.4908 46.123 12.8613C45.9562 12.9225 41.9092 13.2638 38.7802 13.4807C35.6165 13.7 31.6255 13.9083 29.483 13.9659C28.913 13.9813 28.5621 14.0061 28.4757 14.0371C28.3623 14.0778 28.3045 14.076 28.0759 14.0243C27.8965 13.9838 27.6359 13.9636 27.2837 13.9629C26.7704 13.962 26.759 13.9602 26.763 13.8811C26.7684 13.7738 26.7747 13.7744 25.3093 13.7503C13.587 13.5577 5.73231 13.2701 1.48701 12.8779C0.992561 12.8323 0.941922 12.8334 0.941922 12.8899C0.941922 12.9888 1.34663 13.2624 1.66652 13.3797C2.06906 13.5274 2.07512 13.5921 1.69111 13.6419C1.2794 13.6952 1.29181 13.6606 1.45345 14.3043C2.10188 16.8865 3.05518 17.471 5.06769 16.5204C6.22514 15.9737 13.6418 15.4075 18.5365 15.4921C19.3766 15.5067 19.9559 15.5004 20.2359 15.4739C20.4696 15.4518 20.789 15.4253 20.9457 15.415C21.1023 15.4048 21.2569 15.3738 21.2892 15.3461C21.3214 15.3184 21.4336 15.2958 21.5384 15.2958C21.6432 15.2958 21.7923 15.2773 21.8697 15.2547C22.3995 15.0998 26.434 15.0403 26.434 15.1874C26.434 15.2132 26.2264 15.354 25.7448 15.6548C25.6323 15.7252 25.0497 16.0451 24.4501 16.3659C23.5409 16.8523 22.9337 17.1881 22.6602 17.3556C22.6327 17.3724 22.3321 17.5968 21.9921 17.8543C20.5941 18.9131 19.1342 19.6417 17.8795 19.9068C17.704 19.9439 17.6329 19.9803 17.5928 20.0536C17.5252 20.177 17.3072 20.4531 17.2388 20.5017C17.0936 20.6051 17.2761 20.6759 17.4839 20.5967ZM5.24059 10.179C5.24059 10.1427 5.31592 10.0426 5.408 9.95666C5.63917 9.74087 5.74043 9.59152 5.74043 9.46634C5.74043 9.3273 5.6738 9.34517 6.87091 9.16314C9.54931 8.75587 10.6965 8.65119 12.7469 8.62696C23.5624 8.49917 26.7369 8.42855 30.1744 8.23928C31.0491 8.19112 31.0475 8.1908 31.2877 8.46033C31.8069 9.04288 30.3369 9.42579 28.0585 9.30148C27.8386 9.28948 26.7926 9.27503 25.7342 9.26937C23.8098 9.25908 23.8098 9.25908 22.7648 9.10932C21.2393 8.89072 20.7926 8.9034 20.3534 9.1778C20.1475 9.3065 20.2133 9.30604 19.7196 9.1822C18.4714 8.86911 16.9272 8.84993 14.4377 9.11662C13.5992 9.20644 12.6208 9.29757 12.2634 9.31914C10.4065 9.43117 8.66516 9.66016 6.43127 10.0861C5.50257 10.2631 5.24059 10.2836 5.24059 10.179Z" fill="#28A8DD"/>
<path d="M24.5846 49.9705C18.7609 49.7932 14.7119 49.2421 11.4805 48.187C11.0088 48.033 11.0796 48.136 10.5709 46.8619C9.68488 44.6427 9.01145 42.6321 8.29002 40.052C7.92431 38.744 7.75304 38.1973 6.90849 35.6414C5.39302 31.0551 4.81744 28.9463 4.48625 26.7669C4.39355 26.1568 4.56587 25.4097 4.84509 25.211C5.0274 25.0813 5.05142 24.8358 4.89213 24.7302C4.81926 24.6819 4.78156 24.5884 4.74741 24.3712C4.7209 24.2025 4.66917 24.0518 4.62594 24.0172C4.53008 23.9405 4.4928 23.7152 4.45012 22.9549C4.43127 22.619 4.39775 22.3314 4.37564 22.3157C4.32743 22.2816 4.24273 22.3677 4.24166 22.452C4.23632 22.8722 3.79512 22.0704 3.54001 21.177C2.87763 18.8573 1.79052 16.5522 2.0406 17.9976C2.12858 18.5062 2.29071 19.0062 2.75619 20.2044C3.30302 21.612 3.55213 22.6087 3.44091 22.9439C3.28199 23.423 2.25504 20.546 1.66316 17.9635C1.51295 17.3081 1.28741 16.3238 1.16196 15.776C0.88165 14.5521 0.620907 13.6329 0.264648 12.6128C-0.0919509 11.5918 -0.0818749 11.4262 0.361276 11.0246C1.27475 10.1967 3.9553 9.55316 4.24506 10.0921C4.44367 10.4615 3.85832 10.7174 2.26651 10.957C0.886876 11.1648 0.759272 11.3133 1.50822 11.8396C2.25699 12.3658 6.60004 12.8361 11.7386 12.9475C20.8316 13.1445 26.6059 13.1965 28.2334 13.0961C29.841 12.9969 29.9378 12.9976 30.2066 13.1097C30.4461 13.2096 30.4461 13.2096 30.7518 13.1555C31.0578 13.1015 31.1311 13.1028 32.1972 13.1824C32.4294 13.1997 32.541 13.1885 32.757 13.1261C32.9965 13.0569 33.048 13.0533 33.2168 13.0932C33.567 13.1761 36.9047 13.1522 38.0804 13.0583C41.3497 12.7975 45.2196 12.1623 46.5066 11.6753C46.6581 11.6179 47.6534 11.4463 48.3022 11.3655C48.9251 11.2881 49.3278 11.2197 49.6268 11.1408C49.9017 11.0682 49.9017 11.0682 49.934 11.3769C50.0776 12.7492 49.8629 14.9638 49.4766 16.0961C49.3752 16.3931 49.256 16.867 49.0783 17.679C49.0205 17.9431 48.9485 18.1941 48.9184 18.2368C48.8883 18.2796 48.8772 18.3516 48.8939 18.3968C48.9105 18.4421 48.8688 18.7993 48.8012 19.1906C48.4454 21.2494 48.2214 23.3375 47.8778 27.7984C47.5738 31.7464 47.4 33.528 47.1492 35.2679C47.0815 35.7374 46.993 36.4417 46.9524 36.833C46.7489 38.7974 46.4421 40.6212 45.9205 42.9686C45.7421 43.7711 45.7171 43.9597 45.7035 44.6048C45.6522 47.0372 44.3992 48.4184 42.0231 48.662C41.7928 48.6856 41.3119 48.766 40.9545 48.8407C38.0576 49.4459 34.9671 49.7668 30.7327 49.9022C27.2987 50.0119 26.3056 50.023 24.5846 49.9705ZM12.788 46.2917C12.1713 44.5025 11.8106 43.653 11.3769 42.9686C10.9125 42.2361 10.807 42.139 10.8644 42.4973C11.128 44.1444 11.7633 45.6718 12.7974 47.1447C13.3427 47.9214 13.3424 47.9004 12.788 46.2917ZM11.7071 47.477C11.887 46.9992 11.5992 45.994 10.7611 44.1735C10.2831 43.1351 9.93082 42.2321 9.86447 41.8749C9.82099 41.6408 9.7758 41.6211 9.58868 41.7542C9.28855 41.9678 9.37929 42.4097 10.0552 44.0263C10.2371 44.4613 10.4117 44.9575 10.4431 45.129C10.6281 46.1365 11.5599 47.8677 11.7071 47.477ZM28.6557 42.18C29.5678 41.7501 29.4481 40.497 28.4568 40.0975C27.5644 39.7379 27.0852 40.5216 27.4641 41.721C27.634 42.259 28.104 42.44 28.6557 42.18ZM25.9672 42.0852C26.6473 41.837 26.8732 41.009 26.4471 40.3261C26.0269 39.6529 25.1841 39.9941 25.0322 40.8989C25.0103 41.0297 24.9584 41.2905 24.917 41.4783C24.7685 42.1516 25.162 42.379 25.9672 42.0852ZM9.41734 40.8472C9.52637 40.2262 9.30023 39.329 8.56865 37.4798C8.36112 36.9553 8.12183 36.275 8.03691 35.9681C7.75922 34.9647 7.33881 34.4758 7.54186 35.3924C7.64042 35.8373 8.19685 37.8677 8.3168 38.2202C8.38339 38.4158 8.49586 38.9092 8.56675 39.3167C8.7433 40.3316 8.89816 40.7336 9.2027 40.9679C9.35365 41.084 9.37819 41.0702 9.41734 40.8472ZM24.4477 39.6963C24.9568 39.5009 25.4765 39.4117 26.1046 39.4119C26.5878 39.4123 26.9522 39.4476 28.3334 39.629C30.0191 39.8504 31.0099 39.6838 30.893 39.1984C30.628 38.099 29.8424 37.8577 27.4299 38.1348C26.0226 38.2965 25.0035 38.3041 24.4309 38.1572C23.9785 38.0412 24.0061 38.0421 23.6703 38.1315C22.4561 38.4548 22.5095 39.4848 23.755 39.7658C23.9226 39.8036 24.0636 39.8355 24.0684 39.8366C24.0732 39.8377 24.2438 39.7745 24.4477 39.6963ZM20.9856 37.4151C24.7931 36.7942 26.0209 33.406 23.0156 31.8128C21.0287 30.7594 19.7622 30.6997 16.5263 31.5068C15.8476 31.676 15.5247 31.7411 15.4891 31.7158C15.4535 31.6904 15.4374 31.6981 15.4374 31.7406C15.4374 31.7744 15.4056 31.8108 15.3666 31.8215C15.219 31.8618 15.0512 32.0983 15.0413 32.2799C15.0353 32.3904 14.9585 32.5867 14.8384 32.7988C13.4112 35.3178 17.057 38.0557 20.9856 37.4151ZM16.1622 35.4761C14.6644 35.3169 14.3416 34.4094 15.488 33.5808C16.3208 32.9789 17.2906 32.9268 18.0025 33.4457C19.4112 34.4724 18.296 35.7028 16.1622 35.4761ZM35.1529 36.9163C37.7683 36.6036 39.4082 34.464 38.3297 32.7714C35.8044 28.8081 26.7349 30.712 28.7239 34.7879C29.5743 36.5305 31.9103 37.3039 35.1529 36.9163ZM30.0579 35.2714C28.8921 35.0672 28.5139 34.309 29.1386 33.4284C29.9196 32.3274 31.5908 32.3404 32.4152 33.4539C32.9131 34.1264 32.8003 34.3505 31.9928 34.2926C31.2665 34.2405 31.0282 34.3143 31.3833 34.4815C31.642 34.6034 31.9728 34.8154 32.0366 34.9003C32.2361 35.1654 30.8919 35.4176 30.0579 35.2714ZM27.1492 23.1008C27.186 23.0091 27.1686 22.9642 27.0401 22.82C26.0578 21.7178 27.1538 20.1861 28.7054 20.4927C29.3401 20.6181 29.3422 20.8675 28.7171 21.8398C28.1266 22.7583 28.1719 22.9254 29.0111 22.9254C29.6053 22.9254 29.5778 22.9547 29.6333 22.2635C29.7762 20.4872 30.5289 19.8878 32.1322 20.2737C32.5483 20.3738 32.5554 20.3798 32.6811 20.7327C33.163 22.0868 33.8201 22.4709 35.5562 22.4134C36.7876 22.3725 37.0615 22.1868 37.533 21.073C37.9344 20.1248 38.2126 19.8924 39.0431 19.8116C39.2421 19.7923 39.5062 19.7614 39.6299 19.743C40.1545 19.6649 40.6742 19.7199 40.8105 19.8679C40.9265 19.9939 40.9946 19.9373 40.9676 19.7373C40.9442 19.5641 40.9442 19.5641 42.8845 19.5641C44.7528 19.5641 44.8267 19.5616 44.8766 19.4952C44.9214 19.4356 45.0013 19.4237 45.4657 19.4072C46.5706 19.3678 46.8516 19.3457 46.9362 19.2916C47.0011 19.25 47.1287 19.2403 47.5084 19.2482C47.997 19.2583 47.997 19.2583 48.0575 19.1C48.0908 19.0129 48.1632 18.8536 48.2183 18.746C48.2983 18.5898 48.3255 18.4177 48.3533 17.8924C48.3912 17.1736 48.4264 16.9443 48.5606 16.5407C48.6683 16.2171 48.671 14.0586 48.5648 13.215C48.4985 12.6886 47.1335 12.4908 46.123 12.8613C45.9562 12.9225 41.9092 13.2638 38.7802 13.4807C35.6165 13.7 31.6255 13.9083 29.483 13.9659C28.913 13.9813 28.5621 14.0061 28.4757 14.0371C28.3623 14.0778 28.3045 14.076 28.0759 14.0243C27.8965 13.9838 27.6359 13.9636 27.2837 13.9629C26.7704 13.962 26.759 13.9602 26.763 13.8811C26.7684 13.7738 26.7747 13.7744 25.3093 13.7503C13.587 13.5577 5.73231 13.2701 1.48701 12.8779C0.992561 12.8323 0.941922 12.8334 0.941922 12.8899C0.941922 12.9888 1.34663 13.2624 1.66652 13.3797C2.06906 13.5274 2.07512 13.5921 1.69111 13.6419C1.2794 13.6952 1.29181 13.6606 1.45345 14.3043C2.10188 16.8865 3.05518 17.471 5.06769 16.5204C6.02536 16.0681 9.8924 15.6978 15.4436 15.5269C19.869 15.3907 18.8761 15.5908 13.0632 16.0066C10.1998 16.2114 8.85377 16.3437 7.46489 16.5568C7.16249 16.6032 6.75712 16.6494 6.56409 16.6594C4.88261 16.7463 3.27713 18.1874 4.12109 18.8521C4.37054 19.0486 4.73139 19.1371 5.42194 19.1713C5.72787 19.1865 5.99937 19.2082 6.02528 19.2196C6.05119 19.231 6.37445 19.2796 6.74365 19.3277C7.52999 19.4301 7.6903 19.4688 7.72548 19.5645C7.74918 19.629 7.79449 19.6353 8.23939 19.6353C8.68229 19.6353 8.73385 19.6423 8.79823 19.7113C8.85749 19.7748 8.93221 19.7902 9.25228 19.8048C9.54148 19.818 9.65615 19.8386 9.72003 19.8888C9.77433 19.9315 9.8725 19.9554 9.99391 19.9554C10.098 19.9554 10.197 19.9714 10.214 19.9909C10.231 20.0105 10.3602 20.0265 10.5012 20.0265C10.6982 20.0265 10.7851 20.045 10.877 20.1065C10.9914 20.1831 11.04 20.1871 11.988 20.1981C12.8914 20.2086 12.9871 20.2157 13.0665 20.2781C13.1571 20.3493 13.638 20.3807 13.638 20.3154C13.638 20.1907 14.5008 20.0871 15.6124 20.0782C16.4094 20.0718 16.7081 20.0552 17.0859 19.9961C17.7137 19.8979 17.7345 19.9207 17.3891 20.3289C17.3063 20.4267 17.2169 20.5414 17.1905 20.5838C17.1641 20.6263 17.081 20.6823 17.006 20.7083C16.9309 20.7344 16.7803 20.8489 16.6713 20.9629C16.5205 21.1206 16.4122 21.1905 16.2177 21.256C15.3789 21.5383 14.698 22.0184 15.1364 22.0184C15.2489 22.0184 15.3947 22.0434 15.4604 22.0741C15.5687 22.1246 15.5938 22.1246 15.731 22.0741C15.8142 22.0434 15.914 22.0184 15.9527 22.0184C15.9914 22.0184 16.1094 21.9184 16.2149 21.7961C16.5473 21.411 17.93 20.4976 18.1073 20.546C18.1591 20.5602 18.1996 20.5412 18.2261 20.4902C18.2635 20.4183 18.3051 20.4119 18.8138 20.4006C19.4585 20.3863 19.8898 20.3516 19.965 20.3081C19.9976 20.2892 20.152 20.3135 20.3551 20.3693C20.933 20.5282 20.9752 20.7056 20.4797 20.8928C19.6035 21.2237 19.4551 21.9398 20.147 22.499C20.7431 22.981 21.7447 22.8843 21.1777 22.3995C20.097 21.4754 20.8541 20.7027 23.1351 20.4017C24.5893 20.2099 26.7228 20.5382 26.3302 20.8934C25.9893 21.2017 25.9896 21.6315 26.331 22.6222C26.4151 22.8662 26.484 23.1031 26.484 23.1485C26.484 23.2952 27.0886 23.2519 27.1492 23.1008ZM34.4756 21.827C33.0269 21.4586 33.0436 20.3208 34.4973 20.3507C34.903 20.359 34.9912 20.3491 35.2563 20.2653C36.2902 19.9384 37.2622 20.4762 36.9618 21.209C36.7851 21.6403 36.432 21.8026 35.5811 21.8438C34.7964 21.8817 34.684 21.88 34.4756 21.827ZM5.24059 10.179C5.24059 10.1427 5.31592 10.0426 5.408 9.95666C5.63917 9.74087 5.74043 9.59152 5.74043 9.46634C5.74043 9.3273 5.6738 9.34517 6.87091 9.16314C9.54931 8.75587 10.6965 8.65119 12.7469 8.62696C23.5624 8.49917 26.7369 8.42855 30.1744 8.23928C31.0491 8.19112 31.0475 8.1908 31.2877 8.46033C31.8069 9.04288 30.3369 9.42579 28.0585 9.30148C27.8386 9.28948 26.7926 9.27503 25.7342 9.26937C23.8098 9.25908 23.8098 9.25908 22.7648 9.10932C21.2393 8.89072 20.7926 8.9034 20.3534 9.1778C20.1475 9.3065 20.2133 9.30604 19.7196 9.1822C18.4714 8.86911 16.9272 8.84993 14.4377 9.11662C13.5992 9.20644 12.6208 9.29757 12.2634 9.31914C10.4065 9.43117 8.66516 9.66016 6.43127 10.0861C5.50257 10.2631 5.24059 10.2836 5.24059 10.179Z" fill="#3698A6"/>
<path d="M25.5124 49.9882C18.9351 49.7376 15.8039 49.3695 12.5414 48.4633C11.1224 48.0692 11.1187 48.0674 10.9737 47.7289C10.095 45.6769 9.1785 43.0188 8.41252 40.301C7.96701 38.7203 7.81322 38.2279 6.92276 35.532C4.66388 28.693 4.09569 25.8841 4.84785 25.2745C5.03242 25.1249 5.05744 24.8372 4.89522 24.7296C4.82236 24.6813 4.78466 24.5878 4.75051 24.3706C4.72399 24.2019 4.67227 24.0512 4.62903 24.0166C4.533 23.9397 4.49581 23.7142 4.45322 22.9501C4.42647 22.4703 4.40298 22.3282 4.34635 22.3033C4.24438 22.2586 4.19427 22.2908 4.19242 22.4023C4.18697 22.7302 3.78016 21.8655 3.54298 21.0219C2.81547 18.4341 1.5291 16.1104 2.07383 18.368C2.16347 18.7395 2.42579 19.4827 2.81264 20.4613C3.14361 21.2986 3.3289 21.9362 3.389 22.4446C3.58053 24.0648 2.35787 20.8091 1.71924 17.9985C0.844099 14.1469 0.596319 13.2364 0.112464 12.094C-0.096422 11.6008 0.00334807 11.343 0.564516 10.9257C1.74527 10.0476 4.4192 9.55876 4.22302 10.2568C4.14203 10.5449 3.60594 10.7264 2.24751 10.9255C0.842326 11.1315 0.700003 11.3036 1.48077 11.8526C2.09595 12.2852 5.45494 12.7371 9.34241 12.9103C10.0654 12.9425 10.91 12.9629 15.3405 13.0554C21.3048 13.1798 26.8171 13.2119 28.2115 13.1302C29.8331 13.0353 30.0199 13.0349 30.247 13.1257C30.4295 13.1987 30.4755 13.2032 30.6809 13.1685C30.9002 13.1315 31.069 13.1369 32.2421 13.2185C32.4778 13.2349 32.5688 13.223 32.7987 13.1456C33.0341 13.0663 33.0942 13.0589 33.2168 13.0937C33.498 13.1735 36.9543 13.148 38.0835 13.0578C41.3548 12.7966 45.2228 12.1616 46.5097 11.6747C46.6612 11.6173 47.6565 11.4457 48.3053 11.365C48.9369 11.2864 49.3358 11.2192 49.5947 11.1477C50.0332 11.0266 50.137 12.6779 49.8028 14.457C49.6201 15.4293 49.5794 15.6177 49.4837 15.9355C49.4277 16.1213 49.3505 16.3774 49.3121 16.5046C48.7581 18.3401 48.281 21.9891 47.831 27.8334C47.5042 32.0764 47.347 33.6478 47.0321 35.8186C46.9796 36.1806 46.9229 36.6287 46.9062 36.8146C46.7585 38.4532 46.4274 40.4272 45.8548 43.0839C45.6771 43.9082 45.64 44.1602 45.6635 44.3821C45.9058 46.6649 44.4252 48.3649 41.9573 48.6376C41.7098 48.6649 41.1115 48.769 40.6276 48.869C38.1826 49.3739 35.4088 49.6753 31.7604 49.8324C29.3987 49.9341 26.1919 50.0141 25.5124 49.9882ZM25.2957 49.4856C25.4791 49.355 24.9373 49.2929 22.5883 49.1751C22.0247 49.1468 21.2824 49.0998 20.9388 49.0707C19.0613 48.9116 17.5737 48.9025 18.1242 49.0535C19.122 49.3272 25.0189 49.6825 25.2957 49.4856ZM13.2912 47.6499C13.2912 47.558 12.3988 45.0143 12.1728 44.462C11.7557 43.4428 11.0153 42.1855 10.8321 42.1855C10.6609 42.1855 11.0858 43.9157 11.496 44.8888C12.0368 46.1716 13.2912 48.101 13.2912 47.6499ZM11.7482 47.5002C11.9217 46.9302 11.6704 46.0352 10.8152 44.1774C10.3452 43.1562 9.9873 42.244 9.91518 41.8832C9.86904 41.6524 9.82057 41.6088 9.66592 41.6589C9.2195 41.8036 9.28844 42.3117 9.97355 43.9259C10.1515 44.3452 10.3315 44.8494 10.3736 45.0464C10.6435 46.3092 11.5942 48.0063 11.7482 47.5002ZM28.6421 42.2262C29.4387 41.8667 29.578 41.044 28.9499 40.4086C27.9084 39.3549 26.8366 40.3923 27.459 41.8516C27.6475 42.2936 28.1443 42.4508 28.6421 42.2262ZM25.9703 42.12C26.8361 41.8031 26.9814 40.5934 26.222 40.0247C25.7681 39.6848 25.1019 40.1762 24.9819 40.9392C24.9566 41.1003 24.9143 41.2986 24.8879 41.3798C24.6527 42.105 25.1263 42.4288 25.9703 42.12ZM9.46312 40.8488C9.57933 40.3138 9.33576 39.3104 8.68959 37.6623C8.44162 37.0297 8.16087 36.2356 8.0657 35.8975C7.83439 35.0757 7.443 34.5181 7.443 35.0103C7.443 35.2588 7.9977 37.4073 8.26698 38.2018C8.3366 38.4072 8.45077 38.9034 8.5207 39.3044C8.70625 40.3687 8.82409 40.6871 9.12505 40.9373C9.35105 41.1251 9.40624 41.1107 9.46312 40.8488ZM24.4566 39.6958C25.3476 39.3478 26.0949 39.3271 28.0616 39.5959C30.6664 39.952 31.7092 39.4148 30.4096 38.3862C29.8775 37.965 29.321 37.9194 27.3868 38.1385C26.0961 38.2848 24.9839 38.2971 24.5127 38.1703C23.9393 38.0161 23.579 38.0697 23.1366 38.375C22.3802 38.897 22.8861 39.6826 24.0777 39.8361C24.0858 39.8371 24.2564 39.774 24.4566 39.6958ZM21.0501 37.4404C21.5998 37.3412 21.7396 37.295 22.6044 36.9271C25.4707 35.7079 25.4756 32.7523 22.6133 31.5774C22.4208 31.4984 22.1397 31.3819 21.9885 31.3185C20.6153 30.743 19.2961 30.7742 16.6401 31.4451C16.159 31.5666 15.7024 31.6651 15.6255 31.6639C15.5217 31.6623 15.4736 31.6841 15.4393 31.7483C15.4138 31.7959 15.3738 31.8349 15.3503 31.8349C15.2378 31.8349 14.9907 32.153 14.9907 32.2978C14.9907 32.3886 14.9137 32.5824 14.7934 32.7949C13.3536 35.3361 17.1387 38.1465 21.0501 37.4404ZM16.0374 35.4271C14.7092 35.267 14.4574 34.4128 15.5057 33.6233C16.3163 33.0126 17.2247 32.9539 17.9413 33.4657C19.4028 34.5095 18.2529 35.6942 16.0374 35.4271ZM35.2352 36.9391C38.4102 36.4897 39.6981 34.0056 37.7699 32.0502C34.8395 29.0785 27.626 30.8067 28.489 34.2737C29.0049 36.3463 31.7529 37.432 35.2352 36.9391ZM30.1063 35.2484C28.7201 35.0529 28.4662 33.8443 29.6352 33.0067C30.6662 32.268 32.1318 32.694 32.6092 33.871C32.7579 34.2377 32.6655 34.2888 31.9021 34.2621C31.0217 34.2314 30.9516 34.2885 31.5065 34.5847C31.9464 34.8195 32.0779 34.939 31.9845 35.019C31.7557 35.2152 30.7455 35.3386 30.1063 35.2484ZM30.1609 26.661C30.5183 26.6505 30.8895 26.6326 30.9857 26.6212C31.0819 26.6098 31.2281 26.5949 31.3106 26.5882C31.393 26.5816 31.5617 26.5669 31.6855 26.5556C31.8092 26.5444 31.9891 26.5281 32.0853 26.5195C32.1816 26.5109 32.339 26.4947 32.4352 26.4837C32.5314 26.4726 32.6776 26.4566 32.7601 26.4482C32.9121 26.4327 33.412 26.3709 34.1847 26.2723C37.4984 25.8494 39.8095 25.0896 42.2884 23.6079C42.3606 23.5648 42.515 23.4735 42.6317 23.405C42.7483 23.3365 42.9388 23.2165 43.055 23.1382C43.1712 23.06 43.4181 22.8999 43.6037 22.7825C43.7893 22.6652 44.0591 22.4891 44.2032 22.3913C44.7191 22.0411 45.2719 21.686 45.7371 21.4058C45.8575 21.3332 46.0235 21.2329 46.106 21.1828C46.1884 21.1327 46.3619 21.032 46.4914 20.959C46.6563 20.866 46.7367 20.7911 46.7598 20.7089C46.7895 20.6034 46.8083 20.5927 46.9468 20.6022C47.0678 20.6105 47.114 20.5943 47.1621 20.5268C47.1957 20.4794 47.2587 20.4266 47.3019 20.4094C47.3578 20.3872 47.3806 20.3243 47.3806 20.1927C47.3806 20.0345 47.3971 20.0021 47.493 19.9721C47.5549 19.9528 47.6123 19.9032 47.6206 19.8618C47.6289 19.8205 47.6889 19.7694 47.7541 19.7483C47.8515 19.7167 47.8787 19.6733 47.9076 19.5033C47.9269 19.3897 47.9592 19.2808 47.9792 19.2612C47.9993 19.2416 48.0394 19.1616 48.0684 19.0833C48.0973 19.0051 48.1662 18.853 48.2213 18.7454C48.3014 18.5892 48.3286 18.4173 48.3564 17.8918C48.3943 17.173 48.4295 16.9437 48.5637 16.5402C48.6714 16.2165 48.6741 14.058 48.5679 13.2144C48.5016 12.688 47.1366 12.4903 46.1261 12.8607C45.9593 12.9219 41.91 13.2634 38.7832 13.4801C36.3717 13.6472 33.282 13.8193 31.0856 13.9088C30.5496 13.9306 29.7511 13.9641 29.3112 13.9832C28.2693 14.0284 28.0923 14.0268 27.9989 13.9717C27.9441 13.9394 27.7523 13.9274 27.3496 13.9311C26.8052 13.9362 26.7792 13.9331 26.8035 13.8669C26.8443 13.7558 26.7055 13.7421 25.2874 13.7174C12.8725 13.5007 6.11671 13.2524 1.42118 12.8404C0.897346 12.7944 0.895035 12.7945 0.895035 12.8727C0.895035 12.9821 1.31518 13.2822 1.64167 13.406C2.00689 13.5445 2.01736 13.5765 1.70728 13.6065C1.21312 13.6543 1.22754 13.6078 1.44666 14.4471C2.09011 16.9121 3.17309 17.5306 5.11128 16.5401C5.70025 16.2391 8.99576 15.8338 12.0416 15.6877C13.3719 15.6239 13.6201 15.6145 15.3905 15.561C17.4354 15.4991 17.9282 15.4955 17.8617 15.5429C17.7961 15.5895 15.9861 15.7705 14.4658 15.8825C10.0025 16.2111 9.4084 16.2647 7.79289 16.4848C7.31179 16.5503 6.71572 16.6218 6.4683 16.6437C3.79016 16.8802 2.86932 19.0675 5.39364 19.1964C6.29474 19.2424 7.69292 19.4772 7.69292 19.5826C7.69292 19.625 7.78942 19.6347 8.21166 19.6347C8.68605 19.6347 8.73646 19.6412 8.80133 19.7107C8.86059 19.7742 8.93531 19.7896 9.25538 19.8042C9.54457 19.8174 9.65924 19.838 9.72313 19.8882C9.77743 19.9309 9.87559 19.9548 9.997 19.9548C10.1011 19.9548 10.2001 19.9708 10.2171 19.9904C10.2341 20.0099 10.3633 20.0259 10.5043 20.0259C10.7013 20.0259 10.7882 20.0444 10.8801 20.106C10.9944 20.1824 11.0433 20.1865 11.983 20.1975C12.8598 20.2077 12.9771 20.2161 13.0662 20.2753C13.2034 20.3662 13.6358 20.3854 13.7481 20.3055C13.9257 20.1791 14.7037 20.0893 15.5731 20.0949C16.2911 20.0995 17.1075 20.0449 17.4524 19.9692C17.6856 19.918 17.1768 20.6316 16.9275 20.7053C16.8519 20.7277 16.7897 20.764 16.7891 20.7861C16.7862 20.9113 16.4749 21.1701 16.2271 21.2534C14.0912 21.9712 14.0534 23.5321 16.1484 24.5012C17.5055 25.129 17.7585 25.2384 18.3396 25.4481C19.7082 25.942 21.5139 26.3431 22.9882 26.4807C23.1119 26.4923 23.2693 26.5089 23.3381 26.5176C23.4849 26.5363 23.8612 26.5682 24.2128 26.5917C24.3502 26.6009 24.5752 26.6165 24.7126 26.6264C24.8501 26.6363 25.1701 26.6488 25.4238 26.6541C25.6775 26.6595 25.8949 26.671 25.907 26.6795C25.936 26.7002 29.3294 26.6854 30.1609 26.661ZM5.29367 10.1606C5.29367 10.1341 5.36901 10.042 5.46109 9.95608C5.6914 9.74108 5.79351 9.59101 5.79351 9.46751C5.79351 9.38852 5.82107 9.3581 5.90598 9.34333C8.29585 8.92767 10.6901 8.68394 12.6164 8.66023C24.3504 8.51582 26.8313 8.46088 30.1359 8.27222C31.015 8.22204 31.0314 8.2248 31.239 8.45766C31.7749 9.05903 30.9632 9.26733 28.1366 9.25387C23.6212 9.23237 23.9322 9.24263 22.7747 9.07695C21.2512 8.85888 20.7732 8.87385 20.3065 9.15424C20.149 9.24886 20.149 9.24886 19.6291 9.12506C18.3375 8.81751 17.0542 8.8116 14.2659 9.10035C13.3037 9.19999 12.2118 9.29741 11.8395 9.31683C10.5426 9.38449 9.13152 9.5708 6.94674 9.96283C5.53696 10.2158 5.29367 10.2449 5.29367 10.1606Z" fill="#008ECF"/>
<path d="M25.5124 49.9882C18.9351 49.7376 15.8039 49.3695 12.5414 48.4633C11.1224 48.0692 11.1187 48.0674 10.9737 47.7289C10.095 45.6769 9.1785 43.0188 8.41252 40.301C7.96701 38.7203 7.81322 38.2279 6.92276 35.532C4.66946 28.7099 4.09461 25.8753 4.8435 25.2788C5.09193 25.081 5.29171 25.313 5.51168 26.0549C6.76601 30.2855 8.81614 35.8241 10.3502 39.1266C10.924 40.3619 10.8268 40.2434 11.2461 40.2184C11.6808 40.1925 11.6878 40.2032 11.4709 40.5626C11.0685 41.2293 11.2671 41.5671 12.5289 42.3612C13.064 42.698 13.0145 42.7968 12.3453 42.7282C11.8818 42.6807 11.9128 42.6345 12.0857 43.114C12.166 43.337 12.2786 43.6794 12.3358 43.8751C13.216 46.8851 14.0999 47.954 15.9293 48.221C21.5829 49.0463 28.0347 49.1886 36.5649 48.6764C39.9163 48.4751 42.5273 47.734 43.3625 46.7469C43.5785 46.4917 43.5844 46.5034 43.2276 46.4769C42.6518 46.4341 42.6669 46.3348 43.2767 46.1549C44.1802 45.8884 44.4622 45.6788 44.4483 45.284C44.4423 45.1127 44.4771 44.9731 44.5822 44.7483C44.9388 43.985 45.0112 43.3928 44.9283 41.9167C44.8584 40.6717 44.8796 40.1773 45.0225 39.7135C45.2434 38.997 45.3614 38.2823 45.5567 36.4767C45.6892 35.2524 45.787 34.5635 45.9052 34.0224C46.0164 33.5131 46.0736 32.97 46.1543 31.6571C46.2456 30.1696 46.3035 29.5991 46.4339 28.9004C46.596 28.0315 46.6236 27.9664 46.9189 27.7562C47.342 27.4551 47.3296 27.244 46.8598 26.7558C46.1425 26.0105 46.142 25.6199 46.8576 25.1505C47.1316 24.9707 47.1404 24.7094 46.9302 22.996C46.7077 21.1821 46.7119 20.5861 46.9471 20.6023C47.0677 20.6105 47.114 20.5943 47.162 20.5268C47.1957 20.4794 47.2587 20.4266 47.3019 20.4094C47.3578 20.3872 47.3806 20.3243 47.3806 20.1927C47.3806 20.0345 47.3971 20.0021 47.493 19.9721C47.5549 19.9528 47.6123 19.9032 47.6206 19.8618C47.6289 19.8205 47.6889 19.7694 47.7541 19.7483C47.8515 19.7167 47.8787 19.6733 47.9076 19.5033C47.9269 19.3897 47.9592 19.2808 47.9792 19.2612C47.9993 19.2416 48.0394 19.1616 48.0684 19.0833C48.0973 19.0051 48.1662 18.853 48.2213 18.7454C48.3014 18.5892 48.3286 18.4173 48.3564 17.8918C48.3943 17.173 48.4295 16.9437 48.5637 16.5402C48.6714 16.2165 48.6741 14.058 48.5679 13.2144C48.5016 12.688 47.1366 12.4903 46.1261 12.8607C45.9593 12.9219 41.91 13.2634 38.7832 13.4801C36.3717 13.6472 33.282 13.8193 31.0856 13.9088C30.5496 13.9306 29.7511 13.9641 29.3112 13.9832C28.2693 14.0284 28.0923 14.0268 27.9989 13.9717C27.9441 13.9394 27.7523 13.9274 27.3496 13.9311C26.8052 13.9362 26.7792 13.9331 26.8035 13.8669C26.8443 13.7558 26.7055 13.7421 25.2874 13.7174C12.8725 13.5007 6.11671 13.2524 1.42118 12.8404C0.897346 12.7944 0.895035 12.7945 0.895035 12.8727C0.895035 12.9821 1.31518 13.2822 1.64167 13.406C2.00689 13.5445 2.01736 13.5765 1.70728 13.6065C1.21312 13.6543 1.22754 13.6078 1.44666 14.4471C2.09011 16.9121 3.17309 17.5306 5.11128 16.5401C5.70025 16.2391 8.99576 15.8338 12.0416 15.6877C13.3719 15.6239 13.6201 15.6145 15.3905 15.561C17.4354 15.4991 17.9282 15.4955 17.8617 15.5429C17.7961 15.5895 15.9861 15.7705 14.4658 15.8825C10.0025 16.2111 9.4084 16.2647 7.79289 16.4848C7.31179 16.5503 6.71572 16.6218 6.4683 16.6437C3.79016 16.8802 2.86932 19.0675 5.39364 19.1964C5.83107 19.2187 7.44365 19.4355 7.59169 19.4919C7.76385 19.5575 7.71733 19.6658 7.48713 19.7354C7.28133 19.7975 7.28133 19.7975 7.4907 19.8961C7.66212 19.9769 7.68925 20.004 7.64039 20.0459C7.54953 20.1238 7.50553 20.1175 6.01238 19.8117C4.13628 19.4275 3.73167 19.3992 4.24399 19.688C4.63644 19.9092 4.58479 20.0006 4.12358 19.9011C3.70738 19.8112 3.73198 19.722 3.92227 20.6306C3.96939 20.8556 4.00601 21.0997 4.00365 21.1731C4.00129 21.2466 4.03257 21.4146 4.07316 21.5466C4.26243 22.1621 4.28025 22.5895 4.10974 22.424C3.99176 22.3095 3.70675 21.6044 3.54298 21.0219C2.81547 18.4341 1.5291 16.1104 2.07383 18.368C2.16347 18.7395 2.42579 19.4827 2.81264 20.4613C3.14361 21.2986 3.3289 21.9362 3.389 22.4446C3.58053 24.0648 2.35787 20.8091 1.71924 17.9985C0.844099 14.1469 0.596319 13.2364 0.112464 12.094C-0.096422 11.6008 0.00334807 11.343 0.564516 10.9257C1.74527 10.0476 4.4192 9.55876 4.22302 10.2568C4.14203 10.5449 3.60594 10.7264 2.24751 10.9255C0.842326 11.1315 0.700003 11.3036 1.48077 11.8526C2.09595 12.2852 5.45494 12.7371 9.34241 12.9103C10.0654 12.9425 10.91 12.9629 15.3405 13.0554C21.3048 13.1798 26.8171 13.2119 28.2115 13.1302C29.8331 13.0353 30.0199 13.0349 30.247 13.1257C30.4295 13.1987 30.4755 13.2032 30.6809 13.1685C30.9002 13.1315 31.069 13.1369 32.2421 13.2185C32.4778 13.2349 32.5688 13.223 32.7987 13.1456C33.0341 13.0663 33.0942 13.0589 33.2168 13.0937C33.498 13.1735 36.9543 13.148 38.0835 13.0578C41.3548 12.7966 45.2228 12.1616 46.5097 11.6747C46.6612 11.6173 47.6565 11.4457 48.3053 11.365C48.9369 11.2864 49.3358 11.2192 49.5947 11.1477C50.0332 11.0266 50.137 12.6779 49.8028 14.457C49.6201 15.4293 49.5794 15.6177 49.4837 15.9355C49.4277 16.1213 49.3505 16.3774 49.3121 16.5046C48.7581 18.3401 48.281 21.9891 47.831 27.8334C47.5042 32.0764 47.347 33.6478 47.0321 35.8186C46.9796 36.1806 46.9229 36.6287 46.9062 36.8146C46.7585 38.4532 46.4274 40.4272 45.8548 43.0839C45.6771 43.9082 45.64 44.1602 45.6635 44.3821C45.9058 46.6649 44.4252 48.3649 41.9573 48.6376C41.7098 48.6649 41.1115 48.769 40.6276 48.869C38.1826 49.3739 35.4088 49.6753 31.7604 49.8324C29.3987 49.9341 26.1919 50.0141 25.5124 49.9882ZM25.2957 49.4856C25.4791 49.355 24.9373 49.2929 22.5883 49.1751C22.0247 49.1468 21.2824 49.0998 20.9388 49.0707C19.0613 48.9116 17.5737 48.9025 18.1242 49.0535C19.122 49.3272 25.0189 49.6825 25.2957 49.4856ZM13.2912 47.6499C13.2912 47.558 12.3988 45.0143 12.1728 44.462C11.7557 43.4428 11.0153 42.1855 10.8321 42.1855C10.6609 42.1855 11.0858 43.9157 11.496 44.8888C12.0368 46.1716 13.2912 48.101 13.2912 47.6499ZM11.7482 47.5002C11.9217 46.9302 11.6704 46.0352 10.8152 44.1774C10.3452 43.1562 9.9873 42.244 9.91518 41.8832C9.86904 41.6524 9.82057 41.6088 9.66592 41.6589C9.2195 41.8036 9.28844 42.3117 9.97355 43.9259C10.1515 44.3452 10.3315 44.8494 10.3736 45.0464C10.6435 46.3092 11.5942 48.0063 11.7482 47.5002ZM9.46312 40.8488C9.57933 40.3138 9.33576 39.3104 8.68959 37.6623C8.44162 37.0297 8.16087 36.2356 8.0657 35.8975C7.83439 35.0757 7.443 34.5181 7.443 35.0103C7.443 35.2588 7.9977 37.4073 8.26698 38.2018C8.3366 38.4072 8.45077 38.9034 8.5207 39.3044C8.70625 40.3687 8.82409 40.6871 9.12505 40.9373C9.35105 41.1251 9.40624 41.1107 9.46312 40.8488ZM20.439 44.3683C20.3702 44.3612 20.1116 44.3381 19.8641 44.3168C19.6167 44.2956 18.6833 44.1748 17.7898 44.0484C15.9328 43.7857 14.9786 43.6808 14.4394 43.68C13.8425 43.6791 13.6462 43.4924 13.9871 43.2499C14.237 43.0721 14.7205 43.1117 16.216 43.4327C17.2409 43.6527 18.0042 43.7848 18.4628 43.8216C18.6562 43.8371 19.0394 43.8842 19.3143 43.9263C19.7242 43.989 22.646 44.2485 22.9422 44.2485C22.9886 44.2485 23.0383 44.2806 23.0526 44.3197C23.0774 44.387 20.9972 44.4257 20.439 44.3683ZM25.1625 42.7769C24.4956 42.5535 24.2523 42.2171 24.1121 41.3246C23.9228 40.119 23.6562 39.8501 22.4809 39.6798C22.2028 39.6394 22.1609 38.9932 22.4112 38.6041C22.6763 38.1921 23.28 37.7177 24.2585 37.1525C24.5295 36.996 24.8958 36.7684 25.0726 36.6468C25.4621 36.3789 25.5155 36.3687 26.5121 36.3738C28.7497 36.3851 31.0342 37.6426 31.7296 39.2459C31.9132 39.669 31.8932 39.6908 30.9107 40.1426C29.6911 40.7034 29.4329 40.9892 29.5847 41.6108C29.8191 42.571 29.2094 42.8676 27.6063 42.5731C26.5376 42.3768 26.0473 42.4211 25.6996 42.7456C25.552 42.8833 25.4907 42.8869 25.1625 42.7769ZM28.6421 42.2262C29.4387 41.8667 29.578 41.044 28.9499 40.4086C27.9084 39.3549 26.8366 40.3923 27.459 41.8516C27.6475 42.2936 28.1443 42.4508 28.6421 42.2262ZM25.9703 42.12C26.8361 41.8031 26.9814 40.5934 26.222 40.0247C25.7681 39.6848 25.1019 40.1762 24.9819 40.9392C24.9566 41.1003 24.9143 41.2986 24.8879 41.3798C24.6527 42.105 25.1263 42.4288 25.9703 42.12ZM24.4566 39.6958C25.3476 39.3478 26.0949 39.3271 28.0616 39.5959C30.6664 39.952 31.7092 39.4148 30.4096 38.3862C29.8775 37.965 29.321 37.9194 27.3868 38.1385C26.0961 38.2848 24.9839 38.2971 24.5127 38.1703C23.9393 38.0161 23.579 38.0697 23.1366 38.375C22.3802 38.897 22.8861 39.6826 24.0777 39.8361C24.0858 39.8371 24.2564 39.774 24.4566 39.6958ZM18.6355 37.9524C15.1272 37.5299 12.7325 34.7566 14.1356 32.7413C14.7169 31.9064 15.2712 31.9516 14.7934 32.7949C13.244 35.5295 18.0018 38.5979 21.7438 37.2773C25.4003 35.9869 25.8691 32.9138 22.6133 31.5774C22.4208 31.4984 22.1397 31.3819 21.9885 31.3185C20.6204 30.7451 19.3055 30.7745 16.6651 31.4375C15.8253 31.6484 15.7252 31.6695 15.603 31.6613C15.4931 31.6539 15.5336 31.607 15.853 31.3716C18.788 29.2089 25.1391 30.7568 25.534 33.731C25.8797 36.3346 22.4794 38.4154 18.6355 37.9524ZM33.185 37.6799C28.7705 37.3629 26.1058 34.3506 28.176 32.0174C30.9327 28.9105 37.2827 29.3202 39.1074 32.7228C40.4627 35.2501 37.2141 37.9691 33.185 37.6799ZM35.2352 36.9391C38.4102 36.4897 39.6981 34.0056 37.7699 32.0502C34.8395 29.0785 27.626 30.8067 28.489 34.2737C29.0049 36.3463 31.7529 37.432 35.2352 36.9391ZM30.1063 35.2484C28.7201 35.0529 28.4662 33.8443 29.6352 33.0067C30.6662 32.268 32.1318 32.694 32.6092 33.871C32.7579 34.2377 32.6655 34.2888 31.9021 34.2621C31.0217 34.2314 30.9516 34.2885 31.5065 34.5847C31.9464 34.8195 32.0779 34.939 31.9845 35.019C31.7557 35.2152 30.7455 35.3386 30.1063 35.2484ZM16.0374 35.4271C14.7092 35.267 14.4574 34.4128 15.5057 33.6233C16.3163 33.0126 17.2247 32.9539 17.9413 33.4657C19.4028 34.5095 18.2529 35.6942 16.0374 35.4271ZM5.29367 10.1606C5.29367 10.1341 5.36901 10.042 5.46109 9.95608C5.6914 9.74108 5.79351 9.59101 5.79351 9.46751C5.79351 9.38852 5.82107 9.3581 5.90598 9.34333C8.29585 8.92767 10.6901 8.68394 12.6164 8.66023C24.3504 8.51582 26.8313 8.46088 30.1359 8.27222C31.015 8.22204 31.0314 8.2248 31.239 8.45766C31.7749 9.05903 30.9632 9.26733 28.1366 9.25387C23.6212 9.23237 23.9322 9.24263 22.7747 9.07695C21.2512 8.85888 20.7732 8.87385 20.3065 9.15424C20.149 9.24886 20.149 9.24886 19.6291 9.12506C18.3375 8.81751 17.0542 8.8116 14.2659 9.10035C13.3037 9.19999 12.2118 9.29741 11.8395 9.31683C10.5426 9.38449 9.13152 9.5708 6.94674 9.96283C5.53696 10.2158 5.29367 10.2449 5.29367 10.1606Z" fill="#1B6F95"/>
<path d="M25.4355 49.9736C18.8989 49.7169 15.6498 49.3259 12.4281 48.4084C11.1136 48.034 11.1368 48.045 10.9997 47.7324C10.2198 45.9549 9.21789 43.0434 8.41298 40.2154C7.94441 38.5692 7.77296 38.0219 6.88443 35.3366C4.6826 28.6821 4.02256 25.2705 4.93696 25.2705C5.15341 25.2705 5.21715 25.4022 5.61706 26.6755C7.22865 31.8068 8.99784 36.5229 10.4376 39.5255C10.8453 40.3758 10.784 40.3114 11.1658 40.2896C11.5708 40.2665 11.5675 40.2612 11.361 40.5944C10.9947 41.1854 11.2216 41.5886 12.3184 42.2959C12.9359 42.6941 12.9338 42.7399 12.3016 42.6743C11.801 42.6224 11.8091 42.6166 11.9339 42.9363C11.99 43.0799 12.15 43.5655 12.2894 44.0155C13.2207 47.0202 14.0632 48.0081 15.9276 48.2813C21.4839 49.0955 28.4565 49.2318 37.0819 48.6947C40.0766 48.5083 42.8241 47.6494 43.5041 46.687C43.654 46.475 43.6474 46.4662 43.3177 46.4368C42.8007 46.3909 42.8076 46.3633 43.3799 46.1879C44.2353 45.9256 44.5012 45.7255 44.511 45.3364C44.5155 45.1596 44.5645 44.9767 44.6704 44.7415C45.0069 43.9939 45.086 43.2768 44.9898 41.8457C44.9166 40.7566 44.935 40.3181 45.0742 39.8351C45.3113 39.0125 45.4296 38.2759 45.6568 36.208C45.7266 35.5722 45.8492 34.6999 45.9293 34.2695C46.0826 33.445 46.1573 32.8396 46.2034 32.0464C46.3335 29.8112 46.4287 29.0132 46.6591 28.2253C46.7218 28.0113 46.7634 27.9546 46.9757 27.7949C47.4434 27.443 47.4275 27.2598 46.8784 26.6672C46.2275 25.9647 46.2274 25.7128 46.8781 25.2065C47.181 24.9709 47.1987 24.5526 46.9803 22.8005C46.8184 21.5015 46.8177 20.6567 46.9784 20.6292C47.0469 20.6175 47.1296 20.5698 47.1621 20.5234C47.1947 20.4769 47.2567 20.4248 47.3 20.4075C47.3547 20.3857 47.3787 20.3236 47.3787 20.2036C47.3787 20.0438 47.3898 20.0282 47.5286 19.9938C47.6111 19.9733 47.6786 19.9314 47.6786 19.9006C47.6786 19.8699 47.732 19.8274 47.7972 19.8062C47.9398 19.76 48.0546 19.5392 48.013 19.3912C47.9828 19.2835 48.0474 19.0809 48.2198 18.7436C48.2994 18.5877 48.3268 18.4142 48.3545 17.8899C48.3924 17.1711 48.4276 16.9419 48.5618 16.5383C48.6695 16.2146 48.6722 14.0561 48.566 13.2126C48.4997 12.6861 47.1347 12.4884 46.1242 12.8588C45.9574 12.92 41.9104 13.2614 38.7813 13.4782C35.6247 13.697 31.644 13.9049 29.4842 13.9638C29.0031 13.9769 28.5672 13.9984 28.5155 14.0116C28.4639 14.0248 28.3064 14.013 28.1657 13.9853C27.6955 13.8928 27.5122 13.8764 27.1724 13.8965C26.8507 13.9155 26.835 13.9129 26.835 13.8391C26.835 13.7215 27.3149 13.7381 18.9875 13.5676C11.3852 13.4119 6.78403 13.2293 2.81751 12.9257C0.713935 12.7647 0.738651 12.7637 0.941496 12.9973C1.08194 13.159 1.34146 13.3173 1.64657 13.4273C1.94774 13.5359 1.93199 13.5699 1.56546 13.6025C1.20492 13.6345 1.20899 13.6173 1.39146 14.3389C2.04914 16.9396 3.03943 17.5345 5.09627 16.5644C5.77739 16.2431 8.82479 15.8667 12.0646 15.7036C14.0928 15.6015 17.4494 15.5105 17.3806 15.5594C17.3123 15.608 15.4164 15.7716 12.6395 15.9685C10.2123 16.1406 8.66179 16.2949 7.56603 16.4733C7.31861 16.5136 6.92115 16.559 6.6828 16.5742C3.76945 16.7594 2.65884 19.0878 5.41147 19.2394C5.71676 19.2562 6.00027 19.2795 6.04151 19.2912C6.08274 19.3028 6.41256 19.3511 6.77443 19.3985C7.70568 19.5205 7.80202 19.571 7.36059 19.7056C7.09183 19.7876 7.09184 19.7871 7.3536 19.9073C7.69028 20.062 7.47002 20.0488 6.56554 19.8603C4.04166 19.3341 3.50342 19.2955 4.1228 19.6851C4.41516 19.869 4.40022 19.8965 4.04798 19.8231C3.86409 19.7847 3.76658 19.7791 3.73053 19.8047C3.67551 19.8439 3.80367 20.5505 4.16708 22.2116C4.29102 22.778 3.82232 21.9391 3.63951 21.2672C3.06937 19.1719 2.16764 17.1754 1.9201 17.4604C1.80495 17.593 2.13936 18.81 2.6448 20.0977C3.15983 21.4099 3.39234 22.2214 3.39234 22.7068C3.39234 23.5178 2.27806 20.3407 1.74659 18.0144C1.63485 17.5253 1.42088 16.589 1.27109 15.9336C0.949744 14.5276 0.718676 13.6909 0.416525 12.8391C0.124025 12.0145 0.136578 12.0457 0.0753059 11.9903C-0.123888 11.81 0.0890558 11.3145 0.514393 10.9685C1.5453 10.1299 4.19209 9.5995 4.19209 10.2315C4.19209 10.5103 3.63069 10.7012 2.16772 10.92C0.796291 11.1251 0.675532 11.2964 1.48474 11.8887C1.74567 12.0796 1.85257 12.1083 3.09243 12.3206C5.58205 12.7467 8.13835 12.932 12.6894 13.0163C13.7754 13.0364 15.4061 13.0692 16.3133 13.0892C20.9973 13.1925 26.2736 13.2245 27.7848 13.1587C29.7089 13.075 30.0688 13.0724 30.282 13.1408C30.4553 13.1964 30.5096 13.1989 30.7034 13.1603C30.8258 13.1359 30.9536 13.1282 30.9876 13.1431C31.0215 13.158 31.2538 13.1835 31.5038 13.1996C31.7539 13.2158 32.0644 13.2389 32.1939 13.251C32.4368 13.2735 32.8198 13.2002 32.9886 13.0988C33.0523 13.0606 33.0994 13.059 33.2136 13.0914C33.4962 13.1716 36.9489 13.1464 38.0816 13.056C41.3529 12.7947 45.2209 12.1597 46.5078 11.6728C46.6585 11.6157 47.6505 11.4445 48.3034 11.3628C49.0494 11.2694 49.2526 11.2357 49.5185 11.1609C49.7156 11.1054 49.7984 11.0965 49.8403 11.1264C49.9791 11.2251 50.0059 13.2452 49.8769 13.8884C49.8495 14.0253 49.7817 14.4015 49.7263 14.7242C49.6709 15.047 49.5253 15.6633 49.4027 16.0937C49.2173 16.7447 48.9408 17.9077 48.8488 18.4234C48.4413 20.7097 48.1565 23.2106 47.8545 27.1557C47.4843 31.9899 47.3501 33.3575 47.0063 35.799C46.9402 36.2685 46.8716 36.8207 46.854 37.0261C46.7301 38.4672 46.3875 40.4873 45.8269 43.0805C45.6604 43.8507 45.6292 44.0822 45.6292 44.5464C45.6292 47.0125 44.3805 48.3694 41.8784 48.6219C41.6737 48.6425 41.2952 48.7075 41.0374 48.7663C38.3529 49.3782 34.4337 49.764 29.6842 49.8839C29.2306 49.8953 28.6008 49.9195 28.2846 49.9377C27.4504 49.9855 26.1548 50.0019 25.4355 49.9736ZM25.2685 49.5087C25.7751 49.3717 24.9656 49.265 22.5843 49.1552C22.157 49.1354 21.4214 49.0879 20.9497 49.0495C18.8802 48.8812 17.5898 48.8779 18.0206 49.042C18.735 49.314 24.5936 49.6913 25.2685 49.5087ZM13.3392 47.6964C13.3392 47.0736 11.6506 43.1305 11.0583 42.3704C10.4031 41.5294 11.0246 44.1404 11.8563 45.7228C12.4991 46.9459 13.3392 48.0639 13.3392 47.6964ZM11.7957 47.3255C11.819 46.4829 11.6798 46.0207 10.8629 44.2289C10.2903 42.9731 10.1388 42.5944 9.98948 42.0461C9.8583 41.5645 9.79247 41.5125 9.54795 41.6978C9.21761 41.948 9.28184 42.3427 9.88845 43.7901C10.2464 44.6442 10.3545 44.9616 10.4135 45.3315C10.5124 45.9522 11.2098 47.3099 11.5794 47.6014C11.7038 47.6995 11.7883 47.5917 11.7957 47.3255ZM9.4601 41.0247C9.66786 40.6395 9.39457 39.3926 8.73283 37.7067C8.29244 36.5847 8.13667 36.1371 8.02001 35.6584C7.89346 35.1391 7.51972 34.6596 7.41848 34.8866C7.36289 35.0112 8.01804 37.6349 8.26361 38.271C8.30515 38.3786 8.39718 38.7948 8.46812 39.1958C8.71599 40.5969 9.20481 41.4982 9.4601 41.0247ZM20.637 44.3288C20.1299 44.3015 18.9369 44.1593 17.7129 43.9804C16.1606 43.7535 15.5926 43.6885 14.6638 43.6315C13.9641 43.5886 13.9641 43.5886 13.9494 43.4819C13.8994 43.1189 14.4293 43.118 16.1385 43.4783C17.4374 43.7521 17.8125 43.8179 18.2127 43.8421C18.4052 43.8538 18.7313 43.8938 18.9375 43.9311C19.3392 44.0037 20.3011 44.1009 21.5117 44.1913C22.5566 44.2694 22.6859 44.2852 22.5614 44.3202C22.4648 44.3474 21.0954 44.3535 20.637 44.3288ZM25.1606 42.7117C24.5273 42.4789 24.3144 42.1575 24.1625 41.2049C24.046 40.4743 23.948 40.2447 23.6539 40.013C23.4331 39.8391 23.073 39.7009 22.7613 39.6705C21.6454 39.5617 22.3619 38.3562 24.1859 37.2737C24.5295 37.0698 24.9597 36.8039 25.1418 36.6828C25.5304 36.4245 25.6481 36.4009 26.5101 36.4084C28.6584 36.4271 30.9087 37.6687 31.6307 39.2337C31.8245 39.6537 31.8345 39.6432 30.7731 40.1329C29.5807 40.6831 29.3189 41.0269 29.5381 41.7542C29.7589 42.4868 28.9949 42.8025 27.6848 42.5201C26.7554 42.3197 25.9881 42.3826 25.6741 42.6849C25.5478 42.8065 25.4345 42.8124 25.1606 42.7117ZM28.4698 42.3074C29.8658 41.8923 29.4023 39.7656 27.9579 39.9585C27.1196 40.0704 26.9774 41.869 27.7774 42.242C28.0369 42.363 28.2235 42.3806 28.4698 42.3074ZM25.9335 42.1424C26.8662 41.8573 27.0342 40.498 26.2011 39.9774C25.7997 39.7266 25.142 40.1296 25.0118 40.7061C24.9984 40.7656 24.942 41.0089 24.8865 41.2468C24.6663 42.1913 24.9578 42.4406 25.9335 42.1424ZM24.5006 39.6964C25.3536 39.3653 26.1048 39.3425 27.919 39.5923C29.7328 39.8421 30.9833 39.7358 30.9429 39.3353C30.9013 38.923 30.6514 38.4941 30.3389 38.2989C29.7395 37.9244 29.2371 37.9083 26.7351 38.1838C25.7299 38.2944 24.7057 38.2483 24.2228 38.0706C23.9214 37.9597 23.189 38.2156 22.9211 38.5253C22.3113 39.2306 23.4759 40.094 24.5006 39.6964ZM18.8168 37.9139C15.0684 37.4945 12.5403 34.4238 14.3854 32.5315C14.9317 31.9712 15.1423 32.1039 14.7734 32.776C13.2071 35.6297 18.0083 38.642 21.8875 37.2395C25.5752 35.9063 25.8383 32.8091 22.3789 31.4558C22.1494 31.366 21.8491 31.2465 21.7116 31.1902C20.5601 30.7183 19.0987 30.7982 16.4219 31.4793C15.5121 31.7108 15.4907 31.7026 16.0259 31.3285C17.974 29.9666 21.8529 30.1616 24.0427 31.7315C27.6 34.2819 24.0362 38.4979 18.8168 37.9139ZM33.333 37.6259C29.1443 37.3728 26.3781 34.6368 27.9975 32.3488C30.5177 28.7881 37.6845 29.3421 39.245 33.2181C40.1252 35.4043 36.8596 37.839 33.333 37.6259ZM34.0933 37.0195C38.4072 37.1075 40.2742 33.6617 37.1058 31.4595C34.8391 29.8841 30.3271 30.3618 28.8885 32.3296C27.3412 34.446 29.777 37.1936 33.0581 37.033C33.333 37.0196 33.7988 37.0135 34.0933 37.0195ZM29.9484 35.1961C28.8752 34.9574 28.5953 34.1093 29.3246 33.3063C30.264 32.272 31.9246 32.5126 32.533 33.7711C32.7479 34.2155 32.681 34.2698 31.961 34.2349C31.0554 34.191 30.8834 34.2859 31.3961 34.5466C32.0004 34.8539 32.1084 34.9864 31.836 35.0867C31.4289 35.2365 30.3986 35.2962 29.9484 35.1961ZM16.3633 35.4271C15.0214 35.3336 14.5559 34.8316 15.0922 34.0564C15.7096 33.164 17.1053 32.8738 17.9313 33.4661C19.2804 34.4334 18.3739 35.5671 16.3633 35.4271ZM5.31975 10.1749C5.30442 10.1572 5.39224 10.0477 5.51491 9.93161C5.75373 9.70553 5.84158 9.57483 5.84158 9.44558C5.84158 9.36838 5.89975 9.35618 7.10369 9.1807C10.502 8.6854 10.0165 8.7106 18.1378 8.60794C24.3318 8.52964 27.6009 8.44186 30.2825 8.28184C31.0121 8.2383 31.2044 8.3009 31.3275 8.62202C31.5295 9.14908 30.9417 9.23018 26.985 9.22117C23.6211 9.21352 24.1565 9.24225 22.0865 8.95828C21.2202 8.83942 20.6168 8.90004 20.3168 9.1361C20.1959 9.23122 20.1487 9.23013 19.73 9.12265C18.9808 8.93035 18.4527 8.87702 17.313 8.87861C16.2211 8.88014 16.0873 8.8898 13.7391 9.13664C13.1755 9.19588 12.4108 9.26125 12.0397 9.2819C10.4291 9.3715 8.75932 9.59694 6.2471 10.064C5.4238 10.217 5.36272 10.2243 5.31975 10.1749Z" fill="#0C0E0E"/>
</svg>
