<svg width="40" height="38" viewBox="0 0 40 38" fill="none" xmlns="http://www.w3.org/2000/svg">
<path d="M9.39394 37.9614C7.75352 37.9565 6.42771 36.6227 6.43267 34.9823C6.43314 34.8181 6.44723 34.6543 6.4748 34.4924L8.14156 24.773C8.17703 24.565 8.1081 24.3529 7.95722 24.2053L0.895993 17.3222C-0.276696 16.1801 -0.30148 14.3035 0.840616 13.1308C1.29595 12.6633 1.89287 12.3591 2.53873 12.2654L12.2976 10.8442C12.5066 10.8137 12.6872 10.6826 12.7809 10.4934L17.1445 1.65385C17.8689 0.18537 19.6466 -0.41782 21.115 0.306581C21.7001 0.595242 22.1736 1.06878 22.4623 1.65385L26.8267 10.4965C26.9198 10.6858 27.1003 10.8171 27.3092 10.8473L37.068 12.2654C38.6881 12.5003 39.811 14.0041 39.5761 15.6241C39.4825 16.27 39.1784 16.8669 38.7108 17.3222L31.6496 24.2053C31.4987 24.3529 31.4297 24.565 31.4652 24.773L33.132 34.4924C33.409 36.1062 32.3253 37.6391 30.7115 37.9161C30.0687 38.0265 29.4076 37.9218 28.8303 37.6183L20.1016 33.0293C19.9149 32.931 19.6919 32.931 19.5052 33.0293L10.7764 37.6183C10.3503 37.8433 9.87577 37.9611 9.39394 37.9614ZM19.8034 2.32457C19.5579 2.32047 19.3329 2.4605 19.2279 2.6824L14.8643 11.525C14.4325 12.4003 13.5974 13.0068 12.6314 13.1468L2.87332 14.5619C2.52317 14.612 2.27989 14.9364 2.32993 15.2867C2.34999 15.427 2.41605 15.5567 2.51782 15.6555L9.57905 22.5393C10.2777 23.2208 10.5962 24.2024 10.431 25.1642L8.76504 34.8851C8.70548 35.2342 8.94016 35.5655 9.28931 35.6251C9.42771 35.6487 9.57007 35.6263 9.69445 35.5612L18.4232 30.973C19.2869 30.5184 20.3191 30.5184 21.1828 30.973L29.9108 35.5612C30.2246 35.7254 30.6121 35.604 30.7763 35.2902C30.8414 35.1658 30.8638 35.0235 30.8402 34.8851L29.175 25.1665C29.0099 24.2047 29.3285 23.2232 30.0269 22.5417L37.0882 15.6586C37.3435 15.4138 37.3521 15.0083 37.1072 14.7529C37.0076 14.6491 36.876 14.5818 36.7335 14.5619L26.9746 13.1437C26.0088 13.0035 25.1738 12.397 24.7417 11.5219L20.3788 2.6824C20.2739 2.46042 20.0488 2.32047 19.8034 2.32457Z" fill="#A3ACB5"/>
</svg>
