<svg width="50" height="50" viewBox="0 0 50 50" fill="none" xmlns="http://www.w3.org/2000/svg">
<path d="M45.8346 1.04297H15.6263C14.7978 1.04388 14.0035 1.37341 13.4176 1.95927C12.8317 2.54512 12.5022 3.33945 12.5013 4.16797V23.9596H4.16797C3.33945 23.9605 2.54512 24.2901 1.95927 24.8759C1.37341 25.4618 1.04388 26.2561 1.04297 27.0846V45.8346C1.04388 46.6632 1.37341 47.4575 1.95927 48.0433C2.54512 48.6292 3.33945 48.9587 4.16797 48.9596H22.918C23.7465 48.9587 24.5408 48.6292 25.1267 48.0433C25.7125 47.4575 26.0421 46.6632 26.043 45.8346V37.5013H45.8346C46.6632 37.5004 47.4575 37.1709 48.0433 36.585C48.6292 35.9992 48.9587 35.2048 48.9596 34.3763V4.16797C48.9587 3.33945 48.6292 2.54512 48.0433 1.95927C47.4575 1.37341 46.6632 1.04388 45.8346 1.04297ZM23.9596 45.8346C23.9594 46.1108 23.8496 46.3757 23.6543 46.571C23.459 46.7663 23.1942 46.8761 22.918 46.8763H4.16797C3.89176 46.8761 3.62692 46.7663 3.43161 46.571C3.2363 46.3757 3.1265 46.1108 3.1263 45.8346V27.0846C3.1265 26.8084 3.2363 26.5436 3.43161 26.3483C3.62692 26.153 3.89176 26.0432 4.16797 26.043H12.5013V34.3763C12.5022 35.2048 12.8317 35.9992 13.4176 36.585C14.0035 37.1709 14.7978 37.5004 15.6263 37.5013H23.9596V45.8346ZM23.9596 35.418H15.6263C15.3501 35.4178 15.0853 35.308 14.8899 35.1127C14.6946 34.9174 14.5848 34.6525 14.5846 34.3763V26.043H22.918C23.1942 26.0432 23.459 26.153 23.6543 26.3483C23.8496 26.5436 23.9594 26.8084 23.9596 27.0846V35.418ZM46.8763 34.3763C46.8761 34.6525 46.7663 34.9174 46.571 35.1127C46.3757 35.308 46.1108 35.4178 45.8346 35.418H26.043V27.0846C26.0421 26.2561 25.7125 25.4618 25.1267 24.8759C24.5408 24.2901 23.7465 23.9605 22.918 23.9596H14.5846V4.16797C14.5848 3.89176 14.6946 3.62692 14.8899 3.43161C15.0853 3.2363 15.3501 3.1265 15.6263 3.1263H45.8346C46.1108 3.1265 46.3757 3.2363 46.571 3.43161C46.7663 3.62692 46.8761 3.89176 46.8763 4.16797V34.3763ZM43.1073 6.33151C42.9813 6.27897 42.8462 6.25171 42.7096 6.2513H36.4596C36.1834 6.2513 35.9184 6.36105 35.7231 6.5564C35.5277 6.75175 35.418 7.0167 35.418 7.29297C35.418 7.56924 35.5277 7.83419 35.7231 8.02954C35.9184 8.22489 36.1834 8.33464 36.4596 8.33464H40.195L30.5147 18.0148C30.4156 18.111 30.3366 18.226 30.2823 18.353C30.228 18.48 30.1995 18.6165 30.1984 18.7546C30.1974 18.8927 30.2238 19.0297 30.2762 19.1575C30.3286 19.2853 30.4058 19.4014 30.5035 19.4991C30.6012 19.5968 30.7173 19.674 30.8451 19.7264C30.9729 19.7788 31.1099 19.8052 31.248 19.8041C31.3861 19.8031 31.5227 19.7746 31.6497 19.7203C31.7767 19.6659 31.8916 19.5869 31.9878 19.4878L41.668 9.80766V13.543C41.668 13.8192 41.7777 14.0842 41.9731 14.2795C42.1684 14.4749 42.4334 14.5846 42.7096 14.5846C42.9859 14.5846 43.2509 14.4749 43.4462 14.2795C43.6416 14.0842 43.7513 13.8192 43.7513 13.543V7.29297C43.7505 7.08711 43.689 6.88606 43.5745 6.71503C43.4599 6.54399 43.2974 6.41057 43.1073 6.33151Z" fill="#A3ACB5"/>
</svg>
