<svg width="49" height="49" viewBox="0 0 49 49" fill="none" xmlns="http://www.w3.org/2000/svg">
<path d="M21.0239 13.8849C23.0391 13.8849 24.683 15.3395 24.683 17.1198C24.683 17.4834 24.9785 17.7865 25.3497 17.7865C25.7209 17.7865 26.0163 17.491 26.0163 17.1198C26.0163 14.8092 24.13 12.9001 21.6982 12.6046V10.6198C21.6982 10.2562 21.4027 9.95312 21.0315 9.95312C20.6603 9.95312 20.3648 10.2486 20.3648 10.6198V12.6046C17.933 12.9001 16.0466 14.8092 16.0466 17.1198C16.0466 19.6349 18.2815 21.6804 21.0315 21.6804C23.0466 21.6804 24.6906 23.1349 24.6906 24.9152C24.6906 26.6956 23.0466 28.1501 21.0315 28.1501C19.0163 28.1501 17.3724 26.6956 17.3724 24.9152C17.3724 24.5516 17.0769 24.2486 16.7057 24.2486C16.3345 24.2486 16.0391 24.544 16.0391 24.9152C16.0391 27.2259 17.9254 29.1349 20.3572 29.4304V31.4152C20.3572 31.7789 20.6527 32.0819 21.0239 32.0819C21.3951 32.0819 21.6906 31.7865 21.6906 31.4152V29.4304C24.1224 29.1349 26.0088 27.2259 26.0088 24.9152C26.0088 22.4001 23.7739 20.3546 21.0239 20.3546C19.0088 20.3546 17.3648 18.9001 17.3648 17.1198C17.3648 15.3395 19.0088 13.8849 21.0239 13.8849Z" fill="#A3ACB5"/>
<path d="M24.1212 40.4621C23.1288 40.6288 22.0909 40.7121 21.0227 40.7121C10.1591 40.7121 1.32576 31.8788 1.32576 21.0152C1.32576 10.1515 10.1667 1.31818 21.0227 1.31818C31.8788 1.31818 40.7197 10.1515 40.7197 21.0152C40.7197 22.0152 40.6439 23.0076 40.5 23.9621C40.447 24.3258 40.697 24.6591 41.053 24.7197C41.4167 24.7727 41.75 24.5303 41.8106 24.1667C41.9697 23.1439 42.0455 22.0833 42.0455 21.0227C42.0455 9.43182 32.6136 0 21.0227 0C9.43182 0 0 9.42424 0 21.0152C0 32.6061 9.43182 42.0379 21.0227 42.0379C22.1591 42.0379 23.2727 41.947 24.3333 41.7727C24.697 41.7121 24.9394 41.3712 24.8788 41.0076C24.8258 40.6439 24.4848 40.4015 24.1212 40.4621Z" fill="#A3ACB5"/>
<path d="M36.1216 22.9246C36.4852 22.9549 36.811 22.6897 36.8413 22.3261C36.8791 21.917 36.8943 21.4928 36.8943 21.0155C36.8943 12.2655 29.7731 5.13672 21.0155 5.13672C12.2579 5.13672 5.13672 12.2579 5.13672 21.0155C5.13672 29.7731 12.2579 36.8943 21.0155 36.8943C21.4625 36.8943 21.9246 36.8716 22.4246 36.8337C22.7882 36.8034 23.061 36.4852 23.0307 36.114C23.0004 35.7504 22.6822 35.4776 22.311 35.5079C21.8564 35.5458 21.417 35.5685 21.0079 35.5685C12.9776 35.5685 6.4549 29.0382 6.4549 21.0155C6.4549 12.9928 13.0004 6.47005 21.0231 6.47005C29.0458 6.47005 35.5761 13.0004 35.5761 21.0231C35.5761 21.4549 35.561 21.8488 35.5231 22.2125C35.4928 22.5685 35.7579 22.8943 36.1216 22.9246Z" fill="#A3ACB5"/>
<path d="M30.7814 20.3555H28.5768C28.2132 20.3555 27.9102 20.6509 27.9102 21.0221C27.9102 21.3858 28.2056 21.6888 28.5768 21.6888H30.7814C31.145 21.6888 31.448 21.3933 31.448 21.0221C31.4405 20.6509 31.145 20.3555 30.7814 20.3555Z" fill="#A3ACB5"/>
<path d="M11.2643 20.3555C10.9007 20.3555 10.5977 20.6509 10.5977 21.0221C10.5977 21.3858 10.8931 21.6888 11.2643 21.6888H13.4689C13.8325 21.6888 14.1355 21.3933 14.1355 21.0221C14.1355 20.6585 13.8401 20.3555 13.4689 20.3555H11.2643Z" fill="#A3ACB5"/>
<path d="M36.5388 31.6875C33.9176 31.6875 31.7812 33.8314 31.7812 36.4602C31.7812 39.089 33.9176 41.233 36.5388 41.233C39.16 41.233 41.2964 39.089 41.2964 36.4602C41.2964 33.8314 39.1676 31.6875 36.5388 31.6875ZM36.5388 39.9072C34.6449 39.9072 33.107 38.3617 33.107 36.4602C33.107 34.5587 34.6449 33.0133 36.5388 33.0133C38.4328 33.0133 39.9706 34.5587 39.9706 36.4602C39.9706 38.3617 38.4328 39.9072 36.5388 39.9072Z" fill="#A3ACB5"/>
<path d="M47.0376 33.5988L45.2195 33.2731C45.1361 33.2579 45.0679 33.2049 45.0376 33.1367C44.9922 33.0155 44.9392 32.8943 44.8861 32.7807C44.8558 32.7125 44.8634 32.6216 44.9164 32.5534L45.977 31.0307C46.4164 30.4019 46.3407 29.5534 45.8028 29.0155L43.9543 27.1746C43.4164 26.6367 42.5679 26.561 41.9392 27.0004L40.4316 28.061C40.3634 28.114 40.2725 28.1216 40.1892 28.0837C40.0831 28.0382 39.9695 27.9928 39.8634 27.9473C39.7801 27.917 39.7195 27.8413 39.7043 27.7579L39.3861 25.9397C39.2498 25.1822 38.5983 24.6367 37.8331 24.6367H35.2346C34.4695 24.6367 33.8179 25.1822 33.6816 25.9397L33.3937 27.5837L33.0376 28.0155C32.9846 28.0382 32.9392 28.061 32.8861 28.0761C32.8028 28.114 32.7195 28.1064 32.6513 28.0534L31.1361 26.9928C30.5073 26.5534 29.6589 26.6291 29.121 27.167L27.2801 29.0155C26.7422 29.5534 26.6664 30.4094 27.1058 31.0307L28.1589 32.5458C28.2119 32.614 28.2195 32.7049 28.1892 32.7731C28.1361 32.8943 28.0907 33.0079 28.0376 33.1291C28.0073 33.1973 27.9392 33.2504 27.8558 33.2655L26.0376 33.5913C25.2876 33.7276 24.7422 34.3791 24.7422 35.1443V37.7579C24.7422 38.5231 25.2876 39.1822 26.0452 39.311L27.8558 39.6291C27.9392 39.6443 28.0073 39.7049 28.0452 39.7882C28.0907 39.8943 28.1361 40.0079 28.1816 40.114C28.2195 40.1973 28.2119 40.2882 28.1589 40.364L27.1058 41.8716C26.6664 42.5004 26.7422 43.3488 27.2801 43.8867L29.1286 45.7352C29.6664 46.2731 30.5149 46.3488 31.1437 45.917L32.6589 44.8564C32.727 44.811 32.8179 44.8034 32.9013 44.8337C33.0073 44.8791 33.1134 44.9246 33.2195 44.9625C33.3028 44.9928 33.3634 45.0685 33.3786 45.1519L33.8331 47.7201C33.8861 48.0382 34.1664 48.2731 34.4846 48.2731H37.8558C38.621 48.2731 39.2725 47.7276 39.4089 46.9701L39.727 45.1519C39.7422 45.0685 39.8028 44.9928 39.8861 44.9625C39.9922 44.917 40.0982 44.8791 40.2043 44.8337C40.2876 44.7958 40.3786 44.8034 40.4467 44.8564L41.9543 45.917C42.5831 46.3564 43.4316 46.2807 43.9695 45.7352L45.8179 43.8867C46.3558 43.3488 46.4316 42.5004 45.9922 41.8716L44.9392 40.3564C44.8861 40.2807 44.8786 40.1897 44.9164 40.1064C44.9619 40.0004 45.0073 39.8943 45.0528 39.7882C45.0831 39.7049 45.1589 39.6443 45.2422 39.6291L47.0528 39.311C47.8104 39.1822 48.3558 38.5231 48.3558 37.7579V35.1443C48.3331 34.3867 47.7876 33.7352 47.0376 33.5988ZM47.0073 37.7655C47.0073 37.8867 46.924 37.9928 46.8028 38.0155L44.9922 38.3337C44.4543 38.4322 43.9998 38.8034 43.8028 39.311C43.7649 39.4019 43.727 39.4928 43.6892 39.5837C43.4695 40.0837 43.5225 40.6746 43.8331 41.1216L44.8861 42.6367C44.9543 42.7352 44.9467 42.8716 44.8558 42.9625L43.0073 44.811C42.924 44.8943 42.7876 44.9094 42.6892 44.8413L41.1816 43.7807C40.727 43.4625 40.1589 43.4094 39.6513 43.6291C39.5604 43.667 39.477 43.7049 39.3861 43.7428C38.8786 43.9397 38.4998 44.4019 38.4089 44.9398L38.0907 46.7579C38.0679 46.8791 37.9695 46.9625 37.8483 46.9625H35.0376L34.674 44.9322C34.5755 44.3943 34.2043 43.9397 33.6892 43.7352C33.5982 43.6973 33.5073 43.667 33.424 43.6291C32.9164 43.4094 32.3407 43.4625 31.8937 43.7807L30.3786 44.8413C30.2801 44.9094 30.1513 44.8943 30.0604 44.811L28.2119 42.9625C28.1286 42.8791 28.1134 42.7428 28.1816 42.6367L29.2346 41.1291C29.5528 40.6822 29.6058 40.0913 29.3861 39.5913C29.3482 39.5004 29.3104 39.4094 29.2725 39.3185C29.0755 38.811 28.6134 38.4322 28.0831 38.3413L26.2725 38.0231C26.1513 38.0004 26.0679 37.8943 26.0679 37.7731V35.1594C26.0679 35.0382 26.1513 34.9322 26.2725 34.9094L28.0907 34.5837C28.6286 34.4852 29.0755 34.1216 29.2725 33.6291C29.3104 33.5231 29.3558 33.4246 29.4013 33.3261C29.621 32.8337 29.5604 32.2504 29.2498 31.8034L28.1967 30.2882C28.1286 30.1897 28.1361 30.0534 28.227 29.9625L30.0679 28.114C30.1513 28.0307 30.2876 28.0155 30.3861 28.0837L31.9013 29.1443C32.3482 29.4625 32.924 29.5155 33.4316 29.2958C33.5149 29.2579 33.6058 29.2201 33.6967 29.1897C33.8028 29.1519 33.8937 29.0837 33.9695 28.9928L34.5452 28.2958C34.621 28.2049 34.6664 28.0988 34.6892 27.9852L35.0073 26.167C35.0301 26.0458 35.1286 25.9625 35.2498 25.9625H37.8483C37.9695 25.9625 38.0679 26.0534 38.0907 26.167L38.4089 27.9852C38.5073 28.5231 38.8786 28.9852 39.3937 29.1822C39.4846 29.2201 39.5755 29.2579 39.6664 29.2958C40.174 29.5155 40.7422 29.4625 41.1967 29.1443L42.7043 28.0837C42.8028 28.0155 42.9392 28.0231 43.0225 28.114L44.8634 29.9625C44.9467 30.0458 44.9619 30.1822 44.8937 30.2882L43.8331 31.8034C43.5225 32.2504 43.4619 32.8337 43.6816 33.3261C43.727 33.4246 43.7649 33.5231 43.8104 33.6291C44.0073 34.1216 44.4543 34.4928 44.9922 34.5837L46.8104 34.9094C46.9316 34.9322 47.0149 35.0382 47.0149 35.1594V37.7655H47.0073Z" fill="#A3ACB5"/>
</svg>
