<svg width="40" height="40" viewBox="0 0 40 40" fill="none" xmlns="http://www.w3.org/2000/svg">
<path d="M2.34375 20C2.34375 10.2643 10.2643 2.34375 20 2.34375C23.6615 2.34375 27.1534 3.45398 30.0934 5.51461H27.822C27.1748 5.51461 26.6502 6.0393 26.6502 6.68648C26.6502 7.33367 27.1748 7.85836 27.822 7.85836H33.3136C33.9608 7.85836 34.4855 7.33367 34.4855 6.68648V1.19492C34.4855 0.547734 33.9608 0.0230469 33.3136 0.0230469C32.6664 0.0230469 32.1417 0.547734 32.1417 1.19492V4.11203C28.6709 1.44523 24.4461 0 20 0C14.6578 0 9.63539 2.08039 5.85781 5.85781C2.08039 9.63539 0 14.6578 0 20C0 23.5095 0.927422 26.9673 2.68203 29.9998C2.89922 30.3753 3.29281 30.585 3.69742 30.585C3.89664 30.585 4.09852 30.5341 4.28328 30.4273C4.84344 30.1031 5.03477 29.3862 4.7107 28.826C3.16227 26.1498 2.34375 23.0978 2.34375 20Z" fill="#A3ACB5"/>
<path d="M37.319 9.99919C36.9948 9.43895 36.2777 9.2477 35.7177 9.57184C35.1576 9.89599 34.9662 10.6129 35.2903 11.1731C36.8387 13.8491 37.6573 16.9011 37.6573 19.999C37.6573 29.7347 29.7367 37.6553 20.001 37.6553C16.3398 37.6553 12.8486 36.5447 9.90883 34.4844H12.179C12.8262 34.4844 13.3509 33.9597 13.3509 33.3125C13.3509 32.6654 12.8262 32.1407 12.179 32.1407H6.6875C6.04031 32.1407 5.51562 32.6654 5.51562 33.3125V38.8041C5.51562 39.4513 6.04031 39.976 6.6875 39.976C7.33469 39.976 7.85938 39.4513 7.85938 38.8041V35.8841C11.3302 38.5518 15.5544 39.999 20.001 39.999C25.3432 39.999 30.3656 37.9186 34.1432 34.1412C37.9206 30.3636 40.001 25.3412 40.001 19.999C40.001 16.4894 39.0736 13.0315 37.319 9.99919Z" fill="#A3ACB5"/>
<path d="M30.0341 16.969C30.1146 16.6688 30.0725 16.3489 29.917 16.0798L28.3545 13.3734C28.0309 12.813 27.3143 12.6209 26.7538 12.9445L25.6911 13.558C24.8276 12.7928 23.8273 12.2148 22.7363 11.8505V10.625C22.7363 9.97781 22.2116 9.45312 21.5645 9.45312H18.4395C17.7923 9.45312 17.2676 9.97781 17.2676 10.625V11.8505C16.1766 12.2147 15.1763 12.7927 14.3127 13.558L13.2502 12.9445C12.6897 12.6207 11.9729 12.8128 11.6494 13.3734L10.0869 16.0797C9.76329 16.6402 9.95532 17.3569 10.5158 17.6805L11.5781 18.2938C11.4652 18.8534 11.4081 19.4243 11.4081 19.9999C11.4081 20.5755 11.4651 21.1465 11.5781 21.706L10.5158 22.3194C9.95532 22.643 9.76329 23.3597 10.0869 23.9202L11.6494 26.6265C11.973 27.187 12.6896 27.3791 13.2502 27.0554L14.3127 26.4419C15.1763 27.2072 16.1765 27.7852 17.2676 28.1494V29.375C17.2676 30.0222 17.7923 30.5469 18.4395 30.5469H21.5645C22.2116 30.5469 22.7363 30.0222 22.7363 29.375V28.1495C23.8273 27.7853 24.8276 27.2073 25.6911 26.442L26.7538 27.0555C27.3142 27.3791 28.0309 27.187 28.3545 26.6266L29.917 23.9203C30.0724 23.6512 30.1145 23.3313 30.0341 23.0311C29.9538 22.7309 29.7574 22.4749 29.4881 22.3195L28.4257 21.7061C28.5387 21.1466 28.5956 20.5757 28.5956 20C28.5956 19.4243 28.5387 18.8534 28.4257 18.2939L29.4881 17.6805C29.7573 17.5252 29.9538 17.2691 30.0341 16.969ZM20.0019 23.125C18.276 23.125 16.8769 21.7259 16.8769 20C16.8769 18.2741 18.276 16.875 20.0019 16.875C21.7277 16.875 23.1269 18.2741 23.1269 20C23.1269 21.7259 21.7277 23.125 20.0019 23.125Z" fill="#A3ACB5"/>
</svg>
