<svg width="283" height="43" viewBox="0 0 283 43" fill="none" xmlns="http://www.w3.org/2000/svg">
<g clip-path="url(#clip0_28296_9392)">
<path d="M58.1641 21.0151C58.1641 18.8149 58.5237 16.8456 59.2373 15.1247C59.9509 13.4038 60.9545 11.9427 62.2424 10.7473C63.5303 9.55769 65.0734 8.64525 66.8718 8.02733C68.6702 7.40364 70.6369 7.0918 72.7718 7.0918C74.9299 7.0918 76.9139 7.40364 78.7065 8.02733C80.5049 8.65102 82.0481 9.55769 83.336 10.7473C84.6239 11.9427 85.6275 13.398 86.3469 15.1247C87.0604 16.8456 87.4201 18.8149 87.4201 21.0151C87.4201 23.2211 87.0604 25.1846 86.3469 26.9055C85.6275 28.6264 84.6297 30.0875 83.336 31.2771C82.0481 32.4668 80.5049 33.3561 78.7065 33.9394C76.9081 34.5226 74.9299 34.8114 72.7718 34.8114C70.6369 34.8114 68.6702 34.5226 66.8718 33.9394C65.0734 33.3561 63.5303 32.4668 62.2424 31.2771C60.9545 30.0875 59.9509 28.6264 59.2373 26.9055C58.5237 25.1788 58.1641 23.2154 58.1641 21.0151ZM83.5912 21.0151C83.5912 18.8611 83.3186 17.0015 82.7733 15.4365C82.2279 13.8658 81.4622 12.5722 80.4875 11.55C79.5129 10.5279 78.3643 9.76558 77.0474 9.27471C75.7305 8.78385 74.3091 8.53553 72.7718 8.53553C71.2634 8.53553 69.8479 8.78385 68.531 9.27471C67.2141 9.76558 66.0713 10.5279 65.0908 11.55C64.1162 12.5722 63.3504 13.8715 62.8051 15.4365C62.2598 17.0073 61.9871 18.8668 61.9871 21.0151C61.9871 23.1692 62.2598 25.0287 62.8051 26.5937C63.3504 28.1645 64.1162 29.458 65.0908 30.4802C66.0655 31.5024 67.2141 32.2646 68.531 32.7555C69.8479 33.2464 71.2576 33.4947 72.7718 33.4947C74.3091 33.4947 75.7363 33.2464 77.0474 32.7555C78.3643 32.2646 79.5071 31.5024 80.4875 30.4802C81.4622 29.458 82.2279 28.1587 82.7733 26.5937C83.3186 25.0287 83.5912 23.1692 83.5912 21.0151Z" fill="#A3ACB5"/>
<path d="M96.7947 17.6711C96.7947 15.9617 96.7599 14.2812 96.6961 12.6353C96.6323 10.9895 96.5569 9.30898 96.4814 7.59961C97.2356 7.65158 97.9782 7.69778 98.7092 7.73821C99.4401 7.77863 100.183 7.79596 100.937 7.79596C101.691 7.79596 102.434 7.76131 103.165 7.69778C103.896 7.63426 104.638 7.59961 105.392 7.59961C106.489 7.59961 107.527 7.70356 108.519 7.91145C109.511 8.11935 110.376 8.46007 111.118 8.93939C111.861 9.41871 112.447 10.0482 112.876 10.8278C113.305 11.6074 113.52 12.5776 113.52 13.7441C113.52 14.9915 113.241 16.0599 112.679 16.9492C112.116 17.8443 111.437 18.5835 110.631 19.1668C109.824 19.75 108.96 20.2062 108.032 20.5296C107.109 20.853 106.268 21.0667 105.514 21.1707C105.827 21.5576 106.257 22.1062 106.802 22.805C107.347 23.5037 107.962 24.2776 108.641 25.1207C109.32 25.9638 110.022 26.8474 110.753 27.7656C111.484 28.6838 112.186 29.5674 112.864 30.4105C113.543 31.2537 114.181 32.0217 114.779 32.7263C115.376 33.425 115.858 33.9563 116.223 34.3201C115.835 34.2682 115.44 34.2393 115.051 34.2393C114.663 34.2393 114.268 34.2393 113.88 34.2393C113.514 34.2393 113.137 34.2393 112.748 34.2393C112.36 34.2393 111.983 34.2624 111.617 34.3201C111.228 33.7773 110.637 32.9573 109.842 31.8716C109.047 30.7801 108.171 29.6136 107.208 28.372C106.245 27.1246 105.259 25.8888 104.261 24.6587C103.257 23.4286 102.341 22.3834 101.505 21.5287H100.02V24.3642C100.02 26.0736 100.055 27.7598 100.119 29.4172C100.183 31.0746 100.258 32.7089 100.334 34.3144C99.736 34.2624 99.0978 34.2335 98.4191 34.2335C97.7403 34.2335 97.1022 34.2566 96.5047 34.3144C96.5801 32.7089 96.6555 31.0746 96.7193 29.4172C96.7831 27.7598 96.8179 26.0736 96.8179 24.3642V17.6711H96.7947ZM99.997 19.8886C100.363 19.9695 100.757 20.0214 101.186 20.0445C101.616 20.0734 102.091 20.085 102.613 20.085C103.42 20.085 104.261 19.9926 105.131 19.8136C106.001 19.6345 106.802 19.3169 107.533 18.8607C108.264 18.4102 108.867 17.7981 109.349 17.0358C109.83 16.2735 110.074 15.3033 110.074 14.1368C110.074 13.1262 109.882 12.2888 109.505 11.6305C109.128 10.9722 108.641 10.4466 108.043 10.0539C107.446 9.66703 106.79 9.40138 106.088 9.25701C105.386 9.11264 104.696 9.04334 104.017 9.04334C103.107 9.04334 102.352 9.06066 101.749 9.10109C101.152 9.14151 100.641 9.18771 100.223 9.23968C100.171 10.6661 100.119 12.0809 100.067 13.4785C100.014 14.876 99.9912 16.2793 99.9912 17.6768V19.8886H99.997Z" fill="#A3ACB5"/>
<path d="M145.486 10.9437C144.9 10.4759 144.25 10.0717 143.531 9.71938C142.817 9.36711 142.022 9.08414 141.146 8.8647C140.276 8.64525 139.342 8.53553 138.356 8.53553C136.743 8.53553 135.235 8.78385 133.843 9.27471C132.45 9.76558 131.238 10.5279 130.211 11.55C129.184 12.5722 128.378 13.8715 127.792 15.4365C127.206 17.0015 126.916 18.8668 126.916 21.0151C126.916 22.9093 127.177 24.6187 127.699 26.149C128.221 27.6794 128.981 28.9672 129.985 30.0182C130.988 31.0692 132.212 31.8777 133.657 32.4494C135.101 33.0212 136.737 33.3041 138.559 33.3041C139.104 33.3041 139.679 33.2753 140.276 33.2233C140.874 33.1713 141.454 33.0962 142.017 32.9923C142.573 32.8883 143.096 32.7613 143.577 32.6054C144.059 32.4494 144.471 32.2704 144.807 32.0625C144.83 31.2829 144.853 30.5091 144.865 29.7295C144.877 28.9498 144.882 28.1587 144.882 27.356C144.882 26.4493 144.865 25.5426 144.824 24.636C144.784 23.7293 144.737 22.8631 144.685 22.0315C145.335 22.1643 145.961 22.2278 146.559 22.2278C146.843 22.2278 147.133 22.2163 147.418 22.1874C147.702 22.1643 147.975 22.1123 148.236 22.0315C148.183 22.6263 148.143 23.5676 148.12 24.8497C148.091 26.1317 148.079 27.8237 148.079 29.9258C148.079 30.4455 148.085 30.9711 148.096 31.5024C148.108 32.0336 148.114 32.5592 148.114 33.0789C147.568 33.2868 146.884 33.5005 146.066 33.7199C145.248 33.9394 144.372 34.1242 143.449 34.2628C142.527 34.4071 141.599 34.5342 140.676 34.6497C139.754 34.7652 138.913 34.8229 138.159 34.8229C135.838 34.8229 133.75 34.5457 131.887 33.9856C130.025 33.4312 128.441 32.5649 127.142 31.3984C125.837 30.2319 124.839 28.7824 124.137 27.0441C123.435 25.3059 123.081 23.2962 123.081 21.0151C123.081 18.8149 123.447 16.8456 124.178 15.1247C124.908 13.4038 125.935 11.9427 127.264 10.7473C128.592 9.55769 130.199 8.64525 132.091 8.02733C133.976 7.40364 136.07 7.0918 138.362 7.0918C139.69 7.0918 140.868 7.1611 141.895 7.30547C142.922 7.44984 143.832 7.63464 144.627 7.87141C145.422 8.10241 146.118 8.35073 146.716 8.6106C147.313 8.87047 147.847 9.11302 148.317 9.34979C148.108 9.71361 147.916 10.1814 147.748 10.7473C147.58 11.319 147.47 11.8503 147.418 12.3412H146.948C146.559 11.8792 146.072 11.4114 145.486 10.9437Z" fill="#A3ACB5"/>
<path d="M180.816 34.3148C180.451 34.2628 180.108 34.234 179.783 34.234C179.459 34.234 179.11 34.234 178.751 34.234C178.385 34.234 178.043 34.234 177.718 34.234C177.393 34.234 177.045 34.2571 176.686 34.3148C176.506 33.72 176.256 32.9981 175.943 32.155C175.63 31.3119 175.287 30.4341 174.91 29.5101C174.533 28.5919 174.15 27.6563 173.756 26.7093C173.367 25.7622 173.002 24.8613 172.659 24.0066C171.824 23.9777 170.977 23.9604 170.118 23.9489C169.26 23.9373 168.401 23.9315 167.543 23.9315C166.736 23.9315 165.941 23.9373 165.158 23.9489C164.375 23.9604 163.58 23.9835 162.774 24.0066C161.939 26.0278 161.184 27.9509 160.506 29.7815C159.827 31.6122 159.322 33.1194 158.98 34.3148C158.539 34.2628 158.057 34.234 157.535 34.234C157.013 34.234 156.532 34.2571 156.091 34.3148C158.203 29.7757 160.256 25.2655 162.263 20.7842C164.271 16.3029 166.29 11.7407 168.32 7.09766H169.063C169.689 8.59913 170.362 10.2277 171.093 11.9775C171.824 13.7273 172.567 15.4944 173.321 17.2846C174.075 19.0748 174.829 20.8477 175.589 22.6091C176.343 24.3704 177.051 26.0105 177.718 27.5293C178.379 29.0481 178.983 30.3994 179.517 31.5948C180.039 32.7845 180.474 33.6911 180.816 34.3148ZM163.511 22.2222C164.189 22.2222 164.891 22.2337 165.622 22.2626C166.353 22.2915 167.055 22.303 167.734 22.303C168.465 22.303 169.19 22.2972 169.921 22.2857C170.652 22.2741 171.377 22.251 172.108 22.2279L167.775 12.3528L163.511 22.2222Z" fill="#A3ACB5"/>
<path d="M201.636 24.2202C198.248 20.6051 194.866 17.0073 191.478 13.4327C191.449 14.1603 191.426 15.1305 191.403 16.349C191.374 17.5675 191.362 19.2249 191.362 21.327C191.362 21.8698 191.368 22.5455 191.379 23.3482C191.391 24.1509 191.403 24.994 191.42 25.8776C191.432 26.7612 191.455 27.6563 191.478 28.5629C191.501 29.4696 191.53 30.3127 191.559 31.0923C191.583 31.8719 191.612 32.5476 191.635 33.1309C191.658 33.7141 191.687 34.1126 191.71 34.3147C191.292 34.2628 190.84 34.2339 190.341 34.2339C189.819 34.2339 189.337 34.257 188.896 34.3147C188.949 34.0549 189.007 33.5755 189.071 32.8768C189.134 32.178 189.192 31.3407 189.245 30.3705C189.297 29.4003 189.355 28.3435 189.419 27.2C189.482 26.0624 189.535 24.919 189.575 23.7755C189.616 22.6379 189.645 21.5233 189.674 20.4318C189.697 19.3462 189.714 18.3702 189.714 17.5155C189.714 15.0265 189.709 12.8898 189.697 11.0996C189.685 9.30936 189.651 7.97536 189.598 7.0918H190.225C191.815 8.80117 193.514 10.6376 195.324 12.5953C197.134 14.553 198.933 16.4818 200.714 18.3875C202.495 20.2932 204.189 22.095 205.79 23.7928C207.391 25.4907 208.789 26.9344 209.99 28.1298V22.84C209.99 20.12 209.973 17.4693 209.932 14.8879C209.891 12.3065 209.81 9.88108 209.677 7.59999C210.199 7.73281 210.64 7.79634 211.005 7.79634C211.319 7.79634 211.736 7.73281 212.253 7.59999C212.2 8.17171 212.142 9.02639 212.079 10.1641C212.015 11.3075 211.945 12.526 211.881 13.8196C211.818 15.1132 211.759 16.3836 211.707 17.631C211.655 18.8726 211.632 19.8717 211.632 20.6224C211.632 21.2692 211.632 22.0488 211.632 22.9555C211.632 23.839 211.638 24.7573 211.649 25.7159C211.661 26.6745 211.672 27.6389 211.69 28.6149C211.701 29.5851 211.713 30.4975 211.73 31.3349C211.742 32.178 211.748 32.9114 211.748 33.5293C211.748 34.1011 211.748 34.5284 211.748 34.8114H211.203C208.209 31.3695 205.018 27.8411 201.636 24.2202Z" fill="#A3ACB5"/>
<path d="M221.32 21.0151C221.32 18.8149 221.68 16.8456 222.394 15.1247C223.107 13.4038 224.111 11.9427 225.399 10.7473C226.687 9.55769 228.23 8.64525 230.028 8.02733C231.827 7.40364 233.793 7.0918 235.928 7.0918C238.092 7.0918 240.07 7.40364 241.863 8.02733C243.661 8.65102 245.204 9.55769 246.492 10.7473C247.78 11.9427 248.784 13.398 249.497 15.1247C250.211 16.8456 250.571 18.8149 250.571 21.0151C250.571 23.2211 250.211 25.1846 249.497 26.9055C248.778 28.6264 247.78 30.0875 246.492 31.2771C245.204 32.4668 243.661 33.3561 241.863 33.9394C240.064 34.5226 238.086 34.8114 235.928 34.8114C233.793 34.8114 231.827 34.5226 230.028 33.9394C228.23 33.3561 226.687 32.4668 225.399 31.2771C224.111 30.0875 223.107 28.6264 222.394 26.9055C221.68 25.1788 221.32 23.2154 221.32 21.0151ZM246.747 21.0151C246.747 18.8611 246.475 17.0015 245.93 15.4365C245.384 13.8715 244.618 12.5722 243.644 11.55C242.669 10.5279 241.521 9.76558 240.209 9.27471C238.893 8.78385 237.465 8.53553 235.934 8.53553C234.425 8.53553 233.01 8.78385 231.693 9.27471C230.376 9.76558 229.233 10.5279 228.259 11.55C227.284 12.5722 226.518 13.8715 225.973 15.4365C225.428 17.0073 225.155 18.8668 225.155 21.0151C225.155 23.1692 225.428 25.0287 225.973 26.5937C226.518 28.1645 227.284 29.458 228.259 30.4802C229.233 31.5024 230.382 32.2646 231.693 32.7555C233.01 33.2464 234.42 33.4947 235.934 33.4947C237.471 33.4947 238.898 33.2464 240.209 32.7555C241.526 32.2646 242.669 31.5024 243.644 30.4802C244.618 29.458 245.384 28.1587 245.93 26.5937C246.475 25.0287 246.747 23.1692 246.747 21.0151Z" fill="#A3ACB5"/>
<path d="M272.372 24.2202C268.984 20.6051 265.602 17.0073 262.214 13.4327C262.185 14.1603 262.162 15.1305 262.133 16.349C262.104 17.5675 262.093 19.2249 262.093 21.327C262.093 21.8698 262.098 22.5455 262.11 23.3482C262.122 24.1509 262.133 24.994 262.151 25.8776C262.162 26.7612 262.185 27.6563 262.209 28.5629C262.232 29.4696 262.261 30.3127 262.284 31.0923C262.313 31.8719 262.336 32.5476 262.365 33.1309C262.388 33.7141 262.417 34.1126 262.441 34.3147C262.023 34.2628 261.57 34.2339 261.071 34.2339C260.549 34.2339 260.068 34.257 259.627 34.3147C259.679 34.0549 259.737 33.5755 259.801 32.8768C259.865 32.178 259.923 31.3407 259.975 30.3705C260.027 29.4003 260.085 28.3435 260.149 27.2C260.213 26.0624 260.265 24.919 260.306 23.7755C260.346 22.6379 260.375 21.5233 260.404 20.4318C260.433 19.3462 260.445 18.3702 260.445 17.5155C260.445 15.0265 260.439 12.8898 260.428 11.0996C260.416 9.30936 260.381 7.97536 260.329 7.0918H260.955C262.545 8.80117 264.245 10.6376 266.055 12.5953C267.865 14.553 269.663 16.4818 271.444 18.3875C273.225 20.2932 274.919 22.095 276.52 23.7928C278.122 25.4907 279.52 26.9344 280.721 28.1298V22.84C280.721 20.12 280.703 17.4693 280.663 14.8879C280.622 12.3065 280.541 9.88108 280.407 7.59999C280.929 7.73281 281.37 7.79634 281.736 7.79634C282.049 7.79634 282.467 7.73281 282.983 7.59999C282.931 8.17171 282.873 9.02639 282.809 10.1641C282.745 11.3075 282.676 12.526 282.612 13.8196C282.548 15.1132 282.49 16.3836 282.438 17.631C282.386 18.8726 282.362 19.8717 282.362 20.6224C282.362 21.2692 282.362 22.0488 282.362 22.9555C282.362 23.839 282.368 24.7573 282.38 25.7159C282.391 26.6745 282.403 27.6389 282.42 28.6149C282.432 29.5851 282.444 30.4975 282.461 31.3349C282.473 32.178 282.478 32.9114 282.478 33.5293C282.478 34.1011 282.478 34.5284 282.478 34.8114H281.945C278.945 31.3695 275.76 27.8411 272.372 24.2202Z" fill="#A3ACB5"/>
<path d="M37.9873 17.6426H27.5218C26.2455 17.6426 25.207 16.6146 25.207 15.3384C25.207 14.0679 26.2397 13.0342 27.5218 13.0342H37.9873C39.2636 13.0342 40.3021 14.0621 40.3021 15.3384C40.3021 16.6146 39.2636 17.6426 37.9873 17.6426Z" fill="#A3ACB5"/>
<path d="M31.4492 28.3723V21.9448C31.4492 20.6743 32.4819 19.6406 33.7639 19.6406C35.0402 19.6406 36.0787 20.6686 36.0787 21.9448V28.3723C36.0787 29.6428 35.046 30.6765 33.7639 30.6765C32.4877 30.6765 31.4492 29.6428 31.4492 28.3723Z" fill="#A3ACB5"/>
<path d="M24.8066 8.73167V2.30419C24.8066 1.03371 25.8393 0 27.1214 0C28.3977 0 29.4361 1.02793 29.4361 2.30419V8.73167C29.4361 10.0021 28.4035 11.0359 27.1214 11.0359C25.8451 11.0359 24.8066 10.0021 24.8066 8.73167Z" fill="#A3ACB5"/>
<path d="M24.8066 40.5285V30.2954C24.8066 29.0249 25.8393 27.9912 27.1214 27.9912C28.3977 27.9912 29.4361 29.0191 29.4361 30.2954V40.5285C29.4361 41.799 28.4035 42.8327 27.1214 42.8327C25.8451 42.8327 24.8066 41.799 24.8066 40.5285Z" fill="#A3ACB5"/>
<path d="M18.1641 16.6604V10.2329C18.1641 8.96242 19.1967 7.92871 20.4788 7.92871C21.7551 7.92871 22.7935 8.95665 22.7935 10.2329V16.6604C22.7935 17.9309 21.7609 18.9646 20.4788 18.9646C19.2025 18.9646 18.1641 17.9309 18.1641 16.6604Z" fill="#A3ACB5"/>
<path d="M18.1641 34.2625V30.9419C18.1641 29.6714 19.1967 28.6377 20.4788 28.6377C21.7551 28.6377 22.7935 29.6656 22.7935 30.9419V34.2625C22.7935 35.5329 21.7609 36.5667 20.4788 36.5667C19.2025 36.5667 18.1641 35.5329 18.1641 34.2625Z" fill="#A3ACB5"/>
<path d="M40.4065 19.6523H45.2912C46.5675 19.6523 47.606 20.6803 47.606 21.9565C47.606 23.227 46.5733 24.2607 45.2912 24.2607H40.4065C39.1302 24.2607 38.0918 23.2328 38.0918 21.9565C38.0918 20.6803 39.1244 19.6523 40.4065 19.6523Z" fill="#A3ACB5"/>
<path d="M2.31473 19.6523H7.19944C8.47573 19.6523 9.51416 20.6803 9.51416 21.9565C9.51416 23.227 8.48153 24.2607 7.19944 24.2607H2.31473C1.03263 24.2549 0 23.2212 0 21.9508C0 20.6803 1.03263 19.6523 2.31473 19.6523Z" fill="#A3ACB5"/>
<path d="M11.5273 28.3723V21.9448C11.5273 20.6743 12.56 19.6406 13.8421 19.6406C15.1184 19.6406 16.1568 20.6686 16.1568 21.9448V28.3723C16.1568 29.6428 15.1242 30.6765 13.8421 30.6765C12.56 30.6765 11.5273 29.6428 11.5273 28.3723Z" fill="#A3ACB5"/>
<path d="M23.9882 26.3914C25.7152 26.3914 27.1152 24.9978 27.1152 23.2787C27.1152 21.5596 25.7152 20.166 23.9882 20.166C22.2613 20.166 20.8613 21.5596 20.8613 23.2787C20.8613 24.9978 22.2613 26.3914 23.9882 26.3914Z" fill="#A3ACB5"/>
<path d="M44.5306 17.544C45.7513 17.544 46.7409 16.559 46.7409 15.3438C46.7409 14.1286 45.7513 13.1436 44.5306 13.1436C43.3099 13.1436 42.3203 14.1286 42.3203 15.3438C42.3203 16.559 43.3099 17.544 44.5306 17.544Z" fill="#A3ACB5"/>
<path d="M20.4671 42.9942C21.6879 42.9942 22.6774 42.0092 22.6774 40.794C22.6774 39.5788 21.6879 38.5938 20.4671 38.5938C19.2464 38.5938 18.2568 39.5788 18.2568 40.794C18.2568 42.0092 19.2464 42.9942 20.4671 42.9942Z" fill="#A3ACB5"/>
<path d="M13.8246 17.544C15.0453 17.544 16.0349 16.559 16.0349 15.3438C16.0349 14.1286 15.0453 13.1436 13.8246 13.1436C12.6038 13.1436 11.6143 14.1286 11.6143 15.3438C11.6143 16.559 12.6038 17.544 13.8246 17.544Z" fill="#A3ACB5"/>
</g>
<defs>
<clipPath id="clip0_28296_9392">
<rect width="283" height="43" fill="white"/>
</clipPath>
</defs>
</svg>
