<svg width="50" height="50" viewBox="0 0 50 50" fill="none" xmlns="http://www.w3.org/2000/svg">
<path d="M48.8625 42.1516C47.2501 33.8336 45.6143 25.5207 43.9836 17.206C43.2608 13.5216 41.5583 11.9947 37.8778 11.9862C37.7176 11.9862 37.5707 11.9794 37.4388 11.964H33.9186C33.9186 11.8311 33.9186 11.6965 33.9186 11.5635C33.9202 10.783 33.9236 9.9974 33.8284 9.22542C33.8234 9.17259 33.8151 9.11976 33.8084 9.06693C33.6982 8.28472 33.4812 7.52807 33.1975 6.8072C32.5966 5.28198 31.6852 3.91353 30.5202 2.93023C29.1731 1.79525 27.5257 1.20561 25.8716 1.05735C23.8285 0.873296 21.7237 1.35728 19.9694 2.5928C18.2151 3.83003 16.8414 5.84435 16.3507 8.17054C16.0903 9.40606 16.0769 10.691 16.0786 11.9657H12.6719C12.5283 11.9896 12.3631 12.0032 12.1711 12.0032C8.23191 12.0117 6.67292 13.5131 5.90511 17.4838C4.34779 25.5479 2.78546 33.6137 1.19308 41.6745C0.308428 46.1445 2.50337 48.9615 6.96335 48.97C12.9473 48.9802 18.9329 48.9717 24.9185 48.97C31.091 48.9683 37.2652 48.9973 43.4378 48.9581C47.2735 48.9325 49.6053 45.9775 48.8625 42.1516ZM18.155 9.27654C18.2852 8.39719 18.6141 7.56897 19.033 6.82254C19.8359 5.38593 21.0176 4.1896 22.4298 3.72607C23.256 3.45511 24.1239 3.44148 24.9819 3.44148C25.8482 3.44148 26.7245 3.4517 27.5591 3.72437C28.9745 4.1879 30.1613 5.38252 30.9642 6.82084C31.3831 7.56897 31.7119 8.3989 31.8421 9.28165C31.9273 9.85596 31.9273 10.4439 31.9273 11.0284C31.9273 11.3403 31.9273 11.6539 31.9273 11.9657H18.0699C18.0699 11.6522 18.0699 11.3386 18.0699 11.025C18.0699 10.4405 18.0699 9.85425 18.1567 9.27825L18.155 9.27654ZM42.7951 47.0409C30.8206 47.0443 18.8461 47.046 6.87322 47.0324C3.75023 47.029 2.37151 45.318 2.97908 42.184C4.56811 33.987 6.17551 25.7933 7.7996 17.6014C8.28032 15.173 9.39865 13.992 11.2247 13.859C11.4534 13.842 11.6921 13.842 11.9424 13.859H16.0853C16.0886 15.0724 16.0903 16.2841 16.0936 17.4974C16.0936 17.8298 16.0936 18.1604 16.0953 18.4927H18.0716C18.0716 16.9487 18.0716 15.403 18.0699 13.859H31.9256C31.9256 15.403 31.9256 16.9487 31.9239 18.4927H33.9019C33.9052 16.9487 33.9102 15.403 33.9135 13.859H37.1701C37.2936 13.8335 37.4388 13.825 37.6091 13.8352C37.7276 13.842 37.8478 13.8505 37.9663 13.859C39.5269 13.9647 41.0642 14.1948 41.6501 16.0046C42.1809 17.644 42.493 19.3618 42.8285 21.0609C44.1922 27.9934 45.5376 34.9311 46.8712 41.8704C47.5506 45.4015 46.252 47.0392 42.7935 47.0409H42.7951Z" fill="#F5FAFE"/>
<path d="M33.0268 28.6893C32.9938 30.5121 32.4218 31.9174 31.4725 33.1824C29.7547 35.4672 27.5396 37.1479 25.1542 38.6207C24.9977 38.7166 24.8865 38.7291 24.723 38.6278C22.1481 37.0075 19.7244 35.2113 18.0136 32.5961C17.0556 31.1304 16.6123 29.519 16.9895 27.7583C17.5459 25.1627 20.7137 22.8583 23.8468 25.3101C24.238 25.6157 24.5787 26.218 24.963 26.2375C25.302 26.2553 25.6497 25.6175 26.034 25.3243C27.4023 24.2761 28.8888 23.8799 30.4936 24.7043C32.161 25.5624 32.966 27.0068 33.0286 28.6875L33.0268 28.6893Z" fill="#F5FAFE"/>
</svg>
