<svg width="50" height="50" viewBox="0 0 50 50" fill="none" xmlns="http://www.w3.org/2000/svg">
<g clip-path="url(#clip0_17097_26775)">
<path d="M24.2337 6.10374V14.2819H25.7642V6.10374C27.103 5.76227 28.098 4.54623 28.098 3.10173C28.098 1.39436 26.7075 0.00390625 25.0002 0.00390625C23.2928 0.00390625 21.9023 1.39436 21.9023 3.10173C21.9023 4.54623 22.8973 5.76227 24.2362 6.10374H24.2337ZM25.0002 1.53194C25.8649 1.53194 26.57 2.23454 26.57 3.10173C26.57 3.96892 25.8674 4.67152 25.0002 4.67152C24.133 4.67152 23.4304 3.96892 23.4304 3.10173C23.4304 2.23454 24.133 1.53194 25.0002 1.53194Z" fill="#F5FAFE"/>
<path d="M25.7666 43.9008V35.7227H24.2362V43.9008C22.8973 44.2423 21.9023 45.4583 21.9023 46.9028C21.9023 48.6102 23.2928 50.0006 25.0002 50.0006C26.7075 50.0006 28.098 48.6102 28.098 46.9028C28.098 45.4583 27.1031 44.2423 25.7642 43.9008H25.7666ZM25.0026 48.4726C24.1379 48.4726 23.4328 47.77 23.4328 46.9028C23.4328 46.0356 24.1354 45.333 25.0026 45.333C25.8698 45.333 26.5724 46.0356 26.5724 46.9028C26.5724 47.77 25.8698 48.4726 25.0026 48.4726Z" fill="#F5FAFE"/>
<path d="M43.9016 25.7669C44.2431 27.1057 45.4591 28.1007 46.9036 28.1007C48.611 28.1007 50.0014 26.7102 50.0014 25.0029C50.0014 23.2955 48.611 21.905 46.9036 21.905C45.4591 21.905 44.2431 22.9 43.9016 24.2388H35.7235V25.0029C35.7235 22.5978 34.9324 20.3795 33.596 18.591L34.0775 19.1855L38.3963 15.6775H42.123C42.4645 17.0163 43.6805 18.0113 45.125 18.0113C46.8324 18.0113 48.2228 16.6208 48.2228 14.9134C48.2228 13.2061 46.8324 11.8156 45.125 11.8156C43.6805 11.8156 42.4645 12.8106 42.123 14.1494H38.1236C37.9492 14.1494 37.7772 14.2108 37.6421 14.3214L33.1145 17.9965C32.773 17.6035 32.4045 17.2325 32.009 16.891L35.6866 12.3634C35.7972 12.2283 35.8586 12.0564 35.8586 11.8819V7.88499C37.1974 7.54352 38.1924 6.32748 38.1924 4.88298C38.1924 3.17561 36.8019 1.78516 35.0946 1.78516C33.3872 1.78516 31.9967 3.17561 31.9967 4.88298C31.9967 6.32748 32.9917 7.54352 34.3305 7.88499V11.6117L30.8225 15.9305L31.417 16.412C29.6285 15.0756 27.4077 14.2845 25.0051 14.2845C22.6025 14.2845 20.3817 15.0756 18.5933 16.412L19.1878 15.9305L15.6797 11.6117V7.88499C17.0186 7.54352 18.0135 6.32748 18.0135 4.88298C18.0135 3.17561 16.6231 1.78516 14.9157 1.78516C13.2083 1.78516 11.8179 3.17561 11.8179 4.88298C11.8179 6.32748 12.8128 7.54352 14.1517 7.88499V11.8819C14.1517 12.0564 14.2131 12.2283 14.3237 12.3634L18.0013 16.891C17.6057 17.2325 17.2372 17.601 16.8958 17.9965L12.3682 14.3214C12.2331 14.2108 12.0611 14.1494 11.8867 14.1494H7.88972C7.54825 12.8106 6.33221 11.8156 4.88771 11.8156C3.18034 11.8156 1.78988 13.2061 1.78988 14.9134C1.78988 16.6208 3.18034 18.0113 4.88771 18.0113C6.33221 18.0113 7.54825 17.0163 7.88972 15.6775H11.6164L15.9352 19.1855L16.4167 18.591C15.0803 20.3795 14.2893 22.5978 14.2893 25.0029V24.2388H6.10374C5.76227 22.9 4.54623 21.905 3.10173 21.905C1.39436 21.905 0.00390625 23.2955 0.00390625 25.0029C0.00390625 26.7102 1.39436 28.1007 3.10173 28.1007C4.54623 28.1007 5.76227 27.1057 6.10374 25.7669H14.2819V25.0029C14.2819 27.4079 15.0729 29.6263 16.4093 31.4147L15.9278 30.8202L11.6091 34.3283H7.88235C7.54088 32.9894 6.32484 31.9945 4.88034 31.9945C3.17297 31.9945 1.78251 33.3849 1.78251 35.0923C1.78251 36.7997 3.17297 38.1901 4.88034 38.1901C6.32484 38.1901 7.54088 37.1952 7.88235 35.8563H11.8793C12.0537 35.8563 12.2257 35.7949 12.3608 35.6843L16.8884 32.0092C17.2299 32.4023 17.5984 32.7732 17.9939 33.1147L14.3163 37.6423C14.2057 37.7774 14.1443 37.9494 14.1443 38.1238V42.1207C12.8055 42.4622 11.8105 43.6782 11.8105 45.1227C11.8105 46.8301 13.201 48.2206 14.9083 48.2206C16.6157 48.2206 18.0062 46.8301 18.0062 45.1227C18.0062 43.6782 17.0112 42.4622 15.6724 42.1207V38.394L19.1804 34.0752L18.5859 33.5937C20.3744 34.9301 22.5952 35.7212 24.9978 35.7212C27.4004 35.7212 29.6212 34.9301 31.4096 33.5937L30.8151 34.0752L34.3232 38.394V42.1207C32.9843 42.4622 31.9894 43.6782 31.9894 45.1227C31.9894 46.8301 33.3798 48.2206 35.0872 48.2206C36.7946 48.2206 38.185 46.8301 38.185 45.1227C38.185 43.6782 37.1901 42.4622 35.8512 42.1207V38.1238C35.8512 37.9494 35.7898 37.7774 35.6792 37.6423L32.0016 33.1147C32.3972 32.7732 32.7657 32.4047 33.1071 32.0092L37.6347 35.6843C37.7698 35.7949 37.9418 35.8563 38.1162 35.8563H42.1156C42.4571 37.1952 43.6731 38.1901 45.1176 38.1901C46.825 38.1901 48.2155 36.7997 48.2155 35.0923C48.2155 33.3849 46.825 31.9945 45.1176 31.9945C43.6731 31.9945 42.4571 32.9894 42.1156 34.3283H38.3889L34.0701 30.8202L33.5886 31.4147C34.925 29.6263 35.7161 27.4079 35.7161 25.0029V25.7669H43.8942H43.9016ZM46.9036 23.4331C47.7684 23.4331 48.4734 24.1357 48.4734 25.0029C48.4734 25.8701 47.7708 26.5727 46.9036 26.5727C46.0364 26.5727 45.3338 25.8701 45.3338 25.0029C45.3338 24.1357 46.0364 23.4331 46.9036 23.4331ZM45.125 13.3412C45.9898 13.3412 46.6948 14.0438 46.6948 14.911C46.6948 15.7782 45.9922 16.4808 45.125 16.4808C44.2578 16.4808 43.5552 15.7782 43.5552 14.911C43.5552 14.0438 44.2578 13.3412 45.125 13.3412ZM33.5248 4.87807C33.5248 4.01333 34.2274 3.30827 35.0946 3.30827C35.9618 3.30827 36.6644 4.01087 36.6644 4.87807C36.6644 5.74526 35.9618 6.44786 35.0946 6.44786C34.2274 6.44786 33.5248 5.74526 33.5248 4.87807ZM13.341 4.87807C13.341 4.01333 14.0436 3.30827 14.9108 3.30827C15.778 3.30827 16.4806 4.01087 16.4806 4.87807C16.4806 5.74526 15.778 6.44786 14.9108 6.44786C14.0436 6.44786 13.341 5.74526 13.341 4.87807ZM4.87788 16.4783C4.01314 16.4783 3.30809 15.7757 3.30809 14.9085C3.30809 14.0413 4.01069 13.3387 4.87788 13.3387C5.74507 13.3387 6.44767 14.0413 6.44767 14.9085C6.44767 15.7757 5.74507 16.4783 4.87788 16.4783ZM3.09927 26.5702C2.23454 26.5702 1.52948 25.8676 1.52948 25.0004C1.52948 24.1332 2.23208 23.4306 3.09927 23.4306C3.96647 23.4306 4.66907 24.1332 4.66907 25.0004C4.66907 25.8676 3.96647 26.5702 3.09927 26.5702ZM4.87788 36.6621C4.01314 36.6621 3.30809 35.9595 3.30809 35.0923C3.30809 34.2251 4.01069 33.5225 4.87788 33.5225C5.74507 33.5225 6.44767 34.2251 6.44767 35.0923C6.44767 35.9595 5.74507 36.6621 4.87788 36.6621ZM16.4781 45.1252C16.4781 45.9899 15.7755 46.695 14.9083 46.695C14.0411 46.695 13.3386 45.9924 13.3386 45.1252C13.3386 44.258 14.0411 43.5554 14.9083 43.5554C15.7755 43.5554 16.4781 44.258 16.4781 45.1252ZM30.2501 22.7133H26.8034C26.8034 22.104 26.6585 21.6471 26.3661 21.3474C26.0738 21.0477 25.6856 20.8978 25.1992 20.8978C24.7128 20.8978 24.3418 21.0206 24.106 21.2663C23.8702 21.512 23.7522 21.8264 23.7522 22.2072C23.7522 22.588 23.88 22.9073 24.133 23.1481C24.3861 23.3889 24.8602 23.6321 25.5554 23.8802C27.167 24.4354 28.3486 24.9881 29.1053 25.5384C29.8619 26.0912 30.2402 26.8773 30.2402 27.9042C30.2402 28.931 29.8595 29.6631 29.1004 30.2576C28.3413 30.8521 27.3168 31.201 26.0345 31.3066V32.9943H24.3787V31.2968C23.0325 31.1911 21.9147 30.8104 21.0254 30.1594C20.1361 29.5059 19.7062 28.5503 19.7332 27.29L19.7651 27.2384H23.1921C23.1921 27.9336 23.3788 28.4323 23.7547 28.737C24.1306 29.0416 24.6145 29.1939 25.2115 29.1939C25.7102 29.1939 26.0885 29.076 26.3465 28.8401C26.6044 28.6043 26.7322 28.2972 26.7322 27.9164C26.7322 27.4742 26.5995 27.1303 26.3366 26.8871C26.0738 26.6439 25.6046 26.4031 24.9314 26.1698C23.2929 25.644 22.1014 25.111 21.3546 24.5705C20.6077 24.03 20.2343 23.2365 20.2343 22.1876C20.2343 21.2417 20.6299 20.4605 21.4209 19.8488C22.2119 19.2347 23.2683 18.8785 24.5875 18.7777V17.004H26.2433V18.8097C27.4937 18.9546 28.4813 19.3698 29.2109 20.0527C29.9405 20.7357 30.2943 21.6078 30.2722 22.6666L30.2525 22.7084L30.2501 22.7133ZM36.6619 45.1252C36.6619 45.9899 35.9593 46.695 35.0921 46.695C34.2249 46.695 33.5223 45.9924 33.5223 45.1252C33.5223 44.258 34.2249 43.5554 35.0921 43.5554C35.9593 43.5554 36.6619 44.258 36.6619 45.1252ZM45.125 33.525C45.9898 33.525 46.6948 34.2276 46.6948 35.0947C46.6948 35.9619 45.9922 36.6645 45.125 36.6645C44.2578 36.6645 43.5552 35.9619 43.5552 35.0947C43.5552 34.2276 44.2578 33.525 45.125 33.525Z" fill="#F5FAFE"/>
</g>
<defs>
<clipPath id="clip0_17097_26775">
<rect width="50" height="50" fill="white"/>
</clipPath>
</defs>
</svg>
