<svg width="56" height="40" viewBox="0 0 56 40" fill="none" xmlns="http://www.w3.org/2000/svg">
<g clip-path="url(#clip0_17097_27069)">
<path d="M54 32.93H53.43V3C53.43 1.35 52.08 0 50.43 0H5.57C3.92 0 2.57 1.35 2.57 3V32.93H2C0.9 32.93 0 33.83 0 34.93V36C0 38.21 1.79 40 4 40H52C54.21 40 56 38.21 56 36V34.93C56 33.83 55.1 32.93 54 32.93ZM4.57 3C4.57 2.45 5.02 2 5.57 2H50.43C50.98 2 51.43 2.45 51.43 3V32.93H4.57V3ZM54 36C54 37.1 53.1 38 52 38H4C2.9 38 2 37.1 2 36V34.93H22.99V35.89C22.99 36.44 23.44 36.89 23.99 36.89H32.01C32.56 36.89 33.01 36.44 33.01 35.89V34.93H54V36Z" fill="#F5FAFE"/>
<path d="M40.4919 14.6001C40.4919 13.7701 40.0019 13.0201 39.1119 12.5701L29.3819 8.65011C28.5919 8.25011 27.6219 8.24011 26.8219 8.63011L16.9719 12.6001C16.1519 13.0101 15.6719 13.7601 15.6719 14.5901C15.6719 15.4201 16.1619 16.1701 17.0519 16.6201L19.5919 17.6401V21.7001C19.5919 22.6301 20.1519 23.4501 21.0219 23.8001L27.2319 26.3001C27.5119 26.4101 27.8019 26.4701 28.0919 26.4701C28.3819 26.4701 28.6719 26.4101 28.9519 26.3001L35.1619 23.8001C36.0319 23.4501 36.5919 22.6301 36.5919 21.7001V17.6301L37.5819 17.2301V26.4901C37.2519 27.0801 37.0319 27.8301 37.0319 28.3001C37.0319 29.1401 37.7219 29.8201 38.5819 29.8201C39.4419 29.8201 40.1319 29.1401 40.1319 28.3001C40.1319 27.8401 39.9219 27.0801 39.5819 26.4901V16.3201C40.1619 15.8901 40.5019 15.2701 40.5019 14.5801L40.4919 14.6001ZM17.6719 14.6001C17.6719 14.6001 17.7319 14.4601 17.8019 14.4301L27.6119 10.4801L27.6919 10.4401C27.8019 10.3801 27.9319 10.3501 28.0719 10.3501C28.2319 10.3501 28.4019 10.3901 28.5719 10.4701L38.3019 14.3901C38.4419 14.4601 38.5119 14.5501 38.5119 14.6001C38.5119 14.6501 38.4519 14.7401 38.3819 14.7701L28.5019 18.7601C28.2619 18.8801 27.9419 18.8801 27.6219 18.7201L17.8919 14.8101C17.7519 14.7401 17.6819 14.6501 17.6819 14.6001H17.6719ZM34.5819 21.7101C34.5819 21.8201 34.5119 21.9101 34.4119 21.9601L28.2019 24.4601C28.1319 24.4901 28.0519 24.4901 27.9719 24.4601L21.7619 21.9601C21.6519 21.9201 21.5919 21.8201 21.5919 21.7101V18.4501L26.7919 20.5401C27.2019 20.7501 27.6619 20.8501 28.1119 20.8501C28.5419 20.8501 28.9619 20.7601 29.3119 20.5801L34.5819 18.4501V21.7101Z" fill="#F5FAFE"/>
</g>
<defs>
<clipPath id="clip0_17097_27069">
<rect width="56" height="40" fill="white"/>
</clipPath>
</defs>
</svg>
