<svg width="47" height="50" viewBox="0 0 47 50" fill="none" xmlns="http://www.w3.org/2000/svg">
<path d="M43.2264 14.7136L28.0175 5.88262L12.8086 14.7136V9.80752L28.0175 0.976562L43.2264 9.80752V14.7136Z" stroke="#F5FAFE" stroke-width="1.95312" stroke-miterlimit="10" stroke-linecap="round" stroke-linejoin="round"/>
<path d="M15.7539 28.9743V13.0039" stroke="#F5FAFE" stroke-width="1.95312" stroke-miterlimit="10" stroke-linecap="round" stroke-linejoin="round"/>
<path d="M36.3594 5.81885V0.976562H40.2843V8.09824" stroke="#F5FAFE" stroke-width="1.95312" stroke-miterlimit="10" stroke-linecap="round" stroke-linejoin="round"/>
<path d="M26.168 27.9094C27.5873 27.862 28.8063 28.9094 28.9734 30.3196C29.1585 31.8817 27.99 33.2772 26.4196 33.3696L31.6162 33.1117C32.1728 33.1117 32.7065 32.8906 33.1001 32.4971L33.4146 32.1826V18.6367H22.6211V28.0276L26.168 27.9094Z" stroke="#F5FAFE" stroke-width="1.95312" stroke-miterlimit="10" stroke-linecap="round" stroke-linejoin="round"/>
<path d="M31.6154 33.1143C32.172 33.1143 32.7058 32.8932 33.0993 32.4997L41.8004 23.7986C42.7662 22.8328 44.3321 22.8328 45.298 23.7986C46.2638 24.7644 46.2638 26.3303 45.298 27.296L31.8245 40.7695C31.268 41.326 30.5131 41.6387 29.726 41.6387H20.9926C20.2055 41.6387 19.4506 41.9514 18.894 42.508L17.0676 44.3344L8.73047 35.9973L16.4928 28.235L26.1671 27.9122C27.5864 27.8648 28.8055 28.9122 28.9726 30.3224C29.1576 31.8845 27.9892 33.28 26.4188 33.3724" stroke="#F5FAFE" stroke-width="1.95312" stroke-miterlimit="10" stroke-linecap="round" stroke-linejoin="round"/>
<path d="M22.1328 33.5667L31.6159 33.1133" stroke="#F5FAFE" stroke-width="1.95312" stroke-miterlimit="10" stroke-linecap="round" stroke-linejoin="round"/>
<path d="M0.976562 40.9681L15.2117 49.026L18.4856 45.752L7.33906 34.6055L0.976562 40.9681Z" stroke="#F5FAFE" stroke-width="1.95312" stroke-miterlimit="10" stroke-linecap="round" stroke-linejoin="round"/>
</svg>
