<svg width="62" height="60" viewBox="0 0 62 60" fill="none" xmlns="http://www.w3.org/2000/svg">
<path d="M36.9658 32.2044C36.9658 28.9148 34.2894 26.2384 30.9997 26.2384C27.7103 26.2384 25.0338 28.9148 25.0338 32.2044C25.0338 35.4941 27.7103 38.1704 30.9997 38.1704C34.2894 38.1704 36.9658 35.4941 36.9658 32.2044Z" fill="url(#paint0_linear_17009_26658)"/>
<path d="M30.9997 41.8033C27.7103 41.8033 25.0338 44.4796 25.0338 47.7693V59.3136H36.9657V47.7693C36.9658 44.4795 34.2894 41.8033 30.9997 41.8033Z" fill="url(#paint1_linear_17009_26658)"/>
<path d="M61.8356 22.4037C61.366 20.9587 59.9676 19.9659 57.999 19.68L41.9526 17.3479L34.7764 2.80735C33.8957 1.02338 32.5191 0 30.9998 0C29.4804 0 28.1041 1.02338 27.2237 2.80747L20.047 17.3479L4.00117 19.6799C2.03216 19.9659 0.63363 20.9589 0.164265 22.4041C-0.305221 23.8492 0.242614 25.4743 1.66742 26.8628L13.2779 38.1808L10.5379 54.1624C10.1914 56.1827 10.7734 57.4014 11.3227 58.068C11.9462 58.8249 12.8515 59.2635 13.8795 59.309C13.9219 59.3119 13.9645 59.3135 14.0076 59.3135H21.4011V47.7691C21.4011 44.5691 22.9767 41.7318 25.3911 39.9867C22.9767 38.2417 21.4011 35.4044 21.4011 32.2043C21.4011 26.9115 25.7071 22.6054 30.9998 22.6054C36.2928 22.6054 40.5988 26.9115 40.5988 32.2043C40.5988 35.4044 39.0233 38.2416 36.6088 39.9867C39.0233 41.7317 40.5988 44.5691 40.5988 47.7691V59.3135H48.0553C48.1464 59.3135 48.2359 59.3067 48.3233 59.2938C49.2841 59.2014 50.1258 58.7565 50.7078 58.0295C51.2403 57.3644 51.8034 56.1536 51.4619 54.1624L48.7209 38.1808L60.3328 26.8627C61.7574 25.4741 62.3052 23.8487 61.8356 22.4037Z" fill="url(#paint2_linear_17009_26658)"/>
<defs>
<linearGradient id="paint0_linear_17009_26658" x1="0" y1="29.6563" x2="69" y2="29.6562" gradientUnits="userSpaceOnUse">
<stop stop-color="#2584F1"/>
<stop offset="1" stop-color="#2739E8"/>
</linearGradient>
<linearGradient id="paint1_linear_17009_26658" x1="0" y1="29.6563" x2="69" y2="29.6562" gradientUnits="userSpaceOnUse">
<stop stop-color="#2584F1"/>
<stop offset="1" stop-color="#2739E8"/>
</linearGradient>
<linearGradient id="paint2_linear_17009_26658" x1="0" y1="29.6563" x2="69" y2="29.6562" gradientUnits="userSpaceOnUse">
<stop stop-color="#2584F1"/>
<stop offset="1" stop-color="#2739E8"/>
</linearGradient>
</defs>
</svg>
