<svg width="58" height="58" viewBox="0 0 58 58" fill="none" xmlns="http://www.w3.org/2000/svg">
<path d="M28.6244 16.0299C21.6797 16.0299 16.0299 21.6797 16.0299 28.6243C16.0299 35.5689 21.6797 41.2188 28.6244 41.2188C35.5689 41.2188 41.2188 35.5689 41.2188 28.6243C41.2188 21.6797 35.5689 16.0299 28.6244 16.0299ZM29.5345 36.0635V37.7192C29.5345 38.2369 29.1147 38.6567 28.597 38.6567C28.0792 38.6567 27.6595 38.2369 27.6595 37.7192V36.0645C26.8758 35.8899 26.156 35.4979 25.5746 34.9164C25.2084 34.5503 25.2084 33.9567 25.5746 33.5906C25.9407 33.2245 26.5343 33.2245 26.9004 33.5906C27.3536 34.0437 27.9561 34.2933 28.597 34.2933C29.92 34.2933 30.9963 33.217 30.9963 31.894C30.9963 30.571 29.92 29.4947 28.597 29.4947C26.2401 29.4947 24.3226 27.5772 24.3226 25.2204C24.3226 23.1856 25.7522 21.4796 27.6595 21.0509V19.3952C27.6595 18.8774 28.0792 18.4577 28.597 18.4577C29.1147 18.4577 29.5345 18.8774 29.5345 19.3952V21.0499C30.3181 21.2244 31.0379 21.6165 31.6193 22.198C31.9854 22.5641 31.9854 23.1577 31.6192 23.5238C31.2531 23.8899 30.6595 23.8898 30.2934 23.5238C29.8404 23.0706 29.2378 22.8211 28.597 22.8211C27.274 22.8211 26.1976 23.8974 26.1976 25.2204C26.1976 26.5434 27.274 27.6197 28.597 27.6197C30.9539 27.6197 32.8713 29.5371 32.8713 31.894C32.8713 33.9288 31.4417 35.6348 29.5345 36.0635Z" fill="url(#paint0_linear_17009_26864)"/>
<path d="M37.1967 48.3933C37.1967 42.2195 42.2194 37.1967 48.3933 37.1967C48.9447 37.1967 49.4866 37.2375 50.0169 37.3149C50.2158 36.8253 50.3978 36.3287 50.5623 35.8278L54.7745 35.1292C56.186 34.9255 57.2487 33.6995 57.2487 32.2721V24.9765C57.2487 23.548 56.1843 22.3213 54.7713 22.1189L50.5736 21.4519C50.2086 20.3346 49.7565 19.2426 49.2241 18.193L51.7144 14.734C52.5689 13.5918 52.4537 11.9728 51.4443 10.9633L46.2854 5.80444C45.2733 4.7921 43.6481 4.67897 42.5038 5.54255L39.1589 8.07747C38.0379 7.50177 36.8691 7.01815 35.6709 6.63431L35.1311 2.48703C34.933 1.06922 33.7039 0 32.2722 0H24.9765C23.5449 0 22.3159 1.06916 22.1164 2.49596L21.5784 6.63405C20.3918 7.01417 19.2338 7.49233 18.1227 8.06062L14.7434 5.5414C13.6006 4.67909 11.9754 4.7921 10.9633 5.80444L5.8045 10.9633C4.7941 11.9736 4.67955 13.5946 5.53659 14.7369L8.03853 18.1656C7.49681 19.2301 7.03763 20.3382 6.66826 21.4725L2.48005 22.1186C1.06573 22.3198 0 23.5472 0 24.9765V32.2721C0 33.7009 1.06482 34.9279 2.47839 35.1298L6.67274 35.7895C7.05048 36.9469 7.52149 38.0768 8.07861 39.1614L5.54146 42.5052C4.67909 43.648 4.79216 45.2731 5.8045 46.2853L10.9633 51.4442C11.5196 52.0005 12.261 52.2853 13.0063 52.2853C13.6173 52.2853 14.231 52.094 14.7475 51.7041L18.0751 49.1638C19.1747 49.7295 20.3209 50.2065 21.4954 50.5877L22.1176 54.7617C22.3159 56.1795 23.5449 57.2487 24.9765 57.2487H32.2722C33.7039 57.2487 34.9329 56.1795 35.1311 54.7616C35.1316 54.7574 35.1322 54.7532 35.1328 54.7489L35.6524 50.6189C36.2132 50.4397 36.7683 50.2383 37.3148 50.0162C37.2375 49.4861 37.1967 48.9444 37.1967 48.3933ZM28.6244 43.0938C20.6459 43.0938 14.1549 36.6028 14.1549 28.6243C14.1549 20.6459 20.6459 14.1549 28.6244 14.1549C36.6028 14.1549 43.0938 20.6459 43.0938 28.6243C43.0938 36.6028 36.6028 43.0938 28.6244 43.0938Z" fill="url(#paint1_linear_17009_26864)"/>
<path d="M39.1889 48.3933C39.1889 53.4686 43.3179 57.5977 48.3933 57.5977C53.4686 57.5977 57.5977 53.4686 57.5977 48.3933C57.5977 43.318 53.4686 39.1889 48.3933 39.1889C43.3179 39.1889 39.1889 43.318 39.1889 48.3933ZM49.3308 42.0391V47.9535L53.4105 51.3456C53.8086 51.6766 53.8631 52.2677 53.532 52.6658C53.3466 52.8888 53.0796 53.0039 52.8107 53.0039C52.5993 53.0039 52.3869 52.9329 52.2118 52.7873L47.794 49.1142C47.5797 48.9361 47.4558 48.6719 47.4558 48.3933V42.0391C47.4558 41.5213 47.8756 41.1016 48.3933 41.1016C48.911 41.1016 49.3308 41.5213 49.3308 42.0391Z" fill="url(#paint2_linear_17009_26864)"/>
<defs>
<linearGradient id="paint0_linear_17009_26864" x1="0" y1="28.7983" x2="64.1007" y2="28.7983" gradientUnits="userSpaceOnUse">
<stop stop-color="#2584F1"/>
<stop offset="1" stop-color="#2739E8"/>
</linearGradient>
<linearGradient id="paint1_linear_17009_26864" x1="0" y1="28.7983" x2="64.1007" y2="28.7983" gradientUnits="userSpaceOnUse">
<stop stop-color="#2584F1"/>
<stop offset="1" stop-color="#2739E8"/>
</linearGradient>
<linearGradient id="paint2_linear_17009_26864" x1="0" y1="28.7983" x2="64.1007" y2="28.7983" gradientUnits="userSpaceOnUse">
<stop stop-color="#2584F1"/>
<stop offset="1" stop-color="#2739E8"/>
</linearGradient>
</defs>
</svg>
