<svg width="57" height="50" viewBox="0 0 57 50" fill="none" xmlns="http://www.w3.org/2000/svg">
<path fill-rule="evenodd" clip-rule="evenodd" d="M25.3927 39.5966H2.64195C1.18691 39.5966 0 38.4113 0 36.9574V3.27927C0 1.46817 1.46264 0 3.26693 0H10.6414V16.1551C10.6414 16.5027 10.8298 16.8227 11.133 16.9903C11.4362 17.158 11.8064 17.1468 12.0991 16.9611L19.8172 12.0634L27.5356 16.9611C27.8282 17.1468 28.1984 17.158 28.5017 16.9903C28.8048 16.8227 28.9932 16.5027 28.9932 16.1551V0H36.3674C38.1717 0 39.6344 1.46817 39.6344 3.27927V14.6029H38.0634C37.278 14.6029 36.5736 15.0879 36.2908 15.8235L35.5686 17.7022C34.5834 18.0046 33.6299 18.4012 32.7193 18.8873L30.8898 18.0707C30.1714 17.7501 29.3304 17.9067 28.7744 18.4648L25.5835 21.6678C25.0275 22.2259 24.8714 23.0701 25.1908 23.7912L26.0042 25.6277C25.5198 26.5418 25.1243 27.4995 24.8212 28.4906L22.9535 29.212C22.22 29.4955 21.736 30.203 21.736 30.992V35.5227C21.736 36.3117 22.22 37.0192 22.9535 37.3026L24.8218 38.0244C24.9854 38.5582 25.1758 39.0831 25.3927 39.5966ZM12.5414 0H27.0933V14.4242L20.3248 10.1291C20.0147 9.93246 19.6196 9.93246 19.3096 10.1291L12.5414 14.4241V0ZM43.6407 19.2887C45.1135 19.64 46.5181 20.2241 47.809 21.0226L50.5181 19.8134L53.7091 23.0164L52.509 25.7358C53.3045 27.0316 53.8864 28.4414 54.2363 29.9243L57 30.992V35.5227L54.2363 36.5904C53.8864 38.0687 53.3 39.4786 52.509 40.7744L53.7091 43.4937L50.5181 46.6967L47.809 45.4921C46.5226 46.2907 45.1135 46.8746 43.6407 47.2259L42.5771 50H38.0634L36.9998 47.2259C35.5225 46.8746 34.1179 46.286 32.827 45.4921L30.118 46.6967L26.9269 43.4937L28.1315 40.7744C27.336 39.4831 26.7543 38.0687 26.3997 36.5904L23.636 35.5227V30.992L26.3997 29.9243C26.7543 28.4414 27.336 27.0316 28.1315 25.7358L26.9269 23.0164L30.118 19.8134L32.827 21.0226C34.1179 20.2241 35.5225 19.64 36.9953 19.2887L38.0634 16.5101H42.5771L43.6407 19.2887ZM40.3173 22.0662C34.1587 22.0662 29.1713 27.0725 29.1713 33.2544C29.1713 39.4361 34.1588 44.4484 40.3173 44.4484C46.4757 44.4484 51.4693 39.436 51.4693 33.2544C51.4693 27.0726 46.4759 22.0662 40.3173 22.0662ZM40.3173 23.9733C45.4263 23.9733 49.5693 28.1261 49.5693 33.2544C49.5693 38.3828 45.4265 42.5413 40.3173 42.5413C35.2084 42.5413 31.0713 38.3827 31.0713 33.2544C31.0713 28.1262 35.2085 23.9733 40.3173 23.9733ZM41.268 32.3038V27.1779C41.268 26.6516 40.8423 26.2243 40.318 26.2243C39.7937 26.2243 39.368 26.6516 39.368 27.1779V33.1612C39.368 33.185 39.3689 33.2087 39.3706 33.2321C39.3704 33.2406 39.3703 33.2489 39.3703 33.2574C39.3703 33.7836 39.796 34.211 40.3203 34.211H44.8368C45.3611 34.211 45.7868 33.7836 45.7868 33.2574C45.7868 32.731 45.3611 32.3038 44.8368 32.3038H41.268Z" fill="url(#paint0_linear_17032_27082)"/>
<defs>
<linearGradient id="paint0_linear_17032_27082" x1="0" y1="24.9995" x2="63.4355" y2="24.9995" gradientUnits="userSpaceOnUse">
<stop stop-color="#2584F1"/>
<stop offset="1" stop-color="#2739E8"/>
</linearGradient>
</defs>
</svg>
