<svg width="50" height="50" viewBox="0 0 50 50" fill="none" xmlns="http://www.w3.org/2000/svg">
<path fill-rule="evenodd" clip-rule="evenodd" d="M47.9167 0H10.8833C9.73542 0 8.8 0.935436 8.8 2.08338V29.06H18.3365C19.7719 29.06 20.9406 30.2288 20.9406 31.6642V41.2009H47.9167C49.0646 41.2009 50 40.2654 50 39.1175V2.08338C50 0.935436 49.0646 0 47.9167 0ZM1.5625 30.1006H18.3365C19.1969 30.1006 19.899 30.8027 19.899 31.6632V48.4375C19.899 49.2979 19.1969 50 18.3365 50H1.5625C0.702083 50 0 49.2979 0 48.4375V31.6632C0 30.8027 0.702083 30.1006 1.5625 30.1006ZM35.2562 8.44393C34.3969 8.45018 33.6948 7.75954 33.6875 6.90014C33.6813 6.04075 34.3719 5.33865 35.2313 5.33136L43.125 5.23969C43.9844 5.23344 44.6865 5.92408 44.6938 6.78347L44.7854 14.6774C44.7917 15.5368 44.101 16.2389 43.2417 16.2462C42.3823 16.2524 41.6802 15.5618 41.6729 14.7024L41.625 10.5596L25.0094 27.1756C24.399 27.786 23.4104 27.786 22.8 27.1756C22.1896 26.5651 22.1896 25.5766 22.8 24.9661L39.3688 8.39705L35.2562 8.44393Z" fill="url(#paint0_linear_17032_27204)"/>
<defs>
<linearGradient id="paint0_linear_17032_27204" x1="0" y1="24.9995" x2="55.6452" y2="24.9995" gradientUnits="userSpaceOnUse">
<stop stop-color="#2584F1"/>
<stop offset="1" stop-color="#2739E8"/>
</linearGradient>
</defs>
</svg>
