<svg width="50" height="50" viewBox="0 0 50 50" fill="none" xmlns="http://www.w3.org/2000/svg">
<path d="M4.95187 15.1895C5.90642 13.2435 7.13991 11.4473 8.6133 9.8578L6.67185 7.915C2.56193 12.3281 0.191449 18.0822 0 24.1103L2.68892 24.096C2.77342 21.9066 3.18861 19.7425 3.92041 17.6772C3.76791 17.4569 3.67311 17.2018 3.6447 16.9353C3.6163 16.6689 3.6552 16.3995 3.75783 16.152C3.86047 15.9045 4.02356 15.6867 4.23216 15.5185C4.44077 15.3504 4.68823 15.2372 4.95187 15.1895Z" fill="url(#paint0_linear_17032_27726)"/>
<path d="M6.35035 17.9389L18.8037 24.6382C18.9934 23.0819 19.6514 21.62 20.6907 20.4463L6.92636 16.5214C6.74421 16.4703 6.54963 16.4881 6.37977 16.5714C6.2099 16.6546 6.07663 16.7976 6.0054 16.9728C5.93418 17.1481 5.92998 17.3435 5.9936 17.5217C6.05723 17.6999 6.18422 17.8484 6.35035 17.9389Z" fill="url(#paint1_linear_17032_27726)"/>
<path d="M22.8259 27.8066L23.6386 26.6087C23.7895 26.3849 23.993 26.2015 24.2313 26.0748C24.4697 25.948 24.7354 25.8817 25.0054 25.8817C25.2753 25.8817 25.5411 25.948 25.7794 26.0748C26.0177 26.2015 26.2212 26.3849 26.3721 26.6087L27.1839 27.8057C27.775 27.3506 28.2088 26.7218 28.4244 26.0076C28.6401 25.2934 28.6269 24.5296 28.3866 23.8233C28.1463 23.117 27.6909 22.5037 27.0845 22.0694C26.478 21.635 25.7508 21.4015 25.0049 21.4015C24.259 21.4015 23.5318 21.635 22.9254 22.0694C22.3189 22.5037 21.8636 23.117 21.6233 23.8233C21.3829 24.5296 21.3697 25.2934 21.5854 26.0076C21.8011 26.7218 22.2349 27.3515 22.8259 27.8066Z" fill="url(#paint2_linear_17032_27726)"/>
<path d="M11.6148 50H38.395C38.5572 49.9999 38.7163 49.9556 38.8551 49.8719C38.994 49.7882 39.1075 49.6682 39.1834 49.5249C39.2594 49.3816 39.2948 49.2203 39.286 49.0584C39.2772 48.8964 39.2245 48.7399 39.1336 48.6057L25.7443 28.8659C25.6625 28.7451 25.5523 28.6461 25.4234 28.5777C25.2945 28.5093 25.1508 28.4736 25.0049 28.4736C24.859 28.4736 24.7153 28.5093 24.5864 28.5777C24.4575 28.6461 24.3473 28.7451 24.2655 28.8659L10.8762 48.6065C10.7855 48.7408 10.733 48.8972 10.7244 49.059C10.7157 49.2208 10.7512 49.382 10.8271 49.5251C10.903 49.6683 11.0164 49.7881 11.1551 49.8718C11.2939 49.9554 11.4528 49.9998 11.6148 50ZM24.1119 33.0284C24.1119 32.7915 24.206 32.5643 24.3734 32.3968C24.5409 32.2293 24.7681 32.1352 25.0049 32.1352C25.2418 32.1352 25.4689 32.2293 25.6364 32.3968C25.8039 32.5643 25.8979 32.7915 25.8979 33.0284V42.8541C25.8979 43.091 25.8039 43.3182 25.6364 43.4857C25.4689 43.6532 25.2418 43.7473 25.0049 43.7473C24.7681 43.7473 24.5409 43.6532 24.3734 43.4857C24.206 43.3182 24.1119 43.091 24.1119 42.8541V33.0284ZM24.1119 46.427C24.1119 46.1901 24.206 45.9629 24.3734 45.7954C24.5409 45.6279 24.7681 45.5338 25.0049 45.5338C25.2418 45.5338 25.4689 45.6279 25.6364 45.7954C25.8039 45.9629 25.8979 46.1901 25.8979 46.427V47.3203C25.8979 47.5572 25.8039 47.7844 25.6364 47.9519C25.4689 48.1194 25.2418 48.2135 25.0049 48.2135C24.7681 48.2135 24.5409 48.1194 24.3734 47.9519C24.206 47.7844 24.1119 47.5572 24.1119 47.3203V46.427Z" fill="url(#paint3_linear_17032_27726)"/>
<path d="M50 24.096C49.8124 18.0732 47.4451 12.3233 43.338 7.915L41.4305 9.82296C45.0318 13.7189 47.1209 18.775 47.32 24.0773L50 24.096Z" fill="url(#paint4_linear_17032_27726)"/>
<path d="M42.0717 6.65553C37.6607 2.55647 31.9158 0.192414 25.8979 0V2.67972C31.203 2.87612 36.2632 4.9622 40.1659 8.56171L42.0717 6.65553Z" fill="url(#paint5_linear_17032_27726)"/>
<path d="M24.1119 2.69133V0C18.0942 0.192896 12.3494 2.55689 7.93817 6.65553L9.87873 8.59654C13.7742 5.00424 18.818 2.9116 24.1119 2.69133Z" fill="url(#paint6_linear_17032_27726)"/>
<defs>
<linearGradient id="paint0_linear_17032_27726" x1="0" y1="24.9995" x2="55.6452" y2="24.9995" gradientUnits="userSpaceOnUse">
<stop stop-color="#2584F1"/>
<stop offset="1" stop-color="#2739E8"/>
</linearGradient>
<linearGradient id="paint1_linear_17032_27726" x1="0" y1="24.9995" x2="55.6452" y2="24.9995" gradientUnits="userSpaceOnUse">
<stop stop-color="#2584F1"/>
<stop offset="1" stop-color="#2739E8"/>
</linearGradient>
<linearGradient id="paint2_linear_17032_27726" x1="0" y1="24.9995" x2="55.6452" y2="24.9995" gradientUnits="userSpaceOnUse">
<stop stop-color="#2584F1"/>
<stop offset="1" stop-color="#2739E8"/>
</linearGradient>
<linearGradient id="paint3_linear_17032_27726" x1="0" y1="24.9995" x2="55.6452" y2="24.9995" gradientUnits="userSpaceOnUse">
<stop stop-color="#2584F1"/>
<stop offset="1" stop-color="#2739E8"/>
</linearGradient>
<linearGradient id="paint4_linear_17032_27726" x1="0" y1="24.9995" x2="55.6452" y2="24.9995" gradientUnits="userSpaceOnUse">
<stop stop-color="#2584F1"/>
<stop offset="1" stop-color="#2739E8"/>
</linearGradient>
<linearGradient id="paint5_linear_17032_27726" x1="0" y1="24.9995" x2="55.6452" y2="24.9995" gradientUnits="userSpaceOnUse">
<stop stop-color="#2584F1"/>
<stop offset="1" stop-color="#2739E8"/>
</linearGradient>
<linearGradient id="paint6_linear_17032_27726" x1="0" y1="24.9995" x2="55.6452" y2="24.9995" gradientUnits="userSpaceOnUse">
<stop stop-color="#2584F1"/>
<stop offset="1" stop-color="#2739E8"/>
</linearGradient>
</defs>
</svg>
