<svg width="32" height="32" viewBox="0 0 32 32" fill="none" xmlns="http://www.w3.org/2000/svg">
<path fill-rule="evenodd" clip-rule="evenodd" d="M10.986 2.70181H13.8933C13.8933 1.54231 14.842 0.59375 16.0013 0.59375C17.1608 0.59375 18.1095 1.54231 18.1095 2.70181H21.0168C21.1545 2.70181 21.2668 2.81419 21.2668 2.95181V5.58469C21.2668 5.72231 21.1545 5.83462 21.0168 5.83462H10.986C10.8484 5.83462 10.7361 5.72231 10.7361 5.58469V2.95181C10.7361 2.81413 10.8484 2.70181 10.986 2.70181ZM24.8243 26.7071H23.5262V28.0052L24.8243 26.7071ZM9.67359 5.35169H6.42728V28.7564H22.4638V26.1758C22.4638 25.8825 22.7017 25.6446 22.995 25.6446H25.5756V5.35169H22.3294V5.58469C22.3294 6.30875 21.741 6.89712 21.0169 6.89712H10.986C10.262 6.89712 9.67359 6.30875 9.67359 5.58469V5.35169ZM9.44822 14.6468L10.2477 15.4262L11.9856 13.6719C12.1919 13.4645 12.5273 13.4636 12.7347 13.6699C12.9422 13.8762 12.9431 14.2116 12.7368 14.419L10.6297 16.5458C10.4249 16.7519 10.0925 16.7541 9.88472 16.5521L8.70934 15.4062C8.49966 15.2022 8.49497 14.8668 8.69909 14.6571C8.90309 14.4474 9.23841 14.4428 9.44822 14.6468ZM10.2477 20.5077L11.9856 18.7535C12.1919 18.5461 12.5273 18.5451 12.7347 18.7514C12.9422 18.9578 12.9431 19.2931 12.7368 19.5006L10.6297 21.6274C10.4249 21.8334 10.0925 21.8357 9.88472 21.6337L8.70928 20.4879C8.49959 20.2839 8.49491 19.9485 8.69903 19.7388C8.90303 19.5291 9.23834 19.5244 9.44816 19.7284L10.2477 20.5077ZM8.70934 25.5696C8.49966 25.3656 8.49497 25.0301 8.69909 24.8204C8.90309 24.6108 9.23841 24.6061 9.44822 24.8101L10.2477 25.5894L11.9856 23.8352C12.1919 23.6278 12.5273 23.6268 12.7347 23.8331C12.9422 24.0394 12.9431 24.3748 12.7368 24.5823L10.6297 26.7091C10.4249 26.9151 10.0925 26.9174 9.88472 26.7153L8.70934 25.5696ZM8.69909 9.5755C8.90309 9.36581 9.23841 9.36112 9.44822 9.56519L10.2477 10.3445L11.9856 8.59025C12.1919 8.38287 12.5273 8.38187 12.7347 8.58819C12.9422 8.7945 12.9431 9.12994 12.7368 9.33731L10.6297 11.4641C10.4249 11.6702 10.0925 11.6724 9.88472 11.4704L8.70928 10.3247C8.49966 10.1206 8.49497 9.78519 8.69909 9.5755ZM14.4678 19.0763C14.4678 18.7829 14.7057 18.5451 14.999 18.5451H22.924C23.2173 18.5451 23.4552 18.7829 23.4552 19.0763C23.4552 19.3697 23.2173 19.6076 22.924 19.6076H14.999C14.7057 19.6076 14.4678 19.3697 14.4678 19.0763ZM14.999 20.7733H18.9615C19.2548 20.7733 19.4927 21.0112 19.4927 21.3046C19.4927 21.598 19.2548 21.8358 18.9615 21.8358H14.999C14.7057 21.8358 14.4678 21.598 14.4678 21.3046C14.4678 21.0112 14.7057 20.7733 14.999 20.7733ZM14.999 23.6267H22.924C23.2173 23.6267 23.4552 23.8645 23.4552 24.1579C23.4552 24.4513 23.2173 24.6892 22.924 24.6892H14.999C14.7057 24.6892 14.4678 24.4513 14.4678 24.1579C14.4678 23.8645 14.7057 23.6267 14.999 23.6267ZM18.9615 25.855C19.2548 25.855 19.4927 26.0929 19.4927 26.3862C19.4927 26.6796 19.2548 26.9175 18.9615 26.9175H14.999C14.7057 26.9175 14.4678 26.6796 14.4678 26.3862C14.4678 26.0929 14.7057 25.855 14.999 25.855H18.9615ZM14.999 13.4634H22.924C23.2173 13.4634 23.4552 13.7013 23.4552 13.9946C23.4552 14.2881 23.2173 14.5259 22.924 14.5259H14.999C14.7057 14.5259 14.4678 14.2881 14.4678 13.9946C14.4678 13.7013 14.7057 13.4634 14.999 13.4634ZM18.9615 15.6917C19.2548 15.6917 19.4927 15.9296 19.4927 16.223C19.4927 16.5163 19.2548 16.7542 18.9615 16.7542H14.999C14.7057 16.7542 14.4678 16.5163 14.4678 16.223C14.4678 15.9296 14.7057 15.6917 14.999 15.6917H18.9615ZM14.999 9.44425C14.7057 9.44425 14.4678 9.20638 14.4678 8.913C14.4678 8.61963 14.7057 8.38175 14.999 8.38175H22.924C23.2173 8.38175 23.4552 8.61963 23.4552 8.913C23.4552 9.20638 23.2173 9.44425 22.924 9.44425H14.999ZM14.999 10.6101H18.9615C19.2548 10.6101 19.4927 10.848 19.4927 11.1414C19.4927 11.4347 19.2548 11.6726 18.9615 11.6726H14.999C14.7057 11.6726 14.4678 11.4347 14.4678 11.1414C14.4678 10.8479 14.7057 10.6101 14.999 10.6101ZM5.89597 4.28919H9.67353V2.95181C9.67353 2.86637 9.68172 2.78275 9.69734 2.70181H5.07766C4.36147 2.70181 3.77734 3.28587 3.77734 4.002V30.106C3.77734 30.8222 4.36147 31.4063 5.07766 31.4063H26.9252C27.6414 31.4063 28.2254 30.8222 28.2254 30.106V4.00194C28.2254 3.28581 27.6414 2.70175 26.9252 2.70175H22.3056C22.3212 2.78269 22.3294 2.86631 22.3294 2.95175V4.28912H26.1068C26.4002 4.28912 26.6381 4.527 26.6381 4.82037L26.638 26.1758C26.638 26.3118 26.5861 26.4477 26.4825 26.5514L23.3737 29.6601C23.2773 29.758 23.1432 29.8188 22.995 29.8188H5.89597C5.60253 29.8188 5.36472 29.5809 5.36472 29.2876V4.82044C5.36472 4.52706 5.60253 4.28919 5.89597 4.28919Z" fill="white"/>
</svg>
