<svg width="29" height="26" viewBox="0 0 29 26" fill="none" xmlns="http://www.w3.org/2000/svg">
<path d="M11.1933 23.0177C11.0861 23.0177 10.9807 22.9897 10.8876 22.9364C10.7945 22.8831 10.7169 22.8064 10.6626 22.7138C8.61789 19.2303 3.16663 11.8129 3.11186 11.7384C3.02429 11.6194 2.98248 11.4728 2.99409 11.3254C3.00569 11.1781 3.06993 11.0399 3.17506 10.936L4.85131 9.27951C4.95368 9.17835 5.08828 9.11627 5.23168 9.10407C5.37509 9.09187 5.51824 9.13032 5.63623 9.21274L11.0653 13.0035C14.6981 8.34505 18.0727 5.12658 20.2927 3.22745C22.7922 1.08972 24.3832 0.127323 24.4498 0.0876923C24.5455 0.0303092 24.6549 -1.78722e-06 24.7664 1.24609e-09H27.4783C27.6031 -7.93595e-06 27.7249 0.0379023 27.8276 0.108705C27.9303 0.179507 28.0091 0.279857 28.0535 0.39645C28.0979 0.513044 28.1058 0.640374 28.0761 0.761559C28.0465 0.882744 27.9807 0.992061 27.8876 1.07502C20.1864 7.93434 11.8117 22.5599 11.728 22.7069C11.6746 22.8007 11.5974 22.8788 11.5043 22.9333C11.4111 22.9879 11.3053 23.017 11.1973 23.0177L11.1933 23.0177Z" fill="white"/>
<path d="M11.0769 25.5835C4.96911 25.5835 0 20.6145 0 14.5066C0 8.39874 4.96911 3.42969 11.0769 3.42969C12.3016 3.42834 13.518 3.63048 14.6764 4.02785C14.8307 4.08089 14.9577 4.19308 15.0293 4.33974C15.101 4.4864 15.1114 4.65551 15.0584 4.80988C15.0054 4.96424 14.8932 5.09121 14.7465 5.16286C14.5998 5.2345 14.4307 5.24495 14.2764 5.19191C13.2465 4.83874 12.1651 4.65915 11.0764 4.66046C5.64714 4.66046 1.23022 9.07745 1.23022 14.5066C1.23022 19.9358 5.64714 24.3528 11.0764 24.3528C16.5056 24.3528 20.9225 19.9358 20.9225 14.5066C20.9227 13.8404 20.8558 13.1759 20.7228 12.5232C20.7066 12.444 20.7062 12.3624 20.7215 12.283C20.7369 12.2036 20.7677 12.1281 20.8123 12.0606C20.8568 11.9932 20.9142 11.9352 20.9812 11.8899C21.0482 11.8447 21.1234 11.813 21.2026 11.7969C21.2818 11.7807 21.3634 11.7803 21.4428 11.7956C21.5221 11.811 21.5977 11.8418 21.6651 11.8864C21.7326 11.9309 21.7906 11.9883 21.8359 12.0553C21.8811 12.1223 21.9127 12.1975 21.9289 12.2767C22.0785 13.0106 22.1537 13.7577 22.1536 14.5066C22.1538 20.6145 17.1847 25.5835 11.0769 25.5835Z" fill="white"/>
</svg>
