<svg width="32" height="32" viewBox="0 0 32 32" fill="none" xmlns="http://www.w3.org/2000/svg">
<path d="M17.3251 29.3419H3.13294C2.60802 29.3419 2.18057 28.9144 2.18057 28.3894V3.1332C2.18057 2.60828 2.60802 2.18063 3.13294 2.18063H20.6816C21.2065 2.18063 21.634 2.60828 21.634 3.1332V12.535C22.2894 12.0936 23.0268 11.7683 23.8146 11.5707V3.1332C23.8145 1.40559 22.4092 0 20.6816 0H3.13294C1.4054 0 0 1.40559 0 3.1332V28.3894C0 30.117 1.4054 31.5228 3.13294 31.5228H17.4821C17.39 31.2016 17.3251 30.8698 17.3251 30.5197V29.3419Z" fill="#F5FAFE"/>
<path d="M7.10994 6.20703C6.50767 6.20703 6.01953 6.69523 6.01953 7.29738C6.01953 7.89946 6.50767 8.38773 7.10994 8.38773H14.4472C15.0491 8.38773 15.5373 7.89946 15.5373 7.29738C15.5373 6.69523 15.0491 6.20703 14.4472 6.20703H7.10994Z" fill="#F5FAFE"/>
<path d="M16.7043 11.8477H7.10994C6.50767 11.8477 6.01953 12.3359 6.01953 12.9379C6.01953 13.5401 6.50767 14.0283 7.10994 14.0283H16.7043C17.3065 14.0283 17.7947 13.5401 17.7947 12.9379C17.7947 12.3359 17.3065 11.8477 16.7043 11.8477Z" fill="#F5FAFE"/>
<path d="M16.7043 17.4922H7.10994C6.50767 17.4922 6.01953 17.9805 6.01953 18.5827C6.01953 19.1847 6.50767 19.6728 7.10994 19.6728H16.7043C17.3065 19.6728 17.7947 19.1847 17.7947 18.5827C17.7947 17.9805 17.3065 17.4922 16.7043 17.4922Z" fill="#F5FAFE"/>
<path d="M16.7043 25.3173C16.9402 25.3173 17.1468 25.2268 17.3251 25.0991V23.355C17.1467 23.2273 16.9401 23.1367 16.7043 23.1367H7.10994C6.50767 23.1367 6.01953 23.6249 6.01953 24.2271C6.01953 24.8292 6.50767 25.3173 7.10994 25.3173H16.7043Z" fill="#F5FAFE"/>
<path d="M30.2503 20.4736V18.2892C30.2503 15.6668 28.1189 13.5352 25.4974 13.5352C22.8747 13.5352 20.7422 15.6668 20.7422 18.2892V20.4736C20.0458 20.5928 19.5039 21.1737 19.5039 21.906V30.519C19.5039 31.3376 20.1662 31.9994 20.9839 31.9994H30.0097C30.8274 31.9994 31.4919 31.3376 31.4919 30.519V21.906C31.4919 21.1737 30.9478 20.5927 30.2503 20.4736ZM26.6675 27.1772C26.6675 27.824 26.1431 28.3485 25.4962 28.3485C24.8494 28.3485 24.3249 27.824 24.3249 27.1772V25.2485C24.3249 24.6015 24.8494 24.0773 25.4962 24.0773C26.1431 24.0773 26.6675 24.6015 26.6675 25.2485V27.1772ZM27.7715 20.4256H23.2231V18.2891C23.2231 17.0354 24.2441 16.0149 25.4974 16.0149C26.7495 16.0149 27.7715 17.0354 27.7715 18.2891V20.4256H27.7715Z" fill="#F5FAFE"/>
</svg>
