<svg width="32" height="32" viewBox="0 0 32 32" fill="none" xmlns="http://www.w3.org/2000/svg">
<g clip-path="url(#clip0_15746_19454)">
<path fill-rule="evenodd" clip-rule="evenodd" d="M11.679 23.4322C8.56708 23.4322 5.6239 22.2136 3.43058 20.0016C1.21851 17.7895 0 14.8651 0 11.7532C0 8.62255 1.21851 5.69812 3.43058 3.48605C5.6239 1.27398 8.56708 0.0742188 11.679 0.0742188C14.7909 0.0742188 17.734 1.27398 19.9461 3.48605C22.1394 5.69812 23.3579 8.62255 23.3579 11.7532C23.3579 14.8651 22.1394 17.7895 19.9461 20.0016C17.734 22.2136 14.7909 23.4322 11.679 23.4322ZM11.679 20.8077C9.26069 20.8077 6.97364 19.8704 5.26772 18.1644C3.5618 16.4398 2.60574 14.1715 2.60574 11.7532C2.60574 9.31616 3.5618 7.04786 5.26772 5.32319C6.97364 3.61728 9.26069 2.67996 11.679 2.67996C14.0972 2.67996 16.3843 3.61728 18.0902 5.32319C21.6333 8.86625 21.6333 14.6214 18.0902 18.1644C16.3843 19.8704 14.0972 20.8077 11.679 20.8077Z" fill="white"/>
<path fill-rule="evenodd" clip-rule="evenodd" d="M22.4596 24.5373C22.3096 24.5373 22.1596 24.4811 22.0472 24.3686L19.5352 21.8566C19.9663 21.5191 20.36 21.1817 20.7349 20.788C21.1661 20.3756 21.541 19.9257 21.8972 19.457L24.428 21.9878C24.6529 22.2127 24.6529 22.5689 24.428 22.7939C24.3155 22.8876 24.1842 22.9439 24.0343 22.9439C23.9031 22.9439 23.7906 22.9064 23.6968 22.8314L22.9657 23.7312C23.0595 23.9374 23.022 24.1811 22.8533 24.3686C22.7408 24.4811 22.5908 24.5373 22.4596 24.5373Z" fill="white"/>
<path fill-rule="evenodd" clip-rule="evenodd" d="M29.5649 31.9238C28.9275 31.9238 28.3089 31.6801 27.859 31.2114L22.5725 25.9437C22.1226 25.4938 21.8789 24.8752 21.8789 24.2378C21.8789 23.5817 22.1226 22.9631 22.5725 22.5131C23.0412 22.0632 23.6411 21.8008 24.2972 21.8008C24.9533 21.8008 25.5532 22.0632 26.0218 22.5131L31.2896 27.7809C32.2269 28.7369 32.2269 30.2741 31.2896 31.2114C30.8209 31.6801 30.221 31.9238 29.5649 31.9238Z" fill="white"/>
<path fill-rule="evenodd" clip-rule="evenodd" d="M7.89166 15.5405C5.79207 13.4409 5.79207 10.0478 7.89166 7.94825C8.09787 7.72329 8.09787 7.36711 7.89166 7.1609C7.6667 6.93595 7.31052 6.93595 7.08557 7.1609C4.55481 9.69166 4.55481 13.7971 7.08557 16.3279C7.19804 16.4403 7.34802 16.4966 7.47924 16.4966C7.62921 16.4966 7.77918 16.4403 7.89166 16.3279C8.09787 16.1217 8.09787 15.7655 7.89166 15.5405Z" fill="white"/>
</g>
<defs>
<clipPath id="clip0_15746_19454">
<rect width="32" height="32" fill="white"/>
</clipPath>
</defs>
</svg>
