<svg width="64" height="45" viewBox="0 0 64 45" fill="none" xmlns="http://www.w3.org/2000/svg">
<path d="M54.4998 14.9996C58.6418 14.9996 61.9996 11.6418 61.9996 7.49978C61.9996 3.35777 58.6418 0 54.4998 0C50.3578 0 47 3.35777 47 7.49978C47 11.6418 50.3578 14.9996 54.4998 14.9996Z" fill="white"/>
<path d="M54.4997 18.75C49.3308 18.75 45.125 22.9558 45.125 28.1247V29.9997H63.9995V28.1247C63.9995 22.9558 59.6687 18.75 54.4997 18.75Z" fill="white"/>
<path d="M9.49978 14.9996C13.6418 14.9996 16.9996 11.6418 16.9996 7.49978C16.9996 3.35777 13.6418 0 9.49978 0C5.35777 0 2 3.35777 2 7.49978C2 11.6418 5.35777 14.9996 9.49978 14.9996Z" fill="white"/>
<path d="M18.8745 28.1247C18.8745 22.9558 14.6687 18.75 9.49972 18.75C4.33075 18.75 0 22.9558 0 28.1247V29.9997H18.8745V28.1247Z" fill="white"/>
<path d="M48.874 43.1264C48.874 34.4633 42.2886 27.388 33.8745 26.4414V35.6266H30.1246V26.4414C21.7104 27.388 15.125 34.4633 15.125 43.1264V45.0014H48.874V43.1264Z" fill="white"/>
<path d="M31.9997 0C25.7962 0 20.75 5.04623 20.75 11.2497C20.75 17.4531 25.7962 22.4993 31.9997 22.4993C38.2031 22.4993 43.2493 17.4531 43.2493 11.2497C43.2493 5.04623 38.2031 0 31.9997 0ZM30.1247 17.6509L25.0493 12.5754L27.7005 9.92409L30.1247 12.3483L36.2989 6.17407L38.9502 8.82537L30.1247 17.6509Z" fill="white"/>
</svg>
