<svg width="50" height="50" viewBox="0 0 50 50" fill="none" xmlns="http://www.w3.org/2000/svg">
<path d="M32.2266 14.6484C30.3419 14.6484 28.8086 13.1151 28.8086 11.2305V0H11.3281C8.3665 0 5.95703 2.40947 5.95703 5.37109V44.6289C5.95703 47.5905 8.3665 50 11.3281 50H38.6719C41.6335 50 44.043 47.5905 44.043 44.6289V14.6484H32.2266ZM13.9648 35.1562H21.0664C21.8754 35.1562 22.5312 35.8121 22.5312 36.6211C22.5312 37.4301 21.8754 38.0859 21.0664 38.0859H13.9648C13.1559 38.0859 12.5 37.4301 12.5 36.6211C12.5 35.8121 13.1559 35.1562 13.9648 35.1562ZM12.5 28.8086C12.5 27.9996 13.1559 27.3438 13.9648 27.3438H35.4492C36.2582 27.3438 36.9141 27.9996 36.9141 28.8086C36.9141 29.6176 36.2582 30.2734 35.4492 30.2734H13.9648C13.1559 30.2734 12.5 29.6176 12.5 28.8086ZM35.4492 19.5312C36.2582 19.5312 36.9141 20.1871 36.9141 20.9961C36.9141 21.8051 36.2582 22.4609 35.4492 22.4609H13.9648C13.1559 22.4609 12.5 21.8051 12.5 20.9961C12.5 20.1871 13.1559 19.5312 13.9648 19.5312H35.4492Z" fill="#F5FAFE"/>
<path d="M31.7383 11.2284C31.7383 11.4977 31.9573 11.7167 32.2266 11.7167H43.39C43.1221 11.222 42.7773 10.7676 42.3632 10.3757L32.9469 1.46728C32.5814 1.12158 32.1744 0.833203 31.7384 0.605469V11.2284H31.7383Z" fill="#F5FAFE"/>
</svg>
