<svg width="50" height="50" viewBox="0 0 50 50" fill="none" xmlns="http://www.w3.org/2000/svg">
<path d="M50 25C50 38.8059 38.809 50 25 50C11.1941 50 0 38.809 0 25C0 11.1941 11.1941 0 25 0C38.809 0.00308718 50 11.1941 50 25Z" fill="#1A1918"/>
<path d="M25.4229 15.2723L31.8906 31.2392L22.1197 23.5429L25.4229 15.2723ZM36.9165 34.9191L26.9665 10.9718C26.6825 10.2803 26.1145 9.91603 25.426 9.91603C24.7345 9.91603 24.1263 10.2803 23.8423 10.9718L12.9168 37.2376H16.6523L20.9743 26.4078L33.8757 36.8301C34.3943 37.2499 34.7678 37.4383 35.2556 37.4383C36.2312 37.4383 37.0832 36.7066 37.0832 35.6539C37.0863 35.4841 37.0246 35.2124 36.9165 34.9191Z" fill="white"/>
</svg>
