<svg width="50" height="50" viewBox="0 0 50 50" fill="none" xmlns="http://www.w3.org/2000/svg">
<g clip-path="url(#clip0_22548_8962)">
<path d="M24.3494 45.9142C22.3551 45.9144 20.3802 45.5216 18.5377 44.7583C16.6952 43.995 15.0212 42.8761 13.6112 41.4655C10.7643 38.617 9.1648 34.7547 9.16406 30.7274C9.16406 23.5093 14.821 16.585 18.6918 11.5343C20.7833 8.8193 22.6253 5.92096 24.1953 2.87458C24.2231 2.81485 24.2869 2.77734 24.3529 2.77734C24.4189 2.77734 24.4814 2.81485 24.5106 2.87458C26.08 5.9218 27.9216 8.8204 30.014 11.5357C33.8821 16.5864 39.5419 23.5051 39.5419 30.7287H30.2731C30.0765 30.7287 29.9161 30.8885 29.9161 31.0857V36.294H24.7092C24.5127 36.294 24.3522 36.4537 24.3522 36.651V45.9169L24.3494 45.9142ZM30.2994 42.2281V37.2753H25.6953C25.6484 37.2752 25.6021 37.2844 25.5588 37.3024C25.5155 37.3204 25.4762 37.3468 25.4432 37.3801C25.3766 37.4472 25.339 37.5377 25.3384 37.6322V42.2343L30.2994 42.2281ZM25.3252 47.1683C27.0209 47.1367 28.6986 46.8137 30.2849 46.2135V43.7156H25.6807C25.6338 43.7155 25.5875 43.7247 25.5442 43.7427C25.5009 43.7607 25.4616 43.7871 25.4287 43.8204C25.3621 43.8875 25.3244 43.978 25.3238 44.0725L25.3252 47.1683ZM35.8488 36.6628V31.703H31.2467C31.0501 31.703 30.8898 31.8628 30.8898 32.06V36.6621H35.8495L35.8488 36.6628ZM36.4439 42.826L36.4495 42.8204C36.545 42.7233 36.6205 42.6083 36.6715 42.482C36.7225 42.3557 36.7481 42.2205 36.7467 42.0843V38.1655H31.787V43.1253H35.7057C35.9814 43.1272 36.2466 43.0199 36.4432 42.8267L36.4439 42.826ZM32.1224 47.2239C33.4483 46.6554 34.6837 45.8954 35.789 44.9683H32.1224V47.2239ZM39.8467 36.6628C40.4452 35.0755 40.7727 33.3989 40.8155 31.703H37.3654V36.6628H39.8467ZM38.5849 42.1697C39.5106 41.0639 40.2696 39.8286 40.8377 38.503H38.5849V42.1697Z" fill="#728E9B"/>
<path d="M21.0061 10.1307L20.1673 11.3112L17.4242 14.9362C17.7932 14.9862 18.1538 15.0418 18.5062 15.1029L20.784 11.2487L21.3929 10.1515C21.5527 9.8654 21.1798 9.89247 21.0055 10.1376L21.0061 10.1307ZM17.3846 17.0105L17.7958 16.3022L16.5457 16.08C15.2449 17.8213 14.0571 19.6443 12.9895 21.5376C11.0798 25.0001 9.75546 28.8689 10.3645 32.8626C10.8825 36.1821 12.5604 39.2112 15.1006 41.4043C15.6541 41.871 16.2145 42.2953 16.8194 42.6751C16.8985 42.7237 17.002 42.7057 17.0589 42.6334C17.1159 42.5612 17.109 42.4529 17.0423 42.3904C15.0763 40.4919 13.6576 38.0991 12.9353 35.4633C11.8006 31.2702 12.7409 26.9751 14.3603 23.0439C15.2362 20.969 16.2415 18.9512 17.3701 17.0022L17.3846 17.0105Z" fill="#B9C6CD"/>
</g>
<defs>
<clipPath id="clip0_22548_8962">
<rect width="44.4444" height="44.4444" fill="white" transform="translate(2.77734 2.77734)"/>
</clipPath>
</defs>
</svg>
