<svg width="50" height="50" viewBox="0 0 50 50" fill="none" xmlns="http://www.w3.org/2000/svg">
<path d="M22.6682 1.35255C21.8342 1.37472 21.0113 1.77379 20.3242 2.54238C19.9458 2.96732 19.6262 3.46985 19.358 3.965C18.6636 5.27307 18.5277 6.75481 18.2705 8.18852L16.856 16.2476C16.8009 16.5654 16.6613 16.6947 16.3784 16.7871L5.99227 20.1053C5.23544 20.3529 4.47862 20.6743 3.80629 21.103C1.76359 22.4073 1.46233 24.5542 2.99435 26.4387C3.67035 27.2738 4.54475 27.8576 5.51099 28.2863L11.9771 31.1832C12.0322 31.2128 12.0873 31.2313 12.1461 31.2424L13.5128 32.2327C13.5128 32.2327 12.1534 47.3642 14.7068 48.4099C14.6848 48.4062 14.5562 48.3803 14.5562 48.3803C14.5562 48.3803 14.8133 48.6612 15.5114 48.5799C16.0441 48.6796 15.9743 48.6649 15.5371 48.5762C16.485 48.4542 18.2338 47.6524 21.2611 44.5928C21.4852 44.3933 21.7019 44.1864 21.915 43.9721L28.4546 36.87L29.983 37.4095C30.0381 37.4871 30.1189 37.5352 30.2438 37.5721L37.5255 39.8003C38.5211 40.1107 39.5058 40.3361 40.5675 40.1809C42.4633 39.9 43.8557 38.3333 43.8373 36.4155C43.83 35.573 43.536 34.8119 43.1503 34.0802L38.3264 24.8794C38.1721 24.5875 38.1795 24.399 38.3999 24.1404L46.5009 14.5626C47.0263 13.9344 47.5002 13.2582 47.7721 12.4749C48.3746 10.7492 47.5957 9.37835 45.8139 9.04209C44.9946 8.89429 44.1863 8.97189 43.3891 9.1862L31.7795 12.2901C31.4378 12.3825 31.2688 12.316 31.0851 12.0056L26.3458 4.08694C25.9894 3.49202 25.5596 2.9082 25.0673 2.41305C24.3472 1.68142 23.5022 1.33038 22.6682 1.35255ZM23.0172 8.64672C23.2046 8.77974 23.3001 8.91646 23.3883 9.06057L28.4877 17.6074C28.6273 17.8402 28.7522 17.9215 29.0351 17.8476L38.0141 15.4457L40.1781 14.8767C40.145 15.0577 40.0679 15.1686 39.9797 15.2721L32.5731 24.0184C32.3637 24.2734 32.3453 24.4507 32.5033 24.75L37.1838 33.6775L37.3969 34.1356V34.143L29.0424 31.8299V31.8225L27.4627 31.3754L18.0978 41.8178L19.8099 28.0904L18.2742 27.4179L9.57802 23.9408C9.74334 23.7893 9.89397 23.7228 10.0483 23.6748L20.6218 20.3122C20.8716 20.2346 21.0113 20.1385 21.0333 19.854L21.1803 18.982L22.6057 10.9229L23.0172 8.64302V8.64672Z" fill="#E15919"/>
</svg>
