<svg width="50" height="50" viewBox="0 0 50 50" fill="none" xmlns="http://www.w3.org/2000/svg">
<path d="M19.6949 4.44905C19.1287 3.89386 18.3431 3.55183 17.4673 3.55183C16.5938 3.55183 15.8142 3.89386 15.2551 4.44905H15.2408C14.6762 5.00048 14.3261 5.76991 14.3261 6.61988C14.3261 7.47468 14.6762 8.23928 15.2408 8.78534L15.2551 8.80038C15.8142 9.35074 16.5938 9.68793 17.4673 9.68793C18.3431 9.68793 19.1287 9.35074 19.6949 8.80038L19.7015 8.78534C20.2683 8.23928 20.6141 7.47468 20.6141 6.61988C20.6141 5.76991 20.2683 5.00048 19.7015 4.44905H19.6949ZM17.4673 46.4482C18.3431 46.4482 19.1287 46.0997 19.6949 45.5547L19.7015 45.5386C20.2683 44.9947 20.6141 44.2253 20.6141 43.3796C20.6141 42.5248 20.2683 41.7591 19.7015 41.205H19.6949C19.1287 40.6444 18.3431 40.3056 17.4673 40.3056C16.5938 40.3056 15.8142 40.6444 15.2551 41.205H15.2408C14.6762 41.7591 14.3261 42.5248 14.3261 43.3796C14.3261 44.2253 14.6762 44.9947 15.2408 45.5386L15.2551 45.5547C15.8142 46.0997 16.5938 46.4482 17.4673 46.4482ZM34.5826 37.1522C35.3605 36.9525 36.0647 36.4649 36.4952 35.7272L36.5529 35.6192C36.9355 34.9207 37.0053 34.1131 36.8008 33.3963C36.5947 32.6312 36.09 31.9525 35.3363 31.5299L35.2918 31.5009C34.5573 31.1068 33.7217 31.0209 32.9531 31.2255C32.172 31.4161 31.4699 31.9241 31.0422 32.6554C30.609 33.3824 30.5189 34.2178 30.7261 34.9867C30.94 35.7433 31.4408 36.4268 32.1901 36.8542H32.1945C32.9454 37.2757 33.7943 37.3514 34.5826 37.1522ZM20.6894 21.856C19.8648 21.0527 18.7268 20.5491 17.4673 20.5491C16.2095 20.5491 15.0748 21.0527 14.2518 21.856C13.4316 22.6582 12.9259 23.7648 12.9259 24.9949C12.9259 26.225 13.4316 27.3365 14.2518 28.1478C15.0748 28.9462 16.2095 29.445 17.4673 29.445C18.7268 29.445 19.8648 28.9462 20.6894 28.1478C21.5118 27.3365 22.0176 26.225 22.0176 24.9949C22.0176 23.7648 21.5118 22.6582 20.6894 21.856ZM18.8774 16.6268C20.7059 16.921 22.3474 17.7763 23.6025 19.0107H23.6118C23.8114 19.2051 24.0055 19.4194 24.1863 19.6331L27.3226 17.8612C26.901 16.6166 26.8812 15.3156 27.2204 14.0951C27.6673 12.4612 28.752 10.9986 30.3781 10.082L30.4309 10.0493C32.0395 9.16066 33.8674 8.97542 35.5172 9.41195C37.1884 9.84955 38.6958 10.9138 39.6342 12.4993V12.5042C40.5682 14.0811 40.7574 15.8906 40.3121 17.5197C39.8673 19.153 38.7788 20.6259 37.1543 21.537L36.7261 21.784H36.6826C35.1802 22.4826 33.5282 22.5921 32.0109 22.2018C30.7652 21.8796 29.6228 21.1998 28.7278 20.236L25.5959 22.0031C25.956 22.9331 26.155 23.9355 26.155 24.9949C26.155 26.0489 25.956 27.0659 25.5959 28.0007L28.7278 29.7629C29.6228 28.7841 30.7652 28.1199 32.0109 27.7966C33.6827 27.3504 35.5353 27.54 37.1543 28.4619L37.2582 28.5091V28.514C38.8222 29.4402 39.8723 30.8695 40.3121 32.4841C40.7574 34.1035 40.5682 35.914 39.6342 37.4942L39.5776 37.6043L39.571 37.5952C38.6331 39.1185 37.1543 40.1504 35.5221 40.587C33.8481 41.0181 31.9949 40.834 30.3781 39.9255V39.9131C28.752 38.995 27.6673 37.5291 27.2204 35.8985C26.8812 34.6834 26.901 33.3824 27.3226 32.1383L24.1863 30.3707C24.0055 30.5844 23.8114 30.789 23.6118 30.9833L23.6025 30.993C22.3474 32.2231 20.7059 33.0779 18.8774 33.3625V36.902C20.1803 37.1678 21.3469 37.804 22.2606 38.697L22.2655 38.7061C23.4903 39.897 24.249 41.5561 24.249 43.3796C24.249 45.1976 23.4903 46.8471 22.2655 48.0439L22.2606 48.0627C21.0269 49.259 19.3348 50 17.4673 50C15.6097 50 13.9132 49.259 12.6823 48.0627H12.6774V48.0439C11.4514 46.8471 10.6911 45.1976 10.6911 43.3796C10.6911 41.5561 11.4514 39.897 12.6774 38.7061V38.697H12.6823C13.5954 37.804 14.7642 37.1678 16.0622 36.902V33.3625C14.2343 33.0779 12.5955 32.2231 11.3426 30.993L11.3294 30.9833C9.76481 29.4499 8.78516 27.3365 8.78516 24.9949C8.78516 22.6582 9.76481 20.5448 11.3294 19.0107H11.3426C12.5955 17.7763 14.2343 16.921 16.0622 16.6268V13.1023C14.7642 12.8274 13.5954 12.1911 12.6823 11.303H12.6774V11.2934C11.4514 10.0917 10.6911 8.44385 10.6911 6.61988C10.6911 4.80558 11.4514 3.14322 12.6774 1.94639L12.6823 1.94156C13.9132 0.740434 15.6097 0 17.4673 0C19.3348 0 21.0269 0.740434 22.2606 1.94156V1.94639H22.2655C23.4903 3.14322 24.249 4.80558 24.249 6.61988C24.249 8.44385 23.4903 10.0917 22.2655 11.2934L22.2606 11.303C21.3469 12.1911 20.1803 12.8274 18.8774 13.1023V16.6268ZM36.4952 14.276L36.4682 14.2374C36.0361 13.5254 35.3456 13.0508 34.5826 12.8462C33.7943 12.6416 32.9454 12.7275 32.1901 13.1506H32.1945C31.4408 13.5684 30.9367 14.2514 30.7261 15.017C30.5189 15.7768 30.609 16.6166 31.0422 17.3484L31.0571 17.3672C31.4908 18.0894 32.1819 18.5737 32.9531 18.7686C33.7283 18.9828 34.5919 18.8921 35.3363 18.469L35.3764 18.4502C36.1092 18.0228 36.5974 17.3484 36.8008 16.6074C37.0086 15.8428 36.9256 15.0074 36.4952 14.276Z" fill="#1A1919"/>
</svg>
