<svg width="50" height="39" viewBox="0 0 50 39" fill="none" xmlns="http://www.w3.org/2000/svg">
<g clip-path="url(#clip0_22548_19961)">
<path d="M23.1338 36.6573L34.9262 34.5742L35.0354 34.5488L28.9716 27.3342C26.9392 24.9277 24.9179 22.5118 22.9077 20.0866C22.9077 20.051 29.1697 2.80709 29.2053 2.74612C29.2154 2.7258 33.4782 10.0827 39.5344 20.5794L49.9244 38.5905L50.0032 38.7277L30.7295 38.7252L11.4558 38.7226L23.1338 36.6573ZM0.00390625 34.4624C0.00390625 34.4523 2.8618 29.491 6.35479 23.4373L12.7057 12.43L20.1057 6.21879C24.1754 2.80455 27.5159 0.00508071 27.5312 0C27.504 0.104489 27.4639 0.205184 27.4118 0.299762L19.3741 17.5361L11.4812 34.4624L5.74257 34.4701C2.58745 34.4751 0.00390625 34.4701 0.00390625 34.4599V34.4624Z" fill="#0089D6"/>
</g>
<defs>
<clipPath id="clip0_22548_19961">
<rect width="50" height="38.715" fill="white"/>
</clipPath>
</defs>
</svg>
