<svg width="50" height="50" viewBox="0 0 50 50" fill="none" xmlns="http://www.w3.org/2000/svg">
<path d="M0 0H50V50H0V0Z" fill="#E04E39"/>
<path fill-rule="evenodd" clip-rule="evenodd" d="M25.3923 9.24146C28.5796 9.17845 30.832 10.0427 32.7701 12.7937C36.9964 23.2723 21.8903 28.6803 21.2846 28.8929L21.2656 28.8991C21.2656 28.8991 20.8095 31.7452 25.1418 31.6358C30.4733 31.6358 36.0784 27.5033 38.2106 25.7566C38.4584 25.5529 38.7739 25.4503 39.0942 25.4693C39.4144 25.4883 39.7156 25.6274 39.9376 25.859L41.534 27.5172C41.7583 27.7486 41.8865 28.0565 41.8926 28.3787C41.8987 28.7009 41.7823 29.0135 41.5668 29.2532C40.1792 30.7981 36.923 33.97 32.021 36.0191C32.021 36.0191 23.8419 39.8063 18.3299 36.2201C15.0432 34.0825 14.1391 31.5233 13.7715 28.8612C13.7734 28.8612 9.78088 28.6587 7.21699 27.6575C4.65233 26.6556 7.23593 23.6333 7.23593 23.6333C7.23593 23.6333 8.02446 22.3837 9.52422 23.6333C11.0251 24.8811 13.8264 24.3183 13.8264 24.3183C14.0761 22.3473 14.4912 19.7463 15.7142 17.0012C18.2777 11.2476 22.2037 9.3033 25.3923 9.24146ZM27.2681 15.0066C25.5793 13.3793 20.7032 16.6309 20.515 24.0709C20.515 24.0709 21.9544 24.5092 25.1418 22.3199C28.3307 20.1317 28.9569 16.6308 27.2681 15.0066Z" fill="white"/>
</svg>
