<svg width="47" height="47" viewBox="0 0 47 47" fill="none" xmlns="http://www.w3.org/2000/svg">
<g clip-path="url(#clip0_22293_43758)">
<path d="M44.3802 23.9024C44.1945 24.2752 43.8591 24.5515 43.4576 24.6627L37.1048 26.4219C36.9737 26.4583 36.8418 26.4755 36.7121 26.4755C36.0682 26.4755 35.4776 26.049 35.2974 25.3984C35.0809 24.6166 35.5392 23.8074 36.3209 23.591L38.6943 22.9337C34.1718 21.1331 28.7831 18.3066 23.1719 14.7753C16.5943 10.6357 10.7367 6.16297 7.10095 2.50395C6.52915 1.92857 6.53218 0.998666 7.10756 0.426863C7.68295 -0.144848 8.61303 -0.141911 9.18465 0.433472C15.5331 6.82263 29.9251 16.4367 40.3779 20.4392L39.2787 17.6553C38.9808 16.9008 39.3509 16.0477 40.1054 15.7498C40.8604 15.4515 41.7131 15.822 42.0109 16.5765L44.4317 22.7078C44.5847 23.0953 44.566 23.5295 44.3802 23.9024ZM44.0475 33.6194V45.5313C44.0475 46.3425 43.39 47 42.5788 47H3.93359C3.12238 47 2.46484 46.3425 2.46484 45.5313V14.6152C2.46484 13.8041 3.12238 13.1464 3.93359 13.1464H11.6626C12.4738 13.1464 13.1314 13.8041 13.1314 14.6152V17.6707H19.3916C20.2028 17.6707 20.8604 18.3284 20.8604 19.1395V22.1951H27.1206C27.9318 22.1951 28.5893 22.8527 28.5893 23.6639V27.8504H34.8497C35.6609 27.8504 36.3184 28.508 36.3184 29.3192V32.1508H42.5786C43.39 32.1507 44.0475 32.8082 44.0475 33.6194ZM5.40234 44.0625H10.1939V16.0839H5.40234V44.0625ZM13.1315 44.0625H17.9229L17.923 20.6082H13.1315V44.0625ZM25.6519 25.1325H20.8605V44.0625H25.6519V25.1325ZM28.5895 44.0625H33.3809L33.381 30.7879H28.5895V44.0625ZM41.11 35.0882H36.3186V44.0625H41.11V35.0882Z" fill="#F5FAFE"/>
</g>
<defs>
<clipPath id="clip0_22293_43758">
<rect width="47" height="47" fill="white"/>
</clipPath>
</defs>
</svg>
