<svg width="50" height="50" viewBox="0 0 50 50" fill="none" xmlns="http://www.w3.org/2000/svg">
<path d="M46.6092 40.8277C45.0054 40.1068 43.2689 39.426 42.6172 37.6088C42.6171 37.609 42.1562 36.4996 42.1562 36.4996C41.9423 35.7602 40.8539 35.7713 40.6562 36.4996C40.1239 38.0552 39.2243 39.5879 37.6094 40.1948C37.4103 40.2993 36.3742 40.6599 36.2188 40.812C35.7434 41.1846 35.9199 41.9977 36.5001 42.1557C38.0752 42.6991 39.5613 43.5655 40.1953 45.1948C40.1953 45.1947 40.6562 46.3119 40.6562 46.3119C40.7643 46.6774 41.1739 46.9504 41.5546 46.8587C41.836 46.8065 42.0721 46.5827 42.1562 46.3119L42.6171 45.2025C43.2419 43.5763 44.7504 42.6903 46.3202 42.1558C46.8803 42.0001 47.0707 41.2016 46.6092 40.8277Z" fill="#1B1D1E"/>
<path d="M3.18988 8.88802C3.313 9.33446 4.24569 9.52968 4.80703 9.80207C5.96324 10.2786 6.90073 11.2239 7.38509 12.3801C7.45279 12.5187 7.86586 13.5968 7.94754 13.7082C8.23789 14.1687 8.95413 14.1707 9.24443 13.7082C9.86121 12.0926 10.6592 10.4527 12.3851 9.80212C12.5785 9.70383 13.6279 9.33535 13.7834 9.19268C14.2523 8.81213 14.0885 8.0092 13.5099 7.84114C11.9293 7.29493 10.4391 6.43293 9.80695 4.79428C9.8069 4.79436 9.346 3.68498 9.346 3.68498C9.14097 2.94706 8.03509 2.96089 7.846 3.68503C7.846 3.68498 7.3851 4.80214 7.3851 4.80214C6.74627 6.43818 5.27072 7.28668 3.68978 7.84106C3.26295 7.96524 3.00422 8.47343 3.18988 8.88802Z" fill="#1B1D1E"/>
<path d="M12.2342 41.6063C10.9517 40.9952 9.45406 40.4658 8.94536 38.9734C8.94525 38.9736 8.56245 38.0595 8.56245 38.0595C8.35923 37.3222 7.25135 37.336 7.06244 38.0596C6.62248 39.3147 5.91427 40.5652 4.60153 41.0516C4.6016 41.0517 3.68752 41.4345 3.68752 41.4345L3.60942 41.4657C2.93386 41.7285 3.00234 42.7455 3.68757 42.9344C4.94265 43.3745 6.19322 44.0826 6.67961 45.3954C6.97045 45.962 7.08858 47.0121 7.96089 46.8562C8.55969 46.7498 8.63536 46.0334 8.94527 45.3953C9.32805 44.4578 10.0858 43.7 11.0233 43.3172C11.2212 43.2176 12.0535 42.9298 12.2186 42.786C12.5729 42.4897 12.5948 41.9064 12.2342 41.6063Z" fill="#1B1D1E"/>
<path d="M46.8104 7.52212C46.6768 7.05741 45.8191 6.89531 45.3964 6.67835C44.0837 6.19274 43.3753 4.94001 42.9356 3.68619C42.8011 3.25349 42.3105 3.00162 41.8965 3.18624C41.4433 3.31153 41.3033 4.09749 41.0527 4.60031C40.5672 5.91293 39.3143 6.62149 38.0605 7.0611C37.3248 7.27017 37.3327 8.35846 38.0606 8.56112C39.3157 9.00121 40.5663 9.70927 41.0527 11.0221C41.3435 11.5887 41.4616 12.6388 42.3339 12.4829C42.9328 12.3765 43.0084 11.6601 43.3183 11.022C43.7011 10.0845 44.4589 9.32676 45.3964 8.94396C45.5942 8.84428 46.4266 8.55651 46.5917 8.4127C46.8401 8.197 46.9496 7.82449 46.8104 7.52212Z" fill="#1B1D1E"/>
<path d="M42.1876 24.9996C42.1876 15.5233 34.4768 7.8125 25.0005 7.8125C2.19962 8.75754 2.20626 41.2452 25.0006 42.1867C34.4768 42.1867 42.1876 34.476 42.1876 24.9996ZM32.0863 37.1321C22.8828 42.637 10.8811 35.7725 10.9384 24.9995C10.8815 14.2269 22.8833 7.36158 32.0863 12.8672C41.3447 18.208 41.345 31.7917 32.0863 37.1321Z" fill="#1B1D1E"/>
<path d="M36.7182 25.781C35.6858 25.759 35.6971 24.2375 36.7182 24.2185C36.7182 24.2185 37.476 24.2185 37.476 24.2185C37.3666 22.5076 36.9213 20.8983 36.187 19.4452C35.9217 19.5783 35.45 19.9477 35.1479 19.9217C34.377 19.9524 34.0668 18.8317 34.7573 18.4608C34.7573 18.4608 35.4057 18.0858 35.4057 18.0858C34.4839 16.7031 33.2964 15.5156 31.9136 14.5937L31.5386 15.2422C31.3133 15.6191 30.8391 15.7398 30.4683 15.5312C30.0934 15.3124 29.9683 14.8359 30.1793 14.4609L30.5543 13.8125C29.1012 13.0781 27.4918 12.6328 25.7809 12.5234V13.2813C25.7809 13.7109 25.4294 14.0625 24.9997 14.0625C24.57 14.0625 24.2185 13.7109 24.2185 13.2813V12.5234C22.5076 12.6328 20.8982 13.0781 19.4451 13.8125L19.8201 14.4609C20.3189 15.356 18.9886 16.1203 18.4608 15.2421C18.4608 15.2422 18.0858 14.5937 18.0858 14.5937C16.703 15.5156 15.5155 16.7031 14.5937 18.0858L15.2421 18.4608C15.938 18.851 15.6244 19.9374 14.8515 19.9217C14.5309 19.94 14.0806 19.5771 13.8124 19.4452C13.0781 20.8983 12.6328 22.5076 12.5234 24.2185H13.2812C14.3132 24.2401 14.3026 25.7621 13.2812 25.781H12.5234C12.6328 27.4919 13.0781 29.1012 13.8124 30.5543L14.4609 30.1793C14.8359 29.9684 15.3124 30.0934 15.5312 30.4684C15.7421 30.8434 15.6171 31.3199 15.2421 31.5387L14.5937 31.9136C15.5155 33.2964 16.703 34.4839 18.0858 35.4058L18.4608 34.7573C18.6795 34.3824 19.1561 34.2573 19.5311 34.4683C19.906 34.687 20.0311 35.1636 19.8201 35.5386L19.4451 36.187C20.8982 36.9214 22.5076 37.3666 24.2185 37.476V36.7182C24.24 35.6859 25.7622 35.6972 25.7809 36.7183C25.7809 36.7182 25.7809 37.476 25.7809 37.476C27.4918 37.3666 29.1012 36.9214 30.5542 36.187L30.1793 35.5386C29.687 34.6296 31.0066 33.8808 31.5386 34.7574C31.5386 34.7573 31.9136 35.4058 31.9136 35.4058C33.2964 34.4839 34.4839 33.2964 35.4057 31.9136L34.7573 31.5387C33.8722 30.9982 34.641 29.6902 35.5385 30.1793C35.5385 30.1793 36.1869 30.5543 36.1869 30.5543C36.9213 29.1012 37.3666 27.4919 37.476 25.781L36.7182 25.781ZM27.7653 19.953C27.4499 20.254 26.9671 20.2539 26.6559 19.953L25.7809 19.0702V22.3826C28.749 23.2889 28.1434 27.6991 24.9996 27.734C21.8552 27.696 21.2498 23.2918 24.2186 22.3826C24.2185 22.3826 24.2185 19.0702 24.2185 19.0702L23.3435 19.953C22.6201 20.6722 21.5119 19.574 22.2342 18.8436C22.2342 18.8436 24.445 16.6327 24.445 16.6327C24.7462 16.3441 25.2533 16.3439 25.5544 16.6327C25.5544 16.6327 27.7653 18.8436 27.7653 18.8436C28.07 19.1483 28.07 19.6483 27.7653 19.953Z" fill="#1B1D1E"/>
<path d="M23.8281 24.9992C23.8528 26.54 26.1474 26.5397 26.1718 24.9992C26.1472 23.4585 23.8525 23.4587 23.8281 24.9992Z" fill="#1B1D1E"/>
</svg>
