<svg width="50" height="49" viewBox="0 0 50 49" fill="none" xmlns="http://www.w3.org/2000/svg">
<g clip-path="url(#clip0_22548_15646)">
<path fill-rule="evenodd" clip-rule="evenodd" d="M24.3419 0C10.8996 0 0 11.1658 0 24.9401C0 35.9589 6.97511 45.3075 16.6461 48.6052C17.8631 48.8365 18.3101 48.0644 18.3101 47.4059C18.3101 46.8112 18.2875 44.8463 18.2765 42.7621C11.5046 44.2711 10.076 39.8199 10.076 39.8199C8.96832 36.9375 7.37304 36.1707 7.37304 36.1707C5.1641 34.6228 7.53944 34.6542 7.53944 34.6542C9.98379 34.8306 11.2705 37.2247 11.2705 37.2247C13.442 41.0375 16.9654 39.9353 18.3546 39.2979C18.5732 37.6862 19.2036 36.5853 19.8999 35.9629C14.4933 35.3331 8.80999 33.1941 8.80999 23.6377C8.80999 20.9152 9.76064 18.69 11.3175 16.9438C11.065 16.3154 10.2318 13.7786 11.5539 10.3435C11.5539 10.3435 13.5978 9.67274 18.2485 12.8997C20.1907 12.3473 22.273 12.0704 24.3416 12.0605C26.4103 12.0704 28.4944 12.3473 30.4396 12.8997C35.0858 9.67307 37.1271 10.3431 37.1271 10.3431C38.4518 13.7779 37.6188 16.3147 37.3657 16.9428C38.9265 18.6893 39.8707 20.9142 39.8707 23.6367C39.8707 33.2166 34.1764 35.3252 28.7563 35.9427C29.6292 36.7172 30.4074 38.2347 30.4074 40.5617C30.4074 43.8987 30.3796 46.5848 30.3796 47.4059C30.3796 48.07 30.8172 48.8471 32.051 48.6026C41.7188 45.3013 48.6842 35.9559 48.6842 24.9405C48.6839 11.1658 37.7856 0 24.3419 0Z" fill="#1B1817"/>
<path d="M9.47056 35.4539C9.41525 35.5816 9.21985 35.6203 9.042 35.532C8.85984 35.4485 8.75883 35.2746 8.81745 35.1469C8.87143 35.0162 9.06684 34.9798 9.248 35.0671C9.42949 35.151 9.53282 35.3262 9.47056 35.4539ZM10.4804 36.6126C10.3611 36.726 10.1276 36.6737 9.97033 36.4944C9.80606 36.3154 9.77592 36.076 9.8968 35.9612C10.0193 35.8482 10.2459 35.9011 10.4092 36.0801C10.5731 36.2607 10.6052 36.4978 10.4804 36.6126ZM11.466 38.0897C11.3126 38.1994 11.0619 38.0972 10.9069 37.869C10.7536 37.6408 10.7536 37.3674 10.9102 37.2578C11.0659 37.1484 11.3126 37.2476 11.47 37.4731C11.6223 37.705 11.6223 37.978 11.466 38.0897ZM12.8196 39.5163C12.6825 39.6712 12.3907 39.6294 12.1771 39.4178C11.9585 39.2114 11.8975 38.918 12.0346 38.7631C12.1737 38.6079 12.4672 38.6511 12.6825 38.8616C12.8994 39.0674 12.9653 39.3628 12.8196 39.5163ZM14.6825 40.3439C14.6216 40.5442 14.3414 40.6359 14.0579 40.55C13.7747 40.4624 13.5896 40.2274 13.6472 40.0247C13.7055 39.8226 13.9883 39.7275 14.2732 39.8189C14.5557 39.9062 14.7415 40.1398 14.6825 40.3439ZM16.7276 40.4967C16.7343 40.7082 16.4945 40.8838 16.1977 40.8872C15.8983 40.894 15.6562 40.7228 15.6529 40.515C15.6529 40.3011 15.8881 40.1279 16.1861 40.1228C16.4842 40.116 16.7276 40.2868 16.7276 40.4963M18.632 40.1656C18.6674 40.3714 18.4611 40.5833 18.1657 40.6397C17.8755 40.6947 17.6069 40.567 17.5702 40.3629C17.5338 40.1513 17.7441 39.9398 18.0338 39.8851C18.3296 39.8321 18.5942 39.9561 18.632 40.1656Z" fill="#1B1817"/>
</g>
<defs>
<clipPath id="clip0_22548_15646">
<rect width="50" height="48.7647" fill="white"/>
</clipPath>
</defs>
</svg>
