<svg width="50" height="50" viewBox="0 0 50 50" fill="none" xmlns="http://www.w3.org/2000/svg">
<path d="M3.75908 26.8815C3.68999 26.8815 3.62091 26.7982 3.68999 26.7149L4.17357 25.8815C4.24265 25.7982 4.31174 25.7149 4.4499 25.7149H13.1543C13.2234 25.7149 13.2925 25.7982 13.2234 25.8815L12.8089 26.6315C12.7398 26.7149 12.6707 26.7982 12.5326 26.7982L3.75908 26.8815ZM0.0976978 29.5482C0.0286152 29.5482 -0.0404677 29.4649 0.0286149 29.3815L0.512194 28.5482C0.581276 28.4649 0.650359 28.3815 0.788524 28.3815H11.9108C11.9799 28.3815 12.049 28.4649 12.049 28.5482L11.8417 29.3815C11.8417 29.4649 11.7036 29.5482 11.6345 29.5482H0.0976978ZM5.96972 32.2982C5.90064 32.2982 5.83155 32.2149 5.90064 32.1315L6.24605 31.3815C6.31513 31.2982 6.38421 31.2149 6.52238 31.2149H11.3582C11.4272 31.2149 11.4963 31.2982 11.4963 31.3815L11.4272 32.0482C11.4272 32.1315 11.3582 32.2149 11.2891 32.2149L5.96972 32.2982ZM31.254 26.2982L27.1781 27.5482C26.8327 27.6315 26.7636 27.7149 26.4873 27.2149C26.1418 26.7149 25.8655 26.3815 25.3128 26.1315C23.793 25.2149 22.2732 25.4649 20.8916 26.5482C19.2336 27.7982 18.4046 29.7149 18.4046 32.1315C18.4046 34.4649 19.7862 36.3815 21.7206 36.7149C23.3785 36.9649 24.7602 36.2982 25.8655 34.7982C26.0728 34.4649 26.28 34.1315 26.5563 33.7149H21.8587C21.3751 33.7149 21.237 33.2982 21.3751 32.7982C21.7206 31.8815 22.2732 30.3815 22.6186 29.6315C22.6877 29.4649 22.895 29.1315 23.2404 29.1315H32.0829C32.0139 29.9649 32.0139 30.7149 31.9448 31.5482C31.6684 33.6315 31.0467 35.6315 29.9414 37.2982C28.2143 40.0482 25.9346 41.7982 23.0331 42.2982C20.6152 42.7149 18.4046 42.1315 16.4703 40.3815C14.6741 38.7149 13.6379 36.5482 13.3616 33.8815C13.0161 30.7149 13.8451 27.7982 15.434 25.2982C17.1611 22.5482 19.4408 20.7982 22.2732 20.2149C24.5529 19.7149 26.7636 20.0482 28.6979 21.6315C30.0105 22.6315 30.9085 24.0482 31.5303 25.7982C31.5994 26.1315 31.5303 26.2149 31.254 26.2982Z" fill="#00ACD7"/>
<path d="M39.2674 42.5478C37.0567 42.4645 35.0533 41.7145 33.3263 39.9645C31.8755 38.4645 30.9775 36.5478 30.7011 34.2978C30.2866 30.9645 31.0465 28.0478 32.7045 25.4645C34.5007 22.6311 36.6422 21.2145 39.5437 20.5478C42.0307 20.0478 44.3795 20.2978 46.452 22.0478C48.3863 23.6311 49.5607 25.7978 49.9061 28.6311C50.3206 32.6311 49.3534 35.7978 47.1428 38.5478C45.5539 40.5478 43.5505 41.7145 41.3399 42.2978C40.5799 42.4645 39.8891 42.4645 39.2674 42.5478ZM45.0703 30.7145C45.0703 30.2978 45.0703 30.0478 45.0012 29.7145C44.5867 26.7978 42.3761 25.1311 40.0273 25.7978C37.7476 26.3811 36.2968 28.1311 35.7442 30.8811C35.3297 33.1311 36.2277 35.4645 37.9548 36.4645C39.2674 37.1311 40.649 37.0478 41.8925 36.2978C43.8959 35.1311 44.9321 33.2145 45.0703 30.7145Z" fill="#00ACD7"/>
</svg>
