<svg width="50" height="50" viewBox="0 0 50 50" fill="none" xmlns="http://www.w3.org/2000/svg">
<g clip-path="url(#clip0_22548_12512)">
<path d="M14.4357 11.8727C14.3617 11.8336 14.3247 11.7555 14.2507 11.7165C13.0666 10.5058 12.1415 9.06073 11.5865 7.38137C11.4385 6.91271 11.3275 6.44405 11.3275 5.93634V5.78012C11.3645 5.11619 11.7715 4.80375 12.3636 4.95997C12.5486 4.99902 12.7336 5.07713 12.8816 5.1943C13.5476 5.54579 14.0657 6.0535 14.5467 6.63933C15.3978 7.6157 16.1008 8.78735 16.5819 10.0371C16.5819 10.0762 16.6189 10.1152 16.6189 10.1152C16.6189 10.1152 16.6559 10.1543 16.6929 10.1543C18.987 8.67018 21.6142 7.77192 24.3154 7.6157C24.2784 7.53759 24.2784 7.45948 24.2784 7.38137C24.0194 6.17067 23.9084 4.88186 24.0194 3.6321C24.0564 2.89006 24.2044 2.14802 24.4265 1.40598C24.5375 1.01543 24.7225 0.702988 24.9445 0.390549C25.0185 0.273384 25.1295 0.195274 25.2405 0.117165C25.4625 -0.0390549 25.7586 -0.0390549 25.9806 0.117165C26.2026 0.273384 26.3876 0.507713 26.5356 0.781097C26.7576 1.24976 26.9426 1.75747 27.0167 2.26518C27.2387 3.35872 27.3127 4.49131 27.2017 5.6239C27.1647 6.28783 27.0537 6.99082 26.8686 7.65475C27.5347 7.77192 28.2007 7.88908 28.8668 8.0453C29.5328 8.20152 30.1619 8.3968 30.7909 8.67018C31.42 8.90451 32.049 9.21695 32.6411 9.52939C33.2331 9.84183 33.7882 10.2324 34.3802 10.5839C34.4172 10.5448 34.4172 10.5058 34.4542 10.4277C35.0833 8.59207 36.1563 6.95177 37.5624 5.66296C37.8955 5.35052 38.2655 5.11619 38.6725 4.95997C38.7835 4.92091 38.8945 4.88186 39.0056 4.88186C39.5976 4.80375 39.8566 5.1943 39.8936 5.70201C39.9306 6.0535 39.8936 6.405 39.8196 6.75649C39.5976 7.65475 39.2646 8.47491 38.8205 9.256C38.1915 10.3886 37.4144 11.365 36.4524 12.1851C36.4154 12.2242 36.3784 12.2242 36.3413 12.3023C37.2664 13.2396 38.1175 14.2941 38.8575 15.4267C38.7835 15.4267 38.7465 15.4657 38.7095 15.4657H35.7123C35.6013 15.4657 35.4903 15.3876 35.4163 15.3095C33.2331 12.7319 30.3099 11.0916 27.1277 10.5839C26.2026 10.4277 25.2405 10.3886 24.2784 10.4667C21.4662 10.662 18.728 11.7946 16.5449 13.7083C15.9898 14.1769 15.4348 14.7237 14.9537 15.3095C14.8797 15.4267 14.7317 15.5048 14.5837 15.5048H11.5125C11.5865 15.2705 12.1415 14.4112 12.8076 13.6302C13.3626 13.0053 13.8807 12.4585 14.4357 11.8727ZM38.6355 34.876C37.9695 35.8914 37.2294 36.7897 36.3784 37.6489C36.4524 37.727 36.4894 37.7661 36.5634 37.8051C38.0065 39.0939 39.1166 40.7733 39.7456 42.687C39.8936 43.1556 39.9676 43.6633 39.9676 44.132C39.9676 44.2492 39.9306 44.3663 39.8936 44.5226C39.7826 44.874 39.4496 45.1084 39.1166 45.0303C38.8945 44.9912 38.6725 44.9131 38.4875 44.835C38.1915 44.6788 37.8955 44.4835 37.6364 44.2492C36.2303 42.9994 35.1573 41.3591 34.5282 39.5235C34.4912 39.4845 34.4912 39.4064 34.4542 39.3283C33.7142 39.875 32.9371 40.3437 32.123 40.7342C31.309 41.1248 30.4579 41.4763 29.6068 41.7106C28.7188 41.9449 27.8677 42.1402 26.9426 42.2574C26.9796 42.3355 26.9796 42.4136 26.9796 42.4917C27.2757 43.7024 27.3497 44.9522 27.2757 46.2019C27.2387 46.983 27.0907 47.7251 26.8686 48.4671C26.7576 48.7795 26.6096 49.0529 26.4616 49.3654C26.3876 49.4825 26.3136 49.5606 26.2396 49.6778C25.8696 50.1074 25.4255 50.1074 25.0555 49.6778C24.9075 49.5216 24.7965 49.3263 24.6855 49.092C24.3895 48.5062 24.2414 47.8813 24.1304 47.2173C23.9824 46.3191 23.9454 45.4208 23.9824 44.5226C24.0194 43.8586 24.0934 43.1947 24.2414 42.5698C24.2414 42.5308 24.2784 42.4526 24.2784 42.4136C24.2784 42.4136 24.2784 42.3745 24.2414 42.3355C21.5402 42.1793 18.95 41.3201 16.6189 39.7969L16.5079 40.0312C15.8418 41.6715 14.8797 43.1166 13.6216 44.2492C13.2886 44.5616 12.9186 44.7959 12.5116 44.9522C12.3265 45.0303 12.1045 45.0693 11.9195 45.0303C11.6975 44.9912 11.5125 44.835 11.4015 44.5616C11.2535 44.2101 11.2905 43.8586 11.3275 43.5071C11.4015 42.9994 11.5495 42.5308 11.7345 42.0621C12.2895 40.6171 13.1776 39.3283 14.2137 38.2347C14.2507 38.1957 14.2877 38.1566 14.3617 38.1176C14.3617 38.0785 14.3987 38.0785 14.3987 38.0394C13.3996 37.1021 12.4746 36.0476 11.7345 34.876C11.8455 34.876 11.8825 34.8369 11.9565 34.8369H14.9167C15.0648 34.8369 15.1758 34.9151 15.2498 34.9932C16.3228 36.2039 17.5809 37.1802 18.95 37.9223C20.3932 38.7424 21.9843 39.2501 23.6124 39.4064C28.0527 39.875 31.864 38.43 35.0463 35.0713C35.1943 34.9151 35.3793 34.7979 35.6013 34.8369H38.5985L38.6355 34.876ZM34.5282 19.6446C34.7872 19.6446 35.0463 19.6837 35.3053 19.6446C35.6013 19.6055 35.7863 19.7227 36.0083 19.918C37.1924 21.0896 38.3765 22.2613 39.5976 23.4329L39.7826 23.6282C39.8566 23.5501 39.9306 23.511 40.0046 23.4329C41.2257 22.2222 42.4838 21.0115 43.6679 19.8008C43.7789 19.6837 43.9269 19.6446 44.0749 19.6446H45V30.3456C44.852 30.3847 42.6688 30.4237 42.4098 30.3456V24.917L42.3728 24.878C41.5217 25.6981 40.6707 26.5573 39.8196 27.3775C38.9685 26.5183 38.1175 25.6981 37.2294 24.878L37.1924 24.917V30.3847H34.6022C34.5282 30.1894 34.4912 20.2695 34.5282 19.6446ZM10.7724 19.6446H13.3256C13.3996 19.8399 13.3996 30.1113 13.3256 30.3456H10.7724C10.7354 29.6817 10.7724 28.9787 10.7724 28.3148V26.2839H7.59019V30.3066C7.40518 30.3847 5.22202 30.3847 5 30.3066V19.6446H7.59019V23.4329C7.77521 23.511 10.4764 23.511 10.7724 23.4329V19.6446ZM16.3969 30.3456V19.6837C16.5449 19.6446 22.1693 19.6055 22.5393 19.6446V21.9098C22.4653 21.9098 22.3543 21.9488 22.2803 21.9488H18.987V23.7063H22.1323V26.0496H19.0241C18.95 26.2449 18.95 27.6508 18.987 28.0414C19.0611 28.0414 19.1721 28.0805 19.2461 28.0805H22.5393V30.3456H16.3969ZM25.4995 30.3456C25.4625 30.0723 25.4625 19.8399 25.4995 19.6446H28.0527V27.5337C28.1637 27.5337 28.2377 27.5337 28.3488 27.5727H31.642V30.3847L25.4995 30.3456Z" fill="#0F1689"/>
</g>
<defs>
<clipPath id="clip0_22548_12512">
<rect width="50" height="50" fill="white"/>
</clipPath>
</defs>
</svg>
