<svg width="50" height="50" viewBox="0 0 50 50" fill="none" xmlns="http://www.w3.org/2000/svg">
<g clip-path="url(#clip0_22293_43738)">
<path fill-rule="evenodd" clip-rule="evenodd" d="M45.1917 27.7425L44.2765 28.5277C43.7771 28.9561 43.0239 28.8985 42.5955 28.3992C42.1671 27.8999 42.2247 27.1466 42.724 26.7182L45.7793 24.097C46.274 23.6726 47.0179 23.7242 47.4492 24.2128L50.1133 27.2308C50.5486 27.724 50.5017 28.478 50.0084 28.9134C49.5152 29.3487 48.7612 29.3018 48.3259 28.8085L47.5684 27.9505C46.1123 39.8516 35.9595 49.0816 23.6678 49.0816C10.3777 49.0816 -0.412109 38.2918 -0.412109 25.0017C-0.412109 11.7117 10.3777 0.921875 23.6678 0.921875C32.386 0.921875 40.0287 5.56482 44.2546 12.5114C44.5965 13.0735 44.4177 13.8074 43.8556 14.1493C43.2936 14.4913 42.5596 14.3126 42.2177 13.7505C38.4098 7.49092 31.5237 3.30603 23.6678 3.30603C11.6935 3.30603 1.97204 13.0275 1.97204 25.0017C1.97204 36.976 11.6935 46.6975 23.6678 46.6975C34.7137 46.6975 43.8429 38.4249 45.1917 27.7425ZM23.2227 8.59167L37.8536 14.8635V26.6893C37.8536 34.9222 31.8619 42.0345 23.755 43.4458L23.2227 43.5403L22.6905 43.4458C14.5872 42.0345 8.59541 34.9222 8.59541 26.6893V14.8635L23.2227 8.59167ZM23.2261 37.6432C29.6029 37.6432 34.8017 32.4444 34.8017 26.0676C34.8017 19.6909 29.6028 14.4888 23.2261 14.4888C16.8495 14.4888 11.6473 19.6909 11.6473 26.0676C11.6473 32.4443 16.8494 37.6432 23.2261 37.6432ZM23.2261 35.9491C17.7825 35.9491 13.3414 31.5112 13.3414 26.0676C13.3414 20.6239 17.7824 16.1829 23.2261 16.1829C28.6698 16.1829 33.1076 20.624 33.1076 26.0676C33.1076 31.5112 28.6696 35.9491 23.2261 35.9491ZM21.8174 27.012L19.4193 24.6141C18.7982 23.993 17.7898 23.993 17.1686 24.6141C16.5475 25.2384 16.5475 26.2436 17.1686 26.8649L20.6936 30.393C21.3147 31.0141 22.3233 31.0141 22.9444 30.393C25.0702 28.2672 27.1705 26.1188 29.2867 23.9834C29.9047 23.3591 29.9015 22.3537 29.2804 21.7358C28.6593 21.1179 27.6507 21.1212 27.0328 21.7423L21.8174 27.012Z" fill="#1B1D1E"/>
</g>
<defs>
<clipPath id="clip0_22293_43738">
<rect width="50" height="50" fill="white"/>
</clipPath>
</defs>
</svg>
