<svg width="50" height="50" viewBox="0 0 50 50" fill="none" xmlns="http://www.w3.org/2000/svg">
<path d="M24.4548 26.4648C23.2753 24.5401 22.4196 22.9443 21.2342 19.9394C19.2297 14.8638 33.4254 10.2775 27.6696 1.46484C30.1646 7.55246 18.7144 11.3158 17.6507 16.3854C16.678 21.0483 24.4489 26.4648 24.4548 26.4648Z" fill="#F44336"/>
<path d="M25.0123 17.4147C24.7943 20.3139 27.5436 21.8592 27.6231 23.9772C27.6867 25.701 25.9798 27.138 25.9798 27.138C25.9798 27.138 29.0778 26.5203 30.0442 23.8907C31.1173 20.9708 27.9615 18.9715 28.2863 16.6334C28.5895 14.4002 35.1351 10.2461 35.1351 10.2461C35.1351 10.2461 25.504 10.8937 25.0123 17.4147Z" fill="#F44336"/>
<path d="M34.4673 26.3481C36.5215 25.8867 38.2537 27.1949 38.2537 28.7022C38.2537 32.0997 33.5444 35.3111 33.5444 35.3111C33.5444 35.3111 40.8349 34.4421 40.8349 28.8638C40.8349 25.1746 37.2547 24.2529 34.4673 26.3481ZM31.0065 29.0886C31.0065 29.0886 33.2797 27.4689 33.8852 26.8611C28.3069 28.0451 15.5704 28.2044 15.5704 27.1761C15.5704 26.2286 19.6777 25.2577 19.6777 25.2577C19.6777 25.2577 10.5742 25.1266 10.5742 27.8121C10.5742 30.6112 22.4909 30.8114 31.0065 29.0886Z" fill="#1565C0"/>
<path d="M29.6094 31.6356C24.3286 33.3912 14.602 32.8302 17.4831 30.4727C16.08 30.4727 14 31.6005 14 32.685C14 34.8599 24.5195 36.5393 32.3054 33.3549L29.6094 31.6356Z" fill="#1565C0"/>
<path d="M18.7774 35.3477C16.8614 35.3477 15.6211 36.5821 15.6211 37.4815C15.6211 40.2818 27.0517 40.5641 31.5806 37.7216L28.7019 35.8103C25.3184 37.2977 16.8192 37.5026 18.7774 35.3477Z" fill="#1565C0"/>
<path d="M39.3843 39.9067C39.3843 38.8105 38.1487 38.294 37.706 38.0468C40.3154 44.3395 11.569 43.8512 11.569 40.1362C11.569 39.2918 13.6853 38.465 15.6412 38.8561L13.9781 37.8735C10.0804 37.2622 7.43359 38.9756 7.43359 40.3576C7.43359 46.8025 39.3843 46.4922 39.3843 39.9067Z" fill="#1565C0"/>
<path d="M42.5694 42.2148C37.7137 47.0108 25.4012 48.7582 13.0195 45.7951C25.4012 51.0689 42.5108 48.0988 42.5694 42.2148Z" fill="#1565C0"/>
</svg>
