<svg width="50" height="50" viewBox="0 0 50 50" fill="none" xmlns="http://www.w3.org/2000/svg">
<g clip-path="url(#clip0_22548_23217)">
<path d="M44.34 11.0789L27.0309 0.491238C25.9393 -0.163746 24.518 -0.163746 23.4177 0.491238L5.92376 11.0789C4.79722 11.7616 4 13.0447 4 14.4171V35.5643C4 36.9367 4.81802 38.2202 5.94456 38.9066L10.5665 41.6721C12.7756 42.8183 13.5564 42.8183 14.5616 42.8183C17.8325 42.8183 19.7009 40.7347 19.7009 37.1005V16.2228C19.7009 15.928 19.5553 15.4893 19.2805 15.4893H17.0734C16.7939 15.4893 16.1682 15.928 16.1682 16.2224V37.1C16.1682 38.711 14.785 40.3142 12.1998 38.9525L7.42398 36.0526C7.25755 35.9575 7.14019 35.7661 7.14019 35.5643V14.4171C7.14019 14.2178 7.35804 14.0176 7.52565 13.9155L24.9631 3.34604C25.126 3.24887 25.3654 3.24887 25.5279 3.34604L42.7527 13.913C42.9175 14.0176 42.8594 14.2116 42.8594 14.4171V35.5643C42.8594 35.7661 42.9313 35.9625 42.7684 36.0597L25.4636 46.6354C25.3152 46.7292 25.1311 46.7292 24.9686 46.6354L20.5303 43.8446C20.3965 43.7628 20.2375 43.7334 20.1092 43.8091C18.8743 44.5463 18.6466 44.6443 17.4883 45.0674C17.2033 45.172 16.7829 45.3535 17.6492 45.865L23.4578 49.4848C24.0123 49.8222 24.6414 49.9999 25.2818 50C25.9264 50 26.5575 49.8238 27.1137 49.4848L44.3396 38.9066C45.4662 38.2153 46 36.9367 46 35.5643V14.4171C46 13.0447 45.4662 11.7649 44.34 11.0789ZM30.6563 32.2133C26.0535 32.2133 25.0396 30.8756 24.7017 28.4645C24.6624 28.2048 24.4532 27.8943 24.2024 27.8943H21.9528C21.6745 27.8943 21.4508 28.2499 21.4508 28.5418C21.4508 31.629 23.0441 35.3695 30.6567 35.3695C36.1673 35.3695 39.3267 33.1139 39.3267 29.122C39.3267 25.164 36.7883 24.1252 31.4441 23.3801C26.0422 22.628 25.4934 22.248 25.4934 20.9148C25.4934 19.8157 25.9581 18.3499 29.958 18.3499C33.5319 18.3499 34.8492 19.1579 35.3913 21.6955C35.4376 21.9341 35.6444 22.1053 35.878 22.1053H38.1366C38.2755 22.1053 38.4082 22.0462 38.5056 21.9415C38.5998 21.8291 38.6496 21.6881 38.637 21.5367C38.2873 17.1669 35.5314 15.1304 29.9576 15.1304C24.9996 15.1304 22.0419 17.336 22.0419 21.0331C22.0419 25.0432 24.9847 26.1514 29.744 26.6472C35.4376 27.2352 35.8804 28.1118 35.8804 29.2915C35.8804 31.3404 34.3189 32.2133 30.6563 32.2133Z" fill="#83CD29"/>
</g>
<defs>
<clipPath id="clip0_22548_23217">
<rect width="50" height="50" fill="white"/>
</clipPath>
</defs>
</svg>
