<svg width="50" height="50" viewBox="0 0 50 50" fill="none" xmlns="http://www.w3.org/2000/svg">
<path fill-rule="evenodd" clip-rule="evenodd" d="M3.17231e-07 25C3.17231e-07 31.0742 7.07911 36 15.8133 36H34.1867C38.3818 35.9988 42.4044 34.8393 45.3699 32.7765C48.3354 30.7136 50.0008 27.9164 50 25C50 18.9258 42.9209 14 34.1867 14H15.8133C11.6182 14.0012 7.59558 15.1607 4.6301 17.2235C1.66463 19.2864 -0.000839202 22.0836 3.17231e-07 25ZM44.0222 25C44.023 25.9348 43.7589 26.8606 43.245 27.7244C42.7311 28.5882 41.9774 29.3732 41.0271 30.0345C40.0767 30.6959 38.9482 31.2205 37.7061 31.5786C36.464 31.9367 35.1326 32.1211 33.788 32.1214H16.2247C14.8795 32.1217 13.5474 31.9377 12.3046 31.5799C11.0618 31.2221 9.93255 30.6975 8.98151 30.0361C8.03046 29.3747 7.27623 28.5895 6.76193 27.7254C6.24763 26.8613 5.98335 25.9352 5.98418 25C5.98376 24.0654 6.24815 23.1399 6.76224 22.2763C7.27633 21.4127 8.03006 20.628 8.98039 19.9669C9.93072 19.3058 11.059 18.7813 12.3009 18.4234C13.5428 18.0655 14.874 17.8811 16.2184 17.8808H33.7848C35.1295 17.8808 36.4609 18.065 37.7032 18.4228C38.9455 18.7806 40.0742 19.305 41.0248 19.9661C41.9755 20.6272 42.7295 21.412 43.2438 22.2758C43.7581 23.1395 44.0226 24.0652 44.0222 25Z" fill="#EA1B22"/>
</svg>
