<svg width="55" height="55" viewBox="0 0 55 55" fill="none" xmlns="http://www.w3.org/2000/svg">
<g clip-path="url(#clip0_23711_58107)">
<path fill-rule="evenodd" clip-rule="evenodd" d="M10.0711 54.1866H15.0511C15.637 54.1866 16.113 53.7107 16.113 53.1248C16.113 52.5388 15.637 52.0629 15.0511 52.0629H10.0711C9.4852 52.0629 9.00926 52.5388 9.00926 53.1248C9.00926 53.7107 9.4852 54.1866 10.0711 54.1866ZM29.9898 54.1866H34.9698C35.5557 54.1866 36.0317 53.7107 36.0317 53.1248C36.0317 52.5388 35.5557 52.0629 34.9698 52.0629H29.9898C29.4039 52.0629 28.928 52.5388 28.928 53.1248C28.928 53.7107 29.4039 54.1866 29.9898 54.1866ZM20.0305 54.1866H25.0104C25.5964 54.1866 26.0723 53.7107 26.0723 53.1248C26.0723 52.5388 25.5964 52.0629 25.0104 52.0629H20.0305C19.4446 52.0629 18.9686 52.5388 18.9686 53.1248C18.9686 53.7107 19.4446 54.1866 20.0305 54.1866ZM39.9492 54.1866H44.9292C45.5151 54.1866 45.991 53.7107 45.991 53.1248C45.991 52.5388 45.5151 52.0629 44.9292 52.0629H39.9492C39.3633 52.0629 38.8873 52.5388 38.8873 53.1248C38.8873 53.7107 39.3633 54.1866 39.9492 54.1866ZM31.8735 33.6477H36.262L30.3547 22.817C32.4006 22.1897 34.166 20.9187 35.4142 19.2404L43.2726 33.6477H48.1932C48.7792 33.6477 49.2551 34.1236 49.2551 34.7096C49.2551 35.2955 48.7792 35.7715 48.1932 35.7715H44.4309L48.5581 43.3375C49.1914 44.499 48.9975 45.8915 48.1758 46.8346L51.3249 52.608C51.607 53.1253 51.4164 53.7739 50.8991 54.056C50.3823 54.338 49.7332 54.1474 49.4511 53.6301L46.302 47.8562C45.0637 48.037 43.7883 47.4462 43.155 46.2846L37.4203 35.7715H31.8735V33.6477ZM23.0168 35.7715H17.58L11.8453 46.2846C11.212 47.4462 9.93663 48.037 8.69832 47.8562L5.54916 53.6301C5.26708 54.1474 4.61797 54.338 4.10119 54.056C3.58386 53.7739 3.39327 53.1253 3.67535 52.608L6.82451 46.8346C6.00277 45.8915 5.80891 44.499 6.44223 43.3375L10.5694 35.7715H6.80708C6.22114 35.7715 5.7452 35.2955 5.7452 34.7096C5.7452 34.1236 6.22114 33.6477 6.80708 33.6477H11.7277L19.5399 19.3254C20.8038 20.9873 22.5796 22.2393 24.6309 22.8459L18.7383 33.6477H23.0168V35.7715ZM27.3346 40.3599H27.5557L27.6646 40.3571C28.2064 40.3305 28.721 40.1039 29.1071 39.7173C29.5183 39.3062 29.7497 38.7485 29.7497 38.1664V31.2642C29.7497 30.6826 29.5177 30.1233 29.1071 29.7127C28.6949 29.3005 28.1373 29.0702 27.5557 29.0702H27.3346C26.753 29.0702 26.1943 29.3011 25.7832 29.7127C25.3715 30.1239 25.1406 30.6826 25.1406 31.2642V38.1664C25.1406 38.7485 25.3715 39.3062 25.7832 39.7173C26.1943 40.129 26.753 40.3599 27.3346 40.3599ZM31.8735 6.90299C33.9112 8.3112 35.247 10.6637 35.247 13.3255C35.247 17.6313 31.7509 21.1273 27.4451 21.1273C23.1394 21.1273 19.6433 17.6313 19.6433 13.3255C19.6433 10.6637 20.9791 8.3112 23.0168 6.90299V8.97774C23.0168 11.4233 24.9996 13.4061 27.4451 13.4061C29.8907 13.4061 31.8735 11.4233 31.8735 8.97774V6.90299ZM29.7497 3.12487C29.7497 1.85224 28.7178 0.820312 27.4451 0.820312C26.1725 0.820312 25.1406 1.85224 25.1406 3.12487V8.97774C25.1406 10.2504 26.1725 11.2823 27.4451 11.2823C28.7178 11.2823 29.7497 10.2504 29.7497 8.97774V3.12487Z" fill="white"/>
</g>
<defs>
<clipPath id="clip0_23711_58107">
<rect width="55" height="55" fill="white"/>
</clipPath>
</defs>
</svg>
