<svg width="45" height="45" viewBox="0 0 45 45" fill="none" xmlns="http://www.w3.org/2000/svg">
<g clip-path="url(#clip0_23711_58097)">
<path d="M2.00325 8.41821C2.39964 9.9853 3.21271 11.4179 4.35538 12.5605L5.40154 13.5932L13.6074 5.38792L12.5613 4.35512C11.4177 3.21254 9.98592 2.39955 8.41874 2.00316L0.547695 0.0133196C0.397402 -0.0244733 0.23832 0.019472 0.128456 0.128456C0.019472 0.23832 -0.0244733 0.397402 0.0133196 0.547695L2.00325 8.41821Z" fill="white"/>
<path d="M11.2702 19.3887L19.4753 11.1841L15.483 7.24219L7.27734 15.4473L11.2702 19.3887Z" fill="white"/>
<path d="M25.6094 33.8125L33.8132 25.6087L38.7306 30.5262L30.5268 38.73L25.6094 33.8125Z" fill="white"/>
<path d="M40.6022 32.3984L32.3965 40.6036L35.097 43.3043C36.1931 44.3994 37.6504 45.0032 39.2 45.0032C40.7496 45.0032 42.2069 44.3994 43.303 43.3043C45.5646 41.042 45.5646 37.3611 43.303 35.0989L40.6022 32.3984Z" fill="white"/>
<path d="M20.2987 24.1601C20.8136 23.6452 21.6484 23.6452 22.1632 24.1601L26.7045 28.7011L28.7031 26.7028L26.1108 24.1108C25.5959 23.596 25.5959 22.7613 26.1108 22.2463C26.6257 21.7316 27.4605 21.7314 27.9753 22.2463L30.5676 24.8383L32.6013 22.8047L28.06 18.2637C27.545 17.7489 27.545 16.9141 28.06 16.3992C28.5748 15.8845 29.4096 15.8843 29.9245 16.3992L34.4658 20.9404L36.4996 18.9068L33.9073 16.3148C33.3924 15.8 33.3924 14.9653 33.9073 14.4504C34.4222 13.9356 35.257 13.9354 35.7718 14.4504L38.3641 17.0423L40.3978 15.0087L35.8565 10.4676C35.3415 9.95282 35.3415 9.11804 35.8565 8.60317C36.3714 8.08831 37.2062 8.08831 37.721 8.60317L42.2623 13.1443L44.1273 11.2764C44.6901 10.7137 44.9999 9.96548 44.9999 9.16972C44.9999 8.37395 44.6899 7.62592 44.1273 7.06315L37.9362 0.872666C37.3735 0.309902 36.6253 0 35.8296 0C35.0338 0 34.2856 0.309815 33.7228 0.872578L0.872578 33.7236C0.309902 34.2862 0 35.0344 0 35.8301C0 36.6259 0.309902 37.3739 0.872578 37.9367L7.06377 44.1273C7.62644 44.69 8.37457 45 9.17042 45C9.96627 45 10.7144 44.6901 11.2771 44.1274L13.1451 42.2597L10.5529 39.6677C10.0381 39.1529 10.0381 38.3181 10.5529 37.8033C11.0678 37.2885 11.9026 37.2885 12.4175 37.8033L15.0096 40.3952L17.0433 38.3616L12.502 33.8207C11.9871 33.3059 11.9871 32.4711 12.502 31.9562C13.0169 31.4415 13.8516 31.4415 14.3665 31.9562L18.9078 36.4972L20.9416 34.4636L18.3494 31.8716C17.8345 31.3568 17.8345 30.5221 18.3494 30.0072C18.8643 29.4924 19.6991 29.4922 20.214 30.0072L22.8062 32.5992L24.8399 30.5655L20.2986 26.0245C19.7837 25.5097 19.7837 24.6749 20.2987 24.1601Z" fill="white"/>
</g>
<defs>
<clipPath id="clip0_23711_58097">
<rect width="45" height="45" fill="white"/>
</clipPath>
</defs>
</svg>
