<svg width="60" height="60" viewBox="0 0 60 60" fill="none" xmlns="http://www.w3.org/2000/svg">
<circle cx="30" cy="30" r="30" fill="#121314"/>
<path d="M38.4307 31.4184C40.8914 31.4184 42.8862 29.4236 42.8862 26.9629C42.8862 24.5023 40.8914 22.5075 38.4307 22.5075C38.0999 22.5075 37.7785 22.5462 37.4682 22.6146C37.7621 21.9057 37.9261 21.1293 37.9261 20.3141C37.9261 16.993 35.2338 14.3008 31.9128 14.3008C29.1445 14.3008 26.8194 16.1739 26.12 18.72C25.676 18.513 25.1827 18.3941 24.6605 18.3941C22.9558 18.3941 21.5422 19.6274 21.2553 21.2498C21.2364 21.2496 21.218 21.247 21.199 21.247C18.3902 21.247 16.1133 23.5239 16.1133 26.3327C16.1133 29.1414 18.3902 31.4184 21.199 31.4184H38.4307Z" fill="#6981F1"/>
<path d="M18.1757 40.4882C19.3342 40.4882 20.2733 39.549 20.2733 38.3906C20.2733 37.2321 19.3342 36.293 18.1757 36.293C17.0173 36.293 16.0781 37.2321 16.0781 38.3906C16.0781 39.549 17.0173 40.4882 18.1757 40.4882Z" fill="#6981F1"/>
<path d="M18.1738 40.9885C16.7426 40.9885 15.5781 39.824 15.5781 38.3927C15.5781 36.9613 16.7426 35.7969 18.1738 35.7969C19.6052 35.7969 20.7697 36.9613 20.7697 38.3927C20.7697 39.824 19.6052 40.9885 18.1738 40.9885ZM18.1738 36.7936C17.2922 36.7936 16.5748 37.511 16.5748 38.3927C16.5748 39.2744 17.2922 39.9917 18.1738 39.9917C19.0556 39.9917 19.773 39.2744 19.773 38.3927C19.773 37.511 19.0556 36.7936 18.1738 36.7936Z" fill="#6981F1"/>
<path d="M29.4999 44.203C30.6584 44.203 31.5975 43.2639 31.5975 42.1054C31.5975 40.9469 30.6584 40.0078 29.4999 40.0078C28.3415 40.0078 27.4023 40.9469 27.4023 42.1054C27.4023 43.2639 28.3415 44.203 29.4999 44.203Z" fill="#6981F1"/>
<path d="M29.4983 44.6996C28.0668 44.6996 26.9023 43.5351 26.9023 42.1038C26.9023 40.6723 28.0668 39.5078 29.4983 39.5078C30.9298 39.5078 32.0943 40.6723 32.0943 42.1038C32.0943 43.5351 30.9298 44.6996 29.4983 44.6996ZM29.4983 40.5045C28.6164 40.5045 27.8991 41.2219 27.8991 42.1038C27.8991 42.9855 28.6164 43.7028 29.4983 43.7028C30.3802 43.7028 31.0975 42.9855 31.0975 42.1038C31.0975 41.2219 30.3802 40.5045 29.4983 40.5045Z" fill="#6981F1"/>
<path d="M40.8242 40.4882C41.9826 40.4882 42.9218 39.549 42.9218 38.3906C42.9218 37.2321 41.9826 36.293 40.8242 36.293C39.6657 36.293 38.7266 37.2321 38.7266 38.3906C38.7266 39.549 39.6657 40.4882 40.8242 40.4882Z" fill="#6981F1"/>
<path d="M40.8264 40.9885C39.3949 40.9885 38.2305 39.824 38.2305 38.3927C38.2305 36.9613 39.3949 35.7969 40.8264 35.7969C42.2576 35.7969 43.4221 36.9613 43.4221 38.3927C43.4221 39.824 42.2576 40.9885 40.8264 40.9885ZM40.8264 36.7936C39.9446 36.7936 39.2272 37.511 39.2272 38.3927C39.2272 39.2744 39.9446 39.9917 40.8264 39.9917C41.708 39.9917 42.4253 39.2744 42.4253 38.3927C42.4253 37.511 41.708 36.7936 40.8264 36.7936Z" fill="#6981F1"/>
<path d="M23.5395 39.057H20.2699C19.903 39.057 19.6055 38.7595 19.6055 38.3925C19.6055 38.0256 19.903 37.728 20.2699 37.728H22.875V31.4184C22.875 31.0514 23.1725 30.7539 23.5395 30.7539C23.9064 30.7539 24.2039 31.0514 24.2039 31.4184V38.3925C24.2039 38.7595 23.9064 39.057 23.5395 39.057Z" fill="#6981F1"/>
<path d="M38.727 39.057H35.4574C35.0905 39.057 34.793 38.7595 34.793 38.3925V31.4184C34.793 31.0514 35.0905 30.7539 35.4574 30.7539C35.8244 30.7539 36.1219 31.0514 36.1219 31.4184V37.728H38.727C39.0939 37.728 39.3914 38.0256 39.3914 38.3925C39.3914 38.7595 39.0939 39.057 38.727 39.057Z" fill="#6981F1"/>
<path d="M29.5004 40.7521C29.1335 40.7521 28.8359 40.4546 28.8359 40.0876V31.4184C28.8359 31.0514 29.1335 30.7539 29.5004 30.7539C29.8674 30.7539 30.1649 31.0514 30.1649 31.4184V40.0876C30.1649 40.4546 29.8674 40.7521 29.5004 40.7521Z" fill="#6981F1"/>
</svg>
