<svg width="50" height="50" viewBox="0 0 50 50" fill="none" xmlns="http://www.w3.org/2000/svg">
<path d="M24.1053 29.4394C23.2016 29.4753 22.3068 29.556 21.43 29.6906C22.1279 31.2515 23.0674 32.3728 24.1053 32.7854V29.4394Z" fill="#A3ACB5"/>
<path d="M20.1684 22.1912H24.1053V18.585C22.9868 18.5491 21.8774 18.4325 20.7947 18.2441C20.4547 19.4372 20.2311 20.7738 20.1684 22.1912Z" fill="#A3ACB5"/>
<path d="M20.8037 27.9593C21.8863 27.7798 22.9958 27.6812 24.1053 27.6453V23.9853H20.1684C20.2311 25.4116 20.4637 26.7572 20.8037 27.9593Z" fill="#A3ACB5"/>
<path d="M21.43 16.4948C22.3068 16.6294 23.2016 16.7101 24.1053 16.746V13.4089C23.0584 13.8216 22.1279 14.9429 21.43 16.5038V16.4948Z" fill="#A3ACB5"/>
<path d="M19.0411 17.8673C18.37 17.6969 17.7079 17.4995 17.0726 17.2663C16.0437 18.6747 15.3726 20.3612 15.2026 22.1912H18.3789C18.4416 20.6392 18.6742 19.177 19.0411 17.8673Z" fill="#A3ACB5"/>
<path d="M18.3879 30.3813C19.05 30.9913 19.8016 31.5026 20.6158 31.9153C20.2489 31.3591 19.9179 30.7312 19.6316 30.0404C19.2111 30.1391 18.7905 30.2557 18.3879 30.3813Z" fill="#A3ACB5"/>
<path d="M31.6121 15.7951C30.95 15.1851 30.1984 14.6738 29.3842 14.2612C29.7511 14.8173 30.0821 15.4453 30.3684 16.136C30.7889 16.0373 31.2095 15.9207 31.6121 15.7951Z" fill="#A3ACB5"/>
<path d="M20.6158 14.2612C19.8016 14.6648 19.0589 15.1851 18.3879 15.7951C18.7995 15.9207 19.2111 16.0373 19.6316 16.136C19.9179 15.4453 20.2489 14.8173 20.6158 14.2612Z" fill="#A3ACB5"/>
<path d="M18.3789 23.9853H15.2026C15.3726 25.8242 16.0437 27.5197 17.0816 28.9281C17.7168 28.7038 18.37 28.4975 19.0411 28.336C18.6742 27.0173 18.4326 25.5462 18.37 23.9853H18.3789Z" fill="#A3ACB5"/>
<path d="M25.8947 16.737C26.7984 16.7012 27.6932 16.6204 28.57 16.4859C27.8721 14.925 26.9326 13.8037 25.8947 13.391V16.737Z" fill="#A3ACB5"/>
<path d="M30.95 28.336C31.6211 28.5065 32.2742 28.7038 32.9095 28.9281C33.9474 27.5197 34.6274 25.8242 34.7884 23.9853H31.6121C31.5495 25.5462 31.3168 27.0173 30.9411 28.336H30.95Z" fill="#A3ACB5"/>
<path d="M30.9589 17.8673C31.3258 19.177 31.5584 20.6392 31.6211 22.1912H34.7974C34.6274 20.3612 33.9563 18.6747 32.9274 17.2663C32.2921 17.4995 31.63 17.6969 30.9589 17.8673Z" fill="#A3ACB5"/>
<path d="M40.2105 6.94115H8V48.2059C8 49.1926 8.80526 50 9.78947 50H40.2105C41.1947 50 42 49.1926 42 48.2059V8.73527C42 7.7485 41.1947 6.94115 40.2105 6.94115ZM35.2895 45.5147H14.7105C14.2184 45.5147 13.8158 45.111 13.8158 44.6176C13.8158 44.1243 14.2184 43.7206 14.7105 43.7206H35.2895C35.7816 43.7206 36.1842 44.1243 36.1842 44.6176C36.1842 45.111 35.7816 45.5147 35.2895 45.5147ZM16.9474 40.1323C16.9474 39.639 17.35 39.2353 17.8421 39.2353H32.1579C32.65 39.2353 33.0526 39.639 33.0526 40.1323C33.0526 40.6257 32.65 41.0294 32.1579 41.0294H17.8421C17.35 41.0294 16.9474 40.6257 16.9474 40.1323ZM25 34.75C18.5847 34.75 13.3684 29.5201 13.3684 23.0882C13.3684 16.6563 18.5847 11.4264 25 11.4264C31.4153 11.4264 36.6316 16.6563 36.6316 23.0882C36.6316 29.5201 31.4153 34.75 25 34.75Z" fill="#A3ACB5"/>
<path d="M25.8947 23.9853V27.6453C27.0042 27.6812 28.1137 27.7798 29.1963 27.9593C29.5453 26.7572 29.7689 25.4116 29.8316 23.9853H25.8947Z" fill="#A3ACB5"/>
<path d="M25.8947 32.7765C26.9416 32.3638 27.8721 31.2425 28.57 29.6816C27.6932 29.547 26.7984 29.4663 25.8947 29.4304V32.7765Z" fill="#A3ACB5"/>
<path d="M29.2053 18.2441C28.1226 18.4325 27.0132 18.5491 25.8947 18.585V22.1912H29.8316C29.7689 20.7738 29.5453 19.4372 29.2053 18.2441Z" fill="#A3ACB5"/>
<path d="M29.3842 31.9063C30.1984 31.5026 30.9411 30.9823 31.6121 30.3723C31.2005 30.2468 30.7889 30.1301 30.3684 30.0315C30.0821 30.7222 29.7511 31.3501 29.3842 31.9063Z" fill="#A3ACB5"/>
<path d="M38.4211 5.147V0.89494C38.4211 0.320822 37.8842 -0.109767 37.3205 0.0247918L15.6053 5.147H38.4211Z" fill="#A3ACB5"/>
</svg>
