<svg width="60" height="60" viewBox="0 0 60 60" fill="none" xmlns="http://www.w3.org/2000/svg">
<circle cx="30" cy="30" r="30" fill="#121314"/>
<path fill-rule="evenodd" clip-rule="evenodd" d="M18.1419 34.0967V43.5942C18.1419 44.0105 17.8019 44.3505 17.3856 44.3505H14.5794C14.165 44.3505 13.8244 44.0105 13.8244 43.5942V34.0967C13.8244 33.6823 14.1644 33.3417 14.5794 33.3417H17.3856C17.8019 33.3417 18.1419 33.6817 18.1419 34.0967ZM36.4625 20.9098L41.0119 18.688C41.0294 18.6792 41.0456 18.6705 41.06 18.6611C41.515 19.2423 42.2219 19.618 43.0175 19.618C44.3888 19.618 45.4994 18.5055 45.4994 17.1361C45.4994 15.7648 44.3888 14.6523 43.0175 14.6523C41.6462 14.6523 40.5356 15.7648 40.5356 17.1361C40.5356 17.3436 40.5619 17.5473 40.61 17.7405C40.5938 17.7455 40.5763 17.753 40.5606 17.7617L36.0112 19.9817C35.9956 19.9905 35.9794 19.9992 35.9631 20.0086C35.5094 19.4273 34.8013 19.0517 34.0075 19.0517C33.12 19.0517 32.3419 19.518 31.9025 20.2173C31.8869 20.2086 31.8706 20.2017 31.8531 20.1961L27.5037 18.5998C27.4862 18.5948 27.4681 18.5892 27.4525 18.5836C27.4681 18.4686 27.4775 18.3498 27.4775 18.2292C27.4775 16.858 26.3669 15.7455 24.9956 15.7455C23.6244 15.7455 22.5138 16.858 22.5138 18.2292C22.5138 18.6617 22.6238 19.0673 22.8188 19.4217C22.8044 19.4323 22.7906 19.443 22.7781 19.4536L17.5325 23.9517C17.5181 23.9642 17.5044 23.9767 17.4938 23.9892C17.0738 23.6686 16.5512 23.4773 15.9825 23.4773C14.6113 23.4773 13.5 24.588 13.5 25.9592C13.5 27.3305 14.6106 28.4411 15.9819 28.4411C17.3531 28.4411 18.4637 27.3305 18.4637 25.9592C18.4637 25.5267 18.3538 25.1211 18.1588 24.7667C18.1731 24.7561 18.1869 24.7455 18.1994 24.7348L23.4438 20.2367C23.4581 20.2242 23.4719 20.2117 23.4825 20.1998C23.9025 20.5205 24.425 20.7117 24.9937 20.7117C25.8794 20.7117 26.6594 20.2455 27.0969 19.5461C27.1125 19.5548 27.1306 19.5617 27.1462 19.5673L31.4975 21.1636C31.5131 21.1705 31.5312 21.1761 31.5487 21.1798C31.5312 21.2967 31.5219 21.4136 31.5219 21.5361C31.5219 22.9055 32.6344 24.018 34.0056 24.018C35.375 24.018 36.4875 22.9055 36.4875 21.5361C36.4875 21.3273 36.4612 21.1248 36.4131 20.9305C36.4306 20.9242 36.4469 20.9173 36.4625 20.9098ZM26.3981 25.6105H23.5919C23.1756 25.6105 22.8356 25.9505 22.8356 26.3667V43.5942C22.8356 44.0105 23.1756 44.3505 23.5919 44.3505H26.3981C26.8125 44.3505 27.1531 44.0105 27.1531 43.5942V26.3667C27.1525 25.9505 26.8125 25.6105 26.3981 25.6105ZM35.4088 28.9161H32.6044C32.1881 28.9161 31.8481 29.2561 31.8481 29.6723V43.5942C31.8481 44.0105 32.1881 44.3505 32.6044 44.3505H35.4088C35.825 44.3505 36.165 44.0105 36.165 43.5942V29.673C36.165 29.2561 35.825 28.9161 35.4088 28.9161ZM44.4206 24.5173H41.6144C41.2 24.5173 40.8594 24.8573 40.8594 25.2736V43.5942C40.8594 44.0105 41.1994 44.3505 41.6144 44.3505H44.4206C44.8369 44.3505 45.1769 44.0105 45.1769 43.5942V25.2736C45.1775 24.8573 44.8375 24.5173 44.4206 24.5173Z" fill="#6981F1"/>
</svg>
