<svg width="60" height="60" viewBox="0 0 60 60" fill="none" xmlns="http://www.w3.org/2000/svg">
<circle cx="30" cy="30" r="30" fill="#121314"/>
<path d="M30.0027 39.1461C24.9612 39.1461 20.8594 35.0443 20.8594 30.0027C20.8594 24.9612 24.9612 20.8594 30.0027 20.8594C35.0443 20.8594 39.1461 24.9612 39.1461 30.0027C39.1461 35.0443 35.0443 39.1461 30.0027 39.1461ZM30.0027 23.1452C26.2213 23.1452 23.1452 26.2213 23.1452 30.0027C23.1452 33.7842 26.2213 36.8602 30.0027 36.8602C33.7842 36.8602 36.8602 33.7842 36.8602 30.0027C36.8602 26.2213 33.7842 23.1452 30.0027 23.1452Z" fill="#6981F1"/>
<path d="M34.5725 30.0014C34.2154 30.0014 33.8644 29.8351 33.6412 29.5226C32.8336 28.3908 31.4725 27.7155 29.9997 27.7155C28.5269 27.7155 27.1658 28.3908 26.3584 29.5226C25.9917 30.036 25.2785 30.1554 24.764 29.7888C24.2506 29.4221 24.1312 28.7084 24.4978 28.1944C25.7333 26.4632 27.7898 25.4297 29.9997 25.4297C32.2096 25.4297 34.2661 26.4632 35.5017 28.1943C35.8684 28.7083 35.7489 29.422 35.2355 29.7887C35.034 29.9322 34.8019 30.0014 34.5725 30.0014Z" fill="#6981F1"/>
<path d="M32.2899 32.2881C31.9327 32.2881 31.5818 32.1218 31.3585 31.8094C30.7559 30.9644 29.2502 30.9644 28.6474 31.8094C28.2808 32.3222 27.5682 32.4411 27.0531 32.0755C26.5397 31.7089 26.4202 30.9951 26.7869 30.4812C27.5117 29.4655 28.7138 28.8594 30.0029 28.8594C31.292 28.8594 32.4941 29.4655 33.2191 30.4811C33.5857 30.995 33.4663 31.7088 32.9529 32.0754C32.7514 32.219 32.5193 32.2881 32.2899 32.2881Z" fill="#6981F1"/>
<path d="M30.0313 34.5749C29.4002 34.5749 28.8828 34.0631 28.8828 33.432C28.8828 32.8009 29.389 32.2891 30.0201 32.2891H30.0313C30.663 32.2891 31.1743 32.8009 31.1743 33.432C31.1743 34.0631 30.663 34.5749 30.0313 34.5749Z" fill="#6981F1"/>
<path d="M42.5694 20.8575C40.6787 20.8575 39.1406 19.3195 39.1406 17.4288C39.1406 15.538 40.6787 14 42.5694 14C44.4601 14 45.9981 15.538 45.9981 17.4288C45.9981 19.3195 44.4601 20.8575 42.5694 20.8575ZM42.5694 16.2858C41.9393 16.2858 41.4265 16.7987 41.4265 17.4288C41.4265 18.0588 41.9393 18.5717 42.5694 18.5717C43.1995 18.5717 43.7123 18.0588 43.7123 17.4288C43.7123 16.7987 43.1995 16.2858 42.5694 16.2858Z" fill="#6981F1"/>
<path d="M17.4288 20.8575C15.538 20.8575 14 19.3195 14 17.4288C14 15.538 15.538 14 17.4288 14C19.3195 14 20.8575 15.538 20.8575 17.4288C20.8575 19.3195 19.3195 20.8575 17.4288 20.8575ZM17.4288 16.2858C16.7987 16.2858 16.2858 16.7987 16.2858 17.4288C16.2858 18.0588 16.7987 18.5717 17.4288 18.5717C18.0588 18.5717 18.5717 18.0588 18.5717 17.4288C18.5717 16.7987 18.0588 16.2858 17.4288 16.2858Z" fill="#6981F1"/>
<path d="M42.5694 45.9981C40.6787 45.9981 39.1406 44.4601 39.1406 42.5694C39.1406 40.6787 40.6787 39.1406 42.5694 39.1406C44.4601 39.1406 45.9981 40.6787 45.9981 42.5694C45.9981 44.4601 44.4601 45.9981 42.5694 45.9981ZM42.5694 41.4265C41.9393 41.4265 41.4265 41.9393 41.4265 42.5694C41.4265 43.1995 41.9393 43.7123 42.5694 43.7123C43.1995 43.7123 43.7123 43.1995 43.7123 42.5694C43.7123 41.9393 43.1995 41.4265 42.5694 41.4265Z" fill="#6981F1"/>
<path d="M17.4288 45.9981C15.538 45.9981 14 44.4601 14 42.5694C14 40.6787 15.538 39.1406 17.4288 39.1406C19.3195 39.1406 20.8575 40.6787 20.8575 42.5694C20.8575 44.4601 19.3195 45.9981 17.4288 45.9981ZM17.4288 41.4265C16.7987 41.4265 16.2858 41.9393 16.2858 42.5694C16.2858 43.1995 16.7987 43.7123 17.4288 43.7123C18.0588 43.7123 18.5717 43.1995 18.5717 42.5694C18.5717 41.9393 18.0588 41.4265 17.4288 41.4265Z" fill="#6981F1"/>
<path d="M38.0035 27.7176C37.6558 27.7176 37.3126 27.5596 37.0882 27.2605C36.7094 26.7555 36.8114 26.039 37.3165 25.6605L41.4311 22.5744V19.7171C41.4311 19.086 41.9429 18.5742 42.574 18.5742C43.2051 18.5742 43.7169 19.086 43.7169 19.7171V23.1459C43.7169 23.5058 43.5479 23.8446 43.2599 24.06L38.6882 27.4888C38.4823 27.6434 38.2418 27.7176 38.0035 27.7176Z" fill="#6981F1"/>
<path d="M42.5741 41.432C41.9429 41.432 41.4312 40.9202 41.4312 40.2891V37.4318L37.3165 34.3457C36.8115 33.9673 36.7093 33.2508 37.0883 32.7457C37.4672 32.2424 38.1826 32.1385 38.6883 32.5175L43.2599 35.9462C43.548 36.1617 43.717 36.5004 43.717 36.8603V40.2891C43.717 40.9202 43.2052 41.432 42.5741 41.432Z" fill="#6981F1"/>
<path d="M17.4281 41.432C16.797 41.432 16.2852 40.9202 16.2852 40.289V36.8603C16.2852 36.5004 16.4542 36.1616 16.7422 35.9462L21.3139 32.5174C21.8207 32.1385 22.5366 32.2423 22.9139 32.7457C23.2927 33.2507 23.1907 33.9672 22.6856 34.3456L18.571 37.4317V40.289C18.571 40.9202 18.0592 41.432 17.4281 41.432Z" fill="#6981F1"/>
<path d="M21.9986 27.7176C21.7603 27.7176 21.5198 27.6434 21.3139 27.4888L16.7422 24.06C16.4542 23.8446 16.2852 23.5058 16.2852 23.1459V19.7171C16.2852 19.086 16.797 18.5742 17.4281 18.5742C18.0592 18.5742 18.571 19.086 18.571 19.7171V22.5744L22.6856 25.6605C23.1907 26.039 23.2928 26.7555 22.9139 27.2605C22.6895 27.5596 22.3463 27.7176 21.9986 27.7176Z" fill="#6981F1"/>
</svg>
