<svg width="50" height="50" viewBox="0 0 50 50" fill="none" xmlns="http://www.w3.org/2000/svg">
<path d="M45.5742 26.5191L40.5742 20.5191C40.5592 20.5041 40.5392 20.4891 40.5242 20.4741C40.4942 20.4441 40.4642 20.4141 40.4292 20.3891C40.3992 20.3691 40.3692 20.3491 40.3342 20.3341C40.3142 20.3241 40.2992 20.3091 40.2742 20.2991L35.7442 18.4891V18.3941L39.1742 16.0541C39.6592 16.4841 40.2992 16.7491 40.9942 16.7491C42.5092 16.7491 43.7442 15.5141 43.7442 13.9991C43.7442 12.4841 42.5092 11.2491 40.9942 11.2491C39.4792 11.2491 38.2442 12.4841 38.2442 13.9991C38.2442 14.2741 38.2842 14.5391 38.3592 14.7891L34.5692 17.3791C34.3942 17.4991 34.2842 17.6891 34.2542 17.8941L30.7392 16.4891V16.3091L34.5192 12.5291C34.6592 12.3891 34.7392 12.1991 34.7392 11.9991V9.64414C35.8892 9.31414 36.7392 8.25914 36.7392 6.99914C36.7392 5.48414 35.5042 4.24914 33.9892 4.24914C32.4742 4.24914 31.2392 5.48414 31.2392 6.99914C31.2392 8.25414 32.0892 9.31414 33.2392 9.64414V11.6891L29.4592 15.4691C29.3442 15.5841 29.2742 15.7341 29.2492 15.8941L25.7392 14.4891V9.63914C26.8892 9.30914 27.7392 8.25414 27.7392 6.99414C27.7392 5.47914 26.5042 4.24414 24.9892 4.24414C23.4742 4.24414 22.2392 5.47914 22.2392 6.99414C22.2392 8.24914 23.0892 9.30914 24.2392 9.63914V14.4891L20.7292 15.8941C20.7092 15.7341 20.6342 15.5841 20.5192 15.4691L16.7392 11.6891V9.64414C17.8892 9.31414 18.7392 8.25914 18.7392 6.99914C18.7392 5.48414 17.5042 4.24914 15.9892 4.24914C14.4742 4.24914 13.2392 5.48414 13.2392 6.99914C13.2392 8.25414 14.0892 9.31414 15.2392 9.64414V11.9991C15.2392 12.1991 15.3192 12.3891 15.4592 12.5291L19.2392 16.3091V16.4891L15.7242 17.8941C15.6942 17.6841 15.5842 17.4991 15.4092 17.3791L11.6192 14.7891C11.6942 14.5391 11.7342 14.2741 11.7342 13.9991C11.7342 12.4841 10.4992 11.2491 8.98422 11.2491C7.46922 11.2491 6.23422 12.4841 6.23422 13.9991C6.23422 15.5141 7.46922 16.7491 8.98422 16.7491C9.68422 16.7491 10.3192 16.4841 10.8042 16.0541L14.2342 18.3941V18.4891L9.70422 20.2991C9.68422 20.3091 9.66422 20.3241 9.64422 20.3341C9.60922 20.3491 9.57922 20.3691 9.54922 20.3891C9.51422 20.4141 9.48422 20.4441 9.45422 20.4741C9.43922 20.4891 9.41922 20.4991 9.40422 20.5191L4.40422 26.5191C4.24922 26.7041 4.19422 26.9491 4.25422 27.1841C4.31422 27.4191 4.47922 27.6091 4.70422 27.6941L9.23422 29.5041V38.9991C9.23422 39.3041 9.41922 39.5841 9.70422 39.6941L24.7042 45.6941C24.7142 45.6991 24.7242 45.6941 24.7292 45.6991C24.8092 45.7291 24.8942 45.7491 24.9842 45.7491C25.0492 45.7491 25.1142 45.7391 25.1792 45.7191C25.1942 45.7141 25.2092 45.7091 25.2242 45.7041C25.2392 45.6991 25.2492 45.6991 25.2642 45.6941L40.2642 39.6941C40.5492 39.5791 40.7342 39.3041 40.7342 38.9991V29.5091L45.2642 27.6991C45.4892 27.6091 45.6542 27.4191 45.7142 27.1891C45.7842 26.9491 45.7292 26.7041 45.5742 26.5191ZM40.9992 12.7491C41.6892 12.7491 42.2492 13.3091 42.2492 13.9991C42.2492 14.6891 41.6892 15.2491 40.9992 15.2491C40.3092 15.2491 39.7492 14.6891 39.7492 13.9991C39.7492 13.3091 40.3092 12.7491 40.9992 12.7491ZM32.7492 6.99914C32.7492 6.30914 33.3092 5.74914 33.9992 5.74914C34.6892 5.74914 35.2492 6.30914 35.2492 6.99914C35.2492 7.68914 34.6892 8.24914 33.9992 8.24914C33.3092 8.24914 32.7492 7.68914 32.7492 6.99914ZM14.7492 6.99914C14.7492 6.30914 15.3092 5.74914 15.9992 5.74914C16.6892 5.74914 17.2492 6.30914 17.2492 6.99914C17.2492 7.68914 16.6892 8.24914 15.9992 8.24914C15.3092 8.24914 14.7492 7.68914 14.7492 6.99914ZM8.99922 15.2491C8.30922 15.2491 7.74922 14.6891 7.74922 13.9991C7.74922 13.3091 8.30922 12.7491 8.99922 12.7491C9.68922 12.7491 10.2492 13.3091 10.2492 13.9991C10.2492 14.6891 9.68922 15.2491 8.99922 15.2491ZM23.7492 6.99914C23.7492 6.30914 24.3092 5.74914 24.9992 5.74914C25.6892 5.74914 26.2492 6.30914 26.2492 6.99914C26.2492 7.68914 25.6892 8.24914 24.9992 8.24914C24.3092 8.24914 23.7492 7.68914 23.7492 6.99914ZM14.2492 20.1091V20.9991C14.2492 21.4141 14.5842 21.7491 14.9992 21.7491C15.4142 21.7491 15.7492 21.4141 15.7492 20.9991V19.5091L19.2492 18.1091V21.9991C19.2492 22.4141 19.5842 22.7491 19.9992 22.7491C20.4142 22.7491 20.7492 22.4141 20.7492 21.9991V17.5091L24.2492 16.1091V22.9991C24.2492 23.4141 24.5842 23.7491 24.9992 23.7491C25.4142 23.7491 25.7492 23.4141 25.7492 22.9991V16.1091L29.2492 17.5091V21.9991C29.2492 22.4141 29.5842 22.7491 29.9992 22.7491C30.4142 22.7491 30.7492 22.4141 30.7492 21.9991V18.1091L34.2492 19.5091V20.9991C34.2492 21.4141 34.5842 21.7491 34.9992 21.7491C35.4142 21.7491 35.7492 21.4141 35.7492 20.9991V20.1091L37.9792 20.9991L24.9992 26.1891L12.0192 20.9991L14.2492 20.1091ZM10.7492 38.4891V30.1091L19.7192 33.6991C19.8092 33.7341 19.9042 33.7541 19.9992 33.7541C20.2192 33.7541 20.4292 33.6591 20.5742 33.4841L24.2492 29.0741V43.8941L10.7492 38.4891ZM39.2492 38.4891L25.7492 43.8891V29.0691L29.4242 33.4791C29.5692 33.6541 29.7842 33.7491 29.9992 33.7491C30.0942 33.7491 30.1892 33.7341 30.2792 33.6941L39.2492 30.1041V38.4891Z" fill="#A3ACB5"/>
</svg>
