<svg width="60" height="60" viewBox="0 0 60 60" fill="none" xmlns="http://www.w3.org/2000/svg">
<circle cx="30" cy="30" r="30" fill="#121314"/>
<path d="M30.003 24.6719C28.9486 24.6719 27.9179 24.9845 27.0412 25.5703C26.1645 26.1561 25.4812 26.9887 25.0777 27.9629C24.6742 28.937 24.5686 30.0089 24.7743 31.0431C24.98 32.0772 25.4878 33.0271 26.2333 33.7727C26.9789 34.5182 27.9288 35.026 28.963 35.2317C29.9971 35.4374 31.069 35.3318 32.0431 34.9283C33.0173 34.5248 33.8499 33.8415 34.4357 32.9648C35.0215 32.0881 35.3341 31.0574 35.3341 30.003C35.3326 28.5896 34.7704 27.2345 33.771 26.235C32.7715 25.2356 31.4164 24.6734 30.003 24.6719ZM31.0692 32.6686H30.003V31.0692H27.8706V32.6686H26.8043V30.5361C26.8044 30.4682 26.8172 30.4009 26.8422 30.3378L27.9084 27.6722C27.948 27.5733 28.0164 27.4886 28.1047 27.4289C28.193 27.3692 28.2971 27.3374 28.4037 27.3374H29.4699C29.5764 27.3374 29.6806 27.3692 29.7689 27.4289C29.8571 27.4886 29.9255 27.5733 29.9652 27.6722L31.0314 30.3378C31.0564 30.4009 31.0692 30.4682 31.0692 30.5361V32.6686ZM32.6686 32.6686H31.6023V27.3374H32.6686V32.6686Z" fill="#6981F1"/>
<path d="M28.7608 28.3984L28.1211 29.9978H29.745L29.1052 28.3984H28.7608Z" fill="#6981F1"/>
<path d="M42.8928 24.6689C43.0185 25.0246 43.266 25.3244 43.5914 25.5153C43.9168 25.7062 44.2993 25.7759 44.6711 25.7121C45.043 25.6483 45.3803 25.4551 45.6235 25.1666C45.8666 24.8782 46 24.513 46 24.1358C46 23.7585 45.8666 23.3934 45.6235 23.1049C45.3803 22.8165 45.043 22.6233 44.6711 22.5595C44.2993 22.4957 43.9168 22.5654 43.5914 22.7563C43.266 22.9472 43.0185 23.2469 42.8928 23.6026H41.1954C41.054 23.6027 40.9184 23.6589 40.8185 23.7589L38.2686 26.3087C38.0602 25.8356 37.8118 25.3811 37.5259 24.9504C37.4642 24.8585 37.4326 24.7498 37.4355 24.6391C37.4383 24.5285 37.4755 24.4215 37.5419 24.333L38.3416 23.2668L37.9151 22.8403L42.784 17.9698C43.1093 18.1654 43.4814 18.2697 43.8609 18.2715C44.2827 18.2715 44.695 18.1465 45.0457 17.9121C45.3963 17.6778 45.6697 17.3448 45.8311 16.9551C45.9925 16.5655 46.0347 16.1367 45.9524 15.7231C45.8701 15.3094 45.667 14.9294 45.3688 14.6312C45.0706 14.333 44.6906 14.1299 44.2769 14.0476C43.8633 13.9653 43.4345 14.0075 43.0449 14.1689C42.6552 14.3303 42.3222 14.6037 42.0879 14.9543C41.8535 15.305 41.7285 15.7173 41.7285 16.1391C41.7303 16.5186 41.8346 16.8907 42.0302 17.216L37.1624 22.0838L36.7359 21.6573L35.667 22.457C35.5785 22.5234 35.4715 22.5606 35.3609 22.5635C35.2502 22.5663 35.1415 22.5347 35.0496 22.473C34.6194 22.1866 34.165 21.9382 33.6918 21.7304L36.2417 19.1805C36.3412 19.0807 36.3972 18.9456 36.3973 18.8046V17.1072C36.753 16.9814 37.0528 16.734 37.2437 16.4086C37.4346 16.0832 37.5043 15.7007 37.4405 15.3289C37.3767 14.957 37.1835 14.6197 36.8951 14.3765C36.6066 14.1334 36.2415 14 35.8642 14C35.487 14 35.1218 14.1334 34.8334 14.3765C34.5449 14.6197 34.3517 14.957 34.2879 15.3289C34.2241 15.7007 34.2938 16.0832 34.4847 16.4086C34.6756 16.734 34.9754 16.9814 35.3311 17.1072V18.5839L32.5963 21.3188C32.319 21.2367 32.0381 21.1658 31.7513 21.1098C31.6425 21.0888 31.5429 21.0343 31.4665 20.9541C31.39 20.8738 31.3405 20.7717 31.3248 20.662L31.1371 19.3377H28.8629L28.6736 20.662C28.6579 20.7717 28.6084 20.8738 28.5319 20.9541C28.4555 21.0343 28.3559 21.0888 28.2471 21.1098C27.9603 21.1658 27.6794 21.2367 27.4021 21.3188L24.6689 18.5839V17.1072C25.0246 16.9814 25.3244 16.734 25.5153 16.4086C25.7062 16.0832 25.7759 15.7007 25.7121 15.3289C25.6483 14.957 25.4551 14.6197 25.1666 14.3765C24.8782 14.1334 24.513 14 24.1358 14C23.7585 14 23.3934 14.1334 23.1049 14.3765C22.8165 14.6197 22.6233 14.957 22.5595 15.3289C22.4957 15.7007 22.5654 16.0832 22.7563 16.4086C22.9472 16.734 23.2469 16.9814 23.6026 17.1072V18.8046C23.6027 18.946 23.6589 19.0816 23.7589 19.1815L26.3087 21.7314C25.8355 21.9392 25.3812 22.1877 24.9509 22.4741C24.8591 22.5358 24.7503 22.5674 24.6397 22.5645C24.529 22.5617 24.4221 22.5245 24.3335 22.4581L23.2673 21.6584L22.8408 22.0849L17.9698 17.216C18.1654 16.8907 18.2697 16.5186 18.2715 16.1391C18.2715 15.7173 18.1465 15.305 17.9121 14.9543C17.6778 14.6037 17.3448 14.3303 16.9551 14.1689C16.5655 14.0075 16.1367 13.9653 15.7231 14.0476C15.3094 14.1299 14.9294 14.333 14.6312 14.6312C14.333 14.9294 14.1299 15.3094 14.0476 15.7231C13.9653 16.1367 14.0075 16.5655 14.1689 16.9551C14.3303 17.3448 14.6037 17.6778 14.9543 17.9121C15.305 18.1465 15.7173 18.2715 16.1391 18.2715C16.5186 18.2697 16.8907 18.1654 17.216 17.9698L22.0838 22.8376L21.6573 23.2641L22.457 24.3303C22.5234 24.4189 22.5606 24.5258 22.5635 24.6365C22.5663 24.7471 22.5347 24.8559 22.473 24.9477C22.1649 25.4114 21.9006 25.9027 21.6834 26.4153L19.0269 23.7589C18.9771 23.709 18.9179 23.6696 18.8528 23.6428C18.7876 23.6159 18.7178 23.6023 18.6474 23.6026H17.1072C16.9814 23.2469 16.734 22.9472 16.4086 22.7563C16.0832 22.5654 15.7007 22.4957 15.3289 22.5595C14.957 22.6233 14.6197 22.8165 14.3765 23.1049C14.1334 23.3934 14 23.7585 14 24.1358C14 24.513 14.1334 24.8782 14.3765 25.1666C14.6197 25.4551 14.957 25.6483 15.3289 25.7121C15.7007 25.7759 16.0832 25.7062 16.4086 25.5153C16.734 25.3244 16.9814 25.0246 17.1072 24.6689H18.4267L21.2879 27.5301C21.2212 27.7668 21.1578 28.0051 21.1098 28.2487C21.0888 28.3575 21.0343 28.4571 20.9541 28.5335C20.8738 28.61 20.7717 28.6595 20.662 28.6752L19.3377 28.8629V31.1371L20.662 31.3264C20.7717 31.3421 20.8738 31.3916 20.9541 31.4681C21.0343 31.5445 21.0888 31.6441 21.1098 31.7529C21.1578 31.9965 21.2212 32.2327 21.2879 32.4715L18.4267 35.3311H17.1072C16.9814 34.9754 16.734 34.6756 16.4086 34.4847C16.0832 34.2938 15.7007 34.2241 15.3289 34.2879C14.957 34.3517 14.6197 34.5449 14.3765 34.8334C14.1334 35.1218 14 35.487 14 35.8642C14 36.2415 14.1334 36.6066 14.3765 36.8951C14.6197 37.1835 14.957 37.3767 15.3289 37.4405C15.7007 37.5043 16.0832 37.4346 16.4086 37.2437C16.734 37.0528 16.9814 36.753 17.1072 36.3973H18.6474C18.7887 36.3973 18.9243 36.3411 19.0243 36.2411L21.6834 33.5846C21.902 34.0963 22.1675 34.5866 22.4767 35.0491C22.5385 35.1409 22.5701 35.2497 22.5672 35.3603C22.5643 35.471 22.5271 35.5779 22.4607 35.6665L21.6611 36.7353L22.0875 37.1618L17.216 42.0302C16.8907 41.8346 16.5186 41.7303 16.1391 41.7285C15.7173 41.7285 15.305 41.8535 14.9543 42.0879C14.6037 42.3222 14.3303 42.6552 14.1689 43.0449C14.0075 43.4345 13.9653 43.8633 14.0476 44.2769C14.1299 44.6906 14.333 45.0706 14.6312 45.3688C14.9294 45.667 15.3094 45.8701 15.7231 45.9524C16.1367 46.0347 16.5655 45.9925 16.9551 45.8311C17.3448 45.6697 17.6778 45.3963 17.9121 45.0457C18.1465 44.695 18.2715 44.2827 18.2715 43.8609C18.2697 43.4814 18.1654 43.1093 17.9698 42.784L22.8376 37.9162L23.2641 38.3427L24.3303 37.543C24.4189 37.4766 24.5258 37.4394 24.6365 37.4365C24.7471 37.4337 24.8559 37.4653 24.9477 37.527C25.3785 37.8128 25.8329 38.0613 26.3061 38.2696L23.7562 40.8195C23.6574 40.9196 23.6023 41.0547 23.6026 41.1954V42.8928C23.2469 43.0185 22.9472 43.266 22.7563 43.5914C22.5654 43.9168 22.4957 44.2993 22.5595 44.6711C22.6233 45.043 22.8165 45.3803 23.1049 45.6235C23.3934 45.8666 23.7585 46 24.1358 46C24.513 46 24.8782 45.8666 25.1666 45.6235C25.4551 45.3803 25.6483 45.043 25.7121 44.6711C25.7759 44.2993 25.7062 43.9168 25.5153 43.5914C25.3244 43.266 25.0246 43.0185 24.6689 42.8928V41.4161L27.4037 38.6812C27.681 38.7633 27.9624 38.8342 28.2487 38.8902C28.3575 38.9112 28.4571 38.9657 28.5335 39.0459C28.61 39.1262 28.6595 39.2283 28.6752 39.338L28.8629 40.6622H31.1371L31.3264 39.338C31.3421 39.2283 31.3916 39.1262 31.4681 39.0459C31.5445 38.9657 31.6441 38.9112 31.7529 38.8902C32.0392 38.8342 32.3206 38.7633 32.5979 38.6812L35.3311 41.4161V42.8928C34.9754 43.0185 34.6756 43.266 34.4847 43.5914C34.2938 43.9168 34.2241 44.2993 34.2879 44.6711C34.3517 45.043 34.5449 45.3803 34.8334 45.6235C35.1218 45.8666 35.487 46 35.8642 46C36.2415 46 36.6066 45.8666 36.8951 45.6235C37.1835 45.3803 37.3767 45.043 37.4405 44.6711C37.5043 44.2993 37.4346 43.9168 37.2437 43.5914C37.0528 43.266 36.753 43.0185 36.3973 42.8928V41.1954C36.3973 41.054 36.3411 40.9184 36.2411 40.8185L33.6913 38.2686C34.1644 38.0602 34.6189 37.8118 35.0496 37.5259C35.1415 37.4642 35.2502 37.4326 35.3609 37.4355C35.4715 37.4383 35.5785 37.4755 35.667 37.5419L36.7332 38.3416L37.1597 37.9151L42.0275 42.783C41.8327 43.1088 41.7293 43.4812 41.7285 43.8609C41.7285 44.2827 41.8535 44.695 42.0879 45.0457C42.3222 45.3963 42.6552 45.6697 43.0449 45.8311C43.4345 45.9925 43.8633 46.0347 44.2769 45.9524C44.6906 45.8701 45.0706 45.667 45.3688 45.3688C45.667 45.0706 45.8701 44.6906 45.9524 44.2769C46.0347 43.8633 45.9925 43.4345 45.8311 43.0449C45.6697 42.6552 45.3963 42.3222 45.0457 42.0879C44.695 41.8535 44.2827 41.7285 43.8609 41.7285C43.4814 41.7303 43.1093 41.8346 42.784 42.0302L37.9162 37.1624L38.3427 36.7359L37.543 35.667C37.4766 35.5785 37.4394 35.4715 37.4365 35.3609C37.4337 35.2502 37.4653 35.1415 37.527 35.0496C37.813 34.6191 38.0614 34.1648 38.2696 33.6918L40.8195 36.2417C40.9193 36.3412 41.0544 36.3972 41.1954 36.3973H42.8928C43.0185 36.753 43.266 37.0528 43.5914 37.2437C43.9168 37.4346 44.2993 37.5043 44.6711 37.4405C45.043 37.3767 45.3803 37.1835 45.6235 36.8951C45.8666 36.6066 46 36.2415 46 35.8642C46 35.487 45.8666 35.1218 45.6235 34.8334C45.3803 34.5449 45.043 34.3517 44.6711 34.2879C44.2993 34.2241 43.9168 34.2938 43.5914 34.4847C43.266 34.6756 43.0185 34.9754 42.8928 35.3311H41.4161L38.6812 32.5963C38.7633 32.319 38.8342 32.0376 38.8902 31.7513C38.9112 31.6425 38.9657 31.5429 39.0459 31.4665C39.1262 31.39 39.2283 31.3405 39.338 31.3248L40.6622 31.1371V28.8629L39.338 28.6736C39.2283 28.6579 39.1262 28.6084 39.0459 28.5319C38.9657 28.4555 38.9112 28.3559 38.8902 28.2471C38.8342 27.9608 38.7633 27.6794 38.6812 27.4021L41.4161 24.6689H42.8928ZM30 36.3973C28.7347 36.3973 27.4979 36.0222 26.4458 35.3192C25.3938 34.6163 24.5738 33.6171 24.0896 32.4482C23.6054 31.2792 23.4787 29.9929 23.7256 28.7519C23.9724 27.511 24.5817 26.3711 25.4764 25.4764C26.3711 24.5817 27.511 23.9724 28.7519 23.7256C29.9929 23.4787 31.2792 23.6054 32.4482 24.0896C33.6171 24.5738 34.6163 25.3938 35.3192 26.4458C36.0222 27.4979 36.3973 28.7347 36.3973 30C36.3955 31.6961 35.7209 33.3222 34.5216 34.5216C33.3222 35.7209 31.6961 36.3955 30 36.3973Z" fill="#6981F1"/>
</svg>
