<svg width="50" height="50" viewBox="0 0 50 50" fill="none" xmlns="http://www.w3.org/2000/svg">
<path d="M33.1438 30.4931L29.442 36.9042H20.5573L16.8555 30.4931L23.1482 15.5664H24.6293V29.5809C24.1982 29.734 23.8888 30.1445 23.8888 30.6277C23.8888 31.2412 24.3861 31.7375 24.9996 31.7375C25.6131 31.7375 26.1105 31.2412 26.1105 30.6277C26.1105 30.1445 25.801 29.734 25.3699 29.5809V15.5664H26.8511L33.1438 30.4931Z" fill="#A3ACB5"/>
<path d="M29.4616 37.9414H20.5371V42.285H29.4616V37.9414Z" fill="#A3ACB5"/>
<path d="M42.4632 9.62891H7.71484V10.7148H42.4632V9.62891Z" fill="#A3ACB5"/>
<path d="M43.006 27.8703H41.9202C41.9202 18.5895 34.3698 11.039 25.089 11.039C15.8082 11.039 8.25775 18.5895 8.25775 27.8703H7.17188C7.17188 17.9907 15.2095 9.95312 25.089 9.95312C34.9685 9.95312 43.006 17.9907 43.006 27.8703Z" fill="#A3ACB5"/>
<path d="M44.4568 26.7227H40.1133V31.0662H44.4568V26.7227Z" fill="#A3ACB5"/>
<path d="M27.2615 8H22.918V12.3436H27.2615V8Z" fill="#A3ACB5"/>
<path d="M9.8865 26.7227H5.54297V31.0662H9.8865V26.7227Z" fill="#A3ACB5"/>
<path d="M42.828 12.3436C44.0275 12.3436 44.9998 11.3712 44.9998 10.1718C44.9998 8.97234 44.0275 8 42.828 8C41.6286 8 40.6562 8.97234 40.6562 10.1718C40.6562 11.3712 41.6286 12.3436 42.828 12.3436Z" fill="#A3ACB5"/>
<path d="M7.17178 12.3436C8.37122 12.3436 9.34356 11.3712 9.34356 10.1718C9.34356 8.97234 8.37122 8 7.17178 8C5.97234 8 5 8.97234 5 10.1718C5 11.3712 5.97234 12.3436 7.17178 12.3436Z" fill="#A3ACB5"/>
</svg>
