<svg width="60" height="60" viewBox="0 0 60 60" fill="none" xmlns="http://www.w3.org/2000/svg">
<circle cx="30" cy="30" r="30" fill="#121314"/>
<path d="M32.5129 17.2188L37.3325 20.0014M40.3449 25.2188V30.7842M37.3325 36.0016L32.5128 38.7842M26.4882 38.7843L21.6686 36.0016M18.6562 30.7843V25.2189M21.6686 20.0014L26.4883 17.2188" stroke="#6981F1" stroke-miterlimit="22.9256" stroke-linecap="round" stroke-linejoin="round"/>
<path fill-rule="evenodd" clip-rule="evenodd" d="M29.5002 21.9922L34.7035 24.9963V31.0046L29.5002 34.0087L24.2969 31.0046V24.9963L29.5002 21.9922Z" stroke="#6981F1" stroke-miterlimit="22.9256" stroke-linecap="round" stroke-linejoin="round"/>
<path fill-rule="evenodd" clip-rule="evenodd" d="M29.503 25.3711L27.2266 26.6854V29.3141L29.503 30.6284L31.7795 29.3141V26.6854L29.503 25.3711Z" stroke="#6981F1" stroke-miterlimit="22.9256" stroke-linecap="round" stroke-linejoin="round"/>
<path fill-rule="evenodd" clip-rule="evenodd" d="M29.4966 12L32.5089 13.7391V17.2174L29.4966 18.9566L26.4844 17.2174V13.7391L29.4966 12Z" stroke="#6981F1" stroke-miterlimit="22.9256" stroke-linecap="round" stroke-linejoin="round"/>
<path fill-rule="evenodd" clip-rule="evenodd" d="M18.6529 18.2617L21.6652 20.0009V23.4792L18.6529 25.2183L15.6406 23.4792V20.0009L18.6529 18.2617Z" stroke="#6981F1" stroke-miterlimit="22.9256" stroke-linecap="round" stroke-linejoin="round"/>
<path fill-rule="evenodd" clip-rule="evenodd" d="M18.6529 30.7812L21.6652 32.5203V35.9987L18.6529 37.7378L15.6406 35.9987V32.5203L18.6529 30.7812Z" stroke="#6981F1" stroke-miterlimit="22.9256" stroke-linecap="round" stroke-linejoin="round"/>
<path fill-rule="evenodd" clip-rule="evenodd" d="M29.4966 37.043L32.5089 38.782V42.2604L29.4966 43.9995L26.4844 42.2604V38.782L29.4966 37.043Z" stroke="#6981F1" stroke-miterlimit="22.9256" stroke-linecap="round" stroke-linejoin="round"/>
<path fill-rule="evenodd" clip-rule="evenodd" d="M40.3444 30.7812L43.3566 32.5203V35.9987L40.3444 37.7378L37.332 35.9987V32.5203L40.3444 30.7812Z" stroke="#6981F1" stroke-miterlimit="22.9256" stroke-linecap="round" stroke-linejoin="round"/>
<path fill-rule="evenodd" clip-rule="evenodd" d="M40.3444 18.2617L43.3566 20.0009V23.4792L40.3444 25.2183L37.332 23.4792V20.0009L40.3444 18.2617Z" stroke="#6981F1" stroke-miterlimit="22.9256" stroke-linecap="round" stroke-linejoin="round"/>
<path d="M21.2373 20.2461L18.6538 21.7377L16.0703 20.2461" stroke="#6981F1" stroke-miterlimit="22.9256" stroke-linecap="round" stroke-linejoin="round"/>
<path d="M18.6562 21.7383V24.8914" stroke="#6981F1" stroke-miterlimit="22.9256" stroke-linecap="round" stroke-linejoin="round"/>
<path d="M21.2373 32.7695L18.6538 34.2611L16.0703 32.7695" stroke="#6981F1" stroke-miterlimit="22.9256" stroke-linecap="round" stroke-linejoin="round"/>
<path d="M18.6562 34.2617V37.4149" stroke="#6981F1" stroke-miterlimit="22.9256" stroke-linecap="round" stroke-linejoin="round"/>
<path d="M32.0811 39.0273L29.4976 40.5189L26.9141 39.0273" stroke="#6981F1" stroke-miterlimit="22.9256" stroke-linecap="round" stroke-linejoin="round"/>
<path d="M29.5 40.5234V43.6765" stroke="#6981F1" stroke-miterlimit="22.9256" stroke-linecap="round" stroke-linejoin="round"/>
<path d="M42.9287 32.7695L40.3452 34.2611L37.7617 32.7695" stroke="#6981F1" stroke-miterlimit="22.9256" stroke-linecap="round" stroke-linejoin="round"/>
<path d="M40.3438 34.2617V37.4149" stroke="#6981F1" stroke-miterlimit="22.9256" stroke-linecap="round" stroke-linejoin="round"/>
<path d="M42.9287 20.2461L40.3452 21.7376L37.7617 20.2461" stroke="#6981F1" stroke-miterlimit="22.9256" stroke-linecap="round" stroke-linejoin="round"/>
<path d="M40.3438 21.7383V24.8914" stroke="#6981F1" stroke-miterlimit="22.9256" stroke-linecap="round" stroke-linejoin="round"/>
<path d="M32.0811 13.9844L29.4976 15.476L26.9141 13.9844" stroke="#6981F1" stroke-miterlimit="22.9256" stroke-linecap="round" stroke-linejoin="round"/>
<path d="M29.5 15.4805V18.6336" stroke="#6981F1" stroke-miterlimit="22.9256" stroke-linecap="round" stroke-linejoin="round"/>
</svg>
