<svg width="50" height="50" viewBox="0 0 50 50" fill="none" xmlns="http://www.w3.org/2000/svg">
<path d="M4 46H10V45.1341L9.93435 45.0366L10 45.0122V32H4V46Z" fill="#A3ACB5"/>
<path d="M44.7651 34.3407L44.7407 34.3528L37.5506 37.9696C37.6347 38.3605 37.6757 38.7593 37.6727 39.159C37.6727 39.159 37.697 39.6777 37.6727 40.0086C37.6485 40.3395 26.0759 40.0086 26.0759 40.0086V38.3094H35.8661C35.6693 37.4241 35.1752 36.6317 34.4653 36.0626C33.7553 35.4935 32.8717 35.1816 31.9598 35.1781H25.4289C24.1314 35.1783 22.8505 34.888 21.6813 34.3285L21.0099 34.0008C19.4246 33.2332 17.6629 32.8973 15.9044 33.0273C14.1459 33.1574 12.4536 33.7488 11 34.7412V44.0623L11.8911 43.5526C13.005 42.9201 14.3221 42.7417 15.5655 43.055L26.7229 45.8464C28.8548 46.2176 31.0501 45.9119 32.9974 44.9726L48 34.729C47.5679 34.3387 47.0244 34.0916 46.4448 34.022C45.8652 33.9524 45.2782 34.0638 44.7651 34.3407Z" fill="#A3ACB5"/>
<path d="M30.752 16.5039H33.2031C33.0726 14.9439 32.5001 13.4533 31.5527 12.207C31.1337 12.6025 30.6793 12.9588 30.1953 13.2715C30.5196 14.3204 30.7067 15.4069 30.752 16.5039ZM28.9648 13.9551C27.93 14.427 26.8184 14.7082 25.6836 14.7852V16.5039H29.3848C29.3443 15.6409 29.2033 14.7855 28.9648 13.9551ZM28.4961 21.7187C27.6112 21.3018 26.6585 21.0471 25.6836 20.9668V25.0684C26.9043 24.2871 27.8613 23.1348 28.4961 21.7187ZM29.3848 17.8711H25.6836V19.5898C26.8176 19.6715 27.9284 19.9525 28.9648 20.4199C29.2033 19.5895 29.3443 18.7341 29.3848 17.8711Z" fill="#A3ACB5"/>
<path d="M24.3164 19.5879C23.1796 19.665 22.0654 19.9427 21.0254 20.4082C20.7949 19.5797 20.6574 18.7281 20.6152 17.8691H24.3164V19.5879Z" fill="#A3ACB5"/>
<path d="M24.3164 20.9648V25.0664C23.0957 24.2852 22.1387 23.123 21.4941 21.707C22.383 21.2931 23.3389 21.0418 24.3164 20.9648Z" fill="#A3ACB5"/>
<path d="M24.3164 16.502H20.6152C20.6574 15.643 20.7949 14.7914 21.0254 13.9629C22.0654 14.4284 23.1796 14.7061 24.3164 14.7832V16.502Z" fill="#A3ACB5"/>
<path d="M28.0859 9.54883C29.0288 9.93518 29.8927 10.4913 30.6348 11.1895C30.3417 11.4733 30.0248 11.7314 29.6875 11.9609C29.2797 11.08 28.7396 10.2665 28.0859 9.54883Z" fill="#A3ACB5"/>
<path d="M24.3164 9.31445V13.416C23.3418 13.3284 22.3883 13.081 21.4941 12.6836C22.1387 11.2578 23.0957 10.0957 24.3164 9.31445Z" fill="#A3ACB5"/>
<path d="M19.3359 11.2188C20.0837 10.5087 20.9582 9.94551 21.9141 9.55859C21.2529 10.2817 20.7062 11.1018 20.293 11.9902C19.9544 11.7584 19.6344 11.5004 19.3359 11.2188Z" fill="#A3ACB5"/>
<path d="M18.4277 12.2344C18.8482 12.6323 19.306 12.9888 19.7949 13.2988C19.4731 14.338 19.2892 15.4149 19.248 16.502H16.7969C16.9296 14.9546 17.4947 13.4758 18.4277 12.2344Z" fill="#A3ACB5"/>
<path d="M21.9141 24.8125C20.9582 24.4256 20.0837 23.8624 19.3359 23.1523C19.6406 22.8709 19.9636 22.6099 20.3027 22.3711C20.7089 23.2641 21.2526 24.0879 21.9141 24.8125Z" fill="#A3ACB5"/>
<path d="M19.2383 17.8691C19.2883 18.956 19.4753 20.0322 19.7949 21.0723C19.3095 21.3872 18.8521 21.7434 18.4277 22.1367C17.4867 20.8997 16.9206 19.4185 16.7969 17.8691H19.2383Z" fill="#A3ACB5"/>
<path d="M31.5527 22.1563C31.1337 21.7607 30.6793 21.4044 30.1953 21.0918C30.5213 20.0433 30.7084 18.9565 30.752 17.8594H33.2031C33.0761 19.4202 32.5033 20.9117 31.5527 22.1563Z" fill="#A3ACB5"/>
<path d="M25.6836 13.4063V9.30469C26.9043 10.0859 27.8613 11.2383 28.4961 12.6543C27.6112 13.0713 26.6585 13.326 25.6836 13.4063Z" fill="#A3ACB5"/>
<path d="M30.6348 23.1719C29.8943 23.8722 29.03 24.4285 28.0859 24.8125C28.7439 24.0982 29.2845 23.284 29.6875 22.4004C30.0248 22.6299 30.3417 22.888 30.6348 23.1719Z" fill="#A3ACB5"/>
<path d="M10.937 15.2316C10.7424 16.7383 10.7805 18.266 11.0499 19.7611C11.0738 19.8892 11.0657 20.0211 11.0262 20.1453C10.9868 20.2694 10.9174 20.3819 10.824 20.4727L9.20875 22.0202L10.7788 25.6122L13.0153 25.4427C13.1476 25.4324 13.2803 25.456 13.4009 25.5113C13.5215 25.5667 13.626 25.6519 13.7043 25.759C14.6012 26.9745 15.7018 28.0255 16.9574 28.8652C17.0693 28.9384 17.1604 29.0393 17.2217 29.158C17.2831 29.2768 17.3127 29.4094 17.3076 29.543L17.2398 31.7795L20.8882 33.1914L22.3341 31.5197C22.419 31.4198 22.5276 31.3427 22.6499 31.2954C22.7721 31.248 22.9043 31.232 23.0344 31.2486C24.5411 31.4431 26.0687 31.4051 27.5639 31.1356C27.6919 31.1118 27.8239 31.1199 27.948 31.1593C28.0721 31.1987 28.1846 31.2682 28.2755 31.3615L29.8229 32.9768L33.4149 31.4067L33.2455 29.1702C33.2351 29.0379 33.2587 28.9052 33.3141 28.7846C33.3694 28.664 33.4547 28.5596 33.5617 28.4812C34.7773 27.5844 35.8282 26.4837 36.668 25.2281C36.7411 25.1162 36.842 25.0252 36.9608 24.9638C37.0795 24.9025 37.2121 24.8729 37.3457 24.878L39.5822 24.9457L40.9941 21.2973L39.3224 19.8515C39.2225 19.7665 39.1454 19.658 39.0981 19.5357C39.0508 19.4134 39.0347 19.2812 39.0513 19.1512C39.2459 17.6445 39.2078 16.1168 38.9384 14.6217C38.9145 14.4936 38.9226 14.3617 38.962 14.2375C39.0015 14.1134 39.0709 14.0009 39.1643 13.9101L40.7795 12.3626L39.2095 8.77065L36.973 8.94008C36.8407 8.95044 36.7079 8.92683 36.5874 8.87147C36.4668 8.81612 36.3623 8.73087 36.2839 8.62381C35.3871 7.40827 34.2865 6.35732 33.0309 5.51756C32.919 5.44441 32.8279 5.34355 32.7666 5.22479C32.7052 5.10603 32.6756 4.97341 32.6807 4.83983L32.7485 2.60334L29.1 1.19141L27.6542 2.86313C27.5693 2.96301 27.4607 3.0401 27.3384 3.08744C27.2161 3.13478 27.084 3.15086 26.9539 3.13422C25.4472 2.93966 23.9196 2.97776 22.4244 3.24718C22.2964 3.27105 22.1644 3.26292 22.0403 3.22351C21.9161 3.18409 21.8036 3.11462 21.7128 3.02127L20.1653 1.40602L16.5734 2.97609L16.7428 5.21258C16.7532 5.34487 16.7296 5.4776 16.6742 5.59819C16.6189 5.71878 16.5336 5.82322 16.4265 5.90161C15.211 6.79842 14.1601 7.89906 13.3203 9.1547C13.2471 9.26658 13.1463 9.35762 13.0275 9.41898C12.9088 9.48034 12.7761 9.50992 12.6426 9.50485L10.4061 9.43708L8.99414 13.0855L10.6659 14.5313C10.7657 14.6163 10.8428 14.7248 10.8902 14.8471C10.9375 14.9694 10.9536 15.1016 10.937 15.2316ZM24.9998 6.08233C27.1958 6.08233 29.3426 6.73354 31.1685 7.9536C32.9945 9.17366 34.4176 10.9078 35.258 12.9367C36.0984 14.9655 36.3183 17.1981 35.8899 19.3519C35.4614 21.5058 34.4039 23.4842 32.8511 25.0371C31.2983 26.5899 29.3198 27.6474 27.166 28.0758C25.0121 28.5043 22.7796 28.2844 20.7507 27.444C18.7218 26.6036 16.9877 25.1804 15.7676 23.3545C14.5476 21.5285 13.8964 19.3818 13.8964 17.1858C13.8998 14.242 15.0707 11.4198 17.1523 9.33825C19.2338 7.2567 22.056 6.08577 24.9998 6.08233Z" fill="#A3ACB5"/>
</svg>
