<svg width="50" height="50" viewBox="0 0 50 50" fill="none" xmlns="http://www.w3.org/2000/svg">
<g clip-path="url(#clip0_22548_14735)">
<path d="M48.0494 20H32.3286C31.9497 19.9999 31.5863 19.8493 31.3183 19.5816C31.0503 19.3138 30.8997 18.9506 30.8995 18.5719V2.19633C30.8995 0.983676 29.9157 0 28.703 0H23.091C21.8776 0 20.8943 0.983676 20.8943 2.19633V18.4727C20.8943 19.3171 20.2113 20.0035 19.3664 20.0072L14.2145 20.0318C13.3624 20.0364 12.6701 19.3454 12.6718 18.4945L12.7037 2.20002C12.7065 0.985523 11.7223 0 10.5072 0H4.89986C3.68621 0 2.70312 0.983676 2.70312 2.19633V48.05C2.70312 49.1273 3.57628 50 4.65321 50H48.0494C49.1273 50 50.0004 49.1273 50.0004 48.05V21.95C50.0004 20.8727 49.1273 20 48.0494 20ZM40.6773 37.2163C40.6773 38.628 39.5322 39.7727 38.1197 39.7727H33.6847C32.2721 39.7727 31.127 38.628 31.127 37.2163V32.7835C31.127 31.3716 32.2721 30.2271 33.6847 30.2271H38.1197C39.5322 30.2271 40.6773 31.3716 40.6773 32.7835V37.2163Z" fill="#FF6600"/>
</g>
<defs>
<clipPath id="clip0_22548_14735">
<rect width="50" height="50" fill="white"/>
</clipPath>
</defs>
</svg>
