<svg width="64" height="47" viewBox="0 0 64 47" fill="none" xmlns="http://www.w3.org/2000/svg">
<path d="M32 30.7305C33.7259 30.7305 35.125 29.3314 35.125 27.6055C35.125 25.8796 33.7259 24.4805 32 24.4805C30.2741 24.4805 28.875 25.8796 28.875 27.6055C28.875 29.3314 30.2741 30.7305 32 30.7305Z" fill="#F5FAFE"/>
<path d="M15.3327 27.6029C17.6339 27.6029 19.4993 25.7374 19.4993 23.4362C19.4993 21.135 17.6339 19.2695 15.3327 19.2695C13.0315 19.2695 11.166 21.135 11.166 23.4362C11.166 25.7374 13.0315 27.6029 15.3327 27.6029Z" fill="#F5FAFE"/>
<path d="M48.6667 27.6029C50.9679 27.6029 52.8333 25.7374 52.8333 23.4362C52.8333 21.135 50.9679 19.2695 48.6667 19.2695C46.3655 19.2695 44.5 21.135 44.5 23.4362C44.5 25.7374 46.3655 27.6029 48.6667 27.6029Z" fill="#F5FAFE"/>
<path d="M31.9987 8.33333C34.2999 8.33333 36.1654 6.46785 36.1654 4.16667C36.1654 1.86548 34.2999 0 31.9987 0C29.6975 0 27.832 1.86548 27.832 4.16667C27.832 6.46785 29.6975 8.33333 31.9987 8.33333Z" fill="#F5FAFE"/>
<path fill-rule="evenodd" clip-rule="evenodd" d="M15.334 5.73047C14.4715 5.73047 13.7715 5.03047 13.7715 4.16797C13.7715 3.30547 14.4715 2.60547 15.334 2.60547H29.3965C30.259 2.60547 30.959 3.30547 30.959 4.16797C30.959 5.03047 30.259 5.73047 29.3965 5.73047H15.334Z" fill="#F5FAFE"/>
<path fill-rule="evenodd" clip-rule="evenodd" d="M34.6055 5.73047C33.743 5.73047 33.043 5.03047 33.043 4.16797C33.043 3.30547 33.743 2.60547 34.6055 2.60547H48.668C49.5305 2.60547 50.2305 3.30547 50.2305 4.16797C50.2305 5.03047 49.5305 5.73047 48.668 5.73047H34.6055Z" fill="#F5FAFE"/>
<path fill-rule="evenodd" clip-rule="evenodd" d="M26.7903 40.6263C25.9278 40.6263 25.2278 39.9263 25.2278 39.0638C25.2278 33.3513 20.4841 28.718 20.4841 28.718C19.9507 28.1909 19.8674 27.3617 20.282 26.7388L30.6987 11.1138C30.9882 10.6784 31.4757 10.418 31.9987 10.418C32.5216 10.418 33.0091 10.6784 33.2987 11.1138L43.7153 26.7388C44.1299 27.3617 44.0466 28.1909 43.5132 28.718C43.5132 28.718 38.7695 33.3513 38.7695 39.0638C38.7695 39.9263 38.0695 40.6263 37.207 40.6263H26.7903ZM31.9987 37.5013H35.7382C36.2799 32.9721 39.0174 29.1784 40.4445 27.468L31.9987 14.7971L23.5528 27.468C24.9799 29.1784 27.7174 32.9721 28.2591 37.5013H31.9987Z" fill="#F5FAFE"/>
<path fill-rule="evenodd" clip-rule="evenodd" d="M30.4375 13.0195C30.4375 12.157 31.1375 11.457 32 11.457C32.8625 11.457 33.5625 12.157 33.5625 13.0195V26.5612C33.5625 27.4237 32.8625 28.1237 32 28.1237C31.1375 28.1237 30.4375 27.4237 30.4375 26.5612V13.0195Z" fill="#F5FAFE"/>
<path fill-rule="evenodd" clip-rule="evenodd" d="M37.207 37.5C39.2195 37.5 40.8529 39.1312 40.8529 41.1458V45.3125C40.8529 46.175 40.1529 46.875 39.2904 46.875H24.707C23.8445 46.875 23.1445 46.175 23.1445 45.3125V41.1458C23.1445 39.1312 24.7779 37.5 26.7904 37.5H37.207Z" fill="#F5FAFE"/>
<path fill-rule="evenodd" clip-rule="evenodd" d="M16.8965 20.8323C16.8965 21.6948 16.1965 22.3948 15.334 22.3948C14.4715 22.3948 13.7715 21.6948 13.7715 20.8323C13.7715 11.7365 20.4486 4.18859 29.1631 2.82401C29.5923 2.75526 30.0319 2.87193 30.3736 3.14276C30.7152 3.41151 30.9298 3.81359 30.9611 4.24693C31.0027 4.78443 31.4527 5.20734 32.0007 5.20734C32.5486 5.20734 32.9986 4.78443 33.0402 4.24693C33.0715 3.81359 33.2861 3.41151 33.6277 3.14276C33.9694 2.87193 34.409 2.75526 34.8382 2.82401C43.5527 4.18859 50.2298 11.7365 50.2298 20.8323C50.2298 21.6948 49.5298 22.3948 48.6673 22.3948C47.8048 22.3948 47.1048 21.6948 47.1048 20.8323C47.1048 13.7553 42.2277 7.80734 35.6527 6.17193C34.9423 7.45943 33.5736 8.33234 32.0007 8.33234C30.4277 8.33234 29.059 7.45943 28.3486 6.17401C21.7736 7.80734 16.8965 13.7553 16.8965 20.8323Z" fill="#F5FAFE"/>
<path fill-rule="evenodd" clip-rule="evenodd" d="M16.8958 1.5625V6.77083C16.8958 7.63333 16.1958 8.33333 15.3333 8.33333H10.125C9.2625 8.33333 8.5625 7.63333 8.5625 6.77083V1.5625C8.5625 0.7 9.2625 0 10.125 0H15.3333C16.1958 0 16.8958 0.7 16.8958 1.5625Z" fill="#F5FAFE"/>
<path fill-rule="evenodd" clip-rule="evenodd" d="M55.4388 1.5625V6.77083C55.4388 7.63333 54.7388 8.33333 53.8763 8.33333H48.668C47.8055 8.33333 47.1055 7.63333 47.1055 6.77083V1.5625C47.1055 0.7 47.8055 0 48.668 0H53.8763C54.7388 0 55.4388 0.7 55.4388 1.5625Z" fill="#F5FAFE"/>
</svg>
