<svg width="57" height="55" viewBox="0 0 57 55" fill="none" xmlns="http://www.w3.org/2000/svg">
<path fill-rule="evenodd" clip-rule="evenodd" d="M32.8399 5.20438C34.7646 5.64642 36.6028 6.38269 38.2874 7.38353L41.8273 5.86652L45.9995 9.89216L44.4277 13.3068C45.4654 14.9325 46.2285 16.707 46.6866 18.5646L50.2981 19.9059V25.5991L46.6857 26.9407C46.2277 28.7979 45.4646 30.5715 44.4273 32.197L45.4703 34.4632L38.6697 38.2852L38.2887 38.1218C37.493 38.5946 36.6628 39.0083 35.8056 39.3599C35.7888 39.3302 35.7718 39.3004 35.7546 39.2709C35.8211 39.1143 35.8783 38.9504 35.9258 38.7791C36.4576 36.8639 35.2433 34.99 33.334 34.3927C33.1801 34.3451 32.9715 34.3219 32.809 34.291V32.2335C36.5877 30.6322 39.2268 26.9904 39.2268 22.7525C39.2268 20.27 38.3211 17.9919 36.8113 16.2087C36.7539 13.3206 35.0947 10.6914 32.4646 9.31219C31.211 8.65477 29.6683 9.53992 29.6683 10.9167V12.4629C29.2843 12.4227 28.8943 12.4015 28.4992 12.4015C28.1041 12.4015 27.7143 12.4228 27.3303 12.4629V10.9169C27.3303 9.54003 25.7877 8.65487 24.5341 9.31229C21.9041 10.6914 20.2448 13.3207 20.1874 16.2088C18.6777 17.9921 17.7718 20.2701 17.7718 22.7526C17.7718 26.2013 19.5196 29.2553 22.2069 31.136C20.0357 30.7548 18.0495 31.5764 16.2069 32.6058L11.0598 35.4814L12.5711 32.1983C11.5334 30.5725 10.7705 28.798 10.3122 26.9405L6.70075 25.5992V19.906L10.3128 18.5644C10.7708 16.7072 11.5339 14.9331 12.5713 13.3076L10.9992 9.89237L15.1713 5.86663L18.7112 7.38364C20.3958 6.38279 22.2341 5.64642 24.1587 5.20448L25.5494 1.71875H31.4494L32.8399 5.20438ZM16.1315 49.7567L8.16961 36.1823C7.78464 35.5259 6.91316 35.2928 6.23295 35.6643L3.52478 37.1432C2.84456 37.5146 2.60298 38.3556 2.98796 39.012L10.9498 52.5864C11.3348 53.2428 12.2063 53.4759 12.8865 53.1044L15.5946 51.6254C16.2749 51.254 16.5164 50.4131 16.1315 49.7567ZM6.62371 40.0633C6.09523 40.1379 5.60428 39.785 5.52702 39.275C5.44975 38.7652 5.81547 38.2915 6.34394 38.2169C6.8723 38.1424 7.36326 38.4953 7.44052 39.0051C7.51778 39.515 7.15207 39.9888 6.62371 40.0633ZM27.0367 40.2262C26.322 40.0293 25.5967 39.8293 24.8836 39.645C24.409 39.5227 24.1272 39.0523 24.254 38.5943C24.3808 38.1364 24.8684 37.8644 25.3429 37.9867C27.5116 38.5474 29.6612 39.2213 31.8599 39.66C32.9762 39.7919 33.8974 39.452 34.2073 38.3363C34.4884 37.3238 33.8235 36.3691 32.8359 36.039C29.8243 35.507 26.9013 34.4874 24.603 33.6856C21.272 32.5236 20.3816 32.2552 17.0978 34.0897L10.9902 37.5017L15.9558 45.9678L16.5947 45.6119C16.8062 45.4946 17.0469 45.4708 17.2655 45.5271L30.466 48.9373C32.4071 49.4393 33.5217 49.1102 35.2368 48.2655L53.3725 37.4902C53.9725 37.1338 54.2684 36.3149 54.1826 35.5171C54.1122 34.8604 53.7745 34.2642 53.1502 33.9591C52.1786 33.4843 50.5055 33.6181 47.9358 35.0622L37.9077 40.6981C37.1134 41.1444 36.2963 41.4281 35.4482 41.5655C32.9823 41.965 29.2399 40.8333 27.0367 40.2262ZM25.971 32.3396C27.4872 32.8646 29.2258 33.4452 31.0277 33.8964V22.1775C33.3799 21.2239 35.0317 18.9802 35.0316 16.364C35.0316 13.9712 33.6496 11.89 31.614 10.8225C31.5396 10.7834 31.4495 10.8352 31.4495 10.917V17.0765L28.4994 18.7202L25.5492 17.0766L25.5493 10.9171C25.5493 10.8353 25.4592 10.7837 25.3848 10.8226C23.3492 11.8901 21.9672 13.9713 21.9672 16.3642C21.9671 18.9803 23.6189 21.224 25.9711 22.1777L25.971 32.3396Z" fill="#F5FAFE"/>
</svg>
