<svg width="146" height="60" viewBox="0 0 146 60" fill="none" xmlns="http://www.w3.org/2000/svg">
<g clip-path="url(#clip0_18873_2303)">
<path d="M0 4C0 1.79086 1.79086 0 4 0H142C144.209 0 146 1.79086 146 4V56C146 58.2091 144.209 60 142 60H4C1.79086 60 0 58.2091 0 56V4Z" fill="#1B275F"/>
<rect width="93" height="62" transform="translate(58)" fill="white"/>
<path d="M70.7216 24V12.3636H74.6534C75.5625 12.3636 76.3087 12.5189 76.892 12.8295C77.4754 13.1364 77.9072 13.5587 78.1875 14.0966C78.4678 14.6345 78.608 15.2462 78.608 15.9318C78.608 16.6174 78.4678 17.2254 78.1875 17.7557C77.9072 18.286 77.4773 18.7027 76.8977 19.0057C76.3182 19.3049 75.5777 19.4545 74.6761 19.4545H71.4943V18.1818H74.6307C75.2519 18.1818 75.7519 18.0909 76.1307 17.9091C76.5133 17.7273 76.7898 17.4697 76.9602 17.1364C77.1345 16.7992 77.2216 16.3977 77.2216 15.9318C77.2216 15.4659 77.1345 15.0587 76.9602 14.7102C76.786 14.3617 76.5076 14.0928 76.125 13.9034C75.7424 13.7102 75.2367 13.6136 74.608 13.6136H72.1307V24H70.7216ZM76.1989 18.7727L79.0625 24H77.4261L74.608 18.7727H76.1989Z" fill="#1B1D1E"/>
<path d="M83.3423 24.2045C82.7893 24.2045 82.2874 24.1004 81.8366 23.892C81.3859 23.6799 81.0279 23.375 80.7628 22.9773C80.4976 22.5758 80.3651 22.0909 80.3651 21.5227C80.3651 21.0227 80.4635 20.6174 80.6605 20.3068C80.8575 19.9924 81.1207 19.7462 81.4503 19.5682C81.7798 19.3902 82.1435 19.2576 82.5412 19.1705C82.9427 19.0795 83.3461 19.0076 83.7514 18.9545C84.2817 18.8864 84.7116 18.8352 85.0412 18.8011C85.3745 18.7633 85.6169 18.7008 85.7685 18.6136C85.9238 18.5265 86.0014 18.375 86.0014 18.1591V18.1136C86.0014 17.553 85.848 17.1174 85.5412 16.8068C85.2382 16.4962 84.7779 16.3409 84.1605 16.3409C83.5204 16.3409 83.0185 16.4811 82.6548 16.7614C82.2912 17.0417 82.0355 17.3409 81.8878 17.6591L80.6151 17.2045C80.8423 16.6742 81.1454 16.2614 81.5241 15.9659C81.9067 15.6667 82.3234 15.4583 82.7741 15.3409C83.2287 15.2197 83.6757 15.1591 84.1151 15.1591C84.3954 15.1591 84.7173 15.1932 85.081 15.2614C85.4484 15.3258 85.8026 15.4602 86.1435 15.6648C86.4882 15.8693 86.7741 16.178 87.0014 16.5909C87.2287 17.0038 87.3423 17.5568 87.3423 18.25V24H86.0014V22.8182H85.9332C85.8423 23.0076 85.6908 23.2102 85.4787 23.4261C85.2666 23.642 84.9844 23.8258 84.6321 23.9773C84.2798 24.1288 83.8499 24.2045 83.3423 24.2045ZM83.5469 23C84.0772 23 84.5241 22.8958 84.8878 22.6875C85.2552 22.4792 85.5317 22.2102 85.7173 21.8807C85.9067 21.5511 86.0014 21.2045 86.0014 20.8409V19.6136C85.9446 19.6818 85.8196 19.7443 85.6264 19.8011C85.437 19.8542 85.2173 19.9015 84.9673 19.9432C84.7211 19.9811 84.4806 20.0152 84.2457 20.0455C84.0147 20.072 83.8272 20.0947 83.6832 20.1136C83.3348 20.1591 83.009 20.233 82.706 20.3352C82.4067 20.4337 82.1643 20.5833 81.9787 20.7841C81.7969 20.9811 81.706 21.25 81.706 21.5909C81.706 22.0568 81.8783 22.4091 82.223 22.6477C82.5715 22.8826 83.0128 23 83.5469 23Z" fill="#1B1D1E"/>
<path d="M93.5852 15.2727V16.4091H89.0625V15.2727H93.5852ZM90.3807 13.1818H91.7216V21.5C91.7216 21.8788 91.7765 22.1629 91.8864 22.3523C92 22.5379 92.1439 22.6629 92.3182 22.7273C92.4962 22.7879 92.6837 22.8182 92.8807 22.8182C93.0284 22.8182 93.1496 22.8106 93.2443 22.7955C93.339 22.7765 93.4148 22.7614 93.4716 22.75L93.7443 23.9545C93.6534 23.9886 93.5265 24.0227 93.3636 24.0568C93.2008 24.0947 92.9943 24.1136 92.7443 24.1136C92.3655 24.1136 91.9943 24.0322 91.6307 23.8693C91.2708 23.7064 90.9716 23.4583 90.733 23.125C90.4981 22.7917 90.3807 22.3712 90.3807 21.8636V13.1818Z" fill="#1B1D1E"/>
<path d="M95.6023 24V15.2727H96.9432V24H95.6023ZM96.2841 13.8182C96.0227 13.8182 95.7973 13.7292 95.608 13.5511C95.4223 13.3731 95.3295 13.1591 95.3295 12.9091C95.3295 12.6591 95.4223 12.4451 95.608 12.267C95.7973 12.089 96.0227 12 96.2841 12C96.5455 12 96.7689 12.089 96.9545 12.267C97.1439 12.4451 97.2386 12.6591 97.2386 12.9091C97.2386 13.1591 97.1439 13.3731 96.9545 13.5511C96.7689 13.7292 96.5455 13.8182 96.2841 13.8182Z" fill="#1B1D1E"/>
<path d="M100.74 18.75V24H99.3991V15.2727H100.695V16.6364H100.808C101.013 16.1932 101.323 15.8371 101.74 15.5682C102.157 15.2955 102.695 15.1591 103.354 15.1591C103.945 15.1591 104.462 15.2803 104.905 15.5227C105.348 15.7614 105.693 16.125 105.939 16.6136C106.185 17.0985 106.308 17.7121 106.308 18.4545V24H104.967V18.5455C104.967 17.8598 104.789 17.3258 104.433 16.9432C104.077 16.5568 103.589 16.3636 102.967 16.3636C102.539 16.3636 102.157 16.4564 101.82 16.642C101.486 16.8277 101.223 17.0985 101.03 17.4545C100.837 17.8106 100.74 18.2424 100.74 18.75Z" fill="#1B1D1E"/>
<path d="M112.281 27.4545C111.634 27.4545 111.077 27.3712 110.611 27.2045C110.145 27.0417 109.757 26.8258 109.446 26.5568C109.139 26.2917 108.895 26.0076 108.713 25.7045L109.781 24.9545C109.902 25.1136 110.056 25.2955 110.241 25.5C110.427 25.7083 110.681 25.8883 111.003 26.0398C111.329 26.1951 111.755 26.2727 112.281 26.2727C112.986 26.2727 113.567 26.1023 114.026 25.7614C114.484 25.4205 114.713 24.8864 114.713 24.1591V22.3864H114.599C114.501 22.5455 114.361 22.7424 114.179 22.9773C114.001 23.2083 113.743 23.4148 113.406 23.5966C113.073 23.7746 112.622 23.8636 112.054 23.8636C111.349 23.8636 110.717 23.697 110.156 23.3636C109.599 23.0303 109.158 22.5455 108.832 21.9091C108.51 21.2727 108.349 20.5 108.349 19.5909C108.349 18.697 108.507 17.9186 108.821 17.2557C109.135 16.589 109.573 16.0739 110.134 15.7102C110.694 15.3428 111.342 15.1591 112.077 15.1591C112.645 15.1591 113.096 15.2538 113.429 15.4432C113.766 15.6288 114.024 15.8409 114.202 16.0795C114.384 16.3144 114.524 16.5076 114.622 16.6591H114.759V15.2727H116.054V24.25C116.054 25 115.884 25.6098 115.543 26.0795C115.205 26.553 114.751 26.8996 114.179 27.1193C113.611 27.3428 112.978 27.4545 112.281 27.4545ZM112.236 22.6591C112.774 22.6591 113.228 22.536 113.599 22.2898C113.971 22.0436 114.253 21.6894 114.446 21.2273C114.639 20.7652 114.736 20.2121 114.736 19.5682C114.736 18.9394 114.641 18.3845 114.452 17.9034C114.262 17.4223 113.982 17.0455 113.611 16.7727C113.24 16.5 112.781 16.3636 112.236 16.3636C111.668 16.3636 111.194 16.5076 110.815 16.7955C110.44 17.0833 110.158 17.4697 109.969 17.9545C109.783 18.4394 109.69 18.9773 109.69 19.5682C109.69 20.1742 109.785 20.7102 109.974 21.1761C110.168 21.6383 110.452 22.0019 110.827 22.267C111.205 22.5284 111.675 22.6591 112.236 22.6591Z" fill="#1B1D1E"/>
<path d="M126.554 24.1818C125.766 24.1818 125.075 23.9943 124.48 23.6193C123.889 23.2443 123.427 22.7197 123.094 22.0455C122.764 21.3712 122.599 20.5833 122.599 19.6818C122.599 18.7727 122.764 17.9792 123.094 17.3011C123.427 16.6231 123.889 16.0966 124.48 15.7216C125.075 15.3466 125.766 15.1591 126.554 15.1591C127.342 15.1591 128.031 15.3466 128.622 15.7216C129.217 16.0966 129.679 16.6231 130.009 17.3011C130.342 17.9792 130.509 18.7727 130.509 19.6818C130.509 20.5833 130.342 21.3712 130.009 22.0455C129.679 22.7197 129.217 23.2443 128.622 23.6193C128.031 23.9943 127.342 24.1818 126.554 24.1818ZM126.554 22.9773C127.152 22.9773 127.645 22.8239 128.031 22.517C128.418 22.2102 128.704 21.8068 128.889 21.3068C129.075 20.8068 129.168 20.2652 129.168 19.6818C129.168 19.0985 129.075 18.5549 128.889 18.0511C128.704 17.5473 128.418 17.1402 128.031 16.8295C127.645 16.5189 127.152 16.3636 126.554 16.3636C125.955 16.3636 125.463 16.5189 125.077 16.8295C124.69 17.1402 124.404 17.5473 124.219 18.0511C124.033 18.5549 123.94 19.0985 123.94 19.6818C123.94 20.2652 124.033 20.8068 124.219 21.3068C124.404 21.8068 124.69 22.2102 125.077 22.517C125.463 22.8239 125.955 22.9773 126.554 22.9773Z" fill="#1B1D1E"/>
<path d="M133.896 18.75V24H132.555V15.2727H133.851V16.6364H133.964C134.169 16.1932 134.48 15.8371 134.896 15.5682C135.313 15.2955 135.851 15.1591 136.51 15.1591C137.101 15.1591 137.618 15.2803 138.061 15.5227C138.504 15.7614 138.849 16.125 139.095 16.6136C139.341 17.0985 139.464 17.7121 139.464 18.4545V24H138.124V18.5455C138.124 17.8598 137.946 17.3258 137.589 16.9432C137.233 16.5568 136.745 16.3636 136.124 16.3636C135.696 16.3636 135.313 16.4564 134.976 16.642C134.643 16.8277 134.379 17.0985 134.186 17.4545C133.993 17.8106 133.896 18.2424 133.896 18.75Z" fill="#1B1D1E"/>
<path d="M87.2002 31H90.4202V50.4961H87.2002V31Z" fill="#1B1D1E"/>
<path d="M101.621 44.3178C101.621 47.3383 99.1008 47.613 98.2608 47.613C96.3008 47.613 96.0208 45.8281 96.0208 44.867V37.3157H92.8008V44.7297C92.8008 46.5146 93.3608 48.1622 94.4808 49.1232C95.4608 50.0842 96.7208 50.4962 98.2608 50.4962C99.3808 50.4962 100.781 50.2216 101.621 49.3978V50.4962H104.841V37.3157H101.621V44.3178Z" fill="#1B1D1E"/>
<path d="M111.14 32.511H107.92V37.3164H105.54V40.3369H107.92V50.4969H111.14V40.3369H113.52V37.3164H111.14V32.511Z" fill="#1B1D1E"/>
<path d="M123.6 46.514C122.9 47.0632 121.92 47.475 120.94 47.475C118.7 47.475 117.16 45.8275 117.16 43.6307C117.16 41.434 118.7 39.9237 120.94 39.9237C121.92 39.9237 122.9 40.1983 123.6 40.8848L124.02 41.2966L126.26 39.2372L125.7 38.8253C124.44 37.727 122.76 37.0405 120.94 37.0405C117.02 37.0405 114.08 39.9237 114.08 43.768C114.08 47.6124 117.02 50.4955 120.94 50.4955C122.76 50.4955 124.44 49.8091 125.7 48.7107L126.26 48.2988L124.02 46.1021L123.6 46.514Z" fill="#1B1D1E"/>
<path d="M137.6 38.414C136.62 37.4529 135.64 37.0411 134.1 37.0411C132.98 37.0411 131.86 37.3156 131.02 38.1394V31H127.8V50.4961H131.02V43.2194C131.02 40.1989 133.12 39.9243 133.96 39.9243C135.92 39.9243 135.78 41.7092 135.78 42.6702V50.3588H139V42.8075C139 41.0226 138.58 39.3751 137.6 38.414Z" fill="#1B1D1E"/>
<path d="M120.801 45.9653C122.038 45.9653 123.041 44.9817 123.041 43.7685C123.041 42.5553 122.038 41.5717 120.801 41.5717C119.563 41.5717 118.561 42.5553 118.561 43.7685C118.561 44.9817 119.563 45.9653 120.801 45.9653Z" fill="#EF4335"/>
<path d="M82.72 45.6912C81.6 46.7895 79.92 47.4761 78.1 47.4761C74.6 47.4761 72.08 44.7301 72.08 41.0231C72.08 37.3161 74.6 34.5702 78.24 34.5702C79.92 34.5702 81.6 35.2566 82.86 36.4923L83.28 36.9042L85.38 34.8447L84.96 34.4329C83.14 32.648 80.76 31.6869 78.24 31.6869C72.92 31.5496 69 35.6685 69 41.0231C69 46.3776 72.92 50.4965 78.1 50.4965C80.62 50.4965 83.14 49.5355 84.82 47.7506L85.24 47.3387L83.14 45.2793L82.72 45.6912Z" fill="#1B1D1E"/>
<path d="M38.5808 42.8026C36.8242 42.8026 35.2581 42.4794 33.8826 41.8331C32.5154 41.1868 31.43 40.296 30.6262 39.1609C29.8225 38.0257 29.4041 36.7248 29.3709 35.2582H34.5911C34.6491 36.2442 35.0634 37.0438 35.834 37.657C36.6046 38.2701 37.5202 38.5767 38.5808 38.5767C39.426 38.5767 40.1717 38.3903 40.818 38.0174C41.4726 37.6362 41.9822 37.1101 42.3468 36.4389C42.7196 35.7595 42.9061 34.9806 42.9061 34.1023C42.9061 33.2074 42.7155 32.4202 42.3343 31.7408C41.9615 31.0613 41.4436 30.531 40.7807 30.1499C40.1178 29.7687 39.3597 29.574 38.5062 29.5657C37.7605 29.5657 37.0355 29.719 36.3311 30.0256C35.6351 30.3321 35.0924 30.7506 34.7029 31.2809L29.9178 30.4233L31.1234 17H46.6845V21.3999H35.5605L34.9018 27.7759H35.051C35.4984 27.1462 36.1737 26.6242 37.0769 26.2099C37.9801 25.7956 38.9909 25.5884 40.1096 25.5884C41.6425 25.5884 43.0096 25.9489 44.2111 26.6697C45.4126 27.3906 46.3613 28.3808 47.0574 29.6403C47.7534 30.8915 48.0972 32.3332 48.089 33.9656C48.0972 35.6808 47.6995 37.2054 46.8958 38.5394C46.1003 39.8652 44.9859 40.9092 43.5524 41.6715C42.1272 42.4255 40.47 42.8026 38.5808 42.8026Z" fill="white"/>
<path d="M25.9449 25.8602C25.8181 25.4826 25.4913 25.2074 25.0979 25.1472L20.5188 24.4475L18.462 20.0658C18.2866 19.6923 17.9118 19.4545 17.5 19.4545C17.0879 19.4545 16.7134 19.6923 16.538 20.0658L14.4809 24.4477L9.90183 25.1475C9.50839 25.2077 9.1816 25.4826 9.05504 25.8604C8.92848 26.2382 9.02401 26.6544 9.30222 26.9399L12.6462 30.369L11.8542 35.2202C11.7889 35.6218 11.9592 36.0255 12.2913 36.2603C12.6233 36.495 13.0615 36.5188 13.4185 36.3218L17.5003 34.0644L21.582 36.3218C21.7431 36.4108 21.9204 36.4545 22.0969 36.4545C22.3117 36.4545 22.5265 36.3892 22.7092 36.2603C23.0414 36.0257 23.2114 35.622 23.1461 35.2202L22.3541 30.369L25.6983 26.9399C25.976 26.6544 26.0715 26.2382 25.9449 25.8602Z" fill="#FFD651"/>
</g>
<defs>
<clipPath id="clip0_18873_2303">
<path d="M0 4C0 1.79086 1.79086 0 4 0H142C144.209 0 146 1.79086 146 4V56C146 58.2091 144.209 60 142 60H4C1.79086 60 0 58.2091 0 56V4Z" fill="white"/>
</clipPath>
</defs>
</svg>
