<svg width="50" height="50" viewBox="0 0 50 50" fill="none" xmlns="http://www.w3.org/2000/svg">
<rect width="50" height="50" rx="12" fill="#45D1FD"/>
<mask id="mask0_16434_5329" style="mask-type:luminance" maskUnits="userSpaceOnUse" x="11" y="10" width="25" height="30">
<path d="M35.2045 23.8755L27.3538 31.729L35.2045 39.5826H26.2335L18.3799 31.729L26.2335 23.8755H35.2045ZM26.2335 10.4175L11.6523 24.9986L16.1393 29.4856L35.2045 10.4175H26.2335V10.4175Z" fill="white"/>
</mask>
<g mask="url(#mask0_16434_5329)">
<path d="M18.3828 31.729L22.8669 36.216L35.2046 23.8755H26.2335L18.3828 31.729Z" fill="#39CEFD"/>
</g>
<mask id="mask1_16434_5329" style="mask-type:luminance" maskUnits="userSpaceOnUse" x="11" y="10" width="25" height="30">
<path d="M35.2045 23.8755L27.3538 31.729L35.2045 39.5826H26.2335L18.3799 31.729L26.2335 23.8755H35.2045ZM26.2335 10.4175L11.6523 24.9986L16.1393 29.4856L35.2045 10.4175H26.2335V10.4175Z" fill="white"/>
</mask>
<g mask="url(#mask1_16434_5329)">
<path d="M26.2335 10.4175H35.2045L16.1393 29.4856L11.6523 24.9986L26.2335 10.4175Z" fill="#39CEFD"/>
</g>
<mask id="mask2_16434_5329" style="mask-type:luminance" maskUnits="userSpaceOnUse" x="11" y="10" width="25" height="30">
<path d="M35.2045 23.8755L27.3538 31.729L35.2045 39.5826H26.2335L18.3799 31.729L26.2335 23.8755H35.2045ZM26.2335 10.4175L11.6523 24.9986L16.1393 29.4856L35.2045 10.4175H26.2335V10.4175Z" fill="white"/>
</mask>
<g mask="url(#mask2_16434_5329)">
<path d="M22.8672 36.2159L26.2338 39.5797H35.2049L27.3541 31.729L22.8672 36.2159Z" fill="#03569B"/>
</g>
<mask id="mask3_16434_5329" style="mask-type:luminance" maskUnits="userSpaceOnUse" x="11" y="10" width="25" height="30">
<path d="M35.2045 23.8755L27.3538 31.729L35.2045 39.5826H26.2335L18.3799 31.729L26.2335 23.8755H35.2045ZM26.2335 10.4175L11.6523 24.9986L16.1393 29.4856L35.2045 10.4175H26.2335V10.4175Z" fill="white"/>
</mask>
<g mask="url(#mask3_16434_5329)">
<path d="M29.5218 33.9107L27.3541 31.729L22.8672 36.2159L29.5218 33.9107Z" fill="url(#paint0_linear_16434_5329)"/>
</g>
<mask id="mask4_16434_5329" style="mask-type:luminance" maskUnits="userSpaceOnUse" x="11" y="10" width="25" height="30">
<path d="M35.2045 23.8755L27.3538 31.729L35.2045 39.5826H26.2335L18.3799 31.729L26.2335 23.8755H35.2045ZM26.2335 10.4175L11.6523 24.9986L16.1393 29.4856L35.2045 10.4175H26.2335V10.4175Z" fill="white"/>
</mask>
<g mask="url(#mask4_16434_5329)">
<path d="M18.3818 31.7276L22.8689 27.2405L27.3562 31.7276L22.8689 36.2146L18.3818 31.7276Z" fill="#16B9FD"/>
</g>
<path d="M35.2045 23.8755L27.3538 31.729L35.2045 39.5826H26.2335L18.3799 31.729L26.2335 23.8755H35.2045ZM26.2335 10.4175L11.6523 24.9986L16.1393 29.4856L35.2045 10.4175H26.2335Z" fill="white"/>
<defs>
<linearGradient id="paint0_linear_16434_5329" x1="24.1766" y1="37.0819" x2="27.5184" y2="33.7401" gradientUnits="userSpaceOnUse">
<stop stop-color="#1A237E" stop-opacity="0.4"/>
<stop offset="1" stop-color="#1A237E" stop-opacity="0"/>
</linearGradient>
</defs>
</svg>
