<svg width="50" height="50" viewBox="0 0 50 50" fill="none" xmlns="http://www.w3.org/2000/svg">
<rect width="50" height="50" rx="12" fill="#2DBCAF"/>
<path d="M9.09056 22.2388C9.01758 22.2388 8.99933 22.2023 9.03582 22.1476L9.41898 21.6549C9.45548 21.6002 9.5467 21.5637 9.61969 21.5637H16.1334C16.2064 21.5637 16.2246 21.6185 16.1882 21.6732L15.878 22.1476C15.8415 22.2023 15.7503 22.2571 15.6955 22.2571L9.09056 22.2388Z" fill="white"/>
<path d="M6.33568 23.9173C6.2627 23.9173 6.24445 23.8808 6.28094 23.8261L6.6641 23.3334C6.70059 23.2787 6.79182 23.2422 6.86481 23.2422H15.1849C15.2578 23.2422 15.2943 23.2969 15.2761 23.3517L15.1301 23.7896C15.1119 23.8625 15.0389 23.899 14.9659 23.899L6.33568 23.9173Z" fill="white"/>
<path d="M10.7507 25.5957C10.6777 25.5957 10.6595 25.541 10.696 25.4863L10.9514 25.0301C10.9879 24.9754 11.0609 24.9207 11.1339 24.9207H14.783C14.856 24.9207 14.8925 24.9754 14.8925 25.0484L14.856 25.4863C14.856 25.5593 14.783 25.614 14.7283 25.614L10.7507 25.5957Z" fill="white"/>
<path d="M29.6899 21.9104C28.5404 22.2023 27.7558 22.4212 26.6246 22.7132C26.3509 22.7862 26.3327 22.8044 26.0955 22.5307C25.8218 22.2205 25.6211 22.0198 25.2379 21.8374C24.0884 21.2718 22.9754 21.436 21.9354 22.1111C20.6947 22.9139 20.0561 24.0999 20.0744 25.5778C20.0926 27.0374 21.0961 28.2416 22.5375 28.4423C23.7782 28.6066 24.8183 28.1687 25.6393 27.2381C25.8035 27.0374 25.9495 26.8185 26.132 26.563C25.4751 26.563 24.654 26.563 22.6105 26.563C22.2274 26.563 22.1361 26.3258 22.2639 26.0157C22.501 25.45 22.9389 24.5013 23.1944 24.0269C23.2491 23.9174 23.3768 23.7349 23.6505 23.7349C24.5811 23.7349 28.0113 23.7349 30.292 23.7349C30.2555 24.2276 30.2555 24.7202 30.1825 25.2128C29.9818 26.5265 29.4892 27.7308 28.6864 28.789C27.3727 30.5224 25.6576 31.5989 23.4863 31.8908C21.6982 32.128 20.0379 31.7813 18.5782 30.6866C17.228 29.6648 16.4617 28.3146 16.261 26.636C16.0238 24.6472 16.6077 22.8591 17.8119 21.29C19.1073 19.5932 20.8224 18.5167 22.9207 18.1335C24.6358 17.8233 26.2779 18.024 27.7558 19.0275C28.7228 19.6661 29.4162 20.5419 29.8723 21.6002C29.9818 21.7644 29.9088 21.8556 29.6899 21.9104Z" fill="white"/>
<path d="M35.7292 32.0003C34.0689 31.9638 32.5545 31.4894 31.2773 30.3946C30.2008 29.4641 29.5257 28.2781 29.3067 26.8732C28.9783 24.8114 29.5439 22.9869 30.7846 21.363C32.1166 19.6114 33.7222 18.6991 35.8934 18.3159C37.7545 17.9875 39.5061 18.17 41.0935 19.2465C42.5349 20.2317 43.4289 21.5637 43.6661 23.3153C43.9763 25.7785 43.2647 27.7855 41.5679 29.5006C40.3637 30.7231 38.8858 31.4894 37.1889 31.836C36.6963 31.9273 36.2036 31.9455 35.7292 32.0003ZM40.0717 24.629C40.0535 24.3918 40.0535 24.2093 40.017 24.0269C39.6886 22.2205 38.0282 21.1988 36.2949 21.6002C34.598 21.9833 33.5033 23.0598 33.1018 24.7749C32.7734 26.1981 33.4668 27.6395 34.7805 28.2234C35.784 28.6613 36.7875 28.6065 37.7545 28.1139C39.1959 27.3658 39.9805 26.1981 40.0717 24.629Z" fill="white"/>
</svg>
