<svg width="50" height="50" viewBox="0 0 50 50" fill="none" xmlns="http://www.w3.org/2000/svg">
<rect width="50" height="50" rx="12" fill="#655AB9"/>
<path fill-rule="evenodd" clip-rule="evenodd" d="M24.1299 27.7881H25.8694H33.117C35.0384 27.7881 36.5959 26.29 36.5959 24.4419C36.5959 22.594 35.0384 21.0958 33.117 21.0958C35.0384 21.0958 36.5959 19.5977 36.5959 17.7497C36.5959 15.9017 35.0384 14.4036 33.117 14.4036H16.8822C14.9609 14.4036 13.4033 15.9017 13.4033 17.7497C13.4033 19.5977 14.9609 21.0958 16.8822 21.0958C14.9609 21.0958 13.4033 22.594 13.4033 24.4419C13.4033 26.29 14.9609 27.7881 16.8822 27.7881H24.1299ZM26.1592 16.9132C25.6789 16.9132 25.2894 17.2877 25.2894 17.7497C25.2894 18.2117 25.6789 18.5862 26.1592 18.5862H33.117C33.5973 18.5862 33.9867 18.2117 33.9867 17.7497C33.9867 17.2877 33.5973 16.9132 33.117 16.9132H26.1592ZM26.1592 23.6055C25.6789 23.6055 25.2894 23.98 25.2894 24.4419C25.2894 24.9039 25.6789 25.2785 26.1592 25.2785H33.117C33.5973 25.2785 33.9867 24.9039 33.9867 24.4419C33.9867 23.98 33.5973 23.6055 33.117 23.6055H26.1592ZM19.2015 17.7497C19.2015 18.3657 18.6823 18.8651 18.0418 18.8651C17.4014 18.8651 16.8822 18.3657 16.8822 17.7497C16.8822 17.1337 17.4014 16.6343 18.0418 16.6343C18.6823 16.6343 19.2015 17.1337 19.2015 17.7497ZM19.2015 24.4419C19.2015 25.058 18.6823 25.5574 18.0418 25.5574C17.4014 25.5574 16.8822 25.058 16.8822 24.4419C16.8822 23.826 17.4014 23.3266 18.0418 23.3266C18.6823 23.3266 19.2015 23.826 19.2015 24.4419Z" fill="white"/>
<path opacity="0.6" d="M37.4662 33.3655C37.4662 32.9035 37.0768 32.5289 36.5964 32.5289H27.1508C26.9155 31.9698 26.4512 31.5233 25.8699 31.2969V27.7886H24.1304V31.2969C23.5491 31.5233 23.0849 31.9698 22.8496 32.5289H13.4039C12.9236 32.5289 12.5342 32.9035 12.5342 33.3655C12.5342 33.8275 12.9236 34.202 13.4039 34.202H22.8496C23.1936 35.0195 24.0268 35.5963 25.0002 35.5963C25.9735 35.5963 26.8068 35.0195 27.1508 34.202H36.5964C37.0768 34.202 37.4662 33.8275 37.4662 33.3655Z" fill="white"/>
</svg>
