<svg width="50" height="50" viewBox="0 0 50 50" fill="none" xmlns="http://www.w3.org/2000/svg">
<rect width="50" height="50" rx="12" fill="#689F63"/>
<path d="M24.3992 40.2566C23.9905 40.2566 23.5847 40.1494 23.2265 39.9432L19.4937 37.7333C18.9362 37.4215 19.2083 37.3112 19.3921 37.2477C20.1355 36.9874 20.2864 36.9286 21.0798 36.478C21.1632 36.4304 21.2724 36.4472 21.3577 36.4976L24.2253 38.1993C24.3289 38.2552 24.4758 38.2552 24.5718 38.1993L35.7529 31.7453C35.8565 31.6865 35.9237 31.5662 35.9237 31.443V18.5407C35.9237 18.4119 35.8565 18.2972 35.7507 18.2328L24.5741 11.7844C24.4705 11.7228 24.3334 11.7228 24.2298 11.7844L13.0554 18.2328C12.9471 18.2944 12.8783 18.4147 12.8783 18.5379V31.4402C12.8783 31.5634 12.9454 31.6809 13.0518 31.7397L16.1137 33.5085C17.7761 34.3397 18.7921 33.3602 18.7921 32.375V19.6406C18.7921 19.4587 18.9348 19.3187 19.1167 19.3187H20.5329C20.7092 19.3187 20.8548 19.4587 20.8548 19.6406V32.3806C20.8548 34.5972 19.6457 35.8707 17.5438 35.8707C16.8973 35.8707 16.3879 35.8707 14.9662 35.171L12.033 33.4805C11.3082 33.0607 10.8604 32.277 10.8604 31.4402V18.5379C10.8604 17.6982 11.3082 16.9146 12.033 16.5003L23.2253 10.0436C23.9334 9.64335 24.8738 9.64335 25.5763 10.0436L36.7546 16.5032C37.4767 16.9202 37.9273 17.701 37.9273 18.5407V31.443C37.9273 32.2798 37.4767 33.0607 36.7546 33.4805L25.5763 39.9373C25.2181 40.1444 24.8123 40.2508 24.398 40.2508" fill="white"/>
<path d="M27.8536 31.3659C22.9613 31.3659 21.9355 29.1201 21.9355 27.2366C21.9355 27.0574 22.08 26.9147 22.2594 26.9147H23.7035C23.8631 26.9147 23.9974 27.0309 24.0226 27.1884C24.2409 28.66 24.8902 29.4023 27.8485 29.4023C30.2051 29.4023 31.2071 28.8699 31.2071 27.6203C31.2071 26.901 30.9216 26.3664 27.2608 26.0082C24.1989 25.7059 22.3069 25.0314 22.3069 22.5825C22.3069 20.3267 24.2101 18.9833 27.3979 18.9833C30.9776 18.9833 32.752 20.2259 32.9759 22.8959C32.9843 22.9883 32.9507 23.0779 32.8891 23.145C32.8275 23.2094 32.7408 23.2486 32.6512 23.2486H31.1987C31.0475 23.2486 30.916 23.1422 30.8852 22.9967C30.5353 21.449 29.6901 20.9536 27.3923 20.9536C24.8202 20.9536 24.5208 21.8492 24.5208 22.5209C24.5208 23.3354 24.8734 23.5732 28.3439 24.0322C31.7808 24.4884 33.4125 25.1322 33.4125 27.5475C33.4125 29.9824 31.3806 31.379 27.8373 31.379M41.4562 17.6958H41.8312C42.1391 17.6958 42.1978 17.4803 42.1978 17.3544C42.1978 17.0241 41.9711 17.0241 41.8452 17.0241H41.459L41.4562 17.6958ZM41 16.6379H41.8312C42.1167 16.6379 42.6764 16.6379 42.6764 17.276C42.6764 17.721 42.391 17.8134 42.2202 17.8693C42.5533 17.8917 42.5757 18.11 42.6205 18.4179C42.6428 18.611 42.6792 18.9441 42.7464 19.056H42.2342C42.2202 18.9441 42.1419 18.3283 42.1419 18.2948C42.1083 18.1576 42.0607 18.0904 41.89 18.0904H41.4674V19.0588H41V16.6379ZM40.0008 17.8414C40.0008 18.8433 40.8097 19.655 41.8032 19.655C42.8052 19.655 43.614 18.8265 43.614 17.8414C43.614 16.8366 42.794 16.0389 41.8004 16.0389C40.8208 16.0389 39.998 16.8254 39.998 17.8386M43.9611 17.847C43.9611 19.0336 42.9899 20.002 41.806 20.002C40.6305 20.002 39.651 19.0448 39.651 17.847C39.651 16.6267 40.6529 15.6919 41.806 15.6919C42.9675 15.6919 43.9583 16.6295 43.9583 17.847" fill="white"/>
</svg>
