<svg width="50" height="50" viewBox="0 0 50 50" fill="none" xmlns="http://www.w3.org/2000/svg">
<rect width="50" height="50" rx="12" fill="#8892BF"/>
<path d="M22.6762 16.0679H25.1773L24.4704 19.8256H26.7178C27.9502 19.852 28.8683 20.1274 29.4726 20.652C30.0888 21.1765 30.2701 22.1736 30.0164 23.6425L28.8021 30.194H26.2647L27.4246 23.9376C27.5453 23.2816 27.5091 22.8161 27.3159 22.5407C27.1227 22.2653 26.7058 22.1276 26.0654 22.1276L24.0536 22.108L22.5674 30.194H20.0664L22.6762 16.0679Z" fill="white"/>
<path fill-rule="evenodd" clip-rule="evenodd" d="M11.2157 19.8257H16.0729C17.4984 19.8386 18.5316 20.2848 19.172 21.1634C19.8125 22.0422 20.0239 23.2422 19.8064 24.7638C19.722 25.4592 19.5345 26.141 19.2445 26.8101C18.9666 27.4789 18.5801 28.0821 18.0847 28.62C17.4804 29.302 16.834 29.7347 16.1454 29.9186C15.4567 30.1023 14.7437 30.194 14.0068 30.194H11.8319L11.1432 33.9321H8.62402L11.2157 19.8257ZM12.2488 27.9708L13.3326 22.0882H13.6987C13.8317 22.0882 13.9705 22.0815 14.1155 22.0686C15.0822 22.0555 15.8855 22.1539 16.526 22.3636C17.1784 22.5734 17.3959 23.367 17.1784 24.7442C16.9128 26.3838 16.3929 27.3412 15.6198 27.6166C14.8466 27.8791 13.8799 28.0035 12.72 27.9904H12.4663C12.3938 27.9904 12.3213 27.9837 12.2488 27.9708Z" fill="white"/>
<path fill-rule="evenodd" clip-rule="evenodd" d="M37.5592 19.8257H32.702L30.1104 33.9321H32.6295L33.3183 30.194H35.4932C36.2301 30.194 36.943 30.1023 37.6317 29.9186C38.3205 29.7347 38.9668 29.302 39.571 28.62C40.0665 28.0821 40.4529 27.4789 40.7309 26.8101C41.0209 26.141 41.2083 25.4592 41.2927 24.7638C41.5102 23.2422 41.2989 22.0422 40.6584 21.1634C40.0179 20.2848 38.9849 19.8386 37.5592 19.8257ZM34.819 22.0882L33.7352 27.9708C33.8077 27.9837 33.8802 27.9904 33.9527 27.9904H34.2064C35.3663 28.0035 36.333 27.8791 37.1062 27.6166C37.8793 27.3412 38.3991 26.3838 38.6648 24.7442C38.8823 23.367 38.6649 22.5734 38.0124 22.3636C37.3719 22.1539 36.5686 22.0555 35.6019 22.0686C35.4569 22.0815 35.3181 22.0882 35.185 22.0882H34.819Z" fill="white"/>
</svg>
