<svg width="50" height="50" viewBox="0 0 50 50" fill="none" xmlns="http://www.w3.org/2000/svg">
<rect width="50" height="50" rx="12" fill="#4A4A4A"/>
<path d="M24.9406 7.51831C16.6859 7.51831 16.5972 10.7225 16.5972 11.382C16.5972 12.3826 16.5972 15.385 16.5972 15.385H25.0996V16.5868C25.0996 16.5868 16.2469 16.5868 13.2201 16.5868C10.6935 16.5868 7.51855 18.1229 7.51855 24.9302C7.51855 31.1832 9.99521 33.6014 12.4947 33.6014C13.2369 33.6014 15.4647 33.6014 15.4647 33.6014C15.4647 33.6014 15.4647 30.4976 15.4647 29.4296C15.4647 27.6844 16.3296 24.4535 20.3614 24.4535C25.4184 24.4535 26.7091 24.4535 28.7942 24.4535C30.0344 24.4535 33.532 23.9144 33.532 19.8746C33.532 15.5989 33.532 14.1883 33.532 12.1767C33.5323 11.1745 33.361 7.51831 24.9406 7.51831ZM20.2524 10.2101C21.0985 10.2101 21.7822 10.8935 21.7822 11.7399C21.7822 12.5857 21.0985 13.2697 20.2524 13.2697C19.4063 13.2697 18.7226 12.586 18.7226 11.7399C18.7226 10.8935 19.4063 10.2101 20.2524 10.2101Z" fill="#387EB8"/>
<path d="M25.0595 42.4813C33.3104 42.4813 33.4131 39.2167 33.4131 38.6175C33.4131 37.6169 33.4131 34.6146 33.4131 34.6146H24.9005V33.4128C24.9005 33.4128 33.8104 33.4128 36.78 33.4128C39.3257 33.4128 42.4815 31.8382 42.4815 25.0693C42.4815 17.6565 39.1321 16.3982 37.5054 16.3982C36.7629 16.3982 34.5354 16.3982 34.5354 16.3982C34.5354 16.3982 34.5354 19.6453 34.5354 20.5699C34.5354 22.3152 33.6991 25.5461 29.6387 25.5461C24.5817 25.5461 23.4483 25.5461 21.2056 25.5461C19.9685 25.5461 16.4678 26.1487 16.4678 30.125C16.4678 34.7258 16.4678 35.9305 16.4678 37.8229C16.4678 39.4852 17.4836 42.4813 25.0595 42.4813ZM29.748 39.7894C28.9019 39.7894 28.2182 39.1057 28.2182 38.2596C28.2182 37.4135 28.9016 36.7298 29.748 36.7298C30.5938 36.7298 31.2778 37.4135 31.2778 38.2596C31.2778 39.1057 30.5938 39.7894 29.748 39.7894Z" fill="url(#paint0_linear_16434_6675)"/>
<defs>
<linearGradient id="paint0_linear_16434_6675" x1="21.3566" y1="21.7822" x2="39.9893" y2="39.6333" gradientUnits="userSpaceOnUse">
<stop stop-color="#FFE052"/>
<stop offset="1" stop-color="#FFC331"/>
</linearGradient>
</defs>
</svg>
