<svg width="50" height="50" viewBox="0 0 50 50" fill="none" xmlns="http://www.w3.org/2000/svg">
<rect width="50" height="50" rx="12" fill="#00D8FF"/>
<path d="M25.8052 13.2286C27.9607 11.5794 30.5023 10.6101 32.6068 11.8252C34.7115 13.0402 35.1429 15.7259 34.7923 18.4174C34.749 18.7505 34.6929 19.0928 34.6243 19.4436C34.9624 19.5596 35.287 19.6822 35.5972 19.8112C38.1032 20.8534 40.2134 22.5698 40.2134 24.9999C40.2134 27.4301 38.1032 29.1465 35.5972 30.1887C35.287 30.3177 34.9624 30.4404 34.6243 30.5563C34.6929 30.9072 34.749 31.2495 34.7923 31.5826C35.1429 34.2741 34.7115 36.9598 32.6068 38.1749C30.5023 39.3899 27.9607 38.4207 25.8052 36.7714C25.5384 36.5673 25.2699 36.3475 25.0005 36.1127C24.7308 36.3477 24.4624 36.5674 24.1955 36.7717C22.0398 38.421 19.4983 39.3902 17.3937 38.1752C15.2892 36.9601 14.8578 34.2744 15.2083 31.5829C15.2517 31.2497 15.3078 30.9073 15.3765 30.5563C15.0382 30.4404 14.7137 30.3177 14.4034 30.1887C11.8973 29.1465 9.78711 27.4301 9.78711 24.9999C9.78711 22.5698 11.8973 20.8534 14.4034 19.8112C14.7137 19.6822 15.0382 19.5595 15.3765 19.4436C15.3077 19.0927 15.2516 18.7503 15.2083 18.4171C14.8578 15.7257 15.2892 13.04 17.3937 11.8249C19.4983 10.6098 22.0398 11.5791 24.1955 13.2283C24.4624 13.4326 24.7308 13.6524 25.0005 13.8873C25.2699 13.6525 25.5384 13.4327 25.8052 13.2286ZM18.0556 31.2746C18.014 31.5028 17.9792 31.7248 17.9511 31.9401C17.6283 34.4193 18.2353 35.4671 18.7767 35.7797C19.3181 36.0922 20.529 36.0942 22.5147 34.5749C22.6872 34.443 22.862 34.3019 23.0387 34.1517C22.3934 33.4238 21.7496 32.6151 21.1145 31.7303C20.0309 31.6227 19.0086 31.4695 18.0556 31.2746ZM31.9451 31.2746C30.992 31.4695 29.9698 31.6227 28.8863 31.7303C28.2513 32.6149 27.6074 33.4237 26.9621 34.1517C27.1388 34.3018 27.3135 34.4427 27.4859 34.5747C29.4715 36.0939 30.6825 36.092 31.2238 35.7794C31.7653 35.4668 32.3723 34.4191 32.0495 31.9399C32.0214 31.7245 31.9867 31.5027 31.9451 31.2746ZM25.0002 20.8509C24.1816 20.8509 23.3961 20.8752 22.6457 20.9213C22.2304 21.5483 21.8165 22.2166 21.4071 22.9256C20.9978 23.6346 20.6261 24.327 20.2908 25C20.6261 25.673 20.9978 26.3655 21.4071 27.0744C21.8165 27.7835 22.2303 28.4516 22.6455 29.0785C23.3961 29.1247 24.1816 29.1489 25.0002 29.1489C25.819 29.1489 26.6047 29.1247 27.3553 29.0785C27.7704 28.4518 28.1842 27.7836 28.5935 27.0747C29.0028 26.3656 29.3746 25.6731 29.71 25C29.3746 24.3269 29.0028 23.6344 28.5935 22.9254C28.1842 22.2164 27.7703 21.5482 27.3551 20.9213C26.6045 20.8752 25.819 20.8509 25.0002 20.8509ZM16.0939 22.123C15.8755 22.201 15.666 22.2818 15.4655 22.3652C13.157 23.3252 12.5531 24.3748 12.5531 24.9999C12.5531 25.6251 13.157 26.6747 15.4655 27.6347C15.666 27.7181 15.8756 27.799 16.094 27.877C16.4017 26.9541 16.7802 25.9922 17.2288 25C16.7801 24.0077 16.4016 23.0458 16.0939 22.123ZM33.9067 22.123C33.599 23.0458 33.2206 24.0077 32.772 25C33.2205 25.9922 33.599 26.9541 33.9067 27.877C34.1251 27.7988 34.3346 27.7181 34.535 27.6347C36.8436 26.6747 37.4474 25.6251 37.4474 24.9999C37.4474 24.3748 36.8436 23.3252 34.535 22.3652C34.3346 22.2818 34.1251 22.201 33.9067 22.123ZM25.0001 22.9255C26.1459 22.9255 27.0746 23.8543 27.0746 25C27.0746 26.1459 26.1459 27.0746 25.0001 27.0746C23.8544 27.0746 22.9256 26.1459 22.9256 25C22.9256 23.8543 23.8544 22.9255 25.0001 22.9255ZM18.7767 14.2203C18.2353 14.5329 17.6283 15.5807 17.9511 18.0599C17.9792 18.2752 18.014 18.4971 18.0556 18.7253C19.0087 18.5303 20.031 18.3771 21.1147 18.2695C21.7497 17.3849 22.3935 16.5762 23.0389 15.8484C22.862 15.6982 22.6872 15.5571 22.5147 15.4251C20.529 13.9059 19.3181 13.9078 18.7767 14.2203ZM31.2238 14.2206C30.6825 13.908 29.4715 13.9062 27.4859 15.4254C27.3135 15.5573 27.1388 15.6983 26.9621 15.8484C27.6074 16.5763 28.2512 17.385 28.8861 18.2695C29.9697 18.3772 30.992 18.5304 31.9451 18.7253C31.9867 18.4972 32.0214 18.2754 32.0495 18.0602C32.3723 15.5809 31.7653 14.5332 31.2238 14.2206Z" fill="white"/>
</svg>
