<svg width="50" height="50" viewBox="0 0 50 50" fill="none" xmlns="http://www.w3.org/2000/svg">
<rect width="50" height="50" rx="12" fill="#D30001"/>
<path d="M34.5431 15.1969C34.3966 15.1155 33.9895 14.9201 32.9636 14.627L32.8984 15.7017C33.4358 15.8808 33.9569 16.0762 34.478 16.2879L34.5431 15.1969Z" fill="white"/>
<path d="M25.57 15.3761C20.8151 15.7995 14.9854 20.1148 11.5657 25.8142C8.14607 31.5137 7.67383 36.3337 7.67383 36.3337H20.5383C20.5383 36.3337 18.0794 25.114 26.2214 20.5708C27.9964 19.7077 33.6469 16.4835 42.8963 23.3228C43.1894 23.0785 43.4662 22.8831 43.4662 22.8831C43.4662 22.8831 34.9985 14.4317 25.57 15.3761Z" fill="white"/>
<path d="M14.1385 21.2059L12.9824 20.1963C12.559 20.6034 12.1519 21.0105 11.7773 21.4176L13.0312 22.4923C13.3732 22.0527 13.7477 21.613 14.1385 21.2059Z" fill="white"/>
<path d="M20.294 16.3695L19.5612 15.2458C19.1541 15.4575 18.7307 15.6855 18.291 15.9461L19.0401 17.086C19.4635 16.8254 19.8706 16.5811 20.294 16.3695Z" fill="white"/>
<path d="M9.22105 28.4847L7.34838 27.8008C7.03899 28.501 6.69702 29.3152 6.53418 29.7549L8.40685 30.4388C8.61854 29.8851 8.96051 29.0872 9.22105 28.4847Z" fill="white"/>
<path d="M26.9058 14.6596H27.0686L26.743 13.6663C26.2382 13.6663 25.7171 13.6988 25.1797 13.764L25.4891 14.7247C25.9613 14.6759 26.4336 14.6596 26.9058 14.6596Z" fill="white"/>
<path d="M21.0273 33.0769C21.0599 33.94 21.1413 34.6402 21.2228 35.1287L23.1768 35.8289C23.0303 35.1938 22.8837 34.4773 22.786 33.712L21.0273 33.0769Z" fill="white"/>
<path d="M27.6875 20.6522L28.062 21.7758C28.5343 21.5478 29.0065 21.3524 29.4787 21.2059L29.1205 20.1311C28.5668 20.2939 28.0946 20.4731 27.6875 20.6522Z" fill="white"/>
<path d="M32.8652 20.7661C33.4026 20.7824 33.94 20.8476 34.4774 20.9615L34.5425 19.9519C33.9888 19.8379 33.4515 19.7728 32.9304 19.7402L32.8652 20.7661Z" fill="white"/>
<path d="M21.76 27.1497C21.5483 27.7522 21.4018 28.3547 21.2715 28.9409L22.5905 29.9831C22.6556 29.348 22.7696 28.7129 22.9325 28.0779L21.76 27.1497Z" fill="white"/>
<path d="M23.6328 23.6972L24.4144 24.8697C24.6913 24.4626 25.017 24.0881 25.3752 23.7135L24.6424 22.6062C24.2679 22.9482 23.9259 23.3227 23.6328 23.6972Z" fill="white"/>
</svg>
