<svg width="70" height="70" viewBox="0 0 70 70" fill="none" xmlns="http://www.w3.org/2000/svg">
<g clip-path="url(#clip0_20638_42592)">
<path d="M35 70C54.33 70 70 54.33 70 35C70 15.67 54.33 0 35 0C15.67 0 0 15.67 0 35C0 54.33 15.67 70 35 70Z" fill="#121617"/>
<path fill-rule="evenodd" clip-rule="evenodd" d="M31.7568 26.7944L34.6526 25.1224C34.7291 25.0784 34.8233 25.0784 34.8997 25.1224L43.1578 29.8902C43.2342 29.9343 43.2813 30.0158 43.2813 30.1041V39.6396C43.2813 39.7278 43.2342 39.8094 43.1578 39.8536L34.8997 44.6213C34.8233 44.6654 34.7291 44.6654 34.6527 44.6213L26.3946 39.8536C26.3182 39.8094 26.2711 39.7278 26.2711 39.6396V30.1041C26.2711 30.0158 26.3182 29.9343 26.3946 29.8902L29.2905 28.2182L37.7956 33.1286V36.5685C37.7956 36.6568 37.8427 36.7383 37.9191 36.7825C37.9956 36.8266 38.0897 36.8266 38.1661 36.7825L40.1384 35.6439C40.2148 35.5998 40.2619 35.5183 40.2619 35.43V31.7047L31.7568 26.7944ZM24.0257 29.6363L24.0253 30.0596C24.0253 30.5646 23.613 30.9771 23.1097 30.9771V31.8945C23.1097 32.3996 22.6955 32.812 22.1923 32.812H22.1677V33.7295C22.1677 34.2326 21.7553 34.6469 21.2522 34.6469H20.0604C19.5572 34.6469 19.1429 34.2326 19.1429 33.7295V32.812H19.1202C18.6151 32.812 18.2027 32.3996 18.2027 31.8945V30.9771C17.6977 30.9771 17.2853 30.5646 17.2853 30.0596V29.6363H24.0257ZM19.4716 28.5747H17.7337C17.4632 23.9552 15.46 24.1425 15.46 21.008C15.46 17.8905 17.9872 15.3633 21.1047 15.3633C24.2221 15.3633 26.7494 17.8905 26.7494 21.008C26.7494 24.1425 24.7462 23.9552 24.4756 28.5747H22.7377V23.0194H23.3917C24.4746 23.0194 25.3614 22.1326 25.3614 21.0497C25.3614 19.9642 24.4744 19.078 23.3917 19.078C22.3065 19.078 21.4201 19.9644 21.4201 21.0497V21.7017H20.7893V21.0497C20.7893 19.9644 19.9029 19.078 18.8177 19.078C17.735 19.078 16.8479 19.9642 16.8479 21.0497C16.8479 22.1326 17.7347 23.0194 18.8177 23.0194H19.4716V28.5747ZM21.4201 28.5747H20.7893V23.0194H21.4201V28.5747ZM22.7377 21.7017V21.0497C22.7377 20.6897 23.0317 20.3956 23.3917 20.3956C23.7505 20.3956 24.0438 20.69 24.0438 21.0497C24.0438 21.4082 23.7502 21.7017 23.3917 21.7017H22.7377ZM19.4716 21.7017H18.8177C18.4591 21.7017 18.1655 21.4082 18.1655 21.0497C18.1655 20.69 18.4588 20.3956 18.8177 20.3956C19.1776 20.3956 19.4716 20.6897 19.4716 21.0497V21.7017ZM49.0295 42.0141C49.6371 42.1585 50.2165 42.3986 50.7491 42.7267L51.8668 42.2298L53.1832 43.5462L52.6882 44.6639C53.0164 45.1965 53.2563 45.7759 53.4008 46.3854L54.5409 46.8242V48.6863L53.4008 49.1252C53.2563 49.7327 53.0145 50.3122 52.6882 50.8448L53.1832 51.9624L51.8668 53.2789L50.7491 52.7838C50.2184 53.112 49.6371 53.352 49.0295 53.4964L48.5907 54.6366H46.7285L46.2897 53.4964C45.6803 53.352 45.1008 53.1101 44.5683 52.7838L43.4506 53.2789L42.1342 51.9624L42.6311 50.8448C42.3029 50.3141 42.0628 49.7327 41.9166 49.1252L40.7764 48.6863V46.8242L41.9166 46.3854C42.0628 45.7759 42.3029 45.1965 42.6311 44.6639L42.1342 43.5462L43.4506 42.2298L44.5683 42.7267C45.1008 42.3986 45.6803 42.1585 46.2879 42.0141L46.7285 40.8721H48.5907L49.0295 42.0141ZM47.6586 44.5063C45.864 44.5063 44.4107 45.9597 44.4107 47.7543C44.4107 49.549 45.864 51.0042 47.6586 51.0042C49.4533 51.0042 50.9085 49.549 50.9085 47.7543C50.9085 45.9597 49.4533 44.5063 47.6586 44.5063ZM18.7997 37.8817C20.2126 45.4174 26.833 51.1269 34.7762 51.1269C36.2108 51.1269 37.6024 50.9408 38.9278 50.5911C39.2794 50.4984 39.6401 50.7086 39.7328 51.0602C39.8256 51.4118 39.6155 51.7725 39.2638 51.8652C37.8311 52.2431 36.327 52.4446 34.7762 52.4446C26.1813 52.4446 19.0197 46.2606 17.5006 38.1032L17.4872 38.1241C17.2911 38.4303 16.8833 38.5195 16.5771 38.3234C16.2709 38.1272 16.1816 37.7194 16.3778 37.4132L17.3617 35.8776C17.4652 35.7162 17.6339 35.6078 17.8238 35.5808C18.0137 35.5539 18.2059 35.6111 18.3503 35.7374L19.7226 36.9385C19.9962 37.178 20.024 37.5945 19.7845 37.8681C19.545 38.1418 19.1284 38.1694 18.8548 37.93L18.7997 37.8817ZM52.1429 37.5682L52.1656 37.5505C52.4523 37.3269 52.8666 37.3781 53.0902 37.6649C53.3138 37.9516 53.2626 38.3659 52.9758 38.5895L51.5377 39.711C51.3864 39.8289 51.1913 39.8751 51.0032 39.8375C50.8151 39.7998 50.6527 39.682 50.5586 39.5149L49.6633 37.9262C49.4847 37.6094 49.597 37.2072 49.9138 37.0288C50.2305 36.8502 50.6327 36.9625 50.8112 37.2792L50.845 37.3392C50.9677 36.5346 51.0313 35.7106 51.0313 34.8719C51.0313 25.9004 43.7476 18.6168 34.7762 18.6168C32.8825 18.6168 31.0638 18.9412 29.3731 19.5377C29.0302 19.6586 28.6536 19.4785 28.5326 19.1356C28.4116 18.7927 28.5918 18.4161 28.9347 18.2951C30.7626 17.6502 32.7287 17.2992 34.7762 17.2992C44.4749 17.2992 52.349 25.1732 52.349 34.8719C52.349 35.7886 52.2786 36.6891 52.1429 37.5682Z" fill="#A3ACB5"/>
</g>
<defs>
<clipPath id="clip0_20638_42592">
<rect width="70" height="70" fill="white"/>
</clipPath>
</defs>
</svg>
