<svg width="102" height="102" viewBox="0 0 102 102" fill="none" xmlns="http://www.w3.org/2000/svg">
<path d="M0 37.1014C0 19.6116 0 10.8668 5.43338 5.43338C10.8668 0 19.6117 0 37.1014 0H64C81.4898 0 90.2347 0 95.6681 5.43338C101.101 10.8668 101.101 19.6117 101.101 37.1014V64C101.101 81.4898 101.101 90.2347 95.6681 95.6681C90.2347 101.101 81.4898 101.101 64 101.101H37.1014C19.6116 101.101 10.8668 101.101 5.43338 95.6681C0 90.2347 0 81.4898 0 64V37.1014Z" fill="#1B1D1E"/>
<path d="M37.1477 30.1328H64.8539C69.0545 30.1328 72.4508 33.522 72.4508 37.7139V64.2923C72.4508 68.4842 69.0545 71.8734 64.8539 71.8734H37.1477C32.947 71.8734 29.5508 68.4842 29.5508 64.2923V37.7139C29.5508 33.522 32.947 30.1328 37.1477 30.1328Z" fill="#00005B"/>
<path d="M46.7823 55.1058H40.1328L38.7743 59.3155C38.7385 59.476 38.5955 59.5831 38.4347 59.5652H35.0742C34.8775 59.5652 34.8239 59.4582 34.8775 59.2442L40.6333 42.7798C40.6869 42.6015 40.7405 42.4409 40.812 42.2269C40.8835 41.8523 40.9193 41.4598 40.9193 41.0674C40.9014 40.9782 40.9729 40.889 41.0623 40.8712H45.6919C45.817 40.8712 45.9064 40.9247 45.9243 41.0139L52.4487 59.2085C52.5023 59.4047 52.4487 59.4939 52.2699 59.4939H48.534C48.4089 59.5117 48.2838 59.4225 48.248 59.2977L46.7823 55.0166V55.1058ZM41.1695 51.556H45.7098C45.6025 51.1814 45.4595 50.7355 45.2987 50.2717C45.1378 49.7901 44.9769 49.2728 44.816 48.7377C44.6373 48.1847 44.4764 47.6496 44.2977 47.0966C44.1189 46.5436 43.958 46.0263 43.815 45.509C43.672 45.0096 43.5469 44.5458 43.4218 44.1177H43.386C43.2252 44.8847 43.0285 45.6517 42.7783 46.4188C42.5102 47.275 42.242 48.1669 41.956 49.0587C41.7237 49.9685 41.4377 50.8069 41.1695 51.556Z" fill="#9999FF"/>
<path d="M62.977 53.5004H57.3107C57.3822 54.0533 57.5609 54.6063 57.8648 55.0879C58.1865 55.5696 58.6334 55.9442 59.1697 56.1582C59.8847 56.4615 60.6712 56.622 61.4577 56.6042C62.0833 56.5863 62.7089 56.5328 63.3167 56.4079C63.8708 56.3366 64.407 56.1939 64.9075 55.9977C64.9969 55.9263 65.0505 55.962 65.0505 56.1404V58.8696C65.0505 58.9409 65.0327 59.0123 65.0148 59.0836C64.979 59.1371 64.9433 59.1728 64.8897 59.2085C64.3177 59.4582 63.7278 59.6366 63.1022 59.7436C62.262 59.9042 61.4219 59.9755 60.5639 59.9577C59.2054 59.9577 58.0614 59.7436 57.1319 59.3333C56.256 58.9587 55.4874 58.3701 54.8797 57.6387C54.3077 56.9431 53.8965 56.1582 53.6463 55.302C53.396 54.4636 53.2709 53.5896 53.2709 52.6977C53.2709 51.7344 53.4139 50.789 53.7178 49.8615C54.0038 48.9696 54.4507 48.149 55.0584 47.4177C55.6483 46.7042 56.3812 46.1333 57.2213 45.7231C58.0614 45.3128 59.0624 45.1701 60.2064 45.1701C61.1538 45.1523 62.1012 45.3306 62.977 45.7231C63.7099 46.0442 64.3534 46.5258 64.8539 47.1501C65.3187 47.7566 65.694 48.4344 65.9264 49.1836C66.1588 49.8971 66.266 50.6285 66.266 51.3598C66.266 51.7879 66.2482 52.1625 66.2303 52.5015C66.1945 52.8404 66.1767 53.0901 66.1588 53.2506C66.1409 53.3755 66.0337 53.4825 65.9085 53.4825C65.8013 53.4825 65.6047 53.5004 65.3187 53.5182C65.0327 53.5539 64.693 53.5717 64.2819 53.5717C63.8708 53.5717 63.4418 53.5004 62.977 53.5004ZM57.3107 50.896H61.0823C61.547 50.896 61.8867 50.896 62.1012 50.8782C62.2442 50.8604 62.3872 50.8247 62.5123 50.7355V50.5571C62.5123 50.3252 62.4765 50.1112 62.405 49.8971C62.0833 48.8982 61.1359 48.2204 60.0813 48.256C59.0982 48.2025 58.1687 48.7198 57.7039 49.6117C57.4894 50.022 57.3643 50.4501 57.3107 50.896Z" fill="#9999FF"/>
</svg>
