<svg width="102" height="102" viewBox="0 0 102 102" fill="none" xmlns="http://www.w3.org/2000/svg">
<path d="M0 37.1014C0 19.6116 0 10.8668 5.43338 5.43338C10.8668 0 19.6117 0 37.1014 0H64C81.4898 0 90.2347 0 95.6681 5.43338C101.101 10.8668 101.101 19.6117 101.101 37.1014V64C101.101 81.4898 101.101 90.2347 95.6681 95.6681C90.2347 101.101 81.4898 101.101 64 101.101H37.1014C19.6116 101.101 10.8668 101.101 5.43338 95.6681C0 90.2347 0 81.4898 0 64V37.1014Z" fill="#1B1D1E"/>
<g clip-path="url(#clip0_20722_39586)">
<path d="M37.7935 30.5391H64.2081C68.2129 30.5391 71.4508 33.9353 71.4508 38.136V64.7697C71.4508 68.9703 68.2129 72.3666 64.208 72.3666H37.7935C33.7887 72.3666 30.5508 68.9703 30.5508 64.7697V38.136C30.5508 33.9353 33.7887 30.5391 37.7935 30.5391Z" fill="#390000"/>
<path d="M50.3704 55.6316H44.0309L42.7357 59.8322C42.7016 59.9931 42.5653 60.1003 42.412 60.0825H39.2081C39.0206 60.0825 38.9695 59.9752 39.0206 59.7607L44.508 43.1906C44.5591 43.0119 44.6103 42.8152 44.6784 42.6007C44.7465 42.2254 44.7807 41.8321 44.7807 41.4388C44.7636 41.3494 44.8318 41.2601 44.917 41.2422H44.9681H49.3308C49.4671 41.2422 49.5353 41.2958 49.5523 41.3852L55.7725 59.7964C55.8237 59.9931 55.7725 60.0824 55.6021 60.0824H52.0404C51.9211 60.1003 51.8018 60.0109 51.7678 59.8858L50.3704 55.6316ZM45.0193 52.003H49.3479L47.1665 44.5491L45.0193 52.003Z" fill="#FF9A00"/>
<path d="M59.4877 44.2992C58.9254 44.3171 58.38 44.0847 57.971 43.6736C57.579 43.2267 57.3745 42.6369 57.3916 42.0291C57.3746 41.4213 57.5961 40.8493 58.0051 40.4382C58.4141 40.027 58.9595 39.8125 59.5219 39.8125C60.1865 39.8125 60.6977 40.027 61.0726 40.4382C61.4475 40.8672 61.652 41.4392 61.635 42.0291C61.652 42.6368 61.4475 43.2267 61.0385 43.6736C60.6466 44.1026 60.0671 44.3349 59.4877 44.2992Z" fill="#FF9A00"/>
<path d="M57.5791 59.8109V46.0472C57.5791 45.8684 57.6472 45.7969 57.8006 45.7969H61.1749C61.3282 45.7969 61.3964 45.8863 61.3964 46.0472V59.8109C61.3964 60.0076 61.3282 60.0969 61.1749 60.0969H57.8347C57.6643 60.0969 57.5791 59.9897 57.5791 59.8109Z" fill="#FF9A00"/>
</g>
<defs>
<clipPath id="clip0_20722_39586">
<rect width="40.9" height="42.9" fill="white" transform="translate(30.5508 30)"/>
</clipPath>
</defs>
</svg>
