<svg width="102" height="102" viewBox="0 0 102 102" fill="none" xmlns="http://www.w3.org/2000/svg">
<path d="M0 37.1014C0 19.6116 0 10.8668 5.43338 5.43338C10.8668 0 19.6117 0 37.1014 0H64C81.4898 0 90.2347 0 95.6681 5.43338C101.101 10.8668 101.101 19.6117 101.101 37.1014V64C101.101 81.4898 101.101 90.2347 95.6681 95.6681C90.2347 101.101 81.4898 101.101 64 101.101H37.1014C19.6116 101.101 10.8668 101.101 5.43338 95.6681C0 90.2347 0 81.4898 0 64V37.1014Z" fill="#1B1D1E"/>
<path d="M38.9108 31.4124L51.0008 30L63.0908 31.4124L72.4508 45.2975L51.0008 72.9L29.5508 45.2975L38.9108 31.4124Z" fill="#FDB300"/>
<path d="M38.2391 45.2975L51.0008 72.9L29.5508 45.2975L38.2391 45.2975Z" fill="#EA6C00"/>
<path d="M63.7624 45.2975L51.0008 72.9L72.4508 45.2975L63.7624 45.2975Z" fill="#EA6C00"/>
<path d="M38.2391 45.2975L63.7624 45.2975L51.0008 72.9L38.2391 45.2975Z" fill="#FDAD00"/>
<path d="M51.0008 30L38.9108 31.4124L38.2391 45.2975L51.0008 30Z" fill="#FDD231"/>
<path d="M51.0008 30L63.0908 31.4124L63.7624 45.2975L51.0008 30Z" fill="#FDD231"/>
<path d="M72.4508 45.2975L63.0908 31.4124L63.7624 45.2975L72.4508 45.2975Z" fill="#FDAD00"/>
<path d="M29.5508 45.2975L38.9108 31.4124L38.2391 45.2975L29.5508 45.2975Z" fill="#FDAD00"/>
<path d="M51.0008 30L38.2391 45.2975L63.7624 45.2975L51.0008 30Z" fill="#FEEEB7"/>
</svg>
