<svg width="102" height="102" viewBox="0 0 102 102" fill="none" xmlns="http://www.w3.org/2000/svg">
<path d="M0 37.1014C0 19.6116 0 10.8668 5.43338 5.43338C10.8668 0 19.6117 0 37.1014 0H64C81.4898 0 90.2347 0 95.6681 5.43338C101.101 10.8668 101.101 19.6117 101.101 37.1014V64C101.101 81.4898 101.101 90.2347 95.6681 95.6681C90.2347 101.101 81.4898 101.101 64 101.101H37.1014C19.6116 101.101 10.8668 101.101 5.43338 95.6681C0 90.2347 0 81.4898 0 64V37.1014Z" fill="#1B1D1E"/>
<g clip-path="url(#clip0_20722_39617)">
<g clip-path="url(#clip1_20722_39617)">
<path d="M51.0498 51.4468C51.0498 47.498 54.1865 44.2969 58.0558 44.2969C61.9251 44.2969 65.0618 47.4981 65.0618 51.4468C65.0618 55.3957 61.925 58.5968 58.0558 58.5968C54.1864 58.5968 51.0498 55.3957 51.0498 51.4468Z" fill="#00BCFF"/>
<path d="M37.0381 65.7476C37.0381 61.7988 40.1748 58.5976 44.0441 58.5976L47.7777 56.5859L51.0501 58.5976V65.7476C51.0501 69.6965 47.9134 72.8976 44.0441 72.8976C40.1748 72.8976 37.0381 69.6964 37.0381 65.7476Z" fill="#00CF7F"/>
<path d="M51.0496 30L47.2373 36.7593L51.0496 44.2999H57.9573C61.8267 44.2999 64.9633 41.0988 64.9633 37.15C64.9633 33.2012 61.8266 30 57.9573 30H51.0496Z" fill="#FF7361"/>
<path d="M36.9395 37.15C36.9395 41.0988 40.0762 44.2999 43.9454 44.2999L47.6619 45.7649L51.0497 44.2999V30H43.9454C40.0762 30 36.9395 33.2012 36.9395 37.15Z" fill="#FF4D12"/>
<path d="M37.0381 51.4469C37.0381 55.3958 40.1748 58.5969 44.0441 58.5969H51.0501V44.2969H44.0441C40.1748 44.2969 37.0381 47.4981 37.0381 51.4469Z" fill="#B659FF"/>
</g>
</g>
<defs>
<clipPath id="clip0_20722_39617">
<rect width="40.9" height="42.9" fill="white" transform="translate(30.5508 30)"/>
</clipPath>
<clipPath id="clip1_20722_39617">
<rect width="42.0361" height="42.9" fill="white" transform="translate(29.9824 30)"/>
</clipPath>
</defs>
</svg>
