<svg width="60" height="60" viewBox="0 0 60 60" fill="none" xmlns="http://www.w3.org/2000/svg">
<path d="M60 30C60 46.5685 46.5685 60 30 60C13.4315 60 0 46.5685 0 30C0 13.4315 13.4315 0 30 0C46.5685 0 60 13.4315 60 30Z" fill="#121314"/>
<path d="M41.968 34.6272C41.968 34.7898 41.9034 34.9456 41.7884 35.0606C41.6735 35.1755 41.5176 35.2401 41.3551 35.2401H19.2906C19.1281 35.2401 18.9722 35.1755 18.8572 35.0606C18.7423 34.9456 18.6777 34.7898 18.6777 34.6272C18.6777 34.4647 18.7423 34.3088 18.8572 34.1938C18.9722 34.0789 19.1281 34.0143 19.2906 34.0143H19.9035V22.3692C19.9035 22.2066 19.9681 22.0507 20.0831 21.9358C20.198 21.8209 20.3539 21.7563 20.5164 21.7563H25.4196C25.5822 21.7563 25.7381 21.8209 25.853 21.9358C25.968 22.0507 26.0325 22.2066 26.0325 22.3692V34.0143H27.2583V24.8208C27.2583 24.6582 27.3229 24.5023 27.4379 24.3874C27.5528 24.2725 27.7087 24.2079 27.8712 24.2079H32.7744C32.937 24.2079 33.0929 24.2725 33.2078 24.3874C33.3228 24.5023 33.3873 24.6582 33.3873 24.8208V34.0143H34.6132V19.9176C34.6132 19.755 34.6777 19.5991 34.7927 19.4842C34.9076 19.3693 35.0635 19.3047 35.2261 19.3047H40.1293C40.2918 19.3047 40.4477 19.3693 40.5626 19.4842C40.6776 19.5991 40.7422 19.755 40.7422 19.9176V34.0143H41.3551C41.5176 34.0143 41.6735 34.0789 41.7884 34.1938C41.9034 34.3088 41.968 34.4647 41.968 34.6272Z" fill="#6981F1"/>
<path d="M22.9673 20.5323C23.0477 20.5333 23.1274 20.5175 23.2013 20.4858C23.2752 20.4541 23.3416 20.4074 23.3963 20.3485L26.6447 17.1124L29.8931 20.3485C30.0076 20.4608 30.1617 20.5237 30.3221 20.5237C30.4825 20.5237 30.6366 20.4608 30.7511 20.3485L37.064 14.0479V15.0162C37.064 15.1788 37.1286 15.3347 37.2435 15.4496C37.3585 15.5646 37.5144 15.6291 37.6769 15.6291C37.8395 15.6291 37.9954 15.5646 38.1103 15.4496C38.2252 15.3347 38.2898 15.1788 38.2898 15.0162V12.5646C38.2955 12.4912 38.2955 12.4174 38.2898 12.344C38.2265 12.195 38.1079 12.0763 37.9588 12.013C37.8822 11.9957 37.8026 11.9957 37.7259 12.013H35.2253C35.0628 12.013 34.9069 12.0776 34.7919 12.1925C34.677 12.3075 34.6124 12.4634 34.6124 12.6259C34.6124 12.7885 34.677 12.9444 34.7919 13.0593C34.9069 13.1743 35.0628 13.2388 35.2253 13.2388H36.1937L30.3221 19.0491L27.0737 15.813C27.0187 15.7544 26.9522 15.7076 26.8785 15.6757C26.8047 15.6438 26.7251 15.6273 26.6447 15.6273C26.5643 15.6273 26.4847 15.6438 26.411 15.6757C26.3372 15.7076 26.2707 15.7544 26.2157 15.813L22.5383 19.4904C22.4796 19.5454 22.4329 19.6119 22.401 19.6857C22.369 19.7595 22.3525 19.839 22.3525 19.9194C22.3525 19.9999 22.369 20.0794 22.401 20.1532C22.4329 20.227 22.4796 20.2934 22.5383 20.3485C22.593 20.4074 22.6594 20.4541 22.7333 20.4858C22.8072 20.5175 22.8869 20.5333 22.9673 20.5323Z" fill="#6981F1"/>
<path d="M45.0321 19.3047H42.5805C42.418 19.3047 42.2621 19.3693 42.1471 19.4842C42.0322 19.5991 41.9676 19.755 41.9676 19.9176C41.9676 20.0801 42.0322 20.236 42.1471 20.351C42.2621 20.4659 42.418 20.5305 42.5805 20.5305H44.4192V36.4659H16.2258V20.5305H18.0645C18.2271 20.5305 18.3829 20.4659 18.4979 20.351C18.6128 20.236 18.6774 20.0801 18.6774 19.9176C18.6774 19.755 18.6128 19.5991 18.4979 19.4842C18.3829 19.3693 18.2271 19.3047 18.0645 19.3047H15.6129C15.4503 19.3047 15.2945 19.3693 15.1795 19.4842C15.0646 19.5991 15 19.755 15 19.9176V41.982C15 42.1446 15.0646 42.3005 15.1795 42.4154C15.2945 42.5303 15.4503 42.5949 15.6129 42.5949H24.6348L23.7154 46.2723H22.9677C22.8052 46.2723 22.6493 46.3369 22.5343 46.4518C22.4194 46.5668 22.3548 46.7227 22.3548 46.8852C22.3548 47.0478 22.4194 47.2037 22.5343 47.3186C22.6493 47.4335 22.8052 47.4981 22.9677 47.4981H37.6773C37.8399 47.4981 37.9958 47.4335 38.1107 47.3186C38.2256 47.2037 38.2902 47.0478 38.2902 46.8852C38.2902 46.7227 38.2256 46.5668 38.1107 46.4518C37.9958 46.3369 37.8399 46.2723 37.6773 46.2723H36.9296L36.0102 42.5949H45.0321C45.1947 42.5949 45.3506 42.5303 45.4655 42.4154C45.5805 42.3005 45.645 42.1446 45.645 41.982V19.9176C45.645 19.755 45.5805 19.5991 45.4655 19.4842C45.3506 19.3693 45.1947 19.3047 45.0321 19.3047ZM44.4192 41.3691H16.2258V37.6917H44.4192V41.3691Z" fill="#6981F1"/>
<path d="M31.5479 38.9219H29.0963C28.9337 38.9219 28.7779 38.9864 28.6629 39.1014C28.548 39.2163 28.4834 39.3722 28.4834 39.5348C28.4834 39.6973 28.548 39.8532 28.6629 39.9682C28.7779 40.0831 28.9337 40.1477 29.0963 40.1477H31.5479C31.7105 40.1477 31.8663 40.0831 31.9813 39.9682C32.0962 39.8532 32.1608 39.6973 32.1608 39.5348C32.1608 39.3722 32.0962 39.2163 31.9813 39.1014C31.8663 38.9864 31.7105 38.9219 31.5479 38.9219Z" fill="#6981F1"/>
</svg>
