<svg width="60" height="60" viewBox="0 0 60 60" fill="none" xmlns="http://www.w3.org/2000/svg">
<path d="M60 30C60 46.5685 46.5685 60 30 60C13.4315 60 0 46.5685 0 30C0 13.4315 13.4315 0 30 0C46.5685 0 60 13.4315 60 30Z" fill="#121314"/>
<g clip-path="url(#clip0_22400_16165)">
<path d="M32.3969 44.6723V45.1374C31.6598 45.8867 30.6345 46.3516 29.5004 46.3516C28.3664 46.3516 27.341 45.8867 26.604 45.1374V44.6723C26.6314 43.9217 27.1508 43.3954 27.8682 43.0931C28.7691 43.9968 30.2318 43.9968 31.1327 43.0931C31.85 43.3955 32.3695 43.9217 32.3969 44.6723ZM29.5004 38.2262C27.2567 38.2262 25.4377 40.0451 25.4377 42.2889C25.4377 42.9661 25.6036 43.6045 25.8967 44.166C26.0882 43.3818 26.6707 42.8019 27.4152 42.4487C26.7022 40.939 27.7971 39.1612 29.5005 39.1612C31.2038 39.1612 32.2987 40.9389 31.5857 42.4487C32.3302 42.8019 32.9127 43.3819 33.1042 44.166C33.3973 43.6045 33.5632 42.9661 33.5632 42.2889C33.5632 40.0451 31.7443 38.2262 29.5005 38.2262H29.5004ZM31.0318 41.466C31.0318 40.6202 30.3462 39.9346 29.5004 39.9346C28.6546 39.9346 27.969 40.6203 27.969 41.466C27.969 42.3118 28.6546 42.9974 29.5004 42.9974C30.3462 42.9974 31.0318 42.3118 31.0318 41.466ZM41.1823 37.4681C41.4418 37.4476 41.6964 37.4476 41.9558 37.4681V20.3095C41.9558 20.0959 41.7827 19.9228 41.5691 19.9228H38.1428V20.6962H41.1823V37.4681ZM19.064 43.0931C18.1632 43.9968 16.7004 43.9968 15.7995 43.0931C15.0822 43.3954 14.5627 43.9217 14.5354 44.6723V45.1374C15.2724 45.8867 16.2977 46.3516 17.4317 46.3516C18.5658 46.3516 19.5912 45.8867 20.3281 45.1374V44.6723C20.3008 43.9217 19.7814 43.3954 19.064 43.0931H19.064ZM17.4318 38.2262C15.1881 38.2262 13.3691 40.0451 13.3691 42.2889C13.3691 42.9661 13.535 43.6045 13.8281 44.166C14.0196 43.3818 14.6022 42.8019 15.3466 42.4487C14.6336 40.939 15.7285 39.1612 17.4318 39.1612C19.1351 39.1612 20.23 40.9389 19.517 42.4487C20.2615 42.8019 20.8441 43.3818 21.0355 44.166C21.3286 43.6045 21.4946 42.9661 21.4946 42.2889C21.4946 40.0451 19.6756 38.2262 17.4318 38.2262ZM18.9632 41.466C18.9632 40.6202 18.2776 39.9346 17.4318 39.9346C16.5861 39.9346 15.9004 40.6203 15.9004 41.466C15.9004 42.3118 16.5861 42.9974 17.4318 42.9974C18.2776 42.9974 18.9632 42.3118 18.9632 41.466ZM17.8185 37.4681V20.6962H20.858V19.9228H17.4318C17.2182 19.9228 17.0451 20.0959 17.0451 20.3095V37.4681C17.3046 37.4476 17.559 37.4476 17.8185 37.4681ZM43.1005 41.466C43.1005 40.6202 42.4148 39.9346 41.5691 39.9346C40.7233 39.9346 40.0377 40.6203 40.0377 41.466C40.0377 42.3118 40.7233 42.9974 41.5691 42.9974C42.4148 42.9974 43.1005 42.3118 43.1005 41.466ZM41.5691 38.2262C39.3253 38.2262 37.5063 40.0451 37.5063 42.2889C37.5063 42.9661 37.6722 43.6045 37.9653 44.166C38.1568 43.3818 38.7393 42.8019 39.4838 42.4487C38.7708 40.9389 39.8658 39.1612 41.5691 39.1612C43.2724 39.1612 44.3673 40.9389 43.6543 42.4487C44.3987 42.8019 44.9813 43.3818 45.1728 44.166C45.4659 43.6046 45.6318 42.9662 45.6318 42.2889C45.6318 40.0451 43.8129 38.2262 41.5691 38.2262H41.5691ZM43.2013 43.0931C42.3004 43.9968 40.8376 43.9968 39.9367 43.0931C39.2194 43.3954 38.7 43.9217 38.6726 44.6723V45.1374C39.4096 45.8867 40.4349 46.3516 41.5691 46.3516C42.7032 46.3516 43.7284 45.8867 44.4655 45.1374V44.6723C44.4381 43.9217 43.9186 43.3954 43.2013 43.0931ZM33.3521 18.6579H37.3695V34.6141H21.6315V14.6406H33.3522V18.6579H33.3521ZM25.7519 22.6694C25.7519 23.2742 26.1729 23.3081 26.118 23.9304C26.0795 24.3673 26.3196 24.7832 26.7173 24.9683C27.2835 25.2318 27.1025 25.6134 27.6262 25.9158C28.15 26.2182 28.3899 25.8706 28.9013 26.2292C29.2604 26.4811 29.7407 26.4811 30.0998 26.2292C30.6113 25.8706 30.851 26.2182 31.3748 25.9158C31.8985 25.6134 31.7175 25.2318 32.2838 24.9683C32.6814 24.7832 32.9216 24.3673 32.883 23.9304C32.8282 23.3082 33.2491 23.2742 33.2491 22.6694C33.2491 22.0647 32.8282 22.0308 32.883 21.4085C32.9216 20.9716 32.6814 20.5557 32.2838 20.3706C31.7175 20.107 31.8986 19.7255 31.3748 19.4231C30.8511 19.1207 30.6113 19.4684 30.0998 19.1097C29.7407 18.8579 29.2604 18.8579 28.9013 19.1097C28.3899 19.4683 28.15 19.1207 27.6262 19.4231C27.1026 19.7255 27.2835 20.1071 26.7173 20.3706C26.3196 20.5557 26.0795 20.9716 26.118 21.4085C26.1729 22.0308 25.7519 22.0646 25.7519 22.6694ZM32.5275 25.732C32.5178 25.7451 32.5091 25.7605 32.5005 25.779C32.1787 26.471 31.4539 26.8894 30.6935 26.8223C30.5204 26.8071 30.4642 26.9857 30.0125 27.1181L30.5706 29.2008L31.5846 27.5992L33.2636 28.4792L32.5274 25.732H32.5275ZM25.7374 28.4792L27.4163 27.5992L28.4304 29.2008L28.9884 27.1181C28.5367 26.9857 28.4805 26.8071 28.3074 26.8223C27.5467 26.8894 26.8226 26.4711 26.5004 25.7791C26.4917 25.7605 26.4831 25.7452 26.4734 25.732L25.7373 28.4792L25.7374 28.4792ZM33.6503 32.5695C33.6503 32.3559 33.4772 32.1828 33.2636 32.1828H25.7374C25.5238 32.1828 25.3507 32.356 25.3507 32.5695C25.3507 32.783 25.5238 32.9562 25.7374 32.9562H33.2636C33.4772 32.9562 33.6503 32.7831 33.6503 32.5695ZM33.2636 30.6437H25.7374C25.5238 30.6437 25.3507 30.8168 25.3507 31.0304C25.3507 31.244 25.5238 31.4171 25.7374 31.4171H33.2636C33.4772 31.4171 33.6503 31.2439 33.6503 31.0304C33.6503 30.8169 33.4772 30.6437 33.2636 30.6437ZM27.4365 22.6694C27.4365 21.5295 28.3606 20.6054 29.5005 20.6054C30.6404 20.6054 31.5645 21.5295 31.5645 22.6694C31.5645 23.8093 30.6404 24.7334 29.5005 24.7334C28.3606 24.7334 27.4365 23.8093 27.4365 22.6694ZM28.5058 22.9805L28.9208 23.545C29.0274 23.6903 29.2166 23.7393 29.4029 23.6477C29.4606 23.6193 29.5042 23.583 29.5426 23.5314L30.4952 22.2502C30.6211 22.0783 30.5839 21.8368 30.4121 21.7109C30.2402 21.5849 29.9988 21.6221 29.8728 21.794L29.232 22.6655L29.1282 22.5243C29.0022 22.3524 28.7607 22.3153 28.5889 22.4412C28.4171 22.5672 28.3799 22.8086 28.5058 22.9805ZM34.1256 17.8845H37.3695L34.1256 14.6406V17.8845ZM29.8872 37.4681V35.3875H29.1137V37.4681C29.3732 37.4476 29.6276 37.4476 29.8872 37.4681Z" fill="#6981F1"/>
</g>
<defs>
<clipPath id="clip0_22400_16165">
<rect width="33" height="33" fill="white" transform="translate(13 14)"/>
</clipPath>
</defs>
</svg>
