<svg width="74" height="74" viewBox="0 0 74 74" fill="none" xmlns="http://www.w3.org/2000/svg">
<path d="M0 8C0 3.58172 3.58172 0 8 0H66C70.4183 0 74 3.58172 74 8V66C74 70.4183 70.4183 74 66 74H8C3.58172 74 0 70.4183 0 66V8Z" fill="#F7DF1E"/>
<path d="M19.4573 61.8409L25.1201 58.4138C26.2127 60.3508 27.2065 61.9898 29.5904 61.9898C31.8754 61.9898 33.3164 61.096 33.3164 57.6191V33.9744H40.2704V57.7174C40.2704 64.92 36.0484 68.1985 29.8884 68.1985C24.3254 68.1985 21.0963 65.3175 19.457 61.8403M44.0476 61.0957L49.7097 57.8174C51.2004 60.2516 53.1377 62.0398 56.5649 62.0398C59.4465 62.0398 61.2838 60.5991 61.2838 58.6121C61.2838 56.2279 59.3962 55.3832 56.2171 53.9929L54.479 53.2471C49.4617 51.1118 46.1337 48.4293 46.1337 42.7665C46.1337 37.5507 50.1075 33.5767 56.3168 33.5767C60.7378 33.5767 63.9169 35.1168 66.2016 39.1402L60.7869 42.6177C59.5945 40.4818 58.3036 39.6374 56.3166 39.6374C54.2798 39.6374 52.9883 40.929 52.9883 42.6177C52.9883 44.7038 54.2798 45.5488 57.2601 46.8403L58.9985 47.5852C64.9098 50.1188 68.2378 52.7016 68.2378 58.5129C68.2378 64.7723 63.3202 68.1994 56.7137 68.1994C50.2564 68.1994 46.0837 65.1197 44.0473 61.096" fill="black"/>
</svg>
