<svg width="72" height="72" viewBox="0 0 72 72" fill="none" xmlns="http://www.w3.org/2000/svg">
<path d="M7 34.2417C7 18.2254 19.9837 5.2417 36 5.2417C52.0163 5.2417 65 18.2254 65 34.2417C65 50.258 52.0163 63.2417 36 63.2417C19.9837 63.2417 7 50.258 7 34.2417Z" fill="#4361EE"/>
<path d="M27.6634 47.2417V23.969H36.8452C38.6103 23.969 40.1141 24.3061 41.3565 24.9803C42.599 25.647 43.5459 26.575 44.1974 27.7644C44.8565 28.9462 45.1861 30.3099 45.1861 31.8553C45.1861 33.4008 44.8527 34.7644 44.1861 35.9462C43.5194 37.1281 42.5535 38.0485 41.2884 38.7076C40.0308 39.3667 38.508 39.6962 36.7202 39.6962H30.8679V35.7531H35.9247C36.8717 35.7531 37.652 35.5902 38.2656 35.2644C38.8868 34.9311 39.349 34.4728 39.652 33.8894C39.9626 33.2985 40.1179 32.6205 40.1179 31.8553C40.1179 31.0826 39.9626 30.4084 39.652 29.8326C39.349 29.2493 38.8868 28.7985 38.2656 28.4803C37.6444 28.1546 36.8565 27.9917 35.902 27.9917H32.5838V47.2417H27.6634Z" fill="white"/>
</svg>
