<svg width="74" height="66" viewBox="0 0 74 66" fill="none" xmlns="http://www.w3.org/2000/svg">
<path d="M56.9764 22.9046C56.3333 22.6829 55.6668 22.4731 54.9806 22.2748C55.0934 21.8138 55.1969 21.3588 55.2889 20.9115C56.7998 13.5674 55.8119 7.65093 52.4388 5.70298C49.2044 3.83514 43.9148 5.78266 38.5725 10.4385C38.0588 10.8862 37.5436 11.3602 37.0287 11.857C36.6856 11.5283 36.343 11.2107 36.0014 10.9069C30.4025 5.92854 24.7905 3.83061 21.4207 5.78421C18.1894 7.65746 17.2325 13.2195 18.5924 20.1796C18.7238 20.8519 18.8773 21.5384 19.0509 22.2364C18.2566 22.4622 17.4898 22.7029 16.7562 22.959C10.1921 25.2507 6 28.8425 6 32.5681C6 36.416 10.5002 40.2754 17.3372 42.6156C17.8767 42.8003 18.4366 42.9749 19.0136 43.1407C18.8263 43.8956 18.6634 44.6354 18.5266 45.3569C17.2299 52.1962 18.2426 57.6269 21.4653 59.4883C24.7941 61.4106 30.3807 59.4347 35.8206 54.6728C36.2506 54.2964 36.6821 53.8972 37.1143 53.4788C37.6746 54.0191 38.234 54.5304 38.7905 55.0101C44.0597 59.5509 49.2639 61.3844 52.4836 59.5178C55.8091 57.59 56.8898 51.7562 55.4867 44.6584C55.3795 44.1163 55.2548 43.5625 55.1148 42.9989C55.5071 42.8827 55.8923 42.7628 56.2678 42.6381C63.3755 40.2798 68 36.4674 68 32.5681C68 28.829 63.6727 25.2131 56.9764 22.9046ZM55.4348 40.1205C55.0958 40.2329 54.748 40.3415 54.3935 40.4468C53.6088 37.9592 52.5498 35.314 51.2539 32.5811C52.4906 29.9132 53.5086 27.3018 54.2713 24.8303C54.9056 25.0141 55.5211 25.208 56.1143 25.4125C61.8517 27.3904 65.3514 30.3148 65.3514 32.5681C65.3514 34.9683 61.5718 38.0841 55.4348 40.1205ZM52.8884 45.1735C53.5089 48.312 53.5975 51.1496 53.1865 53.3679C52.8172 55.3612 52.0746 56.6902 51.1564 57.2224C49.2025 58.355 45.0241 56.8828 40.5178 52.9995C40.0012 52.5543 39.4809 52.079 38.9589 51.5759C40.7059 49.6625 42.4519 47.4382 44.1559 44.9678C47.1532 44.7015 49.9849 44.266 52.5528 43.6716C52.6793 44.1825 52.7916 44.6836 52.8884 45.1735ZM27.1372 57.0267C25.2282 57.7018 23.7078 57.7212 22.7887 57.1905C20.833 56.0609 20.02 51.7006 21.129 45.8516C21.2561 45.1818 21.4072 44.4937 21.5815 43.7904C24.1213 44.3528 26.9323 44.7575 29.9367 45.0014C31.6522 47.4187 33.4486 49.6407 35.259 51.5862C34.8634 51.9686 34.4695 52.3326 34.0777 52.6757C31.6722 54.7813 29.2616 56.2753 27.1372 57.0267ZM18.1938 40.1058C15.1706 39.071 12.674 37.7261 10.9626 36.2586C9.42489 34.9398 8.64851 33.6305 8.64851 32.5681C8.64851 30.3073 12.0144 27.4236 17.628 25.4636C18.3091 25.2258 19.0222 25.0016 19.7621 24.7911C20.5379 27.3184 21.5557 29.9607 22.7839 32.6327C21.5398 35.3443 20.5076 38.0287 19.7242 40.5856C19.1966 40.4338 18.6856 40.274 18.1938 40.1058ZM21.1917 19.6702C20.0265 13.707 20.8004 9.20855 22.7477 8.07974C24.8219 6.87721 29.4085 8.59176 34.2427 12.8903C34.5517 13.165 34.8619 13.4526 35.173 13.7501C33.3716 15.6871 31.5916 17.8924 29.8913 20.2954C26.9754 20.5661 24.1842 21.0008 21.6179 21.583C21.4566 20.9331 21.3137 20.2945 21.1917 19.6702ZM47.9357 26.2834C47.3222 25.2222 46.6924 24.1861 46.0503 23.1783C48.0285 23.4288 49.9238 23.7612 51.7037 24.168C51.1693 25.883 50.5033 27.6761 49.7193 29.5143C49.1569 28.4451 48.5621 27.367 47.9357 26.2834ZM37.0296 15.6457C38.2513 16.9711 39.4747 18.4509 40.678 20.0565C39.4654 19.9991 38.2378 19.9693 37 19.9693C35.7739 19.9693 34.5553 19.9985 33.3502 20.0548C34.5548 18.4642 35.7888 16.9863 37.0296 15.6457ZM26.0536 26.3018C25.4408 27.3659 24.857 28.4381 24.3034 29.5124C23.5321 27.6805 22.8723 25.8792 22.3333 24.1399C24.1022 23.7435 25.9886 23.4194 27.9542 23.1737C27.3031 24.1908 26.6681 25.2347 26.0536 26.3018ZM28.0108 42.1518C25.98 41.9249 24.0652 41.6174 22.2967 41.2319C22.8443 39.4616 23.5187 37.6218 24.3064 35.7505C24.8614 36.824 25.4475 37.8967 26.0641 38.9631C26.6921 40.0496 27.3429 41.1139 28.0108 42.1518ZM37.1029 49.6776C35.8475 48.3212 34.5954 46.8208 33.3725 45.207C34.5596 45.2536 35.7699 45.2775 37 45.2775C38.2637 45.2775 39.513 45.249 40.7426 45.1942C39.5353 46.8371 38.3163 48.3398 37.1029 49.6776ZM49.7446 35.6552C50.5733 37.5467 51.2719 39.3768 51.8265 41.117C50.0289 41.5277 48.088 41.8584 46.0431 42.1042C46.6867 41.0828 47.322 40.029 47.9463 38.9449C48.5779 37.8481 49.1776 36.7497 49.7446 35.6552ZM45.652 37.6198C44.6829 39.3026 43.6879 40.9091 42.6778 42.4255C40.838 42.5572 38.9372 42.6251 37 42.6251C35.0706 42.6251 33.1938 42.5651 31.3866 42.4476C30.3357 40.9113 29.3191 39.3001 28.3561 37.6343C27.3957 35.973 26.5119 34.2977 25.7109 32.6318C26.5117 30.962 27.3933 29.2848 28.3483 27.6265L28.3481 27.6268C29.3055 25.9641 30.3132 24.3608 31.3544 22.8341C33.1982 22.6945 35.089 22.6217 36.9999 22.6217C38.9194 22.6217 40.8127 22.6951 42.656 22.8359C43.6813 24.3514 44.6821 25.9495 45.6433 27.6125C46.6155 29.2941 47.5085 30.9601 48.3161 32.5941C47.5109 34.2561 46.6199 35.939 45.652 37.6198ZM51.1158 8.00083C53.192 9.19982 53.9994 14.0353 52.6949 20.3762C52.6117 20.7808 52.518 21.1929 52.4163 21.6106C49.844 21.0162 47.0508 20.5739 44.1264 20.2992C42.4228 17.8697 40.6574 15.661 38.8854 13.7489C39.3618 13.2899 39.8376 12.8523 40.3113 12.4393C44.8886 8.45019 49.1667 6.87522 51.1158 8.00083ZM37 27.0239C40.0576 27.0239 42.5364 29.5061 42.5364 32.5681C42.5364 35.6301 40.0576 38.1124 37 38.1124C33.9424 38.1124 31.4636 35.6301 31.4636 32.5681C31.4636 29.5061 33.9424 27.0239 37 27.0239Z" fill="#257BC2"/>
</svg>
