<svg width="50" height="50" viewBox="0 0 50 50" fill="none" xmlns="http://www.w3.org/2000/svg">
<g clip-path="url(#clip0_21567_23631)">
<path d="M30 17H20C18.6193 17 17.5 18.1193 17.5 19.5V29.5C17.5 30.8807 18.6193 32 20 32H30C31.3807 32 32.5 30.8807 32.5 29.5V19.5C32.5 18.1193 31.3807 17 30 17Z" fill="#A3ACB5"/>
<path d="M25 14.5C25.6904 14.5 26.25 13.9404 26.25 13.25C26.25 12.5596 25.6904 12 25 12C24.3096 12 23.75 12.5596 23.75 13.25C23.75 13.9404 24.3096 14.5 25 14.5Z" fill="#A3ACB5"/>
<path d="M28.9628 8.57431C26.6753 6.51181 23.4003 6.44931 21.0378 8.57431C19.7878 9.69931 21.5003 11.5243 22.7128 10.4368C24.1128 9.17431 25.9378 9.22431 27.2878 10.4368C28.5128 11.5368 30.1878 9.68681 28.9628 8.57431Z" fill="#A3ACB5"/>
<path d="M17.9128 4.82516C16.6628 5.95016 18.3753 7.77516 19.5878 6.68766C22.8628 3.75016 27.2378 3.82516 30.4128 6.68766C31.6378 7.78766 33.3128 5.93766 32.0878 4.82516C27.9753 1.12516 22.1503 1.01266 17.9128 4.82516Z" fill="#A3ACB5"/>
<path d="M25 37C25.6904 37 26.25 36.4404 26.25 35.75C26.25 35.0596 25.6904 34.5 25 34.5C24.3096 34.5 23.75 35.0596 23.75 35.75C23.75 36.4404 24.3096 37 25 37Z" fill="#A3ACB5"/>
<path d="M21.0368 40.4242C23.3243 42.4867 26.5993 42.5492 28.9618 40.4242C30.2118 39.2992 28.4993 37.4742 27.2868 38.5617C25.8868 39.8242 24.0618 39.7742 22.7118 38.5617C21.4868 37.4617 19.8118 39.3117 21.0368 40.4242Z" fill="#A3ACB5"/>
<path d="M30.4118 42.3253C27.1368 45.2628 22.7618 45.1878 19.5868 42.3253C18.3618 41.2253 16.6868 43.0753 17.9118 44.1878C22.0243 47.8878 27.8493 48.0003 32.0868 44.1878C33.3368 43.0628 31.6243 41.2378 30.4118 42.3253Z" fill="#A3ACB5"/>
<path d="M13.75 25.75C14.4404 25.75 15 25.1904 15 24.5C15 23.8096 14.4404 23.25 13.75 23.25C13.0596 23.25 12.5 23.8096 12.5 24.5C12.5 25.1904 13.0596 25.75 13.75 25.75Z" fill="#A3ACB5"/>
<path d="M9.07431 20.5368C7.01181 22.8243 6.94931 26.0993 9.07431 28.4618C10.1993 29.7118 12.0243 27.9993 10.9368 26.7868C9.67431 25.3868 9.72431 23.5618 10.9368 22.2118C12.0368 20.9868 10.1868 19.3118 9.07431 20.5368Z" fill="#A3ACB5"/>
<path d="M7.17594 19.0868C8.27594 17.8618 6.42594 16.1868 5.31344 17.4118C1.61344 21.5243 1.50094 27.3493 5.31344 31.5868C6.43844 32.8368 8.26344 31.1243 7.17594 29.9118C4.23844 26.6368 4.31344 22.2618 7.17594 19.0868Z" fill="#A3ACB5"/>
<path d="M36.25 25.75C36.9404 25.75 37.5 25.1904 37.5 24.5C37.5 23.8096 36.9404 23.25 36.25 23.25C35.5596 23.25 35 23.8096 35 24.5C35 25.1904 35.5596 25.75 36.25 25.75Z" fill="#A3ACB5"/>
<path d="M40.9242 20.5378C39.7992 19.2878 37.9742 21.0003 39.0617 22.2128C40.3242 23.6128 40.2742 25.4378 39.0617 26.7878C37.9617 28.0128 39.8117 29.6878 40.9242 28.4628C42.9867 26.1753 43.0492 22.9003 40.9242 20.5378Z" fill="#A3ACB5"/>
<path d="M44.6742 17.4128C43.5492 16.1628 41.7242 17.8753 42.8117 19.0878C45.7492 22.3628 45.6742 26.7378 42.8117 29.9128C41.7117 31.1378 43.5617 32.8128 44.6742 31.5878C48.3742 27.4753 48.4867 21.6503 44.6742 17.4128Z" fill="#A3ACB5"/>
</g>
<defs>
<clipPath id="clip0_21567_23631">
<rect width="50" height="50" fill="white"/>
</clipPath>
</defs>
</svg>
