<svg width="50" height="45" viewBox="0 0 50 45" fill="none" xmlns="http://www.w3.org/2000/svg">
<path d="M31.8323 31.5358V35.476H36.3344C36.5217 34.9069 37.0547 34.4963 37.6886 34.4963C38.4738 34.4963 39.1149 35.1374 39.1149 35.9226C39.1149 36.7078 38.4738 37.3561 37.6886 37.3561C37.0475 37.3561 36.5145 36.9383 36.32 36.362H30.9463V31.5358H27.8489V38.9912H32.4302C32.6175 38.4222 33.1505 38.0188 33.7844 38.0188C34.5696 38.0188 35.2107 38.6599 35.2107 39.4522C35.2107 40.2446 34.5696 40.8785 33.7844 40.8785C33.1433 40.8785 32.6031 40.4607 32.4158 39.8844H26.9629V31.5502L27.5536 31.5358H23.0515L23.6422 31.5502V39.8844H18.1893C18.002 40.4607 17.4617 40.8785 16.8278 40.8785C16.0355 40.8785 15.3944 40.2374 15.3944 39.4522C15.3944 38.6671 16.0355 38.0188 16.8278 38.0188C17.4545 38.0188 17.9876 38.4222 18.1821 38.9912H22.7562V31.5358H19.6587V36.362H14.1986C14.0185 36.9455 13.4783 37.3633 12.8444 37.3633C12.052 37.3633 11.4109 36.7222 11.4109 35.9298C11.4109 35.1374 12.052 34.5036 12.8444 34.5036C13.4711 34.5036 14.0041 34.9141 14.1986 35.476H18.7727V31.5358H12.3906C8.31352 31.5358 5 28.2295 5 24.1452C5 20.7812 7.24743 17.9431 10.3232 17.0499C10.1432 16.5169 10.0423 15.9406 10.0423 15.3499C10.0423 12.3894 12.441 9.99068 15.4016 9.99068C16.1147 9.99068 16.799 10.1347 17.4185 10.3869C18.9312 7.18859 22.1871 4.98438 25.9544 4.98438C31.0832 4.98438 35.2539 9.06865 35.3908 14.1614C35.6861 14.1326 35.9887 14.111 36.2912 14.111C41.103 14.111 45 18.0152 45 22.827C45 25.2329 44.0276 27.4083 42.45 28.9858C40.8725 30.5633 38.6971 31.5358 36.2912 31.5358H31.8323Z" fill="#A3ACB5"/>
</svg>
