<svg width="60" height="60" viewBox="0 0 60 60" fill="none" xmlns="http://www.w3.org/2000/svg">
<path d="M60 30C60 46.5685 46.5685 60 30 60C13.4315 60 0 46.5685 0 30C0 13.4315 13.4315 0 30 0C46.5685 0 60 13.4315 60 30Z" fill="#121314"/>
<path d="M40.4763 17.9619C37.9263 15.7306 34.6538 14.2963 31.0625 14.0625V23.6675C32.0294 23.8269 32.9219 24.2094 33.6869 24.7513L40.4763 17.9619Z" fill="#6981F1"/>
<path d="M28.9372 23.6675V14.0625C25.3459 14.2963 22.0734 15.7306 19.5234 17.9619L26.3128 24.7513C27.0778 24.2094 27.9703 23.8269 28.9372 23.6675Z" fill="#6981F1"/>
<path d="M23.625 29.945C23.625 28.5744 24.0712 27.2994 24.8044 26.2581L18.015 19.4688C15.5606 22.2738 14.0625 25.9287 14.0625 29.945C14.0625 30.5294 14.5406 31.0075 15.125 31.0075H22.5625C23.1469 31.0075 23.625 30.5294 23.625 29.945Z" fill="#6981F1"/>
<path d="M41.9847 19.4688L35.1953 26.2581C35.9391 27.2994 36.3747 28.5744 36.3747 29.945C36.3747 30.5294 36.8528 31.0075 37.4372 31.0075H44.8747C45.4591 31.0075 45.9372 30.5294 45.9372 29.945C45.9372 25.9287 44.4391 22.2738 41.9847 19.4688Z" fill="#6981F1"/>
<path d="M26.207 31.2856V33.1025C26.207 35.1956 27.907 36.8956 30.0002 36.8956C32.0933 36.8956 33.7933 35.1956 33.7933 33.1025V31.2856C33.7933 29.6919 32.497 28.4062 30.9139 28.4062H29.097C27.5033 28.4062 26.2177 29.7025 26.2177 31.2856H26.207Z" fill="#6981F1"/>
<path d="M35.5144 35.2383C34.6538 37.4589 32.5075 39.0314 30 39.0314C27.4925 39.0314 25.3356 37.4483 24.4856 35.2383C22.6688 36.8002 21.5 39.1058 21.5 41.6877V42.7502C21.5 44.5033 22.9344 45.9377 24.6875 45.9377H25.75V43.8127C25.75 43.2283 26.2281 42.7502 26.8125 42.7502C27.3969 42.7502 27.875 43.2283 27.875 43.8127V45.9377H32.125V43.8127C32.125 43.2283 32.6031 42.7502 33.1875 42.7502C33.7719 42.7502 34.25 43.2283 34.25 43.8127V45.9377H35.3125C37.0656 45.9377 38.5 44.5033 38.5 42.7502V41.6877C38.5 39.1058 37.3419 36.8002 35.5144 35.2383Z" fill="#6981F1"/>
</svg>
