<svg width="60" height="60" viewBox="0 0 60 60" fill="none" xmlns="http://www.w3.org/2000/svg">
<path d="M60 30C60 46.5685 46.5685 60 30 60C13.4315 60 0 46.5685 0 30C0 13.4315 13.4315 0 30 0C46.5685 0 60 13.4315 60 30Z" fill="#121314"/>
<g clip-path="url(#clip0_21618_9579)">
<path d="M35.6306 31.6144C35.8934 31.6061 36.1427 31.4957 36.3254 31.3067C36.5082 31.1176 36.61 30.8648 36.6094 30.6019V29.3981C36.61 29.1352 36.5082 28.8824 36.3254 28.6933C36.1427 28.5043 35.8934 28.3939 35.6306 28.3856L35.5238 28.3828C35.408 27.9853 35.2496 27.6015 35.0513 27.2381L35.1244 27.1594C35.3042 26.9679 35.4022 26.7138 35.3975 26.4511C35.3928 26.1884 35.2857 25.938 35.0991 25.7531L34.2469 24.9009C34.062 24.7143 33.8116 24.6072 33.5489 24.6025C33.2862 24.5978 33.0321 24.6958 32.8406 24.8756L32.7619 24.9488C32.3985 24.7504 32.0147 24.592 31.6172 24.4763L31.6144 24.3694C31.6061 24.1066 31.4957 23.8573 31.3067 23.6746C31.1176 23.4919 30.8648 23.39 30.6019 23.3906H29.3981C29.1352 23.39 28.8824 23.4919 28.6933 23.6746C28.5043 23.8573 28.3939 24.1066 28.3856 24.3694L28.3828 24.4763C27.9853 24.592 27.6015 24.7504 27.2381 24.9488L27.1594 24.8756C26.9679 24.6958 26.7138 24.5978 26.4511 24.6025C26.1884 24.6072 25.938 24.7143 25.7531 24.9009L24.9009 25.7531C24.7143 25.938 24.6072 26.1884 24.6025 26.4511C24.5978 26.7138 24.6958 26.9679 24.8756 27.1594L24.9488 27.2381C24.7509 27.6018 24.5925 27.9855 24.4763 28.3828L24.3694 28.3856C24.1066 28.3939 23.8573 28.5043 23.6746 28.6933C23.4919 28.8824 23.39 29.1352 23.3906 29.3981V30.6019C23.39 30.8648 23.4919 31.1176 23.6746 31.3067C23.8573 31.4957 24.1066 31.6061 24.3694 31.6144L24.4763 31.6172C24.592 32.0147 24.7504 32.3985 24.9488 32.7619L24.8756 32.8406C24.6958 33.0321 24.5978 33.2862 24.6025 33.5489C24.6072 33.8116 24.7143 34.062 24.9009 34.2469L25.7531 35.0991C25.938 35.2857 26.1884 35.3928 26.4511 35.3975C26.7138 35.4022 26.9679 35.3042 27.1594 35.1244L27.2381 35.0513C27.6018 35.2491 27.9855 35.4075 28.3828 35.5238L28.3856 35.6306C28.3939 35.8934 28.5043 36.1427 28.6933 36.3254C28.8824 36.5082 29.1352 36.61 29.3981 36.6094H30.6019C30.8648 36.61 31.1176 36.5082 31.3067 36.3254C31.4957 36.1427 31.6061 35.8934 31.6144 35.6306L31.6172 35.5238C32.0147 35.408 32.3985 35.2496 32.7619 35.0513L32.8406 35.1244C33.0321 35.3042 33.2862 35.4022 33.5489 35.3975C33.8116 35.3928 34.062 35.2857 34.2469 35.0991L35.0991 34.2469C35.2857 34.062 35.3928 33.8116 35.3975 33.5489C35.4022 33.2862 35.3042 33.0321 35.1244 32.8406L35.0513 32.7619C35.2486 32.398 35.407 32.0143 35.5238 31.6172L35.6306 31.6144ZM30 32.5481C29.496 32.5481 29.0034 32.3987 28.5843 32.1187C28.1653 31.8387 27.8387 31.4407 27.6458 30.9751C27.453 30.5095 27.4025 29.9972 27.5008 29.5029C27.5992 29.0086 27.8418 28.5546 28.1982 28.1982C28.5546 27.8418 29.0086 27.5992 29.5029 27.5008C29.9972 27.4025 30.5095 27.453 30.9751 27.6458C31.4407 27.8387 31.8387 28.1653 32.1187 28.5843C32.3987 29.0034 32.5481 29.496 32.5481 30C32.5478 30.6757 32.2792 31.3236 31.8014 31.8014C31.3236 32.2792 30.6757 32.5478 30 32.5481Z" fill="#6981F1"/>
<path d="M14.1094 46.0314H41.8612V46.6994C41.8611 46.9527 41.9371 47.2003 42.0793 47.4099C42.2216 47.6196 42.4234 47.7818 42.6588 47.8755C42.8942 47.9691 43.1523 47.99 43.3997 47.9354C43.6471 47.8807 43.8724 47.7531 44.0465 47.569L47.6063 43.8076C47.8286 43.5725 47.9525 43.2613 47.9525 42.9378C47.9525 42.6143 47.8286 42.303 47.6063 42.068L44.0465 38.3063C43.8724 38.1222 43.6471 37.9946 43.3997 37.9399C43.1523 37.8853 42.8942 37.9062 42.6588 37.9998C42.4234 38.0935 42.2216 38.2557 42.0793 38.4654C41.9371 38.675 41.8611 38.9226 41.8612 39.1759V39.8439H14.1094C13.5501 39.8445 13.0139 40.0669 12.6185 40.4624C12.223 40.8578 12.0006 41.394 12 41.9533V43.922C12.0006 44.4813 12.223 45.0175 12.6185 45.4129C13.0139 45.8084 13.5501 46.0308 14.1094 46.0314Z" fill="#6981F1"/>
<path d="M36.0248 39.0002H40.6654C40.76 39.0002 40.8519 38.9684 40.9262 38.91C41.0006 38.8515 41.0532 38.7698 41.0755 38.6779C41.1872 38.2167 41.4512 37.8067 41.8247 37.5141C42.1982 37.2214 42.6595 37.0633 43.134 37.0652C43.503 37.0651 43.8653 37.1633 44.1839 37.3495C44.2346 37.3788 44.2908 37.3972 44.3489 37.4037C44.4071 37.4101 44.466 37.4045 44.5219 37.3871C44.5778 37.3698 44.6295 37.341 44.6737 37.3027C44.718 37.2644 44.7538 37.2173 44.779 37.1645C45.7924 35.0116 46.316 32.6609 46.3121 30.2814C46.2944 26.2523 44.7935 22.3708 42.0958 19.378C39.3982 16.3852 35.6928 14.4908 31.6871 14.0564V13.3671C31.6871 13.1137 31.611 12.8662 31.4688 12.6566C31.3265 12.447 31.1247 12.2848 30.8893 12.1912C30.6539 12.0976 30.3958 12.0767 30.1485 12.1314C29.9011 12.186 29.6758 12.3136 29.5018 12.4977L25.7431 16.4721C25.5185 16.706 25.3929 17.0176 25.3926 17.3419C25.3923 17.6662 25.5173 17.9781 25.7415 18.2124L29.5018 22.1893C29.6758 22.3733 29.901 22.5009 30.1482 22.5556C30.3955 22.6103 30.6535 22.5895 30.8889 22.496C31.1242 22.4024 31.3261 22.2405 31.4684 22.0309C31.6107 21.8214 31.6869 21.5741 31.6871 21.3208V20.5808C33.5931 20.911 35.3595 21.7959 36.7651 23.1248C38.1708 24.4537 39.1533 26.1677 39.5898 28.0522C40.0262 29.9367 39.8973 31.9081 39.219 33.7197C38.5407 35.5313 37.3433 37.1027 35.7765 38.2372C35.706 38.2904 35.6538 38.3643 35.6274 38.4485C35.6009 38.5328 35.6013 38.6232 35.6286 38.7072C35.656 38.7912 35.7088 38.8645 35.7798 38.9171C35.8509 38.9696 35.9365 38.9986 36.0248 39.0002Z" fill="#6981F1"/>
<path d="M25.6035 15.3929C25.6656 15.3246 25.7037 15.2379 25.712 15.1459C25.7203 15.054 25.6984 14.9619 25.6496 14.8835C25.6008 14.8051 25.5278 14.7448 25.4416 14.7118C25.3554 14.6787 25.2608 14.6746 25.1721 14.7002C22.798 15.434 20.6232 16.701 18.8139 18.4043C17.0046 20.1075 15.6087 22.202 14.733 24.5275C13.8573 26.8529 13.525 29.3479 13.7615 31.8215C13.9979 34.2951 14.7969 36.6819 16.0973 38.7994C16.135 38.8607 16.1878 38.9114 16.2507 38.9466C16.3136 38.9817 16.3844 39.0002 16.4564 39.0002H23.9689C24.0572 38.9988 24.1429 38.9698 24.2139 38.9173C24.285 38.8648 24.3379 38.7914 24.3652 38.7074C24.3926 38.6234 24.393 38.533 24.3665 38.4488C24.34 38.3645 24.2878 38.2906 24.2172 38.2375C22.7819 37.1964 21.6547 35.7867 20.9549 34.1576C20.2551 32.5284 20.0088 30.7403 20.242 28.9826C20.4752 27.2249 21.1793 25.5629 22.2797 24.1726C23.3801 22.7822 24.836 21.7153 26.4931 21.0846C26.5574 21.0592 26.6146 21.0186 26.6596 20.9661C26.7046 20.9137 26.7362 20.851 26.7515 20.7836C26.7668 20.7162 26.7655 20.6461 26.7475 20.5794C26.7296 20.5126 26.6957 20.4512 26.6487 20.4006L25.1271 18.7913C24.7533 18.3999 24.5455 17.8791 24.5471 17.338C24.5487 16.7968 24.7597 16.2773 25.1358 15.8882L25.6035 15.3929Z" fill="#6981F1"/>
</g>
<defs>
<clipPath id="clip0_21618_9579">
<rect width="36" height="36" fill="white" transform="translate(12 12)"/>
</clipPath>
</defs>
</svg>
