<svg width="60" height="60" viewBox="0 0 60 60" fill="none" xmlns="http://www.w3.org/2000/svg">
<path d="M60 30C60 46.5685 46.5685 60 30 60C13.4315 60 0 46.5685 0 30C0 13.4315 13.4315 0 30 0C46.5685 0 60 13.4315 60 30Z" fill="#121314"/>
<path d="M18.8008 35.7305V49.9488C18.8008 50.7052 19.3705 51.1559 20.0985 50.9508L20.726 50.7732V37.3362C20.0384 36.8556 19.4884 36.3193 18.8008 35.7305Z" fill="#6981F1"/>
<path d="M35.1641 39.4937V49.534L37.2268 50.1282V38.6484C36.5392 38.9777 35.8516 39.2605 35.1641 39.4937Z" fill="#6981F1"/>
<path d="M22.7871 38.582V50.1899L24.8499 49.6064V39.4478C24.1623 39.2075 23.4747 38.9188 22.7871 38.582Z" fill="#6981F1"/>
<path d="M31.0391 40.2761V48.3803C31.3141 48.4053 31.361 48.4375 31.5 48.4775L33.1018 48.9389V40.0234C32.4142 40.1508 31.7266 40.2354 31.0391 40.2761Z" fill="#6981F1"/>
<path d="M39.2891 50.7236L40.0534 50.9439C40.7802 51.1531 41.3518 50.7053 41.3518 49.949V35.7305C40.8017 36.3589 40.1142 36.9274 39.2891 37.4326V50.7236Z" fill="#6981F1"/>
<path d="M26.9141 40V49.0233L28.861 48.4725C28.8983 48.4621 28.9768 48.4524 28.9768 48.4431V40.2697C28.2892 40.2232 27.6016 40.1334 26.9141 40Z" fill="#6981F1"/>
<path d="M44.2438 24.122C44.2438 16.3226 37.9213 10 30.1218 10C22.3226 10 16 16.3226 16 24.122C16 31.9213 22.3226 38.2439 30.1217 38.2439C37.9213 38.2441 44.2438 31.9215 44.2438 24.122ZM30.0829 31.2938L25.3349 33.79C25.033 33.9486 24.7034 34.027 24.3752 34.027C23.9475 34.027 23.5217 33.8941 23.1624 33.633C22.5272 33.1716 22.209 32.3893 22.3418 31.6155L23.249 26.3285L19.4077 22.5845C18.8453 22.0365 18.6429 21.2167 18.8856 20.4699C19.1284 19.7231 19.7739 19.1788 20.5508 19.0659L25.8591 18.2948L28.2332 13.4847C28.5807 12.7806 29.2978 12.3349 30.0829 12.3349C30.8681 12.3349 31.5851 12.7806 31.9326 13.4847L34.3066 18.2948L39.6146 19.0659C40.3915 19.1787 41.0372 19.723 41.2798 20.4697C41.5225 21.2165 41.32 22.0363 40.7577 22.5843L36.9166 26.3284L37.8233 31.6155C37.956 32.3894 37.6378 33.1714 37.0026 33.633C36.6433 33.894 36.2176 34.0268 35.79 34.0268C35.4617 34.0268 35.1321 33.9486 34.8302 33.7898L30.0829 31.2938Z" fill="#6981F1"/>
<path d="M30.0833 28.964L35.7906 31.965L34.7006 25.609L39.3183 21.1081L32.9371 20.181L30.0833 14.3984L27.2292 20.181L20.8477 21.1081L25.4656 25.609L24.3752 31.965L30.0833 28.964Z" fill="#6981F1"/>
</svg>
