<svg width="60" height="60" viewBox="0 0 60 60" fill="none" xmlns="http://www.w3.org/2000/svg">
<path d="M60 30C60 46.5685 46.5685 60 30 60C13.4315 60 0 46.5685 0 30C0 13.4315 13.4315 0 30 0C46.5685 0 60 13.4315 60 30Z" fill="#121314"/>
<path fill-rule="evenodd" clip-rule="evenodd" d="M27.1636 23.0099C27.1636 22.8732 27.1093 22.742 27.0126 22.6453C26.9159 22.5486 26.7847 22.4943 26.648 22.4943C26.5112 22.4943 26.3801 22.5486 26.2834 22.6453C26.1867 22.742 26.1324 22.8732 26.1324 23.0099C26.1324 24.7794 27.5951 26.2452 29.4848 26.4738V27.7706C29.4848 27.9074 29.5391 28.0385 29.6358 28.1352C29.7325 28.2319 29.8637 28.2862 30.0004 28.2862C30.1372 28.2862 30.2683 28.2319 30.365 28.1352C30.4617 28.0385 30.516 27.9074 30.516 27.7706V26.4738C32.4057 26.2452 33.8684 24.7794 33.8684 23.0099C33.8684 21.2405 32.4059 19.7742 30.5161 19.5455V14.6258C31.835 14.8369 32.8374 15.8434 32.8374 17.0492C32.8374 17.186 32.8917 17.3171 32.9884 17.4138C33.0851 17.5105 33.2163 17.5648 33.353 17.5648C33.4898 17.5648 33.6209 17.5105 33.7176 17.4138C33.8143 17.3171 33.8686 17.186 33.8686 17.0492C33.8686 15.2798 32.406 13.8135 30.5163 13.5852V12.2893C30.5163 12.1526 30.462 12.0214 30.3653 11.9247C30.2686 11.828 30.1374 11.7737 30.0007 11.7737C29.8639 11.7737 29.7328 11.828 29.6361 11.9247C29.5394 12.0214 29.485 12.1526 29.485 12.2893V13.5852C27.5954 13.8135 26.1326 15.2798 26.1326 17.0492C26.1326 18.8187 27.5951 20.2846 29.4849 20.5135V25.4332C28.1662 25.2216 27.1637 24.2163 27.1637 23.0098L27.1636 23.0099ZM32.8375 23.0099C32.8375 24.2163 31.8351 25.2216 30.5162 25.4334V20.5865C31.8351 20.7976 32.8375 21.8042 32.8375 23.0099ZM27.1636 17.0492C27.1636 15.8436 28.1661 14.8371 29.4848 14.6258V19.4727C28.1661 19.2611 27.1636 18.2549 27.1636 17.0492ZM30.0005 32.0591C23.3673 32.0591 17.971 26.6631 17.971 20.0295C17.971 13.3959 23.3674 8 30.0005 8C36.6336 8 42.03 13.396 42.03 20.0295C42.03 26.663 36.6338 32.0591 30.0005 32.0591ZM29.5834 51.7876C29.6312 51.8533 29.6939 51.9068 29.7663 51.9436C29.8388 51.9805 29.9189 51.9997 30.0002 51.9997C30.0814 51.9997 30.1615 51.9805 30.234 51.9436C30.3064 51.9068 30.3691 51.8533 30.417 51.7876L35.6089 44.6481C35.6648 44.5712 35.6984 44.4803 35.7059 44.3855C35.7134 44.2907 35.6945 44.1957 35.6514 44.1109C35.6082 44.0261 35.5424 43.955 35.4614 43.9053C35.3803 43.8556 35.287 43.8292 35.1919 43.8292H32.6359V36.1052C32.6357 35.9685 32.5813 35.8374 32.4847 35.7407C32.388 35.6441 32.2569 35.5897 32.1202 35.5895H27.8809C27.7441 35.5897 27.6131 35.6441 27.5164 35.7407C27.4197 35.8374 27.3654 35.9685 27.3652 36.1052V43.8292H24.8088C24.7136 43.8292 24.6204 43.8555 24.5392 43.9052C24.4581 43.9549 24.3924 44.0261 24.3492 44.1108C24.306 44.1956 24.2871 44.2906 24.2946 44.3855C24.3021 44.4803 24.3357 44.5712 24.3916 44.6481L29.5834 51.7876H29.5834ZM19.4903 46.2336C19.538 46.2995 19.6006 46.3532 19.6731 46.3903C19.7456 46.4273 19.8258 46.4466 19.9071 46.4466C19.9885 46.4466 20.0687 46.4273 20.1412 46.3903C20.2136 46.3532 20.2763 46.2995 20.3239 46.2336L25.5158 39.0949C25.5718 39.018 25.6055 38.9271 25.613 38.8322C25.6206 38.7374 25.6017 38.6423 25.5586 38.5575C25.5154 38.4727 25.4496 38.4014 25.3685 38.3517C25.2874 38.302 25.194 38.2757 25.0989 38.2757H22.5422V30.5516C22.5422 30.4839 22.5289 30.4168 22.503 30.3542C22.4772 30.2916 22.4392 30.2348 22.3913 30.1869C22.3434 30.139 22.2865 30.101 22.2239 30.0751C22.1613 30.0492 22.0943 30.0359 22.0265 30.036H17.7873C17.6506 30.036 17.5194 30.0903 17.4227 30.187C17.326 30.2837 17.2717 30.4149 17.2717 30.5516V38.2758H14.7152C14.62 38.2757 14.5267 38.302 14.4455 38.3517C14.3644 38.4014 14.2985 38.4726 14.2554 38.5574C14.2122 38.6423 14.1933 38.7374 14.2008 38.8323C14.2084 38.9271 14.242 39.0181 14.2981 39.095L19.4903 46.2336ZM40.0943 46.4468C40.1757 46.4468 40.256 46.4275 40.3285 46.3904C40.401 46.3534 40.4637 46.2996 40.5113 46.2336L45.7032 39.0949C45.7592 39.018 45.7929 38.9271 45.8004 38.8322C45.808 38.7373 45.7891 38.6422 45.7459 38.5574C45.7027 38.4726 45.6369 38.4014 45.5558 38.3516C45.4746 38.3019 45.3813 38.2756 45.2861 38.2757H42.7295V30.5516C42.7295 30.4839 42.7163 30.4168 42.6904 30.3542C42.6645 30.2916 42.6265 30.2348 42.5786 30.1869C42.5307 30.139 42.4738 30.101 42.4113 30.0751C42.3487 30.0492 42.2816 30.0359 42.2139 30.036H37.9745C37.8377 30.036 37.7066 30.0903 37.6099 30.187C37.5132 30.2837 37.4588 30.4149 37.4588 30.5516V38.2758H34.9021C34.807 38.2758 34.7136 38.3021 34.6325 38.3518C34.5514 38.4015 34.4856 38.4727 34.4424 38.5576C34.3993 38.6424 34.3804 38.7375 34.388 38.8323C34.3955 38.9272 34.4292 39.0181 34.4852 39.095L39.6771 46.2336C39.7247 46.2996 39.7874 46.3533 39.8599 46.3904C39.9324 46.4274 40.0126 46.4467 40.094 46.4467L40.0943 46.4468Z" fill="#6981F1"/>
</svg>
