<svg width="52" height="52" viewBox="0 0 52 52" fill="none" xmlns="http://www.w3.org/2000/svg">
<g clip-path="url(#clip0_21430_42619)">
<path d="M46.4736 1.21875H0V13.6439H46.4736V1.21875ZM9.37033 10.5891H6.28101V7.49976H9.37033V10.5891ZM15.5486 10.5891H12.4593V7.49976H15.5486V10.5891ZM40.0553 10.5891H18.6375V7.49976H40.0553V10.5891Z" fill="white"/>
<path d="M16.9682 22.9453H11.0391L14.0038 26.6508L16.9682 22.9453Z" fill="white"/>
<path d="M18.6401 32.4439V25.8047L15.9844 29.1245L18.6401 32.4439Z" fill="white"/>
<path d="M11.0391 35.2996H16.9682L14.0038 31.5938L11.0391 35.2996Z" fill="white"/>
<path d="M9.36719 25.8047V32.4439L12.0229 29.1245L9.36719 25.8047Z" fill="white"/>
<path d="M27.9062 41.479H31.7486L30.4247 40.1563L29.2599 38.9931L27.9062 37.6406V41.479Z" fill="white"/>
<path d="M31.9807 28.1278L32.3786 27.7299L36.2443 23.8645L37.1631 22.9453H27.9062V37.1311L28.6287 35.5347L31.7486 28.6407L31.9807 28.1278Z" fill="white"/>
<path d="M37.1719 41.4781V39.3203L33.8616 40.7926L32.3203 41.4781H37.1719Z" fill="white"/>
<path d="M41.3165 37.4793L40.7936 37.7118L40.2612 37.949V44.5708H24.8158V19.8578H40.2505L43.3406 16.7673L43.3735 16.7344H0V50.6975H46.4736V32.3222L41.3165 37.4793ZM21.5896 44.5708H6.22983V41.4815H21.5896V44.5708ZM21.7268 38.3926H6.28101V19.8578H21.7268V38.3926Z" fill="white"/>
<path d="M38.6685 35.2766L34.1728 30.7812L31.4453 36.8083L32.6101 37.972L38.4309 35.3825L38.6685 35.2766Z" fill="white"/>
<path d="M38.4281 26.0502L36.1172 28.3616L41.0918 33.3358L45.5256 28.9019L52.0006 22.4281L47.0244 17.4531L45.5256 18.9516L38.4281 26.0502Z" fill="white"/>
</g>
<defs>
<clipPath id="clip0_21430_42619">
<rect width="52" height="52" fill="white"/>
</clipPath>
</defs>
</svg>
