<svg width="55" height="55" viewBox="0 0 55 55" fill="none" xmlns="http://www.w3.org/2000/svg">
<path d="M12.9961 21.0999C11.0513 22.5721 9.77344 24.8825 9.77344 27.504C9.77344 28.0363 9.77344 39.3901 9.77344 38.7833H12.9961C12.9961 38.2856 12.9961 20.3695 12.9961 21.0999Z" fill="white"/>
<path d="M45.2227 27.4979C45.2227 24.8764 43.9448 22.566 42 21.0938C42 21.4247 42 39.1082 42 38.7772H45.2227C45.2227 37.7604 45.2227 27.0216 45.2227 27.4979Z" fill="white"/>
<path d="M27.4941 22.8789C28.3841 22.8789 29.1055 22.1575 29.1055 21.2676C29.1055 20.3777 28.3841 19.6562 27.4941 19.6562C26.6042 19.6562 25.8828 20.3777 25.8828 21.2676C25.8828 22.1575 26.6042 22.8789 27.4941 22.8789Z" fill="white"/>
<path d="M28.3892 0.588564L27.4954 0L26.6064 0.594795C23.0443 2.9758 20.3052 6.24884 18.5234 9.99056H36.4689C34.4909 5.86856 31.747 2.80414 28.3892 0.588564Z" fill="white"/>
<path d="M16.2187 20.0103V35.5546H18.9895L16.5711 45.2225H12.6992C12.0318 43.351 10.26 41.9998 8.16208 41.9998C5.49653 41.9998 3.32812 44.1682 3.32812 46.8338C3.32812 49.4993 5.49653 51.6677 8.16208 51.6677C10.26 51.6677 12.0318 50.3166 12.6992 48.4451H19.0889L22.3101 35.5546H25.8866V45.6267C24.0151 46.2941 22.6639 48.0659 22.6639 50.1638C22.6639 52.8294 24.8324 54.9978 27.4979 54.9978C30.1635 54.9978 32.3319 52.8294 32.3319 50.1638C32.3319 48.0659 30.9807 46.2941 29.1092 45.6267V35.5546H32.6857L35.9069 48.4451H42.2966C42.964 50.3166 44.7358 51.6677 46.8337 51.6677C49.4993 51.6677 51.6677 49.4993 51.6677 46.8338C51.6677 44.1682 49.4993 41.9998 46.8337 41.9998C44.7358 41.9998 42.964 43.351 42.2966 45.2225H38.4247L36.0063 35.5546H38.7771V20.0103C38.7771 17.692 38.3902 15.4047 37.7205 13.2109H17.2707C16.6068 15.3899 16.2187 17.6681 16.2187 20.0103ZM27.4979 16.4336C30.1635 16.4336 32.3319 18.602 32.3319 21.2675C32.3319 23.9331 30.1635 26.1015 27.4979 26.1015C24.8324 26.1015 22.6639 23.9331 22.6639 21.2675C22.6639 18.602 24.8324 16.4336 27.4979 16.4336Z" fill="white"/>
</svg>
