<svg width="58" height="58" viewBox="0 0 58 58" fill="none" xmlns="http://www.w3.org/2000/svg">
<g clip-path="url(#clip0_21430_42639)">
<path d="M38.0716 31.6009C38.495 31.5876 38.8965 31.4098 39.1909 31.1052C39.4854 30.8006 39.6495 30.3933 39.6484 29.9697V28.0303C39.6495 27.6067 39.4854 27.1994 39.1909 26.8948C38.8965 26.5902 38.495 26.4124 38.0716 26.3991L37.8994 26.3945C37.7129 25.7541 37.4577 25.1358 37.1381 24.5503L37.2559 24.4234C37.5457 24.115 37.7036 23.7055 37.696 23.2823C37.6884 22.8592 37.5159 22.4557 37.2152 22.1578L35.8422 20.7848C35.5443 20.4842 35.1408 20.3116 34.7177 20.304C34.2945 20.2964 33.8851 20.4543 33.5766 20.7441L33.4497 20.8619C32.8642 20.5423 32.2459 20.2871 31.6055 20.1006L31.6009 19.9284C31.5876 19.505 31.4098 19.1035 31.1052 18.8091C30.8006 18.5146 30.3933 18.3505 29.9697 18.3516H28.0303C27.6067 18.3505 27.1994 18.5146 26.8948 18.8091C26.5902 19.1035 26.4124 19.505 26.3991 19.9284L26.3945 20.1006C25.7541 20.2871 25.1358 20.5423 24.5503 20.8619L24.4234 20.7441C24.115 20.4543 23.7055 20.2964 23.2823 20.304C22.8592 20.3116 22.4557 20.4842 22.1578 20.7848L20.7848 22.1578C20.4842 22.4557 20.3116 22.8592 20.304 23.2823C20.2964 23.7055 20.4543 24.115 20.7441 24.4234L20.8619 24.5503C20.5431 25.1362 20.2879 25.7544 20.1006 26.3945L19.9284 26.3991C19.505 26.4124 19.1035 26.5902 18.8091 26.8948C18.5146 27.1994 18.3505 27.6067 18.3516 28.0303V29.9697C18.3505 30.3933 18.5146 30.8006 18.8091 31.1052C19.1035 31.4098 19.505 31.5876 19.9284 31.6009L20.1006 31.6055C20.2871 32.2459 20.5423 32.8642 20.8619 33.4497L20.7441 33.5766C20.4543 33.8851 20.2964 34.2945 20.304 34.7177C20.3116 35.1408 20.4842 35.5443 20.7848 35.8422L22.1578 37.2152C22.4557 37.5159 22.8592 37.6884 23.2823 37.696C23.7055 37.7036 24.115 37.5457 24.4234 37.2559L24.5503 37.1381C25.1362 37.4569 25.7544 37.7121 26.3945 37.8994L26.3991 38.0716C26.4124 38.495 26.5902 38.8965 26.8948 39.1909C27.1994 39.4854 27.6067 39.6495 28.0303 39.6484H29.9697C30.3933 39.6495 30.8006 39.4854 31.1052 39.1909C31.4098 38.8965 31.5876 38.495 31.6009 38.0716L31.6055 37.8994C32.2459 37.7129 32.8642 37.4577 33.4497 37.1381L33.5766 37.2559C33.8851 37.5457 34.2945 37.7036 34.7177 37.696C35.1408 37.6884 35.5443 37.5159 35.8422 37.2152L37.2152 35.8422C37.5159 35.5443 37.6884 35.1408 37.696 34.7177C37.7036 34.2945 37.5457 33.8851 37.2559 33.5766L37.1381 33.4497C37.4561 32.8635 37.7113 32.2453 37.8994 31.6055L38.0716 31.6009ZM29 33.1053C28.1881 33.1053 27.3943 32.8645 26.7192 32.4134C26.0441 31.9623 25.5179 31.3212 25.2072 30.571C24.8965 29.8209 24.8152 28.9955 24.9736 28.1991C25.132 27.4027 25.523 26.6712 26.0971 26.0971C26.6712 25.523 27.4027 25.132 28.1991 24.9736C28.9955 24.8152 29.8209 24.8965 30.571 25.2072C31.3212 25.5179 31.9623 26.0441 32.4134 26.7192C32.8645 27.3943 33.1053 28.1881 33.1053 29C33.1047 30.0886 32.672 31.1325 31.9022 31.9022C31.1325 32.672 30.0886 33.1047 29 33.1053Z" fill="white"/>
<path d="M3.39844 54.8264H48.1096V55.9026C48.1096 56.3108 48.232 56.7096 48.4612 57.0474C48.6903 57.3852 49.0155 57.6465 49.3948 57.7974C49.774 57.9483 50.1899 57.9819 50.5884 57.8939C50.987 57.8059 51.35 57.6003 51.6304 57.3037L57.3656 51.2436C57.7238 50.8649 57.9234 50.3635 57.9234 49.8423C57.9234 49.3211 57.7238 48.8196 57.3656 48.441L51.6304 42.3804C51.35 42.0838 50.987 41.8782 50.5884 41.7902C50.1899 41.7021 49.774 41.7358 49.3948 41.8867C49.0155 42.0376 48.6903 42.2989 48.4612 42.6367C48.232 42.9745 48.1096 43.3733 48.1096 43.7815V44.8577H3.39844C2.49741 44.8586 1.63356 45.217 0.996439 45.8541C0.359316 46.4912 0.000959561 47.3551 0 48.2561L0 51.428C0.000959561 52.329 0.359316 53.1929 0.996439 53.83C1.63356 54.4671 2.49741 54.8255 3.39844 54.8264Z" fill="white"/>
<path d="M38.7078 43.5007H46.1844C46.3368 43.5008 46.4848 43.4496 46.6046 43.3554C46.7244 43.2612 46.8091 43.1295 46.845 42.9815C47.025 42.2385 47.4503 41.5779 48.0521 41.1064C48.6538 40.635 49.397 40.3802 50.1615 40.3832C50.756 40.3831 51.3398 40.5413 51.853 40.8413C51.9347 40.8885 52.0252 40.9182 52.1189 40.9286C52.2127 40.939 52.3075 40.9299 52.3976 40.9019C52.4876 40.8739 52.5709 40.8276 52.6422 40.7659C52.7135 40.7041 52.7712 40.6283 52.8118 40.5432C54.4445 37.0747 55.2881 33.2874 55.2818 29.4539C55.2533 22.9625 52.8352 16.709 48.4889 11.8872C44.1427 7.0655 38.1729 4.01335 31.7193 3.31353V2.20292C31.7192 1.79477 31.5967 1.39603 31.3676 1.05829C31.1384 0.720546 30.8132 0.459343 30.4339 0.308478C30.0547 0.157612 29.6389 0.124027 29.2404 0.212068C28.8418 0.300109 28.4789 0.505724 28.1985 0.80231L22.1429 7.20542C21.781 7.58225 21.5786 8.08435 21.5781 8.60684C21.5776 9.12934 21.779 9.63183 22.1402 10.0094L28.1985 16.4165C28.4788 16.713 28.8416 16.9186 29.24 17.0067C29.6384 17.0948 30.0541 17.0613 30.4333 16.9106C30.8125 16.7599 31.1377 16.4989 31.367 16.1614C31.5962 15.8239 31.719 15.4253 31.7193 15.0173V13.8251C34.7901 14.357 37.6359 15.7827 39.9005 17.9237C42.1652 20.0648 43.7482 22.8262 44.4514 25.8624C45.1546 28.8985 44.9468 32.0747 43.854 34.9933C42.7613 37.912 40.832 40.4436 38.3077 42.2714C38.1942 42.3572 38.1102 42.4762 38.0675 42.6119C38.0248 42.7477 38.0255 42.8934 38.0696 43.0287C38.1136 43.164 38.1988 43.2822 38.3132 43.3668C38.4276 43.4514 38.5655 43.4983 38.7078 43.5007Z" fill="white"/>
<path d="M21.9168 5.46312C22.0168 5.35303 22.0782 5.21333 22.0916 5.0652C22.105 4.91708 22.0697 4.76863 21.9911 4.64238C21.9124 4.51613 21.7948 4.41899 21.6559 4.36569C21.5171 4.3124 21.3646 4.30586 21.2217 4.34707C17.3968 5.52932 13.8929 7.57056 10.9779 10.3147C8.0629 13.0589 5.81401 16.4332 4.40318 20.1799C2.99235 23.9265 2.45694 27.9461 2.8379 31.9314C3.21886 35.9167 4.50609 39.7621 6.60117 43.1735C6.66198 43.2724 6.74708 43.354 6.84837 43.4106C6.94966 43.4673 7.06376 43.497 7.17981 43.4971H19.2832C19.4255 43.4947 19.5636 43.448 19.678 43.3635C19.7925 43.2789 19.8777 43.1607 19.9218 43.0254C19.9658 42.8901 19.9665 42.7444 19.9238 42.6086C19.8811 42.4729 19.797 42.3539 19.6833 42.2682C17.3708 40.591 15.5548 38.3198 14.4273 35.695C13.2999 33.0702 12.9031 30.1895 13.2788 27.3576C13.6545 24.5257 14.7889 21.8481 16.5618 19.6081C18.3347 17.3681 20.6802 15.6491 23.35 14.633C23.4536 14.5922 23.5457 14.5267 23.6182 14.4422C23.6908 14.3577 23.7416 14.2568 23.7663 14.1482C23.791 14.0396 23.7888 13.9266 23.7599 13.8191C23.7311 13.7115 23.6764 13.6126 23.6006 13.531L21.1492 10.9382C20.547 10.3077 20.2122 9.46868 20.2148 8.59682C20.2174 7.72496 20.5573 6.88794 21.1632 6.26107L21.9168 5.46312Z" fill="white"/>
</g>
<defs>
<clipPath id="clip0_21430_42639">
<rect width="58" height="58" fill="white"/>
</clipPath>
</defs>
</svg>
