<svg width="110" height="37" viewBox="0 0 110 37" fill="none" xmlns="http://www.w3.org/2000/svg">
<path d="M108.999 8.94898H105.277L102.316 23.79H98.9201L101.881 8.94898H98.207L98.7509 6.19348H109.543L108.999 8.94898Z" fill="#C3C9D0"/>
<path d="M92.5067 19.5233C92.6598 18.7256 92.5913 18.1294 92.3012 17.7346C92.0192 17.3318 91.4391 16.8927 90.5609 16.4173C88.9415 15.7566 87.7611 14.9711 87.0199 14.0606C86.2867 13.1421 86.0651 11.9537 86.3552 10.4954C86.6452 9.04513 87.3341 7.9252 88.4218 7.13562C89.5095 6.33797 90.8026 5.93915 92.3012 5.93915C93.8965 5.93915 95.1292 6.42257 95.9994 7.38941C96.8695 8.35626 97.1233 9.66955 96.7608 11.3293L96.7366 11.3897H93.4131C93.5742 10.5679 93.5017 9.91529 93.1956 9.43187C92.8894 8.94039 92.41 8.69465 91.7574 8.69465C91.3223 8.69465 90.9074 8.86788 90.5126 9.21433C90.1178 9.56078 89.872 9.97975 89.7754 10.4712C89.6223 11.2286 89.7069 11.7926 90.0292 12.1632C90.3514 12.5338 91.0605 12.989 92.1562 13.5289C93.6467 14.1493 94.7224 14.9187 95.383 15.8372C96.0437 16.7557 96.221 17.9763 95.9148 19.4991C95.6086 21.0058 94.9198 22.1418 93.8482 22.9072C92.7766 23.6646 91.4834 24.0433 89.9687 24.0433C88.4057 24.0433 87.0964 23.6082 86.0409 22.738C84.9935 21.8598 84.6713 20.5022 85.0741 18.6652L85.0983 18.6048H88.4218C88.2123 19.628 88.3251 20.333 88.7602 20.7198C89.2033 21.1065 89.7874 21.2999 90.5126 21.2999C90.9315 21.2999 91.3424 21.1307 91.7453 20.7923C92.1481 20.4458 92.4019 20.0228 92.5067 19.5233Z" fill="#C3C9D0"/>
<path d="M83.7374 16.0674H78.1781L77.175 21.0466H83.7253L83.1815 23.79H73.2109L76.7278 6.19348H86.6742L86.1303 8.94898H79.5921L78.7219 13.3239H84.2812L83.7374 16.0674Z" fill="#C3C9D0"/>
<path d="M75.2611 8.94898H71.5388L68.5778 23.79H65.1818L68.1427 8.94898H64.4688L65.0126 6.19348H75.8049L75.2611 8.94898Z" fill="#C3C9D0"/>
<path d="M58.7684 19.5233C58.9215 18.7256 58.853 18.1294 58.5629 17.7346C58.281 17.3318 57.7008 16.8927 56.8226 16.4173C55.2032 15.7566 54.0228 14.9711 53.2816 14.0606C52.5484 13.1421 52.3268 11.9537 52.6169 10.4954C52.9069 9.04513 53.5958 7.9252 54.6835 7.13562C55.7712 6.33797 57.0643 5.93915 58.5629 5.93915C60.1582 5.93915 61.391 6.42257 62.2611 7.38941C63.1313 8.35626 63.3851 9.66955 63.0225 11.3293L62.9983 11.3897H59.6748C59.836 10.5679 59.7634 9.91529 59.4573 9.43187C59.1511 8.94039 58.6717 8.69465 58.0191 8.69465C57.584 8.69465 57.1691 8.86788 56.7743 9.21433C56.3795 9.56078 56.1338 9.97975 56.0371 10.4712C55.884 11.2286 55.9686 11.7926 56.2909 12.1632C56.6132 12.5338 57.3222 12.989 58.4179 13.5289C59.9085 14.1493 60.9841 14.9187 61.6447 15.8372C62.3054 16.7557 62.4827 17.9763 62.1765 19.4991C61.8703 21.0058 61.1815 22.1418 60.1099 22.9072C59.0383 23.6646 57.7452 24.0433 56.2304 24.0433C54.6674 24.0433 53.3581 23.6082 52.3027 22.738C51.2553 21.8598 50.933 20.5022 51.3358 18.6652L51.36 18.6048H54.6835C54.474 19.628 54.5868 20.333 55.0219 20.7198C55.465 21.1065 56.0492 21.2999 56.7743 21.2999C57.1933 21.2999 57.6042 21.1307 58.007 20.7923C58.4099 20.4458 58.6637 20.0228 58.7684 19.5233Z" fill="#C3C9D0"/>
<path d="M46.2398 20.0556H41.9978L40.3542 23.79H36.9219L45.1279 6.19348H48.669L49.8292 23.79H46.3969L46.2398 20.0556ZM43.2063 17.288H46.131L45.9014 11.354L45.8289 11.3419L43.2063 17.288Z" fill="#C3C9D0"/>
<path d="M38.0879 16.4783H32.4802L31.0178 23.79H27.5977L31.1145 6.19348H41.1455L40.6016 8.94898H33.9788L33.024 13.7349H38.6317L38.0879 16.4783Z" fill="#C3C9D0"/>
<path d="M25.4506 13.3841L24.9551 16.5867C24.8181 17.5536 24.5804 18.4882 24.242 19.3906C23.9036 20.2849 23.4524 21.0866 22.8885 21.7956C22.3325 22.5046 21.6477 23.0605 20.8339 23.4634C20.0282 23.8662 19.0735 24.0556 17.9697 24.0314C17.1317 24.0153 16.4106 23.8662 15.8064 23.5843C15.2021 23.2942 14.6985 22.9075 14.2957 22.424C13.9009 21.9406 13.5947 21.3847 13.3772 20.7562C13.1677 20.1278 13.0388 19.4591 12.9904 18.75C12.9421 18.041 12.9622 17.3239 13.0509 16.5988L13.5343 13.3841C13.6793 12.4172 13.921 11.4866 14.2594 10.5923C14.5978 9.68991 15.049 8.88421 15.613 8.17519C16.177 7.46617 16.8658 6.91427 17.6796 6.51947C18.4934 6.11662 19.4481 5.92728 20.5439 5.95145C21.3818 5.96757 22.1029 6.12065 22.7072 6.4107C23.3114 6.6927 23.811 7.07541 24.2058 7.55883C24.6006 8.04225 24.9027 8.59819 25.1122 9.22663C25.3297 9.85508 25.4627 10.5238 25.511 11.2328C25.5593 11.9419 25.5392 12.6589 25.4506 13.3841ZM20.9306 17.1064L21.559 12.8402C21.5832 12.5985 21.6114 12.3205 21.6436 12.0063C21.6759 11.6921 21.6839 11.3698 21.6678 11.0395C21.6598 10.7011 21.6114 10.3868 21.5228 10.0968C21.4422 9.80674 21.3012 9.56906 21.0998 9.38375C20.9064 9.19038 20.6325 9.08564 20.278 9.06952C19.7785 9.04535 19.3635 9.15412 19.0332 9.39583C18.7109 9.63754 18.4531 9.95982 18.2597 10.3627C18.0663 10.7575 17.9173 11.1805 17.8125 11.6317C17.7159 12.0748 17.6393 12.4817 17.5829 12.8523L16.9545 17.1064C16.9303 17.3481 16.9021 17.6301 16.8699 17.9524C16.8377 18.2666 16.8256 18.5929 16.8336 18.9313C16.8417 19.2697 16.886 19.5839 16.9666 19.874C17.0552 20.164 17.2002 20.4058 17.4016 20.5991C17.6031 20.7844 17.881 20.8892 18.2355 20.9133C18.7351 20.9375 19.146 20.8288 19.4683 20.587C19.7986 20.3373 20.0604 20.015 20.2538 19.6202C20.4472 19.2173 20.5922 18.7903 20.6889 18.3391C20.7936 17.8879 20.8742 17.477 20.9306 17.1064Z" fill="#C3C9D0"/>
<path d="M4.53311 15.9223L1.30629 15.1368L3.73547 6.19348H13.7664L13.2588 9.35989H6.5393L5.46369 12.8768C5.8182 12.6512 6.20897 12.49 6.63599 12.3934C7.06301 12.2886 7.48197 12.2322 7.89288 12.2242C8.73886 12.2242 9.46802 12.3813 10.0804 12.6955C10.6927 13.0017 11.1882 13.4247 11.5669 13.9645C11.9455 14.5043 12.2114 15.1247 12.3645 15.8257C12.5176 16.5266 12.5619 17.2638 12.4974 18.0373C12.4249 18.9236 12.2074 19.7373 11.8448 20.4786C11.4823 21.2198 11.0029 21.8604 10.4067 22.4002C9.81044 22.94 9.1256 23.3549 8.35213 23.645C7.57865 23.927 6.74878 24.0599 5.86251 24.0438C5.0971 24.0277 4.38003 23.8948 3.7113 23.645C3.05062 23.3872 2.46649 23.0286 1.9589 22.5694C1.45131 22.1021 1.05652 21.5502 0.774524 20.9137C0.492529 20.2691 0.35556 19.5561 0.363617 18.7745H4.33974C4.35586 19.1371 4.42031 19.4755 4.53311 19.7897C4.64591 20.1039 4.82316 20.3618 5.06487 20.5632C5.31464 20.7566 5.64498 20.8613 6.05588 20.8774C6.49096 20.8855 6.85755 20.7968 7.15566 20.6115C7.45377 20.4262 7.69951 20.1805 7.89288 19.8743C8.08625 19.5601 8.23127 19.2177 8.32796 18.847C8.4327 18.4764 8.50118 18.1138 8.53341 17.7593C8.57369 17.4048 8.57369 17.0664 8.53341 16.7442C8.49312 16.4138 8.4045 16.1238 8.26753 15.874C8.13056 15.6162 7.92913 15.4147 7.66325 15.2697C7.40543 15.1166 7.07509 15.0361 6.67224 15.028C6.26134 15.028 5.87057 15.1005 5.49995 15.2455C5.12933 15.3906 4.80705 15.6162 4.53311 15.9223Z" fill="#C3C9D0"/>
<path d="M107.102 34.3349C107.102 33.9948 106.999 33.6984 106.795 33.4457C106.591 33.1834 106.324 32.9356 105.994 32.7024C105.673 32.4692 105.328 32.236 104.959 32.0027C104.59 31.7598 104.24 31.4926 103.909 31.2011C103.589 30.8998 103.322 30.55 103.108 30.1516C102.904 29.7532 102.802 29.2868 102.802 28.7524H104.492C104.492 29.0827 104.595 29.3791 104.799 29.6415C105.012 29.9038 105.28 30.1516 105.6 30.3848C105.931 30.618 106.28 30.8561 106.65 31.099C107.019 31.3323 107.364 31.5995 107.685 31.9007C108.015 32.1922 108.282 32.5372 108.486 32.9356C108.69 33.3243 108.792 33.7907 108.792 34.3349H107.102ZM102.802 28.7669C102.802 28.2422 102.933 27.7855 103.195 27.3968C103.458 26.9984 103.817 26.6923 104.274 26.4786C104.74 26.2551 105.27 26.1433 105.863 26.1433V27.528C105.435 27.528 105.1 27.6397 104.857 27.8632C104.614 28.077 104.492 28.3783 104.492 28.7669H102.802ZM108.792 34.3203C108.792 34.8547 108.661 35.3163 108.399 35.705C108.136 36.0937 107.777 36.3997 107.32 36.6232C106.863 36.837 106.334 36.9439 105.731 36.9439V35.5738C106.159 35.5738 106.494 35.462 106.737 35.2385C106.98 35.015 107.102 34.709 107.102 34.3203H108.792ZM107.102 28.7524C107.053 28.3442 106.912 28.0382 106.679 27.8341C106.455 27.63 106.183 27.528 105.863 27.528V26.1433C106.358 26.1433 106.8 26.2405 107.189 26.4348C107.578 26.6292 107.893 26.9012 108.136 27.2511C108.389 27.5912 108.549 27.9944 108.617 28.4608L107.102 28.7524ZM104.128 33.6935C104.177 34.2765 104.342 34.7381 104.624 35.0782C104.905 35.4086 105.275 35.5738 105.731 35.5738V36.9439C104.847 36.9439 104.128 36.6815 103.574 36.1568C103.03 35.6321 102.705 34.9033 102.598 33.9705L104.128 33.6935Z" fill="#C3C9D0"/>
<path d="M98.307 36.7253V35.3406H102.228V36.7253H98.307ZM98.4527 32.2652V30.8659H101.353V32.2652H98.4527ZM97.1992 26.3766H98.89V36.7253H97.1992V26.3766ZM98.4527 26.3766H102.082V27.7467H98.4527V26.3766Z" fill="#C3C9D0"/>
<path d="M94.2734 36.7253V26.3766H95.9642V36.7253H94.2734Z" fill="#C3C9D0"/>
<path d="M90.9193 36.7253L86.7944 26.3766H88.3394L92.4497 36.7253H90.9193ZM86.4883 36.7253V26.3766H88.1791V36.7253H86.4883ZM91.342 36.7253V26.3766H93.0327V36.7253H91.342Z" fill="#C3C9D0"/>
<path d="M81.0118 34.8159V33.4312H84.7286V34.8159H81.0118ZM83.4751 26.3766L80.9244 36.7253H79.2773L81.8281 26.3766H83.4751ZM83.5043 26.3766L86.0404 36.7253H84.3934L81.8572 26.3766H83.5043Z" fill="#C3C9D0"/>
<path d="M75.4084 27.7467V26.3766H76.6473V27.7467H75.4084ZM75.4084 32.8773V31.5072H76.6473V32.8773H75.4084ZM78.0029 30.0497V29.2043H79.6937V30.0497H78.0029ZM79.6937 29.2188H78.0029C78.0029 28.7524 77.8814 28.3929 77.6385 28.1402C77.3956 27.8779 77.0603 27.7467 76.6328 27.7467V26.3766C77.2352 26.3766 77.7648 26.4981 78.2215 26.741C78.6782 26.9839 79.0377 27.3191 79.3001 27.7467C79.5625 28.1743 79.6937 28.665 79.6937 29.2188ZM79.6937 30.0351C79.6937 30.589 79.5625 31.0797 79.3001 31.5072C79.0377 31.9348 78.6782 32.27 78.2215 32.513C77.7648 32.7559 77.2352 32.8773 76.6328 32.8773V31.5072C77.0603 31.5072 77.3956 31.3809 77.6385 31.1283C77.8814 30.8659 78.0029 30.5015 78.0029 30.0351H79.6937ZM74.082 36.7253V26.3766H75.7728V36.7253H74.082Z" fill="#C3C9D0"/>
<path d="M68.3967 36.7253L70.6851 26.3766H72.0406L69.7522 36.7253H68.3967ZM68.353 36.7253L66.0646 26.3766H67.4201L69.7085 36.7253H68.353ZM65.1172 36.7253V26.3766H66.808V36.7253H65.1172ZM71.2973 36.7253V26.3766H72.988V36.7253H71.2973Z" fill="#C3C9D0"/>
<path d="M62.475 34.1163V28.9711H64.1658V34.1163H62.475ZM58.0586 34.1163V28.9711H59.7494V34.1163H58.0586ZM64.1658 29.0002H62.475C62.475 28.5338 62.3536 28.1743 62.1106 27.9216C61.8677 27.6593 61.5325 27.5281 61.1049 27.5281V26.158C61.7074 26.158 62.2369 26.2794 62.6936 26.5224C63.1504 26.7653 63.5099 27.1005 63.7722 27.5281C64.0346 27.9556 64.1658 28.4463 64.1658 29.0002ZM58.0586 29.0002C58.0586 28.4463 58.1898 27.9556 58.4521 27.5281C58.7145 27.1005 59.074 26.7653 59.5307 26.5224C59.9972 26.2794 60.5267 26.158 61.1195 26.158V27.5281C60.6919 27.5281 60.3567 27.6593 60.1138 27.9216C59.8708 28.1743 59.7494 28.5338 59.7494 29.0002H58.0586ZM64.1658 34.1017C64.1658 34.6556 64.0346 35.1463 63.7722 35.5739C63.5099 36.0014 63.1504 36.3367 62.6936 36.5796C62.2369 36.8225 61.7074 36.944 61.1049 36.944V35.5593C61.5325 35.5593 61.8677 35.433 62.1106 35.1803C62.3536 34.918 62.475 34.5584 62.475 34.1017H64.1658ZM58.0586 34.1017H59.7494C59.7494 34.5584 59.8708 34.918 60.1138 35.1803C60.3567 35.433 60.6919 35.5593 61.1195 35.5593V36.944C60.5267 36.944 59.9972 36.8225 59.5307 36.5796C59.074 36.3367 58.7145 36.0014 58.4521 35.5739C58.1898 35.1463 58.0586 34.6556 58.0586 34.1017Z" fill="#C3C9D0"/>
<path d="M51.3672 34.1162V28.971H53.058V34.1162H51.3672ZM51.3672 28.9856C51.3672 28.4317 51.4984 27.941 51.7607 27.5134C52.0231 27.0859 52.3826 26.7506 52.8393 26.5077C53.3058 26.2648 53.8353 26.1433 54.4281 26.1433V27.5134C54.0005 27.5134 53.6653 27.6446 53.4224 27.907C53.1794 28.1596 53.058 28.5191 53.058 28.9856H51.3672ZM51.3672 34.1162H53.058C53.058 34.5729 53.1794 34.9325 53.4224 35.1948C53.6653 35.4475 54.0005 35.5738 54.4281 35.5738V36.9585C53.8353 36.9585 53.3058 36.837 52.8393 36.5941C52.3826 36.3512 52.0231 36.0159 51.7607 35.5884C51.4984 35.1608 51.3672 34.6701 51.3672 34.1162ZM56.0168 29.3937C55.9682 28.8107 55.803 28.354 55.5212 28.0236C55.2395 27.6835 54.8702 27.5134 54.4135 27.5134V26.1433C55.2978 26.1433 56.0168 26.4057 56.5707 26.9304C57.1246 27.4454 57.4501 28.1742 57.5473 29.1168L56.0168 29.3937ZM56.0168 33.6935L57.5473 33.985C57.4501 34.9179 57.1246 35.6467 56.5707 36.1714C56.0168 36.6961 55.2978 36.9585 54.4135 36.9585V35.5738C54.8702 35.5738 55.2395 35.4086 55.5212 35.0782C55.803 34.7478 55.9682 34.2863 56.0168 33.6935Z" fill="#C3C9D0"/>
<path d="M45.1808 32.4837V31.1136H48.3728V32.4837H45.1808ZM46.682 34.1308V31.1573H48.3728V34.1308H46.682ZM42.2656 34.1162V28.971H43.9564V34.1162H42.2656ZM42.2656 28.9856C42.2656 28.4317 42.3968 27.941 42.6592 27.5134C42.9215 27.0859 43.2811 26.7506 43.7378 26.5077C44.2042 26.2648 44.7338 26.1433 45.3265 26.1433V27.5134C44.899 27.5134 44.5637 27.6446 44.3208 27.907C44.0779 28.1596 43.9564 28.5191 43.9564 28.9856H42.2656ZM42.2656 34.1162H43.9564C43.9564 34.5729 44.0779 34.9325 44.3208 35.1948C44.5637 35.4475 44.899 35.5738 45.3265 35.5738V36.9585C44.7338 36.9585 44.2042 36.837 43.7378 36.5941C43.2811 36.3512 42.9215 36.0159 42.6592 35.5884C42.3968 35.1608 42.2656 34.6701 42.2656 34.1162ZM46.9153 29.3937C46.8667 28.8107 46.7015 28.354 46.4197 28.0236C46.1379 27.6835 45.7686 27.5134 45.3119 27.5134V26.1433C46.1962 26.1433 46.9153 26.4057 47.4691 26.9304C48.023 27.4454 48.3485 28.1742 48.4457 29.1168L46.9153 29.3937ZM48.3728 34.1162C48.3728 34.6701 48.2416 35.1608 47.9793 35.5884C47.7169 36.0159 47.3574 36.3512 46.9007 36.5941C46.444 36.837 45.9144 36.9585 45.3119 36.9585V35.5738C45.7395 35.5738 46.0747 35.4475 46.3177 35.1948C46.5606 34.9325 46.682 34.5729 46.682 34.1162H48.3728Z" fill="#C3C9D0"/>
<path d="M39.2708 36.7253L35.1459 26.3766H36.6909L40.8013 36.7253H39.2708ZM34.8398 36.7253V26.3766H36.5306V36.7253H34.8398ZM39.6935 36.7253V26.3766H41.3843V36.7253H39.6935Z" fill="#C3C9D0"/>
<path d="M31.9141 36.7253V26.3766H33.6048V36.7253H31.9141Z" fill="#C3C9D0"/>
<path d="M27.351 36.7253L25.3687 26.3766H26.7971L28.8522 36.7253H27.351ZM22.7305 36.7253L20.7773 26.3766H22.4244L24.3775 36.7253H22.7305ZM23.2552 36.7253L25.3104 26.3766H26.7388L24.7565 36.7253H23.2552ZM27.7299 36.7253L29.6831 26.3766H31.3301L29.377 36.7253H27.7299Z" fill="#C3C9D0"/>
<path d="M18.4945 34.1163V28.9711H20.1853V34.1163H18.4945ZM14.0781 34.1163V28.9711H15.7689V34.1163H14.0781ZM20.1853 29.0002H18.4945C18.4945 28.5338 18.3731 28.1743 18.1302 27.9216C17.8872 27.6593 17.552 27.5281 17.1244 27.5281V26.158C17.7269 26.158 18.2565 26.2794 18.7132 26.5224C19.1699 26.7653 19.5294 27.1005 19.7918 27.5281C20.0541 27.9556 20.1853 28.4463 20.1853 29.0002ZM14.0781 29.0002C14.0781 28.4463 14.2093 27.9556 14.4717 27.5281C14.734 27.1005 15.0936 26.7653 15.5503 26.5224C16.0167 26.2794 16.5463 26.158 17.139 26.158V27.5281C16.7115 27.5281 16.3762 27.6593 16.1333 27.9216C15.8904 28.1743 15.7689 28.5338 15.7689 29.0002H14.0781ZM20.1853 34.1017C20.1853 34.6556 20.0541 35.1463 19.7918 35.5739C19.5294 36.0014 19.1699 36.3367 18.7132 36.5796C18.2565 36.8225 17.7269 36.944 17.1244 36.944V35.5593C17.552 35.5593 17.8872 35.433 18.1302 35.1803C18.3731 34.918 18.4945 34.5584 18.4945 34.1017H20.1853ZM14.0781 34.1017H15.7689C15.7689 34.5584 15.8904 34.918 16.1333 35.1803C16.3762 35.433 16.7115 35.5593 17.139 35.5593V36.944C16.5463 36.944 16.0167 36.8225 15.5503 36.5796C15.0936 36.3367 14.734 36.0014 14.4717 35.5739C14.2093 35.1463 14.0781 34.6556 14.0781 34.1017Z" fill="#C3C9D0"/>
<path d="M11.7473 36.7253L9.91081 31.7696H11.587L13.4235 36.7253H11.7473ZM9.0217 32.5567V31.172H10.2606V32.5567H9.0217ZM9.0217 27.7467V26.3766H10.2606V27.7467H9.0217ZM11.6162 29.729V29.2043H13.3069V29.729H11.6162ZM13.3069 29.2188H11.6162C11.6162 28.7524 11.4947 28.3929 11.2518 28.1402C11.0088 27.8779 10.6736 27.7467 10.246 27.7467V26.3766C10.8485 26.3766 11.3781 26.4981 11.8348 26.741C12.2915 26.9839 12.651 27.3191 12.9134 27.7467C13.1758 28.1743 13.3069 28.665 13.3069 29.2188ZM13.3069 29.7144C13.3069 30.2683 13.1758 30.759 12.9134 31.1866C12.651 31.6141 12.2915 31.9494 11.8348 32.1923C11.3781 32.4352 10.8485 32.5567 10.246 32.5567V31.172C10.6736 31.172 11.0088 31.0457 11.2518 30.793C11.4947 30.5307 11.6162 30.1711 11.6162 29.7144H13.3069ZM7.69531 36.7253V26.3766H9.38609V36.7253H7.69531Z" fill="#C3C9D0"/>
<path d="M3.47763 32.4837V31.1136H6.66969V32.4837H3.47763ZM4.97892 34.1307V31.1573H6.66969V34.1307H4.97892ZM0.5625 34.1162V28.9709H2.25327V34.1162H0.5625ZM0.5625 28.9855C0.5625 28.4316 0.693681 27.9409 0.956042 27.5134C1.2184 27.0858 1.57794 26.7506 2.03464 26.5076C2.50106 26.2647 3.03064 26.1432 3.62338 26.1432V27.5134C3.19583 27.5134 2.86059 27.6445 2.61767 27.9069C2.37474 28.1596 2.25327 28.5191 2.25327 28.9855H0.5625ZM0.5625 34.1162H2.25327C2.25327 34.5729 2.37474 34.9324 2.61767 35.1948C2.86059 35.4474 3.19583 35.5737 3.62338 35.5737V36.9584C3.03064 36.9584 2.50106 36.837 2.03464 36.594C1.57794 36.3511 1.2184 36.0159 0.956042 35.5883C0.693681 35.1607 0.5625 34.67 0.5625 34.1162ZM5.21213 29.3936C5.16354 28.8106 4.99835 28.3539 4.71656 28.0235C4.43476 27.6834 4.06551 27.5134 3.60881 27.5134V26.1432C4.49306 26.1432 5.21213 26.4056 5.766 26.9303C6.31988 27.4453 6.6454 28.1741 6.74257 29.1167L5.21213 29.3936ZM6.66969 34.1162C6.66969 34.67 6.53851 35.1607 6.27615 35.5883C6.01379 36.0159 5.65426 36.3511 5.19755 36.594C4.74085 36.837 4.21127 36.9584 3.60881 36.9584V35.5737C4.03636 35.5737 4.3716 35.4474 4.61453 35.1948C4.85746 34.9324 4.97892 34.5729 4.97892 34.1162H6.66969Z" fill="#C3C9D0"/>
<path d="M37.4204 0.958496C37.8785 0.958496 38.3367 1.09875 38.664 1.31381L38.3788 1.92627C38.0328 1.72056 37.6214 1.58965 37.3596 1.58965C37.1118 1.58965 36.9435 1.67848 36.9435 1.85614C36.9435 2.45924 38.6874 2.12263 38.6827 3.30078C38.6827 3.94129 38.1263 4.28725 37.4017 4.28725C36.864 4.28725 36.3264 4.08154 35.957 3.7683L36.2516 3.1652C36.5882 3.46442 37.0651 3.6561 37.411 3.6561C37.7149 3.6561 37.8972 3.54389 37.8972 3.34286C37.8972 2.72573 36.1534 3.08572 36.1534 1.92627C36.1534 1.33251 36.663 0.958496 37.4204 0.958496Z" fill="#C3C9D0"/>
<path d="M35.3255 0.986572C35.5125 0.986572 35.6761 1.11748 35.6761 1.35124C35.6761 1.46345 35.6387 1.55695 35.5779 1.6411L35.2647 2.1133H34.9141L35.1104 1.6411C35.0122 1.57097 34.9655 1.46812 34.9655 1.35124C34.9655 1.14085 35.1198 0.986572 35.3255 0.986572Z" fill="#C3C9D0"/>
<path d="M33.598 3.20702V4.26362H32.8593V3.22572L31.6484 0.990967H32.3918L33.2287 2.45899L34.0468 0.990967H34.7902L33.598 3.20702Z" fill="#C3C9D0"/>
<path d="M31.3903 1.60342H29.6371V2.31405H31.2173V2.92651H29.6371V3.65117H31.4417V4.26362H28.8984V0.990967H31.3903V1.60342Z" fill="#C3C9D0"/>
<path d="M27.1196 0.958496C27.5778 0.958496 28.0359 1.09875 28.3632 1.31381L28.078 1.92627C27.732 1.72056 27.3206 1.58965 27.0588 1.58965C26.811 1.58965 26.6427 1.67848 26.6427 1.85614C26.6427 2.45924 28.3866 2.12263 28.3819 3.30078C28.3819 3.94129 27.8255 4.28725 27.1009 4.28725C26.5632 4.28725 26.0256 4.08154 25.6562 3.7683L25.9508 3.1652C26.2874 3.46442 26.7643 3.6561 27.1102 3.6561C27.4141 3.6561 27.5965 3.54389 27.5965 3.34286C27.5965 2.72573 25.8526 3.08572 25.8526 1.92627C25.8526 1.33251 26.3622 0.958496 27.1196 0.958496Z" fill="#C3C9D0"/>
<path d="M24.5494 4.26362L24.0305 3.32858H23.9603H23.2777V4.26362H22.5391V0.990967H23.9603C24.8159 0.990967 25.3021 1.40239 25.3021 2.12705C25.3021 2.63197 25.087 2.99664 24.6897 3.18365L25.3863 4.26362H24.5494ZM23.2777 2.71145H23.9603C24.3671 2.71145 24.6008 2.52444 24.6008 2.15042C24.6008 1.78575 24.3671 1.60342 23.9603 1.60342H23.2777V2.71145Z" fill="#C3C9D0"/>
<path d="M21.9059 1.60342H20.1527V2.31405H21.733V2.92651H20.1527V3.65117H21.9574V4.26362H19.4141V0.990967H21.9059V1.60342Z" fill="#C3C9D0"/>
<path d="M18.7552 0.990967V3.21637C18.7552 3.90363 18.3345 4.29635 17.6566 4.29635C17.2171 4.29635 16.8618 4.10934 16.5859 3.78675L16.9272 3.26313C17.1563 3.50624 17.4181 3.62779 17.6192 3.62779C17.8623 3.62779 18.0119 3.47819 18.0119 3.19767V1.61745H16.8852V0.990967H18.7552Z" fill="#C3C9D0"/>
<path d="M14.4287 4.26362H13.6667L13.0074 1.93069L12.3342 4.26362H11.5722L10.4922 0.990967H11.287L11.9742 3.45948L12.6568 0.990967H13.3815L14.0734 3.45948L14.756 0.990967H15.5134L14.4287 4.26362Z" fill="#C3C9D0"/>
<path d="M10.2184 1.60342H8.46525V2.31405H10.0455V2.92651H8.46525V3.65117H10.2699V4.26362H7.72656V0.990967H10.2184V1.60342Z" fill="#C3C9D0"/>
<path d="M7.00705 4.26362H6.33382L4.74892 2.16445V4.26362H4.04297V0.990967H4.7162L6.30577 3.09482V0.990967H7.00705V4.26362Z" fill="#C3C9D0"/>
</svg>
