<svg width="38" height="41" viewBox="0 0 38 41" fill="none" xmlns="http://www.w3.org/2000/svg">
<path d="M18.6559 21.1248L15.4135 17.8824C15.3294 17.7911 15.2272 17.7183 15.1136 17.6685C14.9999 17.6187 14.8772 17.593 14.7531 17.593C14.629 17.593 14.5062 17.6187 14.3926 17.6685C14.2789 17.7183 14.1768 17.7911 14.0927 17.8824L12.8116 19.2031C12.724 19.2853 12.6542 19.3845 12.6065 19.4947C12.5588 19.6049 12.5342 19.7236 12.5342 19.8437C12.5342 19.9638 12.5588 20.0826 12.6065 20.1927C12.6542 20.3029 12.724 20.4021 12.8116 20.4843L17.3946 24.9814C17.5612 25.1549 17.7611 25.2929 17.9824 25.3871C18.2037 25.4813 18.4418 25.5298 18.6823 25.5295C18.9219 25.53 19.1591 25.4817 19.3793 25.3874C19.5996 25.2932 19.7984 25.155 19.9635 24.9814L29.2814 15.6239C29.3744 15.5409 29.4489 15.4391 29.4999 15.3253C29.5509 15.2115 29.5772 15.0882 29.5772 14.9635C29.5772 14.8388 29.5509 14.7155 29.4999 14.6017C29.4489 14.4879 29.3744 14.3862 29.2814 14.3031L28.0002 13.022C27.9175 12.9343 27.8177 12.8644 27.707 12.8166C27.5963 12.7688 27.477 12.7441 27.3564 12.7441C27.2358 12.7441 27.1165 12.7688 27.0057 12.8166C26.895 12.8644 26.7952 12.9343 26.7125 13.022L18.6559 21.1248Z" fill="white"/>
<path d="M33.1177 23.4692C33.4699 21.5925 33.4699 19.6667 33.1177 17.79L36.1554 15.2145C36.6503 14.7954 36.986 14.2189 37.1063 13.5816C37.2265 12.9444 37.1239 12.2851 36.8158 11.7145L35.495 9.40321C35.25 8.9934 34.9011 8.65549 34.4837 8.42359C34.0663 8.1917 33.5951 8.07403 33.1177 8.08246C32.7985 8.07759 32.4823 8.14533 32.1931 8.28057L28.363 9.66736C26.9322 8.41486 25.2728 7.45065 23.4762 6.82774L22.8158 2.93152C22.6868 2.32139 22.3418 1.77835 21.8444 1.40223C21.3469 1.02612 20.7304 0.842222 20.1082 0.884352H17.4667C16.8425 0.832105 16.221 1.01214 15.7213 1.38993C15.2216 1.76773 14.879 2.31668 14.7592 2.93152L14.0988 6.76171C12.2733 7.36464 10.5886 8.33055 9.14599 9.60133L5.24977 8.21453C4.94917 8.11707 4.63938 8.05069 4.32524 8.01642C3.84891 8.0139 3.37996 8.13409 2.96357 8.36542C2.54718 8.59675 2.19738 8.93141 1.94788 9.33718L0.627129 11.6485C0.303524 12.2152 0.192259 12.8787 0.313262 13.52C0.434265 14.1613 0.779632 14.7386 1.28751 15.1485L4.32524 17.724C4.13923 18.6588 4.05071 19.6105 4.06109 20.5636C4.04762 21.5168 4.13617 22.4688 4.32524 23.4032L1.28751 26.0117C0.792608 26.4308 0.456881 27.0073 0.336642 27.6446C0.216404 28.2818 0.318968 28.9411 0.627129 29.5117L1.94788 31.823C2.19295 32.2328 2.54179 32.5707 2.9592 32.8026C3.37661 33.0345 3.84781 33.1522 4.32524 33.1438C4.64444 33.1486 4.96058 33.0809 5.24977 32.9456L9.07995 31.5589C10.5107 32.8114 12.1701 33.7756 13.9667 34.3985L14.6271 38.3607C14.7371 38.9961 15.0703 39.5713 15.5666 39.9829C16.063 40.3945 16.6899 40.6155 17.3347 40.606H19.9762C20.6277 40.6022 21.2568 40.3681 21.7523 39.9451C22.2478 39.5221 22.5777 38.9375 22.6837 38.2947L23.3441 34.3324C25.2527 33.6869 27.0066 32.6526 28.495 31.2947L32.0611 32.6815C32.3842 32.779 32.7159 32.8454 33.0516 32.8796C33.528 32.8821 33.9969 32.7619 34.4133 32.5306C34.8297 32.2993 35.1795 31.9646 35.429 31.5589L36.6837 29.3796C37.0366 28.8667 37.1786 28.2377 37.0802 27.623C36.9818 27.0082 36.6507 26.4549 36.1554 26.0777L33.1177 23.4692ZM30.879 17.3013L27.8743 20.3126V20.8277C27.8818 22.85 27.219 24.8177 25.9894 26.4232C24.7598 28.0286 23.0328 29.1813 21.0785 29.701C19.1241 30.2207 17.0527 30.078 15.188 29.2953C13.3234 28.5125 11.7708 27.1339 10.7729 25.375C9.77507 23.6161 9.38828 21.5761 9.67303 19.574C9.95779 17.5719 10.898 15.7206 12.3467 14.3097C13.7954 12.8988 15.6709 12.0078 17.6798 11.776C19.6887 11.5442 21.7178 11.9847 23.4498 13.0287L25.0677 11.4174C25.365 11.1161 25.7192 10.8768 26.1098 10.7136C26.5003 10.5503 26.9194 10.4662 27.3427 10.4662C27.766 10.4662 28.1851 10.5503 28.5756 10.7136C28.9661 10.8768 29.3203 11.1161 29.6177 11.4174L30.9384 12.7381C31.2575 13.0571 31.5063 13.4392 31.6689 13.86C31.8315 14.2808 31.9044 14.7309 31.8828 15.1815C31.8411 15.9929 31.4803 16.7549 30.879 17.3013Z" fill="white"/>
</svg>
