<svg width="35" height="35" viewBox="0 0 35 35" fill="none" xmlns="http://www.w3.org/2000/svg">
<path d="M9.81944 0H5.73611C2.56814 0 0 2.56814 0 5.73611V9.81944C0 12.9874 2.56814 15.5556 5.73611 15.5556H9.81944C12.9874 15.5556 15.5556 12.9874 15.5556 9.81944V5.73611C15.5556 2.56814 12.9874 0 9.81944 0Z" fill="white"/>
<path d="M9.81944 19.4446H5.73611C2.56814 19.4446 0 22.0127 0 25.1807V29.264C0 32.432 2.56814 35.0001 5.73611 35.0001H9.81944C12.9874 35.0001 15.5556 32.432 15.5556 29.264V25.1807C15.5556 22.0127 12.9874 19.4446 9.81944 19.4446Z" fill="white"/>
<path d="M29.2648 19.4446H25.1814C22.0135 19.4446 19.4453 22.0127 19.4453 25.1807V29.264C19.4453 32.432 22.0135 35.0001 25.1814 35.0001H29.2648C32.4327 35.0001 35.0009 32.432 35.0009 29.264V25.1807C35.0009 22.0127 32.4327 19.4446 29.2648 19.4446Z" fill="white"/>
<path d="M35.0009 7.7843C32.4113 8.50069 30.826 9.15804 29.7118 10.2662C28.5983 11.3743 27.9389 12.961 27.2231 15.5556C25.7934 10.3692 24.6335 9.20819 19.4453 7.78453C24.6246 6.35355 25.7844 5.19274 27.2231 0C28.6528 5.18541 29.8126 6.34623 35.0009 7.7843Z" fill="white"/>
</svg>
