<svg width="37" height="34" viewBox="0 0 37 34" fill="none" xmlns="http://www.w3.org/2000/svg">
<path d="M34.1561 14.6327C33.9574 13.9941 33.4572 13.4943 32.8269 13.293C32.5323 9.8916 31.0729 6.70544 28.6747 4.2691C25.9546 1.52022 22.3434 0 18.4999 0C11.0039 0 4.80989 5.78919 4.17273 13.2932C3.54236 13.4945 3.04219 13.9943 2.8435 14.6329C1.23332 14.9176 0 16.3336 0 18.0413V22.2062C0 23.9208 1.23332 25.3369 2.8435 25.6146C3.11072 26.4476 3.88497 27.0584 4.79625 27.0584H5.48143V28.7938C5.48143 30.7097 7.01623 32.2646 8.90732 32.2646H11.0656C11.3603 33.2642 12.2784 34 13.361 34H16.7869C18.1093 34 19.185 32.9102 19.185 31.5704C19.185 30.2307 18.1093 29.1408 16.7869 29.1408H13.361C12.2784 29.1408 11.3603 29.8766 11.0656 30.8762H8.90732C7.77679 30.8762 6.85179 29.9391 6.85179 28.7937V27.0584H7.53697C8.6675 27.0584 9.5925 26.1212 9.5925 24.9759V15.2576C9.5925 14.383 9.05804 13.6333 8.29753 13.3278C8.90048 8.13529 13.272 4.15115 18.5 4.15115C23.728 4.15115 28.0995 8.13565 28.7025 13.3278C27.9419 13.6333 27.4075 14.383 27.4075 15.2576V24.9759C27.4075 26.1212 28.3325 27.0584 29.463 27.0584H32.2038C33.115 27.0584 33.8893 26.4475 34.1565 25.6145C35.7667 25.3299 37 23.9138 37 22.2062V18.0412C37 16.3266 35.7663 14.9103 34.1561 14.6327Z" fill="white"/>
</svg>
