<svg width="37" height="42" viewBox="0 0 37 42" fill="none" xmlns="http://www.w3.org/2000/svg">
<path d="M14.8008 17.0153H22.201V24.4155H14.8008V17.0153Z" fill="white"/>
<path d="M24.4186 14.0549H12.5804C12.1711 14.0549 11.8398 14.3861 11.8398 14.7954V26.6354C11.8398 26.8314 11.9179 27.0187 12.0566 27.1574C12.1954 27.2962 12.3844 27.3742 12.5804 27.3742H24.4186C24.6146 27.3742 24.8036 27.2962 24.9424 27.1574C25.0811 27.0187 25.1592 26.8314 25.1592 26.6354V14.7954C25.1592 14.5994 25.0811 14.4104 24.9424 14.2717C24.8036 14.1329 24.6146 14.0549 24.4186 14.0549ZM23.6781 24.4138L23.6798 24.4155C23.6798 24.8074 23.5237 25.1838 23.2462 25.4613C22.9687 25.7388 22.5924 25.8948 22.1987 25.8948H14.8003C13.9817 25.8948 13.3192 25.2323 13.3192 24.4155V17.0153C13.3192 16.1985 13.9817 15.536 14.8003 15.536H22.1987C22.5924 15.536 22.9687 15.692 23.2462 15.9695C23.5237 16.247 23.6798 16.6234 23.6798 17.0153L23.6781 24.4138Z" fill="white"/>
<path d="M36.9999 28.1147C37.0034 27.2406 36.7779 26.3805 36.3496 25.6174C36.2247 25.3988 36.2195 25.1317 36.3357 24.908C37.5376 22.5945 37.078 19.7659 35.2049 17.9518C34.983 17.7385 34.9171 17.4089 35.0385 17.1262C35.3576 16.3909 35.5206 15.5966 35.5188 14.7954C35.5206 12.8131 34.5268 10.9643 32.8741 9.86987C32.6538 9.72246 32.5272 9.46925 32.5463 9.20391C32.5532 9.09291 32.5602 8.98192 32.5602 8.87266C32.5428 6.4568 30.8727 4.36718 28.5193 3.81886C28.2504 3.75816 28.0371 3.55352 27.9677 3.28645C27.3885 1.13591 25.3073 -0.251521 23.0995 0.0381299C20.8935 0.32949 19.2425 2.20945 19.2407 4.43626C19.2407 4.84382 18.9095 5.17508 18.5002 5.17508C18.0909 5.17508 17.7596 4.84383 17.7596 4.43626C17.7562 2.21118 16.1051 0.334662 13.9009 0.0433244C11.6948 -0.2463 9.61545 1.13942 9.03442 3.28645C8.96331 3.55353 8.75173 3.75817 8.48291 3.81886C6.12774 4.36691 4.4559 6.45844 4.44027 8.87621C4.44027 8.98721 4.44721 9.0982 4.45241 9.21093H4.45414C4.46802 9.47281 4.34315 9.72253 4.12463 9.86824C1.74518 11.4482 0.832935 14.5038 1.96024 17.1295C2.08337 17.4122 2.01747 17.7417 1.79548 17.955C-0.07757 19.7691 -0.537131 22.5959 0.662984 24.9113C0.780914 25.1332 0.775715 25.4003 0.650844 25.6206C0.222477 26.3819 -0.00126973 27.2404 0.000506176 28.1145C0.0022408 29.4256 0.499981 30.6865 1.39486 31.6438C1.55615 31.8189 1.62552 32.06 1.5787 32.2941C1.51279 32.6236 1.47984 32.9584 1.48158 33.2948C1.48504 36.1529 3.80207 38.4716 6.66013 38.4734C6.88212 38.4768 7.10237 38.4612 7.3209 38.43C7.6244 38.3866 7.92444 38.534 8.07704 38.8011C9.23209 40.8493 11.6254 41.8604 13.9007 41.2621C16.1761 40.6637 17.7612 38.6069 17.7595 36.2536C17.7595 35.846 18.0907 35.5148 18.5 35.5148C18.9093 35.5148 19.2406 35.846 19.2406 36.2536C19.2389 38.607 20.824 40.6656 23.0994 41.2639C25.3748 41.8622 27.7682 40.8511 28.923 38.8012C29.0739 38.5324 29.3739 38.3867 29.6792 38.4318C29.8977 38.463 30.1179 38.4769 30.3399 38.4751C33.198 38.4717 35.5149 36.1546 35.5185 33.2948C35.5202 32.9601 35.4873 32.6236 35.4214 32.2941C35.3745 32.0617 35.4439 31.8189 35.6052 31.6455C36.5001 30.6864 36.9982 29.4258 36.9999 28.1147ZM31.0808 21.4551H26.6393V23.6749H28.8592C29.2528 23.6749 29.6292 23.831 29.9067 24.1085C30.1842 24.386 30.3402 24.7624 30.3402 25.1543V26.6354C30.3402 26.8314 30.2622 27.0187 30.1235 27.1574C29.9847 27.2962 29.7957 27.3742 29.5997 27.3742C29.1904 27.3742 28.8591 27.0429 28.8591 26.6354V25.156L26.6393 25.1543V26.6354C26.6393 27.8615 25.6455 28.8553 24.4194 28.8553H22.94V31.0751H24.4194C24.8287 31.0751 25.1599 31.4064 25.1599 31.814C25.1599 32.2233 24.8287 32.5545 24.4194 32.5545H22.94C22.1232 32.5545 21.4607 31.892 21.4607 31.0752V28.8553H19.2408V33.2951C19.2408 33.7026 18.9096 34.0339 18.5003 34.0339C18.091 34.0339 17.7597 33.7026 17.7597 33.2951V28.8553H15.5398V31.0752C15.5398 31.4671 15.3837 31.8435 15.1063 32.121C14.8288 32.3985 14.4524 32.5545 14.0605 32.5545H12.5811C12.1718 32.5545 11.8406 32.2233 11.8406 31.814C11.8406 31.4064 12.1718 31.0752 12.5811 31.0752H14.0605V28.8553H12.5811C11.355 28.8553 10.3612 27.8615 10.3612 26.6354V25.1561L8.14135 25.1543V26.6354C8.14135 26.8314 8.06331 27.0187 7.92457 27.1574C7.78583 27.2962 7.59679 27.3742 7.40081 27.3742C6.99152 27.3742 6.66025 27.043 6.66025 26.6354V25.1543C6.66025 24.3375 7.32276 23.675 8.14132 23.675H10.3612V21.4551H5.92143C5.51214 21.4551 5.18088 21.1238 5.18088 20.7145C5.18088 20.307 5.51212 19.9757 5.92143 19.9757H10.3612V17.7558H8.14132C7.32271 17.7558 6.66025 17.0933 6.66025 16.2748V14.8006C6.66025 14.3913 6.9915 14.0601 7.40081 14.0601C7.59679 14.0601 7.78582 14.1381 7.92457 14.2769C8.06332 14.4156 8.14135 14.6046 8.14135 14.8006V16.2799H10.3612V14.8006C10.3612 13.5745 11.355 12.5807 12.5811 12.5807H14.0605V10.3608H12.5811C12.1718 10.3608 11.8406 10.0296 11.8406 9.62029C11.8406 9.21098 12.1718 8.87973 12.5811 8.87973H14.0605C14.4524 8.87973 14.8288 9.03582 15.1063 9.3133C15.3837 9.59079 15.5398 9.96715 15.5398 10.3608V12.5807H17.7597V8.14094C17.7597 7.73164 18.091 7.40038 18.5003 7.40038C18.9096 7.40038 19.2408 7.73163 19.2408 8.14094V12.5807H21.4607V10.3608C21.4607 9.54222 22.1232 8.87976 22.94 8.87976H24.4194C24.8287 8.87976 25.1599 9.21101 25.1599 9.62032C25.1599 10.0296 24.8287 10.3609 24.4194 10.3609H22.94V12.5808H24.4194C25.6455 12.5808 26.6393 13.5745 26.6393 14.8006V16.28H28.8591V14.8006C28.8591 14.3913 29.1904 14.0601 29.5997 14.0601C29.7957 14.0601 29.9847 14.1381 30.1235 14.2769C30.2622 14.4156 30.3402 14.6047 30.3402 14.8006V16.28C30.3402 16.6719 30.1842 17.0483 29.9067 17.3258C29.6292 17.6032 29.2528 17.7593 28.8592 17.7593H26.6393V19.9792H31.079C31.4883 19.9792 31.8196 20.3105 31.8196 20.7198C31.8196 21.1291 31.4883 21.4603 31.079 21.4603L31.0808 21.4551Z" fill="white"/>
</svg>
