<svg width="35" height="42" viewBox="0 0 35 42" fill="none" xmlns="http://www.w3.org/2000/svg">
<path fill-rule="evenodd" clip-rule="evenodd" d="M17.7104 3.03537L30.7553 7.65145C31.5015 7.91524 32 8.62495 32 9.42099L31.9922 22.9979C31.9922 26.3376 29.7023 29.4513 26.8984 31.9539C22.8343 35.5841 17.7541 37.9423 17.7541 37.9423C17.589 38.0192 17.4005 38.0192 17.2353 37.9423C17.2353 37.9423 12.1555 35.5839 8.09259 31.9539C5.29015 29.4511 3 26.3358 3 22.9979L3.00779 9.41938C3.00779 8.6233 3.50784 7.91517 4.25246 7.65141L17.3022 3.03533C17.4346 2.98822 17.5795 2.98822 17.7134 3.03533L17.7104 3.03537ZM10.8607 17.4604V19.8565H9.43846C9.09574 19.8565 8.81845 20.1359 8.81845 20.4814C8.81845 20.8268 9.09574 21.1063 9.43846 21.1063H10.8607V23.416H9.43846C9.09574 23.416 8.81845 23.6955 8.81845 24.0409C8.81845 24.3863 9.09574 24.6658 9.43846 24.6658H10.8841C10.9402 25.0317 11.1037 25.3755 11.3561 25.6503L12.1054 26.4668C12.4574 26.8499 12.9528 27.0681 13.47 27.0681H13.5853V28.2442C13.5853 28.5896 13.8626 28.8691 14.2053 28.8691C14.548 28.8691 14.8253 28.5896 14.8253 28.2442V27.0681H16.8037V30.7438C16.8037 31.0893 17.081 31.3688 17.4237 31.3688C17.7664 31.3688 18.0437 31.0893 18.0437 30.7438V27.0681H20.3928V28.2442C20.3928 28.5896 20.6701 28.8691 21.0128 28.8691C21.3555 28.8691 21.6328 28.5896 21.6328 28.2442V27.0681H22.0908C22.5161 27.0681 22.9274 26.8876 23.228 26.5594C23.5131 26.2501 23.6751 25.8309 23.6751 25.3912V24.6658H25.4385C25.7812 24.6658 26.0585 24.3863 26.0585 24.0409C26.0585 23.6955 25.7812 23.416 25.4385 23.416H23.6751V21.1063H25.4385C25.7812 21.1063 26.0585 20.8268 26.0585 20.4814C26.0585 20.1359 25.7812 19.8565 25.4385 19.8565H23.6751V17.4604H25.4385C25.7812 17.4604 26.0585 17.1809 26.0585 16.8355C26.0585 16.4901 25.7812 16.2106 25.4385 16.2106H23.6751V15.8997C23.6751 15.4271 23.4991 14.9733 23.1797 14.6263L22.4304 13.8098C22.2077 13.5665 21.9273 13.3906 21.6204 13.2932C21.6282 13.2555 21.6313 13.2163 21.6313 13.177V12.0324C21.6313 11.687 21.354 11.4075 21.0113 11.4075C20.6686 11.4075 20.3913 11.6869 20.3913 12.0324V13.177L20.3928 13.2084H18.0421V9.49661C18.0421 9.15118 17.7649 8.87168 17.4221 8.87168C17.0794 8.87168 16.8021 9.15117 16.8021 9.49661V13.2084H14.8938V12.0873C14.8938 11.7419 14.6165 11.4624 14.2738 11.4624C13.9311 11.4624 13.6538 11.7419 13.6538 12.0873V13.2084H12.4434C12.0181 13.2084 11.6069 13.389 11.3062 13.7172C11.0211 14.0281 10.8591 14.4457 10.8591 14.8853V16.2121H9.43686C9.09415 16.2121 8.81686 16.4916 8.81686 16.837C8.81686 17.1825 9.09414 17.462 9.43686 17.462H10.8591L10.8607 17.4604ZM21.0658 14.4583C21.2388 14.4583 21.4039 14.5305 21.5207 14.6593L22.27 15.4757C22.3759 15.5919 22.4351 15.7426 22.4351 15.8997V25.3927C22.4351 25.512 22.3946 25.6266 22.3167 25.7114C22.256 25.7774 22.175 25.8182 22.0893 25.8182H13.4686C13.2957 25.8182 13.1305 25.746 13.0137 25.6172L12.2644 24.8023C12.1585 24.6861 12.0993 24.5354 12.0993 24.3784V14.8854C12.0993 14.766 12.1398 14.6514 12.2161 14.5666C12.2769 14.5007 12.3579 14.4598 12.4436 14.4598H21.0643L21.0658 14.4583ZM20.7387 20.1375C20.7387 18.1356 19.1264 16.5105 17.1402 16.5105C15.154 16.5105 13.5418 18.1356 13.5418 20.1375C13.5418 22.1395 15.1541 23.7646 17.1402 23.7646C19.1264 23.7646 20.7387 22.1395 20.7387 20.1375ZM19.4987 20.1375C19.4987 21.4502 18.441 22.5148 17.1402 22.5148C15.8379 22.5148 14.7817 21.4502 14.7817 20.1375C14.7817 18.8249 15.8378 17.7603 17.1402 17.7603C18.4425 17.7603 19.4987 18.8264 19.4987 20.1375Z" fill="white"/>
</svg>
