<svg width="34" height="37" viewBox="0 0 34 37" fill="none" xmlns="http://www.w3.org/2000/svg">
<path fill-rule="evenodd" clip-rule="evenodd" d="M16.3779 9.2529H15.6027C9.26637 9.2529 3.94714 13.5611 2.47232 19.379H1.52106C1.40785 19.379 1.29622 19.3852 1.18616 19.3976C2.67985 12.8831 8.56666 8.01925 15.6026 8.01925H16.3778V4.19944C15.4831 3.93494 14.8322 3.11494 14.8322 2.14563C14.8322 0.961544 15.8039 0 17.0004 0C18.1969 0 19.1687 0.961584 19.1687 2.14563C19.1687 3.11498 18.5177 3.93496 17.6231 4.19944V8.01925H18.3982C25.4342 8.01925 31.321 12.8831 32.8147 19.3976C32.7046 19.3852 32.593 19.379 32.4798 19.379H31.5285C30.0537 13.5615 24.7345 9.2529 18.3981 9.2529H17.6229V11.285C24.9105 11.5899 30.7284 17.2319 30.7284 24.1371C30.7284 26.4462 30.0775 28.6151 28.9375 30.4899H24.6717C24.3274 30.4899 24.0491 30.7669 24.0491 31.1061C24.0491 31.4469 24.3274 31.7223 24.6717 31.7223H28.0852C25.5868 34.9212 21.5508 37 17.0004 37C9.42344 37 3.27262 31.2367 3.27262 24.1371C3.27262 17.2318 9.09016 11.59 16.3781 11.2849L16.3779 9.2529ZM24.8573 18.4561H9.14352C7.54445 18.4561 6.24731 19.7397 6.24731 21.3221V24.3251C6.24731 25.909 7.54449 27.1911 9.14352 27.1911H24.8573C25.6246 27.1911 26.362 26.8892 26.9044 26.3524C27.4469 25.8141 27.7535 25.0859 27.7535 24.3251V21.3221C27.7535 19.7397 26.4563 18.4561 24.8573 18.4561ZM24.8573 19.6899C25.7677 19.6899 26.5067 20.4212 26.5067 21.3221V24.3251C26.5067 24.7592 26.3321 25.1731 26.024 25.4796C25.7142 25.7861 25.2944 25.9573 24.8573 25.9573H9.14356C8.23319 25.9573 7.49418 25.2275 7.49418 24.3251V21.3221C7.49418 20.4212 8.23315 19.6899 9.14356 19.6899L24.8573 19.6899ZM11.4169 21.4186C10.6323 21.4186 9.99556 22.0487 9.99556 22.8236C9.99556 23.6 10.6323 24.2286 11.4169 24.2286C12.1999 24.2286 12.8367 23.6 12.8367 22.8236C12.8367 22.0487 12.1999 21.4186 11.4169 21.4186ZM22.5835 21.4186C21.8005 21.4186 21.1637 22.0487 21.1637 22.8236C21.1637 23.6 21.8005 24.2286 22.5835 24.2286C23.3681 24.2286 24.0048 23.6 24.0048 22.8236C24.0048 22.0487 23.3681 21.4186 22.5835 21.4186ZM12.1495 30.9814C15.3854 33.3527 18.6195 33.3947 21.8553 30.9783C22.1305 30.7729 22.1839 30.3855 21.978 30.1148C21.7704 29.8425 21.3789 29.788 21.1053 29.9934C18.3663 32.0394 15.6291 31.9974 12.89 29.9903C12.6148 29.788 12.2234 29.8456 12.0189 30.1179C11.8145 30.3917 11.8728 30.7792 12.1495 30.9814ZM2.49841 27.6611H1.52042C0.680813 27.6611 0 26.9874 0 26.1565V22.1156C0 21.2847 0.680813 20.611 1.52042 20.611H2.49841C2.19023 21.739 2.02513 22.92 2.02513 24.1367C2.02513 25.3519 2.19023 26.533 2.49841 27.6611ZM31.5016 20.6112H32.4796C33.3192 20.6112 34 21.2849 34 22.1158V26.1567C34 26.9876 33.3192 27.6613 32.4796 27.6613H31.5016C31.8098 26.5333 31.9749 25.3539 31.9749 24.1371C31.9749 22.9204 31.8098 21.7393 31.5016 20.6112Z" fill="white"/>
</svg>
