<svg width="48" height="48" viewBox="0 0 48 48" fill="none" xmlns="http://www.w3.org/2000/svg">
<path d="M11.8856 14.2999H4.79055C2.18905 14.2999 0.0605469 12.1714 0.0605469 9.56987V4.83987C0.0605469 2.23837 2.18905 0.109863 4.79055 0.109863H11.8856C14.4871 0.109863 16.6156 2.23837 16.6156 4.83987V9.56987C16.6156 12.1714 14.4871 14.2999 11.8856 14.2999Z" fill="white"/>
<path d="M44.5219 11.9371H36.0079C34.447 11.9371 33.1699 10.6599 33.1699 9.09903V5.31508C33.1699 3.75418 34.447 2.47705 36.0079 2.47705H44.5219C46.0828 2.47705 47.3599 3.75418 47.3599 5.31508V9.09903C47.3599 10.6599 46.0828 11.9371 44.5219 11.9371Z" fill="white"/>
<path d="M44.5219 29.6734H36.0079C34.447 29.6734 33.1699 28.3963 33.1699 26.8354V23.0514C33.1699 21.4905 34.447 20.2134 36.0079 20.2134H44.5219C46.0828 20.2134 47.3599 21.4905 47.3599 23.0514V26.8354C47.3599 28.3963 46.0828 29.6734 44.5219 29.6734Z" fill="white"/>
<path d="M30.0394 26.7152C31.009 26.7152 31.8131 25.9111 31.8131 24.9414C31.8131 23.9718 31.009 23.1677 30.0394 23.1677H26.6676V8.97768H30.0394C31.009 8.97768 31.8131 8.17358 31.8131 7.20393C31.8131 6.23428 31.009 5.43018 30.0394 5.43018H19.7484C18.7787 5.43018 17.9746 6.23428 17.9746 7.20393C17.9746 8.17358 18.7787 8.97768 19.7484 8.97768H23.1201V37.949C23.1201 41.5438 26.0291 44.4527 29.6239 44.4527H30.0394C31.009 44.4527 31.8131 43.6486 31.8131 42.679C31.8131 41.7093 31.009 40.9052 30.0394 40.9052H29.6239C27.992 40.9052 26.6676 39.5808 26.6676 37.949V26.7152H30.0394Z" fill="white"/>
<path d="M44.5219 47.4117H36.0079C34.447 47.4117 33.1699 46.1346 33.1699 44.5737V40.7897C33.1699 39.2288 34.447 37.9517 36.0079 37.9517H44.5219C46.0828 37.9517 47.3599 39.2288 47.3599 40.7897V44.5737C47.3599 46.1346 46.0828 47.4117 44.5219 47.4117Z" fill="white"/>
</svg>
