<svg width="49" height="50" viewBox="0 0 49 50" fill="none" xmlns="http://www.w3.org/2000/svg">
<path fill-rule="evenodd" clip-rule="evenodd" d="M40.8866 8.58211V40.9399H8.52889V8.58211H40.8866ZM22.1481 16.6715H18.9969L13.014 32.8504H15.857L16.9865 29.6876H24.1485L25.2537 32.8504H28.268L22.1481 16.6715ZM33.3146 16.6715H30.4831V32.8504H33.3146V16.6715ZM20.5486 19.386L23.3691 27.4574H17.773L20.5486 19.386ZM43.5831 32.8504H48.9761V38.2434H43.5831V32.8504ZM11.2254 43.6363H16.6183V49.0293H11.2254V43.6363ZM22.0113 43.6363H27.4042V49.0293H22.0113V43.6363ZM11.2254 0.492676H16.6183V5.88563H11.2254V0.492676ZM32.7972 43.6363H38.1902V49.0293H32.7972V43.6363ZM22.0113 0.492676H27.4042V5.88563H22.0113V0.492676ZM32.7972 0.492676H38.1902V5.88563H32.7972V0.492676ZM43.5831 22.0645H48.9761V27.4575H43.5831V22.0645ZM0.439453 32.8504H5.83241V38.2434H0.439453V32.8504ZM43.5831 11.2786H48.9761V16.6715H43.5831V11.2786ZM0.439453 22.0645H5.83241V27.4575H0.439453V22.0645ZM0.439453 11.2786H5.83241V16.6715H0.439453V11.2786Z" fill="white"/>
</svg>
