<svg width="46" height="46" viewBox="0 0 46 46" fill="none" xmlns="http://www.w3.org/2000/svg">
<path d="M26.4047 42.0979L25.1768 44.1725C24.0824 46.0215 21.3484 46.0215 20.2539 44.1725L19.0261 42.0979C18.0737 40.4889 17.5975 39.6843 16.8325 39.2394C16.0676 38.7946 15.1046 38.7779 13.1785 38.7447C10.3349 38.6957 8.55155 38.5215 7.05588 37.9019C4.28082 36.7525 2.07603 34.5477 0.926552 31.7727C0.0644532 29.6913 0.0644531 27.0529 0.0644531 21.7758V19.5107C0.0644531 12.0961 0.0644531 8.38872 1.73338 5.66528C2.66724 4.14136 3.94849 2.86011 5.47241 1.92625C8.19585 0.257324 11.9032 0.257324 19.3178 0.257324H26.1131C33.5279 0.257324 37.2352 0.257324 39.9585 1.92625C41.4825 2.86011 42.7637 4.14136 43.6976 5.66528C45.3665 8.38872 45.3665 12.0961 45.3665 19.5107V21.7758C45.3665 27.0529 45.3665 29.6913 44.5044 31.7727C43.3549 34.5477 41.1501 36.7525 38.3752 37.9019C36.8794 38.5215 35.0959 38.6957 32.2524 38.7447C30.3262 38.7779 29.3634 38.7946 28.5984 39.2394C27.8334 39.6843 27.3573 40.4889 26.4047 42.0979Z" fill="white"/>
<path fill-rule="evenodd" clip-rule="evenodd" d="M29.4371 12.2588C30.1005 11.5954 31.1762 11.5954 31.8397 12.2588L32.2283 12.6474C32.2561 12.6753 32.2839 12.703 32.3115 12.7307C33.7506 14.1697 34.9507 15.3697 35.7752 16.4504C36.6456 17.5911 37.256 18.7963 37.256 20.2554C37.256 21.7143 36.6456 22.9196 35.7752 24.0604C34.9507 25.141 33.7506 26.3411 32.3115 27.7801L31.8397 28.252C31.1762 28.9153 30.1005 28.9153 29.4371 28.252C28.7736 27.5886 28.7736 26.5129 29.4371 25.8494L29.8258 25.4608C31.3698 23.9168 32.4043 22.8772 33.074 21.9993C33.7138 21.1608 33.8583 20.6728 33.8583 20.2554C33.8583 19.838 33.7138 19.3498 33.074 18.5114C32.4043 17.6337 31.3698 16.594 29.8258 15.0499L29.4371 14.6613C28.7736 13.9979 28.7736 12.9222 29.4371 12.2588Z" fill="#0D0E15"/>
<path fill-rule="evenodd" clip-rule="evenodd" d="M26.0854 7.67696C26.9916 7.9198 27.5295 8.85134 27.2867 9.75761L21.4242 31.6369C21.1814 32.5432 20.2499 33.0808 19.3436 32.838C18.4373 32.5953 17.8995 31.6637 18.1423 30.7574L24.0048 8.87821C24.2476 7.97194 25.1791 7.43412 26.0854 7.67696Z" fill="#0D0E15"/>
<path fill-rule="evenodd" clip-rule="evenodd" d="M15.9849 12.2588C15.3215 11.5954 14.2459 11.5954 13.5824 12.2588L13.1938 12.6474C13.1659 12.6753 13.1382 12.703 13.1105 12.7307C11.6714 14.1697 10.4714 15.3697 9.6468 16.4504C8.77646 17.5911 8.16602 18.7963 8.16602 20.2554C8.16602 21.7143 8.77646 22.9196 9.6468 24.0604C10.4714 25.141 11.6714 26.3411 13.1105 27.7801L13.5824 28.252C14.2459 28.9153 15.3215 28.9153 15.9849 28.252C16.6484 27.5886 16.6484 26.5129 15.9849 25.8494L15.5963 25.4608C14.0523 23.9168 13.0176 22.8772 12.348 21.9993C11.7083 21.1608 11.5637 20.6728 11.5637 20.2554C11.5637 19.838 11.7083 19.3498 12.348 18.5114C13.0176 17.6337 14.0523 16.594 15.5963 15.0499L15.9849 14.6613C16.6484 13.9979 16.6484 12.9222 15.9849 12.2588Z" fill="#0D0E15"/>
</svg>
