<svg width="47" height="51" viewBox="0 0 47 51" fill="none" xmlns="http://www.w3.org/2000/svg">
<path d="M23.6408 26.2403L19.5907 22.1902C19.4856 22.0762 19.3581 21.9852 19.2161 21.923C19.0741 21.8608 18.9208 21.8287 18.7658 21.8287C18.6108 21.8287 18.4574 21.8608 18.3155 21.923C18.1735 21.9852 18.046 22.0762 17.9409 22.1902L16.3406 23.8399C16.2313 23.9426 16.1441 24.0665 16.0845 24.2041C16.0249 24.3417 15.9941 24.4901 15.9941 24.6401C15.9941 24.7901 16.0249 24.9384 16.0845 25.076C16.1441 25.2137 16.2313 25.3376 16.3406 25.4402L22.0653 31.0577C22.2734 31.2744 22.5232 31.4467 22.7996 31.5644C23.076 31.6821 23.3734 31.7426 23.6738 31.7423C23.9731 31.7429 24.2693 31.6825 24.5445 31.5648C24.8196 31.4471 25.0679 31.2745 25.2741 31.0577L36.9132 19.3691C37.0294 19.2654 37.1224 19.1383 37.1861 18.9962C37.2498 18.854 37.2827 18.7 37.2827 18.5442C37.2827 18.3884 37.2498 18.2344 37.1861 18.0923C37.1224 17.9501 37.0294 17.823 36.9132 17.7193L35.3129 16.1191C35.2096 16.0095 35.0849 15.9221 34.9466 15.8624C34.8083 15.8028 34.6593 15.772 34.5086 15.772C34.358 15.772 34.209 15.8028 34.0707 15.8624C33.9324 15.9221 33.8077 16.0095 33.7044 16.1191L23.6408 26.2403Z" fill="white"/>
<path d="M41.7056 29.1688C42.1456 26.8246 42.1456 24.419 41.7056 22.0748L45.5001 18.8578C46.1183 18.3343 46.5376 17.6141 46.6878 16.8181C46.838 16.0221 46.7099 15.1987 46.325 14.4859L44.6752 11.5988C44.3691 11.0869 43.9333 10.6648 43.4119 10.3752C42.8906 10.0855 42.302 9.93852 41.7056 9.94905C41.3069 9.94297 40.912 10.0276 40.5508 10.1965L35.7665 11.9288C33.9793 10.3643 31.9066 9.15985 29.6624 8.38178L28.8375 3.51498C28.6763 2.75286 28.2454 2.07454 27.6241 1.60474C27.0027 1.13493 26.2327 0.905225 25.4555 0.957849H22.1559C21.3762 0.892587 20.5998 1.11747 19.9757 1.58937C19.3516 2.06128 18.9236 2.74698 18.7739 3.51498L17.949 8.29929C15.6688 9.05242 13.5644 10.2589 11.7624 11.8463L6.89565 10.114C6.52017 9.99228 6.1332 9.90936 5.74081 9.86656C5.14583 9.86341 4.56006 10.0135 4.03994 10.3025C3.51983 10.5915 3.08289 11.0095 2.77124 11.5163L1.12148 14.4034C0.717261 15.1113 0.57828 15.9401 0.729425 16.7411C0.880571 17.5422 1.31197 18.2633 1.94636 18.7753L5.74081 21.9923C5.50847 23.1601 5.39789 24.3487 5.41086 25.5393C5.39403 26.73 5.50465 27.9191 5.74081 29.0863L1.94636 32.3446C1.32818 32.8681 0.90882 33.5882 0.75863 34.3842C0.608439 35.1802 0.736553 36.0037 1.12148 36.7164L2.77124 39.6035C3.07735 40.1154 3.5131 40.5375 4.03449 40.8272C4.55588 41.1168 5.14446 41.2638 5.74081 41.2533C6.13953 41.2594 6.53442 41.1748 6.89565 41.0058L11.68 39.2736C13.4672 40.8381 15.5399 42.0425 17.7841 42.8206L18.609 47.7698C18.7464 48.5635 19.1625 49.282 19.7825 49.7961C20.4025 50.3103 21.1856 50.5863 21.991 50.5744H25.2905C26.1043 50.5697 26.8901 50.2773 27.5091 49.7489C28.128 49.2206 28.5401 48.4903 28.6725 47.6874L29.4974 42.7381C31.8814 41.9318 34.0722 40.6398 35.9315 38.9436L40.3858 40.6759C40.7894 40.7977 41.2037 40.8806 41.6231 40.9233C42.2181 40.9265 42.8039 40.7764 43.324 40.4874C43.8441 40.1985 44.2811 39.7804 44.5927 39.2736L46.16 36.5515C46.6008 35.9108 46.7781 35.1251 46.6553 34.3572C46.5324 33.5894 46.1188 32.8982 45.5001 32.4271L41.7056 29.1688ZM38.9093 21.4644L35.1561 25.2258V25.8693C35.1655 28.3952 34.3375 30.8531 32.8016 32.8585C31.2657 34.8639 29.1085 36.3038 26.6674 36.9529C24.2262 37.602 21.6387 37.4238 19.3096 36.4461C16.9805 35.4684 15.0411 33.7464 13.7947 31.5493C12.5482 29.3523 12.0651 26.8041 12.4208 24.3032C12.7765 21.8024 13.9509 19.49 15.7605 17.7276C17.5701 15.9652 19.9127 14.8522 22.4221 14.5626C24.9314 14.2731 27.466 14.8234 29.6294 16.1274L31.6503 14.1147C32.0217 13.7384 32.4642 13.4395 32.952 13.2356C33.4398 13.0316 33.9633 12.9266 34.492 12.9266C35.0208 12.9266 35.5443 13.0316 36.0321 13.2356C36.5199 13.4395 36.9624 13.7384 37.3338 14.1147L38.9835 15.7645C39.382 16.1629 39.6928 16.6402 39.896 17.1658C40.0991 17.6914 40.1901 18.2537 40.1631 18.8165C40.1111 19.8301 39.6604 20.7819 38.9093 21.4644Z" fill="white"/>
</svg>
