<svg width="34" height="34" viewBox="0 0 34 34" fill="none" xmlns="http://www.w3.org/2000/svg">
<path d="M18.7039 22.0908C18.7147 21.2468 19.1198 20.458 19.7965 19.9546C20.2631 19.4574 20.969 18.6962 22.0048 18.6962C22.5834 18.707 22.9716 19.0016 23.5088 18.6594V18.6609C23.7205 18.1238 24.1257 17.6864 24.6428 17.4332C24.85 17.1033 24.7963 16.1795 25.2751 16.2178C25.7125 16.2715 26.1499 16.1349 26.4798 15.8449C26.8097 15.5533 26.9985 15.1359 27 14.697V12.303C27 11.8625 26.8112 11.4436 26.4813 11.152C26.1514 10.862 25.7125 10.7254 25.2751 10.7822C25.1247 10.8021 24.982 10.707 24.9436 10.5612C24.6735 9.47929 24.2469 8.44343 23.6745 7.48583C23.5962 7.35539 23.6285 7.18812 23.7482 7.09297C24.0919 6.82134 24.3037 6.41619 24.3328 5.97886C24.3605 5.54148 24.2009 5.11181 23.8955 4.79874L22.2013 3.10453C21.8882 2.79914 21.4585 2.63954 21.0211 2.66715C20.5838 2.69631 20.1787 2.90809 19.907 3.25185C19.8119 3.37155 19.6446 3.40224 19.5142 3.32551C18.5566 2.75311 17.5207 2.32493 16.4388 2.05637C16.2915 2.01801 16.1979 1.87529 16.2178 1.7249C16.2715 1.28752 16.135 0.850151 15.8434 0.521759C15.5533 0.191818 15.1359 0.00306432 14.697 0H12.303C11.8641 0.00306942 11.4467 0.191826 11.1566 0.521759C10.8651 0.850167 10.73 1.28752 10.7822 1.7249C10.8037 1.87529 10.7085 2.01801 10.5612 2.05637C9.4793 2.32493 8.44344 2.75307 7.48584 3.32551C7.34772 3.40531 7.17278 3.36541 7.08225 3.23343C6.80603 2.89735 6.40241 2.69172 5.96814 2.66716C5.53383 2.64261 5.11029 2.80221 4.79875 3.10453L3.10453 4.79875C2.79608 5.11027 2.63648 5.53843 2.6641 5.97733C2.68712 6.41011 2.89582 6.81063 3.23343 7.08072C3.36694 7.17126 3.40838 7.34774 3.32551 7.48584C2.75464 8.44344 2.32646 9.4793 2.05637 10.5612C2.0134 10.7055 1.87376 10.7991 1.7249 10.7822C1.28906 10.7285 0.850152 10.865 0.521759 11.1566C0.191818 11.4467 0.00306432 11.8641 0 12.303V14.697C0.00306903 15.1359 0.191826 15.5533 0.521759 15.8434C0.850167 16.135 1.28906 16.27 1.7249 16.2178C1.87529 16.1994 2.01647 16.293 2.05637 16.4388C2.32646 17.5207 2.75461 18.5566 3.32551 19.5126C3.40838 19.6507 3.36695 19.8288 3.23343 19.9177C2.89581 20.1924 2.69018 20.5961 2.66563 21.0319C2.64108 21.4662 2.80068 21.8897 3.10453 22.2013L4.79875 23.8955V23.8939C5.11027 24.1993 5.53383 24.3574 5.96814 24.3328C6.40245 24.3083 6.80603 24.1026 7.08225 23.765C7.16973 23.6315 7.34928 23.5916 7.48584 23.673C8.44344 24.2454 9.4793 24.6735 10.5612 24.9436C10.7085 24.982 10.8037 25.1247 10.7822 25.2751C10.73 25.7109 10.8666 26.1483 11.1566 26.4782C11.4467 26.8067 11.8641 26.9969 12.303 27H14.697C15.1359 26.9969 15.5533 26.8082 15.8434 26.4782C16.135 26.1483 16.27 25.7109 16.2178 25.2751C16.1963 25.1247 16.2915 24.982 16.4388 24.9436C16.7764 24.8577 17.1079 24.7595 17.4332 24.6428C17.6941 24.1303 18.1299 23.7282 18.6609 23.5088C18.9832 22.9824 18.7453 22.6525 18.7039 22.0908ZM13.5001 21.1148C11.4821 21.1117 9.54553 20.3091 8.11827 18.8819C6.69108 17.4532 5.88847 15.518 5.8854 13.5001C6.30895 3.39296 20.6927 3.39924 21.1151 13.5001C21.112 15.5181 20.3094 17.4531 18.8822 18.8819C17.455 20.3091 15.5195 21.1117 13.5001 21.1148Z" fill="white"/>
<path d="M20 13.5008C20 17.0908 17.0893 20 13.4992 20C9.90909 20 7 17.0909 7 13.5008C7 9.91081 9.90913 7 13.4992 7C17.0893 7 20 9.91069 20 13.5008Z" fill="white"/>
<path d="M33.625 25.0583C33.4145 24.8738 33.1392 24.7786 32.858 24.793C32.7139 24.2394 32.4947 23.7088 32.2078 23.2143C32.4154 23.0255 32.5409 22.7616 32.5596 22.4819C32.649 21.7913 31.7292 21.2118 31.3428 20.7518C31.1323 20.5471 30.8482 20.4361 30.5556 20.4433C30.2629 20.4505 29.9846 20.5774 29.7857 20.7922C29.2912 20.5053 28.7606 20.2861 28.207 20.1405C28.2214 19.8479 28.1147 19.5624 27.9143 19.349C27.7125 19.1357 27.4328 19.0131 27.1401 19.0117C26.5677 19.0564 25.4504 18.8242 25.0481 19.375H25.0467C24.8621 19.5855 24.7655 19.8609 24.7814 20.1406C24.2277 20.2862 23.6972 20.5053 23.2027 20.7922C23.0138 20.5846 22.7514 20.4577 22.4703 20.4404C21.7667 20.3582 21.2275 21.2464 20.7402 21.6573C20.5354 21.8663 20.423 22.1503 20.4302 22.4445C20.4388 22.7371 20.5643 23.0154 20.7805 23.2143C20.4936 23.7088 20.2745 24.2394 20.1303 24.793C19.8362 24.7786 19.5507 24.8839 19.3374 25.0857C19.124 25.2861 19.0014 25.5672 19 25.8599V27.1517C19.0014 27.4444 19.124 27.7241 19.3374 27.926C19.5507 28.1278 19.8362 28.2331 20.1303 28.2172C20.2745 28.7708 20.4936 29.3028 20.7805 29.7973C20.5643 29.9949 20.4388 30.2717 20.4302 30.5643C20.423 30.857 20.5354 31.1396 20.7402 31.3486L21.6456 32.2598V32.2584C21.8546 32.4646 22.1386 32.577 22.4328 32.5684C22.7269 32.5612 23.0037 32.4343 23.2026 32.218C23.6971 32.5064 24.2277 32.7255 24.7813 32.8697C24.7669 33.1624 24.8736 33.4493 25.074 33.6626C25.2759 33.876 25.5556 33.9971 25.8482 34H27.14C27.4327 33.9971 27.7124 33.876 27.9143 33.6626C28.1147 33.4493 28.2214 33.1623 28.207 32.8697C28.7606 32.7255 29.2912 32.5064 29.7857 32.218C29.9832 32.4343 30.26 32.5612 30.5527 32.5684C30.8453 32.577 31.1279 32.4646 31.337 32.2584L32.2482 31.353V31.3544C32.4529 31.1439 32.5654 30.8599 32.5581 30.5672C32.5495 30.2731 32.4241 29.9963 32.2078 29.7974C32.4947 29.3029 32.7139 28.7709 32.858 28.2172C33.1521 28.2331 33.4376 28.1264 33.651 27.926C33.8643 27.7242 33.9854 27.4445 33.9883 27.1518C33.9436 26.5794 34.1758 25.462 33.625 25.0583ZM26.4943 30.5411C24.2668 30.5382 22.4616 28.7332 22.4587 26.5055C22.6475 21.1637 30.3405 21.1652 30.5295 26.5055C30.5266 28.733 28.7219 30.5381 26.4943 30.5411Z" fill="white"/>
</svg>
