<svg width="80" height="81" viewBox="0 0 80 81" fill="none" xmlns="http://www.w3.org/2000/svg">
<path d="M0 40.4639C0 18.3725 17.9086 0.463867 40 0.463867C62.0914 0.463867 80 18.3725 80 40.4639C80 62.5553 62.0914 80.4639 40 80.4639C17.9086 80.4639 0 62.5553 0 40.4639Z" fill="#1E40AF"/>
<path d="M22 37.7125C25.6884 37.7125 26.1101 36.4948 26.1101 34.1155L25.9585 28.3903C25.9585 22.2608 29.1866 20.71 33.3737 20.71H35.1234V25.5609H34.3315C32.3028 25.5913 31.8367 26.3503 31.8367 28.5803L31.9889 33.9431C32.0191 37.5411 30.8534 39.7432 27.7834 40.369C30.9565 40.971 32.0191 43.0374 31.9889 46.7433L31.8367 52.2378C31.8367 54.4791 32.4053 55.3394 34.3919 55.3862H35.1234V60.2182H33.3293C29.2636 60.2182 25.8063 58.874 25.9585 52.6407L26.1101 46.9065C26.1711 44.289 25.6718 43.2981 22 43.2981L22 37.7125Z" fill="white"/>
<path d="M58 43.2157C54.3116 43.2157 53.8899 44.4335 53.8899 46.8127L54.0415 52.5381C54.0415 58.6674 50.8134 60.2182 46.6263 60.2182H44.8766V55.3673H45.6685C47.6972 55.3369 48.1633 54.5779 48.1633 52.3479L48.0111 46.9851C47.9809 43.3871 49.1466 41.185 52.2166 40.5592C49.0435 39.9572 47.9809 37.8908 48.0111 34.1849L48.1633 28.6904C48.1633 26.4491 47.5947 25.5888 45.6081 25.542H44.8766V20.71H46.6707C50.7364 20.71 54.0415 22.0542 54.0415 28.2875L53.8899 34.0218C53.8899 36.6394 54.3282 37.6302 58 37.6302V43.2157Z" fill="white"/>
</svg>
