<svg width="80" height="81" viewBox="0 0 80 81" fill="none" xmlns="http://www.w3.org/2000/svg">
<path d="M0 40.4639C0 18.3725 17.9086 0.463867 40 0.463867C62.0914 0.463867 80 18.3725 80 40.4639C80 62.5553 62.0914 80.4639 40 80.4639C17.9086 80.4639 0 62.5553 0 40.4639Z" fill="#1E40AF"/>
<path d="M40.0002 35.7648C39.4517 35.7648 38.9248 35.8582 38.4352 36.0303C39.0499 36.3999 39.4606 37.0718 39.4606 37.8398C39.4606 39.0066 38.5122 39.9525 37.3416 39.9525C36.5791 39.9525 35.9103 39.5508 35.5374 38.9479C35.3748 39.4234 35.2867 39.9333 35.2867 40.4639C35.2867 43.0591 37.3968 45.1629 40.0002 45.1629C42.6032 45.1629 44.7133 43.0591 44.7133 40.4639C44.7133 37.8686 42.6032 35.7648 40.0002 35.7648ZM40.0002 35.7648C39.4517 35.7648 38.9248 35.8582 38.4352 36.0303C39.0499 36.3999 39.4606 37.0718 39.4606 37.8398C39.4606 39.0066 38.5122 39.9525 37.3416 39.9525C36.5791 39.9525 35.9103 39.5508 35.5374 38.9479C35.3748 39.4234 35.2867 39.9333 35.2867 40.4639C35.2867 43.0591 37.3968 45.1629 40.0002 45.1629C42.6032 45.1629 44.7133 43.0591 44.7133 40.4639C44.7133 37.8686 42.6032 35.7648 40.0002 35.7648ZM40.0002 28.4639C28.5971 28.4639 20 40.4639 20 40.4639C20 40.4639 28.5971 52.4639 40.0002 52.4639C51.4029 52.4639 60 40.4639 60 40.4639C60 40.4639 51.4029 28.4639 40.0002 28.4639ZM40.0002 48.6255C35.4789 48.6255 31.8141 44.9713 31.8141 40.4639C31.8141 35.9564 35.4789 32.3023 40.0002 32.3023C44.5211 32.3023 48.1859 35.9564 48.1859 40.4639C48.1859 44.9713 44.5211 48.6255 40.0002 48.6255ZM40.0002 35.7648C39.4517 35.7648 38.9248 35.8582 38.4352 36.0303C39.0499 36.3999 39.4606 37.0718 39.4606 37.8398C39.4606 39.0066 38.5122 39.9525 37.3416 39.9525C36.5791 39.9525 35.9103 39.5508 35.5374 38.9479C35.3748 39.4234 35.2867 39.9333 35.2867 40.4639C35.2867 43.0591 37.3968 45.1629 40.0002 45.1629C42.6032 45.1629 44.7133 43.0591 44.7133 40.4639C44.7133 37.8686 42.6032 35.7648 40.0002 35.7648Z" fill="white"/>
<path d="M40.0002 35.7648C39.4517 35.7648 38.9248 35.8582 38.4352 36.0303C39.0499 36.3999 39.4606 37.0718 39.4606 37.8398C39.4606 39.0066 38.5122 39.9525 37.3416 39.9525C36.5791 39.9525 35.9103 39.5508 35.5374 38.9479C35.3748 39.4234 35.2867 39.9333 35.2867 40.4639C35.2867 43.0591 37.3968 45.1629 40.0002 45.1629C42.6032 45.1629 44.7133 43.0591 44.7133 40.4639C44.7133 37.8686 42.6032 35.7648 40.0002 35.7648Z" fill="white"/>
<path d="M44.7133 40.4639C44.7133 43.0591 42.6032 45.1629 40.0002 45.1629C37.3968 45.1629 35.2867 43.0591 35.2867 40.4639C35.2867 39.9333 35.3748 39.4234 35.5374 38.9479C35.9103 39.5508 36.5791 39.9525 37.3416 39.9525C38.5122 39.9525 39.4606 39.0066 39.4606 37.8398C39.4606 37.0718 39.0499 36.3999 38.4352 36.0303C38.9248 35.8582 39.4517 35.7648 40.0002 35.7648C42.6032 35.7648 44.7133 37.8686 44.7133 40.4639Z" fill="white"/>
</svg>
