<svg width="80" height="81" viewBox="0 0 80 81" fill="none" xmlns="http://www.w3.org/2000/svg">
<g clip-path="url(#clip0_1254_3347)">
<path d="M0 40.4639C0 18.3725 17.9086 0.463867 40 0.463867C62.0914 0.463867 80 18.3725 80 40.4639C80 62.5553 62.0914 80.4639 40 80.4639C17.9086 80.4639 0 62.5553 0 40.4639Z" fill="#1E40AF"/>
<path d="M50.284 46.8662H30.4062V49.4231H50.284V46.8662Z" fill="#F7F7F7"/>
<path d="M40.3451 20.1865C34.0083 26.1453 30.4062 34.5054 30.4062 43.1989V45.4446H50.284V43.1989C50.284 34.4831 46.682 26.1453 40.3451 20.1865ZM44.1917 32.6821C44.1917 34.7944 42.4797 36.5287 40.3451 36.5287C38.2328 36.5287 36.4985 34.8166 36.4985 32.6821C36.4985 30.5699 38.2106 28.8356 40.3451 28.8356C42.4797 28.8356 44.1917 30.5699 44.1917 32.6821Z" fill="#F7F7F7"/>
<path d="M46.8156 50.8486H33.875V54.7619H46.8156V50.8486Z" fill="#F7F7F7"/>
<path d="M57.1545 45.4429L51.418 38.8838C51.6181 40.3068 51.707 41.752 51.707 43.1972V45.4429H57.1545Z" fill="#F7F7F7"/>
<path d="M28.9836 45.4411V43.1954C28.9836 41.7724 29.0725 40.3717 29.2504 38.9932L23.625 45.4411H28.9836Z" fill="#F7F7F7"/>
<path d="M40.3911 65.899C43.0147 63.342 44.5267 59.8513 44.5712 56.1826H36.2109C36.2554 59.8513 37.7674 63.342 40.3911 65.899Z" fill="#F7F7F7"/>
<path d="M35.4303 68.4541C35.03 68.4541 34.7188 68.7654 34.7188 69.1656V77.2588C34.7188 77.6591 35.03 77.9703 35.4303 77.9703C35.8305 77.9703 36.1418 77.6591 36.1418 77.2588V69.1656C36.1418 68.7654 35.8305 68.4541 35.4303 68.4541Z" fill="#F7F7F7"/>
<path d="M40.3912 70.9482C39.991 70.9482 39.6797 71.2595 39.6797 71.6597V79.753C39.6797 80.1532 39.991 80.4645 40.3912 80.4645C40.7914 80.4645 41.1027 80.1532 41.1027 79.753V71.6597C41.1027 71.2595 40.7914 70.9482 40.3912 70.9482Z" fill="#F7F7F7"/>
<path d="M45.3482 68.4541C44.948 68.4541 44.6367 68.7654 44.6367 69.1656V77.2588C44.6367 77.6591 44.948 77.9703 45.3482 77.9703C45.7484 77.9703 46.0597 77.6591 46.0597 77.2588V69.1656C46.0597 68.7654 45.7262 68.4541 45.3482 68.4541Z" fill="#F7F7F7"/>
</g>
<defs>
<clipPath id="clip0_1254_3347">
<path d="M0 40.4639C0 18.3725 17.9086 0.463867 40 0.463867C62.0914 0.463867 80 18.3725 80 40.4639C80 62.5553 62.0914 80.4639 40 80.4639C17.9086 80.4639 0 62.5553 0 40.4639Z" fill="white"/>
</clipPath>
</defs>
</svg>
