<svg width="80" height="81" viewBox="0 0 80 81" fill="none" xmlns="http://www.w3.org/2000/svg">
<path d="M0 40.4639C0 18.3725 17.9086 0.463867 40 0.463867C62.0914 0.463867 80 18.3725 80 40.4639C80 62.5553 62.0914 80.4639 40 80.4639C17.9086 80.4639 0 62.5553 0 40.4639Z" fill="#1E40AF"/>
<path d="M40.4431 17.4639C50.5533 17.4639 58.7493 26.0589 58.7493 36.6615H57.6122C57.6122 26.7175 49.9254 18.6563 40.4431 18.6563C30.9609 18.6563 23.2741 26.7175 23.2741 36.6615H22.137C22.137 26.0589 30.333 17.4639 40.4431 17.4639Z" fill="white"/>
<path d="M42.6258 23.7952C42.4412 23.4241 42.0411 23.2325 41.6526 23.3333C41.2641 23.4321 40.9929 23.7952 40.9929 24.2147V40.4801C40.9929 40.8149 41.1679 41.1215 41.4526 41.2809C42.1181 41.654 42.5317 42.3782 42.5317 43.1689C42.5317 43.7598 42.3047 44.3105 41.897 44.7199C41.4892 45.1254 40.9545 45.3351 40.389 45.3049C39.3965 45.2525 38.5522 44.4013 38.4637 43.3686C38.3906 42.5053 38.8099 41.6864 39.5331 41.2809C39.8178 41.1216 39.9947 40.8149 39.9947 40.4801V24.2189C39.9947 23.7994 39.7216 23.4363 39.3331 23.3375C38.9446 23.2366 38.5446 23.4282 38.3599 23.8014L29.2508 42.2009C28.9104 42.8886 28.8662 43.6995 29.1277 44.4236L32.9629 55.003C33.0899 55.3539 33.4149 55.588 33.7727 55.588H47.2152C47.571 55.588 47.896 55.352 48.0229 55.003L51.8581 44.4236C52.1197 43.6995 52.0754 42.8886 51.735 42.2009L42.6258 23.7952Z" fill="white"/>
<path d="M47.0783 56.7981H33.9071C33.4301 56.7981 33.0416 57.2055 33.0416 57.7057V61.5562C33.0416 62.0564 33.4301 62.4639 33.9071 62.4639H47.0783C47.5553 62.4639 47.9438 62.0564 47.9438 61.5562V57.7057C47.9438 57.2055 47.5553 56.7981 47.0783 56.7981Z" fill="white"/>
<path d="M24.4111 36.6615C24.4111 37.6493 23.6475 38.4501 22.7055 38.4501C21.7636 38.4501 21 37.6493 21 36.6615C21 35.6737 21.7636 34.8729 22.7055 34.8729C23.6475 34.8729 24.4111 35.6737 24.4111 36.6615Z" fill="white"/>
<path d="M60 36.6615C60 37.6493 59.2364 38.4501 58.2945 38.4501C57.3525 38.4501 56.5889 37.6493 56.5889 36.6615C56.5889 35.6737 57.3525 34.8729 58.2945 34.8729C59.2364 34.8729 60 35.6737 60 36.6615Z" fill="white"/>
</svg>
