<svg width="45" height="46" viewBox="0 0 45 46" fill="none" xmlns="http://www.w3.org/2000/svg">
<path d="M44.0287 11.7417C42.6036 6.90973 38.5732 2.87934 33.7412 1.45422C30.0671 0.385392 27.5286 0.474461 25.7695 1.78823C23.6541 3.36922 23.4091 6.21944 23.4091 8.24577V13.7903C23.4091 19.2681 25.9031 22.0515 30.8019 22.0515H37.1926C39.1967 22.0515 42.0692 21.8066 43.6502 19.6912C45.0085 17.9543 45.1198 15.4159 44.0287 11.7417Z" fill="white"/>
<path d="M37.8812 26.0166C37.3023 25.3486 36.4561 24.97 35.5877 24.97H27.616C23.6969 24.97 20.5127 21.7858 20.5127 17.8666V9.89493C20.5127 9.02651 20.1341 8.18035 19.4661 7.6014C18.8204 7.02245 17.9297 6.75524 17.0835 6.86657C11.8507 7.53459 7.04097 10.4071 3.90127 14.727C0.739305 19.0692 -0.418597 24.3688 0.583434 29.6684C2.03081 37.3284 8.15433 43.4519 15.8366 44.8993C17.0613 45.1442 18.286 45.2556 19.5107 45.2556C23.5411 45.2556 27.4378 44.0086 30.7557 41.5815C35.0755 38.4418 37.948 33.632 38.6161 28.3992C38.7274 27.5308 38.4602 26.6623 37.8812 26.0166Z" fill="white"/>
</svg>
