<svg width="57" height="57" viewBox="0 0 57 57" fill="none" xmlns="http://www.w3.org/2000/svg">
<path fill-rule="evenodd" clip-rule="evenodd" d="M28.4999 0.521484C30.0445 0.521484 31.2965 1.77358 31.2965 3.31809V6.1147C31.2965 7.65922 30.0445 8.91131 28.4999 8.91131C26.9554 8.91131 25.7033 7.65922 25.7033 6.1147V3.31809C25.7033 1.77358 26.9554 0.521484 28.4999 0.521484Z" fill="white"/>
<path fill-rule="evenodd" clip-rule="evenodd" d="M50.0538 6.93433C51.1459 8.02649 51.1459 9.79719 50.0538 10.8894L47.2572 13.686C46.1651 14.7781 44.3943 14.7781 43.3022 13.686C42.2101 12.5938 42.2101 10.8231 43.3022 9.73094L46.0988 6.93433C47.1909 5.8422 48.9617 5.8422 50.0538 6.93433Z" fill="white"/>
<path fill-rule="evenodd" clip-rule="evenodd" d="M48.0764 28.4861C48.0764 26.9415 49.3285 25.6895 50.873 25.6895H53.6696C55.2142 25.6895 56.4662 26.9415 56.4662 28.4861C56.4662 30.0306 55.2142 31.2827 53.6696 31.2827H50.873C49.3285 31.2827 48.0764 30.0306 48.0764 28.4861Z" fill="white"/>
<path fill-rule="evenodd" clip-rule="evenodd" d="M0.533813 28.4861C0.533813 26.9415 1.78591 25.6895 3.33042 25.6895H6.12703C7.67155 25.6895 8.92364 26.9415 8.92364 28.4861C8.92364 30.0306 7.67155 31.2827 6.12703 31.2827H3.33042C1.78591 31.2827 0.533813 30.0306 0.533813 28.4861Z" fill="white"/>
<path fill-rule="evenodd" clip-rule="evenodd" d="M6.94617 6.93433C8.03833 5.8422 9.80904 5.8422 10.9012 6.93433L13.6978 9.73094C14.7899 10.8231 14.7899 12.5938 13.6978 13.686C12.6056 14.7781 10.8349 14.7781 9.74278 13.686L6.94617 10.8894C5.85404 9.79719 5.85404 8.02649 6.94617 6.93433Z" fill="white"/>
<path fill-rule="evenodd" clip-rule="evenodd" d="M28.4999 11.7109C19.2327 11.7109 11.7202 19.2234 11.7202 28.4906C11.7202 33.058 13.5488 37.204 16.5076 40.2269C17.2567 40.9923 17.6605 41.6954 17.7851 42.3182L19.2648 49.713C20.0494 53.6344 23.4925 56.4567 27.4917 56.4567H29.5081C33.5072 56.4567 36.9504 53.6344 37.7348 49.713L39.2145 42.3182C39.3393 41.6954 39.7431 40.9923 40.492 40.2269C43.4508 37.204 45.2795 33.058 45.2795 28.4906C45.2795 19.2234 37.767 11.7109 28.4999 11.7109ZM25.7033 39.677C24.1587 39.677 22.9067 40.9291 22.9067 42.4737C22.9067 44.0182 24.1587 45.2703 25.7033 45.2703H31.2965C32.8411 45.2703 34.0931 44.0182 34.0931 42.4737C34.0931 40.9291 32.8411 39.677 31.2965 39.677H25.7033Z" fill="white"/>
</svg>
