<svg width="81" height="81" viewBox="0 0 81 81" fill="none" xmlns="http://www.w3.org/2000/svg">
<path d="M44.3995 61.2703L43.1016 63.4632C41.9448 65.4175 39.055 65.4175 37.8981 63.4632L36.6003 61.2703C35.5936 59.5695 35.0903 58.7192 34.2817 58.2488C33.4732 57.7787 32.4553 57.761 30.4194 57.726C27.4138 57.6742 25.5288 57.4901 23.9478 56.8351C21.0146 55.6202 18.6842 53.2897 17.4692 50.3566C16.5579 48.1566 16.5579 45.3677 16.5579 39.7899V37.3957C16.5579 29.5584 16.5579 25.6398 18.322 22.7611C19.3091 21.1503 20.6633 19.7961 22.2741 18.809C25.1528 17.0449 29.0714 17.0449 36.9087 17.0449H44.0913C51.9286 17.0449 55.8473 17.0449 58.7258 18.809C60.3367 19.7961 61.6909 21.1503 62.678 22.7611C64.4421 25.6398 64.4421 29.5584 64.4421 37.3957V39.7899C64.4421 45.3677 64.4421 48.1566 63.5308 50.3566C62.3158 53.2897 59.9854 55.6202 57.0522 56.8351C55.4712 57.4901 53.5861 57.6742 50.5805 57.726C48.5445 57.761 47.5268 57.7787 46.7182 58.2488C45.9096 58.7192 45.4064 59.5695 44.3995 61.2703Z" fill="white"/>
<path fill-rule="evenodd" clip-rule="evenodd" d="M47.6108 29.731C48.3121 29.0298 49.4491 29.0298 50.1504 29.731L50.5611 30.1418C50.5905 30.1712 50.6199 30.2006 50.6491 30.2298C52.1702 31.7509 53.4387 33.0192 54.3102 34.1616C55.2303 35.3673 55.8754 36.6411 55.8754 38.1834C55.8754 39.7255 55.2303 40.9994 54.3102 42.2052C53.4387 43.3475 52.1702 44.616 50.6491 46.1369L50.1504 46.6358C49.4491 47.3369 48.3121 47.3369 47.6108 46.6358C46.9095 45.9345 46.9095 44.7975 47.6108 44.0962L48.0217 43.6855C49.6537 42.0535 50.7472 40.9546 51.455 40.0267C52.1313 39.1404 52.2841 38.6246 52.2841 38.1834C52.2841 37.7422 52.1313 37.2261 51.455 36.34C50.7472 35.4123 49.6537 34.3133 48.0217 32.6812L47.6108 32.2705C46.9095 31.5692 46.9095 30.4323 47.6108 29.731Z" fill="#0D0E15"/>
<path fill-rule="evenodd" clip-rule="evenodd" d="M44.0624 24.8878C45.0203 25.1445 45.5888 26.1291 45.3322 27.087L39.1355 50.2134C38.8789 51.1713 37.8942 51.7396 36.9363 51.483C35.9783 51.2264 35.4099 50.2417 35.6666 49.2838L41.8632 26.1575C42.1198 25.1996 43.1045 24.6311 44.0624 24.8878Z" fill="#0D0E15"/>
<path fill-rule="evenodd" clip-rule="evenodd" d="M33.3892 29.731C32.688 29.0298 31.551 29.0298 30.8498 29.731L30.439 30.1418C30.4095 30.1712 30.3802 30.2006 30.3509 30.2298C28.8298 31.7509 27.5614 33.0192 26.6898 34.1616C25.7699 35.3673 25.1246 36.6411 25.1246 38.1834C25.1246 39.7255 25.7699 40.9994 26.6898 42.2052C27.5614 43.3475 28.8298 44.616 30.351 46.1369L30.8498 46.6358C31.551 47.3369 32.688 47.3369 33.3892 46.6358C34.0905 45.9345 34.0905 44.7975 33.3892 44.0962L32.9784 43.6855C31.3464 42.0535 30.2528 40.9546 29.545 40.0267C28.8688 39.1404 28.7159 38.6246 28.7159 38.1834C28.7159 37.7422 28.8688 37.2261 29.545 36.34C30.2528 35.4123 31.3464 34.3133 32.9784 32.6812L33.3892 32.2705C34.0905 31.5692 34.0905 30.4323 33.3892 29.731Z" fill="#0D0E15"/>
</svg>
