<svg width="81" height="48" viewBox="0 0 81 48" fill="none" xmlns="http://www.w3.org/2000/svg">
<path d="M22.7652 17.3983C22.7652 18.383 22.8716 19.1814 23.0579 19.7669C23.2708 20.3524 23.537 20.9912 23.9096 21.6831C24.0426 21.896 24.0959 22.1089 24.0959 22.2952C24.0959 22.5614 23.9362 22.8275 23.5902 23.0936L21.9135 24.2114C21.674 24.3711 21.4345 24.451 21.2216 24.451C20.9554 24.451 20.6893 24.3179 20.4232 24.0784C20.0506 23.6792 19.7312 23.2533 19.4651 22.8275C19.1989 22.3751 18.9328 21.8694 18.64 21.2573C16.5642 23.7058 13.956 24.93 10.8156 24.93C8.58005 24.93 6.79693 24.2913 5.49285 23.0138C4.18878 21.7363 3.52344 20.0331 3.52344 17.904C3.52344 15.6418 4.32185 13.8055 5.94529 12.4215C7.56873 11.0376 9.72444 10.3457 12.4657 10.3457C13.3705 10.3457 14.302 10.4255 15.2867 10.5586C16.2714 10.6916 17.2827 10.9046 18.3473 11.1441V9.20127C18.3473 7.17863 17.9215 5.7681 17.0964 4.94307C16.2448 4.11805 14.8077 3.71884 12.7584 3.71884C11.8269 3.71884 10.8688 3.8253 9.88412 4.06482C8.89941 4.30434 7.94132 4.5971 7.00984 4.96969C6.58402 5.15598 6.26465 5.26244 6.07836 5.31567C5.89206 5.36889 5.75899 5.39551 5.65254 5.39551C5.27994 5.39551 5.09365 5.12937 5.09365 4.57048V3.26641C5.09365 2.84059 5.14688 2.52122 5.27994 2.33493C5.41301 2.14863 5.65254 1.96233 6.02513 1.77604C6.95661 1.29699 8.07439 0.897785 9.37846 0.57842C10.6825 0.232441 12.0664 0.0727587 13.5302 0.0727587C16.6972 0.0727587 19.0126 0.79133 20.503 2.22847C21.9668 3.66561 22.7119 5.84794 22.7119 8.77545V17.3983H22.7652ZM11.96 21.4436C12.8382 21.4436 13.7431 21.2839 14.7012 20.9646C15.6593 20.6452 16.5109 20.0597 17.2295 19.2613C17.6553 18.7556 17.9747 18.1967 18.1344 17.558C18.2941 16.9193 18.4005 16.1475 18.4005 15.2426V14.1248C17.6287 13.9385 16.8037 13.7788 15.9521 13.6724C15.1004 13.5659 14.2754 13.5127 13.4504 13.5127C11.6672 13.5127 10.3632 13.8587 9.48492 14.5773C8.60666 15.2958 8.18084 16.3071 8.18084 17.6378C8.18084 18.8887 8.50021 19.8202 9.16555 20.4589C9.80428 21.1242 10.7358 21.4436 11.96 21.4436ZM33.3308 24.3179C32.8518 24.3179 32.5324 24.238 32.3195 24.0517C32.1066 23.8921 31.9203 23.5195 31.7606 23.0138L25.5064 2.44138C25.3467 1.90911 25.2669 1.56313 25.2669 1.37683C25.2669 0.951012 25.4798 0.711489 25.9056 0.711489H28.5137C29.0194 0.711489 29.3654 0.79133 29.5517 0.977626C29.7646 1.13731 29.9243 1.5099 30.084 2.01556L34.5551 19.6339L38.7068 2.01556C38.8399 1.48329 38.9996 1.13731 39.2125 0.977626C39.4254 0.817944 39.798 0.711489 40.277 0.711489H42.4061C42.9118 0.711489 43.2578 0.79133 43.4707 0.977626C43.6836 1.13731 43.8699 1.5099 43.9763 2.01556L48.1813 19.8468L52.7855 2.01556C52.9452 1.48329 53.1315 1.13731 53.3178 0.977626C53.5307 0.817944 53.8766 0.711489 54.3557 0.711489H56.8308C57.2566 0.711489 57.4961 0.924399 57.4961 1.37683C57.4961 1.5099 57.4695 1.64297 57.4429 1.80265C57.4163 1.96233 57.363 2.17524 57.2566 2.468L50.8427 23.0404C50.683 23.5727 50.4967 23.9187 50.2838 24.0784C50.0709 24.238 49.7249 24.3445 49.2725 24.3445H46.9837C46.478 24.3445 46.132 24.2647 45.9191 24.0784C45.7062 23.8921 45.5199 23.5461 45.4135 23.0138L41.2883 5.84794L37.1898 22.9872C37.0568 23.5195 36.8971 23.8654 36.6842 24.0517C36.4713 24.238 36.0987 24.3179 35.6196 24.3179H33.3308ZM67.5295 25.0365C66.1456 25.0365 64.7617 24.8768 63.431 24.5574C62.1003 24.238 61.0624 23.8921 60.3704 23.4929C59.9446 23.2533 59.6518 22.9872 59.5454 22.7477C59.4389 22.5081 59.3857 22.242 59.3857 22.0025V20.6452C59.3857 20.0863 59.5986 19.8202 59.9978 19.8202C60.1575 19.8202 60.3172 19.8468 60.4769 19.9C60.6365 19.9532 60.8761 20.0597 61.1422 20.1661C62.0471 20.5653 63.0318 20.8847 64.0697 21.0976C65.1343 21.3105 66.1722 21.417 67.2367 21.417C68.9134 21.417 70.2175 21.1242 71.1224 20.5387C72.0272 19.9532 72.5063 19.1016 72.5063 18.0104C72.5063 17.2652 72.2667 16.6531 71.7877 16.1475C71.3086 15.6418 70.4038 15.1894 69.0997 14.7635L65.2407 13.5659C63.2979 12.9538 61.8608 12.0489 60.9825 10.8513C60.1043 9.68032 59.6518 8.37625 59.6518 6.99233C59.6518 5.87456 59.8913 4.88985 60.3704 4.03821C60.8494 3.18657 61.4882 2.44138 62.2866 1.85588C63.085 1.24376 63.9899 0.79133 65.0544 0.471965C66.119 0.1526 67.2367 0.0195312 68.4077 0.0195312C68.9932 0.0195312 69.6054 0.046145 70.1909 0.125986C70.803 0.205827 71.3619 0.312282 71.9208 0.418737C72.453 0.551806 72.9587 0.684875 73.4377 0.844557C73.9168 1.00424 74.2894 1.16392 74.5555 1.3236C74.9281 1.53651 75.1943 1.74942 75.3539 1.98895C75.5136 2.20186 75.5935 2.49461 75.5935 2.8672V4.11805C75.5935 4.67694 75.3805 4.96969 74.9813 4.96969C74.7684 4.96969 74.4224 4.86323 73.97 4.65032C72.453 3.95837 70.7498 3.61239 68.8602 3.61239C67.3432 3.61239 66.1456 3.85191 65.3206 4.35757C64.4955 4.86323 64.0697 5.63503 64.0697 6.72619C64.0697 7.47138 64.3358 8.11011 64.8681 8.61577C65.4004 9.12143 66.3851 9.62709 67.7956 10.0795L71.5748 11.2771C73.491 11.8893 74.8749 12.7409 75.6999 13.8321C76.5249 14.9232 76.9241 16.1741 76.9241 17.558C76.9241 18.7024 76.6846 19.7403 76.2322 20.6452C75.7531 21.5501 75.1144 22.3485 74.2894 22.9872C73.4644 23.6525 72.4796 24.1316 71.3353 24.4776C70.1376 24.8502 68.8868 25.0365 67.5295 25.0365Z" fill="white"/>
<path fill-rule="evenodd" clip-rule="evenodd" d="M72.5595 37.9691C63.8036 44.4363 51.0822 47.8695 40.1439 47.8695C24.8144 47.8695 11.0019 42.2007 0.569313 32.7795C-0.255713 32.0343 0.489472 31.023 1.47418 31.6085C12.7584 38.1554 26.6774 42.1209 41.0754 42.1209C50.7894 42.1209 61.4616 40.0982 71.282 35.9465C72.7458 35.2812 73.9966 36.9046 72.5595 37.9691Z" fill="#FF9900"/>
<path fill-rule="evenodd" clip-rule="evenodd" d="M76.2056 33.8191C75.0878 32.3819 68.807 33.1271 65.9593 33.4731C65.1076 33.5796 64.9746 32.8344 65.7464 32.2755C70.7498 28.7625 78.9734 29.7738 79.9315 30.9448C80.8896 32.1424 79.6654 40.3661 74.9813 44.3049C74.2628 44.917 73.5708 44.5976 73.8902 43.7992C74.9547 41.1645 77.3234 35.2296 76.2056 33.8191Z" fill="#FF9900"/>
</svg>
