<svg width="71" height="56" viewBox="0 0 71 56" fill="none" xmlns="http://www.w3.org/2000/svg">
<path d="M32.8464 52.2757C41.9682 50.6641 49.5023 49.3305 49.5889 49.3122L49.7462 49.2788L41.1343 39.034C36.3977 33.3993 32.5224 28.7673 32.5224 28.7406C32.5224 28.6901 41.4149 4.19906 41.4649 4.11193C41.4816 4.08279 47.5332 14.532 56.1345 29.4415C64.1871 43.4001 70.8261 54.909 70.8878 55.0168L71 55.2129L43.6306 55.2094L16.2612 55.2058L32.8464 52.2757ZM0 49.1515C0 49.1371 4.0579 42.0921 9.01755 33.4959L18.0351 17.8665L28.544 9.0464C34.3239 4.19533 39.0685 0.220339 39.0875 0.21309C39.1065 0.205842 39.0305 0.397231 38.9186 0.638401C38.8066 0.879571 33.6716 11.895 27.5074 25.1171L16.2997 49.1573L8.14985 49.1675C3.66743 49.1731 0 49.1659 0 49.1515Z" fill="#0089D6"/>
</svg>
