<svg width="114" height="51" viewBox="0 0 114 51" fill="none" xmlns="http://www.w3.org/2000/svg">
<path d="M17.7315 4.03665H31.1308L17.221 45.25C17.078 45.6735 16.8059 46.0415 16.4428 46.3022C16.0797 46.5629 15.644 46.7032 15.1971 46.7033H4.76904C4.43038 46.7033 4.09658 46.6227 3.79525 46.4682C3.49392 46.3136 3.23372 46.0895 3.03619 45.8144C2.83865 45.5393 2.70945 45.2212 2.65928 44.8863C2.60911 44.5513 2.6394 44.2093 2.74766 43.8884L15.707 5.4899C15.8499 5.06623 16.1221 4.69806 16.4853 4.43725C16.8485 4.17645 17.2844 4.03667 17.7315 4.03665Z" fill="url(#paint0_linear_3605_10360)"/>
<path d="M37.2043 31.6797H15.9562C15.7586 31.6795 15.5656 31.7387 15.4022 31.8498C15.2389 31.9609 15.1127 32.1185 15.0403 32.3023C14.9678 32.4861 14.9523 32.6874 14.9959 32.8801C15.0395 33.0728 15.1401 33.2478 15.2846 33.3825L28.9382 46.1263C29.3357 46.4971 29.8591 46.7033 30.4028 46.7031H42.4343L37.2043 31.6797Z" fill="#0078D4"/>
<path d="M17.7327 4.03615C17.2807 4.03441 16.8399 4.17725 16.4749 4.4438C16.1098 4.71035 15.8396 5.08664 15.7036 5.5177L2.76479 43.8529C2.64925 44.1749 2.61298 44.5201 2.65904 44.8591C2.7051 45.1982 2.83215 45.5211 3.02942 45.8007C3.22669 46.0802 3.4884 46.3082 3.79239 46.4652C4.09639 46.6222 4.43373 46.7037 4.77588 46.7028H15.473C15.8714 46.6316 16.2438 46.4559 16.5521 46.1938C16.8604 45.9316 17.0936 45.5922 17.2278 45.2104L19.8081 37.6061L29.0247 46.2026C29.4109 46.5221 29.8954 46.6987 30.3967 46.7028H42.3834L37.1262 31.6793L21.8006 31.6829L31.1804 4.03615H17.7327Z" fill="url(#paint1_linear_3605_10360)"/>
<path d="M34.8483 5.48733C34.7056 5.06434 34.4338 4.69678 34.0712 4.43643C33.7085 4.17609 33.2734 4.03608 32.827 4.03613H17.8936C18.3399 4.03616 18.7751 4.1762 19.1377 4.43653C19.5003 4.69686 19.7722 5.06438 19.9149 5.48733L32.8748 43.8874C32.9832 44.2083 33.0135 44.5504 32.9634 44.8855C32.9133 45.2205 32.7841 45.5387 32.5866 45.8139C32.389 46.0891 32.1288 46.3133 31.8274 46.4679C31.526 46.6226 31.1922 46.7033 30.8534 46.7033H45.7874C46.126 46.7032 46.4599 46.6225 46.7612 46.4678C47.0625 46.3131 47.3226 46.0889 47.5201 45.8137C47.7176 45.5385 47.8467 45.2203 47.8968 44.8853C47.9469 44.5504 47.9165 44.2083 47.8082 43.8874L34.8483 5.48733Z" fill="url(#paint2_linear_3605_10360)"/>
<path d="M59.6805 32.3701H56.868L61.9887 17.8247H65.2416L70.3694 32.3701H67.5569L63.672 20.8076H63.5583L59.6805 32.3701ZM59.7728 26.667H67.4433V28.7835H59.7728V26.667ZM72.0296 32.3701V30.7366L77.6546 23.684V23.5917H72.2142V21.461H80.8009V23.2153L75.4458 30.1471V30.2394H80.9855V32.3701H72.0296ZM90.3552 27.782V21.461H92.9262V32.3701H90.4333V30.4312H90.3197C90.0735 31.042 89.6686 31.5415 89.1052 31.9298C88.5465 32.318 87.8576 32.5122 87.0384 32.5122C86.3235 32.5122 85.6914 32.3535 85.1421 32.0363C84.5976 31.7143 84.1715 31.248 83.8637 30.6372C83.556 30.0216 83.4021 29.2783 83.4021 28.407V21.461H85.9731V28.0093C85.9731 28.7006 86.1625 29.2499 86.5413 29.657C86.9201 30.0642 87.4172 30.2678 88.0328 30.2678C88.4115 30.2678 88.7785 30.1755 89.1336 29.9909C89.4887 29.8062 89.7799 29.5316 90.0072 29.167C90.2392 28.7977 90.3552 28.336 90.3552 27.782ZM95.57 32.3701V21.461H98.0629V23.2792H98.1766C98.3754 22.6495 98.7164 22.1642 99.1993 21.8232C99.687 21.4776 100.243 21.3048 100.868 21.3048C101.01 21.3048 101.169 21.3119 101.344 21.3261C101.524 21.3356 101.673 21.3521 101.792 21.3758V23.7409C101.683 23.703 101.51 23.6698 101.273 23.6414C101.041 23.6083 100.816 23.5917 100.598 23.5917C100.13 23.5917 99.7083 23.6935 99.3343 23.8971C98.9649 24.096 98.6737 24.373 98.4607 24.7281C98.2476 25.0832 98.1411 25.4927 98.1411 25.9568V32.3701H95.57ZM107.88 32.5832C106.786 32.5832 105.842 32.3559 105.046 31.9014C104.256 31.4421 103.647 30.7934 103.221 29.9553C102.795 29.1125 102.582 28.1206 102.582 26.9795C102.582 25.8573 102.795 24.8725 103.221 24.0249C103.652 23.1727 104.253 22.5098 105.025 22.0363C105.797 21.5581 106.703 21.319 107.745 21.319C108.417 21.319 109.052 21.4279 109.649 21.6457C110.25 21.8588 110.78 22.1902 111.239 22.64C111.703 23.0898 112.068 23.6627 112.333 24.3588C112.598 25.05 112.731 25.8739 112.731 26.8303V27.6187H103.789V25.8857H110.266C110.262 25.3933 110.155 24.9553 109.947 24.5718C109.738 24.1836 109.447 23.8782 109.073 23.6556C108.704 23.4331 108.273 23.3218 107.781 23.3218C107.255 23.3218 106.793 23.4497 106.396 23.7053C105.998 23.9563 105.688 24.2877 105.465 24.6997C105.247 25.1069 105.136 25.5543 105.131 26.042V27.5548C105.131 28.1892 105.247 28.7338 105.479 29.1883C105.711 29.6381 106.036 29.9838 106.453 30.2252C106.869 30.462 107.357 30.5803 107.916 30.5803C108.29 30.5803 108.628 30.5283 108.931 30.4241C109.234 30.3152 109.497 30.1566 109.72 29.9482C109.942 29.7399 110.11 29.4819 110.224 29.1741L112.624 29.444C112.473 30.0785 112.184 30.6324 111.758 31.1059C111.337 31.5747 110.797 31.9392 110.139 32.1997C109.48 32.4553 108.728 32.5832 107.88 32.5832Z" fill="white"/>
<defs>
<linearGradient id="paint0_linear_3605_10360" x1="22.6151" y1="7.1984" x2="8.69961" y2="48.3084" gradientUnits="userSpaceOnUse">
<stop stop-color="#114A8B"/>
<stop offset="1" stop-color="#0669BC"/>
</linearGradient>
<linearGradient id="paint1_linear_3605_10360" x1="26.9632" y1="26.3562" x2="23.7443" y2="27.4446" gradientUnits="userSpaceOnUse">
<stop stop-opacity="0.3"/>
<stop offset="0.071" stop-opacity="0.2"/>
<stop offset="0.321" stop-opacity="0.1"/>
<stop offset="0.623" stop-opacity="0.05"/>
<stop offset="1" stop-opacity="0"/>
</linearGradient>
<linearGradient id="paint2_linear_3605_10360" x1="25.1943" y1="5.99885" x2="40.4694" y2="46.6945" gradientUnits="userSpaceOnUse">
<stop stop-color="#3CCBF4"/>
<stop offset="1" stop-color="#2892DF"/>
</linearGradient>
</defs>
</svg>
