<svg width="147" height="53" viewBox="0 0 147 53" fill="none" xmlns="http://www.w3.org/2000/svg">
<path d="M28.8916 33.8495H35.565C36.0286 33.8495 36.4078 34.233 36.4078 34.7032V38.6465C37.2115 38.8447 37.9254 39.3073 38.4346 39.96C38.9439 40.6126 39.219 41.4175 39.2158 42.2453C39.2158 44.2885 37.58 45.946 35.565 45.946C33.5478 45.946 31.912 44.2885 31.912 42.2453C31.912 40.4968 33.1123 39.03 34.7221 38.6443V35.5568H28.8938V45.66C28.8944 45.8068 28.8572 45.9512 28.7859 46.0794C28.7146 46.2077 28.6114 46.3154 28.4865 46.3923L22.6581 49.9478C22.5259 50.0287 22.3737 50.0712 22.2188 50.0704C22.0638 50.0696 21.912 50.0257 21.7806 49.9435L11.1076 43.2572C10.9845 43.1799 10.883 43.0725 10.8129 42.9451C10.7428 42.8177 10.7063 42.6746 10.7068 42.5292V35.5547L5.37462 32.4563C5.25336 32.3861 5.15122 32.2871 5.07717 32.1681C5.00312 32.0491 4.95944 31.9137 4.94995 31.7738V31.7153V20.6177C4.94995 20.3143 5.10812 20.0327 5.36595 19.881L10.7068 16.7133V9.87535C10.7068 9.59585 10.8411 9.33585 11.0643 9.17768L11.1098 9.14735L21.785 2.53035C21.9173 2.44796 22.07 2.4043 22.2259 2.4043C22.3817 2.4043 22.5345 2.44796 22.6668 2.53035L28.4951 6.15952C28.6183 6.23682 28.7197 6.34422 28.7898 6.4716C28.86 6.59897 28.8965 6.74211 28.896 6.88752V16.7047H37.2506V12.5512C36.4465 12.3529 35.7324 11.89 35.2231 11.2369C34.7138 10.5838 34.4389 9.77838 34.4426 8.95018C34.4426 6.90701 36.0785 5.24952 38.0935 5.24952C40.1106 5.24952 41.7443 6.90701 41.7443 8.95018C41.7443 10.6987 40.5461 12.1655 38.9363 12.5512V17.5583C38.9371 17.6698 38.916 17.7803 38.8741 17.8835C38.8322 17.9868 38.7703 18.0808 38.692 18.1601C38.6137 18.2394 38.5205 18.3024 38.4178 18.3457C38.3151 18.3889 38.2049 18.4114 38.0935 18.412H28.896V22.325H43.248C43.4323 21.5194 43.8837 20.7999 44.5289 20.2834C45.174 19.7669 45.9749 19.4838 46.8013 19.4802C48.8163 19.4802 50.4521 21.1355 50.4521 23.1787C50.4521 25.2218 48.8185 26.8793 46.8013 26.8793C45.9746 26.8756 45.1735 26.5922 44.5283 26.0753C43.8831 25.5584 43.4319 24.8383 43.248 24.0323H28.8916V28.2292H39.6231L41.6056 30.7858C42.1578 30.463 42.786 30.2932 43.4256 30.294C45.4428 30.294 47.0765 31.9493 47.0765 33.9925C47.0765 36.0357 45.4428 37.6932 43.4256 37.6932C41.4106 37.6932 39.7748 36.0357 39.7748 33.9925C39.7748 33.2428 39.9958 32.5452 40.3728 31.9623L38.8041 29.9365H28.8916V33.8495ZM22.2248 4.25935L17.7983 7.00235V13.433H16.1126V8.04668L12.3925 10.3542V16.735L16.9641 19.6817L21.6593 16.7263V11.795H23.345V17.203C23.345 17.4977 23.1933 17.7728 22.9463 17.9288L17.8698 21.1203V25.6292L20.9508 27.8153L19.9845 29.215L16.9381 27.0527L13.6231 29.2302L12.7066 27.8002L16.1841 25.5143V21.2027L11.5323 18.1997L6.63562 21.103V24.7343L10.9083 22.1582L11.7706 23.625L6.63562 26.7212V31.2213L11.3286 33.947L16.247 30.983L17.1071 32.4498L12.3925 35.2903V42.0547L16.4571 44.6005L21.5813 41.5108L22.4436 42.9798L18.0735 45.6145L22.2291 48.2167L27.2081 45.1768V32.6535L16.8991 38.9217L16.0325 37.4592L27.2081 30.6645V7.36418L22.2248 4.25935ZM35.565 40.2563C35.3048 40.2578 35.0475 40.3105 34.8078 40.4115C34.568 40.5125 34.3505 40.6598 34.1678 40.8449C33.9851 41.0301 33.8406 41.2495 33.7428 41.4905C33.645 41.7316 33.5956 41.9895 33.5976 42.2497C33.5976 43.3482 34.4773 44.2387 35.565 44.2387C35.8247 44.237 36.0816 44.1841 36.321 44.0831C36.5603 43.9822 36.7774 43.835 36.9599 43.6501C37.1424 43.4652 37.2867 43.2462 37.3845 43.0055C37.4824 42.7649 37.5318 42.5073 37.5301 42.2475C37.5321 41.9876 37.4829 41.7297 37.3852 41.4888C37.2874 41.2479 37.1432 41.0286 36.9607 40.8435C36.7782 40.6584 36.561 40.5111 36.3215 40.4099C36.082 40.3088 35.8249 40.258 35.565 40.2563ZM43.43 32.0013C43.1698 32.0028 42.9125 32.0555 42.6728 32.1565C42.433 32.2575 42.2155 32.4048 42.0328 32.5899C41.8501 32.7751 41.7056 32.9945 41.6078 33.2355C41.51 33.4766 41.4606 33.7345 41.4626 33.9947C41.4626 35.0953 42.3423 35.988 43.4278 35.988C43.6879 35.9866 43.9452 35.9339 44.185 35.8329C44.4247 35.7319 44.6422 35.5846 44.8249 35.3994C45.0077 35.2143 45.1521 34.9949 45.2499 34.7538C45.3478 34.5128 45.3971 34.2548 45.3951 33.9947C45.3971 33.7345 45.3478 33.4766 45.2499 33.2355C45.1521 32.9945 45.0077 32.7751 44.8249 32.5899C44.6422 32.4048 44.4247 32.2575 44.185 32.1565C43.9452 32.0555 43.6901 32.0028 43.43 32.0013ZM46.7991 21.1897C46.539 21.1911 46.2817 21.2438 46.0419 21.3448C45.8022 21.4458 45.5847 21.5931 45.402 21.7783C45.2192 21.9634 45.0748 22.1828 44.977 22.4238C44.8791 22.6649 44.8298 22.9229 44.8318 23.183C44.8318 24.2815 45.7136 25.172 46.7991 25.172C47.0589 25.1703 47.3158 25.1175 47.5551 25.0165C47.7945 24.9155 48.0116 24.7683 48.1941 24.5834C48.3766 24.3985 48.5209 24.1795 48.6187 23.9389C48.7165 23.6982 48.766 23.4406 48.7643 23.1808C48.7663 22.9209 48.717 22.6631 48.6193 22.4222C48.5216 22.1813 48.3774 21.962 48.1949 21.7768C48.0124 21.5917 47.7951 21.4444 47.5557 21.3433C47.3162 21.2421 47.0591 21.1892 46.7991 21.1875V21.1897ZM38.0913 6.95468C37.8313 6.95638 37.5742 7.00931 37.3348 7.11043C37.0953 7.21155 36.878 7.35889 36.6955 7.54402C36.513 7.72915 36.3688 7.94843 36.2711 8.18934C36.1734 8.43025 36.1241 8.68806 36.1261 8.94802C36.1261 10.0487 37.0058 10.9413 38.0913 10.9413C38.3514 10.9399 38.6087 10.8872 38.8485 10.7862C39.0882 10.6852 39.3057 10.5379 39.4884 10.3528C39.6712 10.1676 39.8156 9.94823 39.9134 9.70718C40.0113 9.46614 40.0606 9.20816 40.0586 8.94802C40.0606 8.68787 40.0113 8.42989 39.9134 8.18885C39.8156 7.9478 39.6712 7.72841 39.4884 7.54326C39.3057 7.3581 39.0882 7.21081 38.8485 7.10981C38.6087 7.00881 38.3514 6.9561 38.0913 6.95468Z" fill="url(#paint0_linear_1822_5752)"/>
<path d="M66.818 31.5898V17.0444H72.3861C73.4373 17.0444 74.3109 17.2101 75.0069 17.5415C75.7076 17.8683 76.2308 18.3157 76.5765 18.8839C76.9269 19.4521 77.1021 20.096 77.1021 20.8157C77.1021 21.4076 76.9884 21.9142 76.7611 22.3356C76.5339 22.7522 76.2285 23.0908 75.8449 23.3512C75.4614 23.6116 75.0329 23.7987 74.5594 23.9123V24.0543C75.0755 24.0827 75.5703 24.2414 76.0438 24.5302C76.522 24.8143 76.9127 25.2167 77.2157 25.7376C77.5187 26.2584 77.6702 26.8881 77.6702 27.6268C77.6702 28.3796 77.4879 29.0567 77.1234 29.658C76.7588 30.2546 76.2095 30.7257 75.4756 31.0714C74.7417 31.417 73.8184 31.5898 72.7057 31.5898H66.818ZM69.4529 29.3881H72.2867C73.2431 29.3881 73.9321 29.2058 74.3535 28.8413C74.7796 28.4719 74.9927 27.9985 74.9927 27.4208C74.9927 26.9899 74.8861 26.6017 74.6731 26.256C74.46 25.9057 74.157 25.631 73.764 25.4322C73.371 25.2286 72.9022 25.1268 72.3577 25.1268H69.4529V29.3881ZM69.4529 23.2305H72.0594C72.514 23.2305 72.9235 23.1476 73.2881 22.9819C73.6527 22.8114 73.9392 22.5723 74.1475 22.2646C74.3606 21.9521 74.4671 21.5827 74.4671 21.1566C74.4671 20.5932 74.2682 20.1291 73.8705 19.7646C73.4775 19.4 72.8928 19.2177 72.1163 19.2177H69.4529V23.2305ZM84.6784 31.8029C83.5847 31.8029 82.64 31.5756 81.8446 31.1211C81.0539 30.6618 80.4454 30.0131 80.0193 29.1751C79.5932 28.3323 79.3801 27.3403 79.3801 26.1992C79.3801 25.0771 79.5932 24.0922 80.0193 23.2447C80.4502 22.3924 81.0515 21.7295 81.8233 21.256C82.5951 20.7778 83.5018 20.5387 84.5435 20.5387C85.2158 20.5387 85.8503 20.6476 86.4469 20.8654C87.0482 21.0785 87.5785 21.4099 88.0378 21.8597C88.5018 22.3095 88.8664 22.8825 89.1315 23.5785C89.3967 24.2698 89.5293 25.0936 89.5293 26.0501V26.8384H80.5875V25.1055H87.0648C87.06 24.613 86.9535 24.1751 86.7452 23.7915C86.5368 23.4033 86.2456 23.0979 85.8716 22.8754C85.5023 22.6528 85.0714 22.5415 84.579 22.5415C84.0534 22.5415 83.5918 22.6694 83.194 22.9251C82.7963 23.176 82.4862 23.5075 82.2636 23.9194C82.0458 24.3266 81.9346 24.774 81.9298 25.2617V26.7745C81.9298 27.409 82.0458 27.9535 82.2778 28.408C82.5098 28.8578 82.8342 29.2035 83.2508 29.445C83.6675 29.6817 84.1552 29.8001 84.7139 29.8001C85.088 29.8001 85.4265 29.748 85.7295 29.6438C86.0326 29.5349 86.2954 29.3763 86.5179 29.168C86.7404 28.9596 86.9085 28.7016 87.0222 28.3938L89.4227 28.6637C89.2712 29.2982 88.9824 29.8522 88.5562 30.3256C88.1348 30.7944 87.5951 31.159 86.9369 31.4194C86.2788 31.6751 85.5259 31.8029 84.6784 31.8029ZM95.7526 31.7816C94.8956 31.7816 94.1286 31.5614 93.4515 31.1211C92.7744 30.6808 92.2394 30.0415 91.8464 29.2035C91.4534 28.3654 91.2569 27.3474 91.2569 26.1495C91.2569 24.9374 91.4557 23.9147 91.8535 23.0813C92.2559 22.2433 92.7981 21.6112 93.4799 21.185C94.1617 20.7541 94.9217 20.5387 95.7597 20.5387C96.3989 20.5387 96.9245 20.6476 97.3364 20.8654C97.7484 21.0785 98.0751 21.3365 98.3165 21.6396C98.558 21.9379 98.745 22.2196 98.8776 22.4847H98.9842V17.0444H101.562V31.5898H99.0339V29.8711H98.8776C98.745 30.1362 98.5533 30.418 98.3023 30.7163C98.0514 31.0098 97.7199 31.2608 97.308 31.4691C96.8961 31.6774 96.3776 31.7816 95.7526 31.7816ZM96.4699 29.6722C97.0145 29.6722 97.4785 29.5254 97.862 29.2319C98.2455 28.9336 98.5367 28.5193 98.7356 27.989C98.9344 27.4587 99.0339 26.8408 99.0339 26.1353C99.0339 25.4298 98.9344 24.8166 98.7356 24.2958C98.5414 23.775 98.2526 23.3701 97.8691 23.0813C97.4903 22.7925 97.0239 22.6481 96.4699 22.6481C95.897 22.6481 95.4188 22.7972 95.0353 23.0955C94.6518 23.3938 94.3629 23.8058 94.1688 24.3313C93.9747 24.8569 93.8776 25.4582 93.8776 26.1353C93.8776 26.8171 93.9747 27.4255 94.1688 27.9606C94.3677 28.4909 94.6589 28.9099 95.0424 29.2177C95.4306 29.5207 95.9065 29.6722 96.4699 29.6722ZM104.302 31.5898V20.6808H106.795V22.4989H106.909C107.107 21.8692 107.448 21.3839 107.931 21.043C108.419 20.6973 108.975 20.5245 109.6 20.5245C109.742 20.5245 109.901 20.5316 110.076 20.5458C110.256 20.5553 110.405 20.5719 110.524 20.5955V22.9606C110.415 22.9227 110.242 22.8896 110.005 22.8612C109.773 22.828 109.548 22.8114 109.33 22.8114C108.862 22.8114 108.44 22.9132 108.066 23.1168C107.697 23.3157 107.406 23.5927 107.193 23.9478C106.98 24.3029 106.873 24.7125 106.873 25.1765V31.5898H104.302ZM116.541 31.8029C115.476 31.8029 114.552 31.5685 113.771 31.0998C112.99 30.631 112.384 29.9753 111.953 29.1325C111.527 28.2897 111.314 27.3048 111.314 26.1779C111.314 25.051 111.527 24.0638 111.953 23.2163C112.384 22.3687 112.99 21.7106 113.771 21.2418C114.552 20.7731 115.476 20.5387 116.541 20.5387C117.606 20.5387 118.53 20.7731 119.311 21.2418C120.092 21.7106 120.696 22.3687 121.122 23.2163C121.553 24.0638 121.768 25.051 121.768 26.1779C121.768 27.3048 121.553 28.2897 121.122 29.1325C120.696 29.9753 120.092 30.631 119.311 31.0998C118.53 31.5685 117.606 31.8029 116.541 31.8029ZM116.555 29.7433C117.133 29.7433 117.616 29.5846 118.004 29.2674C118.392 28.9454 118.681 28.5146 118.871 27.9748C119.065 27.435 119.162 26.8337 119.162 26.1708C119.162 25.5032 119.065 24.8995 118.871 24.3597C118.681 23.8152 118.392 23.382 118.004 23.06C117.616 22.738 117.133 22.5771 116.555 22.5771C115.963 22.5771 115.471 22.738 115.078 23.06C114.69 23.382 114.398 23.8152 114.204 24.3597C114.015 24.8995 113.92 25.5032 113.92 26.1708C113.92 26.8337 114.015 27.435 114.204 27.9748C114.398 28.5146 114.69 28.9454 115.078 29.2674C115.471 29.5846 115.963 29.7433 116.555 29.7433ZM128.709 31.8029C127.62 31.8029 126.685 31.5638 125.904 31.0856C125.127 30.6074 124.528 29.9469 124.107 29.104C123.69 28.2565 123.482 27.2811 123.482 26.1779C123.482 25.07 123.695 24.0922 124.121 23.2447C124.547 22.3924 125.148 21.7295 125.925 21.256C126.706 20.7778 127.629 20.5387 128.695 20.5387C129.58 20.5387 130.364 20.7021 131.046 21.0288C131.732 21.3507 132.279 21.8076 132.686 22.3995C133.093 22.9866 133.325 23.6732 133.382 24.4592H130.925C130.825 23.9336 130.589 23.4956 130.215 23.1452C129.845 22.7901 129.351 22.6126 128.73 22.6126C128.205 22.6126 127.743 22.7546 127.345 23.0387C126.948 23.3181 126.637 23.7205 126.415 24.2461C126.197 24.7717 126.088 25.4014 126.088 26.1353C126.088 26.8787 126.197 27.5179 126.415 28.0529C126.633 28.5832 126.938 28.9928 127.331 29.2816C127.729 29.5657 128.195 29.7077 128.73 29.7077C129.109 29.7077 129.448 29.6367 129.746 29.4947C130.049 29.3479 130.302 29.1372 130.506 28.8626C130.709 28.5879 130.849 28.2541 130.925 27.8612H133.382C133.321 28.6329 133.093 29.3171 132.7 29.9137C132.307 30.5056 131.772 30.9696 131.095 31.3058C130.418 31.6372 129.623 31.8029 128.709 31.8029ZM137.837 28.1665L137.83 25.0629H138.242L142.162 20.6808H145.167L140.344 26.0501H139.812L137.837 28.1665ZM135.493 31.5898V17.0444H138.064V31.5898H135.493ZM142.34 31.5898L138.789 26.6254L140.522 24.8143L145.415 31.5898H142.34Z" fill="white"/>
<defs>
<linearGradient id="paint0_linear_1822_5752" x1="3645.12" y1="955.726" x2="788.241" y2="3682.91" gradientUnits="userSpaceOnUse">
<stop stop-color="#6350FB"/>
<stop offset="0.5" stop-color="#3D8FFF"/>
<stop offset="1" stop-color="#9AD8F8"/>
</linearGradient>
</defs>
</svg>
