<svg width="92" height="73" viewBox="0 0 92 73" fill="none" xmlns="http://www.w3.org/2000/svg">
<path d="M84.619 55.8916C83.7492 56.0446 83.4739 55.8269 83.2799 55.2562C83.0859 54.6855 82.6103 54.862 82.6103 54.862C82.6103 54.862 82.0346 55.5798 82.5853 56.3682C83.136 57.1567 82.8231 57.4038 82.8231 57.4038L82.5102 57.4273L80.4453 58.3804H80.0323L79.8446 58.1098H78.568C78.5555 57.6979 77.9966 57.239 77.9966 57.239L77.4209 57.2625C77.7045 56.6349 77.6044 55.6465 77.6044 55.6465C76.9369 55.9132 76.3529 56.6036 76.3529 56.6036L75.068 56.6193C77.8046 54.5482 77.3207 54.1559 77.3207 54.1559C74.2837 52.2104 71.0966 59.7572 71.0966 59.7572C70.7462 56.2976 73.0322 54.8933 73.0322 54.8933C72.8487 52.0534 75.8189 51.2846 75.8189 51.2846C75.8189 51.2846 76.3696 51.159 78.4386 50.5315C80.5078 49.9038 80.7414 47.3307 80.7414 47.3307C80.7414 47.3307 80.5829 46.2167 81.7176 45.8636C82.8523 45.5106 82.9607 44.9615 82.9607 44.9615C82.9607 44.9615 83.0275 44.5065 82.5435 44.0279C82.0596 43.5494 81.701 43.0002 81.701 43.0002V42.153C80.633 42.0902 79.8508 43.3591 79.8508 43.3591L79.3064 42.4707C78.7808 42.7002 78.2051 44.024 78.2051 44.024C78.105 42.7767 78.981 41.594 78.981 41.594L78.8058 41.4763C78.3991 42.1177 77.4605 42.1294 77.4605 42.1294C76.9286 41.8823 76.0067 41.9804 76.0067 41.9804C75.5227 41.4508 75.2047 41.8352 75.2047 41.8352L74.9074 41.8235L74.5132 41.494L72.7111 41.847L73.6414 40.1368H72.7069L72.173 39.2699H71.8768L71.5097 38.6933L70.9716 38.7404L70.2676 37.9372L70.0267 37.9343L69.6826 37.3695L69.2946 37.3813L68.5312 37.0224L67.2109 35.5161L67.2484 37.0812C67.9055 37.8343 67.2109 38.4933 67.2109 38.4933L67.2923 38.7287L66.6289 40.7115C65.6465 40.6821 65.2711 40.1055 65.2711 40.1055C64.8331 40.1349 64.126 39.6113 64.126 39.6113C64.1135 39.0112 63.1373 38.2384 63.1373 38.2384C63.2542 37.5873 62.8245 36.5929 62.8245 36.5929L62.2926 36.9195C61.3039 37.4284 60.6719 36.9195 60.6719 36.9195C60.7125 36.4929 60.5154 36.4635 60.5154 36.4635C59.7583 36.44 58.9042 35.6839 58.9042 35.6839L58.6237 35.6574L58.1147 36.1595L57.3054 36.1516L56.371 36.3634C54.9359 36.3163 54.8901 36.9047 54.8901 36.9047C54.8901 36.9047 54.9276 37.3637 55.4157 37.5814C55.9037 37.7991 55.4824 39.2151 55.4824 39.2151L55.7202 39.2661L56.0457 39.8387L56.9801 40.4742C56.9801 40.4742 56.4628 41.3214 56.1374 41.9177C55.812 42.5139 56.2625 42.8905 56.2625 42.8905C56.2625 42.8905 58.8823 44.2555 59.3329 46.5149C59.7834 48.7742 56.6965 50.0373 56.6965 50.0373C57.5558 50.5707 58.0772 51.6573 58.0772 51.6573L57.9564 52.2638C57.9135 52.4797 58.0246 52.6982 58.2321 52.799C58.7419 53.0466 58.9992 53.2616 58.9992 53.2616V54.4541C58.4319 55.1445 58.3985 56.3291 58.3985 56.3291L56.9051 55.0974C56.1291 55.0346 55.347 54.6973 55.347 54.6973L54.5898 53.5146L54.8214 52.7674L54.7337 52.4438L53.8295 51.5054L53.9265 51.2965V50.4786C53.6324 49.6549 52.3872 49.802 52.3872 49.802C51.7489 50.2374 51.4653 50.3354 51.4653 50.3354L51.3432 50.2365C51.1064 50.0446 50.8185 49.9171 50.5104 49.8677L49.2352 49.6631C49.0633 49.6355 48.9128 49.5387 48.8233 49.3979L48.7795 49.329C48.6895 49.1872 48.5437 49.0844 48.3737 49.0427L48.3669 49.0399C48.2304 48.9843 48.1064 48.9016 48.0164 48.7903C47.5226 48.1792 46.4509 47.9898 46.4509 47.9898C45.9909 47.6033 45.3788 47.4556 44.9514 47.3996C44.6557 47.3609 44.355 47.4022 44.0827 47.5172L43.1662 47.9043C43.1089 47.9285 43.0528 47.8725 43.0795 47.8191C43.4498 47.0787 42.7468 45.6801 42.4429 45.1376C42.3659 44.9999 42.2142 44.9146 42.0487 44.9146L41.2349 44.9542C41.0348 44.9639 40.8485 44.8541 40.7734 44.6794C40.2294 43.413 40.7108 41.9335 40.7108 41.9335C40.8109 40.1606 41.5701 39.7841 41.5701 39.7841L41.6244 38.5935C42.5193 38.317 42.805 37.5639 42.805 37.5639C43.3557 37.5953 44.1066 37.2501 44.1066 37.2501L43.5955 36.3048C44.19 36.0871 44.6906 35.5164 44.6906 35.5164L45.5666 35.2339C45.5666 35.2339 46.501 34.5749 46.5511 33.8375C46.6011 33.1001 47.1622 31.8037 47.1622 31.8037C47.0502 31.4736 47.0296 31.1164 47.0311 30.8819C47.0318 30.7794 47.1615 30.7268 47.2405 30.7974L47.9405 31.4236C48.1351 31.5977 48.4532 31.5484 48.5787 31.325C49.0002 30.5744 49.2976 30.1416 49.4597 29.9244C49.5424 29.8135 49.6848 29.7569 49.8271 29.7786C49.8562 29.7831 49.887 29.7797 49.914 29.7685C50.7153 29.434 50.4592 28.7619 50.3451 28.5371C50.3218 28.4913 50.2904 28.45 50.252 28.4142L49.3255 27.5476C49.2866 27.5113 49.2647 27.4618 49.2647 27.4103V27.3176C49.2647 27.2368 49.3172 27.1635 49.3982 27.1365C49.5332 27.0915 49.7305 26.9647 49.7904 26.6083C49.8843 26.0493 48.9832 25.3727 48.9832 25.3727C47.9018 24.7292 46.9593 24.9616 46.4609 25.1806C46.2629 25.2676 46.2176 25.5128 46.3729 25.6573L46.9015 26.1493L46.6847 26.926C46.7597 27.3104 46.4568 27.6379 46.4568 27.6379L46.0672 27.7262L46.0922 28.1498C46.6804 29.3148 46.38 29.8326 46.38 29.8326C45.6292 30.1032 45.141 29.1304 45.141 29.1304V26.3926C44.4819 26.0474 43.3921 27.6468 43.3921 27.6468L43.3472 26.4318C43.3472 26.4318 41.7453 25.8198 42.2126 25.2864C42.6799 24.7529 42.4045 22.9407 41.9039 22.5485C41.4033 22.1562 41.1614 21.5051 41.1614 21.5051C41.1614 21.5051 41.8705 20.7912 41.8622 20.2263C41.8539 19.6615 42.3836 18.9809 42.3836 18.9809C42.5943 18.9672 42.6506 18.777 42.6506 18.777C42.7007 18.2886 42.0124 18.0062 42.0124 18.0062C41.4923 17.7839 41.0616 18.0969 40.7517 18.4893C40.3932 18.9433 40.2099 19.4989 40.2047 20.0644L40.1935 21.2697L39.5261 22.7446C39.5261 22.7446 38.9713 23.8194 40.6274 25.5963C42.2835 27.3732 41.0613 28.142 40.6274 28.2362C40.1935 28.3303 39.985 29.1541 39.985 29.1541L39.0088 28.1264L38.5415 28.4637L37.9242 28.4559C36.948 28.8795 36.1387 28.5265 36.1387 28.5265L35.6047 28.55C34.3245 28.5986 33.6079 27.5611 33.3503 27.0918C33.2728 26.9505 33.1221 26.8576 32.9536 26.8437L31.8154 26.7498C31.4766 26.7219 31.2179 27.0289 31.3242 27.3326L32.0092 29.288C32.0246 29.3321 31.96 29.3593 31.9343 29.3197C31.5646 28.7479 31.1998 28.3821 30.9282 28.1597C30.6974 27.9706 30.4076 27.8573 30.1027 27.8308C28.3625 27.6794 26.9872 27.3046 26.2429 27.0628C26.0334 26.9948 26.0349 26.7162 26.245 26.65L27.5209 26.2477C27.6168 26.2174 27.6665 26.1184 27.6322 26.0288C27.5427 25.7948 27.3928 25.6134 27.2581 25.4865C27.1079 25.3449 26.9037 25.2664 26.691 25.2645L25.8914 25.2576C25.7028 25.2559 25.5202 25.1862 25.389 25.0589C24.6958 24.3866 24.6424 23.5164 24.7038 22.9468C24.7438 22.5761 24.4445 22.2532 24.0488 22.2344C23.3819 22.2028 22.7146 22.3316 22.1494 22.5002C21.4443 22.7105 20.7431 22.1629 20.8198 21.4711L21.1362 19.7579C21.1659 19.5968 20.9602 19.493 20.8339 19.6054L19.7405 20.5777C19.526 20.7433 19.2094 20.714 19.0332 20.5124L18.3221 19.6979C18.151 19.502 17.8924 19.3925 17.623 19.4021C17.2394 19.4157 16.698 19.4349 16.4363 19.4442C16.3532 19.4472 16.2705 19.4172 16.218 19.3566C16.0386 19.149 15.6803 19.01 15.4575 18.9394C15.3516 18.9059 15.2373 18.9588 15.2016 19.0583L14.9332 20.1574C14.9162 20.2272 14.8145 20.2363 14.7838 20.1709L13.4704 17.0594C13.4292 16.9618 13.2915 16.9419 13.2211 17.0236L3.02777 28.8433C2.96206 28.9194 2.9514 29.0259 3.00224 29.1114C3.35108 29.6984 3.43361 30.2474 3.44181 30.6023C3.44643 30.8001 3.41111 30.9954 3.35272 31.1855C2.95526 32.4816 4.52992 32.4996 4.52992 32.4996H5.60492C5.68516 32.4996 5.74151 32.574 5.71521 32.6453L5.70777 32.6656C5.62378 32.8935 5.58067 33.1329 5.57751 33.3741C5.53335 36.737 6.16931 39.7052 6.16931 39.7052L6.11923 41.0232L4.73427 44.1298L2.86319 42.2069C2.44763 41.7798 1.69225 41.9767 1.56984 42.544L0.969905 45.3243C0.956609 45.3862 1.03533 45.428 1.08429 45.3846C1.57511 44.9493 3.04944 43.7601 3.27833 44.9535C3.55367 46.3892 4.1669 46.9423 4.1669 46.9423L4.80087 48.0433C4.94917 48.3009 4.86014 48.6218 4.59851 48.7809C4.16017 49.0475 3.83587 49.2798 3.59602 49.4771C3.13999 49.8522 2.9856 50.4563 3.21625 50.983L3.44104 51.4963C3.63784 52.5758 4.23233 54.2919 4.61872 55.3469C4.7351 55.6644 5.18433 55.7241 5.39102 55.4503C6.24451 54.3197 7.3707 55.2855 7.3707 55.2855C12.0262 57.4978 23.0394 60.0867 23.0394 60.0867C23.0394 60.0867 34.453 61.9224 37.3063 61.4517C40.1597 60.981 42.7461 62.0636 42.7461 62.0636C42.7461 62.0636 42.6794 62.754 44.2313 62.9423C45.1407 63.0526 45.563 62.721 45.7568 62.4276C45.8453 62.2937 46.0551 62.3037 46.1277 62.4459L46.2273 62.6411C46.3408 62.8636 46.6669 62.8932 46.8209 62.6933C47.4348 61.896 48.5126 61.4408 49.1574 61.2271C49.4378 61.1342 49.7537 61.219 49.9298 61.4444C50.8724 62.6508 52.4368 62.4402 52.4368 62.4402C52.4368 62.4402 53.1126 62.4637 53.2127 63.1581C53.3128 63.8524 53.7383 64.3231 53.7383 64.3231C53.7383 64.3231 56.5667 65.3115 56.8921 65.1115C57.2175 64.9115 57.668 64.8997 57.668 64.8997C57.668 64.8997 59.2825 65.4842 59.9249 65.7901C60.5673 66.0961 60.6904 66.5471 60.6904 66.5471L60.9118 67.1131C60.9988 67.3354 60.7671 67.5505 60.5318 67.4659L58.8277 66.853L58.8319 67.21C58.9821 67.72 58.882 68.1593 58.882 68.1593V68.6927L59.0905 69.234L59.1198 69.9479L58.565 70.5789C58.4236 70.7397 58.3579 70.9475 58.3827 71.1548L58.4024 71.2268C58.4358 71.3491 58.3964 71.4788 58.2995 71.5661L57.5863 72.1063C57.5019 72.1701 57.5489 72.2982 57.6572 72.2996L58.1066 72.3053C58.3014 72.2867 58.4832 72.2074 58.6233 72.0791C58.7533 71.9599 58.9348 71.785 59.1573 71.5483C59.6328 71.0423 61.46 70.4657 61.46 70.4657L62.8617 69.7008C62.2974 69.6578 62.02 69.5235 61.8898 69.3792C61.7439 69.2176 61.7784 68.9716 61.9501 68.8342L63.6752 67.4532C64.376 67.312 64.9642 67.7591 64.9642 67.7591L66.3909 65.0996C66.3909 65.0996 68.8939 63.9699 70.3706 63.7111C71.8474 63.4523 72.1853 62.2166 72.1853 62.2166L71.8562 61.3413C71.7077 60.9465 71.7122 60.5151 71.8688 60.123L72.5483 58.4216C72.5483 58.4216 72.5668 58.4498 72.5913 58.488C72.675 58.6186 72.8247 58.6994 72.988 58.7015L72.9944 58.7016C73.1297 58.7033 73.2592 58.6503 73.3501 58.5563L73.4309 58.4726C73.5613 58.3376 73.7249 58.2329 73.908 58.173C74.8223 57.8734 74.8635 58.5806 74.8635 58.5806C74.7759 60.1809 75.2327 60.4163 75.2327 60.4163L75.7076 60.3294C75.8192 60.309 75.928 60.3758 75.9531 60.48C76.0807 61.0108 76.4154 61.2047 76.4154 61.2047C76.4154 61.2047 77.3916 61.1576 78.0924 60.1456C78.7932 59.1335 79.3689 58.7923 79.3689 58.7923L79.1909 59.3564C79.1311 59.5458 79.3429 59.7096 79.529 59.6179L80.8707 58.9571C80.8707 58.9571 80.3326 59.3454 79.444 60.275C78.5554 61.2047 78.5722 62.2677 78.5722 62.2677C78.5722 62.2677 78.5722 62.7384 79.6735 62.6913C80.7748 62.6442 80.3326 60.934 80.3326 60.934L80.7205 60.7693L81.4089 60.1456C81.4089 60.1456 82.2724 59.8514 82.3224 59.569C82.3725 59.2866 83.0942 58.5178 83.0942 58.5178C83.7116 58.251 83.9369 57.6235 83.9369 57.6235L83.6032 57.5999L84.3957 56.3761C84.7461 55.9524 84.619 55.8916 84.619 55.8916Z" fill="#A0A0A2"/>
<path d="M23.8029 20.0418C23.8029 20.0418 24.6914 20.0771 25.993 19.0063C27.2945 17.9354 27.9453 18.112 27.9453 18.112C27.9453 18.112 26.6521 19.2223 26.8607 20.042C26.8607 20.042 27.3446 20.4537 28.279 20.5714C28.279 20.5714 25.9262 21.2853 27.8785 22.1169C27.8785 22.1169 30.3148 22.415 30.0478 22.8386C29.7807 23.2623 27.745 23.1524 27.745 23.1524C27.745 23.1524 25.8177 23.5251 27.9578 24.5488C27.9578 24.5488 28.546 24.6547 28.3708 25.9491C28.3708 25.9491 28.7587 26.5493 29.9477 26.5728C29.9477 26.5728 30.7736 25.9491 32.1252 25.9374C32.1252 25.9374 32.607 25.9139 32.7635 25.5432C32.7635 25.5432 32.9637 26.514 35.8171 26.9612C35.8171 26.9612 36.155 26.3375 36.9059 25.8433L36.9497 25.4785C36.9497 25.4785 36.3177 24.8548 36.1863 24.0429C36.1863 24.0429 35.6232 23.6898 35.1038 23.6957C34.5844 23.7016 34.816 22.9191 34.816 22.9191C34.816 22.9191 35.279 22.2366 34.597 21.6306C34.597 21.6306 34.6144 20.0571 35.4779 18.8371C35.5841 18.687 35.4831 18.4836 35.2927 18.4618C35.1182 18.4418 34.8383 18.4719 34.3901 18.6127C34.1693 18.6821 33.9848 18.8266 33.8667 19.0152C33.6249 19.4013 33.2148 20.1608 32.9387 21.2305C32.9387 21.2305 33.1848 20.1164 33.0347 19.6771C32.9596 19.4574 32.7365 19.4418 32.532 19.481C32.331 19.5196 32.1459 19.6114 31.9875 19.7341L31.7482 19.9196C31.57 20.0576 31.3002 19.9882 31.2216 19.784L30.9212 19.0034C30.855 18.8313 30.6239 18.7778 30.4804 18.9015L30.0353 19.285L30.0227 18.1827C30.0227 18.1827 29.2927 18.2886 29.1092 18.1866C28.9257 18.0847 29.7099 17.1668 29.5347 16.6176C29.5347 16.6176 29.2617 15.873 27.6475 14.8908C27.3098 14.6852 26.8714 14.7007 26.5468 14.9243C26.1179 15.2197 25.6325 15.5728 25.3589 15.9037C25.3589 15.9037 24.1831 16.8465 23.8094 17.5752C23.6942 17.8001 23.725 18.0713 23.8937 18.2641C24.117 18.5193 24.4197 19.1004 23.8029 20.0418Z" fill="#A0A0A2"/>
<path d="M29.3828 12.8262C29.5198 12.8045 29.6603 12.826 29.7799 12.8925C29.8441 12.9282 29.9202 12.9762 30.0061 13.0404C30.2278 13.206 30.623 13.1319 30.7849 13.0916C30.8269 13.0812 30.8686 13.1079 30.876 13.1481C30.9557 13.582 30.5151 13.7857 30.5151 13.7857L30.0478 14.5546C30.3482 14.8997 31.608 14.8056 31.608 14.8056C32.6704 15.0165 32.0472 15.4311 31.74 15.5953C31.6575 15.6394 31.5631 15.6586 31.4682 15.6552C30.7188 15.6283 31.0115 16.1471 31.0115 16.1471C31.0115 16.1471 32.3756 16.7237 32.9013 16.1471C33.3548 15.6495 34.6751 15.6776 35.0285 15.6948C35.0893 15.6977 35.1477 15.6733 35.1871 15.6296C35.505 15.277 35.5315 14.7099 35.531 14.5182C35.5308 14.4867 35.499 14.463 35.4666 14.4715C34.8624 14.6298 34.6283 13.9583 34.6283 13.9583L34.5291 12.8594C34.5255 12.8202 34.4698 12.8075 34.4491 12.8417C34.2367 13.1922 33.8372 13.3767 33.6772 13.4392C33.6362 13.4552 33.6113 13.4942 33.6153 13.5358L33.6305 13.693C33.6323 13.712 33.6397 13.7302 33.6519 13.7455C33.7651 13.8865 34.3409 14.6477 33.7398 14.829C33.1891 14.9951 32.8809 14.3503 32.7921 14.1266C32.7721 14.0764 32.7383 14.0326 32.6938 13.999L32.6453 13.9623C32.4963 13.8495 32.4571 13.6517 32.5533 13.4962C32.7055 13.2501 32.6674 12.8773 32.4719 12.8193C32.2426 12.7513 31.8831 12.8059 31.5987 12.8216C31.5332 12.8252 31.4946 12.7542 31.5355 12.7058L32.0406 12.1068C32.0888 12.0387 32.0529 11.9463 31.9695 11.9235L31.5132 11.8611C31.3637 11.8407 31.2897 11.6791 31.3767 11.5629L32.0137 10.7123C32.1392 10.5447 31.9559 10.3263 31.7534 10.4023L30.5073 10.8695C30.4351 10.8965 30.3683 10.9349 30.3099 10.9829L29.9076 11.3131C29.7847 11.4139 29.638 11.4856 29.4792 11.5208C29.0128 11.6244 28.0181 11.9087 28.2207 12.4166C28.419 12.9141 29.0736 12.8752 29.3828 12.8262Z" fill="#A0A0A2"/>
<path d="M36.6815 15.1845C36.9274 15.1744 37.3935 15.1699 37.6737 15.2601C37.7981 15.3002 37.8821 15.4096 37.8821 15.5333V15.697C37.8821 15.7953 37.9297 15.8883 38.0114 15.9496L38.5741 16.3716C38.7472 16.5015 39.0037 16.389 39.0092 16.1808L39.0496 14.6236C39.0557 14.3842 38.9814 14.1493 38.8355 13.9529C38.7094 13.7834 38.5392 13.5731 38.3487 13.3887C38.1572 13.2033 37.8272 13.2389 37.6903 13.463C37.5514 13.6904 37.3974 14.014 37.3225 14.4145C37.3039 14.5141 37.1631 14.5364 37.1127 14.4472L36.5789 13.5023C36.5631 13.4744 36.5181 13.485 36.5181 13.5165V15.0368C36.518 15.1209 36.5921 15.1881 36.6815 15.1845Z" fill="#A0A0A2"/>
<path d="M36.9907 10.398C36.9815 10.4661 37.0216 10.5306 37.0868 10.5614C37.2779 10.652 37.6413 10.9265 37.6308 11.7023C37.6295 11.7966 37.6945 11.8807 37.791 11.9065L37.7978 11.9083C37.878 11.9297 37.9637 11.9065 38.0206 11.8493C38.1656 11.7037 38.4843 11.4203 38.9422 11.2153C39.0941 11.1474 39.2765 11.2087 39.3478 11.352C39.4257 11.5085 39.5478 11.7074 39.7172 11.8542C39.8635 11.9809 40.0998 11.9347 40.176 11.762C40.2974 11.4869 40.4434 11.069 40.3433 10.8262C40.2288 10.5486 39.8142 10.1687 39.5925 9.97905C39.4646 9.86957 39.2817 9.8341 39.1207 9.8938C39.0275 9.92833 38.9198 9.98825 38.8048 10.0899C38.6884 10.1927 38.5014 10.1685 38.4146 10.0425C38.3374 9.93053 38.2491 9.76713 38.1656 9.53181C37.9487 8.91989 37.3981 8.66099 36.6388 8.75517C36.6388 8.75517 37.1745 9.03659 36.9907 10.398Z" fill="#A0A0A2"/>
<path d="M38.3473 22.4914C39.3087 21.7352 39.2441 20.729 39.1089 20.1724C39.0437 19.9034 39.0692 19.621 39.1951 19.3719C39.3748 19.017 39.5733 18.4868 39.4214 18.0867C39.2199 17.5563 38.0131 18.2609 37.5498 18.5561C37.4392 18.6266 37.3836 18.7519 37.4073 18.8756L37.621 19.9929C37.6528 20.1591 37.4896 20.2987 37.316 20.2553C36.7529 20.1144 36.205 19.7577 36.205 19.7577C36.4232 20.8315 37.5998 22.06 38.0226 22.4732C38.1093 22.5578 38.2515 22.5668 38.3473 22.4914Z" fill="#A0A0A2"/>
<path d="M40.4028 15.6454C40.267 15.5405 40.0656 15.5649 39.9605 15.6973L39.7357 15.9808C39.5792 16.1781 39.6152 16.4548 39.8155 16.6134C40.1671 16.8921 40.7095 17.2149 41.0358 16.8856C41.4057 16.5124 40.7806 15.9374 40.4028 15.6454Z" fill="#A0A0A2"/>
<path d="M40.4646 8.55406L40.4462 8.58452C40.3625 8.72363 40.3809 8.89684 40.4924 9.0175C40.6788 9.21934 40.9572 9.52709 41.109 9.69534C41.179 9.77282 41.2165 9.87141 41.2151 9.97307L41.2132 10.1027C41.2119 10.1893 41.1823 10.2729 41.1283 10.3432C41.0131 10.4934 40.8585 10.7998 41.2444 11.055C41.6784 11.3418 42.36 10.8207 42.6004 10.6153C42.668 10.5575 42.7474 10.5132 42.8337 10.4851C43.2439 10.3517 44.414 10.0649 44.9661 10.9072C45.044 11.026 45.0119 11.1925 44.8883 11.2698C44.6746 11.4034 44.2258 11.5068 43.3297 11.1593C43.2293 11.1203 43.1185 11.1938 43.1283 11.2954C43.1454 11.472 43.2294 11.7813 43.5093 12.2985C43.6082 12.4811 43.4945 12.702 43.2805 12.7405C43.0155 12.7882 42.7003 12.8624 42.537 12.964C42.4194 13.0372 42.282 13.0758 42.1415 13.0883C41.7797 13.1205 41.0638 13.1269 39.8101 12.935C39.6571 12.9116 39.5259 13.041 39.562 13.1828C39.6775 13.6386 40.0344 14.4334 41.0993 14.1705C41.1257 14.164 41.1522 14.1552 41.1769 14.1446C41.2028 14.1335 41.2439 14.1179 41.29 14.1084C41.4159 14.0827 41.5308 14.1826 41.5127 14.3025L41.3938 15.0902C41.3618 15.3019 41.4052 15.5177 41.5171 15.7039L42.1772 16.802C42.2691 16.9549 42.4408 17.0511 42.6277 17.0504C42.8732 17.0495 43.2696 17.016 43.8422 16.877C43.9066 16.8614 43.9706 16.904 43.9775 16.9662L43.9941 17.1165C44.0027 17.1945 44.0977 17.236 44.1657 17.1907C44.4485 17.0025 45.0656 16.6646 45.4786 16.972H45.804C45.804 16.972 46.3171 16.1919 47.093 16.3044L47.4684 16.1933L47.4372 15.9521L47.287 15.9109V15.552L47.6937 15.4461V15.1755C47.6937 15.1755 47.2557 14.4635 46.2545 14.3694C45.2533 14.2752 44.4148 15.0637 44.4148 15.0637H44.1019L43.8391 14.7695L42.525 14.793C42.525 14.793 42.1121 14.7518 42.0432 14.3988C41.9744 14.0458 42.9568 13.9281 42.9568 13.9281H43.9726C43.9726 13.9281 45.7634 12.9881 47.2887 13.2738C47.3191 13.2795 47.3504 13.2776 47.3793 13.2677L47.5447 13.2113C47.6177 13.1865 47.6639 13.1184 47.657 13.0456C47.6537 13.0112 47.6389 12.9787 47.6144 12.9528L46.7738 12.063L46.7801 11.8159L47.0116 11.7747L47.1243 11.6217L47.1305 10.7215L47.3057 10.4626L47.3307 10.0507H47.2056L47.1806 9.30933H47.2974C47.2974 9.30933 47.5756 8.78928 46.8816 7.97415C46.7009 7.7619 46.7177 7.45553 46.9184 7.2598L47.747 6.45166C48.1231 6.08482 48.297 5.5744 48.2155 5.0706C48.1304 4.54416 48.0015 3.8151 47.8319 3.0535C47.7608 2.73419 47.7948 2.40205 47.9334 2.10289L48.3456 1.21236C48.4324 1.02495 48.2485 0.827184 48.0396 0.883909C47.5633 1.01322 46.8117 1.22641 46.0022 1.49125C45.9353 1.51312 45.864 1.52281 45.7936 1.51554C45.5907 1.49456 45.0376 1.5249 44.2578 2.25241C44.1788 2.3261 44.0734 2.37049 43.9623 2.37721L43.726 2.39147C43.3973 2.4113 43.1275 2.64343 43.0774 2.94947L42.9963 3.44529C42.9963 3.44529 42.9129 4.15132 42.3122 4.33962C41.9163 4.4637 41.7216 4.89436 41.6347 5.17364C41.6104 5.25212 41.495 5.25889 41.4591 5.18443L41.2551 4.76164C41.1889 4.67396 41.0447 4.6923 41.0073 4.79391C40.902 5.07908 40.749 5.582 40.7638 6.06378C40.7654 6.11968 40.7341 6.17167 40.6808 6.19634L40.4654 6.29602C40.4107 6.33281 40.3813 6.39438 40.3889 6.45722C40.4248 6.75946 40.5267 7.67306 40.5279 8.3243C40.5282 8.40493 40.5068 8.48396 40.4646 8.55406Z" fill="#A0A0A2"/>
<path d="M47.7093 35.8438L48.0107 35.8894C48.1151 35.8976 48.1942 35.9794 48.1971 36.0778C48.2087 36.4867 48.4948 36.5283 48.4948 36.5283C49.0418 36.6998 49.5043 35.3937 49.6901 34.7754C49.7396 34.6107 49.9317 34.5248 50.0994 34.5918L50.4889 34.7476C51.4346 35.253 52.012 35.3006 52.3242 35.2567C52.4908 35.2332 52.5912 35.0681 52.5224 34.9235C52.0457 33.9216 51.3985 33.5655 51.101 33.4494C51.0119 33.4146 50.9161 33.3998 50.8198 33.4015C49.5993 33.4239 48.499 33.1032 48.0074 32.9341C47.8645 32.8849 47.712 32.9789 47.7024 33.1216C47.6889 33.3226 47.6857 33.6181 47.7314 33.9748C47.7966 34.4822 47.6311 35.2499 47.5419 35.6103C47.5149 35.7192 47.592 35.8261 47.7093 35.8438Z" fill="#A0A0A2"/>
<path d="M37.6068 27.1222L39.8595 27.3732C39.8595 27.3732 39.9096 26.7456 39.8595 26.6986C39.8094 26.6515 38.608 25.208 38.608 25.208C38.608 25.208 38.9417 26.6515 37.6068 27.1222Z" fill="#A0A0A2"/>
<path d="M45.4829 20.7506C45.4829 20.7506 44.9572 20.2486 45.7498 18.2088C45.7498 18.2088 45.7844 18.0131 45.5495 18.099C45.5495 18.099 44.2313 18.4599 43.714 19.7936V21.2684C43.714 21.2684 43.3261 21.794 43.8517 22.3236C44.3773 22.8532 44.3648 23.2062 44.3648 23.2062C44.3648 23.2062 44.0457 23.5416 43.7641 23.5416C43.4825 23.5416 44.2146 24.8301 46.0168 24.1397C46.0168 24.1397 47.8315 23.7945 48.8827 24.43C49.934 25.0655 51.198 23.6651 51.198 23.6651L51.3155 23.4789C51.402 23.3419 51.6181 23.3584 51.6789 23.5071C51.7544 23.6916 51.8557 23.9192 51.9724 24.1312C52.092 24.3485 52.4233 24.3464 52.5395 24.1276C52.6006 24.0126 52.7736 24.0086 52.8406 24.1206L53.4028 25.0602C53.4788 25.1871 53.6215 25.2655 53.7763 25.2655H53.9888C53.9888 25.2655 54.0722 25.9128 53.3338 26.2658C52.5954 26.6188 52.7331 27.7877 53.0835 27.9917C53.0835 27.9917 54.3434 28.3447 54.577 26.8385C54.577 26.8385 54.602 25.9128 55.0859 25.7951C55.5699 25.6774 55.8202 25.9834 55.8202 25.9834L56.1414 26.6659C56.1414 26.6659 56.8798 27.0425 57.2427 27.5249C57.2427 27.5249 57.7975 27.7093 58.5568 27.521C59.316 27.3327 59.2869 27.7838 59.2869 27.7838C59.2869 27.7838 59.1638 28.5604 58.5005 29.3018C58.0875 29.7634 58.8121 30.4074 59.4179 30.8277C59.1675 30.9121 57.9133 31.267 57.6432 30.0079L57.6895 28.654C57.7006 28.3317 57.5292 28.0192 57.2271 27.8665C57.014 27.7588 56.7227 27.7185 56.3417 27.878L56.3042 28.8665C56.3042 28.8665 56.1039 29.4725 55.4156 29.5078C54.7273 29.5431 56.3918 30.5669 56.3918 30.5669C56.3918 30.5669 56.8111 30.9905 56.0915 31.0847C56.0915 31.0847 55.5283 30.9847 55.1862 31.2945C54.8442 31.6044 54.1016 31.6475 54.1016 31.6475L53.4371 31.6674C53.1773 31.6752 53.0426 31.9623 53.2117 32.1479L54.1349 33.1617C54.1349 33.1617 55.109 33.3441 55.6284 32.6556C56.1477 31.9672 57.368 32.3203 57.368 32.3203C57.368 32.3203 59.2702 33.044 59.1201 33.5559C59.1201 33.5559 60.8764 33.6088 61.7024 34.1266C61.7024 34.1266 64.514 33.6441 65.1397 33.7147C65.1397 33.7147 63.6755 32.8439 60.9097 31.926C60.9097 31.926 63.275 32.2555 63.5754 32.1143C63.8757 31.9731 65.8781 32.6321 65.8781 32.6321C65.8781 32.6321 65.3463 32.1085 64.3325 31.7554L65.4213 31.7907C65.4213 31.7907 65.0229 29.7412 62.253 30.0079C62.253 30.0079 62.4699 29.396 61.3685 29.0979C60.8178 28.9488 60.4904 28.7291 60.3007 28.5467C60.1201 28.3732 60.062 28.116 60.1431 27.8855C60.2002 27.7227 60.2938 27.5232 60.4447 27.3412C60.5953 27.1595 60.8521 27.0888 61.0805 27.1722C61.2017 27.2165 61.3274 27.2898 61.4186 27.4112C61.6606 27.7329 64.0635 28.4311 64.0635 28.4311C64.0635 28.4311 64.5473 28.4703 64.3555 28.1173C64.2243 27.876 64.0073 27.4148 63.8832 27.147C63.8251 27.0217 63.8523 26.8764 63.9519 26.7768L63.982 26.7468C64.0992 26.6297 64.1028 26.4482 63.9901 26.3272L63.7652 26.0855C63.6172 25.9265 63.6655 25.6791 63.8644 25.5807C64.0516 25.4881 64.2755 25.3932 64.4556 25.3637C64.4556 25.3637 63.6296 24.5087 62.1612 24.8224C62.1612 24.8224 61.9989 25.045 61.4061 24.6885C61.2616 24.6016 61.0944 24.5539 60.9227 24.5551C60.3679 24.5587 59.0671 24.5095 58.042 24.0256C57.9236 23.9696 57.9207 23.811 58.0348 23.7475L58.8549 23.2905C58.9347 23.246 58.9068 23.1312 58.8142 23.1249C58.5505 23.1066 58.1528 23.059 57.7361 22.9363C57.5918 22.8938 57.6114 22.6957 57.7619 22.6824C57.8825 22.6718 58.0047 22.6566 58.112 22.6347C58.2097 22.6148 58.227 22.4897 58.1387 22.4454C57.815 22.2829 57.2256 21.9607 56.9549 21.6452L56.9489 21.4519C56.9431 21.2604 56.7717 21.1106 56.5683 21.1188L55.1944 21.1745C55.1944 21.1745 55.645 20.1546 53.8344 20.4449C53.8344 20.4449 53.4632 20.6057 52.0865 19.6172C52.0865 19.6172 51.0853 19.9467 49.7588 19.2995C49.7588 19.2995 50.5973 18.7229 50.2468 18.2758C49.8964 17.8286 49.1831 17.7227 49.1831 17.7227C49.1831 17.7227 45.5996 17.8793 45.4829 20.7506Z" fill="#A0A0A2"/>
<path d="M78.3928 52.0367C76.9161 51.5778 76.1026 52.425 76.1026 52.425C78.1801 53.2722 79.5629 52.0485 79.5629 52.0485C78.981 52.272 78.3928 52.0367 78.3928 52.0367Z" fill="#A0A0A2"/>
<path d="M90.9035 49.8392C90.9035 49.8 90.8368 49.2979 90.8368 49.2979L89.6818 48.9033C89.5437 48.8561 89.4693 48.7152 89.5127 48.5832L89.6855 48.0582C89.703 47.9486 89.5732 47.8735 89.476 47.9362C89.2524 48.0806 88.8896 48.2729 88.4083 48.3895C88.1998 48.4401 87.9999 48.2818 88.0181 48.0801L88.0751 47.4464C88.0751 47.4464 87.9333 46.6462 86.7903 47.4072C86.7903 47.4072 84.931 48.9849 85.1218 47.7318C85.1268 47.6988 85.0871 47.6763 85.0587 47.6961L84.3475 48.1922C84.2381 48.2685 84.0816 48.2094 84.059 48.0831C83.8986 47.1906 83.8666 46.1759 83.8708 45.0896C83.8713 44.9662 83.6968 44.9234 83.6337 45.0317C83.2721 45.6542 82.6283 46.8868 82.6103 47.7994C82.6103 47.7994 82.9607 48.5643 82.6979 49.2938C82.6979 49.2938 83.2986 50.2353 82.8356 51.0825C82.8356 51.0825 83.5176 51.8944 82.9357 52.6476C82.9357 52.6476 82.848 53.4426 84.2372 52.6476C84.4291 52.5377 84.9381 51.9964 84.9381 51.9964C84.9381 51.9964 85.472 51.7218 86.0894 51.7375C86.0894 51.7375 86.9405 51.0393 87.8165 51.2197V52.1925C87.8165 52.1925 88.6007 51.7532 88.5924 50.9687C88.5924 50.9687 89.1348 50.0822 89.2014 49.7135L90.3613 50.8824C90.3613 50.8824 90.6616 50.6862 91.0036 50.7726L91.1371 50.5686C91.1371 50.5688 90.9035 49.8785 90.9035 49.8392Z" fill="#A0A0A2"/>
</svg>
