<svg width="50" height="51" viewBox="0 0 50 51" fill="none" xmlns="http://www.w3.org/2000/svg">
<path fill-rule="evenodd" clip-rule="evenodd" d="M14.9134 20.5154C14.9134 16.0665 18.5199 12.46 22.9688 12.46C27.4178 12.46 31.0243 16.0665 31.0243 20.5154C31.0243 24.9643 27.4178 28.5708 22.9688 28.5708C18.5199 28.5708 14.9134 24.9643 14.9134 20.5154Z" fill="white"/>
<path fill-rule="evenodd" clip-rule="evenodd" d="M14.271 31.6131C16.477 30.6556 19.3715 30.3613 22.9687 30.3613C26.569 30.3613 29.4656 30.6562 31.6724 31.6158C34.0764 32.6611 35.5374 34.4415 36.3032 36.9553C36.6621 38.1336 35.7771 39.3118 34.5575 39.3118H11.3833C10.1623 39.3118 9.27537 38.1318 9.6354 36.9514C10.4022 34.4372 11.8655 32.6573 14.271 31.6131Z" fill="white"/>
<path fill-rule="evenodd" clip-rule="evenodd" d="M44.8207 7.61415C45.5197 8.31323 45.5197 9.44665 44.8207 10.1457L38.5553 16.4111C37.3619 17.6045 35.4271 17.6045 34.2337 16.4111L31.5485 13.7259C30.8495 13.0268 30.8495 11.8934 31.5485 11.1943C32.2476 10.4953 33.3811 10.4953 34.0801 11.1943L36.3945 13.5088L42.2891 7.61415C42.9881 6.91508 44.1216 6.91508 44.8207 7.61415Z" fill="white"/>
</svg>
