<svg width="37" height="37" viewBox="0 0 37 37" fill="none" xmlns="http://www.w3.org/2000/svg">
<path d="M19.0608 26.6849C19.0645 23.4259 21.7068 20.7836 24.9659 20.7798H34.1896C34.6531 20.7798 35.0642 20.477 35.1987 20.0323C35.6491 18.5037 35.879 16.9172 35.879 15.3232V10.8122C35.8771 8.936 35.1315 7.13647 33.8066 5.80972C32.4799 4.48484 30.6803 3.73923 28.8042 3.73737H19.8082V1.04646C19.8082 0.469054 19.3391 0 18.7617 0H17.1173C16.5399 0 16.0708 0.46904 16.0708 1.04646V3.73737H7.07863C5.2006 3.73737 3.40106 4.48297 2.07236 5.80972C0.745608 7.13833 0 8.93791 0 10.816V15.028C0.00560617 19.6642 1.84814 24.1096 5.12779 27.3875C8.40547 30.6671 12.8513 32.5096 17.4873 32.5153H18.0217C18.5973 32.5116 19.0626 32.0425 19.0607 31.4651L19.0608 26.6849ZM23.9192 13.4548C25.1283 13.4548 26.2196 14.1835 26.6811 15.301C27.1446 16.4185 26.8886 17.7041 26.0327 18.5581C25.1787 19.414 23.893 19.67 22.7756 19.2066C21.6581 18.745 20.9293 17.6537 20.9293 16.4447C20.9293 14.7928 22.2673 13.4548 23.9192 13.4548ZM11.9597 19.4345C10.7507 19.4345 9.65932 18.7058 9.19777 17.5883C8.73434 16.4708 8.99035 15.1852 9.84622 14.3312C10.7002 13.4753 11.9859 13.2193 13.1033 13.6827C14.2208 14.1443 14.9496 15.2356 14.9496 16.4446C14.9496 17.2369 14.6338 17.9975 14.0732 18.5581C13.5126 19.1187 12.752 19.4345 11.9597 19.4345Z" fill="white"/>
<path d="M23.3016 36.5477C23.3745 36.5477 23.4455 36.5328 23.5109 36.5029L27.936 34.4772H34.8314C35.4069 34.4772 35.9582 34.2493 36.3637 33.8419C36.771 33.4364 36.999 32.8851 36.999 32.3096V26.7034C36.999 25.5056 36.0292 24.5358 34.8314 24.5358H24.9647C23.7744 24.5358 22.8064 25.4944 22.7971 26.6848V36.0281C22.7933 36.1645 22.8438 36.2971 22.9391 36.3943C23.0344 36.4915 23.1652 36.5477 23.3016 36.5477Z" fill="white"/>
</svg>
