<svg width="95" height="44" viewBox="0 0 95 44" fill="none" xmlns="http://www.w3.org/2000/svg">
<path d="M41.0804 17.9603C42.0763 14.9712 41.7333 11.6968 40.1407 8.97799C37.7456 4.80785 32.9307 2.66242 28.2283 3.67203C26.1364 1.31535 23.1309 -0.0248604 19.98 -0.00565577C15.1733 -0.0166298 10.9085 3.07806 9.42977 7.6515C6.34194 8.28388 3.67661 10.2167 2.11692 12.9561C-0.296004 17.1153 0.254071 22.3581 3.4777 25.9247C2.48181 28.9138 2.82475 32.1882 4.41736 34.907C6.81245 39.0771 11.6273 41.2226 16.3297 40.2129C18.4203 42.5696 21.4272 43.9098 24.5781 43.8893C29.3875 43.9016 33.6537 40.8042 35.1324 36.2266C38.2202 35.5942 40.8856 33.6614 42.4453 30.922C44.8554 26.7628 44.304 21.5241 41.0817 17.9575L41.0804 17.9603ZM24.5808 41.0209C22.6563 41.0237 20.792 40.3501 19.3147 39.1169C19.3819 39.0812 19.4985 39.0168 19.5739 38.9701L28.3148 33.9221C28.762 33.6683 29.0363 33.1923 29.0336 32.6779V20.3554L32.7277 22.4884C32.7675 22.5077 32.7936 22.5461 32.7991 22.59V32.7945C32.7936 37.3322 29.1186 41.0113 24.5808 41.0209ZM6.9071 33.4721C5.94276 31.8068 5.5957 29.8548 5.92629 27.9604C5.99077 27.9988 6.10462 28.0688 6.18556 28.1154L14.9264 33.1635C15.3695 33.4227 15.9182 33.4227 16.3626 33.1635L27.0336 27.0015V31.2677C27.0363 31.3116 27.0157 31.3541 26.9814 31.3816L18.1459 36.4831C14.2103 38.7493 9.18422 37.4022 6.90847 33.4721H6.9071ZM4.60666 14.3923C5.56689 12.7243 7.08269 11.4485 8.88792 10.786C8.88792 10.8614 8.88381 10.9945 8.88381 11.0878V21.1853C8.88106 21.6983 9.15541 22.1743 9.60124 22.4281L20.2721 28.5887L16.578 30.7217C16.541 30.7464 16.4943 30.7505 16.4532 30.7327L7.6163 25.627C3.68896 23.3527 2.34189 18.3279 4.60529 14.3937L4.60666 14.3923ZM34.9582 21.4555L24.2873 15.2936L27.9814 13.1619C28.0185 13.1372 28.0651 13.1331 28.1063 13.1509L36.9431 18.2525C40.8773 20.5255 42.2258 25.5584 39.9528 29.4926C38.9912 31.158 37.4768 32.4337 35.6729 33.0976V22.6983C35.677 22.1853 35.404 21.7107 34.9596 21.4555H34.9582ZM38.6345 15.9218C38.57 15.8821 38.4562 15.8135 38.3753 15.7668L29.6344 10.7188C29.1913 10.4595 28.6426 10.4595 28.1982 10.7188L17.5273 16.8807V12.6145C17.5245 12.5706 17.5451 12.5281 17.5794 12.5007L26.4149 7.40321C30.3505 5.13295 35.3821 6.48414 37.651 10.4211C38.6098 12.0837 38.9569 14.0302 38.6318 15.9218H38.6345ZM15.519 23.5255L11.8235 21.3924C11.7837 21.3732 11.7576 21.3348 11.7522 21.2909V11.0864C11.7549 6.54312 15.4408 2.86132 19.9841 2.86406C21.9059 2.86406 23.766 3.53897 25.2434 4.76806C25.1762 4.80373 25.061 4.8682 24.9841 4.91484L16.2433 9.96292C15.7961 10.2167 15.5217 10.6913 15.5245 11.2057L15.519 23.5228V23.5255ZM17.5259 19.199L22.279 16.4541L27.0322 19.1976V24.686L22.279 27.4295L17.5259 24.686V19.199Z" fill="white"/>
<path d="M64.0461 19.3036H61.3898C61.3141 18.868 61.1744 18.4821 60.9708 18.146C60.7672 17.805 60.5139 17.5162 60.2108 17.2795C59.9078 17.0427 59.5622 16.8652 59.1739 16.7468C58.7904 16.6237 58.3761 16.5621 57.931 16.5621C57.1403 16.5621 56.4395 16.761 55.8287 17.1587C55.218 17.5517 54.7397 18.1294 54.3941 18.8917C54.0484 19.6493 53.8756 20.5749 53.8756 21.6687C53.8756 22.7814 54.0484 23.7189 54.3941 24.4812C54.7445 25.2388 55.2227 25.8117 55.8287 26.1999C56.4395 26.5835 57.1379 26.7752 57.9239 26.7752C58.3595 26.7752 58.7667 26.7184 59.1455 26.6048C59.529 26.4864 59.8723 26.3136 60.1753 26.0863C60.4831 25.859 60.7412 25.5797 60.9495 25.2482C61.1626 24.9168 61.3093 24.538 61.3898 24.1119L64.0461 24.1261C63.9466 24.8174 63.7312 25.466 63.3998 26.0721C63.0731 26.6781 62.6446 27.2132 62.1143 27.6772C61.584 28.1365 60.9637 28.4963 60.2535 28.7567C59.5432 29.0124 58.7549 29.1403 57.8884 29.1403C56.61 29.1403 55.4689 28.8443 54.4651 28.2525C53.4613 27.6606 52.6706 26.806 52.093 25.6886C51.5153 24.5711 51.2265 23.2312 51.2265 21.6687C51.2265 20.1014 51.5177 18.7615 52.1001 17.6488C52.6824 16.5314 53.4755 15.6767 54.4793 15.0849C55.4831 14.493 56.6195 14.1971 57.8884 14.1971C58.6981 14.1971 59.4509 14.3107 60.1469 14.538C60.843 14.7653 61.4632 15.0991 62.0077 15.5394C62.5522 15.975 62.9997 16.5101 63.3501 17.1445C63.7052 17.7743 63.9372 18.494 64.0461 19.3036ZM66.4591 28.9414V14.396H69.094V26.7326H75.5003V28.9414H66.4591ZM80.4221 14.396V28.9414H77.7872V14.396H80.4221ZM83.2755 28.9414V14.396H88.73C89.8474 14.396 90.7849 14.6043 91.5425 15.021C92.3048 15.4376 92.8801 16.0105 93.2684 16.7397C93.6614 17.4641 93.8579 18.288 93.8579 19.2113C93.8579 20.1441 93.6614 20.9727 93.2684 21.6971C92.8754 22.4215 92.2954 22.9921 91.5283 23.4087C90.7613 23.8207 89.8167 24.0266 88.6945 24.0266H85.0795V21.8604H88.3394C88.9928 21.8604 89.5278 21.7468 89.9445 21.5195C90.3612 21.2923 90.6689 20.9798 90.8678 20.582C91.0714 20.1843 91.1732 19.7274 91.1732 19.2113C91.1732 18.6952 91.0714 18.2406 90.8678 17.8477C90.6689 17.4547 90.3588 17.1493 89.9374 16.9315C89.5207 16.7089 88.9833 16.5977 88.3252 16.5977H85.9104V28.9414H83.2755Z" fill="white"/>
</svg>
