<svg width="52" height="52" viewBox="0 0 52 52" fill="none" xmlns="http://www.w3.org/2000/svg">
<g filter="url(#filter0_d_3105_4577)">
<rect x="3" y="2" width="46" height="46" rx="23" fill="white" fill-opacity="0.04" shape-rendering="crispEdges"/>
<rect x="3.5" y="2.5" width="45" height="45" rx="22.5" stroke="white" stroke-opacity="0.2" shape-rendering="crispEdges"/>
<path d="M23.1508 22.7044C23.3011 22.8672 23.4965 22.9502 23.6934 22.9502C23.8902 22.9502 24.0856 22.8672 24.2359 22.7044C24.5365 22.3787 24.5365 21.8496 24.2359 21.5256L17.3108 14.0235C17.0103 13.6979 16.5218 13.6979 16.2228 14.0235C15.9222 14.3491 15.9222 14.8783 16.2228 15.2022L23.1479 22.7044H23.1508Z" fill="white"/>
<path d="M28.8525 26.5304C28.5519 26.2048 28.0635 26.2048 27.7644 26.5304C27.4639 26.856 27.4639 27.3851 27.7644 27.7091L34.6895 35.2113C34.8398 35.3741 35.0351 35.4571 35.232 35.4571C35.4289 35.4571 35.6242 35.3741 35.7746 35.2113C36.0751 34.8856 36.0751 34.3565 35.7746 34.0325L28.8495 26.5304H28.8525Z" fill="white"/>
<path d="M35.7775 14.0269C35.4769 13.7013 34.9885 13.7013 34.6894 14.0269L16.2226 34.0326C15.9221 34.3582 15.9221 34.8873 16.2226 35.2113C16.3729 35.3741 16.5683 35.4571 16.7652 35.4571C16.962 35.4571 17.1574 35.3741 17.3077 35.2113L35.7745 15.2056C36.0751 14.88 36.0751 14.3508 35.7745 14.0269H35.7775Z" fill="white"/>
</g>
<defs>
<filter id="filter0_d_3105_4577" x="0" y="0" width="52" height="52" filterUnits="userSpaceOnUse" color-interpolation-filters="sRGB">
<feFlood flood-opacity="0" result="BackgroundImageFix"/>
<feColorMatrix in="SourceAlpha" type="matrix" values="0 0 0 0 0 0 0 0 0 0 0 0 0 0 0 0 0 0 127 0" result="hardAlpha"/>
<feOffset dy="1"/>
<feGaussianBlur stdDeviation="1.5"/>
<feComposite in2="hardAlpha" operator="out"/>
<feColorMatrix type="matrix" values="0 0 0 0 0 0 0 0 0 0 0 0 0 0 0 0 0 0 0.16 0"/>
<feBlend mode="normal" in2="BackgroundImageFix" result="effect1_dropShadow_3105_4577"/>
<feBlend mode="normal" in="SourceGraphic" in2="effect1_dropShadow_3105_4577" result="shape"/>
</filter>
</defs>
</svg>
