<svg width="128" height="37" viewBox="0 0 128 37" fill="none" xmlns="http://www.w3.org/2000/svg">
<path d="M33.0963 0.532227H38.8871V36.7597H33.0963V0.532227ZM59.1552 25.2031C59.1552 30.7474 54.4979 31.1894 53.1124 31.1894C49.6509 31.1894 49.0211 27.9463 49.0211 25.99V12.125H43.2303V25.961C43.2303 29.3954 44.3074 32.2298 46.1952 34.1194C47.863 35.7903 50.3617 36.7032 53.069 36.7032C54.9886 36.7032 57.7074 36.1047 59.1552 34.7817V36.7597H64.946V12.125H59.1552V25.2031ZM76.5278 3.43043H70.7369V12.125H66.3937V17.9214H70.7369V36.7597H76.5278V17.9214H80.8709V12.125H76.5278V3.43043ZM99.1078 29.3939C97.8468 30.5286 96.182 31.1575 94.355 31.1575C90.3274 31.1575 87.3697 28.197 87.3697 24.1323C87.3697 20.0675 90.2333 17.2316 94.355 17.2316C96.1501 17.2316 97.8468 17.8301 99.1397 18.9648L100.018 19.7212L103.923 15.8144L102.946 14.9319C100.648 12.8554 97.5978 11.6903 94.3535 11.6903C87.1149 11.6903 81.8583 16.9186 81.8583 24.1018C81.8583 31.2546 87.2409 36.6699 94.3535 36.6699C97.6586 36.6699 100.741 35.5048 103.009 33.3949L103.953 32.5124L99.988 28.6085L99.1078 29.3939ZM124.592 14.2726C122.924 12.6032 120.97 11.6903 118.263 11.6903C116.343 11.6903 114.168 12.2888 112.721 13.6103V0.532227H106.93V36.7597H112.721V23.1889C112.721 17.6446 116.656 17.2041 118.041 17.2041C121.503 17.2041 121.407 20.4486 121.407 22.402V36.7597H127.198V22.4325C127.198 18.9981 126.481 16.1637 124.592 14.2726Z" fill="white"/>
<path d="M24.989 27.661C22.7871 29.9288 19.7961 31.1576 16.6487 31.1576C10.1977 31.1576 5.50712 26.0858 5.50712 19.1243C5.50712 12.131 10.1977 7.05913 16.6487 7.05913C19.7657 7.05913 22.7234 8.28651 24.9586 10.5239L25.8389 11.4064L29.71 7.53153L28.8602 6.64903C25.6507 3.34074 21.3075 1.54675 16.6487 1.54675C7.14448 1.54675 0 9.1067 0 19.1548C0 29.1724 7.17633 36.7019 16.6487 36.7019C21.3393 36.7019 25.6825 34.876 28.8921 31.5677L29.7419 30.6852L25.9026 26.748L24.989 27.661Z" fill="white"/>
</svg>
