<svg width="122" height="44" viewBox="0 0 122 44" fill="none" xmlns="http://www.w3.org/2000/svg">
<path d="M40.5804 17.9603C41.5763 14.9712 41.2333 11.6968 39.6407 8.97799C37.2456 4.80785 32.4307 2.66242 27.7283 3.67203C25.6364 1.31535 22.6309 -0.0248604 19.48 -0.00565577C14.6733 -0.0166298 10.4085 3.07806 8.92977 7.6515C5.84194 8.28388 3.17661 10.2167 1.61692 12.9561C-0.796004 17.1153 -0.245929 22.3581 2.9777 25.9247C1.98181 28.9138 2.32475 32.1882 3.91736 34.907C6.31245 39.0771 11.1273 41.2226 15.8297 40.2129C17.9203 42.5696 20.9272 43.9098 24.0781 43.8893C28.8875 43.9016 33.1537 40.8042 34.6324 36.2266C37.7202 35.5942 40.3856 33.6614 41.9453 30.922C44.3554 26.7628 43.804 21.5241 40.5817 17.9575L40.5804 17.9603ZM24.0808 41.0209C22.1563 41.0237 20.292 40.3501 18.8147 39.1169C18.8819 39.0812 18.9985 39.0168 19.0739 38.9701L27.8148 33.9221C28.262 33.6683 28.5363 33.1923 28.5336 32.6779V20.3554L32.2277 22.4884C32.2675 22.5077 32.2936 22.5461 32.2991 22.59V32.7945C32.2936 37.3322 28.6186 41.0113 24.0808 41.0209ZM6.4071 33.4721C5.44276 31.8068 5.0957 29.8548 5.42629 27.9604C5.49077 27.9988 5.60462 28.0688 5.68556 28.1154L14.4264 33.1635C14.8695 33.4227 15.4182 33.4227 15.8626 33.1635L26.5336 27.0015V31.2677C26.5363 31.3116 26.5157 31.3541 26.4814 31.3816L17.6459 36.4831C13.7103 38.7493 8.68422 37.4022 6.40847 33.4721H6.4071ZM4.10666 14.3923C5.06689 12.7243 6.58269 11.4485 8.38792 10.786C8.38792 10.8614 8.38381 10.9945 8.38381 11.0878V21.1853C8.38106 21.6983 8.65541 22.1743 9.10124 22.4281L19.7721 28.5887L16.078 30.7217C16.041 30.7464 15.9943 30.7505 15.9532 30.7327L7.1163 25.627C3.18896 23.3527 1.84189 18.3279 4.10529 14.3937L4.10666 14.3923ZM34.4582 21.4555L23.7873 15.2936L27.4814 13.1619C27.5185 13.1372 27.5651 13.1331 27.6063 13.1509L36.4431 18.2525C40.3773 20.5255 41.7258 25.5584 39.4528 29.4926C38.4912 31.158 36.9768 32.4337 35.1729 33.0976V22.6983C35.177 22.1853 34.904 21.7107 34.4596 21.4555H34.4582ZM38.1345 15.9218C38.07 15.8821 37.9562 15.8135 37.8753 15.7668L29.1344 10.7188C28.6913 10.4595 28.1426 10.4595 27.6982 10.7188L17.0273 16.8807V12.6145C17.0245 12.5706 17.0451 12.5281 17.0794 12.5007L25.9149 7.40321C29.8505 5.13295 34.8821 6.48414 37.151 10.4211C38.1098 12.0837 38.4569 14.0302 38.1318 15.9218H38.1345ZM15.019 23.5255L11.3235 21.3924C11.2837 21.3732 11.2576 21.3348 11.2522 21.2909V11.0864C11.2549 6.54312 14.9408 2.86132 19.4841 2.86406C21.4059 2.86406 23.266 3.53897 24.7434 4.76806C24.6762 4.80373 24.561 4.8682 24.4841 4.91484L15.7433 9.96292C15.2961 10.2167 15.0217 10.6913 15.0245 11.2057L15.019 23.5228V23.5255ZM17.0259 19.199L21.779 16.4541L26.5322 19.1976V24.686L21.779 27.4295L17.0259 24.686V19.199Z" fill="white"/>
<path d="M56.1556 28.9414H51.2267V14.396H56.2551C57.6992 14.396 58.9397 14.6871 59.9767 15.2695C61.0183 15.8472 61.8185 16.6781 62.3772 17.7624C62.9359 18.8467 63.2153 20.1441 63.2153 21.6545C63.2153 23.1696 62.9336 24.4717 62.3701 25.5607C61.8114 26.6497 61.0041 27.4854 59.9482 28.0678C58.8971 28.6502 57.6329 28.9414 56.1556 28.9414ZM53.8616 26.6616H56.0278C57.041 26.6616 57.8862 26.4769 58.5633 26.1076C59.2404 25.7335 59.7494 25.1772 60.0903 24.4386C60.4312 23.6952 60.6017 22.7672 60.6017 21.6545C60.6017 20.5418 60.4312 19.6185 60.0903 18.8846C59.7494 18.146 59.2451 17.5943 58.5775 17.2298C57.9146 16.8604 57.0908 16.6758 56.1059 16.6758H53.8616V26.6616ZM66.8055 28.9414H63.993L69.1137 14.396H72.3666L77.4944 28.9414H74.6819L70.797 17.3789H70.6833L66.8055 28.9414ZM66.8978 23.2383H74.5683V25.3548H66.8978V23.2383ZM79.4102 28.9414V14.396H82.0452V26.7326H88.4514V28.9414H79.4102ZM90.7384 28.9414V14.396H93.3733V26.7326H99.7796V28.9414H90.7384ZM107.549 20.6104V22.7269H101.001V20.6104H107.549ZM110.367 28.9414V14.396H119.828V16.6048H113.002V20.5536H119.337V22.7624H113.002V26.7326H119.884V28.9414H110.367Z" fill="white"/>
</svg>
