<svg width="49" height="48" viewBox="0 0 49 48" fill="none" xmlns="http://www.w3.org/2000/svg">
<path d="M12.6751 14.526H5.58004C2.97854 14.526 0.850037 12.3975 0.850037 9.79595V5.06594C0.850037 2.46444 2.97854 0.335938 5.58004 0.335938H12.6751C15.2766 0.335938 17.4051 2.46444 17.4051 5.06594V9.79595C17.4051 12.3975 15.2766 14.526 12.6751 14.526Z" fill="white"/>
<path d="M45.312 12.1631H36.798C35.2371 12.1631 33.96 10.886 33.96 9.32511V5.54115C33.96 3.98025 35.2371 2.70312 36.798 2.70312H45.312C46.8729 2.70312 48.15 3.98025 48.15 5.54115V9.32511C48.15 10.886 46.8729 12.1631 45.312 12.1631Z" fill="white"/>
<path d="M45.312 29.8995H36.798C35.2371 29.8995 33.96 28.6224 33.96 27.0615V23.2775C33.96 21.7166 35.2371 20.4395 36.798 20.4395H45.312C46.8729 20.4395 48.15 21.7166 48.15 23.2775V27.0615C48.15 28.6224 46.8729 29.8995 45.312 29.8995Z" fill="white"/>
<path d="M30.8281 26.9413C31.7977 26.9413 32.6018 26.1372 32.6018 25.1675C32.6018 24.1979 31.7977 23.3938 30.8281 23.3938H27.4563V9.20375H30.8281C31.7977 9.20375 32.6018 8.39965 32.6018 7.43C32.6018 6.46035 31.7977 5.65625 30.8281 5.65625H20.5371C19.5674 5.65625 18.7633 6.46035 18.7633 7.43C18.7633 8.39965 19.5674 9.20375 20.5371 9.20375H23.9088V38.175C23.9088 41.7698 26.8178 44.6788 30.4126 44.6788H30.8281C31.7977 44.6788 32.6018 43.8747 32.6018 42.905C32.6018 41.9354 31.7977 41.1313 30.8281 41.1313H30.4126C28.7807 41.1313 27.4563 39.8069 27.4563 38.175V26.9413H30.8281Z" fill="white"/>
<path d="M45.312 47.6377H36.798C35.2371 47.6377 33.96 46.3606 33.96 44.7997V41.0157C33.96 39.4548 35.2371 38.1777 36.798 38.1777H45.312C46.8729 38.1777 48.15 39.4548 48.15 41.0157V44.7997C48.15 46.3606 46.8729 47.6377 45.312 47.6377Z" fill="white"/>
</svg>
