<svg width="154" height="29" viewBox="0 0 154 29" fill="none" xmlns="http://www.w3.org/2000/svg">
<path d="M144.97 24.799C144.97 22.5368 146.784 20.7014 149.017 20.7014C151.251 20.7014 153.063 22.5368 153.063 24.799C153.063 27.0613 151.251 28.8956 149.017 28.8956C146.784 28.8956 144.97 27.0613 144.97 24.799Z" fill="#86BC24"/>
<path d="M15.8944 13.9469C15.8944 11.3516 15.3989 9.42605 14.4081 8.17171C13.4162 6.91824 11.9137 6.2922 9.89351 6.2922H7.74457V22.1636H9.38877C11.6327 22.1636 13.2769 21.4902 14.3238 20.1385C15.3696 18.7894 15.8944 16.7251 15.8944 13.9469ZM23.5579 13.6765C23.5579 18.4051 22.3024 22.0487 19.7916 24.6061C17.2809 27.1647 13.7511 28.444 9.20138 28.444H0.36084V0.110363H9.81852C14.2055 0.110363 17.5924 1.2736 19.9788 3.59869C22.3646 5.92499 23.5579 9.28259 23.5579 13.6765ZM48.0462 28.4437H55.0811V-0.00849146H48.0462V28.4437ZM64.9635 17.8309C64.9635 19.6449 65.1978 21.0286 65.6651 21.9794C66.1335 22.9317 66.918 23.4071 68.0212 23.4071C69.1126 23.4071 69.8845 22.9317 70.3341 21.9794C70.7839 21.0286 71.0075 19.6449 71.0075 17.8309C71.0075 16.0262 70.7803 14.6651 70.3248 13.7462C69.868 12.825 69.0893 12.3637 67.985 12.3637C66.9052 12.3637 66.1336 12.8227 65.6651 13.7355C65.1978 14.6497 64.9635 16.0144 64.9635 17.8309ZM78.1676 17.8309C78.1676 21.2871 77.2729 23.9832 75.4788 25.916C73.686 27.8497 71.176 28.8173 67.9499 28.8173C64.8558 28.8173 62.3929 27.8285 60.5649 25.8507C58.7346 23.8731 57.8199 21.2005 57.8199 17.8309C57.8199 14.3853 58.7158 11.708 60.51 9.79902C62.304 7.89019 64.8196 6.93569 68.0587 6.93569C70.06 6.93569 71.8308 7.37795 73.365 8.26142C74.9002 9.14454 76.0854 10.4099 76.918 12.0578C77.7518 13.7036 78.1676 15.629 78.1676 17.8309ZM80.9613 28.4438H87.9973V7.30936H80.9613V28.4438ZM80.9611 4.75303H87.9969V-0.0098877H80.9611V4.75303ZM102.252 23.0533C103.201 23.0533 104.333 22.809 105.653 22.3241V27.6417C104.704 28.0639 103.802 28.3662 102.945 28.5452C102.088 28.7268 101.082 28.8168 99.9306 28.8168C97.5684 28.8168 95.8657 28.2157 94.8199 27.0157C93.7787 25.8158 93.2564 23.9733 93.2564 21.4869V12.7748H90.7925V7.3111H93.2565V1.91395L100.346 0.665542V7.3111H104.835V12.7748H100.346V21.0009C100.346 22.3692 100.982 23.0533 102.252 23.0533ZM118.535 23.0533C119.485 23.0533 120.616 22.809 121.936 22.3241V27.6417C120.989 28.0639 120.086 28.3662 119.229 28.5452C118.37 28.7268 117.368 28.8168 116.214 28.8168C113.852 28.8168 112.149 28.2157 111.106 27.0157C110.062 25.8158 109.54 23.9733 109.54 21.4869V12.7748H107.075V7.3111H109.54V1.8321L116.629 0.665542V7.3111H121.12V12.7748H116.629V21.0009C116.629 22.3692 117.265 23.0533 118.535 23.0533ZM130.814 15.2562C130.91 14.0991 131.237 13.2512 131.794 12.7093C132.354 12.1686 133.045 11.8984 133.872 11.8984C134.773 11.8984 135.49 12.2019 136.022 12.8137C136.557 13.4219 136.835 14.2364 136.858 15.2562H130.814ZM140.735 9.42745C139.063 7.7675 136.69 6.93639 133.621 6.93639C130.394 6.93639 127.912 7.89089 126.172 9.79972C124.432 11.7087 123.562 14.4474 123.562 18.0166C123.562 21.4726 124.503 24.138 126.379 26.009C128.256 27.8799 130.892 28.8166 134.287 28.8166C135.917 28.8166 137.32 28.7041 138.496 28.4798C139.665 28.2581 140.796 27.8574 141.894 27.2789L140.813 22.5159C140.015 22.8456 139.256 23.0994 138.54 23.2664C137.504 23.5095 136.368 23.6317 135.132 23.6317C133.776 23.6317 132.705 23.2963 131.921 22.625C131.136 21.9527 130.718 21.0256 130.67 19.8448H143.245V16.5996C143.245 13.4778 142.409 11.0862 140.735 9.42745ZM32.8949 15.2562C32.9909 14.0991 33.3176 13.2512 33.8751 12.7093C34.4336 12.1686 35.1257 11.8984 35.9537 11.8984C36.8532 11.8984 37.5698 12.2019 38.1028 12.8137C38.6379 13.4219 38.9154 14.2364 38.9401 15.2562H32.8949ZM42.8173 9.42745C41.144 7.7675 38.7725 6.93639 35.702 6.93639C32.4743 6.93639 29.9928 7.89089 28.2538 9.79972C26.5148 11.7087 25.6434 14.4474 25.6434 18.0166C25.6434 21.4726 26.5827 24.138 28.461 26.009C30.3372 27.8799 32.9733 28.8166 36.3683 28.8166C37.9985 28.8166 39.4013 28.7041 40.5772 28.4798C41.7459 28.2581 42.8771 27.8574 43.9757 27.2789L42.8937 22.5159C42.0961 22.8456 41.3371 23.0994 40.6217 23.2664C39.5841 23.5095 38.4493 23.6317 37.2126 23.6317C35.8576 23.6317 34.7861 23.2963 34.0016 22.625C33.2157 21.9527 32.7989 21.0256 32.7508 19.8448H45.326V16.5996C45.326 13.4778 44.4896 11.0862 42.8173 9.42745Z" fill="#2A7BCD"/>
</svg>
