<svg width="100" height="34" viewBox="0 0 100 34" fill="none" xmlns="http://www.w3.org/2000/svg">
<path d="M49.5176 0.568237H45.8262V3.43572H49.5176V0.568237Z" fill="#C3C9D0"/>
<path d="M20.5961 6.81425C21.9475 6.81425 22.343 8.05024 22.343 8.72591H18.7174C18.7174 7.7536 19.3931 6.81425 20.5961 6.81425ZM24.4689 12.4998C24.0898 12.6316 23.6778 12.747 23.2823 12.8294C22.8209 12.9283 22.3265 12.9777 21.8321 12.9777C20.2336 12.9777 18.9811 12.4503 18.7834 11.1814H25.5895C25.6389 10.9342 25.7378 10.3574 25.7378 9.73117C25.7378 6.86369 24.3041 4.22693 20.6621 4.22693C17.1189 4.22693 15.2402 6.99553 15.2402 10.1102C15.2402 13.6863 17.7451 15.7463 21.2553 15.7463C22.1452 15.7463 22.7879 15.6639 23.3318 15.565C23.8921 15.4497 24.5018 15.2684 25.0127 15.0377L24.4689 12.4998Z" fill="#C3C9D0"/>
<path d="M73.3975 6.81425C74.7489 6.81425 75.1609 8.05024 75.1609 8.72591H71.5188C71.5188 7.7536 72.178 6.81425 73.3975 6.81425ZM77.2538 12.4998C76.8747 12.6316 76.4792 12.747 76.0672 12.8294C75.6058 12.9283 75.1114 12.9777 74.617 12.9777C73.0185 12.9777 71.766 12.4503 71.5683 11.1814H78.3579C78.4074 10.9342 78.4898 10.3574 78.4898 9.73117C78.4898 6.86369 77.056 4.22693 73.414 4.22693C69.8709 4.22693 67.9922 6.99553 67.9922 10.1102C67.9922 13.6863 70.4971 15.7463 73.9908 15.7463C74.8807 15.7463 75.5399 15.6639 76.0837 15.565C76.644 15.4497 77.2538 15.2684 77.7811 15.0377L77.2538 12.4998Z" fill="#C3C9D0"/>
<path d="M31.0938 0.568237H27.4023V15.5154H31.0938V0.568237Z" fill="#C3C9D0"/>
<path d="M38.4936 13.0271C37.2906 13.0271 36.516 11.8406 36.516 10.0113C36.516 8.54463 37.0434 6.99553 38.5101 6.99553C39.9273 6.99553 40.4382 8.61055 40.4382 9.99485C40.4217 11.8241 39.6637 13.0271 38.4936 13.0271ZM38.4442 15.7463C41.3116 15.7463 44.2285 13.9335 44.2285 9.89597C44.2285 7.48993 42.7948 4.24341 38.609 4.24341C34.2913 4.24341 32.7422 7.39105 32.7422 10.0773C32.7587 13.4556 35.0988 15.7463 38.4442 15.7463Z" fill="#C3C9D0"/>
<path d="M49.5176 4.4906H45.8262V15.5156H49.5176V4.4906Z" fill="#C3C9D0"/>
<path d="M52.4505 1.49122V4.49054H51.0332V7.22618H52.4505V11.7416C52.4505 14.2301 53.5876 15.7462 56.1749 15.7462C56.6693 15.7462 57.2131 15.6968 57.724 15.6144C58.1854 15.5485 58.6139 15.4496 58.7951 15.4002L58.7622 12.4997C58.6303 12.5492 57.8064 12.681 57.4932 12.681C57.1966 12.681 56.7517 12.648 56.4385 12.3184C56.2078 12.0877 56.043 11.7087 56.043 11.1154V7.2097H58.4326V4.47406H56.043V1.06274L52.4505 1.49122Z" fill="#C3C9D0"/>
<path d="M60.9719 1.49122V4.49054H59.5547V7.22618H60.9719V11.7416C60.9719 14.2301 62.109 15.7462 64.6964 15.7462C65.1907 15.7462 65.7346 15.6968 66.2454 15.6144C66.7069 15.5485 67.1353 15.4496 67.3166 15.4002L67.2837 12.4997C67.1683 12.5492 66.3278 12.681 66.0147 12.681C65.7181 12.681 65.2731 12.648 64.96 12.3184C64.7293 12.0877 64.5645 11.7087 64.5645 11.1154V7.2097H66.9541V4.47406H64.5645V1.06274L60.9719 1.49122Z" fill="#C3C9D0"/>
<path d="M80.1201 13.7192C80.1201 12.5985 81.043 11.6757 82.1636 11.6757C83.2842 11.6757 84.2071 12.5821 84.2071 13.7192C84.2071 14.8563 83.2842 15.7626 82.1636 15.7626C81.0265 15.7626 80.1201 14.8398 80.1201 13.7192Z" fill="#C3C9D0"/>
<path d="M0.969727 15.532H5.13909C5.41924 15.532 5.76532 15.532 6.02899 15.5155C11.7474 15.2189 14.1205 11.8405 14.1205 7.93483C14.1205 3.05681 10.8411 0.337646 5.17205 0.337646C3.70536 0.337646 2.41994 0.387086 0.986206 0.502444V15.532H0.969727ZM6.30915 12.5492C6.16083 12.5656 5.93011 12.5656 5.7818 12.5656H4.61174V3.38641C5.00725 3.35345 5.5346 3.32049 5.88068 3.32049C8.02304 3.32049 10.3137 4.70479 10.3137 7.91835C10.2972 11.2967 8.13839 12.4173 6.30915 12.5492Z" fill="#C3C9D0"/>
<path d="M6.45686 23.9039C6.62165 23.9039 6.78645 23.9204 6.95125 23.8875C7.36324 23.8215 7.28084 23.3601 7.49508 23.3601C7.65987 23.3601 7.65987 23.7391 7.65987 24.2171C7.65987 24.7609 7.64339 25.3542 7.44564 25.3542C7.21492 25.3542 7.24788 24.8433 7.08309 24.6126C7.01717 24.4972 6.55573 24.283 5.38568 24.283C4.92424 24.283 4.84185 24.3159 4.84185 25.0246V29.7378C4.84185 30.2816 5.00664 30.3805 5.51751 30.4464C5.83063 30.4959 6.12726 30.4794 6.12726 30.6606C6.12726 30.809 5.94599 30.809 5.88007 30.809C5.51751 30.809 4.87481 30.7595 4.36393 30.7595C3.88602 30.7595 3.32571 30.809 2.71597 30.809L2.51821 30.6936C2.51821 30.5123 2.89724 30.4959 3.1774 30.4464C3.70475 30.3311 3.8201 30.1663 3.8201 29.4741V24.7774C3.8201 24.2995 3.73771 24.283 2.78188 24.283C1.7107 24.283 1.28223 25.4366 1.03504 25.4366L0.886719 25.2882C0.886719 25.1399 1.23279 24.2171 1.36463 23.871C1.47999 23.5579 1.52943 23.3601 1.69422 23.3601C1.94142 23.3601 1.72718 23.7556 2.1227 23.8215C2.71597 23.8875 3.27627 23.9039 3.85306 23.9039H6.45686Z" fill="#C3C9D0"/>
<path d="M6.45649 23.9037V24.1015H6.73665L6.98384 24.085C7.264 24.0355 7.41231 23.8213 7.47823 23.6895L7.54415 23.5411L7.49471 23.4917V23.5576L7.54415 23.5411L7.49471 23.4917V23.5576V23.4587L7.44527 23.5411L7.49471 23.5576V23.4587L7.44527 23.5411L7.47823 23.4917L7.42879 23.5247L7.44527 23.5411L7.47823 23.4917L7.42879 23.5247L7.46175 23.7389C7.47823 23.8707 7.47823 24.0355 7.47823 24.2168C7.47823 24.4805 7.47823 24.7606 7.44527 24.9749L7.39584 25.1891V25.2056L7.42879 25.2221L7.41231 25.1891L7.39584 25.2056L7.42879 25.2221L7.41231 25.1891L7.46175 25.2715V25.1726L7.41231 25.1891L7.46175 25.2715V25.1726V25.2221L7.49471 25.1726L7.46175 25.1562V25.2056L7.49471 25.1562L7.41231 24.8925L7.28048 24.4805C7.16512 24.3322 7.0168 24.2827 6.72017 24.1839C6.42353 24.1179 6.01154 24.052 5.40179 24.052C5.18756 24.052 4.97332 24.0355 4.80852 24.2333C4.6602 24.4146 4.67668 24.6288 4.66021 24.9914V29.7046C4.66021 30.0012 4.69316 30.2155 4.85796 30.3803C5.02276 30.545 5.23699 30.578 5.48419 30.611C5.64899 30.6275 5.81378 30.6439 5.89618 30.6604L5.9621 30.6769L5.99506 30.6274H5.94562L5.97858 30.6769L6.01154 30.6274H5.94562H5.99506L5.94562 30.6604L5.92914 30.6934H5.97858L5.94562 30.6604L5.99506 30.6934L5.97858 30.6439L5.94562 30.6604L5.99506 30.6934L5.97858 30.6439L5.89618 30.6604C5.56659 30.6604 4.9074 30.611 4.38005 30.611C3.88566 30.611 3.32535 30.6604 2.73208 30.6604V30.8582L2.83096 30.6934L2.6332 30.578L2.53432 30.7428H2.73208H2.64968L2.7156 30.7758V30.7428H2.64968L2.7156 30.7758L2.68264 30.7593L2.7156 30.7922L2.73208 30.7758L2.69912 30.7593L2.73208 30.7922C2.74856 30.7593 3.02872 30.7099 3.25943 30.6769C3.52311 30.611 3.75382 30.5286 3.90214 30.3308C4.03398 30.1166 4.06694 29.8694 4.06694 29.5233V24.8266L4.03398 24.4805C3.98454 24.2992 3.80326 24.1839 3.62198 24.1674C3.44071 24.1344 3.19351 24.1344 2.83096 24.1344C2.22121 24.1344 1.79274 24.464 1.51258 24.7771C1.36427 24.9254 1.24891 25.0738 1.16651 25.1891L1.06763 25.288L1.05115 25.3045L1.10059 25.3869V25.3045L1.05115 25.321L1.10059 25.4034V25.321V25.5187L1.23243 25.3869L1.10059 25.2386L0.952274 25.3704H1.15003C1.15003 25.321 1.23243 25.0408 1.34779 24.7607C1.44666 24.4805 1.56202 24.1674 1.62794 24.0026C1.69386 23.8378 1.72682 23.7059 1.75978 23.6565L1.79274 23.6235L1.77626 23.5906V23.6235H1.79274L1.77626 23.5906V23.6235V23.5741L1.7433 23.6235L1.77626 23.64V23.5906L1.7433 23.64L1.79274 23.5741L1.71034 23.6235L1.7433 23.6565L1.79274 23.5906L1.71034 23.64L1.79274 23.8707C1.84218 23.9861 1.99049 24.1015 2.17177 24.1179C2.76504 24.1839 3.35831 24.2003 3.91862 24.2003H6.50593V23.9037V23.7059H3.88566C3.30887 23.7059 2.74856 23.6895 2.17177 23.6235L2.08937 23.5906L2.03993 23.4423L1.95753 23.261L1.72682 23.1621C1.54554 23.1621 1.41371 23.2939 1.36427 23.4093C1.29835 23.5247 1.26539 23.6565 1.21595 23.8048C1.15003 23.9696 1.03467 24.2992 0.919314 24.5959C0.869875 24.7442 0.820436 24.8925 0.770997 25.0078L0.705078 25.3045V25.3869L0.886355 25.5846L0.952274 25.6506H1.03467C1.24891 25.6176 1.29835 25.5022 1.4137 25.4034C1.69386 25.0573 2.10585 24.497 2.78152 24.497C3.25943 24.497 3.52311 24.5135 3.57254 24.5464L3.6055 24.5794L3.62198 24.8101V29.5068C3.62198 29.8364 3.58902 30.0177 3.52311 30.1001C3.47367 30.1825 3.37479 30.2319 3.12759 30.2814C2.99576 30.3143 2.83096 30.3308 2.66616 30.3638L2.43545 30.4627L2.28713 30.7263V30.8417L2.58376 31.0065L2.6332 31.0394H2.68264C3.29239 31.0394 3.8527 30.99 4.33061 30.99C4.84148 30.99 5.46771 31.0394 5.84674 31.0394L6.06098 31.0065C6.15986 30.9735 6.29169 30.8417 6.29169 30.6934L6.15986 30.4297C5.94562 30.2814 5.73139 30.3143 5.50067 30.2814C5.25347 30.2484 5.12164 30.199 5.08868 30.166C5.03924 30.1166 5.00628 30.0342 5.00628 29.7705V25.0573C5.00628 24.7112 5.03924 24.5464 5.05572 24.5464L5.10516 24.5299L5.35235 24.5135C5.92914 24.5135 6.32465 24.5629 6.57185 24.6288L6.83553 24.7277L6.90144 24.7607C6.95088 24.8101 6.96736 24.9914 7.0168 25.1562L7.11568 25.4198L7.41231 25.6011C7.57711 25.6011 7.67599 25.4858 7.70895 25.3869C7.82431 25.1067 7.82431 24.6783 7.82431 24.2663C7.82431 24.0191 7.82431 23.8048 7.80783 23.6235L7.72543 23.3763L7.46175 23.2115L7.1816 23.3763L7.04976 23.6235L6.88496 23.7389L6.68721 23.7554H6.40705V23.9037H6.45649Z" fill="#C3C9D0"/>
<path d="M10.2972 27.1668C10.2972 26.7713 9.91812 26.4581 9.42373 26.4581C8.58327 26.4581 8.08888 27.2656 8.08888 27.6282C8.08888 27.7106 8.12184 27.7271 9.11062 27.7271C10.1488 27.7436 10.2972 27.5952 10.2972 27.1668ZM7.99 28.0896C7.97352 28.1556 7.97352 28.3039 7.97352 28.5016C7.97352 29.4739 8.2372 30.4462 9.67093 30.4462C10.5773 30.4462 10.5938 29.9683 10.7915 29.9683L10.8904 30.0672C10.8904 30.1496 10.396 31.0066 9.19302 31.0066C7.9076 31.0066 7.16602 30.1002 7.16602 28.6335C7.16602 27.5293 7.84168 26.178 9.2919 26.178C10.6268 26.178 11.0882 27.3151 11.0882 27.826C11.0882 28.0402 11.0552 28.0896 10.8575 28.0896H7.99Z" fill="#C3C9D0"/>
<path d="M10.2966 27.1668H10.4943C10.4943 26.6394 9.99992 26.2604 9.43961 26.2604C8.94521 26.2604 8.56618 26.4911 8.31899 26.7713C8.05531 27.0514 7.92347 27.3645 7.90699 27.6282L8.00587 27.826C8.12123 27.9084 8.18715 27.8919 8.35195 27.9084C8.51674 27.9084 8.74746 27.9084 9.12649 27.9084C9.65384 27.9084 9.96696 27.8754 10.1977 27.76C10.4449 27.6282 10.5108 27.3645 10.5108 27.1503H10.2966H10.0988C10.0823 27.348 10.0823 27.3645 9.98344 27.414C9.86808 27.4799 9.58792 27.5293 9.09353 27.5128C8.59914 27.5128 8.35195 27.5128 8.23659 27.4964H8.18715L8.17067 27.5458L8.20363 27.4964H8.18715L8.17067 27.5458L8.20363 27.4964L8.13771 27.6282L8.26955 27.5788L8.20363 27.5128L8.13771 27.6447L8.26955 27.5952L8.17067 27.6282H8.28603V27.5952L8.18715 27.6282H8.30251C8.30251 27.5293 8.40138 27.2492 8.61562 27.0349C8.81338 26.8207 9.11001 26.6394 9.45609 26.6394C9.86808 26.6394 10.1318 26.8866 10.1318 27.1503H10.2966V27.1668ZM7.98939 28.0896L7.80812 28.0402C7.77516 28.172 7.77516 28.3039 7.77516 28.5016C7.77516 29.0125 7.84108 29.5234 8.12123 29.9519C8.40138 30.3803 8.91226 30.644 9.65384 30.644C10.1318 30.644 10.4284 30.5122 10.6097 30.3638L10.7909 30.1826L10.8239 30.1661L10.7909 30.1002V30.1826L10.8239 30.1661L10.7909 30.1002V30.1826V29.9848L10.6591 30.1331L10.758 30.232L10.8898 30.0837H10.6921H10.8074L10.6921 30.0343L10.6756 30.0837H10.7909L10.6756 30.0343C10.6591 30.0672 10.5273 30.2814 10.2966 30.4627C10.0494 30.644 9.6868 30.8253 9.15945 30.8253C8.56618 30.8253 8.12123 30.6275 7.8246 30.265C7.51148 29.9024 7.34668 29.3586 7.34668 28.6499C7.34668 28.1391 7.51148 27.5623 7.8246 27.1173C8.15419 26.6724 8.61562 26.3757 9.27481 26.3757C9.88456 26.3757 10.2801 26.6229 10.5273 26.936C10.7745 27.2492 10.8733 27.6282 10.8733 27.826L10.8569 27.9248L10.9228 27.9578L10.9063 27.8919L10.8733 27.9248L10.9393 27.9578L10.9228 27.8919H10.8569H7.84108L7.79164 28.0402L7.98939 28.0896V28.2874H10.8404L11.1865 28.1556L11.2689 27.826C11.2689 27.5293 11.137 27.0844 10.8239 26.6889C10.5108 26.2933 9.99992 25.9802 9.27481 25.9802C8.48378 25.9802 7.89051 26.3593 7.51148 26.8866C7.13245 27.414 6.95117 28.0567 6.95117 28.6499C6.95117 29.4245 7.13245 30.0507 7.52796 30.5122C7.90699 30.9736 8.48378 31.2208 9.15945 31.2208C9.81864 31.2208 10.2801 30.9901 10.5932 30.7429C10.7415 30.611 10.8569 30.4957 10.9228 30.3803L11.0217 30.232L11.0546 30.0837V30.0013L10.8898 29.853L10.8404 29.8035H10.7745L10.5108 29.9354C10.3625 30.0837 10.2966 30.2485 9.67032 30.2814C8.99465 30.2814 8.66506 30.0672 8.45082 29.7541C8.23659 29.441 8.17067 28.996 8.17067 28.5181C8.17067 28.3368 8.17067 28.172 8.18715 28.1556L7.98939 28.0896Z" fill="#C3C9D0"/>
<path d="M14.3345 26.178C14.7135 26.178 15.554 26.2604 15.554 26.7713C15.554 26.9855 15.4222 27.0679 15.2244 27.0679C14.7465 27.0679 14.6806 26.4581 14.0708 26.4581C13.5105 26.4581 12.5053 27.1009 12.5053 28.7159C12.5053 30.0178 13.3457 30.5122 14.2851 30.5122C15.0102 30.5122 15.1914 30.232 15.3398 30.232L15.4057 30.3309C15.4057 30.5286 14.6971 31.023 13.906 31.023C12.4393 31.023 11.7307 29.8365 11.7307 28.7323C11.7142 27.4799 12.5547 26.178 14.3345 26.178Z" fill="#C3C9D0"/>
<path d="M14.3333 26.178V26.3757C14.5146 26.3757 14.8112 26.3922 15.0254 26.4746L15.2726 26.6065L15.355 26.7713L15.3385 26.8537L15.2232 26.8866C15.0749 26.8866 14.9925 26.8042 14.8277 26.6394C14.6794 26.4746 14.4322 26.2769 14.0531 26.2769C13.361 26.2769 12.2898 27.0185 12.2898 28.7159C12.2898 29.408 12.5205 29.9189 12.8996 30.2485C13.2786 30.5616 13.7565 30.6934 14.2674 30.6934C14.6464 30.6934 14.9101 30.611 15.0914 30.5451L15.2891 30.4462L15.3385 30.4298L15.3221 30.3638V30.4298H15.3385L15.3221 30.3638V30.4298V30.232L15.1573 30.3474L15.2232 30.4462L15.3715 30.3309H15.1738H15.2397L15.1738 30.2979V30.3309H15.2397L15.1738 30.2979L15.1573 30.3309C15.0254 30.4957 14.4486 30.8253 13.8554 30.8088C12.5205 30.8088 11.8778 29.7376 11.8613 28.7159C11.8778 27.5623 12.6029 26.3757 14.2838 26.3593V26.178V25.9802C13.3445 25.9802 12.6359 26.3263 12.158 26.8537C11.6965 27.381 11.4658 28.0567 11.4658 28.7323C11.4658 29.3256 11.6636 29.9354 12.0591 30.4133C12.4546 30.8912 13.0644 31.2208 13.8389 31.2208C14.2838 31.2208 14.6794 31.089 14.9925 30.9242C15.1408 30.8418 15.2726 30.7594 15.355 30.677C15.4539 30.5781 15.5198 30.5122 15.5363 30.3474V30.2814L15.4374 30.1331L15.3715 30.0507H15.3385C15.1408 30.0672 15.0914 30.1496 14.943 30.199C14.8112 30.265 14.6134 30.3144 14.2838 30.3144C13.8389 30.3144 13.4434 30.199 13.1632 29.9519C12.8831 29.7047 12.6853 29.3256 12.6853 28.7159C12.6853 27.1832 13.6247 26.6559 14.0531 26.6559C14.2838 26.6559 14.3992 26.7548 14.5475 26.9031C14.6958 27.0349 14.8771 27.2656 15.2067 27.2656L15.5693 27.1503C15.6846 27.0514 15.7341 26.9196 15.7341 26.7713C15.7341 26.59 15.6517 26.4252 15.5363 26.3263C15.1902 26.0297 14.6299 25.9967 14.3168 25.9967V26.178H14.3333Z" fill="#C3C9D0"/>
<path d="M17.729 26.7712L17.7785 26.936C17.9103 26.936 18.3717 26.1779 19.4429 26.1779C20.8602 26.1779 20.8931 27.3974 20.8931 27.76V29.9188C20.8931 30.3967 20.9755 30.4956 21.2392 30.578C21.404 30.6274 21.5358 30.6274 21.5523 30.7263L21.2722 30.8582C20.959 30.8582 20.6789 30.8087 20.3658 30.8087C20.1186 30.8087 19.8219 30.8582 19.5583 30.8582L19.377 30.7428C19.377 30.6439 19.4594 30.6439 19.7066 30.578C19.9538 30.5121 20.0527 30.2319 20.0527 29.8529V27.5128C20.0527 27.0349 19.6242 26.6888 18.998 26.6888C18.2399 26.6888 17.7455 27.1832 17.7455 27.6446V30.1166C17.7455 30.4462 17.8773 30.5286 18.3223 30.578C18.5695 30.5945 18.6519 30.611 18.6519 30.7263L18.4376 30.8582C18.1905 30.8582 17.7785 30.8087 17.4489 30.8087C17.1028 30.8087 16.7402 30.8582 16.3942 30.8582L16.2129 30.7263L16.4106 30.578C16.8556 30.5286 16.9545 30.2979 16.9545 29.9847V24.3157C16.9545 24.1015 16.3777 24.052 16.3777 23.9037L16.4766 23.7554L17.5642 23.3763C17.762 23.3763 17.762 23.5082 17.762 23.7883V26.7712H17.729Z" fill="#C3C9D0"/>
<path d="M17.7291 26.7713L17.5479 26.8207L17.5973 26.969L17.6468 27.1009H17.7951L17.9763 27.0349C18.2071 26.8537 18.6026 26.3593 19.4595 26.3593C20.1187 26.3593 20.3824 26.6229 20.5472 26.9031C20.712 27.1997 20.712 27.5623 20.712 27.7436V29.9024C20.712 30.1496 20.7285 30.3144 20.8109 30.4792C20.8932 30.644 21.0416 30.7099 21.1899 30.7594L21.4206 30.8253L21.4536 30.7594L21.4041 30.8088L21.4206 30.8253L21.4536 30.7594L21.4041 30.8088L21.47 30.7429L21.3712 30.7594L21.3876 30.8088L21.4536 30.7429L21.3547 30.7594L21.5524 30.7264L21.47 30.5451L21.1899 30.677L21.2723 30.8583V30.6605C20.9921 30.6605 20.6955 30.6111 20.3659 30.6111C20.1022 30.6111 19.7891 30.6605 19.5584 30.6605V30.8583L19.6573 30.6935L19.4925 30.5781L19.3936 30.7429H19.5914H19.476L19.5584 30.8253L19.5914 30.7429H19.476L19.5584 30.8253L19.509 30.7759L19.5419 30.8418L19.5584 30.8253L19.509 30.7759L19.5419 30.8418C19.5584 30.8253 19.6573 30.8088 19.7891 30.7759C19.9704 30.7264 20.1187 30.5781 20.1846 30.4298C20.2505 30.265 20.2835 30.0837 20.2835 29.8695V27.5293C20.2835 27.2327 20.1517 26.9525 19.9209 26.7877C19.6902 26.6065 19.3936 26.5076 19.0475 26.5076C18.2071 26.5076 17.6138 27.0514 17.5973 27.6612V30.1331C17.5973 30.3144 17.6467 30.5122 17.7951 30.6275C17.9434 30.7264 18.1247 30.7594 18.3554 30.7923L18.5531 30.8088L18.5861 30.7264L18.5202 30.7759L18.5531 30.8088L18.5861 30.7264L18.5202 30.7759L18.6026 30.7264L18.5202 30.7429L18.5367 30.7759L18.6191 30.7264L18.5367 30.7429H18.7344L18.6355 30.5781L18.4048 30.7099L18.5037 30.8747V30.6605C18.273 30.6605 17.861 30.6111 17.5149 30.6111C17.1524 30.6111 16.7898 30.6605 16.4602 30.6605V30.8583L16.5756 30.6935L16.3778 30.5616L16.2625 30.7264L16.3778 30.8747L16.5756 30.7264L16.4602 30.5781L16.4767 30.7759C16.7239 30.7429 16.9216 30.6605 17.0535 30.4957C17.1688 30.3474 17.2018 30.1496 17.2018 29.9848V24.3158C17.2018 24.1675 17.1029 24.0686 17.037 24.0191L16.6909 23.8543L16.5921 23.8049L16.5097 23.8873H16.625L16.5921 23.8049L16.5097 23.8873H16.625H16.4273L16.5921 23.9862L16.6415 23.8873L17.6632 23.5412L17.5973 23.36V23.5577H17.6303V23.5083L17.5973 23.5412L17.6303 23.5577V23.5083L17.5973 23.5412L17.6303 23.5247L17.5808 23.5412L17.5973 23.5577L17.6303 23.5412L17.5808 23.5577L17.5973 23.8049V26.8537V26.8701L17.7291 26.7713H17.9269V23.7555C17.9269 23.6071 17.9434 23.5083 17.8939 23.3764C17.861 23.2281 17.6632 23.1292 17.5314 23.1457H17.4984L16.3778 23.5247L16.3119 23.5412L16.1801 23.7555L16.1471 23.8049V23.8543L16.2295 24.0356L16.6085 24.2334L16.7239 24.2993H16.7404L16.7568 24.2828L16.7239 24.2993L16.7404 24.2828L16.7074 24.2993L16.7733 24.2663H16.7074V24.2993L16.7733 24.2663H16.7074V29.9354L16.6415 30.2155C16.6085 30.265 16.5261 30.3144 16.3449 30.3474H16.2954L16.0482 30.5287L15.834 30.6935L16.246 30.9736L16.2954 31.0066H16.3613C16.7239 31.0066 17.0864 30.9571 17.416 30.9571C17.7291 30.9571 18.1411 31.0066 18.4048 31.0066H18.4543L18.7179 30.8583L18.8168 30.7923V30.677L18.6191 30.3803L18.3059 30.3309C18.0917 30.3144 17.9763 30.2815 17.9434 30.2485C17.9269 30.2155 17.8939 30.2155 17.8939 30.0672V27.5953C17.8939 27.4305 17.9763 27.2492 18.1576 27.0844C18.3389 26.9361 18.6191 26.8207 18.9486 26.8207C19.4925 26.8372 19.8056 27.1173 19.8056 27.4634V29.8035C19.8056 29.9848 19.7891 30.1167 19.7397 30.1991L19.6078 30.3309L19.3277 30.4133L19.1958 30.5122L19.1299 30.6935V30.7923L19.3936 30.9736L19.443 31.0066H19.509C19.7891 31.0066 20.1022 30.9571 20.3165 30.9571C20.5966 30.9571 20.8932 31.0066 21.2228 31.0066H21.2723L21.5854 30.8583L21.7172 30.7923L21.7008 30.644C21.6843 30.4957 21.536 30.3968 21.47 30.3968L21.2558 30.3474L21.1075 30.2485C21.0745 30.2155 21.058 30.0837 21.058 29.853V27.6941C21.058 27.5129 21.058 27.0844 20.8438 26.6724C20.6461 26.2769 20.1846 25.9143 19.4101 25.9143C18.8333 25.9143 18.4048 26.1286 18.1082 26.3263C17.9599 26.4252 17.861 26.5241 17.7786 26.59L17.6962 26.6559H17.6797L17.7456 26.7713V26.6394L17.6797 26.6559L17.7456 26.7713V26.6394V26.8372L17.9269 26.7713L17.8775 26.6229L17.7291 26.7713Z" fill="#C3C9D0"/>
<path d="M22.8041 27.6776C22.8041 27.0185 22.2932 27.2492 22.2932 27.0185C22.2932 26.9031 22.4745 26.8866 22.7546 26.6394C23.0183 26.3922 23.3809 26.0132 23.4962 26.0132L23.6116 26.1615V26.7713C24.0895 26.4252 24.4685 26.1615 25.0948 26.1615C26.6603 26.1615 26.6768 27.3316 26.6768 27.8589V30.0507C26.6768 30.3144 26.6933 30.5122 27.0064 30.5616C27.1712 30.5946 27.4184 30.5946 27.4184 30.7264C27.4184 30.8418 27.336 30.8582 27.1712 30.8582C26.8416 30.8582 26.4791 30.8088 26.2483 30.8088C25.9023 30.8088 25.6551 30.8582 25.3914 30.8582L25.1607 30.7429L25.3255 30.5781C25.6551 30.5122 25.9023 30.4957 25.9023 29.8859V27.9413C25.9023 27.4634 25.8363 26.6889 24.9135 26.6889C24.1884 26.6889 23.6445 27.1173 23.6281 27.2327C23.6116 27.5293 23.6116 27.793 23.6116 28.0732V29.8859C23.6116 30.2979 23.6281 30.5122 24.1389 30.5781C24.2873 30.611 24.485 30.611 24.485 30.7429L24.2213 30.8747C24.106 30.8747 23.661 30.8253 23.3809 30.8253C23.0348 30.8253 22.8041 30.8747 22.5734 30.8747L22.1943 30.7429L22.3756 30.5781C22.6887 30.5286 22.8206 30.2814 22.8206 29.7211V27.6776H22.8041Z" fill="#C3C9D0"/>
<path d="M22.804 27.6776H23.0017C23.0182 27.3151 22.804 27.0679 22.6227 27.0185L22.4579 26.969L22.4085 27.0349H22.4909L22.4579 26.969L22.4085 27.0349L22.4744 27.1009L22.4909 27.0349H22.4085L22.4744 27.1009C22.4744 27.0844 22.6556 27.002 22.8864 26.8042L23.3148 26.4087L23.4796 26.2604L23.5291 26.2274L23.4961 26.1285V26.2439H23.5291L23.4961 26.145V26.2604V26.0626L23.3478 26.178L23.4302 26.2769V26.8207V27.1997L23.7433 26.969C24.2212 26.6229 24.5343 26.4087 25.1111 26.4087C25.8527 26.4087 26.1493 26.6724 26.3141 26.9525C26.4789 27.2492 26.4954 27.6447 26.4954 27.9084V30.1002C26.4954 30.232 26.4954 30.3803 26.5613 30.5286C26.6273 30.677 26.7921 30.7923 26.9898 30.8088L27.237 30.8418L27.27 30.8582H27.2864L27.3359 30.7758H27.237L27.2864 30.8582L27.3359 30.7758H27.237H27.3029L27.2535 30.7429L27.237 30.7758H27.3029L27.2535 30.7429L27.3524 30.7923L27.3029 30.6934L27.27 30.7264L27.3688 30.7758L27.3194 30.677L27.3524 30.7264L27.3359 30.677H27.3194L27.3524 30.7264L27.3359 30.677H27.2205C26.9074 30.677 26.5613 30.6275 26.2977 30.6275C25.9351 30.6275 25.6714 30.677 25.4407 30.677V30.8747L25.5231 30.6934L25.2759 30.5781L25.1935 30.7594L25.3254 30.8912L25.4902 30.7264L25.3418 30.5781L25.3913 30.7758C25.5396 30.7429 25.7209 30.7264 25.8857 30.5946C26.0505 30.4462 26.1164 30.2155 26.1164 29.8859V27.9413C26.1164 27.6941 26.0999 27.3645 25.9516 27.0514C25.8033 26.7383 25.4572 26.4911 24.9298 26.4911C24.5343 26.4911 24.1883 26.6065 23.9246 26.7383L23.6115 26.9525C23.5291 27.0349 23.4796 27.0679 23.4467 27.2162C23.4302 27.5128 23.4302 27.793 23.4302 28.0732V29.8859C23.4302 30.0837 23.4302 30.2814 23.5291 30.4627C23.6444 30.644 23.8422 30.7429 24.1223 30.7923L24.3366 30.8253H24.3531L24.3695 30.7758L24.3366 30.8088L24.3531 30.8253L24.3695 30.7758L24.3366 30.8088L24.419 30.7594H24.3201L24.3366 30.8088L24.419 30.7594H24.3201H24.5179L24.4355 30.5946L24.1718 30.7264L24.2542 30.9077V30.6605C24.1718 30.6605 23.7103 30.611 23.4137 30.611C23.0512 30.611 22.804 30.6605 22.6062 30.6605V30.8582L22.6721 30.677L22.2931 30.5451L22.2272 30.7264L22.359 30.8747L22.5403 30.7264L22.4085 30.5616L22.4414 30.7594C22.6392 30.7264 22.8204 30.5946 22.9193 30.4133C23.0182 30.232 23.0347 30.0013 23.0512 29.7047V27.6776H22.804H22.6062V29.7047C22.6062 29.9683 22.5733 30.1496 22.5238 30.232L22.3096 30.3803L22.2601 30.3968L22.0459 30.5781L21.7822 30.7923L22.4744 31.0395H22.5073H22.5403C22.804 31.0395 23.0347 30.9901 23.3478 30.9901C23.6115 30.9901 24.0564 31.0395 24.1883 31.0395H24.2377L24.5343 30.8912L24.6497 30.8418V30.7264L24.5673 30.4957C24.4025 30.3638 24.2542 30.3968 24.1553 30.3639C23.9246 30.3309 23.8587 30.265 23.8422 30.232C23.8092 30.1826 23.7927 30.0672 23.8092 29.853V28.0402C23.8092 27.76 23.8092 27.4964 23.8257 27.2162H23.7104L23.8092 27.2656V27.2327H23.6939L23.7927 27.2821C23.8092 27.2492 23.9575 27.1338 24.1553 27.0349C24.3531 26.9361 24.6167 26.8701 24.8969 26.8701C25.3089 26.8866 25.4572 27.0185 25.5561 27.2162C25.655 27.414 25.6714 27.7106 25.6714 27.9413V29.8859C25.6714 30.1826 25.6055 30.265 25.5726 30.2979C25.5396 30.3474 25.4242 30.3638 25.2594 30.3968L25.1935 30.4133L24.9958 30.611L24.798 30.7923L25.2759 31.023L25.3254 31.0395H25.3748C25.655 31.0395 25.9022 30.9901 26.2317 30.9901C26.446 30.9901 26.8085 31.0395 27.1546 31.0395L27.4183 31.0066L27.5996 30.7264L27.4677 30.4957C27.3029 30.3968 27.1216 30.3968 27.0063 30.3803L26.8745 30.3144L26.8415 30.0507V27.8589C26.8415 27.5952 26.8415 27.1338 26.6273 26.7218C26.3965 26.2933 25.9022 25.9637 25.0782 25.9637C24.386 25.9637 23.9575 26.2604 23.4796 26.6065L23.595 26.7713H23.7927V26.1615V26.0956L23.6444 25.8978L23.595 25.8154H23.4961L23.2489 25.9143C23.0676 26.0461 22.804 26.3098 22.6062 26.4911L22.2931 26.7218L22.1613 26.8207L22.0789 27.0349L22.2766 27.3151L22.5073 27.414C22.5403 27.4469 22.5733 27.4799 22.5897 27.6941H22.804V27.6776Z" fill="#C3C9D0"/>
<path d="M31.6211 28.5511C31.6211 27.6447 31.0938 26.4581 30.2204 26.4581C29.3469 26.4581 28.8031 27.3645 28.8031 28.6664C28.8031 29.5399 29.3305 30.7429 30.2039 30.7429C31.0773 30.7429 31.6211 29.82 31.6211 28.5511ZM32.511 28.5675C32.511 29.7541 31.8354 31.0066 30.2039 31.0066C28.5889 31.0066 27.9297 29.8695 27.9297 28.617C27.9297 27.4304 28.6054 26.178 30.2368 26.178C31.5387 26.178 32.511 27.3151 32.511 28.5675Z" fill="#C3C9D0"/>
<path d="M31.6208 28.5511H31.8185C31.8185 28.0567 31.6867 27.5128 31.423 27.0679C31.1593 26.6394 30.7638 26.2769 30.22 26.2769C29.7091 26.2769 29.2807 26.557 29.017 26.9855C28.7533 27.414 28.605 28.0072 28.605 28.6829C28.605 29.1608 28.7533 29.7047 29.0005 30.1331C29.2642 30.5781 29.6597 30.9406 30.2035 30.9406C30.7144 30.9406 31.1264 30.6605 31.4065 30.232C31.6702 29.8035 31.8185 29.2103 31.8185 28.5511H31.6208H31.423C31.423 29.1608 31.2912 29.6717 31.0769 30.0178C30.8627 30.3638 30.5826 30.5451 30.2035 30.5451C29.8574 30.5451 29.5608 30.3144 29.3466 29.9354C29.1159 29.5728 29.0005 29.0784 29.0005 28.6664C29.0005 28.0402 29.1323 27.5293 29.3466 27.1832C29.5608 26.8372 29.841 26.6559 30.22 26.6559C30.5661 26.6559 30.8627 26.8866 31.0769 27.2656C31.2912 27.6447 31.423 28.1391 31.423 28.5511H31.6208ZM32.5107 28.5675H32.3129C32.3129 29.1279 32.1481 29.7047 31.8185 30.1166C31.4725 30.5286 30.9616 30.8088 30.2035 30.8253C29.4455 30.8253 28.9346 30.5616 28.605 30.1661C28.2754 29.7706 28.1271 29.2103 28.1271 28.6335C28.1271 28.0732 28.2919 27.4964 28.6215 27.0844C28.9675 26.6724 29.4784 26.3922 30.2365 26.3922C31.423 26.3922 32.3294 27.4469 32.3294 28.584H32.5107H32.7084C32.7084 27.2492 31.6537 25.9967 30.2365 25.9967C29.3795 25.9967 28.7203 26.3428 28.3248 26.8536C27.9128 27.348 27.748 28.0072 27.748 28.6335C27.748 29.2927 27.9128 29.9354 28.3248 30.4133C28.7368 30.9077 29.3795 31.2208 30.22 31.2208C31.0769 31.2208 31.7361 30.8747 32.1481 30.3803C32.5601 29.8694 32.7414 29.2267 32.7414 28.584H32.5107V28.5675Z" fill="#C3C9D0"/>
<path d="M34.7855 30.1002C34.7855 30.3969 35.0163 30.4463 35.5271 30.5617L35.7084 30.6935L35.5601 30.8418C35.214 30.8418 34.8515 30.7924 34.4889 30.7924C34.0934 30.7924 33.6814 30.8418 33.2859 30.8418L33.1211 30.71L33.3683 30.5617C33.7968 30.4463 33.9945 30.4133 33.9945 29.7047V24.2334C33.9945 23.9862 33.4342 23.9038 33.4342 23.8049L33.5331 23.6731L34.4724 23.3435L34.7031 23.2941L34.8185 23.5248C34.8185 23.8049 34.802 24.0686 34.802 24.3653V30.1002H34.7855Z" fill="#C3C9D0"/>
<path d="M34.7851 30.1H34.5873C34.5708 30.2977 34.7027 30.4955 34.8675 30.5614C35.0323 30.6438 35.2135 30.6932 35.4607 30.7592L35.5102 30.5779L35.3948 30.7427L35.5761 30.858L35.6914 30.6932L35.5431 30.5614L35.3948 30.7262L35.5431 30.858V30.6603C35.2135 30.6603 34.851 30.6108 34.4719 30.6108C34.06 30.6108 33.648 30.6603 33.2689 30.6603V30.858L33.3843 30.7097L33.2195 30.5779L33.1041 30.7427L33.203 30.9075L33.4502 30.7592L33.3513 30.5944L33.4008 30.7756C33.5985 30.7097 33.7963 30.6768 33.9611 30.512C34.1259 30.3307 34.1588 30.1 34.1588 29.7374V24.2332C34.1588 24.0849 34.0764 23.986 34.0105 23.9201L33.6644 23.7223L33.5656 23.6729H33.5491L33.4996 23.7553L33.5656 23.7058L33.5491 23.6893L33.4996 23.7717L33.5656 23.7223L33.4337 23.8212H33.5985L33.5656 23.7223L33.4337 23.8212H33.5985H33.4008L33.5656 23.9365L33.615 23.8541L34.4884 23.541L34.5543 23.5245L34.5873 23.6234L34.7686 23.541H34.6203C34.6203 23.8047 34.6038 24.0849 34.6038 24.3815V30.1H34.7851H34.9828V24.3815C34.9828 24.1013 34.9993 23.8212 34.9993 23.541V23.5081L34.8675 23.2444L34.8015 23.0961L34.406 23.1785H34.3895L33.4337 23.5081L33.3678 23.5245L33.236 23.7058L33.203 23.7553V23.8212L33.3019 24.0025L33.648 24.1673L33.7468 24.2332L33.7633 24.2497H33.7798H33.7963V29.7374C33.7963 30.067 33.7304 30.1989 33.6974 30.2483C33.648 30.2977 33.5326 30.3472 33.3184 30.3966H33.2854L33.0217 30.5614L32.791 30.7097L33.1865 31.0064L33.236 31.0393H33.3019C33.7139 31.0393 34.1094 30.9899 34.5049 30.9899C34.8345 30.9899 35.1971 31.0393 35.5761 31.0393H35.6585L35.8562 30.8251L36.0046 30.6603L35.6585 30.4131L35.6255 30.3966H35.5926C35.3454 30.3307 35.1476 30.2813 35.0817 30.2483L35.0158 30.1165H34.7851V30.1Z" fill="#C3C9D0"/>
<path d="M40.0595 28.5511C40.0595 27.6447 39.5321 26.4581 38.6587 26.4581C37.7853 26.4581 37.2415 27.3645 37.2415 28.6664C37.2415 29.5399 37.7688 30.7429 38.6422 30.7429C39.5321 30.7264 40.0595 29.82 40.0595 28.5511ZM40.9494 28.5675C40.9494 29.7541 40.2737 31.0066 38.6422 31.0066C37.0272 31.0066 36.3516 29.8695 36.3516 28.617C36.3516 27.4304 37.0272 26.178 38.6752 26.178C39.9606 26.178 40.9494 27.3151 40.9494 28.5675Z" fill="#C3C9D0"/>
<path d="M40.058 28.5511H40.2558C40.2558 28.0567 40.1075 27.5128 39.8438 27.0679C39.5801 26.6394 39.1846 26.2769 38.6408 26.2769C38.1299 26.2769 37.7179 26.557 37.4378 26.9855C37.1741 27.414 37.0258 28.0072 37.0258 28.6829C37.0258 29.1608 37.1576 29.7047 37.4213 30.1331C37.685 30.5781 38.0805 30.9406 38.6243 30.9406C39.1352 30.9406 39.5472 30.6605 39.8273 30.232C40.091 29.8035 40.2393 29.2103 40.2393 28.5511H40.058H39.8603C39.8603 29.1608 39.7284 29.6717 39.5142 30.0178C39.3 30.3638 39.0198 30.5451 38.6408 30.5451C38.2947 30.5451 37.9981 30.3144 37.7838 29.9354C37.5696 29.5728 37.4378 29.0784 37.4378 28.6664C37.4378 28.0402 37.5696 27.5293 37.7838 27.1832C37.9981 26.8372 38.2782 26.6559 38.6573 26.6559C39.0033 26.6559 39.3 26.8866 39.5142 27.2656C39.7284 27.6447 39.8603 28.1391 39.8603 28.5511H40.058ZM40.9479 28.5675H40.7502C40.7502 29.1279 40.5854 29.7047 40.2558 30.1166C39.9097 30.5286 39.3988 30.8088 38.6408 30.8253C37.8827 30.8253 37.3718 30.5616 37.0422 30.1661C36.7127 29.7706 36.5479 29.2103 36.5479 28.6335C36.5479 28.0732 36.7127 27.4964 37.0422 27.0844C37.3883 26.6724 37.8827 26.3922 38.6573 26.3922C39.8273 26.3922 40.7337 27.4469 40.7337 28.584H40.9479H41.1457C41.1457 27.2492 40.091 25.9967 38.6737 25.9967C37.8003 25.9967 37.1576 26.3428 36.7456 26.8536C36.3336 27.348 36.1523 28.0072 36.1523 28.6335C36.1523 29.2927 36.3171 29.9354 36.7291 30.4133C37.1411 30.9077 37.7674 31.2208 38.6243 31.2208C39.4812 31.2208 40.1404 30.8747 40.5359 30.3803C40.9479 29.8694 41.1292 29.2267 41.1292 28.584H40.9479V28.5675Z" fill="#C3C9D0"/>
<path d="M44.0629 26.3756C43.2389 26.3756 43.1071 27.1172 43.1071 27.694C43.1071 28.2213 43.173 29.2101 44.0464 29.2101C44.8539 29.2101 45.0517 28.6004 45.0517 27.8588C45.0517 27.2655 44.9363 26.3756 44.0629 26.3756ZM43.4037 33.0005C45.4307 33.0005 45.8262 32.0941 45.8262 31.748C45.8262 31.0394 45.0022 30.957 43.7333 30.957C43.2884 30.957 43.0741 30.9735 42.9917 31.0229C42.6292 31.2372 42.1018 31.8304 42.1018 32.0941C42.1018 32.6874 42.6951 33.0005 43.4037 33.0005ZM45.9251 27.1831C45.8592 27.1831 45.7933 27.2655 45.7933 27.727C45.7933 27.9082 45.7933 29.309 44.0135 29.4244C43.7663 29.4409 42.8434 29.4244 42.8434 29.9023C42.8434 30.166 42.9917 30.2484 44.1453 30.2484C45.3813 30.2484 46.3371 30.4132 46.3371 31.5338C46.3371 33.017 43.9475 33.3795 43.2389 33.3795C41.7722 33.3795 41.3438 32.7203 41.3438 32.2589C41.3438 31.4843 42.1842 31.1548 42.8434 30.8416C42.6456 30.7263 41.937 30.2154 41.937 29.9517C41.937 29.5892 42.9752 29.3749 43.1895 29.342C42.6127 28.93 42.2666 28.5345 42.2666 27.8094C42.2666 26.87 42.9917 26.2108 43.997 26.2108C44.409 26.2108 44.7056 26.3262 45.0022 26.4745C45.2989 26.6228 45.6285 26.7382 46.0899 26.7382H46.5843L46.6667 27.0348C46.6667 27.2161 46.6337 27.2326 46.4525 27.2326H45.9251V27.1831Z" fill="#C3C9D0"/>
<path d="M44.0635 26.3757V26.178C43.5856 26.178 43.256 26.4087 43.1077 26.7218C42.9429 27.0185 42.9099 27.381 42.9099 27.6776C42.9099 27.9578 42.9264 28.3533 43.0583 28.7159C43.1901 29.0784 43.5197 29.408 44.047 29.3915C44.5085 29.3915 44.8381 29.2103 45.0193 28.8971C45.2006 28.6005 45.25 28.2215 45.25 27.8424C45.25 27.5293 45.2171 27.1338 45.0688 26.8042C44.9205 26.4581 44.5744 26.178 44.08 26.178V26.3757V26.5735C44.4425 26.5735 44.6073 26.7383 44.7227 26.969C44.8381 27.2162 44.871 27.5623 44.871 27.8424C44.871 28.1885 44.8216 28.5016 44.7062 28.6994C44.5744 28.8971 44.4261 29.0125 44.0635 29.0125C43.701 29.0125 43.5691 28.8477 43.4373 28.5675C43.3219 28.3039 43.3054 27.9413 43.3054 27.6776C43.3054 27.3975 43.3384 27.1009 43.4538 26.9031C43.5691 26.7053 43.7174 26.5735 44.08 26.557V26.3757H44.0635ZM43.4043 33.0006V33.1984C44.4425 33.1984 45.0853 32.9677 45.4972 32.671C45.8928 32.3579 46.0246 31.9953 46.0246 31.7481C46.0411 31.3032 45.7115 31.0066 45.316 30.9077C44.904 30.7758 44.3766 30.7594 43.7339 30.7594C43.2725 30.7594 43.0912 30.7594 42.9099 30.8418C42.6957 30.9736 42.465 31.1714 42.2837 31.4021C42.1024 31.6328 41.9376 31.8305 41.9211 32.0777C41.9211 32.4568 42.1024 32.7534 42.3991 32.9347C42.6792 33.116 43.0418 33.1984 43.4208 33.1984V33.0006V32.8029C43.0912 32.8029 42.7946 32.7205 42.5968 32.6051C42.3991 32.4733 42.3002 32.3249 42.3002 32.0777C42.2837 32.0613 42.3991 31.847 42.5639 31.6493C42.7287 31.4515 42.9429 31.2538 43.0912 31.1714C43.1406 31.1549 43.3549 31.1384 43.7339 31.1384C44.3601 31.1384 44.8875 31.1714 45.2006 31.2702C45.5302 31.3856 45.6291 31.4845 45.6456 31.7481C45.6456 31.9624 45.3984 32.8029 43.4208 32.8193V33.0006H43.4043ZM45.9257 27.1832V26.9855L45.7444 27.0514C45.6126 27.2162 45.6126 27.348 45.6126 27.7106C45.6126 27.793 45.6126 28.1391 45.4148 28.4851C45.2171 28.8147 44.8545 29.1443 44.0141 29.2103C43.8987 29.2103 43.6021 29.2103 43.3054 29.2762C43.1571 29.3091 43.0253 29.3586 42.8935 29.4575C42.7616 29.5399 42.6627 29.7047 42.6627 29.8859L42.7451 30.1496C42.8605 30.2979 43.0088 30.3309 43.223 30.3638C43.4373 30.3968 43.7339 30.4133 44.1789 30.4133C44.7886 30.4133 45.316 30.4627 45.6456 30.6275C45.9752 30.7923 46.1564 31.0066 46.1564 31.501C46.1564 32.1272 45.662 32.5392 45.0029 32.8029C44.3601 33.0665 43.5856 33.1489 43.256 33.1489C41.8388 33.1324 41.5586 32.5392 41.5586 32.2261C41.5586 31.9129 41.7234 31.6987 41.9871 31.501C42.2507 31.3032 42.6133 31.1384 42.9594 30.9901L43.289 30.8418L42.9759 30.6605C42.877 30.611 42.6627 30.4462 42.4815 30.2979L42.2343 30.0672L42.1683 29.9683V29.9354V29.9189C42.2013 29.853 42.4485 29.7211 42.6792 29.6552C42.9264 29.5728 43.1736 29.5234 43.2395 29.5069L43.701 29.4245L43.3219 29.1608C42.7616 28.7488 42.4815 28.4357 42.4815 27.7765C42.4815 26.9525 43.0912 26.3757 44.0141 26.3593C44.3931 26.3593 44.6403 26.4581 44.9369 26.6065C45.25 26.7548 45.6126 26.8866 46.107 26.8866H46.4531L46.486 27.0349L46.6673 26.9855H46.4695V27.0514L46.5519 27.0679L46.486 27.0349L46.4695 27.0679L46.5519 27.0844L46.486 27.0349L46.5849 27.1008L46.5355 27.002L46.486 27.0349L46.5849 27.1008L46.5355 27.002L46.5684 27.0679L46.5519 27.002H46.5355L46.5684 27.0679L46.5519 27.002H46.4695H45.9422V27.1832V27.381H46.4695L46.7662 27.2986L46.8651 26.9855V26.9525L46.7662 26.6394L46.7332 26.5076H46.107C45.6785 26.5076 45.3819 26.3922 45.1017 26.2604C44.7886 26.1121 44.459 25.9802 44.0141 25.9802C43.4538 25.9802 42.9759 26.1615 42.6298 26.4911C42.2837 26.8042 42.0859 27.2656 42.0859 27.793C42.0695 28.6005 42.5144 29.0784 43.0912 29.4904L43.2066 29.3256L43.1736 29.1279C43.0582 29.1443 42.7451 29.2103 42.4485 29.3256C42.3002 29.3751 42.1519 29.4575 42.02 29.5399C41.9047 29.6223 41.7728 29.7541 41.7728 29.9354C41.7728 30.0837 41.8552 30.1826 41.9376 30.2979C42.1683 30.5946 42.5968 30.8912 42.7781 30.9901L42.877 30.8253L42.7946 30.644C42.465 30.8088 42.0859 30.9571 41.7564 31.2043C41.4432 31.435 41.1631 31.7811 41.1631 32.2425C41.1631 32.5227 41.2949 32.8688 41.641 33.1324C41.9706 33.3961 42.4979 33.5609 43.256 33.5609C43.635 33.5609 44.4261 33.4785 45.1512 33.1819C45.8598 32.9017 46.5519 32.3909 46.5519 31.5174C46.5684 30.9077 46.2553 30.4792 45.8104 30.2814C45.3654 30.0837 44.8051 30.0343 44.1789 30.0343C43.6021 30.0343 43.2725 30.0013 43.1406 29.9683L43.0747 29.9519V29.9024L43.1406 29.7871C43.3054 29.6387 43.8658 29.6223 44.0635 29.6223C45.0029 29.5563 45.5302 29.1443 45.7774 28.6994C46.0246 28.2709 46.0246 27.826 46.0246 27.7436C46.0246 27.5293 46.0411 27.3975 46.0576 27.3645V27.348L45.9752 27.2986L46.0246 27.381L46.0576 27.348L45.9752 27.2986L46.0246 27.381L45.9587 27.2821V27.414L46.0246 27.3975L45.9587 27.2986V27.4304V27.1832H45.9257Z" fill="#C3C9D0"/>
<path d="M49.6658 29.7211L49.7647 29.8695L49.8965 29.7211L50.6711 27.9743C50.8029 27.6776 50.9512 27.2986 50.9512 27.0184C50.9512 26.6229 50.2426 26.7383 50.2426 26.4911C50.2426 26.4087 50.325 26.3593 50.4568 26.3593C50.5063 26.3593 50.6051 26.3922 51.116 26.3922C51.5939 26.3922 51.7093 26.3593 51.8082 26.3593C51.973 26.3593 52.0718 26.4087 52.0718 26.4911C52.0718 26.6889 51.6434 26.6065 51.4621 27.0349L49.089 32.5886C48.8583 33.0995 48.6935 33.3632 48.1826 33.3632C47.7212 33.3632 47.5729 33.0995 47.5729 32.8852C47.5729 32.5886 47.7706 32.4568 48.0508 32.4568C48.2485 32.4568 48.3969 32.5557 48.5287 32.5557C48.7594 32.5557 49.2703 31.1549 49.2703 31.023C49.2703 30.8418 49.1879 30.6934 49.122 30.5122L47.853 26.9855C47.7542 26.7218 47.2598 26.7053 47.2598 26.5076C47.2598 26.4087 47.3257 26.3428 47.507 26.3428C47.7542 26.3428 48.0343 26.3757 48.3145 26.3757C48.5946 26.3757 48.8748 26.3428 49.2373 26.3428C49.4186 26.3428 49.468 26.3922 49.468 26.5076C49.468 26.6724 48.71 26.6065 48.71 26.936L48.7759 27.1997L49.6658 29.7211Z" fill="#C3C9D0"/>
<path d="M49.6664 29.721L49.5016 29.8364L49.6005 29.9847L49.7488 30.1989L50.029 29.8528L50.0454 29.8364L50.8365 28.0566C50.9683 27.7434 51.1331 27.3644 51.1331 27.0183C51.1496 26.8535 51.0507 26.7217 50.9518 26.6393C50.787 26.5404 50.6222 26.5075 50.5069 26.4745L50.3915 26.4415L50.375 26.4745L50.3915 26.458V26.4415L50.375 26.4745L50.3915 26.458L50.3256 26.5075H50.408L50.3915 26.458L50.3256 26.5075L50.375 26.5734L50.408 26.5075H50.3256L50.375 26.5734H50.441C50.441 26.5734 50.6058 26.5898 51.1001 26.5898C51.5781 26.5898 51.7264 26.5734 51.7923 26.5734L51.9076 26.5898L51.9241 26.5404L51.8912 26.5734L51.9076 26.5898L51.9241 26.5404L51.8912 26.5734L51.9736 26.5075H51.8747L51.8912 26.5734L51.9736 26.5075H51.8747H51.9571L51.8912 26.458L51.8747 26.5075H51.9571L51.8912 26.458L51.9241 26.4745L51.9076 26.4415L51.8912 26.458L51.9241 26.4745L51.9076 26.4415C51.8747 26.4745 51.4627 26.5569 51.2814 26.9689L48.9083 32.5226C48.8095 32.7698 48.7106 32.951 48.6117 33.0499C48.5128 33.1323 48.414 33.1982 48.1997 33.1982C48.002 33.1982 47.9031 33.1488 47.8536 33.0994L47.7712 32.9181L47.8372 32.7368L48.0514 32.6874C48.1997 32.6709 48.2986 32.7698 48.5293 32.7862L48.76 32.6544C48.9248 32.4731 49.0731 32.1271 49.2215 31.7975C49.2874 31.6327 49.3368 31.4679 49.3863 31.336L49.4687 31.0394C49.4687 30.7922 49.3698 30.6274 49.3203 30.4791L48.0514 26.9524C47.9525 26.7217 47.7548 26.6558 47.6229 26.5734L47.4746 26.491H47.4581L47.3922 26.5239H47.4746L47.4581 26.491L47.3922 26.5239H47.4746H47.4087L47.4417 26.5734L47.4746 26.5239H47.4087L47.4417 26.5734H47.4581H47.5405C47.7877 26.5734 48.0514 26.5898 48.348 26.5898C48.6447 26.5898 48.9248 26.5734 49.2709 26.5734H49.3533L49.4027 26.5075L49.3203 26.5404L49.3533 26.5898L49.4027 26.5239L49.3203 26.5569L49.3533 26.5404H49.3203V26.5569L49.3533 26.5404H49.3203V26.5569H49.4522L49.3698 26.458L49.3203 26.5569H49.4522L49.3698 26.458C49.3368 26.4745 49.1555 26.5075 48.9907 26.5569L48.7436 26.6887L48.5788 27.0018V27.0348L48.6612 27.315V27.3314L49.5346 29.8858L49.5511 29.9023L49.6664 29.721L49.8477 29.6551L48.9907 27.1337L48.9248 26.8865L48.7436 26.9359H48.9413L49.0237 26.8865L49.3533 26.8041L49.5346 26.7382L49.6994 26.491L49.584 26.2108L49.2709 26.1284C48.8919 26.1284 48.6117 26.1614 48.348 26.1614C48.0844 26.1614 47.8207 26.1284 47.5405 26.1284L47.2274 26.2108L47.0791 26.491C47.0791 26.6393 47.178 26.7217 47.2439 26.7711L47.557 26.9359L47.6888 27.0348L48.9578 30.5615C49.0237 30.7428 49.0896 30.8911 49.0896 31.0064C49.0731 31.1053 48.9413 31.4843 48.793 31.8304C48.7271 31.9952 48.6447 32.1435 48.5788 32.2589L48.4964 32.3743V32.3907L48.5623 32.4896V32.3907L48.4964 32.4072L48.5623 32.5061V32.4072C48.5293 32.4237 48.3645 32.3083 48.0844 32.3083C47.9196 32.3083 47.7548 32.3413 47.6229 32.4567C47.4911 32.572 47.4087 32.7368 47.4252 32.9346C47.4252 33.0829 47.4746 33.2642 47.6064 33.396C47.7548 33.5278 47.9525 33.6102 48.2162 33.6102C48.4964 33.6102 48.7436 33.5278 48.9083 33.363C49.0731 33.1982 49.172 32.984 49.2874 32.7203L51.6605 27.1666C51.7264 27.0018 51.8253 26.9524 51.9406 26.903L52.1384 26.8206L52.3032 26.5569L52.1219 26.2932L51.8417 26.2438C51.7099 26.2438 51.6275 26.2767 51.1496 26.2767C50.6387 26.2767 50.5728 26.2603 50.4904 26.2438L50.2267 26.3097L50.0784 26.5734C50.0784 26.7547 50.2267 26.837 50.3091 26.8865L50.7046 27.0018L50.8035 27.1007C50.8035 27.315 50.6717 27.694 50.5398 27.9906L49.7818 29.7045L49.6664 29.8364L49.8147 29.9517L49.9795 29.8364L49.8642 29.6881L49.6664 29.721Z" fill="#C3C9D0"/>
<path d="M60.642 25.1892L60.5102 25.3046L60.3784 25.2387C60.0158 24.3653 60.3619 24.0521 58.3184 24.0521C57.6757 24.0521 57.5438 24.151 57.5438 24.5136V26.4911C57.5438 26.8702 57.6098 26.9196 58.3843 26.9196C58.615 26.9196 58.8128 26.8702 59.0435 26.8537C59.8675 26.7548 59.5379 25.7825 59.9499 25.7825C60.0158 25.7825 60.0817 25.799 60.0817 25.9803C60.0817 26.3099 60.0488 26.623 60.0488 26.9526C60.0488 27.2657 60.0817 27.9578 60.0817 28.1556L59.9664 28.3369C59.818 28.3369 59.7851 28.205 59.6532 27.6942C59.5708 27.3646 59.4885 27.2163 58.269 27.2163C57.6757 27.2163 57.5274 27.2492 57.5274 27.5294V29.7706C57.5274 30.265 57.6592 30.3309 58.3843 30.4298C58.615 30.4628 58.8622 30.4463 58.8622 30.6276C58.8787 30.7429 58.8128 30.7924 58.5656 30.7924C58.3843 30.7924 58.1371 30.7429 57.1154 30.7429C56.621 30.7429 56.1431 30.7924 55.7805 30.7924C55.5828 30.7924 55.418 30.7759 55.418 30.6276C55.418 30.5122 55.4674 30.4957 56.1266 30.4133C56.4067 30.3804 56.5056 30.232 56.5056 29.474V24.5465C56.5056 24.1181 56.4562 24.0851 56.1596 24.0027C55.7311 23.8873 55.4839 23.9862 55.4839 23.7885C55.4839 23.6566 55.6157 23.6401 56.0442 23.6401C56.2914 23.6401 56.6045 23.6401 56.9341 23.6566C57.2637 23.6566 57.6098 23.6731 57.9064 23.6731C58.7469 23.6731 59.9499 23.6237 60.3454 23.6237L60.5926 23.739V25.1892H60.642Z" fill="#C3C9D0"/>
<path d="M60.6421 25.1892L60.5102 25.0409L60.4938 25.0574H60.4773L60.3784 25.2222L60.5597 25.1398C60.3784 24.7443 60.3949 24.4312 60.0982 24.151C59.8016 23.8873 59.3402 23.8379 58.3184 23.8214C57.9888 23.8214 57.7746 23.8379 57.5933 23.9533C57.3956 24.0686 57.3461 24.2993 57.3626 24.4971V26.4747L57.3791 26.7548C57.4285 26.9031 57.5768 27.035 57.7416 27.0515C57.9064 27.0844 58.1042 27.1009 58.4008 27.1009C58.648 27.1009 58.8458 27.0515 59.0765 27.035H59.093C59.6039 26.9855 59.8016 26.59 59.8675 26.3263L59.9499 25.9968L59.9664 25.9638V25.9308L59.9499 25.9638H59.9664V25.9308L59.9499 25.9638L59.9829 25.8814L59.9005 25.9144L59.9664 25.9638L59.9994 25.8814L59.917 25.9144L59.9334 25.8979H59.917L59.9334 25.8814H59.917V25.9473C59.917 26.2769 59.9005 26.59 59.9005 26.9196C59.9005 27.2327 59.917 27.9249 59.917 28.1226H60.1147L59.9499 28.0238L59.8346 28.205L59.9994 28.3039V28.1062L59.9829 28.1556L60.0158 28.1226L59.9994 28.1062L59.9829 28.1556L60.0158 28.1226C59.9994 28.1226 59.9334 27.9414 59.8675 27.6118C59.8346 27.447 59.7357 27.2163 59.4885 27.1174C59.2413 27.0185 58.9117 26.9855 58.302 26.9855C58.0053 26.9855 57.8076 26.9855 57.6428 27.0515L57.4285 27.2327L57.3791 27.4964V29.7377C57.3791 29.9849 57.4121 30.2156 57.6098 30.3639C57.7911 30.4957 58.0218 30.5287 58.3844 30.5946L58.6975 30.6276L58.7304 30.644L58.7469 30.6111L58.714 30.6276L58.7304 30.644L58.7469 30.6111H58.6975L58.714 30.6276L58.7469 30.6111H58.6975V30.6276H58.7469L58.6975 30.5946V30.6276H58.7469L58.6975 30.5946L58.7634 30.6276L58.714 30.5616L58.6975 30.5946L58.7634 30.6276L58.714 30.5616L58.7304 30.5781V30.5616L58.7469 30.5781V30.5616L58.6151 30.5781C58.4503 30.5781 58.1866 30.5287 57.1649 30.5287C56.654 30.5287 56.1761 30.5781 55.83 30.5781L55.6322 30.5616H55.6158L55.5828 30.6111H55.6322L55.6158 30.5616L55.5828 30.6111H55.6322L55.5498 30.6605L55.6158 30.7594L55.6652 30.6935L55.5498 30.6605L55.6158 30.7594C55.6322 30.7429 55.83 30.71 56.209 30.6605C56.3738 30.644 56.5881 30.5452 56.654 30.3474C56.7364 30.1661 56.7529 29.9189 56.7529 29.5234V24.596C56.7529 24.3817 56.7529 24.2334 56.654 24.0851C56.5551 23.9368 56.4068 23.9038 56.2585 23.8544C56.0278 23.7885 55.83 23.7885 55.7311 23.772L55.6817 23.7555L55.6322 23.8379L55.7146 23.7885L55.6817 23.7555L55.6322 23.8379L55.7146 23.7885L55.6487 23.8214L55.7146 23.8049V23.7885L55.6487 23.8214L55.7146 23.8049H55.6322L55.6982 23.8544L55.7146 23.8049H55.6322L55.6817 23.8709L55.6982 23.8544L55.6322 23.8049L55.6817 23.8709H55.6982C55.7476 23.8544 55.8794 23.8544 56.0937 23.8544C56.3409 23.8544 56.654 23.8544 56.9836 23.8709C57.2967 23.8709 57.6592 23.8873 57.9559 23.8873C58.7963 23.8873 59.9994 23.8379 60.3949 23.8379V23.6401L60.3125 23.8214L60.4443 23.8873V25.1892H60.6421H60.8398V23.7555V23.6401L60.4773 23.4753L60.4443 23.4589H60.3949C59.9829 23.4589 58.7799 23.5083 57.9559 23.5083C57.6592 23.5083 57.3132 23.4918 56.9836 23.4918C56.654 23.4753 56.3409 23.4753 56.0772 23.4753C55.863 23.4753 55.7146 23.4753 55.5828 23.5083L55.4015 23.6072L55.3191 23.8214L55.451 24.0851L55.7806 24.1675L56.1431 24.2334C56.2914 24.2664 56.3244 24.2993 56.3244 24.2993C56.3244 24.2993 56.3574 24.3982 56.3574 24.596V29.5234C56.3574 29.886 56.3244 30.1002 56.2914 30.1826L56.1431 30.2815C55.8135 30.3145 55.6322 30.3474 55.5004 30.3804L55.3191 30.4957L55.2532 30.6935C55.2367 30.8583 55.3851 30.9901 55.5004 31.0066L55.83 31.0396C56.209 31.0396 56.6705 30.9901 57.1649 30.9901C58.1866 30.9901 58.3844 31.0396 58.6151 31.0396L58.9282 30.9736L59.093 30.6935V30.644L58.8952 30.6605H59.093L58.9776 30.4133C58.7799 30.2485 58.5986 30.298 58.4338 30.265C58.0712 30.2156 57.8735 30.1661 57.824 30.1167C57.7746 30.0837 57.7416 30.0343 57.7416 29.7871V27.5459L57.7581 27.4635L57.8735 27.4305C57.9724 27.414 58.1042 27.414 58.302 27.414C58.8952 27.414 59.2083 27.447 59.3402 27.5129C59.4555 27.5788 59.4391 27.5788 59.505 27.7436C59.5709 27.9908 59.6039 28.1556 59.6698 28.2874L59.8016 28.4687L60.0158 28.5346H60.1312L60.296 28.2545L60.329 28.205V28.1556C60.329 27.9414 60.3125 27.2492 60.3125 26.9526C60.3125 26.6395 60.329 26.3099 60.329 25.9803L60.2466 25.7001L60.0158 25.6012C59.8181 25.6012 59.6862 25.766 59.6368 25.8814C59.5709 26.0627 59.5379 26.2604 59.472 26.4087C59.4061 26.5571 59.3402 26.6395 59.093 26.6724C58.8293 26.6889 58.6316 26.7383 58.4338 26.7383C58.0383 26.7383 57.8405 26.7219 57.8076 26.6889V26.6724L57.7911 26.5076V24.53C57.7911 24.3488 57.8076 24.3488 57.8405 24.3158C57.8735 24.2829 58.0548 24.2499 58.3679 24.2499C59.3731 24.2499 59.7686 24.3488 59.9005 24.4806C60.0488 24.5795 60.0653 24.8596 60.263 25.3376L60.2795 25.4035L60.4608 25.5024L60.5926 25.5683L60.8233 25.354L60.8893 25.3046V25.2222H60.6421V25.1892Z" fill="#C3C9D0"/>
<path d="M63.8054 28.8146C63.8054 28.4356 63.7231 28.4026 63.6407 28.4026C63.5912 28.4026 62.174 28.7322 62.174 29.7375C62.174 30.0341 62.3882 30.3637 62.8002 30.3637C63.5253 30.3637 63.789 29.7375 63.789 29.3255V28.8146H63.8054ZM64.5635 29.8528C64.5635 30.0176 64.613 30.2319 64.9425 30.2319C65.2721 30.2319 65.2721 30.0012 65.4369 30.0012L65.5688 30.1C65.5688 30.2154 65.2557 30.8087 64.5965 30.8087C64.0856 30.8087 63.8219 30.4296 63.7066 30.2648C63.2451 30.6109 62.9979 30.924 62.2234 30.924C61.762 30.924 61.317 30.6604 61.317 30.0671C61.317 28.8805 62.8331 28.4521 62.9155 28.4191C63.2946 28.2708 63.5418 28.1884 63.7725 28.1225L63.8219 27.7764C63.8219 27.0842 63.8055 26.6228 63.0803 26.6228C61.8608 26.6228 62.3058 27.9742 61.5312 27.9742C61.3005 27.9742 61.2676 27.8258 61.2676 27.694C61.2676 27.4633 62.0421 26.2603 63.4429 26.2603C64.5635 26.2603 64.5635 27.0018 64.5635 27.282V29.8528Z" fill="#C3C9D0"/>
<path d="M63.8063 28.8147H64.0041C64.0041 28.617 63.9876 28.4852 63.9217 28.3698L63.6415 28.205L63.5262 28.2215C63.3614 28.2709 62.9823 28.3698 62.6527 28.6005C62.3067 28.8312 61.9771 29.1938 61.9771 29.7376C61.9771 29.9354 62.043 30.1331 62.1913 30.2815C62.3231 30.4462 62.5539 30.5616 62.801 30.5616C63.2295 30.5616 63.5426 30.3803 63.7239 30.1167C63.9217 29.8695 63.9876 29.5893 63.9876 29.3256V28.7983H63.8063H63.625V29.3256C63.625 29.4904 63.5591 29.7047 63.4438 29.8695C63.3119 30.0343 63.1306 30.1496 62.8175 30.1496C62.5209 30.1496 62.3891 29.9189 62.3891 29.7047C62.3891 29.2927 62.6692 29.0125 62.9988 28.8147C63.1636 28.7159 63.3284 28.65 63.4767 28.617L63.6415 28.5675L63.6745 28.5511H63.691L63.6745 28.4192V28.5511H63.691L63.6745 28.4192V28.5511V28.5181L63.6415 28.584L63.6745 28.6005V28.5181L63.6086 28.5675L63.6415 28.584L63.6745 28.5181L63.6086 28.5675C63.625 28.584 63.6415 28.6664 63.6415 28.8147H63.8063ZM64.5644 29.853H64.3666L64.4655 30.2155C64.5644 30.3474 64.7292 30.4133 64.9269 30.4133C65.1247 30.4133 65.2895 30.3309 65.3719 30.265L65.4378 30.1991V30.0013L65.306 30.1496L65.4378 30.265L65.5696 30.1167H65.3719H65.4543L65.3884 30.1002V30.1167H65.4708L65.4048 30.1002L65.1906 30.3968C65.0588 30.5286 64.861 30.6275 64.6138 30.6275C64.2183 30.6275 64.0041 30.3474 63.8722 30.1661L63.7404 30.0178L63.5921 30.1331C63.1142 30.4957 62.9494 30.7429 62.2243 30.7429C61.8287 30.7264 61.5321 30.5616 61.5156 30.0672C61.5156 29.5728 61.8287 29.2103 62.1913 28.9631C62.5539 28.7159 62.9329 28.617 62.9823 28.584C63.3778 28.4357 63.6086 28.3533 63.8228 28.2874L63.9546 28.2544L64.037 27.7765V27.76V27.7436C64.037 27.3975 64.037 27.0844 63.9217 26.8207C63.7898 26.5405 63.4932 26.3757 63.0977 26.3922C62.7681 26.3922 62.5044 26.4911 62.3231 26.6559C62.0595 26.8866 61.9771 27.2162 61.8782 27.4469L61.7299 27.6776L61.5486 27.7436L61.4992 27.7271L61.4827 27.6447C61.4827 27.5952 61.6804 27.2327 62.01 26.9525C62.3561 26.6724 62.834 26.4087 63.4602 26.4087C63.9711 26.4087 64.1689 26.5735 64.2677 26.7218C64.3666 26.8866 64.3831 27.1009 64.3831 27.2327V29.8035H64.5644H64.7621V27.2327C64.7621 27.0844 64.7621 26.7877 64.5973 26.5076C64.4161 26.2274 64.0535 26.0132 63.4602 26.0132C62.7022 26.0132 62.1089 26.3428 61.7299 26.6889C61.5321 26.8537 61.3838 27.0514 61.2849 27.1997C61.186 27.3645 61.1201 27.4799 61.1201 27.6282L61.2025 27.9248C61.2684 28.0402 61.4332 28.1061 61.5816 28.0896C61.8287 28.0896 62.043 27.9578 62.1419 27.793C62.3067 27.5458 62.3561 27.2657 62.4879 27.0679C62.6198 26.8701 62.7351 26.7383 63.1471 26.7383C63.4767 26.7548 63.5591 26.8207 63.625 26.9361C63.691 27.0679 63.7074 27.348 63.7074 27.6941H63.9052L63.7074 27.6612L63.658 28.0072L63.8393 28.0402L63.7898 27.8589C63.5262 27.9248 63.2954 28.0237 62.8999 28.1556C62.867 28.172 62.4385 28.2874 62.0265 28.5675C61.6145 28.8312 61.1696 29.3091 61.1696 29.9848C61.1696 30.3309 61.3014 30.611 61.5156 30.7923C61.7299 30.9736 61.9935 31.0395 62.2572 31.0395C63.0977 31.056 63.4273 30.677 63.8722 30.3474L63.7404 30.1991L63.5921 30.3309C63.7074 30.4792 64.0205 30.9406 64.6468 30.9406C65.0423 30.9406 65.3389 30.7594 65.5202 30.5781L65.7344 30.2979L65.8168 30.0507V29.9519L65.6191 29.7871L65.5696 29.7376H65.4378C65.2565 29.7376 65.1576 29.8695 65.1082 29.9024L64.9269 29.9683L64.7786 29.9189L64.7457 29.7871H64.5644V29.853Z" fill="#C3C9D0"/>
<path d="M65.9648 29.9681C65.9648 29.7374 65.9813 29.6055 66.0967 29.6055L66.278 29.9022C66.3109 29.9846 66.624 30.6932 67.2997 30.6932C67.7611 30.6932 68.239 30.4625 68.239 29.9022C68.239 28.8639 66.0308 28.8804 66.0308 27.5126C66.0308 26.8534 66.4263 26.1613 67.481 26.1613C68.7169 26.1613 68.7334 26.3425 68.7334 26.8699C68.7334 27.3313 68.7169 27.4137 68.6346 27.4137C68.2885 27.4137 68.4038 26.4909 67.481 26.4909C67.036 26.4909 66.7229 26.7545 66.7229 27.1995C66.7229 28.0729 69.0465 28.419 69.0465 29.622C69.0465 30.1988 68.6675 30.9898 67.4151 30.9898C67.069 30.9898 65.9813 30.9404 65.9813 30.5284V29.9681H65.9648Z" fill="#C3C9D0"/>
<path d="M65.9653 29.9683H66.1631L66.1796 29.7541L66.1137 29.7211V29.8035L66.1796 29.7541L66.1137 29.7211V29.8035V29.6058L65.9489 29.7047L66.1301 30.0013L66.2949 29.9024L66.1137 29.9683C66.1301 30.0342 66.229 30.232 66.4268 30.4462C66.608 30.6605 66.9047 30.8747 67.3167 30.8747C67.5803 30.8747 67.844 30.8088 68.0747 30.6605C68.289 30.4957 68.4538 30.232 68.4538 29.9024C68.4538 29.5563 68.2725 29.3091 68.0418 29.1279C67.6957 28.8477 67.2178 28.6664 66.8552 28.4357C66.4927 28.1885 66.2455 27.9413 66.2455 27.5293C66.2455 27.2327 66.3279 26.9525 66.5256 26.7383C66.7234 26.5241 67.02 26.3757 67.4979 26.3757C68.1077 26.3757 68.4043 26.4417 68.4702 26.5076L68.5362 26.6065L68.5526 26.9031C68.5526 27.1338 68.5526 27.2656 68.5362 27.2986V27.3151L68.635 27.3645L68.5691 27.2656L68.5197 27.3151L68.6186 27.3645V27.2492L68.5526 27.2656L68.6186 27.3645V27.2492V27.2656L68.635 27.2492H68.6186V27.2656L68.635 27.2492C68.6021 27.2492 68.5197 27.0184 68.3714 26.7877C68.2231 26.557 67.9264 26.3263 67.465 26.3263C67.2013 26.3263 66.9706 26.4087 66.7893 26.557C66.6245 26.7218 66.5092 26.9525 66.5092 27.2327C66.5092 27.5458 66.7069 27.7765 66.9541 27.9743C67.3002 28.2544 67.7946 28.4851 68.1901 28.7653C68.5856 29.0455 68.8493 29.3256 68.8493 29.6717C68.8493 29.9189 68.7669 30.2155 68.5526 30.4462C68.3384 30.677 67.9923 30.8418 67.3991 30.8582C67.2343 30.8582 66.8882 30.8418 66.5916 30.7923C66.4432 30.7594 66.3114 30.7264 66.2455 30.677L66.1631 30.5946V30.0178H65.9653H65.7676V30.5946C65.7676 30.7923 65.8994 30.9406 66.0477 31.0066C66.4597 31.2373 67.1354 31.2373 67.3991 31.2538C68.0747 31.2538 68.5362 31.0395 68.8328 30.7264C69.1294 30.4133 69.2283 30.0178 69.2283 29.6882C69.2283 29.3256 69.047 29.029 68.8163 28.7818C68.4538 28.4357 67.9594 28.172 67.5474 27.9248C67.3496 27.8095 67.1684 27.6776 67.0695 27.5623L66.9047 27.2492C66.9212 26.9031 67.1024 26.7548 67.465 26.7383C67.8605 26.7548 67.9594 26.9031 68.0912 27.1008L68.256 27.414C68.3219 27.5128 68.4373 27.6447 68.6186 27.6447L68.8163 27.5623L68.9152 27.2986C68.9317 27.2162 68.9317 27.0844 68.9317 26.9196L68.8987 26.5405C68.8658 26.3593 68.7174 26.1615 68.4702 26.0956C68.256 26.0297 67.9429 25.9967 67.465 25.9967C66.9047 25.9967 66.4762 26.1945 66.1961 26.4911C65.9324 26.7877 65.817 27.1832 65.817 27.5458C65.817 27.9413 65.9818 28.2544 66.2125 28.4851C66.5586 28.8312 67.0365 29.029 67.4155 29.2432C67.5968 29.3421 67.7616 29.4575 67.8605 29.5563C67.9594 29.6717 68.0088 29.7706 68.0088 29.9189C68.0088 30.1331 67.9264 30.265 67.7946 30.3638C67.6627 30.4627 67.465 30.5122 67.2672 30.5122C67.0036 30.5122 66.8058 30.3638 66.674 30.2155C66.5256 30.0507 66.4432 29.8695 66.4432 29.853L66.4268 29.8365L66.229 29.5234L66.1631 29.4245H66.0972C65.9489 29.408 65.8005 29.5563 65.8005 29.6552L65.7676 29.9848H65.9653V29.9683Z" fill="#C3C9D0"/>
<path d="M71.6175 26.903C71.2879 26.903 71.2549 27.0019 71.2549 27.3644C71.2549 27.9906 71.2219 28.963 71.2219 29.6221C71.2219 30.1001 71.4032 30.3802 72.0294 30.3802C72.5238 30.3802 72.5238 30.2484 72.7381 30.2484L72.8699 30.3637C72.8699 30.4791 72.5238 30.8911 71.6834 30.8911C70.8099 30.8911 70.398 30.5615 70.398 29.6881C70.398 28.8806 70.4144 28.073 70.4144 27.1667C70.4144 27.0019 70.365 26.9689 70.1672 26.9689H69.9036L69.8047 26.87C69.8047 26.6887 70.365 26.5899 70.6616 26.2603C71.1066 25.7659 71.0077 25.5681 71.189 25.5681L71.3373 25.7824V26.2108C71.3373 26.3262 71.3703 26.3591 71.5186 26.3591H72.7875C72.9029 26.3591 73.0017 26.3921 73.0017 26.6228C73.0017 26.7711 72.9853 26.87 72.804 26.87H71.6175V26.903Z" fill="#C3C9D0"/>
<path d="M71.6172 26.903V26.7052C71.4524 26.7052 71.2711 26.7217 71.1558 26.8865C71.0569 27.0348 71.0734 27.1831 71.0569 27.3644C71.0569 27.9906 71.0239 28.963 71.0239 29.6221C71.0239 29.8858 71.0734 30.133 71.2547 30.3143C71.4359 30.4956 71.6996 30.578 72.0292 30.578C72.2929 30.578 72.4412 30.545 72.5401 30.5121L72.7378 30.4626V30.2649L72.606 30.4132L72.7378 30.5285L72.8697 30.3802H72.6884H72.7543L72.7049 30.3473V30.3802H72.7708L72.7214 30.3473C72.7049 30.4132 72.4082 30.7098 71.7161 30.7098C71.2876 30.7098 71.0239 30.6274 70.8756 30.4791C70.7108 30.3473 70.6284 30.1001 70.6284 29.6881C70.6284 28.8806 70.6614 28.073 70.6614 27.1667L70.5296 26.8535L70.2164 26.7711H70.0352L70.0022 26.7382L69.8539 26.87H70.0516H69.9692L70.0352 26.9195L70.0516 26.87H69.9692L70.0352 26.9195L70.0516 26.903C70.167 26.8041 70.579 26.6887 70.8427 26.3921C71.0734 26.1284 71.1723 25.9472 71.2382 25.8153L71.2711 25.7494L71.2876 25.7329L71.2217 25.6835L71.2547 25.7494L71.2876 25.7164L71.2217 25.667L71.2547 25.7329L71.2052 25.7164V25.7824H71.2382L71.2052 25.7164V25.7824V25.5846L71.0404 25.6835L71.1558 25.8648V26.2438L71.2547 26.5075L71.5348 26.5899H72.8038H72.8367L72.8532 26.5404L72.8202 26.5734L72.8532 26.5899L72.8697 26.5404L72.8367 26.5734V26.5899L72.8532 26.6723V26.7547V26.7711L72.9026 26.8041L72.8697 26.7547L72.8367 26.7876L72.8862 26.8206L72.8532 26.7711V26.7052H72.8202H71.6502V26.903V27.1007H72.8202L73.1498 26.9359L73.2157 26.6558L73.0839 26.2932L72.8038 26.1943H71.5348H71.4854L71.4689 26.2438L71.5019 26.1943L71.4854 26.1779L71.4689 26.2273L71.5019 26.1779L71.4524 26.2603L71.5513 26.2273L71.5019 26.1779L71.4524 26.2603L71.5513 26.2273V26.2108V25.7824V25.7329L71.3865 25.4692L71.3206 25.3868H71.2052L70.9745 25.4857L70.8262 25.7329C70.7767 25.8318 70.6943 25.9472 70.546 26.1284C70.4307 26.2603 70.2494 26.3591 70.0681 26.4415L69.8209 26.5734C69.7385 26.6228 69.6396 26.7052 69.6396 26.8535V26.9359L69.788 27.0843L69.8539 27.1337H70.2H70.2988H70.3153L70.3318 27.0843L70.2988 27.1172H70.3153L70.3318 27.0678L70.2988 27.1007L70.3318 27.0348L70.2494 27.0513L70.2824 27.0843L70.3153 27.0183L70.2329 27.0348L70.2494 27.0843C70.2494 27.9906 70.2164 28.7982 70.2164 29.6057C70.2164 30.0671 70.3318 30.4297 70.5955 30.6769C70.8591 30.924 71.2382 31.0064 71.6996 31.0064C72.161 31.0064 72.4906 30.8911 72.7214 30.7593L72.985 30.545L73.1004 30.2813V30.1989L72.9026 30.0177L72.8367 29.9682H72.7543C72.606 29.9682 72.5071 30.0177 72.4247 30.0341C72.3423 30.0671 72.2599 30.0836 72.0292 30.0836C71.749 30.0836 71.6007 30.0177 71.5348 29.9517C71.4689 29.8693 71.4195 29.7375 71.4195 29.5233C71.4195 28.8806 71.4524 27.9082 71.4524 27.2655V27.0678L71.4689 27.0183L71.6172 27.0019V26.903Z" fill="#C3C9D0"/>
<path d="M77.6321 25.255L77.5991 25.4033C77.5991 25.5517 80.961 25.6505 80.961 28.1719C80.961 30.611 78.1924 31.4349 77.3849 31.4349C77.1871 31.4349 77.1377 31.369 77.1377 31.3031L77.2531 31.1548C77.3519 31.1383 77.5826 31.1054 77.8793 31.0065C79.0988 30.6274 80.17 29.787 80.17 28.3862C80.17 27.5952 79.9557 27.0678 78.9669 26.5899C77.9617 26.1285 77.1377 26.0131 77.1377 25.8483C77.1377 25.6835 77.5826 24.4146 77.6321 24.2333C77.6815 24.0685 77.731 24.052 78.143 24.0026L80.0711 23.8048C80.2194 23.7883 80.2688 23.7554 80.3348 23.7554C80.4831 23.7554 80.549 23.7719 80.549 23.9366C80.549 24.085 80.549 24.431 80.2853 24.464L77.8958 24.8101C77.7474 24.8266 77.731 24.909 77.7145 24.9749L77.6321 25.255Z" fill="#C3C9D0"/>
<path d="M77.6327 25.255L77.4349 25.2221L77.4185 25.3704V25.3869V25.4034L77.5009 25.5681L77.781 25.667C78.16 25.7494 78.9181 25.8813 79.5773 26.2603C80.2365 26.6393 80.7803 27.1832 80.7803 28.172C80.7803 29.3091 80.1376 30.0671 79.3795 30.5615C78.6215 31.0394 77.7481 31.2537 77.3855 31.2372H77.3031H77.2866L77.2537 31.3031L77.3031 31.2702L77.2701 31.2537L77.2372 31.3196L77.2866 31.2866L77.2207 31.3361H77.3196L77.3031 31.2866L77.2372 31.3361H77.3361H77.1383L77.2866 31.4514L77.402 31.3031L77.2537 31.1878L77.2866 31.3855C77.3855 31.369 77.6327 31.3196 77.9293 31.2207C79.1983 30.8417 80.3518 29.9188 80.3518 28.4191C80.3518 28.0072 80.3024 27.6281 80.1047 27.2985C79.9069 26.9689 79.5608 26.6888 79.05 26.4416C78.5391 26.2109 78.0612 26.0461 77.7316 25.9472C77.5668 25.8977 77.4349 25.8483 77.3525 25.8153L77.2866 25.7824L77.2537 25.8318L77.3031 25.7989L77.2866 25.7824L77.2537 25.8318L77.3031 25.7989L77.1877 25.8648H77.3196L77.3031 25.7989L77.1877 25.8648H77.3196H77.3031H77.3361C77.3525 25.7989 77.4514 25.4198 77.5668 25.0902C77.6821 24.7442 77.7975 24.3981 77.8305 24.2992L77.8469 24.2662L77.814 24.2498L77.8305 24.2662L77.8469 24.2498L77.814 24.2333L77.8305 24.2498C77.8305 24.2498 77.9458 24.2168 78.1765 24.2003L80.1047 24.0026H80.1211C80.2859 23.9861 80.3189 23.9696 80.3683 23.9696H80.4342L80.4672 23.8872L80.3848 23.9367L80.4342 23.9861L80.4672 23.9037L80.3848 23.9531L80.4178 23.9367H80.3848V23.9531L80.4178 23.9367H80.3848V23.9696L80.3683 24.2168L80.2859 24.3157L77.8964 24.6453L77.6327 24.7771L77.5503 24.9584L77.7481 25.0078L77.5668 24.9419L77.4679 25.2056V25.2221V25.2386L77.6327 25.255L77.814 25.321L77.9129 25.0573L77.9293 25.0078L77.8799 24.9749L77.9129 25.0243L77.9293 25.0078L77.8799 24.9749L77.9129 25.0243L77.9458 25.0078L80.3189 24.6782C80.5496 24.6453 80.6814 24.464 80.7144 24.3157C80.7638 24.1674 80.7638 24.0355 80.7638 23.9531L80.632 23.6565L80.3518 23.5906C80.2365 23.5906 80.2035 23.6071 80.0552 23.6235L80.0882 23.8213L80.0717 23.6235L78.1436 23.8213C77.9458 23.8378 77.814 23.8543 77.6986 23.9037L77.4679 24.1838L77.6492 24.2333L77.4679 24.1674C77.4349 24.2498 77.3031 24.6288 77.1877 24.9914C77.1218 25.1726 77.0724 25.3539 77.0229 25.5022C76.99 25.6505 76.957 25.7494 76.957 25.8483L77.0724 26.0625C77.2372 26.1779 77.4514 26.2273 77.7645 26.3262C78.0776 26.4251 78.4896 26.5569 78.9016 26.7547C79.3795 26.9689 79.6432 27.1996 79.7915 27.4468C79.9399 27.694 79.9893 27.9907 79.9893 28.3697C79.9893 29.6551 79.017 30.4462 77.8305 30.8087C77.5338 30.9076 77.3361 30.9406 77.2207 30.957L77.1548 30.9735L76.99 31.1878L76.957 31.2372V31.3031L77.1053 31.5668L77.402 31.6327C77.8634 31.6327 78.7698 31.4185 79.5938 30.8746C80.4178 30.3473 81.1758 29.4574 81.1594 28.1555C81.1594 26.7877 80.2365 26.0625 79.3631 25.7C78.9181 25.5187 78.4896 25.4034 78.1601 25.3374C78.0117 25.288 77.8634 25.2715 77.781 25.255L77.6986 25.2386L77.6657 25.3045L77.7151 25.2386L77.6986 25.2221L77.6657 25.288L77.7151 25.2221L77.6327 25.3869H77.7975L77.7316 25.2386L77.6327 25.3869H77.7975H77.5997L77.7975 25.4198L77.814 25.2715L77.6327 25.255Z" fill="#C3C9D0"/>
<path d="M86.5633 27.3975C86.5633 25.8155 86.1019 24.0027 85.0307 24.0027C83.943 24.0027 83.4816 25.8155 83.4816 27.3975C83.4816 28.9796 83.9265 30.7924 85.0307 30.7924C86.1019 30.7759 86.5633 28.9631 86.5633 27.3975ZM82.5752 27.3975C82.5752 24.9915 83.8277 23.772 85.0307 23.772C86.4479 23.772 87.4697 25.2881 87.4697 27.3975C87.4697 29.7047 86.2172 31.0231 85.0307 31.0231C83.6134 31.0066 82.5752 29.7047 82.5752 27.3975Z" fill="#C3C9D0"/>
<path d="M86.5637 27.3974H86.7614C86.7614 26.5899 86.646 25.7329 86.3824 25.0408C86.1352 24.3651 85.6902 23.8213 85.031 23.8213C84.3554 23.8213 83.9269 24.3816 83.6632 25.0408C83.3995 25.7329 83.2842 26.5899 83.2842 27.3974C83.2842 28.2049 83.3995 29.0783 83.6632 29.754C83.9104 30.4297 84.3554 30.9735 85.031 30.9735C85.6902 30.9735 86.1352 30.4297 86.3824 29.754C86.646 29.0783 86.7614 28.2049 86.7614 27.3974H86.5637H86.3659C86.3659 28.172 86.2505 28.9959 86.0198 29.6057C85.7726 30.2319 85.443 30.5945 85.031 30.5945C84.6026 30.5945 84.273 30.2484 84.0258 29.6222C83.7951 29.0124 83.6797 28.172 83.6797 27.4139C83.6797 26.6393 83.7951 25.8153 84.0258 25.2056C84.273 24.5794 84.6026 24.2168 85.031 24.2168C85.443 24.2168 85.7891 24.5629 86.0198 25.2056C86.2505 25.8153 86.3659 26.6558 86.3659 27.4139H86.5637V27.3974ZM82.5756 27.3974H82.7733C82.7733 25.0573 83.9763 23.9696 85.031 23.9696C85.6573 23.9696 86.2176 24.2992 86.6296 24.909C87.0416 25.5187 87.2888 26.3757 87.2888 27.3974C87.2888 28.518 86.9921 29.375 86.5472 29.9518C86.1187 30.5286 85.5584 30.8252 85.031 30.8252C84.3883 30.8252 83.828 30.5286 83.4325 29.9682C83.0205 29.3915 82.7733 28.518 82.7733 27.3974H82.5756H82.3778C82.3778 28.584 82.6415 29.5233 83.1029 30.1825C83.5643 30.8417 84.2565 31.2042 85.0146 31.2042C86.3659 31.1878 87.6513 29.754 87.6513 27.3974C87.6513 26.3097 87.3876 25.3704 86.9262 24.6782C86.4648 23.9861 85.7891 23.5741 85.0146 23.5741C84.3554 23.5741 83.6797 23.9202 83.1853 24.5629C82.6909 25.2056 82.3613 26.1614 82.3613 27.3974H82.5756Z" fill="#C3C9D0"/>
<path d="M92.4137 27.3975C92.4137 25.8155 91.9523 24.0027 90.8646 24.0027C89.777 24.0027 89.3156 25.8155 89.3156 27.3975C89.3156 28.9796 89.777 30.7924 90.8646 30.7924C91.9523 30.7759 92.4137 28.9631 92.4137 27.3975ZM88.4092 27.3975C88.4092 24.9915 89.6616 23.772 90.8646 23.772C92.2819 23.772 93.3201 25.2881 93.3201 27.3975C93.3201 29.7047 92.0677 31.0231 90.8646 31.0231C89.4474 31.0066 88.4092 29.7047 88.4092 27.3975Z" fill="#C3C9D0"/>
<path d="M92.4141 27.3974H92.5954C92.5954 26.5899 92.48 25.7329 92.2164 25.0408C91.9692 24.3651 91.5242 23.8213 90.865 23.8213C90.1894 23.8213 89.7609 24.3816 89.5137 25.0408C89.25 25.7329 89.1347 26.5899 89.1347 27.3974C89.1347 28.2049 89.25 29.0783 89.5137 29.754C89.7609 30.4297 90.2058 30.9735 90.865 30.9735C91.5407 30.9735 91.9692 30.4297 92.2164 29.754C92.48 29.0783 92.5954 28.2049 92.5954 27.3974H92.4141H92.2164C92.2164 28.172 92.101 28.9959 91.8703 29.6057C91.6231 30.2319 91.2935 30.5945 90.865 30.578C90.453 30.578 90.107 30.2154 89.8598 29.6057C89.6291 28.9959 89.5137 28.1555 89.5137 27.3974C89.5137 26.6229 89.6291 25.7989 89.8598 25.1891C90.107 24.5629 90.4366 24.2003 90.865 24.2003C91.277 24.2003 91.6231 24.5464 91.8703 25.1891C92.101 25.7989 92.2164 26.6393 92.2164 27.3974H92.4141ZM88.4096 27.3974H88.5908C88.6073 25.0573 89.8103 23.9696 90.8485 23.9696C91.4748 23.9696 92.0351 24.2992 92.4471 24.909C92.8591 25.5187 93.1063 26.3757 93.1063 27.3974C93.1063 28.518 92.8096 29.375 92.3647 29.9518C91.9362 30.5286 91.3759 30.8252 90.8485 30.8252C90.2058 30.8252 89.6455 30.5286 89.25 29.9682C88.838 29.3915 88.5908 28.518 88.5908 27.3974H88.4096H88.2118C88.2118 28.584 88.4755 29.5233 88.9369 30.1825C89.3983 30.8417 90.0905 31.2042 90.8485 31.2042C92.1999 31.1878 93.4853 29.754 93.5018 27.3974C93.5018 26.3097 93.2381 25.3704 92.7767 24.6782C92.3152 23.9861 91.6396 23.5741 90.8485 23.5741C90.1894 23.5741 89.5137 23.9202 89.0193 24.5629C88.5249 25.2056 88.1953 26.1614 88.1953 27.3974H88.4096Z" fill="#C3C9D0"/>
<path d="M95.6117 24.1017H95.76L95.9248 23.9369C95.9743 23.9369 95.9743 24.0522 95.9743 24.2006C95.9743 24.3654 95.9743 24.5631 95.9084 24.5631L95.793 24.3324C95.7765 24.2994 95.6282 24.2335 95.2492 24.2335C95.1008 24.2335 95.0844 24.25 95.0844 24.4642V25.9639C95.0844 26.1452 95.1338 26.1617 95.2986 26.1946L95.4964 26.2605L95.414 26.31C95.2986 26.31 95.1008 26.2935 94.936 26.2935C94.7877 26.2935 94.6065 26.31 94.4087 26.31L94.3428 26.277L94.557 26.1946C94.7218 26.1617 94.7548 26.1122 94.7548 25.8815V24.3983C94.7548 24.25 94.7218 24.2335 94.4252 24.2335C94.0791 24.2335 93.9473 24.5961 93.8649 24.5961L93.8154 24.5466L93.9637 24.1017L94.0626 23.9369L94.1945 24.0852C94.3757 24.1017 94.557 24.1182 94.7383 24.1182H95.6117V24.1017Z" fill="#C3C9D0"/>
<path d="M95.6122 24.1016L95.6287 24.2993H95.777H95.8594L96.0901 24.0851L95.9583 23.9533V24.151V23.9862L95.8264 24.0686L95.9583 24.1345V23.9697L95.8264 24.0521L95.8759 24.0192L95.81 24.0357L95.8264 24.0521L95.8759 24.0192L95.81 24.0357V24.2004L95.7935 24.4312V24.4641L95.8924 24.5136L95.81 24.4312L95.777 24.4641L95.8759 24.5136L95.7935 24.4312L95.9088 24.5465V24.3817L95.7935 24.4312L95.9088 24.5465V24.3817V24.5795L96.0736 24.4971L95.9583 24.2664V24.2499L95.7111 24.1016C95.6122 24.0851 95.4639 24.0521 95.2661 24.0521L94.9695 24.151L94.9036 24.4806V25.9803L95.0025 26.2934L95.2826 26.4087L95.3156 26.211L95.2497 26.3923L95.4474 26.4582L95.5133 26.2769L95.4145 26.1121L95.3321 26.1615L95.4309 26.3263V26.1286C95.3321 26.1286 95.1343 26.1121 94.953 26.1121C94.7882 26.1121 94.6069 26.1286 94.4257 26.1286V26.3263L94.5245 26.1615L94.4586 26.1286L94.3598 26.2934L94.4257 26.4747L94.6399 26.3923L94.574 26.211L94.6069 26.3923L94.9036 26.2275L94.986 25.8979V24.4147L94.9695 24.2664L94.7388 24.0686L94.4586 24.0521C94.2114 24.0521 94.0466 24.184 93.9478 24.2993L93.8324 24.4312L93.8159 24.4476L93.8983 24.563V24.3982L93.8159 24.4312L93.8983 24.5465V24.3982V24.596L94.0466 24.4641L94.0137 24.4147L93.8654 24.5465L94.0466 24.6124L94.195 24.184L94.2774 24.0357L94.1126 23.9368L93.9642 24.0686L94.1126 24.2169L94.162 24.2664H94.2279C94.4257 24.2829 94.6069 24.2993 94.8047 24.2993H95.6287L95.6122 24.1016V23.9038H94.7882C94.6069 23.9038 94.4257 23.9038 94.2609 23.8873L94.2279 24.0851L94.3762 23.9533L94.2279 23.8049L94.0631 23.6237L93.8324 24.0027L93.8159 24.0192L93.6511 24.4971L93.6182 24.596L93.7335 24.7278L93.7994 24.7937H93.8818C94.0466 24.7608 94.0631 24.6948 94.0961 24.6619L94.4421 24.4147H94.6069H94.6399L94.6729 24.2993L94.574 24.3323L94.6399 24.3982L94.6729 24.2828L94.574 24.3158L94.6069 24.2993H94.574V24.3158L94.6069 24.2993H94.574V24.3488V25.832V25.9308V25.9473L94.6069 25.9638L94.5905 25.9308L94.574 25.9473L94.6069 25.9638L94.5905 25.9308L94.5245 25.9473H94.5081L94.2774 26.0297L93.8983 26.178L94.3268 26.4087L94.3762 26.4417H94.4257C94.6234 26.4417 94.8047 26.4252 94.953 26.4252C95.1013 26.4252 95.3156 26.4417 95.4309 26.4417H95.4804L95.6122 26.3593L95.9748 26.1451L95.3815 25.9473H95.365H95.3485L95.2826 25.9308L95.2497 25.9967L95.3156 25.9638L95.2826 25.9308L95.2497 25.9967L95.3156 25.9638V25.9144V24.4147V24.3158V24.2993L95.2002 24.2664L95.2332 24.3652L95.2991 24.2993L95.1837 24.2664L95.2167 24.3652H95.2332H95.2826C95.4639 24.3652 95.5792 24.3817 95.6452 24.3982L95.6946 24.4147L95.744 24.3323L95.6617 24.3817L95.6946 24.4147L95.744 24.3323L95.6617 24.3817L95.8264 24.2664L95.6617 24.3488L95.777 24.5795L95.8264 24.6948H95.9583L96.1725 24.5465C96.222 24.3982 96.222 24.2664 96.222 24.1345L96.2055 23.9038L96.1725 23.772L95.9748 23.6566H95.8924L95.7276 23.8214H95.6452L95.6122 24.1016Z" fill="#C3C9D0"/>
<path d="M97.0623 25.2056L96.7162 24.497C96.6832 24.497 96.6832 24.8595 96.6832 25.0573V26.0625L96.8975 26.1779C97.0458 26.2108 97.0952 26.2109 97.0952 26.2438L96.9964 26.2933L96.5844 26.2768L96.1724 26.2933L96.1064 26.2438L96.2218 26.1779C96.3701 26.1614 96.469 26.112 96.469 26.0461L96.5844 24.4475V24.2827C96.5844 24.2003 96.5514 24.2003 96.3536 24.1344L96.1888 24.0685L96.2877 24.019L96.5349 24.0355L96.8316 24.019L96.8975 24.052L97.6226 25.6505L97.6555 25.667L97.6885 25.6505L98.3477 24.1674L98.4631 24.019L98.7597 24.0355L99.0563 24.019L99.1058 24.0685L98.9245 24.1509C98.7102 24.1838 98.6608 24.1838 98.6608 24.4475V25.9801C98.6608 26.1285 98.7102 26.1614 98.941 26.1944L99.0728 26.2603L98.908 26.3097C98.7432 26.3097 98.6773 26.2933 98.5949 26.2933C98.4136 26.2933 98.2488 26.3097 98.1005 26.3097L98.0016 26.2438L98.1335 26.1944C98.2983 26.1614 98.3312 26.1449 98.3312 26.0461V24.7112L98.2983 24.6123L98.2653 24.6288L97.5896 26.2109L97.5402 26.2438L97.3919 26.0131L97.0623 25.2056Z" fill="#C3C9D0"/>
<path d="M97.0624 25.2057L97.2437 25.1233L96.9141 24.4147L96.8482 24.2993H96.7328L96.568 24.3982L96.535 24.563C96.5186 24.6948 96.5186 24.9091 96.5186 25.0574V26.0627V26.178L96.8317 26.3593L96.8646 26.3758H96.8976L97.0459 26.3923L97.0789 26.2934L97.013 26.3758L97.0624 26.4087L97.0954 26.3099L97.0294 26.3923L97.1448 26.2769H96.98L97.0294 26.3923L97.1448 26.2769H96.98H97.1778L97.0954 26.0956L97.0294 26.1286L96.6669 26.1121H96.6504L96.2879 26.1286L96.2714 26.1121L96.156 26.2769L96.2549 26.4417L96.3703 26.3758L96.2714 26.211L96.2879 26.4087L96.535 26.3428L96.6998 26.0956H96.5021L96.6998 26.1121L96.8317 24.5136V24.4971V24.3323L96.6834 24.0851L96.4526 24.0027L96.4032 24.184L96.4856 24.0027L96.3208 23.9368L96.2384 24.118L96.3373 24.2828L96.3867 24.2664H96.601H96.8482H96.8646L96.9635 24.1016L96.7822 24.184L97.5403 25.8319L97.6227 25.8814L97.7381 25.9473L97.8699 25.8319L97.9029 25.799L98.5785 24.2993L98.6115 24.2499H98.8092H99.1224V24.0521L98.9905 24.2004L99.04 24.2499L99.1718 24.118L99.0894 23.9368L98.9246 24.0192L98.9905 24.2004L98.9576 24.0027L98.6444 24.118L98.5291 24.4806V26.0132L98.6609 26.3099L98.974 26.4252L99.007 26.2275L98.9081 26.3923L99.04 26.4582L99.1388 26.2934L99.0894 26.1121L98.9246 26.1615L98.974 26.3428V26.1451C98.8257 26.1451 98.7763 26.1286 98.6609 26.1286C98.4796 26.1286 98.2984 26.1451 98.1665 26.1451V26.3428L98.2654 26.178L98.1665 26.1121L98.0512 26.2769L98.1171 26.4582L98.2654 26.4087L98.1995 26.2275L98.2325 26.4252L98.4632 26.3428L98.562 26.1945L98.5785 26.0791V24.7443V24.7113L98.5456 24.596L98.4632 24.3323L98.216 24.5136L98.1665 24.5465L97.4579 26.178L97.6392 26.2604L97.5403 26.0956L97.4909 26.1286L97.5897 26.2934L97.7545 26.1945L97.6062 25.9803L97.2766 25.2057V25.1892L97.0624 25.2057L96.8811 25.2881L97.2107 26.0791V26.0956L97.3755 26.3428L97.4744 26.4911L97.6886 26.3758L97.7381 26.3428L98.4467 24.7113L98.2654 24.6289L98.3808 24.7772L98.4137 24.7608L98.2819 24.6124L98.1006 24.6784L98.1171 24.7443V26.0627V26.0791H98.1995L98.1171 26.0297L98.1006 26.0627H98.183L98.1006 26.0132L98.216 26.0791L98.1336 25.9803L98.1006 26.0297L98.216 26.0956L98.1336 25.9967L98.183 26.0462L98.1501 25.9803H98.1336L98.183 26.0297L98.1501 25.9638L98.0512 25.9803H98.0347L97.8864 26.0462L97.5403 26.178L97.9523 26.4417L98.0017 26.4747H98.0677C98.216 26.4747 98.3973 26.4582 98.562 26.4582C98.6115 26.4582 98.6939 26.4747 98.8752 26.4747H98.9081L99.1059 26.4252L99.5673 26.2934L99.007 25.9967L98.974 25.9803H98.9411L98.8257 25.9473L98.7928 25.9308L98.7598 25.9967L98.8257 25.9803L98.8092 25.9473L98.7763 26.0132L98.8422 25.9967L98.8257 26.0132H98.8422L98.8257 26.0297H98.8422V25.9967V24.4641V24.3652L98.7763 24.3323L98.8257 24.3817L98.8422 24.3652L98.7763 24.3323L98.8257 24.3817L98.7928 24.3488L98.8257 24.3982L98.8422 24.3817L98.8092 24.3488L98.8422 24.3982L98.974 24.3652H98.9905L99.1883 24.2828L99.452 24.1675L99.2048 23.9368L99.1388 23.8708L98.7598 23.8873L98.4632 23.8708H98.3643L98.1995 24.0851L98.183 24.1016L97.5073 25.6012L97.6886 25.6836L97.5733 25.5353L97.5403 25.5518L97.6721 25.7001L97.771 25.5353L97.7381 25.5188L97.6227 25.6836L97.804 25.6012L97.0459 23.9368L96.9141 23.8708L96.8646 23.8379L96.535 23.8544L96.2879 23.8379H96.2384L96.1066 23.9038L95.744 24.1016L96.2879 24.3323H96.3043H96.3208L96.4362 24.3652H96.4691L96.5186 24.2664L96.4362 24.3158L96.4691 24.3488L96.5186 24.2499L96.4362 24.2993L96.535 24.2334L96.4197 24.2499L96.4362 24.2993L96.535 24.2334L96.4197 24.2499V24.4147L96.2879 26.0132H96.4197L96.3208 25.9308L96.2879 26.0132H96.4197L96.3208 25.9308L96.3538 25.9638L96.3208 25.9143L96.3043 25.9308L96.3373 25.9638L96.3043 25.9143L96.2055 25.9473H96.1725L96.0077 26.0297L95.7275 26.1945L96.0571 26.4087L96.1066 26.4417L96.568 26.4252L96.98 26.4417H97.0294L97.1778 26.3758L97.2931 26.3263V26.1945L97.2272 26.0297C97.0789 25.9308 97.0459 25.9638 96.9306 25.9473L96.8976 26.1286L96.9965 25.9638L96.8811 25.8979V25.0574V24.7113L96.8976 24.5795V24.563L96.7493 24.53L96.8811 24.596L96.8976 24.563L96.7493 24.53L96.8811 24.596L96.7163 24.4971V24.6784L96.8811 24.5795L96.7163 24.4806V24.6619V24.4641L96.5515 24.5465L96.8976 25.2387L97.0624 25.2057Z" fill="#C3C9D0"/>
</svg>
