<svg width="238" height="55" viewBox="0 0 238 55" fill="none" xmlns="http://www.w3.org/2000/svg">
<path d="M41.7954 22.9745H49.7763C56.1999 22.9745 60.677 27.3542 60.677 32.9992V33.0966C60.677 38.7416 56.2972 43.1213 49.7763 43.1213H41.7954V22.9745ZM49.7763 39.0335C53.4747 39.0335 55.9079 36.6003 55.9079 33.0966V32.9992C55.9079 29.4954 53.4747 26.9649 49.7763 26.9649H46.3698V39.0335H49.7763Z" fill="white"/>
<path d="M64.5701 22.9745H80.0452V26.8676H69.1445V30.9553H78.7799V34.8485H69.1445V39.0335H80.2398V42.9266H64.6674L64.5701 22.9745Z" fill="white"/>
<path d="M82.7703 40.1041L85.4955 36.9897C87.3447 38.4496 89.2913 39.4228 91.6271 39.4228C93.4764 39.4228 94.547 38.6442 94.547 37.5736V37.4763C94.547 36.3084 93.7683 35.7244 90.4592 34.9458C86.3714 33.8752 83.6463 32.8046 83.6463 28.8141V28.7168C83.6463 25.1157 86.5661 22.6825 90.8485 22.6825C93.7683 22.6825 96.3962 23.5584 98.4401 25.213L96.1042 28.6195C94.3523 27.3542 92.5031 26.6729 90.7512 26.6729C88.9993 26.6729 88.1233 27.4515 88.1233 28.4248V28.3275C88.1233 29.5928 88.9993 30.0794 92.5031 30.9553C96.6882 32.0259 98.9267 33.4859 98.9267 36.8923V36.9897C98.9267 40.9801 95.8122 43.2186 91.4325 43.2186C88.318 43.2186 85.2035 42.148 82.7703 40.1041Z" fill="white"/>
<path d="M103.015 22.9745H107.492V43.024H103.015V22.9745Z" fill="white"/>
<path d="M111.774 32.9991C111.774 27.2568 116.251 22.5851 122.48 22.5851C126.178 22.5851 128.32 23.5584 130.461 25.4076L127.638 28.8141C126.081 27.5488 124.719 26.7702 122.285 26.7702C118.976 26.7702 116.446 29.5927 116.446 32.9991V33.0965C116.446 36.7949 118.976 39.5201 122.675 39.5201C124.329 39.5201 125.789 39.1308 126.957 38.2548V35.4323H122.383V31.6366H131.24V40.2987C129.098 42.0506 126.276 43.5105 122.48 43.5105C116.056 43.2185 111.774 38.9361 111.774 32.9991Z" fill="white"/>
<path d="M135.522 22.9745H139.707L149.245 35.2378V22.9745H153.625V43.024H149.829L139.902 30.2741V43.024H135.522V22.9745Z" fill="white"/>
<path d="M158.588 22.9745H167.932C170.56 22.9745 172.506 23.7531 173.869 25.0184C175.037 26.1863 175.621 27.7435 175.621 29.5928V29.6901C175.621 32.9019 173.869 34.9458 171.241 35.9191L176.205 43.024H170.949L166.569 36.6003H166.472H162.968V43.024H158.394V22.9745H158.588ZM167.64 32.6099C169.878 32.6099 171.046 31.442 171.046 29.7874V29.6901C171.046 27.8409 169.781 26.8676 167.542 26.8676H163.065V32.6099H167.64Z" fill="url(#paint0_linear_2754_8703)"/>
<path d="M179.416 34.3616V22.877H183.894V34.167C183.894 37.4761 185.548 39.0334 188.273 39.0334C190.998 39.0334 192.653 37.3788 192.653 34.167V22.7797H197.13V34.0697C197.13 40.104 193.626 43.1211 188.176 43.1211C182.726 43.1211 179.416 40.2013 179.416 34.3616Z" fill="url(#paint1_linear_2754_8703)"/>
<path d="M200.342 40.1041L203.067 36.9897C204.916 38.4496 206.863 39.4228 209.199 39.4228C211.048 39.4228 212.119 38.6442 212.119 37.5736V37.4763C212.119 36.3084 211.34 35.7244 208.031 34.9458C203.943 33.8752 201.218 32.8046 201.218 28.8141V28.7168C201.218 25.1157 204.138 22.6825 208.42 22.6825C211.34 22.6825 213.968 23.5584 216.012 25.213L213.676 28.6195C211.924 27.3542 210.075 26.6729 208.323 26.6729C206.571 26.6729 205.695 27.4515 205.695 28.4248V28.3275C205.695 29.5928 206.571 30.0794 210.075 30.9553C214.26 32.0259 216.498 33.4859 216.498 36.8923V36.9897C216.498 40.9801 213.384 43.2186 209.004 43.2186C205.987 43.2186 202.775 42.148 200.342 40.1041Z" fill="url(#paint2_linear_2754_8703)"/>
<path d="M220.391 22.9745H224.868V30.9553H233.141V22.9745H237.618V43.024H233.141V35.0431H224.868V43.024H220.391V22.9745Z" fill="url(#paint3_linear_2754_8703)"/>
<path d="M16.1009 34.2644C16.0036 34.167 16.0036 34.2644 16.1009 34.2644L15.6142 33.9724L15.5169 33.8751L4.03226 25.6995C4.03226 25.6995 3.93494 25.6995 3.93494 25.6022L3.74028 25.4076L3.64295 25.3102H3.4483L0.13916 22.9744L6.66011 23.9476C6.95209 23.9476 7.04942 24.045 7.3414 24.1423C7.43873 24.1423 7.63338 24.2396 7.63338 24.2396C7.92537 24.337 8.0227 24.4343 8.21735 24.5316C8.41201 24.6289 8.50933 24.7263 8.70399 24.8236C8.80132 24.9209 8.99597 25.0182 8.99597 25.1156C9.0933 25.2129 9.19063 25.2129 9.28795 25.3102C9.48261 25.4076 9.57994 25.5049 9.57994 25.6022C9.87192 25.8942 10.0666 26.1862 10.3586 26.3808L15.5169 33.6804L15.6142 33.7777L16.1009 34.2644Z" fill="#2AD2FF"/>
<path d="M16.1008 45.5544L15.6142 44.7757L15.5169 44.6784L0.23645 22.9744L3.54559 25.3102L4.12955 25.6995L15.6142 33.8751H15.7115L16.1008 34.167C16.1008 34.167 16.1982 34.167 16.1982 34.2644L16.6848 33.8751L32.1599 22.9744L16.5875 44.7757L16.4902 44.8731L16.1008 45.5544Z" fill="url(#paint4_linear_2754_8703)"/>
<path d="M16.1008 30.5659L15.6142 29.7873L15.5169 29.6899L11.7211 24.4342L15.5169 25.2129H15.6142L16.1008 25.3102L16.5875 25.2129L20.2859 24.3369L16.5875 29.7873V29.8846L16.1008 30.5659Z" fill="#2AD2FF"/>
<path d="M32.2572 22.877L27.3908 23.5582L25.5416 23.8502C24.0817 24.0449 22.7191 24.8235 21.8431 26.0888L16.6848 33.4857L16.5874 33.583L16.1008 34.2643L16.6848 33.6803L16.7821 33.583L16.1008 34.2643L29.24 24.9208L32.2572 22.877Z" fill="#2AD2FF"/>
<path d="M18.534 7.49922C18.534 11.7816 11.1371 14.0202 11.1371 18.5946C11.0398 19.6652 11.3318 20.7358 11.8184 21.7091C11.8184 21.7091 8.99591 18.9839 8.99591 16.0641C8.99591 13.1442 11.7211 8.76448 11.7211 8.76448C11.7211 10.711 12.4997 11.295 13.2783 11.3923H13.3757C14.2516 11.3923 14.7382 10.711 14.7382 9.73776C14.7382 8.76448 13.6676 7.7912 13.6676 5.84465C13.6676 3.99543 16.0035 0.978271 16.0035 0.978271C17.6581 2.92482 18.534 5.16336 18.534 7.49922Z" fill="#2AF4FF"/>
<path d="M16.4901 23.0717C14.1543 23.0717 12.4024 21.2225 12.4024 18.984V18.8867C12.4024 13.9229 19.3126 13.4363 19.3126 6.7207C19.5073 7.01269 21.3565 9.5432 21.3565 12.2684C21.3565 15.6748 18.1447 16.5508 18.1447 18.2054C18.1447 18.8867 18.4367 19.3733 19.41 19.3733C19.5073 19.3733 19.6046 19.3733 19.7019 19.276C21.5512 18.4973 22.8164 16.7454 22.9138 14.7016C22.9138 14.7989 23.887 23.0717 16.4901 23.0717Z" fill="#2AF4FF"/>
<path d="M19.5074 19.3733C19.6047 19.3733 19.702 19.3733 19.7993 19.276C18.8261 19.5679 15.2249 20.4439 15.2249 17.9134C15.2249 14.7989 20.578 14.1176 20.578 11.4898C20.578 9.83519 20.1887 8.18062 19.3127 6.7207C19.5074 7.01269 21.3566 9.5432 21.3566 12.2684C21.3566 15.6748 18.1448 16.5508 18.1448 18.2054C18.2421 18.8867 18.6314 19.3733 19.5074 19.3733Z" fill="#2AD2FF"/>
<path d="M16.5875 9.25112C16.5875 11.6843 13.473 11.4897 13.2784 11.3923H13.5704C14.4463 11.3923 14.933 10.711 14.933 9.73775C14.933 8.76448 13.8623 7.7912 13.8623 5.84465C13.8623 3.99543 16.1982 0.978271 16.1982 0.978271C15.4196 2.24353 15.0303 3.60612 14.933 4.9687C14.933 7.20724 16.5875 7.40189 16.5875 9.25112Z" fill="#2AD2FF"/>
<path d="M14.6411 51.7832L12.4998 50.3233H15.1277L16.0036 47.6954L16.7823 50.3233H19.4101L17.2689 51.7832L18.0475 54.3137L15.9063 52.7565L13.6678 54.3137L14.6411 51.7832Z" fill="#2AD2FF"/>
<path d="M25.8337 51.7832L23.6925 50.3233H26.3203L27.1963 47.6954L27.9749 50.3233H30.6028L28.4616 51.7832L29.2402 54.3137L27.099 52.7565L24.8604 54.3137L25.8337 51.7832Z" fill="#2AD2FF"/>
<path d="M3.54569 51.7832L1.40448 50.3233H4.03233L4.90827 47.6954L5.68689 50.3233H8.31474L6.17353 51.7832L6.95215 54.3137L4.81095 52.7565L2.66974 54.3137L3.54569 51.7832Z" fill="#2AD2FF"/>
<defs>
<linearGradient id="paint0_linear_2754_8703" x1="156.505" y1="0.881124" x2="238.455" y2="0.881124" gradientUnits="userSpaceOnUse">
<stop offset="0.73" stop-color="#2AF4FF"/>
<stop offset="0.884" stop-color="#2AF4FF"/>
</linearGradient>
<linearGradient id="paint1_linear_2754_8703" x1="156.506" y1="0.880949" x2="238.455" y2="0.880949" gradientUnits="userSpaceOnUse">
<stop offset="0.73" stop-color="#2AF4FF"/>
<stop offset="0.884" stop-color="#2AF4FF"/>
</linearGradient>
<linearGradient id="paint2_linear_2754_8703" x1="156.505" y1="0.881114" x2="238.455" y2="0.881114" gradientUnits="userSpaceOnUse">
<stop offset="0.73" stop-color="#2AF4FF"/>
<stop offset="0.884" stop-color="#2AF4FF"/>
</linearGradient>
<linearGradient id="paint3_linear_2754_8703" x1="156.505" y1="0.881124" x2="238.455" y2="0.881124" gradientUnits="userSpaceOnUse">
<stop offset="0.73" stop-color="#2AF4FF"/>
<stop offset="0.884" stop-color="#2AF4FF"/>
</linearGradient>
<linearGradient id="paint4_linear_2754_8703" x1="0.139123" y1="45.5952" x2="0.139123" y2="33.6493" gradientUnits="userSpaceOnUse">
<stop offset="0.73" stop-color="#2AF4FF"/>
<stop offset="0.884" stop-color="#2AF4FF"/>
</linearGradient>
</defs>
</svg>
