<svg width="139" height="33" viewBox="0 0 139 33" fill="none" xmlns="http://www.w3.org/2000/svg">
<path d="M12.8144 25.7323C14.7493 25.7323 16.2749 27.2951 16.2749 29.1927C16.2749 31.0904 14.7121 32.6532 12.8144 32.6532C10.8796 32.6532 9.354 31.0904 9.354 29.1927C9.354 27.2951 10.8796 25.7323 12.8144 25.7323ZM30.7493 25.7323C32.6841 25.7323 34.2097 27.2951 34.2097 29.1927C34.2097 31.0904 32.6469 32.6532 30.7493 32.6532C28.8516 32.6532 27.2888 31.0904 27.2888 29.1927C27.2888 27.2951 28.8144 25.7323 30.7493 25.7323ZM3.77263 0.65332C5.7075 0.65332 7.23307 2.2161 7.23307 4.11377C7.23307 6.01143 5.67029 7.57422 3.77263 7.57422C1.83775 7.57422 0.312174 6.01143 0.312174 4.11377C0.274965 2.17889 1.83775 0.65332 3.77263 0.65332ZM21.7819 0.65332C23.7167 0.65332 25.2423 2.2161 25.2423 4.11377C25.2423 6.01143 23.6795 7.57422 21.7819 7.57422C19.847 7.57422 18.3214 6.01143 18.3214 4.11377C18.2842 2.17889 19.847 0.65332 21.7819 0.65332ZM39.7911 0.65332C41.726 0.65332 43.2515 2.2161 43.2515 4.11377C43.2515 6.01143 41.6887 7.57422 39.7911 7.57422C37.8562 7.57422 36.3306 6.01143 36.3306 4.11377C36.3306 2.17889 37.8934 0.65332 39.7911 0.65332Z" fill="white"/>
<path d="M55.7699 23.6533H50.8409V9.10787H55.8693C57.3134 9.10787 58.554 9.39906 59.5909 9.98145C60.6326 10.5591 61.4328 11.3901 61.9915 12.4743C62.5502 13.5586 62.8295 14.856 62.8295 16.3664C62.8295 17.8815 62.5478 19.1836 61.9844 20.2726C61.4257 21.3617 60.6184 22.1974 59.5625 22.7797C58.5114 23.3621 57.2472 23.6533 55.7699 23.6533ZM53.4759 21.3735H55.642C56.6553 21.3735 57.5005 21.1888 58.1776 20.8195C58.8546 20.4455 59.3636 19.8891 59.7045 19.1505C60.0455 18.4071 60.2159 17.4791 60.2159 16.3664C60.2159 15.2537 60.0455 14.3304 59.7045 13.5965C59.3636 12.8579 58.8594 12.3063 58.1918 11.9417C57.5289 11.5724 56.705 11.3877 55.7202 11.3877H53.4759V21.3735ZM65.2195 23.6533V12.7442H67.7905V23.6533H65.2195ZM66.5121 11.1959C66.1049 11.1959 65.7545 11.061 65.4609 10.7911C65.1674 10.5165 65.0206 10.1874 65.0206 9.80389C65.0206 9.41563 65.1674 9.08656 65.4609 8.81667C65.7545 8.54205 66.1049 8.40474 66.5121 8.40474C66.924 8.40474 67.2744 8.54205 67.5632 8.81667C67.8568 9.08656 68.0036 9.41563 68.0036 9.80389C68.0036 10.1874 67.8568 10.5165 67.5632 10.7911C67.2744 11.061 66.924 11.1959 66.5121 11.1959ZM75.9599 12.7442V14.7329H69.511V12.7442H75.9599ZM71.1232 23.6533V11.7144C71.1232 10.9805 71.2747 10.3697 71.5778 9.88201C71.8855 9.39432 72.2975 9.02974 72.8136 8.78826C73.3297 8.54679 73.9026 8.42605 74.5323 8.42605C74.9774 8.42605 75.3728 8.46156 75.7184 8.53258C76.064 8.6036 76.3197 8.66752 76.4854 8.72434L75.9741 10.713C75.8652 10.6798 75.7279 10.6467 75.5621 10.6135C75.3964 10.5757 75.2118 10.5567 75.0082 10.5567C74.5299 10.5567 74.1914 10.6727 73.9925 10.9047C73.7984 11.132 73.7013 11.4587 73.7013 11.8849V23.6533H71.1232ZM83.4989 12.7442V14.7329H77.0501V12.7442H83.4989ZM78.6623 23.6533V11.7144C78.6623 10.9805 78.8138 10.3697 79.1168 9.88201C79.4246 9.39432 79.8365 9.02974 80.3526 8.78826C80.8687 8.54679 81.4416 8.42605 82.0714 8.42605C82.5165 8.42605 82.9118 8.46156 83.2575 8.53258C83.6031 8.6036 83.8588 8.66752 84.0245 8.72434L83.5131 10.713C83.4042 10.6798 83.2669 10.6467 83.1012 10.6135C82.9355 10.5757 82.7508 10.5567 82.5472 10.5567C82.069 10.5567 81.7305 10.6727 81.5316 10.9047C81.3375 11.132 81.2404 11.4587 81.2404 11.8849V23.6533H78.6623ZM92.4656 19.0653V12.7442H95.0366V23.6533H92.5437V21.7144H92.43C92.1838 22.3252 91.779 22.8247 91.2156 23.213C90.6568 23.6012 89.9679 23.7954 89.1488 23.7954C88.4338 23.7954 87.8017 23.6367 87.2525 23.3195C86.708 22.9975 86.2818 22.5312 85.9741 21.9204C85.6663 21.3048 85.5124 20.5615 85.5124 19.6903V12.7442H88.0835V19.2925C88.0835 19.9838 88.2728 20.5331 88.6516 20.9403C89.0304 21.3474 89.5276 21.551 90.1431 21.551C90.5219 21.551 90.8888 21.4587 91.244 21.2741C91.5991 21.0894 91.8903 20.8148 92.1175 20.4502C92.3496 20.0809 92.4656 19.6192 92.4656 19.0653ZM106.303 15.6278L103.959 15.8834C103.893 15.6467 103.777 15.4242 103.611 15.2158C103.45 15.0075 103.232 14.8394 102.957 14.7116C102.683 14.5837 102.347 14.5198 101.949 14.5198C101.414 14.5198 100.964 14.6358 100.599 14.8678C100.24 15.0998 100.062 15.4005 100.067 15.7698C100.062 16.087 100.178 16.3451 100.415 16.5439C100.656 16.7428 101.054 16.9062 101.608 17.034L103.469 17.4317C104.501 17.6543 105.268 18.007 105.77 18.49C106.277 18.9729 106.532 19.605 106.537 20.3863C106.532 21.0728 106.331 21.6789 105.933 22.2045C105.54 22.7253 104.993 23.1325 104.293 23.426C103.592 23.7196 102.787 23.8664 101.878 23.8664C100.543 23.8664 99.4678 23.587 98.6534 23.0283C97.839 22.4649 97.3537 21.6813 97.1974 20.6775L99.7045 20.436C99.8182 20.9284 100.06 21.3001 100.429 21.551C100.798 21.802 101.279 21.9275 101.871 21.9275C102.482 21.9275 102.972 21.802 103.341 21.551C103.715 21.3001 103.902 20.99 103.902 20.6206C103.902 20.3081 103.781 20.0501 103.54 19.8465C103.303 19.6429 102.934 19.4867 102.432 19.3778L100.571 18.9871C99.5246 18.7693 98.7505 18.4024 98.2486 17.8863C97.7467 17.3654 97.4981 16.7073 97.5028 15.9118C97.4981 15.2395 97.6804 14.6571 98.0497 14.1647C98.4238 13.6675 98.9422 13.284 99.6051 13.0141C100.273 12.7395 101.042 12.6022 101.913 12.6022C103.192 12.6022 104.198 12.8744 104.932 13.4189C105.67 13.9635 106.127 14.6997 106.303 15.6278ZM113.487 23.8664C112.393 23.8664 111.448 23.6391 110.653 23.1846C109.862 22.7253 109.254 22.0766 108.827 21.2385C108.401 20.3957 108.188 19.4038 108.188 18.2627C108.188 17.1405 108.401 16.1557 108.827 15.3081C109.258 14.4559 109.86 13.793 110.631 13.3195C111.403 12.8413 112.31 12.6022 113.352 12.6022C114.024 12.6022 114.658 12.7111 115.255 12.9289C115.856 13.142 116.387 13.4734 116.846 13.9232C117.31 14.373 117.674 14.9459 117.94 15.642C118.205 16.3332 118.337 17.1571 118.337 18.1135V18.9019H109.396V17.1689H115.873C115.868 16.6765 115.762 16.2385 115.553 15.855C115.345 15.4668 115.054 15.1614 114.68 14.9388C114.31 14.7163 113.879 14.605 113.387 14.605C112.862 14.605 112.4 14.7329 112.002 14.9885C111.604 15.2395 111.294 15.5709 111.072 15.9829C110.854 16.3901 110.743 16.8375 110.738 17.3252V18.838C110.738 19.4724 110.854 20.017 111.086 20.4715C111.318 20.9213 111.642 21.267 112.059 21.5084C112.476 21.7452 112.963 21.8635 113.522 21.8635C113.896 21.8635 114.235 21.8115 114.538 21.7073C114.841 21.5984 115.103 21.4398 115.326 21.2314C115.549 21.0231 115.717 20.7651 115.83 20.4573L118.231 20.7272C118.079 21.3617 117.79 21.9156 117.364 22.3891C116.943 22.8579 116.403 23.2224 115.745 23.4829C115.087 23.7385 114.334 23.8664 113.487 23.8664ZM120.512 23.6533V12.7442H123.005V14.5624H123.119C123.318 13.9327 123.659 13.4474 124.142 13.1064C124.629 12.7608 125.186 12.588 125.811 12.588C125.953 12.588 126.111 12.5951 126.287 12.6093C126.467 12.6188 126.616 12.6353 126.734 12.659V15.0241C126.625 14.9862 126.452 14.953 126.216 14.9246C125.984 14.8915 125.759 14.8749 125.541 14.8749C125.072 14.8749 124.651 14.9767 124.277 15.1803C123.907 15.3792 123.616 15.6562 123.403 16.0113C123.19 16.3664 123.083 16.776 123.083 17.24V23.6533H120.512ZM137.064 15.6278L134.721 15.8834C134.654 15.6467 134.538 15.4242 134.373 15.2158C134.212 15.0075 133.994 14.8394 133.719 14.7116C133.444 14.5837 133.108 14.5198 132.711 14.5198C132.176 14.5198 131.726 14.6358 131.361 14.8678C131.001 15.0998 130.824 15.4005 130.828 15.7698C130.824 16.087 130.94 16.3451 131.176 16.5439C131.418 16.7428 131.816 16.9062 132.37 17.034L134.23 17.4317C135.263 17.6543 136.03 18.007 136.532 18.49C137.038 18.9729 137.294 19.605 137.299 20.3863C137.294 21.0728 137.093 21.6789 136.695 22.2045C136.302 22.7253 135.755 23.1325 135.054 23.426C134.354 23.7196 133.549 23.8664 132.64 23.8664C131.304 23.8664 130.23 23.587 129.415 23.0283C128.601 22.4649 128.115 21.6813 127.959 20.6775L130.466 20.436C130.58 20.9284 130.821 21.3001 131.191 21.551C131.56 21.802 132.041 21.9275 132.632 21.9275C133.243 21.9275 133.733 21.802 134.103 21.551C134.477 21.3001 134.664 20.99 134.664 20.6206C134.664 20.3081 134.543 20.0501 134.301 19.8465C134.065 19.6429 133.695 19.4867 133.194 19.3778L131.333 18.9871C130.286 18.7693 129.512 18.4024 129.01 17.8863C128.508 17.3654 128.26 16.7073 128.265 15.9118C128.26 15.2395 128.442 14.6571 128.811 14.1647C129.185 13.6675 129.704 13.284 130.367 13.0141C131.034 12.7395 131.804 12.6022 132.675 12.6022C133.953 12.6022 134.96 12.8744 135.694 13.4189C136.432 13.9635 136.889 14.6997 137.064 15.6278Z" fill="white"/>
</svg>
