<svg width="50" height="66" viewBox="0 0 50 66" fill="none" xmlns="http://www.w3.org/2000/svg">
<path fill-rule="evenodd" clip-rule="evenodd" d="M25.0002 8.71509C27.9116 8.71509 30.7838 9.50012 33.3082 10.9846L31.7958 13.5499C29.7309 12.3333 27.3795 11.6915 25.0002 11.6915C17.615 11.6915 11.6063 17.7002 11.6063 25.0854C11.6063 32.4707 17.615 38.4794 25.0003 38.4794C32.3855 38.4794 38.3942 32.4707 38.3942 25.0854C38.3942 22.7062 37.7505 20.3548 36.5339 18.288L39.0992 16.7775C40.5856 19.3019 41.3706 22.176 41.3706 25.0854C41.3706 34.1115 34.0263 41.4558 25.0002 41.4558C15.9724 41.4558 8.62988 34.1115 8.62988 25.0854C8.62988 16.0576 15.9724 8.71509 25.0002 8.71509ZM25.0004 14.2955V17.272C20.692 17.272 17.1873 20.7767 17.1873 25.0851C17.1873 29.3934 20.692 32.8982 25.0004 32.8982C29.307 32.8982 32.8136 29.3934 32.8136 25.0851H35.79C35.79 31.0342 30.9496 35.8746 25.0004 35.8746C19.0513 35.8746 14.2109 31.0342 14.2109 25.0851C14.2109 19.1359 19.0513 14.2955 25.0004 14.2955ZM25.0001 19.8759V22.8524C23.7686 22.8524 22.7677 23.8551 22.7677 25.0847C22.7677 26.3162 23.7686 27.317 25.0001 27.317C26.2316 27.317 27.2324 26.3162 27.2324 25.0847H30.2088C30.2088 27.957 27.8723 30.2935 25.0001 30.2935C22.1278 30.2935 19.7913 27.9569 19.7913 25.0847C19.7913 22.2124 22.1278 19.8759 25.0001 19.8759ZM38.5642 8.88491L41.1965 11.5172L33.348 19.3638L36.7821 22.7979H27.2873V13.3031L30.7176 16.7334L38.5642 8.88495V8.88491Z" fill="white"/>
</svg>
