<svg width="50" height="66" viewBox="0 0 50 66" fill="none" xmlns="http://www.w3.org/2000/svg">
<path fill-rule="evenodd" clip-rule="evenodd" d="M36.6868 13.3991V36.772H13.3139V13.3991H36.6868ZM23.1515 19.2424H20.8752L16.5536 30.9288H18.6072L19.4231 28.6442H24.5964L25.3947 30.9288H27.572L23.1515 19.2424ZM31.2174 19.2424H29.172V30.9288H31.2174V19.2424ZM21.9961 21.203L24.0334 27.0333H19.9912L21.9961 21.203ZM38.6346 30.9288H42.53V34.8243H38.6346V30.9288ZM15.2617 38.7198H19.1571V42.6152H15.2617V38.7198ZM23.0526 38.7198H26.9481V42.6152H23.0526V38.7198ZM15.2617 7.55591H19.1571V11.4514H15.2617V7.55591ZM30.8436 38.7198H34.7391V42.6152H30.8436V38.7198ZM23.0526 7.55591H26.9481V11.4514H23.0526V7.55591ZM30.8436 7.55591H34.7391V11.4514H30.8436V7.55591ZM38.6346 23.1378H42.53V27.0333H38.6346V23.1378ZM7.4707 30.9288H11.3662V34.8243H7.4707V30.9288ZM38.6346 15.3469H42.53V19.2424H38.6346V15.3469ZM7.4707 23.1378H11.3662V27.0333H7.4707V23.1378ZM7.4707 15.3469H11.3662V19.2424H7.4707V15.3469Z" fill="white"/>
</svg>
