<svg width="31" height="33" viewBox="0 0 31 33" fill="none" xmlns="http://www.w3.org/2000/svg">
<path fill-rule="evenodd" clip-rule="evenodd" d="M15.5019 0.0856951H15.3415C13.9559 0.0856489 12.8005 0.0856181 11.8832 0.20893C10.9151 0.339104 10.041 0.625439 9.33854 1.32785C8.63613 2.03026 8.34979 2.90436 8.21962 3.87252C8.13122 4.53006 8.10621 6.10242 8.09915 7.45057C4.9805 7.55243 3.10803 7.91649 1.80676 9.21775C1.83841e-07 11.0245 0 13.9325 0 19.7483C0 25.5642 1.83841e-07 28.4722 1.80676 30.2789C3.61352 32.0857 6.52146 32.0857 12.3373 32.0857H18.506C24.3219 32.0857 27.2299 32.0857 29.0366 30.2789C30.8434 28.4722 30.8434 25.5642 30.8434 19.7483C30.8434 13.9325 30.8434 11.0245 29.0366 9.21775C27.7353 7.91649 25.8629 7.55243 22.7442 7.45057C22.7371 6.10242 22.7121 4.53006 22.6238 3.87252C22.4936 2.90436 22.2072 2.03026 21.5048 1.32785C20.8025 0.625439 19.9284 0.339104 18.9602 0.20893C18.0429 0.0856181 16.8875 0.0856489 15.5019 0.0856951ZM20.4305 7.41389C20.4236 6.10822 20.4014 4.70306 20.3312 4.18077C20.2354 3.46911 20.0701 3.16454 19.8691 2.96357C19.6682 2.76259 19.3636 2.59724 18.6519 2.50156C17.907 2.40142 16.9083 2.39895 15.4217 2.39895C13.935 2.39895 12.9363 2.40142 12.1914 2.50156C11.4798 2.59724 11.1752 2.76259 10.9743 2.96357C10.7733 3.16454 10.6079 3.46911 10.5123 4.18077C10.442 4.70306 10.4198 6.10822 10.4128 7.41389C11.0165 7.411 11.657 7.411 12.3373 7.411H18.506C19.1864 7.411 19.8269 7.411 20.4305 7.41389ZM15.4217 12.423C16.0605 12.423 16.5783 12.9409 16.5783 13.5797V13.5954C18.2574 14.0184 19.6627 15.3424 19.6627 17.178C19.6627 17.8168 19.1448 18.3346 18.506 18.3346C17.8673 18.3346 17.3494 17.8168 17.3494 17.178C17.3494 16.5858 16.6927 15.7645 15.4217 15.7645C14.1506 15.7645 13.494 16.5858 13.494 17.178C13.494 17.7704 14.1506 18.5917 15.4217 18.5917C17.5574 18.5917 19.6627 20.0719 19.6627 22.3187C19.6627 24.1543 18.2574 25.4783 16.5783 25.9013V25.917C16.5783 26.5558 16.0605 27.0736 15.4217 27.0736C14.7829 27.0736 14.2651 26.5558 14.2651 25.917V25.9013C12.5859 25.4783 11.1807 24.1543 11.1807 22.3187C11.1807 21.6799 11.6986 21.1621 12.3373 21.1621C12.9761 21.1621 13.494 21.6799 13.494 22.3187C13.494 22.9109 14.1506 23.7322 15.4217 23.7322C16.6927 23.7322 17.3494 22.9109 17.3494 22.3187C17.3494 21.7263 16.6927 20.905 15.4217 20.905C13.2859 20.905 11.1807 19.4249 11.1807 17.178C11.1807 15.3424 12.5859 14.0184 14.2651 13.5954V13.5797C14.2651 12.9409 14.7829 12.423 15.4217 12.423Z" fill="white"/>
</svg>
