<svg width="50" height="66" viewBox="0 0 50 66" fill="none" xmlns="http://www.w3.org/2000/svg">
<path d="M42.0506 8.49854H27.6218C27.1435 8.49854 26.6847 8.66988 26.3465 8.97488C26.0082 9.27988 25.8182 9.69354 25.8182 10.1249V41.0254H43.8542V10.1249C43.8542 9.69354 43.6642 9.27988 43.326 8.97488C42.9877 8.66988 42.529 8.49854 42.0506 8.49854ZM40.247 36.1464H29.4254V32.8937H40.247V36.1464ZM40.247 29.641H29.4254V26.3883H40.247V29.641ZM40.247 23.1356H29.4254V19.8829H40.247V23.1356ZM40.247 16.6302H29.4254V13.3776H40.247V16.6302ZM22.211 19.8829C22.211 19.4516 22.021 19.0379 21.6828 18.7329C21.3445 18.4279 20.8858 18.2566 20.4074 18.2566H9.58583C9.10748 18.2566 8.64873 18.4279 8.31049 18.7329C7.97225 19.0379 7.78223 19.4516 7.78223 19.8829V41.0254H22.211V19.8829ZM16.8002 37.7727H13.193V34.52H16.8002V37.7727ZM16.8002 31.2673H13.193V28.0146H16.8002V31.2673ZM16.8002 24.762H13.193V21.5093H16.8002V24.762Z" fill="white"/>
</svg>
