<svg width="123" height="49" viewBox="0 0 123 49" fill="none" xmlns="http://www.w3.org/2000/svg">
<path d="M42.2415 0.881836H5.31519C2.46005 0.881836 0.145508 3.19638 0.145508 6.05151V42.9778C0.145508 45.8329 2.46005 48.1475 5.31519 48.1475H42.2415C45.0966 48.1475 47.4111 45.8329 47.4111 42.9778V6.05151C47.4111 3.19638 45.0966 0.881836 42.2415 0.881836Z" fill="#092E20"/>
<path d="M34.5571 18.2737V30.5012C34.5571 34.7143 34.2488 36.735 33.3241 38.4819C32.4677 40.1605 31.3372 41.222 29.0083 42.3867L24.1103 40.0576C26.4394 38.9616 27.5696 38.0028 28.2889 36.5295C29.0426 35.0225 29.2825 33.2756 29.2825 28.686V18.2737H34.5571ZM26.1659 10.1279V34.5433C23.46 35.057 21.4733 35.2625 19.3156 35.2625C12.8762 35.2625 9.51953 32.3513 9.51953 26.7681C9.51953 21.3905 13.0819 17.8971 18.5962 17.8971C19.4524 17.8971 20.1031 17.9654 20.8911 18.1709V10.1279H26.1659ZM19.1101 22.144C16.4385 22.144 14.8971 23.7882 14.8971 26.6651C14.8971 29.474 16.37 31.0152 19.0759 31.0152C19.6579 31.0152 20.1376 30.9809 20.8911 30.8784V22.4178C20.2746 22.2125 19.7609 22.144 19.1101 22.144ZM34.5571 10.156V15.5678H29.2825V10.156H34.5571Z" fill="#FFFFFD"/>
<path d="M60.2533 31.5146H55.3243V16.9692H60.3527C61.7968 16.9692 63.0374 17.2604 64.0743 17.8428C65.116 18.4204 65.9162 19.2514 66.4749 20.3357C67.0336 21.42 67.3129 22.7173 67.3129 24.2277C67.3129 25.7429 67.0312 27.045 66.4678 28.134C65.9091 29.223 65.1018 30.0587 64.0459 30.6411C62.9948 31.2235 61.7306 31.5146 60.2533 31.5146ZM57.9593 29.2348H60.1254C61.1387 29.2348 61.9839 29.0502 62.661 28.6808C63.338 28.3068 63.847 27.7504 64.1879 27.0118C64.5289 26.2684 64.6993 25.3404 64.6993 24.2277C64.6993 23.115 64.5289 22.1917 64.1879 21.4578C63.847 20.7192 63.3428 20.1676 62.6752 19.803C62.0123 19.4337 61.1884 19.249 60.2036 19.249H57.9593V29.2348ZM69.7029 20.6056H72.2739V32.1396C72.2739 32.9256 72.1247 33.5743 71.8264 34.0857C71.5281 34.597 71.0973 34.9782 70.5338 35.2291C69.9704 35.4801 69.2862 35.6056 68.4813 35.6056C68.3866 35.6056 68.299 35.6032 68.2185 35.5985C68.138 35.5985 68.0504 35.5961 67.9557 35.5914V33.4962C68.0267 33.5009 68.0906 33.5033 68.1475 33.5033C68.2043 33.508 68.2635 33.5104 68.325 33.5104C68.8174 33.5104 69.1702 33.3896 69.3833 33.1482C69.5963 32.9114 69.7029 32.5634 69.7029 32.1041V20.6056ZM70.9813 19.0573C70.5693 19.0573 70.2166 18.9223 69.923 18.6524C69.6342 18.3778 69.4898 18.0487 69.4898 17.6652C69.4898 17.277 69.6342 16.9479 69.923 16.678C70.2166 16.4034 70.5693 16.2661 70.9813 16.2661C71.3885 16.2661 71.7365 16.4034 72.0253 16.678C72.3189 16.9479 72.4656 17.277 72.4656 17.6652C72.4656 18.0487 72.3189 18.3778 72.0253 18.6524C71.7365 18.9223 71.3885 19.0573 70.9813 19.0573ZM78.0569 31.7348C77.3656 31.7348 76.743 31.6117 76.189 31.3655C75.6398 31.1146 75.2042 30.7452 74.8822 30.2575C74.565 29.7699 74.4063 29.1685 74.4063 28.4536C74.4063 27.838 74.52 27.329 74.7472 26.9266C74.9745 26.5241 75.2847 26.2021 75.6776 25.9607C76.0706 25.7192 76.5133 25.5369 77.0058 25.4138C77.5029 25.286 78.0167 25.1936 78.547 25.1368C79.1862 25.0705 79.7046 25.0113 80.1024 24.9593C80.5001 24.9024 80.7889 24.8172 80.9688 24.7036C81.1535 24.5852 81.2458 24.4029 81.2458 24.1567V24.1141C81.2458 23.579 81.0872 23.1647 80.77 22.8712C80.4527 22.5776 79.9958 22.4308 79.3992 22.4308C78.7695 22.4308 78.27 22.5682 77.9007 22.8428C77.5361 23.1174 77.2899 23.4417 77.162 23.8158L74.7615 23.4749C74.9508 22.812 75.2633 22.258 75.699 21.8129C76.1346 21.3631 76.6672 21.027 77.297 20.8044C77.9267 20.5771 78.6227 20.4635 79.385 20.4635C79.9106 20.4635 80.4338 20.5251 80.9546 20.6482C81.4755 20.7713 81.9513 20.9749 82.3822 21.259C82.8131 21.5383 83.1587 21.9195 83.4191 22.4024C83.6843 22.8854 83.8169 23.4891 83.8169 24.2135V31.5146H81.3453V30.0161H81.26C81.1038 30.3191 80.8836 30.6032 80.5995 30.8683C80.3202 31.1288 79.9674 31.3395 79.5413 31.5004C79.1199 31.6567 78.6251 31.7348 78.0569 31.7348ZM78.7245 29.8456C79.2406 29.8456 79.6881 29.7438 80.0669 29.5402C80.4456 29.3319 80.7368 29.0573 80.9404 28.7164C81.1488 28.3754 81.2529 28.0038 81.2529 27.6013V26.3158C81.1724 26.3821 81.0351 26.4436 80.841 26.5004C80.6516 26.5573 80.4385 26.607 80.2018 26.6496C79.9651 26.6922 79.7307 26.7301 79.4987 26.7632C79.2667 26.7964 79.0654 26.8248 78.895 26.8485C78.5115 26.9005 78.1682 26.9858 77.8651 27.1041C77.5621 27.2225 77.323 27.3882 77.1478 27.6013C76.9726 27.8096 76.885 28.0795 76.885 28.411C76.885 28.8844 77.0579 29.2419 77.4035 29.4834C77.7491 29.7249 78.1895 29.8456 78.7245 29.8456ZM88.9731 25.1226V31.5146H86.4021V20.6056H88.8595V22.4593H88.9873C89.2383 21.8485 89.6383 21.3631 90.1876 21.0033C90.7416 20.6434 91.4258 20.4635 92.2401 20.4635C92.993 20.4635 93.6488 20.6245 94.2075 20.9465C94.7709 21.2684 95.2065 21.7348 95.5143 22.3456C95.8268 22.9564 95.9807 23.6974 95.9759 24.5686V31.5146H93.4049V24.9664C93.4049 24.2372 93.2155 23.6666 92.8367 23.2547C92.4627 22.8428 91.9442 22.6368 91.2813 22.6368C90.8315 22.6368 90.4314 22.7362 90.0811 22.9351C89.7354 23.1292 89.4632 23.411 89.2643 23.7803C89.0702 24.1496 88.9731 24.597 88.9731 25.1226ZM103.334 35.8328C102.411 35.8328 101.618 35.7074 100.955 35.4564C100.292 35.2102 99.7591 34.8788 99.3566 34.4621C98.9542 34.0454 98.6748 33.5838 98.5186 33.0771L100.834 32.5161C100.938 32.7291 101.09 32.9398 101.288 33.1482C101.487 33.3612 101.755 33.5364 102.091 33.6737C102.432 33.8158 102.86 33.8868 103.377 33.8868C104.106 33.8868 104.709 33.7093 105.188 33.3541C105.666 33.0038 105.905 32.4261 105.905 31.6212V29.5544H105.777C105.645 29.8196 105.45 30.0918 105.195 30.3712C104.944 30.6505 104.61 30.8849 104.193 31.0743C103.781 31.2637 103.263 31.3584 102.638 31.3584C101.8 31.3584 101.04 31.1619 100.358 30.7689C99.681 30.3712 99.1412 29.7793 98.7387 28.9933C98.341 28.2026 98.1421 27.213 98.1421 26.0246C98.1421 24.8267 98.341 23.8158 98.7387 22.9919C99.1412 22.1633 99.6833 21.536 100.365 21.1098C101.047 20.6789 101.807 20.4635 102.645 20.4635C103.284 20.4635 103.81 20.5724 104.222 20.7902C104.638 21.0033 104.97 21.2613 105.216 21.5644C105.462 21.8627 105.649 22.1444 105.777 22.4095H105.919V20.6056H108.455V31.6922C108.455 32.625 108.232 33.3968 107.787 34.0075C107.342 34.6183 106.734 35.0753 105.962 35.3783C105.19 35.6813 104.314 35.8328 103.334 35.8328ZM103.355 29.3414C103.9 29.3414 104.364 29.2088 104.747 28.9436C105.131 28.6785 105.422 28.2973 105.621 27.8002C105.82 27.303 105.919 26.7064 105.919 26.0104C105.919 25.3238 105.82 24.7225 105.621 24.2064C105.427 23.6903 105.138 23.2902 104.754 23.0061C104.376 22.7173 103.909 22.5729 103.355 22.5729C102.782 22.5729 102.304 22.722 101.921 23.0203C101.537 23.3186 101.248 23.7282 101.054 24.249C100.86 24.7651 100.763 25.3522 100.763 26.0104C100.763 26.678 100.86 27.2628 101.054 27.7646C101.253 28.2618 101.544 28.6501 101.928 28.9294C102.316 29.204 102.792 29.3414 103.355 29.3414ZM115.848 31.7277C114.783 31.7277 113.859 31.4933 113.078 31.0246C112.297 30.5558 111.691 29.9001 111.26 29.0573C110.834 28.2145 110.621 27.2296 110.621 26.1027C110.621 24.9758 110.834 23.9886 111.26 23.1411C111.691 22.2935 112.297 21.6354 113.078 21.1666C113.859 20.6979 114.783 20.4635 115.848 20.4635C116.913 20.4635 117.837 20.6979 118.618 21.1666C119.399 21.6354 120.003 22.2935 120.429 23.1411C120.86 23.9886 121.075 24.9758 121.075 26.1027C121.075 27.2296 120.86 28.2145 120.429 29.0573C120.003 29.9001 119.399 30.5558 118.618 31.0246C117.837 31.4933 116.913 31.7277 115.848 31.7277ZM115.862 29.6681C116.44 29.6681 116.923 29.5094 117.311 29.1922C117.699 28.8702 117.988 28.4394 118.178 27.8996C118.372 27.3598 118.469 26.7585 118.469 26.0956C118.469 25.428 118.372 24.8243 118.178 24.2845C117.988 23.74 117.699 23.3068 117.311 22.9848C116.923 22.6628 116.44 22.5019 115.862 22.5019C115.27 22.5019 114.778 22.6628 114.385 22.9848C113.997 23.3068 113.706 23.74 113.511 24.2845C113.322 24.8243 113.227 25.428 113.227 26.0956C113.227 26.7585 113.322 27.3598 113.511 27.8996C113.706 28.4394 113.997 28.8702 114.385 29.1922C114.778 29.5094 115.27 29.6681 115.862 29.6681Z" fill="white"/>
</svg>
