<svg width="121" height="46" viewBox="0 0 121 46" fill="none" xmlns="http://www.w3.org/2000/svg">
<g clip-path="url(#clip0_3605_10328)">
<path d="M23.2803 45.8701C35.7067 45.8701 45.7803 35.7965 45.7803 23.3701C45.7803 10.9437 35.7067 0.870117 23.2803 0.870117C10.8539 0.870117 0.780273 10.9437 0.780273 23.3701C0.780273 35.7965 10.8539 45.8701 23.2803 45.8701Z" fill="#0091E2"/>
<path d="M37.1376 21.1509C37.0673 21.0938 36.4301 20.6147 35.0854 20.6147C34.7294 20.6147 34.3734 20.6411 34.0219 20.707C33.7626 18.9185 32.286 18.0483 32.2201 18.0088L31.8598 17.7979L31.6225 18.1406C31.3236 18.6021 31.1083 19.1074 30.9809 19.6436C30.7392 20.6631 30.8842 21.6211 31.4027 22.4385C30.7787 22.7856 29.7724 22.8735 29.5702 22.8779H12.9545C12.5194 22.8779 12.1679 23.2295 12.1679 23.6646C12.1503 25.1191 12.3964 26.5649 12.893 27.9316C13.4643 29.4346 14.3168 30.5376 15.4242 31.2144C16.6635 31.9746 18.6806 32.4097 20.9701 32.4097C22.0028 32.4141 23.0355 32.3174 24.0507 32.1284C25.4613 31.8691 26.8192 31.377 28.0673 30.6694C29.0956 30.0718 30.0229 29.3159 30.8095 28.4238C32.1234 26.9341 32.9101 25.2729 33.4945 23.8008H33.7274C35.1688 23.8008 36.0565 23.2251 36.5443 22.7417C36.8695 22.4341 37.1244 22.0605 37.287 21.6431L37.3881 21.3398L37.1376 21.1509ZM14.4926 22.3989H16.7206C16.8261 22.3989 16.914 22.311 16.914 22.2056V20.2236C16.914 20.1182 16.8261 20.0303 16.7206 20.0259H14.4926C14.3871 20.0259 14.2992 20.1138 14.2992 20.2192V22.2056C14.2992 22.3154 14.3871 22.3989 14.4926 22.3989ZM17.5644 22.3989H19.7924C19.8979 22.3989 19.9857 22.311 19.9857 22.2056V20.2236C19.9857 20.1182 19.8979 20.0303 19.7924 20.0259H17.5644C17.4545 20.0259 17.3666 20.1138 17.3666 20.2236V22.2056C17.3666 22.3154 17.4545 22.3989 17.5644 22.3989ZM20.6757 22.4033H22.9037C23.0092 22.4033 23.0971 22.3154 23.0971 22.21V20.228C23.0971 20.1226 23.0092 20.0347 22.9037 20.0303H20.6757C20.5702 20.0303 20.4823 20.1182 20.4823 20.2236V22.21C20.4823 22.3154 20.5702 22.3989 20.6757 22.4033ZM23.7563 22.4033H25.9843C26.0897 22.4033 26.1776 22.3154 26.182 22.21V20.228C26.182 20.1182 26.0941 20.0303 25.9843 20.0303H23.7563C23.6508 20.0303 23.5629 20.1182 23.5629 20.2236V22.21C23.5629 22.3154 23.6464 22.4033 23.7563 22.4033ZM17.56 19.5469H19.788C19.8935 19.5469 19.9813 19.459 19.9813 19.3491V17.3672C19.9813 17.2617 19.8935 17.1738 19.788 17.1738H17.56C17.4501 17.1738 17.3666 17.2617 17.3622 17.3672V19.3491C17.3666 19.459 17.4545 19.5469 17.56 19.5469ZM20.6757 19.5469H22.9037C23.0092 19.5469 23.0971 19.459 23.0971 19.3491V17.3672C23.0971 17.2617 23.0092 17.1738 22.9037 17.1738H20.6757C20.5702 17.1738 20.4823 17.2617 20.4823 17.3672V19.3491C20.4823 19.459 20.5702 19.5469 20.6757 19.5469ZM23.7563 19.5469H25.9843C26.0941 19.5469 26.1776 19.459 26.182 19.3491V17.3672C26.182 17.2573 26.0941 17.1738 25.9843 17.1738H23.7563C23.6508 17.1738 23.5629 17.2617 23.5629 17.3672V19.3491C23.5629 19.459 23.6464 19.5469 23.7563 19.5469ZM23.7563 16.6948H25.9843C26.0941 16.6948 26.182 16.6069 26.182 16.4971V14.5107C26.182 14.4053 26.0941 14.3174 25.9843 14.3174H23.7563C23.6508 14.3174 23.5629 14.4053 23.5629 14.5107V16.4971C23.5629 16.6069 23.6464 16.6948 23.7563 16.6948ZM26.8588 22.4033H29.0868C29.1923 22.4033 29.2802 22.3154 29.2802 22.21V20.228C29.2802 20.1182 29.1923 20.0347 29.0868 20.0303H26.8588C26.7533 20.0303 26.6654 20.1182 26.6654 20.2236V22.21C26.6654 22.3154 26.7533 22.4033 26.8588 22.4033Z" fill="white"/>
</g>
<path d="M58.181 30.3701H53.252V15.8247H58.2805C59.7246 15.8247 60.9651 16.1159 62.002 16.6982C63.0437 17.2759 63.8439 18.1069 64.4026 19.1911C64.9613 20.2754 65.2407 21.5728 65.2407 23.0832C65.2407 24.5983 64.959 25.9004 64.3955 26.9894C63.8368 28.0785 63.0295 28.9142 61.9736 29.4965C60.9225 30.0789 59.6583 30.3701 58.181 30.3701ZM55.887 28.0903H58.0532C59.0664 28.0903 59.9116 27.9056 60.5887 27.5363C61.2658 27.1623 61.7748 26.6059 62.1157 25.8673C62.4566 25.1239 62.627 24.1959 62.627 23.0832C62.627 21.9705 62.4566 21.0472 62.1157 20.3133C61.7748 19.5747 61.2705 19.0231 60.6029 18.6585C59.94 18.2892 59.1162 18.1045 58.1313 18.1045H55.887V28.0903ZM72.3891 30.5832C71.3238 30.5832 70.4005 30.3488 69.6192 29.8801C68.838 29.4113 68.2319 28.7555 67.801 27.9127C67.3749 27.0699 67.1618 26.0851 67.1618 24.9582C67.1618 23.8313 67.3749 22.8441 67.801 21.9965C68.2319 21.149 68.838 20.4909 69.6192 20.0221C70.4005 19.5534 71.3238 19.319 72.3891 19.319C73.4545 19.319 74.3778 19.5534 75.159 20.0221C75.9403 20.4909 76.5439 21.149 76.9701 21.9965C77.401 22.8441 77.6164 23.8313 77.6164 24.9582C77.6164 26.0851 77.401 27.0699 76.9701 27.9127C76.5439 28.7555 75.9403 29.4113 75.159 29.8801C74.3778 30.3488 73.4545 30.5832 72.3891 30.5832ZM72.4033 28.5235C72.981 28.5235 73.4639 28.3649 73.8522 28.0477C74.2404 27.7257 74.5293 27.2948 74.7187 26.7551C74.9128 26.2153 75.0099 25.614 75.0099 24.9511C75.0099 24.2835 74.9128 23.6798 74.7187 23.14C74.5293 22.5955 74.2404 22.1623 73.8522 21.8403C73.4639 21.5183 72.981 21.3573 72.4033 21.3573C71.8115 21.3573 71.319 21.5183 70.926 21.8403C70.5378 22.1623 70.2466 22.5955 70.0525 23.14C69.8631 23.6798 69.7684 24.2835 69.7684 24.9511C69.7684 25.614 69.8631 26.2153 70.0525 26.7551C70.2466 27.2948 70.5378 27.7257 70.926 28.0477C71.319 28.3649 71.8115 28.5235 72.4033 28.5235ZM84.5571 30.5832C83.4681 30.5832 82.5329 30.3441 81.7517 29.8659C80.9752 29.3876 80.3762 28.7271 79.9548 27.8843C79.5381 27.0368 79.3298 26.0614 79.3298 24.9582C79.3298 23.8502 79.5429 22.8725 79.969 22.0249C80.3952 21.1727 80.9965 20.5098 81.773 20.0363C82.5542 19.5581 83.4775 19.319 84.5429 19.319C85.4283 19.319 86.2119 19.4823 86.8937 19.809C87.5803 20.131 88.1272 20.5879 88.5344 21.1798C88.9416 21.7669 89.1736 22.4535 89.2304 23.2394H86.773C86.6736 22.7139 86.4368 22.2759 86.0628 21.9255C85.6934 21.5704 85.1987 21.3928 84.5784 21.3928C84.0528 21.3928 83.5912 21.5349 83.1934 21.819C82.7957 22.0983 82.4856 22.5008 82.2631 23.0264C82.0452 23.5519 81.9363 24.1817 81.9363 24.9156C81.9363 25.6589 82.0452 26.2981 82.2631 26.8332C82.4809 27.3635 82.7863 27.7731 83.1792 28.0619C83.577 28.346 84.0434 28.488 84.5784 28.488C84.9572 28.488 85.2957 28.417 85.594 28.2749C85.897 28.1282 86.1504 27.9175 86.354 27.6428C86.5576 27.3682 86.6972 27.0344 86.773 26.6414H89.2304C89.1688 27.4132 88.9416 28.0974 88.5486 28.694C88.1556 29.2858 87.6205 29.7499 86.9434 30.086C86.2664 30.4175 85.4709 30.5832 84.5571 30.5832ZM93.6853 26.9468L93.6782 23.8431H94.0901L98.0106 19.461H101.015L96.1924 24.8303H95.6597L93.6853 26.9468ZM91.3415 30.3701V15.8247H93.9126V30.3701H91.3415ZM98.1881 30.3701L94.637 25.4056L96.3699 23.5945L101.263 30.3701H98.1881ZM107.109 30.5832C106.015 30.5832 105.07 30.3559 104.275 29.9014C103.484 29.4421 102.876 28.7934 102.449 27.9553C102.023 27.1125 101.81 26.1206 101.81 24.9795C101.81 23.8573 102.023 22.8725 102.449 22.0249C102.88 21.1727 103.482 20.5098 104.253 20.0363C105.025 19.5581 105.932 19.319 106.974 19.319C107.646 19.319 108.28 19.4279 108.877 19.6457C109.478 19.8588 110.009 20.1902 110.468 20.64C110.932 21.0898 111.297 21.6627 111.562 22.3588C111.827 23.05 111.959 23.8739 111.959 24.8303V25.6187H103.018V23.8857H109.495C109.49 23.3933 109.384 22.9553 109.175 22.5718C108.967 22.1836 108.676 21.8782 108.302 21.6556C107.932 21.4331 107.502 21.3218 107.009 21.3218C106.484 21.3218 106.022 21.4497 105.624 21.7053C105.226 21.9563 104.916 22.2877 104.694 22.6997C104.476 23.1069 104.365 23.5543 104.36 24.042V25.5548C104.36 26.1892 104.476 26.7338 104.708 27.1883C104.94 27.6381 105.264 27.9838 105.681 28.2252C106.098 28.462 106.585 28.5803 107.144 28.5803C107.518 28.5803 107.857 28.5283 108.16 28.4241C108.463 28.3152 108.726 28.1566 108.948 27.9482C109.171 27.7399 109.339 27.4819 109.452 27.1741L111.853 27.444C111.701 28.0785 111.413 28.6324 110.986 29.1059C110.565 29.5747 110.025 29.9392 109.367 30.1997C108.709 30.4553 107.956 30.5832 107.109 30.5832ZM114.134 30.3701V19.461H116.627V21.2792H116.741C116.94 20.6495 117.281 20.1642 117.764 19.8232C118.251 19.4776 118.808 19.3048 119.433 19.3048C119.575 19.3048 119.733 19.3119 119.909 19.3261C120.089 19.3356 120.238 19.3521 120.356 19.3758V21.7409C120.247 21.703 120.074 21.6698 119.838 21.6414C119.606 21.6083 119.381 21.5917 119.163 21.5917C118.694 21.5917 118.273 21.6935 117.899 21.8971C117.529 22.096 117.238 22.373 117.025 22.7281C116.812 23.0832 116.706 23.4927 116.706 23.9568V30.3701H114.134Z" fill="white"/>
<defs>
<clipPath id="clip0_3605_10328">
<rect width="45" height="45" fill="white" transform="translate(0.780273 0.870117)"/>
</clipPath>
</defs>
</svg>
