<svg width="181" height="47" viewBox="0 0 181 47" fill="none" xmlns="http://www.w3.org/2000/svg">
<g clip-path="url(#clip0_0_1)">
<path d="M45.948 24.5015C45.948 20.6894 43.5792 17.3955 40.0631 16.1001C40.2121 15.2944 40.2864 14.4767 40.2851 13.6573C40.2851 6.58815 34.5485 0.851562 27.4794 0.851562C23.3711 0.851562 19.5221 2.81312 17.1163 6.1811C15.932 5.25576 14.4885 4.77467 12.971 4.77467C9.23285 4.77467 6.16104 7.80947 6.16104 11.5847C6.16104 12.399 6.30912 13.2132 6.56808 13.9535C3.01518 15.1748 0.609375 18.5798 0.609375 22.3548C0.609375 26.167 2.97816 29.498 6.53106 30.7934C6.38316 31.5706 6.30912 32.3849 6.30912 33.236C6.30912 40.2681 12.0457 46.0049 19.0778 46.0049C23.2231 46.0049 27.0353 44.0063 29.4409 40.6754C30.6252 41.6005 32.1057 42.1188 33.6232 42.1188C37.3614 42.1188 40.4332 39.0838 40.4332 35.3088C40.4332 34.4945 40.2851 33.6803 40.0261 32.94C43.505 31.6817 45.9478 28.2767 45.9478 24.5015H45.948Z" fill="white"/>
<path d="M18.3366 20.245L28.4407 24.8715L38.6557 15.9148C38.8046 15.1715 38.879 14.4152 38.8776 13.6571C38.8776 7.3654 33.7702 2.25781 27.4783 2.25781C23.7031 2.25781 20.1872 4.10831 18.0776 7.21714L16.375 16.0259L18.3366 20.245Z" fill="#F4BD19"/>
<path d="M7.86257 30.9419C7.71467 31.6822 7.64062 32.4594 7.64062 33.2367C7.64062 39.5284 12.7851 44.673 19.077 44.673C22.8892 44.673 26.4052 42.7855 28.5517 39.6765L30.2173 30.8679L27.9596 26.5746L17.8186 21.9482L7.86257 30.9419Z" fill="#3CBEB1"/>
<path d="M7.79022 13.4354L14.7113 15.064L16.2656 7.18057C15.3034 6.44034 14.156 6.07031 12.9347 6.07031C9.9367 6.07031 7.45703 8.51296 7.45703 11.5479C7.45703 12.1771 7.56827 12.8433 7.79022 13.4354Z" fill="#E9478C"/>
<path d="M7.1969 15.1006C4.08806 16.1 1.94141 19.0979 1.94141 22.3548C1.94141 25.5379 3.90296 28.3878 6.86389 29.498L16.5978 20.6893L14.8212 16.8774L7.1969 15.1006Z" fill="#2C458F"/>
<path d="M30.3281 39.6392C31.2903 40.3796 32.4378 40.7867 33.6221 40.7867C36.62 40.7867 39.0997 38.344 39.0997 35.309C39.0997 34.6428 38.9886 34.0135 38.7667 33.4213L31.8456 31.793L30.3281 39.6392Z" fill="#95C63D"/>
<path d="M31.7348 29.979L39.3591 31.7557C42.4679 30.7194 44.6146 27.7585 44.6146 24.5014C44.6146 21.3184 42.653 18.5057 39.6921 17.3584L29.6992 26.0929L31.7348 29.979Z" fill="#176655"/>
</g>
<path d="M53.4952 30.3691V15.8237H62.9554V18.0325H56.1301V21.9814H62.4654V24.1902H56.1301V28.1603H63.0123V30.3691H53.4952ZM68.101 15.8237V30.3691H65.53V15.8237H68.101ZM73.8841 30.5893C73.1928 30.5893 72.5701 30.4662 72.0162 30.22C71.4669 29.969 71.0313 29.5997 70.7093 29.112C70.3921 28.6243 70.2335 28.023 70.2335 27.3081C70.2335 26.6925 70.3471 26.1835 70.5744 25.7811C70.8017 25.3786 71.1118 25.0566 71.5048 24.8152C71.8978 24.5737 72.3405 24.3914 72.8329 24.2683C73.3301 24.1404 73.8438 24.0481 74.3741 23.9913C75.0133 23.925 75.5318 23.8658 75.9295 23.8137C76.3272 23.7569 76.6161 23.6717 76.796 23.5581C76.9806 23.4397 77.073 23.2574 77.073 23.0112V22.9686C77.073 22.4335 76.9144 22.0192 76.5971 21.7257C76.2799 21.4321 75.823 21.2853 75.2264 21.2853C74.5967 21.2853 74.0971 21.4226 73.7278 21.6973C73.3632 21.9719 73.117 22.2962 72.9892 22.6703L70.5886 22.3294C70.778 21.6665 71.0905 21.1125 71.5261 20.6674C71.9617 20.2176 72.4944 19.8815 73.1241 19.6589C73.7538 19.4316 74.4499 19.318 75.2122 19.318C75.7377 19.318 76.2609 19.3796 76.7818 19.5027C77.3026 19.6258 77.7785 19.8294 78.2093 20.1135C78.6402 20.3928 78.9859 20.774 79.2463 21.2569C79.5114 21.7399 79.644 22.3436 79.644 23.068V30.3691H77.1724V28.8706H77.0872C76.9309 29.1736 76.7108 29.4577 76.4267 29.7228C76.1473 29.9833 75.7946 30.194 75.3684 30.3549C74.947 30.5112 74.4522 30.5893 73.8841 30.5893ZM74.5517 28.7001C75.0678 28.7001 75.5152 28.5983 75.894 28.3947C76.2728 28.1864 76.564 27.9118 76.7676 27.5708C76.9759 27.2299 77.0801 26.8583 77.0801 26.4558V25.1703C76.9996 25.2366 76.8623 25.2981 76.6681 25.3549C76.4788 25.4118 76.2657 25.4615 76.0289 25.5041C75.7922 25.5467 75.5578 25.5846 75.3258 25.6177C75.0938 25.6509 74.8926 25.6793 74.7221 25.7029C74.3386 25.755 73.9953 25.8403 73.6923 25.9586C73.3893 26.077 73.1502 26.2427 72.975 26.4558C72.7998 26.6641 72.7122 26.934 72.7122 27.2654C72.7122 27.7389 72.885 28.0964 73.2306 28.3379C73.5763 28.5794 74.0166 28.7001 74.5517 28.7001ZM90.8514 22.3436L88.5076 22.5993C88.4413 22.3625 88.3253 22.14 88.1596 21.9316C87.9986 21.7233 87.7808 21.5552 87.5062 21.4274C87.2316 21.2995 86.8954 21.2356 86.4977 21.2356C85.9627 21.2356 85.5128 21.3516 85.1483 21.5836C84.7884 21.8156 84.6109 22.1163 84.6156 22.4856C84.6109 22.8029 84.7269 23.0609 84.9636 23.2598C85.2051 23.4586 85.6028 23.622 86.1568 23.7498L88.0176 24.1475C89.0498 24.3701 89.8168 24.7228 90.3187 25.2058C90.8253 25.6887 91.081 26.3208 91.0858 27.1021C91.081 27.7886 90.8798 28.3947 90.4821 28.9203C90.0891 29.4411 89.5422 29.8483 88.8414 30.1419C88.1407 30.4354 87.3358 30.5822 86.4267 30.5822C85.0914 30.5822 84.0166 30.3029 83.2022 29.7441C82.3878 29.1807 81.9025 28.3971 81.7463 27.3933L84.2534 27.1518C84.367 27.6442 84.6085 28.0159 84.9778 28.2669C85.3471 28.5178 85.8277 28.6433 86.4196 28.6433C87.0304 28.6433 87.5204 28.5178 87.8897 28.2669C88.2638 28.0159 88.4508 27.7058 88.4508 27.3365C88.4508 27.024 88.3301 26.7659 88.0886 26.5623C87.8519 26.3587 87.4825 26.2025 86.9806 26.0936L85.1199 25.7029C84.0734 25.4851 83.2993 25.1182 82.7974 24.6021C82.2955 24.0813 82.0469 23.4231 82.0517 22.6277C82.0469 21.9553 82.2292 21.3729 82.5985 20.8805C82.9726 20.3833 83.4911 19.9998 84.1539 19.7299C84.8216 19.4553 85.591 19.318 86.4622 19.318C87.7406 19.318 88.7467 19.5903 89.4806 20.1348C90.2193 20.6793 90.6762 21.4155 90.8514 22.3436ZM98.6532 19.46V21.4487H92.3819V19.46H98.6532ZM93.9302 16.8464H96.5012V27.0879C96.5012 27.4335 96.5533 27.6987 96.6575 27.8833C96.7664 28.0633 96.9084 28.1864 97.0836 28.2527C97.2588 28.319 97.4529 28.3521 97.666 28.3521C97.827 28.3521 97.9738 28.3403 98.1064 28.3166C98.2437 28.2929 98.3478 28.2716 98.4189 28.2527L98.8521 30.2626C98.7148 30.31 98.5183 30.362 98.2626 30.4189C98.0117 30.4757 97.7039 30.5088 97.3393 30.5183C96.6954 30.5372 96.1154 30.4402 95.5993 30.2271C95.0832 30.0093 94.6736 29.6731 94.3706 29.2186C94.0723 28.764 93.9255 28.1958 93.9302 27.514V16.8464ZM100.803 30.3691V19.46H103.374V30.3691H100.803ZM102.096 17.9118C101.689 17.9118 101.338 17.7768 101.045 17.5069C100.751 17.2323 100.605 16.9032 100.605 16.5197C100.605 16.1315 100.751 15.8024 101.045 15.5325C101.338 15.2579 101.689 15.1206 102.096 15.1206C102.508 15.1206 102.858 15.2579 103.147 15.5325C103.441 15.8024 103.588 16.1315 103.588 16.5197C103.588 16.9032 103.441 17.2323 103.147 17.5069C102.858 17.7768 102.508 17.9118 102.096 17.9118ZM110.777 30.5822C109.688 30.5822 108.753 30.3431 107.971 29.8649C107.195 29.3867 106.596 28.7261 106.175 27.8833C105.758 27.0358 105.55 26.0604 105.55 24.9572C105.55 23.8493 105.763 22.8715 106.189 22.024C106.615 21.1717 107.216 20.5088 107.993 20.0353C108.774 19.5571 109.697 19.318 110.763 19.318C111.648 19.318 112.432 19.4814 113.113 19.8081C113.8 20.13 114.347 20.5869 114.754 21.1788C115.161 21.7659 115.393 22.4525 115.45 23.2385H112.993C112.893 22.7129 112.657 22.2749 112.282 21.9245C111.913 21.5694 111.418 21.3919 110.798 21.3919C110.273 21.3919 109.811 21.5339 109.413 21.818C109.015 22.0974 108.705 22.4998 108.483 23.0254C108.265 23.551 108.156 24.1807 108.156 24.9146C108.156 25.658 108.265 26.2972 108.483 26.8322C108.701 27.3625 109.006 27.7721 109.399 28.0609C109.797 28.345 110.263 28.487 110.798 28.487C111.177 28.487 111.515 28.416 111.814 28.274C112.117 28.1272 112.37 27.9165 112.574 27.6419C112.777 27.3672 112.917 27.0334 112.993 26.6404H115.45C115.389 27.4122 115.161 28.0964 114.768 28.693C114.375 29.2849 113.84 29.7489 113.163 30.085C112.486 30.4165 111.691 30.5822 110.777 30.5822ZM126.183 22.3436L123.84 22.5993C123.773 22.3625 123.657 22.14 123.492 21.9316C123.331 21.7233 123.113 21.5552 122.838 21.4274C122.564 21.2995 122.227 21.2356 121.83 21.2356C121.295 21.2356 120.845 21.3516 120.48 21.5836C120.12 21.8156 119.943 22.1163 119.948 22.4856C119.943 22.8029 120.059 23.0609 120.296 23.2598C120.537 23.4586 120.935 23.622 121.489 23.7498L123.35 24.1475C124.382 24.3701 125.149 24.7228 125.651 25.2058C126.157 25.6887 126.413 26.3208 126.418 27.1021C126.413 27.7886 126.212 28.3947 125.814 28.9203C125.421 29.4411 124.874 29.8483 124.173 30.1419C123.473 30.4354 122.668 30.5822 121.759 30.5822C120.423 30.5822 119.349 30.3029 118.534 29.7441C117.72 29.1807 117.235 28.3971 117.078 27.3933L119.585 27.1518C119.699 27.6442 119.941 28.0159 120.31 28.2669C120.679 28.5178 121.16 28.6433 121.752 28.6433C122.362 28.6433 122.852 28.5178 123.222 28.2669C123.596 28.0159 123.783 27.7058 123.783 27.3365C123.783 27.024 123.662 26.7659 123.421 26.5623C123.184 26.3587 122.815 26.2025 122.313 26.0936L120.452 25.7029C119.405 25.4851 118.631 25.1182 118.129 24.6021C117.628 24.0813 117.379 23.4231 117.384 22.6277C117.379 21.9553 117.561 21.3729 117.931 20.8805C118.305 20.3833 118.823 19.9998 119.486 19.7299C120.154 19.4553 120.923 19.318 121.794 19.318C123.073 19.318 124.079 19.5903 124.813 20.1348C125.551 20.6793 126.008 21.4155 126.183 22.3436ZM133.367 30.5822C132.274 30.5822 131.329 30.3549 130.534 29.9004C129.743 29.4411 129.134 28.7924 128.708 27.9544C128.282 27.1116 128.069 26.1196 128.069 24.9785C128.069 23.8564 128.282 22.8715 128.708 22.024C129.139 21.1717 129.74 20.5088 130.512 20.0353C131.284 19.5571 132.191 19.318 133.232 19.318C133.905 19.318 134.539 19.4269 135.136 19.6447C135.737 19.8578 136.267 20.1892 136.727 20.639C137.191 21.0888 137.555 21.6618 137.82 22.3578C138.086 23.0491 138.218 23.8729 138.218 24.8294V25.6177H129.276V23.8848H135.754C135.749 23.3923 135.642 22.9544 135.434 22.5708C135.226 22.1826 134.935 21.8772 134.561 21.6547C134.191 21.4321 133.76 21.3208 133.268 21.3208C132.742 21.3208 132.281 21.4487 131.883 21.7044C131.485 21.9553 131.175 22.2868 130.953 22.6987C130.735 23.1059 130.624 23.5533 130.619 24.041V25.5538C130.619 26.1883 130.735 26.7328 130.967 27.1873C131.199 27.6371 131.523 27.9828 131.94 28.2243C132.356 28.461 132.844 28.5794 133.403 28.5794C133.777 28.5794 134.115 28.5273 134.419 28.4231C134.722 28.3142 134.984 28.1556 135.207 27.9473C135.429 27.7389 135.597 27.4809 135.711 27.1731L138.112 27.443C137.96 28.0775 137.671 28.6315 137.245 29.1049C136.824 29.5737 136.284 29.9383 135.626 30.1987C134.968 30.4544 134.215 30.5822 133.367 30.5822ZM143.532 30.5893C142.841 30.5893 142.219 30.4662 141.665 30.22C141.115 29.969 140.68 29.5997 140.358 29.112C140.041 28.6243 139.882 28.023 139.882 27.3081C139.882 26.6925 139.996 26.1835 140.223 25.7811C140.45 25.3786 140.76 25.0566 141.153 24.8152C141.546 24.5737 141.989 24.3914 142.481 24.2683C142.979 24.1404 143.492 24.0481 144.023 23.9913C144.662 23.925 145.18 23.8658 145.578 23.8137C145.976 23.7569 146.265 23.6717 146.444 23.5581C146.629 23.4397 146.721 23.2574 146.721 23.0112V22.9686C146.721 22.4335 146.563 22.0192 146.246 21.7257C145.928 21.4321 145.471 21.2853 144.875 21.2853C144.245 21.2853 143.746 21.4226 143.376 21.6973C143.012 21.9719 142.765 22.2962 142.638 22.6703L140.237 22.3294C140.426 21.6665 140.739 21.1125 141.175 20.6674C141.61 20.2176 142.143 19.8815 142.773 19.6589C143.402 19.4316 144.098 19.318 144.861 19.318C145.386 19.318 145.909 19.3796 146.43 19.5027C146.951 19.6258 147.427 19.8294 147.858 20.1135C148.289 20.3928 148.634 20.774 148.895 21.2569C149.16 21.7399 149.292 22.3436 149.292 23.068V30.3691H146.821V28.8706H146.736C146.579 29.1736 146.359 29.4577 146.075 29.7228C145.796 29.9833 145.443 30.194 145.017 30.3549C144.595 30.5112 144.101 30.5893 143.532 30.5893ZM144.2 28.7001C144.716 28.7001 145.164 28.5983 145.542 28.3947C145.921 28.1864 146.212 27.9118 146.416 27.5708C146.624 27.2299 146.729 26.8583 146.729 26.4558V25.1703C146.648 25.2366 146.511 25.2981 146.317 25.3549C146.127 25.4118 145.914 25.4615 145.677 25.5041C145.441 25.5467 145.206 25.5846 144.974 25.6177C144.742 25.6509 144.541 25.6793 144.371 25.7029C143.987 25.755 143.644 25.8403 143.341 25.9586C143.038 26.077 142.799 26.2427 142.623 26.4558C142.448 26.6641 142.361 26.934 142.361 27.2654C142.361 27.7389 142.533 28.0964 142.879 28.3379C143.225 28.5794 143.665 28.7001 144.2 28.7001ZM151.878 30.3691V19.46H154.371V21.2782H154.484C154.683 20.6485 155.024 20.1632 155.507 19.8223C155.995 19.4766 156.551 19.3038 157.176 19.3038C157.318 19.3038 157.477 19.3109 157.652 19.3251C157.832 19.3346 157.981 19.3511 158.099 19.3748V21.7399C157.99 21.702 157.818 21.6689 157.581 21.6404C157.349 21.6073 157.124 21.5907 156.906 21.5907C156.437 21.5907 156.016 21.6925 155.642 21.8961C155.273 22.095 154.981 22.372 154.768 22.7271C154.555 23.0822 154.449 23.4918 154.449 23.9558V30.3691H151.878ZM164.117 30.5822C163.028 30.5822 162.093 30.3431 161.311 29.8649C160.535 29.3867 159.936 28.7261 159.514 27.8833C159.098 27.0358 158.889 26.0604 158.889 24.9572C158.889 23.8493 159.102 22.8715 159.529 22.024C159.955 21.1717 160.556 20.5088 161.333 20.0353C162.114 19.5571 163.037 19.318 164.102 19.318C164.988 19.318 165.771 19.4814 166.453 19.8081C167.14 20.13 167.687 20.5869 168.094 21.1788C168.501 21.7659 168.733 22.4525 168.79 23.2385H166.333C166.233 22.7129 165.996 22.2749 165.622 21.9245C165.253 21.5694 164.758 21.3919 164.138 21.3919C163.612 21.3919 163.151 21.5339 162.753 21.818C162.355 22.0974 162.045 22.4998 161.823 23.0254C161.605 23.551 161.496 24.1807 161.496 24.9146C161.496 25.658 161.605 26.2972 161.823 26.8322C162.04 27.3625 162.346 27.7721 162.739 28.0609C163.137 28.345 163.603 28.487 164.138 28.487C164.517 28.487 164.855 28.416 165.154 28.274C165.457 28.1272 165.71 27.9165 165.914 27.6419C166.117 27.3672 166.257 27.0334 166.333 26.6404H168.79C168.728 27.4122 168.501 28.0964 168.108 28.693C167.715 29.2849 167.18 29.7489 166.503 30.085C165.826 30.4165 165.03 30.5822 164.117 30.5822ZM173.472 23.9771V30.3691H170.901V15.8237H173.415V21.3137H173.543C173.799 20.6982 174.194 20.2129 174.729 19.8578C175.269 19.4979 175.956 19.318 176.789 19.318C177.546 19.318 178.207 19.4766 178.77 19.7939C179.334 20.1111 179.769 20.5751 180.077 21.1859C180.39 21.7967 180.546 22.5424 180.546 23.4231V30.3691H177.975V23.8208C177.975 23.0869 177.786 22.5164 177.407 22.1092C177.033 21.6973 176.507 21.4913 175.83 21.4913C175.376 21.4913 174.968 21.5907 174.608 21.7896C174.253 21.9837 173.974 22.2654 173.77 22.6348C173.572 23.0041 173.472 23.4515 173.472 23.9771Z" fill="white"/>
<defs>
<clipPath id="clip0_0_1">
<rect width="45.3457" height="45.3457" fill="white" transform="translate(0.609375 0.696289)"/>
</clipPath>
</defs>
</svg>
