<svg width="211" height="39" viewBox="0 0 211 39" fill="none" xmlns="http://www.w3.org/2000/svg">
<path d="M94.5902 26.7156C93.5779 26.7156 92.7751 26.541 92.1468 26.192V13.87C92.426 13.4511 92.7402 13.0672 93.0543 12.7181C93.6477 12.5086 94.1713 12.4388 94.7997 12.4388C97.4176 12.4388 97.8714 15.0917 97.8714 19.839C97.8714 24.4117 97.1733 25.6684 96.9988 26.192C96.2657 26.541 95.4978 26.7156 94.5902 26.7156ZM102.409 19.0012C102.409 13.1021 100.664 9.40198 96.3006 9.40198C93.4034 9.40198 92.0421 11.0775 91.4835 11.7756V11.1124L90.9949 9.43688L85.3051 10.2397V12.2643L87.5042 12.5436V36.3497L85.6193 36.7337L85.5146 38.7234H93.927L94.0666 36.7337L92.077 36.3497V28.8099C92.8798 29.2637 93.9968 29.543 95.2185 29.543C102.339 29.543 102.409 22.3173 102.409 19.0012Z" fill="white"/>
<path d="M0.925661 28.4902L3.57572 28.0678V3.60273L0.618408 3.21866L0.772035 0.568604H19.284L18.8232 7.98108L15.1361 7.86586L14.9057 3.21866H9.18309V14.2414H11.6795L12.2556 11.7065L14.8289 11.7833V19.3879H12.2556L11.6411 16.7762H9.14468V28.4518H14.9057L15.4434 23.3821L19.3224 23.4974L19.6297 31.2171H0.810441L0.925661 28.4902Z" fill="white"/>
<path d="M21.358 31.2555L21.4732 28.9895L23.5472 28.5671V13.1276L21.1276 12.8971V10.5928L27.1958 9.7094L27.6567 11.0152V11.8986C29.1161 10.3623 30.8828 9.44055 33.1488 9.44055C36.4518 9.44055 38.9098 11.4377 38.9098 15.3936V28.5287L41.099 28.9511L40.9838 31.2171H33.7633V16.5458C33.7633 14.4334 32.9952 13.2428 31.0749 13.2428C30.422 13.2428 29.9611 13.358 29.4618 13.5501C29.1545 13.8189 28.8473 14.203 28.5785 14.5486V28.6055L30.7676 29.0279L30.614 31.2939H21.358V31.2555Z" fill="white"/>
<path d="M137.384 31.2555L137.461 28.9895L139.535 28.5671V13.1276L137.116 12.8971V10.5928L143.184 9.7094L143.645 11.0152V11.8986C145.104 10.3623 146.871 9.44055 149.137 9.44055C152.44 9.44055 154.898 11.4377 154.898 15.3936V28.5287L157.087 28.9511L156.972 31.2171H149.79V16.5458C149.79 14.4334 149.022 13.2428 147.101 13.2428C146.448 13.2428 145.988 13.358 145.488 13.5501C145.181 13.8189 144.874 14.203 144.605 14.5486V28.6055L146.794 29.0279L146.64 31.2939H137.384V31.2555Z" fill="white"/>
<path d="M52.5442 30.833C51.6992 31.1786 50.2014 31.5627 48.2426 31.5627C45.6694 31.5627 43.2882 30.4105 43.2882 26.6467V13.1275L40.8301 12.7435L40.9454 10.055L43.7106 9.93977L44.9012 5.83026L48.4347 5.67664V10.0934H52.2369L51.9681 12.7819L48.4731 13.1659V26.6851C48.4731 27.7989 49.0876 28.5286 50.2398 28.5286H52.3137L52.5442 30.833Z" fill="white"/>
<path d="M196.3 31.2554L196.377 29.0278L198.336 28.567V13.1275L196.031 12.8971V10.5927L202.33 9.7093L202.753 11.2072V11.7064C204.404 10.4774 206.632 9.6709 209.32 9.6709L210.242 10.4774L209.589 16.3152L206.132 16.2L205.787 13.0891C204.98 13.2043 204.212 13.4347 203.559 13.8956V28.6054L205.748 29.0662L205.595 31.2938H196.3V31.2554Z" fill="white"/>
<path d="M105.853 31.2554L105.968 29.0278L107.927 28.567V13.1275L105.622 12.8971V10.5927L111.921 9.7093L112.343 11.2072V11.7064C113.995 10.4774 116.222 9.6709 118.911 9.6709L119.833 10.4774L119.103 16.3152L115.646 16.2L115.301 13.0891C114.494 13.2043 113.726 13.4347 113.073 13.8956V28.6054L115.262 29.0662L115.109 31.2938H105.853V31.2554Z" fill="white"/>
<path d="M54.0804 31.2554L54.1956 29.0278L56.1544 28.567V13.1275L53.85 12.8971V10.5927L60.1487 9.7093L60.5711 11.2072V11.7064C62.2226 10.4774 64.4502 9.6709 67.1003 9.6709L68.022 10.4774L67.3691 16.3152L63.9125 16.2L63.5668 13.0891C62.7603 13.2043 61.9922 13.4347 61.3393 13.8956V28.6054L63.5284 29.0662L63.3748 31.2938H54.0804V31.2554Z" fill="white"/>
<path d="M73.9751 21.8457C73.9751 25.5328 75.5882 28.3749 78.7759 28.3749C80.4274 28.3749 81.7332 28.0292 83.2695 27.2995L84.1528 29.335C82.5782 30.6024 80.2738 31.5626 77.3933 31.5626C71.7859 31.5626 68.5598 26.7234 68.5598 20.5015C68.5598 15.2014 70.9026 9.40198 77.3165 9.40198C82.9238 9.40198 85.0362 14.5869 85.0362 20.3479L84.4985 21.7305L73.9751 21.8457ZM73.8983 19.3877L80.3506 19.0805C80.2354 16.5072 79.6977 12.4361 77.1628 12.4361C76.5483 12.4361 76.1259 12.5513 75.3577 12.9354C74.3208 14.7021 73.8983 17.8898 73.8983 19.3877Z" fill="white"/>
<path d="M163.232 21.8457C163.232 25.5328 164.845 28.3749 168.033 28.3749C169.684 28.3749 170.99 28.0292 172.527 27.2995L173.41 29.335C171.835 30.6024 169.531 31.5626 166.65 31.5626C161.043 31.5626 157.817 26.7234 157.817 20.5015C157.817 15.2014 160.16 9.40198 166.574 9.40198C172.181 9.40198 174.293 14.5869 174.293 20.3479L173.756 21.7305L163.232 21.8457ZM163.155 19.3877L169.608 19.0805C169.492 16.5072 168.955 12.4361 166.42 12.4361C165.805 12.4361 165.383 12.5513 164.615 12.9354C163.578 14.7021 163.155 17.8898 163.155 19.3877Z" fill="white"/>
<path d="M125.747 21.8457C125.747 25.5328 127.36 28.3749 130.548 28.3749C132.199 28.3749 133.505 28.0292 135.042 27.2995L135.925 29.335C134.35 30.6024 132.046 31.5626 129.165 31.5626C123.558 31.5626 120.332 26.7234 120.332 20.5015C120.332 15.2014 122.675 9.40198 129.089 9.40198C134.696 9.40198 136.808 14.5869 136.808 20.3479L136.271 21.7305L125.747 21.8457ZM125.67 19.3877L132.123 19.0805C132.007 16.5072 131.47 12.4361 128.935 12.4361C128.32 12.4361 127.898 12.5513 127.13 12.9354C126.093 14.7021 125.632 17.8898 125.67 19.3877Z" fill="white"/>
<path d="M188.811 31.2555L188.273 29.412C186.852 30.7562 185.47 31.5627 183.319 31.5627C180.016 31.5627 177.058 29.9113 177.058 25.3409V12.5899L174.639 12.3594V10.3239L181.629 9.51733L182.167 11.3609V24.7264C182.167 27.0692 183.127 28.2982 185.009 28.2982C185.546 28.2982 186.238 28.2214 186.852 27.9909C187.198 27.6453 187.543 27.2228 187.812 26.8003V12.5899L185.316 12.3594V10.3239L192.383 9.51733L192.92 11.3609V28.567L195.11 28.9895L194.841 31.2555H188.811Z" fill="white"/>
</svg>
