<svg width="34" height="33" viewBox="0 0 34 33" fill="none" xmlns="http://www.w3.org/2000/svg">
<path fill-rule="evenodd" clip-rule="evenodd" d="M27.9384 5.53756V27.4143H6.0616V5.53756H27.9384ZM15.2695 11.0068H13.1389L9.09394 21.9452H11.0161L11.7797 19.8068H16.6219L17.3691 21.9452H19.4071L15.2695 11.0068ZM22.819 11.0068H20.9046V21.9452H22.819V11.0068ZM14.188 12.8419L16.0949 18.299H12.3114L14.188 12.8419ZM29.7615 21.9452H33.4076V25.5913H29.7615V21.9452ZM7.88467 29.2374H11.5308V32.8835H7.88467V29.2374ZM15.1769 29.2374H18.8231V32.8835H15.1769V29.2374ZM7.88467 0.0683594H11.5308V3.71449H7.88467V0.0683594ZM22.4692 29.2374H26.1153V32.8835H22.4692V29.2374ZM15.1769 0.0683594H18.8231V3.71449H15.1769V0.0683594ZM22.4692 0.0683594H26.1153V3.71449H22.4692V0.0683594ZM29.7615 14.6529H33.4076V18.299H29.7615V14.6529ZM0.592407 21.9452H4.23854V25.5913H0.592407V21.9452ZM29.7615 7.36062H33.4076V11.0068H29.7615V7.36062ZM0.592407 14.6529H4.23854V18.299H0.592407V14.6529ZM0.592407 7.36062H4.23854V11.0068H0.592407V7.36062Z" fill="white"/>
</svg>
