<svg width="76" height="72" viewBox="0 0 76 72" fill="none" xmlns="http://www.w3.org/2000/svg">
<path d="M59.7131 0.686853C59.5835 0.751646 59.3832 0.910686 59.2654 1.04617C59.1535 1.17575 59.0416 1.28767 59.0239 1.28767C59.0062 1.28767 58.9709 1.19342 58.9473 1.08151C58.9061 0.845892 58.8413 0.786989 58.5939 0.733976C58.3229 0.675072 58.2169 0.804661 58.2169 1.20521C58.2169 1.48794 58.2051 1.52328 58.0932 1.52328C58.0225 1.52328 57.8753 1.58219 57.7634 1.64698C57.6514 1.71767 57.5513 1.7589 57.5395 1.74712C57.5219 1.73534 57.5395 1.62931 57.569 1.5174C57.6514 1.24055 57.6455 1.13452 57.5336 1.02849C57.3746 0.863564 57.1449 0.916576 56.7502 1.20521C56.4557 1.41726 56.3025 1.48794 56.0375 1.52328C55.8549 1.54685 55.5957 1.62342 55.4661 1.69411C55.148 1.85315 54.7121 2.34794 54.5884 2.68958C54.4058 3.17848 54.1997 3.32574 53.8345 3.2256C53.6401 3.17259 53.5989 3.18437 53.1983 3.45533C52.6328 3.8382 52.462 4.01491 52.3737 4.32121C52.3148 4.50381 52.2087 4.65107 51.9672 4.85724C51.6492 5.13408 51.2957 5.52285 50.6066 6.35339C50.4298 6.56544 50.1177 6.86585 49.9115 7.02489C49.6582 7.20749 49.4933 7.39009 49.4285 7.53146C49.3755 7.65516 49.0338 8.06749 48.6745 8.44447C48.3093 8.82146 47.9677 9.23967 47.9029 9.37515C47.7851 9.64611 47.7615 9.92295 47.8499 10.0643C47.8911 10.1291 47.8322 10.188 47.5671 10.3294C47.1018 10.5768 46.9427 10.8242 46.984 11.2306C47.0016 11.4073 47.0606 11.6076 47.1077 11.6842C47.2078 11.8373 47.1784 11.8786 46.7896 12.1142C46.448 12.3144 46.3007 12.5088 46.3301 12.7032C46.3537 12.8681 46.3243 12.8976 45.7706 13.2216C44.7397 13.8342 44.1743 14.382 44.0977 14.8473C44.0329 15.2655 44.1213 15.2714 44.6396 14.8885C45.4584 14.2759 45.8 14.164 45.8354 14.488C45.8471 14.6117 45.7882 14.7 45.5467 14.918C45.0284 15.3833 44.728 15.4835 44.1743 15.3657C43.8797 15.3068 43.7973 15.3126 43.4439 15.4246C42.6074 15.6955 41.5472 16.2551 39.8507 17.3272C38.9554 17.8926 38.8317 17.9928 38.867 18.0988C38.9377 18.3462 38.9672 18.6584 38.9318 18.8115C38.9083 18.8999 38.7787 19.0943 38.6373 19.2415C38.4253 19.4771 38.3723 19.5773 38.3192 19.9012C38.2839 20.1133 38.2191 20.4608 38.1838 20.6729C38.0836 21.203 38.1131 21.256 38.4959 21.256C38.9024 21.256 39.0732 21.309 39.0732 21.421C39.0732 21.474 38.814 21.7567 38.5018 22.0571C37.9894 22.5401 37.9364 22.6049 38.0129 22.6933C38.0542 22.7522 38.1602 22.8288 38.2427 22.8759C38.3958 22.9525 38.4901 22.9348 38.9201 22.7581C39.0202 22.711 39.032 22.7286 38.9966 22.9407C38.9613 23.1704 38.8729 23.2764 38.4429 23.6122C38.2544 23.7594 38.225 23.8655 38.2427 24.3603C38.2544 24.6548 38.4901 24.8786 38.9436 25.0259C39.1616 25.0966 39.4325 25.2085 39.5385 25.2733C40.0628 25.5737 41.1407 25.073 42.8666 23.73C43.4615 23.2646 43.5204 23.1999 43.7325 22.7699C43.8621 22.5225 43.974 22.3163 43.9917 22.3163C44.0034 22.3163 44.0741 22.4341 44.1389 22.5755C44.2214 22.764 44.2567 22.9642 44.2567 23.2764C44.2567 23.8125 44.3922 24.6135 44.5571 25.0553C44.6219 25.2379 44.7986 25.5619 44.9341 25.7681C45.1521 26.092 45.1874 26.1745 45.1403 26.2982C45.0402 26.5633 45.0755 26.6693 45.317 26.8283C45.4643 26.9285 45.5526 27.0286 45.5526 27.1052C45.5526 27.2937 45.8118 27.6883 46.1004 27.9298C46.3655 28.1478 46.3655 28.1537 46.4008 28.6072C46.4774 29.532 46.5599 30.2978 46.6011 30.339C46.6247 30.3567 46.8662 30.3331 47.143 30.2742C47.7144 30.1623 47.6732 30.2094 47.791 29.4142C47.8322 29.155 47.897 28.8782 47.9382 28.7957C48.0089 28.6602 48.0442 28.6485 48.4801 28.6485C48.8571 28.6426 48.9926 28.619 49.2341 28.4894C49.9822 28.1006 50.8481 26.8165 50.854 26.0979C50.854 25.9801 50.8127 25.5442 50.7538 25.1319C50.6007 23.9833 50.6419 23.9067 51.7434 23.3118C52.409 22.9525 52.6859 22.7522 52.7271 22.5931C52.7448 22.5284 52.8743 22.2397 53.0157 21.9511C53.3397 21.2796 53.3397 21.2207 53.0216 21.1382C52.5798 21.0263 52.5857 21.0322 52.8154 20.7966C52.9333 20.6729 53.0334 20.5433 53.0334 20.5021C53.0334 20.3901 52.8331 20.3195 52.2264 20.2193C51.3959 20.0897 51.4135 20.0956 51.337 19.9307C51.2427 19.7245 51.2486 19.377 51.3546 18.8233C51.4018 18.57 51.443 18.2402 51.443 18.0988C51.443 17.8573 51.5019 17.7454 52.1027 16.8795C53.428 14.971 54.453 13.6103 55.0067 13.0272C55.1893 12.8387 55.2776 12.7857 55.3778 12.8151C55.5427 12.8564 55.5427 12.8564 55.3306 12.1849C55.2364 11.8786 55.1539 11.5781 55.1539 11.5251C55.1539 11.3955 55.2541 11.3425 55.8313 11.1835C56.4851 11.0009 56.4734 11.0127 56.3025 10.7594C56.0728 10.4177 56.1023 10.3412 56.5912 10.0113L57.0271 9.71679L57.5513 9.95241C57.834 10.0879 58.1816 10.2469 58.3229 10.3117C58.5703 10.4295 58.9238 10.7299 58.9238 10.8301C58.9238 10.8595 58.8413 10.8949 58.7412 10.9184C58.4938 10.9714 58.1403 11.3072 57.9283 11.6783C57.7398 12.0081 57.4747 12.7562 57.4158 13.1214C57.3864 13.3158 57.351 13.357 57.2273 13.3747C57.0094 13.3983 56.9269 13.5632 57.0624 13.7105C57.1625 13.8224 57.1625 13.8283 56.9917 13.9166C56.8916 13.9696 56.6324 14.2111 56.4086 14.4585C56.1906 14.7059 55.8961 14.971 55.7606 15.0535C55.5486 15.1772 55.5073 15.2302 55.5073 15.3774C55.5073 15.4776 55.4426 15.6837 55.3601 15.8487C55.2128 16.1373 55.2128 16.1432 55.2953 16.6498C55.3424 16.9325 55.4072 17.3978 55.4484 17.6924C55.525 18.3108 55.6546 19.0295 55.7312 19.2886C55.8725 19.754 55.9491 19.8247 56.7502 20.2252C57.1802 20.4314 57.5631 20.6375 57.6043 20.6729C57.6573 20.7141 57.8399 20.7318 58.0814 20.7141C58.6528 20.6788 59.071 20.4667 60.2962 19.5949C61.4507 18.7703 61.9514 18.4993 62.4285 18.4345C62.8114 18.3815 63.0529 18.2048 63.907 17.333C64.5432 16.691 64.9084 16.1903 65.2913 15.4363C65.5976 14.8237 65.6506 14.4232 65.4621 14.058C65.2088 13.5632 64.7847 13.2216 64.2428 13.0743L63.9954 13.0095L64.0837 12.7975C64.1426 12.6561 64.1603 12.5029 64.1367 12.3616C64.1073 12.1672 64.125 12.0965 64.284 11.8786L64.4725 11.6253L63.96 11.584C63.6773 11.5664 63.4181 11.531 63.371 11.5192C63.3298 11.5016 63.2767 11.3602 63.2532 11.2129C63.2178 10.9597 63.1943 10.9243 62.9999 10.8477C62.8821 10.8006 62.7231 10.6828 62.6524 10.5827L62.5287 10.406L62.7937 9.64611L63.0647 8.88625L62.4168 8.19708C62.0633 7.8142 61.7276 7.43722 61.6746 7.35475C61.5509 7.17215 61.5509 6.97777 61.6746 6.45942L61.7747 6.0412L61.3624 5.64655C61.062 5.36381 60.8794 5.23422 60.6791 5.18121L60.4081 5.10463L60.2196 4.33299C60.1195 3.903 60.0312 3.52601 60.0253 3.49656C60.0194 3.46122 60.1431 3.40821 60.3021 3.36697C60.5377 3.30807 60.6732 3.21971 60.9972 2.89574L61.4036 2.4952L61.274 2.38917C61.1916 2.32438 61.0443 2.28903 60.844 2.28903C60.6732 2.28903 60.4847 2.25369 60.4199 2.20657C60.3139 2.1241 60.3139 2.11821 60.4553 2.0652C60.6673 1.98273 60.7616 1.85315 60.738 1.66465C60.7203 1.5174 60.7439 1.49972 61.0148 1.42315C61.5037 1.28767 61.4861 1.29945 61.3447 1.1463C61.1385 0.922468 60.5436 0.63973 60.2373 0.604387C60.0312 0.586716 59.8898 0.610277 59.7131 0.686853Z" fill="#A0A0A2"/>
<path d="M18.3155 5.26866C18.2978 5.32168 18.2802 5.41003 18.2802 5.47483C18.2802 5.61619 18.233 5.61619 18.0681 5.46304L17.9326 5.33935L17.538 5.52195C17.002 5.77523 16.4718 6.0992 16.4306 6.20523C16.3422 6.44085 16.5837 6.6529 17.1315 6.82372C17.4732 6.92975 17.4909 6.97098 17.2552 7.14769C17.0785 7.28317 17.0137 7.30084 16.8076 7.2655C16.4365 7.2007 15.8946 7.21838 15.7532 7.29495C15.5942 7.37742 15.5117 7.5718 15.5529 7.78385C15.5824 7.937 15.6001 7.94289 15.9181 7.94289C16.3835 7.94289 16.6309 8.10193 16.6309 8.39056C16.6309 8.55549 16.5837 8.64974 16.4247 8.80878C16.2244 9.00905 16.2009 9.01494 15.9005 8.9796C15.5294 8.93836 15.4822 8.9796 15.441 9.36247L15.4116 9.63932L15.7355 9.67466C16.2244 9.73356 16.5837 9.96329 17.0844 10.5347C17.5792 11.0942 17.9562 11.3652 18.3096 11.4064C18.451 11.4182 18.8044 11.3711 19.1932 11.271C19.9825 11.0825 20.5597 11.0236 20.813 11.1119C20.9721 11.1708 21.0369 11.159 21.243 11.053C21.3785 10.9882 21.8969 10.8174 22.4034 10.6701C23.446 10.3756 23.823 10.2166 24.1234 9.95151C24.5534 9.58041 24.6477 9.00905 24.3767 8.47302C24.2 8.1196 24.1882 7.937 24.3473 7.83686C24.5004 7.74262 24.5004 7.48933 24.3473 7.29495C24.2353 7.15358 24.2295 7.14769 24.0586 7.24194L23.8878 7.34207L23.8525 7.12413C23.8171 6.87673 23.6404 6.66468 23.4342 6.61167C23.2045 6.55276 23.1162 6.62345 23.0455 6.91208C22.9689 7.20659 22.9277 7.23605 22.8452 7.04755C22.7392 6.82372 22.6096 6.78838 22.3622 6.91208C22.2385 6.97687 22.1207 7.03577 22.0971 7.04755C22.0677 7.05934 22.05 7.02399 22.05 6.97687C22.05 6.78249 21.7025 6.64701 21.2254 6.6529C20.6717 6.65879 20.5067 6.70591 20.4302 6.87084C20.3477 7.05344 20.2711 7.03577 20.3418 6.84728C20.4184 6.6529 20.4184 6.42907 20.3418 6.38194C20.3065 6.35838 20.1415 6.36427 19.9707 6.38194C19.6644 6.42317 19.6585 6.42907 19.4877 6.75304C19.3228 7.06523 19.2933 7.08879 19.0872 7.10646L18.8633 7.12413L19.0459 6.77071C19.3169 6.2229 19.258 5.6751 18.8869 5.35113C18.6689 5.15674 18.3744 5.11551 18.3155 5.26866Z" fill="#A0A0A2"/>
<path d="M61.6215 20.6723C61.1032 20.7312 60.2314 20.9492 59.7248 21.1377C59.5363 21.2083 59.177 21.4086 58.9296 21.5735C58.3583 21.9623 58.3229 22.0919 58.6999 22.4512C58.9473 22.6868 58.9532 22.6986 58.9296 23.0402C58.9002 23.6057 59.071 23.6941 59.6306 23.4054C59.825 23.3053 59.8309 23.3053 59.931 23.4408C60.0252 23.5645 60.0252 23.5939 59.9428 23.7471C59.8367 23.9591 59.8309 24.5423 59.9251 25.1019C60.0135 25.579 59.9428 25.8028 59.6895 25.9089C59.3302 26.0561 58.9591 25.8676 58.5409 25.3139L58.2699 24.9664H57.8635C57.6396 24.9664 57.3922 24.9428 57.3098 24.9075C57.1802 24.8604 57.139 24.878 56.9564 25.096C56.5676 25.5495 55.8431 27.1223 55.8843 27.4227C55.8961 27.5169 55.9609 27.7113 56.0316 27.8586C56.0964 28.0058 56.1965 28.4064 56.2495 28.7421C56.332 29.2899 56.3614 29.3724 56.5205 29.5255C56.7031 29.6905 56.709 29.6905 57.245 29.6551C57.8635 29.608 57.8635 29.608 57.8635 30.0675C57.8635 30.2324 57.8105 30.4386 57.7162 30.627C57.5866 30.8803 57.569 30.9628 57.6043 31.2927L57.6396 31.6637L57.404 31.7227C57.1743 31.7816 57.1684 31.7816 57.0742 31.5813L56.974 31.3751L56.4616 31.4105C55.6664 31.4694 54.9949 31.5636 54.4647 31.6932C53.8993 31.8287 53.858 31.811 53.2749 31.328C53.0451 31.1395 52.8625 31.0335 52.7624 31.0335C52.4973 31.0335 51.5549 31.381 50.9423 31.705C50.6183 31.8817 50.0469 32.1821 49.6759 32.3824C49.3048 32.5826 48.8689 32.7888 48.7157 32.8477C48.5508 32.9066 48.2798 33.0774 48.0796 33.26C47.7615 33.5487 47.732 33.5663 47.732 33.4368C47.732 33.2188 47.5848 33.0657 47.249 32.9184C47.0782 32.8477 46.9309 32.777 46.9192 32.7711C46.9074 32.7594 46.9663 32.6887 47.0487 32.6062C47.1312 32.5179 47.2019 32.3942 47.2019 32.3176C47.2019 32.0996 46.8956 31.5518 46.7012 31.434C46.4715 31.2927 46.4185 31.2985 46.2064 31.4811C45.9826 31.6696 45.9708 31.8699 46.1711 31.9759C46.3655 32.0761 46.3596 32.1173 46.124 32.294C45.6763 32.6357 44.9577 32.8065 44.5689 32.6651C44.4511 32.6239 44.4099 32.6533 44.2508 32.9066C44.0741 33.1952 44.0682 33.1952 43.8562 33.1481C43.7384 33.1187 43.6205 33.0951 43.597 33.0951C43.5675 33.0951 43.5499 33.0009 43.5499 32.8889C43.5499 32.6887 43.544 32.6887 43.1552 32.5709C42.9314 32.5061 42.6133 32.4236 42.4484 32.3883C42.2775 32.347 42.1362 32.2999 42.1362 32.2822C42.1421 32.2587 42.1774 32.1762 42.2245 32.0937C42.2717 32.0113 42.307 31.8464 42.3129 31.7227C42.3129 31.5047 42.3011 31.4929 41.9477 31.328C41.7415 31.2279 41.5412 31.1513 41.5 31.1513C41.4529 31.1513 41.5884 30.9687 41.7945 30.7449C42.1833 30.3207 42.6604 29.5786 42.8253 29.1309C42.9137 28.8894 42.9608 28.854 43.4085 28.6302C44.0564 28.3062 44.0093 28.1825 43.1964 28.0294C43.0197 27.994 42.8548 27.9469 42.8253 27.9175C42.7959 27.888 42.8489 27.6583 42.9608 27.3697C43.1375 26.922 43.2671 26.1445 43.1729 26.1445C43.0315 26.1445 42.5249 26.4743 42.4425 26.6216C42.3541 26.7747 42.3129 26.7924 42.0478 26.7924C41.8888 26.7924 41.5825 26.8101 41.3704 26.8278L40.9876 26.869L40.693 27.2754C40.534 27.4934 40.3926 27.7172 40.3808 27.7643C40.3455 27.9116 40.534 27.9293 40.7402 27.7997C41.0111 27.6347 41.3763 27.5876 41.6944 27.676C41.8417 27.7172 41.9595 27.7702 41.9595 27.7938C41.9595 27.8762 41.4234 28.0942 41.1407 28.1295C40.9758 28.1472 40.7166 28.1236 40.4928 28.0647C40.2866 28.0117 40.104 27.9823 40.0863 27.9999C40.0687 28.0176 40.051 28.5713 40.051 29.2251C40.0451 30.362 40.051 30.4268 40.1806 30.627C40.2925 30.8096 40.3102 30.9216 40.3102 31.3751C40.3102 31.9524 40.4221 32.3706 40.6871 32.7594C40.8108 32.942 40.8167 32.9773 40.746 33.1481C40.6518 33.372 40.4162 33.5015 40.2866 33.3955C40.157 33.2895 40.0745 33.3661 40.0745 33.5899C40.0745 33.6959 40.0451 33.8667 40.0098 33.9728C39.9508 34.1318 39.9214 34.1554 39.7211 34.1554C39.5209 34.1554 39.4619 34.12 39.1969 33.8196L38.9024 33.4898L38.5666 33.7489C38.384 33.8903 38.2073 34.0494 38.172 34.1024C38.1248 34.1789 38.0718 34.1848 37.901 34.1495C37.4474 34.0376 36.3754 34.2496 35.9925 34.5206C35.8099 34.6502 35.8099 34.6266 35.9277 35.3629C35.9513 35.5514 35.9336 35.6339 35.8335 35.7635C35.7157 35.9107 35.6685 35.9284 35.3976 35.9107L35.0972 35.893L35.0383 35.3688L34.9794 34.8504L34.785 35.1626C34.679 35.3393 34.461 35.7045 34.2961 35.9814C33.925 36.6058 33.7424 36.8002 33.1534 37.1889C32.6468 37.5188 32.3582 37.7662 32.3582 37.8663C32.3582 37.8958 32.3169 37.9252 32.2698 37.9252C32.1638 37.9252 30.7795 38.4907 30.6735 38.579C30.6205 38.6203 30.5616 38.6203 30.4909 38.5849C30.3613 38.5143 29.4071 38.5849 29.1656 38.6792C28.9889 38.7499 28.9005 38.903 28.6472 39.551C28.3704 40.2696 28.1348 40.4993 27.4868 40.6937C27.2865 40.7526 27.2041 40.7526 27.0568 40.6937C26.8094 40.5936 26.6857 40.6642 26.35 41.106C26.0555 41.5066 25.92 41.5419 25.5371 41.3475C25.2544 41.2003 25.1542 41.0294 25.1424 40.6642C25.1307 40.5052 25.1248 40.3638 25.1189 40.3579C25.1189 40.352 24.9834 40.3874 24.8185 40.4345C24.5416 40.517 24.5122 40.517 24.3001 40.3933C24.0351 40.2401 23.9408 40.2637 23.7288 40.5347C23.5344 40.7997 23.5108 41.2415 23.6875 41.5419C23.7877 41.7127 23.7936 41.7775 23.7464 42.0367C23.7111 42.2016 23.6345 42.3901 23.5697 42.4608C23.4578 42.5786 23.4107 42.5845 22.8805 42.5492C22.5684 42.5256 22.2738 42.502 22.2267 42.4844C22.1796 42.4726 22.0677 42.343 21.9793 42.1957L21.8203 41.9307L20.4184 41.9601L19.0165 41.9896L18.8515 42.1781C18.7632 42.2841 18.6925 42.4019 18.6925 42.4431C18.6925 42.4844 18.8044 42.5727 18.9399 42.6434L19.1932 42.773L18.934 42.8849C18.7926 42.9438 18.6159 43.0086 18.5393 43.0263C18.4628 43.0439 18.398 43.0852 18.398 43.1205C18.398 43.2442 18.5806 43.5152 18.8044 43.7155C19.04 43.9275 19.0518 43.9334 19.3934 43.8981C19.6997 43.8627 19.7704 43.8804 20.0473 44.0276C20.4243 44.2338 20.7541 44.6285 21.031 45.2057C21.19 45.5415 21.2784 45.6475 21.4492 45.7358C21.567 45.8006 21.6789 45.8537 21.6907 45.8595C21.7025 45.8713 21.6436 45.9832 21.5552 46.1128C21.4727 46.2424 21.4021 46.3602 21.4021 46.3838C21.4021 46.4074 21.4845 46.5841 21.5788 46.7843C21.7143 47.0612 21.779 47.3086 21.8497 47.8505C21.8969 48.2393 21.9793 48.7105 22.0264 48.8931C22.1089 49.2229 22.1089 49.2288 21.9558 49.4527C21.7614 49.7413 21.3137 50.6838 20.9838 51.5025C20.7423 52.1092 20.6952 52.1799 20.2534 52.6217C19.8647 53.0105 19.0636 53.6761 18.775 53.8469C18.7396 53.8705 18.5217 53.8233 18.2978 53.7468C18.0681 53.6702 17.5026 53.5229 17.0373 53.4169C15.388 53.0517 15.0817 52.9574 14.2688 52.5687C13.4618 52.1799 12.9729 52.0268 12.702 52.0798C12.6195 52.0975 12.4428 52.0621 12.3073 52.0032C12.1777 51.9443 11.8361 51.8559 11.5534 51.8029C11.0056 51.7087 10.823 51.6321 10.3871 51.3199C10.1927 51.1844 10.0454 51.1196 9.89816 51.1196C9.59776 51.1196 9.52118 51.1609 9.3268 51.4436L9.15598 51.691L8.62584 51.7264C7.83653 51.7735 7.56558 51.9443 7.38887 52.4921C7.31818 52.6924 7.32996 52.7336 7.46544 52.981C7.54791 53.1342 7.61859 53.2932 7.61859 53.3462C7.61859 53.3933 7.489 53.5877 7.32996 53.7644C7.17681 53.947 7.02955 54.1473 7.00599 54.218C6.97065 54.3299 6.74682 54.5125 5.75134 55.237C5.51573 55.4078 5.32134 55.5728 5.32134 55.5963C5.32134 55.6258 5.37436 55.7436 5.44504 55.8614C5.61586 56.15 5.55696 56.3091 5.15641 56.6154C4.62039 57.0336 4.48491 57.2044 4.45546 57.5048C4.42601 57.764 4.37299 57.8229 2.87095 59.3485C2.01685 60.2144 1.31589 60.9448 1.31589 60.9742C1.31589 61.0037 1.35712 61.1863 1.41014 61.3866C1.51616 61.8048 1.66342 62.1052 1.88137 62.3644C2.03452 62.5529 2.04041 62.5588 1.94616 62.7531C1.89315 62.8651 1.70466 63.0594 1.52205 63.1949C1.17452 63.4541 1.12151 63.5896 1.29233 63.8311C1.46904 64.0903 1.35712 64.3318 0.803429 64.909C0.497129 65.2271 0.314528 65.4568 0.34987 65.4922C0.379322 65.5157 1.05082 65.6512 1.84602 65.7867L3.28328 66.0282L3.58368 66.3109C3.74272 66.4641 4.10204 66.7468 4.37889 66.9353C5.25655 67.5538 5.65121 68.0427 5.76901 68.6906C5.85737 69.1795 6.28737 69.2325 7.82475 68.9439C9.22077 68.673 10.0454 68.6258 10.9997 68.7554C11.5357 68.8261 11.7301 68.8732 11.8302 68.9675C11.9951 69.1206 12.1071 69.1147 12.3132 68.9439C12.4369 68.8438 12.5783 68.8025 12.8964 68.7731C13.2203 68.7495 13.5384 68.6553 14.2453 68.3784C14.7577 68.1782 15.4057 67.9602 15.6825 67.8954C15.9594 67.8306 16.2774 67.7364 16.3835 67.6834C16.5661 67.595 16.572 67.5832 16.5366 67.3476L16.5013 67.1002L16.9077 66.8469C17.1257 66.7056 17.6381 66.4169 18.0387 66.2108C18.663 65.8809 18.775 65.7985 18.8515 65.6276C19.0047 65.2507 19.0106 64.909 18.8692 64.4319C18.6748 63.784 18.6925 63.3893 18.934 62.9829C19.1873 62.5646 19.7822 61.9992 20.6834 61.3159C21.0781 61.0214 21.567 60.6208 21.7673 60.4323C22.2385 59.9964 22.4034 59.914 22.963 59.8433C23.3577 59.7962 23.5579 59.7196 24.4297 59.2955L25.437 58.8066H26.026C26.35 58.8066 26.6504 58.783 26.6857 58.7595C26.727 58.7359 26.7976 58.5886 26.8389 58.4355C26.9155 58.1822 26.939 58.1586 27.1452 58.1233C27.4161 58.0762 27.5281 57.9407 27.5281 57.6521C27.5281 57.493 27.4986 57.4282 27.422 57.4047C27.2924 57.3752 27.2335 57.1396 27.2335 56.6507C27.2335 55.9851 27.5928 55.3548 28.1289 55.0721L28.3822 54.9366L29.0595 55.2429C30.1198 55.72 30.108 55.7141 30.5086 55.6199C30.6971 55.5787 30.8915 55.5374 30.9268 55.5374C30.968 55.5374 31.1506 55.6729 31.3332 55.8378C31.5158 56.0028 31.7573 56.1736 31.8634 56.2207C32.1284 56.3326 33.0768 56.3326 33.2888 56.2207C33.3772 56.1736 33.8307 55.7318 34.2961 55.2429C35.0501 54.4477 35.162 54.3535 35.3033 54.377C35.5036 54.4183 35.9513 54.2357 36.6581 53.8174C36.9644 53.6407 37.3296 53.4346 37.4651 53.3698L37.7066 53.2402L38.0306 53.3874C38.2073 53.4699 38.4841 53.57 38.6373 53.6054C38.92 53.6761 38.9377 53.6937 39.3854 54.3652C39.9214 55.1604 40.0098 55.3843 40.0569 56.0558C40.1158 56.851 40.3455 57.116 41.9595 58.1881C42.684 58.6711 42.9844 58.9126 43.4262 59.378C44.1507 60.1378 44.3804 60.2733 44.9047 60.2615C45.2522 60.2556 45.3405 60.2792 45.5703 60.4264C45.7882 60.5619 45.8766 60.6738 46.0533 61.0449C46.2535 61.4631 46.2889 61.5044 46.5716 61.634C46.7424 61.7164 47.09 61.8107 47.3492 61.8578L47.8204 61.9344L47.8381 62.1405C47.8557 62.4292 48.0383 63.03 48.109 63.0477C48.1444 63.0594 48.327 63.0948 48.5096 63.1301C48.757 63.1831 48.9101 63.2597 49.1104 63.4423C49.5463 63.8193 49.7583 64.2611 50.1176 65.5393C50.2943 66.1578 50.3002 66.146 49.8526 66.3522C49.6641 66.4346 49.6346 66.4876 49.5639 66.7822C49.5227 66.9648 49.4167 67.2828 49.3342 67.489C49.1928 67.8542 49.187 67.866 49.293 67.9426C49.5345 68.1193 49.8879 68.0132 50.1883 67.6716C50.3297 67.5184 50.6006 66.8705 50.7656 66.305C50.8716 65.9398 51.0365 65.7572 51.4665 65.5393C51.9024 65.3213 51.926 65.286 51.8847 64.8207C51.8317 64.1904 51.8141 64.1374 51.655 64.1374C51.549 64.1374 51.0719 63.8664 50.7184 63.6014C50.6065 63.5189 51.1367 62.3762 51.4842 61.9638L51.655 61.7694L52.0261 61.8637C52.2323 61.9167 52.5621 62.0463 52.7624 62.1523C53.104 62.329 53.7697 62.9181 53.911 63.1655C53.9758 63.2833 53.9758 63.2833 54.0642 63.1714C54.2056 62.9888 54.235 62.6 54.1231 62.3231C53.9169 61.8166 53.5635 61.5868 51.6197 60.6915C50.6301 60.2379 49.558 59.6548 49.558 59.5782C49.558 59.5429 49.6759 59.3662 49.8231 59.1895C49.9704 59.0127 50.0882 58.8478 50.0882 58.8301C50.0882 58.7359 49.5639 58.6593 48.9278 58.6593C48.3741 58.6593 48.1502 58.6358 47.8793 58.5415C46.8072 58.1704 46.1298 57.334 45.9414 56.1441C45.8059 55.3136 45.6527 55.0898 44.6985 54.3711C44.3745 54.1237 44.0329 53.841 43.9386 53.7409C43.5911 53.3698 43.5263 52.981 43.7325 52.4862C43.8503 52.1976 43.8562 52.174 43.7619 51.9443C43.6323 51.6203 43.6382 51.1079 43.7737 50.9901C43.8267 50.937 44.2214 50.6955 44.6514 50.4481L45.4289 50.0064L45.694 50.1183C45.8353 50.1831 46.0238 50.242 46.1063 50.2479C46.1888 50.2538 46.2594 50.2773 46.2594 50.295C46.2594 50.3127 46.1711 50.4835 46.0651 50.6779L45.8766 51.0313L46.0415 51.3553C46.1298 51.532 46.23 51.7912 46.2594 51.9266C46.3066 52.1033 46.3478 52.1681 46.4067 52.1446C46.5245 52.0975 46.8485 51.5968 46.8485 51.4613C46.8485 51.3965 46.9309 51.261 47.0311 51.1609L47.2196 50.9783L47.3727 51.1786C47.5259 51.3847 47.6672 51.5202 47.9971 51.7912C48.1679 51.9325 48.1738 51.9502 48.1738 52.4568C48.1738 52.7395 48.2033 53.0222 48.2327 53.0753C48.2681 53.1283 48.4153 53.2637 48.5685 53.3816C48.7452 53.517 48.8571 53.6525 48.8807 53.7703C48.9278 53.9883 49.1928 54.2121 49.6287 54.4065C49.9291 54.5302 49.9763 54.5773 50.0352 54.7776L50.1059 55.0014H50.4416C51.0837 54.9955 51.5843 55.237 52.3265 55.8967C52.6446 56.1795 52.8095 56.2855 53.0216 56.3385C53.4751 56.4387 54.3705 56.957 54.7946 57.3576C55.0066 57.5578 55.0302 57.5578 55.472 57.4459C55.6075 57.4165 55.6251 57.4282 55.6251 57.5637C55.6251 57.6756 55.6605 57.7228 55.7665 57.7522C55.902 57.7817 55.9079 57.7993 55.8784 58.2352C55.849 58.6652 55.8607 58.7241 56.1199 59.3897L56.3968 60.0848L56.1906 60.4795L55.9903 60.8741L56.0905 61.1686C56.2259 61.5751 56.5499 61.9992 57.027 62.3879C57.6514 62.9004 57.7869 63.0712 57.8281 63.3834C57.8576 63.5955 57.9165 63.6956 58.052 63.8134C58.3465 64.0608 58.6822 64.2022 59.2065 64.3141L59.7013 64.4083L59.5422 64.5144C59.4539 64.5733 59.3478 64.7087 59.3007 64.8207C59.2241 64.9974 59.2241 65.0445 59.3066 65.1976C59.4126 65.4038 59.7013 65.6276 59.9781 65.7219C60.255 65.8102 61.115 65.8043 61.9573 65.6983C62.8939 65.5805 63.2826 65.5805 63.2826 65.6983C63.2826 65.8868 63.1059 66.1283 62.9233 66.1931C62.6582 66.2874 62.4285 66.2756 61.7393 66.1401C60.9559 65.987 60.3728 65.987 60.1018 66.1342C59.8367 66.2756 59.6306 66.6585 59.6306 67.0237C59.6306 67.4419 59.772 67.5774 60.3728 67.76C60.6967 67.8601 60.8911 67.9543 60.9265 68.0309C60.9618 68.0898 61.003 68.4668 61.0148 68.8615C61.0443 69.4858 61.0619 69.5977 61.168 69.7097C61.327 69.8805 61.5803 69.9806 61.7865 69.9571C61.9867 69.9335 62.2223 69.6213 62.2223 69.3739C62.2223 69.2797 62.24 69.2031 62.2695 69.2031C62.293 69.2031 62.4933 69.4564 62.7171 69.7627C62.941 70.069 63.1412 70.3223 63.1707 70.3223C63.2649 70.3223 63.3886 70.0572 63.424 69.7686C63.4417 69.6095 63.4711 69.4623 63.4888 69.4505C63.5065 69.4328 63.7008 69.5977 63.9247 69.8098C64.178 70.0572 64.3782 70.2045 64.4607 70.2045C64.5903 70.2045 64.5903 70.1868 64.5667 69.7391C64.5373 69.1854 64.4018 68.938 63.9659 68.6141C63.4181 68.2076 63.4534 68.2606 63.4947 67.9308L63.5359 67.6245L64.0837 67.8895C64.8671 68.2665 65.2853 68.2547 65.2853 67.8424C65.2853 67.6363 65.1086 67.5126 64.5373 67.2946L64.1073 67.1297V66.6938V66.252L64.2722 66.3404C64.3664 66.3875 64.5667 66.4582 64.7258 66.4994C64.9025 66.5406 65.1381 66.6761 65.3619 66.8587C65.7801 67.1945 65.951 67.2534 66.163 67.1356C66.4104 66.9942 66.381 66.8764 65.9981 66.4759C65.7978 66.2697 65.6388 66.0576 65.6388 66.0046C65.6388 65.8161 65.1734 65.4568 64.4548 65.0739C63.583 64.6145 63.206 64.2787 62.9351 63.7074C62.7289 63.2656 62.6465 62.9593 62.7348 62.9593C62.7643 62.9593 62.9881 63.0241 63.2237 63.1066C63.7421 63.2833 63.8481 63.2892 63.9247 63.1419C64.0189 62.9711 63.8363 62.7826 63.1766 62.382C62.8585 62.1877 62.4874 61.9049 62.3519 61.7577C62.0751 61.4573 62.0633 61.3689 62.1634 60.6326C62.2459 60.0612 62.2695 60.0141 62.4285 60.0141C62.6111 60.0141 62.8291 60.2969 63.2591 61.0921C63.7362 61.9815 64.0896 62.2642 64.3075 61.9462C64.4253 61.7753 64.4253 61.4631 64.3134 61.3689C64.1662 61.2511 63.9777 60.9566 64.0366 60.9566C64.0719 60.9566 64.2722 61.1156 64.4843 61.31C64.8907 61.6752 65.0085 61.7223 65.197 61.581C65.3207 61.4926 65.3501 61.5397 64.6669 60.7445C64.3488 60.3675 64.5432 60.3734 65.1734 60.7622C65.6034 61.0273 65.7212 61.0744 65.7625 61.0096C65.8862 60.8093 65.7919 60.609 65.3855 60.2321C65.197 60.0612 65.1558 60.0023 65.2736 60.0789C65.5386 60.2674 65.6329 60.1908 65.8037 59.6843C65.8803 59.4604 65.9981 59.2189 66.0629 59.1482C66.1983 59.001 66.811 58.7771 67.0642 58.7771C67.1585 58.7771 67.4471 58.7182 67.7181 58.6534C68.0892 58.5533 68.3012 58.5356 68.6664 58.5592C68.9433 58.5769 69.1848 58.5651 69.2672 58.5297C69.3438 58.4944 69.4263 58.4767 69.4439 58.4944C69.4616 58.518 69.3792 58.7477 69.2672 59.0127C69.0611 59.4781 69.0081 59.7196 69.1023 59.7196C69.2201 59.7196 70.2215 59.0481 70.4276 58.8301C70.6043 58.6475 70.6515 58.5592 70.6338 58.4237C70.622 58.2706 70.6574 58.2234 70.9401 58.0408C71.4702 57.7051 71.7294 57.605 72.6247 57.3576C73.632 57.0866 73.7734 57.0218 73.8676 56.7744L73.9383 56.5918L73.2491 56.2619C72.5364 55.9203 72.289 55.7318 71.2405 54.7304L70.7928 54.3005L70.9872 53.947C71.1639 53.6172 71.1816 53.5406 71.1993 52.9869C71.2111 52.5746 71.27 52.1799 71.3819 51.7264L71.5468 51.0666L71.4231 50.1065C71.3524 49.5351 71.323 49.1346 71.3583 49.111C71.3878 49.0934 71.6882 48.8047 72.0298 48.4749L72.6424 47.8682L72.56 47.6797C72.2595 46.9905 72.0593 46.5075 72.0711 46.4957C72.0828 46.4839 72.2301 46.5075 72.4009 46.5428C72.5953 46.5841 72.7249 46.5841 72.7602 46.5487C72.7897 46.5193 72.8486 46.2542 72.9016 45.9597C73.0606 44.9937 73.4435 44.3928 74.0915 44.0983C74.333 43.9864 74.4861 43.9628 74.9809 43.9628H75.5817L75.6171 42.6081C75.6347 41.86 75.6701 40.4463 75.6877 39.4685L75.7231 37.6778L75.5699 37.778C75.352 37.9193 74.7512 37.8722 73.9442 37.6425C72.8191 37.3303 72.5953 37.3067 72.1241 37.4481C71.6116 37.6012 71.588 37.6012 71.2405 37.4245C71.0815 37.348 70.8341 37.2537 70.6927 37.2184L70.4276 37.1477L70.4865 36.8237C70.5396 36.5115 70.5396 36.4997 70.357 36.3113C70.2333 36.1876 70.1272 35.9755 70.0507 35.7281C69.9387 35.3511 69.8386 35.2274 69.4086 34.9211C69.3026 34.8446 69.279 34.7503 69.2496 34.2261L69.2142 33.6135L69.5912 33.8609C69.7974 33.9963 69.9918 34.1259 70.0271 34.1613C70.1272 34.2555 70.2745 34.2202 70.3746 34.067C70.4335 33.9846 70.5396 33.8903 70.622 33.8609C70.9342 33.743 70.7222 33.1069 70.245 32.7299C70.0919 32.6062 69.8033 32.3883 69.6089 32.2469C69.4086 32.1055 69.1671 31.8876 69.0787 31.7639L68.9079 31.5401L68.9256 30.6447L68.9433 29.7494L68.7607 29.5432C68.5427 29.2899 68.2776 29.1368 67.4825 28.801C67.1231 28.6479 66.7756 28.4535 66.6225 28.318C66.3279 28.0588 65.0321 26.6393 64.8259 26.3506L64.6904 26.1621L64.8141 25.7852C65.2441 24.5069 64.8966 24.0357 63.3945 23.859C63.153 23.8296 62.8408 23.7471 62.7054 23.6764L62.4521 23.5468L62.7996 23.27C63.1766 22.9696 63.4063 22.6927 63.3651 22.5867C63.3533 22.5513 63.2532 22.4689 63.153 22.4041C63.0529 22.3393 62.9056 22.245 62.8291 22.1979C62.6582 22.086 62.6582 21.9918 62.8349 21.8268C62.9115 21.7561 62.9881 21.6324 63.0117 21.55C63.0352 21.4675 63.0941 21.3026 63.1471 21.1789C63.2414 20.9668 63.2355 20.9492 63.1295 20.8431C63.0293 20.743 62.4049 20.5957 62.1634 20.6134C62.1163 20.6193 61.8748 20.6488 61.6215 20.6723Z" fill="#A0A0A2"/>
<path d="M26.6151 23.005C26.3205 23.0403 25.9494 23.3172 25.1366 24.1182L24.5299 24.7132L24.3414 24.5188C24.0881 24.2596 23.823 24.1713 23.5521 24.2596C23.4401 24.295 23.3459 24.348 23.3459 24.3774C23.3459 24.4069 23.4519 24.6248 23.5874 24.8722C23.7464 25.1667 23.8937 25.3552 24.0292 25.4377C24.1411 25.5084 24.2295 25.5732 24.2295 25.5791C24.2295 25.5849 23.9821 25.7204 23.6758 25.8736C23.0219 26.2034 22.6096 26.5745 22.5154 26.9221C22.427 27.2696 22.4682 27.3226 22.8334 27.3226C23.3989 27.3226 23.6993 27.3874 23.6993 27.5052C23.6993 27.5582 23.4932 27.9234 23.2399 28.3063C22.9866 28.6892 22.7628 29.0308 22.7392 29.072C22.7039 29.1251 22.7392 29.1251 22.8865 29.0779C23.5049 28.8777 23.7582 28.8305 23.823 28.8953C23.9173 28.9896 23.7523 29.2605 23.4696 29.4726C23.2222 29.6552 23.1751 29.773 23.3047 29.9262C23.5403 30.2148 23.8643 30.2737 24.4945 30.1264C25.007 30.0027 25.2014 29.9968 25.3133 30.0852C25.49 30.2325 25.4075 30.5682 25.0953 30.9864L24.9716 31.1514L25.1012 31.5166C25.3251 32.1527 25.2721 32.3412 24.736 32.8478C24.3473 33.2189 24.3178 33.2189 23.558 32.8537C23.2693 32.7123 23.0337 32.6357 22.9748 32.6593C22.8511 32.7064 22.8452 32.9891 22.9571 33.319L23.0455 33.5605L22.7981 33.5782C22.4329 33.6017 22.4388 33.7549 22.8099 33.9846C23.1397 34.1849 23.1692 34.2674 22.9925 34.5501C22.8217 34.8328 22.5036 35.0095 21.8144 35.2157C21.4787 35.3158 21.1841 35.416 21.1606 35.4395C21.0722 35.5397 20.8602 36.1641 20.8896 36.2347C20.9132 36.2995 21.1429 36.3231 21.8144 36.3525L22.7097 36.3879L22.8688 36.5764C23.016 36.7531 23.0514 36.7649 23.4225 36.7708C23.6404 36.7767 23.8171 36.7943 23.8171 36.812C23.8171 36.8768 23.4225 37.2067 23.234 37.3009C23.0867 37.3834 23.0219 37.3775 22.5448 37.2479C22.2562 37.1654 21.9793 37.1124 21.9263 37.1301C21.8203 37.1654 21.3726 37.6249 21.2254 37.8546C21.1547 37.9547 20.8484 38.0843 19.8824 38.4024C18.6336 38.8206 18.6277 38.8206 18.7337 38.9384C19.0165 39.2565 19.6173 39.3036 20.6246 39.0739C20.9839 38.9914 21.3608 38.9266 21.461 38.9266C21.5965 38.9266 21.6554 38.962 21.7084 39.0739C21.7437 39.1564 21.7967 39.2212 21.8262 39.2212C21.8497 39.2212 22.0029 39.1269 22.1619 39.015C22.7392 38.5968 23.0278 38.5555 23.4107 38.8442C23.664 39.0268 23.8407 39.0209 24.524 38.8088C24.8244 38.7087 25.0953 38.6321 25.1248 38.6321C25.1484 38.6321 25.2485 38.7499 25.3486 38.8972C25.596 39.2565 25.8964 39.4803 26.0731 39.4332C26.2381 39.392 26.35 39.174 26.35 38.8913C26.35 38.7205 26.3677 38.691 26.456 38.7146C27.0215 38.8854 27.6459 38.909 28.2585 38.7794C28.8181 38.6616 29.5897 38.2198 29.5897 38.0136C29.5897 37.8899 29.3835 37.7545 29.0301 37.6308C28.8357 37.566 28.659 37.4894 28.6296 37.4599C28.6001 37.4305 28.7061 37.3186 28.8652 37.2008C29.0242 37.0888 29.2009 36.9357 29.2598 36.8709C29.3246 36.8002 29.4307 36.7472 29.4955 36.7472C29.8076 36.7472 30.6559 36.2171 30.9445 35.846C31.0564 35.7046 31.0682 35.6634 31.0034 35.5102C30.9033 35.2687 30.5263 34.9389 30.2553 34.8682C30.1316 34.8328 29.7487 34.8034 29.4012 34.8034C29.0301 34.8034 28.765 34.7798 28.765 34.7445C28.765 34.715 28.9005 34.3498 29.0655 33.9375C29.5897 32.6534 29.5426 32.1468 28.8475 31.5107L28.4646 31.1572L28.5 30.8981C28.5471 30.5859 28.4882 30.527 28.2055 30.6212C27.9993 30.6919 27.7637 30.6271 27.7637 30.5034C27.7637 30.4681 27.8697 30.1971 27.9934 29.8967C28.2761 29.2311 28.3292 28.9719 28.2349 28.7304C28.1583 28.5537 27.9109 28.3829 27.7342 28.3829C27.6753 28.3829 27.5634 28.3299 27.4692 28.2651C27.3808 28.2003 27.2394 28.1237 27.1511 28.0884C26.9979 28.0353 26.9979 28.0295 27.0804 27.8233C27.2394 27.4463 27.5104 27.1282 28.3763 26.2741C29.195 25.4671 29.3541 25.2551 29.2716 25.0548C29.1892 24.831 28.447 24.7897 27.3514 24.937C27.0097 24.9841 26.7093 25.0254 26.674 25.0254C26.5444 25.0254 27.2571 24.3833 27.9816 23.8414C28.4057 23.5233 28.7709 23.2347 28.7886 23.2111C28.8004 23.1876 28.7945 23.1287 28.765 23.0815C28.7238 23.0109 28.5235 22.9932 27.7814 22.9873C27.2689 22.9814 26.7446 22.9932 26.6151 23.005Z" fill="#A0A0A2"/>
<path d="M20.2947 28.5348C19.9059 28.6349 19.6997 28.7409 19.523 28.9353C19.4288 29.0355 19.3169 29.0885 19.1932 29.0885C18.9576 29.0885 18.7573 29.277 18.8633 29.4065C18.8986 29.4537 19.0223 29.5067 19.1343 29.5244C19.311 29.5597 19.3404 29.5891 19.3404 29.7305C19.3404 29.866 19.2992 29.9131 19.0989 30.0015C18.9045 30.0898 18.8397 30.0957 18.7632 30.0427C18.345 29.7364 17.5674 29.595 17.1374 29.7364C16.8606 29.8248 16.513 30.1252 16.513 30.2665C16.513 30.3313 16.5661 30.4138 16.625 30.455C16.6898 30.5022 16.7722 30.6082 16.8135 30.6965C16.9077 30.9086 16.8193 31.0028 16.4365 31.0912C15.9535 31.1972 15.924 31.2149 15.924 31.2915C15.924 31.4152 16.1537 31.6743 16.3481 31.7745C16.4483 31.8275 16.7133 31.8982 16.9489 31.9394L17.3672 32.0101L17.0373 32.122C16.6426 32.2457 16.4424 32.2104 16.3481 31.9983C16.248 31.7921 16.1478 31.8452 16.03 32.175C15.977 32.3341 15.9181 32.4695 15.9004 32.4872C15.8828 32.5049 15.7473 32.4754 15.5941 32.4224C15.441 32.3694 15.2643 32.3282 15.2054 32.3282C15.0463 32.3282 14.8637 32.5402 14.8637 32.7287C14.8637 32.8583 14.905 32.9172 15.0522 32.982L15.2407 33.0704L14.8755 33.1528C14.6753 33.1941 14.4809 33.2647 14.4455 33.306C14.3748 33.3884 14.4396 33.5534 14.5928 33.683C14.7283 33.7949 14.7106 33.8715 14.475 34.1424C14.3631 34.2779 14.2747 34.431 14.2865 34.484C14.2983 34.543 14.5457 34.6843 14.8932 34.8434L15.4822 35.1025L16.1891 35.0377C17.2435 34.9435 18.2566 34.808 18.7219 34.702C19.5819 34.5076 20.4301 34.0835 20.813 33.6476C21.2077 33.1941 21.4963 32.3812 21.4492 31.8687L21.4197 31.5919L21.9852 31.209L22.5507 30.8261L22.5566 30.1487C22.5625 29.6304 22.5448 29.4124 22.4623 29.2063C22.3268 28.8646 22.2326 28.8057 21.9616 28.9059C21.8203 28.953 21.726 28.9589 21.6789 28.9235C21.6377 28.8882 21.4786 28.8293 21.3196 28.7881C21.0722 28.7292 21.0427 28.7056 21.0663 28.5819C21.0899 28.4523 21.0722 28.4405 20.8484 28.4464C20.7188 28.4464 20.4655 28.4876 20.2947 28.5348Z" fill="#A0A0A2"/>
<path d="M37.5122 56.751C36.611 57.4873 36.505 57.6051 36.3872 58.0822C36.3224 58.3296 36.2753 58.7184 36.2753 58.9893C36.2753 59.4016 36.2988 59.4959 36.4284 59.6962C36.6169 59.9789 37.1294 60.2793 37.3355 60.2263C37.5299 60.1792 37.9187 59.649 38.1072 59.1896C38.4076 58.4474 38.5077 57.4284 38.3428 56.8688C38.2603 56.6096 38.1013 56.3563 38.0188 56.3681C38.0011 56.3681 37.7714 56.5389 37.5122 56.751Z" fill="#A0A0A2"/>
<path d="M37.0705 60.809C36.9232 60.9268 36.5521 61.1624 36.2399 61.3391C35.4918 61.7632 35.4565 61.8339 35.4683 63.0061C35.4742 63.7188 35.4506 63.9544 35.3269 64.5081C35.162 65.2326 35.1149 65.857 35.2268 65.9689C35.2798 66.0219 35.3681 66.016 35.6096 65.963C35.8511 65.9041 35.9925 65.8158 36.2576 65.5684C36.5992 65.2385 36.7288 65.2032 36.8937 65.4034C36.935 65.4506 36.988 65.4918 37.0174 65.4918C37.0822 65.4918 37.2884 65.0736 37.5358 64.4492L37.7302 63.9662L37.5711 63.5539C37.3768 63.0709 37.4003 62.9 37.6831 62.7292C37.9246 62.5761 37.9776 62.3051 37.8892 61.6925C37.8303 61.2448 37.5652 60.6381 37.4239 60.6205C37.3768 60.6087 37.2177 60.697 37.0705 60.809Z" fill="#A0A0A2"/>
<path d="M47.8322 67.6169C47.6496 67.6404 47.1136 67.7759 46.6423 67.9114C45.5939 68.2118 45.1521 68.2177 44.5925 67.9409L44.2508 67.7759L43.8562 67.8937C43.6382 67.9585 43.3084 68.041 43.1258 68.0822C42.631 68.1824 42.4248 68.3414 42.2835 68.7419C42.148 69.1425 42.1833 69.2367 42.5957 69.5725C43.0257 69.9141 43.7796 70.2793 45.211 70.8271C45.9355 71.104 46.7484 71.428 47.0193 71.5458L47.5141 71.7578L47.6555 71.5811C47.9618 71.21 47.9971 71.0922 47.9677 70.4973C47.9147 69.2426 47.9264 68.9481 48.0619 68.7596C48.2269 68.524 48.3152 68.2354 48.3329 67.8761C48.3505 67.5403 48.3505 67.5403 47.8322 67.6169Z" fill="#A0A0A2"/>
<path d="M24.7596 22.4614C24.6123 22.5085 24.4238 22.6204 24.3413 22.7088C24.1764 22.8855 23.9938 23.3037 23.9938 23.504C23.9938 23.6218 24.0115 23.6277 24.3767 23.5923C24.7949 23.5511 25.2367 23.3862 25.4487 23.1859C25.596 23.0445 25.6726 22.7441 25.6195 22.5203C25.5842 22.3907 25.5548 22.373 25.3015 22.3789C25.1483 22.3789 24.9068 22.4202 24.7596 22.4614Z" fill="#A0A0A2"/>
</svg>
