<svg width="110" height="37" viewBox="0 0 110 37" fill="none" xmlns="http://www.w3.org/2000/svg">
<path d="M108.71 8.96436H104.988L102.027 23.8054H98.631L101.592 8.96436H97.918L98.4618 6.20886H109.254L108.71 8.96436Z" fill="#C3C9D0"/>
<path d="M92.2196 19.5387C92.3727 18.7411 92.3042 18.1449 92.0141 17.7501C91.7321 17.3472 91.152 16.9081 90.2738 16.4327C88.6544 15.7721 87.474 14.9865 86.7328 14.0761C85.9996 13.1576 85.778 11.9692 86.0681 10.5108C86.3581 9.06057 87.047 7.94065 88.1347 7.15106C89.2224 6.35341 90.5155 5.95459 92.0141 5.95459C93.6094 5.95459 94.8421 6.43801 95.7123 7.40485C96.5824 8.3717 96.8362 9.68499 96.4737 11.3447L96.4495 11.4052H93.126C93.2871 10.5834 93.2146 9.93073 92.9084 9.44731C92.6023 8.95583 92.1229 8.71009 91.4703 8.71009C91.0352 8.71009 90.6203 8.88332 90.2255 9.22977C89.8307 9.57622 89.5849 9.99519 89.4883 10.4867C89.3352 11.244 89.4198 11.808 89.742 12.1786C90.0643 12.5493 90.7733 13.0045 91.8691 13.5443C93.3596 14.1647 94.4352 14.9341 95.0959 15.8526C95.7566 16.7711 95.9338 17.9918 95.6277 19.5146C95.3215 21.0212 94.6326 22.1573 93.5611 22.9227C92.4895 23.68 91.1963 24.0587 89.6816 24.0587C88.1186 24.0587 86.8093 23.6236 85.7538 22.7535C84.7064 21.8753 84.3841 20.5177 84.787 18.6807L84.8112 18.6202H88.1347C87.9252 19.6435 88.038 20.3485 88.4731 20.7352C88.9162 21.1219 89.5003 21.3153 90.2255 21.3153C90.6444 21.3153 91.0553 21.1461 91.4582 20.8077C91.861 20.4613 92.1148 20.0383 92.2196 19.5387Z" fill="#C3C9D0"/>
<path d="M83.4503 16.0827H77.891L76.8879 21.062H83.4382L82.8944 23.8054H72.9238L76.4407 6.20886H86.3871L85.8432 8.96436H79.305L78.4348 13.3393H83.9941L83.4503 16.0827Z" fill="#C3C9D0"/>
<path d="M74.9711 8.96436H71.2487L68.2878 23.8054H64.8918L67.8527 8.96436H64.1787L64.7226 6.20886H75.5149L74.9711 8.96436Z" fill="#C3C9D0"/>
<path d="M58.4803 19.5387C58.6334 18.7411 58.5649 18.1449 58.2749 17.7501C57.9929 17.3472 57.4128 16.9081 56.5345 16.4327C54.9151 15.7721 53.7347 14.9865 52.9935 14.0761C52.2603 13.1576 52.0387 11.9692 52.3288 10.5108C52.6189 9.06057 53.3077 7.94065 54.3954 7.15106C55.4831 6.35341 56.7763 5.95459 58.2749 5.95459C59.8701 5.95459 61.1029 6.43801 61.973 7.40485C62.8432 8.3717 63.097 9.68499 62.7344 11.3447L62.7102 11.4052H59.3867C59.5479 10.5834 59.4754 9.93073 59.1692 9.44731C58.863 8.95583 58.3836 8.71009 57.731 8.71009C57.2959 8.71009 56.881 8.88332 56.4862 9.22977C56.0914 9.57622 55.8457 9.99519 55.749 10.4867C55.5959 11.244 55.6805 11.808 56.0028 12.1786C56.3251 12.5493 57.0341 13.0045 58.1298 13.5443C59.6204 14.1647 60.696 14.9341 61.3567 15.8526C62.0173 16.7711 62.1946 17.9918 61.8884 19.5146C61.5823 21.0212 60.8934 22.1573 59.8218 22.9227C58.7502 23.68 57.4571 24.0587 55.9424 24.0587C54.3793 24.0587 53.07 23.6236 52.0146 22.7535C50.9672 21.8753 50.6449 20.5177 51.0477 18.6807L51.0719 18.6202H54.3954C54.1859 19.6435 54.2987 20.3485 54.7338 20.7352C55.1769 21.1219 55.7611 21.3153 56.4862 21.3153C56.9052 21.3153 57.3161 21.1461 57.7189 20.8077C58.1218 20.4613 58.3756 20.0383 58.4803 19.5387Z" fill="#C3C9D0"/>
<path d="M45.9537 20.071H41.7116L40.068 23.8054H36.6357L44.8418 6.20886H48.3828L49.543 23.8054H46.1108L45.9537 20.071ZM42.9202 17.3034H45.8449L45.6153 11.3694L45.5427 11.3573L42.9202 17.3034Z" fill="#C3C9D0"/>
<path d="M37.7998 16.4937H32.1921L30.7298 23.8054H27.3096L30.8264 6.20886H40.8574L40.3136 8.96436H33.6907L32.736 13.7502H38.3436L37.7998 16.4937Z" fill="#C3C9D0"/>
<path d="M25.1596 13.3995L24.6641 16.6022C24.5271 17.569 24.2894 18.5036 23.951 19.406C23.6126 20.3003 23.1614 21.102 22.5974 21.811C22.0415 22.5201 21.3567 23.076 20.5429 23.4788C19.7372 23.8817 18.7825 24.071 17.6786 24.0469C16.8407 24.0307 16.1196 23.8817 15.5153 23.5997C14.9111 23.3096 14.4075 22.9229 14.0047 22.4395C13.6099 21.9561 13.3037 21.4001 13.0862 20.7717C12.8767 20.1432 12.7478 19.4745 12.6994 18.7655C12.6511 18.0565 12.6712 17.3394 12.7598 16.6143L13.2433 13.3995C13.3883 12.4327 13.63 11.5021 13.9684 10.6077C14.3068 9.70536 14.758 8.89965 15.322 8.19063C15.886 7.48162 16.5748 6.92971 17.3886 6.53492C18.2023 6.13207 19.1571 5.94272 20.2529 5.9669C21.0908 5.98301 21.8119 6.13609 22.4162 6.42615C23.0204 6.70814 23.52 7.09085 23.9148 7.57427C24.3095 8.05769 24.6117 8.61363 24.8212 9.24208C25.0387 9.87052 25.1716 10.5393 25.22 11.2483C25.2683 11.9573 25.2482 12.6744 25.1596 13.3995ZM20.6396 17.1218L21.268 12.8557C21.2922 12.6139 21.3204 12.336 21.3526 12.0217C21.3849 11.7075 21.3929 11.3852 21.3768 11.0549C21.3687 10.7165 21.3204 10.4023 21.2318 10.1122C21.1512 9.82218 21.0102 9.5845 20.8088 9.39919C20.6154 9.20582 20.3415 9.10108 19.987 9.08496C19.4874 9.06079 19.0725 9.16956 18.7422 9.41127C18.4199 9.65298 18.1621 9.97527 17.9687 10.3781C17.7753 10.7729 17.6263 11.1959 17.5215 11.6471C17.4248 12.0902 17.3483 12.4971 17.2919 12.8677L16.6635 17.1218C16.6393 17.3636 16.6111 17.6456 16.5789 17.9678C16.5466 18.2821 16.5346 18.6084 16.5426 18.9468C16.5507 19.2852 16.595 19.5994 16.6755 19.8894C16.7642 20.1795 16.9092 20.4212 17.1106 20.6146C17.3121 20.7999 17.59 20.9046 17.9445 20.9288C18.4441 20.953 18.855 20.8442 19.1772 20.6025C19.5076 20.3527 19.7694 20.0304 19.9628 19.6356C20.1562 19.2328 20.3012 18.8058 20.3979 18.3546C20.5026 17.9034 20.5832 17.4925 20.6396 17.1218Z" fill="#C3C9D0"/>
<path d="M4.24405 15.9378L1.01722 15.1523L3.44641 6.20898H13.4774L12.9698 9.37539H6.25024L5.17463 12.8923C5.52914 12.6667 5.9199 12.5055 6.34692 12.4089C6.77394 12.3041 7.19291 12.2477 7.60382 12.2397C8.4498 12.2397 9.17896 12.3968 9.79129 12.711C10.4036 13.0172 10.8991 13.4402 11.2778 13.98C11.6565 14.5198 11.9224 15.1402 12.0754 15.8412C12.2285 16.5421 12.2728 17.2793 12.2084 18.0528C12.1359 18.9391 11.9183 19.7528 11.5558 20.4941C11.1932 21.2353 10.7138 21.8759 10.1176 22.4157C9.52138 22.9555 8.83653 23.3704 8.06306 23.6605C7.28959 23.9425 6.45972 24.0754 5.57345 24.0593C4.80804 24.0432 4.09097 23.9103 3.42224 23.6605C2.76156 23.4027 2.17743 23.0441 1.66984 22.5849C1.16225 22.1176 0.767456 21.5657 0.485461 20.9292C0.203466 20.2846 0.0664975 19.5716 0.0745545 18.79H4.05068C4.06679 19.1526 4.13125 19.491 4.24405 19.8052C4.35685 20.1194 4.5341 20.3773 4.77581 20.5787C5.02558 20.7721 5.35591 20.8768 5.76682 20.8929C6.2019 20.901 6.56849 20.8123 6.8666 20.627C7.16471 20.4417 7.41045 20.196 7.60382 19.8898C7.79718 19.5756 7.94221 19.2332 8.03889 18.8625C8.14363 18.4919 8.21212 18.1294 8.24435 17.7748C8.28463 17.4203 8.28463 17.0819 8.24435 16.7597C8.20406 16.4293 8.11543 16.1393 7.97847 15.8895C7.8415 15.6317 7.64007 15.4302 7.37419 15.2852C7.11637 15.1321 6.78603 15.0516 6.38318 15.0435C5.97227 15.0435 5.58151 15.116 5.21089 15.2611C4.84027 15.4061 4.51799 15.6317 4.24405 15.9378Z" fill="#C3C9D0"/>
<path d="M106.811 34.3504C106.811 34.0103 106.709 33.7139 106.505 33.4612C106.301 33.1989 106.034 32.9511 105.704 32.7179C105.383 32.4847 105.038 32.2515 104.669 32.0182C104.3 31.7753 103.95 31.5081 103.619 31.2166C103.299 30.9153 103.032 30.5655 102.818 30.1671C102.614 29.7687 102.512 29.3023 102.512 28.7679H104.202C104.202 29.0982 104.304 29.3946 104.509 29.657C104.722 29.9193 104.99 30.1671 105.31 30.4003C105.641 30.6336 105.99 30.8716 106.36 31.1145C106.729 31.3478 107.074 31.615 107.395 31.9162C107.725 32.2077 107.992 32.5527 108.196 32.9511C108.4 33.3398 108.502 33.8062 108.502 34.3504H106.811ZM102.512 28.7824C102.512 28.2577 102.643 27.801 102.905 27.4123C103.168 27.0139 103.527 26.7078 103.984 26.4941C104.45 26.2706 104.98 26.1588 105.573 26.1588V27.5435C105.145 27.5435 104.81 27.6553 104.567 27.8787C104.324 28.0925 104.202 28.3938 104.202 28.7824H102.512ZM108.502 34.3358C108.502 34.8702 108.371 35.3318 108.109 35.7205C107.846 36.1092 107.487 36.4152 107.03 36.6387C106.573 36.8525 106.044 36.9594 105.441 36.9594V35.5893C105.869 35.5893 106.204 35.4775 106.447 35.254C106.69 35.0306 106.811 34.7245 106.811 34.3358H108.502ZM106.811 28.7679C106.763 28.3597 106.622 28.0537 106.389 27.8496C106.165 27.6455 105.893 27.5435 105.573 27.5435V26.1588C106.068 26.1588 106.51 26.256 106.899 26.4503C107.288 26.6447 107.603 26.9167 107.846 27.2666C108.099 27.6067 108.259 28.0099 108.327 28.4763L106.811 28.7679ZM103.838 33.709C103.887 34.2921 104.052 34.7536 104.334 35.0937C104.615 35.4241 104.985 35.5893 105.441 35.5893V36.9594C104.557 36.9594 103.838 36.697 103.284 36.1723C102.74 35.6476 102.415 34.9188 102.308 33.986L103.838 33.709Z" fill="#C3C9D0"/>
<path d="M98.0189 36.7408V35.3561H101.94V36.7408H98.0189ZM98.1646 32.2807V30.8814H101.065V32.2807H98.1646ZM96.9111 26.3921H98.6019V36.7408H96.9111V26.3921ZM98.1646 26.3921H101.794V27.7622H98.1646V26.3921Z" fill="#C3C9D0"/>
<path d="M93.9834 36.7408V26.3921H95.6742V36.7408H93.9834Z" fill="#C3C9D0"/>
<path d="M90.6283 36.7408L86.5034 26.3921H88.0484L92.1587 36.7408H90.6283ZM86.1973 36.7408V26.3921H87.888V36.7408H86.1973ZM91.051 36.7408V26.3921H92.7417V36.7408H91.051Z" fill="#C3C9D0"/>
<path d="M80.7218 34.8314V33.4467H84.4386V34.8314H80.7218ZM83.1851 26.3921L80.6344 36.7408H78.9873L81.538 26.3921H83.1851ZM83.2142 26.3921L85.7504 36.7408H84.1034L81.5672 26.3921H83.2142Z" fill="#C3C9D0"/>
<path d="M75.1174 27.7622V26.3921H76.3563V27.7622H75.1174ZM75.1174 32.8928V31.5227H76.3563V32.8928H75.1174ZM77.7119 30.0652V29.2198H79.4026V30.0652H77.7119ZM79.4026 29.2344H77.7119C77.7119 28.7679 77.5904 28.4084 77.3475 28.1557C77.1045 27.8934 76.7693 27.7622 76.3418 27.7622V26.3921C76.9442 26.3921 77.4738 26.5136 77.9305 26.7565C78.3872 26.9994 78.7467 27.3347 79.0091 27.7622C79.2715 28.1898 79.4026 28.6805 79.4026 29.2344ZM79.4026 30.0506C79.4026 30.6045 79.2715 31.0952 79.0091 31.5227C78.7467 31.9503 78.3872 32.2855 77.9305 32.5285C77.4738 32.7714 76.9442 32.8928 76.3418 32.8928V31.5227C76.7693 31.5227 77.1045 31.3964 77.3475 31.1438C77.5904 30.8814 77.7119 30.517 77.7119 30.0506H79.4026ZM73.791 36.7408V26.3921H75.4818V36.7408H73.791Z" fill="#C3C9D0"/>
<path d="M68.1067 36.7408L70.395 26.3921H71.7506L69.4622 36.7408H68.1067ZM68.0629 36.7408L65.7746 26.3921H67.1301L69.4185 36.7408H68.0629ZM64.8271 36.7408V26.3921H66.5179V36.7408H64.8271ZM71.0072 36.7408V26.3921H72.698V36.7408H71.0072Z" fill="#C3C9D0"/>
<path d="M62.184 34.1318V28.9866H63.8748V34.1318H62.184ZM57.7676 34.1318V28.9866H59.4584V34.1318H57.7676ZM63.8748 29.0157H62.184C62.184 28.5493 62.0625 28.1898 61.8196 27.9371C61.5767 27.6748 61.2414 27.5436 60.8139 27.5436V26.1735C61.4163 26.1735 61.9459 26.2949 62.4026 26.5379C62.8593 26.7808 63.2189 27.116 63.4812 27.5436C63.7436 27.9711 63.8748 28.4618 63.8748 29.0157ZM57.7676 29.0157C57.7676 28.4618 57.8988 27.9711 58.1611 27.5436C58.4235 27.116 58.783 26.7808 59.2397 26.5379C59.7061 26.2949 60.2357 26.1735 60.8285 26.1735V27.5436C60.4009 27.5436 60.0657 27.6748 59.8227 27.9371C59.5798 28.1898 59.4584 28.5493 59.4584 29.0157H57.7676ZM63.8748 34.1172C63.8748 34.6711 63.7436 35.1618 63.4812 35.5894C63.2189 36.0169 62.8593 36.3522 62.4026 36.5951C61.9459 36.838 61.4163 36.9595 60.8139 36.9595V35.5748C61.2414 35.5748 61.5767 35.4485 61.8196 35.1958C62.0625 34.9335 62.184 34.5739 62.184 34.1172H63.8748ZM57.7676 34.1172H59.4584C59.4584 34.5739 59.5798 34.9335 59.8227 35.1958C60.0657 35.4485 60.4009 35.5748 60.8285 35.5748V36.9595C60.2357 36.9595 59.7061 36.838 59.2397 36.5951C58.783 36.3522 58.4235 36.0169 58.1611 35.5894C57.8988 35.1618 57.7676 34.6711 57.7676 34.1172Z" fill="#C3C9D0"/>
<path d="M51.0791 34.1317V28.9865H52.7699V34.1317H51.0791ZM51.0791 29.0011C51.0791 28.4472 51.2103 27.9565 51.4726 27.5289C51.735 27.1014 52.0945 26.7661 52.5512 26.5232C53.0177 26.2803 53.5472 26.1588 54.14 26.1588V27.5289C53.7124 27.5289 53.3772 27.6601 53.1343 27.9225C52.8913 28.1751 52.7699 28.5347 52.7699 29.0011H51.0791ZM51.0791 34.1317H52.7699C52.7699 34.5884 52.8913 34.948 53.1343 35.2103C53.3772 35.463 53.7124 35.5893 54.14 35.5893V36.974C53.5472 36.974 53.0177 36.8525 52.5512 36.6096C52.0945 36.3667 51.735 36.0314 51.4726 35.6039C51.2103 35.1763 51.0791 34.6856 51.0791 34.1317ZM55.7287 29.4092C55.6801 28.8262 55.515 28.3695 55.2332 28.0391C54.9514 27.699 54.5821 27.5289 54.1254 27.5289V26.1588C55.0097 26.1588 55.7287 26.4212 56.2826 26.9459C56.8365 27.4609 57.162 28.1897 57.2592 29.1323L55.7287 29.4092ZM55.7287 33.709L57.2592 34.0005C57.162 34.9334 56.8365 35.6622 56.2826 36.1869C55.7287 36.7116 55.0097 36.974 54.1254 36.974V35.5893C54.5821 35.5893 54.9514 35.4241 55.2332 35.0937C55.515 34.7633 55.6801 34.3018 55.7287 33.709Z" fill="#C3C9D0"/>
<path d="M44.8897 32.4992V31.1291H48.0818V32.4992H44.8897ZM46.391 34.1463V31.1729H48.0818V34.1463H46.391ZM41.9746 34.1317V28.9865H43.6654V34.1317H41.9746ZM41.9746 29.0011C41.9746 28.4472 42.1058 27.9565 42.3682 27.5289C42.6305 27.1014 42.99 26.7661 43.4468 26.5232C43.9132 26.2803 44.4428 26.1588 45.0355 26.1588V27.5289C44.6079 27.5289 44.2727 27.6601 44.0298 27.9225C43.7868 28.1751 43.6654 28.5347 43.6654 29.0011H41.9746ZM41.9746 34.1317H43.6654C43.6654 34.5884 43.7868 34.948 44.0298 35.2103C44.2727 35.463 44.6079 35.5893 45.0355 35.5893V36.974C44.4428 36.974 43.9132 36.8525 43.4468 36.6096C42.99 36.3667 42.6305 36.0314 42.3682 35.6039C42.1058 35.1763 41.9746 34.6856 41.9746 34.1317ZM46.6242 29.4092C46.5757 28.8262 46.4105 28.3695 46.1287 28.0391C45.8469 27.699 45.4776 27.5289 45.0209 27.5289V26.1588C45.9052 26.1588 46.6242 26.4212 47.1781 26.9459C47.732 27.4609 48.0575 28.1897 48.1547 29.1323L46.6242 29.4092ZM48.0818 34.1317C48.0818 34.6856 47.9506 35.1763 47.6883 35.6039C47.4259 36.0314 47.0664 36.3667 46.6097 36.6096C46.153 36.8525 45.6234 36.974 45.0209 36.974V35.5893C45.4485 35.5893 45.7837 35.463 46.0266 35.2103C46.2696 34.948 46.391 34.5884 46.391 34.1317H48.0818Z" fill="#C3C9D0"/>
<path d="M38.9818 36.7408L34.8569 26.3921H36.4019L40.5122 36.7408H38.9818ZM34.5508 36.7408V26.3921H36.2416V36.7408H34.5508ZM39.4045 36.7408V26.3921H41.0952V36.7408H39.4045Z" fill="#C3C9D0"/>
<path d="M31.625 36.7408V26.3921H33.3158V36.7408H31.625Z" fill="#C3C9D0"/>
<path d="M27.0609 36.7408L25.0786 26.3921H26.507L28.5622 36.7408H27.0609ZM22.4404 36.7408L20.4873 26.3921H22.1344L24.0875 36.7408H22.4404ZM22.9652 36.7408L25.0203 26.3921H26.4487L24.4665 36.7408H22.9652ZM27.4399 36.7408L29.393 26.3921H31.0401L29.0869 36.7408H27.4399Z" fill="#C3C9D0"/>
<path d="M18.2065 34.1318V28.9866H19.8972V34.1318H18.2065ZM13.79 34.1318V28.9866H15.4808V34.1318H13.79ZM19.8972 29.0157H18.2065C18.2065 28.5493 18.085 28.1898 17.8421 27.9371C17.5991 27.6748 17.2639 27.5436 16.8363 27.5436V26.1735C17.4388 26.1735 17.9684 26.2949 18.4251 26.5379C18.8818 26.7808 19.2413 27.116 19.5037 27.5436C19.7661 27.9711 19.8972 28.4618 19.8972 29.0157ZM13.79 29.0157C13.79 28.4618 13.9212 27.9711 14.1836 27.5436C14.4459 27.116 14.8055 26.7808 15.2622 26.5379C15.7286 26.2949 16.2582 26.1735 16.8509 26.1735V27.5436C16.4234 27.5436 16.0881 27.6748 15.8452 27.9371C15.6023 28.1898 15.4808 28.5493 15.4808 29.0157H13.79ZM19.8972 34.1172C19.8972 34.6711 19.7661 35.1618 19.5037 35.5894C19.2413 36.0169 18.8818 36.3522 18.4251 36.5951C17.9684 36.838 17.4388 36.9595 16.8363 36.9595V35.5748C17.2639 35.5748 17.5991 35.4485 17.8421 35.1958C18.085 34.9335 18.2065 34.5739 18.2065 34.1172H19.8972ZM13.79 34.1172H15.4808C15.4808 34.5739 15.6023 34.9335 15.8452 35.1958C16.0881 35.4485 16.4234 35.5748 16.8509 35.5748V36.9595C16.2582 36.9595 15.7286 36.838 15.2622 36.5951C14.8055 36.3522 14.4459 36.0169 14.1836 35.5894C13.9212 35.1618 13.79 34.6711 13.79 34.1172Z" fill="#C3C9D0"/>
<path d="M11.4553 36.7408L9.61882 31.7851H11.295L13.1315 36.7408H11.4553ZM8.7297 32.5722V31.1875H9.96863V32.5722H8.7297ZM8.7297 27.7622V26.3921H9.96863V27.7622H8.7297ZM11.3242 29.7445V29.2198H13.0149V29.7445H11.3242ZM13.0149 29.2344H11.3242C11.3242 28.7679 11.2027 28.4084 10.9598 28.1557C10.7168 27.8934 10.3816 27.7622 9.95406 27.7622V26.3921C10.5565 26.3921 11.0861 26.5136 11.5428 26.7565C11.9995 26.9994 12.359 27.3347 12.6214 27.7622C12.8838 28.1898 13.0149 28.6805 13.0149 29.2344ZM13.0149 29.7299C13.0149 30.2838 12.8838 30.7745 12.6214 31.2021C12.359 31.6296 11.9995 31.9649 11.5428 32.2078C11.0861 32.4507 10.5565 32.5722 9.95406 32.5722V31.1875C10.3816 31.1875 10.7168 31.0612 10.9598 30.8085C11.2027 30.5462 11.3242 30.1866 11.3242 29.7299H13.0149ZM7.40332 36.7408V26.3921H9.09409V36.7408H7.40332Z" fill="#C3C9D0"/>
<path d="M3.18759 32.4992V31.1291H6.37965V32.4992H3.18759ZM4.68888 34.1463V31.1729H6.37965V34.1463H4.68888ZM0.272461 34.1317V28.9865H1.96324V34.1317H0.272461ZM0.272461 29.0011C0.272461 28.4472 0.403642 27.9565 0.666003 27.5289C0.928365 27.1014 1.2879 26.7661 1.7446 26.5232C2.21102 26.2803 2.7406 26.1588 3.33335 26.1588V27.5289C2.90579 27.5289 2.57055 27.6601 2.32763 27.9225C2.0847 28.1751 1.96324 28.5347 1.96324 29.0011H0.272461ZM0.272461 34.1317H1.96324C1.96324 34.5884 2.0847 34.948 2.32763 35.2103C2.57055 35.463 2.90579 35.5893 3.33335 35.5893V36.974C2.7406 36.974 2.21102 36.8525 1.7446 36.6096C1.2879 36.3667 0.928365 36.0314 0.666003 35.6039C0.403642 35.1763 0.272461 34.6856 0.272461 34.1317ZM4.92209 29.4092C4.87351 28.8262 4.70831 28.3695 4.42652 28.0391C4.14472 27.699 3.77547 27.5289 3.31877 27.5289V26.1588C4.20303 26.1588 4.92209 26.4212 5.47597 26.9459C6.02984 27.4609 6.35536 28.1897 6.45253 29.1323L4.92209 29.4092ZM6.37965 34.1317C6.37965 34.6856 6.24847 35.1763 5.98611 35.6039C5.72375 36.0314 5.36422 36.3667 4.90752 36.6096C4.45081 36.8525 3.92123 36.974 3.31877 36.974V35.5893C3.74632 35.5893 4.08156 35.463 4.32449 35.2103C4.56742 34.948 4.68888 34.5884 4.68888 34.1317H6.37965Z" fill="#C3C9D0"/>
<path d="M37.1284 0.973999C37.5866 0.973999 38.0447 1.11426 38.372 1.32932L38.0868 1.94177C37.7408 1.73606 37.3294 1.60515 37.0676 1.60515C36.8198 1.60515 36.6515 1.69398 36.6515 1.87164C36.6515 2.47475 38.3954 2.13813 38.3907 3.31629C38.3907 3.95679 37.8343 4.30276 37.1097 4.30276C36.572 4.30276 36.0344 4.09705 35.665 3.78381L35.9596 3.1807C36.2962 3.47992 36.7731 3.6716 37.119 3.6716C37.4229 3.6716 37.6053 3.5594 37.6053 3.35836C37.6053 2.74123 35.8614 3.10123 35.8614 1.94177C35.8614 1.34802 36.371 0.973999 37.1284 0.973999Z" fill="#C3C9D0"/>
<path d="M35.0374 1.00208C35.2244 1.00208 35.388 1.13298 35.388 1.36674C35.388 1.47895 35.3506 1.57245 35.2899 1.65661L34.9766 2.1288H34.626L34.8223 1.65661C34.7242 1.58648 34.6774 1.48362 34.6774 1.36674C34.6774 1.15636 34.8317 1.00208 35.0374 1.00208Z" fill="#C3C9D0"/>
<path d="M33.307 3.22253V4.27913H32.5683V3.24123L31.3574 1.00647H32.1008L32.9376 2.47449L33.7558 1.00647H34.4992L33.307 3.22253Z" fill="#C3C9D0"/>
<path d="M31.1003 1.61892H29.3471V2.32956H30.9273V2.94201H29.3471V3.66667H31.1517V4.27913H28.6084V1.00647H31.1003V1.61892Z" fill="#C3C9D0"/>
<path d="M26.8276 0.973999C27.2858 0.973999 27.7439 1.11426 28.0712 1.32932L27.786 1.94177C27.4401 1.73606 27.0286 1.60515 26.7668 1.60515C26.519 1.60515 26.3507 1.69398 26.3507 1.87164C26.3507 2.47475 28.0946 2.13813 28.0899 3.31629C28.0899 3.95679 27.5336 4.30276 26.8089 4.30276C26.2712 4.30276 25.7336 4.09705 25.3643 3.78381L25.6588 3.1807C25.9954 3.47992 26.4723 3.6716 26.8182 3.6716C27.1221 3.6716 27.3045 3.5594 27.3045 3.35836C27.3045 2.74123 25.5606 3.10123 25.5606 1.94177C25.5606 1.34802 26.0702 0.973999 26.8276 0.973999Z" fill="#C3C9D0"/>
<path d="M24.2574 4.27913L23.7385 3.34408H23.6683H22.9858V4.27913H22.2471V1.00647H23.6683C24.5239 1.00647 25.0101 1.41789 25.0101 2.14255C25.0101 2.64747 24.7951 3.01214 24.3977 3.19915L25.0943 4.27913H24.2574ZM22.9858 2.72695H23.6683C24.0751 2.72695 24.3088 2.53994 24.3088 2.16592C24.3088 1.80126 24.0751 1.61892 23.6683 1.61892H22.9858V2.72695Z" fill="#C3C9D0"/>
<path d="M21.6169 1.61892H19.8637V2.32956H21.4439V2.94201H19.8637V3.66667H21.6683V4.27913H19.125V1.00647H21.6169V1.61892Z" fill="#C3C9D0"/>
<path d="M18.4632 1.00647V3.23188C18.4632 3.91913 18.0425 4.31185 17.3646 4.31185C16.9251 4.31185 16.5698 4.12484 16.2939 3.80225L16.6352 3.27863C16.8643 3.52174 17.1261 3.6433 17.3272 3.6433C17.5703 3.6433 17.7199 3.49369 17.7199 3.21318V1.63295H16.5932V1.00647H18.4632Z" fill="#C3C9D0"/>
<path d="M14.1367 4.27913H13.3747L12.7155 1.94619L12.0422 4.27913H11.2802L10.2002 1.00647H10.995L11.6822 3.47499L12.3648 1.00647H13.0895L13.7814 3.47499L14.464 1.00647H15.2214L14.1367 4.27913Z" fill="#C3C9D0"/>
<path d="M9.93036 1.61892H8.17716V2.32956H9.75738V2.94201H8.17716V3.66667H9.98179V4.27913H7.43848V1.00647H9.93036V1.61892Z" fill="#C3C9D0"/>
<path d="M6.71701 4.27913H6.04378L4.45889 2.17995V4.27913H3.75293V1.00647H4.42616L6.01573 3.11032V1.00647H6.71701V4.27913Z" fill="#C3C9D0"/>
</svg>
