<svg width="109" height="43" viewBox="0 0 109 43" fill="none" xmlns="http://www.w3.org/2000/svg">
<path d="M13.5928 7.9251V7.82481L14.0576 7.46026L14.5225 7.0957L14.1579 7.56055L13.7933 8.02539H13.6931H13.5928V7.9251ZM36.4785 1.38477V0.720703L36.6124 1.05273L36.7464 1.38477L36.6124 1.7168L36.4785 2.04883V1.38477Z" fill="black"/>
<path d="M43.2764 38.3964L43.6084 38.2624L43.9404 38.3964L44.2725 38.5303H43.6084H42.9443L43.2764 38.3964ZM46.6017 38.3882L47.0716 38.2658L47.3986 38.3981L47.7256 38.5304L46.9287 38.5205L46.1318 38.5106L46.6017 38.3882ZM26.9943 30.8027L25.9443 29.6738L27.0732 30.7238L28.2021 31.7738V31.8527V31.9316H28.1232H28.0443L26.9943 30.8027Z" fill="black"/>
<path d="M26.5738 41.7296C25.8146 41.5631 25.0167 41.4572 24.2962 41.2301C23.5757 41.0031 22.2646 40.384 22.2646 40.384L20.233 39.5379L18.2452 38.2327L16.2574 36.9274L14.5321 35.3402L12.8068 33.753L19.9575 30.0867L27.1082 26.4204H27.3104H27.5126L28.1419 27.6066L28.7712 28.7929L30.1956 30.5197C30.1956 30.5197 30.7081 31.3901 31.62 32.2466C32.5319 33.1031 32.5169 33.0244 33.6617 33.7448C34.8065 34.4653 35.7034 34.9778 35.7034 34.9778L37.7706 35.6264L39.8378 36.2751L41.762 36.4643L43.6863 36.6535L44.5086 36.4729L45.3309 36.2923V35.9442V35.596L46.0678 35.3178L47.2574 34.8928L47.5345 35.2486L48.6804 34.748L49.1918 34.5202L49.6666 34.3902L50.5163 35.659L51.2803 36.8788L51.1281 37.2753L50.976 37.6719L49.8952 38.1043L48.8144 38.5368L48.5697 38.6715L48.8144 39.0021L48.2115 39.3921L47.5719 39.6597L46.8717 39.9632L46.3183 40.1566L46.2449 39.6645L46.1348 39.2824H46.0327H45.9307L44.1091 39.9681L42.2875 40.6537L39.5889 41.3256L36.8903 41.9974L32.8709 42.1133C32.8709 42.1133 30.3699 42.4607 28.8515 42.2292C27.3331 41.9976 27.3331 41.8962 26.5738 41.7296ZM9.47211 29.301L8.16358 27.3583L7.70245 26.4625L7.24132 25.5667L7.32807 25.5048L7.41482 25.4428L15.5875 21.7983L23.7603 18.1539C24.0578 18.0305 24.2889 17.9512 24.5516 17.8084L25.2664 20.7626L26.0547 23.5454L25.9793 23.5998L25.9039 23.6543L18.4831 27.449L11.0622 31.2437H10.9214H10.7806L9.47211 29.301ZM5.14306 21.4141L4.58795 20.1592L3.89784 17.9458L3.20773 15.7323L2.63169 15.6502L2.05565 15.5681L1.16796 13.8895L0.280273 12.2109L0.435399 11.7221L0.590524 11.2333L11.3715 6.62724L22.1525 2.02114C22.1525 2.02114 22.5003 1.85487 22.6987 1.80844C22.8971 1.76201 22.9634 2.07293 22.9634 2.07293L23.0086 2.8736L23.0904 3.71097L23.1813 5.33998L23.2845 6.98122L23.5432 10.8599L23.8998 14.5182C23.8998 14.5182 23.9161 14.6382 23.824 14.7785C23.7319 14.9187 23.6257 14.9285 23.6257 14.9285L14.9857 18.7498L6.21116 22.669H5.95466H5.69817L5.14306 21.4141Z" fill="#38A8BE"/>
<path d="M58.8243 28.5146V13.9692H68.1425V16.178H61.4593V20.1269H67.5033V22.3357H61.4593V28.5146H58.8243ZM73.0004 13.9692V28.5146H70.4294V13.9692H73.0004ZM78.7835 28.7348C78.0922 28.7348 77.4695 28.6117 76.9156 28.3655C76.3663 28.1146 75.9307 27.7452 75.6088 27.2575C75.2915 26.7699 75.1329 26.1685 75.1329 25.4536C75.1329 24.838 75.2465 24.329 75.4738 23.9266C75.7011 23.5241 76.0112 23.2021 76.4042 22.9607C76.7972 22.7192 77.2399 22.5369 77.7323 22.4138C78.2295 22.286 78.7432 22.1936 79.2735 22.1368C79.9127 22.0705 80.4312 22.0113 80.8289 21.9593C81.2267 21.9024 81.5155 21.8172 81.6954 21.7036C81.8801 21.5852 81.9724 21.4029 81.9724 21.1567V21.1141C81.9724 20.579 81.8138 20.1647 81.4965 19.8712C81.1793 19.5776 80.7224 19.4308 80.1258 19.4308C79.4961 19.4308 78.9965 19.5682 78.6272 19.8428C78.2626 20.1174 78.0164 20.4417 77.8886 20.8158L75.488 20.4749C75.6774 19.812 75.9899 19.258 76.4255 18.8129C76.8611 18.3631 77.3938 18.027 78.0235 17.8044C78.6533 17.5771 79.3493 17.4635 80.1116 17.4635C80.6372 17.4635 81.1604 17.5251 81.6812 17.6482C82.202 17.7713 82.6779 17.9749 83.1088 18.259C83.5396 18.5383 83.8853 18.9195 84.1457 19.4024C84.4108 19.8854 84.5434 20.4891 84.5434 21.2135V28.5146H82.0718V27.0161H81.9866C81.8303 27.3191 81.6102 27.6032 81.3261 27.8683C81.0467 28.1288 80.694 28.3395 80.2678 28.5004C79.8464 28.6567 79.3517 28.7348 78.7835 28.7348ZM79.4511 26.8456C79.9672 26.8456 80.4146 26.7438 80.7934 26.5402C81.1722 26.3319 81.4634 26.0573 81.667 25.7164C81.8753 25.3754 81.9795 25.0038 81.9795 24.6013V23.3158C81.899 23.3821 81.7617 23.4436 81.5676 23.5004C81.3782 23.5573 81.1651 23.607 80.9284 23.6496C80.6916 23.6922 80.4572 23.7301 80.2252 23.7632C79.9932 23.7964 79.792 23.8248 79.6215 23.8485C79.238 23.9005 78.8947 23.9858 78.5917 24.1041C78.2887 24.2225 78.0496 24.3882 77.8744 24.6013C77.6992 24.8096 77.6116 25.0795 77.6116 25.411C77.6116 25.8844 77.7844 26.2419 78.1301 26.4834C78.4757 26.7249 78.916 26.8456 79.4511 26.8456ZM95.7508 20.4891L93.407 20.7448C93.3408 20.508 93.2248 20.2855 93.059 20.0771C92.8981 19.8688 92.6802 19.7007 92.4056 19.5729C92.131 19.445 91.7948 19.3811 91.3971 19.3811C90.8621 19.3811 90.4123 19.4971 90.0477 19.7291C89.6878 19.9611 89.5103 20.2618 89.515 20.6311C89.5103 20.9484 89.6263 21.2064 89.863 21.4053C90.1045 21.6041 90.5022 21.7675 91.0562 21.8953L92.917 22.2931C93.9492 22.5156 94.7162 22.8683 95.2181 23.3513C95.7248 23.8343 95.9804 24.4664 95.9852 25.2476C95.9804 25.9342 95.7792 26.5402 95.3815 27.0658C94.9885 27.5866 94.4416 27.9938 93.7409 28.2874C93.0401 28.5809 92.2352 28.7277 91.3261 28.7277C89.9909 28.7277 88.916 28.4484 88.1017 27.8896C87.2873 27.3262 86.8019 26.5426 86.6457 25.5388L89.1528 25.2973C89.2664 25.7897 89.5079 26.1614 89.8772 26.4124C90.2465 26.6633 90.7271 26.7888 91.319 26.7888C91.9298 26.7888 92.4198 26.6633 92.7892 26.4124C93.1632 26.1614 93.3502 25.8513 93.3502 25.482C93.3502 25.1695 93.2295 24.9114 92.988 24.7078C92.7513 24.5042 92.382 24.348 91.8801 24.2391L90.0193 23.8485C88.9729 23.6307 88.1987 23.2637 87.6968 22.7476C87.1949 22.2268 86.9463 21.5686 86.9511 20.7732C86.9463 20.1008 87.1286 19.5184 87.498 19.026C87.872 18.5289 88.3905 18.1453 89.0534 17.8754C89.721 17.6008 90.4904 17.4635 91.3616 17.4635C92.64 17.4635 93.6462 17.7358 94.3801 18.2803C95.1187 18.8248 95.5756 19.561 95.7508 20.4891ZM100.449 25.0914L100.442 21.9877H100.854L104.774 17.6056H107.778L102.956 22.9749H102.423L100.449 25.0914ZM98.1052 28.5146V13.9692H100.676V28.5146H98.1052ZM104.952 28.5146L101.401 23.5502L103.134 21.7391L108.027 28.5146H104.952Z" fill="white"/>
</svg>
