<svg width="164" height="24" viewBox="0 0 164 24" fill="none" xmlns="http://www.w3.org/2000/svg">
<path d="M160.909 11.2227C159.493 11.2227 158.352 10.1787 158.352 8.87918C158.352 7.58083 159.493 6.53674 160.909 6.53674C162.325 6.53674 163.465 7.58083 163.465 8.87918C163.438 10.1787 162.298 11.2227 160.909 11.2227ZM160.909 6.78989C159.657 6.78989 158.658 7.75859 158.658 8.87805C158.658 10.0245 159.685 10.9673 160.909 10.9673C162.131 10.9673 163.159 10.0009 163.159 8.87805C163.159 7.75859 162.131 6.78989 160.909 6.78989ZM161.576 10.1022L160.882 9.05694H160.407V10.1022H160.101V7.58083H160.991C161.467 7.58083 161.854 7.88572 161.854 8.32001C161.854 8.70254 161.576 8.93206 161.215 9.03332L161.938 10.1033L161.576 10.1022ZM160.964 7.8621H160.407V8.77792H160.964C161.297 8.77792 161.55 8.59903 161.55 8.31888C161.549 8.06574 161.296 7.8621 160.964 7.8621Z" fill="#1FA34B"/>
<path d="M124.333 6.61304C124.249 6.61304 124.219 6.63891 123.443 6.66367C122.637 6.68842 121.162 6.7143 118.103 6.7143H116.688H115.825H114.408C111.377 6.7143 109.879 6.68842 109.07 6.66367C108.292 6.63891 108.266 6.61304 108.181 6.61304C107.819 6.61304 107.819 6.8178 107.819 7.4546V9.92418C107.819 10.0513 107.819 10.3832 108.125 10.3832C108.459 10.3832 108.514 10.2808 109.043 9.28737C109.376 8.59995 110.071 7.60537 114.077 7.55586C114.49 7.58061 114.658 7.65712 114.658 8.24329V20.7768C114.658 21.8209 114.658 22.5589 113.186 22.6354C112.574 22.6861 112.157 22.7097 112.157 23.0922C112.157 23.5006 112.546 23.5006 112.767 23.5006C113.325 23.5006 115.713 23.3994 116.215 23.3994C117.189 23.3994 118.716 23.5006 119.69 23.5006C119.909 23.5006 120.302 23.5006 120.302 23.0922C120.302 22.6861 119.884 22.6591 119.272 22.6354C117.797 22.5589 117.797 21.8197 117.797 20.7239V8.44693C117.797 7.7325 117.883 7.60537 118.743 7.55586C122.412 7.65712 123.077 8.59994 123.413 9.26262C123.94 10.2561 123.997 10.3573 124.331 10.3573C124.638 10.3573 124.638 10.0266 124.638 9.90055V7.4276C124.693 6.8178 124.693 6.61304 124.333 6.61304Z" fill="#1FA34B"/>
<path d="M92.5639 19.2221C92.2865 19.2221 92.2312 19.3233 91.7021 20.2661C90.3971 22.558 88.5901 22.558 87.2839 22.558C84.8078 22.558 84.1964 22.2531 84.1964 20.3404V15.7039C84.1964 14.8905 84.4186 14.8905 85.8365 14.8905C88.2537 14.8905 89.0603 14.9141 89.6986 17.0045C89.8373 17.5142 90.0313 17.6413 90.2535 17.6413C90.6181 17.6413 90.6181 17.2588 90.6181 17.1069C90.6181 16.8999 90.5309 15.9593 90.5309 15.7534C90.5309 15.1706 90.7286 12.3939 90.7286 12.0114C90.7286 11.7065 90.5911 11.6288 90.3959 11.6288C90.256 11.6288 90.0878 11.6795 89.9503 12.0372C89.4212 13.4639 89.145 14.05 85.893 14.05C84.1977 14.05 84.1977 13.8453 84.1977 12.9778V9.08276C84.1977 7.73265 84.3069 7.55376 85.7801 7.55376C89.9491 7.55376 90.6721 8.57422 91.0073 9.2864C91.5351 10.2799 91.5904 10.3811 91.9231 10.3811C92.2287 10.3811 92.2288 10.0503 92.2288 9.92207V7.45363C92.2288 6.8427 92.2288 6.61206 91.8666 6.61206C91.7831 6.61206 91.7561 6.63794 90.9778 6.66269C90.1725 6.68744 88.6711 6.71332 85.6413 6.71332H84.2234C81.7228 6.71332 80.4706 6.68744 79.8028 6.66269C79.1644 6.63794 79.1362 6.61206 79.0797 6.61206C78.8857 6.61206 78.4966 6.61206 78.4966 6.99459C78.4966 7.40187 78.914 7.42775 79.5536 7.45363C81.0255 7.53013 81.0255 8.26819 81.0255 9.36515V20.7522C81.0255 21.8469 81.0255 22.585 79.5536 22.6615C78.9398 22.7121 78.4966 22.738 78.4966 23.1205C78.4966 23.5267 78.8857 23.5267 79.1079 23.5267C79.3031 23.5267 79.5536 23.503 80.0262 23.476C80.4988 23.449 81.2207 23.4231 82.4446 23.4231H82.8055C82.9725 23.4231 84.3646 23.449 86.0293 23.476C87.7246 23.4997 89.7809 23.5267 91.281 23.5267C92.1453 23.5267 92.4215 23.2218 92.4485 22.711C92.5332 21.7175 92.8671 19.986 92.8671 19.6305C92.899 19.4505 92.8143 19.2221 92.5639 19.2221Z" fill="#1FA34B"/>
<path d="M140.565 19.2221C140.285 19.2221 140.231 19.3233 139.702 20.2661C138.396 22.558 136.588 22.558 135.281 22.558C132.807 22.558 132.196 22.2531 132.196 20.3404V15.7039C132.196 14.8905 132.42 14.8905 133.835 14.8905C136.254 14.8905 137.061 14.9141 137.699 17.0045C137.836 17.5142 138.033 17.6413 138.254 17.6413C138.616 17.6413 138.616 17.2588 138.616 17.1069C138.616 16.8999 138.532 15.9593 138.532 15.7534C138.532 15.1706 138.726 12.3939 138.726 12.0114C138.726 11.7065 138.59 11.6288 138.395 11.6288C138.255 11.6288 138.09 11.6795 137.953 12.0372C137.422 13.4639 137.145 14.05 133.892 14.05C132.198 14.05 132.198 13.8453 132.198 12.9778V9.08276C132.198 7.73265 132.308 7.55376 133.781 7.55376C137.952 7.55376 138.671 8.57422 139.006 9.2864C139.536 10.2799 139.589 10.3811 139.923 10.3811C140.229 10.3811 140.229 10.0503 140.229 9.92207V7.45363C140.229 6.8427 140.229 6.61206 139.868 6.61206C139.784 6.61206 139.756 6.63794 138.977 6.66269C138.172 6.68744 136.67 6.71332 133.641 6.71332H132.223C129.722 6.71332 128.472 6.68744 127.802 6.66269C127.163 6.63794 127.135 6.61206 127.082 6.61206C126.886 6.61206 126.494 6.61206 126.494 6.99459C126.494 7.40187 126.913 7.42775 127.551 7.45363C129.023 7.53013 129.023 8.26819 129.023 9.36515V20.7522C129.023 21.8469 129.023 22.585 127.551 22.6615C126.94 22.7121 126.494 22.738 126.494 23.1205C126.494 23.5267 126.885 23.5267 127.105 23.5267C127.302 23.5267 127.551 23.503 128.025 23.476C128.495 23.4501 129.218 23.4231 130.442 23.4231H130.807C130.973 23.4231 132.358 23.449 134.029 23.476C135.725 23.4997 137.783 23.5267 139.283 23.5267C140.144 23.5267 140.421 23.2218 140.45 22.711C140.532 21.7175 140.867 19.986 140.867 19.6305C140.897 19.4505 140.816 19.2221 140.565 19.2221Z" fill="#1FA34B"/>
<path d="M101.818 13.1072C99.4283 12.1925 97.6777 11.5028 97.6777 9.56651C97.6777 8.49768 98.6242 6.94393 100.958 6.96868C103.459 6.99343 103.988 8.49768 104.35 9.56651C104.654 10.4081 104.767 10.5858 105.073 10.5858C105.489 10.5858 105.489 10.3563 105.489 9.77015C105.489 7.35009 105.489 7.09694 105.126 6.91805C104.711 6.71328 102.933 6.28125 101.21 6.28125C97.4015 6.28125 95.2888 8.4718 95.2888 11.0179C95.2888 13.9229 97.6495 15.0187 100.096 15.9863C102.263 16.9021 104.295 17.9462 104.295 20.0872C104.295 22.3048 101.93 23.0665 100.682 23.0665C98.542 23.0665 96.4857 21.4115 95.9284 19.0161C95.8744 18.7607 95.8167 18.4817 95.5675 18.4817C95.2041 18.4817 95.1795 18.8642 95.1795 18.9633C95.1513 19.959 95.29 21.1302 95.3477 21.4857C95.4287 22.1709 95.5405 22.7334 95.8756 22.9382C96.401 23.2937 97.9036 23.8281 100.237 23.8281C104.241 23.8281 106.687 21.2832 106.687 18.2263C106.655 15.12 103.514 13.771 101.818 13.1072Z" fill="#1FA34B"/>
<path d="M31.1127 6.28125C25.36 6.28125 20.9946 10.0773 20.9946 15.0187C20.9946 20.2661 25.8302 23.8304 31.0292 23.8304C36.087 23.8304 41.0073 20.0861 41.0073 14.7633C41.0343 10.0244 36.6713 6.28125 31.1127 6.28125ZM31.2784 23.0923C27.3316 23.0923 24.497 18.8912 24.497 14.4584C24.497 10.56 27.1376 7.04631 30.7788 7.04631C35.4474 7.04631 37.5319 11.6322 37.5319 14.8916C37.5319 18.8384 35.3639 23.0923 31.2784 23.0923Z" fill="#1FA34B"/>
<path d="M19.1322 0.0404053C19.077 0.0404053 19.0488 0.0910342 17.9083 0.116911C16.7973 0.141663 14.5741 0.192292 10.1546 0.192292H9.23884C5.0416 0.192292 3.48498 0.140538 2.40099 0.116911C1.34401 0.0662823 1.28877 0.0404053 1.20652 0.0404053C0.900839 0.0404053 0.344727 0.0404053 0.344727 0.575948C0.344727 1.11037 0.984317 1.16212 1.87434 1.23863C3.98585 1.36576 3.98585 2.40984 3.98585 4.01422V14.5091V20.139C3.98585 21.4373 3.98585 22.3295 2.17879 22.4308C1.42872 22.5073 0.927846 22.5321 0.927846 22.9911C0.927846 23.4749 1.40048 23.4749 1.67792 23.4749C2.37398 23.4749 5.37429 23.35 5.98564 23.35C7.18135 23.35 9.12712 23.4749 10.3216 23.4749C10.6003 23.4749 11.0717 23.4749 11.0717 22.9911C11.0717 22.4814 10.572 22.4544 9.79372 22.4308C7.98667 22.3295 7.98667 21.4373 7.98667 20.0884V14.5327V14.1018C7.98667 13.0048 7.98667 12.548 8.6815 12.3939C9.1259 12.2926 11.0999 12.2926 12.3496 12.2926C13.4066 12.2926 16.1307 12.2926 16.7138 14.4067C16.7973 14.6114 17.076 15.6038 17.1852 15.885C17.2687 16.0853 17.4357 16.5196 17.8531 16.496C18.3527 16.4701 18.3527 16.0369 18.3527 15.7556L18.1857 13.9229C18.1023 13.0307 18.1023 12.3691 18.1023 12.0136C18.1023 11.4263 18.2422 8.77672 18.2422 8.2423C18.2422 7.85977 18.1023 7.6055 17.7426 7.5785C17.3522 7.55375 17.1582 7.8834 17.076 8.21418C16.5469 10.227 15.9343 11.0933 12.4896 11.0933C11.8512 11.0933 9.32109 11.0933 8.6815 11.019C8.12661 10.9425 8.01613 10.8919 8.01613 8.80372V3.35154C8.01613 1.51765 8.7392 1.44227 10.1829 1.44227C16.7985 1.44227 17.3546 2.28271 18.6044 4.88054C18.7713 5.21131 18.937 5.67035 19.4109 5.67035C19.8835 5.67035 19.8835 5.05943 19.8835 4.93117V0.753712C19.8553 0.245172 19.8013 0.0404053 19.1322 0.0404053Z" fill="#1FA34B"/>
<path d="M58.1825 22.6851C57.3489 22.5838 56.9585 21.8941 56.3472 20.9513L53.4844 16.3193C52.8178 15.1965 52.4581 15.0187 52.0677 14.8139C53.0682 14.6362 56.098 13.9746 56.098 10.8142C56.098 9.87254 55.6524 6.58728 50.4558 6.58728C49.5658 6.58728 45.6755 6.68854 44.8689 6.68854C44.508 6.68854 43.0631 6.58728 42.7832 6.58728C41.8109 6.58728 41.6992 6.58728 41.6992 6.96869C41.6992 7.35122 42.1166 7.37597 42.7562 7.40297C44.1999 7.47835 44.1999 8.21753 44.1999 9.3145V20.7522C44.1999 21.8705 44.1999 22.5849 42.7562 22.6884C42.1436 22.7121 41.6992 22.7391 41.6992 23.1216C41.6992 23.5277 42.0896 23.5041 42.3118 23.5041C42.8397 23.5041 45.2299 23.4029 45.7295 23.4029C45.8412 23.4029 48.704 23.5041 49.2589 23.5041C49.4811 23.5041 49.8715 23.5277 49.8715 23.1463C49.8715 22.7402 49.4541 22.7132 48.8145 22.6896C47.3426 22.6108 47.3426 21.8716 47.3426 20.7533V15.912C47.3426 15.4552 47.3978 15.3011 47.8987 15.3011C49.2331 15.3011 49.3731 15.4024 50.0114 16.5758L53.5679 22.7132C53.9005 23.2735 54.0123 23.5289 54.5401 23.5289C54.8188 23.5289 58.0425 23.5289 58.4035 23.5289C58.5974 23.5289 58.9031 23.4782 58.9031 23.197C58.9608 22.8898 58.7926 22.7863 58.1825 22.6851ZM48.8427 14.5855C47.3708 14.5855 47.3708 14.5327 47.3708 13.5921V9.05798C47.3708 8.01277 47.3978 7.35122 48.7605 7.35122C52.4004 7.35122 52.8178 10.2292 52.8178 11.1979C52.8178 14.5855 49.8997 14.5855 48.8427 14.5855Z" fill="#1FA34B"/>
<path d="M76.6376 22.6851C75.8052 22.5838 75.4149 21.8941 74.8023 20.9513L71.9395 16.3193C71.2729 15.1965 70.9132 15.0187 70.524 14.8139C71.5233 14.6362 74.5531 13.9746 74.5531 10.8142C74.5531 9.87254 74.1087 6.58728 68.9121 6.58728C68.0209 6.58728 64.1318 6.68854 63.324 6.68854C62.9631 6.68854 61.5182 6.58728 61.2395 6.58728C60.266 6.58728 60.1543 6.58728 60.1543 6.96869C60.1543 7.35122 60.5717 7.37597 61.2113 7.40297C62.6562 7.47835 62.6562 8.21753 62.6562 9.3145V20.7522C62.6562 21.8705 62.6562 22.5849 61.2113 22.6884C60.5987 22.7121 60.1543 22.7391 60.1543 23.1216C60.1543 23.5278 60.5447 23.5041 60.7681 23.5041C61.296 23.5041 63.6849 23.4029 64.1846 23.4029C64.2963 23.4029 67.1603 23.5041 67.7152 23.5041C67.9399 23.5041 68.3266 23.5277 68.3266 23.1463C68.3266 22.7402 67.9092 22.7132 67.2708 22.6896C65.7977 22.6108 65.7977 21.8716 65.7977 20.7533V15.912C65.7977 15.4552 65.8541 15.3011 66.3526 15.3011C67.6882 15.3011 67.8269 15.4024 68.4653 16.5758L72.0229 22.7132C72.3556 23.2735 72.4661 23.5289 72.9952 23.5289C73.2727 23.5289 76.4976 23.5289 76.8573 23.5289C77.0525 23.5289 77.3582 23.4782 77.3582 23.197C77.3889 22.8898 77.2501 22.7863 76.6376 22.6851ZM67.299 14.5855C65.8247 14.5855 65.8247 14.5327 65.8247 13.5921V9.05798C65.8247 8.01277 65.8529 7.35122 67.2143 7.35122C70.8542 7.35122 71.2741 10.2292 71.2741 11.1979C71.2458 14.5855 68.356 14.5855 67.299 14.5855Z" fill="#1FA34B"/>
<path d="M159.019 22.6851C158.185 22.5838 157.796 21.8941 157.185 20.9513L154.349 16.343C153.681 15.2224 153.32 15.0446 152.933 14.8398C153.931 14.6598 156.964 13.9983 156.964 10.8401C156.964 9.89845 156.518 6.61206 151.319 6.61206C150.429 6.61206 146.539 6.71444 145.733 6.71444C145.371 6.71444 143.925 6.61206 143.649 6.61206C142.675 6.61206 142.565 6.61206 142.565 6.99459C142.565 7.376 142.981 7.40187 143.619 7.42775C145.064 7.50313 145.064 8.24344 145.064 9.33815V20.7758C145.064 21.8941 145.064 22.6086 143.619 22.7098C143.008 22.738 142.565 22.7627 142.565 23.1453C142.565 23.5514 142.952 23.5278 143.176 23.5278C143.704 23.5278 146.094 23.4243 146.593 23.4243C146.706 23.4243 149.569 23.5278 150.123 23.5278C150.347 23.5278 150.735 23.5514 150.735 23.1723C150.735 22.7638 150.32 22.7391 149.679 22.711C148.208 22.6367 148.208 21.8953 148.208 20.7769V15.9379C148.208 15.4766 148.261 15.3248 148.762 15.3248C150.098 15.3248 150.236 15.4283 150.876 16.5995L154.432 22.7391C154.765 23.2994 154.877 23.5525 155.405 23.5525C155.686 23.5525 158.908 23.5525 159.268 23.5525C159.462 23.5525 159.768 23.5019 159.768 23.2206C159.798 22.8899 159.657 22.7863 159.019 22.6851ZM149.68 14.5856C148.21 14.5856 148.21 14.5327 148.21 13.5921V9.058C148.21 8.0128 148.237 7.35124 149.597 7.35124C153.24 7.35124 153.656 10.2292 153.656 11.1979C153.655 14.5856 150.736 14.5856 149.68 14.5856Z" fill="#1FA34B"/>
</svg>
