<svg width="81" height="81" viewBox="0 0 81 81" fill="none" xmlns="http://www.w3.org/2000/svg">
<path d="M9.76662 44.247H38.1246C38.5483 44.247 38.8952 43.9002 38.8952 43.4765V20.5049C38.8952 19.2281 37.8602 18.1931 36.5834 18.1931H11.3079C10.0311 18.1931 8.99611 19.2281 8.99611 20.5049V43.4763C8.99602 43.9002 9.34283 44.247 9.76662 44.247ZM15.4809 28.7674C15.4809 28.2392 15.9091 27.811 16.4374 27.811H24.0026V25.1154C24.0026 24.2633 25.0331 23.8365 25.6356 24.4393L32.1546 30.9614C32.5279 31.3349 32.5279 31.9404 32.1546 32.3138L25.6356 38.8348C25.0331 39.4375 24.0026 39.0109 24.0026 38.1587V35.4625H16.4373C15.9091 35.4625 15.4808 35.0342 15.4808 34.506L15.4809 28.7674ZM18.798 50.4347H9.4122C8.98832 50.4347 8.6416 50.0881 8.6416 49.6642V47.3217C8.6416 46.8978 8.98832 46.551 9.4122 46.551H20.9249C19.7998 47.5297 19.0215 48.8936 18.798 50.4347ZM62.6449 46.5511H60.7724V36.0786C60.7724 34.8534 60.4025 33.6513 59.7167 32.6341L55.0238 25.6833C53.8756 23.988 51.9645 22.9708 49.9147 22.9708H42.6404C41.7849 22.9708 41.0991 23.6643 41.0991 24.512V46.5511H29.1857C30.3185 47.5297 31.0968 48.8936 31.3202 50.4349H43.8809C44.3279 47.3756 46.9633 45.0099 50.1459 45.0099C53.3285 45.0099 55.9562 47.3757 56.4031 50.4349H62.6449C63.0688 50.4349 63.4155 50.0881 63.4155 49.6642V47.3217C63.4155 46.8979 63.0688 46.5511 62.6449 46.5511ZM54.9698 34.0211H45.3682C44.9445 34.0211 44.5976 33.682 44.5976 33.2505V27.9257C44.5976 27.5019 44.9445 27.1551 45.3682 27.1551H51.2171C51.4714 27.1551 51.7026 27.2783 51.849 27.4787L55.6018 32.8113C55.9561 33.3199 55.5939 34.0211 54.9698 34.0211ZM25.0553 46.5511C22.4122 46.5511 20.2622 48.7009 20.2622 51.3519C20.2622 53.9949 22.4121 56.1449 25.0553 56.1449C27.7061 56.1449 29.8484 53.995 29.8484 51.3519C29.8483 48.701 27.7061 46.5511 25.0553 46.5511ZM25.0553 53.7485C23.7298 53.7485 22.6588 52.6695 22.6588 51.3519C22.6588 50.0263 23.7299 48.9554 25.0553 48.9554C26.3807 48.9554 27.4519 50.0264 27.4519 51.3519C27.4519 52.6695 26.3807 53.7485 25.0553 53.7485ZM50.1458 46.5511C47.495 46.5511 45.3527 48.7009 45.3527 51.3519C45.3527 53.9949 47.495 56.1449 50.1458 56.1449C52.7889 56.1449 54.9389 53.995 54.9389 51.3519C54.939 48.701 52.7891 46.5511 50.1458 46.5511ZM50.1458 53.7485C48.8203 53.7485 47.7493 52.6695 47.7493 51.3519C47.7493 50.0263 48.8204 48.9554 50.1458 48.9554C51.4712 48.9554 52.5424 50.0264 52.5424 51.3519C52.5425 52.6695 51.4713 53.7485 50.1458 53.7485Z" fill="white"/>
</svg>
