<svg width="81" height="81" viewBox="0 0 81 81" fill="none" xmlns="http://www.w3.org/2000/svg">
<path d="M48.0996 27.1604V36.9879H39.5503C39.2989 36.9669 38.7541 36.6526 38.6284 36.4221L36.4491 32.2942C35.59 30.6598 34.1023 29.7378 32.5098 29.8216C30.9172 29.9054 29.5552 30.9741 28.8637 32.7133L25.9721 39.9634L25.553 38.8738C24.5262 36.2126 21.5927 34.201 18.701 34.201L6.19141 34.2639V27.1604C6.19141 19.5331 10.7384 14.9861 18.3657 14.9861H35.9253C43.5526 14.9861 48.0996 19.5331 48.0996 27.1604Z" fill="white"/>
<path d="M48.0996 44.7174V40.1284H39.5503C38.1464 40.1284 36.491 39.1226 35.8415 37.8863L33.6622 33.7584C33.0755 32.6478 32.2374 32.7107 31.7764 33.8631L26.9569 46.0375C26.4331 47.3995 25.553 47.3995 25.0082 46.0375L22.6194 40.0027C22.0537 38.5359 20.2935 37.3415 18.722 37.3415L6.19141 37.4044V44.7174C6.19141 52.2189 10.5918 56.745 17.9886 56.8707C18.2191 56.8917 18.4705 56.8917 18.701 56.8917H35.4643C35.7786 56.8917 36.0929 56.8917 36.3863 56.8707C43.7412 56.7031 48.0996 52.198 48.0996 44.7174Z" fill="white"/>
</svg>
