<svg width="81" height="81" viewBox="0 0 81 81" fill="none" xmlns="http://www.w3.org/2000/svg">
<path fill-rule="evenodd" clip-rule="evenodd" d="M28.9536 14.3079H28.7241C26.7415 14.3078 25.0884 14.3078 23.776 14.4842C22.3908 14.6704 21.1401 15.0801 20.1351 16.0851C19.1301 17.0902 18.7204 18.3408 18.5341 19.7261C18.4076 20.6669 18.3718 22.9166 18.3617 24.8456C13.8996 24.9913 11.2204 25.5122 9.35856 27.3741C6.77344 29.9592 6.77344 34.12 6.77344 42.4413C6.77344 50.7626 6.77344 54.9235 9.35856 57.5084C11.9437 60.0936 16.1044 60.0936 24.4257 60.0936H33.252C41.5733 60.0936 45.7341 60.0936 48.3191 57.5084C50.9043 54.9235 50.9043 50.7626 50.9043 42.4413C50.9043 34.12 50.9043 29.9592 48.3191 27.3741C46.4572 25.5122 43.7783 24.9913 39.316 24.8456C39.3058 22.9166 39.2701 20.6669 39.1436 19.7261C38.9574 18.3408 38.5477 17.0902 37.5426 16.0851C36.5377 15.0801 35.287 14.6704 33.9018 14.4842C32.5893 14.3078 30.9362 14.3078 28.9536 14.3079ZM36.0055 24.7931C35.9956 22.9249 35.9638 20.9144 35.8634 20.1671C35.7264 19.1489 35.4898 18.7131 35.2023 18.4255C34.9148 18.138 34.479 17.9014 33.4607 17.7645C32.3949 17.6212 30.966 17.6177 28.8389 17.6177C26.7118 17.6177 25.2828 17.6212 24.217 17.7645C23.1988 17.9014 22.763 18.138 22.4755 18.4255C22.1879 18.7131 21.9513 19.1489 21.8144 20.1671C21.7139 20.9144 21.6822 22.9249 21.6722 24.7931C22.5359 24.7889 23.4524 24.7889 24.4258 24.7889H33.252C34.2255 24.7889 35.1419 24.7889 36.0055 24.7931ZM28.8389 31.9602C29.7528 31.9602 30.4938 32.7011 30.4938 33.6151V33.6376C32.8963 34.2429 34.9069 36.1372 34.9069 38.7636C34.9069 39.6776 34.1659 40.4185 33.252 40.4185C32.338 40.4185 31.597 39.6776 31.597 38.7636C31.597 37.9163 30.6575 36.7411 28.8389 36.7411C27.0202 36.7411 26.0807 37.9163 26.0807 38.7636C26.0807 39.6112 27.0202 40.7864 28.8389 40.7864C31.8947 40.7864 34.9069 42.9042 34.9069 46.1189C34.9069 48.7454 32.8963 50.6397 30.4938 51.245V51.2675C30.4938 52.1814 29.7528 52.9224 28.8389 52.9224C27.9249 52.9224 27.184 52.1814 27.184 51.2675V51.245C24.7815 50.6397 22.7709 48.7454 22.7709 46.1189C22.7709 45.205 23.5118 44.464 24.4258 44.464C25.3397 44.464 26.0807 45.205 26.0807 46.1189C26.0807 46.9662 27.0202 48.1414 28.8389 48.1414C30.6575 48.1414 31.597 46.9662 31.597 46.1189C31.597 45.2714 30.6575 44.0962 28.8389 44.0962C25.783 44.0962 22.7709 41.9786 22.7709 38.7636C22.7709 36.1372 24.7815 34.2429 27.184 33.6376V33.6151C27.184 32.7011 27.9249 31.9602 28.8389 31.9602Z" fill="white"/>
</svg>
