<svg width="16" height="15" viewBox="0 0 16 15" fill="none" xmlns="http://www.w3.org/2000/svg">
<path fill-rule="evenodd" clip-rule="evenodd" d="M8.14926 0.449219C4.06529 0.449219 0.779694 3.60368 0.779694 7.52464C0.779694 10.6496 2.89844 13.3029 5.81557 14.2463C6.18404 14.3053 6.30687 14.0989 6.30687 13.8925C6.30687 13.7156 6.30687 13.2734 6.30687 12.6838C4.24953 13.126 3.81964 11.7404 3.81964 11.7404C3.48187 10.915 2.99056 10.7086 2.99056 10.7086C2.31502 10.2664 3.05198 10.2664 3.05198 10.2664C3.78893 10.3253 4.18812 11.0034 4.18812 11.0034C4.83296 12.0942 5.90769 11.7699 6.33758 11.593C6.39899 11.1213 6.58323 10.8265 6.79818 10.6496C5.17073 10.4727 3.45116 9.85364 3.45116 7.14139C3.45116 6.37489 3.72752 5.72631 4.21883 5.25461C4.15741 5.07773 3.88105 4.37018 4.28024 3.36783C4.28024 3.36783 4.89437 3.19095 6.30687 4.10485C6.8903 3.95745 7.53513 3.86901 8.14926 3.86901C8.76339 3.86901 9.40823 3.95745 9.99166 4.10485C11.4042 3.19095 12.0183 3.36783 12.0183 3.36783C12.4175 4.3407 12.1718 5.04824 12.0797 5.25461C12.5403 5.75579 12.8474 6.37489 12.8474 7.14139C12.8474 9.85364 11.1278 10.4433 9.46964 10.6201C9.746 10.8265 9.96095 11.2687 9.96095 11.9173C9.96095 12.8607 9.96095 13.6272 9.96095 13.863C9.96095 14.0399 10.0838 14.2758 10.483 14.2168C13.4001 13.3029 15.5188 10.6496 15.5188 7.52464C15.5188 3.60368 12.2332 0.449219 8.14926 0.449219Z" fill="white" fill-opacity="0.9"/>
</svg>
