<svg width="112" height="38" viewBox="0 0 112 38" fill="none" xmlns="http://www.w3.org/2000/svg">
<path d="M35.7315 19.499C35.7315 17.9743 35.6127 16.8618 35.3556 15.708H18.6357V22.5894H28.4499C28.2521 24.2995 27.1836 26.8749 24.8092 28.6055L24.7759 28.8359L30.0624 33.1002L30.4287 33.1383C33.7924 29.9036 35.7315 25.1442 35.7315 19.499Z" fill="#4285F4"/>
<path d="M18.6362 37.6294C23.4443 37.6294 27.4808 35.981 30.4291 33.1379L24.8096 28.6051C23.3058 29.6971 21.2875 30.4594 18.6362 30.4594C13.9269 30.4594 9.93004 27.2248 8.50526 22.7539L8.29641 22.7724L2.79943 27.2021L2.72754 27.4101C5.65596 33.4674 11.6712 37.6294 18.6362 37.6294Z" fill="#34A853"/>
<path d="M8.50728 22.7542C8.13134 21.6004 7.91377 20.3641 7.91377 19.0868C7.91377 17.8093 8.13134 16.5732 8.4875 15.4194L8.47755 15.1737L2.91167 10.6729L2.72957 10.763C1.52262 13.2767 0.830078 16.0994 0.830078 19.0868C0.830078 22.0743 1.52262 24.8968 2.72957 27.4104L8.50728 22.7542Z" fill="#FBBC05"/>
<path d="M18.6362 7.7138C21.9801 7.7138 24.2357 9.21783 25.5219 10.4747L30.5478 5.36509C27.4611 2.37764 23.4443 0.543945 18.6362 0.543945C11.6712 0.543945 5.65596 4.70576 2.72754 10.763L8.48548 15.4194C9.93004 10.9485 13.9269 7.7138 18.6362 7.7138Z" fill="#EB4335"/>
<path d="M53.4075 16.1863C53.2891 15.8028 53.1258 15.4595 52.9174 15.1565C52.7138 14.8488 52.4676 14.586 52.1788 14.3682C51.8947 14.1504 51.568 13.987 51.1987 13.8781C50.8294 13.7645 50.4269 13.7077 49.9913 13.7077C49.21 13.7077 48.514 13.9041 47.9032 14.2971C47.2924 14.6901 46.8118 15.2678 46.4615 16.0301C46.1158 16.7877 45.943 17.711 45.943 18.8C45.943 19.8985 46.1158 20.8289 46.4615 21.5912C46.8071 22.3535 47.2877 22.9335 47.9032 23.3312C48.5188 23.7242 49.2337 23.9207 50.0481 23.9207C50.7868 23.9207 51.426 23.7787 51.9657 23.4946C52.5102 23.2105 52.9293 22.808 53.2228 22.2872C53.5164 21.7616 53.6632 21.1461 53.6632 20.4406L54.2598 20.5329H50.3109V18.4733H56.2129V20.2204C56.2129 21.4657 55.9477 22.5429 55.4174 23.452C54.8871 24.3611 54.158 25.0618 53.2299 25.5542C52.3019 26.0419 51.2366 26.2858 50.0339 26.2858C48.694 26.2858 47.5173 25.9851 46.5041 25.3838C45.4956 24.7777 44.7072 23.9184 44.139 22.8057C43.5756 21.6882 43.2939 20.3625 43.2939 18.8284C43.2939 17.6541 43.4596 16.6054 43.791 15.6821C44.1272 14.7588 44.5959 13.9752 45.1973 13.3312C45.7986 12.6826 46.5041 12.1901 47.3137 11.854C48.1234 11.513 49.0041 11.3426 49.9558 11.3426C50.7607 11.3426 51.5112 11.461 52.2072 11.6977C52.9032 11.9297 53.5211 12.2612 54.0609 12.692C54.6054 13.1229 55.0529 13.6343 55.4032 14.2261C55.7536 14.818 55.9833 15.4714 56.0922 16.1863H53.4075ZM63.4057 26.3C62.3404 26.3 61.4171 26.0656 60.6358 25.5969C59.8546 25.1281 59.2485 24.4723 58.8176 23.6295C58.3915 22.7867 58.1784 21.8019 58.1784 20.675C58.1784 19.5481 58.3915 18.5609 58.8176 17.7133C59.2485 16.8658 59.8546 16.2077 60.6358 15.7389C61.4171 15.2702 62.3404 15.0358 63.4057 15.0358C64.4711 15.0358 65.3944 15.2702 66.1756 15.7389C66.9569 16.2077 67.5605 16.8658 67.9867 17.7133C68.4176 18.5609 68.633 19.5481 68.633 20.675C68.633 21.8019 68.4176 22.7867 67.9867 23.6295C67.5605 24.4723 66.9569 25.1281 66.1756 25.5969C65.3944 26.0656 64.4711 26.3 63.4057 26.3ZM63.4199 24.2403C63.9976 24.2403 64.4805 24.0817 64.8688 23.7645C65.257 23.4425 65.5459 23.0116 65.7353 22.4719C65.9294 21.9321 66.0265 21.3308 66.0265 20.6679C66.0265 20.0003 65.9294 19.3966 65.7353 18.8568C65.5459 18.3123 65.257 17.8791 64.8688 17.5571C64.4805 17.2351 63.9976 17.0741 63.4199 17.0741C62.8281 17.0741 62.3356 17.2351 61.9426 17.5571C61.5544 17.8791 61.2632 18.3123 61.0691 18.8568C60.8797 19.3966 60.785 20.0003 60.785 20.6679C60.785 21.3308 60.8797 21.9321 61.0691 22.4719C61.2632 23.0116 61.5544 23.4425 61.9426 23.7645C62.3356 24.0817 62.8281 24.2403 63.4199 24.2403ZM75.5737 26.3C74.5083 26.3 73.585 26.0656 72.8038 25.5969C72.0225 25.1281 71.4165 24.4723 70.9856 23.6295C70.5595 22.7867 70.3464 21.8019 70.3464 20.675C70.3464 19.5481 70.5595 18.5609 70.9856 17.7133C71.4165 16.8658 72.0225 16.2077 72.8038 15.7389C73.585 15.2702 74.5083 15.0358 75.5737 15.0358C76.639 15.0358 77.5623 15.2702 78.3436 15.7389C79.1248 16.2077 79.7285 16.8658 80.1547 17.7133C80.5855 18.5609 80.801 19.5481 80.801 20.675C80.801 21.8019 80.5855 22.7867 80.1547 23.6295C79.7285 24.4723 79.1248 25.1281 78.3436 25.5969C77.5623 26.0656 76.639 26.3 75.5737 26.3ZM75.5879 24.2403C76.1655 24.2403 76.6485 24.0817 77.0368 23.7645C77.425 23.4425 77.7138 23.0116 77.9032 22.4719C78.0974 21.9321 78.1944 21.3308 78.1944 20.6679C78.1944 20.0003 78.0974 19.3966 77.9032 18.8568C77.7138 18.3123 77.425 17.8791 77.0368 17.5571C76.6485 17.2351 76.1655 17.0741 75.5879 17.0741C74.996 17.0741 74.5036 17.2351 74.1106 17.5571C73.7224 17.8791 73.4312 18.3123 73.237 18.8568C73.0476 19.3966 72.9529 20.0003 72.9529 20.6679C72.9529 21.3308 73.0476 21.9321 73.237 22.4719C73.4312 23.0116 73.7224 23.4425 74.1106 23.7645C74.5036 24.0817 74.996 24.2403 75.5879 24.2403ZM87.7275 30.4051C86.8042 30.4051 86.0111 30.2796 85.3482 30.0287C84.6853 29.7825 84.1526 29.451 83.7502 29.0344C83.3477 28.6177 83.0684 28.156 82.9121 27.6494L85.2275 27.0883C85.3316 27.3014 85.4831 27.5121 85.682 27.7204C85.8809 27.9335 86.1484 28.1087 86.4846 28.246C86.8255 28.3881 87.254 28.4591 87.7701 28.4591C88.4992 28.4591 89.1029 28.2815 89.5811 27.9264C90.0594 27.576 90.2985 26.9984 90.2985 26.1934V24.1267H90.1706C90.0381 24.3918 89.8439 24.6641 89.5882 24.9434C89.3373 25.2228 89.0035 25.4572 88.5868 25.6466C88.1749 25.836 87.6564 25.9307 87.0314 25.9307C86.1934 25.9307 85.4334 25.7342 84.7516 25.3412C84.0745 24.9434 83.5347 24.3516 83.1323 23.5656C82.7346 22.7749 82.5357 21.7853 82.5357 20.5969C82.5357 19.3989 82.7346 18.3881 83.1323 17.5642C83.5347 16.7356 84.0769 16.1082 84.7587 15.6821C85.4405 15.2512 86.2005 15.0358 87.0385 15.0358C87.6777 15.0358 88.2033 15.1447 88.6152 15.3625C89.0319 15.5755 89.3633 15.8336 89.6096 16.1366C89.8558 16.4349 90.0428 16.7166 90.1706 16.9818H90.3127V15.1778H92.8482V26.2645C92.8482 27.1972 92.6257 27.969 92.1806 28.5798C91.7355 29.1906 91.1271 29.6475 90.3553 29.9506C89.5835 30.2536 88.7076 30.4051 87.7275 30.4051ZM87.7488 23.9136C88.2933 23.9136 88.7573 23.781 89.1408 23.5159C89.5243 23.2507 89.8155 22.8696 90.0144 22.3724C90.2132 21.8753 90.3127 21.2787 90.3127 20.5827C90.3127 19.8961 90.2132 19.2948 90.0144 18.7787C89.8203 18.2626 89.5314 17.8625 89.1479 17.5784C88.7691 17.2896 88.3027 17.1452 87.7488 17.1452C87.1758 17.1452 86.6976 17.2943 86.3141 17.5926C85.9306 17.8909 85.6417 18.3005 85.4476 18.8213C85.2535 19.3374 85.1564 19.9245 85.1564 20.5827C85.1564 21.2503 85.2535 21.835 85.4476 22.3369C85.6465 22.8341 85.9377 23.2223 86.3212 23.5017C86.7095 23.7763 87.1853 23.9136 87.7488 23.9136ZM98.0542 11.5415V26.0869H95.4831V11.5415H98.0542ZM105.528 26.3C104.434 26.3 103.489 26.0727 102.694 25.6182C101.903 25.1589 101.295 24.5102 100.868 23.6721C100.442 22.8293 100.229 21.8374 100.229 20.6963C100.229 19.5741 100.442 18.5893 100.868 17.7417C101.299 16.8895 101.901 16.2266 102.672 15.7531C103.444 15.2749 104.351 15.0358 105.393 15.0358C106.065 15.0358 106.699 15.1447 107.296 15.3625C107.897 15.5755 108.428 15.907 108.887 16.3568C109.351 16.8066 109.715 17.3795 109.981 18.0756C110.246 18.7668 110.378 19.5907 110.378 20.5471V21.3355H101.437V19.6025H107.914C107.909 19.1101 107.803 18.6721 107.594 18.2886C107.386 17.9004 107.095 17.595 106.721 17.3724C106.351 17.1499 105.921 17.0386 105.428 17.0386C104.903 17.0386 104.441 17.1665 104.043 17.4221C103.645 17.6731 103.335 18.0045 103.113 18.4165C102.895 18.8237 102.784 19.2711 102.779 19.7588V21.2716C102.779 21.906 102.895 22.4506 103.127 22.9051C103.359 23.3549 103.683 23.7006 104.1 23.942C104.517 24.1788 105.004 24.2971 105.563 24.2971C105.937 24.2971 106.276 24.2451 106.579 24.1409C106.882 24.032 107.144 23.8734 107.367 23.665C107.59 23.4567 107.758 23.1987 107.871 22.8909L110.272 23.1608C110.12 23.7952 109.831 24.3492 109.405 24.8227C108.984 25.2915 108.444 25.656 107.786 25.9165C107.128 26.1721 106.375 26.3 105.528 26.3Z" fill="white"/>
</svg>
