<svg width="109" height="49" viewBox="0 0 109 49" fill="none" xmlns="http://www.w3.org/2000/svg">
<g clip-path="url(#clip0_3605_10127)">
<path fill-rule="evenodd" clip-rule="evenodd" d="M21.1249 28.0624V37.4074C21.1249 39.3521 21.4549 41.0426 22.1171 42.4789C22.7794 43.9151 23.6501 45.1084 24.7309 46.0586C25.8116 47.0089 27.0259 47.7274 28.3706 48.2134C29.7154 48.6994 31.0736 48.9424 32.4401 48.9424C33.8066 48.9424 35.1641 48.6994 36.5096 48.2134C37.8551 47.7274 39.0686 47.0089 40.1494 46.0586C41.2301 45.1084 42.1016 43.9151 42.7631 42.4789C43.4246 41.0426 43.7554 39.3514 43.7554 37.4074V21.8374L31.6609 21.8186L31.6459 28.0624H37.0061V37.4074C37.0061 39.0424 36.5539 40.2469 35.6561 41.0209C34.7584 41.7949 33.6821 42.1811 32.4461 42.1811C31.2101 42.1811 30.1414 41.7941 29.2361 41.0209C28.3309 40.2476 27.8861 39.0431 27.8861 37.4074V12.4774C27.8861 10.8424 28.3384 9.63788 29.2361 8.86388C30.1339 8.08988 31.2101 7.70363 32.4461 7.70363C33.6821 7.70363 34.7509 8.09063 35.6561 8.86388C36.5614 9.63713 37.0061 10.8424 37.0061 12.4774V14.8639H43.7561V12.4774C43.7561 10.5769 43.4261 8.89763 42.7639 7.43888C42.1016 5.98013 41.2309 4.77638 40.1501 3.82538C39.0694 2.87438 37.8551 2.15738 36.5111 1.66988C35.1671 1.18238 33.8074 0.942383 32.4401 0.942383C31.0729 0.942383 29.7161 1.18538 28.3706 1.67138C27.0251 2.15738 25.8116 2.87588 24.7309 3.82613C23.6501 4.77638 22.7786 5.98088 22.1171 7.43963C21.4556 8.89838 21.1249 10.5776 21.1249 12.4781V21.8231H14.2196V14.8631H16.3376L11.0726 7.42313L5.80762 14.8631H7.99762V24.9424C7.99762 26.6659 9.39037 28.0624 11.1101 28.0624H21.1264H21.1249Z" fill="#2DA6B0"/>
</g>
<path d="M61.2245 36.2606C60.3012 36.2606 59.5081 36.1351 58.8453 35.8841C58.1824 35.6379 57.6497 35.3065 57.2472 34.8898C56.8448 34.4732 56.5654 34.0115 56.4092 33.5049L58.7245 32.9438C58.8287 33.1569 58.9802 33.3676 59.1791 33.5759C59.3779 33.789 59.6454 33.9642 59.9816 34.1015C60.3225 34.2435 60.751 34.3145 61.2671 34.3145C61.9963 34.3145 62.6 34.137 63.0782 33.7819C63.5564 33.4315 63.7955 32.8538 63.7955 32.0489V29.9822H63.6677C63.5351 30.2473 63.341 30.5196 63.0853 30.7989C62.8344 31.0783 62.5006 31.3126 62.0839 31.502C61.672 31.6914 61.1535 31.7861 60.5285 31.7861C59.6904 31.7861 58.9305 31.5896 58.2487 31.1966C57.5716 30.7989 57.0318 30.2071 56.6294 29.4211C56.2316 28.6304 56.0328 27.6408 56.0328 26.4523C56.0328 25.2544 56.2316 24.2435 56.6294 23.4197C57.0318 22.5911 57.574 21.9637 58.2558 21.5376C58.9376 21.1067 59.6975 20.8912 60.5356 20.8912C61.1748 20.8912 61.7004 21.0001 62.1123 21.218C62.529 21.431 62.8604 21.6891 63.1066 21.9921C63.3528 22.2904 63.5399 22.5721 63.6677 22.8373H63.8097V21.0333H66.3453V32.1199C66.3453 33.0527 66.1227 33.8245 65.6776 34.4353C65.2326 35.0461 64.6241 35.503 63.8524 35.806C63.0806 36.109 62.2046 36.2606 61.2245 36.2606ZM61.2458 29.7691C61.7903 29.7691 62.2544 29.6365 62.6379 29.3714C63.0214 29.1062 63.3126 28.7251 63.5115 28.2279C63.7103 27.7307 63.8097 27.1341 63.8097 26.4381C63.8097 25.7516 63.7103 25.1502 63.5115 24.6341C63.3173 24.118 63.0285 23.718 62.645 23.4339C62.2662 23.145 61.7998 23.0006 61.2458 23.0006C60.6729 23.0006 60.1947 23.1498 59.8112 23.4481C59.4276 23.7464 59.1388 24.1559 58.9447 24.6768C58.7506 25.1929 58.6535 25.78 58.6535 26.4381C58.6535 27.1057 58.7506 27.6905 58.9447 28.1924C59.1436 28.6895 59.4347 29.0778 59.8183 29.3572C60.2065 29.6318 60.6824 29.7691 61.2458 29.7691ZM69.0938 31.9424V17.3969H74.5484C75.6658 17.3969 76.6033 17.5911 77.3609 17.9793C78.1232 18.3676 78.6985 18.9121 79.0867 19.6128C79.4797 20.3089 79.6762 21.1209 79.6762 22.0489C79.6762 22.9817 79.4774 23.7913 79.0796 24.4779C78.6866 25.1597 78.1066 25.6876 77.3396 26.0617C76.5725 26.431 75.6303 26.6157 74.5129 26.6157H70.6279V24.4282H74.1578C74.8112 24.4282 75.3462 24.3382 75.7629 24.1583C76.1795 23.9736 76.4873 23.7061 76.6862 23.3557C76.8898 23.0006 76.9916 22.565 76.9916 22.0489C76.9916 21.5328 76.8898 21.0925 76.6862 20.7279C76.4826 20.3586 76.1724 20.0792 75.7558 19.8898C75.3391 19.6957 74.8017 19.5986 74.1436 19.5986H71.7288V31.9424H69.0938ZM76.608 25.3515L80.2089 31.9424H77.2686L73.7316 25.3515H76.608ZM82.1017 31.9424V17.3969H87.5562C88.6736 17.3969 89.6111 17.6053 90.3687 18.0219C91.131 18.4386 91.7063 19.0115 92.0945 19.7407C92.4875 20.4651 92.684 21.289 92.684 22.2123C92.684 23.145 92.4875 23.9736 92.0945 24.6981C91.7016 25.4225 91.1215 25.993 90.3545 26.4097C89.5874 26.8216 88.6428 27.0276 87.5207 27.0276H83.9056V24.8614H87.1656C87.819 24.8614 88.354 24.7478 88.7707 24.5205C89.1874 24.2932 89.4951 23.9807 89.694 23.583C89.8976 23.1853 89.9994 22.7284 89.9994 22.2123C89.9994 21.6962 89.8976 21.2416 89.694 20.8486C89.4951 20.4556 89.185 20.1502 88.7636 19.9324C88.3469 19.7099 87.8095 19.5986 87.1514 19.5986H84.7366V31.9424H82.1017ZM107.423 22.3046H104.767C104.691 21.869 104.551 21.4831 104.348 21.1469C104.144 20.806 103.891 20.5172 103.588 20.2805C103.285 20.0437 102.939 19.8662 102.551 19.7478C102.167 19.6247 101.753 19.5631 101.308 19.5631C100.517 19.5631 99.8165 19.762 99.2057 20.1597C98.5949 20.5527 98.1167 21.1304 97.771 21.8927C97.4254 22.6502 97.2526 23.5759 97.2526 24.6697C97.2526 25.7823 97.4254 26.7198 97.771 27.4822C98.1214 28.2397 98.5996 28.8126 99.2057 29.2009C99.8165 29.5844 100.515 29.7762 101.301 29.7762C101.736 29.7762 102.144 29.7194 102.522 29.6057C102.906 29.4874 103.249 29.3145 103.552 29.0873C103.86 28.86 104.118 28.5806 104.326 28.2492C104.54 27.9178 104.686 27.539 104.767 27.1128L107.423 27.127C107.324 27.8183 107.108 28.467 106.777 29.0731C106.45 29.6791 106.022 30.2142 105.491 30.6782C104.961 31.1375 104.341 31.4973 103.63 31.7577C102.92 32.0134 102.132 32.1412 101.265 32.1412C99.9869 32.1412 98.8459 31.8453 97.8421 31.2535C96.8383 30.6616 96.0476 29.807 95.4699 28.6895C94.8923 27.5721 94.6034 26.2322 94.6034 24.6697C94.6034 23.1024 94.8946 21.7625 95.477 20.6498C96.0594 19.5323 96.8525 18.6777 97.8563 18.0858C98.8601 17.494 99.9964 17.1981 101.265 17.1981C102.075 17.1981 102.828 17.3117 103.524 17.539C104.22 17.7662 104.84 18.1001 105.385 18.5404C105.929 18.976 106.377 19.511 106.727 20.1455C107.082 20.7752 107.314 21.4949 107.423 22.3046Z" fill="white"/>
<defs>
<clipPath id="clip0_3605_10127">
<rect width="48" height="48" fill="white" transform="translate(0.780273 0.942383)"/>
</clipPath>
</defs>
</svg>
