<svg width="144" height="49" viewBox="0 0 144 49" fill="none" xmlns="http://www.w3.org/2000/svg">
<path d="M46.2029 32.4657C43.26 25.5471 38.2517 19.7128 31.9527 15.7372C27.4608 8.81863 20.6455 3.55226 12.5911 0.970703C16.2569 3.86205 19.3031 7.42459 21.6781 11.4518C14.2949 11.5035 7.42796 13.7236 1.6969 17.5443C4.63987 16.7698 7.78937 16.3568 10.9905 16.3568C11.765 16.3568 12.6427 16.4084 13.4172 16.46C6.86001 21.6231 2.10995 29.058 0.354492 37.5255C1.90343 35.3054 3.65888 33.3434 5.62087 31.5363C4.38172 35.2021 3.71051 39.0745 3.71051 43.1533C9.08015 46.2512 15.3275 48.0583 21.9879 48.0583C28.6483 48.0583 34.8957 46.2512 40.2653 43.1533C40.2653 36.7511 38.9746 30.7102 36.5995 25.1857C40.2137 27.0444 43.4665 29.5227 46.2029 32.4657Z" fill="#FFA726"/>
<path d="M13.5208 25.8564C10.6295 27.4054 7.99632 29.2641 5.62129 31.4842C5.51803 31.794 3.71094 36.6473 3.71094 43.1012C5.25987 36.2859 8.71916 30.6581 13.5208 25.8564Z" fill="#F57C00"/>
<path d="M9.5459 19.9709C12.8503 18.6285 16.3612 17.8024 19.9754 17.4926C17.8069 16.9246 15.6384 16.6149 13.4182 16.46C12.0242 17.5442 10.7334 18.7317 9.5459 19.9709Z" fill="#F57C00"/>
<path d="M29.7324 22.4482C32.1075 23.1194 34.3792 23.9972 36.5477 25.1331C38.9744 30.8125 40.2135 36.9566 40.2135 43.1007C39.0777 35.2528 35.4635 27.9728 29.7324 22.4482Z" fill="#F57C00"/>
<path d="M19.0977 11.5544C19.9238 11.5028 20.8015 11.4512 21.6792 11.4512C22.7635 13.3615 22.4537 12.742 23.4863 15.1686C21.2145 13.0517 21.3694 13.4132 19.0977 11.5544Z" fill="#F57C00"/>
<path d="M53.8956 31.5146V16.9692H56.5305V23.1269H63.2706V16.9692H65.9126V31.5146H63.2706V25.3357H56.5305V31.5146H53.8956ZM71.804 31.7348C71.1127 31.7348 70.4901 31.6117 69.9361 31.3655C69.3868 31.1146 68.9512 30.7452 68.6293 30.2575C68.312 29.7699 68.1534 29.1685 68.1534 28.4536C68.1534 27.838 68.267 27.329 68.4943 26.9266C68.7216 26.5241 69.0317 26.2021 69.4247 25.9607C69.8177 25.7192 70.2604 25.5369 70.7528 25.4138C71.25 25.286 71.7637 25.1936 72.294 25.1368C72.9332 25.0705 73.4517 25.0113 73.8494 24.9593C74.2472 24.9024 74.536 24.8172 74.7159 24.7036C74.9006 24.5852 74.9929 24.4029 74.9929 24.1567V24.1141C74.9929 23.579 74.8343 23.1647 74.517 22.8712C74.1998 22.5776 73.7429 22.4308 73.1463 22.4308C72.5166 22.4308 72.017 22.5682 71.6477 22.8428C71.2831 23.1174 71.0369 23.4417 70.9091 23.8158L68.5085 23.4749C68.6979 22.812 69.0104 22.258 69.446 21.8129C69.8816 21.3631 70.4143 21.027 71.044 20.8044C71.6738 20.5771 72.3698 20.4635 73.1321 20.4635C73.6577 20.4635 74.1809 20.5251 74.7017 20.6482C75.2225 20.7713 75.6984 20.9749 76.1293 21.259C76.5601 21.5383 76.9058 21.9195 77.1662 22.4024C77.4313 22.8854 77.5639 23.4891 77.5639 24.2135V31.5146H75.0923V30.0161H75.0071C74.8509 30.3191 74.6307 30.6032 74.3466 30.8683C74.0672 31.1288 73.7145 31.3395 73.2884 31.5004C72.867 31.6567 72.3722 31.7348 71.804 31.7348ZM72.4716 29.8456C72.9877 29.8456 73.4351 29.7438 73.8139 29.5402C74.1927 29.3319 74.4839 29.0573 74.6875 28.7164C74.8958 28.3754 75 28.0038 75 27.6013V26.3158C74.9195 26.3821 74.7822 26.4436 74.5881 26.5004C74.3987 26.5573 74.1856 26.607 73.9489 26.6496C73.7121 26.6922 73.4777 26.7301 73.2457 26.7632C73.0137 26.7964 72.8125 26.8248 72.642 26.8485C72.2585 26.9005 71.9152 26.9858 71.6122 27.1041C71.3092 27.2225 71.0701 27.3882 70.8949 27.6013C70.7197 27.8096 70.6321 28.0795 70.6321 28.411C70.6321 28.8844 70.8049 29.2419 71.1506 29.4834C71.4962 29.7249 71.9366 29.8456 72.4716 29.8456ZM81.3565 35.6056C81.0062 35.6056 80.6818 35.5771 80.3835 35.5203C80.09 35.4682 79.8556 35.4067 79.6804 35.3357L80.277 33.3328C80.651 33.4417 80.9848 33.4938 81.2784 33.4891C81.572 33.4843 81.83 33.392 82.0526 33.2121C82.2798 33.0369 82.4716 32.7433 82.6278 32.3314L82.848 31.7419L78.892 20.6056H81.6193L84.1335 28.8442H84.2472L86.7685 20.6056H89.5028L85.1349 32.8357C84.9313 33.4133 84.6615 33.9081 84.3253 34.32C83.9891 34.7367 83.5772 35.0539 83.0895 35.2718C82.6065 35.4943 82.0289 35.6056 81.3565 35.6056ZM99.9041 23.4891L97.5604 23.7448C97.4941 23.508 97.3781 23.2855 97.2124 23.0771C97.0514 22.8688 96.8336 22.7007 96.5589 22.5729C96.2843 22.445 95.9482 22.3811 95.5504 22.3811C95.0154 22.3811 94.5656 22.4971 94.201 22.7291C93.8411 22.9611 93.6636 23.2618 93.6683 23.6311C93.6636 23.9484 93.7796 24.2064 94.0163 24.4053C94.2578 24.6041 94.6555 24.7675 95.2095 24.8953L97.0703 25.2931C98.1025 25.5156 98.8696 25.8683 99.3714 26.3513C99.8781 26.8343 100.134 27.4664 100.138 28.2476C100.134 28.9342 99.9325 29.5402 99.5348 30.0658C99.1418 30.5866 98.5949 30.9938 97.8942 31.2874C97.1934 31.5809 96.3885 31.7277 95.4794 31.7277C94.1442 31.7277 93.0694 31.4484 92.255 30.8896C91.4406 30.3262 90.9553 29.5426 90.799 28.5388L93.3061 28.2973C93.4197 28.7897 93.6612 29.1614 94.0305 29.4124C94.3999 29.6633 94.8804 29.7888 95.4723 29.7888C96.0831 29.7888 96.5732 29.6633 96.9425 29.4124C97.3165 29.1614 97.5036 28.8513 97.5036 28.482C97.5036 28.1695 97.3828 27.9114 97.1413 27.7078C96.9046 27.5042 96.5353 27.348 96.0334 27.2391L94.1726 26.8485C93.1262 26.6307 92.352 26.2637 91.8501 25.7476C91.3482 25.2268 91.0997 24.5686 91.1044 23.7732C91.0997 23.1008 91.282 22.5184 91.6513 22.026C92.0253 21.5289 92.5438 21.1453 93.2067 20.8754C93.8743 20.6008 94.6437 20.4635 95.5149 20.4635C96.7933 20.4635 97.7995 20.7358 98.5334 21.2803C99.272 21.8248 99.7289 22.561 99.9041 23.4891ZM107.706 20.6056V22.5942H101.435V20.6056H107.706ZM102.983 17.9919H105.554V28.2334C105.554 28.579 105.606 28.8442 105.71 29.0289C105.819 29.2088 105.961 29.3319 106.136 29.3982C106.312 29.4645 106.506 29.4976 106.719 29.4976C106.88 29.4976 107.027 29.4858 107.159 29.4621C107.296 29.4384 107.401 29.4171 107.472 29.3982L107.905 31.4081C107.768 31.4555 107.571 31.5075 107.315 31.5644C107.064 31.6212 106.757 31.6543 106.392 31.6638C105.748 31.6827 105.168 31.5857 104.652 31.3726C104.136 31.1548 103.726 30.8186 103.423 30.3641C103.125 29.9095 102.978 29.3414 102.983 28.6595V17.9919ZM112.995 31.7348C112.304 31.7348 111.681 31.6117 111.127 31.3655C110.578 31.1146 110.143 30.7452 109.821 30.2575C109.503 29.7699 109.345 29.1685 109.345 28.4536C109.345 27.838 109.458 27.329 109.686 26.9266C109.913 26.5241 110.223 26.2021 110.616 25.9607C111.009 25.7192 111.452 25.5369 111.944 25.4138C112.441 25.286 112.955 25.1936 113.485 25.1368C114.125 25.0705 114.643 25.0113 115.041 24.9593C115.439 24.9024 115.727 24.8172 115.907 24.7036C116.092 24.5852 116.184 24.4029 116.184 24.1567V24.1141C116.184 23.579 116.026 23.1647 115.708 22.8712C115.391 22.5776 114.934 22.4308 114.338 22.4308C113.708 22.4308 113.208 22.5682 112.839 22.8428C112.475 23.1174 112.228 23.4417 112.1 23.8158L109.7 23.4749C109.889 22.812 110.202 22.258 110.637 21.8129C111.073 21.3631 111.606 21.027 112.235 20.8044C112.865 20.5771 113.561 20.4635 114.324 20.4635C114.849 20.4635 115.372 20.5251 115.893 20.6482C116.414 20.7713 116.89 20.9749 117.321 21.259C117.752 21.5383 118.097 21.9195 118.358 22.4024C118.623 22.8854 118.755 23.4891 118.755 24.2135V31.5146H116.284V30.0161H116.199C116.042 30.3191 115.822 30.6032 115.538 30.8683C115.259 31.1288 114.906 31.3395 114.48 31.5004C114.058 31.6567 113.564 31.7348 112.995 31.7348ZM113.663 29.8456C114.179 29.8456 114.627 29.7438 115.005 29.5402C115.384 29.3319 115.675 29.0573 115.879 28.7164C116.087 28.3754 116.191 28.0038 116.191 27.6013V26.3158C116.111 26.3821 115.974 26.4436 115.779 26.5004C115.59 26.5573 115.377 26.607 115.14 26.6496C114.904 26.6922 114.669 26.7301 114.437 26.7632C114.205 26.7964 114.004 26.8248 113.833 26.8485C113.45 26.9005 113.107 26.9858 112.804 27.1041C112.501 27.2225 112.261 27.3882 112.086 27.6013C111.911 27.8096 111.824 28.0795 111.824 28.411C111.824 28.8844 111.996 29.2419 112.342 29.4834C112.688 29.7249 113.128 29.8456 113.663 29.8456ZM126.099 31.7277C125.01 31.7277 124.075 31.4886 123.294 31.0104C122.517 30.5322 121.918 29.8717 121.497 29.0289C121.08 28.1813 120.872 27.2059 120.872 26.1027C120.872 24.9948 121.085 24.017 121.511 23.1695C121.937 22.3172 122.538 21.6543 123.315 21.1808C124.096 20.7026 125.02 20.4635 126.085 20.4635C126.97 20.4635 127.754 20.6269 128.436 20.9536C129.122 21.2755 129.669 21.7325 130.076 22.3243C130.484 22.9114 130.716 23.598 130.772 24.384H128.315C128.216 23.8584 127.979 23.4204 127.605 23.07C127.235 22.7149 126.741 22.5374 126.12 22.5374C125.595 22.5374 125.133 22.6794 124.735 22.9635C124.338 23.2429 124.028 23.6453 123.805 24.1709C123.587 24.6965 123.478 25.3262 123.478 26.0601C123.478 26.8035 123.587 27.4427 123.805 27.9777C124.023 28.508 124.328 28.9176 124.721 29.2064C125.119 29.4905 125.585 29.6325 126.12 29.6325C126.499 29.6325 126.838 29.5615 127.136 29.4195C127.439 29.2727 127.692 29.062 127.896 28.7874C128.1 28.5128 128.239 28.1789 128.315 27.786H130.772C130.711 28.5577 130.484 29.2419 130.091 29.8385C129.698 30.4304 129.163 30.8944 128.485 31.2306C127.808 31.562 127.013 31.7277 126.099 31.7277ZM135.227 28.0914L135.22 24.9877H135.632L139.553 20.6056H142.557L137.734 25.9749H137.202L135.227 28.0914ZM132.884 31.5146V16.9692H135.455V31.5146H132.884ZM139.73 31.5146L136.179 26.5502L137.912 24.7391L142.805 31.5146H139.73Z" fill="white"/>
</svg>
