<svg width="338" height="50" viewBox="0 0 338 50" fill="none" xmlns="http://www.w3.org/2000/svg">
<g clip-path="url(#clip0_1822_5208)">
<path d="M53.3888 39.8641C53.8097 41.0699 53.7087 42.3541 53.1474 43.4707C52.7433 44.2858 52.1653 44.9167 51.4582 45.4806C50.6051 46.1505 49.5443 46.72 48.2648 47.2671C46.7383 47.9148 44.875 48.5233 44.022 48.7466C41.8388 49.3105 39.7399 49.6678 37.6128 49.6846C34.571 49.7125 31.95 48.9979 30.0868 47.1722C29.1215 47.2894 28.145 47.3564 27.1629 47.3564C26.2312 47.3564 25.3108 47.3007 24.3961 47.189C22.5272 49.0035 19.9174 49.7125 16.8868 49.6846C14.7598 49.6678 12.6608 49.3105 10.4721 48.7466C9.62463 48.5233 7.76137 47.9148 6.23485 47.2671C4.95526 46.72 3.89455 46.1505 3.0471 45.4806C2.33435 44.9167 1.75629 44.2858 1.35221 43.4707C0.796604 42.3541 0.689972 41.0699 1.1165 39.8641C0.723645 38.9428 0.622625 37.8877 0.931297 36.7208C1.0716 36.1905 1.3017 35.6991 1.59354 35.2636C1.53181 35.0348 1.4813 34.8003 1.44762 34.5434C1.23436 33.0137 1.76752 31.6179 2.77211 30.5348C3.26598 29.9933 3.79914 29.6192 4.35475 29.3792C3.94506 27.6484 3.7318 25.8674 3.7318 24.0474C3.7318 11.1729 14.221 0.738281 27.1629 0.738281C31.6078 0.738281 35.7664 1.96654 39.3133 4.11042C39.953 4.50124 40.5816 4.91996 41.1822 5.3666C41.4797 5.58993 41.7771 5.81883 42.0633 6.0589C42.3551 6.29338 42.6413 6.53903 42.9164 6.79027C43.747 7.54398 44.5271 8.35352 45.2398 9.21888C45.4812 9.50362 45.7113 9.79951 45.9357 10.101C46.3903 10.6984 46.8112 11.3181 47.1985 11.9601C47.7877 12.9204 48.304 13.9253 48.7531 14.9693C49.0505 15.6673 49.3087 16.3819 49.5387 17.1133C49.8811 18.2076 50.1449 19.3353 50.3245 20.4966C50.3806 20.8818 50.4311 21.2726 50.4704 21.6634C50.549 22.4451 50.5939 23.2379 50.5939 24.0474C50.5939 25.8451 50.3806 27.6093 49.9821 29.3122C50.5995 29.5522 51.1831 29.943 51.7275 30.5348C52.7321 31.6179 53.2653 33.0192 53.052 34.549C53.0184 34.8003 52.9678 35.0348 52.9061 35.2636C53.198 35.6991 53.4281 36.1905 53.5683 36.7208C53.877 37.8877 53.776 38.9428 53.3888 39.8641Z" fill="white"/>
<path d="M46.737 24.2058C46.737 13.5261 38.0123 4.86846 27.25 4.86846C16.4877 4.86846 7.76312 13.5261 7.76312 24.2058C7.76312 34.8854 16.4877 43.5431 27.25 43.5431C38.0123 43.5431 46.737 34.8854 46.737 24.2058ZM5.52002 24.2058C5.52002 12.2967 15.2489 2.64258 27.25 2.64258C39.2511 2.64258 48.98 12.2967 48.98 24.2058C48.98 36.1148 39.2511 45.7689 27.25 45.7689C15.2489 45.7689 5.52002 36.1148 5.52002 24.2058Z" fill="black"/>
<path d="M27.2499 43.6529C38.0802 43.6529 46.8599 34.9463 46.8599 24.2063C46.8599 13.4663 38.0802 4.75977 27.2499 4.75977C16.4196 4.75977 7.63989 13.4663 7.63989 24.2063C7.63989 34.9463 16.4196 43.6529 27.2499 43.6529Z" fill="white"/>
<path d="M22.1829 43.5129C23.7296 41.2845 23.62 39.6122 21.4978 37.5285C19.3757 35.4453 18.1405 32.3975 18.1405 32.3975C18.1405 32.3975 17.6791 30.6274 16.6281 30.7903C15.5772 30.9532 14.8055 33.5984 17.0069 35.2167C19.2082 36.8344 16.5685 37.9337 15.7216 36.4143C14.8747 34.8947 12.562 30.9885 11.3628 30.2414C10.164 29.4944 9.31986 29.9129 9.60254 31.4528C9.88523 32.9927 14.8988 36.7251 14.411 37.5328C13.9232 38.3401 12.2041 36.5837 12.2041 36.5837C12.2041 36.5837 6.82458 31.7742 5.65336 33.0274C4.48216 34.2808 6.54189 35.331 9.47722 37.0768C12.4131 38.822 12.6407 39.283 12.2242 39.9434C11.8072 40.6037 5.3274 35.2366 4.71876 37.5118C4.11067 39.7871 11.3318 40.4475 10.8862 42.0183C10.4405 43.5896 5.79948 39.0451 4.85026 40.8158C3.90048 42.587 11.3992 44.668 11.46 44.6834C13.8822 45.3007 20.0339 46.6087 22.1829 43.5129Z" fill="white"/>
<path d="M10.3953 27.7246C9.49229 27.7246 8.68519 28.0926 8.12241 28.7601C7.77436 29.1734 7.41069 29.8398 7.38113 30.8375C7.00241 30.7296 6.63819 30.6693 6.29795 30.6693C5.4334 30.6693 4.65253 30.998 4.10033 31.5952C3.39085 32.3616 3.07572 33.3035 3.21292 34.2459C3.27819 34.6948 3.42934 35.0972 3.65524 35.4696C3.17891 35.8519 2.82807 36.3844 2.6585 37.0247C2.52576 37.5266 2.38966 38.572 3.10026 39.649C3.05508 39.7192 3.01269 39.7923 2.97309 39.867C2.54583 40.6716 2.51851 41.5808 2.89556 42.4276C3.46727 43.7109 4.8879 44.722 7.64663 45.8073C9.36288 46.4824 10.933 46.9141 10.9469 46.9179C13.2159 47.5018 15.268 47.7984 17.0444 47.7984C20.3097 47.7984 22.6473 46.8061 23.9926 44.8493C26.1579 41.6982 25.8483 38.8161 23.0467 36.0379C21.496 34.5006 20.4653 32.2338 20.2505 31.7363C19.8177 30.2631 18.6731 28.6256 16.7706 28.6256H16.7701C16.6099 28.6256 16.4482 28.6383 16.2888 28.6632C15.4554 28.7932 14.727 29.2692 14.2066 29.9853C13.6449 29.2924 13.0994 28.7412 12.6058 28.4302C11.8617 27.962 11.1182 27.7246 10.3953 27.7246ZM10.3953 29.9383C10.6798 29.9383 11.0273 30.0583 11.4104 30.2996C12.6002 31.0484 14.8959 34.9638 15.7365 36.4867C16.0181 36.9969 16.4996 37.2128 16.9329 37.2128C17.793 37.2128 18.4645 36.3645 17.0116 35.2864C14.8268 33.6643 15.5932 31.013 16.6362 30.8497C16.6819 30.8425 16.7271 30.8392 16.7706 30.8392C17.7188 30.8392 18.1372 32.4607 18.1372 32.4607C18.1372 32.4607 19.3631 35.5155 21.4693 37.6036C23.5754 39.692 23.6842 41.3683 22.1492 43.6019C21.1022 45.1249 19.0982 45.3235 17.0444 45.3235C14.9144 45.3235 12.7269 44.951 11.5032 44.6361C11.443 44.6206 4.0044 42.6738 4.94703 40.8985C5.10544 40.6002 5.36647 40.4807 5.695 40.4807C7.02249 40.4807 9.43707 42.4409 10.4751 42.4409C10.7071 42.4409 10.88 42.2628 10.9469 42.0237C11.4088 40.3738 4.21245 39.8675 4.81651 37.5869C4.92304 37.1835 5.21197 37.0197 5.61803 37.0202C7.37222 37.0202 11.3078 40.0811 12.1328 40.0811C12.1958 40.0811 12.2409 40.0629 12.2655 40.0241C12.6788 39.3623 12.4884 38.8234 9.57524 37.0741C6.66203 35.3242 4.58114 34.3484 5.74409 33.0922C5.87794 32.9471 6.06759 32.8829 6.29795 32.8829C8.06663 32.8835 12.2454 36.6566 12.2454 36.6566C12.2454 36.6566 13.3732 37.8204 14.0554 37.8204C14.2121 37.8204 14.3455 37.759 14.4358 37.6074C14.9193 36.7983 9.94408 33.0572 9.66352 31.5138C9.47333 30.4679 9.79683 29.9383 10.3953 29.9383Z" fill="black"/>
<path d="M32.2215 43.5129C30.675 41.2845 30.7845 39.6122 32.9066 37.5285C35.0287 35.4453 36.264 32.3975 36.264 32.3975C36.264 32.3975 36.7255 30.6274 37.7763 30.7903C38.8273 30.9532 39.5989 33.5984 37.3976 35.2167C35.1962 36.8344 37.8359 37.9337 38.6829 36.4143C39.5298 34.8947 41.8424 30.9885 43.0418 30.2414C44.2405 29.4944 45.0846 29.9129 44.8019 31.4528C44.5192 32.9927 39.5056 36.7251 39.9934 37.5328C40.4813 38.3401 42.2005 36.5837 42.2005 36.5837C42.2005 36.5837 47.58 31.7742 48.7512 33.0274C49.9224 34.2808 47.8626 35.331 44.9273 37.0768C41.9913 38.822 41.7637 39.283 42.1802 39.9434C42.5972 40.6037 49.0771 35.2366 49.6858 37.5118C50.2938 39.7871 43.0726 40.4475 43.5184 42.0183C43.964 43.5896 48.605 39.0451 49.5542 40.8158C50.504 42.587 43.0052 44.668 42.9445 44.6834C40.5223 45.3007 34.3707 46.6087 32.2215 43.5129Z" fill="white"/>
<path d="M44.0091 27.7246C44.9121 27.7246 45.7192 28.0926 46.2819 28.7601C46.63 29.1734 46.9937 29.8398 47.0233 30.8375C47.4019 30.7296 47.7661 30.6693 48.1064 30.6693C48.9709 30.6693 49.7518 30.998 50.304 31.5952C51.0136 32.3616 51.3287 33.3035 51.1914 34.2459C51.1262 34.6948 50.9751 35.0972 50.7491 35.4696C51.2254 35.8519 51.5763 36.3844 51.7459 37.0247C51.8786 37.5266 52.0147 38.572 51.3041 39.649C51.3493 39.7192 51.3917 39.7923 51.4313 39.867C51.8586 40.6716 51.8858 41.5808 51.5088 42.4276C50.9371 43.7109 49.5165 44.722 46.7578 45.8073C45.0415 46.4824 43.4713 46.9141 43.4574 46.9179C41.1884 47.5018 39.1364 47.7984 37.3599 47.7984C34.0947 47.7984 31.7571 46.8061 30.4118 44.8493C28.2466 41.6982 28.5561 38.8161 31.3578 36.0379C32.9083 34.5006 33.9391 32.2338 34.1538 31.7363C34.5866 30.2631 35.7312 28.6256 37.6338 28.6256H37.6343C37.7944 28.6256 37.9562 28.6383 38.1157 28.6632C38.949 28.7932 39.6774 29.2692 40.1978 29.9853C40.7595 29.2924 41.305 28.7412 41.7987 28.4302C42.5427 27.962 43.2862 27.7246 44.0091 27.7246ZM44.0091 29.9383C43.7246 29.9383 43.3771 30.0583 42.9939 30.2996C41.8042 31.0484 39.5084 34.9638 38.6678 36.4867C38.3862 36.9969 37.9049 37.2128 37.4714 37.2128C36.6113 37.2128 35.9398 36.3645 37.3928 35.2864C39.5776 33.6643 38.8113 31.013 37.7682 30.8497C37.7224 30.8425 37.6773 30.8392 37.6338 30.8392C36.6855 30.8392 36.2673 32.4607 36.2673 32.4607C36.2673 32.4607 35.0413 35.5155 32.9351 37.6036C30.8289 39.692 30.7202 41.3683 32.2552 43.6019C33.3021 45.1249 35.3062 45.3235 37.3599 45.3235C39.49 45.3235 41.6774 44.951 42.9012 44.6361C42.9614 44.6206 50.4 42.6738 49.4574 40.8985C49.2989 40.6002 49.0379 40.4807 48.7093 40.4807C47.3819 40.4807 44.9673 42.4409 43.9293 42.4409C43.6972 42.4409 43.5243 42.2628 43.4574 42.0237C42.9955 40.3738 50.1919 39.8675 49.5879 37.5869C49.4813 37.1835 49.1924 37.0197 48.7864 37.0202C47.0322 37.0202 43.0965 40.0811 42.2716 40.0811C42.2086 40.0811 42.1634 40.0629 42.1388 40.0241C41.7255 39.3623 41.9159 38.8234 44.8291 37.0741C47.7424 35.3242 49.8233 34.3484 48.6602 33.0922C48.5265 32.9471 48.3367 32.8829 48.1064 32.8829C46.3378 32.8835 42.159 36.6566 42.159 36.6566C42.159 36.6566 41.0311 37.8204 40.349 37.8204C40.1922 37.8204 40.059 37.759 39.9686 37.6074C39.485 36.7983 44.4603 33.0572 44.7409 31.5138C44.9311 30.4679 44.6076 29.9383 44.0091 29.9383Z" fill="black"/>
<path d="M34.5934 24.9627C34.5934 22.4582 31.34 26.2753 27.3175 26.2923C23.2953 26.2755 20.042 22.4584 20.042 24.9627C20.042 26.6232 20.8377 29.3238 22.9749 30.9623C23.4002 29.5014 25.7369 28.3311 26.071 28.4991C26.5466 28.7384 26.5199 29.4016 27.3175 29.9858C28.1153 29.4016 28.0886 28.7386 28.5642 28.4991C28.8984 28.3311 31.235 29.5014 31.6601 30.9623C33.7973 29.3238 34.5931 26.6232 34.5931 24.9629L34.5934 24.9627Z" fill="#0E1116"/>
<path d="M28.5645 28.4985C28.0889 28.7378 28.1156 29.4009 27.3178 29.9852C26.5202 29.4009 26.5469 28.738 26.0713 28.4985C25.7371 28.3305 23.4005 29.5007 22.9753 30.9616C24.0559 31.7901 25.4796 32.3469 27.3166 32.3604C27.317 32.3604 27.3174 32.3604 27.3181 32.3604C27.3186 32.3604 27.319 32.3604 27.3196 32.3604C29.1566 32.3471 30.5803 31.7901 31.6609 30.9616C31.2357 29.5007 28.8989 28.3305 28.5649 28.4985H28.5645Z" fill="#FF323D"/>
<path d="M40.2881 21.4811C41.2833 21.4811 42.0901 20.6756 42.0901 19.6819C42.0901 18.6883 41.2833 17.8828 40.2881 17.8828C39.2929 17.8828 38.4861 18.6883 38.4861 19.6819C38.4861 20.6756 39.2929 21.4811 40.2881 21.4811Z" fill="black"/>
<path d="M14.3181 21.4811C15.3133 21.4811 16.1201 20.6756 16.1201 19.6819C16.1201 18.6883 15.3133 17.8828 14.3181 17.8828C13.3229 17.8828 12.5161 18.6883 12.5161 19.6819C12.5161 20.6756 13.3229 21.4811 14.3181 21.4811Z" fill="black"/>
<path d="M33.9344 18.8987C34.6485 19.1498 34.9325 20.6114 35.6539 20.2296C37.0198 19.5063 37.5384 17.8172 36.8121 16.457C36.0858 15.0967 34.3896 14.5804 33.0236 15.3036C31.6576 16.0269 31.139 17.7159 31.8653 19.0761C32.2081 19.7182 33.2962 18.6743 33.9344 18.8987Z" fill="#0E1116"/>
<path d="M20.7368 18.8987C20.0228 19.1498 19.7387 20.6114 19.0175 20.2296C17.6515 19.5063 17.1329 17.8172 17.8592 16.457C18.5855 15.0967 20.2816 14.5804 21.6477 15.3036C23.0137 16.0269 23.5322 17.7159 22.8059 19.0761C22.4631 19.7182 21.375 18.6743 20.7368 18.8987Z" fill="#0E1116"/>
</g>
<path d="M69.7999 38.2383V23.6928H72.4348V29.8505H79.1749V23.6928H81.8169V38.2383H79.1749V32.0593H72.4348V38.2383H69.7999ZM91.5222 33.6502V27.3292H94.0932V38.2383H91.6003V36.2994H91.4867C91.2405 36.9102 90.8356 37.4097 90.2722 37.7979C89.7135 38.1862 89.0246 38.3803 88.2054 38.3803C87.4905 38.3803 86.8584 38.2217 86.3091 37.9045C85.7646 37.5825 85.3385 37.1161 85.0307 36.5053C84.723 35.8898 84.5691 35.1464 84.5691 34.2752V27.3292H87.1401V33.8775C87.1401 34.5688 87.3295 35.118 87.7083 35.5252C88.0871 35.9324 88.5842 36.136 89.1998 36.136C89.5785 36.136 89.9455 36.0437 90.3006 35.859C90.6557 35.6744 90.9469 35.3997 91.1742 35.0352C91.4062 34.6658 91.5222 34.2042 91.5222 33.6502ZM101.481 42.5565C100.558 42.5565 99.765 42.431 99.1021 42.18C98.4392 41.9338 97.9065 41.6024 97.5041 41.1857C97.1016 40.7691 96.8223 40.3074 96.666 39.8008L98.9814 39.2397C99.0855 39.4528 99.237 39.6635 99.4359 39.8718C99.6348 40.0849 99.9023 40.2601 100.238 40.3974C100.579 40.5394 101.008 40.6104 101.524 40.6104C102.253 40.6104 102.857 40.4329 103.335 40.0778C103.813 39.7274 104.052 39.1497 104.052 38.3448V36.2781H103.925C103.792 36.5432 103.598 36.8155 103.342 37.0948C103.091 37.3742 102.757 37.6085 102.341 37.7979C101.929 37.9873 101.41 38.082 100.785 38.082C99.9473 38.082 99.1873 37.8855 98.5055 37.4925C97.8284 37.0948 97.2886 36.503 96.8862 35.717C96.4885 34.9263 96.2896 33.9367 96.2896 32.7482C96.2896 31.5503 96.4885 30.5394 96.8862 29.7156C97.2886 28.887 97.8308 28.2596 98.5126 27.8335C99.1944 27.4026 99.9544 27.1871 100.792 27.1871C101.432 27.1871 101.957 27.296 102.369 27.5138C102.786 27.7269 103.117 27.985 103.363 28.288C103.61 28.5863 103.797 28.868 103.925 29.1332H104.067V27.3292H106.602V38.4158C106.602 39.3486 106.38 40.1204 105.934 40.7312C105.489 41.342 104.881 41.7989 104.109 42.1019C103.337 42.4049 102.461 42.5565 101.481 42.5565ZM101.503 36.065C102.047 36.065 102.511 35.9324 102.895 35.6673C103.278 35.4021 103.569 35.021 103.768 34.5238C103.967 34.0266 104.067 33.43 104.067 32.734C104.067 32.0475 103.967 31.4461 103.768 30.93C103.574 30.4139 103.285 30.0138 102.902 29.7298C102.523 29.4409 102.057 29.2965 101.503 29.2965C100.93 29.2965 100.452 29.4457 100.068 29.744C99.6845 30.0423 99.3957 30.4518 99.2015 30.9727C99.0074 31.4888 98.9103 32.0759 98.9103 32.734C98.9103 33.4016 99.0074 33.9864 99.2015 34.4883C99.4004 34.9854 99.6916 35.3737 100.075 35.6531C100.463 35.9277 100.939 36.065 101.503 36.065ZM113.981 42.5565C113.058 42.5565 112.265 42.431 111.602 42.18C110.939 41.9338 110.407 41.6024 110.004 41.1857C109.602 40.7691 109.322 40.3074 109.166 39.8008L111.481 39.2397C111.586 39.4528 111.737 39.6635 111.936 39.8718C112.135 40.0849 112.402 40.2601 112.738 40.3974C113.079 40.5394 113.508 40.6104 114.024 40.6104C114.753 40.6104 115.357 40.4329 115.835 40.0778C116.313 39.7274 116.552 39.1497 116.552 38.3448V36.2781H116.425C116.292 36.5432 116.098 36.8155 115.842 37.0948C115.591 37.3742 115.257 37.6085 114.841 37.7979C114.429 37.9873 113.91 38.082 113.285 38.082C112.447 38.082 111.687 37.8855 111.006 37.4925C110.328 37.0948 109.789 36.503 109.386 35.717C108.988 34.9263 108.79 33.9367 108.79 32.7482C108.79 31.5503 108.988 30.5394 109.386 29.7156C109.789 28.887 110.331 28.2596 111.013 27.8335C111.694 27.4026 112.454 27.1871 113.292 27.1871C113.932 27.1871 114.457 27.296 114.869 27.5138C115.286 27.7269 115.617 27.985 115.863 28.288C116.11 28.5863 116.297 28.868 116.425 29.1332H116.567V27.3292H119.102V38.4158C119.102 39.3486 118.88 40.1204 118.434 40.7312C117.989 41.342 117.381 41.7989 116.609 42.1019C115.837 42.4049 114.961 42.5565 113.981 42.5565ZM114.003 36.065C114.547 36.065 115.011 35.9324 115.395 35.6673C115.778 35.4021 116.069 35.021 116.268 34.5238C116.467 34.0266 116.567 33.43 116.567 32.734C116.567 32.0475 116.467 31.4461 116.268 30.93C116.074 30.4139 115.785 30.0138 115.402 29.7298C115.023 29.4409 114.557 29.2965 114.003 29.2965C113.43 29.2965 112.952 29.4457 112.568 29.744C112.184 30.0423 111.896 30.4518 111.702 30.9727C111.507 31.4888 111.41 32.0759 111.41 32.734C111.41 33.4016 111.507 33.9864 111.702 34.4883C111.9 34.9854 112.192 35.3737 112.575 35.6531C112.963 35.9277 113.439 36.065 114.003 36.065ZM121.737 38.2383V27.3292H124.308V38.2383H121.737ZM123.03 25.7809C122.622 25.7809 122.272 25.646 121.979 25.3761C121.685 25.1014 121.538 24.7724 121.538 24.3888C121.538 24.0006 121.685 23.6715 121.979 23.4016C122.272 23.127 122.622 22.9897 123.03 22.9897C123.442 22.9897 123.792 23.127 124.081 23.4016C124.374 23.6715 124.521 24.0006 124.521 24.3888C124.521 24.7724 124.374 25.1014 124.081 25.3761C123.792 25.646 123.442 25.7809 123.03 25.7809ZM129.523 31.8462V38.2383H126.952V27.3292H129.409V29.1829H129.537C129.788 28.5721 130.188 28.0868 130.737 27.7269C131.291 27.3671 131.976 27.1871 132.79 27.1871C133.543 27.1871 134.199 27.3481 134.757 27.6701C135.321 27.9921 135.756 28.4585 136.064 29.0692C136.377 29.68 136.53 30.421 136.526 31.2923V38.2383H133.955V31.69C133.955 30.9608 133.765 30.3903 133.387 29.9783C133.012 29.5664 132.494 29.3604 131.831 29.3604C131.381 29.3604 130.981 29.4599 130.631 29.6587C130.285 29.8529 130.013 30.1346 129.814 30.5039C129.62 30.8732 129.523 31.3207 129.523 31.8462ZM143.884 42.5565C142.96 42.5565 142.167 42.431 141.504 42.18C140.842 41.9338 140.309 41.6024 139.906 41.1857C139.504 40.7691 139.225 40.3074 139.068 39.8008L141.384 39.2397C141.488 39.4528 141.639 39.6635 141.838 39.8718C142.037 40.0849 142.305 40.2601 142.641 40.3974C142.982 40.5394 143.41 40.6104 143.926 40.6104C144.655 40.6104 145.259 40.4329 145.737 40.0778C146.216 39.7274 146.455 39.1497 146.455 38.3448V36.2781H146.327C146.194 36.5432 146 36.8155 145.744 37.0948C145.494 37.3742 145.16 37.6085 144.743 37.7979C144.331 37.9873 143.813 38.082 143.188 38.082C142.35 38.082 141.59 37.8855 140.908 37.4925C140.231 37.0948 139.691 36.503 139.289 35.717C138.891 34.9263 138.692 33.9367 138.692 32.7482C138.692 31.5503 138.891 30.5394 139.289 29.7156C139.691 28.887 140.233 28.2596 140.915 27.8335C141.597 27.4026 142.357 27.1871 143.195 27.1871C143.834 27.1871 144.36 27.296 144.771 27.5138C145.188 27.7269 145.52 27.985 145.766 28.288C146.012 28.5863 146.199 28.868 146.327 29.1332H146.469V27.3292H149.004V38.4158C149.004 39.3486 148.782 40.1204 148.337 40.7312C147.892 41.342 147.283 41.7989 146.512 42.1019C145.74 42.4049 144.864 42.5565 143.884 42.5565ZM143.905 36.065C144.45 36.065 144.914 35.9324 145.297 35.6673C145.681 35.4021 145.972 35.021 146.171 34.5238C146.369 34.0266 146.469 33.43 146.469 32.734C146.469 32.0475 146.369 31.4461 146.171 30.93C145.977 30.4139 145.688 30.0138 145.304 29.7298C144.925 29.4409 144.459 29.2965 143.905 29.2965C143.332 29.2965 142.854 29.4457 142.47 29.744C142.087 30.0423 141.798 30.4518 141.604 30.9727C141.41 31.4888 141.313 32.0759 141.313 32.734C141.313 33.4016 141.41 33.9864 141.604 34.4883C141.803 34.9854 142.094 35.3737 142.477 35.6531C142.866 35.9277 143.342 36.065 143.905 36.065ZM156.714 38.2383V23.6928H166.032V25.9016H159.349V29.8505H165.393V32.0593H159.349V38.2383H156.714ZM171.361 38.4585C170.669 38.4585 170.047 38.3353 169.493 38.0891C168.943 37.8382 168.508 37.4689 168.186 36.9812C167.869 36.4935 167.71 35.8922 167.71 35.1772C167.71 34.5617 167.824 34.0527 168.051 33.6502C168.278 33.2478 168.588 32.9258 168.981 32.6843C169.374 32.4428 169.817 32.2605 170.309 32.1374C170.807 32.0096 171.32 31.9173 171.851 31.8604C172.49 31.7942 173.008 31.735 173.406 31.6829C173.804 31.6261 174.093 31.5408 174.273 31.4272C174.457 31.3088 174.55 31.1265 174.55 30.8803V30.8377C174.55 30.3027 174.391 29.8884 174.074 29.5948C173.756 29.3013 173.3 29.1545 172.703 29.1545C172.073 29.1545 171.574 29.2918 171.204 29.5664C170.84 29.841 170.594 30.1654 170.466 30.5394L168.065 30.1985C168.255 29.5356 168.567 28.9817 169.003 28.5366C169.438 28.0868 169.971 27.7506 170.601 27.5281C171.23 27.3008 171.926 27.1871 172.689 27.1871C173.214 27.1871 173.738 27.2487 174.258 27.3718C174.779 27.4949 175.255 27.6985 175.686 27.9826C176.117 28.262 176.462 28.6431 176.723 29.1261C176.988 29.609 177.121 30.2127 177.121 30.9371V38.2383H174.649V36.7397H174.564C174.407 37.0427 174.187 37.3268 173.903 37.592C173.624 37.8524 173.271 38.0631 172.845 38.2241C172.424 38.3803 171.929 38.4585 171.361 38.4585ZM172.028 36.5692C172.544 36.5692 172.992 36.4674 173.371 36.2638C173.749 36.0555 174.041 35.7809 174.244 35.44C174.452 35.0991 174.557 34.7274 174.557 34.3249V33.0394C174.476 33.1057 174.339 33.1673 174.145 33.2241C173.955 33.2809 173.742 33.3306 173.506 33.3732C173.269 33.4158 173.034 33.4537 172.802 33.4869C172.57 33.52 172.369 33.5484 172.199 33.5721C171.815 33.6242 171.472 33.7094 171.169 33.8278C170.866 33.9461 170.627 34.1119 170.452 34.3249C170.276 34.5333 170.189 34.8031 170.189 35.1346C170.189 35.6081 170.362 35.9656 170.707 36.207C171.053 36.4485 171.493 36.5692 172.028 36.5692ZM184.464 38.4513C183.375 38.4513 182.44 38.2122 181.659 37.734C180.882 37.2558 180.283 36.5953 179.862 35.7525C179.445 34.9049 179.237 33.9296 179.237 32.8263C179.237 31.7184 179.45 30.7406 179.876 29.8931C180.302 29.0408 180.904 28.378 181.68 27.9045C182.461 27.4263 183.385 27.1871 184.45 27.1871C185.336 27.1871 186.119 27.3505 186.801 27.6772C187.488 27.9992 188.034 28.4561 188.442 29.0479C188.849 29.6351 189.081 30.3216 189.138 31.1076H186.68C186.581 30.582 186.344 30.1441 185.97 29.7937C185.601 29.4386 185.106 29.261 184.486 29.261C183.96 29.261 183.498 29.4031 183.101 29.6871C182.703 29.9665 182.393 30.369 182.17 30.8945C181.952 31.4201 181.844 32.0498 181.844 32.7837C181.844 33.5271 181.952 34.1663 182.17 34.7013C182.388 35.2317 182.693 35.6412 183.086 35.93C183.484 36.2141 183.951 36.3562 184.486 36.3562C184.864 36.3562 185.203 36.2852 185.501 36.1431C185.804 35.9963 186.058 35.7856 186.261 35.511C186.465 35.2364 186.604 34.9026 186.68 34.5096H189.138C189.076 35.2814 188.849 35.9656 188.456 36.5621C188.063 37.154 187.528 37.618 186.851 37.9542C186.174 38.2856 185.378 38.4513 184.464 38.4513ZM196.078 38.4513C194.985 38.4513 194.04 38.2241 193.244 37.7695C192.454 37.3103 191.845 36.6616 191.419 35.8235C190.993 34.9807 190.78 33.9888 190.78 32.8477C190.78 31.7255 190.993 30.7406 191.419 29.8931C191.85 29.0408 192.451 28.378 193.223 27.9045C193.995 27.4263 194.902 27.1871 195.943 27.1871C196.616 27.1871 197.25 27.296 197.847 27.5138C198.448 27.7269 198.978 28.0584 199.438 28.5082C199.902 28.958 200.266 29.5309 200.531 30.2269C200.797 30.9182 200.929 31.7421 200.929 32.6985V33.4869H191.987V31.7539H198.465C198.46 31.2615 198.353 30.8235 198.145 30.44C197.937 30.0517 197.646 29.7463 197.271 29.5238C196.902 29.3013 196.471 29.19 195.979 29.19C195.453 29.19 194.992 29.3178 194.594 29.5735C194.196 29.8245 193.886 30.1559 193.664 30.5678C193.446 30.975 193.334 31.4225 193.33 31.9102V33.4229C193.33 34.0574 193.446 34.6019 193.678 35.0565C193.91 35.5063 194.234 35.8519 194.651 36.0934C195.067 36.3301 195.555 36.4485 196.114 36.4485C196.488 36.4485 196.826 36.3964 197.129 36.2923C197.432 36.1834 197.695 36.0247 197.918 35.8164C198.14 35.6081 198.308 35.35 198.422 35.0423L200.823 35.3121C200.671 35.9466 200.382 36.5006 199.956 36.9741C199.535 37.4428 198.995 37.8074 198.337 38.0678C197.679 38.3235 196.926 38.4513 196.078 38.4513ZM207.54 25.9016V23.6928H219.145V25.9016H214.649V38.2383H212.035V25.9016H207.54ZM220.135 38.2383V27.3292H222.628V29.1474H222.742C222.941 28.5176 223.282 28.0323 223.765 27.6914C224.252 27.3458 224.809 27.1729 225.434 27.1729C225.576 27.1729 225.734 27.18 225.91 27.1942C226.09 27.2037 226.239 27.2203 226.357 27.244V29.609C226.248 29.5711 226.075 29.538 225.839 29.5096C225.607 29.4764 225.382 29.4599 225.164 29.4599C224.695 29.4599 224.274 29.5617 223.9 29.7653C223.53 29.9641 223.239 30.2411 223.026 30.5962C222.813 30.9513 222.706 31.3609 222.706 31.8249V38.2383H220.135ZM231.009 38.4585C230.318 38.4585 229.695 38.3353 229.141 38.0891C228.592 37.8382 228.156 37.4689 227.834 36.9812C227.517 36.4935 227.358 35.8922 227.358 35.1772C227.358 34.5617 227.472 34.0527 227.699 33.6502C227.927 33.2478 228.237 32.9258 228.63 32.6843C229.023 32.4428 229.465 32.2605 229.958 32.1374C230.455 32.0096 230.969 31.9173 231.499 31.8604C232.138 31.7942 232.657 31.735 233.055 31.6829C233.452 31.6261 233.741 31.5408 233.921 31.4272C234.106 31.3088 234.198 31.1265 234.198 30.8803V30.8377C234.198 30.3027 234.039 29.8884 233.722 29.5948C233.405 29.3013 232.948 29.1545 232.351 29.1545C231.722 29.1545 231.222 29.2918 230.853 29.5664C230.488 29.841 230.242 30.1654 230.114 30.5394L227.714 30.1985C227.903 29.5356 228.215 28.9817 228.651 28.5366C229.087 28.0868 229.619 27.7506 230.249 27.5281C230.879 27.3008 231.575 27.1871 232.337 27.1871C232.863 27.1871 233.386 27.2487 233.907 27.3718C234.428 27.4949 234.903 27.6985 235.334 27.9826C235.765 28.262 236.111 28.6431 236.371 29.1261C236.636 29.609 236.769 30.2127 236.769 30.9371V38.2383H234.297V36.7397H234.212C234.056 37.0427 233.836 37.3268 233.552 37.592C233.272 37.8524 232.92 38.0631 232.493 38.2241C232.072 38.3803 231.577 38.4585 231.009 38.4585ZM231.677 36.5692C232.193 36.5692 232.64 36.4674 233.019 36.2638C233.398 36.0555 233.689 35.7809 233.893 35.44C234.101 35.0991 234.205 34.7274 234.205 34.3249V33.0394C234.125 33.1057 233.987 33.1673 233.793 33.2241C233.604 33.2809 233.391 33.3306 233.154 33.3732C232.917 33.4158 232.683 33.4537 232.451 33.4869C232.219 33.52 232.018 33.5484 231.847 33.5721C231.464 33.6242 231.12 33.7094 230.817 33.8278C230.514 33.9461 230.275 34.1119 230.1 34.3249C229.925 34.5333 229.837 34.8031 229.837 35.1346C229.837 35.6081 230.01 35.9656 230.356 36.207C230.701 36.4485 231.142 36.5692 231.677 36.5692ZM241.925 31.8462V38.2383H239.354V27.3292H241.812V29.1829H241.939C242.19 28.5721 242.59 28.0868 243.14 27.7269C243.694 27.3671 244.378 27.1871 245.192 27.1871C245.945 27.1871 246.601 27.3481 247.16 27.6701C247.723 27.9921 248.159 28.4585 248.466 29.0692C248.779 29.68 248.933 30.421 248.928 31.2923V38.2383H246.357V31.69C246.357 30.9608 246.168 30.3903 245.789 29.9783C245.415 29.5664 244.896 29.3604 244.233 29.3604C243.784 29.3604 243.384 29.4599 243.033 29.6587C242.688 29.8529 242.415 30.1346 242.216 30.5039C242.022 30.8732 241.925 31.3207 241.925 31.8462ZM260.164 30.2127L257.82 30.4684C257.754 30.2317 257.638 30.0091 257.472 29.8008C257.311 29.5924 257.093 29.4244 256.819 29.2965C256.544 29.1687 256.208 29.1048 255.81 29.1048C255.275 29.1048 254.825 29.2208 254.461 29.4528C254.101 29.6848 253.923 29.9854 253.928 30.3548C253.923 30.672 254.039 30.93 254.276 31.1289C254.518 31.3278 254.915 31.4911 255.469 31.619L257.33 32.0167C258.362 32.2392 259.129 32.592 259.631 33.0749C260.138 33.5579 260.394 34.19 260.398 34.9712C260.394 35.6578 260.192 36.2638 259.795 36.7894C259.402 37.3103 258.855 37.7174 258.154 38.011C257.453 38.3046 256.648 38.4513 255.739 38.4513C254.404 38.4513 253.329 38.172 252.515 37.6133C251.7 37.0498 251.215 36.2662 251.059 35.2624L253.566 35.021C253.68 35.5134 253.921 35.8851 254.29 36.136C254.66 36.387 255.14 36.5124 255.732 36.5124C256.343 36.5124 256.833 36.387 257.202 36.136C257.576 35.8851 257.763 35.5749 257.763 35.2056C257.763 34.8931 257.643 34.6351 257.401 34.4315C257.164 34.2279 256.795 34.0716 256.293 33.9627L254.432 33.5721C253.386 33.3543 252.612 32.9873 252.11 32.4712C251.608 31.9504 251.359 31.2923 251.364 30.4968C251.359 29.8245 251.542 29.2421 251.911 28.7496C252.285 28.2525 252.804 27.869 253.466 27.5991C254.134 27.3245 254.903 27.1871 255.775 27.1871C257.053 27.1871 258.059 27.4594 258.793 28.0039C259.532 28.5484 259.989 29.2847 260.164 30.2127ZM268.044 27.3292V29.3178H261.595V27.3292H268.044ZM263.207 38.2383V26.2994C263.207 25.5655 263.359 24.9547 263.662 24.467C263.97 23.9793 264.381 23.6147 264.898 23.3732C265.414 23.1317 265.987 23.011 266.616 23.011C267.061 23.011 267.457 23.0465 267.802 23.1175C268.148 23.1886 268.404 23.2525 268.569 23.3093L268.058 25.2979C267.949 25.2648 267.812 25.2317 267.646 25.1985C267.48 25.1606 267.296 25.1417 267.092 25.1417C266.614 25.1417 266.275 25.2577 266.077 25.4897C265.882 25.717 265.785 26.0437 265.785 26.4698V38.2383H263.207ZM274.406 38.4513C273.34 38.4513 272.417 38.217 271.636 37.7482C270.855 37.2795 270.249 36.6237 269.818 35.7809C269.392 34.9381 269.178 33.9532 269.178 32.8263C269.178 31.6995 269.392 30.7122 269.818 29.8647C270.249 29.0172 270.855 28.359 271.636 27.8903C272.417 27.4215 273.34 27.1871 274.406 27.1871C275.471 27.1871 276.394 27.4215 277.176 27.8903C277.957 28.359 278.561 29.0172 278.987 29.8647C279.418 30.7122 279.633 31.6995 279.633 32.8263C279.633 33.9532 279.418 34.9381 278.987 35.7809C278.561 36.6237 277.957 37.2795 277.176 37.7482C276.394 38.217 275.471 38.4513 274.406 38.4513ZM274.42 36.3917C274.998 36.3917 275.481 36.2331 275.869 35.9158C276.257 35.5939 276.546 35.163 276.735 34.6232C276.929 34.0835 277.026 33.4821 277.026 32.8192C277.026 32.1516 276.929 31.5479 276.735 31.0082C276.546 30.4637 276.257 30.0304 275.869 29.7085C275.481 29.3865 274.998 29.2255 274.42 29.2255C273.828 29.2255 273.336 29.3865 272.943 29.7085C272.554 30.0304 272.263 30.4637 272.069 31.0082C271.88 31.5479 271.785 32.1516 271.785 32.8192C271.785 33.4821 271.88 34.0835 272.069 34.6232C272.263 35.163 272.554 35.5939 272.943 35.9158C273.336 36.2331 273.828 36.3917 274.42 36.3917ZM281.815 38.2383V27.3292H284.308V29.1474H284.422C284.621 28.5176 284.961 28.0323 285.444 27.6914C285.932 27.3458 286.488 27.1729 287.113 27.1729C287.256 27.1729 287.414 27.18 287.589 27.1942C287.769 27.2037 287.918 27.2203 288.037 27.244V29.609C287.928 29.5711 287.755 29.538 287.518 29.5096C287.286 29.4764 287.061 29.4599 286.844 29.4599C286.375 29.4599 285.953 29.5617 285.579 29.7653C285.21 29.9641 284.919 30.2411 284.706 30.5962C284.493 30.9513 284.386 31.3609 284.386 31.8249V38.2383H281.815ZM289.745 38.2383V27.3292H292.202V29.1829H292.33C292.557 28.5579 292.934 28.0702 293.459 27.7198C293.985 27.3647 294.612 27.1871 295.341 27.1871C296.08 27.1871 296.703 27.3671 297.209 27.7269C297.721 28.082 298.081 28.5674 298.289 29.1829H298.403C298.644 28.5768 299.051 28.0939 299.624 27.734C300.202 27.3694 300.886 27.1871 301.677 27.1871C302.68 27.1871 303.5 27.5044 304.134 28.1388C304.769 28.7733 305.086 29.699 305.086 30.9158V38.2383H302.508V31.3136C302.508 30.6365 302.328 30.1417 301.968 29.8292C301.608 29.512 301.168 29.3533 300.647 29.3533C300.027 29.3533 299.541 29.5475 299.191 29.9357C298.845 30.3192 298.672 30.8188 298.672 31.4343V38.2383H296.151V31.207C296.151 30.6436 295.981 30.1938 295.64 29.8576C295.304 29.5214 294.863 29.3533 294.319 29.3533C293.949 29.3533 293.613 29.448 293.31 29.6374C293.007 29.8221 292.766 30.0849 292.586 30.4258C292.406 30.762 292.316 31.1549 292.316 31.6048V38.2383H289.745ZM312.524 38.4513C311.43 38.4513 310.485 38.2241 309.69 37.7695C308.899 37.3103 308.291 36.6616 307.865 35.8235C307.438 34.9807 307.225 33.9888 307.225 32.8477C307.225 31.7255 307.438 30.7406 307.865 29.8931C308.295 29.0408 308.897 28.378 309.669 27.9045C310.44 27.4263 311.347 27.1871 312.389 27.1871C313.061 27.1871 313.695 27.296 314.292 27.5138C314.893 27.7269 315.424 28.0584 315.883 28.5082C316.347 28.958 316.712 29.5309 316.977 30.2269C317.242 30.9182 317.374 31.7421 317.374 32.6985V33.4869H308.433V31.7539H314.91C314.905 31.2615 314.799 30.8235 314.59 30.44C314.382 30.0517 314.091 29.7463 313.717 29.5238C313.347 29.3013 312.917 29.19 312.424 29.19C311.899 29.19 311.437 29.3178 311.039 29.5735C310.642 29.8245 310.331 30.1559 310.109 30.5678C309.891 30.975 309.78 31.4225 309.775 31.9102V33.4229C309.775 34.0574 309.891 34.6019 310.123 35.0565C310.355 35.5063 310.679 35.8519 311.096 36.0934C311.513 36.3301 312 36.4485 312.559 36.4485C312.933 36.4485 313.272 36.3964 313.575 36.2923C313.878 36.1834 314.141 36.0247 314.363 35.8164C314.586 35.6081 314.754 35.35 314.867 35.0423L317.268 35.3121C317.116 35.9466 316.828 36.5006 316.401 36.9741C315.98 37.4428 315.44 37.8074 314.782 38.0678C314.124 38.3235 313.371 38.4513 312.524 38.4513ZM319.55 38.2383V27.3292H322.042V29.1474H322.156C322.355 28.5176 322.696 28.0323 323.179 27.6914C323.666 27.3458 324.223 27.1729 324.848 27.1729C324.99 27.1729 325.148 27.18 325.324 27.1942C325.504 27.2037 325.653 27.2203 325.771 27.244V29.609C325.662 29.5711 325.489 29.538 325.253 29.5096C325.021 29.4764 324.796 29.4599 324.578 29.4599C324.109 29.4599 323.688 29.5617 323.314 29.7653C322.944 29.9641 322.653 30.2411 322.44 30.5962C322.227 30.9513 322.121 31.3609 322.121 31.8249V38.2383H319.55ZM336.101 30.2127L333.758 30.4684C333.691 30.2317 333.575 30.0091 333.41 29.8008C333.249 29.5924 333.031 29.4244 332.756 29.2965C332.482 29.1687 332.145 29.1048 331.748 29.1048C331.213 29.1048 330.763 29.2208 330.398 29.4528C330.038 29.6848 329.861 29.9854 329.866 30.3548C329.861 30.672 329.977 30.93 330.214 31.1289C330.455 31.3278 330.853 31.4911 331.407 31.619L333.268 32.0167C334.3 32.2392 335.067 32.592 335.569 33.0749C336.075 33.5579 336.331 34.19 336.336 34.9712C336.331 35.6578 336.13 36.2638 335.732 36.7894C335.339 37.3103 334.792 37.7174 334.091 38.011C333.391 38.3046 332.586 38.4513 331.677 38.4513C330.341 38.4513 329.267 38.172 328.452 37.6133C327.638 37.0498 327.153 36.2662 326.996 35.2624L329.503 35.021C329.617 35.5134 329.858 35.8851 330.228 36.136C330.597 36.387 331.078 36.5124 331.67 36.5124C332.28 36.5124 332.77 36.387 333.14 36.136C333.514 35.8851 333.701 35.5749 333.701 35.2056C333.701 34.8931 333.58 34.6351 333.339 34.4315C333.102 34.2279 332.733 34.0716 332.231 33.9627L330.37 33.5721C329.323 33.3543 328.549 32.9873 328.047 32.4712C327.546 31.9504 327.297 31.2923 327.302 30.4968C327.297 29.8245 327.479 29.2421 327.849 28.7496C328.223 28.2525 328.741 27.869 329.404 27.5991C330.072 27.3245 330.841 27.1871 331.712 27.1871C332.991 27.1871 333.997 27.4594 334.731 28.0039C335.469 28.5484 335.926 29.2847 336.101 30.2127Z" fill="white"/>
<defs>
<clipPath id="clip0_1822_5208">
<rect width="53" height="49" fill="white" transform="translate(0.75 0.738281)"/>
</clipPath>
</defs>
</svg>
