<svg width="222" height="41" viewBox="0 0 222 41" fill="none" xmlns="http://www.w3.org/2000/svg">
<path d="M42.9916 30.1206C42.88 29.7002 42.6996 29.3014 42.4576 28.9401C42.5094 28.7499 42.549 28.5566 42.5754 28.3612C42.7473 27.1218 42.3176 25.9872 41.5079 25.1092C41.0692 24.6297 40.5991 24.313 40.1011 24.1187C40.428 22.7202 40.5933 21.289 40.5941 19.8529C40.5941 19.1969 40.557 18.5544 40.4947 17.9214C40.4624 17.6054 40.4232 17.2901 40.3771 16.9757C40.2347 16.048 40.0231 15.1321 39.7444 14.236C39.5617 13.6471 39.3503 13.0675 39.111 12.4992C38.7524 11.6576 38.3336 10.8429 37.8581 10.0614C37.5462 9.5415 37.2064 9.03873 36.8404 8.55532C36.661 8.31121 36.4741 8.07287 36.2796 7.84063C35.7034 7.14045 35.0773 6.48293 34.4061 5.87325C34.1832 5.66827 33.954 5.47033 33.7186 5.27967C33.487 5.08644 33.2501 4.89945 33.0085 4.71887C32.5221 4.35687 32.0196 4.01728 31.5024 3.70116C28.6442 1.96524 25.2924 0.969727 21.71 0.969727C11.2796 0.969727 2.82601 9.4237 2.82601 19.8536C2.8256 21.3078 2.994 22.7571 3.32791 24.1724C2.87993 24.367 2.45062 24.6702 2.05241 25.1088C1.24294 25.9863 0.813002 27.1169 0.984935 28.3563C1.01107 28.5531 1.05027 28.748 1.10253 28.9397C0.860724 29.3012 0.680412 29.7002 0.568894 30.1206C0.320015 31.0665 0.401938 31.9196 0.71822 32.667C0.374354 33.6439 0.460217 34.6842 0.90799 35.5887C1.23361 36.2492 1.69963 36.7603 2.27412 37.2169C2.95709 37.7599 3.81198 38.2212 4.84317 38.6638C6.07345 39.1885 7.57523 39.6815 8.25819 39.8623C10.0223 40.319 11.7139 40.6085 13.4282 40.6226C15.8707 40.6452 17.9742 40.071 19.4801 38.6011C20.2199 38.6918 20.9647 38.7372 21.71 38.7368C22.4975 38.7351 23.2842 38.6855 24.0657 38.5885C25.5681 40.0676 27.6796 40.6471 30.131 40.6239C31.8452 40.6102 33.5367 40.3207 35.2963 39.8633C35.9838 39.6825 37.485 39.1895 38.7159 38.6648C39.7471 38.2216 40.602 37.7603 41.2895 37.2182C41.8596 36.7613 42.3252 36.2505 42.6511 35.5899C43.1034 34.6852 43.1847 33.6449 42.8456 32.6681C43.1588 31.9206 43.2403 31.0657 42.9916 30.1206ZM41.2412 32.6038C41.5877 33.2614 41.6099 34.0046 41.3042 34.6966C40.8405 35.7455 39.6886 36.5717 37.4514 37.4588C36.0602 38.0105 34.7863 38.3632 34.7751 38.3663C32.9351 38.8436 31.2709 39.086 29.8303 39.086C27.4448 39.086 25.6697 38.4277 24.5439 37.1278C22.6402 37.4521 20.6965 37.4631 18.7893 37.1605C17.662 38.4389 15.8971 39.086 13.5317 39.086C12.0909 39.086 10.427 38.8436 8.58671 38.3663C8.57551 38.3632 7.30208 38.0105 5.91044 37.4588C3.67344 36.5717 2.52113 35.7461 2.0576 34.6966C1.75189 34.0046 1.77409 33.2614 2.12065 32.6038C2.15259 32.5426 2.18702 32.4831 2.22373 32.4254C2.01604 32.1135 1.87673 31.7611 1.81494 31.3913C1.75318 31.0217 1.77035 30.6432 1.86534 30.2807C2.00305 29.7574 2.2874 29.3223 2.67357 29.0098C2.48754 28.7041 2.36548 28.3639 2.31477 28.0097C2.20361 27.2394 2.45933 26.4704 3.03445 25.8432C3.48243 25.3552 4.11561 25.0866 4.81662 25.0866H4.83529C4.30673 23.3924 4.03875 21.6276 4.04053 19.8529C4.04053 10.1734 11.8877 2.3257 21.5686 2.3257C31.2493 2.3257 39.0965 10.1726 39.0965 19.8529C39.0979 21.6324 38.8281 23.4017 38.2961 25.0999C38.3807 25.0916 38.4637 25.0875 38.5452 25.0873C39.2462 25.0873 39.8796 25.3558 40.3272 25.8438C40.9023 26.4704 41.1582 27.24 41.0468 28.0103C40.9962 28.3646 40.8741 28.7047 40.6882 29.0104C41.0744 29.323 41.359 29.7581 41.4965 30.2813C41.5915 30.6439 41.6087 31.0224 41.5469 31.3922C41.4853 31.7617 41.3459 32.1141 41.1381 32.426C41.1748 32.4831 41.2096 32.5426 41.2412 32.6038Z" fill="white"/>
<path d="M41.1383 32.4261C41.3461 32.1142 41.4855 31.7618 41.5473 31.3922C41.6089 31.0224 41.5917 30.6439 41.4967 30.2814C41.359 29.7581 41.0744 29.323 40.6885 29.0104C40.8745 28.7047 40.9964 28.3646 41.047 28.0104C41.1584 27.2401 40.9027 26.4711 40.3274 25.8439C39.8798 25.3559 39.2464 25.0873 38.5454 25.0873C38.4639 25.0873 38.3809 25.0916 38.2963 25.0999C38.8277 23.4018 39.0971 21.6327 39.0952 19.8534C39.0952 10.1737 31.2481 2.32617 21.5682 2.32617C11.8881 2.32617 4.04011 10.1729 4.04011 19.8534C4.03836 21.6281 4.30634 23.3928 4.83488 25.0871H4.81619C4.11518 25.0871 3.48202 25.3555 3.03424 25.8435C2.45913 26.47 2.20318 27.2399 2.31455 28.0099C2.3653 28.3642 2.48735 28.7045 2.67335 29.0102C2.28717 29.3226 2.00264 29.7577 1.86493 30.281C1.76998 30.6437 1.75287 31.0222 1.81472 31.392C1.87657 31.7616 2.01594 32.1142 2.22371 32.4261C2.18679 32.4837 2.15278 32.5433 2.12063 32.6044C1.77428 33.2621 1.7519 34.0052 2.05781 34.6973C2.52156 35.7461 3.67343 36.5724 5.91063 37.4594C7.30165 38.0111 8.57572 38.3639 8.58692 38.367C10.427 38.8442 12.0911 39.0867 13.5317 39.0867C15.8973 39.0867 17.6623 38.4396 18.7895 37.1612C20.6967 37.4638 22.6404 37.4526 24.5442 37.1284C25.6699 38.4284 27.445 39.0867 29.8305 39.0867C31.2711 39.0867 32.9353 38.8442 34.7751 38.367C34.7865 38.3639 36.0599 38.0111 37.4516 37.4594C39.6888 36.5724 40.8409 35.7461 41.3044 34.6973C41.6101 34.0052 41.5879 33.2621 41.2414 32.6044C41.2099 32.5428 41.175 32.4831 41.1383 32.4261ZM17.9829 35.1598C17.8858 35.3295 17.7819 35.4952 17.6714 35.6563C17.38 36.0829 16.9967 36.409 16.5518 36.6512C15.7015 37.1149 14.6251 37.2769 13.5317 37.2769C11.8043 37.2769 10.0335 36.8727 9.04112 36.6153C8.99218 36.6027 2.9573 34.8981 3.72135 33.4471C3.84994 33.203 4.06147 33.1055 4.32797 33.1055C5.40375 33.1055 7.36263 34.7075 8.20446 34.7075C8.39257 34.7075 8.5253 34.6274 8.57943 34.432C8.93823 33.1453 3.12631 32.6044 3.61577 30.7412C3.70205 30.4114 3.93643 30.2774 4.26578 30.2774C5.68811 30.2772 8.88039 32.7787 9.54801 32.7787C9.59923 32.7787 9.63592 32.7635 9.65583 32.732C9.65873 32.7272 9.66166 32.7227 9.66436 32.7177C9.97773 32.2002 9.7979 31.824 7.65112 30.5091L7.44496 30.3836C5.08249 28.9538 3.42434 28.0933 4.36738 27.0667C4.47585 26.9483 4.62974 26.8958 4.8166 26.8958C5.03811 26.8958 5.30627 26.9698 5.60161 27.0943C6.84932 27.6205 8.57863 29.0554 9.30099 29.6812C9.41463 29.7799 9.52753 29.8796 9.63965 29.98C9.63965 29.98 10.5543 30.9312 11.1072 30.9312C11.2346 30.9312 11.3426 30.881 11.4158 30.7569C11.808 30.0958 7.77328 27.0383 7.54576 25.7767C7.39146 24.922 7.65402 24.4889 8.13933 24.4889C8.37017 24.4889 8.65182 24.5873 8.96271 24.7845C9.92711 25.3965 11.7891 28.5963 12.4708 29.8411C12.6994 30.2581 13.0895 30.4344 13.4411 30.4344C14.1385 30.4344 14.6838 29.7411 13.5049 28.8601C11.7331 27.5344 12.3549 25.3675 13.2005 25.2341C13.2366 25.2283 13.2731 25.2254 13.3094 25.2254C14.0784 25.2254 14.4175 26.5505 14.4175 26.5505C14.4175 26.5505 15.4118 29.0471 17.1197 30.7538C18.6694 32.3029 18.8859 33.574 17.9829 35.1598ZM23.5057 35.4522L23.4172 35.4628L23.2662 35.48C23.1867 35.4883 23.1071 35.4962 23.0272 35.5035L22.9495 35.5105L22.8783 35.5165L22.7775 35.5246L22.6662 35.5327L22.555 35.54L22.5303 35.5416C22.5013 35.5433 22.4722 35.5451 22.4428 35.5466L22.4057 35.5487C22.3712 35.5505 22.3368 35.5522 22.302 35.5536L22.1815 35.5588L22.0722 35.5626L21.9992 35.5646H21.962C21.9392 35.5646 21.9166 35.5659 21.8938 35.5661H21.8577C21.8349 35.5661 21.8123 35.5661 21.7895 35.5671L21.6966 35.5684H21.5669C21.4651 35.5684 21.3635 35.5673 21.2623 35.5653L21.1802 35.5634C21.1567 35.5634 21.1333 35.5624 21.1103 35.5615L21.0231 35.559L20.9151 35.5549L20.8176 35.5505L20.7925 35.5495L20.6998 35.5447C20.6739 35.5433 20.6484 35.542 20.6227 35.5402L20.5627 35.5366C20.4874 35.5319 20.4122 35.5267 20.3369 35.5209L20.2581 35.5145C20.2249 35.512 20.1917 35.5089 20.1587 35.5059C20.1199 35.5026 20.0811 35.4989 20.0424 35.4952C19.9774 35.4892 19.9125 35.4825 19.8476 35.4755H19.8445C20.7923 33.361 20.313 31.3862 18.3977 29.4725C17.1415 28.218 16.3059 26.3655 16.1325 25.9588C15.7815 24.7548 14.8528 23.4165 13.3104 23.4165C13.18 23.4165 13.0497 23.4269 12.9209 23.4472C12.2452 23.5536 11.6546 23.9425 11.2331 24.5277C10.7777 23.9613 10.3351 23.5111 9.9348 23.2568C9.33127 22.8741 8.72897 22.68 8.14224 22.68C7.40991 22.68 6.75536 22.9807 6.29909 23.5262L6.28747 23.5401C6.27876 23.5042 6.27047 23.4683 6.26196 23.4323L6.26093 23.4275C6.17409 23.0562 6.10119 22.6819 6.04233 22.305C6.04233 22.3026 6.04233 22.3001 6.04108 22.2976C6.03652 22.2692 6.03237 22.2405 6.02802 22.2121C6.01526 22.1279 6.0033 22.0435 5.99214 21.9591C5.98716 21.9207 5.98177 21.8824 5.977 21.844L5.9629 21.7289C5.95833 21.6905 5.9546 21.6557 5.95045 21.6192L5.94923 21.6101C5.93266 21.4607 5.91814 21.3114 5.90565 21.1617L5.90109 21.1042L5.89383 21.0063C5.89176 20.9796 5.88968 20.9526 5.88823 20.9256C5.88823 20.9192 5.8872 20.913 5.88699 20.907C5.88172 20.8319 5.87722 20.7566 5.87351 20.6813C5.87143 20.6421 5.86936 20.6031 5.8677 20.5637L5.86355 20.4609L5.86251 20.4297L5.8592 20.335L5.85712 20.2543C5.85712 20.2221 5.85546 20.19 5.85505 20.1578C5.85443 20.1257 5.8536 20.0904 5.85339 20.0564C5.85297 20.0224 5.85339 19.9888 5.85235 19.955C5.85152 19.921 5.85235 19.8872 5.85235 19.8534C5.85235 11.1732 12.8896 4.13593 21.5707 4.13593C30.2515 4.13593 37.2886 11.173 37.2886 19.8534V20.0564C37.2886 20.0902 37.2875 20.1243 37.2869 20.1578C37.2869 20.1858 37.2857 20.2134 37.2848 20.2418C37.2848 20.2667 37.2838 20.2918 37.283 20.3159C37.283 20.3476 37.2811 20.3793 37.2801 20.4111V20.4136L37.2757 20.5237C37.2743 20.5558 37.273 20.5882 37.2714 20.6203L37.2703 20.6432L37.2647 20.746C37.2525 20.9665 37.2357 21.1865 37.2147 21.4064V21.4091C37.2112 21.4452 37.2077 21.4813 37.2038 21.5173L37.1944 21.6026L37.176 21.7693L37.1654 21.8537L37.1523 21.9531C37.1475 21.9892 37.1428 22.0255 37.1374 22.0613C37.132 22.1018 37.126 22.142 37.12 22.1823L37.1056 22.2775L37.0886 22.3853C37.0828 22.4212 37.0766 22.4569 37.07 22.4925C37.0631 22.5284 37.0577 22.5641 37.0515 22.5998C37.0391 22.6711 37.026 22.7424 37.0123 22.8136C36.9914 22.92 36.97 23.0262 36.948 23.1324L36.9252 23.2375C36.9177 23.2726 36.9097 23.3078 36.9018 23.3429C36.4594 22.9129 35.8735 22.6788 35.2274 22.6788C34.6411 22.6788 34.0382 22.8727 33.4349 23.2553C33.0346 23.5096 32.5922 23.9601 32.1366 24.5263C31.7145 23.941 31.1239 23.5521 30.4486 23.4457C30.3198 23.4254 30.1895 23.415 30.0591 23.415C28.5162 23.415 27.5881 24.7534 27.237 25.9573C27.0628 26.364 26.227 28.2165 24.9697 29.4729C23.0557 31.3806 22.5728 33.3465 23.5057 35.4522ZM39.7328 31.2194L39.7265 31.2379C39.7108 31.2796 39.6925 31.3202 39.672 31.3596C39.6564 31.3887 39.6396 31.4169 39.6214 31.4443C39.5868 31.4959 39.5488 31.5453 39.5075 31.5917C39.498 31.6025 39.4889 31.6133 39.4781 31.6239C39.4632 31.6398 39.448 31.6556 39.4325 31.6709C39.1533 31.9476 38.7277 32.1903 38.2465 32.4128C38.192 32.4375 38.1366 32.4622 38.0808 32.4871L38.0253 32.5117C37.9881 32.5281 37.951 32.5443 37.912 32.5603C37.8749 32.5764 37.8363 32.5926 37.7977 32.6084L37.682 32.6561C37.4114 32.7675 37.1341 32.8736 36.8636 32.9784L36.7479 33.0234L36.6336 33.0682C36.5575 33.0978 36.4824 33.1275 36.4086 33.1572L36.2985 33.2015L36.1902 33.2457L36.1371 33.2681C36.1016 33.2828 36.067 33.2976 36.0324 33.3123C35.2366 33.6539 34.6639 34.0013 34.7842 34.4322C34.7876 34.4445 34.7913 34.4561 34.7954 34.4675C34.8062 34.4994 34.8209 34.5295 34.8394 34.5579C34.8502 34.5747 34.8626 34.5907 34.8765 34.6052C35.018 34.7523 35.2754 34.729 35.5999 34.6123C35.6456 34.5955 35.691 34.578 35.736 34.5598L35.7642 34.5482C35.8384 34.5167 35.917 34.4814 35.9973 34.4432C36.0174 34.4337 36.0378 34.4246 36.0581 34.414C36.455 34.2199 36.9049 33.9585 37.3512 33.7207C37.5298 33.6242 37.7108 33.5328 37.8942 33.4459C38.3169 33.247 38.7142 33.1059 39.0336 33.1059C39.1836 33.1059 39.3159 33.1366 39.4262 33.2071L39.4447 33.2194C39.514 33.2681 39.572 33.3308 39.6154 33.4033C39.6239 33.4172 39.6322 33.432 39.6403 33.4471C39.7981 33.7468 39.666 34.0571 39.3568 34.3613C39.06 34.6535 38.5983 34.94 38.0736 35.205C38.0346 35.2247 37.9956 35.2444 37.956 35.2637C36.3943 36.0307 34.3491 36.6083 34.3207 36.6155C33.7757 36.7568 32.9963 36.9422 32.1181 37.0809L31.9883 37.1013L31.9669 37.1044C31.8686 37.1193 31.7701 37.1332 31.6714 37.1461C31.5712 37.1595 31.47 37.1718 31.3682 37.1832L31.3495 37.1853C30.9803 37.2278 30.6097 37.256 30.2383 37.2695H30.2329C30.0985 37.2742 29.9643 37.2767 29.8299 37.2767H29.675C29.4701 37.274 29.2656 37.2647 29.0613 37.2489C29.0565 37.2489 29.0513 37.2489 29.0466 37.2477C28.9734 37.2421 28.9003 37.2352 28.8273 37.2271C28.7516 37.2191 28.6761 37.2099 28.6009 37.1998C28.5513 37.1931 28.5019 37.1857 28.4526 37.1776C28.4024 37.1695 28.3522 37.1612 28.3022 37.1525L28.234 37.1396L28.2288 37.1386C28.1568 37.1249 28.0853 37.1098 28.0139 37.0932C27.9724 37.0838 27.9312 37.0747 27.8903 37.0635L27.8656 37.0573C27.8453 37.0523 27.8256 37.0469 27.8055 37.0415L27.7945 37.0386L27.7306 37.02C27.7074 37.0135 27.6842 37.0065 27.6609 36.9996L27.6528 36.9973L27.5925 36.9789C27.5697 36.9718 27.5469 36.9644 27.5243 36.9569L27.4687 36.9384L27.4278 36.9241C27.3884 36.9102 27.3492 36.8959 27.3104 36.881L27.2735 36.8665L27.243 36.8545C27.1841 36.8308 27.1256 36.8061 27.0678 36.7802L27.0294 36.7615L27.023 36.7586C27.0093 36.7522 26.9958 36.7458 26.9821 36.7402C26.9554 36.7273 26.9288 36.714 26.9025 36.7006L26.8944 36.6966L26.8562 36.6765C26.7884 36.641 26.722 36.6033 26.6569 36.5633L26.6212 36.5413C26.6034 36.5303 26.5856 36.5189 26.5682 36.5073L26.5217 36.4766L26.4717 36.4421L26.4418 36.4208C26.4103 36.3984 26.3794 36.3752 26.3491 36.3513L26.3008 36.3142C26.2815 36.2986 26.2624 36.2829 26.2436 36.2669C26.2276 36.2538 26.2121 36.2401 26.1965 36.2265L26.1952 36.2254C26.1784 36.2107 26.1621 36.196 26.1457 36.1808C26.1295 36.1661 26.1133 36.1512 26.0976 36.136L26.0957 36.1342C26.0791 36.1184 26.0629 36.1024 26.047 36.086C26.031 36.0699 26.0146 36.0537 25.9991 36.0371C25.9835 36.0207 25.9675 36.0039 25.9522 35.9867C25.9368 35.9697 25.9227 35.9541 25.9082 35.9373L25.9034 35.9317C25.8893 35.9156 25.8754 35.8992 25.8618 35.8824C25.8321 35.8469 25.8033 35.8106 25.7755 35.7735C25.7475 35.7362 25.7201 35.698 25.6933 35.6592L25.6678 35.6211C25.6338 35.5713 25.6006 35.5211 25.5685 35.4701C25.5444 35.4334 25.521 35.3964 25.4982 35.3589C25.4835 35.3355 25.4694 35.3118 25.4553 35.2886L25.4494 35.2791C25.436 35.2562 25.4227 35.2338 25.4098 35.2112C25.4024 35.199 25.3953 35.1868 25.3887 35.1741C25.3818 35.1613 25.374 35.1482 25.3667 35.1351L25.3549 35.1146L25.3476 35.1013C25.3337 35.0764 25.32 35.0513 25.3068 35.026C25.3005 35.0148 25.2945 35.0036 25.2881 34.9928L25.2696 34.957L25.251 34.9215C25.2043 34.8282 25.1601 34.7336 25.1186 34.6378L25.1039 34.6027C25.0944 34.5793 25.0855 34.5561 25.0759 34.533C25.0714 34.5218 25.0668 34.5108 25.0629 34.4997C25.0407 34.4422 25.0199 34.3841 25.0008 34.3256C24.994 34.3047 24.9874 34.2842 24.9811 34.2634C24.9662 34.2163 24.9527 34.1689 24.9407 34.1209C24.926 34.0652 24.9129 34.0089 24.9019 33.9523C24.8996 33.9409 24.8974 33.9295 24.8955 33.9185C24.8847 33.8631 24.876 33.8074 24.8691 33.7514C24.8675 33.7404 24.8662 33.7294 24.865 33.7184L24.8615 33.6848C24.8569 33.6408 24.8534 33.5966 24.8513 33.5525C24.8513 33.5413 24.8503 33.5301 24.8499 33.5193C24.8488 33.4973 24.8484 33.4753 24.8482 33.4533C24.8366 32.5671 25.285 31.7151 26.2438 30.7567C27.9517 29.0505 28.946 26.5536 28.946 26.5536C28.946 26.5536 28.9727 26.4489 29.0283 26.2981C29.036 26.2771 29.0441 26.2556 29.0532 26.233C29.0856 26.1486 29.1221 26.0656 29.1625 25.9847L29.1706 25.9691C29.205 25.9003 29.2428 25.8331 29.2834 25.7678C29.293 25.7526 29.3021 25.7377 29.3127 25.7226C29.3431 25.6775 29.3753 25.6336 29.4091 25.5911C29.4276 25.568 29.4477 25.5452 29.4678 25.523C29.4759 25.5143 29.4838 25.5056 29.4923 25.4973C29.5912 25.3951 29.7042 25.3117 29.8322 25.2673L29.8484 25.2619C29.8592 25.2584 29.8699 25.2551 29.8809 25.252C29.8936 25.2486 29.9062 25.2457 29.9193 25.243L29.9253 25.2418C29.9523 25.2364 29.9796 25.2329 30.0072 25.231H30.0095C30.0238 25.231 30.0383 25.2296 30.0531 25.2296C30.0715 25.2296 30.0887 25.2296 30.1068 25.2314C30.1254 25.2331 30.1439 25.2352 30.1626 25.2381C30.3165 25.2625 30.4629 25.3542 30.589 25.4957C30.6369 25.5496 30.68 25.6077 30.7178 25.669C30.7427 25.7089 30.7661 25.751 30.7883 25.7953C30.7972 25.8138 30.8057 25.8308 30.814 25.8491C30.8356 25.8959 30.8551 25.9436 30.8721 25.9924C30.9125 26.1064 30.943 26.2238 30.9631 26.3433C30.9806 26.448 30.9909 26.5538 30.9942 26.6598C30.9959 26.7164 30.9959 26.7739 30.9942 26.8317C30.983 27.1009 30.9279 27.3666 30.831 27.6182C30.8223 27.6412 30.8126 27.6644 30.8032 27.6877C30.7841 27.7345 30.7632 27.7806 30.7406 27.8256C30.7238 27.8598 30.7062 27.8942 30.6871 27.9284C30.6746 27.9513 30.6616 27.9741 30.6485 27.9969C30.6151 28.0537 30.579 28.1101 30.5402 28.1663L30.5168 28.1999C30.4251 28.3277 30.3231 28.4476 30.2115 28.5583C30.1016 28.6684 29.9838 28.7703 29.8591 28.8632C29.7343 28.9557 29.6171 29.0581 29.5089 29.1695C29.1971 29.4966 29.1245 29.7853 29.1946 30.0041C29.2058 30.0385 29.2206 30.0719 29.2384 30.1034C29.2594 30.1395 29.2842 30.1727 29.3125 30.203L29.3234 30.2144L29.3346 30.2256C29.3458 30.2364 29.3577 30.2469 29.3703 30.2573L29.3828 30.2673C29.4128 30.2905 29.4448 30.3112 29.4782 30.3295C29.4879 30.3347 29.4966 30.3399 29.5076 30.3448C29.5437 30.3625 29.5808 30.3776 29.619 30.3898C29.6296 30.3934 29.6401 30.3965 29.6509 30.3998L29.6644 30.4033L29.6831 30.4083L29.699 30.4122L29.7165 30.416L29.7337 30.4195L29.7501 30.4222C29.7621 30.4243 29.7745 30.4263 29.787 30.4278L29.7988 30.4297L29.8204 30.4317L29.8336 30.4332L29.8554 30.4346H29.8683L29.8911 30.4359H29.9628L29.9834 30.4346L30.007 30.4332L30.0359 30.4305L30.0628 30.4274C30.069 30.4274 30.0753 30.4257 30.0815 30.4245C30.1644 30.4125 30.2457 30.3905 30.3235 30.3589L30.3565 30.345C30.375 30.337 30.3936 30.3285 30.4106 30.3193C30.4471 30.3011 30.4826 30.2803 30.5166 30.2577C30.5641 30.2266 30.6089 30.1918 30.6508 30.1534C30.6607 30.1445 30.6705 30.135 30.68 30.1258C30.6848 30.1213 30.6894 30.1169 30.6939 30.1119C30.7031 30.1026 30.7124 30.0935 30.7215 30.0833C30.7879 30.0103 30.8453 29.9298 30.8926 29.8434C31.2985 29.1052 31.7239 28.3781 32.1683 27.6628L32.2293 27.5651L32.2909 27.4674C32.3216 27.4178 32.3527 27.3691 32.3836 27.3206L32.4147 27.272C32.518 27.1103 32.6229 26.9495 32.7298 26.79L32.793 26.6955C32.9199 26.5073 33.0464 26.3244 33.1719 26.1506L33.2344 26.0646C33.3708 25.8764 33.5129 25.6923 33.6603 25.5127L33.7188 25.4426C33.7286 25.431 33.7375 25.4193 33.7481 25.4081C33.7674 25.3853 33.7867 25.3631 33.8055 25.3416C33.8151 25.3306 33.824 25.3198 33.8341 25.309L33.8897 25.2464L33.9175 25.2159C33.9455 25.1858 33.9729 25.157 33.9999 25.1294C34.0185 25.1107 34.0357 25.0923 34.0536 25.0748C34.1587 24.9674 34.2747 24.871 34.3997 24.7874L34.4288 24.7687C34.4566 24.7501 34.4854 24.7326 34.5148 24.7169C35.0051 24.4386 35.411 24.418 35.6447 24.6518C35.7862 24.7932 35.8646 25.0278 35.8602 25.3542C35.8602 25.3685 35.8602 25.383 35.8592 25.398V25.4139C35.8592 25.4289 35.8579 25.4438 35.8567 25.459C35.8567 25.4776 35.8546 25.4961 35.8528 25.5147C35.8509 25.5332 35.8499 25.5473 35.848 25.5639C35.848 25.5685 35.8472 25.5732 35.8463 25.5782C35.8451 25.5925 35.8432 25.6072 35.8411 25.622C35.8411 25.6263 35.8411 25.6309 35.8395 25.6354C35.8372 25.6551 35.8343 25.6746 35.831 25.6941C35.8287 25.7128 35.8256 25.7302 35.8223 25.7485L35.8169 25.7794C35.8115 25.8088 35.8046 25.8379 35.7961 25.8665C35.78 25.9202 35.7605 25.9727 35.7374 26.0237C35.7053 26.0938 35.6698 26.162 35.6308 26.2284C35.6093 26.2653 35.5871 26.3016 35.5641 26.3375C35.5404 26.3746 35.5155 26.4122 35.4898 26.4501C35.4243 26.5438 35.3562 26.6357 35.2855 26.7255L35.2532 26.7664C35.1379 26.9101 35.0188 27.0509 34.896 27.1884L34.8572 27.232C34.805 27.2903 34.7519 27.349 34.6975 27.4079L34.6567 27.4523C34.6295 27.4819 34.6011 27.5116 34.5737 27.5414C34.5466 27.5711 34.5181 27.6012 34.4895 27.6312L34.4043 27.721L34.3178 27.8115L34.2307 27.9019C34.1722 27.9625 34.1135 28.023 34.0544 28.0836C33.2134 28.9461 32.3274 29.8058 32.0275 30.3417C32.0074 30.3766 31.9893 30.4127 31.9732 30.4494C31.9304 30.5468 31.9126 30.6302 31.9248 30.6976C31.9288 30.7198 31.9365 30.741 31.9479 30.7605C31.9647 30.7897 31.9852 30.8167 32.009 30.8407C32.02 30.8515 32.0316 30.8615 32.0439 30.8706C32.1057 30.9146 32.1801 30.9372 32.2561 30.9351H32.2797L32.304 30.9332L32.3282 30.9305L32.3483 30.9276C32.351 30.9272 32.3539 30.9268 32.3566 30.926L32.3751 30.9224L32.3799 30.9214L32.4004 30.9171L32.4077 30.9152C32.4149 30.9133 32.422 30.9115 32.4292 30.9094C32.4365 30.9073 32.4464 30.9046 32.4552 30.9017C32.4917 30.8907 32.5273 30.8776 32.5624 30.8627C32.5808 30.8552 32.5989 30.8472 32.6167 30.8384C32.6261 30.8343 32.6354 30.8299 32.6441 30.8254L32.6719 30.8117C32.7383 30.7773 32.803 30.7397 32.866 30.6995L32.8936 30.6808C32.9029 30.675 32.9123 30.669 32.9212 30.6624L32.9488 30.6439L32.9635 30.6337L33.0033 30.6057C33.0404 30.5802 33.0751 30.5539 33.1101 30.5271L33.1132 30.5247L33.169 30.4815C33.2451 30.4214 33.3173 30.3608 33.3828 30.3038L33.4264 30.2656L33.4303 30.2619L33.4532 30.2418C33.5067 30.1936 33.5544 30.1488 33.594 30.1119L33.6104 30.096C33.6247 30.0825 33.6377 30.0698 33.6496 30.059L33.6728 30.036L33.6811 30.0279L33.6834 30.0257L33.7076 30.0014L33.723 29.9854L33.7248 29.984L33.7321 29.9773L33.7412 29.969L33.7441 29.9663L33.7518 29.9593L33.7941 29.9222L33.8178 29.901C33.8304 29.89 33.8427 29.8788 33.8549 29.8674L33.8831 29.8423C33.8883 29.8382 33.8933 29.8336 33.8984 29.829L33.9281 29.8031L33.9717 29.7647L33.9949 29.7446C34.0851 29.6662 34.1948 29.5715 34.3209 29.4646L34.3726 29.4209L34.4578 29.3493L34.5451 29.2765C34.6592 29.1818 34.782 29.0812 34.9118 28.9768L34.997 28.9084C35.0696 28.8505 35.1441 28.7916 35.2196 28.7323C35.2501 28.7085 35.281 28.6846 35.3125 28.661C35.3896 28.601 35.4672 28.5415 35.5454 28.4828C35.7233 28.3484 35.9069 28.2138 36.0927 28.0827L36.1724 28.0272C36.2281 27.9888 36.2837 27.9502 36.3393 27.9127L36.3897 27.8787C36.4891 27.8113 36.5899 27.7455 36.6915 27.6814L36.7419 27.6497L36.7919 27.6186C36.842 27.5875 36.8918 27.557 36.9414 27.5273L36.991 27.4977L37.0901 27.44L37.1874 27.3842L37.2071 27.3734L37.284 27.3311C37.3162 27.3137 37.3481 27.2969 37.38 27.2805L37.4275 27.2561L37.4738 27.2328C37.49 27.2252 37.5059 27.2171 37.5217 27.2094C37.6258 27.158 37.732 27.1107 37.8398 27.0675C37.8691 27.0551 37.8981 27.0439 37.9269 27.0341L38.012 27.0043C38.0375 26.9958 38.0624 26.9877 38.0862 26.9804L38.0945 26.9779C38.1074 26.9738 38.1202 26.9701 38.1329 26.9667L38.1366 26.9657C38.1632 26.958 38.1895 26.9514 38.2154 26.9452H38.2173C38.2907 26.9275 38.3654 26.9149 38.4407 26.9072C38.4753 26.9037 38.5099 26.9018 38.5448 26.902H38.5622C38.5854 26.902 38.6078 26.9035 38.63 26.9058C38.6402 26.9058 38.6504 26.9078 38.6603 26.9091H38.6645C38.6744 26.9103 38.6844 26.9118 38.6943 26.9141C38.7041 26.9159 38.714 26.9176 38.7236 26.9199H38.7267C38.7364 26.9219 38.7451 26.9244 38.7553 26.9273C38.808 26.9421 38.8582 26.9649 38.9042 26.9947C38.9268 27.0095 38.948 27.0261 38.9675 27.0445L38.9731 27.0499C38.9768 27.0532 38.9803 27.0567 38.9836 27.0603L38.9938 27.0713C39.0772 27.1586 39.146 27.2588 39.1979 27.3678L39.2058 27.3865C39.2234 27.428 39.2373 27.4709 39.2472 27.5147C39.2767 27.6487 39.2653 27.7885 39.2145 27.916C39.1952 27.9674 39.1718 28.017 39.1442 28.0643C39.0797 28.173 39.0031 28.274 38.9162 28.3654L38.8978 28.3851C38.8702 28.4142 38.8416 28.4432 38.8115 28.4722C38.7982 28.4853 38.7843 28.4982 38.7704 28.5112L38.7279 28.5504L38.7057 28.5701C38.6522 28.6178 38.5973 28.6641 38.5415 28.7089C38.5077 28.7363 38.4737 28.763 38.4392 28.7894C38.3177 28.8823 38.1939 28.9719 38.0678 29.0583C37.9917 29.1106 37.9149 29.1618 37.8376 29.2124C37.647 29.3375 37.4543 29.4595 37.2597 29.5781C36.8516 29.829 36.3993 30.0974 35.917 30.3892L35.7922 30.4649C35.6555 30.5483 35.5265 30.6279 35.405 30.7038L35.3438 30.7422L35.2281 30.8165C35.1513 30.8656 35.0748 30.9152 34.9983 30.9648L34.9367 31.0054C34.9066 31.0249 34.8767 31.0448 34.8469 31.0647L34.8176 31.0834L34.728 31.1437L34.6805 31.1763L34.625 31.2149L34.5733 31.2508C34.4868 31.3119 34.4064 31.3702 34.3323 31.4256L34.3045 31.4467C34.261 31.4797 34.2178 31.5133 34.1753 31.5475C34.1112 31.5992 34.0527 31.6485 34.0003 31.696L33.9746 31.7195C33.9598 31.733 33.9453 31.7464 33.9314 31.7597C33.9219 31.769 33.913 31.7784 33.903 31.7873L33.8897 31.8006C33.8601 31.8304 33.831 31.8609 33.803 31.8922L33.7894 31.908C33.7589 31.9433 33.7323 31.9771 33.7091 32.01L33.6987 32.0248C33.6805 32.0513 33.6637 32.0787 33.6485 32.1069C33.6446 32.1139 33.6411 32.121 33.6375 32.1281L33.6274 32.1492L33.6205 32.1646L33.6162 32.1749L33.6126 32.1843L33.6079 32.1969C33.595 32.232 33.5861 32.2685 33.5809 32.3054L33.5793 32.3182L33.578 32.3303V32.3956C33.578 32.401 33.578 32.4064 33.5795 32.4122L33.5805 32.4221C33.5805 32.4275 33.5817 32.4327 33.5826 32.4385C33.5834 32.4439 33.5849 32.4537 33.5865 32.4613V32.4624C33.588 32.4696 33.5894 32.4767 33.5913 32.4839C33.5932 32.4912 33.595 32.4995 33.5973 32.507C33.6012 32.5217 33.6062 32.5362 33.6114 32.5507C33.6147 32.5594 33.6178 32.5679 33.6214 32.5764C33.6214 32.5781 33.6226 32.58 33.6234 32.5816L33.6309 32.5984L33.6413 32.6215C33.6525 32.6453 33.6647 32.6685 33.678 32.6911L33.6917 32.7148L33.7058 32.7384C33.7083 32.7424 33.7112 32.7461 33.7143 32.7496L33.7188 32.7544L33.724 32.7592L33.7294 32.7633C33.7373 32.7689 33.7458 32.7733 33.7547 32.7764C33.7595 32.778 33.7645 32.7793 33.7694 32.7805C33.8891 32.8075 34.1351 32.7086 34.4619 32.536C34.4804 32.526 34.5007 32.5157 34.5204 32.5049L34.62 32.4506L34.6685 32.4236C34.7031 32.4051 34.7384 32.3842 34.7745 32.3637L34.8402 32.3265C35.2723 32.0779 35.7883 31.7585 36.3217 31.4465C36.3717 31.4173 36.4219 31.3881 36.472 31.3592L36.5728 31.2947C36.6898 31.2277 36.8074 31.1616 36.9254 31.0962C37.0741 31.0145 37.2239 30.9349 37.3751 30.8577L37.4738 30.8078C37.5393 30.7754 37.6042 30.7439 37.6683 30.7132C37.7923 30.6543 37.9178 30.5983 38.0448 30.5454L38.1142 30.5172L38.1225 30.5139C38.4907 30.3681 38.8244 30.2781 39.0944 30.2781C39.1527 30.2774 39.2112 30.2824 39.2686 30.2924H39.2705C39.2889 30.2957 39.3057 30.2994 39.3229 30.3036H39.3261C39.3702 30.3148 39.4132 30.3307 39.4538 30.3513C39.5108 30.3807 39.5621 30.4199 39.6054 30.4672C39.6253 30.4892 39.643 30.513 39.6585 30.5383C39.6876 30.5829 39.7104 30.6313 39.7267 30.6819C39.7334 30.7016 39.7392 30.7209 39.7452 30.7414C39.789 30.8984 39.7846 31.0649 39.7328 31.2194Z" fill="#FF9D00"/>
<path fill-rule="evenodd" clip-rule="evenodd" d="M37.2861 19.9548V19.853C37.2861 11.1726 30.2515 4.13574 21.5705 4.13574C12.8896 4.13574 5.85237 11.173 5.85237 19.853V19.887C5.85196 19.9096 5.85175 19.9322 5.85237 19.9548C5.85339 19.9887 5.85374 20.0225 5.85341 20.0563L5.85447 20.1309L5.85507 20.1577C5.85507 20.1701 5.8555 20.1824 5.85592 20.1948C5.85654 20.2145 5.85693 20.2344 5.85693 20.2541L5.85922 20.3348L5.86253 20.4296L5.86357 20.4607L5.86772 20.5588V20.5636C5.86938 20.6019 5.87147 20.6401 5.87334 20.6782L5.87353 20.6812C5.8756 20.7201 5.8777 20.7593 5.88018 20.7985C5.88226 20.8346 5.88431 20.8707 5.88701 20.9068L5.88744 20.9132C5.88925 20.9441 5.89132 20.9752 5.89364 21.0061L5.89427 21.0144L5.90111 21.104L5.90175 21.1098C5.903 21.1273 5.90422 21.1447 5.90588 21.1615C5.91828 21.311 5.93274 21.4606 5.94925 21.6097L5.95026 21.619L5.96292 21.7287L5.97704 21.8438L5.98739 21.922L5.99216 21.9587C6.00321 22.0433 6.01518 22.1278 6.02804 22.212L6.02889 22.2176L6.0411 22.2972C6.10032 22.6765 6.17365 23.0536 6.26095 23.4275L6.262 23.4321L6.26862 23.4601L6.28749 23.5399L6.29911 23.526C6.75538 22.9806 7.40993 22.6799 8.14226 22.6799C8.72919 22.6799 9.33129 22.874 9.93482 23.2566C10.3351 23.5109 10.7777 23.9612 11.2331 24.5276C11.6546 23.9423 12.2452 23.5532 12.9209 23.447C13.0498 23.4267 13.18 23.4165 13.3104 23.4163C14.8527 23.4163 15.7816 24.7547 16.1325 25.9586C16.3059 26.3653 17.1415 28.2178 18.4016 29.4709C20.3172 31.3846 20.7965 33.3592 19.8484 35.4736H19.8518C19.9163 35.4809 19.9812 35.4875 20.0465 35.4935C20.0853 35.4973 20.1239 35.501 20.1629 35.5043L20.1765 35.5056L20.2622 35.5128L20.341 35.5191C20.4161 35.5249 20.4914 35.5303 20.5669 35.535L20.6268 35.5386L20.6743 35.5415L20.7038 35.5431L20.7965 35.5479L20.8218 35.5489L20.919 35.5533L21.0273 35.5574L21.1142 35.5599L21.1287 35.5603C21.1472 35.5612 21.1656 35.5618 21.1841 35.5618L21.204 35.5624C21.3264 35.5653 21.4485 35.5668 21.5709 35.5666H21.7007L21.7934 35.5655C21.8162 35.5645 21.8388 35.5645 21.8619 35.5645H21.898L21.9293 35.5637C21.9415 35.5632 21.9537 35.5628 21.9662 35.5628H22.0033L22.0761 35.561L22.1856 35.5572L22.3061 35.5518C22.341 35.5506 22.3754 35.5487 22.4098 35.5471L22.4469 35.5448L22.5021 35.5419L22.5345 35.54L22.5589 35.5383L22.6703 35.5311L22.7815 35.523L22.8825 35.5149L22.9534 35.5089L23.0314 35.5018C23.1616 35.4902 23.2915 35.4765 23.4213 35.461L23.5099 35.4504C22.5768 33.3449 23.0598 31.3788 24.9672 29.4728C26.2247 28.2164 27.0603 26.3639 27.2345 25.957C27.5856 24.7532 28.514 23.4149 30.0566 23.4149C30.187 23.4149 30.3175 23.4252 30.4463 23.4456C31.1214 23.5518 31.712 23.9408 32.1341 24.5261C32.5898 23.9599 33.0321 23.5092 33.4326 23.255C34.0359 22.8725 34.6386 22.6784 35.225 22.6784C35.8712 22.6784 36.4569 22.9128 36.8993 23.3427C36.9074 23.3076 36.9153 23.2726 36.9229 23.2373L36.9455 23.1324C36.9536 23.094 36.9617 23.0557 36.9694 23.0173C36.9831 22.9495 36.9968 22.8817 37.0098 22.8132C37.0235 22.7423 37.0366 22.6709 37.049 22.5996L37.0555 22.561C37.0594 22.5382 37.0631 22.5154 37.0675 22.4924C37.0745 22.4567 37.0803 22.421 37.0862 22.3849L37.0884 22.3712L37.1032 22.2773L37.1177 22.1821V22.1813C37.1283 22.111 37.1382 22.0407 37.1475 21.9703L37.1498 21.9529L37.1629 21.8538L37.1735 21.7692L37.1921 21.6024L37.1994 21.5354L37.2013 21.5172C37.2052 21.4811 37.2089 21.445 37.2122 21.4089V21.406C37.2149 21.3774 37.2178 21.3486 37.2203 21.3197C37.2351 21.1563 37.2475 20.992 37.2575 20.8272C37.2593 20.8002 37.2608 20.773 37.2624 20.7459V20.7446L37.2678 20.6428L37.2691 20.62C37.2724 20.5511 37.2753 20.4823 37.2776 20.4134V20.4109L37.2786 20.384C37.2797 20.3613 37.2805 20.3385 37.2805 20.3157L37.2809 20.3066C37.2817 20.2852 37.2826 20.2632 37.2826 20.2415L37.2832 20.2228C37.2838 20.201 37.2844 20.1795 37.2844 20.1577L37.2848 20.1392C37.2855 20.1116 37.2861 20.0838 37.2861 20.0563V19.9548ZM17.672 35.6561C18.9168 33.8308 18.8285 32.4608 17.1207 30.7539C15.4126 29.0468 14.4185 26.5505 14.4185 26.5505C14.4185 26.5505 14.0475 25.1006 13.2013 25.2338C12.3552 25.3669 11.7344 27.5336 13.5062 28.8599C15.2778 30.1862 13.1536 31.0855 12.4717 29.8409C11.7898 28.5961 9.92796 25.3966 8.96272 24.7845C7.99749 24.1725 7.31868 24.5155 7.54619 25.7769C7.65923 26.4031 8.71034 27.4718 9.69237 28.4702C10.6887 29.4831 11.6139 30.4239 11.416 30.7568C11.0234 31.4178 9.64073 29.9801 9.64073 29.9801C9.64073 29.9801 5.31106 26.0399 4.36864 27.0667C3.49964 28.0131 4.83965 28.8176 6.90452 30.0576C7.07998 30.163 7.26084 30.2717 7.44604 30.3837C9.80852 31.8139 9.99225 32.1911 9.65689 32.7322C9.53307 32.9322 8.74226 32.4574 7.76956 31.8736C6.11141 30.8779 3.92504 29.5653 3.61622 30.7402C3.34909 31.7571 4.95766 32.3801 6.4165 32.9452C7.63185 33.416 8.74353 33.8466 8.57989 34.431C8.41045 35.0371 7.49188 34.5316 6.48786 33.9791C5.36065 33.3588 4.12559 32.6794 3.72137 33.4461C2.95753 34.8958 8.99137 36.6025 9.04114 36.6152C10.9907 37.1208 15.9417 38.1922 17.672 35.6561ZM25.6911 35.6561C24.4463 33.8308 24.5346 32.4608 26.2425 30.7539C27.9505 29.0468 28.9445 26.5505 28.9445 26.5505C28.9445 26.5505 29.3156 25.1006 30.1617 25.2338C31.0079 25.3669 31.6287 27.5336 29.8571 28.8599C28.0853 30.1862 30.2094 31.0855 30.8914 29.8409C31.5735 28.5961 33.4341 25.3966 34.3993 24.7845C35.3645 24.1725 36.0438 24.5155 35.816 25.7769C35.7032 26.4031 34.6519 27.4718 33.6699 28.4704C32.6735 29.4834 31.7483 30.4239 31.946 30.7568C32.3386 31.4178 33.7224 29.9792 33.7224 29.9792C33.7224 29.9792 38.0518 26.0393 38.9946 27.0661C39.8634 28.0123 38.5234 28.817 36.4584 30.057C36.2777 30.1655 36.0973 30.2742 35.917 30.383C33.5546 31.8133 33.3708 32.1905 33.706 32.7314C33.83 32.9316 34.6208 32.4566 35.5933 31.8728C37.2517 30.8773 39.438 29.5644 39.7469 30.7396C40.0142 31.7564 38.4054 32.3795 36.9466 32.9446C35.7312 33.4154 34.6196 33.846 34.783 34.4304C34.9522 35.0362 35.8706 34.5308 36.8744 33.9783C38.0016 33.358 39.2369 32.6781 39.6409 33.4455C40.4049 34.896 34.3701 36.6011 34.3213 36.6135C32.3718 37.1208 27.4208 38.1922 25.6911 35.6561Z" fill="#FFD21E"/>
<path fill-rule="evenodd" clip-rule="evenodd" d="M26.6747 15.5748C26.9198 15.6615 27.1021 15.9253 27.2755 16.1765C27.5099 16.5158 27.7281 16.8316 28.0628 16.6537C28.4577 16.4436 28.7814 16.1213 28.993 15.7272C29.2047 15.3332 29.295 14.8853 29.2522 14.4401C29.2203 14.1072 29.1149 13.7855 28.9436 13.4983C28.7723 13.211 28.5394 12.9653 28.2619 12.7789C27.9842 12.5925 27.6685 12.47 27.3379 12.4202C27.0071 12.3705 26.6695 12.3947 26.3493 12.4912C26.0291 12.5876 25.7343 12.7538 25.4861 12.9779C25.2378 13.2019 25.0423 13.4782 24.9137 13.7868C24.7851 14.0955 24.7264 14.4288 24.7419 14.7628C24.7577 15.097 24.8471 15.4232 25.0041 15.7185C25.1592 16.0103 25.5035 15.8726 25.8669 15.7272C26.1516 15.6134 26.4484 15.4947 26.6747 15.5748ZM16.0196 15.5748C15.7744 15.6615 15.5921 15.9255 15.4188 16.1765C15.1844 16.516 14.966 16.8316 14.6315 16.6537C14.1349 16.3907 13.754 15.9521 13.5631 15.4236C13.3723 14.8951 13.3851 14.3144 13.599 13.7947C13.813 13.2751 14.2128 12.8538 14.7205 12.6128C15.2282 12.3719 15.8074 12.3287 16.3452 12.4916C16.7735 12.6206 17.1539 12.8736 17.4384 13.2186C17.723 13.5637 17.8986 13.9854 17.9436 14.4304C17.9884 14.8753 17.9003 15.3236 17.6904 15.7185C17.5351 16.0103 17.1908 15.8726 16.8274 15.7274C16.5424 15.6134 16.2461 15.4947 16.0196 15.5748ZM25.0263 25.2709C26.7151 23.9404 27.3355 21.7681 27.3355 20.43C27.3355 19.3723 26.6239 19.7051 25.4846 20.2693L25.4203 20.301C24.3746 20.8189 22.9826 21.5085 21.4545 21.5085C19.9262 21.5085 18.5341 20.8189 17.4886 20.3008C16.3124 19.7182 15.5747 19.3528 15.5747 20.4302C15.5747 21.8106 16.2347 24.0773 18.0461 25.3941C18.2852 24.909 18.6218 24.4784 19.035 24.1292C19.4479 23.7799 19.9286 23.5196 20.4467 23.3645C20.6276 23.3106 20.8138 23.6219 21.0044 23.9406C21.1884 24.248 21.3765 24.5624 21.5677 24.5624C21.7716 24.5624 21.9717 24.2526 22.1673 23.9502C22.3716 23.6339 22.5709 23.3259 22.7636 23.3875C23.7332 23.6988 24.5443 24.3739 25.0263 25.2709Z" fill="#32343D"/>
<path d="M25.0257 25.2709C24.1461 25.9641 22.977 26.4288 21.4545 26.4288C20.0241 26.4288 18.9054 26.0186 18.0459 25.3941C18.285 24.909 18.6216 24.4783 19.0348 24.1292C19.4477 23.7799 19.9285 23.5197 20.4465 23.3645C20.8016 23.2585 21.178 24.5625 21.5675 24.5625C21.9844 24.5625 22.3861 23.267 22.7634 23.3875C23.7328 23.6991 24.5437 24.3741 25.0257 25.2709Z" fill="#FF323D"/>
<path fill-rule="evenodd" clip-rule="evenodd" d="M11.9811 17.4573C11.7802 17.5917 11.5492 17.6744 11.3086 17.6981C11.068 17.7219 10.8253 17.6858 10.6019 17.5931C10.4234 17.5195 10.2612 17.4112 10.1247 17.2746C9.98811 17.1381 9.87987 16.9759 9.80616 16.7973C9.71366 16.574 9.67767 16.3313 9.70146 16.0907C9.72523 15.8502 9.808 15.6191 9.94242 15.4181C10.1039 15.1763 10.3335 14.9879 10.6022 14.8766C10.8709 14.7653 11.1665 14.7362 11.4517 14.7929C11.7369 14.8497 11.9988 14.9898 12.2044 15.1954C12.4099 15.4011 12.5499 15.6633 12.6064 15.9485C12.6631 16.2336 12.634 16.5292 12.5227 16.7978C12.4115 17.0663 12.2228 17.2957 11.9811 17.4573ZM33.014 17.4573C32.8131 17.5917 32.582 17.6744 32.3414 17.6981C32.1007 17.7219 31.858 17.6858 31.6346 17.5931C31.4561 17.5193 31.2939 17.4112 31.1574 17.2746C31.0209 17.1381 30.9127 16.9759 30.8388 16.7973C30.7465 16.574 30.7107 16.3313 30.7343 16.0907C30.7582 15.8502 30.8409 15.6191 30.9751 15.4181C31.0958 15.2373 31.2553 15.0857 31.4417 14.9739C31.6282 14.8621 31.8371 14.7931 32.0534 14.7718C32.2699 14.7505 32.4883 14.7775 32.6928 14.8509C32.8975 14.9242 33.0833 15.042 33.237 15.1958C33.4427 15.4013 33.5827 15.6633 33.6393 15.9485C33.6962 16.2336 33.6669 16.5292 33.5556 16.7978C33.4442 17.0663 33.2559 17.2957 33.014 17.4573Z" fill="#FFAD03"/>
<path d="M50.9669 27.7969V13.2514H53.6018V19.4091H60.3419V13.2514H62.9839V27.7969H60.3419V21.6179H53.6018V27.7969H50.9669ZM72.6892 23.2088V16.8878H75.2602V27.7969H72.7673V25.858H72.6537C72.4075 26.4687 72.0026 26.9683 71.4392 27.3565C70.8805 27.7448 70.1916 27.9389 69.3724 27.9389C68.6575 27.9389 68.0254 27.7803 67.4761 27.4631C66.9316 27.1411 66.5055 26.6747 66.1977 26.0639C65.8899 25.4484 65.7361 24.705 65.7361 23.8338V16.8878H68.3071V23.4361C68.3071 24.1274 68.4965 24.6766 68.8753 25.0838C69.2541 25.491 69.7512 25.6946 70.3667 25.6946C70.7455 25.6946 71.1125 25.6023 71.4676 25.4176C71.8227 25.233 72.1139 24.9583 72.3412 24.5938C72.5732 24.2244 72.6892 23.7628 72.6892 23.2088ZM82.6483 32.1151C81.7251 32.1151 80.932 31.9896 80.2691 31.7386C79.6062 31.4924 79.0735 31.161 78.6711 30.7443C78.2686 30.3277 77.9893 29.866 77.833 29.3594L80.1483 28.7983C80.2525 29.0114 80.404 29.2221 80.6029 29.4304C80.8018 29.6435 81.0693 29.8187 81.4055 29.956C81.7464 30.098 82.1749 30.169 82.691 30.169C83.4201 30.169 84.0238 29.9915 84.502 29.6364C84.9803 29.286 85.2194 28.7083 85.2194 27.9034V25.8366H85.0915C84.959 26.1018 84.7648 26.3741 84.5091 26.6534C84.2582 26.9328 83.9244 27.1671 83.5077 27.3565C83.0958 27.5459 82.5773 27.6406 81.9523 27.6406C81.1143 27.6406 80.3543 27.4441 79.6725 27.0511C78.9954 26.6534 78.4556 26.0616 78.0532 25.2756C77.6555 24.4848 77.4566 23.4953 77.4566 22.3068C77.4566 21.1089 77.6555 20.098 78.0532 19.2741C78.4556 18.4455 78.9978 17.8182 79.6796 17.392C80.3614 16.9612 81.1214 16.7457 81.9594 16.7457C82.5986 16.7457 83.1242 16.8546 83.5361 17.0724C83.9528 17.2855 84.2842 17.5436 84.5305 17.8466C84.7767 18.1449 84.9637 18.4266 85.0915 18.6918H85.2336V16.8878H87.7691V27.9744C87.7691 28.9072 87.5465 29.679 87.1015 30.2898C86.6564 30.9006 86.048 31.3575 85.2762 31.6605C84.5044 31.9635 83.6285 32.1151 82.6483 32.1151ZM82.6697 25.6236C83.2142 25.6236 83.6782 25.491 84.0617 25.2259C84.4452 24.9607 84.7364 24.5795 84.9353 24.0824C85.1341 23.5852 85.2336 22.9886 85.2336 22.2926C85.2336 21.6061 85.1341 21.0047 84.9353 20.4886C84.7412 19.9725 84.4523 19.5724 84.0688 19.2884C83.69 18.9995 83.2236 18.8551 82.6697 18.8551C82.0967 18.8551 81.6185 19.0043 81.235 19.3026C80.8515 19.6009 80.5626 20.0104 80.3685 20.5312C80.1744 21.0473 80.0773 21.6345 80.0773 22.2926C80.0773 22.9602 80.1744 23.545 80.3685 24.0469C80.5674 24.544 80.8586 24.9323 81.2421 25.2116C81.6304 25.4863 82.1062 25.6236 82.6697 25.6236ZM95.1483 32.1151C94.2251 32.1151 93.432 31.9896 92.7691 31.7386C92.1062 31.4924 91.5735 31.161 91.1711 30.7443C90.7686 30.3277 90.4893 29.866 90.333 29.3594L92.6483 28.7983C92.7525 29.0114 92.904 29.2221 93.1029 29.4304C93.3018 29.6435 93.5693 29.8187 93.9055 29.956C94.2464 30.098 94.6749 30.169 95.191 30.169C95.9201 30.169 96.5238 29.9915 97.002 29.6364C97.4803 29.286 97.7194 28.7083 97.7194 27.9034V25.8366H97.5915C97.459 26.1018 97.2648 26.3741 97.0091 26.6534C96.7582 26.9328 96.4244 27.1671 96.0077 27.3565C95.5958 27.5459 95.0773 27.6406 94.4523 27.6406C93.6143 27.6406 92.8543 27.4441 92.1725 27.0511C91.4954 26.6534 90.9556 26.0616 90.5532 25.2756C90.1555 24.4848 89.9566 23.4953 89.9566 22.3068C89.9566 21.1089 90.1555 20.098 90.5532 19.2741C90.9556 18.4455 91.4978 17.8182 92.1796 17.392C92.8614 16.9612 93.6214 16.7457 94.4594 16.7457C95.0986 16.7457 95.6242 16.8546 96.0361 17.0724C96.4528 17.2855 96.7842 17.5436 97.0305 17.8466C97.2767 18.1449 97.4637 18.4266 97.5915 18.6918H97.7336V16.8878H100.269V27.9744C100.269 28.9072 100.047 29.679 99.6015 30.2898C99.1564 30.9006 98.548 31.3575 97.7762 31.6605C97.0044 31.9635 96.1285 32.1151 95.1483 32.1151ZM95.1697 25.6236C95.7142 25.6236 96.1782 25.491 96.5617 25.2259C96.9452 24.9607 97.2364 24.5795 97.4353 24.0824C97.6341 23.5852 97.7336 22.9886 97.7336 22.2926C97.7336 21.6061 97.6341 21.0047 97.4353 20.4886C97.2412 19.9725 96.9523 19.5724 96.5688 19.2884C96.19 18.9995 95.7236 18.8551 95.1697 18.8551C94.5967 18.8551 94.1185 19.0043 93.735 19.3026C93.3515 19.6009 93.0626 20.0104 92.8685 20.5312C92.6744 21.0473 92.5773 21.6345 92.5773 22.2926C92.5773 22.9602 92.6744 23.545 92.8685 24.0469C93.0674 24.544 93.3586 24.9323 93.7421 25.2116C94.1304 25.4863 94.6062 25.6236 95.1697 25.6236ZM102.904 27.7969V16.8878H105.475V27.7969H102.904ZM104.197 15.3395C103.789 15.3395 103.439 15.2045 103.146 14.9347C102.852 14.66 102.705 14.331 102.705 13.9474C102.705 13.5592 102.852 13.2301 103.146 12.9602C103.439 12.6856 103.789 12.5483 104.197 12.5483C104.609 12.5483 104.959 12.6856 105.248 12.9602C105.541 13.2301 105.688 13.5592 105.688 13.9474C105.688 14.331 105.541 14.66 105.248 14.9347C104.959 15.2045 104.609 15.3395 104.197 15.3395ZM110.69 21.4048V27.7969H108.119V16.8878H110.576V18.7415H110.704C110.955 18.1307 111.355 17.6454 111.904 17.2855C112.458 16.9257 113.143 16.7457 113.957 16.7457C114.71 16.7457 115.366 16.9067 115.924 17.2287C116.488 17.5507 116.923 18.017 117.231 18.6278C117.544 19.2386 117.697 19.9796 117.693 20.8509V27.7969H115.122V21.2486C115.122 20.5194 114.932 19.9489 114.554 19.5369C114.179 19.125 113.661 18.919 112.998 18.919C112.548 18.919 112.148 19.0185 111.798 19.2173C111.452 19.4115 111.18 19.6932 110.981 20.0625C110.787 20.4318 110.69 20.8793 110.69 21.4048ZM125.051 32.1151C124.127 32.1151 123.334 31.9896 122.671 31.7386C122.009 31.4924 121.476 31.161 121.073 30.7443C120.671 30.3277 120.392 29.866 120.235 29.3594L122.551 28.7983C122.655 29.0114 122.806 29.2221 123.005 29.4304C123.204 29.6435 123.472 29.8187 123.808 29.956C124.149 30.098 124.577 30.169 125.093 30.169C125.822 30.169 126.426 29.9915 126.904 29.6364C127.383 29.286 127.622 28.7083 127.622 27.9034V25.8366H127.494C127.361 26.1018 127.167 26.3741 126.911 26.6534C126.661 26.9328 126.327 27.1671 125.91 27.3565C125.498 27.5459 124.98 27.6406 124.355 27.6406C123.517 27.6406 122.757 27.4441 122.075 27.0511C121.398 26.6534 120.858 26.0616 120.456 25.2756C120.058 24.4848 119.859 23.4953 119.859 22.3068C119.859 21.1089 120.058 20.098 120.456 19.2741C120.858 18.4455 121.4 17.8182 122.082 17.392C122.764 16.9612 123.524 16.7457 124.362 16.7457C125.001 16.7457 125.527 16.8546 125.938 17.0724C126.355 17.2855 126.687 17.5436 126.933 17.8466C127.179 18.1449 127.366 18.4266 127.494 18.6918H127.636V16.8878H130.171V27.9744C130.171 28.9072 129.949 29.679 129.504 30.2898C129.059 30.9006 128.45 31.3575 127.679 31.6605C126.907 31.9635 126.031 32.1151 125.051 32.1151ZM125.072 25.6236C125.617 25.6236 126.081 25.491 126.464 25.2259C126.848 24.9607 127.139 24.5795 127.338 24.0824C127.536 23.5852 127.636 22.9886 127.636 22.2926C127.636 21.6061 127.536 21.0047 127.338 20.4886C127.143 19.9725 126.855 19.5724 126.471 19.2884C126.092 18.9995 125.626 18.8551 125.072 18.8551C124.499 18.8551 124.021 19.0043 123.637 19.3026C123.254 19.6009 122.965 20.0104 122.771 20.5312C122.577 21.0473 122.48 21.6345 122.48 22.2926C122.48 22.9602 122.577 23.545 122.771 24.0469C122.97 24.544 123.261 24.9323 123.644 25.2116C124.033 25.4863 124.509 25.6236 125.072 25.6236ZM137.881 27.7969V13.2514H147.199V15.4602H140.516V19.4091H146.56V21.6179H140.516V27.7969H137.881ZM152.528 28.017C151.836 28.017 151.214 27.8939 150.66 27.6477C150.11 27.3968 149.675 27.0275 149.353 26.5398C149.036 26.0521 148.877 25.4508 148.877 24.7358C148.877 24.1203 148.991 23.6113 149.218 23.2088C149.445 22.8063 149.755 22.4844 150.148 22.2429C150.541 22.0014 150.984 21.8191 151.476 21.696C151.974 21.5682 152.487 21.4759 153.018 21.419C153.657 21.3527 154.175 21.2936 154.573 21.2415C154.971 21.1847 155.26 21.0994 155.44 20.9858C155.624 20.8674 155.717 20.6851 155.717 20.4389V20.3963C155.717 19.8613 155.558 19.447 155.241 19.1534C154.923 18.8598 154.467 18.7131 153.87 18.7131C153.24 18.7131 152.741 18.8504 152.371 19.125C152.007 19.3996 151.761 19.724 151.633 20.098L149.232 19.7571C149.422 19.0942 149.734 18.5402 150.17 18.0952C150.605 17.6454 151.138 17.3092 151.768 17.0866C152.397 16.8594 153.093 16.7457 153.856 16.7457C154.381 16.7457 154.905 16.8073 155.425 16.9304C155.946 17.0535 156.422 17.2571 156.853 17.5412C157.284 17.8205 157.629 18.2017 157.89 18.6847C158.155 19.1676 158.288 19.7713 158.288 20.4957V27.7969H155.816V26.2983H155.731C155.574 26.6013 155.354 26.8854 155.07 27.1506C154.791 27.411 154.438 27.6217 154.012 27.7827C153.591 27.9389 153.096 28.017 152.528 28.017ZM153.195 26.1278C153.711 26.1278 154.159 26.026 154.538 25.8224C154.916 25.6141 155.208 25.3395 155.411 24.9986C155.619 24.6577 155.724 24.286 155.724 23.8835V22.598C155.643 22.6643 155.506 22.7259 155.312 22.7827C155.122 22.8395 154.909 22.8892 154.672 22.9318C154.436 22.9744 154.201 23.0123 153.969 23.0455C153.737 23.0786 153.536 23.107 153.366 23.1307C152.982 23.1828 152.639 23.268 152.336 23.3864C152.033 23.5047 151.794 23.6705 151.619 23.8835C151.443 24.0919 151.356 24.3617 151.356 24.6932C151.356 25.1667 151.529 25.5241 151.874 25.7656C152.22 26.0071 152.66 26.1278 153.195 26.1278ZM165.631 28.0099C164.542 28.0099 163.607 27.7708 162.826 27.2926C162.049 26.8144 161.45 26.1539 161.029 25.3111C160.612 24.4635 160.404 23.4882 160.404 22.3849C160.404 21.277 160.617 20.2992 161.043 19.4517C161.469 18.5994 162.071 17.9366 162.847 17.4631C163.628 16.9848 164.552 16.7457 165.617 16.7457C166.503 16.7457 167.286 16.9091 167.968 17.2358C168.655 17.5578 169.201 18.0147 169.609 18.6065C170.016 19.1937 170.248 19.8802 170.305 20.6662H167.847C167.748 20.1406 167.511 19.7027 167.137 19.3523C166.768 18.9972 166.273 18.8196 165.653 18.8196C165.127 18.8196 164.665 18.9616 164.268 19.2457C163.87 19.5251 163.56 19.9276 163.337 20.4531C163.119 20.9787 163.011 21.6084 163.011 22.3423C163.011 23.0857 163.119 23.7249 163.337 24.2599C163.555 24.7902 163.86 25.1998 164.253 25.4886C164.651 25.7727 165.118 25.9148 165.653 25.9148C166.031 25.9148 166.37 25.8437 166.668 25.7017C166.971 25.5549 167.225 25.3442 167.428 25.0696C167.632 24.795 167.771 24.4612 167.847 24.0682H170.305C170.243 24.84 170.016 25.5241 169.623 26.1207C169.23 26.7126 168.695 27.1766 168.018 27.5128C167.341 27.8442 166.545 28.0099 165.631 28.0099ZM177.245 28.0099C176.152 28.0099 175.207 27.7827 174.411 27.3281C173.621 26.8688 173.012 26.2202 172.586 25.3821C172.16 24.5393 171.947 23.5473 171.947 22.4062C171.947 21.2841 172.16 20.2992 172.586 19.4517C173.017 18.5994 173.618 17.9366 174.39 17.4631C175.162 16.9848 176.069 16.7457 177.11 16.7457C177.783 16.7457 178.417 16.8546 179.014 17.0724C179.615 17.2855 180.145 17.617 180.605 18.0668C181.069 18.5166 181.433 19.0895 181.698 19.7855C181.964 20.4768 182.096 21.3007 182.096 22.2571V23.0455H173.154V21.3125H179.632C179.627 20.8201 179.52 20.3821 179.312 19.9986C179.104 19.6103 178.813 19.3049 178.438 19.0824C178.069 18.8598 177.638 18.7486 177.146 18.7486C176.62 18.7486 176.159 18.8764 175.761 19.1321C175.363 19.383 175.053 19.7145 174.831 20.1264C174.613 20.5336 174.501 20.9811 174.497 21.4688V22.9815C174.497 23.616 174.613 24.1605 174.845 24.6151C175.077 25.0649 175.401 25.4105 175.818 25.652C176.234 25.8887 176.722 26.0071 177.281 26.0071C177.655 26.0071 177.993 25.955 178.296 25.8509C178.599 25.742 178.862 25.5833 179.085 25.375C179.307 25.1667 179.475 24.9086 179.589 24.6009L181.99 24.8707C181.838 25.5052 181.549 26.0592 181.123 26.5327C180.702 27.0014 180.162 27.366 179.504 27.6264C178.846 27.8821 178.093 28.0099 177.245 28.0099ZM191.214 27.7969H188.401L193.522 13.2514H196.775L201.903 27.7969H199.09L195.205 16.2344H195.092L191.214 27.7969ZM191.306 22.0938H198.976V24.2102H191.306V22.0938ZM203.818 27.7969V13.2514H209.273C210.39 13.2514 211.328 13.4598 212.085 13.8764C212.848 14.2931 213.423 14.866 213.811 15.5952C214.204 16.3196 214.401 17.1435 214.401 18.0668C214.401 18.9995 214.204 19.8281 213.811 20.5526C213.418 21.277 212.838 21.8475 212.071 22.2642C211.304 22.6761 210.36 22.8821 209.237 22.8821H205.622V20.7159H208.882C209.536 20.7159 210.071 20.6023 210.487 20.375C210.904 20.1477 211.212 19.8352 211.411 19.4375C211.614 19.0398 211.716 18.5829 211.716 18.0668C211.716 17.5507 211.614 17.0961 211.411 16.7031C211.212 16.3101 210.902 16.0047 210.48 15.7869C210.064 15.5644 209.526 15.4531 208.868 15.4531H206.453V27.7969H203.818ZM219.324 13.2514V27.7969H216.69V13.2514H219.324Z" fill="white"/>
</svg>
