<svg width="80" height="81" viewBox="0 0 80 81" fill="none" xmlns="http://www.w3.org/2000/svg">
<path d="M33.5803 12.8403C18.7023 12.8403 6.64209 24.9006 6.64209 39.7786C6.64209 54.6566 18.7023 66.7168 33.5803 66.7168C48.4583 66.7168 60.5186 54.6566 60.5186 39.7786C60.5186 24.9006 48.4583 12.8403 33.5803 12.8403ZM44.3017 37.0847C44.0216 30.0471 42.6545 23.8231 40.6301 19.4362C48.2388 22.0815 53.912 28.8618 54.9437 37.0847H44.3017ZM33.5803 61.1945C31.9465 59.9082 28.7207 53.4686 28.2546 42.4724H38.906C38.44 53.4686 35.2141 59.9082 33.5803 61.1945ZM28.2546 37.0847C28.7207 26.0886 31.9465 19.649 33.5803 18.3627C35.2141 19.649 38.44 26.0886 38.906 37.0847H28.2546ZM26.5306 19.4362C24.5075 23.8231 23.1391 30.0471 22.8589 37.0847H12.217C13.2487 28.8632 18.9219 22.0815 26.5306 19.4362ZM22.8589 42.4724C23.1391 49.51 24.5062 55.7341 26.5306 60.121C18.9219 57.4756 13.2487 50.6939 12.217 42.4724H22.8589ZM40.6301 60.121C42.6531 55.7341 44.0216 49.51 44.3017 42.4724H54.945C53.912 50.6939 48.2388 57.4756 40.6301 60.121Z" fill="white"/>
</svg>
