<svg width="80" height="81" viewBox="0 0 80 81" fill="none" xmlns="http://www.w3.org/2000/svg">
<path d="M28.1751 31.5606H21.0801C18.4786 31.5606 16.3501 29.4321 16.3501 26.8306V22.1006C16.3501 19.4991 18.4786 17.3706 21.0801 17.3706H28.1751C30.7766 17.3706 32.9051 19.4991 32.9051 22.1006V26.8306C32.9051 29.4321 30.7766 31.5606 28.1751 31.5606Z" fill="white"/>
<path d="M60.8125 29.1978H52.2985C50.7376 29.1978 49.4604 27.9207 49.4604 26.3598V22.5758C49.4604 21.0149 50.7376 19.7378 52.2985 19.7378H60.8125C62.3734 19.7378 63.6505 21.0149 63.6505 22.5758V26.3598C63.6505 27.9207 62.3734 29.1978 60.8125 29.1978Z" fill="white"/>
<path d="M60.8125 46.9341H52.2985C50.7376 46.9341 49.4604 45.657 49.4604 44.0961V40.3121C49.4604 38.7512 50.7376 37.4741 52.2985 37.4741H60.8125C62.3734 37.4741 63.6505 38.7512 63.6505 40.3121V44.0961C63.6505 45.657 62.3734 46.9341 60.8125 46.9341Z" fill="white"/>
<path d="M46.3279 43.9759C47.2976 43.9759 48.1017 43.1718 48.1017 42.2022C48.1017 41.2325 47.2976 40.4284 46.3279 40.4284H42.9562V26.2384H46.3279C47.2976 26.2384 48.1017 25.4343 48.1017 24.4647C48.1017 23.495 47.2976 22.6909 46.3279 22.6909H36.0369C35.0673 22.6909 34.2632 23.495 34.2632 24.4647C34.2632 25.4343 35.0673 26.2384 36.0369 26.2384H39.4087V55.2097C39.4087 58.8045 42.3176 61.7135 45.9124 61.7135H46.3279C47.2976 61.7135 48.1017 60.9094 48.1017 59.9397C48.1017 58.9701 47.2976 58.166 46.3279 58.166H45.9124C44.2806 58.166 42.9562 56.8416 42.9562 55.2097V43.9759H46.3279Z" fill="white"/>
<path d="M60.8125 64.6724H52.2985C50.7376 64.6724 49.4604 63.3953 49.4604 61.8344V58.0504C49.4604 56.4895 50.7376 55.2124 52.2985 55.2124H60.8125C62.3734 55.2124 63.6505 56.4895 63.6505 58.0504V61.8344C63.6505 63.3953 62.3734 64.6724 60.8125 64.6724Z" fill="white"/>
</svg>
