<svg width="80" height="81" viewBox="0 0 80 81" fill="none" xmlns="http://www.w3.org/2000/svg">
<path d="M43.8997 61.3069L42.6018 63.4998C41.445 65.4541 38.5552 65.4541 37.3983 63.4998L36.1005 61.3069C35.0938 59.6062 34.5905 58.7558 33.7819 58.2854C32.9734 57.8153 31.9554 57.7977 29.9196 57.7626C26.914 57.7108 25.0289 57.5267 23.448 56.8718C20.5148 55.6568 18.1843 53.3264 16.9693 50.3932C16.0581 48.1932 16.0581 45.4044 16.0581 39.8265V37.4323C16.0581 29.595 16.0581 25.6764 17.8222 22.7977C18.8092 21.187 20.1635 19.8327 21.7743 18.8456C24.653 17.0815 28.5716 17.0815 36.4089 17.0815H43.5915C51.4288 17.0815 55.3475 17.0815 58.226 18.8456C59.8368 19.8327 61.1911 21.187 62.1782 22.7977C63.9423 25.6764 63.9423 29.595 63.9423 37.4323V39.8265C63.9423 45.4044 63.9423 48.1932 63.0309 50.3932C61.816 53.3264 59.4855 55.6568 56.5524 56.8718C54.9714 57.5267 53.0863 57.7108 50.0807 57.7626C48.0447 57.7977 47.027 57.8153 46.2184 58.2854C45.4098 58.7558 44.9066 59.6062 43.8997 61.3069Z" fill="white"/>
<path fill-rule="evenodd" clip-rule="evenodd" d="M47.1109 29.7676C47.8122 29.0664 48.9492 29.0664 49.6505 29.7676L50.0612 30.1784C50.0906 30.2079 50.12 30.2372 50.1492 30.2664C51.6704 31.7875 52.9389 33.0559 53.8104 34.1982C54.7304 35.4039 55.3755 36.6777 55.3755 38.22C55.3755 39.7621 54.7304 41.036 53.8104 42.2418C52.9389 43.3841 51.6704 44.6526 50.1492 46.1736L49.6505 46.6724C48.9492 47.3735 47.8122 47.3735 47.1109 46.6724C46.4096 45.9711 46.4096 44.8341 47.1109 44.1328L47.5219 43.7221C49.1538 42.0901 50.2473 40.9912 50.9552 40.0633C51.6314 39.177 51.7842 38.6612 51.7842 38.22C51.7842 37.7788 51.6314 37.2628 50.9552 36.3766C50.2473 35.4489 49.1538 34.3499 47.5219 32.7179L47.1109 32.3071C46.4096 31.6058 46.4096 30.4689 47.1109 29.7676Z" fill="#0D0E15"/>
<path fill-rule="evenodd" clip-rule="evenodd" d="M43.5629 24.9244C44.5208 25.1811 45.0893 26.1657 44.8327 27.1237L38.6361 50.25C38.3795 51.2079 37.3948 51.7762 36.4369 51.5196C35.4789 51.263 34.9104 50.2783 35.1671 49.3204L41.3637 26.1941C41.6203 25.2362 42.605 24.6677 43.5629 24.9244Z" fill="#0D0E15"/>
<path fill-rule="evenodd" clip-rule="evenodd" d="M32.8896 29.7676C32.1883 29.0664 31.0514 29.0664 30.3501 29.7676L29.9394 30.1784C29.9099 30.2079 29.8806 30.2372 29.8513 30.2664C28.3302 31.7875 27.0617 33.0559 26.1902 34.1982C25.2702 35.4039 24.625 36.6777 24.625 38.22C24.625 39.7621 25.2702 41.036 26.1902 42.2418C27.0617 43.3841 28.3302 44.6526 29.8513 46.1736L30.3501 46.6724C31.0514 47.3735 32.1883 47.3735 32.8896 46.6724C33.5908 45.9711 33.5908 44.8341 32.8896 44.1328L32.4788 43.7221C30.8468 42.0901 29.7532 40.9912 29.0453 40.0633C28.3691 39.177 28.2163 38.6612 28.2163 38.22C28.2163 37.7788 28.3691 37.2628 29.0453 36.3766C29.7532 35.4489 30.8468 34.3499 32.4788 32.7179L32.8896 32.3071C33.5908 31.6058 33.5908 30.4689 32.8896 29.7676Z" fill="#0D0E15"/>
</svg>
