<svg width="80" height="81" viewBox="0 0 80 81" fill="none" xmlns="http://www.w3.org/2000/svg">
<path d="M38.0709 59.2675C38.0116 59.5061 37.9058 59.7306 37.7595 59.9282C37.6133 60.1259 37.4295 60.2927 37.2187 60.4192C37.0078 60.5457 36.7741 60.6293 36.5309 60.6654C36.2877 60.7014 36.0398 60.689 35.8014 60.6291L28.7504 58.8665C28.1783 58.7226 27.648 58.4464 27.2023 58.06L21.9267 53.4741C21.552 53.1485 21.3221 52.6874 21.2874 52.1922C21.2528 51.6971 21.4162 51.2084 21.7418 50.8338C22.0675 50.4592 22.5286 50.2292 23.0237 50.1945C23.5189 50.1599 24.0075 50.3233 24.3822 50.649L29.6583 55.2351L36.7093 56.9979C36.9477 57.0575 37.1721 57.1635 37.3696 57.3098C37.567 57.4561 37.7338 57.6399 37.8602 57.8506C37.9867 58.0614 38.0703 58.295 38.1065 58.5381C38.1426 58.7812 38.1305 59.029 38.0709 59.2675ZM69.0923 36.9851C68.9407 37.4587 68.6955 37.8971 68.3714 38.2742C68.0472 38.6513 67.6507 38.9595 67.2052 39.1805L61.7618 41.9023L58.2651 45.9929C58.2528 46.0072 58.2395 46.0203 58.2269 46.0342C58.2154 46.0469 58.204 46.0595 58.1922 46.0717C58.1833 46.0811 58.1751 46.091 58.1659 46.1002L49.5575 54.709C48.8517 55.4103 47.8971 55.8039 46.9021 55.8037C46.5989 55.8038 46.2968 55.7667 46.0026 55.6932L32.4439 52.3035C31.935 52.177 31.4586 51.9444 31.0459 51.6208L18.4063 41.7372L12.7916 38.9298C12.3471 38.7075 11.9512 38.3988 11.6272 38.0219C11.3032 37.6449 11.0575 37.2072 10.9045 36.7343C10.7515 36.2613 10.6941 35.7627 10.7359 35.2674C10.7776 34.7721 10.9176 34.29 11.1476 33.8494L16.901 22.8313C17.3588 21.9648 18.1366 21.3113 19.0689 21.0096C20.0012 20.7079 21.0145 20.7819 21.8931 21.2159L27.1276 23.8332L38.5141 20.5136C39.3718 20.2639 40.2906 20.3289 41.1046 20.6968L48.8241 24.1897H52.6577L58.104 21.4667C58.9825 21.0323 59.9959 20.9581 60.9283 21.2599C61.8607 21.5616 62.6384 22.2155 63.0959 23.0821L68.8492 34.1C69.0808 34.5402 69.2217 35.0223 69.2634 35.5179C69.3052 36.0135 69.247 36.5125 69.0923 36.9851ZM53.9703 45.0022L46.566 39.6172L44.6773 41.0337C43.0544 42.2412 41.0855 42.8933 39.0626 42.8933C37.0398 42.8933 35.0709 42.2412 33.448 41.0337L32.1798 40.0826C31.7508 39.7608 31.3959 39.3506 31.1393 38.8798C30.8826 38.409 30.7301 37.8884 30.692 37.3535C30.654 36.8186 30.7314 36.2818 30.9189 35.7794C31.1064 35.2769 31.3997 34.8207 31.7788 34.4414L40.9342 25.2861C41.068 25.1543 41.2113 25.0327 41.3631 24.9222L39.5618 24.1071L28.1632 27.4301L21.7915 39.6325L33.3518 48.6723L46.9105 52.062L53.9703 45.0022ZM58.3411 40.1432L51.9651 27.9328H48.4257L48.4193 27.9333C48.4163 27.9333 48.4135 27.9328 48.4106 27.9328H43.5809L34.4258 37.0882L35.6938 38.0393C36.6675 38.7637 37.8489 39.155 39.0626 39.155C40.2764 39.155 41.4578 38.7637 42.4315 38.0393L45.426 35.7934C45.7461 35.5532 46.1349 35.422 46.5351 35.419C46.9353 35.4161 47.326 35.5416 47.6496 35.777L56.5439 42.2457L58.3411 40.1432Z" fill="white"/>
</svg>
