<svg width="80" height="81" viewBox="0 0 80 81" fill="none" xmlns="http://www.w3.org/2000/svg">
<path fill-rule="evenodd" clip-rule="evenodd" d="M39.9997 12.5571C41.5443 12.5571 42.7963 13.8092 42.7963 15.3537V18.1503C42.7963 19.6949 41.5443 20.947 39.9997 20.947C38.4552 20.947 37.2031 19.6949 37.2031 18.1503V15.3537C37.2031 13.8092 38.4552 12.5571 39.9997 12.5571Z" fill="white"/>
<path fill-rule="evenodd" clip-rule="evenodd" d="M61.5535 18.97C62.6456 20.0621 62.6456 21.8328 61.5535 22.925L58.7569 25.7216C57.6649 26.8137 55.894 26.8137 54.802 25.7216C53.7099 24.6294 53.7099 22.8587 54.802 21.7666L57.5986 18.97C58.6907 17.8778 60.4615 17.8778 61.5535 18.97Z" fill="white"/>
<path fill-rule="evenodd" clip-rule="evenodd" d="M59.5762 40.5217C59.5762 38.9771 60.8282 37.7251 62.3728 37.7251H65.1694C66.714 37.7251 67.966 38.9771 67.966 40.5217C67.966 42.0663 66.714 43.3183 65.1694 43.3183H62.3728C60.8282 43.3183 59.5762 42.0663 59.5762 40.5217Z" fill="white"/>
<path fill-rule="evenodd" clip-rule="evenodd" d="M12.0337 40.5217C12.0337 38.9771 13.2858 37.7251 14.8303 37.7251H17.6269C19.1714 37.7251 20.4235 38.9771 20.4235 40.5217C20.4235 42.0663 19.1714 43.3183 17.6269 43.3183H14.8303C13.2858 43.3183 12.0337 42.0663 12.0337 40.5217Z" fill="white"/>
<path fill-rule="evenodd" clip-rule="evenodd" d="M18.4461 18.97C19.5382 17.8778 21.3089 17.8778 22.4011 18.97L25.1977 21.7666C26.2898 22.8587 26.2898 24.6294 25.1977 25.7216C24.1055 26.8137 22.3348 26.8137 21.2427 25.7216L18.4461 22.925C17.3539 21.8328 17.3539 20.0621 18.4461 18.97Z" fill="white"/>
<path fill-rule="evenodd" clip-rule="evenodd" d="M39.9999 23.7466C30.7327 23.7466 23.2202 31.2591 23.2202 40.5262C23.2202 45.0937 25.0488 49.2396 28.0076 52.2625C28.7567 53.0279 29.1605 53.731 29.2851 54.3538L30.7648 61.7486C31.5494 65.67 34.9925 68.4923 38.9917 68.4923H41.0081C45.0072 68.4923 48.4504 65.67 49.2348 61.7486L50.7145 54.3538C50.8393 53.731 51.2431 53.0279 51.992 52.2625C54.9508 49.2396 56.7795 45.0937 56.7795 40.5262C56.7795 31.2591 49.267 23.7466 39.9999 23.7466ZM37.2033 51.7127C35.6587 51.7127 34.4067 52.9647 34.4067 54.5093C34.4067 56.0539 35.6587 57.3059 37.2033 57.3059H42.7965C44.3411 57.3059 45.5931 56.0539 45.5931 54.5093C45.5931 52.9647 44.3411 51.7127 42.7965 51.7127H37.2033Z" fill="white"/>
</svg>
