<svg width="50" height="51" viewBox="0 0 50 51" fill="none" xmlns="http://www.w3.org/2000/svg">
<path fill-rule="evenodd" clip-rule="evenodd" d="M25 7.84277C25.9738 7.84277 26.7631 8.63218 26.7631 9.60594V11.3691C26.7631 12.3429 25.9738 13.1323 25 13.1323C24.0262 13.1323 23.2368 12.3429 23.2368 11.3691V9.60594C23.2368 8.63218 24.0262 7.84277 25 7.84277Z" fill="white"/>
<path fill-rule="evenodd" clip-rule="evenodd" d="M38.5889 11.8865C39.2774 12.5751 39.2774 13.6915 38.5889 14.38L36.8257 16.1432C36.1372 16.8318 35.0208 16.8318 34.3322 16.1432C33.6437 15.4546 33.6437 14.3383 34.3322 13.6497L36.0954 11.8865C36.7839 11.198 37.9004 11.198 38.5889 11.8865Z" fill="white"/>
<path fill-rule="evenodd" clip-rule="evenodd" d="M37.3422 25.4751C37.3422 24.5013 38.1316 23.7119 39.1054 23.7119H40.8686C41.8424 23.7119 42.6317 24.5013 42.6317 25.4751C42.6317 26.4489 41.8424 27.2383 40.8686 27.2383H39.1054C38.1316 27.2383 37.3422 26.4489 37.3422 25.4751Z" fill="white"/>
<path fill-rule="evenodd" clip-rule="evenodd" d="M7.36823 25.4751C7.36823 24.5013 8.15763 23.7119 9.13139 23.7119H10.8946C11.8683 23.7119 12.6577 24.5013 12.6577 25.4751C12.6577 26.4489 11.8683 27.2383 10.8946 27.2383H9.13139C8.15763 27.2383 7.36823 26.4489 7.36823 25.4751Z" fill="white"/>
<path fill-rule="evenodd" clip-rule="evenodd" d="M11.411 11.8865C12.0996 11.198 13.2159 11.198 13.9045 11.8865L15.6677 13.6497C16.3562 14.3383 16.3562 15.4546 15.6677 16.1432C14.9791 16.8318 13.8627 16.8318 13.1742 16.1432L11.411 14.38C10.7225 13.6915 10.7225 12.5751 11.411 11.8865Z" fill="white"/>
<path fill-rule="evenodd" clip-rule="evenodd" d="M24.9999 14.8975C19.1573 14.8975 14.4209 19.6338 14.4209 25.4765C14.4209 28.3561 15.5738 30.97 17.4392 32.8758C17.9115 33.3584 18.166 33.8016 18.2446 34.1943L19.1775 38.8565C19.6722 41.3288 21.843 43.1082 24.3643 43.1082H25.6355C28.1569 43.1082 30.3277 41.3288 30.8222 38.8565L31.7551 34.1943C31.8338 33.8016 32.0884 33.3584 32.5605 32.8758C34.426 30.97 35.5789 28.3561 35.5789 25.4765C35.5789 19.6338 30.8425 14.8975 24.9999 14.8975ZM23.2367 32.5291C22.2629 32.5291 21.4736 33.3185 21.4736 34.2923C21.4736 35.2661 22.2629 36.0555 23.2367 36.0555H26.7631C27.7369 36.0555 28.5262 35.2661 28.5262 34.2923C28.5262 33.3185 27.7369 32.5291 26.7631 32.5291H23.2367Z" fill="white"/>
</svg>
