<svg width="74" height="74" viewBox="0 0 74 74" fill="none" xmlns="http://www.w3.org/2000/svg">
<g clip-path="url(#clip0_3967_1736)">
<g clip-path="url(#clip1_3967_1736)">
<path fill-rule="evenodd" clip-rule="evenodd" d="M30.1004 4.625C25.0196 4.625 20.901 8.61298 20.901 13.5324V19.6991H36.8231V21.412H13.8244C8.74372 21.412 4.625 25.4 4.625 30.3194V43.6806C4.625 48.6 8.74372 52.5879 13.8244 52.5879H19.1318V45.051C19.1318 40.1316 23.2506 36.1435 28.3314 36.1435H45.3148C49.614 36.1435 53.0989 32.7691 53.0989 28.6066V13.5324C53.0989 8.61298 48.9804 4.625 43.8996 4.625H30.1004ZM27.9775 15.588C29.7362 15.588 31.1619 14.2075 31.1619 12.5046C31.1619 10.8018 29.7362 9.42129 27.9775 9.42129C26.2187 9.42129 24.793 10.8018 24.793 12.5046C24.793 14.2075 26.2187 15.588 27.9775 15.588Z" fill="url(#paint0_linear_3967_1736)"/>
<path fill-rule="evenodd" clip-rule="evenodd" d="M43.9009 69.375C48.9817 69.375 53.1005 65.3871 53.1005 60.4677V54.301H37.1782V52.5881H60.1769C65.2577 52.5881 69.3763 48.6 69.3763 43.6806V30.3194C69.3763 25.4001 65.2577 21.4121 60.1769 21.4121H54.8695V28.9491C54.8695 33.8687 50.7507 37.8566 45.6702 37.8566H28.6865C24.3873 37.8566 20.9023 41.231 20.9023 45.3935V60.4677C20.9023 65.3871 25.0212 69.375 30.1017 69.375H43.9009ZM46.024 58.4122C44.2651 58.4122 42.8394 59.7925 42.8394 61.4954C42.8394 63.1983 44.2651 64.5787 46.024 64.5787C47.7826 64.5787 49.2083 63.1983 49.2083 61.4954C49.2083 59.7925 47.7826 58.4122 46.024 58.4122Z" fill="url(#paint1_linear_3967_1736)"/>
</g>
</g>
<defs>
<linearGradient id="paint0_linear_3967_1736" x1="28.8621" y1="4.625" x2="28.8621" y2="52.5879" gradientUnits="userSpaceOnUse">
<stop stop-color="#327EBD"/>
<stop offset="1" stop-color="#1565A7"/>
</linearGradient>
<linearGradient id="paint1_linear_3967_1736" x1="45.1394" y1="21.4121" x2="45.1394" y2="69.375" gradientUnits="userSpaceOnUse">
<stop stop-color="#FFDA4B"/>
<stop offset="1" stop-color="#F9C600"/>
</linearGradient>
<clipPath id="clip0_3967_1736">
<rect width="74" height="74" fill="white"/>
</clipPath>
<clipPath id="clip1_3967_1736">
<rect width="74" height="74" fill="white"/>
</clipPath>
</defs>
</svg>
