<svg width="74" height="74" viewBox="0 0 74 74" fill="none" xmlns="http://www.w3.org/2000/svg">
<g clip-path="url(#clip0_3967_1019)">
<g clip-path="url(#clip1_3967_1019)">
<path d="M69.1998 30.2816C70.0272 27.7899 70.3134 25.1503 70.0392 22.5392C69.765 19.9281 68.9367 17.4055 67.6097 15.14C65.6425 11.7157 62.6386 9.00466 59.0312 7.39764C55.4238 5.79061 51.3993 5.37067 47.5379 6.19835C45.3441 3.75808 42.5468 1.93802 39.427 0.920953C36.3072 -0.0961127 32.9747 -0.27437 29.7642 0.404083C26.5537 1.08254 23.5783 2.59381 21.1367 4.78613C18.6951 6.97845 16.8734 9.77462 15.8544 12.8938C13.2819 13.4213 10.8516 14.4919 8.72594 16.0339C6.60028 17.5758 4.82823 19.5538 3.5282 21.8355C1.53956 25.254 0.689627 29.2165 1.10128 33.1499C1.51294 37.0833 3.16485 40.7839 5.81819 43.7167C4.98774 46.2072 4.69871 48.8463 4.97043 51.4575C5.24215 54.0687 6.06835 56.5918 7.39378 58.858C9.36353 62.2835 12.37 64.9952 15.98 66.6022C19.5899 68.2093 23.6169 68.6287 27.4805 67.8C29.2234 69.7627 31.3649 71.3309 33.7622 72.4001C36.1594 73.4693 38.7572 74.0147 41.382 73.9999C45.3399 74.0036 49.1965 72.7494 52.3952 70.4186C55.594 68.0877 57.9693 64.8007 59.1784 61.032C61.7506 60.5036 64.1805 59.4327 66.3061 57.8907C68.4316 56.3488 70.2039 54.3712 71.5046 52.0901C73.4697 48.6765 74.305 44.729 73.8911 40.812C73.4771 36.895 71.8351 33.209 69.1998 30.2816ZM41.382 69.1566C38.1405 69.1618 35.0007 68.0256 32.5131 65.9475L32.9506 65.6996L47.6837 57.1951C48.0504 56.9801 48.3548 56.6733 48.5671 56.305C48.7794 55.9367 48.8922 55.5196 48.8945 55.0945V34.3224L55.1229 37.9255C55.1536 37.9411 55.1803 37.9638 55.2007 37.9917C55.221 38.0195 55.2345 38.0518 55.24 38.0859V55.2989C55.2322 58.9718 53.7696 62.4921 51.1724 65.0893C48.5752 67.6864 45.0549 69.1489 41.382 69.1566ZM11.5948 56.4366C9.9692 53.6296 9.38552 50.3393 9.94647 47.1444L10.3843 47.4071L25.1319 55.9115C25.4968 56.1257 25.9122 56.2386 26.3353 56.2386C26.7584 56.2386 27.1738 56.1257 27.5387 55.9115L45.554 45.5253V52.7169C45.5523 52.7542 45.5423 52.7906 45.5245 52.8234C45.5068 52.8563 45.4819 52.8847 45.4517 52.9065L30.529 61.513C27.3443 63.3477 23.5617 63.8435 20.0117 62.8917C16.4618 61.94 13.4346 59.6184 11.5948 56.4366ZM7.71475 24.3447C9.35164 21.5196 11.9353 19.3649 15.0084 18.2619V35.7666C15.0028 36.1895 15.1109 36.6061 15.3213 36.973C15.5316 37.3399 15.8366 37.6436 16.2044 37.8525L34.1321 48.1949L27.9035 51.7978C27.8698 51.8157 27.8322 51.825 27.794 51.825C27.7559 51.825 27.7183 51.8157 27.6846 51.7978L12.7912 43.2061C9.61243 41.3635 7.29341 38.3364 6.34195 34.7876C5.39048 31.2388 5.88412 27.4575 7.71475 24.2719V24.3447ZM58.8867 36.2334L40.9007 25.7889L47.1148 22.1999C47.1485 22.182 47.1861 22.1727 47.2243 22.1727C47.2624 22.1727 47.3 22.182 47.3337 22.1999L62.2272 30.8064C64.5044 32.1204 66.3608 34.0551 67.5797 36.3845C68.7986 38.714 69.3297 41.3421 69.111 43.9621C68.8923 46.5821 67.9328 49.0858 66.3446 51.1809C64.7563 53.2761 62.6048 54.8761 60.1413 55.7944V38.2897C60.1284 37.8675 60.0059 37.4559 59.7859 37.0954C59.5659 36.7348 59.2562 36.438 58.8867 36.2334ZM65.0863 26.9122L64.6485 26.6495L49.9302 18.0723C49.5631 17.8568 49.1451 17.7432 48.7194 17.7432C48.2937 17.7432 47.8757 17.8568 47.5086 18.0723L29.5084 28.4582V21.2669C29.5045 21.2303 29.5106 21.1934 29.5261 21.16C29.5415 21.1267 29.5656 21.0981 29.5959 21.0773L44.4894 12.4853C46.772 11.1703 49.3818 10.5324 52.0137 10.6462C54.6455 10.7601 57.1906 11.6209 59.3511 13.1281C61.5117 14.6353 63.1985 16.7264 64.2142 19.1571C65.2298 21.5877 65.5325 24.2573 65.0866 26.8536L65.0863 26.9122ZM26.109 39.6608L19.8807 36.0725C19.8495 36.0537 19.8229 36.0283 19.8026 35.9981C19.7824 35.9679 19.769 35.9336 19.7635 35.8976V18.7287C19.7669 16.0948 20.5201 13.5164 21.9349 11.2948C23.3498 9.0732 25.3678 7.30029 27.7532 6.18336C30.1385 5.06643 32.7925 4.65163 35.4048 4.98746C38.0172 5.32329 40.48 6.39587 42.5052 8.0798L42.0674 8.32801L27.3346 16.8318C26.9679 17.0469 26.6635 17.3536 26.4512 17.7219C26.2389 18.0902 26.1261 18.5074 26.1238 18.9325L26.109 39.6608ZM29.4933 32.3675L37.5161 27.7431L45.554 32.3675V41.6157L37.5454 46.2397L29.5081 41.6157L29.4933 32.3675Z" fill="white"/>
</g>
</g>
<defs>
<clipPath id="clip0_3967_1019">
<rect width="74" height="74" fill="white"/>
</clipPath>
<clipPath id="clip1_3967_1019">
<rect width="74" height="74" fill="white"/>
</clipPath>
</defs>
</svg>
