<svg width="74" height="74" viewBox="0 0 74 74" fill="none" xmlns="http://www.w3.org/2000/svg">
<g clip-path="url(#clip0_3967_4012)">
<path d="M41.4284 11.3838V22.7689L61.142 34.1541V22.7689L41.4284 11.3838ZM2 22.7689V34.1541L11.8568 39.8455V28.4615L2 22.7689ZM31.5704 28.4615L21.7136 34.1541V68.3072L31.5704 73.9998V51.2307L41.4284 56.9232V45.5381L31.5704 39.8455V28.4615Z" fill="#E55B2D"/>
<path d="M41.4271 11.3838L11.8555 28.4615V39.8455L31.5691 28.4615V39.8455L41.4271 34.1541V11.3838ZM70.9987 17.0764L61.1407 22.7689V34.1541L70.9987 28.4615V17.0764ZM51.2839 39.8455L41.4271 45.5381V56.9232L51.2839 51.2307V39.8455ZM41.4271 56.9232L31.5691 51.2307V73.9998L41.4271 68.3072V56.9232Z" fill="#ED8E24"/>
<path d="M41.4284 0L2 22.7691L11.8568 28.4617L41.4284 11.384L61.142 22.7691L71 17.0766L41.4284 0ZM41.4284 34.1543L31.5704 39.8457L41.4284 45.5383L51.2852 39.8457L41.4284 34.1543Z" fill="#F8BF3C"/>
</g>
<defs>
<clipPath id="clip0_3967_4012">
<rect width="74" height="74" fill="white"/>
</clipPath>
</defs>
</svg>
