<svg width="74" height="74" viewBox="0 0 74 74" fill="none" xmlns="http://www.w3.org/2000/svg">
<g clip-path="url(#clip0_3967_1925)">
<path d="M56.9261 52.9384C65.8818 42.2981 67.3716 26.8078 60.2494 18.3474C53.1272 9.887 40.0976 11.6581 31.1418 22.2983C22.1861 32.9386 24.776 53.2789 27.8185 56.8893C30.2766 59.8116 47.9703 63.5786 56.9261 52.9384Z" fill="#F89939"/>
<path d="M19.6477 38.0511C14.412 31.9004 6.79231 30.8753 2.63033 35.7632C-1.53165 40.6579 -0.659998 49.6124 4.57567 55.763C9.81133 61.9204 19.8151 60.135 21.593 58.0508C23.0304 56.3604 24.8891 44.2017 19.6477 38.0511Z" fill="#3499CD"/>
<path d="M71.5718 51.3977C71.2335 51.3977 71.0643 51.1592 71.0643 50.6755C71.0643 50.3144 71.2685 49.5242 71.671 48.3183C72.2601 46.5538 72.5576 45.2866 72.5576 44.5168C72.5576 44.0535 72.441 43.6652 72.2076 43.3586C71.9743 43.052 71.6827 42.8953 71.3327 42.8953C70.8193 42.8953 70.2302 43.1747 69.5652 43.7401C68.9002 44.3056 68.0077 45.3207 66.8819 46.7922C67.0452 45.8384 67.3952 44.5304 67.9202 42.8681L65.4061 43.4335C64.8344 44.8778 64.4203 46.1791 64.1636 47.3373C64.0353 47.9027 63.942 48.4886 63.8778 49.0813C63.0903 49.9738 62.577 50.512 62.3553 50.7096C62.1278 50.9071 61.8887 51.0025 61.6437 51.0025C61.4162 51.0025 61.2354 50.9003 61.1012 50.7028C60.967 50.5052 60.9029 50.2327 60.9029 49.8989C60.9029 49.5378 60.9612 49.1222 61.0779 48.6521C61.1945 48.182 61.4512 47.2964 61.8537 45.9951L62.8103 42.9158L61.8712 42.9635C61.0195 44.8574 60.022 45.8793 58.8787 46.0224C59.1879 45.0822 59.3454 44.3601 59.3454 43.8559C59.3454 43.2155 59.0771 42.8953 58.5404 42.8953C57.9046 42.8953 57.4088 43.2428 57.0529 43.9445C56.6913 44.6462 56.5104 45.3071 56.5104 45.927C56.5104 46.547 56.8079 46.983 57.3971 47.2896C57.0121 47.9504 56.5804 48.5704 56.1138 49.1563C55.5596 49.7967 55.128 50.2872 54.813 50.6074C54.4921 50.9412 54.1947 51.1047 53.9263 51.1047C53.5063 51.1047 53.2963 50.7573 53.2963 50.0692C53.2963 49.3811 53.5297 48.1957 53.9963 46.4243L54.9063 42.8953H54.3288L52.223 44.2579C51.8789 43.3382 51.278 42.8749 50.4206 42.8749C49.7381 42.8749 48.9564 43.2155 48.0698 43.89C47.1831 44.5645 46.454 45.4433 45.8881 46.5402C45.4507 47.3849 45.1823 48.2706 45.0832 49.1835C44.2898 50.1101 43.6949 50.7096 43.2982 50.9889C42.884 51.275 42.4524 51.4181 41.9974 51.4181C40.8366 51.4181 40.1191 50.6346 39.8449 49.0677C42.8724 48.0322 44.3832 46.6832 44.3832 45.0209C44.3832 44.3941 44.1907 43.89 43.8057 43.5017C43.4207 43.1133 42.9074 42.9226 42.2715 42.9226C41.0407 42.9226 39.9208 43.6107 38.9116 44.9869C37.9958 46.2336 37.5 47.6166 37.4125 49.1358C36.5783 50.0964 35.9483 50.73 35.54 51.0366C35.12 51.35 34.7234 51.5067 34.3559 51.5067C33.9884 51.5067 33.6967 51.3023 33.4809 50.8935C33.2592 50.4848 33.1484 49.9329 33.1484 49.2312C33.1484 48.9178 33.1776 48.3455 33.2301 47.5076C34.6067 45.7635 35.6158 44.1284 36.2633 42.5956C36.9108 41.0627 37.2316 39.4753 37.2316 37.8403C37.2316 37.2612 37.1675 36.8047 37.0391 36.4641C36.9108 36.1234 36.7475 35.9531 36.5492 35.9531C36.5083 35.9531 36.4442 35.9668 36.3625 36.0008L33.7434 37.1317C32.8509 39.1211 32.0867 41.2943 31.4626 43.6584C30.8384 46.0156 30.5234 48.039 30.5234 49.7217C30.5234 50.8458 30.7451 51.7383 31.2001 52.406C31.6492 53.0736 32.2442 53.4074 32.9792 53.4074C33.6209 53.4074 34.2917 53.169 34.9975 52.6921C35.7033 52.2152 36.52 51.4726 37.4591 50.4711C38.3983 49.4697 37.4591 50.4575 37.4591 50.4575C37.57 51.2137 37.8383 51.8473 38.2583 52.3651C38.8358 53.06 39.5883 53.4142 40.5216 53.4142C41.3616 53.4142 42.1257 53.1758 42.8199 52.6989C43.4907 52.2424 44.2432 51.5271 45.0832 50.5801C45.1532 51.2887 45.3515 51.9018 45.684 52.4264C46.1098 53.0872 46.6231 53.4211 47.224 53.4211C47.8248 53.4211 48.4431 53.1485 49.0264 52.6035C49.6097 52.0585 50.2397 51.2069 50.928 50.0624C50.8639 52.3038 51.3772 53.4211 52.4622 53.4211C52.8938 53.4211 53.3488 53.2371 53.8213 52.8692C54.2938 52.5013 55.0813 51.7042 56.1838 50.4848C57.1404 49.3811 57.8404 48.3455 58.2896 47.3781C58.8962 47.2555 59.4504 47.0443 59.9579 46.7377C58.9196 48.6385 58.4004 50.1577 58.4004 51.2887C58.4004 51.9018 58.5462 52.4128 58.8321 52.8215C59.1179 53.2303 59.4737 53.4415 59.8937 53.4415C60.8095 53.4415 62.1103 52.4809 63.7903 50.5801C63.7903 50.73 63.7786 50.8731 63.7786 51.023C63.7786 51.5544 63.8195 52.3583 63.8895 53.4415L66.1703 52.8147C66.1703 52.0926 66.1819 51.5203 66.1994 51.0911C66.2344 50.5188 66.3044 49.892 66.4036 49.2108C66.4677 48.8088 66.6252 48.4273 66.8761 48.0662L67.4536 47.2828C67.6636 46.9966 67.8677 46.7377 68.0486 46.5129C68.2644 46.2472 68.4569 46.0224 68.626 45.8384C68.8185 45.6409 68.9877 45.4774 69.1335 45.3684C69.291 45.2594 69.4194 45.1981 69.5127 45.1981C69.6819 45.1981 69.7694 45.3275 69.7694 45.5864C69.7694 45.8453 69.606 46.4448 69.2852 47.3918C68.6785 49.1563 68.3752 50.4711 68.3752 51.3295C68.3752 51.9631 68.5152 52.4673 68.801 52.8488C69.081 53.2235 69.4544 53.4142 69.9152 53.4142C71.0468 53.4142 72.4118 52.4332 73.9984 50.4779V49.095C72.8726 50.6415 72.0618 51.4181 71.5602 51.4181L71.5718 51.3977ZM33.5042 45.7499C33.9709 43.0861 34.4492 41.0218 34.9334 39.5435C35.4175 38.0651 35.7908 37.3225 36.0417 37.3225C36.1583 37.3225 36.2575 37.4111 36.3333 37.595C36.4092 37.7721 36.4442 38.0174 36.4442 38.3103C36.4442 39.3254 36.1758 40.5313 35.6275 41.9415C35.085 43.345 34.3734 44.619 33.5042 45.7499ZM40.3816 45.0822C40.7957 44.2715 41.2274 43.8696 41.6824 43.8696C42.1607 43.8696 42.4057 44.2579 42.4057 45.0277C42.4057 46.5879 41.5249 47.6506 39.7633 48.2297C39.7633 46.9353 39.9674 45.8861 40.3816 45.0822ZM50.5781 49.0677C49.9714 50.4371 49.3181 51.1183 48.6356 51.1183C48.3556 51.1183 48.1223 50.9821 47.9414 50.7164C47.7606 50.4507 47.6673 50.0964 47.6673 49.6604C47.6673 48.5159 47.9764 47.2555 48.5889 45.893C49.2014 44.5304 49.8547 43.8491 50.5431 43.8491C50.8289 43.8491 51.0622 43.9718 51.2314 44.2306C51.4005 44.4827 51.488 44.837 51.488 45.2866C51.488 46.4448 51.1847 47.7051 50.5781 49.0745V49.0677Z" fill="#010101"/>
<path d="M43.3012 37.4274C43.3907 37.5749 43.4324 37.7646 43.4324 37.9893C43.4324 38.2141 43.3787 38.4178 43.2713 38.6075C43.1639 38.7972 43.0087 38.9517 42.7999 39.0571C42.597 39.1624 42.3642 39.2186 42.1076 39.2186C41.6779 39.2186 41.3557 39.1133 41.1289 38.9025C40.9021 38.6918 40.7589 38.3827 40.6992 37.9683L41.2542 37.8629C41.2841 38.1228 41.3736 38.3265 41.5108 38.46C41.6541 38.6005 41.851 38.6707 42.1076 38.6707C42.3642 38.6707 42.5552 38.6075 42.6805 38.4881C42.8058 38.3687 42.8655 38.2212 42.8655 38.0526C42.8655 37.9051 42.8118 37.7856 42.6984 37.7013C42.6208 37.6451 42.4299 37.5679 42.1255 37.4766C41.7137 37.3571 41.4333 37.2518 41.2721 37.1604C41.111 37.0691 40.9916 36.9497 40.9141 36.7881C40.8365 36.6266 40.7887 36.458 40.7887 36.2683C40.7887 36.0927 40.8245 35.9382 40.8902 35.7907C40.9558 35.6431 41.0513 35.5237 41.1647 35.4254C41.2542 35.3481 41.3676 35.2849 41.5168 35.2357C41.666 35.1865 41.8271 35.1584 42.0002 35.1584C42.2568 35.1584 42.4836 35.2006 42.6805 35.2919C42.8774 35.3762 43.0207 35.4956 43.1162 35.6502C43.2116 35.7977 43.2713 36.0014 43.3071 36.2543L42.7581 36.3386C42.7342 36.1419 42.6626 35.9803 42.5433 35.8679C42.4239 35.7555 42.2568 35.6993 42.036 35.6993C41.7794 35.6993 41.5944 35.7485 41.487 35.8469C41.3795 35.9452 41.3199 36.0646 41.3199 36.1981C41.3199 36.2824 41.3437 36.3596 41.3855 36.4299C41.4333 36.5001 41.5049 36.5563 41.6003 36.6055C41.6541 36.6266 41.8212 36.6828 42.0957 36.7741C42.4895 36.9005 42.7641 36.9989 42.9252 37.0762C43.0803 37.1534 43.2057 37.2728 43.2952 37.4204L43.3012 37.4274ZM45.9687 38.4389C45.8195 38.6005 45.6405 38.6778 45.4197 38.6778C45.1452 38.6778 44.9244 38.5583 44.7573 38.3265C44.5902 38.0947 44.5007 37.7084 44.5007 37.1885C44.5007 36.6687 44.5902 36.2964 44.7633 36.0646C44.9363 35.8328 45.1691 35.7064 45.4495 35.7064C45.6345 35.7064 45.7957 35.7696 45.927 35.903C46.0583 36.0365 46.1478 36.2332 46.2015 36.4931L46.7445 36.3948C46.6789 36.0014 46.5357 35.6993 46.3089 35.4886C46.0821 35.2779 45.7897 35.1725 45.4316 35.1725C45.1452 35.1725 44.8886 35.2498 44.6439 35.4113C44.4052 35.5659 44.2202 35.8047 44.1068 36.1208C43.9874 36.4369 43.9278 36.8022 43.9278 37.2237C43.9278 37.8699 44.065 38.3687 44.3395 38.7129C44.6141 39.0571 44.9781 39.2327 45.4257 39.2327C45.7837 39.2327 46.0881 39.1063 46.3387 38.8534C46.5834 38.6005 46.7386 38.2493 46.7983 37.8067L46.2492 37.7224C46.2074 38.0526 46.1179 38.2914 45.9687 38.453V38.4389ZM47.2757 39.1273H47.8366V35.2498H47.2757V39.1273ZM47.2757 34.5262H47.8366V33.7676H47.2757V34.5262ZM51.292 35.2427H50.5699L49.245 36.8233V33.7676H48.6841V39.1203H49.245V37.5819L49.6389 37.1394L50.731 39.1203H51.4233L50.0328 36.6828L51.292 35.2427ZM51.8649 34.5262H52.4258V33.7676H51.8649V34.5262ZM51.8649 39.1273H52.4258V35.2498H51.8649V39.1273ZM54.4966 38.5373C54.3952 38.5513 54.3116 38.5654 54.252 38.5654C54.1684 38.5654 54.1028 38.5513 54.061 38.5162C54.0192 38.4811 53.9834 38.4389 53.9655 38.3897C53.9476 38.3336 53.9357 38.2141 53.9357 38.0315V35.7626H54.4966V35.2498H53.9357V33.894L53.3807 34.2874V35.2498H52.9689V35.7626H53.3807V37.9964C53.3807 38.3898 53.4045 38.6497 53.4463 38.7691C53.4941 38.8955 53.5716 38.9939 53.6791 39.0641C53.7924 39.1414 53.9476 39.1765 54.1505 39.1765C54.2758 39.1765 54.4131 39.1554 54.5742 39.1203L54.4907 38.5373H54.4966Z" fill="white"/>
</g>
<defs>
<clipPath id="clip0_3967_1925">
<rect width="74" height="74" fill="white"/>
</clipPath>
</defs>
</svg>
