<svg width="74" height="74" viewBox="0 0 74 74" fill="none" xmlns="http://www.w3.org/2000/svg">
<g clip-path="url(#clip0_3967_2623)">
<g clip-path="url(#clip1_3967_2623)">
<path d="M58.017 21.5013L52.5452 26.9953C61.5297 36.0164 61.5297 50.5316 52.5452 59.417C43.5607 68.4381 29.1045 68.4381 20.2551 59.417C11.2706 50.3959 11.2706 35.8808 20.2551 26.9953L34.5087 12.6837L36.5353 10.6489V-0.135742L15.0535 21.4335C3.09673 33.439 3.09673 52.8377 15.0535 64.8432C27.0104 76.8487 46.3304 76.8487 58.0846 64.8432C69.9738 52.8377 69.9738 33.5746 58.017 21.5013Z" fill="#EE4C2C"/>
<path d="M47.2747 20.2126C49.4759 20.2126 51.2603 18.421 51.2603 16.2108C51.2603 14.0007 49.4759 12.209 47.2747 12.209C45.0735 12.209 43.2891 14.0007 43.2891 16.2108C43.2891 18.421 45.0735 20.2126 47.2747 20.2126Z" fill="#EE4C2C"/>
</g>
</g>
<defs>
<clipPath id="clip0_3967_2623">
<rect width="74" height="74" fill="white"/>
</clipPath>
<clipPath id="clip1_3967_2623">
<rect width="61" height="74" fill="white" transform="translate(6)"/>
</clipPath>
</defs>
</svg>
