<svg width="55" height="38" viewBox="0 0 55 38" fill="none" xmlns="http://www.w3.org/2000/svg">
<path d="M47.0283 18.6503C44.0823 18.6503 41.9885 19.8761 40.6616 21.7938C39.4292 23.5686 38.8506 25.9313 38.8506 28.4628C38.8506 30.9942 39.4181 32.9387 40.4084 34.4613C41.7928 36.5867 44.0044 37.743 46.6694 37.743C52.757 37.743 54.8832 32.4779 54.8832 27.9324C54.8832 24.1806 53.3653 18.7319 47.172 18.6521C47.1228 18.6512 47.0755 18.6512 47.0283 18.6512M46.8521 33.994C45.6568 33.994 44.8593 33.114 44.5125 31.7064C44.2993 30.7485 44.2752 29.7368 44.2752 28.7558C44.2752 26.9485 44.3799 24.5793 45.0717 23.4119C45.5743 22.5875 46.3476 22.2685 46.9596 22.2685C48.2356 22.2685 48.9004 23.3034 49.1647 24.4467C49.4318 25.5919 49.4855 27.5846 49.4855 28.409C49.4855 31.0156 49.0868 33.994 46.8521 33.994Z" fill="#C3C9D0"/>
<path d="M27.8905 21.7986C26.7332 19.9849 24.8147 18.6273 21.7473 18.5875C19.1982 18.5522 17.2796 19.4266 15.9295 20.8695L15.7237 22.8159H14.5961C14.1788 23.6588 13.8784 24.5925 13.6846 25.5866C15.5178 26.6381 16.6815 28.4574 16.6815 30.7376C16.6815 32.2129 16.1725 33.7031 15.3027 34.852C16.6954 36.688 18.7753 37.6774 21.2419 37.6774C24.2936 37.6774 26.3475 36.356 27.641 34.4671C26.647 32.9418 26.0814 30.9212 26.0814 28.4649C26.0814 26.0085 26.6618 23.5707 27.8905 21.7986ZM21.4273 33.9293C20.2312 33.9293 19.4337 33.0493 19.0878 31.6417C18.8745 30.6838 18.8504 29.6759 18.8504 28.6911C18.8504 26.882 18.9543 24.5165 19.646 23.3472C20.1523 22.5219 20.9229 22.2038 21.534 22.2038C22.8108 22.2038 23.4748 23.2406 23.74 24.383C24.007 25.5263 24.0599 27.52 24.0599 28.3443C24.0599 30.9518 23.663 33.9284 21.4273 33.9284" fill="#C3C9D0"/>
<path d="M34.191 22.2705C33.579 22.2705 32.8103 22.5895 32.304 23.4138C31.6113 24.5831 31.5074 26.9477 31.5074 28.7577C31.5074 29.7416 31.5343 30.7514 31.7467 31.7083C32.0916 33.1187 32.89 33.995 34.0871 33.995C36.32 33.995 36.7197 31.0184 36.7197 28.4109C36.7197 27.5866 36.6649 25.5938 36.3997 24.4505C36.1345 23.3062 35.4688 22.2705 34.1919 22.2705M33.8979 37.7449C31.2357 37.7449 29.0232 36.5905 27.6416 34.4661C28.9268 32.5837 29.4563 30.1347 29.4563 27.8675C29.4563 25.9731 29.0715 23.6484 27.8901 21.7976C29.2217 19.8799 31.3127 18.6522 34.2596 18.6522C34.3069 18.6522 34.356 18.6522 34.4033 18.6531C37.4995 18.6921 39.4264 20.0737 40.5799 21.9135C39.4032 23.6734 38.8496 25.9879 38.8496 28.4619C38.8496 30.9359 39.4051 32.8962 40.3778 34.4123C39.0898 36.3661 37.0118 37.744 33.8979 37.744" fill="#C3C9D0"/>
<path d="M40.3778 34.4129C39.4051 32.8968 38.8496 30.8902 38.8496 28.4625C38.8496 26.0349 39.4041 23.6731 40.5799 21.9122C41.7353 23.7557 42.1146 26.0572 42.1146 27.9321C42.1146 30.1539 41.6064 32.5463 40.3778 34.4129Z" fill="#C3C9D0"/>
<path d="M27.8903 21.7977C26.6616 23.5706 26.083 25.9324 26.083 28.4658C26.083 30.9991 26.6486 32.9417 27.6408 34.4662C28.9288 32.5838 29.4574 30.1349 29.4574 27.8658C29.4574 25.9742 29.0707 23.6476 27.8903 21.7968" fill="#C3C9D0"/>
<path d="M13.6847 25.5866C12.5711 24.9486 11.2107 24.5962 9.71596 24.5962C8.73119 24.5962 7.535 24.7826 6.73754 25.1025C6.55116 25.1813 6.36478 25.287 6.17932 25.3946L6.44545 22.8149H14.5972C14.9551 22.0916 15.3974 21.436 15.9287 20.8676L16.1235 19.0131H2.56294L1.5522 28.9044L6.09865 29.4626C6.41763 28.9841 6.84325 28.2933 8.33246 28.2933C10.2195 28.2933 11.1236 29.4895 11.1236 31.1382C11.1236 32.5745 10.353 33.9822 8.41313 33.9822C7.32266 33.9822 6.44545 33.4786 6.12554 32.4401C5.99201 32.0145 5.99201 31.5629 5.99201 31.1104L0.568359 31.6695C0.862307 33.0502 1.12658 34.328 2.29681 35.552C4.3702 37.6523 7.4024 37.6523 8.38532 37.6523C9.92738 37.6523 12.7732 37.5188 14.7668 35.4723C14.9588 35.2804 15.1368 35.0726 15.3028 34.852C14.114 33.2858 13.4251 31.1048 13.4251 28.3981C13.4251 27.4291 13.5104 26.4842 13.6847 25.5866Z" fill="#C3C9D0"/>
<path d="M15.7233 22.8148L15.9273 20.8684C15.3969 21.435 14.9536 22.0915 14.5957 22.8148H15.7233Z" fill="#C3C9D0"/>
<path d="M13.6844 25.5864C13.5101 26.484 13.4248 27.4289 13.4248 28.3979C13.4248 31.1047 14.1138 33.2847 15.3025 34.8518C16.1742 33.7029 16.6814 32.2128 16.6814 30.7375C16.6814 28.4554 15.5167 26.6361 13.6844 25.5864Z" fill="#C3C9D0"/>
<path d="M5.39258 15.6432V12.279H7.40848V3.82404H5.39258V0.203003H16.1379V3.82404H14.1229V12.2762H16.1379V15.6432H5.39258Z" fill="#C3C9D0"/>
<path d="M25.8364 15.6432V12.2772H27.3942V8.7535C27.3942 7.69177 26.6375 7.21607 25.6639 7.21607C24.4288 7.21607 23.4978 8.12573 23.4978 9.35902V12.2772H25.101V15.6432H16.6943V12.2772H18.2123V7.20031H16.6943V3.83057H23.3234V6.15433C23.4319 6.06717 23.5404 5.93735 23.6267 5.82886C24.8395 4.44164 26.2268 3.94462 28.0461 3.94462C30.6007 3.94462 32.6815 4.9841 32.6815 7.82251V12.2753H34.0456V15.6423H25.8364V15.6432Z" fill="#C3C9D0"/>
<path d="M47.4118 8.81378L42.8756 9.31266C42.82 8.05341 42.5612 6.72276 41.0266 6.72276C39.0775 6.72276 38.9263 8.34736 38.9263 9.90797V9.94043C38.9263 11.5001 39.0775 13.1247 41.0266 13.1247C42.0503 13.1247 42.9535 12.5387 42.9535 11.298H43.1018L47.4712 11.3017L47.4341 11.6911C46.6876 15.3641 43.3735 15.939 40.983 15.939C37.2368 15.939 33.5527 14.0984 33.5527 9.91725V9.9293C33.5527 5.74819 37.2368 3.90754 40.983 3.90754C40.983 3.90754 46.8583 3.52643 47.4118 8.81471" fill="#C3C9D0"/>
<path d="M50.9256 13.7858C50.9256 14.8429 50.0688 15.6988 49.0126 15.6988C47.9564 15.6988 47.0996 14.842 47.0996 13.7858C47.0996 12.7296 47.9564 11.871 49.0126 11.871C50.0688 11.871 50.9256 12.7287 50.9256 13.7858Z" fill="#C3C9D0"/>
</svg>
