<svg width="33" height="33" viewBox="0 0 33 33" fill="none" xmlns="http://www.w3.org/2000/svg">
<path d="M19.3198 30.0415L18.4511 31.5093C17.6767 32.8175 15.7424 32.8175 14.968 31.5093L14.0993 30.0415C13.4255 28.9031 13.0885 28.3338 12.5473 28.019C12.0061 27.7043 11.3248 27.6925 9.962 27.6691C7.95015 27.6344 6.68838 27.5111 5.63016 27.0727C3.66675 26.2595 2.10682 24.6996 1.29354 22.7362C0.683594 21.2636 0.683594 19.3968 0.683594 15.6632V14.0606C0.683594 8.8146 0.683594 6.19159 1.86439 4.26471C2.52512 3.18651 3.43162 2.28 4.50983 1.61928C6.43671 0.438477 9.05972 0.438477 14.3057 0.438477H19.1135C24.3596 0.438477 26.9826 0.438477 28.9094 1.61928C29.9876 2.28 30.8941 3.18651 31.5548 4.26471C32.7357 6.19159 32.7357 8.8146 32.7357 14.0606V15.6632C32.7357 19.3968 32.7357 21.2636 32.1257 22.7362C31.3124 24.6996 29.7525 26.2595 27.7892 27.0727C26.7309 27.5111 25.469 27.6344 23.4572 27.6691C22.0944 27.6925 21.4131 27.7043 20.8719 28.019C20.3306 28.3338 19.9938 28.9031 19.3198 30.0415Z" fill="white"/>
<path fill-rule="evenodd" clip-rule="evenodd" d="M21.4663 8.92969C21.9357 8.46029 22.6968 8.46029 23.1662 8.92969L23.4412 9.20465C23.4608 9.22435 23.4805 9.24399 23.5 9.26357C24.5183 10.2817 25.3673 11.1307 25.9507 11.8953C26.5665 12.7024 26.9984 13.5551 26.9984 14.5874C26.9984 15.6196 26.5665 16.4724 25.9507 17.2795C25.3673 18.0441 24.5183 18.8932 23.5 19.9113L23.1662 20.2452C22.6968 20.7145 21.9357 20.7145 21.4663 20.2452C20.9969 19.7758 20.9969 19.0147 21.4663 18.5453L21.7414 18.2704C22.8338 17.178 23.5657 16.4424 24.0395 15.8213C24.4922 15.228 24.5945 14.8827 24.5945 14.5874C24.5945 14.2921 24.4922 13.9467 24.0395 13.3535C23.5657 12.7325 22.8338 11.9969 21.7414 10.9045L21.4663 10.6295C20.9969 10.1601 20.9969 9.39908 21.4663 8.92969Z" fill="#0D0E15"/>
<path fill-rule="evenodd" clip-rule="evenodd" d="M19.0957 5.68774C19.7369 5.85955 20.1174 6.51863 19.9457 7.15983L15.7978 22.6399C15.6261 23.2811 14.967 23.6615 14.3258 23.4897C13.6845 23.3179 13.304 22.6588 13.4758 22.0176L17.6236 6.53765C17.7954 5.89644 18.4545 5.51593 19.0957 5.68774Z" fill="#0D0E15"/>
<path fill-rule="evenodd" clip-rule="evenodd" d="M11.9471 8.92969C11.4777 8.46029 10.7166 8.46029 10.2473 8.92969L9.9723 9.20465C9.95258 9.22435 9.93294 9.24399 9.91336 9.26357C8.89516 10.2817 8.04611 11.1307 7.46272 11.8953C6.84694 12.7024 6.41504 13.5551 6.41504 14.5874C6.41504 15.6196 6.84694 16.4724 7.46272 17.2795C8.04611 18.0441 8.89517 18.8932 9.91338 19.9113L10.2473 20.2452C10.7166 20.7145 11.4777 20.7145 11.9471 20.2452C12.4165 19.7758 12.4165 19.0147 11.9471 18.5453L11.6721 18.2704C10.5797 17.178 9.84766 16.4424 9.37387 15.8213C8.92125 15.228 8.81894 14.8827 8.81894 14.5874C8.81894 14.2921 8.92125 13.9467 9.37387 13.3535C9.84766 12.7325 10.5797 11.9969 11.6721 10.9045L11.9471 10.6295C12.4165 10.1601 12.4165 9.39908 11.9471 8.92969Z" fill="#0D0E15"/>
</svg>
