<svg
                      width="16"
                      height="16"
                      viewBox="0 0 16 16"
                      fill="none"
                      xmlns="http://www.w3.org/2000/svg"
                    >
                      <path
                        d="M7.96689 1.78205C10.0239 1.78205 10.2675 1.78944 11.0802 1.82502C11.5687 1.83076 12.0527 1.91689 12.5109 2.07968C12.8433 2.20273 13.1451 2.39122 13.3969 2.63303C13.6488 2.87483 13.8451 3.16459 13.9733 3.48365C14.1428 3.92363 14.2326 4.38825 14.2385 4.85734C14.2752 5.63752 14.2833 5.8714 14.2833 7.84634C14.2833 9.82128 14.2756 10.0552 14.2385 10.8353C14.2326 11.3044 14.1428 11.7691 13.9733 12.209C13.8451 12.5281 13.6488 12.8178 13.3969 13.0597C13.1451 13.3015 12.8433 13.49 12.5109 13.613C12.0527 13.7758 11.5687 13.8619 11.0802 13.8677C10.2679 13.9029 10.0243 13.9106 7.96689 13.9106C5.90949 13.9106 5.66588 13.9032 4.85363 13.8677C4.36505 13.8619 3.8811 13.7758 3.42284 13.613C3.09051 13.49 2.78871 13.3015 2.53685 13.0597C2.28499 12.8178 2.08866 12.5281 1.96049 12.209C1.79094 11.7691 1.70123 11.3044 1.69525 10.8353C1.65856 10.0552 1.65049 9.82128 1.65049 7.84634C1.65049 5.8714 1.65819 5.63752 1.69525 4.85734C1.70123 4.38825 1.79094 3.92363 1.96049 3.48365C2.08866 3.16459 2.28499 2.87483 2.53685 2.63303C2.78871 2.39122 3.09051 2.20273 3.42284 2.07968C3.8811 1.91689 4.36505 1.83076 4.85363 1.82502C5.66625 1.78979 5.90985 1.78205 7.96689 1.78205ZM7.96689 0.449219C5.87573 0.449219 5.61232 0.457672 4.79053 0.493599C4.15109 0.50581 3.51844 0.62205 2.91949 0.837373C2.40569 1.02323 1.94031 1.31449 1.55584 1.69082C1.16351 2.06008 0.859881 2.50714 0.666176 3.00075C0.441901 3.5758 0.32083 4.18319 0.308111 4.79711C0.271424 5.58539 0.262619 5.83829 0.262619 7.84599C0.262619 9.85368 0.271424 10.1066 0.308845 10.8956C0.321563 11.5095 0.442635 12.1169 0.66691 12.6919C0.8604 13.1855 1.16377 13.6325 1.55584 14.0019C1.94053 14.3783 2.40616 14.6695 2.92023 14.8553C3.51918 15.0706 4.15183 15.1869 4.79126 15.1991C5.61305 15.2343 5.87537 15.2435 7.96763 15.2435C10.0599 15.2435 10.3222 15.235 11.144 15.1991C11.7834 15.1869 12.4161 15.0706 13.015 14.8553C13.5267 14.6649 13.9913 14.3741 14.3791 14.0014C14.767 13.6288 15.0696 13.1826 15.2676 12.6912C15.4919 12.1162 15.613 11.5088 15.6257 10.8949C15.6624 10.1066 15.6712 9.85368 15.6712 7.84599C15.6712 5.83829 15.6624 5.58539 15.6249 4.7964C15.6122 4.18249 15.4912 3.57509 15.2669 3.00005C15.0734 2.5065 14.77 2.05945 14.3779 1.69011C13.9933 1.3137 13.5276 1.02244 13.0136 0.836668C12.4146 0.621345 11.782 0.505106 11.1425 0.492895C10.3215 0.457672 10.0581 0.449219 7.96689 0.449219Z"
                        fill="white"
                        fill-opacity="0.9"
                      />
                      <path
                        d="M7.96722 4.04883C7.18474 4.04883 6.41982 4.2716 5.76921 4.68898C5.11859 5.10635 4.6115 5.69958 4.31205 6.39365C4.01261 7.08772 3.93426 7.85146 4.08692 8.58828C4.23957 9.3251 4.61638 10.0019 5.16968 10.5331C5.72298 11.0643 6.42793 11.4261 7.19538 11.5727C7.96284 11.7192 8.75832 11.644 9.48125 11.3565C10.2042 11.069 10.8221 10.5822 11.2568 9.95753C11.6915 9.33289 11.9236 8.5985 11.9236 7.84724C11.9236 6.83984 11.5067 5.8737 10.7648 5.16136C10.0228 4.44902 9.01651 4.04883 7.96722 4.04883ZM7.96722 10.3128C7.4593 10.3128 6.96279 10.1682 6.54047 9.89731C6.11815 9.62638 5.78899 9.24131 5.59462 8.79078C5.40024 8.34026 5.34939 7.84451 5.44848 7.36623C5.54757 6.88795 5.79216 6.44863 6.15131 6.10381C6.51046 5.75899 6.96805 5.52417 7.46621 5.42903C7.96438 5.3339 8.48073 5.38272 8.94999 5.56934C9.41925 5.75595 9.82033 6.07197 10.1025 6.47744C10.3847 6.8829 10.5353 7.3596 10.5353 7.84724C10.5353 8.50116 10.2648 9.12829 9.78314 9.59068C9.30153 10.0531 8.64832 10.3128 7.96722 10.3128Z"
                        fill="white"
                        fill-opacity="0.9"
                      />
                      <path
                        d="M12.0792 4.78499C12.5898 4.78499 13.0037 4.38759 13.0037 3.89738C13.0037 3.40716 12.5898 3.00977 12.0792 3.00977C11.5686 3.00977 11.1547 3.40716 11.1547 3.89738C11.1547 4.38759 11.5686 4.78499 12.0792 4.78499Z"
                        fill="white"
                        fill-opacity="0.9"
                      />
                    </svg>