<svg width="153" height="45" viewBox="0 0 153 45" fill="none" xmlns="http://www.w3.org/2000/svg">
<g clip-path="url(#clip0_0_1)">
<path d="M44.624 0.671875H0.9375V44.3584H44.624V0.671875Z" fill="#F7DF1E"/>
<path d="M44.624 0.671875H0.9375V44.3584H44.624V0.671875Z" fill="#F7DF1E"/>
<path d="M30.2849 34.8017C31.1649 36.2385 32.3098 37.2946 34.3346 37.2946C36.0356 37.2946 37.1222 36.4444 37.1222 35.2698C37.1222 33.8621 36.0058 33.3635 34.1335 32.5446L33.1072 32.1042C30.1448 30.8422 28.1769 29.2611 28.1769 25.9188C28.1769 22.8399 30.5228 20.4961 34.189 20.4961C36.7991 20.4961 38.6755 21.4045 40.0277 23.783L36.831 25.8356C36.1271 24.5735 35.3678 24.0763 34.189 24.0763C32.9866 24.0763 32.2245 24.8391 32.2245 25.8356C32.2245 27.0671 32.9872 27.5657 34.7486 28.3285L35.7749 28.7681C39.2628 30.2638 41.2322 31.7887 41.2322 35.2171C41.2322 38.9131 38.3288 40.9379 34.4296 40.9379C30.6171 40.9379 28.154 39.1211 26.9488 36.7399L30.2849 34.8017ZM15.7831 35.1574C16.428 36.3016 17.0146 37.2689 18.4251 37.2689C19.7738 37.2689 20.6247 36.7412 20.6247 34.6894V20.7305H24.7298V34.7448C24.7298 38.9956 22.2376 40.9303 18.5998 40.9303C15.3129 40.9303 13.4094 39.2293 12.4414 37.1805L15.7831 35.1574Z" fill="black"/>
</g>
<path d="M57.9106 14.9702H60.5242V25.1974C60.5195 26.1349 60.3206 26.9422 59.9276 27.6193C59.5347 28.2917 58.9854 28.8101 58.2799 29.1747C57.5792 29.5346 56.7624 29.7145 55.8296 29.7145C54.9774 29.7145 54.2103 29.563 53.5285 29.2599C52.8514 28.9522 52.314 28.4976 51.9163 27.8963C51.5186 27.295 51.3197 26.5469 51.3197 25.652H53.9404C53.9452 26.045 54.0304 26.3835 54.1961 26.6676C54.3666 26.9517 54.6009 27.1695 54.8992 27.321C55.1975 27.4725 55.5408 27.5483 55.9291 27.5483C56.3505 27.5483 56.7079 27.4607 57.0015 27.2855C57.2951 27.1056 57.5176 26.8404 57.6691 26.4901C57.8254 26.1397 57.9059 25.7088 57.9106 25.1974V14.9702ZM66.4085 29.7358C65.7172 29.7358 65.0945 29.6127 64.5406 29.3665C63.9913 29.1155 63.5557 28.7462 63.2338 28.2585C62.9165 27.7708 62.7579 27.1695 62.7579 26.4545C62.7579 25.839 62.8715 25.33 63.0988 24.9276C63.3261 24.5251 63.6362 24.2031 64.0292 23.9616C64.4222 23.7202 64.8649 23.5379 65.3573 23.4148C65.8545 23.2869 66.3682 23.1946 66.8985 23.1378C67.5377 23.0715 68.0562 23.0123 68.4539 22.9602C68.8517 22.9034 69.1405 22.8182 69.3204 22.7045C69.5051 22.5862 69.5974 22.4039 69.5974 22.1577V22.1151C69.5974 21.58 69.4388 21.1657 69.1215 20.8722C68.8043 20.5786 68.3474 20.4318 67.7508 20.4318C67.1211 20.4318 66.6215 20.5691 66.2522 20.8438C65.8876 21.1184 65.6414 21.4427 65.5136 21.8168L63.113 21.4759C63.3024 20.813 63.6149 20.259 64.0505 19.8139C64.4861 19.3641 65.0188 19.0279 65.6485 18.8054C66.2783 18.5781 66.9743 18.4645 67.7366 18.4645C68.2622 18.4645 68.7854 18.526 69.3062 18.6491C69.827 18.7723 70.3029 18.9759 70.7338 19.2599C71.1646 19.5393 71.5103 19.9205 71.7707 20.4034C72.0358 20.8864 72.1684 21.4901 72.1684 22.2145V29.5156H69.6968V28.017H69.6116C69.4553 28.3201 69.2352 28.6042 68.9511 28.8693C68.6717 29.1297 68.319 29.3404 67.8928 29.5014C67.4714 29.6577 66.9767 29.7358 66.4085 29.7358ZM67.0761 27.8466C67.5922 27.8466 68.0396 27.7448 68.4184 27.5412C68.7972 27.3329 69.0884 27.0582 69.292 26.7173C69.5003 26.3764 69.6045 26.0047 69.6045 25.6023V24.3168C69.524 24.383 69.3867 24.4446 69.1926 24.5014C69.0032 24.5582 68.7901 24.608 68.5534 24.6506C68.3166 24.6932 68.0822 24.7311 67.8502 24.7642C67.6182 24.7973 67.417 24.8258 67.2465 24.8494C66.863 24.9015 66.5197 24.9867 66.2167 25.1051C65.9137 25.2235 65.6746 25.3892 65.4994 25.6023C65.3242 25.8106 65.2366 26.0805 65.2366 26.4119C65.2366 26.8854 65.4094 27.2429 65.7551 27.4844C66.1007 27.7259 66.541 27.8466 67.0761 27.8466ZM84.1073 18.6065L80.2224 29.5156H77.3815L73.4965 18.6065H76.238L78.7451 26.7102H78.8588L81.373 18.6065H84.1073ZM88.7132 29.7358C88.0219 29.7358 87.3992 29.6127 86.8453 29.3665C86.296 29.1155 85.8604 28.7462 85.5384 28.2585C85.2212 27.7708 85.0626 27.1695 85.0626 26.4545C85.0626 25.839 85.1762 25.33 85.4035 24.9276C85.6308 24.5251 85.9409 24.2031 86.3339 23.9616C86.7269 23.7202 87.1696 23.5379 87.662 23.4148C88.1592 23.2869 88.6729 23.1946 89.2032 23.1378C89.8424 23.0715 90.3609 23.0123 90.7586 22.9602C91.1563 22.9034 91.4452 22.8182 91.6251 22.7045C91.8097 22.5862 91.9021 22.4039 91.9021 22.1577V22.1151C91.9021 21.58 91.7435 21.1657 91.4262 20.8722C91.109 20.5786 90.6521 20.4318 90.0555 20.4318C89.4258 20.4318 88.9262 20.5691 88.5569 20.8438C88.1923 21.1184 87.9461 21.4427 87.8183 21.8168L85.4177 21.4759C85.6071 20.813 85.9196 20.259 86.3552 19.8139C86.7908 19.3641 87.3235 19.0279 87.9532 18.8054C88.5829 18.5781 89.279 18.4645 90.0413 18.4645C90.5669 18.4645 91.0901 18.526 91.6109 18.6491C92.1317 18.7723 92.6076 18.9759 93.0384 19.2599C93.4693 19.5393 93.815 19.9205 94.0754 20.4034C94.3405 20.8864 94.4731 21.4901 94.4731 22.2145V29.5156H92.0015V28.017H91.9163C91.76 28.3201 91.5399 28.6042 91.2558 28.8693C90.9764 29.1297 90.6237 29.3404 90.1975 29.5014C89.7761 29.6577 89.2813 29.7358 88.7132 29.7358ZM89.3808 27.8466C89.8969 27.8466 90.3443 27.7448 90.7231 27.5412C91.1019 27.3329 91.3931 27.0582 91.5967 26.7173C91.805 26.3764 91.9092 26.0047 91.9092 25.6023V24.3168C91.8287 24.383 91.6914 24.4446 91.4972 24.5014C91.3079 24.5582 91.0948 24.608 90.858 24.6506C90.6213 24.6932 90.3869 24.7311 90.1549 24.7642C89.9229 24.7973 89.7217 24.8258 89.5512 24.8494C89.1677 24.9015 88.8244 24.9867 88.5214 25.1051C88.2184 25.2235 87.9793 25.3892 87.8041 25.6023C87.6289 25.8106 87.5413 26.0805 87.5413 26.4119C87.5413 26.8854 87.7141 27.2429 88.0597 27.4844C88.4054 27.7259 88.8457 27.8466 89.3808 27.8466ZM105.077 18.9688C105.011 18.3485 104.731 17.8655 104.239 17.5199C103.751 17.1742 103.117 17.0014 102.335 17.0014C101.786 17.0014 101.315 17.0843 100.922 17.25C100.529 17.4157 100.228 17.6406 100.02 17.9247C99.8116 18.2088 99.7051 18.5331 99.7004 18.8977C99.7004 19.2008 99.769 19.4635 99.9063 19.6861C100.048 19.9086 100.24 20.098 100.482 20.2543C100.723 20.4058 100.991 20.5336 101.284 20.6378C101.578 20.742 101.874 20.8295 102.172 20.9006L103.536 21.2415C104.085 21.3693 104.613 21.5421 105.119 21.7599C105.631 21.9777 106.088 22.2524 106.49 22.5838C106.897 22.9152 107.219 23.3153 107.456 23.7841C107.693 24.2528 107.811 24.8021 107.811 25.4318C107.811 26.2841 107.593 27.0346 107.158 27.6832C106.722 28.3272 106.092 28.8314 105.269 29.196C104.449 29.5559 103.457 29.7358 102.293 29.7358C101.161 29.7358 100.179 29.5606 99.3453 29.2102C98.5167 28.8598 97.868 28.3485 97.3992 27.6761C96.9352 27.0038 96.6843 26.1847 96.6464 25.2188H99.2387C99.2766 25.7254 99.4329 26.1468 99.7075 26.483C99.9821 26.8191 100.34 27.0701 100.78 27.2358C101.225 27.4015 101.722 27.4844 102.271 27.4844C102.844 27.4844 103.346 27.3991 103.777 27.2287C104.213 27.0535 104.554 26.812 104.8 26.5043C105.046 26.1918 105.171 25.8272 105.176 25.4105C105.171 25.0317 105.06 24.7192 104.842 24.473C104.625 24.2221 104.319 24.0137 103.926 23.848C103.538 23.6776 103.083 23.526 102.563 23.3935L100.908 22.9673C99.7098 22.6596 98.7629 22.1932 98.0669 21.5682C97.3756 20.9384 97.0299 20.1027 97.0299 19.0611C97.0299 18.2041 97.2619 17.4536 97.7259 16.8097C98.1947 16.1657 98.8315 15.6662 99.6365 15.3111C100.441 14.9512 101.353 14.7713 102.371 14.7713C103.403 14.7713 104.307 14.9512 105.084 15.3111C105.865 15.6662 106.478 16.161 106.923 16.7955C107.368 17.4252 107.598 18.1496 107.612 18.9688H105.077ZM114.805 29.7287C113.716 29.7287 112.781 29.4896 112 29.0114C111.223 28.5331 110.624 27.8726 110.203 27.0298C109.786 26.1823 109.578 25.2069 109.578 24.1037C109.578 22.9957 109.791 22.018 110.217 21.1705C110.643 20.3182 111.245 19.6553 112.021 19.1818C112.802 18.7036 113.726 18.4645 114.791 18.4645C115.676 18.4645 116.46 18.6278 117.142 18.9545C117.828 19.2765 118.375 19.7334 118.782 20.3253C119.19 20.9124 119.422 21.599 119.478 22.3849H117.021C116.922 21.8594 116.685 21.4214 116.311 21.071C115.941 20.7159 115.447 20.5384 114.826 20.5384C114.301 20.5384 113.839 20.6804 113.441 20.9645C113.044 21.2438 112.734 21.6463 112.511 22.1719C112.293 22.6974 112.184 23.3272 112.184 24.0611C112.184 24.8045 112.293 25.4437 112.511 25.9787C112.729 26.509 113.034 26.9186 113.427 27.2074C113.825 27.4915 114.291 27.6335 114.826 27.6335C115.205 27.6335 115.544 27.5625 115.842 27.4205C116.145 27.2737 116.398 27.063 116.602 26.7884C116.806 26.5137 116.945 26.1799 117.021 25.7869H119.478C119.417 26.5587 119.19 27.2429 118.797 27.8395C118.404 28.4313 117.869 28.8954 117.191 29.2315C116.514 29.563 115.719 29.7287 114.805 29.7287ZM121.59 29.5156V18.6065H124.082V20.4247H124.196C124.395 19.795 124.736 19.3097 125.219 18.9688C125.707 18.6231 126.263 18.4503 126.888 18.4503C127.03 18.4503 127.189 18.4574 127.364 18.4716C127.544 18.4811 127.693 18.4976 127.811 18.5213V20.8864C127.702 20.8485 127.529 20.8153 127.293 20.7869C127.061 20.7538 126.836 20.7372 126.618 20.7372C126.149 20.7372 125.728 20.839 125.354 21.0426C124.984 21.2415 124.693 21.5185 124.48 21.8736C124.267 22.2287 124.161 22.6383 124.161 23.1023V29.5156H121.59ZM129.519 29.5156V18.6065H132.09V29.5156H129.519ZM130.812 17.0582C130.405 17.0582 130.054 16.9233 129.761 16.6534C129.467 16.3788 129.32 16.0497 129.32 15.6662C129.32 15.2779 129.467 14.9489 129.761 14.679C130.054 14.4044 130.405 14.267 130.812 14.267C131.224 14.267 131.574 14.4044 131.863 14.679C132.157 14.9489 132.303 15.2779 132.303 15.6662C132.303 16.0497 132.157 16.3788 131.863 16.6534C131.574 16.9233 131.224 17.0582 130.812 17.0582ZM134.734 33.6065V18.6065H137.263V20.4105H137.412C137.544 20.1454 137.731 19.8636 137.973 19.5653C138.214 19.2623 138.541 19.0043 138.953 18.7912C139.365 18.5734 139.89 18.4645 140.53 18.4645C141.372 18.4645 142.132 18.6799 142.809 19.1108C143.491 19.5369 144.031 20.169 144.429 21.0071C144.831 21.8404 145.032 22.8632 145.032 24.0753C145.032 25.2732 144.836 26.2912 144.443 27.1293C144.05 27.9673 143.515 28.6065 142.838 29.0469C142.161 29.4872 141.394 29.7074 140.537 29.7074C139.912 29.7074 139.393 29.6032 138.981 29.3949C138.569 29.1866 138.238 28.9356 137.987 28.642C137.741 28.3437 137.549 28.062 137.412 27.7969H137.305V33.6065H134.734ZM137.255 24.0611C137.255 24.7666 137.355 25.3845 137.554 25.9148C137.757 26.4451 138.049 26.8594 138.427 27.1577C138.811 27.4512 139.275 27.598 139.819 27.598C140.388 27.598 140.863 27.4465 141.247 27.1435C141.63 26.8357 141.919 26.4167 142.113 25.8864C142.312 25.3513 142.412 24.7429 142.412 24.0611C142.412 23.384 142.315 22.7827 142.12 22.2571C141.926 21.7315 141.638 21.3196 141.254 21.0213C140.87 20.723 140.392 20.5739 139.819 20.5739C139.27 20.5739 138.804 20.7183 138.42 21.0071C138.037 21.2959 137.745 21.7008 137.547 22.2216C137.352 22.7424 137.255 23.3556 137.255 24.0611ZM152.682 18.6065V20.5952H146.41V18.6065H152.682ZM147.959 15.9929H150.53V26.2344C150.53 26.58 150.582 26.8452 150.686 27.0298C150.795 27.2098 150.937 27.3329 151.112 27.3991C151.287 27.4654 151.481 27.4986 151.694 27.4986C151.855 27.4986 152.002 27.4867 152.135 27.4631C152.272 27.4394 152.376 27.4181 152.447 27.3991L152.88 29.4091C152.743 29.4564 152.547 29.5085 152.291 29.5653C152.04 29.6222 151.732 29.6553 151.368 29.6648C150.724 29.6837 150.144 29.5866 149.628 29.3736C149.111 29.1558 148.702 28.8196 148.399 28.3651C148.101 27.9105 147.954 27.3423 147.959 26.6605V15.9929Z" fill="white"/>
<defs>
<clipPath id="clip0_0_1">
<rect width="43.6865" height="43.6865" fill="white" transform="translate(0.9375 0.671875)"/>
</clipPath>
</defs>
</svg>
