<svg width="175" height="33" viewBox="0 0 175 33" fill="none" xmlns="http://www.w3.org/2000/svg">
<path d="M23.0851 23.1967C23.1198 23.0364 23.1492 22.8815 23.1866 22.7426L23.3496 23.1299C23.6568 23.878 23.9614 24.618 24.7014 25.0374C24.6693 25.716 23.8091 25.9912 23.2267 25.9083C23.0985 25.6038 22.9195 25.2992 22.5454 25.4702C22.1634 25.6198 21.744 25.4435 21.8348 24.976C22.7244 24.9439 22.9221 23.9848 23.0851 23.1967ZM49.8326 9.15238C48.9831 9.15238 48.187 9.47831 47.5912 10.0661L45.1815 12.4357C44.5323 13.0769 44.1984 13.9638 44.2651 14.8748L44.2812 15.0244C44.3667 15.7244 44.6792 16.3549 45.1815 16.8464C45.5288 17.1884 45.9108 17.4075 46.3757 17.5571C46.4445 17.9307 46.4204 18.3155 46.3053 18.6775C46.1902 19.0395 45.9877 19.3676 45.7158 19.6329L45.5662 19.7798C44.6455 19.4759 43.8236 18.9299 43.1867 18.1989C42.5498 17.468 42.1213 16.5791 41.9462 15.6255L41.9195 15.4733L41.7966 15.5721C41.7165 15.6362 41.6363 15.7057 41.5615 15.7805L39.1518 18.1502C38.8589 18.4376 38.6262 18.7806 38.4674 19.1591C38.3086 19.5375 38.2268 19.9438 38.2268 20.3542C38.2268 20.7646 38.3086 21.1709 38.4674 21.5493C38.6262 21.9278 38.8589 22.2707 39.1518 22.5582C39.7689 23.1673 40.5811 23.4719 41.3959 23.4719C42.208 23.4719 43.0175 23.1673 43.6347 22.5609L46.0444 20.1886C46.4218 19.8196 46.6983 19.36 46.8475 18.8538C46.9968 18.3476 47.0138 17.8115 46.897 17.2968C46.7802 16.7821 46.5334 16.306 46.1803 15.9138C45.8271 15.5216 45.3793 15.2264 44.8796 15.0565C44.8112 14.6499 44.8425 14.2327 44.9709 13.8409C45.0994 13.449 45.3211 13.0943 45.6169 12.8071C46.545 13.1178 47.3735 13.6702 48.0173 14.4074C48.661 15.1446 49.0968 16.0399 49.2796 17.0014L49.3064 17.1537L49.4319 17.0548C49.5121 16.9907 49.5922 16.9212 49.667 16.8464L52.0768 14.4741C52.37 14.1868 52.6029 13.8439 52.7619 13.4654C52.921 13.087 53.0029 12.6806 53.0029 12.2701C53.0029 11.8596 52.921 11.4532 52.7619 11.0747C52.6029 10.6963 52.37 10.3534 52.0768 10.0661C51.479 9.47671 50.6721 9.14819 49.8326 9.15238Z" fill="white"/>
<path fill-rule="evenodd" clip-rule="evenodd" d="M48.5451 0.485352H17.0181C8.03104 0.485352 0.72168 7.67716 0.72168 16.5146C0.72168 25.3521 8.03104 32.5439 17.0155 32.5439H48.5424C57.5295 32.5439 64.8389 25.3521 64.8389 16.5146C64.8389 7.67716 57.5295 0.485352 48.5451 0.485352ZM32.994 25.6166C32.473 25.7235 31.888 25.7422 31.4926 25.3334C31.3724 25.6006 31.1293 25.5391 30.9022 25.483C30.8484 25.4684 30.794 25.456 30.7392 25.4456C30.7125 25.5124 30.6938 25.5739 30.6698 25.6407C29.7908 25.6968 29.1336 24.8152 28.7142 24.1499C28.3029 23.9412 27.8812 23.7539 27.4505 23.5889C26.991 23.4019 26.5288 23.2149 26.0907 22.9745C26.0811 23.1283 26.0776 23.2825 26.08 23.4366C26.0747 24.0885 26.0693 24.7804 25.4736 25.1758C25.4549 25.9639 26.1041 25.9559 26.7452 25.9506C27.2983 25.9425 27.8406 25.9372 27.9394 26.4421C27.8951 26.4471 27.8505 26.4498 27.8058 26.4501C27.683 26.4501 27.5601 26.4501 27.4666 26.541C27.154 26.8375 26.82 26.7093 26.4727 26.5757C26.1522 26.4528 25.8236 26.3246 25.4923 26.5223C25.2502 26.644 25.0164 26.7814 24.7923 26.9337C24.3688 27.2521 23.8578 27.4329 23.3283 27.452C23.2642 27.3558 23.2909 27.2944 23.3444 27.2382C23.3858 27.1908 23.4241 27.1409 23.4592 27.0886C23.51 27.0138 23.5527 26.9364 23.5955 26.8642C23.7398 26.6104 23.8707 26.3834 24.242 26.2765C23.7478 26.199 23.323 26.4234 22.9062 26.6425L22.8955 26.6478C22.8379 26.6786 22.78 26.7089 22.7219 26.7387C22.4627 26.8455 22.3105 26.7627 22.1555 26.6772C21.9365 26.557 21.7067 26.4314 21.151 26.7841C21.0442 26.6986 21.0976 26.6211 21.1564 26.5543C21.3995 26.2631 21.7174 26.2204 22.078 26.2364C21.1403 25.7208 20.4644 26.0868 19.9141 26.3834C19.4279 26.6452 19.0405 26.8535 18.6558 26.3513C18.4821 26.3967 18.3833 26.5196 18.2871 26.6398C18.247 26.6933 18.207 26.7413 18.1616 26.7868C18.0681 26.6826 18.0894 26.565 18.1135 26.4448L18.1268 26.3753C18.1312 26.3488 18.1338 26.322 18.1348 26.2952L18.0627 26.2685C17.9211 26.2097 17.7822 26.1509 17.8223 25.9372C17.5097 25.8303 17.288 26.0174 17.0582 26.1883C16.9139 26.0788 17.0315 25.9345 17.1437 25.801C17.1918 25.7491 17.2323 25.6906 17.2639 25.6273C17.3654 25.4537 17.5391 25.4483 17.7074 25.443C17.8517 25.4403 17.9959 25.435 18.0948 25.3308C18.4501 25.1304 18.8882 25.2346 19.329 25.3388C19.6523 25.4136 19.9755 25.4911 20.2747 25.451C20.8171 25.5178 21.4876 24.9701 21.2151 24.4224C20.7182 23.8 20.7236 23.0119 20.7262 22.2505V21.8684C20.6835 21.5799 20.2667 21.246 19.85 20.912C19.5294 20.6582 19.2088 20.4018 19.0539 20.164C18.6264 19.6911 18.2925 19.1435 17.9612 18.6011L17.9211 18.537C17.3547 17.4577 17.1277 16.2395 16.9006 15.0239C16.6254 13.5653 16.3529 12.1119 15.4953 10.9097C14.7847 11.2944 13.8604 11.1101 13.2486 10.5945C12.928 10.8804 12.9013 11.2544 12.8799 11.6524L12.8772 11.6898C12.0838 10.9097 12.1826 9.43504 12.8158 8.56412C13.0749 8.22216 13.3848 7.94165 13.7295 7.69319C13.8096 7.63709 13.8363 7.58099 13.8336 7.4955C14.4615 4.71708 18.7386 5.25407 20.0904 7.22033C20.5366 7.77067 20.8411 8.40115 21.1457 9.03164C21.5117 9.78769 21.875 10.5437 22.4815 11.1555C23.0692 11.7887 23.689 12.3924 24.3088 12.9962C25.2679 13.9313 26.227 14.8636 27.0658 15.9055C28.3749 17.4737 29.3073 19.3144 30.1221 21.1685C30.2557 21.4143 30.3358 21.6841 30.416 21.9513C30.5335 22.352 30.6537 22.75 30.9503 23.0653C31.0197 23.1588 31.1747 23.3004 31.3483 23.4607C31.7651 23.8427 32.3021 24.3369 32.1204 24.5533C32.1444 24.6041 32.1925 24.6602 32.254 24.7136C32.3395 24.7884 32.4517 24.8686 32.5639 24.9487C32.8898 25.1812 33.2344 25.4243 32.994 25.6166ZM53.7733 16.146L51.3636 18.5156C50.7224 19.1488 49.929 19.619 49.0687 19.8781L49.0233 19.8915L49.0073 19.9316C48.7287 20.6573 48.2968 21.3143 47.741 21.8577L45.3312 24.2301C44.2813 25.264 42.8841 25.833 41.3933 25.833C39.9053 25.833 38.5081 25.264 37.4555 24.2301C36.9401 23.7251 36.5307 23.1224 36.2512 22.4573C35.9717 21.7921 35.8277 21.0778 35.8277 20.3563C35.8277 19.6348 35.9717 18.9206 36.2512 18.2554C36.5307 17.5902 36.9401 16.9875 37.4555 16.4826L39.8652 14.1103C40.5117 13.4744 41.2838 13.0176 42.1601 12.7531L42.2028 12.7424L42.2189 12.6997C42.4994 11.973 42.9268 11.3212 43.4878 10.7655L45.8976 8.39581C46.9475 7.36192 48.3474 6.79288 49.8354 6.79288C51.3262 6.79288 52.7207 7.36192 53.7733 8.39581C54.8259 9.4297 55.403 10.8055 55.403 12.2696C55.403 13.7362 54.8259 15.1121 53.7733 16.1433V16.146Z" fill="white"/>
<path d="M72.5157 23.5146V8.96919H75.1507V21.3058H81.5569V23.5146H72.5157ZM86.8694 23.7348C86.1781 23.7348 85.5555 23.6117 85.0015 23.3655C84.4523 23.1146 84.0167 22.7452 83.6947 22.2575C83.3775 21.7699 83.2188 21.1685 83.2188 20.4536C83.2188 19.838 83.3325 19.329 83.5597 18.9266C83.787 18.5241 84.0972 18.2021 84.4901 17.9607C84.8831 17.7192 85.3258 17.5369 85.8183 17.4138C86.3154 17.286 86.8292 17.1936 87.3595 17.1368C87.9987 17.0705 88.5171 17.0113 88.9149 16.9593C89.3126 16.9024 89.6014 16.8172 89.7813 16.7036C89.966 16.5852 90.0583 16.4029 90.0583 16.1567V16.1141C90.0583 15.579 89.8997 15.1647 89.5825 14.8712C89.2652 14.5776 88.8083 14.4308 88.2117 14.4308C87.582 14.4308 87.0825 14.5682 86.7132 14.8428C86.3486 15.1174 86.1024 15.4417 85.9745 15.8158L83.574 15.4749C83.7633 14.812 84.0758 14.258 84.5115 13.8129C84.9471 13.3631 85.4797 13.027 86.1095 12.8044C86.7392 12.5771 87.4352 12.4635 88.1975 12.4635C88.7231 12.4635 89.2463 12.5251 89.7671 12.6482C90.288 12.7713 90.7638 12.9749 91.1947 13.259C91.6256 13.5383 91.9712 13.9195 92.2316 14.4024C92.4968 14.8854 92.6294 15.4891 92.6294 16.2135V23.5146H90.1578V22.0161H90.0725C89.9163 22.3191 89.6961 22.6032 89.412 22.8683C89.1327 23.1288 88.7799 23.3395 88.3538 23.5004C87.9324 23.6567 87.4376 23.7348 86.8694 23.7348ZM87.537 21.8456C88.0531 21.8456 88.5006 21.7438 88.8794 21.5402C89.2581 21.3319 89.5493 21.0573 89.7529 20.7164C89.9613 20.3754 90.0654 20.0038 90.0654 19.6013V18.3158C89.9849 18.3821 89.8476 18.4436 89.6535 18.5004C89.4641 18.5573 89.251 18.607 89.0143 18.6496C88.7776 18.6922 88.5432 18.7301 88.3112 18.7632C88.0792 18.7964 87.8779 18.8248 87.7075 18.8485C87.324 18.9005 86.9807 18.9858 86.6776 19.1041C86.3746 19.2225 86.1355 19.3882 85.9603 19.6013C85.7851 19.8096 85.6975 20.0795 85.6975 20.411C85.6975 20.8844 85.8704 21.2419 86.216 21.4834C86.5616 21.7249 87.002 21.8456 87.537 21.8456ZM97.7856 17.1226V23.5146H95.2146V12.6056H97.672V14.4593H97.7998C98.0508 13.8485 98.4508 13.3631 99.0001 13.0033C99.5541 12.6434 100.238 12.4635 101.053 12.4635C101.805 12.4635 102.461 12.6245 103.02 12.9465C103.583 13.2684 104.019 13.7348 104.327 14.3456C104.639 14.9564 104.793 15.6974 104.788 16.5686V23.5146H102.217V16.9664C102.217 16.2372 102.028 15.6666 101.649 15.2547C101.275 14.8428 100.757 14.6368 100.094 14.6368C99.644 14.6368 99.2439 14.7362 98.8936 14.9351C98.5479 15.1292 98.2757 15.411 98.0768 15.7803C97.8827 16.1496 97.7856 16.597 97.7856 17.1226ZM112.146 27.8328C111.223 27.8328 110.43 27.7074 109.767 27.4564C109.104 27.2102 108.572 26.8788 108.169 26.4621C107.767 26.0454 107.487 25.5838 107.331 25.0771L109.646 24.5161C109.751 24.7291 109.902 24.9398 110.101 25.1482C110.3 25.3612 110.567 25.5364 110.903 25.6737C111.244 25.8158 111.673 25.8868 112.189 25.8868C112.918 25.8868 113.522 25.7093 114 25.3541C114.478 25.0038 114.717 24.4261 114.717 23.6212V21.5544H114.59C114.457 21.8196 114.263 22.0918 114.007 22.3712C113.756 22.6505 113.422 22.8849 113.006 23.0743C112.594 23.2637 112.075 23.3584 111.45 23.3584C110.612 23.3584 109.852 23.1619 109.171 22.7689C108.493 22.3712 107.954 21.7793 107.551 20.9933C107.153 20.2026 106.955 19.213 106.955 18.0246C106.955 16.8267 107.153 15.8158 107.551 14.9919C107.954 14.1633 108.496 13.536 109.178 13.1098C109.859 12.6789 110.619 12.4635 111.457 12.4635C112.097 12.4635 112.622 12.5724 113.034 12.7902C113.451 13.0033 113.782 13.2613 114.028 13.5644C114.275 13.8627 114.462 14.1444 114.59 14.4095H114.732V12.6056H117.267V23.6922C117.267 24.625 117.045 25.3968 116.6 26.0075C116.154 26.6183 115.546 27.0753 114.774 27.3783C114.002 27.6813 113.127 27.8328 112.146 27.8328ZM112.168 21.3414C112.712 21.3414 113.176 21.2088 113.56 20.9436C113.943 20.6785 114.234 20.2973 114.433 19.8002C114.632 19.303 114.732 18.7064 114.732 18.0104C114.732 17.3238 114.632 16.7225 114.433 16.2064C114.239 15.6903 113.95 15.2902 113.567 15.0061C113.188 14.7173 112.722 14.5729 112.168 14.5729C111.595 14.5729 111.117 14.722 110.733 15.0203C110.35 15.3186 110.061 15.7282 109.867 16.249C109.672 16.7651 109.575 17.3522 109.575 18.0104C109.575 18.678 109.672 19.2628 109.867 19.7646C110.065 20.2618 110.357 20.6501 110.74 20.9294C111.128 21.204 111.604 21.3414 112.168 21.3414ZM132.466 13.8769H129.81C129.734 13.4413 129.594 13.0554 129.391 12.7192C129.187 12.3783 128.934 12.0895 128.631 11.8527C128.328 11.616 127.982 11.4384 127.594 11.32C127.21 11.1969 126.796 11.1354 126.351 11.1354C125.56 11.1354 124.859 11.3343 124.249 11.732C123.638 12.125 123.16 12.7026 122.814 13.4649C122.468 14.2225 122.296 15.1482 122.296 16.2419C122.296 17.3546 122.468 18.2921 122.814 19.0544C123.164 19.812 123.643 20.3849 124.249 20.7732C124.859 21.1567 125.558 21.3485 126.344 21.3485C126.779 21.3485 127.187 21.2916 127.565 21.178C127.949 21.0596 128.292 20.8868 128.595 20.6595C128.903 20.4323 129.161 20.1529 129.369 19.8215C129.582 19.49 129.729 19.1112 129.81 18.6851L132.466 18.6993C132.367 19.3906 132.151 20.0393 131.82 20.6453C131.493 21.2514 131.064 21.7864 130.534 22.2504C130.004 22.7097 129.384 23.0696 128.673 23.33C127.963 23.5857 127.175 23.7135 126.308 23.7135C125.03 23.7135 123.889 23.4176 122.885 22.8257C121.881 22.2339 121.091 21.3792 120.513 20.2618C119.935 19.1444 119.646 17.8044 119.646 16.2419C119.646 14.6747 119.938 13.3347 120.52 12.222C121.102 11.1046 121.895 10.25 122.899 9.65811C123.903 9.06626 125.039 8.77033 126.308 8.77033C127.118 8.77033 127.871 8.88397 128.567 9.11124C129.263 9.33851 129.883 9.67232 130.428 10.1127C130.972 10.5483 131.42 11.0833 131.77 11.7178C132.125 12.3475 132.357 13.0672 132.466 13.8769ZM137.336 17.1226V23.5146H134.765V8.96919H137.28V14.4593H137.407C137.663 13.8437 138.058 13.3584 138.593 13.0033C139.133 12.6434 139.82 12.4635 140.653 12.4635C141.411 12.4635 142.071 12.6221 142.635 12.9394C143.198 13.2566 143.634 13.7206 143.941 14.3314C144.254 14.9422 144.41 15.6879 144.41 16.5686V23.5146H141.839V16.9664C141.839 16.2325 141.65 15.6619 141.271 15.2547C140.897 14.8428 140.371 14.6368 139.694 14.6368C139.24 14.6368 138.833 14.7362 138.473 14.9351C138.118 15.1292 137.838 15.411 137.635 15.7803C137.436 16.1496 137.336 16.597 137.336 17.1226ZM150.17 23.7348C149.479 23.7348 148.856 23.6117 148.302 23.3655C147.753 23.1146 147.317 22.7452 146.995 22.2575C146.678 21.7699 146.52 21.1685 146.52 20.4536C146.52 19.838 146.633 19.329 146.861 18.9266C147.088 18.5241 147.398 18.2021 147.791 17.9607C148.184 17.7192 148.627 17.5369 149.119 17.4138C149.616 17.286 150.13 17.1936 150.66 17.1368C151.299 17.0705 151.818 17.0113 152.216 16.9593C152.613 16.9024 152.902 16.8172 153.082 16.7036C153.267 16.5852 153.359 16.4029 153.359 16.1567V16.1141C153.359 15.579 153.2 15.1647 152.883 14.8712C152.566 14.5776 152.109 14.4308 151.513 14.4308C150.883 14.4308 150.383 14.5682 150.014 14.8428C149.649 15.1174 149.403 15.4417 149.275 15.8158L146.875 15.4749C147.064 14.812 147.377 14.258 147.812 13.8129C148.248 13.3631 148.781 13.027 149.41 12.8044C150.04 12.5771 150.736 12.4635 151.498 12.4635C152.024 12.4635 152.547 12.5251 153.068 12.6482C153.589 12.7713 154.065 12.9749 154.495 13.259C154.926 13.5383 155.272 13.9195 155.532 14.4024C155.798 14.8854 155.93 15.4891 155.93 16.2135V23.5146H153.459V22.0161H153.373C153.217 22.3191 152.997 22.6032 152.713 22.8683C152.433 23.1288 152.081 23.3395 151.655 23.5004C151.233 23.6567 150.738 23.7348 150.17 23.7348ZM150.838 21.8456C151.354 21.8456 151.801 21.7438 152.18 21.5402C152.559 21.3319 152.85 21.0573 153.054 20.7164C153.262 20.3754 153.366 20.0038 153.366 19.6013V18.3158C153.286 18.3821 153.148 18.4436 152.954 18.5004C152.765 18.5573 152.552 18.607 152.315 18.6496C152.078 18.6922 151.844 18.7301 151.612 18.7632C151.38 18.7964 151.179 18.8248 151.008 18.8485C150.625 18.9005 150.281 18.9858 149.978 19.1041C149.675 19.2225 149.436 19.3882 149.261 19.6013C149.086 19.8096 148.998 20.0795 148.998 20.411C148.998 20.8844 149.171 21.2419 149.517 21.4834C149.862 21.7249 150.303 21.8456 150.838 21.8456ZM158.515 23.5146V12.6056H161.086V23.5146H158.515ZM159.808 11.0573C159.401 11.0573 159.05 10.9223 158.757 10.6524C158.463 10.3778 158.316 10.0487 158.316 9.66522C158.316 9.27696 158.463 8.94789 158.757 8.678C159.05 8.40338 159.401 8.26607 159.808 8.26607C160.22 8.26607 160.57 8.40338 160.859 8.678C161.153 8.94789 161.299 9.27696 161.299 9.66522C161.299 10.0487 161.153 10.3778 160.859 10.6524C160.57 10.9223 160.22 11.0573 159.808 11.0573ZM166.301 17.1226V23.5146H163.73V12.6056H166.188V14.4593H166.315C166.566 13.8485 166.966 13.3631 167.516 13.0033C168.07 12.6434 168.754 12.4635 169.568 12.4635C170.321 12.4635 170.977 12.6245 171.536 12.9465C172.099 13.2684 172.535 13.7348 172.842 14.3456C173.155 14.9564 173.309 15.6974 173.304 16.5686V23.5146H170.733V16.9664C170.733 16.2372 170.544 15.6666 170.165 15.2547C169.791 14.8428 169.272 14.6368 168.609 14.6368C168.16 14.6368 167.76 14.7362 167.409 14.9351C167.064 15.1292 166.791 15.411 166.592 15.7803C166.398 16.1496 166.301 16.597 166.301 17.1226Z" fill="white"/>
</svg>
