<svg width="177" height="47" viewBox="0 0 177 47" fill="none" xmlns="http://www.w3.org/2000/svg">
<path d="M25.5126 33.2189C21.549 34.9696 17.2556 34.2515 15.6035 33.6736C15.6035 34.0715 15.5845 35.2974 15.5125 37.0462C15.4405 38.7968 14.8835 39.9014 14.6126 40.2368C14.6429 41.33 14.6675 43.7173 14.5235 44.5187C14.3854 45.1671 14.0737 45.7656 13.6217 46.2505H11.1889C11.4049 45.1573 12.2404 44.4581 12.6307 44.2459C12.8467 41.9856 12.4223 40.0227 12.1798 39.3254C11.9411 40.1762 11.3518 42.1485 10.9198 43.2436C10.5661 44.1134 10.1128 44.9393 9.56895 45.7048H7.76711C7.67617 44.6097 8.27867 44.2459 8.66708 44.2459C8.84708 43.9106 9.27906 42.8609 9.56895 41.3281C9.85694 39.7991 9.44769 36.9249 9.20896 35.6801V31.7619C6.32526 30.2121 5.2453 28.6622 4.52343 26.9305C3.94745 25.5474 4.10281 23.4386 4.25439 22.5576C4.0725 22.2241 3.54767 21.3734 3.35252 20.1892C3.08348 18.5485 3.23316 17.3643 3.35252 16.7258C3.17253 16.5439 2.81254 15.6136 2.81254 13.3533C2.81254 11.0948 3.47378 9.92201 3.80345 9.61697V8.61469C2.5416 8.52375 1.28164 7.97808 0.559773 7.24863C-0.160203 6.51918 0.37978 5.42595 0.830712 5.06218C1.28164 4.6965 1.73068 4.96934 2.36161 4.78745C2.99253 4.60556 3.53252 4.42367 3.80156 3.87801C4.02134 3.43655 3.59504 1.62713 3.35442 0.77832C4.43438 0.92421 5.12594 1.87155 5.33624 2.32816V0.77832C6.68715 1.41683 9.11991 2.96477 9.93083 6.33729C10.5788 9.03531 11.0411 14.6909 11.1908 17.1805C14.6448 17.2108 19.029 16.6879 22.9927 17.5462C26.5945 18.3268 28.2163 19.9145 30.1072 19.9145C32 19.9145 33.0818 18.8213 34.4309 19.7326C35.7836 20.644 36.5036 23.1961 36.3236 25.1097C36.1796 26.6406 35.003 27.1446 34.4327 27.2052C33.7128 29.6115 34.4327 31.9135 34.8818 32.7642V36.2258C35.0921 36.5289 35.5127 37.4668 35.5127 38.7779C35.5127 40.0909 35.0921 40.9643 34.8818 41.2391C35.2418 43.2796 34.7302 45.3695 34.4309 46.1595H32C32.288 45.4301 32.7806 45.2482 32.9909 45.2482C33.4229 42.9879 33.1103 40.9037 32.9 40.1458C31.532 39.3425 30.6491 37.9291 30.3781 37.3209C30.4085 37.8362 30.3232 39.2705 29.7472 40.8734C29.1712 42.4782 28.3073 43.4255 27.9473 43.6984V45.612H25.5145C25.5145 44.4468 26.1739 44.2156 26.5054 44.2459C26.926 43.488 27.9454 42.3323 27.9454 40.0549C27.9454 38.1318 26.5945 37.228 25.6036 35.4982C25.1337 34.6759 25.3629 33.6452 25.5145 33.2189H25.5126Z" fill="url(#paint0_linear_3605_9992)"/>
<path d="M49.0763 30.5146V15.9692H51.7112V28.3058H58.1175V30.5146H49.0763ZM60.4044 30.5146V15.9692H63.0393V28.3058H69.4456V30.5146H60.4044ZM74.1473 30.5146H71.3348L76.4555 15.9692H79.7084L84.8362 30.5146H82.0237L78.1388 18.9521H78.0251L74.1473 30.5146ZM74.2396 24.8115H81.9101V26.928H74.2396V24.8115ZM86.752 15.9692H89.9765L94.2947 26.509H94.4651L98.7833 15.9692H102.008V30.5146H99.4793V20.5218H99.3444L95.3245 30.472H93.4353L89.4154 20.5004H89.2805V30.5146H86.752V15.9692ZM106.745 30.5146H103.932L109.053 15.9692H112.306L117.434 30.5146H114.621L110.736 18.9521H110.623L106.745 30.5146ZM106.837 24.8115H114.508V26.928H106.837V24.8115ZM126.946 15.9692V30.5146H124.311V15.9692H126.946ZM132.256 24.1226V30.5146H129.685V19.6056H132.143V21.4593H132.271C132.521 20.8485 132.922 20.3631 133.471 20.0033C134.025 19.6434 134.709 19.4635 135.523 19.4635C136.276 19.4635 136.932 19.6245 137.491 19.9465C138.054 20.2684 138.49 20.7348 138.797 21.3456C139.11 21.9564 139.264 22.6974 139.259 23.5686V30.5146H136.688V23.9664C136.688 23.2372 136.499 22.6666 136.12 22.2547C135.746 21.8428 135.227 21.6368 134.565 21.6368C134.115 21.6368 133.715 21.7362 133.364 21.9351C133.019 22.1292 132.746 22.411 132.547 22.7803C132.353 23.1496 132.256 23.597 132.256 24.1226ZM145.921 30.7064C145.064 30.7064 144.297 30.4862 143.62 30.0459C142.943 29.6056 142.408 28.9664 142.015 28.1283C141.622 27.2902 141.425 26.2722 141.425 25.0743C141.425 23.8622 141.624 22.8395 142.022 22.0061C142.424 21.1681 142.967 20.536 143.648 20.1098C144.33 19.6789 145.09 19.4635 145.928 19.4635C146.567 19.4635 147.093 19.5724 147.505 19.7902C147.917 20.0033 148.244 20.2613 148.485 20.5644C148.726 20.8627 148.914 21.1444 149.046 21.4095H149.153V15.9692H151.731V30.5146H149.202V28.7959H149.046C148.914 29.061 148.722 29.3428 148.471 29.6411C148.22 29.9346 147.888 30.1856 147.476 30.3939C147.065 30.6022 146.546 30.7064 145.921 30.7064ZM146.638 28.597C147.183 28.597 147.647 28.4503 148.03 28.1567C148.414 27.8584 148.705 27.4441 148.904 26.9138C149.103 26.3835 149.202 25.7656 149.202 25.0601C149.202 24.3546 149.103 23.7414 148.904 23.2206C148.71 22.6998 148.421 22.295 148.038 22.0061C147.659 21.7173 147.192 21.5729 146.638 21.5729C146.065 21.5729 145.587 21.722 145.204 22.0203C144.82 22.3186 144.531 22.7306 144.337 23.2561C144.143 23.7817 144.046 24.383 144.046 25.0601C144.046 25.7419 144.143 26.3503 144.337 26.8854C144.536 27.4157 144.827 27.8347 145.211 28.1425C145.599 28.4455 146.075 28.597 146.638 28.597ZM159.3 30.7277C158.206 30.7277 157.262 30.5004 156.466 30.0459C155.675 29.5866 155.067 28.9379 154.641 28.0999C154.215 27.2571 154.002 26.2651 154.002 25.124C154.002 24.0019 154.215 23.017 154.641 22.1695C155.072 21.3172 155.673 20.6543 156.445 20.1808C157.217 19.7026 158.123 19.4635 159.165 19.4635C159.837 19.4635 160.472 19.5724 161.068 19.7902C161.67 20.0033 162.2 20.3347 162.659 20.7845C163.123 21.2343 163.488 21.8073 163.753 22.5033C164.018 23.1946 164.151 24.0184 164.151 24.9749V25.7632H155.209V24.0303H161.686C161.682 23.5378 161.575 23.0999 161.367 22.7164C161.158 22.3281 160.867 22.0227 160.493 21.8002C160.124 21.5776 159.693 21.4664 159.201 21.4664C158.675 21.4664 158.213 21.5942 157.816 21.8499C157.418 22.1008 157.108 22.4323 156.885 22.8442C156.667 23.2514 156.556 23.6988 156.551 24.1865V25.6993C156.551 26.3338 156.667 26.8783 156.899 27.3328C157.131 27.7826 157.456 28.1283 157.872 28.3698C158.289 28.6065 158.777 28.7249 159.335 28.7249C159.71 28.7249 160.048 28.6728 160.351 28.5686C160.654 28.4597 160.917 28.3011 161.139 28.0928C161.362 27.8844 161.53 27.6264 161.644 27.3186L164.044 27.5885C163.893 28.223 163.604 28.777 163.178 29.2504C162.756 29.7192 162.217 30.0838 161.559 30.3442C160.9 30.5999 160.148 30.7277 159.3 30.7277ZM168.194 19.6056L170.396 23.6325L172.633 19.6056H175.353L172.065 25.0601L175.41 30.5146H172.704L170.396 26.5871L168.109 30.5146H165.381L168.705 25.0601L165.467 19.6056H168.194Z" fill="white"/>
<defs>
<linearGradient id="paint0_linear_3605_9992" x1="3.09106" y1="4.60556" x2="42.1062" y2="37.3019" gradientUnits="userSpaceOnUse">
<stop offset="0.062" stop-color="#F6DCD9"/>
<stop offset="0.326" stop-color="#FFA5EA"/>
<stop offset="0.589" stop-color="#45DFF8"/>
<stop offset="1" stop-color="#BC8DEB"/>
</linearGradient>
</defs>
</svg>
