<svg width="65" height="64" viewBox="0 0 65 64" fill="none" xmlns="http://www.w3.org/2000/svg">
<circle cx="32.39" cy="31.9435" r="31.6361" fill="white"/>
<path d="M38.3843 39.9903C35.0978 41.4419 31.5379 40.8465 30.168 40.3673C30.168 40.6972 30.1522 41.7137 30.0925 43.1637C30.0328 44.6153 29.571 45.5312 29.3463 45.8093C29.3715 46.7158 29.3919 48.6952 29.2725 49.3598C29.158 49.8973 28.8995 50.3936 28.5247 50.7957H26.5075C26.6866 49.8892 27.3794 49.3095 27.7031 49.1335C27.8821 47.2593 27.5302 45.6318 27.3292 45.0536C27.1312 45.759 26.6426 47.3944 26.2844 48.3025C25.9911 49.0237 25.6152 49.7085 25.1643 50.3432H23.6703C23.5949 49.4352 24.0945 49.1335 24.4165 49.1335C24.5658 48.8555 24.9239 47.9851 25.1643 46.7142C25.4031 45.4464 25.0638 43.0632 24.8658 42.031V38.7822C22.4747 37.4971 21.5793 36.212 20.9807 34.7761C20.5031 33.6293 20.632 31.8808 20.7576 31.1502C20.6068 30.8737 20.1717 30.1684 20.0098 29.1865C19.7868 27.826 19.9109 26.8441 20.0098 26.3147C19.8606 26.1639 19.5621 25.3925 19.5621 23.5183C19.5621 21.6457 20.1104 20.6732 20.3837 20.4203V19.5892C19.3375 19.5138 18.2927 19.0614 17.6942 18.4565C17.0972 17.8517 17.5449 16.9452 17.9188 16.6436C18.2927 16.3404 18.6651 16.5666 19.1882 16.4158C19.7114 16.265 20.1591 16.1142 20.3822 15.6617C20.5644 15.2957 20.2109 13.7954 20.0114 13.0916C20.9069 13.2125 21.4803 13.998 21.6547 14.3766V13.0916C22.7748 13.621 24.792 14.9045 25.4644 17.7009C26.0017 19.938 26.385 24.6274 26.5091 26.6917C29.373 26.7169 33.0083 26.2833 36.2949 26.9949C39.2814 27.6422 40.6261 28.9587 42.194 28.9587C43.7634 28.9587 44.6605 28.0522 45.779 28.8079C46.9007 29.5635 47.4977 31.6797 47.3485 33.2664C47.2291 34.5358 46.2535 34.9536 45.7806 35.0039C45.1836 36.9991 45.7806 38.9079 46.1529 39.6132V42.4835C46.3273 42.7348 46.6761 43.5125 46.6761 44.5996C46.6761 45.6883 46.3273 46.4126 46.1529 46.6403C46.4514 48.3323 46.0272 50.0651 45.779 50.7202H43.7634C44.0022 50.1154 44.4107 49.9646 44.5851 49.9646C44.9433 48.0904 44.684 46.3623 44.5097 45.7339C43.3754 45.0678 42.6433 43.8958 42.4186 43.3915C42.4438 43.8188 42.3731 45.0081 41.8955 46.3371C41.4179 47.6678 40.7015 48.4533 40.403 48.6795V50.2662H38.3859C38.3859 49.3001 38.9326 49.1084 39.2075 49.1335C39.5563 48.5051 40.4015 47.5468 40.4015 45.6585C40.4015 44.0639 39.2814 43.3145 38.4597 41.8802C38.0701 41.1984 38.2602 40.3438 38.3859 39.9903H38.3843Z" fill="url(#paint0_linear_4387_5072)"/>
<defs>
<linearGradient id="paint0_linear_4387_5072" x1="19.793" y1="16.265" x2="52.1432" y2="43.3758" gradientUnits="userSpaceOnUse">
<stop offset="0.062" stop-color="#F6DCD9"/>
<stop offset="0.326" stop-color="#FFA5EA"/>
<stop offset="0.589" stop-color="#45DFF8"/>
<stop offset="1" stop-color="#BC8DEB"/>
</linearGradient>
</defs>
</svg>
