<svg width="170" height="53" viewBox="0 0 170 53" fill="none" xmlns="http://www.w3.org/2000/svg">
<g clip-path="url(#clip0_1822_5562)">
<path d="M25.5938 0.644531C18.8419 0.751717 12.406 3.52289 7.68832 8.35428C2.97062 13.1857 0.353463 19.6857 0.407057 26.4382C0.460652 33.1907 3.18066 39.6484 7.97445 44.4042C12.7682 49.1601 19.2473 51.8288 26 51.8288C32.7527 51.8288 39.2318 49.1601 44.0256 44.4042C48.8193 39.6484 51.5393 33.1907 51.5929 26.4382C51.6465 19.6857 49.0294 13.1857 44.3117 8.35428C39.594 3.52289 33.1581 0.751717 26.4062 0.644531H25.5938ZM25.5938 6.33203C20.3506 6.43906 15.3614 8.6108 11.7104 12.3754C8.05928 16.14 6.04127 21.1933 6.09479 26.4373C6.1483 31.6813 8.26902 36.6923 11.9962 40.3816C15.7233 44.0709 20.7557 46.1404 26 46.1404C31.2443 46.1404 36.2767 44.0709 40.0038 40.3816C43.731 36.6923 45.8517 31.6813 45.9052 26.4373C45.9587 21.1933 43.9407 16.14 40.2896 12.3754C36.6386 8.6108 31.6494 6.43906 26.4062 6.33203H25.5938ZM25.5938 12.0195C21.8594 12.1263 18.3171 13.6984 15.7327 16.3961C13.1482 19.0937 11.7293 22.7001 11.7827 26.4356C11.8361 30.1711 13.3575 33.7355 16.0179 36.3582C18.6784 38.9809 22.2641 40.4512 26 40.4512C29.7359 40.4512 33.3216 38.9809 35.9821 36.3582C38.6425 33.7355 40.1639 30.1711 40.2173 26.4356C40.2707 22.7001 38.8518 19.0937 36.2673 16.3961C33.6829 13.6984 30.1406 12.1263 26.4062 12.0195H25.5938ZM25.5938 17.707C23.3688 17.8131 21.2736 18.7851 19.7559 20.4154C18.2381 22.0457 17.4181 24.205 17.4712 26.4318C17.5242 28.6586 18.4461 30.7764 20.0398 32.3325C21.6335 33.8887 23.7726 34.7599 26 34.7599C28.2274 34.7599 30.3666 33.8887 31.9602 32.3325C33.5539 30.7764 34.4758 28.6586 34.5288 26.4318C34.5819 24.205 33.7619 22.0457 32.2441 20.4154C30.7264 18.7851 28.6312 17.8131 26.4062 17.707H25.5938ZM25.5938 23.3945C24.8822 23.4972 24.2359 23.8657 23.785 24.4257C23.3341 24.9857 23.1121 25.6957 23.1636 26.4128C23.215 27.1299 23.5362 27.8009 24.0625 28.2907C24.5888 28.7805 25.281 29.0529 26 29.0529C26.719 29.0529 27.4112 28.7805 27.9375 28.2907C28.4638 27.8009 28.785 27.1299 28.8364 26.4128C28.8879 25.6957 28.6659 24.9857 28.215 24.4257C27.7641 23.8657 27.1178 23.4972 26.4062 23.3945H25.5938ZM51.5938 26.2383H0.406251H51.5938ZM44.2812 7.95703L7.71875 44.5195L44.2812 7.95703ZM44.2812 44.5195L7.71875 7.95703L44.2812 44.5195ZM26 0.644531V51.832V0.644531Z" fill="white" fill-opacity="0.8"/>
<path d="M51.5938 26.2383H0.406251M44.2812 7.95703L7.71875 44.5195M44.2812 44.5195L7.71875 7.95703M26 0.644531V51.832M25.5938 0.644531C18.8419 0.751717 12.406 3.52289 7.68832 8.35428C2.97062 13.1857 0.353463 19.6857 0.407057 26.4382C0.460652 33.1907 3.18066 39.6484 7.97445 44.4042C12.7682 49.1601 19.2473 51.8288 26 51.8288C32.7527 51.8288 39.2318 49.1601 44.0256 44.4042C48.8193 39.6484 51.5393 33.1907 51.5929 26.4382C51.6465 19.6857 49.0294 13.1857 44.3117 8.35428C39.594 3.52289 33.1581 0.751717 26.4062 0.644531H25.5938ZM25.5938 6.33203C20.3506 6.43906 15.3614 8.6108 11.7104 12.3754C8.05928 16.14 6.04127 21.1933 6.09479 26.4373C6.1483 31.6813 8.26902 36.6923 11.9962 40.3816C15.7233 44.0709 20.7557 46.1404 26 46.1404C31.2443 46.1404 36.2767 44.0709 40.0038 40.3816C43.731 36.6923 45.8517 31.6813 45.9052 26.4373C45.9587 21.1933 43.9407 16.14 40.2896 12.3754C36.6386 8.6108 31.6494 6.43906 26.4062 6.33203H25.5938ZM25.5938 12.0195C21.8594 12.1263 18.3171 13.6984 15.7327 16.3961C13.1482 19.0937 11.7293 22.7001 11.7827 26.4356C11.8361 30.1711 13.3575 33.7355 16.0179 36.3582C18.6784 38.9809 22.2641 40.4512 26 40.4512C29.7359 40.4512 33.3216 38.9809 35.9821 36.3582C38.6425 33.7355 40.1639 30.1711 40.2173 26.4356C40.2707 22.7001 38.8518 19.0937 36.2673 16.3961C33.6829 13.6984 30.1406 12.1263 26.4062 12.0195H25.5938ZM25.5938 17.707C23.3688 17.8131 21.2736 18.7851 19.7559 20.4154C18.2381 22.0457 17.4181 24.205 17.4712 26.4318C17.5242 28.6586 18.4461 30.7764 20.0398 32.3325C21.6335 33.8887 23.7726 34.7599 26 34.7599C28.2274 34.7599 30.3666 33.8887 31.9602 32.3325C33.5539 30.7764 34.4758 28.6586 34.5288 26.4318C34.5819 24.205 33.7619 22.0457 32.2441 20.4154C30.7264 18.7851 28.6312 17.8131 26.4062 17.707H25.5938ZM25.5938 23.3945C24.8822 23.4972 24.2359 23.8657 23.785 24.4257C23.3341 24.9857 23.1121 25.6957 23.1636 26.4128C23.215 27.1299 23.5362 27.8009 24.0625 28.2907C24.5888 28.7805 25.281 29.0529 26 29.0529C26.719 29.0529 27.4112 28.7805 27.9375 28.2907C28.4638 27.8009 28.785 27.1299 28.8364 26.4128C28.8879 25.6957 28.6659 24.9857 28.215 24.4257C27.7641 23.8657 27.1178 23.4972 26.4062 23.3945H25.5938Z" stroke="#777777"/>
<path d="M20.3125 3.48828L12.1875 7.55078L39.8125 44.9258L43.875 40.8633L26 26.2383L20.3125 3.48828Z" fill="#FF6600" fill-opacity="0.8" stroke="#777777"/>
<path d="M6.90625 20.5508V31.9258L26 26.2383L6.90625 20.5508Z" fill="#FFCC00" fill-opacity="0.8" stroke="#777777"/>
<path d="M26 26.2383L28.4375 40.457H23.5625L26 26.2383Z" fill="#77FF77" fill-opacity="0.8" stroke="#777777"/>
<path d="M26 26.2383L31.2812 9.98828L34.9375 12.0195L26 26.2383Z" fill="#CCFF33" fill-opacity="0.8" stroke="#777777"/>
<path d="M26 26.2383L31.6875 23.8008L32.0938 25.4258L26 26.2383ZM26 26.2383L15.4375 31.5195L16.6562 33.1445L26 26.2383Z" fill="#0044FF" fill-opacity="0.8"/>
<path d="M26 26.2383L31.6875 23.8008L32.0938 25.4258L26 26.2383ZM26 26.2383L15.4375 31.5195L16.6562 33.1445L26 26.2383Z" stroke="#777777"/>
</g>
<path d="M66.9034 18.6928H70.1278L74.446 29.2326H74.6165L78.9347 18.6928H82.1591V33.2383H79.6307V23.2454H79.4957L75.4759 33.1957H73.5866L69.5668 23.2241H69.4318V33.2383H66.9034V18.6928ZM88.054 33.4585C87.3627 33.4585 86.7401 33.3353 86.1861 33.0891C85.6368 32.8382 85.2012 32.4689 84.8793 31.9812C84.562 31.4935 84.4034 30.8922 84.4034 30.1772C84.4034 29.5617 84.517 29.0527 84.7443 28.6502C84.9716 28.2478 85.2817 27.9258 85.6747 27.6843C86.0677 27.4428 86.5104 27.2605 87.0028 27.1374C87.5 27.0096 88.0137 26.9173 88.544 26.8604C89.1832 26.7942 89.7017 26.735 90.0994 26.6829C90.4972 26.6261 90.786 26.5408 90.9659 26.4272C91.1506 26.3088 91.2429 26.1265 91.2429 25.8803V25.8377C91.2429 25.3027 91.0843 24.8884 90.767 24.5948C90.4498 24.3013 89.9929 24.1545 89.3963 24.1545C88.7666 24.1545 88.267 24.2918 87.8977 24.5664C87.5331 24.841 87.2869 25.1654 87.1591 25.5394L84.7585 25.1985C84.9479 24.5356 85.2604 23.9817 85.696 23.5366C86.1316 23.0868 86.6643 22.7506 87.294 22.5281C87.9238 22.3008 88.6198 22.1871 89.3821 22.1871C89.9077 22.1871 90.4309 22.2487 90.9517 22.3718C91.4725 22.4949 91.9484 22.6985 92.3793 22.9826C92.8101 23.262 93.1558 23.6431 93.4162 24.1261C93.6813 24.609 93.8139 25.2127 93.8139 25.9371V33.2383H91.3423V31.7397H91.2571C91.1009 32.0427 90.8807 32.3268 90.5966 32.592C90.3172 32.8524 89.9645 33.0631 89.5384 33.2241C89.117 33.3803 88.6222 33.4585 88.054 33.4585ZM88.7216 31.5692C89.2377 31.5692 89.6851 31.4674 90.0639 31.2638C90.4427 31.0555 90.7339 30.7809 90.9375 30.44C91.1458 30.0991 91.25 29.7274 91.25 29.3249V28.0394C91.1695 28.1057 91.0322 28.1673 90.8381 28.2241C90.6487 28.2809 90.4356 28.3306 90.1989 28.3732C89.9621 28.4158 89.7277 28.4537 89.4957 28.4869C89.2637 28.52 89.0625 28.5484 88.892 28.5721C88.5085 28.6242 88.1652 28.7094 87.8622 28.8278C87.5592 28.9461 87.3201 29.1119 87.1449 29.3249C86.9697 29.5333 86.8821 29.8031 86.8821 30.1346C86.8821 30.6081 87.0549 30.9656 87.4006 31.207C87.7462 31.4485 88.1866 31.5692 88.7216 31.5692ZM101.847 22.3292V24.3178H95.5753V22.3292H101.847ZM97.1236 19.7156H99.6946V29.957C99.6946 30.3027 99.7467 30.5678 99.8509 30.7525C99.9598 30.9324 100.102 31.0555 100.277 31.1218C100.452 31.1881 100.646 31.2212 100.859 31.2212C101.02 31.2212 101.167 31.2094 101.3 31.1857C101.437 31.1621 101.541 31.1407 101.612 31.1218L102.045 33.1317C101.908 33.1791 101.712 33.2312 101.456 33.288C101.205 33.3448 100.897 33.378 100.533 33.3874C99.8887 33.4064 99.3087 33.3093 98.7926 33.0962C98.2765 32.8784 97.867 32.5423 97.5639 32.0877C97.2656 31.6332 97.1188 31.065 97.1236 30.3832V19.7156ZM103.997 37.3292V22.3292H106.525V24.1332H106.674C106.807 23.868 106.994 23.5863 107.235 23.288C107.477 22.985 107.804 22.7269 108.216 22.5138C108.627 22.296 109.153 22.1871 109.792 22.1871C110.635 22.1871 111.395 22.4026 112.072 22.8335C112.754 23.2596 113.294 23.8917 113.691 24.7298C114.094 25.5631 114.295 26.5858 114.295 27.7979C114.295 28.9959 114.099 30.0138 113.706 30.8519C113.313 31.69 112.778 32.3292 112.1 32.7695C111.423 33.2099 110.656 33.43 109.799 33.43C109.174 33.43 108.656 33.3259 108.244 33.1175C107.832 32.9092 107.501 32.6583 107.25 32.3647C107.003 32.0664 106.812 31.7847 106.674 31.5195H106.568V37.3292H103.997ZM106.518 27.7837C106.518 28.4892 106.618 29.1071 106.816 29.6374C107.02 30.1677 107.311 30.582 107.69 30.8803C108.074 31.1739 108.538 31.3207 109.082 31.3207C109.65 31.3207 110.126 31.1692 110.51 30.8661C110.893 30.5584 111.182 30.1393 111.376 29.609C111.575 29.074 111.674 28.4656 111.674 27.7837C111.674 27.1067 111.577 26.5053 111.383 25.9798C111.189 25.4542 110.9 25.0423 110.517 24.744C110.133 24.4457 109.655 24.2965 109.082 24.2965C108.533 24.2965 108.066 24.4409 107.683 24.7298C107.299 25.0186 107.008 25.4234 106.809 25.9442C106.615 26.4651 106.518 27.0782 106.518 27.7837ZM119.068 18.6928V33.2383H116.497V18.6928H119.068ZM126.47 33.4513C125.405 33.4513 124.482 33.217 123.7 32.7482C122.919 32.2795 122.313 31.6237 121.882 30.7809C121.456 29.9381 121.243 28.9532 121.243 27.8263C121.243 26.6995 121.456 25.7122 121.882 24.8647C122.313 24.0172 122.919 23.359 123.7 22.8903C124.482 22.4215 125.405 22.1871 126.47 22.1871C127.536 22.1871 128.459 22.4215 129.24 22.8903C130.021 23.359 130.625 24.0172 131.051 24.8647C131.482 25.7122 131.697 26.6995 131.697 27.8263C131.697 28.9532 131.482 29.9381 131.051 30.7809C130.625 31.6237 130.021 32.2795 129.24 32.7482C128.459 33.217 127.536 33.4513 126.47 33.4513ZM126.484 31.3917C127.062 31.3917 127.545 31.2331 127.933 30.9158C128.321 30.5939 128.61 30.163 128.8 29.6232C128.994 29.0835 129.091 28.4821 129.091 27.8192C129.091 27.1516 128.994 26.5479 128.8 26.0082C128.61 25.4637 128.321 25.0304 127.933 24.7085C127.545 24.3865 127.062 24.2255 126.484 24.2255C125.893 24.2255 125.4 24.3865 125.007 24.7085C124.619 25.0304 124.328 25.4637 124.134 26.0082C123.944 26.5479 123.849 27.1516 123.849 27.8192C123.849 28.4821 123.944 29.0835 124.134 29.6232C124.328 30.163 124.619 30.5939 125.007 30.9158C125.4 31.2331 125.893 31.3917 126.484 31.3917ZM139.327 22.3292V24.3178H133.056V22.3292H139.327ZM134.604 19.7156H137.175V29.957C137.175 30.3027 137.227 30.5678 137.331 30.7525C137.44 30.9324 137.582 31.0555 137.757 31.1218C137.933 31.1881 138.127 31.2212 138.34 31.2212C138.501 31.2212 138.648 31.2094 138.78 31.1857C138.917 31.1621 139.022 31.1407 139.093 31.1218L139.526 33.1317C139.389 33.1791 139.192 33.2312 138.936 33.288C138.685 33.3448 138.378 33.378 138.013 33.3874C137.369 33.4064 136.789 33.3093 136.273 33.0962C135.757 32.8784 135.347 32.5423 135.044 32.0877C134.746 31.6332 134.599 31.065 134.604 30.3832V19.7156ZM141.825 33.2383V18.6928H144.46V31.0295H150.866V33.2383H141.825ZM153.04 33.2383V22.3292H155.611V33.2383H153.04ZM154.332 20.7809C153.925 20.7809 153.575 20.646 153.281 20.3761C152.988 20.1014 152.841 19.7724 152.841 19.3888C152.841 19.0006 152.988 18.6715 153.281 18.4016C153.575 18.127 153.925 17.9897 154.332 17.9897C154.744 17.9897 155.095 18.127 155.384 18.4016C155.677 18.6715 155.824 19.0006 155.824 19.3888C155.824 19.7724 155.677 20.1014 155.384 20.3761C155.095 20.646 154.744 20.7809 154.332 20.7809ZM158.368 33.2383V18.6928H160.939V24.1332H161.046C161.178 23.868 161.365 23.5863 161.607 23.288C161.848 22.985 162.175 22.7269 162.587 22.5138C162.999 22.296 163.525 22.1871 164.164 22.1871C165.007 22.1871 165.766 22.4026 166.444 22.8335C167.125 23.2596 167.665 23.8917 168.063 24.7298C168.465 25.5631 168.667 26.5858 168.667 27.7979C168.667 28.9959 168.47 30.0138 168.077 30.8519C167.684 31.69 167.149 32.3292 166.472 32.7695C165.795 33.2099 165.028 33.43 164.171 33.43C163.546 33.43 163.027 33.3259 162.615 33.1175C162.203 32.9092 161.872 32.6583 161.621 32.3647C161.375 32.0664 161.183 31.7847 161.046 31.5195H160.897V33.2383H158.368ZM160.89 27.7837C160.89 28.4892 160.989 29.1071 161.188 29.6374C161.391 30.1677 161.683 30.582 162.061 30.8803C162.445 31.1739 162.909 31.3207 163.453 31.3207C164.022 31.3207 164.498 31.1692 164.881 30.8661C165.265 30.5584 165.553 30.1393 165.748 29.609C165.946 29.074 166.046 28.4656 166.046 27.7837C166.046 27.1067 165.949 26.5053 165.755 25.9798C165.56 25.4542 165.272 25.0423 164.888 24.744C164.505 24.4457 164.026 24.2965 163.453 24.2965C162.904 24.2965 162.438 24.4409 162.054 24.7298C161.671 25.0186 161.38 25.4234 161.181 25.9442C160.987 26.4651 160.89 27.0782 160.89 27.7837Z" fill="white"/>
<defs>
<clipPath id="clip0_1822_5562">
<rect width="52" height="52" fill="white" transform="translate(0 0.238281)"/>
</clipPath>
</defs>
</svg>
