<svg width="133" height="37" viewBox="0 0 133 37" fill="none" xmlns="http://www.w3.org/2000/svg">
<g clip-path="url(#clip0_0_1)">
<path d="M15.4306 0.0625H8.19849V7.23204H15.4306V0.0625Z" fill="#FFD800"/>
<path d="M44.3627 0.0625H37.1306V7.23204H44.3627V0.0625Z" fill="#FFD800"/>
<path d="M22.6627 7.23047H8.19849V14.4H22.6627V7.23047Z" fill="#FFAF00"/>
<path d="M44.3632 7.23047H29.8989V14.4H44.3632V7.23047Z" fill="#FFAF00"/>
<path d="M44.3634 14.4004H8.19849V21.5695H44.3634V14.4004Z" fill="#FF8205"/>
<path d="M15.4306 21.5723H8.19849V28.7418H15.4306V21.5723Z" fill="#FA500F"/>
<path d="M29.8969 21.5723H22.6648V28.7418H29.8969V21.5723Z" fill="#FA500F"/>
<path d="M44.3627 21.5723H37.1306V28.7418H44.3627V21.5723Z" fill="#FA500F"/>
<path d="M22.6675 28.7461H0.966797V35.9156H22.6675V28.7461Z" fill="#E10500"/>
<path d="M51.5996 28.7461H29.8989V35.9156H51.5996V28.7461Z" fill="#E10500"/>
</g>
<path d="M68.4676 12.8686H71.692L76.0102 23.4084H76.1807L80.4989 12.8686H83.7233V27.4141H81.1949V17.4212H81.0599L77.0401 27.3714H75.1509L71.131 17.3999H70.996V27.4141H68.4676V12.8686ZM86.479 27.4141V16.505H89.05V27.4141H86.479ZM87.7716 14.9567C87.3644 14.9567 87.014 14.8217 86.7205 14.5518C86.4269 14.2772 86.2801 13.9482 86.2801 13.5646C86.2801 13.1764 86.4269 12.8473 86.7205 12.5774C87.014 12.3028 87.3644 12.1655 87.7716 12.1655C88.1835 12.1655 88.5339 12.3028 88.8227 12.5774C89.1163 12.8473 89.2631 13.1764 89.2631 13.5646C89.2631 13.9482 89.1163 14.2772 88.8227 14.5518C88.5339 14.8217 88.1835 14.9567 87.7716 14.9567ZM100.316 19.3885L97.9722 19.6442C97.9059 19.4074 97.7899 19.1849 97.6242 18.9766C97.4632 18.7682 97.2454 18.6001 96.9708 18.4723C96.6962 18.3445 96.36 18.2805 95.9623 18.2805C95.4273 18.2805 94.9774 18.3965 94.6129 18.6286C94.253 18.8606 94.0755 19.1612 94.0802 19.5305C94.0755 19.8478 94.1915 20.1058 94.4282 20.3047C94.6697 20.5036 95.0674 20.6669 95.6214 20.7947L97.4822 21.1925C98.5144 21.415 99.2814 21.7678 99.7833 22.2507C100.29 22.7337 100.546 23.3658 100.55 24.147C100.546 24.8336 100.344 25.4396 99.9467 25.9652C99.5537 26.486 99.0068 26.8932 98.306 27.1868C97.6053 27.4804 96.8004 27.6271 95.8913 27.6271C94.556 27.6271 93.4812 27.3478 92.6668 26.7891C91.8524 26.2256 91.3671 25.442 91.2109 24.4382L93.718 24.1967C93.8316 24.6892 94.0731 25.0608 94.4424 25.3118C94.8117 25.5627 95.2923 25.6882 95.8842 25.6882C96.495 25.6882 96.985 25.5627 97.3543 25.3118C97.7284 25.0608 97.9154 24.7507 97.9154 24.3814C97.9154 24.0689 97.7947 23.8108 97.5532 23.6072C97.3165 23.4036 96.9471 23.2474 96.4452 23.1385L94.5845 22.7479C93.538 22.5301 92.7639 22.1631 92.262 21.647C91.7601 21.1262 91.5115 20.468 91.5163 19.6726C91.5115 19.0002 91.6938 18.4179 92.0631 17.9254C92.4372 17.4283 92.9557 17.0447 93.6185 16.7749C94.2862 16.5002 95.0556 16.3629 95.9268 16.3629C97.2052 16.3629 98.2113 16.6352 98.9452 17.1797C99.6839 17.7242 100.141 18.4605 100.316 19.3885ZM108.118 16.505V18.4936H101.847V16.505H108.118ZM103.395 13.8913H105.966V24.1328C105.966 24.4785 106.018 24.7436 106.122 24.9283C106.231 25.1082 106.373 25.2313 106.548 25.2976C106.723 25.3639 106.918 25.397 107.131 25.397C107.292 25.397 107.438 25.3852 107.571 25.3615C107.708 25.3378 107.812 25.3165 107.883 25.2976L108.317 27.3075C108.179 27.3549 107.983 27.407 107.727 27.4638C107.476 27.5206 107.168 27.5537 106.804 27.5632C106.16 27.5821 105.58 27.4851 105.064 27.272C104.548 27.0542 104.138 26.718 103.835 26.2635C103.537 25.8089 103.39 25.2408 103.395 24.5589V13.8913ZM110.268 27.4141V16.505H112.761V18.3232H112.875C113.073 17.6934 113.414 17.2081 113.897 16.8672C114.385 16.5215 114.941 16.3487 115.566 16.3487C115.708 16.3487 115.867 16.3558 116.042 16.37C116.222 16.3795 116.371 16.3961 116.49 16.4197V18.7848C116.381 18.7469 116.208 18.7138 115.971 18.6854C115.739 18.6522 115.514 18.6357 115.296 18.6357C114.828 18.6357 114.406 18.7375 114.032 18.9411C113.663 19.1399 113.372 19.4169 113.159 19.772C112.946 20.1271 112.839 20.5367 112.839 21.0007V27.4141H110.268ZM121.142 27.6342C120.45 27.6342 119.828 27.5111 119.274 27.2649C118.724 27.014 118.289 26.6446 117.967 26.157C117.65 25.6693 117.491 25.0679 117.491 24.353C117.491 23.7375 117.605 23.2285 117.832 22.826C118.059 22.4235 118.369 22.1016 118.762 21.8601C119.155 21.6186 119.598 21.4363 120.09 21.3132C120.588 21.1854 121.101 21.093 121.632 21.0362C122.271 20.9699 122.789 20.9107 123.187 20.8587C123.585 20.8018 123.874 20.7166 124.054 20.603C124.238 20.4846 124.331 20.3023 124.331 20.0561V20.0135C124.331 19.4785 124.172 19.0642 123.855 18.7706C123.537 18.477 123.081 18.3303 122.484 18.3303C121.854 18.3303 121.355 18.4676 120.985 18.7422C120.621 19.0168 120.375 19.3411 120.247 19.7152L117.846 19.3743C118.036 18.7114 118.348 18.1574 118.784 17.7124C119.219 17.2625 119.752 16.9264 120.382 16.7038C121.011 16.4766 121.707 16.3629 122.47 16.3629C122.995 16.3629 123.519 16.4245 124.039 16.5476C124.56 16.6707 125.036 16.8743 125.467 17.1584C125.898 17.4377 126.243 17.8189 126.504 18.3018C126.769 18.7848 126.902 19.3885 126.902 20.1129V27.4141H124.43V25.9155H124.345C124.188 26.2185 123.968 26.5026 123.684 26.7678C123.405 27.0282 123.052 27.2389 122.626 27.3999C122.205 27.5561 121.71 27.6342 121.142 27.6342ZM121.809 25.745C122.325 25.745 122.773 25.6432 123.152 25.4396C123.53 25.2313 123.822 24.9567 124.025 24.6158C124.233 24.2749 124.338 23.9032 124.338 23.5007V22.2152C124.257 22.2815 124.12 22.343 123.926 22.3999C123.736 22.4567 123.523 22.5064 123.287 22.549C123.05 22.5916 122.815 22.6295 122.583 22.6626C122.351 22.6958 122.15 22.7242 121.98 22.7479C121.596 22.8 121.253 22.8852 120.95 23.0036C120.647 23.1219 120.408 23.2876 120.233 23.5007C120.057 23.709 119.97 23.9789 119.97 24.3104C119.97 24.7839 120.143 25.1413 120.488 25.3828C120.834 25.6243 121.274 25.745 121.809 25.745ZM132.058 12.8686V27.4141H129.487V12.8686H132.058Z" fill="white"/>
<defs>
<clipPath id="clip0_0_1">
<rect width="51" height="36" fill="white" transform="translate(0.966797 0.0625)"/>
</clipPath>
</defs>
</svg>
