<svg width="183" height="47" viewBox="0 0 183 47" fill="none" xmlns="http://www.w3.org/2000/svg">
<path fill-rule="evenodd" clip-rule="evenodd" d="M20.4298 15.3066C21.0405 17.0735 21.4804 18.8773 21.625 20.7469C21.8047 23.0663 21.7225 25.3693 21.2335 27.6507C21.2202 27.7134 21.192 27.7724 21.1711 27.8333C21.0177 27.8337 20.8613 27.8147 20.7114 27.8379C19.4445 28.0369 18.1789 28.2432 16.9132 28.4483C15.6049 28.6602 14.2947 28.8638 12.9887 29.0902C12.5259 29.1702 11.9532 29.0746 11.7664 29.7147C11.761 29.7322 11.7077 29.7353 11.6769 29.7452L11.7401 25.9203L11.6758 16.6914L12.2854 16.5868C13.2824 16.4235 14.2795 16.258 15.2772 16.0993C16.4679 15.9102 17.6598 15.7264 18.8513 15.5418C19.3768 15.46 19.9031 15.385 20.4298 15.3066Z" fill="#439934"/>
<path fill-rule="evenodd" clip-rule="evenodd" d="M10.4192 40.8954C9.77607 40.3425 9.1105 39.8139 8.49402 39.2324C5.17684 36.1036 2.75051 32.4211 1.55561 27.9813C1.22644 26.7594 1.00686 25.5177 0.936464 24.2551C0.886994 23.3714 0.815451 22.4798 0.87786 21.6008C1.04416 19.2627 1.38208 16.9471 2.06782 14.6951L2.10549 14.6426C2.17208 14.7312 2.26798 14.8096 2.30185 14.9097C2.97122 16.8809 3.63565 18.8537 4.29665 20.8275C6.37365 27.0304 8.44798 33.2347 10.5284 39.436C10.5691 39.557 10.6745 39.6564 10.7503 39.7656L10.4192 40.8954Z" fill="#45A538"/>
<path fill-rule="evenodd" clip-rule="evenodd" d="M20.4293 15.3074C19.9027 15.3858 19.376 15.4607 18.8505 15.5418C17.659 15.7264 16.4671 15.9102 15.2764 16.0993C14.2786 16.258 13.2816 16.4235 12.2846 16.5868L11.675 16.6914L11.6704 16.2937C11.6502 15.9669 11.6156 15.6404 11.6118 15.3135C11.5855 13.2289 11.5692 11.1442 11.5433 9.05964C11.5273 7.75476 11.5033 6.45027 11.4767 5.14577C11.4603 4.33521 11.4428 3.52428 11.4063 2.71487C11.3865 2.27991 11.3165 1.84723 11.2879 1.41227C11.272 1.16226 11.294 0.910337 11.299 0.65918C11.6099 1.26158 11.9139 1.86854 12.2336 2.46637C12.7386 3.41164 13.543 4.10803 14.2672 4.86797C17.13 7.87121 19.1625 11.3631 20.4293 15.3074Z" fill="#46A037"/>
<path fill-rule="evenodd" clip-rule="evenodd" d="M11.6767 29.7452C11.7075 29.7353 11.7612 29.7322 11.7661 29.7147C11.953 29.0746 12.5257 29.1702 12.9884 29.0902C14.2945 28.8642 15.6047 28.6602 16.913 28.4483C18.1787 28.2432 19.4443 28.0369 20.7112 27.8379C20.8611 27.8143 21.0175 27.8337 21.1709 27.8333C20.9342 28.6781 20.7477 29.5412 20.4474 30.3628C20.1065 31.2947 19.694 32.2042 19.256 33.0958C18.6002 34.4257 17.7887 35.6729 16.8384 36.8111C16.1081 37.6894 15.2941 38.5011 14.4783 39.3029C14.0273 39.7462 13.4957 40.1073 13.001 40.5057L12.8728 40.4182L12.4108 40.0232L11.9328 38.9756C11.6063 37.7535 11.4282 36.4965 11.4023 35.2318L11.4111 35.0183L11.4762 34.0951C11.4979 33.78 11.5268 33.4653 11.5401 33.1495C11.5892 32.0147 11.6318 30.8799 11.6767 29.7452Z" fill="#409433"/>
<path fill-rule="evenodd" clip-rule="evenodd" d="M11.6756 29.7447C11.6307 30.8795 11.5881 32.0143 11.5398 33.1494C11.5265 33.4653 11.4976 33.78 11.4759 34.0951L11.1847 34.2051C10.5382 32.3016 9.89129 30.4183 9.25845 28.53C8.21196 25.4062 7.17803 22.2774 6.13306 19.1527C5.28905 16.6307 4.43918 14.1106 3.58343 11.5925C3.54347 11.4745 3.42855 11.3824 3.34863 11.2782L5.21177 7.85254C5.2757 7.96366 5.36018 8.06755 5.40052 8.18704C6.26341 10.7375 7.12191 13.2894 7.97602 15.8428C9.08568 19.1649 10.1885 22.4897 11.2974 25.8122C11.3415 25.945 11.4146 26.0676 11.4842 26.2163L11.7392 25.9195L11.6756 29.7447Z" fill="#4FAA41"/>
<path fill-rule="evenodd" clip-rule="evenodd" d="M3.34962 11.2783C3.42954 11.3826 3.54408 11.4747 3.58442 11.5926C4.44017 14.1107 5.29005 16.6308 6.13405 19.1529C7.17902 22.2775 8.21295 25.4063 9.25944 28.5302C9.8919 30.4181 10.5388 32.3017 11.1857 34.2052L11.4769 34.0952L11.4118 35.0184L11.3528 35.2311C11.2516 36.2419 11.1663 37.2549 11.043 38.2633C10.981 38.7687 10.8493 39.2649 10.7493 39.7653C10.6739 39.6561 10.5681 39.5568 10.5274 39.4358C8.44698 33.2341 6.37265 27.0301 4.29565 20.8273C3.63488 18.8533 2.96995 16.8806 2.30085 14.9095C2.26698 14.8094 2.17147 14.731 2.10449 14.6423L3.34962 11.2783Z" fill="#4AA73C"/>
<path fill-rule="evenodd" clip-rule="evenodd" d="M11.7403 25.9203L11.4854 26.2171C11.4157 26.0683 11.3427 25.9454 11.2985 25.813C10.19 22.4904 9.08681 19.1656 7.97715 15.8435C7.12304 13.2901 6.26453 10.7382 5.40164 8.18778C5.36168 8.06829 5.2772 7.96402 5.21289 7.85328L7.51707 4.82227C7.58976 4.9193 7.69326 5.00569 7.73094 5.1149C8.37063 6.98755 9.00461 8.86248 9.63479 10.7385C10.2235 12.4906 10.8034 14.2452 11.399 15.995C11.4389 16.1122 11.5778 16.1951 11.6707 16.2941L11.6753 16.6917C11.6973 19.7673 11.719 22.844 11.7403 25.9203Z" fill="#57AE47"/>
<path fill-rule="evenodd" clip-rule="evenodd" d="M11.6702 16.2931C11.5774 16.1941 11.4385 16.1112 11.3985 15.994C10.803 14.2442 10.223 12.4895 9.63432 10.7375C9.00414 8.86146 8.37016 6.98691 7.73047 5.11389C7.69279 5.00467 7.58929 4.91829 7.5166 4.82125C8.26589 4.08756 8.99196 3.32762 9.77131 2.62781C10.4643 2.006 11.0214 1.33929 11.0469 0.356731C11.048 0.316013 11.0693 0.275295 11.1021 0.161133L11.2996 0.65812C11.2946 0.909659 11.2722 1.1612 11.2885 1.41121C11.3171 1.84617 11.3871 2.27885 11.4069 2.71381C11.4434 3.52322 11.4609 4.33415 11.4773 5.14471C11.5035 6.44921 11.5275 7.7537 11.5439 9.05858C11.5694 11.1432 11.5861 13.2278 11.6124 15.3124C11.6154 15.6401 11.6497 15.9662 11.6702 16.2931Z" fill="#60B24F"/>
<path fill-rule="evenodd" clip-rule="evenodd" d="M10.7481 39.7655C10.8481 39.2651 10.9798 38.7685 11.0418 38.2635C11.1655 37.2554 11.2504 36.2421 11.3516 35.2313L11.3767 35.2275L11.4018 35.2317C11.4277 36.4964 11.6058 37.7534 11.9323 38.9755C11.8653 39.0638 11.7706 39.1426 11.7352 39.2423C11.4585 40.0224 11.1979 40.8086 10.9197 41.5887C10.8816 41.6952 10.7758 41.7782 10.7013 41.8718L10.417 40.8953L10.7481 39.7655Z" fill="#A9AA88"/>
<path fill-rule="evenodd" clip-rule="evenodd" d="M10.7021 41.8719C10.7767 41.7783 10.8829 41.6953 10.9206 41.5888C11.1988 40.8087 11.4598 40.0228 11.7361 39.2423C11.7715 39.1426 11.8658 39.0639 11.9332 38.9756L12.4108 40.0236C12.3164 40.1575 12.1863 40.2782 12.1337 40.4274L11.2189 43.1136C11.1812 43.2213 11.0526 43.2974 10.9666 43.3883L10.7021 41.8719Z" fill="#B6B598"/>
<path fill-rule="evenodd" clip-rule="evenodd" d="M10.9668 43.3882C11.0532 43.2976 11.1814 43.2211 11.2191 43.1134L12.1339 40.4272C12.1861 40.2784 12.3166 40.1574 12.411 40.0234L12.8733 40.4181C12.6499 40.6388 12.5259 40.8937 12.6005 41.2161L12.46 41.6758C12.3961 41.7545 12.3036 41.823 12.2721 41.9132C11.9528 42.8276 11.648 43.747 11.3264 44.6615C11.2857 44.7775 11.1727 44.8685 11.0928 44.9705C11.0513 44.4427 11.009 43.916 10.9668 43.3882Z" fill="#C2C1A7"/>
<path fill-rule="evenodd" clip-rule="evenodd" d="M11.0934 44.9705C11.1729 44.8681 11.286 44.7772 11.3271 44.6615C11.6486 43.7474 11.9534 42.8281 12.2727 41.9132C12.3043 41.8234 12.3964 41.7546 12.4607 41.6758L12.267 43.7859C12.2152 43.8456 12.1403 43.8978 12.1155 43.9674C11.8967 44.5816 11.6905 45.2004 11.4709 45.8146C11.4256 45.9413 11.3389 46.0532 11.2711 46.1715C11.211 46.0927 11.1033 46.0166 11.0984 45.9344C11.0789 45.6144 11.0923 45.2921 11.0934 44.9705Z" fill="#CECDB7"/>
<path fill-rule="evenodd" clip-rule="evenodd" d="M11.2705 46.1717C11.3382 46.053 11.425 45.9411 11.4703 45.8148C11.6902 45.201 11.8961 44.5822 12.1149 43.9677C12.1397 43.898 12.215 43.8463 12.2664 43.7861L12.271 45.1713L11.8075 46.3601L11.2705 46.1717Z" fill="#DBDAC7"/>
<path fill-rule="evenodd" clip-rule="evenodd" d="M11.8066 46.3597L12.2701 45.1709L12.3657 46.5774L11.8066 46.3597Z" fill="#EBE9DC"/>
<path fill-rule="evenodd" clip-rule="evenodd" d="M12.5999 41.216C12.5253 40.8936 12.649 40.6383 12.8727 40.418L13.001 40.5055L12.5999 41.216Z" fill="#CECDB7"/>
<path fill-rule="evenodd" clip-rule="evenodd" d="M11.4028 35.2317L11.3777 35.2275L11.3525 35.2313L11.4115 35.0186L11.4028 35.2317Z" fill="#4FAA41"/>
<path d="M34.6036 15.8237H37.828L42.1462 26.3635H42.3167L46.6349 15.8237H49.8593V30.3691H47.3309V20.3762H47.1959L43.176 30.3265H41.2868L37.267 20.3549H37.132V30.3691H34.6036V15.8237ZM57.3735 30.5822C56.3082 30.5822 55.3849 30.3478 54.6036 29.8791C53.8224 29.4103 53.2163 28.7546 52.7854 27.9118C52.3593 27.069 52.1462 26.0841 52.1462 24.9572C52.1462 23.8303 52.3593 22.8431 52.7854 21.9956C53.2163 21.148 53.8224 20.4899 54.6036 20.0211C55.3849 19.5524 56.3082 19.318 57.3735 19.318C58.4388 19.318 59.3621 19.5524 60.1434 20.0211C60.9246 20.4899 61.5283 21.148 61.9545 21.9956C62.3853 22.8431 62.6008 23.8303 62.6008 24.9572C62.6008 26.0841 62.3853 27.069 61.9545 27.9118C61.5283 28.7546 60.9246 29.4103 60.1434 29.8791C59.3621 30.3478 58.4388 30.5822 57.3735 30.5822ZM57.3877 28.5225C57.9653 28.5225 58.4483 28.3639 58.8366 28.0467C59.2248 27.7247 59.5136 27.2939 59.703 26.7541C59.8972 26.2143 59.9942 25.613 59.9942 24.9501C59.9942 24.2825 59.8972 23.6788 59.703 23.139C59.5136 22.5945 59.2248 22.1613 58.8366 21.8393C58.4483 21.5173 57.9653 21.3564 57.3877 21.3564C56.7958 21.3564 56.3034 21.5173 55.9104 21.8393C55.5222 22.1613 55.231 22.5945 55.0368 23.139C54.8474 23.6788 54.7528 24.2825 54.7528 24.9501C54.7528 25.613 54.8474 26.2143 55.0368 26.7541C55.231 27.2939 55.5222 27.7247 55.9104 28.0467C56.3034 28.3639 56.7958 28.5225 57.3877 28.5225ZM67.354 23.9771V30.3691H64.7829V19.46H67.2403V21.3137H67.3682C67.6191 20.7029 68.0192 20.2176 68.5684 19.8578C69.1224 19.4979 69.8066 19.318 70.621 19.318C71.3738 19.318 72.0296 19.479 72.5883 19.801C73.1518 20.1229 73.5874 20.5893 73.8952 21.2001C74.2077 21.8109 74.3615 22.5519 74.3568 23.4231V30.3691H71.7858V23.8208C71.7858 23.0917 71.5964 22.5211 71.2176 22.1092C70.8435 21.6973 70.3251 21.4913 69.6622 21.4913C69.2124 21.4913 68.8123 21.5907 68.4619 21.7896C68.1163 21.9837 67.844 22.2654 67.6452 22.6348C67.451 23.0041 67.354 23.4515 67.354 23.9771ZM81.7148 34.6873C80.7915 34.6873 79.9984 34.5618 79.3355 34.3109C78.6726 34.0647 78.1399 33.7333 77.7375 33.3166C77.335 32.8999 77.0557 32.4383 76.8994 31.9316L79.2148 31.3706C79.3189 31.5836 79.4704 31.7943 79.6693 32.0027C79.8682 32.2157 80.1357 32.3909 80.4719 32.5282C80.8128 32.6703 81.2413 32.7413 81.7574 32.7413C82.4865 32.7413 83.0902 32.5637 83.5684 32.2086C84.0467 31.8583 84.2858 31.2806 84.2858 30.4757V28.4089H84.1579C84.0254 28.6741 83.8312 28.9463 83.5756 29.2257C83.3246 29.505 82.9908 29.7394 82.5741 29.9288C82.1622 30.1182 81.6437 30.2129 81.0187 30.2129C80.1807 30.2129 79.4207 30.0164 78.7389 29.6234C78.0618 29.2257 77.522 28.6338 77.1196 27.8478C76.7219 27.0571 76.523 26.0675 76.523 24.8791C76.523 23.6812 76.7219 22.6703 77.1196 21.8464C77.522 21.0178 78.0642 20.3904 78.746 19.9643C79.4278 19.5334 80.1878 19.318 81.0258 19.318C81.665 19.318 82.1906 19.4269 82.6025 19.6447C83.0192 19.8578 83.3506 20.1158 83.5969 20.4189C83.8431 20.7172 84.0301 20.9989 84.1579 21.264H84.3V19.46H86.8355V30.5467C86.8355 31.4795 86.613 32.2512 86.1679 32.862C85.7228 33.4728 85.1144 33.9297 84.3426 34.2328C83.5708 34.5358 82.6949 34.6873 81.7148 34.6873ZM81.7361 28.1958C82.2806 28.1958 82.7446 28.0633 83.1281 27.7981C83.5116 27.533 83.8028 27.1518 84.0017 26.6547C84.2006 26.1575 84.3 25.5609 84.3 24.8649C84.3 24.1783 84.2006 23.577 84.0017 23.0609C83.8076 22.5448 83.5187 22.1447 83.1352 21.8606C82.7564 21.5718 82.29 21.4274 81.7361 21.4274C81.1631 21.4274 80.6849 21.5765 80.3014 21.8748C79.9179 22.1731 79.6291 22.5827 79.4349 23.1035C79.2408 23.6196 79.1437 24.2067 79.1437 24.8649C79.1437 25.5325 79.2408 26.1172 79.4349 26.6191C79.6338 27.1163 79.925 27.5046 80.3085 27.7839C80.6968 28.0585 81.1726 28.1958 81.7361 28.1958ZM94.229 30.5822C93.1636 30.5822 92.2403 30.3478 91.4591 29.8791C90.6778 29.4103 90.0718 28.7546 89.6409 27.9118C89.2148 27.069 89.0017 26.0841 89.0017 24.9572C89.0017 23.8303 89.2148 22.8431 89.6409 21.9956C90.0718 21.148 90.6778 20.4899 91.4591 20.0211C92.2403 19.5524 93.1636 19.318 94.229 19.318C95.2943 19.318 96.2176 19.5524 96.9988 20.0211C97.7801 20.4899 98.3838 21.148 98.8099 21.9956C99.2408 22.8431 99.4562 23.8303 99.4562 24.9572C99.4562 26.0841 99.2408 27.069 98.8099 27.9118C98.3838 28.7546 97.7801 29.4103 96.9988 29.8791C96.2176 30.3478 95.2943 30.5822 94.229 30.5822ZM94.2432 28.5225C94.8208 28.5225 95.3038 28.3639 95.692 28.0467C96.0803 27.7247 96.3691 27.2939 96.5585 26.7541C96.7526 26.2143 96.8497 25.613 96.8497 24.9501C96.8497 24.2825 96.7526 23.6788 96.5585 23.139C96.3691 22.5945 96.0803 22.1613 95.692 21.8393C95.3038 21.5173 94.8208 21.3564 94.2432 21.3564C93.6513 21.3564 93.1589 21.5173 92.7659 21.8393C92.3776 22.1613 92.0864 22.5945 91.8923 23.139C91.7029 23.6788 91.6082 24.2825 91.6082 24.9501C91.6082 25.613 91.7029 26.2143 91.8923 26.7541C92.0864 27.2939 92.3776 27.7247 92.7659 28.0467C93.1589 28.3639 93.6513 28.5225 94.2432 28.5225ZM106.681 30.3691H101.752V15.8237H106.78C108.225 15.8237 109.465 16.1149 110.502 16.6973C111.544 17.2749 112.344 18.1059 112.903 19.1902C113.461 20.2744 113.741 21.5718 113.741 23.0822C113.741 24.5974 113.459 25.8994 112.896 26.9885C112.337 28.0775 111.53 28.9132 110.474 29.4956C109.422 30.0779 108.158 30.3691 106.681 30.3691ZM104.387 28.0893H106.553C107.566 28.0893 108.412 27.9047 109.089 27.5353C109.766 27.1613 110.275 26.6049 110.616 25.8663C110.957 25.1229 111.127 24.1949 111.127 23.0822C111.127 21.9695 110.957 21.0462 110.616 20.3123C110.275 19.5737 109.771 19.0221 109.103 18.6575C108.44 18.2882 107.616 18.1035 106.631 18.1035H104.387V28.0893ZM116.244 30.3691V15.8237H121.812C122.864 15.8237 123.737 15.9894 124.433 16.3208C125.134 16.6475 125.657 17.095 126.003 17.6632C126.353 18.2314 126.528 18.8753 126.528 19.595C126.528 20.1868 126.415 20.6935 126.187 21.1149C125.96 21.5315 125.655 21.8701 125.271 22.1305C124.888 22.3909 124.459 22.5779 123.986 22.6916V22.8336C124.502 22.862 124.997 23.0207 125.47 23.3095C125.948 23.5936 126.339 23.996 126.642 24.5169C126.945 25.0377 127.097 25.6674 127.097 26.4061C127.097 27.1589 126.914 27.836 126.55 28.4373C126.185 29.0339 125.636 29.505 124.902 29.8507C124.168 30.1963 123.245 30.3691 122.132 30.3691H116.244ZM118.879 28.1674H121.713C122.669 28.1674 123.358 27.9851 123.78 27.6206C124.206 27.2512 124.419 26.7778 124.419 26.2001C124.419 25.7692 124.312 25.381 124.099 25.0353C123.886 24.685 123.583 24.4103 123.19 24.2115C122.797 24.0079 122.329 23.9061 121.784 23.9061H118.879V28.1674ZM118.879 22.0098H121.486C121.94 22.0098 122.35 21.9269 122.714 21.7612C123.079 21.5907 123.365 21.3516 123.574 21.0439C123.787 20.7314 123.893 20.362 123.893 19.9359C123.893 19.3725 123.695 18.9084 123.297 18.5439C122.904 18.1793 122.319 17.997 121.543 17.997H118.879V22.0098ZM136.218 30.3691H133.405L138.526 15.8237H141.779L146.907 30.3691H144.094L140.209 18.8066H140.095L136.218 30.3691ZM136.31 24.666H143.98V26.7825H136.31V24.666ZM153.473 19.46V21.4487H147.201V19.46H153.473ZM148.75 16.8464H151.321V27.0879C151.321 27.4335 151.373 27.6987 151.477 27.8833C151.586 28.0633 151.728 28.1864 151.903 28.2527C152.078 28.319 152.272 28.3521 152.485 28.3521C152.646 28.3521 152.793 28.3403 152.926 28.3166C153.063 28.2929 153.167 28.2716 153.238 28.2527L153.671 30.2626C153.534 30.31 153.338 30.362 153.082 30.4189C152.831 30.4757 152.523 30.5088 152.159 30.5183C151.515 30.5372 150.935 30.4402 150.419 30.2271C149.902 30.0093 149.493 29.6731 149.19 29.2186C148.892 28.764 148.745 28.1958 148.75 27.514V16.8464ZM158.428 15.8237V30.3691H155.857V15.8237H158.428ZM164.211 30.5893C163.52 30.5893 162.897 30.4662 162.343 30.22C161.794 29.969 161.358 29.5997 161.036 29.112C160.719 28.6243 160.561 28.023 160.561 27.3081C160.561 26.6925 160.674 26.1835 160.902 25.7811C161.129 25.3786 161.439 25.0566 161.832 24.8152C162.225 24.5737 162.668 24.3914 163.16 24.2683C163.657 24.1404 164.171 24.0481 164.701 23.9913C165.34 23.925 165.859 23.8658 166.257 23.8137C166.654 23.7569 166.943 23.6717 167.123 23.5581C167.308 23.4397 167.4 23.2574 167.4 23.0112V22.9686C167.4 22.4335 167.242 22.0192 166.924 21.7257C166.607 21.4321 166.15 21.2853 165.554 21.2853C164.924 21.2853 164.424 21.4226 164.055 21.6973C163.69 21.9719 163.444 22.2962 163.316 22.6703L160.916 22.3294C161.105 21.6665 161.418 21.1125 161.853 20.6674C162.289 20.2176 162.822 19.8815 163.451 19.6589C164.081 19.4316 164.777 19.318 165.539 19.318C166.065 19.318 166.588 19.3796 167.109 19.5027C167.63 19.6258 168.106 19.8294 168.536 20.1135C168.967 20.3928 169.313 20.774 169.573 21.2569C169.839 21.7399 169.971 22.3436 169.971 23.068V30.3691H167.5V28.8706H167.414C167.258 29.1736 167.038 29.4577 166.754 29.7228C166.474 29.9833 166.122 30.194 165.696 30.3549C165.274 30.5112 164.779 30.5893 164.211 30.5893ZM164.879 28.7001C165.395 28.7001 165.842 28.5983 166.221 28.3947C166.6 28.1864 166.891 27.9118 167.095 27.5708C167.303 27.2299 167.407 26.8583 167.407 26.4558V25.1703C167.327 25.2366 167.189 25.2981 166.995 25.3549C166.806 25.4118 166.593 25.4615 166.356 25.5041C166.119 25.5467 165.885 25.5846 165.653 25.6177C165.421 25.6509 165.22 25.6793 165.049 25.7029C164.666 25.755 164.322 25.8403 164.019 25.9586C163.716 26.077 163.477 26.2427 163.302 26.4558C163.127 26.6641 163.039 26.934 163.039 27.2654C163.039 27.7389 163.212 28.0964 163.558 28.3379C163.903 28.5794 164.344 28.7001 164.879 28.7001ZM181.179 22.3436L178.835 22.5993C178.768 22.3625 178.652 22.14 178.487 21.9316C178.326 21.7233 178.108 21.5552 177.833 21.4274C177.559 21.2995 177.223 21.2356 176.825 21.2356C176.29 21.2356 175.84 21.3516 175.475 21.5836C175.116 21.8156 174.938 22.1163 174.943 22.4856C174.938 22.8029 175.054 23.0609 175.291 23.2598C175.532 23.4586 175.93 23.622 176.484 23.7498L178.345 24.1475C179.377 24.3701 180.144 24.7228 180.646 25.2058C181.152 25.6887 181.408 26.3208 181.413 27.1021C181.408 27.7886 181.207 28.3947 180.809 28.9203C180.416 29.4411 179.869 29.8483 179.169 30.1419C178.468 30.4354 177.663 30.5822 176.754 30.5822C175.419 30.5822 174.344 30.3029 173.529 29.7441C172.715 29.1807 172.23 28.3971 172.073 27.3933L174.581 27.1518C174.694 27.6442 174.936 28.0159 175.305 28.2669C175.674 28.5178 176.155 28.6433 176.747 28.6433C177.358 28.6433 177.848 28.5178 178.217 28.2669C178.591 28.0159 178.778 27.7058 178.778 27.3365C178.778 27.024 178.657 26.7659 178.416 26.5623C178.179 26.3587 177.81 26.2025 177.308 26.0936L175.447 25.7029C174.401 25.4851 173.626 25.1182 173.125 24.6021C172.623 24.0813 172.374 23.4231 172.379 22.6277C172.374 21.9553 172.556 21.3729 172.926 20.8805C173.3 20.3833 173.818 19.9998 174.481 19.7299C175.149 19.4553 175.918 19.318 176.789 19.318C178.068 19.318 179.074 19.5903 179.808 20.1348C180.546 20.6793 181.003 21.4155 181.179 22.3436Z" fill="white"/>
</svg>
