<svg width="81" height="30" viewBox="0 0 81 30" fill="none" xmlns="http://www.w3.org/2000/svg">
<path d="M35.0547 29.2121H43.7754C50.333 29.2121 54.0444 26.1154 54.0444 21.2656V20.9695C54.0444 17.3947 51.9269 15.5504 49.3539 14.5031C51.4715 13.4329 53.3158 11.4975 53.3158 8.24152V8.03657C53.3158 5.91901 52.6555 4.32516 51.4715 3.14115C49.741 1.43345 46.9859 0.704834 43.7754 0.704834H35.0547V29.2121ZM46.7355 9.42547C46.7355 11.2243 45.4831 12.2717 43.4339 12.2717H41.6123V6.57932H43.525C45.5287 6.57932 46.7355 7.51286 46.7355 9.37994V9.42547ZM47.3503 20.3775V20.4231C47.3503 22.2219 46.0068 23.3603 43.8893 23.3603H41.6123V17.4403H43.8437C46.0523 17.4403 47.3503 18.6243 47.3503 20.3775ZM55.1146 29.2121H61.7861V0.704834H55.1146V29.2121ZM63.1067 29.2121H80.3659V23.1326H71.2581L80.3659 5.91901V0.704834H63.4027V6.76148H72.2374L63.1067 23.9751V29.2121Z" fill="#C3C9D0"/>
<path d="M0.558594 29.2121H7.07066V15.0268L14.3569 29.1893H20.3908V0.704834H13.8787V14.2298L6.91127 0.704834H0.558594V29.2121ZM25.5367 29.2121C28.0185 29.2121 30.0223 28.8478 31.4568 27.4133C33.0051 25.865 33.7792 23.6563 33.7792 20.6053V0.704834H27.085V19.7855C27.085 21.9486 26.1059 22.8822 24.7625 22.8822H21.5065V29.2121H25.5367Z" fill="#C3C9D0"/>
</svg>
