<svg width="81" height="30" viewBox="0 0 81 30" fill="none" xmlns="http://www.w3.org/2000/svg">
<path d="M34.7617 29.2276H43.4825C50.04 29.2276 53.7515 26.1309 53.7515 21.2811V20.9851C53.7515 17.4102 51.6339 15.5659 49.061 14.5186C51.1785 13.4484 53.0229 11.513 53.0229 8.25702V8.05207C53.0229 5.93452 52.3626 4.34066 51.1785 3.15665C49.448 1.44896 46.6929 0.720337 43.4825 0.720337H34.7617V29.2276ZM46.4425 9.44097C46.4425 11.2398 45.1901 12.2872 43.1409 12.2872H41.3194V6.59483H43.232C45.2357 6.59483 46.4425 7.52836 46.4425 9.39544V9.44097ZM47.0573 20.393V20.4386C47.0573 22.2374 45.7138 23.3758 43.5963 23.3758H41.3194V17.4558H43.5508C45.7594 17.4558 47.0573 18.6398 47.0573 20.393ZM54.8216 29.2276H61.4931V0.720337H54.8216V29.2276ZM62.8137 29.2276H80.073V23.1481H70.9652L80.073 5.93452V0.720337H63.1097V6.77698H71.9444L62.8137 23.9906V29.2276Z" fill="#C3C9D0"/>
<path d="M0.266602 29.2276H6.77866V15.0423L14.0649 29.2048H20.0988V0.720337H13.5867V14.2453L6.61928 0.720337H0.266602V29.2276ZM25.2447 29.2276C27.7265 29.2276 29.7303 28.8633 31.1648 27.4288C32.7131 25.8805 33.4872 23.6719 33.4872 20.6208V0.720337H26.793V19.801C26.793 21.9641 25.8139 22.8977 24.4705 22.8977H21.2145V29.2276H25.2447Z" fill="#C3C9D0"/>
</svg>
