<svg width="109" height="43" viewBox="0 0 109 43" fill="none" xmlns="http://www.w3.org/2000/svg">
<path d="M41.3005 20.268C41.2119 20.268 41.1233 20.268 41.0347 20.2911L33.9079 7.10949C34.1008 6.74308 34.1546 6.31927 34.0594 5.91628C33.9643 5.5133 33.7265 5.15834 33.3901 4.91693C33.0537 4.67552 32.6413 4.56396 32.2291 4.60283C31.8168 4.64171 31.4326 4.8284 31.1472 5.12844L16.9432 2.3004C16.8935 1.88134 16.6911 1.4953 16.3746 1.21612C16.0582 0.936943 15.6499 0.784215 15.2279 0.787151C14.7748 0.791311 14.3414 0.973173 14.0209 1.29362C13.7005 1.61406 13.5186 2.04748 13.5145 2.50063C13.5119 2.78087 13.5808 3.05714 13.7147 3.30333L2.64884 19.1765C2.50504 19.1308 2.35495 19.1081 2.20407 19.1092C1.75894 19.1235 1.33682 19.3104 1.027 19.6303C0.717175 19.9503 0.543945 20.3782 0.543945 20.8235C0.543945 21.2689 0.717175 21.6968 1.027 22.0168C1.33682 22.3367 1.75894 22.5236 2.20407 22.5379H2.26964L8.23758 37.2983C8.14104 37.5244 8.08813 37.7666 8.08165 38.0124C8.08145 38.3557 8.1843 38.6912 8.37688 38.9755C8.56946 39.2597 8.84291 39.4796 9.16185 39.6067C9.48079 39.7338 9.83053 39.7623 10.1658 39.6885C10.5011 39.6146 10.8066 39.4419 11.0426 39.1925L28.9659 40.9521C29.1431 41.7087 29.8342 42.242 30.6369 42.242C31.5937 42.242 32.3504 41.4624 32.3504 40.5286C32.3506 40.1223 32.2089 39.7287 31.9499 39.4158L41.0117 23.695C41.1003 23.718 41.1889 23.718 41.3023 23.718C42.2591 23.718 43.0157 22.9384 43.0157 22.0028C43.0181 21.776 42.9755 21.551 42.8905 21.3408C42.8055 21.1306 42.6798 20.9392 42.5205 20.7778C42.3612 20.6164 42.1716 20.4881 41.9625 20.4003C41.7534 20.3125 41.529 20.2669 41.3023 20.2663L41.3005 20.268ZM31.0143 7.37705C31.22 7.64399 31.4989 7.84531 31.817 7.95648L29.1006 28.4615C28.9234 28.5058 28.7657 28.5501 28.6098 28.6387L13.6917 15.6822C13.7373 15.5384 13.76 15.3883 13.759 15.2374C13.759 15.1258 13.736 15.0142 13.736 14.9025L31.0143 7.37705ZM39.6544 22.4511L30.4809 28.7521C30.4095 28.703 30.335 28.6586 30.2577 28.6193L32.9971 7.93345H33.0184L40.0105 20.8475C39.8207 21.063 39.6885 21.3231 39.6263 21.6035C39.564 21.8839 39.5737 22.1754 39.6544 22.4511ZM11.7992 13.5452C11.3941 13.609 11.0244 13.8137 10.7554 14.1233C10.4864 14.4328 10.3352 14.8274 10.3285 15.2374V15.3473L4.20638 18.9763L13.736 5.32867L11.7992 13.5452ZM12.4229 16.9297C12.6494 16.8791 12.8623 16.78 13.0467 16.6391L27.8531 29.5088C27.7818 29.7091 27.7441 29.9199 27.7415 30.1325V30.2211L11.2446 37.0343C10.9939 36.6668 10.6101 36.4113 10.1743 36.3219L12.4229 16.9297ZM28.1863 31.3126C28.4205 31.5748 28.7331 31.7544 29.0775 31.8247L29.9015 38.994C29.5578 39.1713 29.2778 39.4512 29.1006 39.795L11.7106 38.1028L28.1863 31.3126ZM30.2134 31.6901C30.5007 31.5493 30.7428 31.3307 30.912 31.059C31.0812 30.7874 31.1706 30.4738 31.1702 30.1538C31.1695 30.0036 31.1468 29.8544 31.1029 29.7108L39.4984 23.9431L30.993 38.7034L30.2134 31.6901ZM30.6581 6.26249L13.1353 13.8996L12.935 13.7667L15.1624 4.21588H15.2279C15.8304 4.21588 16.3638 3.90402 16.6756 3.43622L30.6581 6.21819V6.26249ZM3.91756 20.828C3.91756 20.7163 3.89452 20.6047 3.89452 20.4931L10.8193 16.4176C10.954 16.5522 11.1099 16.6851 11.2871 16.7755L9.03851 36.1199L3.36116 22.1144C3.69429 21.8025 3.91756 21.3347 3.91756 20.8244V20.828Z" fill="white"/>
<path d="M63.4748 21.2419C63.4748 22.8092 63.1812 24.1515 62.5941 25.2689C62.0117 26.3816 61.2163 27.2339 60.2077 27.8257C59.204 28.4176 58.0652 28.7135 56.7915 28.7135C55.5179 28.7135 54.3768 28.4176 53.3683 27.8257C52.3645 27.2291 51.569 26.3745 50.9819 25.2618C50.3995 24.1444 50.1083 22.8044 50.1083 21.2419C50.1083 19.6747 50.3995 18.3347 50.9819 17.222C51.569 16.1046 52.3645 15.25 53.3683 14.6581C54.3768 14.0663 55.5179 13.7703 56.7915 13.7703C58.0652 13.7703 59.204 14.0663 60.2077 14.6581C61.2163 15.25 62.0117 16.1046 62.5941 17.222C63.1812 18.3347 63.4748 19.6747 63.4748 21.2419ZM60.8256 21.2419C60.8256 20.1387 60.6528 19.2083 60.3072 18.4507C59.9663 17.6884 59.4928 17.1131 58.8867 16.7249C58.2807 16.3319 57.5823 16.1354 56.7915 16.1354C56.0008 16.1354 55.3024 16.3319 54.6964 16.7249C54.0903 17.1131 53.6145 17.6884 53.2688 18.4507C52.9279 19.2083 52.7575 20.1387 52.7575 21.2419C52.7575 22.3451 52.9279 23.2779 53.2688 24.0402C53.6145 24.7978 54.0903 25.3731 54.6964 25.7661C55.3024 26.1543 56.0008 26.3485 56.7915 26.3485C57.5823 26.3485 58.2807 26.1543 58.8867 25.7661C59.4928 25.3731 59.9663 24.7978 60.3072 24.0402C60.6528 23.2779 60.8256 22.3451 60.8256 21.2419ZM77.919 13.9692V28.5146H75.5753L68.7216 18.607H68.6009V28.5146H65.9659V13.9692H68.3239L75.1705 23.884H75.2983V13.9692H77.919ZM92.7433 13.9692V28.5146H90.3995L83.5458 18.607H83.4251V28.5146H80.7901V13.9692H83.1481L89.9947 23.884H90.1225V13.9692H92.7433ZM97.8161 13.9692L101.019 19.2959H101.133L104.35 13.9692H107.354L102.873 21.2419L107.425 28.5146H104.371L101.133 23.2235H101.019L97.7805 28.5146H94.7408L99.3359 21.2419L94.7976 13.9692H97.8161Z" fill="white"/>
</svg>
