<svg width="50" height="48" viewBox="0 0 50 48" fill="none" xmlns="http://www.w3.org/2000/svg">
<path fill-rule="evenodd" clip-rule="evenodd" d="M49.8711 4.04629C50.0358 2.96214 49.5737 1.8757 48.6794 1.23756C47.7851 0.60171 46.6072 0.521657 45.6351 1.03171C37.8562 5.11671 10.645 19.4028 2.28743 23.7897C1.25589 24.3295 0.647483 25.4319 0.736686 26.5916C0.825888 27.7512 1.5944 28.7484 2.69685 29.1258C5.95158 30.2397 9.92908 31.6052 16.1664 33.7438L41.326 10.2287L20.965 35.3883C27.6163 37.6686 38.0163 41.2345 40.6261 42.1288C41.4426 42.4101 42.3438 42.3117 43.0826 41.8657C43.8213 41.4174 44.3222 40.6649 44.4526 39.8095L49.8711 4.04629Z" fill="white"/>
<path fill-rule="evenodd" clip-rule="evenodd" d="M18.0693 36.8135V44.2927C18.0693 45.4409 18.7441 46.4816 19.7893 46.9505C20.8369 47.4217 22.0606 47.2341 22.9183 46.4702L29.4094 40.7018L18.0693 36.8135Z" fill="white"/>
</svg>
