<svg width="146" height="54" viewBox="0 0 146 54" fill="none" xmlns="http://www.w3.org/2000/svg">
<g clip-path="url(#clip0_0_1)">
<path d="M45.0265 0.738281H30.9773C29.7693 0.738281 28.79 1.71757 28.79 2.92558V51.551C28.79 52.759 29.7693 53.7383 30.9773 53.7383H45.0265C46.2346 53.7383 47.2138 52.759 47.2138 51.551V2.92558C47.2138 1.71757 46.2346 0.738281 45.0265 0.738281Z" fill="url(#paint0_linear_0_1)"/>
<g filter="url(#filter0_d_0_1)">
<path d="M36.3613 51.5501V53.7374H34.174H20.1248C18.9168 53.7374 17.9375 52.7581 17.9375 51.5501V16.1326C17.9375 14.9246 18.9168 13.9453 20.1248 13.9453H34.174C35.382 13.9453 36.3613 14.9246 36.3613 16.1326V51.5501Z" fill="black"/>
</g>
<path d="M36.3613 51.5501V53.7374H34.174H20.1248C18.9168 53.7374 17.9375 52.7581 17.9375 51.5501V16.1326C17.9375 14.9246 18.9168 13.9453 20.1248 13.9453H34.174C35.382 13.9453 36.3613 14.9246 36.3613 16.1326V51.5501Z" fill="url(#paint1_linear_0_1)"/>
<path fill-rule="evenodd" clip-rule="evenodd" d="M25.6772 51.551V53.7383H23.4899H9.44072C8.23271 53.7383 7.25342 52.759 7.25342 51.551V29.4256C7.25342 28.2176 8.23271 27.2383 9.44072 27.2383H23.4899C24.6979 27.2383 25.6772 28.2176 25.6772 29.4256V51.551Z" fill="url(#paint2_linear_0_1)"/>
</g>
<path d="M68.7013 34.0898V19.5444H74.1558C75.2732 19.5444 76.2107 19.7527 76.9683 20.1694C77.7306 20.5861 78.3059 21.159 78.6942 21.8881C79.0872 22.6126 79.2836 23.4364 79.2836 24.3597C79.2836 25.2925 79.0872 26.1211 78.6942 26.8455C78.3012 27.57 77.7211 28.1405 76.9541 28.5572C76.1871 28.9691 75.2425 29.1751 74.1203 29.1751H70.5052V27.0089H73.7652C74.4186 27.0089 74.9536 26.8952 75.3703 26.668C75.787 26.4407 76.0947 26.1282 76.2936 25.7305C76.4972 25.3327 76.599 24.8758 76.599 24.3597C76.599 23.8436 76.4972 23.3891 76.2936 22.9961C76.0947 22.6031 75.7846 22.2977 75.3632 22.0799C74.9465 21.8574 74.4091 21.7461 73.751 21.7461H71.3362V34.0898H68.7013ZM86.061 34.3029C84.9957 34.3029 84.0724 34.0685 83.2911 33.5998C82.5099 33.131 81.9038 32.4753 81.4729 31.6325C81.0468 30.7897 80.8337 29.8048 80.8337 28.6779C80.8337 27.551 81.0468 26.5638 81.4729 25.7163C81.9038 24.8687 82.5099 24.2106 83.2911 23.7418C84.0724 23.2731 84.9957 23.0387 86.061 23.0387C87.1263 23.0387 88.0496 23.2731 88.8309 23.7418C89.6121 24.2106 90.2158 24.8687 90.642 25.7163C91.0728 26.5638 91.2883 27.551 91.2883 28.6779C91.2883 29.8048 91.0728 30.7897 90.642 31.6325C90.2158 32.4753 89.6121 33.131 88.8309 33.5998C88.0496 34.0685 87.1263 34.3029 86.061 34.3029ZM86.0752 32.2433C86.6528 32.2433 87.1358 32.0846 87.5241 31.7674C87.9123 31.4454 88.2011 31.0146 88.3905 30.4748C88.5847 29.935 88.6817 29.3337 88.6817 28.6708C88.6817 28.0032 88.5847 27.3995 88.3905 26.8597C88.2011 26.3152 87.9123 25.882 87.5241 25.56C87.1358 25.238 86.6528 25.0771 86.0752 25.0771C85.4833 25.0771 84.9909 25.238 84.5979 25.56C84.2097 25.882 83.9185 26.3152 83.7243 26.8597C83.5349 27.3995 83.4403 28.0032 83.4403 28.6708C83.4403 29.3337 83.5349 29.935 83.7243 30.4748C83.9185 31.0146 84.2097 31.4454 84.5979 31.7674C84.9909 32.0846 85.4833 32.2433 86.0752 32.2433ZM95.4094 34.0898L92.327 23.1808H94.9477L96.8653 30.8512H96.9648L98.925 23.1808H101.517L103.478 30.8086H103.584L105.473 23.1808H108.101L105.012 34.0898H102.334L100.289 26.7177H100.139L98.094 34.0898H95.4094ZM114.413 34.3029C113.32 34.3029 112.375 34.0756 111.579 33.6211C110.789 33.1618 110.18 32.5131 109.754 31.6751C109.328 30.8323 109.115 29.8403 109.115 28.6992C109.115 27.5771 109.328 26.5922 109.754 25.7447C110.185 24.8924 110.786 24.2295 111.558 23.756C112.33 23.2778 113.237 23.0387 114.278 23.0387C114.951 23.0387 115.585 23.1476 116.182 23.3654C116.783 23.5785 117.313 23.9099 117.773 24.3597C118.237 24.8095 118.601 25.3825 118.866 26.0785C119.132 26.7698 119.264 27.5936 119.264 28.5501V29.3384H110.322V27.6055H116.8C116.795 27.113 116.688 26.6751 116.48 26.2915C116.272 25.9033 115.98 25.5979 115.606 25.3754C115.237 25.1528 114.806 25.0415 114.314 25.0415C113.788 25.0415 113.327 25.1694 112.929 25.4251C112.531 25.676 112.221 26.0075 111.998 26.4194C111.781 26.8266 111.669 27.274 111.665 27.7617V29.2745C111.665 29.909 111.781 30.4535 112.013 30.908C112.245 31.3578 112.569 31.7035 112.986 31.945C113.402 32.1817 113.89 32.3001 114.449 32.3001C114.823 32.3001 115.161 32.248 115.464 32.1438C115.767 32.0349 116.03 31.8763 116.253 31.668C116.475 31.4596 116.643 31.2016 116.757 30.8938L119.158 31.1637C119.006 31.7982 118.717 32.3522 118.291 32.8256C117.87 33.2944 117.33 33.659 116.672 33.9194C116.014 34.1751 115.261 34.3029 114.413 34.3029ZM121.439 34.0898V23.1808H123.932V24.9989H124.046C124.245 24.3692 124.585 23.8839 125.068 23.543C125.556 23.1973 126.112 23.0245 126.737 23.0245C126.88 23.0245 127.038 23.0316 127.213 23.0458C127.393 23.0553 127.542 23.0719 127.661 23.0955V25.4606C127.552 25.4227 127.379 25.3896 127.142 25.3612C126.91 25.328 126.685 25.3114 126.468 25.3114C125.999 25.3114 125.577 25.4132 125.203 25.6168C124.834 25.8157 124.543 26.0927 124.33 26.4478C124.117 26.8029 124.01 27.2125 124.01 27.6765V34.0898H121.439ZM129.483 34.0898V19.5444H135.051C136.102 19.5444 136.975 19.7101 137.671 20.0415C138.372 20.3683 138.895 20.8157 139.241 21.3839C139.591 21.9521 139.767 22.596 139.767 23.3157C139.767 23.9076 139.653 24.4142 139.426 24.8356C139.198 25.2522 138.893 25.5908 138.509 25.8512C138.126 26.1116 137.697 26.2987 137.224 26.4123V26.5543C137.74 26.5827 138.235 26.7414 138.708 27.0302C139.187 27.3143 139.577 27.7167 139.88 28.2376C140.183 28.7584 140.335 29.3881 140.335 30.1268C140.335 30.8796 140.152 31.5567 139.788 32.158C139.423 32.7546 138.874 33.2257 138.14 33.5714C137.406 33.917 136.483 34.0898 135.37 34.0898H129.483ZM132.117 31.8881H134.951C135.908 31.8881 136.597 31.7058 137.018 31.3413C137.444 30.9719 137.657 30.4985 137.657 29.9208C137.657 29.4899 137.551 29.1017 137.338 28.756C137.125 28.4057 136.822 28.131 136.429 27.9322C136.036 27.7286 135.567 27.6268 135.022 27.6268H132.117V31.8881ZM132.117 25.7305H134.724C135.179 25.7305 135.588 25.6476 135.953 25.4819C136.317 25.3114 136.604 25.0723 136.812 24.7646C137.025 24.4521 137.132 24.0827 137.132 23.6566C137.132 23.0932 136.933 22.6291 136.535 22.2646C136.142 21.9 135.557 21.7177 134.781 21.7177H132.117V25.7305ZM145.262 19.5444V34.0898H142.627V19.5444H145.262Z" fill="white"/>
<defs>
<filter id="filter0_d_0_1" x="17.9375" y="3.94531" width="58.4238" height="79.793" filterUnits="userSpaceOnUse" color-interpolation-filters="sRGB">
<feFlood flood-opacity="0" result="BackgroundImageFix"/>
<feColorMatrix in="SourceAlpha" type="matrix" values="0 0 0 0 0 0 0 0 0 0 0 0 0 0 0 0 0 0 127 0" result="hardAlpha"/>
<feOffset dx="20" dy="10"/>
<feGaussianBlur stdDeviation="10"/>
<feColorMatrix type="matrix" values="0 0 0 0 0 0 0 0 0 0 0 0 0 0 0 0 0 0 0.0530212 0"/>
<feBlend mode="normal" in2="BackgroundImageFix" result="effect1_dropShadow_0_1"/>
<feBlend mode="normal" in="SourceGraphic" in2="effect1_dropShadow_0_1" result="shape"/>
</filter>
<linearGradient id="paint0_linear_0_1" x1="949.981" y1="0.738281" x2="949.981" y2="5300.74" gradientUnits="userSpaceOnUse">
<stop stop-color="#EBBB14"/>
<stop offset="1" stop-color="#B25400"/>
</linearGradient>
<linearGradient id="paint1_linear_0_1" x1="939.128" y1="13.9453" x2="939.128" y2="3993.15" gradientUnits="userSpaceOnUse">
<stop stop-color="#F9E583"/>
<stop offset="1" stop-color="#DE9800"/>
</linearGradient>
<linearGradient id="paint2_linear_0_1" x1="928.444" y1="27.2383" x2="928.444" y2="2677.24" gradientUnits="userSpaceOnUse">
<stop stop-color="#F9E68B"/>
<stop offset="1" stop-color="#F3CD32"/>
</linearGradient>
<clipPath id="clip0_0_1">
<rect width="53" height="53" fill="white" transform="translate(0.733643 0.738281)"/>
</clipPath>
</defs>
</svg>
