<svg width="50" height="51" viewBox="0 0 50 51" fill="none" xmlns="http://www.w3.org/2000/svg">
<path fill-rule="evenodd" clip-rule="evenodd" d="M25 9.10547C27.9113 9.10547 30.7836 9.8905 33.308 11.375L31.7956 13.9403C29.7307 12.7237 27.3793 12.0819 25 12.0819C17.6147 12.0819 11.6061 18.0906 11.6061 25.4758C11.6061 32.8611 17.6147 38.8698 25 38.8698C32.3853 38.8698 38.3939 32.8611 38.3939 25.4758C38.3939 23.0965 37.7503 20.7452 36.5337 18.6784L39.099 17.1679C40.5853 19.6922 41.3704 22.5664 41.3704 25.4758C41.3704 34.5018 34.026 41.8462 25 41.8462C15.9721 41.8462 8.62964 34.5018 8.62964 25.4758C8.62964 16.4479 15.9721 9.10547 25 9.10547ZM25.0002 14.6859V17.6623C20.6918 17.6623 17.1871 21.1671 17.1871 25.4754C17.1871 29.7838 20.6918 33.2886 25.0002 33.2886C29.3067 33.2886 32.8133 29.7838 32.8133 25.4755H35.7897C35.7897 31.4246 30.9493 36.265 25.0002 36.265C19.0511 36.265 14.2106 31.4246 14.2106 25.4755C14.2106 19.5263 19.0511 14.6859 25.0002 14.6859ZM24.9998 20.2663V23.2428C23.7683 23.2428 22.7675 24.2455 22.7675 25.4751C22.7675 26.7066 23.7683 27.7074 24.9998 27.7074C26.2313 27.7074 27.2321 26.7066 27.2321 25.4751H30.2086C30.2086 28.3473 27.8721 30.6838 24.9998 30.6838C22.1276 30.6838 19.7911 28.3473 19.7911 25.4751C19.7911 22.6028 22.1276 20.2663 24.9998 20.2663ZM38.564 9.27529L41.1963 11.9076L33.3478 19.7542L36.7818 23.1882H27.287V13.6935L30.7173 17.1238L38.564 9.27533V9.27529Z" fill="white"/>
</svg>
