<svg width="76" height="80" viewBox="0 0 76 80" fill="none" xmlns="http://www.w3.org/2000/svg">
<path d="M6.55273 0.5H44.2891C47.6235 0.5 50.3418 3.21516 50.3418 6.55273V27.9082C50.3418 28.1369 50.1544 28.3242 49.9258 28.3242C49.6972 28.3241 49.5107 28.1368 49.5107 27.9082V6.55273C49.5107 3.67235 47.1694 1.33105 44.2891 1.33105H6.55273C3.67235 1.33105 1.33105 3.67235 1.33105 6.55273V73.4473C1.33105 76.3276 3.67235 78.6689 6.55273 78.6689H44.2891C47.1657 78.6689 49.5107 76.3279 49.5107 73.4473V48.2617C49.5108 48.0332 49.6973 47.8459 49.9258 47.8457C50.1544 47.8457 50.3418 48.0331 50.3418 48.2617V73.4473C50.3418 76.7848 47.6235 79.5 44.2891 79.5H6.55273C3.21499 79.5 0.5 76.785 0.5 73.4473V6.55273C0.5 3.21499 3.21499 0.5 6.55273 0.5Z" fill="white" stroke="white"/>
<path d="M35.4512 27.4932H59.0107C59.2417 27.4932 59.4268 27.6793 59.4268 27.9092C59.4265 28.1389 59.2415 28.3242 59.0107 28.3242H35.4512C35.2226 28.3242 35.0354 28.1377 35.0352 27.9092C35.0352 27.6805 35.2225 27.4932 35.4512 27.4932Z" fill="white" stroke="white"/>
<path d="M29.7598 47.8462H64.7002C64.9289 47.8462 65.1162 48.0336 65.1162 48.2622C65.116 48.4907 64.9287 48.6772 64.7002 48.6772H29.7598C29.5312 48.6772 29.344 48.4907 29.3438 48.2622C29.3438 48.0335 29.5311 47.8462 29.7598 47.8462Z" fill="white" stroke="white"/>
<path d="M63.3105 23.0405C66.3207 22.7251 70.7091 24.7392 72.8721 31.9292L73.0742 32.6411C74.1762 36.7496 74.9244 42.5045 74.9727 47.2856C75.0055 50.351 74.7638 52.6868 74.2744 54.3091C73.7806 55.9459 73.0783 56.7251 72.2852 56.939L72.2803 56.9409C72.1689 56.9722 72.0515 56.991 71.9297 56.9985H71.8027C70.9315 56.9985 69.8471 56.3993 68.5498 54.9546C67.269 53.5282 65.8603 51.3672 64.335 48.4585V48.4575L64.3027 48.3794C64.2487 48.1938 64.3312 47.9903 64.5088 47.8979H64.5098L64.5137 47.896C64.7127 47.7905 64.9657 47.8684 65.0713 48.0718L65.0723 48.0728C66.8158 51.4005 68.2705 53.4443 69.3984 54.6401C69.9617 55.2373 70.4562 55.6368 70.8779 55.8765C71.2785 56.104 71.6986 56.2358 72.0674 56.1372L72.0693 56.1362C72.404 56.0454 72.6788 55.7633 72.8955 55.4224C73.1237 55.0634 73.3399 54.5585 73.5264 53.8843C73.8531 52.7029 74.1025 50.9491 74.1387 48.4253L74.1406 47.2964C74.0915 42.5838 73.3593 36.9219 72.2715 32.8589C70.4125 25.9129 66.4449 23.5531 63.3984 23.8706C61.1658 24.1036 59.5457 25.7357 59.4307 27.937C59.4179 28.166 59.2223 28.3413 58.9932 28.3286H58.9902C58.7633 28.3177 58.5863 28.1196 58.5986 27.895V27.8931C58.735 25.3171 60.6569 23.3189 63.3105 23.0405Z" fill="white" stroke="white"/>
<path d="M25.7568 25.0752C27.5182 23.5698 29.524 22.8836 31.3994 23.0791C33.9766 23.3485 35.7235 25.2129 35.8643 27.8867V27.8877C35.8769 28.1162 35.7 28.3113 35.4766 28.3223C35.243 28.3335 35.0476 28.1536 35.0352 27.9297C34.9756 26.8349 34.599 25.8815 33.9443 25.1709C33.3292 24.5032 32.4924 24.0755 31.5127 23.9336L31.3154 23.9092C28.0254 23.5633 23.9243 26.3945 22.1953 32.8525C21.1075 36.9152 20.3754 42.5758 20.3262 47.2891C20.2928 50.4294 20.5655 52.5283 20.9395 53.8789C21.1262 54.5535 21.3427 55.059 21.5713 55.418C21.7882 55.7584 22.0641 56.0415 22.4004 56.1309H22.4023C22.77 56.2267 23.1884 56.0969 23.5898 55.8691C24.0119 55.6296 24.5069 55.2306 25.0703 54.6338C26.1983 53.4388 27.6532 51.3956 29.3984 48.0664L29.3994 48.0654C29.5033 47.8654 29.7549 47.7844 29.958 47.8896V47.8906C30.1663 48.0005 30.2404 48.2521 30.1357 48.4492L30.1348 48.4521C28.6095 51.3624 27.2007 53.5234 25.9199 54.9502C24.6225 56.3955 23.5383 56.9961 22.667 56.9961H22.5693C22.4379 56.9896 22.3088 56.9695 22.1797 56.9355H22.1807C21.3866 56.7232 20.6843 55.9444 20.1904 54.3066C19.7011 52.6839 19.4601 50.3477 19.4912 47.2822C19.543 42.5004 20.2868 36.7458 21.3887 32.6377C22.213 29.5673 23.6031 27.0867 25.3936 25.4014L25.7568 25.0752Z" fill="white" stroke="white"/>
<path d="M65.4473 35.9458C66.6268 35.9459 67.5898 36.9062 67.5898 38.0884C67.5898 39.2674 66.6263 40.2309 65.4473 40.231C64.2677 40.231 63.3047 39.2705 63.3047 38.0884C63.3047 36.9062 64.2677 35.9458 65.4473 35.9458ZM65.4473 36.7769C64.7255 36.7769 64.1357 37.3666 64.1357 38.0884C64.1358 38.8129 64.7283 39.396 65.4473 39.396C66.1662 39.3959 66.7587 38.8129 66.7588 38.0884C66.7588 37.3666 66.169 36.7769 65.4473 36.7769Z" fill="white" stroke="white"/>
<path d="M56.0293 35.9458C57.2088 35.9459 58.1719 36.9062 58.1719 38.0884C58.1718 39.2674 57.2084 40.2309 56.0293 40.231C54.8498 40.231 53.8868 39.2705 53.8867 38.0884C53.8867 36.9058 54.8467 35.9458 56.0293 35.9458ZM56.0293 36.7769C55.3075 36.7769 54.7178 37.3666 54.7178 38.0884C54.7178 38.8129 55.3104 39.396 56.0293 39.396C56.7482 39.3959 57.3407 38.8129 57.3408 38.0884C57.3408 37.3666 56.751 36.7769 56.0293 36.7769Z" fill="white" stroke="white"/>
<path d="M60.7402 31.2356C61.9198 31.2357 62.8828 32.196 62.8828 33.3782C62.8828 34.5577 61.9223 35.5207 60.7402 35.5208C59.5581 35.5208 58.5977 34.5577 58.5977 33.3782C58.5977 32.1986 59.558 31.2356 60.7402 31.2356ZM60.7402 32.0667C60.0184 32.0667 59.4287 32.6564 59.4287 33.3782C59.4288 34.0999 60.0185 34.6897 60.7402 34.6897C61.4647 34.6896 62.0478 34.0971 62.0479 33.3782C62.0479 32.6592 61.4648 32.0667 60.7402 32.0667Z" fill="white" stroke="white"/>
<path d="M60.7402 40.6537C61.9193 40.6537 62.8828 41.6172 62.8828 42.7963C62.8828 43.9758 61.9223 44.9388 60.7402 44.9388C59.5581 44.9388 58.5977 43.9758 58.5977 42.7963C58.5977 41.6167 59.558 40.6537 60.7402 40.6537ZM60.7402 41.4847C60.0184 41.4847 59.4287 42.0745 59.4287 42.7963C59.4288 43.518 60.0185 44.1078 60.7402 44.1078C61.4647 44.1077 62.0478 43.5151 62.0479 42.7963C62.0479 42.0773 61.4648 41.4848 60.7402 41.4847Z" fill="white" stroke="white"/>
<path d="M32.1816 33.0767C32.4101 33.0769 32.5967 33.2642 32.5967 33.4927V42.6772C32.5965 42.9079 32.4113 43.0921 32.1816 43.0923C31.9518 43.0923 31.7658 42.908 31.7656 42.6772V33.4927C31.7656 33.264 31.953 33.0767 32.1816 33.0767Z" fill="white" stroke="white"/>
<path d="M27.584 37.6733H36.7686C36.9993 37.6735 37.1836 37.8596 37.1836 38.0894C37.1834 38.319 36.9992 38.5042 36.7686 38.5044H27.584C27.3554 38.5044 27.1682 38.3178 27.168 38.0894C27.168 37.8607 27.3553 37.6733 27.584 37.6733Z" fill="white" stroke="white"/>
<path d="M25.4229 63.7217C28.3536 63.7217 30.7412 66.1062 30.7412 69.0361C30.7411 71.9664 28.3531 74.3535 25.4229 74.3535C22.4925 74.3534 20.1056 71.9695 20.1055 69.0361C20.1055 66.1062 22.4923 63.7218 25.4229 63.7217ZM25.4229 64.5527C22.9506 64.5529 20.9365 66.5626 20.9365 69.0361C20.9366 71.5087 22.9462 73.5223 25.4229 73.5225C27.8955 73.5225 29.9091 71.5129 29.9092 69.0361C29.9092 66.5629 27.8991 64.5527 25.4229 64.5527Z" fill="white" stroke="white"/>
<path d="M20.2754 6.87109H30.5664C30.7951 6.87109 30.9824 7.05845 30.9824 7.28711C30.9822 7.51557 30.7949 7.70215 30.5664 7.70215H20.2754C20.0469 7.70215 19.8596 7.51559 19.8594 7.28711C19.8594 7.05846 20.0467 6.87109 20.2754 6.87109Z" fill="white" stroke="white"/>
</svg>
