<svg width="80" height="72" viewBox="0 0 80 72" fill="none" xmlns="http://www.w3.org/2000/svg">
<mask id="path-1-inside-1_1304_3326" fill="white">
<path d="M64.3909 17.5133C64.0479 17.5133 63.7354 17.5247 63.4267 17.5437C60.4123 7.17181 50.8999 0 40.0003 0C29.1008 0 19.5886 7.17191 16.574 17.5437C16.2729 17.5247 15.9528 17.5133 15.6098 17.5133C7.00459 17.5133 0 24.499 0 33.0809C0 41.6629 7.00459 48.6486 15.6098 48.6486H17.561V52.2099C17.561 53.4375 18.4375 54.475 19.638 54.6993L21.9779 55.1288C22.1913 55.1668 22.359 55.3226 22.4352 55.5583C22.6982 56.3374 23.0107 57.0937 23.3727 57.8159C23.4794 58.0287 23.4718 58.2644 23.3536 58.4468L21.997 60.3927C21.2957 61.3961 21.4215 62.7568 22.2904 63.6233L25.9604 67.2834C26.8293 68.1499 28.1936 68.2753 29.1997 67.576L31.1509 66.2344C31.3262 66.1089 31.5625 66.1089 31.7835 66.2154C32.5152 66.584 33.2774 66.8957 34.0472 67.1503C34.2797 67.2264 34.436 67.405 34.4779 67.6064L34.9085 69.94C35.1219 71.1259 36.1738 72 37.4047 72H42.6029C43.8338 72 44.8742 71.1258 45.0991 69.9286L45.5297 67.595C45.5678 67.3822 45.7241 67.215 45.9604 67.139C46.7302 66.8843 47.4924 66.5651 48.2241 66.204C48.4375 66.0976 48.6738 66.1052 48.8567 66.223L50.8079 67.5646C51.814 68.264 53.1784 68.1385 54.0472 67.272L57.7172 63.6119C58.5861 62.7454 58.7042 61.3847 58.0107 60.3814L56.6654 58.4354C56.5396 58.2606 56.5396 58.0249 56.6463 57.8045C57.0084 57.0748 57.3285 56.3147 57.5838 55.5469C57.66 55.3151 57.8392 55.1592 58.0411 55.1174L60.3811 54.6879C61.5624 54.4865 62.439 53.4375 62.439 52.2099V48.6486H64.3902C72.9954 48.6486 80 41.6629 80 33.0809C80 24.499 72.9961 17.5133 64.3909 17.5133ZM60.4884 52.2097C60.4884 52.4909 60.2826 52.7342 60.0121 52.7836L57.6722 53.213C56.7651 53.3803 56.0144 54.0416 55.7095 54.9461C55.4847 55.6264 55.2027 56.2991 54.8787 56.9491C54.4481 57.7966 54.5167 58.7962 55.0464 59.5564L56.3917 61.5023C56.5594 61.7342 56.5289 62.0458 56.3231 62.251L52.6531 65.9111C52.4473 66.1163 52.1348 66.1353 51.9024 65.9795L49.9511 64.6379C49.189 64.1134 48.1943 64.0526 47.3368 64.4706C46.6813 64.7899 46.0106 65.0749 45.3284 65.2992C44.4214 65.5994 43.7583 66.3481 43.5907 67.2565L43.16 69.5901C43.1219 69.8485 42.878 70.0538 42.596 70.0538H37.3978C37.1158 70.0538 36.8719 69.8485 36.8224 69.5787L36.3917 67.2451C36.224 66.3405 35.5609 65.5918 34.654 65.2878C33.9718 65.0635 33.2973 64.7823 32.6456 64.4592C32.2759 64.273 31.8643 64.178 31.4642 64.178C30.9574 64.178 30.4582 64.3224 30.0312 64.6151L28.08 65.9567C27.8475 66.1125 27.535 66.0935 27.3293 65.8883L23.6593 62.2282C23.4535 62.023 23.4344 61.7113 23.5907 61.4795L24.9474 59.5336C25.4733 58.7734 25.5343 57.7814 25.1151 56.9339C24.7949 56.2915 24.5091 55.6188 24.2843 54.9309C23.9832 54.0339 23.2325 53.3726 22.3216 53.2092L19.9817 52.7797C19.7188 52.7341 19.513 52.4909 19.513 52.2096V47.0255C19.513 46.7443 19.7188 46.501 19.9894 46.4516L22.3293 46.0221C23.2363 45.8549 23.987 45.1936 24.2919 44.3004C24.5244 43.6087 24.8102 42.9398 25.1227 42.2975C25.5419 41.4499 25.4847 40.4504 24.955 39.6902L23.5983 37.7442C23.4306 37.5124 23.4611 37.2007 23.6669 36.9955L27.3369 33.3355C27.5427 33.1302 27.8552 33.1036 28.0876 33.267L30.0389 34.6201C30.8011 35.1446 31.7957 35.2054 32.6456 34.7873C33.2897 34.468 33.9642 34.183 34.654 33.9588C35.5534 33.6585 36.2165 32.9098 36.3803 32.0014L36.811 29.6678C36.8605 29.3866 37.1044 29.1927 37.3864 29.1927H42.5846C42.8666 29.1927 43.1105 29.398 43.16 29.6678L43.5907 32.0014C43.7584 32.906 44.4215 33.6547 45.317 33.9588C46.0106 34.1906 46.6813 34.4756 47.3254 34.7873C48.1753 35.2168 49.1775 35.1484 49.9398 34.6201L51.891 33.267C52.1235 33.0998 52.436 33.1302 52.6417 33.3355L56.3117 36.9955C56.5175 37.2007 56.5365 37.5124 56.3803 37.7442L55.035 39.6902C54.5091 40.4503 54.4481 41.4499 54.8673 42.2975C55.1875 42.9512 55.4733 43.6201 55.6981 44.3004C55.9992 45.205 56.7499 45.8664 57.6608 46.0335L60.0007 46.463C60.2827 46.5124 60.477 46.7556 60.477 47.0369V52.2096L60.4884 52.2097ZM64.3909 46.7024H62.4092C62.272 45.623 61.4527 44.7375 60.3589 44.5436L58.019 44.1141C57.8056 44.0761 57.6379 43.9203 57.5616 43.6846C57.3063 42.9169 56.9862 42.1568 56.6241 41.427C56.5174 41.2142 56.5251 40.9785 56.6432 40.7961L57.9885 38.8502C58.6897 37.8468 58.5639 36.4861 57.695 35.6196L54.0251 31.9595C53.1562 31.093 51.7918 30.9752 50.7857 31.6669L48.8345 33.0085C48.6592 33.1339 48.4229 33.1339 48.2019 33.0275C47.4816 32.6665 46.7195 32.3548 45.9382 32.0926C45.7133 32.0165 45.5495 31.8493 45.5075 31.6365L45.0769 29.3029C44.8787 28.117 43.8269 27.2429 42.5959 27.2429H37.3978C36.1668 27.2429 35.1264 28.1171 34.9016 29.3143L34.4709 31.6479C34.4328 31.8607 34.2766 32.0279 34.0403 32.1039C33.259 32.3662 32.5007 32.6778 31.7766 33.0389C31.5632 33.1453 31.3269 33.1377 31.1439 33.0199L29.1927 31.6669C28.1867 30.9752 26.8223 31.093 25.9534 31.9595L22.2834 35.6196C21.4145 36.4861 21.2888 37.8468 21.99 38.8502L23.3353 40.7961C23.461 40.9709 23.461 41.2066 23.3543 41.427C22.9923 42.1454 22.6798 42.9055 22.4168 43.6846C22.3406 43.9089 22.1729 44.0723 21.9595 44.1141L19.6196 44.5436C18.5258 44.7488 17.7065 45.6344 17.5693 46.7024H15.6104C8.07988 46.7024 1.95187 40.591 1.95187 33.0808C1.95187 25.5705 8.07988 19.4591 15.6104 19.4591C16.1744 19.4591 16.6928 19.4895 17.192 19.5465C17.6798 19.6035 18.1371 19.2919 18.2552 18.8168C20.7704 8.88171 29.7186 1.94536 40.0006 1.94536C50.2826 1.94536 59.2309 8.88161 61.746 18.8284C61.8641 19.3035 62.3214 19.6076 62.8092 19.5582C63.3084 19.4898 63.8268 19.4594 64.3908 19.4594C71.9213 19.4594 78.0493 25.5708 78.0493 33.081C78.0493 40.5912 71.9214 46.7024 64.3909 46.7024ZM51.0523 12.6288C51.4334 13.0089 51.4334 13.6207 51.0523 14.0009C50.858 14.1947 50.6141 14.2821 50.3587 14.2821C50.1034 14.2821 49.8595 14.1833 49.6651 14.0009C43.9562 8.30742 34.6807 8.30742 28.9714 14.0009C28.5903 14.3809 27.9768 14.3809 27.5956 14.0009C27.2145 13.6208 27.2145 13.0089 27.5956 12.6288C34.0705 6.17903 44.5967 6.17903 51.0523 12.6288ZM40.0006 40.8646C35.1607 40.8646 31.2201 44.7945 31.2201 49.6214C31.2201 54.4482 35.1607 58.3781 40.0006 58.3781C44.8405 58.3781 48.7811 54.4482 48.7811 49.6214C48.7811 44.7945 44.8405 40.8646 40.0006 40.8646ZM40.0006 56.4322C36.2353 56.4322 33.1713 53.3765 33.1713 49.6214C33.1713 45.8662 36.2353 42.8105 40.0006 42.8105C43.7659 42.8105 46.8299 45.8662 46.8299 49.6214C46.8299 53.3765 43.7659 56.4322 40.0006 56.4322Z"/>
</mask>
<path d="M64.3909 17.5133C64.0479 17.5133 63.7354 17.5247 63.4267 17.5437C60.4123 7.17181 50.8999 0 40.0003 0C29.1008 0 19.5886 7.17191 16.574 17.5437C16.2729 17.5247 15.9528 17.5133 15.6098 17.5133C7.00459 17.5133 0 24.499 0 33.0809C0 41.6629 7.00459 48.6486 15.6098 48.6486H17.561V52.2099C17.561 53.4375 18.4375 54.475 19.638 54.6993L21.9779 55.1288C22.1913 55.1668 22.359 55.3226 22.4352 55.5583C22.6982 56.3374 23.0107 57.0937 23.3727 57.8159C23.4794 58.0287 23.4718 58.2644 23.3536 58.4468L21.997 60.3927C21.2957 61.3961 21.4215 62.7568 22.2904 63.6233L25.9604 67.2834C26.8293 68.1499 28.1936 68.2753 29.1997 67.576L31.1509 66.2344C31.3262 66.1089 31.5625 66.1089 31.7835 66.2154C32.5152 66.584 33.2774 66.8957 34.0472 67.1503C34.2797 67.2264 34.436 67.405 34.4779 67.6064L34.9085 69.94C35.1219 71.1259 36.1738 72 37.4047 72H42.6029C43.8338 72 44.8742 71.1258 45.0991 69.9286L45.5297 67.595C45.5678 67.3822 45.7241 67.215 45.9604 67.139C46.7302 66.8843 47.4924 66.5651 48.2241 66.204C48.4375 66.0976 48.6738 66.1052 48.8567 66.223L50.8079 67.5646C51.814 68.264 53.1784 68.1385 54.0472 67.272L57.7172 63.6119C58.5861 62.7454 58.7042 61.3847 58.0107 60.3814L56.6654 58.4354C56.5396 58.2606 56.5396 58.0249 56.6463 57.8045C57.0084 57.0748 57.3285 56.3147 57.5838 55.5469C57.66 55.3151 57.8392 55.1592 58.0411 55.1174L60.3811 54.6879C61.5624 54.4865 62.439 53.4375 62.439 52.2099V48.6486H64.3902C72.9954 48.6486 80 41.6629 80 33.0809C80 24.499 72.9961 17.5133 64.3909 17.5133ZM60.4884 52.2097C60.4884 52.4909 60.2826 52.7342 60.0121 52.7836L57.6722 53.213C56.7651 53.3803 56.0144 54.0416 55.7095 54.9461C55.4847 55.6264 55.2027 56.2991 54.8787 56.9491C54.4481 57.7966 54.5167 58.7962 55.0464 59.5564L56.3917 61.5023C56.5594 61.7342 56.5289 62.0458 56.3231 62.251L52.6531 65.9111C52.4473 66.1163 52.1348 66.1353 51.9024 65.9795L49.9511 64.6379C49.189 64.1134 48.1943 64.0526 47.3368 64.4706C46.6813 64.7899 46.0106 65.0749 45.3284 65.2992C44.4214 65.5994 43.7583 66.3481 43.5907 67.2565L43.16 69.5901C43.1219 69.8485 42.878 70.0538 42.596 70.0538H37.3978C37.1158 70.0538 36.8719 69.8485 36.8224 69.5787L36.3917 67.2451C36.224 66.3405 35.5609 65.5918 34.654 65.2878C33.9718 65.0635 33.2973 64.7823 32.6456 64.4592C32.2759 64.273 31.8643 64.178 31.4642 64.178C30.9574 64.178 30.4582 64.3224 30.0312 64.6151L28.08 65.9567C27.8475 66.1125 27.535 66.0935 27.3293 65.8883L23.6593 62.2282C23.4535 62.023 23.4344 61.7113 23.5907 61.4795L24.9474 59.5336C25.4733 58.7734 25.5343 57.7814 25.1151 56.9339C24.7949 56.2915 24.5091 55.6188 24.2843 54.9309C23.9832 54.0339 23.2325 53.3726 22.3216 53.2092L19.9817 52.7797C19.7188 52.7341 19.513 52.4909 19.513 52.2096V47.0255C19.513 46.7443 19.7188 46.501 19.9894 46.4516L22.3293 46.0221C23.2363 45.8549 23.987 45.1936 24.2919 44.3004C24.5244 43.6087 24.8102 42.9398 25.1227 42.2975C25.5419 41.4499 25.4847 40.4504 24.955 39.6902L23.5983 37.7442C23.4306 37.5124 23.4611 37.2007 23.6669 36.9955L27.3369 33.3355C27.5427 33.1302 27.8552 33.1036 28.0876 33.267L30.0389 34.6201C30.8011 35.1446 31.7957 35.2054 32.6456 34.7873C33.2897 34.468 33.9642 34.183 34.654 33.9588C35.5534 33.6585 36.2165 32.9098 36.3803 32.0014L36.811 29.6678C36.8605 29.3866 37.1044 29.1927 37.3864 29.1927H42.5846C42.8666 29.1927 43.1105 29.398 43.16 29.6678L43.5907 32.0014C43.7584 32.906 44.4215 33.6547 45.317 33.9588C46.0106 34.1906 46.6813 34.4756 47.3254 34.7873C48.1753 35.2168 49.1775 35.1484 49.9398 34.6201L51.891 33.267C52.1235 33.0998 52.436 33.1302 52.6417 33.3355L56.3117 36.9955C56.5175 37.2007 56.5365 37.5124 56.3803 37.7442L55.035 39.6902C54.5091 40.4503 54.4481 41.4499 54.8673 42.2975C55.1875 42.9512 55.4733 43.6201 55.6981 44.3004C55.9992 45.205 56.7499 45.8664 57.6608 46.0335L60.0007 46.463C60.2827 46.5124 60.477 46.7556 60.477 47.0369V52.2096L60.4884 52.2097ZM64.3909 46.7024H62.4092C62.272 45.623 61.4527 44.7375 60.3589 44.5436L58.019 44.1141C57.8056 44.0761 57.6379 43.9203 57.5616 43.6846C57.3063 42.9169 56.9862 42.1568 56.6241 41.427C56.5174 41.2142 56.5251 40.9785 56.6432 40.7961L57.9885 38.8502C58.6897 37.8468 58.5639 36.4861 57.695 35.6196L54.0251 31.9595C53.1562 31.093 51.7918 30.9752 50.7857 31.6669L48.8345 33.0085C48.6592 33.1339 48.4229 33.1339 48.2019 33.0275C47.4816 32.6665 46.7195 32.3548 45.9382 32.0926C45.7133 32.0165 45.5495 31.8493 45.5075 31.6365L45.0769 29.3029C44.8787 28.117 43.8269 27.2429 42.5959 27.2429H37.3978C36.1668 27.2429 35.1264 28.1171 34.9016 29.3143L34.4709 31.6479C34.4328 31.8607 34.2766 32.0279 34.0403 32.1039C33.259 32.3662 32.5007 32.6778 31.7766 33.0389C31.5632 33.1453 31.3269 33.1377 31.1439 33.0199L29.1927 31.6669C28.1867 30.9752 26.8223 31.093 25.9534 31.9595L22.2834 35.6196C21.4145 36.4861 21.2888 37.8468 21.99 38.8502L23.3353 40.7961C23.461 40.9709 23.461 41.2066 23.3543 41.427C22.9923 42.1454 22.6798 42.9055 22.4168 43.6846C22.3406 43.9089 22.1729 44.0723 21.9595 44.1141L19.6196 44.5436C18.5258 44.7488 17.7065 45.6344 17.5693 46.7024H15.6104C8.07988 46.7024 1.95187 40.591 1.95187 33.0808C1.95187 25.5705 8.07988 19.4591 15.6104 19.4591C16.1744 19.4591 16.6928 19.4895 17.192 19.5465C17.6798 19.6035 18.1371 19.2919 18.2552 18.8168C20.7704 8.88171 29.7186 1.94536 40.0006 1.94536C50.2826 1.94536 59.2309 8.88161 61.746 18.8284C61.8641 19.3035 62.3214 19.6076 62.8092 19.5582C63.3084 19.4898 63.8268 19.4594 64.3908 19.4594C71.9213 19.4594 78.0493 25.5708 78.0493 33.081C78.0493 40.5912 71.9214 46.7024 64.3909 46.7024ZM51.0523 12.6288C51.4334 13.0089 51.4334 13.6207 51.0523 14.0009C50.858 14.1947 50.6141 14.2821 50.3587 14.2821C50.1034 14.2821 49.8595 14.1833 49.6651 14.0009C43.9562 8.30742 34.6807 8.30742 28.9714 14.0009C28.5903 14.3809 27.9768 14.3809 27.5956 14.0009C27.2145 13.6208 27.2145 13.0089 27.5956 12.6288C34.0705 6.17903 44.5967 6.17903 51.0523 12.6288ZM40.0006 40.8646C35.1607 40.8646 31.2201 44.7945 31.2201 49.6214C31.2201 54.4482 35.1607 58.3781 40.0006 58.3781C44.8405 58.3781 48.7811 54.4482 48.7811 49.6214C48.7811 44.7945 44.8405 40.8646 40.0006 40.8646ZM40.0006 56.4322C36.2353 56.4322 33.1713 53.3765 33.1713 49.6214C33.1713 45.8662 36.2353 42.8105 40.0006 42.8105C43.7659 42.8105 46.8299 45.8662 46.8299 49.6214C46.8299 53.3765 43.7659 56.4322 40.0006 56.4322Z" fill="white" stroke="white" stroke-width="2" mask="url(#path-1-inside-1_1304_3326)"/>
</svg>
