<svg width="80" height="80" viewBox="0 0 80 80" fill="none" xmlns="http://www.w3.org/2000/svg">
<mask id="path-1-inside-1_1304_3350" fill="white">
<path d="M39.9997 0C25.4558 0 12.7127 7.79992 5.70311 19.4406C5.68749 19.4656 5.66249 19.4812 5.65624 19.4969C5.64686 19.5125 5.64686 19.5375 5.64061 19.5531C2.06247 25.5437 0 32.537 0 40.0001C0 53.9752 7.20932 66.2966 18.1031 73.447C18.1656 73.5032 18.2406 73.5501 18.3187 73.5845C24.5687 77.6407 32.0091 80 40.0002 80C62.0561 80 80 62.0562 80 40.0004C80 17.9446 62.0561 0.000803992 40.0002 0.000803992L39.9997 0ZM74.1524 22.759C73.3211 22.934 72.5617 23.1746 71.8648 23.5027C69.3836 24.6558 67.1211 27.3745 67.3524 30.3839C66.3773 30.5121 65.3524 30.4152 64.2555 30.1121L63.4149 28.3277C64.6555 27.2402 65.5836 26.409 65.943 26.0559C67.0712 24.9277 67.6961 23.4246 67.6961 21.8309C67.6961 20.231 67.0711 18.7341 65.943 17.606C63.6149 15.2779 59.8243 15.2779 57.4959 17.606C57.1427 17.9591 56.3115 18.8873 55.224 20.1342L41.2401 13.5436C40.287 13.0967 39.1995 12.9748 38.1683 13.1592C37.7589 12.8873 37.3527 12.6061 36.9433 12.3186L36.2808 11.8561C34.3621 10.5279 32.3777 9.15299 31.1684 7.25613C30.384 6.0655 29.9684 4.60927 29.9278 3.09681C33.1433 2.21554 36.5277 1.73746 40.0245 1.73746C54.9028 1.72809 67.8404 10.2967 74.1524 22.759ZM48.1741 39.2868L49.2459 42.8961C49.7178 44.4868 49.374 46.1992 48.3084 47.4711C48.0772 47.7524 47.724 47.8711 47.3647 47.7992C47.0053 47.7274 46.7334 47.4711 46.6272 47.1274L45.1647 42.215C45.0834 41.9525 44.8834 41.7337 44.6209 41.6462C44.5366 41.615 44.4397 41.5993 44.3428 41.5993C44.1678 41.5993 43.9991 41.6556 43.8553 41.7525C40.8553 43.8337 39.4866 44.4493 38.896 44.6337C39.0803 44.0431 39.7053 42.665 41.7835 39.6744C41.9428 39.4494 41.9835 39.1557 41.8866 38.8994C41.7991 38.6369 41.5835 38.4369 41.3178 38.3557L36.3992 36.8932C36.046 36.7901 35.7992 36.5182 35.7273 36.1557C35.6554 35.7963 35.7742 35.4432 36.0554 35.2119C37.3367 34.1495 39.046 33.8026 40.6304 34.2744L44.246 35.3557C44.5898 35.4588 44.9585 35.3401 45.1742 35.0526C46.8366 32.8839 48.7648 30.4682 50.9117 27.8683C51.2085 27.5089 51.1679 26.9714 50.8085 26.6683L37.8398 15.4716C37.7273 15.3747 37.7367 15.2622 37.7429 15.1997C37.7523 15.1372 37.7898 15.031 37.9273 14.9747C38.7523 14.6716 39.6866 14.7122 40.4804 15.0872L55.0555 21.959C55.4087 22.1184 55.8243 22.0402 56.0805 21.7434C57.5774 20.0247 58.418 19.1027 58.7054 18.8152C60.3617 17.159 63.0585 17.159 64.7148 18.8152C65.5148 19.6152 65.9616 20.687 65.9616 21.8246C65.9616 22.9621 65.521 24.0245 64.7148 24.8339C64.4273 25.1214 63.5054 25.962 61.7866 27.4588C61.4897 27.7151 61.4022 28.1307 61.571 28.4838L62.8679 31.2369C62.8772 31.2462 62.8772 31.2525 62.8772 31.2619L68.4366 43.0521C68.8116 43.8521 68.8522 44.7803 68.5491 45.6052C68.5022 45.7427 68.3897 45.7802 68.3241 45.7896C68.2616 45.799 68.1491 45.8052 68.0522 45.6927L56.8619 32.7337C56.5587 32.3743 56.0212 32.3337 55.6619 32.6305C53.0619 34.7743 50.6463 36.7023 48.4775 38.368C48.1994 38.5742 48.0803 38.9525 48.1741 39.2868ZM1.72713 39.9993C1.72713 33.1025 3.574 26.6306 6.77398 21.0307C8.86149 22.0307 11.1427 22.7182 13.3646 23.3588C14.2459 23.6151 15.1239 23.8713 15.9802 24.1432C19.2114 25.1745 24.7489 27.6307 25.5329 32.4559C25.8517 34.4403 25.2923 36.4246 24.6923 38.5371C24.461 39.3621 24.2204 40.2089 24.036 41.0558C23.0829 45.4464 23.5798 49.9589 24.0673 54.3181C24.1548 55.1274 24.2423 55.9337 24.3235 56.7337C24.4985 58.6774 24.5954 60.5492 23.8767 62.0867C23.4673 62.918 22.8611 63.6242 22.2142 64.3836C21.9736 64.6555 21.7423 64.9367 21.5173 65.2085C20.0361 66.9992 18.8924 69.1272 18.1736 71.4178C8.24564 64.4961 1.72713 52.9992 1.72713 39.9993ZM19.6798 72.415C20.3267 70.1588 21.4173 68.0557 22.8642 66.3026C23.0798 66.0307 23.3048 65.7744 23.5361 65.5119C24.2236 64.7119 24.9454 63.8807 25.4486 62.8401C26.3673 60.8964 26.2642 58.7683 26.0642 56.5777C25.9829 55.7684 25.8954 54.9528 25.8017 54.1371C25.3298 49.9122 24.8486 45.5372 25.7454 41.4244C25.9142 40.6244 26.1548 39.7995 26.3767 39.0088C27.0017 36.8182 27.6392 34.5464 27.258 32.1839C26.3204 26.4558 20.1298 23.656 16.5204 22.5024C15.6486 22.2212 14.7517 21.9649 13.8579 21.7118C11.7548 21.1025 9.60173 20.465 7.68294 19.5587C12.4079 12.0963 19.6389 6.38366 28.1828 3.59969C28.3016 5.26216 28.8234 6.86214 29.6953 8.18405C31.0859 10.3684 33.214 11.8402 35.2859 13.2715L35.9328 13.7184C36.0922 13.8309 36.2515 13.934 36.414 14.0465C36.239 14.2871 36.1015 14.5653 36.0453 14.8778C35.9171 15.5903 36.164 16.2934 36.7078 16.7653L49.0357 27.406C47.2451 29.581 45.6108 31.6372 44.1639 33.509L41.117 32.6059C38.9733 31.9653 36.6702 32.4372 34.942 33.8684C34.1733 34.509 33.8233 35.509 34.0233 36.484C34.2233 37.4589 34.942 38.2433 35.8951 38.5308L39.6795 39.659C36.8389 43.9152 36.7202 45.2745 37.4702 46.0339C38.2233 46.7871 39.5889 46.6746 43.8388 43.834L44.967 47.609C45.2545 48.5683 46.0388 49.2808 47.0139 49.4808C47.1982 49.5214 47.3732 49.537 47.5576 49.537C48.3482 49.537 49.1107 49.1839 49.6295 48.562C51.0607 46.8433 51.5326 44.5308 50.8919 42.387L49.9888 39.3464C51.8606 37.8996 53.9075 36.2652 56.1013 34.4746L66.742 46.7929C67.2139 47.3367 67.917 47.5835 68.6295 47.4554C69.342 47.3273 69.9108 46.846 70.167 46.1679C70.6295 44.9117 70.567 43.4961 69.9983 42.2804L65.1733 32.0397C65.6046 32.1022 66.0358 32.1366 66.4608 32.1366C67.1733 32.1366 67.8702 32.0491 68.5421 31.8741C68.9984 31.7553 69.2796 31.2991 69.1671 30.8335C68.5984 28.4648 70.464 26.0335 72.5984 25.0335C73.2859 24.7054 74.0546 24.4804 74.9265 24.3367C77.0703 29.1116 78.2796 34.399 78.2796 39.9677C78.2796 43.0301 77.9046 46.0083 77.2234 48.8708C73.7985 49.0552 71.5516 50.1426 70.3985 52.2239C69.886 53.1926 69.7266 54.2239 69.5578 55.2239C69.4453 55.9051 69.3422 56.5426 69.1422 57.1426C68.4047 59.3332 66.1266 61.0956 63.0454 61.855C61.3079 62.2862 59.5423 62.4081 57.661 62.5362C56.5579 62.6081 55.4204 62.6894 54.3079 62.8331C53.4204 62.9362 52.3954 63.1362 51.5392 63.7925C50.283 64.7518 49.9548 66.3456 49.6923 67.6237C49.3486 69.3424 49.0111 71.0549 48.683 72.7674C48.3798 74.3268 48.0736 75.8861 47.7642 77.4486C45.2611 77.9674 42.6612 78.2393 40.0049 78.2393C32.5362 78.2705 25.5734 76.1181 19.6798 72.415ZM49.5981 77.0556C49.8543 75.7525 50.1106 74.44 50.3668 73.1369C50.7043 71.4244 51.0387 69.712 51.3762 67.9994C51.6074 66.9025 51.8387 65.7682 52.5855 65.1901C53.1043 64.7901 53.848 64.6526 54.5137 64.5745C55.5762 64.437 56.6887 64.3588 57.7699 64.287C59.6417 64.1588 61.5792 64.0307 63.4574 63.5588C67.1136 62.6557 69.848 60.4714 70.7698 57.7183C71.0167 56.9808 71.1386 56.237 71.2511 55.5276C71.3948 54.6245 71.5323 53.7683 71.898 53.0714C72.6823 51.6621 74.273 50.8714 76.7386 50.6465C73.0073 63.5528 62.6452 73.6708 49.5981 77.0556Z"/>
</mask>
<path d="M39.9997 0C25.4558 0 12.7127 7.79992 5.70311 19.4406C5.68749 19.4656 5.66249 19.4812 5.65624 19.4969C5.64686 19.5125 5.64686 19.5375 5.64061 19.5531C2.06247 25.5437 0 32.537 0 40.0001C0 53.9752 7.20932 66.2966 18.1031 73.447C18.1656 73.5032 18.2406 73.5501 18.3187 73.5845C24.5687 77.6407 32.0091 80 40.0002 80C62.0561 80 80 62.0562 80 40.0004C80 17.9446 62.0561 0.000803992 40.0002 0.000803992L39.9997 0ZM74.1524 22.759C73.3211 22.934 72.5617 23.1746 71.8648 23.5027C69.3836 24.6558 67.1211 27.3745 67.3524 30.3839C66.3773 30.5121 65.3524 30.4152 64.2555 30.1121L63.4149 28.3277C64.6555 27.2402 65.5836 26.409 65.943 26.0559C67.0712 24.9277 67.6961 23.4246 67.6961 21.8309C67.6961 20.231 67.0711 18.7341 65.943 17.606C63.6149 15.2779 59.8243 15.2779 57.4959 17.606C57.1427 17.9591 56.3115 18.8873 55.224 20.1342L41.2401 13.5436C40.287 13.0967 39.1995 12.9748 38.1683 13.1592C37.7589 12.8873 37.3527 12.6061 36.9433 12.3186L36.2808 11.8561C34.3621 10.5279 32.3777 9.15299 31.1684 7.25613C30.384 6.0655 29.9684 4.60927 29.9278 3.09681C33.1433 2.21554 36.5277 1.73746 40.0245 1.73746C54.9028 1.72809 67.8404 10.2967 74.1524 22.759ZM48.1741 39.2868L49.2459 42.8961C49.7178 44.4868 49.374 46.1992 48.3084 47.4711C48.0772 47.7524 47.724 47.8711 47.3647 47.7992C47.0053 47.7274 46.7334 47.4711 46.6272 47.1274L45.1647 42.215C45.0834 41.9525 44.8834 41.7337 44.6209 41.6462C44.5366 41.615 44.4397 41.5993 44.3428 41.5993C44.1678 41.5993 43.9991 41.6556 43.8553 41.7525C40.8553 43.8337 39.4866 44.4493 38.896 44.6337C39.0803 44.0431 39.7053 42.665 41.7835 39.6744C41.9428 39.4494 41.9835 39.1557 41.8866 38.8994C41.7991 38.6369 41.5835 38.4369 41.3178 38.3557L36.3992 36.8932C36.046 36.7901 35.7992 36.5182 35.7273 36.1557C35.6554 35.7963 35.7742 35.4432 36.0554 35.2119C37.3367 34.1495 39.046 33.8026 40.6304 34.2744L44.246 35.3557C44.5898 35.4588 44.9585 35.3401 45.1742 35.0526C46.8366 32.8839 48.7648 30.4682 50.9117 27.8683C51.2085 27.5089 51.1679 26.9714 50.8085 26.6683L37.8398 15.4716C37.7273 15.3747 37.7367 15.2622 37.7429 15.1997C37.7523 15.1372 37.7898 15.031 37.9273 14.9747C38.7523 14.6716 39.6866 14.7122 40.4804 15.0872L55.0555 21.959C55.4087 22.1184 55.8243 22.0402 56.0805 21.7434C57.5774 20.0247 58.418 19.1027 58.7054 18.8152C60.3617 17.159 63.0585 17.159 64.7148 18.8152C65.5148 19.6152 65.9616 20.687 65.9616 21.8246C65.9616 22.9621 65.521 24.0245 64.7148 24.8339C64.4273 25.1214 63.5054 25.962 61.7866 27.4588C61.4897 27.7151 61.4022 28.1307 61.571 28.4838L62.8679 31.2369C62.8772 31.2462 62.8772 31.2525 62.8772 31.2619L68.4366 43.0521C68.8116 43.8521 68.8522 44.7803 68.5491 45.6052C68.5022 45.7427 68.3897 45.7802 68.3241 45.7896C68.2616 45.799 68.1491 45.8052 68.0522 45.6927L56.8619 32.7337C56.5587 32.3743 56.0212 32.3337 55.6619 32.6305C53.0619 34.7743 50.6463 36.7023 48.4775 38.368C48.1994 38.5742 48.0803 38.9525 48.1741 39.2868ZM1.72713 39.9993C1.72713 33.1025 3.574 26.6306 6.77398 21.0307C8.86149 22.0307 11.1427 22.7182 13.3646 23.3588C14.2459 23.6151 15.1239 23.8713 15.9802 24.1432C19.2114 25.1745 24.7489 27.6307 25.5329 32.4559C25.8517 34.4403 25.2923 36.4246 24.6923 38.5371C24.461 39.3621 24.2204 40.2089 24.036 41.0558C23.0829 45.4464 23.5798 49.9589 24.0673 54.3181C24.1548 55.1274 24.2423 55.9337 24.3235 56.7337C24.4985 58.6774 24.5954 60.5492 23.8767 62.0867C23.4673 62.918 22.8611 63.6242 22.2142 64.3836C21.9736 64.6555 21.7423 64.9367 21.5173 65.2085C20.0361 66.9992 18.8924 69.1272 18.1736 71.4178C8.24564 64.4961 1.72713 52.9992 1.72713 39.9993ZM19.6798 72.415C20.3267 70.1588 21.4173 68.0557 22.8642 66.3026C23.0798 66.0307 23.3048 65.7744 23.5361 65.5119C24.2236 64.7119 24.9454 63.8807 25.4486 62.8401C26.3673 60.8964 26.2642 58.7683 26.0642 56.5777C25.9829 55.7684 25.8954 54.9528 25.8017 54.1371C25.3298 49.9122 24.8486 45.5372 25.7454 41.4244C25.9142 40.6244 26.1548 39.7995 26.3767 39.0088C27.0017 36.8182 27.6392 34.5464 27.258 32.1839C26.3204 26.4558 20.1298 23.656 16.5204 22.5024C15.6486 22.2212 14.7517 21.9649 13.8579 21.7118C11.7548 21.1025 9.60173 20.465 7.68294 19.5587C12.4079 12.0963 19.6389 6.38366 28.1828 3.59969C28.3016 5.26216 28.8234 6.86214 29.6953 8.18405C31.0859 10.3684 33.214 11.8402 35.2859 13.2715L35.9328 13.7184C36.0922 13.8309 36.2515 13.934 36.414 14.0465C36.239 14.2871 36.1015 14.5653 36.0453 14.8778C35.9171 15.5903 36.164 16.2934 36.7078 16.7653L49.0357 27.406C47.2451 29.581 45.6108 31.6372 44.1639 33.509L41.117 32.6059C38.9733 31.9653 36.6702 32.4372 34.942 33.8684C34.1733 34.509 33.8233 35.509 34.0233 36.484C34.2233 37.4589 34.942 38.2433 35.8951 38.5308L39.6795 39.659C36.8389 43.9152 36.7202 45.2745 37.4702 46.0339C38.2233 46.7871 39.5889 46.6746 43.8388 43.834L44.967 47.609C45.2545 48.5683 46.0388 49.2808 47.0139 49.4808C47.1982 49.5214 47.3732 49.537 47.5576 49.537C48.3482 49.537 49.1107 49.1839 49.6295 48.562C51.0607 46.8433 51.5326 44.5308 50.8919 42.387L49.9888 39.3464C51.8606 37.8996 53.9075 36.2652 56.1013 34.4746L66.742 46.7929C67.2139 47.3367 67.917 47.5835 68.6295 47.4554C69.342 47.3273 69.9108 46.846 70.167 46.1679C70.6295 44.9117 70.567 43.4961 69.9983 42.2804L65.1733 32.0397C65.6046 32.1022 66.0358 32.1366 66.4608 32.1366C67.1733 32.1366 67.8702 32.0491 68.5421 31.8741C68.9984 31.7553 69.2796 31.2991 69.1671 30.8335C68.5984 28.4648 70.464 26.0335 72.5984 25.0335C73.2859 24.7054 74.0546 24.4804 74.9265 24.3367C77.0703 29.1116 78.2796 34.399 78.2796 39.9677C78.2796 43.0301 77.9046 46.0083 77.2234 48.8708C73.7985 49.0552 71.5516 50.1426 70.3985 52.2239C69.886 53.1926 69.7266 54.2239 69.5578 55.2239C69.4453 55.9051 69.3422 56.5426 69.1422 57.1426C68.4047 59.3332 66.1266 61.0956 63.0454 61.855C61.3079 62.2862 59.5423 62.4081 57.661 62.5362C56.5579 62.6081 55.4204 62.6894 54.3079 62.8331C53.4204 62.9362 52.3954 63.1362 51.5392 63.7925C50.283 64.7518 49.9548 66.3456 49.6923 67.6237C49.3486 69.3424 49.0111 71.0549 48.683 72.7674C48.3798 74.3268 48.0736 75.8861 47.7642 77.4486C45.2611 77.9674 42.6612 78.2393 40.0049 78.2393C32.5362 78.2705 25.5734 76.1181 19.6798 72.415ZM49.5981 77.0556C49.8543 75.7525 50.1106 74.44 50.3668 73.1369C50.7043 71.4244 51.0387 69.712 51.3762 67.9994C51.6074 66.9025 51.8387 65.7682 52.5855 65.1901C53.1043 64.7901 53.848 64.6526 54.5137 64.5745C55.5762 64.437 56.6887 64.3588 57.7699 64.287C59.6417 64.1588 61.5792 64.0307 63.4574 63.5588C67.1136 62.6557 69.848 60.4714 70.7698 57.7183C71.0167 56.9808 71.1386 56.237 71.2511 55.5276C71.3948 54.6245 71.5323 53.7683 71.898 53.0714C72.6823 51.6621 74.273 50.8714 76.7386 50.6465C73.0073 63.5528 62.6452 73.6708 49.5981 77.0556Z" fill="white" stroke="white" stroke-width="2" mask="url(#path-1-inside-1_1304_3350)"/>
</svg>
