<svg width="80" height="67" viewBox="0 0 80 67" fill="none" xmlns="http://www.w3.org/2000/svg">
<path d="M57.1555 38.4516C55.8437 37.3568 54.7982 36.0123 54.0487 34.4375C53.3583 32.9909 52.4739 31.7121 51.4318 30.6502C49.4954 28.681 46.7371 27.5435 43.8736 27.5435C41.0035 27.5435 38.242 28.6711 36.3089 30.6404C35.247 31.7088 34.3659 32.9976 33.6755 34.4539C32.9358 36.0123 31.8903 37.3568 30.5852 38.4516C29.4312 39.4181 28.4549 40.4308 27.6888 41.463C25.7097 44.1128 25.7623 47.5549 27.8072 50.2344C29.2898 52.1708 31.5024 53.2294 33.7741 53.2294C34.6749 53.2294 35.5921 53.0617 36.4666 52.7165C36.6507 52.6508 36.8381 52.5653 37.0123 52.4897C38.5772 51.7927 39.9744 50.596 41.1547 48.9555C41.8188 48.0383 42.736 47.5682 43.8801 47.5682C45.0242 47.5682 45.9349 48.0318 46.5891 48.9555C47.776 50.6059 49.1797 51.7927 50.771 52.4995C50.9321 52.5751 51.0899 52.6442 51.2411 52.7001C54.3709 53.9296 57.8721 52.9368 59.9435 50.2245C61.9883 47.5484 62.0311 44.1129 60.0618 41.4632C59.2958 40.4276 58.3194 39.4184 57.1654 38.4518L57.1555 38.4516ZM57.905 48.6756C56.8432 50.063 54.6996 51.3254 52.1649 50.3326C52.0564 50.2899 51.9282 50.2307 51.7704 50.1551C50.6165 49.6422 49.5579 48.7316 48.6472 47.4691C47.5295 45.8878 45.8265 45.01 43.8671 45.01C41.3685 45.01 39.8858 46.3382 39.0771 47.4593C38.1599 48.7316 37.1177 49.6389 35.9539 50.1616C35.8356 50.2208 35.7106 50.2701 35.5594 50.3293C33.0247 51.332 30.8877 50.0696 29.8292 48.679C28.7673 47.2916 28.1788 45.0692 29.7371 42.9816C30.3847 42.1071 31.2198 41.2392 32.2192 40.4074C33.8104 39.0793 35.0728 37.4454 35.9736 35.5517C36.5456 34.3484 37.2689 33.303 38.1204 32.4384C39.5834 30.9491 41.6809 30.0977 43.8671 30.0977C46.0566 30.0977 48.1507 30.9557 49.6137 32.4384C50.4652 33.3063 51.1786 34.3419 51.7507 35.5353C52.658 37.4388 53.9303 39.0793 55.5216 40.4075C56.5243 41.2393 57.356 42.1072 58.0037 42.9817C59.5521 45.0595 58.9636 47.2819 57.9018 48.6725L57.905 48.6756Z" fill="white"/>
<path d="M34.5496 26.308C35.4997 27.074 36.5682 27.4783 37.6038 27.4783C37.9818 27.4783 38.3599 27.4192 38.7215 27.3107C41.414 26.4953 42.6535 22.9941 41.5489 19.358C41.0426 17.7077 40.1188 16.2775 38.9484 15.3274C37.6531 14.2754 36.1277 13.9137 34.7732 14.3247C32.0807 15.14 30.8413 18.6413 31.9459 22.2773C32.4522 23.9277 33.376 25.3578 34.5463 26.308L34.5496 26.308ZM35.5194 16.764C35.6542 16.7213 35.7791 16.7048 35.9139 16.7048C36.5024 16.7048 37.0415 17.0665 37.3539 17.3097C38.1297 17.9311 38.7675 18.9502 39.1226 20.0943C39.8459 22.4844 39.1127 24.5227 37.995 24.8679C37.2717 25.0882 36.5386 24.6246 36.1671 24.3222C35.3912 23.7008 34.7534 22.6817 34.3983 21.5376C33.6751 19.1475 34.4082 17.1092 35.5259 16.764L35.5194 16.764Z" fill="white"/>
<path d="M30.6811 36.0126C31.9337 35.3551 32.7589 34.0171 32.9364 32.3602C33.104 30.8611 32.7523 29.1877 31.9435 27.6655C31.1348 26.1434 29.9578 24.904 28.6263 24.1971C27.1535 23.4147 25.5886 23.3457 24.3327 24.0032C21.8408 25.3149 21.2851 28.9872 23.0605 32.3536C24.415 34.9278 26.6867 36.4697 28.7907 36.4697C29.4384 36.4697 30.0794 36.325 30.6581 36.016L30.6811 36.0126ZM25.3256 31.1635C24.1651 28.9575 24.5004 26.8107 25.5261 26.265C26.2001 25.9099 27.0088 26.2321 27.4296 26.459C28.3042 26.9225 29.1293 27.797 29.6849 28.8655C30.2504 29.9274 30.5002 31.1044 30.3917 32.0873C30.3424 32.5574 30.1485 33.4089 29.4745 33.7607C28.4389 34.2998 26.4796 33.3728 25.3158 31.1701L25.3256 31.1635Z" fill="white"/>
<path d="M49.002 27.3067C49.3637 27.4152 49.7417 27.4744 50.1198 27.4744C51.1554 27.4744 52.2238 27.07 53.1739 26.3041C54.3509 25.3539 55.278 23.9239 55.7744 22.2734C56.8856 18.6308 55.6396 15.1361 52.947 14.3208C50.2545 13.4956 47.2759 15.7081 46.1713 19.3541C45.0601 22.9967 46.3061 26.4915 48.9987 27.3068L49.002 27.3067ZM48.6141 20.0971C49.2617 17.9601 50.728 16.7043 51.8293 16.7043C51.9641 16.7043 52.0825 16.7208 52.2074 16.7537C53.3252 17.089 54.0583 19.1338 53.335 21.5272C52.9898 22.6812 52.3421 23.6905 51.5663 24.3118C51.1948 24.6143 50.4649 25.0778 49.7383 24.8576C48.6206 24.5222 47.8874 22.4774 48.6107 20.084L48.6141 20.0971Z" fill="white"/>
<path d="M63.3906 24.0091C62.138 23.3516 60.5797 23.4207 59.097 24.2031C57.759 24.9099 56.582 26.1461 55.7798 27.6715C54.9711 29.1937 54.6193 30.8605 54.7869 32.3662C54.971 34.0231 55.7962 35.3546 57.0422 36.0186C57.6307 36.3309 58.2619 36.4723 58.9096 36.4723C61.0137 36.4723 63.2854 34.9239 64.6399 32.3563C66.4152 28.9898 65.8596 25.3208 63.3676 24.0058L63.3906 24.0091ZM62.3977 31.1629C61.2274 33.3689 59.2745 34.3026 58.2389 33.7535C57.565 33.3985 57.3809 32.5503 57.3217 32.0801C57.2132 31.0938 57.473 29.9169 58.0384 28.8583C58.6039 27.7964 59.4192 26.9219 60.2937 26.4518C60.5797 26.3006 61.0433 26.1066 61.5232 26.1066C61.7501 26.1066 61.9769 26.1493 62.1972 26.2677C63.2328 26.8134 63.5681 28.9602 62.3977 31.1662L62.3977 31.1629Z" fill="white"/>
<path d="M77.2547 13.446C75.4104 9.47456 72.7705 6.1574 69.3678 3.58305C65.38 0.620969 60.0081 -0.615203 54.9946 0.292148C50.5104 1.10089 46.779 3.46464 44.5173 6.94953C44.274 7.31117 44.0472 7.68266 43.8532 8.05088C43.6592 7.68924 43.4422 7.32761 43.2121 6.9726C41.0423 3.59627 37.4884 1.25875 33.2145 0.374458C28.6185 -0.569083 23.6276 0.331719 19.6989 2.74808C18.522 2.28453 17.2168 2.14317 15.9379 2.37001C14.5506 2.61329 13.3539 3.27079 12.5057 4.2209C11.6542 3.27079 10.4674 2.62317 9.09644 2.37001C7.25211 2.03467 5.26639 2.48836 3.8034 3.58312C2.58373 4.47406 1.62377 5.66091 0.959651 7.08443C-0.562504 10.3424 -0.260026 14.2546 1.7684 17.5719C3.09656 19.6923 5.25321 21.678 7.84389 23.2791C7.25541 30.0975 8.98799 37.2155 12.8015 43.4451C18.6929 52.8544 30.1465 61.5139 43.4449 66.5897C43.5896 66.6489 43.7474 66.6752 43.8986 66.6752C44.0499 66.6752 44.2109 66.6489 44.3523 66.5897C57.6735 61.4644 69.1212 52.8048 74.9629 43.435C80.7523 34.0257 81.6038 22.8052 77.2444 13.4388L77.2547 13.446ZM3.93863 16.2339C2.36388 13.6597 2.11072 10.645 3.27454 8.1629C3.7611 7.11087 4.42849 6.28566 5.31943 5.62819C6.03612 5.09889 6.94351 4.80301 7.87055 4.80301C8.13027 4.80301 8.38342 4.82931 8.64642 4.86876C9.61294 5.04629 10.4152 5.54271 10.8951 6.29227C11.0891 6.58815 11.214 6.89062 11.2666 7.2194C11.3686 7.85062 11.9143 8.32075 12.562 8.28784C13.2031 8.2714 13.7225 7.78156 13.7982 7.15031C13.831 6.85443 13.933 6.57827 14.1335 6.28243C14.6135 5.5493 15.4123 5.04626 16.3986 4.86876C17.569 4.65835 18.8052 4.94437 19.7158 5.61832C20.5903 6.28241 21.2544 7.10757 21.7343 8.15303C22.8948 10.6516 22.6615 13.6663 21.0933 16.2142C20.4719 17.207 18.0555 20.5472 12.5163 22.8024C11.5498 22.4079 10.672 21.9773 9.88952 21.5302C9.84021 21.4973 9.78103 21.4644 9.72185 21.4381C6.14497 19.3768 4.44531 17.0098 3.939 16.2109L3.93863 16.2339ZM72.8 42.0943C67.3131 50.8985 56.5332 59.0782 43.9089 64.0354C31.3107 59.1205 20.5211 50.9474 14.9815 42.1036C11.6742 36.6988 10.0501 30.5641 10.3197 24.6299C10.8918 24.8995 11.4737 25.1526 12.0621 25.3794C12.2068 25.4386 12.3646 25.4649 12.5158 25.4649C12.667 25.4649 12.8281 25.4386 12.9695 25.3794C17.4308 23.6633 21.2674 20.7407 23.2533 17.578C25.2718 14.2971 25.5579 10.3815 24.0357 7.10071C23.5491 6.03883 22.8916 5.11499 22.0829 4.32268C25.2883 2.68876 29.1282 2.14306 32.6949 2.87611C36.298 3.61582 39.2668 5.56206 41.0683 8.36305C41.8935 9.60907 42.4063 10.8978 42.6431 12.3016C42.745 12.9328 43.2414 13.3865 43.9384 13.37C44.5795 13.3536 45.0989 12.8637 45.1679 12.2325C45.3192 10.8616 45.7893 9.59914 46.6408 8.35312C48.5246 5.4502 51.6576 3.4809 55.445 2.79708C59.778 2.02121 64.4166 3.07323 67.8328 5.61786C70.9231 7.95857 73.2442 10.8681 74.9372 14.5138C78.9349 23.1076 78.1361 33.4174 72.8003 42.087L72.8 42.0943Z" fill="white"/>
</svg>
