<svg width="80" height="71" viewBox="0 0 80 71" fill="none" xmlns="http://www.w3.org/2000/svg">
<path d="M30.2383 0.5C38.3517 0.5 44.953 7.10889 44.9531 15.2334C44.9531 21.3513 41.206 26.6148 35.8867 28.8359L34.3691 29.4688L35.9824 29.7871C38.6413 30.3122 41.2257 31.1977 43.6416 32.4189L43.8574 32.5283L44.0771 32.4268C45.7197 31.667 47.5243 31.2647 49.3896 31.2646C52.5079 31.2646 55.4528 32.3804 57.7705 34.4277L58.1006 34.7197L58.4316 34.4277C60.7497 32.3834 63.6946 31.2646 66.8125 31.2646C70.2031 31.2647 73.3876 32.5839 75.7852 34.9844V34.9854C78.1824 37.3821 79.5032 40.5736 79.5 43.9648V43.9658C79.5 47.3611 78.1817 50.5497 75.7842 52.9502L58.3652 70.3896C58.294 70.4609 58.1993 70.4999 58.1045 70.5C58.0073 70.5 57.9148 70.4617 57.8428 70.3896L46.9824 59.5156L46.8359 59.3691H0.868164C0.665151 59.3691 0.5 59.2056 0.5 59C0.500127 44.5514 10.8354 32.473 24.4834 29.7842L26.0957 29.4668L24.5801 28.832C19.2674 26.6075 15.5234 21.351 15.5234 15.2334C15.5235 7.10857 22.1249 0.500031 30.2383 0.5ZM54.834 43.627L52.8535 49.1797C52.7974 49.3329 52.657 49.4297 52.5029 49.4297H38.7266L39.1885 50.1895C39.6776 50.9936 40.2668 51.7434 40.9473 52.4248L57.751 69.2529L58.1045 69.6074L58.458 69.2529L75.2656 52.4248C75.947 51.7426 76.5311 50.9936 77.0225 50.1914L77.4883 49.4297H63.9678L63.8496 49.7617L61.2568 57.0332C61.2006 57.1862 61.0602 57.2832 60.9062 57.2832C60.7493 57.2831 60.6099 57.1836 60.5576 57.0371V57.0361L55.7764 43.627L55.3057 42.3057L54.834 43.627ZM30.2354 29.9639C14.5441 29.9675 1.72347 42.5151 1.25391 58.1162L1.23828 58.6318H1.75391L44.8936 58.6309H46.0996L45.2471 57.7783L40.4248 52.9502C38.0273 50.5499 36.709 47.3612 36.709 43.9658C36.709 40.5705 38.0272 37.382 40.4248 34.9814C41.0063 34.3991 41.6385 33.8822 42.3076 33.4268L43.043 32.9258L42.2324 32.5576C38.4905 30.8585 34.3804 29.9639 30.249 29.9639H30.2354ZM66.8164 32.0029C63.8245 32.0029 60.9991 33.096 58.7979 35.0947L58.3662 35.5059C58.2183 35.6509 57.9853 35.6476 57.8438 35.5059H57.8428C55.5861 33.2502 52.5841 32.0029 49.3926 32.0029C46.2015 32.003 43.2004 33.2462 40.9434 35.5059C38.6865 37.7656 37.4445 40.7703 37.4443 43.9648C37.4443 45.4967 37.7368 46.9863 38.2822 48.3711L38.4072 48.6875H52.2402L52.3594 48.3555L54.9531 41.0811L54.9521 41.0801C55.0093 40.9295 55.1493 40.8351 55.3018 40.835C55.4394 40.835 55.5641 40.9109 55.6279 41.0283L55.6514 41.0811L60.4326 54.4912L60.9033 55.8115L61.374 54.4912L63.3555 48.9385C63.4116 48.7852 63.5519 48.6875 63.7061 48.6875H77.8008L77.9258 48.3721C78.4753 46.986 78.7646 45.4969 78.7646 43.9658C78.7646 40.7711 77.5227 37.7656 75.2656 35.5059C73.0087 33.2464 70.0074 32.0031 66.8164 32.0029ZM30.2451 1.24219C22.5393 1.24221 16.2707 7.51929 16.2705 15.2334C16.2705 22.9439 22.5346 29.221 30.2441 29.2246H30.252C37.9549 29.2207 44.2197 22.9475 44.2197 15.2334C44.2195 7.51964 37.9513 1.24219 30.2451 1.24219Z" fill="white" stroke="white"/>
</svg>
