<svg width="80" height="79" viewBox="0 0 80 79" fill="none" xmlns="http://www.w3.org/2000/svg">
<mask id="path-1-inside-1_1304_3330" fill="white">
<path fill-rule="evenodd" clip-rule="evenodd" d="M73.6915 1.60976H73.6872V0.902563C73.6872 0.855417 73.6872 0.803986 73.6786 0.756841C73.5968 0.268237 73.1321 -0.0660757 72.6415 0.01107L56.7331 2.58274C56.2942 2.65132 55.9801 3.03278 55.9801 3.46994V4.17713H55.9758V15.1365L55.0678 14.8751C54.5084 14.7165 53.9274 14.6393 53.3465 14.6393C52.2234 14.6393 51.0271 14.9222 50.1105 15.5951C49.422 16.1009 48.91 16.8252 48.91 17.7039C48.91 18.5825 49.4221 19.3068 50.1105 19.8126C51.0271 20.4812 52.2234 20.7684 53.3465 20.7684C54.4696 20.7684 55.666 20.4855 56.5825 19.8126C57.2753 19.3069 57.7831 18.5825 57.7831 17.7039V4.24096L71.8848 1.96082V12.5688L70.9768 12.3116C70.4174 12.153 69.8364 12.0759 69.2556 12.0759C68.1325 12.0759 66.9361 12.3587 66.0196 13.0317C65.3311 13.5374 64.819 14.2617 64.819 15.1404C64.819 16.0191 65.3311 16.7433 66.0196 17.2492C66.9362 17.9178 68.1325 18.2049 69.2556 18.2049C70.3787 18.2049 71.575 17.9221 72.4916 17.2492C73.1801 16.7434 73.6921 16.0191 73.6921 15.1404L73.6915 1.60976ZM69.255 16.397C68.5019 16.397 67.4434 16.1913 66.884 15.6384L66.3805 15.1369L66.884 14.6355C67.4434 14.0826 68.4976 13.8768 69.2507 13.8768C70.0037 13.8768 71.0623 14.0826 71.6174 14.6355L72.1208 15.1369L71.6174 15.6384C71.0666 16.1913 70.0123 16.397 69.255 16.397ZM53.3499 16.4485C54.1029 16.4485 55.1615 16.6542 55.7166 17.2071L56.2201 17.7085L55.7166 18.21C55.1572 18.7629 54.1029 18.9686 53.3499 18.9686C52.5968 18.9686 51.5383 18.7629 50.9789 18.21L50.4754 17.7085L50.9789 17.2071C51.5383 16.6542 52.5925 16.4485 53.3499 16.4485ZM78.0679 29.0369C79.3029 29.9455 80 31.3428 80 32.8686V55.1093C80 61.924 73.7604 67.8777 68.6358 71.6795C66.0625 73.5911 63.3128 75.3055 60.5028 76.8442C59.1645 77.5771 57.7745 78.3014 56.3846 78.9229C56.2684 78.9743 56.1436 79 56.0145 79C55.8596 79 55.7047 78.9614 55.567 78.8843C48.5873 74.9455 32.0244 63.995 32.0244 55.1053L32.0201 48.0462L30.9228 48.762C29.0638 49.9707 27.136 51.0936 25.1694 52.1222C24.3217 52.5637 23.4525 53.0094 22.5789 53.3995C22.4627 53.4509 22.3336 53.4766 22.2088 53.4766C22.0539 53.4766 21.899 53.438 21.7613 53.3609C15.3022 49.7135 0 39.5897 0 31.3605L0.00430213 11.1047C0.00430213 9.64318 0.6799 8.323 1.87187 7.47441C3.05522 6.63006 4.54416 6.41576 5.92547 6.87865C16.8125 10.5561 27.7165 9.90029 38.6258 6.57006C39.9985 6.15003 41.4486 6.39005 42.6062 7.24296C43.7638 8.09587 44.4178 9.40317 44.4178 10.8346V30.2884L44.9944 30.3998C54.711 32.2857 64.4236 31.1798 73.8259 28.3125C75.2889 27.8711 76.8329 28.1282 78.0679 29.0369ZM21.9242 51.3708L22.2512 51.5637L22.5955 51.3966C25.7368 49.8708 28.8652 48.0492 31.7182 46.0476L32.0194 45.8376V33.1592C32.0194 31.6033 32.738 30.1933 34.0118 29.2847C35.2768 28.3803 36.8647 28.1532 38.3365 28.6503C39.451 29.0275 40.5785 29.3532 41.7145 29.6533L42.6052 29.889V10.8379C42.6052 9.98929 42.2136 9.20065 41.5251 8.69494C40.8366 8.18923 39.9673 8.04776 39.1498 8.29634C27.8495 11.7423 16.6097 12.3938 5.3402 8.58779C4.52259 8.30919 3.62322 8.43777 2.92183 8.93924C2.21611 9.44499 1.81162 10.2422 1.81162 11.108V31.3594C1.81162 38.4571 16.2872 48.0748 21.9242 51.3708ZM78.1924 55.1082V32.8675C78.1924 31.9203 77.7577 31.0459 76.9918 30.4844C76.2302 29.923 75.2577 29.7644 74.3497 30.0387C62.1196 33.7675 49.9512 34.4748 37.7508 30.3559C37.4367 30.2487 37.1096 30.193 36.7783 30.193C36.1586 30.193 35.5648 30.3859 35.0613 30.7459C34.2739 31.3074 33.8263 32.1946 33.8263 33.1589V55.1077C33.8263 62.8397 49.5805 73.3194 55.7209 76.8975L56.0479 77.0903L56.3879 76.9232C63.9658 73.2587 78.1921 64.6442 78.1921 55.1071L78.1924 55.1082ZM26.0894 22.2563C28.624 19.4446 33.7318 19.4446 36.2664 22.2563C36.2664 19.8433 33.6415 18.0817 31.1757 18.0817C28.7143 18.0817 26.0894 19.8433 26.0894 22.2563ZM8.1496 22.2563C10.6842 19.4446 15.792 19.4446 18.3266 22.2563C18.3266 19.8433 15.7017 18.0817 13.236 18.0817C10.7745 18.0817 8.15389 19.8433 8.1496 22.2563ZM22.2084 35.2342C20.6033 35.2342 18.6324 36.2843 17.3588 37.2315C16.4981 37.8701 14.7682 39.4131 14.7682 40.5874C14.7682 41.0375 14.9704 41.4318 15.3448 41.6847C15.6633 41.899 16.0549 41.9718 16.4335 41.9718H27.9828C28.3615 41.9718 28.7531 41.899 29.0672 41.6847C29.4416 41.4318 29.6439 41.0332 29.6439 40.5874C29.6439 39.4131 27.914 37.8701 27.0533 37.2315C25.7839 36.2843 23.8177 35.2342 22.2084 35.2342ZM18.1204 38.9117L16.5197 40.176H27.8971L26.2964 38.9117C25.2679 38.1016 23.5509 37.0387 22.2084 37.0387C20.8701 37.0344 19.1575 38.0931 18.1204 38.9117ZM63.4022 59.6777C63.0709 59.4548 62.6621 59.382 62.2662 59.382H49.753C49.3571 59.382 48.9483 59.4548 48.617 59.6777C48.234 59.9391 48.0275 60.3463 48.0275 60.8049C48.0275 62.0735 49.8822 63.7193 50.8073 64.4051C52.1757 65.4166 54.2842 66.5352 56.0099 66.5352C57.7356 66.5352 59.8441 65.4166 61.2125 64.4051C62.1377 63.7193 63.9923 62.0735 63.9923 60.8049C63.9923 60.3463 63.7852 59.9391 63.4022 59.6777ZM56.0094 64.7352C57.5801 64.7352 59.5939 63.428 60.773 62.4336L62.2533 61.1864H49.7655L51.2458 62.4336C52.4249 63.4279 54.4387 64.7352 56.0094 64.7352ZM40.7157 45.3967C43.4354 42.2208 49.1413 42.2251 51.8607 45.3967C51.9726 42.6707 49.0464 40.6564 46.2881 40.6564C43.5298 40.6564 40.6038 42.6707 40.7157 45.3967ZM71.3031 45.3967C71.415 42.6707 68.4888 40.6564 65.7305 40.6564C62.9721 40.6564 60.0459 42.6707 60.1579 45.3967C62.8775 42.2208 68.5837 42.2208 71.3031 45.3967Z"/>
</mask>
<path fill-rule="evenodd" clip-rule="evenodd" d="M73.6915 1.60976H73.6872V0.902563C73.6872 0.855417 73.6872 0.803986 73.6786 0.756841C73.5968 0.268237 73.1321 -0.0660757 72.6415 0.01107L56.7331 2.58274C56.2942 2.65132 55.9801 3.03278 55.9801 3.46994V4.17713H55.9758V15.1365L55.0678 14.8751C54.5084 14.7165 53.9274 14.6393 53.3465 14.6393C52.2234 14.6393 51.0271 14.9222 50.1105 15.5951C49.422 16.1009 48.91 16.8252 48.91 17.7039C48.91 18.5825 49.4221 19.3068 50.1105 19.8126C51.0271 20.4812 52.2234 20.7684 53.3465 20.7684C54.4696 20.7684 55.666 20.4855 56.5825 19.8126C57.2753 19.3069 57.7831 18.5825 57.7831 17.7039V4.24096L71.8848 1.96082V12.5688L70.9768 12.3116C70.4174 12.153 69.8364 12.0759 69.2556 12.0759C68.1325 12.0759 66.9361 12.3587 66.0196 13.0317C65.3311 13.5374 64.819 14.2617 64.819 15.1404C64.819 16.0191 65.3311 16.7433 66.0196 17.2492C66.9362 17.9178 68.1325 18.2049 69.2556 18.2049C70.3787 18.2049 71.575 17.9221 72.4916 17.2492C73.1801 16.7434 73.6921 16.0191 73.6921 15.1404L73.6915 1.60976ZM69.255 16.397C68.5019 16.397 67.4434 16.1913 66.884 15.6384L66.3805 15.1369L66.884 14.6355C67.4434 14.0826 68.4976 13.8768 69.2507 13.8768C70.0037 13.8768 71.0623 14.0826 71.6174 14.6355L72.1208 15.1369L71.6174 15.6384C71.0666 16.1913 70.0123 16.397 69.255 16.397ZM53.3499 16.4485C54.1029 16.4485 55.1615 16.6542 55.7166 17.2071L56.2201 17.7085L55.7166 18.21C55.1572 18.7629 54.1029 18.9686 53.3499 18.9686C52.5968 18.9686 51.5383 18.7629 50.9789 18.21L50.4754 17.7085L50.9789 17.2071C51.5383 16.6542 52.5925 16.4485 53.3499 16.4485ZM78.0679 29.0369C79.3029 29.9455 80 31.3428 80 32.8686V55.1093C80 61.924 73.7604 67.8777 68.6358 71.6795C66.0625 73.5911 63.3128 75.3055 60.5028 76.8442C59.1645 77.5771 57.7745 78.3014 56.3846 78.9229C56.2684 78.9743 56.1436 79 56.0145 79C55.8596 79 55.7047 78.9614 55.567 78.8843C48.5873 74.9455 32.0244 63.995 32.0244 55.1053L32.0201 48.0462L30.9228 48.762C29.0638 49.9707 27.136 51.0936 25.1694 52.1222C24.3217 52.5637 23.4525 53.0094 22.5789 53.3995C22.4627 53.4509 22.3336 53.4766 22.2088 53.4766C22.0539 53.4766 21.899 53.438 21.7613 53.3609C15.3022 49.7135 0 39.5897 0 31.3605L0.00430213 11.1047C0.00430213 9.64318 0.6799 8.323 1.87187 7.47441C3.05522 6.63006 4.54416 6.41576 5.92547 6.87865C16.8125 10.5561 27.7165 9.90029 38.6258 6.57006C39.9985 6.15003 41.4486 6.39005 42.6062 7.24296C43.7638 8.09587 44.4178 9.40317 44.4178 10.8346V30.2884L44.9944 30.3998C54.711 32.2857 64.4236 31.1798 73.8259 28.3125C75.2889 27.8711 76.8329 28.1282 78.0679 29.0369ZM21.9242 51.3708L22.2512 51.5637L22.5955 51.3966C25.7368 49.8708 28.8652 48.0492 31.7182 46.0476L32.0194 45.8376V33.1592C32.0194 31.6033 32.738 30.1933 34.0118 29.2847C35.2768 28.3803 36.8647 28.1532 38.3365 28.6503C39.451 29.0275 40.5785 29.3532 41.7145 29.6533L42.6052 29.889V10.8379C42.6052 9.98929 42.2136 9.20065 41.5251 8.69494C40.8366 8.18923 39.9673 8.04776 39.1498 8.29634C27.8495 11.7423 16.6097 12.3938 5.3402 8.58779C4.52259 8.30919 3.62322 8.43777 2.92183 8.93924C2.21611 9.44499 1.81162 10.2422 1.81162 11.108V31.3594C1.81162 38.4571 16.2872 48.0748 21.9242 51.3708ZM78.1924 55.1082V32.8675C78.1924 31.9203 77.7577 31.0459 76.9918 30.4844C76.2302 29.923 75.2577 29.7644 74.3497 30.0387C62.1196 33.7675 49.9512 34.4748 37.7508 30.3559C37.4367 30.2487 37.1096 30.193 36.7783 30.193C36.1586 30.193 35.5648 30.3859 35.0613 30.7459C34.2739 31.3074 33.8263 32.1946 33.8263 33.1589V55.1077C33.8263 62.8397 49.5805 73.3194 55.7209 76.8975L56.0479 77.0903L56.3879 76.9232C63.9658 73.2587 78.1921 64.6442 78.1921 55.1071L78.1924 55.1082ZM26.0894 22.2563C28.624 19.4446 33.7318 19.4446 36.2664 22.2563C36.2664 19.8433 33.6415 18.0817 31.1757 18.0817C28.7143 18.0817 26.0894 19.8433 26.0894 22.2563ZM8.1496 22.2563C10.6842 19.4446 15.792 19.4446 18.3266 22.2563C18.3266 19.8433 15.7017 18.0817 13.236 18.0817C10.7745 18.0817 8.15389 19.8433 8.1496 22.2563ZM22.2084 35.2342C20.6033 35.2342 18.6324 36.2843 17.3588 37.2315C16.4981 37.8701 14.7682 39.4131 14.7682 40.5874C14.7682 41.0375 14.9704 41.4318 15.3448 41.6847C15.6633 41.899 16.0549 41.9718 16.4335 41.9718H27.9828C28.3615 41.9718 28.7531 41.899 29.0672 41.6847C29.4416 41.4318 29.6439 41.0332 29.6439 40.5874C29.6439 39.4131 27.914 37.8701 27.0533 37.2315C25.7839 36.2843 23.8177 35.2342 22.2084 35.2342ZM18.1204 38.9117L16.5197 40.176H27.8971L26.2964 38.9117C25.2679 38.1016 23.5509 37.0387 22.2084 37.0387C20.8701 37.0344 19.1575 38.0931 18.1204 38.9117ZM63.4022 59.6777C63.0709 59.4548 62.6621 59.382 62.2662 59.382H49.753C49.3571 59.382 48.9483 59.4548 48.617 59.6777C48.234 59.9391 48.0275 60.3463 48.0275 60.8049C48.0275 62.0735 49.8822 63.7193 50.8073 64.4051C52.1757 65.4166 54.2842 66.5352 56.0099 66.5352C57.7356 66.5352 59.8441 65.4166 61.2125 64.4051C62.1377 63.7193 63.9923 62.0735 63.9923 60.8049C63.9923 60.3463 63.7852 59.9391 63.4022 59.6777ZM56.0094 64.7352C57.5801 64.7352 59.5939 63.428 60.773 62.4336L62.2533 61.1864H49.7655L51.2458 62.4336C52.4249 63.4279 54.4387 64.7352 56.0094 64.7352ZM40.7157 45.3967C43.4354 42.2208 49.1413 42.2251 51.8607 45.3967C51.9726 42.6707 49.0464 40.6564 46.2881 40.6564C43.5298 40.6564 40.6038 42.6707 40.7157 45.3967ZM71.3031 45.3967C71.415 42.6707 68.4888 40.6564 65.7305 40.6564C62.9721 40.6564 60.0459 42.6707 60.1579 45.3967C62.8775 42.2208 68.5837 42.2208 71.3031 45.3967Z" fill="white" stroke="white" stroke-width="2" mask="url(#path-1-inside-1_1304_3330)"/>
</svg>
