<svg width="80" height="80" viewBox="0 0 80 80" fill="none" xmlns="http://www.w3.org/2000/svg">
<mask id="path-1-inside-1_1304_3354" fill="white">
<path fill-rule="evenodd" clip-rule="evenodd" d="M10.3304 41.0417C9.84696 43.4208 7.74266 45.2154 5.2174 45.2154C2.33738 45.2154 0 42.8781 0 39.9983C0 37.1184 2.33738 34.7811 5.2174 34.7811C7.74257 34.7811 9.84693 36.5758 10.3304 38.9548H16.72C16.7722 37.7827 16.9148 36.6106 17.1443 35.4524C17.2278 35.028 17.5687 34.6941 18 34.6246L21.993 33.9707C22.2713 33.1325 22.6122 32.3186 23.0052 31.529L20.6435 28.2388C20.3896 27.884 20.3826 27.411 20.6226 27.0493C21.28 26.0684 22.007 25.1398 22.8 24.2738L18.2853 19.7557C16.2609 21.0948 13.4992 20.8757 11.7183 19.0914C9.68003 17.0532 9.68003 13.7491 11.7183 11.7109C13.7531 9.67613 17.0609 9.67613 19.0957 11.7109C20.8801 13.4951 21.1027 16.2533 19.7601 18.2775L24.2748 22.7955C25.1444 22.0025 26.0731 21.2722 27.054 20.6183C27.4157 20.3783 27.8887 20.3852 28.2435 20.6391L31.5304 22.9972C32.32 22.6042 33.1374 22.2668 33.9722 21.9851L34.6296 17.9923C34.6991 17.5644 35.0296 17.2236 35.4574 17.1401C36.6157 16.9071 37.7878 16.768 38.96 16.7158V10.33C36.5808 9.84653 34.7861 7.73876 34.7861 5.21717C34.7861 2.33728 37.1235 0 40.0035 0C42.8835 0 45.2209 2.33728 45.2209 5.21717C45.2209 7.73876 43.4261 9.8465 41.047 10.33V16.7158C42.2226 16.768 43.3913 16.9106 44.5496 17.1401C44.9739 17.2236 45.3044 17.5644 45.3739 17.9923L46.0313 21.9851C46.8661 22.2669 47.6835 22.6042 48.4731 22.9972L51.76 20.6391C52.1148 20.3852 52.5878 20.3748 52.9495 20.6183C53.9304 21.2756 54.8591 22.0026 55.7252 22.7955L60.2434 18.2775C58.9008 16.2533 59.1234 13.4951 60.9078 11.7109C62.9426 9.67613 66.2504 9.67613 68.2852 11.7109C70.3234 13.7491 70.3234 17.0532 68.2852 19.0914C66.5008 20.8722 63.7425 21.0948 61.7182 19.7557L57.2 24.2738C57.993 25.1433 58.72 26.0684 59.3774 27.0493C59.6208 27.411 59.6139 27.884 59.3565 28.2388L56.9948 31.5256C57.3878 32.3186 57.7287 33.1325 58.007 33.9672L62 34.6246C62.4278 34.6941 62.7687 35.0245 62.8557 35.4524C63.0852 36.6106 63.2244 37.7827 63.28 38.9548H69.6696C70.153 36.5758 72.2573 34.7811 74.7826 34.7811C77.6626 34.7811 80 37.1184 80 39.9983C80 42.8781 77.6626 45.2154 74.7826 45.2154C72.2609 45.2154 70.1531 43.4208 69.6696 41.0417H63.28C63.2278 42.2173 63.0852 43.3859 62.8557 44.5442C62.7687 44.9685 62.4313 45.2989 62 45.3719L58.007 46.0258C57.7287 46.8641 57.3878 47.6814 56.9948 48.4675L59.353 51.7577C59.6069 52.109 59.6139 52.5855 59.3739 52.9472C58.7165 53.9281 57.9895 54.8567 57.1965 55.7228L61.7147 60.2408C63.7391 58.9017 66.4973 59.1209 68.2817 60.9051C70.32 62.9433 70.32 66.2475 68.2817 68.2857C66.2469 70.3204 62.9391 70.3204 60.9043 68.2857C59.1199 66.5049 58.9008 63.7467 60.2399 61.719L55.7217 57.201C54.8556 57.994 53.9269 58.7209 52.946 59.3783C52.5843 59.6182 52.1113 59.6113 51.7565 59.3574L48.4696 56.9993C47.68 57.3923 46.8626 57.7297 46.0278 58.0079L45.3704 62.0008C45.3009 62.4286 44.9705 62.7694 44.5461 62.8564C43.3878 63.086 42.2157 63.2286 41.0435 63.2807V69.67C43.4226 70.1535 45.2174 72.2612 45.2174 74.7828C45.2174 77.6627 42.88 80 40 80C37.12 80 34.7826 77.6627 34.7826 74.7828C34.7826 72.2612 36.5774 70.1535 38.9565 69.67V63.2807C37.7843 63.2286 36.6122 63.086 35.4539 62.8564C35.0261 62.7729 34.6956 62.4321 34.6261 62.0008L33.9687 58.0079C33.1339 57.7297 32.3165 57.3888 31.5269 56.9958L28.24 59.3539C27.8852 59.6078 27.4122 59.6148 27.0505 59.3748C26.0696 58.7209 25.1409 57.9905 24.2714 57.1975L19.7566 61.7155C21.0992 63.7398 20.8766 66.4979 19.0923 68.2822C17.0574 70.3169 13.7497 70.3169 11.7148 68.2822C9.67656 66.2475 9.67656 62.9398 11.7148 60.9016C13.4957 59.1208 16.2575 58.8982 18.2818 60.2373L22.7965 55.7193C22.0035 54.8532 21.2766 53.9246 20.6192 52.9437C20.3792 52.582 20.3861 52.109 20.64 51.7543L23.0017 48.4675C22.6087 47.6779 22.2678 46.8606 21.9896 46.0258L17.9965 45.3719C17.5687 45.3024 17.2278 44.972 17.1409 44.5442C16.9113 43.3859 16.7687 42.2138 16.7165 41.0417H10.327H10.3304ZM8.3478 39.9983C8.3478 38.2696 6.94608 36.868 5.2174 36.868C3.49219 36.868 2.08699 38.2696 2.08699 39.9983C2.08699 41.7269 3.49219 43.1285 5.2174 43.1285C6.94608 43.1285 8.3478 41.7269 8.3478 39.9983ZM24.998 24.9934C24.1841 25.8072 23.4397 26.6837 22.7684 27.6193L25.071 30.8296C25.304 31.1566 25.3319 31.5878 25.1406 31.9357C24.5806 32.9687 24.1284 34.0608 23.791 35.1911C23.6762 35.5737 23.3528 35.8589 22.9597 35.925L19.0606 36.565C18.8728 37.7023 18.7824 38.8501 18.7824 39.9979C18.7824 41.1457 18.8763 42.2934 19.0606 43.4273L22.9597 44.0708C23.3528 44.1368 23.6763 44.4186 23.791 44.8046C24.1249 45.9315 24.5771 47.0237 25.1406 48.0566C25.3319 48.4114 25.304 48.8392 25.071 49.1627L22.7684 52.373C23.4397 53.3086 24.184 54.1851 24.998 54.9955C25.8084 55.8059 26.6884 56.5536 27.6241 57.2249L30.8345 54.9225C31.1615 54.6894 31.5893 54.6616 31.9406 54.8529C32.9737 55.4163 34.0658 55.8685 35.1927 56.2024C35.5753 56.3137 35.8605 56.6406 35.9266 57.0336L36.5666 60.9326C37.704 61.1204 38.8518 61.2108 40.0032 61.2108C41.151 61.2108 42.2988 61.1204 43.4328 60.9326L44.0728 57.0336C44.1354 56.6371 44.4241 56.3137 44.8032 56.2024C45.9336 55.8685 47.0223 55.4163 48.0588 54.8529C48.4101 54.6616 48.8379 54.6894 49.1649 54.9225L52.3788 57.2249C53.3145 56.5536 54.191 55.8058 55.0014 54.9955C55.8153 54.1851 56.5596 53.3086 57.2309 52.373L54.9249 49.1627C54.6919 48.8357 54.664 48.4079 54.8553 48.0566C55.4153 47.0236 55.8675 45.9315 56.2049 44.8046C56.3162 44.4221 56.6431 44.1368 57.0362 44.0708L60.9353 43.4273C61.1231 42.2935 61.2135 41.1457 61.2135 39.9979C61.2135 38.8501 61.1196 37.7024 60.9353 36.565L57.0362 35.925C56.6431 35.8589 56.3196 35.5737 56.2049 35.1911C55.871 34.0642 55.4188 32.9721 54.8553 31.9357C54.664 31.5844 54.6919 31.1531 54.9249 30.8296L57.2309 27.6193C56.5596 26.6837 55.8118 25.8072 55.0014 24.9934C54.191 24.183 53.311 23.4352 52.3753 22.7639L49.1649 25.0698C48.8414 25.3029 48.4101 25.3272 48.0588 25.1394C47.0222 24.5759 45.9336 24.1273 44.8032 23.7934C44.4206 23.6786 44.1354 23.3551 44.0728 22.9586L43.4328 19.0597C42.2989 18.8719 41.151 18.7815 40.0032 18.7815C38.8553 18.7815 37.7075 18.8719 36.5666 19.0597L35.9266 22.9586C35.864 23.3551 35.5788 23.6786 35.1927 23.7934C34.0658 24.1273 32.9736 24.5794 31.9406 25.1394C31.5858 25.3307 31.158 25.3063 30.8345 25.0698L27.6241 22.7639C26.6884 23.4352 25.8084 24.183 24.998 24.9934ZM17.6171 17.6163C18.8415 16.392 18.8415 14.4094 17.6171 13.1886C16.3962 11.9643 14.4136 11.9643 13.1893 13.1886C11.9684 14.4094 11.9684 16.392 13.1893 17.6163C14.4136 18.8371 16.3962 18.8371 17.6171 17.6163ZM39.9999 8.34371C41.7251 8.34371 43.1303 6.94205 43.1303 5.21344C43.1303 3.48483 41.7286 2.08318 39.9999 2.08318C38.2712 2.08318 36.8695 3.48483 36.8695 5.21344C36.8695 6.94205 38.2712 8.34371 39.9999 8.34371ZM62.3791 17.6163C63.6035 18.8371 65.5861 18.8371 66.807 17.6163C68.0313 16.392 68.0313 14.4094 66.807 13.1886C65.5861 11.9643 63.6035 11.9643 62.3791 13.1886C61.1583 14.4094 61.1583 16.392 62.3791 17.6163ZM71.6521 39.9945C71.6521 41.7231 73.0538 43.1248 74.7825 43.1248C76.5112 43.1248 77.9129 41.7231 77.9129 39.9945C77.9129 38.2659 76.5112 36.8643 74.7825 36.8643C73.0538 36.8643 71.6521 38.2659 71.6521 39.9945ZM62.3791 62.3763C61.1583 63.5971 61.1583 65.5797 62.3791 66.804C63.6035 68.0248 65.5861 68.0248 66.807 66.804C68.0313 65.5797 68.0313 63.5971 66.807 62.3763C65.5861 61.152 63.6035 61.152 62.3791 62.3763ZM39.9999 71.6453C38.2712 71.6453 36.8695 73.047 36.8695 74.7756C36.8695 76.5042 38.2712 77.9059 39.9999 77.9059C41.7251 77.9059 43.1303 76.5042 43.1303 74.7756C43.1303 73.0505 41.7286 71.6453 39.9999 71.6453ZM17.6171 62.3763C16.3962 61.152 14.4136 61.152 13.1893 62.3763C11.9684 63.5971 11.9684 65.5797 13.1893 66.804C14.4136 68.0248 16.3962 68.0248 17.6171 66.804C18.8415 65.5797 18.8415 63.5971 17.6171 62.3763ZM38.9563 49.3267C37.8606 49.1633 36.8415 48.652 36.0485 47.859C35.5129 47.3234 35.1059 46.6869 34.8485 45.9912C34.6467 45.4486 34.9215 44.8505 35.4607 44.6487C36.0033 44.447 36.6015 44.7217 36.8032 45.2608C36.9563 45.6782 37.2032 46.0608 37.5232 46.3842C38.1111 46.972 38.9076 47.3024 39.7354 47.3024H39.9998C40.8276 47.3024 41.6241 46.972 42.212 46.3842C42.7963 45.7964 43.1267 45 43.1267 44.1722C43.1267 43.3409 42.7963 42.5444 42.212 41.9601C41.6241 41.3723 40.8276 41.0419 39.9998 41.0419C38.6154 41.0419 37.2867 40.4923 36.3094 39.515C35.332 38.5342 34.7825 37.2091 34.7825 35.8248C34.7825 34.4405 35.332 33.1153 36.3094 32.138C37.0398 31.4076 37.9616 30.9172 38.9564 30.7155V28.8721C38.9564 28.2947 39.4259 27.8286 39.9999 27.8286C40.5738 27.8286 41.0434 28.2982 41.0434 28.8721V30.6702C42.139 30.8372 43.1581 31.3485 43.9512 32.138C44.4868 32.6736 44.8903 33.3135 45.1512 34.0092C45.3529 34.5483 45.0782 35.15 44.5355 35.3517C43.9964 35.5535 43.3947 35.2787 43.193 34.7361C43.0399 34.3187 42.793 33.9361 42.473 33.6127C41.8886 33.0284 41.0886 32.6945 40.2608 32.6945H39.9999C39.1686 32.6945 38.3721 33.0249 37.7877 33.6127C37.1999 34.2005 36.8695 34.997 36.8695 35.8248C36.8695 36.6561 37.1965 37.4525 37.7877 38.0369C38.3721 38.6247 39.1721 38.9551 39.9999 38.9551C41.3843 38.9551 42.7095 39.5046 43.6868 40.4855C44.6642 41.4629 45.2137 42.7879 45.2137 44.1722C45.2137 45.5565 44.6642 46.8852 43.6868 47.859C42.9564 48.5894 42.0346 49.0798 41.0398 49.2816V51.1284C41.0398 51.7058 40.5737 52.1719 39.9963 52.1719C39.4189 52.1719 38.9528 51.7058 38.9528 51.1284V49.3303L38.9563 49.3267Z"/>
</mask>
<path fill-rule="evenodd" clip-rule="evenodd" d="M10.3304 41.0417C9.84696 43.4208 7.74266 45.2154 5.2174 45.2154C2.33738 45.2154 0 42.8781 0 39.9983C0 37.1184 2.33738 34.7811 5.2174 34.7811C7.74257 34.7811 9.84693 36.5758 10.3304 38.9548H16.72C16.7722 37.7827 16.9148 36.6106 17.1443 35.4524C17.2278 35.028 17.5687 34.6941 18 34.6246L21.993 33.9707C22.2713 33.1325 22.6122 32.3186 23.0052 31.529L20.6435 28.2388C20.3896 27.884 20.3826 27.411 20.6226 27.0493C21.28 26.0684 22.007 25.1398 22.8 24.2738L18.2853 19.7557C16.2609 21.0948 13.4992 20.8757 11.7183 19.0914C9.68003 17.0532 9.68003 13.7491 11.7183 11.7109C13.7531 9.67613 17.0609 9.67613 19.0957 11.7109C20.8801 13.4951 21.1027 16.2533 19.7601 18.2775L24.2748 22.7955C25.1444 22.0025 26.0731 21.2722 27.054 20.6183C27.4157 20.3783 27.8887 20.3852 28.2435 20.6391L31.5304 22.9972C32.32 22.6042 33.1374 22.2668 33.9722 21.9851L34.6296 17.9923C34.6991 17.5644 35.0296 17.2236 35.4574 17.1401C36.6157 16.9071 37.7878 16.768 38.96 16.7158V10.33C36.5808 9.84653 34.7861 7.73876 34.7861 5.21717C34.7861 2.33728 37.1235 0 40.0035 0C42.8835 0 45.2209 2.33728 45.2209 5.21717C45.2209 7.73876 43.4261 9.8465 41.047 10.33V16.7158C42.2226 16.768 43.3913 16.9106 44.5496 17.1401C44.9739 17.2236 45.3044 17.5644 45.3739 17.9923L46.0313 21.9851C46.8661 22.2669 47.6835 22.6042 48.4731 22.9972L51.76 20.6391C52.1148 20.3852 52.5878 20.3748 52.9495 20.6183C53.9304 21.2756 54.8591 22.0026 55.7252 22.7955L60.2434 18.2775C58.9008 16.2533 59.1234 13.4951 60.9078 11.7109C62.9426 9.67613 66.2504 9.67613 68.2852 11.7109C70.3234 13.7491 70.3234 17.0532 68.2852 19.0914C66.5008 20.8722 63.7425 21.0948 61.7182 19.7557L57.2 24.2738C57.993 25.1433 58.72 26.0684 59.3774 27.0493C59.6208 27.411 59.6139 27.884 59.3565 28.2388L56.9948 31.5256C57.3878 32.3186 57.7287 33.1325 58.007 33.9672L62 34.6246C62.4278 34.6941 62.7687 35.0245 62.8557 35.4524C63.0852 36.6106 63.2244 37.7827 63.28 38.9548H69.6696C70.153 36.5758 72.2573 34.7811 74.7826 34.7811C77.6626 34.7811 80 37.1184 80 39.9983C80 42.8781 77.6626 45.2154 74.7826 45.2154C72.2609 45.2154 70.1531 43.4208 69.6696 41.0417H63.28C63.2278 42.2173 63.0852 43.3859 62.8557 44.5442C62.7687 44.9685 62.4313 45.2989 62 45.3719L58.007 46.0258C57.7287 46.8641 57.3878 47.6814 56.9948 48.4675L59.353 51.7577C59.6069 52.109 59.6139 52.5855 59.3739 52.9472C58.7165 53.9281 57.9895 54.8567 57.1965 55.7228L61.7147 60.2408C63.7391 58.9017 66.4973 59.1209 68.2817 60.9051C70.32 62.9433 70.32 66.2475 68.2817 68.2857C66.2469 70.3204 62.9391 70.3204 60.9043 68.2857C59.1199 66.5049 58.9008 63.7467 60.2399 61.719L55.7217 57.201C54.8556 57.994 53.9269 58.7209 52.946 59.3783C52.5843 59.6182 52.1113 59.6113 51.7565 59.3574L48.4696 56.9993C47.68 57.3923 46.8626 57.7297 46.0278 58.0079L45.3704 62.0008C45.3009 62.4286 44.9705 62.7694 44.5461 62.8564C43.3878 63.086 42.2157 63.2286 41.0435 63.2807V69.67C43.4226 70.1535 45.2174 72.2612 45.2174 74.7828C45.2174 77.6627 42.88 80 40 80C37.12 80 34.7826 77.6627 34.7826 74.7828C34.7826 72.2612 36.5774 70.1535 38.9565 69.67V63.2807C37.7843 63.2286 36.6122 63.086 35.4539 62.8564C35.0261 62.7729 34.6956 62.4321 34.6261 62.0008L33.9687 58.0079C33.1339 57.7297 32.3165 57.3888 31.5269 56.9958L28.24 59.3539C27.8852 59.6078 27.4122 59.6148 27.0505 59.3748C26.0696 58.7209 25.1409 57.9905 24.2714 57.1975L19.7566 61.7155C21.0992 63.7398 20.8766 66.4979 19.0923 68.2822C17.0574 70.3169 13.7497 70.3169 11.7148 68.2822C9.67656 66.2475 9.67656 62.9398 11.7148 60.9016C13.4957 59.1208 16.2575 58.8982 18.2818 60.2373L22.7965 55.7193C22.0035 54.8532 21.2766 53.9246 20.6192 52.9437C20.3792 52.582 20.3861 52.109 20.64 51.7543L23.0017 48.4675C22.6087 47.6779 22.2678 46.8606 21.9896 46.0258L17.9965 45.3719C17.5687 45.3024 17.2278 44.972 17.1409 44.5442C16.9113 43.3859 16.7687 42.2138 16.7165 41.0417H10.327H10.3304ZM8.3478 39.9983C8.3478 38.2696 6.94608 36.868 5.2174 36.868C3.49219 36.868 2.08699 38.2696 2.08699 39.9983C2.08699 41.7269 3.49219 43.1285 5.2174 43.1285C6.94608 43.1285 8.3478 41.7269 8.3478 39.9983ZM24.998 24.9934C24.1841 25.8072 23.4397 26.6837 22.7684 27.6193L25.071 30.8296C25.304 31.1566 25.3319 31.5878 25.1406 31.9357C24.5806 32.9687 24.1284 34.0608 23.791 35.1911C23.6762 35.5737 23.3528 35.8589 22.9597 35.925L19.0606 36.565C18.8728 37.7023 18.7824 38.8501 18.7824 39.9979C18.7824 41.1457 18.8763 42.2934 19.0606 43.4273L22.9597 44.0708C23.3528 44.1368 23.6763 44.4186 23.791 44.8046C24.1249 45.9315 24.5771 47.0237 25.1406 48.0566C25.3319 48.4114 25.304 48.8392 25.071 49.1627L22.7684 52.373C23.4397 53.3086 24.184 54.1851 24.998 54.9955C25.8084 55.8059 26.6884 56.5536 27.6241 57.2249L30.8345 54.9225C31.1615 54.6894 31.5893 54.6616 31.9406 54.8529C32.9737 55.4163 34.0658 55.8685 35.1927 56.2024C35.5753 56.3137 35.8605 56.6406 35.9266 57.0336L36.5666 60.9326C37.704 61.1204 38.8518 61.2108 40.0032 61.2108C41.151 61.2108 42.2988 61.1204 43.4328 60.9326L44.0728 57.0336C44.1354 56.6371 44.4241 56.3137 44.8032 56.2024C45.9336 55.8685 47.0223 55.4163 48.0588 54.8529C48.4101 54.6616 48.8379 54.6894 49.1649 54.9225L52.3788 57.2249C53.3145 56.5536 54.191 55.8058 55.0014 54.9955C55.8153 54.1851 56.5596 53.3086 57.2309 52.373L54.9249 49.1627C54.6919 48.8357 54.664 48.4079 54.8553 48.0566C55.4153 47.0236 55.8675 45.9315 56.2049 44.8046C56.3162 44.4221 56.6431 44.1368 57.0362 44.0708L60.9353 43.4273C61.1231 42.2935 61.2135 41.1457 61.2135 39.9979C61.2135 38.8501 61.1196 37.7024 60.9353 36.565L57.0362 35.925C56.6431 35.8589 56.3196 35.5737 56.2049 35.1911C55.871 34.0642 55.4188 32.9721 54.8553 31.9357C54.664 31.5844 54.6919 31.1531 54.9249 30.8296L57.2309 27.6193C56.5596 26.6837 55.8118 25.8072 55.0014 24.9934C54.191 24.183 53.311 23.4352 52.3753 22.7639L49.1649 25.0698C48.8414 25.3029 48.4101 25.3272 48.0588 25.1394C47.0222 24.5759 45.9336 24.1273 44.8032 23.7934C44.4206 23.6786 44.1354 23.3551 44.0728 22.9586L43.4328 19.0597C42.2989 18.8719 41.151 18.7815 40.0032 18.7815C38.8553 18.7815 37.7075 18.8719 36.5666 19.0597L35.9266 22.9586C35.864 23.3551 35.5788 23.6786 35.1927 23.7934C34.0658 24.1273 32.9736 24.5794 31.9406 25.1394C31.5858 25.3307 31.158 25.3063 30.8345 25.0698L27.6241 22.7639C26.6884 23.4352 25.8084 24.183 24.998 24.9934ZM17.6171 17.6163C18.8415 16.392 18.8415 14.4094 17.6171 13.1886C16.3962 11.9643 14.4136 11.9643 13.1893 13.1886C11.9684 14.4094 11.9684 16.392 13.1893 17.6163C14.4136 18.8371 16.3962 18.8371 17.6171 17.6163ZM39.9999 8.34371C41.7251 8.34371 43.1303 6.94205 43.1303 5.21344C43.1303 3.48483 41.7286 2.08318 39.9999 2.08318C38.2712 2.08318 36.8695 3.48483 36.8695 5.21344C36.8695 6.94205 38.2712 8.34371 39.9999 8.34371ZM62.3791 17.6163C63.6035 18.8371 65.5861 18.8371 66.807 17.6163C68.0313 16.392 68.0313 14.4094 66.807 13.1886C65.5861 11.9643 63.6035 11.9643 62.3791 13.1886C61.1583 14.4094 61.1583 16.392 62.3791 17.6163ZM71.6521 39.9945C71.6521 41.7231 73.0538 43.1248 74.7825 43.1248C76.5112 43.1248 77.9129 41.7231 77.9129 39.9945C77.9129 38.2659 76.5112 36.8643 74.7825 36.8643C73.0538 36.8643 71.6521 38.2659 71.6521 39.9945ZM62.3791 62.3763C61.1583 63.5971 61.1583 65.5797 62.3791 66.804C63.6035 68.0248 65.5861 68.0248 66.807 66.804C68.0313 65.5797 68.0313 63.5971 66.807 62.3763C65.5861 61.152 63.6035 61.152 62.3791 62.3763ZM39.9999 71.6453C38.2712 71.6453 36.8695 73.047 36.8695 74.7756C36.8695 76.5042 38.2712 77.9059 39.9999 77.9059C41.7251 77.9059 43.1303 76.5042 43.1303 74.7756C43.1303 73.0505 41.7286 71.6453 39.9999 71.6453ZM17.6171 62.3763C16.3962 61.152 14.4136 61.152 13.1893 62.3763C11.9684 63.5971 11.9684 65.5797 13.1893 66.804C14.4136 68.0248 16.3962 68.0248 17.6171 66.804C18.8415 65.5797 18.8415 63.5971 17.6171 62.3763ZM38.9563 49.3267C37.8606 49.1633 36.8415 48.652 36.0485 47.859C35.5129 47.3234 35.1059 46.6869 34.8485 45.9912C34.6467 45.4486 34.9215 44.8505 35.4607 44.6487C36.0033 44.447 36.6015 44.7217 36.8032 45.2608C36.9563 45.6782 37.2032 46.0608 37.5232 46.3842C38.1111 46.972 38.9076 47.3024 39.7354 47.3024H39.9998C40.8276 47.3024 41.6241 46.972 42.212 46.3842C42.7963 45.7964 43.1267 45 43.1267 44.1722C43.1267 43.3409 42.7963 42.5444 42.212 41.9601C41.6241 41.3723 40.8276 41.0419 39.9998 41.0419C38.6154 41.0419 37.2867 40.4923 36.3094 39.515C35.332 38.5342 34.7825 37.2091 34.7825 35.8248C34.7825 34.4405 35.332 33.1153 36.3094 32.138C37.0398 31.4076 37.9616 30.9172 38.9564 30.7155V28.8721C38.9564 28.2947 39.4259 27.8286 39.9999 27.8286C40.5738 27.8286 41.0434 28.2982 41.0434 28.8721V30.6702C42.139 30.8372 43.1581 31.3485 43.9512 32.138C44.4868 32.6736 44.8903 33.3135 45.1512 34.0092C45.3529 34.5483 45.0782 35.15 44.5355 35.3517C43.9964 35.5535 43.3947 35.2787 43.193 34.7361C43.0399 34.3187 42.793 33.9361 42.473 33.6127C41.8886 33.0284 41.0886 32.6945 40.2608 32.6945H39.9999C39.1686 32.6945 38.3721 33.0249 37.7877 33.6127C37.1999 34.2005 36.8695 34.997 36.8695 35.8248C36.8695 36.6561 37.1965 37.4525 37.7877 38.0369C38.3721 38.6247 39.1721 38.9551 39.9999 38.9551C41.3843 38.9551 42.7095 39.5046 43.6868 40.4855C44.6642 41.4629 45.2137 42.7879 45.2137 44.1722C45.2137 45.5565 44.6642 46.8852 43.6868 47.859C42.9564 48.5894 42.0346 49.0798 41.0398 49.2816V51.1284C41.0398 51.7058 40.5737 52.1719 39.9963 52.1719C39.4189 52.1719 38.9528 51.7058 38.9528 51.1284V49.3303L38.9563 49.3267Z" fill="white" stroke="white" stroke-width="2" mask="url(#path-1-inside-1_1304_3354)"/>
</svg>
