<svg width="76" height="80" viewBox="0 0 76 80" fill="none" xmlns="http://www.w3.org/2000/svg">
<path d="M13.1992 48.0122C13.1289 48.0122 13.0586 48.0005 13 48.0005C12.5 48.0005 12.0312 48.1802 11.6602 48.52C11.2383 48.899 11 49.4419 11 50.0005V59.0005C11 63.4107 14.5898 67.0005 19 67.0005H27.8281C28.9492 67.0005 29.8984 66.2115 29.9883 65.1997C30.0469 64.6216 29.8594 64.0708 29.4766 63.6489C29.0977 63.2271 28.5547 62.9888 27.9961 62.9888H18.9961C16.7852 62.9888 14.9961 61.1997 14.9961 58.9888V50.1607C14.9961 49.0396 14.207 48.0904 13.1953 48.0005L13.1992 48.0122Z" fill="white"/>
<path d="M62.7995 31.9878C63.3893 32.0386 63.9206 31.8667 64.3503 31.4761C64.7722 31.0972 65.0104 30.5542 65.0104 29.9956V20.9956C65.0104 16.5854 61.4206 12.9956 57.0104 12.9956H48.0104C47.4518 12.9956 46.9088 13.2339 46.5299 13.6558C46.151 14.0776 45.9596 14.6245 46.0182 15.2066C46.1198 16.2183 47.069 17.0074 48.1784 17.0074H57.0065C59.2174 17.0074 61.0065 18.7965 61.0065 21.0074V29.8355C61.0065 30.9566 61.7956 31.9058 62.8073 31.9957L62.7995 31.9878Z" fill="white"/>
<path d="M56.0004 45.9999C54.0121 45.9999 52.0395 46.4999 50.3012 47.4413L48.9926 48.1522L29.8516 29.0112L30.5625 27.7026C31.5117 25.9643 32.0039 23.9917 32.0039 22.0034C32.0039 15.3823 26.625 10.0034 20.0039 10.0034C18.9023 10.0034 18.0039 10.9019 18.0039 12.0034C18.0039 13.105 18.9023 14.0034 20.0039 14.0034C24.4141 14.0034 28.0039 17.5932 28.0039 22.0034C28.0039 26.4136 24.4141 30.0034 20.0039 30.0034C15.5937 30.0034 12.0039 26.4136 12.0039 22.0034C12.0039 20.9018 11.1055 20.0034 10.0039 20.0034C8.90231 20.0034 8.00391 20.9019 8.00391 22.0034C8.00391 28.6245 13.3828 34.0034 20.0039 34.0034C21.9922 34.0034 23.9648 33.5034 25.7031 32.562L27.0117 31.8511L46.1527 50.9921L45.4418 52.3007C44.4925 54.039 43.9926 56.0116 43.9926 57.9999C43.9926 64.621 49.3715 69.9999 55.9926 69.9999C57.0942 69.9999 57.9926 69.1014 57.9926 67.9999C57.9926 66.8983 57.0941 65.9999 55.9926 65.9999C51.5824 65.9999 47.9926 62.4101 47.9926 57.9999C47.9926 53.5897 51.5824 49.9999 55.9926 49.9999C60.4028 49.9999 63.9926 53.5897 63.9926 57.9999C63.9926 59.1015 64.891 59.9999 65.9926 59.9999C67.0942 59.9999 67.9926 59.1014 67.9926 57.9999C67.9926 51.3788 62.6137 45.9999 55.9926 45.9999H56.0004Z" fill="white"/>
</svg>
