<svg width="80" height="59" viewBox="0 0 80 59" fill="none" xmlns="http://www.w3.org/2000/svg">
<path d="M44.1294 28.4776H16.1007C15.5294 28.4776 15.0378 28.9709 15.0378 29.5443V45.5354C15.0378 46.1088 15.5293 46.6021 16.1007 46.6021H44.2087C44.78 46.6021 45.2716 46.1088 45.2716 45.5354V29.6247C45.2716 28.968 44.7805 28.4776 44.1294 28.4776ZM43.0665 44.4686H17.164V30.6909H43.0665V44.4686ZM78.858 55.7862H70.4406V25.6878C72.3207 24.541 73.5464 22.4909 73.5464 20.1108V12.2401V12.1568V11.9935V11.9102V11.8269C73.5464 11.8269 73.5464 11.7436 73.4634 11.7436V11.6603L67.2518 1.49331C67.0891 1.16657 66.6805 1 66.3517 1L57.6916 1.00641H13.7288C13.3202 1.00641 12.9946 1.16978 12.8286 1.49972L6.54048 11.6667C6.37769 11.9935 6.2947 12.3234 6.45749 12.6501L6.3745 20.114C6.3745 21.8374 7.02885 23.4775 8.25457 24.7076C8.66314 25.1176 9.07171 25.4443 9.48028 25.691V55.8698L1.06293 55.8666C0.491574 55.8666 0 56.3599 0 56.9333C0 57.5067 0.491558 58 1.06293 58H78.9371C79.5084 58 80 57.5067 80 56.9333C80 56.2766 79.5091 55.7862 78.858 55.7862ZM71.3377 20.1139C71.3377 22.4907 69.3779 24.4608 67.0063 24.4608C64.6379 24.4608 62.6748 22.494 62.6748 20.1139V13.3068H71.3381L71.3377 20.1139ZM30.2381 3.13631L28.4411 11.0902L19.9412 11.0934L23.2928 3.13951L30.2381 3.13631ZM38.8982 3.13631V11.0902L30.6467 11.0934L32.4437 3.13951L38.8982 3.13631ZM47.7241 3.13631L49.5211 11.0902L41.0245 11.0934V3.13951L47.7241 3.13631ZM56.9586 3.13631L60.2271 11.0902L51.8098 11.0934L50.0127 3.13951L56.9586 3.13631ZM19.4503 13.3066H28.0302V20.1137C28.0302 22.4906 26.0704 24.4606 23.6987 24.4606C21.3303 24.4606 19.3672 22.4938 19.3672 20.1137L19.4503 13.3066ZM30.2389 13.3066H38.9022V20.1137C38.9022 22.4906 36.9424 24.4606 34.5708 24.4606C32.2024 24.4606 30.2393 22.4938 30.2393 20.1137L30.2389 13.3066ZM41.0244 13.3066H49.6877V20.1137C49.6877 22.4906 47.7278 24.4606 45.3562 24.4606C42.9878 24.4606 41.0247 22.4938 41.0247 20.1137L41.0244 13.3066ZM51.8931 13.3066H60.5564V20.1137C60.5564 22.4906 58.5966 24.4606 56.2249 24.4606C53.8565 24.4606 51.8934 22.4938 51.8934 20.1137L51.8931 13.3066ZM70.4413 11.0931H62.5955L59.327 3.13926H65.6183L70.4413 11.0931ZM14.3047 3.13606H20.8418L17.4903 11.1732H9.31888L14.3047 3.13606ZM8.6646 13.3867H17.3279L17.2449 20.1105C17.2449 22.4874 15.2851 24.4575 12.9134 24.4575C12.4219 24.4575 11.9335 24.3742 11.4419 24.2108C11.2791 23.9641 10.9504 23.8008 10.6248 23.8008C10.379 23.6374 10.1332 23.3907 9.89063 23.1441C9.07349 22.324 8.66492 21.2573 8.66492 20.1105L8.6646 13.3867ZM11.6874 26.5076C12.0959 26.5909 12.5045 26.5909 12.9131 26.5909C15.1187 26.5909 17.1615 25.4441 18.3075 23.6374C19.4502 25.4408 21.493 26.5909 23.7019 26.5909C25.9906 26.5909 27.9504 25.4441 29.0963 23.7207C30.239 25.4441 32.2819 26.5909 34.4908 26.5909C36.7794 26.5909 38.7392 25.4441 39.8852 23.7207C41.0279 25.4441 43.0707 26.5909 45.2796 26.5909C47.5682 26.5909 49.5281 25.4441 50.674 23.7207C51.8167 25.4441 53.8596 26.5909 56.0684 26.5909C58.3571 26.5909 60.3169 25.4441 61.4629 23.7207C62.6056 25.4441 64.6484 26.5909 66.8573 26.5909C67.2659 26.5909 67.6744 26.5076 68.083 26.5076V55.7827H65.306L65.2933 34.7081C65.2933 34.1347 64.8017 33.6414 64.2303 33.6414H49.5218C48.9505 33.6414 48.4589 34.1347 48.4589 34.7081V55.7827L11.6877 55.7859L11.6874 26.5076ZM63.2504 55.786H50.7474V35.8578H63.2504V55.786Z" fill="white"/>
</svg>
