<svg width="80" height="59" viewBox="0 0 80 59" fill="none" xmlns="http://www.w3.org/2000/svg">
<mask id="path-1-inside-1_1304_3360" fill="white">
<path fill-rule="evenodd" clip-rule="evenodd" d="M67.1772 27.2214C67.1772 26.6635 67.6156 26.2141 68.1514 26.2141C68.691 26.2141 69.1256 26.6674 69.1256 27.2214V57.9888C69.1256 58.5467 68.6872 58.9961 68.1514 58.9961L38.1868 59C37.6472 59 37.2126 58.5467 37.2126 57.9927C37.2126 57.4347 37.651 56.9853 38.1868 56.9853H67.1778L67.1772 27.2214ZM12.4067 10.8985C12.9538 10.8985 13.3997 11.3595 13.3997 11.9252C13.3997 12.491 12.9538 12.952 12.4067 12.952C11.8596 12.952 11.4137 12.491 11.4137 11.9252C11.4137 11.3595 11.8596 10.8985 12.4067 10.8985ZM57.3709 43.8191H41.0265C40.4869 43.8191 40.0523 44.2725 40.0523 44.8265C40.0523 45.3844 40.4907 45.8338 41.0265 45.8338H57.3709C57.9105 45.8338 58.3451 45.3805 58.3451 44.8265C58.3489 44.2686 57.9105 43.8191 57.3709 43.8191ZM57.3709 37.806H41.0265C40.4869 37.806 40.0523 38.2593 40.0523 38.8134C40.0523 39.3713 40.4907 39.8207 41.0265 39.8207H57.3709C57.9105 39.8207 58.3451 39.3674 58.3451 38.8134C58.3489 38.2593 57.9105 37.806 57.3709 37.806ZM57.3709 31.7968H41.0265C40.4869 31.7968 40.0523 32.2501 40.0523 32.8041C40.0523 33.362 40.4907 33.8114 41.0265 33.8114H57.3709C57.9105 33.8114 58.3451 33.3581 58.3451 32.8041C58.3489 32.2501 57.9105 31.7968 57.3709 31.7968ZM47.0476 25.7875H41.03C40.4904 25.7875 40.0558 26.2408 40.0558 26.7948C40.0558 27.3528 40.4942 27.8022 41.03 27.8022H47.0476C47.5872 27.8022 48.0218 27.3489 48.0218 26.7948C48.0218 26.2369 47.5872 25.7875 47.0476 25.7875ZM43.5329 19.3095L43.5853 19.3909C46.5043 23.4048 50.6185 26.02 55.077 27.039C59.5284 28.054 64.3209 27.4806 68.5965 25.1172L68.6115 25.1095L68.6302 25.1017L68.6339 25.0979L68.6527 25.0863H68.6602L68.6789 25.0746L68.6826 25.0708C68.7688 25.0126 68.84 24.9468 68.9037 24.8693L68.9075 24.8615L68.915 24.8538L68.9225 24.8422L68.9262 24.8344L68.9337 24.8228L68.9375 24.8189C69.0124 24.7104 69.0686 24.5903 69.0986 24.4509V24.4431L71.0058 15.5164L77.091 14.5246L76.1131 19.108L73.655 20.4369C73.389 20.5803 73.2166 20.8321 73.1567 21.1111L71.9539 26.7406C71.8378 27.2831 72.1675 27.8177 72.6921 27.9378C72.9319 27.992 73.1679 27.9494 73.3665 27.8371L75.5024 26.6824L77.0686 28.7049C77.4021 29.1389 78.0129 29.2086 78.4325 28.8638C78.6124 28.7127 78.7285 28.5112 78.7735 28.2943L79.9763 22.6647C80.0475 22.3392 79.9538 22.0177 79.7552 21.7852L78.0091 19.5303L79.2569 13.6954C79.2644 13.6683 79.2681 13.6373 79.2719 13.6102C79.403 13.1956 79.2569 12.7229 78.8859 12.4673L61.1775 0.170231C60.9827 0.034625 60.7391 -0.027366 60.488 0.0113758L39.4482 3.44409C39.1784 3.47896 38.9198 3.63006 38.7587 3.8819C38.4589 4.34296 38.5788 4.96679 39.0247 5.27665L45.3197 9.64696L43.4125 18.5698V18.5737C43.4087 18.5892 43.405 18.6047 43.405 18.6202C43.3862 18.7441 43.3862 18.8643 43.4087 18.9805V18.9882L43.4125 19.0037L43.4275 19.0502L43.4312 19.0696C43.4499 19.151 43.4842 19.232 43.5329 19.3095ZM45.4101 18.5462L47.055 10.8516L56.7375 17.5737C56.9324 17.7093 57.1759 17.7713 57.427 17.7326L68.9455 15.8535L67.3006 23.552C63.5423 25.5125 59.3757 25.9696 55.4934 25.0824C51.6152 24.1913 48.0183 21.9596 45.4101 18.5462ZM77.3162 25.8108L76.5481 24.8189C76.2708 24.4237 75.7462 24.2881 75.3115 24.5206L74.2998 25.0669L74.9556 21.9983L76.7054 21.0529L77.9794 22.6996L77.3162 25.8108ZM43.5853 19.3909L43.5782 19.3792L43.5744 19.3714L43.5594 19.3521L43.5369 19.3133L43.5853 19.3909ZM70.0318 13.6373L57.5022 15.683L42.166 5.03638L60.4106 2.06081L75.7469 12.7074L70.0664 13.6334C70.0589 13.6334 70.0468 13.6373 70.0318 13.6373ZM11.7544 45.8378C11.2148 45.8378 10.7802 45.3845 10.7802 44.8305C10.7802 44.2726 11.2186 43.8232 11.7544 43.8232H28.0988C28.6383 43.8232 29.073 44.2765 29.073 44.8305C29.073 45.3884 28.6346 45.8378 28.0988 45.8378H11.7544ZM11.7544 39.8247C11.2148 39.8247 10.7802 39.3714 10.7802 38.8174C10.7802 38.2595 11.2186 37.8101 11.7544 37.8101H28.0988C28.6383 37.8101 29.073 38.2634 29.073 38.8174C29.073 39.3753 28.6346 39.8247 28.0988 39.8247H11.7544ZM11.7544 33.8155C11.2148 33.8155 10.7802 33.3622 10.7802 32.8081C10.7802 32.2502 11.2186 31.8008 11.7544 31.8008H28.0988C28.6383 31.8008 29.073 32.2541 29.073 32.8081C29.073 33.3661 28.6346 33.8155 28.0988 33.8155H11.7544ZM11.7544 27.8023C11.2148 27.8023 10.7802 27.349 10.7802 26.795C10.7802 26.2371 11.2186 25.7877 11.7544 25.7877H28.0988C28.6383 25.7877 29.073 26.241 29.073 26.795C29.073 27.3529 28.6346 27.8023 28.0988 27.8023H11.7544ZM11.7544 21.7931C11.2148 21.7931 10.7802 21.3398 10.7802 20.7858C10.7802 20.2278 11.2186 19.7784 11.7544 19.7784H28.0988C28.6383 19.7784 29.073 20.2317 29.073 20.7858C29.073 21.3437 28.6346 21.7931 28.0988 21.7931H11.7544ZM33.0753 58.3092C33.2064 58.7083 33.5699 58.995 34.0008 58.995L34.5591 58.9989H35.1249C35.5558 58.9989 35.9193 58.7122 36.0504 58.3131C36.5001 57.3097 37.2157 56.4572 38.1075 55.8567C38.9918 55.26 40.0447 54.9152 41.1763 54.9152H63.8306C64.3701 54.9152 64.8048 54.4619 64.8048 53.9079L64.8123 28.6969C64.8123 28.139 64.3739 27.6896 63.8381 27.6896C63.2985 27.6896 62.8639 28.1429 62.8639 28.6969V52.8962H41.1803C39.6628 52.8962 38.2427 53.365 37.0511 54.1709C36.4928 54.5467 35.9832 55 35.5373 55.5115L35.5411 18.7662C35.5411 17.1622 36.1743 15.7055 37.201 14.6477C38.224 13.59 39.6329 12.9313 41.1841 12.9313H43.1662C43.7058 12.9313 44.1404 12.478 44.1404 11.924C44.1404 11.3661 43.702 10.9167 43.1662 10.9167H41.1841C39.0932 10.9167 37.1973 11.8 35.8221 13.222C35.3313 13.7295 34.9116 14.3029 34.5669 14.9268C34.2259 14.2991 33.8025 13.7257 33.3116 13.222C31.9365 11.8 30.0367 10.9167 27.9458 10.9167L14.9213 10.9128C14.3818 10.9128 13.9471 11.3661 13.9471 11.9201C13.9471 12.4781 14.3855 12.9275 14.9213 12.9275H27.9458C29.4971 12.9275 30.906 13.5822 31.9289 14.6439C32.9518 15.7016 33.5888 17.1584 33.5888 18.7623V55.5076C33.1429 54.9962 32.6334 54.5429 32.0751 54.167C30.8835 53.3611 29.4634 52.8923 27.9458 52.8923L6.26519 52.8962V12.9353H9.87355C10.4131 12.9353 10.8478 12.482 10.8478 11.928C10.8478 11.3701 10.4094 10.9206 9.87355 10.9206H5.28725C4.74768 10.9206 4.31305 11.374 4.31305 11.928V53.9073C4.31305 54.4652 4.75145 54.9146 5.28725 54.9146H27.9415C29.0731 54.9146 30.1297 55.2633 31.0103 55.8561C31.9059 56.4566 32.6257 57.3095 33.0753 58.3092ZM30.9395 56.9803H1.94847V17.0542H2.68663C3.2262 17.0542 3.66083 16.6009 3.66083 16.0469C3.66083 15.4889 3.22243 15.0395 2.68663 15.0395L0.9742 15.0357C0.43463 15.0357 0 15.489 0 16.043V57.9876C0 58.5455 0.4384 58.9949 0.9742 58.9949H30.9388C31.4784 58.9949 31.913 58.5416 31.913 57.9876C31.913 57.4335 31.479 56.9803 30.9395 56.9803Z"/>
</mask>
<path fill-rule="evenodd" clip-rule="evenodd" d="M67.1772 27.2214C67.1772 26.6635 67.6156 26.2141 68.1514 26.2141C68.691 26.2141 69.1256 26.6674 69.1256 27.2214V57.9888C69.1256 58.5467 68.6872 58.9961 68.1514 58.9961L38.1868 59C37.6472 59 37.2126 58.5467 37.2126 57.9927C37.2126 57.4347 37.651 56.9853 38.1868 56.9853H67.1778L67.1772 27.2214ZM12.4067 10.8985C12.9538 10.8985 13.3997 11.3595 13.3997 11.9252C13.3997 12.491 12.9538 12.952 12.4067 12.952C11.8596 12.952 11.4137 12.491 11.4137 11.9252C11.4137 11.3595 11.8596 10.8985 12.4067 10.8985ZM57.3709 43.8191H41.0265C40.4869 43.8191 40.0523 44.2725 40.0523 44.8265C40.0523 45.3844 40.4907 45.8338 41.0265 45.8338H57.3709C57.9105 45.8338 58.3451 45.3805 58.3451 44.8265C58.3489 44.2686 57.9105 43.8191 57.3709 43.8191ZM57.3709 37.806H41.0265C40.4869 37.806 40.0523 38.2593 40.0523 38.8134C40.0523 39.3713 40.4907 39.8207 41.0265 39.8207H57.3709C57.9105 39.8207 58.3451 39.3674 58.3451 38.8134C58.3489 38.2593 57.9105 37.806 57.3709 37.806ZM57.3709 31.7968H41.0265C40.4869 31.7968 40.0523 32.2501 40.0523 32.8041C40.0523 33.362 40.4907 33.8114 41.0265 33.8114H57.3709C57.9105 33.8114 58.3451 33.3581 58.3451 32.8041C58.3489 32.2501 57.9105 31.7968 57.3709 31.7968ZM47.0476 25.7875H41.03C40.4904 25.7875 40.0558 26.2408 40.0558 26.7948C40.0558 27.3528 40.4942 27.8022 41.03 27.8022H47.0476C47.5872 27.8022 48.0218 27.3489 48.0218 26.7948C48.0218 26.2369 47.5872 25.7875 47.0476 25.7875ZM43.5329 19.3095L43.5853 19.3909C46.5043 23.4048 50.6185 26.02 55.077 27.039C59.5284 28.054 64.3209 27.4806 68.5965 25.1172L68.6115 25.1095L68.6302 25.1017L68.6339 25.0979L68.6527 25.0863H68.6602L68.6789 25.0746L68.6826 25.0708C68.7688 25.0126 68.84 24.9468 68.9037 24.8693L68.9075 24.8615L68.915 24.8538L68.9225 24.8422L68.9262 24.8344L68.9337 24.8228L68.9375 24.8189C69.0124 24.7104 69.0686 24.5903 69.0986 24.4509V24.4431L71.0058 15.5164L77.091 14.5246L76.1131 19.108L73.655 20.4369C73.389 20.5803 73.2166 20.8321 73.1567 21.1111L71.9539 26.7406C71.8378 27.2831 72.1675 27.8177 72.6921 27.9378C72.9319 27.992 73.1679 27.9494 73.3665 27.8371L75.5024 26.6824L77.0686 28.7049C77.4021 29.1389 78.0129 29.2086 78.4325 28.8638C78.6124 28.7127 78.7285 28.5112 78.7735 28.2943L79.9763 22.6647C80.0475 22.3392 79.9538 22.0177 79.7552 21.7852L78.0091 19.5303L79.2569 13.6954C79.2644 13.6683 79.2681 13.6373 79.2719 13.6102C79.403 13.1956 79.2569 12.7229 78.8859 12.4673L61.1775 0.170231C60.9827 0.034625 60.7391 -0.027366 60.488 0.0113758L39.4482 3.44409C39.1784 3.47896 38.9198 3.63006 38.7587 3.8819C38.4589 4.34296 38.5788 4.96679 39.0247 5.27665L45.3197 9.64696L43.4125 18.5698V18.5737C43.4087 18.5892 43.405 18.6047 43.405 18.6202C43.3862 18.7441 43.3862 18.8643 43.4087 18.9805V18.9882L43.4125 19.0037L43.4275 19.0502L43.4312 19.0696C43.4499 19.151 43.4842 19.232 43.5329 19.3095ZM45.4101 18.5462L47.055 10.8516L56.7375 17.5737C56.9324 17.7093 57.1759 17.7713 57.427 17.7326L68.9455 15.8535L67.3006 23.552C63.5423 25.5125 59.3757 25.9696 55.4934 25.0824C51.6152 24.1913 48.0183 21.9596 45.4101 18.5462ZM77.3162 25.8108L76.5481 24.8189C76.2708 24.4237 75.7462 24.2881 75.3115 24.5206L74.2998 25.0669L74.9556 21.9983L76.7054 21.0529L77.9794 22.6996L77.3162 25.8108ZM43.5853 19.3909L43.5782 19.3792L43.5744 19.3714L43.5594 19.3521L43.5369 19.3133L43.5853 19.3909ZM70.0318 13.6373L57.5022 15.683L42.166 5.03638L60.4106 2.06081L75.7469 12.7074L70.0664 13.6334C70.0589 13.6334 70.0468 13.6373 70.0318 13.6373ZM11.7544 45.8378C11.2148 45.8378 10.7802 45.3845 10.7802 44.8305C10.7802 44.2726 11.2186 43.8232 11.7544 43.8232H28.0988C28.6383 43.8232 29.073 44.2765 29.073 44.8305C29.073 45.3884 28.6346 45.8378 28.0988 45.8378H11.7544ZM11.7544 39.8247C11.2148 39.8247 10.7802 39.3714 10.7802 38.8174C10.7802 38.2595 11.2186 37.8101 11.7544 37.8101H28.0988C28.6383 37.8101 29.073 38.2634 29.073 38.8174C29.073 39.3753 28.6346 39.8247 28.0988 39.8247H11.7544ZM11.7544 33.8155C11.2148 33.8155 10.7802 33.3622 10.7802 32.8081C10.7802 32.2502 11.2186 31.8008 11.7544 31.8008H28.0988C28.6383 31.8008 29.073 32.2541 29.073 32.8081C29.073 33.3661 28.6346 33.8155 28.0988 33.8155H11.7544ZM11.7544 27.8023C11.2148 27.8023 10.7802 27.349 10.7802 26.795C10.7802 26.2371 11.2186 25.7877 11.7544 25.7877H28.0988C28.6383 25.7877 29.073 26.241 29.073 26.795C29.073 27.3529 28.6346 27.8023 28.0988 27.8023H11.7544ZM11.7544 21.7931C11.2148 21.7931 10.7802 21.3398 10.7802 20.7858C10.7802 20.2278 11.2186 19.7784 11.7544 19.7784H28.0988C28.6383 19.7784 29.073 20.2317 29.073 20.7858C29.073 21.3437 28.6346 21.7931 28.0988 21.7931H11.7544ZM33.0753 58.3092C33.2064 58.7083 33.5699 58.995 34.0008 58.995L34.5591 58.9989H35.1249C35.5558 58.9989 35.9193 58.7122 36.0504 58.3131C36.5001 57.3097 37.2157 56.4572 38.1075 55.8567C38.9918 55.26 40.0447 54.9152 41.1763 54.9152H63.8306C64.3701 54.9152 64.8048 54.4619 64.8048 53.9079L64.8123 28.6969C64.8123 28.139 64.3739 27.6896 63.8381 27.6896C63.2985 27.6896 62.8639 28.1429 62.8639 28.6969V52.8962H41.1803C39.6628 52.8962 38.2427 53.365 37.0511 54.1709C36.4928 54.5467 35.9832 55 35.5373 55.5115L35.5411 18.7662C35.5411 17.1622 36.1743 15.7055 37.201 14.6477C38.224 13.59 39.6329 12.9313 41.1841 12.9313H43.1662C43.7058 12.9313 44.1404 12.478 44.1404 11.924C44.1404 11.3661 43.702 10.9167 43.1662 10.9167H41.1841C39.0932 10.9167 37.1973 11.8 35.8221 13.222C35.3313 13.7295 34.9116 14.3029 34.5669 14.9268C34.2259 14.2991 33.8025 13.7257 33.3116 13.222C31.9365 11.8 30.0367 10.9167 27.9458 10.9167L14.9213 10.9128C14.3818 10.9128 13.9471 11.3661 13.9471 11.9201C13.9471 12.4781 14.3855 12.9275 14.9213 12.9275H27.9458C29.4971 12.9275 30.906 13.5822 31.9289 14.6439C32.9518 15.7016 33.5888 17.1584 33.5888 18.7623V55.5076C33.1429 54.9962 32.6334 54.5429 32.0751 54.167C30.8835 53.3611 29.4634 52.8923 27.9458 52.8923L6.26519 52.8962V12.9353H9.87355C10.4131 12.9353 10.8478 12.482 10.8478 11.928C10.8478 11.3701 10.4094 10.9206 9.87355 10.9206H5.28725C4.74768 10.9206 4.31305 11.374 4.31305 11.928V53.9073C4.31305 54.4652 4.75145 54.9146 5.28725 54.9146H27.9415C29.0731 54.9146 30.1297 55.2633 31.0103 55.8561C31.9059 56.4566 32.6257 57.3095 33.0753 58.3092ZM30.9395 56.9803H1.94847V17.0542H2.68663C3.2262 17.0542 3.66083 16.6009 3.66083 16.0469C3.66083 15.4889 3.22243 15.0395 2.68663 15.0395L0.9742 15.0357C0.43463 15.0357 0 15.489 0 16.043V57.9876C0 58.5455 0.4384 58.9949 0.9742 58.9949H30.9388C31.4784 58.9949 31.913 58.5416 31.913 57.9876C31.913 57.4335 31.479 56.9803 30.9395 56.9803Z" fill="white"/>
<path d="M67.1772 27.2214H66.1772V27.2215L67.1772 27.2214ZM68.1514 58.9961V57.9961H68.1513L68.1514 58.9961ZM38.1868 59V60H38.1869L38.1868 59ZM67.1778 56.9853V57.9853H68.1778L68.1778 56.9853L67.1778 56.9853ZM58.3451 44.8265L57.3451 44.8198V44.8265H58.3451ZM58.3451 38.8134L57.3451 38.8066V38.8134H58.3451ZM58.3451 32.8041L57.3451 32.7973V32.8041H58.3451ZM43.5329 19.3095L42.6862 19.8417L42.6924 19.8514L43.5329 19.3095ZM43.5853 19.3909L42.7449 19.9327L42.7601 19.9563L42.7766 19.979L43.5853 19.3909ZM55.077 27.039L54.8542 28.0138L54.8547 28.0139L55.077 27.039ZM68.5965 25.1172L68.1372 24.2289L68.1249 24.2353L68.1127 24.2421L68.5965 25.1172ZM68.6115 25.1095L68.2292 24.1854L68.19 24.2017L68.1522 24.2212L68.6115 25.1095ZM68.6302 25.1017L69.0124 26.0258L69.2045 25.9464L69.349 25.7969L68.6302 25.1017ZM68.6339 25.0979L68.1067 24.2481L68.0013 24.3135L67.9151 24.4027L68.6339 25.0979ZM68.6527 25.0863V24.0863H68.3677L68.1255 24.2365L68.6527 25.0863ZM68.6602 25.0863V26.0863H68.9452L69.1873 25.936L68.6602 25.0863ZM68.6789 25.0746L69.2061 25.9244L69.3115 25.859L69.3977 25.7698L68.6789 25.0746ZM68.6826 25.0708L68.1235 24.2417L68.0367 24.3002L67.9638 24.3756L68.6826 25.0708ZM68.9037 24.8693L69.6762 25.5044L69.752 25.4122L69.8039 25.3048L68.9037 24.8693ZM68.9075 24.8615L68.1885 24.1665L68.0771 24.2818L68.0073 24.426L68.9075 24.8615ZM68.915 24.8538L69.634 25.5488L69.7022 25.4783L69.7553 25.3958L68.915 24.8538ZM68.9225 24.8422L69.7628 25.3842L69.7961 25.3327L69.8227 25.2775L68.9225 24.8422ZM68.9262 24.8344L68.0857 24.2927L68.0526 24.3441L68.0259 24.3991L68.9262 24.8344ZM68.9337 24.8228L68.2152 24.1273L68.1466 24.1981L68.0932 24.281L68.9337 24.8228ZM68.9375 24.8189L69.6559 25.5145L69.7133 25.4552L69.7602 25.3873L68.9375 24.8189ZM69.0986 24.4509L70.0762 24.661L70.0986 24.5571V24.4509H69.0986ZM69.0986 24.4431L68.1206 24.2342L68.0986 24.3375V24.4431H69.0986ZM71.0058 15.5164L70.8449 14.5294L70.1706 14.6393L70.0279 15.3075L71.0058 15.5164ZM77.091 14.5246L78.069 14.7332L78.3743 13.3022L76.9301 13.5376L77.091 14.5246ZM76.1131 19.108L76.5887 19.9877L76.9947 19.7681L77.0911 19.3167L76.1131 19.108ZM73.655 20.4369L74.1294 21.3172L74.1306 21.3166L73.655 20.4369ZM73.1567 21.1111L72.179 20.9009L72.1787 20.9021L73.1567 21.1111ZM71.9539 26.7406L72.9317 26.95L72.9318 26.9496L71.9539 26.7406ZM72.6921 27.9378L72.4689 28.9126L72.4715 28.9132L72.6921 27.9378ZM73.3665 27.8371L72.891 26.9574L72.8825 26.962L72.8741 26.9667L73.3665 27.8371ZM75.5024 26.6824L76.293 26.0702L75.7734 25.3992L75.0268 25.8028L75.5024 26.6824ZM77.0686 28.7049L77.8615 28.0956L77.8592 28.0927L77.0686 28.7049ZM78.4325 28.8638L79.0674 29.6365L79.0758 29.6295L78.4325 28.8638ZM78.7735 28.2943L77.7956 28.0853L77.7943 28.0913L78.7735 28.2943ZM79.9763 22.6647L78.9994 22.451L78.9984 22.4557L79.9763 22.6647ZM79.7552 21.7852L78.9646 22.3974L78.9793 22.4164L78.9949 22.4347L79.7552 21.7852ZM78.0091 19.5303L77.0312 19.3212L76.9341 19.7753L77.2185 20.1426L78.0091 19.5303ZM79.2569 13.6954L78.293 13.4291L78.2852 13.4575L78.279 13.4863L79.2569 13.6954ZM79.2719 13.6102L78.3185 13.3086L78.2929 13.3894L78.2813 13.4733L79.2719 13.6102ZM78.8859 12.4673L78.3156 13.2886L78.3184 13.2906L78.8859 12.4673ZM61.1775 0.170231L60.6062 0.991008L60.6071 0.991613L61.1775 0.170231ZM60.488 0.0113758L60.3355 -0.976962L60.327 -0.975575L60.488 0.0113758ZM39.4482 3.44409L39.5763 4.43584L39.5928 4.43371L39.6092 4.43104L39.4482 3.44409ZM38.7587 3.8819L39.5971 4.427L39.6011 4.42083L38.7587 3.8819ZM39.0247 5.27665L38.4541 6.09784L38.4544 6.09809L39.0247 5.27665ZM45.3197 9.64696L46.2976 9.85599L46.4368 9.2051L45.89 8.82552L45.3197 9.64696ZM43.4125 18.5698L42.4346 18.3608L42.4125 18.4641V18.5698H43.4125ZM43.4125 18.5737L44.3845 18.8087L44.4125 18.6928V18.5737H43.4125ZM43.405 18.6202L44.3938 18.7696L44.405 18.6953V18.6202H43.405ZM43.4087 18.9805H44.4087V18.8847L44.3905 18.7906L43.4087 18.9805ZM43.4087 18.9882H42.4087V19.1074L42.4367 19.2232L43.4087 18.9882ZM43.4125 19.0037L42.4405 19.2387L42.4493 19.275L42.4607 19.3106L43.4125 19.0037ZM43.4275 19.0502L44.4093 18.8603L44.3978 18.801L44.3792 18.7434L43.4275 19.0502ZM43.4312 19.0696L42.4494 19.2595L42.4528 19.2768L42.4567 19.294L43.4312 19.0696ZM45.4101 18.5462L44.4322 18.3372L44.3359 18.7875L44.6155 19.1534L45.4101 18.5462ZM47.055 10.8516L47.6253 10.0302L46.3912 9.17339L46.0771 10.6426L47.055 10.8516ZM56.7375 17.5737L57.3088 16.753L57.3078 16.7523L56.7375 17.5737ZM57.427 17.7326L57.5795 18.7209L57.588 18.7195L57.427 17.7326ZM68.9455 15.8535L69.9234 16.0625L70.2293 14.6309L68.7845 14.8666L68.9455 15.8535ZM67.3006 23.552L67.7631 24.4386L68.1802 24.221L68.2785 23.7609L67.3006 23.552ZM55.4934 25.0824L55.2694 26.057L55.2706 26.0573L55.4934 25.0824ZM77.3162 25.8108L76.5256 26.4231L77.845 28.1268L78.2943 26.0193L77.3162 25.8108ZM76.5481 24.8189L75.7295 25.3933L75.743 25.4126L75.7575 25.4312L76.5481 24.8189ZM75.3115 24.5206L74.8399 23.6388L74.8364 23.6407L75.3115 24.5206ZM74.2998 25.0669L73.3219 24.8579L72.8693 26.9758L74.775 25.9468L74.2998 25.0669ZM74.9556 21.9983L74.4802 21.1185L74.0741 21.3379L73.9776 21.7893L74.9556 21.9983ZM76.7054 21.0529L77.4963 20.441L76.9769 19.7696L76.2301 20.1731L76.7054 21.0529ZM77.9794 22.6996L78.9574 22.9081L79.0541 22.4545L78.7703 22.0877L77.9794 22.6996ZM43.5782 19.3792L42.6779 19.8145L42.7 19.8602L42.7266 19.9035L43.5782 19.3792ZM43.5744 19.3714L44.4747 18.9361L44.4292 18.8421L44.3653 18.7595L43.5744 19.3714ZM43.5594 19.3521L42.6945 19.854L42.7278 19.9114L42.7685 19.964L43.5594 19.3521ZM43.5369 19.3133L44.3852 18.7838L42.672 19.8152L43.5369 19.3133ZM70.0318 13.6373V12.6373H69.9507L69.8707 12.6503L70.0318 13.6373ZM57.5022 15.683L56.932 16.5044L57.2642 16.7351L57.6634 16.6699L57.5022 15.683ZM42.166 5.03638L42.005 4.04942L39.5641 4.4475L41.5957 5.85784L42.166 5.03638ZM60.4106 2.06081L60.9809 1.23935L60.6488 1.00876L60.2497 1.07385L60.4106 2.06081ZM75.7469 12.7074L75.9078 13.6944L78.349 13.2964L76.3172 11.8859L75.7469 12.7074ZM70.0664 13.6334V14.6334H70.1474L70.2273 14.6203L70.0664 13.6334ZM33.0753 58.3092L34.0253 57.997L34.0089 57.947L33.9873 57.8991L33.0753 58.3092ZM34.0008 58.995L34.0077 57.995H34.0008V58.995ZM34.5591 58.9989L34.5522 59.9989H34.5591V58.9989ZM36.0504 58.3131L35.1378 57.9042L35.1166 57.9516L35.1004 58.0009L36.0504 58.3131ZM38.1075 55.8567L38.6661 56.6861L38.6668 56.6856L38.1075 55.8567ZM64.8048 53.9079L63.8048 53.9076V53.9079H64.8048ZM64.8123 28.6969L65.8123 28.6972V28.6969H64.8123ZM62.8639 52.8962V53.8962H63.8639V52.8962H62.8639ZM37.0511 54.1709L37.6095 55.0005L37.6113 54.9992L37.0511 54.1709ZM35.5373 55.5115L34.5373 55.5114L34.5371 58.1808L36.2911 56.1686L35.5373 55.5115ZM35.5411 18.7662L36.5411 18.7663V18.7662H35.5411ZM37.201 14.6477L37.9186 15.3443L37.9199 15.3429L37.201 14.6477ZM35.8221 13.222L35.1033 12.5268L35.1033 12.5268L35.8221 13.222ZM34.5669 14.9268L33.6882 15.4041L34.5594 17.0079L35.4421 15.4104L34.5669 14.9268ZM33.3116 13.222L32.5928 13.9171L32.5954 13.9198L33.3116 13.222ZM27.9458 10.9167L27.9455 11.9167H27.9458V10.9167ZM14.9213 10.9128L14.9216 9.9128H14.9213V10.9128ZM31.9289 14.6439L31.2088 15.3377L31.2101 15.3391L31.9289 14.6439ZM33.5888 55.5076L32.8351 56.1648L34.5888 58.1763V55.5076H33.5888ZM32.0751 54.167L31.5148 54.9954L31.5166 54.9966L32.0751 54.167ZM27.9458 52.8923V51.8923H27.9457L27.9458 52.8923ZM6.26519 52.8962H5.26519V53.8963L6.26537 53.8962L6.26519 52.8962ZM6.26519 12.9353V11.9353H5.26519V12.9353H6.26519ZM31.0103 55.8561L30.4519 56.6856L30.4534 56.6866L31.0103 55.8561ZM1.94847 56.9803H0.948467V57.9803H1.94847V56.9803ZM1.94847 17.0542V16.0542H0.948467V17.0542H1.94847ZM2.68663 15.0395L2.68437 16.0395H2.68663V15.0395ZM0.9742 15.0357L0.976463 14.0357H0.9742V15.0357ZM67.1772 27.2214H68.1772C68.1772 27.2138 68.1785 27.2099 68.1792 27.2082C68.1797 27.2071 68.1802 27.2063 68.1806 27.2056C68.181 27.205 68.1813 27.2047 68.1813 27.2047C68.1812 27.2047 68.1807 27.2053 68.1795 27.2061C68.1783 27.207 68.1762 27.2082 68.1733 27.2095C68.1703 27.2108 68.1667 27.212 68.1626 27.2129C68.1584 27.2138 68.1545 27.2141 68.1514 27.2141V26.2141V25.2141C67.0345 25.2141 66.1772 26.1404 66.1772 27.2214H67.1772ZM68.1514 26.2141V27.2141C68.1486 27.2141 68.1449 27.2138 68.1406 27.2129C68.1365 27.212 68.1327 27.2108 68.1296 27.2094C68.1265 27.208 68.1243 27.2067 68.123 27.2058C68.1217 27.2048 68.1211 27.2043 68.1211 27.2042C68.1211 27.2042 68.1214 27.2046 68.1219 27.2054C68.1224 27.2061 68.123 27.2071 68.1235 27.2084C68.1244 27.2105 68.1256 27.2145 68.1256 27.2214H69.1256H70.1256C70.1256 26.1495 69.277 25.2141 68.1514 25.2141V26.2141ZM69.1256 27.2214H68.1256V57.9888H69.1256H70.1256V27.2214H69.1256ZM69.1256 57.9888H68.1256C68.1256 57.9964 68.1243 58.0003 68.1236 58.002C68.1231 58.0031 68.1226 58.004 68.1222 58.0046C68.1218 58.0053 68.1215 58.0056 68.1215 58.0055C68.1216 58.0055 68.1221 58.005 68.1233 58.0041C68.1245 58.0033 68.1265 58.002 68.1295 58.0008C68.1324 57.9995 68.1361 57.9982 68.1402 57.9974C68.1444 57.9965 68.1483 57.9961 68.1514 57.9961V58.9961V59.9961C69.2683 59.9961 70.1256 59.0698 70.1256 57.9888H69.1256ZM68.1514 58.9961L68.1513 57.9961L38.1866 58L38.1868 59L38.1869 60L68.1515 59.9961L68.1514 58.9961ZM38.1868 59V58C38.1896 58 38.1933 58.0003 38.1975 58.0012C38.2017 58.0021 38.2055 58.0034 38.2086 58.0047C38.2117 58.0061 38.2139 58.0074 38.2152 58.0084C38.2165 58.0093 38.2171 58.0098 38.2171 58.0099C38.2171 58.0099 38.2168 58.0095 38.2163 58.0087C38.2158 58.008 38.2152 58.007 38.2147 58.0057C38.2138 58.0036 38.2126 57.9996 38.2126 57.9927H37.2126H36.2126C36.2126 59.0646 37.0612 60 38.1868 60V59ZM37.2126 57.9927H38.2126C38.2126 57.985 38.2139 57.9812 38.2146 57.9795C38.2151 57.9783 38.2156 57.9775 38.216 57.9768C38.2164 57.9762 38.2167 57.9759 38.2167 57.9759C38.2166 57.976 38.2161 57.9765 38.2149 57.9773C38.2137 57.9782 38.2116 57.9794 38.2087 57.9807C38.2057 57.982 38.2021 57.9832 38.198 57.9841C38.1938 57.985 38.1899 57.9853 38.1868 57.9853V56.9853V55.9853C37.0699 55.9853 36.2126 56.9117 36.2126 57.9927H37.2126ZM38.1868 56.9853V57.9853H67.1778V56.9853V55.9853H38.1868V56.9853ZM67.1778 56.9853L68.1778 56.9853L68.1772 27.2214L67.1772 27.2214L66.1772 27.2215L66.1778 56.9854L67.1778 56.9853ZM12.4067 10.8985V11.8985C12.4047 11.8985 12.4018 11.8982 12.3987 11.8976C12.3956 11.8969 12.393 11.896 12.3911 11.8952C12.3874 11.8936 12.3875 11.8928 12.3896 11.8949C12.3917 11.8971 12.3943 11.9007 12.3963 11.9056C12.3981 11.9099 12.3997 11.916 12.3997 11.9252H13.3997H14.3997C14.3997 10.839 13.5373 9.89847 12.4067 9.89847V10.8985ZM13.3997 11.9252H12.3997C12.3997 11.9345 12.3981 11.9406 12.3963 11.9449C12.3943 11.9498 12.3917 11.9534 12.3896 11.9556C12.3875 11.9577 12.3875 11.9569 12.3911 11.9553C12.393 11.9545 12.3956 11.9536 12.3987 11.9529C12.4019 11.9522 12.4047 11.952 12.4067 11.952V12.952V13.952C13.5374 13.952 14.3997 13.0115 14.3997 11.9252H13.3997ZM12.4067 12.952V11.952C12.4088 11.952 12.4116 11.9522 12.4148 11.9529C12.4178 11.9536 12.4204 11.9545 12.4223 11.9553C12.426 11.9569 12.426 11.9577 12.4239 11.9556C12.4218 11.9534 12.4192 11.9498 12.4172 11.9449C12.4154 11.9406 12.4137 11.9345 12.4137 11.9252H11.4137H10.4137C10.4137 13.0115 11.2761 13.952 12.4067 13.952V12.952ZM11.4137 11.9252H12.4137C12.4137 11.916 12.4154 11.9099 12.4172 11.9056C12.4192 11.9007 12.4218 11.8971 12.4239 11.8949C12.426 11.8927 12.426 11.8936 12.4223 11.8952C12.4204 11.896 12.4178 11.8969 12.4148 11.8976C12.4116 11.8982 12.4088 11.8985 12.4067 11.8985V10.8985V9.89847C11.2761 9.89847 10.4137 10.839 10.4137 11.9252H11.4137ZM57.3709 43.8191V42.8191H41.0265V43.8191V44.8191H57.3709V43.8191ZM41.0265 43.8191V42.8191C39.9009 42.8191 39.0523 43.7545 39.0523 44.8265H40.0523H41.0523C41.0523 44.8195 41.0535 44.8156 41.0544 44.8135C41.0549 44.8122 41.0555 44.8112 41.056 44.8104C41.0565 44.8096 41.0568 44.8093 41.0568 44.8093C41.0568 44.8093 41.0562 44.8099 41.0549 44.8108C41.0536 44.8117 41.0514 44.8131 41.0483 44.8144C41.0452 44.8158 41.0414 44.817 41.0373 44.8179C41.033 44.8188 41.0293 44.8191 41.0265 44.8191V43.8191ZM40.0523 44.8265H39.0523C39.0523 45.9074 39.9096 46.8338 41.0265 46.8338V45.8338V44.8338C41.0296 44.8338 41.0335 44.8342 41.0377 44.835C41.0418 44.8359 41.0455 44.8371 41.0484 44.8384C41.0514 44.8397 41.0534 44.8409 41.0546 44.8418C41.0558 44.8427 41.0563 44.8432 41.0564 44.8432C41.0564 44.8432 41.0561 44.843 41.0557 44.8423C41.0553 44.8417 41.0548 44.8408 41.0543 44.8397C41.0536 44.838 41.0523 44.8341 41.0523 44.8265H40.0523ZM41.0265 45.8338V46.8338H57.3709V45.8338V44.8338H41.0265V45.8338ZM57.3709 45.8338V46.8338C58.4965 46.8338 59.3451 45.8984 59.3451 44.8265H58.3451H57.3451C57.3451 44.8334 57.3439 44.8374 57.343 44.8395C57.3425 44.8408 57.3419 44.8418 57.3414 44.8425C57.3409 44.8433 57.3406 44.8437 57.3406 44.8437C57.3406 44.8437 57.3412 44.8431 57.3425 44.8422C57.3438 44.8412 57.346 44.8399 57.3491 44.8385C57.3522 44.8372 57.356 44.8359 57.3602 44.835C57.3644 44.8341 57.3681 44.8338 57.3709 44.8338V45.8338ZM58.3451 44.8265L59.3451 44.8332C59.3524 43.7433 58.488 42.8191 57.3709 42.8191V43.8191V44.8191C57.3688 44.8191 57.3657 44.8189 57.3621 44.8181C57.3585 44.8174 57.3552 44.8163 57.3525 44.8151C57.347 44.8127 57.3444 44.8103 57.3439 44.8097C57.3433 44.8091 57.3435 44.8092 57.3439 44.8102C57.3441 44.8105 57.3452 44.8131 57.3451 44.8198L58.3451 44.8265ZM57.3709 37.806V36.806H41.0265V37.806V38.806H57.3709V37.806ZM41.0265 37.806V36.806C39.9009 36.806 39.0523 37.7414 39.0523 38.8134H40.0523H41.0523C41.0523 38.8064 41.0535 38.8025 41.0544 38.8003C41.0549 38.7991 41.0555 38.798 41.056 38.7973C41.0565 38.7965 41.0568 38.7961 41.0568 38.7962C41.0568 38.7962 41.0562 38.7967 41.0549 38.7977C41.0536 38.7986 41.0514 38.7999 41.0483 38.8013C41.0452 38.8027 41.0414 38.8039 41.0373 38.8048C41.033 38.8057 41.0293 38.806 41.0265 38.806V37.806ZM40.0523 38.8134H39.0523C39.0523 39.8943 39.9096 40.8207 41.0265 40.8207V39.8207V38.8207C41.0296 38.8207 41.0335 38.821 41.0377 38.8219C41.0418 38.8228 41.0455 38.824 41.0484 38.8253C41.0514 38.8266 41.0534 38.8278 41.0546 38.8287C41.0558 38.8295 41.0563 38.8301 41.0564 38.8301C41.0564 38.8301 41.0561 38.8298 41.0557 38.8292C41.0553 38.8285 41.0548 38.8277 41.0543 38.8266C41.0536 38.8249 41.0523 38.821 41.0523 38.8134H40.0523ZM41.0265 39.8207V40.8207H57.3709V39.8207V38.8207H41.0265V39.8207ZM57.3709 39.8207V40.8207C58.4965 40.8207 59.3451 39.8853 59.3451 38.8134H58.3451H57.3451C57.3451 38.8203 57.3439 38.8242 57.343 38.8264C57.3425 38.8276 57.3419 38.8287 57.3414 38.8294C57.3409 38.8302 57.3406 38.8306 57.3406 38.8305C57.3406 38.8305 57.3412 38.83 57.3425 38.829C57.3438 38.8281 57.346 38.8268 57.3491 38.8254C57.3522 38.824 57.356 38.8228 57.3602 38.8219C57.3644 38.821 57.3681 38.8207 57.3709 38.8207V39.8207ZM58.3451 38.8134L59.3451 38.8201C59.3524 37.7365 58.4905 36.806 57.3709 36.806V37.806V38.806C57.3682 38.806 57.3646 38.8057 57.3606 38.8049C57.3567 38.804 57.3533 38.8029 57.3505 38.8017C57.3477 38.8004 57.3458 38.7993 57.3446 38.7985C57.3435 38.7977 57.343 38.7972 57.3429 38.7971C57.3429 38.7971 57.3431 38.7972 57.3434 38.7977C57.3436 38.7981 57.3439 38.7986 57.3441 38.7992C57.3444 38.7998 57.3452 38.8018 57.3451 38.8066L58.3451 38.8134ZM57.3709 31.7968V30.7968H41.0265V31.7968V32.7968H57.3709V31.7968ZM41.0265 31.7968V30.7968C39.9009 30.7968 39.0523 31.7321 39.0523 32.8041H40.0523H41.0523C41.0523 32.7971 41.0535 32.7932 41.0544 32.7911C41.0549 32.7898 41.0555 32.7888 41.056 32.788C41.0565 32.7872 41.0568 32.7869 41.0568 32.7869C41.0568 32.7869 41.0562 32.7875 41.0549 32.7884C41.0536 32.7894 41.0514 32.7907 41.0483 32.792C41.0452 32.7934 41.0414 32.7947 41.0373 32.7956C41.033 32.7965 41.0293 32.7968 41.0265 32.7968V31.7968ZM40.0523 32.8041H39.0523C39.0523 33.8851 39.9096 34.8114 41.0265 34.8114V33.8114V32.8114C41.0296 32.8114 41.0335 32.8118 41.0377 32.8127C41.0418 32.8135 41.0455 32.8148 41.0484 32.8161C41.0513 32.8173 41.0534 32.8186 41.0546 32.8194C41.0558 32.8203 41.0563 32.8208 41.0564 32.8208C41.0564 32.8209 41.0561 32.8206 41.0557 32.8199C41.0553 32.8193 41.0548 32.8184 41.0543 32.8173C41.0536 32.8156 41.0523 32.8117 41.0523 32.8041H40.0523ZM41.0265 33.8114V34.8114H57.3709V33.8114V32.8114H41.0265V33.8114ZM57.3709 33.8114V34.8114C58.4965 34.8114 59.3451 33.8761 59.3451 32.8041H58.3451H57.3451C57.3451 32.8111 57.3439 32.815 57.343 32.8171C57.3425 32.8184 57.3419 32.8194 57.3414 32.8202C57.3409 32.8209 57.3406 32.8213 57.3406 32.8213C57.3406 32.8213 57.3412 32.8207 57.3425 32.8198C57.3438 32.8188 57.346 32.8175 57.3491 32.8162C57.3522 32.8148 57.356 32.8135 57.3602 32.8126C57.3644 32.8117 57.3681 32.8114 57.3709 32.8114V33.8114ZM58.3451 32.8041L59.3451 32.8109C59.3524 31.7273 58.4905 30.7968 57.3709 30.7968V31.7968V32.7968C57.3682 32.7968 57.3646 32.7965 57.3606 32.7956C57.3567 32.7948 57.3533 32.7936 57.3505 32.7924C57.3477 32.7912 57.3458 32.79 57.3446 32.7892C57.3435 32.7884 57.343 32.7879 57.3429 32.7879C57.3429 32.7878 57.3431 32.788 57.3434 32.7884C57.3436 32.7888 57.3439 32.7894 57.3441 32.7899C57.3444 32.7906 57.3452 32.7925 57.3451 32.7973L58.3451 32.8041ZM47.0476 25.7875V24.7875H41.03V25.7875V26.7875H47.0476V25.7875ZM41.03 25.7875V24.7875C39.9044 24.7875 39.0558 25.7229 39.0558 26.7948H40.0558H41.0558C41.0558 26.7879 41.057 26.784 41.0579 26.7818C41.0584 26.7806 41.0589 26.7795 41.0594 26.7788C41.0599 26.778 41.0603 26.7776 41.0603 26.7776C41.0602 26.7777 41.0597 26.7782 41.0584 26.7792C41.057 26.7801 41.0549 26.7814 41.0518 26.7828C41.0486 26.7842 41.0449 26.7854 41.0407 26.7863C41.0365 26.7872 41.0327 26.7875 41.03 26.7875V25.7875ZM40.0558 26.7948H39.0558C39.0558 27.8758 39.9131 28.8022 41.03 28.8022V27.8022V26.8022C41.0331 26.8022 41.037 26.8025 41.0411 26.8034C41.0453 26.8043 41.0489 26.8055 41.0519 26.8068C41.0548 26.8081 41.0568 26.8093 41.0581 26.8102C41.0593 26.811 41.0598 26.8115 41.0598 26.8116C41.0599 26.8116 41.0596 26.8113 41.0591 26.8107C41.0587 26.81 41.0582 26.8092 41.0578 26.8081C41.0571 26.8063 41.0558 26.8025 41.0558 26.7948H40.0558ZM41.03 27.8022V28.8022H47.0476V27.8022V26.8022H41.03V27.8022ZM47.0476 27.8022V28.8022C48.1732 28.8022 49.0218 27.8668 49.0218 26.7948H48.0218H47.0218C47.0218 26.8018 47.0206 26.8057 47.0197 26.8079C47.0192 26.8091 47.0186 26.8102 47.0181 26.8109C47.0176 26.8117 47.0173 26.8121 47.0173 26.812C47.0173 26.812 47.0179 26.8114 47.0192 26.8105C47.0205 26.8096 47.0227 26.8083 47.0258 26.8069C47.0289 26.8055 47.0327 26.8043 47.0369 26.8034C47.0411 26.8025 47.0448 26.8022 47.0476 26.8022V27.8022ZM48.0218 26.7948H49.0218C49.0218 25.7164 48.1707 24.7875 47.0476 24.7875V25.7875V26.7875C47.0455 26.7875 47.0422 26.7873 47.0383 26.7864C47.0345 26.7856 47.0309 26.7845 47.0278 26.7831C47.0216 26.7804 47.0188 26.7777 47.0182 26.7771C47.0177 26.7766 47.0186 26.7773 47.0195 26.7797C47.0203 26.7815 47.0218 26.786 47.0218 26.7948H48.0218ZM43.5329 19.3095L42.6924 19.8514L42.7449 19.9327L43.5853 19.3909L44.4258 18.849L44.3733 18.7676L43.5329 19.3095ZM43.5853 19.3909L42.7766 19.979C45.8391 24.1903 50.1623 26.9416 54.8542 28.0138L55.077 27.039L55.2998 26.0641C51.0746 25.0985 47.1695 22.6193 44.3941 18.8027L43.5853 19.3909ZM55.077 27.039L54.8547 28.0139C59.5388 29.0821 64.5834 28.4781 69.0802 25.9924L68.5965 25.1172L68.1127 24.2421C64.0583 26.4832 59.5181 27.026 55.2993 26.064L55.077 27.039ZM68.5965 25.1172L69.0557 26.0056L69.0707 25.9978L68.6115 25.1095L68.1522 24.2212L68.1372 24.2289L68.5965 25.1172ZM68.6115 25.1095L68.9937 26.0336L69.0124 26.0258L68.6302 25.1017L68.248 24.1777L68.2292 24.1854L68.6115 25.1095ZM68.6302 25.1017L69.349 25.7969L69.3528 25.7931L68.6339 25.0979L67.9151 24.4027L67.9114 24.4066L68.6302 25.1017ZM68.6339 25.0979L69.1611 25.9476L69.1799 25.936L68.6527 25.0863L68.1255 24.2365L68.1067 24.2481L68.6339 25.0979ZM68.6527 25.0863V26.0863H68.6602V25.0863V24.0863H68.6527V25.0863ZM68.6602 25.0863L69.1873 25.936L69.2061 25.9244L68.6789 25.0746L68.1517 24.2249L68.133 24.2365L68.6602 25.0863ZM68.6789 25.0746L69.3977 25.7698L69.4015 25.7659L68.6826 25.0708L67.9638 24.3756L67.9601 24.3794L68.6789 25.0746ZM68.6826 25.0708L69.2417 25.8999C69.4112 25.7856 69.5536 25.6535 69.6762 25.5044L68.9037 24.8693L68.1313 24.2342C68.1276 24.2387 68.1262 24.2398 68.1267 24.2394C68.1273 24.2389 68.1267 24.2395 68.1235 24.2417L68.6826 25.0708ZM68.9037 24.8693L69.8039 25.3048L69.8077 25.297L68.9075 24.8615L68.0073 24.426L68.0035 24.4338L68.9037 24.8693ZM68.9075 24.8615L69.6265 25.5566L69.634 25.5488L68.915 24.8538L68.196 24.1588L68.1885 24.1665L68.9075 24.8615ZM68.915 24.8538L69.7553 25.3958L69.7628 25.3842L68.9225 24.8422L68.0821 24.3002L68.0746 24.3118L68.915 24.8538ZM68.9225 24.8422L69.8227 25.2775L69.8265 25.2698L68.9262 24.8344L68.0259 24.3991L68.0222 24.4068L68.9225 24.8422ZM68.9262 24.8344L69.7667 25.3762L69.7742 25.3645L68.9337 24.8228L68.0932 24.281L68.0857 24.2927L68.9262 24.8344ZM68.9337 24.8228L69.6522 25.5183L69.6559 25.5145L68.9375 24.8189L68.219 24.1234L68.2152 24.1273L68.9337 24.8228ZM68.9375 24.8189L69.7602 25.3873C69.9013 25.183 70.0157 24.9428 70.0762 24.661L69.0986 24.4509L68.1209 24.2407C68.1207 24.2415 68.1207 24.2416 68.1209 24.241C68.121 24.2404 68.1212 24.24 68.1213 24.2398C68.1216 24.2391 68.1203 24.2425 68.1147 24.2506L68.9375 24.8189ZM69.0986 24.4509H70.0986V24.4431H69.0986H68.0986V24.4509H69.0986ZM69.0986 24.4431L70.0765 24.652L71.9837 15.7253L71.0058 15.5164L70.0279 15.3075L68.1206 24.2342L69.0986 24.4431ZM71.0058 15.5164L71.1667 16.5034L77.2519 15.5115L77.091 14.5246L76.9301 13.5376L70.8449 14.5294L71.0058 15.5164ZM77.091 14.5246L76.113 14.3159L75.1351 18.8993L76.1131 19.108L77.0911 19.3167L78.069 14.7332L77.091 14.5246ZM76.1131 19.108L75.6375 18.2283L73.1795 19.5572L73.655 20.4369L74.1306 21.3166L76.5887 19.9877L76.1131 19.108ZM73.655 20.4369L73.1807 19.5566C72.6349 19.8506 72.2951 20.3609 72.179 20.9009L73.1567 21.1111L74.1344 21.3212C74.1361 21.313 74.1387 21.3094 74.1384 21.3097C74.1382 21.3101 74.1372 21.3114 74.1352 21.3131C74.1332 21.3149 74.1311 21.3163 74.1294 21.3172L73.655 20.4369ZM73.1567 21.1111L72.1787 20.9021L70.976 26.5317L71.9539 26.7406L72.9318 26.9496L74.1346 21.32L73.1567 21.1111ZM71.9539 26.7406L70.9761 26.5312C70.7513 27.581 71.3845 28.6643 72.4689 28.9126L72.6921 27.9378L72.9153 26.963C72.9174 26.9635 72.9203 26.9644 72.9233 26.9658C72.9263 26.9672 72.9288 26.9688 72.9307 26.9701C72.9344 26.9728 72.9348 26.9742 72.9339 26.9727C72.933 26.9712 72.9317 26.9684 72.9311 26.9648C72.9305 26.9618 72.9302 26.9572 72.9317 26.95L71.9539 26.7406ZM72.6921 27.9378L72.4715 28.9132C72.9674 29.0253 73.4565 28.9351 73.8589 28.7074L73.3665 27.8371L72.8741 26.9667C72.8755 26.9659 72.8805 26.9634 72.8892 26.9621C72.8987 26.9606 72.9074 26.9612 72.9127 26.9624L72.6921 27.9378ZM73.3665 27.8371L73.8421 28.7168L75.9779 27.5621L75.5024 26.6824L75.0268 25.8028L72.891 26.9574L73.3665 27.8371ZM75.5024 26.6824L74.7117 27.2947L76.278 29.3172L77.0686 28.7049L77.8592 28.0927L76.293 26.0702L75.5024 26.6824ZM77.0686 28.7049L76.2757 29.3143C76.9519 30.1942 78.2091 30.3416 79.0674 29.6365L78.4325 28.8638L77.7977 28.0911C77.7977 28.0912 77.798 28.0909 77.7987 28.0904C77.7994 28.09 77.8004 28.0893 77.8017 28.0887C77.8043 28.0873 77.8075 28.086 77.8112 28.0849C77.8186 28.0828 77.8261 28.0822 77.8332 28.083C77.8403 28.0839 77.8471 28.0861 77.853 28.0894C77.8595 28.093 77.8622 28.0965 77.8615 28.0956L77.0686 28.7049ZM78.4325 28.8638L79.0758 29.6295C79.4309 29.3311 79.663 28.9299 79.7527 28.4972L78.7735 28.2943L77.7943 28.0913C77.7941 28.0924 77.7938 28.0932 77.7934 28.0937C77.7933 28.094 77.7924 28.0956 77.7893 28.0981L78.4325 28.8638ZM78.7735 28.2943L79.7514 28.5032L80.9542 22.8736L79.9763 22.6647L78.9984 22.4557L77.7956 28.0853L78.7735 28.2943ZM79.9763 22.6647L80.9532 22.8784C81.0946 22.2321 80.9072 21.5941 80.5156 21.1356L79.7552 21.7852L78.9949 22.4347C78.9972 22.4374 78.9989 22.4408 78.9996 22.4436C78.9999 22.4447 79 22.4455 79 22.4462C79 22.4468 79 22.4482 78.9994 22.451L79.9763 22.6647ZM79.7552 21.7852L80.5459 21.1729L78.7998 18.918L78.0091 19.5303L77.2185 20.1426L78.9646 22.3974L79.7552 21.7852ZM78.0091 19.5303L78.987 19.7394L80.2348 13.9045L79.2569 13.6954L78.279 13.4863L77.0312 19.3212L78.0091 19.5303ZM79.2569 13.6954L80.2208 13.9618C80.2382 13.8986 80.2479 13.8441 80.2531 13.8119C80.2578 13.7826 80.2622 13.7487 80.2625 13.747L79.2719 13.6102L78.2813 13.4733C78.2806 13.478 78.28 13.4827 78.2796 13.4857C78.2791 13.4891 78.2788 13.4913 78.2786 13.4931C78.2781 13.4969 78.2781 13.4963 78.2785 13.4937C78.279 13.4909 78.2802 13.4838 78.2822 13.4737C78.2843 13.4637 78.2877 13.4483 78.293 13.4291L79.2569 13.6954ZM79.2719 13.6102L80.2253 13.9118C80.4828 13.0978 80.203 12.1605 79.4534 11.6439L78.8859 12.4673L78.3184 13.2906C78.3173 13.2899 78.3162 13.2887 78.3157 13.288C78.3154 13.2876 78.3164 13.2888 78.3174 13.2919C78.3184 13.2952 78.3191 13.2989 78.3191 13.3025C78.3192 13.306 78.3186 13.308 78.3185 13.3086L79.2719 13.6102ZM78.8859 12.4673L79.4563 11.6459L61.7479 -0.65115L61.1775 0.170231L60.6071 0.991613L78.3156 13.2886L78.8859 12.4673ZM61.1775 0.170231L61.7487 -0.650544C61.349 -0.92876 60.8474 -1.05592 60.3355 -0.976926L60.488 0.0113758L60.6406 0.999677C60.6375 1.00015 60.6311 1.00034 60.6235 0.998534C60.6164 0.996848 60.6106 0.994018 60.6062 0.991007L61.1775 0.170231ZM60.488 0.0113758L60.327 -0.975575L39.2871 2.45714L39.4482 3.44409L39.6092 4.43104L60.6491 0.998326L60.488 0.0113758ZM39.4482 3.44409L39.32 2.45234C38.7705 2.52337 38.2441 2.83072 37.9163 3.34298L38.7587 3.8819L39.6011 4.42083C39.5989 4.42413 39.595 4.4282 39.5904 4.43107C39.5868 4.43332 39.5825 4.43504 39.5763 4.43584L39.4482 3.44409ZM38.7587 3.8819L37.9203 3.33682C37.3307 4.24368 37.5575 5.47481 38.4541 6.09784L39.0247 5.27665L39.5954 4.45546C39.5967 4.45636 39.5976 4.4576 39.5975 4.45745C39.597 4.45667 39.5953 4.45357 39.5943 4.44819C39.5933 4.44281 39.5934 4.43793 39.5941 4.43443C39.5946 4.43161 39.5954 4.42952 39.5971 4.42699L38.7587 3.8819ZM39.0247 5.27665L38.4544 6.09809L44.7494 10.4684L45.3197 9.64696L45.89 8.82552L39.595 4.45521L39.0247 5.27665ZM45.3197 9.64696L44.3418 9.43794L42.4346 18.3608L43.4125 18.5698L44.3904 18.7788L46.2976 9.85599L45.3197 9.64696ZM43.4125 18.5698H42.4125V18.5737H43.4125H44.4125V18.5698H43.4125ZM43.4125 18.5737L42.4405 18.3387C42.4398 18.3415 42.4308 18.3774 42.4234 18.4185C42.4154 18.4626 42.405 18.5334 42.405 18.6202H43.405H44.405C44.405 18.6914 44.3965 18.7467 44.3913 18.7753C44.3866 18.8009 44.3814 18.8214 44.3845 18.8087L43.4125 18.5737ZM43.405 18.6202L42.4162 18.4707C42.3831 18.6897 42.3797 18.926 42.4269 19.1704L43.4087 18.9805L44.3905 18.7906C44.3916 18.7959 44.3914 18.7979 44.3914 18.7954C44.3913 18.7927 44.3915 18.7844 44.3938 18.7696L43.405 18.6202ZM43.4087 18.9805H42.4087V18.9882H43.4087H44.4087V18.9805H43.4087ZM43.4087 18.9882L42.4367 19.2232L42.4405 19.2387L43.4125 19.0037L44.3845 18.7687L44.3807 18.7532L43.4087 18.9882ZM43.4125 19.0037L42.4607 19.3106L42.4757 19.357L43.4275 19.0502L44.3792 18.7434L44.3642 18.6969L43.4125 19.0037ZM43.4275 19.0502L42.4457 19.2401L42.4494 19.2595L43.4312 19.0696L44.413 18.8797L44.4093 18.8603L43.4275 19.0502ZM43.4312 19.0696L42.4567 19.294C42.5026 19.4931 42.583 19.6774 42.6863 19.8417L43.5329 19.3095L44.3795 18.7773C44.3854 18.7866 44.3973 18.8088 44.4057 18.8452L43.4312 19.0696ZM45.4101 18.5462L46.388 18.7553L48.0329 11.0607L47.055 10.8516L46.0771 10.6426L44.4322 18.3372L45.4101 18.5462ZM47.055 10.8516L46.4847 11.6731L56.1673 18.3952L56.7375 17.5737L57.3078 16.7523L47.6253 10.0302L47.055 10.8516ZM56.7375 17.5737L56.1663 18.3945C56.566 18.6727 57.0676 18.7999 57.5795 18.7209L57.427 17.7326L57.2745 16.7443C57.2776 16.7438 57.2839 16.7436 57.2915 16.7454C57.2986 16.7471 57.3045 16.7499 57.3088 16.753L56.7375 17.5737ZM57.427 17.7326L57.588 18.7195L69.1065 16.8405L68.9455 15.8535L68.7845 14.8666L57.266 16.7456L57.427 17.7326ZM68.9455 15.8535L67.9676 15.6446L66.3227 23.343L67.3006 23.552L68.2785 23.7609L69.9234 16.0625L68.9455 15.8535ZM67.3006 23.552L66.8381 22.6654C63.2959 24.5132 59.3728 24.9432 55.7161 24.1076L55.4934 25.0824L55.2706 26.0573C59.3786 26.9961 63.7888 26.5118 67.7631 24.4386L67.3006 23.552ZM55.4934 25.0824L55.7173 24.1078C52.0634 23.2682 48.6695 21.1648 46.2047 17.9391L45.4101 18.5462L44.6155 19.1534C47.3671 22.7544 51.1669 25.1144 55.2694 26.057L55.4934 25.0824ZM77.3162 25.8108L78.1068 25.1985L77.3387 24.2066L76.5481 24.8189L75.7575 25.4312L76.5256 26.4231L77.3162 25.8108ZM76.5481 24.8189L77.3667 24.2446C76.8068 23.4466 75.7325 23.1614 74.8399 23.6388L75.3115 24.5206L75.7831 25.4024C75.7815 25.4033 75.7763 25.4055 75.7687 25.4064C75.7616 25.4073 75.755 25.4067 75.7496 25.4054C75.7385 25.4026 75.7317 25.3965 75.7295 25.3933L76.5481 24.8189ZM75.3115 24.5206L74.8364 23.6407L73.8247 24.187L74.2998 25.0669L74.775 25.9468L75.7867 25.4005L75.3115 24.5206ZM74.2998 25.0669L75.2777 25.2759L75.9335 22.2073L74.9556 21.9983L73.9776 21.7893L73.3219 24.8579L74.2998 25.0669ZM74.9556 21.9983L75.4309 22.8781L77.1807 21.9327L76.7054 21.0529L76.2301 20.1731L74.4802 21.1185L74.9556 21.9983ZM76.7054 21.0529L75.9145 21.6648L77.1884 23.3115L77.9794 22.6996L78.7703 22.0877L77.4963 20.441L76.7054 21.0529ZM77.9794 22.6996L77.0013 22.4912L76.3382 25.6023L77.3162 25.8108L78.2943 26.0193L78.9574 22.9081L77.9794 22.6996ZM43.5853 19.3909L44.4369 18.8666L44.4297 18.8549L43.5782 19.3792L42.7266 19.9035L42.7338 19.9152L43.5853 19.3909ZM43.5782 19.3792L44.4784 18.9439L44.4747 18.9361L43.5744 19.3714L42.6741 19.8068L42.6779 19.8145L43.5782 19.3792ZM43.5744 19.3714L44.3653 18.7595L44.3503 18.7401L43.5594 19.3521L42.7685 19.964L42.7835 19.9834L43.5744 19.3714ZM43.5594 19.3521L44.4243 18.8502L44.4019 18.8114L43.5369 19.3133L42.672 19.8152L42.6945 19.854L43.5594 19.3521ZM43.5369 19.3133L42.6887 19.8429L42.7371 19.9204L43.5853 19.3909L44.4336 18.8613L44.3852 18.7838L43.5369 19.3133ZM70.0318 13.6373L69.8707 12.6503L57.3411 14.696L57.5022 15.683L57.6634 16.6699L70.1929 14.6242L70.0318 13.6373ZM57.5022 15.683L58.0725 14.8615L42.7362 4.21492L42.166 5.03638L41.5957 5.85784L56.932 16.5044L57.5022 15.683ZM42.166 5.03638L42.3269 6.02334L60.5716 3.04777L60.4106 2.06081L60.2497 1.07385L42.005 4.04942L42.166 5.03638ZM60.4106 2.06081L59.8404 2.88227L75.1766 13.5288L75.7469 12.7074L76.3172 11.8859L60.9809 1.23935L60.4106 2.06081ZM75.7469 12.7074L75.586 11.7204L69.9055 12.6464L70.0664 13.6334L70.2273 14.6203L75.9078 13.6944L75.7469 12.7074ZM70.0664 13.6334V12.6334C70.0446 12.6334 70.0252 12.6341 70.0087 12.635C69.9923 12.6359 69.9777 12.6371 69.9656 12.6383C69.942 12.6407 69.9229 12.6434 69.9118 12.645C69.9007 12.6467 69.8917 12.6482 69.8891 12.6487C69.8882 12.6488 69.8875 12.6489 69.8871 12.649C69.8865 12.6491 69.8865 12.6491 69.8863 12.6491C69.8862 12.6491 69.887 12.649 69.8883 12.6488C69.8933 12.648 69.9112 12.645 69.935 12.6424C69.9595 12.6398 69.9925 12.6373 70.0318 12.6373V13.6373V14.6373C70.0786 14.6373 70.1187 14.6342 70.1499 14.6309C70.1805 14.6276 70.2047 14.6236 70.2155 14.6218C70.2183 14.6214 70.2206 14.621 70.2218 14.6208C70.2223 14.6207 70.223 14.6206 70.2231 14.6206C70.2234 14.6205 70.2233 14.6205 70.2232 14.6206C70.2229 14.6206 70.2212 14.6209 70.2189 14.6213C70.2166 14.6216 70.2128 14.6222 70.2081 14.6229C70.1994 14.6242 70.1827 14.6266 70.1612 14.6287C70.1502 14.6298 70.1367 14.631 70.1212 14.6318C70.1058 14.6327 70.0873 14.6334 70.0664 14.6334V13.6334ZM11.7544 45.8378V44.8378C11.7571 44.8378 11.7609 44.8382 11.7651 44.8391C11.7693 44.8399 11.773 44.8412 11.7762 44.8426C11.7793 44.8439 11.7814 44.8452 11.7828 44.8462C11.7841 44.8471 11.7846 44.8477 11.7847 44.8477C11.7847 44.8477 11.7843 44.8474 11.7838 44.8466C11.7833 44.8458 11.7828 44.8448 11.7823 44.8435C11.7814 44.8414 11.7802 44.8375 11.7802 44.8305H10.7802H9.78015C9.78015 45.9025 10.6288 46.8378 11.7544 46.8378V45.8378ZM10.7802 44.8305H11.7802C11.7802 44.8229 11.7815 44.819 11.7822 44.8173C11.7827 44.8162 11.7831 44.8153 11.7835 44.8147C11.784 44.814 11.7843 44.8137 11.7842 44.8138C11.7842 44.8138 11.7837 44.8143 11.7825 44.8152C11.7812 44.816 11.7792 44.8173 11.7763 44.8186C11.7733 44.8199 11.7697 44.8211 11.7655 44.8219C11.7614 44.8228 11.7575 44.8232 11.7544 44.8232V43.8232V42.8232C10.6375 42.8232 9.78015 43.7495 9.78015 44.8305H10.7802ZM11.7544 43.8232V44.8232H28.0988V43.8232V42.8232H11.7544V43.8232ZM28.0988 43.8232V44.8232C28.096 44.8232 28.0923 44.8229 28.088 44.822C28.0838 44.8211 28.0801 44.8198 28.0769 44.8184C28.0739 44.8171 28.0717 44.8158 28.0703 44.8148C28.069 44.8139 28.0685 44.8133 28.0685 44.8133C28.0684 44.8133 28.0688 44.8137 28.0693 44.8144C28.0698 44.8152 28.0704 44.8162 28.0709 44.8175C28.0717 44.8196 28.073 44.8235 28.073 44.8305H29.073H30.073C30.073 43.7586 29.2244 42.8232 28.0988 42.8232V43.8232ZM29.073 44.8305H28.073C28.073 44.8381 28.0716 44.842 28.0709 44.8437C28.0705 44.8448 28.07 44.8457 28.0696 44.8463C28.0692 44.847 28.0689 44.8473 28.0689 44.8472C28.0689 44.8472 28.0695 44.8467 28.0707 44.8458C28.0719 44.845 28.0739 44.8437 28.0769 44.8425C28.0798 44.8412 28.0835 44.8399 28.0876 44.8391C28.0918 44.8382 28.0957 44.8378 28.0988 44.8378V45.8378V46.8378C29.2156 46.8378 30.073 45.9115 30.073 44.8305H29.073ZM28.0988 45.8378V44.8378H11.7544V45.8378V46.8378H28.0988V45.8378ZM11.7544 39.8247V38.8247C11.7571 38.8247 11.7609 38.825 11.7651 38.8259C11.7693 38.8268 11.773 38.8281 11.7762 38.8295C11.7793 38.8308 11.7814 38.8321 11.7828 38.8331C11.7841 38.834 11.7847 38.8346 11.7847 38.8346C11.7847 38.8346 11.7843 38.8342 11.7838 38.8335C11.7833 38.8327 11.7828 38.8317 11.7823 38.8304C11.7814 38.8283 11.7802 38.8244 11.7802 38.8174H10.7802H9.78015C9.78015 39.8893 10.6288 40.8247 11.7544 40.8247V39.8247ZM10.7802 38.8174H11.7802C11.7802 38.8098 11.7815 38.8059 11.7822 38.8042C11.7826 38.8031 11.7831 38.8022 11.7835 38.8016C11.784 38.8009 11.7843 38.8006 11.7842 38.8007C11.7842 38.8007 11.7837 38.8012 11.7825 38.8021C11.7812 38.8029 11.7792 38.8042 11.7763 38.8054C11.7733 38.8067 11.7697 38.808 11.7655 38.8088C11.7614 38.8097 11.7575 38.8101 11.7544 38.8101V37.8101V36.8101C10.6375 36.8101 9.78015 37.7364 9.78015 38.8174H10.7802ZM11.7544 37.8101V38.8101H28.0988V37.8101V36.8101H11.7544V37.8101ZM28.0988 37.8101V38.8101C28.096 38.8101 28.0923 38.8097 28.088 38.8088C28.0838 38.808 28.0801 38.8067 28.0769 38.8053C28.0739 38.804 28.0717 38.8026 28.0704 38.8017C28.069 38.8008 28.0685 38.8002 28.0685 38.8002C28.0684 38.8002 28.0688 38.8005 28.0693 38.8013C28.0698 38.8021 28.0704 38.8031 28.0709 38.8044C28.0717 38.8065 28.073 38.8104 28.073 38.8174H29.073H30.073C30.073 37.7454 29.2244 36.8101 28.0988 36.8101V37.8101ZM29.073 38.8174H28.073C28.073 38.825 28.0716 38.8289 28.0709 38.8306C28.0705 38.8317 28.07 38.8326 28.0696 38.8332C28.0692 38.8339 28.0689 38.8342 28.0689 38.8341C28.0689 38.8341 28.0695 38.8336 28.0707 38.8327C28.0719 38.8319 28.0739 38.8306 28.0769 38.8293C28.0798 38.828 28.0835 38.8268 28.0876 38.826C28.0918 38.8251 28.0957 38.8247 28.0988 38.8247V39.8247V40.8247C29.2156 40.8247 30.073 39.8984 30.073 38.8174H29.073ZM28.0988 39.8247V38.8247H11.7544V39.8247V40.8247H28.0988V39.8247ZM11.7544 33.8155V32.8155C11.7571 32.8155 11.7609 32.8158 11.7651 32.8167C11.7693 32.8176 11.773 32.8188 11.7762 32.8202C11.7793 32.8216 11.7814 32.8229 11.7828 32.8238C11.7841 32.8247 11.7847 32.8253 11.7847 32.8253C11.7847 32.8253 11.7843 32.825 11.7838 32.8242C11.7833 32.8234 11.7828 32.8224 11.7823 32.8211C11.7814 32.819 11.7802 32.8151 11.7802 32.8081H10.7802H9.78015C9.78015 33.8801 10.6288 34.8155 11.7544 34.8155V33.8155ZM10.7802 32.8081H11.7802C11.7802 32.8005 11.7815 32.7966 11.7822 32.7949C11.7827 32.7938 11.7831 32.7929 11.7835 32.7923C11.784 32.7917 11.7843 32.7914 11.7842 32.7914C11.7842 32.7914 11.7837 32.792 11.7825 32.7928C11.7812 32.7937 11.7792 32.7949 11.7763 32.7962C11.7733 32.7975 11.7697 32.7987 11.7655 32.7996C11.7614 32.8005 11.7575 32.8008 11.7544 32.8008V31.8008V30.8008C10.6375 30.8008 9.78015 31.7272 9.78015 32.8081H10.7802ZM11.7544 31.8008V32.8008H28.0988V31.8008V30.8008H11.7544V31.8008ZM28.0988 31.8008V32.8008C28.096 32.8008 28.0923 32.8005 28.088 32.7996C28.0838 32.7987 28.0801 32.7974 28.0769 32.7961C28.0739 32.7947 28.0717 32.7934 28.0703 32.7925C28.069 32.7915 28.0685 32.791 28.0685 32.7909C28.0684 32.7909 28.0688 32.7913 28.0693 32.7921C28.0698 32.7928 28.0704 32.7938 28.0709 32.7951C28.0717 32.7972 28.073 32.8012 28.073 32.8081H29.073H30.073C30.073 31.7362 29.2244 30.8008 28.0988 30.8008V31.8008ZM29.073 32.8081H28.073C28.073 32.8158 28.0716 32.8196 28.0709 32.8213C28.0705 32.8225 28.07 32.8233 28.0696 32.824C28.0692 32.8246 28.0689 32.8249 28.0689 32.8249C28.0689 32.8248 28.0695 32.8243 28.0707 32.8235C28.0719 32.8226 28.0739 32.8214 28.0769 32.8201C28.0798 32.8188 28.0835 32.8176 28.0876 32.8167C28.0918 32.8158 28.0957 32.8155 28.0988 32.8155V33.8155V34.8155C29.2156 34.8155 30.073 33.8891 30.073 32.8081H29.073ZM28.0988 33.8155V32.8155H11.7544V33.8155V34.8155H28.0988V33.8155ZM11.7544 27.8023V26.8023C11.7571 26.8023 11.7609 26.8027 11.7651 26.8036C11.7693 26.8044 11.773 26.8057 11.7762 26.8071C11.7793 26.8084 11.7814 26.8097 11.7828 26.8107C11.7841 26.8116 11.7847 26.8122 11.7847 26.8122C11.7847 26.8122 11.7843 26.8119 11.7838 26.8111C11.7833 26.8103 11.7828 26.8093 11.7823 26.808C11.7814 26.8059 11.7802 26.802 11.7802 26.795H10.7802H9.78015C9.78015 27.867 10.6288 28.8023 11.7544 28.8023V27.8023ZM10.7802 26.795H11.7802C11.7802 26.7874 11.7815 26.7835 11.7822 26.7818C11.7827 26.7807 11.7831 26.7798 11.7835 26.7792C11.784 26.7785 11.7843 26.7782 11.7842 26.7783C11.7842 26.7783 11.7837 26.7788 11.7825 26.7797C11.7812 26.7805 11.7792 26.7818 11.7763 26.7831C11.7733 26.7843 11.7697 26.7856 11.7655 26.7864C11.7614 26.7873 11.7575 26.7877 11.7544 26.7877V25.7877V24.7877C10.6375 24.7877 9.78015 25.714 9.78015 26.795H10.7802ZM11.7544 25.7877V26.7877H28.0988V25.7877V24.7877H11.7544V25.7877ZM28.0988 25.7877V26.7877C28.096 26.7877 28.0923 26.7874 28.088 26.7865C28.0838 26.7856 28.0801 26.7843 28.0769 26.7829C28.0739 26.7816 28.0717 26.7803 28.0703 26.7793C28.069 26.7784 28.0685 26.7778 28.0685 26.7778C28.0684 26.7778 28.0688 26.7782 28.0693 26.7789C28.0698 26.7797 28.0704 26.7807 28.0709 26.782C28.0717 26.7841 28.073 26.788 28.073 26.795H29.073H30.073C30.073 25.723 29.2244 24.7877 28.0988 24.7877V25.7877ZM29.073 26.795H28.073C28.073 26.8026 28.0716 26.8065 28.0709 26.8082C28.0705 26.8093 28.07 26.8102 28.0696 26.8108C28.0692 26.8115 28.0689 26.8118 28.0689 26.8117C28.0689 26.8117 28.0695 26.8112 28.0707 26.8103C28.0719 26.8095 28.0739 26.8082 28.0769 26.807C28.0798 26.8057 28.0835 26.8044 28.0876 26.8036C28.0918 26.8027 28.0957 26.8023 28.0988 26.8023V27.8023V28.8023C29.2156 28.8023 30.073 27.876 30.073 26.795H29.073ZM28.0988 27.8023V26.8023H11.7544V27.8023V28.8023H28.0988V27.8023ZM11.7544 21.7931V20.7931C11.7571 20.7931 11.7609 20.7934 11.7651 20.7943C11.7693 20.7952 11.773 20.7964 11.7762 20.7978C11.7793 20.7992 11.7814 20.8005 11.7828 20.8014C11.7841 20.8024 11.7847 20.8029 11.7847 20.8029C11.7847 20.803 11.7843 20.8026 11.7838 20.8018C11.7833 20.8011 11.7828 20.8 11.7823 20.7988C11.7814 20.7966 11.7802 20.7927 11.7802 20.7858H10.7802H9.78015C9.78015 21.8577 10.6288 22.7931 11.7544 22.7931V21.7931ZM10.7802 20.7858H11.7802C11.7802 20.7781 11.7815 20.7742 11.7822 20.7725C11.7826 20.7714 11.7831 20.7706 11.7835 20.7699C11.784 20.7693 11.7843 20.769 11.7842 20.769C11.7842 20.769 11.7837 20.7696 11.7825 20.7704C11.7812 20.7713 11.7792 20.7725 11.7763 20.7738C11.7733 20.7751 11.7697 20.7763 11.7655 20.7772C11.7614 20.7781 11.7575 20.7784 11.7544 20.7784V19.7784V18.7784C10.6375 18.7784 9.78015 19.7048 9.78015 20.7858H10.7802ZM11.7544 19.7784V20.7784H28.0988V19.7784V18.7784H11.7544V19.7784ZM28.0988 19.7784V20.7784C28.096 20.7784 28.0923 20.7781 28.088 20.7772C28.0838 20.7763 28.0801 20.7751 28.0769 20.7737C28.0739 20.7723 28.0717 20.771 28.0704 20.7701C28.069 20.7692 28.0685 20.7686 28.0685 20.7686C28.0684 20.7685 28.0688 20.7689 28.0693 20.7697C28.0698 20.7704 28.0704 20.7715 28.0709 20.7727C28.0717 20.7749 28.073 20.7788 28.073 20.7858H29.073H30.073C30.073 19.7138 29.2244 18.7784 28.0988 18.7784V19.7784ZM29.073 20.7858H28.073C28.073 20.7934 28.0716 20.7973 28.0709 20.799C28.0705 20.8001 28.07 20.8009 28.0696 20.8016C28.0692 20.8022 28.0689 20.8025 28.0689 20.8025C28.0689 20.8025 28.0695 20.8019 28.0707 20.8011C28.0719 20.8002 28.0739 20.799 28.0769 20.7977C28.0798 20.7964 28.0835 20.7952 28.0876 20.7943C28.0918 20.7934 28.0957 20.7931 28.0988 20.7931V21.7931V22.7931C29.2156 22.7931 30.073 21.8667 30.073 20.7858H29.073ZM28.0988 21.7931V20.7931H11.7544V21.7931V22.7931H28.0988V21.7931ZM33.0753 58.3092L32.1253 58.6214C32.381 59.3996 33.1059 59.995 34.0008 59.995V58.995V57.995C34.0048 57.995 34.0106 57.9958 34.0168 57.9979C34.0225 57.9999 34.0262 58.0022 34.0279 58.0035C34.0307 58.0056 34.0277 58.0042 34.0253 57.997L33.0753 58.3092ZM34.0008 58.995L33.9939 59.995L34.5522 59.9989L34.5591 58.9989L34.566 57.9989L34.0077 57.995L34.0008 58.995ZM34.5591 58.9989V59.9989H35.1249V58.9989V57.9989H34.5591V58.9989ZM35.1249 58.9989V59.9989C36.0198 59.9989 36.7447 59.4035 37.0004 58.6253L36.0504 58.3131L35.1004 58.0009C35.098 58.0081 35.095 58.0094 35.0978 58.0074C35.0995 58.0061 35.1032 58.0037 35.109 58.0018C35.1151 57.9997 35.1209 57.9989 35.1249 57.9989V58.9989ZM36.0504 58.3131L36.963 58.722C37.3375 57.8862 37.9318 57.1806 38.6661 56.6861L38.1075 55.8567L37.5489 55.0272C36.4996 55.7339 35.6626 56.7331 35.1378 57.9042L36.0504 58.3131ZM38.1075 55.8567L38.6668 56.6856C39.3926 56.1959 40.2519 55.9152 41.1763 55.9152V54.9152V53.9152C39.8374 53.9152 38.591 54.3241 37.5482 55.0277L38.1075 55.8567ZM41.1763 54.9152V55.9152H63.8306V54.9152V53.9152H41.1763V54.9152ZM63.8306 54.9152V55.9152C64.9562 55.9152 65.8048 54.9798 65.8048 53.9079H64.8048H63.8048C63.8048 53.9148 63.8035 53.9188 63.8027 53.9209C63.8021 53.9222 63.8016 53.9232 63.8011 53.9239C63.8006 53.9247 63.8002 53.9251 63.8002 53.9251C63.8003 53.925 63.8008 53.9245 63.8021 53.9235C63.8035 53.9226 63.8056 53.9213 63.8087 53.9199C63.8119 53.9186 63.8156 53.9173 63.8198 53.9164C63.824 53.9155 63.8278 53.9152 63.8306 53.9152V54.9152ZM64.8048 53.9079L65.8048 53.9082L65.8123 28.6972L64.8123 28.6969L63.8123 28.6966L63.8048 53.9076L64.8048 53.9079ZM64.8123 28.6969H65.8123C65.8123 27.6159 64.9549 26.6896 63.8381 26.6896V27.6896V28.6896C63.8349 28.6896 63.8311 28.6892 63.8269 28.6883C63.8227 28.6874 63.8191 28.6862 63.8161 28.6849C63.8132 28.6836 63.8112 28.6824 63.8099 28.6815C63.8087 28.6807 63.8082 28.6802 63.8082 28.6801C63.8081 28.6801 63.8084 28.6804 63.8089 28.6811C63.8093 28.6817 63.8098 28.6826 63.8102 28.6837C63.8109 28.6854 63.8123 28.6893 63.8123 28.6969H64.8123ZM63.8381 27.6896V26.6896C62.7125 26.6896 61.8639 27.6249 61.8639 28.6969H62.8639H63.8639C63.8639 28.6899 63.8651 28.686 63.866 28.6839C63.8665 28.6826 63.867 28.6816 63.8675 28.6808C63.8681 28.68 63.8684 28.6797 63.8684 28.6797C63.8684 28.6797 63.8678 28.6803 63.8665 28.6812C63.8652 28.6821 63.863 28.6835 63.8599 28.6848C63.8568 28.6862 63.853 28.6875 63.8488 28.6883C63.8446 28.6892 63.8408 28.6896 63.8381 28.6896V27.6896ZM62.8639 28.6969H61.8639V52.8962H62.8639H63.8639V28.6969H62.8639ZM62.8639 52.8962V51.8962H41.1803V52.8962V53.8962H62.8639V52.8962ZM41.1803 52.8962V51.8962C39.4534 51.8962 37.8396 52.4304 36.4909 53.3426L37.0511 54.1709L37.6113 54.9992C38.6458 54.2996 39.8723 53.8962 41.1803 53.8962V52.8962ZM37.0511 54.1709L36.4927 53.3413C35.8596 53.7675 35.2847 54.2794 34.7835 54.8544L35.5373 55.5115L36.2911 56.1686C36.6816 55.7206 37.126 55.3259 37.6095 55.0005L37.0511 54.1709ZM35.5373 55.5115L36.5373 55.5116L36.5411 18.7663L35.5411 18.7662L34.5411 18.7661L34.5373 55.5114L35.5373 55.5115ZM35.5411 18.7662H36.5411C36.5411 17.4294 37.068 16.2205 37.9186 15.3443L37.201 14.6477L36.4835 13.9512C35.2807 15.1904 34.5411 16.895 34.5411 18.7662H35.5411ZM37.201 14.6477L37.9199 15.3429C38.7686 14.4654 39.9236 13.9313 41.1841 13.9313V12.9313V11.9313C39.3421 11.9313 37.6794 12.7147 36.4822 13.9526L37.201 14.6477ZM41.1841 12.9313V13.9313H43.1662V12.9313V11.9313H41.1841V12.9313ZM43.1662 12.9313V13.9313C44.2918 13.9313 45.1404 12.996 45.1404 11.924H44.1404H43.1404C43.1404 11.931 43.1392 11.9349 43.1383 11.937C43.1378 11.9383 43.1373 11.9393 43.1368 11.9401C43.1362 11.9409 43.1359 11.9412 43.1359 11.9412C43.1359 11.9412 43.1365 11.9406 43.1378 11.9397C43.1391 11.9387 43.1413 11.9374 43.1444 11.9361C43.1475 11.9347 43.1513 11.9334 43.1555 11.9325C43.1597 11.9316 43.1635 11.9313 43.1662 11.9313V12.9313ZM44.1404 11.924H45.1404C45.1404 10.843 44.2831 9.91668 43.1662 9.91668V10.9167V11.9167C43.1631 11.9167 43.1592 11.9163 43.155 11.9154C43.1509 11.9146 43.1473 11.9133 43.1443 11.9121C43.1414 11.9108 43.1394 11.9095 43.1381 11.9087C43.1369 11.9078 43.1364 11.9073 43.1364 11.9073C43.1363 11.9072 43.1366 11.9075 43.137 11.9082C43.1375 11.9088 43.1379 11.9097 43.1384 11.9108C43.1391 11.9125 43.1404 11.9164 43.1404 11.924H44.1404ZM43.1662 10.9167V9.91668H41.1841V10.9167V11.9167H43.1662V10.9167ZM41.1841 10.9167V9.91668C38.8038 9.91668 36.6537 10.9237 35.1033 12.5268L35.8221 13.222L36.541 13.9171C37.7409 12.6764 39.3826 11.9167 41.1841 11.9167V10.9167ZM35.8221 13.222L35.1033 12.5268C34.5486 13.1003 34.0771 13.7454 33.6916 14.4431L34.5669 14.9268L35.4421 15.4104C35.7461 14.8603 36.1139 14.3587 36.541 13.9171L35.8221 13.222ZM34.5669 14.9268L35.4456 14.4494C35.0608 13.7411 34.5827 13.0935 34.0278 12.5241L33.3116 13.222L32.5954 13.9198C33.0222 14.3579 33.391 14.8571 33.6882 15.4041L34.5669 14.9268ZM33.3116 13.222L34.0304 12.5268C32.4797 10.9232 30.3255 9.91668 27.9458 9.91668V10.9167V11.9167C29.7478 11.9167 31.3933 12.6768 32.5928 13.9171L33.3116 13.222ZM27.9458 10.9167L27.9461 9.91668L14.9216 9.9128L14.9213 10.9128L14.921 11.9128L27.9455 11.9167L27.9458 10.9167ZM14.9213 10.9128V9.9128C13.7958 9.9128 12.9471 10.8482 12.9471 11.9201H13.9471H14.9471C14.9471 11.9132 14.9484 11.9092 14.9492 11.9071C14.9498 11.9058 14.9503 11.9048 14.9508 11.9041C14.9513 11.9033 14.9517 11.9029 14.9517 11.9029C14.9516 11.903 14.9511 11.9035 14.9498 11.9045C14.9484 11.9054 14.9463 11.9067 14.9432 11.9081C14.94 11.9094 14.9363 11.9107 14.9321 11.9116C14.9279 11.9125 14.9241 11.9128 14.9213 11.9128V10.9128ZM13.9471 11.9201H12.9471C12.9471 13.0011 13.8045 13.9275 14.9213 13.9275V12.9275V11.9275C14.9245 11.9275 14.9283 11.9278 14.9325 11.9287C14.9367 11.9296 14.9403 11.9308 14.9433 11.9321C14.9462 11.9334 14.9482 11.9346 14.9495 11.9355C14.9507 11.9363 14.9512 11.9368 14.9512 11.9369C14.9512 11.9369 14.951 11.9366 14.9505 11.936C14.9501 11.9353 14.9496 11.9345 14.9492 11.9333C14.9485 11.9316 14.9471 11.9278 14.9471 11.9201H13.9471ZM14.9213 12.9275V13.9275H27.9458V12.9275V11.9275H14.9213V12.9275ZM27.9458 12.9275V13.9275C29.2079 13.9275 30.3618 14.4587 31.2088 15.3377L31.9289 14.6439L32.649 13.95C31.4502 12.7058 29.7864 11.9275 27.9458 11.9275V12.9275ZM31.9289 14.6439L31.2101 15.3391C32.0591 16.217 32.5888 17.4271 32.5888 18.7623H33.5888H34.5888C34.5888 16.8898 33.8445 15.1861 32.6477 13.9487L31.9289 14.6439ZM33.5888 18.7623H32.5888V55.5076H33.5888H34.5888V18.7623H33.5888ZM33.5888 55.5076L34.3426 54.8505C33.8414 54.2756 33.2666 53.7637 32.6335 53.3375L32.0751 54.167L31.5166 54.9966C32.0001 55.3221 32.4445 55.7168 32.8351 56.1648L33.5888 55.5076ZM32.0751 54.167L32.6353 53.3387C31.2866 52.4265 29.6728 51.8923 27.9458 51.8923V52.8923V53.8923C29.2539 53.8923 30.4804 54.2957 31.5148 54.9954L32.0751 54.167ZM27.9458 52.8923L27.9457 51.8923L6.26501 51.8962L6.26519 52.8962L6.26537 53.8962L27.946 53.8923L27.9458 52.8923ZM6.26519 52.8962H7.26519V12.9353H6.26519H5.26519V52.8962H6.26519ZM6.26519 12.9353V13.9353H9.87355V12.9353V11.9353H6.26519V12.9353ZM9.87355 12.9353V13.9353C10.9991 13.9353 11.8478 12.9999 11.8478 11.928H10.8478H9.84775C9.84775 11.9349 9.84651 11.9389 9.84565 11.941C9.84513 11.9423 9.84457 11.9433 9.84407 11.944C9.84356 11.9448 9.84322 11.9452 9.84323 11.9452C9.84325 11.9451 9.84381 11.9446 9.84512 11.9437C9.84646 11.9427 9.84863 11.9414 9.85172 11.94C9.85486 11.9387 9.85861 11.9374 9.86278 11.9365C9.86702 11.9356 9.87077 11.9353 9.87355 11.9353V12.9353ZM10.8478 11.928H11.8478C11.8478 10.847 10.9904 9.92065 9.87355 9.92065V10.9206V11.9206C9.87043 11.9206 9.86655 11.9203 9.86236 11.9194C9.85823 11.9185 9.8546 11.9173 9.85162 11.916C9.8487 11.9147 9.84667 11.9135 9.84544 11.9126C9.84422 11.9118 9.84371 11.9113 9.84368 11.9112C9.84364 11.9112 9.84393 11.9115 9.84436 11.9122C9.84477 11.9128 9.84525 11.9137 9.84571 11.9148C9.84641 11.9165 9.84775 11.9204 9.84775 11.928H10.8478ZM9.87355 10.9206V9.92065H5.28725V10.9206V11.9206H9.87355V10.9206ZM5.28725 10.9206V9.92065C4.16166 9.92065 3.31305 10.856 3.31305 11.928H4.31305H5.31305C5.31305 11.921 5.31429 11.9171 5.31515 11.915C5.31567 11.9137 5.31623 11.9127 5.31673 11.9119C5.31724 11.9111 5.31759 11.9108 5.31757 11.9108C5.31755 11.9108 5.317 11.9114 5.31568 11.9123C5.31434 11.9132 5.31217 11.9146 5.30909 11.9159C5.30595 11.9173 5.30219 11.9185 5.29802 11.9194C5.29378 11.9203 5.29003 11.9206 5.28725 11.9206V10.9206ZM4.31305 11.928H3.31305V53.9073H4.31305H5.31305V11.928H4.31305ZM4.31305 53.9073H3.31305C3.31305 54.9882 4.17038 55.9146 5.28725 55.9146V54.9146V53.9146C5.29038 53.9146 5.29425 53.9149 5.29845 53.9158C5.30257 53.9167 5.3062 53.9179 5.30918 53.9192C5.3121 53.9205 5.31413 53.9217 5.31537 53.9226C5.31658 53.9234 5.3171 53.924 5.31713 53.924C5.31716 53.924 5.31687 53.9237 5.31644 53.9231C5.31603 53.9225 5.31555 53.9216 5.31509 53.9205C5.31439 53.9188 5.31305 53.9149 5.31305 53.9073H4.31305ZM5.28725 54.9146V55.9146H27.9415V54.9146V53.9146H5.28725V54.9146ZM27.9415 54.9146V55.9146C28.8647 55.9146 29.7283 56.1985 30.4519 56.6856L31.0103 55.8561L31.5688 55.0265C30.5311 54.328 29.2815 53.9146 27.9415 53.9146V54.9146ZM31.0103 55.8561L30.4534 56.6866C31.192 57.182 31.7896 57.8886 32.1633 58.7194L33.0753 58.3092L33.9873 57.8991C33.4618 56.7305 32.6197 55.7313 31.5673 55.0255L31.0103 55.8561ZM30.9395 56.9803V55.9803H1.94847V56.9803V57.9803H30.9395V56.9803ZM1.94847 56.9803H2.94847V17.0542H1.94847H0.948467V56.9803H1.94847ZM1.94847 17.0542V18.0542H2.68663V17.0542V16.0542H1.94847V17.0542ZM2.68663 17.0542V18.0542C3.81222 18.0542 4.66083 17.1188 4.66083 16.0469H3.66083H2.66083C2.66083 16.0538 2.65959 16.0578 2.65873 16.0599C2.65821 16.0612 2.65765 16.0622 2.65715 16.0629C2.65664 16.0637 2.65629 16.0641 2.65631 16.0641C2.65633 16.064 2.65688 16.0635 2.6582 16.0625C2.65954 16.0616 2.6617 16.0603 2.66479 16.0589C2.66793 16.0576 2.67169 16.0563 2.67586 16.0554C2.6801 16.0545 2.68385 16.0542 2.68663 16.0542V17.0542ZM3.66083 16.0469H4.66083C4.66083 14.9659 3.80349 14.0395 2.68663 14.0395V15.0395V16.0395C2.68351 16.0395 2.67963 16.0392 2.67544 16.0383C2.67131 16.0374 2.66768 16.0362 2.6647 16.0349C2.66178 16.0336 2.65975 16.0324 2.65852 16.0315C2.6573 16.0307 2.65679 16.0302 2.65676 16.0301C2.65672 16.0301 2.65701 16.0304 2.65744 16.031C2.65785 16.0317 2.65833 16.0325 2.65879 16.0336C2.65949 16.0354 2.66083 16.0392 2.66083 16.0469H3.66083ZM2.68663 15.0395L2.68889 14.0395L0.976463 14.0357L0.9742 15.0357L0.971938 16.0357L2.68437 16.0395L2.68663 15.0395ZM0.9742 15.0357V14.0357C-0.151383 14.0357 -1 14.971 -1 16.043H0H1C1 16.036 1.00124 16.0321 1.0021 16.03C1.00262 16.0287 1.00318 16.0277 1.00368 16.0269C1.00419 16.0261 1.00453 16.0258 1.00452 16.0258C1.0045 16.0258 1.00394 16.0264 1.00263 16.0273C1.00129 16.0282 0.999122 16.0296 0.996033 16.0309C0.992893 16.0323 0.989139 16.0336 0.984967 16.0344C0.980726 16.0353 0.976982 16.0357 0.9742 16.0357V15.0357ZM0 16.043H-1V57.9876H0H1V16.043H0ZM0 57.9876H-1C-1 59.0685 -0.142667 59.9949 0.9742 59.9949V58.9949V57.9949C0.977325 57.9949 0.981199 57.9952 0.985395 57.9961C0.989523 57.997 0.993155 57.9982 0.996127 57.9995C0.999053 58.0008 1.00108 58.002 1.00231 58.0029C1.00353 58.0037 1.00405 58.0043 1.00408 58.0043C1.00411 58.0043 1.00382 58.004 1.00339 58.0034C1.00298 58.0028 1.0025 58.0019 1.00204 58.0008C1.00134 57.9991 1 57.9952 1 57.9876H0ZM0.9742 58.9949V59.9949H30.9388V58.9949V57.9949H0.9742V58.9949ZM30.9388 58.9949V59.9949C32.0644 59.9949 32.913 59.0595 32.913 57.9876H31.913H30.913C30.913 57.9945 30.9118 57.9985 30.9109 58.0006C30.9104 58.0019 30.9098 58.0029 30.9093 58.0036C30.9088 58.0044 30.9085 58.0048 30.9085 58.0048C30.9085 58.0047 30.9091 58.0042 30.9104 58.0033C30.9117 58.0023 30.9139 58.001 30.917 57.9996C30.9201 57.9983 30.9239 57.997 30.928 57.9961C30.9323 57.9952 30.936 57.9949 30.9388 57.9949V58.9949ZM31.913 57.9876H32.913C32.913 56.9163 32.0657 55.9803 30.9395 55.9803V56.9803V57.9803C30.9367 57.9803 30.9329 57.98 30.9286 57.9791C30.9244 57.9782 30.9206 57.977 30.9174 57.9755C30.9111 57.9728 30.9086 57.9702 30.9086 57.9702C30.9085 57.9701 30.9088 57.9704 30.9093 57.9712C30.9098 57.9719 30.9103 57.9729 30.9109 57.9742C30.9117 57.9764 30.913 57.9804 30.913 57.9876H31.913Z" fill="white" mask="url(#path-1-inside-1_1304_3360)"/>
</svg>
