<svg width="80" height="80" viewBox="0 0 80 80" fill="none" xmlns="http://www.w3.org/2000/svg">
<path d="M17.5645 0.5H46.8105C47.0869 0.5 47.3105 0.723693 47.3105 1V17.0664H63.376C63.6522 17.0665 63.876 17.2902 63.876 17.5664V34.1406L64.4033 34.1113C66.2858 34.0076 68.2251 34.3234 70.1436 35.1035C75.9169 37.4513 81.1812 44.3247 78.9932 53.917C77.4374 60.7405 72.5696 67.3421 64.8359 72.9863C59.7666 76.6857 55.1092 78.8061 53.8877 79.334L53.583 79.4629C53.5222 79.4876 53.4577 79.5 53.3945 79.5C53.3628 79.5 53.3306 79.4965 53.2988 79.4902L53.2051 79.4629C52.9991 79.3788 47.7462 77.2132 41.9541 72.9863C38.1654 70.2213 35.0657 67.223 32.7031 64.0811L32.5537 63.8818H17.5645C17.2882 63.8817 17.0645 63.658 17.0645 63.3818V47.3164H1C0.723827 47.3164 0.500263 47.0925 0.5 46.8164V17.5664C0.5 17.2901 0.723664 17.0664 1 17.0664H17.0645V1C17.0645 0.75822 17.2359 0.556348 17.4639 0.509766L17.5645 0.5ZM41.7471 35.0957C40.0676 35.0957 38.4563 35.4479 37.0234 36.0303C31.5873 38.2404 26.7258 44.7288 28.7695 53.6943C30.4711 61.1532 35.9003 67.0104 41.1992 71.1396C46.5071 75.2759 51.7511 77.73 53.1924 78.3682L53.3945 78.458L53.5967 78.3682C55.0386 77.73 60.2821 75.2757 65.5898 71.1396C70.8887 67.0104 76.3184 61.1532 78.0195 53.6943C80.0642 44.7289 75.2037 38.2404 69.7676 36.0303C67.4043 35.0688 64.5464 34.7342 61.7041 35.5781C58.8539 36.4244 56.0625 38.4438 53.8213 42.1143C53.7304 42.263 53.5685 42.3534 53.3945 42.3535C53.2206 42.3535 53.0588 42.263 52.9678 42.1143C49.8374 36.9849 45.6393 35.0957 41.7471 35.0957ZM18.0645 17.5664C18.0645 17.8427 17.8408 18.0664 17.5645 18.0664H1.5V46.3164H17.5645C17.8408 46.3164 18.0645 46.5401 18.0645 46.8164V62.8818H31.8311L31.3369 62.1113C29.6269 59.4483 28.4313 56.7019 27.7959 53.917C25.6079 44.3235 30.8733 37.451 36.6465 35.1035C42.6409 32.6692 48.9066 34.6903 52.9893 40.3408L53.3945 40.9014L53.7998 40.3408C56.1381 37.1057 59.1915 35.0736 62.4805 34.3701L62.876 34.2852V18.0664H46.8105C46.5344 18.0662 46.3115 17.8426 46.3115 17.5664V1.5H18.0645V17.5664Z" fill="white" stroke="white"/>
</svg>
