<svg width="148" height="53" viewBox="0 0 148 53" fill="none" xmlns="http://www.w3.org/2000/svg">
<g clip-path="url(#clip0_1822_5533)">
<path d="M23.6021 0.239476C22.6803 0.265476 21.7699 0.70382 21.0086 1.54882C20.5901 2.01438 20.2346 2.56851 19.9401 3.11491C19.1723 4.55304 19.0212 6.18088 18.7368 7.75835L17.1719 16.6187C17.1118 16.9664 16.9558 17.1102 16.6438 17.2098L5.15993 20.8579C4.32305 21.1313 3.48414 21.4847 2.74396 21.9548C0.48602 23.3888 0.152082 25.7483 1.84736 27.8202C2.59568 28.7367 3.56011 29.3814 4.63018 29.8498L11.7814 33.036C11.8411 33.0685 11.9049 33.0897 11.9695 33.1019L13.4795 34.1914C13.4795 34.1914 11.9764 50.8265 14.7982 51.9774C14.7734 51.9734 14.6316 51.9441 14.6316 51.9441C14.6316 51.9441 14.9176 52.2533 15.6891 52.1623C16.2798 52.272 16.2018 52.2541 15.7192 52.1582C16.7685 52.0225 18.6998 51.1438 22.0477 47.7772C22.294 47.5565 22.5346 47.3295 22.7692 47.0964L30.0005 39.2894L31.6917 39.8846C31.7526 39.9687 31.8408 40.0227 31.9818 40.0646L40.0349 42.5147C41.1354 42.8543 42.2241 43.1029 43.3974 42.9315C45.492 42.6248 47.0337 40.9002 47.013 38.791C47.0049 37.8647 46.6799 37.0283 46.2533 36.2219L40.9201 26.107C40.7503 25.7873 40.7556 25.5805 40.9997 25.2945L49.9591 14.7637C50.5393 14.0719 51.0629 13.3301 51.3668 12.4704C52.0343 10.5733 51.171 9.06526 49.2015 8.69679C48.296 8.5351 47.403 8.62041 46.5202 8.8532L33.684 12.2637C33.3061 12.3652 33.1193 12.2941 32.9141 11.95L27.6735 3.24248C27.2774 2.58638 26.8041 1.94491 26.261 1.40338C25.457 0.599414 24.5238 0.213882 23.6021 0.239476ZM23.9856 8.25723C24.1927 8.40266 24.2976 8.55257 24.3959 8.71426L30.0346 18.1108C30.1898 18.3659 30.3291 18.4561 30.6379 18.3741L40.5679 15.7347L42.9586 15.109C42.9233 15.3093 42.836 15.43 42.7405 15.5429L34.5505 25.1597C34.3189 25.4392 34.2974 25.635 34.4717 25.9624L39.6485 35.7774L39.8862 36.2799L39.8801 36.2881L30.6472 33.7433L30.6448 33.736L28.8987 33.2465L18.5422 44.7255L20.4366 29.6333L18.7368 28.8939L18.7401 28.8911L9.12249 25.0723C9.30693 24.9045 9.47186 24.8347 9.64452 24.781L21.3352 21.0858C21.6098 21.0005 21.7662 20.8949 21.7922 20.5812L21.9559 19.6245L23.5301 10.7654L23.9856 8.25723Z" fill="#E15919"/>
</g>
<path d="M68.2511 33.3262V18.7807H73.7056C74.823 18.7807 75.7605 18.9891 76.5181 19.4057C77.2804 19.8224 77.8557 20.3953 78.244 21.1245C78.637 21.8489 78.8335 22.6728 78.8335 23.5961C78.8335 24.5288 78.637 25.3574 78.244 26.0819C77.851 26.8063 77.271 27.3768 76.5039 27.7935C75.7369 28.2054 74.7923 28.4114 73.6701 28.4114H70.055V26.2452H73.315C73.9684 26.2452 74.5034 26.1316 74.9201 25.9043C75.3368 25.677 75.6445 25.3645 75.8434 24.9668C76.047 24.5691 76.1488 24.1122 76.1488 23.5961C76.1488 23.08 76.047 22.6254 75.8434 22.2324C75.6445 21.8394 75.3344 21.534 74.913 21.3162C74.4963 21.0937 73.9589 20.9824 73.3008 20.9824H70.886V33.3262H68.2511ZM82.6065 37.4171C82.2562 37.4171 81.9318 37.3887 81.6335 37.3319C81.34 37.2798 81.1056 37.2182 80.9304 37.1472L81.527 35.1444C81.901 35.2533 82.2348 35.3053 82.5284 35.3006C82.822 35.2959 83.08 35.2035 83.3026 35.0236C83.5298 34.8484 83.7216 34.5549 83.8778 34.1429L84.098 33.5534L80.142 22.4171H82.8693L85.3835 30.6557H85.4972L88.0185 22.4171H90.7528L86.3849 34.6472C86.1813 35.2248 85.9115 35.7196 85.5753 36.1316C85.2391 36.5482 84.8272 36.8655 84.3395 37.0833C83.8565 37.3058 83.2789 37.4171 82.6065 37.4171ZM100.55 22.7793C100.484 22.159 100.205 21.6761 99.7124 21.3304C99.2247 20.9848 98.5902 20.812 97.8089 20.812C97.2597 20.812 96.7886 20.8948 96.3956 21.0605C96.0026 21.2263 95.7019 21.4512 95.4936 21.7353C95.2853 22.0194 95.1787 22.3437 95.174 22.7083C95.174 23.0113 95.2427 23.2741 95.38 23.4966C95.522 23.7192 95.7138 23.9086 95.9553 24.0648C96.1967 24.2163 96.4643 24.3442 96.7578 24.4483C97.0514 24.5525 97.3473 24.6401 97.6456 24.7111L99.0092 25.052C99.5585 25.1799 100.086 25.3527 100.593 25.5705C101.104 25.7883 101.561 26.0629 101.964 26.3944C102.371 26.7258 102.693 27.1259 102.93 27.5946C103.166 28.0634 103.285 28.6126 103.285 29.2424C103.285 30.0946 103.067 30.8451 102.631 31.4938C102.196 32.1377 101.566 32.642 100.742 33.0066C99.9231 33.3664 98.9311 33.5463 97.7663 33.5463C96.6347 33.5463 95.6522 33.3712 94.8189 33.0208C93.9903 32.6704 93.3416 32.159 92.8729 31.4867C92.4089 30.8143 92.1579 29.9952 92.12 29.0293H94.7124C94.7502 29.5359 94.9065 29.9573 95.1811 30.2935C95.4557 30.6297 95.8132 30.8806 96.2536 31.0463C96.6986 31.2121 97.1958 31.2949 97.745 31.2949C98.3179 31.2949 98.8198 31.2097 99.2507 31.0392C99.6863 30.8641 100.027 30.6226 100.273 30.3148C100.52 30.0023 100.645 29.6377 100.65 29.2211C100.645 28.8423 100.534 28.5298 100.316 28.2836C100.098 28.0326 99.7929 27.8243 99.3999 27.6586C99.0116 27.4881 98.5571 27.3366 98.0362 27.204L96.3814 26.7779C95.1835 26.4701 94.2365 26.0037 93.5405 25.3787C92.8492 24.749 92.5036 23.9133 92.5036 22.8716C92.5036 22.0146 92.7356 21.2641 93.1996 20.6202C93.6683 19.9763 94.3052 19.4767 95.1101 19.1216C95.915 18.7618 96.8265 18.5819 97.8445 18.5819C98.8767 18.5819 99.781 18.7618 100.558 19.1216C101.339 19.4767 101.952 19.9715 102.397 20.606C102.842 21.2357 103.072 21.9602 103.086 22.7793H100.55ZM105.52 37.4171V22.4171H108.049V24.2211H108.198C108.33 23.9559 108.517 23.6742 108.759 23.3759C109 23.0729 109.327 22.8148 109.739 22.6017C110.151 22.3839 110.676 22.275 111.316 22.275C112.158 22.275 112.918 22.4905 113.596 22.9213C114.277 23.3475 114.817 23.9796 115.215 24.8176C115.617 25.651 115.819 26.6737 115.819 27.8858C115.819 29.0837 115.622 30.1017 115.229 30.9398C114.836 31.7779 114.301 32.4171 113.624 32.8574C112.947 33.2978 112.18 33.5179 111.323 33.5179C110.698 33.5179 110.179 33.4138 109.767 33.2054C109.355 32.9971 109.024 32.7462 108.773 32.4526C108.527 32.1543 108.335 31.8726 108.198 31.6074H108.091V37.4171H105.52ZM108.042 27.8716C108.042 28.5771 108.141 29.195 108.34 29.7253C108.543 30.2556 108.835 30.6699 109.213 30.9682C109.597 31.2618 110.061 31.4086 110.605 31.4086C111.174 31.4086 111.65 31.257 112.033 30.954C112.417 30.6462 112.705 30.2272 112.9 29.6969C113.098 29.1619 113.198 28.5534 113.198 27.8716C113.198 27.1945 113.101 26.5932 112.907 26.0676C112.712 25.5421 112.424 25.1301 112.04 24.8319C111.657 24.5336 111.178 24.3844 110.605 24.3844C110.056 24.3844 109.59 24.5288 109.206 24.8176C108.823 25.1065 108.532 25.5113 108.333 26.0321C108.139 26.553 108.042 27.1661 108.042 27.8716ZM121.159 33.5463C120.468 33.5463 119.846 33.4232 119.292 33.177C118.742 32.9261 118.307 32.5568 117.985 32.0691C117.667 31.5814 117.509 30.9801 117.509 30.2651C117.509 29.6496 117.623 29.1406 117.85 28.7381C118.077 28.3356 118.387 28.0137 118.78 27.7722C119.173 27.5307 119.616 27.3484 120.108 27.2253C120.605 27.0975 121.119 27.0051 121.65 26.9483C122.289 26.882 122.807 26.8229 123.205 26.7708C123.603 26.714 123.891 26.6287 124.071 26.5151C124.256 26.3967 124.348 26.2144 124.348 25.9682V25.9256C124.348 25.3906 124.19 24.9763 123.873 24.6827C123.555 24.3891 123.098 24.2424 122.502 24.2424C121.872 24.2424 121.373 24.3797 121.003 24.6543C120.639 24.9289 120.392 25.2533 120.265 25.6273L117.864 25.2864C118.053 24.6235 118.366 24.0695 118.801 23.6245C119.237 23.1747 119.77 22.8385 120.4 22.6159C121.029 22.3887 121.725 22.275 122.488 22.275C123.013 22.275 123.536 22.3366 124.057 22.4597C124.578 22.5828 125.054 22.7864 125.485 23.0705C125.916 23.3498 126.261 23.731 126.522 24.214C126.787 24.6969 126.919 25.3006 126.919 26.025V33.3262H124.448V31.8276H124.363C124.206 32.1306 123.986 32.4147 123.702 32.6799C123.423 32.9403 123.07 33.151 122.644 33.312C122.222 33.4682 121.728 33.5463 121.159 33.5463ZM121.827 31.6571C122.343 31.6571 122.791 31.5553 123.169 31.3517C123.548 31.1434 123.839 30.8688 124.043 30.5279C124.251 30.187 124.355 29.8153 124.355 29.4128V28.1273C124.275 28.1936 124.138 28.2551 123.944 28.312C123.754 28.3688 123.541 28.4185 123.304 28.4611C123.068 28.5037 122.833 28.5416 122.601 28.5748C122.369 28.6079 122.168 28.6363 121.998 28.66C121.614 28.7121 121.271 28.7973 120.968 28.9157C120.665 29.034 120.426 29.1998 120.25 29.4128C120.075 29.6212 119.988 29.891 119.988 30.2225C119.988 30.696 120.16 31.0534 120.506 31.2949C120.852 31.5364 121.292 31.6571 121.827 31.6571ZM129.505 33.3262V22.4171H131.998V24.2353H132.111C132.31 23.6055 132.651 23.1202 133.134 22.7793C133.622 22.4337 134.178 22.2608 134.803 22.2608C134.945 22.2608 135.104 22.2679 135.279 22.2821C135.459 22.2916 135.608 22.3082 135.726 22.3319V24.6969C135.617 24.659 135.444 24.6259 135.208 24.5975C134.976 24.5643 134.751 24.5478 134.533 24.5478C134.064 24.5478 133.643 24.6496 133.269 24.8532C132.9 25.052 132.608 25.329 132.395 25.6841C132.182 26.0392 132.076 26.4488 132.076 26.9128V33.3262H129.505ZM139.778 29.9029L139.771 26.7992H140.183L144.103 22.4171H147.108L142.285 27.7864H141.752L139.778 29.9029ZM137.434 33.3262V18.7807H140.005V33.3262H137.434ZM144.281 33.3262L140.73 28.3617L142.463 26.5506L147.356 33.3262H144.281Z" fill="white"/>
<defs>
<clipPath id="clip0_1822_5533">
<rect width="52" height="52" fill="white" transform="translate(0.18335 0.238281)"/>
</clipPath>
</defs>
</svg>
