<svg width="104" height="36" viewBox="0 0 104 36" fill="none" xmlns="http://www.w3.org/2000/svg">
<path d="M2.12907 3.25684H30.4274C31.1933 3.25684 31.8143 3.87777 31.8143 4.64372C31.8143 5.40967 31.1933 6.0306 30.4274 6.0306H2.12907C1.36312 6.0306 0.742188 5.40967 0.742188 4.64372C0.742188 3.87777 1.36312 3.25684 2.12907 3.25684Z" fill="#696969"/>
<path d="M2.37891 0.449219H8.0687V1.76224H2.37891V0.449219Z" fill="#009FE3"/>
<path d="M9.81934 0.449219H15.5091V1.76224H9.81934V0.449219Z" fill="#C7D302"/>
<path d="M17.1602 0.449219H22.85V1.76224H17.1602V0.449219Z" fill="#F07E16"/>
<path d="M24.4727 0.449219H30.1625V1.76224H24.4727V0.449219Z" fill="#DF2815"/>
<path d="M24.4727 7.47461H30.1625V17.0925H24.4727V7.47461Z" fill="#DF2815"/>
<path d="M17.1602 7.47461H22.8605V23.0996H17.1602V7.47461Z" fill="#F07E16"/>
<path d="M9.81934 7.47461H15.5087V30.8793H9.81934V7.47461Z" fill="#C7D302"/>
<path d="M2.37891 7.47461H8.0687V36.0001H2.37891V7.47461Z" fill="#009FE3"/>
<path d="M39.3702 25.2246V10.6792H44.8248C45.9422 10.6792 46.8797 10.8875 47.6373 11.3042C48.3996 11.7208 48.9748 12.2937 49.3631 13.0229C49.7561 13.7473 49.9526 14.5712 49.9526 15.4945C49.9526 16.4273 49.7561 17.2559 49.3631 17.9803C48.9701 18.7047 48.3901 19.2753 47.623 19.6919C46.856 20.1039 45.9114 20.3098 44.7892 20.3098H41.1742V18.1436H44.4341C45.0875 18.1436 45.6226 18.03 46.0392 17.8027C46.4559 17.5755 46.7637 17.263 46.9625 16.8652C47.1661 16.4675 47.2679 16.0106 47.2679 15.4945C47.2679 14.9784 47.1661 14.5239 46.9625 14.1309C46.7637 13.7379 46.4535 13.4325 46.0321 13.2147C45.6155 12.9921 45.0781 12.8809 44.4199 12.8809H42.0051V25.2246H39.3702ZM53.7257 29.3155C53.3753 29.3155 53.051 29.2871 52.7527 29.2303C52.4591 29.1782 52.2247 29.1167 52.0495 29.0456L52.6461 27.0428C53.0202 27.1517 53.354 27.2038 53.6475 27.199C53.9411 27.1943 54.1992 27.102 54.4217 26.9221C54.649 26.7469 54.8407 26.4533 54.997 26.0414L55.2172 25.4519L51.2612 14.3155H53.9885L56.5027 22.5542H56.6163L59.1376 14.3155H61.872L57.5041 26.5456C57.3005 27.1233 57.0306 27.6181 56.6944 28.03C56.3583 28.4467 55.9463 28.7639 55.4586 28.9817C54.9757 29.2042 54.398 29.3155 53.7257 29.3155ZM62.4419 12.888V10.6792H74.0471V12.888H69.5513V25.2246H66.9377V12.888H62.4419ZM79.4181 25.4377C78.3244 25.4377 77.3798 25.2104 76.5843 24.7559C75.7936 24.2966 75.1852 23.6479 74.7591 22.8098C74.3329 21.967 74.1199 20.9751 74.1199 19.834C74.1199 18.7118 74.3329 17.727 74.7591 16.8794C75.1899 16.0272 75.7913 15.3643 76.563 14.8908C77.3348 14.4126 78.2415 14.1735 79.2832 14.1735C79.9556 14.1735 80.59 14.2824 81.1866 14.5002C81.7879 14.7132 82.3182 15.0447 82.7775 15.4945C83.2415 15.9443 83.6061 16.5172 83.8713 17.2132C84.1364 17.9045 84.269 18.7284 84.269 19.6848V20.4732H75.3272V18.7402H81.8045C81.7998 18.2478 81.6932 17.8098 81.4849 17.4263C81.2766 17.0381 80.9854 16.7327 80.6113 16.5101C80.242 16.2876 79.8111 16.1763 79.3187 16.1763C78.7931 16.1763 78.3315 16.3042 77.9338 16.5598C77.536 16.8108 77.2259 17.1422 77.0034 17.5542C76.7856 17.9614 76.6743 18.4088 76.6696 18.8965V20.4093C76.6696 21.0437 76.7856 21.5882 77.0176 22.0428C77.2496 22.4926 77.5739 22.8382 77.9906 23.0797C78.4073 23.3165 78.8949 23.4348 79.4537 23.4348C79.8277 23.4348 80.1663 23.3828 80.4693 23.2786C80.7723 23.1697 81.0351 23.0111 81.2576 22.8027C81.4802 22.5944 81.6483 22.3364 81.7619 22.0286L84.1625 22.2985C84.0109 22.9329 83.7221 23.4869 83.296 23.9604C82.8746 24.4292 82.3348 24.7937 81.6767 25.0542C81.0185 25.3098 80.2657 25.4377 79.4181 25.4377ZM95.0662 17.199L92.7225 17.4547C92.6562 17.218 92.5402 16.9954 92.3745 16.7871C92.2135 16.5788 91.9957 16.4107 91.7211 16.2828C91.4464 16.155 91.1103 16.0911 90.7125 16.0911C90.1775 16.0911 89.7277 16.2071 89.3631 16.4391C89.0033 16.6711 88.8257 16.9718 88.8304 17.3411C88.8257 17.6583 88.9417 17.9164 89.1784 18.1152C89.4199 18.3141 89.8176 18.4775 90.3716 18.6053L92.2324 19.003C93.2646 19.2256 94.0317 19.5783 94.5336 20.0613C95.0402 20.5442 95.2959 21.1763 95.3006 21.9576C95.2959 22.6441 95.0946 23.2502 94.6969 23.7757C94.3039 24.2966 93.757 24.7038 93.0563 24.9973C92.3555 25.2909 91.5506 25.4377 90.6415 25.4377C89.3063 25.4377 88.2315 25.1583 87.4171 24.5996C86.6027 24.0362 86.1174 23.2525 85.9611 22.2488L88.4682 22.0073C88.5819 22.4997 88.8233 22.8714 89.1926 23.1223C89.562 23.3733 90.0426 23.4988 90.6344 23.4988C91.2452 23.4988 91.7353 23.3733 92.1046 23.1223C92.4786 22.8714 92.6657 22.5613 92.6657 22.1919C92.6657 21.8794 92.5449 21.6214 92.3034 21.4178C92.0667 21.2142 91.6974 21.0579 91.1955 20.949L89.3347 20.5584C88.2883 20.3406 87.5141 19.9737 87.0123 19.4576C86.5104 18.9367 86.2618 18.2786 86.2665 17.4831C86.2618 16.8108 86.4441 16.2284 86.8134 15.736C87.1874 15.2388 87.7059 14.8553 88.3688 14.5854C89.0364 14.3108 89.8058 14.1735 90.677 14.1735C91.9554 14.1735 92.9616 14.4457 93.6955 14.9902C94.4341 15.5347 94.891 16.271 95.0662 17.199ZM102.868 14.3155V16.3042H96.5968V14.3155H102.868ZM98.1451 11.7019H100.716V21.9434C100.716 22.289 100.768 22.5542 100.872 22.7388C100.981 22.9187 101.123 23.0418 101.298 23.1081C101.474 23.1744 101.668 23.2076 101.881 23.2076C102.042 23.2076 102.189 23.1957 102.321 23.1721C102.459 23.1484 102.563 23.1271 102.634 23.1081L103.067 25.1181C102.93 25.1654 102.733 25.2175 102.477 25.2743C102.227 25.3311 101.919 25.3643 101.554 25.3738C100.91 25.3927 100.33 25.2956 99.8141 25.0826C99.298 24.8648 98.8884 24.5286 98.5854 24.074C98.2871 23.6195 98.1403 23.0513 98.1451 22.3695V11.7019Z" fill="white"/>
</svg>
