<svg width="40" height="42" viewBox="0 0 40 42" fill="none" xmlns="http://www.w3.org/2000/svg">
<path d="M11.9014 36.3517V40.1217C11.9018 40.3072 11.8491 40.489 11.7498 40.6457C11.6504 40.8024 11.5084 40.9276 11.3404 41.0064C11.1725 41.0853 10.9855 41.1146 10.8015 41.091C10.6174 41.0673 10.4439 40.9917 10.3013 40.8729L2.26179 34.174C2.10759 34.0454 1.99682 33.8723 1.94458 33.6785C1.89234 33.4846 1.90118 33.2793 1.9699 33.0907C2.03862 32.902 2.16386 32.7392 2.32855 32.6243C2.49324 32.5095 2.68935 32.4482 2.89012 32.449H31.4149C32.45 32.449 33.4427 32.0378 34.1746 31.3059C34.9065 30.574 35.3176 29.5813 35.3176 28.5463V12.9355H39.2203V28.5463C39.2203 30.6164 38.398 32.6017 36.9342 34.0655C35.4704 35.5293 33.4851 36.3517 31.4149 36.3517H11.9014ZM27.5122 1.36007C27.5119 1.17452 27.5646 0.99272 27.6639 0.83601C27.7633 0.6793 27.9053 0.554175 28.0732 0.475313C28.2412 0.396451 28.4282 0.367122 28.6122 0.390766C28.7963 0.41441 28.9698 0.490047 29.1123 0.608805L37.1519 7.30778C37.306 7.43626 37.4167 7.60911 37.469 7.80279C37.5213 7.99647 37.5126 8.20155 37.4441 8.39012C37.3756 8.57868 37.2507 8.74155 37.0863 8.85655C36.922 8.97155 36.7261 9.03309 36.5255 9.03278H7.99875C6.96369 9.03278 5.97103 9.44395 5.23913 10.1758C4.50723 10.9077 4.09606 11.9004 4.09606 12.9355V28.5463H0.193359V12.9355C0.193359 10.8654 1.01571 8.88002 2.47951 7.41622C3.9433 5.95243 5.92863 5.13008 7.99875 5.13008H27.5122V1.36007ZM17.7555 12.9355H21.6582V28.5463H17.7555V16.8382H13.8528V14.8868L17.7555 12.9355Z" fill="white"/>
</svg>
