<svg width="35" height="34" viewBox="0 0 35 34" fill="none" xmlns="http://www.w3.org/2000/svg">
<path d="M26.7889 0H27.9435C27.9435 2.54999 30.01 4.61674 32.5601 4.61674V5.77133C30.0102 5.77133 27.9435 7.83966 27.9435 10.3899H26.7889C26.7889 7.83988 24.7225 5.77133 22.1724 5.77133V4.61674C24.7223 4.61674 26.7889 2.55018 26.7889 0Z" fill="white"/>
<path d="M30.6722 12.2773H31.5116C31.5116 13.8427 32.7795 15.1107 34.3449 15.1107H34.4494V15.9501C32.8273 15.9501 31.5116 17.2658 31.5116 18.8897H30.6722V18.7834C30.6722 17.2198 29.4025 15.9501 27.8389 15.9501V15.1107C29.4025 15.1107 30.6722 13.8427 30.6722 12.2773Z" fill="white"/>
<path fill-rule="evenodd" clip-rule="evenodd" d="M18.6519 17.2557C19.6825 15.6921 20.2828 13.8186 20.2828 11.8053C20.2828 6.32816 15.8435 1.88867 10.3665 1.88867C4.88953 1.88867 0.450195 6.32816 0.450195 11.8053C0.450195 17.2807 4.88953 21.722 10.3665 21.722C12.3816 21.722 14.2586 21.1199 15.824 20.0857L22.6432 26.6803L19.81 29.5137L24.0599 33.9991L24.3273 33.7318C25.7616 32.2991 28.0707 32.2531 29.5599 33.6273L29.9636 33.9991L32.5596 31.1658L18.6519 17.2557ZM10.3666 17.9428C13.7577 17.9428 16.5059 15.1945 16.5059 11.8051C16.5059 8.41398 13.7577 5.66566 10.3666 5.66566C6.97561 5.66566 4.22737 8.41398 4.22737 11.8051C4.22737 15.1945 6.97561 17.9428 10.3666 17.9428Z" fill="white"/>
</svg>
