<svg width="36" height="36" viewBox="0 0 36 36" fill="none" xmlns="http://www.w3.org/2000/svg">
<path fill-rule="evenodd" clip-rule="evenodd" d="M29.4584 6.63753V29.6379H6.45809V6.63753H29.4584ZM16.1388 12.3876H13.8989L9.64615 23.8878H11.667L12.4699 21.6396H17.5607L18.3463 23.8878H20.4889L16.1388 12.3876ZM24.0761 12.3876H22.0634V23.8878H24.0761V12.3876ZM15.0019 14.3171L17.0067 20.0544H13.0289L15.0019 14.3171ZM31.3751 23.8878H35.2085V27.7212H31.3751V23.8878ZM8.37478 31.5546H12.2082V35.3879H8.37478V31.5546ZM16.0416 31.5546H19.8749V35.3879H16.0416V31.5546ZM8.37478 0.887451H12.2082V4.72084H8.37478V0.887451ZM23.7083 31.5546H27.5417V35.3879H23.7083V31.5546ZM16.0416 0.887451H19.8749V4.72084H16.0416V0.887451ZM23.7083 0.887451H27.5417V4.72084H23.7083V0.887451ZM31.3751 16.221H35.2085V20.0544H31.3751V16.221ZM0.708008 23.8878H4.5414V27.7212H0.708008V23.8878ZM31.3751 8.55423H35.2085V12.3876H31.3751V8.55423ZM0.708008 16.221H4.5414V20.0544H0.708008V16.221ZM0.708008 8.55423H4.5414V12.3876H0.708008V8.55423Z" fill="white"/>
</svg>
