<svg width="36" height="36" viewBox="0 0 36 36" fill="none" xmlns="http://www.w3.org/2000/svg">
<path d="M9.4388 10.9685H4.20091C2.28035 10.9685 0.708984 9.39708 0.708984 7.47653V3.9846C0.708984 2.06404 2.28035 0.492676 4.20091 0.492676H9.4388C11.3594 0.492676 12.9307 2.06404 12.9307 3.9846V7.47653C12.9307 9.39708 11.3594 10.9685 9.4388 10.9685Z" fill="white"/>
<path d="M33.5339 9.22408H27.2485C26.0961 9.22408 25.1533 8.28125 25.1533 7.12891V4.33541C25.1533 3.18307 26.0961 2.24023 27.2485 2.24023H33.5339C34.6863 2.24023 35.6291 3.18307 35.6291 4.33541V7.12891C35.6291 8.28125 34.6863 9.22408 33.5339 9.22408Z" fill="white"/>
<path d="M33.5339 22.3181H27.2485C26.0961 22.3181 25.1533 21.3753 25.1533 20.2229V17.4294C25.1533 16.277 26.0961 15.3342 27.2485 15.3342H33.5339C34.6863 15.3342 35.6291 16.277 35.6291 17.4294V20.2229C35.6291 21.3753 34.6863 22.3181 33.5339 22.3181Z" fill="white"/>
<path d="M22.8404 20.1341C23.5562 20.1341 24.1499 19.5404 24.1499 18.8246C24.1499 18.1088 23.5562 17.5151 22.8404 17.5151H20.3512V7.03935H22.8404C23.5562 7.03935 24.1499 6.44573 24.1499 5.72988C24.1499 5.01404 23.5562 4.42041 22.8404 4.42041H15.2431C14.5272 4.42041 13.9336 5.01404 13.9336 5.72988C13.9336 6.44573 14.5272 7.03935 15.2431 7.03935H17.7323V28.4274C17.7323 31.0813 19.8798 33.2288 22.5337 33.2288H22.8404C23.5562 33.2288 24.1499 32.6352 24.1499 31.9193C24.1499 31.2035 23.5562 30.6098 22.8404 30.6098H22.5337C21.3289 30.6098 20.3512 29.6321 20.3512 28.4274V20.1341H22.8404Z" fill="white"/>
<path d="M33.5339 35.4135H27.2485C26.0961 35.4135 25.1533 34.4707 25.1533 33.3184V30.5248C25.1533 29.3725 26.0961 28.4297 27.2485 28.4297H33.5339C34.6863 28.4297 35.6291 29.3725 35.6291 30.5248V33.3184C35.6291 34.4707 34.6863 35.4135 33.5339 35.4135Z" fill="white"/>
</svg>
