<svg width="35" height="35" viewBox="0 0 35 35" fill="none" xmlns="http://www.w3.org/2000/svg">
<path d="M32.1526 14.3415C32.9266 12.0183 32.6601 9.47334 31.4222 7.36019C29.5607 4.11903 25.8185 2.45154 22.1636 3.23624C20.5377 1.40456 18.2017 0.362917 15.7527 0.377844C12.0169 0.369314 8.70217 2.77459 7.55284 6.3292C5.15289 6.82071 3.08132 8.32294 1.86909 10.4521C-0.00630426 13.6847 0.42123 17.7596 2.92673 20.5316C2.15269 22.8548 2.41923 25.3998 3.65705 27.5129C5.51859 30.7541 9.26084 32.4216 12.9157 31.6369C14.5405 33.4686 16.8776 34.5102 19.3265 34.4942C23.0645 34.5038 26.3803 32.0964 27.5297 28.5386C29.9296 28.0471 32.0012 26.5448 33.2134 24.4157C35.0867 21.1831 34.6581 17.1114 32.1536 14.3393L32.1526 14.3415ZM19.3287 32.2648C17.8328 32.267 16.3839 31.7435 15.2357 30.785C15.2879 30.7573 15.3785 30.7072 15.4372 30.6709L22.2308 26.7474C22.5784 26.5502 22.7916 26.1802 22.7895 25.7804V16.203L25.6607 17.8609C25.6916 17.8758 25.7118 17.9057 25.7161 17.9398V25.871C25.7118 29.3979 22.8556 32.2574 19.3287 32.2648ZM5.59215 26.3977C4.84263 25.1034 4.57289 23.5862 4.82984 22.1138C4.87995 22.1437 4.96844 22.1981 5.03135 22.2343L11.825 26.1578C12.1694 26.3593 12.5958 26.3593 12.9413 26.1578L21.235 21.3686V24.6844C21.2371 24.7185 21.2211 24.7515 21.1945 24.7729L14.3273 28.738C11.2684 30.4993 7.36199 29.4523 5.59322 26.3977H5.59215ZM3.80419 11.5684C4.5505 10.2719 5.72862 9.28036 7.1317 8.7654C7.1317 8.82404 7.1285 8.92746 7.1285 8.99996V16.848C7.12637 17.2468 7.3396 17.6167 7.68611 17.814L15.9798 22.6021L13.1086 24.26C13.0799 24.2792 13.0436 24.2824 13.0116 24.2686L6.14336 20.3003C3.09092 18.5326 2.04394 14.6272 3.80312 11.5694L3.80419 11.5684ZM27.3943 17.0581L19.1005 12.2688L21.9717 10.612C22.0005 10.5928 22.0368 10.5896 22.0687 10.6035L28.937 14.5686C31.9948 16.3352 33.0428 20.247 31.2762 23.3048C30.5288 24.5991 29.3517 25.5906 27.9497 26.1066V18.024C27.9529 17.6253 27.7408 17.2564 27.3953 17.0581H27.3943ZM30.2516 12.7571C30.2015 12.7262 30.113 12.6729 30.0501 12.6367L23.2565 8.71316C22.9121 8.51165 22.4856 8.51165 22.1402 8.71316L13.8464 13.5024V10.1866C13.8443 10.1525 13.8603 10.1194 13.887 10.0981L20.7542 6.13623C23.813 4.37171 27.7237 5.42189 29.4871 8.4818C30.2324 9.774 30.5021 11.2869 30.2495 12.7571H30.2516ZM12.2856 18.6669L9.4133 17.009C9.38239 16.9941 9.36213 16.9642 9.35786 16.9301V8.99889C9.36 5.46774 12.2248 2.60614 15.7559 2.60827C17.2497 2.60827 18.6954 3.13283 19.8436 4.08811C19.7914 4.11583 19.7018 4.16594 19.6421 4.20219L12.8485 8.1257C12.5009 8.32294 12.2877 8.69184 12.2898 9.09165L12.2856 18.6648V18.6669ZM13.8454 15.3042L17.5396 13.1708L21.2339 15.3032V19.5689L17.5396 21.7012L13.8454 19.5689V15.3042Z" fill="white"/>
</svg>
