<svg width="35" height="34" viewBox="0 0 35 34" fill="none" xmlns="http://www.w3.org/2000/svg">
<path d="M17.25 7.39404C14.7057 7.39404 12.2657 8.40482 10.4673 10.2055C8.66754 12.0047 7.65729 14.4459 7.65729 16.9917C7.65729 19.5374 8.66754 21.9785 10.4673 23.7778C12.2655 25.5785 14.7055 26.5893 17.25 26.5893C19.7944 26.5893 22.2342 25.5785 24.0326 23.7778C25.8324 21.9787 26.8426 19.5374 26.8426 16.9917C26.8395 14.4477 25.8277 12.0076 24.0295 10.2087C22.2313 8.40955 19.7928 7.39715 17.25 7.39404ZM23.7604 14.7586C23.9609 14.7586 24.1226 14.9203 24.1226 15.1209C24.1226 15.32 23.9609 15.4832 23.7604 15.4832H22.5342V16.6293H23.7604C23.9609 16.6293 24.1226 16.791 24.1226 16.9916C24.1226 17.1922 23.9609 17.3539 23.7604 17.3539H22.5342V18.5015L23.7604 18.5C23.9609 18.5 24.1226 18.6633 24.1226 18.8623C24.1226 19.0629 23.9609 19.2246 23.7604 19.2246H22.5342V20.3722H23.7604C23.9609 20.3722 24.1226 20.5339 24.1226 20.733C24.1226 20.9336 23.9609 21.0953 23.7604 21.0953H22.5342V21.921C22.5342 22.0159 22.4969 22.1092 22.4285 22.176C22.3601 22.2444 22.2684 22.2818 22.172 22.2818H21.3514V23.5056C21.3514 23.7062 21.1898 23.8679 20.9893 23.8679C20.7903 23.8679 20.6287 23.7062 20.6287 23.5056V22.2818H19.4817V23.5056C19.4817 23.7062 19.3201 23.8679 19.1196 23.8679C18.9206 23.8679 18.7574 23.7062 18.7574 23.5056V22.2818H17.612V23.5056C17.612 23.7062 17.4503 23.8679 17.2499 23.8679C17.0494 23.8679 16.8877 23.7062 16.8877 23.5056V22.2818H15.7423V23.5056C15.7423 23.7062 15.5791 23.8679 15.3801 23.8679C15.1796 23.8679 15.018 23.7062 15.018 23.5056V22.2818H13.871V23.5056C13.871 23.7062 13.7094 23.8679 13.5104 23.8679C13.3099 23.8679 13.1483 23.7062 13.1483 23.5056V22.2818H12.3277C12.1272 22.2818 11.9655 22.12 11.9655 21.921V21.0953H10.7579C10.5574 21.0953 10.3958 20.9336 10.3958 20.733C10.3958 20.5339 10.5574 20.3722 10.7579 20.3722H11.9655V19.2246H10.7579C10.5574 19.2246 10.3958 19.0629 10.3958 18.8623C10.3958 18.6633 10.5574 18.5 10.7579 18.5H11.9655V17.3539H10.7579C10.5574 17.3539 10.3958 17.1922 10.3958 16.9916C10.3958 16.791 10.5574 16.6293 10.7579 16.6293H11.9655V15.4832H10.7579C10.5574 15.4832 10.3958 15.32 10.3958 15.1209C10.3958 14.9203 10.5574 14.7586 10.7579 14.7586H11.9655V13.611H10.7579C10.5574 13.611 10.3958 13.4493 10.3958 13.2502C10.3958 13.0496 10.5574 12.8879 10.7579 12.8879H11.9655V12.0669C11.9655 11.8663 12.1272 11.7045 12.3277 11.7045H13.1483V10.4963C13.1483 10.2957 13.3099 10.134 13.5104 10.134C13.7094 10.134 13.871 10.2957 13.871 10.4963V11.7045H15.018V10.4963C15.018 10.2957 15.1796 10.134 15.3801 10.134C15.5791 10.134 15.7423 10.2957 15.7423 10.4963V11.7045H16.8877V10.4963C16.8877 10.2957 17.0494 10.134 17.2499 10.134C17.4503 10.134 17.612 10.2957 17.612 10.4963V11.7045H18.759L18.7574 10.4963C18.7574 10.2957 18.9206 10.134 19.1196 10.134C19.3201 10.134 19.4817 10.2957 19.4817 10.4963V11.7045H20.6287V10.4963C20.6287 10.2957 20.7903 10.134 20.9893 10.134C21.1898 10.134 21.3514 10.2957 21.3514 10.4963V11.7045H22.172C22.2684 11.7045 22.3601 11.7419 22.4285 11.8103C22.4969 11.8787 22.5342 11.9705 22.5342 12.0669V12.8879H23.7604C23.9609 12.8879 24.1226 13.0496 24.1226 13.2502C24.1226 13.4493 23.9609 13.611 23.7604 13.611H22.5342V14.7586L23.7604 14.7586ZM12.6883 21.5587H21.8116V12.4274H12.6883V21.5587ZM14.2875 14.3932C14.2875 14.1926 14.4492 14.0308 14.6497 14.0308H19.85C19.9463 14.0308 20.038 14.0697 20.1064 14.1366C20.1748 14.205 20.2121 14.2967 20.2121 14.3932V19.5929C20.2121 19.6894 20.1748 19.7811 20.1064 19.8495C20.038 19.9179 19.9463 19.9553 19.85 19.9553H14.6497C14.4492 19.9553 14.2875 19.7935 14.2875 19.5929V14.3932ZM19.4894 19.2323H15.0101V14.7554H19.4894V19.2323ZM30.9953 13.5675C30.7093 12.3919 30.2726 11.2568 29.696 10.1916C29.6291 10.0687 29.6384 9.9179 29.7208 9.80438L31.5299 7.36456L27.5046 3.16755L24.9728 4.86097C24.8547 4.93561 24.7039 4.93561 24.5858 4.86097C23.5507 4.23585 22.4394 3.74912 21.28 3.41325C21.1432 3.37282 21.0422 3.25775 21.022 3.11625L20.5852 0H14.7726L14.1618 2.98874V2.99029C14.1338 3.11625 14.0421 3.21732 13.9193 3.25776L13.8354 3.2873L13.694 3.33396H13.6504C12.8624 3.52833 12.0962 3.80358 11.3657 4.155L11.3253 4.17366C11.2865 4.1861 11.2492 4.20321 11.2134 4.22342C11.0285 4.3074 10.8513 4.38981 10.7037 4.47689L10.5187 4.57486C10.4021 4.63084 10.2638 4.61995 10.1566 4.54687L7.71491 2.76325L3.50456 6.78589L5.17533 9.31903H5.17688C5.25459 9.43876 5.25459 9.59426 5.17688 9.714C4.91267 10.1339 4.67954 10.5724 4.47439 11.0233C4.16821 11.664 3.91489 12.3295 3.71436 13.0107C3.67395 13.1444 3.56049 13.2439 3.42217 13.2641L0.25 13.7337V19.5494L3.24495 20.1434C3.38328 20.1714 3.49363 20.2771 3.52627 20.4155C3.81224 21.5849 4.24432 22.7138 4.81161 23.7775C4.86601 23.8941 4.85513 24.0325 4.78208 24.1382L2.97297 26.592L6.99512 30.8153L9.52695 29.097C9.64662 29.0193 9.80204 29.0193 9.92172 29.097C10.9413 29.7362 12.0463 30.2307 13.2027 30.5665C13.3394 30.6038 13.442 30.7205 13.4622 30.862L13.9254 34H19.7133L20.3242 30.9957V30.9972C20.3521 30.8573 20.4578 30.7469 20.5961 30.7142C21.7696 30.4297 22.8995 29.9943 23.9594 29.4158C24.0822 29.3474 24.233 29.3583 24.3465 29.4407L26.7959 31.2181L30.9955 27.1859L29.3247 24.6527H29.3232C29.247 24.533 29.247 24.3806 29.3232 24.2609C29.9526 23.2346 30.4391 22.1258 30.7701 20.9689C30.8105 20.8336 30.924 20.7325 31.0639 20.7108L34.25 20.2489V14.458L31.2659 13.8639C31.1245 13.8297 31.0172 13.7116 30.9955 13.5669L30.9953 13.5675ZM17.2497 27.3202C14.5143 27.3202 11.8907 26.2332 9.95584 24.2988C8.02238 22.3628 6.93442 19.7379 6.93442 17.0011C6.93287 14.2643 8.01928 11.6393 9.95269 9.70341C11.8861 7.7674 14.5096 6.67888 17.245 6.67733C19.9804 6.67578 22.604 7.76275 24.5405 9.69716C26.4755 11.6301 27.5635 14.2548 27.565 16.9917C27.5635 19.7285 26.4755 22.3519 24.5405 24.2862C22.6071 26.2222 19.9852 27.3107 17.2498 27.3122L17.2497 27.3202Z" fill="white"/>
</svg>
