<svg width="35" height="35" viewBox="0 0 35 35" fill="none" xmlns="http://www.w3.org/2000/svg">
<path d="M33.2896 32.2721C33.2896 35.2418 28.4497 35.2418 28.4497 32.2721C28.4497 29.3025 33.2896 29.3025 33.2896 32.2721Z" fill="white"/>
<path d="M34.8501 18.8802C29.1901 20.3201 25.7251 21.6413 23.2896 23.8686C20.856 26.0958 19.4146 29.285 17.8501 34.4998C14.7251 24.0757 12.1901 21.7421 0.850098 18.8807C12.1706 16.0045 14.7056 13.6714 17.8501 3.23438C20.9751 13.6566 23.5101 15.9898 34.8501 18.8802Z" fill="white"/>
<path d="M11.2349 5.07488C9.16457 5.59977 8.10012 6.06354 7.36572 7.08101C6.86182 7.88095 6.49072 8.7438 6.26417 9.64438C5.35012 6.59745 4.60987 5.91615 1.29932 5.07488C4.60987 4.23362 5.35012 3.55231 6.26417 0.5C7.18017 3.55231 7.92042 4.23362 11.2349 5.07488Z" fill="white"/>
</svg>
