<svg width="122" height="150" viewBox="0 0 122 150" fill="none" xmlns="http://www.w3.org/2000/svg">
<g clip-path="url(#clip0_0_1)">
<rect y="0.88916" width="121.588" height="149" rx="8" fill="url(#paint0_linear_0_1)"/>
</g>
<path fill-rule="evenodd" clip-rule="evenodd" d="M86.117 52.9594C86.117 53.7787 85.4239 54.4459 84.5713 54.4459C83.7217 54.4459 83.0286 53.7787 83.0286 52.9594C83.0286 52.14 83.7217 51.4728 84.5713 51.4728C85.4239 51.4728 86.117 52.14 86.117 52.9594ZM76.9492 67.5423C76.9492 66.7361 77.6301 66.0792 78.4691 66.0792C79.308 66.0792 79.9889 66.7361 79.9889 67.5423C79.9889 68.3485 79.308 69.0054 78.4691 69.0054C77.6301 69.0054 76.9492 68.3485 76.9492 67.5423ZM76.9492 95.3416C76.9492 94.5354 77.6301 93.8785 78.4691 93.8785C79.308 93.8785 79.9889 94.5354 79.9889 95.3416C79.9889 96.1478 79.308 96.8047 78.4691 96.8047C77.6301 96.8047 76.9492 96.1478 76.9492 95.3416ZM92.1478 76.321C92.1478 77.1272 91.4669 77.7842 90.6279 77.7842C89.7889 77.7842 89.1081 77.1272 89.1081 76.321C89.1081 75.5149 89.7889 74.8579 90.6279 74.8579C91.4669 74.8579 92.1478 75.5149 92.1478 76.321ZM102.784 81.1084L95.1282 76.88C95.1525 76.6956 95.1875 76.5127 95.1875 76.321C95.1875 73.901 93.1417 71.9317 90.6279 71.9317C88.1125 71.9317 86.0684 73.901 86.0684 76.321C86.0684 78.741 88.1125 80.7104 90.6279 80.7104C91.8423 80.7104 92.9396 80.2437 93.7573 79.4975L101.091 83.5474L94.5081 86.7165C93.9929 86.9652 93.6676 87.4715 93.6676 88.026V100.376L75.4005 111.197L66.3118 106.198V96.8047H74.1892C74.8184 98.5034 76.4902 99.731 78.4691 99.731C80.9829 99.731 83.0286 97.7616 83.0286 95.3416C83.0286 92.9202 80.9829 90.9523 78.4691 90.9523C76.4902 90.9523 74.8184 92.1783 74.1892 93.8785H66.3118V73.3948C66.3118 72.8812 66.0306 72.4043 65.5731 72.1394L57.9724 67.7501L56.4084 70.2593L63.2721 74.2229V78.526L54.1515 85.2797V79.2473C54.1515 78.8025 53.9417 78.3811 53.5815 78.1046L46.5522 72.691V65.3988L54.9935 59.9809C55.4175 59.7088 55.6713 59.2523 55.6713 58.7636V49.9848H52.6316V57.9808L45.0491 62.8457L37.4331 57.9779V46.4353L45.0323 42.1688V54.3742H48.072V40.4614L54.156 37.045L63.269 42.1059L63.2706 60.2267C63.2706 60.752 63.5624 61.2362 64.0366 61.4967L73.9703 66.9614C73.943 67.1531 73.9095 67.3433 73.9095 67.5423C73.9095 69.9623 75.9537 71.9317 78.4691 71.9317C80.9829 71.9317 83.0286 69.9623 83.0286 67.5423C83.0286 65.1223 80.9829 63.1529 78.4691 63.1529C77.2623 63.1529 76.1711 63.6138 75.3549 64.3527L66.3103 59.3766L66.3088 42.1089L75.3716 37.0743L92.1478 47.8414V51.448H88.8786C88.2372 49.7566 86.5486 48.5466 84.5713 48.5466C82.0438 48.5466 79.9889 50.5262 79.9889 52.9594C79.9889 55.3925 82.0438 57.3721 84.5713 57.3721C86.5866 57.3721 88.301 56.1153 88.915 54.3742H92.1478V58.7636C92.1478 59.2888 92.4396 59.7731 92.9138 60.0336L102.784 65.4647V81.1084ZM54.1788 111.197L49.3867 108.359L58.0742 102.385L56.3081 100.003L46.5765 106.694L35.9132 100.376V88.8541L42.7738 84.8905L41.2099 82.3813L34.3265 86.3581L26.7941 82.7324L26.7926 74.2975L35.0728 70.3135L33.714 67.6959L26.7926 71.026L26.7941 65.4647L35.854 60.4813L43.5125 65.3754V72.634L35.0728 78.0285L36.7537 80.4661L44.9655 75.2164L51.1118 79.9496V87.5315L44.1052 92.7182L45.9579 95.0373L63.2721 82.2174V106.197L54.1788 111.197ZM105.057 63.3461L95.1875 57.915V47.0586C95.1875 46.5685 94.9336 46.112 94.5096 45.8413L76.2714 34.1363C75.7911 33.8291 75.171 33.8086 74.6695 34.0866L64.7935 39.5733L54.9114 34.0866C54.4372 33.8232 53.8551 33.8232 53.3855 34.0895L35.1472 44.3313C34.6791 44.5932 34.3934 45.0746 34.3934 45.5955V57.915L24.5204 63.3461C24.0462 63.605 23.7544 64.0908 23.7544 64.6161V65.2262C23.7529 65.2569 23.7514 65.2862 23.7514 65.3169V81.2415C23.7514 81.2708 23.7529 81.3 23.7544 81.3278V83.6366C23.7544 84.1912 24.0797 84.6974 24.5949 84.9447L32.8735 88.9302V101.194C32.8735 101.702 33.1456 102.173 33.5955 102.439L53.3535 114.144C53.5982 114.289 53.8748 114.362 54.1515 114.362C54.4113 114.362 54.6712 114.298 54.9053 114.169L64.7919 108.732L74.6755 114.169C75.1543 114.434 75.7501 114.424 76.2258 114.144L95.9839 102.439C96.4337 102.173 96.7073 101.702 96.7073 101.194V88.9302L104.983 84.9447C105.498 84.6974 105.823 84.1912 105.823 83.6366V64.6161C105.823 64.0908 105.53 63.6065 105.057 63.3461Z" fill="white"/>
<defs>
<linearGradient id="paint0_linear_0_1" x1="-5.82159" y1="-14.8219" x2="114.829" y2="145.512" gradientUnits="userSpaceOnUse">
<stop stop-color="#0D682E"/>
<stop offset="1" stop-color="#56ADC0"/>
</linearGradient>
<clipPath id="clip0_0_1">
<rect y="0.88916" width="121.588" height="149" rx="8" fill="white"/>
</clipPath>
</defs>
</svg>
