<svg width="33" height="32" viewBox="0 0 33 32" fill="none" xmlns="http://www.w3.org/2000/svg">
<path d="M27.3187 10.1469H21.8549L22.1671 7.57117C22.6355 3.74656 21.8549 0.70248 19.3572 0H19.1231C18.865 0.0453166 18.6225 0.154867 18.4178 0.318555C18.2132 0.482243 18.0531 0.694801 17.9523 0.936639C17.9523 0.936639 13.5032 10.303 10.9275 12.1763V28.0992H11.9422C12.1113 28.0848 12.2816 28.1051 12.4426 28.1588C12.6037 28.2125 12.7521 28.2984 12.8788 28.4114C13.9715 29.1919 17.64 31.2213 19.5133 31.2213H23.416C28.0211 31.2213 32.0019 28.0992 32.3921 21.933L32.7824 15.6887C32.827 14.956 32.7169 14.2221 32.4591 13.5347C32.2014 12.8474 31.8019 12.222 31.2865 11.6993C30.7711 11.1765 30.1515 10.7681 29.4678 10.5007C28.7842 10.2332 28.0519 10.1127 27.3187 10.1469ZM0 14.0496V26.5381C0 26.9521 0.164469 27.3492 0.457226 27.642C0.749982 27.9347 1.14705 28.0992 1.56107 28.0992H7.80533V12.4885H1.56107C1.14705 12.4885 0.749982 12.653 0.457226 12.9458C0.164469 13.2385 0 13.6356 0 14.0496Z" fill="white"/>
</svg>
