<svg width="39" height="39" viewBox="0 0 39 39" fill="none" xmlns="http://www.w3.org/2000/svg">
<path fill-rule="evenodd" clip-rule="evenodd" d="M32.4248 6.48495V32.4248H6.48495V6.48495H32.4248ZM17.4029 12.9699H14.8767L10.0805 25.9398H12.3596L13.2651 23.4043H19.0065L19.8926 25.9398H22.309L17.4029 12.9699ZM26.3546 12.9699H24.0847V25.9398H26.3546V12.9699ZM16.1207 15.1459L18.3817 21.6165H13.8955L16.1207 15.1459ZM34.5864 25.9398H38.9097V30.2631H34.5864V25.9398ZM8.64661 34.5864H12.9699V38.9097H8.64661V34.5864ZM17.2932 34.5864H21.6165V38.9097H17.2932V34.5864ZM8.64661 0H12.9699V4.3233H8.64661V0ZM25.9398 34.5864H30.2631V38.9097H25.9398V34.5864ZM17.2932 0H21.6165V4.3233H17.2932V0ZM25.9398 0H30.2631V4.3233H25.9398V0ZM34.5864 17.2932H38.9097V21.6165H34.5864V17.2932ZM0 25.9398H4.3233V30.2631H0V25.9398ZM34.5864 8.64661H38.9097V12.9699H34.5864V8.64661ZM0 17.2932H4.3233V21.6165H0V17.2932ZM0 8.64661H4.3233V12.9699H0V8.64661Z" fill="white"/>
</svg>
