<svg width="213" height="52" viewBox="0 0 213 52" fill="none" xmlns="http://www.w3.org/2000/svg">
<path d="M16.1291 45.0664C25.1646 45.0664 31.0424 40.3489 31.0424 33.2514C31.0424 27.7477 27.4681 24.2499 21.0761 22.8007L16.9749 21.5873C13.3751 20.7904 11.2735 19.8342 11.7686 17.3904C12.1809 15.3568 13.4113 14.2093 16.2779 14.2093C25.3835 14.2093 28.758 17.3904 28.758 17.3904V9.74041C28.758 9.74041 25.4728 6.81641 16.2779 6.81641C7.6079 6.81641 2.90527 11.2152 2.90527 18.0215C2.90527 23.5253 6.16502 26.7277 12.7759 28.247L13.4856 28.4234C14.4908 28.7294 15.8486 29.1353 17.5571 29.6389C20.9359 30.4358 21.805 31.2815 21.805 33.8167C21.805 36.1329 19.3613 37.4504 16.1313 37.4504C6.8174 37.4504 2.90527 32.8073 2.90527 32.8073V41.2839C2.90527 41.2839 5.35327 45.0664 16.1291 45.0664Z" fill="url(#paint0_linear_3367_6252)"/>
<path d="M44.0738 44.4923C47.2719 44.4923 49.654 42.2122 49.654 39.1246C49.654 35.9711 47.3399 33.7568 44.0738 33.7568C40.8756 33.7568 38.5615 35.9711 38.5615 39.1246C38.5615 42.2781 40.8756 44.4923 44.0738 44.4923Z" fill="#E80000"/>
<path d="M67.5202 22.3945C67.4539 21.7743 67.1745 21.2913 66.6821 20.9457C66.1944 20.6 65.5599 20.4272 64.7787 20.4272C64.2294 20.4272 63.7583 20.5101 63.3653 20.6758C62.9723 20.8415 62.6717 21.0664 62.4633 21.3505C62.255 21.6346 62.1485 21.9589 62.1437 22.3235C62.1437 22.6265 62.2124 22.8893 62.3497 23.1119C62.4917 23.3344 62.6835 23.5238 62.925 23.68C63.1665 23.8316 63.434 23.9594 63.7275 24.0636C64.0211 24.1677 64.317 24.2553 64.6153 24.3263L65.979 24.6673C66.5282 24.7951 67.0561 24.9679 67.5628 25.1857C68.0741 25.4035 68.531 25.6781 68.9335 26.0096C69.3407 26.341 69.6627 26.7411 69.8994 27.2099C70.1362 27.6786 70.2545 28.2279 70.2545 28.8576C70.2545 29.7099 70.0367 30.4603 69.6011 31.109C69.1655 31.753 68.5358 32.2572 67.7119 32.6218C66.8928 32.9817 65.9008 33.1616 64.7361 33.1616C63.6044 33.1616 62.622 32.9864 61.7886 32.636C60.96 32.2856 60.3113 31.7743 59.8426 31.1019C59.3786 30.4296 59.1276 29.6104 59.0898 28.6445H61.6821C61.72 29.1512 61.8762 29.5726 62.1508 29.9087C62.4255 30.2449 62.7829 30.4959 63.2233 30.6616C63.6684 30.8273 64.1655 30.9102 64.7148 30.9102C65.2877 30.9102 65.7896 30.8249 66.2204 30.6545C66.656 30.4793 66.997 30.2378 67.2432 29.93C67.4894 29.6175 67.6149 29.253 67.6196 28.8363C67.6149 28.4575 67.5036 28.145 67.2858 27.8988C67.068 27.6478 66.7626 27.4395 66.3696 27.2738C65.9813 27.1033 65.5268 26.9518 65.0059 26.8192L63.3511 26.3931C62.1532 26.0853 61.2062 25.619 60.5102 24.994C59.8189 24.3642 59.4733 23.5285 59.4733 22.4869C59.4733 21.6299 59.7053 20.8794 60.1693 20.2354C60.6381 19.5915 61.2749 19.092 62.0798 18.7369C62.8847 18.377 63.7962 18.1971 64.8142 18.1971C65.8464 18.1971 66.7507 18.377 67.5273 18.7369C68.3085 19.092 68.9217 19.5868 69.3667 20.2212C69.8118 20.851 70.0415 21.5754 70.0557 22.3945H67.5202ZM77.9374 22.0323V24.021H71.6661V22.0323H77.9374ZM73.2144 19.4187H75.7854V29.6602C75.7854 30.0058 75.8375 30.271 75.9417 30.4556C76.0506 30.6355 76.1926 30.7586 76.3678 30.8249C76.543 30.8912 76.7371 30.9244 76.9502 30.9244C77.1112 30.9244 77.258 30.9125 77.3905 30.8888C77.5278 30.8652 77.632 30.8439 77.703 30.8249L78.1363 32.8349C77.999 32.8822 77.8025 32.9343 77.5468 32.9911C77.2958 33.0479 76.9881 33.0811 76.6235 33.0906C75.9796 33.1095 75.3995 33.0124 74.8834 32.7994C74.3673 32.5816 73.9578 32.2454 73.6547 31.7908C73.3564 31.3363 73.2097 30.7681 73.2144 30.0863V19.4187ZM83.2268 33.1616C82.5355 33.1616 81.9129 33.0385 81.3589 32.7923C80.8097 32.5413 80.3741 32.172 80.0521 31.6843C79.7349 31.1966 79.5763 30.5953 79.5763 29.8803C79.5763 29.2648 79.6899 28.7558 79.9172 28.3533C80.1444 27.9509 80.4546 27.6289 80.8476 27.3874C81.2406 27.146 81.6833 26.9637 82.1757 26.8406C82.6729 26.7127 83.1866 26.6204 83.7169 26.5636C84.3561 26.4973 84.8746 26.4381 85.2723 26.386C85.67 26.3292 85.9588 26.244 86.1388 26.1303C86.3234 26.012 86.4157 25.8297 86.4157 25.5835V25.5408C86.4157 25.0058 86.2571 24.5915 85.9399 24.2979C85.6227 24.0044 85.1657 23.8576 84.5692 23.8576C83.9394 23.8576 83.4399 23.9949 83.0706 24.2695C82.706 24.5442 82.4598 24.8685 82.3319 25.2425L79.9314 24.9016C80.1208 24.2388 80.4333 23.6848 80.8689 23.2397C81.3045 22.7899 81.8372 22.4537 82.4669 22.2312C83.0966 22.0039 83.7926 21.8903 84.555 21.8903C85.0805 21.8903 85.6037 21.9518 86.1246 22.0749C86.6454 22.198 87.1212 22.4016 87.5521 22.6857C87.983 22.9651 88.3286 23.3462 88.589 23.8292C88.8542 24.3121 88.9868 24.9158 88.9868 25.6403V32.9414H86.5152V31.4428H86.43C86.2737 31.7459 86.0535 32.0299 85.7694 32.2951C85.4901 32.5555 85.1373 32.7662 84.7112 32.9272C84.2898 33.0835 83.795 33.1616 83.2268 33.1616ZM83.8944 31.2724C84.4105 31.2724 84.858 31.1706 85.2368 30.967C85.6156 30.7586 85.9068 30.484 86.1104 30.1431C86.3187 29.8022 86.4229 29.4305 86.4229 29.0281V27.7425C86.3424 27.8088 86.205 27.8704 86.0109 27.9272C85.8215 27.984 85.6085 28.0337 85.3717 28.0763C85.135 28.119 84.9006 28.1568 84.6686 28.19C84.4366 28.2231 84.2354 28.2515 84.0649 28.2752C83.6814 28.3273 83.3381 28.4125 83.0351 28.5309C82.732 28.6493 82.4929 28.815 82.3177 29.0281C82.1425 29.2364 82.055 29.5063 82.055 29.8377C82.055 30.3112 82.2278 30.6687 82.5734 30.9102C82.9191 31.1516 83.3594 31.2724 83.8944 31.2724ZM91.6856 32.9414V18.396H94.2567V23.8363H94.3632C94.4958 23.5711 94.6828 23.2894 94.9243 22.9911C95.1657 22.6881 95.4925 22.43 95.9044 22.217C96.3163 21.9992 96.8419 21.8903 97.4811 21.8903C98.3239 21.8903 99.0838 22.1057 99.7609 22.5366C100.443 22.9627 100.983 23.5948 101.38 24.4329C101.783 25.2662 101.984 26.2889 101.984 27.5011C101.984 28.699 101.787 29.717 101.394 30.555C101.001 31.3931 100.466 32.0323 99.7893 32.4727C99.1122 32.913 98.3452 33.1332 97.4882 33.1332C96.8632 33.1332 96.3447 33.029 95.9328 32.8207C95.5209 32.6123 95.1894 32.3614 94.9385 32.0678C94.6923 31.7695 94.5005 31.4878 94.3632 31.2227H94.214V32.9414H91.6856ZM94.2069 27.4869C94.2069 28.1924 94.3064 28.8103 94.5052 29.3406C94.7088 29.8709 95 30.2852 95.3788 30.5835C95.7623 30.877 96.2264 31.0238 96.7709 31.0238C97.339 31.0238 97.8149 30.8723 98.1984 30.5692C98.5819 30.2615 98.8708 29.8424 99.0649 29.3121C99.2638 28.7771 99.3632 28.1687 99.3632 27.4869C99.3632 26.8098 99.2661 26.2085 99.072 25.6829C98.8779 25.1573 98.589 24.7454 98.2055 24.4471C97.822 24.1488 97.3438 23.9996 96.7709 23.9996C96.2216 23.9996 95.7552 24.1441 95.3717 24.4329C94.9882 24.7217 94.697 25.1265 94.4981 25.6474C94.304 26.1682 94.2069 26.7814 94.2069 27.4869ZM106.741 18.396V32.9414H104.17V18.396H106.741ZM114.214 33.1545C113.12 33.1545 112.176 32.9272 111.38 32.4727C110.59 32.0134 109.981 31.3647 109.555 30.5266C109.129 29.6838 108.916 28.6919 108.916 27.5508C108.916 26.4286 109.129 25.4438 109.555 24.5962C109.986 23.744 110.587 23.0811 111.359 22.6076C112.131 22.1294 113.037 21.8903 114.079 21.8903C114.751 21.8903 115.386 21.9992 115.983 22.217C116.584 22.43 117.114 22.7615 117.573 23.2113C118.037 23.6611 118.402 24.234 118.667 24.93C118.932 25.6213 119.065 26.4452 119.065 27.4016V28.19H110.123V26.457H116.6C116.596 25.9646 116.489 25.5266 116.281 25.1431C116.072 24.7549 115.781 24.4495 115.407 24.2269C115.038 24.0044 114.607 23.8931 114.115 23.8931C113.589 23.8931 113.127 24.021 112.73 24.2766C112.332 24.5276 112.022 24.859 111.799 25.271C111.581 25.6781 111.47 26.1256 111.465 26.6133V28.1261C111.465 28.7605 111.581 29.305 111.813 29.7596C112.045 30.2094 112.37 30.555 112.786 30.7965C113.203 31.0333 113.691 31.1516 114.25 31.1516C114.624 31.1516 114.962 31.0996 115.265 30.9954C115.568 30.8865 115.831 30.7279 116.054 30.5195C116.276 30.3112 116.444 30.0531 116.558 29.7454L118.958 30.0153C118.807 30.6497 118.518 31.2037 118.092 31.6772C117.67 32.146 117.131 32.5105 116.473 32.771C115.814 33.0266 115.062 33.1545 114.214 33.1545ZM131.244 32.9414H126.315V18.396H131.343C132.787 18.396 134.028 18.6871 135.065 19.2695C136.106 19.8472 136.906 20.6781 137.465 21.7624C138.024 22.8467 138.303 24.1441 138.303 25.6545C138.303 27.1696 138.021 28.4717 137.458 29.5607C136.899 30.6497 136.092 31.4854 135.036 32.0678C133.985 32.6502 132.721 32.9414 131.244 32.9414ZM128.949 30.6616H131.116C132.129 30.6616 132.974 30.4769 133.651 30.1076C134.328 29.7335 134.837 29.1772 135.178 28.4386C135.519 27.6952 135.69 26.7672 135.69 25.6545C135.69 24.5418 135.519 23.6185 135.178 22.8846C134.837 22.146 134.333 21.5943 133.665 21.2298C133.003 20.8604 132.179 20.6758 131.194 20.6758H128.949V30.6616ZM140.693 32.9414V22.0323H143.264V32.9414H140.693ZM141.986 20.484C141.579 20.484 141.228 20.3491 140.935 20.0792C140.641 19.8046 140.494 19.4755 140.494 19.092C140.494 18.7037 140.641 18.3746 140.935 18.1048C141.228 17.8301 141.579 17.6928 141.986 17.6928C142.398 17.6928 142.748 17.8301 143.037 18.1048C143.33 18.3746 143.477 18.7037 143.477 19.092C143.477 19.4755 143.33 19.8046 143.037 20.0792C142.748 20.3491 142.398 20.484 141.986 20.484ZM151.434 22.0323V24.021H144.985V22.0323H151.434ZM146.597 32.9414V21.0025C146.597 20.2686 146.748 19.6578 147.051 19.1701C147.359 18.6824 147.771 18.3178 148.287 18.0763C148.803 17.8349 149.376 17.7141 150.006 17.7141C150.451 17.7141 150.846 17.7496 151.192 17.8207C151.538 17.8917 151.793 17.9556 151.959 18.0124L151.448 20.0011C151.339 19.9679 151.201 19.9348 151.036 19.9016C150.87 19.8638 150.685 19.8448 150.482 19.8448C150.004 19.8448 149.665 19.9608 149.466 20.1928C149.272 20.4201 149.175 20.7468 149.175 21.1729V32.9414H146.597ZM158.973 22.0323V24.021H152.524V22.0323H158.973ZM154.136 32.9414V21.0025C154.136 20.2686 154.287 19.6578 154.59 19.1701C154.898 18.6824 155.31 18.3178 155.826 18.0763C156.342 17.8349 156.915 17.7141 157.545 17.7141C157.99 17.7141 158.385 17.7496 158.731 17.8207C159.077 17.8917 159.332 17.9556 159.498 18.0124L158.987 20.0011C158.878 19.9679 158.741 19.9348 158.575 19.9016C158.409 19.8638 158.224 19.8448 158.021 19.8448C157.543 19.8448 157.204 19.9608 157.005 20.1928C156.811 20.4201 156.714 20.7468 156.714 21.1729V32.9414H154.136ZM167.939 28.3533V22.0323H170.51V32.9414H168.017V31.0025H167.904C167.657 31.6133 167.253 32.1128 166.689 32.5011C166.13 32.8893 165.442 33.0835 164.622 33.0835C163.907 33.0835 163.275 32.9248 162.726 32.6076C162.182 32.2856 161.755 31.8192 161.448 31.2085C161.14 30.5929 160.986 29.8496 160.986 28.9783V22.0323H163.557V28.5806C163.557 29.2719 163.746 29.8211 164.125 30.2283C164.504 30.6355 165.001 30.8391 165.617 30.8391C165.996 30.8391 166.362 30.7468 166.718 30.5621C167.073 30.3775 167.364 30.1029 167.591 29.7383C167.823 29.369 167.939 28.9073 167.939 28.3533ZM181.776 24.9158L179.432 25.1715C179.366 24.9348 179.25 24.7122 179.084 24.5039C178.923 24.2956 178.706 24.1275 178.431 23.9996C178.156 23.8718 177.82 23.8079 177.422 23.8079C176.887 23.8079 176.438 23.9239 176.073 24.1559C175.713 24.3879 175.536 24.6886 175.54 25.0579C175.536 25.3751 175.652 25.6332 175.888 25.832C176.13 26.0309 176.528 26.1942 177.082 26.3221L178.942 26.7198C179.975 26.9424 180.742 27.2951 181.244 27.7781C181.75 28.261 182.006 28.8931 182.011 29.6744C182.006 30.3609 181.805 30.967 181.407 31.4925C181.014 32.0134 180.467 32.4206 179.766 32.7141C179.065 33.0077 178.261 33.1545 177.351 33.1545C176.016 33.1545 174.941 32.8751 174.127 32.3164C173.313 31.753 172.827 30.9693 172.671 29.9656L175.178 29.7241C175.292 30.2165 175.533 30.5882 175.903 30.8391C176.272 31.0901 176.753 31.2156 177.344 31.2156C177.955 31.2156 178.445 31.0901 178.815 30.8391C179.189 30.5882 179.376 30.2781 179.376 29.9087C179.376 29.5962 179.255 29.3382 179.013 29.1346C178.777 28.931 178.407 28.7747 177.905 28.6658L176.045 28.2752C174.998 28.0574 174.224 27.6905 173.722 27.1744C173.22 26.6535 172.972 25.9954 172.976 25.1999C172.972 24.5276 173.154 23.9452 173.523 23.4528C173.897 22.9556 174.416 22.5721 175.079 22.3022C175.746 22.0276 176.516 21.8903 177.387 21.8903C178.665 21.8903 179.672 22.1625 180.405 22.707C181.144 23.2515 181.601 23.9878 181.776 24.9158ZM184.131 32.9414V22.0323H186.702V32.9414H184.131ZM185.423 20.484C185.016 20.484 184.666 20.3491 184.372 20.0792C184.079 19.8046 183.932 19.4755 183.932 19.092C183.932 18.7037 184.079 18.3746 184.372 18.1048C184.666 17.8301 185.016 17.6928 185.423 17.6928C185.835 17.6928 186.186 17.8301 186.474 18.1048C186.768 18.3746 186.915 18.7037 186.915 19.092C186.915 19.4755 186.768 19.8046 186.474 20.0792C186.186 20.3491 185.835 20.484 185.423 20.484ZM194.104 33.1545C193.039 33.1545 192.115 32.9201 191.334 32.4513C190.553 31.9826 189.947 31.3268 189.516 30.484C189.09 29.6412 188.877 28.6564 188.877 27.5295C188.877 26.4026 189.09 25.4154 189.516 24.5678C189.947 23.7203 190.553 23.0621 191.334 22.5934C192.115 22.1246 193.039 21.8903 194.104 21.8903C195.169 21.8903 196.093 22.1246 196.874 22.5934C197.655 23.0621 198.259 23.7203 198.685 24.5678C199.116 25.4154 199.331 26.4026 199.331 27.5295C199.331 28.6564 199.116 29.6412 198.685 30.484C198.259 31.3268 197.655 31.9826 196.874 32.4513C196.093 32.9201 195.169 33.1545 194.104 33.1545ZM194.118 31.0948C194.696 31.0948 195.179 30.9362 195.567 30.619C195.955 30.297 196.244 29.8661 196.434 29.3263C196.628 28.7866 196.725 28.1853 196.725 27.5224C196.725 26.8548 196.628 26.2511 196.434 25.7113C196.244 25.1668 195.955 24.7335 195.567 24.4116C195.179 24.0896 194.696 23.9286 194.118 23.9286C193.526 23.9286 193.034 24.0896 192.641 24.4116C192.253 24.7335 191.961 25.1668 191.767 25.7113C191.578 26.2511 191.483 26.8548 191.483 27.5224C191.483 28.1853 191.578 28.7866 191.767 29.3263C191.961 29.8661 192.253 30.297 192.641 30.619C193.034 30.9362 193.526 31.0948 194.118 31.0948ZM204.084 26.5494V32.9414H201.513V22.0323H203.971V23.886H204.099C204.35 23.2752 204.75 22.7899 205.299 22.43C205.853 22.0702 206.537 21.8903 207.351 21.8903C208.104 21.8903 208.76 22.0513 209.319 22.3732C209.882 22.6952 210.318 23.1616 210.626 23.7724C210.938 24.3832 211.092 25.1242 211.087 25.9954V32.9414H208.516V26.3931C208.516 25.6639 208.327 25.0934 207.948 24.6815C207.574 24.2695 207.056 24.0636 206.393 24.0636C205.943 24.0636 205.543 24.163 205.192 24.3619C204.847 24.556 204.574 24.8377 204.376 25.207C204.181 25.5763 204.084 26.0238 204.084 26.5494Z" fill="white"/>
<defs>
<linearGradient id="paint0_linear_3367_6252" x1="1409.76" y1="6.81641" x2="1409.76" y2="3831.82" gradientUnits="userSpaceOnUse">
<stop stop-color="#9D39FF"/>
<stop offset="1" stop-color="#A380FF"/>
</linearGradient>
</defs>
</svg>
