<svg width="158" height="43" viewBox="0 0 158 43" fill="none" xmlns="http://www.w3.org/2000/svg">
<path d="M18.9691 42.856L11.7336 38.6552V13.8842L0.833984 20.1821L0.860488 10.7999L18.9691 0.450195V42.856ZM20.5957 0.450195V42.856L27.8312 38.6552V26.7252L33.2943 29.8825L33.2612 21.7227L27.8312 18.6217V13.8842L38.7275 20.1821L38.701 10.7999L20.5957 0.450195Z" fill="#FF6F00"/>
<path d="M45.8902 16.3167V14.1079H57.4953V16.3167H52.9996V28.6533H50.3859V16.3167H45.8902ZM62.8664 28.8664C61.7726 28.8664 60.828 28.6391 60.0326 28.1846C59.2419 27.7253 58.6334 27.0766 58.2073 26.2385C57.7812 25.3957 57.5681 24.4038 57.5681 23.2627C57.5681 22.1405 57.7812 21.1557 58.2073 20.3081C58.6382 19.4559 59.2395 18.793 60.0113 18.3195C60.7831 17.8413 61.6898 17.6022 62.7314 17.6022C63.4038 17.6022 64.0383 17.7111 64.6349 17.9289C65.2362 18.142 65.7665 18.4734 66.2258 18.9232C66.6898 19.373 67.0544 19.9459 67.3195 20.642C67.5847 21.3332 67.7172 22.1571 67.7172 23.1135V23.9019H58.7755V22.1689H65.2528C65.248 21.6765 65.1415 21.2385 64.9332 20.855C64.7248 20.4668 64.4336 20.1614 64.0596 19.9388C63.6903 19.7163 63.2594 19.605 62.767 19.605C62.2414 19.605 61.7797 19.7329 61.382 19.9885C60.9843 20.2395 60.6742 20.5709 60.4516 20.9829C60.2338 21.3901 60.1225 21.8375 60.1178 22.3252V23.838C60.1178 24.4724 60.2338 25.017 60.4658 25.4715C60.6978 25.9213 61.0222 26.267 61.4388 26.5084C61.8555 26.7452 62.3432 26.8635 62.9019 26.8635C63.276 26.8635 63.6145 26.8115 63.9175 26.7073C64.2206 26.5984 64.4833 26.4398 64.7059 26.2314C64.9284 26.0231 65.0965 25.7651 65.2101 25.4573L67.6107 25.7272C67.4592 26.3617 67.1704 26.9156 66.7442 27.3891C66.3228 27.8579 65.7831 28.2224 65.1249 28.4829C64.4668 28.7385 63.7139 28.8664 62.8664 28.8664ZM72.4633 22.2613V28.6533H69.8923V17.7442H72.3497V19.5979H72.4775C72.7285 18.9871 73.1286 18.5018 73.6778 18.142C74.2318 17.7821 74.916 17.6022 75.7304 17.6022C76.4832 17.6022 77.139 17.7632 77.6977 18.0851C78.2612 18.4071 78.6968 18.8735 79.0045 19.4843C79.317 20.0951 79.4709 20.8361 79.4662 21.7073V28.6533H76.8952V22.105C76.8952 21.3759 76.7058 20.8053 76.327 20.3934C75.9529 19.9814 75.4345 19.7755 74.7716 19.7755C74.3218 19.7755 73.9217 19.8749 73.5713 20.0738C73.2256 20.2679 72.9534 20.5496 72.7545 20.9189C72.5604 21.2883 72.4633 21.7357 72.4633 22.2613ZM90.702 20.6278L88.3582 20.8834C88.2919 20.6467 88.1759 20.4242 88.0102 20.2158C87.8492 20.0075 87.6314 19.8394 87.3568 19.7116C87.0822 19.5837 86.746 19.5198 86.3483 19.5198C85.8132 19.5198 85.3634 19.6358 84.9988 19.8678C84.639 20.0998 84.4614 20.4005 84.4662 20.7698C84.4614 21.087 84.5774 21.3451 84.8142 21.5439C85.0557 21.7428 85.4534 21.9062 86.0074 22.034L87.8682 22.4317C88.9004 22.6543 89.6674 23.007 90.1693 23.49C90.6759 23.9729 90.9316 24.605 90.9363 25.3863C90.9316 26.0728 90.7304 26.6789 90.3327 27.2045C89.9397 27.7253 89.3928 28.1325 88.692 28.426C87.9913 28.7196 87.1863 28.8664 86.2773 28.8664C84.942 28.8664 83.8672 28.587 83.0528 28.0283C82.2384 27.4649 81.7531 26.6813 81.5969 25.6775L84.104 25.436C84.2176 25.9284 84.4591 26.3001 84.8284 26.551C85.1977 26.802 85.6783 26.9275 86.2702 26.9275C86.8809 26.9275 87.371 26.802 87.7403 26.551C88.1144 26.3001 88.3014 25.99 88.3014 25.6206C88.3014 25.3081 88.1807 25.0501 87.9392 24.8465C87.7024 24.6429 87.3331 24.4867 86.8312 24.3778L84.9704 23.9871C83.924 23.7693 83.1499 23.4024 82.648 22.8863C82.1461 22.3654 81.8975 21.7073 81.9023 20.9118C81.8975 20.2395 82.0798 19.6571 82.4491 19.1647C82.8232 18.6675 83.3416 18.284 84.0045 18.0141C84.6721 17.7395 85.4416 17.6022 86.3128 17.6022C87.5912 17.6022 88.5973 17.8744 89.3312 18.4189C90.0699 18.9635 90.5268 19.6997 90.702 20.6278ZM97.8149 28.8664C96.7496 28.8664 95.8263 28.632 95.045 28.1633C94.2638 27.6945 93.6577 27.0387 93.2268 26.1959C92.8007 25.3531 92.5876 24.3683 92.5876 23.2414C92.5876 22.1145 92.8007 21.1273 93.2268 20.2797C93.6577 19.4322 94.2638 18.7741 95.045 18.3053C95.8263 17.8366 96.7496 17.6022 97.8149 17.6022C98.8802 17.6022 99.8035 17.8366 100.585 18.3053C101.366 18.7741 101.97 19.4322 102.396 20.2797C102.827 21.1273 103.042 22.1145 103.042 23.2414C103.042 24.3683 102.827 25.3531 102.396 26.1959C101.97 27.0387 101.366 27.6945 100.585 28.1633C99.8035 28.632 98.8802 28.8664 97.8149 28.8664ZM97.8291 26.8067C98.4068 26.8067 98.8897 26.6481 99.278 26.3309C99.6662 26.0089 99.955 25.578 100.144 25.0383C100.339 24.4985 100.436 23.8972 100.436 23.2343C100.436 22.5667 100.339 21.963 100.144 21.4232C99.955 20.8787 99.6662 20.4455 99.278 20.1235C98.8897 19.8015 98.4068 19.6405 97.8291 19.6405C97.2372 19.6405 96.7448 19.8015 96.3518 20.1235C95.9636 20.4455 95.6724 20.8787 95.4782 21.4232C95.2889 21.963 95.1942 22.5667 95.1942 23.2343C95.1942 23.8972 95.2889 24.4985 95.4782 25.0383C95.6724 25.578 95.9636 26.0089 96.3518 26.3309C96.7448 26.6481 97.2372 26.8067 97.8291 26.8067ZM105.224 28.6533V17.7442H107.717V19.5624H107.831C108.03 18.9327 108.371 18.4474 108.854 18.1064C109.341 17.7608 109.898 17.588 110.523 17.588C110.665 17.588 110.823 17.5951 110.998 17.6093C111.178 17.6188 111.328 17.6353 111.446 17.659V20.0241C111.337 19.9862 111.164 19.953 110.927 19.9246C110.695 19.8915 110.471 19.8749 110.253 19.8749C109.784 19.8749 109.363 19.9767 108.989 20.1803C108.619 20.3792 108.328 20.6562 108.115 21.0113C107.902 21.3664 107.795 21.776 107.795 22.24V28.6533H105.224ZM113.268 28.6533V14.1079H122.586V16.3167H115.903V20.2655H121.947V22.4743H115.903V28.6533H113.268ZM127.444 14.1079V28.6533H124.873V14.1079H127.444ZM134.846 28.8664C133.781 28.8664 132.858 28.632 132.076 28.1633C131.295 27.6945 130.689 27.0387 130.258 26.1959C129.832 25.3531 129.619 24.3683 129.619 23.2414C129.619 22.1145 129.832 21.1273 130.258 20.2797C130.689 19.4322 131.295 18.7741 132.076 18.3053C132.858 17.8366 133.781 17.6022 134.846 17.6022C135.911 17.6022 136.835 17.8366 137.616 18.3053C138.397 18.7741 139.001 19.4322 139.427 20.2797C139.858 21.1273 140.073 22.1145 140.073 23.2414C140.073 24.3683 139.858 25.3531 139.427 26.1959C139.001 27.0387 138.397 27.6945 137.616 28.1633C136.835 28.632 135.911 28.8664 134.846 28.8664ZM134.86 26.8067C135.438 26.8067 135.921 26.6481 136.309 26.3309C136.697 26.0089 136.986 25.578 137.176 25.0383C137.37 24.4985 137.467 23.8972 137.467 23.2343C137.467 22.5667 137.37 21.963 137.176 21.4232C136.986 20.8787 136.697 20.4455 136.309 20.1235C135.921 19.8015 135.438 19.6405 134.86 19.6405C134.268 19.6405 133.776 19.8015 133.383 20.1235C132.995 20.4455 132.704 20.8787 132.509 21.4232C132.32 21.963 132.225 22.5667 132.225 23.2343C132.225 23.8972 132.32 24.4985 132.509 25.0383C132.704 25.578 132.995 26.0089 133.383 26.3309C133.776 26.6481 134.268 26.8067 134.86 26.8067ZM144.195 28.6533L141.112 17.7442H143.733L145.65 25.4147H145.75L147.71 17.7442H150.302L152.263 25.3721H152.369L154.258 17.7442H156.886L153.797 28.6533H151.119L149.074 21.2812H148.925L146.879 28.6533H144.195Z" fill="white"/>
</svg>
