<svg width="128" height="45" viewBox="0 0 128 45" fill="none" xmlns="http://www.w3.org/2000/svg">
<path d="M41.0804 18.2435C42.0763 15.2544 41.7333 11.98 40.1407 9.2612C37.7456 5.09105 32.9307 2.94562 28.2283 3.95523C26.1364 1.59855 23.1309 0.258343 19.98 0.277547C15.1733 0.266573 10.9085 3.36126 9.42977 7.93471C6.34194 8.56709 3.67661 10.4999 2.11692 13.2393C-0.296004 17.3985 0.254071 22.6413 3.4777 26.2079C2.48181 29.197 2.82475 32.4714 4.41736 35.1902C6.81245 39.3603 11.6273 41.5058 16.3297 40.4961C18.4203 42.8528 21.4272 44.193 24.5781 44.1725C29.3875 44.1848 33.6537 41.0874 35.1324 36.5098C38.2202 35.8774 40.8856 33.9446 42.4453 31.2052C44.8554 27.0461 44.304 21.8073 41.0817 18.2407L41.0804 18.2435ZM24.5808 41.3041C22.6563 41.3069 20.792 40.6333 19.3147 39.4001C19.3819 39.3644 19.4985 39.3 19.5739 39.2533L28.3148 34.2053C28.762 33.9515 29.0363 33.4755 29.0336 32.9611V20.6386L32.7277 22.7716C32.7675 22.7909 32.7936 22.8293 32.7991 22.8732V33.0777C32.7936 37.6155 29.1186 41.2945 24.5808 41.3041ZM6.9071 33.7553C5.94276 32.09 5.5957 30.138 5.92629 28.2436C5.99077 28.282 6.10462 28.352 6.18556 28.3986L14.9264 33.4467C15.3695 33.7059 15.9182 33.7059 16.3626 33.4467L27.0336 27.2847V31.5509C27.0363 31.5948 27.0157 31.6373 26.9814 31.6648L18.1459 36.7663C14.2103 39.0325 9.18422 37.6854 6.90847 33.7553H6.9071ZM4.60666 14.6755C5.56689 13.0075 7.08269 11.7317 8.88792 11.0692C8.88792 11.1446 8.88381 11.2777 8.88381 11.371V21.4685C8.88106 21.9815 9.15541 22.4575 9.60124 22.7113L20.2721 28.8719L16.578 31.0049C16.541 31.0296 16.4943 31.0338 16.4532 31.0159L7.6163 25.9102C3.68896 23.6359 2.34189 18.6111 4.60529 14.6769L4.60666 14.6755ZM34.9582 21.7387L24.2873 15.5768L27.9814 13.4451C28.0185 13.4204 28.0651 13.4163 28.1063 13.4341L36.9431 18.5357C40.8773 20.8087 42.2258 25.8416 39.9528 29.7758C38.9912 31.4412 37.4768 32.7169 35.6729 33.3808V22.9815C35.677 22.4685 35.404 21.9939 34.9596 21.7387H34.9582ZM38.6345 16.205C38.57 16.1653 38.4562 16.0967 38.3753 16.05L29.6344 11.002C29.1913 10.7427 28.6426 10.7427 28.1982 11.002L17.5273 17.1639V12.8977C17.5245 12.8538 17.5451 12.8113 17.5794 12.7839L26.4149 7.68642C30.3505 5.41616 35.3821 6.76734 37.651 10.7043C38.6098 12.3669 38.9569 14.3134 38.6318 16.205H38.6345ZM15.519 23.8087L11.8235 21.6756C11.7837 21.6564 11.7576 21.618 11.7522 21.5741V11.3696C11.7549 6.82632 15.4408 3.14452 19.9841 3.14727C21.9059 3.14727 23.766 3.82217 25.2434 5.05127C25.1762 5.08693 25.061 5.15141 24.9841 5.19805L16.2433 10.2461C15.7961 10.4999 15.5217 10.9745 15.5245 11.4889L15.519 23.806V23.8087ZM17.5259 19.4822L22.279 16.7373L27.0322 19.4808V24.9692L22.279 27.7127L17.5259 24.9692V19.4822Z" fill="white"/>
<path d="M60.7512 14.6792H63.3861V24.182C63.3861 25.2237 63.1399 26.1399 62.6475 26.9306C62.1598 27.7213 61.4732 28.3392 60.5878 28.7843C59.7024 29.2246 58.6678 29.4448 57.4841 29.4448C56.2957 29.4448 55.2587 29.2246 54.3733 28.7843C53.4879 28.3392 52.8013 27.7213 52.3137 26.9306C51.826 26.1399 51.5821 25.2237 51.5821 24.182V14.6792H54.2171V23.9618C54.2171 24.5679 54.3496 25.1077 54.6148 25.5811C54.8847 26.0546 55.2635 26.4263 55.7512 26.6962C56.2388 26.9614 56.8165 27.0939 57.4841 27.0939C58.1517 27.0939 58.7294 26.9614 59.2171 26.6962C59.7095 26.4263 60.0883 26.0546 60.3534 25.5811C60.6186 25.1077 60.7512 24.5679 60.7512 23.9618V14.6792ZM68.7075 22.8326V29.2246H66.1365V18.3155H68.5938V20.1692H68.7217C68.9726 19.5584 69.3727 19.0731 69.922 18.7132C70.4759 18.3534 71.1601 18.1735 71.9745 18.1735C72.7274 18.1735 73.3831 18.3345 73.9419 18.6564C74.5053 18.9784 74.9409 19.4448 75.2487 20.0556C75.5612 20.6664 75.7151 21.4074 75.7103 22.2786V29.2246H73.1393V22.6763C73.1393 21.9471 72.9499 21.3766 72.5711 20.9647C72.1971 20.5527 71.6786 20.3468 71.0157 20.3468C70.5659 20.3468 70.1658 20.4462 69.8154 20.6451C69.4698 20.8392 69.1975 21.1209 68.9987 21.4902C68.8045 21.8596 68.7075 22.307 68.7075 22.8326ZM78.324 29.2246V18.3155H80.895V29.2246H78.324ZM79.6166 16.7672C79.2094 16.7672 78.859 16.6323 78.5654 16.3624C78.2719 16.0878 78.1251 15.7587 78.1251 15.3752C78.1251 14.9869 78.2719 14.6578 78.5654 14.388C78.859 14.1133 79.2094 13.976 79.6166 13.976C80.0285 13.976 80.3789 14.1133 80.6677 14.388C80.9613 14.6578 81.108 14.9869 81.108 15.3752C81.108 15.7587 80.9613 16.0878 80.6677 16.3624C80.3789 16.6323 80.0285 16.7672 79.6166 16.7672ZM88.9862 18.3155V20.3042H82.7149V18.3155H88.9862ZM84.2632 15.7019H86.8343V25.9434C86.8343 26.289 86.8863 26.5542 86.9905 26.7388C87.0994 26.9187 87.2414 27.0418 87.4166 27.1081C87.5918 27.1744 87.786 27.2076 87.999 27.2076C88.16 27.2076 88.3068 27.1957 88.4394 27.1721C88.5767 27.1484 88.6808 27.1271 88.7519 27.1081L89.1851 29.1181C89.0478 29.1654 88.8513 29.2175 88.5956 29.2743C88.3447 29.3311 88.0369 29.3643 87.6723 29.3738C87.0284 29.3927 86.4484 29.2956 85.9323 29.0826C85.4162 28.8648 85.0066 28.5286 84.7036 28.074C84.4053 27.6195 84.2585 27.0513 84.2632 26.3695V15.7019ZM96.5839 18.3155V20.3042H90.3126V18.3155H96.5839ZM91.8609 15.7019H94.4319V25.9434C94.4319 26.289 94.484 26.5542 94.5882 26.7388C94.6971 26.9187 94.8391 27.0418 95.0143 27.1081C95.1895 27.1744 95.3836 27.2076 95.5967 27.2076C95.7577 27.2076 95.9044 27.1957 96.037 27.1721C96.1743 27.1484 96.2785 27.1271 96.3495 27.1081L96.7828 29.1181C96.6454 29.1654 96.449 29.2175 96.1933 29.2743C95.9423 29.3311 95.6346 29.3643 95.27 29.3738C94.626 29.3927 94.046 29.2956 93.5299 29.0826C93.0138 28.8648 92.6043 28.5286 92.3012 28.074C92.0029 27.6195 91.8561 27.0513 91.8609 26.3695V15.7019ZM103.446 29.4377C102.353 29.4377 101.408 29.2104 100.613 28.7559C99.8219 28.2966 99.2135 27.6479 98.7874 26.8098C98.3612 25.967 98.1482 24.9751 98.1482 23.834C98.1482 22.7118 98.3612 21.727 98.7874 20.8794C99.2182 20.0272 99.8196 19.3643 100.591 18.8908C101.363 18.4126 102.27 18.1735 103.312 18.1735C103.984 18.1735 104.618 18.2824 105.215 18.5002C105.816 18.7132 106.347 19.0447 106.806 19.4945C107.27 19.9443 107.634 20.5172 107.9 21.2132C108.165 21.9045 108.297 22.7284 108.297 23.6848V24.4732H99.3556V22.7402H105.833C105.828 22.2478 105.722 21.8098 105.513 21.4263C105.305 21.0381 105.014 20.7327 104.64 20.5101C104.27 20.2876 103.839 20.1763 103.347 20.1763C102.821 20.1763 102.36 20.3042 101.962 20.5598C101.564 20.8108 101.254 21.1422 101.032 21.5542C100.814 21.9614 100.703 22.4088 100.698 22.8965V24.4093C100.698 25.0437 100.814 25.5882 101.046 26.0428C101.278 26.4926 101.602 26.8382 102.019 27.0797C102.436 27.3165 102.923 27.4348 103.482 27.4348C103.856 27.4348 104.195 27.3828 104.498 27.2786C104.801 27.1697 105.063 27.0111 105.286 26.8027C105.508 26.5944 105.677 26.3364 105.79 26.0286L108.191 26.2985C108.039 26.9329 107.75 27.4869 107.324 27.9604C106.903 28.4292 106.363 28.7937 105.705 29.0542C105.047 29.3098 104.294 29.4377 103.446 29.4377ZM119.095 21.199L116.751 21.4547C116.685 21.218 116.569 20.9954 116.403 20.7871C116.242 20.5788 116.024 20.4107 115.749 20.2828C115.475 20.155 115.139 20.0911 114.741 20.0911C114.206 20.0911 113.756 20.2071 113.391 20.4391C113.032 20.6711 112.854 20.9718 112.859 21.3411C112.854 21.6583 112.97 21.9164 113.207 22.1152C113.448 22.3141 113.846 22.4775 114.4 22.6053L116.261 23.003C117.293 23.2256 118.06 23.5783 118.562 24.0613C119.069 24.5442 119.324 25.1763 119.329 25.9576C119.324 26.6441 119.123 27.2502 118.725 27.7757C118.332 28.2966 117.785 28.7038 117.085 28.9973C116.384 29.2909 115.579 29.4377 114.67 29.4377C113.335 29.4377 112.26 29.1583 111.445 28.5996C110.631 28.0362 110.146 27.2525 109.989 26.2488L112.497 26.0073C112.61 26.4997 112.852 26.8714 113.221 27.1223C113.59 27.3733 114.071 27.4988 114.663 27.4988C115.274 27.4988 115.764 27.3733 116.133 27.1223C116.507 26.8714 116.694 26.5613 116.694 26.1919C116.694 25.8794 116.573 25.6214 116.332 25.4178C116.095 25.2142 115.726 25.0579 115.224 24.949L113.363 24.5584C112.317 24.3406 111.542 23.9737 111.041 23.4576C110.539 22.9367 110.29 22.2786 110.295 21.4831C110.29 20.8108 110.472 20.2284 110.842 19.736C111.216 19.2388 111.734 18.8553 112.397 18.5854C113.065 18.3108 113.834 18.1735 114.705 18.1735C115.984 18.1735 116.99 18.4457 117.724 18.9902C118.462 19.5347 118.919 20.271 119.095 21.199ZM126.896 18.3155V20.3042H120.625V18.3155H126.896ZM122.173 15.7019H124.744V25.9434C124.744 26.289 124.796 26.5542 124.901 26.7388C125.01 26.9187 125.152 27.0418 125.327 27.1081C125.502 27.1744 125.696 27.2076 125.909 27.2076C126.07 27.2076 126.217 27.1957 126.35 27.1721C126.487 27.1484 126.591 27.1271 126.662 27.1081L127.095 29.1181C126.958 29.1654 126.761 29.2175 126.506 29.2743C126.255 29.3311 125.947 29.3643 125.582 29.3738C124.939 29.3927 124.359 29.2956 123.842 29.0826C123.326 28.8648 122.917 28.5286 122.614 28.074C122.315 27.6195 122.169 27.0513 122.173 26.3695V15.7019Z" fill="white"/>
</svg>
