<svg width="179" height="45" viewBox="0 0 179 45" fill="none" xmlns="http://www.w3.org/2000/svg">
<path d="M41.0804 18.5335C42.0763 15.5444 41.7333 12.2701 40.1407 9.55124C37.7456 5.38109 32.9307 3.23566 28.2283 4.24527C26.1364 1.88859 23.1309 0.548382 19.98 0.567586C15.1733 0.556612 10.9085 3.6513 9.42977 8.22474C6.34194 8.85713 3.67661 10.7899 2.11692 13.5293C-0.296004 17.6885 0.254071 22.9314 3.4777 26.4979C2.48181 29.487 2.82475 32.7614 4.41736 35.4802C6.81245 39.6504 11.6273 41.7958 16.3297 40.7862C18.4203 43.1429 21.4272 44.4831 24.5781 44.4625C29.3875 44.4748 33.6537 41.3774 35.1324 36.7999C38.2202 36.1675 40.8856 34.2347 42.4453 31.4953C44.8554 27.3361 44.304 22.0973 41.0817 18.5308L41.0804 18.5335ZM24.5808 41.5942C22.6563 41.5969 20.792 40.9234 19.3147 39.6902C19.3819 39.6545 19.4985 39.59 19.5739 39.5434L28.3148 34.4953C28.762 34.2415 29.0363 33.7655 29.0336 33.2511V20.9286L32.7277 23.0617C32.7675 23.0809 32.7936 23.1193 32.7991 23.1632V33.3677C32.7936 37.9055 29.1186 41.5845 24.5808 41.5942ZM6.9071 34.0454C5.94276 32.38 5.5957 30.428 5.92629 28.5336C5.99077 28.572 6.10462 28.642 6.18556 28.6886L14.9264 33.7367C15.3695 33.996 15.9182 33.996 16.3626 33.7367L27.0336 27.5748V31.8409C27.0363 31.8848 27.0157 31.9274 26.9814 31.9548L18.1459 37.0564C14.2103 39.3225 9.18422 37.9755 6.90847 34.0454H6.9071ZM4.60666 14.9656C5.56689 13.2975 7.08269 12.0218 8.88792 11.3592C8.88792 11.4347 8.88381 11.5677 8.88381 11.661V21.7585C8.88106 22.2716 9.15541 22.7476 9.60124 23.0013L20.2721 29.1619L16.578 31.295C16.541 31.3197 16.4943 31.3238 16.4532 31.306L7.6163 26.2003C3.68896 23.9259 2.34189 18.9011 4.60529 14.9669L4.60666 14.9656ZM34.9582 22.0288L24.2873 15.8668L27.9814 13.7351C28.0185 13.7104 28.0651 13.7063 28.1063 13.7241L36.9431 18.8257C40.8773 21.0987 42.2258 26.1317 39.9528 30.0659C38.9912 31.7312 37.4768 33.0069 35.6729 33.6709V23.2716C35.677 22.7585 35.404 22.2839 34.9596 22.0288H34.9582ZM38.6345 16.4951C38.57 16.4553 38.4562 16.3867 38.3753 16.3401L29.6344 11.292C29.1913 11.0327 28.6426 11.0327 28.1982 11.292L17.5273 17.4539V13.1878C17.5245 13.1439 17.5451 13.1013 17.5794 13.0739L26.4149 7.97646C30.3505 5.70619 35.3821 7.05738 37.651 10.9943C38.6098 12.6569 38.9569 14.6034 38.6318 16.4951H38.6345ZM15.519 24.0987L11.8235 21.9657C11.7837 21.9464 11.7576 21.908 11.7522 21.8641V11.6596C11.7549 7.11636 15.4408 3.43456 19.9841 3.43731C21.9059 3.43731 23.766 4.11221 25.2434 5.34131C25.1762 5.37697 25.061 5.44145 24.9841 5.48809L16.2433 10.5362C15.7961 10.7899 15.5217 11.2646 15.5245 11.779L15.519 24.096V24.0987ZM17.5259 19.7722L22.279 17.0273L27.0322 19.7708V25.2592L22.279 28.0028L17.5259 25.2592V19.7722Z" fill="white"/>
<path d="M60.6555 14.9692H63.2904V24.472C63.2904 25.5137 63.0442 26.4299 62.5518 27.2206C62.0641 28.0113 61.3775 28.6292 60.4921 29.0743C59.6067 29.5146 58.5721 29.7348 57.3884 29.7348C56.2 29.7348 55.163 29.5146 54.2776 29.0743C53.3922 28.6292 52.7056 28.0113 52.218 27.2206C51.7303 26.4299 51.4864 25.5137 51.4864 24.472V14.9692H54.1214V24.2519C54.1214 24.8579 54.2539 25.3977 54.5191 25.8712C54.789 26.3447 55.1678 26.7164 55.6555 26.9862C56.1431 27.2514 56.7208 27.384 57.3884 27.384C58.056 27.384 58.6337 27.2514 59.1214 26.9862C59.6138 26.7164 59.9926 26.3447 60.2577 25.8712C60.5229 25.3977 60.6555 24.8579 60.6555 24.2519V14.9692ZM68.6118 23.1226V29.5146H66.0407V18.6056H68.4981V20.4593H68.626C68.8769 19.8485 69.277 19.3631 69.8263 19.0033C70.3802 18.6434 71.0644 18.4635 71.8788 18.4635C72.6317 18.4635 73.2874 18.6245 73.8461 18.9465C74.4096 19.2684 74.8452 19.7348 75.153 20.3456C75.4655 20.9564 75.6193 21.6974 75.6146 22.5686V29.5146H73.0436V22.9664C73.0436 22.2372 72.8542 21.6666 72.4754 21.2547C72.1014 20.8428 71.5829 20.6368 70.92 20.6368C70.4702 20.6368 70.0701 20.7362 69.7197 20.9351C69.3741 21.1292 69.1018 21.411 68.903 21.7803C68.7088 22.1496 68.6118 22.597 68.6118 23.1226ZM86.8504 21.4891L84.5067 21.7448C84.4404 21.508 84.3244 21.2855 84.1586 21.0771C83.9977 20.8688 83.7799 20.7007 83.5052 20.5729C83.2306 20.445 82.8944 20.3811 82.4967 20.3811C81.9617 20.3811 81.5119 20.4971 81.1473 20.7291C80.7874 20.9611 80.6099 21.2618 80.6146 21.6311C80.6099 21.9484 80.7259 22.2064 80.9626 22.4053C81.2041 22.6041 81.6018 22.7675 82.1558 22.8953L84.0166 23.2931C85.0488 23.5156 85.8158 23.8683 86.3177 24.3513C86.8244 24.8343 87.08 25.4664 87.0848 26.2476C87.08 26.9342 86.8788 27.5402 86.4811 28.0658C86.0881 28.5866 85.5412 28.9938 84.8405 29.2874C84.1397 29.5809 83.3348 29.7277 82.4257 29.7277C81.0905 29.7277 80.0157 29.4484 79.2013 28.8896C78.3869 28.3262 77.9015 27.5426 77.7453 26.5388L80.2524 26.2973C80.366 26.7897 80.6075 27.1614 80.9768 27.4124C81.3461 27.6633 81.8267 27.7888 82.4186 27.7888C83.0294 27.7888 83.5194 27.6633 83.8888 27.4124C84.2628 27.1614 84.4498 26.8513 84.4498 26.482C84.4498 26.1695 84.3291 25.9114 84.0876 25.7078C83.8509 25.5042 83.4816 25.348 82.9797 25.2391L81.1189 24.8485C80.0725 24.6307 79.2983 24.2637 78.7964 23.7476C78.2945 23.2268 78.046 22.5686 78.0507 21.7732C78.046 21.1008 78.2282 20.5184 78.5976 20.026C78.9716 19.5289 79.4901 19.1453 80.153 18.8754C80.8206 18.6008 81.59 18.4635 82.4612 18.4635C83.7396 18.4635 84.7458 18.7358 85.4797 19.2803C86.2183 19.8248 86.6752 20.561 86.8504 21.4891ZM94.6523 18.6056V20.5942H88.3809V18.6056H94.6523ZM89.9292 15.9919H92.5003V26.2334C92.5003 26.579 92.5523 26.8442 92.6565 27.0289C92.7654 27.2088 92.9075 27.3319 93.0827 27.3982C93.2578 27.4645 93.452 27.4976 93.665 27.4976C93.826 27.4976 93.9728 27.4858 94.1054 27.4621C94.2427 27.4384 94.3469 27.4171 94.4179 27.3982L94.8511 29.4081C94.7138 29.4555 94.5173 29.5075 94.2616 29.5644C94.0107 29.6212 93.7029 29.6543 93.3383 29.6638C92.6944 29.6827 92.1144 29.5857 91.5983 29.3726C91.0822 29.1548 90.6726 28.8186 90.3696 28.3641C90.0713 27.9095 89.9245 27.3414 89.9292 26.6595V15.9919ZM96.8025 29.5146V18.6056H99.2954V20.4237H99.409C99.6079 19.794 99.9488 19.3087 100.432 18.9678C100.919 18.6221 101.476 18.4493 102.101 18.4493C102.243 18.4493 102.401 18.4564 102.577 18.4706C102.757 18.4801 102.906 18.4967 103.024 18.5203V20.8854C102.915 20.8475 102.742 20.8144 102.506 20.786C102.274 20.7528 102.049 20.7362 101.831 20.7362C101.362 20.7362 100.941 20.838 100.567 21.0416C100.197 21.2405 99.9062 21.5175 99.6931 21.8726C99.48 22.2277 99.3735 22.6373 99.3735 23.1013V29.5146H96.8025ZM111.685 24.9266V18.6056H114.256V29.5146H111.763V27.5757H111.65C111.404 28.1865 110.999 28.686 110.435 29.0743C109.877 29.4626 109.188 29.6567 108.369 29.6567C107.654 29.6567 107.021 29.4981 106.472 29.1808C105.928 28.8589 105.502 28.3925 105.194 27.7817C104.886 27.1662 104.732 26.4228 104.732 25.5516V18.6056H107.303V25.1539C107.303 25.8451 107.493 26.3944 107.871 26.8016C108.25 27.2088 108.747 27.4124 109.363 27.4124C109.742 27.4124 110.109 27.32 110.464 27.1354C110.819 26.9507 111.11 26.6761 111.337 26.3115C111.569 25.9422 111.685 25.4806 111.685 24.9266ZM121.659 29.7277C120.57 29.7277 119.634 29.4886 118.853 29.0104C118.077 28.5322 117.478 27.8717 117.056 27.0289C116.64 26.1813 116.431 25.2059 116.431 24.1027C116.431 22.9948 116.644 22.017 117.071 21.1695C117.497 20.3172 118.098 19.6543 118.875 19.1808C119.656 18.7026 120.579 18.4635 121.644 18.4635C122.53 18.4635 123.313 18.6269 123.995 18.9536C124.682 19.2755 125.229 19.7325 125.636 20.3243C126.043 20.9114 126.275 21.598 126.332 22.384H123.875C123.775 21.8584 123.538 21.4204 123.164 21.07C122.795 20.7149 122.3 20.5374 121.68 20.5374C121.154 20.5374 120.693 20.6794 120.295 20.9635C119.897 21.2429 119.587 21.6453 119.365 22.1709C119.147 22.6965 119.038 23.3262 119.038 24.0601C119.038 24.8035 119.147 25.4427 119.365 25.9777C119.582 26.508 119.888 26.9176 120.281 27.2064C120.679 27.4905 121.145 27.6325 121.68 27.6325C122.059 27.6325 122.397 27.5615 122.696 27.4195C122.999 27.2727 123.252 27.062 123.456 26.7874C123.659 26.5128 123.799 26.1789 123.875 25.786H126.332C126.27 26.5577 126.043 27.2419 125.65 27.8385C125.257 28.4304 124.722 28.8944 124.045 29.2306C123.368 29.562 122.572 29.7277 121.659 29.7277ZM133.891 18.6056V20.5942H127.619V18.6056H133.891ZM129.168 15.9919H131.739V26.2334C131.739 26.579 131.791 26.8442 131.895 27.0289C132.004 27.2088 132.146 27.3319 132.321 27.3982C132.496 27.4645 132.69 27.4976 132.903 27.4976C133.064 27.4976 133.211 27.4858 133.344 27.4621C133.481 27.4384 133.585 27.4171 133.656 27.3982L134.089 29.4081C133.952 29.4555 133.756 29.5075 133.5 29.5644C133.249 29.6212 132.941 29.6543 132.577 29.6638C131.933 29.6827 131.353 29.5857 130.837 29.3726C130.32 29.1548 129.911 28.8186 129.608 28.3641C129.31 27.9095 129.163 27.3414 129.168 26.6595V15.9919ZM142.994 24.9266V18.6056H145.565V29.5146H143.072V27.5757H142.958C142.712 28.1865 142.307 28.686 141.744 29.0743C141.185 29.4626 140.496 29.6567 139.677 29.6567C138.962 29.6567 138.33 29.4981 137.781 29.1808C137.236 28.8589 136.81 28.3925 136.502 27.7817C136.195 27.1662 136.041 26.4228 136.041 25.5516V18.6056H138.612V25.1539C138.612 25.8451 138.801 26.3944 139.18 26.8016C139.559 27.2088 140.056 27.4124 140.671 27.4124C141.05 27.4124 141.417 27.32 141.772 27.1354C142.127 26.9507 142.419 26.6761 142.646 26.3115C142.878 25.9422 142.994 25.4806 142.994 24.9266ZM148.209 29.5146V18.6056H150.702V20.4237H150.815C151.014 19.794 151.355 19.3087 151.838 18.9678C152.326 18.6221 152.882 18.4493 153.507 18.4493C153.649 18.4493 153.808 18.4564 153.983 18.4706C154.163 18.4801 154.312 18.4967 154.43 18.5203V20.8854C154.321 20.8475 154.149 20.8144 153.912 20.786C153.68 20.7528 153.455 20.7362 153.237 20.7362C152.768 20.7362 152.347 20.838 151.973 21.0416C151.604 21.2405 151.312 21.5175 151.099 21.8726C150.886 22.2277 150.78 22.6373 150.78 23.1013V29.5146H148.209ZM160.519 29.7277C159.425 29.7277 158.48 29.5004 157.685 29.0459C156.894 28.5866 156.286 27.9379 155.86 27.0999C155.434 26.2571 155.22 25.2651 155.22 24.124C155.22 23.0019 155.434 22.017 155.86 21.1695C156.291 20.3172 156.892 19.6543 157.664 19.1808C158.435 18.7026 159.342 18.4635 160.384 18.4635C161.056 18.4635 161.691 18.5724 162.287 18.7902C162.889 19.0033 163.419 19.3347 163.878 19.7845C164.342 20.2343 164.707 20.8073 164.972 21.5033C165.237 22.1946 165.37 23.0184 165.37 23.9749V24.7632H156.428V23.0303H162.905C162.9 22.5378 162.794 22.0999 162.585 21.7164C162.377 21.3281 162.086 21.0227 161.712 20.8002C161.343 20.5776 160.912 20.4664 160.419 20.4664C159.894 20.4664 159.432 20.5942 159.034 20.8499C158.637 21.1008 158.326 21.4323 158.104 21.8442C157.886 22.2514 157.775 22.6988 157.77 23.1865V24.6993C157.77 25.3338 157.886 25.8783 158.118 26.3328C158.35 26.7826 158.675 27.1283 159.091 27.3698C159.508 27.6065 159.996 27.7249 160.554 27.7249C160.928 27.7249 161.267 27.6728 161.57 27.5686C161.873 27.4597 162.136 27.3011 162.358 27.0928C162.581 26.8844 162.749 26.6264 162.862 26.3186L165.263 26.5885C165.112 27.223 164.823 27.777 164.397 28.2504C163.975 28.7192 163.435 29.0838 162.777 29.3442C162.119 29.5999 161.366 29.7277 160.519 29.7277ZM171.593 29.7064C170.736 29.7064 169.969 29.4862 169.292 29.0459C168.615 28.6056 168.08 27.9664 167.687 27.1283C167.294 26.2902 167.097 25.2722 167.097 24.0743C167.097 22.8622 167.296 21.8395 167.694 21.0061C168.096 20.1681 168.638 19.536 169.32 19.1098C170.002 18.6789 170.762 18.4635 171.6 18.4635C172.239 18.4635 172.765 18.5724 173.177 18.7902C173.589 19.0033 173.915 19.2613 174.157 19.5644C174.398 19.8627 174.585 20.1444 174.718 20.4095H174.824V14.9692H177.403V29.5146H174.874V27.7959H174.718C174.585 28.061 174.394 28.3428 174.143 28.6411C173.892 28.9346 173.56 29.1856 173.148 29.3939C172.736 29.6022 172.218 29.7064 171.593 29.7064ZM172.31 27.597C172.855 27.597 173.319 27.4503 173.702 27.1567C174.086 26.8584 174.377 26.4441 174.576 25.9138C174.775 25.3835 174.874 24.7656 174.874 24.0601C174.874 23.3546 174.775 22.7414 174.576 22.2206C174.382 21.6998 174.093 21.295 173.709 21.0061C173.331 20.7173 172.864 20.5729 172.31 20.5729C171.737 20.5729 171.259 20.722 170.876 21.0203C170.492 21.3186 170.203 21.7306 170.009 22.2561C169.815 22.7817 169.718 23.383 169.718 24.0601C169.718 24.7419 169.815 25.3503 170.009 25.8854C170.208 26.4157 170.499 26.8347 170.883 27.1425C171.271 27.4455 171.747 27.597 172.31 27.597Z" fill="white"/>
</svg>
