<svg width="168" height="27" viewBox="0 0 168 27" fill="none" xmlns="http://www.w3.org/2000/svg">
<path d="M0.175781 26.8469H28.8819V8.63025H0.175781V26.8469Z" fill="#F5FAFE"/>
<path d="M28.8819 2.158V13.7073C25.59 12.5914 21.6565 11.6429 17.1651 12.1451C10.693 12.8704 6.95477 15.9391 3.57922 19.0356C2.43544 19.9562 1.34746 20.8489 0.175781 21.7137V2.1859C0.175781 1.87903 0.28737 1.60006 0.482649 1.37689C0.705826 1.12582 1.04059 0.958435 1.40325 0.958435H27.6823C28.045 0.958435 28.3797 1.12582 28.6029 1.37689C28.7703 1.57217 28.8819 1.85113 28.8819 2.158Z" fill="#C3C9D0"/>
<path d="M15.2415 26.9306H18.7565C17.278 25.5916 15.5762 24.4478 13.6513 23.9456C11.7543 23.4435 9.77365 23.6388 7.90454 24.0851C6.50969 24.4199 5.17063 24.8941 3.85947 25.5079C3.30152 25.7589 2.74358 26.0379 2.21354 26.3448C2.18564 26.3448 11.4754 23.3598 15.2415 26.9306ZM28.8831 17.7804V21.0165C25.5355 19.3148 22.4947 16.9156 18.7007 16.274C15.1299 15.6603 11.4196 16.6924 8.2951 18.4221C6.81656 19.2311 5.39381 20.1796 3.97106 21.1002C3.97106 20.9886 9.94103 14.4049 18.087 14.4049C24.6149 14.3491 28.2973 17.7804 28.8831 17.7804ZM14.7393 21.0723C10.5548 21.0723 4.75217 23.6109 1.09766 25.4242C1.09766 25.3405 1.37663 25.201 1.40452 25.1452C1.68349 24.922 1.99036 24.6989 2.29723 24.5036C3.30153 23.8062 4.33372 23.1645 5.39381 22.5508C8.15562 20.9886 11.1685 19.6216 14.3488 19.2311C15.9668 19.0358 17.5569 19.2032 19.0913 19.7053C20.6256 20.2075 22.0763 20.9886 23.3874 21.9092C25.3402 23.2482 27.0419 24.8941 28.6321 26.6516C28.6879 26.7353 28.7716 26.7911 28.8273 26.8748V26.9585H24.6986C24.7544 26.9306 20.4024 21.0723 14.7393 21.0723C20.4024 21.0723 10.5548 21.0723 14.7393 21.0723ZM56.2502 15.1023C56.2502 16.274 56.0828 17.362 55.7201 18.3384C55.3575 19.3147 54.8274 20.1796 54.13 20.9049C53.4326 21.6302 52.5399 22.1881 51.5077 22.6066C50.4476 23.025 49.248 23.2203 47.881 23.2203C46.4862 23.2203 45.2866 23.025 44.2265 22.6066C43.1664 22.1881 42.3016 21.6302 41.6042 20.9049C40.9068 20.1796 40.3767 19.3147 40.0141 18.3384C39.6514 17.362 39.484 16.274 39.484 15.1023V2.96718H43.8639V14.9349C43.8639 15.5487 43.9755 16.1066 44.1707 16.6367C44.366 17.1667 44.645 17.613 45.0076 18.0036C45.3703 18.3942 45.7888 18.6731 46.2909 18.8963C46.7931 19.1195 47.3231 19.2311 47.9089 19.2311C48.4948 19.2311 49.0248 19.1195 49.4991 18.8963C49.9733 18.6731 50.4197 18.3942 50.7544 18.0036C51.1171 17.613 51.3961 17.1667 51.5914 16.6367C51.7866 16.1066 51.8982 15.5487 51.8982 14.9349V2.96718H56.2781V15.1023H56.2502ZM69.6687 7.79334C69.306 7.34699 68.8317 7.01222 68.218 6.78905C67.6043 6.56587 67.0184 6.45429 66.4884 6.45429C66.1815 6.45429 65.8468 6.48218 65.512 6.56588C65.1772 6.64957 64.8425 6.76115 64.5635 6.92853C64.2566 7.09591 64.0334 7.2912 63.8382 7.57017C63.6429 7.82124 63.5592 8.156 63.5592 8.51866C63.5592 9.10449 63.7824 9.57874 64.2287 9.8856C64.6751 10.1925 65.233 10.4714 65.9305 10.6946C66.6279 10.9178 67.3532 11.141 68.1343 11.3641C68.9154 11.5873 69.6687 11.8942 70.3382 12.3126C71.0356 12.7311 71.5936 13.2611 72.0399 13.9586C72.4863 14.656 72.7094 15.5766 72.7094 16.7203C72.7094 17.8083 72.5142 18.7847 72.0957 19.5937C71.6772 20.4027 71.1193 21.1002 70.4219 21.6302C69.7245 22.1602 68.9154 22.5787 67.9669 22.8298C67.0463 23.0808 66.0699 23.2203 65.0377 23.2203C63.7545 23.2203 62.5549 23.025 61.439 22.6345C60.3231 22.2439 59.2909 21.6023 58.3424 20.7375L61.4669 17.3341C61.9133 17.9199 62.4712 18.3942 63.1686 18.7289C63.8661 19.0637 64.5635 19.2311 65.2888 19.2311C65.6515 19.2311 66.0141 19.1753 66.3768 19.0916C66.7395 19.0079 67.0742 18.8684 67.3532 18.701C67.6322 18.5336 67.8832 18.3105 68.0506 18.0594C68.218 17.8083 68.3296 17.5015 68.3296 17.1388C68.3296 16.553 68.1064 16.0787 67.6322 15.7161C67.1858 15.3813 66.6 15.0744 65.9025 14.8234C65.2051 14.5723 64.4519 14.3491 63.6429 14.098C62.8339 13.847 62.0807 13.5401 61.3832 13.1216C60.6858 12.7032 60.1 12.1731 59.6536 11.5036C59.2073 10.8341 58.9562 9.94139 58.9562 8.85342C58.9562 7.79333 59.1794 6.87274 59.5978 6.06373C60.0163 5.25472 60.5742 4.5852 61.2716 4.05516C61.9691 3.52511 62.7781 3.10666 63.6987 2.82769C64.6193 2.54873 65.5678 2.40924 66.5442 2.40924C67.6601 2.40924 68.7481 2.57662 69.8081 2.88348C70.8682 3.19035 71.8167 3.72039 72.6536 4.47361L69.6687 7.79334ZM79.9906 11.3362H82.9198C83.3103 11.3362 83.7009 11.3083 84.0635 11.2247C84.4262 11.141 84.761 11.0294 85.0399 10.8341C85.3189 10.6667 85.57 10.4156 85.7374 10.1088C85.9048 9.80191 86.0163 9.41136 86.0163 8.93711C86.0163 8.43497 85.9048 8.01652 85.6537 7.70965C85.4305 7.40278 85.1236 7.15171 84.761 6.98433C84.3983 6.81695 83.9799 6.70536 83.5335 6.64956C83.0872 6.59377 82.6408 6.56588 82.2502 6.56588H79.9906V11.3362ZM75.6107 2.96718H83.0035C84.0357 2.96718 85.012 3.05087 85.9327 3.24615C86.8533 3.44143 87.6623 3.74829 88.3318 4.22254C89.0292 4.66889 89.5593 5.28261 89.9498 6.06373C90.3404 6.84484 90.5636 7.82123 90.5636 8.9929C90.5636 10.1367 90.3683 11.1131 90.0056 11.8942C89.643 12.6753 89.1129 13.289 88.4713 13.7633C87.8018 14.2375 87.0485 14.5723 86.1279 14.7676C85.2352 14.9628 84.2588 15.0744 83.1987 15.0744H79.9906V22.774H75.6107V2.96718ZM99.379 8.71393L96.952 14.8512H101.806L99.379 8.71393ZM97.7052 2.96718H101.332L109.98 22.7461H105.042L103.34 18.5615H95.6129L93.967 22.7461H89.1408L97.7052 2.96718ZM121.111 8.71393L118.684 14.8512H123.538L121.111 8.71393ZM119.437 2.96718H123.064L131.712 22.7461H126.774L125.072 18.5615H117.345L115.699 22.7461H110.873L119.437 2.96718ZM145.437 8.1002C145.019 7.57016 144.489 7.1796 143.847 6.90063C143.205 6.62166 142.48 6.48218 141.671 6.48218C140.862 6.48218 140.081 6.64956 139.383 6.95643C138.686 7.2633 138.072 7.70964 137.542 8.29548C137.04 8.85342 136.622 9.55084 136.343 10.332C136.064 11.1131 135.896 11.95 135.896 12.8706C135.896 13.7912 136.036 14.656 136.343 15.4371C136.622 16.2182 137.04 16.8877 137.542 17.4457C138.044 18.0036 138.63 18.4499 139.328 18.7847C140.025 19.0916 140.75 19.259 141.532 19.259C142.424 19.259 143.233 19.0637 143.931 18.701C144.628 18.3384 145.186 17.8083 145.632 17.1388L149.287 19.8448C148.45 21.0165 147.362 21.8813 146.079 22.4392C144.795 22.9971 143.456 23.2761 142.089 23.2761C140.527 23.2761 139.104 23.025 137.793 22.5508C136.482 22.0765 135.338 21.3791 134.39 20.4585C133.441 19.5658 132.688 18.45 132.158 17.1667C131.628 15.8834 131.349 14.4607 131.349 12.8706C131.349 11.2805 131.628 9.8577 132.158 8.57445C132.688 7.29119 133.441 6.20321 134.39 5.28262C135.338 4.38992 136.482 3.69249 137.793 3.19035C139.104 2.7161 140.527 2.46503 142.089 2.46503C142.647 2.46503 143.233 2.52082 143.847 2.63241C144.461 2.744 145.047 2.91138 145.66 3.13455C146.246 3.35773 146.804 3.6646 147.362 4.02726C147.892 4.38992 148.394 4.86416 148.813 5.3942L145.437 8.1002ZM163.71 8.1002C163.291 7.57016 162.761 7.1796 162.12 6.90063C161.478 6.62166 160.753 6.48218 159.944 6.48218C159.107 6.48218 158.353 6.64956 157.656 6.95643C156.959 7.2633 156.345 7.70964 155.815 8.29548C155.313 8.85342 154.894 9.55084 154.615 10.332C154.336 11.1131 154.169 11.95 154.169 12.8706C154.169 13.7912 154.308 14.656 154.615 15.4371C154.894 16.2182 155.313 16.8877 155.815 17.4457C156.317 18.0036 156.903 18.4499 157.6 18.7847C158.298 19.0916 159.023 19.259 159.804 19.259C160.697 19.259 161.506 19.0637 162.203 18.701C162.901 18.3384 163.459 17.8083 163.905 17.1388L167.559 19.8448C166.723 21.0165 165.635 21.8813 164.351 22.4392C163.068 22.9971 161.729 23.2761 160.362 23.2761C158.8 23.2761 157.377 23.025 156.066 22.5508C154.755 22.0765 153.611 21.3791 152.662 20.4585C151.714 19.5658 150.961 18.45 150.431 17.1667C149.901 15.8834 149.622 14.4607 149.622 12.8706C149.622 11.2805 149.901 9.8577 150.431 8.57445C150.961 7.29119 151.714 6.20321 152.662 5.28262C153.611 4.38992 154.755 3.69249 156.066 3.19035C157.377 2.7161 158.8 2.46503 160.362 2.46503C160.92 2.46503 161.506 2.52082 162.12 2.63241C162.733 2.744 163.319 2.91138 163.933 3.13455C164.519 3.35773 165.077 3.6646 165.635 4.02726C166.165 4.38992 166.667 4.86416 167.085 5.3942L163.71 8.1002Z" fill="#C3C9D0"/>
</svg>
