<svg width="36" height="36" viewBox="0 0 36 36" fill="none" xmlns="http://www.w3.org/2000/svg">
<path d="M30.2913 27.0126V30.3768H26.9271V35.6775H24.6325V30.3768H21.7407V35.6775H19.4461V30.3768H16.5542V35.6775H14.2596V30.3768H11.3678V35.6775H9.07318V30.3768H5.70894V27.0126H0.408203V24.718H5.70894V21.8261H0.408203V19.5315H5.70894V16.6397H0.408203V14.3451H5.70894V11.4532H0.408203V9.15863H5.70894V5.79445H9.07312V0.493652H11.3677V5.79439H14.2596V0.493652H16.5541V5.79439H19.446V0.493652H21.7406V5.79439H24.6325V0.493652H26.9271V5.79439H30.2912V9.15857H35.592V11.4531H30.2913V14.345H35.592V16.6396H30.2913V19.5315H35.592V21.8261H30.2913V24.7179H35.592V27.0124H30.2913V27.0126ZM26.2307 16.2667C26.2307 14.6775 25.2514 13.3136 23.8649 12.7446C23.7701 10.8942 22.2348 9.41791 20.3612 9.41791C19.4527 9.41791 18.6238 9.76507 18.0001 10.3336C17.3763 9.76507 16.5474 9.41791 15.6389 9.41791C13.7653 9.41791 12.23 10.8942 12.1352 12.7446C10.7487 13.3136 9.76937 14.6776 9.76937 16.2667C9.76937 16.9103 9.93093 17.533 10.2327 18.0862C9.93746 18.6268 9.76937 19.2464 9.76937 19.9044C9.76937 21.479 10.7448 22.8526 12.1351 23.4255C12.2294 25.2764 13.7649 26.7532 15.6388 26.7532C16.5473 26.7532 17.3762 26.4061 18 25.8376C18.6237 26.4061 19.4526 26.7532 20.3612 26.7532C22.2351 26.7532 23.7706 25.2764 23.8649 23.4255C25.2553 22.8526 26.2306 21.479 26.2306 19.9044C26.2306 19.2463 26.0626 18.6267 25.7673 18.0862C26.0692 17.5329 26.2307 16.9102 26.2307 16.2667Z" fill="white"/>
<path d="M15.639 24.459C14.9698 24.459 14.4252 23.9145 14.4252 23.2451C14.4252 22.7416 14.7417 22.2846 15.2128 22.1079L14.4069 19.9595C13.7463 20.2073 13.1914 20.6461 12.7946 21.1979C12.3562 20.9313 12.064 20.4481 12.064 19.9048C12.064 19.0715 12.742 18.3935 13.5753 18.3935V16.0989C13.0411 16.0989 12.5326 16.21 12.0707 16.4096C12.0662 16.3624 12.064 16.3148 12.064 16.2669C12.064 15.4336 12.7419 14.7557 13.5752 14.7557C14.0075 14.7557 14.4054 14.9323 14.6959 15.253L16.3966 13.7125C15.8823 13.1447 15.2107 12.751 14.4784 12.5715C14.6306 12.0749 15.0932 11.7127 15.639 11.7127C16.3083 11.7127 16.8528 12.2573 16.8528 12.9266V23.2451C16.8529 23.9145 16.3084 24.459 15.639 24.459Z" fill="white"/>
<path d="M22.425 16.0989V18.3935C23.2583 18.3935 23.9363 19.0715 23.9363 19.9048C23.9363 20.4482 23.6442 20.9314 23.2058 21.1979C22.809 20.646 22.254 20.2073 21.5934 19.9595L20.7876 22.1079C21.2586 22.2846 21.5751 22.7416 21.5751 23.2451C21.5751 23.9145 21.0306 24.459 20.3613 24.459C19.692 24.459 19.1475 23.9145 19.1475 23.2451V12.9267C19.1475 12.2573 19.692 11.7128 20.3613 11.7128C20.9071 11.7128 21.3696 12.075 21.5219 12.5716C20.7896 12.7511 20.118 13.1448 19.6037 13.7126L21.3044 15.2531C21.5948 14.9323 21.9928 14.7557 22.425 14.7557C23.2583 14.7557 23.9363 15.4337 23.9363 16.267C23.9363 16.3149 23.934 16.3624 23.9296 16.4096C23.4677 16.2101 22.9591 16.0989 22.425 16.0989Z" fill="white"/>
</svg>
