<svg width="30" height="28" viewBox="0 0 30 28" fill="none" xmlns="http://www.w3.org/2000/svg">
<path d="M28.4867 26.974C28.7241 26.974 28.9487 26.8671 29.0982 26.6826C29.2477 26.4981 29.306 26.2562 29.257 26.024L28.7612 23.6778C29.0436 23.4046 29.2211 23.0233 29.2211 22.5992C29.2211 22.1529 29.0222 21.7569 28.7137 21.4819V13.3343L26.7263 14.5642V21.4819C26.4177 21.7569 26.2188 22.1529 26.2188 22.5992C26.2188 23.0233 26.3964 23.4047 26.6787 23.6778L26.1829 26.024C26.1338 26.2562 26.1922 26.4982 26.3416 26.6826C26.4911 26.867 26.7157 26.974 26.9532 26.974H28.4867ZM29.1603 8.57994L16.2312 0.576402C15.8525 0.343161 15.4257 0.226074 14.9988 0.226074C14.572 0.226074 14.1448 0.343063 13.7685 0.576402L0.839102 8.57994C0.493862 8.79356 0.28418 9.17087 0.28418 9.57694C0.28418 9.98309 0.493861 10.3605 0.839102 10.5745L13.7684 18.5781C14.1447 18.8116 14.5719 18.9284 14.9988 18.9284C15.4256 18.9284 15.8525 18.8114 16.2311 18.5781L29.1603 10.5745C29.5056 10.3606 29.7153 9.98309 29.7153 9.57694C29.7153 9.17087 29.5056 8.79344 29.1603 8.57994ZM14.9988 20.9157C14.1934 20.9157 13.4073 20.692 12.7222 20.268L5.18044 15.599V23.6385C5.18044 26.0179 9.57832 27.944 14.9988 27.944C20.4211 27.944 24.8186 26.0179 24.8186 23.6385V15.599L17.2772 20.268C16.5921 20.692 15.8041 20.9157 14.9988 20.9157Z" fill="white"/>
</svg>
