<svg width="153" height="53" viewBox="0 0 153 53" fill="none" xmlns="http://www.w3.org/2000/svg">
<path d="M43.95 30.333C43.6918 30.023 43.3301 29.8171 42.9317 29.7534C42.5333 29.6896 42.1254 29.7724 41.7834 29.9864L26.6167 41.123V41.5997C26.8355 41.5738 27.0574 41.5945 27.2676 41.6605C27.4778 41.7265 27.6717 41.8363 27.8364 41.9827C28.0011 42.129 28.133 42.3086 28.2233 42.5097C28.3135 42.7107 28.3602 42.9285 28.3602 43.1489C28.3602 43.3692 28.3135 43.5871 28.2233 43.7881C28.133 43.9891 28.0011 44.1687 27.8364 44.315C27.6717 44.4614 27.4778 44.5712 27.2676 44.6372C27.0574 44.7032 26.8355 44.7239 26.6167 44.698C26.9686 44.6996 27.3112 44.5854 27.5917 44.373L43.6467 32.5214C43.9595 32.2591 44.1638 31.89 44.2198 31.4856C44.2759 31.0813 44.1797 30.6705 43.95 30.333Z" fill="#669DF6"/>
<path d="M26.6166 44.699C26.2373 44.6541 25.8877 44.4716 25.634 44.186C25.3803 43.9005 25.2402 43.5318 25.2402 43.1499C25.2402 42.7679 25.3803 42.3992 25.634 42.1137C25.8877 41.8282 26.2373 41.6456 26.6166 41.6007V41.124L11.45 29.9874C11.1093 29.7688 10.7001 29.6833 10.3005 29.7472C9.90083 29.8112 9.53873 30.0201 9.2833 30.334C9.05486 30.6716 8.96356 31.0835 9.02795 31.486C9.09235 31.8884 9.30761 32.2513 9.62997 32.5007L25.685 44.3524C25.9588 44.5617 26.2936 44.6758 26.6383 44.6774L26.6166 44.699Z" fill="#AECBFA"/>
<path d="M26.6166 39.9746C25.9867 39.9746 25.3709 40.1614 24.8472 40.5114C24.3234 40.8614 23.9152 41.3588 23.6741 41.9408C23.433 42.5227 23.3699 43.1631 23.4928 43.781C23.6157 44.3988 23.9191 44.9663 24.3645 45.4117C24.8099 45.8572 25.3774 46.1605 25.9953 46.2834C26.6131 46.4063 27.2535 46.3432 27.8355 46.1022C28.4175 45.8611 28.9149 45.4529 29.2649 44.9291C29.6148 44.4053 29.8016 43.7895 29.8016 43.1596C29.8016 42.3149 29.4661 41.5048 28.8688 40.9075C28.2715 40.3102 27.4614 39.9746 26.6166 39.9746ZM26.6166 44.6979C26.3072 44.6979 26.0047 44.6058 25.7477 44.4335C25.4908 44.2611 25.2908 44.0161 25.1734 43.7298C25.056 43.4435 25.0264 43.1287 25.0884 42.8255C25.1504 42.5224 25.3011 42.2445 25.5214 42.0272C25.7418 41.8099 26.0218 41.663 26.3258 41.6053C26.6298 41.5476 26.9441 41.5816 27.2288 41.703C27.5134 41.8244 27.7555 42.0277 27.9243 42.2871C28.0931 42.5465 28.1809 42.8502 28.1766 43.1596C28.1767 43.3635 28.1362 43.5653 28.0575 43.7534C27.9788 43.9414 27.8636 44.112 27.7184 44.2551C27.5733 44.3982 27.4011 44.5111 27.212 44.5871C27.0228 44.6631 26.8205 44.7008 26.6166 44.6979Z" fill="#4285F4"/>
<path d="M13.6168 13.4769C13.1876 13.4713 12.7775 13.2983 12.4739 12.9948C12.1704 12.6912 11.9974 12.2812 11.9918 11.8519V7.7786C11.9652 7.54797 11.9877 7.31433 12.0578 7.093C12.1278 6.87167 12.2439 6.66766 12.3984 6.49435C12.5529 6.32105 12.7422 6.18237 12.9541 6.08741C13.1659 5.99245 13.3955 5.94336 13.6276 5.94336C13.8598 5.94336 14.0893 5.99245 14.3012 6.08741C14.513 6.18237 14.7024 6.32105 14.8569 6.49435C15.0113 6.66766 15.1274 6.87167 15.1975 7.093C15.2676 7.31433 15.29 7.54797 15.2635 7.7786V11.8519C15.2578 12.2849 15.0818 12.6982 14.7736 13.0023C14.4654 13.3065 14.0498 13.477 13.6168 13.4769Z" fill="#AECBFA"/>
<path d="M13.5734 27.8851C14.4829 27.8851 15.2201 27.1479 15.2201 26.2385C15.2201 25.329 14.4829 24.5918 13.5734 24.5918C12.664 24.5918 11.9268 25.329 11.9268 26.2385C11.9268 27.1479 12.664 27.8851 13.5734 27.8851Z" fill="#AECBFA"/>
<path d="M13.5734 23.0961C14.4829 23.0961 15.2201 22.3588 15.2201 21.4494C15.2201 20.54 14.4829 19.8027 13.5734 19.8027C12.664 19.8027 11.9268 20.54 11.9268 21.4494C11.9268 22.3588 12.664 23.0961 13.5734 23.0961Z" fill="#AECBFA"/>
<path d="M13.5734 18.2875C14.4829 18.2875 15.2201 17.5502 15.2201 16.6408C15.2201 15.7314 14.4829 14.9941 13.5734 14.9941C12.664 14.9941 11.9268 15.7314 11.9268 16.6408C11.9268 17.5502 12.664 18.2875 13.5734 18.2875Z" fill="#AECBFA"/>
<path d="M39.6167 18.2434C39.1837 18.2377 38.7704 18.0617 38.4663 17.7535C38.1622 17.4454 37.9917 17.0298 37.9917 16.5968V12.5234C37.9917 12.0925 38.1629 11.6791 38.4676 11.3744C38.7724 11.0696 39.1857 10.8984 39.6167 10.8984C40.0477 10.8984 40.461 11.0696 40.7657 11.3744C41.0705 11.6791 41.2417 12.0925 41.2417 12.5234V16.5968C41.2446 16.812 41.2047 17.0256 41.1243 17.2253C41.0439 17.4249 40.9247 17.6067 40.7735 17.7599C40.6223 17.913 40.4422 18.0347 40.2436 18.1177C40.045 18.2007 39.8319 18.2435 39.6167 18.2434Z" fill="#4285F4"/>
<path d="M39.6601 27.9066C40.5695 27.9066 41.3068 27.1694 41.3068 26.2599C41.3068 25.3505 40.5695 24.6133 39.6601 24.6133C38.7507 24.6133 38.0134 25.3505 38.0134 26.2599C38.0134 27.1694 38.7507 27.9066 39.6601 27.9066Z" fill="#4285F4"/>
<path d="M39.6601 23.0316C40.5695 23.0316 41.3068 22.2944 41.3068 21.3849C41.3068 20.4755 40.5695 19.7383 39.6601 19.7383C38.7507 19.7383 38.0134 20.4755 38.0134 21.3849C38.0134 22.2944 38.7507 23.0316 39.6601 23.0316Z" fill="#4285F4"/>
<path d="M39.6601 9.42419C40.5695 9.42419 41.3068 8.68695 41.3068 7.77753C41.3068 6.8681 40.5695 6.13086 39.6601 6.13086C38.7507 6.13086 38.0134 6.8681 38.0134 7.77753C38.0134 8.68695 38.7507 9.42419 39.6601 9.42419Z" fill="#4285F4"/>
<path d="M26.6167 32.739C26.1875 32.7334 25.7774 32.5604 25.4739 32.2568C25.1703 31.9533 24.9973 31.5432 24.9917 31.114V26.9757C25.038 26.5743 25.2302 26.2039 25.5319 25.935C25.8335 25.6661 26.2235 25.5176 26.6275 25.5176C27.0316 25.5176 27.4216 25.6661 27.7232 25.935C28.0248 26.2039 28.2171 26.5743 28.2634 26.9757V31.0707C28.2662 31.2887 28.2258 31.5052 28.1443 31.7075C28.0628 31.9098 27.942 32.0939 27.7888 32.2491C27.6356 32.4043 27.4531 32.5275 27.2519 32.6116C27.0507 32.6957 26.8348 32.739 26.6167 32.739Z" fill="#669DF6"/>
<path d="M26.6166 37.5258C27.5261 37.5258 28.2633 36.7885 28.2633 35.8791C28.2633 34.9697 27.5261 34.2324 26.6166 34.2324C25.7072 34.2324 24.97 34.9697 24.97 35.8791C24.97 36.7885 25.7072 37.5258 26.6166 37.5258Z" fill="#669DF6"/>
<path d="M26.6166 23.8558C27.5261 23.8558 28.2633 23.1186 28.2633 22.2092C28.2633 21.2997 27.5261 20.5625 26.6166 20.5625C25.7072 20.5625 24.97 21.2997 24.97 22.2092C24.97 23.1186 25.7072 23.8558 26.6166 23.8558Z" fill="#669DF6"/>
<path d="M26.6166 19.0453C27.5261 19.0453 28.2633 18.308 28.2633 17.3986C28.2633 16.4892 27.5261 15.752 26.6166 15.752C25.7072 15.752 24.97 16.4892 24.97 17.3986C24.97 18.308 25.7072 19.0453 26.6166 19.0453Z" fill="#669DF6"/>
<path d="M33.1168 23.0746C32.6876 23.069 32.2775 22.896 31.9739 22.5924C31.6704 22.2889 31.4974 21.8788 31.4918 21.4496V17.3763C31.4652 17.1456 31.4877 16.912 31.5578 16.6907C31.6278 16.4693 31.7439 16.2653 31.8984 16.092C32.0529 15.9187 32.2422 15.78 32.4541 15.6851C32.6659 15.5901 32.8955 15.541 33.1276 15.541C33.3598 15.541 33.5893 15.5901 33.8012 15.6851C34.013 15.78 34.2024 15.9187 34.3569 16.092C34.5113 16.2653 34.6274 16.4693 34.6975 16.6907C34.7676 16.912 34.79 17.1456 34.7635 17.3763V21.4496C34.7578 21.8825 34.5818 22.2958 34.2736 22.6C33.9654 22.9041 33.5498 23.0746 33.1168 23.0746Z" fill="#4285F4"/>
<path d="M33.1384 14.2133C34.0478 14.2133 34.785 13.476 34.785 12.5666C34.785 11.6572 34.0478 10.9199 33.1384 10.9199C32.2289 10.9199 31.4917 11.6572 31.4917 12.5666C31.4917 13.476 32.2289 14.2133 33.1384 14.2133Z" fill="#4285F4"/>
<path d="M33.1384 32.6293C34.0478 32.6293 34.785 31.892 34.785 30.9826C34.785 30.0732 34.0478 29.3359 33.1384 29.3359C32.2289 29.3359 31.4917 30.0732 31.4917 30.9826C31.4917 31.892 32.2289 32.6293 33.1384 32.6293Z" fill="#4285F4"/>
<path d="M33.1384 27.8207C34.0478 27.8207 34.785 27.0834 34.785 26.174C34.785 25.2646 34.0478 24.5273 33.1384 24.5273C32.2289 24.5273 31.4917 25.2646 31.4917 26.174C31.4917 27.0834 32.2289 27.8207 33.1384 27.8207Z" fill="#4285F4"/>
<path d="M20.0949 32.6293C21.0043 32.6293 21.7416 31.892 21.7416 30.9826C21.7416 30.0732 21.0043 29.3359 20.0949 29.3359C19.1855 29.3359 18.4482 30.0732 18.4482 30.9826C18.4482 31.892 19.1855 32.6293 20.0949 32.6293Z" fill="#AECBFA"/>
<path d="M20.0949 19.0453C21.0043 19.0453 21.7416 18.308 21.7416 17.3986C21.7416 16.4892 21.0043 15.752 20.0949 15.752C19.1855 15.752 18.4482 16.4892 18.4482 17.3986C18.4482 18.308 19.1855 19.0453 20.0949 19.0453Z" fill="#AECBFA"/>
<path d="M20.0949 14.2133C21.0043 14.2133 21.7416 13.476 21.7416 12.5666C21.7416 11.6572 21.0043 10.9199 20.0949 10.9199C19.1855 10.9199 18.4482 11.6572 18.4482 12.5666C18.4482 13.476 19.1855 14.2133 20.0949 14.2133Z" fill="#AECBFA"/>
<path d="M20.1166 27.8194C19.6909 27.8198 19.2817 27.6552 18.9747 27.3603C18.6677 27.0654 18.4868 26.6631 18.47 26.2378V22.1211C18.47 21.6901 18.6412 21.2768 18.9459 20.972C19.2507 20.6673 19.664 20.4961 20.095 20.4961C20.5259 20.4961 20.9393 20.6673 21.244 20.972C21.5488 21.2768 21.72 21.6901 21.72 22.1211V26.2378C21.7088 26.6575 21.5356 27.0566 21.2368 27.3514C20.9379 27.6463 20.5365 27.814 20.1166 27.8194Z" fill="#AECBFA"/>
<path d="M68.764 17.0444L72.5495 28.4933H72.6986L76.4771 17.0444H79.3748L74.2469 31.5898H70.9941L65.8734 17.0444H68.764ZM84.8347 31.8029C83.7409 31.8029 82.7963 31.5756 82.0008 31.1211C81.2101 30.6618 80.6017 30.0131 80.1756 29.1751C79.7494 28.3323 79.5364 27.3403 79.5364 26.1992C79.5364 25.0771 79.7494 24.0922 80.1756 23.2447C80.6064 22.3924 81.2078 21.7295 81.9795 21.256C82.7513 20.7778 83.658 20.5387 84.6997 20.5387C85.3721 20.5387 86.0065 20.6476 86.6031 20.8654C87.2044 21.0785 87.7347 21.4099 88.194 21.8597C88.658 22.3095 89.0226 22.8825 89.2878 23.5785C89.5529 24.2698 89.6855 25.0936 89.6855 26.0501V26.8384H80.7437V25.1055H87.221C87.2163 24.613 87.1097 24.1751 86.9014 23.7915C86.6931 23.4033 86.4019 23.0979 86.0278 22.8754C85.6585 22.6528 85.2276 22.5415 84.7352 22.5415C84.2097 22.5415 83.748 22.6694 83.3503 22.9251C82.9525 23.176 82.6424 23.5075 82.4199 23.9194C82.2021 24.3266 82.0908 24.774 82.0861 25.2617V26.7745C82.0861 27.409 82.2021 27.9535 82.4341 28.408C82.6661 28.8578 82.9904 29.2035 83.4071 29.445C83.8238 29.6817 84.3114 29.8001 84.8702 29.8001C85.2442 29.8001 85.5828 29.748 85.8858 29.6438C86.1888 29.5349 86.4516 29.3763 86.6741 29.168C86.8967 28.9596 87.0648 28.7016 87.1784 28.3938L89.579 28.6637C89.4275 29.2982 89.1386 29.8522 88.7125 30.3256C88.2911 30.7944 87.7513 31.159 87.0932 31.4194C86.435 31.6751 85.6822 31.8029 84.8347 31.8029ZM91.8606 31.5898V20.6808H94.3535V22.4989H94.4671C94.666 21.8692 95.0069 21.3839 95.4898 21.043C95.9775 20.6973 96.5339 20.5245 97.1589 20.5245C97.3009 20.5245 97.4595 20.5316 97.6347 20.5458C97.8146 20.5553 97.9638 20.5719 98.0822 20.5955V22.9606C97.9733 22.9227 97.8004 22.8896 97.5637 22.8612C97.3317 22.828 97.1068 22.8114 96.889 22.8114C96.4202 22.8114 95.9988 22.9132 95.6248 23.1168C95.2555 23.3157 94.9643 23.5927 94.7512 23.9478C94.5381 24.3029 94.4316 24.7125 94.4316 25.1765V31.5898H91.8606ZM105.824 20.6808V22.6694H99.5523V20.6808H105.824ZM101.101 18.0671H103.672V28.3086C103.672 28.6542 103.724 28.9194 103.828 29.104C103.937 29.284 104.079 29.4071 104.254 29.4734C104.429 29.5397 104.623 29.5728 104.836 29.5728C104.997 29.5728 105.144 29.561 105.277 29.5373C105.414 29.5136 105.518 29.4923 105.589 29.4734L106.023 31.4833C105.885 31.5307 105.689 31.5827 105.433 31.6396C105.182 31.6964 104.874 31.7295 104.51 31.739C103.866 31.7579 103.286 31.6609 102.77 31.4478C102.254 31.23 101.844 30.8938 101.541 30.4393C101.243 29.9847 101.096 29.4165 101.101 28.7347V18.0671ZM112.686 31.8029C111.592 31.8029 110.648 31.5756 109.852 31.1211C109.062 30.6618 108.453 30.0131 108.027 29.1751C107.601 28.3323 107.388 27.3403 107.388 26.1992C107.388 25.0771 107.601 24.0922 108.027 23.2447C108.458 22.3924 109.059 21.7295 109.831 21.256C110.603 20.7778 111.51 20.5387 112.551 20.5387C113.224 20.5387 113.858 20.6476 114.455 20.8654C115.056 21.0785 115.586 21.4099 116.046 21.8597C116.51 22.3095 116.874 22.8825 117.139 23.5785C117.404 24.2698 117.537 25.0936 117.537 26.0501V26.8384H108.595V25.1055H115.073C115.068 24.613 114.961 24.1751 114.753 23.7915C114.545 23.4033 114.253 23.0979 113.879 22.8754C113.51 22.6528 113.079 22.5415 112.587 22.5415C112.061 22.5415 111.6 22.6694 111.202 22.9251C110.804 23.176 110.494 23.5075 110.271 23.9194C110.054 24.3266 109.942 24.774 109.938 25.2617V26.7745C109.938 27.409 110.054 27.9535 110.286 28.408C110.518 28.8578 110.842 29.2035 111.259 29.445C111.675 29.6817 112.163 29.8001 112.722 29.8001C113.096 29.8001 113.434 29.748 113.737 29.6438C114.04 29.5349 114.303 29.3763 114.526 29.168C114.748 28.9596 114.916 28.7016 115.03 28.3938L117.431 28.6637C117.279 29.2982 116.99 29.8522 116.564 30.3256C116.143 30.7944 115.603 31.159 114.945 31.4194C114.287 31.6751 113.534 31.8029 112.686 31.8029ZM121.58 20.6808L123.782 24.7077L126.019 20.6808H128.739L125.451 26.1353L128.796 31.5898H126.09L123.782 27.6623L121.495 31.5898H118.768L122.091 26.1353L118.853 20.6808H121.58ZM137.67 31.5898H134.858L139.978 17.0444H143.231L148.359 31.5898H145.547L141.662 20.0273H141.548L137.67 31.5898ZM137.763 25.8867H145.433V28.0032H137.763V25.8867ZM152.91 17.0444V31.5898H150.275V17.0444H152.91Z" fill="white"/>
</svg>
