<svg width="131" height="33" viewBox="0 0 131 33" fill="none" xmlns="http://www.w3.org/2000/svg">
<path d="M13.3135 26.0204C15.2483 26.0204 16.7739 27.5831 16.7739 29.4808C16.7739 31.3785 15.2111 32.9413 13.3135 32.9413C11.3786 32.9413 9.85302 31.3785 9.85302 29.4808C9.85302 27.5831 11.3786 26.0204 13.3135 26.0204ZM31.2483 26.0204C33.1832 26.0204 34.7087 27.5831 34.7087 29.4808C34.7087 31.3785 33.1459 32.9413 31.2483 32.9413C29.3506 32.9413 27.7878 31.3785 27.7878 29.4808C27.7878 27.5831 29.3134 26.0204 31.2483 26.0204ZM4.27165 0.941406C6.20652 0.941406 7.7321 2.50419 7.7321 4.40185C7.7321 6.29952 6.16932 7.8623 4.27165 7.8623C2.33677 7.8623 0.811198 6.29952 0.811198 4.40185C0.773989 2.46698 2.33677 0.941406 4.27165 0.941406ZM22.2809 0.941406C24.2157 0.941406 25.7413 2.50419 25.7413 4.40185C25.7413 6.29952 24.1785 7.8623 22.2809 7.8623C20.346 7.8623 18.8204 6.29952 18.8204 4.40185C18.7832 2.46698 20.346 0.941406 22.2809 0.941406ZM40.2901 0.941406C42.225 0.941406 43.7505 2.50419 43.7505 4.40185C43.7505 6.29952 42.1878 7.8623 40.2901 7.8623C38.3552 7.8623 36.8297 6.29952 36.8297 4.40185C36.8297 2.46698 38.3924 0.941406 40.2901 0.941406Z" fill="white"/>
<path d="M54.3073 23.9414L50.2021 9.39595H53.036L55.6567 20.0849H55.7916L58.5899 9.39595H61.1681L63.9735 20.092H64.1013L66.722 9.39595H69.5558L65.4507 23.9414H62.8513L59.9394 13.7354H59.8257L56.9067 23.9414H54.3073ZM73.8403 17.5494V23.9414H71.2693V9.39595H73.7835V14.886H73.9113C74.167 14.2705 74.5624 13.7852 75.0974 13.43C75.6372 13.0702 76.3237 12.8903 77.157 12.8903C77.9146 12.8903 78.5751 13.0489 79.1386 13.3661C79.702 13.6834 80.1376 14.1474 80.4454 14.7582C80.7579 15.369 80.9142 16.1147 80.9142 16.9954V23.9414H78.3431V17.3931C78.3431 16.6592 78.1537 16.0887 77.7749 15.6815C77.4009 15.2695 76.8753 15.0636 76.1982 15.0636C75.7437 15.0636 75.3365 15.163 74.9767 15.3619C74.6215 15.556 74.3422 15.8377 74.1386 16.207C73.9397 16.5763 73.8403 17.0238 73.8403 17.5494ZM83.5349 23.9414V13.0323H86.1059V23.9414H83.5349ZM84.8275 11.484C84.4203 11.484 84.0699 11.3491 83.7764 11.0792C83.4828 10.8046 83.336 10.4755 83.336 10.092C83.336 9.70372 83.4828 9.37464 83.7764 9.10476C84.0699 8.83014 84.4203 8.69283 84.8275 8.69283C85.2394 8.69283 85.5898 8.83014 85.8786 9.10476C86.1722 9.37464 86.319 9.70372 86.319 10.092C86.319 10.4755 86.1722 10.8046 85.8786 11.0792C85.5898 11.3491 85.2394 11.484 84.8275 11.484ZM97.3719 15.9158L95.0281 16.1715C94.9619 15.9348 94.8459 15.7122 94.6801 15.5039C94.5191 15.2956 94.3013 15.1275 94.0267 14.9996C93.7521 14.8718 93.4159 14.8079 93.0182 14.8079C92.4832 14.8079 92.0334 14.9239 91.6688 15.1559C91.3089 15.3879 91.1314 15.6886 91.1361 16.0579C91.1314 16.3751 91.2474 16.6332 91.4841 16.832C91.7256 17.0309 92.1233 17.1942 92.6773 17.3221L94.5381 17.7198C95.5703 17.9424 96.3373 18.2951 96.8392 18.7781C97.3459 19.261 97.6015 19.8931 97.6063 20.6744C97.6015 21.3609 97.4003 21.967 97.0026 22.4925C96.6096 23.0134 96.0627 23.4206 95.3619 23.7141C94.6612 24.0077 93.8563 24.1545 92.9472 24.1545C91.6119 24.1545 90.5371 23.8751 89.7227 23.3164C88.9084 22.753 88.423 21.9693 88.2668 20.9656L90.7739 20.7241C90.8875 21.2165 91.129 21.5882 91.4983 21.8391C91.8676 22.0901 92.3482 22.2156 92.9401 22.2156C93.5509 22.2156 94.0409 22.0901 94.4102 21.8391C94.7843 21.5882 94.9713 21.2781 94.9713 20.9087C94.9713 20.5962 94.8506 20.3382 94.6091 20.1346C94.3724 19.931 94.003 19.7747 93.5012 19.6658L91.6404 19.2752C90.594 19.0574 89.8198 18.6905 89.3179 18.1744C88.816 17.6535 88.5674 16.9954 88.5722 16.1999C88.5674 15.5276 88.7497 14.9452 89.1191 14.4528C89.4931 13.9556 90.0116 13.5721 90.6744 13.3022C91.3421 13.0276 92.1115 12.8903 92.9827 12.8903C94.2611 12.8903 95.2673 13.1625 96.0012 13.707C96.7398 14.2515 97.1967 14.9878 97.3719 15.9158ZM99.7263 28.0323V13.0323H102.255V14.8363H102.404C102.536 14.5711 102.723 14.2894 102.965 13.9911C103.206 13.6881 103.533 13.43 103.945 13.217C104.357 12.9992 104.883 12.8903 105.522 12.8903C106.365 12.8903 107.124 13.1057 107.802 13.5366C108.483 13.9627 109.023 14.5948 109.421 15.4329C109.823 16.2662 110.025 17.2889 110.025 18.5011C110.025 19.699 109.828 20.717 109.435 21.555C109.042 22.3931 108.507 23.0323 107.83 23.4727C107.153 23.913 106.386 24.1332 105.529 24.1332C104.904 24.1332 104.385 24.029 103.973 23.8207C103.562 23.6123 103.23 23.3614 102.979 23.0678C102.733 22.7695 102.541 22.4878 102.404 22.2227H102.297V28.0323H99.7263ZM102.248 18.4869C102.248 19.1924 102.347 19.8103 102.546 20.3406C102.749 20.8709 103.041 21.2852 103.419 21.5835C103.803 21.877 104.267 22.0238 104.812 22.0238C105.38 22.0238 105.856 21.8723 106.239 21.5692C106.623 21.2615 106.911 20.8424 107.106 20.3121C107.304 19.7771 107.404 19.1687 107.404 18.4869C107.404 17.8098 107.307 17.2085 107.113 16.6829C106.919 16.1573 106.63 15.7454 106.246 15.4471C105.863 15.1488 105.384 14.9996 104.812 14.9996C104.262 14.9996 103.796 15.1441 103.412 15.4329C103.029 15.7217 102.738 16.1265 102.539 16.6474C102.345 17.1682 102.248 17.7814 102.248 18.4869ZM117.056 24.1545C115.962 24.1545 115.017 23.9272 114.222 23.4727C113.431 23.0134 112.823 22.3647 112.397 21.5266C111.971 20.6838 111.758 19.6919 111.758 18.5508C111.758 17.4286 111.971 16.4438 112.397 15.5962C112.828 14.744 113.429 14.0811 114.201 13.6076C114.973 13.1294 115.879 12.8903 116.921 12.8903C117.593 12.8903 118.228 12.9992 118.824 13.217C119.426 13.43 119.956 13.7615 120.415 14.2113C120.879 14.6611 121.244 15.234 121.509 15.93C121.774 16.6213 121.907 17.4452 121.907 18.4016V19.19H112.965V17.457H119.442C119.437 16.9646 119.331 16.5266 119.123 16.1431C118.914 15.7549 118.623 15.4495 118.249 15.2269C117.88 15.0044 117.449 14.8931 116.956 14.8931C116.431 14.8931 115.969 15.021 115.571 15.2766C115.174 15.5276 114.864 15.859 114.641 16.271C114.423 16.6781 114.312 17.1256 114.307 17.6133V19.1261C114.307 19.7605 114.423 20.305 114.655 20.7596C114.887 21.2094 115.212 21.555 115.628 21.7965C116.045 22.0333 116.533 22.1516 117.091 22.1516C117.465 22.1516 117.804 22.0996 118.107 21.9954C118.41 21.8865 118.673 21.7279 118.895 21.5195C119.118 21.3112 119.286 21.0531 119.4 20.7454L121.8 21.0153C121.649 21.6497 121.36 22.2037 120.934 22.6772C120.512 23.146 119.973 23.5105 119.314 23.771C118.656 24.0266 117.903 24.1545 117.056 24.1545ZM124.082 23.9414V13.0323H126.575V14.8505H126.688C126.887 14.2208 127.228 13.7354 127.711 13.3945C128.199 13.0489 128.755 12.8761 129.38 12.8761C129.522 12.8761 129.681 12.8832 129.856 12.8974C130.036 12.9068 130.185 12.9234 130.303 12.9471V15.3121C130.194 15.2743 130.022 15.2411 129.785 15.2127C129.553 15.1796 129.328 15.163 129.11 15.163C128.641 15.163 128.22 15.2648 127.846 15.4684C127.477 15.6673 127.185 15.9442 126.972 16.2994C126.759 16.6545 126.653 17.064 126.653 17.5281V23.9414H124.082Z" fill="white"/>
</svg>
