<svg width="116" height="46" viewBox="0 0 116 46" fill="none" xmlns="http://www.w3.org/2000/svg">
<path d="M27.5939 13.1447L27.5901 19.4203C27.6147 27.9846 20.682 34.9715 12.211 34.9584C8.84615 34.9519 5.78297 33.9189 3.30005 32.1127C7.75593 40.1827 16.2983 45.6348 26.0088 45.644C40.1157 45.6365 51.7724 34.0659 51.9894 19.8384L51.9865 19.7791C51.9992 19.4512 51.9842 13.3848 51.9999 13.1163C51.9796 6.366 46.5014 0.816741 39.8028 0.832063C33.073 0.819229 27.5704 6.33506 27.5939 13.1447Z" fill="url(#paint0_linear_1790_4522)"/>
<path d="M12.1967 7.14648C5.47158 7.14648 0 12.6604 0 19.4378C0 26.2146 5.47158 31.7284 12.1967 31.7284C18.9222 31.7284 24.3934 26.2146 24.3934 19.4378C24.3934 12.6604 18.9222 7.14648 12.1967 7.14648Z" fill="#0B23A9"/>
<path d="M61.4403 19.9897H64.4162L67.9744 26.4244H68.1165L71.6747 19.9897H74.6506L69.3594 29.109V34.5352H66.7315V29.109L61.4403 19.9897ZM88.6935 27.2624C88.6935 28.8297 88.4 30.172 87.8129 31.2894C87.2305 32.4021 86.435 33.2544 85.4265 33.8462C84.4227 34.4381 83.284 34.734 82.0103 34.734C80.7366 34.734 79.5955 34.4381 78.587 33.8462C77.5832 33.2496 76.7878 32.395 76.2006 31.2823C75.6183 30.1649 75.3271 28.8249 75.3271 27.2624C75.3271 25.6952 75.6183 24.3552 76.2006 23.2425C76.7878 22.1251 77.5832 21.2705 78.587 20.6786C79.5955 20.0868 80.7366 19.7908 82.0103 19.7908C83.284 19.7908 84.4227 20.0868 85.4265 20.6786C86.435 21.2705 87.2305 22.1251 87.8129 23.2425C88.4 24.3552 88.6935 25.6952 88.6935 27.2624ZM86.0444 27.2624C86.0444 26.1592 85.8716 25.2288 85.5259 24.4712C85.185 23.7089 84.7115 23.1336 84.1055 22.7454C83.4994 22.3524 82.801 22.1559 82.0103 22.1559C81.2196 22.1559 80.5212 22.3524 79.9151 22.7454C79.3091 23.1336 78.8332 23.7089 78.4876 24.4712C78.1467 25.2288 77.9762 26.1592 77.9762 27.2624C77.9762 28.3656 78.1467 29.2984 78.4876 30.0607C78.8332 30.8183 79.3091 31.3936 79.9151 31.7866C80.5212 32.1748 81.2196 32.369 82.0103 32.369C82.801 32.369 83.4994 32.1748 84.1055 31.7866C84.7115 31.3936 85.185 30.8183 85.5259 30.0607C85.8716 29.2984 86.0444 28.3656 86.0444 27.2624ZM91.1847 34.5352V19.9897H93.8196V32.3263H100.226V34.5352H91.1847ZM114.944 27.2624C114.944 28.8297 114.65 30.172 114.063 31.2894C113.48 32.4021 112.685 33.2544 111.676 33.8462C110.673 34.4381 109.534 34.734 108.26 34.734C106.987 34.734 105.846 34.4381 104.837 33.8462C103.833 33.2496 103.038 32.395 102.451 31.2823C101.868 30.1649 101.577 28.8249 101.577 27.2624C101.577 25.6952 101.868 24.3552 102.451 23.2425C103.038 22.1251 103.833 21.2705 104.837 20.6786C105.846 20.0868 106.987 19.7908 108.26 19.7908C109.534 19.7908 110.673 20.0868 111.676 20.6786C112.685 21.2705 113.48 22.1251 114.063 23.2425C114.65 24.3552 114.944 25.6952 114.944 27.2624ZM112.294 27.2624C112.294 26.1592 112.122 25.2288 111.776 24.4712C111.435 23.7089 110.962 23.1336 110.355 22.7454C109.749 22.3524 109.051 22.1559 108.26 22.1559C107.47 22.1559 106.771 22.3524 106.165 22.7454C105.559 23.1336 105.083 23.7089 104.738 24.4712C104.397 25.2288 104.226 26.1592 104.226 27.2624C104.226 28.3656 104.397 29.2984 104.738 30.0607C105.083 30.8183 105.559 31.3936 106.165 31.7866C106.771 32.1748 107.47 32.369 108.26 32.369C109.051 32.369 109.749 32.1748 110.355 31.7866C110.962 31.3936 111.435 30.8183 111.776 30.0607C112.122 29.2984 112.294 28.3656 112.294 27.2624Z" fill="white"/>
<defs>
<linearGradient id="paint0_linear_1790_4522" x1="14.7203" y1="45.2173" x2="42.8786" y2="14.2652" gradientUnits="userSpaceOnUse">
<stop stop-color="#09DBF0"/>
<stop offset="1" stop-color="#0B23A9"/>
</linearGradient>
</defs>
</svg>
