<svg width="41" height="41" viewBox="0 0 41 41" fill="none" xmlns="http://www.w3.org/2000/svg">
<g clip-path="url(#clip0_19027_31896)">
<path d="M0 20.5C0 9.17816 9.17816 0 20.5 0C31.8218 0 41 9.17816 41 20.5C41 31.8218 31.8218 41 20.5 41C9.17816 41 0 31.8218 0 20.5Z" fill="#2A2D30"/>
<circle opacity="0.1" cx="20.5" cy="20.5" r="33.5" transform="rotate(180 20.5 20.5)" fill="#45484B"/>
<path d="M28.3906 21.5016H15.0031L19.8594 26.3578C20.2531 26.7516 20.2531 27.3422 19.8594 27.7359C19.4656 28.1297 18.875 28.1297 18.4813 27.7359L11.9188 21.1734C11.525 20.7797 11.525 20.1891 11.9188 19.7953L18.4813 13.2327C18.6781 13.0359 18.9406 12.9702 19.2031 12.9702C19.4656 12.9702 19.7281 13.0359 19.925 13.2327C20.3188 13.6265 20.3188 14.2171 19.925 14.6109L15.0688 19.4672H28.3906C28.9156 19.4672 29.375 19.9266 29.375 20.4516C29.375 20.9766 28.9156 21.5016 28.3906 21.5016Z" fill="#A3ACB5"/>
</g>
<defs>
<clipPath id="clip0_19027_31896">
<path d="M0 20.5C0 9.17816 9.17816 0 20.5 0C31.8218 0 41 9.17816 41 20.5C41 31.8218 31.8218 41 20.5 41C9.17816 41 0 31.8218 0 20.5Z" fill="white"/>
</clipPath>
</defs>
</svg>
