<svg width="39" height="49" viewBox="0 0 39 49" fill="none" xmlns="http://www.w3.org/2000/svg">
<path d="M34.125 8.75H29.75V4.375C29.75 3.21468 29.2891 2.10188 28.4686 1.28141C27.6481 0.460936 26.5353 0 25.375 0H4.375C3.21468 0 2.10188 0.460936 1.28141 1.28141C0.460936 2.10188 0 3.21468 0 4.375V44.625C0 45.7853 0.460936 46.8981 1.28141 47.7186C2.10188 48.5391 3.21468 49 4.375 49H25.375C26.5353 49 27.6481 48.5391 28.4686 47.7186C29.2891 46.8981 29.75 45.7853 29.75 44.625V29.68C30.0042 29.7254 30.2618 29.7488 30.52 29.75H34.125C35.2853 29.75 36.3981 29.2891 37.2186 28.4686C38.0391 27.6481 38.5 26.5353 38.5 25.375V13.125C38.5 11.9647 38.0391 10.8519 37.2186 10.0314C36.3981 9.21094 35.2853 8.75 34.125 8.75ZM19.5825 1.75L18.9525 3.01875C18.8791 3.16438 18.7665 3.28661 18.6274 3.37164C18.4882 3.45668 18.3281 3.50113 18.165 3.5H11.585C11.4219 3.50113 11.2618 3.45668 11.1226 3.37164C10.9835 3.28661 10.8709 3.16438 10.7975 3.01875L10.1675 1.75H19.5825ZM25.375 47.25H4.375C3.67881 47.25 3.01113 46.9734 2.51884 46.4812C2.02656 45.9889 1.75 45.3212 1.75 44.625V43.75H28V44.625C28 45.3212 27.7234 45.9889 27.2312 46.4812C26.7389 46.9734 26.0712 47.25 25.375 47.25ZM28 42H1.75V4.375C1.75 3.67881 2.02656 3.01113 2.51884 2.51884C3.01113 2.02656 3.67881 1.75 4.375 1.75H8.2075L9.23125 3.7975C9.44951 4.23469 9.78547 4.60228 10.2013 4.8589C10.6171 5.11551 11.0964 5.25096 11.585 5.25H18.165C18.6536 5.25096 19.1329 5.11551 19.5487 4.8589C19.9645 4.60228 20.3005 4.23469 20.5188 3.7975L21.5425 1.75H25.375C26.0712 1.75 26.7389 2.02656 27.2312 2.51884C27.7234 3.01113 28 3.67881 28 4.375V8.75H9.625C8.46468 8.75 7.35188 9.21094 6.53141 10.0314C5.71094 10.8519 5.25 11.9647 5.25 13.125V25.375C5.25 26.5353 5.71094 27.6481 6.53141 28.4686C7.35188 29.2891 8.46468 29.75 9.625 29.75H13.23C14.1478 29.7493 15.0422 29.46 15.7866 28.9229C16.5309 28.3859 17.0875 27.6283 17.3775 26.7575L17.535 26.2937C17.7165 25.7803 18.0532 25.3361 18.4985 25.0225C18.9437 24.709 19.4754 24.5417 20.02 24.5437H23.73C24.2746 24.5417 24.8063 24.709 25.2515 25.0225C25.6968 25.3361 26.0335 25.7803 26.215 26.2937L26.3725 26.7575C26.6681 27.6414 27.2383 28.4078 28 28.945V42ZM36.75 25.375C36.75 26.0712 36.4734 26.7389 35.9812 27.2312C35.4889 27.7234 34.8212 28 34.125 28H30.52C29.9695 28.0094 29.43 27.8455 28.9777 27.5315C28.5255 27.2174 28.1834 26.7691 28 26.25L27.8425 25.7863C27.5619 24.9129 27.0138 24.1499 26.2758 23.605C25.5378 23.0602 24.6473 22.7611 23.73 22.75H20.02C19.1022 22.7507 18.2078 23.04 17.4634 23.5771C16.7191 24.1141 16.1625 24.8717 15.8725 25.7425L15.75 26.25C15.5685 26.7634 15.2318 27.2077 14.7865 27.5212C14.3413 27.8348 13.8096 28.0021 13.265 28H9.625C8.92881 28 8.26113 27.7234 7.76884 27.2312C7.27656 26.7389 7 26.0712 7 25.375V13.125C7 12.4288 7.27656 11.7611 7.76884 11.2688C8.26113 10.7766 8.92881 10.5 9.625 10.5H34.125C34.8212 10.5 35.4889 10.7766 35.9812 11.2688C36.4734 11.7611 36.75 12.4288 36.75 13.125V25.375ZM14 13.125C13.1347 13.125 12.2888 13.3816 11.5694 13.8623C10.8499 14.3431 10.2892 15.0263 9.95803 15.8258C9.62689 16.6252 9.54025 17.5049 9.70906 18.3535C9.87787 19.2022 10.2946 19.9817 10.9064 20.5936C11.5183 21.2054 12.2978 21.6221 13.1465 21.7909C13.9951 21.9597 14.8748 21.8731 15.6742 21.542C16.4737 21.2108 17.1569 20.6501 17.6377 19.9306C18.1184 19.2112 18.375 18.3653 18.375 17.5C18.375 16.3397 17.9141 15.2269 17.0936 14.4064C16.2731 13.5859 15.1603 13.125 14 13.125ZM14 20.125C13.4808 20.125 12.9733 19.971 12.5416 19.6826C12.11 19.3942 11.7735 18.9842 11.5748 18.5045C11.3761 18.0249 11.3242 17.4971 11.4254 16.9879C11.5267 16.4787 11.7767 16.011 12.1438 15.6438C12.511 15.2767 12.9787 15.0267 13.4879 14.9254C13.9971 14.8242 14.5249 14.8761 15.0045 15.0748C15.4842 15.2735 15.8942 15.61 16.1826 16.0416C16.471 16.4733 16.625 16.9808 16.625 17.5C16.625 18.1962 16.3484 18.8639 15.8562 19.3562C15.3639 19.8484 14.6962 20.125 14 20.125ZM29.75 13.125C28.8847 13.125 28.0388 13.3816 27.3194 13.8623C26.5999 14.3431 26.0392 15.0263 25.708 15.8258C25.3769 16.6252 25.2903 17.5049 25.4591 18.3535C25.6279 19.2022 26.0446 19.9817 26.6564 20.5936C27.2683 21.2054 28.0478 21.6221 28.8965 21.7909C29.7451 21.9597 30.6248 21.8731 31.4242 21.542C32.2237 21.2108 32.9069 20.6501 33.3877 19.9306C33.8684 19.2112 34.125 18.3653 34.125 17.5C34.125 16.3397 33.6641 15.2269 32.8436 14.4064C32.0231 13.5859 30.9103 13.125 29.75 13.125ZM29.75 20.125C29.2308 20.125 28.7233 19.971 28.2916 19.6826C27.8599 19.3942 27.5235 18.9842 27.3248 18.5045C27.1261 18.0249 27.0742 17.4971 27.1754 16.9879C27.2767 16.4787 27.5267 16.011 27.8938 15.6438C28.261 15.2767 28.7287 15.0267 29.2379 14.9254C29.7471 14.8242 30.2749 14.8761 30.7545 15.0748C31.2342 15.2735 31.6442 15.61 31.9326 16.0416C32.221 16.4733 32.375 16.9808 32.375 17.5C32.375 18.1962 32.0984 18.8639 31.6062 19.3562C31.1139 19.8484 30.4462 20.125 29.75 20.125ZM20.125 33.25H9.625C8.92881 33.25 8.26113 33.5266 7.76884 34.0188C7.27656 34.5111 7 35.1788 7 35.875C7 36.5712 7.27656 37.2389 7.76884 37.7312C8.26113 38.2234 8.92881 38.5 9.625 38.5H20.125C20.8212 38.5 21.4889 38.2234 21.9812 37.7312C22.4734 37.2389 22.75 36.5712 22.75 35.875C22.75 35.1788 22.4734 34.5111 21.9812 34.0188C21.4889 33.5266 20.8212 33.25 20.125 33.25ZM20.125 36.75H9.625C9.39294 36.75 9.17037 36.6578 9.00628 36.4937C8.84219 36.3296 8.75 36.1071 8.75 35.875C8.75 35.6429 8.84219 35.4204 9.00628 35.2563C9.17037 35.0922 9.39294 35 9.625 35H20.125C20.3571 35 20.5796 35.0922 20.7437 35.2563C20.9078 35.4204 21 35.6429 21 35.875C21 36.1071 20.9078 36.3296 20.7437 36.4937C20.5796 36.6578 20.3571 36.75 20.125 36.75Z" fill="#1B275F"/>
</svg>
