<svg width="46" height="43" viewBox="0 0 46 43" fill="none" xmlns="http://www.w3.org/2000/svg">
<path d="M44.9801 34.2461H16.8436L15.7909 30.302H38.8552C39.238 30.302 39.6208 30.0134 39.7165 29.7248L45.9371 14.0447C46.0328 13.7562 46.0328 13.3714 45.8414 13.179C45.65 12.8904 45.3629 12.7942 45.0758 12.7942H40.7692C40.195 5.86801 34.5486 0.480984 27.658 0.480984C20.7674 0.480984 27.658 0.480984 27.5623 0.480984C20.8631 0.480984 15.0253 5.67561 14.5468 12.7942H11.0058L7.75189 0.769575C7.65619 0.288591 7.27338 0 6.79487 0H0.957024C0.382809 0 0 0.384787 0 0.961969C0 1.53915 0.382809 1.92394 0.957024 1.92394H6.12495L15.2167 35.4004C15.3124 35.7852 15.6952 36.0738 16.1737 36.0738H18.0877C17.6092 36.7472 17.3221 37.613 17.3221 38.5749C17.3221 40.9799 19.3319 43 21.7244 43C24.117 43 26.1267 40.9799 26.1267 38.5749C26.1267 37.613 25.8396 36.8434 25.3611 36.0738H35.7927C35.3142 36.7472 35.0271 37.613 35.0271 38.5749C35.0271 40.9799 37.0368 43 39.4294 43C41.8219 43 43.8317 40.9799 43.8317 38.5749C43.8317 37.613 43.5446 36.8434 43.0661 36.0738H44.9801C45.5543 36.0738 45.9371 35.689 45.9371 35.1119C45.9371 34.5347 45.4586 34.2461 44.9801 34.2461ZM38.7595 12.698H34.74C34.74 11.736 34.6443 10.6779 34.4529 9.81208H38.0895C38.4724 10.6779 38.6638 11.736 38.7595 12.698ZM34.4529 17.5078C34.6443 16.5459 34.74 15.5839 34.74 14.6219H38.7595C38.6638 15.6801 38.4724 16.6421 38.0895 17.5078H34.4529ZM37.2282 19.4318C36.0798 21.4519 34.2614 22.9911 32.156 23.953C33.0173 22.7025 33.6872 21.1633 34.07 19.4318H37.2282ZM37.2282 7.88814H34.07C33.5915 6.0604 32.9216 4.52125 32.156 3.36689C34.2614 4.23266 36.0798 5.86801 37.2282 7.88814ZM28.615 2.59732C30.0505 3.1745 31.3904 5.09843 32.156 7.88814H28.615V2.59732ZM28.615 9.81208H32.5388C32.7302 10.6779 32.8259 11.6398 32.8259 12.698H28.5193V9.81208H28.615ZM28.615 14.6219H32.9216C32.9216 15.6801 32.7302 16.6421 32.6345 17.5078H28.7107V14.6219H28.615ZM28.615 19.4318H32.156C31.3904 22.2215 30.0505 24.1454 28.615 24.7226V19.4318ZM26.701 2.59732V7.88814H23.16C23.9256 5.09843 25.2654 3.1745 26.701 2.59732ZM22.6815 17.5078C22.4901 16.6421 22.3944 15.5839 22.3944 14.6219H26.701V17.5078H22.6815ZM26.701 19.4318V24.7226C25.2654 24.1454 23.9256 22.2215 23.16 19.4318H26.701ZM21.1502 19.4318C21.6287 21.2595 22.2987 22.7987 23.0643 23.953C20.9588 22.9911 19.1405 21.3557 17.992 19.4318H21.1502ZM17.1307 17.5078C16.8436 16.5459 16.5565 15.5839 16.4608 14.6219H20.4803C20.4803 15.5839 20.576 16.6421 20.7674 17.5078H17.1307ZM22.3944 12.698C22.3944 11.6398 22.5858 10.6779 22.6815 9.81208H26.6053V12.698H22.3944ZM23.0643 3.27069C22.2029 4.52125 21.533 6.0604 21.1502 7.79195H17.992C19.1405 5.86801 20.9588 4.23266 23.0643 3.27069ZM17.1307 9.81208H20.7674C20.576 10.774 20.576 11.736 20.4803 12.698H16.4608C16.5565 11.736 16.7479 10.6779 17.1307 9.81208ZM15.2167 28.3781L11.4843 14.6219H14.5468C15.0253 21.6443 20.8631 26.8389 27.5623 26.9351H27.658C34.3572 26.9351 40.195 21.6443 40.6735 14.6219H43.5446L38.0895 28.3781H15.2167ZM21.6287 41.1723C20.2889 41.1723 19.1405 40.0179 19.1405 38.6711C19.1405 37.3244 20.2889 36.17 21.6287 36.17C22.9686 36.17 24.117 37.3244 24.117 38.6711C24.117 40.0179 22.9686 41.1723 21.6287 41.1723ZM39.238 41.1723C37.8981 41.1723 36.7497 40.0179 36.7497 38.6711C36.7497 37.3244 37.8981 36.17 39.238 36.17C40.5778 36.17 41.7262 37.3244 41.7262 38.6711C41.7262 40.0179 40.6735 41.1723 39.238 41.1723Z" fill="#1B275F"/>
</svg>
