<svg width="46" height="46" viewBox="0 0 46 46" fill="none" xmlns="http://www.w3.org/2000/svg">
<path d="M38.409 4.81004H35.5306V3.6461C35.5306 2.08489 34.2621 0.816406 32.7009 0.816406H13.2903C11.736 0.816406 10.4675 2.08489 10.4675 3.6461V4.81004H7.58207C4.99632 4.81004 2.89844 6.90792 2.89844 9.49368V32.9537C2.89844 35.5394 4.99632 37.6443 7.58207 37.6443H16.9772V41.171H16.7472C15.3951 41.171 14.2939 42.2722 14.2939 43.6243V44.5861C14.2939 44.9137 14.5587 45.1855 14.8933 45.1855H31.1048C31.4324 45.1855 31.7042 44.9207 31.7042 44.5861V43.6243C31.7042 42.2722 30.603 41.171 29.2509 41.171H29.0209V37.6443H38.409C40.9948 37.6443 43.0997 35.5394 43.0997 32.9537V9.49368C43.0997 6.91489 40.9948 4.81004 38.409 4.81004ZM10.4675 29.7546H8.00026C7.44965 29.7546 6.99662 29.3085 6.99662 28.7579V10.0582C6.99662 9.50762 7.44965 9.05459 8.00026 9.05459H10.4675V29.7546ZM11.6663 7.49338H34.3318V29.7546H11.6663V14.8813V7.49338ZM35.5306 9.05459H37.9978C38.5484 9.05459 38.9945 9.50762 38.9945 10.0582V28.7579C38.9945 29.3085 38.5484 29.7546 37.9978 29.7546H35.5306V9.05459ZM13.2903 2.01519H32.7009C33.6 2.01519 34.3318 2.74701 34.3318 3.6461V6.29459H11.6663V3.6461C11.6663 2.74701 12.3912 2.01519 13.2903 2.01519ZM30.5054 43.6243V43.9867H15.4927V43.6243C15.4927 42.9343 16.0572 42.3697 16.7472 42.3697H29.2509C29.9409 42.3697 30.5054 42.9343 30.5054 43.6243ZM27.8221 41.1779H18.176V37.6513H27.8221V41.1779ZM41.9009 32.9607C41.9009 34.8843 40.3327 36.4525 38.409 36.4525H7.58207C5.65844 36.4525 4.09723 34.8843 4.09723 32.9607V9.49368C4.09723 7.57004 5.65844 6.00883 7.58207 6.00883H10.4675V7.8558H8.00026C6.78753 7.8558 5.79783 8.8455 5.79783 10.0582V28.7579C5.79783 29.9637 6.78753 30.9534 8.00026 30.9534H37.9978C39.2036 30.9534 40.1933 29.9707 40.1933 28.7579V10.0582C40.1933 8.8455 39.2106 7.8558 37.9978 7.8558H35.5306V6.00883H38.409C40.3327 6.00883 41.9009 7.57004 41.9009 9.49368V32.9607Z" fill="#1B275F"/>
<path d="M22.9992 31.6836C21.9259 31.6836 21.0547 32.5548 21.0547 33.6281C21.0547 34.7015 21.9259 35.5727 22.9992 35.5727C24.0726 35.5727 24.9438 34.7015 24.9438 33.6281C24.9438 32.5548 24.0656 31.6836 22.9992 31.6836ZM22.9992 34.3669C22.588 34.3669 22.2535 34.0324 22.2535 33.6212C22.2535 33.21 22.588 32.8754 22.9992 32.8754C23.4104 32.8754 23.745 33.21 23.745 33.6212C23.745 34.0324 23.4104 34.3669 22.9992 34.3669Z" fill="#1B275F"/>
<path d="M23.1585 23.3991C25.354 23.3991 27.1452 21.6149 27.1452 19.4124C27.1452 17.217 25.354 15.4258 23.1585 15.4258C20.9631 15.4258 19.1719 17.217 19.1719 19.4124C19.1719 21.6079 20.9631 23.3991 23.1585 23.3991ZM23.1585 16.6246C24.6988 16.6246 25.9464 17.8721 25.9464 19.4124C25.9464 20.9528 24.6988 22.2003 23.1585 22.2003C21.6182 22.2003 20.3707 20.9528 20.3707 19.4124C20.3707 17.8721 21.6182 16.6246 23.1585 16.6246Z" fill="#1B275F"/>
<path d="M15.5494 21.572L16.0652 21.6626C16.1976 22.0878 16.3649 22.492 16.574 22.8893L16.1907 23.4399C15.9188 23.8232 15.9607 24.339 16.2952 24.6735L17.8703 26.2487C18.2607 26.639 18.867 26.6948 19.32 26.3741L19.7522 26.0675C20.1425 26.2696 20.5537 26.4438 20.9788 26.5763L21.1043 27.2872C21.1879 27.7193 21.5643 28.0399 22.0034 28.0399H24.4149C24.8888 28.0399 25.2861 27.7054 25.3628 27.2454L25.4813 26.5832C25.8994 26.4508 26.3107 26.2835 26.701 26.0745L27.1331 26.3811C27.5861 26.6948 28.1925 26.639 28.5828 26.2557L30.1649 24.6735C30.4925 24.339 30.5343 23.8232 30.2694 23.4469L29.8791 22.8893C30.0813 22.499 30.2555 22.0878 30.3879 21.6626L31.05 21.5511C31.51 21.4675 31.8446 21.0702 31.8446 20.6032V18.3729C31.8446 17.8223 31.4473 17.3484 30.9037 17.2578L30.381 17.1672C30.2485 16.742 30.0743 16.3308 29.8722 15.9405L30.1788 15.5014C30.4925 15.0484 30.4437 14.4351 30.0534 14.0517L28.5758 12.5811C28.1855 12.1908 27.5791 12.142 27.1261 12.4557L26.694 12.7623C26.3037 12.5532 25.8925 12.386 25.4673 12.2535L25.3767 11.7308C25.2791 11.1872 24.8122 10.7969 24.2616 10.7969H22.1846C21.634 10.7969 21.167 11.1872 21.0694 11.7308L20.9788 12.2535C20.5537 12.386 20.1425 12.5532 19.7522 12.7623L19.32 12.4557C18.867 12.142 18.2607 12.1908 17.8703 12.5811L16.2952 14.1493C15.9607 14.4769 15.9119 14.9996 16.1837 15.3899L16.574 15.9405C16.3649 16.3308 16.1976 16.742 16.0652 17.1672L15.4031 17.2857C14.9431 17.3693 14.6016 17.7666 14.6016 18.2335V20.4638C14.6085 21.0075 15.0058 21.4745 15.5494 21.572ZM15.8073 18.4217L16.5391 18.2893C16.8319 18.2405 17.0688 18.0245 17.1455 17.7317C17.2849 17.2229 17.487 16.7351 17.7449 16.289C17.8913 16.0311 17.8773 15.7105 17.71 15.4666L17.2849 14.8532L18.6858 13.4523L19.2991 13.8775C19.5431 14.0448 19.8637 14.0587 20.1216 13.9123C20.5746 13.6545 21.0625 13.4523 21.5713 13.3129C21.857 13.2363 22.0731 12.9993 22.1219 12.7066L22.2543 11.9748H24.2267L24.3591 12.7066C24.4079 12.9993 24.624 13.2363 24.9167 13.3129C25.4185 13.4523 25.9064 13.6545 26.3664 13.9123C26.6243 14.0587 26.9449 14.0448 27.1888 13.8775L27.7952 13.4523L29.1961 14.8532L28.771 15.4666C28.5897 15.7105 28.5758 16.0311 28.7222 16.289C28.98 16.742 29.1822 17.2229 29.3216 17.7317C29.3982 18.0175 29.6352 18.2335 29.9279 18.2893L30.6667 18.4217V20.4011L29.9419 20.5266C29.6491 20.5754 29.4122 20.7914 29.3285 21.0841C29.1891 21.5929 28.987 22.0808 28.7291 22.5269C28.5828 22.7848 28.5897 23.1054 28.764 23.3493L29.1891 23.9626L27.7882 25.3635L27.1819 24.9384C26.9379 24.7711 26.6173 24.7502 26.3594 24.9035C25.9064 25.1614 25.4185 25.3635 24.9167 25.5029C24.631 25.5796 24.4149 25.8166 24.3591 26.1093L24.2267 26.8411H22.2473L22.1149 26.1093C22.0661 25.8166 21.8431 25.5796 21.5573 25.5029C21.0485 25.3635 20.5607 25.1614 20.1076 24.9035C19.8497 24.7572 19.5291 24.7711 19.2852 24.9384L18.6788 25.3635L17.2779 23.9626L17.7031 23.3563C17.8703 23.1123 17.8913 22.7917 17.7379 22.5338C17.4731 22.0808 17.271 21.5929 17.1385 21.0841C17.0619 20.7984 16.8179 20.5754 16.5252 20.5266L15.7934 20.4011V18.4217H15.8073Z" fill="#1B275F"/>
<path d="M13.9096 4.65122C14.2868 4.65122 14.5926 4.34541 14.5926 3.96819C14.5926 3.59096 14.2868 3.28516 13.9096 3.28516C13.5324 3.28516 13.2266 3.59096 13.2266 3.96819C13.2266 4.34541 13.5324 4.65122 13.9096 4.65122Z" fill="#1B275F"/>
<path d="M16.3471 4.65122C16.7243 4.65122 17.0301 4.34541 17.0301 3.96819C17.0301 3.59096 16.7243 3.28516 16.3471 3.28516C15.9699 3.28516 15.6641 3.59096 15.6641 3.96819C15.6641 4.34541 15.9699 4.65122 16.3471 4.65122Z" fill="#1B275F"/>
<path d="M18.7924 4.65122C19.1696 4.65122 19.4754 4.34541 19.4754 3.96819C19.4754 3.59096 19.1696 3.28516 18.7924 3.28516C18.4152 3.28516 18.1094 3.59096 18.1094 3.96819C18.1094 4.34541 18.4152 4.65122 18.7924 4.65122Z" fill="#1B275F"/>
</svg>
