<svg width="48" height="48" viewBox="0 0 48 48" fill="none" xmlns="http://www.w3.org/2000/svg">
<path d="M27 43.5H21C20.8011 43.5 20.6103 43.579 20.4697 43.7197C20.329 43.8603 20.25 44.0511 20.25 44.25C20.25 44.4489 20.329 44.6397 20.4697 44.7803C20.6103 44.921 20.8011 45 21 45H27C27.1989 45 27.3897 44.921 27.5303 44.7803C27.671 44.6397 27.75 44.4489 27.75 44.25C27.75 44.0511 27.671 43.8603 27.5303 43.7197C27.3897 43.579 27.1989 43.5 27 43.5Z" fill="#1B275F"/>
<path d="M28.2328 18.9238C28.08 18.7965 27.8829 18.7351 27.6848 18.7531C27.4867 18.7711 27.3039 18.8671 27.1765 19.0199L19.6765 28.0199C19.6128 28.0955 19.5647 28.1829 19.5349 28.2772C19.5051 28.3714 19.4942 28.4706 19.5029 28.5691C19.5116 28.6675 19.5396 28.7633 19.5855 28.8509C19.6313 28.9385 19.694 29.0162 19.7699 29.0794C19.8458 29.1427 19.9335 29.1904 20.028 29.2196C20.1224 29.2489 20.2216 29.2592 20.3201 29.25C20.4185 29.2407 20.5141 29.2121 20.6014 29.1658C20.6887 29.1195 20.7661 29.0564 20.8289 28.9801L28.3289 19.9801C28.4562 19.8273 28.5176 19.6301 28.4996 19.432C28.4816 19.2339 28.3856 19.0511 28.2328 18.9238Z" fill="#1B275F"/>
<path d="M30.5789 19.0193C30.5161 18.943 30.4387 18.8798 30.3514 18.8335C30.2641 18.7872 30.1685 18.7586 30.0701 18.7494C29.9716 18.7401 29.8724 18.7505 29.778 18.7797C29.6835 18.809 29.5958 18.8566 29.5199 18.9199C29.444 18.9832 29.3813 19.0608 29.3355 19.1484C29.2896 19.236 29.2616 19.3318 29.2529 19.4303C29.2442 19.5287 29.2551 19.6279 29.2849 19.7222C29.3147 19.8164 29.3628 19.9039 29.4265 19.9794L32.7764 23.9993L29.4265 28.0193C29.3628 28.0948 29.3147 28.1823 29.2849 28.2765C29.2551 28.3708 29.2442 28.47 29.2529 28.5684C29.2616 28.6669 29.2896 28.7627 29.3355 28.8503C29.3813 28.9379 29.444 29.0155 29.5199 29.0788C29.5958 29.1421 29.6835 29.1897 29.778 29.219C29.8724 29.2482 29.9716 29.2586 30.0701 29.2493C30.1685 29.2401 30.2641 29.2115 30.3514 29.1652C30.4387 29.1189 30.5161 29.0557 30.5789 28.9794L34.3289 24.4794C34.4412 24.3447 34.5027 24.1748 34.5027 23.9993C34.5027 23.8239 34.4412 23.654 34.3289 23.5193L30.5789 19.0193Z" fill="#1B275F"/>
<path d="M18.4801 18.9238C18.3273 18.7965 18.1301 18.7351 17.932 18.7531C17.7339 18.7711 17.5511 18.8671 17.4238 19.0199L13.6738 23.5199C13.5615 23.6547 13.5 23.8246 13.5 24C13.5 24.1754 13.5615 24.3453 13.6738 24.4801L17.4238 28.9801C17.5515 29.1316 17.734 29.2264 17.9314 29.2438C18.1288 29.2612 18.3251 29.1998 18.4774 29.0729C18.6296 28.9461 18.7255 28.7641 18.744 28.5668C18.7625 28.3695 18.7022 28.1729 18.5762 28.0199L15.2263 24L18.5762 19.9801C18.7035 19.8273 18.7649 19.6301 18.7469 19.432C18.7289 19.2339 18.6329 19.0511 18.4801 18.9238Z" fill="#1B275F"/>
<path d="M37.5 8.85563V2.625C37.4992 1.92904 37.2224 1.26181 36.7303 0.769694C36.2382 0.277578 35.571 0.000769247 34.875 0L13.125 0C12.429 0.000769247 11.7618 0.277578 11.2697 0.769694C10.7776 1.26181 10.5008 1.92904 10.5 2.625V8.85563C9.81639 9.25044 9.24864 9.8181 8.85372 10.5016C8.4588 11.1852 8.25059 11.9606 8.25 12.75V35.25C8.25059 36.0394 8.4588 36.8148 8.85372 37.4984C9.24864 38.1819 9.81639 38.7496 10.5 39.1444V45.375C10.5008 46.071 10.7776 46.7382 11.2697 47.2303C11.7618 47.7224 12.429 47.9992 13.125 48H34.875C35.571 47.9992 36.2382 47.7224 36.7303 47.2303C37.2224 46.7382 37.4992 46.071 37.5 45.375V39.1444C38.1836 38.7496 38.7514 38.1819 39.1463 37.4984C39.5412 36.8148 39.7494 36.0394 39.75 35.25V12.75C39.7494 11.9606 39.5412 11.1852 39.1463 10.5016C38.7514 9.8181 38.1836 9.25044 37.5 8.85563ZM27.5391 1.5L27.1641 3H20.8359L20.4609 1.5H27.5391ZM12 2.625C12.0002 2.32671 12.1189 2.0407 12.3298 1.82978C12.5407 1.61885 12.8267 1.50025 13.125 1.5H18.9141L19.5225 3.93187C19.5631 4.09413 19.6567 4.23817 19.7885 4.34111C19.9203 4.44405 20.0828 4.49997 20.25 4.5H27.75C27.9172 4.49997 28.0797 4.44405 28.2115 4.34111C28.3433 4.23817 28.4369 4.09413 28.4775 3.93187L29.0859 1.5H34.875C35.1733 1.50025 35.4593 1.61885 35.6702 1.82978C35.8811 2.0407 35.9998 2.32671 36 2.625V8.31375C35.7522 8.27154 35.5013 8.25022 35.25 8.25H12.75C12.4987 8.25022 12.2478 8.27154 12 8.31375V2.625ZM36 45.375C35.9998 45.6733 35.8811 45.9593 35.6702 46.1702C35.4593 46.3811 35.1733 46.4998 34.875 46.5H13.125C12.8267 46.4998 12.5407 46.3811 12.3298 46.1702C12.1189 45.9593 12.0002 45.6733 12 45.375V39.6862C12.2478 39.7285 12.4987 39.7498 12.75 39.75H35.25C35.5013 39.7498 35.7522 39.7285 36 39.6862V45.375ZM38.25 35.25C38.249 36.0453 37.9326 36.8078 37.3702 37.3702C36.8078 37.9326 36.0453 38.249 35.25 38.25H12.75C11.9547 38.249 11.1922 37.9326 10.6298 37.3702C10.0674 36.8078 9.75104 36.0453 9.75 35.25V12.75C9.75104 11.9547 10.0674 11.1922 10.6298 10.6298C11.1922 10.0674 11.9547 9.75104 12.75 9.75H35.25C36.0453 9.75104 36.8078 10.0674 37.3702 10.6298C37.9326 11.1922 38.249 11.9547 38.25 12.75V35.25Z" fill="#1B275F"/>
</svg>
