<svg width="29" height="48" viewBox="0 0 29 48" fill="none" xmlns="http://www.w3.org/2000/svg">
<path d="M23.7541 0H5.00535C3.67831 0.00149465 2.40604 0.529322 1.46768 1.46768C0.529322 2.40604 0.00149465 3.67831 0 5.00535V42.9947C0.00149465 44.3217 0.529322 45.594 1.46768 46.5323C2.40604 47.4707 3.67831 47.9985 5.00535 48H23.7541C25.0811 47.9985 26.3534 47.4707 27.2918 46.5323C28.2301 45.594 28.7579 44.3217 28.7594 42.9947V5.00535C28.7579 3.67831 28.2301 2.40604 27.2918 1.46768C26.3534 0.529322 25.0811 0.00149465 23.7541 0ZM20.0147 1.79679V2.95803C20.0143 3.19259 19.9209 3.41742 19.755 3.58322C19.5891 3.74903 19.3642 3.8423 19.1297 3.84257H9.63234C9.39783 3.8423 9.173 3.74902 9.00718 3.58319C8.84136 3.41737 8.74808 3.19254 8.74781 2.95803V1.79679H20.0147ZM26.9621 42.9947C26.9612 43.8453 26.6228 44.6609 26.0213 45.2624C25.4198 45.8639 24.6043 46.2023 23.7536 46.2032H5.00535C4.15468 46.2023 3.33912 45.8639 2.73761 45.2624C2.13609 44.6609 1.79774 43.8453 1.79679 42.9947V5.00535C1.79774 4.15468 2.13609 3.33912 2.73761 2.73761C3.33912 2.13609 4.15468 1.79774 5.00535 1.79679H6.94896V2.95803C6.94978 3.66891 7.23254 4.35045 7.73521 4.85312C8.23787 5.35578 8.91941 5.63854 9.63029 5.63936H19.1276C19.8385 5.63854 20.5201 5.3558 21.0229 4.85315C21.5256 4.35049 21.8085 3.66896 21.8095 2.95803V1.79679H23.7541C24.6047 1.79788 25.4201 2.13629 26.0215 2.73779C26.6229 3.33929 26.9612 4.15477 26.9621 5.00535V42.9947Z" fill="#1B275F"/>
<path d="M19.9075 41.9258H8.85933C8.62106 41.9258 8.39255 42.0204 8.22407 42.1889C8.05559 42.3574 7.96094 42.5859 7.96094 42.8242C7.96094 43.0624 8.05559 43.291 8.22407 43.4594C8.39255 43.6279 8.62106 43.7226 8.85933 43.7226H19.9075C20.1458 43.7226 20.3743 43.6279 20.5428 43.4594C20.7113 43.291 20.8059 43.0624 20.8059 42.8242C20.8059 42.5859 20.7113 42.3574 20.5428 42.1889C20.3743 42.0204 20.1458 41.9258 19.9075 41.9258Z" fill="#1B275F"/>
</svg>
