<svg width="49" height="49" viewBox="0 0 49 49" fill="none" xmlns="http://www.w3.org/2000/svg">
<path d="M37.4471 0.671875H15.9235C13.7032 0.671875 11.8944 2.48066 11.8944 4.71055V26.8275L8.80317 29.2297C8.09497 29.7752 7.64516 30.5791 7.53989 31.4691C7.43462 32.3592 7.67387 33.2397 8.21938 33.9383L8.42036 34.1871H8.4395C8.97543 34.7518 9.68364 35.1059 10.4588 35.2016C10.6024 35.2207 10.7364 35.2303 10.8799 35.2303C11.2245 35.2303 11.569 35.1729 11.8944 35.0676V44.2934C11.8944 46.5137 13.7032 48.332 15.9235 48.332H37.4471C39.6674 48.332 41.4858 46.5232 41.4858 44.2934V4.71055C41.4858 2.48066 39.677 0.671875 37.4471 0.671875ZM20.2206 1.97344H33.1692V3.4377C33.1692 4.03105 32.6811 4.51914 32.0877 4.51914H21.302C20.7086 4.51914 20.2206 4.03105 20.2206 3.4377V1.97344ZM13.1959 4.71055C13.1959 3.20801 14.4209 1.98301 15.9235 1.98301H18.9094V3.44727C18.9094 4.76797 19.9813 5.83984 21.302 5.83984H32.0782C33.3989 5.83984 34.4707 4.76797 34.4707 3.44727V1.97344H37.4567C38.9592 1.97344 40.1842 3.19844 40.1842 4.70098V38.5799H13.1959V34.3115L19.7516 29.1914C23.1108 31.2395 27.3791 31.0098 30.5086 28.5598C31.9442 27.44 33.0161 25.9471 33.619 24.234C34.2028 22.5688 34.3081 20.7791 33.9348 19.0564L33.7147 18.042L27.2739 23.0664L23.484 22.0137L23.3788 18.0803L29.8196 13.0463L28.8913 12.5869C27.3122 11.8021 25.5512 11.4768 23.7903 11.6395C21.9815 11.8021 20.2684 12.4912 18.8329 13.6109C15.7034 16.0609 14.4401 20.1379 15.6172 23.899L13.1864 25.7939V4.71055H13.1959ZM10.6215 33.9096C10.076 33.8426 9.58793 33.565 9.25297 33.1344L9.20512 33.0674C8.90844 32.6463 8.77446 32.1391 8.84145 31.6223C8.90844 31.0768 9.18598 30.5887 9.61665 30.2537L17.1772 24.3488L17.0145 23.899C15.7799 20.5494 16.8518 16.8266 19.6559 14.635C21.8379 12.9314 24.7473 12.4625 27.3409 13.343L22.0772 17.4486L22.2207 23.009L27.5801 24.502L32.8438 20.3963C33.0639 23.1143 31.9059 25.8322 29.7239 27.5357C26.9102 29.7273 23.0438 29.8613 20.0961 27.8516L19.7038 27.5836L12.1528 33.4789C12.1432 33.4885 12.1336 33.4885 12.1336 33.498C11.703 33.833 11.167 33.9766 10.6215 33.9096ZM37.4471 47.0305H15.9235C14.4209 47.0305 13.1959 45.8055 13.1959 44.3029V39.891H40.1747V44.3029C40.1842 45.8055 38.9592 47.0305 37.4471 47.0305ZM31.4561 43.4607C31.4561 43.8244 31.169 44.1115 30.8053 44.1115H22.5653C22.2016 44.1115 21.9145 43.8244 21.9145 43.4607C21.9145 43.0971 22.2016 42.81 22.5653 42.81H30.8053C31.169 42.81 31.4561 43.0971 31.4561 43.4607Z" fill="black"/>
</svg>
