<svg width="53" height="53" viewBox="0 0 53 53" fill="none" xmlns="http://www.w3.org/2000/svg">
<g clip-path="url(#clip0_18040_28850)">
<path d="M36.6106 45.5469C37.2234 45.5462 37.8109 45.3025 38.2442 44.8692C38.6775 44.4359 38.9212 43.8484 38.9219 43.2356V9.76442C38.9212 9.15163 38.6775 8.56414 38.2442 8.13083C37.8109 7.69752 37.2234 7.4538 36.6106 7.45312H16.3894C15.7766 7.4538 15.1891 7.69752 14.7558 8.13083C14.3225 8.56414 14.0788 9.15163 14.0781 9.76442V43.2356C14.0788 43.8484 14.3225 44.4359 14.7558 44.8692C15.1891 45.3025 15.7766 45.5462 16.3894 45.5469H36.6106ZM37.2656 40.5781H15.7344V12.4219H37.2656V40.5781ZM16.3894 9.10938H36.6106C36.7842 9.10961 36.9507 9.1787 37.0735 9.30149C37.1963 9.42429 37.2654 9.59077 37.2656 9.76442V10.7656H15.7344V9.76442C15.7346 9.59077 15.8037 9.42429 15.9265 9.30149C16.0493 9.1787 16.2158 9.10961 16.3894 9.10938ZM15.7344 43.2356V42.2344H37.2656V43.2356C37.2654 43.4092 37.1963 43.5757 37.0735 43.6985C36.9507 43.8213 36.7842 43.8904 36.6106 43.8906H16.3894C16.2158 43.8904 16.0493 43.8213 15.9265 43.6985C15.8037 43.5757 15.7346 43.4092 15.7344 43.2356Z" fill="#1B275F"/>
<path d="M18.2188 28.834H19.2677C19.3932 29.2224 19.5501 29.5999 19.7367 29.9629L18.9939 30.7057C18.917 30.7826 18.856 30.8739 18.8143 30.9744C18.7727 31.0748 18.7513 31.1825 18.7513 31.2913C18.7513 31.4 18.7727 31.5077 18.8143 31.6082C18.856 31.7086 18.917 31.7999 18.9939 31.8768L21.1232 34.0061C21.2001 34.083 21.2914 34.1441 21.3919 34.1857C21.4923 34.2273 21.6 34.2487 21.7088 34.2487C21.8175 34.2487 21.9252 34.2273 22.0257 34.1857C22.1261 34.1441 22.2174 34.083 22.2943 34.0061L23.0371 33.2633C23.4001 33.4499 23.7777 33.6068 24.1661 33.7324V34.7812C24.1661 35.0009 24.2533 35.2115 24.4086 35.3668C24.5639 35.5221 24.7746 35.6094 24.9942 35.6094H28.0059C28.2255 35.6094 28.4361 35.5221 28.5914 35.3668C28.7467 35.2115 28.834 35.0009 28.834 34.7812V33.7323C29.2224 33.6068 29.5999 33.4499 29.9629 33.2633L30.7058 34.0061C30.7826 34.083 30.8739 34.144 30.9744 34.1857C31.0749 34.2273 31.1825 34.2487 31.2913 34.2487C31.4 34.2487 31.5077 34.2273 31.6082 34.1857C31.7086 34.144 31.7999 34.083 31.8768 34.0061L34.0061 31.8767C34.083 31.7999 34.1441 31.7086 34.1857 31.6081C34.2273 31.5077 34.2487 31.4 34.2487 31.2912C34.2487 31.1825 34.2273 31.0748 34.1857 30.9743C34.1441 30.8739 34.083 30.7826 34.0061 30.7057L33.2633 29.9629C33.4499 29.5999 33.6068 29.2223 33.7324 28.8339H34.7812C35.0009 28.8339 35.2115 28.7467 35.3668 28.5914C35.5221 28.4361 35.6094 28.2254 35.6094 28.0058V24.9942C35.6094 24.7745 35.5221 24.5639 35.3668 24.4086C35.2115 24.2533 35.0009 24.166 34.7812 24.166H33.7323C33.6068 23.7776 33.4499 23.4001 33.2633 23.0371L34.0061 22.2943C34.083 22.2174 34.144 22.1261 34.1857 22.0256C34.2273 21.9252 34.2487 21.8175 34.2487 21.7087C34.2487 21.6 34.2273 21.4923 34.1857 21.3918C34.144 21.2914 34.083 21.2001 34.0061 21.1232L31.8767 18.9939C31.7999 18.917 31.7086 18.8559 31.6081 18.8143C31.5077 18.7727 31.4 18.7513 31.2912 18.7513C31.1825 18.7513 31.0748 18.7727 30.9743 18.8143C30.8739 18.8559 30.7826 18.917 30.7057 18.9939L29.9629 19.7367C29.5999 19.5501 29.2223 19.3932 28.8339 19.2676V18.2188C28.8339 17.9991 28.7467 17.7885 28.5914 17.6332C28.4361 17.4779 28.2254 17.3906 28.0058 17.3906H24.9942C24.7745 17.3906 24.5639 17.4779 24.4086 17.6332C24.2533 17.7885 24.166 17.9991 24.166 18.2188V19.2677C23.7776 19.3932 23.4001 19.5501 23.0371 19.7367L22.2943 18.9939C22.2174 18.917 22.1261 18.856 22.0256 18.8143C21.9252 18.7727 21.8175 18.7513 21.7087 18.7513C21.6 18.7513 21.4923 18.7727 21.3918 18.8143C21.2914 18.856 21.2001 18.917 21.1232 18.9939L18.9939 21.1232C18.917 21.2001 18.8559 21.2914 18.8143 21.3919C18.7727 21.4923 18.7513 21.6 18.7513 21.7088C18.7513 21.8175 18.7727 21.9252 18.8143 22.0257C18.8559 22.1261 18.917 22.2174 18.9939 22.2943L19.7367 23.0371C19.5501 23.4001 19.3932 23.7777 19.2676 24.1661H18.2188C17.9991 24.1661 17.7885 24.2533 17.6332 24.4086C17.4779 24.5639 17.3906 24.7746 17.3906 24.9942V28.0059C17.3906 28.2255 17.4779 28.4361 17.6332 28.5914C17.7885 28.7467 17.9991 28.834 18.2188 28.834ZM19.0469 25.8223H19.3348C19.6717 25.8198 19.999 25.7096 20.2689 25.508C20.5389 25.3064 20.7373 25.0238 20.8353 24.7014C20.9376 24.3804 21.067 24.0687 21.2223 23.7698C21.3817 23.4723 21.4418 23.1317 21.3937 22.7977C21.3456 22.4636 21.1919 22.1538 20.955 21.9134L20.7504 21.7088L21.7088 20.7504L21.9134 20.955C22.1535 21.1921 22.4634 21.346 22.7974 21.3941C23.1314 21.4422 23.4721 21.382 23.7694 21.2223C24.0685 21.0671 24.3803 20.9377 24.7014 20.8354C25.0238 20.7373 25.3064 20.5389 25.508 20.2689C25.7096 19.999 25.8198 19.6717 25.8223 19.3348V19.0469H27.1777V19.3348C27.1802 19.6717 27.2903 19.999 27.492 20.2689C27.6936 20.5389 27.9762 20.7373 28.2986 20.8353C28.6196 20.9376 28.9313 21.067 29.2302 21.2223C29.5276 21.3818 29.8683 21.4419 30.2024 21.3938C30.5364 21.3457 30.8463 21.1919 31.0866 20.955L31.2912 20.7504L32.2496 21.7088L32.045 21.9134C31.8081 22.1537 31.6544 22.4635 31.6063 22.7974C31.5582 23.1314 31.6183 23.472 31.7777 23.7694C31.9329 24.0685 32.0623 24.3803 32.1646 24.7014C32.2627 25.0238 32.4611 25.3064 32.731 25.508C33.001 25.7096 33.3283 25.8198 33.6652 25.8223H33.9531V27.1777H33.6652C33.3283 27.1802 33.001 27.2903 32.7311 27.492C32.4611 27.6936 32.2627 27.9762 32.1647 28.2986C32.0624 28.6196 31.933 28.9313 31.7777 29.2302C31.6183 29.5277 31.5582 29.8683 31.6063 30.2023C31.6544 30.5364 31.8081 30.8462 32.045 31.0866L32.2496 31.2912L31.2912 32.2496L31.0866 32.045C30.8464 31.8079 30.5366 31.6541 30.2026 31.606C29.8686 31.5579 29.528 31.6181 29.2306 31.7777C28.9315 31.9329 28.6197 32.0623 28.2986 32.1646C27.9762 32.2627 27.6936 32.4611 27.492 32.731C27.2904 33.001 27.1802 33.3283 27.1777 33.6652V33.9531H25.8223V33.6652C25.8198 33.3283 25.7096 33.001 25.508 32.7311C25.3064 32.4611 25.0238 32.2627 24.7014 32.1647C24.3804 32.0624 24.0687 31.933 23.7698 31.7777C23.4723 31.6184 23.1317 31.5584 22.7977 31.6065C22.4637 31.6546 22.1538 31.8082 21.9134 32.045L21.7088 32.2496L20.7504 31.2912L20.955 31.0866C21.1919 30.8463 21.3456 30.5365 21.3937 30.2026C21.4418 29.8686 21.3817 29.528 21.2223 29.2306C21.0671 28.9315 20.9377 28.6197 20.8354 28.2986C20.7373 27.9762 20.5389 27.6936 20.2689 27.492C19.999 27.2904 19.6717 27.1802 19.3348 27.1777H19.0469V25.8223Z" fill="#1B275F"/>
<path d="M26.5 31.0547C27.4008 31.0547 28.2814 30.7876 29.0304 30.2871C29.7795 29.7866 30.3632 29.0753 30.708 28.243C31.0527 27.4107 31.1429 26.4949 30.9672 25.6114C30.7914 24.7279 30.3576 23.9163 29.7207 23.2794C29.0837 22.6424 28.2721 22.2086 27.3886 22.0328C26.5051 21.8571 25.5893 21.9473 24.757 22.292C23.9247 22.6368 23.2134 23.2205 22.7129 23.9696C22.2124 24.7186 21.9453 25.5992 21.9453 26.5C21.9467 27.7076 22.427 28.8653 23.2809 29.7191C24.1347 30.573 25.2924 31.0533 26.5 31.0547ZM26.5 23.6016C27.0733 23.6016 27.6336 23.7716 28.1103 24.09C28.5869 24.4085 28.9584 24.8612 29.1778 25.3908C29.3972 25.9204 29.4546 26.5032 29.3427 27.0655C29.2309 27.6277 28.9549 28.1442 28.5495 28.5495C28.1442 28.9549 27.6277 29.2309 27.0655 29.3427C26.5032 29.4546 25.9204 29.3972 25.3908 29.1778C24.8612 28.9584 24.4085 28.5869 24.09 28.1103C23.7716 27.6336 23.6016 27.0733 23.6016 26.5C23.6025 25.7316 23.9082 24.9949 24.4515 24.4515C24.9949 23.9082 25.7316 23.6025 26.5 23.6016Z" fill="#1B275F"/>
<path d="M26.5 52.1719C32.0573 52.1883 37.4672 50.3854 41.9036 47.0386L40.9089 45.7147C36.4341 49.0763 30.9253 50.7688 25.335 50.4994C19.7447 50.2301 14.4242 48.0159 10.2932 44.2397C6.16234 40.4635 3.48069 35.3625 2.71191 29.8188C1.94314 24.275 3.13555 18.6369 6.08301 13.8791L7.69576 15.4918C7.79936 15.5954 7.92861 15.6698 8.07032 15.7071C8.21203 15.7445 8.36112 15.7436 8.50237 15.7045C8.64361 15.6654 8.77195 15.5895 8.87426 15.4846C8.97657 15.3796 9.0492 15.2494 9.08473 15.1072L10.741 8.48223C10.7756 8.34348 10.7738 8.19812 10.7356 8.06029C10.6974 7.92247 10.6242 7.79688 10.523 7.69575C10.4219 7.59463 10.2963 7.5214 10.1585 7.48321C10.0207 7.44502 9.87531 7.44316 9.73655 7.47781L3.11155 9.13406C2.96937 9.16958 2.83916 9.24221 2.73423 9.34453C2.62929 9.44684 2.5534 9.57518 2.5143 9.71642C2.47519 9.85766 2.47428 10.0068 2.51165 10.1485C2.54902 10.2902 2.62334 10.4194 2.72701 10.523L4.87921 12.6752C2.39561 16.5534 1.00155 21.0286 0.843285 25.6311C0.685018 30.2337 1.76838 34.794 3.97971 38.8337C6.19104 42.8733 9.44882 46.2433 13.4113 48.5902C17.3737 50.9371 21.8947 52.1742 26.5 52.1719ZM8.79923 9.41956L7.8324 13.2865L4.93231 10.3864L8.79923 9.41956Z" fill="#1B275F"/>
<path d="M26.4974 0.828236C20.9401 0.811855 15.5302 2.61473 11.0938 5.96156L12.0885 7.28542C16.5634 3.92401 22.0721 2.23175 27.6624 2.50119C33.2527 2.77063 38.5731 4.98483 42.704 8.76103C46.8349 12.5372 49.5166 17.6381 50.2854 23.1818C51.0543 28.7255 49.862 34.3636 46.9148 39.1215L45.3016 37.5084C45.198 37.4047 45.0688 37.3304 44.927 37.293C44.7853 37.2556 44.6362 37.2566 44.495 37.2957C44.3537 37.3348 44.2254 37.4107 44.1231 37.5156C44.0208 37.6205 43.9482 37.7507 43.9126 37.8929L42.2564 44.5179C42.2217 44.6567 42.2236 44.802 42.2618 44.9398C42.3 45.0777 42.3732 45.2032 42.4744 45.3044C42.5755 45.4055 42.7011 45.4787 42.8389 45.5169C42.9767 45.5551 43.1221 45.557 43.2608 45.5223L49.8858 43.8661C50.028 43.8306 50.1582 43.7579 50.2631 43.6556C50.3681 43.5533 50.444 43.425 50.4831 43.2837C50.5222 43.1425 50.5231 42.9934 50.4857 42.8517C50.4483 42.71 50.374 42.5807 50.2703 42.4771L48.1137 40.3205C50.599 36.4433 51.9945 31.9684 52.1539 27.3658C52.3132 22.7632 51.2304 18.2026 49.0192 14.1628C46.808 10.123 43.5499 6.75303 39.5871 4.40673C35.6242 2.06043 31.1027 0.82434 26.4974 0.828236ZM44.1981 43.5806L45.165 39.7137L48.065 42.6138L44.1981 43.5806Z" fill="#1B275F"/>
</g>
<defs>
<clipPath id="clip0_18040_28850">
<rect width="53" height="53" fill="white"/>
</clipPath>
</defs>
</svg>
