<svg width="46" height="49" viewBox="0 0 46 49" fill="none" xmlns="http://www.w3.org/2000/svg">
<path d="M44.8024 21.3284H41.3188C41.1136 20.6724 40.8529 20.039 40.5513 19.4636L43.0025 17.0112C43.201 16.8202 43.2009 16.477 43.0022 16.2862L39.1981 12.4861C38.9985 12.2866 38.6752 12.2861 38.4749 12.4848L36.008 14.9318C35.4304 14.63 34.794 14.3688 34.1351 14.1632V10.6612C34.1351 10.3782 33.9056 10.1487 33.6226 10.1487H29.2209V3.1427C29.2209 1.4098 27.8111 0 26.0782 0H3.1427C1.4098 0 0 1.4098 0 3.1427V45.8572C0 47.5901 1.4099 48.9999 3.14281 48.9999H26.0782C27.8111 48.9999 29.2209 47.5901 29.2209 45.8572V38.8513H33.6226C33.9056 38.8513 34.1351 38.6218 34.1351 38.3388V34.8369C34.7955 34.6311 35.4315 34.3705 36.0074 34.0701L38.4666 36.5178C38.6668 36.7169 38.9902 36.7167 39.1901 36.5175L42.9979 32.7206C43.1983 32.5208 43.1988 32.1963 42.9991 31.9958L40.5491 29.5371C40.8523 28.9592 41.1137 28.3256 41.3186 27.6716H44.8023C45.0853 27.6716 45.3148 27.4421 45.3148 27.1591V21.841C45.3149 21.5579 45.0854 21.3284 44.8024 21.3284ZM29.2209 18.9477C32.8772 17.734 36.8479 20.6421 36.785 24.5C36.848 28.358 32.8769 31.266 29.2209 30.0523V18.9477ZM7.96878 1.02513H21.252C21.3869 2.53177 20.2533 3.90314 18.7402 3.89267H10.4806C8.96826 3.90304 7.83288 2.53167 7.96878 1.02513ZM28.1957 45.8573C28.1957 47.0249 27.2458 47.975 26.0781 47.975H3.1427C1.97497 47.975 1.02502 47.025 1.02502 45.8573V3.1427C1.02502 1.97508 1.97497 1.02502 3.1427 1.02502H6.94366C6.7976 3.10009 8.40748 4.92806 10.4806 4.91769H18.7402C20.8126 4.92806 22.4239 3.09998 22.2771 1.02502H26.0781C27.2457 1.02502 28.1957 1.97497 28.1957 3.1427V45.8573ZM44.2899 26.6465H40.9357C40.7053 26.6465 40.5033 26.8002 40.4418 27.0222C40.2096 27.8606 39.874 28.6725 39.4711 29.3703C39.3553 29.5709 39.3884 29.8242 39.5519 29.9884L41.9115 32.3564L38.828 35.431L36.459 33.0731C36.2951 32.91 36.0423 32.8769 35.8418 32.9922C35.1499 33.3903 34.3353 33.7247 33.4862 33.9594C33.264 34.0209 33.1101 34.2229 33.1101 34.4535V37.8264H29.221V31.1191C33.4686 32.3018 37.8725 28.9146 37.8102 24.5C37.8727 20.0853 33.4683 16.6982 29.221 17.8809V11.1737H33.1101V14.5466C33.1101 14.7771 33.264 14.9792 33.4861 15.0407C34.3317 15.2745 35.1463 15.6094 35.8418 16.0095C36.0418 16.1247 36.2944 16.0917 36.4583 15.9291L38.8347 13.572L41.9151 16.6492L39.5544 19.0112C39.3905 19.1752 39.3571 19.4289 39.4731 19.6298C39.8735 20.3234 40.2086 21.1352 40.4419 21.978C40.5034 22.2 40.7054 22.3537 40.9358 22.3537H44.29V26.6465H44.2899Z" fill="#1B275F"/>
<path d="M17.5526 43.7656H11.6609C11.3779 43.7656 11.1484 43.9951 11.1484 44.2781C11.1484 44.5611 11.3779 44.7906 11.6609 44.7906H17.5526C17.8356 44.7906 18.0651 44.5611 18.0651 44.2781C18.0651 43.9951 17.8356 43.7656 17.5526 43.7656Z" fill="#1B275F"/>
<path d="M25.324 9.72656H18.8953C18.6123 9.72656 18.3828 9.95607 18.3828 10.2391V16.0595C18.3828 16.3425 18.6123 16.572 18.8953 16.572H25.324C25.607 16.572 25.8365 16.3425 25.8365 16.0595V10.2392C25.8365 9.95607 25.607 9.72656 25.324 9.72656ZM24.8113 15.5471H19.4078V10.7517H24.8113V15.5471Z" fill="#1B275F"/>
<path d="M25.324 31.6406H18.8953C18.6123 31.6406 18.3828 31.8701 18.3828 32.1531V37.9737C18.3828 38.2567 18.6123 38.4862 18.8953 38.4862H25.324C25.607 38.4862 25.8365 38.2567 25.8365 37.9737V32.1531C25.8365 31.8701 25.607 31.6406 25.324 31.6406ZM24.8113 37.4612H19.4078V32.6657H24.8113V37.4612Z" fill="#1B275F"/>
<path d="M25.324 20.6953H18.8953C18.6123 20.6953 18.3828 20.9248 18.3828 21.2078V27.0282C18.3828 27.3113 18.6123 27.5408 18.8953 27.5408H25.324C25.607 27.5408 25.8365 27.3113 25.8365 27.0282V21.2078C25.8365 20.9248 25.607 20.6953 25.324 20.6953ZM24.8113 26.5157H19.4078V21.7203H24.8113V26.5157Z" fill="#1B275F"/>
<path d="M10.324 9.72656H3.89532C3.61232 9.72656 3.38281 9.95607 3.38281 10.2391V16.0595C3.38281 16.3425 3.61232 16.572 3.89532 16.572H10.324C10.607 16.572 10.8365 16.3425 10.8365 16.0595V10.2392C10.8365 9.95607 10.607 9.72656 10.324 9.72656ZM9.81134 15.5471H4.40783V10.7517H9.81134V15.5471Z" fill="#1B275F"/>
<path d="M10.324 31.6406H3.89532C3.61232 31.6406 3.38281 31.8701 3.38281 32.1531V37.9737C3.38281 38.2567 3.61232 38.4862 3.89532 38.4862H10.324C10.607 38.4862 10.8365 38.2567 10.8365 37.9737V32.1531C10.8365 31.8701 10.607 31.6406 10.324 31.6406ZM9.81134 37.4612H4.40783V32.6657H9.81134V37.4612Z" fill="#1B275F"/>
<path d="M10.324 20.6953H3.89532C3.61232 20.6953 3.38281 20.9248 3.38281 21.2078V27.0282C3.38281 27.3113 3.61232 27.5408 3.89532 27.5408H10.324C10.607 27.5408 10.8365 27.3113 10.8365 27.0282V21.2078C10.8365 20.9248 10.607 20.6953 10.324 20.6953ZM9.81134 26.5157H4.40783V21.7203H9.81134V26.5157Z" fill="#1B275F"/>
</svg>
