<svg width="50" height="50" viewBox="0 0 50 50" fill="none" xmlns="http://www.w3.org/2000/svg">
<path d="M43.75 40.2344H6.25C3.88031 40.2344 1.95312 38.3072 1.95312 35.9375V4.6875C1.95312 2.31781 3.88031 0.390625 6.25 0.390625H43.75C46.1197 0.390625 48.0469 2.31781 48.0469 4.6875V35.9375C48.0469 38.3072 46.1197 40.2344 43.75 40.2344ZM6.25 2.73438C5.17266 2.73438 4.29688 3.61016 4.29688 4.6875V35.9375C4.29688 37.0148 5.17266 37.8906 6.25 37.8906H43.75C44.8273 37.8906 45.7031 37.0148 45.7031 35.9375V4.6875C45.7031 3.61016 44.8273 2.73438 43.75 2.73438H6.25Z" fill="#1B275F"/>
<path d="M30.6479 49.6094H19.3595C18.4821 49.6094 17.6535 49.1852 17.1409 48.4727C16.6282 47.7616 16.4878 46.8416 16.764 46.0098L19.2039 38.6917C19.364 38.2141 19.8112 37.8906 20.3162 37.8906H29.6912C30.1962 37.8906 30.6434 38.2141 30.8035 38.6917L33.2434 46.0098C33.5196 46.8414 33.3792 47.7616 32.8665 48.4727C32.3539 49.1853 31.5253 49.6094 30.6479 49.6094ZM21.1615 40.2344L18.9887 46.7514C18.9337 46.9163 18.9979 47.0428 19.0421 47.1023C19.0864 47.1634 19.1856 47.2656 19.3595 47.2656H30.6479C30.8218 47.2656 30.921 47.1634 30.9653 47.1023C31.0095 47.0428 31.0735 46.9163 31.0187 46.7514L28.8459 40.2344H21.1615Z" fill="#1B275F"/>
<path d="M46.875 33.9844H3.125C2.47797 33.9844 1.95312 33.4595 1.95312 32.8125C1.95312 32.1655 2.47797 31.6406 3.125 31.6406H46.875C47.522 31.6406 48.0469 32.1655 48.0469 32.8125C48.0469 33.4595 47.522 33.9844 46.875 33.9844Z" fill="#1B275F"/>
<path d="M25 29.2969C19.96 29.2969 15.4006 26.1261 13.652 21.4081C13.1484 20.0867 12.8906 18.6631 12.8906 17.1875C12.8906 16.5405 13.4155 16.0156 14.0625 16.0156C14.7095 16.0156 15.2344 16.5405 15.2344 17.1875C15.2344 18.3761 15.4403 19.5191 15.8462 20.5827C17.2592 24.3973 20.9366 26.9531 25 26.9531C28.2028 26.9531 31.2013 25.3845 33.0216 22.7555C33.3908 22.223 34.1217 22.0902 34.6512 22.4594C35.1838 22.8272 35.3166 23.5564 34.9473 24.0891C32.6906 27.3498 28.9719 29.2969 25 29.2969Z" fill="#1B275F"/>
<path d="M35.8286 19.812C35.7629 19.812 35.6973 19.8075 35.6317 19.7953C34.9939 19.687 34.5636 19.0827 34.6718 18.4448C34.7343 18.0741 34.765 17.662 34.765 17.1875C34.765 16.6702 34.7237 16.1636 34.6414 15.6814C33.8967 10.8886 29.8425 7.42188 24.9993 7.42188C21.444 7.42188 18.1618 9.35828 16.43 12.4756C16.1156 13.0433 15.4015 13.2463 14.837 12.9303C14.2709 12.6175 14.0679 11.9034 14.3823 11.3373C16.5246 7.47687 20.5942 5.07812 24.9993 5.07812C31.0067 5.07812 36.0345 9.37953 36.9546 15.3045C37.0554 15.8997 37.1087 16.5389 37.1087 17.1875C37.1087 17.7948 37.0675 18.3334 36.982 18.8355C36.8859 19.4077 36.3901 19.812 35.8286 19.812Z" fill="#1B275F"/>
<path d="M35.9376 19.9218C35.637 19.9218 35.3379 19.8074 35.109 19.5785L33.5465 18.016C33.0887 17.5582 33.0887 16.8166 33.5465 16.359C34.0043 15.9013 34.7459 15.9012 35.2035 16.359L35.9374 17.0929L36.6713 16.359C37.1291 15.9012 37.8707 15.9012 38.3284 16.359C38.786 16.8168 38.7862 17.5584 38.3284 18.016L36.7659 19.5785C36.537 19.8074 36.2382 19.9218 35.9376 19.9218Z" fill="#1B275F"/>
<path d="M15.6249 19.9218C15.3242 19.9218 15.0252 19.8074 14.7963 19.5785L14.0624 18.8446L13.3285 19.5785C12.8706 20.0363 12.1291 20.0363 11.6714 19.5785C11.2138 19.1207 11.2136 18.3791 11.6714 17.9215L13.2339 16.359C13.6917 15.9012 14.4333 15.9012 14.891 16.359L16.4535 17.9215C16.9113 18.3793 16.9113 19.1209 16.4535 19.5785C16.2246 19.8074 15.9255 19.9218 15.6249 19.9218Z" fill="#1B275F"/>
</svg>
