<svg width="50" height="44" viewBox="0 0 50 44" fill="none" xmlns="http://www.w3.org/2000/svg">
<path d="M48.6283 33.5257H33.9617C33.3826 33.5257 32.9141 33.0566 32.9141 32.478V9.43043C32.9141 8.85189 33.3826 8.38281 33.9617 8.38281H48.6283C49.2074 8.38281 49.676 8.85189 49.676 9.43043V32.478C49.676 33.0566 49.2074 33.5257 48.6283 33.5257ZM35.0093 31.4304H47.5807V10.478H35.0093V31.4304Z" fill="#1B275F"/>
<path d="M41.869 14.6685H40.715C38.7221 14.6685 37.1016 13.0475 37.1016 11.0545V9.43043C37.1016 8.85189 37.5701 8.38281 38.1492 8.38281H44.4349C45.0139 8.38281 45.4825 8.85189 45.4825 9.43043V11.0545C45.4825 13.0475 43.862 14.6685 41.869 14.6685ZM39.1968 10.478V11.0545C39.1968 11.8919 39.8782 12.5733 40.715 12.5733H41.869C42.7059 12.5733 43.3873 11.8919 43.3873 11.0545V10.478H39.1968Z" fill="#1B275F"/>
<path d="M41.0474 25.2355C40.7794 25.2355 40.5113 25.1332 40.3067 24.9286L38.1194 22.7413C37.7102 22.332 37.7102 21.6691 38.1194 21.2599C38.5286 20.8506 39.1916 20.8506 39.6008 21.2599L41.0474 22.7065L44.6814 19.0725C45.0906 18.6633 45.7535 18.6633 46.1628 19.0725C46.572 19.4818 46.572 20.1447 46.1628 20.5539L41.7881 24.9286C41.5835 25.1332 41.3155 25.2355 41.0474 25.2355Z" fill="#1B275F"/>
<path d="M26.6272 28.2868H2.53199C1.95294 28.2868 1.48438 27.8177 1.48438 27.2392V10.4773C1.48438 9.89876 1.95294 9.42969 2.53199 9.42969H26.6272C27.2063 9.42969 27.6748 9.89876 27.6748 10.4773V27.2392C27.6748 27.8177 27.2063 28.2868 26.6272 28.2868ZM3.57961 26.1916H25.5796V11.5249H3.57961V26.1916Z" fill="#1B275F"/>
<path d="M14.1072 22.9449C13.8392 22.9449 13.5711 22.8426 13.3665 22.638L10.6585 19.93C10.2493 19.5207 10.2493 18.8578 10.6585 18.4486C11.0677 18.0393 11.7307 18.0393 12.1399 18.4486L14.1072 20.4159L18.7826 15.7405C19.1919 15.3313 19.8548 15.3313 20.264 15.7405C20.6733 16.1497 20.6733 16.8127 20.264 17.2219L14.8479 22.638C14.6433 22.8426 14.3753 22.9449 14.1072 22.9449Z" fill="#1B275F"/>
<path d="M27.2379 33.5247H2.35699C1.87615 33.5247 1.45772 33.1974 1.34109 32.7314L0.0315653 27.4933C-0.0472107 27.1802 0.0233808 26.8487 0.221855 26.5945C0.42033 26.3403 0.725204 26.1914 1.04747 26.1914H28.5475C28.8697 26.1914 29.1746 26.3403 29.3731 26.5945C29.5715 26.8487 29.6421 27.1802 29.5634 27.4933L28.2538 32.7314C28.1372 33.1974 27.7188 33.5247 27.2379 33.5247ZM3.17544 31.4295H26.4195L27.2052 28.2866H2.38973L3.17544 31.4295Z" fill="#1B275F"/>
<path d="M15.1658 8.65769C15.0737 8.65769 14.9796 8.64541 14.8865 8.61932C14.3289 8.46586 14.0015 7.88886 14.155 7.33128C15.4195 2.74079 19.5588 0 25.2266 0H31.7016C37.0062 0 40.7936 2.17657 42.365 6.12867C42.5799 6.66629 42.3169 7.27553 41.7798 7.48935C41.2386 7.70419 40.6319 7.44075 40.4191 6.90313C38.7546 2.71982 34.2429 2.09524 31.7016 2.09524H25.2266C20.5584 2.09524 17.1741 4.26055 16.1745 7.88783C16.0467 8.3523 15.6252 8.65769 15.1658 8.65769Z" fill="#1B275F"/>
<path d="M31.7016 43.9986H25.2266C19.5588 43.9986 15.4195 41.2578 14.155 36.6673C14.0015 36.1097 14.3289 35.5327 14.8865 35.3793C15.443 35.2212 16.0211 35.5532 16.1745 36.1108C17.1741 39.738 20.5584 41.9034 25.2266 41.9034H31.7016C36.3709 41.9034 39.7552 39.738 40.7537 36.1108C40.9071 35.5532 41.4831 35.2253 42.0417 35.3788C42.5993 35.5327 42.9267 36.1092 42.7732 36.6673C41.5097 41.2578 37.3704 43.9986 31.7016 43.9986Z" fill="#1B275F"/>
</svg>
