<svg width="50" height="50" viewBox="0 0 50 50" fill="none" xmlns="http://www.w3.org/2000/svg">
<path d="M5.04688 46.0078H44.9453C46.832 46.0078 48.3672 44.4727 48.3672 42.5859V7.41406C48.3672 5.52656 46.832 3.99219 44.9453 3.99219H5.04688C3.16406 3.99219 1.63281 5.52734 1.63281 7.41406V42.5859C1.63281 44.4727 3.16406 46.0078 5.04688 46.0078ZM46.8047 42.5859C46.8047 43.6109 45.9711 44.4453 44.9453 44.4453H5.04688C4.02578 44.4453 3.19531 43.6117 3.19531 42.5859V13.4141H46.8047V42.5859ZM3.19531 7.41406C3.19531 6.38906 4.02578 5.55469 5.04688 5.55469H44.9453C45.9703 5.55469 46.8047 6.38906 46.8047 7.41406V11.8516H3.19531V7.41406Z" fill="#1B275F"/>
<path d="M8.525 7.92188H7.82812C7.39609 7.92188 7.04688 8.27188 7.04688 8.70312C7.04688 9.13437 7.39609 9.48438 7.82812 9.48438H8.525C8.95703 9.48438 9.30625 9.13437 9.30625 8.70312C9.30625 8.27188 8.95703 7.92188 8.525 7.92188Z" fill="#1B275F"/>
<path d="M43.0041 7.02207C42.6986 6.7166 42.2049 6.7166 41.8994 7.02207L41.3236 7.59785L40.7479 7.02207C40.4424 6.7166 39.9486 6.7166 39.6432 7.02207C39.3377 7.32754 39.3377 7.82207 39.6432 8.12676L40.2189 8.70254L39.6432 9.27832C39.3377 9.58301 39.3377 10.0775 39.6432 10.383C39.7955 10.5354 39.9955 10.6119 40.1955 10.6119C40.3955 10.6119 40.5955 10.5354 40.7479 10.383L41.3236 9.80723L41.8994 10.383C42.0518 10.5354 42.2518 10.6119 42.4518 10.6119C42.6518 10.6119 42.8518 10.5354 43.0041 10.383C43.3096 10.0775 43.3096 9.58301 43.0041 9.27832L42.4283 8.70254L43.0041 8.12676C43.3096 7.82207 43.3096 7.32754 43.0041 7.02207Z" fill="#1B275F"/>
<path d="M12.8609 7.92188H12.1641C11.732 7.92188 11.3828 8.27188 11.3828 8.70312C11.3828 9.13437 11.732 9.48438 12.1641 9.48438H12.8609C13.293 9.48438 13.6422 9.13437 13.6422 8.70312C13.6422 8.27188 13.293 7.92188 12.8609 7.92188Z" fill="#1B275F"/>
<path d="M17.1891 7.92188H16.4922C16.0602 7.92188 15.7109 8.27188 15.7109 8.70312C15.7109 9.13437 16.0602 9.48438 16.4922 9.48438H17.1891C17.6211 9.48438 17.9703 9.13437 17.9703 8.70312C17.9703 8.27188 17.6211 7.92188 17.1891 7.92188Z" fill="#1B275F"/>
<path d="M13.807 31.6477L16.0437 31.957C16.2047 32.4617 16.407 32.9508 16.6484 33.4188L15.2852 35.2195C15.05 35.5305 15.0797 35.968 15.3563 36.2437L17.8617 38.7492C18.1383 39.0258 18.5758 39.0547 18.8859 38.8195L20.6867 37.457C21.1563 37.7 21.6445 37.9016 22.1484 38.0617L22.4578 40.2992C22.5109 40.6859 22.8414 40.9734 23.2313 40.9734H26.7742C27.1641 40.9734 27.4945 40.6859 27.5477 40.2992L27.857 38.0617C28.3617 37.9016 28.85 37.6992 29.3187 37.457L31.1195 38.8195C31.4305 39.0539 31.868 39.0258 32.1437 38.7492L34.6492 36.2437C34.9258 35.968 34.9555 35.5305 34.7203 35.2195L33.357 33.4188C33.5992 32.9508 33.8008 32.4617 33.9617 31.957L36.1984 31.6477C36.5852 31.5945 36.8727 31.2641 36.8727 30.8734V27.3305C36.8727 26.9398 36.5852 26.6102 36.1984 26.5563L33.9617 26.2469C33.8008 25.7422 33.5984 25.2531 33.357 24.7852L34.7203 22.9844C34.9555 22.6734 34.9258 22.2359 34.6492 21.9602L32.1437 19.4547C31.868 19.1781 31.4312 19.15 31.1195 19.3844L29.3187 20.7469C28.8492 20.5039 28.3609 20.3023 27.857 20.1422L27.5477 17.9047C27.4945 17.518 27.1641 17.2305 26.7742 17.2305H23.2313C22.8414 17.2305 22.5109 17.518 22.4578 17.9047L22.1484 20.1422C21.6438 20.3023 21.1555 20.5047 20.6867 20.7469L18.8859 19.3844C18.5766 19.15 18.1383 19.1789 17.8617 19.4547L15.3563 21.9602C15.0797 22.2359 15.05 22.6734 15.2852 22.9844L16.6484 24.7852C16.4062 25.2531 16.2047 25.7422 16.0437 26.2469L13.807 26.5563C13.4203 26.6102 13.1328 26.9398 13.1328 27.3305V30.8734C13.1328 31.2641 13.4203 31.5937 13.807 31.6477ZM14.6953 28.0117L16.7617 27.7258C17.0758 27.682 17.332 27.4531 17.4117 27.1461C17.5953 26.4297 17.8789 25.7469 18.2508 25.1172C18.4125 24.8437 18.393 24.5008 18.2023 24.2477L16.9438 22.5852L18.4867 21.0422L20.15 22.3008C20.4039 22.493 20.7484 22.5117 21.0187 22.35C21.6516 21.9758 22.3344 21.6937 23.0484 21.5102C23.3555 21.4312 23.5844 21.1742 23.6273 20.8602L23.9133 18.7937H26.0953L26.3813 20.8602C26.425 21.1742 26.6539 21.4305 26.9602 21.5102C27.6742 21.693 28.357 21.9758 28.9898 22.35C29.2609 22.5109 29.6047 22.4914 29.8586 22.3008L31.5219 21.0422L33.0648 22.5852L31.8062 24.2477C31.6156 24.5008 31.5953 24.8437 31.7578 25.1172C32.1305 25.7477 32.4133 26.4297 32.5969 27.1461C32.6766 27.4531 32.9328 27.682 33.2469 27.7258L35.3133 28.0117V30.193L33.2469 30.4789C32.9328 30.5227 32.6766 30.7516 32.5969 31.0586C32.4133 31.775 32.1297 32.4578 31.7578 33.0875C31.5961 33.3609 31.6156 33.7039 31.8062 33.957L33.0648 35.6195L31.5219 37.1625L29.8586 35.9039C29.6055 35.7125 29.2609 35.693 28.9898 35.8547C28.357 36.2289 27.6742 36.5109 26.9602 36.6945C26.6531 36.7734 26.4242 37.0305 26.3813 37.3445L26.0953 39.4109H23.9133L23.6273 37.3445C23.5836 37.0305 23.3547 36.7742 23.0484 36.6945C22.3344 36.5117 21.6516 36.2289 21.0187 35.8547C20.7469 35.693 20.4031 35.7125 20.15 35.9039L18.4867 37.1625L16.9438 35.6195L18.2023 33.957C18.393 33.7039 18.4133 33.3609 18.2508 33.0875C17.8781 32.457 17.5953 31.775 17.4117 31.0586C17.332 30.7516 17.0758 30.5227 16.7617 30.4789L14.6953 30.193V28.0117Z" fill="#1B275F"/>
<path d="M25.0031 34.3305C27.8867 34.3305 30.2328 31.9844 30.2328 29.1008C30.2328 26.2172 27.8867 23.8711 25.0031 23.8711C22.1195 23.8711 19.7734 26.2172 19.7734 29.1008C19.7734 31.9844 22.1195 34.3305 25.0031 34.3305ZM25.0031 25.4328C27.0258 25.4328 28.6703 27.0781 28.6703 29.1C28.6703 31.1219 27.0258 32.7672 25.0031 32.7672C22.9805 32.7672 21.3359 31.1219 21.3359 29.1C21.3359 27.0781 22.9805 25.4328 25.0031 25.4328Z" fill="#1B275F"/>
</svg>
