<svg width="51" height="47" viewBox="0 0 51 47" fill="none" xmlns="http://www.w3.org/2000/svg">
<path d="M6.15142 6.20909H7.29081C7.74657 6.20909 8.14536 5.8103 8.14536 5.35455C8.14536 4.89879 7.74657 4.5 7.29081 4.5H6.15142C5.69566 4.5 5.29688 4.89879 5.29688 5.35455C5.29688 5.8103 5.63869 6.20909 6.15142 6.20909Z" fill="#1B275F"/>
<path d="M11.0499 6.20909H12.1893C12.645 6.20909 13.0438 5.8103 13.0438 5.35455C13.0438 4.89879 12.645 4.5 12.1893 4.5H11.0499C10.5941 4.5 10.1953 4.89879 10.1953 5.35455C10.1953 5.8103 10.5941 6.20909 11.0499 6.20909Z" fill="#1B275F"/>
<path d="M15.9483 6.20909H17.0877C17.5434 6.20909 17.9422 5.8103 17.9422 5.35455C17.9422 4.89879 17.5434 4.5 17.0877 4.5H15.9483C15.4925 4.5 15.0938 4.89879 15.0938 5.35455C15.0938 5.8103 15.4925 6.20909 15.9483 6.20909Z" fill="#1B275F"/>
<path d="M26.2061 16.6935H35.3213C35.777 16.6935 36.1758 16.2947 36.1758 15.8389C36.1758 15.3832 35.777 14.9844 35.3213 14.9844H26.2061C25.7504 14.9844 25.3516 15.3832 25.3516 15.8389C25.3516 16.2947 25.7504 16.6935 26.2061 16.6935Z" fill="#1B275F"/>
<path d="M26.2061 22.7872H33.2134C33.6691 22.7872 34.0679 22.3884 34.0679 21.9327C34.0679 21.4769 33.6691 21.0781 33.2134 21.0781H26.2061C25.7504 21.0781 25.3516 21.4769 25.3516 21.9327C25.3516 22.3884 25.7504 22.7872 26.2061 22.7872Z" fill="#1B275F"/>
<path d="M22.6153 33.1562H6.54986C6.0941 33.1562 5.69531 33.555 5.69531 34.0108C5.69531 34.4666 6.0941 34.8653 6.54986 34.8653H22.6153C23.0711 34.8653 23.4699 34.4666 23.4699 34.0108C23.4699 33.555 23.0711 33.1562 22.6153 33.1562Z" fill="#1B275F"/>
<path d="M6.54986 28.8263H25.2359C25.6917 28.8263 26.0905 28.4275 26.0905 27.9717C26.0905 27.516 25.6917 27.1172 25.2359 27.1172H6.54986C6.0941 27.1172 5.69531 27.516 5.69531 27.9717C5.69531 28.4275 6.03713 28.8263 6.54986 28.8263Z" fill="#1B275F"/>
<path d="M19.8238 39.2539H6.54986C6.0941 39.2539 5.69531 39.6527 5.69531 40.1085C5.69531 40.5642 6.0941 40.963 6.54986 40.963H19.8238C20.2796 40.963 20.6783 40.5642 20.6783 40.1085C20.6783 39.6527 20.2796 39.2539 19.8238 39.2539Z" fill="#1B275F"/>
<path d="M50.3042 19.4267C50.3042 18.743 50.0764 18.1733 49.5636 17.7176L47.5697 15.7236C46.6012 14.7552 45.063 14.7552 44.0945 15.7236L41.7588 18.0594V3.64606C41.7588 1.65212 40.1067 0 38.1127 0H3.64606C1.65212 0 0 1.65212 0 3.64606V43.3539C0 45.3479 1.65212 47 3.64606 47H38.2267C40.2206 47 41.8727 45.3479 41.8727 43.3539V28.8836L49.6206 21.1358C50.0764 20.68 50.3042 20.0533 50.3042 19.4267ZM31.7321 36.5745L28.7127 33.5551L42.1576 20.1103L45.177 23.1297L31.7321 36.5745ZM27.8582 35.1503L30.1939 37.4861L26.6048 38.7394L27.8582 35.1503ZM3.64606 1.76606H38.2267C39.3091 1.76606 40.1636 2.62061 40.1636 3.70303V8.94424H1.70909V3.70303C1.70909 2.62061 2.56364 1.76606 3.64606 1.76606ZM40.1067 43.4109C40.1067 44.4933 39.2521 45.3479 38.1697 45.3479H3.64606C2.56364 45.3479 1.70909 44.4933 1.70909 43.4109V10.6533H40.1067V19.7685L26.8897 32.9855C26.7758 33.0994 26.7188 33.2133 26.6618 33.3273L24.383 39.8788C24.2691 40.1636 24.3261 40.5624 24.6109 40.7903C24.7818 40.9612 25.0097 41.0182 25.2376 41.0182C25.3515 41.0182 25.4085 41.0182 25.5224 40.9612L32.0739 38.6824C32.1879 38.6255 32.3018 38.5685 32.4158 38.4545L40.2206 30.6497V43.4109H40.1067ZM48.3673 19.9394L46.3164 21.9903L43.297 18.9709L45.3479 16.92C45.6327 16.6352 46.0885 16.6352 46.3733 16.92L48.3673 18.9139C48.4812 19.0279 48.5952 19.2558 48.5952 19.4267C48.5952 19.5976 48.5382 19.8255 48.3673 19.9394Z" fill="#1B275F"/>
<path d="M6.54986 22.7892H20.9632C21.4189 22.7892 21.8177 22.3904 21.8177 21.9347V15.8389C21.8177 15.3832 21.4189 14.9844 20.9632 14.9844H6.54986C6.0941 14.9844 5.69531 15.3832 5.69531 15.8389V21.8777C5.69531 22.3904 6.03713 22.7892 6.54986 22.7892ZM7.4044 16.6935H20.1086V21.0232H7.4044V16.6935Z" fill="#1B275F"/>
</svg>
