<svg width="50" height="50" viewBox="0 0 50 50" fill="none" xmlns="http://www.w3.org/2000/svg">
<rect width="50" height="50" rx="13.5294" fill="#364EBE"/>
<path d="M34.1328 24.5195H15.875C16.1731 22.9211 17.5789 21.707 19.2627 21.707H30.7452C32.4289 21.707 33.8347 22.9211 34.1328 24.5195Z" fill="white"/>
<path d="M34.1875 25.9258V31.6816C34.1875 33.5819 32.6411 35.1283 30.7408 35.1283H28.9183C28.3263 35.1283 27.7548 34.9525 27.2659 34.6192L25.233 33.2355C25.0914 33.1394 24.9086 33.1394 24.7675 33.2355L22.7341 34.6192C22.2452 34.9525 21.6738 35.1283 21.0817 35.1283H19.2588C17.3584 35.1283 15.8125 33.5823 15.8125 31.682V25.9258H34.1875Z" fill="white"/>
<path d="M14.4062 25.5547V31.2819H13.7031C13.315 31.2819 13 30.9669 13 30.5788V26.2578C13 25.8692 13.315 25.5547 13.7031 25.5547H14.4062Z" fill="white"/>
<path d="M37 26.2578V30.5788C37 30.9669 36.685 31.2819 36.2969 31.2819H35.5938V25.5547H36.2969C36.685 25.5547 37 25.8692 37 26.2578Z" fill="white"/>
<path d="M27.9907 20.1199C27.19 19.3197 26.1257 18.8789 24.9939 18.8789C23.862 18.8789 22.7977 19.3196 21.997 20.1199C21.7224 20.3944 21.2773 20.3943 21.0027 20.1196C20.7282 19.845 20.7283 19.3998 21.003 19.1253C22.0692 18.0596 23.4865 17.4727 24.9939 17.4727C26.5012 17.4727 27.9185 18.0596 28.9847 19.1253C29.2594 19.3998 29.2595 19.845 28.985 20.1196C28.7106 20.3942 28.2654 20.3946 27.9907 20.1199Z" fill="white"/>
<path d="M29.834 18.2807C28.5418 16.9889 26.8242 16.2773 24.9976 16.2773C23.171 16.2773 21.4534 16.9889 20.1612 18.2807C19.8866 18.5552 19.4414 18.5552 19.1668 18.2806C18.8923 18.006 18.8923 17.5608 19.1669 17.2862C20.7248 15.7288 22.7955 14.8711 24.9976 14.8711C27.1997 14.8711 29.2704 15.7288 30.8283 17.2862C31.1029 17.5607 31.1029 18.0059 30.8284 18.2806C30.5539 18.5551 30.1088 18.5553 29.834 18.2807Z" fill="white"/>
</svg>
