<svg width="50" height="50" viewBox="0 0 50 50" fill="none" xmlns="http://www.w3.org/2000/svg">
<rect width="50" height="50" rx="13.5294" fill="#364EBE"/>
<path d="M23.4463 16.5529C23.5296 16.695 23.4806 16.8714 23.3385 16.9548L22.5053 17.4497L24.6274 18.6211V16.2441L22.3828 14.9258V16.8371L23.0444 16.45C23.1817 16.3666 23.363 16.4157 23.4463 16.5529Z" fill="white"/>
<path d="M24.9217 15.7347L25.8087 15.2103L27.2496 14.3674L24.9217 13L22.5938 14.3674L23.7945 15.0682L24.9217 15.7347Z" fill="white"/>
<path d="M25.6912 24.3012C25.6961 24.1002 25.5343 23.9385 25.3334 23.9336C25.3285 23.9336 25.3285 23.9336 25.3236 23.9336H24.1719V24.6687H25.3236C25.5245 24.6687 25.6912 24.5021 25.6912 24.3012Z" fill="white"/>
<path d="M24.6274 27.4374H25.2155V27.7903L27.4601 26.5455V24.0901L26.9161 24.4087L26.6172 23.9039L27.2494 23.5314L24.9215 22.1641L22.5985 23.5314L22.9758 23.752L22.6769 24.2616L22.3828 24.0901V26.5455L24.6274 27.7903V27.4374ZM24.6225 26.8444H24.0344V26.5798H23.8825C23.7208 26.5798 23.5884 26.4474 23.5884 26.2857V23.6392C23.5884 23.4775 23.7208 23.3452 23.8825 23.3452H24.0344V23.0805H24.6225V23.3452H24.9215V23.0805H25.5096V23.3599C25.9605 23.4481 26.2839 23.8402 26.2839 24.3009C26.2839 24.5459 26.1859 24.7811 26.0193 24.9625C26.3819 25.3496 26.3672 25.9574 25.9801 26.32C25.8477 26.4425 25.686 26.5308 25.5096 26.5651V26.8444H24.9215V26.5798H24.6225V26.8444Z" fill="white"/>
<path d="M25.2188 18.6211L27.3457 17.4497L26.3117 16.842C26.1744 16.7587 26.1254 16.5774 26.2087 16.4402C26.2871 16.3029 26.4636 16.2539 26.6057 16.3323L26.6106 16.3372L27.4634 16.8371V14.9258L25.2188 16.2441V18.6211Z" fill="white"/>
<path d="M25.6912 25.6254C25.6912 25.4244 25.5245 25.2578 25.3236 25.2578H24.1719V25.9929H25.3236C25.5245 25.9929 25.6912 25.8263 25.6912 25.6254Z" fill="white"/>
<path d="M15.1899 21.8681L12.9453 20.5547V23.01L15.1899 24.25V21.8681Z" fill="white"/>
<path d="M15.7812 32.1728L17.7269 31.0946L16.6732 30.4771C16.5409 30.384 16.5066 30.2027 16.5997 30.0703C16.683 29.9478 16.8447 29.9086 16.9722 29.9723L18.0259 30.5898V28.4727L15.7812 29.791V32.1728Z" fill="white"/>
<path d="M12.9453 30.9329L15.1899 32.1728V29.791L12.9453 28.4727V30.9329Z" fill="white"/>
<path d="M17.5867 27.7819L17.5622 27.7721L15.4842 26.5469L13.1562 27.9142L15.4842 29.2816L17.8121 27.9142L17.5867 27.7819Z" fill="white"/>
<path d="M19.8281 28.0504L24.6261 30.7018V28.4621L21.9453 26.9771C21.8522 26.9281 21.7934 26.8301 21.7934 26.7223V23.7425L19.8281 22.5859V23.8259C19.833 23.8602 19.833 23.8994 19.8281 23.9337V28.0504Z" fill="white"/>
<path d="M17.276 22.2083L18.0259 22.6445V20.5469L15.7812 21.8652V24.2471L17.7416 23.164L16.9771 22.7131C16.8447 22.62 16.8104 22.4386 16.9036 22.3063C16.9869 22.1838 17.1437 22.1446 17.276 22.2083Z" fill="white"/>
<path d="M15.4842 21.3548L17.8121 19.9924L15.4842 18.625L13.1562 19.9924L14.2246 20.6148L15.4842 21.3548Z" fill="white"/>
<path d="M24.7779 21.5691C24.8711 21.5152 24.9838 21.5152 25.0769 21.5691L27.8312 23.1864L29.7328 22.0739L25.1063 19.3539L24.925 19.2461L24.7485 19.3539H24.7436L20.1172 22.0739L22.0187 23.1864L24.7779 21.5691Z" fill="white"/>
<path d="M36.8463 19.9924L34.5183 18.625L32.1953 19.9924L34.5183 21.3548L36.8463 19.9924Z" fill="white"/>
<path d="M31.9766 31.0925L32.9518 30.524C33.0891 30.4407 33.2655 30.4848 33.3488 30.622L33.3537 30.6269C33.437 30.7641 33.388 30.9455 33.2508 31.0288L32.447 31.5042L34.2212 32.4843V30.1074L31.9766 28.7891V31.0925Z" fill="white"/>
<path d="M34.8125 32.4843L37.0571 31.2444V28.7891L34.8125 30.1074V32.4843Z" fill="white"/>
<path d="M33.2998 22.4239C33.3831 22.5611 33.3341 22.7425 33.1969 22.8258L32.447 23.2669L34.2212 24.2471V21.8652L31.9766 20.5469V22.8601L32.8979 22.321C33.0352 22.2377 33.2165 22.2867 33.2998 22.4239Z" fill="white"/>
<path d="M35.6457 21.38L34.8125 21.8652V24.2471L37.0571 23.0071V20.5469L35.6457 21.38Z" fill="white"/>
<path d="M30.0167 28.0504V22.5859L28.0515 23.7425V26.7223C28.0515 26.8301 27.9927 26.9281 27.8995 26.9771L25.2188 28.4621V30.7018L30.0167 28.0504Z" fill="white"/>
<path d="M25.0638 31.4622L24.9217 31.3789L24.7796 31.4622L22.5938 32.7414L24.9217 34.1087L27.2496 32.7414L25.0638 31.4622Z" fill="white"/>
<path d="M22.3828 35.761L24.6274 37.001V34.6191L22.3828 33.3008V35.761Z" fill="white"/>
<path d="M25.2188 37.001L27.4634 35.761V33.3008L25.2188 34.6191V37.001Z" fill="white"/>
<path d="M34.5183 26.8633L32.6315 27.9709L32.6119 27.9856L32.1953 28.2306L34.5183 29.598L36.8463 28.2306L34.5183 26.8633Z" fill="white"/>
<path d="M31.5338 19.6938L31.9259 19.4635L28.0444 17.1797V17.5522C28.0444 17.6453 28.0003 17.7384 27.9219 17.7923L31.4113 19.8409C31.4309 19.7772 31.475 19.7233 31.5338 19.6938Z" fill="white"/>
<path d="M31.3955 23.2031L30.6016 23.6687V24.3499L31.8611 23.6099L31.5425 23.4384C31.4592 23.3894 31.4004 23.3011 31.3955 23.2031Z" fill="white"/>
<path d="M18.5509 19.7723L21.9178 17.7923C21.8394 17.7384 21.7953 17.6453 21.7953 17.5522V17.1797L17.9922 19.4145L18.4627 19.6938C18.497 19.7135 18.5264 19.738 18.5509 19.7723Z" fill="white"/>
<path d="M18.6115 31.1041C18.6115 31.212 18.5526 31.31 18.4595 31.359L18.3125 31.4423L21.797 33.4909V32.8096L18.6115 30.9375V31.1041Z" fill="white"/>
<path d="M19.238 26.293L17.7188 27.1849L18.2971 27.528L19.238 26.9742V26.293Z" fill="white"/>
<path d="M31.3942 31.4414L28.0469 33.4067V34.0879L31.8549 31.8482L31.5412 31.6767C31.4579 31.6276 31.3991 31.5394 31.3942 31.4414Z" fill="white"/>
<path d="M30.6016 26.293V26.9742L31.8905 27.7289L32.4688 27.3908L30.6016 26.293Z" fill="white"/>
<path d="M18.4604 23.4382L18.3281 23.5068L19.2446 24.0459V23.3647L18.6124 22.9922V23.1784C18.6124 23.2862 18.5536 23.3843 18.4604 23.4382Z" fill="white"/>
</svg>
