<svg width="50" height="50" viewBox="0 0 50 50" fill="none" xmlns="http://www.w3.org/2000/svg">
<rect width="50" height="50" rx="13.5294" fill="#364EBE"/>
<path d="M20.1016 32.0332C20.4189 32.3972 22.0802 33.0132 25.0016 33.0132C27.9416 33.0132 29.5982 32.3925 29.9062 32.0285V29.6719C28.7722 30.5399 26.7889 30.8852 25.0016 30.8852C23.2142 30.8852 21.2356 30.5399 20.1016 29.6719V32.0332Z" fill="white"/>
<path d="M20.1016 34.0391C20.1016 35.3738 22.5656 36.0691 25.0016 36.0691C27.4376 36.0691 29.9062 35.3738 29.9062 34.0391V33.1758C28.7302 33.6844 26.8589 33.9458 25.0016 33.9458C23.1442 33.9458 21.2729 33.6844 20.1016 33.1758V34.0391Z" fill="white"/>
<path d="M31.3306 19.833C30.9853 19.833 30.6399 19.8657 30.3039 19.9357C30.3319 19.7117 30.3459 19.4924 30.3459 19.273C30.3459 16.3284 27.9473 13.9297 25.0026 13.9297C22.0579 13.9297 19.6639 16.3284 19.6639 19.273C19.6639 19.4924 19.6779 19.7117 19.7059 19.9357C19.3653 19.8657 19.0246 19.833 18.6793 19.833C15.7346 19.833 13.3359 22.227 13.3359 25.1717C13.3359 28.1164 15.7346 30.515 18.6793 30.515H19.1693V27.7804L19.1833 27.7897C19.3093 25.7037 22.3659 24.957 25.0026 24.957C27.6393 24.957 30.7006 25.7037 30.8266 27.7897L30.8406 27.7804V30.515H31.3306C34.2753 30.515 36.6693 28.1164 36.6693 25.1717C36.6693 22.227 34.2753 19.833 31.3306 19.833Z" fill="white"/>
<path d="M29.9062 27.9206C29.9062 26.5906 27.4376 25.8906 25.0016 25.8906C22.5656 25.8906 20.1016 26.5906 20.1016 27.9206C20.1016 29.2553 22.5656 29.9506 25.0016 29.9506C27.4376 29.9506 29.9062 29.2553 29.9062 27.9206Z" fill="white"/>
</svg>
