<svg width="41" height="41" viewBox="0 0 41 41" fill="none" xmlns="http://www.w3.org/2000/svg">
<path d="M0 20.5C0 9.17816 9.17816 0 20.5 0C31.8218 0 41 9.17816 41 20.5C41 31.8218 31.8218 41 20.5 41C9.17816 41 0 31.8218 0 20.5Z" fill="#F5FAFE"/>
<path d="M12.6094 19.4984H25.9969L21.1406 14.6422C20.7469 14.2484 20.7469 13.6578 21.1406 13.2641C21.5344 12.8703 22.125 12.8703 22.5187 13.2641L29.0812 19.8266C29.475 20.2203 29.475 20.8109 29.0812 21.2047L22.5187 27.7673C22.3219 27.9641 22.0594 28.0298 21.7969 28.0298C21.5344 28.0298 21.2719 27.9641 21.075 27.7673C20.6812 27.3735 20.6812 26.7829 21.075 26.3891L25.9312 21.5328H12.6094C12.0844 21.5328 11.625 21.0734 11.625 20.5484C11.625 20.0234 12.0844 19.4984 12.6094 19.4984Z" fill="#65686C"/>
</svg>
