<svg width="194" height="45" viewBox="0 0 194 45" fill="none" xmlns="http://www.w3.org/2000/svg">
<path d="M21.3245 22.1707L25.7721 30.5971C23.1697 33.3206 19.519 35.0222 15.4757 35.0222C12.199 35.0222 9.18322 33.9032 6.77137 32.0366C9.40778 25.6994 15.2022 16.926 23.2141 8.42336C27.1648 10.9946 29.7818 15.4724 29.7818 20.5727C29.7818 22.7671 29.2953 24.8439 28.4279 26.7073C25.8133 25.555 23.3686 24.0764 21.3245 22.1707ZM4.30981 29.6019C2.345 27.1264 1.16737 23.9869 1.16737 20.5727C1.16737 12.5928 7.57429 6.12379 15.4757 6.12379C17.7049 6.12379 19.8152 6.63936 21.6969 7.55765C13.7813 14.4819 7.72272 22.6635 4.30981 29.6019ZM29.5075 27.161C30.4316 25.1595 30.9499 22.9256 30.9499 20.5727C30.9499 15.1396 28.2041 10.3574 24.0396 7.55608C26.5214 4.97948 29.2021 2.43473 32.0615 0C28.7139 1.9882 25.5691 4.27053 22.6592 6.73116C20.5123 5.5925 18.0688 4.94399 15.4757 4.94399C6.92836 4.94399 0 11.9406 0 20.5727C0 24.4705 1.41699 28.0307 3.75419 30.7681C0.790472 37.2372 0.26887 42.4425 2.88134 44.2008C5.67705 46.0828 11.7582 42.6717 15.4066 37.1116C15.4066 37.1116 9.76307 42.2528 6.6657 41.0738C4.75292 40.3438 4.74904 37.3974 6.32298 33.1715C8.88633 35.0726 12.0504 36.198 15.4757 36.198C19.7142 36.198 23.5537 34.476 26.3487 31.6897L26.899 32.7336C33.644 32.1794 53.7857 31.6458 53.7857 31.6458C53.7857 30.6646 40.4465 31.5499 29.5075 27.161Z" fill="#A3ACB5"/>
<path d="M121.833 19.1378L124.356 15.7566L115.572 15.755L117.737 12.8557H126.52L129.043 9.47363H111.511L99.4514 25.6381H116.983L119.504 22.257H110.726L113.049 19.1378H121.833Z" fill="#A3ACB5"/>
<path d="M134.011 9.47363L121.951 25.6381H130.703L142.761 9.47363H134.011Z" fill="#A3ACB5"/>
<path d="M163.162 9.47363L157.05 17.6669L155.174 9.47363H148.334L136.271 25.6381H142.062L148.12 17.5194L149.979 25.6381H156.893L168.953 9.47363H163.162Z" fill="#A3ACB5"/>
<path d="M191.773 9.47343L177.711 9.47266C175.301 9.47266 173.166 10.6382 171.819 12.4418L164.557 22.1736C164.286 22.5331 164.128 22.9866 164.128 23.4733C164.128 24.6694 165.086 25.638 166.27 25.638H180.332C182.738 25.638 184.881 24.4748 186.225 22.6712L187.972 20.3323H190.001L192.541 16.9275H181.772L178.37 21.486C178.02 21.9522 177.466 22.2553 176.84 22.2553H174.364C174.055 22.2553 173.806 22.004 173.806 21.6932C173.806 21.5661 173.848 21.4484 173.918 21.3556L179.688 13.6246C180.035 13.1561 180.589 12.8555 181.215 12.8555H183.693C184.001 12.8555 184.249 13.1082 184.249 13.4174C184.249 13.5431 184.206 13.6606 184.137 13.755L183.2 15.0107H191.944L193.486 12.9401C193.757 12.5783 193.917 12.1279 193.917 11.6381C193.917 10.4443 192.956 9.47343 191.773 9.47343Z" fill="#A3ACB5"/>
<path d="M94.558 13.7552L88.7892 21.4862C88.4409 21.9524 87.8859 22.2554 87.2611 22.2554H84.7832C84.4778 22.2554 84.2282 22.0042 84.2282 21.6951C84.2282 21.5663 84.2701 21.4486 84.3385 21.3558L90.1075 13.6264C90.4572 13.1594 91.0112 12.8557 91.6356 12.8557H94.1139C94.4204 12.8557 94.6691 13.1083 94.6691 13.4175C94.6691 13.5433 94.6285 13.6609 94.558 13.7552ZM104.337 11.6383C104.337 10.4445 103.378 9.47363 102.194 9.47363H88.1355C85.726 9.47363 83.5887 10.6383 82.2416 12.442L74.9799 22.1739C74.7109 22.5348 74.5508 22.9868 74.5508 23.4735C74.5508 24.6697 75.5091 25.6382 76.692 25.6382L90.7525 25.6399C93.1603 25.6399 95.3003 24.4751 96.6464 22.6714L103.91 12.9421C104.179 12.5785 104.337 12.1281 104.337 11.6383Z" fill="#A3ACB5"/>
<path d="M67.8322 13.7552L66.9119 14.9891C66.5621 15.4535 66.0086 15.7566 65.3838 15.7566L61.7897 15.755L63.9544 12.8557H67.3875C67.6945 12.8557 67.9441 13.1084 67.9441 13.4176C67.9441 13.5433 67.9013 13.6609 67.8322 13.7552ZM63.1439 20.0374L62.0619 21.4877C61.7128 21.9524 61.158 22.2571 60.533 22.2571H56.9405L59.267 19.1379H62.7C63.007 19.1379 63.2549 19.3906 63.2549 19.6982C63.2549 19.827 63.2146 19.9447 63.1439 20.0374ZM71.2637 17.9528C72.9892 17.5587 74.4854 16.5523 75.5168 15.1726L77.1809 12.942C77.4506 12.5785 77.6106 12.1281 77.6106 11.6383C77.6106 10.4445 76.6508 9.47363 75.4679 9.47363H66.4774H57.7287L45.6672 25.6381H54.2614L64.0243 25.6399C66.4338 25.6399 68.5721 24.475 69.9198 22.6714L71.6206 20.3906C71.8372 20.1032 71.964 19.7391 71.964 19.3497C71.964 18.7767 71.6882 18.2682 71.2637 17.9528Z" fill="#A3ACB5"/>
</svg>
