<svg width="86" height="25" viewBox="0 0 86 25" fill="none" xmlns="http://www.w3.org/2000/svg">
<path d="M22.2671 0H26.2066V24.3219H22.2671V0Z" fill="white"/>
<path d="M39.9106 16.6142C39.9106 20.3824 36.8275 20.725 35.7998 20.725C33.4019 20.725 33.0593 18.4983 33.0593 17.2994V7.87891H29.1199V17.1281C29.1199 19.3547 29.805 21.4101 31.1752 22.6091C32.3742 23.808 33.9157 24.3219 35.7998 24.3219C37.1701 24.3219 38.8829 23.9793 39.9106 22.9516V24.3219H43.85V7.87891H39.9106V16.6142Z" fill="white"/>
<path d="M51.5551 1.88477H47.6156V7.8796H44.7039V11.6478H47.6156V24.3226H51.5551V11.6478H54.4669V7.8796H51.5551V1.88477Z" fill="white"/>
<path d="M66.8007 19.3535C65.9443 20.0387 64.7453 20.5525 63.5463 20.5525C60.8058 20.5525 58.9217 18.4971 58.9217 15.7566C58.9217 13.0161 60.8058 11.1321 63.5463 11.1321C64.7453 11.1321 65.9443 11.4746 66.8007 12.331L67.3145 12.8449L70.055 10.2756L69.3699 9.76181C67.8284 8.39156 65.773 7.53516 63.5463 7.53516C58.7505 7.53516 55.1536 11.1321 55.1536 15.9279C55.1536 20.7238 58.7505 24.3207 63.5463 24.3207C65.773 24.3207 67.8284 23.4643 69.3699 22.094L70.055 21.5802L67.3145 18.8397L66.8007 19.3535Z" fill="white"/>
<path d="M83.9279 9.24918C82.7289 8.05021 81.53 7.53637 79.6459 7.53637C78.2756 7.53637 76.9054 7.87892 75.8777 8.90661V0H71.9382V24.3219H75.8777V15.244C75.8777 11.4758 78.4469 11.1333 79.4746 11.1333C81.8725 11.1333 81.7013 13.3599 81.7013 14.5589V24.1506H85.6407V14.7302C85.6407 12.5035 85.1269 10.4481 83.9279 9.24918Z" fill="white"/>
<path d="M63.3743 18.6704C64.8878 18.6704 66.1148 17.4435 66.1148 15.9299C66.1148 14.4164 64.8878 13.1895 63.3743 13.1895C61.8608 13.1895 60.6338 14.4164 60.6338 15.9299C60.6338 17.4435 61.8608 18.6704 63.3743 18.6704Z" fill="#EF4335"/>
<path d="M16.7855 18.3264C15.4153 19.6966 13.3599 20.553 11.1333 20.553C6.85124 20.553 3.76818 17.1274 3.76818 12.5028C3.76818 7.87824 6.85124 4.45262 11.3045 4.45262C13.3599 4.45262 15.4153 5.30903 16.9568 6.85056L17.4707 7.3644L20.0399 4.79519L19.526 4.28134C17.2994 2.05469 14.3876 0.855722 11.3045 0.855722C4.79587 0.684441 0 5.82287 0 12.5028C0 19.1828 4.79587 24.3212 11.1333 24.3212C14.2163 24.3212 17.2994 23.1222 19.3547 20.8956L19.8686 20.3818L17.2994 17.8125L16.7855 18.3264Z" fill="white"/>
</svg>
