<svg width="193" height="50" viewBox="0 0 193 50" fill="none" xmlns="http://www.w3.org/2000/svg">
<g clip-path="url(#clip0_27083_19525)">
<path d="M135.582 13.1713C136.379 13.0388 139.032 13.1293 139.829 13.2645C140.877 13.442 142.65 14.148 143.47 14.866C143.656 15.029 144.064 15.5987 144.229 15.8308L144.89 15.2563C144.934 14.7987 144.959 13.9124 145.269 13.6065C146.036 13.2103 148.903 13.3183 149.827 13.5444C150.038 14.8211 149.99 16.7295 149.991 18.0734L149.982 24.7922C149.974 26.7792 149.976 28.7661 149.988 30.7531C150 32.3278 150.179 35.1205 149.654 36.5496C149.51 36.9387 145.782 36.8336 145.234 36.7721C145.027 36.023 145.151 34.7193 144.341 34.4524C143.745 34.5623 143.443 35.1563 143.095 35.6539C142.769 35.9339 139.992 36.8104 139.382 36.8603C135.59 37.1705 132.639 36.9127 129.561 34.3858C126.474 31.8507 125.855 29.3209 125.34 25.5743C125.18 24.7045 125.5 23.8865 125.581 23.0519C126.101 17.7022 130.169 13.7485 135.582 13.1713ZM137.898 32.6429C142.121 32.6751 145.565 29.2709 145.58 25.0503C145.595 20.8297 142.176 17.4005 137.954 17.402C133.756 17.4036 130.349 20.798 130.334 24.9949C130.319 29.1916 133.701 32.6108 137.898 32.6429Z" fill="#A3ACB5"/>
<path d="M49.48 12.9404C56.1952 11.7329 62.6096 16.2226 63.7713 22.9435C64.9331 29.6646 60.3978 36.0456 53.6666 37.1607C47.0006 38.2649 40.6926 33.7846 39.5421 27.1288C38.3916 20.4729 42.8299 14.1363 49.48 12.9404ZM52.4102 32.4049C56.4909 31.9874 59.4568 28.3365 59.0282 24.2584C58.5996 20.1802 54.9397 17.2252 50.8613 17.6644C46.7981 18.1019 43.8555 21.7439 44.2824 25.8068C44.7094 29.8696 48.3448 32.8208 52.4102 32.4049Z" fill="#A3ACB5"/>
<path d="M76.263 13.1613C78.7474 12.956 80.3081 13.0777 82.1369 14.8071C82.6094 15.2538 83.2134 15.5942 83.8447 15.7763C85.9312 13.8077 87.3619 13.1304 90.2034 13.1261C92.4285 13.1228 93.7113 13.2689 95.6573 14.5546C96.7702 15.2493 98.2097 17.1615 98.4547 18.4941C98.9098 20.9701 98.7484 24.0682 98.8047 26.6127C98.8582 28.6571 98.8816 30.7022 98.8732 32.7472C98.8741 34.4866 99.1491 35.347 98.1609 36.8449C96.8988 36.8867 95.3964 36.8227 94.031 36.8606C93.6201 35.1987 93.729 32.6295 93.7328 30.8525L93.7516 24.1888C93.7582 22.3169 94.0235 20.8975 93.057 19.2624C92.119 17.6753 91.0613 17.696 89.4486 17.3171C88.6424 17.648 87.2681 17.8087 86.7109 18.3906C85.0999 20.073 85.4107 23.0695 85.4117 25.2063L85.4159 32.1046C85.4295 33.6887 85.4183 35.2729 85.3825 36.8567C84.5555 36.8389 81.7265 36.9737 80.9885 36.6182C80.6791 36.3501 80.4117 35.7366 80.3943 35.3212C80.2206 31.1764 80.3987 26.964 80.3267 22.8138C80.3027 21.4276 79.9468 19.3802 78.9378 18.4239C77.4778 17.0402 74.5176 17.2291 73.0643 18.5629C71.534 20.2717 71.8415 23.7448 71.8688 25.8803C71.912 28.3748 71.7626 30.8597 71.8795 33.3524C71.9476 34.8061 72.0029 35.661 70.9767 36.7531C69.5829 36.9061 68.0234 36.7802 66.6456 36.5439C66.4793 35.1453 66.5209 33.4867 66.5211 32.0599L66.5229 25.7618L66.5151 18.8945C66.5137 17.1986 66.4196 15.1836 66.7407 13.5497C67.1922 13.5043 67.6553 13.4477 68.1083 13.4143C70.3385 13.2497 71.1372 12.862 71.6183 15.3152C72.7767 14.2841 74.7005 13.3573 76.263 13.1613Z" fill="#A3ACB5"/>
<path d="M27.4473 12.5007C28.0672 12.4284 31.915 13.0799 32.5371 13.2756C34.1042 13.7686 37.6873 15.8152 37.7979 17.6557C37.8571 18.6402 35.7268 19.5502 34.9535 20.2937C32.816 18.6733 31.5694 17.6914 28.823 17.3564C26.9177 17.1239 24.7772 17.4601 23.2677 18.6594C21.7259 19.8845 20.8584 21.4507 20.4895 23.3464C20.3952 23.8309 20.0895 24.4871 20.0514 25.0175C20.0045 25.67 20.1231 25.5709 20.4448 26.0299C20.474 26.281 20.5468 26.7622 20.5819 26.9853C21.0645 30.0578 23.6902 32.4374 26.7944 32.6818C28.4995 32.8161 30.7801 32.5122 32.3159 31.7274C32.7318 31.5149 34.1625 30.2154 34.6072 29.8583C35.4231 29.769 36.3421 31.1258 37.37 31.3513C38.1718 31.7691 37.9369 32.8539 37.5552 33.2956C35.4984 35.6751 33.6345 36.7835 30.5238 37.1102C28.4765 37.3254 28.7105 37.7058 26.3779 37.2611C23.9662 37.0448 22.6899 36.8516 20.5886 35.5952C14.6072 32.0188 13.3803 23.9177 16.774 18.1541C17.8023 16.4079 20.7767 13.7948 22.8655 13.2765C24.1478 12.9583 26.0074 12.7934 27.4473 12.5007Z" fill="#A3ACB5"/>
<path d="M111.829 13.1652C112.407 13.0918 115.367 13.1061 115.968 13.1734C119.122 13.5264 121.458 14.8663 123.459 17.2641C123.722 18.8954 123.557 18.6813 122.169 19.3009C121.845 19.446 121.151 20.1539 120.765 20.1771C119.659 20.3498 118.576 18.5704 117.75 18.2758C115.217 17.3713 111.45 17.1644 109.374 19.1547C107.651 20.807 106.92 21.9765 106.747 24.2632C106.565 26.6523 106.97 28.2362 108.566 30.045C110.752 32.7673 113.619 32.7284 116.802 32.1392C117.772 31.9597 118.619 31.1908 119.361 30.5513C119.579 30.3207 119.975 29.7895 120.252 29.8004C120.88 29.8251 123.575 31.2354 123.564 31.8018C123.53 33.4472 121.468 34.5074 120.398 35.6764C118.987 35.9661 117.884 36.7456 116.718 36.8467C112.968 37.1717 109.199 37.0791 106.116 34.62C104.184 33.0483 101.984 29.8826 101.785 27.3339C101.491 23.5701 101.61 20.5513 104.089 17.5203C106.174 14.9704 108.561 13.5094 111.829 13.1652Z" fill="#A3ACB5"/>
<path d="M160.107 13.1684C161.951 13.0339 164.195 12.96 165.984 13.4664C166.366 13.5743 168.929 14.4638 169.115 14.6257C169.147 14.6541 169.198 14.7753 169.222 14.8174C169.238 14.9822 169.226 15.1282 169.177 15.286C168.621 17.0415 168.616 17.3643 166.927 18.2264C164.939 17.5497 161.853 16.5946 159.829 17.5375C159.363 17.7546 158.98 18.0965 158.808 18.5917C158.511 19.4487 159.059 20.326 159.415 21.0718C162.077 22.8121 166.163 22.8911 168.659 25.6668C170.88 28.1368 170.815 32.1706 168.373 34.4727C166.152 36.567 164.381 36.9376 161.454 36.9337C160.458 36.9363 157.785 36.9922 156.939 36.7428C156.004 36.4674 153.336 35.9864 152.86 35.1579C152.751 34.9683 152.723 34.8422 152.795 34.6306C153.376 32.9068 153.208 32.455 154.729 31.5103C157.292 32.5765 162.277 33.9265 164.697 31.6152C165.35 30.9911 165.182 29.8167 165.052 28.9854C164.524 28.6365 163.905 28.0136 163.461 27.7759C163.069 27.5667 162.091 27.3243 161.616 27.1371C159.757 26.3682 157.434 25.719 155.885 24.3959C150.848 20.0963 154.085 13.7554 160.107 13.1684Z" fill="#A3ACB5"/>
<path d="M175.773 9.76783C176.711 9.20431 179.385 6.98818 180.389 7.54644C180.589 7.8138 180.56 7.97131 180.554 8.29917C179.941 10.4993 180.361 10.5906 180.124 12.2273C180.259 13.0744 180.621 12.8629 181.158 13.7657C181.903 13.6913 184.548 13.4932 184.887 13.8843C185.553 14.6526 185.775 17.8161 183.895 17.7407C182.491 17.6843 181.21 17.4088 180.239 18.3204C180.073 19.7067 180.032 29.1277 180.339 30.4786C180.342 30.4981 180.346 30.5175 180.348 30.5369C181.047 34.3133 184.329 32.4987 185.301 33.1765C185.6 33.5352 185.472 36.4647 185.004 36.6816C183.933 37.1772 181.788 37.0951 180.649 37.0662C179.09 37.0266 177.802 36.2974 176.831 35.1426C175.396 33.7114 175.959 31.6528 175.156 29.8206C174.976 29.4096 175.118 26.4361 175.104 25.7148C175.066 23.7838 175.14 21.7086 175.113 19.7655C175.114 19.4446 175.363 18.4527 175.199 18.2734C174.68 17.7042 173.362 17.7394 172.646 17.7148C172.208 17.4489 172.11 17.3667 171.752 16.9978C171.394 11.4639 173.548 15.1642 175.686 12.5984C175.683 11.6542 175.711 10.7101 175.773 9.76783Z" fill="#A3ACB5"/>
<path d="M180.289 19.0189C180.309 19.1874 180.349 19.7526 180.434 19.8566C180.453 19.5164 180.467 18.5076 180.609 18.2687L180.773 18.2051C181.073 18.8116 180.515 19.5308 180.715 19.6407L180.863 19.5659C181.2 20.3062 180.966 28.1059 181.065 29.6426C180.919 29.76 180.476 30.1289 180.34 30.199C180.348 29.8067 180.646 29.669 180.701 29.2804C180.801 28.5752 180.79 27.8886 180.761 27.1806C180.729 26.3955 180.341 25.7376 180.321 24.9581C180.239 22.9844 180.281 20.9958 180.289 19.0189Z" fill="#526C92" fill-opacity="0.0980392"/>
<path d="M180.239 18.3203L180.289 19.0193C180.281 20.9962 180.239 22.9849 180.321 24.9585C180.341 25.738 180.729 26.3959 180.761 27.181C180.79 27.889 180.801 28.5757 180.701 29.2808C180.646 29.6694 180.348 29.8071 180.34 30.1994L180.339 30.4786C180.032 29.1276 180.073 19.7066 180.239 18.3203Z" fill="#526C92" fill-opacity="0.415686"/>
<path d="M180.124 12.227C180.361 10.5903 179.941 10.4989 180.554 8.29883C180.578 9.32003 181.157 11.6364 180.426 12.4005C180.269 12.3659 180.24 12.3302 180.124 12.227Z" fill="#526C92" fill-opacity="0.447059"/>
<path d="M22.3175 0H29.5698L29.6869 0.136206C29.8587 0.510682 29.817 0.581584 30.2083 0.741857C31.0498 1.08659 32.564 1.14413 33.344 1.43478C37.1002 2.83447 40.1283 4.70403 42.9391 7.60669C43.2717 7.95018 44.1858 8.66256 44.3532 8.96635C44.3122 9.23022 44.3176 9.15805 44.1237 9.39728C42.9661 10.0199 41.4538 7.78945 40.4551 7.17852C38.0598 5.71327 35.2532 4.20138 32.4669 3.66216C30.7647 3.33274 29.4619 3.77445 27.7227 3.03583C26.067 3.79707 23.9801 3.31212 22.2058 3.80335C1.73424 9.4712 -0.226588 37.1036 19.53 45.3116C26.5885 48.2441 34.8797 46.9152 40.9704 42.491C41.6887 41.9691 43.5079 39.4827 44.2992 40.9973C44.2327 41.4901 43.9999 41.4423 43.703 41.7376C41.0351 44.391 38.3013 46.7675 34.6664 47.9795C34.3076 48.0991 33.9282 48.5754 33.5307 48.6642C32.2781 49.009 30.9759 49.0956 29.7088 49.335C29.9572 49.7198 30.2174 49.7992 30.3251 50H21.4323C21.2545 49.7036 21.236 49.6037 21.2896 49.3142C17.6249 48.8889 14.1174 47.5839 11.0664 45.5104C6.05604 42.109 2.45816 36.9981 0.946749 31.1353C0.652881 29.9822 0.957043 28.0005 0 27.3653V22.8261L0.258458 22.609C0.955983 21.7411 0.638586 19.9023 0.95542 18.9086C1.31814 17.771 1.71292 16.2955 2.16184 15.2203C4.71988 9.25934 9.53646 4.55454 15.5571 2.13595C17.4371 1.30989 19.7805 0.857295 21.7849 0.436392C21.9683 0.397881 22.1951 0.14131 22.3175 0Z" fill="#A3ACB5"/>
<path d="M21.2897 49.3146C22.5537 49.2271 23.7953 49.7538 25.2231 49.5869C25.6802 49.5335 29.5976 49.3002 29.7089 49.3354C29.9573 49.7202 30.2175 49.7996 30.3251 50.0004H21.4323C21.2546 49.704 21.236 49.6041 21.2897 49.3146Z" fill="#526C92"/>
</g>
<defs>
<clipPath id="clip0_27083_19525">
<rect width="192.188" height="50" fill="white"/>
</clipPath>
</defs>
</svg>
