<svg width="116" height="42" viewBox="0 0 116 42" fill="none" xmlns="http://www.w3.org/2000/svg">
<g clip-path="url(#clip0_27764_12660)">
<path fill-rule="evenodd" clip-rule="evenodd" d="M90.9594 3.00879C91.011 3.00879 91.0631 3.01432 91.1147 3.02148C92.5748 3.25365 94.5003 8.8597 94.7504 13.5186C95.0066 8.8621 96.9283 3.26351 98.392 3.03613C100.869 2.64828 101.615 10.8486 101.706 11.9053C102.744 11.662 110.811 9.83144 111.205 12.2988C111.438 13.7588 106.67 17.3138 102.292 18.9893C106.827 17.7903 112.77 17.8806 113.439 19.1934C114.58 21.4168 106.97 24.6585 105.986 25.0703C106.545 25.9765 110.783 33.0467 108.546 34.1836C107.228 34.8476 102.355 31.4405 99.3998 27.8193C101.948 31.7362 103.701 37.3861 102.651 38.4297C100.872 40.1949 95.4195 33.9939 94.728 33.1885C94.0328 33.9938 88.5839 40.1938 86.8071 38.4297C85.7619 37.3861 87.5155 31.7266 90.0629 27.8037C87.1066 31.4274 82.2461 34.8279 80.9291 34.1602C78.6862 33.0256 82.9355 25.9532 83.4887 25.0449C82.5037 24.6381 74.8917 21.3942 76.0336 19.1719C76.7096 17.8567 82.6583 17.7645 87.1938 18.9707C82.8183 17.2905 78.063 13.7383 78.2963 12.2891C78.6865 9.81606 86.7582 11.6472 87.7963 11.8916C87.8807 10.8574 88.6007 3.00879 90.9457 3.00879H90.9594ZM94.7641 14.0166C94.6282 16.204 94.0665 17.9929 92.8989 18.8379C91.7298 19.6852 89.8354 19.6581 87.6957 19.1064C89.744 19.9118 91.2861 20.9975 91.7299 22.3594C92.1808 23.7356 91.5656 25.5141 90.3774 27.3701C91.7832 25.6829 93.2953 24.5569 94.7348 24.5566C96.1841 24.5566 97.7003 25.6875 99.1039 27.3809C97.9265 25.5319 97.3177 23.7521 97.7651 22.3926C98.2137 21.0188 99.7594 19.936 101.815 19.1318C99.686 19.674 97.7924 19.7002 96.6293 18.8613C95.4567 18.0092 94.8988 16.209 94.7641 14.0166Z" fill="#A3ACB5"/>
<path d="M69.6611 9.48303C67.6922 8.81885 63.7099 8.40478 60.5311 8.40478C54.3177 8.40478 48.0647 10.1819 48.0647 16.1021C48.0659 20.8244 54.058 22.2329 59.7493 22.9976C65.2735 23.7384 66.469 24.4122 66.469 25.4773C66.469 27.1706 65.4599 28.3566 60.0801 28.3554C55.5181 28.3554 50.3716 26.3916 48.5422 25.439V30.5023C51.6513 31.8797 56.378 33.0059 59.6098 33.0059C66.6891 33.0059 71.6312 31.3316 71.6312 24.971C71.6312 20.3349 65.8965 18.8905 59.8419 18.2227C54.7098 17.6567 53.3736 16.8381 53.3736 15.8568C53.3736 14.3226 54.5078 13.1211 59.7878 13.1223C63.651 13.1223 67.7331 13.8463 69.6575 14.4291L69.6611 9.48303Z" fill="#A3ACB5"/>
<path d="M36.2716 36.3129H32.8065V37.7418H36.1453V38.7327H32.8065V40.3997H36.4231V41.3906H31.4377V35.3208H36.2716V36.3129Z" fill="#A3ACB5"/>
<path d="M37.2312 35.3199H39.158L42.6135 39.9787H42.6303V35.3199H43.8655V41.3896H42.0217L38.4808 36.6482H38.464V41.3896H37.2312V35.3199Z" fill="#A3ACB5"/>
<path d="M49.7266 36.3129H46.2627V37.7418H49.6015V38.7327H46.2627V40.3997H49.8794V41.3906H44.8916V35.3208H49.7266V36.3129Z" fill="#A3ACB5"/>
<path d="M50.6492 35.3199H54.3079C55.6514 35.3199 56.6569 35.7471 56.6569 36.9522C56.6569 38.0101 55.9136 38.4469 54.9754 38.5151V38.5319C56.3694 38.5893 56.4801 39.2128 56.5486 40.3401C56.5715 40.8427 56.6388 41.1551 56.7326 41.3896H55.2629C55.1871 41.2149 55.1438 40.7841 55.1282 40.4311C55.068 39.2379 54.7986 38.9938 53.4624 38.9938H52.0191V41.3896H50.6492V35.3199ZM52.0191 38.052H53.7919C54.5954 38.052 55.2364 37.8773 55.2364 37.1437C55.2364 36.4137 54.5785 36.3119 53.8533 36.3119H52.0191V38.052Z" fill="#A3ACB5"/>
<path d="M62.8147 37.2787C62.7726 36.4314 61.8922 36.1011 61.215 36.1011C59.9341 36.1011 58.741 36.7497 58.741 38.3306C58.741 39.4567 59.3496 40.5577 61.2259 40.5577C61.7587 40.5577 62.2217 40.4907 62.8977 40.2813V39.1205H60.9456V38.1786H64.2339V41.0113C63.3631 41.3835 62.0281 41.5498 61.1393 41.5498C58.8673 41.5498 57.3206 40.541 57.3206 38.339C57.3206 36.5236 58.6135 35.1593 61.0142 35.1593C62.8568 35.1593 64.2339 35.8606 64.2339 37.2787H62.8147Z" fill="#A3ACB5"/>
<path d="M71.4194 35.3199L68.4799 39.0788V41.3896H67.1112V39.0788L64.1428 35.3199H65.9349L67.8617 37.9203L69.7981 35.3199H71.4194Z" fill="#A3ACB5"/>
<path d="M21.4976 9.36425C19.6225 8.88556 17.1617 8.44756 14.0586 8.44756C10.0343 8.44756 5.02004 9.31279 3.28208 11.0397C1.55133 12.7653 0.467666 16.7528 0.460449 20.7439C0.467666 24.735 1.55133 28.7249 3.28208 30.447C5.02004 32.1774 10.0343 33.0391 14.0586 33.0391C17.1617 33.0391 19.6225 32.6023 21.4976 32.126V27.1344C19.6634 27.6969 16.398 28.3599 14.0586 28.3599C11.2346 28.3599 7.6384 27.9566 6.82295 27.144C6.0111 26.3362 5.60337 23.5407 5.60096 20.7439C5.60337 17.9472 6.0111 15.1516 6.82295 14.3426C7.6384 13.5312 11.2346 13.1279 14.0586 13.1279C16.398 13.1279 19.6634 13.7909 21.4976 14.3522V9.36425Z" fill="#A3ACB5"/>
<path d="M44.3037 11.0396C42.5657 9.31273 38.1974 8.44749 34.0503 8.44749C29.937 8.44749 27.6638 8.89866 23.886 9.97451V41.3945H28.9279V32.443C30.6249 32.8379 32.1127 33.039 34.0876 33.039C38.112 33.039 42.5657 32.1762 44.3037 30.4469C46.0357 28.7236 47.1181 24.7337 47.1241 20.7426C47.1181 16.7516 46.0357 12.7641 44.3037 11.0396ZM40.7616 27.1439C39.9474 27.9565 36.9117 28.3598 34.0876 28.3598C32.5433 28.3598 30.5997 28.0702 28.9279 27.7148V13.7131C30.5997 13.3565 32.5433 13.1267 34.0876 13.1267C36.9117 13.1267 39.9474 13.5312 40.7616 14.3426C41.5759 15.1515 41.9812 17.9459 41.9848 20.7426C41.9812 23.5394 41.5759 26.3349 40.7616 27.1439Z" fill="#A3ACB5"/>
<path d="M105.906 3.42057C105.906 1.77986 107.243 0.451498 108.892 0.450301C110.539 0.451498 111.877 1.77986 111.877 3.42057C111.877 5.06128 110.539 6.38965 108.892 6.38965C107.243 6.38965 105.906 5.06128 105.906 3.42057ZM106.496 3.42057C106.497 4.73817 107.566 5.80206 108.892 5.80445C110.216 5.80206 111.286 4.73817 111.288 3.42057C111.286 2.10298 110.216 1.03909 108.892 1.0355C107.566 1.03909 106.497 2.10298 106.496 3.42057Z" fill="#A3ACB5"/>
<path d="M107.926 1.91053C108.134 1.87463 108.448 1.8471 108.766 1.8471C109.205 1.8471 109.503 1.91891 109.707 2.09124C109.874 2.23006 109.968 2.44188 109.968 2.69798C109.968 3.08931 109.702 3.35498 109.418 3.4579V3.47106C109.634 3.55244 109.766 3.76306 109.843 4.05626C109.938 4.43323 110.019 4.78506 110.081 4.90234H109.506C109.462 4.81139 109.392 4.56487 109.305 4.1879C109.219 3.79059 109.073 3.66493 108.757 3.65655H108.477V4.90234H107.926V1.91053ZM108.477 3.25206H108.807C109.184 3.25206 109.418 3.0534 109.418 2.75183C109.418 2.41794 109.184 2.26596 108.822 2.26596C108.645 2.26596 108.532 2.28032 108.477 2.29229V3.25206Z" fill="#A3ACB5"/>
</g>
<defs>
<clipPath id="clip0_27764_12660">
<rect width="116" height="42" fill="white"/>
</clipPath>
</defs>
</svg>
