<svg width="121" height="24" viewBox="0 0 121 24" fill="none" xmlns="http://www.w3.org/2000/svg">
<path fill-rule="evenodd" clip-rule="evenodd" d="M10.8244 0L10.5424 4.13859H8.47155L8.28215 1.56393H4.98865V7.72503H6.40075C6.50598 7.26541 6.59016 6.8058 6.77745 6.34516H8.28215V10.5753H6.87216L6.49546 9.19539H5.08335V15.7246H8.37685L8.65885 12.8733L10.917 12.9762L11.1064 17.2988H0.284104V15.8284L1.7888 15.5529V1.74695L0 1.47139V0.00102962H10.8223L10.8244 0ZM49.0205 23.0815C49.0205 22.6219 49.1258 22.2538 49.1258 21.8857L50.2548 21.6101V6.90657C49.7845 6.80374 49.4078 6.80374 48.9374 6.72148V5.52566L52.515 5.06605C52.6202 5.52566 52.797 5.98528 52.8917 6.35338C52.9969 6.35338 52.9969 6.25056 53.0811 6.25056C53.9282 5.23879 55.0572 4.96323 56.3746 5.05474C57.974 5.23982 58.9158 6.25056 59.2925 7.6294C59.4819 8.27307 59.6692 8.91674 59.6692 9.5604C59.7744 10.9403 59.7744 12.3191 59.5639 13.6065C59.4587 14.0661 59.2819 14.6182 59.0936 15.0768C58.4349 16.4567 57.3048 17.2834 55.8001 17.3759C54.953 17.4787 54.2007 17.3759 53.4473 17.0078H53.2579V21.6173L54.4816 21.8929C54.4816 22.261 54.3764 22.6281 54.3764 23.0887H49.0121L49.0205 23.0815ZM53.2558 15.449C54.1965 15.8171 55.1498 15.9086 56.0789 15.5519C56.2471 15.4794 56.3815 15.3481 56.4556 15.1837C56.5609 14.7241 56.7376 14.2645 56.7376 13.8039C56.927 12.424 56.927 10.9526 56.8429 9.57377C56.8406 9.07069 56.745 8.57218 56.5609 8.10239C56.2789 7.09062 55.5255 6.72251 54.4901 6.90657H54.3007C53.642 7.00939 53.2653 7.45872 53.2653 8.10239V15.448L53.2558 15.449ZM89.0181 15.7266L90.2419 16.0022C90.2419 16.4618 90.2419 16.8299 90.1367 17.2895H85.9961V9.01236C85.9961 8.64426 85.8909 8.27719 85.8067 7.90908C85.7015 7.44947 85.3364 7.26541 84.866 7.1739C84.3957 7.08239 84.019 7.07108 83.6423 7.27673C83.2656 7.48237 82.9836 7.64483 82.9836 8.10444V15.7369L84.2073 16.0125C84.2073 16.3806 84.1021 16.8402 84.1021 17.2998H78.8325V16.0146L80.0562 15.739V7.00219C79.5859 6.89937 79.2092 6.89937 78.7388 6.81711V5.51538L82.2112 5.05577L82.4932 6.15905C82.7752 5.97397 83.0583 5.69943 83.3403 5.51538C84.4693 4.7802 85.7867 4.68766 87.0105 5.14728C88.0459 5.51538 88.6099 6.3431 88.7993 7.44638C88.9045 7.72194 88.9045 8.09005 88.9045 8.36561V15.2629C88.973 15.4066 89.0054 15.5642 88.9992 15.7225L89.0181 15.7266ZM16.1781 15.8295L17.4019 16.105C17.4019 16.5646 17.2967 16.9328 17.2967 17.3924H11.9324C11.9324 17.0243 11.9324 16.5646 12.0376 16.105L13.1666 15.8295C13.2719 15.5539 13.2719 7.55229 13.1666 7.09267C12.7899 6.98985 12.3196 6.98985 11.8492 6.90759V5.60792L15.3216 5.14831L15.6036 6.25159L15.8856 5.97602C17.0147 5.05679 18.3321 4.7802 19.7442 5.14831C20.9679 5.42387 21.6382 6.25159 21.9086 7.44741C22.0138 7.72297 22.0138 8.09108 22.0138 8.36664V15.7236L23.2376 15.9991V17.2988H19.097V9.29924C19.097 9.02367 19.097 8.65557 18.9918 8.38001C18.8866 7.64483 18.4268 7.27673 17.7681 7.18419C17.203 7.08136 16.7327 7.18418 16.356 7.6438C16.1666 7.82888 16.1666 8.0119 16.1666 8.28747V15.8284L16.1781 15.8295ZM108.038 6.71326C107.568 6.71326 107.191 6.61044 106.721 6.61044V5.50716L110.768 5.04754C110.957 5.50715 111.145 5.96677 111.145 6.5179V15.8058L112.368 16.0814C112.368 16.541 112.263 16.9091 112.263 17.3687H108.791C108.685 17.0932 108.601 16.7251 108.509 16.3569C108.403 16.4598 108.319 16.542 108.227 16.542C106.815 17.8294 104.933 17.6453 103.709 17.0942C102.769 16.6346 102.297 15.8984 102.11 14.8876C102.005 14.5195 102.005 14.244 102.005 13.8759V6.79449C101.534 6.69167 101.064 6.69167 100.687 6.60941V5.51538L104.64 5.05577C104.745 5.51538 104.922 5.88348 104.922 6.3431V13.3319C104.922 13.6075 104.922 13.9756 105.027 14.2512C105.132 15.0789 105.686 15.631 106.532 15.631C106.814 15.631 107.19 15.5282 107.472 15.5282C107.754 15.4254 108.225 14.8845 108.225 14.609V6.97546C108.035 6.87263 108.035 6.79038 108.035 6.69989L108.038 6.71326ZM42.3609 11.9541C42.3609 12.9659 42.5503 13.8049 43.0196 14.6213C43.49 15.265 44.1487 15.6331 44.9957 15.7246C45.8428 15.7246 46.5951 15.5395 47.3485 15.265C47.4538 15.265 47.5379 15.1622 47.7252 15.1622C47.9146 15.5303 48.0072 15.8973 48.1956 16.2654C48.0062 16.4505 47.7252 16.541 47.5369 16.7251C46.0322 17.5528 44.4328 17.8283 42.8313 17.2772C41.4192 16.9091 40.5732 15.9899 39.9134 14.7025C39.2547 13.3227 39.0664 11.8513 39.2547 10.3799C39.36 9.46067 39.5367 8.5291 39.9134 7.71269C40.5721 6.33282 41.597 5.41359 43.1122 5.13802C44.6274 4.86246 45.9354 5.0352 47.0644 6.05725C47.7231 6.70092 48.0998 7.52761 48.3818 8.35636C48.6638 9.27559 48.7585 10.1043 48.7585 11.0236C48.7585 11.2991 48.5691 11.5757 48.4765 11.9428H42.3599L42.3609 11.9541ZM46.0311 10.3912C46.0311 10.0231 45.9259 9.74754 45.9259 9.47198C45.8207 8.7368 45.7365 8.0921 45.3609 7.44844C44.9842 6.71326 44.3255 6.52921 43.5721 6.80477C43.2901 6.90759 43.1017 7.08033 42.9134 7.35693C42.5367 8.3687 42.3483 9.38047 42.2547 10.3902V10.6657L46.0185 10.3902L46.0311 10.3912ZM99.9582 11.9541L93.8416 12.0569C93.7364 12.5165 93.8416 12.8846 93.9468 13.2527C94.0433 13.8568 94.303 14.4247 94.6992 14.8979C95.1695 15.4501 95.7346 15.7256 96.488 15.7256C97.2414 15.7256 97.9927 15.6228 98.7461 15.3575C98.9355 15.2547 99.0281 15.2547 99.2164 15.1724C99.4058 15.5405 99.4984 15.9076 99.6868 16.2757C99.5815 16.2757 99.5815 16.3785 99.4974 16.3785C98.18 17.2978 96.7679 17.5744 95.1684 17.4818C93.2744 17.2967 91.9697 16.1945 91.3099 14.4486C90.3692 12.242 90.4629 10.0344 91.4151 7.82682C91.9802 6.44695 93.0145 5.43621 94.6139 5.15962C95.8377 4.88405 97.0604 4.97454 98.0863 5.71177C98.8387 6.26393 99.3101 6.9991 99.6857 7.73531C100.062 8.74708 100.251 9.94187 100.251 11.0462C100.251 11.3217 100.061 11.5983 99.9688 11.9654L99.9582 11.9541ZM97.6054 10.3912C97.6054 9.56349 97.5002 8.82831 97.2287 8.0921C97.1235 7.724 96.9467 7.35693 96.6637 7.08034C96.1933 6.43667 94.6876 6.62072 94.4992 7.44844C94.3098 8.0921 94.1225 8.73577 94.0289 9.47198C93.9237 9.84008 93.9237 10.2072 93.9237 10.6678L97.5939 10.3922L97.6054 10.3912ZM78.3116 11.9541L72.195 12.0569C72.195 13.1602 72.3844 14.0805 73.042 14.9082C73.5124 15.4603 74.0774 15.7359 74.7256 15.7359C75.478 15.7359 76.325 15.6331 76.9837 15.3678C77.1731 15.265 77.2657 15.265 77.4541 15.1827C77.6435 15.5508 77.7361 15.9179 77.9244 16.286C77.735 16.3888 77.6424 16.4711 77.5477 16.5616C76.2 17.3775 74.5892 17.6727 73.0305 17.3893C71.5258 17.1137 70.4893 16.1935 69.8317 14.9061C69.173 13.5263 68.9846 12.1474 69.0793 10.676C69.1845 9.66426 69.3613 8.74502 69.738 7.82477C70.2084 6.72149 70.9618 5.89377 72.0908 5.43415C73.4082 4.882 74.7256 4.882 76.043 5.53697C76.8901 5.99659 77.4551 6.7328 77.8318 7.56051C78.3022 8.6638 78.4905 9.85962 78.4905 11.0565C78.5957 11.332 78.3853 11.6086 78.3011 11.9757L78.3116 11.9541ZM75.9588 10.3912C75.9588 10.0231 75.8536 9.65603 75.8536 9.28793C75.7484 8.64426 75.6642 8.00059 75.2886 7.43713C74.8182 6.70195 74.1595 6.42536 73.3945 6.79346C73.2051 6.89628 73.0178 6.97854 72.9242 7.25308C72.5475 7.98825 72.3591 8.81597 72.2655 9.64369C72.2655 9.91925 72.1603 10.1958 72.1603 10.5629C73.384 10.5629 74.6067 10.4601 75.9241 10.3778L75.9588 10.3912ZM34.3503 5.14933L34.6323 6.25262C34.8217 6.14979 34.9143 6.06754 35.1026 5.97705C35.9497 5.51744 36.8914 5.24187 37.8321 5.14933C38.3025 5.04651 38.6792 5.25216 38.9612 5.60895L38.5845 8.82728C37.9258 8.82728 37.2671 8.72446 36.6084 8.72446C36.5031 8.17231 36.419 7.62118 36.419 6.97649C35.9486 6.97649 35.5719 7.16156 35.1952 7.4361V15.7133L36.419 15.9888C36.419 16.3569 36.419 16.8166 36.3137 17.1847H31.0568V15.9888L32.1858 15.7133V6.98574C31.7155 6.88292 31.3388 6.88292 30.8684 6.80066V5.51538C31.9975 5.51538 33.1265 5.3303 34.3408 5.14728L34.3503 5.14933ZM112.931 17.2988C112.931 16.8392 112.931 16.4711 113.036 16.103L114.166 15.8274V7.09062C113.789 6.9878 113.318 6.9878 112.848 6.90554V5.60792L116.426 5.14831L116.708 6.16008L118.212 5.51641C118.777 5.33133 119.248 5.24085 119.812 5.14831C120.282 5.04549 120.659 5.14831 120.941 5.60792L120.564 8.82626C119.905 8.82626 119.247 8.72343 118.588 8.72343C118.483 8.17128 118.399 7.52761 118.399 6.97546L117.175 7.43507V15.8048L118.399 16.0804C118.399 16.4485 118.293 16.9081 118.293 17.2762H112.929L112.931 17.2988ZM66.1488 6.98882L64.9251 7.44844V15.8182L66.1488 16.0937C66.1488 16.5533 66.0436 16.9214 66.0436 17.2895H60.774V16.0937L61.9031 15.8182V7.08136C61.4327 6.97854 61.056 6.97854 60.5857 6.89628V5.60792L64.1633 5.14831L64.4453 6.16008L65.4807 5.60792C66.1394 5.33236 66.7981 5.14831 67.5515 5.05577C68.1165 5.05577 68.4922 5.24085 68.7752 5.60792L68.3985 8.82626C67.7398 8.82626 67.0811 8.72343 66.4224 8.72343L66.1404 6.97546L66.1488 6.98882ZM27.5654 2.85023V5.33339H29.7415C29.6362 5.88554 29.6362 6.34516 29.6362 6.89628C28.9775 6.89628 28.3188 6.9991 27.6601 7.08136V14.8979C27.7654 15.3575 28.0368 15.7256 28.6008 15.7256H29.8246C29.8246 16.1852 29.9298 16.5533 29.9298 17.013C29.6478 17.198 29.2711 17.2885 28.8944 17.3811C28.1421 17.5661 27.3897 17.5661 26.6363 17.4839C25.5073 17.2988 24.7423 16.5646 24.5655 15.3688V7.09165C24.0952 6.98882 23.6248 6.90657 23.1534 6.90657C23.1534 6.44695 23.1534 5.89479 23.2586 5.43621C23.8237 5.43621 24.294 5.33339 24.858 5.33339L25.5167 3.03428L27.5875 2.8492L27.5654 2.85023Z" fill="white"/>
</svg>
