<svg width="240" height="37" viewBox="0 0 240 37" fill="none" xmlns="http://www.w3.org/2000/svg">
<path d="M29.2946 0.00976562H30.2813C30.5874 0.574674 30.2595 1.88524 30.1456 2.54957C29.9257 3.83184 29.7954 5.04424 29.6679 6.33706C29.3309 9.752 30.1413 13.2173 30.1902 16.5783C30.7828 16.1191 31.2848 15.5098 31.8258 15.001C32.8964 13.9942 37.2698 10.2721 38.6787 11.2065C38.7669 11.7003 37.7441 12.7699 37.5406 13.2378C37.068 14.3256 36.6756 16.4252 36.9921 17.5942C38.3198 22.4996 43.3896 21.2974 42.9299 15.9048C41.7169 15.8723 40.4079 15.6772 39.5201 14.7572C38.7181 13.9261 38.662 12.4864 39.5187 11.7004C40.6241 10.6861 42.2053 11.2333 43.0526 12.2861C43.5289 12.878 43.9638 13.5729 44.2405 14.2719C45.4955 13.9043 46.5404 13.5823 47.6697 12.8998C47.6434 9.2192 47.3883 4.4087 50.019 1.33499C50.4754 0.801863 51.3285 0.329567 52.0402 0.325811C52.5918 0.324452 53.1205 0.550304 53.5064 0.952127C56.0898 3.61344 52.8437 10.4958 50.6886 12.7376L50.681 18.7094C52.0008 16.6924 52.8642 14.3078 54.3683 12.3304C55.6224 10.6814 57.5698 10.3759 58.0227 12.8561C58.2561 15.2179 58.0339 17.8083 58.077 20.2357C59.1469 18.3779 60.3603 16.5316 61.4801 14.6959C61.8893 14.0252 62.8361 12.3315 63.2589 11.8427C63.5407 11.5155 63.9128 11.2824 64.3265 11.1738C64.6972 11.0744 65.0616 11.0644 65.443 11.0529C66.743 11.7333 66.7287 12.7514 66.734 14.131C66.7401 15.7175 66.6849 17.2966 66.721 18.8846C67.0571 18.179 71.7397 7.20087 73.9719 12.2539C74.334 13.0737 74.1474 18.9752 74.1345 20.3794C75.8184 18.0508 77.4216 15.309 78.7427 12.7388C79.0243 12.1908 79.3367 10.9444 79.802 10.8042C80.2212 11.0202 82.0574 14.8692 82.2341 15.414C83.9129 13.5642 87.8677 10.9539 90.3528 11.0874C90.6812 11.1051 90.734 11.0528 90.979 11.2528C90.6158 11.9548 90.1585 12.6149 89.8123 13.2845C89.1496 14.5659 88.9258 16.8197 89.349 18.2088C89.6182 19.1157 90.2367 19.8724 91.0629 20.3059C91.6806 20.6355 92.2042 20.8142 92.8903 20.5719C95.1311 19.781 95.3063 17.8483 95.2369 15.7817C93.0233 15.7738 91.7428 15.6566 91.0928 13.222C91.8534 9.91558 94.5791 10.9657 95.8871 13.1376C96.0402 13.3948 96.1853 13.6569 96.3221 13.9236C97.5566 13.2039 101.617 9.28511 102.825 11.8831C103.52 13.3776 103.182 17.1109 103.207 18.9116C103.836 17.2886 106.488 11.7669 107.972 11.2308C112.381 9.63725 109.77 18.6769 110.806 20.2089C111.49 20.4133 113.12 17.2596 113.759 18.4552C113.779 19.3251 112.958 20.6143 112.515 21.3058C110.776 24.016 107.448 24.3277 107.405 20.2597C107.394 19.153 107.549 15.1618 107.35 14.3648C107.168 14.3637 107.122 14.3744 106.992 14.5085C106.65 14.859 106.404 15.4982 106.18 15.9399C105.397 17.4831 103.669 21.4317 102.8 22.4798C102.448 22.9031 101.938 23.3219 101.372 23.3371C101.071 23.3452 100.74 23.2312 100.521 23.0179C100.121 22.6295 100.083 21.7084 100.079 21.1774C100.071 20.1108 100.341 14.1698 99.8341 13.679C99.7652 13.6123 99.7291 13.6123 99.6342 13.6185C99.0016 13.6603 97.4039 15.0527 96.7288 15.437C96.8735 17.6056 96.8659 19.7433 95.3766 21.483C94.441 22.5551 93.1252 23.2032 91.7198 23.2841C88.5063 23.4961 86.3749 20.9889 86.1782 17.8486C86.0677 16.0854 86.4413 15.0664 87.1946 13.522C85.4756 14.1157 84.2061 15.557 82.8133 16.6327C83.2942 18.3719 83.7833 19.8736 82.87 21.5791C82.1959 22.8379 80.5344 23.7696 79.2178 22.9838C77.7151 22.087 78.1826 20.209 78.8893 18.9903C79.1875 18.4658 79.5489 17.9815 79.9651 17.5487C79.6402 16.8046 79.3129 16.2537 78.908 15.5573C77.7214 17.5368 75.1026 22.5586 73.0505 23.2208C69.4969 24.3675 71.6752 15.6428 70.8745 14.3426C70.7256 14.3526 70.6375 14.3387 70.5416 14.4968C69.48 16.2503 68.7404 17.8783 67.7994 19.7293C67.1786 20.9505 66.037 24.2703 64.0767 23.025C63.7289 22.804 63.6819 21.8962 63.6422 21.523C63.4985 20.5512 63.8552 14.9678 63.4947 14.4628C62.0597 14.9011 57.627 27.202 55.1328 22.0462C54.6556 21.0596 55.4253 15.2864 54.8625 14.2781C54.3054 14.4549 52.9516 17.6593 52.4715 18.306C51.5333 19.5701 50.5692 23.9949 48.3634 23.161C48.126 23.0712 47.7894 22.5941 47.7536 22.3371C47.5465 20.0094 47.6634 16.8819 47.6617 14.5628C46.5585 15.229 45.7874 15.417 44.5231 15.6607C44.799 17.4622 44.5212 19.5358 43.4478 21.0308C42.5966 22.2214 41.3104 23.0116 39.8803 23.2224C35.0721 23.9653 33.2236 19.0435 34.2582 14.9201C33.0778 15.7131 31.5305 17.3869 30.4911 18.4565C30.6443 20.5833 30.7499 22.9867 30.6304 25.1039C30.453 28.2512 28.4359 36.6072 24.5437 36.8804C23.9928 36.9244 23.448 36.7382 23.0342 36.3646C22.2531 35.6654 22.0742 34.5067 22.0222 33.5053C21.812 29.4532 23.4864 25.9022 25.4229 22.5062C23.4435 20.3372 21.886 18.9163 20.98 15.8892C20.7198 15.02 20.6897 14.159 20.5229 13.5529V10.6459C20.9396 9.04851 20.8969 8.18843 21.7447 6.55818C23.4215 3.33387 25.8408 0.9846 29.2946 0.00976562ZM25.6049 20.1478C25.8714 20.5324 26.0713 20.8266 26.3828 21.1771C26.7036 20.6685 27.1155 19.9729 27.4866 19.5231C26.6617 15.7587 26.3204 11.6263 27.0228 7.81577C27.242 6.67998 27.545 5.56269 27.9292 4.47343C28.1374 3.89231 29.0918 1.7859 29.0192 1.33976L28.9039 1.30385C28.1238 1.48227 27.5641 1.7617 26.9907 2.35223C23.561 5.88427 22.8613 11.2065 23.7781 15.9131C24.0695 17.4092 24.8054 18.8665 25.6049 20.1478ZM40.7727 12.8529C40.1227 14.1663 41.5847 14.296 42.4812 14.4027C42.8068 13.7506 41.4886 12.8691 40.7727 12.8529ZM27.7591 21.6076C25.6206 24.5215 23.3388 29.2136 23.8702 32.9571C23.9013 33.1715 23.9416 33.3844 23.9911 33.5951L24.6898 34.3966C26.6581 34.918 27.4519 32.2737 27.8505 30.829C28.7235 27.6648 28.2402 24.7622 27.7591 21.6076ZM93.0423 12.8508C92.4279 14.1879 93.7513 14.3919 94.7328 14.4184C95.0893 13.7311 93.7561 12.8632 93.0423 12.8508ZM80.5093 19.1328C80.0194 19.9387 79.2181 21.1987 80.2468 21.9312C80.9672 21.4381 80.991 19.8632 80.5892 19.2367C80.5653 19.1999 80.5387 19.1652 80.5093 19.1328ZM50.9571 10.2243C52.1719 7.95474 53.0202 4.88598 52.5443 2.28277C52.4931 2.00199 52.2928 1.72413 52.0193 1.6322C51.1368 2.41574 50.8057 4.56685 50.7496 5.64877C50.7105 6.40167 50.5673 9.94928 50.7422 10.4373C50.8662 10.3641 50.8912 10.3541 50.9571 10.2243Z" fill="#ADADAD"/>
<path d="M134.97 0H135.955C136.245 0.708355 135.269 6.08413 135.268 7.56618C135.264 10.6846 135.688 13.5662 135.892 16.6381C137.53 14.7683 141.258 11.3406 143.89 11.0606C144.154 11.0325 144.235 11.0917 144.404 11.245C144.294 11.7087 143.571 12.6455 143.328 13.1371C142.524 14.7592 142.173 17.3458 143.125 18.9674C144.006 20.4662 145.711 21.1861 147.222 20.1225C148.68 19.0958 148.659 17.4971 148.648 15.8958C146.552 15.8448 145.035 15.4454 144.56 13.1701C144.659 12.712 144.767 12.086 145.099 11.7676C147.212 9.73636 149.218 12.7913 149.974 14.2568C151.371 13.8271 152.147 13.59 153.404 12.853C153.106 9.43755 153.349 4.33111 155.45 1.59569C157.154 -0.622009 160.016 0.172904 160.056 3.22828C160.102 6.72628 158.815 9.83948 156.578 12.4383C156.516 12.5115 156.452 12.5837 156.387 12.655C156.353 14.6663 156.339 16.6778 156.347 18.6894C157.616 16.7726 158.507 14.4337 159.898 12.4969C161.012 10.9463 163.098 10.1332 163.689 12.6364C163.963 15.0325 163.681 17.6502 163.817 20.1191C165.263 17.4862 167.371 14.4379 168.925 11.8336C169.495 10.8781 172.147 10.6446 172.197 12.2506C172.759 14.5464 172.24 16.6566 172.416 18.8758C173.248 17.0166 174.273 15.2745 175.267 13.5046C175.94 12.3056 177.188 10.4251 178.818 11.2139C179.189 11.3905 179.475 11.7132 179.609 12.1082C179.961 13.1369 179.775 18.9432 179.802 20.3795C181.883 17.4069 183.761 14.361 185.175 11.0247C185.244 10.8625 185.372 10.8249 185.522 10.7665C185.842 11.0855 187.764 14.9008 187.911 15.3823C189.781 13.4855 193.102 11.2239 195.836 11.021C196.116 11.0002 196.361 11.0795 196.601 11.2277C196.561 11.7477 195.385 13.2193 195.251 13.6599C194.64 15.6716 194.497 18.0386 195.862 19.6775C196.309 20.2215 196.953 20.5575 197.646 20.6084C200.377 20.8302 201.03 17.9744 200.933 15.7898C198.699 15.7117 197.317 15.6781 196.755 13.1093C197.671 9.73118 200.531 11.1493 201.742 13.423C201.827 13.5848 201.908 13.7491 201.984 13.916C203.293 13.202 207.315 9.20052 208.527 11.9399C209.245 13.5634 208.807 16.9502 208.862 18.882C209.653 17.169 213.573 7.42109 216.098 12.3862C216.629 13.4282 215.972 19.6142 216.427 20.2734C217.583 20.3329 217.96 17.6516 219.477 18.4526V19.0222C218.829 20.226 217.726 22.4405 216.478 22.979C212.994 24.4823 213.102 20.8336 213.111 18.6639L213.125 15.8208C213.127 15.4185 213.164 14.6673 213.01 14.3357L212.865 14.327C211.213 16.1442 210.129 20.1731 208.699 22.197C208.314 22.7431 207.845 23.1734 207.167 23.279C206.875 23.3243 206.572 23.2876 206.331 23.1008C205.211 22.2285 205.973 15.9043 205.765 14.3176C205.721 13.9784 205.639 13.8191 205.382 13.619C204.82 13.6088 203.288 14.9742 202.45 15.3695C202.695 16.9649 202.505 18.8559 201.801 20.3129C201.195 21.5755 200.116 22.5369 198.809 22.9813C195.968 23.9615 193.112 22.5324 192.199 19.6025C191.46 17.2358 191.848 15.6449 192.883 13.5046C191.375 14.0193 189.754 15.5683 188.489 16.6264C188.761 17.6072 188.996 18.4253 189.033 19.4579C189.097 21.2523 187.889 23.2418 185.958 23.2484C185.407 23.2533 184.88 23.0293 184.496 22.6281C183.088 21.1695 184.461 18.7316 185.61 17.6001C185.502 17.0826 184.858 15.9809 184.586 15.462C183.837 17.1453 182.312 19.1764 181.337 20.7662C180.718 21.7755 179.747 23.0145 178.553 23.2532C177.751 23.4137 176.967 22.9325 176.783 22.0915C176.401 19.6147 176.956 16.784 176.568 14.3228L176.441 14.2599C176.135 14.5012 175.674 15.4315 175.47 15.819C174.84 17.0061 174.225 18.2014 173.626 19.4047C173.2 20.2751 172.818 21.2357 172.288 22.0424C172.035 22.4269 171.742 22.7709 171.366 23.0336C171.066 23.2428 170.661 23.449 170.287 23.3709C168.319 22.9598 169.953 15.6884 169.155 14.446C168.455 14.5788 164.534 22.5473 163.024 23.1035C159.104 24.5476 161.337 15.723 160.616 14.2941L160.485 14.2751C159.695 14.7874 156.594 21.7684 155.684 22.8491C155.427 23.1109 154.961 23.32 154.593 23.3033C152.995 23.2307 153.324 20.3022 153.327 19.2668L153.346 14.55C152.254 15.2567 151.425 15.416 150.178 15.6388C150.372 18.3078 150.05 20.899 147.618 22.4491C146.409 23.2157 144.951 23.4646 143.562 23.1418C142.31 22.8374 141.23 22.0356 140.561 20.9149C139.4 19.0102 139.447 17.0185 139.928 14.9152C138.835 15.6172 137.149 17.4285 136.183 18.4282C136.52 24.1193 136.556 28.8509 133.713 34.0281C132.431 36.3627 128.814 38.7169 127.868 34.808C126.902 30.8207 129.086 25.91 131.12 22.4911C130.723 22.0393 128.945 20.0867 128.621 19.7949C126.672 19.4815 125.839 19.7556 123.939 20.2056C123.929 21.0494 123.813 22.9169 122.895 23.274L122.658 23.154C122.179 22.4978 122.227 21.5199 122.182 20.695C120.262 20.9793 117.184 21.0367 115.593 19.6731C113.885 18.2093 114.988 15.9459 117.217 15.9547C119.381 15.9633 120.425 16.313 122.058 17.7915C121.823 16.5293 121.364 15.6632 120.615 14.6575C124.083 11.8972 124.013 16.645 123.989 18.9861C125.275 18.6466 126.551 18.442 127.876 18.6347C127.289 17.626 126.891 16.816 126.593 15.6677C125.708 12.3254 126.159 8.76141 127.845 5.75672C129.402 3.03156 131.947 0.811044 134.97 0ZM131.183 19.9887C131.405 20.2983 131.807 20.8898 132.049 21.1417C132.36 20.665 132.781 19.9799 133.151 19.576C132.388 15.1224 131.823 11.2788 132.922 6.80713C133.363 5.00491 134.005 3.46353 134.664 1.736C134.722 1.58319 134.814 1.44475 134.654 1.31034C133.42 1.49937 132.812 2.12086 132.041 3.0749C129.845 5.79296 128.989 9.08633 129.09 12.5699C129.177 15.599 129.664 17.3767 131.183 19.9887ZM146.444 12.8361C145.681 14.1101 147.312 14.3113 148.149 14.3756L148.24 14.2421C148.051 13.5027 147.204 12.8467 146.444 12.8361ZM130.383 34.4092C132.498 34.8957 133.402 31.7204 133.7 30.1769C134.216 27.5048 134.031 24.2276 133.442 21.5937C131.246 24.7314 129.15 28.7102 129.521 32.8237C129.582 33.4958 129.919 33.9455 130.383 34.4092ZM198.713 12.8499C198.084 14.1756 199.429 14.3754 200.395 14.4131C200.761 13.6769 199.434 12.8855 198.713 12.8499ZM186.234 19.1079C185.669 19.8889 184.97 21.0324 185.813 21.8922C186.804 21.4768 186.588 19.9764 186.253 19.1529C186.247 19.1378 186.24 19.1229 186.234 19.1079ZM156.575 10.2668C157.81 8.27554 158.392 5.50712 158.347 3.16935C158.336 2.64174 158.215 1.7761 157.638 1.60586C156.059 3.30526 156.444 7.8619 156.325 10.1508C156.321 10.2281 156.363 10.4093 156.386 10.4888C156.465 10.4175 156.534 10.367 156.575 10.2668ZM118.219 17.3636C117.979 17.4986 117.593 17.7421 117.552 18.0247C117.344 19.4744 120.207 19.5107 120.918 19.4933L121.405 19.4392C121.65 18.5665 119.164 17.2978 118.219 17.3636Z" fill="#ADADAD"/>
</svg>
