<svg width="220" height="43" viewBox="0 0 220 43" fill="none" xmlns="http://www.w3.org/2000/svg">
<path d="M19.684 8.718V30.218H15.6067L4.90577 17.1634V30.218H0V8.718H4.1098L14.7782 21.7726V8.718H19.684Z" fill="#F5FAFE"/>
<path d="M26.9817 23.3063C27.2051 24.3314 27.7371 25.141 28.5777 25.7349C29.4143 26.3289 30.458 26.6258 31.7047 26.6258C32.5616 26.6258 33.3251 26.4957 33.987 26.2394C34.6531 25.9831 35.2703 25.5803 35.8429 25.0271L38.3892 27.7893C36.8379 29.5712 34.5678 30.4621 31.5829 30.4621C29.7229 30.4621 28.0782 30.1 26.6487 29.3718C25.2192 28.6477 24.1146 27.6388 23.3349 26.3451C22.5592 25.0556 22.1693 23.591 22.1693 21.9516C22.1693 20.3121 22.5551 18.8761 23.3186 17.5743C24.0862 16.2725 25.138 15.2595 26.4781 14.5354C27.8183 13.8113 29.3168 13.4451 30.9697 13.4451C32.6225 13.4451 34.0439 13.7909 35.3556 14.4907C36.6633 15.1863 37.6907 16.1871 38.438 17.4848C39.1852 18.7866 39.5588 20.2959 39.5588 22.0167C39.5588 22.0777 39.5263 22.5089 39.4654 23.3063H26.9817ZM28.2691 17.9933C27.534 18.6076 27.0832 19.4456 26.9208 20.5115H35.047C34.8845 19.466 34.4338 18.632 33.6987 18.0096C32.9637 17.3831 32.0621 17.0739 30.9981 17.0739C29.9341 17.0739 29.0041 17.3831 28.2691 17.9974V17.9933Z" fill="#F5FAFE"/>
<path d="M68.2218 13.6933L62.2439 30.218H57.6427L53.935 19.9582L50.1013 30.218H45.5002L39.5548 13.6933H44.0625L47.9571 24.8725L52.006 13.6933H56.0549L59.9779 24.8725L63.9942 13.6933H68.2259H68.2218Z" fill="#F5FAFE"/>
<path d="M81.8142 25.6088H71.8483L69.9478 30.2139H64.8592L74.4271 8.71393H79.3329L88.9292 30.2139H83.7148L81.8142 25.6088ZM80.2507 21.8295L76.8475 13.5957L73.4443 21.8295H80.2507Z" fill="#F5FAFE"/>
<path d="M106.315 13.6933V27.4517C106.315 30.4824 105.527 32.7362 103.955 34.2088C102.379 35.6855 100.081 36.4178 97.0554 36.4178C95.4594 36.4178 93.9487 36.2225 92.5192 35.8361C91.0897 35.4455 89.9038 34.8841 88.9617 34.1478L90.8622 30.7062C91.5567 31.2798 92.4339 31.7354 93.4979 32.0731C94.5619 32.4107 95.6218 32.5775 96.6858 32.5775C98.3427 32.5775 99.561 32.2032 100.349 31.4547C101.137 30.7062 101.531 29.5752 101.531 28.0619V27.354C100.284 28.725 98.5458 29.4125 96.3162 29.4125C94.8055 29.4125 93.4207 29.0789 92.1618 28.4158C90.9069 27.7527 89.9079 26.813 89.1728 25.6047C88.4378 24.3965 88.0682 23.0052 88.0682 21.4268C88.0682 19.8484 88.4378 18.4571 89.1728 17.2488C89.9079 16.0406 90.9069 15.1049 92.1618 14.4378C93.4207 13.7747 94.8055 13.4411 96.3162 13.4411C98.7082 13.4411 100.528 14.2303 101.774 15.8047V13.6852H106.311V13.6933H106.315ZM100.381 24.364C101.19 23.6154 101.592 22.6391 101.592 21.4309C101.592 20.2226 101.19 19.2463 100.381 18.4977C99.5732 17.7492 98.5377 17.3749 97.2706 17.3749C96.0035 17.3749 94.9599 17.7492 94.1436 18.4977C93.3273 19.2463 92.9171 20.2226 92.9171 21.4309C92.9171 22.6391 93.3273 23.6154 94.1436 24.364C94.9639 25.1125 96.0035 25.4868 97.2706 25.4868C98.5377 25.4868 99.5732 25.1125 100.381 24.364Z" fill="#F5FAFE"/>
<path d="M113.608 23.3063C113.832 24.3314 114.364 25.141 115.204 25.7349C116.041 26.3289 117.085 26.6258 118.331 26.6258C119.188 26.6258 119.952 26.4957 120.614 26.2394C121.28 25.9831 121.897 25.5803 122.469 25.0271L125.016 27.7893C123.464 29.5712 121.194 30.4621 118.209 30.4621C116.349 30.4621 114.705 30.1 113.275 29.3718C111.846 28.6477 110.741 27.6388 109.961 26.3451C109.186 25.0556 108.796 23.591 108.796 21.9516C108.796 20.3121 109.182 18.8761 109.945 17.5743C110.713 16.2725 111.765 15.2595 113.105 14.5354C114.445 13.8113 115.943 13.4451 117.596 13.4451C119.249 13.4451 120.67 13.7909 121.982 14.4907C123.29 15.1863 124.317 16.1871 125.064 17.4848C125.812 18.7866 126.185 20.2959 126.185 22.0167C126.185 22.0777 126.153 22.5089 126.092 23.3063H113.608ZM114.9 17.9933C114.165 18.6076 113.714 19.4456 113.551 20.5115H121.678C121.515 19.466 121.064 18.632 120.329 18.0096C119.594 17.3872 118.693 17.0739 117.629 17.0739C116.565 17.0739 115.635 17.3831 114.9 17.9974V17.9933Z" fill="#F5FAFE"/>
<path d="M130.852 30.1814C129.268 29.7217 127.993 29.1196 127.034 28.3833L128.719 24.6365C129.637 25.3118 130.734 25.857 132.001 26.2638C133.268 26.6706 134.535 26.8781 135.802 26.8781C137.211 26.8781 138.255 26.6665 138.929 26.2475C139.603 25.8285 139.94 25.2712 139.94 24.5755C139.94 24.0629 139.741 23.6398 139.343 23.3022C138.945 22.9645 138.434 22.692 137.812 22.4886C137.187 22.2852 136.346 22.0574 135.282 21.8133C133.646 21.4227 132.309 21.0363 131.266 20.6457C130.222 20.2552 129.329 19.6328 128.581 18.7703C127.834 17.9119 127.461 16.7647 127.461 15.3287C127.461 14.0798 127.798 12.9488 128.472 11.9359C129.146 10.9229 130.165 10.1174 131.522 9.52348C132.882 8.92954 134.539 8.63256 136.505 8.63256C137.873 8.63256 139.213 8.79529 140.521 9.12481C141.829 9.45026 142.974 9.92216 143.953 10.5364L142.417 14.3117C140.436 13.1889 138.454 12.6234 136.472 12.6234C135.079 12.6234 134.056 12.8471 133.39 13.2987C132.724 13.7503 132.395 14.3442 132.395 15.0805C132.395 15.8169 132.776 16.3661 133.544 16.7241C134.312 17.082 135.481 17.436 137.053 17.7858C138.689 18.1764 140.025 18.5628 141.069 18.9534C142.113 19.3439 143.006 19.9582 143.754 20.7962C144.501 21.6343 144.874 22.7733 144.874 24.2053C144.874 25.4339 144.533 26.5567 143.847 27.5696C143.161 28.5826 142.137 29.3881 140.765 29.982C139.396 30.576 137.731 30.873 135.765 30.873C134.068 30.873 132.427 30.6411 130.843 30.1814H130.852Z" fill="#F5FAFE"/>
<path d="M162.788 13.6933L155.336 31.231C154.58 33.1348 153.642 34.4773 152.529 35.2543C151.417 36.0313 150.073 36.4219 148.497 36.4219C147.64 36.4219 146.787 36.2876 145.951 36.0232C145.114 35.7588 144.428 35.3886 143.896 34.9167L145.642 31.5076C146.011 31.833 146.434 32.0893 146.913 32.2765C147.392 32.4595 147.867 32.5531 148.338 32.5531C148.992 32.5531 149.524 32.3944 149.934 32.0771C150.341 31.7598 150.71 31.231 151.039 30.4946L151.1 30.34L143.957 13.6933H148.895L153.524 24.905L158.187 13.6933H162.788Z" fill="#F5FAFE"/>
<path d="M165.468 29.9536C164.16 29.6159 163.117 29.1928 162.341 28.6802L163.933 25.2427C164.668 25.7146 165.557 26.097 166.601 26.394C167.645 26.6909 168.664 26.8415 169.667 26.8415C171.69 26.8415 172.701 26.3411 172.701 25.3363C172.701 24.8644 172.425 24.5267 171.872 24.3233C171.32 24.1199 170.471 23.945 169.326 23.8026C167.978 23.5992 166.861 23.3632 165.984 23.0947C165.103 22.8303 164.343 22.3584 163.697 21.6831C163.052 21.0078 162.731 20.0436 162.731 18.7947C162.731 17.7492 163.031 16.8258 163.636 16.0162C164.238 15.2066 165.119 14.5761 166.272 14.1245C167.425 13.673 168.79 13.4492 170.366 13.4492C171.531 13.4492 172.693 13.5753 173.846 13.8316C174.999 14.0879 175.954 14.4418 176.713 14.8934L175.117 18.3025C173.663 17.4807 172.083 17.0739 170.366 17.0739C169.342 17.0739 168.579 17.2163 168.067 17.5051C167.555 17.7899 167.3 18.1601 167.3 18.6117C167.3 19.1242 167.576 19.4822 168.128 19.6856C168.68 19.889 169.558 20.0843 170.764 20.2674C172.112 20.4952 173.217 20.7352 174.073 20.9915C174.93 21.2478 175.678 21.7116 176.311 22.3869C176.945 23.0622 177.261 24.006 177.261 25.2142C177.261 26.2394 176.953 27.1506 176.344 27.948C175.73 28.7453 174.837 29.3678 173.659 29.8071C172.486 30.2465 171.089 30.4702 169.476 30.4702C168.108 30.4702 166.768 30.2994 165.46 29.9617L165.468 29.9536Z" fill="#F5FAFE"/>
<path d="M198.537 0C189.985 0 182.606 5.00785 179.154 12.2572C181.205 14.9625 182.419 18.3391 182.419 21.9922C182.419 25.6454 181.318 28.6965 179.446 31.3326C183.008 38.2606 190.22 43 198.537 43C210.392 43 220 33.3748 220 21.5C220 9.62517 210.392 0 198.537 0ZM192.299 29.7461H188.454V13.1034H192.299V29.7461ZM208.84 16.2399H203.524V29.7461H199.678V16.2399H194.363V13.1034H208.84V16.2399Z" fill="#F5FAFE"/>
</svg>
