<svg width="110" height="50" viewBox="0 0 110 50" fill="none" xmlns="http://www.w3.org/2000/svg">
<g clip-path="url(#clip0_27083_19671)">
<path d="M30.0343 17.7707C30.262 17.7526 31.2752 17.7292 31.4008 17.9165C32.4015 19.3969 32.7462 21.1959 33.3258 22.8706C33.5829 23.6134 33.9701 24.6326 34.1698 25.429C34.1939 25.5251 34.686 25.5702 34.7578 25.523C35.2401 25.2061 35.2494 24.0305 35.5066 23.4889C36.035 22.3725 36.4502 21.0975 36.8277 19.9473C37.1111 19.0839 37.2216 17.7102 38.338 17.7813C38.8623 17.8147 39.7716 17.6629 40.1773 18.0141C40.2767 18.2949 40.2771 18.6668 40.2761 18.9633C40.2685 21.5763 40.2945 24.1867 40.2303 26.7996C40.2036 27.8858 40.4381 28.2562 40.0115 29.3146C39.3738 29.3838 38.1808 29.5454 38.1489 28.5361C38.1191 27.5943 38.2172 26.6314 38.209 25.6709C38.1898 24.9969 38.2028 24.329 38.2116 23.655L37.6318 23.2701C36.7574 24.9295 36.5867 27.8603 35.2757 29.1892C35.0032 29.42 34.6981 29.409 34.4031 29.3947C33.1273 29.3328 33.3134 28.5765 32.9827 27.6082C32.8582 27.3667 32.3467 25.3347 32.2896 25.2853C31.6653 24.745 31.5958 23.1574 31.3343 22.8188L31.233 22.8379C30.6072 23.5854 31.341 28.7284 30.6918 29.3075C30.3188 29.4225 29.8442 29.3735 29.4605 29.3245C28.6077 29.2156 28.8384 27.6684 28.8397 27.0196L28.838 24.1942L28.8333 20.649C28.8323 19.7628 28.7821 18.7638 28.9495 17.9041C29.2923 17.8327 29.6825 17.8042 30.0343 17.7707Z" fill="#A3ACB5"/>
<path d="M97.1922 17.7737C97.3164 17.7722 97.4747 17.7595 97.5957 17.7873C97.665 17.8033 97.7316 17.8269 97.77 17.8891C98.0071 18.2753 97.9581 27.035 97.9107 28.105C97.8893 28.5796 97.8313 29.0251 97.7279 29.4887C96.275 29.3496 95.8572 28.9946 94.3222 29.471C93.462 29.7379 92.2634 29.321 91.5098 28.7991C91.1442 28.4706 90.8687 28.1447 90.6246 27.7132C89.9706 26.5591 89.9285 24.1509 90.2877 22.9279C90.5164 22.1401 91.0536 21.4782 91.7779 21.0932C93.1657 20.338 94.3324 20.697 95.7074 21.1045C95.8055 20.3858 95.8076 18.3369 95.9574 17.9852C96.2217 17.7676 96.832 17.789 97.1922 17.7737ZM94.4139 27.6053C96.1983 27.1577 95.9339 24.7341 95.5875 23.39C94.9138 22.7827 94.505 22.4209 93.5335 22.5072C92.1163 22.7644 91.9708 24.3731 92.0646 25.5382C92.2032 27.2551 92.8331 27.6654 94.4139 27.6053Z" fill="#A3ACB5"/>
<path d="M52.954 47.1295C52.8512 45.5987 52.9282 43.0236 52.9343 41.4438L52.9459 38.1342C52.9449 37.7912 52.8611 36.0099 53.0467 35.8014C53.7416 35.049 54.9093 36.1046 55.6171 35.6895C57.4222 34.6306 60.3621 36.1144 60.5465 38.2107C60.5326 38.7075 60.4606 40.6665 60.5433 41.0485C60.5289 41.5604 60.2885 42.3389 59.9559 42.7415C58.5953 44.3904 57.1339 44.6396 55.1444 44.0266L55.074 44.0809C54.7804 44.726 55.1934 46.8517 54.7558 47.2461C54.282 47.3992 53.432 47.2283 52.954 47.1295ZM57.2741 42.5605C57.9696 42.0577 58.5223 41.5467 58.6235 40.6379C58.8287 38.7951 58.695 37.0974 56.3617 37.278C54.8838 37.6668 54.9152 39.2006 54.9259 40.4516C54.9333 41.2806 55.3624 41.9713 56.076 42.3928C56.5173 42.6534 56.7907 42.6289 57.2741 42.5605Z" fill="#A3ACB5"/>
<path d="M76.6068 17.7274C76.7245 17.7165 76.8423 17.7085 76.9606 17.7035C77.2175 17.6918 77.3284 17.6683 77.5144 17.8381C77.5421 18.0603 77.298 18.5657 77.1397 18.7209C75.7577 20.0743 74.112 21.242 73.0295 22.8669C74.1802 23.8406 74.3912 24.5144 75.2285 25.6407C75.7124 26.2912 76.8599 27.9322 77.4051 28.3962C77.4089 28.7892 77.3769 29.1583 77.347 29.5488C76.7805 29.419 76.3749 29.3838 75.7903 29.3751C75.0009 29.3636 74.6135 28.4002 74.1999 27.8514C73.7932 27.3079 73.4852 26.9149 73.0674 26.3582C72.6117 25.7505 72.1576 24.6811 71.3853 24.3993C71.2617 24.3541 70.7319 24.6574 70.6179 24.7437C70.2373 25.0319 70.1601 25.4798 70.1036 25.9276C70.0689 26.8145 70.3189 28.5628 69.7438 29.286C69.5173 29.5712 68.1806 29.3909 67.9168 29.1149C67.7644 28.5548 67.8113 27.0219 67.8081 26.3837C67.798 24.4715 67.8076 22.5499 67.8683 20.6382C67.8982 19.6846 67.7916 18.9102 67.9275 17.9387C68.9545 17.7079 70.0849 17.4156 70.11 18.8255C70.1238 19.6071 69.9607 21.4968 70.2704 22.134C70.3775 22.1872 70.45 22.1683 70.5486 22.086C72.1086 20.7884 73.4276 19.2024 75.0009 17.9211C75.2509 17.7174 76.2534 17.7411 76.6068 17.7274Z" fill="#A3ACB5"/>
<path d="M78.6511 35.3566C79.9249 35.2273 81.6682 35.5165 82.4394 36.6696C82.845 37.276 82.8152 38.0072 82.8093 38.7098L82.7912 40.7697C82.7912 41.0058 82.7939 41.8648 82.8765 42.0277C83.4531 43.1675 84.0271 42.6077 83.5091 44.1521C81.9736 44.4773 81.9118 44.1131 80.6652 43.6203C80.2863 43.8258 79.9004 44.0179 79.5087 44.1963C78.2104 44.5631 76.8508 44.4292 75.9219 43.3804C74.6497 41.944 75.3276 40.5087 76.5374 39.361C76.8055 39.305 77.0539 39.2416 77.3187 39.1731C76.7314 38.8866 76.3674 38.7506 75.7534 38.5254C75.9037 36.5437 76.6867 35.6703 78.6511 35.3566ZM77.5959 40.9717C77.4861 41.6259 77.4653 41.7685 77.5778 42.4137C77.9631 42.57 78.2205 42.6501 78.6453 42.6753C79.36 42.6403 81.1811 41.5728 80.5943 40.648C80.524 40.5368 79.9207 40.4428 79.7672 40.4763C78.9629 40.6026 78.3831 40.7381 77.5959 40.9717ZM79.3712 38.8571C79.7917 38.8266 80.2852 38.8181 80.5341 38.4425C81.3554 37.2056 79.4367 37.1008 78.7791 37.1706C78.1603 37.3399 77.3177 37.9956 77.4152 38.7481C77.4243 38.8158 77.5154 38.9537 77.5804 38.9838C78.1779 38.9492 78.7748 38.907 79.3712 38.8571Z" fill="#A3ACB5"/>
<path d="M38.5786 38.9129C38.7805 37.6324 39.0996 36.9454 40.1551 36.128C42.5482 34.2747 46.0093 35.7968 46.5085 38.6953C46.8118 40.7183 46.2919 42.914 44.3508 43.9248C42.638 44.8167 40.4223 44.301 39.2932 42.7269C38.815 42.0603 38.7138 41.4171 38.6404 40.6232C38.6483 40.115 38.6246 39.42 38.5786 38.9129ZM43.0866 42.5351C43.71 42.1278 44.3517 41.4989 44.4759 40.7393C44.785 38.8492 44.3381 36.9739 42.0048 37.2192C40.4945 37.7235 40.4299 39.8598 40.7874 41.1701C41.0434 42.1081 42.0542 42.8591 43.0866 42.5351Z" fill="#A3ACB5"/>
<path d="M100.045 41.3789C99.7101 42.9259 98.2812 44.1321 96.725 44.311C94.4061 44.5776 92.3531 43.0664 92.2513 40.6695C92.1906 39.3913 92.1532 37.8134 93.0454 36.7925C94.9209 34.6463 98.1171 34.8728 99.6392 37.291C99.9259 37.7462 99.9894 37.8765 100.034 38.4092C100.034 39.0806 99.9878 40.8138 100.045 41.3789ZM96.579 42.5897C97.4487 42.0032 97.9519 41.6951 98.1874 40.5563C98.3756 39.6471 98.099 38.5048 97.6806 37.6885C97.0655 37.3949 96.6605 37.1665 95.9527 37.2208C95.3899 37.3001 95.1266 37.3626 94.7408 37.8566C94.2153 38.5296 94.1481 39.8691 94.2803 40.6822C94.3837 41.3342 94.7408 41.9187 95.2743 42.3081C95.674 42.5959 96.0988 42.6901 96.579 42.5897Z" fill="#A3ACB5"/>
<path d="M11.4305 5.88354C11.6604 5.86318 11.8902 5.85348 12.1153 5.85012C16.2422 5.78909 17.6667 11.2157 14.8189 13.8051C14.2845 14.2911 13.8401 14.4779 13.1913 14.7155C12.1137 14.9237 10.9164 14.7661 9.9823 14.1412C7.79758 12.6793 7.68641 8.88109 9.3809 7.0248C9.8199 6.54388 10.7808 6.00225 11.4305 5.88354Z" fill="#A3ACB5"/>
<path d="M61.8293 38.7958C61.9663 36.6257 64.1376 34.9449 66.2604 35.3603C67.0747 35.5197 67.9531 35.9041 68.5015 36.5413C69.3825 37.5596 69.8152 38.89 69.7022 40.2316C69.6836 40.4729 69.6447 40.7002 69.5823 40.9339C69.011 43.0708 67.5741 44.5389 65.2531 44.3487C64.2847 44.2626 63.3893 43.7982 62.7615 43.0563C62.3191 42.5305 61.9818 41.9004 61.8805 41.2169C61.8768 40.4664 61.848 39.5594 61.8293 38.7958ZM66.0003 42.579C67.7063 41.6472 68.2366 39.5953 67.0726 37.9495C66.9761 37.8128 66.8322 37.5812 66.7587 37.4318C66.1575 37.2699 65.7786 37.1358 65.1454 37.2131C63.6121 37.7432 63.4304 39.9503 63.983 41.237C64.3241 42.0308 64.5123 42.1078 65.1508 42.6322C65.4529 42.67 65.7189 42.7228 66.0003 42.579Z" fill="#A3ACB5"/>
<path d="M37.4329 40.3148C37.3352 40.9145 36.9851 41.9484 36.6348 42.4151C34.6513 45.0576 30.1917 45.0981 28.1998 42.4369C26.9414 40.7556 26.824 39.029 27.0517 37.0736C27.5882 32.4661 33.6707 30.8683 36.6793 34.1552C37.0113 34.5177 37.7742 36.1713 37.3664 36.55C37.1454 36.7553 35.7684 36.6132 35.4362 36.5511C35.1698 35.8602 35.0892 35.2511 34.3988 34.8633C32.9047 34.0242 30.6658 34.3685 29.7488 35.8962C29.0694 37.0281 29.2037 38.7583 29.3737 39.9625C29.5971 41.4712 31.5017 42.8016 32.956 42.4868C34.5352 42.1449 34.9982 41.0834 35.5307 39.7553C35.7078 39.3133 37.0574 39.2945 37.4365 39.5642L37.4329 40.3148Z" fill="#A3ACB5"/>
<path d="M44.8909 20.6483C45.4793 20.5994 46.0717 20.6347 46.6501 20.7532C48.8735 21.2034 48.9422 22.4625 48.8665 24.3982C48.8272 25.4003 48.9577 26.1834 48.7274 27.219C50.1435 27.8826 50.1921 28.426 49.1731 29.4727C48.2391 29.5125 47.715 29.3004 46.8893 28.9133C46.2303 29.0544 45.6253 29.4029 44.9375 29.4893C43.5537 29.6632 42.6787 29.4547 41.7986 28.3869C41.4051 27.7948 41.4282 27.0422 41.4867 26.3226C41.6134 24.7605 43.5268 24.343 44.772 24.0159C45.2212 23.898 46.3072 23.9888 46.6652 23.7043C46.8145 23.4355 46.7192 22.9414 46.6817 22.6316C45.2322 22.329 43.6207 22.051 43.6509 24.0762C43.0755 23.9697 42.4984 23.8739 41.9277 23.7461C41.419 23.2458 42.5054 21.4477 43.0354 21.1177C43.5318 20.8085 44.3215 20.7227 44.8909 20.6483ZM44.6484 27.668C45.0886 27.6619 45.1831 27.6668 45.6037 27.5519C46.577 27.2859 47.7147 25.3187 45.87 25.6014C45.4732 25.6782 45.016 25.7933 44.6282 25.8648C43.434 26.0845 43.5081 26.5634 43.6795 27.5901C44.0266 27.6342 44.2981 27.6748 44.6484 27.668Z" fill="#A3ACB5"/>
<path d="M54.3514 20.6457C55.6353 20.5543 56.7865 20.8383 57.4249 22.0562C57.6051 22.3945 57.7223 22.7626 57.7719 23.1426C57.87 23.885 57.8934 28.4635 57.7021 29.0505C57.6589 29.182 57.5822 29.3446 57.4495 29.404C57.1878 29.5211 56.3308 29.3356 56.0792 29.2134C55.8756 29.1147 55.8181 28.9643 55.776 28.7529C55.6854 28.2995 55.7269 27.7987 55.7312 27.338C55.7445 25.8683 55.9375 24.0612 55.4818 22.6639C54.9685 22.569 54.5688 22.4598 54.0454 22.4773C54.0135 22.4867 53.9815 22.4967 53.95 22.5072C53.4912 22.6598 53.0745 22.9947 52.8728 23.4392C52.4963 24.2687 52.668 26.7551 52.6761 27.7392C52.6794 28.1437 52.7279 28.6522 52.5358 29.02C52.4546 29.1755 52.3188 29.2932 52.1496 29.3437C51.95 29.4033 51.1424 29.4684 50.9687 29.3518C50.8644 29.2817 50.8219 29.0034 50.7981 28.8787C50.6493 28.1001 50.4513 21.5329 50.7976 21.0204C51.489 20.5337 52.8463 21.282 53.6175 20.8346C53.7656 20.7487 54.168 20.6701 54.3514 20.6457Z" fill="#A3ACB5"/>
<path d="M103.894 35.8726C105.852 34.553 108.74 35.8101 108.463 38.3579C108.3 39.857 108.731 42.8808 108.319 44.2101C107.77 44.2566 107.353 44.2775 106.806 44.1809C106.238 42.9229 106.764 39.303 106.325 37.4629C104.876 37.1248 103.805 37.1382 103.399 38.9144C103.194 39.8126 103.331 40.8051 103.291 41.7195C103.288 41.9604 103.296 42.2233 103.295 42.4646C103.289 43.9779 103.392 44.4236 101.723 44.2188C101.358 43.8541 101.283 43.6197 101.288 43.0652C101.292 42.5616 101.352 41.9926 101.38 41.4816C101.459 40.9214 101.451 38.7163 101.372 38.1923C101.341 37.466 100.919 35.4792 102.055 35.5285C102.729 35.5577 103.147 35.8577 103.894 35.8726Z" fill="#A3ACB5"/>
<path d="M63.1916 20.6474C63.732 20.5945 64.5549 20.7105 65.0485 20.9476C65.6177 21.2148 66.0547 21.7012 66.2593 22.2959C66.6457 23.4418 66.4443 25.1627 66.4491 26.3735C66.4517 27.068 66.5146 27.7977 66.4485 28.4887C66.4299 28.683 66.3905 28.8983 66.2972 29.0718C66.2023 29.2485 66.0019 29.3576 65.8159 29.4121C65.5404 29.493 65.1828 29.4944 64.9285 29.3449C64.1467 28.8847 64.71 24.5452 64.4324 23.471C64.3471 23.1418 64.152 22.8615 63.974 22.5754C63.3265 22.4474 63.0062 22.479 62.3773 22.6186C61.7889 22.9091 61.3359 23.521 61.2554 24.1577C61.0742 25.5951 61.2591 27.0965 61.1664 28.54C61.1275 29.1495 60.707 29.5444 60.0898 29.4324C59.5968 29.343 59.2451 29.253 59.2408 28.6597C59.1998 26.8023 59.284 24.9439 59.2157 23.086C59.1934 22.4643 59.1566 21.8182 59.2429 21.202C59.2573 21.1 59.3953 21.0347 59.4705 20.9793C60.045 20.6423 60.9116 20.9349 61.516 21.074C62.1385 20.8566 62.5388 20.7237 63.1916 20.6474Z" fill="#A3ACB5"/>
<path d="M85.4442 20.6435C89.4829 20.4078 88.7283 23.2812 88.7933 26.0545C88.8119 26.8458 88.8333 27.6471 88.8109 28.4388C88.7997 28.8574 88.7549 29.559 88.1548 29.4428C87.826 29.4328 86.9892 29.3091 86.9455 28.8845C86.7222 26.7109 87.1358 24.7237 86.5602 22.5782C85.9201 22.4935 85.6488 22.445 85.0183 22.5313C84.9277 22.5604 84.8227 22.6039 84.7423 22.655C84.3249 22.9181 84.0116 23.3185 83.857 23.7873C83.6593 24.3954 83.7429 25.0026 83.7206 25.6236C83.6779 26.802 83.8527 28.1719 83.5585 29.3153C83.0474 29.3728 82.2133 29.5329 81.8595 29.0663C81.7939 28.8294 81.7625 28.5928 81.7529 28.3478C81.7182 27.4806 81.7134 21.5641 81.8541 21.128C81.8781 21.0533 81.9986 20.9762 82.0689 20.942C82.6594 20.6551 83.541 20.9355 84.1224 21.1195C84.6815 20.8027 84.811 20.7359 85.4442 20.6435Z" fill="#A3ACB5"/>
<path d="M85.9468 33.335C86.1184 33.3389 86.3294 33.3329 86.4573 33.4592C86.7963 33.7942 86.7174 34.8718 86.727 35.3812C87.7077 35.4919 88.1457 35.384 88.0317 36.611C87.94 37.5987 87.5893 37.4468 86.7718 37.3503C86.6369 38.8194 86.6476 40.8411 86.7723 42.3121C87.0148 42.3305 87.5547 42.3592 87.7279 42.4879C88.1404 42.7945 88.11 43.7555 87.8702 44.1504C87.7423 44.2411 87.5286 44.2349 87.3623 44.2464L87.1843 44.2517C84.4289 44.3282 84.6799 42.5573 84.673 40.4849L84.6538 37.5875C83.9439 37.4118 83.8229 37.3657 83.6758 36.6292C83.3422 35.7505 84.649 35.3659 84.6788 34.8196C84.7375 33.7284 84.4209 33.4394 85.9468 33.335Z" fill="#A3ACB5"/>
<path d="M51.1318 35.3557C51.4895 35.3294 51.7349 35.3796 52.0774 35.4543C52.2142 36.0575 52.1411 36.7949 52.0713 37.3997C47.8118 37.1197 50.262 42.1523 49.211 44.1897C48.8336 44.2487 48.4929 44.2568 48.1114 44.2724L47.5388 44.2196C47.3281 43.2091 47.2441 36.639 47.5174 35.7515C47.9108 35.1685 49.2333 35.897 49.7606 35.8198C50.2651 35.7459 50.6112 35.5027 51.1318 35.3557Z" fill="#A3ACB5"/>
<path d="M74.1759 35.3526C74.4221 35.3243 75.026 35.2523 75.1107 35.5365C75.2248 35.9215 75.3122 37.1615 75.1672 37.4896C74.4024 37.296 74.2127 37.3757 73.4388 37.6248C71.857 39.1948 73.1857 43.1938 72.3793 44.0674C72.2082 44.2522 71.8788 44.2353 71.6438 44.2517C71.0293 44.2489 70.644 44.197 70.6338 43.4438C70.6093 41.587 70.6706 39.7282 70.6445 37.8707C70.6354 37.197 70.5683 36.5182 70.7111 35.856C71.2681 35.3247 72.1826 35.6363 72.827 35.8316C73.1729 35.7401 73.8215 35.4812 74.1759 35.3526Z" fill="#A3ACB5"/>
<path d="M88.9437 35.8463C89.5827 35.8366 90.1786 35.7862 90.8437 35.7832C91.0079 36.277 90.9695 37.1673 90.9306 37.7088C90.7952 39.5802 90.9365 41.4383 90.9381 43.3029C90.9381 43.9829 90.7041 44.3941 90.008 44.3097C89.1985 44.2868 88.8451 44.2907 88.8457 43.3421C88.8254 40.9642 88.8926 38.593 88.8334 36.2157C88.8302 36.0931 88.8782 35.9479 88.9437 35.8463Z" fill="#A3ACB5"/>
<path d="M79.1147 21.0206C79.4254 20.981 80.2989 20.8987 80.3512 21.3327C80.4188 21.8893 80.3757 22.4791 80.3698 23.0417L80.3442 26.4411C80.3421 27.2863 80.5185 28.5487 80.1145 29.3051C80.0644 29.3992 79.8955 29.3842 79.7969 29.3897C78.6137 29.257 78.3414 29.4754 78.3616 28.1691C78.3957 25.966 78.3664 23.7561 78.3829 21.5525C78.3867 21.02 78.6649 21.0735 79.1147 21.0206Z" fill="#A3ACB5"/>
<path d="M79.2186 17.8239C79.3636 17.8052 79.7457 17.7865 79.8811 17.8063C80.9289 17.9597 80.5196 19.7946 79.9626 20.1786L79.8342 20.1439L79.7995 20.1444C78.1777 20.1604 78.3435 19.2378 78.3371 17.9724C78.6366 17.8951 78.9132 17.8644 79.2186 17.8239Z" fill="#A3ACB5"/>
<path d="M89.0327 34.6675C88.8419 34.1095 88.5653 33.0216 89.3631 32.8344C91.0356 32.4424 91.2615 33.26 90.7776 34.6711C90.7392 34.7841 90.6156 35.0294 90.5921 35.1291C90.4413 35.2193 90.5042 35.2083 90.3502 35.1938C90.315 35.0996 90.2788 35.006 90.2409 34.9129C89.9904 34.7866 89.4431 34.8062 89.0327 34.6675Z" fill="#A3ACB5"/>
<path d="M18.7835 1.05566C21.0814 2.71075 23.6963 6.8125 24.1576 9.61415C24.3939 11.0497 24.3497 12.6253 23.9504 14.0334C23.8154 14.5096 23.6165 14.9667 23.4573 15.435C23.1552 16.3231 22.8837 17.1955 22.4859 18.0491C22.1753 18.7155 21.7801 19.3501 21.4315 19.9976C21.0713 20.6665 20.7528 21.3684 20.3564 22.016C20.0658 22.4907 19.7153 22.9274 19.4194 23.3993C18.5585 24.7724 17.7153 26.1628 16.7689 27.4801C16.463 27.9059 15.67 28.7085 15.7708 29.267C15.8536 29.7248 16.8094 30.9158 17.0972 31.3596L19.611 35.1889C20.0174 35.7999 20.3763 36.2615 20.7452 36.9181C22.0235 39.1935 23.5887 41.4492 24.2091 44.0176C24.6676 45.9969 23.2708 48.0672 21.8643 49.2856C21.7164 49.4138 21.5348 49.586 21.3441 49.6661C21.0557 49.4519 21.1765 48.5771 21.2313 48.2509C21.6647 45.671 20.5423 44.4709 19.0673 42.5822C18.2767 41.57 17.4506 40.4184 16.6439 39.3576L13.5109 35.2786C13.1069 34.7419 12.786 34.1636 12.41 33.6298C11.8714 34.1035 11.5814 34.4389 11.1446 35.0084C9.21835 37.5194 7.36003 40.083 5.4176 42.582C5.12923 42.953 4.89328 43.3834 4.61549 43.7646C3.73071 44.7875 3.13149 45.4466 3.03584 46.8767C3.01032 47.2711 3.01707 47.667 3.05601 48.0603C3.10415 48.5064 3.40547 49.3386 3.27562 49.6873L3.20172 49.7115C2.9286 49.3502 2.77392 49.4323 2.45259 49.2196C1.48034 48.576 0.930469 47.4809 0.547958 46.4146C0.446043 46.1304 0.287845 46.0429 0 46.0073V43.6507C0.623788 43.472 0.779519 42.5394 0.944897 41.9427C1.28146 40.7285 1.96174 39.9939 2.50934 38.9482C3.17548 37.6761 3.78124 36.7735 4.56828 35.5918L7.26511 31.5183C7.90444 30.5344 8.27384 30.2331 8.80227 29.1215C8.33391 28.0359 8.08165 27.9618 7.44775 27.0268C6.95764 26.1289 6.27108 25.3813 5.74031 24.5257C4.97162 23.1449 3.88747 21.7546 3.18893 20.3604C2.16725 18.3214 0.580996 15.7161 0.642958 13.3924C0.660733 13.2705 0.636003 12.1232 0.625776 11.8975C0.587792 11.0597 0.6868 10.0277 0.64687 9.23121C0.599346 7.08659 2.1511 5.07303 3.34911 3.39857C3.79016 2.78211 4.68383 2.11444 5.29827 1.66584C5.34202 1.81327 5.34362 1.9036 5.28002 2.05042C4.83314 3.08225 4.04975 4.16046 3.75567 5.23911C3.17993 7.35082 3.38959 9.62172 4.48474 11.5281C4.82075 12.1253 5.04867 13.0773 5.4039 13.6934C5.76541 14.4313 6.269 15.1857 6.68977 15.9009C6.94405 16.3331 7.24938 17.0264 7.50579 17.4054C8.58632 19.0026 9.47503 20.678 10.6624 22.1978C10.9546 22.5719 11.2204 23.1755 11.5415 23.566C11.8202 23.905 12.1408 24.0322 12.4 24.3607C13.2846 22.7312 14.5118 21.3171 15.4607 19.6977C16.2337 18.633 16.8974 17.5497 17.5145 16.3888C17.67 16.0963 17.9084 15.756 18.0952 15.4508C18.9782 14.0086 19.639 12.2896 20.3837 10.7725C20.797 9.93068 20.9395 8.48579 20.998 7.59006C21.0709 5.95557 20.5601 5.14471 20.297 3.72575C19.7719 3.34147 18.9703 1.67161 18.7835 1.05566Z" fill="#A3ACB5"/>
</g>
<defs>
<clipPath id="clip0_27083_19671">
<rect width="109.15" height="50" fill="white"/>
</clipPath>
</defs>
</svg>
