<svg width="137" height="50" viewBox="0 0 137 50" fill="none" xmlns="http://www.w3.org/2000/svg">
<path d="M58.5622 13.6939L67.0246 13.7094C68.2805 13.7074 69.6797 13.647 70.919 13.7359C71.3829 13.7957 71.9156 14.0112 72.2455 14.3458C73.2888 15.404 72.8562 17.4499 72.9315 18.8044C72.9302 20.3541 73.0881 21.7837 71.4976 22.5734C70.727 22.956 68.6738 22.9134 68.2578 23.3388C68.2805 23.5948 71.1463 25.8584 71.5896 26.2852C72.5489 27.2092 73.4094 27.5344 74.0427 28.8432C73.4768 28.8738 72.7802 28.8592 72.2035 28.8598C70.095 28.839 70.623 28.3781 69.1524 27.2812C67.5125 26.0578 66.1956 24.3312 64.6648 23.0935C63.6508 22.9906 61.3591 23.0798 60.2069 23.0447C59.8918 25.0522 60.2614 26.9034 59.9202 28.8852C59.2105 28.874 58.4644 28.8774 57.7629 28.7938L57.7589 28.7695C57.5912 27.7161 57.6337 26.7344 57.6335 25.6716L57.6351 21.9658C57.6371 19.6086 57.5343 16.0379 57.6865 13.768C57.9543 13.7351 58.2879 13.7168 58.5622 13.6939ZM69.4664 20.7396C69.7597 20.5583 70.1864 20.3062 70.197 19.948C70.219 19.2196 70.3057 16.5945 70.101 16.1186C69.7744 15.7579 68.8651 15.58 68.3985 15.5868C65.809 15.6242 63.1051 15.4834 60.5265 15.6188C60.0423 15.9052 60.0675 16.5672 60.0828 17.0698C60.1132 18.0162 59.8828 19.7959 60.3012 20.6186C60.5302 21.069 63.635 20.9608 64.1645 20.9284C65.1855 20.8658 68.8004 21.1062 69.4664 20.7396Z" fill="#A3ACB5"/>
<path d="M96.8971 2.22073C99.6303 1.85735 102.952 3.04035 104.377 5.5054C106.108 8.50299 103.986 11.1189 101.563 12.7905C100.57 13.4756 99.3909 14.9012 98.375 15.4876C98.0797 15.638 97.6637 15.8249 97.3518 15.6567C96.9571 15.211 97.4611 14.1485 97.4664 13.5022C97.3771 13.3557 97.2784 13.2967 97.1044 13.2618C95.6932 12.9779 94.206 12.6769 92.9927 11.8321C90.8956 10.3715 89.7057 7.53593 91.4129 5.30501C92.9314 3.32067 94.456 2.57316 96.8971 2.22073ZM98.9363 13.2477C99.1476 13.2691 99.4549 13.0289 99.6223 12.8773C100.989 11.6414 102.569 10.5608 103.574 8.98993C103.685 8.72113 103.751 8.33459 103.781 8.05933C103.892 7.04673 103.591 6.33022 102.94 5.56485C101.386 3.73768 99.2343 3.33666 96.9671 3.48687C93.0434 4.07725 89.535 7.40813 93.69 10.7678C94.9313 11.7712 96.3285 12.0217 97.8551 12.1659C98.423 12.2155 98.7963 12.3247 98.8896 12.9305C98.907 13.036 98.9223 13.1417 98.9363 13.2477Z" fill="#A3ACB5"/>
<path d="M44.9697 13.6948C45.7095 13.6609 46.8725 13.5732 47.2678 14.3094C49.6175 18.6864 52.0396 23.0314 54.4635 27.3669C54.6646 27.7266 54.9806 28.371 54.8921 28.7868C54.6049 28.9697 52.9662 28.8358 52.5483 28.7997C51.8408 27.9112 51.0903 26.0427 50.4198 25.3124C49.5865 25.1134 47.1618 25.1903 46.1634 25.1962C44.2941 25.1802 42.4246 25.1864 40.5554 25.215C39.4991 26.1425 39.5229 26.7285 38.9359 27.9465C38.7341 28.3652 38.3642 28.6168 37.9284 28.7608C37.6096 28.8662 36.3408 28.9422 36.1047 28.8116C35.9828 28.6035 36.0719 28.1998 36.1907 28.0213C36.706 27.2473 37.0876 26.4445 37.5069 25.6201C37.7835 25.0761 38.1915 24.5514 38.4698 23.9979C38.7546 23.4313 39.0326 22.8614 39.3233 22.298C39.5626 21.8033 39.9839 21.2964 40.2108 20.8042C40.7916 19.5442 41.4579 18.3711 42.1449 17.1678C42.3872 16.7434 42.5627 16.2334 42.8016 15.7964C43.1411 15.1755 43.4751 14.5454 43.9368 14.0037C44.1839 13.707 44.6124 13.7234 44.9697 13.6948ZM45.3355 23.0142C45.8516 23.0138 48.8506 23.1185 49.0211 22.9702C49.1419 22.2073 48.9638 21.9413 48.5065 21.3303C48.1445 20.8466 47.9211 20.394 47.6664 19.8509C47.0519 18.5402 46.3339 17.2836 45.7938 15.9379C45.773 15.886 45.6558 15.8189 45.6054 15.795C45.1841 15.9141 45.0863 15.9649 44.8766 16.4048C44.2915 17.6326 41.8525 21.665 41.7717 22.8096C42.0464 23.1551 44.7875 23.0186 45.3355 23.0142Z" fill="#A3ACB5"/>
<path d="M15.2118 13.6922C15.6529 13.6467 16.3885 13.7413 16.6677 14.1132C18.3757 16.3883 20.0545 18.6873 21.7711 20.9575C22.3526 21.7266 23.0722 22.6544 23.5543 23.4619C23.8854 22.7253 24.285 22.4089 24.6871 21.7683C25.3834 20.6588 26.1771 19.6725 26.9451 18.6338C27.6258 17.7131 28.2077 16.6352 28.9205 15.7147C29.3927 15.1049 29.6875 14.3556 30.2463 13.7857C30.8279 13.6727 32.1189 13.5914 32.6352 13.8924C32.8046 14.0704 32.8019 14.5178 32.7999 14.7558C32.7699 18.2875 32.7952 21.8197 32.7924 25.3514C32.7919 25.9667 32.8853 28.4096 32.5155 28.7869C32.0454 28.9226 31.1217 28.8577 30.6017 28.8387C30.2355 27.4555 30.3747 20.8115 30.4406 19.0806C30.4675 18.3517 30.398 17.6091 30.3381 16.8832C30.0921 17.4323 29.6352 17.9701 29.3098 18.4862C28.3253 20.0477 27.2625 21.5098 26.189 23.0083C25.4089 24.0972 24.6215 25.5934 23.6707 26.5503C23.3405 26.3355 22.9349 26.0041 22.693 25.6936C20.9052 23.3989 19.314 20.9609 17.5218 18.6677C17.2455 18.3141 17.0864 17.8285 16.799 17.4842C16.6531 17.3094 16.5474 17.3237 16.3571 17.3825C15.8484 18.2681 16.7481 28.1301 15.9256 28.8055C15.3996 28.9342 14.8794 28.8421 14.3457 28.7735C14.2957 28.5791 14.2589 28.3817 14.2353 28.1824C14.1637 27.5557 14.1923 26.5406 14.1924 25.8814L14.1947 21.9869L14.1941 17.133C14.1917 16.5596 14.0958 14.1693 14.3219 13.8825C14.5961 13.7371 14.9015 13.7269 15.2118 13.6922Z" fill="#A3ACB5"/>
<path d="M119.759 13.6924C120.27 13.6577 120.685 13.7195 121.186 13.8081C121.232 14.6413 121.196 15.77 121.196 16.6228V21.9527L121.195 25.7255C121.194 26.7899 121.242 27.8086 121.057 28.8573C120.717 28.8778 120.219 28.8891 119.898 28.7894L119.856 28.7759C119.327 28.6093 118.062 27.2621 117.566 26.8161L111.569 21.3493C110.6 20.465 109.577 19.7012 108.65 18.7423C108.01 18.0797 107.363 17.8432 106.824 16.9895C106.652 19.6073 106.783 22.2743 106.742 24.8967C106.73 25.5872 106.852 28.5517 106.492 28.9257C105.814 28.8853 105.204 28.8463 104.53 28.764C104.505 28.6511 104.481 28.5377 104.459 28.4241C104.313 27.652 104.385 24.2042 104.383 23.2033C104.379 20.3234 104.397 17.3767 104.387 14.4901C104.399 14.3651 104.382 13.9857 104.476 13.8983C104.912 13.4911 106.236 13.7708 106.66 14.067C107.396 14.5822 107.948 15.3967 108.626 16.0013L114.354 21.0916C114.818 21.5025 115.348 21.8767 115.805 22.2923C116.757 23.1586 117.774 24.3775 118.761 25.1756C118.896 24.124 118.811 22.8189 118.838 21.7507C118.903 19.1784 118.734 16.3369 118.876 13.7821C119.115 13.7407 119.507 13.7153 119.759 13.6924Z" fill="#A3ACB5"/>
<path d="M76.119 13.7555C76.9869 13.6727 78.1815 13.7053 79.0728 13.7062L83.8517 13.7108L88.8574 13.7117C89.454 13.7117 92.1385 13.6031 92.4424 13.9633C92.5444 14.4475 92.4058 15.1865 92.3278 15.6914C91.1845 15.8915 86.1069 15.678 85.7169 15.9567C85.5089 16.5185 85.6449 21.3733 85.6369 22.3706C85.6583 23.6218 85.8716 27.659 85.4223 28.5261C85.3483 28.668 85.223 28.8185 85.0637 28.8636C84.7217 28.9605 83.2178 28.8929 82.9311 28.6962C82.7938 28.6021 82.7792 28.4637 82.7632 28.3055C82.6832 27.5311 82.7698 26.7152 82.7725 25.9341L82.7838 19.5014C82.7831 18.6094 82.8065 16.5121 82.6758 15.7192C81.6539 15.8503 77.0536 15.8925 76.049 15.7425C75.9716 15.2749 75.8263 14.1577 76.119 13.7555Z" fill="#A3ACB5"/>
<path d="M97.4149 17.1389C97.7168 17.0881 97.9775 17.1351 98.2635 17.2315C98.5061 17.3135 98.8134 17.4414 98.9261 17.6888C99.1654 18.2127 99.1434 27.5012 98.9181 28.0785C98.7588 28.4875 98.3315 28.6569 97.9615 28.8256C97.4495 28.8488 96.8496 28.4893 96.5796 28.0682C96.3389 27.6926 96.3076 26.9664 96.3063 26.5272C96.3009 24.5321 96.2996 22.5373 96.3063 20.5423C96.3089 19.673 96.2623 18.7651 96.4349 17.9126C96.7576 17.585 97.0336 17.3882 97.4149 17.1389Z" fill="#A3ACB5"/>
<path d="M100.877 32.3528C101.745 32.2862 104.043 32.3418 104.812 32.5501C105.588 32.7604 105.505 36.7325 105.233 37.2384C104.966 37.4846 104.434 37.453 104.076 37.4616C102.833 37.4618 101.591 37.5254 100.352 37.4394C99.7227 37.3956 99.3481 36.6146 99.3428 36.0583C99.3288 34.5365 98.8295 32.6041 100.877 32.3528ZM103.874 36.7379C104.156 36.642 104.207 36.6732 104.384 36.465C104.423 36.1848 104.375 35.6604 104.356 35.349C104.316 34.6754 104.444 33.8197 104.157 33.2024C103.961 32.7801 103.007 33.0522 102.648 33.0466C102.019 33.0754 101.289 33.0762 100.623 32.9585C100.223 33.2734 100.113 36.179 100.372 36.5794C100.738 36.8062 103.525 36.9246 103.874 36.7379Z" fill="#A3ACB5"/>
<path d="M94.5777 32.3641C95.2223 32.3523 96.1363 32.2623 96.7236 32.5861C97.4108 32.9653 97.4115 34.3009 97.0529 34.9099C96.7489 35.4255 96.0296 35.5696 95.477 35.6876C96.0056 36.2281 96.7609 36.6749 97.2055 37.236C97.2309 37.2679 97.1829 37.3332 97.1615 37.3756C96.3623 37.64 95.8176 36.8927 95.3497 36.374C95.059 36.0976 93.9758 35.3746 93.5885 35.3731C92.3519 35.3686 93.3878 37.6089 92.1312 37.4368C91.8226 37.2041 91.7886 36.5346 91.8433 36.1897C91.9579 35.4601 91.6826 33.1483 92.0226 32.6102C92.4172 32.2999 94.0331 32.3683 94.5777 32.3641ZM95.759 34.8551C95.9936 34.7165 96.1603 34.3647 96.3056 34.118C96.0163 32.7626 95.6936 32.9335 94.4124 33.0018C94.0958 33.0187 93.6885 32.9895 93.3731 32.9275C92.6345 33.4041 92.4385 35.0181 93.8091 34.8961C94.3451 34.8484 95.233 34.8269 95.759 34.8551Z" fill="#A3ACB5"/>
<path d="M44.8858 32.3698C45.3899 32.3451 46.808 32.2558 47.1173 32.5528C47.6283 33.0435 47.564 34.7656 47.068 35.3068C46.7903 35.6097 46.1576 35.5984 45.7948 35.6339C46.2292 36.0039 46.8426 36.4459 47.305 36.7935C47.3667 37.0003 47.4388 37.4045 47.4847 37.6272C46.4049 37.3561 46.2281 37.1191 45.4997 36.2875C45.1684 35.9797 44.6779 35.6523 44.2802 35.437C42.5106 35.6462 43.7397 36.6596 43.1295 37.3237C42.9765 37.4902 42.1553 37.5771 42.306 36.6129C42.4656 35.5913 42.1176 33.6029 42.5423 32.6191C42.9307 32.294 44.339 32.3731 44.8858 32.3698ZM46.0057 34.7993L46.4045 34.9168C46.5379 34.7277 46.4791 33.3893 46.4733 33.0783C45.7913 33.0355 44.6003 32.9523 43.9198 33.0199C43.5203 33.2489 43.4542 33.2905 43.2913 33.7486C42.7433 35.2889 45.1428 34.8268 46.0057 34.7993Z" fill="#A3ACB5"/>
<path d="M117.32 32.364C117.889 32.3562 120.433 32.17 120.841 32.6108C121.41 33.2246 121.475 35.4903 120.269 35.5102C119.644 35.5205 118.76 35.5186 118.042 35.5335L117.318 35.5613C116.869 36.0067 117.402 37.2038 116.767 37.468C116.612 37.4414 116.36 37.347 116.256 37.232C115.949 36.8898 116.215 35.856 116.2 35.4141C116.23 34.7134 116.09 33.9566 116.159 33.261C116.242 32.4377 116.696 32.3968 117.32 32.364ZM117.23 34.9159C118.078 34.895 119.52 34.9914 120.215 34.6758C120.708 34.358 120.542 33.8093 120.495 33.2708C119.392 32.8051 118.47 33.0656 117.251 32.983C117.152 33.7981 117.13 34.08 117.23 34.9159Z" fill="#A3ACB5"/>
<path d="M88.0424 32.3658C88.3784 32.3772 88.753 32.3804 89.0663 32.5035C89.513 32.6787 89.265 33.6829 89.1077 34.0063L89.0164 34.0288C88.8824 33.7723 88.8477 33.4898 88.7944 33.2044C87.5165 32.87 86.3152 33.0322 84.976 33.0054C84.4607 34.1045 84.7053 35.2744 84.5373 36.5374C85.8333 36.941 87.4138 36.7871 88.7424 36.601C88.6744 36.166 88.6537 35.6904 88.625 35.2484C88.1884 35.187 86.9305 35.1362 86.7199 34.9231C86.9792 34.1881 88.4877 34.4659 89.215 34.4074C89.385 34.9532 89.7336 37.1514 88.9857 37.2891C88.0231 37.4662 84.7773 37.6218 83.9701 37.2651C83.6787 36.8022 83.6807 32.9613 84.0394 32.5189C84.61 32.2932 87.2338 32.3834 88.0424 32.3658Z" fill="#A3ACB5"/>
<path d="M52.1639 32.3242C52.4624 32.3999 52.6998 32.5484 52.845 32.834C53.5471 34.2178 54.4133 35.5412 55.0524 36.9492C55.1429 37.1484 55.0335 37.4768 54.7571 37.5225C54.3244 37.3316 53.8531 36.4756 53.5778 36.0513C53.1059 36.2958 52.8786 36.2684 52.3557 36.2672C51.7487 36.2713 51.2596 36.2708 50.6534 36.2269C50.416 36.5055 49.6061 37.4468 49.2185 37.3756L49.1436 37.2513C49.1663 36.6171 50.0045 35.3231 50.3748 34.7764C50.9289 33.9582 51.2589 32.7545 52.1639 32.3242ZM51.925 35.629C52.1009 35.628 53.351 35.6835 53.2978 35.4156C53.2149 34.9992 52.6452 33.3986 52.3811 33.1902C51.7568 33.5674 50.7404 34.5584 50.9715 35.3576C51.2653 35.7095 51.4816 35.6293 51.925 35.629Z" fill="#A3ACB5"/>
<path d="M28.0491 32.3607C28.832 32.3831 31.4251 31.9835 31.3849 33.1865C31.3755 33.469 31.3184 33.8039 30.9736 33.7781C30.7512 33.4292 30.577 33.1919 30.3221 32.8651C29.4326 33.0456 28.5868 32.9211 27.6956 33.0157C27.3839 33.0367 27.1221 33.2159 27.1266 33.5609C27.1348 34.1958 27.106 34.456 27.8207 34.4685C28.8399 34.4865 29.8246 34.4603 30.8271 34.4448C30.8717 34.4869 30.9159 34.5295 30.9597 34.5725C31.5947 35.1995 32.0508 36.2738 31.2986 37.0575C30.8857 37.4877 30.41 37.4485 29.8532 37.4425C28.947 37.4601 27.3186 37.6293 26.5057 37.1278C26.293 36.9965 26.0165 36.3785 26.2365 36.1299C26.6467 36.0612 27.1419 36.4893 27.4896 36.6847C27.6822 36.7929 29.8837 36.8622 30.1716 36.7774C30.361 36.7216 30.5244 36.6233 30.6134 36.4411C30.8305 35.9968 30.5502 35.3471 30.4108 34.9032C29.6209 35.1363 28.8412 35.0899 28.0325 35.1241C27.2567 35.1567 26.4673 34.9555 26.4397 34.0299C26.3972 32.6057 26.7314 32.4353 28.0491 32.3607Z" fill="#A3ACB5"/>
<path d="M23.5358 32.417C23.5934 32.4395 23.6389 32.4995 23.6863 32.5479C23.8946 33.3769 23.8439 36.7687 23.6937 37.64C21.8753 36.5907 20.7461 35.0588 19.1032 33.8325C19.0232 33.7728 18.9577 33.8211 18.8838 33.8562C18.4674 34.5085 18.67 36.3187 18.6485 37.2095C18.5278 37.2793 18.4014 37.2956 18.2635 37.2797C18.1981 37.2721 18.0646 37.2203 18.0261 37.1649C17.9332 37.0311 18.0185 33.2803 18.0736 32.8724C18.0971 32.6983 18.1187 32.6237 18.2589 32.5203C19.3301 32.3814 21.8543 35.9644 22.6313 35.7693C23.083 35.2299 22.4842 33.3379 22.9523 32.6511C23.0872 32.4531 23.3015 32.4609 23.5358 32.417Z" fill="#A3ACB5"/>
<path d="M58.0851 34.8552C58.0476 35.5234 58.1356 36.1395 58.1169 36.8016C58.1023 37.3192 57.683 37.7114 57.1992 37.3424C56.868 36.6771 57.2005 34.2098 57.0784 33.3745C57.0277 33.0277 57.1321 32.6545 57.4507 32.4561C58.4337 32.3287 61.2926 36.3423 62.2886 35.9514C62.4758 35.5786 61.7472 33.0225 62.4862 32.6037L62.6252 32.6763C62.7679 32.8988 62.7683 33.0126 62.7985 33.2698C62.7641 34.1432 62.893 36.7261 62.6488 37.322L62.5622 37.3931C61.9032 37.2756 61.3076 36.5227 60.8382 36.0889C59.8018 35.131 59.2223 34.869 58.5305 33.5805C58.2655 34.0691 58.1476 34.2986 58.0851 34.8552Z" fill="#A3ACB5"/>
<path d="M68.3933 32.3687C68.5779 32.3553 69.1145 32.3837 69.2292 32.3605C70.0145 32.2023 71.2031 33.4391 70.4858 34.0319C69.9745 34.0879 69.8758 33.5253 69.7385 33.1247C68.7546 33.0138 67.6873 33.0381 66.6914 33.0353C66.2138 34.3057 66.4093 35.2541 66.2749 36.5801C67.3627 36.8682 68.6899 36.9062 69.7778 36.5963C70.0651 36.3121 69.9025 36.1041 70.1451 35.7513C70.3718 35.6227 70.2985 35.6223 70.5304 35.6403C70.9124 35.9415 70.6471 37.2162 70.2285 37.3101C69.0792 37.568 67.262 37.5212 66.1208 37.3669C65.1318 37.2333 65.3689 33.3 65.6143 32.7339C66.2089 32.2464 67.5753 32.3793 68.3933 32.3687Z" fill="#A3ACB5"/>
<path d="M112.893 32.1621C113.312 32.3391 113.424 33.177 113.401 33.5619C113.353 34.3757 113.563 36.5538 113.221 37.1734C112.644 37.6348 108.892 37.6038 108.252 37.1042C107.818 36.4116 107.929 34.3224 107.922 33.4223C107.941 32.9763 107.893 32.6117 108.323 32.4013C108.995 32.4475 108.903 33.4476 108.903 33.9595C108.904 34.8516 108.878 35.7514 108.862 36.644C110.304 37.0438 111.144 36.8827 112.602 36.6709C112.573 35.4902 112.359 33.0671 112.893 32.1621Z" fill="#A3ACB5"/>
<path d="M73.5599 37.4085C73.3339 37.4069 73.1493 37.4312 72.9786 37.2829C72.7973 36.9955 72.7666 32.7664 73.0893 32.6263C74.0092 32.2271 76.1144 32.4035 77.1896 32.3432C77.3783 32.3326 77.5709 32.3401 77.6936 32.4674C77.7176 32.7137 77.7109 32.7519 77.6223 32.9849C77.1863 33.3952 74.4965 32.4856 73.9739 33.3107C73.7539 33.6584 73.8832 33.9868 73.9639 34.3508C74.4745 34.4448 75.6024 34.3892 75.9104 34.5242C76.0091 34.7122 75.9984 34.7506 75.9704 34.9646C75.7224 35.1852 74.5805 35.0702 74.2059 35.0539C74.0165 35.4388 73.7019 35.9535 73.7512 36.3573C74.0625 36.8294 74.8531 36.6851 75.4011 36.8081L75.4371 36.8164C75.7611 37.0155 76.2797 36.9402 76.4344 37.2604C76.0704 37.5286 74.2245 37.3386 73.5599 37.4085Z" fill="#A3ACB5"/>
<path d="M34.6143 32.3115C35.0129 32.7438 34.8732 35.7718 34.8696 36.5723C36.4825 37.0517 37.2998 36.884 38.9237 36.5728C38.7239 35.8796 38.4608 33.0113 39.0875 32.5743C39.3088 32.5194 39.3388 32.5326 39.552 32.6195C39.6928 32.7553 39.6877 32.965 39.7082 33.1641C39.6602 34.178 39.7892 36.1041 39.5361 36.8904C39.29 37.6548 35.0276 37.6106 34.5624 37.3004C34.1426 37.0205 34.2893 32.8428 34.6143 32.3115Z" fill="#A3ACB5"/>
<path d="M62.7983 33.2703L62.9554 33.3463L63.1465 33.2617C63.6947 33.6808 63.1539 37.3309 63.0811 38.1111C62.8268 38.3438 61.6031 38.1972 61.3191 38.0326C61.1947 37.8397 61.1045 37.449 60.9974 37.3426C60.4304 36.7793 58.79 34.85 58.085 34.8558C58.1474 34.2992 58.2653 34.0697 58.5303 33.5811C59.2221 34.8695 59.8016 35.1315 60.838 36.0895C61.3074 36.5233 61.903 37.2761 62.562 37.3937L62.6486 37.3226C62.8928 36.7267 62.764 34.1437 62.7983 33.2703Z" fill="#627397" fill-opacity="0.0156863"/>
<path d="M14.7649 32.5384C14.8315 32.5297 15.2264 32.4846 15.2501 32.5572C15.4903 33.2903 15.6449 37.0085 15.1706 37.444C14.9154 37.42 14.6148 37.404 14.4468 37.2079C14.314 36.7243 14.4018 33.6538 14.4548 32.98C14.4752 32.722 14.5906 32.6628 14.7649 32.5384Z" fill="#A3ACB5"/>
<path d="M77.1605 36.5234C77.3724 36.5872 77.5791 36.6213 77.7051 36.8004C77.7858 37.0353 77.7671 37.235 77.5958 37.4221C77.2031 37.5328 73.97 37.4818 73.5601 37.4083C74.2247 37.3384 76.0705 37.5284 76.4345 37.2602C76.2799 36.94 75.7612 37.0153 75.4373 36.8162C76.1505 36.8477 76.4805 36.746 77.1605 36.5234Z" fill="#627397" fill-opacity="0.788235"/>
</svg>
