<svg width="83" height="49" viewBox="0 0 83 49" fill="none" xmlns="http://www.w3.org/2000/svg">
<g clip-path="url(#clip0_27843_13049)">
<path d="M18.606 16.4133C18.606 14.9001 17.8167 14.3539 16.3571 14.3539H15.4445L12.4049 24.651L13.438 24.7117C17.0869 24.7724 18.606 19.4425 18.606 16.4133ZM61.0497 21.5626C61.0497 20.7143 60.4418 20.1694 59.6511 20.1694C57.7664 20.1694 57.0976 23.2578 56.732 24.651H60.3809C60.6232 23.622 61.0497 22.5916 61.0497 21.5626ZM23.8973 17.7458C23.8973 24.4097 19.0935 26.2263 13.377 26.2263H11.9784L10.0328 32.2225H4.92569L10.0937 14.4146V14.3539H7.84342L8.26995 12.8407L8.33089 12.78H17.6948C21.1 12.78 23.8973 13.9304 23.8973 17.7458ZM52.4156 19.1997L44.5098 30.7079L49.1918 30.7686L48.7057 32.2225H37.3962L45.3005 20.775H40.6795L41.1656 19.1997H52.4156ZM65.6708 23.5613C65.6708 24.4689 65.488 25.378 65.2442 26.2263H56.2459C55.8803 27.316 55.4552 28.6485 55.4552 29.8003C55.4552 30.7686 56.0022 31.2528 56.9148 31.2528C58.5557 31.2528 59.1651 28.8306 59.5902 27.6195H64.8191C63.847 30.89 60.32 32.8887 57.0366 32.8887C53.5705 32.8887 50.8951 31.1328 50.8951 27.4374C50.8951 22.5916 54.7863 18.5941 59.712 18.5941C62.8126 18.5941 65.6708 20.048 65.6708 23.5613ZM83 24.4689C83 6.48034 55.638 -1.52588e-05 41.4093 -1.52588e-05C27.4839 -1.52588e-05 0 6.41965 0 24.2883C0 34.2819 9.18112 41.0658 17.5729 44.5184H17.6339L25.5992 17.2009C27.3025 11.3868 29.7951 5.32994 36.9087 5.32994C39.4027 5.32994 42.6861 6.41965 42.6861 9.4488C42.6861 11.1441 41.4093 12.7193 39.6451 12.7193C38.1869 12.7193 36.9697 11.5689 36.9697 10.115C36.9697 8.35768 38.3074 7.51076 39.8888 7.45007C39.4027 6.48034 38.2464 6.11758 37.2134 6.11758C32.3486 6.11758 31.2547 15.9292 30.2811 19.1997H39.0981L35.3287 32.2225H30.2202L33.5645 20.8356H29.7951L24.688 38.0973C23.8973 40.823 22.8628 43.4273 22.3768 46.2136C28.4574 48.091 34.9022 49 41.2874 49C55.4552 49 83 42.8217 83 24.4689ZM80.6292 21.4412C80.6292 22.9558 79.4134 24.2276 77.8929 24.2276C76.6161 24.2276 75.4598 23.0758 75.4598 21.804C75.4598 21.5626 75.5208 21.2591 75.5817 21.0163H75.4598C72.8453 22.9558 71.6295 29.8596 70.8997 32.2225H65.7926L69.1369 20.8356L67.1303 20.775L67.6773 19.1997H74.6096L73.9407 21.5019C74.8519 20.1087 76.3115 18.9583 78.0757 18.9583C79.4744 18.9583 80.6292 20.048 80.6292 21.4412Z" fill="#A3ACB5"/>
</g>
<defs>
<clipPath id="clip0_27843_13049">
<rect width="83" height="49" fill="white"/>
</clipPath>
</defs>
</svg>
