<svg width="90" height="52" viewBox="0 0 90 52" fill="none" xmlns="http://www.w3.org/2000/svg">
<g clip-path="url(#clip0_27083_19421)">
<path d="M50.863 0H59.2592C59.2282 0.229112 59.1668 0.584365 59.3069 0.782372C59.6934 0.953702 63.0007 0.940951 63.5939 0.910645C64.7273 0.966281 65.9415 0.988183 67.0648 1.0931C67.8717 1.16852 68.6131 1.72589 69.387 1.89377C70.1116 2.0509 70.8404 2.00742 71.5716 2.20568C72.0881 2.37116 72.4461 2.66953 72.9468 2.90559C73.3926 3.11608 74.4661 3.09593 74.8262 3.28904C75.7184 3.76742 76.3801 4.07636 77.3988 4.27302C77.6232 4.31638 78.1071 4.83533 78.3352 4.9566C78.6231 5.11514 78.9923 5.25418 79.3051 5.42227C79.6407 5.60259 79.947 5.84878 80.2719 6.02164C80.8559 6.33247 81.7918 6.77696 82.3012 7.20794C83.0908 7.87566 84.1648 8.87783 84.8743 9.63853C86.0559 10.9049 87.4148 12.9776 88.0867 14.5949C88.1776 14.8133 88.3254 15.6822 88.4127 15.9795C88.565 16.4973 88.7235 17.0303 88.8809 17.5479C88.9312 17.7122 88.983 18.0644 89.016 18.158C89.052 18.9665 89.0505 19.7763 89.0114 20.5846C88.9423 20.9523 88.8845 21.3729 88.7936 21.7301C88.6504 22.2073 88.527 22.6936 88.3832 23.1702C88.236 23.6567 88.207 24.3705 88.012 24.8199C87.6357 25.6868 87.2092 26.6227 86.805 27.4756C86.4388 28.2481 85.8523 28.9906 85.4059 29.7178C85.1226 30.1433 84.8453 30.6264 84.5315 31.0236C84.1923 31.4531 83.7002 31.887 83.3605 32.3067C82.487 33.3683 81.5364 34.409 80.4929 35.3079C79.4808 36.1796 78.4469 37.3079 77.3444 38.047C76.4862 38.6224 75.663 39.1561 74.8561 39.8211C74.5149 40.1023 73.8948 40.3425 73.5267 40.6119C72.7157 41.1477 71.9322 41.6535 71.0633 42.0967C70.7073 42.2783 70.3498 42.5849 69.9908 42.7741C68.8518 43.4163 67.6858 43.9914 66.5179 44.5772C66.1202 44.7766 65.4387 44.9131 65.0163 45.1037C64.6105 45.3059 64.2479 45.5769 63.8305 45.754C63.5842 45.8586 62.595 46.0236 62.4736 46.1234C61.5697 46.8663 60.8791 46.9109 59.7685 47.1048C59.3267 47.182 59.0281 47.7374 58.5919 47.8427C57.9897 48.0147 57.332 47.9972 56.712 48.1076C56.2524 48.1894 55.771 48.6235 55.4013 48.7332C53.8561 49.1922 52.88 48.7517 51.6024 49.9466C50.3167 49.9978 49.0109 50.0031 47.7612 50.3403C47.3193 50.4595 46.7901 50.9087 46.3929 50.9458C44.7792 51.0956 43.1093 51.0936 41.4925 51.1423C40.8268 51.1129 37.907 50.9849 37.5268 51.3505C37.4321 51.4414 37.4601 51.7857 37.4629 51.9182L37.4648 52H28.84C28.8464 51.9807 28.8528 51.9609 28.8592 51.9416L28.8685 51.9091C28.94 51.6654 28.92 51.5135 28.9085 51.2632C28.3594 51.1956 27.9831 51.2291 27.4306 51.2545C26.7454 51.286 26.5083 51.1306 26.4982 50.47C26.801 49.5293 26.7527 48.9749 26.9448 48.0399C27.0661 47.4495 27.4746 46.7721 27.6546 46.1845C27.8865 45.427 27.8472 44.5953 28.0516 43.8274C28.2059 43.247 28.5916 42.6294 28.7207 42.0485C28.8773 41.344 28.8244 40.609 28.9939 39.8868C29.1415 39.2578 29.6206 38.7935 29.7581 38.216C29.9382 37.46 29.8978 36.583 30.0745 35.8167C30.2216 35.1784 30.665 34.7066 30.8115 34.0607C30.9698 33.3625 30.9453 32.5736 31.1297 31.8928C31.3201 31.1901 31.7502 30.5674 31.8884 29.8335C32.0198 29.1359 31.9879 28.3554 32.157 27.6781C32.3396 27.0515 32.6912 26.6036 32.8437 25.955C32.9615 25.4538 32.9916 23.3034 33.4928 23.1338C34.5709 22.7687 36.2313 22.8371 37.3556 23.0435C37.5259 23.0747 37.8258 23.1859 37.916 23.3437C37.924 23.7373 37.4175 24.1554 37.3299 24.5525C37.1833 25.2176 37.1734 25.8999 36.9736 26.5578C36.8005 27.1275 36.4605 27.6337 36.3065 28.2139C36.1447 28.8229 36.1326 29.4768 35.9928 30.0939C35.8604 30.6788 35.5831 31.2353 35.4074 31.8092C35.284 32.2124 34.8306 34.6398 35.0077 34.9279C35.1296 35.126 35.3828 35.2005 35.5987 35.2355C35.9948 35.2995 36.4172 35.291 36.8186 35.2989C37.8475 35.3192 38.983 35.3687 39.8634 34.7428C40.3087 33.9876 40.2005 32.6515 40.4242 31.7915C40.5601 31.2689 40.9831 30.741 41.1046 30.257C41.3244 29.3814 41.2588 28.3646 41.5539 27.4966C41.689 27.0992 42.0297 26.8384 42.1596 26.3515C42.3379 25.6833 42.2568 24.9203 42.4072 24.2752C42.6546 23.283 43.2809 22.3796 43.513 21.397C43.5835 21.0986 42.7795 20.4691 42.5266 20.4386C41.8554 20.3578 41.1354 20.3931 40.4554 20.3947C38.986 20.398 37.515 20.3974 36.0456 20.414C35.5098 20.4201 35.0027 20.5083 34.4677 20.5147C34.032 19.9376 34.9423 18.5409 34.9646 17.9722C35.0206 16.5463 35.2374 15.633 35.8431 14.351C36.0177 13.9814 36.003 13.1415 36.2738 12.7058C36.7157 11.9949 37.1581 11.1794 37.78 10.6062C37.9765 10.4309 39.092 9.74507 39.3352 9.6652C39.6356 9.5677 39.9628 9.5975 40.2406 9.74777C41.728 10.5612 39.948 12.275 40.4303 13.533C40.7398 14.3405 41.2909 14.7423 42.0227 15.174C42.4404 15.4204 42.9221 15.4674 43.3735 15.3127C44.2591 15.0092 45.2059 14.3712 45.6493 13.5247C46.0773 12.7076 46.0458 11.4815 45.7798 10.6194C45.5038 9.72481 44.5538 9.12138 43.7724 8.70584C43.1129 8.35509 42.6396 8.38987 41.9841 8.24972C40.9026 8.01856 40.0859 7.64766 38.9447 7.94904C38.5081 8.06437 38.0815 8.21549 37.6433 8.33452C37.3642 8.41034 36.7575 8.42471 36.5104 8.51957C36.267 8.61301 35.8294 8.86432 35.5788 9.00301C35.13 9.25133 34.6156 9.51229 34.2149 9.83486C33.0104 10.8045 32.0069 12.4107 31.2551 13.7541C31.0618 14.0994 30.8818 14.7985 30.7178 15.1706C30.5667 15.5134 30.2903 15.8088 30.1618 16.1836C29.9572 16.7811 29.9762 17.4587 29.7897 18.0528C29.6021 18.6507 29.2695 19.198 29.1213 19.8178C28.9948 20.3469 29.0525 21.0364 28.9138 21.5414C28.6874 22.3654 28.2558 23.1269 28.0812 23.9863C27.9865 24.4524 28.0693 25.1236 27.9736 25.5382C27.8253 26.1806 27.2967 26.6463 27.1194 27.3702C26.9431 28.0895 27.0092 28.7189 26.906 29.4133C26.8241 29.9643 26.2917 30.5482 26.1345 31.1649C25.9032 32.0719 25.961 33.0507 25.7612 33.935C25.6786 34.3008 25.2404 34.971 25.1051 35.4338C24.8662 36.2512 24.9345 37.0807 24.7303 37.8721C24.6336 38.2472 24.222 38.7652 24.0724 39.2191C23.8058 40.028 23.8915 40.8859 23.6841 41.6773C23.5436 42.2133 23.1136 42.8192 22.9937 43.4084C22.8541 44.0947 22.844 44.9414 22.6521 45.6043C22.4657 46.2481 22.1161 46.7503 21.951 47.4699C21.759 48.3065 21.8448 49.256 21.5627 50.0379C21.5049 50.1979 21.3444 50.3304 21.1803 50.3789C20.6544 50.5341 19.8587 50.2784 19.3067 50.1626C18.6208 50.0186 18.0034 50.0148 17.3577 49.883C16.817 49.7726 16.1954 49.3344 15.6595 49.141C15.1677 48.9635 14.549 48.9136 14.078 48.743C13.6537 48.5892 13.1378 48.2742 12.7057 48.0818C12.4284 47.9582 11.8301 47.8482 11.6745 47.7663C11.0554 47.4406 10.4595 47.1084 9.82566 46.8038C9.48766 46.6414 8.9081 46.1259 8.55177 45.901C7.96489 45.5306 7.25608 45.2186 6.71425 44.8104C6.39209 44.5678 5.92754 44.0859 5.61752 43.7872C4.63391 42.8395 3.58574 41.8681 2.81213 40.7398C2.46661 40.2358 2.18754 39.7051 1.88192 39.1766C1.58956 38.671 1.26876 38.1988 1.05427 37.6553C0.770905 36.9372 0.926214 36.2034 0.706448 35.4811C0.657414 35.32 0.193719 35.0066 0.0355964 34.926L0 34.9081V29.6317C0.0142879 29.6247 0.0779335 29.5923 0.0851962 29.5851C0.234163 29.4375 0.660045 29.1381 0.71113 28.9612C0.916277 28.251 0.861108 27.3696 1.06072 26.6777C1.14157 26.3974 1.54839 25.7646 1.69202 25.448C1.83972 25.1224 1.96511 24.6683 2.11704 24.381C2.27097 24.09 2.54735 23.7235 2.72809 23.4262C2.90494 23.1353 3.09056 22.6615 3.2663 22.4126C3.59257 21.9502 4.00784 21.4264 4.36828 20.9874C4.69054 20.595 5.05531 20.0329 5.37667 19.6738C6.02875 18.9452 6.73527 18.2161 7.39172 17.4894C8.03425 16.778 8.94156 16.1421 9.59177 15.5007C10.5355 14.5696 11.3861 13.8434 12.4225 13.0164C12.6067 12.8694 13.3286 12.7502 13.4603 12.6304C13.964 12.1724 14.3427 11.8134 14.9069 11.418C15.5421 10.9728 16.1733 10.6584 16.832 10.2689C17.9093 9.63173 19.0039 9.07903 20.0932 8.46432C20.3808 8.30207 20.8496 8.12952 21.1723 7.96585C21.5051 7.79695 21.9015 7.51893 22.202 7.37613C22.9408 7.02508 23.6987 6.63731 24.4376 6.29642C24.7457 6.15423 25.4715 6.11574 25.8424 5.95405C26.3119 5.74945 26.7303 5.38515 27.1952 5.20432C27.5347 5.07221 28.113 5.06302 28.4574 4.93835C28.953 4.75892 29.43 4.3135 29.9384 4.17287C30.451 4.03109 31.0299 4.06003 31.56 3.94804C32.1702 3.81916 32.7998 3.29271 33.379 3.15222C34.0475 2.99006 34.8038 3.01878 35.4949 2.83049C36.0988 2.66595 36.7413 2.27275 37.3306 2.15841C38.1494 1.99953 39.0639 2.00498 39.8943 1.86395C40.5905 1.79353 41.3896 1.24226 42.0504 1.16584C43.6841 0.976945 45.6221 0.882908 47.2628 0.860524C48.0017 0.935233 50.1997 0.932811 50.9062 0.762704C50.8813 0.509153 50.8671 0.254712 50.863 0ZM11.4687 35.3833C13.5019 34.1331 12.8059 31.761 13.6442 30.1947C13.7669 29.9689 13.8549 29.7936 13.9485 29.5496C14.1051 29.1417 14.2648 28.0174 14.5418 27.7155C14.9285 27.2941 16.0802 27.4856 16.5939 27.4009C17.239 27.2963 17.7094 27.1534 18.3416 27.0729C19.3807 26.9727 20.4356 27.0215 21.4614 26.8132C21.9489 26.7142 22.281 26.3585 22.7086 26.1726C23.0818 26.0102 23.5141 25.9029 23.896 25.7401C25.073 25.2322 26.0426 24.3395 26.6455 23.2081C26.7895 22.9348 26.7846 22.5456 26.9066 22.2779C27.0992 21.8736 27.3031 21.4891 27.4729 21.0736C27.8008 20.271 27.8746 19.527 27.8608 18.677C27.8442 17.6531 27.7004 17.3508 27.1888 16.5159C26.5 15.3917 25.6777 14.7053 24.4884 14.1308C23.5767 13.664 23.1067 13.712 22.1364 13.5306C21.6082 13.4319 21.0212 13.2309 20.4602 13.1778C19.8822 13.123 19.3043 13.1546 18.7213 13.1504C17.9937 13.1451 17.0478 13.0545 16.3276 13.1228C15.3585 13.1922 13.8499 13.0215 13.2874 13.7591C12.4164 14.9011 12.3162 16.5625 11.9749 17.892C11.8397 18.4188 11.452 18.9742 11.3292 19.5746C11.1977 20.2177 11.2034 20.8785 11.0276 21.4886C10.8964 21.9437 10.4166 22.4915 10.3237 22.9632C10.1821 23.6826 10.1402 24.3966 10.0104 25.1281C9.88818 25.8174 9.54296 26.2546 9.37341 26.8517C9.20278 27.4523 9.21639 28.2002 9.05623 28.8429C8.90023 29.4688 8.53049 30.0033 8.35392 30.5487C8.15242 31.1713 8.10484 32.0933 7.92609 32.7717C7.7253 33.5337 7.3578 34.1223 7.32921 34.896C7.8067 35.3783 10.556 35.2929 11.4687 35.3833ZM69.325 32.275C68.805 31.4236 68.4943 31.1261 67.502 30.8762C67.1171 31.1454 66.8327 31.4981 66.4523 31.7566C65.8419 32.1633 65.1066 32.2646 64.3972 32.3395C63.5517 32.4286 62.5889 32.397 61.8292 31.9791C61.1696 31.5848 60.9832 30.3647 61.0751 29.6776C61.2087 28.6728 63.0652 29.0866 63.7498 29.0777C64.2566 29.0711 64.7466 29.0571 65.2504 28.9753C65.8018 28.8857 66.2579 28.6044 66.755 28.3709C68.3942 27.7662 69.3423 26.8219 70.4971 25.5055C70.5976 24.3703 70.6311 24.429 70.9373 23.4056C70.3584 21.7517 69.8623 21.2161 68.2774 20.4664C67.2999 20.0039 66.7093 20.0181 65.6165 20.0285C64.3835 20.1026 64.2363 20.2609 63.1287 20.7612C62.7656 20.9154 62.3721 20.9525 62.0059 21.0962C61.652 21.2352 61.3448 21.5486 61.0091 21.727C59.3836 22.5896 58.1202 24.1652 57.1452 25.6851C57.0817 25.7846 57.0791 26.4671 56.9898 26.613C56.2321 27.8519 55.9594 28.9788 56.0564 30.4403C56.1118 31.2706 56.3342 31.6334 56.7887 32.3138C57.2868 33.3062 57.2305 33.5506 58.1461 34.3573C59.1287 35.2237 59.6411 35.19 60.8893 35.4116C61.3041 35.4854 61.7805 35.7116 62.2568 35.6686C62.6915 35.6295 63.0967 35.4457 63.5197 35.3831C63.9473 35.3199 64.6816 35.3393 65.0833 35.2579C66.1527 35.0413 67.8311 34.2858 68.5252 33.4247C68.5933 33.3403 68.6715 33.2543 68.735 33.1686C68.9701 32.8566 69.157 32.6284 69.325 32.275ZM79.0441 21.5515C78.3489 20.172 76.9062 20.4064 75.6062 20.4161C75.1593 20.4194 74.7073 20.4434 74.261 20.4463C73.6902 21.3154 73.6861 21.6451 73.3449 22.6352C73.1311 23.1164 73.0016 23.6844 72.8437 24.1657C72.705 24.5878 72.6187 25.7259 72.4552 26.0604C71.8352 27.3295 71.7072 28.3392 71.532 29.7156C71.4431 30.0789 71.2375 30.4816 71.0684 30.8102C70.7017 31.5242 70.6631 32.3605 70.5286 33.1466C70.4605 33.5435 69.9116 34.8464 70.3523 35.015C71.433 35.4285 72.7172 35.3076 73.8542 35.2526C74.555 35.2167 75.076 34.901 75.3604 34.2517C75.7052 33.4661 75.694 32.6215 75.8672 31.794C75.9784 31.2198 76.4293 30.7037 76.5487 30.2203C76.8767 28.8918 76.6858 27.7755 77.6674 26.6728C77.7867 26.5386 77.9005 25.769 78.0056 25.5709C78.3189 25.028 79.0974 24.2979 79.5651 23.8486C79.856 23.5692 80.1354 23.156 80.4466 22.9859C80.5223 22.9444 80.73 23.0443 80.8006 23.0923C81.4628 23.5437 81.737 24.2876 82.1585 24.885C82.3037 25.0905 83.1827 25.6631 83.4544 25.8461C84.4624 25.6952 85.0621 24.9983 85.863 24.3575C86.1357 23.6155 86.1402 22.4202 85.8259 21.6988C85.5689 21.11 84.0998 20.473 83.5235 20.2184C82.3829 19.7148 81.3622 20.6834 80.2425 21.0259C79.9729 21.5042 79.9063 21.8015 79.3848 21.9467C79.3452 21.9577 79.3051 21.9682 79.265 21.9783C79.075 21.8769 79.1725 21.8523 79.0563 21.5796L79.0441 21.5515ZM44.7183 22.7599C45.3834 22.8242 46.0354 22.8635 46.6676 22.8907C47.5191 22.9273 50.2953 22.7922 50.9214 23.0526C51.0108 23.1713 51.0595 23.4609 51.0321 23.5997C50.9554 23.9928 50.4029 24.2885 50.0949 24.5296C48.6832 25.635 47.3381 26.8718 46.1208 28.191C44.8239 29.5964 43.7879 31.286 42.7642 32.8942C42.5399 33.25 42.2341 34.5156 42.4308 34.8638C42.8131 35.2516 43.7323 35.3007 44.2585 35.3084C47.5133 35.356 50.9976 35.1981 54.2323 35.3011C54.4426 35.2432 54.6259 35.2073 54.7264 34.9986C55.2211 33.9717 54.8585 33.2598 55.7091 32.3713C53.6047 32.0392 51.5125 32.3096 49.401 32.1759C48.9992 32.1504 48.4647 31.9265 48.4844 31.4555C48.7232 31.0351 49.2484 30.6531 49.5555 30.2693C50.3031 29.3351 51.188 28.5398 52.0137 27.6787C52.6363 27.0301 53.5128 26.6681 54.113 25.9789C55.0474 24.9535 55.6913 23.7054 56.6693 22.7105C57.2178 22.1522 57.1848 21.1812 57.198 20.445C55.9041 20.3372 54.0592 20.4076 52.7084 20.4061L48.0717 20.4093C47.5356 20.4059 46.9246 20.3611 46.4155 20.365C45.506 20.7796 45.0874 21.8666 44.7183 22.7599Z" fill="#A3ACB5"/>
<path d="M18.3471 15.6522C19.1595 15.5528 20.3845 15.6608 21.0724 16.1121C21.6077 16.4633 22.4138 17.1409 22.7831 17.6547C22.8158 17.9653 22.8716 18.8724 22.8138 19.1595L22.8072 19.1913C22.7297 19.5735 22.2169 20.0783 22.0638 20.5285C21.7372 21.4921 21.855 22.0675 21.1041 22.861C20.2788 23.7331 20.1696 23.8967 18.9802 24.2277C18.4165 24.3606 18.1504 24.5064 17.7407 24.8871C17.203 24.9998 15.7967 25.105 15.3211 24.8599C14.985 24.5083 15.2063 23.3727 15.4365 23.0359C16.2602 21.8307 16.3024 20.8841 16.4589 19.4904C16.5184 18.9599 17.0857 18.1889 17.2213 17.6434C17.5255 16.5882 17.0035 15.9158 18.3471 15.6522Z" fill="#A3ACB5"/>
<path d="M65.0575 22.8684C66.4057 22.7664 67.7641 22.993 66.7195 24.6284C66.4936 24.9771 66.2209 25.2933 65.9091 25.5681C65.5775 25.8564 63.9576 26.8922 63.531 26.9866C63.1816 27.0269 61.3921 27.0114 61.5089 26.6233C61.9476 25.1583 63.3665 23.8367 64.6045 22.9791C64.6908 22.9192 64.9767 22.8799 65.0575 22.8684Z" fill="#A3ACB5"/>
<path d="M79.0441 21.5518L79.0562 21.5799C79.1725 21.8526 79.075 21.8772 79.265 21.9786C78.8551 22.1365 78.2818 22.578 78.1721 22.604C78.0513 22.1435 78.8267 22.0381 79.0258 21.5931L79.0441 21.5518Z" fill="#647496" fill-opacity="0.945098"/>
<path d="M39.5985 8.80334C39.8088 8.78099 39.8459 8.77866 40.0531 8.81593L40.0449 8.8495C39.7077 8.93593 39.4353 8.93354 39.0829 8.99509C38.9778 9.02307 38.7241 9.10807 38.6497 9.07014C38.9967 8.87651 39.2191 8.84102 39.5985 8.80334Z" fill="#131F3C" fill-opacity="0.407843"/>
<path d="M59.2592 0H61.9008C62.0125 0.368107 61.9861 0.369399 61.9445 0.752426C61.9445 0.75269 61.982 0.788836 61.9902 0.790959C62.4914 0.91616 63.0652 0.818538 63.5939 0.910645C63.0007 0.940951 59.6933 0.953702 59.3069 0.782372C59.1667 0.584365 59.2282 0.229112 59.2592 0Z" fill="#647496" fill-opacity="0.717647"/>
<path d="M48.1463 0H50.8629C50.8669 0.254712 50.8812 0.509153 50.906 0.762704C50.1995 0.932811 48.0016 0.935233 47.2627 0.860524C48.2533 0.694195 47.793 0.891917 48.1463 0Z" fill="#647496" fill-opacity="0.705882"/>
<path d="M37.4647 52L37.4628 51.9183C37.46 51.7857 37.432 51.4415 37.5267 51.3506C37.9069 50.9849 40.8267 51.1129 41.4924 51.1423C41.0701 51.1901 40.647 51.1896 40.2435 51.2353C40.2744 51.6578 40.2681 51.6425 40.0285 52H37.4647Z" fill="#647496" fill-opacity="0.713725"/>
<path d="M26.4983 50.4697C26.5083 51.1303 26.7455 51.2857 27.4307 51.2542C27.9831 51.2289 28.3595 51.1953 28.9086 51.2629C28.9201 51.5132 28.9401 51.6651 28.8686 51.9088L28.8593 51.9413C28.8529 51.9606 28.8465 51.9804 28.8401 51.9997H26.7671L26.6994 51.8601C26.8426 51.1654 26.3344 51.3919 26.4983 50.4697Z" fill="#647496" fill-opacity="0.658824"/>
<path d="M89.1445 18.7664L89.3238 18.1133L89.3202 20.7861C89.2598 20.5493 89.2004 20.3121 89.1425 20.0746C89.1298 20.3131 89.1059 20.3621 89.0115 20.5847C89.0506 19.7763 89.0521 18.9666 89.016 18.158C89.1268 18.4119 89.1252 18.4863 89.1445 18.7664Z" fill="#647496" fill-opacity="0.121569"/>
</g>
<defs>
<clipPath id="clip0_27083_19421">
<rect width="89.9844" height="52" fill="white"/>
</clipPath>
</defs>
</svg>
