<svg width="100" height="33" viewBox="0 0 100 33" fill="none" xmlns="http://www.w3.org/2000/svg">
<g clip-path="url(#clip0_27764_12690)">
<path fill-rule="evenodd" clip-rule="evenodd" d="M47.2617 32.9534H53.4731L49.6458 0.0404507H42.687L25.1226 32.9534H31.7978C31.7978 32.9534 35.1548 26.7216 35.2965 26.4471C35.5929 26.4471 44.9228 26.4471 44.9228 26.4471L45.9795 21.5473C36.9847 21.5473 38.9306 21.5473 37.7579 21.5473L37.7514 21.5406C38.312 20.5232 44.6329 9.29785 44.7682 9.0368C44.8004 9.27108 47.2617 32.9534 47.2617 32.9534ZM69.9422 0.0136759H62.9705L56.263 32.9534H63.3507L69.9422 0.0136759ZM80.245 8.20678C80.4447 7.16925 80.7025 5.29501 83.0414 5.29501C84.2527 5.29501 96.495 5.29501 96.495 5.29501L97.7257 0.0136759C97.7257 0.0136759 85.7862 0.0203696 81.2953 0.0203696C75.0453 0.0203696 74.6458 6.56012 74.2463 8.72889C73.8468 10.9043 71.044 24.4524 70.928 25.0615C70.1999 28.9171 72.0813 32.9735 77.5002 32.9735H92.4744L93.6084 27.6587H79.8326C77.1844 27.6587 77.1136 25.9518 77.5002 23.8098L78.8597 16.0317H78.8661C78.8661 16.0317 79.6329 11.2792 80.245 8.20678ZM100 30.4165C100 28.9974 98.8726 27.8461 97.4808 27.8461C96.0891 27.8461 94.9615 28.9974 94.9615 30.4165C94.9615 31.8356 96.0891 32.9869 97.4808 32.9869C98.8726 32.9869 100 31.8356 100 30.4165ZM97.4808 32.5585C96.3661 32.5585 95.4641 31.6013 95.4641 30.4165C95.4641 29.2317 96.3661 28.2745 97.4808 28.2745C98.5955 28.2745 99.4976 29.2317 99.4976 30.4165C99.4976 31.6013 98.5955 32.5585 97.4808 32.5585ZM96.5272 31.8958H96.9589V30.6106H97.4615L98.2154 31.8958H98.7051L97.8867 30.5972C98.3056 30.537 98.6342 30.3094 98.6342 29.7806C98.6342 29.1916 98.2927 28.9372 97.6161 28.9372H96.5272V31.8958ZM96.9589 29.312H97.5517C97.8545 29.312 98.1767 29.379 98.1767 29.7471C98.1767 30.2023 97.8481 30.2291 97.4808 30.2291H96.9589V29.312ZM11.3275 8.31388C11.7656 6.03802 11.4757 5.27493 14.5233 5.28163C18.5569 5.28832 27.3455 5.29501 27.3455 5.29501L28.5826 0.00698214C28.5826 0.00698214 18.9434 0.00698214 13.0285 0.00698214C10.9989 0.00698214 6.56587 -0.62892 5.36097 7.81854C4.83907 11.4465 4.54912 13.2471 4.4718 14.4118C4.27206 17.3772 6.79783 18.2674 8.91767 18.2674C11.7721 18.2674 18.1316 18.2808 18.1316 18.2808C19.5233 18.2808 20.0904 18.2674 19.9035 19.3652C19.5684 21.293 18.8532 25.0147 18.6148 26.1325C18.2476 27.8997 16.2824 27.6386 14.5233 27.6587H1.16639L0.0065918 32.9467C0.0065918 32.9467 13.1767 32.9467 16.7334 32.9467C20.2837 32.9467 23.5246 31.6281 24.4074 27.9666C25.3094 24.2315 25.7798 21.6946 26.2953 18.7226C26.9203 15.1682 24.8391 12.551 20.986 12.551C20.3416 12.551 12.861 12.551 12.861 12.551C11.9911 12.551 10.5672 12.7719 10.8442 11.2189C10.9602 10.5563 11.0569 9.74633 11.3275 8.31388Z" fill="#BFBFBF"/>
</g>
<defs>
<clipPath id="clip0_27764_12690">
<rect width="100" height="33" fill="white"/>
</clipPath>
</defs>
</svg>
