<svg width="50" height="50" viewBox="0 0 50 50" fill="none" xmlns="http://www.w3.org/2000/svg">
<path d="M20.3125 41.4062C20.3125 41.6134 20.2302 41.8122 20.0837 41.9587C19.9372 42.1052 19.7385 42.1875 19.5312 42.1875H13.2812C13.074 42.1875 12.8753 42.1052 12.7288 41.9587C12.5823 41.8122 12.5 41.6134 12.5 41.4062C12.5 41.1991 12.5823 41.0003 12.7288 40.8538C12.8753 40.7073 13.074 40.625 13.2812 40.625H19.5312C19.7385 40.625 19.9372 40.7073 20.0837 40.8538C20.2302 41.0003 20.3125 41.1991 20.3125 41.4062ZM18.75 14.8438C18.75 15.3073 18.6125 15.7604 18.355 16.1459C18.0975 16.5313 17.7314 16.8317 17.3032 17.0091C16.8749 17.1865 16.4036 17.2329 15.949 17.1425C15.4944 17.052 15.0767 16.8288 14.749 16.501C14.4212 16.1733 14.198 15.7556 14.1075 15.301C14.0171 14.8464 14.0635 14.3751 14.2409 13.9468C14.4183 13.5186 14.7187 13.1525 15.1041 12.895C15.4896 12.6375 15.9427 12.5 16.4062 12.5C17.0276 12.5007 17.6234 12.7478 18.0628 13.1872C18.5022 13.6266 18.7493 14.2224 18.75 14.8438ZM17.1875 14.8438C17.1875 14.6892 17.1417 14.5382 17.0558 14.4097C16.97 14.2812 16.848 14.1811 16.7052 14.122C16.5625 14.0628 16.4054 14.0474 16.2538 14.0775C16.1023 14.1077 15.9631 14.1821 15.8538 14.2913C15.7446 14.4006 15.6702 14.5398 15.64 14.6913C15.6099 14.8429 15.6253 15 15.6845 15.1427C15.7436 15.2855 15.8437 15.4075 15.9722 15.4933C16.1007 15.5792 16.2517 15.625 16.4062 15.625C16.6134 15.6248 16.812 15.5424 16.9585 15.396C17.1049 15.2495 17.1873 15.0509 17.1875 14.8438ZM48.4375 35.1562C48.4375 37.783 47.6586 40.3508 46.1992 42.5349C44.7398 44.719 42.6656 46.4213 40.2388 47.4265C37.8119 48.4318 35.1415 48.6948 32.5652 48.1823C29.9889 47.6698 27.6224 46.4049 25.765 44.5475C23.9076 42.6901 22.6427 40.3236 22.1302 37.7473C21.6177 35.171 21.8807 32.5006 22.886 30.0737C23.8912 27.6469 25.5935 25.5727 27.7776 24.1133C29.9617 22.6539 32.5295 21.875 35.1562 21.875C38.6775 21.8789 42.0533 23.2795 44.5432 25.7693C47.033 28.2592 48.4336 31.635 48.4375 35.1562ZM46.875 35.1562C46.875 32.8385 46.1877 30.5728 44.9 28.6457C43.6124 26.7185 41.7821 25.2165 39.6408 24.3295C37.4995 23.4426 35.1432 23.2105 32.87 23.6627C30.5968 24.1148 28.5087 25.2309 26.8698 26.8698C25.2309 28.5087 24.1148 30.5968 23.6627 32.87C23.2105 35.1432 23.4426 37.4995 24.3295 39.6408C25.2165 41.7821 26.7185 43.6124 28.6457 44.9C30.5728 46.1877 32.8385 46.875 35.1562 46.875C38.2632 46.8715 41.2419 45.6358 43.4388 43.4388C45.6358 41.2419 46.8715 38.2632 46.875 35.1562ZM24.2188 23.4375V20.3125H22.6562V27.3438C22.6562 27.551 22.5739 27.7497 22.4274 27.8962C22.2809 28.0427 22.0822 28.125 21.875 28.125C21.6678 28.125 21.4691 28.0427 21.3226 27.8962C21.1761 27.7497 21.0938 27.551 21.0938 27.3438V20.3125H18.75V30.4688H20.3125C20.5197 30.4688 20.7184 30.5511 20.8649 30.6976C21.0114 30.8441 21.0938 31.0428 21.0938 31.25C21.0938 31.4572 21.0114 31.6559 20.8649 31.8024C20.7184 31.9489 20.5197 32.0312 20.3125 32.0312H6.25V33.5938H19.5312C19.7385 33.5938 19.9372 33.6761 20.0837 33.8226C20.2302 33.9691 20.3125 34.1678 20.3125 34.375C20.3125 34.5822 20.2302 34.7809 20.0837 34.9274C19.9372 35.0739 19.7385 35.1562 19.5312 35.1562H5.46875C5.26155 35.1562 5.06284 35.0739 4.91632 34.9274C4.76981 34.7809 4.6875 34.5822 4.6875 34.375V31.25C4.6875 31.0428 4.76981 30.8441 4.91632 30.6976C5.06284 30.5511 5.26155 30.4688 5.46875 30.4688H7.03125V20.3125H5.46875C5.26155 20.3125 5.06284 20.2302 4.91632 20.0837C4.76981 19.9372 4.6875 19.7385 4.6875 19.5312V15.625C4.68751 15.4873 4.72393 15.352 4.79306 15.2329C4.8622 15.1138 4.96159 15.015 5.08117 14.9467L16.0187 8.69672C16.1367 8.62928 16.2703 8.5938 16.4062 8.5938C16.5422 8.5938 16.6758 8.62928 16.7938 8.69672L27.7313 14.9467C27.8509 15.015 27.9503 15.1138 28.0194 15.2329C28.0886 15.352 28.125 15.4873 28.125 15.625V19.5312C28.125 19.7385 28.0427 19.9372 27.8962 20.0837C27.7497 20.2302 27.551 20.3125 27.3438 20.3125H25.7812V23.4375C25.7812 23.6447 25.6989 23.8434 25.5524 23.9899C25.4059 24.1364 25.2072 24.2188 25 24.2188C24.7928 24.2188 24.5941 24.1364 24.4476 23.9899C24.3011 23.8434 24.2188 23.6447 24.2188 23.4375ZM6.25 18.75H26.5625V16.0781L16.4062 10.2745L6.25 16.0781V18.75ZM11.7188 20.3125V30.4688H14.0625V20.3125H11.7188ZM8.59375 30.4688H10.1562V20.3125H8.59375V30.4688ZM17.1875 20.3125H15.625V30.4688H17.1875V20.3125ZM23.4588 44.5312C23.4588 44.7384 23.3765 44.9372 23.23 45.0837C23.0835 45.2302 22.8848 45.3125 22.6776 45.3125H5.46875C4.43312 45.3113 3.44026 44.8993 2.70796 44.167C1.97566 43.4347 1.56372 42.4419 1.5625 41.4062V5.46875C1.56372 4.43312 1.97566 3.44026 2.70796 2.70796C3.44026 1.97566 4.43312 1.56372 5.46875 1.5625H27.3438C28.3794 1.56372 29.3722 1.97566 30.1045 2.70796C30.8368 3.44026 31.2488 4.43312 31.25 5.46875V20.2484C31.25 20.4556 31.1677 20.6544 31.0212 20.8009C30.8747 20.9474 30.676 21.0297 30.4688 21.0297C30.2615 21.0297 30.0628 20.9474 29.9163 20.8009C29.7698 20.6544 29.6875 20.4556 29.6875 20.2484V5.46875C29.6868 4.84736 29.4397 4.25161 29.0003 3.81222C28.5609 3.37283 27.9651 3.12568 27.3438 3.125H22.6562V3.90625C22.6556 4.52764 22.4084 5.12339 21.969 5.56278C21.5296 6.00217 20.9339 6.24932 20.3125 6.25H12.5C11.8786 6.24932 11.2829 6.00217 10.8435 5.56278C10.4041 5.12339 10.1569 4.52764 10.1562 3.90625V3.125H5.46875C4.84736 3.12568 4.25161 3.37283 3.81222 3.81222C3.37283 4.25161 3.12568 4.84736 3.125 5.46875V37.5H19.5312C19.7385 37.5 19.9372 37.5823 20.0837 37.7288C20.2302 37.8753 20.3125 38.0741 20.3125 38.2812C20.3125 38.4884 20.2302 38.6872 20.0837 38.8337C19.9372 38.9802 19.7385 39.0625 19.5312 39.0625H3.125V41.4062C3.12568 42.0276 3.37283 42.6234 3.81222 43.0628C4.25161 43.5022 4.84736 43.7493 5.46875 43.75H22.6776C22.8848 43.75 23.0835 43.8323 23.23 43.9788C23.3765 44.1253 23.4588 44.3241 23.4588 44.5312ZM21.0938 3.125H11.7188V3.90625C11.7189 4.11339 11.8013 4.312 11.9478 4.45847C12.0943 4.60494 12.2929 4.68731 12.5 4.6875H20.3125C20.5196 4.68731 20.7183 4.60494 20.8647 4.45847C21.0112 4.312 21.0936 4.11339 21.0938 3.90625V3.125ZM45.3125 35.1562C45.3125 37.165 44.7168 39.1286 43.6009 40.7988C42.4849 42.4689 40.8987 43.7707 39.0429 44.5394C37.1871 45.3081 35.145 45.5092 33.1749 45.1174C31.2047 44.7255 29.3951 43.7582 27.9747 42.3378C26.5543 40.9174 25.587 39.1078 25.1951 37.1376C24.8033 35.1675 25.0044 33.1254 25.7731 31.2696C26.5418 29.4138 27.8436 27.8276 29.5137 26.7116C31.1839 25.5957 33.1475 25 35.1562 25C37.8489 25.003 40.4304 26.074 42.3344 27.9781C44.2385 29.8821 45.3095 32.4636 45.3125 35.1562ZM43.75 35.1562C43.75 33.4566 43.246 31.7951 42.3017 30.3818C41.3574 28.9686 40.0152 27.8671 38.4449 27.2167C36.8746 26.5662 35.1467 26.396 33.4797 26.7276C31.8127 27.0592 30.2814 27.8777 29.0795 29.0795C27.8777 30.2814 27.0592 31.8127 26.7276 33.4797C26.396 35.1467 26.5662 36.8746 27.2167 38.4449C27.8671 40.0152 28.9686 41.3574 30.3818 42.3017C31.7951 43.246 33.4566 43.75 35.1562 43.75C37.4347 43.7474 39.619 42.8412 41.2301 41.2301C42.8412 39.619 43.7474 37.4347 43.75 35.1562ZM34.7656 32.0312H37.5C37.7072 32.0312 37.9059 31.9489 38.0524 31.8024C38.1989 31.6559 38.2812 31.4572 38.2812 31.25C38.2812 31.0428 38.1989 30.8441 38.0524 30.6976C37.9059 30.5511 37.7072 30.4688 37.5 30.4688H35.9375V29.6875C35.9375 29.4803 35.8552 29.2816 35.7087 29.1351C35.5622 28.9886 35.3634 28.9062 35.1562 28.9062C34.9491 28.9062 34.7503 28.9886 34.6038 29.1351C34.4573 29.2816 34.375 29.4803 34.375 29.6875V30.5078C33.6906 30.6046 33.0684 30.9575 32.6342 31.4953C32.2 32.033 31.9861 32.7156 32.0357 33.405C32.0853 34.0944 32.3947 34.7393 32.9014 35.2094C33.4082 35.6795 34.0744 35.9397 34.7656 35.9375H35.5469C35.8577 35.9375 36.1557 36.061 36.3755 36.2807C36.5953 36.5005 36.7188 36.7986 36.7188 37.1094C36.7188 37.4202 36.5953 37.7182 36.3755 37.938C36.1557 38.1578 35.8577 38.2812 35.5469 38.2812H32.8125C32.6053 38.2812 32.4066 38.3636 32.2601 38.5101C32.1136 38.6566 32.0312 38.8553 32.0312 39.0625C32.0312 39.2697 32.1136 39.4684 32.2601 39.6149C32.4066 39.7614 32.6053 39.8438 32.8125 39.8438H34.375V40.625C34.375 40.8322 34.4573 41.0309 34.6038 41.1774C34.7503 41.3239 34.9491 41.4062 35.1562 41.4062C35.3634 41.4062 35.5622 41.3239 35.7087 41.1774C35.8552 41.0309 35.9375 40.8322 35.9375 40.625V39.8047C36.6219 39.7079 37.2441 39.355 37.6783 38.8172C38.1125 38.2795 38.3264 37.5969 38.2768 36.9075C38.2272 36.2181 37.9178 35.5732 37.4111 35.1031C36.9043 34.633 36.2381 34.3728 35.5469 34.375H34.7656C34.4548 34.375 34.1568 34.2515 33.937 34.0318C33.7172 33.812 33.5938 33.5139 33.5938 33.2031C33.5938 32.8923 33.7172 32.5943 33.937 32.3745C34.1568 32.1547 34.4548 32.0312 34.7656 32.0312Z" fill="#1B275F"/>
</svg>
