<svg width="50" height="50" viewBox="0 0 50 50" fill="none" xmlns="http://www.w3.org/2000/svg">
<path d="M25.334 14.5938H6.33398V27.5938H25.334V14.5938ZM20.7492 19.6429L16.0717 24.4435C15.8949 24.6249 15.6635 24.7155 15.432 24.7155C15.2005 24.7155 14.969 24.6249 14.7923 24.4435L12.4535 22.0432C12.1001 21.6805 12.1001 21.0928 12.4535 20.7301C12.8069 20.3674 13.3795 20.3674 13.7329 20.7301L15.432 22.4739L19.4698 18.3298C19.8232 17.9671 20.3958 17.9671 20.7492 18.3298C21.1026 18.6925 21.1026 19.2801 20.7492 19.6429Z" fill="white"/>
<path d="M5.4655 28.5938H5.33398L6.03055 32.5938H26.6374L27.334 28.5938H26.827H5.4655Z" fill="white"/>
<path d="M39.1455 15.5938H40.5225C41.521 15.5938 42.334 14.9434 42.334 14.144V13.5938H37.334V14.144C37.334 14.9434 38.147 15.5938 39.1455 15.5938Z" fill="white"/>
<path d="M43.5007 14.1165C43.5007 15.9238 42.0827 17.3937 40.3389 17.3937H39.3291C37.5853 17.3937 36.1673 15.9238 36.1673 14.1165V13.5938H34.334V32.5938H45.334V13.5938H43.5007V14.1165ZM44.0879 22.7319L40.2601 26.6989C40.0811 26.8845 39.8465 26.9772 39.612 26.9772C39.3774 26.9772 39.1429 26.8845 38.9639 26.6989L37.05 24.7154C36.6919 24.3443 36.6919 23.7432 37.05 23.3721C37.408 23.001 37.9881 23.001 38.3462 23.3721L39.612 24.6839L42.7917 21.3886C43.1497 21.0175 43.7298 21.0175 44.0879 21.3886C44.446 21.7597 44.446 22.3608 44.0879 22.7319Z" fill="white"/>
<path d="M16.2596 12.5938C16.1783 12.5938 16.0952 12.5824 16.013 12.5583C15.5209 12.4165 15.2319 11.8833 15.3674 11.3681C16.4835 7.12633 20.1372 4.59375 25.1401 4.59375H30.8554C35.5377 4.59375 38.8807 6.60498 40.2678 10.2569C40.4575 10.7536 40.2254 11.3166 39.7513 11.5142C39.2736 11.7127 38.7381 11.4693 38.5502 10.9725C37.081 7.10696 33.0986 6.52982 30.8554 6.52982H25.1401C21.0195 6.52982 18.0322 8.53065 17.15 11.8824C17.0371 12.3116 16.665 12.5938 16.2596 12.5938Z" fill="white"/>
<path d="M30.6547 43.5938H25.0133C20.0751 43.5938 16.4687 41.0615 15.3669 36.8202C15.2332 36.3051 15.5185 35.772 16.0043 35.6302C16.4892 35.4841 16.9928 35.7909 17.1265 36.306C17.9973 39.6573 20.946 41.6579 25.0133 41.6579H30.6547C34.7229 41.6579 37.6715 39.6573 38.5415 36.306C38.6752 35.7909 39.177 35.4879 39.6637 35.6297C40.1495 35.772 40.4347 36.3046 40.301 36.8202C39.2002 41.0615 35.5937 43.5938 30.6547 43.5938Z" fill="white"/>
</svg>
