<svg width="50" height="50" viewBox="0 0 50 50" fill="none" xmlns="http://www.w3.org/2000/svg">
<g clip-path="url(#clip0_23699_56656)">
<path d="M42.5 16.664H49.1667C49.6276 16.664 50 16.2907 50 15.8307V9.16403C50 8.70405 49.6275 8.33074 49.1667 8.33074H42.5C42.0391 8.33074 41.6667 8.70405 41.6667 9.16403V12.0232L39.1668 13.5099V6.66406H10.8333V13.5099L8.33338 12.024V9.16403C8.33338 8.70405 7.96008 8.33074 7.50009 8.33074H0.833289C0.373307 8.33064 0 8.70405 0 9.16403V15.8307C0 16.2907 0.373307 16.664 0.833289 16.664H7.5C7.95998 16.664 8.33328 16.2907 8.33328 15.8307V13.9624L10.8332 15.4483V34.9783L8.33328 36.7292V34.9975C8.33328 34.5375 7.95998 34.1642 7.5 34.1642H0.833289C0.373307 34.1642 0 34.5375 0 34.9975V41.6642C0 42.1242 0.373307 42.4975 0.833289 42.4975H7.5C7.95998 42.4975 8.33328 42.1242 8.33328 41.6642V38.765L10.8332 37.0133V41.6642H39.1666V37.0133L41.6665 38.765V41.6642C41.6665 42.1242 42.039 42.4975 42.4998 42.4975H49.1665C49.6274 42.4975 49.9998 42.1242 49.9998 41.6642V34.9975C49.9998 34.5375 49.6273 34.1642 49.1665 34.1642H42.4998C42.0389 34.1642 41.6665 34.5375 41.6665 34.9975V36.7292L39.1666 34.9783V15.4492L41.6665 13.9625V15.8308C41.6666 16.2907 42.0391 16.664 42.5 16.664ZM25 33.3307C19.9458 33.3307 15.8333 29.2182 15.8333 24.164C15.8333 19.1099 19.9458 14.9973 25 14.9973C30.0541 14.9973 34.1666 19.1099 34.1666 24.164C34.1666 29.2182 30.0542 33.3307 25 33.3307Z" fill="white"/>
<path d="M26.6673 45.8307C26.6673 44.9116 25.9198 44.1641 25.0007 44.1641C24.0815 44.1641 23.334 44.9116 23.334 45.8307C23.334 46.7499 24.0815 47.4974 25.0007 47.4974C25.9198 47.4974 26.6673 46.7499 26.6673 45.8307Z" fill="white"/>
<path d="M39.1673 3.30079C39.1673 1.48082 37.6865 0 35.8664 0H14.1348C12.3148 0 10.834 1.48082 10.834 3.30079V4.99993H39.1673V3.30079ZM21.6672 4.16664H20.8339C20.374 4.16664 20.0007 3.79333 20.0007 3.33335C20.0007 2.87337 20.374 2.50006 20.8339 2.50006H21.6672C22.1272 2.50006 22.5005 2.87337 22.5005 3.33335C22.5005 3.79333 22.1273 4.16664 21.6672 4.16664ZM28.3339 4.16664H24.1673C23.7073 4.16664 23.334 3.79333 23.334 3.33335C23.334 2.87337 23.7073 2.50006 24.1673 2.50006H28.3339C28.7939 2.50006 29.1672 2.87337 29.1672 3.33335C29.1672 3.79333 28.7939 4.16664 28.3339 4.16664Z" fill="white"/>
<path d="M25 16.6641C20.865 16.6641 17.5 20.0291 17.5 24.1641C17.5 28.299 20.865 31.6641 25 31.6641C29.135 31.6641 32.5 28.299 32.5 24.1641C32.5 20.0291 29.1351 16.6641 25 16.6641ZM23.9226 26.9082C24.2484 27.234 24.2484 27.7606 23.9226 28.0865C23.76 28.249 23.5468 28.3306 23.3334 28.3306C23.1201 28.3306 22.9068 28.2489 22.7443 28.0865L19.4109 24.7531C19.0851 24.4273 19.0851 23.9007 19.4109 23.5748L22.7443 20.2415C23.0701 19.9156 23.5967 19.9156 23.9226 20.2415C24.2484 20.5673 24.2484 21.0939 23.9226 21.4198L21.1784 24.164L23.9226 26.9082ZM30.5892 24.7532L27.2558 28.0866C27.0933 28.2491 26.88 28.3307 26.6667 28.3307C26.4533 28.3307 26.2401 28.249 26.0775 28.0866C25.7517 27.7607 25.7517 27.2341 26.0775 26.9083L28.8217 24.1641L26.0775 21.4199C25.7517 21.094 25.7517 20.5674 26.0775 20.2416C26.4034 19.9157 26.93 19.9157 27.2558 20.2416L30.5892 23.5749C30.915 23.9008 30.915 24.4274 30.5892 24.7532Z" fill="white"/>
<path d="M28.3339 45.8359C28.3339 47.6742 26.8389 49.1693 25.0006 49.1693C23.1622 49.1693 21.6672 47.6742 21.6672 45.8359C21.6672 44.8359 22.1189 43.9475 22.8189 43.3359H10.834V46.7018C10.834 48.5217 12.3148 50.0025 14.1348 50.0025H35.8664C37.6864 50.0025 39.1672 48.5217 39.1672 46.7018V43.3359H27.1823C27.8823 43.9476 28.3339 44.8359 28.3339 45.8359Z" fill="white"/>
</g>
<defs>
<clipPath id="clip0_23699_56656">
<rect width="50" height="50" fill="white"/>
</clipPath>
</defs>
</svg>
