<svg width="58" height="58" viewBox="0 0 58 58" fill="none" xmlns="http://www.w3.org/2000/svg">
<path d="M0 29C0 12.9837 12.9837 0 29 0C45.0163 0 58 12.9837 58 29C58 45.0163 45.0163 58 29 58C12.9837 58 0 45.0163 0 29Z" fill="#4361EE"/>
<path d="M39.5256 26.875H34.5483C34.4574 26.2311 34.2718 25.6591 33.9915 25.1591C33.7112 24.6515 33.3513 24.2197 32.9119 23.8636C32.4725 23.5076 31.965 23.2348 31.3892 23.0455C30.821 22.8561 30.2036 22.7614 29.5369 22.7614C28.3324 22.7614 27.2831 23.0606 26.3892 23.6591C25.4953 24.25 24.8021 25.1136 24.3097 26.25C23.8172 27.3788 23.571 28.75 23.571 30.3636C23.571 32.0227 23.8172 33.4167 24.3097 34.5455C24.8097 35.6742 25.5066 36.5265 26.4006 37.1023C27.2945 37.678 28.3286 37.9659 29.5028 37.9659C30.1619 37.9659 30.7718 37.8788 31.3324 37.7045C31.9006 37.5303 32.4044 37.2765 32.8438 36.9432C33.2831 36.6023 33.6468 36.1894 33.9347 35.7045C34.2301 35.2197 34.4347 34.6667 34.5483 34.0455L39.5256 34.0682C39.3968 35.1364 39.0748 36.1667 38.5597 37.1591C38.0521 38.1439 37.3665 39.0265 36.5028 39.8068C35.6468 40.5795 34.6241 41.1932 33.4347 41.6477C32.2528 42.0947 30.9157 42.3182 29.4233 42.3182C27.3475 42.3182 25.4915 41.8485 23.8551 40.9091C22.2263 39.9697 20.9384 38.6098 19.9915 36.8295C19.0521 35.0492 18.5824 32.8939 18.5824 30.3636C18.5824 27.8258 19.0597 25.6667 20.0142 23.8864C20.9688 22.1061 22.2642 20.75 23.9006 19.8182C25.5369 18.8788 27.3778 18.4091 29.4233 18.4091C30.7718 18.4091 32.0218 18.5985 33.1733 18.9773C34.3324 19.3561 35.3589 19.9091 36.2528 20.6364C37.1468 21.3561 37.8741 22.2386 38.4347 23.2841C39.0028 24.3295 39.3665 25.5265 39.5256 26.875Z" fill="white"/>
</svg>
