<svg width="58" height="42" viewBox="0 0 58 42" fill="none" xmlns="http://www.w3.org/2000/svg">
<g clip-path="url(#clip0_23711_58302)">
<path d="M55.9286 34.5765H55.3382V3.15C55.3382 1.4175 53.94 0 52.2311 0H5.76893C4.06 0 2.66179 1.4175 2.66179 3.15V34.5765H2.07143C0.932143 34.5765 0 35.5215 0 36.6765V37.8C0 40.1205 1.85393 42 4.14286 42H53.8571C56.1461 42 58 40.1205 58 37.8V36.6765C58 35.5215 57.0679 34.5765 55.9286 34.5765ZM4.73321 3.15C4.73321 2.5725 5.19929 2.1 5.76893 2.1H52.2311C52.8007 2.1 53.2668 2.5725 53.2668 3.15V34.5765H4.73321V3.15ZM55.9286 37.8C55.9286 38.955 54.9964 39.9 53.8571 39.9H4.14286C3.00357 39.9 2.07143 38.955 2.07143 37.8V36.6765H23.8111V37.6845C23.8111 38.262 24.2771 38.7345 24.8468 38.7345H33.1532C33.7229 38.7345 34.1889 38.262 34.1889 37.6845V36.6765H55.9286V37.8Z" fill="#1B275F"/>
<path d="M41.9369 15.327C41.9369 14.4555 41.4294 13.668 40.5076 13.1955L30.4301 9.07949C29.6119 8.65949 28.6073 8.64899 27.7787 9.05849L17.5769 13.227C16.7276 13.6575 16.2305 14.445 16.2305 15.3165C16.2305 16.188 16.738 16.9755 17.6598 17.448L20.2905 18.519V22.782C20.2905 23.7585 20.8705 24.6195 21.7715 24.987L28.2033 27.612C28.4933 27.7275 28.7937 27.7905 29.094 27.7905C29.3944 27.7905 29.6948 27.7275 29.9848 27.612L36.4165 24.987C37.3176 24.6195 37.8976 23.7585 37.8976 22.782V18.5085L38.923 18.0885V27.8115C38.5812 28.431 38.3533 29.2185 38.3533 29.712C38.3533 30.594 39.068 31.308 39.9587 31.308C40.8494 31.308 41.564 30.594 41.564 29.712C41.564 29.229 41.3465 28.431 40.9944 27.8115V17.133C41.5951 16.6815 41.9473 16.0305 41.9473 15.306L41.9369 15.327ZM18.3019 15.327C18.3019 15.327 18.364 15.18 18.4365 15.1485L28.5969 11.001L28.6798 10.959C28.7937 10.896 28.9283 10.8645 29.0733 10.8645C29.239 10.8645 29.4151 10.9065 29.5912 10.9905L39.6687 15.1065C39.8137 15.18 39.8862 15.2745 39.8862 15.327C39.8862 15.3795 39.824 15.474 39.7515 15.5055L29.5187 19.695C29.2701 19.821 28.9387 19.821 28.6073 19.653L18.5298 15.5475C18.3848 15.474 18.3123 15.3795 18.3123 15.327H18.3019ZM35.8158 22.7925C35.8158 22.908 35.7433 23.0025 35.6398 23.055L29.208 25.68C29.1355 25.7115 29.0526 25.7115 28.9698 25.68L22.538 23.055C22.424 23.013 22.3619 22.908 22.3619 22.7925V19.3695L27.7476 21.564C28.1723 21.7845 28.6487 21.8895 29.1148 21.8895C29.5601 21.8895 29.9951 21.795 30.3576 21.606L35.8158 19.3695V22.7925Z" fill="#283A8F"/>
</g>
<defs>
<clipPath id="clip0_23711_58302">
<rect width="58" height="42" fill="white"/>
</clipPath>
</defs>
</svg>
