<svg width="47" height="50" viewBox="0 0 47 50" fill="none" xmlns="http://www.w3.org/2000/svg">
<g clip-path="url(#clip0_23711_58307)">
<path d="M45.8596 28.6764C44.3392 27.0766 41.7734 27.0766 40.1737 28.6764L32.2467 36.5951C32.1675 36.3551 32.0091 36.1152 31.9299 35.8752C32.4922 34.9954 31.3677 33.9555 30.4886 34.5954C30.0848 34.3555 29.6096 34.2755 29.1265 34.1955L12.8607 32.8357C13.7397 32.3558 13.4229 30.996 12.3776 30.996C11.4194 30.916 10.9363 32.2758 11.8153 32.8357C10.2157 32.9157 8.60809 33.5556 7.33311 34.5954L0.847348 40.3545C0.443473 40.7544 0.364282 41.3943 0.768157 41.7943L8.6952 49.713C9.01196 50.033 9.57422 50.1129 9.9781 49.793L13.3437 47.3934L28.4059 48.4332C30.4886 48.5932 32.4922 47.7933 33.9334 46.3535L45.8676 34.4355C47.388 32.7557 47.388 30.1961 45.8676 28.6764C44.2679 27.0766 47.388 30.1961 45.8676 28.6764H45.8596ZM44.4184 32.9157L32.4842 44.8338C31.4468 45.8736 29.9976 46.4335 28.4772 46.3535L13.415 45.3937L8.68728 41.2344C7.72907 40.3545 6.36698 41.8743 7.40438 42.7541L11.4907 46.2736L9.5663 47.7133L2.99343 41.1544L8.67936 36.1152C9.71677 35.1553 11.166 34.7554 12.5281 34.8354L28.8731 36.1952C29.9976 36.2752 30.7183 37.395 30.3936 38.4348C30.3144 38.5948 30.2352 38.6748 30.2352 38.8347C29.9185 39.3947 29.277 39.7146 28.6356 39.7146L17.8972 39.2347C16.6143 39.1547 16.5351 41.1544 17.818 41.2344L28.5564 41.7143C30.0768 41.7943 31.5181 40.9144 32.1596 39.5546L41.615 30.1161C43.4602 28.2764 46.2635 31.076 44.4184 32.9157Z" fill="#1B275F"/>
<path d="M3.96791 22.5201C5.00531 22.5201 6.05064 22.1202 6.77128 21.3203L14.6983 13.4016C15.1022 14.4414 15.9812 15.3213 17.0978 15.6412C17.2562 16.681 18.6183 16.841 19.0222 15.8812L34.2427 17.161C36.1671 17.3209 38.1706 16.681 39.6119 15.4012L46.0976 9.64217C46.5015 9.24223 46.5807 8.60233 46.1768 8.2024L38.329 0.283666C38.0122 -0.0362824 37.45 -0.11627 37.0461 0.203679L33.6805 2.6033L18.6183 1.56346C16.5356 1.40349 14.532 2.20336 13.0907 3.64313L1.16454 15.6412C-1.32207 18.1208 0.443895 22.5201 3.96791 22.5201ZM2.52662 17.081L14.4607 5.16289C15.5061 4.12305 17.0265 3.56314 18.4678 3.64313L33.53 4.68296L38.2577 8.8423C39.2159 9.72216 40.578 8.2024 39.5406 7.32254L35.4543 3.8031L37.3787 2.36333L43.9436 8.92228L38.3369 13.8815C37.2995 14.8413 35.8503 15.2413 34.4882 15.1613L18.1431 13.8015C17.0186 13.7215 16.298 12.6017 16.6227 11.5619C16.7019 11.4019 16.781 11.3219 16.781 11.1619C17.0978 10.602 17.7393 10.2821 18.3807 10.2821L29.119 10.762C30.4019 10.842 30.4811 8.8423 29.1982 8.76231L18.4599 8.28239C16.9394 8.2024 15.4981 9.08226 14.8567 10.442L5.40127 19.8805C3.55611 21.7202 0.752741 18.9207 2.51871 17.081H2.52662Z" fill="#283A8F"/>
<path d="M32.6438 19.324C31.5193 20.0439 32.6438 21.7237 33.6812 21.0038C34.8057 20.2839 33.7604 18.6042 32.6438 19.324C33.1269 19.0041 32.327 19.484 32.6438 19.324Z" fill="#283A8F"/>
<path d="M33.3633 22.6786C33.3633 23.9584 35.3668 23.9584 35.3668 22.6786C35.3668 21.3988 33.3633 21.3988 33.3633 22.6786Z" fill="#283A8F"/>
<path d="M32.1677 18.6831C33.0468 17.8032 31.6847 16.3634 30.7265 17.2433C29.8474 18.2032 31.2095 19.5629 32.1677 18.6831C32.3261 18.4431 31.9302 18.8431 32.1677 18.6831Z" fill="#283A8F"/>
<path d="M35.1301 31.2349C35.6132 30.0351 33.768 29.3152 33.285 30.515C32.8019 31.7148 34.6471 32.4347 35.1301 31.2349C35.1301 31.1549 34.9718 31.6349 35.1301 31.2349Z" fill="#283A8F"/>
<path d="M32.3255 34.1993C33.0461 34.6793 34.0044 34.0394 33.846 33.1595C33.6876 32.2796 32.5631 32.0397 32.0008 32.7596C31.7632 33.2395 31.8424 33.8794 32.3176 34.1993C32.0008 33.9594 32.476 34.2793 32.3176 34.1993H32.3255Z" fill="#283A8F"/>
<path d="M35.9301 25.3211C35.8509 24.0413 33.7682 24.2013 33.9266 25.4811C34.0849 26.7609 36.0093 26.6009 35.9301 25.3211Z" fill="#283A8F"/>
<path d="M35.8503 28.3617C36.0087 27.0819 34.0052 26.8419 33.8468 28.1217C33.6884 29.3215 35.692 29.6414 35.8503 28.3617C35.9295 28.2817 35.8503 28.8416 35.8503 28.3617Z" fill="#283A8F"/>
<path d="M11.2536 24.8379C12.5365 24.8379 12.5365 22.9182 11.3328 22.8382C10.0499 22.7582 9.97067 24.8379 11.2536 24.8379Z" fill="#283A8F"/>
<path d="M11.3324 30.3597C12.5362 30.3597 12.6945 28.52 11.4116 28.36C10.0495 28.2001 9.97035 30.3597 11.3324 30.3597Z" fill="#283A8F"/>
<path d="M9.9707 26.6002C9.9707 27.8 11.7367 27.96 11.9742 26.7602C12.2118 25.4004 9.9707 25.1604 9.9707 26.6002Z" fill="#283A8F"/>
<path d="M13.0979 21.6386C13.6602 20.5987 12.1397 19.6389 11.4191 20.5987C10.5401 21.7185 12.5436 22.8384 13.0979 21.6386C13.1771 21.4786 12.9396 21.9585 13.0979 21.6386Z" fill="#283A8F"/>
<path d="M15.7438 17.8825C17.0267 17.8825 17.0267 15.9628 15.823 15.8828C14.5401 15.8828 14.4609 17.8825 15.7438 17.8825Z" fill="#283A8F"/>
<path d="M14.5405 19.4792C15.3403 18.5993 14.0574 17.3195 13.0992 18.0394C12.0539 18.9993 13.6615 20.519 14.5405 19.4792C14.6989 19.3192 14.3029 19.7191 14.5405 19.4792Z" fill="#283A8F"/>
<path d="M17.2651 31.6392H27.9163C28.4786 31.6392 28.9616 31.1592 28.9616 30.5993V23.0006L29.7615 23.4005C30.886 24.0404 31.8442 22.2007 30.7197 21.6408L23.1094 17.6414C22.7055 17.4814 22.5471 17.6414 22.1512 17.6414L14.5409 21.7208C13.4164 22.3607 14.3033 24.1204 15.4991 23.4805L16.299 23.0805V30.7593C16.299 31.2392 16.7028 31.6392 17.2572 31.6392H17.2651ZM21.8344 29.6395V26.8399C21.8344 25.8001 23.3549 25.8001 23.3549 26.8399V29.6395H21.8344ZM26.9581 29.6395H25.4376V26.8399C25.4376 25.3202 24.1547 24.0404 22.6343 24.0404C21.1138 24.0404 19.8309 25.3202 19.8309 26.8399V29.6395H18.3104V21.8807L22.6343 19.5611L26.9581 21.8807V29.6395Z" fill="#283A8F"/>
<path d="M42.0192 21.4766H40.0156V23.4762H42.0192V21.4766Z" fill="#283A8F"/>
<path d="M44.0231 19.4844H42.0195V21.4841H44.0231V19.4844Z" fill="#283A8F"/>
<path d="M42.0192 17.4844H40.0156V19.4841H42.0192V17.4844Z" fill="#283A8F"/>
<path d="M44.0231 15.4844H42.0195V17.4841H44.0231V15.4844Z" fill="#283A8F"/>
<path d="M5.00549 32.5156H3.00195V34.5153H5.00549V32.5156Z" fill="#283A8F"/>
<path d="M7.0094 30.5156H5.00586V32.5153H7.0094V30.5156Z" fill="#283A8F"/>
<path d="M5.00549 28.5156H3.00195V30.5153H5.00549V28.5156Z" fill="#283A8F"/>
<path d="M7.0094 26.5156H5.00586V28.5153H7.0094V26.5156Z" fill="#283A8F"/>
</g>
<defs>
<clipPath id="clip0_23711_58307">
<rect width="47" height="50" fill="white"/>
</clipPath>
</defs>
</svg>
