<svg width="50" height="50" viewBox="0 0 50 50" fill="none" xmlns="http://www.w3.org/2000/svg">
<path d="M11 39.9233L11.2928 39.5151L25.1057 13.3119L25.135 13.0346L19.0466 1.59842C18.9352 1.38929 18.7608 1.22051 18.5481 1.11594C18.3355 1.01137 18.0953 0.976322 17.8616 1.01574C17.6279 1.05517 17.4126 1.16707 17.246 1.33561C17.0794 1.50416 16.97 1.72082 16.9334 1.95494L11 39.9233Z" fill="#FFC24A"/>
<path d="M11.1738 39.6158L11.3943 39.1852L25.0643 13.2541L18.9914 1.7732C18.8912 1.57354 18.7291 1.4117 18.5293 1.31193C18.3294 1.21216 18.1026 1.17984 17.8828 1.21979C17.6631 1.25975 17.4622 1.36984 17.3102 1.53357C17.1583 1.69731 17.0635 1.90586 17.04 2.128L11.1738 39.6158Z" fill="#FFA712"/>
<path d="M29.575 21.6872L34.1081 17.037L29.5732 8.38928C29.4734 8.20316 29.325 8.0476 29.1438 7.93916C28.9626 7.83071 28.7554 7.77344 28.5442 7.77344C28.333 7.77344 28.1257 7.83071 27.9445 7.93916C27.7633 8.0476 27.6149 8.20316 27.5151 8.38928L25.0918 13.0085V13.4029L29.575 21.6872Z" fill="#F4BD62"/>
<path d="M29.4942 21.4954L33.9016 16.9829L29.4942 8.57803C29.422 8.3961 29.2988 8.23892 29.1394 8.12544C28.9799 8.01196 28.791 7.94703 28.5955 7.93847C28.4 7.92991 28.2062 7.9781 28.0374 8.07721C27.8686 8.17633 27.7322 8.32214 27.6444 8.49708L25.2091 13.1973L25.1367 13.4367L29.4942 21.4954Z" fill="#FFA50E"/>
<path d="M11.0039 39.9299L11.1365 39.7956L11.617 39.601L29.288 21.9955L29.5119 21.3858L25.1045 12.9844L11.0039 39.9299Z" fill="#F6820C"/>
<path d="M30.1383 48.806L46.1351 39.8862L41.5641 11.7591C41.5314 11.5608 41.4446 11.3754 41.3134 11.2232C41.1821 11.071 41.0115 10.9579 40.8202 10.8963C40.6289 10.8348 40.4243 10.8271 40.2289 10.8742C40.0335 10.9212 39.8549 11.0212 39.7126 11.1632L11 39.9258L26.9021 48.8043C27.3965 49.0802 27.9532 49.225 28.5193 49.225C29.0855 49.225 29.6422 49.0802 30.1366 48.8043" fill="#FDE068"/>
<path d="M46.1351 39.7798L41.5605 12.0533C41.5525 11.8649 41.4878 11.6831 41.3747 11.531C41.2616 11.3788 41.1052 11.2631 40.9253 11.1984C40.7453 11.1337 40.5499 11.1231 40.3638 11.1678C40.1777 11.2125 40.0093 11.3105 39.8798 11.4494L11 39.8396L26.8703 48.564C27.3653 48.8358 27.9226 48.9785 28.4894 48.9785C29.0561 48.9785 29.6134 48.8358 30.1084 48.564L46.1351 39.7798Z" fill="#FCCA3F"/>
<path d="M30.1383 48.5407C29.6439 48.8166 29.0872 48.9614 28.5211 48.9614C27.9549 48.9614 27.3982 48.8166 26.9038 48.5407L11.1309 39.7948L11 39.9292L26.9021 48.8077C27.3965 49.0836 27.9532 49.2284 28.5193 49.2284C29.0855 49.2284 29.6422 49.0836 30.1366 48.8077L46.1351 39.8896L46.0955 39.6484L30.1383 48.5407Z" fill="#EEAB37"/>
</svg>
