<svg width="50" height="50" viewBox="0 0 50 50" fill="none" xmlns="http://www.w3.org/2000/svg">
<rect width="50" height="50" rx="12" fill="#45D1FD"/>
<mask id="mask0_23761_18900" style="mask-type:luminance" maskUnits="userSpaceOnUse" x="11" y="10" width="25" height="30">
<path d="M35.2045 23.8721L27.3538 31.7256L35.2045 39.5791H26.2335L18.3799 31.7256L26.2335 23.8721H35.2045ZM26.2335 10.4141L11.6523 24.9952L16.1393 29.4821L35.2045 10.4141H26.2335V10.4141Z" fill="white"/>
</mask>
<g mask="url(#mask0_23761_18900)">
<path d="M18.3828 31.7285L22.8669 36.2155L35.2046 23.875H26.2335L18.3828 31.7285Z" fill="#39CEFD"/>
</g>
<mask id="mask1_23761_18900" style="mask-type:luminance" maskUnits="userSpaceOnUse" x="11" y="10" width="25" height="30">
<path d="M35.2045 23.8721L27.3538 31.7256L35.2045 39.5791H26.2335L18.3799 31.7256L26.2335 23.8721H35.2045ZM26.2335 10.4141L11.6523 24.9952L16.1393 29.4821L35.2045 10.4141H26.2335V10.4141Z" fill="white"/>
</mask>
<g mask="url(#mask1_23761_18900)">
<path d="M26.2335 10.4141H35.2045L16.1393 29.4821L11.6523 24.9952L26.2335 10.4141Z" fill="#39CEFD"/>
</g>
<mask id="mask2_23761_18900" style="mask-type:luminance" maskUnits="userSpaceOnUse" x="11" y="10" width="25" height="30">
<path d="M35.2045 23.8721L27.3538 31.7256L35.2045 39.5791H26.2335L18.3799 31.7256L26.2335 23.8721H35.2045ZM26.2335 10.4141L11.6523 24.9952L16.1393 29.4821L35.2045 10.4141H26.2335V10.4141Z" fill="white"/>
</mask>
<g mask="url(#mask2_23761_18900)">
<path d="M22.8672 36.2135L26.2338 39.5773H35.2049L27.3541 31.7266L22.8672 36.2135Z" fill="#03569B"/>
</g>
<mask id="mask3_23761_18900" style="mask-type:luminance" maskUnits="userSpaceOnUse" x="11" y="10" width="25" height="30">
<path d="M35.2045 23.8721L27.3538 31.7256L35.2045 39.5791H26.2335L18.3799 31.7256L26.2335 23.8721H35.2045ZM26.2335 10.4141L11.6523 24.9952L16.1393 29.4821L35.2045 10.4141H26.2335V10.4141Z" fill="white"/>
</mask>
<g mask="url(#mask3_23761_18900)">
<path d="M29.5218 33.9083L27.3541 31.7266L22.8672 36.2135L29.5218 33.9083Z" fill="url(#paint0_linear_23761_18900)"/>
</g>
<mask id="mask4_23761_18900" style="mask-type:luminance" maskUnits="userSpaceOnUse" x="11" y="10" width="25" height="30">
<path d="M35.2045 23.8721L27.3538 31.7256L35.2045 39.5791H26.2335L18.3799 31.7256L26.2335 23.8721H35.2045ZM26.2335 10.4141L11.6523 24.9952L16.1393 29.4821L35.2045 10.4141H26.2335V10.4141Z" fill="white"/>
</mask>
<g mask="url(#mask4_23761_18900)">
<path d="M18.3828 31.7215L22.8699 27.2344L27.3572 31.7215L22.8699 36.2085L18.3828 31.7215Z" fill="#16B9FD"/>
</g>
<path d="M35.2045 23.8721L27.3538 31.7256L35.2045 39.5791H26.2335L18.3799 31.7256L26.2335 23.8721H35.2045ZM26.2335 10.4141L11.6523 24.9952L16.1393 29.4821L35.2045 10.4141H26.2335Z" fill="white"/>
<defs>
<linearGradient id="paint0_linear_23761_18900" x1="24.1766" y1="37.0794" x2="27.5184" y2="33.7377" gradientUnits="userSpaceOnUse">
<stop stop-color="#1A237E" stop-opacity="0.4"/>
<stop offset="1" stop-color="#1A237E" stop-opacity="0"/>
</linearGradient>
</defs>
</svg>
