<svg width="32" height="32" viewBox="0 0 32 32" fill="none" xmlns="http://www.w3.org/2000/svg">
<g clip-path="url(#clip0_23711_58406)">
<path d="M12.2637 13.0625V18.1319H19.7367V13.0625H19.6964H12.304H12.2637ZM15.0626 14.6282H16.9377V16.566H15.0626V14.6282Z" fill="white"/>
<path d="M10.1814 4.6875L6.48438 7.26959V15.1008C6.48438 17.5954 9.02883 22.689 16.0001 26.699C22.9713 22.689 25.5158 17.5954 25.5158 15.1008V7.26965L21.8183 4.6875H10.1814ZM21.6117 20.0072H10.3884V11.1877H12.3038V10.5258C12.3038 9.54154 12.6891 8.61419 13.3887 7.91448C14.0883 7.21496 15.0156 6.82963 15.9997 6.82963H16.0001C18.0381 6.82963 19.6962 8.48775 19.6962 10.5258V11.1877H21.6116V20.0072H21.6117Z" fill="white"/>
<path d="M17.8219 10.5242C17.8219 9.52009 17.005 8.70312 16.0008 8.70312H16.0006C15.5172 8.70312 15.0608 8.89332 14.7154 9.23877C14.3699 9.58428 14.1797 10.0408 14.1797 10.5242V11.1861H17.8219V10.5242Z" fill="white"/>
<path d="M23.2935 0H8.70673L1.79688 4.82591V15.1009C1.79688 17.6445 2.96216 20.5965 5.07798 23.413C7.54382 26.6954 11.1759 29.5925 15.5816 31.7911L16.0002 32L16.4189 31.7911C20.8245 29.5925 24.4566 26.6954 26.9225 23.413C29.0383 20.5965 30.2036 17.6445 30.2036 15.1009V4.82591L23.2935 0ZM27.391 15.1009C27.391 16.9301 26.4651 19.2539 24.8506 21.4765C22.8848 24.1826 19.9814 26.6444 16.4541 28.5959L16.0002 28.847L15.5463 28.5959C12.019 26.6444 9.11562 24.1826 7.14987 21.4765C5.53537 19.2539 4.60941 16.9301 4.60941 15.1009V6.29221L9.59163 2.81259H22.4085L27.391 6.29221V15.1009H27.391Z" fill="white"/>
</g>
<defs>
<clipPath id="clip0_23711_58406">
<rect width="32" height="32" fill="white"/>
</clipPath>
</defs>
</svg>
