<svg width="32" height="32" viewBox="0 0 32 32" fill="none" xmlns="http://www.w3.org/2000/svg">
<path d="M16.5748 16.1319L15.8648 15.4219L15.1348 16.1519C15.3862 16.3733 15.6233 16.6104 15.8448 16.8619L16.5748 16.1319Z" fill="white"/>
<path d="M9.5 15C8.01664 15 6.5666 15.4399 5.33323 16.264C4.09986 17.0881 3.13856 18.2594 2.57091 19.6299C2.00325 21.0003 1.85472 22.5083 2.14411 23.9632C2.4335 25.418 3.14781 26.7544 4.1967 27.8033C5.2456 28.8522 6.58197 29.5665 8.03683 29.8559C9.49168 30.1453 10.9997 29.9968 12.3701 29.4291C13.7406 28.8614 14.9119 27.9001 15.736 26.6668C16.5601 25.4334 17 23.9834 17 22.5C16.9976 20.5116 16.2067 18.6053 14.8007 17.1993C13.3947 15.7933 11.4884 15.0024 9.5 15ZM9.5 29C8.21442 29 6.95772 28.6188 5.8888 27.9046C4.81988 27.1903 3.98676 26.1752 3.49479 24.9874C3.00282 23.7997 2.87409 22.4928 3.1249 21.2319C3.3757 19.971 3.99477 18.8128 4.90381 17.9038C5.81285 16.9948 6.97104 16.3757 8.23192 16.1249C9.49279 15.8741 10.7997 16.0028 11.9874 16.4948C13.1752 16.9868 14.1903 17.8199 14.9046 18.8888C15.6188 19.9577 16 21.2144 16 22.5C15.998 24.2233 15.3126 25.8754 14.094 27.094C12.8754 28.3126 11.2233 28.998 9.5 29Z" fill="white"/>
<path d="M9.5 14C9.67 14 9.835 14.015 10 14.025V13H9V14.025C9.165 14.015 9.33 14 9.5 14Z" fill="white"/>
<path d="M8 11H11V12H8V11Z" fill="white"/>
<path d="M3.86578 16.1519L3.13578 15.4219L2.42578 16.1319L3.15578 16.8619C3.37721 16.6104 3.61435 16.3733 3.86578 16.1519Z" fill="white"/>
<path d="M23 2H30V6H23V2Z" fill="white"/>
<path d="M10 2H17V6H10V2Z" fill="white"/>
<path d="M30 22V7H23V9.5C23.0003 9.58868 22.9767 9.67581 22.9319 9.75232C22.8871 9.82883 22.8225 9.89191 22.745 9.935C22.6708 9.97853 22.5861 10.001 22.5 10C22.4103 9.99997 22.3222 9.9758 22.245 9.93L20 8.585L17.755 9.93C17.6791 9.97501 17.5926 9.99912 17.5044 9.99989C17.4161 10.0007 17.3292 9.97806 17.2526 9.93439C17.1759 9.89071 17.1121 9.82752 17.0677 9.75122C17.0234 9.67493 17 9.58825 17 9.5V7H10V10H11.5C11.6326 10 11.7598 10.0527 11.8536 10.1464C11.9473 10.2402 12 10.3674 12 10.5V12.5C12 12.6326 11.9473 12.7598 11.8536 12.8536C11.7598 12.9473 11.6326 13 11.5 13H11V14.14C12.2045 14.3539 13.3478 14.8283 14.35 15.53L15.51 14.365C15.6044 14.2713 15.732 14.2188 15.865 14.2188C15.998 14.2188 16.1256 14.2713 16.22 14.365L17.635 15.78C17.7287 15.8744 17.7812 16.002 17.7812 16.135C17.7812 16.268 17.7287 16.3956 17.635 16.49L16.47 17.65C17.3638 18.9332 17.8847 20.4388 17.975 22H30ZM28 18H29V21H28V18ZM26 18H27V21H26V18ZM24 18H25V21H24V18ZM22 18H23V19H22V18ZM22 20H23V21H22V20Z" fill="white"/>
<path d="M19.745 7.57C19.8222 7.52424 19.9103 7.50009 20 7.50009C20.0897 7.50009 20.1778 7.52424 20.255 7.57L22 8.615V2H18V8.615L19.745 7.57Z" fill="white"/>
<path d="M9.5 17C8.41221 17 7.34884 17.3226 6.44437 17.9269C5.5399 18.5313 4.83495 19.3902 4.41867 20.3952C4.00238 21.4002 3.89346 22.5061 4.10568 23.573C4.3179 24.6399 4.84173 25.6199 5.61092 26.3891C6.3801 27.1583 7.36011 27.6821 8.42701 27.8943C9.4939 28.1065 10.5998 27.9976 11.6048 27.5813C12.6098 27.1651 13.4687 26.4601 14.0731 25.5556C14.6774 24.6512 15 23.5878 15 22.5C14.9983 21.0418 14.4183 19.6439 13.3872 18.6128C12.3561 17.5817 10.9582 17.0017 9.5 17ZM9 22H10C10.3978 22 10.7794 22.158 11.0607 22.4393C11.342 22.7206 11.5 23.1022 11.5 23.5C11.5 23.8978 11.342 24.2794 11.0607 24.5607C10.7794 24.842 10.3978 25 10 25V25.5H9V25C8.60218 25 8.22065 24.842 7.93934 24.5607C7.65804 24.2794 7.5 23.8978 7.5 23.5H8.5C8.5 23.6326 8.55268 23.7598 8.64645 23.8536C8.74022 23.9473 8.86739 24 9 24H10C10.1326 24 10.2598 23.9473 10.3536 23.8536C10.4473 23.7598 10.5 23.6326 10.5 23.5C10.5 23.3674 10.4473 23.2402 10.3536 23.1464C10.2598 23.0527 10.1326 23 10 23H9C8.60218 23 8.22065 22.842 7.93934 22.5607C7.65804 22.2794 7.5 21.8978 7.5 21.5C7.5 21.1022 7.65804 20.7206 7.93934 20.4393C8.22065 20.158 8.60218 20 9 20V19.5H10V20C10.3978 20 10.7794 20.158 11.0607 20.4393C11.342 20.7206 11.5 21.1022 11.5 21.5H10.5C10.5 21.3674 10.4473 21.2402 10.3536 21.1464C10.2598 21.0527 10.1326 21 10 21H9C8.86739 21 8.74022 21.0527 8.64645 21.1464C8.55268 21.2402 8.5 21.3674 8.5 21.5C8.5 21.6326 8.55268 21.7598 8.64645 21.8536C8.74022 21.9473 8.86739 22 9 22Z" fill="white"/>
</svg>
