<svg width="40" height="40" viewBox="0 0 40 40" fill="none" xmlns="http://www.w3.org/2000/svg">
<path d="M36.038 19.1416C35.6693 18.7229 35.4943 18.1416 35.5505 17.5479C35.5943 17.1291 35.613 16.7104 35.613 16.2791C35.613 12.6166 34.1443 9.22286 31.4818 6.71661C28.8255 4.21036 25.3443 2.95411 21.6818 3.17286C21.1443 3.20411 20.5818 3.27286 20.0005 3.38536C19.4193 3.27286 18.8568 3.20411 18.3255 3.17286C14.6568 2.95411 11.1755 4.21036 8.51925 6.71661C5.85675 9.22286 4.388 12.6166 4.388 16.2791C4.388 16.7104 4.40675 17.1291 4.4505 17.5541C4.50675 18.1416 4.33175 18.7229 3.963 19.1416L1.55675 21.8666C1.288 22.1666 1.188 22.5854 1.288 22.9791C1.38175 23.3729 1.66925 23.6916 2.0505 23.8354L3.93175 24.5479L3.48175 26.8229C3.4255 27.1041 3.56925 27.3791 3.8255 27.5041L3.80675 27.5166C3.6005 27.6854 3.51925 27.9729 3.613 28.2229L4.99425 31.9166C5.1005 32.1916 5.38175 32.3541 5.66925 32.3166L8.94425 31.8541C9.20675 31.8166 9.46925 31.8916 9.663 32.0666C9.863 32.2416 9.9755 32.4854 9.9755 32.7479V36.2229C9.9755 36.5666 10.2568 36.8479 10.6005 36.8479H29.4005C29.7443 36.8479 30.0255 36.5666 30.0255 36.2229V32.7479C30.0255 32.4854 30.138 32.2416 30.338 32.0666C30.5318 31.8916 30.8005 31.8166 31.0568 31.8541L34.3318 32.3166C34.6193 32.3604 34.9005 32.1916 35.0068 31.9166L36.388 28.2229C36.4818 27.9729 36.4005 27.6854 36.1943 27.5166L36.1755 27.5041C36.4318 27.3791 36.5755 27.1041 36.5193 26.8229L36.0693 24.5479L37.9505 23.8354C38.3318 23.6916 38.6193 23.3729 38.713 22.9791C38.813 22.5854 38.713 22.1666 38.4443 21.8666L36.038 19.1416ZM37.513 22.6666L35.138 23.5666C34.8505 23.6729 34.688 23.9666 34.7443 24.2666L35.1943 26.5729L34.738 26.7791C34.538 26.8666 34.4005 27.0479 34.3693 27.2666C34.338 27.4791 34.4255 27.6979 34.5943 27.8354L35.0568 28.2041L34.013 31.0104L31.2318 30.6166C30.613 30.5291 29.988 30.7104 29.5193 31.1229C29.0443 31.5291 28.7755 32.1229 28.7755 32.7479V35.5979H16.9443L16.763 29.3979C16.713 27.8104 16.0193 26.3541 14.8693 25.3916C12.0443 23.0229 10.4943 19.5479 10.6193 15.8541C10.813 10.4354 14.813 5.71661 20.1255 4.63536C20.688 4.52286 21.2318 4.44786 21.7505 4.42286C25.063 4.22286 28.2193 5.36036 30.6255 7.62286C33.038 9.89161 34.363 12.9666 34.363 16.2791C34.363 16.6729 34.3443 17.0479 34.3068 17.4291C34.2193 18.3604 34.5068 19.2854 35.1005 19.9666L37.513 22.6604V22.6666Z" fill="white"/>
<path d="M21.8009 7.29812C17.6634 7.36687 14.1696 10.7856 14.0259 14.9231C13.9196 17.5731 15.1571 20.0856 17.3196 21.6544C17.8696 22.0481 18.2009 22.7106 18.2384 23.4606L18.2446 23.5356C18.2384 23.5481 18.2384 23.5606 18.2384 23.5731V26.9981C18.2384 27.6981 18.7571 28.2669 19.3946 28.2794C19.4571 29.2419 20.2571 29.9981 21.2321 29.9981H22.6384C23.6071 29.9981 24.4134 29.2419 24.4759 28.2794C25.1134 28.2606 25.6259 27.6919 25.6259 26.9981V23.5731C25.6571 22.7606 26.0196 22.0419 26.6134 21.6044C28.6759 20.0981 29.8571 17.7731 29.8571 15.2169C29.8571 13.0794 29.0134 11.0794 27.4946 9.57312C25.9696 8.07312 23.9321 7.26062 21.8009 7.29812ZM26.9884 15.1419C26.9634 15.1419 26.9446 15.1481 26.9196 15.1481C26.6071 15.1481 26.3321 14.9044 26.3009 14.5856C26.1321 13.0294 25.3196 11.8606 23.8759 11.1169C23.5696 10.9544 23.4509 10.5794 23.6071 10.2731C23.7634 9.96687 24.1446 9.84812 24.4509 10.0044C25.7134 10.6544 27.2821 11.9606 27.5446 14.4544C27.5759 14.7981 27.3321 15.1044 26.9884 15.1419ZM24.3759 26.9981C24.3759 27.0106 24.3759 27.0169 24.3696 27.0294H19.4946C19.4884 27.0169 19.4884 27.0106 19.4884 26.9981V24.1981H24.3759V26.9981ZM25.0071 17.2044C25.0071 17.3919 24.9259 17.5669 24.7821 17.6856L22.5446 19.5481V22.9481H21.2946V19.2544C21.2946 19.0731 21.3759 18.8919 21.5196 18.7731L23.7571 16.9106V16.1856H19.4509C19.1071 16.1856 18.8259 15.9044 18.8259 15.5606C18.8259 15.2106 19.1071 14.9356 19.4509 14.9356H24.3821C24.7259 14.9356 25.0071 15.2106 25.0071 15.5606V17.2044ZM22.6384 28.7481H21.2321C20.9446 28.7481 20.7071 28.5481 20.6509 28.2794H23.2196C23.1634 28.5481 22.9196 28.7481 22.6384 28.7481Z" fill="white"/>
</svg>
