<svg width="40" height="40" viewBox="0 0 40 40" fill="none" xmlns="http://www.w3.org/2000/svg">
<g clip-path="url(#clip0_23699_56722)">
<path d="M39.5908 12.1585L35.6083 8.74503C35.2566 8.4437 34.7768 8.37651 34.3559 8.57019C33.9352 8.7637 33.6738 9.17159 33.6738 9.6348V10.7046H29.375C26.7862 10.7046 24.6875 12.8032 24.6875 15.3921V16.9082C24.7225 16.9758 24.7556 17.0446 24.7863 17.1146C25.1917 16.9548 25.6278 16.8713 26.0767 16.8713C27.0159 16.8713 27.8989 17.2371 28.5629 17.9014L29.375 18.7135V15.3921H33.6737V16.4618C33.6737 16.925 33.9352 17.3329 34.3559 17.5264C34.5152 17.5997 34.683 17.6357 34.8491 17.6357C35.1216 17.6357 35.3897 17.5389 35.6082 17.3515L39.5907 13.938C39.8509 13.7151 40 13.3909 40 13.0483C40 12.7057 39.8509 12.3815 39.5908 12.1585Z" fill="white"/>
<path d="M13.9233 16.8713C14.3723 16.8713 14.8083 16.9548 15.2137 17.1146C15.2444 17.0446 15.2775 16.9758 15.3125 16.9082V15.3921C15.3125 12.8032 13.2138 10.7046 10.625 10.7046H6.32625V9.6348C6.32625 9.17159 6.06484 8.7637 5.64414 8.57019C5.2232 8.37651 4.74344 8.4437 4.3918 8.74503L0.409219 12.1585C0.149141 12.3815 0 12.7057 0 13.0483C0 13.3909 0.149141 13.7151 0.409219 13.9381L4.39172 17.3516C4.61023 17.5389 4.87836 17.6357 5.15086 17.6357C5.31703 17.6357 5.48469 17.5998 5.64406 17.5265C6.06484 17.333 6.32617 16.9251 6.32617 16.4619V15.3921H10.625V18.7133L11.4373 17.901C12.1013 17.2369 12.9842 16.8713 13.9233 16.8713Z" fill="white"/>
<path d="M21.562 15C21.8305 15 22.092 15.0303 22.3433 15.0876V6.32625H23.4131C23.8763 6.32625 24.2842 6.06484 24.4777 5.64414C24.6713 5.22328 24.6042 4.74352 24.3028 4.3918L20.8893 0.409219C20.6663 0.149141 20.3421 0 19.9995 0C19.657 0 19.3327 0.149141 19.1098 0.409219L15.6962 4.39172C15.3948 4.74344 15.3278 5.22328 15.5213 5.64406C15.7149 6.06484 16.1228 6.32617 16.586 6.32617H17.6558V15.0875C17.9071 15.0302 18.1686 14.9999 18.437 14.9999H21.562V15Z" fill="white"/>
<path d="M30.1562 25.9375H29.784C29.5655 25.1513 29.2537 24.3992 28.8512 23.6877L29.1151 23.4239C29.3348 23.2041 29.4584 22.906 29.4584 22.5952C29.4584 22.2845 29.3349 21.9863 29.1151 21.7666L26.9053 19.5569C26.6856 19.3371 26.3875 19.2136 26.0767 19.2136C25.7659 19.2136 25.4678 19.3371 25.248 19.5569L24.9843 19.8207C24.2728 19.4182 23.5207 19.1063 22.7345 18.888V18.5156C22.7345 17.8684 22.2098 17.3438 21.5626 17.3438H18.4376C17.7904 17.3438 17.2657 17.8684 17.2657 18.5156V18.8879C16.4795 19.1063 15.7274 19.4181 15.0159 19.8206L14.7521 19.5568C14.5323 19.337 14.2343 19.2135 13.9234 19.2135C13.6126 19.2135 13.3146 19.337 13.0948 19.5568L10.8851 21.7666C10.6653 21.9863 10.5419 22.2845 10.5419 22.5952C10.5419 22.906 10.6654 23.2041 10.8852 23.4238L11.1489 23.6875C10.7464 24.3991 10.4346 25.1511 10.2162 25.9374H9.84375C9.19656 25.9374 8.67188 26.4621 8.67188 27.1093V30.2343C8.67188 30.8815 9.19656 31.4062 9.84375 31.4062H10.2159C10.4344 32.1924 10.7462 32.9445 11.1487 33.6561L10.8849 33.9198C10.6652 34.1395 10.5416 34.4377 10.5416 34.7484C10.5416 35.0592 10.6651 35.3573 10.8848 35.577L13.0945 37.7868C13.3143 38.0066 13.6123 38.1301 13.9232 38.1301C14.2341 38.1301 14.5321 38.0066 14.7519 37.7868L15.0156 37.523C15.7272 37.9255 16.4792 38.2373 17.2655 38.4557V38.8281C17.2655 39.4753 17.7902 40 18.4374 40H21.5624C22.2096 40 22.7343 39.4753 22.7343 38.8281V38.4559C23.5205 38.2374 24.2727 37.9256 24.9842 37.5232L25.2479 37.787C25.4677 38.0066 25.7658 38.1302 26.0766 38.1302C26.3873 38.1302 26.6855 38.0068 26.9052 37.787L29.1149 35.5772C29.3347 35.3575 29.4582 35.0594 29.4582 34.7486C29.4582 34.4378 29.3347 34.1397 29.1149 33.9199L28.8511 33.6562C29.2536 32.9447 29.5655 32.1926 29.7838 31.4063H30.1562C30.8034 31.4063 31.3281 30.8816 31.3281 30.2345V27.1095C31.3281 26.4622 30.8034 25.9375 30.1562 25.9375ZM20.0005 32.5781C20.0005 32.5781 20.0004 32.5781 20.0002 32.5781C20.0001 32.5781 20.0001 32.5781 19.9999 32.5781C17.8426 32.5781 16.0937 30.8292 16.0937 28.6719C16.0937 26.5145 17.8426 24.7656 19.9999 24.7656H20.0002C20.0002 24.7656 20.0004 24.7656 20.0005 24.7656C22.1579 24.7656 23.9068 26.5145 23.9068 28.6719C23.9068 30.8292 22.1579 32.5781 20.0005 32.5781Z" fill="white"/>
</g>
<defs>
<clipPath id="clip0_23699_56722">
<rect width="40" height="40" fill="white"/>
</clipPath>
</defs>
</svg>
