<svg width="40" height="40" viewBox="0 0 40 40" fill="none" xmlns="http://www.w3.org/2000/svg">
<g clip-path="url(#clip0_23699_56737)">
<path d="M38.7499 1.875H17.3499C17.0184 1.875 16.7004 2.0067 16.466 2.24112C16.2316 2.47554 16.0999 2.79348 16.0999 3.125V12.7563C12.6793 12.1426 9.15318 12.8469 6.23082 14.7276C3.30847 16.6083 1.20664 19.5258 0.3481 22.8933C-0.510438 26.2608 -0.0620018 29.8285 1.60321 32.8788C3.26843 35.929 6.02689 38.2356 9.32377 39.3346C12.6206 40.4335 16.2114 40.2433 19.3737 38.8023C22.536 37.3612 25.0354 34.7761 26.3691 31.567C27.7027 28.3578 27.7718 24.7627 26.5623 21.5048C25.3528 18.2468 22.9546 15.5677 19.8499 14.0063L22.3499 12.6062H38.7499C39.0814 12.6062 39.3993 12.4746 39.6338 12.2401C39.8682 12.0057 39.9999 11.6878 39.9999 11.3562V3.125C39.9999 2.79348 39.8682 2.47554 39.6338 2.24112C39.3993 2.0067 39.0814 1.875 38.7499 1.875ZM13.7499 37.5C11.1484 37.4907 8.63054 36.5801 6.62493 34.9232C4.61932 33.2663 3.24993 30.9655 2.74988 28.4125H5.38113C5.456 28.4187 5.53126 28.4187 5.60613 28.4125C5.83679 28.3839 6.0549 28.2915 6.23596 28.1458C6.41703 28 6.55387 27.8067 6.63113 27.5875L7.03113 26.45L8.58113 31.05C8.6681 31.3087 8.83737 31.5319 9.06309 31.6854C9.2888 31.8388 9.55855 31.9142 9.83113 31.9C10.1011 31.891 10.3608 31.7948 10.5715 31.6258C10.7822 31.4568 10.9325 31.2241 10.9999 30.9625L12.9374 23.3875L15.1624 34.8938C15.2174 35.171 15.3647 35.4215 15.5804 35.6043C15.7961 35.787 16.0673 35.8913 16.3499 35.9H16.3936C16.6701 35.8991 16.9384 35.8066 17.1566 35.637C17.3749 35.4673 17.5308 35.2301 17.5999 34.9625L19.7999 26.5187L20.1249 27.5438C20.2085 27.806 20.3764 28.0333 20.6024 28.1903C20.8284 28.3474 21.0999 28.4255 21.3749 28.4125H24.8124C24.3103 30.976 22.9317 33.2849 20.9132 34.943C18.8947 36.6012 16.3621 37.5052 13.7499 37.5ZM24.9999 25.9125H22.2061L20.8436 21.6438C20.7627 21.391 20.6033 21.1705 20.3887 21.0143C20.1741 20.8581 19.9153 20.7743 19.6499 20.775H19.6186C19.3484 20.7823 19.0879 20.877 18.876 21.0449C18.6642 21.2128 18.5125 21.4449 18.4436 21.7062L16.5686 28.9937L14.3124 17.4375C14.2577 17.1592 14.1099 16.9078 13.8935 16.7245C13.677 16.5413 13.4046 16.4371 13.1211 16.4291C12.8376 16.4211 12.5598 16.5098 12.3333 16.6805C12.1069 16.8513 11.9452 17.094 11.8749 17.3688L9.59988 26.25L8.24363 22.2188C8.16046 21.9725 8.00259 21.7583 7.792 21.6059C7.5814 21.4536 7.32855 21.3707 7.06863 21.3687C6.81053 21.3737 6.55976 21.4555 6.34827 21.6035C6.13679 21.7515 5.97416 21.9592 5.88113 22.2L4.56863 25.95H2.56238C2.63148 23.0246 3.84215 20.2422 5.93561 18.1976C8.02907 16.153 10.8392 15.0084 13.7655 15.0084C16.6918 15.0084 19.5019 16.153 21.5954 18.1976C23.6889 20.2422 24.8995 23.0246 24.9686 25.95L24.9999 25.9125ZM37.4999 10.0875H22.0124C21.7934 10.086 21.5779 10.142 21.3874 10.25L18.5874 11.825V4.375H37.4999V10.0875Z" fill="white"/>
<path d="M22.5 8.54688C23.1904 8.54688 23.75 7.98723 23.75 7.29688C23.75 6.60652 23.1904 6.04688 22.5 6.04688C21.8096 6.04688 21.25 6.60652 21.25 7.29688C21.25 7.98723 21.8096 8.54688 22.5 8.54688Z" fill="white"/>
<path d="M26.25 8.54688C26.9404 8.54688 27.5 7.98723 27.5 7.29688C27.5 6.60652 26.9404 6.04688 26.25 6.04688C25.5596 6.04688 25 6.60652 25 7.29688C25 7.98723 25.5596 8.54688 26.25 8.54688Z" fill="white"/>
<path d="M30 8.54688C30.6904 8.54688 31.25 7.98723 31.25 7.29688C31.25 6.60652 30.6904 6.04688 30 6.04688C29.3096 6.04688 28.75 6.60652 28.75 7.29688C28.75 7.98723 29.3096 8.54688 30 8.54688Z" fill="white"/>
<path d="M33.75 8.54688C34.4404 8.54688 35 7.98723 35 7.29688C35 6.60652 34.4404 6.04688 33.75 6.04688C33.0596 6.04688 32.5 6.60652 32.5 7.29688C32.5 7.98723 33.0596 8.54688 33.75 8.54688Z" fill="white"/>
</g>
<defs>
<clipPath id="clip0_23699_56737">
<rect width="40" height="40" fill="white"/>
</clipPath>
</defs>
</svg>
