<svg width="40" height="40" viewBox="0 0 40 40" fill="none" xmlns="http://www.w3.org/2000/svg">
<g clip-path="url(#clip0_23699_56747)">
<path fill-rule="evenodd" clip-rule="evenodd" d="M20 9.50445L28.7863 13.27V20.3746C28.7863 25.5895 25.0526 29.6148 20 30.4955C14.9474 29.6148 11.2137 25.5894 11.2137 20.3746V13.27L20 9.50445ZM4.09875 21.1809C4.3832 21.3738 4.45758 21.7607 4.26477 22.0452C4.07195 22.3296 3.685 22.404 3.40055 22.2112L0.949531 20.5481C0.756094 20.4419 0.625 20.2362 0.625 20C0.625 19.7639 0.755937 19.5584 0.949062 19.4521L3.40047 17.7887C3.68492 17.5959 4.07195 17.6703 4.26469 17.9548C4.4575 18.2392 4.3832 18.6262 4.09867 18.819L3.27945 19.375H6.95078C7.29594 19.375 7.57578 19.6548 7.57578 20C7.57578 20.3452 7.29594 20.625 6.95078 20.625H3.27953L4.09875 21.1809ZM33.8642 33.1051L33.3029 30.1743C33.2382 29.8359 32.9113 29.614 32.5729 29.6787C32.2345 29.7434 32.0126 30.0702 32.0773 30.4087L32.2632 31.3794L29.6691 28.7853C29.4251 28.5413 29.0294 28.5413 28.7854 28.7853C28.5414 29.0294 28.5413 29.4251 28.7854 29.6691L31.3794 32.263L30.4087 32.0771C30.0703 32.0124 29.7434 32.2343 29.6787 32.5727C29.6141 32.9112 29.8359 33.238 30.1744 33.3027L33.1047 33.864C33.311 33.9161 33.5388 33.8615 33.7002 33.7001C33.8615 33.5388 33.9161 33.3112 33.8642 33.1051ZM7.92273 9.59133L7.7368 8.62063L10.3309 11.2147C10.5749 11.4588 10.9706 11.4588 11.2146 11.2147C11.4587 10.9706 11.4587 10.5749 11.2146 10.3309L8.62063 7.73695L9.59125 7.92289C9.92969 7.98758 10.2566 7.7657 10.3212 7.42727C10.3859 7.08883 10.1641 6.76195 9.82562 6.69727L6.89539 6.13594C6.68906 6.08383 6.46125 6.13844 6.29984 6.29984C6.13852 6.46117 6.08391 6.68867 6.13578 6.89492L6.69711 9.8257C6.7618 10.1641 7.08867 10.386 7.42711 10.3213C7.76555 10.2566 7.9875 9.92977 7.92273 9.59133ZM20.548 39.0507C20.4417 39.244 20.2362 39.375 20 39.375C19.7638 39.375 19.5584 39.244 19.452 39.0507L17.7888 36.5995C17.596 36.315 17.6704 35.928 17.9548 35.7352C18.2393 35.5424 18.6263 35.6167 18.8191 35.9013L19.375 36.7205V33.0492C19.375 32.7041 19.6548 32.4242 20 32.4242C20.3452 32.4242 20.625 32.7041 20.625 33.0492V36.7205L21.1809 35.9012C21.3738 35.6167 21.7607 35.5423 22.0452 35.7352C22.3296 35.928 22.404 36.3149 22.2112 36.5994L20.548 39.0507ZM18.8191 4.09875C18.6262 4.3832 18.2393 4.45758 17.9548 4.26477C17.6704 4.07195 17.596 3.685 17.7888 3.40055L19.452 0.949297C19.5583 0.756016 19.7638 0.625 20 0.625C20.2362 0.625 20.4416 0.756016 20.548 0.949297L22.2112 3.40055C22.404 3.685 22.3296 4.07203 22.0452 4.26477C21.7607 4.45758 21.3737 4.38328 21.1809 4.09875L20.625 3.27945V6.9507C20.625 7.29586 20.3452 7.5757 20 7.5757C19.6548 7.5757 19.375 7.29586 19.375 6.9507V3.27945L18.8191 4.09875ZM6.89492 33.8642L9.8257 33.3029C10.1641 33.2382 10.386 32.9113 10.3213 32.5729C10.2566 32.2345 9.92977 32.0126 9.59133 32.0773L8.62063 32.2632L11.2147 29.6691C11.4588 29.4251 11.4588 29.0294 11.2147 28.7854C10.9706 28.5413 10.5749 28.5413 10.3309 28.7854L7.73695 31.3794L7.92289 30.4087C7.98758 30.0703 7.7657 29.7434 7.42727 29.6787C7.08883 29.6141 6.76195 29.8359 6.69727 30.1744L6.13602 33.1047C6.08391 33.311 6.13852 33.5388 6.29992 33.7002C6.46117 33.8615 6.68875 33.9161 6.89492 33.8642ZM30.4087 7.92273L31.3794 7.7368L28.7853 10.3309C28.5413 10.5749 28.5413 10.9706 28.7853 11.2146C29.0294 11.4587 29.4251 11.4587 29.6691 11.2146L32.263 8.62063L32.0771 9.59125C32.0124 9.92969 32.2343 10.2566 32.5727 10.3212C32.9112 10.3859 33.238 10.1641 33.3027 9.82562L33.864 6.89531C33.9161 6.68898 33.8615 6.46117 33.7001 6.29977C33.5387 6.13844 33.3112 6.08383 33.105 6.1357L30.1742 6.69703C29.8358 6.76172 29.6139 7.08859 29.6786 7.42703C29.7434 7.76555 30.0702 7.9875 30.4087 7.92273ZM35.9013 18.8191C35.6168 18.6263 35.5424 18.2394 35.7352 17.9549C35.928 17.6705 36.315 17.5961 36.5995 17.7889L39.0505 19.452C39.2438 19.5582 39.3749 19.7638 39.3749 20.0001C39.3749 20.2362 39.244 20.4416 39.0509 20.548L36.5995 22.2112C36.315 22.4041 35.928 22.3297 35.7352 22.0452C35.5424 21.7608 35.6167 21.3738 35.9013 21.181L36.7206 20.625H33.0493C32.7041 20.625 32.4243 20.3452 32.4243 20C32.4243 19.6548 32.7041 19.375 33.0493 19.375H36.7205L35.9013 18.8191ZM16.5576 20.5885L18.4719 22.5027C18.8057 22.8366 19.347 22.8366 19.6809 22.5027C21.3212 20.8626 21.8123 20.3492 23.4448 18.7005C23.7769 18.3666 23.7754 17.8268 23.4415 17.4948C23.1077 17.1627 22.5678 17.1642 22.2358 17.4981L19.0751 20.6878L17.7666 19.3795C17.4328 19.0456 16.8915 19.0456 16.5576 19.3795C16.2237 19.7134 16.2237 20.2547 16.5576 20.5885ZM20 13.809C16.5809 13.809 13.8091 16.5809 13.8091 20C13.8091 23.4191 16.5809 26.1909 20 26.1909C23.4191 26.1909 26.191 23.4191 26.191 20C26.191 16.5809 23.4191 13.809 20 13.809Z" fill="white"/>
</g>
<defs>
<clipPath id="clip0_23699_56747">
<rect width="40" height="40" fill="white"/>
</clipPath>
</defs>
</svg>
