<svg width="50" height="50" viewBox="0 0 50 50" fill="none" xmlns="http://www.w3.org/2000/svg">
<path fill-rule="evenodd" clip-rule="evenodd" d="M32.4901 8.54626C34.2642 6.46231 35.46 3.55979 35.1328 0.671875C32.5762 0.770525 29.4832 2.32708 27.6501 4.40856C26.0039 6.25575 24.5669 9.20727 24.9533 12.0385C27.8051 12.253 30.716 10.6326 32.4901 8.54626ZM38.8852 26.8757C38.9565 34.3409 45.6272 36.8242 45.701 36.8562C45.6469 37.0313 44.6356 40.3947 42.1873 43.872C40.0687 46.8759 37.8714 49.8675 34.4093 49.9316C31.0088 49.9933 29.9138 47.9736 26.0236 47.9736C22.1359 47.9736 20.9203 49.8673 17.7019 49.993C14.3604 50.1139 11.8136 46.7431 9.6803 43.7492C5.3152 37.6256 1.98109 26.4443 6.45938 18.8977C8.68376 15.1516 12.6576 12.7757 16.9735 12.7165C20.2535 12.6548 23.3514 14.86 25.3568 14.86C27.3622 14.86 31.1269 12.2088 35.0835 12.5985C36.7395 12.665 41.3901 13.2469 44.3748 17.4912C44.1336 17.6367 38.8261 20.6362 38.8852 26.8757Z" fill="url(#paint0_linear_23761_45626)"/>
<defs>
<linearGradient id="paint0_linear_23761_45626" x1="25.0175" y1="0.671874" x2="51.1788" y2="71.1439" gradientUnits="userSpaceOnUse">
<stop stop-color="white"/>
<stop offset="1" stop-color="#666666"/>
</linearGradient>
</defs>
</svg>
