<svg width="50" height="50" viewBox="0 0 50 50" fill="none" xmlns="http://www.w3.org/2000/svg">
<path d="M24.4568 26.4609C23.2773 24.5362 22.4216 22.9404 21.2361 19.9355C19.2316 14.8599 33.4274 10.2736 27.6715 1.46094C30.1665 7.54855 18.7163 11.3119 17.6526 16.3815C16.6799 21.0444 24.4509 26.4609 24.4568 26.4609Z" fill="#F44336"/>
<path d="M25.0123 17.4186C24.7943 20.3178 27.5436 21.8631 27.6231 23.9811C27.6867 25.7049 25.9798 27.1419 25.9798 27.1419C25.9798 27.1419 29.0778 26.5242 30.0442 23.8946C31.1173 20.9747 27.9615 18.9754 28.2863 16.6373C28.5895 14.4041 35.1351 10.25 35.1351 10.25C35.1351 10.25 25.504 10.8976 25.0123 17.4186Z" fill="#F44336"/>
<path d="M34.4673 26.3442C36.5215 25.8828 38.2537 27.191 38.2537 28.6982C38.2537 32.0958 33.5444 35.3072 33.5444 35.3072C33.5444 35.3072 40.8349 34.4382 40.8349 28.8599C40.8349 25.1707 37.2547 24.249 34.4673 26.3442ZM31.0065 29.0847C31.0065 29.0847 33.2797 27.465 33.8852 26.8572C28.3069 28.0412 15.5704 28.2005 15.5704 27.1722C15.5704 26.2247 19.6777 25.2538 19.6777 25.2538C19.6777 25.2538 10.5742 25.1227 10.5742 27.8082C10.5742 30.6073 22.4909 30.8075 31.0065 29.0847Z" fill="#1565C0"/>
<path d="M29.6074 31.6317C24.3266 33.3873 14.6 32.8263 17.4811 30.4688C16.078 30.4688 13.998 31.5966 13.998 32.6811C13.998 34.856 24.5175 36.5354 32.3035 33.351L29.6074 31.6317Z" fill="#1565C0"/>
<path d="M18.7754 35.3438C16.8594 35.3438 15.6191 36.5782 15.6191 37.4776C15.6191 40.2779 27.0498 40.5601 31.5787 37.7177L28.7 35.8064C25.3164 37.2938 16.8172 37.4987 18.7754 35.3438Z" fill="#1565C0"/>
<path d="M39.3824 39.9028C39.3824 38.8065 38.1468 38.2901 37.7041 38.0429C40.3134 44.3356 11.567 43.8473 11.567 40.1323C11.567 39.2879 13.6834 38.461 15.6392 38.8522L13.9761 37.8696C10.0785 37.2583 7.43164 38.9717 7.43164 40.3537C7.43164 46.7986 39.3824 46.4883 39.3824 39.9028Z" fill="#1565C0"/>
<path d="M42.5674 42.2109C37.7117 47.0069 25.3992 48.7543 13.0176 45.7912C25.3992 51.065 42.5088 48.0949 42.5674 42.2109Z" fill="#1565C0"/>
</svg>
