<svg width="50" height="50" viewBox="0 0 50 50" fill="none" xmlns="http://www.w3.org/2000/svg">
<g clip-path="url(#clip0_23761_45745)">
<path d="M23.2277 0.0725406C34.2748 -0.693459 41.5996 4.71254 45.7878 11.2991C47.8878 14.6016 49.9482 19.6175 49.9577 24.771C49.9679 30.3705 48.1539 35.2196 45.7878 38.7775C43.356 42.4345 40.2106 45.4549 36.272 47.4381C29.6881 50.7534 20.487 50.844 14.4602 47.652C7.74839 44.0971 2.58789 39.0232 0.66756 30.224C-0.10094 26.7026 -0.189273 22.1527 0.881394 18.249C1.13264 17.3332 1.58923 16.3695 1.95064 15.469C3.68748 11.142 6.64373 7.37937 10.2904 4.77696C11.7557 3.73129 13.5334 2.69129 15.1018 1.99704C17.0533 1.13329 20.339 0.272791 23.2277 0.0725406Z" fill="white"/>
<path d="M44.1835 25.3965C44.1835 35.8372 35.7197 44.3004 25.2792 44.3004C14.8387 44.3004 6.375 35.8372 6.375 25.3965C6.375 14.9561 14.8387 6.49219 25.2792 6.49219C35.7196 6.49219 44.1835 14.9561 44.1835 25.3965Z" fill="black"/>
<path d="M23.2277 0.0725406C34.2748 -0.693459 41.5996 4.71254 45.7878 11.2991C47.8878 14.6016 49.9482 19.6175 49.9577 24.771C49.9679 30.3705 48.1539 35.2196 45.7878 38.7775C43.356 42.4345 40.2106 45.4549 36.272 47.4381C29.6881 50.7534 20.487 50.844 14.4602 47.652C7.74839 44.0971 2.58789 39.0232 0.66756 30.224C-0.10094 26.7026 -0.189273 22.1527 0.881394 18.249C1.13264 17.3332 1.58923 16.3695 1.95064 15.469C3.68748 11.142 6.64373 7.37937 10.2904 4.77696C11.7557 3.73129 13.5334 2.69129 15.1018 1.99704C17.0533 1.13329 20.339 0.272791 23.2277 0.0725406ZM19.4855 1.89021C15.3822 2.95404 12.3736 4.85996 9.75581 6.91546C5.98089 9.87946 3.57439 14.0157 2.16448 18.9974C0.595894 24.5397 1.60348 31.2465 3.76831 35.463C6.01323 39.8357 9.02748 43.23 13.2841 45.6205C17.4254 47.9461 23.2501 49.4395 29.3222 48.2935C34.7172 47.2753 38.8146 44.925 42.1526 41.4505C46.6186 36.8018 50.2081 28.2394 47.8195 19.2112C47.181 16.7983 46.3462 14.2835 45.0395 12.1545C44.3335 11.0043 43.2975 9.87279 42.2596 8.73304C38.3424 4.43129 32.0113 0.724374 23.8692 1.24862C22.3197 1.34837 20.958 1.50837 19.4855 1.89021Z" fill="black"/>
<path d="M26.4811 48.1262L48.326 26.2819L48.2081 26.1641L26.3633 48.0084L26.4811 48.1262Z" fill="white"/>
<path d="M24.571 46.4013L46.5111 24.4616L46.3932 24.3438L24.4531 46.2834L24.571 46.4013Z" fill="white"/>
<path d="M22.6628 44.6686L44.6983 22.6335L44.5804 22.5156L22.5449 44.5508L22.6628 44.6686Z" fill="white"/>
<path d="M20.7526 42.9358L42.8834 20.8054L42.7656 20.6875L20.6348 42.8179L20.7526 42.9358Z" fill="white"/>
<path d="M18.8425 41.2109L41.0686 18.985L40.9508 18.8672L18.7246 41.093L18.8425 41.2109Z" fill="white"/>
<path d="M16.9323 39.4785L39.2537 17.1569L39.1359 17.0391L16.8145 39.3606L16.9323 39.4785Z" fill="white"/>
<path d="M15.0241 37.7453L37.4409 15.3288L37.3231 15.2109L14.9062 37.6274L15.0241 37.7453Z" fill="white"/>
<path d="M13.1139 36.0204L35.626 13.5085L35.5082 13.3906L12.9961 35.9025L13.1139 36.0204Z" fill="white"/>
<path d="M11.2038 34.2876L33.8108 11.6804L33.6929 11.5625L11.0859 34.1697L11.2038 34.2876Z" fill="white"/>
<path d="M9.29363 32.5625L31.9964 9.86004L31.8785 9.74219L9.17578 32.4447L9.29363 32.5625Z" fill="white"/>
<path d="M7.38348 30.8298L30.1816 8.03191L30.0637 7.91406L7.26562 30.712L7.38348 30.8298Z" fill="white"/>
<path d="M5.47527 29.0971L28.3688 6.20379L28.2509 6.08594L5.35742 28.9793L5.47527 29.0971Z" fill="white"/>
<path d="M3.56512 27.3721L26.5539 4.38348L26.4361 4.26562L3.44727 27.2542L3.56512 27.3721Z" fill="white"/>
<path d="M1.65496 25.6393L24.7391 2.55535L24.6213 2.4375L1.53711 25.5214L1.65496 25.6393Z" fill="white"/>
<path d="M1.5293 25.86L23.8106 48.1424L23.9285 48.0245L1.64715 25.7422L1.5293 25.86Z" fill="white"/>
<path d="M3.33594 24.0241L25.6606 46.3498L25.7785 46.232L3.45379 23.9062L3.33594 24.0241Z" fill="white"/>
<path d="M5.14258 22.196L27.5106 44.565L27.6284 44.4471L5.26043 22.0781L5.14258 22.196Z" fill="white"/>
<path d="M6.94922 20.36L29.3606 42.7725L29.4785 42.6546L7.06707 20.2422L6.94922 20.36Z" fill="white"/>
<path d="M8.75781 18.5241L31.2126 40.9798L31.3304 40.8619L8.87567 18.4062L8.75781 18.5241Z" fill="white"/>
<path d="M10.5645 16.696L33.0627 39.195L33.1806 39.0771L10.6823 16.5781L10.5645 16.696Z" fill="white"/>
<path d="M12.3711 14.86L34.9127 37.4024L35.0305 37.2845L12.4889 14.7422L12.3711 14.86Z" fill="white"/>
<path d="M14.1777 13.0319L36.7627 35.6175L36.8806 35.4996L14.2956 12.9141L14.1777 13.0319Z" fill="white"/>
<path d="M15.9844 11.196L38.6128 33.8249L38.7306 33.707L16.1022 11.0781L15.9844 11.196Z" fill="white"/>
<path d="M17.791 9.36004L40.4627 32.0321L40.5805 31.9143L17.9089 9.24219L17.791 9.36004Z" fill="white"/>
<path d="M19.5977 7.53191L42.3127 30.2475L42.4306 30.1296L19.7155 7.41406L19.5977 7.53191Z" fill="white"/>
<path d="M21.4043 5.69597L44.1628 28.4548L44.2806 28.337L21.5221 5.57812L21.4043 5.69597Z" fill="white"/>
<path d="M23.2129 3.86785L46.0147 26.67L46.1326 26.5522L23.3307 3.75L23.2129 3.86785Z" fill="white"/>
<path d="M25.0195 2.03191L47.8647 24.8773L47.9825 24.7595L25.1374 1.91406L25.0195 2.03191Z" fill="white"/>
<path d="M40.9762 8.84294C39.0101 6.87686 36.5929 5.10519 33.7056 4.03153C30.7128 2.91861 27.3273 1.98053 23.3343 2.32078C16.9738 2.86294 12.508 5.71669 9.11393 9.05678C6.7366 11.3962 4.94835 14.2629 3.76793 17.6104C2.03476 22.5254 2.13993 28.3269 4.08868 33.3276C5.75093 37.5932 8.4716 41.0337 12.3215 43.6989C15.9408 46.2044 21.1353 48.1477 26.9695 47.6549C34.0755 47.0548 39.2748 43.4091 42.6868 39.2083C43.5598 38.1336 44.4278 36.9189 44.932 35.4661C45.4261 34.4194 45.6679 33.7078 45.8943 33.3277C46.842 31.2042 47.3441 28.9637 47.4981 26.4849C47.9718 18.8605 45.0383 12.9052 40.9762 8.84294ZM38.8819 32.0719C38.8683 32.1009 38.8562 32.1279 38.842 32.1579C38.4895 33.1666 37.8823 34.0101 37.2719 34.7564C34.8858 37.6734 31.25 40.2049 26.2807 40.6218C22.2006 40.9638 18.568 39.6145 16.0371 37.8747C13.8378 36.3628 12.1659 34.4913 10.9936 32.2421C10.9221 32.1068 10.2413 30.5382 10.2393 30.4692C9.31052 27.5884 9.22993 22.9563 10.1832 20.1765C10.8193 18.3213 11.8796 16.3139 13.2838 14.7236C15.2227 12.5277 17.1629 11.1206 20.2337 10.126C21.6358 9.67186 22.8909 9.20961 24.6173 9.16378C28.8273 9.05169 33.1144 10.9419 35.4163 13.0129C37.5316 14.9159 39.9424 18.623 40.5485 22.101C41.1723 25.6808 40.5066 29.1759 38.8819 32.0719Z" fill="black"/>
<path d="M31.5648 35.5071C30.5281 35.5071 29.6184 34.8506 29.3009 33.8735L28.1462 30.3553H22.37L21.2971 33.8414C20.9733 34.8376 20.0566 35.5044 19.0146 35.5044C18.7645 35.5044 18.516 35.4648 18.2761 35.387C17.0306 35.0131 16.3235 33.6725 16.7051 32.4003L21.5806 16.9567C21.8971 15.9743 22.8291 15.2891 23.8472 15.2891H26.4397C27.4636 15.2891 28.3955 15.9626 28.7059 16.9271L33.8333 32.365C34.2433 33.6271 33.5644 34.9821 32.3207 35.3869C32.0748 35.4667 31.8206 35.5071 31.5648 35.5071Z" fill="white"/>
<path d="M31.5642 35.1712C30.6356 35.1712 29.822 34.5841 29.5381 33.7103L28.3832 30.1914L28.3267 30.0194H28.1457H22.3694H22.1848L22.1305 30.1958L21.0576 33.6819C20.7686 34.571 19.9482 35.1685 19.0141 35.1685C18.7904 35.1685 18.5679 35.1331 18.3526 35.0632C17.2343 34.7274 16.602 33.5263 16.944 32.3862L21.8184 16.9461C22.1013 16.0681 22.9374 15.4531 23.8467 15.4531H26.4392C27.3548 15.4531 28.1903 16.057 28.4673 16.9178L33.5955 32.3578C33.9625 33.4876 33.3548 34.7013 32.2428 35.0632C32.022 35.1349 31.7938 35.1712 31.5642 35.1712ZM31.5642 35.6712C31.8463 35.6712 32.1266 35.6266 32.3974 35.5387C33.7735 35.0908 34.5228 33.5942 34.0705 32.2018L28.9426 16.7624C28.5995 15.6964 27.5712 14.9531 26.4392 14.9531H23.8467C22.7193 14.9531 21.6917 15.7091 21.342 16.7941L16.4661 32.2391C16.0443 33.6452 16.8241 35.1263 18.2036 35.5405C18.4633 35.6248 18.7378 35.6685 19.0141 35.6685C20.165 35.6685 21.1772 34.9313 21.5343 33.8327L22.6083 30.3429L22.3694 30.5194H28.1457L27.9081 30.3473L29.0628 33.8655C29.4136 34.9453 30.4196 35.6712 31.5642 35.6712Z" fill="black"/>
<path d="M12.4174 10.3599L12.4113 10.3517C11.8033 9.51844 11.9818 8.35277 12.8772 7.69927C13.7726 7.04585 14.9228 7.22927 15.5308 8.06244L15.5369 8.07069C16.1449 8.90394 15.9665 10.0697 15.0711 10.7231C14.1757 11.3765 13.0254 11.1932 12.4174 10.3599ZM14.7222 8.67802L14.7161 8.66977C14.4106 8.2511 13.8418 8.1071 13.3983 8.43077C12.9588 8.75144 12.9247 9.32269 13.2302 9.74144L13.2363 9.74969C13.5418 10.1684 14.1106 10.3124 14.55 9.99169C14.9936 9.66802 15.0278 9.09677 14.7222 8.67802Z" fill="white"/>
<path d="M18.2786 4.90254L19.1923 4.60938L21.7539 7.58721L20.7375 7.91329L20.2923 7.38246L18.9729 7.80579L18.9246 8.49504L17.9277 8.81488L18.2786 4.90254ZM19.7819 6.73238L19.0887 5.88221L19.0147 6.97854L19.7819 6.73238Z" fill="white"/>
<path d="M23.4004 5.79817L23.4084 3.78125L24.4194 3.78525L24.4115 5.78167C24.4094 6.3 24.6702 6.54733 25.0705 6.549C25.4708 6.55058 25.7335 6.31558 25.7354 5.81267L25.7435 3.79067L26.7545 3.79467L26.7466 5.78592C26.742 6.94575 26.078 7.45125 25.0567 7.44717C24.0354 7.443 23.396 6.92208 23.4004 5.79817Z" fill="white"/>
<path d="M30.4057 5.44588L29.375 5.13129L29.6297 4.29688L32.6432 5.21663L32.3886 6.05104L31.3579 5.73654L30.564 8.33788L29.6118 8.04729L30.4057 5.44588Z" fill="white"/>
<path d="M35.336 6.38281L36.1648 6.9344L35.42 8.05373L36.4838 8.76173L37.2287 7.64231L38.0575 8.1939L36.0673 11.1846L35.2384 10.6331L35.9947 9.49656L34.9308 8.78856L34.1745 9.92506L33.3457 9.37348L35.336 6.38281Z" fill="white"/>
<path d="M38.2613 39.077L38.2676 39.0851C38.9071 39.8945 38.7733 41.0663 37.9035 41.7535C37.0336 42.4407 35.8771 42.3013 35.2376 41.4919L35.2313 41.4838C34.5918 40.6743 34.7257 39.5026 35.5955 38.8154C36.4653 38.1283 37.6218 38.2676 38.2613 39.077ZM36.0222 40.8459L36.0286 40.854C36.3499 41.2607 36.9238 41.3829 37.3547 41.0425C37.7816 40.7052 37.794 40.1331 37.4726 39.7263L37.4662 39.7182C37.145 39.3115 36.571 39.1893 36.1441 39.5266C35.7132 39.867 35.7009 40.4392 36.0222 40.8459Z" fill="white"/>
<path d="M32.6429 44.7677L31.7429 45.1007L29.0527 42.2386L30.0538 41.868L30.522 42.3788L31.8215 41.8978L31.8394 41.2072L32.8212 40.8438L32.6429 44.7677ZM31.0605 43.0058L31.7904 43.8246L31.8162 42.7261L31.0605 43.0058Z" fill="white"/>
<path d="M27.4911 44.0857L27.58 46.1006L26.57 46.1452L26.4819 44.1508C26.4591 43.633 26.1868 43.3985 25.7868 43.4161C25.3869 43.4338 25.1358 43.6812 25.158 44.1836L25.2472 46.2036L24.2372 46.2482L24.1493 44.259C24.0982 43.1003 24.7372 42.5635 25.7574 42.5185C26.7778 42.4734 27.4415 42.9629 27.4911 44.0857Z" fill="white"/>
<path d="M20.4736 44.7452L21.5141 45.0261L21.2867 45.8685L18.2441 45.0472L18.4716 44.2048L19.5121 44.4857L20.2211 41.8594L21.1824 42.1189L20.4736 44.7452Z" fill="white"/>
<path d="M15.5542 44.0122L14.7001 43.5004L15.3913 42.347L14.2953 41.69L13.604 42.8434L12.75 42.3316L14.597 39.25L15.451 39.7619L14.7492 40.9329L15.8453 41.5899L16.5472 40.4189L17.4012 40.9308L15.5542 44.0122Z" fill="white"/>
</g>
<defs>
<clipPath id="clip0_23761_45745">
<rect width="50" height="50" fill="white"/>
</clipPath>
</defs>
</svg>
