<svg width="58" height="58" viewBox="0 0 58 58" fill="none" xmlns="http://www.w3.org/2000/svg">
<path d="M0 29C0 12.9837 12.9837 0 29 0C45.0163 0 58 12.9837 58 29C58 45.0163 45.0163 58 29 58C12.9837 58 0 45.0163 0 29Z" fill="#4361EE"/>
<path d="M39.8935 30.3636C39.8935 32.9015 39.4124 35.0606 38.4503 36.8409C37.4957 38.6212 36.1927 39.9811 34.5412 40.9205C32.8973 41.8523 31.0488 42.3182 28.9957 42.3182C26.9276 42.3182 25.0715 41.8485 23.4276 40.9091C21.7836 39.9697 20.4844 38.6098 19.5298 36.8295C18.5753 35.0492 18.098 32.8939 18.098 30.3636C18.098 27.8258 18.5753 25.6667 19.5298 23.8864C20.4844 22.1061 21.7836 20.75 23.4276 19.8182C25.0715 18.8788 26.9276 18.4091 28.9957 18.4091C31.0488 18.4091 32.8973 18.8788 34.5412 19.8182C36.1927 20.75 37.4957 22.1061 38.4503 23.8864C39.4124 25.6667 39.8935 27.8258 39.8935 30.3636ZM34.9048 30.3636C34.9048 28.7197 34.6586 27.3333 34.1662 26.2045C33.6813 25.0758 32.9957 24.2197 32.1094 23.6364C31.223 23.053 30.1851 22.7614 28.9957 22.7614C27.8063 22.7614 26.7685 23.053 25.8821 23.6364C24.9957 24.2197 24.3063 25.0758 23.8139 26.2045C23.3291 27.3333 23.0866 28.7197 23.0866 30.3636C23.0866 32.0076 23.3291 33.3939 23.8139 34.5227C24.3063 35.6515 24.9957 36.5076 25.8821 37.0909C26.7685 37.6742 27.8063 37.9659 28.9957 37.9659C30.1851 37.9659 31.223 37.6742 32.1094 37.0909C32.9957 36.5076 33.6813 35.6515 34.1662 34.5227C34.6586 33.3939 34.9048 32.0076 34.9048 30.3636Z" fill="white"/>
</svg>
