<svg width="50" height="50" viewBox="0 0 50 50" fill="none" xmlns="http://www.w3.org/2000/svg">
<path d="M47.891 30.7409C41.7111 31.9697 41.285 29.9515 41.285 29.9515C47.8108 20.6131 50.5359 8.75599 48.182 5.85478C41.7617 -2.05944 30.6464 1.68405 30.4608 1.7817L30.3975 1.78984C29.1784 1.5457 27.8117 1.39922 26.2762 1.3748C23.4794 1.33004 21.3576 2.08281 19.7504 3.25876C19.7504 3.25876 -0.0800133 -4.62292 0.843804 13.1709C1.04207 16.955 6.46685 41.8086 12.942 34.3012C15.3085 31.5547 17.5948 29.2353 17.5948 29.2353C18.7296 29.9637 20.0921 30.334 21.5137 30.1997L21.6234 30.1102C21.5896 30.452 21.6065 30.7856 21.6655 31.1803C19.9993 32.9788 20.4886 33.2921 17.1519 33.9554C13.7772 34.6268 15.7599 35.819 17.0549 36.1323C18.6241 36.5107 22.2519 37.0478 24.707 33.7356L24.6099 34.1141C25.2638 34.6186 25.7236 37.3978 25.6477 39.9165C25.5717 42.4352 25.5211 44.1645 26.0357 45.5154C26.5504 46.8663 27.065 49.9059 31.4479 48.9985C35.1094 48.2417 37.0076 46.2804 37.2734 43.0089C37.459 40.6814 37.8851 41.0273 37.9104 38.948L38.2521 37.9633C38.6444 34.8099 38.3153 33.7926 40.5721 34.2646L41.1205 34.3094C42.7826 34.3826 44.955 34.053 46.2289 33.4793C48.9666 32.2545 50.5991 30.1997 47.891 30.7409Z" fill="#336791"/>
<path d="M24.2089 32.529C24.2215 32.1221 24.5717 31.8006 24.9935 31.8128C25.4153 31.825 25.7486 32.1628 25.7359 32.5697C25.6473 35.5929 25.6642 38.6244 25.7781 41.0495C25.8836 43.2345 26.065 44.8784 26.3181 45.4888C26.588 46.1358 27.0056 47.092 27.8071 47.7389C28.5875 48.3737 29.7897 48.7603 31.7049 48.3656C33.3796 48.0197 34.5059 47.5274 35.2567 46.7746C35.9991 46.03 36.421 44.9761 36.6825 43.5031C36.8766 42.4289 37.1423 40.5531 37.3828 38.6854C37.6865 36.3498 37.9649 33.9898 38.024 33.2289C38.0535 32.822 38.4205 32.5168 38.8423 32.5493C39.2641 32.5778 39.5805 32.9318 39.5468 33.3387C39.4877 34.0793 39.2093 36.4678 38.8929 38.8726C38.6398 40.8013 38.3699 42.7137 38.1842 43.7513C37.8679 45.5132 37.3321 46.8112 36.3493 47.7959C35.3706 48.7765 33.9997 49.395 32.0128 49.806C29.5451 50.3146 27.9168 49.7572 26.8158 48.862C25.7317 47.9831 25.2171 46.8193 24.8923 46.034C24.5717 45.265 24.3565 43.4502 24.2426 41.1105C24.133 38.665 24.1203 35.5929 24.2089 32.529Z" fill="white"/>
<path d="M19.999 2.44263C20.3913 2.59318 20.5812 3.02043 20.4251 3.39885C20.269 3.77726 19.8261 3.96037 19.4338 3.80982C19.3832 3.78947 0.695906 -3.57544 1.56067 13.0587C1.66612 15.1135 3.35346 23.5201 5.91821 29.3835C6.72813 31.2309 7.6182 32.8097 8.56311 33.8188C9.35194 34.6651 10.1576 35.072 10.9338 34.8035C11.3641 34.6529 11.8239 34.3152 12.309 33.7537C14.6839 30.9989 16.8437 28.822 16.8522 28.818C17.1432 28.525 17.6241 28.5128 17.9278 28.7935C18.2315 29.0743 18.2442 29.5382 17.9531 29.8311C17.9489 29.8352 15.8398 31.9552 13.4817 34.6936C12.811 35.4749 12.1276 35.9591 11.44 36.1951C9.98048 36.6956 8.63904 36.1096 7.42416 34.8075C6.36114 33.6723 5.38248 31.9511 4.51351 29.9532C1.87704 23.9351 0.143304 15.26 0.0336268 13.1279C-0.949247 -5.81746 19.94 2.41822 19.999 2.44263Z" fill="white"/>
<path d="M30.8359 2.32957L29.7012 1.13329C29.794 1.10073 29.8868 1.07225 29.9796 1.04784C30.2285 0.970525 30.4984 0.893214 30.7895 0.811834C31.2156 0.689763 31.8399 0.531072 32.6034 0.388656C36.4126 -0.32342 43.8453 -0.709976 48.7428 5.32844C50.1264 7.03335 50.0125 11.2529 48.5825 16.2497C47.317 20.6727 45.0348 25.7711 41.8795 30.2877C41.6433 30.6255 41.1666 30.715 40.8165 30.4871C40.4664 30.2593 40.3736 29.7995 40.6098 29.4617C43.6723 25.0794 45.8827 20.1356 47.1103 15.855C48.418 11.2895 48.6246 7.56639 47.5405 6.23176C43.145 0.815902 36.3661 1.18211 32.886 1.83722C32.1731 1.9715 31.6036 2.11392 31.2156 2.22378L30.8359 2.32957Z" fill="white"/>
<path d="M41.9685 29.6494C41.9769 29.6698 41.9812 29.6901 41.9854 29.7105C41.9854 29.7145 42.2469 31.0288 47.6928 29.9465C48.4647 29.7918 49.0131 29.8244 49.3675 29.9912C49.8273 30.2028 50.0255 30.5568 49.996 31.0125C49.9791 31.2892 49.8441 31.5863 49.6206 31.8833C49.1059 32.5628 47.929 33.4417 46.499 34.0806C45.4275 34.5607 43.795 34.8822 42.2975 34.9635C41.4159 35.0124 40.5722 34.9798 39.9015 34.8496C39.0578 34.6869 38.4167 34.3491 38.1509 33.7998C38.0792 33.6533 38.037 33.4946 38.0286 33.3237C37.8598 30.4673 39.3025 29.9668 40.3107 29.6901C40.2052 29.5436 40.0618 29.3687 39.9015 29.1774C39.3911 28.563 38.7372 27.7736 38.2184 26.5651C38.1382 26.382 37.9062 25.9751 37.5941 25.438C36.2737 23.1553 33.6752 18.655 34.1857 15.5828C34.5484 13.3897 36.2822 11.9329 40.6144 12.3683L40.5722 12.2463C40.3655 11.6807 40.0365 10.9401 39.5598 10.11C37.67 6.78972 33.5487 2.15918 26.2299 2.04525C15.0639 1.87028 15.4309 15.4526 15.4309 15.4893C15.4394 15.8962 15.1019 16.2298 14.68 16.238C14.2582 16.2461 13.9123 15.9206 13.9039 15.5137C13.9039 15.4689 13.4905 0.372889 26.251 0.57227C34.308 0.69841 38.8301 5.7684 40.897 9.39795C41.4117 10.3013 41.7787 11.1232 42.0107 11.762C42.2722 12.4782 42.3692 13.0397 42.3271 13.2879C42.268 13.6541 42.0571 13.882 41.6943 13.9512L41.4201 13.9552C37.4464 13.3408 35.9447 14.2808 35.6916 15.8107C35.2656 18.3864 37.6953 22.5856 38.9271 24.7218C39.2603 25.2996 39.5134 25.7391 39.6273 26.0077C40.066 27.029 40.6397 27.7207 41.0869 28.266C41.5045 28.7583 41.8335 29.1571 41.9685 29.6494ZM48.0007 31.3869C43.9638 32.1926 42.0824 31.6025 41.2176 30.9678C41.0995 31.0044 40.973 31.037 40.838 31.0736C40.298 31.2201 39.4586 31.4479 39.5472 33.1976C39.6104 33.2627 39.8467 33.3319 40.1926 33.401C40.7452 33.5068 41.4539 33.5313 42.2089 33.4906C43.5293 33.4173 44.9509 33.1447 45.8578 32.7378C46.7901 32.3187 47.5705 31.8141 48.0513 31.3747L48.0007 31.3869Z" fill="white"/>
<path d="M22.1876 31.5986C21.8754 31.9363 21.6181 32.2496 21.3987 32.5181C20.4623 33.6656 20.1712 34.0237 17.2648 34.6015C16.7417 34.7073 16.3873 34.809 16.168 34.9107C16.438 35.0979 16.8429 35.2525 17.1973 35.338C17.9144 35.5129 19.104 35.7205 20.3779 35.5129C21.6181 35.3095 22.9553 34.6951 24.0394 33.2302C24.0732 33.1814 24.1027 33.1285 24.128 33.0756C24.2377 32.8193 24.2124 32.4978 24.1027 32.1926C23.9846 31.8671 23.7694 31.5823 23.5206 31.4073C23.4615 31.3666 23.4024 31.3341 23.3392 31.3097L23.3012 31.2934C23.1451 31.2323 22.9722 31.1672 22.8245 31.1794C22.6642 31.1957 22.4618 31.3015 22.1876 31.5986ZM20.1965 31.6026C20.4032 31.3503 20.6437 31.0574 21.0064 30.6627C21.036 30.6261 21.0697 30.5894 21.1035 30.5569C21.6645 29.9709 22.2002 29.7512 22.6938 29.7105C23.1831 29.6698 23.5627 29.8041 23.8833 29.9343C23.896 29.9384 23.9087 29.9425 23.9255 29.9506C24.09 30.0157 24.2503 30.1052 24.4064 30.211C24.9084 30.5569 25.3218 31.1062 25.5454 31.7043C25.7732 32.3269 25.8111 33.0227 25.5411 33.6412C25.4737 33.7958 25.3893 33.9423 25.2838 34.0847C23.9171 35.932 22.2129 36.7052 20.6352 36.9656C19.0871 37.2219 17.6782 36.9737 16.8261 36.7703C16.206 36.6197 15.4382 36.2861 14.9869 35.8792C14.7211 35.6391 14.5397 35.3543 14.4891 35.0369C14.43 34.6585 14.5482 34.2922 14.9067 33.9667C15.2526 33.6534 15.8938 33.3686 16.9526 33.157C19.3107 32.689 19.5216 32.4327 20.1965 31.6026Z" fill="white"/>
<path d="M22.2686 30.9658C22.3319 31.3686 22.045 31.747 21.6274 31.804C21.2098 31.861 20.8175 31.5884 20.7584 31.1855C20.7415 31.0879 20.7331 30.9902 20.7247 30.8885C20.4716 30.8803 20.2227 30.8641 19.978 30.8274C18.3413 30.6077 16.8607 29.8102 15.747 28.6302C14.646 27.4664 13.9036 25.9284 13.7307 24.2112C13.6674 23.6009 13.68 22.9661 13.7728 22.3273C14.1483 19.7475 14.0048 17.4404 13.9331 16.2441C13.912 15.9186 13.8994 15.6745 13.8994 15.4873C13.9036 15.0031 15.1649 13.937 16.8269 13.2778C17.5778 12.9808 18.4172 12.7326 19.2482 12.6105C20.1257 12.4843 21.0115 12.4966 21.8088 12.7366C23.0574 13.115 24.0487 14.0062 24.4284 15.7111C25.7993 21.8187 24.5718 24.4432 23.6142 26.498C23.4497 26.852 23.2936 27.1857 23.1755 27.4868C23.1713 27.5071 23.1629 27.5234 23.1544 27.5438C22.7537 28.5854 23.34 27.0595 23.0363 27.8367C22.5596 29.09 22.142 30.1642 22.2686 30.9658ZM20.8892 29.4196C21.0537 28.7645 21.3237 28.0727 21.6105 27.3281C21.8383 26.7422 21.2435 28.2762 21.7202 27.0351C21.7286 27.0148 21.7371 26.9944 21.7455 26.9741C21.8931 26.5957 22.0534 26.258 22.218 25.8999C23.0869 24.0403 24.1921 21.664 22.9309 16.0325C22.6862 14.938 22.0914 14.3764 21.349 14.1526C20.7922 13.9858 20.1383 13.9817 19.4676 14.0794C18.7505 14.1852 18.0334 14.3968 17.3922 14.6491C16.2659 15.0926 15.4138 15.4669 15.4138 15.4995C15.4138 15.6053 15.4264 15.8454 15.4475 16.1668C15.5234 17.4079 15.6711 19.8126 15.2788 22.5389C15.2029 23.0719 15.1902 23.5887 15.2408 24.0851C15.38 25.4686 15.979 26.7096 16.8691 27.6495C17.7465 28.5773 18.9066 29.208 20.1805 29.3789C20.4167 29.4033 20.653 29.4196 20.8892 29.4196Z" fill="white"/>
<path d="M19.6442 15.3856C19.6105 15.6257 20.104 16.2727 20.7452 16.3581C21.3864 16.4436 21.939 15.939 21.9727 15.6989C22.0065 15.4589 21.5129 15.1903 20.8717 15.1049C20.2306 15.0194 19.678 15.1456 19.6442 15.3856Z" fill="white"/>
<path d="M19.8975 15.4168C19.8891 15.4697 19.9777 15.6081 20.1253 15.7586C20.2898 15.9254 20.5218 16.076 20.7791 16.1126H20.7834C21.0365 16.1452 21.2727 16.0638 21.4499 15.9458C21.6144 15.84 21.7156 15.7261 21.7283 15.661C21.7283 15.6487 21.665 15.6121 21.5595 15.5552C21.3866 15.4616 21.1335 15.3843 20.8424 15.3436H20.834C20.5471 15.307 20.2814 15.3151 20.0916 15.3598C19.9734 15.3883 19.8975 15.4087 19.8975 15.4168ZM19.7583 16.0963C19.5094 15.8441 19.3702 15.543 19.3955 15.3558V15.3476C19.4293 15.1157 19.6444 14.957 19.9734 14.8797C20.2223 14.8227 20.5513 14.8105 20.9015 14.8553C20.9057 14.8553 20.9099 14.8553 20.9141 14.8553C21.2685 14.9041 21.5848 15.0018 21.8084 15.1238C22.1037 15.2825 22.2682 15.4982 22.2345 15.7261C22.2092 15.9051 22.0193 16.1655 21.7367 16.3486C21.4709 16.5236 21.1082 16.6497 20.7159 16.5968H20.7116C20.3236 16.548 19.9903 16.3323 19.7583 16.0963Z" fill="white"/>
<path d="M39.2345 14.8934C39.2682 15.1335 38.7747 15.7805 38.1335 15.8659C37.4881 15.9514 36.9397 15.4468 36.9059 15.2068C36.8722 14.9667 37.3657 14.6981 38.0111 14.6127C38.6481 14.5272 39.1965 14.6534 39.2345 14.8934Z" fill="white"/>
<path d="M39.3564 14.875C39.3775 15.0296 39.2509 15.2941 39.0273 15.5219C38.8122 15.7416 38.5 15.941 38.1457 15.9858H38.1415C37.7871 16.0305 37.4581 15.9166 37.2135 15.7579C36.9604 15.5952 36.7958 15.3714 36.7705 15.2208C36.7452 15.0458 36.8844 14.875 37.1333 14.7407C37.3442 14.6267 37.6437 14.5332 37.9812 14.4884C38.3187 14.4436 38.635 14.4558 38.8713 14.5087C39.1497 14.5698 39.3311 14.6959 39.3564 14.875ZM38.8417 15.351C39.0147 15.1761 39.1159 14.997 39.1033 14.9075C39.0948 14.8424 38.9852 14.7854 38.8164 14.7447C38.6097 14.6959 38.3271 14.6878 38.0192 14.7285C37.7154 14.7692 37.4455 14.8546 37.2599 14.9523C37.108 15.0336 37.0194 15.1191 37.0278 15.1842C37.0405 15.2737 37.167 15.4243 37.3611 15.5504C37.5594 15.6806 37.8293 15.7742 38.1162 15.7376H38.1204C38.403 15.701 38.6603 15.5341 38.8417 15.351Z" fill="white"/>
<path d="M40.7704 13.2584C40.7493 12.8515 41.0741 12.5057 41.496 12.4853C41.9178 12.465 42.2763 12.7783 42.2974 13.1852C42.3607 14.3245 42.2173 15.2278 42.0654 16.1759C41.9515 16.8839 41.8334 17.6245 41.8081 18.4505C41.7828 19.2358 41.8883 20.1066 42.0022 21.0018C42.2974 23.3577 42.6096 25.8805 40.7957 28.4887C40.5595 28.8265 40.087 28.916 39.7369 28.6922C39.3868 28.4643 39.294 28.0086 39.526 27.6709C41.0193 25.5184 40.7409 23.2763 40.4793 21.1767C40.3612 20.2408 40.2473 19.3294 40.2811 18.4098C40.3106 17.4576 40.4329 16.6967 40.551 15.9602C40.6945 15.0732 40.8252 14.235 40.7704 13.2584Z" fill="white"/>
</svg>
