<svg width="50" height="50" viewBox="0 0 50 50" fill="none" xmlns="http://www.w3.org/2000/svg">
<g clip-path="url(#clip0_23711_58197)">
<path d="M26.0673 22.656C26.4214 23.0089 26.438 23.5998 26.105 23.9767C25.7719 24.3519 25.2144 24.3695 24.8587 24.0166C24.3675 23.5247 23.9953 23.0776 23.6984 22.5889C23.394 22.0907 23.177 21.5685 23.0037 20.9393C22.859 20.4155 22.7475 19.7528 22.6571 19.0198C22.5667 18.282 22.4989 17.5123 22.4446 16.7617C22.4446 16.7441 22.4431 16.7282 22.4416 16.7106C22.3497 15.6598 22.2442 14.8326 21.976 14.1108C21.7153 13.4081 21.2768 12.7566 20.5007 12.0092C20.4947 12.0028 20.4886 11.9981 20.4841 11.9917L9.21678 1.63875C8.84909 1.30179 8.8084 0.712524 9.12637 0.322872C9.44433 -0.0667802 10.0004 -0.109897 10.3681 0.227056L21.6369 10.5816C21.6535 10.5959 21.6716 10.6103 21.6881 10.6263C22.6827 11.5829 23.2584 12.4532 23.62 13.4289C23.9621 14.3535 24.0887 15.3229 24.1957 16.5381C24.2002 16.5653 24.2032 16.594 24.2047 16.6212C24.2605 17.3877 24.3253 18.1383 24.4036 18.777C24.4835 19.4222 24.5769 19.9939 24.6945 20.4187C24.818 20.8674 24.9672 21.2315 25.1752 21.5701C25.3892 21.9198 25.6755 22.2615 26.0673 22.6528M25.4766 32.6272C25.1451 32.2488 25.1646 31.6579 25.5218 31.3066C25.8789 30.9553 26.4365 30.976 26.768 31.3545L40.5549 47.1178C40.5685 47.1338 40.5821 47.1514 40.5956 47.1673C41.1637 47.8508 41.8102 48.1335 42.4311 48.1335C43.076 48.1335 43.712 47.838 44.2213 47.3717L44.2288 47.3653C44.2409 47.3542 44.2545 47.343 44.2665 47.3318L44.2695 47.3286C44.2816 47.3142 44.2951 47.3015 44.3072 47.2887L44.3102 47.2855C44.3268 47.2631 44.3464 47.2408 44.3645 47.2184C44.8 46.6882 45.0772 46.0255 45.0848 45.3516C45.0923 44.6873 44.8286 43.9926 44.1776 43.381L44.1701 43.373C44.1505 43.3554 44.1324 43.3363 44.1143 43.3155L31.4124 30.5816C31.0598 30.2286 31.0447 29.6394 31.3777 29.2657C31.7108 28.892 32.2668 28.876 32.6194 29.229L45.3214 41.9629C45.3214 41.9629 45.3304 41.9709 45.3349 41.9757L45.3425 41.9837C46.4199 42.9961 46.8554 44.1954 46.8434 45.366C46.8313 46.4711 46.4124 47.5314 45.7523 48.3666C45.7177 48.4257 45.6755 48.48 45.6273 48.5311C45.6032 48.5567 45.5836 48.5774 45.567 48.5934L45.5218 48.6397L45.4901 48.6732V48.6764C45.4675 48.6988 45.4464 48.7195 45.4253 48.7435C45.3786 48.793 45.3274 48.8345 45.2731 48.8697C44.4775 49.5627 43.4724 49.9971 42.4281 49.9987C41.3295 49.9987 40.2083 49.5308 39.268 48.397L39.262 48.3906L25.4751 32.6272H25.4766ZM0.206835 10.8866C-0.108113 10.4921 -0.0613986 9.90288 0.310814 9.57071C0.683026 9.23696 1.23908 9.28646 1.55253 9.6809L11.2225 21.7457C11.9202 22.5777 12.529 23.0488 13.1875 23.3299C13.8762 23.6253 14.6719 23.7435 15.6875 23.8537V23.8505C16.3973 23.9176 17.1206 23.9958 17.8138 24.0996C18.4995 24.2018 19.1249 24.328 19.6252 24.4893C20.0908 24.6394 20.353 25.16 20.2114 25.6518C20.0697 26.1453 19.5784 26.4232 19.1143 26.273C18.7225 26.1469 18.1845 26.0415 17.5727 25.9505C16.9669 25.861 16.2587 25.7844 15.5369 25.7173V25.7141C15.5369 25.7141 15.5293 25.7141 15.5263 25.7141C14.3524 25.588 13.4196 25.4442 12.532 25.0642C11.6128 24.6697 10.796 24.0517 9.90394 22.9897C9.90394 22.9897 9.8949 22.977 9.88887 22.9722L0.206835 10.8866Z" fill="#1B275F"/>
<path d="M6.19229 4.71774C5.84871 4.35205 5.85022 3.76118 6.19531 3.39708C6.54039 3.03298 7.09796 3.03458 7.44154 3.40027L19.1474 15.9314C19.491 16.2971 19.4895 16.888 19.1444 17.2521C18.7993 17.6162 18.2417 17.6146 17.8981 17.2489L6.19229 4.71774Z" fill="#1B275F"/>
<path d="M3.23526 7.81931C2.89168 7.45361 2.89319 6.86274 3.23828 6.49864C3.58336 6.13454 4.14093 6.13614 4.48451 6.50184L16.1904 19.0346C16.5339 19.4003 16.5324 19.9911 16.1873 20.3552C15.8423 20.7193 15.2847 20.7177 14.9411 20.352L3.23526 7.81931Z" fill="#283A8F"/>
<path d="M10.6544 49.9739C9.51219 50.0985 8.38501 49.6865 7.49592 48.9583C7.3829 48.8657 7.2955 48.7874 7.21412 48.7044C7.12823 48.6181 7.05288 48.5303 6.96548 48.4217C6.23612 47.5163 5.79158 46.3457 5.85336 45.132C5.90761 44.0669 6.3401 42.9906 7.29399 42.0595L26.0493 22.4811C26.0553 22.4747 26.0613 22.4684 26.0673 22.462C27.9842 20.5105 27.9932 19.7983 28.0203 17.7494C28.0294 17.0516 28.0399 16.2243 28.1032 15.2534C28.1605 14.3591 28.3187 13.4712 28.5658 12.6041C29.4579 9.4725 31.5149 6.56609 34.1671 4.50923C36.8283 2.4444 40.1014 1.22115 43.4167 1.45909C44.2952 1.52137 45.1737 1.68745 46.0417 1.96372C46.8223 2.21125 47.5004 2.62805 48.055 3.18538C48.6005 3.73472 49.0194 4.41661 49.2907 5.2039C49.2967 5.21987 49.3027 5.23584 49.3088 5.25181C49.6147 6.15887 49.8151 7.0803 49.9191 8.00652C50.3109 11.5006 49.3223 15.0266 47.5095 17.949C45.7027 20.8634 43.0701 23.1886 40.1677 24.2889C39.3615 24.5939 38.5327 24.8063 37.6918 24.9117C36.7605 25.0282 35.992 25.0809 35.344 25.1257C33.4257 25.2566 32.7491 25.3045 31.0342 27.3869C31.0221 27.4045 31.0086 27.4204 30.995 27.438L13.4634 48.3131H13.4619C12.6361 49.3543 11.6505 49.8606 10.659 49.9692M8.57187 47.4811C9.1234 47.9331 9.80454 48.1902 10.4751 48.1167C11.0417 48.0544 11.6189 47.7446 12.1252 47.1011C12.1312 47.0931 12.1373 47.0851 12.1448 47.0771H12.1433L29.6749 26.2004C29.6855 26.1876 29.696 26.1764 29.7066 26.1653C31.9037 23.4952 32.7687 23.4361 35.2325 23.2668C35.8413 23.2253 36.5646 23.1758 37.4839 23.0592C38.1876 22.9714 38.8868 22.7909 39.5725 22.5306C42.1192 21.5645 44.4384 19.5108 46.0387 16.9302C47.6331 14.3575 48.5056 11.2707 48.165 8.23009C48.0776 7.4444 47.9073 6.65871 47.6451 5.88419C47.6406 5.86982 47.6361 5.85545 47.6315 5.84267C47.4537 5.33006 47.1855 4.8909 46.8389 4.54277C46.4878 4.18825 46.0493 3.92156 45.5369 3.75868C44.7925 3.52073 44.0435 3.3802 43.2976 3.32591C40.4179 3.11831 37.5517 4.19943 35.2069 6.01834C32.8531 7.84363 31.0342 10.4003 30.2536 13.1407C30.0426 13.88 29.9085 14.6306 29.8603 15.3812C29.797 16.3792 29.7865 17.1362 29.7774 17.775C29.7428 20.4067 29.7307 21.3218 27.2865 23.8114H27.2849L8.50707 43.4153C8.49953 43.4233 8.49351 43.4297 8.48597 43.4361C7.9043 44.0046 7.64058 44.629 7.61044 45.2295C7.57428 45.9417 7.85005 46.6491 8.30213 47.2097C8.35035 47.2703 8.38953 47.315 8.4272 47.3534C8.46789 47.3949 8.5131 47.4348 8.57187 47.4827V47.4811Z" fill="#283A8F"/>
</g>
<defs>
<clipPath id="clip0_23711_58197">
<rect width="50" height="50" fill="white"/>
</clipPath>
</defs>
</svg>
