<svg width="32" height="32" viewBox="0 0 32 32" fill="none" xmlns="http://www.w3.org/2000/svg">
<path d="M13.6193 3.5H18.3793C18.4726 3.50113 18.5643 3.47593 18.6439 3.42728C18.7235 3.37864 18.7878 3.30853 18.8293 3.225L19.5943 2H12.4043L13.1443 3.185C13.185 3.27745 13.2514 3.35627 13.3356 3.41211C13.4198 3.46794 13.5183 3.49845 13.6193 3.5Z" fill="white"/>
<path d="M23.3591 23.187C23.0167 23.187 22.6804 23.0956 22.3851 22.9222C22.0898 22.7489 21.846 22.4998 21.6791 22.2008C21.421 22.1146 21.1693 22.0103 20.9259 21.8885C20.5968 21.9831 20.2484 21.9875 19.9171 21.9012C19.5858 21.8149 19.2838 21.6411 19.0427 21.3979L18.4083 20.7636C18.1625 20.5233 17.9869 20.2205 17.9005 19.8878C17.814 19.5551 17.82 19.2051 17.9177 18.8755C17.7976 18.6331 17.6933 18.3831 17.6055 18.1272C17.3072 17.9594 17.0587 17.7155 16.8855 17.4204C16.7122 17.1252 16.6204 16.7894 16.6193 16.4471V15.5551C16.618 15.2117 16.7088 14.8743 16.8823 14.5779C17.0557 14.2816 17.3055 14.0371 17.6055 13.8701C17.6942 13.6145 17.7985 13.3646 17.9177 13.1218C17.8245 12.7927 17.8208 12.4446 17.9071 12.1135C17.9933 11.7825 18.1664 11.4805 18.4083 11.2386L19.0427 10.6043C19.2207 10.4257 19.4323 10.2842 19.6654 10.188C19.8985 10.0919 20.1484 10.043 20.4006 10.0443C20.8399 10.1156 21.2903 10.0314 21.6742 9.80632C21.8401 9.50501 22.0842 9.25396 22.3807 9.07957C22.6772 8.90517 23.0152 8.81387 23.3592 8.81526H24.2512C24.2679 8.81445 24.2846 8.81612 24.3007 8.82024V3.61173C24.2996 3.21777 24.1426 2.84029 23.864 2.56172C23.5854 2.28316 23.2079 2.12615 22.814 2.125H20.6136L19.5432 3.82486C19.4187 4.06307 19.2304 4.26198 18.9994 4.39936C18.7683 4.53675 18.5037 4.6072 18.2349 4.60286H13.517C13.2399 4.60491 12.9679 4.52882 12.7321 4.38332C12.4963 4.23782 12.3063 4.02879 12.1839 3.78023L11.1382 2.125H8.9379C8.54395 2.12616 8.16647 2.28317 7.8879 2.56173C7.60934 2.84029 7.45233 3.21778 7.45117 3.61173V9.00363C8.40149 8.9353 9.3557 9.06349 10.2543 9.38021C11.1529 9.69693 11.9766 10.1954 12.674 10.8445C13.3715 11.4936 13.9277 12.2794 14.3081 13.153C14.6884 14.0266 14.8847 14.9691 14.8847 15.9219C14.8847 16.8747 14.6884 17.8172 14.3081 18.6908C13.9277 19.5643 13.3715 20.3502 12.674 20.9993C11.9766 21.6484 11.1529 22.1468 10.2543 22.4636C9.3557 22.7803 8.40149 22.9085 7.45117 22.8401V28.3905C7.45148 28.7847 7.60821 29.1627 7.88696 29.4414C8.16571 29.7202 8.54369 29.8769 8.9379 29.8772H22.814C23.2082 29.8769 23.5862 29.7202 23.8649 29.4414C24.1437 29.1627 24.3004 28.7847 24.3007 28.3905V23.182C24.2845 23.1861 24.2679 23.1878 24.2512 23.187H23.3591Z" fill="white"/>
<path d="M29.1979 14.6316C29.0668 14.1134 28.8597 13.6174 28.5834 13.1597C28.721 12.9808 28.7888 12.758 28.7742 12.5328C28.7596 12.3076 28.6636 12.0954 28.5041 11.9357L27.8697 11.3063C27.7116 11.1463 27.5005 11.0494 27.2761 11.0339C27.0516 11.0184 26.8293 11.0853 26.6506 11.2221C26.1906 10.9481 25.6931 10.7427 25.1738 10.6125C25.1449 10.3887 25.0353 10.1831 24.8656 10.0344C24.6959 9.88565 24.4777 9.80398 24.2521 9.80469H23.36C23.1343 9.80387 22.9161 9.8855 22.7464 10.0343C22.5766 10.183 22.4671 10.3886 22.4383 10.6125C21.9189 10.7427 21.4214 10.9481 20.9615 11.2221C20.7828 11.0852 20.5604 11.0183 20.336 11.0338C20.1115 11.0493 19.9004 11.1462 19.7423 11.3063L19.108 11.9357C18.9486 12.0944 18.8526 12.3058 18.838 12.5303C18.8234 12.7547 18.8912 12.9768 19.0287 13.1548C18.7531 13.6146 18.5461 14.1121 18.4142 14.6316C18.1912 14.6615 17.9868 14.7715 17.839 14.9412C17.6913 15.1108 17.6103 15.3284 17.6114 15.5534V16.4454C17.6096 16.6706 17.6902 16.8886 17.8381 17.0584C17.986 17.2282 18.1909 17.3381 18.4142 17.3672C18.5461 17.8867 18.7531 18.3842 19.0287 18.844C18.8911 19.022 18.8233 19.2441 18.8379 19.4685C18.8525 19.693 18.9485 19.9044 19.108 20.0631L19.7423 20.6975C19.9004 20.8575 20.1115 20.9543 20.336 20.9698C20.5604 20.9853 20.7828 20.9185 20.9614 20.7817C21.4214 21.0557 21.9189 21.261 22.4383 21.3912C22.4674 21.6145 22.5772 21.8194 22.747 21.9673C22.9168 22.1152 23.1348 22.1959 23.36 22.1941H24.2521C24.477 22.1951 24.6946 22.1141 24.8643 21.9664C25.0339 21.8187 25.1439 21.6142 25.1738 21.3912C25.6931 21.261 26.1906 21.0557 26.6506 20.7817C26.8292 20.9185 27.0516 20.9855 27.2761 20.97C27.5006 20.9544 27.7116 20.8575 27.8697 20.6975L28.5041 20.0631C28.6635 19.9044 28.7596 19.693 28.7742 19.4685C28.7888 19.2441 28.7209 19.022 28.5834 18.844C28.8589 18.3842 29.0659 17.8867 29.1979 17.3672C29.4212 17.3381 29.6261 17.2282 29.774 17.0584C29.9219 16.8886 30.0025 16.6706 30.0007 16.4454V15.5534C30.0017 15.3284 29.9208 15.1108 29.7731 14.9412C29.6253 14.7715 29.4209 14.6615 29.1979 14.6316ZM23.806 19.2206C22.952 19.2197 22.1332 18.88 21.5293 18.2761C20.9254 17.6722 20.5857 16.8534 20.5848 15.9994C20.7359 11.736 26.8768 11.7371 27.0273 15.9994C27.0264 16.8535 26.6867 17.6723 26.0828 18.2761C25.4789 18.88 24.6601 19.2197 23.806 19.2206Z" fill="white"/>
<path d="M5.85547 14.2606C5.86028 14.812 6.08274 15.3393 6.4744 15.7276C6.86607 16.1158 7.39525 16.3337 7.94675 16.3337C8.49825 16.3337 9.02743 16.1159 9.41911 15.7276C9.81079 15.3394 10.0333 14.8121 10.0381 14.2606C10.0333 13.7091 9.81082 13.1819 9.41915 12.7936C9.02749 12.4054 8.49831 12.1875 7.94681 12.1875C7.39531 12.1875 6.86612 12.4053 6.47445 12.7936C6.08277 13.1818 5.8603 13.7091 5.85547 14.2606Z" fill="white"/>
<path d="M6.11829 16.7392C5.5955 16.354 5.20765 15.8137 5.01005 15.1951C4.81246 14.5766 4.81521 13.9114 5.01791 13.2945C5.2206 12.6776 5.6129 12.1405 6.13887 11.7597C6.66483 11.3789 7.29759 11.1738 7.94694 11.1738C8.59628 11.1738 9.22905 11.3789 9.75501 11.7597C10.281 12.1405 10.6733 12.6776 10.876 13.2945C11.0787 13.9114 11.0814 14.5766 10.8838 15.1951C10.6862 15.8137 10.2984 16.354 9.77558 16.7392L11.5894 17.3437C11.9351 17.461 12.2532 17.6476 12.5242 17.8922C12.7952 18.1368 13.0133 18.4341 13.1653 18.766C13.6449 17.893 13.8956 16.9126 13.8938 15.9165C13.5707 8.02924 2.32451 8.02644 2.00001 15.9165C1.99826 16.9126 2.24889 17.893 2.72851 18.7661C2.88049 18.4342 3.09867 18.1368 3.36966 17.8922C3.64066 17.6476 3.95876 17.461 4.30445 17.3437L6.11829 16.7392Z" fill="white"/>
<path d="M12.4167 19.828C12.4073 19.4847 12.2924 19.1526 12.0875 18.8768C11.8827 18.6011 11.598 18.3951 11.272 18.2868C10.0662 17.9496 8.24024 16.9798 6.9704 17.5038L4.6164 18.2868C4.29151 18.3961 4.008 18.6025 3.80416 18.8781C3.60032 19.1537 3.48598 19.4852 3.47656 19.8279C5.67709 22.5109 10.2158 22.511 12.4167 19.828Z" fill="white"/>
</svg>
