<svg width="50" height="50" viewBox="0 0 50 50" fill="none" xmlns="http://www.w3.org/2000/svg">
<g clip-path="url(#clip0_23711_58291)">
<path d="M29.1016 43.75H20.8984C20.743 43.75 20.594 43.8117 20.4841 43.9216C20.3742 44.0315 20.3125 44.1805 20.3125 44.3359C20.3125 44.4913 20.3742 44.6404 20.4841 44.7503C20.594 44.8601 20.743 44.9219 20.8984 44.9219H29.1016C29.257 44.9219 29.406 44.8601 29.5159 44.7503C29.6258 44.6404 29.6875 44.4913 29.6875 44.3359C29.6875 44.1805 29.6258 44.0315 29.5159 43.9216C29.406 43.8117 29.257 43.75 29.1016 43.75Z" fill="#1B275F"/>
<path d="M41.1617 24.227C42.8514 24.22 44.5032 23.7253 45.9185 22.8022C47.3339 21.8791 48.4526 20.567 49.1402 19.0234C51.4031 14.0164 48.2855 7.96328 42.8941 6.88398C42.0189 6.70753 41.1219 6.66499 40.2339 6.75781V5.27344C40.2324 3.87531 39.6763 2.53489 38.6877 1.54627C37.699 0.557642 36.3586 0.00155089 34.9605 0L15.0386 0C13.6405 0.00155089 12.3001 0.557642 11.3114 1.54627C10.3228 2.53489 9.76673 3.87531 9.76518 5.27344V15.8504C3.80697 16.7309 -0.57506 22.7633 0.170644 28.7578C0.791347 33.75 4.81478 38.0652 9.76518 38.859V44.7266C9.76673 46.1247 10.3228 47.4651 11.3114 48.4537C12.3001 49.4424 13.6405 49.9984 15.0386 50H34.9605C35.967 50.0009 36.9526 49.7129 37.8001 49.1701C38.6477 48.6272 39.3216 47.8525 39.7417 46.9379C40.7181 47.2433 41.7454 47.3521 42.7641 47.258C43.7828 47.1639 44.7727 46.8688 45.6767 46.3897C46.5806 45.9106 47.3805 45.257 48.0303 44.4668C48.68 43.6766 49.1667 42.7654 49.4621 41.7859C49.8515 40.4715 49.8925 39.0785 49.5813 37.7434C49.27 36.4084 48.6171 35.1771 47.6866 34.1704C46.7561 33.1638 45.5798 32.4162 44.2733 32.0012C42.9668 31.5861 41.5748 31.5177 40.2339 31.8027V24.1746C40.542 24.2085 40.8517 24.226 41.1617 24.227ZM31.7574 1.17188L30.8199 2.92148C30.6196 3.32358 30.314 3.66384 29.9357 3.90604C29.5574 4.14824 29.1204 4.28331 28.6714 4.29688H21.3277C20.8794 4.28271 20.4433 4.14735 20.0657 3.90517C19.6882 3.663 19.3833 3.32306 19.1835 2.92148L18.2437 1.17188H31.7574ZM6.21322 36.2695C4.88211 35.4369 3.75343 34.3179 2.90936 32.994C2.06529 31.67 1.52709 30.1746 1.33392 28.6164C0.542128 22.4391 5.58783 16.8309 11.7663 16.8398C15.8874 16.8461 19.9695 19.5352 21.4976 23.3961C21.5891 23.6216 21.7262 23.8257 21.9004 23.9957C22.0746 24.1656 22.282 24.2977 22.5097 24.3836C23.6682 24.8518 24.9071 25.0892 26.1566 25.0824C26.2893 25.0831 26.4191 25.1211 26.5311 25.1922C26.6431 25.2633 26.7328 25.3645 26.7899 25.4842C26.847 25.604 26.8692 25.7374 26.8539 25.8692C26.8386 26.001 26.7865 26.1258 26.7035 26.2293C25.3695 27.7918 24.0632 28.9316 22.6183 29.6406C22.4125 29.7415 22.2288 29.8822 22.0778 30.0546C21.9268 30.227 21.8115 30.4277 21.7386 30.6449C21.24 32.1546 20.4052 33.5315 19.2971 34.6717C18.189 35.8119 16.8366 36.6857 15.3418 37.2273C13.8469 37.7689 12.2487 37.9641 10.6674 37.7983C9.08616 37.6325 7.56317 37.1095 6.21322 36.2695ZM34.9605 48.8281H15.0386C13.9512 48.8269 12.9087 48.3944 12.1397 47.6254C11.3708 46.8565 10.9383 45.814 10.9371 44.7266V39.009C11.2132 39.0285 11.4894 39.0395 11.7652 39.0391C14.2216 39.0339 16.6141 38.2559 18.6038 36.8153C20.5935 35.3747 22.0794 33.3446 22.8511 31.0125C22.8749 30.9431 22.9122 30.8791 22.9609 30.8242C23.0096 30.7693 23.0686 30.7245 23.1347 30.6926C24.8693 29.7784 26.3934 28.5116 27.6093 26.9734C27.8302 26.6974 27.969 26.3649 28.0099 26.0138C28.0508 25.6627 27.9922 25.3071 27.8407 24.9877C27.6892 24.6684 27.451 24.398 27.1532 24.2075C26.8554 24.017 26.5101 23.9141 26.1566 23.9105C25.0509 23.9117 23.9553 23.7006 22.9292 23.2887C22.8522 23.2597 22.782 23.2152 22.7228 23.158C22.6636 23.1009 22.6168 23.0322 22.5851 22.9563C20.8288 18.3668 15.7808 15.259 10.9371 15.7086V5.27344C10.9383 4.18602 11.3708 3.14349 12.1397 2.37457C12.9087 1.60564 13.9512 1.17312 15.0386 1.17188H16.9136L18.1496 3.47656C18.4495 4.06505 18.9036 4.56114 19.4632 4.91197C20.0229 5.26279 20.6673 5.45522 21.3277 5.46875H28.6714C29.3316 5.45507 29.9757 5.26256 30.5351 4.91173C31.0945 4.56091 31.5482 4.0649 31.848 3.47656L33.0855 1.17188H34.9605C36.0479 1.17312 37.0904 1.60564 37.8594 2.37457C38.6283 3.14349 39.0608 4.18602 39.0621 5.27344V6.96016C36.8501 7.50043 34.9357 8.8813 33.7251 10.8098C32.5145 12.7382 32.1029 15.0625 32.5777 17.2895C32.5856 17.328 32.5855 17.3678 32.5773 17.4064C32.569 17.4449 32.553 17.4813 32.53 17.5133C32.0865 18.174 31.519 18.7423 30.8589 19.1867C30.6221 19.3523 30.4363 19.5809 30.3227 19.8466C30.2091 20.1123 30.1722 20.4046 30.2161 20.6902C30.2601 20.9758 30.3832 21.2434 30.5714 21.4627C30.7596 21.682 31.0055 21.8442 31.2812 21.9309C32.68 22.3688 34.1541 22.5132 35.6113 22.3551C35.6444 22.3502 35.6781 22.3519 35.7106 22.3601C35.743 22.3682 35.7735 22.3827 35.8003 22.4027C36.7662 23.1472 37.8773 23.6812 39.0621 23.9703V32.1605C37.5024 32.7665 36.1849 33.8678 35.3121 35.2953C35.2991 35.3158 35.2819 35.3333 35.2617 35.3468C35.2415 35.3602 35.2188 35.3693 35.1949 35.3734C34.5143 35.518 33.812 35.5288 33.1273 35.4051C32.8621 35.3621 32.5902 35.3947 32.3428 35.4992C32.0953 35.6036 31.8823 35.7758 31.7282 35.9958C31.5741 36.2158 31.4851 36.4748 31.4715 36.743C31.4578 37.0113 31.5201 37.278 31.6511 37.5125C32.2876 38.662 33.1515 39.6698 34.1902 40.4746C34.2269 40.5003 34.2519 40.5395 34.2597 40.5836C34.4631 41.8507 34.9682 43.0503 35.7323 44.0813C36.4964 45.1123 37.4972 45.9446 38.6503 46.5078C38.3169 47.2034 37.7935 47.7904 37.1406 48.201C36.4876 48.6116 35.7318 48.829 34.9605 48.8281ZM47.4171 35.7031C47.9922 36.5303 48.3737 37.4763 48.5334 38.471C48.6931 39.4657 48.6269 40.4836 48.3398 41.4492C48.0548 42.3863 47.5648 43.2482 46.9053 43.9723C46.2458 44.6964 45.4333 45.2645 44.5269 45.6355C40.6507 47.2617 36.0265 44.5633 35.4156 40.4039C35.388 40.2296 35.3262 40.0624 35.2337 39.912C35.1413 39.7617 35.02 39.6311 34.8769 39.5277C33.9515 38.8423 33.1954 37.9539 32.6667 36.9309C32.639 36.8907 32.6242 36.843 32.6241 36.7942C32.6241 36.7454 32.6389 36.6977 32.6665 36.6575C32.6942 36.6173 32.7334 36.5864 32.779 36.5689C32.8246 36.5515 32.8744 36.5483 32.9218 36.5598C33.7487 36.6948 34.5928 36.683 35.4156 36.525C35.5992 36.4899 35.7735 36.4169 35.9274 36.3108C36.0814 36.2047 36.2115 36.0677 36.3097 35.9086C37.0403 34.7173 38.1351 33.7929 39.432 33.2723C40.8416 32.7138 42.399 32.6501 43.8495 33.0917C45.3 33.5332 46.5578 34.4539 47.4171 35.7031ZM39.3667 22.8391C38.3307 22.5901 37.3589 22.125 36.5152 21.4742C36.3646 21.3594 36.1927 21.2757 36.0096 21.2277C35.8264 21.1798 35.6355 21.1686 35.448 21.1949C34.1567 21.3547 32.846 21.2221 31.6128 20.807C31.5452 20.7893 31.4843 20.7521 31.4376 20.7C31.3909 20.648 31.3605 20.5834 31.3502 20.5143C31.3398 20.4451 31.35 20.3745 31.3794 20.3111C31.4088 20.2476 31.4561 20.1942 31.5156 20.1574C32.2857 19.6227 32.9544 18.9549 33.4902 18.1855C33.6054 18.0215 33.6856 17.8355 33.7259 17.6392C33.7663 17.4428 33.7658 17.2403 33.7246 17.0441C33.4623 15.8129 33.5106 14.5357 33.8652 13.3278C34.2197 12.1199 34.8693 11.0193 35.7554 10.1251C36.6415 9.23092 37.7363 8.57136 38.9409 8.20589C40.1456 7.84042 41.4222 7.78054 42.6558 8.03164C43.642 8.23358 44.5782 8.62981 45.4097 9.19723C46.2412 9.76466 46.9515 10.4919 47.4991 11.3367C48.0467 12.1814 48.4206 13.1267 48.5992 14.1174C48.7777 15.1081 48.7572 16.1244 48.539 17.1072C48.3207 18.0899 47.909 19.0194 47.3279 19.8414C46.7467 20.6634 46.0078 21.3615 45.1541 21.895C44.3004 22.4285 43.3491 22.7867 42.3555 22.9488C41.362 23.1109 40.3457 23.0736 39.3667 22.8391Z" fill="#1B275F"/>
<path d="M45.8716 14.4191C45.8729 13.6543 45.5711 12.9201 45.0323 12.3774C44.4934 11.8346 43.7614 11.5276 42.9966 11.5234C42.3475 11.5218 41.7174 11.7423 41.211 12.1484C40.7047 11.7423 40.0746 11.5218 39.4255 11.5234C38.6631 11.526 37.9327 11.8304 37.394 12.3699C36.8554 12.9095 36.5522 13.6403 36.5509 14.4027C36.49 16.5688 37.7802 18.4176 40.3849 19.8988C40.6369 20.0412 40.9214 20.116 41.2108 20.116C41.5003 20.116 41.7848 20.0412 42.0368 19.8988C44.6415 18.4168 45.9321 16.5688 45.8716 14.4191ZM40.9642 18.8805C38.7341 17.6125 37.6735 16.1586 37.722 14.4191C37.7197 13.9648 37.8977 13.5282 38.217 13.205C38.5363 12.8818 38.9708 12.6985 39.4251 12.6953C39.6805 12.6951 39.9326 12.7529 40.1624 12.8644C40.3921 12.9759 40.5935 13.1383 40.7513 13.3391C40.8082 13.4052 40.8787 13.4582 40.958 13.4945C41.0373 13.5309 41.1234 13.5497 41.2107 13.5497C41.2979 13.5497 41.3841 13.5309 41.4633 13.4945C41.5426 13.4582 41.6131 13.4052 41.67 13.3391C41.8278 13.1383 42.0292 12.9759 42.259 12.8644C42.4887 12.7529 42.7408 12.6951 42.9962 12.6953C43.2224 12.6973 43.4461 12.7439 43.6542 12.8326C43.8624 12.9212 44.0511 13.05 44.2093 13.2117C44.3676 13.3734 44.4924 13.5647 44.5765 13.7747C44.6607 13.9848 44.7026 14.2093 44.6997 14.4356C44.7482 16.1586 43.6876 17.6125 41.4575 18.8805C41.3823 18.923 41.2973 18.9454 41.2108 18.9454C41.1244 18.9454 41.0394 18.923 40.9642 18.8805Z" fill="#1B275F"/>
<path d="M14.2578 33.0591C15.3452 33.0578 16.3878 32.6253 17.1567 31.8564C17.9256 31.0874 18.3581 30.0449 18.3594 28.9575V27.7856C18.3582 26.8234 18.0193 25.8922 17.4018 25.1542C16.7843 24.4163 15.9274 23.9185 14.9805 23.7477C15.0824 23.318 15.2035 22.8294 15.2742 22.6149C15.6383 21.5028 14.8762 19.8145 13.8184 19.3888C13.2543 19.1614 12.4824 19.2716 12.0059 20.2626C11.4102 21.5337 10.7875 23.3669 9.75937 24.3434C9.59635 24.1387 9.38943 23.9731 9.15388 23.859C8.91834 23.7449 8.66017 23.6851 8.39844 23.6841H6.83594C6.36974 23.6841 5.92263 23.8693 5.59298 24.1989C5.26332 24.5286 5.07812 24.9757 5.07812 25.4419V31.3013C5.07864 31.7673 5.26401 32.2141 5.59355 32.5436C5.92309 32.8732 6.3699 33.0585 6.83594 33.0591H8.39844C8.68449 33.0588 8.96616 32.9887 9.21898 32.8548C9.4718 32.721 9.68814 32.5275 9.84922 32.2911L10.7664 32.7497C11.1735 32.9526 11.6221 33.0585 12.077 33.0591H14.2578ZM8.98438 31.3013C8.98438 31.4567 8.92264 31.6057 8.81276 31.7156C8.70287 31.8255 8.55384 31.8872 8.39844 31.8872H6.83594C6.68054 31.8872 6.5315 31.8255 6.42162 31.7156C6.31173 31.6057 6.25 31.4567 6.25 31.3013V25.4419C6.25 25.2865 6.31173 25.1374 6.42162 25.0276C6.5315 24.9177 6.68054 24.8559 6.83594 24.8559H8.39844C8.55384 24.8559 8.70287 24.9177 8.81276 25.0276C8.92264 25.1374 8.98438 25.2865 8.98438 25.4419V31.3013ZM10.1562 31.1341V25.5216C11.6137 24.5032 12.3406 22.3337 13.0617 20.7704C13.2324 20.4161 13.3352 20.4579 13.3809 20.4755C13.8254 20.6587 14.343 21.6927 14.1621 22.2497C14.0059 22.7208 13.7008 24.0856 13.6879 24.1415C13.6693 24.227 13.67 24.3156 13.69 24.4008C13.7099 24.486 13.7486 24.5657 13.8031 24.6341C13.8577 24.7025 13.9268 24.7579 14.0055 24.7963C14.0841 24.8347 14.1703 24.855 14.2578 24.8559C15.0346 24.8568 15.7793 25.1657 16.3285 25.7149C16.8777 26.2642 17.1867 27.0089 17.1875 27.7856V28.9575C17.1867 29.7342 16.8777 30.4789 16.3285 31.0282C15.7793 31.5774 15.0346 31.8864 14.2578 31.8872H12.077C11.804 31.887 11.5348 31.8233 11.2906 31.7013L10.1562 31.1341Z" fill="#1B275F"/>
<path d="M38.6719 38.0835C38.6719 38.2389 38.7336 38.3879 38.8435 38.4978C38.9534 38.6077 39.1024 38.6694 39.2578 38.6694H40.4094L39.991 40.2319H38.8672C38.7118 40.2319 38.5628 40.2936 38.4529 40.4035C38.343 40.5134 38.2812 40.6624 38.2812 40.8178C38.2812 40.9732 38.343 41.1223 38.4529 41.2321C38.5628 41.342 38.7118 41.4038 38.8672 41.4038H39.677L39.3793 42.5147C39.3594 42.5891 39.3543 42.6667 39.3643 42.743C39.3744 42.8194 39.3994 42.893 39.4379 42.9597C39.4764 43.0264 39.5277 43.0848 39.5887 43.1317C39.6498 43.1786 39.7196 43.2129 39.7939 43.2329C39.8683 43.2528 39.9459 43.2579 40.0223 43.2478C40.0986 43.2378 40.1722 43.2128 40.2389 43.1743C40.3056 43.1358 40.364 43.0845 40.4109 43.0234C40.4578 42.9623 40.4922 42.8926 40.5121 42.8182L40.891 41.4038H42.4387L42.1457 42.4975C42.1258 42.5719 42.1207 42.6495 42.1307 42.7258C42.1408 42.8022 42.1658 42.8758 42.2043 42.9425C42.2428 43.0092 42.2941 43.0676 42.3552 43.1145C42.4162 43.1614 42.486 43.1958 42.5604 43.2157C42.6347 43.2356 42.7123 43.2407 42.7887 43.2306C42.865 43.2206 42.9386 43.1956 43.0053 43.1571C43.072 43.1186 43.1304 43.0673 43.1773 43.0062C43.2242 42.9451 43.2586 42.8754 43.2785 42.801L43.6531 41.4038H45.1172C45.2726 41.4038 45.4216 41.342 45.5315 41.2321C45.6414 41.1223 45.7031 40.9732 45.7031 40.8178C45.7031 40.6624 45.6414 40.5134 45.5315 40.4035C45.4216 40.2936 45.2726 40.2319 45.1172 40.2319H43.9656L44.384 38.6694H45.5078C45.6632 38.6694 45.8122 38.6077 45.9221 38.4978C46.032 38.3879 46.0938 38.2389 46.0938 38.0835C46.0938 37.9281 46.032 37.779 45.9221 37.6691C45.8122 37.5592 45.6632 37.4975 45.5078 37.4975H44.698L44.9957 36.3866C45.0156 36.3122 45.0207 36.2346 45.0107 36.1583C45.0006 36.0819 44.9756 36.0083 44.9371 35.9416C44.8986 35.8749 44.8473 35.8165 44.7863 35.7696C44.7252 35.7227 44.6554 35.6883 44.5811 35.6684C44.5067 35.6485 44.4291 35.6434 44.3527 35.6535C44.2764 35.6635 44.2028 35.6885 44.1361 35.727C44.0694 35.7655 44.011 35.8168 43.9641 35.8779C43.9172 35.939 43.8828 36.0087 43.8629 36.0831L43.4848 37.4975H41.9371L42.2301 36.4038C42.25 36.3294 42.2551 36.2518 42.245 36.1755C42.235 36.0991 42.21 36.0255 42.1715 35.9588C42.133 35.8921 42.0817 35.8337 42.0206 35.7868C41.9595 35.7399 41.8898 35.7055 41.8154 35.6856C41.741 35.6657 41.6635 35.6606 41.5871 35.6706C41.5108 35.6807 41.4372 35.7057 41.3705 35.7442C41.3038 35.7827 41.2453 35.834 41.1985 35.895C41.1516 35.9561 41.1172 36.0259 41.0973 36.1002L40.7234 37.4975H39.2578C39.1024 37.4975 38.9534 37.5592 38.8435 37.6691C38.7336 37.779 38.6719 37.9281 38.6719 38.0835ZM41.623 38.6694H43.1707L42.752 40.2319H41.2043L41.623 38.6694Z" fill="#1B275F"/>
</g>
<defs>
<clipPath id="clip0_23711_58291">
<rect width="50" height="50" fill="white"/>
</clipPath>
</defs>
</svg>
