<svg width="50" height="50" viewBox="0 0 50 50" fill="none" xmlns="http://www.w3.org/2000/svg">
<path d="M11.666 32.9141C8.9085 32.9141 6.66602 35.1565 6.66602 37.9141C6.66602 40.6716 8.9085 42.9141 11.666 42.9141C14.4235 42.9141 16.666 40.6716 16.666 37.9141C16.666 35.1565 14.4234 32.9141 11.666 32.9141ZM11.666 41.2474C9.82764 41.2474 8.33272 39.7523 8.33272 37.9141C8.33272 36.0757 9.82773 34.5808 11.666 34.5808C13.5043 34.5808 14.9993 36.0758 14.9993 37.9141C14.9993 39.7523 13.5043 41.2474 11.666 41.2474Z" fill="#1B275F"/>
<path d="M40 32.9141C37.2425 32.9141 35 35.1565 35 37.9141C35 40.6716 37.2425 42.9141 40 42.9141C42.7575 42.9141 45 40.6716 45 37.9141C45 35.1565 42.7575 32.9141 40 32.9141ZM40 41.2474C38.1616 41.2474 36.6667 39.7523 36.6667 37.9141C36.6667 36.0757 38.1617 34.5808 40 34.5808C41.8384 34.5808 43.3333 36.0758 43.3333 37.9141C43.3333 39.7523 41.8384 41.2474 40 41.2474Z" fill="#1B275F"/>
<path d="M49.8668 28.2992L42.3668 16.6325C42.2135 16.3941 41.9493 16.25 41.6659 16.25H32.4993C32.0385 16.25 31.666 16.6233 31.666 17.0833V37.9166C31.666 38.3774 32.0385 38.7499 32.4993 38.7499H35.8326V37.0832H33.3326V17.9167H41.2109L48.3326 28.995V37.0834H44.1659V38.75H49.1659C49.6268 38.75 49.9992 38.3775 49.9992 37.9167V28.75C49.9993 28.5908 49.9535 28.4333 49.8668 28.2992Z" fill="#1B275F"/>
<path d="M36.6666 27.0859V21.2526H43.3333V19.5859H35.8333C35.3725 19.5859 35 19.9593 35 20.4192V27.9192C35 28.3801 35.3725 28.7525 35.8333 28.7525H48.3333V27.0858H36.6666V27.0859Z" fill="#1B275F"/>
<path d="M32.5 10.4141H0.833301C0.37334 10.4141 0 10.7874 0 11.2474V37.9141C0 38.3749 0.37334 38.7474 0.833301 38.7474H7.5V37.0807H1.6667V12.0807H31.6667V37.0807H15.8333V38.7474H32.5C32.9608 38.7474 33.3333 38.3749 33.3333 37.9141V11.2474C33.3333 10.7874 32.9608 10.4141 32.5 10.4141Z" fill="#1B275F"/>
<path d="M5.83398 33.75H0.833984V35.4167H5.83398V33.75Z" fill="#1B275F"/>
<path d="M31.6667 33.75H17.5V35.4167H31.6667V33.75Z" fill="#1B275F"/>
<path d="M49.1673 33.75H45.834V35.4167H49.1673V33.75Z" fill="#1B275F"/>
<path d="M32.5007 13.75H3.33398V15.4167H32.5007V13.75Z" fill="#1B275F"/>
<path d="M12.5007 37.0859H10.834V38.7526H12.5007V37.0859Z" fill="#1B275F"/>
<path d="M40.8327 37.0859H39.166V38.7526H40.8327V37.0859Z" fill="#1B275F"/>
<path d="M15.0007 7.08594H3.33398V8.75264H15.0007V7.08594Z" fill="#1B275F"/>
<path d="M1.6667 7.08594H0V8.75264H1.6667V7.08594Z" fill="#1B275F"/>
</svg>
