<svg width="93" height="31" viewBox="0 0 93 31" fill="none" xmlns="http://www.w3.org/2000/svg">
<path d="M12.2448 0.397738V29.4886H6.97488V5.52558H6.80442L0.000443906 9.87217V5.04262L7.23056 0.397738H12.2448ZM29.7448 29.8864C27.8508 29.8864 26.1557 29.5313 24.6595 28.821C23.1633 28.1013 21.9749 27.1165 21.0942 25.8665C20.223 24.6165 19.759 23.1866 19.7021 21.5767H24.8158C24.9105 22.7699 25.4266 23.7453 26.3641 24.5029C27.3016 25.251 28.4285 25.625 29.7448 25.625C30.777 25.625 31.6955 25.3883 32.5004 24.9148C33.3054 24.4413 33.9398 23.7832 34.4039 22.9404C34.8679 22.0975 35.0951 21.1364 35.0857 20.0568C35.0951 18.9583 34.8631 17.983 34.3896 17.1307C33.9162 16.2784 33.2675 15.6108 32.4436 15.1279C31.6198 14.6354 30.6728 14.3892 29.6027 14.3892C28.7315 14.3797 27.8745 14.5407 27.0317 14.8722C26.1889 15.2036 25.5213 15.6392 25.0289 16.179L20.2703 15.3977L21.7902 0.397738H38.6652V4.80115H26.151L25.3129 12.5142H25.4834C26.0232 11.8797 26.7855 11.3542 27.7703 10.9375C28.7552 10.5114 29.8347 10.2983 31.009 10.2983C32.7703 10.2983 34.3423 10.715 35.7249 11.5483C37.1075 12.3722 38.1965 13.5085 38.9919 14.9574C39.7874 16.4063 40.1851 18.0635 40.1851 19.929C40.1851 21.8513 39.74 23.5654 38.8499 25.071C37.9692 26.5672 36.7429 27.7462 35.1709 28.608C33.6084 29.4602 31.7997 29.8864 29.7448 29.8864ZM55.6965 30.0426C53.3575 30.0426 51.3499 29.4508 49.6737 28.2671C48.0071 27.0739 46.7239 25.3551 45.8243 23.1108C44.9342 20.857 44.4891 18.1439 44.4891 14.9716C44.4985 11.7993 44.9484 9.10039 45.8385 6.87501C46.7381 4.64016 48.0213 2.93562 49.6879 1.76137C51.3641 0.587132 53.3669 1.00136e-05 55.6965 1.00136e-05C58.026 1.00136e-05 60.0289 0.587132 61.705 1.76137C63.3811 2.93562 64.6643 4.64016 65.5544 6.87501C66.454 9.10986 66.9039 11.8087 66.9039 14.9716C66.9039 18.1534 66.454 20.8712 65.5544 23.125C64.6643 25.3693 63.3811 27.0833 61.705 28.2671C60.0383 29.4508 58.0355 30.0426 55.6965 30.0426ZM55.6965 25.5966C57.5146 25.5966 58.9493 24.7017 60.0004 22.9119C61.0611 21.1127 61.5914 18.4659 61.5914 14.9716C61.5914 12.661 61.3499 10.7197 60.8669 9.14774C60.384 7.57577 59.7021 6.39206 58.8215 5.5966C57.9408 4.79168 56.8991 4.38921 55.6965 4.38921C53.8878 4.38921 52.4578 5.28884 51.4067 7.08808C50.3556 8.87785 49.8253 11.5057 49.8158 14.9716C49.8063 17.2917 50.0383 19.2424 50.5118 20.8239C50.9948 22.4053 51.6766 23.5985 52.5573 24.4034C53.4379 25.1989 54.4843 25.5966 55.6965 25.5966ZM80.2597 24.8296V5.17046H84.7199V24.8296H80.2597ZM72.6602 17.2301V12.7699H92.3193V17.2301H72.6602Z" fill="url(#paint0_linear_9919_9884)"/>
<defs>
<linearGradient id="paint0_linear_9919_9884" x1="31.3284" y1="-5.14087" x2="29.2235" y2="29.4305" gradientUnits="userSpaceOnUse">
<stop stop-color="#4361EE"/>
<stop offset="1" stop-color="white"/>
</linearGradient>
</defs>
</svg>
