<svg width="73" height="31" viewBox="0 0 73 31" fill="none" xmlns="http://www.w3.org/2000/svg">
<path d="M0.170433 29.4886V25.6818L10.2699 15.7813C11.2358 14.8059 12.0407 13.9394 12.6846 13.1818C13.3286 12.4243 13.8115 11.6904 14.1335 10.9801C14.4555 10.2699 14.6165 9.51232 14.6165 8.7074C14.6165 7.78884 14.4081 7.00285 13.9915 6.34944C13.5748 5.68656 13.0019 5.1752 12.2727 4.81535C11.5435 4.4555 10.7149 4.27558 9.78691 4.27558C8.83047 4.27558 7.9924 4.47444 7.27271 4.87217C6.55301 5.26043 5.9943 5.8144 5.59657 6.5341C5.20831 7.2538 5.01418 8.11081 5.01418 9.10512H-2.21133e-05C-2.21133e-05 7.25853 0.421379 5.65342 1.26418 4.28978C2.10699 2.92615 3.26702 1.87028 4.7443 1.12217C6.23104 0.374063 7.93558 1.00136e-05 9.85793 1.00136e-05C11.8087 1.00136e-05 13.5227 0.364593 15 1.09376C16.4773 1.82293 17.6231 2.82198 18.4375 4.09092C19.2613 5.35986 19.6733 6.80872 19.6733 8.43751C19.6733 9.52653 19.4649 10.5966 19.0483 11.6477C18.6316 12.6989 17.8977 13.8636 16.8466 15.1421C15.8049 16.4205 14.3418 17.9688 12.4574 19.7869L7.44316 24.8864V25.0852H20.1136V29.4886H0.170433ZM35.767 30.0426C33.428 30.0426 31.4204 29.4508 29.7443 28.2671C28.0776 27.0739 26.7945 25.3551 25.8949 23.1108C25.0047 20.857 24.5596 18.1439 24.5596 14.9716C24.5691 11.7993 25.0189 9.10039 25.9091 6.87501C26.8087 4.64016 28.0918 2.93562 29.7585 1.76137C31.4346 0.587132 33.4375 1.00136e-05 35.767 1.00136e-05C38.0966 1.00136e-05 40.0994 0.587132 41.7755 1.76137C43.4517 2.93562 44.7348 4.64016 45.625 6.87501C46.5246 9.10986 46.9744 11.8087 46.9744 14.9716C46.9744 18.1534 46.5246 20.8712 45.625 23.125C44.7348 25.3693 43.4517 27.0833 41.7755 28.2671C40.1089 29.4508 38.106 30.0426 35.767 30.0426ZM35.767 25.5966C37.5852 25.5966 39.0199 24.7017 40.071 22.9119C41.1316 21.1127 41.6619 18.4659 41.6619 14.9716C41.6619 12.661 41.4204 10.7197 40.9375 9.14774C40.4545 7.57577 39.7727 6.39206 38.892 5.5966C38.0113 4.79168 36.9697 4.38921 35.767 4.38921C33.9583 4.38921 32.5284 5.28884 31.4773 7.08808C30.4261 8.87785 29.8958 11.5057 29.8863 14.9716C29.8769 17.2917 30.1089 19.2424 30.5824 20.8239C31.0653 22.4053 31.7471 23.5985 32.6278 24.4034C33.5085 25.1989 34.5549 25.5966 35.767 25.5966ZM60.3302 24.8296V5.17046H64.7905V24.8296H60.3302ZM52.7308 17.2301V12.7699H72.3899V17.2301H52.7308Z" fill="url(#paint0_linear_9919_9876)"/>
<defs>
<linearGradient id="paint0_linear_9919_9876" x1="28.8037" y1="-4.14331" x2="24.8037" y2="29.8567" gradientUnits="userSpaceOnUse">
<stop stop-color="#364EBE"/>
<stop offset="1" stop-color="white"/>
</linearGradient>
</defs>
</svg>
