<svg width="445" height="65" viewBox="0 0 445 65" fill="none" xmlns="http://www.w3.org/2000/svg">
<path d="M14.9789 35.7937C12.9335 35.7937 11.1153 35.4433 9.52439 34.7426C7.94295 34.0418 6.69295 33.0665 5.77439 31.8165C4.85583 30.5665 4.36814 29.1223 4.31132 27.4841H9.65223C9.69958 28.27 9.96 28.9566 10.4335 29.5437C10.907 30.1214 11.5367 30.5712 12.3227 30.8932C13.1087 31.2151 13.9894 31.3761 14.9647 31.3761C16.0064 31.3761 16.9297 31.1962 17.7346 30.8363C18.5395 30.467 19.1693 29.9557 19.6238 29.3022C20.0784 28.6488 20.3009 27.896 20.2914 27.0437C20.3009 26.163 20.0736 25.3865 19.6096 24.7142C19.1456 24.0418 18.4733 23.5163 17.5926 23.1375C16.7214 22.7587 15.6702 22.5693 14.4392 22.5693H11.8681V18.5068H14.4392C15.4524 18.5068 16.3378 18.3316 17.0954 17.9812C17.8625 17.6308 18.4638 17.1384 18.8994 16.5039C19.335 15.86 19.5481 15.1166 19.5386 14.2738C19.5481 13.45 19.3634 12.735 18.9846 12.129C18.6153 11.5134 18.0897 11.0352 17.4079 10.6943C16.7356 10.3534 15.9448 10.1829 15.0358 10.1829C14.1456 10.1829 13.3217 10.3439 12.5642 10.6659C11.8066 10.9879 11.1958 11.4471 10.7318 12.0437C10.2678 12.6308 10.0216 13.3316 9.99314 14.146H4.92212C4.96 12.5172 5.42875 11.0873 6.32837 9.85622C7.23746 8.61569 8.44958 7.64978 9.96473 6.9585C11.4799 6.25774 13.1797 5.90736 15.0642 5.90736C17.0055 5.90736 18.6911 6.27194 20.121 7.00111C21.5604 7.72081 22.6731 8.69145 23.4591 9.91304C24.245 11.1346 24.638 12.4841 24.638 13.9613C24.6475 15.5996 24.1645 16.9727 23.1892 18.0807C22.2233 19.1886 20.9543 19.913 19.3823 20.2539V20.4812C21.4278 20.7653 22.995 21.5229 24.0841 22.7539C25.1825 23.9755 25.727 25.4954 25.7176 27.3136C25.7176 28.9424 25.2536 30.4007 24.3255 31.6886C23.407 32.967 22.138 33.9708 20.5187 34.7C18.9089 35.4291 17.0623 35.7937 14.9789 35.7937ZM41.3461 35.95C39.0071 35.95 36.9995 35.3581 35.3234 34.1744C33.6567 32.9812 32.3736 31.2625 31.474 29.0182C30.5838 26.7644 30.1387 24.0513 30.1387 20.8789C30.1482 17.7066 30.598 15.0077 31.4882 12.7824C32.3878 10.5475 33.6709 8.84297 35.3376 7.66872C37.0137 6.49448 39.0166 5.90736 41.3461 5.90736C43.6757 5.90736 45.6785 6.49448 47.3546 7.66872C49.0308 8.84297 50.3139 10.5475 51.2041 12.7824C52.1037 15.0172 52.5535 17.7161 52.5535 20.8789C52.5535 24.0608 52.1037 26.7786 51.2041 29.0324C50.3139 31.2767 49.0308 32.9907 47.3546 34.1744C45.688 35.3581 43.6851 35.95 41.3461 35.95ZM41.3461 31.504C43.1643 31.504 44.599 30.6091 45.6501 28.8193C46.7107 27.02 47.241 24.3733 47.241 20.8789C47.241 18.5683 46.9995 16.6271 46.5166 15.0551C46.0336 13.4831 45.3518 12.2994 44.4711 11.504C43.5904 10.699 42.5488 10.2966 41.3461 10.2966C39.5374 10.2966 38.1075 11.1962 37.0564 12.9954C36.0052 14.7852 35.4749 17.413 35.4654 20.8789C35.456 23.199 35.688 25.1498 36.1615 26.7312C36.6444 28.3127 37.3262 29.5058 38.2069 30.3108C39.0876 31.1062 40.134 31.504 41.3461 31.504ZM65.9093 30.7369V11.0778H70.3696V30.7369H65.9093ZM58.3099 23.1375V18.6772H77.969V23.1375H58.3099Z" fill="white"/>
<path d="M18.5864 46.0412H20.4018L24.0325 52.152H24.1859L27.8166 46.0412H29.6319L24.9018 53.7372V59.1321H23.3166V53.7372L18.5864 46.0412ZM34.2054 59.3366C33.2594 59.3366 32.4433 59.1278 31.7573 58.7102C31.0754 58.2883 30.5492 57.7003 30.1784 56.946C29.8119 56.1875 29.6287 55.3054 29.6287 54.2997C29.6287 53.294 29.8119 52.4076 30.1784 51.6406C30.5492 50.8693 31.0648 50.2684 31.7253 49.838C32.3901 49.4034 33.1656 49.1861 34.052 49.1861C34.5634 49.1861 35.0683 49.2713 35.5669 49.4417C36.0655 49.6122 36.5193 49.8892 36.9284 50.2727C37.3375 50.652 37.6635 51.1548 37.9064 51.7812C38.1493 52.4076 38.2708 53.179 38.2708 54.0951V54.7344H30.7026V53.4304H36.7367C36.7367 52.8764 36.6259 52.3821 36.4043 51.9474C36.1869 51.5128 35.8759 51.1697 35.471 50.9183C35.0705 50.6669 34.5975 50.5412 34.052 50.5412C33.4511 50.5412 32.9313 50.6903 32.4923 50.9886C32.0577 51.2826 31.7232 51.6662 31.4888 52.1392C31.2544 52.6122 31.1372 53.1193 31.1372 53.6605V54.5298C31.1372 55.2713 31.2651 55.8998 31.5208 56.4155C31.7807 56.9268 32.1408 57.3167 32.601 57.5852C33.0612 57.8494 33.596 57.9815 34.2054 57.9815C34.6017 57.9815 34.9597 57.9261 35.2793 57.8153C35.6031 57.7003 35.8823 57.5298 36.1166 57.304C36.351 57.0738 36.5321 56.7883 36.66 56.4474L38.1173 56.8565C37.9639 57.3508 37.7061 57.7855 37.3439 58.1605C36.9817 58.5312 36.5342 58.821 36.0016 59.0298C35.4689 59.2344 34.8702 59.3366 34.2054 59.3366ZM43.4547 59.3622C42.8325 59.3622 42.2679 59.245 41.7608 59.0106C41.2537 58.772 40.851 58.429 40.5527 57.9815C40.2544 57.5298 40.1053 56.9844 40.1053 56.3451C40.1053 55.7826 40.2161 55.3267 40.4377 54.9773C40.6592 54.6236 40.9554 54.3466 41.3261 54.1463C41.6969 53.946 42.106 53.7969 42.5534 53.6988C43.0051 53.5966 43.459 53.5156 43.9149 53.4559C44.5115 53.3792 44.9952 53.3217 45.3659 53.2834C45.7409 53.2407 46.0136 53.1704 46.1841 53.0724C46.3588 52.9744 46.4462 52.804 46.4462 52.5611V52.5099C46.4462 51.8792 46.2736 51.3892 45.9284 51.0398C45.5875 50.6903 45.0698 50.5156 44.3752 50.5156C43.655 50.5156 43.0904 50.6733 42.6813 50.9886C42.2722 51.304 41.9845 51.6406 41.8183 51.9986L40.3865 51.4872C40.6422 50.8906 40.9831 50.4261 41.4092 50.0937C41.8396 49.7571 42.3084 49.5227 42.8155 49.3906C43.3269 49.2542 43.8297 49.1861 44.324 49.1861C44.6394 49.1861 45.0016 49.2244 45.4107 49.3011C45.824 49.3736 46.2225 49.5248 46.606 49.7549C46.9938 49.9851 47.3155 50.3324 47.5712 50.7969C47.8269 51.2613 47.9547 51.8835 47.9547 52.6633V59.1321H46.4462V57.8025H46.3695C46.2672 58.0156 46.0967 58.2436 45.8581 58.4865C45.6195 58.7294 45.302 58.9361 44.9057 59.1065C44.5094 59.277 44.0257 59.3622 43.4547 59.3622ZM43.6848 58.0071C44.2814 58.0071 44.7842 57.8899 45.1933 57.6555C45.6067 57.4211 45.9178 57.1186 46.1266 56.7478C46.3396 56.3771 46.4462 55.9872 46.4462 55.5781V54.1974C46.3823 54.2741 46.2416 54.3444 46.0243 54.4084C45.8112 54.468 45.5641 54.5213 45.2828 54.5682C45.0058 54.6108 44.7352 54.6491 44.471 54.6832C44.2111 54.713 44.0002 54.7386 43.8382 54.7599C43.4462 54.8111 43.0797 54.8942 42.7388 55.0092C42.4021 55.12 42.1294 55.2883 41.9206 55.5142C41.7161 55.7358 41.6138 56.0383 41.6138 56.4219C41.6138 56.946 41.8077 57.3423 42.1955 57.6108C42.5875 57.875 43.084 58.0071 43.6848 58.0071ZM50.7081 59.1321V49.3139H52.1655V50.7969H52.2677C52.4467 50.3111 52.7706 49.9169 53.2393 49.6143C53.7081 49.3118 54.2365 49.1605 54.8246 49.1605C54.9353 49.1605 55.0738 49.1626 55.24 49.1669C55.4062 49.1711 55.5319 49.1775 55.6172 49.1861V50.7201C55.566 50.7074 55.4488 50.6882 55.2656 50.6626C55.0866 50.6328 54.897 50.6179 54.6967 50.6179C54.2194 50.6179 53.7933 50.718 53.4183 50.9183C53.0476 51.1143 52.7535 51.3871 52.5362 51.7365C52.3231 52.0817 52.2166 52.4758 52.2166 52.919V59.1321H50.7081ZM64.3599 51.5128L63.0048 51.8963C62.9195 51.6704 62.7938 51.451 62.6276 51.2379C62.4657 51.0206 62.2441 50.8416 61.9629 50.701C61.6816 50.5603 61.3215 50.49 60.8826 50.49C60.2818 50.49 59.7811 50.6285 59.3805 50.9055C58.9842 51.1782 58.786 51.5255 58.786 51.9474C58.786 52.3224 58.9224 52.6186 59.1951 52.8359C59.4678 53.0532 59.894 53.2344 60.4735 53.3792L61.9309 53.7372C62.8087 53.9503 63.4629 54.2763 63.8933 54.7152C64.3237 55.1498 64.5389 55.7102 64.5389 56.3963C64.5389 56.9588 64.3769 57.4616 64.0531 57.9048C63.7335 58.348 63.286 58.6974 62.7107 58.9531C62.1355 59.2088 61.4664 59.3366 60.7036 59.3366C59.7022 59.3366 58.8734 59.1193 58.2171 58.6846C57.5609 58.25 57.1454 57.615 56.9707 56.7798L58.4025 56.4219C58.5389 56.9503 58.7967 57.3466 59.1759 57.6108C59.5595 57.875 60.0602 58.0071 60.6781 58.0071C61.3812 58.0071 61.9394 57.8579 62.3528 57.5596C62.7704 57.2571 62.9792 56.8949 62.9792 56.473C62.9792 56.1321 62.8599 55.8466 62.6212 55.6165C62.3826 55.3821 62.0161 55.2074 61.5218 55.0923L59.8855 54.7088C58.9863 54.4957 58.3258 54.1655 57.9039 53.718C57.4863 53.2663 57.2775 52.7017 57.2775 52.0241C57.2775 51.4701 57.433 50.9801 57.7441 50.554C58.0595 50.1278 58.4877 49.7933 59.0289 49.5504C59.5744 49.3075 60.1923 49.1861 60.8826 49.1861C61.8542 49.1861 62.617 49.3991 63.171 49.8253C63.7292 50.2514 64.1255 50.8139 64.3599 51.5128Z" fill="white"/>
<line x1="122.171" y1="2.36475" x2="122.171" y2="62.6353" stroke="white" stroke-opacity="0.32"/>
<path d="M182.947 35.7937C181.555 35.7843 180.196 35.5428 178.87 35.0693C177.544 34.5863 176.351 33.8051 175.291 32.7255C174.23 31.6365 173.387 30.1924 172.762 28.3932C172.137 26.5844 171.829 24.3449 171.839 21.6744C171.839 19.1839 172.104 16.9632 172.634 15.0125C173.165 13.0617 173.927 11.414 174.921 10.0693C175.916 8.71512 177.114 7.68293 178.515 6.9727C179.926 6.26247 181.503 5.90736 183.245 5.90736C185.073 5.90736 186.692 6.26721 188.103 6.9869C189.524 7.7066 190.669 8.69145 191.541 9.94145C192.412 11.182 192.952 12.5835 193.16 14.146H187.975C187.71 13.0286 187.166 12.1384 186.342 11.4755C185.527 10.8032 184.495 10.467 183.245 10.467C181.228 10.467 179.675 11.343 178.586 13.0949C177.507 14.8468 176.962 17.2521 176.953 20.3108H177.151C177.615 19.4774 178.217 18.7625 178.955 18.1659C179.694 17.5693 180.527 17.11 181.455 16.788C182.393 16.4566 183.382 16.2909 184.424 16.2909C186.129 16.2909 187.658 16.6981 189.012 17.5125C190.376 18.3269 191.455 19.449 192.251 20.8789C193.046 22.2994 193.439 23.9282 193.43 25.7653C193.439 27.6782 193.004 29.3969 192.123 30.9216C191.242 32.4367 190.016 33.6299 188.444 34.5011C186.872 35.3723 185.04 35.8032 182.947 35.7937ZM182.918 31.5324C183.951 31.5324 184.874 31.2814 185.688 30.7795C186.503 30.2776 187.147 29.6005 187.62 28.7483C188.094 27.896 188.326 26.9396 188.316 25.879C188.326 24.8373 188.098 23.895 187.634 23.0522C187.18 22.2094 186.55 21.5418 185.745 21.0494C184.94 20.557 184.022 20.3108 182.99 20.3108C182.222 20.3108 181.507 20.4575 180.845 20.7511C180.182 21.0447 179.604 21.4519 179.112 21.9727C178.619 22.4841 178.231 23.0807 177.947 23.7625C177.672 24.4348 177.53 25.1545 177.521 25.9216C177.53 26.9348 177.767 27.8676 178.231 28.7199C178.695 29.5721 179.334 30.254 180.149 30.7653C180.963 31.2767 181.886 31.5324 182.918 31.5324ZM208.984 35.95C206.645 35.95 204.637 35.3581 202.961 34.1744C201.294 32.9812 200.011 31.2625 199.112 29.0182C198.222 26.7644 197.776 24.0513 197.776 20.8789C197.786 17.7066 198.236 15.0077 199.126 12.7824C200.025 10.5475 201.309 8.84297 202.975 7.66872C204.651 6.49448 206.654 5.90736 208.984 5.90736C211.313 5.90736 213.316 6.49448 214.992 7.66872C216.668 8.84297 217.952 10.5475 218.842 12.7824C219.741 15.0172 220.191 17.7161 220.191 20.8789C220.191 24.0608 219.741 26.7786 218.842 29.0324C217.952 31.2767 216.668 32.9907 214.992 34.1744C213.326 35.3581 211.323 35.95 208.984 35.95ZM208.984 31.504C210.802 31.504 212.237 30.6091 213.288 28.8193C214.348 27.02 214.879 24.3733 214.879 20.8789C214.879 18.5683 214.637 16.6271 214.154 15.0551C213.671 13.4831 212.99 12.2994 212.109 11.504C211.228 10.699 210.186 10.2966 208.984 10.2966C207.175 10.2966 205.745 11.1962 204.694 12.9954C203.643 14.7852 203.113 17.413 203.103 20.8789C203.094 23.199 203.326 25.1498 203.799 26.7312C204.282 28.3127 204.964 29.5058 205.845 30.3108C206.725 31.1062 207.772 31.504 208.984 31.504ZM235.664 35.95C233.324 35.95 231.317 35.3581 229.641 34.1744C227.974 32.9812 226.691 31.2625 225.791 29.0182C224.901 26.7644 224.456 24.0513 224.456 20.8789C224.466 17.7066 224.915 15.0077 225.806 12.7824C226.705 10.5475 227.988 8.84297 229.655 7.66872C231.331 6.49448 233.334 5.90736 235.664 5.90736C237.993 5.90736 239.996 6.49448 241.672 7.66872C243.348 8.84297 244.631 10.5475 245.521 12.7824C246.421 15.0172 246.871 17.7161 246.871 20.8789C246.871 24.0608 246.421 26.7786 245.521 29.0324C244.631 31.2767 243.348 32.9907 241.672 34.1744C240.005 35.3581 238.003 35.95 235.664 35.95ZM235.664 31.504C237.482 31.504 238.916 30.6091 239.967 28.8193C241.028 27.02 241.558 24.3733 241.558 20.8789C241.558 18.5683 241.317 16.6271 240.834 15.0551C240.351 13.4831 239.669 12.2994 238.789 11.504C237.908 10.699 236.866 10.2966 235.664 10.2966C233.855 10.2966 232.425 11.1962 231.374 12.9954C230.323 14.7852 229.792 17.413 229.783 20.8789C229.773 23.199 230.005 25.1498 230.479 26.7312C230.962 28.3127 231.644 29.5058 232.524 30.3108C233.405 31.1062 234.451 31.504 235.664 31.504ZM260.227 30.7369V11.0778H264.687V30.7369H260.227ZM252.627 23.1375V18.6772H272.286V23.1375H252.627Z" fill="white"/>
<path d="M203.297 59.1321H201.635L206.442 46.0412H208.078L212.885 59.1321H211.223L207.311 48.1122H207.209L203.297 59.1321ZM203.911 54.0184H210.609V55.4247H203.911V54.0184ZM214.72 62.8139V49.3139H216.177V50.8736H216.356C216.467 50.7031 216.62 50.4858 216.816 50.2216C217.016 49.9531 217.302 49.7145 217.673 49.5057C218.048 49.2926 218.555 49.1861 219.194 49.1861C220.021 49.1861 220.749 49.3927 221.38 49.8061C222.011 50.2194 222.503 50.8054 222.857 51.5639C223.21 52.3224 223.387 53.2173 223.387 54.2486C223.387 55.2883 223.21 56.1896 222.857 56.9524C222.503 57.7109 222.013 58.299 221.386 58.7166C220.76 59.1299 220.038 59.3366 219.22 59.3366C218.589 59.3366 218.084 59.2322 217.705 59.0234C217.325 58.8103 217.033 58.5696 216.829 58.3011C216.624 58.0284 216.467 57.8025 216.356 57.6236H216.228V62.8139H214.72ZM216.203 54.223C216.203 54.9645 216.311 55.6186 216.528 56.1853C216.746 56.7478 217.063 57.1889 217.481 57.5085C217.899 57.8238 218.41 57.9815 219.015 57.9815C219.646 57.9815 220.172 57.8153 220.594 57.4829C221.02 57.1463 221.34 56.6946 221.553 56.1278C221.77 55.5568 221.879 54.9219 221.879 54.223C221.879 53.5326 221.772 52.9105 221.559 52.3565C221.35 51.7983 221.033 51.3572 220.607 51.0334C220.185 50.7052 219.654 50.5412 219.015 50.5412C218.401 50.5412 217.886 50.6967 217.468 51.0078C217.051 51.3146 216.735 51.745 216.522 52.299C216.309 52.8487 216.203 53.49 216.203 54.223ZM225.688 62.8139V49.3139H227.146V50.8736H227.325C227.435 50.7031 227.589 50.4858 227.785 50.2216C227.985 49.9531 228.271 49.7145 228.641 49.5057C229.016 49.2926 229.524 49.1861 230.163 49.1861C230.989 49.1861 231.718 49.3927 232.349 49.8061C232.979 50.2194 233.472 50.8054 233.825 51.5639C234.179 52.3224 234.356 53.2173 234.356 54.2486C234.356 55.2883 234.179 56.1896 233.825 56.9524C233.472 57.7109 232.982 58.299 232.355 58.7166C231.729 59.1299 231.006 59.3366 230.188 59.3366C229.558 59.3366 229.053 59.2322 228.673 59.0234C228.294 58.8103 228.002 58.5696 227.798 58.3011C227.593 58.0284 227.435 57.8025 227.325 57.6236H227.197V62.8139H225.688ZM227.171 54.223C227.171 54.9645 227.28 55.6186 227.497 56.1853C227.715 56.7478 228.032 57.1889 228.45 57.5085C228.867 57.8238 229.379 57.9815 229.984 57.9815C230.614 57.9815 231.141 57.8153 231.563 57.4829C231.989 57.1463 232.308 56.6946 232.521 56.1278C232.739 55.5568 232.847 54.9219 232.847 54.223C232.847 53.5326 232.741 52.9105 232.528 52.3565C232.319 51.7983 232.002 51.3572 231.575 51.0334C231.153 50.7052 230.623 50.5412 229.984 50.5412C229.37 50.5412 228.854 50.6967 228.437 51.0078C228.019 51.3146 227.704 51.745 227.491 52.299C227.278 52.8487 227.171 53.49 227.171 54.223ZM243.612 51.5128L242.256 51.8963C242.171 51.6704 242.046 51.451 241.879 51.2379C241.717 51.0206 241.496 50.8416 241.215 50.701C240.933 50.5603 240.573 50.49 240.134 50.49C239.533 50.49 239.033 50.6285 238.632 50.9055C238.236 51.1782 238.038 51.5255 238.038 51.9474C238.038 52.3224 238.174 52.6186 238.447 52.8359C238.72 53.0532 239.146 53.2344 239.725 53.3792L241.183 53.7372C242.06 53.9503 242.715 54.2763 243.145 54.7152C243.575 55.1498 243.791 55.7102 243.791 56.3963C243.791 56.9588 243.629 57.4616 243.305 57.9048C242.985 58.348 242.538 58.6974 241.962 58.9531C241.387 59.2088 240.718 59.3366 239.955 59.3366C238.954 59.3366 238.125 59.1193 237.469 58.6846C236.813 58.25 236.397 57.615 236.222 56.7798L237.654 56.4219C237.791 56.9503 238.048 57.3466 238.428 57.6108C238.811 57.875 239.312 58.0071 239.93 58.0071C240.633 58.0071 241.191 57.8579 241.604 57.5596C242.022 57.2571 242.231 56.8949 242.231 56.473C242.231 56.1321 242.112 55.8466 241.873 55.6165C241.634 55.3821 241.268 55.2074 240.774 55.0923L239.137 54.7088C238.238 54.4957 237.578 54.1655 237.156 53.718C236.738 53.2663 236.529 52.7017 236.529 52.0241C236.529 51.4701 236.685 50.9801 236.996 50.554C237.311 50.1278 237.739 49.7933 238.281 49.5504C238.826 49.3075 239.444 49.1861 240.134 49.1861C241.106 49.1861 241.869 49.3991 242.423 49.8253C242.981 50.2514 243.377 50.8139 243.612 51.5128Z" fill="white"/>
<line x1="324.684" y1="2.36475" x2="324.684" y2="62.6353" stroke="white" stroke-opacity="0.32"/>
<path d="M363.491 34.1299V30.3231L373.59 20.4225C374.556 19.4471 375.361 18.5806 376.005 17.8231C376.649 17.0655 377.132 16.3316 377.454 15.6214C377.776 14.9111 377.937 14.1536 377.937 13.3486C377.937 12.4301 377.728 11.6441 377.312 10.9907C376.895 10.3278 376.322 9.81644 375.593 9.45659C374.864 9.09674 374.035 8.91681 373.107 8.91681C372.151 8.91681 371.312 9.11568 370.593 9.51341C369.873 9.90166 369.314 10.4556 368.917 11.1753C368.528 11.895 368.334 12.752 368.334 13.7464H363.32C363.32 11.8998 363.741 10.2947 364.584 8.93102C365.427 7.56738 366.587 6.51151 368.064 5.76341C369.551 5.0153 371.256 4.64125 373.178 4.64125C375.129 4.64125 376.843 5.00583 378.32 5.735C379.797 6.46416 380.943 7.46322 381.758 8.73216C382.581 10.0011 382.993 11.45 382.993 13.0787C382.993 14.1678 382.785 15.2378 382.368 16.289C381.952 17.3401 381.218 18.5049 380.167 19.7833C379.125 21.0617 377.662 22.61 375.777 24.4282L370.763 29.5276V29.7265H383.434V34.1299H363.491ZM398.448 34.5276C396.554 34.5276 394.859 34.1725 393.363 33.4623C391.866 32.7426 390.678 31.7577 389.797 30.5077C388.926 29.2577 388.462 27.8278 388.405 26.218H393.519C393.614 27.4111 394.13 28.3865 395.067 29.1441C396.005 29.8922 397.132 30.2662 398.448 30.2662C399.48 30.2662 400.399 30.0295 401.204 29.556C402.008 29.0825 402.643 28.4244 403.107 27.5816C403.571 26.7388 403.798 25.7776 403.789 24.6981C403.798 23.5996 403.566 22.6242 403.093 21.7719C402.619 20.9197 401.971 20.252 401.147 19.7691C400.323 19.2767 399.376 19.0305 398.306 19.0305C397.435 19.021 396.578 19.182 395.735 19.5134C394.892 19.8448 394.224 20.2805 393.732 20.8202L388.973 20.039L390.493 5.03897H407.368V9.44238H394.854L394.016 17.1555H394.187C394.726 16.521 395.489 15.9954 396.473 15.5787C397.458 15.1526 398.538 14.9395 399.712 14.9395C401.473 14.9395 403.045 15.3562 404.428 16.1895C405.811 17.0134 406.9 18.1498 407.695 19.5986C408.491 21.0475 408.888 22.7047 408.888 24.5702C408.888 26.4926 408.443 28.2066 407.553 29.7123C406.672 31.2085 405.446 32.3875 403.874 33.2492C402.312 34.1015 400.503 34.5276 398.448 34.5276ZM422.283 29.4708V9.8117H426.743V29.4708H422.283ZM414.684 21.8714V17.4111H434.343V21.8714H414.684Z" fill="white"/>
<path d="M363.749 45.779V58.8699H362.163V45.779H363.749ZM368.231 52.9636V58.8699H366.722V49.0517H368.18V50.5858H368.308C368.538 50.0872 368.887 49.6866 369.356 49.3841C369.825 49.0773 370.43 48.9239 371.171 48.9239C371.836 48.9239 372.418 49.0602 372.916 49.3329C373.415 49.6014 373.803 50.0105 374.08 50.5602C374.357 51.1057 374.495 51.796 374.495 52.6312V58.8699H372.987V52.7335C372.987 51.9622 372.786 51.3614 372.386 50.931C371.985 50.4963 371.436 50.279 370.737 50.279C370.255 50.279 369.825 50.3834 369.445 50.5922C369.07 50.801 368.774 51.1057 368.557 51.5062C368.34 51.9068 368.231 52.3926 368.231 52.9636ZM380.959 59.0744C380.141 59.0744 379.419 58.8677 378.792 58.4544C378.166 58.0368 377.676 57.4487 377.322 56.6902C376.968 55.9274 376.792 55.0261 376.792 53.9864C376.792 52.9551 376.968 52.0602 377.322 51.3017C377.676 50.5432 378.168 49.9572 378.799 49.5439C379.429 49.1305 380.158 48.9239 380.985 48.9239C381.624 48.9239 382.129 49.0304 382.5 49.2435C382.875 49.4523 383.16 49.6909 383.356 49.9594C383.556 50.2236 383.712 50.4409 383.823 50.6113H383.951V45.779H385.459V58.8699H384.002V57.3614H383.823C383.712 57.5403 383.554 57.7662 383.35 58.0389C383.145 58.3074 382.853 58.5481 382.474 58.7612C382.095 58.97 381.59 59.0744 380.959 59.0744ZM381.164 57.7193C381.769 57.7193 382.28 57.5616 382.698 57.2463C383.115 56.9267 383.433 56.4856 383.65 55.9231C383.868 55.3564 383.976 54.7023 383.976 53.9608C383.976 53.2278 383.87 52.5865 383.657 52.0368C383.444 51.4828 383.128 51.0524 382.711 50.7456C382.293 50.4345 381.777 50.279 381.164 50.279C380.525 50.279 379.992 50.443 379.566 50.7712C379.144 51.095 378.826 51.5361 378.613 52.0943C378.404 52.6483 378.3 53.2704 378.3 53.9608C378.3 54.6596 378.407 55.2946 378.62 55.8656C378.837 56.4324 379.157 56.8841 379.578 57.2207C380.005 57.5531 380.533 57.7193 381.164 57.7193ZM394.619 54.8557V49.0517H396.127V58.8699H394.619V57.2079H394.517C394.287 57.7065 393.929 58.1305 393.443 58.48C392.957 58.8251 392.343 58.9977 391.602 58.9977C390.988 58.9977 390.443 58.8635 389.966 58.595C389.488 58.3223 389.113 57.9132 388.841 57.3677C388.568 56.818 388.431 56.1256 388.431 55.2903V49.0517H389.94V55.1881C389.94 55.904 390.14 56.475 390.541 56.9011C390.946 57.3273 391.461 57.5403 392.088 57.5403C392.463 57.5403 392.844 57.4444 393.232 57.2527C393.624 57.0609 393.952 56.7669 394.216 56.3706C394.485 55.9743 394.619 55.4693 394.619 54.8557ZM405.845 51.2506L404.49 51.6341C404.405 51.4082 404.279 51.1888 404.113 50.9757C403.951 50.7584 403.729 50.5794 403.448 50.4388C403.167 50.2981 402.807 50.2278 402.368 50.2278C401.767 50.2278 401.266 50.3663 400.866 50.6433C400.469 50.916 400.271 51.2633 400.271 51.6852C400.271 52.0602 400.407 52.3564 400.68 52.5737C400.953 52.791 401.379 52.9721 401.959 53.117L403.416 53.475C404.294 53.6881 404.948 54.014 405.378 54.453C405.809 54.8876 406.024 55.448 406.024 56.1341C406.024 56.6966 405.862 57.1994 405.538 57.6426C405.219 58.0858 404.771 58.4352 404.196 58.6909C403.621 58.9466 402.952 59.0744 402.189 59.0744C401.187 59.0744 400.358 58.8571 399.702 58.4224C399.046 57.9878 398.631 57.3528 398.456 56.5176L399.888 56.1596C400.024 56.6881 400.282 57.0844 400.661 57.3486C401.045 57.6128 401.545 57.7449 402.163 57.7449C402.866 57.7449 403.425 57.5957 403.838 57.2974C404.256 56.9949 404.464 56.6327 404.464 56.2108C404.464 55.8699 404.345 55.5844 404.106 55.3542C403.868 55.1199 403.501 54.9452 403.007 54.8301L401.371 54.4466C400.471 54.2335 399.811 53.9033 399.389 53.4558C398.971 53.0041 398.763 52.4395 398.763 51.7619C398.763 51.2079 398.918 50.7179 399.229 50.2917C399.545 49.8656 399.973 49.5311 400.514 49.2882C401.059 49.0453 401.677 48.9239 402.368 48.9239C403.339 48.9239 404.102 49.1369 404.656 49.5631C405.214 49.9892 405.611 50.5517 405.845 51.2506ZM412.565 49.0517V50.3301H407.477V49.0517H412.565ZM408.96 46.6994H410.468V56.0574C410.468 56.4835 410.53 56.8031 410.653 57.0162C410.781 57.225 410.943 57.3656 411.139 57.4381C411.339 57.5062 411.55 57.5403 411.772 57.5403C411.938 57.5403 412.075 57.5318 412.181 57.5148C412.288 57.4935 412.373 57.4764 412.437 57.4636L412.744 58.8187C412.641 58.8571 412.499 58.8954 412.315 58.9338C412.132 58.9764 411.9 58.9977 411.619 58.9977C411.192 58.9977 410.775 58.9061 410.366 58.7229C409.961 58.5396 409.624 58.2605 409.356 57.8855C409.092 57.5105 408.96 57.0375 408.96 56.4665V46.6994ZM414.834 58.8699V49.0517H416.291V50.5346H416.393C416.572 50.0489 416.896 49.6547 417.365 49.3521C417.834 49.0496 418.362 48.8983 418.95 48.8983C419.061 48.8983 419.2 48.9004 419.366 48.9047C419.532 48.9089 419.658 48.9153 419.743 48.9239V50.4579C419.692 50.4452 419.575 50.426 419.391 50.4004C419.212 50.3706 419.023 50.3557 418.822 50.3557C418.345 50.3557 417.919 50.4558 417.544 50.6561C417.173 50.8521 416.879 51.1248 416.662 51.4743C416.449 51.8194 416.342 52.2136 416.342 52.6568V58.8699H414.834ZM421.531 58.8699V49.0517H423.04V58.8699H421.531ZM422.298 47.4153C422.004 47.4153 421.751 47.3152 421.537 47.1149C421.329 46.9146 421.224 46.6739 421.224 46.3926C421.224 46.1114 421.329 45.8706 421.537 45.6703C421.751 45.47 422.004 45.3699 422.298 45.3699C422.592 45.3699 422.844 45.47 423.052 45.6703C423.265 45.8706 423.372 46.1114 423.372 46.3926C423.372 46.6739 423.265 46.9146 423.052 47.1149C422.844 47.3152 422.592 47.4153 422.298 47.4153ZM429.919 59.0744C428.973 59.0744 428.157 58.8656 427.471 58.448C426.789 58.0261 426.263 57.4381 425.892 56.6838C425.526 55.9253 425.342 55.0432 425.342 54.0375C425.342 53.0318 425.526 52.1454 425.892 51.3784C426.263 50.6071 426.778 50.0062 427.439 49.5758C428.104 49.1412 428.879 48.9239 429.766 48.9239C430.277 48.9239 430.782 49.0091 431.281 49.1795C431.779 49.35 432.233 49.627 432.642 50.0105C433.051 50.3898 433.377 50.8926 433.62 51.519C433.863 52.1454 433.984 52.9167 433.984 53.8329V54.4721H426.416V53.1682H432.45C432.45 52.6142 432.339 52.1199 432.118 51.6852C431.901 51.2506 431.589 50.9075 431.185 50.6561C430.784 50.4047 430.311 50.279 429.766 50.279C429.165 50.279 428.645 50.4281 428.206 50.7264C427.771 51.0204 427.437 51.404 427.202 51.877C426.968 52.35 426.851 52.8571 426.851 53.3983V54.2676C426.851 55.0091 426.979 55.6376 427.234 56.1533C427.494 56.6646 427.854 57.0545 428.315 57.323C428.775 57.5872 429.31 57.7193 429.919 57.7193C430.315 57.7193 430.673 57.6639 430.993 57.5531C431.317 57.4381 431.596 57.2676 431.83 57.0417C432.065 56.8116 432.246 56.5261 432.374 56.1852L433.831 56.5943C433.678 57.0886 433.42 57.5233 433.058 57.8983C432.695 58.269 432.248 58.5588 431.715 58.7676C431.183 58.9721 430.584 59.0744 429.919 59.0744ZM443.234 51.2506L441.879 51.6341C441.793 51.4082 441.668 51.1888 441.501 50.9757C441.339 50.7584 441.118 50.5794 440.837 50.4388C440.555 50.2981 440.195 50.2278 439.756 50.2278C439.156 50.2278 438.655 50.3663 438.254 50.6433C437.858 50.916 437.66 51.2633 437.66 51.6852C437.66 52.0602 437.796 52.3564 438.069 52.5737C438.342 52.791 438.768 52.9721 439.347 53.117L440.805 53.475C441.683 53.6881 442.337 54.014 442.767 54.453C443.197 54.8876 443.413 55.448 443.413 56.1341C443.413 56.6966 443.251 57.1994 442.927 57.6426C442.607 58.0858 442.16 58.4352 441.585 58.6909C441.009 58.9466 440.34 59.0744 439.577 59.0744C438.576 59.0744 437.747 58.8571 437.091 58.4224C436.435 57.9878 436.019 57.3528 435.844 56.5176L437.276 56.1596C437.413 56.6881 437.67 57.0844 438.05 57.3486C438.433 57.6128 438.934 57.7449 439.552 57.7449C440.255 57.7449 440.813 57.5957 441.227 57.2974C441.644 56.9949 441.853 56.6327 441.853 56.2108C441.853 55.8699 441.734 55.5844 441.495 55.3542C441.256 55.1199 440.89 54.9452 440.396 54.8301L438.759 54.4466C437.86 54.2335 437.2 53.9033 436.778 53.4558C436.36 53.0041 436.151 52.4395 436.151 51.7619C436.151 51.2079 436.307 50.7179 436.618 50.2917C436.933 49.8656 437.362 49.5311 437.903 49.2882C438.448 49.0453 439.066 48.9239 439.756 48.9239C440.728 48.9239 441.491 49.1369 442.045 49.5631C442.603 49.9892 442.999 50.5517 443.234 51.2506Z" fill="white"/>
</svg>
