<svg width="651" height="228" viewBox="0 0 651 228" fill="none" xmlns="http://www.w3.org/2000/svg">
<path opacity="0.5" d="M79.9997 225.999C64.8598 225.999 51.3626 223.214 39.5078 217.644C27.7244 212.074 18.3692 204.397 11.442 194.613C4.51483 184.829 0.908408 173.617 0.622751 160.977H45.6137C46.1136 169.475 49.6843 176.367 56.3258 181.651C62.9674 186.936 70.8586 189.578 79.9997 189.578C87.2839 189.578 93.7112 187.971 99.2815 184.758C104.923 181.473 109.315 176.938 112.457 171.153C115.671 165.297 117.278 158.584 117.278 151.014C117.278 143.302 115.635 136.517 112.35 130.661C109.137 124.805 104.673 120.235 98.9601 116.95C93.247 113.665 86.7126 111.987 79.3569 111.915C72.9297 111.915 66.6809 113.236 60.6107 115.879C54.6119 118.521 49.9343 122.127 46.5778 126.698L5.33609 119.307L15.7269 3.61549H149.843V41.5365H53.9692L48.2917 96.4897H49.5772C53.4336 91.0622 59.2538 86.5631 67.038 82.9924C74.8221 79.4217 83.5347 77.6363 93.1756 77.6363C106.387 77.6363 118.171 80.7429 128.526 86.9559C138.881 93.1689 147.058 101.703 153.056 112.558C159.055 123.341 162.019 135.768 161.947 149.836C162.019 164.619 158.591 177.759 151.664 189.257C144.808 200.683 135.203 209.681 122.848 216.251C110.565 222.75 96.2821 225.999 79.9997 225.999ZM280.317 227.82C261.892 227.749 246.038 223.214 232.755 214.216C219.543 205.218 209.367 192.185 202.225 175.117C195.155 158.049 191.656 137.517 191.727 113.522C191.727 89.5982 195.262 69.2095 202.332 52.3557C209.474 35.5019 219.65 22.6831 232.862 13.8992C246.145 5.04378 261.963 0.616095 280.317 0.616095C298.67 0.616095 314.453 5.04378 327.664 13.8992C340.947 22.7545 351.159 35.6091 358.301 52.4628C365.442 69.2452 368.977 89.5982 368.906 113.522C368.906 137.589 365.335 158.156 358.194 175.224C351.124 192.292 340.983 205.325 327.771 214.323C314.56 223.321 298.741 227.82 280.317 227.82ZM280.317 189.364C292.885 189.364 302.919 183.044 310.418 170.403C317.916 157.763 321.63 138.803 321.558 113.522C321.558 96.8825 319.844 83.0281 316.416 71.9589C313.06 60.8897 308.275 52.5699 302.062 46.9996C295.921 41.4293 288.672 38.6442 280.317 38.6442C267.819 38.6442 257.821 44.8929 250.323 57.3904C242.824 69.8879 239.039 88.5984 238.968 113.522C238.968 130.376 240.646 144.444 244.002 155.728C247.43 166.94 252.251 175.367 258.464 181.008C264.677 186.579 271.961 189.364 280.317 189.364ZM487.998 227.82C469.573 227.749 453.719 223.214 440.436 214.216C427.225 205.218 417.048 192.185 409.907 175.117C402.837 158.049 399.337 137.517 399.409 113.522C399.409 89.5982 402.944 69.2095 410.014 52.3557C417.155 35.5019 427.332 22.6831 440.543 13.8992C453.826 5.04378 469.645 0.616095 487.998 0.616095C506.352 0.616095 522.134 5.04378 535.346 13.8992C548.629 22.7545 558.841 35.6091 565.982 52.4628C573.124 69.2452 576.659 89.5982 576.587 113.522C576.587 137.589 573.017 158.156 565.875 175.224C558.805 192.292 548.664 205.325 535.453 214.323C522.241 223.321 506.423 227.82 487.998 227.82ZM487.998 189.364C500.567 189.364 510.601 183.044 518.099 170.403C525.598 157.763 529.311 138.803 529.24 113.522C529.24 96.8825 527.526 83.0281 524.098 71.9589C520.741 60.8897 515.957 52.5699 509.744 46.9996C503.602 41.4293 496.354 38.6442 487.998 38.6442C475.501 38.6442 465.503 44.8929 458.004 57.3904C450.506 69.8879 446.721 88.5984 446.649 113.522C446.649 130.376 448.327 144.444 451.684 155.728C455.112 166.94 459.932 175.367 466.145 181.008C472.358 186.579 479.643 189.364 487.998 189.364ZM675.219 189.578V37.8943H713.569V189.578H675.219ZM618.552 132.911V94.5615H770.236V132.911H618.552Z" fill="url(#paint0_linear_7072_875)"/>
<defs>
<linearGradient id="paint0_linear_7072_875" x1="-1526.82" y1="91.102" x2="528.704" y2="-565.152" gradientUnits="userSpaceOnUse">
<stop stop-color="#C0CCFF"/>
<stop offset="1" stop-color="#09090B"/>
</linearGradient>
</defs>
</svg>
