<svg xmlns="http://www.w3.org/2000/svg" width="227" height="126" viewBox="0 0 227 126" fill="none"><path d="M185.298 42.1123H180.319L176.359 61.9617H171.817L175.777 42.1123H170.863L171.591 38.4269H186.025L185.298 42.1123Z" fill="#E8E8E8"></path><path d="M163.242 56.2558C163.446 55.189 163.355 54.3915 162.967 53.8635C162.59 53.3247 161.814 52.7374 160.639 52.1016C158.473 51.218 156.894 50.1673 155.903 48.9497C154.922 47.7212 154.626 46.1317 155.014 44.1813C155.402 42.2416 156.323 40.7437 157.778 39.6877C159.233 38.6209 160.962 38.0875 162.967 38.0875C165.1 38.0875 166.749 38.734 167.913 40.0271C169.077 41.3203 169.416 43.0767 168.931 45.2966L168.899 45.3774H164.454C164.669 44.2783 164.572 43.4054 164.163 42.7589C163.753 42.1015 163.112 41.7729 162.239 41.7729C161.657 41.7729 161.102 42.0045 160.574 42.4679C160.046 42.9313 159.718 43.4916 159.588 44.149C159.384 45.1619 159.497 45.9162 159.928 46.4119C160.359 46.9076 161.307 47.5165 162.773 48.2384C164.766 49.0682 166.205 50.0973 167.089 51.3258C167.972 52.5542 168.209 54.1868 167.8 56.2234C167.39 58.2386 166.469 59.758 165.036 60.7817C163.603 61.7946 161.873 62.3011 159.847 62.3011C157.757 62.3011 156.005 61.7192 154.594 60.5554C153.193 59.3808 152.762 57.5651 153.301 55.1081L153.333 55.0273H157.778C157.498 56.3959 157.649 57.3388 158.231 57.856C158.823 58.3733 159.605 58.6319 160.574 58.6319C161.135 58.6319 161.684 58.4056 162.223 57.953C162.762 57.4896 163.101 56.9239 163.242 56.2558Z" fill="#E8E8E8"></path><path d="M151.513 51.6329H144.078L142.736 58.2925H151.497L150.77 61.9617H137.435L142.138 38.4269H155.441L154.714 42.1123H145.969L144.805 47.9637H152.241L151.513 51.6329Z" fill="#E8E8E8"></path><path d="M140.174 42.1123H135.195L131.235 61.9617H126.693L130.653 42.1123H125.739L126.467 38.4269H140.901L140.174 42.1123Z" fill="#E8E8E8"></path><path d="M118.117 56.2558C118.321 55.189 118.23 54.3915 117.842 53.8635C117.465 53.3247 116.689 52.7374 115.514 52.1016C113.348 51.218 111.769 50.1673 110.778 48.9497C109.797 47.7212 109.501 46.1317 109.889 44.1813C110.277 42.2416 111.198 40.7437 112.653 39.6877C114.108 38.6209 115.837 38.0875 117.842 38.0875C119.975 38.0875 121.624 38.734 122.788 40.0271C123.952 41.3203 124.291 43.0767 123.806 45.2966L123.774 45.3774H119.329C119.544 44.2783 119.447 43.4054 119.038 42.7589C118.628 42.1015 117.987 41.7729 117.114 41.7729C116.532 41.7729 115.977 42.0045 115.449 42.4679C114.921 42.9313 114.593 43.4916 114.463 44.149C114.259 45.1619 114.372 45.9162 114.803 46.4119C115.234 46.9076 116.182 47.5165 117.648 48.2384C119.641 49.0682 121.08 50.0973 121.964 51.3258C122.847 52.5542 123.084 54.1868 122.675 56.2234C122.265 58.2386 121.344 59.758 119.911 60.7817C118.478 61.7946 116.748 62.3011 114.722 62.3011C112.632 62.3011 110.88 61.7192 109.469 60.5554C108.068 59.3808 107.637 57.5651 108.176 55.1081L108.208 55.0273H112.653C112.373 56.3959 112.524 57.3388 113.106 57.856C113.698 58.3733 114.48 58.6319 115.449 58.6319C116.01 58.6319 116.559 58.4056 117.098 57.953C117.637 57.4896 117.976 56.9239 118.117 56.2558Z" fill="#E8E8E8"></path><path d="M101.362 56.967H95.6883L93.49 61.9617H88.8994L99.8748 38.4269H104.611L106.163 61.9617H101.572L101.362 56.967ZM97.3047 53.2655H101.216L100.909 45.329L100.812 45.3128L97.3047 53.2655Z" fill="#E8E8E8"></path><path d="M90.4581 52.1825H82.958L81.0021 61.9617H76.4277L81.1315 38.4269H94.5476L93.8202 42.1123H84.9623L83.6854 48.5133H91.1854L90.4581 52.1825Z" fill="#E8E8E8"></path><path d="M73.5509 48.0445L72.8881 52.328C72.7049 53.6211 72.387 54.8711 71.9345 56.078C71.4819 57.2742 70.8784 58.3464 70.1241 59.2947C69.3805 60.243 68.4646 60.9865 67.3762 61.5253C66.2986 62.0641 65.0217 62.3173 63.5453 62.285C62.4246 62.2635 61.4602 62.0641 60.652 61.6869C59.8438 61.299 59.1703 60.7818 58.6315 60.1352C58.1035 59.4886 57.694 58.7451 57.403 57.9046C57.1229 57.064 56.9504 56.1696 56.8858 55.2213C56.8211 54.2731 56.8481 53.314 56.9666 52.3442L57.6132 48.0445C57.8071 46.7514 58.1304 45.5068 58.583 44.3107C59.0356 43.1038 59.6391 42.0262 60.3934 41.0779C61.1477 40.1296 62.069 39.3914 63.1574 38.8634C64.2458 38.3246 65.5227 38.0714 66.9883 38.1037C68.109 38.1252 69.0734 38.33 69.8816 38.7179C70.6898 39.0951 71.3579 39.6069 71.886 40.2535C72.414 40.9001 72.8181 41.6436 73.0983 42.4841C73.3892 43.3247 73.567 44.2191 73.6317 45.1674C73.6963 46.1156 73.6694 47.0747 73.5509 48.0445ZM67.5055 53.023L68.3461 47.3172C68.3784 46.9939 68.4161 46.6221 68.4592 46.2018C68.5023 45.7816 68.5131 45.3505 68.4915 44.9087C68.4808 44.4561 68.4161 44.0359 68.2976 43.6479C68.1898 43.26 68.0012 42.9421 67.7318 42.6943C67.4732 42.4356 67.1068 42.2956 66.6327 42.274C65.9646 42.2417 65.4096 42.3872 64.9678 42.7104C64.5367 43.0337 64.1919 43.4647 63.9333 44.0035C63.6747 44.5316 63.4753 45.0973 63.3352 45.7008C63.2059 46.2934 63.1035 46.8376 63.0281 47.3333L62.1876 53.023C62.1552 53.3463 62.1175 53.7235 62.0744 54.1545C62.0313 54.5748 62.0152 55.0112 62.0259 55.4638C62.0367 55.9164 62.096 56.3367 62.2037 56.7246C62.3223 57.1125 62.5162 57.4358 62.7856 57.6944C63.055 57.9423 63.4268 58.0824 63.901 58.1147C64.5691 58.147 65.1186 58.0016 65.5497 57.6783C65.9915 57.3442 66.3417 56.9132 66.6003 56.3852C66.859 55.8464 67.0529 55.2752 67.1822 54.6718C67.3223 54.0683 67.4301 53.5187 67.5055 53.023Z" fill="#E8E8E8"></path><path d="M45.577 51.439L41.2612 50.3883L44.5102 38.427H57.9263L57.2474 42.662H48.2602L46.8216 47.3657C47.2958 47.064 47.8184 46.8484 48.3896 46.7191C48.9607 46.579 49.521 46.5036 50.0706 46.4928C51.2021 46.4928 52.1773 46.703 52.9963 47.1232C53.8153 47.5327 54.478 48.0984 54.9845 48.8204C55.4909 49.5424 55.8465 50.3722 56.0513 51.3097C56.256 52.2472 56.3153 53.2332 56.2291 54.2677C56.1321 55.4531 55.8411 56.5414 55.3562 57.5328C54.8713 58.5242 54.2301 59.3809 53.4327 60.1029C52.6353 60.8249 51.7193 61.3798 50.6848 61.7678C49.6503 62.1449 48.5404 62.3227 47.3551 62.3012C46.3313 62.2796 45.3723 62.1018 44.4779 61.7678C43.5942 61.423 42.813 60.9434 42.1341 60.3292C41.4552 59.7042 40.9272 58.966 40.55 58.1147C40.1729 57.2526 39.9897 56.299 40.0004 55.2537H45.3184C45.3399 55.7386 45.4262 56.1912 45.577 56.6115C45.7279 57.0317 45.965 57.3766 46.2882 57.646C46.6223 57.9046 47.0641 58.0447 47.6137 58.0662C48.1956 58.077 48.6859 57.9585 49.0846 57.7106C49.4833 57.4628 49.812 57.1341 50.0706 56.7246C50.3292 56.3044 50.5232 55.8464 50.6525 55.3507C50.7926 54.855 50.8842 54.3701 50.9273 53.8959C50.9812 53.4218 50.9812 52.9692 50.9273 52.5382C50.8734 52.0963 50.7549 51.7084 50.5717 51.3743C50.3885 51.0295 50.1191 50.7601 49.7635 50.5661C49.4187 50.3614 48.9768 50.2536 48.438 50.2429C47.8885 50.2429 47.3658 50.3399 46.8701 50.5338C46.3744 50.7278 45.9434 51.0295 45.577 51.439Z" fill="#E8E8E8"></path><path d="M182.758 76.0654C182.758 75.6105 182.622 75.2141 182.349 74.8762C182.076 74.5253 181.718 74.1939 181.277 73.882C180.848 73.5701 180.386 73.2582 179.892 72.9463C179.399 72.6214 178.931 72.264 178.489 71.8741C178.06 71.4712 177.703 71.0033 177.417 70.4705C177.144 69.9376 177.007 69.3138 177.007 68.599H179.269C179.269 69.0409 179.405 69.4373 179.678 69.7882C179.964 70.1391 180.321 70.4705 180.75 70.7824C181.192 71.0943 181.66 71.4127 182.154 71.7376C182.648 72.0495 183.109 72.4069 183.538 72.8098C183.98 73.1997 184.337 73.6611 184.61 74.1939C184.883 74.7138 185.02 75.3376 185.02 76.0654H182.758ZM177.007 68.6185C177.007 67.9167 177.183 67.3059 177.534 66.786C177.885 66.2532 178.365 65.8438 178.976 65.5579C179.6 65.259 180.308 65.1095 181.101 65.1095V66.9615C180.529 66.9615 180.081 67.1109 179.756 67.4098C179.431 67.6958 179.269 68.0986 179.269 68.6185H177.007ZM185.02 76.0459C185.02 76.7607 184.844 77.378 184.493 77.8979C184.142 78.4177 183.661 78.8271 183.051 79.126C182.44 79.4119 181.731 79.5549 180.926 79.5549V77.7224C181.498 77.7224 181.946 77.573 182.271 77.274C182.596 76.9751 182.758 76.5658 182.758 76.0459H185.02ZM182.758 68.599C182.693 68.0532 182.505 67.6438 182.193 67.3709C181.894 67.0979 181.53 66.9615 181.101 66.9615V65.1095C181.764 65.1095 182.355 65.2395 182.875 65.4994C183.395 65.7593 183.817 66.1232 184.142 66.5911C184.48 67.0459 184.695 67.5853 184.786 68.2091L182.758 68.599ZM178.781 75.2076C178.846 75.9874 179.067 76.6047 179.444 77.0596C179.821 77.5015 180.315 77.7224 180.926 77.7224V79.5549C179.743 79.5549 178.781 79.204 178.041 78.5022C177.313 77.8004 176.877 76.8257 176.734 75.578L178.781 75.2076Z" fill="#E8E8E8"></path><path d="M170.997 79.2625V77.4105H176.241V79.2625H170.997ZM171.192 73.2972V71.4257H175.072V73.2972H171.192ZM169.516 65.4214H171.777V79.2625H169.516V65.4214ZM171.192 65.4214H176.046V67.2539H171.192V65.4214Z" fill="#E8E8E8"></path><path d="M165.602 79.2625V65.4214H167.863V79.2625H165.602Z" fill="#E8E8E8"></path><path d="M161.114 79.2625L155.597 65.4214H157.663L163.161 79.2625H161.114ZM155.188 79.2625V65.4214H157.449V79.2625H155.188ZM161.679 79.2625V65.4214H163.941V79.2625H161.679Z" fill="#E8E8E8"></path><path d="M147.864 76.7087V74.8567H152.835V76.7087H147.864ZM151.158 65.4214L147.747 79.2625H145.544L148.955 65.4214H151.158ZM151.197 65.4214L154.589 79.2625H152.387L148.994 65.4214H151.197Z" fill="#E8E8E8"></path><path d="M140.368 67.2539V65.4214H142.025V67.2539H140.368ZM140.368 74.1159V72.2834H142.025V74.1159H140.368ZM143.838 70.334V69.2033H146.099V70.334H143.838ZM146.099 69.2228H143.838C143.838 68.599 143.675 68.1181 143.35 67.7802C143.025 67.4293 142.577 67.2539 142.005 67.2539V65.4214C142.811 65.4214 143.519 65.5838 144.13 65.9087C144.741 66.2337 145.222 66.682 145.573 67.2539C145.924 67.8257 146.099 68.482 146.099 69.2228ZM146.099 70.3145C146.099 71.0553 145.924 71.7116 145.573 72.2834C145.222 72.8553 144.741 73.3037 144.13 73.6286C143.519 73.9535 142.811 74.1159 142.005 74.1159V72.2834C142.577 72.2834 143.025 72.1145 143.35 71.7766C143.675 71.4257 143.838 70.9383 143.838 70.3145H146.099ZM138.594 79.2625V65.4214H140.855V79.2625H138.594Z" fill="#E8E8E8"></path><path d="M130.991 79.2625L134.051 65.4214H135.864L132.804 79.2625H130.991ZM130.932 79.2625L127.872 65.4214H129.685L132.745 79.2625H130.932ZM126.604 79.2625V65.4214H128.866V79.2625H126.604ZM134.87 79.2625V65.4214H137.132V79.2625H134.87Z" fill="#E8E8E8"></path><path d="M123.071 75.773V68.8915H125.332V75.773H123.071ZM117.164 75.773V68.8915H119.425V75.773H117.164ZM125.332 68.9305H123.071C123.071 68.3066 122.908 67.8258 122.584 67.4879C122.259 67.137 121.81 66.9615 121.238 66.9615V65.129C122.044 65.129 122.752 65.2915 123.363 65.6164C123.974 65.9413 124.455 66.3897 124.806 66.9615C125.157 67.5333 125.332 68.1897 125.332 68.9305ZM117.164 68.9305C117.164 68.1897 117.34 67.5333 117.69 66.9615C118.041 66.3897 118.522 65.9413 119.133 65.6164C119.757 65.2915 120.465 65.129 121.258 65.129V66.9615C120.686 66.9615 120.238 67.137 119.913 67.4879C119.588 67.8258 119.425 68.3066 119.425 68.9305H117.164ZM125.332 75.7535C125.332 76.4943 125.157 77.1506 124.806 77.7225C124.455 78.2943 123.974 78.7427 123.363 79.0676C122.752 79.3925 122.044 79.5549 121.238 79.5549V77.703C121.81 77.703 122.259 77.534 122.584 77.1961C122.908 76.8452 123.071 76.3643 123.071 75.7535H125.332ZM117.164 75.7535H119.425C119.425 76.3643 119.588 76.8452 119.913 77.1961C120.238 77.534 120.686 77.703 121.258 77.703V79.5549C120.465 79.5549 119.757 79.3925 119.133 79.0676C118.522 78.7427 118.041 78.2943 117.69 77.7225C117.34 77.1506 117.164 76.4943 117.164 75.7535Z" fill="#E8E8E8"></path><path d="M108.217 75.773V68.8914H110.478V75.773H108.217ZM108.217 68.9109C108.217 68.1701 108.392 67.5138 108.743 66.942C109.094 66.3701 109.575 65.9218 110.186 65.5969C110.81 65.272 111.518 65.1095 112.311 65.1095V66.942C111.739 66.942 111.29 67.1174 110.966 67.4683C110.641 67.8062 110.478 68.2871 110.478 68.9109H108.217ZM108.217 75.773H110.478C110.478 76.3838 110.641 76.8647 110.966 77.2156C111.29 77.5535 111.739 77.7224 112.311 77.7224V79.5744C111.518 79.5744 110.81 79.4119 110.186 79.087C109.575 78.7621 109.094 78.3138 108.743 77.7419C108.392 77.1701 108.217 76.5138 108.217 75.773ZM114.436 69.4568C114.371 68.677 114.15 68.0662 113.773 67.6243C113.396 67.1694 112.902 66.942 112.291 66.942V65.1095C113.474 65.1095 114.436 65.4604 115.176 66.1622C115.917 66.851 116.352 67.8257 116.482 69.0864L114.436 69.4568ZM114.436 75.2076L116.482 75.5975C116.352 76.8452 115.917 77.8199 115.176 78.5217C114.436 79.2235 113.474 79.5744 112.291 79.5744V77.7224C112.902 77.7224 113.396 77.5015 113.773 77.0596C114.15 76.6177 114.371 76.0004 114.436 75.2076Z" fill="#E8E8E8"></path><path d="M99.9399 73.5896V71.7571H104.209V73.5896H99.9399ZM101.948 75.7925V71.8156H104.209V75.7925H101.948ZM96.041 75.773V68.8914H98.3024V75.773H96.041ZM96.041 68.9109C96.041 68.1701 96.2165 67.5138 96.5674 66.942C96.9183 66.3701 97.3991 65.9218 98.01 65.5969C98.6338 65.272 99.3421 65.1095 100.135 65.1095V66.942C99.563 66.942 99.1146 67.1174 98.7897 67.4683C98.4648 67.8062 98.3024 68.2871 98.3024 68.9109H96.041ZM96.041 75.773H98.3024C98.3024 76.3838 98.4648 76.8647 98.7897 77.2156C99.1146 77.5535 99.563 77.7224 100.135 77.7224V79.5744C99.3421 79.5744 98.6338 79.4119 98.01 79.087C97.3991 78.7621 96.9183 78.3138 96.5674 77.7419C96.2165 77.1701 96.041 76.5138 96.041 75.773ZM102.26 69.4568C102.195 68.677 101.974 68.0662 101.597 67.6243C101.22 67.1694 100.726 66.942 100.115 66.942V65.1095C101.298 65.1095 102.26 65.4604 103.001 66.1622C103.741 66.851 104.177 67.8257 104.307 69.0864L102.26 69.4568ZM104.209 75.773C104.209 76.5138 104.034 77.1701 103.683 77.7419C103.332 78.3138 102.851 78.7621 102.24 79.087C101.629 79.4119 100.921 79.5744 100.115 79.5744V77.7224C100.687 77.7224 101.136 77.5535 101.46 77.2156C101.785 76.8647 101.948 76.3838 101.948 75.773H104.209Z" fill="#E8E8E8"></path><path d="M92.0377 79.2625L86.5207 65.4214H88.5871L94.0846 79.2625H92.0377ZM86.1113 79.2625V65.4214H88.3727V79.2625H86.1113ZM92.603 79.2625V65.4214H94.8643V79.2625H92.603Z" fill="#E8E8E8"></path><path d="M82.1982 79.2625V65.4214H84.4596V79.2625H82.1982Z" fill="#E8E8E8"></path><path d="M76.0928 79.2625L73.4415 65.4214H75.352L78.1007 79.2625H76.0928ZM69.913 79.2625L67.3008 65.4214H69.5037L72.1159 79.2625H69.913ZM70.6148 79.2625L73.3636 65.4214H75.274L72.6228 79.2625H70.6148ZM76.5996 79.2625L79.2119 65.4214H81.4148L78.8025 79.2625H76.5996Z" fill="#E8E8E8"></path><path d="M64.2516 75.773V68.8915H66.5129V75.773H64.2516ZM58.3447 75.773V68.8915H60.6061V75.773H58.3447ZM66.5129 68.9305H64.2516C64.2516 68.3066 64.0891 67.8258 63.7642 67.4879C63.4393 67.137 62.9909 66.9615 62.4191 66.9615V65.129C63.2248 65.129 63.9331 65.2915 64.544 65.6164C65.1548 65.9413 65.6357 66.3897 65.9866 66.9615C66.3375 67.5333 66.5129 68.1897 66.5129 68.9305ZM58.3447 68.9305C58.3447 68.1897 58.5202 67.5333 58.8711 66.9615C59.222 66.3897 59.7028 65.9413 60.3137 65.6164C60.9375 65.2915 61.6458 65.129 62.4386 65.129V66.9615C61.8667 66.9615 61.4184 67.137 61.0934 67.4879C60.7685 67.8258 60.6061 68.3066 60.6061 68.9305H58.3447ZM66.5129 75.7535C66.5129 76.4943 66.3375 77.1506 65.9866 77.7225C65.6357 78.2943 65.1548 78.7427 64.544 79.0676C63.9331 79.3925 63.2248 79.5549 62.4191 79.5549V77.703C62.9909 77.703 63.4393 77.534 63.7642 77.1961C64.0891 76.8452 64.2516 76.3643 64.2516 75.7535H66.5129ZM58.3447 75.7535H60.6061C60.6061 76.3643 60.7685 76.8452 61.0934 77.1961C61.4184 77.534 61.8667 77.703 62.4386 77.703V79.5549C61.6458 79.5549 60.9375 79.3925 60.3137 79.0676C59.7028 78.7427 59.222 78.2943 58.8711 77.7225C58.5202 77.1506 58.3447 76.4943 58.3447 75.7535Z" fill="#E8E8E8"></path><path d="M55.2222 79.2625L52.7659 72.6343H55.0078L57.4641 79.2625H55.2222ZM51.5767 73.687V71.8351H53.2338V73.687H51.5767ZM51.5767 67.2539V65.4214H53.2338V67.2539H51.5767ZM55.0467 69.9051V69.2033H57.3081V69.9051H55.0467ZM57.3081 69.2228H55.0467C55.0467 68.599 54.8843 68.1181 54.5594 67.7802C54.2345 67.4293 53.7861 67.2539 53.2143 67.2539V65.4214C54.02 65.4214 54.7283 65.5838 55.3392 65.9087C55.95 66.2337 56.4309 66.682 56.7818 67.2539C57.1327 67.8257 57.3081 68.482 57.3081 69.2228ZM57.3081 69.8856C57.3081 70.6264 57.1327 71.2827 56.7818 71.8546C56.4309 72.4264 55.95 72.8748 55.3392 73.1997C54.7283 73.5246 54.02 73.687 53.2143 73.687V71.8351C53.7861 71.8351 54.2345 71.6661 54.5594 71.3282C54.8843 70.9773 55.0467 70.4964 55.0467 69.8856H57.3081ZM49.8027 79.2625V65.4214H52.0641V79.2625H49.8027Z" fill="#E8E8E8"></path><path d="M44.1635 73.5895V71.7571H48.4328V73.5895H44.1635ZM46.1715 75.7924V71.8155H48.4328V75.7924H46.1715ZM40.2646 75.7729V68.8914H42.526V75.7729H40.2646ZM40.2646 68.9109C40.2646 68.1701 40.4401 67.5138 40.791 66.9419C41.1419 66.3701 41.6228 65.9217 42.2336 65.5968C42.8574 65.2719 43.5657 65.1094 44.3585 65.1094V66.9419C43.7867 66.9419 43.3383 67.1174 43.0134 67.4683C42.6885 67.8062 42.526 68.287 42.526 68.9109H40.2646ZM40.2646 75.7729H42.526C42.526 76.3837 42.6885 76.8646 43.0134 77.2155C43.3383 77.5534 43.7867 77.7224 44.3585 77.7224V79.5743C43.5657 79.5743 42.8574 79.4119 42.2336 79.087C41.6228 78.7621 41.1419 78.3137 40.791 77.7419C40.4401 77.17 40.2646 76.5137 40.2646 75.7729ZM46.4834 69.4567C46.4184 68.6769 46.1975 68.0661 45.8206 67.6242C45.4437 67.1694 44.9498 66.9419 44.339 66.9419V65.1094C45.5217 65.1094 46.4834 65.4603 47.2242 66.1621C47.965 66.8509 48.4003 67.8257 48.5303 69.0863L46.4834 69.4567ZM48.4328 75.7729C48.4328 76.5137 48.2574 77.17 47.9065 77.7419C47.5556 78.3137 47.0747 78.7621 46.4639 79.087C45.8531 79.4119 45.1448 79.5743 44.339 79.5743V77.7224C44.9108 77.7224 45.3592 77.5534 45.6841 77.2155C46.009 76.8646 46.1715 76.3837 46.1715 75.7729H48.4328Z" fill="#E8E8E8"></path><path d="M89.5587 31.4257C90.1715 31.4257 90.7843 31.6132 91.222 31.9009L90.8406 32.72C90.3779 32.4449 89.8276 32.2698 89.4774 32.2698C89.146 32.2698 88.9209 32.3886 88.9209 32.6262C88.9209 33.4329 91.2533 32.9826 91.247 34.5584C91.247 35.415 90.5029 35.8778 89.5337 35.8778C88.8146 35.8778 88.0955 35.6026 87.6016 35.1837L87.9955 34.377C88.4457 34.7772 89.0835 35.0336 89.5462 35.0336C89.9527 35.0336 90.1965 34.8835 90.1965 34.6147C90.1965 33.7893 87.8642 34.2707 87.8642 32.72C87.8642 31.9259 88.5458 31.4257 89.5587 31.4257Z" fill="#E8E8E8"></path><path d="M86.7612 31.4632C87.0113 31.4632 87.2302 31.6383 87.2302 31.9509C87.2302 32.101 87.1801 32.2261 87.0989 32.3386L86.6799 32.9702H86.2109L86.4736 32.3386C86.3422 32.2448 86.2797 32.1072 86.2797 31.9509C86.2797 31.6695 86.4861 31.4632 86.7612 31.4632Z" fill="#E8E8E8"></path><path d="M84.4473 34.4333V35.8465H83.4594V34.4583L81.8398 31.4694H82.8341L83.9533 33.4328L85.0476 31.4694H86.0418L84.4473 34.4333Z" fill="#E8E8E8"></path><path d="M81.4959 32.2886H79.1511V33.239H81.2645V34.0581H79.1511V35.0273H81.5647V35.8465H78.1631V31.4694H81.4959V32.2886Z" fill="#E8E8E8"></path><path d="M75.7824 31.4257C76.3952 31.4257 77.0079 31.6132 77.4457 31.9009L77.0642 32.72C76.6015 32.4449 76.0512 32.2698 75.7011 32.2698C75.3697 32.2698 75.1446 32.3886 75.1446 32.6262C75.1446 33.4329 77.4769 32.9826 77.4707 34.5584C77.4707 35.415 76.7266 35.8778 75.7574 35.8778C75.0383 35.8778 74.3192 35.6026 73.8252 35.1837L74.2191 34.377C74.6693 34.7772 75.3071 35.0336 75.7699 35.0336C76.1763 35.0336 76.4202 34.8835 76.4202 34.6147C76.4202 33.7893 74.0878 34.2707 74.0878 32.72C74.0878 31.9259 74.7694 31.4257 75.7824 31.4257Z" fill="#E8E8E8"></path><path d="M72.346 35.8465L71.6519 34.5959H71.5581H70.6452V35.8465H69.6572V31.4694H71.5581C72.7024 31.4694 73.3527 32.0197 73.3527 32.9889C73.3527 33.6642 73.0651 34.1519 72.5336 34.4021L73.4653 35.8465H72.346ZM70.6452 33.7705H71.5581C72.1021 33.7705 72.4148 33.5204 72.4148 33.0202C72.4148 32.5324 72.1021 32.2886 71.5581 32.2886H70.6452V33.7705Z" fill="#E8E8E8"></path><path d="M68.8133 32.2886H66.4684V33.239H68.5819V34.0581H66.4684V35.0273H68.8821V35.8465H65.4805V31.4694H68.8133V32.2886Z" fill="#E8E8E8"></path><path d="M64.5957 31.4694V34.4458C64.5957 35.365 64.0329 35.8903 63.1263 35.8903C62.5385 35.8903 62.0633 35.6401 61.6943 35.2087L62.1508 34.5084C62.4572 34.8335 62.8074 34.9961 63.0762 34.9961C63.4014 34.9961 63.6015 34.796 63.6015 34.4208V32.3073H62.0945V31.4694H64.5957Z" fill="#E8E8E8"></path><path d="M58.8089 35.8465H57.7897L56.908 32.7263L56.0076 35.8465H54.9884L53.5439 31.4694H54.6069L55.5261 34.771L56.4391 31.4694H57.4083L58.3337 34.771L59.2466 31.4694H60.2596L58.8089 35.8465Z" fill="#E8E8E8"></path><path d="M53.1815 32.2886H50.8366V33.239H52.9501V34.0581H50.8366V35.0273H53.2502V35.8465H49.8486V31.4694H53.1815V32.2886Z" fill="#E8E8E8"></path><path d="M48.8843 35.8465H47.9839L45.8641 33.0389V35.8465H44.9199V31.4694H45.8203L47.9463 34.2832V31.4694H48.8843V35.8465Z" fill="#E8E8E8"></path></svg>