<svg width="658" height="228" viewBox="0 0 658 228" fill="none" xmlns="http://www.w3.org/2000/svg">
<path opacity="0.5" d="M88.2136 225.999C76.9302 225.928 66.0395 224.036 55.5416 220.322C45.1151 216.608 35.7599 210.574 27.4758 202.218C19.1918 193.863 12.6217 182.794 7.76549 169.011C2.98074 155.228 0.58836 138.303 0.58836 118.235C0.659775 99.8105 2.76649 83.3495 6.90852 68.8524C11.122 54.2839 17.1208 41.9292 24.9049 31.7884C32.7605 21.6476 42.1514 13.9348 53.0778 8.65019C64.0042 3.29413 76.2517 0.616095 89.8204 0.616095C104.46 0.616095 117.386 3.47267 128.598 9.18581C139.81 14.8275 148.809 22.5046 155.593 32.2169C162.449 41.9292 166.591 52.8199 168.019 64.8889H122.278C120.493 57.2476 116.744 51.2488 111.03 46.8925C105.317 42.5363 98.2473 40.3581 89.8204 40.3581C75.5376 40.3581 64.6826 46.5712 57.2555 58.9972C49.8999 71.4233 46.1506 88.3128 46.0078 109.666H47.5075C50.7926 103.167 55.2202 97.6323 60.7906 93.0618C66.4323 88.4199 72.8238 84.8849 79.9653 82.4568C87.1781 79.9573 94.7837 78.7076 102.782 78.7076C115.78 78.7076 127.349 81.7784 137.489 87.92C147.63 93.9902 155.629 102.346 161.485 112.986C167.341 123.627 170.269 135.803 170.269 149.515C170.269 164.369 166.805 177.581 159.878 189.15C153.022 200.719 143.417 209.788 131.062 216.358C118.779 222.857 104.496 226.071 88.2136 225.999ZM87.9994 189.578C95.1408 189.578 101.532 187.864 107.174 184.436C112.816 181.008 117.243 176.367 120.457 170.511C123.671 164.655 125.278 158.084 125.278 150.8C125.278 143.516 123.671 136.982 120.457 131.197C117.315 125.412 112.959 120.806 107.388 117.378C101.818 113.95 95.4622 112.237 88.3207 112.237C82.9647 112.237 78.0014 113.236 73.4309 115.236C68.9318 117.236 64.9683 120.021 61.5404 123.591C58.1839 127.162 55.5416 131.304 53.6134 136.017C51.6852 140.659 50.7211 145.623 50.7211 150.907C50.7211 157.977 52.328 164.44 55.5416 170.296C58.8267 176.152 63.2543 180.83 68.8247 184.329C74.4664 187.828 80.858 189.578 87.9994 189.578ZM289.173 227.82C270.748 227.749 254.894 223.214 241.611 214.216C228.4 205.218 218.223 192.185 211.082 175.117C204.012 158.049 200.512 137.517 200.584 113.522C200.584 89.5982 204.119 69.2095 211.189 52.3557C218.33 35.5019 228.507 22.6831 241.718 13.8992C255.002 5.04378 270.82 0.616095 289.173 0.616095C307.527 0.616095 323.309 5.04378 336.521 13.8992C349.804 22.7545 360.016 35.6091 367.158 52.4628C374.299 69.2452 377.834 89.5982 377.763 113.522C377.763 137.589 374.192 158.156 367.05 175.224C359.98 192.292 349.84 205.325 336.628 214.323C323.416 223.321 307.598 227.82 289.173 227.82ZM289.173 189.364C301.742 189.364 311.776 183.044 319.274 170.403C326.773 157.763 330.486 138.803 330.415 113.522C330.415 96.8825 328.701 83.0281 325.273 71.9589C321.917 60.8897 317.132 52.5699 310.919 46.9996C304.777 41.4293 297.529 38.6442 289.173 38.6442C276.676 38.6442 266.678 44.8929 259.179 57.3904C251.681 69.8879 247.896 88.5984 247.824 113.522C247.824 130.376 249.503 144.444 252.859 155.728C256.287 166.94 261.107 175.367 267.32 181.008C273.534 186.579 280.818 189.364 289.173 189.364ZM496.855 227.82C478.43 227.749 462.576 223.214 449.293 214.216C436.081 205.218 425.905 192.185 418.763 175.117C411.693 158.049 408.194 137.517 408.265 113.522C408.265 89.5982 411.8 69.2095 418.87 52.3557C426.012 35.5019 436.188 22.6831 449.4 13.8992C462.683 5.04378 478.501 0.616095 496.855 0.616095C515.208 0.616095 530.991 5.04378 544.202 13.8992C557.485 22.7545 567.698 35.6091 574.839 52.4628C581.981 69.2452 585.516 89.5982 585.444 113.522C585.444 137.589 581.873 158.156 574.732 175.224C567.662 192.292 557.521 205.325 544.31 214.323C531.098 223.321 515.28 227.82 496.855 227.82ZM496.855 189.364C509.424 189.364 519.457 183.044 526.956 170.403C534.454 157.763 538.168 138.803 538.096 113.522C538.096 96.8825 536.383 83.0281 532.955 71.9589C529.598 60.8897 524.813 52.5699 518.6 46.9996C512.459 41.4293 505.21 38.6442 496.855 38.6442C484.357 38.6442 474.359 44.8929 466.861 57.3904C459.362 69.8879 455.577 88.5984 455.506 113.522C455.506 130.376 457.184 144.444 460.541 155.728C463.968 166.94 468.789 175.367 475.002 181.008C481.215 186.579 488.499 189.364 496.855 189.364ZM684.076 189.578V37.8943H722.425V189.578H684.076ZM627.409 132.911V94.5615H779.093V132.911H627.409Z" fill="url(#paint0_linear_7072_872)"/>
<defs>
<linearGradient id="paint0_linear_7072_872" x1="-1532.07" y1="91.102" x2="533.706" y2="-572.474" gradientUnits="userSpaceOnUse">
<stop stop-color="#C0CCFF"/>
<stop offset="1" stop-color="#09090B"/>
</linearGradient>
</defs>
</svg>
