<svg width="81" height="31" viewBox="0 0 81 31" fill="none" xmlns="http://www.w3.org/2000/svg">
<path d="M10.4972 0.411753C11.8892 0.421223 13.2434 0.667436 14.5597 1.15039C15.8854 1.62388 17.0786 2.40039 18.1392 3.47994C19.1998 4.55001 20.0426 5.98467 20.6676 7.78391C21.2926 9.58316 21.6051 11.8085 21.6051 14.46C21.6146 16.96 21.3494 19.1949 20.8097 21.1646C20.2794 23.1248 19.517 24.782 18.5227 26.1362C17.5284 27.4904 16.3305 28.5225 14.929 29.2328C13.5275 29.943 11.9508 30.2981 10.1989 30.2981C8.36174 30.2981 6.73295 29.9383 5.3125 29.2186C3.90152 28.4989 2.76042 27.514 1.8892 26.264C1.01799 25.014 0.482955 23.5841 0.284091 21.9743H5.46875C5.7339 23.1296 6.27367 24.0481 7.08807 24.7299C7.91193 25.4023 8.94886 25.7385 10.1989 25.7385C12.2159 25.7385 13.7689 24.8625 14.858 23.1106C15.947 21.3587 16.4915 18.925 16.4915 15.8095H16.2926C15.8286 16.6428 15.2273 17.3625 14.4886 17.9686C13.75 18.5652 12.9119 19.0244 11.9744 19.3464C11.0464 19.6684 10.0616 19.8294 9.01989 19.8294C7.31534 19.8294 5.78125 19.4222 4.41761 18.6078C3.06345 17.7934 1.98864 16.676 1.19318 15.2555C0.407197 13.835 0.00946979 12.211 0 10.3833C0 8.48941 0.435606 6.78959 1.30682 5.28391C2.1875 3.76876 3.41383 2.57558 4.9858 1.70437C6.55777 0.823685 8.39489 0.392813 10.4972 0.411753ZM10.5114 4.67312C9.48864 4.67312 8.56534 4.92406 7.74148 5.42596C6.92708 5.91838 6.28314 6.59073 5.80966 7.443C5.34564 8.28581 5.11364 9.22804 5.11364 10.2697C5.12311 11.3019 5.35511 12.2394 5.80966 13.0822C6.27367 13.925 6.90341 14.5926 7.69886 15.085C8.50379 15.5775 9.42235 15.8237 10.4545 15.8237C11.2216 15.8237 11.9366 15.6769 12.5994 15.3833C13.2623 15.0898 13.84 14.6826 14.3324 14.1618C14.8343 13.6315 15.2225 13.0301 15.4972 12.3578C15.7813 11.6854 15.9186 10.9752 15.9091 10.2271C15.9091 9.23278 15.6723 8.31422 15.1989 7.47141C14.7348 6.62861 14.0956 5.95153 13.2812 5.44016C12.4763 4.9288 11.553 4.67312 10.5114 4.67312ZM37.0881 30.4544C34.7491 30.4544 32.7415 29.8625 31.0653 28.6788C29.3987 27.4856 28.1155 25.7669 27.2159 23.5225C26.3258 21.2688 25.8807 18.5557 25.8807 15.3833C25.8902 12.211 26.34 9.51213 27.2301 7.28675C28.1297 5.0519 29.4129 3.34736 31.0795 2.17312C32.7557 0.998875 34.7585 0.411753 37.0881 0.411753C39.4176 0.411753 41.4205 0.998875 43.0966 2.17312C44.7727 3.34736 46.0559 5.0519 46.946 7.28675C47.8456 9.5216 48.2955 12.2205 48.2955 15.3833C48.2955 18.5652 47.8456 21.283 46.946 23.5368C46.0559 25.7811 44.7727 27.4951 43.0966 28.6788C41.4299 29.8625 39.4271 30.4544 37.0881 30.4544ZM37.0881 26.0083C38.9063 26.0083 40.3409 25.1135 41.392 23.3237C42.4527 21.5244 42.983 18.8777 42.983 15.3833C42.983 13.0727 42.7415 11.1315 42.2585 9.55948C41.7756 7.98751 41.0938 6.8038 40.2131 6.00835C39.3324 5.20342 38.2907 4.80096 37.0881 4.80096C35.2794 4.80096 33.8494 5.70058 32.7983 7.49982C31.7472 9.28959 31.2169 11.9174 31.2074 15.3833C31.1979 17.7034 31.4299 19.6542 31.9034 21.2356C32.3864 22.8171 33.0682 24.0102 33.9489 24.8152C34.8295 25.6106 35.8759 26.0083 37.0881 26.0083ZM68.5689 24.4458V22.9118C68.5689 21.7849 68.8056 20.7479 69.2791 19.801C69.7621 18.854 70.4628 18.0917 71.3814 17.514C72.3 16.9364 73.4126 16.6475 74.7195 16.6475C76.0642 16.6475 77.1911 16.9364 78.1001 17.514C79.0092 18.0822 79.6958 18.8398 80.1598 19.7868C80.6333 20.7337 80.87 21.7754 80.87 22.9118V24.4458C80.87 25.5727 80.6333 26.6097 80.1598 27.5566C79.6863 28.5036 78.9903 29.2659 78.0717 29.8436C77.1626 30.4212 76.0452 30.71 74.7195 30.71C73.3937 30.71 72.2715 30.4212 71.353 29.8436C70.4344 29.2659 69.7384 28.5036 69.2649 27.5566C68.8009 26.6097 68.5689 25.5727 68.5689 24.4458ZM72.2763 22.9118V24.4458C72.2763 25.194 72.4562 25.8805 72.8161 26.5055C73.1759 27.1305 73.8104 27.443 74.7195 27.443C75.638 27.443 76.2678 27.1352 76.6087 26.5197C76.959 25.8947 77.1342 25.2034 77.1342 24.4458V22.9118C77.1342 22.1542 76.9685 21.4629 76.6371 20.8379C76.3056 20.2034 75.6664 19.8862 74.7195 19.8862C73.8293 19.8862 73.1996 20.2034 72.8303 20.8379C72.4609 21.4629 72.2763 22.1542 72.2763 22.9118ZM53.782 7.79812V6.26403C53.782 5.12766 54.0234 4.086 54.5064 3.13903C54.9893 2.19206 55.6901 1.43448 56.6087 0.866298C57.5272 0.288647 58.6399 -0.000179291 59.9467 -0.000179291C61.282 -0.000179291 62.4041 0.288647 63.3132 0.866298C64.2318 1.43448 64.9231 2.19206 65.3871 3.13903C65.8511 4.086 66.0831 5.12766 66.0831 6.26403V7.79812C66.0831 8.93448 65.8464 9.97615 65.3729 10.9231C64.9089 11.8606 64.2176 12.6135 63.299 13.1816C62.3804 13.7498 61.263 14.0339 59.9467 14.0339C58.6115 14.0339 57.4846 13.7498 56.5661 13.1816C55.657 12.6135 54.9657 11.8559 54.4922 10.9089C54.0187 9.96194 53.782 8.92501 53.782 7.79812ZM57.5178 6.26403V7.79812C57.5178 8.55569 57.6929 9.24698 58.0433 9.87198C58.4032 10.4875 59.0376 10.7953 59.9467 10.7953C60.8558 10.7953 61.4808 10.4875 61.8217 9.87198C62.1721 9.24698 62.3473 8.55569 62.3473 7.79812V6.26403C62.3473 5.50645 62.1816 4.81516 61.8501 4.19016C61.5187 3.55569 60.8842 3.23846 59.9467 3.23846C59.0471 3.23846 58.4174 3.55569 58.0575 4.19016C57.6977 4.82463 57.5178 5.51592 57.5178 6.26403ZM55.4013 29.9004L75.4013 0.809481H78.9524L58.9524 29.9004H55.4013Z" fill="url(#paint0_linear_18096_44217)"/>
<defs>
<linearGradient id="paint0_linear_18096_44217" x1="7.5538" y1="-4.72912" x2="6.57152" y2="29.9426" gradientUnits="userSpaceOnUse">
<stop stop-color="#4361EE"/>
<stop offset="1" stop-color="white"/>
</linearGradient>
</defs>
</svg>
