<svg width="100" height="100" viewBox="0 0 100 100" fill="none" xmlns="http://www.w3.org/2000/svg">
<circle cx="50" cy="50" r="50" fill="#FF5D00" fill-opacity="0.1"/>
<path d="M50 46.1429C54.1146 46.1429 57.9601 45.7669 61.5365 45.0151C65.1128 44.2632 67.934 43.1529 70 41.6842V46.1429C70 47.3493 69.1059 48.4684 67.3177 49.5C65.5295 50.5316 63.099 51.3491 60.026 51.9523C56.9531 52.5555 53.6111 52.8571 50 52.8571C46.3889 52.8571 43.0469 52.5555 39.974 51.9523C36.901 51.3491 34.4705 50.5316 32.6823 49.5C30.8941 48.4684 30 47.3493 30 46.1429V41.6842C32.066 43.1529 34.8872 44.2632 38.4635 45.0151C42.0399 45.7669 45.8854 46.1429 50 46.1429ZM50 66.2857C54.1146 66.2857 57.9601 65.9098 61.5365 65.1579C65.1128 64.4061 67.934 63.2958 70 61.827V66.2857C70 67.4922 69.1059 68.6112 67.3177 69.6429C65.5295 70.6745 63.099 71.4919 60.026 72.0951C56.9531 72.6984 53.6111 73 50 73C46.3889 73 43.0469 72.6984 39.974 72.0951C36.901 71.4919 34.4705 70.6745 32.6823 69.6429C30.8941 68.6112 30 67.4922 30 66.2857V61.827C32.066 63.2958 34.8872 64.4061 38.4635 65.1579C42.0399 65.9098 45.8854 66.2857 50 66.2857ZM50 56.2143C54.1146 56.2143 57.9601 55.8384 61.5365 55.0865C65.1128 54.3346 67.934 53.2243 70 51.7556V56.2143C70 57.4208 69.1059 58.5398 67.3177 59.5714C65.5295 60.6031 63.099 61.4205 60.026 62.0237C56.9531 62.627 53.6111 62.9286 50 62.9286C46.3889 62.9286 43.0469 62.627 39.974 62.0237C36.901 61.4205 34.4705 60.6031 32.6823 59.5714C30.8941 58.5398 30 57.4208 30 56.2143V51.7556C32.066 53.2243 34.8872 54.3346 38.4635 55.0865C42.0399 55.8384 45.8854 56.2143 50 56.2143ZM50 26C53.6111 26 56.9531 26.3016 60.026 26.9049C63.099 27.5081 65.5295 28.3255 67.3177 29.3571C69.1059 30.3888 70 31.5078 70 32.7143V36.0714C70 37.2779 69.1059 38.3969 67.3177 39.4286C65.5295 40.4602 63.099 41.2776 60.026 41.8809C56.9531 42.4841 53.6111 42.7857 50 42.7857C46.3889 42.7857 43.0469 42.4841 39.974 41.8809C36.901 41.2776 34.4705 40.4602 32.6823 39.4286C30.8941 38.3969 30 37.2779 30 36.0714V32.7143C30 31.5078 30.8941 30.3888 32.6823 29.3571C34.4705 28.3255 36.901 27.5081 39.974 26.9049C43.0469 26.3016 46.3889 26 50 26Z" fill="#FF5D00"/>
</svg>
