<svg width="100" height="100" viewBox="0 0 100 100" fill="none" xmlns="http://www.w3.org/2000/svg">
<circle cx="50" cy="50" r="50" fill="#FF5D00" fill-opacity="0.1"/>
<path d="M51.25 25C47.7558 25 44.3953 25.7458 41.2613 27.2175C39.794 27.909 39.1616 29.6559 39.8513 31.1247C40.5413 32.5964 42.2912 33.2244 43.76 32.5362C46.105 31.4343 48.625 30.875 51.25 30.875C60.969 30.875 68.875 38.781 68.875 48.5C68.875 58.219 60.969 66.125 51.25 66.125C49.1717 66.125 47.1393 65.7693 45.2073 65.0693C43.6853 64.5155 41.9972 65.3016 41.4435 66.825C40.8897 68.351 41.6773 70.0351 43.2018 70.5888C45.778 71.5268 48.4861 72 51.25 72C64.2076 72 74.75 61.4576 74.75 48.5C74.75 35.5424 64.2076 25 51.25 25ZM24.8125 45.5625C23.1904 45.5625 21.875 46.8764 21.875 48.5C21.875 50.1236 23.1904 51.4375 24.8125 51.4375H36.5625C38.1846 51.4375 39.5 50.1236 39.5 48.5C39.5 46.8764 38.1846 45.5625 36.5625 45.5625H24.8125Z" fill="#FF5D00"/>
<path d="M42.4375 36.75C42.4375 35.1264 41.1221 33.8125 39.5 33.8125H30.6875C29.0654 33.8125 27.75 35.1264 27.75 36.75C27.75 38.3736 29.0654 39.6875 30.6875 39.6875H39.5C41.1221 39.6875 42.4375 38.3736 42.4375 36.75ZM18.9375 63.1875H39.5C41.1221 63.1875 42.4375 61.8736 42.4375 60.25C42.4375 58.6264 41.1221 57.3125 39.5 57.3125H18.9375C17.3154 57.3125 16 58.6264 16 60.25C16 61.8736 17.3154 63.1875 18.9375 63.1875ZM51.25 39.6875C49.6279 39.6875 48.3125 41.0014 48.3125 42.625V48.5C48.3125 49.613 48.9408 50.6285 49.9361 51.1276L55.8111 54.0651C56.2329 54.2745 56.6817 54.375 57.1221 54.375C58.2007 54.375 59.2377 53.7813 59.7526 52.7514C60.4785 51.3 59.8904 49.5358 58.4387 48.8099L54.1875 46.684V42.625C54.1875 41.0014 52.8721 39.6875 51.25 39.6875Z" fill="#FF5D00"/>
</svg>
