<svg width="100" height="100" viewBox="0 0 100 100" fill="none" xmlns="http://www.w3.org/2000/svg">
<circle cx="50" cy="50" r="50" fill="#FF5D00" fill-opacity="0.1"/>
<path d="M71.2501 43.4987C68.8529 43.5019 66.5406 44.3869 64.754 45.9852C62.9673 47.5834 61.8311 49.7832 61.5619 52.1652H55.6719C54.0835 52.1672 52.5141 51.8189 51.0757 51.1452C49.6372 50.4714 48.3649 49.4888 47.3495 48.2673L42.6827 42.6673C44.8021 41.7324 46.5193 40.0733 47.5266 37.9873C48.534 35.9014 48.7655 33.5249 48.1799 31.2837C47.5942 29.0425 46.2296 27.0831 44.3306 25.7566C42.4316 24.4301 40.1223 23.8232 37.8164 24.0447C35.5106 24.2661 33.359 25.3014 31.7471 26.9651C30.1352 28.6288 29.1685 30.812 29.0201 33.1237C28.8716 35.4354 29.5513 37.7244 30.9372 39.5805C32.3231 41.4366 34.3246 42.7386 36.5832 43.2531V56.7441C34.2461 57.2768 32.1871 58.6518 30.7996 60.6064C29.412 62.561 28.7931 64.9583 29.0612 67.3403C29.3292 69.7224 30.4653 71.9222 32.2525 73.5196C34.0398 75.117 36.3528 76 38.7499 76C41.1469 76 43.46 75.117 45.2472 73.5196C47.0344 71.9222 48.1706 69.7224 48.4386 67.3403C48.7066 64.9583 48.0877 62.561 46.7002 60.6064C45.3126 58.6518 43.2536 57.2768 40.9165 56.7441V47.3165L44.0207 51.0412C45.4422 52.7514 47.2233 54.1271 49.2372 55.0704C51.251 56.0137 53.4481 56.5013 55.6719 56.4985H62.0594C62.6554 58.1835 63.703 59.6723 65.088 60.8022C66.4729 61.932 68.1418 62.6594 69.9122 62.9048C71.6826 63.1502 73.4864 62.9042 75.1264 62.1936C76.7665 61.4831 78.1796 60.3354 79.2114 58.876C80.2432 57.4166 80.854 55.7016 80.9769 53.9185C81.0998 52.1354 80.7302 50.3528 79.9085 48.7656C79.0867 47.1784 77.8445 45.8476 76.3175 44.9187C74.7905 43.9898 73.0375 43.4986 71.2501 43.4987ZM44.1664 66.2483C44.1664 67.3196 43.8488 68.3668 43.2536 69.2576C42.6584 70.1483 41.8125 70.8426 40.8227 71.2526C39.833 71.6625 38.7439 71.7698 37.6931 71.5608C36.6424 71.3518 35.6773 70.8359 34.9198 70.0784C34.1622 69.3209 33.6464 68.3557 33.4374 67.305C33.2284 66.2543 33.3356 65.1652 33.7456 64.1755C34.1556 63.1857 34.8498 62.3398 35.7406 61.7446C36.6313 61.1494 37.6786 60.8317 38.7499 60.8317C40.1859 60.8333 41.5627 61.4045 42.5782 62.42C43.5937 63.4354 44.1649 64.8122 44.1664 66.2483ZM71.2501 58.6651C70.1788 58.6651 69.1316 58.3474 68.2409 57.7523C67.3501 57.1571 66.6558 56.3111 66.2459 55.3214C65.8359 54.3316 65.7286 53.2425 65.9376 52.1918C66.1466 51.1411 66.6625 50.176 67.42 49.4185C68.1776 48.6609 69.1427 48.1451 70.1934 47.9361C71.2441 47.7271 72.3332 47.8343 73.323 48.2443C74.3127 48.6543 75.1587 49.3485 75.7539 50.2393C76.349 51.13 76.6667 52.1772 76.6667 53.2485C76.6651 54.6846 76.0939 56.0614 75.0785 57.0769C74.063 58.0923 72.6862 58.6635 71.2501 58.6651Z" fill="#FF5D00"/>
</svg>
