<svg width="100" height="100" viewBox="0 0 100 100" fill="none" xmlns="http://www.w3.org/2000/svg">
<circle cx="50" cy="50" r="50" fill="#FF5D00" fill-opacity="0.1"/>
<path d="M76.9856 20.3182L38.7501 52.8891C38.6008 53.0158 38.4794 53.172 38.3935 53.3479C38.3076 53.5239 38.2592 53.7157 38.2512 53.9114C38.2432 54.107 38.2759 54.3021 38.3471 54.4845C38.4184 54.6668 38.5267 54.8324 38.6652 54.9708L47.1619 63.4676C47.2942 63.5989 47.4512 63.7027 47.6237 63.7732C47.7962 63.8436 47.981 63.8794 48.1674 63.8783C48.3623 63.8704 48.5535 63.8222 48.7289 63.7369C48.9044 63.6516 49.0603 63.531 49.187 63.3826L81.7579 25.1472C81.9914 24.8765 82.1138 24.5275 82.1007 24.1703C82.0875 23.8131 81.9398 23.4741 81.6871 23.2213L78.8549 20.389C78.6051 20.152 78.2776 20.014 77.9336 20.001C77.5895 19.988 77.2525 20.1007 76.9856 20.3182Z" fill="#FB670F"/>
<path d="M22.6742 52.5485C25.0205 52.5485 26.9225 50.6465 26.9225 48.3001C26.9225 45.9538 25.0205 44.0518 22.6742 44.0518C20.3278 44.0518 18.4258 45.9538 18.4258 48.3001C18.4258 50.6465 20.3278 52.5485 22.6742 52.5485Z" fill="#FB670F"/>
<path d="M34.727 62.3059C33.7767 61.9854 32.7555 61.9375 31.7793 62.1678C30.8031 62.3981 29.911 62.8973 29.2041 63.6088L28.6801 64.1327C28.3723 64.4408 28.1994 64.8585 28.1994 65.294C28.1994 65.7295 28.3723 66.1472 28.6801 66.4552C29.2186 66.9951 29.6102 67.6636 29.8178 68.3974C30.0253 69.1311 30.0419 69.9057 29.866 70.6477C29.6901 71.3897 29.3275 72.0744 28.8126 72.6368C28.2978 73.1993 27.6477 73.6209 26.9241 73.8615L22.9023 75.2069L26.1736 76.2973C27.7215 76.8169 29.3571 77.0244 30.9857 76.9077C32.6143 76.791 34.2036 76.3525 35.6617 75.6175C36.9438 74.9805 38.0076 73.9767 38.7181 72.7338C39.4286 71.4909 39.7536 70.0648 39.652 68.6368C39.5503 67.2087 39.0265 65.8431 38.1471 64.7134C37.2676 63.5836 36.0723 62.7408 34.7128 62.2918L34.727 62.3059Z" fill="#FB670F"/>
<path d="M32.5901 38.3891C34.1543 38.3891 35.4223 37.1211 35.4223 35.5569C35.4223 33.9927 34.1543 32.7246 32.5901 32.7246C31.0259 32.7246 29.7578 33.9927 29.7578 35.5569C29.7578 37.1211 31.0259 38.3891 32.5901 38.3891Z" fill="#FB670F"/>
<path d="M36.9359 78.1532C34.823 79.2186 32.4906 79.7762 30.1243 79.7818C28.478 79.7777 26.8429 79.5099 25.2812 78.9888L17.9739 76.6238C17.6906 76.5307 17.4439 76.3505 17.269 76.1089C17.0942 75.8674 17 75.5767 17 75.2785C17 74.9803 17.0942 74.6897 17.269 74.4481C17.4439 74.2065 17.6906 74.0263 17.9739 73.9332L26.0317 71.2567C26.2992 71.1694 26.5393 71.0137 26.728 70.8051C26.9168 70.5964 27.0478 70.342 27.108 70.0672C27.1729 69.7938 27.1666 69.5084 27.0898 69.2381C27.0129 68.9679 26.868 68.7218 26.669 68.5236C25.8336 67.6849 25.3646 66.5494 25.3646 65.3656C25.3646 64.1819 25.8336 63.0463 26.669 62.2076L27.1929 61.6837C28.2765 60.5831 29.6494 59.8116 31.153 59.4583C32.6565 59.1049 34.2293 59.1842 35.6897 59.6869C37.5729 60.3203 39.2266 61.4966 40.4426 63.0679C41.6586 64.6391 42.3826 66.5349 42.5234 68.5168C42.6642 70.4986 42.2155 72.4778 41.2338 74.2051C40.2522 75.9325 38.7814 77.3308 37.0067 78.2241L36.9359 78.1532Z" fill="#FB670F"/>
<path d="M43.9161 29.8899C44.6982 29.8899 45.3323 29.2559 45.3323 28.4737C45.3323 27.6916 44.6982 27.0576 43.9161 27.0576C43.134 27.0576 42.5 27.6916 42.5 28.4737C42.5 29.2559 43.134 29.8899 43.9161 29.8899Z" fill="#FB670F"/>
</svg>
