<svg width="65" height="65" viewBox="0 0 65 65" fill="none" xmlns="http://www.w3.org/2000/svg">
<g opacity="0.5" filter="url(#filter0_d_20005_5725)">
<path d="M32.0854 39.1709C38.2077 39.1709 43.1709 34.2077 43.1709 28.0854C43.1709 21.9631 38.2077 17 32.0854 17C25.9631 17 21 21.9631 21 28.0854C21 34.2077 25.9631 39.1709 32.0854 39.1709Z" fill="url(#paint0_linear_20005_5725)"/>
</g>
<path d="M30.5108 32.0583C30.2891 32.0583 30.0785 31.9696 29.9233 31.8144L26.786 28.6772C26.4646 28.3557 26.4646 27.8236 26.786 27.5022C27.1075 27.1807 27.6396 27.1807 27.9611 27.5022L30.5108 30.0518L36.2087 24.3539C36.5302 24.0324 37.0623 24.0324 37.3838 24.3539C37.7053 24.6754 37.7053 25.2075 37.3838 25.529L31.0983 31.8144C30.9431 31.9696 30.7325 32.0583 30.5108 32.0583Z" fill="white" fill-opacity="0.64"/>
<defs>
<filter id="filter0_d_20005_5725" x="0" y="0" width="64.1719" height="64.1709" filterUnits="userSpaceOnUse" color-interpolation-filters="sRGB">
<feFlood flood-opacity="0" result="BackgroundImageFix"/>
<feColorMatrix in="SourceAlpha" type="matrix" values="0 0 0 0 0 0 0 0 0 0 0 0 0 0 0 0 0 0 127 0" result="hardAlpha"/>
<feOffset dy="4"/>
<feGaussianBlur stdDeviation="10.5"/>
<feComposite in2="hardAlpha" operator="out"/>
<feColorMatrix type="matrix" values="0 0 0 0 0 0 0 0 0 0 0 0 0 0 0 0 0 0 0.36 0"/>
<feBlend mode="normal" in2="BackgroundImageFix" result="effect1_dropShadow_20005_5725"/>
<feBlend mode="normal" in="SourceGraphic" in2="effect1_dropShadow_20005_5725" result="shape"/>
</filter>
<linearGradient id="paint0_linear_20005_5725" x1="32.0854" y1="17" x2="38.5642" y2="37.542" gradientUnits="userSpaceOnUse">
<stop stop-color="#60FA82"/>
<stop offset="1" stop-color="#00B227"/>
</linearGradient>
</defs>
</svg>
