<svg width="52" height="52" viewBox="0 0 52 52" fill="none" xmlns="http://www.w3.org/2000/svg">
<path fill-rule="evenodd" clip-rule="evenodd" d="M35.9361 17.1067V25.6601C35.9361 29.439 32.8723 32.5028 29.0934 32.5028H17.1067V42.7668C17.1067 45.6014 19.4059 47.8989 22.2388 47.8989H42.3614L48.8586 51.1406C49.3872 51.404 50.0167 51.3767 50.5213 51.0636C51.026 50.7523 51.3322 50.2014 51.3322 49.6095C51.3322 49.6095 51.3322 30.2618 51.3322 22.2388C51.3322 20.8771 50.7916 19.5718 49.8285 18.6104C48.8671 17.6473 47.5619 17.1067 46.2002 17.1067H35.9361ZM42.7788 37.6348H25.6721C24.7278 37.6348 23.9614 38.4012 23.9614 39.3455C23.9614 40.2898 24.7278 41.0562 25.6721 41.0562H42.7788C43.7231 41.0562 44.4895 40.2898 44.4895 39.3455C44.4895 38.4012 43.7231 37.6348 42.7788 37.6348ZM42.7788 30.7921H35.9361C34.9918 30.7921 34.2255 31.5585 34.2255 32.5028C34.2255 33.4471 34.9918 34.2135 35.9361 34.2135H42.7788C43.7231 34.2135 44.4895 33.4471 44.4895 32.5028C44.4895 31.5585 43.7231 30.7921 42.7788 30.7921ZM34.2255 5.13202C34.2255 3.77033 33.6849 2.46508 32.7218 1.50368C31.7604 0.540573 30.4551 0 29.0934 0C23.1677 0 11.0595 0 5.13202 0C3.77204 0 2.46679 0.540573 1.50368 1.50368C0.540573 2.46508 0 3.77033 0 5.13202V32.5028C0 33.0947 0.307921 33.6455 0.81086 33.9569C1.31551 34.2699 1.94504 34.2973 2.47535 34.0339L8.97077 30.7921H29.0934C31.928 30.7921 34.2255 28.4947 34.2255 25.6601V5.13202ZM42.7788 23.9494H39.3575C38.4132 23.9494 37.6468 24.7158 37.6468 25.6601C37.6468 26.6044 38.4132 27.3708 39.3575 27.3708H42.7788C43.7231 27.3708 44.4895 26.6044 44.4895 25.6601C44.4895 24.7158 43.7231 23.9494 42.7788 23.9494ZM8.54653 23.9494L20.5384 23.9597C21.4826 23.9597 22.2507 23.195 22.2507 22.2507C22.2507 21.3064 21.4861 20.5384 20.5418 20.5384L8.54995 20.5281C7.60566 20.5281 6.83927 21.2928 6.83756 22.2371C6.83756 23.1813 7.60395 23.9494 8.54653 23.9494ZM8.54824 17.1067L25.6704 17.117C26.6147 17.117 27.3828 16.3506 27.3828 15.4063C27.3828 14.462 26.6164 13.6957 25.6738 13.6957L8.54995 13.6854C7.60566 13.6854 6.83927 14.4518 6.83756 15.3944C6.83756 16.3386 7.60395 17.1067 8.54824 17.1067ZM8.54824 10.264L25.6704 10.2743C26.6147 10.2743 27.3828 9.50793 27.3828 8.56363C27.3828 7.61934 26.6164 6.85296 25.6738 6.85296L8.54995 6.8427C7.60566 6.8427 6.83927 7.60908 6.83756 8.55166C6.83756 9.49595 7.60395 10.264 8.54824 10.264Z" fill="#F5FAFE"/>
</svg>
