<svg width="55" height="55" viewBox="0 0 55 55" fill="none" xmlns="http://www.w3.org/2000/svg">
<path fill-rule="evenodd" clip-rule="evenodd" d="M10.7935 23.2271V18.7613L14.3874 17.3781C14.8484 15.457 15.605 13.6305 16.6395 11.9518L15.073 8.429L19.2225 4.27951L22.7455 5.84585C24.4242 4.81147 26.2506 4.05492 28.1657 3.59974L29.5548 0H35.4243L36.8075 3.59974C38.7227 4.05492 40.5492 4.81147 42.2278 5.84585L45.7507 4.27951L49.9002 8.429L48.3397 11.9518C49.3741 13.6305 50.1307 15.457 50.5858 17.3781L54.1797 18.7613V24.6308L50.5858 26.014C50.1307 27.929 49.3682 29.7555 48.3397 31.4342L49.9002 34.9572L45.7507 39.1067L42.2278 37.5461C40.555 38.5806 38.7227 39.3371 36.8075 39.7923L35.4243 43.3862H29.5548L28.1717 39.7923C26.2542 39.3379 24.4308 38.5774 22.7546 37.5518C23.6864 36.3917 24.3519 35.0086 24.6583 33.4953C26.9042 34.9909 29.5979 35.8639 32.4887 35.8639C40.294 35.8639 46.6574 29.5005 46.6574 21.6952C46.6574 13.8899 40.294 7.52227 32.4887 7.52227C24.6835 7.52227 18.3158 13.8899 18.3158 21.6952C18.3158 21.9873 18.3247 22.2773 18.3423 22.5651C17.3956 22.2495 16.3827 22.0786 15.3299 22.0786C13.6874 22.0786 12.1421 22.4947 10.7935 23.2271ZM30.6283 22.9425L37.516 15.9829C38.3321 15.1627 39.6639 15.1584 40.4843 15.9744C41.3046 16.7905 41.3088 18.1181 40.4928 18.9426C37.6979 21.7628 34.9242 24.6 32.1166 27.4075C31.2963 28.2277 29.9645 28.2277 29.1442 27.4075L24.4889 22.748C23.6687 21.9277 23.6687 20.6001 24.4889 19.7756C25.3093 18.9553 26.6411 18.9553 27.4614 19.7756L30.6283 22.9425ZM0.0214618 53.0112C1.43241 45.8445 7.74963 40.4388 15.3299 40.4388C22.91 40.4388 29.2271 45.8445 30.6399 53.0107C30.7056 53.3431 30.6191 53.6875 30.4039 53.9494C30.1887 54.2112 29.8676 54.363 29.5287 54.363C24.4584 54.363 6.20119 54.3631 1.13092 54.3614C0.792512 54.3614 0.471883 54.2099 0.257149 53.9485C0.042301 53.687 -0.0441137 53.3431 0.0214618 53.0112ZM15.3299 23.8907C19.5856 23.8907 23.0356 27.3407 23.0356 31.5964C23.0356 35.852 19.5856 39.3019 15.3299 39.3019C11.0743 39.3019 7.62426 35.852 7.62426 31.5964C7.62426 27.3407 11.0743 23.8907 15.3299 23.8907Z" fill="#F5FAFE"/>
</svg>
