<svg width="40" height="40" viewBox="0 0 40 40" fill="none" xmlns="http://www.w3.org/2000/svg">
<path d="M14.7395 15.362C14.5795 15.362 14.4195 15.3007 14.2977 15.1788L7.32391 8.2057C7.07953 7.96133 7.07953 7.56633 7.32391 7.32195C7.56828 7.07758 7.96328 7.07758 8.20766 7.32195L15.1814 14.2951C15.4258 14.5395 15.4258 14.9345 15.1814 15.1788C15.0595 15.3007 14.8995 15.362 14.7395 15.362Z" fill="white"/>
<path d="M32.232 32.8561C32.072 32.8561 31.912 32.7948 31.7902 32.6729L24.8239 25.7067C24.5795 25.4623 24.5795 25.0673 24.8239 24.8229C25.0683 24.5786 25.4633 24.5786 25.7077 24.8229L32.6739 31.7892C32.9183 32.0336 32.9183 32.4286 32.6739 32.6729C32.552 32.7948 32.392 32.8561 32.232 32.8561Z" fill="white"/>
<path d="M25.2658 15.362C25.1058 15.362 24.9458 15.3007 24.8239 15.1788C24.5795 14.9345 24.5795 14.5395 24.8239 14.2951L31.7977 7.32195C32.042 7.07758 32.437 7.07758 32.6814 7.32195C32.9258 7.56633 32.9258 7.96133 32.6814 8.2057L25.7077 15.1788C25.5858 15.3007 25.4258 15.362 25.2658 15.362Z" fill="white"/>
<path d="M7.77359 32.8561C7.61359 32.8561 7.45359 32.7948 7.33172 32.6729C7.08734 32.4286 7.08734 32.0336 7.33172 31.7892L14.2986 24.8229C14.543 24.5786 14.938 24.5786 15.1823 24.8229C15.4267 25.0673 15.4267 25.4623 15.1823 25.7067L8.21547 32.6729C8.09359 32.7948 7.93359 32.8561 7.77359 32.8561Z" fill="white"/>
<path d="M5.32562 8.15076C6.88375 8.15076 8.15125 6.88326 8.15125 5.32514C8.15125 3.76701 6.88375 2.49951 5.32562 2.49951C3.7675 2.49951 2.5 3.76701 2.5 5.32514C2.5 6.88326 3.7675 8.15076 5.32562 8.15076Z" fill="white"/>
<path d="M34.6772 31.8496C33.1191 31.8496 31.8516 33.1171 31.8516 34.6752C31.8516 36.2334 33.1191 37.5009 34.6772 37.5009C36.2353 37.5009 37.5028 36.2334 37.5028 34.6752C37.5028 33.1171 36.2353 31.8496 34.6772 31.8496Z" fill="white"/>
<path d="M19.9997 13.1807C18.1728 13.1807 16.4603 13.89 15.1791 15.1775C13.8897 16.4738 13.1797 18.1863 13.1797 20.0007C13.1797 21.815 13.8897 23.5282 15.1791 24.8244C16.4603 26.1125 18.1728 26.8213 19.9997 26.8213C21.8266 26.8213 23.5391 26.1119 24.8203 24.8244C26.1097 23.5282 26.8203 21.815 26.8203 20.0007C26.8203 18.1863 26.1103 16.4738 24.8203 15.1775C23.5391 13.8894 21.8266 13.1807 19.9997 13.1807Z" fill="white"/>
<path d="M28.4275 11.5705C26.1875 9.31861 23.1938 8.07861 20 8.07861C16.8063 8.07861 13.8131 9.31861 11.5725 11.5705C9.31938 13.8361 8.07812 16.8299 8.07812 20.0005C8.07812 23.1711 9.31938 26.1655 11.5725 28.4311C13.8131 30.683 16.8063 31.923 20 31.923C23.1938 31.923 26.1875 30.683 28.4275 28.4311C30.6806 26.1655 31.9219 23.1717 31.9219 20.0005C31.9219 16.8292 30.6806 13.8361 28.4275 11.5705ZM25.7063 25.7055C24.1881 27.2311 22.1619 28.0711 19.9994 28.0711C17.8369 28.0711 15.8106 27.2311 14.2925 25.7055C12.7687 24.1736 11.9294 22.1474 11.9294 20.0005C11.9294 17.8536 12.7687 15.828 14.2925 14.2961C15.8106 12.7705 17.8369 11.9305 19.9994 11.9305C22.1619 11.9305 24.1881 12.7705 25.7063 14.2961C27.23 15.828 28.07 17.8536 28.07 20.0005C28.07 22.1474 27.2306 24.1736 25.7063 25.7055Z" fill="white"/>
<path d="M34.6772 2.5C33.1191 2.5 31.8516 3.7675 31.8516 5.32562C31.8516 6.88375 33.1191 8.15125 34.6772 8.15125C36.2353 8.15125 37.5028 6.88375 37.5028 5.32562C37.5028 3.7675 36.2353 2.5 34.6772 2.5Z" fill="white"/>
<path d="M5.32562 37.4999C6.88375 37.4999 8.15125 36.2324 8.15125 34.6743C8.15125 33.1161 6.88375 31.8486 5.32562 31.8486C3.7675 31.8486 2.5 33.1161 2.5 34.6743C2.5 36.2324 3.7675 37.4999 5.32562 37.4999Z" fill="white"/>
</svg>
