<svg width="40" height="40" viewBox="0 0 40 40" fill="none" xmlns="http://www.w3.org/2000/svg">
<g clip-path="url(#clip0_20058_39137)">
<path d="M30.1328 11.7266C30.1328 17.3203 25.5938 21.8594 20 21.8594C14.4062 21.8594 9.86719 17.3203 9.86719 11.7266C9.86719 10.7578 10.0078 9.8125 10.2578 8.92188V8.9375C10.2578 8.9375 13.6797 11.7266 20 11.7266C26.3203 11.7266 29.7422 8.9375 29.7422 8.9375V8.92188C29.9922 9.82031 30.1328 10.7578 30.1328 11.7266Z" fill="white"/>
<path d="M38.3112 34.8673L35.1394 25.258C34.2409 22.5314 31.1237 21.2423 28.5612 22.547C27.9441 22.8673 27.2566 23.1642 26.5066 23.4376L21.1003 28.8439C20.4909 29.4533 19.4987 29.4533 18.8894 28.8439L13.4831 23.4376C12.7331 23.1642 12.0534 22.8673 11.4284 22.547C8.87375 21.2423 5.74875 22.5314 4.85031 25.258L1.67844 34.8673C0.858123 37.3986 2.74094 40.0001 5.39719 40.0001H34.5925C37.2566 40.0001 39.1394 37.3986 38.3112 34.8673ZM33.6237 29.9533C33.6237 30.5158 33.1628 30.9767 32.6003 30.9767H28.8581C28.2956 30.9767 27.8347 30.5158 27.8347 29.9533C27.8347 29.3908 28.2956 28.9298 28.8581 28.9298H32.6003C33.1628 28.9298 33.6237 29.383 33.6237 29.9533Z" fill="white"/>
<path d="M34.2188 2.99219L21.7812 0.179688C20.6094 -0.0703125 19.3906 -0.0703125 18.2188 0.179688L5.78125 2.99219C5.16406 3.13281 4.72656 3.67969 4.72656 4.30469C4.72656 4.92969 5.17188 5.48438 5.78125 5.625L6.10937 5.70312V11.8047L5.3125 15.4141C5.0625 16.5234 5.91406 17.5781 7.05469 17.5781C8.19531 17.5781 9.03906 16.5234 8.79688 15.4141L8 11.8047V6.125L18.2734 8.46094C19.4141 8.71875 20.5938 8.71875 21.7344 8.46094L34.2188 5.625C34.8359 5.48438 35.2656 4.9375 35.2656 4.3125C35.2656 3.6875 34.8281 3.13281 34.2188 2.99219Z" fill="white"/>
</g>
<defs>
<clipPath id="clip0_20058_39137">
<rect width="40" height="40" fill="white"/>
</clipPath>
</defs>
</svg>
