<svg width="35" height="35" viewBox="0 0 35 35" fill="none" xmlns="http://www.w3.org/2000/svg">
<path d="M10.3394 0.5H6.37286C3.29549 0.5 0.800781 2.99476 0.800781 6.0722V10.0389C0.800781 13.1163 3.29549 15.6111 6.37286 15.6111H10.3394C13.4168 15.6111 15.9115 13.1163 15.9115 10.0389V6.0722C15.9115 2.99476 13.4168 0.5 10.3394 0.5Z" fill="white"/>
<path d="M10.3394 19.3889H6.37286C3.29549 19.3889 0.800781 21.8837 0.800781 24.9611V28.9278C0.800781 32.0052 3.29549 34.5 6.37286 34.5H10.3394C13.4168 34.5 15.9115 32.0052 15.9115 28.9278V24.9611C15.9115 21.8837 13.4168 19.3889 10.3394 19.3889Z" fill="white"/>
<path d="M29.2262 19.3889H25.2596C22.1822 19.3889 19.6875 21.8837 19.6875 24.9611V28.9278C19.6875 32.0052 22.1822 34.5 25.2596 34.5H29.2262C32.3035 34.5 34.7982 32.0052 34.7982 28.9278V24.9611C34.7982 21.8837 32.3035 19.3889 29.2262 19.3889Z" fill="white"/>
<path d="M34.7982 8.06186C32.2827 8.75778 30.7428 9.39635 29.6604 10.4728C28.5788 11.5493 27.9382 13.0907 27.2429 15.6111C25.854 10.5729 24.7274 9.44506 19.6875 8.06209C24.7187 6.672 25.8453 5.54436 27.2429 0.5C28.6317 5.53724 29.7584 6.66488 34.7982 8.06186Z" fill="white"/>
</svg>
