<svg width="50" height="50" viewBox="0 0 50 50" fill="none" xmlns="http://www.w3.org/2000/svg">
<g clip-path="url(#clip0_2765_13506)">
<g clip-path="url(#clip1_2765_13506)">
<g clip-path="url(#clip2_2765_13506)">
<path d="M13.2353 26.1765C13.2353 32.6618 18.5147 37.9412 25 37.9412C31.4853 37.9412 36.7647 32.6618 36.7647 26.1765C36.7647 19.6912 31.4853 14.4118 25 14.4118C18.5147 14.4118 13.2353 19.6912 13.2353 26.1765ZM21.125 28.7426C21.4118 29.0294 21.4118 29.5 21.125 29.7867C20.978 29.9264 20.7941 30 20.603 30C20.4118 30 20.2279 29.9264 20.0809 29.7867L16.9926 26.6985C16.7059 26.4118 16.7059 25.9412 16.9926 25.6544L20.0809 22.5661C20.3677 22.2794 20.8383 22.2794 21.125 22.5661C21.4118 22.8529 21.4118 23.3235 21.125 23.6103L18.5588 26.1765L21.125 28.7426ZM28.875 23.6103C28.5882 23.3235 28.5882 22.8529 28.875 22.5661C29.1617 22.2794 29.6323 22.2794 29.9191 22.5661L33.0074 25.6544C33.2941 25.9412 33.2941 26.4118 33.0074 26.6985L29.9191 29.7867C29.7721 29.9264 29.5882 30 29.397 30C29.2059 30 29.022 29.9264 28.875 29.7867C28.5882 29.5 28.5882 29.0294 28.875 28.7426L31.4412 26.1765L28.875 23.6103ZM26.2647 22.3897C26.6471 22.522 26.853 22.9338 26.7279 23.3235L24.6691 29.5C24.5662 29.8015 24.2794 30 23.9706 30C23.8971 30 23.8162 29.9853 23.7353 29.9632C23.3529 29.8309 23.147 29.4191 23.2721 29.0294L25.3309 22.8529C25.4632 22.4706 25.875 22.2647 26.2647 22.3897Z" fill="#4361EE"/>
<path d="M7.23403 29.7059C7.2772 29.7059 7.32756 29.699 7.37072 29.6921C7.76641 29.6164 8.01823 29.2587 7.93911 28.8872C7.72324 27.8414 7.61535 26.7682 7.61535 25.6949C7.61535 17.838 13.3349 11.1782 21.299 9.5958C21.7739 11.0406 23.1624 12.0932 24.8243 12.0932C26.8675 12.0932 28.5294 10.504 28.5294 8.54315C28.5294 6.58926 26.8675 5 24.8243 5C22.8962 5 21.3206 6.42416 21.148 8.2267C12.4427 9.88474 6.17647 17.1362 6.17647 25.6949C6.17647 26.8576 6.29156 28.0203 6.52899 29.1486C6.59372 29.4788 6.89592 29.7059 7.23403 29.7059Z" fill="#4361EE"/>
<path d="M35.6122 38.9918C32.6049 41.8897 28.7314 43.4828 24.7055 43.4828C19.9589 43.4828 15.5033 41.2828 12.3643 37.4291C12.9533 36.7312 13.3206 35.8057 13.3206 34.7891C13.3206 32.6347 11.7199 30.8824 9.75198 30.8824C7.77714 30.8824 6.17647 32.6347 6.17647 34.7891C6.17647 36.9436 7.77714 38.696 9.75198 38.696C10.2855 38.696 10.7844 38.5594 11.2418 38.3243C14.6441 42.5725 19.5154 45 24.7054 45C29.064 45 33.2631 43.2704 36.5269 40.1297C36.8179 39.8566 36.8456 39.3711 36.5892 39.0601C36.3397 38.7491 35.9032 38.7111 35.6122 38.9918Z" fill="#4361EE"/>
<path d="M42.2541 32.3403C42.8991 30.4123 43.2359 28.4044 43.2359 26.3531C43.2359 18.3073 38.1764 11.1604 30.6516 8.56543C30.279 8.44222 29.8705 8.64515 29.7415 9.02208C29.6196 9.39901 29.8203 9.81218 30.1929 9.94265C37.1372 12.3274 41.8026 18.9234 41.8026 26.3531C41.8026 28.2015 41.5016 30.0064 40.9426 31.746C40.6774 31.688 40.4051 31.6518 40.1257 31.6518C38.0904 31.6518 36.4349 33.3262 36.4349 35.3847C36.4349 37.4432 38.0904 39.1177 40.1257 39.1177C42.1681 39.1177 43.8235 37.4433 43.8235 35.3847C43.8235 34.1235 43.2001 33.0217 42.2541 32.3403Z" fill="#4361EE"/>
</g>
</g>
</g>
<defs>
<clipPath id="clip0_2765_13506">
<rect width="40" height="40" fill="white" transform="translate(5 5)"/>
</clipPath>
<clipPath id="clip1_2765_13506">
<rect width="40" height="40" fill="white" transform="translate(5 5)"/>
</clipPath>
<clipPath id="clip2_2765_13506">
<rect width="40" height="40" fill="white" transform="translate(5 5)"/>
</clipPath>
</defs>
</svg>
