<svg width="44" height="44" viewBox="0 0 44 44" fill="none" xmlns="http://www.w3.org/2000/svg">
<path d="M25.9869 9.22932C25.9869 9.60373 25.7845 9.93769 25.4607 10.1198L20.8766 12.6295L18.367 17.2135C18.195 17.5374 17.8509 17.7398 17.4866 17.7398C17.1122 17.7398 16.7782 17.5374 16.5961 17.2135L14.0865 12.6295L9.51249 10.1198C9.17854 9.93769 8.98633 9.60373 8.98633 9.22932C8.98633 8.86504 9.17854 8.52101 9.51249 8.34894L14.0865 5.83935L16.5961 1.25523C16.9503 0.607633 18.0229 0.607633 18.367 1.25523L20.8766 5.83935L25.4607 8.34894C25.7845 8.52101 25.9869 8.86504 25.9869 9.22932Z" fill="white"/>
<path d="M30.2573 23.0631C30.2573 23.4375 30.0549 23.7714 29.7311 23.9536L26.5637 25.684L24.8333 28.8615C24.6512 29.1854 24.3071 29.3878 23.9428 29.3878C23.5684 29.3878 23.2344 29.1854 23.0523 28.8615L21.3218 25.684L18.1444 23.9536C17.8206 23.7714 17.6182 23.4375 17.6182 23.0631C17.6182 22.6988 17.8206 22.3548 18.1444 22.1828L21.3218 20.4422L23.0523 17.2748C23.4065 16.6271 24.4791 16.6271 24.8333 17.2748L26.5637 20.4422L29.7311 22.1828C30.0549 22.3548 30.2573 22.6988 30.2573 23.0631Z" fill="white"/>
<path d="M9.32593 43.2308C9.18757 43.2308 9.04823 43.2021 8.91581 43.1438C8.55017 42.9818 8.31399 42.6191 8.31399 42.2188V35.3863C6.07072 34.9179 4.38086 32.9246 4.38086 30.545V17.6912C4.38086 14.9647 6.59942 12.7461 9.32593 12.7461H11.5119C12.0712 12.7461 12.5238 13.1987 12.5238 13.758C12.5238 14.3174 12.0712 14.77 11.5119 14.77H9.32593C7.71512 14.77 6.40474 16.0804 6.40474 17.6912V30.545C6.40474 32.1558 7.71512 33.4662 9.32593 33.4662C9.88526 33.4662 10.3379 33.9188 10.3379 34.4781V39.9331L17.1734 33.729C17.3592 33.56 17.6023 33.4662 17.8533 33.4662H34.6748C36.2856 33.4662 37.596 32.1558 37.596 30.545V17.6912C37.596 16.0804 36.2856 14.77 34.6748 14.77H23.6542C23.0948 14.77 22.6422 14.3174 22.6422 13.758C22.6422 13.1987 23.0948 12.7461 23.6542 12.7461H34.6748C37.4013 12.7461 39.6199 14.9647 39.6199 17.6912V30.545C39.6199 33.2715 37.4013 35.49 34.6748 35.49H18.2436L10.0058 42.9679C9.81608 43.1409 9.57298 43.2308 9.32593 43.2308Z" fill="white"/>
</svg>
