<svg width="50" height="49" viewBox="0 0 50 49" fill="none" xmlns="http://www.w3.org/2000/svg">
<g clip-path="url(#clip0_15047_14187)">
<path fill-rule="evenodd" clip-rule="evenodd" d="M24.3419 0C10.8996 0 0 11.1658 0 24.9401C0 35.9589 6.97511 45.3075 16.6461 48.6052C17.8631 48.8365 18.3101 48.0644 18.3101 47.4059C18.3101 46.8112 18.2875 44.8463 18.2765 42.7621C11.5046 44.2711 10.076 39.8199 10.076 39.8199C8.96832 36.9375 7.37304 36.1707 7.37304 36.1707C5.1641 34.6228 7.53944 34.6542 7.53944 34.6542C9.98379 34.8306 11.2705 37.2247 11.2705 37.2247C13.442 41.0375 16.9654 39.9353 18.3546 39.2979C18.5732 37.6862 19.2036 36.5853 19.8999 35.9629C14.4933 35.3331 8.80999 33.1941 8.80999 23.6377C8.80999 20.9152 9.76064 18.69 11.3175 16.9438C11.065 16.3154 10.2318 13.7786 11.5539 10.3435C11.5539 10.3435 13.5978 9.67274 18.2485 12.8997C20.1907 12.3473 22.273 12.0704 24.3416 12.0605C26.4103 12.0704 28.4944 12.3473 30.4396 12.8997C35.0858 9.67307 37.1271 10.3431 37.1271 10.3431C38.4518 13.7779 37.6188 16.3147 37.3657 16.9428C38.9265 18.6893 39.8707 20.9142 39.8707 23.6367C39.8707 33.2166 34.1764 35.3252 28.7563 35.9427C29.6292 36.7172 30.4074 38.2347 30.4074 40.5617C30.4074 43.8987 30.3796 46.5848 30.3796 47.4059C30.3796 48.07 30.8172 48.8471 32.051 48.6026C41.7188 45.3013 48.6842 35.9559 48.6842 24.9405C48.6839 11.1658 37.7856 0 24.3419 0Z" fill="#1B1817"/>
<path d="M9.47251 35.4519C9.4172 35.5796 9.2218 35.6183 9.04395 35.5301C8.86179 35.4465 8.76078 35.2726 8.8194 35.145C8.87339 35.0142 9.06879 34.9779 9.24995 35.0652C9.43144 35.149 9.53478 35.3243 9.47251 35.4519ZM10.4823 36.6106C10.3631 36.724 10.1296 36.6717 9.97228 36.4924C9.80801 36.3135 9.77787 36.0741 9.89876 35.9593C10.0213 35.8462 10.2478 35.8992 10.4111 36.0781C10.575 36.2588 10.6072 36.4958 10.4823 36.6106ZM11.4679 38.0878C11.3146 38.1975 11.0639 38.0953 10.9089 37.8671C10.7555 37.6389 10.7555 37.3655 10.9122 37.2558C11.0679 37.1465 11.3146 37.2456 11.4719 37.4711C11.6243 37.703 11.6243 37.9761 11.4679 38.0878ZM12.8215 39.5144C12.6844 39.6692 12.3926 39.6274 12.179 39.4159C11.9604 39.2094 11.8995 38.916 12.0366 38.7612C12.1757 38.606 12.4691 38.6491 12.6844 38.8597C12.9013 39.0654 12.9672 39.3609 12.8215 39.5144ZM14.6845 40.3419C14.6235 40.5423 14.3433 40.634 14.0598 40.548C13.7767 40.4604 13.5915 40.2254 13.6492 40.0227C13.7075 39.8207 13.9903 39.7256 14.2751 39.8169C14.5576 39.9042 14.7434 40.1378 14.6845 40.3419ZM16.7296 40.4947C16.7362 40.7063 16.4964 40.8819 16.1997 40.8853C15.9003 40.892 15.6582 40.7209 15.6549 40.5131C15.6549 40.2991 15.89 40.1259 16.1881 40.1209C16.4862 40.1141 16.7296 40.2849 16.7296 40.4944M18.6339 40.1636C18.6694 40.3694 18.463 40.5813 18.1676 40.6377C17.8775 40.6927 17.6089 40.565 17.5721 40.3609C17.5357 40.1494 17.746 39.9378 18.0358 39.8831C18.3316 39.8302 18.5962 39.9541 18.6339 40.1636Z" fill="#1B1817"/>
</g>
<defs>
<clipPath id="clip0_15047_14187">
<rect width="50" height="48.7647" fill="white"/>
</clipPath>
</defs>
</svg>
