<svg width="283" height="67" viewBox="0 0 283 67" fill="none" xmlns="http://www.w3.org/2000/svg">
<path d="M87.5388 38.4687H62.7946V16.7717H57.0146V42.0275H87.5388M95.1174 42.0258V16.7701H127.667V20.3307H100.897V27.1147H116.841V30.6247H100.897V38.467H128.034V42.0259M164.251 42.0258L150.91 31.4907L137.621 42.0258H131.055L147.592 28.943L132.068 16.77H139.21L151.189 26.2468L163.028 16.77H169.594L154.437 28.7003L171.393 42.0258M177.679 42.0275H183.442V16.7718H177.679V42.0275ZM227.255 20.3306H201.131V38.4686H227.255V20.3306ZM227.692 42.0275H200.695C197.883 42.0275 195.281 40.346 195.281 38.5141V20.2817C195.281 18.4568 197.883 16.77 200.695 16.77H227.692C230.503 16.77 233.105 18.4568 233.105 20.2817V38.5141C233.105 40.3459 230.503 42.0275 227.692 42.0275ZM278.21 42.0258L250.637 22.9272V42.0258H244.927V16.77H249.624L277.197 35.8214V16.77H282.89V42.0258M27.5382 5.41602L0 42.0275H7.01986L27.5382 10.4608L48.0564 42.0275H55.0762" fill="#A3ACB5"/>
<path d="M186.951 3.44151C186.916 3.35948 186.812 3.32975 186.742 3.3682L186.724 3.37166C186.393 3.52885 183.371 4.91181 180.56 4.91181C177.731 4.91181 174.728 3.52712 174.396 3.37166C174.378 3.3682 174.378 3.36993 174.378 3.36647L174.361 3.35948C174.343 3.35071 174.309 3.36814 174.291 3.37518C174.239 3.38742 174.204 3.39787 174.169 3.43632V3.49739C174.169 3.50616 174.151 3.51136 174.151 3.51835C174.151 3.57076 174.186 3.61966 174.221 3.65112C174.256 3.67028 177.172 5.65574 178.639 8.22273C180.089 10.7286 180.385 14.1949 180.403 14.3398C180.403 14.4254 180.473 14.4847 180.56 14.4847C180.647 14.4847 180.717 14.4183 180.717 14.3328C180.752 13.9644 181.066 10.6535 182.463 8.22273C183.93 5.68194 186.864 3.67028 186.881 3.65285C186.934 3.62491 186.951 3.57601 186.951 3.52712C186.969 3.52366 186.969 3.52013 186.969 3.51315C186.969 3.49041 186.969 3.46593 186.951 3.44151Z" fill="#A3ACB5"/>
<mask id="mask0_28296_9429" style="mask-type:luminance" maskUnits="userSpaceOnUse" x="0" y="0" width="384" height="67">
<path d="M0 -0.000403611H383.98V66.5713H0V-0.000403611Z" fill="white"/>
</mask>
<g mask="url(#mask0_28296_9429)">
<path d="M172.004 3.07105C86.1412 -10.5251 16.5537 25.409 15.8552 25.8054C15.8028 25.8647 9.70861 34.4318 9.70861 34.4318C9.67368 34.4946 9.48144 34.8718 9.55129 34.9207C9.60368 34.9748 9.97044 35.1285 10.0403 35.0866C10.7912 34.6046 86.211 -10.1863 171.951 3.39069C172.038 3.40291 172.126 3.34524 172.126 3.25618C172.126 3.24571 172.143 3.24044 172.143 3.22996C172.143 3.15313 172.073 3.08327 172.004 3.07105Z" fill="#A3ACB5"/>
</g>
</svg>
