<svg width="50" height="50" viewBox="0 0 50 50" fill="none" xmlns="http://www.w3.org/2000/svg">
<path d="M7.70666 32.2869L5.09098 33.2425L4.95054 41.0239L14.0051 37.7161C10.8995 36.6729 8.6316 34.8375 7.70666 32.2869Z" fill="#FDBD39"/>
<path d="M9.07553 24.0567L0 27.3721L5.09098 33.2425L7.70666 32.2869C6.78442 29.7438 7.35318 26.869 9.07553 24.0567Z" fill="#F69833"/>
<path d="M24.348 12.8285C12.7912 17.0503 5.34057 25.7622 7.70666 32.2869L49.5577 16.9982C47.1916 10.4734 35.9048 8.60662 24.348 12.8285Z" fill="#FECF33"/>
<path d="M32.9163 36.4566C44.4732 32.2347 51.9377 23.5615 49.5577 16.9982L7.70666 32.2869C10.0867 38.8503 21.3595 40.6784 32.9163 36.4566Z" fill="#EE6723"/>
<path d="M49.5577 16.9982L7.70666 32.2869C8.52616 34.5468 11.6513 35.6601 16.0361 35.6601C20.311 35.6601 25.7832 34.6027 31.4883 32.5186C43.0451 28.2967 51.1761 21.4612 49.5577 16.9982Z" fill="#F69833"/>
<path d="M41.2283 13.625C36.9533 13.625 31.4811 14.6824 25.7761 16.7665C14.2192 20.9884 6.08819 27.8238 7.70666 32.2869L49.5577 16.9982C48.7382 14.7383 45.6131 13.625 41.2283 13.625Z" fill="#FDBD39"/>
<path d="M38.917 41.4359C37.6856 41.4359 35.8688 40.3237 33.5173 38.1301C30.7354 35.535 27.5488 31.7339 24.5443 27.4272C21.5399 23.1207 19.0711 18.8151 17.5928 15.3037C15.9821 11.477 15.7524 9.12417 16.9102 8.31039C17.164 8.13214 17.47 8.04184 17.8196 8.04184C18.7614 8.04184 20.5963 8.74298 23.9894 12.0834L24.0636 12.1564L24.0536 12.2602C24.0304 12.5002 24.009 12.7423 23.9899 12.9799L23.9521 13.4518L23.6192 13.1164C19.9633 9.43322 18.3539 9.03558 17.8316 9.03558C17.6827 9.03558 17.5641 9.06587 17.479 9.12565C16.9769 9.4785 16.9445 11.2067 18.5061 14.9162C19.958 18.3651 22.3909 22.6055 25.3565 26.8563C28.3222 31.1075 31.4601 34.8524 34.1923 37.4011C37.1385 40.1495 38.4661 40.4462 38.9002 40.4462C39.0501 40.4462 39.1719 40.414 39.2622 40.3505C39.792 39.9783 39.7926 38.1269 38.0512 34.1342L37.9712 33.9509L38.1462 33.8552C38.3213 33.7593 38.4905 33.665 38.6493 33.5747L38.8589 33.4556L38.9556 33.677C40.1903 36.5061 41.3445 40.1018 39.8311 41.1658C39.5759 41.345 39.2684 41.4359 38.917 41.4359Z" fill="#EE6723"/>
<path d="M33.1968 36.3373L33.1793 36.5547C32.8871 40.17 32.1178 44.5163 30.112 44.6923C30.0716 44.6959 30.0298 44.6977 29.9879 44.6977C28.6253 44.6977 27.3361 42.7454 26.1564 38.8949C25.0401 35.2521 24.1739 30.361 23.7173 25.1228C23.2607 19.8856 23.2675 14.9179 23.7366 11.135C24.2478 7.01265 25.2211 4.85986 26.6292 4.73628C26.6708 4.73245 26.714 4.73047 26.7566 4.73047C27.7451 4.73047 29.2349 5.84976 30.76 11.0632L29.7642 11.2554C29.255 9.51323 28.7 8.09625 28.1491 7.12259C27.6395 6.22198 27.144 5.72601 26.7538 5.72601C26.741 5.72601 26.7281 5.72654 26.7153 5.72763C26.105 5.78124 25.2161 7.26177 24.7205 11.2579C24.2598 14.973 24.2543 19.8662 24.7049 25.0362C25.1557 30.2069 26.0078 35.0248 27.104 38.6024C27.595 40.2046 28.1335 41.5252 28.6613 42.4212C29.148 43.2475 29.6191 43.7026 29.9876 43.7026C30.0003 43.7026 30.0129 43.702 30.0255 43.7009C30.6095 43.6498 31.7101 42.1091 32.1733 36.6885L33.1968 36.3373Z" fill="#EE6723"/>
</svg>
