<svg width="50" height="50" viewBox="0 0 50 50" fill="none" xmlns="http://www.w3.org/2000/svg">
<path d="M27.1849 32.321H33.6016C34.0474 32.321 34.412 32.6897 34.412 33.1418V36.9335C35.1839 37.1257 35.8693 37.571 36.3586 38.1982C36.848 38.8254 37.1132 39.5984 37.112 40.3939C37.112 42.3585 35.5391 43.9523 33.6016 43.9523C33.1373 43.9493 32.6781 43.8548 32.2504 43.6744C31.8226 43.4939 31.4345 43.231 31.1083 42.9006C30.7822 42.5701 30.5243 42.1787 30.3494 41.7486C30.1745 41.3185 30.0861 40.8582 30.0891 40.3939C30.0891 38.7127 31.2432 37.3022 32.7912 36.9314V33.9627H27.187V43.6773C27.1878 43.8184 27.1521 43.9574 27.0835 44.0807C27.0149 44.204 26.9156 44.3076 26.7953 44.3814L21.1912 47.8002C21.0639 47.8777 20.9177 47.9184 20.7687 47.9176C20.6197 47.9169 20.4738 47.8748 20.3474 47.796L10.0849 41.3668C9.96675 41.2922 9.86944 41.1889 9.80204 41.0665C9.73465 40.9441 9.69936 40.8066 9.69948 40.6668V33.9606L4.5724 30.9814C4.4558 30.9138 4.35759 30.8186 4.28639 30.7042C4.21519 30.5898 4.17318 30.4596 4.16406 30.3252V19.5981C4.16406 19.3064 4.31615 19.0356 4.56406 18.8897L9.69948 15.8439V9.26891C9.69948 9.00016 9.82865 8.75016 10.0432 8.59807L10.087 8.56891L20.3516 2.2064C20.479 2.12765 20.6258 2.08594 20.7755 2.08594C20.9253 2.08594 21.0721 2.12765 21.1995 2.2064L26.8037 5.69599C27.0432 5.84599 27.1891 6.11266 27.1891 6.39599V15.8356H35.2224V11.8418C34.4503 11.6492 33.7649 11.2035 33.2756 10.576C32.7862 9.94843 32.5211 9.17511 32.5224 8.37932C32.5224 6.41474 34.0953 4.82099 36.0328 4.82099C37.9724 4.82099 39.5432 6.41474 39.5432 8.37932C39.5432 10.0606 38.3912 11.471 36.8432 11.8418V16.6627C36.8432 17.1085 36.4787 17.4752 36.0328 17.4772H27.1891V21.2397H40.9891C41.1677 20.4658 41.6021 19.7748 42.2222 19.2784C42.8422 18.782 43.6115 18.5093 44.4057 18.5043C46.3432 18.5043 47.9162 20.096 47.9162 22.0606C47.9162 24.0252 46.3453 25.6189 44.4057 25.6189C43.6113 25.6135 42.842 25.3403 42.222 24.8435C41.602 24.3468 41.1676 23.6555 40.9891 22.8814H27.1849V26.9168H37.5037L39.4099 29.3752C39.9412 29.0647 40.5453 28.9022 41.1599 28.9022C43.0995 28.9022 44.6703 30.4939 44.6703 32.4585C44.6703 34.4231 43.0995 36.0168 41.1599 36.0168C39.2224 36.0168 37.6495 34.4231 37.6495 32.4585C37.6495 31.7377 37.862 31.0668 38.2245 30.5064L36.7162 28.5585H27.1849V32.321ZM20.7745 3.8689L16.5182 6.50641V12.6897H14.8974V7.51057L11.3203 9.72932V15.8647L15.7161 18.6981L20.2307 15.8564V11.1147H21.8516V16.3147C21.8516 16.5981 21.7057 16.8627 21.4682 17.0127L16.587 20.0814V24.4168L19.5495 26.5189L18.6203 27.8647L15.6911 25.7856L12.5036 27.8793L11.6224 26.5043L14.9661 24.3064V20.1606L10.4932 17.2731L5.7849 20.0647V23.5564L9.89323 21.0793L10.7224 22.4897L5.7849 25.4668V29.7939L10.2974 32.4147L15.0266 29.5647L15.8536 30.9752L11.3203 33.7064V40.2106L15.2286 42.6585L20.1557 39.6877L20.9849 41.1002L16.7828 43.6335L20.7787 46.1356L25.5662 43.2127V31.171L15.6536 37.1981L14.8203 35.7918L25.5662 29.2585V6.85432L20.7745 3.8689ZM33.6016 38.4814C33.0996 38.4863 32.6197 38.6886 32.2657 39.0446C31.9117 39.4005 31.7121 39.8815 31.7099 40.3835V40.3981C31.7099 41.4543 32.5557 42.3106 33.6016 42.3106C34.1032 42.3051 34.5825 42.1026 34.9361 41.7467C35.2896 41.3908 35.489 40.9101 35.4912 40.4085V40.3814C35.489 39.8798 35.2896 39.3991 34.9361 39.0432C34.5825 38.6873 34.1032 38.4869 33.6016 38.4814ZM41.1641 30.5439C40.6621 30.5488 40.1822 30.7511 39.8282 31.1071C39.4742 31.463 39.2746 31.944 39.2724 32.446V32.4606C39.2724 33.5189 40.1182 34.3772 41.162 34.3772C41.664 34.3723 42.1438 34.17 42.4978 33.8141C42.8518 33.4581 43.0515 32.9772 43.0537 32.4752V32.446C43.0515 31.944 42.8518 31.463 42.4978 31.1071C42.1438 30.7511 41.6661 30.5488 41.1641 30.5439ZM44.4037 20.1481C43.9017 20.153 43.4218 20.3553 43.0678 20.7112C42.7138 21.0672 42.5142 21.5482 42.512 22.0502V22.0647C42.512 23.121 43.3599 23.9772 44.4037 23.9772C44.9053 23.9718 45.3846 23.7692 45.7382 23.4134C46.0917 23.0575 46.2911 22.5768 46.2932 22.0752V22.0481C46.2911 21.5464 46.0917 21.0658 45.7382 20.7099C45.3846 20.354 44.9053 20.1515 44.4037 20.146V20.1481ZM36.0307 6.46057C35.5291 6.46604 35.0498 6.66858 34.6962 7.02447C34.3427 7.38035 34.1433 7.86102 34.1412 8.36266V8.37724C34.1412 9.43557 34.987 10.2939 36.0307 10.2939C36.5327 10.289 37.0126 10.0867 37.3666 9.73074C37.7206 9.37479 37.9202 8.89382 37.9224 8.39182V8.36266C37.9202 7.86066 37.7206 7.37969 37.3666 7.02374C37.0126 6.6678 36.5327 6.46549 36.0307 6.46057Z" fill="url(#paint0_linear_21746_41393)"/>
<defs>
<linearGradient id="paint0_linear_21746_41393" x1="39.1649" y1="11.2517" x2="12.9136" y2="38.751" gradientUnits="userSpaceOnUse">
<stop stop-color="#6350FB"/>
<stop offset="0.5" stop-color="#3D8FFF"/>
<stop offset="1" stop-color="#9AD8F8"/>
</linearGradient>
</defs>
</svg>
