<svg width="100" height="100" viewBox="0 0 100 100" fill="none" xmlns="http://www.w3.org/2000/svg">
<g id="Frame 6">
<rect width="100" height="100" fill="#FF5D00" fill-opacity="0.1"/>
<g id="analytics-svgrepo-com 1" clip-path="url(#clip0_5748_31657)">
<g id="Group">
<g id="Group_2">
<path id="Vector" d="M70.125 42.625C68.3169 42.625 66.6829 43.34 65.4546 44.4835L56.2811 38.9789C56.3224 38.6695 56.3751 38.3624 56.3751 38.0416C56.3751 34.2489 53.2905 31.1666 49.5001 31.1666C47.6095 31.1666 45.8954 31.9344 44.651 33.1741L35.6791 29.5854C35.7019 29.3471 35.75 29.1179 35.75 28.875C35.75 25.0823 32.6654 22 28.875 22C25.0846 22 22 25.0823 22 28.875C22 31.8588 23.9227 34.3773 26.5834 35.326V43.0466C23.9227 43.9954 22 46.5163 22 49.5C22 52.4837 23.9227 55.0023 26.5834 55.951V63.6716C23.9227 64.6204 22 67.1413 22 70.125C22 73.9154 25.0846 77 28.875 77C32.6654 77 35.75 73.9154 35.75 70.125C35.75 69.8041 35.6973 69.4971 35.656 69.1877L44.8295 63.6809C46.0579 64.8267 47.6918 65.5417 49.4999 65.5417C53.2903 65.5417 56.3749 62.4571 56.3749 58.6667C56.3749 58.4239 56.3268 58.1924 56.3039 57.9564L65.2758 54.3676C66.5202 55.6073 68.2344 56.375 70.125 56.375C73.9154 56.375 77 53.2904 77 49.5C77 45.7073 73.9154 42.625 70.125 42.625ZM31.1666 35.326C32.1337 34.9823 33.0114 34.4529 33.7241 33.7425L42.696 37.3313C42.6731 37.5673 42.625 37.7987 42.625 38.0416C42.625 38.3625 42.6777 38.6695 42.719 38.9789L33.5455 44.4835C32.8649 43.851 32.0582 43.3651 31.1667 43.0466L31.1666 35.326ZM33.5454 65.1085C32.8648 64.476 32.0581 63.9901 31.1666 63.6716V55.951C32.1337 55.6073 33.0114 55.0779 33.7241 54.3675L42.696 57.9562C42.6731 58.1923 42.625 58.4238 42.625 58.6666C42.625 58.9875 42.6777 59.2945 42.719 59.6039L33.5454 65.1085ZM47.2084 52.2134C46.2413 52.5571 45.3636 53.0888 44.6509 53.7992L35.679 50.2105C35.7019 49.9721 35.75 49.743 35.75 49.5001C35.75 49.1792 35.6973 48.8722 35.656 48.5629L44.8295 43.056C45.5101 43.6907 46.3168 44.1766 47.2083 44.4929V52.2134H47.2084ZM63.321 50.2104L54.3491 53.7991C53.6364 53.0887 52.7588 52.557 51.7916 52.2133V44.4926C52.6831 44.1764 53.4898 43.6905 54.1704 43.0558L63.3439 48.5626C63.3026 48.872 63.2499 49.1791 63.2499 49.4999C63.25 49.7429 63.2981 49.9721 63.321 50.2104Z" fill="#FF5D00"/>
</g>
</g>
</g>
</g>
<defs>
<clipPath id="clip0_5748_31657">
<rect width="55" height="55" fill="white" transform="translate(22 22)"/>
</clipPath>
</defs>
</svg>
