<svg width="49" height="49" viewBox="0 0 49 49" fill="none" xmlns="http://www.w3.org/2000/svg">
<path d="M30.7215 6.65184L28.8549 9.28406C31.7734 10.6714 33.8789 13.2561 34.1193 16.2712H14.2131C14.4519 13.2561 16.5099 10.6729 19.4285 9.28406L17.5619 6.65184C17.4654 6.46044 17.5144 6.26903 17.6584 6.17256C17.8023 6.07609 17.9937 6.12509 18.1377 6.26903L20.0517 9.04519C21.2966 8.56591 22.6839 8.27956 24.1677 8.27956C25.6515 8.27956 26.9913 8.56744 28.2837 9.04519L30.1978 6.26903C30.2942 6.12509 30.4857 6.07762 30.6281 6.17256C30.7705 6.2675 30.8195 6.46044 30.7245 6.65184H30.7215ZM19.9537 13.495C20.5754 13.495 21.0547 13.0157 21.0547 12.394C21.0547 11.8198 20.5754 11.2931 19.9537 11.2931C19.3795 11.2931 18.8527 11.8198 18.8527 12.394C18.8527 13.0157 19.3795 13.495 19.9537 13.495ZM28.4721 13.495C29.0937 13.495 29.573 13.0157 29.573 12.394C29.573 11.8198 29.0937 11.2931 28.4721 11.2931C27.8978 11.2931 27.3711 11.8198 27.3711 12.394C27.3711 13.0157 27.8978 13.495 28.4721 13.495ZM8.42188 28.7585V19.9063C8.42188 18.6614 9.37891 17.6095 10.6713 17.6095C11.9162 17.6095 12.8732 18.663 12.8732 19.9063V28.7585C12.8732 30.0509 11.9162 31.0554 10.6713 31.0554C9.37891 31.0554 8.42188 30.0509 8.42188 28.7585ZM35.3627 28.7585V19.9063C35.3627 18.6614 36.3672 17.6095 37.6121 17.6095C38.857 17.6095 39.8615 18.663 39.8615 19.9063V28.7585C39.8615 30.0509 38.857 31.0554 37.6121 31.0554C36.3672 31.0554 35.3627 30.0509 35.3627 28.7585ZM14.2605 33.879V17.6569H34.1668V33.879C34.1668 34.836 33.3537 35.6491 32.3967 35.6491H30.4351V40.6732C30.4351 41.9181 29.4306 42.9226 28.1857 42.9226C26.9408 42.9226 25.9363 41.9181 25.9363 40.6732V35.6491H22.4435V40.6732C22.4435 41.9181 21.4865 42.9226 20.2416 42.9226C18.9492 42.9226 17.9922 41.9181 17.9922 40.6732V35.6491H15.9817C15.0721 35.6491 14.2605 34.836 14.2605 33.879Z" fill="#8EA0F5"/>
</svg>
