<svg width="74" height="74" viewBox="0 0 74 74" fill="none" xmlns="http://www.w3.org/2000/svg">
<g clip-path="url(#clip0_7829_9439)">
<path d="M57.2223 25.4497H16.7783C15.8787 25.4497 15.1494 26.0717 15.1494 26.839V55.7663C15.1494 56.5337 15.8787 57.1557 16.7783 57.1557H23.9885V66.9043C23.9885 69.1661 26.1383 70.9999 28.7904 70.9999C31.4423 70.9999 33.5922 69.1663 33.5922 66.9043V57.1557H40.3084V66.9043C40.3084 69.1661 42.4582 70.9999 45.1103 70.9999C47.7622 70.9999 49.9121 69.1663 49.9121 66.9043V57.1557H57.2225C58.1222 57.1557 58.8514 56.5337 58.8514 55.7663V26.839C58.8512 26.0717 58.122 25.4497 57.2223 25.4497Z" fill="#AAC148"/>
<path d="M8.30185 25.4429C5.64996 25.4429 3.5 27.2765 3.5 29.5385V46.1732C3.5 48.4351 5.64977 50.2688 8.30185 50.2688C10.9537 50.2688 13.1037 48.4352 13.1037 46.1732V29.5385C13.1035 27.2766 10.9537 25.4429 8.30185 25.4429Z" fill="#AAC148"/>
<path d="M65.6983 25.4429C63.0464 25.4429 60.8965 27.2765 60.8965 29.5385V46.1732C60.8965 48.4351 63.0462 50.2688 65.6983 50.2688C68.3502 50.2688 70.5002 48.4352 70.5002 46.1732V29.5385C70.5002 27.2766 68.3504 25.4429 65.6983 25.4429Z" fill="#AAC148"/>
<path d="M17.1052 23.4211H56.7991C57.8346 23.4211 58.6069 22.6075 58.3942 21.7431C57.0812 16.4056 53.097 11.9076 47.6908 9.30911L51.0841 4.08702C51.3137 3.73348 51.164 3.28792 50.7494 3.09205C50.334 2.89569 49.8124 3.02391 49.5827 3.37746L46.1637 8.63888C43.3634 7.5305 40.2426 6.91146 36.9522 6.91146C33.6615 6.91146 30.5407 7.5305 27.7404 8.63888L24.3214 3.37729C24.0916 3.02358 23.5692 2.89602 23.1549 3.09189C22.7403 3.28775 22.5906 3.73331 22.8202 4.08686L26.2136 9.30894C20.8073 11.9076 16.8231 16.4054 15.5101 21.7431C15.2972 22.6075 16.0695 23.4211 17.1052 23.4211ZM48.7963 15.6386C48.7963 16.508 47.97 17.2129 46.9505 17.2129C45.9312 17.2129 45.1047 16.5081 45.1047 15.6386C45.1047 14.7692 45.931 14.0642 46.9505 14.0642C47.97 14.0642 48.7963 14.7692 48.7963 15.6386ZM26.9534 14.0642C27.9727 14.0642 28.7993 14.769 28.7993 15.6386C28.7993 16.508 27.9729 17.2129 26.9534 17.2129C25.9341 17.2129 25.1076 16.5081 25.1076 15.6386C25.1076 14.7692 25.9339 14.0642 26.9534 14.0642Z" fill="#AAC148"/>
</g>
<defs>
<clipPath id="clip0_7829_9439">
<rect width="74" height="74" fill="white"/>
</clipPath>
</defs>
</svg>
