<svg width="50" height="50" viewBox="0 0 50 50" fill="none" xmlns="http://www.w3.org/2000/svg">
<rect width="50" height="50" rx="13.5294" fill="#0E9943"/>
<path d="M15.5267 20.4775H15.4601C14.6063 20.4775 13.9102 21.1759 13.9102 22.0275V28.7756C13.9102 29.6305 14.6063 30.3266 15.4601 30.3266H15.5278C16.3816 30.3266 17.0777 29.6282 17.0777 28.7756V22.0274C17.0766 21.1759 16.3794 20.4775 15.5267 20.4775Z" fill="#F5FAFE"/>
<path d="M17.8184 31.3807C17.8184 32.1645 18.459 32.8029 19.2428 32.8029H20.765V36.4479C20.765 37.3039 21.4633 38 22.3149 38H22.3815C23.2364 38 23.9336 37.3028 23.9336 36.4479V32.8029H26.0609V36.4479C26.0609 37.3039 26.7615 38 27.613 38H27.6786C28.5334 38 29.2296 37.3028 29.2296 36.4479V32.8029H30.7528C31.5355 32.8029 32.1762 32.1645 32.1762 31.3807V20.7256H17.8184V31.3807Z" fill="#F5FAFE"/>
<path d="M28.5742 14.2638L29.7833 12.3975C29.8611 12.2798 29.8266 12.1188 29.7078 12.0422C29.5902 11.9645 29.4292 11.9967 29.3525 12.1177L28.0991 14.0484C27.1587 13.6632 26.1084 13.4467 24.9992 13.4467C23.889 13.4467 22.8409 13.6632 21.8983 14.0484L20.6471 12.1177C20.5705 11.9967 20.4084 11.9645 20.2896 12.0422C20.1708 12.1188 20.1363 12.2798 20.2141 12.3975L21.4242 14.2638C19.2426 15.333 17.7715 17.3481 17.7715 19.6596C17.7715 19.8017 17.7804 19.9416 17.7926 20.0804H32.207C32.2192 19.9416 32.2269 19.8017 32.2269 19.6596C32.227 17.3481 30.7548 15.333 28.5742 14.2638ZM21.6574 17.6057C21.2743 17.6057 20.9635 17.297 20.9635 16.9129C20.9635 16.5287 21.2743 16.2212 21.6574 16.2212C22.0426 16.2212 22.3513 16.5287 22.3513 16.9129C22.3513 17.297 22.0404 17.6057 21.6574 17.6057ZM28.34 17.6057C27.957 17.6057 27.6461 17.297 27.6461 16.9129C27.6461 16.5287 27.957 16.2212 28.34 16.2212C28.7241 16.2212 29.0328 16.5287 29.0328 16.9129C29.0328 17.297 28.7241 17.6057 28.34 17.6057Z" fill="#F5FAFE"/>
<path d="M34.5364 20.4775H34.4721C33.6183 20.4775 32.9199 21.1759 32.9199 22.0275V28.7756C32.9199 29.6305 33.6194 30.3266 34.4721 30.3266H34.5376C35.3924 30.3266 36.0875 29.6282 36.0875 28.7756V22.0274C36.0875 21.1759 35.3902 20.4775 34.5364 20.4775Z" fill="#F5FAFE"/>
</svg>
