<svg width="164" height="51" viewBox="0 0 164 51" fill="none" xmlns="http://www.w3.org/2000/svg">
<path d="M26.344 1.78711L4 9.75511L7.408 39.2991L26.344 49.7871L45.28 39.2991L48.688 9.75511L26.344 1.78711Z" fill="#DD0031"/>
<path d="M26.3438 1.78711V7.11511V7.09111V31.4031V49.7871L45.2798 39.2991L48.6878 9.75511L26.3438 1.78711Z" fill="#C3002F"/>
<path d="M26.343 7.09082L12.375 38.4108H17.583L20.391 31.4028H32.247L35.055 38.4108H40.263L26.343 7.09082ZM30.423 27.0828H22.263L26.343 17.2668L30.423 27.0828Z" fill="white"/>
<path d="M72.358 32.7871H70.5114L75.8523 18.2417H77.6705L83.0114 32.7871H81.1648L76.8182 20.5428H76.7045L72.358 32.7871ZM73.0398 27.1053H80.483V28.6678H73.0398V27.1053ZM86.7259 26.2246V32.7871H85.0497V21.878H86.669V23.5826H86.8111C87.0668 23.0286 87.455 22.5835 87.9759 22.2473C88.4967 21.9064 89.169 21.736 89.9929 21.736C90.7315 21.736 91.3778 21.8875 91.9318 22.1905C92.4858 22.4888 92.9167 22.9434 93.2244 23.5542C93.5322 24.1602 93.6861 24.9273 93.6861 25.8553V32.7871H92.0099V25.9689C92.0099 25.1119 91.7874 24.4443 91.3423 23.9661C90.8973 23.4831 90.2865 23.2417 89.5099 23.2417C88.9749 23.2417 88.4967 23.3577 88.0753 23.5897C87.6586 23.8217 87.3295 24.1602 87.0881 24.6053C86.8466 25.0504 86.7259 25.5901 86.7259 26.2246ZM101.152 37.1053C100.343 37.1053 99.6467 37.0011 99.0643 36.7928C98.4819 36.5892 97.9966 36.3193 97.6083 35.9831C97.2248 35.6517 96.9194 35.2966 96.6921 34.9178L98.0273 33.9803C98.1789 34.1792 98.3706 34.4064 98.6026 34.6621C98.8346 34.9225 99.1519 35.1474 99.5543 35.3368C99.9615 35.531 100.494 35.628 101.152 35.628C102.033 35.628 102.76 35.415 103.333 34.9888C103.906 34.5627 104.192 33.8951 104.192 32.986V30.7701H104.05C103.927 30.9689 103.752 31.2151 103.525 31.5087C103.302 31.7975 102.98 32.0556 102.559 32.2828C102.142 32.5054 101.578 32.6167 100.868 32.6167C99.9876 32.6167 99.1969 32.4083 98.4961 31.9917C97.8001 31.575 97.2485 30.9689 96.8413 30.1735C96.4388 29.378 96.2376 28.4121 96.2376 27.2757C96.2376 26.1583 96.4341 25.1853 96.8271 24.3567C97.2201 23.5234 97.7669 22.8794 98.4677 22.4249C99.1684 21.9656 99.9781 21.736 100.897 21.736C101.607 21.736 102.17 21.8543 102.587 22.0911C103.008 22.3231 103.33 22.5882 103.553 22.8865C103.78 23.1801 103.955 23.4216 104.078 23.611H104.249V21.878H105.868V33.0996C105.868 34.0371 105.655 34.7994 105.229 35.3865C104.808 35.9784 104.239 36.4116 103.525 36.6863C102.814 36.9656 102.024 37.1053 101.152 37.1053ZM101.096 31.111C101.768 31.111 102.336 30.9571 102.8 30.6493C103.264 30.3416 103.617 29.8989 103.858 29.3212C104.1 28.7435 104.221 28.0523 104.221 27.2473C104.221 26.4614 104.102 25.7677 103.865 25.1664C103.629 24.565 103.278 24.0939 102.814 23.753C102.35 23.4121 101.777 23.2417 101.096 23.2417C100.385 23.2417 99.7934 23.4216 99.32 23.7814C98.8512 24.1413 98.4985 24.6242 98.2617 25.2303C98.0297 25.8364 97.9137 26.5087 97.9137 27.2473C97.9137 28.0049 98.0321 28.6749 98.2688 29.2573C98.5103 29.8349 98.8654 30.2895 99.3342 30.6209C99.8076 30.9476 100.395 31.111 101.096 31.111ZM115.811 28.3269V21.878H117.488V32.7871H115.811V30.9405H115.698C115.442 31.4945 115.044 31.9656 114.505 32.3539C113.965 32.7374 113.283 32.9292 112.459 32.9292C111.777 32.9292 111.171 32.78 110.641 32.4817C110.111 32.1787 109.694 31.7241 109.391 31.1181C109.088 30.5073 108.936 29.7379 108.936 28.8098V21.878H110.613V28.6962C110.613 29.4917 110.835 30.1261 111.28 30.5996C111.73 31.0731 112.303 31.3098 112.999 31.3098C113.416 31.3098 113.839 31.2033 114.27 30.9902C114.706 30.7772 115.07 30.4505 115.364 30.0101C115.662 29.5698 115.811 29.0087 115.811 28.3269ZM122.234 18.2417V32.7871H120.558V18.2417H122.234ZM128.514 33.0428C127.823 33.0428 127.195 32.9126 126.632 32.6522C126.068 32.387 125.621 32.0059 125.289 31.5087C124.958 31.0068 124.792 30.4007 124.792 29.6905C124.792 29.0655 124.915 28.5589 125.162 28.1706C125.408 27.7776 125.737 27.4699 126.149 27.2473C126.561 27.0248 127.015 26.8591 127.512 26.7502C128.014 26.6365 128.519 26.5466 129.025 26.4803C129.688 26.3951 130.225 26.3311 130.637 26.2885C131.054 26.2412 131.357 26.1631 131.547 26.0542C131.741 25.9453 131.838 25.7559 131.838 25.486V25.4292C131.838 24.7284 131.646 24.1839 131.262 23.7956C130.884 23.4074 130.308 23.2132 129.537 23.2132C128.736 23.2132 128.109 23.3884 127.654 23.7388C127.2 24.0892 126.88 24.4632 126.696 24.861L125.105 24.2928C125.389 23.6299 125.768 23.1138 126.241 22.7445C126.719 22.3704 127.24 22.11 127.804 21.9632C128.372 21.8117 128.931 21.736 129.48 21.736C129.83 21.736 130.233 21.7786 130.687 21.8638C131.146 21.9443 131.589 22.1124 132.015 22.3681C132.446 22.6238 132.804 23.0096 133.088 23.5257C133.372 24.0418 133.514 24.7331 133.514 25.5996V32.7871H131.838V31.3098H131.752C131.639 31.5466 131.449 31.7999 131.184 32.0698C130.919 32.3397 130.566 32.5693 130.126 32.7587C129.686 32.9481 129.148 33.0428 128.514 33.0428ZM128.77 31.5371C129.432 31.5371 129.991 31.4069 130.446 31.1465C130.905 30.8861 131.251 30.5499 131.483 30.138C131.719 29.726 131.838 29.2928 131.838 28.8382V27.3042C131.767 27.3894 131.61 27.4675 131.369 27.5385C131.132 27.6048 130.858 27.664 130.545 27.7161C130.237 27.7634 129.937 27.806 129.643 27.8439C129.354 27.8771 129.12 27.9055 128.94 27.9292C128.504 27.986 128.097 28.0783 127.718 28.2061C127.344 28.3292 127.041 28.5163 126.809 28.7672C126.582 29.0134 126.468 29.3496 126.468 29.7757C126.468 30.3581 126.684 30.7985 127.115 31.0968C127.55 31.3903 128.102 31.5371 128.77 31.5371ZM136.573 32.7871V21.878H138.192V23.5257H138.306C138.505 22.986 138.865 22.548 139.386 22.2118C139.906 21.8757 140.494 21.7076 141.147 21.7076C141.27 21.7076 141.424 21.7099 141.609 21.7147C141.793 21.7194 141.933 21.7265 142.028 21.736V23.4405C141.971 23.4263 141.841 23.405 141.637 23.3766C141.438 23.3435 141.228 23.3269 141.005 23.3269C140.475 23.3269 140.001 23.4382 139.585 23.6607C139.173 23.8785 138.846 24.1815 138.604 24.5698C138.368 24.9533 138.249 25.3913 138.249 25.8837V32.7871H136.573ZM148.677 18.2417H150.439V28.6394C150.439 29.5674 150.268 30.3558 149.927 31.0044C149.586 31.6531 149.106 32.1455 148.485 32.4817C147.865 32.8179 147.134 32.986 146.291 32.986C145.495 32.986 144.788 32.8416 144.167 32.5527C143.547 32.2592 143.059 31.8425 142.704 31.3027C142.349 30.763 142.172 30.1214 142.172 29.378H143.904C143.904 29.79 144.006 30.1498 144.21 30.4576C144.418 30.7606 144.702 30.9973 145.062 31.1678C145.422 31.3382 145.832 31.4235 146.291 31.4235C146.797 31.4235 147.228 31.3169 147.583 31.1039C147.939 30.8908 148.208 30.5783 148.393 30.1664C148.583 29.7497 148.677 29.2407 148.677 28.6394V18.2417ZM161.923 21.878C161.838 21.1583 161.492 20.5996 160.886 20.2019C160.28 19.8042 159.537 19.6053 158.656 19.6053C158.012 19.6053 157.449 19.7095 156.966 19.9178C156.487 20.1261 156.113 20.4126 155.843 20.7772C155.578 21.1417 155.446 21.556 155.446 22.0201C155.446 22.4083 155.538 22.7421 155.723 23.0215C155.912 23.2961 156.154 23.5257 156.447 23.7104C156.741 23.8903 157.048 24.0395 157.37 24.1578C157.692 24.2715 157.988 24.3638 158.258 24.4348L159.735 24.8326C160.114 24.932 160.536 25.0693 161 25.2445C161.468 25.4197 161.916 25.6588 162.342 25.9618C162.773 26.2601 163.128 26.6436 163.407 27.1124C163.687 27.5811 163.826 28.1564 163.826 28.8382C163.826 29.6242 163.62 30.3345 163.208 30.9689C162.801 31.6034 162.205 32.1077 161.419 32.4817C160.637 32.8558 159.688 33.0428 158.571 33.0428C157.529 33.0428 156.627 32.8747 155.865 32.5385C155.107 32.2024 154.511 31.7336 154.075 31.1323C153.644 30.531 153.4 29.8326 153.343 29.0371H155.162C155.209 29.5864 155.394 30.0409 155.716 30.4007C156.042 30.7559 156.454 31.021 156.951 31.1962C157.453 31.3667 157.993 31.4519 158.571 31.4519C159.243 31.4519 159.847 31.343 160.382 31.1252C160.917 30.9026 161.341 30.5949 161.653 30.2019C161.966 29.8042 162.122 29.3401 162.122 28.8098C162.122 28.3269 161.987 27.9339 161.717 27.6309C161.447 27.3278 161.092 27.0816 160.652 26.8922C160.211 26.7028 159.735 26.5371 159.224 26.3951L157.434 25.8837C156.298 25.557 155.398 25.0906 154.735 24.4846C154.073 23.8785 153.741 23.0854 153.741 22.1053C153.741 21.2909 153.961 20.5807 154.402 19.9746C154.847 19.3638 155.443 18.8903 156.191 18.5542C156.944 18.2132 157.785 18.0428 158.713 18.0428C159.65 18.0428 160.484 18.2109 161.213 18.5471C161.942 18.8785 162.52 19.333 162.946 19.9107C163.377 20.4883 163.604 21.1441 163.627 21.878H161.923Z" fill="white"/>
</svg>
