<svg xmlns="http://www.w3.org/2000/svg" width="76" height="76" viewBox="0 0 76 76" fill="none">
  <g clip-path="url(#clip0_8630_12149)">
    <path d="M37.8849 0.0957031L0.253906 12.6504L6.20061 59.3892L37.9247 75.9186L69.8126 59.1652L75.7569 12.428L37.8849 0.0957031Z" fill="#B3B3B3"/>
    <path d="M71.9995 15.1305L37.793 4.07227V71.9707L66.4595 56.9304L71.9995 15.1305Z" fill="#A6120D"/>
    <path d="M4.47656 15.3289L9.57242 57.1294L37.7963 71.9699V4.07031L4.47686 15.3287L4.47656 15.3289Z" fill="#DD1B16"/>
    <path d="M47.2136 40.217L37.7976 44.3913H27.8734L23.2083 55.4532L14.5312 55.6052L37.7976 6.53711L47.2136 40.2173V40.217ZM46.3034 38.1155L37.8603 22.2697L30.9345 37.8428H37.7973L46.3034 38.1158V38.1155Z" fill="#F2F2F2"/>
    <path d="M37.793 6.53711L37.8553 22.27L45.7136 37.8552H37.8108L37.793 44.3814L48.7209 44.3913L53.8284 55.6071L62.1311 55.7529L37.793 6.53711Z" fill="#B3B3B3"/>
  </g>
  <defs>
    <clipPath id="clip0_8630_12149">
      <rect width="76" height="76" fill="white"/>
    </clipPath>
  </defs>
</svg>