<svg width="74" height="74" viewBox="0 0 74 74" fill="none" xmlns="http://www.w3.org/2000/svg">
<path d="M74 37C74 57.4327 57.4373 74 37 74C16.5673 74 0 57.4373 0 37C0 16.5673 16.5673 0 37 0C57.4373 0.00456903 74 16.5673 74 37Z" fill="#1A1918"/>
<path d="M37.626 22.603L47.1981 46.234L32.7371 34.8434L37.626 22.603ZM54.6365 51.6803L39.9105 16.2383C39.4901 15.2149 38.6494 14.6757 37.6305 14.6757C36.6071 14.6757 35.707 15.2149 35.2866 16.2383L19.1168 55.1116H24.6453L31.042 39.0835L50.136 54.5085C50.9036 55.1299 51.4564 55.4086 52.1783 55.4086C53.6221 55.4086 54.8832 54.3258 54.8832 52.7677C54.8878 52.5164 54.7964 52.1143 54.6365 51.6803Z" fill="white"/>
</svg>
