<svg width="139" height="51" viewBox="0 0 139 51" fill="none" xmlns="http://www.w3.org/2000/svg">
<path d="M50 25.7871C50 39.593 38.809 50.7871 25 50.7871C11.1941 50.7871 0 39.5961 0 25.7871C0 11.9812 11.1941 0.787109 25 0.787109C38.809 0.790197 50 11.9812 50 25.7871Z" fill="#1A1918"/>
<path d="M25.4229 16.0594L31.8906 32.0263L22.1197 24.33L25.4229 16.0594ZM36.9165 35.7062L26.9665 11.759C26.6825 11.0674 26.1145 10.7031 25.426 10.7031C24.7345 10.7031 24.1263 11.0674 23.8423 11.759L12.9168 38.0247H16.6523L20.9743 27.1949L33.8757 37.6172C34.3943 38.037 34.7678 38.2254 35.2556 38.2254C36.2312 38.2254 37.0832 37.4937 37.0832 36.441C37.0863 36.2712 37.0246 35.9995 36.9165 35.7062Z" fill="white"/>
<path d="M72.358 32.7871H70.5114L75.8523 18.2417H77.6705L83.0114 32.7871H81.1648L76.8182 20.5428H76.7045L72.358 32.7871ZM73.0398 27.1053H80.483V28.6678H73.0398V27.1053ZM86.7259 26.2246V32.7871H85.0497V21.878H86.669V23.5826H86.8111C87.0668 23.0286 87.455 22.5835 87.9759 22.2473C88.4967 21.9064 89.169 21.736 89.9929 21.736C90.7315 21.736 91.3778 21.8875 91.9318 22.1905C92.4858 22.4888 92.9167 22.9434 93.2244 23.5542C93.5322 24.1602 93.6861 24.9273 93.6861 25.8553V32.7871H92.0099V25.9689C92.0099 25.1119 91.7874 24.4443 91.3423 23.9661C90.8973 23.4831 90.2865 23.2417 89.5099 23.2417C88.9749 23.2417 88.4967 23.3577 88.0753 23.5897C87.6586 23.8217 87.3295 24.1602 87.0881 24.6053C86.8466 25.0504 86.7259 25.5901 86.7259 26.2246ZM104.476 24.3212L102.971 24.7473C102.876 24.4964 102.736 24.2525 102.551 24.0158C102.372 23.7743 102.125 23.5755 101.813 23.4192C101.5 23.263 101.1 23.1848 100.613 23.1848C99.945 23.1848 99.3886 23.3387 98.9435 23.6465C98.5032 23.9495 98.283 24.3354 98.283 24.8042C98.283 25.2208 98.4345 25.5499 98.7376 25.7914C99.0406 26.0328 99.5141 26.2341 100.158 26.3951L101.777 26.7928C102.753 27.0295 103.48 27.3917 103.958 27.8794C104.436 28.3624 104.675 28.985 104.675 29.7473C104.675 30.3723 104.495 30.931 104.135 31.4235C103.78 31.9159 103.283 32.3042 102.644 32.5882C102.005 32.8723 101.261 33.0144 100.414 33.0144C99.301 33.0144 98.3801 32.7729 97.6509 32.29C96.9218 31.807 96.4601 31.1015 96.266 30.1735L97.8569 29.7757C98.0084 30.3629 98.2949 30.8032 98.7163 31.0968C99.1424 31.3903 99.6987 31.5371 100.385 31.5371C101.167 31.5371 101.787 31.3714 102.246 31.04C102.71 30.7038 102.942 30.3013 102.942 29.8326C102.942 29.4538 102.81 29.1365 102.544 28.8809C102.279 28.6204 101.872 28.4263 101.323 28.2985L99.5046 27.8723C98.5056 27.6356 97.7717 27.2686 97.3029 26.7715C96.8389 26.2696 96.6069 25.6422 96.6069 24.8894C96.6069 24.2739 96.7797 23.7293 97.1254 23.2559C97.4757 22.7824 97.9516 22.4107 98.5529 22.1408C99.159 21.8709 99.8455 21.736 100.613 21.736C101.692 21.736 102.54 21.9727 103.155 22.4462C103.775 22.9197 104.216 23.5447 104.476 24.3212ZM107.198 32.7871V21.878H108.874V32.7871H107.198ZM108.05 20.0598C107.724 20.0598 107.442 19.9486 107.205 19.726C106.973 19.5035 106.857 19.236 106.857 18.9235C106.857 18.611 106.973 18.3435 107.205 18.1209C107.442 17.8984 107.724 17.7871 108.05 17.7871C108.377 17.7871 108.656 17.8984 108.888 18.1209C109.125 18.3435 109.244 18.611 109.244 18.9235C109.244 19.236 109.125 19.5035 108.888 19.726C108.656 19.9486 108.377 20.0598 108.05 20.0598ZM112.172 32.7871V18.2417H113.848V23.611H113.99C114.113 23.4216 114.283 23.1801 114.501 22.8865C114.724 22.5882 115.041 22.3231 115.453 22.0911C115.869 21.8543 116.433 21.736 117.143 21.736C118.062 21.736 118.871 21.9656 119.572 22.4249C120.273 22.8842 120.82 23.5352 121.213 24.378C121.606 25.2208 121.802 26.2151 121.802 27.361C121.802 28.5163 121.606 29.5177 121.213 30.3652C120.82 31.208 120.275 31.8614 119.579 32.3255C118.883 32.7847 118.081 33.0144 117.172 33.0144C116.471 33.0144 115.91 32.8984 115.488 32.6664C115.067 32.4296 114.743 32.1621 114.515 31.8638C114.288 31.5608 114.113 31.3098 113.99 31.111H113.791V32.7871H112.172ZM113.819 27.3326C113.819 28.1564 113.94 28.8832 114.181 29.513C114.423 30.138 114.776 30.628 115.24 30.9831C115.704 31.3335 116.272 31.5087 116.944 31.5087C117.645 31.5087 118.23 31.324 118.699 30.9547C119.172 30.5807 119.527 30.0788 119.764 29.449C120.005 28.8146 120.126 28.1091 120.126 27.3326C120.126 26.5655 120.008 25.8742 119.771 25.2587C119.539 24.6384 119.186 24.1484 118.713 23.7885C118.244 23.4239 117.654 23.2417 116.944 23.2417C116.262 23.2417 115.69 23.4145 115.225 23.7601C114.761 24.101 114.411 24.5792 114.174 25.1948C113.938 25.8056 113.819 26.5182 113.819 27.3326ZM126.042 18.2417V32.7871H124.366V18.2417H126.042ZM133.686 33.0144C132.635 33.0144 131.728 32.7824 130.966 32.3184C130.208 31.8496 129.624 31.1962 129.212 30.3581C128.804 29.5153 128.601 28.5352 128.601 27.4178C128.601 26.3004 128.804 25.3155 129.212 24.4632C129.624 23.6062 130.196 22.9386 130.93 22.4604C131.669 21.9775 132.531 21.736 133.516 21.736C134.084 21.736 134.645 21.8307 135.199 22.0201C135.753 22.2095 136.257 22.5172 136.712 22.9434C137.166 23.3648 137.528 23.9235 137.798 24.6195C138.068 25.3155 138.203 26.1725 138.203 27.1905V27.9007H129.794V26.4519H136.499C136.499 25.8364 136.375 25.2871 136.129 24.8042C135.888 24.3212 135.542 23.94 135.092 23.6607C134.647 23.3813 134.122 23.2417 133.516 23.2417C132.848 23.2417 132.27 23.4074 131.783 23.7388C131.3 24.0655 130.928 24.4917 130.668 25.0172C130.407 25.5428 130.277 26.1062 130.277 26.7076V27.6735C130.277 28.4973 130.419 29.1957 130.703 29.7686C130.992 30.3368 131.392 30.7701 131.903 31.0684C132.415 31.3619 133.009 31.5087 133.686 31.5087C134.126 31.5087 134.524 31.4471 134.879 31.324C135.239 31.1962 135.549 31.0068 135.81 30.7559C136.07 30.5002 136.271 30.1829 136.413 29.8042L138.033 30.2587C137.862 30.8079 137.576 31.2909 137.173 31.7076C136.771 32.1195 136.274 32.4415 135.682 32.6735C135.09 32.9007 134.425 33.0144 133.686 33.0144Z" fill="white"/>
</svg>
