<svg width="269" height="51" viewBox="0 0 269 51" fill="none" xmlns="http://www.w3.org/2000/svg">
<path d="M6.67754 35.3005L7.0281 35.6982L24.7696 40.7125L24.8501 37.6047L12.4255 34.4949L11.817 34.2759L6.67754 35.3005Z" fill="#B7CA9D"/>
<path d="M42.6481 35.3204L24.5298 41.3655L24.4755 37.6301L36.8987 34.5129L37.4406 33.9028L42.6481 35.3204Z" fill="#B7CA9D"/>
<path d="M12.3916 34.5006L6.6492 35.302L6.49019 34.7104V16.8025L6.6492 16.1789L11.8381 16.5626L12.3916 16.9804V34.5006Z" fill="#759C3E"/>
<path d="M24.6341 0.787109L4.05469 11.1404L4.06473 40.4379L24.6341 50.7871L24.9415 50.3225V1.38788L24.6341 0.787109ZM18.6168 38.9279L6.71074 35.3654V16.2068L18.6168 12.6463V38.9279ZM36.8756 34.5623L42.6076 35.3654L42.9291 34.7986V16.7495L42.6076 16.2048L36.8756 17.0079V34.5623Z" fill="#4B612C"/>
<path d="M24.6628 50.7871L45.2609 40.4394L45.2709 11.1408L24.6628 0.787109V50.7871ZM30.7226 12.6448L42.6174 16.2055V35.3668L30.7226 38.9295V12.6448Z" fill="#759C3E"/>
<path d="M24.8501 14.0666L12.4255 16.9252L6.67754 16.1275L6.89513 15.7913L24.7716 10.7685L24.8501 14.0666Z" fill="#3C4929"/>
<path d="M24.4755 14.0478L36.9001 16.9252L42.364 16.6669L42.6481 16.1222L25.3357 9.9289L24.4755 14.0478Z" fill="#3C4929"/>
<path d="M72.358 32.7871H70.5114L75.8523 18.2417H77.6705L83.0114 32.7871H81.1648L76.8182 20.5428H76.7045L72.358 32.7871ZM73.0398 27.1053H80.483V28.6678H73.0398V27.1053ZM86.7862 32.7871L82.8089 18.2417H84.5987L87.6385 30.0882H87.7805L90.8771 18.2417H92.8658L95.9624 30.0882H96.1044L99.1442 18.2417H100.934L96.9567 32.7871H95.1385L91.9283 21.1962H91.8146L88.6044 32.7871H86.7862ZM111.083 21.878C110.998 21.1583 110.652 20.5996 110.046 20.2019C109.44 19.8042 108.697 19.6053 107.816 19.6053C107.172 19.6053 106.609 19.7095 106.126 19.9178C105.647 20.1261 105.273 20.4126 105.004 20.7772C104.738 21.1417 104.606 21.556 104.606 22.0201C104.606 22.4083 104.698 22.7421 104.883 23.0215C105.072 23.2961 105.314 23.5257 105.607 23.7104C105.901 23.8903 106.209 24.0395 106.531 24.1578C106.853 24.2715 107.148 24.3638 107.418 24.4348L108.896 24.8326C109.274 24.932 109.696 25.0693 110.16 25.2445C110.629 25.4197 111.076 25.6588 111.502 25.9618C111.933 26.2601 112.288 26.6436 112.567 27.1124C112.847 27.5811 112.987 28.1564 112.987 28.8382C112.987 29.6242 112.781 30.3345 112.369 30.9689C111.961 31.6034 111.365 32.1077 110.579 32.4817C109.798 32.8558 108.848 33.0428 107.731 33.0428C106.689 33.0428 105.787 32.8747 105.025 32.5385C104.267 32.2024 103.671 31.7336 103.235 31.1323C102.804 30.531 102.56 29.8326 102.504 29.0371H104.322C104.369 29.5864 104.554 30.0409 104.876 30.4007C105.202 30.7559 105.614 31.021 106.112 31.1962C106.613 31.3667 107.153 31.4519 107.731 31.4519C108.403 31.4519 109.007 31.343 109.542 31.1252C110.077 30.9026 110.501 30.5949 110.813 30.2019C111.126 29.8042 111.282 29.3401 111.282 28.8098C111.282 28.3269 111.147 27.9339 110.877 27.6309C110.607 27.3278 110.252 27.0816 109.812 26.8922C109.371 26.7028 108.896 26.5371 108.384 26.3951L106.594 25.8837C105.458 25.557 104.558 25.0906 103.896 24.4846C103.233 23.8785 102.901 23.0854 102.901 22.1053C102.901 21.2909 103.121 20.5807 103.562 19.9746C104.007 19.3638 104.603 18.8903 105.352 18.5542C106.104 18.2132 106.945 18.0428 107.873 18.0428C108.81 18.0428 109.644 18.2109 110.373 18.5471C111.102 18.8785 111.68 19.333 112.106 19.9107C112.537 20.4883 112.764 21.1441 112.788 21.878H111.083ZM133.212 22.7871H131.451C131.346 22.2805 131.164 21.8354 130.904 21.4519C130.648 21.0684 130.336 20.7464 129.966 20.486C129.602 20.2208 129.197 20.022 128.752 19.8894C128.307 19.7568 127.843 19.6905 127.36 19.6905C126.479 19.6905 125.681 19.9131 124.966 20.3581C124.256 20.8032 123.69 21.459 123.269 22.3255C122.852 23.1919 122.644 24.2549 122.644 25.5144C122.644 26.7739 122.852 27.8368 123.269 28.7033C123.69 29.5698 124.256 30.2256 124.966 30.6706C125.681 31.1157 126.479 31.3382 127.36 31.3382C127.843 31.3382 128.307 31.272 128.752 31.1394C129.197 31.0068 129.602 30.8103 129.966 30.5499C130.336 30.2847 130.648 29.9604 130.904 29.5769C131.164 29.1886 131.346 28.7435 131.451 28.2417H133.212C133.079 28.985 132.838 29.6503 132.488 30.2374C132.137 30.8245 131.702 31.324 131.181 31.736C130.66 32.1432 130.075 32.4533 129.426 32.6664C128.783 32.8794 128.094 32.986 127.36 32.986C126.119 32.986 125.016 32.6829 124.05 32.0769C123.084 31.4708 122.324 30.6091 121.77 29.4917C121.216 28.3742 120.939 27.0485 120.939 25.5144C120.939 23.9803 121.216 22.6545 121.77 21.5371C122.324 20.4197 123.084 19.5579 124.05 18.9519C125.016 18.3458 126.119 18.0428 127.36 18.0428C128.094 18.0428 128.783 18.1493 129.426 18.3624C130.075 18.5755 130.66 18.888 131.181 19.2999C131.702 19.7071 132.137 20.2042 132.488 20.7914C132.838 21.3738 133.079 22.039 133.212 22.7871ZM137.507 18.2417V32.7871H135.831V18.2417H137.507ZM145.009 33.0144C144.024 33.0144 143.16 32.78 142.417 32.3113C141.678 31.8425 141.1 31.1867 140.684 30.3439C140.272 29.5011 140.066 28.5163 140.066 27.3894C140.066 26.253 140.272 25.2611 140.684 24.4135C141.1 23.566 141.678 22.9078 142.417 22.4391C143.16 21.9703 144.024 21.736 145.009 21.736C145.994 21.736 146.855 21.9703 147.594 22.4391C148.337 22.9078 148.915 23.566 149.327 24.4135C149.744 25.2611 149.952 26.253 149.952 27.3894C149.952 28.5163 149.744 29.5011 149.327 30.3439C148.915 31.1867 148.337 31.8425 147.594 32.3113C146.855 32.78 145.994 33.0144 145.009 33.0144ZM145.009 31.5087C145.757 31.5087 146.373 31.3169 146.855 30.9334C147.338 30.5499 147.696 30.0456 147.928 29.4206C148.16 28.7956 148.276 28.1185 148.276 27.3894C148.276 26.6602 148.16 25.9808 147.928 25.351C147.696 24.7213 147.338 24.2123 146.855 23.824C146.373 23.4358 145.757 23.2417 145.009 23.2417C144.261 23.2417 143.645 23.4358 143.162 23.824C142.679 24.2123 142.322 24.7213 142.09 25.351C141.858 25.9808 141.742 26.6602 141.742 27.3894C141.742 28.1185 141.858 28.7956 142.09 29.4206C142.322 30.0456 142.679 30.5499 143.162 30.9334C143.645 31.3169 144.261 31.5087 145.009 31.5087ZM159.386 28.3269V21.878H161.062V32.7871H159.386V30.9405H159.272C159.016 31.4945 158.619 31.9656 158.079 32.3539C157.539 32.7374 156.857 32.9292 156.033 32.9292C155.352 32.9292 154.746 32.78 154.215 32.4817C153.685 32.1787 153.268 31.7241 152.965 31.1181C152.662 30.5073 152.511 29.7379 152.511 28.8098V21.878H154.187V28.6962C154.187 29.4917 154.409 30.1261 154.854 30.5996C155.304 31.0731 155.877 31.3098 156.573 31.3098C156.99 31.3098 157.414 31.2033 157.844 30.9902C158.28 30.7772 158.645 30.4505 158.938 30.0101C159.237 29.5698 159.386 29.0087 159.386 28.3269ZM168.251 33.0144C167.342 33.0144 166.539 32.7847 165.843 32.3255C165.147 31.8614 164.603 31.208 164.21 30.3652C163.817 29.5177 163.62 28.5163 163.62 27.361C163.62 26.2151 163.817 25.2208 164.21 24.378C164.603 23.5352 165.15 22.8842 165.85 22.4249C166.551 21.9656 167.361 21.736 168.279 21.736C168.99 21.736 169.551 21.8543 169.963 22.0911C170.379 22.3231 170.697 22.5882 170.914 22.8865C171.137 23.1801 171.31 23.4216 171.433 23.611H171.575V18.2417H173.251V32.7871H171.632V31.111H171.433C171.31 31.3098 171.135 31.5608 170.907 31.8638C170.68 32.1621 170.356 32.4296 169.934 32.6664C169.513 32.8984 168.952 33.0144 168.251 33.0144ZM168.478 31.5087C169.151 31.5087 169.719 31.3335 170.183 30.9831C170.647 30.628 171 30.138 171.241 29.513C171.483 28.8832 171.603 28.1564 171.603 27.3326C171.603 26.5182 171.485 25.8056 171.248 25.1948C171.011 24.5792 170.661 24.101 170.197 23.7601C169.733 23.4145 169.16 23.2417 168.478 23.2417C167.768 23.2417 167.176 23.4239 166.703 23.7885C166.234 24.1484 165.881 24.6384 165.645 25.2587C165.413 25.8742 165.297 26.5655 165.297 27.3326C165.297 28.1091 165.415 28.8146 165.652 29.449C165.893 30.0788 166.248 30.5807 166.717 30.9547C167.19 31.324 167.778 31.5087 168.478 31.5087ZM176.781 32.7871V18.2417H185.502V19.8042H178.542V24.7189H184.849V26.2814H178.542V32.7871H176.781ZM191.923 33.0144C190.938 33.0144 190.074 32.78 189.331 32.3113C188.592 31.8425 188.014 31.1867 187.598 30.3439C187.186 29.5011 186.98 28.5163 186.98 27.3894C186.98 26.253 187.186 25.2611 187.598 24.4135C188.014 23.566 188.592 22.9078 189.331 22.4391C190.074 21.9703 190.938 21.736 191.923 21.736C192.908 21.736 193.77 21.9703 194.508 22.4391C195.252 22.9078 195.829 23.566 196.241 24.4135C196.658 25.2611 196.866 26.253 196.866 27.3894C196.866 28.5163 196.658 29.5011 196.241 30.3439C195.829 31.1867 195.252 31.8425 194.508 32.3113C193.77 32.78 192.908 33.0144 191.923 33.0144ZM191.923 31.5087C192.671 31.5087 193.287 31.3169 193.77 30.9334C194.252 30.5499 194.61 30.0456 194.842 29.4206C195.074 28.7956 195.19 28.1185 195.19 27.3894C195.19 26.6602 195.074 25.9808 194.842 25.351C194.61 24.7213 194.252 24.2123 193.77 23.824C193.287 23.4358 192.671 23.2417 191.923 23.2417C191.175 23.2417 190.559 23.4358 190.076 23.824C189.593 24.2123 189.236 24.7213 189.004 25.351C188.772 25.9808 188.656 26.6602 188.656 27.3894C188.656 28.1185 188.772 28.7956 189.004 29.4206C189.236 30.0456 189.593 30.5499 190.076 30.9334C190.559 31.3169 191.175 31.5087 191.923 31.5087ZM199.425 32.7871V21.878H201.044V23.5257H201.158C201.357 22.986 201.716 22.548 202.237 22.2118C202.758 21.8757 203.345 21.7076 203.999 21.7076C204.122 21.7076 204.276 21.7099 204.46 21.7147C204.645 21.7194 204.785 21.7265 204.879 21.736V23.4405C204.822 23.4263 204.692 23.405 204.489 23.3766C204.29 23.3435 204.079 23.3269 203.857 23.3269C203.326 23.3269 202.853 23.4382 202.436 23.6607C202.024 23.8785 201.697 24.1815 201.456 24.5698C201.219 24.9533 201.101 25.3913 201.101 25.8837V32.7871H199.425ZM206.866 32.7871V21.878H208.485V23.5826H208.627C208.855 23.0002 209.222 22.548 209.728 22.226C210.235 21.8993 210.843 21.736 211.554 21.736C212.273 21.736 212.872 21.8993 213.35 22.226C213.833 22.548 214.21 23.0002 214.48 23.5826H214.593C214.873 23.0191 215.292 22.5717 215.85 22.2402C216.409 21.9041 217.079 21.736 217.86 21.736C218.836 21.736 219.634 22.0414 220.254 22.6522C220.874 23.2582 221.184 24.2028 221.184 25.486V32.7871H219.508V25.486C219.508 24.681 219.288 24.1058 218.848 23.7601C218.407 23.4145 217.889 23.2417 217.292 23.2417C216.525 23.2417 215.931 23.4737 215.51 23.9377C215.088 24.397 214.877 24.9793 214.877 25.6848V32.7871H213.173V25.3155C213.173 24.6953 212.972 24.1957 212.569 23.8169C212.167 23.4334 211.648 23.2417 211.014 23.2417C210.578 23.2417 210.171 23.3577 209.792 23.5897C209.418 23.8217 209.115 24.1436 208.883 24.5556C208.656 24.9628 208.542 25.4339 208.542 25.9689V32.7871H206.866ZM227.459 33.0428C226.768 33.0428 226.141 32.9126 225.577 32.6522C225.014 32.387 224.566 32.0059 224.235 31.5087C223.903 31.0068 223.738 30.4007 223.738 29.6905C223.738 29.0655 223.861 28.5589 224.107 28.1706C224.353 27.7776 224.682 27.4699 225.094 27.2473C225.506 27.0248 225.961 26.8591 226.458 26.7502C226.96 26.6365 227.464 26.5466 227.971 26.4803C228.633 26.3951 229.171 26.3311 229.583 26.2885C229.999 26.2412 230.302 26.1631 230.492 26.0542C230.686 25.9453 230.783 25.7559 230.783 25.486V25.4292C230.783 24.7284 230.591 24.1839 230.208 23.7956C229.829 23.4074 229.254 23.2132 228.482 23.2132C227.682 23.2132 227.054 23.3884 226.6 23.7388C226.145 24.0892 225.826 24.4632 225.641 24.861L224.05 24.2928C224.334 23.6299 224.713 23.1138 225.186 22.7445C225.665 22.3704 226.185 22.11 226.749 21.9632C227.317 21.8117 227.876 21.736 228.425 21.736C228.775 21.736 229.178 21.7786 229.632 21.8638C230.092 21.9443 230.534 22.1124 230.961 22.3681C231.391 22.6238 231.749 23.0096 232.033 23.5257C232.317 24.0418 232.459 24.7331 232.459 25.5996V32.7871H230.783V31.3098H230.698C230.584 31.5466 230.395 31.7999 230.13 32.0698C229.864 32.3397 229.512 32.5693 229.071 32.7587C228.631 32.9481 228.094 33.0428 227.459 33.0428ZM227.715 31.5371C228.378 31.5371 228.936 31.4069 229.391 31.1465C229.85 30.8861 230.196 30.5499 230.428 30.138C230.665 29.726 230.783 29.2928 230.783 28.8382V27.3042C230.712 27.3894 230.556 27.4675 230.314 27.5385C230.078 27.6048 229.803 27.664 229.49 27.7161C229.183 27.7634 228.882 27.806 228.588 27.8439C228.3 27.8771 228.065 27.9055 227.885 27.9292C227.45 27.986 227.042 28.0783 226.664 28.2061C226.29 28.3292 225.987 28.5163 225.755 28.7672C225.527 29.0134 225.414 29.3496 225.414 29.7757C225.414 30.3581 225.629 30.7985 226.06 31.0968C226.496 31.3903 227.047 31.5371 227.715 31.5371ZM240.263 21.878V23.2985H234.609V21.878H240.263ZM236.257 19.2644H237.933V29.6621C237.933 30.1356 238.002 30.4907 238.139 30.7275C238.281 30.9595 238.461 31.1157 238.679 31.1962C238.902 31.272 239.136 31.3098 239.382 31.3098C239.567 31.3098 239.718 31.3004 239.837 31.2814C239.955 31.2578 240.05 31.2388 240.121 31.2246L240.462 32.7303C240.348 32.7729 240.189 32.8155 239.986 32.8581C239.782 32.9055 239.524 32.9292 239.212 32.9292C238.738 32.9292 238.274 32.8274 237.82 32.6238C237.37 32.4202 236.996 32.11 236.697 31.6934C236.404 31.2767 236.257 30.7511 236.257 30.1167V19.2644ZM242.784 32.7871V21.878H244.46V32.7871H242.784ZM243.636 20.0598C243.31 20.0598 243.028 19.9486 242.791 19.726C242.559 19.5035 242.443 19.236 242.443 18.9235C242.443 18.611 242.559 18.3435 242.791 18.1209C243.028 17.8984 243.31 17.7871 243.636 17.7871C243.963 17.7871 244.242 17.8984 244.474 18.1209C244.711 18.3435 244.83 18.611 244.83 18.9235C244.83 19.236 244.711 19.5035 244.474 19.726C244.242 19.9486 243.963 20.0598 243.636 20.0598ZM251.962 33.0144C250.977 33.0144 250.113 32.78 249.37 32.3113C248.631 31.8425 248.053 31.1867 247.637 30.3439C247.225 29.5011 247.019 28.5163 247.019 27.3894C247.019 26.253 247.225 25.2611 247.637 24.4135C248.053 23.566 248.631 22.9078 249.37 22.4391C250.113 21.9703 250.977 21.736 251.962 21.736C252.947 21.736 253.809 21.9703 254.547 22.4391C255.291 22.9078 255.868 23.566 256.28 24.4135C256.697 25.2611 256.905 26.253 256.905 27.3894C256.905 28.5163 256.697 29.5011 256.28 30.3439C255.868 31.1867 255.291 31.8425 254.547 32.3113C253.809 32.78 252.947 33.0144 251.962 33.0144ZM251.962 31.5087C252.71 31.5087 253.326 31.3169 253.809 30.9334C254.292 30.5499 254.649 30.0456 254.881 29.4206C255.113 28.7956 255.229 28.1185 255.229 27.3894C255.229 26.6602 255.113 25.9808 254.881 25.351C254.649 24.7213 254.292 24.2123 253.809 23.824C253.326 23.4358 252.71 23.2417 251.962 23.2417C251.214 23.2417 250.598 23.4358 250.115 23.824C249.632 24.2123 249.275 24.7213 249.043 25.351C248.811 25.9808 248.695 26.6602 248.695 27.3894C248.695 28.1185 248.811 28.7956 249.043 29.4206C249.275 30.0456 249.632 30.5499 250.115 30.9334C250.598 31.3169 251.214 31.5087 251.962 31.5087ZM261.14 26.2246V32.7871H259.464V21.878H261.083V23.5826H261.225C261.481 23.0286 261.869 22.5835 262.39 22.2473C262.911 21.9064 263.583 21.736 264.407 21.736C265.146 21.736 265.792 21.8875 266.346 22.1905C266.9 22.4888 267.331 22.9434 267.638 23.5542C267.946 24.1602 268.1 24.9273 268.1 25.8553V32.7871H266.424V25.9689C266.424 25.1119 266.201 24.4443 265.756 23.9661C265.311 23.4831 264.701 23.2417 263.924 23.2417C263.389 23.2417 262.911 23.3577 262.489 23.5897C262.073 23.8217 261.744 24.1602 261.502 24.6053C261.261 25.0504 261.14 25.5901 261.14 26.2246Z" fill="white"/>
</svg>
