<svg width="43" height="33" viewBox="0 0 43 33" fill="none" xmlns="http://www.w3.org/2000/svg">
<path d="M0 32.7912V24.1619C0 21.5412 0.463423 18.7607 1.39027 15.8203C2.34908 12.848 3.72337 9.98757 5.51314 7.239C7.33487 4.45845 9.52415 2.04545 12.081 0L18.2173 4.98579C16.2038 7.86222 14.446 10.8665 12.9439 13.9986C11.4737 17.0987 10.7386 20.4226 10.7386 23.9702V32.7912H0ZM24.5455 32.7912V24.1619C24.5455 21.5412 25.0089 18.7607 25.9357 15.8203C26.8945 12.848 28.2688 9.98757 30.0586 7.239C31.8803 4.45845 34.0696 2.04545 36.6264 0L42.7628 4.98579C40.7493 7.86222 38.9915 10.8665 37.4893 13.9986C36.0192 17.0987 35.2841 20.4226 35.2841 23.9702V32.7912H24.5455Z" fill="#8EA0F5"/>
</svg>
