<svg width="50" height="50" viewBox="0 0 50 50" fill="none" xmlns="http://www.w3.org/2000/svg">
<path d="M20.1172 36.593H22.777" stroke="#A3ACB5" stroke-width="3.90625" stroke-miterlimit="10" stroke-linecap="round" stroke-linejoin="round"/>
<path d="M39.0993 18.0118C38.8553 15.0854 36.3963 12.7864 33.3989 12.7864C30.539 12.7864 28.1694 14.8792 27.7459 17.6128H27.2771C25.6204 17.6128 24.2773 18.9521 24.2773 20.6043C24.2773 22.2564 25.6204 23.5957 27.2771 23.5957H37.6017C39.2584 23.5957 40.6013 22.2564 40.6013 20.6043C40.6014 19.4961 39.9972 18.5287 39.0993 18.0118Z" fill="#A3ACB5" stroke="#A3ACB5" stroke-width="3.90625" stroke-miterlimit="10" stroke-linecap="round" stroke-linejoin="round"/>
<path d="M24.8789 30.4106H37.9705" stroke="#A3ACB5" stroke-width="3.90625" stroke-miterlimit="10" stroke-linecap="round" stroke-linejoin="round"/>
<path d="M26.7455 32.8682L24.2812 30.4107L26.7455 27.9531" stroke="#A3ACB5" stroke-width="3.90625" stroke-miterlimit="10" stroke-linecap="round" stroke-linejoin="round"/>
<path d="M32.8594 11.8241C32.5732 9.66559 30.7254 8 28.4886 8H14.4092C11.9741 8 10 9.97409 10 12.4092V38.2768C10 40.712 11.9741 42.686 14.4092 42.686H28.4886C30.9237 42.686 32.8978 40.712 32.8978 38.2768V37.7595" stroke="#A3ACB5" stroke-width="3.90625" stroke-miterlimit="10" stroke-linecap="round" stroke-linejoin="round"/>
<path d="M32.8984 30.4107V23.906" stroke="#A3ACB5" stroke-width="3.90625" stroke-miterlimit="10" stroke-linecap="round" stroke-linejoin="round"/>
</svg>
