<svg width="72" height="73" viewBox="0 0 72 73" fill="none" xmlns="http://www.w3.org/2000/svg">
<g clip-path="url(#clip0_9862_1654)">
<path d="M0.863562 33.607C7.76674 49.4654 25.2831 52.1247 46.1888 38.683C55.8311 47.6073 58.2333 58.1874 50.1876 68.8373C45.9443 70.6223 41.2831 71.6093 36.3907 71.6093C16.7244 71.6093 0.781494 55.6667 0.781494 36.0001C0.781494 35.1958 0.810983 34.3982 0.863562 33.607ZM33.4289 26.7232C36.5461 13.7328 45.2506 6.28154 58.9334 8.43534C66.9093 14.9657 72 24.8879 72 36.0002C72 50.0199 63.897 62.1449 52.1201 67.9531C62.8184 52.7123 54.0758 36.6325 33.4289 26.7232ZM36.3909 0.391113C44.0232 0.391113 51.0938 2.79334 56.8904 6.88145C37.4302 4.61915 28.2405 20.84 29.5241 43.2401C16.8795 47.1185 6.57845 44.2608 1.13469 30.9864C3.57198 13.6942 18.4266 0.391113 36.3909 0.391113Z" fill="#662D91"/>
</g>
<defs>
<clipPath id="clip0_9862_1654">
<rect width="72" height="72" fill="white" transform="translate(0 0.365723)"/>
</clipPath>
</defs>
</svg>
