<svg width="50" height="50" viewBox="0 0 50 50" fill="none" xmlns="http://www.w3.org/2000/svg">
<g clip-path="url(#clip0_11325_8265)">
<path fill-rule="evenodd" clip-rule="evenodd" d="M32.4901 8.55016C34.2642 6.46622 35.46 3.5637 35.1328 0.675781C32.5762 0.774431 29.4832 2.33099 27.6501 4.41247C26.0039 6.25966 24.5669 9.21118 24.9533 12.0424C27.8051 12.2569 30.716 10.6366 32.4901 8.55016ZM38.8852 26.8796C38.9565 34.3448 45.6272 36.8281 45.701 36.8601C45.6469 37.0352 44.6356 40.3986 42.1873 43.8759C40.0687 46.8798 37.8714 49.8714 34.4093 49.9355C31.0088 49.9972 29.9138 47.9775 26.0236 47.9775C22.1359 47.9775 20.9203 49.8712 17.7019 49.9969C14.3604 50.1178 11.8136 46.747 9.6803 43.7531C5.3152 37.6295 1.98109 26.4482 6.45938 18.9016C8.68376 15.1555 12.6576 12.7796 16.9735 12.7204C20.2535 12.6587 23.3514 14.8639 25.3568 14.8639C27.3622 14.8639 31.1269 12.2127 35.0835 12.6024C36.7395 12.6689 41.3901 13.2508 44.3748 17.4951C44.1336 17.6406 38.8261 20.6401 38.8852 26.8796Z" fill="url(#paint0_linear_11325_8265)"/>
</g>
<defs>
<linearGradient id="paint0_linear_11325_8265" x1="25.0175" y1="0.675781" x2="51.1788" y2="71.1478" gradientUnits="userSpaceOnUse">
<stop/>
<stop offset="1" stop-color="#666666"/>
</linearGradient>
<clipPath id="clip0_11325_8265">
<rect width="48" height="50" fill="white" transform="translate(1)"/>
</clipPath>
</defs>
</svg>
