<svg width="18" height="16" viewBox="0 0 18 16" fill="none" xmlns="http://www.w3.org/2000/svg">
<path d="M0.984375 6.52969H14.3719L9.51563 1.67344C9.12188 1.27969 9.12188 0.689063 9.51563 0.295313C9.90938 -0.0984375 10.5 -0.0984375 10.8937 0.295313L17.4562 6.85781C17.85 7.25156 17.85 7.84219 17.4562 8.23594L10.8937 14.7985C10.6969 14.9954 10.4344 15.061 10.1719 15.061C9.90938 15.061 9.64688 14.9954 9.45 14.7985C9.05624 14.4048 9.05624 13.8141 9.45 13.4204L14.3062 8.56406H0.984375C0.459375 8.56406 0 8.10469 0 7.57969C0 7.05469 0.459375 6.52969 0.984375 6.52969Z" fill="#F5FAFE"/>
</svg>
