<svg width="14" height="14" viewBox="0 0 14 14" fill="none" xmlns="http://www.w3.org/2000/svg">
<path fill-rule="evenodd" clip-rule="evenodd" d="M7.2577 1.11683C7.14217 1.0149 6.99165 0.961684 6.83772 0.968328C6.6838 0.974973 6.53843 1.04097 6.4321 1.15246C6.32578 1.26396 6.26676 1.4123 6.26743 1.56637C6.2681 1.72044 6.32841 1.86826 6.4357 1.97883L11.0717 6.40383H1.4417C1.28363 6.40383 1.13204 6.46662 1.02027 6.57839C0.908496 6.69016 0.845703 6.84176 0.845703 6.99983C0.845703 7.1579 0.908496 7.30949 1.02027 7.42126C1.13204 7.53303 1.28363 7.59583 1.4417 7.59583H11.0717L6.4357 12.0198C6.37555 12.0729 6.32673 12.1376 6.29216 12.2099C6.25759 12.2823 6.23799 12.3609 6.23453 12.4411C6.23107 12.5212 6.24383 12.6012 6.27203 12.6763C6.30023 12.7514 6.3433 12.82 6.39866 12.8781C6.45401 12.9361 6.52052 12.9824 6.59418 13.0141C6.66785 13.0459 6.74717 13.0624 6.82738 13.0628C6.9076 13.0631 6.98705 13.0473 7.061 13.0162C7.13494 12.9851 7.20184 12.9394 7.2577 12.8818L12.9697 7.42983C13.0287 7.37401 13.0755 7.30669 13.1074 7.23202C13.1393 7.15735 13.1555 7.07693 13.155 6.99574C13.1546 6.91455 13.1374 6.83433 13.1047 6.76003C13.072 6.68574 13.0243 6.61896 12.9647 6.56383L7.2577 1.11683Z" fill="#0D1330"/>
</svg>
