<svg width="18" height="19" viewBox="0 0 18 19" fill="none" xmlns="http://www.w3.org/2000/svg">
<g clip-path="url(#clip0_3642_860)">
<path fill-rule="evenodd" clip-rule="evenodd" d="M9.25819 3.61701C9.14265 3.51509 8.99214 3.46187 8.83821 3.46851C8.68429 3.47516 8.53892 3.54115 8.43259 3.65265C8.32627 3.76415 8.26725 3.91249 8.26792 4.06655C8.26859 4.22062 8.3289 4.36844 8.43619 4.47901L13.0722 8.90401H3.44219C3.28412 8.90401 3.13253 8.9668 3.02076 9.07857C2.90898 9.19035 2.84619 9.34194 2.84619 9.50001C2.84619 9.65808 2.90898 9.80967 3.02076 9.92144C3.13253 10.0332 3.28412 10.096 3.44219 10.096H13.0722L8.43619 14.52C8.37604 14.5731 8.32722 14.6377 8.29265 14.7101C8.25808 14.7825 8.23848 14.8611 8.23502 14.9413C8.23156 15.0214 8.24432 15.1014 8.27252 15.1765C8.30072 15.2516 8.34379 15.3202 8.39914 15.3783C8.4545 15.4363 8.521 15.4826 8.59467 15.5143C8.66834 15.5461 8.74766 15.5626 8.82787 15.563C8.90808 15.5633 8.98754 15.5475 9.06148 15.5164C9.13543 15.4853 9.20233 15.4396 9.25819 15.382L14.9702 9.93001C15.0292 9.8742 15.076 9.80687 15.1079 9.7322C15.1398 9.65753 15.156 9.57711 15.1555 9.49592C15.1551 9.41474 15.1379 9.33451 15.1052 9.26021C15.0724 9.18592 15.0248 9.11914 14.9652 9.06401L9.25819 3.61701Z" fill="#0D1330" stroke="#1B1D1E" stroke-width="0.5"/>
</g>
<defs>
<clipPath id="clip0_3642_860">
<rect width="18" height="18" fill="white" transform="translate(0 0.5)"/>
</clipPath>
</defs>
</svg>
