<svg width="44" height="44" viewBox="0 0 44 44" fill="none" xmlns="http://www.w3.org/2000/svg">
<path d="M0 22C0 9.84974 9.84974 0 22 0C34.1503 0 44 9.84974 44 22C44 34.1503 34.1503 44 22 44C9.84974 44 0 34.1503 0 22Z" fill="#FFF0E3"/>
<path fill-rule="evenodd" clip-rule="evenodd" d="M17.3605 15.5907C17.1564 15.5781 16.9567 15.6451 16.8033 15.7779C16.6499 15.9107 16.5546 16.0989 16.5376 16.303C16.5205 16.507 16.583 16.7112 16.7118 16.8725C16.8406 17.0339 17.0259 17.14 17.2286 17.1685L25.6965 18.0299L15.7522 25.9004C15.589 26.0296 15.4847 26.2195 15.4623 26.4283C15.4398 26.6371 15.5011 26.8477 15.6325 27.0139C15.764 27.18 15.9549 27.288 16.1633 27.3141C16.3717 27.3402 16.5805 27.2823 16.7437 27.1531L26.688 19.2826L25.5805 27.7209C25.5625 27.8259 25.5659 27.9337 25.5904 28.038C25.6149 28.1423 25.66 28.241 25.7231 28.328C25.7862 28.4151 25.8659 28.4887 25.9575 28.5446C26.0491 28.6005 26.1506 28.6374 26.2561 28.6532C26.3615 28.6689 26.4687 28.6632 26.5712 28.6364C26.6736 28.6095 26.7693 28.5621 26.8524 28.4969C26.9355 28.4317 27.0044 28.3501 27.0549 28.257C27.1054 28.1639 27.1365 28.0612 27.1463 27.955L28.5099 17.557C28.5243 17.4501 28.5167 17.341 28.4876 17.2365C28.4584 17.132 28.4082 17.0342 28.3402 16.9493C28.2722 16.8643 28.1878 16.794 28.0922 16.7427C27.9966 16.6914 27.8918 16.6602 27.7844 16.6509L17.3605 15.5907Z" fill="#FF8214"/>
</svg>
