<svg width="100" height="101" viewBox="0 0 100 101" fill="none" xmlns="http://www.w3.org/2000/svg">
<rect width="100" height="101" fill="#F5F5F5"/>
<g id="Landing Pages">
<path d="M-66263 -2298C-66263 -2299.1 -66262.1 -2300 -66261 -2300H18086C18087.1 -2300 18088 -2299.1 18088 -2298V14511C18088 14512.1 18087.1 14513 18086 14513H-66261C-66262.1 14513 -66263 14512.1 -66263 14511V-2298Z" fill="#D9D9D9"/>
<path d="M-66261 -2299H18086V-2301H-66261V-2299ZM18087 -2298V14511H18089V-2298H18087ZM18086 14512H-66261V14514H18086V14512ZM-66262 14511V-2298H-66264V14511H-66262ZM-66261 14512C-66261.6 14512 -66262 14511.6 -66262 14511H-66264C-66264 14512.7 -66262.7 14514 -66261 14514V14512ZM18087 14511C18087 14511.6 18086.6 14512 18086 14512V14514C18087.7 14514 18089 14512.7 18089 14511H18087ZM18086 -2299C18086.6 -2299 18087 -2298.55 18087 -2298H18089C18089 -2299.66 18087.7 -2301 18086 -2301V-2299ZM-66261 -2301C-66262.7 -2301 -66264 -2299.66 -66264 -2298H-66262C-66262 -2298.55 -66261.6 -2299 -66261 -2299V-2301Z" fill="black" fill-opacity="0.1"/>
<g id="Implementation Consulting" clip-path="url(#clip0_0_1)">
<rect width="1900" height="9921" transform="translate(-900 -1637.5)" fill="white"/>
<g id="Frame 61">
<rect width="1900" height="1864" transform="translate(-900 -337.5)" fill="#EFF3F5"/>
<g id="card">
<rect x="-182" y="-39.5" width="464" height="520" rx="8" fill="#FCFDFD"/>
<g id="Group 6">
<path id="Ellipse 1" d="M100 50.5C100 78.1142 77.6142 100.5 50 100.5C22.3858 100.5 0 78.1142 0 50.5C0 22.8858 22.3858 0.5 50 0.5C77.6142 0.5 100 22.8858 100 50.5Z" fill="#FF5D00" fill-opacity="0.1"/>
<g id="Group">
<g id="Group 13">
<path id="Vector" d="M72.6845 21.652L47.6131 43.0091C47.5152 43.0922 47.4356 43.1946 47.3793 43.31C47.3229 43.4253 47.2912 43.5511 47.2859 43.6794C47.2807 43.8077 47.3021 43.9356 47.3488 44.0552C47.3956 44.1748 47.4666 44.2834 47.5574 44.3741L53.1288 49.9455C53.2156 50.0316 53.3185 50.0997 53.4316 50.1459C53.5447 50.1921 53.6659 50.2155 53.7881 50.2148C53.9159 50.2096 54.0413 50.1781 54.1563 50.1221C54.2714 50.0662 54.3736 49.9871 54.4567 49.8898L75.8138 24.8184C75.9669 24.6409 76.0471 24.4121 76.0385 24.1779C76.0299 23.9437 75.933 23.7213 75.7673 23.5556L73.9102 21.6984C73.7465 21.543 73.5317 21.4526 73.3061 21.444C73.0805 21.4355 72.8595 21.5094 72.6845 21.652Z" fill="#FB670F"/>
<path id="Vector_2" d="M37.0709 42.7863C38.6094 42.7863 39.8566 41.5391 39.8566 40.0006C39.8566 38.462 38.6094 37.2148 37.0709 37.2148C35.5324 37.2148 34.2852 38.462 34.2852 40.0006C34.2852 41.5391 35.5324 42.7863 37.0709 42.7863Z" fill="#FB670F"/>
<path id="Vector_3" d="M44.9723 49.1826C44.3492 48.9724 43.6796 48.9411 43.0395 49.0921C42.3994 49.2431 41.8144 49.5704 41.3509 50.0369L41.0073 50.3805C40.8055 50.5825 40.6921 50.8564 40.6921 51.1419C40.6921 51.4275 40.8055 51.7014 41.0073 51.9034C41.3604 52.2574 41.6172 52.6957 41.7533 53.1769C41.8893 53.658 41.9002 54.1659 41.7849 54.6524C41.6695 55.1389 41.4318 55.5879 41.0942 55.9567C40.7566 56.3255 40.3303 56.602 39.8559 56.7598L37.2188 57.6419L39.3637 58.3569C40.3787 58.6976 41.4512 58.8337 42.5191 58.7572C43.587 58.6807 44.6291 58.3931 45.5852 57.9112C46.4259 57.4935 47.1235 56.8353 47.5893 56.0203C48.0552 55.2053 48.2683 54.2702 48.2017 53.3338C48.135 52.3975 47.7915 51.502 47.2149 50.7612C46.6382 50.0204 45.8544 49.4678 44.963 49.1734L44.9723 49.1826Z" fill="#FB670F"/>
<path id="Vector_4" d="M43.572 33.4994C44.5977 33.4994 45.4291 32.668 45.4291 31.6423C45.4291 30.6166 44.5977 29.7852 43.572 29.7852C42.5463 29.7852 41.7148 30.6166 41.7148 31.6423C41.7148 32.668 42.5463 33.4994 43.572 33.4994Z" fill="#FB670F"/>
<path id="Vector_5" d="M55.903 51.1429C55.6497 51.4263 55.3411 51.6549 54.9961 51.8146C54.6512 51.9743 54.2772 52.0617 53.8972 52.0715H53.7858C53.0473 52.0708 52.3392 51.7769 51.8173 51.2543L46.2458 45.6829C45.9743 45.4114 45.7619 45.0868 45.6219 44.7293C45.4818 44.3718 45.4172 43.9892 45.432 43.6056C45.4468 43.2219 45.5408 42.8455 45.708 42.4999C45.8752 42.1542 46.1121 41.8469 46.4037 41.5972L64.0001 26.6101L63.8051 26.4151C61.9322 24.5336 59.7049 23.0421 57.2519 22.0269C54.799 21.0116 52.1691 20.4926 49.5144 20.5001C46.1079 20.4912 42.7547 21.3448 39.7671 22.9815C36.7796 24.6181 34.255 26.9845 32.4287 29.8601C27.5562 37.5253 24.9786 46.4245 25.0001 55.5072C25.0001 59.3355 26.2929 63.0517 28.6689 66.0535C31.0448 69.0552 34.3648 71.1668 38.0908 72.0459C41.8169 72.925 45.7306 72.5202 49.1977 70.897C52.6649 69.2738 55.4824 66.5275 57.1937 63.1029C57.4702 62.5522 57.8736 62.075 58.3706 61.7107C58.8676 61.3464 59.444 61.1053 60.0525 61.0074C60.6609 60.9095 61.2838 60.9575 61.8701 61.1474C62.4563 61.3374 62.989 61.6639 63.4244 62.1L64.2044 62.88C65.2524 63.9294 66.5882 64.6442 68.0427 64.9339C69.4972 65.2236 71.005 65.0752 72.3751 64.5075C73.7452 63.9397 74.916 62.9782 75.7394 61.7446C76.5627 60.5111 77.0014 59.061 77.0001 57.5779C77.0232 49.3268 74.6665 41.2442 70.2122 34.2986L55.903 51.1429ZM51.0001 24.2144C51.5511 24.2144 52.0897 24.3777 52.5478 24.6838C53.0059 24.9899 53.3629 25.425 53.5738 25.934C53.7846 26.443 53.8398 27.0032 53.7323 27.5435C53.6248 28.0839 53.3595 28.5803 52.9699 28.9699C52.5803 29.3595 52.0839 29.6248 51.5436 29.7323C51.0032 29.8397 50.4431 29.7846 49.9341 29.5737C49.425 29.3629 48.99 29.0058 48.6839 28.5477C48.3778 28.0896 48.2144 27.551 48.2144 27.0001C48.2144 26.2613 48.5079 25.5527 49.0303 25.0303C49.5527 24.5079 50.2613 24.2144 51.0001 24.2144ZM43.5715 27.9286C44.3062 27.9286 45.0243 28.1465 45.6351 28.5546C46.2459 28.9627 46.722 29.5428 47.0031 30.2215C47.2842 30.9002 47.3578 31.647 47.2145 32.3675C47.0711 33.088 46.7174 33.7499 46.1979 34.2693C45.6785 34.7888 45.0167 35.1425 44.2962 35.2858C43.5757 35.4292 42.8288 35.3556 42.1502 35.0745C41.4715 34.7933 40.8914 34.3173 40.4832 33.7065C40.0751 33.0957 39.8573 32.3775 39.8573 31.6429C39.8573 30.6578 40.2486 29.7131 40.9452 29.0165C41.6417 28.32 42.5865 27.9286 43.5715 27.9286ZM37.0716 35.3572C37.9898 35.3572 38.8875 35.6295 39.651 36.1397C40.4145 36.6498 41.0096 37.3749 41.361 38.2233C41.7124 39.0717 41.8043 40.0052 41.6252 40.9058C41.446 41.8065 41.0039 42.6337 40.3545 43.2831C39.7052 43.9324 38.878 44.3746 37.9773 44.5537C37.0767 44.7328 36.1432 44.6409 35.2948 44.2895C34.4464 43.9381 33.7213 43.343 33.2112 42.5795C32.701 41.816 32.4287 40.9183 32.4287 40.0001C32.4287 38.7687 32.9179 37.5878 33.7886 36.7171C34.6593 35.8464 35.8402 35.3572 37.0716 35.3572ZM46.4223 59.5743C45.0368 60.2729 43.5074 60.6385 41.9558 60.6422C40.8763 60.6395 39.8041 60.4639 38.7801 60.1222L33.9887 58.5715C33.8029 58.5104 33.6412 58.3923 33.5265 58.2339C33.4118 58.0754 33.3501 57.8849 33.3501 57.6893C33.3501 57.4938 33.4118 57.3032 33.5265 57.1448C33.6412 56.9864 33.8029 56.8682 33.9887 56.8072L39.2723 55.0522C39.4477 54.9949 39.6051 54.8929 39.7289 54.756C39.8526 54.6192 39.9385 54.4524 39.978 54.2722C40.0206 54.0929 40.0165 53.9058 39.9661 53.7286C39.9157 53.5514 39.8207 53.3901 39.6901 53.26C39.1424 52.7101 38.8348 51.9655 38.8348 51.1893C38.8348 50.4131 39.1424 49.6686 39.6901 49.1186L40.0337 48.7751C40.7442 48.0534 41.6444 47.5475 42.6303 47.3158C43.6162 47.0841 44.6475 47.1361 45.6051 47.4658C46.8399 47.8811 47.9243 48.6524 48.7216 49.6827C49.519 50.7129 49.9937 51.9561 50.086 53.2556C50.1784 54.5551 49.8842 55.8529 49.2405 56.9855C48.5968 58.1182 47.6324 59.0351 46.4687 59.6208L46.4223 59.5743Z" fill="#FB670F"/>
<path id="Vector_6" d="M50.9989 27.9275C51.5117 27.9275 51.9275 27.5117 51.9275 26.9989C51.9275 26.486 51.5117 26.0703 50.9989 26.0703C50.486 26.0703 50.0703 26.486 50.0703 26.9989C50.0703 27.5117 50.486 27.9275 50.9989 27.9275Z" fill="#FB670F"/>
</g>
</g>
</g>
</g>
</g>
</g>
</g>
<defs>
<clipPath id="clip0_0_1">
<rect width="1900" height="9921" fill="white" transform="translate(-900 -1637.5)"/>
</clipPath>
</defs>
</svg>
