<svg width="30" height="31" viewBox="0 0 30 31" fill="none" xmlns="http://www.w3.org/2000/svg">
<path fill-rule="evenodd" clip-rule="evenodd" d="M25.6365 7.29503C27.6495 7.29503 29.2839 5.66064 29.2839 3.64753C29.2839 1.63441 27.6495 3.05176e-05 25.6365 3.05176e-05C23.6233 3.05176e-05 21.989 1.63441 21.989 3.64753C21.989 5.66064 23.6233 7.29503 25.6365 7.29503ZM23.6594 3.19463L24.6054 2.25013C24.7948 2.06114 25.099 2.0538 25.2973 2.23351L27.596 4.31777C27.8013 4.50387 27.8168 4.82161 27.6307 5.02685C27.4446 5.23203 27.127 5.24759 26.9217 5.06155L24.9768 3.29804L24.3686 3.9051C24.1726 4.10086 23.8545 4.10055 23.6587 3.90453C23.463 3.70845 23.4633 3.39034 23.6594 3.19463ZM3.64744 7.29503C5.66055 7.29503 7.29493 5.66064 7.29493 3.64753C7.29493 1.63441 5.66055 3.05176e-05 3.64744 3.05176e-05C1.63438 3.05176e-05 0 1.63441 0 3.64753C0 5.66064 1.63438 7.29503 3.64744 7.29503ZM1.6704 3.19463L2.61647 2.25013C2.80577 2.06114 3.11009 2.0538 3.3083 2.23351L5.60709 4.31777C5.81233 4.50387 5.82783 4.82161 5.64179 5.02685C5.45569 5.23203 5.13795 5.24759 4.93271 5.06155L2.98773 3.29804L2.37967 3.9051C2.18359 4.10086 1.86554 4.10055 1.66977 3.90453C1.47407 3.70845 1.47432 3.39034 1.6704 3.19463ZM3.64744 30.1177C5.66055 30.1177 7.29493 28.4833 7.29493 26.4702C7.29493 24.4571 5.66055 22.8227 3.64744 22.8227C1.63438 22.8227 0 24.4571 0 26.4702C0 28.4833 1.63438 30.1177 3.64744 30.1177ZM1.6704 26.0173L2.61647 25.0728C2.80577 24.8838 3.11009 24.8765 3.3083 25.0562L5.60709 27.1405C5.81233 27.3265 5.82783 27.6443 5.64179 27.8495C5.45569 28.0547 5.13795 28.0703 4.93271 27.8842L2.98773 26.1207L2.37967 26.7278C2.18359 26.9235 1.86554 26.9233 1.66977 26.7272C1.47407 26.5311 1.47432 26.213 1.6704 26.0173ZM25.6365 30.1177C27.6495 30.1177 29.2839 28.4833 29.2839 26.4702C29.2839 24.4571 27.6495 22.8227 25.6365 22.8227C23.6233 22.8227 21.989 24.4571 21.989 26.4702C21.989 28.4833 23.6233 30.1177 25.6365 30.1177ZM23.6594 26.0173L24.6054 25.0728C24.7948 24.8838 25.099 24.8765 25.2973 25.0562L27.596 27.1405C27.8013 27.3265 27.8168 27.6443 27.6307 27.8495C27.4446 28.0547 27.127 28.0703 26.9217 27.8842L24.9768 26.1207L24.3686 26.7278C24.1726 26.9235 23.8545 26.9233 23.6587 26.7272C23.463 26.5311 23.4633 26.213 23.6594 26.0173ZM14.6419 24.6639L23.2496 20.9743V14.014C23.2496 9.1706 19.7245 4.98525 14.9556 4.15388L14.6419 4.09904L14.3283 4.15388C9.55941 4.98525 6.03432 9.1706 6.03432 14.014V20.9743L14.6419 24.6639ZM10.4169 15.9192C10.069 15.9192 9.78548 15.6356 9.78548 15.2892V8.5712C9.78548 8.22334 10.069 7.94124 10.4169 7.94124H18.8685C19.2163 7.94124 19.4984 8.22334 19.4984 8.5712V15.2892C19.4984 15.6356 19.2163 15.9192 18.8685 15.9192H10.4169ZM14.6427 14.3274C15.3209 14.3274 15.8705 13.7763 15.8705 13.0981C15.8705 12.6552 15.6381 12.2678 15.2873 12.0515V10.1776C15.2873 9.8224 14.9964 9.53302 14.6427 9.53302C14.2875 9.53302 13.9981 9.8224 13.9981 10.1776V12.0515C13.6472 12.2678 13.4134 12.6552 13.4134 13.0981C13.4134 13.7763 13.9644 14.3274 14.6427 14.3274ZM16.5136 16.8603H18.0937V17.9966C18.0937 19.8954 16.5414 21.4492 14.6427 21.4492C12.7439 21.4492 11.1902 19.8954 11.1902 17.9966V16.8603H12.7717V17.9966C12.7717 19.0242 13.6166 19.8691 14.6427 19.8691C15.6688 19.8691 16.5136 19.0242 16.5136 17.9966V16.8603ZM2.42416 9.26717C2.53139 9.01173 2.41098 8.71727 2.15548 8.6101C1.90005 8.50293 1.60565 8.62328 1.49842 8.87877C0.787953 10.5721 0.395106 12.4313 0.395106 14.3815C0.395106 16.8194 1.00888 19.115 2.08991 21.1224C2.2213 21.3662 2.52599 21.4577 2.76988 21.3263C3.01384 21.1949 3.10519 20.8903 2.9738 20.6463C1.96913 18.7808 1.39903 16.6471 1.39903 14.3815C1.39903 12.5689 1.76383 10.841 2.42416 9.26717ZM19.7749 2.17151C20.0302 2.27912 20.3248 2.15921 20.4324 1.9039C20.54 1.64859 20.4201 1.35401 20.1648 1.2464C18.466 0.53054 16.5998 0.134619 14.6419 0.134619C12.59 0.134619 10.6388 0.569506 8.87548 1.35181C8.62224 1.46412 8.50786 1.76091 8.62017 2.01415C8.73255 2.26739 9.02933 2.38177 9.28257 2.26946C10.9214 1.54243 12.7349 1.13854 14.6419 1.13854C16.4616 1.13854 18.1961 1.50623 19.7749 2.17151ZM26.295 20.6742C26.1631 20.9178 26.2537 21.2227 26.4973 21.3546C26.741 21.4866 27.0458 21.3959 27.1778 21.1523C28.2689 19.1378 28.8888 16.8315 28.8888 14.3815C28.8888 12.4312 28.4959 10.5719 27.7853 8.87846C27.6781 8.62296 27.3837 8.50262 27.1282 8.60979C26.8728 8.71696 26.7524 9.01142 26.8596 9.26685C27.52 10.8408 27.8849 12.5689 27.8849 14.3815C27.8849 16.6584 27.3091 18.802 26.295 20.6742ZM9.63282 26.6428C9.37644 26.5378 9.08304 26.6608 8.97807 26.9172C8.8731 27.1736 8.99602 27.4669 9.25239 27.5719C10.9153 28.2528 12.7351 28.6283 14.6419 28.6283C16.5886 28.6283 18.4445 28.2369 20.1355 27.5288C20.391 27.4218 20.5116 27.1275 20.4046 26.8719C20.2976 26.6164 20.0033 26.4958 19.7477 26.6028C18.1762 27.2609 16.4511 27.6244 14.6419 27.6244C12.8697 27.6244 11.1784 27.2756 9.63282 26.6428Z" fill="#F5FAFE"/>
</svg>
