<svg width="100" height="100" viewBox="0 0 100 100" fill="none" xmlns="http://www.w3.org/2000/svg">
<circle cx="50" cy="50" r="50" fill="#FF5D00" fill-opacity="0.1"/>
<path d="M75.0177 21.3286L46.0893 45.9713C45.9764 46.0672 45.8845 46.1854 45.8195 46.3185C45.7545 46.4516 45.7179 46.5967 45.7118 46.7447C45.7058 46.8927 45.7305 47.0404 45.7844 47.1784C45.8383 47.3163 45.9203 47.4416 46.025 47.5463L52.4536 53.9749C52.5537 54.0742 52.6724 54.1527 52.803 54.206C52.9335 54.2594 53.0733 54.2864 53.2143 54.2856C53.3618 54.2796 53.5064 54.2432 53.6392 54.1786C53.7719 54.1141 53.8899 54.0229 53.9857 53.9106L78.6284 24.9822C78.805 24.7774 78.8977 24.5134 78.8877 24.2431C78.8778 23.9728 78.766 23.7163 78.5748 23.525L76.432 21.3822C76.2431 21.2029 75.9953 21.0985 75.735 21.0887C75.4747 21.0788 75.2197 21.1641 75.0177 21.3286Z" fill="#FB670F"/>
<path d="M33.9252 45.7137C35.7004 45.7137 37.1395 44.2746 37.1395 42.4994C37.1395 40.7242 35.7004 39.2852 33.9252 39.2852C32.15 39.2852 30.7109 40.7242 30.7109 42.4994C30.7109 44.2746 32.15 45.7137 33.9252 45.7137Z" fill="#FB670F"/>
<path d="M43.044 53.0958C42.325 52.8533 41.5524 52.8171 40.8138 52.9913C40.0753 53.1655 39.4003 53.5432 38.8655 54.0815L38.4691 54.4779C38.2361 54.711 38.1053 55.027 38.1053 55.3565C38.1053 55.686 38.2361 56.002 38.4691 56.2351C38.8765 56.6436 39.1727 57.1494 39.3298 57.7045C39.4868 58.2596 39.4993 58.8457 39.3662 59.4071C39.2332 59.9684 38.9588 60.4865 38.5693 60.912C38.1797 61.3376 37.6879 61.6565 37.1405 61.8386L34.0977 62.8565L36.5726 63.6815C37.7438 64.0746 38.9812 64.2316 40.2134 64.1433C41.4456 64.055 42.648 63.7232 43.7512 63.1672C44.7212 62.6852 45.5261 61.9258 46.0636 60.9854C46.6012 60.045 46.8471 58.9661 46.7702 57.8856C46.6932 56.8052 46.2969 55.772 45.6316 54.9172C44.9662 54.0625 44.0619 53.4248 43.0333 53.0851L43.044 53.0958Z" fill="#FB670F"/>
<path d="M41.4319 35.0005C42.6154 35.0005 43.5748 34.0411 43.5748 32.8577C43.5748 31.6742 42.6154 30.7148 41.4319 30.7148C40.2484 30.7148 39.2891 31.6742 39.2891 32.8577C39.2891 34.0411 40.2484 35.0005 41.4319 35.0005Z" fill="#FB670F"/>
<path d="M55.6571 55.357C55.3648 55.6841 55.0088 55.9478 54.6108 56.1321C54.2128 56.3163 53.7813 56.4172 53.3428 56.4284H53.2142C52.3621 56.4277 51.545 56.0886 50.9428 55.4856L44.5143 49.0571C44.201 48.7438 43.9559 48.3692 43.7943 47.9567C43.6327 47.5442 43.5581 47.1028 43.5753 46.6601C43.5924 46.2175 43.7008 45.7831 43.8937 45.3843C44.0867 44.9855 44.36 44.6309 44.6964 44.3428L64.9999 27.05L64.7749 26.8251C62.6138 24.6542 60.0439 22.9332 57.2136 21.7617C54.3833 20.5903 51.3488 19.9915 48.2857 20.0001C44.3552 19.9898 40.486 20.9748 37.0389 22.8632C33.5917 24.7517 30.6788 27.4821 28.5715 30.8C22.9495 39.6444 19.9753 49.9127 20.0002 60.3927C20.0002 64.81 21.4918 69.0978 24.2333 72.5614C26.9748 76.025 30.8055 78.4614 35.1047 79.4757C39.404 80.4901 43.9198 80.023 47.9203 78.1501C51.9209 76.2772 55.1719 73.1083 57.1464 69.1569C57.4654 68.5215 57.9308 67.9709 58.5043 67.5506C59.0778 67.1302 59.7429 66.8521 60.4449 66.7391C61.147 66.6261 61.8658 66.6815 62.5422 66.9007C63.2186 67.1198 63.8333 67.4966 64.3356 67.9998L65.2356 68.8998C66.4449 70.1106 67.9862 70.9353 69.6645 71.2696C71.3427 71.6039 73.0824 71.4326 74.6633 70.7776C76.2442 70.1225 77.5952 69.0131 78.5451 67.5897C79.4951 66.1664 80.0014 64.4932 79.9998 62.782C80.0265 53.2616 77.3072 43.9355 72.1677 35.9214L55.6571 55.357ZM50 24.2858C50.6357 24.2858 51.2571 24.4743 51.7857 24.8275C52.3143 25.1807 52.7263 25.6827 52.9696 26.27C53.2129 26.8573 53.2765 27.5036 53.1525 28.1271C53.0285 28.7506 52.7223 29.3234 52.2728 29.7729C51.8233 30.2224 51.2506 30.5285 50.6271 30.6526C50.0035 30.7766 49.3573 30.7129 48.7699 30.4696C48.1826 30.2264 47.6806 29.8144 47.3274 29.2858C46.9742 28.7572 46.7857 28.1358 46.7857 27.5C46.7857 26.6476 47.1244 25.83 47.7271 25.2272C48.3299 24.6244 49.1475 24.2858 50 24.2858ZM41.4286 28.5715C42.2762 28.5715 43.1048 28.8228 43.8096 29.2937C44.5144 29.7647 45.0637 30.434 45.3881 31.2171C45.7124 32.0002 45.7973 32.8619 45.6319 33.6933C45.4666 34.5246 45.0584 35.2882 44.459 35.8876C43.8597 36.487 43.096 36.8951 42.2647 37.0605C41.4334 37.2259 40.5716 37.141 39.7885 36.8166C39.0054 36.4922 38.3361 35.9429 37.8652 35.2382C37.3943 34.5334 37.1429 33.7048 37.1429 32.8572C37.1429 31.7205 37.5944 30.6304 38.3982 29.8267C39.2019 29.023 40.292 28.5715 41.4286 28.5715ZM33.9286 37.1428C34.9882 37.1428 36.0239 37.457 36.9049 38.0457C37.7859 38.6343 38.4725 39.471 38.878 40.4499C39.2834 41.4288 39.3895 42.5059 39.1828 43.5451C38.9761 44.5843 38.4659 45.5388 37.7167 46.288C36.9675 47.0372 36.0129 47.5474 34.9738 47.7541C33.9346 47.9608 32.8575 47.8548 31.8786 47.4493C30.8997 47.0438 30.063 46.3572 29.4744 45.4762C28.8857 44.5952 28.5715 43.5595 28.5715 42.5C28.5715 41.0792 29.1359 39.7166 30.1406 38.7119C31.1452 37.7073 32.5079 37.1428 33.9286 37.1428ZM44.7179 65.0855C43.1193 65.8916 41.3546 66.3135 39.5643 66.3177C38.3187 66.3145 37.0816 66.112 35.9001 65.7177L30.3715 63.9284C30.1572 63.8579 29.9705 63.7216 29.8382 63.5388C29.7059 63.3561 29.6347 63.1362 29.6347 62.9106C29.6347 62.6849 29.7059 62.465 29.8382 62.2823C29.9705 62.0995 30.1572 61.9632 30.3715 61.8927L36.4679 59.8677C36.6703 59.8017 36.8519 59.6839 36.9948 59.526C37.1376 59.3681 37.2367 59.1757 37.2822 58.9677C37.3313 58.7609 37.3266 58.5449 37.2684 58.3405C37.2103 58.136 37.1007 57.9499 36.9501 57.7999C36.318 57.1653 35.9632 56.3062 35.9632 55.4106C35.9632 54.515 36.318 53.6559 36.9501 53.0213L37.3465 52.6249C38.1663 51.7922 39.205 51.2085 40.3426 50.9412C41.4801 50.6739 42.6701 50.7338 43.775 51.1142C45.1998 51.5934 46.4509 52.4834 47.371 53.6721C48.291 54.8609 48.8387 56.2953 48.9453 57.7947C49.0518 59.2941 48.7123 60.7916 47.9696 62.0985C47.2269 63.4054 46.1142 64.4633 44.7714 65.1391L44.7179 65.0855Z" fill="#FB670F"/>
<path d="M50.0011 28.5706C50.5928 28.5706 51.0725 28.0909 51.0725 27.4992C51.0725 26.9074 50.5928 26.4277 50.0011 26.4277C49.4094 26.4277 48.9297 26.9074 48.9297 27.4992C48.9297 28.0909 49.4094 28.5706 50.0011 28.5706Z" fill="#FB670F"/>
</svg>
