<svg width="100" height="100" viewBox="0 0 100 100" fill="none" xmlns="http://www.w3.org/2000/svg">
<circle cx="50" cy="50" r="50" fill="#FF5D00" fill-opacity="0.1"/>
<path d="M42.5071 32.8005C42.8859 32.8005 43.2114 32.6623 43.4837 32.3858C43.7559 32.1094 43.892 31.7788 43.892 31.3942C43.892 31.0096 43.7559 30.6791 43.4837 30.4026C43.2114 30.1262 42.8859 29.988 42.5071 29.988C42.1283 29.988 41.8087 30.1262 41.5483 30.4026C41.2879 30.6791 41.1577 31.0096 41.1577 31.3942C41.1577 31.7788 41.2879 32.1094 41.5483 32.3858C41.8087 32.6623 42.1283 32.8005 42.5071 32.8005ZM57.4929 32.8005C57.8717 32.8005 58.1913 32.6623 58.4517 32.3858C58.7121 32.1094 58.8423 31.7788 58.8423 31.3942C58.8423 31.0096 58.7121 30.6791 58.4517 30.4026C58.1913 30.1262 57.8717 29.988 57.4929 29.988C57.1141 29.988 56.7886 30.1262 56.5163 30.4026C56.2441 30.6791 56.108 31.0096 56.108 31.3942C56.108 31.7788 56.2441 32.1094 56.5163 32.3858C56.7886 32.6623 57.1141 32.8005 57.4929 32.8005ZM28.6577 39.4351C29.652 39.4351 30.5043 39.7957 31.2145 40.5168C31.9247 41.238 32.2798 42.1034 32.2798 43.113V58.6178C32.2798 59.6514 31.9306 60.5288 31.2322 61.25C30.5339 61.9712 29.6757 62.3317 28.6577 62.3317C27.6397 62.3317 26.7756 61.9712 26.0653 61.25C25.3551 60.5288 25 59.6514 25 58.6178V43.113C25 42.1034 25.3551 41.238 26.0653 40.5168C26.7756 39.7957 27.6397 39.4351 28.6577 39.4351ZM66.2997 40.1202V64.1346C66.2997 65.2404 65.9209 66.1779 65.1634 66.9471C64.4058 67.7163 63.4943 68.101 62.429 68.101H59.7656V76.2861C59.7656 77.3197 59.4105 78.1971 58.7003 78.9183C57.9901 79.6394 57.1259 80 56.108 80C55.09 80 54.2259 79.6394 53.5156 78.9183C52.8054 78.1971 52.4503 77.3197 52.4503 76.2861V68.101H47.5497V76.2861C47.5497 77.3197 47.1946 78.1971 46.4844 78.9183C45.7741 79.6394 44.91 80 43.892 80C42.8977 80 42.0455 79.6394 41.3352 78.9183C40.625 78.1971 40.2699 77.3197 40.2699 76.2861L40.2344 68.101H37.6065C36.5175 68.101 35.5942 67.7163 34.8366 66.9471C34.0791 66.1779 33.7003 65.2404 33.7003 64.1346V40.1202H66.2997ZM58.0611 25.5168C60.5942 26.8389 62.6184 28.6839 64.1335 31.0517C65.6487 33.4195 66.4062 36.0096 66.4062 38.8221H33.5582C33.5582 36.0096 34.3158 33.4195 35.831 31.0517C37.3461 28.6839 39.3821 26.8389 41.9389 25.5168L39.4176 20.7933C39.2519 20.4808 39.3111 20.2404 39.5952 20.0721C39.9029 19.9279 40.1397 20 40.3054 20.2885L42.8622 25.0481C45.1113 24.0385 47.4905 23.5337 50 23.5337C52.5095 23.5337 54.8887 24.0385 57.1378 25.0481L59.6946 20.2885C59.8603 20 60.0971 19.9279 60.4048 20.0721C60.6889 20.2404 60.7481 20.4808 60.5824 20.7933L58.0611 25.5168ZM75 43.113V58.6178C75 59.6514 74.6449 60.5288 73.9347 61.25C73.2244 61.9712 72.3603 62.3317 71.3423 62.3317C70.348 62.3317 69.4957 61.9712 68.7855 61.25C68.0753 60.5288 67.7202 59.6514 67.7202 58.6178V43.113C67.7202 42.0793 68.0753 41.2079 68.7855 40.4988C69.4957 39.7897 70.348 39.4351 71.3423 39.4351C72.3603 39.4351 73.2244 39.7897 73.9347 40.4988C74.6449 41.2079 75 42.0793 75 43.113Z" fill="#FF5D00"/>
</svg>
