<svg width="100" height="100" viewBox="0 0 100 100" fill="none" xmlns="http://www.w3.org/2000/svg">
<circle cx="50" cy="50" r="50" fill="#FF5D00" fill-opacity="0.1"/>
<path d="M58.223 78.7124L53.0457 75.5453C50.5667 74.1277 49.0417 74.2453 46.5261 75.7133L35.4682 82.5327C34.9663 82.8444 34.3977 83.111 33.9214 83.451L33.8533 83.5005C33.7714 82.5273 33.838 81.4984 33.838 80.52L33.837 74.4228C33.8329 70.2192 33.621 68.9134 29.4903 67.8262C24.8708 66.6104 21.3007 65.2985 22.0431 59.6292L22.4267 57.4846C22.5497 56.8153 22.7638 56.0181 22.6813 55.3411L22.6705 55.2616C22.3344 52.625 18.4918 50.9883 18.047 47.5293L18.0362 47.4492C17.5639 43.6634 21.8599 41.9168 22.6046 38.962C23.2357 36.4574 20.7439 33.273 22.5883 29.8137C23.7606 27.6152 26.1596 26.7755 28.4171 26.1733C32.036 25.208 32.5124 25.1929 34.1862 21.817C35.6329 18.8991 36.6822 16.1223 40.3715 15.7249C42.0768 15.4949 44.0861 16.334 45.5798 17.0716C49.9274 19.2184 50.3125 18.9771 54.6128 16.89C58.8587 14.8294 62.1183 15.2329 64.3637 19.365L65.8103 22.2019C67.1042 24.7372 67.8781 25.263 70.6428 25.9529C74.9836 27.0359 78.5799 28.7478 77.8903 33.9808C77.6939 35.4716 76.9177 37.4206 77.22 38.8763C77.866 41.9858 82.0707 43.3279 81.7566 47.4624C81.6007 49.5155 80.0047 51.0974 78.7039 52.5428C76.9833 54.4546 76.9564 55.0922 77.4037 57.518C78.4534 63.2113 77.8333 65.851 71.3922 67.6069C68.1855 68.481 65.9983 68.8449 65.9956 72.791L65.9845 83.5178L58.223 78.7124ZM48.881 26.5882C37.7134 27.3093 29.1844 37.1292 29.9093 48.2492C30.6072 58.9548 40.3872 67.3867 51.0651 66.7704C60.197 66.1606 67.7588 59.7073 69.6453 50.6519C72.0079 39.3112 63.6152 28.1329 52.2295 26.684L48.881 26.5882Z" fill="#FF5D00"/>
<path d="M50.8315 64.2818C49.7372 64.2918 48.6446 64.3129 47.5563 64.1759C39.6228 63.1771 33.0823 56.279 32.4227 48.3494C31.5865 38.2971 39.1302 29.7811 49.1006 29.0087C58.3505 28.6813 66.8304 35.9363 67.4641 45.2682C68.0525 53.9329 62.6923 61.7082 54.0832 63.8189C53.0064 64.0829 51.9349 64.2114 50.8315 64.2818ZM49.911 36.3093C48.8843 36.4855 48.7511 37.3365 48.3528 38.1632L46.8933 40.9506C46.6706 41.3658 46.4463 41.9054 46.148 42.2614L41.7119 42.7537C41.1504 42.8116 40.4959 42.7865 39.9516 42.9211C39.12 43.1267 38.7949 44.0926 39.337 44.7309C39.7486 45.2155 40.2969 45.6251 40.769 46.0514L43.4103 48.5249C44.0366 49.145 43.9669 48.9936 43.838 49.8531L43.1051 54.3338C42.99 55.0807 42.8764 55.5548 43.5578 56.0385C44.3359 56.5911 45.284 55.7553 45.9571 55.3775L49.6227 53.3562C49.7645 53.276 49.857 53.1625 50.0277 53.2267L53.2916 54.9754C53.7796 55.2437 55.4111 56.3438 55.9768 56.1689C57.4432 55.7153 56.7072 54.0734 56.52 53.0145L56.079 50.2175C55.8765 49.0134 55.7771 49.1737 56.6561 48.3334L59.7641 45.5366C60.2979 45.0809 61.1345 44.4985 60.7899 43.6839C60.3445 42.6308 59.0166 42.8446 58.0962 42.7409L54.8274 42.4066C53.8045 42.2812 53.759 42.3641 53.2338 41.462L51.6999 38.4993C51.2786 37.6334 51.0379 36.3832 49.911 36.3093Z" fill="#FF5D00"/>
</svg>
