<svg xmlns="http://www.w3.org/2000/svg" width="65" height="121" viewBox="0 0 65 121" fill="none"><path d="M17.032 103.789C14.9622 106.456 13.0853 111.086 15.8568 112.928C19.0668 110.788 19.2422 106.771 17.032 103.789Z" fill="white"></path><path d="M22.4346 101.123C20.5928 103.93 19.1194 108.596 21.9435 110.209C24.978 107.824 24.7851 103.842 22.4346 101.123Z" fill="white"></path><path d="M27.539 97.9657C25.9954 100.772 24.8377 105.561 27.7144 106.929C30.5034 104.333 30.0123 100.421 27.539 97.9657Z" fill="white"></path><path d="M32.2926 94.2996C31.1524 97.2991 30.1877 101.947 33.1696 103.123C35.7656 100.334 34.8535 96.4747 32.2926 94.2996Z" fill="white"></path><path d="M36.6251 90.1776C35.6955 93.1069 35.2745 97.878 38.2038 98.7902C40.3613 96.0713 39.5194 92.2825 36.6251 90.1776Z" fill="white"></path><path d="M40.4666 85.652C39.8526 88.7392 39.8351 93.3349 42.7644 93.9839C44.6413 91.1598 43.5011 87.4587 40.4666 85.652Z" fill="white"></path><path d="M43.7818 80.7231C43.3959 83.6349 43.9046 88.3007 46.7813 88.7217C48.395 85.4065 46.6935 82.1264 43.7818 80.7231Z" fill="white"></path><path d="M46.483 75.4784C46.4129 78.32 47.325 82.9333 50.1666 83.0736C51.3945 79.8461 49.6053 76.6536 46.483 75.4784Z" fill="white"></path><path d="M48.5004 69.9354C48.7986 72.7419 50.0615 77.1622 52.868 77.057C53.7977 73.7066 51.57 70.7598 48.5004 69.9354Z" fill="white"></path><path d="M49.8159 64.1996C50.4298 66.9536 52.0787 71.1458 54.8151 70.7775C55.3939 67.5675 53.0084 64.7259 49.8159 64.1996Z" fill="white"></path><path d="M50.4122 58.3234C51.1664 60.9019 53.3941 64.9012 55.9902 64.3223C56.2182 61.393 53.8326 58.5514 50.4122 58.3234Z" fill="white"></path><path d="M50.272 52.3945C51.3244 54.8503 53.8328 58.5865 56.3587 57.7796C56.1657 54.4644 53.289 52.3068 50.272 52.3945Z" fill="white"></path><path d="M49.3774 46.5184C50.728 48.7987 53.4819 52.2543 55.9026 51.2369C55.5868 48.5181 52.7277 46.115 49.3774 46.5184Z" fill="white"></path><path d="M47.7461 40.765C49.2721 42.8699 52.3593 46.0273 54.6572 44.817C53.9205 41.9227 50.7982 40.116 47.7461 40.765Z" fill="white"></path><path d="M45.3956 35.2221C47.1847 37.1691 50.4824 39.9757 52.6224 38.5899C51.5173 35.6957 48.2372 34.345 45.3956 35.2221Z" fill="white"></path><path d="M42.3786 29.9423C44.3432 31.8368 47.9215 34.1346 49.8335 32.6612C48.4302 29.8722 45.0097 28.8899 42.3786 29.9423Z" fill="white"></path><path d="M38.7652 25.0133C40.6421 26.6095 44.5888 28.7144 46.413 27.0831C44.7291 24.4344 41.256 23.803 38.7652 25.0133Z" fill="white"></path><path d="M34.5905 20.4702C36.5901 21.8735 40.6771 23.6802 42.3611 21.9261C40.4491 19.4353 36.9409 19.1196 34.5905 20.4702Z" fill="white"></path><path d="M29.9246 16.3657C32.0295 17.5935 36.2042 19.0845 37.7829 17.2427C35.9586 15.1203 32.3627 14.7519 29.9246 16.3657Z" fill="white"></path><path d="M24.8202 12.7348C27.118 13.8398 31.2752 14.9274 32.7136 13.0505C30.6613 11.0684 27.1005 11.0158 24.8202 12.7348Z" fill="white"></path><path d="M19.4 9.57735C21.6979 10.4018 25.9252 11.3841 27.2934 9.36686C24.9956 7.48999 21.4698 7.82327 19.4 9.57735Z" fill="white"></path><path d="M24.5922 119.804C24.6449 116.085 21.6278 113.279 17.1023 114.173C15.9095 117.05 18.3652 120.12 24.5922 119.804Z" fill="white"></path><path d="M31.2752 116.068C30.9068 112.507 27.6618 110.016 23.2941 111.332C22.4346 114.226 25.171 117.015 31.2752 116.068Z" fill="white"></path><path d="M37.6074 111.7C36.8356 108.297 33.4152 106.21 29.2229 107.911C28.5037 111.911 33.4327 112.788 37.6074 111.7Z" fill="white"></path><path d="M43.4486 106.701C42.3435 103.631 38.9757 101.842 34.7834 103.947C34.5379 107.508 38.888 108.525 43.4486 106.701Z" fill="white"></path><path d="M48.7636 101.123C47.3428 98.3165 43.9047 96.9483 39.923 99.4567C40.0633 102.281 43.6416 103.842 48.7636 101.123Z" fill="white"></path><path d="M53.4644 95.0013C51.4297 92.0369 47.3953 91.9141 44.5712 94.4575C45.2729 98.1937 50.2369 97.3167 53.4644 95.0013Z" fill="white"></path><path d="M57.4463 88.3709C55.166 85.8976 51.2193 86.0555 48.6407 88.9673C49.816 92.5982 54.4643 90.9669 57.4463 88.3709Z" fill="white"></path><path d="M60.6386 81.3195C57.9198 79.1269 54.2713 80.1091 52.0612 83.0911C53.6398 86.4063 58.3408 84.1962 60.6386 81.3195Z" fill="white"></path><path d="M62.919 73.9171C60.3755 72.4262 56.7621 73.1629 54.7625 76.8289C56.5516 79.5302 60.5334 77.6358 62.919 73.9171Z" fill="white"></path><path d="M64.2871 66.3045C61.6208 65.252 58.2881 66.4097 56.7094 70.3038C58.9196 72.8121 62.6733 69.8477 64.2871 66.3045Z" fill="white"></path><path d="M64.6905 58.6215C61.5683 57.9199 58.5161 60.2703 57.8145 63.6031C60.1299 65.5151 63.2522 62.9015 64.6905 58.6215Z" fill="white"></path><path d="M64.1292 50.9562C61.1824 50.7808 58.3934 53.219 58.0776 56.8149C60.5509 58.3058 63.2873 55.394 64.1292 50.9562Z" fill="white"></path><path d="M62.6208 43.4488C59.4634 43.7645 57.341 46.8868 57.5164 50.0442C60.5334 51.2896 62.5331 46.8693 62.6208 43.4488Z" fill="white"></path><path d="M60.1826 36.2393C57.2182 37.0111 55.4992 40.3263 56.0956 43.4311C58.8144 44.1327 60.5159 40.3263 60.1826 36.2393Z" fill="white"></path><path d="M56.92 29.3985C54.5695 30.4334 52.8856 33.3452 53.9029 37.0112C56.9726 37.3094 57.6567 32.398 56.92 29.3985Z" fill="white"></path><path d="M52.9032 23.0487C50.7106 24.4344 49.5178 27.5742 50.9386 30.9245C53.675 30.7842 54.0959 26.6797 52.9032 23.0487Z" fill="white"></path><path d="M48.2022 17.2427C46.1675 18.9968 45.5886 22.4523 47.2901 25.2413C49.7283 24.7326 49.9563 20.9613 48.2022 17.2427Z" fill="white"></path><path d="M42.9399 12.0154C41.2209 13.9976 41.0455 17.4005 43.0451 19.979C45.5184 19.0844 44.8518 14.9623 42.9399 12.0154Z" fill="white"></path><path d="M37.2041 7.40216C35.7833 9.61231 36.099 13.1029 38.2741 15.2254C40.4141 14.1028 39.5896 10.3666 37.2041 7.40216Z" fill="white"></path><path d="M31.0473 3.38538C29.8721 5.96388 30.8894 9.33172 33.0294 10.963C35.1343 9.47205 33.2224 5.4552 31.0473 3.38538Z" fill="white"></path><path d="M24.5747 0C23.8556 2.36802 24.8203 5.64815 27.3988 7.26191C29.3458 5.43766 26.6972 1.75409 24.5747 0Z" fill="white"></path><path d="M12.5591 1.66639C15.1026 3.96424 20.1017 6.87603 23.4169 6.05161C21.8733 2.63114 16.2953 1.22787 12.5591 1.66639Z" fill="white"></path><path d="M8.84052 116.191C8.84052 117.383 9.80526 118.366 11.0156 118.366C12.2259 118.366 13.1906 117.401 13.1906 116.191C13.1906 114.98 12.2259 114.016 11.0156 114.016C9.80526 114.016 8.84052 114.98 8.84052 116.191Z" fill="white"></path><path d="M2.56097 120.313C3.97535 120.313 5.12193 119.166 5.12193 117.752C5.12193 116.337 3.97535 115.191 2.56097 115.191C1.14659 115.191 0 116.337 0 117.752C0 119.166 1.14659 120.313 2.56097 120.313Z" fill="white"></path></svg>