<svg width="74" height="74" viewBox="0 0 74 74" fill="none" xmlns="http://www.w3.org/2000/svg">
<path d="M45.9597 0H46.849L61.3864 7.34455L61.6271 7.69147V66.3145L61.3864 66.6614L46.852 74H45.9509L45.9597 0Z" fill="#5294CF"/>
<path d="M27.0403 0H26.1363L11.6106 7.34455L11.3171 7.85751L11.1674 66.015L11.6106 66.6614L26.1392 74H27.055L27.0403 0Z" fill="#1F5B98"/>
<path d="M26.1627 74H46.8373V0H26.1627V74Z" fill="#2D72B8"/>
<path d="M69 38.6619L68.5098 38.7716L61.495 39.4329L61.3923 39.3795L46.8402 39.9666H26.1656L11.6136 39.3795V50.5905L11.5989 50.5816L11.6136 50.6143L26.1656 54.0212H46.8373L61.3894 50.6143L66.74 47.7411V49.5883L69 49.8374L68.7652 50.3L61.6066 55.4711L61.3894 55.3999L46.8373 59.9543H26.1627L11.6106 55.3999L11.6106 66.6614L4 57.6564V49.79L4.0587 49.8344L6.26 49.5913V47.7055L4 46.4839V38.656L4.0587 38.6619L6.26 38.6293V35.344L4.36101 35.3143L4 35.3499V27.5191L6.26 26.2915V24.385L4.09392 24.1448L4 24.216V16.3525L11.6106 7.34455L11.6106 18.606L26.1627 14.0516H46.8373L61.4305 18.6208L61.6242 18.5348L68.6889 23.6289L68.9971 24.1359L66.7371 24.3879V26.256L66.4406 26.3746L61.6066 23.7416L61.4305 23.3709L46.8373 19.9848V19.9818H26.1627V19.9848L11.6106 23.3857V34.6353L26.1627 34.0482V34.0334H46.8373L61.3894 34.6324L61.721 34.4782L68.5216 35.0682L69 35.3054L66.74 35.3381V38.6234L69 38.6619Z" fill="#1A476F"/>
<path d="M61.3894 18.606V7.34455L69 16.3525V24.1656L61.4334 18.6179L61.3894 18.606ZM61.3894 23.362L61.4334 23.3709L69 27.4835V35.344L61.3894 34.6383V23.362ZM61.4334 50.6054L61.3894 50.6143L61.3894 39.3795L69 38.6619V46.5195L61.4334 50.6054ZM61.4334 55.3554L69 49.8404V57.6534L61.3894 66.6614L61.3894 55.3999L61.4334 55.3851V55.3554Z" fill="#2D72B8"/>
</svg>
