<svg width="72" height="62" viewBox="0 0 72 62" fill="none" xmlns="http://www.w3.org/2000/svg">
<path d="M2.63415 25.2128V26.0908H1.7561V25.2128H2.63415ZM2.63415 24.3347V25.2128H1.7561V24.3347H2.63415ZM2.63415 23.4567V24.3347H1.7561V23.4567H2.63415ZM2.63415 22.5786V23.4567H1.7561V22.5786H2.63415ZM2.63415 21.7006V22.5786H1.7561V21.7006H2.63415ZM2.63415 20.8225V21.7006H1.7561V20.8225H2.63415ZM2.63415 19.9445V20.8225H1.7561V19.9445H2.63415ZM2.63415 19.0664V19.9445H1.7561V19.0664H2.63415ZM2.63415 18.1884V19.0664H1.7561V18.1884H2.63415ZM2.63415 17.3103V18.1884H1.7561V17.3103H2.63415ZM2.63415 16.4323V17.3103H1.7561V16.4323H2.63415ZM2.63415 15.5542V16.4323H1.7561V15.5542H2.63415ZM2.63415 14.6762V15.5542H1.7561V14.6762H2.63415ZM2.63415 13.7981V14.6762H1.7561V13.7981H2.63415ZM2.63415 12.9201V13.7981H1.7561V12.9201H2.63415ZM3.51219 12.9201V13.7981H2.63415V12.9201H3.51219ZM3.51219 13.7981V14.6762H2.63415V13.7981H3.51219ZM3.51219 14.6762V15.5542H2.63415V14.6762H3.51219ZM3.51219 15.5542V16.4323H2.63415V15.5542H3.51219ZM3.51219 16.4323V17.3103H2.63415V16.4323H3.51219ZM3.51219 17.3103V18.1884H2.63415V17.3103H3.51219ZM3.51219 18.1884V19.0664H2.63415V18.1884H3.51219ZM4.39024 19.0664V19.9445H3.51219V19.0664H4.39024ZM4.39024 19.9445V20.8225H3.51219V19.9445H4.39024ZM4.39024 20.8225V21.7006H3.51219V20.8225H4.39024ZM4.39024 21.7006V22.5786H3.51219V21.7006H4.39024ZM4.39024 22.5786V23.4567H3.51219V22.5786H4.39024ZM4.39024 23.4567V24.3347H3.51219V23.4567H4.39024ZM4.39024 24.3347V25.2128H3.51219V24.3347H4.39024ZM4.39024 25.2128V26.0908H3.51219V25.2128H4.39024ZM5.26829 25.2128V26.0908H4.39024V25.2128H5.26829ZM6.14634 25.2128V26.0908H5.26829V25.2128H6.14634ZM6.14634 24.3347V25.2128H5.26829V24.3347H6.14634ZM6.14634 23.4567V24.3347H5.26829V23.4567H6.14634ZM6.14634 22.5786V23.4567H5.26829V22.5786H6.14634ZM6.14634 21.7006V22.5786H5.26829V21.7006H6.14634ZM6.14634 20.8225V21.7006H5.26829V20.8225H6.14634ZM6.14634 19.9445V20.8225H5.26829V19.9445H6.14634ZM6.14634 19.0664V19.9445H5.26829V19.0664H6.14634ZM5.26829 19.0664V19.9445H4.39024V19.0664H5.26829ZM5.26829 18.1884V19.0664H4.39024V18.1884H5.26829ZM5.26829 19.9445V20.8225H4.39024V19.9445H5.26829ZM5.26829 20.8225V21.7006H4.39024V20.8225H5.26829ZM5.26829 21.7006V22.5786H4.39024V21.7006H5.26829ZM5.26829 22.5786V23.4567H4.39024V22.5786H5.26829ZM5.26829 23.4567V24.3347H4.39024V23.4567H5.26829ZM5.26829 24.3347V25.2128H4.39024V24.3347H5.26829ZM3.51219 25.2128V26.0908H2.63415V25.2128H3.51219ZM3.51219 24.3347V25.2128H2.63415V24.3347H3.51219ZM3.51219 23.4567V24.3347H2.63415V23.4567H3.51219ZM3.51219 22.5786V23.4567H2.63415V22.5786H3.51219ZM3.51219 21.7006V22.5786H2.63415V21.7006H3.51219ZM3.51219 20.8225V21.7006H2.63415V20.8225H3.51219ZM3.51219 19.9445V20.8225H2.63415V19.9445H3.51219ZM3.51219 19.0664V19.9445H2.63415V19.0664H3.51219ZM2.63415 10.2859V11.164H1.7561V10.2859H2.63415ZM2.63415 11.164V12.042H1.7561V11.164H2.63415ZM2.63415 12.042V12.9201H1.7561V12.042H2.63415ZM5.26829 8.52985V9.40789H4.39024V8.52985H5.26829ZM5.26829 10.2859V11.164H4.39024V10.2859H5.26829ZM5.26829 11.164V12.042H4.39024V11.164H5.26829ZM5.26829 12.042V12.9201H4.39024V12.042H5.26829ZM5.26829 12.9201V13.7981H4.39024V12.9201H5.26829ZM5.26829 13.7981V14.6762H4.39024V13.7981H5.26829ZM5.26829 14.6762V15.5542H4.39024V14.6762H5.26829ZM5.26829 15.5542V16.4323H4.39024V15.5542H5.26829ZM6.14634 16.4323V17.3103H5.26829V16.4323H6.14634ZM6.14634 17.3103V18.1884H5.26829V17.3103H6.14634ZM6.14634 18.1884V19.0664H5.26829V18.1884H6.14634ZM6.14634 15.5542V16.4323H5.26829V15.5542H6.14634ZM6.14634 14.6762V15.5542H5.26829V14.6762H6.14634ZM6.14634 13.7981V14.6762H5.26829V13.7981H6.14634ZM6.14634 12.9201V13.7981H5.26829V12.9201H6.14634ZM6.14634 12.042V12.9201H5.26829V12.042H6.14634ZM6.14634 11.164V12.042H5.26829V11.164H6.14634ZM6.14634 10.2859V11.164H5.26829V10.2859H6.14634ZM6.14634 9.40789V10.2859H5.26829V9.40789H6.14634ZM6.14634 8.52985V9.40789H5.26829V8.52985H6.14634ZM6.14634 7.6518V8.52985H5.26829V7.6518H6.14634ZM5.26829 9.40789V10.2859H4.39024V9.40789H5.26829ZM6.14634 6.77375V7.6518H5.26829V6.77375H6.14634ZM6.14634 5.8957V6.77375H5.26829V5.8957H6.14634ZM4.39024 8.52985V9.40789H3.51219V8.52985H4.39024ZM4.39024 9.40789V10.2859H3.51219V9.40789H4.39024ZM4.39024 10.2859V11.164H3.51219V10.2859H4.39024ZM3.51219 11.164V12.042H2.63415V11.164H3.51219ZM3.51219 12.042V12.9201H2.63415V12.042H3.51219ZM3.51219 10.2859V11.164H2.63415V10.2859H3.51219ZM3.51219 9.40789V10.2859H2.63415V9.40789H3.51219ZM4.39024 11.164V12.042H3.51219V11.164H4.39024ZM4.39024 12.042V12.9201H3.51219V12.042H4.39024ZM4.39024 12.9201V13.7981H3.51219V12.9201H4.39024ZM4.39024 13.7981V14.6762H3.51219V13.7981H4.39024ZM4.39024 14.6762V15.5542H3.51219V14.6762H4.39024ZM4.39024 15.5542V16.4323H3.51219V15.5542H4.39024ZM4.39024 16.4323V17.3103H3.51219V16.4323H4.39024ZM4.39024 17.3103V18.1884H3.51219V17.3103H4.39024ZM4.39024 18.1884V19.0664H3.51219V18.1884H4.39024ZM5.26829 17.3103V18.1884H4.39024V17.3103H5.26829ZM5.26829 16.4323V17.3103H4.39024V16.4323H5.26829ZM12.2927 25.2128V26.0908H11.4146V25.2128H12.2927ZM12.2927 24.3347V25.2128H11.4146V24.3347H12.2927ZM12.2927 23.4567V24.3347H11.4146V23.4567H12.2927ZM12.2927 22.5786V23.4567H11.4146V22.5786H12.2927ZM12.2927 21.7006V22.5786H11.4146V21.7006H12.2927ZM12.2927 20.8225V21.7006H11.4146V20.8225H12.2927ZM12.2927 19.9445V20.8225H11.4146V19.9445H12.2927ZM12.2927 19.0664V19.9445H11.4146V19.0664H12.2927ZM12.2927 18.1884V19.0664H11.4146V18.1884H12.2927ZM12.2927 17.3103V18.1884H11.4146V17.3103H12.2927ZM12.2927 16.4323V17.3103H11.4146V16.4323H12.2927ZM12.2927 15.5542V16.4323H11.4146V15.5542H12.2927ZM12.2927 14.6762V15.5542H11.4146V14.6762H12.2927ZM12.2927 13.7981V14.6762H11.4146V13.7981H12.2927ZM12.2927 12.9201V13.7981H11.4146V12.9201H12.2927ZM13.1707 12.9201V13.7981H12.2927V12.9201H13.1707ZM13.1707 13.7981V14.6762H12.2927V13.7981H13.1707ZM13.1707 14.6762V15.5542H12.2927V14.6762H13.1707ZM13.1707 15.5542V16.4323H12.2927V15.5542H13.1707ZM13.1707 16.4323V17.3103H12.2927V16.4323H13.1707ZM13.1707 17.3103V18.1884H12.2927V17.3103H13.1707ZM13.1707 18.1884V19.0664H12.2927V18.1884H13.1707ZM14.0488 19.0664V19.9445H13.1707V19.0664H14.0488ZM14.0488 19.9445V20.8225H13.1707V19.9445H14.0488ZM14.0488 20.8225V21.7006H13.1707V20.8225H14.0488ZM14.0488 21.7006V22.5786H13.1707V21.7006H14.0488ZM14.0488 22.5786V23.4567H13.1707V22.5786H14.0488ZM14.0488 23.4567V24.3347H13.1707V23.4567H14.0488ZM14.0488 24.3347V25.2128H13.1707V24.3347H14.0488ZM14.0488 25.2128V26.0908H13.1707V25.2128H14.0488ZM14.9268 25.2128V26.0908H14.0488V25.2128H14.9268ZM15.8049 25.2128V26.0908H14.9268V25.2128H15.8049ZM15.8049 24.3347V25.2128H14.9268V24.3347H15.8049ZM15.8049 23.4567V24.3347H14.9268V23.4567H15.8049ZM15.8049 22.5786V23.4567H14.9268V22.5786H15.8049ZM15.8049 21.7006V22.5786H14.9268V21.7006H15.8049ZM15.8049 20.8225V21.7006H14.9268V20.8225H15.8049ZM15.8049 19.9445V20.8225H14.9268V19.9445H15.8049ZM15.8049 19.0664V19.9445H14.9268V19.0664H15.8049ZM14.9268 19.0664V19.9445H14.0488V19.0664H14.9268ZM14.9268 18.1884V19.0664H14.0488V18.1884H14.9268ZM14.9268 19.9445V20.8225H14.0488V19.9445H14.9268ZM14.9268 20.8225V21.7006H14.0488V20.8225H14.9268ZM14.9268 21.7006V22.5786H14.0488V21.7006H14.9268ZM14.9268 22.5786V23.4567H14.0488V22.5786H14.9268ZM14.9268 23.4567V24.3347H14.0488V23.4567H14.9268ZM14.9268 24.3347V25.2128H14.0488V24.3347H14.9268ZM13.1707 25.2128V26.0908H12.2927V25.2128H13.1707ZM13.1707 24.3347V25.2128H12.2927V24.3347H13.1707ZM13.1707 23.4567V24.3347H12.2927V23.4567H13.1707ZM13.1707 22.5786V23.4567H12.2927V22.5786H13.1707ZM13.1707 21.7006V22.5786H12.2927V21.7006H13.1707ZM13.1707 20.8225V21.7006H12.2927V20.8225H13.1707ZM13.1707 19.9445V20.8225H12.2927V19.9445H13.1707ZM13.1707 19.0664V19.9445H12.2927V19.0664H13.1707ZM12.2927 5.8957V6.77375H11.4146V5.8957H12.2927ZM12.2927 6.77375V7.6518H11.4146V6.77375H12.2927ZM12.2927 7.6518V8.52985H11.4146V7.6518H12.2927ZM12.2927 8.52985V9.40789H11.4146V8.52985H12.2927ZM12.2927 9.40789V10.2859H11.4146V9.40789H12.2927ZM12.2927 10.2859V11.164H11.4146V10.2859H12.2927ZM12.2927 11.164V12.042H11.4146V11.164H12.2927ZM12.2927 12.042V12.9201H11.4146V12.042H12.2927ZM14.9268 8.52985V9.40789H14.0488V8.52985H14.9268ZM14.9268 10.2859V11.164H14.0488V10.2859H14.9268ZM14.9268 11.164V12.042H14.0488V11.164H14.9268ZM14.9268 12.042V12.9201H14.0488V12.042H14.9268ZM14.9268 12.9201V13.7981H14.0488V12.9201H14.9268ZM14.9268 13.7981V14.6762H14.0488V13.7981H14.9268ZM14.9268 14.6762V15.5542H14.0488V14.6762H14.9268ZM14.9268 15.5542V16.4323H14.0488V15.5542H14.9268ZM15.8049 16.4323V17.3103H14.9268V16.4323H15.8049ZM15.8049 17.3103V18.1884H14.9268V17.3103H15.8049ZM15.8049 18.1884V19.0664H14.9268V18.1884H15.8049ZM15.8049 15.5542V16.4323H14.9268V15.5542H15.8049ZM15.8049 14.6762V15.5542H14.9268V14.6762H15.8049ZM15.8049 13.7981V14.6762H14.9268V13.7981H15.8049ZM15.8049 12.9201V13.7981H14.9268V12.9201H15.8049ZM15.8049 12.042V12.9201H14.9268V12.042H15.8049ZM15.8049 11.164V12.042H14.9268V11.164H15.8049ZM15.8049 10.2859V11.164H14.9268V10.2859H15.8049ZM15.8049 9.40789V10.2859H14.9268V9.40789H15.8049ZM14.9268 9.40789V10.2859H14.0488V9.40789H14.9268ZM14.0488 7.6518V8.52985H13.1707V7.6518H14.0488ZM14.0488 8.52985V9.40789H13.1707V8.52985H14.0488ZM14.0488 9.40789V10.2859H13.1707V9.40789H14.0488ZM14.0488 10.2859V11.164H13.1707V10.2859H14.0488ZM13.1707 11.164V12.042H12.2927V11.164H13.1707ZM13.1707 12.042V12.9201H12.2927V12.042H13.1707ZM13.1707 10.2859V11.164H12.2927V10.2859H13.1707ZM13.1707 9.40789V10.2859H12.2927V9.40789H13.1707ZM13.1707 8.52985V9.40789H12.2927V8.52985H13.1707ZM13.1707 7.6518V8.52985H12.2927V7.6518H13.1707ZM13.1707 6.77375V7.6518H12.2927V6.77375H13.1707ZM14.0488 11.164V12.042H13.1707V11.164H14.0488ZM14.0488 12.042V12.9201H13.1707V12.042H14.0488ZM14.0488 12.9201V13.7981H13.1707V12.9201H14.0488ZM14.0488 13.7981V14.6762H13.1707V13.7981H14.0488ZM14.0488 14.6762V15.5542H13.1707V14.6762H14.0488ZM14.0488 15.5542V16.4323H13.1707V15.5542H14.0488ZM14.0488 16.4323V17.3103H13.1707V16.4323H14.0488ZM14.0488 17.3103V18.1884H13.1707V17.3103H14.0488ZM14.0488 18.1884V19.0664H13.1707V18.1884H14.0488ZM14.9268 17.3103V18.1884H14.0488V17.3103H14.9268ZM14.9268 16.4323V17.3103H14.0488V16.4323H14.9268ZM7.90244 4.1396V5.01765H7.02439V4.1396H7.90244ZM8.78049 4.1396V5.01765H7.90244V4.1396H8.78049ZM9.65854 4.1396V5.01765H8.78049V4.1396H9.65854ZM10.5366 4.1396V5.01765H9.65854V4.1396H10.5366ZM11.4146 5.01765V5.8957H10.5366V5.01765H11.4146ZM10.5366 5.01765V5.8957H9.65854V5.01765H10.5366ZM9.65854 5.01765V5.8957H8.78049V5.01765H9.65854ZM8.78049 5.01765V5.8957H7.90244V5.01765H8.78049ZM7.90244 5.01765V5.8957H7.02439V5.01765H7.90244ZM7.02439 5.01765V5.8957H6.14634V5.01765H7.02439ZM7.02439 5.8957V6.77375H6.14634V5.8957H7.02439ZM7.02439 6.77375V7.6518H6.14634V6.77375H7.02439ZM7.90244 5.8957V6.77375H7.02439V5.8957H7.90244ZM8.78049 5.8957V6.77375H7.90244V5.8957H8.78049ZM9.65854 5.8957V6.77375H8.78049V5.8957H9.65854ZM10.5366 5.8957V6.77375H9.65854V5.8957H10.5366ZM11.4146 5.8957V6.77375H10.5366V5.8957H11.4146ZM11.4146 6.77375V7.6518H10.5366V6.77375H11.4146ZM10.5366 6.77375V7.6518H9.65854V6.77375H10.5366ZM9.65854 6.77375V7.6518H8.78049V6.77375H9.65854ZM8.78049 6.77375V7.6518H7.90244V6.77375H8.78049ZM7.90244 6.77375V7.6518H7.02439V6.77375H7.90244ZM7.02439 7.6518V8.52985H6.14634V7.6518H7.02439ZM7.90244 7.6518V8.52985H7.02439V7.6518H7.90244ZM11.4146 7.6518V8.52985H10.5366V7.6518H11.4146ZM10.5366 7.6518V8.52985H9.65854V7.6518H10.5366ZM11.4146 8.52985V9.40789H10.5366V8.52985H11.4146ZM7.02439 8.52985V9.40789H6.14634V8.52985H7.02439ZM5.26829 6.77375V7.6518H4.39024V6.77375H5.26829ZM5.26829 7.6518V8.52985H4.39024V7.6518H5.26829ZM4.39024 7.6518V8.52985H3.51219V7.6518H4.39024ZM3.51219 8.52985V9.40789H2.63415V8.52985H3.51219ZM2.63415 9.40789V10.2859H1.7561V9.40789H2.63415ZM7.02439 9.40789V10.2859H6.14634V9.40789H7.02439ZM7.90244 8.52985V9.40789H7.02439V8.52985H7.90244ZM8.78049 7.6518V8.52985H7.90244V7.6518H8.78049ZM9.65854 7.6518V8.52985H8.78049V7.6518H9.65854ZM10.5366 8.52985V9.40789H9.65854V8.52985H10.5366ZM11.4146 9.40789V10.2859H10.5366V9.40789H11.4146ZM7.02439 19.9445V20.8225H6.14634V19.9445H7.02439ZM7.90244 19.9445V20.8225H7.02439V19.9445H7.90244ZM8.78049 19.9445V20.8225H7.90244V19.9445H8.78049ZM9.65854 19.9445V20.8225H8.78049V19.9445H9.65854ZM10.5366 19.9445V20.8225H9.65854V19.9445H10.5366ZM11.4146 19.9445V20.8225H10.5366V19.9445H11.4146ZM11.4146 19.0664V19.9445H10.5366V19.0664H11.4146ZM10.5366 19.0664V19.9445H9.65854V19.0664H10.5366ZM9.65854 19.0664V19.9445H8.78049V19.0664H9.65854ZM8.78049 19.0664V19.9445H7.90244V19.0664H8.78049ZM7.90244 19.0664V19.9445H7.02439V19.0664H7.90244ZM7.02439 19.0664V19.9445H6.14634V19.0664H7.02439ZM7.02439 18.1884V19.0664H6.14634V18.1884H7.02439ZM7.90244 18.1884V19.0664H7.02439V18.1884H7.90244ZM8.78049 18.1884V19.0664H7.90244V18.1884H8.78049ZM9.65854 18.1884V19.0664H8.78049V18.1884H9.65854ZM10.5366 18.1884V19.0664H9.65854V18.1884H10.5366ZM11.4146 18.1884V19.0664H10.5366V18.1884H11.4146ZM11.4146 17.3103V18.1884H10.5366V17.3103H11.4146ZM10.5366 17.3103V18.1884H9.65854V17.3103H10.5366ZM9.65854 17.3103V18.1884H8.78049V17.3103H9.65854ZM8.78049 17.3103V18.1884H7.90244V17.3103H8.78049ZM7.90244 17.3103V18.1884H7.02439V17.3103H7.90244ZM7.02439 17.3103V18.1884H6.14634V17.3103H7.02439ZM7.02439 16.4323V17.3103H6.14634V16.4323H7.02439ZM7.90244 16.4323V17.3103H7.02439V16.4323H7.90244ZM8.78049 16.4323V17.3103H7.90244V16.4323H8.78049ZM9.65854 16.4323V17.3103H8.78049V16.4323H9.65854ZM10.5366 16.4323V17.3103H9.65854V16.4323H10.5366ZM11.4146 16.4323V17.3103H10.5366V16.4323H11.4146ZM8.78049 8.52985V9.40789H7.90244V8.52985H8.78049ZM9.65854 8.52985V9.40789H8.78049V8.52985H9.65854ZM7.90244 9.40789V10.2859H7.02439V9.40789H7.90244ZM7.02439 10.2859V11.164H6.14634V10.2859H7.02439ZM10.5366 9.40789V10.2859H9.65854V9.40789H10.5366ZM11.4146 10.2859V11.164H10.5366V10.2859H11.4146ZM20.2123 5.01765H19.3342V4.1396H20.2123V5.01765ZM20.2123 5.8957H19.3342V5.01765H20.2123V5.8957ZM20.2123 6.77375H19.3342V5.8957H20.2123V6.77375ZM20.2123 7.6518H19.3342V6.77375H20.2123V7.6518ZM20.2123 8.52985H19.3342V7.6518H20.2123V8.52985ZM20.2123 9.40789H19.3342V8.52985H20.2123V9.40789ZM20.2123 10.2859H19.3342V9.40789H20.2123V10.2859ZM20.2123 11.164H19.3342V10.2859H20.2123V11.164ZM20.2123 12.042H19.3342V11.164H20.2123V12.042ZM20.2123 12.9201H19.3342V12.042H20.2123V12.9201ZM20.2123 13.7981H19.3342V12.9201H20.2123V13.7981ZM20.2123 14.6762H19.3342V13.7981H20.2123V14.6762ZM20.2123 15.5542H19.3342V14.6762H20.2123V15.5542ZM20.2123 16.4323H19.3342V15.5542H20.2123V16.4323ZM20.2123 17.3103H19.3342V16.4323H20.2123V17.3103ZM21.0903 17.3103H20.2123V16.4323H21.0903V17.3103ZM21.0903 16.4323H20.2123V15.5542H21.0903V16.4323ZM21.0903 15.5542H20.2123V14.6762H21.0903V15.5542ZM21.0903 14.6762H20.2123V13.7981H21.0903V14.6762ZM21.0903 13.7981H20.2123V12.9201H21.0903V13.7981ZM21.0903 12.9201H20.2123V12.042H21.0903V12.9201ZM21.0903 12.042H20.2123V11.164H21.0903V12.042ZM21.9684 11.164H21.0903V10.2859H21.9684V11.164ZM21.9684 10.2859H21.0903V9.40789H21.9684V10.2859ZM21.9684 9.40789H21.0903V8.52985H21.9684V9.40789ZM21.9684 8.52985H21.0903V7.6518H21.9684V8.52985ZM21.9684 7.6518H21.0903V6.77375H21.9684V7.6518ZM21.9684 6.77375H21.0903V5.8957H21.9684V6.77375ZM21.9684 5.8957H21.0903V5.01765H21.9684V5.8957ZM21.9684 5.01765H21.0903V4.1396H21.9684V5.01765ZM22.8464 5.01765H21.9684V4.1396H22.8464V5.01765ZM23.7245 5.01765H22.8464V4.1396H23.7245V5.01765ZM23.7245 5.8957H22.8464V5.01765H23.7245V5.8957ZM23.7245 6.77375H22.8464V5.8957H23.7245V6.77375ZM23.7245 7.6518H22.8464V6.77375H23.7245V7.6518ZM23.7245 8.52985H22.8464V7.6518H23.7245V8.52985ZM23.7245 9.40789H22.8464V8.52985H23.7245V9.40789ZM23.7245 10.2859H22.8464V9.40789H23.7245V10.2859ZM23.7245 11.164H22.8464V10.2859H23.7245V11.164ZM22.8464 11.164H21.9684V10.2859H22.8464V11.164ZM22.8464 12.042H21.9684V11.164H22.8464V12.042ZM22.8464 10.2859H21.9684V9.40789H22.8464V10.2859ZM22.8464 9.40789H21.9684V8.52985H22.8464V9.40789ZM22.8464 8.52985H21.9684V7.6518H22.8464V8.52985ZM22.8464 7.6518H21.9684V6.77375H22.8464V7.6518ZM22.8464 6.77375H21.9684V5.8957H22.8464V6.77375ZM22.8464 5.8957H21.9684V5.01765H22.8464V5.8957ZM21.0903 5.01765H20.2123V4.1396H21.0903V5.01765ZM21.0903 5.8957H20.2123V5.01765H21.0903V5.8957ZM21.0903 6.77375H20.2123V5.8957H21.0903V6.77375ZM21.0903 7.6518H20.2123V6.77375H21.0903V7.6518ZM21.0903 8.52985H20.2123V7.6518H21.0903V8.52985ZM21.0903 9.40789H20.2123V8.52985H21.0903V9.40789ZM21.0903 10.2859H20.2123V9.40789H21.0903V10.2859ZM21.0903 11.164H20.2123V10.2859H21.0903V11.164ZM20.2123 19.9445H19.3342V19.0664H20.2123V19.9445ZM20.2123 19.0664H19.3342V18.1884H20.2123V19.0664ZM20.2123 18.1884H19.3342V17.3103H20.2123V18.1884ZM22.8464 21.7006H21.9684V20.8225H22.8464V21.7006ZM22.8464 19.9445H21.9684V19.0664H22.8464V19.9445ZM22.8464 19.0664H21.9684V18.1884H22.8464V19.0664ZM22.8464 18.1884H21.9684V17.3103H22.8464V18.1884ZM22.8464 17.3103H21.9684V16.4323H22.8464V17.3103ZM22.8464 16.4323H21.9684V15.5542H22.8464V16.4323ZM22.8464 15.5542H21.9684V14.6762H22.8464V15.5542ZM22.8464 14.6762H21.9684V13.7981H22.8464V14.6762ZM23.7245 13.7981H22.8464V12.9201H23.7245V13.7981ZM23.7245 12.9201H22.8464V12.042H23.7245V12.9201ZM23.7245 12.042H22.8464V11.164H23.7245V12.042ZM23.7245 14.6762H22.8464V13.7981H23.7245V14.6762ZM23.7245 15.5542H22.8464V14.6762H23.7245V15.5542ZM23.7245 16.4323H22.8464V15.5542H23.7245V16.4323ZM23.7245 17.3103H22.8464V16.4323H23.7245V17.3103ZM23.7245 18.1884H22.8464V17.3103H23.7245V18.1884ZM23.7245 19.0664H22.8464V18.1884H23.7245V19.0664ZM23.7245 19.9445H22.8464V19.0664H23.7245V19.9445ZM23.7245 20.8225H22.8464V19.9445H23.7245V20.8225ZM23.7245 21.7006H22.8464V20.8225H23.7245V21.7006ZM23.7245 22.5786H22.8464V21.7006H23.7245V22.5786ZM22.8464 20.8225H21.9684V19.9445H22.8464V20.8225ZM23.7245 23.4567H22.8464V22.5786H23.7245V23.4567ZM23.7245 24.3347H22.8464V23.4567H23.7245V24.3347ZM21.9684 21.7006H21.0903V20.8225H21.9684V21.7006ZM21.9684 20.8225H21.0903V19.9445H21.9684V20.8225ZM21.9684 19.9445H21.0903V19.0664H21.9684V19.9445ZM21.0903 19.0664H20.2123V18.1884H21.0903V19.0664ZM21.0903 18.1884H20.2123V17.3103H21.0903V18.1884ZM21.0903 19.9445H20.2123V19.0664H21.0903V19.9445ZM21.0903 20.8225H20.2123V19.9445H21.0903V20.8225ZM21.9684 19.0664H21.0903V18.1884H21.9684V19.0664ZM21.9684 18.1884H21.0903V17.3103H21.9684V18.1884ZM21.9684 17.3103H21.0903V16.4323H21.9684V17.3103ZM21.9684 16.4323H21.0903V15.5542H21.9684V16.4323ZM21.9684 15.5542H21.0903V14.6762H21.9684V15.5542ZM21.9684 14.6762H21.0903V13.7981H21.9684V14.6762ZM21.9684 13.7981H21.0903V12.9201H21.9684V13.7981ZM21.9684 12.9201H21.0903V12.042H21.9684V12.9201ZM21.9684 12.042H21.0903V11.164H21.9684V12.042ZM22.8464 12.9201H21.9684V12.042H22.8464V12.9201ZM22.8464 13.7981H21.9684V12.9201H22.8464V13.7981ZM28.9928 24.3347H28.1147V23.4567H28.9928V24.3347ZM28.9928 23.4567H28.1147V22.5786H28.9928V23.4567ZM28.9928 22.5786H28.1147V21.7006H28.9928V22.5786ZM28.9928 21.7006H28.1147V20.8225H28.9928V21.7006ZM29.8708 22.5786H28.9928V21.7006H29.8708V22.5786ZM29.8708 23.4567H28.9928V22.5786H29.8708V23.4567ZM25.4806 26.0908H24.6025V25.2128H25.4806V26.0908ZM26.3586 26.0908H25.4806V25.2128H26.3586V26.0908ZM27.2367 26.0908H26.3586V25.2128H27.2367V26.0908ZM28.1147 25.2128H27.2367V24.3347H28.1147V25.2128ZM27.2367 25.2128H26.3586V24.3347H27.2367V25.2128ZM26.3586 25.2128H25.4806V24.3347H26.3586V25.2128ZM25.4806 25.2128H24.6025V24.3347H25.4806V25.2128ZM24.6025 25.2128H23.7245V24.3347H24.6025V25.2128ZM24.6025 24.3347H23.7245V23.4567H24.6025V24.3347ZM24.6025 23.4567H23.7245V22.5786H24.6025V23.4567ZM25.4806 24.3347H24.6025V23.4567H25.4806V24.3347ZM26.3586 24.3347H25.4806V23.4567H26.3586V24.3347ZM27.2367 24.3347H26.3586V23.4567H27.2367V24.3347ZM28.1147 24.3347H27.2367V23.4567H28.1147V24.3347ZM28.1147 23.4567H27.2367V22.5786H28.1147V23.4567ZM27.2367 23.4567H26.3586V22.5786H27.2367V23.4567ZM26.3586 23.4567H25.4806V22.5786H26.3586V23.4567ZM25.4806 23.4567H24.6025V22.5786H25.4806V23.4567ZM24.6025 22.5786H23.7245V21.7006H24.6025V22.5786ZM25.4806 22.5786H24.6025V21.7006H25.4806V22.5786ZM28.1147 22.5786H27.2367V21.7006H28.1147V22.5786ZM27.2367 22.5786H26.3586V21.7006H27.2367V22.5786ZM28.1147 21.7006H27.2367V20.8225H28.1147V21.7006ZM24.6025 21.7006H23.7245V20.8225H24.6025V21.7006ZM22.8464 23.4567H21.9684V22.5786H22.8464V23.4567ZM22.8464 22.5786H21.9684V21.7006H22.8464V22.5786ZM21.9684 22.5786H21.0903V21.7006H21.9684V22.5786ZM21.0903 21.7006H20.2123V20.8225H21.0903V21.7006ZM20.2123 20.8225H19.3342V19.9445H20.2123V20.8225ZM24.6025 20.8225H23.7245V19.9445H24.6025V20.8225ZM25.4806 21.7006H24.6025V20.8225H25.4806V21.7006ZM26.3586 22.5786H25.4806V21.7006H26.3586V22.5786ZM27.2367 21.7006H26.3586V20.8225H27.2367V21.7006ZM28.1147 20.8225H27.2367V19.9445H28.1147V20.8225ZM26.3586 21.7006H25.4806V20.8225H26.3586V21.7006ZM25.4806 20.8225H24.6025V19.9445H25.4806V20.8225ZM24.6025 19.9445H23.7245V19.0664H24.6025V19.9445ZM27.2367 20.8225H26.3586V19.9445H27.2367V20.8225ZM28.1147 19.9445H27.2367V19.0664H28.1147V19.9445ZM28.9928 5.01765H28.1147V4.1396H28.9928V5.01765ZM28.9928 5.8957H28.1147V5.01765H28.9928V5.8957ZM28.9928 6.77375H28.1147V5.8957H28.9928V6.77375ZM28.9928 7.6518H28.1147V6.77375H28.9928V7.6518ZM28.9928 8.52985H28.1147V7.6518H28.9928V8.52985ZM28.9928 10.2859H28.1147V9.40789H28.9928V10.2859ZM28.9928 11.164H28.1147V10.2859H28.9928V11.164ZM28.9928 12.042H28.1147V11.164H28.9928V12.042ZM28.9928 12.9201H28.1147V12.042H28.9928V12.9201ZM28.9928 13.7981H28.1147V12.9201H28.9928V13.7981ZM28.9928 14.6762H28.1147V13.7981H28.9928V14.6762ZM28.9928 15.5542H28.1147V14.6762H28.9928V15.5542ZM28.9928 16.4323H28.1147V15.5542H28.9928V16.4323ZM28.9928 17.3103H28.1147V16.4323H28.9928V17.3103ZM29.8708 17.3103H28.9928V16.4323H29.8708V17.3103ZM29.8708 16.4323H28.9928V15.5542H29.8708V16.4323ZM29.8708 15.5542H28.9928V14.6762H29.8708V15.5542ZM29.8708 13.7981H28.9928V12.9201H29.8708V13.7981ZM29.8708 12.9201H28.9928V12.042H29.8708V12.9201ZM29.8708 12.042H28.9928V11.164H29.8708V12.042ZM30.7489 10.2859H29.8708V9.40789H30.7489V10.2859ZM30.7489 9.40789H29.8708V8.52985H30.7489V9.40789ZM30.7489 8.52985H29.8708V7.6518H30.7489V8.52985ZM30.7489 7.6518H29.8708V6.77375H30.7489V7.6518ZM30.7489 6.77375H29.8708V5.8957H30.7489V6.77375ZM30.7489 5.8957H29.8708V5.01765H30.7489V5.8957ZM30.7489 5.01765H29.8708V4.1396H30.7489V5.01765ZM32.505 5.01765H31.6269V4.1396H32.505V5.01765ZM32.505 5.8957H31.6269V5.01765H32.505V5.8957ZM32.505 6.77375H31.6269V5.8957H32.505V6.77375ZM32.505 8.52985H31.6269V7.6518H32.505V8.52985ZM32.505 9.40789H31.6269V8.52985H32.505V9.40789ZM32.505 11.164H31.6269V10.2859H32.505V11.164ZM31.6269 11.164H30.7489V10.2859H31.6269V11.164ZM31.6269 12.042H30.7489V11.164H31.6269V12.042ZM31.6269 10.2859H30.7489V9.40789H31.6269V10.2859ZM31.6269 9.40789H30.7489V8.52985H31.6269V9.40789ZM31.6269 8.52985H30.7489V7.6518H31.6269V8.52985ZM31.6269 7.6518H30.7489V6.77375H31.6269V7.6518ZM31.6269 6.77375H30.7489V5.8957H31.6269V6.77375ZM31.6269 5.8957H30.7489V5.01765H31.6269V5.8957ZM29.8708 5.01765H28.9928V4.1396H29.8708V5.01765ZM29.8708 6.77375H28.9928V5.8957H29.8708V6.77375ZM29.8708 7.6518H28.9928V6.77375H29.8708V7.6518ZM29.8708 8.52985H28.9928V7.6518H29.8708V8.52985ZM29.8708 9.40789H28.9928V8.52985H29.8708V9.40789ZM29.8708 10.2859H28.9928V9.40789H29.8708V10.2859ZM28.9928 19.9445H28.1147V19.0664H28.9928V19.9445ZM28.9928 18.1884H28.1147V17.3103H28.9928V18.1884ZM31.6269 21.7006H30.7489V20.8225H31.6269V21.7006ZM31.6269 19.9445H30.7489V19.0664H31.6269V19.9445ZM31.6269 19.0664H30.7489V18.1884H31.6269V19.0664ZM31.6269 18.1884H30.7489V17.3103H31.6269V18.1884ZM31.6269 17.3103H30.7489V16.4323H31.6269V17.3103ZM31.6269 16.4323H30.7489V15.5542H31.6269V16.4323ZM31.6269 15.5542H30.7489V14.6762H31.6269V15.5542ZM31.6269 14.6762H30.7489V13.7981H31.6269V14.6762ZM32.505 13.7981H31.6269V12.9201H32.505V13.7981ZM32.505 12.9201H31.6269V12.042H32.505V12.9201ZM32.505 12.042H31.6269V11.164H32.505V12.042ZM32.505 14.6762H31.6269V13.7981H32.505V14.6762ZM32.505 15.5542H31.6269V14.6762H32.505V15.5542ZM32.505 16.4323H31.6269V15.5542H32.505V16.4323ZM32.505 17.3103H31.6269V16.4323H32.505V17.3103ZM32.505 18.1884H31.6269V17.3103H32.505V18.1884ZM32.505 19.0664H31.6269V18.1884H32.505V19.0664ZM32.505 19.9445H31.6269V19.0664H32.505V19.9445ZM32.505 20.8225H31.6269V19.9445H32.505V20.8225ZM32.505 21.7006H31.6269V20.8225H32.505V21.7006ZM32.505 22.5786H31.6269V21.7006H32.505V22.5786ZM31.6269 20.8225H30.7489V19.9445H31.6269V20.8225ZM32.505 23.4567H31.6269V22.5786H32.505V23.4567ZM32.505 24.3347H31.6269V23.4567H32.505V24.3347ZM30.7489 21.7006H29.8708V20.8225H30.7489V21.7006ZM30.7489 20.8225H29.8708V19.9445H30.7489V20.8225ZM30.7489 19.9445H29.8708V19.0664H30.7489V19.9445ZM29.8708 19.0664H28.9928V18.1884H29.8708V19.0664ZM29.8708 18.1884H28.9928V17.3103H29.8708V18.1884ZM29.8708 19.9445H28.9928V19.0664H29.8708V19.9445ZM29.8708 20.8225H28.9928V19.9445H29.8708V20.8225ZM30.7489 19.0664H29.8708V18.1884H30.7489V19.0664ZM30.7489 18.1884H29.8708V17.3103H30.7489V18.1884ZM30.7489 15.5542H29.8708V14.6762H30.7489V15.5542ZM30.7489 14.6762H29.8708V13.7981H30.7489V14.6762ZM30.7489 13.7981H29.8708V12.9201H30.7489V13.7981ZM30.7489 12.9201H29.8708V12.042H30.7489V12.9201ZM30.7489 12.042H29.8708V11.164H30.7489V12.042ZM31.6269 12.9201H30.7489V12.042H31.6269V12.9201ZM31.6269 13.7981H30.7489V12.9201H31.6269V13.7981ZM37.7732 5.01765H36.8952V4.1396H37.7732V5.01765ZM37.7732 5.8957H36.8952V5.01765H37.7732V5.8957ZM37.7732 6.77375H36.8952V5.8957H37.7732V6.77375ZM37.7732 7.6518H36.8952V6.77375H37.7732V7.6518ZM37.7732 8.52985H36.8952V7.6518H37.7732V8.52985ZM37.7732 9.40789H36.8952V8.52985H37.7732V9.40789ZM37.7732 10.2859H36.8952V9.40789H37.7732V10.2859ZM37.7732 11.164H36.8952V10.2859H37.7732V11.164ZM37.7732 12.042H36.8952V11.164H37.7732V12.042ZM37.7732 12.9201H36.8952V12.042H37.7732V12.9201ZM37.7732 13.7981H36.8952V12.9201H37.7732V13.7981ZM37.7732 14.6762H36.8952V13.7981H37.7732V14.6762ZM37.7732 15.5542H36.8952V14.6762H37.7732V15.5542ZM37.7732 16.4323H36.8952V15.5542H37.7732V16.4323ZM37.7732 17.3103H36.8952V16.4323H37.7732V17.3103ZM38.6513 17.3103H37.7732V16.4323H38.6513V17.3103ZM38.6513 16.4323H37.7732V15.5542H38.6513V16.4323ZM38.6513 15.5542H37.7732V14.6762H38.6513V15.5542ZM38.6513 14.6762H37.7732V13.7981H38.6513V14.6762ZM38.6513 13.7981H37.7732V12.9201H38.6513V13.7981ZM38.6513 12.9201H37.7732V12.042H38.6513V12.9201ZM38.6513 12.042H37.7732V11.164H38.6513V12.042ZM39.5293 11.164H38.6513V10.2859H39.5293V11.164ZM39.5293 10.2859H38.6513V9.40789H39.5293V10.2859ZM39.5293 9.40789H38.6513V8.52985H39.5293V9.40789ZM39.5293 8.52985H38.6513V7.6518H39.5293V8.52985ZM39.5293 7.6518H38.6513V6.77375H39.5293V7.6518ZM39.5293 6.77375H38.6513V5.8957H39.5293V6.77375ZM39.5293 5.8957H38.6513V5.01765H39.5293V5.8957ZM39.5293 5.01765H38.6513V4.1396H39.5293V5.01765ZM40.4074 5.01765H39.5293V4.1396H40.4074V5.01765ZM41.2854 5.01765H40.4074V4.1396H41.2854V5.01765ZM41.2854 5.8957H40.4074V5.01765H41.2854V5.8957ZM41.2854 6.77375H40.4074V5.8957H41.2854V6.77375ZM41.2854 7.6518H40.4074V6.77375H41.2854V7.6518ZM41.2854 8.52985H40.4074V7.6518H41.2854V8.52985ZM41.2854 9.40789H40.4074V8.52985H41.2854V9.40789ZM41.2854 10.2859H40.4074V9.40789H41.2854V10.2859ZM41.2854 11.164H40.4074V10.2859H41.2854V11.164ZM40.4074 11.164H39.5293V10.2859H40.4074V11.164ZM40.4074 12.042H39.5293V11.164H40.4074V12.042ZM40.4074 10.2859H39.5293V9.40789H40.4074V10.2859ZM40.4074 9.40789H39.5293V8.52985H40.4074V9.40789ZM40.4074 8.52985H39.5293V7.6518H40.4074V8.52985ZM40.4074 7.6518H39.5293V6.77375H40.4074V7.6518ZM40.4074 6.77375H39.5293V5.8957H40.4074V6.77375ZM40.4074 5.8957H39.5293V5.01765H40.4074V5.8957ZM38.6513 5.01765H37.7732V4.1396H38.6513V5.01765ZM38.6513 5.8957H37.7732V5.01765H38.6513V5.8957ZM38.6513 6.77375H37.7732V5.8957H38.6513V6.77375ZM38.6513 7.6518H37.7732V6.77375H38.6513V7.6518ZM38.6513 8.52985H37.7732V7.6518H38.6513V8.52985ZM38.6513 9.40789H37.7732V8.52985H38.6513V9.40789ZM38.6513 10.2859H37.7732V9.40789H38.6513V10.2859ZM38.6513 11.164H37.7732V10.2859H38.6513V11.164ZM37.7732 24.3347H36.8952V23.4567H37.7732V24.3347ZM37.7732 23.4567H36.8952V22.5786H37.7732V23.4567ZM37.7732 22.5786H36.8952V21.7006H37.7732V22.5786ZM37.7732 21.7006H36.8952V20.8225H37.7732V21.7006ZM37.7732 20.8225H36.8952V19.9445H37.7732V20.8225ZM37.7732 19.9445H36.8952V19.0664H37.7732V19.9445ZM37.7732 19.0664H36.8952V18.1884H37.7732V19.0664ZM37.7732 18.1884H36.8952V17.3103H37.7732V18.1884ZM40.4074 21.7006H39.5293V20.8225H40.4074V21.7006ZM40.4074 19.9445H39.5293V19.0664H40.4074V19.9445ZM40.4074 19.0664H39.5293V18.1884H40.4074V19.0664ZM40.4074 18.1884H39.5293V17.3103H40.4074V18.1884ZM40.4074 17.3103H39.5293V16.4323H40.4074V17.3103ZM40.4074 16.4323H39.5293V15.5542H40.4074V16.4323ZM40.4074 15.5542H39.5293V14.6762H40.4074V15.5542ZM40.4074 14.6762H39.5293V13.7981H40.4074V14.6762ZM41.2854 13.7981H40.4074V12.9201H41.2854V13.7981ZM41.2854 12.9201H40.4074V12.042H41.2854V12.9201ZM41.2854 12.042H40.4074V11.164H41.2854V12.042ZM41.2854 14.6762H40.4074V13.7981H41.2854V14.6762ZM41.2854 15.5542H40.4074V14.6762H41.2854V15.5542ZM41.2854 16.4323H40.4074V15.5542H41.2854V16.4323ZM41.2854 17.3103H40.4074V16.4323H41.2854V17.3103ZM41.2854 18.1884H40.4074V17.3103H41.2854V18.1884ZM41.2854 19.0664H40.4074V18.1884H41.2854V19.0664ZM41.2854 19.9445H40.4074V19.0664H41.2854V19.9445ZM41.2854 20.8225H40.4074V19.9445H41.2854V20.8225ZM40.4074 20.8225H39.5293V19.9445H40.4074V20.8225ZM39.5293 22.5786H38.6513V21.7006H39.5293V22.5786ZM39.5293 21.7006H38.6513V20.8225H39.5293V21.7006ZM39.5293 20.8225H38.6513V19.9445H39.5293V20.8225ZM39.5293 19.9445H38.6513V19.0664H39.5293V19.9445ZM38.6513 19.0664H37.7732V18.1884H38.6513V19.0664ZM38.6513 18.1884H37.7732V17.3103H38.6513V18.1884ZM38.6513 19.9445H37.7732V19.0664H38.6513V19.9445ZM38.6513 20.8225H37.7732V19.9445H38.6513V20.8225ZM38.6513 21.7006H37.7732V20.8225H38.6513V21.7006ZM38.6513 22.5786H37.7732V21.7006H38.6513V22.5786ZM38.6513 23.4567H37.7732V22.5786H38.6513V23.4567ZM39.5293 19.0664H38.6513V18.1884H39.5293V19.0664ZM39.5293 18.1884H38.6513V17.3103H39.5293V18.1884ZM39.5293 17.3103H38.6513V16.4323H39.5293V17.3103ZM39.5293 16.4323H38.6513V15.5542H39.5293V16.4323ZM39.5293 15.5542H38.6513V14.6762H39.5293V15.5542ZM39.5293 14.6762H38.6513V13.7981H39.5293V14.6762ZM39.5293 13.7981H38.6513V12.9201H39.5293V13.7981ZM39.5293 12.9201H38.6513V12.042H39.5293V12.9201ZM39.5293 12.042H38.6513V11.164H39.5293V12.042ZM40.4074 12.9201H39.5293V12.042H40.4074V12.9201ZM40.4074 13.7981H39.5293V12.9201H40.4074V13.7981ZM34.2611 26.0908H33.383V25.2128H34.2611V26.0908ZM35.1391 26.0908H34.2611V25.2128H35.1391V26.0908ZM36.0171 26.0908H35.1391V25.2128H36.0171V26.0908ZM36.8952 25.2128H36.0171V24.3347H36.8952V25.2128ZM36.0171 25.2128H35.1391V24.3347H36.0171V25.2128ZM35.1391 25.2128H34.2611V24.3347H35.1391V25.2128ZM34.2611 25.2128H33.383V24.3347H34.2611V25.2128ZM33.383 25.2128H32.505V24.3347H33.383V25.2128ZM33.383 24.3347H32.505V23.4567H33.383V24.3347ZM33.383 23.4567H32.505V22.5786H33.383V23.4567ZM34.2611 24.3347H33.383V23.4567H34.2611V24.3347ZM35.1391 24.3347H34.2611V23.4567H35.1391V24.3347ZM36.0171 24.3347H35.1391V23.4567H36.0171V24.3347ZM36.8952 24.3347H36.0171V23.4567H36.8952V24.3347ZM36.8952 23.4567H36.0171V22.5786H36.8952V23.4567ZM36.0171 23.4567H35.1391V22.5786H36.0171V23.4567ZM35.1391 23.4567H34.2611V22.5786H35.1391V23.4567ZM34.2611 23.4567H33.383V22.5786H34.2611V23.4567ZM33.383 22.5786H32.505V21.7006H33.383V22.5786ZM34.2611 22.5786H33.383V21.7006H34.2611V22.5786ZM36.8952 22.5786H36.0171V21.7006H36.8952V22.5786ZM36.0171 22.5786H35.1391V21.7006H36.0171V22.5786ZM36.8952 21.7006H36.0171V20.8225H36.8952V21.7006ZM33.383 21.7006H32.505V20.8225H33.383V21.7006ZM31.6269 23.4567H30.7489V22.5786H31.6269V23.4567ZM31.6269 22.5786H30.7489V21.7006H31.6269V22.5786ZM30.7489 22.5786H29.8708V21.7006H30.7489V22.5786ZM29.8708 21.7006H28.9928V20.8225H29.8708V21.7006ZM28.9928 20.8225H28.1147V19.9445H28.9928V20.8225ZM33.383 20.8225H32.505V19.9445H33.383V20.8225ZM34.2611 21.7006H33.383V20.8225H34.2611V21.7006ZM35.1391 22.5786H34.2611V21.7006H35.1391V22.5786ZM36.0171 21.7006H35.1391V20.8225H36.0171V21.7006ZM36.8952 20.8225H36.0171V19.9445H36.8952V20.8225ZM35.1391 21.7006H34.2611V20.8225H35.1391V21.7006ZM34.2611 20.8225H33.383V19.9445H34.2611V20.8225ZM33.383 19.9445H32.505V19.0664H33.383V19.9445ZM36.0171 20.8225H35.1391V19.9445H36.0171V20.8225ZM36.8952 19.9445H36.0171V19.0664H36.8952V19.9445ZM28.9928 18.1884V19.0664H28.1147V18.1884H28.9928ZM30.7489 16.4323V17.3103H29.8708V16.4323H30.7489ZM30.7489 15.5542V16.4323H29.8708V15.5542H30.7489ZM29.8708 13.7981V14.6762H28.9928V13.7981H29.8708ZM31.6269 4.1396V5.01765H30.7489V4.1396H31.6269ZM29.8708 5.01765V5.8957H28.9928V5.01765H29.8708ZM32.505 6.77375V7.6518H31.6269V6.77375H32.505ZM28.9928 8.52985V9.40789H28.1147V8.52985H28.9928ZM32.505 9.40789V10.2859H31.6269V9.40789H32.505ZM30.7489 10.2859V11.164H29.8708V10.2859H30.7489ZM29.8708 10.2859V11.164H28.9928V10.2859H29.8708ZM45.6654 21.7006V22.5786H44.7873V21.7006H45.6654ZM45.6654 20.8225V21.7006H44.7873V20.8225H45.6654ZM45.6654 19.9445V20.8225H44.7873V19.9445H45.6654ZM45.6654 19.0664V19.9445H44.7873V19.0664H45.6654ZM45.6654 12.9201V13.7981H44.7873V12.9201H45.6654ZM46.5434 12.9201V13.7981H45.6654V12.9201H46.5434ZM46.5434 13.7981V14.6762H45.6654V13.7981H46.5434ZM46.5434 14.6762V15.5542H45.6654V14.6762H46.5434ZM47.4215 19.0664V19.9445H46.5434V19.0664H47.4215ZM47.4215 19.9445V20.8225H46.5434V19.9445H47.4215ZM47.4215 20.8225V21.7006H46.5434V20.8225H47.4215ZM47.4215 21.7006V22.5786H46.5434V21.7006H47.4215ZM47.4215 22.5786V23.4567H46.5434V22.5786H47.4215ZM47.4215 23.4567V24.3347H46.5434V23.4567H47.4215ZM47.4215 24.3347V25.2128H46.5434V24.3347H47.4215ZM49.1776 25.2128V26.0908H48.2995V25.2128H49.1776ZM49.1776 24.3347V25.2128H48.2995V24.3347H49.1776ZM49.1776 23.4567V24.3347H48.2995V23.4567H49.1776ZM49.1776 22.5786V23.4567H48.2995V22.5786H49.1776ZM49.1776 21.7006V22.5786H48.2995V21.7006H49.1776ZM49.1776 20.8225V21.7006H48.2995V20.8225H49.1776ZM49.1776 19.9445V20.8225H48.2995V19.9445H49.1776ZM49.1776 19.0664V19.9445H48.2995V19.0664H49.1776ZM48.2995 19.0664V19.9445H47.4215V19.0664H48.2995ZM48.2995 19.9445V20.8225H47.4215V19.9445H48.2995ZM48.2995 20.8225V21.7006H47.4215V20.8225H48.2995ZM48.2995 21.7006V22.5786H47.4215V21.7006H48.2995ZM48.2995 22.5786V23.4567H47.4215V22.5786H48.2995ZM48.2995 23.4567V24.3347H47.4215V23.4567H48.2995ZM48.2995 24.3347V25.2128H47.4215V24.3347H48.2995ZM46.5434 23.4567V24.3347H45.6654V23.4567H46.5434ZM46.5434 22.5786V23.4567H45.6654V22.5786H46.5434ZM46.5434 21.7006V22.5786H45.6654V21.7006H46.5434ZM46.5434 20.8225V21.7006H45.6654V20.8225H46.5434ZM46.5434 19.9445V20.8225H45.6654V19.9445H46.5434ZM46.5434 19.0664V19.9445H45.6654V19.0664H46.5434ZM45.6654 12.042V12.9201H44.7873V12.042H45.6654ZM48.2995 12.042V12.9201H47.4215V12.042H48.2995ZM48.2995 12.9201V13.7981H47.4215V12.9201H48.2995ZM48.2995 13.7981V14.6762H47.4215V13.7981H48.2995ZM48.2995 14.6762V15.5542H47.4215V14.6762H48.2995ZM48.2995 15.5542V16.4323H47.4215V15.5542H48.2995ZM49.1776 16.4323V17.3103H48.2995V16.4323H49.1776ZM49.1776 15.5542V16.4323H48.2995V15.5542H49.1776ZM49.1776 14.6762V15.5542H48.2995V14.6762H49.1776ZM49.1776 13.7981V14.6762H48.2995V13.7981H49.1776ZM49.1776 12.9201V13.7981H48.2995V12.9201H49.1776ZM49.1776 12.042V12.9201H48.2995V12.042H49.1776ZM46.5434 12.042V12.9201H45.6654V12.042H46.5434ZM47.4215 12.042V12.9201H46.5434V12.042H47.4215ZM47.4215 12.9201V13.7981H46.5434V12.9201H47.4215ZM47.4215 13.7981V14.6762H46.5434V13.7981H47.4215ZM47.4215 14.6762V15.5542H46.5434V14.6762H47.4215ZM47.4215 15.5542V16.4323H46.5434V15.5542H47.4215ZM56.202 25.2128V26.0908H55.3239V25.2128H56.202ZM56.202 24.3347V25.2128H55.3239V24.3347H56.202ZM56.202 23.4567V24.3347H55.3239V23.4567H56.202ZM56.202 22.5786V23.4567H55.3239V22.5786H56.202ZM56.202 21.7006V22.5786H55.3239V21.7006H56.202ZM56.202 20.8225V21.7006H55.3239V20.8225H56.202ZM56.202 19.9445V20.8225H55.3239V19.9445H56.202ZM56.202 19.0664V19.9445H55.3239V19.0664H56.202ZM56.202 18.1884V19.0664H55.3239V18.1884H56.202ZM56.202 17.3103V18.1884H55.3239V17.3103H56.202ZM56.202 16.4323V17.3103H55.3239V16.4323H56.202ZM56.202 15.5542V16.4323H55.3239V15.5542H56.202ZM56.202 14.6762V15.5542H55.3239V14.6762H56.202ZM56.202 13.7981V14.6762H55.3239V13.7981H56.202ZM56.202 12.9201V13.7981H55.3239V12.9201H56.202ZM57.08 13.7981V14.6762H56.202V13.7981H57.08ZM57.08 14.6762V15.5542H56.202V14.6762H57.08ZM57.08 15.5542V16.4323H56.202V15.5542H57.08ZM57.08 16.4323V17.3103H56.202V16.4323H57.08ZM57.08 17.3103V18.1884H56.202V17.3103H57.08ZM57.08 18.1884V19.0664H56.202V18.1884H57.08ZM57.9581 19.0664V19.9445H57.08V19.0664H57.9581ZM57.9581 19.9445V20.8225H57.08V19.9445H57.9581ZM57.9581 20.8225V21.7006H57.08V20.8225H57.9581ZM57.9581 21.7006V22.5786H57.08V21.7006H57.9581ZM57.9581 22.5786V23.4567H57.08V22.5786H57.9581ZM57.9581 23.4567V24.3347H57.08V23.4567H57.9581ZM57.9581 24.3347V25.2128H57.08V24.3347H57.9581ZM59.7142 21.7006V22.5786H58.8361V21.7006H59.7142ZM59.7142 20.8225V21.7006H58.8361V20.8225H59.7142ZM59.7142 19.9445V20.8225H58.8361V19.9445H59.7142ZM59.7142 19.0664V19.9445H58.8361V19.0664H59.7142ZM58.8361 19.0664V19.9445H57.9581V19.0664H58.8361ZM58.8361 18.1884V19.0664H57.9581V18.1884H58.8361ZM58.8361 19.9445V20.8225H57.9581V19.9445H58.8361ZM58.8361 20.8225V21.7006H57.9581V20.8225H58.8361ZM58.8361 21.7006V22.5786H57.9581V21.7006H58.8361ZM58.8361 22.5786V23.4567H57.9581V22.5786H58.8361ZM58.8361 23.4567V24.3347H57.9581V23.4567H58.8361ZM57.08 24.3347V25.2128H56.202V24.3347H57.08ZM57.08 23.4567V24.3347H56.202V23.4567H57.08ZM57.08 22.5786V23.4567H56.202V22.5786H57.08ZM57.08 21.7006V22.5786H56.202V21.7006H57.08ZM57.08 20.8225V21.7006H56.202V20.8225H57.08ZM57.08 19.9445V20.8225H56.202V19.9445H57.08ZM57.08 19.0664V19.9445H56.202V19.0664H57.08ZM58.8361 15.5542V16.4323H57.9581V15.5542H58.8361ZM59.7142 16.4323V17.3103H58.8361V16.4323H59.7142ZM59.7142 17.3103V18.1884H58.8361V17.3103H59.7142ZM59.7142 18.1884V19.0664H58.8361V18.1884H59.7142ZM57.9581 13.7981V14.6762H57.08V13.7981H57.9581ZM57.9581 14.6762V15.5542H57.08V14.6762H57.9581ZM57.9581 15.5542V16.4323H57.08V15.5542H57.9581ZM57.9581 16.4323V17.3103H57.08V16.4323H57.9581ZM57.9581 17.3103V18.1884H57.08V17.3103H57.9581ZM57.9581 18.1884V19.0664H57.08V18.1884H57.9581ZM58.8361 17.3103V18.1884H57.9581V17.3103H58.8361ZM58.8361 16.4323V17.3103H57.9581V16.4323H58.8361ZM50.0556 25.2128V26.0908H49.1776V25.2128H50.0556ZM50.9337 25.2128V26.0908H50.0556V25.2128H50.9337ZM51.8117 25.2128V26.0908H50.9337V25.2128H51.8117ZM53.5678 25.2128V26.0908H52.6898V25.2128H53.5678ZM54.4459 25.2128V26.0908H53.5678V25.2128H54.4459ZM55.3239 25.2128V26.0908H54.4459V25.2128H55.3239ZM55.3239 24.3347V25.2128H54.4459V24.3347H55.3239ZM54.4459 24.3347V25.2128H53.5678V24.3347H54.4459ZM53.5678 24.3347V25.2128H52.6898V24.3347H53.5678ZM51.8117 24.3347V25.2128H50.9337V24.3347H51.8117ZM50.9337 24.3347V25.2128H50.0556V24.3347H50.9337ZM50.0556 24.3347V25.2128H49.1776V24.3347H50.0556ZM50.0556 23.4567V24.3347H49.1776V23.4567H50.0556ZM50.9337 23.4567V24.3347H50.0556V23.4567H50.9337ZM51.8117 23.4567V24.3347H50.9337V23.4567H51.8117ZM53.5678 23.4567V24.3347H52.6898V23.4567H53.5678ZM54.4459 23.4567V24.3347H53.5678V23.4567H54.4459ZM55.3239 23.4567V24.3347H54.4459V23.4567H55.3239ZM55.3239 22.5786V23.4567H54.4459V22.5786H55.3239ZM54.4459 22.5786V23.4567H53.5678V22.5786H54.4459ZM53.5678 22.5786V23.4567H52.6898V22.5786H53.5678ZM51.8117 22.5786V23.4567H50.9337V22.5786H51.8117ZM50.9337 22.5786V23.4567H50.0556V22.5786H50.9337ZM50.0556 22.5786V23.4567H49.1776V22.5786H50.0556ZM50.0556 21.7006V22.5786H49.1776V21.7006H50.0556ZM55.3239 21.7006V22.5786H54.4459V21.7006H55.3239ZM58.8361 8.52985V7.6518H59.7142V8.52985H58.8361ZM58.8361 9.40789V8.52985H59.7142V9.40789H58.8361ZM58.8361 10.2859V9.40789H59.7142V10.2859H58.8361ZM57.08 10.2859V9.40789H57.9581V10.2859H57.08ZM57.08 9.40789V8.52985H57.9581V9.40789H57.08ZM57.08 8.52985V7.6518H57.9581V8.52985H57.08ZM57.08 7.6518V6.77375H57.9581V7.6518H57.08ZM57.08 6.77375V5.8957H57.9581V6.77375H57.08ZM57.08 5.8957V5.01765H57.9581V5.8957H57.08ZM55.3239 5.01765V4.1396H56.202V5.01765H55.3239ZM55.3239 5.8957V5.01765H56.202V5.8957H55.3239ZM55.3239 6.77375V5.8957H56.202V6.77375H55.3239ZM55.3239 7.6518V6.77375H56.202V7.6518H55.3239ZM55.3239 8.52985V7.6518H56.202V8.52985H55.3239ZM55.3239 9.40789V8.52985H56.202V9.40789H55.3239ZM55.3239 10.2859V9.40789H56.202V10.2859H55.3239ZM56.202 10.2859V9.40789H57.08V10.2859H56.202ZM56.202 9.40789V8.52985H57.08V9.40789H56.202ZM56.202 8.52985V7.6518H57.08V8.52985H56.202ZM56.202 7.6518V6.77375H57.08V7.6518H56.202ZM56.202 6.77375V5.8957H57.08V6.77375H56.202ZM56.202 5.8957V5.01765H57.08V5.8957H56.202ZM57.9581 6.77375V5.8957H58.8361V6.77375H57.9581ZM57.9581 7.6518V6.77375H58.8361V7.6518H57.9581ZM57.9581 8.52985V7.6518H58.8361V8.52985H57.9581ZM57.9581 9.40789V8.52985H58.8361V9.40789H57.9581ZM57.9581 10.2859V9.40789H58.8361V10.2859H57.9581ZM48.2995 5.01765V4.1396H49.1776V5.01765H48.2995ZM48.2995 5.8957V5.01765H49.1776V5.8957H48.2995ZM48.2995 6.77375V5.8957H49.1776V6.77375H48.2995ZM48.2995 7.6518V6.77375H49.1776V7.6518H48.2995ZM48.2995 8.52985V7.6518H49.1776V8.52985H48.2995ZM48.2995 9.40789V8.52985H49.1776V9.40789H48.2995ZM48.2995 10.2859V9.40789H49.1776V10.2859H48.2995ZM46.5434 10.2859V9.40789H47.4215V10.2859H46.5434ZM46.5434 9.40789V8.52985H47.4215V9.40789H46.5434ZM46.5434 8.52985V7.6518H47.4215V8.52985H46.5434ZM46.5434 7.6518V6.77375H47.4215V7.6518H46.5434ZM46.5434 6.77375V5.8957H47.4215V6.77375H46.5434ZM46.5434 5.8957V5.01765H47.4215V5.8957H46.5434ZM44.7873 8.52985V7.6518H45.6654V8.52985H44.7873ZM44.7873 9.40789V8.52985H45.6654V9.40789H44.7873ZM44.7873 10.2859V9.40789H45.6654V10.2859H44.7873ZM45.6654 10.2859V9.40789H46.5434V10.2859H45.6654ZM45.6654 9.40789V8.52985H46.5434V9.40789H45.6654ZM45.6654 8.52985V7.6518H46.5434V8.52985H45.6654ZM45.6654 7.6518V6.77375H46.5434V7.6518H45.6654ZM45.6654 6.77375V5.8957H46.5434V6.77375H45.6654ZM47.4215 5.8957V5.01765H48.2995V5.8957H47.4215ZM47.4215 6.77375V5.8957H48.2995V6.77375H47.4215ZM47.4215 7.6518V6.77375H48.2995V7.6518H47.4215ZM47.4215 8.52985V7.6518H48.2995V8.52985H47.4215ZM47.4215 9.40789V8.52985H48.2995V9.40789H47.4215ZM47.4215 10.2859V9.40789H48.2995V10.2859H47.4215ZM54.4459 5.01765V4.1396H55.3239V5.01765H54.4459ZM53.5678 5.01765V4.1396H54.4459V5.01765H53.5678ZM52.6898 5.01765V4.1396H53.5678V5.01765H52.6898ZM50.9337 5.01765V4.1396H51.8117V5.01765H50.9337ZM50.0556 5.01765V4.1396H50.9337V5.01765H50.0556ZM49.1776 5.01765V4.1396H50.0556V5.01765H49.1776ZM49.1776 5.8957V5.01765H50.0556V5.8957H49.1776ZM50.0556 5.8957V5.01765H50.9337V5.8957H50.0556ZM50.9337 5.8957V5.01765H51.8117V5.8957H50.9337ZM52.6898 5.8957V5.01765H53.5678V5.8957H52.6898ZM53.5678 5.8957V5.01765H54.4459V5.8957H53.5678ZM54.4459 5.8957V5.01765H55.3239V5.8957H54.4459ZM54.4459 6.77375V5.8957H55.3239V6.77375H54.4459ZM53.5678 6.77375V5.8957H54.4459V6.77375H53.5678ZM52.6898 6.77375V5.8957H53.5678V6.77375H52.6898ZM50.9337 6.77375V5.8957H51.8117V6.77375H50.9337ZM50.0556 6.77375V5.8957H50.9337V6.77375H50.0556ZM49.1776 6.77375V5.8957H50.0556V6.77375H49.1776ZM49.1776 7.6518V6.77375H50.0556V7.6518H49.1776ZM50.0556 7.6518V6.77375H50.9337V7.6518H50.0556ZM50.9337 7.6518V6.77375H51.8117V7.6518H50.9337ZM52.6898 7.6518V6.77375H53.5678V7.6518H52.6898ZM53.5678 7.6518V6.77375H54.4459V7.6518H53.5678ZM54.4459 7.6518V6.77375H55.3239V7.6518H54.4459ZM54.4459 8.52985V7.6518H55.3239V8.52985H54.4459ZM49.1776 8.52985V7.6518H50.0556V8.52985H49.1776ZM45.6654 11.164V12.042H44.7873V11.164H45.6654ZM46.5434 11.164V12.042H45.6654V11.164H46.5434ZM45.6654 10.2859V11.164H44.7873V10.2859H45.6654ZM48.2995 10.2859V11.164H47.4215V10.2859H48.2995ZM48.2995 11.164V12.042H47.4215V11.164H48.2995ZM49.1776 11.164V12.042H48.2995V11.164H49.1776ZM49.1776 10.2859V11.164H48.2995V10.2859H49.1776ZM46.5434 10.2859V11.164H45.6654V10.2859H46.5434ZM47.4215 10.2859V11.164H46.5434V10.2859H47.4215ZM47.4215 11.164V12.042H46.5434V11.164H47.4215ZM50.9337 21.7006V22.5786H50.0556V21.7006H50.9337ZM51.8117 21.7006V22.5786H50.9337V21.7006H51.8117ZM53.5678 21.7006V22.5786H52.6898V21.7006H53.5678ZM54.4459 21.7006V22.5786H53.5678V21.7006H54.4459ZM55.3239 20.8225V21.7006H54.4459V20.8225H55.3239ZM50.0556 20.8225V21.7006H49.1776V20.8225H50.0556ZM50.9337 7.6518V8.52985H50.0556V7.6518H50.9337ZM51.8117 7.6518V8.52985H50.9337V7.6518H51.8117ZM53.5678 7.6518V8.52985H52.6898V7.6518H53.5678ZM54.4459 7.6518V8.52985H53.5678V7.6518H54.4459ZM55.3239 8.52985V9.40789H54.4459V8.52985H55.3239ZM50.0556 8.52985V9.40789H49.1776V8.52985H50.0556ZM51.8117 14.6762V15.5542H50.9337V14.6762H51.8117ZM53.5678 14.6762V15.5542H52.6898V14.6762H53.5678ZM54.4459 14.6762V15.5542H53.5678V14.6762H54.4459ZM55.3239 14.6762V15.5542H54.4459V14.6762H55.3239ZM55.3239 15.5542V16.4323H54.4459V15.5542H55.3239ZM54.4459 15.5542V16.4323H53.5678V15.5542H54.4459ZM53.5678 15.5542V16.4323H52.6898V15.5542H53.5678ZM51.8117 15.5542V16.4323H50.9337V15.5542H51.8117ZM51.8117 12.9201V13.7981H50.9337V12.9201H51.8117ZM53.5678 12.9201V13.7981H52.6898V12.9201H53.5678ZM54.4459 12.9201V13.7981H53.5678V12.9201H54.4459ZM55.3239 12.9201V13.7981H54.4459V12.9201H55.3239ZM55.3239 13.7981V14.6762H54.4459V13.7981H55.3239ZM54.4459 13.7981V14.6762H53.5678V13.7981H54.4459ZM53.5678 13.7981V14.6762H52.6898V13.7981H53.5678ZM51.8117 13.7981V14.6762H50.9337V13.7981H51.8117ZM51.8117 16.4323V17.3103H50.9337V16.4323H51.8117ZM53.5678 16.4323V17.3103H52.6898V16.4323H53.5678ZM54.4459 16.4323V17.3103H53.5678V16.4323H54.4459ZM55.3239 16.4323V17.3103H54.4459V16.4323H55.3239ZM58.8361 14.6762V15.5542H57.9581V14.6762H58.8361ZM55.3239 17.3103V18.1884H54.4459V17.3103H55.3239ZM50.0556 12.9201V13.7981H49.1776V12.9201H50.0556ZM50.9337 12.9201V13.7981H50.0556V12.9201H50.9337ZM50.0556 12.042V12.9201H49.1776V12.042H50.0556ZM50.9337 13.7981V14.6762H50.0556V13.7981H50.9337ZM50.9337 14.6762V15.5542H50.0556V14.6762H50.9337ZM50.9337 15.5542V16.4323H50.0556V15.5542H50.9337ZM50.9337 16.4323V17.3103H50.0556V16.4323H50.9337ZM50.0556 16.4323V17.3103H49.1776V16.4323H50.0556ZM50.0556 15.5542V16.4323H49.1776V15.5542H50.0556ZM50.0556 14.6762V15.5542H49.1776V14.6762H50.0556ZM50.0556 13.7981V14.6762H49.1776V13.7981H50.0556ZM52.6898 4.1396V5.01765H51.8117V4.1396H52.6898ZM52.6898 5.01765V5.8957H51.8117V5.01765H52.6898ZM52.6898 5.8957V6.77375H51.8117V5.8957H52.6898ZM52.6898 6.77375V7.6518H51.8117V6.77375H52.6898ZM52.6898 7.6518V8.52985H51.8117V7.6518H52.6898ZM52.6898 12.9201V13.7981H51.8117V12.9201H52.6898ZM52.6898 13.7981V14.6762H51.8117V13.7981H52.6898ZM52.6898 14.6762V15.5542H51.8117V14.6762H52.6898ZM52.6898 15.5542V16.4323H51.8117V15.5542H52.6898ZM52.6898 16.4323V17.3103H51.8117V16.4323H52.6898ZM52.6898 21.7006V22.5786H51.8117V21.7006H52.6898ZM52.6898 22.5786V23.4567H51.8117V22.5786H52.6898ZM52.6898 23.4567V24.3347H51.8117V23.4567H52.6898ZM52.6898 24.3347V25.2128H51.8117V24.3347H52.6898ZM52.6898 25.2128V26.0908H51.8117V25.2128H52.6898ZM2.63415 52.7006V53.5786H1.7561V52.7006H2.63415ZM2.63415 51.8225V52.7006H1.7561V51.8225H2.63415ZM2.63415 50.9445V51.8225H1.7561V50.9445H2.63415ZM2.63415 50.0664V50.9445H1.7561V50.0664H2.63415ZM2.63415 43.9201V44.7981H1.7561V43.9201H2.63415ZM3.51219 43.9201V44.7981H2.63415V43.9201H3.51219ZM3.51219 44.7981V45.6762H2.63415V44.7981H3.51219ZM3.51219 45.6762V46.5542H2.63415V45.6762H3.51219ZM4.39024 50.0664V50.9445H3.51219V50.0664H4.39024ZM4.39024 50.9445V51.8225H3.51219V50.9445H4.39024ZM4.39024 51.8225V52.7006H3.51219V51.8225H4.39024ZM4.39024 52.7006V53.5786H3.51219V52.7006H4.39024ZM4.39024 53.5786V54.4567H3.51219V53.5786H4.39024ZM4.39024 54.4567V55.3347H3.51219V54.4567H4.39024ZM4.39024 55.3347V56.2128H3.51219V55.3347H4.39024ZM6.14634 56.2128V57.0908H5.26829V56.2128H6.14634ZM6.14634 55.3347V56.2128H5.26829V55.3347H6.14634ZM6.14634 54.4567V55.3347H5.26829V54.4567H6.14634ZM6.14634 53.5786V54.4567H5.26829V53.5786H6.14634ZM6.14634 52.7006V53.5786H5.26829V52.7006H6.14634ZM6.14634 51.8225V52.7006H5.26829V51.8225H6.14634ZM6.14634 50.9445V51.8225H5.26829V50.9445H6.14634ZM6.14634 50.0664V50.9445H5.26829V50.0664H6.14634ZM5.26829 50.0664V50.9445H4.39024V50.0664H5.26829ZM5.26829 50.9445V51.8225H4.39024V50.9445H5.26829ZM5.26829 51.8225V52.7006H4.39024V51.8225H5.26829ZM5.26829 52.7006V53.5786H4.39024V52.7006H5.26829ZM5.26829 53.5786V54.4567H4.39024V53.5786H5.26829ZM5.26829 54.4567V55.3347H4.39024V54.4567H5.26829ZM5.26829 55.3347V56.2128H4.39024V55.3347H5.26829ZM3.51219 54.4567V55.3347H2.63415V54.4567H3.51219ZM3.51219 53.5786V54.4567H2.63415V53.5786H3.51219ZM3.51219 52.7006V53.5786H2.63415V52.7006H3.51219ZM3.51219 51.8225V52.7006H2.63415V51.8225H3.51219ZM3.51219 50.9445V51.8225H2.63415V50.9445H3.51219ZM3.51219 50.0664V50.9445H2.63415V50.0664H3.51219ZM2.63415 43.042V43.9201H1.7561V43.042H2.63415ZM5.26829 43.042V43.9201H4.39024V43.042H5.26829ZM5.26829 43.9201V44.7981H4.39024V43.9201H5.26829ZM5.26829 44.7981V45.6762H4.39024V44.7981H5.26829ZM5.26829 45.6762V46.5542H4.39024V45.6762H5.26829ZM5.26829 46.5542V47.4323H4.39024V46.5542H5.26829ZM6.14634 47.4323V48.3103H5.26829V47.4323H6.14634ZM6.14634 46.5542V47.4323H5.26829V46.5542H6.14634ZM6.14634 45.6762V46.5542H5.26829V45.6762H6.14634ZM6.14634 44.7981V45.6762H5.26829V44.7981H6.14634ZM6.14634 43.9201V44.7981H5.26829V43.9201H6.14634ZM6.14634 43.042V43.9201H5.26829V43.042H6.14634ZM3.51219 43.042V43.9201H2.63415V43.042H3.51219ZM4.39024 43.042V43.9201H3.51219V43.042H4.39024ZM4.39024 43.9201V44.7981H3.51219V43.9201H4.39024ZM4.39024 44.7981V45.6762H3.51219V44.7981H4.39024ZM4.39024 45.6762V46.5542H3.51219V45.6762H4.39024ZM4.39024 46.5542V47.4323H3.51219V46.5542H4.39024ZM13.1707 56.2128V57.0908H12.2927V56.2128H13.1707ZM13.1707 55.3347V56.2128H12.2927V55.3347H13.1707ZM13.1707 54.4567V55.3347H12.2927V54.4567H13.1707ZM13.1707 53.5786V54.4567H12.2927V53.5786H13.1707ZM13.1707 52.7006V53.5786H12.2927V52.7006H13.1707ZM13.1707 51.8225V52.7006H12.2927V51.8225H13.1707ZM13.1707 50.9445V51.8225H12.2927V50.9445H13.1707ZM13.1707 50.0664V50.9445H12.2927V50.0664H13.1707ZM13.1707 49.1884V50.0664H12.2927V49.1884H13.1707ZM13.1707 48.3103V49.1884H12.2927V48.3103H13.1707ZM13.1707 47.4323V48.3103H12.2927V47.4323H13.1707ZM13.1707 46.5542V47.4323H12.2927V46.5542H13.1707ZM13.1707 45.6762V46.5542H12.2927V45.6762H13.1707ZM13.1707 44.7981V45.6762H12.2927V44.7981H13.1707ZM13.1707 43.9201V44.7981H12.2927V43.9201H13.1707ZM14.0488 44.7981V45.6762H13.1707V44.7981H14.0488ZM14.0488 45.6762V46.5542H13.1707V45.6762H14.0488ZM14.0488 46.5542V47.4323H13.1707V46.5542H14.0488ZM14.0488 47.4323V48.3103H13.1707V47.4323H14.0488ZM14.0488 48.3103V49.1884H13.1707V48.3103H14.0488ZM14.0488 49.1884V50.0664H13.1707V49.1884H14.0488ZM14.9268 50.0664V50.9445H14.0488V50.0664H14.9268ZM14.9268 50.9445V51.8225H14.0488V50.9445H14.9268ZM14.9268 51.8225V52.7006H14.0488V51.8225H14.9268ZM14.9268 52.7006V53.5786H14.0488V52.7006H14.9268ZM14.9268 53.5786V54.4567H14.0488V53.5786H14.9268ZM14.9268 54.4567V55.3347H14.0488V54.4567H14.9268ZM14.9268 55.3347V56.2128H14.0488V55.3347H14.9268ZM16.6829 52.7006V53.5786H15.8049V52.7006H16.6829ZM16.6829 51.8225V52.7006H15.8049V51.8225H16.6829ZM16.6829 50.9445V51.8225H15.8049V50.9445H16.6829ZM16.6829 50.0664V50.9445H15.8049V50.0664H16.6829ZM15.8049 50.0664V50.9445H14.9268V50.0664H15.8049ZM15.8049 49.1884V50.0664H14.9268V49.1884H15.8049ZM15.8049 50.9445V51.8225H14.9268V50.9445H15.8049ZM15.8049 51.8225V52.7006H14.9268V51.8225H15.8049ZM15.8049 52.7006V53.5786H14.9268V52.7006H15.8049ZM15.8049 53.5786V54.4567H14.9268V53.5786H15.8049ZM15.8049 54.4567V55.3347H14.9268V54.4567H15.8049ZM14.0488 55.3347V56.2128H13.1707V55.3347H14.0488ZM14.0488 54.4567V55.3347H13.1707V54.4567H14.0488ZM14.0488 53.5786V54.4567H13.1707V53.5786H14.0488ZM14.0488 52.7006V53.5786H13.1707V52.7006H14.0488ZM14.0488 51.8225V52.7006H13.1707V51.8225H14.0488ZM14.0488 50.9445V51.8225H13.1707V50.9445H14.0488ZM14.0488 50.0664V50.9445H13.1707V50.0664H14.0488ZM15.8049 46.5542V47.4323H14.9268V46.5542H15.8049ZM16.6829 47.4323V48.3103H15.8049V47.4323H16.6829ZM16.6829 48.3103V49.1884H15.8049V48.3103H16.6829ZM16.6829 49.1884V50.0664H15.8049V49.1884H16.6829ZM14.9268 44.7981V45.6762H14.0488V44.7981H14.9268ZM14.9268 45.6762V46.5542H14.0488V45.6762H14.9268ZM14.9268 46.5542V47.4323H14.0488V46.5542H14.9268ZM14.9268 47.4323V48.3103H14.0488V47.4323H14.9268ZM14.9268 48.3103V49.1884H14.0488V48.3103H14.9268ZM14.9268 49.1884V50.0664H14.0488V49.1884H14.9268ZM15.8049 48.3103V49.1884H14.9268V48.3103H15.8049ZM15.8049 47.4323V48.3103H14.9268V47.4323H15.8049ZM7.02439 56.2128V57.0908H6.14634V56.2128H7.02439ZM7.90244 56.2128V57.0908H7.02439V56.2128H7.90244ZM8.78049 56.2128V57.0908H7.90244V56.2128H8.78049ZM10.5366 56.2128V57.0908H9.65854V56.2128H10.5366ZM11.4146 56.2128V57.0908H10.5366V56.2128H11.4146ZM12.2927 56.2128V57.0908H11.4146V56.2128H12.2927ZM12.2927 55.3347V56.2128H11.4146V55.3347H12.2927ZM11.4146 55.3347V56.2128H10.5366V55.3347H11.4146ZM10.5366 55.3347V56.2128H9.65854V55.3347H10.5366ZM8.78049 55.3347V56.2128H7.90244V55.3347H8.78049ZM7.90244 55.3347V56.2128H7.02439V55.3347H7.90244ZM7.02439 55.3347V56.2128H6.14634V55.3347H7.02439ZM7.02439 54.4567V55.3347H6.14634V54.4567H7.02439ZM7.90244 54.4567V55.3347H7.02439V54.4567H7.90244ZM8.78049 54.4567V55.3347H7.90244V54.4567H8.78049ZM10.5366 54.4567V55.3347H9.65854V54.4567H10.5366ZM11.4146 54.4567V55.3347H10.5366V54.4567H11.4146ZM12.2927 54.4567V55.3347H11.4146V54.4567H12.2927ZM12.2927 53.5786V54.4567H11.4146V53.5786H12.2927ZM11.4146 53.5786V54.4567H10.5366V53.5786H11.4146ZM10.5366 53.5786V54.4567H9.65854V53.5786H10.5366ZM8.78049 53.5786V54.4567H7.90244V53.5786H8.78049ZM7.90244 53.5786V54.4567H7.02439V53.5786H7.90244ZM7.02439 53.5786V54.4567H6.14634V53.5786H7.02439ZM7.02439 52.7006V53.5786H6.14634V52.7006H7.02439ZM12.2927 52.7006V53.5786H11.4146V52.7006H12.2927ZM15.8049 39.5298V38.6518H16.6829V39.5298H15.8049ZM15.8049 40.4079V39.5298H16.6829V40.4079H15.8049ZM15.8049 41.2859V40.4079H16.6829V41.2859H15.8049ZM14.0488 41.2859V40.4079H14.9268V41.2859H14.0488ZM14.0488 40.4079V39.5298H14.9268V40.4079H14.0488ZM14.0488 39.5298V38.6518H14.9268V39.5298H14.0488ZM14.0488 38.6518V37.7737H14.9268V38.6518H14.0488ZM14.0488 37.7737V36.8957H14.9268V37.7737H14.0488ZM14.0488 36.8957V36.0177H14.9268V36.8957H14.0488ZM12.2927 36.0177V35.1396H13.1707V36.0177H12.2927ZM12.2927 36.8957V36.0177H13.1707V36.8957H12.2927ZM12.2927 37.7737V36.8957H13.1707V37.7737H12.2927ZM12.2927 38.6518V37.7737H13.1707V38.6518H12.2927ZM12.2927 39.5298V38.6518H13.1707V39.5298H12.2927ZM12.2927 40.4079V39.5298H13.1707V40.4079H12.2927ZM12.2927 41.2859V40.4079H13.1707V41.2859H12.2927ZM13.1707 41.2859V40.4079H14.0488V41.2859H13.1707ZM13.1707 40.4079V39.5298H14.0488V40.4079H13.1707ZM13.1707 39.5298V38.6518H14.0488V39.5298H13.1707ZM13.1707 38.6518V37.7737H14.0488V38.6518H13.1707ZM13.1707 37.7737V36.8957H14.0488V37.7737H13.1707ZM13.1707 36.8957V36.0177H14.0488V36.8957H13.1707ZM14.9268 37.7737V36.8957H15.8049V37.7737H14.9268ZM14.9268 38.6518V37.7737H15.8049V38.6518H14.9268ZM14.9268 39.5298V38.6518H15.8049V39.5298H14.9268ZM14.9268 40.4079V39.5298H15.8049V40.4079H14.9268ZM14.9268 41.2859V40.4079H15.8049V41.2859H14.9268ZM5.26829 36.0177V35.1396H6.14634V36.0177H5.26829ZM5.26829 36.8957V36.0177H6.14634V36.8957H5.26829ZM5.26829 37.7737V36.8957H6.14634V37.7737H5.26829ZM5.26829 38.6518V37.7737H6.14634V38.6518H5.26829ZM5.26829 39.5298V38.6518H6.14634V39.5298H5.26829ZM5.26829 40.4079V39.5298H6.14634V40.4079H5.26829ZM5.26829 41.2859V40.4079H6.14634V41.2859H5.26829ZM3.51219 41.2859V40.4079H4.39024V41.2859H3.51219ZM3.51219 40.4079V39.5298H4.39024V40.4079H3.51219ZM3.51219 39.5298V38.6518H4.39024V39.5298H3.51219ZM3.51219 38.6518V37.7737H4.39024V38.6518H3.51219ZM3.51219 37.7737V36.8957H4.39024V37.7737H3.51219ZM3.51219 36.8957V36.0177H4.39024V36.8957H3.51219ZM1.7561 39.5298V38.6518H2.63415V39.5298H1.7561ZM1.7561 40.4079V39.5298H2.63415V40.4079H1.7561ZM1.7561 41.2859V40.4079H2.63415V41.2859H1.7561ZM2.63415 41.2859V40.4079H3.51219V41.2859H2.63415ZM2.63415 40.4079V39.5298H3.51219V40.4079H2.63415ZM2.63415 39.5298V38.6518H3.51219V39.5298H2.63415ZM2.63415 38.6518V37.7737H3.51219V38.6518H2.63415ZM2.63415 37.7737V36.8957H3.51219V37.7737H2.63415ZM4.39024 36.8957V36.0177H5.26829V36.8957H4.39024ZM4.39024 37.7737V36.8957H5.26829V37.7737H4.39024ZM4.39024 38.6518V37.7737H5.26829V38.6518H4.39024ZM4.39024 39.5298V38.6518H5.26829V39.5298H4.39024ZM4.39024 40.4079V39.5298H5.26829V40.4079H4.39024ZM4.39024 41.2859V40.4079H5.26829V41.2859H4.39024ZM11.4146 36.0177V35.1396H12.2927V36.0177H11.4146ZM10.5366 36.0177V35.1396H11.4146V36.0177H10.5366ZM9.65854 36.0177V35.1396H10.5366V36.0177H9.65854ZM7.90244 36.0177V35.1396H8.78049V36.0177H7.90244ZM7.02439 36.0177V35.1396H7.90244V36.0177H7.02439ZM6.14634 36.0177V35.1396H7.02439V36.0177H6.14634ZM6.14634 36.8957V36.0177H7.02439V36.8957H6.14634ZM7.02439 36.8957V36.0177H7.90244V36.8957H7.02439ZM7.90244 36.8957V36.0177H8.78049V36.8957H7.90244ZM9.65854 36.8957V36.0177H10.5366V36.8957H9.65854ZM10.5366 36.8957V36.0177H11.4146V36.8957H10.5366ZM11.4146 36.8957V36.0177H12.2927V36.8957H11.4146ZM11.4146 37.7737V36.8957H12.2927V37.7737H11.4146ZM10.5366 37.7737V36.8957H11.4146V37.7737H10.5366ZM9.65854 37.7737V36.8957H10.5366V37.7737H9.65854ZM7.90244 37.7737V36.8957H8.78049V37.7737H7.90244ZM7.02439 37.7737V36.8957H7.90244V37.7737H7.02439ZM6.14634 37.7737V36.8957H7.02439V37.7737H6.14634ZM6.14634 38.6518V37.7737H7.02439V38.6518H6.14634ZM7.02439 38.6518V37.7737H7.90244V38.6518H7.02439ZM7.90244 38.6518V37.7737H8.78049V38.6518H7.90244ZM9.65854 38.6518V37.7737H10.5366V38.6518H9.65854ZM10.5366 38.6518V37.7737H11.4146V38.6518H10.5366ZM11.4146 38.6518V37.7737H12.2927V38.6518H11.4146ZM11.4146 39.5298V38.6518H12.2927V39.5298H11.4146ZM6.14634 39.5298V38.6518H7.02439V39.5298H6.14634ZM2.63415 42.164V43.042H1.7561V42.164H2.63415ZM3.51219 42.164V43.042H2.63415V42.164H3.51219ZM2.63415 41.2859V42.164H1.7561V41.2859H2.63415ZM5.26829 41.2859V42.164H4.39024V41.2859H5.26829ZM5.26829 42.164V43.042H4.39024V42.164H5.26829ZM6.14634 42.164V43.042H5.26829V42.164H6.14634ZM6.14634 41.2859V42.164H5.26829V41.2859H6.14634ZM3.51219 41.2859V42.164H2.63415V41.2859H3.51219ZM4.39024 41.2859V42.164H3.51219V41.2859H4.39024ZM4.39024 42.164V43.042H3.51219V42.164H4.39024ZM7.90244 52.7006V53.5786H7.02439V52.7006H7.90244ZM8.78049 52.7006V53.5786H7.90244V52.7006H8.78049ZM10.5366 52.7006V53.5786H9.65854V52.7006H10.5366ZM11.4146 52.7006V53.5786H10.5366V52.7006H11.4146ZM12.2927 51.8225V52.7006H11.4146V51.8225H12.2927ZM7.02439 51.8225V52.7006H6.14634V51.8225H7.02439ZM7.90244 38.6518V39.5298H7.02439V38.6518H7.90244ZM8.78049 38.6518V39.5298H7.90244V38.6518H8.78049ZM10.5366 38.6518V39.5298H9.65854V38.6518H10.5366ZM11.4146 38.6518V39.5298H10.5366V38.6518H11.4146ZM12.2927 39.5298V40.4079H11.4146V39.5298H12.2927ZM7.02439 39.5298V40.4079H6.14634V39.5298H7.02439ZM8.78049 45.6762V46.5542H7.90244V45.6762H8.78049ZM10.5366 45.6762V46.5542H9.65854V45.6762H10.5366ZM11.4146 45.6762V46.5542H10.5366V45.6762H11.4146ZM12.2927 45.6762V46.5542H11.4146V45.6762H12.2927ZM12.2927 46.5542V47.4323H11.4146V46.5542H12.2927ZM11.4146 46.5542V47.4323H10.5366V46.5542H11.4146ZM10.5366 46.5542V47.4323H9.65854V46.5542H10.5366ZM8.78049 46.5542V47.4323H7.90244V46.5542H8.78049ZM8.78049 43.9201V44.7981H7.90244V43.9201H8.78049ZM10.5366 43.9201V44.7981H9.65854V43.9201H10.5366ZM11.4146 43.9201V44.7981H10.5366V43.9201H11.4146ZM12.2927 43.9201V44.7981H11.4146V43.9201H12.2927ZM12.2927 44.7981V45.6762H11.4146V44.7981H12.2927ZM11.4146 44.7981V45.6762H10.5366V44.7981H11.4146ZM10.5366 44.7981V45.6762H9.65854V44.7981H10.5366ZM8.78049 44.7981V45.6762H7.90244V44.7981H8.78049ZM8.78049 47.4323V48.3103H7.90244V47.4323H8.78049ZM10.5366 47.4323V48.3103H9.65854V47.4323H10.5366ZM11.4146 47.4323V48.3103H10.5366V47.4323H11.4146ZM12.2927 47.4323V48.3103H11.4146V47.4323H12.2927ZM15.8049 45.6762V46.5542H14.9268V45.6762H15.8049ZM12.2927 48.3103V49.1884H11.4146V48.3103H12.2927ZM7.02439 43.9201V44.7981H6.14634V43.9201H7.02439ZM7.90244 43.9201V44.7981H7.02439V43.9201H7.90244ZM7.02439 43.042V43.9201H6.14634V43.042H7.02439ZM7.90244 44.7981V45.6762H7.02439V44.7981H7.90244ZM7.90244 45.6762V46.5542H7.02439V45.6762H7.90244ZM7.90244 46.5542V47.4323H7.02439V46.5542H7.90244ZM7.90244 47.4323V48.3103H7.02439V47.4323H7.90244ZM7.02439 47.4323V48.3103H6.14634V47.4323H7.02439ZM7.02439 46.5542V47.4323H6.14634V46.5542H7.02439ZM7.02439 45.6762V46.5542H6.14634V45.6762H7.02439ZM7.02439 44.7981V45.6762H6.14634V44.7981H7.02439ZM9.65854 35.1396V36.0177H8.78049V35.1396H9.65854ZM9.65854 36.0177V36.8957H8.78049V36.0177H9.65854ZM9.65854 36.8957V37.7737H8.78049V36.8957H9.65854ZM9.65854 37.7737V38.6518H8.78049V37.7737H9.65854ZM9.65854 38.6518V39.5298H8.78049V38.6518H9.65854ZM9.65854 43.9201V44.7981H8.78049V43.9201H9.65854ZM9.65854 44.7981V45.6762H8.78049V44.7981H9.65854ZM9.65854 45.6762V46.5542H8.78049V45.6762H9.65854ZM9.65854 46.5542V47.4323H8.78049V46.5542H9.65854ZM9.65854 47.4323V48.3103H8.78049V47.4323H9.65854ZM9.65854 52.7006V53.5786H8.78049V52.7006H9.65854ZM9.65854 53.5786V54.4567H8.78049V53.5786H9.65854ZM9.65854 54.4567V55.3347H8.78049V54.4567H9.65854ZM9.65854 55.3347V56.2128H8.78049V55.3347H9.65854ZM9.65854 56.2128V57.0908H8.78049V56.2128H9.65854ZM21.056 52.7006V53.5786H20.178V52.7006H21.056ZM21.056 51.8225V52.7006H20.178V51.8225H21.056ZM21.056 50.9445V51.8225H20.178V50.9445H21.056ZM21.056 50.0664V50.9445H20.178V50.0664H21.056ZM21.056 43.9201V44.7981H20.178V43.9201H21.056ZM21.9341 43.9201V44.7981H21.056V43.9201H21.9341ZM21.9341 44.7981V45.6762H21.056V44.7981H21.9341ZM21.9341 45.6762V46.5542H21.056V45.6762H21.9341ZM22.8121 50.0664V50.9445H21.9341V50.0664H22.8121ZM22.8121 50.9445V51.8225H21.9341V50.9445H22.8121ZM22.8121 51.8225V52.7006H21.9341V51.8225H22.8121ZM22.8121 52.7006V53.5786H21.9341V52.7006H22.8121ZM22.8121 53.5786V54.4567H21.9341V53.5786H22.8121ZM22.8121 54.4567V55.3347H21.9341V54.4567H22.8121ZM22.8121 55.3347V56.2128H21.9341V55.3347H22.8121ZM24.5682 56.2128V57.0908H23.6902V56.2128H24.5682ZM24.5682 55.3347V56.2128H23.6902V55.3347H24.5682ZM24.5682 54.4567V55.3347H23.6902V54.4567H24.5682ZM24.5682 53.5786V54.4567H23.6902V53.5786H24.5682ZM24.5682 52.7006V53.5786H23.6902V52.7006H24.5682ZM24.5682 51.8225V52.7006H23.6902V51.8225H24.5682ZM24.5682 50.9445V51.8225H23.6902V50.9445H24.5682ZM24.5682 50.0664V50.9445H23.6902V50.0664H24.5682ZM23.6902 50.0664V50.9445H22.8121V50.0664H23.6902ZM23.6902 50.9445V51.8225H22.8121V50.9445H23.6902ZM23.6902 51.8225V52.7006H22.8121V51.8225H23.6902ZM23.6902 52.7006V53.5786H22.8121V52.7006H23.6902ZM23.6902 53.5786V54.4567H22.8121V53.5786H23.6902ZM23.6902 54.4567V55.3347H22.8121V54.4567H23.6902ZM23.6902 55.3347V56.2128H22.8121V55.3347H23.6902ZM21.9341 54.4567V55.3347H21.056V54.4567H21.9341ZM21.9341 53.5786V54.4567H21.056V53.5786H21.9341ZM21.9341 52.7006V53.5786H21.056V52.7006H21.9341ZM21.9341 51.8225V52.7006H21.056V51.8225H21.9341ZM21.9341 50.9445V51.8225H21.056V50.9445H21.9341ZM21.9341 50.0664V50.9445H21.056V50.0664H21.9341ZM21.056 43.042V43.9201H20.178V43.042H21.056ZM23.6902 43.042V43.9201H22.8121V43.042H23.6902ZM23.6902 43.9201V44.7981H22.8121V43.9201H23.6902ZM23.6902 44.7981V45.6762H22.8121V44.7981H23.6902ZM23.6902 45.6762V46.5542H22.8121V45.6762H23.6902ZM23.6902 46.5542V47.4323H22.8121V46.5542H23.6902ZM24.5682 47.4323V48.3103H23.6902V47.4323H24.5682ZM24.5682 46.5542V47.4323H23.6902V46.5542H24.5682ZM24.5682 45.6762V46.5542H23.6902V45.6762H24.5682ZM24.5682 44.7981V45.6762H23.6902V44.7981H24.5682ZM24.5682 43.9201V44.7981H23.6902V43.9201H24.5682ZM24.5682 43.042V43.9201H23.6902V43.042H24.5682ZM21.9341 43.042V43.9201H21.056V43.042H21.9341ZM22.8121 43.042V43.9201H21.9341V43.042H22.8121ZM22.8121 43.9201V44.7981H21.9341V43.9201H22.8121ZM22.8121 44.7981V45.6762H21.9341V44.7981H22.8121ZM22.8121 45.6762V46.5542H21.9341V45.6762H22.8121ZM22.8121 46.5542V47.4323H21.9341V46.5542H22.8121ZM31.5926 56.2128V57.0908H30.7146V56.2128H31.5926ZM31.5926 55.3347V56.2128H30.7146V55.3347H31.5926ZM31.5926 54.4567V55.3347H30.7146V54.4567H31.5926ZM31.5926 53.5786V54.4567H30.7146V53.5786H31.5926ZM31.5926 52.7006V53.5786H30.7146V52.7006H31.5926ZM31.5926 51.8225V52.7006H30.7146V51.8225H31.5926ZM31.5926 50.9445V51.8225H30.7146V50.9445H31.5926ZM31.5926 50.0664V50.9445H30.7146V50.0664H31.5926ZM31.5926 49.1884V50.0664H30.7146V49.1884H31.5926ZM31.5926 48.3103V49.1884H30.7146V48.3103H31.5926ZM31.5926 47.4323V48.3103H30.7146V47.4323H31.5926ZM31.5926 46.5542V47.4323H30.7146V46.5542H31.5926ZM31.5926 45.6762V46.5542H30.7146V45.6762H31.5926ZM31.5926 44.7981V45.6762H30.7146V44.7981H31.5926ZM31.5926 43.9201V44.7981H30.7146V43.9201H31.5926ZM32.4707 44.7981V45.6762H31.5926V44.7981H32.4707ZM32.4707 45.6762V46.5542H31.5926V45.6762H32.4707ZM32.4707 46.5542V47.4323H31.5926V46.5542H32.4707ZM32.4707 47.4323V48.3103H31.5926V47.4323H32.4707ZM32.4707 48.3103V49.1884H31.5926V48.3103H32.4707ZM32.4707 49.1884V50.0664H31.5926V49.1884H32.4707ZM33.3487 50.0664V50.9445H32.4707V50.0664H33.3487ZM33.3487 50.9445V51.8225H32.4707V50.9445H33.3487ZM33.3487 51.8225V52.7006H32.4707V51.8225H33.3487ZM33.3487 52.7006V53.5786H32.4707V52.7006H33.3487ZM33.3487 53.5786V54.4567H32.4707V53.5786H33.3487ZM33.3487 54.4567V55.3347H32.4707V54.4567H33.3487ZM33.3487 55.3347V56.2128H32.4707V55.3347H33.3487ZM35.1048 52.7006V53.5786H34.2268V52.7006H35.1048ZM35.1048 51.8225V52.7006H34.2268V51.8225H35.1048ZM35.1048 50.9445V51.8225H34.2268V50.9445H35.1048ZM35.1048 50.0664V50.9445H34.2268V50.0664H35.1048ZM34.2268 50.0664V50.9445H33.3487V50.0664H34.2268ZM34.2268 49.1884V50.0664H33.3487V49.1884H34.2268ZM34.2268 50.9445V51.8225H33.3487V50.9445H34.2268ZM34.2268 51.8225V52.7006H33.3487V51.8225H34.2268ZM34.2268 52.7006V53.5786H33.3487V52.7006H34.2268ZM34.2268 53.5786V54.4567H33.3487V53.5786H34.2268ZM34.2268 54.4567V55.3347H33.3487V54.4567H34.2268ZM32.4707 55.3347V56.2128H31.5926V55.3347H32.4707ZM32.4707 54.4567V55.3347H31.5926V54.4567H32.4707ZM32.4707 53.5786V54.4567H31.5926V53.5786H32.4707ZM32.4707 52.7006V53.5786H31.5926V52.7006H32.4707ZM32.4707 51.8225V52.7006H31.5926V51.8225H32.4707ZM32.4707 50.9445V51.8225H31.5926V50.9445H32.4707ZM32.4707 50.0664V50.9445H31.5926V50.0664H32.4707ZM34.2268 46.5542V47.4323H33.3487V46.5542H34.2268ZM35.1048 47.4323V48.3103H34.2268V47.4323H35.1048ZM35.1048 48.3103V49.1884H34.2268V48.3103H35.1048ZM35.1048 49.1884V50.0664H34.2268V49.1884H35.1048ZM33.3487 44.7981V45.6762H32.4707V44.7981H33.3487ZM33.3487 45.6762V46.5542H32.4707V45.6762H33.3487ZM33.3487 46.5542V47.4323H32.4707V46.5542H33.3487ZM33.3487 47.4323V48.3103H32.4707V47.4323H33.3487ZM33.3487 48.3103V49.1884H32.4707V48.3103H33.3487ZM33.3487 49.1884V50.0664H32.4707V49.1884H33.3487ZM34.2268 48.3103V49.1884H33.3487V48.3103H34.2268ZM34.2268 47.4323V48.3103H33.3487V47.4323H34.2268ZM25.4463 56.2128V57.0908H24.5682V56.2128H25.4463ZM26.3243 56.2128V57.0908H25.4463V56.2128H26.3243ZM27.2024 56.2128V57.0908H26.3243V56.2128H27.2024ZM28.9585 56.2128V57.0908H28.0804V56.2128H28.9585ZM29.8365 56.2128V57.0908H28.9585V56.2128H29.8365ZM30.7146 56.2128V57.0908H29.8365V56.2128H30.7146ZM30.7146 55.3347V56.2128H29.8365V55.3347H30.7146ZM29.8365 55.3347V56.2128H28.9585V55.3347H29.8365ZM28.9585 55.3347V56.2128H28.0804V55.3347H28.9585ZM27.2024 55.3347V56.2128H26.3243V55.3347H27.2024ZM26.3243 55.3347V56.2128H25.4463V55.3347H26.3243ZM25.4463 55.3347V56.2128H24.5682V55.3347H25.4463ZM25.4463 54.4567V55.3347H24.5682V54.4567H25.4463ZM26.3243 54.4567V55.3347H25.4463V54.4567H26.3243ZM27.2024 54.4567V55.3347H26.3243V54.4567H27.2024ZM28.9585 54.4567V55.3347H28.0804V54.4567H28.9585ZM29.8365 54.4567V55.3347H28.9585V54.4567H29.8365ZM30.7146 54.4567V55.3347H29.8365V54.4567H30.7146ZM30.7146 53.5786V54.4567H29.8365V53.5786H30.7146ZM29.8365 53.5786V54.4567H28.9585V53.5786H29.8365ZM28.9585 53.5786V54.4567H28.0804V53.5786H28.9585ZM27.2024 53.5786V54.4567H26.3243V53.5786H27.2024ZM26.3243 53.5786V54.4567H25.4463V53.5786H26.3243ZM25.4463 53.5786V54.4567H24.5682V53.5786H25.4463ZM25.4463 52.7006V53.5786H24.5682V52.7006H25.4463ZM30.7146 52.7006V53.5786H29.8365V52.7006H30.7146ZM34.2268 39.5298V38.6518H35.1048V39.5298H34.2268ZM34.2268 40.4079V39.5298H35.1048V40.4079H34.2268ZM34.2268 41.2859V40.4079H35.1048V41.2859H34.2268ZM32.4707 41.2859V40.4079H33.3487V41.2859H32.4707ZM32.4707 40.4079V39.5298H33.3487V40.4079H32.4707ZM32.4707 39.5298V38.6518H33.3487V39.5298H32.4707ZM32.4707 38.6518V37.7737H33.3487V38.6518H32.4707ZM32.4707 37.7737V36.8957H33.3487V37.7737H32.4707ZM32.4707 36.8957V36.0177H33.3487V36.8957H32.4707ZM30.7146 36.0177V35.1396H31.5926V36.0177H30.7146ZM30.7146 36.8957V36.0177H31.5926V36.8957H30.7146ZM30.7146 37.7737V36.8957H31.5926V37.7737H30.7146ZM30.7146 38.6518V37.7737H31.5926V38.6518H30.7146ZM30.7146 39.5298V38.6518H31.5926V39.5298H30.7146ZM30.7146 40.4079V39.5298H31.5926V40.4079H30.7146ZM30.7146 41.2859V40.4079H31.5926V41.2859H30.7146ZM31.5926 41.2859V40.4079H32.4707V41.2859H31.5926ZM31.5926 40.4079V39.5298H32.4707V40.4079H31.5926ZM31.5926 39.5298V38.6518H32.4707V39.5298H31.5926ZM31.5926 38.6518V37.7737H32.4707V38.6518H31.5926ZM31.5926 37.7737V36.8957H32.4707V37.7737H31.5926ZM31.5926 36.8957V36.0177H32.4707V36.8957H31.5926ZM33.3487 37.7737V36.8957H34.2268V37.7737H33.3487ZM33.3487 38.6518V37.7737H34.2268V38.6518H33.3487ZM33.3487 39.5298V38.6518H34.2268V39.5298H33.3487ZM33.3487 40.4079V39.5298H34.2268V40.4079H33.3487ZM33.3487 41.2859V40.4079H34.2268V41.2859H33.3487ZM23.6902 36.0177V35.1396H24.5682V36.0177H23.6902ZM23.6902 36.8957V36.0177H24.5682V36.8957H23.6902ZM23.6902 37.7737V36.8957H24.5682V37.7737H23.6902ZM23.6902 38.6518V37.7737H24.5682V38.6518H23.6902ZM23.6902 39.5298V38.6518H24.5682V39.5298H23.6902ZM23.6902 40.4079V39.5298H24.5682V40.4079H23.6902ZM23.6902 41.2859V40.4079H24.5682V41.2859H23.6902ZM21.9341 41.2859V40.4079H22.8121V41.2859H21.9341ZM21.9341 40.4079V39.5298H22.8121V40.4079H21.9341ZM21.9341 39.5298V38.6518H22.8121V39.5298H21.9341ZM21.9341 38.6518V37.7737H22.8121V38.6518H21.9341ZM21.9341 37.7737V36.8957H22.8121V37.7737H21.9341ZM21.9341 36.8957V36.0177H22.8121V36.8957H21.9341ZM20.178 39.5298V38.6518H21.056V39.5298H20.178ZM20.178 40.4079V39.5298H21.056V40.4079H20.178ZM20.178 41.2859V40.4079H21.056V41.2859H20.178ZM21.056 41.2859V40.4079H21.9341V41.2859H21.056ZM21.056 40.4079V39.5298H21.9341V40.4079H21.056ZM21.056 39.5298V38.6518H21.9341V39.5298H21.056ZM21.056 38.6518V37.7737H21.9341V38.6518H21.056ZM21.056 37.7737V36.8957H21.9341V37.7737H21.056ZM22.8121 36.8957V36.0177H23.6902V36.8957H22.8121ZM22.8121 37.7737V36.8957H23.6902V37.7737H22.8121ZM22.8121 38.6518V37.7737H23.6902V38.6518H22.8121ZM22.8121 39.5298V38.6518H23.6902V39.5298H22.8121ZM22.8121 40.4079V39.5298H23.6902V40.4079H22.8121ZM22.8121 41.2859V40.4079H23.6902V41.2859H22.8121ZM29.8365 36.0177V35.1396H30.7146V36.0177H29.8365ZM28.9585 36.0177V35.1396H29.8365V36.0177H28.9585ZM28.0804 36.0177V35.1396H28.9585V36.0177H28.0804ZM26.3243 36.0177V35.1396H27.2024V36.0177H26.3243ZM25.4463 36.0177V35.1396H26.3243V36.0177H25.4463ZM24.5682 36.0177V35.1396H25.4463V36.0177H24.5682ZM24.5682 36.8957V36.0177H25.4463V36.8957H24.5682ZM25.4463 36.8957V36.0177H26.3243V36.8957H25.4463ZM26.3243 36.8957V36.0177H27.2024V36.8957H26.3243ZM28.0804 36.8957V36.0177H28.9585V36.8957H28.0804ZM28.9585 36.8957V36.0177H29.8365V36.8957H28.9585ZM29.8365 36.8957V36.0177H30.7146V36.8957H29.8365ZM29.8365 37.7737V36.8957H30.7146V37.7737H29.8365ZM28.9585 37.7737V36.8957H29.8365V37.7737H28.9585ZM28.0804 37.7737V36.8957H28.9585V37.7737H28.0804ZM26.3243 37.7737V36.8957H27.2024V37.7737H26.3243ZM25.4463 37.7737V36.8957H26.3243V37.7737H25.4463ZM24.5682 37.7737V36.8957H25.4463V37.7737H24.5682ZM24.5682 38.6518V37.7737H25.4463V38.6518H24.5682ZM25.4463 38.6518V37.7737H26.3243V38.6518H25.4463ZM26.3243 38.6518V37.7737H27.2024V38.6518H26.3243ZM28.0804 38.6518V37.7737H28.9585V38.6518H28.0804ZM28.9585 38.6518V37.7737H29.8365V38.6518H28.9585ZM29.8365 38.6518V37.7737H30.7146V38.6518H29.8365ZM29.8365 39.5298V38.6518H30.7146V39.5298H29.8365ZM24.5682 39.5298V38.6518H25.4463V39.5298H24.5682ZM21.056 42.164V43.042H20.178V42.164H21.056ZM21.9341 42.164V43.042H21.056V42.164H21.9341ZM21.056 41.2859V42.164H20.178V41.2859H21.056ZM23.6902 41.2859V42.164H22.8121V41.2859H23.6902ZM23.6902 42.164V43.042H22.8121V42.164H23.6902ZM24.5682 42.164V43.042H23.6902V42.164H24.5682ZM24.5682 41.2859V42.164H23.6902V41.2859H24.5682ZM21.9341 41.2859V42.164H21.056V41.2859H21.9341ZM22.8121 41.2859V42.164H21.9341V41.2859H22.8121ZM22.8121 42.164V43.042H21.9341V42.164H22.8121ZM26.3243 52.7006V53.5786H25.4463V52.7006H26.3243ZM27.2024 52.7006V53.5786H26.3243V52.7006H27.2024ZM28.9585 52.7006V53.5786H28.0804V52.7006H28.9585ZM29.8365 52.7006V53.5786H28.9585V52.7006H29.8365ZM30.7146 51.8225V52.7006H29.8365V51.8225H30.7146ZM25.4463 51.8225V52.7006H24.5682V51.8225H25.4463ZM26.3243 38.6518V39.5298H25.4463V38.6518H26.3243ZM27.2024 38.6518V39.5298H26.3243V38.6518H27.2024ZM28.9585 38.6518V39.5298H28.0804V38.6518H28.9585ZM29.8365 38.6518V39.5298H28.9585V38.6518H29.8365ZM30.7146 39.5298V40.4079H29.8365V39.5298H30.7146ZM25.4463 39.5298V40.4079H24.5682V39.5298H25.4463ZM27.2024 45.6762V46.5542H26.3243V45.6762H27.2024ZM28.9585 45.6762V46.5542H28.0804V45.6762H28.9585ZM29.8365 45.6762V46.5542H28.9585V45.6762H29.8365ZM30.7146 45.6762V46.5542H29.8365V45.6762H30.7146ZM30.7146 46.5542V47.4323H29.8365V46.5542H30.7146ZM29.8365 46.5542V47.4323H28.9585V46.5542H29.8365ZM28.9585 46.5542V47.4323H28.0804V46.5542H28.9585ZM27.2024 46.5542V47.4323H26.3243V46.5542H27.2024ZM27.2024 43.9201V44.7981H26.3243V43.9201H27.2024ZM28.9585 43.9201V44.7981H28.0804V43.9201H28.9585ZM29.8365 43.9201V44.7981H28.9585V43.9201H29.8365ZM30.7146 43.9201V44.7981H29.8365V43.9201H30.7146ZM30.7146 44.7981V45.6762H29.8365V44.7981H30.7146ZM29.8365 44.7981V45.6762H28.9585V44.7981H29.8365ZM28.9585 44.7981V45.6762H28.0804V44.7981H28.9585ZM27.2024 44.7981V45.6762H26.3243V44.7981H27.2024ZM27.2024 47.4323V48.3103H26.3243V47.4323H27.2024ZM28.9585 47.4323V48.3103H28.0804V47.4323H28.9585ZM29.8365 47.4323V48.3103H28.9585V47.4323H29.8365ZM30.7146 47.4323V48.3103H29.8365V47.4323H30.7146ZM34.2268 45.6762V46.5542H33.3487V45.6762H34.2268ZM30.7146 48.3103V49.1884H29.8365V48.3103H30.7146ZM25.4463 43.9201V44.7981H24.5682V43.9201H25.4463ZM26.3243 43.9201V44.7981H25.4463V43.9201H26.3243ZM25.4463 43.042V43.9201H24.5682V43.042H25.4463ZM26.3243 44.7981V45.6762H25.4463V44.7981H26.3243ZM26.3243 45.6762V46.5542H25.4463V45.6762H26.3243ZM26.3243 46.5542V47.4323H25.4463V46.5542H26.3243ZM26.3243 47.4323V48.3103H25.4463V47.4323H26.3243ZM25.4463 47.4323V48.3103H24.5682V47.4323H25.4463ZM25.4463 46.5542V47.4323H24.5682V46.5542H25.4463ZM25.4463 45.6762V46.5542H24.5682V45.6762H25.4463ZM25.4463 44.7981V45.6762H24.5682V44.7981H25.4463ZM28.0804 35.1396V36.0177H27.2024V35.1396H28.0804ZM28.0804 36.0177V36.8957H27.2024V36.0177H28.0804ZM28.0804 36.8957V37.7737H27.2024V36.8957H28.0804ZM28.0804 37.7737V38.6518H27.2024V37.7737H28.0804ZM28.0804 38.6518V39.5298H27.2024V38.6518H28.0804ZM28.0804 43.9201V44.7981H27.2024V43.9201H28.0804ZM28.0804 44.7981V45.6762H27.2024V44.7981H28.0804ZM28.0804 45.6762V46.5542H27.2024V45.6762H28.0804ZM28.0804 46.5542V47.4323H27.2024V46.5542H28.0804ZM28.0804 47.4323V48.3103H27.2024V47.4323H28.0804ZM28.0804 52.7006V53.5786H27.2024V52.7006H28.0804ZM28.0804 53.5786V54.4567H27.2024V53.5786H28.0804ZM28.0804 54.4567V55.3347H27.2024V54.4567H28.0804ZM28.0804 55.3347V56.2128H27.2024V55.3347H28.0804ZM28.0804 56.2128V57.0908H27.2024V56.2128H28.0804ZM39.4779 56.2128V57.0908H38.5998V56.2128H39.4779ZM39.4779 55.3347V56.2128H38.5998V55.3347H39.4779ZM39.4779 54.4567V55.3347H38.5998V54.4567H39.4779ZM39.4779 53.5786V54.4567H38.5998V53.5786H39.4779ZM39.4779 52.7006V53.5786H38.5998V52.7006H39.4779ZM39.4779 51.8225V52.7006H38.5998V51.8225H39.4779ZM39.4779 50.9445V51.8225H38.5998V50.9445H39.4779ZM39.4779 50.0664V50.9445H38.5998V50.0664H39.4779ZM39.4779 49.1884V50.0664H38.5998V49.1884H39.4779ZM39.4779 48.3103V49.1884H38.5998V48.3103H39.4779ZM39.4779 47.4323V48.3103H38.5998V47.4323H39.4779ZM39.4779 46.5542V47.4323H38.5998V46.5542H39.4779ZM39.4779 45.6762V46.5542H38.5998V45.6762H39.4779ZM39.4779 44.7981V45.6762H38.5998V44.7981H39.4779ZM39.4779 43.9201V44.7981H38.5998V43.9201H39.4779ZM40.3559 43.9201V44.7981H39.4779V43.9201H40.3559ZM40.3559 44.7981V45.6762H39.4779V44.7981H40.3559ZM40.3559 45.6762V46.5542H39.4779V45.6762H40.3559ZM40.3559 46.5542V47.4323H39.4779V46.5542H40.3559ZM40.3559 47.4323V48.3103H39.4779V47.4323H40.3559ZM40.3559 48.3103V49.1884H39.4779V48.3103H40.3559ZM40.3559 49.1884V50.0664H39.4779V49.1884H40.3559ZM41.234 50.0664V50.9445H40.3559V50.0664H41.234ZM41.234 50.9445V51.8225H40.3559V50.9445H41.234ZM41.234 51.8225V52.7006H40.3559V51.8225H41.234ZM41.234 52.7006V53.5786H40.3559V52.7006H41.234ZM41.234 53.5786V54.4567H40.3559V53.5786H41.234ZM41.234 54.4567V55.3347H40.3559V54.4567H41.234ZM41.234 55.3347V56.2128H40.3559V55.3347H41.234ZM41.234 56.2128V57.0908H40.3559V56.2128H41.234ZM42.112 56.2128V57.0908H41.234V56.2128H42.112ZM42.9901 56.2128V57.0908H42.112V56.2128H42.9901ZM42.9901 55.3347V56.2128H42.112V55.3347H42.9901ZM42.9901 54.4567V55.3347H42.112V54.4567H42.9901ZM42.9901 53.5786V54.4567H42.112V53.5786H42.9901ZM42.9901 52.7006V53.5786H42.112V52.7006H42.9901ZM42.9901 51.8225V52.7006H42.112V51.8225H42.9901ZM42.9901 50.9445V51.8225H42.112V50.9445H42.9901ZM42.9901 50.0664V50.9445H42.112V50.0664H42.9901ZM42.112 50.0664V50.9445H41.234V50.0664H42.112ZM42.112 49.1884V50.0664H41.234V49.1884H42.112ZM42.112 50.9445V51.8225H41.234V50.9445H42.112ZM42.112 51.8225V52.7006H41.234V51.8225H42.112ZM42.112 52.7006V53.5786H41.234V52.7006H42.112ZM42.112 53.5786V54.4567H41.234V53.5786H42.112ZM42.112 54.4567V55.3347H41.234V54.4567H42.112ZM42.112 55.3347V56.2128H41.234V55.3347H42.112ZM40.3559 56.2128V57.0908H39.4779V56.2128H40.3559ZM40.3559 55.3347V56.2128H39.4779V55.3347H40.3559ZM40.3559 54.4567V55.3347H39.4779V54.4567H40.3559ZM40.3559 53.5786V54.4567H39.4779V53.5786H40.3559ZM40.3559 52.7006V53.5786H39.4779V52.7006H40.3559ZM40.3559 51.8225V52.7006H39.4779V51.8225H40.3559ZM40.3559 50.9445V51.8225H39.4779V50.9445H40.3559ZM40.3559 50.0664V50.9445H39.4779V50.0664H40.3559ZM39.4779 35.1396V36.0177H38.5998V35.1396H39.4779ZM39.4779 36.0177V36.8957H38.5998V36.0177H39.4779ZM39.4779 36.8957V37.7737H38.5998V36.8957H39.4779ZM39.4779 37.7737V38.6518H38.5998V37.7737H39.4779ZM39.4779 38.6518V39.5298H38.5998V38.6518H39.4779ZM39.4779 39.5298V40.4079H38.5998V39.5298H39.4779ZM39.4779 40.4079V41.2859H38.5998V40.4079H39.4779ZM39.4779 41.2859V42.164H38.5998V41.2859H39.4779ZM39.4779 42.164V43.042H38.5998V42.164H39.4779ZM39.4779 43.042V43.9201H38.5998V43.042H39.4779ZM42.112 35.1396V36.0177H41.234V35.1396H42.112ZM42.112 36.0177V36.8957H41.234V36.0177H42.112ZM42.112 36.8957V37.7737H41.234V36.8957H42.112ZM42.112 37.7737V38.6518H41.234V37.7737H42.112ZM42.112 38.6518V39.5298H41.234V38.6518H42.112ZM42.112 39.5298V40.4079H41.234V39.5298H42.112ZM42.112 41.2859V42.164H41.234V41.2859H42.112ZM42.112 42.164V43.042H41.234V42.164H42.112ZM42.112 43.042V43.9201H41.234V43.042H42.112ZM42.112 43.9201V44.7981H41.234V43.9201H42.112ZM42.112 44.7981V45.6762H41.234V44.7981H42.112ZM42.112 45.6762V46.5542H41.234V45.6762H42.112ZM42.112 46.5542V47.4323H41.234V46.5542H42.112ZM42.9901 47.4323V48.3103H42.112V47.4323H42.9901ZM42.9901 48.3103V49.1884H42.112V48.3103H42.9901ZM42.9901 49.1884V50.0664H42.112V49.1884H42.9901ZM42.9901 46.5542V47.4323H42.112V46.5542H42.9901ZM42.9901 45.6762V46.5542H42.112V45.6762H42.9901ZM42.9901 44.7981V45.6762H42.112V44.7981H42.9901ZM42.9901 43.9201V44.7981H42.112V43.9201H42.9901ZM42.9901 43.042V43.9201H42.112V43.042H42.9901ZM42.9901 42.164V43.042H42.112V42.164H42.9901ZM42.9901 41.2859V42.164H42.112V41.2859H42.9901ZM42.9901 40.4079V41.2859H42.112V40.4079H42.9901ZM42.9901 39.5298V40.4079H42.112V39.5298H42.9901ZM42.9901 38.6518V39.5298H42.112V38.6518H42.9901ZM42.112 40.4079V41.2859H41.234V40.4079H42.112ZM42.9901 37.7737V38.6518H42.112V37.7737H42.9901ZM42.9901 36.8957V37.7737H42.112V36.8957H42.9901ZM42.9901 36.0177V36.8957H42.112V36.0177H42.9901ZM42.9901 35.1396V36.0177H42.112V35.1396H42.9901ZM41.234 35.1396V36.0177H40.3559V35.1396H41.234ZM40.3559 35.1396V36.0177H39.4779V35.1396H40.3559ZM40.3559 36.0177V36.8957H39.4779V36.0177H40.3559ZM41.234 36.0177V36.8957H40.3559V36.0177H41.234ZM41.234 36.8957V37.7737H40.3559V36.8957H41.234ZM41.234 37.7737V38.6518H40.3559V37.7737H41.234ZM41.234 38.6518V39.5298H40.3559V38.6518H41.234ZM41.234 39.5298V40.4079H40.3559V39.5298H41.234ZM41.234 40.4079V41.2859H40.3559V40.4079H41.234ZM41.234 41.2859V42.164H40.3559V41.2859H41.234ZM40.3559 42.164V43.042H39.4779V42.164H40.3559ZM40.3559 43.042V43.9201H39.4779V43.042H40.3559ZM40.3559 41.2859V42.164H39.4779V41.2859H40.3559ZM40.3559 40.4079V41.2859H39.4779V40.4079H40.3559ZM40.3559 39.5298V40.4079H39.4779V39.5298H40.3559ZM40.3559 38.6518V39.5298H39.4779V38.6518H40.3559ZM40.3559 37.7737V38.6518H39.4779V37.7737H40.3559ZM40.3559 36.8957V37.7737H39.4779V36.8957H40.3559ZM41.234 42.164V43.042H40.3559V42.164H41.234ZM41.234 43.042V43.9201H40.3559V43.042H41.234ZM41.234 43.9201V44.7981H40.3559V43.9201H41.234ZM41.234 44.7981V45.6762H40.3559V44.7981H41.234ZM41.234 45.6762V46.5542H40.3559V45.6762H41.234ZM41.234 46.5542V47.4323H40.3559V46.5542H41.234ZM41.234 47.4323V48.3103H40.3559V47.4323H41.234ZM41.234 48.3103V49.1884H40.3559V48.3103H41.234ZM41.234 49.1884V50.0664H40.3559V49.1884H41.234ZM42.112 48.3103V49.1884H41.234V48.3103H42.112ZM42.112 47.4323V48.3103H41.234V47.4323H42.112ZM56.1608 35.1396V36.0177H55.2828V35.1396H56.1608ZM56.1608 36.0177V36.8957H55.2828V36.0177H56.1608ZM56.1608 36.8957V37.7737H55.2828V36.8957H56.1608ZM56.1608 38.6518V39.5298H55.2828V38.6518H56.1608ZM56.1608 39.5298V40.4079H55.2828V39.5298H56.1608ZM56.1608 40.4079V41.2859H55.2828V40.4079H56.1608ZM56.1608 41.2859V42.164H55.2828V41.2859H56.1608ZM56.1608 42.164V43.042H55.2828V42.164H56.1608ZM56.1608 43.042V43.9201H55.2828V43.042H56.1608ZM56.1608 43.9201V44.7981H55.2828V43.9201H56.1608ZM57.0389 44.7981V45.6762H56.1608V44.7981H57.0389ZM57.0389 45.6762V46.5542H56.1608V45.6762H57.0389ZM57.0389 46.5542V47.4323H56.1608V46.5542H57.0389ZM57.0389 47.4323V48.3103H56.1608V47.4323H57.0389ZM57.0389 48.3103V49.1884H56.1608V48.3103H57.0389ZM57.0389 49.1884V50.0664H56.1608V49.1884H57.0389ZM57.9169 49.1884V50.0664H57.0389V49.1884H57.9169ZM57.9169 50.0664V50.9445H57.0389V50.0664H57.9169ZM57.9169 50.9445V51.8225H57.0389V50.9445H57.9169ZM57.9169 51.8225V52.7006H57.0389V51.8225H57.9169ZM57.9169 52.7006V53.5786H57.0389V52.7006H57.9169ZM57.9169 53.5786V54.4567H57.0389V53.5786H57.9169ZM57.9169 54.4567V55.3347H57.0389V54.4567H57.9169ZM57.9169 55.3347V56.2128H57.0389V55.3347H57.9169ZM57.9169 56.2128V57.0908H57.0389V56.2128H57.9169ZM57.0389 56.2128V57.0908H56.1608V56.2128H57.0389ZM57.0389 55.3347V56.2128H56.1608V55.3347H57.0389ZM57.0389 54.4567V55.3347H56.1608V54.4567H57.0389ZM57.0389 53.5786V54.4567H56.1608V53.5786H57.0389ZM57.0389 52.7006V53.5786H56.1608V52.7006H57.0389ZM57.0389 51.8225V52.7006H56.1608V51.8225H57.0389ZM57.0389 50.9445V51.8225H56.1608V50.9445H57.0389ZM56.1608 50.9445V51.8225H55.2828V50.9445H56.1608ZM56.1608 50.0664V50.9445H55.2828V50.0664H56.1608ZM57.0389 50.0664V50.9445H56.1608V50.0664H57.0389ZM56.1608 44.7981V45.6762H55.2828V44.7981H56.1608ZM56.1608 45.6762V46.5542H55.2828V45.6762H56.1608ZM56.1608 46.5542V47.4323H55.2828V46.5542H56.1608ZM56.1608 47.4323V48.3103H55.2828V47.4323H56.1608ZM56.1608 48.3103V49.1884H55.2828V48.3103H56.1608ZM56.1608 49.1884V50.0664H55.2828V49.1884H56.1608ZM56.1608 37.7737V38.6518H55.2828V37.7737H56.1608ZM56.1608 51.8225V52.7006H55.2828V51.8225H56.1608ZM56.1608 52.7006V53.5786H55.2828V52.7006H56.1608ZM56.1608 53.5786V54.4567H55.2828V53.5786H56.1608ZM56.1608 54.4567V55.3347H55.2828V54.4567H56.1608ZM56.1608 55.3347V56.2128H55.2828V55.3347H56.1608ZM56.1608 56.2128V57.0908H55.2828V56.2128H56.1608ZM58.795 56.2128V57.0908H57.9169V56.2128H58.795ZM59.673 56.2128V57.0908H58.795V56.2128H59.673ZM59.673 55.3347V56.2128H58.795V55.3347H59.673ZM59.673 54.4567V55.3347H58.795V54.4567H59.673ZM59.673 53.5786V54.4567H58.795V53.5786H59.673ZM59.673 52.7006V53.5786H58.795V52.7006H59.673ZM59.673 51.8225V52.7006H58.795V51.8225H59.673ZM59.673 50.9445V51.8225H58.795V50.9445H59.673ZM59.673 50.0664V50.9445H58.795V50.0664H59.673ZM59.673 49.1884V50.0664H58.795V49.1884H59.673ZM59.673 48.3103V49.1884H58.795V48.3103H59.673ZM59.673 47.4323V48.3103H58.795V47.4323H59.673ZM59.673 46.5542V47.4323H58.795V46.5542H59.673ZM59.673 45.6762V46.5542H58.795V45.6762H59.673ZM59.673 44.7981V45.6762H58.795V44.7981H59.673ZM59.673 43.9201V44.7981H58.795V43.9201H59.673ZM59.673 43.042V43.9201H58.795V43.042H59.673ZM59.673 42.164V43.042H58.795V42.164H59.673ZM59.673 41.2859V42.164H58.795V41.2859H59.673ZM59.673 40.4079V41.2859H58.795V40.4079H59.673ZM57.0389 35.1396V36.0177H56.1608V35.1396H57.0389ZM57.9169 35.1396V36.0177H57.0389V35.1396H57.9169ZM58.795 35.1396V36.0177H57.9169V35.1396H58.795ZM59.673 35.1396V36.0177H58.795V35.1396H59.673ZM59.673 36.0177V36.8957H58.795V36.0177H59.673ZM59.673 36.8957V37.7737H58.795V36.8957H59.673ZM59.673 37.7737V38.6518H58.795V37.7737H59.673ZM59.673 38.6518V39.5298H58.795V38.6518H59.673ZM59.673 39.5298V40.4079H58.795V39.5298H59.673ZM57.0389 36.0177V36.8957H56.1608V36.0177H57.0389ZM57.9169 36.0177V36.8957H57.0389V36.0177H57.9169ZM58.795 36.0177V36.8957H57.9169V36.0177H58.795ZM58.795 36.8957V37.7737H57.9169V36.8957H58.795ZM58.795 37.7737V38.6518H57.9169V37.7737H58.795ZM58.795 38.6518V39.5298H57.9169V38.6518H58.795ZM58.795 39.5298V40.4079H57.9169V39.5298H58.795ZM57.9169 39.5298V40.4079H57.0389V39.5298H57.9169ZM57.9169 38.6518V39.5298H57.0389V38.6518H57.9169ZM57.9169 37.7737V38.6518H57.0389V37.7737H57.9169ZM57.9169 36.8957V37.7737H57.0389V36.8957H57.9169ZM57.0389 36.8957V37.7737H56.1608V36.8957H57.0389ZM57.0389 37.7737V38.6518H56.1608V37.7737H57.0389ZM57.0389 38.6518V39.5298H56.1608V38.6518H57.0389ZM57.0389 39.5298V40.4079H56.1608V39.5298H57.0389ZM57.0389 40.4079V41.2859H56.1608V40.4079H57.0389ZM57.0389 41.2859V42.164H56.1608V41.2859H57.0389ZM57.0389 42.164V43.042H56.1608V42.164H57.0389ZM57.0389 43.042V43.9201H56.1608V43.042H57.0389ZM57.9169 43.042V43.9201H57.0389V43.042H57.9169ZM57.9169 42.164V43.042H57.0389V42.164H57.9169ZM57.9169 41.2859V42.164H57.0389V41.2859H57.9169ZM57.9169 40.4079V41.2859H57.0389V40.4079H57.9169ZM58.795 40.4079V41.2859H57.9169V40.4079H58.795ZM58.795 41.2859V42.164H57.9169V41.2859H58.795ZM58.795 42.164V43.042H57.9169V42.164H58.795ZM58.795 43.042V43.9201H57.9169V43.042H58.795ZM58.795 43.9201V44.7981H57.9169V43.9201H58.795ZM58.795 44.7981V45.6762H57.9169V44.7981H58.795ZM58.795 45.6762V46.5542H57.9169V45.6762H58.795ZM58.795 46.5542V47.4323H57.9169V46.5542H58.795ZM58.795 47.4323V48.3103H57.9169V47.4323H58.795ZM58.795 48.3103V49.1884H57.9169V48.3103H58.795ZM57.9169 48.3103V49.1884H57.0389V48.3103H57.9169ZM57.9169 47.4323V48.3103H57.0389V47.4323H57.9169ZM57.9169 46.5542V47.4323H57.0389V46.5542H57.9169ZM57.9169 45.6762V46.5542H57.0389V45.6762H57.9169ZM57.9169 44.7981V45.6762H57.0389V44.7981H57.9169ZM57.0389 43.9201V44.7981H56.1608V43.9201H57.0389ZM57.9169 43.9201V44.7981H57.0389V43.9201H57.9169ZM58.795 49.1884V50.0664H57.9169V49.1884H58.795ZM58.795 50.0664V50.9445H57.9169V50.0664H58.795ZM58.795 50.9445V51.8225H57.9169V50.9445H58.795ZM58.795 51.8225V52.7006H57.9169V51.8225H58.795ZM58.795 52.7006V53.5786H57.9169V52.7006H58.795ZM58.795 53.5786V54.4567H57.9169V53.5786H58.795ZM58.795 54.4567V55.3347H57.9169V54.4567H58.795ZM58.795 55.3347V56.2128H57.9169V55.3347H58.795ZM49.1364 45.6762V46.5542H48.2584V45.6762H49.1364ZM49.1364 44.7981V45.6762H48.2584V44.7981H49.1364ZM49.1364 43.9201V44.7981H48.2584V43.9201H49.1364ZM49.1364 43.042V43.9201H48.2584V43.042H49.1364ZM49.1364 42.164V43.042H48.2584V42.164H49.1364ZM49.1364 41.2859V42.164H48.2584V41.2859H49.1364ZM49.1364 46.5542V47.4323H48.2584V46.5542H49.1364ZM50.8925 40.4079V41.2859H50.0145V40.4079H50.8925ZM51.7706 39.5298V40.4079H50.8925V39.5298H51.7706ZM52.6486 38.6518V39.5298H51.7706V38.6518H52.6486ZM53.5267 37.7737V38.6518H52.6486V37.7737H53.5267ZM48.2584 40.4079V41.2859H47.3803V40.4079H48.2584ZM47.3803 39.5298V40.4079H46.5023V39.5298H47.3803ZM46.5023 38.6518V39.5298H45.6242V38.6518H46.5023ZM45.6242 37.7737V38.6518H44.7462V37.7737H45.6242ZM50.8925 45.6762V46.5542H50.0145V45.6762H50.8925ZM51.7706 44.7981V45.6762H50.8925V44.7981H51.7706ZM52.6486 43.9201V44.7981H51.7706V43.9201H52.6486ZM53.5267 43.042V43.9201H52.6486V43.042H53.5267ZM48.2584 45.6762V46.5542H47.3803V45.6762H48.2584ZM47.3803 44.7981V45.6762H46.5023V44.7981H47.3803ZM46.5023 43.9201V44.7981H45.6242V43.9201H46.5023ZM45.6242 43.042V43.9201H44.7462V43.042H45.6242ZM43.8681 36.0177V36.8957H42.9901V36.0177H43.8681ZM44.7462 36.8957V37.7737H43.8681V36.8957H44.7462ZM54.4047 36.8957V37.7737H53.5267V36.8957H54.4047ZM55.2828 36.0177V36.8957H54.4047V36.0177H55.2828ZM44.7462 39.5298V40.4079H43.8681V39.5298H44.7462ZM44.7462 42.164V43.042H43.8681V42.164H44.7462ZM44.7462 41.2859V42.164H43.8681V41.2859H44.7462ZM43.8681 41.2859V42.164H42.9901V41.2859H43.8681ZM54.4047 42.164V43.042H53.5267V42.164H54.4047ZM55.2828 41.2859V42.164H54.4047V41.2859H55.2828ZM55.2828 40.4079V41.2859H54.4047V40.4079H55.2828ZM55.2828 39.5298V40.4079H54.4047V39.5298H55.2828ZM55.2828 38.6518V39.5298H54.4047V38.6518H55.2828ZM55.2828 37.7737V38.6518H54.4047V37.7737H55.2828ZM55.2828 36.8957V37.7737H54.4047V36.8957H55.2828ZM54.4047 37.7737V38.6518H53.5267V37.7737H54.4047ZM54.4047 38.6518V39.5298H53.5267V38.6518H54.4047ZM54.4047 39.5298V40.4079H53.5267V39.5298H54.4047ZM54.4047 40.4079V41.2859H53.5267V40.4079H54.4047ZM54.4047 41.2859V42.164H53.5267V41.2859H54.4047ZM53.5267 38.6518V39.5298H52.6486V38.6518H53.5267ZM53.5267 39.5298V40.4079H52.6486V39.5298H53.5267ZM53.5267 40.4079V41.2859H52.6486V40.4079H53.5267ZM53.5267 41.2859V42.164H52.6486V41.2859H53.5267ZM53.5267 42.164V43.042H52.6486V42.164H53.5267ZM52.6486 39.5298V40.4079H51.7706V39.5298H52.6486ZM52.6486 40.4079V41.2859H51.7706V40.4079H52.6486ZM52.6486 41.2859V42.164H51.7706V41.2859H52.6486ZM52.6486 42.164V43.042H51.7706V42.164H52.6486ZM52.6486 43.042V43.9201H51.7706V43.042H52.6486ZM51.7706 40.4079V41.2859H50.8925V40.4079H51.7706ZM51.7706 41.2859V42.164H50.8925V41.2859H51.7706ZM51.7706 42.164V43.042H50.8925V42.164H51.7706ZM51.7706 43.042V43.9201H50.8925V43.042H51.7706ZM51.7706 43.9201V44.7981H50.8925V43.9201H51.7706ZM50.8925 41.2859V42.164H50.0145V41.2859H50.8925ZM50.8925 42.164V43.042H50.0145V42.164H50.8925ZM50.8925 43.042V43.9201H50.0145V43.042H50.8925ZM50.8925 43.9201V44.7981H50.0145V43.9201H50.8925ZM50.8925 44.7981V45.6762H50.0145V44.7981H50.8925ZM48.2584 44.7981V45.6762H47.3803V44.7981H48.2584ZM48.2584 43.9201V44.7981H47.3803V43.9201H48.2584ZM47.3803 43.9201V44.7981H46.5023V43.9201H47.3803ZM47.3803 43.042V43.9201H46.5023V43.042H47.3803ZM46.5023 43.042V43.9201H45.6242V43.042H46.5023ZM46.5023 42.164V43.042H45.6242V42.164H46.5023ZM45.6242 42.164V43.042H44.7462V42.164H45.6242ZM45.6242 41.2859V42.164H44.7462V41.2859H45.6242ZM44.7462 40.4079V41.2859H43.8681V40.4079H44.7462ZM43.8681 40.4079V41.2859H42.9901V40.4079H43.8681ZM43.8681 39.5298V40.4079H42.9901V39.5298H43.8681ZM43.8681 38.6518V39.5298H42.9901V38.6518H43.8681ZM43.8681 37.7737V38.6518H42.9901V37.7737H43.8681ZM43.8681 36.8957V37.7737H42.9901V36.8957H43.8681ZM44.7462 37.7737V38.6518H43.8681V37.7737H44.7462ZM44.7462 38.6518V39.5298H43.8681V38.6518H44.7462ZM45.6242 38.6518V39.5298H44.7462V38.6518H45.6242ZM45.6242 39.5298V40.4079H44.7462V39.5298H45.6242ZM46.5023 39.5298V40.4079H45.6242V39.5298H46.5023ZM46.5023 40.4079V41.2859H45.6242V40.4079H46.5023ZM47.3803 40.4079V41.2859H46.5023V40.4079H47.3803ZM47.3803 41.2859V42.164H46.5023V41.2859H47.3803ZM48.2584 41.2859V42.164H47.3803V41.2859H48.2584ZM48.2584 42.164V43.042H47.3803V42.164H48.2584ZM48.2584 43.042V43.9201H47.3803V43.042H48.2584ZM47.3803 42.164V43.042H46.5023V42.164H47.3803ZM46.5023 41.2859V42.164H45.6242V41.2859H46.5023ZM45.6242 40.4079V41.2859H44.7462V40.4079H45.6242ZM50.0145 41.2859V42.164H49.1364V41.2859H50.0145ZM50.0145 42.164V43.042H49.1364V42.164H50.0145ZM50.0145 43.042V43.9201H49.1364V43.042H50.0145ZM50.0145 43.9201V44.7981H49.1364V43.9201H50.0145ZM50.0145 44.7981V45.6762H49.1364V44.7981H50.0145ZM50.0145 45.6762V46.5542H49.1364V45.6762H50.0145ZM50.0145 46.5542V47.4323H49.1364V46.5542H50.0145Z" fill="black"/>
</svg>
