<svg xmlns="http://www.w3.org/2000/svg" fill="none" viewBox="0 0 96 96" id="Aws-Redshift--Streamline-Svg-Logos" height="24" width="24">
  <desc>
    Aws Redshift Streamline Icon: https://streamlinehq.com
  </desc>
  <path fill="url(#a)" d="M95 1H1v94h94V1Z"></path>
  <path fill="#ffffff" d="M60.7192 42.3254c-1.2453 0-2.257-1.0098-2.257-2.2516 0-1.2417 1.0117-2.2527 2.257-2.2527 1.2442 0 2.2559 1.011 2.2559 2.2527 0 1.2418-1.0117 2.2516-2.2559 2.2516Zm-5.7171 13.6935c-1.2441 0-2.2558-1.0098-2.2558-2.2516 0-1.2418 1.0117-2.2516 2.2558-2.2516 1.2441 0 2.2571 1.0098 2.2571 2.2516 0 1.2418-1.013 2.2516-2.2571 2.2516Zm-13.7206-2.282c-1.2429 0-2.2546-1.0099-2.2546-2.2516 0-1.2418 1.0117-2.2528 2.2546-2.2528 1.2453 0 2.2571 1.011 2.2571 2.2528 0 1.2417-1.0118 2.2516-2.2571 2.2516Zm-5.7159 12.5524c-1.243 0-2.2559-1.0098-2.2559-2.2516 0-1.2417 1.0129-2.2516 2.2559-2.2516 1.2453 0 2.257 1.0099 2.257 2.2516 0 1.2418-1.0117 2.2516-2.257 2.2516Zm25.1536-30.8112c-2.5387 0-4.6044 2.0618-4.6044 4.5957 0 1.5534.7805 2.9229 1.9671 3.7558l-2.1479 5.438c-.3016-.062-.6138-.0948-.9319-.0948-2.0187 0-3.7194 1.312-4.338 3.122l-4.8063-1.0907c-.1491-2.4004-2.1326-4.3146-4.5763-4.3146-2.5375 0-4.6021 2.0618-4.6021 4.5958 0 1.1843.4625 2.2551 1.2031 3.0704l-2.0974 4.9097c-.0751-.0047-.1444-.0222-.2195-.0222-2.5375 0-4.6033 2.0606-4.6033 4.5945 0 2.5328 2.0658 4.5946 4.6033 4.5946 2.5387 0 4.6044-2.0618 4.6044-4.5946 0-1.626-.8544-3.0482-2.1349-3.8659l1.8509-4.3309c.4437.1417.9061.2389 1.3955.2389 1.8111 0 3.3662-1.0578 4.1162-2.5772l5.0915 1.1551c.4167 2.1086 2.2805 3.7042 4.5129 3.7042 2.5387 0 4.6045-2.0607 4.6045-4.5946 0-1.3694-.6162-2.5866-1.5716-3.4301l2.257-5.7122c.1432.0141.2805.0434.4272.0434 2.5376 0 4.6033-2.0618 4.6033-4.5946 0-2.5339-2.0657-4.5957-4.6033-4.5957Zm-12.7194 43.079c-11.4342 0-19.9776-3.4324-19.9776-6.5017V28.2032c3.8897 3.1606 12.1232 4.8312 20.0023 4.8312 7.8438 0 16.0421-1.6565 19.9529-4.7902v43.8112c0 3.0693-8.5446 6.5017-19.9776 6.5017Zm.0247-61.114c11.7581 0 19.9529 3.491 19.9529 6.6247 0 3.1326-8.1948 6.6236-19.9529 6.6236-11.7594 0-19.953-3.491-19.953-6.6236 0-3.1337 8.1936-6.6247 19.953-6.6247Zm22.3003 6.6247c0-5.8246-11.4894-8.9677-22.3003-8.9677-10.811 0-22.3004 3.1431-22.3004 8.9677 0 .0094.0023.0199.0023.0293h-.0516v47.9583c0 5.745 11.5023 8.8447 22.325 8.8447s22.325-3.0997 22.325-8.8447V24.0971h-.0023c0-.0094.0023-.0199.0023-.0293Z"></path>
  <defs>
    <linearGradient id="a" x1="1" x2="9401" y1="9401" y2="1" gradientUnits="userSpaceOnUse">
      <stop stop-color="#4d27a8"></stop>
      <stop offset="1" stop-color="#a166ff"></stop>
    </linearGradient>
  </defs>
</svg>