<svg width="50" height="30" viewBox="0 0 50 30" fill="none" xmlns="http://www.w3.org/2000/svg">
<g clip-path="url(#clip0_21746_21199)">
<path d="M14.0935 10.8591C14.0935 11.4744 14.16 11.9733 14.2764 12.3391C14.4094 12.705 14.5757 13.1041 14.8085 13.5364C14.8917 13.6695 14.9249 13.8025 14.9249 13.9189C14.9249 14.0852 14.8252 14.2515 14.609 14.4178L13.5613 15.1162C13.4117 15.216 13.262 15.2659 13.1289 15.2659C12.9627 15.2659 12.7964 15.1828 12.6301 15.0331C12.3972 14.7837 12.1977 14.5176 12.0314 14.2515C11.8651 13.9688 11.6988 13.6528 11.5159 13.2704C10.2188 14.8003 8.58909 15.5652 6.6268 15.5652C5.22992 15.5652 4.11574 15.1661 3.3009 14.3679C2.48605 13.5697 2.07031 12.5054 2.07031 11.175C2.07031 9.76153 2.5692 8.61409 3.5836 7.74936C4.598 6.88462 5.94499 6.45226 7.65783 6.45226C8.22324 6.45226 8.80527 6.50215 9.42056 6.58529C10.0359 6.66844 10.6678 6.80148 11.333 6.95114V5.73719C11.333 4.47334 11.0669 3.59198 10.5514 3.07646C10.0192 2.56095 9.12123 2.3115 7.84076 2.3115C7.25873 2.3115 6.66006 2.37802 6.04477 2.52769C5.42948 2.67735 4.83081 2.86028 4.24878 3.09309C3.98271 3.2095 3.78315 3.27602 3.66675 3.30928C3.55034 3.34253 3.46719 3.35916 3.40067 3.35916C3.16786 3.35916 3.05145 3.19287 3.05145 2.84365V2.0288C3.05145 1.76273 3.08471 1.56318 3.16786 1.44677C3.25101 1.33036 3.40067 1.21396 3.63349 1.09755C4.21552 0.798217 4.91396 0.548774 5.72881 0.34922C6.54366 0.133036 7.40839 0.0332591 8.32301 0.0332591C10.3019 0.0332591 11.7487 0.482256 12.68 1.38025C13.5946 2.27825 14.0602 3.64187 14.0602 5.47111V10.8591H14.0935ZM7.34187 13.3868C7.89065 13.3868 8.45605 13.287 9.05471 13.0874C9.65338 12.8879 10.1855 12.522 10.6345 12.0231C10.9006 11.7072 11.1001 11.358 11.1999 10.9589C11.2997 10.5598 11.3662 10.0775 11.3662 9.51209V8.81365C10.884 8.69724 10.3684 8.59747 9.8363 8.53095C9.30416 8.46443 8.78864 8.43117 8.27313 8.43117C7.15895 8.43117 6.3441 8.64735 5.79533 9.09635C5.24655 9.54535 4.98048 10.1773 4.98048 11.0087C4.98048 11.7903 5.18003 12.3724 5.59577 12.7715C5.99488 13.1872 6.57691 13.3868 7.34187 13.3868ZM20.6954 15.1828C20.3961 15.1828 20.1965 15.1329 20.0635 15.0165C19.9304 14.9167 19.814 14.6839 19.7142 14.3679L15.8063 1.51329C15.7065 1.1807 15.6566 0.964513 15.6566 0.848106C15.6566 0.582033 15.7897 0.432368 16.0557 0.432368H17.6854C18.0014 0.432368 18.2176 0.482256 18.334 0.598663C18.467 0.69844 18.5668 0.931254 18.6666 1.24721L21.4603 12.256L24.0545 1.24721C24.1377 0.914624 24.2375 0.69844 24.3705 0.598663C24.5035 0.498886 24.7364 0.432368 25.0357 0.432368H26.3661C26.682 0.432368 26.8982 0.482256 27.0312 0.598663C27.1643 0.69844 27.2807 0.931254 27.3472 1.24721L29.9747 12.389L32.8516 1.24721C32.9513 0.914624 33.0678 0.69844 33.1842 0.598663C33.3172 0.498886 33.5334 0.432368 33.8327 0.432368H35.3793C35.6453 0.432368 35.795 0.565404 35.795 0.848106C35.795 0.931254 35.7784 1.0144 35.7617 1.11418C35.7451 1.21396 35.7118 1.34699 35.6453 1.52992L31.6376 14.3845C31.5378 14.7171 31.4214 14.9333 31.2884 15.0331C31.1554 15.1329 30.9392 15.1994 30.6565 15.1994H29.2263C28.9104 15.1994 28.6942 15.1495 28.5611 15.0331C28.4281 14.9167 28.3117 14.7005 28.2452 14.3679L25.6676 3.64187L23.1067 14.3513C23.0235 14.6839 22.9237 14.9001 22.7907 15.0165C22.6577 15.1329 22.4249 15.1828 22.1255 15.1828H20.6954ZM42.0643 15.6318C41.1996 15.6318 40.3349 15.532 39.5034 15.3324C38.6719 15.1329 38.0234 14.9167 37.591 14.6672C37.3249 14.5176 37.142 14.3513 37.0755 14.2016C37.0089 14.052 36.9757 13.8857 36.9757 13.736V12.8879C36.9757 12.5387 37.1087 12.3724 37.3582 12.3724C37.4579 12.3724 37.5577 12.389 37.6575 12.4223C37.7573 12.4555 37.9069 12.522 38.0732 12.5886C38.6386 12.838 39.2539 13.0375 39.9025 13.1706C40.5677 13.3036 41.2162 13.3701 41.8814 13.3701C42.9291 13.3701 43.7439 13.1872 44.3093 12.8214C44.8747 12.4555 45.174 11.9234 45.174 11.2416C45.174 10.7759 45.0244 10.3935 44.7251 10.0775C44.4257 9.76153 43.8603 9.47883 43.0455 9.21276L40.6342 8.46443C39.4202 8.08195 38.5222 7.51655 37.9735 6.76822C37.4247 6.03652 37.142 5.22167 37.142 4.35694C37.142 3.6585 37.2917 3.0432 37.591 2.51106C37.8903 1.97891 38.2894 1.51329 38.7883 1.14744C39.2872 0.764958 39.8526 0.482256 40.5178 0.282702C41.183 0.0831476 41.8814 0 42.6131 0C42.979 0 43.3614 0.0166295 43.7273 0.0665181C44.1098 0.116407 44.459 0.182925 44.8082 0.249443C45.1408 0.332591 45.4568 0.415738 45.7561 0.515515C46.0554 0.615293 46.2882 0.71507 46.4545 0.814847C46.6873 0.947883 46.8536 1.08092 46.9534 1.23059C47.0532 1.36362 47.1031 1.54655 47.1031 1.77936V2.56095C47.1031 2.91017 46.97 3.09309 46.7206 3.09309C46.5876 3.09309 46.3714 3.02657 46.0887 2.89354C45.1408 2.46117 44.0765 2.24499 42.8958 2.24499C41.9479 2.24499 41.1996 2.39465 40.6841 2.71061C40.1686 3.02657 39.9025 3.50883 39.9025 4.19064C39.9025 4.65627 40.0688 5.05538 40.4014 5.37134C40.734 5.6873 41.3493 6.00326 42.2306 6.28596L44.592 7.03429C45.7893 7.41677 46.6541 7.94891 47.1696 8.63073C47.6851 9.31254 47.9346 10.0941 47.9346 10.9589C47.9346 11.6739 47.7849 12.3225 47.5022 12.8879C47.2029 13.4533 46.8037 13.9522 46.2882 14.3513C45.7727 14.767 45.1574 15.0664 44.4424 15.2825C43.694 15.5153 42.9124 15.6318 42.0643 15.6318Z" fill="#8D95A1"/>
<path d="M45.2044 23.7139C39.7333 27.7549 31.7844 29.9001 24.9496 29.9001C15.371 29.9001 6.74028 26.358 0.221508 20.4712C-0.294007 20.0055 0.17162 19.3736 0.786912 19.7395C7.83783 23.8303 16.5351 26.3081 25.5316 26.3081C31.6014 26.3081 38.2699 25.0443 44.4062 22.4501C45.3208 22.0343 46.1024 23.0487 45.2044 23.7139ZM47.4826 21.1197C46.7842 20.2217 42.8596 20.6873 41.0803 20.9035C40.5481 20.97 40.465 20.5044 40.9472 20.1552C44.0736 17.9601 49.2121 18.592 49.8108 19.3237C50.4094 20.0721 49.6445 25.2106 46.7177 27.6717C46.2687 28.0542 45.8363 27.8547 46.0359 27.3558C46.701 25.7095 48.1811 22.0011 47.4826 21.1197Z" fill="#FF9900"/>
</g>
<defs>
<clipPath id="clip0_21746_21199">
<rect width="50" height="29.8999" fill="white"/>
</clipPath>
</defs>
</svg>
