<svg width="224" height="51" viewBox="0 0 224 51" fill="none" xmlns="http://www.w3.org/2000/svg">
<path d="M31.0543 0.787109H31.6552L41.4777 5.74964L41.6404 5.98405V45.5942L41.4777 45.8286L31.6572 50.7871H31.0483L31.0543 0.787109Z" fill="#5294CF"/>
<path d="M18.2709 0.787109H17.6601L7.84544 5.74964L7.64713 6.09624L7.54599 45.3918L7.84544 45.8286L17.6621 50.7871H18.2808L18.2709 0.787109Z" fill="#1F5B98"/>
<path d="M17.6779 50.7871H31.6473V0.787109H17.6779V50.7871Z" fill="#2D72B8"/>
<path d="M46.622 26.91L46.2909 26.9842L41.5511 27.4309L41.4817 27.3949L31.6492 27.7916H17.6799L7.84743 27.3949V34.9699L7.83751 34.9639L7.84743 34.9859L17.6799 37.2879H31.6473L41.4797 34.9859L45.095 33.0446V34.2927L46.622 34.461L46.4634 34.7736L41.6265 38.2676L41.4797 38.2195L31.6473 41.2968H17.6779L7.84544 38.2195L7.84544 45.8286L2.70312 39.7441V34.429L2.74279 34.459L4.23015 34.2947V33.0205L2.70312 32.1951V26.906L2.74279 26.91L4.23015 26.888V24.6682L2.94705 24.6482L2.70312 24.6722V19.3811L4.23015 18.5517V17.2634L2.76658 17.1012L2.70312 17.1493V11.8361L7.84544 5.74964L7.84544 13.3587L17.6779 10.2814H31.6473L41.5075 13.3688L41.6384 13.3106L46.4118 16.7526L46.6201 17.0952L45.093 17.2655V18.5276L44.8927 18.6078L41.6265 16.8287L41.5075 16.5783L31.6473 14.2903V14.2883H17.6779V14.2903L7.84544 16.5883V24.1894L17.6779 23.7927V23.7827H31.6473L41.4797 24.1874L41.7038 24.0832L46.2988 24.4819L46.622 24.6421L45.095 24.6642V26.884L46.622 26.91Z" fill="#1A476F"/>
<path d="M41.4797 13.3587V5.74964L46.622 11.8361V17.1152L41.5095 13.3667L41.4797 13.3587ZM41.4797 16.5723L41.5095 16.5783L46.622 19.357V24.6682L41.4797 24.1914V16.5723ZM41.5095 34.9799L41.4797 34.9859L41.4797 27.3949L46.622 26.91L46.622 32.2192L41.5095 34.9799ZM41.5095 38.1894L46.622 34.463V39.7421L41.4797 45.8286L41.4797 38.2195L41.5095 38.2095V38.1894Z" fill="#2D72B8"/>
<path d="M72.358 32.7871H70.5114L75.8523 18.2417H77.6705L83.0114 32.7871H81.1648L76.8182 20.5428H76.7045L72.358 32.7871ZM73.0398 27.1053H80.483V28.6678H73.0398V27.1053ZM86.7862 32.7871L82.8089 18.2417H84.5987L87.6385 30.0882H87.7805L90.8771 18.2417H92.8658L95.9624 30.0882H96.1044L99.1442 18.2417H100.934L96.9567 32.7871H95.1385L91.9283 21.1962H91.8146L88.6044 32.7871H86.7862ZM111.083 21.878C110.998 21.1583 110.652 20.5996 110.046 20.2019C109.44 19.8042 108.697 19.6053 107.816 19.6053C107.172 19.6053 106.609 19.7095 106.126 19.9178C105.647 20.1261 105.273 20.4126 105.004 20.7772C104.738 21.1417 104.606 21.556 104.606 22.0201C104.606 22.4083 104.698 22.7421 104.883 23.0215C105.072 23.2961 105.314 23.5257 105.607 23.7104C105.901 23.8903 106.209 24.0395 106.531 24.1578C106.853 24.2715 107.148 24.3638 107.418 24.4348L108.896 24.8326C109.274 24.932 109.696 25.0693 110.16 25.2445C110.629 25.4197 111.076 25.6588 111.502 25.9618C111.933 26.2601 112.288 26.6436 112.567 27.1124C112.847 27.5811 112.987 28.1564 112.987 28.8382C112.987 29.6242 112.781 30.3345 112.369 30.9689C111.961 31.6034 111.365 32.1077 110.579 32.4817C109.798 32.8558 108.848 33.0428 107.731 33.0428C106.689 33.0428 105.787 32.8747 105.025 32.5385C104.267 32.2024 103.671 31.7336 103.235 31.1323C102.804 30.531 102.56 29.8326 102.504 29.0371H104.322C104.369 29.5864 104.554 30.0409 104.876 30.4007C105.202 30.7559 105.614 31.021 106.112 31.1962C106.613 31.3667 107.153 31.4519 107.731 31.4519C108.403 31.4519 109.007 31.343 109.542 31.1252C110.077 30.9026 110.501 30.5949 110.813 30.2019C111.126 29.8042 111.282 29.3401 111.282 28.8098C111.282 28.3269 111.147 27.9339 110.877 27.6309C110.607 27.3278 110.252 27.0816 109.812 26.8922C109.371 26.7028 108.896 26.5371 108.384 26.3951L106.594 25.8837C105.458 25.557 104.558 25.0906 103.896 24.4846C103.233 23.8785 102.901 23.0854 102.901 22.1053C102.901 21.2909 103.121 20.5807 103.562 19.9746C104.007 19.3638 104.603 18.8903 105.352 18.5542C106.104 18.2132 106.945 18.0428 107.873 18.0428C108.81 18.0428 109.644 18.2109 110.373 18.5471C111.102 18.8785 111.68 19.333 112.106 19.9107C112.537 20.4883 112.764 21.1441 112.788 21.878H111.083ZM125.996 32.7871H121.507V18.2417H126.195C127.606 18.2417 128.813 18.5328 129.817 19.1152C130.821 19.6929 131.59 20.5239 132.125 21.6081C132.66 22.6877 132.928 23.9803 132.928 25.486C132.928 27.0011 132.658 28.3056 132.118 29.3993C131.578 30.4883 130.792 31.3264 129.76 31.9135C128.728 32.4959 127.473 32.7871 125.996 32.7871ZM123.269 31.2246H125.882C127.085 31.2246 128.082 30.9926 128.873 30.5286C129.663 30.0646 130.253 29.4041 130.641 28.5471C131.029 27.69 131.223 26.6697 131.223 25.486C131.223 24.3117 131.032 23.3008 130.648 22.4533C130.265 21.601 129.692 20.9476 128.929 20.4931C128.167 20.0338 127.218 19.8042 126.081 19.8042H123.269V31.2246ZM136.735 36.878C136.451 36.878 136.197 36.8543 135.975 36.807C135.752 36.7644 135.598 36.7218 135.513 36.6792L135.939 35.2019C136.346 35.306 136.706 35.3439 137.019 35.3155C137.331 35.2871 137.608 35.1474 137.85 34.8965C138.096 34.6503 138.321 34.2502 138.525 33.6962L138.837 32.8439L134.803 21.878H136.621L139.632 30.5712H139.746L142.757 21.878H144.576L139.945 34.378C139.737 34.9415 139.479 35.4078 139.171 35.7772C138.863 36.1512 138.506 36.4282 138.098 36.6081C137.696 36.7881 137.241 36.878 136.735 36.878ZM148.464 26.2246V32.7871H146.788V21.878H148.407V23.5826H148.549C148.805 23.0286 149.193 22.5835 149.714 22.2473C150.235 21.9064 150.907 21.736 151.731 21.736C152.47 21.736 153.116 21.8875 153.67 22.1905C154.224 22.4888 154.655 22.9434 154.963 23.5542C155.27 24.1602 155.424 24.9273 155.424 25.8553V32.7871H153.748V25.9689C153.748 25.1119 153.526 24.4443 153.081 23.9661C152.636 23.4831 152.025 23.2417 151.248 23.2417C150.713 23.2417 150.235 23.3577 149.814 23.5897C149.397 23.8217 149.068 24.1602 148.826 24.6053C148.585 25.0504 148.464 25.5901 148.464 26.2246ZM161.697 33.0428C161.006 33.0428 160.379 32.9126 159.815 32.6522C159.252 32.387 158.804 32.0059 158.473 31.5087C158.142 31.0068 157.976 30.4007 157.976 29.6905C157.976 29.0655 158.099 28.5589 158.345 28.1706C158.591 27.7776 158.92 27.4699 159.332 27.2473C159.744 27.0248 160.199 26.8591 160.696 26.7502C161.198 26.6365 161.702 26.5466 162.209 26.4803C162.872 26.3951 163.409 26.3311 163.821 26.2885C164.238 26.2412 164.541 26.1631 164.73 26.0542C164.924 25.9453 165.021 25.7559 165.021 25.486V25.4292C165.021 24.7284 164.83 24.1839 164.446 23.7956C164.067 23.4074 163.492 23.2132 162.72 23.2132C161.92 23.2132 161.293 23.3884 160.838 23.7388C160.384 24.0892 160.064 24.4632 159.879 24.861L158.288 24.2928C158.572 23.6299 158.951 23.1138 159.425 22.7445C159.903 22.3704 160.424 22.11 160.987 21.9632C161.555 21.8117 162.114 21.736 162.663 21.736C163.014 21.736 163.416 21.7786 163.871 21.8638C164.33 21.9443 164.773 22.1124 165.199 22.3681C165.63 22.6238 165.987 23.0096 166.271 23.5257C166.555 24.0418 166.697 24.7331 166.697 25.5996V32.7871H165.021V31.3098H164.936C164.822 31.5466 164.633 31.7999 164.368 32.0698C164.103 32.3397 163.75 32.5693 163.31 32.7587C162.869 32.9481 162.332 33.0428 161.697 33.0428ZM161.953 31.5371C162.616 31.5371 163.175 31.4069 163.629 31.1465C164.089 30.8861 164.434 30.5499 164.666 30.138C164.903 29.726 165.021 29.2928 165.021 28.8382V27.3042C164.95 27.3894 164.794 27.4675 164.553 27.5385C164.316 27.6048 164.041 27.664 163.729 27.7161C163.421 27.7634 163.12 27.806 162.827 27.8439C162.538 27.8771 162.304 27.9055 162.124 27.9292C161.688 27.986 161.281 28.0783 160.902 28.2061C160.528 28.3292 160.225 28.5163 159.993 28.7672C159.766 29.0134 159.652 29.3496 159.652 29.7757C159.652 30.3581 159.867 30.7985 160.298 31.0968C160.734 31.3903 161.286 31.5371 161.953 31.5371ZM169.757 32.7871V21.878H171.376V23.5826H171.518C171.745 23.0002 172.112 22.548 172.619 22.226C173.126 21.8993 173.734 21.736 174.444 21.736C175.164 21.736 175.763 21.8993 176.241 22.226C176.724 22.548 177.1 23.0002 177.37 23.5826H177.484C177.763 23.0191 178.182 22.5717 178.741 22.2402C179.3 21.9041 179.97 21.736 180.751 21.736C181.726 21.736 182.524 22.0414 183.145 22.6522C183.765 23.2582 184.075 24.2028 184.075 25.486V32.7871H182.399V25.486C182.399 24.681 182.179 24.1058 181.738 23.7601C181.298 23.4145 180.779 23.2417 180.183 23.2417C179.416 23.2417 178.822 23.4737 178.4 23.9377C177.979 24.397 177.768 24.9793 177.768 25.6848V32.7871H176.064V25.3155C176.064 24.6953 175.862 24.1957 175.46 23.8169C175.057 23.4334 174.539 23.2417 173.904 23.2417C173.469 23.2417 173.062 23.3577 172.683 23.5897C172.309 23.8217 172.006 24.1436 171.774 24.5556C171.547 24.9628 171.433 25.4339 171.433 25.9689V32.7871H169.757ZM191.571 33.0144C190.587 33.0144 189.722 32.78 188.979 32.3113C188.24 31.8425 187.663 31.1867 187.246 30.3439C186.834 29.5011 186.628 28.5163 186.628 27.3894C186.628 26.253 186.834 25.2611 187.246 24.4135C187.663 23.566 188.24 22.9078 188.979 22.4391C189.722 21.9703 190.587 21.736 191.571 21.736C192.556 21.736 193.418 21.9703 194.157 22.4391C194.9 22.9078 195.478 23.566 195.89 24.4135C196.306 25.2611 196.515 26.253 196.515 27.3894C196.515 28.5163 196.306 29.5011 195.89 30.3439C195.478 31.1867 194.9 31.8425 194.157 32.3113C193.418 32.78 192.556 33.0144 191.571 33.0144ZM191.571 31.5087C192.319 31.5087 192.935 31.3169 193.418 30.9334C193.901 30.5499 194.258 30.0456 194.49 29.4206C194.722 28.7956 194.838 28.1185 194.838 27.3894C194.838 26.6602 194.722 25.9808 194.49 25.351C194.258 24.7213 193.901 24.2123 193.418 23.824C192.935 23.4358 192.319 23.2417 191.571 23.2417C190.823 23.2417 190.208 23.4358 189.725 23.824C189.242 24.2123 188.884 24.7213 188.652 25.351C188.42 25.9808 188.304 26.6602 188.304 27.3894C188.304 28.1185 188.42 28.7956 188.652 29.4206C188.884 30.0456 189.242 30.5499 189.725 30.9334C190.208 31.3169 190.823 31.5087 191.571 31.5087ZM203.789 32.7871H199.3V18.2417H203.988C205.399 18.2417 206.606 18.5328 207.61 19.1152C208.614 19.6929 209.383 20.5239 209.918 21.6081C210.453 22.6877 210.721 23.9803 210.721 25.486C210.721 27.0011 210.451 28.3056 209.911 29.3993C209.371 30.4883 208.585 31.3264 207.553 31.9135C206.521 32.4959 205.266 32.7871 203.789 32.7871ZM201.062 31.2246H203.675C204.878 31.2246 205.875 30.9926 206.665 30.5286C207.456 30.0646 208.046 29.4041 208.434 28.5471C208.822 27.69 209.016 26.6697 209.016 25.486C209.016 24.3117 208.825 23.3008 208.441 22.4533C208.058 21.601 207.485 20.9476 206.722 20.4931C205.96 20.0338 205.011 19.8042 203.874 19.8042H201.062V31.2246ZM213.675 32.7871V18.2417H218.761C219.774 18.2417 220.61 18.4168 221.268 18.7672C221.926 19.1129 222.416 19.5792 222.738 20.1664C223.06 20.7488 223.221 21.3951 223.221 22.1053C223.221 22.7303 223.11 23.2464 222.887 23.6536C222.669 24.0608 222.38 24.3828 222.021 24.6195C221.665 24.8562 221.28 25.0314 220.863 25.1451V25.2871C221.308 25.3155 221.755 25.4718 222.205 25.7559C222.655 26.04 223.031 26.4471 223.335 26.9775C223.638 27.5078 223.789 28.1564 223.789 28.9235C223.789 29.6526 223.623 30.3084 223.292 30.8908C222.96 31.4732 222.437 31.9348 221.722 32.2757C221.007 32.6167 220.077 32.7871 218.931 32.7871H213.675ZM215.437 31.2246H218.931C220.082 31.2246 220.898 31.0021 221.381 30.557C221.869 30.1072 222.113 29.5627 222.113 28.9235C222.113 28.431 221.987 27.9765 221.737 27.5598C221.486 27.1384 221.128 26.8023 220.664 26.5513C220.2 26.2956 219.651 26.1678 219.016 26.1678H215.437V31.2246ZM215.437 24.6337H218.704C219.234 24.6337 219.712 24.5295 220.138 24.3212C220.569 24.1129 220.91 23.8193 221.161 23.4405C221.417 23.0617 221.545 22.6167 221.545 22.1053C221.545 21.4661 221.322 20.9239 220.877 20.4789C220.432 20.0291 219.727 19.8042 218.761 19.8042H215.437V24.6337Z" fill="white"/>
</svg>
