<svg width="491" height="51" viewBox="0 0 491 51" fill="none" xmlns="http://www.w3.org/2000/svg">
<path fill-rule="evenodd" clip-rule="evenodd" d="M11.667 16.4211L6.61328 15.7286V9.06543L13.4409 10.7842L11.667 16.4211Z" fill="#759C3E"/>
<path fill-rule="evenodd" clip-rule="evenodd" d="M12.0147 17.2773L2.02734 18.0911V11.1429L6.61278 9.06543L12.0147 17.2773ZM38.0469 16.4211L43.1006 15.7286V9.06543L36.2658 10.7842L38.0469 16.4211Z" fill="#4B612C"/>
<path fill-rule="evenodd" clip-rule="evenodd" d="M37.6914 17.2773L47.6788 18.0911V11.1429L43.1005 9.06543L37.6914 17.2773Z" fill="#759C3E"/>
<path fill-rule="evenodd" clip-rule="evenodd" d="M15.2078 5.16023L9.97995 14.8359L2.02734 16.9984V23.1752L11.238 41.1177L24.8534 50.7871L34.3119 40.0609V10.0621L24.8534 0.787109L15.2078 5.16023Z" fill="#4B612C"/>
<path fill-rule="evenodd" clip-rule="evenodd" d="M47.6796 23.1752V16.9984L39.7276 14.8359L34.4992 5.16023L24.8535 0.787109V10.7846V40.7896V50.7871L38.4689 41.1177L47.6796 23.1752Z" fill="#759C3E"/>
<path d="M72.358 32.7871H70.5114L75.8523 18.2417H77.6705L83.0114 32.7871H81.1648L76.8182 20.5428H76.7045L72.358 32.7871ZM73.0398 27.1053H80.483V28.6678H73.0398V27.1053ZM86.7862 32.7871L82.8089 18.2417H84.5987L87.6385 30.0882H87.7805L90.8771 18.2417H92.8658L95.9624 30.0882H96.1044L99.1442 18.2417H100.934L96.9567 32.7871H95.1385L91.9283 21.1962H91.8146L88.6044 32.7871H86.7862ZM111.083 21.878C110.998 21.1583 110.652 20.5996 110.046 20.2019C109.44 19.8042 108.697 19.6053 107.816 19.6053C107.172 19.6053 106.609 19.7095 106.126 19.9178C105.647 20.1261 105.273 20.4126 105.004 20.7772C104.738 21.1417 104.606 21.556 104.606 22.0201C104.606 22.4083 104.698 22.7421 104.883 23.0215C105.072 23.2961 105.314 23.5257 105.607 23.7104C105.901 23.8903 106.209 24.0395 106.531 24.1578C106.853 24.2715 107.148 24.3638 107.418 24.4348L108.896 24.8326C109.274 24.932 109.696 25.0693 110.16 25.2445C110.629 25.4197 111.076 25.6588 111.502 25.9618C111.933 26.2601 112.288 26.6436 112.567 27.1124C112.847 27.5811 112.987 28.1564 112.987 28.8382C112.987 29.6242 112.781 30.3345 112.369 30.9689C111.961 31.6034 111.365 32.1077 110.579 32.4817C109.798 32.8558 108.848 33.0428 107.731 33.0428C106.689 33.0428 105.787 32.8747 105.025 32.5385C104.267 32.2024 103.671 31.7336 103.235 31.1323C102.804 30.531 102.56 29.8326 102.504 29.0371H104.322C104.369 29.5864 104.554 30.0409 104.876 30.4007C105.202 30.7559 105.614 31.021 106.112 31.1962C106.613 31.3667 107.153 31.4519 107.731 31.4519C108.403 31.4519 109.007 31.343 109.542 31.1252C110.077 30.9026 110.501 30.5949 110.813 30.2019C111.126 29.8042 111.282 29.3401 111.282 28.8098C111.282 28.3269 111.147 27.9339 110.877 27.6309C110.607 27.3278 110.252 27.0816 109.812 26.8922C109.371 26.7028 108.896 26.5371 108.384 26.3951L106.594 25.8837C105.458 25.557 104.558 25.0906 103.896 24.4846C103.233 23.8785 102.901 23.0854 102.901 22.1053C102.901 21.2909 103.121 20.5807 103.562 19.9746C104.007 19.3638 104.603 18.8903 105.352 18.5542C106.104 18.2132 106.945 18.0428 107.873 18.0428C108.81 18.0428 109.644 18.2109 110.373 18.5471C111.102 18.8785 111.68 19.333 112.106 19.9107C112.537 20.4883 112.764 21.1441 112.788 21.878H111.083ZM123.269 18.2417V32.7871H121.507V18.2417H123.269ZM127.397 32.7871H125.55L130.891 18.2417H132.71L138.05 32.7871H136.204L131.857 20.5428H131.744L127.397 32.7871ZM128.079 27.1053H135.522V28.6678H128.079V27.1053ZM140.316 18.2417H142.418L147.362 30.3155H147.532L152.475 18.2417H154.577V32.7871H152.93V21.736H152.788L148.242 32.7871H146.651L142.106 21.736H141.964V32.7871H140.316V18.2417ZM164.103 25.5144C164.103 23.7246 164.335 22.0792 164.799 20.5783C165.268 19.0726 165.936 17.6877 166.802 16.4235H168.279C167.939 16.8922 167.619 17.4699 167.321 18.1564C167.027 18.8382 166.769 19.5887 166.547 20.4078C166.324 21.2222 166.149 22.065 166.021 22.9363C165.898 23.8075 165.836 24.6668 165.836 25.5144C165.836 26.6413 165.945 27.7847 166.163 28.9448C166.381 30.1048 166.674 31.182 167.044 32.1763C167.413 33.1706 167.825 33.9803 168.279 34.6053H166.802C165.936 33.3411 165.268 31.9585 164.799 30.4576C164.335 28.9519 164.103 27.3042 164.103 25.5144ZM172.741 18.2417V32.7871H170.98V18.2417H172.741ZM180.165 33.0144C179.256 33.0144 178.453 32.7847 177.757 32.3255C177.061 31.8614 176.517 31.208 176.124 30.3652C175.731 29.5177 175.534 28.5163 175.534 27.361C175.534 26.2151 175.731 25.2208 176.124 24.378C176.517 23.5352 177.064 22.8842 177.765 22.4249C178.465 21.9656 179.275 21.736 180.194 21.736C180.904 21.736 181.465 21.8543 181.877 22.0911C182.293 22.3231 182.611 22.5882 182.828 22.8865C183.051 23.1801 183.224 23.4216 183.347 23.611H183.489V18.2417H185.165V32.7871H183.546V31.111H183.347C183.224 31.3098 183.049 31.5608 182.821 31.8638C182.594 32.1621 182.27 32.4296 181.848 32.6664C181.427 32.8984 180.866 33.0144 180.165 33.0144ZM180.392 31.5087C181.065 31.5087 181.633 31.3335 182.097 30.9831C182.561 30.628 182.914 30.138 183.155 29.513C183.397 28.8832 183.517 28.1564 183.517 27.3326C183.517 26.5182 183.399 25.8056 183.162 25.1948C182.926 24.5792 182.575 24.101 182.111 23.7601C181.647 23.4145 181.074 23.2417 180.392 23.2417C179.682 23.2417 179.09 23.4239 178.617 23.7885C178.148 24.1484 177.795 24.6384 177.559 25.2587C177.327 25.8742 177.211 26.5655 177.211 27.3326C177.211 28.1091 177.329 28.8146 177.566 29.449C177.807 30.0788 178.162 30.5807 178.631 30.9547C179.105 31.324 179.692 31.5087 180.392 31.5087ZM193.042 33.0144C191.99 33.0144 191.084 32.7824 190.321 32.3184C189.564 31.8496 188.979 31.1962 188.567 30.3581C188.16 29.5153 187.956 28.5352 187.956 27.4178C187.956 26.3004 188.16 25.3155 188.567 24.4632C188.979 23.6062 189.552 22.9386 190.286 22.4604C191.025 21.9775 191.886 21.736 192.871 21.736C193.439 21.736 194 21.8307 194.554 22.0201C195.108 22.2095 195.613 22.5172 196.067 22.9434C196.522 23.3648 196.884 23.9235 197.154 24.6195C197.424 25.3155 197.559 26.1725 197.559 27.1905V27.9007H189.15V26.4519H195.854C195.854 25.8364 195.731 25.2871 195.485 24.8042C195.243 24.3212 194.898 23.94 194.448 23.6607C194.003 23.3813 193.477 23.2417 192.871 23.2417C192.203 23.2417 191.626 23.4074 191.138 23.7388C190.655 24.0655 190.283 24.4917 190.023 25.0172C189.763 25.5428 189.632 26.1062 189.632 26.7076V27.6735C189.632 28.4973 189.775 29.1957 190.059 29.7686C190.347 30.3368 190.748 30.7701 191.259 31.0684C191.77 31.3619 192.364 31.5087 193.042 31.5087C193.482 31.5087 193.88 31.4471 194.235 31.324C194.595 31.1962 194.905 31.0068 195.165 30.7559C195.426 30.5002 195.627 30.1829 195.769 29.8042L197.388 30.2587C197.218 30.8079 196.931 31.2909 196.529 31.7076C196.126 32.1195 195.629 32.4415 195.037 32.6735C194.445 32.9007 193.78 33.0144 193.042 33.0144ZM201.784 26.2246V32.7871H200.108V21.878H201.728V23.5826H201.87C202.125 23.0286 202.514 22.5835 203.034 22.2473C203.555 21.9064 204.228 21.736 205.051 21.736C205.79 21.736 206.436 21.8875 206.99 22.1905C207.544 22.4888 207.975 22.9434 208.283 23.5542C208.591 24.1602 208.745 24.9273 208.745 25.8553V32.7871H207.069V25.9689C207.069 25.1119 206.846 24.4443 206.401 23.9661C205.956 23.4831 205.345 23.2417 204.569 23.2417C204.033 23.2417 203.555 23.3577 203.134 23.5897C202.717 23.8217 202.388 24.1602 202.147 24.6053C201.905 25.0504 201.784 25.5901 201.784 26.2246ZM216.552 21.878V23.2985H210.898V21.878H216.552ZM212.546 19.2644H214.222V29.6621C214.222 30.1356 214.291 30.4907 214.428 30.7275C214.57 30.9595 214.75 31.1157 214.968 31.1962C215.191 31.272 215.425 31.3098 215.671 31.3098C215.856 31.3098 216.007 31.3004 216.126 31.2814C216.244 31.2578 216.339 31.2388 216.41 31.2246L216.751 32.7303C216.637 32.7729 216.478 32.8155 216.275 32.8581C216.071 32.9055 215.813 32.9292 215.501 32.9292C215.027 32.9292 214.563 32.8274 214.109 32.6238C213.659 32.4202 213.285 32.11 212.987 31.6934C212.693 31.2767 212.546 30.7511 212.546 30.1167V19.2644ZM219.073 32.7871V21.878H220.749V32.7871H219.073ZM219.925 20.0598C219.599 20.0598 219.317 19.9486 219.08 19.726C218.848 19.5035 218.732 19.236 218.732 18.9235C218.732 18.611 218.848 18.3435 219.08 18.1209C219.317 17.8984 219.599 17.7871 219.925 17.7871C220.252 17.7871 220.531 17.8984 220.763 18.1209C221 18.3435 221.119 18.611 221.119 18.9235C221.119 19.236 221 19.5035 220.763 19.726C220.531 19.9486 220.252 20.0598 219.925 20.0598ZM228.564 21.878V23.2985H222.91V21.878H228.564ZM224.558 19.2644H226.234V29.6621C226.234 30.1356 226.303 30.4907 226.44 30.7275C226.582 30.9595 226.762 31.1157 226.98 31.1962C227.202 31.272 227.437 31.3098 227.683 31.3098C227.868 31.3098 228.019 31.3004 228.137 31.2814C228.256 31.2578 228.35 31.2388 228.422 31.2246L228.762 32.7303C228.649 32.7729 228.49 32.8155 228.287 32.8581C228.083 32.9055 227.825 32.9292 227.512 32.9292C227.039 32.9292 226.575 32.8274 226.12 32.6238C225.671 32.4202 225.297 32.11 224.998 31.6934C224.705 31.2767 224.558 30.7511 224.558 30.1167V19.2644ZM232.164 36.878C231.88 36.878 231.627 36.8543 231.404 36.807C231.182 36.7644 231.028 36.7218 230.943 36.6792L231.369 35.2019C231.776 35.306 232.136 35.3439 232.449 35.3155C232.761 35.2871 233.038 35.1474 233.279 34.8965C233.526 34.6503 233.751 34.2502 233.954 33.6962L234.267 32.8439L230.233 21.878H232.051L235.062 30.5712H235.176L238.187 21.878H240.005L235.375 34.378C235.166 34.9415 234.908 35.4078 234.6 35.7772C234.293 36.1512 233.935 36.4282 233.528 36.6081C233.126 36.7881 232.671 36.878 232.164 36.878ZM251.053 33.0428C250.362 33.0428 249.734 32.9126 249.171 32.6522C248.607 32.387 248.16 32.0059 247.828 31.5087C247.497 31.0068 247.331 30.4007 247.331 29.6905C247.331 29.0655 247.454 28.5589 247.701 28.1706C247.947 27.7776 248.276 27.4699 248.688 27.2473C249.1 27.0248 249.554 26.8591 250.051 26.7502C250.553 26.6365 251.058 26.5466 251.564 26.4803C252.227 26.3951 252.765 26.3311 253.176 26.2885C253.593 26.2412 253.896 26.1631 254.086 26.0542C254.28 25.9453 254.377 25.7559 254.377 25.486V25.4292C254.377 24.7284 254.185 24.1839 253.801 23.7956C253.423 23.4074 252.847 23.2132 252.076 23.2132C251.275 23.2132 250.648 23.3884 250.194 23.7388C249.739 24.0892 249.419 24.4632 249.235 24.861L247.644 24.2928C247.928 23.6299 248.307 23.1138 248.78 22.7445C249.258 22.3704 249.779 22.11 250.343 21.9632C250.911 21.8117 251.47 21.736 252.019 21.736C252.369 21.736 252.772 21.7786 253.226 21.8638C253.685 21.9443 254.128 22.1124 254.554 22.3681C254.985 22.6238 255.343 23.0096 255.627 23.5257C255.911 24.0418 256.053 24.7331 256.053 25.5996V32.7871H254.377V31.3098H254.292C254.178 31.5466 253.989 31.7999 253.723 32.0698C253.458 32.3397 253.105 32.5693 252.665 32.7587C252.225 32.9481 251.687 33.0428 251.053 33.0428ZM251.309 31.5371C251.971 31.5371 252.53 31.4069 252.985 31.1465C253.444 30.8861 253.79 30.5499 254.022 30.138C254.258 29.726 254.377 29.2928 254.377 28.8382V27.3042C254.306 27.3894 254.15 27.4675 253.908 27.5385C253.671 27.6048 253.397 27.664 253.084 27.7161C252.776 27.7634 252.476 27.806 252.182 27.8439C251.893 27.8771 251.659 27.9055 251.479 27.9292C251.043 27.986 250.636 28.0783 250.257 28.2061C249.883 28.3292 249.58 28.5163 249.348 28.7672C249.121 29.0134 249.007 29.3496 249.007 29.7757C249.007 30.3581 249.223 30.7985 249.654 31.0968C250.089 31.3903 250.641 31.5371 251.309 31.5371ZM260.788 26.2246V32.7871H259.112V21.878H260.732V23.5826H260.874C261.129 23.0286 261.518 22.5835 262.038 22.2473C262.559 21.9064 263.232 21.736 264.055 21.736C264.794 21.736 265.44 21.8875 265.994 22.1905C266.548 22.4888 266.979 22.9434 267.287 23.5542C267.595 24.1602 267.749 24.9273 267.749 25.8553V32.7871H266.072V25.9689C266.072 25.1119 265.85 24.4443 265.405 23.9661C264.96 23.4831 264.349 23.2417 263.572 23.2417C263.037 23.2417 262.559 23.3577 262.138 23.5897C261.721 23.8217 261.392 24.1602 261.151 24.6053C260.909 25.0504 260.788 25.5901 260.788 26.2246ZM274.931 33.0144C274.022 33.0144 273.219 32.7847 272.523 32.3255C271.827 31.8614 271.283 31.208 270.89 30.3652C270.497 29.5177 270.3 28.5163 270.3 27.361C270.3 26.2151 270.497 25.2208 270.89 24.378C271.283 23.5352 271.829 22.8842 272.53 22.4249C273.231 21.9656 274.041 21.736 274.959 21.736C275.669 21.736 276.23 21.8543 276.642 22.0911C277.059 22.3231 277.376 22.5882 277.594 22.8865C277.817 23.1801 277.989 23.4216 278.113 23.611H278.255V18.2417H279.931V32.7871H278.311V31.111H278.113C277.989 31.3098 277.814 31.5608 277.587 31.8638C277.36 32.1621 277.035 32.4296 276.614 32.6664C276.193 32.8984 275.632 33.0144 274.931 33.0144ZM275.158 31.5087C275.83 31.5087 276.399 31.3335 276.863 30.9831C277.327 30.628 277.679 30.138 277.921 29.513C278.162 28.8832 278.283 28.1564 278.283 27.3326C278.283 26.5182 278.165 25.8056 277.928 25.1948C277.691 24.5792 277.341 24.101 276.877 23.7601C276.413 23.4145 275.84 23.2417 275.158 23.2417C274.448 23.2417 273.856 23.4239 273.382 23.7885C272.914 24.1484 272.561 24.6384 272.324 25.2587C272.092 25.8742 271.976 26.5655 271.976 27.3326C271.976 28.1091 272.095 28.8146 272.331 29.449C272.573 30.0788 272.928 30.5807 273.397 30.9547C273.87 31.324 274.457 31.5087 275.158 31.5087ZM289.682 32.7871H287.836L293.176 18.2417H294.995L300.336 32.7871H298.489L294.142 20.5428H294.029L289.682 32.7871ZM290.364 27.1053H297.807V28.6678H290.364V27.1053ZM306.806 33.0144C305.783 33.0144 304.902 32.7729 304.164 32.29C303.425 31.807 302.857 31.1417 302.459 30.2942C302.061 29.4467 301.863 28.4784 301.863 27.3894C301.863 26.2814 302.066 25.3037 302.473 24.4561C302.885 23.6039 303.458 22.9386 304.192 22.4604C304.931 21.9775 305.792 21.736 306.777 21.736C307.544 21.736 308.236 21.878 308.851 22.1621C309.467 22.4462 309.971 22.8439 310.364 23.3553C310.757 23.8667 311.001 24.4632 311.096 25.1451H309.419C309.292 24.6479 309.007 24.2076 308.567 23.824C308.132 23.4358 307.544 23.2417 306.806 23.2417C306.152 23.2417 305.579 23.4121 305.087 23.753C304.599 24.0892 304.218 24.565 303.944 25.1806C303.674 25.7914 303.539 26.5087 303.539 27.3326C303.539 28.1754 303.671 28.9093 303.936 29.5343C304.206 30.1593 304.585 30.6446 305.073 30.9902C305.565 31.3359 306.143 31.5087 306.806 31.5087C307.241 31.5087 307.637 31.4329 307.992 31.2814C308.347 31.1299 308.648 30.9121 308.894 30.628C309.14 30.3439 309.315 30.003 309.419 29.6053H311.096C311.001 30.2492 310.766 30.8292 310.392 31.3453C310.023 31.8567 309.533 32.2639 308.922 32.5669C308.316 32.8652 307.611 33.0144 306.806 33.0144ZM317.978 33.0144C316.955 33.0144 316.074 32.7729 315.336 32.29C314.597 31.807 314.029 31.1417 313.631 30.2942C313.233 29.4467 313.034 28.4784 313.034 27.3894C313.034 26.2814 313.238 25.3037 313.645 24.4561C314.057 23.6039 314.63 22.9386 315.364 22.4604C316.103 21.9775 316.964 21.736 317.949 21.736C318.716 21.736 319.408 21.878 320.023 22.1621C320.639 22.4462 321.143 22.8439 321.536 23.3553C321.929 23.8667 322.173 24.4632 322.267 25.1451H320.591C320.463 24.6479 320.179 24.2076 319.739 23.824C319.303 23.4358 318.716 23.2417 317.978 23.2417C317.324 23.2417 316.751 23.4121 316.259 23.753C315.771 24.0892 315.39 24.565 315.115 25.1806C314.846 25.7914 314.711 26.5087 314.711 27.3326C314.711 28.1754 314.843 28.9093 315.108 29.5343C315.378 30.1593 315.757 30.6446 316.245 30.9902C316.737 31.3359 317.315 31.5087 317.978 31.5087C318.413 31.5087 318.809 31.4329 319.164 31.2814C319.519 31.1299 319.819 30.9121 320.066 30.628C320.312 30.3439 320.487 30.003 320.591 29.6053H322.267C322.173 30.2492 321.938 30.8292 321.564 31.3453C321.195 31.8567 320.705 32.2639 320.094 32.5669C319.488 32.8652 318.783 33.0144 317.978 33.0144ZM329.292 33.0144C328.24 33.0144 327.334 32.7824 326.571 32.3184C325.814 31.8496 325.229 31.1962 324.817 30.3581C324.41 29.5153 324.206 28.5352 324.206 27.4178C324.206 26.3004 324.41 25.3155 324.817 24.4632C325.229 23.6062 325.802 22.9386 326.536 22.4604C327.275 21.9775 328.136 21.736 329.121 21.736C329.689 21.736 330.25 21.8307 330.804 22.0201C331.358 22.2095 331.863 22.5172 332.317 22.9434C332.772 23.3648 333.134 23.9235 333.404 24.6195C333.674 25.3155 333.809 26.1725 333.809 27.1905V27.9007H325.4V26.4519H332.104C332.104 25.8364 331.981 25.2871 331.735 24.8042C331.493 24.3212 331.148 23.94 330.698 23.6607C330.253 23.3813 329.727 23.2417 329.121 23.2417C328.453 23.2417 327.876 23.4074 327.388 23.7388C326.905 24.0655 326.533 24.4917 326.273 25.0172C326.013 25.5428 325.882 26.1062 325.882 26.7076V27.6735C325.882 28.4973 326.025 29.1957 326.309 29.7686C326.597 30.3368 326.998 30.7701 327.509 31.0684C328.02 31.3619 328.614 31.5087 329.292 31.5087C329.732 31.5087 330.13 31.4471 330.485 31.324C330.845 31.1962 331.155 31.0068 331.415 30.7559C331.676 30.5002 331.877 30.1829 332.019 29.8042L333.638 30.2587C333.468 30.8079 333.181 31.2909 332.779 31.7076C332.376 32.1195 331.879 32.4415 331.287 32.6735C330.695 32.9007 330.03 33.0144 329.292 33.0144ZM344.086 24.3212L342.58 24.7473C342.485 24.4964 342.346 24.2525 342.161 24.0158C341.981 23.7743 341.735 23.5755 341.422 23.4192C341.11 23.263 340.71 23.1848 340.222 23.1848C339.554 23.1848 338.998 23.3387 338.553 23.6465C338.113 23.9495 337.892 24.3354 337.892 24.8042C337.892 25.2208 338.044 25.5499 338.347 25.7914C338.65 26.0328 339.123 26.2341 339.767 26.3951L341.387 26.7928C342.362 27.0295 343.089 27.3917 343.567 27.8794C344.045 28.3624 344.284 28.985 344.284 29.7473C344.284 30.3723 344.105 30.931 343.745 31.4235C343.39 31.9159 342.892 32.3042 342.253 32.5882C341.614 32.8723 340.871 33.0144 340.023 33.0144C338.91 33.0144 337.989 32.7729 337.26 32.29C336.531 31.807 336.069 31.1015 335.875 30.1735L337.466 29.7757C337.618 30.3629 337.904 30.8032 338.326 31.0968C338.752 31.3903 339.308 31.5371 339.995 31.5371C340.776 31.5371 341.396 31.3714 341.855 31.04C342.319 30.7038 342.551 30.3013 342.551 29.8326C342.551 29.4538 342.419 29.1365 342.154 28.8809C341.889 28.6204 341.481 28.4263 340.932 28.2985L339.114 27.8723C338.115 27.6356 337.381 27.2686 336.912 26.7715C336.448 26.2696 336.216 25.6422 336.216 24.8894C336.216 24.2739 336.389 23.7293 336.735 23.2559C337.085 22.7824 337.561 22.4107 338.162 22.1408C338.768 21.8709 339.455 21.736 340.222 21.736C341.301 21.736 342.149 21.9727 342.765 22.4462C343.385 22.9197 343.825 23.5447 344.086 24.3212ZM354.535 24.3212L353.029 24.7473C352.934 24.4964 352.795 24.2525 352.61 24.0158C352.43 23.7743 352.184 23.5755 351.871 23.4192C351.559 23.263 351.159 23.1848 350.671 23.1848C350.004 23.1848 349.447 23.3387 349.002 23.6465C348.562 23.9495 348.342 24.3354 348.342 24.8042C348.342 25.2208 348.493 25.5499 348.796 25.7914C349.099 26.0328 349.573 26.2341 350.217 26.3951L351.836 26.7928C352.811 27.0295 353.538 27.3917 354.016 27.8794C354.495 28.3624 354.734 28.985 354.734 29.7473C354.734 30.3723 354.554 30.931 354.194 31.4235C353.839 31.9159 353.342 32.3042 352.702 32.5882C352.063 32.8723 351.32 33.0144 350.472 33.0144C349.36 33.0144 348.439 32.7729 347.71 32.29C346.98 31.807 346.519 31.1015 346.325 30.1735L347.915 29.7757C348.067 30.3629 348.353 30.8032 348.775 31.0968C349.201 31.3903 349.757 31.5371 350.444 31.5371C351.225 31.5371 351.845 31.3714 352.305 31.04C352.769 30.7038 353.001 30.3013 353.001 29.8326C353.001 29.4538 352.868 29.1365 352.603 28.8809C352.338 28.6204 351.931 28.4263 351.381 28.2985L349.563 27.8723C348.564 27.6356 347.83 27.2686 347.362 26.7715C346.897 26.2696 346.665 25.6422 346.665 24.8894C346.665 24.2739 346.838 23.7293 347.184 23.2559C347.534 22.7824 348.01 22.4107 348.612 22.1408C349.218 21.8709 349.904 21.736 350.671 21.736C351.751 21.736 352.598 21.9727 353.214 22.4462C353.834 22.9197 354.274 23.5447 354.535 24.3212ZM363.109 18.2417H365.211L370.154 30.3155H370.325L375.268 18.2417H377.37V32.7871H375.723V21.736H375.581L371.035 32.7871H369.444L364.899 21.736H364.757V32.7871H363.109V18.2417ZM383.885 33.0428C383.194 33.0428 382.566 32.9126 382.003 32.6522C381.439 32.387 380.992 32.0059 380.661 31.5087C380.329 31.0068 380.163 30.4007 380.163 29.6905C380.163 29.0655 380.286 28.5589 380.533 28.1706C380.779 27.7776 381.108 27.4699 381.52 27.2473C381.932 27.0248 382.386 26.8591 382.884 26.7502C383.385 26.6365 383.89 26.5466 384.396 26.4803C385.059 26.3951 385.597 26.3311 386.009 26.2885C386.425 26.2412 386.728 26.1631 386.918 26.0542C387.112 25.9453 387.209 25.7559 387.209 25.486V25.4292C387.209 24.7284 387.017 24.1839 386.634 23.7956C386.255 23.4074 385.679 23.2132 384.908 23.2132C384.107 23.2132 383.48 23.3884 383.026 23.7388C382.571 24.0892 382.251 24.4632 382.067 24.861L380.476 24.2928C380.76 23.6299 381.139 23.1138 381.612 22.7445C382.09 22.3704 382.611 22.11 383.175 21.9632C383.743 21.8117 384.302 21.736 384.851 21.736C385.201 21.736 385.604 21.7786 386.058 21.8638C386.518 21.9443 386.96 22.1124 387.386 22.3681C387.817 22.6238 388.175 23.0096 388.459 23.5257C388.743 24.0418 388.885 24.7331 388.885 25.5996V32.7871H387.209V31.3098H387.124C387.01 31.5466 386.821 31.7999 386.555 32.0698C386.29 32.3397 385.938 32.5693 385.497 32.7587C385.057 32.9481 384.519 33.0428 383.885 33.0428ZM384.141 31.5371C384.804 31.5371 385.362 31.4069 385.817 31.1465C386.276 30.8861 386.622 30.5499 386.854 30.138C387.09 29.726 387.209 29.2928 387.209 28.8382V27.3042C387.138 27.3894 386.982 27.4675 386.74 27.5385C386.503 27.6048 386.229 27.664 385.916 27.7161C385.608 27.7634 385.308 27.806 385.014 27.8439C384.725 27.8771 384.491 27.9055 384.311 27.9292C383.875 27.986 383.468 28.0783 383.089 28.2061C382.715 28.3292 382.412 28.5163 382.18 28.7672C381.953 29.0134 381.839 29.3496 381.839 29.7757C381.839 30.3581 382.055 30.7985 382.486 31.0968C382.921 31.3903 383.473 31.5371 384.141 31.5371ZM393.62 26.2246V32.7871H391.944V21.878H393.564V23.5826H393.706C393.961 23.0286 394.35 22.5835 394.87 22.2473C395.391 21.9064 396.064 21.736 396.887 21.736C397.626 21.736 398.272 21.8875 398.826 22.1905C399.38 22.4888 399.811 22.9434 400.119 23.5542C400.427 24.1602 400.581 24.9273 400.581 25.8553V32.7871H398.904V25.9689C398.904 25.1119 398.682 24.4443 398.237 23.9661C397.792 23.4831 397.181 23.2417 396.404 23.2417C395.869 23.2417 395.391 23.3577 394.97 23.5897C394.553 23.8217 394.224 24.1602 393.983 24.6053C393.741 25.0504 393.62 25.5901 393.62 26.2246ZM406.854 33.0428C406.162 33.0428 405.535 32.9126 404.972 32.6522C404.408 32.387 403.961 32.0059 403.629 31.5087C403.298 31.0068 403.132 30.4007 403.132 29.6905C403.132 29.0655 403.255 28.5589 403.501 28.1706C403.748 27.7776 404.077 27.4699 404.489 27.2473C404.901 27.0248 405.355 26.8591 405.852 26.7502C406.354 26.6365 406.858 26.5466 407.365 26.4803C408.028 26.3951 408.565 26.3311 408.977 26.2885C409.394 26.2412 409.697 26.1631 409.886 26.0542C410.08 25.9453 410.178 25.7559 410.178 25.486V25.4292C410.178 24.7284 409.986 24.1839 409.602 23.7956C409.223 23.4074 408.648 23.2132 407.876 23.2132C407.076 23.2132 406.449 23.3884 405.994 23.7388C405.54 24.0892 405.22 24.4632 405.036 24.861L403.445 24.2928C403.729 23.6299 404.107 23.1138 404.581 22.7445C405.059 22.3704 405.58 22.11 406.143 21.9632C406.712 21.8117 407.27 21.736 407.82 21.736C408.17 21.736 408.572 21.7786 409.027 21.8638C409.486 21.9443 409.929 22.1124 410.355 22.3681C410.786 22.6238 411.143 23.0096 411.428 23.5257C411.712 24.0418 411.854 24.7331 411.854 25.5996V32.7871H410.178V31.3098H410.092C409.979 31.5466 409.789 31.7999 409.524 32.0698C409.259 32.3397 408.906 32.5693 408.466 32.7587C408.026 32.9481 407.488 33.0428 406.854 33.0428ZM407.109 31.5371C407.772 31.5371 408.331 31.4069 408.786 31.1465C409.245 30.8861 409.59 30.5499 409.822 30.138C410.059 29.726 410.178 29.2928 410.178 28.8382V27.3042C410.107 27.3894 409.95 27.4675 409.709 27.5385C409.472 27.6048 409.197 27.664 408.885 27.7161C408.577 27.7634 408.277 27.806 407.983 27.8439C407.694 27.8771 407.46 27.9055 407.28 27.9292C406.844 27.986 406.437 28.0783 406.058 28.2061C405.684 28.3292 405.381 28.5163 405.149 28.7672C404.922 29.0134 404.808 29.3496 404.808 29.7757C404.808 30.3581 405.024 30.7985 405.455 31.0968C405.89 31.3903 406.442 31.5371 407.109 31.5371ZM419.316 37.1053C418.507 37.1053 417.811 37.0011 417.228 36.7928C416.646 36.5892 416.161 36.3193 415.772 35.9831C415.389 35.6517 415.083 35.2966 414.856 34.9178L416.191 33.9803C416.343 34.1792 416.535 34.4064 416.767 34.6621C416.999 34.9225 417.316 35.1474 417.718 35.3368C418.126 35.531 418.658 35.628 419.316 35.628C420.197 35.628 420.924 35.415 421.497 34.9888C422.07 34.5627 422.356 33.8951 422.356 32.986V30.7701H422.214C422.091 30.9689 421.916 31.2151 421.689 31.5087C421.466 31.7975 421.144 32.0556 420.723 32.2828C420.306 32.5054 419.743 32.6167 419.032 32.6167C418.152 32.6167 417.361 32.4083 416.66 31.9917C415.964 31.575 415.413 30.9689 415.005 30.1735C414.603 29.378 414.402 28.4121 414.402 27.2757C414.402 26.1583 414.598 25.1853 414.991 24.3567C415.384 23.5234 415.931 22.8794 416.632 22.4249C417.333 21.9656 418.142 21.736 419.061 21.736C419.771 21.736 420.334 21.8543 420.751 22.0911C421.172 22.3231 421.494 22.5882 421.717 22.8865C421.944 23.1801 422.119 23.4216 422.243 23.611H422.413V21.878H424.032V33.0996C424.032 34.0371 423.819 34.7994 423.393 35.3865C422.972 35.9784 422.404 36.4116 421.689 36.6863C420.978 36.9656 420.188 37.1053 419.316 37.1053ZM419.26 31.111C419.932 31.111 420.5 30.9571 420.964 30.6493C421.428 30.3416 421.781 29.8989 422.022 29.3212C422.264 28.7435 422.385 28.0523 422.385 27.2473C422.385 26.4614 422.266 25.7677 422.029 25.1664C421.793 24.565 421.442 24.0939 420.978 23.753C420.514 23.4121 419.941 23.2417 419.26 23.2417C418.549 23.2417 417.958 23.4216 417.484 23.7814C417.015 24.1413 416.663 24.6242 416.426 25.2303C416.194 25.8364 416.078 26.5087 416.078 27.2473C416.078 28.0049 416.196 28.6749 416.433 29.2573C416.674 29.8349 417.029 30.2895 417.498 30.6209C417.972 30.9476 418.559 31.111 419.26 31.111ZM431.674 33.0144C430.623 33.0144 429.717 32.7824 428.954 32.3184C428.197 31.8496 427.612 31.1962 427.2 30.3581C426.793 29.5153 426.589 28.5352 426.589 27.4178C426.589 26.3004 426.793 25.3155 427.2 24.4632C427.612 23.6062 428.185 22.9386 428.919 22.4604C429.657 21.9775 430.519 21.736 431.504 21.736C432.072 21.736 432.633 21.8307 433.187 22.0201C433.741 22.2095 434.245 22.5172 434.7 22.9434C435.154 23.3648 435.517 23.9235 435.787 24.6195C436.056 25.3155 436.191 26.1725 436.191 27.1905V27.9007H427.782V26.4519H434.487C434.487 25.8364 434.364 25.2871 434.118 24.8042C433.876 24.3212 433.53 23.94 433.081 23.6607C432.636 23.3813 432.11 23.2417 431.504 23.2417C430.836 23.2417 430.259 23.4074 429.771 23.7388C429.288 24.0655 428.916 24.4917 428.656 25.0172C428.395 25.5428 428.265 26.1062 428.265 26.7076V27.6735C428.265 28.4973 428.407 29.1957 428.691 29.7686C428.98 30.3368 429.38 30.7701 429.892 31.0684C430.403 31.3619 430.997 31.5087 431.674 31.5087C432.115 31.5087 432.512 31.4471 432.868 31.324C433.227 31.1962 433.538 31.0068 433.798 30.7559C434.058 30.5002 434.26 30.1829 434.402 29.8042L436.021 30.2587C435.85 30.8079 435.564 31.2909 435.162 31.7076C434.759 32.1195 434.262 32.4415 433.67 32.6735C433.078 32.9007 432.413 33.0144 431.674 33.0144ZM438.741 32.7871V21.878H440.36V23.5826H440.502C440.73 23.0002 441.097 22.548 441.603 22.226C442.11 21.8993 442.718 21.736 443.429 21.736C444.148 21.736 444.747 21.8993 445.225 22.226C445.708 22.548 446.085 23.0002 446.355 23.5826H446.468C446.748 23.0191 447.167 22.5717 447.725 22.2402C448.284 21.9041 448.954 21.736 449.735 21.736C450.711 21.736 451.509 22.0414 452.129 22.6522C452.749 23.2582 453.059 24.2028 453.059 25.486V32.7871H451.383V25.486C451.383 24.681 451.163 24.1058 450.723 23.7601C450.282 23.4145 449.764 23.2417 449.167 23.2417C448.4 23.2417 447.806 23.4737 447.385 23.9377C446.963 24.397 446.752 24.9793 446.752 25.6848V32.7871H445.048V25.3155C445.048 24.6953 444.847 24.1957 444.444 23.8169C444.042 23.4334 443.523 23.2417 442.889 23.2417C442.453 23.2417 442.046 23.3577 441.667 23.5897C441.293 23.8217 440.99 24.1436 440.758 24.5556C440.531 24.9628 440.417 25.4339 440.417 25.9689V32.7871H438.741ZM460.698 33.0144C459.647 33.0144 458.74 32.7824 457.978 32.3184C457.22 31.8496 456.635 31.1962 456.223 30.3581C455.816 29.5153 455.613 28.5352 455.613 27.4178C455.613 26.3004 455.816 25.3155 456.223 24.4632C456.635 23.6062 457.208 22.9386 457.942 22.4604C458.681 21.9775 459.542 21.736 460.527 21.736C461.096 21.736 461.657 21.8307 462.211 22.0201C462.765 22.2095 463.269 22.5172 463.723 22.9434C464.178 23.3648 464.54 23.9235 464.81 24.6195C465.08 25.3155 465.215 26.1725 465.215 27.1905V27.9007H456.806V26.4519H463.51C463.51 25.8364 463.387 25.2871 463.141 24.8042C462.9 24.3212 462.554 23.94 462.104 23.6607C461.659 23.3813 461.133 23.2417 460.527 23.2417C459.86 23.2417 459.282 23.4074 458.794 23.7388C458.311 24.0655 457.94 24.4917 457.679 25.0172C457.419 25.5428 457.289 26.1062 457.289 26.7076V27.6735C457.289 28.4973 457.431 29.1957 457.715 29.7686C458.004 30.3368 458.404 30.7701 458.915 31.0684C459.426 31.3619 460.021 31.5087 460.698 31.5087C461.138 31.5087 461.536 31.4471 461.891 31.324C462.251 31.1962 462.561 31.0068 462.821 30.7559C463.082 30.5002 463.283 30.1829 463.425 29.8042L465.044 30.2587C464.874 30.8079 464.587 31.2909 464.185 31.7076C463.783 32.1195 463.285 32.4415 462.694 32.6735C462.102 32.9007 461.436 33.0144 460.698 33.0144ZM469.441 26.2246V32.7871H467.765V21.878H469.384V23.5826H469.526C469.782 23.0286 470.17 22.5835 470.691 22.2473C471.212 21.9064 471.884 21.736 472.708 21.736C473.446 21.736 474.093 21.8875 474.647 22.1905C475.201 22.4888 475.632 22.9434 475.939 23.5542C476.247 24.1602 476.401 24.9273 476.401 25.8553V32.7871H474.725V25.9689C474.725 25.1119 474.502 24.4443 474.057 23.9661C473.612 23.4831 473.001 23.2417 472.225 23.2417C471.69 23.2417 471.212 23.3577 470.79 23.5897C470.373 23.8217 470.044 24.1602 469.803 24.6053C469.561 25.0504 469.441 25.5901 469.441 26.2246ZM484.208 21.878V23.2985H478.555V21.878H484.208ZM480.202 19.2644H481.879V29.6621C481.879 30.1356 481.947 30.4907 482.085 30.7275C482.227 30.9595 482.406 31.1157 482.624 31.1962C482.847 31.272 483.081 31.3098 483.327 31.3098C483.512 31.3098 483.664 31.3004 483.782 31.2814C483.9 31.2578 483.995 31.2388 484.066 31.2246L484.407 32.7303C484.293 32.7729 484.135 32.8155 483.931 32.8581C483.728 32.9055 483.469 32.9292 483.157 32.9292C482.683 32.9292 482.219 32.8274 481.765 32.6238C481.315 32.4202 480.941 32.11 480.643 31.6934C480.349 31.2767 480.202 30.7511 480.202 30.1167V19.2644ZM490.309 26.6507C490.309 28.4405 490.075 30.0882 489.606 31.5939C489.142 33.0949 488.477 34.4775 487.61 35.7417H486.133C486.474 35.2729 486.791 34.6953 487.085 34.0087C487.383 33.3269 487.643 32.5788 487.866 31.7644C488.088 30.9453 488.261 30.1001 488.384 29.2289C488.512 28.3529 488.576 27.4935 488.576 26.6507C488.576 25.5239 488.467 24.3804 488.249 23.2203C488.031 22.0603 487.738 20.9831 487.369 19.9888C486.999 18.9945 486.587 18.1848 486.133 17.5598H487.61C488.477 18.824 489.142 20.209 489.606 21.7147C490.075 23.2156 490.309 24.861 490.309 26.6507Z" fill="white"/>
</svg>
