<svg width="239" height="51" viewBox="0 0 239 51" fill="none" xmlns="http://www.w3.org/2000/svg">
<path d="M7.12276 14.7514C6.8398 14.7514 6.61205 14.5264 6.61205 14.2381V14.2311C6.60515 10.9545 4.00327 8.2966 0.780245 8.28957C0.497282 8.28957 0.269531 8.05753 0.269531 7.76925C0.269531 7.48096 0.497282 7.24893 0.780245 7.24893C3.99636 7.24189 6.60515 4.58404 6.61205 1.30743C6.61205 1.01914 6.8398 0.787109 7.11586 0.787109H7.12276C7.40573 0.787109 7.63348 1.01211 7.63348 1.3004V1.30743C7.64038 4.58404 10.2423 7.24189 13.4653 7.24893C13.7482 7.24893 13.976 7.47393 13.976 7.76221V7.76925C13.976 8.05753 13.7482 8.28957 13.4722 8.28957H13.4584C10.2423 8.28957 7.63348 10.9474 7.62658 14.2311C7.63348 14.5123 7.40573 14.7444 7.12276 14.7514Z" fill="#76CAE7"/>
<path d="M43.8451 50.7867C43.6173 50.7867 43.4379 50.6039 43.4379 50.3718C43.4379 47.7491 41.3467 45.6257 38.7724 45.6186C38.5447 45.6186 38.3652 45.4358 38.3652 45.2038C38.3652 44.9718 38.5447 44.7889 38.7724 44.7889C41.3467 44.7889 43.431 42.6655 43.431 40.0428C43.431 39.8107 43.6173 39.6279 43.8382 39.6279C44.0659 39.6279 44.2453 39.8178 44.2453 40.0428C44.2453 42.6655 46.3365 44.7889 48.9108 44.796C49.1385 44.796 49.318 44.9788 49.318 45.2108C49.318 45.4429 49.1385 45.6257 48.9108 45.6257C46.3365 45.6257 44.2522 47.7562 44.2453 50.3789C44.2522 50.5968 44.0728 50.7867 43.8451 50.7867Z" fill="#76CAE7"/>
<path d="M41.9885 21.445C44.2729 31.1905 38.3652 40.9781 28.8066 43.3055C19.2479 45.6329 9.62719 39.6211 7.34278 29.8756C5.05837 20.1301 10.9592 10.3425 20.5247 8.01511C30.0903 5.68773 39.6972 11.6995 41.9885 21.445Z" fill="url(#paint0_radial_5224_19472)"/>
<mask id="mask0_5224_19472" style="mask-type:luminance" maskUnits="userSpaceOnUse" x="6" y="7" width="37" height="37">
<path d="M41.9885 21.445C44.2729 31.1905 38.3652 40.9781 28.8066 43.3055C19.2479 45.6329 9.62719 39.6211 7.34278 29.8756C5.05837 20.1301 10.9592 10.3425 20.5247 8.01511C30.0903 5.68773 39.6972 11.6995 41.9885 21.445Z" fill="white"/>
</mask>
<g mask="url(#mask0_5224_19472)">
<path d="M15.1149 37.9552C17.7375 38.0396 19.9322 35.9442 20.0219 33.2723C20.1047 30.6004 18.0481 28.3644 15.4255 28.273C15.4048 28.273 15.3841 28.273 15.3634 28.273C15.2875 28.273 15.2046 28.273 15.1287 28.273C15.1425 28.1324 15.1494 27.9988 15.1494 27.8581C15.1287 25.1651 12.9685 23.0065 10.3321 23.0206H6.76405C6.06009 28.4488 7.75097 33.9192 11.395 37.9552H15.1149Z" fill="#F2F2F2"/>
<path d="M42.203 22.2819C42.2099 22.2397 42.203 22.1905 42.1823 22.1483C41.6094 18.9842 40.1946 16.038 38.1035 13.6333C35.26 12.4731 32.0232 13.8794 30.8844 16.7763C30.8499 16.8607 30.8223 16.9521 30.7878 17.0365C30.6705 17.4443 30.6084 17.8592 30.5946 18.281C30.4013 18.2599 30.2081 18.2459 30.0148 18.2459C27.2335 18.2388 24.9698 20.5311 24.9629 23.3647C24.956 25.5444 26.3087 27.4991 28.3309 28.2234C28.8278 28.4203 29.3661 28.5257 29.9044 28.5187H35.7914C38.1518 26.6976 40.305 24.6093 42.203 22.2819Z" fill="#F2F2F2"/>
</g>
<path d="M48.4277 10.5113C46.5988 7.41751 42.3337 6.20812 36.3708 7.11516C34.3279 7.41048 32.3057 7.85346 30.3319 8.45112C31.8986 9.0066 33.3962 9.76599 34.7627 10.7152C35.4598 10.5605 36.1637 10.3707 36.8401 10.2652C37.896 10.0965 38.9657 10.0121 40.0424 10.0051C42.168 9.69567 44.3075 10.4972 45.7292 12.1496C46.8404 14.034 45.9018 17.2614 43.1619 21.0162C39.3453 25.8537 34.673 29.9179 29.3795 32.9906C24.2102 36.2812 18.4751 38.5453 12.4776 39.6774C7.9364 40.3665 4.69267 39.6774 3.58152 37.8C2.47038 35.9226 3.40899 32.6882 6.1558 28.9475C6.49398 28.4835 6.57679 28.2585 6.96328 27.7874C6.78384 26.1842 6.80454 24.567 7.0392 22.9709C5.80382 24.2295 4.67197 25.5865 3.64364 27.028C0.0479344 31.9218 -0.925182 36.3305 0.896825 39.4242C2.85686 42.0962 6.05918 43.5024 9.3098 43.1157C10.5245 43.1087 11.7391 43.0102 12.94 42.8204C19.3377 41.6321 25.4594 39.2274 30.9875 35.7258C36.6261 32.4351 41.609 28.0897 45.674 22.9217C49.2766 18.0138 50.2498 13.6051 48.4277 10.5113Z" fill="#76CAE7"/>
<path d="M72.358 32.7871H70.5114L75.8523 18.2417H77.6705L83.0114 32.7871H81.1648L76.8182 20.5428H76.7045L72.358 32.7871ZM73.0398 27.1053H80.483V28.6678H73.0398V27.1053ZM84.7372 32.7871V31.5087L90.9304 23.5542V23.4405H84.9361V21.878H93.0895V23.2132L87.0668 31.111V31.2246H93.2884V32.7871H84.7372ZM102.745 28.3269V21.878H104.421V32.7871H102.745V30.9405H102.631C102.376 31.4945 101.978 31.9656 101.438 32.3539C100.898 32.7374 100.217 32.9292 99.3928 32.9292C98.7109 32.9292 98.1049 32.78 97.5746 32.4817C97.0443 32.1787 96.6276 31.7241 96.3246 31.1181C96.0215 30.5073 95.87 29.7379 95.87 28.8098V21.878H97.5462V28.6962C97.5462 29.4917 97.7687 30.1261 98.2138 30.5996C98.6636 31.0731 99.2365 31.3098 99.9325 31.3098C100.349 31.3098 100.773 31.2033 101.204 30.9902C101.639 30.7772 102.004 30.4505 102.298 30.0101C102.596 29.5698 102.745 29.0087 102.745 28.3269ZM107.491 32.7871V21.878H109.11V23.5257H109.224C109.423 22.986 109.783 22.548 110.304 22.2118C110.824 21.8757 111.412 21.7076 112.065 21.7076C112.188 21.7076 112.342 21.7099 112.527 21.7147C112.711 21.7194 112.851 21.7265 112.946 21.736V23.4405C112.889 23.4263 112.759 23.405 112.555 23.3766C112.356 23.3435 112.145 23.3269 111.923 23.3269C111.393 23.3269 110.919 23.4382 110.502 23.6607C110.091 23.8785 109.764 24.1815 109.522 24.5698C109.286 24.9533 109.167 25.3913 109.167 25.8837V32.7871H107.491ZM119.174 33.0144C118.123 33.0144 117.217 32.7824 116.454 32.3184C115.697 31.8496 115.112 31.1962 114.7 30.3581C114.293 29.5153 114.089 28.5352 114.089 27.4178C114.089 26.3004 114.293 25.3155 114.7 24.4632C115.112 23.6062 115.685 22.9386 116.419 22.4604C117.157 21.9775 118.019 21.736 119.004 21.736C119.572 21.736 120.133 21.8307 120.687 22.0201C121.241 22.2095 121.745 22.5172 122.2 22.9434C122.654 23.3648 123.017 23.9235 123.287 24.6195C123.556 25.3155 123.691 26.1725 123.691 27.1905V27.9007H115.282V26.4519H121.987C121.987 25.8364 121.864 25.2871 121.618 24.8042C121.376 24.3212 121.03 23.94 120.581 23.6607C120.136 23.3813 119.61 23.2417 119.004 23.2417C118.336 23.2417 117.759 23.4074 117.271 23.7388C116.788 24.0655 116.416 24.4917 116.156 25.0172C115.895 25.5428 115.765 26.1062 115.765 26.7076V27.6735C115.765 28.4973 115.907 29.1957 116.191 29.7686C116.48 30.3368 116.88 30.7701 117.392 31.0684C117.903 31.3619 118.497 31.5087 119.174 31.5087C119.615 31.5087 120.012 31.4471 120.368 31.324C120.727 31.1962 121.038 31.0068 121.298 30.7559C121.558 30.5002 121.76 30.1829 121.902 29.8042L123.521 30.2587C123.35 30.8079 123.064 31.2909 122.662 31.7076C122.259 32.1195 121.762 32.4415 121.17 32.6735C120.578 32.9007 119.913 33.0144 119.174 33.0144ZM143.798 22.7871H142.037C141.932 22.2805 141.75 21.8354 141.49 21.4519C141.234 21.0684 140.922 20.7464 140.552 20.486C140.188 20.2208 139.783 20.022 139.338 19.8894C138.893 19.7568 138.429 19.6905 137.946 19.6905C137.065 19.6905 136.267 19.9131 135.552 20.3581C134.842 20.8032 134.276 21.459 133.855 22.3255C133.438 23.1919 133.23 24.2549 133.23 25.5144C133.23 26.7739 133.438 27.8368 133.855 28.7033C134.276 29.5698 134.842 30.2256 135.552 30.6706C136.267 31.1157 137.065 31.3382 137.946 31.3382C138.429 31.3382 138.893 31.272 139.338 31.1394C139.783 31.0068 140.188 30.8103 140.552 30.5499C140.922 30.2847 141.234 29.9604 141.49 29.5769C141.75 29.1886 141.932 28.7435 142.037 28.2417H143.798C143.665 28.985 143.424 29.6503 143.074 30.2374C142.723 30.8245 142.288 31.324 141.767 31.736C141.246 32.1432 140.661 32.4533 140.012 32.6664C139.368 32.8794 138.68 32.986 137.946 32.986C136.705 32.986 135.602 32.6829 134.636 32.0769C133.67 31.4708 132.91 30.6091 132.356 29.4917C131.802 28.3742 131.525 27.0485 131.525 25.5144C131.525 23.9803 131.802 22.6545 132.356 21.5371C132.91 20.4197 133.67 19.5579 134.636 18.9519C135.602 18.3458 136.705 18.0428 137.946 18.0428C138.68 18.0428 139.368 18.1493 140.012 18.3624C140.661 18.5755 141.246 18.888 141.767 19.2999C142.288 19.7071 142.723 20.2042 143.074 20.7914C143.424 21.3738 143.665 22.039 143.798 22.7871ZM150.849 33.0144C149.864 33.0144 149 32.78 148.256 32.3113C147.518 31.8425 146.94 31.1867 146.523 30.3439C146.112 29.5011 145.906 28.5163 145.906 27.3894C145.906 26.253 146.112 25.2611 146.523 24.4135C146.94 23.566 147.518 22.9078 148.256 22.4391C149 21.9703 149.864 21.736 150.849 21.736C151.834 21.736 152.695 21.9703 153.434 22.4391C154.177 22.9078 154.755 23.566 155.167 24.4135C155.584 25.2611 155.792 26.253 155.792 27.3894C155.792 28.5163 155.584 29.5011 155.167 30.3439C154.755 31.1867 154.177 31.8425 153.434 32.3113C152.695 32.78 151.834 33.0144 150.849 33.0144ZM150.849 31.5087C151.597 31.5087 152.212 31.3169 152.695 30.9334C153.178 30.5499 153.536 30.0456 153.768 29.4206C154 28.7956 154.116 28.1185 154.116 27.3894C154.116 26.6602 154 25.9808 153.768 25.351C153.536 24.7213 153.178 24.2123 152.695 23.824C152.212 23.4358 151.597 23.2417 150.849 23.2417C150.101 23.2417 149.485 23.4358 149.002 23.824C148.519 24.2123 148.162 24.7213 147.93 25.351C147.698 25.9808 147.582 26.6602 147.582 27.3894C147.582 28.1185 147.698 28.7956 147.93 29.4206C148.162 30.0456 148.519 30.5499 149.002 30.9334C149.485 31.3169 150.101 31.5087 150.849 31.5087ZM166.078 24.3212L164.572 24.7473C164.477 24.4964 164.338 24.2525 164.153 24.0158C163.973 23.7743 163.727 23.5755 163.414 23.4192C163.102 23.263 162.702 23.1848 162.214 23.1848C161.547 23.1848 160.99 23.3387 160.545 23.6465C160.105 23.9495 159.885 24.3354 159.885 24.8042C159.885 25.2208 160.036 25.5499 160.339 25.7914C160.642 26.0328 161.116 26.2341 161.76 26.3951L163.379 26.7928C164.354 27.0295 165.081 27.3917 165.559 27.8794C166.038 28.3624 166.277 28.985 166.277 29.7473C166.277 30.3723 166.097 30.931 165.737 31.4235C165.382 31.9159 164.885 32.3042 164.245 32.5882C163.606 32.8723 162.863 33.0144 162.015 33.0144C160.903 33.0144 159.982 32.7729 159.252 32.29C158.523 31.807 158.062 31.1015 157.868 30.1735L159.458 29.7757C159.61 30.3629 159.896 30.8032 160.318 31.0968C160.744 31.3903 161.3 31.5371 161.987 31.5371C162.768 31.5371 163.388 31.3714 163.848 31.04C164.312 30.7038 164.544 30.3013 164.544 29.8326C164.544 29.4538 164.411 29.1365 164.146 28.8809C163.881 28.6204 163.474 28.4263 162.924 28.2985L161.106 27.8723C160.107 27.6356 159.373 27.2686 158.904 26.7715C158.44 26.2696 158.208 25.6422 158.208 24.8894C158.208 24.2739 158.381 23.7293 158.727 23.2559C159.077 22.7824 159.553 22.4107 160.154 22.1408C160.761 21.8709 161.447 21.736 162.214 21.736C163.294 21.736 164.141 21.9727 164.757 22.4462C165.377 22.9197 165.817 23.5447 166.078 24.3212ZM168.8 32.7871V21.878H170.419V23.5826H170.561C170.788 23.0002 171.155 22.548 171.662 22.226C172.169 21.8993 172.777 21.736 173.487 21.736C174.207 21.736 174.806 21.8993 175.284 22.226C175.767 22.548 176.143 23.0002 176.413 23.5826H176.527C176.806 23.0191 177.225 22.5717 177.784 22.2402C178.343 21.9041 179.013 21.736 179.794 21.736C180.769 21.736 181.567 22.0414 182.188 22.6522C182.808 23.2582 183.118 24.2028 183.118 25.486V32.7871H181.442V25.486C181.442 24.681 181.222 24.1058 180.781 23.7601C180.341 23.4145 179.822 23.2417 179.226 23.2417C178.459 23.2417 177.865 23.4737 177.443 23.9377C177.022 24.397 176.811 24.9793 176.811 25.6848V32.7871H175.107V25.3155C175.107 24.6953 174.905 24.1957 174.503 23.8169C174.1 23.4334 173.582 23.2417 172.947 23.2417C172.512 23.2417 172.105 23.3577 171.726 23.5897C171.352 23.8217 171.049 24.1436 170.817 24.5556C170.589 24.9628 170.476 25.4339 170.476 25.9689V32.7871H168.8ZM190.614 33.0144C189.629 33.0144 188.765 32.78 188.022 32.3113C187.283 31.8425 186.706 31.1867 186.289 30.3439C185.877 29.5011 185.671 28.5163 185.671 27.3894C185.671 26.253 185.877 25.2611 186.289 24.4135C186.706 23.566 187.283 22.9078 188.022 22.4391C188.765 21.9703 189.629 21.736 190.614 21.736C191.599 21.736 192.461 21.9703 193.2 22.4391C193.943 22.9078 194.521 23.566 194.933 24.4135C195.349 25.2611 195.558 26.253 195.558 27.3894C195.558 28.5163 195.349 29.5011 194.933 30.3439C194.521 31.1867 193.943 31.8425 193.2 32.3113C192.461 32.78 191.599 33.0144 190.614 33.0144ZM190.614 31.5087C191.362 31.5087 191.978 31.3169 192.461 30.9334C192.944 30.5499 193.301 30.0456 193.533 29.4206C193.765 28.7956 193.881 28.1185 193.881 27.3894C193.881 26.6602 193.765 25.9808 193.533 25.351C193.301 24.7213 192.944 24.2123 192.461 23.824C191.978 23.4358 191.362 23.2417 190.614 23.2417C189.866 23.2417 189.251 23.4358 188.768 23.824C188.285 24.2123 187.927 24.7213 187.695 25.351C187.463 25.9808 187.347 26.6602 187.347 27.3894C187.347 28.1185 187.463 28.7956 187.695 29.4206C187.927 30.0456 188.285 30.5499 188.768 30.9334C189.251 31.3169 189.866 31.5087 190.614 31.5087ZM205.843 24.3212L204.338 24.7473C204.243 24.4964 204.103 24.2525 203.919 24.0158C203.739 23.7743 203.493 23.5755 203.18 23.4192C202.868 23.263 202.467 23.1848 201.98 23.1848C201.312 23.1848 200.756 23.3387 200.311 23.6465C199.87 23.9495 199.65 24.3354 199.65 24.8042C199.65 25.2208 199.802 25.5499 200.105 25.7914C200.408 26.0328 200.881 26.2341 201.525 26.3951L203.145 26.7928C204.12 27.0295 204.847 27.3917 205.325 27.8794C205.803 28.3624 206.042 28.985 206.042 29.7473C206.042 30.3723 205.862 30.931 205.502 31.4235C205.147 31.9159 204.65 32.3042 204.011 32.5882C203.372 32.8723 202.628 33.0144 201.781 33.0144C200.668 33.0144 199.747 32.7729 199.018 32.29C198.289 31.807 197.827 31.1015 197.633 30.1735L199.224 29.7757C199.376 30.3629 199.662 30.8032 200.083 31.0968C200.51 31.3903 201.066 31.5371 201.752 31.5371C202.534 31.5371 203.154 31.3714 203.613 31.04C204.077 30.7038 204.309 30.3013 204.309 29.8326C204.309 29.4538 204.177 29.1365 203.912 28.8809C203.646 28.6204 203.239 28.4263 202.69 28.2985L200.872 27.8723C199.873 27.6356 199.139 27.2686 198.67 26.7715C198.206 26.2696 197.974 25.6422 197.974 24.8894C197.974 24.2739 198.147 23.7293 198.493 23.2559C198.843 22.7824 199.319 22.4107 199.92 22.1408C200.526 21.8709 201.213 21.736 201.98 21.736C203.059 21.736 203.907 21.9727 204.522 22.4462C205.143 22.9197 205.583 23.5447 205.843 24.3212ZM218.906 32.7871H214.418V18.2417H219.105C220.516 18.2417 221.723 18.5328 222.727 19.1152C223.731 19.6929 224.5 20.5239 225.036 21.6081C225.571 22.6877 225.838 23.9803 225.838 25.486C225.838 27.0011 225.568 28.3056 225.028 29.3993C224.489 30.4883 223.703 31.3264 222.67 31.9135C221.638 32.4959 220.384 32.7871 218.906 32.7871ZM216.179 31.2246H218.793C219.995 31.2246 220.992 30.9926 221.783 30.5286C222.573 30.0646 223.163 29.4041 223.551 28.5471C223.939 27.69 224.134 26.6697 224.134 25.486C224.134 24.3117 223.942 23.3008 223.558 22.4533C223.175 21.601 222.602 20.9476 221.839 20.4931C221.077 20.0338 220.128 19.8042 218.991 19.8042H216.179V31.2246ZM228.793 32.7871V18.2417H233.878C234.891 18.2417 235.727 18.4168 236.385 18.7672C237.043 19.1129 237.533 19.5792 237.855 20.1664C238.177 20.7488 238.338 21.3951 238.338 22.1053C238.338 22.7303 238.227 23.2464 238.004 23.6536C237.786 24.0608 237.498 24.3828 237.138 24.6195C236.783 24.8562 236.397 25.0314 235.98 25.1451V25.2871C236.425 25.3155 236.873 25.4718 237.322 25.7559C237.772 26.04 238.149 26.4471 238.452 26.9775C238.755 27.5078 238.906 28.1564 238.906 28.9235C238.906 29.6526 238.741 30.3084 238.409 30.8908C238.078 31.4732 237.554 31.9348 236.839 32.2757C236.125 32.6167 235.194 32.7871 234.048 32.7871H228.793ZM230.554 31.2246H234.048C235.199 31.2246 236.016 31.0021 236.499 30.557C236.986 30.1072 237.23 29.5627 237.23 28.9235C237.23 28.431 237.105 27.9765 236.854 27.5598C236.603 27.1384 236.245 26.8023 235.781 26.5513C235.317 26.2956 234.768 26.1678 234.134 26.1678H230.554V31.2246ZM230.554 24.6337H233.821C234.351 24.6337 234.83 24.5295 235.256 24.3212C235.687 24.1129 236.027 23.8193 236.278 23.4405C236.534 23.0617 236.662 22.6167 236.662 22.1053C236.662 21.4661 236.439 20.9239 235.994 20.4789C235.549 20.0291 234.844 19.8042 233.878 19.8042H230.554V24.6337Z" fill="white"/>
<defs>
<radialGradient id="paint0_radial_5224_19472" cx="0" cy="0" r="1" gradientUnits="userSpaceOnUse" gradientTransform="translate(24.5937 25.5719) scale(17.9765 18.1386)">
<stop offset="0.18" stop-color="#679CD3"/>
<stop offset="1" stop-color="#2974BA"/>
</radialGradient>
</defs>
</svg>
