<svg width="74" height="75" viewBox="0 0 74 75" fill="none" xmlns="http://www.w3.org/2000/svg">
<path d="M23.6465 4.39258L11.9883 6.55229V22.4566L23.6465 24.9413L35.3467 20.2549V8.387L23.6465 4.39258Z" fill="url(#paint0_linear_4140_2879)"/>
<path d="M11.9883 6.5519V22.4562L23.7671 24.9409V4.55469L11.9883 6.5519ZM16.963 21.2296L13.6605 20.5795V8.34467L16.963 7.82047V21.2296ZM22.1001 22.1731L18.3049 21.5546V7.57409L22.1001 6.91884V22.1731Z" fill="#341A6E"/>
<path d="M48.8819 4.59704L37.2236 6.75675V22.6558L48.8819 25.1458L60.5454 20.4175V8.58622L48.8819 4.59704Z" fill="url(#paint1_linear_4140_2879)"/>
<path d="M37.2236 6.75698V22.656L48.9238 25.146V4.75977L37.2236 6.75698ZM42.1564 21.4346L38.8539 20.7846V8.54975L42.1564 8.02555V21.4346ZM47.2936 22.373L43.5088 21.7596V7.77917L47.2988 7.08198L47.2936 22.373Z" fill="#341A6E"/>
<path d="M11.7002 26.3252L0.0419922 28.4902V44.3892L11.7002 46.8739L23.4004 42.1875V30.3249L11.7002 26.3252Z" fill="url(#paint2_linear_4140_2879)"/>
<path d="M0 28.4902V44.2687L11.7841 46.7534V26.3672L0 28.4902ZM4.93274 43.2046L1.63027 42.5126V30.2882L4.93274 29.7168V43.2046ZM10.1119 44.2687L6.32188 43.6554V29.5072L10.1119 28.8571V44.2687Z" fill="#341A6E"/>
<path d="M36.8565 26.1631L25.1982 28.328V44.2271L36.8565 46.7537L48.5147 42.0254V30.1627L36.8565 26.1631Z" fill="url(#paint3_linear_4140_2879)"/>
<path d="M25.1982 28.3277V44.2634L36.9404 46.7534V26.3672L25.1982 28.3277ZM30.1257 43.0421L26.8233 42.3501V30.1205L30.1257 29.5439V43.0421ZM35.2629 43.9384L31.4729 43.3304V29.3447L35.2682 28.6946L35.2629 43.9384Z" fill="#341A6E"/>
<path d="M62.0131 26.3672L50.3496 28.5269V44.4312L62.0131 46.9159L73.7133 42.2295V30.3616L62.0131 26.3672Z" fill="url(#paint4_linear_4140_2879)"/>
<path d="M50.3496 28.5269V44.2687L62.1337 46.7534V26.3672L50.3496 28.5269ZM55.3295 43.2465L52.0271 42.5545V30.3249L55.3295 29.7483V43.2465ZM60.4667 44.1429L56.6715 43.5348V29.5491L60.4615 28.8938V44.1481L60.4667 44.1429Z" fill="#341A6E"/>
<path d="M23.3637 48.5039L11.7002 50.6269V66.526L23.3637 69.0526L35.0639 64.3243V52.5036L23.3637 48.5039Z" fill="url(#paint5_linear_4140_2879)"/>
<path d="M11.7002 50.6273V66.5264L23.4843 69.0583V48.3418L11.7002 50.6273ZM16.6801 65.3469L13.3776 64.655V52.4201L16.6801 51.8487V65.3469ZM21.8173 66.2852L18.0221 65.6719V51.6495L21.8121 50.9943V66.2852H21.8173Z" fill="#341A6E"/>
<path d="M48.5567 48.6719L36.8984 50.8316V66.7306L48.5567 69.2206L60.2569 64.529V52.6715L48.5567 48.6771V48.6719Z" fill="url(#paint6_linear_4140_2879)"/>
<path d="M36.8984 50.8316V66.7306L48.6825 69.2206V48.8291L36.8984 50.8316ZM41.8731 65.5511L38.5706 64.854V52.6243L41.8731 52.0529V65.5511ZM47.0103 66.4423L43.2151 65.8342V51.8485L47.0103 51.1985V66.4475V66.4423Z" fill="#341A6E"/>
<defs>
<linearGradient id="paint0_linear_4140_2879" x1="11.9883" y1="14.6669" x2="35.3467" y2="14.6669" gradientUnits="userSpaceOnUse">
<stop stop-color="#B77AF4"/>
<stop offset="1" stop-color="#773ADC"/>
</linearGradient>
<linearGradient id="paint1_linear_4140_2879" x1="37.2236" y1="14.8714" x2="60.5454" y2="14.8714" gradientUnits="userSpaceOnUse">
<stop stop-color="#B77AF4"/>
<stop offset="1" stop-color="#773ADC"/>
</linearGradient>
<linearGradient id="paint2_linear_4140_2879" x1="0.0419922" y1="36.5996" x2="23.3637" y2="36.5996" gradientUnits="userSpaceOnUse">
<stop stop-color="#B77AF4"/>
<stop offset="1" stop-color="#773ADC"/>
</linearGradient>
<linearGradient id="paint3_linear_4140_2879" x1="25.1982" y1="36.4374" x2="48.5147" y2="36.4374" gradientUnits="userSpaceOnUse">
<stop stop-color="#B77AF4"/>
<stop offset="1" stop-color="#773ADC"/>
</linearGradient>
<linearGradient id="paint4_linear_4140_2879" x1="50.3496" y1="36.6416" x2="73.7133" y2="36.6416" gradientUnits="userSpaceOnUse">
<stop stop-color="#B77AF4"/>
<stop offset="1" stop-color="#773ADC"/>
</linearGradient>
<linearGradient id="paint5_linear_4140_2879" x1="11.7002" y1="58.7835" x2="35.0639" y2="58.7835" gradientUnits="userSpaceOnUse">
<stop stop-color="#B77AF4"/>
<stop offset="1" stop-color="#773ADC"/>
</linearGradient>
<linearGradient id="paint6_linear_4140_2879" x1="36.8984" y1="58.9462" x2="60.2569" y2="58.9462" gradientUnits="userSpaceOnUse">
<stop stop-color="#B77AF4"/>
<stop offset="1" stop-color="#773ADC"/>
</linearGradient>
</defs>
</svg>
