<svg width="40" height="41" viewBox="0 0 40 41" fill="none" xmlns="http://www.w3.org/2000/svg">
<path d="M0 20.7637C0 9.71798 8.95431 0.763672 20 0.763672C31.0457 0.763672 40 9.71798 40 20.7637C40 31.8094 31.0457 40.7637 20 40.7637C8.95431 40.7637 0 31.8094 0 20.7637Z" fill="#4361EE"/>
<path d="M12.514 31.7637V11.4H20.6674C22.1655 11.4 23.4151 11.6221 24.416 12.0662C25.417 12.5104 26.1693 13.1268 26.6731 13.9157C27.1769 14.6979 27.4288 15.5994 27.4288 16.6202C27.4288 17.4157 27.2697 18.115 26.9515 18.7182C26.6333 19.3148 26.1958 19.8053 25.639 20.1898C25.0888 20.5676 24.4591 20.8361 23.7498 20.9952V21.1941C24.5254 21.2272 25.2512 21.446 25.9274 21.8503C26.6101 22.2547 27.1636 22.8214 27.5879 23.5506C28.0121 24.2731 28.2243 25.1349 28.2243 26.1358C28.2243 27.2163 27.9558 28.1808 27.4189 29.0293C26.8886 29.8712 26.103 30.5373 25.0623 31.0279C24.0216 31.5184 22.7389 31.7637 21.2143 31.7637H12.514ZM16.8194 28.2438H20.3294C21.5292 28.2438 22.4042 28.0151 22.9544 27.5577C23.5046 27.0937 23.7797 26.4772 23.7797 25.7083C23.7797 25.1448 23.6438 24.6477 23.372 24.2168C23.1002 23.7859 22.7124 23.4479 22.2086 23.2026C21.7115 22.9573 21.1182 22.8347 20.4288 22.8347H16.8194V28.2438ZM16.8194 19.9213H20.0112C20.6011 19.9213 21.1248 19.8186 21.5822 19.6131C22.0462 19.401 22.4108 19.1027 22.676 18.7182C22.9477 18.3337 23.0836 17.873 23.0836 17.3361C23.0836 16.6003 22.8218 16.007 22.2981 15.5563C21.7811 15.1055 21.0453 14.8801 20.0907 14.8801H16.8194V19.9213Z" fill="white"/>
</svg>
