<svg width="122" height="150" viewBox="0 0 122 150" fill="none" xmlns="http://www.w3.org/2000/svg">
<rect x="8.41559" y="36.3296" width="104.757" height="84.5121" fill="url(#paint0_linear_0_1)"/>
<rect y="0.889404" width="122" height="149" rx="8" fill="url(#paint1_linear_0_1)"/>
<path d="M63.0439 87.6232H74.5005C75.2965 87.6232 75.9474 88.2395 75.9474 88.9952V95.3326C77.3273 95.6512 78.5527 96.3946 79.427 97.4436C80.3012 98.4925 80.7735 99.786 80.7681 101.116C80.7681 104.4 77.9597 107.064 74.5005 107.064C71.0375 107.064 68.2291 104.4 68.2291 101.116C68.2291 98.3064 70.2898 95.949 73.0535 95.3292V90.3671H63.0477V106.604C63.0487 106.84 62.9849 107.072 62.8624 107.278C62.74 107.484 62.5629 107.658 62.3484 107.781L52.3425 113.495C52.1155 113.625 51.8543 113.694 51.5882 113.692C51.3221 113.691 51.0617 113.621 50.8361 113.488L32.5131 102.743C32.3016 102.618 32.1275 102.446 32.0071 102.241C31.8867 102.036 31.824 101.806 31.8249 101.573V90.3636L22.6709 85.3842C22.4627 85.2712 22.2874 85.1121 22.1602 84.9209C22.0331 84.7296 21.9581 84.5121 21.9418 84.2873V84.1933V66.3578C21.9418 65.8703 22.2134 65.4177 22.656 65.1739L31.8249 60.083V49.0934C31.8249 48.6442 32.0556 48.2264 32.4387 47.9722L32.5168 47.9234L50.8435 37.289C51.0706 37.1566 51.3329 37.0864 51.6004 37.0864C51.868 37.0864 52.1303 37.1566 52.3574 37.289L62.3632 43.1216C62.5747 43.2458 62.7488 43.4184 62.8692 43.6231C62.9896 43.8278 63.0523 44.0579 63.0514 44.2916V60.0691H77.3943V53.3939C76.0139 53.0752 74.7879 52.3312 73.9136 51.2816C73.0393 50.2319 72.5674 48.9376 72.5737 47.6066C72.5737 44.3229 75.382 41.6591 78.8413 41.6591C82.3043 41.6591 85.1089 44.3229 85.1089 47.6066C85.1089 50.4166 83.0519 52.774 80.2882 53.3939V61.4411C80.2897 61.6202 80.2534 61.7978 80.1814 61.9637C80.1095 62.1296 80.0033 62.2807 79.8688 62.4081C79.7344 62.5355 79.5745 62.6369 79.3982 62.7064C79.2218 62.7759 79.0326 62.8121 78.8413 62.813H63.0514V69.1018H87.6903C88.0068 67.8071 88.7818 66.6507 89.8894 65.8206C90.9969 64.9905 92.3718 64.5355 93.7906 64.5297C97.2498 64.5297 100.058 67.1901 100.058 70.4737C100.058 73.7574 97.2535 76.4212 93.7906 76.4212C92.3713 76.4152 90.996 75.9597 89.8884 75.129C88.7808 74.2982 88.0061 73.141 87.6903 71.8457H63.0439V78.5906H81.4674L84.8708 82.6995C85.8187 82.1806 86.8973 81.9077 87.9953 81.909C91.4583 81.909 94.2629 84.5694 94.2629 87.853C94.2629 91.1367 91.4583 93.8005 87.9953 93.8005C84.5361 93.8005 81.7277 91.1367 81.7277 87.853C81.7277 86.6482 82.1071 85.527 82.7544 84.5903L80.0613 81.3345H63.0439V87.6232ZM51.5986 40.0677L43.9993 44.4761V54.8111H41.1055V46.1545L34.7188 49.863V60.1179L42.5673 64.8536L50.6278 60.1039V52.1786H53.5216V60.87C53.5216 61.3436 53.2613 61.7858 52.8372 62.0365L44.1221 67.1657V74.412L49.4114 77.9255L47.7525 80.1749L42.5226 76.6998L36.8316 80.1993L35.2582 77.9011L41.2282 74.2275V67.298L33.2421 62.4718L24.8357 67.1378V72.9739L32.1709 68.8336L33.6513 71.191L24.8357 76.167V83.3994L32.8925 87.7799L41.3361 83.0163L42.8128 85.3737L34.7188 89.9388V100.81L41.6969 104.902L50.4938 99.936L51.9743 102.297L44.4717 106.531L51.606 110.713L60.1538 105.828V85.7011L42.4557 95.7749L40.9678 93.4244L60.1538 82.5045V45.0576L51.5986 40.0677ZM74.5005 97.9199C74.0538 97.9221 73.6121 98.0069 73.2005 98.1692C72.7889 98.3315 72.4156 98.5682 72.1019 98.8658C71.7882 99.1634 71.5402 99.5159 71.3722 99.9033C71.2043 100.291 71.1196 100.705 71.123 101.123C71.123 102.889 72.6332 104.32 74.5005 104.32C74.9464 104.317 75.3875 104.232 75.7984 104.07C76.2093 103.908 76.582 103.671 76.8953 103.374C77.2086 103.077 77.4563 102.725 77.6242 102.338C77.7922 101.951 77.8771 101.537 77.8742 101.12C77.8776 100.702 77.793 100.288 77.6253 99.9007C77.4576 99.5135 77.21 99.1611 76.8966 98.8635C76.5833 98.566 76.2104 98.3292 75.7992 98.1667C75.3881 98.0042 74.9467 97.9226 74.5005 97.9199ZM88.0028 84.653C87.5562 84.6552 87.1144 84.7399 86.7029 84.9023C86.2913 85.0646 85.9179 85.3013 85.6042 85.5989C85.2905 85.8964 85.0425 86.249 84.8746 86.6364C84.7066 87.0238 84.6219 87.4384 84.6253 87.8565C84.6253 89.6254 86.1355 91.0601 87.9991 91.0601C88.4457 91.0578 88.8874 90.9731 89.299 90.8108C89.7106 90.6484 90.0839 90.4117 90.3976 90.1141C90.7114 89.8166 90.9593 89.464 91.1273 89.0766C91.2952 88.6892 91.3799 88.2746 91.3765 87.8565C91.3799 87.4384 91.2952 87.0238 91.1273 86.6364C90.9593 86.249 90.7114 85.8964 90.3976 85.5989C90.0839 85.3013 89.7106 85.0646 89.299 84.9023C88.8874 84.7399 88.4494 84.6552 88.0028 84.653ZM93.7868 67.2771C93.3402 67.2794 92.8985 67.3641 92.4869 67.5264C92.0753 67.6887 91.702 67.9255 91.3883 68.223C91.0745 68.5206 90.8266 68.8732 90.6586 69.2606C90.4907 69.648 90.406 70.0626 90.4094 70.4807C90.4094 72.2461 91.9233 73.6773 93.7868 73.6773C94.2328 73.6745 94.6738 73.5896 95.0848 73.4273C95.4957 73.265 95.8684 73.0285 96.1817 72.7314C96.495 72.4342 96.7427 72.0822 96.9106 71.6954C97.0786 71.3086 97.1635 70.8947 97.1606 70.4772C97.164 70.0594 97.0794 69.6451 96.9117 69.2579C96.7439 68.8707 96.4963 68.5183 96.183 68.2208C95.8697 67.9233 95.4968 67.6865 95.0856 67.5239C94.6745 67.3614 94.2331 67.2764 93.7868 67.2736V67.2771ZM78.8376 44.3995C78.3913 44.4023 77.9499 44.4873 77.5388 44.6498C77.1276 44.8123 76.7547 45.0491 76.4414 45.3467C76.1281 45.6442 75.8805 45.9966 75.7127 46.3838C75.545 46.771 75.4604 47.1853 75.4638 47.6031C75.4638 49.372 76.974 50.8066 78.8376 50.8066C79.2842 50.8044 79.7259 50.7196 80.1375 50.5573C80.5491 50.395 80.9224 50.1583 81.2361 49.8607C81.5499 49.5631 81.7978 49.2106 81.9658 48.8232C82.1337 48.4358 82.2184 48.0212 82.215 47.6031C82.2184 47.185 82.1337 46.7704 81.9658 46.383C81.7978 45.9956 81.5499 45.643 81.2361 45.3454C80.9224 45.0479 80.5491 44.8111 80.1375 44.6488C79.7259 44.4865 79.2842 44.4018 78.8376 44.3995Z" fill="white"/>
<defs>
<linearGradient id="paint0_linear_0_1" x1="60.794" y1="36.3296" x2="60.794" y2="120.842" gradientUnits="userSpaceOnUse">
<stop stop-color="#5C2FB6"/>
<stop offset="1" stop-color="#3575D0"/>
</linearGradient>
<linearGradient id="paint1_linear_0_1" x1="61" y1="0.889404" x2="102.9" y2="170.398" gradientUnits="userSpaceOnUse">
<stop stop-color="#821ABE"/>
<stop offset="1" stop-color="#3575D0"/>
</linearGradient>
</defs>
</svg>
