<svg width="70" height="69" viewBox="0 0 70 69" fill="none" xmlns="http://www.w3.org/2000/svg">
<path d="M47.7154 54.6289V51.4199H57.0104C57.3908 51.4199 57.6997 51.1114 57.6997 50.7307V44.077C57.6997 43.6962 57.3908 43.3878 57.0104 43.3878H47.7154V40.1775C47.7154 39.8984 47.5476 39.647 47.2899 39.5408C47.0323 39.4341 46.7358 39.4931 46.5387 39.6899L39.313 46.9159C39.1837 47.0454 39.1113 47.221 39.1113 47.4035C39.1113 47.5865 39.1837 47.7621 39.313 47.8914L46.5387 55.1172C46.7358 55.3144 47.0323 55.3735 47.2899 55.2663C47.5478 55.1593 47.7154 54.9082 47.7154 54.6289Z" fill="black"/>
<path d="M63.7504 33.6063C60.4173 29.9035 55.8945 27.536 50.9895 26.9205C50.8209 26.5939 50.5542 26.1171 50.4803 25.9887L50.2835 25.6389C51.0438 24.4759 51.4282 23.2681 51.4282 22.0444V14.9128C51.4282 13.8593 51.1366 12.8005 50.5681 11.7793L50.5076 11.6622C50.7258 11.1114 50.8323 10.5922 50.8323 10.0808C50.8323 7.18953 48.0591 4.75398 42.8135 3.03715C38.3453 1.57503 32.2861 0.736328 26.1885 0.736328C20.0899 0.736328 14.0291 1.57503 9.56171 3.03731C4.31544 4.75446 1.54287 7.19047 1.54287 10.0829C1.54287 10.592 1.64925 11.1106 1.86755 11.6623L1.81135 11.7676C1.23939 12.8045 0.949535 13.8628 0.949535 14.913V22.0445C0.949535 23.2744 1.33422 24.4804 2.09393 25.6336L1.89288 25.9848C1.26678 27.0714 0.949219 28.1797 0.949219 29.2788V36.4116C0.949219 37.609 1.31427 38.7878 2.03488 39.9175L1.89288 40.1639C1.26678 41.2504 0.949219 42.3573 0.949219 43.4531V50.5905C0.949219 53.8508 3.59515 56.8537 8.39959 59.047C13.0869 61.1869 19.4049 62.365 26.1885 62.365C28.6793 62.365 31.1939 62.191 33.6672 61.8478C37.5862 65.8486 42.8102 68.0493 48.4049 68.0493C59.7893 68.0493 69.0512 58.7877 69.0512 47.4033C69.0513 42.3033 67.1687 37.4032 63.7504 33.6063ZM10.5807 6.44865C14.691 5.085 20.2341 4.334 26.1888 4.334C32.1411 4.334 37.6834 5.08548 41.796 6.44992C45.5503 7.69563 47.2304 9.17231 47.2304 10.083C47.2304 10.9968 45.5503 12.4771 41.7957 13.7238C37.6851 15.0887 32.1425 15.8403 26.1888 15.8403C20.2336 15.8403 14.6904 15.0887 10.5809 13.7238C6.82808 12.4774 5.14861 10.997 5.14861 10.083C5.14845 9.1712 6.82792 7.69373 10.5807 6.44865ZM4.55227 17.0651C8.6448 19.8966 16.9442 21.6923 26.1888 21.6923C35.4266 21.6923 43.7282 19.896 47.8286 17.0637V22.0475C47.8286 23.8847 45.6304 25.9126 41.9482 27.4717C37.7557 29.2473 32.1588 30.2253 26.1885 30.2253C20.2187 30.2253 14.6224 29.2473 10.4307 27.4719C6.74956 25.9127 4.55195 23.885 4.55195 22.0475L4.55227 17.0651ZM26.1886 58.7583C20.2205 58.7583 14.6239 57.7809 10.4307 56.006C6.74972 54.4482 4.55211 52.4233 4.55211 50.5901V44.9006C8.98279 48.3462 17.125 50.4557 26.1886 50.4557C26.8 50.4557 27.3971 50.4265 27.9764 50.3951C28.3979 53.2787 29.4428 56.0664 31.0208 58.5276C29.4143 58.6809 27.7927 58.7583 26.1886 58.7583ZM27.9617 44.5172C27.3881 44.5517 26.7973 44.5838 26.1886 44.5838C20.2197 44.5838 14.6232 43.6063 10.4308 41.8311C6.74988 40.2724 4.55211 38.2462 4.55211 36.4113V30.7181C8.97361 34.1652 17.1151 36.2764 26.1886 36.2764C27.7745 36.2764 29.4195 36.1919 31.1908 36.0188C29.496 38.5753 28.3884 41.4867 27.9617 44.5172ZM48.405 63.0053C39.8022 63.0053 32.8033 56.0061 32.8033 47.4033C32.8033 38.8006 39.8022 31.8019 48.405 31.8019C57.0083 31.8019 64.0072 38.8006 64.0072 47.4033C64.007 56.0061 57.0082 63.0053 48.405 63.0053Z" fill="black"/>
</svg>
