<svg width="50" height="50" viewBox="0 0 50 50" fill="none" xmlns="http://www.w3.org/2000/svg">
<g clip-path="url(#clip0_19752_30447)">
<path fill-rule="evenodd" clip-rule="evenodd" d="M30.1004 4.625C25.0196 4.625 20.901 8.61298 20.901 13.5324V19.6991H36.8231V21.412H13.8244C8.74372 21.412 4.625 25.4 4.625 30.3194V43.6806C4.625 48.6 8.74372 52.5879 13.8244 52.5879H19.1318V45.051C19.1318 40.1316 23.2506 36.1435 28.3314 36.1435H45.3148C49.614 36.1435 53.0989 32.7691 53.0989 28.6066V13.5324C53.0989 8.61298 48.9804 4.625 43.8996 4.625H30.1004ZM27.9775 15.588C29.7362 15.588 31.1619 14.2075 31.1619 12.5046C31.1619 10.8018 29.7362 9.42129 27.9775 9.42129C26.2187 9.42129 24.793 10.8018 24.793 12.5046C24.793 14.2075 26.2187 15.588 27.9775 15.588Z" fill="url(#paint0_linear_19752_30447)"/>
<path fill-rule="evenodd" clip-rule="evenodd" d="M43.8989 69.3731C48.9797 69.3731 53.0985 65.3852 53.0985 60.4658V54.299H37.1763V52.5862H60.175C65.2558 52.5862 69.3743 48.598 69.3743 43.6787V30.3175C69.3743 25.3981 65.2558 21.4102 60.175 21.4102H54.8676V28.9471C54.8676 33.8667 50.7488 37.8546 45.6682 37.8546H28.6845C24.3854 37.8546 20.9004 41.229 20.9004 45.3915V60.4658C20.9004 65.3852 25.0192 69.3731 30.0998 69.3731H43.8989ZM46.022 58.4102C44.2631 58.4102 42.8375 59.7905 42.8375 61.4935C42.8375 63.1964 44.2631 64.5767 46.022 64.5767C47.7807 64.5767 49.2063 63.1964 49.2063 61.4935C49.2063 59.7905 47.7807 58.4102 46.022 58.4102Z" fill="url(#paint1_linear_19752_30447)"/>
</g>
<defs>
<linearGradient id="paint0_linear_19752_30447" x1="28.8621" y1="4.625" x2="28.8621" y2="52.5879" gradientUnits="userSpaceOnUse">
<stop stop-color="#327EBD"/>
<stop offset="1" stop-color="#1565A7"/>
</linearGradient>
<linearGradient id="paint1_linear_19752_30447" x1="45.1375" y1="21.4102" x2="45.1375" y2="69.3731" gradientUnits="userSpaceOnUse">
<stop stop-color="#FFDA4B"/>
<stop offset="1" stop-color="#F9C600"/>
</linearGradient>
<clipPath id="clip0_19752_30447">
<rect width="50" height="50" fill="white"/>
</clipPath>
</defs>
</svg>
