<svg width="14" height="14" viewBox="0 0 14 14" fill="none" xmlns="http://www.w3.org/2000/svg">
<path d="M5.77694 3.03993H7.23597C8.40099 3.03993 8.80567 3.29557 8.94317 3.44792C9.17139 3.70087 9.21444 4.2342 9.06774 4.9901C8.90298 5.83655 8.59751 6.43663 8.15993 6.77361C7.71184 7.11858 6.98336 7.2934 5.99491 7.2934H4.95038L5.77694 3.03993ZM8.27963 0.00173663H2.97981C2.7305 0.00173663 2.51618 0.178472 2.46861 0.423177L0.00958 13.0752C-0.0201075 13.2279 0.0199969 13.3858 0.118868 13.5058C0.217827 13.6259 0.365223 13.6953 0.520778 13.6953H3.27685C3.52616 13.6953 3.74057 13.5186 3.78814 13.2739L4.35993 10.3316H6.29126C7.38345 10.3316 8.3029 10.2125 9.02382 9.97769C9.76522 9.73681 10.4475 9.3283 11.0512 8.76363C11.5506 8.30434 11.9617 7.7888 12.2733 7.23108C12.585 6.67318 12.809 6.05104 12.9389 5.38194C13.2614 3.72352 12.9994 2.39557 12.1604 1.43516C11.3295 0.484028 10.0238 0.00173663 8.27963 0.00173663ZM4.31852 7.81424H5.99491C7.10611 7.81424 7.9338 7.60495 8.47764 7.18628C9.02165 6.76753 9.3884 6.06866 9.57902 5.08932C9.76149 4.14905 9.67842 3.4855 9.32981 3.09896C8.98085 2.71241 8.28302 2.5191 7.23597 2.5191H5.3476L4.31852 7.81424ZM8.27963 0.52257C9.87399 0.52257 11.0371 0.940973 11.7682 1.77786C12.4993 2.61476 12.7193 3.7829 12.4276 5.28264C12.3076 5.90043 12.1045 6.46528 11.8187 6.977C11.5325 7.48906 11.1588 7.95729 10.697 8.38186C10.1466 8.89688 9.53527 9.26389 8.86253 9.48247C8.18979 9.70165 7.33293 9.81076 6.29126 9.81076H3.9305L3.27685 13.1745H0.520778L2.97981 0.52257H8.27963Z" fill="white"/>
</svg>
