<svg width="100" height="100" viewBox="0 0 100 100" fill="none" xmlns="http://www.w3.org/2000/svg">
<rect width="100" height="100" fill="#F5F5F5"/>
<g id="Landing Pages">
<path d="M-71814 -2212C-71814 -2213.1 -71813.1 -2214 -71812 -2214H12535C12536.1 -2214 12537 -2213.1 12537 -2212V14597C12537 14598.1 12536.1 14599 12535 14599H-71812C-71813.1 14599 -71814 14598.1 -71814 14597V-2212Z" fill="#D9D9D9"/>
<path d="M-71812 -2213H12535V-2215H-71812V-2213ZM12536 -2212V14597H12538V-2212H12536ZM12535 14598H-71812V14600H12535V14598ZM-71813 14597V-2212H-71815V14597H-71813ZM-71812 14598C-71812.6 14598 -71813 14597.6 -71813 14597H-71815C-71815 14598.7 -71813.7 14600 -71812 14600V14598ZM12536 14597C12536 14597.6 12535.6 14598 12535 14598V14600C12536.7 14600 12538 14598.7 12538 14597H12536ZM12535 -2213C12535.6 -2213 12536 -2212.55 12536 -2212H12538C12538 -2213.66 12536.7 -2215 12535 -2215V-2213ZM-71812 -2215C-71813.7 -2215 -71815 -2213.66 -71815 -2212H-71813C-71813 -2212.55 -71812.6 -2213 -71812 -2213V-2215Z" fill="black" fill-opacity="0.1"/>
<g id="Blockchain Service" clip-path="url(#clip0_0_1)">
<rect width="1900" height="10293" transform="translate(-407 -1552)" fill="white"/>
<g id="Frame 61">
<rect width="1900" height="2056" transform="translate(-407 -252)" fill="#EFF3F5"/>
<g id="card">
<rect x="-182" y="-40" width="464" height="450" rx="8" fill="#FCFDFD"/>
<g id="Group 6">
<path id="Ellipse 1" d="M100 50C100 77.6142 77.6142 100 50 100C22.3858 100 0 77.6142 0 50C0 22.3858 22.3858 0 50 0C77.6142 0 100 22.3858 100 50Z" fill="#FF5D00" fill-opacity="0.1"/>
<path id="Vector" fill-rule="evenodd" clip-rule="evenodd" d="M67.5996 68.6375L74.787 72.8188L67.5996 77L60.4121 72.8188L67.5996 68.6375ZM27.8014 75.7312H36.1007L40.2503 68.489H31.951L27.8014 75.7312ZM26.1496 60.2864L22 67.528L26.1496 74.7702L30.2993 67.528L26.1496 60.2864ZM30.4474 33.0268L23.2599 28.8456V37.208L30.4474 41.3893V33.0268ZM38.5886 27.1812L31.4011 23L24.2136 27.1812L31.4011 31.3625L38.5886 27.1812ZM71.1986 24.2688H62.8993L58.7497 31.5104H67.049L71.1986 24.2688ZM72.8504 39.7142L77 32.472L72.8504 25.2305L68.7007 32.472L72.8504 39.7142ZM32.3542 33.0261V41.3886L39.5423 37.208V33.8258H56.5487V31.5117H39.5417V28.8449L32.3542 33.0261ZM66.2566 40.6745V56.393H68.5533V40.6745H71.1986L67.049 33.4323H58.7497L62.8993 40.6745H66.2566ZM32.7075 59.3255V43.6077H30.4109V59.3261H27.8021L31.9517 66.5677H40.251L36.1013 59.3261L32.7075 59.3255ZM66.6465 66.9739V58.6114L59.459 62.7926V66.1702H42.452V68.4843H59.4583V71.1558L66.6465 66.9739ZM68.5533 66.9732L75.7414 71.1551V62.792L68.5533 58.6107V66.9732Z" fill="#FF5D00"/>
</g>
</g>
</g>
</g>
</g>
<defs>
<clipPath id="clip0_0_1">
<rect width="1900" height="10293" fill="white" transform="translate(-407 -1552)"/>
</clipPath>
</defs>
</svg>
