<svg width="48" height="48" viewBox="0 0 48 48" fill="none" xmlns="http://www.w3.org/2000/svg">
<path d="M0 8C0 3.58172 3.58172 0 8 0H40C44.4183 0 48 3.58172 48 8V40C48 44.4183 44.4183 48 40 48H8C3.58172 48 0 44.4183 0 40V8Z" fill="#323232"/>
<g clip-path="url(#clip0_15281_21250)">
<path d="M20.5253 14.9691L20.7988 17.0677C20.8295 17.4816 21.1617 17.8058 21.5551 17.8058H26.3781C26.772 17.8058 27.104 17.4814 27.1324 17.0876L27.4101 14.9449C27.4502 14.2979 27.229 13.6666 26.8028 13.2132C26.4204 12.8066 25.9154 12.5827 25.3799 12.5827H25.0685C24.9683 12.5827 24.8728 12.6239 24.8043 12.6967C24.3476 13.18 23.5861 13.18 23.1294 12.6967C23.0607 12.6239 22.965 12.5827 22.865 12.5827H22.5546C22.0193 12.5827 21.514 12.8064 21.1319 13.2125C20.7054 13.6656 20.4836 14.2968 20.5231 14.9446C20.5236 14.9526 20.5243 14.9609 20.5253 14.9691ZM23.633 14.5653H24.3006C24.5014 14.5653 24.664 14.7281 24.664 14.9289C24.664 15.1297 24.5014 15.2926 24.3006 15.2926H23.633C23.4321 15.2926 23.2693 15.1297 23.2693 14.9289C23.2693 14.7282 23.4321 14.5653 23.633 14.5653ZM19.9355 26.6541C19.9355 26.8551 19.7727 27.0177 19.5719 27.0177H19.146C19.223 28.1424 19.6903 29.245 20.5481 30.103C21.3983 30.9528 22.4892 31.4198 23.6032 31.5032V31.049C23.6032 30.848 23.766 30.6854 23.9668 30.6854C24.1676 30.6854 24.3305 30.848 24.3305 31.049V31.5032C25.4446 31.4198 26.5352 30.9531 27.3853 30.103C28.2195 29.2688 28.7113 28.1836 28.7901 27.0177H28.3615C28.1605 27.0177 27.9979 26.8551 27.9979 26.6541C27.9979 26.4531 28.1605 26.2905 28.3615 26.2905H28.7859C28.6943 25.1478 28.205 24.0856 27.3853 23.2658C26.5586 22.4389 25.4848 21.9485 24.3305 21.8633V22.2594C24.3305 22.4602 24.1676 22.6231 23.9668 22.6231C23.766 22.6231 23.6032 22.4602 23.6032 22.2594V21.8633C22.4487 21.9486 21.375 22.4389 20.5481 23.2658C19.7056 24.1083 19.2397 25.1868 19.1504 26.2905H19.5719C19.7727 26.2905 19.9355 26.4531 19.9355 26.6541ZM22.4626 25.8267C22.5619 25.6523 22.784 25.5912 22.9586 25.6907L23.6031 26.0583V23.7901C23.6031 23.5893 23.766 23.4265 23.9668 23.4265C24.1676 23.4265 24.3304 23.5893 24.3304 23.7901V26.6843C24.3304 26.8139 24.2615 26.9336 24.1495 26.9986C24.093 27.0316 24.0298 27.0479 23.9668 27.0479C23.9046 27.0479 23.8425 27.0319 23.7867 27.0004L22.5985 26.3228C22.424 26.223 22.3632 26.0011 22.4626 25.8267ZM34.3 23.1001C34.3 21.927 35.1782 20.9724 36.2574 20.9724C37.337 20.9724 38.2151 21.927 38.2151 23.1001C38.2151 24.2734 37.337 25.2279 36.2574 25.2279C35.1782 25.228 34.3 24.2734 34.3 23.1001ZM28.5173 14.5488C28.593 14.3628 28.805 14.2731 28.9914 14.3494C31.3075 15.2939 33.3078 16.8697 34.7762 18.9066C34.8934 19.0696 34.8568 19.2969 34.6938 19.4143C34.6296 19.4606 34.555 19.4829 34.4815 19.4829C34.3685 19.4829 34.257 19.4306 34.186 19.332C32.7975 17.4057 30.9062 15.9156 28.7166 15.0227C28.5308 14.9469 28.4413 14.7347 28.5173 14.5488ZM22.0092 10.1277C22.0092 8.95456 22.8874 8 23.9668 8C25.0461 8 25.9243 8.95456 25.9243 10.1277C25.9243 11.3008 25.0461 12.2554 23.9668 12.2554C22.8874 12.2554 22.0092 11.3008 22.0092 10.1277ZM14.9092 30.0167L15.1869 27.8736C15.2263 27.2262 15.0044 26.5948 14.5779 26.1413C14.1958 25.7354 13.6906 25.5117 13.1553 25.5117H12.845C12.7448 25.5117 12.6493 25.5529 12.5806 25.6257C12.1239 26.1094 11.3625 26.1094 10.9059 25.6257C10.8372 25.5529 10.7416 25.5117 10.6415 25.5117H10.3303C9.79496 25.5117 9.28958 25.7358 8.90733 26.142C8.48121 26.5955 8.25958 27.2269 8.30202 27.8984L8.57546 29.9967C8.60615 30.4108 8.9384 30.7351 9.33165 30.7351H14.1548C14.5483 30.7351 14.8805 30.4109 14.9092 30.0167ZM13.3895 28.0931H12.7217C12.5209 28.0931 12.3581 27.9304 12.3581 27.7294C12.3581 27.5284 12.5209 27.3658 12.7217 27.3658H13.3895C13.5903 27.3658 13.7531 27.5284 13.7531 27.7294C13.7531 27.9304 13.5903 28.0931 13.3895 28.0931ZM35.675 33.0316C33.3401 37.3299 28.854 40 23.9668 40C19.1381 40 14.6775 37.3767 12.3258 33.1537C12.228 32.9783 12.291 32.7571 12.4666 32.6591C12.6418 32.5628 12.864 32.6243 12.9611 32.8001C15.1846 36.7926 19.4016 39.2728 23.9668 39.2728C28.587 39.2728 32.8285 36.7483 35.0358 32.6843C35.1321 32.5082 35.3519 32.4432 35.5291 32.5384C35.7056 32.6343 35.7709 32.8551 35.675 33.0316ZM39.093 26.1854C38.7109 25.7787 38.2056 25.5551 37.6705 25.5551H37.359C37.2589 25.5551 37.1633 25.5962 37.0945 25.6691C36.6381 26.1528 35.8757 26.1524 35.4201 25.6691C35.3512 25.5962 35.2556 25.5551 35.1555 25.5551H34.8451C34.31 25.5551 33.8046 25.7788 33.4226 26.1847C32.9961 26.6382 32.7741 27.2696 32.8139 27.9169C32.8143 27.9254 32.8153 27.9336 32.8164 27.9418L33.0895 30.0398C33.12 30.4539 33.452 30.7784 33.8458 30.7784H38.669C39.0621 30.7784 39.3945 30.4542 39.4232 30.0601L39.7009 27.9173C39.7411 27.2703 39.5195 26.6389 39.093 26.1854ZM35.2787 28.1364H34.6111C34.4101 28.1364 34.2475 27.9738 34.2475 27.7728C34.2475 27.5718 34.4101 27.4091 34.6111 27.4091H35.2787C35.4797 27.4091 35.6423 27.5718 35.6423 27.7728C35.6423 27.9738 35.4797 28.1364 35.2787 28.1364ZM23.9668 32.8533C27.3686 32.8533 30.136 30.0859 30.136 26.6842C30.136 23.2826 27.3686 20.5151 23.9668 20.5151C20.5651 20.5151 17.7976 23.2826 17.7976 26.6842C17.7976 30.0859 20.5651 32.8533 23.9668 32.8533ZM20.0339 22.7516C21.0843 21.7012 22.4811 21.1226 23.9668 21.1226C25.4524 21.1226 26.849 21.7013 27.8995 22.7516C28.9499 23.802 29.5287 25.1989 29.5287 26.6843C29.5287 28.1698 28.9499 29.5667 27.8995 30.6172C26.8153 31.7014 25.391 32.2436 23.9668 32.2436C22.5424 32.2436 21.1182 31.7014 20.0339 30.6172C17.8653 28.4485 17.8653 24.9201 20.0339 22.7516ZM13.2181 19.446C13.055 19.329 13.0173 19.1019 13.1343 18.9386C14.6003 16.8923 16.6018 15.3079 18.9227 14.3573C19.1091 14.2818 19.3208 14.3702 19.397 14.5559C19.4731 14.7417 19.3841 14.954 19.1983 15.0302C17.0042 15.929 15.1118 17.427 13.7256 19.3623C13.6546 19.4613 13.5429 19.5141 13.4296 19.5141C13.3563 19.514 13.2825 19.492 13.2181 19.446ZM9.78565 23.0568C9.78565 21.8837 10.6638 20.9291 11.7432 20.9291C12.8226 20.9291 13.7008 21.8837 13.7008 23.0568C13.7008 24.2301 12.8226 25.1846 11.7432 25.1846C10.6638 25.1846 9.78565 24.2301 9.78565 23.0568Z" fill="#F5FAFE"/>
</g>
<defs>
<clipPath id="clip0_15281_21250">
<rect width="32" height="32" fill="white" transform="translate(8 8)"/>
</clipPath>
</defs>
</svg>
