<svg width="48" height="48" viewBox="0 0 48 48" fill="none" xmlns="http://www.w3.org/2000/svg">
<path d="M0 8C0 3.58172 3.58172 0 8 0H40C44.4183 0 48 3.58172 48 8V40C48 44.4183 44.4183 48 40 48H8C3.58172 48 0 44.4183 0 40V8Z" fill="#323232"/>
<path d="M16.5 25C14.7766 25.0016 13.1243 25.687 11.9056 26.9056C10.687 28.1243 10.0016 29.7766 10 31.5C10.3558 40.1234 22.6455 40.1209 23 31.5C22.9983 29.7766 22.313 28.1242 21.0944 26.9056C19.8757 25.687 18.2234 25.0016 16.5 25ZM19 32H16.5C16.3675 31.9996 16.2406 31.9468 16.1469 31.8531C16.0532 31.7594 16.0004 31.6325 16 31.5V28C16 27.8674 16.0527 27.7402 16.1464 27.6464C16.2402 27.5527 16.3674 27.5 16.5 27.5C16.6326 27.5 16.7598 27.5527 16.8536 27.6464C16.9473 27.7402 17 27.8674 17 28V31H19C19.1313 31.002 19.2565 31.0556 19.3486 31.1492C19.4407 31.2427 19.4923 31.3687 19.4923 31.5C19.4923 31.6313 19.4407 31.7573 19.3486 31.8508C19.2565 31.9444 19.1313 31.998 19 32Z" fill="#F5FAFE"/>
<path d="M37.5 14.845H36.58C36.4941 14.5818 36.3871 14.326 36.26 14.08L36.91 13.425C36.9564 13.3787 36.9931 13.3238 37.0182 13.2633C37.0433 13.2028 37.0563 13.138 37.0563 13.0725C37.0563 13.007 37.0433 12.9422 37.0182 12.8817C36.9931 12.8212 36.9564 12.7663 36.91 12.72L35.28 11.09C35.1854 10.9986 35.059 10.9475 34.9275 10.9475C34.796 10.9475 34.6696 10.9986 34.575 11.09L33.92 11.74C33.674 11.6129 33.4182 11.5059 33.155 11.42V10.5C33.1546 10.3675 33.1018 10.2406 33.0081 10.1469C32.9144 10.0532 32.7875 10.0004 32.655 10H30.345C30.2125 10.0004 30.0856 10.0532 29.9919 10.1469C29.8982 10.2406 29.8454 10.3675 29.845 10.5V11.42C29.5818 11.5059 29.326 11.6129 29.08 11.74C28.8519 11.5549 28.3648 10.8942 28.075 10.94C28.0089 10.9403 27.9434 10.9536 27.8825 10.9794C27.8215 11.0051 27.7663 11.0427 27.72 11.09L26.09 12.72C26.0436 12.7663 26.0069 12.8212 25.9818 12.8817C25.9567 12.9422 25.9437 13.007 25.9437 13.0725C25.9437 13.138 25.9567 13.2028 25.9818 13.2633C26.0069 13.3238 26.0436 13.3787 26.09 13.425L26.74 14.08C26.6129 14.326 26.5059 14.5818 26.42 14.845H25.5C25.3675 14.8454 25.2406 14.8982 25.1469 14.9919C25.0532 15.0856 25.0004 15.2125 25 15.345V17.655C25.0004 17.7875 25.0532 17.9144 25.1469 18.0081C25.2406 18.1018 25.3675 18.1546 25.5 18.155H26.42C26.5059 18.4182 26.6129 18.674 26.74 18.92L26.09 19.575C26.0436 19.6213 26.0069 19.6762 25.9818 19.7367C25.9567 19.7972 25.9438 19.862 25.9438 19.9275C25.9438 19.993 25.9567 20.0578 25.9818 20.1183C26.0069 20.1788 26.0436 20.2337 26.09 20.28L27.72 21.91C27.8146 22.0014 27.941 22.0525 28.0725 22.0525C28.204 22.0525 28.3304 22.0014 28.425 21.91L29.08 21.26C29.326 21.3871 29.5818 21.4941 29.845 21.58V22.5C29.8454 22.6325 29.8982 22.7594 29.9919 22.8531C30.0856 22.9468 30.2125 22.9996 30.345 23H32.655C32.7875 22.9996 32.9144 22.9468 33.0081 22.8531C33.1018 22.7594 33.1546 22.6325 33.155 22.5V21.58C33.4182 21.4941 33.674 21.3871 33.92 21.26L34.575 21.91C34.6209 21.957 34.6757 21.9943 34.7363 22.0198C34.7968 22.0453 34.8618 22.0584 34.9275 22.0584C34.9932 22.0584 35.0582 22.0453 35.1187 22.0198C35.1793 21.9943 35.2341 21.957 35.28 21.91L36.91 20.28C36.9564 20.2337 36.9931 20.1788 37.0182 20.1183C37.0433 20.0578 37.0562 19.993 37.0562 19.9275C37.0562 19.862 37.0433 19.7972 37.0182 19.7367C36.9931 19.6762 36.9564 19.6213 36.91 19.575L36.26 18.92C36.3871 18.674 36.4941 18.4182 36.58 18.155H37.5C37.6325 18.1546 37.7594 18.1018 37.8531 18.0081C37.9468 17.9144 37.9996 17.7875 38 17.655V15.345C37.9996 15.2125 37.9468 15.0856 37.8531 14.9919C37.7594 14.8982 37.6325 14.8454 37.5 14.845ZM31.5 18.885C28.3481 18.7847 28.3489 14.2149 31.5001 14.115C34.6519 14.2153 34.6512 18.7851 31.5 18.885Z" fill="#F5FAFE"/>
<path d="M16.5 22.9999C16.6326 22.9999 16.7598 22.9472 16.8536 22.8534C16.9473 22.7596 17 22.6325 17 22.4999V18.4999C17.0004 18.1022 17.1586 17.7209 17.4398 17.4397C17.721 17.1585 18.1023 17.0003 18.5 16.9999H21.293L20.6465 17.6464C20.5996 17.6927 20.5623 17.7478 20.5368 17.8086C20.5113 17.8694 20.498 17.9346 20.4978 18.0005C20.4976 18.0664 20.5104 18.1317 20.5356 18.1927C20.5607 18.2536 20.5976 18.309 20.6443 18.3556C20.6909 18.4022 20.7462 18.4391 20.8072 18.4643C20.8681 18.4894 20.9334 18.5022 20.9993 18.502C21.0653 18.5018 21.1305 18.4886 21.1913 18.4631C21.252 18.4375 21.3072 18.4003 21.3535 18.3534C21.4017 18.2868 23.013 16.746 22.9614 16.6909C22.9988 16.5995 23.0085 16.4992 22.9893 16.4023C22.9701 16.3054 22.9228 16.2164 22.8533 16.1462L21.3535 14.6464C21.2591 14.5556 21.1329 14.5056 21.002 14.5069C20.8711 14.5082 20.746 14.5607 20.6534 14.6533C20.5608 14.7459 20.5083 14.871 20.507 15.0019C20.5057 15.1328 20.5558 15.259 20.6465 15.3534L21.293 15.9999H18.5C17.8372 16.0006 17.2018 16.2643 16.7331 16.7329C16.2644 17.2016 16.0008 17.8371 16 18.4999V22.4999C16 22.6325 16.0527 22.7596 16.1464 22.8534C16.2402 22.9472 16.3674 22.9999 16.5 22.9999Z" fill="#F5FAFE"/>
<path d="M31.499 25C31.4333 25 31.3683 25.0129 31.3076 25.038C31.2469 25.0631 31.1918 25.1 31.1454 25.1464C31.0989 25.1928 31.0621 25.248 31.037 25.3086C31.0119 25.3693 30.9989 25.4343 30.999 25.5V29.5C30.9985 29.8977 30.8403 30.279 30.5591 30.5602C30.2779 30.8414 29.8966 30.9996 29.499 31H26.706L27.3525 30.3535C27.4432 30.2591 27.4933 30.1329 27.492 30.002C27.4907 29.8711 27.4381 29.746 27.3455 29.6534C27.253 29.5608 27.1278 29.5083 26.9969 29.507C26.866 29.5057 26.7398 29.5558 26.6454 29.6465C26.5963 29.7138 24.9869 31.2529 25.0375 31.309C25.0001 31.4004 24.9904 31.5008 25.0097 31.5977C25.0289 31.6946 25.0763 31.7837 25.1458 31.8539L26.6455 33.3535C26.7398 33.4442 26.866 33.4943 26.9969 33.493C27.1278 33.4917 27.253 33.4391 27.3456 33.3465C27.4381 33.254 27.4907 33.1288 27.492 32.9979C27.4933 32.867 27.4432 32.7408 27.3525 32.6465L26.706 32H29.499C30.1618 31.9992 30.7972 31.7356 31.2659 31.2669C31.7345 30.7982 31.9982 30.1628 31.999 29.5V25.5C31.999 25.4343 31.986 25.3693 31.9609 25.3086C31.9358 25.248 31.899 25.1928 31.8525 25.1464C31.8061 25.1 31.751 25.0631 31.6903 25.038C31.6296 25.0129 31.5646 25 31.499 25Z" fill="#F5FAFE"/>
</svg>
