<svg width="48" height="48" viewBox="0 0 48 48" fill="none" xmlns="http://www.w3.org/2000/svg">
<path d="M0 8C0 3.58172 3.58172 0 8 0H40C44.4183 0 48 3.58172 48 8V40C48 44.4183 44.4183 48 40 48H8C3.58172 48 0 44.4183 0 40V8Z" fill="#323232"/>
<path d="M32.3672 30.4735L35.4888 35.4132C35.7478 35.1658 36.054 34.9729 36.3891 34.8463L33.1597 29.7295C32.9197 29.9732 32.6557 30.2212 32.3672 30.4735Z" fill="#F5FAFE"/>
<path d="M23.9984 38.9334C24.8821 38.9334 25.5984 38.2171 25.5984 37.3334C25.5984 36.4497 24.8821 35.7334 23.9984 35.7334C23.1148 35.7334 22.3984 36.4497 22.3984 37.3334C22.3984 38.2171 23.1148 38.9334 23.9984 38.9334Z" fill="#F5FAFE"/>
<path d="M10.6664 38.9334C11.5501 38.9334 12.2664 38.2171 12.2664 37.3334C12.2664 36.4497 11.5501 35.7334 10.6664 35.7334C9.78275 35.7334 9.06641 36.4497 9.06641 37.3334C9.06641 38.2171 9.78275 38.9334 10.6664 38.9334Z" fill="#F5FAFE"/>
<path d="M37.3344 38.9334C38.218 38.9334 38.9344 38.2171 38.9344 37.3334C38.9344 36.4497 38.218 35.7334 37.3344 35.7334C36.4507 35.7334 35.7344 36.4497 35.7344 37.3334C35.7344 38.2171 36.4507 38.9334 37.3344 38.9334Z" fill="#F5FAFE"/>
<path d="M24.0018 28.2663C25.4786 28.2663 26.9222 27.8284 28.1501 27.008C29.378 26.1875 30.335 25.0214 30.9001 23.657C31.4653 22.2927 31.6131 20.7914 31.325 19.343C31.0369 17.8946 30.3258 16.5642 29.2816 15.5199C28.2373 14.4757 26.9069 13.7646 25.4585 13.4765C24.0101 13.1884 22.5088 13.3362 21.1445 13.9014C19.7801 14.4665 18.614 15.4235 17.7935 16.6514C16.9731 17.8793 16.5352 19.3229 16.5352 20.7997C16.5373 22.7793 17.3246 24.6773 18.7244 26.0771C20.1242 27.4769 22.0222 28.2642 24.0018 28.2663ZM23.4685 17.1421V16.533C23.4685 16.3916 23.5247 16.2559 23.6247 16.1559C23.7247 16.0559 23.8604 15.9997 24.0018 15.9997C24.1433 15.9997 24.2789 16.0559 24.3789 16.1559C24.479 16.2559 24.5352 16.3916 24.5352 16.533V17.1298C25.1297 17.271 25.6589 17.6094 26.0365 18.0898C26.079 18.1468 26.1097 18.2117 26.1267 18.2807C26.1438 18.3497 26.1469 18.4214 26.1358 18.4916C26.1248 18.5618 26.0998 18.6291 26.0623 18.6895C26.0249 18.7499 25.9758 18.8023 25.9178 18.8434C25.8599 18.8846 25.7943 18.9138 25.7249 18.9292C25.6556 18.9447 25.5838 18.9461 25.5139 18.9334C25.4439 18.9208 25.3772 18.8942 25.3177 18.8554C25.2582 18.8166 25.207 18.7663 25.1672 18.7074C25.0266 18.5324 24.8494 18.3904 24.6481 18.2911C24.4468 18.1919 24.2262 18.1379 24.0018 18.133C23.7189 18.133 23.4476 18.2454 23.2476 18.4454C23.0475 18.6455 22.9352 18.9168 22.9352 19.1997C22.9352 19.4826 23.0475 19.7539 23.2476 19.9539C23.4476 20.154 23.7189 20.2663 24.0018 20.2663C24.5204 20.2657 25.0214 20.4543 25.4107 20.7969C25.8001 21.1394 26.051 21.6122 26.1165 22.1266C26.182 22.6411 26.0574 23.1617 25.7663 23.5908C25.4751 24.0199 25.0374 24.328 24.5352 24.4573V25.0663C24.5352 25.2078 24.479 25.3434 24.3789 25.4435C24.2789 25.5435 24.1433 25.5997 24.0018 25.5997C23.8604 25.5997 23.7247 25.5435 23.6247 25.4435C23.5247 25.3434 23.4685 25.2078 23.4685 25.0663V24.4695C22.8739 24.3284 22.3447 23.99 21.9672 23.5095C21.8848 23.3945 21.8514 23.2515 21.8745 23.1119C21.8975 22.9724 21.9751 22.8477 22.0901 22.7653C22.2051 22.6829 22.3481 22.6495 22.4877 22.6726C22.6273 22.6957 22.752 22.7732 22.8344 22.8882C22.9747 23.0643 23.152 23.2073 23.3537 23.3072C23.5555 23.4071 23.7767 23.4615 24.0018 23.4663C24.2847 23.4663 24.556 23.354 24.7561 23.1539C24.9561 22.9539 25.0685 22.6826 25.0685 22.3997C25.0685 22.1168 24.9561 21.8455 24.7561 21.6454C24.556 21.4454 24.2847 21.333 24.0018 21.333C23.4833 21.3337 22.9823 21.145 22.5929 20.8025C22.2036 20.46 21.9526 19.9871 21.8871 19.4727C21.8217 18.9583 21.9462 18.4377 22.2374 18.0086C22.5285 17.5794 22.9663 17.2713 23.4685 17.1421Z" fill="#F5FAFE"/>
<path d="M24.5315 34.7203V33.5891C24.3667 33.596 24.1987 33.6003 24.028 33.6003C23.8424 33.6003 23.6547 33.5837 23.4648 33.5752V34.7203C23.8168 34.6484 24.1796 34.6484 24.5315 34.7203Z" fill="#F5FAFE"/>
<path d="M14.1802 18.6991C14.1619 18.7848 14.1227 18.8647 14.0661 18.9317C14.0096 18.9986 13.9374 19.0507 13.8559 19.0831L12.4277 19.6543C12.3975 19.6658 12.3709 19.6849 12.3505 19.7097C12.33 19.7346 12.3163 19.7644 12.3109 19.7961C12.2505 20.4623 12.2505 21.1326 12.3109 21.7988C12.3158 21.8319 12.3296 21.8631 12.3507 21.8891C12.3718 21.9151 12.3995 21.9349 12.4309 21.9465L13.8565 22.5167C13.9379 22.5491 14.0101 22.6011 14.0667 22.6681C14.1232 22.7351 14.1624 22.815 14.1807 22.9007C14.4348 24.0946 14.9062 25.2315 15.5717 26.2548C15.6192 26.3281 15.648 26.412 15.6555 26.499C15.6631 26.5861 15.6491 26.6736 15.6149 26.754L15.0106 28.1695C14.9963 28.1978 14.9901 28.2295 14.9924 28.2612C14.9948 28.2928 15.0057 28.3233 15.0239 28.3492C15.4549 28.8624 15.9295 29.3373 16.4426 29.7684C16.4685 29.789 16.4998 29.8019 16.5327 29.8054C16.5657 29.809 16.5989 29.8032 16.6287 29.7887L18.0453 29.1844C18.1256 29.1502 18.2132 29.1362 18.3002 29.1437C18.3873 29.1513 18.4712 29.1801 18.5445 29.2276C19.5678 29.8928 20.7047 30.3641 21.8986 30.618C21.9843 30.6363 22.0642 30.6755 22.1312 30.7321C22.1982 30.7886 22.2502 30.8608 22.2826 30.9423L22.8527 32.3732C22.8641 32.4034 22.8832 32.43 22.9081 32.4505C22.933 32.471 22.9628 32.4846 22.9946 32.49C23.6608 32.5503 24.3311 32.5503 24.9973 32.49C25.0302 32.4852 25.0613 32.4716 25.0872 32.4507C25.1131 32.4298 25.1328 32.4023 25.1445 32.3711L25.7151 30.9444C25.7476 30.863 25.7996 30.7908 25.8665 30.7342C25.9335 30.6777 26.0134 30.6385 26.0991 30.6201C27.2932 30.3653 28.4302 29.8929 29.4533 29.2265C29.5266 29.179 29.6104 29.1502 29.6975 29.1427C29.7845 29.1351 29.8721 29.1491 29.9525 29.1833L31.3679 29.7876C31.3962 29.8021 31.428 29.8086 31.4597 29.8062C31.4914 29.8039 31.5218 29.7928 31.5477 29.7743C32.0608 29.3432 32.5356 28.8685 32.9669 28.3556C32.9876 28.3297 33.0005 28.2985 33.0041 28.2655C33.0077 28.2325 33.0018 28.1992 32.9871 28.1695L32.3829 26.7529C32.3486 26.6726 32.3347 26.585 32.3422 26.498C32.3497 26.4109 32.3785 26.3271 32.4261 26.2537C33.0913 25.2304 33.5626 24.0935 33.8165 22.8996C33.8348 22.8139 33.874 22.734 33.9305 22.667C33.9871 22.6 34.0593 22.548 34.1407 22.5156L35.5717 21.9455C35.6017 21.9341 35.6283 21.9151 35.6488 21.8903C35.6693 21.8655 35.6829 21.8358 35.6885 21.8041C35.749 21.138 35.749 20.4677 35.6885 19.8015V19.7961C35.6828 19.764 35.6687 19.7338 35.6478 19.7088C35.6268 19.6837 35.5996 19.6645 35.569 19.6532L34.1434 19.0831C34.0619 19.0507 33.9897 18.9986 33.9332 18.9317C33.8766 18.8647 33.8375 18.7848 33.8191 18.6991C33.5641 17.505 33.0915 16.368 32.425 15.3449C32.3774 15.2716 32.3486 15.1878 32.3411 15.1007C32.3336 15.0137 32.3476 14.9261 32.3818 14.8457L32.9861 13.4303C33.0003 13.4019 33.0066 13.3702 33.0042 13.3386C33.0019 13.3069 32.991 13.2765 32.9727 13.2505C32.5418 12.7373 32.0671 12.2625 31.5541 11.8313C31.5282 11.8105 31.497 11.7975 31.464 11.7939C31.431 11.7903 31.3976 11.7963 31.3679 11.8111L29.9525 12.4153C29.8721 12.4496 29.7845 12.4636 29.6975 12.456C29.6104 12.4485 29.5266 12.4197 29.4533 12.3721C28.4299 11.7069 27.293 11.2356 26.0991 10.9817C26.0134 10.9634 25.9335 10.9242 25.8665 10.8677C25.7996 10.8111 25.7476 10.7389 25.7151 10.6575L25.1439 9.22921C25.1326 9.19909 25.1136 9.17245 25.0888 9.15195C25.064 9.13146 25.0343 9.11782 25.0026 9.11241C24.3364 9.05237 23.6661 9.05237 22.9999 9.11241C22.9668 9.1174 22.9355 9.13115 22.9095 9.15224C22.8834 9.17334 22.8634 9.20102 22.8517 9.23241L22.2815 10.6575C22.2491 10.7389 22.1971 10.8111 22.1301 10.8677C22.0631 10.9242 21.9832 10.9634 21.8975 10.9817C20.7036 11.2359 19.5666 11.7076 18.5434 12.3732C18.4702 12.421 18.3863 12.45 18.2992 12.4575C18.2121 12.465 18.1245 12.4509 18.0442 12.4164L16.6287 11.8111C16.6004 11.7967 16.5687 11.7903 16.537 11.7926C16.5053 11.795 16.4749 11.806 16.449 11.8244C15.936 12.256 15.461 12.7308 15.0293 13.2436C15.0087 13.2695 14.996 13.3007 14.9925 13.3335C14.989 13.3664 14.9949 13.3996 15.0095 13.4292L15.6138 14.8457C15.648 14.9261 15.662 15.0137 15.6545 15.1007C15.6469 15.1878 15.6181 15.2716 15.5706 15.3449C14.9054 16.3683 14.4341 17.5052 14.1802 18.6991ZM23.9983 12.2665C25.6861 12.2665 27.3359 12.767 28.7392 13.7047C30.1425 14.6423 31.2362 15.9751 31.8821 17.5343C32.528 19.0936 32.697 20.8093 32.3677 22.4646C32.0384 24.12 31.2257 25.6404 30.0323 26.8339C28.8389 28.0273 27.3184 28.84 25.6631 29.1692C24.0078 29.4985 22.292 29.3295 20.7328 28.6837C19.1735 28.0378 17.8408 26.944 16.9031 25.5407C15.9655 24.1374 15.465 22.4876 15.465 20.7999C15.4677 18.5375 16.3676 16.3686 17.9673 14.7689C19.567 13.1691 21.736 12.2692 23.9983 12.2665Z" fill="#F5FAFE"/>
<path d="M12.5096 35.4129L15.6307 30.4742C15.3694 30.2509 15.1057 30.002 14.8398 29.7275L11.6094 34.8475C11.9443 34.9737 12.2505 35.166 12.5096 35.4129Z" fill="#F5FAFE"/>
</svg>
