<svg width="50" height="50" viewBox="0 0 50 50" fill="none" xmlns="http://www.w3.org/2000/svg">
<path d="M0 8C0 3.58172 3.58172 0 8 0H42C46.4183 0 50 3.58172 50 8V42C50 46.4183 46.4183 50 42 50H8C3.58172 50 0 46.4183 0 42V8Z" fill="#FFF0E3"/>
<path d="M19 27.2576L19.9144 28.7424L21.0019 28.1531C21.3368 27.9714 21.7582 28.0083 22.0521 28.2435C22.48 28.585 22.9594 28.8462 23.4773 29.0185C23.8419 29.14 24.0855 29.4638 24.0855 29.8263V31H25.9143V29.8272C25.9143 29.465 26.1572 29.1417 26.5215 29.0203C27.0404 28.8462 27.52 28.585 27.9477 28.2435C28.2415 28.0085 28.663 27.9717 28.9978 28.1531L30.0856 28.7424L31 27.2576L29.9284 26.6775C29.5936 26.496 29.4157 26.1359 29.4865 25.7795C29.6005 25.2007 29.6005 24.7993 29.4865 24.2208C29.4157 23.8643 29.5936 23.5042 29.9284 23.3225L31 22.7426L30.0856 21.2576L28.9978 21.8469C28.663 22.027 28.2415 21.9917 27.9477 21.7565C27.52 21.415 27.0404 21.1538 26.5215 20.9797C26.1572 20.8585 25.9143 20.5353 25.9143 20.1728V19H24.0855V20.1728C24.0855 20.535 23.8426 20.8583 23.4782 20.9797C22.9594 21.1538 22.48 21.415 22.0521 21.7565C21.7585 21.9915 21.337 22.0268 21.0019 21.8469L19.9144 21.2576L19 22.7424L20.0716 23.3225C20.4064 23.504 20.584 23.8641 20.5135 24.2205C20.3995 24.7993 20.3995 25.2007 20.5135 25.7792C20.584 26.1357 20.4064 26.4958 20.0716 26.6775L19 27.2576ZM24.9999 22.4286C26.5125 22.4286 27.7431 23.5821 27.7431 25C27.7431 26.4179 26.5125 27.5714 24.9999 27.5714C23.4873 27.5714 22.2566 26.4179 22.2566 25C22.2566 23.5821 23.4873 22.4286 24.9999 22.4286Z" fill="#FF8214"/>
<path d="M14 35H36V15H14V35ZM19.0992 24.4896L17.869 23.7261C17.4639 23.4747 17.3251 22.919 17.5589 22.4839L19.2512 19.334C19.4857 18.8989 20.0037 18.7502 20.4074 19.0012L21.6575 19.7772C21.9137 19.5871 22.1824 19.4195 22.4615 19.2756V17.7273C22.4615 17.2249 22.8401 16.8182 23.3077 16.8182H26.6923C27.1599 16.8182 27.5385 17.2249 27.5385 17.7273V19.2756C27.8176 19.4195 28.0863 19.5871 28.3425 19.7772L29.5926 19.0012C29.9927 18.7524 30.5132 18.8968 30.7488 19.334L32.4411 22.4839C32.6749 22.919 32.5361 23.4749 32.1311 23.7261L30.9008 24.4896C30.9303 24.8433 30.9306 25.1553 30.9008 25.5104L32.1311 26.2739C32.5361 26.5253 32.6749 27.081 32.4411 27.5161L30.7488 30.666C30.5117 31.1058 29.9927 31.2457 29.5926 30.9988L28.3425 30.2228C28.0863 30.4129 27.8176 30.5805 27.5385 30.7244V32.2727C27.5385 32.7751 27.1599 33.1818 26.6923 33.1818H23.3077C22.8401 33.1818 22.4615 32.7751 22.4615 32.2727V30.7244C22.1824 30.5805 21.9137 30.4129 21.6575 30.2228L20.4074 30.9988C20.0073 31.2457 19.4883 31.1058 19.2512 30.666L17.5589 27.5161C17.3251 27.081 17.4639 26.5251 17.869 26.2739L19.0992 25.5104C19.0697 25.1567 19.0694 24.8447 19.0992 24.4896Z" fill="#FF8214"/>
<path d="M33.4615 10H16.5385C15.1388 10 14 11.0094 14 12.25V13H36V12.25C36 11.0094 34.8612 10 33.4615 10Z" fill="#FF8214"/>
<path d="M14 37C14 38.6542 15.1388 40 16.5385 40H33.4615C34.8612 40 36 38.6542 36 37V36H14V37Z" fill="#FF8214"/>
<path d="M25 26C25.5518 26 26 25.5518 26 25C26 24.4482 25.5518 24 25 24C24.4482 24 24 24.4482 24 25C24 25.5518 24.4482 26 25 26Z" fill="#FF8214"/>
</svg>
