<svg width="50" height="50" viewBox="0 0 50 50" fill="none" xmlns="http://www.w3.org/2000/svg">
<path d="M0 8C0 3.58172 3.58172 0 8 0H42C46.4183 0 50 3.58172 50 8V42C50 46.4183 46.4183 50 42 50H8C3.58172 50 0 46.4183 0 42V8Z" fill="#FFF0E3"/>
<g clip-path="url(#clip0_5330_6384)">
<path d="M35.1265 13.9357C32.5361 11.5356 29.1756 10.1364 25.6473 9.98877V13.2507C28.3084 13.3959 30.8402 14.4454 32.8236 16.2256L35.1265 13.9357Z" fill="#FF8214"/>
<path d="M36.7379 24.3413H39.9999C39.8612 20.8172 38.4738 17.4572 36.0855 14.8621L33.7435 17.165C35.5308 19.1456 36.5873 21.6777 36.7379 24.3413Z" fill="#FF8214"/>
<path d="M17.1662 33.7422L14.8633 36.0842C24.2055 44.6436 39.4388 38.3285 39.9999 25.646H36.7379C36.1834 35.4318 24.4926 40.2856 17.1662 33.7422Z" fill="#FF8214"/>
<path d="M16.2529 17.165L13.9369 14.8621C11.4045 17.6285 9.99988 21.2431 9.99988 24.9937C9.99988 28.7442 11.4045 32.3588 13.9369 35.1253L16.2464 32.8224C14.3121 30.6732 13.2424 27.8838 13.2436 24.9924C13.2448 22.101 14.3169 19.3125 16.2529 17.165Z" fill="#FF8214"/>
<path d="M24.3425 13.2507V9.98877C20.8184 10.1274 17.4585 11.5149 14.8633 13.9031L17.1662 16.2517C19.1445 14.4598 21.6775 13.4005 24.3425 13.2507Z" fill="#FF8214"/>
<path d="M18.471 23.8389C18.4721 25.9129 19.0941 27.939 20.2568 29.6563C21.4195 31.3736 23.0697 32.7035 24.9949 33.4747C26.9201 32.7035 28.5703 31.3736 29.733 29.6563C30.8958 27.939 31.5177 25.9129 31.5188 23.8389V19.1222L24.9949 17.8174L18.471 19.1222V23.8389ZM22.1962 24.5305L23.7227 26.0636L27.8328 22.5407C27.9643 22.4282 28.1351 22.3726 28.3076 22.3861C28.4801 22.3995 28.6402 22.481 28.7527 22.6124C28.8651 22.7439 28.9208 22.9147 28.9073 23.0872C28.8938 23.2598 28.8124 23.4199 28.6809 23.5323L24.1142 27.4467C23.9895 27.5542 23.8287 27.6106 23.6642 27.6046C23.4996 27.5985 23.3434 27.5304 23.2269 27.414L21.2698 25.4569C21.1469 25.334 21.0779 25.1674 21.0779 24.9937C21.0779 24.8199 21.1469 24.6533 21.2698 24.5305C21.3926 24.4076 21.5592 24.3386 21.733 24.3386C21.9067 24.3386 22.0733 24.4076 22.1962 24.5305Z" fill="#FF8214"/>
</g>
<defs>
<clipPath id="clip0_5330_6384">
<rect width="30" height="30" fill="white" transform="translate(10 10)"/>
</clipPath>
</defs>
</svg>
