<svg width="50" height="50" viewBox="0 0 50 50" fill="none" xmlns="http://www.w3.org/2000/svg">
<path d="M0 8C0 3.58172 3.58172 0 8 0H42C46.4183 0 50 3.58172 50 8V42C50 46.4183 46.4183 50 42 50H8C3.58172 50 0 46.4183 0 42V8Z" fill="#FFF0E3"/>
<path fill-rule="evenodd" clip-rule="evenodd" d="M13.75 23.1335C13.75 22.618 14.1697 22.2002 14.6875 22.2002H21.25C21.7678 22.2002 22.1875 22.618 22.1875 23.1335V34.3335C22.1875 34.849 21.7678 35.2669 21.25 35.2669H14.6875C14.1697 35.2669 13.75 34.849 13.75 34.3335V23.1335ZM15.625 26.8054L16.8575 28.7335L15.625 30.6617V26.8054ZM19.8405 33.4002L17.9688 30.472L16.097 33.4002H19.8405ZM19.08 28.7335L20.3125 30.6617V26.8054L19.08 28.7335ZM17.9688 26.9951L19.8405 24.0669H16.097L17.9688 26.9951Z" fill="#FF8214"/>
<path fill-rule="evenodd" clip-rule="evenodd" d="M23.1251 23.1335C23.1251 22.618 23.5448 22.2002 24.0626 22.2002H35.3126C35.8303 22.2002 36.2501 22.618 36.2501 23.1335V34.3335C36.2501 34.849 35.8303 35.2669 35.3126 35.2669H24.0626C23.5448 35.2669 23.1251 34.849 23.1251 34.3335V23.1335ZM25.0001 25.7218L28.3002 28.7335L25.0001 31.7452V25.7218ZM33.4137 33.4002L29.6876 29.9997L25.9614 33.4002H33.4137ZM31.075 28.7335L34.3751 31.7452V25.7218L31.075 28.7335ZM33.4138 24.0669H25.9613L29.6876 27.4674L33.4138 24.0669Z" fill="#FF8214"/>
<path fill-rule="evenodd" clip-rule="evenodd" d="M10.0001 13.7819C10.0098 12.2438 11.2653 11 12.8125 11H37.1875C38.7408 11 40 12.2536 40 13.8V36.2C40 37.7464 38.7408 39 37.1875 39H12.8125C11.2592 39 10 37.7464 10 36.2V13.8L10.0001 13.7819ZM11.875 20.3333V36.2C11.875 36.7155 12.2947 37.1333 12.8125 37.1333H37.1875C37.7053 37.1333 38.125 36.7155 38.125 36.2V20.3333H11.875ZM15.625 15.6667C15.625 16.1821 15.2053 16.6 14.6875 16.6C14.1697 16.6 13.75 16.1821 13.75 15.6667C13.75 15.1512 14.1697 14.7333 14.6875 14.7333C15.2053 14.7333 15.625 15.1512 15.625 15.6667ZM17.5 16.6C18.0178 16.6 18.4375 16.1821 18.4375 15.6667C18.4375 15.1512 18.0178 14.7333 17.5 14.7333C16.9822 14.7333 16.5625 15.1512 16.5625 15.6667C16.5625 16.1821 16.9822 16.6 17.5 16.6ZM21.25 15.6667C21.25 16.1821 20.8303 16.6 20.3125 16.6C19.7947 16.6 19.375 16.1821 19.375 15.6667C19.375 15.1512 19.7947 14.7333 20.3125 14.7333C20.8303 14.7333 21.25 15.1512 21.25 15.6667Z" fill="#FF8214"/>
<path d="M25 26C25.5518 26 26 25.5518 26 25C26 24.4482 25.5518 24 25 24C24.4482 24 24 24.4482 24 25C24 25.5518 24.4482 26 25 26Z" fill="#FF8214"/>
</svg>
