<svg width="50" height="50" viewBox="0 0 50 50" fill="none" xmlns="http://www.w3.org/2000/svg">
<path d="M0 8C0 3.58172 3.58172 0 8 0H42C46.4183 0 50 3.58172 50 8V42C50 46.4183 46.4183 50 42 50H8C3.58172 50 0 46.4183 0 42V8Z" fill="#FFF0E3"/>
<g clip-path="url(#clip0_5330_6276)">
<path d="M22.702 20.3499C22.702 21.8979 21.442 23.152 19.9 23.152C18.358 23.152 17.098 21.8979 17.098 20.3499C17.098 18.808 18.358 17.554 19.9 17.554C21.442 17.554 22.702 18.808 22.702 20.3499Z" fill="#FF8214"/>
<path d="M23.8 25.846V26.95C23.8 27.2861 23.53 27.55 23.2 27.55H16.6C16.27 27.55 16 27.2861 16 26.95V25.846C16 24.82 16.462 23.9021 17.194 23.29C17.908 23.95 18.856 24.3521 19.9 24.3521C20.944 24.3521 21.892 23.95 22.606 23.29C23.338 23.9021 23.8 24.82 23.8 25.846Z" fill="#FF8214"/>
<path d="M32.512 14.08C32.338 14.062 32.158 14.056 31.978 14.056C30.76 14.056 29.614 14.38 28.624 14.95H13.6C12.94 14.95 12.4 15.49 12.4 16.15V28.15H24.52C23.44 29.476 22.798 31.15 22.756 32.95H14.164C11.866 32.95 10 31.084 10 28.786C10 28.456 10.27 28.15 10.6 28.15H11.2V16.15C11.2 14.83 12.274 13.75 13.6 13.75H31.978C32.212 13.75 32.416 13.882 32.512 14.08Z" fill="#FF8214"/>
<path d="M37.5279 20.8061C37.5279 23.8661 35.0379 26.3501 31.9779 26.3501C28.9179 26.3501 26.4279 23.8661 26.4279 20.8061C26.4279 17.7461 28.9179 15.2561 31.9779 15.2561C35.0379 15.2561 37.5279 17.7461 37.5279 20.8061Z" fill="#FF8214"/>
<path d="M40 33.16V35.65C40 35.986 39.73 36.25 39.4 36.25H24.55C24.22 36.25 23.95 35.986 23.95 35.65V33.16C23.95 30.13 25.954 27.556 28.702 26.698C29.674 27.244 30.79 27.55 31.978 27.55C33.166 27.55 34.282 27.244 35.254 26.704C38.002 27.562 40 30.13 40 33.16Z" fill="#FF8214"/>
<path d="M25 26C25.5518 26 26 25.5518 26 25C26 24.4482 25.5518 24 25 24C24.4482 24 24 24.4482 24 25C24 25.5518 24.4482 26 25 26Z" fill="#FF8214"/>
</g>
<defs>
<clipPath id="clip0_5330_6276">
<rect width="30" height="30" fill="white" transform="translate(10 10)"/>
</clipPath>
</defs>
</svg>
