<svg width="50" height="50" viewBox="0 0 50 50" fill="none" xmlns="http://www.w3.org/2000/svg">
<path d="M0 8C0 3.58172 3.58172 0 8 0H42C46.4183 0 50 3.58172 50 8V42C50 46.4183 46.4183 50 42 50H8C3.58172 50 0 46.4183 0 42V8Z" fill="#FFF0E3"/>
<path d="M20.7143 22.8571V27.1428C20.7143 27.7342 20.2354 28.2142 19.6429 28.2142H11.0714C10.4789 28.2142 10 27.7342 10 27.1428V22.8571C10 22.2656 10.4789 21.7856 11.0714 21.7856H19.6429C20.2354 21.7856 20.7143 22.2656 20.7143 22.8571ZM37.8571 14.2856H16.4286C15.25 14.2856 14.2857 15.2499 14.2857 16.4285V19.6428H19.6429C21.4107 19.6428 22.8571 21.0892 22.8571 22.8571V27.1428C22.8571 28.9106 21.4107 30.3571 19.6429 30.3571H14.2857V33.5714C14.2857 34.7499 15.25 35.7142 16.4286 35.7142H37.8571C39.0357 35.7142 40 34.7499 40 33.5714V16.4285C40 15.2499 39.0357 14.2856 37.8571 14.2856ZM35.7143 21.2499C35.7143 21.5499 35.4786 21.7856 35.1786 21.7856H30.3571C29.7679 21.7856 29.2857 22.2678 29.2857 22.8571C29.2857 23.4464 29.7679 23.9285 30.3571 23.9285H32.3714C33.925 23.9285 35.3607 24.9785 35.65 26.4999C36.0464 28.5571 34.4821 30.3571 32.5 30.3571V31.9642C32.5 32.2642 32.2643 32.4999 31.9643 32.4999H30.8929C30.5929 32.4999 30.3571 32.2642 30.3571 31.9642V30.3571H27.6786C27.3786 30.3571 27.1429 30.1214 27.1429 29.8214V28.7499C27.1429 28.4499 27.3786 28.2142 27.6786 28.2142H32.5C33.0893 28.2142 33.5714 27.7321 33.5714 27.1428C33.5714 26.5535 33.0893 26.0714 32.5 26.0714H30.4857C28.9321 26.0714 27.4964 25.0214 27.2071 23.4999C26.8107 21.4428 28.375 19.6428 30.3571 19.6428V18.0356C30.3571 17.7356 30.5929 17.4999 30.8929 17.4999H31.9643C32.2643 17.4999 32.5 17.7356 32.5 18.0356V19.6428H35.1786C35.4786 19.6428 35.7143 19.8785 35.7143 20.1785V21.2499Z" fill="#FF8214"/>
</svg>
