<svg width="50" height="50" viewBox="0 0 50 50" fill="none" xmlns="http://www.w3.org/2000/svg">
<path d="M0 8C0 3.58172 3.58172 0 8 0H42C46.4183 0 50 3.58172 50 8V42C50 46.4183 46.4183 50 42 50H8C3.58172 50 0 46.4183 0 42V8Z" fill="#FFF0E3"/>
<path fill-rule="evenodd" clip-rule="evenodd" d="M29.9409 14.7566C30.2868 14.3984 30.7006 14.1128 31.1581 13.9162C31.6156 13.7197 32.1078 13.6162 32.6056 13.6119C33.1036 13.6076 33.5975 13.7025 34.0582 13.891C34.5191 14.0796 34.9378 14.358 35.2899 14.7101C35.642 15.0622 35.9205 15.4809 36.1091 15.9418C36.2975 16.4026 36.3924 16.8964 36.3881 17.3943C36.3838 17.8923 36.2805 18.3843 36.0838 18.8419C35.8873 19.2994 35.6017 19.7132 35.2434 20.0591L29.6184 25.6841C28.9153 26.387 27.9616 26.7821 26.9671 26.7821C25.9728 26.7821 25.0192 26.387 24.316 25.6841C23.9623 25.3425 23.4887 25.1535 22.9971 25.1578C22.5054 25.1621 22.0352 25.3594 21.6875 25.707C21.3399 26.0546 21.1427 26.5249 21.1384 27.0165C21.1341 27.5081 21.3231 27.9817 21.6647 28.3354C23.0712 29.7414 24.9785 30.5312 26.9671 30.5312C28.9559 30.5312 30.8632 29.7414 32.2696 28.3354L37.8947 22.7103C39.261 21.2958 40.0168 19.4013 39.9997 17.4348C39.9827 15.4684 39.1938 13.5873 37.8033 12.1967C36.4128 10.8061 34.5316 10.0174 32.5651 10.0003C30.5988 9.9832 28.7041 10.7392 27.2896 12.1053L24.4772 14.9178C24.2981 15.0908 24.1553 15.2977 24.057 15.5265C23.9587 15.7552 23.907 16.0013 23.9049 16.2502C23.9027 16.4992 23.9501 16.7461 24.0444 16.9765C24.1387 17.2069 24.2779 17.4163 24.454 17.5923C24.63 17.7684 24.8394 17.9076 25.0698 18.0019C25.3003 18.0961 25.5472 18.1436 25.796 18.1414C26.045 18.1393 26.291 18.0875 26.5198 17.9893C26.7485 17.891 26.9555 17.7482 27.1284 17.5691L29.9409 14.7566ZM20.5659 24.1316C21.2692 23.4286 22.2228 23.0336 23.2172 23.0336C24.2115 23.0336 25.1653 23.4286 25.8684 24.1316C26.0414 24.3107 26.2483 24.4535 26.477 24.5518C26.7058 24.65 26.9519 24.7018 27.2008 24.7039C27.4498 24.7061 27.6967 24.6586 27.9271 24.5644C28.1576 24.4701 28.3668 24.3309 28.5429 24.1548C28.7189 23.9788 28.8583 23.7694 28.9526 23.539C29.0467 23.3086 29.0941 23.0617 29.0921 22.8127C29.0898 22.5637 29.0381 22.3177 28.9398 22.089C28.8416 21.8602 28.6987 21.6533 28.5196 21.4803C27.1132 20.0743 25.2059 19.2844 23.2172 19.2844C21.2285 19.2844 19.3211 20.0743 17.9147 21.4803L12.2897 27.1054C11.5734 27.7972 11.002 28.6247 10.6089 29.5399C10.2158 30.4549 10.0089 31.439 10.0003 32.4349C9.99164 33.4307 10.1814 34.4182 10.5585 35.34C10.9356 36.2617 11.4925 37.0991 12.1967 37.8033C12.9009 38.5074 13.7383 39.0643 14.66 39.4415C15.5818 39.8186 16.5693 40.0083 17.5652 39.9997C18.561 39.9911 19.5452 39.7841 20.4602 39.3911C21.3753 38.9981 22.2028 38.4266 22.8947 37.7103L25.7071 34.8979C25.8862 34.7248 26.0291 34.518 26.1273 34.2892C26.2256 34.0605 26.2773 33.8145 26.2796 33.5655C26.2816 33.3165 26.2342 33.0695 26.1401 32.8391C26.0458 32.6087 25.9064 32.3994 25.7304 32.2234C25.5543 32.0473 25.3451 31.908 25.1146 31.8139C24.8842 31.7195 24.6373 31.6721 24.3883 31.6742C24.1394 31.6764 23.8933 31.7282 23.6646 31.8264C23.4358 31.9247 23.2289 32.0675 23.0559 32.2466L20.2434 35.0591C19.8975 35.4172 19.4837 35.703 19.0262 35.8995C18.5687 36.096 18.0766 36.1995 17.5787 36.2038C17.0808 36.2081 16.587 36.1132 16.1261 35.9246C15.6652 35.7362 15.2465 35.4577 14.8945 35.1056C14.5423 34.7535 14.2639 34.3348 14.0753 33.8739C13.8868 33.413 13.7919 32.9192 13.7962 32.4214C13.8006 31.9234 13.904 31.4314 14.1005 30.9739C14.2971 30.5164 14.5828 30.1025 14.9409 29.7566L20.5659 24.1316Z" fill="#FF8214"/>
</svg>
