<svg width="50" height="50" viewBox="0 0 50 50" fill="none" xmlns="http://www.w3.org/2000/svg">
<path d="M0 8C0 3.58172 3.58172 0 8 0H42C46.4183 0 50 3.58172 50 8V42C50 46.4183 46.4183 50 42 50H8C3.58172 50 0 46.4183 0 42V8Z" fill="#FFF0E3"/>
<path d="M34.0486 10H15.9514C14.4977 10 13.3152 11.183 13.3152 12.6367V38.8264C13.3152 39.2893 13.5883 39.7094 14.0113 39.8975C14.4297 40.0833 14.9195 40.0077 15.2629 39.7047L16.9692 38.2299L18.8389 39.72C19.2742 40.0903 19.907 40.0932 20.3453 39.7293L22.3492 38.2112L24.2418 39.72C24.6766 40.0897 25.31 40.0938 25.7482 39.7293L27.7522 38.2118L29.6447 39.72C30.0795 40.0903 30.7129 40.0932 31.1518 39.7293L33.1287 38.2311C33.1305 38.2329 34.7254 39.6942 34.7277 39.6959C35.0705 40.0059 35.5656 40.085 35.9887 39.8975C36.4117 39.7094 36.6848 39.2893 36.6848 38.8264V12.6367C36.6848 11.183 35.5023 10 34.0486 10ZM17.2311 20.9746C17.5088 20.5949 18.0455 20.5158 18.4399 20.7719C18.8916 21.0654 19.0604 21.09 19.6803 21.0859C20.2375 21.0824 20.5609 20.667 20.6254 20.2832C20.6711 20.0113 20.6201 19.6498 20.1186 19.4728C19.3463 19.1998 18.5547 18.8869 17.9963 18.4486C17.4121 17.991 17.1443 17.2041 17.2967 16.3961C17.4567 15.5453 18.0414 14.8645 18.8283 14.6031V14.4338C18.8283 13.3164 20.5861 13.1699 20.5861 14.5621C20.7063 14.5961 20.8135 14.633 20.9102 14.6723C21.4727 14.902 21.6408 15.6186 21.2424 16.0773C20.957 16.4055 20.5592 16.4734 20.2352 16.3439C19.0123 15.8553 18.8981 16.9223 19.0809 17.0658C19.4406 17.3482 20.1033 17.6031 20.7045 17.8158C23.1443 18.6777 22.7922 21.918 20.5861 22.6914V22.8584C20.5861 23.3576 20.1695 23.7602 19.665 23.7361C19.1922 23.7139 18.8283 23.3066 18.8283 22.8332V22.7969C18.376 22.7289 17.9793 22.5713 17.4584 22.2303C17.0389 21.956 16.9311 21.3842 17.2311 20.9746ZM31.7236 34.4583H18.2764C17.7912 34.4583 17.3975 34.0645 17.3975 33.5793C17.3975 33.0942 17.7912 32.7004 18.2764 32.7004H31.7236C32.2094 32.7004 32.6025 33.0942 32.6025 33.5793C32.6025 34.0645 32.2094 34.4583 31.7236 34.4583ZM31.7236 30.8864H18.2764C17.7912 30.8864 17.3975 30.4932 17.3975 30.0075C17.3975 29.5223 17.7912 29.1286 18.2764 29.1286H31.7236C32.2094 29.1286 32.6025 29.5223 32.6025 30.0075C32.6025 30.4932 32.2094 30.8864 31.7236 30.8864ZM31.7236 27.3144H18.2764C17.7912 27.3144 17.3975 26.9213 17.3975 26.4355C17.3975 25.9504 17.7912 25.5572 18.2764 25.5572H31.7236C32.2094 25.5572 32.6025 25.9504 32.6025 26.4355C32.6025 26.9213 32.2094 27.3144 31.7236 27.3144ZM31.7236 22.9668H24.6684C24.1826 22.9668 23.7895 22.5736 23.7895 22.0885C23.7895 21.6027 24.1826 21.2096 24.6684 21.2096H31.7236C32.2094 21.2096 32.6025 21.6027 32.6025 22.0885C32.6025 22.5736 32.2094 22.9668 31.7236 22.9668ZM31.7236 19.14H24.6684C24.1826 19.14 23.7895 18.7463 23.7895 18.2611C23.7895 17.776 24.1826 17.3822 24.6684 17.3822H31.7236C32.2094 17.3822 32.6025 17.776 32.6025 18.2611C32.6025 18.7463 32.2094 19.14 31.7236 19.14ZM31.7236 15.3127H24.6684C24.1826 15.3127 23.7895 14.9195 23.7895 14.4338C23.7895 13.9486 24.1826 13.5555 24.6684 13.5555H31.7236C32.2094 13.5555 32.6025 13.9486 32.6025 14.4338C32.6025 14.9195 32.2094 15.3127 31.7236 15.3127Z" fill="#FF8214"/>
</svg>
