<svg width="50" height="50" viewBox="0 0 50 50" fill="none" xmlns="http://www.w3.org/2000/svg">
<path d="M0 8C0 3.58172 3.58172 0 8 0H42C46.4183 0 50 3.58172 50 8V42C50 46.4183 46.4183 50 42 50H8C3.58172 50 0 46.4183 0 42V8Z" fill="#FFF0E3"/>
<g clip-path="url(#clip0_5330_6349)">
<path d="M10.6656 17.0697C11.0538 17.0697 11.3688 16.7548 11.3688 16.3666V12.775C11.3688 12.0206 11.9858 11.4062 12.7439 11.4062H16.3456C16.7338 11.4062 17.0487 11.0913 17.0487 10.7031C17.0487 10.3149 16.7338 10 16.3456 10H12.7439C11.2104 10 9.96252 11.2451 9.96252 12.775V16.3666C9.96252 16.7548 10.2775 17.0697 10.6656 17.0697Z" fill="#FF8214"/>
<path d="M39.3345 32.9312C38.9463 32.9312 38.6313 33.2461 38.6313 33.6343V37.225C38.6313 37.9794 38.0152 38.5937 37.2571 38.5937H33.6545C33.2664 38.5937 32.9514 38.9086 32.9514 39.2968C32.9514 39.685 33.2664 39.9999 33.6545 39.9999H37.2571C38.7906 39.9999 40.0376 38.7548 40.0376 37.225V33.6343C40.0376 33.2461 39.7227 32.9312 39.3345 32.9312Z" fill="#FF8214"/>
<path d="M16.3456 38.5937H12.7439C11.9858 38.5937 11.3688 37.9794 11.3688 37.225V33.6343C11.3688 33.2461 11.0538 32.9312 10.6656 32.9312C10.2775 32.9312 9.96252 33.2461 9.96252 33.6343V37.225C9.96252 38.7548 11.2104 39.9999 12.7439 39.9999H16.3456C16.7338 39.9999 17.0487 39.685 17.0487 39.2968C17.0487 38.9086 16.7338 38.5937 16.3456 38.5937Z" fill="#FF8214"/>
<path d="M37.2571 10H33.6545C33.2664 10 32.9514 10.3149 32.9514 10.7031C32.9514 11.0913 33.2664 11.4062 33.6545 11.4062H37.2571C38.0152 11.4062 38.6313 12.0206 38.6313 12.775V16.3666C38.6313 16.7548 38.9463 17.0697 39.3345 17.0697C39.7227 17.0697 40.0376 16.7548 40.0376 16.3666V12.775C40.0376 11.2451 38.7906 10 37.2571 10Z" fill="#FF8214"/>
<path d="M21.1793 13.5903H16.3137C14.823 13.5903 13.6136 14.7997 13.6136 16.281V21.1279C13.6136 22.6185 14.823 23.8279 16.3137 23.8279H21.1793C22.6699 23.8279 23.8792 22.6185 23.8792 21.1279V16.281C23.8792 14.7997 22.6699 13.5903 21.1793 13.5903ZM20.1292 19.0841C20.1292 19.6372 19.6792 20.0872 19.1168 20.0872H18.3668C17.8136 20.0872 17.3543 19.6372 17.3543 19.0841V18.3341C17.3543 17.7716 17.8136 17.3216 18.3668 17.3216H19.1168C19.6792 17.3216 20.1292 17.7716 20.1292 18.3341V19.0841Z" fill="#FF8214"/>
<path d="M21.1793 26.1716H16.3137C14.823 26.1716 13.6136 27.381 13.6136 28.8716V33.7185C13.6136 35.1998 14.823 36.4091 16.3137 36.4091H21.1793C22.6699 36.4091 23.8792 35.1998 23.8792 33.7185V28.8716C23.8792 27.381 22.6699 26.1716 21.1793 26.1716ZM20.1292 31.6654C20.1292 32.2278 19.6792 32.6779 19.1168 32.6779H18.3668C17.8136 32.6779 17.3543 32.2278 17.3543 31.6654V30.9154C17.3543 30.3622 17.8136 29.9122 18.3668 29.9122H19.1168C19.6792 29.9122 20.1292 30.3622 20.1292 30.9154V31.6654Z" fill="#FF8214"/>
<path d="M28.82 23.8279H33.695C35.1763 23.8279 36.3856 22.6185 36.3856 21.1279V16.281C36.3856 14.7997 35.1763 13.5903 33.695 13.5903H28.82C27.3387 13.5903 26.1294 14.7997 26.1294 16.281V21.1279C26.1294 22.6185 27.3387 23.8279 28.82 23.8279ZM29.87 18.3341C29.87 17.7716 30.32 17.3216 30.8825 17.3216H31.6325C32.1857 17.3216 32.645 17.7716 32.645 18.3341V19.0841C32.645 19.6372 32.1857 20.0872 31.6325 20.0872H30.8825C30.32 20.0872 29.87 19.6372 29.87 19.0841V18.3341Z" fill="#FF8214"/>
<path d="M27.9069 33.5886H27.1543C26.5967 33.5886 26.1436 34.0418 26.1436 34.5994V35.3492C26.1436 35.9067 26.5967 36.3599 27.1543 36.3599H27.9069C28.4644 36.3599 28.9176 35.9067 28.9176 35.3492V34.5994C28.9176 34.0418 28.4644 33.5886 27.9069 33.5886Z" fill="#FF8214"/>
<path d="M34.5939 26.2065C34.0363 26.2065 33.5831 26.6606 33.5831 27.2182V27.9671C33.5831 28.5247 34.0363 28.9778 34.5939 28.9778H35.3464C35.904 28.9778 36.3581 28.5247 36.3581 27.9671V27.2182C36.3581 26.6606 35.904 26.2065 35.3464 26.2065H34.5939Z" fill="#FF8214"/>
<path d="M27.9755 26.2891H27.222C26.6645 26.2891 26.2113 26.7432 26.2113 27.3007V28.0496C26.2113 28.6072 26.6645 29.0604 27.222 29.0604H27.9755C28.5331 29.0604 28.9863 28.6072 28.9863 28.0496V27.3007C28.9863 26.7432 28.5331 26.2891 27.9755 26.2891Z" fill="#FF8214"/>
<path d="M31.2106 30.5027C30.8168 30.5027 30.498 30.8214 30.498 31.2058C30.498 31.5995 30.8168 31.9183 31.2106 31.9183C31.595 31.9183 31.9137 31.5995 31.9137 31.2058C31.9137 30.8214 31.595 30.5027 31.2106 30.5027Z" fill="#FF8214"/>
</g>
<defs>
<clipPath id="clip0_5330_6349">
<rect width="30" height="30" fill="white" transform="translate(10 10)"/>
</clipPath>
</defs>
</svg>
