<svg width="50" height="50" viewBox="0 0 50 50" fill="none" xmlns="http://www.w3.org/2000/svg">
<path d="M0 8C0 3.58172 3.58172 0 8 0H42C46.4183 0 50 3.58172 50 8V42C50 46.4183 46.4183 50 42 50H8C3.58172 50 0 46.4183 0 42V8Z" fill="#FFF0E3"/>
<g clip-path="url(#clip0_5330_6369)">
<path d="M27.7429 34.863L26.6706 34.1553C26.4618 34.3907 26.2055 34.5792 25.9185 34.7082C25.6316 34.8373 25.3205 34.904 25.0059 34.904C24.6912 34.904 24.3801 34.8373 24.0932 34.7082C23.8062 34.5792 23.5499 34.3907 23.3411 34.1553L22.2688 34.863C22.1536 34.9391 22.059 35.0426 21.9935 35.1643C21.928 35.2859 21.8937 35.4218 21.8935 35.56V38.868C22.8662 39.3262 23.928 39.5638 25.0032 39.5638C26.0783 39.5638 27.1402 39.3262 28.1128 38.868V35.56C28.1142 35.4222 28.0811 35.2862 28.0165 35.1644C27.9519 35.0427 27.8578 34.9391 27.7429 34.863Z" fill="#FF8214"/>
<path d="M26.5526 31.6462C26.4615 28.7403 23.5663 28.7403 23.4752 31.6462C23.5663 34.5521 26.4615 34.5521 26.5526 31.6462Z" fill="#FF8214"/>
<path d="M35.2007 17.5024C34.4211 17.4958 33.6518 17.6799 32.9596 18.0386C32.1327 16.898 31.068 15.9504 29.8392 15.2614C29.8392 13.9816 29.3308 12.7543 28.4259 11.8493C27.521 10.9444 26.2937 10.436 25.0139 10.436C23.7342 10.436 22.5068 10.9444 21.6019 11.8493C20.697 12.7543 20.1886 13.9816 20.1886 15.2614C18.9582 15.9551 17.8934 16.9082 17.0682 18.0547C16.3852 17.6961 15.6261 17.5065 14.8546 17.5018C14.0832 17.4971 13.3218 17.6774 12.6344 18.0276C11.9471 18.3779 11.3537 18.8879 10.9041 19.5148C10.4545 20.1417 10.1617 20.8673 10.0504 21.6307C9.93906 22.3941 10.0124 23.173 10.2642 23.9022C10.5161 24.6314 10.9391 25.2896 11.4978 25.8216C12.0565 26.3536 12.7347 26.7438 13.4753 26.9597C14.216 27.1755 14.9976 27.2105 15.7547 27.0619C16.2209 28.4047 16.9811 29.6265 17.9797 30.638C17.6445 32.0444 17.737 33.5189 18.2451 34.8724C18.7533 36.2259 19.6541 37.3969 20.832 38.2352V35.5545C20.8303 35.2369 20.9073 34.9238 21.056 34.6431C21.2048 34.3625 21.4207 34.123 21.6844 33.9461L22.7567 33.2437C21.7702 31.3565 22.9605 28.2897 25.0193 28.3541C27.0781 28.2897 28.2683 31.3565 27.2818 33.2437L28.3541 33.9461C28.6192 34.1221 28.8364 34.3612 28.9861 34.642C29.1359 34.9227 29.2135 35.2363 29.2119 35.5545V38.2352C30.3898 37.3969 31.2906 36.2259 31.7988 34.8724C32.3069 33.5189 32.3994 32.0444 32.0642 30.638C33.0628 29.6265 33.823 28.4047 34.2892 27.0619C34.5948 27.1222 34.9054 27.1527 35.2168 27.1531C41.5916 26.9011 41.6023 17.7544 35.2007 17.5024ZM35.2007 21.7916C35.5341 21.7938 35.8565 21.9115 36.1129 22.1246C36.3694 22.3377 36.5441 22.6331 36.6073 22.9604C36.6705 23.2878 36.6183 23.627 36.4596 23.9203C36.3009 24.2135 36.0455 24.4427 35.7368 24.5689C35.7435 24.6393 35.7363 24.7103 35.7155 24.7779C35.6948 24.8455 35.6609 24.9084 35.6158 24.9629C35.5708 25.0174 35.5154 25.0625 35.4529 25.0956C35.3904 25.1288 35.322 25.1493 35.2516 25.1559C35.1812 25.1626 35.1102 25.1554 35.0426 25.1346C34.975 25.1139 34.9121 25.08 34.8576 25.0349C34.8031 24.9899 34.758 24.9345 34.7249 24.872C34.6917 24.8095 34.6712 24.7411 34.6645 24.6707H34.2946C34.1524 24.6707 34.016 24.6142 33.9155 24.5137C33.8149 24.4131 33.7585 24.2768 33.7585 24.1346C33.7585 23.9924 33.8149 23.856 33.9155 23.7555C34.016 23.6549 34.1524 23.5984 34.2946 23.5984H35.2007C35.2905 23.5876 35.3731 23.5442 35.4331 23.4765C35.4931 23.4089 35.5262 23.3216 35.5262 23.2312C35.5262 23.1408 35.4931 23.0535 35.4331 22.9858C35.3731 22.9181 35.2905 22.8748 35.2007 22.8639C34.8673 22.8617 34.5449 22.7441 34.2884 22.531C34.032 22.3179 33.8573 22.0225 33.7941 21.6951C33.7309 21.3677 33.7831 21.0285 33.9418 20.7353C34.1005 20.442 34.3559 20.2128 34.6645 20.0867C34.6575 20.0163 34.6644 19.9452 34.6848 19.8774C34.7053 19.8097 34.7389 19.7466 34.7837 19.6919C34.8285 19.6371 34.8836 19.5917 34.946 19.5582C35.0083 19.5248 35.0767 19.504 35.1471 19.4969C35.2175 19.4899 35.2886 19.4968 35.3563 19.5172C35.4241 19.5376 35.4871 19.5712 35.5419 19.616C35.5967 19.6608 35.6421 19.716 35.6755 19.7784C35.709 19.8407 35.7298 19.909 35.7368 19.9794H36.1068C36.249 19.9794 36.3853 20.0359 36.4859 20.1365C36.5864 20.237 36.6429 20.3734 36.6429 20.5156C36.6429 20.6578 36.5864 20.7942 36.4859 20.8947C36.3853 20.9953 36.249 21.0517 36.1068 21.0517H35.2007C35.1026 21.0517 35.0085 21.0907 34.9391 21.1601C34.8697 21.2295 34.8308 21.3236 34.8308 21.4217C34.8308 21.5198 34.8697 21.6139 34.9391 21.6833C35.0085 21.7526 35.1026 21.7916 35.2007 21.7916ZM25.0139 15.7546C24.6828 15.7495 24.3635 15.6306 24.1096 15.4179C23.8558 15.2052 23.6829 14.9116 23.62 14.5864C23.5571 14.2613 23.6081 13.9244 23.7643 13.6323C23.9204 13.3403 24.1724 13.1109 24.4778 12.9827C24.4635 12.8405 24.5064 12.6985 24.5969 12.5879C24.6874 12.4773 24.8181 12.4072 24.9603 12.393C25.1025 12.3788 25.2445 12.4216 25.3551 12.5121C25.4657 12.6026 25.5358 12.7333 25.5501 12.8755H25.92C26.0622 12.8755 26.1986 12.932 26.2991 13.0325C26.3997 13.1331 26.4561 13.2695 26.4561 13.4116C26.4561 13.5538 26.3997 13.6902 26.2991 13.7908C26.1986 13.8913 26.0622 13.9478 25.92 13.9478H25.0139C24.9241 13.9587 24.8415 14.002 24.7815 14.0697C24.7215 14.1374 24.6884 14.2246 24.6884 14.3151C24.6884 14.4055 24.7215 14.4928 24.7815 14.5604C24.8415 14.6281 24.9241 14.6715 25.0139 14.6823C25.3547 14.6746 25.6873 14.7879 25.9525 15.0021C26.2178 15.2163 26.3986 15.5175 26.4628 15.8523C26.5271 16.1871 26.4707 16.5339 26.3036 16.8311C26.1365 17.1282 25.8695 17.3566 25.5501 17.4756C25.5567 17.546 25.5495 17.6171 25.5287 17.6847C25.508 17.7523 25.4741 17.8152 25.429 17.8697C25.384 17.9242 25.3286 17.9693 25.2661 18.0024C25.2037 18.0355 25.1353 18.056 25.0648 18.0627C24.9944 18.0694 24.9234 18.0622 24.8558 18.0414C24.7882 18.0206 24.7253 17.9868 24.6708 17.9417C24.6163 17.8966 24.5712 17.8413 24.5381 17.7788C24.5049 17.7163 24.4845 17.6479 24.4778 17.5775H24.1078C23.9656 17.5775 23.8293 17.521 23.7287 17.4205C23.6282 17.3199 23.5717 17.1836 23.5717 17.0414C23.5717 16.8992 23.6282 16.7628 23.7287 16.6622C23.8293 16.5617 23.9656 16.5052 24.1078 16.5052H25.0139C25.1134 16.5052 25.2089 16.4657 25.2793 16.3953C25.3497 16.3249 25.3892 16.2294 25.3892 16.1299C25.3892 16.0304 25.3497 15.9349 25.2793 15.8645C25.2089 15.7942 25.1134 15.7546 25.0139 15.7546ZM14.291 24.7404V24.6707H13.921C13.7788 24.6707 13.6425 24.6142 13.5419 24.5137C13.4414 24.4131 13.3849 24.2768 13.3849 24.1346C13.3849 23.9924 13.4414 23.856 13.5419 23.7555C13.6425 23.6549 13.7788 23.5984 13.921 23.5984H14.8271C14.9169 23.5876 14.9996 23.5442 15.0595 23.4765C15.1195 23.4089 15.1526 23.3216 15.1526 23.2312C15.1526 23.1408 15.1195 23.0535 15.0595 22.9858C14.9996 22.9181 14.9169 22.8748 14.8271 22.8639C14.4937 22.8617 14.1713 22.7441 13.9149 22.531C13.6584 22.3179 13.4837 22.0225 13.4205 21.6951C13.3573 21.3677 13.4095 21.0285 13.5682 20.7353C13.7269 20.442 13.9823 20.2128 14.291 20.0867C14.2797 20.0163 14.2824 19.9443 14.299 19.875C14.3155 19.8056 14.3455 19.7402 14.3873 19.6824C14.4292 19.6247 14.482 19.5757 14.5427 19.5384C14.6034 19.501 14.6709 19.476 14.7413 19.4647C14.8117 19.4535 14.8837 19.4562 14.953 19.4727C15.0224 19.4893 15.0878 19.5193 15.1456 19.5611C15.2033 19.6029 15.2523 19.6557 15.2896 19.7165C15.327 19.7772 15.352 19.8447 15.3633 19.9151V19.9794H15.7332C15.8754 19.9794 16.0118 20.0359 16.1123 20.1365C16.2129 20.237 16.2694 20.3734 16.2694 20.5156C16.2694 20.6578 16.2129 20.7942 16.1123 20.8947C16.0118 20.9953 15.8754 21.0517 15.7332 21.0517H14.8271C14.729 21.0517 14.6349 21.0907 14.5655 21.1601C14.4962 21.2295 14.4572 21.3236 14.4572 21.4217C14.4572 21.5198 14.4962 21.6139 14.5655 21.6833C14.6349 21.7526 14.729 21.7916 14.8271 21.7916C15.1606 21.7938 15.4829 21.9115 15.7394 22.1246C15.9958 22.3377 16.1705 22.6331 16.2337 22.9604C16.2969 23.2878 16.2447 23.627 16.086 23.9203C15.9273 24.2135 15.6719 24.4427 15.3633 24.5689C15.3745 24.6393 15.3718 24.7112 15.3553 24.7806C15.3387 24.8499 15.3087 24.9153 15.2669 24.9731C15.2251 25.0309 15.1723 25.0798 15.1115 25.1172C15.0508 25.1545 14.9833 25.1795 14.9129 25.1908C14.8425 25.2021 14.7706 25.1993 14.7012 25.1828C14.6318 25.1663 14.5664 25.1362 14.5087 25.0944C14.4509 25.0526 14.402 24.9998 14.3646 24.9391C14.3273 24.8783 14.3022 24.8108 14.291 24.7404ZM31.6621 29.4746C29.1798 23.6681 20.8427 23.6735 18.3657 29.4746C17.6627 28.6722 17.117 27.7446 16.7572 26.7403C17.505 26.4118 18.1571 25.899 18.6526 25.2497C19.1481 24.6005 19.4706 23.8361 19.5901 23.0282C19.7096 22.2203 19.622 21.3953 19.3357 20.6305C19.0493 19.8656 18.5735 19.186 17.9529 18.6552C18.598 17.7599 19.4077 16.9957 20.3387 16.4033C20.604 17.4419 21.2075 18.3625 22.0541 19.02C22.9006 19.6775 23.942 20.0344 25.0139 20.0344C26.0858 20.0344 27.1272 19.6775 27.9737 19.02C28.8203 18.3625 29.4238 17.4419 29.6891 16.4033C30.6187 16.9909 31.4283 17.7496 32.075 18.6391C31.4536 19.1683 30.9767 19.8465 30.6887 20.6103C30.4008 21.374 30.3113 22.1983 30.4286 23.006C30.5459 23.8137 30.8662 24.5785 31.3594 25.2287C31.8527 25.879 32.5029 26.3935 33.2491 26.7242C32.8976 27.7326 32.3592 28.6657 31.6621 29.4746Z" fill="#FF8214"/>
<path d="M36.8091 31.4908H36.273V30.9546C36.273 30.8124 36.2165 30.676 36.1159 30.5755C36.0154 30.4749 35.879 30.4185 35.7368 30.4185C35.5946 30.4185 35.4583 30.4749 35.3577 30.5755C35.2572 30.676 35.2007 30.8124 35.2007 30.9546V31.4908H34.6645C34.5223 31.4908 34.386 31.5472 34.2854 31.6478C34.1849 31.7483 34.1284 31.8847 34.1284 32.0269C34.1284 32.1691 34.1849 32.3055 34.2854 32.406C34.386 32.5066 34.5223 32.563 34.6645 32.563H35.2007V33.0992C35.2007 33.2414 35.2572 33.3778 35.3577 33.4783C35.4583 33.5789 35.5946 33.6353 35.7368 33.6353C35.879 33.6353 36.0154 33.5789 36.1159 33.4783C36.2165 33.3778 36.273 33.2414 36.273 33.0992V32.563H36.8091C36.9513 32.563 37.0877 32.5066 37.1882 32.406C37.2888 32.3055 37.3453 32.1691 37.3453 32.0269C37.3453 31.8847 37.2888 31.7483 37.1882 31.6478C37.0877 31.5472 36.9513 31.4908 36.8091 31.4908Z" fill="#FF8214"/>
<path d="M15.3633 31.4908H14.8272V30.9546C14.8272 30.8124 14.7707 30.676 14.6701 30.5755C14.5696 30.4749 14.4332 30.4185 14.291 30.4185C14.1488 30.4185 14.0125 30.4749 13.9119 30.5755C13.8114 30.676 13.7549 30.8124 13.7549 30.9546V31.4908H13.2187C13.0765 31.4908 12.9402 31.5472 12.8396 31.6478C12.7391 31.7483 12.6826 31.8847 12.6826 32.0269C12.6826 32.1691 12.7391 32.3055 12.8396 32.406C12.9402 32.5066 13.0765 32.563 13.2187 32.563H13.7549V33.0992C13.7549 33.2414 13.8114 33.3778 13.9119 33.4783C14.0125 33.5789 14.1488 33.6353 14.291 33.6353C14.4332 33.6353 14.5696 33.5789 14.6701 33.4783C14.7707 33.3778 14.8272 33.2414 14.8272 33.0992V32.563H15.3633C15.5055 32.563 15.6419 32.5066 15.7424 32.406C15.843 32.3055 15.8995 32.1691 15.8995 32.0269C15.8995 31.8847 15.843 31.7483 15.7424 31.6478C15.6419 31.5472 15.5055 31.4908 15.3633 31.4908Z" fill="#FF8214"/>
<path d="M15.3633 13.3419H15.8994V13.878C15.8994 14.0202 15.9559 14.1566 16.0565 14.2571C16.157 14.3577 16.2934 14.4141 16.4356 14.4141C16.5778 14.4141 16.7142 14.3577 16.8147 14.2571C16.9152 14.1566 16.9717 14.0202 16.9717 13.878V13.3419H17.5079C17.6501 13.3419 17.7864 13.2854 17.887 13.1848C17.9875 13.0843 18.044 12.9479 18.044 12.8057C18.044 12.6635 17.9875 12.5271 17.887 12.4266C17.7864 12.326 17.6501 12.2696 17.5079 12.2696H16.9717V11.7334C16.9717 11.5912 16.9152 11.4548 16.8147 11.3543C16.7142 11.2538 16.5778 11.1973 16.4356 11.1973C16.2934 11.1973 16.157 11.2538 16.0565 11.3543C15.9559 11.4548 15.8994 11.5912 15.8994 11.7334V12.2696H15.3633C15.2211 12.2696 15.0847 12.326 14.9842 12.4266C14.8836 12.5271 14.8271 12.6635 14.8271 12.8057C14.8271 12.9479 14.8836 13.0843 14.9842 13.1848C15.0847 13.2854 15.2211 13.3419 15.3633 13.3419Z" fill="#FF8214"/>
<path d="M32.52 13.3419H33.0561V13.878C33.0561 14.0202 33.1126 14.1566 33.2132 14.2571C33.3137 14.3577 33.4501 14.4141 33.5923 14.4141C33.7345 14.4141 33.8709 14.3577 33.9714 14.2571C34.072 14.1566 34.1284 14.0202 34.1284 13.878V13.3419H34.6646C34.8068 13.3419 34.9432 13.2854 35.0437 13.1848C35.1443 13.0843 35.2007 12.9479 35.2007 12.8057C35.2007 12.6635 35.1443 12.5271 35.0437 12.4266C34.9432 12.326 34.8068 12.2696 34.6646 12.2696H34.1284V11.7334C34.1284 11.5912 34.072 11.4548 33.9714 11.3543C33.8709 11.2538 33.7345 11.1973 33.5923 11.1973C33.4501 11.1973 33.3137 11.2538 33.2132 11.3543C33.1126 11.4548 33.0561 11.5912 33.0561 11.7334V12.2696H32.52C32.3778 12.2696 32.2414 12.326 32.1409 12.4266C32.0403 12.5271 31.9839 12.6635 31.9839 12.8057C31.9839 12.9479 32.0403 13.0843 32.1409 13.1848C32.2414 13.2854 32.3778 13.3419 32.52 13.3419Z" fill="#FF8214"/>
</g>
<defs>
<clipPath id="clip0_5330_6369">
<rect width="30" height="30" fill="white" transform="translate(10 10)"/>
</clipPath>
</defs>
</svg>
