<svg width="98" height="164" viewBox="0 0 98 164" fill="none" xmlns="http://www.w3.org/2000/svg">
<path d="M89.1215 153.139C93.5618 153.139 97.1199 150.227 97.1199 146.671C97.1199 143.09 93.5618 140.155 89.1215 140.155C84.7107 140.155 81.0938 143.09 81.0938 146.671C81.0938 150.251 84.7107 153.139 89.1215 153.139ZM89.1215 142.518C92.0033 142.518 94.2381 144.355 94.2381 146.671C94.2381 148.938 91.9445 150.776 89.1215 150.776C86.2986 150.776 84.0049 148.914 84.0049 146.671C84.0049 144.355 86.2986 142.518 89.1215 142.518Z" fill="url(#paint0_linear_12409_12373)" fill-opacity="0.66"/>
<path d="M89.1215 100.066C93.5618 100.066 97.1199 97.1298 97.1199 93.5497C97.1199 89.9695 93.5618 87.0337 89.1215 87.0337C84.7107 87.0337 81.0938 89.9695 81.0938 93.5497C81.0938 97.1537 84.7107 100.066 89.1215 100.066ZM89.1215 89.3967C92.0033 89.3967 94.2381 91.2345 94.2381 93.5497C94.2381 95.8648 91.9445 97.7027 89.1215 97.7027C86.2986 97.7027 84.0049 95.841 84.0049 93.5497C84.0049 91.2584 86.2986 89.3967 89.1215 89.3967Z" fill="url(#paint1_linear_12409_12373)" fill-opacity="0.66"/>
<path d="M90.5831 141.321H87.6426V98.8844H90.5831V141.321Z" fill="url(#paint2_linear_12409_12373)" fill-opacity="0.66"/>
<path d="M61.8117 164H58.8711V63.9701H61.8117V164Z" fill="url(#paint3_linear_12409_12373)" fill-opacity="0.66"/>
<path d="M68.3778 58.0511C68.3778 54.447 64.7903 51.5351 60.35 51.5351C55.9392 51.5351 52.3223 54.4709 52.3223 58.0511C52.3223 61.6312 55.9392 64.5431 60.35 64.5431C64.7903 64.5431 68.3778 61.6551 68.3778 58.0511ZM55.2334 58.0511C55.2334 55.7359 57.5271 53.8981 60.35 53.8981C63.2024 53.8981 65.4666 55.7598 65.4666 58.0511C65.4666 60.3185 63.2024 62.1802 60.35 62.1802C57.4977 62.1802 55.2334 60.3663 55.2334 58.0511Z" fill="url(#paint4_linear_12409_12373)" fill-opacity="0.66"/>
<path d="M42.2489 6.49204C42.2489 2.888 38.632 -7.62939e-06 34.2211 -7.62939e-06C29.7809 -7.62939e-06 26.1934 2.91186 26.1934 6.49204C26.1934 10.0961 29.8103 13.008 34.2211 13.008C38.632 13.008 42.2489 10.0722 42.2489 6.49204ZM29.1045 6.49204C29.1045 4.17686 31.3394 2.36291 34.2211 2.36291C37.0147 2.36291 39.3377 4.2246 39.3377 6.49204C39.3377 8.78335 37.0147 10.645 34.2211 10.645C31.3688 10.645 29.1045 8.78335 29.1045 6.49204Z" fill="url(#paint5_linear_12409_12373)" fill-opacity="0.66"/>
<path d="M16.0261 85.1112C16.0261 81.531 12.4386 78.6191 8.02777 78.6191C3.5875 78.6191 0 81.531 0 85.1112C0 88.7152 3.5875 91.6271 8.02777 91.6271C12.468 91.6271 16.0261 88.7152 16.0261 85.1112ZM2.91117 85.1112C2.91117 82.796 5.146 80.982 8.02777 80.982C10.7919 80.982 13.0856 82.8437 13.0856 85.1112C13.0856 87.4264 10.7919 89.2642 8.02777 89.2642C5.20482 89.2642 2.91117 87.4264 2.91117 85.1112Z" fill="url(#paint6_linear_12409_12373)" fill-opacity="0.66"/>
<path d="M35.6475 164H32.7363V10.9596H35.6475V164Z" fill="url(#paint7_linear_12409_12373)" fill-opacity="0.66"/>
<path d="M9.54606 164H6.60547V90.4633H9.54606V164Z" fill="url(#paint8_linear_12409_12373)" fill-opacity="0.66"/>
<defs>
<linearGradient id="paint0_linear_12409_12373" x1="89.1068" y1="140.155" x2="89.1068" y2="153.139" gradientUnits="userSpaceOnUse">
<stop stop-color="#20359B"/>
<stop offset="1" stop-color="#040303"/>
</linearGradient>
<linearGradient id="paint1_linear_12409_12373" x1="89.1068" y1="87.0337" x2="89.1068" y2="100.066" gradientUnits="userSpaceOnUse">
<stop stop-color="#20359B"/>
<stop offset="1" stop-color="#040303"/>
</linearGradient>
<linearGradient id="paint2_linear_12409_12373" x1="89.1129" y1="98.8844" x2="89.1129" y2="141.321" gradientUnits="userSpaceOnUse">
<stop stop-color="#20359B"/>
<stop offset="1" stop-color="#040303"/>
</linearGradient>
<linearGradient id="paint3_linear_12409_12373" x1="60.3414" y1="63.9701" x2="60.3414" y2="164" gradientUnits="userSpaceOnUse">
<stop stop-color="#20359B"/>
<stop offset="1" stop-color="#040303"/>
</linearGradient>
<linearGradient id="paint4_linear_12409_12373" x1="60.35" y1="51.5351" x2="60.35" y2="64.5431" gradientUnits="userSpaceOnUse">
<stop stop-color="#20359B"/>
<stop offset="1" stop-color="#040303"/>
</linearGradient>
<linearGradient id="paint5_linear_12409_12373" x1="34.2211" y1="-7.62939e-06" x2="34.2211" y2="13.008" gradientUnits="userSpaceOnUse">
<stop stop-color="#20359B"/>
<stop offset="1" stop-color="#040303"/>
</linearGradient>
<linearGradient id="paint6_linear_12409_12373" x1="8.01307" y1="78.6191" x2="8.01307" y2="91.6271" gradientUnits="userSpaceOnUse">
<stop stop-color="#20359B"/>
<stop offset="1" stop-color="#040303"/>
</linearGradient>
<linearGradient id="paint7_linear_12409_12373" x1="34.1919" y1="10.9596" x2="34.1919" y2="164" gradientUnits="userSpaceOnUse">
<stop stop-color="#20359B"/>
<stop offset="1" stop-color="#040303"/>
</linearGradient>
<linearGradient id="paint8_linear_12409_12373" x1="8.07576" y1="90.4633" x2="8.07576" y2="164" gradientUnits="userSpaceOnUse">
<stop stop-color="#20359B"/>
<stop offset="1" stop-color="#040303"/>
</linearGradient>
</defs>
</svg>
