<svg width="1471" height="1460" viewBox="0 0 1471 1460" fill="none" xmlns="http://www.w3.org/2000/svg"><path opacity=".5" d="M1396.59 432.438c1.61 3.629 3.2 7.275 4.75 10.936l-.45.195q2.325 5.468 4.56 10.981l.46-.187c1.49 3.676 2.96 7.367 4.39 11.073l-.46.18q2.145 5.554 4.2 11.154l.47-.172q2.055 5.577 4.02 11.198l-.47.164c1.3 3.743 2.58 7.499 3.83 11.269l.47-.157q1.875 5.66 3.66 11.36l-.48.149c1.18 3.777 2.33 7.568 3.46 11.371l.47-.14q1.68 5.706 3.27 11.453l-.48.132a736 736 0 0 1 3.09 11.522l.48-.125c.99 3.833 1.96 7.677 2.89 11.534l-.49.117a742 742 0 0 1 2.7 11.593l.49-.109c.87 3.878 1.7 7.768 2.51 11.67l-.48.101q1.2 5.81 2.31 11.654l.48-.093q1.11 5.843 2.13 11.718l-.49.084c.67 3.915 1.32 7.84 1.93 11.775l.49-.077q.915 5.865 1.74 11.761l-.5.069c.55 3.922 1.06 7.855 1.55 11.798l.49-.061q.72 5.917 1.35 11.863l-.49.053c.41 3.933.8 7.877 1.15 11.828l.5-.045q.525 5.918.96 11.863l-.5.037c.29 3.96.55 7.929.77 11.906l.5-.027c.23 3.953.42 7.915.58 11.884l-.5.02c.16 3.952.29 7.913.38 11.881l.5-.012c.1 3.971.16 7.949.19 11.936l-.49.004c.01 1.991.02 3.985.02 5.981s-.01 3.989-.02 5.98l.49.003c-.03 3.987-.09 7.966-.19 11.937l-.5-.011c-.09 3.968-.22 7.928-.38 11.88l.5.02c-.16 3.969-.35 7.931-.58 11.884l-.5-.027c-.22 3.978-.48 7.947-.77 11.907l.5.035q-.435 5.945-.96 11.863l-.5-.043c-.35 3.951-.74 7.894-1.15 11.827l.49.052a770 770 0 0 1-1.35 11.864l-.49-.06c-.49 3.942-1 7.875-1.55 11.797l.5.069q-.825 5.895-1.74 11.761l-.49-.076c-.61 3.935-1.26 7.86-1.93 11.775l.49.084q-1.02 5.874-2.13 11.717l-.48-.092q-1.11 5.844-2.31 11.654l.48.099c-.81 3.902-1.64 7.793-2.51 11.671l-.49-.108a742 742 0 0 1-2.7 11.593l.49.116c-.93 3.857-1.9 7.702-2.89 11.534l-.48-.125q-1.5 5.78-3.09 11.522l.48.132a730 730 0 0 1-3.27 11.454l-.47-.141a850 850 0 0 1-3.46 11.372l.48.148q-1.785 5.7-3.66 11.36l-.47-.156c-1.25 3.77-2.52 7.526-3.83 11.269l.47.163q-1.965 5.62-4.02 11.198l-.47-.172a714 714 0 0 1-4.2 11.155l.46.178c-1.43 3.707-2.9 7.397-4.39 11.078l-.46-.19q-2.235 5.505-4.56 10.98l.46.19c-1.56 3.67-3.15 7.31-4.76 10.94l-.46-.2q-2.415 5.445-4.92 10.83l.45.21c-1.68 3.6-3.38 7.19-5.11 10.76l-.45-.22a705 705 0 0 1-5.28 10.68l.44.22q-2.685 5.325-5.46 10.59l-.44-.23c-1.85 3.51-3.72 7-5.62 10.48l.43.24c-1.91 3.48-3.84 6.96-5.81 10.41l-.43-.25c-1.96 3.45-3.95 6.89-5.97 10.3l.43.25c-2.02 3.42-4.07 6.82-6.14 10.2l-.43-.26c-2.07 3.39-4.18 6.76-6.31 10.11l.42.26c-2.13 3.36-4.28 6.69-6.47 10l-.41-.27c-2.19 3.31-4.4 6.61-6.63 9.88l.41.28c-2.25 3.28-4.51 6.55-6.8 9.79l-.41-.29c-2.29 3.24-4.61 6.46-6.95 9.67l.4.29c-2.34 3.2-4.71 6.39-7.11 9.55l-.4-.3c-2.39 3.17-4.82 6.31-7.26 9.44l.39.3a673 673 0 0 1-7.42 9.32l-.39-.31c-2.5 3.08-5.02 6.15-7.56 9.19l.38.32c-2.55 3.05-5.13 6.07-7.73 9.07l-.37-.32q-3.9 4.5-7.86 8.94l.37.33a747 747 0 0 1-8.01 8.81l-.37-.33c-2.69 2.91-5.41 5.8-8.15 8.68l.36.34c-2.74 2.87-5.51 5.72-8.29 8.55l-.36-.35c-2.78 2.83-5.59 5.63-8.42 8.41l.34.35c-2.83 2.79-5.68 5.55-8.56 8.28l-.35-.36c-2.87 2.73-5.77 5.45-8.69 8.13l.34.37c-2.93 2.69-5.87 5.35-8.84 7.99l-.33-.37c-2.96 2.64-5.95 5.25-8.95 7.84l.32.38q-4.515 3.885-9.09 7.71l-.32-.39c-3.04 2.54-6.11 5.06-9.2 7.55l.31.39c-3.09 2.49-6.2 4.95-9.33 7.4l-.31-.39a738 738 0 0 1-9.45 7.24l.3.4c-3.17 2.39-6.35 4.75-9.56 7.09l-.3-.4c-3.2 2.34-6.43 4.65-9.67 6.93l.28.41c-3.25 2.29-6.51 4.55-9.8 6.78l-.28-.41c-3.28 2.23-6.58 4.43-9.89 6.61l.27.42c-3.32 2.17-6.66 4.33-10.01 6.45l-.27-.42c-3.35 2.12-6.72 4.22-10.11 6.29l.26.42a746 746 0 0 1-10.22 6.13l-.25-.43c-3.42 2.01-6.85 3.99-10.31 5.95l.25.43c-3.46 1.96-6.93 3.89-10.42 5.79l-.24-.43c-3.48 1.9-6.98 3.76-10.49 5.61l.23.44a813 813 0 0 1-10.6 5.44l-.22-.45c-3.55 1.79-7.11 3.55-10.69 5.27l.22.45c-3.57 1.73-7.16 3.42-10.76 5.09l-.21-.45c-3.6 1.66-7.21 3.3-10.84 4.91l.2.45c-3.63 1.61-7.28 3.19-10.95 4.75l-.19-.46c-3.65 1.54-7.31 3.06-10.99 4.54l.19.46q-5.519 2.235-11.08 4.38l-.178-.47a718 718 0 0 1-11.161 4.2l.17.47a712 712 0 0 1-11.202 3.99l-.162-.47a628 628 0 0 1-11.275 3.82l.156.48a850 850 0 0 1-11.365 3.64l-.148-.48a629 629 0 0 1-11.374 3.44l.14.48c-3.806 1.11-7.625 2.2-11.457 3.26l-.132-.48a736 736 0 0 1-11.525 3.07l.124.48q-5.75 1.485-11.536 2.88l-.117-.48c-3.853.92-7.718 1.82-11.594 2.68l.107.49c-3.879.87-7.77 1.7-11.673 2.5l-.1-.48c-3.874.79-7.759 1.56-11.655 2.3l.092.48a649 649 0 0 1-11.719 2.12l-.085-.49a756 756 0 0 1-11.775 1.93l.075.49c-3.91.6-7.831 1.18-11.762 1.72l-.067-.49c-3.923.55-7.856 1.06-11.799 1.54l.06.49q-5.919.72-11.865 1.35l-.051-.49q-5.9.615-11.827 1.14l.043.5q-5.918.525-11.864.96l-.035-.5c-3.96.29-7.929.54-11.907.77l.026.5q-5.93.33-11.883.57l-.02-.5c-3.952.16-7.913.29-11.881.38l.011.5c-3.971.1-7.949.16-11.936.19l-.003-.49c-1.991.01-3.985.02-5.981.02s-3.989-.01-5.98-.02l-.004.49c-3.987-.03-7.966-.09-11.937-.19l.012-.5a668 668 0 0 1-11.881-.38l-.02.5q-5.954-.24-11.884-.57l.028-.5c-3.978-.23-7.948-.48-11.908-.77l-.036.5q-5.945-.435-11.863-.96l.044-.5q-5.927-.525-11.827-1.14l-.053.49q-5.946-.63-11.865-1.35l.061-.49c-3.943-.48-7.875-.99-11.798-1.54l-.069.49c-3.931-.54-7.852-1.12-11.762-1.72l.077-.49c-3.936-.61-7.862-1.26-11.776-1.93l-.085.49h-.001a649 649 0 0 1-11.719-2.12l.093-.48c-3.896-.74-7.781-1.51-11.655-2.3l-.1.48c-3.903-.8-7.794-1.63-11.674-2.5l.109-.49c-3.876-.86-7.742-1.76-11.595-2.68l-.117.48q-5.786-1.395-11.536-2.88l.125-.48c-3.854-.99-7.696-2.02-11.525-3.07l-.133.48c-3.831-1.06-7.65-2.15-11.456-3.26l.14-.48a629 629 0 0 1-11.375-3.44l-.149.48c-3.801-1.19-7.589-2.4-11.364-3.64l.156-.48c-3.772-1.24-7.53-2.51-11.274-3.82l-.164.47a712 712 0 0 1-11.202-3.99l.171-.47a718 718 0 0 1-11.16-4.2l-.179.47a708 708 0 0 1-11.079-4.38l.186-.46c-3.677-1.48-7.339-3-10.986-4.54l-.196.46a821 821 0 0 1-10.944-4.75l.202-.45c-3.63-1.61-7.245-3.25-10.844-4.91l-.208.45a691 691 0 0 1-10.759-5.09l.217-.44q-5.37-2.595-10.689-5.28l-.225.45c-3.548-1.79-7.079-3.6-10.594-5.44l.231-.44a785 785 0 0 1-10.491-5.61l-.238.43c-3.491-1.9-6.966-3.83-10.422-5.78l.246-.44c-3.454-1.96-6.89-3.94-10.309-5.95l-.252.43a777 777 0 0 1-10.213-6.13l.26-.42a763 763 0 0 1-10.115-6.29l-.267.42a671 671 0 0 1-10.011-6.45l.273-.42a753 753 0 0 1-9.894-6.61l-.281.41a662 662 0 0 1-9.8-6.78l.287-.41a655 655 0 0 1-9.677-6.93l-.294.4c-3.21-2.34-6.398-4.7-9.567-7.09l.299-.4c-3.17-2.39-6.32-4.8-9.449-7.24l-.306.39a842 842 0 0 1-9.334-7.4l.314-.39a724 724 0 0 1-9.205-7.55l-.32.39q-4.577-3.825-9.088-7.71l.325-.38c-3.007-2.59-5.992-5.2-8.955-7.84l-.331.37c-2.966-2.64-5.911-5.3-8.833-7.99l.338-.37a640 640 0 0 1-8.697-8.13l-.344.36a630 630 0 0 1-8.566-8.28l.348-.35c-2.832-2.78-5.64-5.58-8.426-8.41l-.354.35a768 768 0 0 1-8.296-8.55l.361-.34a851 851 0 0 1-8.149-8.68l-.367.33a683 683 0 0 1-8.009-8.81l.37-.33a756 756 0 0 1-7.862-8.94l-.377.32c-2.598-3-5.173-6.02-7.722-9.07l.383-.32c-2.547-3.04-5.069-6.1-7.566-9.19l-.388.31a673 673 0 0 1-7.419-9.32l.391-.3a739 739 0 0 1-7.265-9.44l-.398.3a729 729 0 0 1-7.111-9.55l.402-.29c-2.343-3.21-4.66-6.43-6.951-9.67l-.406.29c-2.293-3.24-4.56-6.51-6.8-9.79l.411-.28a721 721 0 0 1-6.631-9.88l-.417.27c-2.184-3.31-4.34-6.64-6.472-10l.42-.26a777 777 0 0 1-6.308-10.1l-.424.25a706 706 0 0 1-6.142-10.2l.43-.25a706 706 0 0 1-5.97-10.3l-.434.25c-1.965-3.45-3.9-6.93-5.809-10.41l.437-.24a748 748 0 0 1-5.626-10.48l-.44.23q-2.773-5.265-5.463-10.59l.447-.22a691 691 0 0 1-5.288-10.68l-.448.22c-1.73-3.57-3.43-7.16-5.103-10.76l.45-.2a731 731 0 0 1-4.927-10.84l-.457.2a686 686 0 0 1-4.756-10.94l.458-.19q-2.325-5.46-4.562-10.98l-.461.19a738 738 0 0 1-4.39-11.077l.465-.179a721 721 0 0 1-4.209-11.155l-.468.172a719 719 0 0 1-4.013-11.198l.468-.163a722 722 0 0 1-3.833-11.269l-.472.156a722 722 0 0 1-3.656-11.36l.477-.148a720 720 0 0 1-3.453-11.371l-.477.14a720 720 0 0 1-3.273-11.454l.48-.131a720 720 0 0 1-3.086-11.522l-.481.124a722 722 0 0 1-2.886-11.534l.484-.116q-1.395-5.78-2.699-11.593l-.487.108a720 720 0 0 1-2.513-11.67l.488-.1a722 722 0 0 1-2.31-11.654l-.49.092a725 725 0 0 1-2.125-11.717l.493-.084a727 727 0 0 1-1.934-11.775l-.492.076q-.915-5.865-1.735-11.761l.494-.068a725 725 0 0 1-1.542-11.798l-.494.06a729 729 0 0 1-1.353-11.863l.495-.052q-.624-5.9-1.154-11.828l-.497.044q-.527-5.918-.96-11.863l.495-.036q-.433-5.94-.77-11.907l-.5.027a735 735 0 0 1-.572-11.884l.496-.019q-.24-5.928-.383-11.881l-.498.011q-.144-5.956-.193-11.936l.498-.003a741 741 0 0 1 0-11.961l-.498-.004q.05-5.98.193-11.937l.498.013q.144-5.952.383-11.881l-.496-.021q.24-5.954.573-11.884l.499.028q.337-5.967.77-11.907l-.495-.036q.434-5.945.96-11.863l.497.044q.53-5.927 1.154-11.827l-.495-.053q.63-5.946 1.353-11.864l.494.061a726 726 0 0 1 1.542-11.797l-.494-.07q.82-5.895 1.735-11.761l.492.077q.92-5.903 1.933-11.775l-.492-.084a723 723 0 0 1 2.126-11.718l.488.093q1.11-5.844 2.31-11.654l-.487-.1a720 720 0 0 1 2.513-11.671l.487.109q1.303-5.814 2.699-11.593l-.484-.117a719 719 0 0 1 2.886-11.534l.481.126a721 721 0 0 1 3.086-11.522l-.48-.133a720 720 0 0 1 3.273-11.453l.477.141a722 722 0 0 1 3.452-11.372l-.476-.149q1.782-5.7 3.656-11.36l.472.157a722 722 0 0 1 3.833-11.269l-.468-.164a719 719 0 0 1 4.013-11.198l.468.173a721 721 0 0 1 4.21-11.155l-.467-.179a720 720 0 0 1 4.39-11.074l.462.188a723 723 0 0 1 4.562-10.981l-.459-.195a726 726 0 0 1 3.1-7.186l1.657-3.751.456.203a721 721 0 0 1 4.928-10.835l-.45-.21a719 719 0 0 1 5.103-10.752l.448.218a719 719 0 0 1 5.288-10.68l-.447-.226a729 729 0 0 1 5.462-10.585l.44.233a726 726 0 0 1 5.627-10.483l-.437-.239a727 727 0 0 1 5.808-10.411l.434.247a733 733 0 0 1 5.97-10.298l-.429-.254a735 735 0 0 1 6.142-10.201l.424.261a739 739 0 0 1 6.308-10.104l-.42-.267a736 736 0 0 1 6.471-10.001l.001.001.417.275a740 740 0 0 1 6.631-9.883l-.411-.281a726 726 0 0 1 6.8-9.786l.406.287a720 720 0 0 1 6.951-9.663l-.403-.295a730 730 0 0 1 7.112-9.554l.398.301a738 738 0 0 1 7.265-9.435l-.391-.306a732 732 0 0 1 7.419-9.319l.387.314a732 732 0 0 1 7.567-9.19l-.384-.321a726 726 0 0 1 7.723-9.073l.377.326a733 733 0 0 1 7.862-8.938l-.371-.331a727 727 0 0 1 8.01-8.818l.367.339a726 726 0 0 1 8.149-8.68l-.362-.345a727 727 0 0 1 8.297-8.549l.353.349a734 734 0 0 1 8.427-8.409l-.349-.355a727 727 0 0 1 8.567-8.277l.344.361a734 734 0 0 1 8.697-8.131l-.339-.368a726 726 0 0 1 8.833-7.992l.332.372a717 717 0 0 1 8.954-7.844l-.325-.377a727 727 0 0 1 9.089-7.705l.32.384a732 732 0 0 1 9.204-7.547l-.313-.388a739 739 0 0 1 9.334-7.401l.306.392q4.695-3.66 9.449-7.247l-.299-.397a730 730 0 0 1 9.566-7.094l.295.403a729 729 0 0 1 9.677-6.931l-.287-.408a729 729 0 0 1 9.8-6.782l.281.412a734 734 0 0 1 9.894-6.611l-.274-.417a732 732 0 0 1 10.011-6.453l.267.42a723 723 0 0 1 10.116-6.29l-.26-.425a729 729 0 0 1 10.212-6.121l.253.429a726 726 0 0 1 10.309-5.953l-.247-.434a722 722 0 0 1 10.423-5.79l.238.436a727 727 0 0 1 10.49-5.607l-.23-.44a729 729 0 0 1 10.594-5.445l.225.447a721 721 0 0 1 10.689-5.27l-.218-.45a721 721 0 0 1 10.76-5.085l.208.451a726 726 0 0 1 10.844-4.911l-.203-.456q5.45-2.415 10.945-4.741l.196.459a720 720 0 0 1 10.985-4.546l-.186-.461a723 723 0 0 1 11.079-4.374l.18.465a727 727 0 0 1 11.16-4.195l-.171-.468a720 720 0 0 1 11.202-3.999l.163.47a721 721 0 0 1 11.275-3.818l-.157-.474a723 723 0 0 1 11.365-3.642l.149.476a721 721 0 0 1 11.374-3.438l-.141-.477a722 722 0 0 1 11.457-3.26l.133.48a724 724 0 0 1 11.525-3.075l-.125-.483a728 728 0 0 1 11.536-2.873l.118.484a725 725 0 0 1 11.594-2.689l-.108-.486q5.818-1.298 11.673-2.504l.101.488a726 726 0 0 1 11.655-2.302l-.093-.487a726 726 0 0 1 11.719-2.12l.001.002.085.492a725 725 0 0 1 11.775-1.926l-.076-.49q5.865-.912 11.762-1.728l.068.493a729 729 0 0 1 11.799-1.535l-.061-.496q5.919-.72 11.865-1.346l.052.494q5.9-.621 11.828-1.149l-.045-.498q5.918-.524 11.864-.955l.036.495a735 735 0 0 1 11.907-.767l-.027-.498q5.93-.334 11.883-.572l.021.497a740 740 0 0 1 11.881-.382l-.012-.498q5.956-.144 11.936-.192l.004.498a744 744 0 0 1 11.961 0l.003-.498q5.98.048 11.937.192l-.011.498q5.952.143 11.881.382l.019-.497q5.954.24 11.884.572l-.027.498q5.967.336 11.908.767l.035-.495q5.945.431 11.863.955l-.043.498a733 733 0 0 1 11.827 1.149l.052-.494q5.946.626 11.865 1.346l-.06.495q5.914.72 11.799 1.536l.067-.493q5.897.816 11.762 1.727l-.076.491q5.904.916 11.776 1.926l.085-.492v-.001a726 726 0 0 1 11.719 2.12l-.092.486q5.844 1.104 11.655 2.301l.099-.487q5.854 1.206 11.674 2.504l-.108.486q5.815 1.298 11.595 2.689l.116-.484q5.786 1.39 11.536 2.873l-.124.483q5.781 1.491 11.525 3.074l.132-.48a725 725 0 0 1 11.456 3.26l-.139.478a720 720 0 0 1 11.375 3.438l.148-.476a726 726 0 0 1 11.364 3.642l-.155.473a721 721 0 0 1 11.275 3.82l.162-.47a720 720 0 0 1 11.202 3.997l-.17.47a727 727 0 0 1 11.16 4.194l.178-.465a731 731 0 0 1 11.081 4.374l-.19.46c3.68 1.487 7.34 3.002 10.99 4.547l.19-.46q5.505 2.328 10.95 4.742l-.2.456c3.63 1.608 7.24 3.245 10.84 4.911l.21-.451c3.6 1.667 7.19 3.362 10.76 5.086l-.22.448c3.58 1.728 7.14 3.486 10.69 5.27l.22-.446c3.55 1.786 7.08 3.603 10.6 5.445l-.23.44c3.51 1.841 7.01 3.71 10.49 5.607l.24-.436a756 756 0 0 1 10.42 5.789l-.25.436c3.46 1.956 6.89 3.94 10.31 5.952l.25-.43c3.43 2.014 6.83 4.054 10.22 6.122l-.26.425q5.085 3.104 10.11 6.29l.27-.421c3.35 2.125 6.69 4.276 10.01 6.454l-.27.417c3.31 2.177 6.61 4.382 9.89 6.611l.28-.412c3.29 2.235 6.55 4.495 9.8 6.782l-.28.407c3.24 2.285 6.47 4.596 9.67 6.932l.3-.404a803 803 0 0 1 9.56 7.095l-.3.397q4.755 3.587 9.45 7.247l.31-.392q4.695 3.663 9.33 7.401l-.31.388c3.09 2.491 6.16 5.006 9.2 7.547l.32-.384q4.575 3.816 9.09 7.705l-.32.377c3 2.59 5.99 5.205 8.95 7.844l.33-.372c2.97 2.64 5.91 5.304 8.84 7.992l-.34.367c2.92 2.687 5.82 5.398 8.69 8.132l.35-.361c2.88 2.735 5.73 5.495 8.56 8.277l-.34.354c2.83 2.78 5.64 5.584 8.42 8.41l.36-.349a778 778 0 0 1 8.29 8.549l-.36.345c2.74 2.871 5.46 5.764 8.15 8.679l.37-.338q4.035 4.375 8.01 8.817l-.37.332q3.96 4.437 7.86 8.938l.37-.326c2.6 3.003 5.18 6.027 7.73 9.072l-.38.322q3.81 4.563 7.56 9.189l.39-.313c2.5 3.085 4.97 6.192 7.42 9.319l-.39.306c2.44 3.125 4.87 6.27 7.26 9.435l.4-.302q3.6 4.748 7.11 9.555l-.4.295c2.34 3.201 4.66 6.422 6.95 9.663l.41-.287c2.29 3.243 4.55 6.505 6.8 9.786l-.41.281q3.345 4.913 6.63 9.883l.41-.275v-.001c2.19 3.314 4.34 6.649 6.47 10.001l-.42.267c2.13 3.349 4.24 6.717 6.31 10.103l.43-.26a770 770 0 0 1 6.14 10.2l-.43.255q3.03 5.123 5.97 10.298l.43-.248c1.97 3.453 3.9 6.924 5.81 10.412l-.43.238a784 784 0 0 1 5.62 10.483l.44-.232q2.775 5.268 5.46 10.585l-.44.226q2.685 5.315 5.28 10.679l.45-.217a796 796 0 0 1 5.11 10.751l-.45.21q2.505 5.394 4.92 10.836z" stroke="url(#a)" stroke-dasharray="12 12"/><circle cx="730" cy="730" r="496.5" stroke="url(#b)" stroke-width="95"/><circle opacity=".5" cx="730" cy="731" r="449.5" stroke="#fff" stroke-dasharray="12 12"/><circle opacity=".5" cx="736.5" cy="727.5" r="538" stroke="url(#c)" stroke-dasharray="12 12"/><defs><linearGradient id="a" x1="1246.5" y1="270" x2="-35.5" y2="786.5" gradientUnits="userSpaceOnUse"><stop stop-color="#fff"/><stop offset="1" stop-color="#999" stop-opacity=".56"/></linearGradient><linearGradient id="b" x1="1192.48" y1="939.615" x2="330.179" y2="758.836" gradientUnits="userSpaceOnUse"><stop stop-color="#5b6fff"/><stop offset="1" stop-color="#09090b" stop-opacity="0"/></linearGradient><linearGradient id="c" x1="736.5" y1="189" x2="270" y2="1025" gradientUnits="userSpaceOnUse"><stop stop-color="#fff"/><stop offset="1" stop-color="#999" stop-opacity=".75"/></linearGradient></defs></svg>