<svg width="1471" height="1460" viewBox="0 0 1471 1460" fill="none" xmlns="http://www.w3.org/2000/svg">
<path opacity="0.5" d="M1396.59 432.438C1398.2 436.067 1399.79 439.713 1401.34 443.374L1400.89 443.569C1402.44 447.214 1403.96 450.875 1405.45 454.55L1405.91 454.363C1407.4 458.039 1408.87 461.73 1410.3 465.436L1409.84 465.616C1411.27 469.32 1412.67 473.038 1414.04 476.771L1414.51 476.598C1415.88 480.316 1417.22 484.049 1418.53 487.796L1418.06 487.96C1419.36 491.703 1420.64 495.459 1421.89 499.229L1422.36 499.072C1423.61 502.845 1424.83 506.632 1426.02 510.432L1425.54 510.581C1426.72 514.358 1427.87 518.149 1429 521.952L1429.47 521.812C1430.59 525.616 1431.68 529.434 1432.74 533.265L1432.26 533.397C1433.32 537.225 1434.35 541.066 1435.35 544.919L1435.83 544.794C1436.82 548.627 1437.79 552.471 1438.72 556.328L1438.23 556.445C1439.16 560.298 1440.06 564.162 1440.93 568.038L1441.42 567.929C1442.29 571.807 1443.12 575.697 1443.93 579.599L1443.45 579.7C1444.25 583.573 1445.02 587.458 1445.76 591.354L1446.24 591.261C1446.98 595.156 1447.69 599.062 1448.37 602.979H1448.37L1447.88 603.063C1448.55 606.978 1449.2 610.903 1449.81 614.838L1450.3 614.761C1450.91 618.671 1451.49 622.592 1452.04 626.522L1451.54 626.591C1452.09 630.513 1452.6 634.446 1453.09 638.389L1453.58 638.328C1454.06 642.273 1454.51 646.227 1454.93 650.191L1454.44 650.244C1454.85 654.177 1455.24 658.121 1455.59 662.072L1456.09 662.027C1456.44 665.972 1456.76 669.927 1457.05 673.89L1456.55 673.927C1456.84 677.887 1457.1 681.856 1457.32 685.834L1457.82 685.806C1458.05 689.759 1458.24 693.721 1458.4 697.69L1457.9 697.71C1458.06 701.662 1458.19 705.623 1458.28 709.591L1458.78 709.579C1458.88 713.55 1458.94 717.528 1458.97 721.515L1458.48 721.519C1458.49 723.51 1458.5 725.504 1458.5 727.5C1458.5 729.495 1458.49 731.489 1458.48 733.48L1458.97 733.483C1458.94 737.47 1458.88 741.449 1458.78 745.42L1458.28 745.408C1458.19 749.376 1458.06 753.337 1457.9 757.289L1458.4 757.309C1458.24 761.278 1458.05 765.24 1457.82 769.193L1457.32 769.166C1457.1 773.144 1456.84 777.113 1456.55 781.073L1457.05 781.108C1456.76 785.071 1456.44 789.026 1456.09 792.971L1455.59 792.928C1455.24 796.879 1454.85 800.822 1454.44 804.755L1454.93 804.807C1454.51 808.771 1454.06 812.726 1453.58 816.671L1453.09 816.611C1452.6 820.553 1452.09 824.486 1451.54 828.408L1452.04 828.477C1451.49 832.407 1450.91 836.328 1450.3 840.238L1449.81 840.162C1449.2 844.097 1448.55 848.022 1447.88 851.937L1448.37 852.021C1447.69 855.937 1446.98 859.843 1446.24 863.738L1445.76 863.646C1445.02 867.542 1444.25 871.427 1443.45 875.3L1443.93 875.399C1443.12 879.301 1442.29 883.192 1441.42 887.07L1440.93 886.962C1440.06 890.838 1439.16 894.702 1438.23 898.555L1438.72 898.671C1437.79 902.528 1436.82 906.373 1435.83 910.205L1435.35 910.08C1434.35 913.933 1433.32 917.774 1432.26 921.602L1432.74 921.734C1431.68 925.565 1430.59 929.383 1429.47 933.188L1429 933.047C1427.87 936.85 1426.72 940.642 1425.54 944.419L1426.02 944.567C1424.83 948.367 1423.61 952.154 1422.36 955.927L1421.89 955.771C1420.64 959.541 1419.37 963.297 1418.06 967.04L1418.53 967.203C1417.22 970.95 1415.88 974.683 1414.51 978.401L1414.04 978.229C1412.67 981.962 1411.27 985.68 1409.84 989.384L1410.3 989.562C1408.87 993.269 1407.4 996.959 1405.91 1000.64L1405.45 1000.45C1403.96 1004.12 1402.44 1007.78 1400.89 1011.43L1401.35 1011.62C1399.79 1015.29 1398.2 1018.93 1396.59 1022.56L1396.13 1022.36C1394.52 1025.99 1392.88 1029.6 1391.21 1033.19L1391.66 1033.4C1389.98 1037 1388.28 1040.59 1386.55 1044.16L1386.1 1043.94C1384.37 1047.51 1382.61 1051.08 1380.82 1054.62L1381.26 1054.84C1379.47 1058.39 1377.65 1061.92 1375.8 1065.43L1375.36 1065.2C1373.51 1068.71 1371.64 1072.2 1369.74 1075.68L1370.17 1075.92C1368.26 1079.4 1366.33 1082.88 1364.36 1086.33L1363.93 1086.08C1361.97 1089.53 1359.98 1092.97 1357.96 1096.38L1358.39 1096.63C1356.37 1100.05 1354.32 1103.45 1352.25 1106.83L1351.82 1106.57C1349.75 1109.96 1347.64 1113.33 1345.51 1116.68L1345.93 1116.94C1343.8 1120.3 1341.65 1123.63 1339.46 1126.95L1339.05 1126.67C1336.86 1129.98 1334.65 1133.28 1332.42 1136.55L1332.83 1136.83C1330.58 1140.11 1328.32 1143.38 1326.03 1146.62L1325.62 1146.33C1323.33 1149.57 1321.01 1152.79 1318.67 1156L1319.07 1156.29C1316.73 1159.49 1314.36 1162.68 1311.96 1165.84L1311.56 1165.54C1309.17 1168.71 1306.74 1171.85 1304.3 1174.98L1304.69 1175.28C1302.24 1178.41 1299.77 1181.52 1297.27 1184.6L1296.88 1184.29C1294.38 1187.37 1291.86 1190.44 1289.32 1193.48L1289.7 1193.8C1287.15 1196.85 1284.57 1199.87 1281.97 1202.87L1281.6 1202.55C1279 1205.55 1276.38 1208.53 1273.74 1211.49L1274.11 1211.82C1271.46 1214.78 1268.79 1217.72 1266.1 1220.63L1265.73 1220.3C1263.04 1223.21 1260.32 1226.1 1257.58 1228.98L1257.94 1229.32C1255.2 1232.19 1252.43 1235.04 1249.65 1237.87L1249.29 1237.52C1246.51 1240.35 1243.7 1243.15 1240.87 1245.93L1241.21 1246.28C1238.38 1249.07 1235.53 1251.83 1232.65 1254.56L1232.3 1254.2C1229.43 1256.93 1226.53 1259.65 1223.61 1262.33L1223.95 1262.7C1221.02 1265.39 1218.08 1268.05 1215.11 1270.69L1214.78 1270.32C1211.82 1272.96 1208.83 1275.57 1205.83 1278.16L1206.15 1278.54C1203.14 1281.13 1200.11 1283.7 1197.06 1286.25L1196.74 1285.86C1193.7 1288.4 1190.63 1290.92 1187.54 1293.41L1187.85 1293.8C1184.76 1296.29 1181.65 1298.75 1178.52 1301.2L1178.21 1300.81C1175.08 1303.25 1171.93 1305.66 1168.76 1308.05L1169.06 1308.45C1165.89 1310.84 1162.71 1313.2 1159.5 1315.54L1159.2 1315.14C1156 1317.48 1152.77 1319.79 1149.53 1322.07L1149.81 1322.48C1146.56 1324.77 1143.3 1327.03 1140.01 1329.26L1139.73 1328.85C1136.45 1331.08 1133.15 1333.28 1129.84 1335.46L1130.11 1335.88C1126.79 1338.05 1123.45 1340.21 1120.1 1342.33L1119.83 1341.91C1116.48 1344.03 1113.11 1346.13 1109.72 1348.2L1109.98 1348.62C1106.59 1350.69 1103.19 1352.73 1099.76 1354.75L1099.51 1354.32C1096.09 1356.33 1092.66 1358.31 1089.2 1360.27L1089.45 1360.7C1085.99 1362.66 1082.52 1364.59 1079.03 1366.49L1078.79 1366.06C1075.31 1367.96 1071.81 1369.82 1068.3 1371.67L1068.53 1372.11C1065.01 1373.95 1061.48 1375.76 1057.93 1377.55L1057.71 1377.1C1054.16 1378.89 1050.6 1380.65 1047.02 1382.37L1047.24 1382.82C1043.67 1384.55 1040.08 1386.24 1036.48 1387.91L1036.27 1387.46C1032.67 1389.12 1029.06 1390.76 1025.43 1392.37L1025.63 1392.82C1022 1394.43 1018.35 1396.01 1014.68 1397.57L1014.49 1397.11C1010.84 1398.65 1007.18 1400.17 1003.5 1401.65L1003.69 1402.11C1000.01 1403.6 996.318 1405.06 992.61 1406.49L992.431 1406.02C988.725 1407.45 985.005 1408.85 981.271 1410.22L981.441 1410.69C977.722 1412.05 973.987 1413.38 970.239 1414.68L970.077 1414.21C966.333 1415.52 962.574 1416.79 958.802 1418.03L958.958 1418.51C955.183 1419.75 951.395 1420.96 947.593 1422.15L947.445 1421.67C943.667 1422.85 939.876 1424 936.071 1425.11L936.211 1425.59C932.405 1426.7 928.586 1427.79 924.754 1428.85L924.622 1428.37C920.793 1429.42 916.951 1430.45 913.097 1431.44L913.221 1431.92C909.388 1432.91 905.542 1433.87 901.685 1434.8L901.568 1434.32C897.715 1435.24 893.85 1436.14 889.974 1437L890.081 1437.49C886.202 1438.36 882.311 1439.19 878.408 1439.99L878.308 1439.51C874.434 1440.3 870.549 1441.07 866.653 1441.81L866.745 1442.29C862.849 1443.03 858.944 1443.74 855.026 1444.41L854.941 1443.92C851.027 1444.59 847.102 1445.24 843.166 1445.85L843.241 1446.34C839.331 1446.94 835.41 1447.52 831.479 1448.06L831.412 1447.57C827.489 1448.12 823.556 1448.63 819.613 1449.11L819.673 1449.6C815.727 1450.08 811.772 1450.53 807.808 1450.95L807.757 1450.46C803.824 1450.87 799.881 1451.25 795.93 1451.6L795.973 1452.1C792.027 1452.45 788.073 1452.77 784.109 1453.06L784.074 1452.56C780.114 1452.85 776.145 1453.1 772.167 1453.33L772.193 1453.83C768.24 1454.05 764.279 1454.24 760.31 1454.4L760.29 1453.9C756.338 1454.06 752.377 1454.19 748.409 1454.28L748.42 1454.78C744.449 1454.88 740.471 1454.94 736.484 1454.97L736.481 1454.48C734.49 1454.49 732.496 1454.5 730.5 1454.5C728.505 1454.5 726.511 1454.49 724.52 1454.48L724.516 1454.97C720.529 1454.94 716.55 1454.88 712.579 1454.78L712.591 1454.28C708.623 1454.19 704.662 1454.06 700.71 1453.9L700.69 1454.4C696.721 1454.24 692.759 1454.05 688.806 1453.83L688.834 1453.33C684.856 1453.1 680.886 1452.85 676.926 1452.56L676.89 1453.06C672.927 1452.77 668.972 1452.45 665.027 1452.1L665.071 1451.6C661.12 1451.25 657.177 1450.87 653.244 1450.46L653.191 1450.95C649.227 1450.53 645.272 1450.08 641.326 1449.6L641.387 1449.11C637.444 1448.63 633.512 1448.12 629.589 1447.57L629.52 1448.06C625.589 1447.52 621.668 1446.94 617.758 1446.34L617.835 1445.85C613.899 1445.24 609.973 1444.59 606.059 1443.92L605.974 1444.41H605.973C602.055 1443.74 598.15 1443.03 594.254 1442.29L594.347 1441.81C590.451 1441.07 586.566 1440.3 582.692 1439.51L582.592 1439.99C578.689 1439.19 574.798 1438.36 570.918 1437.49L571.027 1437C567.151 1436.14 563.285 1435.24 559.432 1434.32L559.315 1434.8C555.458 1433.87 551.612 1432.91 547.779 1431.92L547.904 1431.44C544.05 1430.45 540.208 1429.42 536.379 1428.37L536.246 1428.85C532.415 1427.79 528.596 1426.7 524.79 1425.59L524.93 1425.11C521.125 1424 517.333 1422.85 513.555 1421.67L513.406 1422.15C509.605 1420.96 505.817 1419.75 502.042 1418.51L502.198 1418.03C498.426 1416.79 494.668 1415.52 490.924 1414.21L490.76 1414.68C487.012 1413.38 483.277 1412.05 479.558 1410.69L479.729 1410.22C475.995 1408.85 472.275 1407.45 468.569 1406.02L468.39 1406.49C464.682 1405.06 460.989 1403.6 457.311 1402.11L457.496 1401.65C453.819 1400.17 450.157 1398.65 446.511 1397.11L446.315 1397.57C442.652 1396.01 439.004 1394.43 435.371 1392.82L435.573 1392.37C431.943 1390.76 428.328 1389.12 424.729 1387.46L424.521 1387.91C420.918 1386.24 417.332 1384.55 413.762 1382.82L413.979 1382.38C410.399 1380.65 406.836 1378.89 403.29 1377.1L403.065 1377.55C399.517 1375.76 395.986 1373.95 392.471 1372.11L392.702 1371.67C389.188 1369.82 385.691 1367.96 382.211 1366.06L381.973 1366.49C378.482 1364.59 375.007 1362.66 371.551 1360.71L371.797 1360.27C368.343 1358.31 364.907 1356.33 361.488 1354.32L361.236 1354.75C357.814 1352.73 354.41 1350.69 351.023 1348.62L351.283 1348.2C347.893 1346.13 344.521 1344.03 341.168 1341.91L340.901 1342.33C337.546 1340.21 334.208 1338.06 330.89 1335.88L331.163 1335.46C327.846 1333.28 324.548 1331.08 321.269 1328.85L320.988 1329.26C317.702 1327.03 314.435 1324.77 311.188 1322.48L311.475 1322.07C308.229 1319.79 305.004 1317.48 301.798 1315.14L301.504 1315.54C298.294 1313.2 295.106 1310.84 291.937 1308.45L292.236 1308.05C289.066 1305.66 285.916 1303.25 282.787 1300.81L282.481 1301.2C279.35 1298.75 276.238 1296.29 273.147 1293.8L273.461 1293.41C270.372 1290.92 267.303 1288.4 264.256 1285.86L263.936 1286.25C260.884 1283.7 257.856 1281.13 254.848 1278.54L255.173 1278.16C252.166 1275.57 249.181 1272.96 246.218 1270.32L245.887 1270.69C242.921 1268.05 239.976 1265.39 237.054 1262.7L237.392 1262.33C234.471 1259.65 231.572 1256.94 228.695 1254.2L228.351 1254.56C225.472 1251.83 222.618 1249.07 219.785 1246.28L220.133 1245.93C217.301 1243.15 214.493 1240.35 211.707 1237.52L211.353 1237.87C208.565 1235.04 205.798 1232.19 203.057 1229.32L203.418 1228.98C200.678 1226.1 197.961 1223.21 195.269 1220.3L194.902 1220.63C192.208 1217.72 189.539 1214.78 186.893 1211.82L187.263 1211.49C184.618 1208.53 181.998 1205.55 179.401 1202.55L179.024 1202.87C176.426 1199.87 173.851 1196.85 171.302 1193.8L171.685 1193.48C169.138 1190.44 166.616 1187.38 164.119 1184.29L163.731 1184.6C161.233 1181.52 158.76 1178.41 156.312 1175.28L156.703 1174.98C154.256 1171.85 151.835 1168.71 149.438 1165.54L149.04 1165.84C146.644 1162.68 144.274 1159.49 141.929 1156.29L142.331 1156C139.988 1152.79 137.671 1149.57 135.38 1146.33L134.974 1146.62C132.681 1143.38 130.414 1140.11 128.174 1136.83L128.585 1136.55C126.349 1133.28 124.138 1129.98 121.954 1126.67L121.536 1126.95C119.352 1123.63 117.197 1120.3 115.065 1116.94L115.485 1116.68C113.356 1113.33 111.253 1109.96 109.177 1106.58L108.753 1106.83C106.679 1103.45 104.631 1100.05 102.611 1096.63L103.041 1096.38C101.024 1092.97 99.0331 1089.53 97.0703 1086.08L96.6367 1086.33C94.6724 1082.88 92.7372 1079.4 90.8281 1075.92L91.2646 1075.68C89.3616 1072.2 87.4862 1068.71 85.6387 1065.2L85.1982 1065.43C83.3503 1061.92 81.5282 1058.39 79.7363 1054.84L80.1826 1054.62C78.392 1051.08 76.6295 1047.52 74.8955 1043.94L74.4473 1044.16C72.7175 1040.59 71.0166 1037 69.3438 1033.4L69.7939 1033.2C68.1228 1029.6 66.4809 1025.99 64.8672 1022.36L64.4102 1022.56C62.7954 1018.93 61.211 1015.29 59.6543 1011.62L60.1123 1011.43C58.5624 1007.79 57.0416 1004.13 55.5498 1000.45L55.0889 1000.64C53.5967 996.96 52.1317 993.269 50.6982 989.563L51.1641 989.384C49.7315 985.68 48.3284 981.962 46.9551 978.229L46.4873 978.401C45.1192 974.683 43.7824 970.95 42.4736 967.203L42.9424 967.04C41.635 963.297 40.3569 959.541 39.1094 955.771L38.6367 955.927C37.3883 952.154 36.1694 948.367 34.9814 944.567L35.458 944.419C34.2771 940.642 33.1254 936.851 32.0049 933.048L31.5283 933.188C30.4073 929.383 29.315 925.565 28.2549 921.734L28.7354 921.603C27.676 917.775 26.6473 913.934 25.6494 910.081L25.168 910.205C24.1753 906.372 23.2136 902.528 22.2822 898.671L22.7656 898.555C21.8353 894.702 20.936 890.838 20.0674 886.962L19.5801 887.07C18.711 883.192 17.8742 879.302 17.0674 875.4L17.5547 875.3C16.7537 871.427 15.9832 867.542 15.2441 863.646L14.7559 863.738C14.0169 859.843 13.3064 855.937 12.6299 852.021L13.123 851.937C12.447 848.022 11.8015 844.097 11.1885 840.162L10.6973 840.238C10.0881 836.328 9.50849 832.407 8.96191 828.477L9.45605 828.409C8.91063 824.487 8.39655 820.554 7.91406 816.611L7.41992 816.671C6.93715 812.726 6.48666 808.772 6.06738 804.808L6.56152 804.756C6.14549 800.823 5.76117 796.879 5.4082 792.928L4.91113 792.972C4.55877 789.027 4.24022 785.072 3.95117 781.109L4.44629 781.073C4.15745 777.113 3.90084 773.144 3.67578 769.166L3.17676 769.193C2.95309 765.24 2.76372 761.278 2.60352 757.309L3.09961 757.29C2.94011 753.338 2.81287 749.377 2.7168 745.409L2.21875 745.42C2.12262 741.449 2.05853 737.471 2.02637 733.484L2.52441 733.481C2.50834 731.49 2.5 729.496 2.5 727.5C2.5 725.505 2.50835 723.511 2.52441 721.52L2.02637 721.516C2.05853 717.529 2.12261 713.55 2.21875 709.579L2.7168 709.592C2.81286 705.624 2.94011 701.663 3.09961 697.711L2.60352 697.69C2.76373 693.721 2.95308 689.759 3.17676 685.806L3.67578 685.834C3.90084 681.856 4.15744 677.887 4.44629 673.927L3.95117 673.891C4.24021 669.928 4.55877 665.973 4.91113 662.028L5.4082 662.072C5.76115 658.121 6.14551 654.178 6.56152 650.245L6.06738 650.192C6.4867 646.228 6.9371 642.273 7.41992 638.328L7.91406 638.389C8.39653 634.447 8.91066 630.514 9.45605 626.592L8.96191 626.522C9.50849 622.592 10.0881 618.671 10.6973 614.761L11.1885 614.838C11.8015 610.903 12.4461 606.978 13.1221 603.063L12.6299 602.979C13.3064 599.062 14.0169 595.156 14.7559 591.261L15.2441 591.354C15.9831 587.458 16.7537 583.573 17.5547 579.7L17.0674 579.6C17.8743 575.698 18.7109 571.807 19.5801 567.929L20.0674 568.038C20.936 564.162 21.8353 560.298 22.7656 556.445L22.2822 556.328C23.2136 552.471 24.1753 548.626 25.168 544.794L25.6494 544.92C26.6473 541.067 27.6761 537.226 28.7354 533.398L28.2549 533.265C29.315 529.434 30.4073 525.617 31.5283 521.812L32.0049 521.953C33.1255 518.15 34.2761 514.358 35.457 510.581L34.9814 510.432C36.1694 506.632 37.3883 502.845 38.6367 499.072L39.1094 499.229C40.3569 495.459 41.635 491.703 42.9424 487.96L42.4736 487.796C43.7824 484.049 45.1192 480.316 46.4873 476.598L46.9551 476.771C48.3284 473.038 49.7315 469.32 51.1641 465.616L50.6982 465.437C52.1318 461.73 53.5965 458.04 55.0889 454.363L55.5498 454.551C57.0416 450.876 58.5624 447.215 60.1123 443.57L59.6533 443.375C60.6745 440.973 61.7067 438.578 62.7529 436.189L64.4102 432.438L64.8662 432.641C66.4799 429.013 68.1228 425.402 69.7939 421.806L69.3438 421.596C71.0168 417.996 72.7173 414.411 74.4473 410.844L74.8955 411.062C76.6295 407.485 78.392 403.925 80.1826 400.382L79.7363 400.156C81.5282 396.611 83.3503 393.083 85.1982 389.571L85.6387 389.804C87.4862 386.293 89.3616 382.798 91.2646 379.321L90.8281 379.082C92.737 375.595 94.6717 372.123 96.6357 368.671L97.0703 368.918C99.0331 365.468 101.023 362.035 103.04 358.62L102.611 358.366C104.631 354.948 106.679 351.548 108.753 348.165L109.177 348.426C111.253 345.04 113.356 341.672 115.485 338.322L115.065 338.055C117.197 334.703 119.352 331.368 121.536 328.054L121.537 328.055L121.954 328.33C124.138 325.017 126.349 321.723 128.585 318.447L128.174 318.166C130.414 314.885 132.681 311.623 134.974 308.38L135.38 308.667C137.671 305.426 139.988 302.205 142.331 299.004L141.928 298.709C144.273 295.504 146.644 292.32 149.04 289.155L149.438 289.456C151.835 286.291 154.256 283.146 156.703 280.021L156.312 279.715C158.76 276.588 161.233 273.482 163.731 270.396L164.118 270.71C166.616 267.626 169.138 264.562 171.685 261.52L171.301 261.199C173.85 258.153 176.426 255.129 179.024 252.126L179.401 252.452C181.998 249.451 184.618 246.472 187.263 243.514L186.892 243.183C189.538 240.222 192.208 237.282 194.902 234.365L195.269 234.704C197.961 231.789 200.678 228.895 203.418 226.024L203.056 225.679C205.797 222.806 208.565 219.958 211.353 217.13L211.706 217.479C214.492 214.654 217.301 211.85 220.133 209.07L219.784 208.715C222.618 205.933 225.472 203.173 228.351 200.438L228.695 200.799C231.572 198.065 234.471 195.355 237.392 192.668L237.053 192.3C239.975 189.612 242.92 186.948 245.886 184.308L246.218 184.68C249.181 182.041 252.165 179.426 255.172 176.836L254.847 176.459C257.855 173.867 260.884 171.297 263.936 168.754L264.256 169.138C267.303 166.598 270.371 164.082 273.46 161.591L273.147 161.203C276.238 158.711 279.35 156.244 282.481 153.802L282.787 154.194C285.917 151.754 289.066 149.338 292.236 146.947L291.937 146.55C295.106 144.16 298.294 141.795 301.503 139.456L301.798 139.859C305.004 137.523 308.229 135.213 311.475 132.928L311.188 132.52C314.435 130.233 317.702 127.973 320.988 125.738L321.269 126.15C324.548 123.921 327.846 121.716 331.163 119.539L330.889 119.122C334.207 116.944 337.545 114.794 340.9 112.669L341.167 113.089C344.52 110.965 347.893 108.869 351.283 106.799L351.023 106.374C354.409 104.307 357.813 102.266 361.235 100.253L361.488 100.682C364.907 98.6704 368.343 96.6862 371.797 94.7295L371.55 94.2949C375.006 92.3367 378.481 90.408 381.973 88.5049L382.211 88.9414C385.691 87.0447 389.187 85.1753 392.701 83.334L392.471 82.8936C395.986 81.0515 399.517 79.2353 403.065 77.4492L403.29 77.8955C406.836 76.1107 410.399 74.3543 413.979 72.626L413.761 72.1768C417.331 70.4527 420.918 68.7581 424.521 67.0908L424.729 67.542C428.328 65.8764 431.943 64.2391 435.573 62.6309L435.37 62.1748C439.003 60.5654 442.652 58.9851 446.315 57.4336L446.511 57.8926C450.157 56.3483 453.819 54.833 457.496 53.3467L457.31 52.8857C460.988 51.3988 464.681 49.9401 468.389 48.5117L468.569 48.9766C472.275 47.5491 475.995 46.1506 479.729 44.7822L479.558 44.3135C483.277 42.9505 487.012 41.6192 490.76 40.3154L490.923 40.7852C494.667 39.4825 498.426 38.2098 502.198 36.9668L502.041 36.4932C505.816 35.2492 509.604 34.0343 513.406 32.8506L513.555 33.3271C517.333 32.1509 521.124 31.0049 524.929 29.8887L524.788 29.4121C528.594 28.2954 532.413 27.2074 536.245 26.1514L536.378 26.6318C540.207 25.5765 544.049 24.5508 547.903 23.5566L547.778 23.0742C551.612 22.0855 555.457 21.1289 559.314 20.2012L559.432 20.6846C563.285 19.7579 567.15 18.8613 571.026 17.9961L570.918 17.5098C574.797 16.644 578.688 15.8096 582.591 15.0059L582.692 15.4941C586.566 14.6964 590.451 13.9284 594.347 13.1924L594.254 12.7051C598.15 11.9691 602.055 11.2597 605.973 10.5859L605.974 10.5869L606.059 11.0791C609.973 10.4058 613.898 9.76392 617.834 9.15332L617.758 8.66211C621.668 8.05541 625.589 7.47889 629.52 6.93457L629.588 7.42773C633.511 6.8845 637.444 6.37312 641.387 5.89258L641.326 5.39746C645.272 4.91659 649.227 4.4684 653.191 4.05078L653.243 4.54492C657.176 4.13063 661.119 3.74797 665.07 3.39648L665.026 2.89844C668.972 2.54749 672.926 2.23123 676.89 1.94336L676.926 2.43848C680.886 2.15081 684.855 1.89504 688.833 1.6709L688.806 1.17285C692.759 0.950113 696.72 0.760133 700.689 0.600586L700.71 1.09766C704.662 0.938808 708.623 0.811496 712.591 0.71582L712.579 0.217773C716.55 0.122038 720.528 0.0584023 724.515 0.0263672L724.519 0.524414C726.51 0.508407 728.504 0.5 730.5 0.5C732.495 0.5 734.489 0.508411 736.48 0.524414L736.483 0.0263672C740.47 0.058394 744.449 0.122037 748.42 0.217773L748.409 0.71582C752.377 0.811492 756.338 0.938816 760.29 1.09766L760.309 0.600586C764.278 0.760135 768.24 0.950101 772.193 1.17285L772.166 1.6709C776.144 1.89504 780.114 2.1508 784.074 2.43848L784.109 1.94336C788.072 2.23121 792.027 2.54753 795.972 2.89844L795.929 3.39648C799.88 3.74797 803.823 4.13063 807.756 4.54492L807.808 4.05078C811.772 4.46839 815.727 4.91659 819.673 5.39746L819.613 5.8916C823.556 6.37211 827.488 6.88454 831.411 7.42773L831.479 6.93457C835.41 7.47888 839.331 8.05542 843.241 8.66211L843.165 9.15332C847.101 9.76395 851.027 10.4058 854.941 11.0791L855.026 10.5869V10.5859C858.944 11.2597 862.849 11.9691 866.745 12.7051L866.653 13.1924C870.549 13.9284 874.434 14.6954 878.308 15.4932L878.407 15.0059C882.31 15.8096 886.201 16.6439 890.081 17.5098L889.973 17.9961C893.849 18.8613 897.715 19.7579 901.568 20.6846L901.684 20.2012C905.541 21.1288 909.387 22.0855 913.22 23.0742L913.096 23.5566C916.95 24.5508 920.792 25.5756 924.621 26.6309L924.753 26.1514C928.584 27.2073 932.403 28.2945 936.209 29.4111L936.07 29.8887C939.875 31.0049 943.667 32.1508 947.445 33.3271L947.593 32.8506C951.394 34.0342 955.182 35.2493 958.957 36.4932L958.802 36.9658C962.574 38.2088 966.332 39.4826 970.076 40.7852L970.239 40.3154C973.987 41.6192 977.722 42.9505 981.441 44.3135L981.271 44.7822C985.005 46.1506 988.725 47.5491 992.431 48.9766L992.609 48.5117C996.317 49.9401 1000.01 51.3988 1003.69 52.8857L1003.5 53.3467C1007.18 54.833 1010.84 56.3483 1014.49 57.8926L1014.68 57.4336C1018.35 58.985 1022 60.5655 1025.63 62.1748L1025.43 62.6309C1029.06 64.2391 1032.67 65.8764 1036.27 67.542L1036.48 67.0908C1040.08 68.758 1043.67 70.4528 1047.24 72.1768L1047.02 72.625C1050.6 74.3534 1054.16 76.1106 1057.71 77.8955L1057.93 77.4492C1061.48 79.2353 1065.01 81.0515 1068.53 82.8936L1068.3 83.334C1071.81 85.1754 1075.31 87.0446 1078.79 88.9414L1079.03 88.5049C1082.52 90.4077 1085.99 92.336 1089.45 94.2939L1089.2 94.7295C1092.66 96.6862 1096.09 98.6705 1099.51 100.682L1099.76 100.252C1103.19 102.266 1106.59 104.306 1109.98 106.374L1109.72 106.799C1113.11 108.869 1116.48 110.965 1119.83 113.089L1120.1 112.668C1123.45 114.793 1126.79 116.943 1130.11 119.121L1129.84 119.539C1133.15 121.716 1136.45 123.921 1139.73 126.15L1140.01 125.738C1143.3 127.973 1146.56 130.233 1149.81 132.52L1149.53 132.927C1152.77 135.212 1156 137.523 1159.2 139.859L1159.5 139.455C1162.7 141.794 1165.89 144.16 1169.06 146.55L1168.76 146.947C1171.93 149.338 1175.08 151.754 1178.21 154.194L1178.52 153.802C1181.65 156.244 1184.76 158.711 1187.85 161.203L1187.54 161.591C1190.63 164.082 1193.7 166.597 1196.74 169.138L1197.06 168.754C1200.11 171.297 1203.14 173.867 1206.15 176.459L1205.83 176.836C1208.83 179.426 1211.82 182.041 1214.78 184.68L1215.11 184.308C1218.08 186.948 1221.02 189.612 1223.95 192.3L1223.61 192.667C1226.53 195.354 1229.43 198.065 1232.3 200.799L1232.65 200.438C1235.53 203.173 1238.38 205.933 1241.21 208.715L1240.87 209.069C1243.7 211.849 1246.51 214.653 1249.29 217.479L1249.65 217.13C1252.43 219.957 1255.2 222.806 1257.94 225.679L1257.58 226.024C1260.32 228.895 1263.04 231.788 1265.73 234.703L1266.1 234.365C1268.79 237.282 1271.46 240.221 1274.11 243.182L1273.74 243.514C1276.38 246.472 1279 249.451 1281.6 252.452L1281.97 252.126C1284.57 255.129 1287.15 258.153 1289.7 261.198L1289.32 261.52C1291.86 264.562 1294.38 267.625 1296.88 270.709L1297.27 270.396C1299.77 273.481 1302.24 276.588 1304.69 279.715L1304.3 280.021C1306.74 283.146 1309.17 286.291 1311.56 289.456L1311.96 289.154C1314.36 292.319 1316.73 295.504 1319.07 298.709L1318.67 299.004C1321.01 302.205 1323.33 305.426 1325.62 308.667L1326.03 308.38C1328.32 311.623 1330.58 314.885 1332.83 318.166L1332.42 318.447C1334.65 321.722 1336.86 325.017 1339.05 328.33L1339.46 328.055V328.054C1341.65 331.368 1343.8 334.703 1345.93 338.055L1345.51 338.322C1347.64 341.671 1349.75 345.039 1351.82 348.425L1352.25 348.165C1354.32 351.547 1356.37 354.947 1358.39 358.365L1357.96 358.62C1359.98 362.035 1361.97 365.468 1363.93 368.918L1364.36 368.67C1366.33 372.123 1368.26 375.594 1370.17 379.082L1369.74 379.32C1371.64 382.797 1373.51 386.292 1375.36 389.803L1375.8 389.571C1377.65 393.083 1379.47 396.611 1381.26 400.156L1380.82 400.382C1382.61 403.925 1384.37 407.485 1386.1 411.061L1386.55 410.844C1388.28 414.411 1389.98 417.995 1391.66 421.595L1391.21 421.805C1392.88 425.401 1394.52 429.013 1396.13 432.641L1396.59 432.438Z" stroke="url(#paint0_linear_8664_1560)" stroke-dasharray="12 12"/>
<circle cx="730" cy="730" r="496.5" stroke="url(#paint1_linear_8664_1560)" stroke-width="95"/>
<circle opacity="0.5" cx="730" cy="731" r="449.5" stroke="white" stroke-dasharray="12 12"/>
<circle opacity="0.5" cx="736.5" cy="727.5" r="538" stroke="url(#paint2_linear_8664_1560)" stroke-dasharray="12 12"/>
<defs>
<linearGradient id="paint0_linear_8664_1560" x1="1246.5" y1="270" x2="-35.5" y2="786.5" gradientUnits="userSpaceOnUse">
<stop stop-color="white"/>
<stop offset="1" stop-color="#999999" stop-opacity="0.56"/>
</linearGradient>
<linearGradient id="paint1_linear_8664_1560" x1="1192.48" y1="939.615" x2="330.179" y2="758.836" gradientUnits="userSpaceOnUse">
<stop stop-color="#5B6FFF"/>
<stop offset="1" stop-color="#09090B" stop-opacity="0"/>
</linearGradient>
<linearGradient id="paint2_linear_8664_1560" x1="736.5" y1="189" x2="270" y2="1025" gradientUnits="userSpaceOnUse">
<stop stop-color="white"/>
<stop offset="1" stop-color="#999999" stop-opacity="0.75"/>
</linearGradient>
</defs>
</svg>
