<svg width="50" height="50" viewBox="0 0 50 50" fill="none" xmlns="http://www.w3.org/2000/svg">
<path d="M10.8557 44.7885L0.601785 27.1007C0.207548 26.4207 0 25.6493 0 24.8641C0 24.0788 0.207548 23.3074 0.601785 22.6274L10.8557 4.93997C11.25 4.25984 11.8171 3.69507 12.5 3.30242C13.183 2.90977 13.9577 2.70308 14.7463 2.70313H35.254C36.0425 2.70314 36.8172 2.90987 37.5 3.30251C38.1829 3.69516 38.75 4.2599 39.1442 4.93997L49.3981 22.6274C49.7924 23.3075 50 24.0789 50 24.8642C50 25.6496 49.7924 26.421 49.3981 27.1011L39.1442 44.7885C38.7499 45.4685 38.1828 46.0332 37.5 46.4258C36.8171 46.8183 36.0425 47.025 35.254 47.025H14.7463C13.9577 47.0251 13.183 46.8184 12.5 46.4257C11.817 46.0331 11.2499 45.4687 10.8557 44.7885Z" fill="url(#paint0_linear_17275_24619)"/>
<path opacity="0.07" d="M46.5737 33.6085L31.4941 18.5901L25 16.8594L19.1668 19.0184L16.9141 24.8634L18.7254 31.3713L34.7167 47.2968L38.1101 47.1467L46.5737 33.6085Z" fill="black"/>
<path d="M24.998 15.8398C19.9941 15.8398 15.9375 19.8798 15.9375 24.8635C15.9375 29.8468 19.9941 33.8867 24.998 33.8867C30.0019 33.8867 34.0581 29.8468 34.0581 24.8635C34.0581 19.8798 30.0015 15.8398 24.998 15.8398ZM24.998 31.7098C21.2012 31.7098 18.123 28.6443 18.123 24.8631C18.123 21.0818 21.2012 18.0168 24.998 18.0168C28.7949 18.0168 31.873 21.0822 31.873 24.8635C31.873 28.6447 28.7949 31.7098 24.998 31.7098Z" fill="white"/>
<path d="M20.7031 24.5168V27.3216C21.1198 28.0341 21.7078 28.6323 22.4141 29.0625V24.5168H20.7031ZM24.0957 22.1523V29.7035C24.3867 29.7568 24.6844 29.7891 24.9902 29.7891C25.2691 29.7891 25.541 29.76 25.8078 29.7156V22.1523H24.0957ZM27.6469 25.6823V29.013C28.3644 28.5586 28.9536 27.9293 29.3586 27.1847V25.6827L27.6469 25.6823ZM31.5238 30.4232L30.5851 31.3588C30.5056 31.4382 30.461 31.5457 30.461 31.6578C30.461 31.7699 30.5056 31.8774 30.5851 31.9567L34.1457 35.5015C34.2253 35.5806 34.3333 35.6251 34.4459 35.6251C34.5584 35.6251 34.6664 35.5806 34.746 35.5015L35.6847 34.567C35.7637 34.4875 35.808 34.3801 35.808 34.2683C35.808 34.1564 35.7637 34.049 35.6847 33.9695L32.1238 30.4232C32.044 30.3444 31.9362 30.3001 31.8238 30.3001C31.7114 30.3001 31.6036 30.3444 31.5238 30.4232Z" fill="white"/>
<defs>
<linearGradient id="paint0_linear_17275_24619" x1="25.0001" y1="2.70351" x2="25.0001" y2="46.9561" gradientUnits="userSpaceOnUse">
<stop stop-color="#4387FD"/>
<stop offset="1" stop-color="#4683EA"/>
</linearGradient>
</defs>
</svg>
