<svg width="60" height="60" viewBox="0 0 60 60" fill="none" xmlns="http://www.w3.org/2000/svg">
<g clip-path="url(#clip0_2584_11788)">
<path d="M58.7403 15.6112C57.8769 15.4111 57.0175 15.9566 56.8173 16.82C56.8095 16.8435 56.6682 17.3929 56.3111 18.2013C56.0835 18.1464 55.8519 18.1189 55.6086 18.1189C55.2515 18.1189 54.9061 18.1935 54.5844 18.3034L41.2885 5.01539C41.3238 4.83487 41.3513 4.65042 41.3513 4.46205C41.3513 4.26975 41.3238 4.08531 41.2885 3.90086C42.3089 3.41031 43.0466 3.20624 43.1761 3.17093C44.0395 2.97471 44.5693 2.11526 44.3809 1.24797C44.1847 0.384608 43.3214 -0.156958 42.458 0.0392617C42.4109 0.0510349 41.002 0.400306 39.1183 1.47166C38.8279 1.38533 38.5257 1.32254 38.2079 1.32254C36.4811 1.32254 35.0684 2.72747 35.0684 4.45813C35.0684 4.50129 35.0801 4.53661 35.0801 4.57586C33.3102 6.37715 31.5992 8.85344 30.4533 12.2166C29.4683 12.7464 28.7893 13.7746 28.7893 14.9716C28.7893 15.6466 29.0091 16.2666 29.3662 16.7768C28.9385 19.6691 28.8757 23.0362 29.3701 26.9724L29.7508 30.2335C30.0844 33.8597 29.9274 37.0345 29.4879 39.8404C29.2838 39.8757 29.0954 39.9228 28.911 39.9895L19.9712 31.0537C20.0419 30.8693 20.085 30.6848 20.1204 30.4925C22.11 30.1982 24.8689 30.0451 27.0704 30.0648V26.8546C24.1272 26.8232 21.4743 27.1215 19.0451 27.6003C18.4996 27.145 17.805 26.8585 17.0319 26.8585C15.6662 26.8585 14.5163 27.7415 14.0846 28.9581C11.2866 29.951 8.92015 31.1871 7.00112 32.4586C6.87946 32.4429 6.75388 32.4233 6.6283 32.4233C5.03108 32.4233 3.72818 33.6163 3.52803 35.1508C1.42064 37.0541 0.345354 38.5885 0.231546 38.7808C-0.153044 39.4284 -0.0313876 40.225 0.474859 40.7352C0.56512 40.8215 0.671078 40.9079 0.784885 40.9824C1.54622 41.4337 2.53516 41.1904 2.99432 40.433C3.07673 40.2957 3.67716 39.3656 4.83486 38.1294C5.16058 38.3609 5.52947 38.5218 5.92976 38.6121L21.7843 54.4627C21.7843 54.7099 21.8196 54.9454 21.8706 55.1691C20.6423 56.3268 19.7122 56.9233 19.5788 57.0096C18.8175 57.4649 18.5663 58.4499 19.0176 59.2151C19.0882 59.3329 19.1707 59.4388 19.2648 59.5291C19.775 60.0393 20.5795 60.157 21.2231 59.7724C21.3919 59.6821 22.5731 58.9326 24.1154 57.4688C24.3705 57.5394 24.6373 57.5865 24.916 57.5865C26.6505 57.5865 28.0555 56.1816 28.0555 54.447C28.0555 53.9839 27.9495 53.5483 27.7729 53.148C29.1111 51.1819 30.3905 48.7292 31.3794 45.7466C32.4194 45.2365 33.1415 44.1808 33.1415 42.9368C33.1415 42.2657 32.9256 41.6456 32.5646 41.1355C33.1179 38.0705 33.3298 34.5817 33.0198 30.622C33.0198 30.622 32.804 27.3569 32.6666 27.3412C32.1761 23.9192 32.129 20.9877 32.3801 18.4525L41.5397 27.6081C39.7109 27.7925 36.3359 27.8239 34.0598 27.6395L35.5864 30.9399C38.4119 31.0459 40.8922 30.8222 43.1291 30.3983C43.6588 30.8026 44.3142 31.0498 45.0245 31.0498C46.3588 31.0498 47.493 30.2178 47.9482 29.0484C51.1191 27.7925 53.513 26.0894 55.2986 24.3626C55.4045 24.3705 55.5105 24.394 55.6165 24.394C57.3432 24.394 58.752 22.9891 58.752 21.2584C58.752 20.917 58.6893 20.5952 58.5872 20.2852C59.5526 18.7115 59.949 17.5774 59.9608 17.5342C60.1491 16.6708 59.6076 15.8075 58.7403 15.6112ZM25.3673 51.3467L9.74427 35.7277C9.74819 35.6688 9.75997 35.6178 9.75997 35.5589C9.75997 35.3038 9.72072 35.0566 9.66578 34.8211C11.0746 33.8754 12.7739 32.9492 14.7753 32.1722C15.3483 32.7647 16.1449 33.1376 17.0319 33.1376C17.0633 33.1376 17.0947 33.1258 17.1221 33.1258L26.8585 42.8701C26.8585 42.8897 26.8546 42.9132 26.8546 42.9328C26.8546 44.2514 27.667 45.3738 28.8168 45.8408C27.9652 48.0816 26.9449 49.9575 25.901 51.4762C25.7322 51.4213 25.5517 51.3742 25.3673 51.3467ZM35.0134 14.3868C34.9232 13.9002 34.7112 13.4607 34.4208 13.0839C35.2371 10.7254 36.3516 8.91231 37.5446 7.527C37.7605 7.57017 37.9842 7.60156 38.2118 7.60156C38.4473 7.60156 38.6709 7.57409 38.8868 7.52307L52.4848 21.1211C52.4848 21.1643 52.4691 21.2074 52.4691 21.2545C52.4691 22.059 52.7831 22.789 53.2854 23.3423C51.8961 24.5235 50.0948 25.6263 47.7755 26.4426C47.3125 25.5753 46.4569 24.9631 45.4484 24.8179L35.0134 14.3868Z" fill="#4361EE"/>
</g>
<defs>
<clipPath id="clip0_2584_11788">
<rect width="60" height="60" fill="white"/>
</clipPath>
</defs>
</svg>
