<svg width="85" height="80" viewBox="0 0 85 80" fill="none" xmlns="http://www.w3.org/2000/svg">
<path d="M0 37.1014C0 19.6117 0 10.8668 5.43338 5.43338C10.8668 0 19.6117 0 37.1015 0H47.5429C65.0326 0 73.7775 0 79.2109 5.43338C84.6443 10.8668 84.6443 19.6117 84.6443 37.1014V42.9C84.6443 60.3898 84.6443 69.1347 79.2109 74.5681C73.7775 80.0014 65.0326 80.0014 47.5429 80.0014H37.1015C19.6117 80.0014 10.8668 80.0014 5.43338 74.5681C0 69.1347 0 60.3898 0 42.9V37.1014Z" fill="#1B1D1E"/>
<g clip-path="url(#clip0_10906_28666)">
<path d="M20.0937 18.5509C19.6437 18.5451 19.2142 18.7386 18.9203 19.0795C18.6265 19.4203 18.4984 19.8737 18.5704 20.3179L25.0368 59.5729C25.2031 60.5645 26.0573 61.2935 27.0627 61.3018H58.0844C58.839 61.3115 59.487 60.7672 59.6077 60.0223L66.074 20.3255C66.146 19.8813 66.0179 19.4279 65.7241 19.0871C65.4302 18.7462 65.0007 18.5527 64.5507 18.5585L20.0937 18.5509ZM47.3224 46.922H37.4211L34.7401 32.9155H49.7216L47.3224 46.922Z" fill="#2684FF"/>
<path d="M63.9788 32.8955H49.6942L47.297 46.8909H37.4035L25.7217 60.7569C26.0919 61.0771 26.564 61.2551 27.0535 61.2592H58.058C58.812 61.2689 59.4595 60.7251 59.58 59.9807L63.9788 32.8955Z" fill="url(#paint0_linear_10906_28666)"/>
</g>
<defs>
<linearGradient id="paint0_linear_10906_28666" x1="4181.72" y1="424.828" x2="2531.61" y2="2767.77" gradientUnits="userSpaceOnUse">
<stop offset="0.18" stop-color="#0052CC"/>
<stop offset="1" stop-color="#2684FF"/>
</linearGradient>
<clipPath id="clip0_10906_28666">
<rect width="47.5429" height="42.9" fill="white" transform="translate(18.5508 18.5508)"/>
</clipPath>
</defs>
</svg>
