<svg width="40" height="48" viewBox="0 0 40 48" fill="none" xmlns="http://www.w3.org/2000/svg">
<g clip-path="url(#clip0_5376_6806)">
<path d="M20.105 8C9.06 8 0.104996 16.955 0.104996 28C0.104996 39.045 9.06 48 20.105 48C31.15 48 40.105 39.045 40.105 28C40.105 16.955 31.15 8 20.105 8ZM29.37 22.4675L19.79 37.11C19.7875 37.1125 19.7825 37.115 19.7825 37.1175C19.7325 37.1925 19.705 37.2775 19.6425 37.3475C19.555 37.4425 19.4425 37.4925 19.3425 37.565C19.3175 37.5825 19.2925 37.6025 19.265 37.62C19.11 37.7175 18.95 37.7825 18.775 37.825C18.7175 37.84 18.665 37.855 18.605 37.865C18.4657 37.8842 18.3247 37.8858 18.185 37.87C18.0863 37.8638 17.9885 37.8487 17.8925 37.825C17.7935 37.7951 17.6973 37.7567 17.605 37.71C17.525 37.6725 17.44 37.6625 17.365 37.615C17.31 37.58 17.28 37.525 17.2325 37.4825C17.2125 37.465 17.1875 37.46 17.1675 37.4425L11.59 32.285C11.2594 31.9676 11.0665 31.5331 11.0528 31.0749C11.0392 30.6168 11.2058 30.1716 11.5168 29.835C11.8279 29.4984 12.2586 29.2972 12.7164 29.2748C13.1742 29.2524 13.6225 29.4104 13.965 29.715L18.0025 33.45L26.44 20.5525C26.6939 20.164 27.0918 19.8922 27.5461 19.797C28.0004 19.7019 28.474 19.7911 28.8625 20.045C29.251 20.2989 29.5228 20.6968 29.618 21.1511C29.7131 21.6055 29.6239 22.079 29.37 22.4675Z" fill="black"/>
</g>
<defs>
<clipPath id="clip0_5376_6806">
<rect width="40" height="48" fill="white"/>
</clipPath>
</defs>
</svg>
