<svg width="21" height="21" viewBox="0 0 21 21" fill="none" xmlns="http://www.w3.org/2000/svg">
<path d="M10.5 21C8.4233 21 6.39323 20.3842 4.66652 19.2304C2.9398 18.0767 1.59399 16.4368 0.79927 14.5182C0.00454961 12.5996 -0.203386 10.4884 0.201759 8.45155C0.606904 6.41475 1.60693 4.54383 3.07538 3.07538C4.54383 1.60693 6.41475 0.606904 8.45155 0.201759C10.4884 -0.203386 12.5996 0.00454961 14.5182 0.79927C16.4368 1.59399 18.0767 2.9398 19.2304 4.66652C20.3842 6.39323 21 8.4233 21 10.5C20.9967 13.2838 19.8894 15.9525 17.921 17.921C15.9525 19.8894 13.2838 20.9967 10.5 21ZM10.5 1.73261C8.76597 1.73261 7.07089 2.24681 5.6291 3.21018C4.18731 4.17355 3.06357 5.54283 2.39999 7.14487C1.7364 8.7469 1.56278 10.5097 1.90107 12.2104C2.23936 13.9111 3.07438 15.4733 4.30052 16.6995C5.52666 17.9256 7.08886 18.7606 8.78957 19.0989C10.4903 19.4372 12.2531 19.2636 13.8551 18.6C15.4572 17.9364 16.8265 16.8127 17.7898 15.3709C18.7532 13.9291 19.2674 12.234 19.2674 10.5C19.2619 8.17644 18.3364 5.94962 16.6934 4.30661C15.0504 2.6636 12.8236 1.73812 10.5 1.73261Z" fill="#00050F"/>
<path d="M15.2694 5.97509C15.378 5.89994 15.5032 5.86237 15.5909 5.94586C15.6786 6.02936 15.6243 6.24229 15.5408 6.36336L10.7355 13.7488C10.5081 14.1514 10.2047 14.5059 9.84201 14.7926C9.58199 14.9674 9.28117 15.0719 8.96879 15.0961C8.65641 15.1202 8.3431 15.0631 8.05931 14.9304C7.65332 14.701 7.29596 14.3947 7.00722 14.0286L5.56686 12.4254C5.20782 12.0079 5.25374 11.319 5.91338 11.2773C6.2177 11.2867 6.51365 11.3791 6.76925 11.5445L8.13446 12.2626C8.30893 12.3772 8.51443 12.4355 8.72312 12.4296C8.93938 12.3744 9.13153 12.2497 9.27004 12.0747L15.1484 6.07946C15.1853 6.04088 15.2258 6.00593 15.2694 5.97509Z" fill="#00050F"/>
</svg>
