<svg width="72" height="73" viewBox="0 0 72 73" fill="none" xmlns="http://www.w3.org/2000/svg">
<path d="M10.6934 46.0658V47H9.75915V46.0658H10.6934ZM10.6934 45.1315V46.0658H9.75915V45.1315H10.6934ZM10.6934 44.1973V45.1315H9.75915V44.1973H10.6934ZM10.6934 43.2631V44.1973H9.75915V43.2631H10.6934ZM10.6934 42.3288V43.2631H9.75915V42.3288H10.6934ZM10.6934 41.3946V42.3288H9.75915V41.3946H10.6934ZM10.6934 40.4604V41.3946H9.75915V40.4604H10.6934ZM10.6934 39.5261V40.4604H9.75915V39.5261H10.6934ZM10.6934 38.5919V39.5261H9.75915V38.5919H10.6934ZM10.6934 37.6577V38.5919H9.75915V37.6577H10.6934ZM10.6934 36.7234V37.6577H9.75915V36.7234H10.6934ZM10.6934 35.7892V36.7234H9.75915V35.7892H10.6934ZM10.6934 34.855V35.7892H9.75915V34.855H10.6934ZM10.6934 33.9207V34.855H9.75915V33.9207H10.6934ZM10.6934 32.9865V33.9207H9.75915V32.9865H10.6934ZM11.6276 32.9865V33.9207H10.6934V32.9865H11.6276ZM11.6276 33.9207V34.855H10.6934V33.9207H11.6276ZM11.6276 34.855V35.7892H10.6934V34.855H11.6276ZM11.6276 35.7892V36.7234H10.6934V35.7892H11.6276ZM11.6276 36.7234V37.6577H10.6934V36.7234H11.6276ZM11.6276 37.6577V38.5919H10.6934V37.6577H11.6276ZM11.6276 38.5919V39.5261H10.6934V38.5919H11.6276ZM12.5619 39.5261V40.4604H11.6276V39.5261H12.5619ZM12.5619 40.4604V41.3946H11.6276V40.4604H12.5619ZM12.5619 41.3946V42.3288H11.6276V41.3946H12.5619ZM12.5619 42.3288V43.2631H11.6276V42.3288H12.5619ZM12.5619 43.2631V44.1973H11.6276V43.2631H12.5619ZM12.5619 44.1973V45.1315H11.6276V44.1973H12.5619ZM12.5619 45.1315V46.0658H11.6276V45.1315H12.5619ZM12.5619 46.0658V47H11.6276V46.0658H12.5619ZM13.4961 46.0658V47H12.5619V46.0658H13.4961ZM14.4303 46.0658V47H13.4961V46.0658H14.4303ZM14.4303 45.1315V46.0658H13.4961V45.1315H14.4303ZM14.4303 44.1973V45.1315H13.4961V44.1973H14.4303ZM14.4303 43.2631V44.1973H13.4961V43.2631H14.4303ZM14.4303 42.3288V43.2631H13.4961V42.3288H14.4303ZM14.4303 41.3946V42.3288H13.4961V41.3946H14.4303ZM14.4303 40.4604V41.3946H13.4961V40.4604H14.4303ZM14.4303 39.5261V40.4604H13.4961V39.5261H14.4303ZM13.4961 39.5261V40.4604H12.5619V39.5261H13.4961ZM13.4961 38.5919V39.5261H12.5619V38.5919H13.4961ZM13.4961 40.4604V41.3946H12.5619V40.4604H13.4961ZM13.4961 41.3946V42.3288H12.5619V41.3946H13.4961ZM13.4961 42.3288V43.2631H12.5619V42.3288H13.4961ZM13.4961 43.2631V44.1973H12.5619V43.2631H13.4961ZM13.4961 44.1973V45.1315H12.5619V44.1973H13.4961ZM13.4961 45.1315V46.0658H12.5619V45.1315H13.4961ZM11.6276 46.0658V47H10.6934V46.0658H11.6276ZM11.6276 45.1315V46.0658H10.6934V45.1315H11.6276ZM11.6276 44.1973V45.1315H10.6934V44.1973H11.6276ZM11.6276 43.2631V44.1973H10.6934V43.2631H11.6276ZM11.6276 42.3288V43.2631H10.6934V42.3288H11.6276ZM11.6276 41.3946V42.3288H10.6934V41.3946H11.6276ZM11.6276 40.4604V41.3946H10.6934V40.4604H11.6276ZM11.6276 39.5261V40.4604H10.6934V39.5261H11.6276ZM10.6934 23.6442V24.5784H9.75915V23.6442H10.6934ZM10.6934 24.5784V25.5126H9.75915V24.5784H10.6934ZM10.6934 25.5126V26.4469H9.75915V25.5126H10.6934ZM10.6934 26.4469V27.3811H9.75915V26.4469H10.6934ZM10.6934 27.3811V28.3153H9.75915V27.3811H10.6934ZM10.6934 28.3153V29.2496H9.75915V28.3153H10.6934ZM10.6934 29.2496V30.1838H9.75915V29.2496H10.6934ZM10.6934 30.1838V31.118H9.75915V30.1838H10.6934ZM10.6934 31.118V32.0523H9.75915V31.118H10.6934ZM10.6934 32.0523V32.9865H9.75915V32.0523H10.6934ZM13.4961 23.6442V24.5784H12.5619V23.6442H13.4961ZM13.4961 24.5784V25.5126H12.5619V24.5784H13.4961ZM13.4961 25.5126V26.4469H12.5619V25.5126H13.4961ZM13.4961 26.4469V27.3811H12.5619V26.4469H13.4961ZM13.4961 27.3811V28.3153H12.5619V27.3811H13.4961ZM13.4961 28.3153V29.2496H12.5619V28.3153H13.4961ZM13.4961 30.1838V31.118H12.5619V30.1838H13.4961ZM13.4961 31.118V32.0523H12.5619V31.118H13.4961ZM13.4961 32.0523V32.9865H12.5619V32.0523H13.4961ZM13.4961 32.9865V33.9207H12.5619V32.9865H13.4961ZM13.4961 33.9207V34.855H12.5619V33.9207H13.4961ZM13.4961 34.855V35.7892H12.5619V34.855H13.4961ZM13.4961 35.7892V36.7234H12.5619V35.7892H13.4961ZM14.4303 36.7234V37.6577H13.4961V36.7234H14.4303ZM14.4303 37.6577V38.5919H13.4961V37.6577H14.4303ZM14.4303 38.5919V39.5261H13.4961V38.5919H14.4303ZM14.4303 35.7892V36.7234H13.4961V35.7892H14.4303ZM14.4303 34.855V35.7892H13.4961V34.855H14.4303ZM14.4303 33.9207V34.855H13.4961V33.9207H14.4303ZM14.4303 32.9865V33.9207H13.4961V32.9865H14.4303ZM14.4303 32.0523V32.9865H13.4961V32.0523H14.4303ZM14.4303 31.118V32.0523H13.4961V31.118H14.4303ZM14.4303 30.1838V31.118H13.4961V30.1838H14.4303ZM14.4303 29.2496V30.1838H13.4961V29.2496H14.4303ZM14.4303 28.3153V29.2496H13.4961V28.3153H14.4303ZM14.4303 27.3811V28.3153H13.4961V27.3811H14.4303ZM13.4961 29.2496V30.1838H12.5619V29.2496H13.4961ZM14.4303 26.4469V27.3811H13.4961V26.4469H14.4303ZM14.4303 25.5126V26.4469H13.4961V25.5126H14.4303ZM14.4303 24.5784V25.5126H13.4961V24.5784H14.4303ZM14.4303 23.6442V24.5784H13.4961V23.6442H14.4303ZM12.5619 23.6442V24.5784H11.6276V23.6442H12.5619ZM11.6276 23.6442V24.5784H10.6934V23.6442H11.6276ZM11.6276 24.5784V25.5126H10.6934V24.5784H11.6276ZM12.5619 24.5784V25.5126H11.6276V24.5784H12.5619ZM12.5619 25.5126V26.4469H11.6276V25.5126H12.5619ZM12.5619 26.4469V27.3811H11.6276V26.4469H12.5619ZM12.5619 27.3811V28.3153H11.6276V27.3811H12.5619ZM12.5619 28.3153V29.2496H11.6276V28.3153H12.5619ZM12.5619 29.2496V30.1838H11.6276V29.2496H12.5619ZM12.5619 30.1838V31.118H11.6276V30.1838H12.5619ZM11.6276 31.118V32.0523H10.6934V31.118H11.6276ZM11.6276 32.0523V32.9865H10.6934V32.0523H11.6276ZM11.6276 30.1838V31.118H10.6934V30.1838H11.6276ZM11.6276 29.2496V30.1838H10.6934V29.2496H11.6276ZM11.6276 28.3153V29.2496H10.6934V28.3153H11.6276ZM11.6276 27.3811V28.3153H10.6934V27.3811H11.6276ZM11.6276 26.4469V27.3811H10.6934V26.4469H11.6276ZM11.6276 25.5126V26.4469H10.6934V25.5126H11.6276ZM12.5619 31.118V32.0523H11.6276V31.118H12.5619ZM12.5619 32.0523V32.9865H11.6276V32.0523H12.5619ZM12.5619 32.9865V33.9207H11.6276V32.9865H12.5619ZM12.5619 33.9207V34.855H11.6276V33.9207H12.5619ZM12.5619 34.855V35.7892H11.6276V34.855H12.5619ZM12.5619 35.7892V36.7234H11.6276V35.7892H12.5619ZM12.5619 36.7234V37.6577H11.6276V36.7234H12.5619ZM12.5619 37.6577V38.5919H11.6276V37.6577H12.5619ZM12.5619 38.5919V39.5261H11.6276V38.5919H12.5619ZM13.4961 37.6577V38.5919H12.5619V37.6577H13.4961ZM13.4961 36.7234V37.6577H12.5619V36.7234H13.4961ZM15.3646 34.855V35.7892H14.4303V34.855H15.3646ZM16.2988 34.855V35.7892H15.3646V34.855H16.2988ZM16.2988 35.7892V36.7234H15.3646V35.7892H16.2988ZM15.3646 35.7892V36.7234H14.4303V35.7892H15.3646ZM15.3646 32.9865V33.9207H14.4303V32.9865H15.3646ZM16.2988 32.9865V33.9207H15.3646V32.9865H16.2988ZM15.3646 36.7234V37.6577H14.4303V36.7234H15.3646ZM16.2988 36.7234V37.6577H15.3646V36.7234H16.2988ZM16.2988 33.9207V34.855H15.3646V33.9207H16.2988ZM15.3646 33.9207V34.855H14.4303V33.9207H15.3646ZM15.3646 23.6442V24.5784H14.4303V23.6442H15.3646ZM16.2988 23.6442V24.5784H15.3646V23.6442H16.2988ZM16.2988 24.5784V25.5126H15.3646V24.5784H16.2988ZM15.3646 24.5784V25.5126H14.4303V24.5784H15.3646ZM15.3646 25.5126V26.4469H14.4303V25.5126H15.3646ZM16.2988 25.5126V26.4469H15.3646V25.5126H16.2988ZM16.2988 26.4469V27.3811H15.3646V26.4469H16.2988ZM15.3646 26.4469V27.3811H14.4303V26.4469H15.3646ZM15.3646 27.3811V28.3153H14.4303V27.3811H15.3646ZM16.2988 27.3811V28.3153H15.3646V27.3811H16.2988ZM15.3646 46.0658V47H14.4303V46.0658H15.3646ZM16.2988 46.0658V47H15.3646V46.0658H16.2988ZM16.2988 45.1315V46.0658H15.3646V45.1315H16.2988ZM16.2988 44.1973V45.1315H15.3646V44.1973H16.2988ZM16.2988 43.2631V44.1973H15.3646V43.2631H16.2988ZM16.2988 42.3288V43.2631H15.3646V42.3288H16.2988ZM15.3646 42.3288V43.2631H14.4303V42.3288H15.3646ZM15.3646 43.2631V44.1973H14.4303V43.2631H15.3646ZM15.3646 44.1973V45.1315H14.4303V44.1973H15.3646ZM15.3646 45.1315V46.0658H14.4303V45.1315H15.3646ZM17.233 32.9865V33.9207H16.2988V32.9865H17.233ZM18.1672 32.9865V33.9207H17.233V32.9865H18.1672ZM19.1015 32.9865V33.9207H18.1672V32.9865H19.1015ZM20.0357 32.0523V32.9865H19.1015V32.0523H20.0357ZM20.9699 31.118V32.0523H20.0357V31.118H20.9699ZM20.9699 30.1838V31.118H20.0357V30.1838H20.9699ZM20.9699 29.2496V30.1838H20.0357V29.2496H20.9699ZM20.0357 28.3153V29.2496H19.1015V28.3153H20.0357ZM19.1015 27.3811V28.3153H18.1672V27.3811H19.1015ZM18.1672 27.3811V28.3153H17.233V27.3811H18.1672ZM17.233 27.3811V28.3153H16.2988V27.3811H17.233ZM17.233 23.6442V24.5784H16.2988V23.6442H17.233ZM18.1672 23.6442V24.5784H17.233V23.6442H18.1672ZM19.1015 23.6442V24.5784H18.1672V23.6442H19.1015ZM20.0357 23.6442V24.5784H19.1015V23.6442H20.0357ZM20.0357 24.5784V25.5126H19.1015V24.5784H20.0357ZM20.0357 25.5126V26.4469H19.1015V25.5126H20.0357ZM20.0357 26.4469V27.3811H19.1015V26.4469H20.0357ZM19.1015 26.4469V27.3811H18.1672V26.4469H19.1015ZM19.1015 25.5126V26.4469H18.1672V25.5126H19.1015ZM18.1672 25.5126V26.4469H17.233V25.5126H18.1672ZM17.233 25.5126V26.4469H16.2988V25.5126H17.233ZM17.233 24.5784V25.5126H16.2988V24.5784H17.233ZM18.1672 24.5784V25.5126H17.233V24.5784H18.1672ZM19.1015 24.5784V25.5126H18.1672V24.5784H19.1015ZM17.233 26.4469V27.3811H16.2988V26.4469H17.233ZM18.1672 26.4469V27.3811H17.233V26.4469H18.1672ZM20.0357 27.3811V28.3153H19.1015V27.3811H20.0357ZM20.9699 28.3153V29.2496H20.0357V28.3153H20.9699ZM20.9699 27.3811V28.3153H20.0357V27.3811H20.9699ZM20.9699 26.4469V27.3811H20.0357V26.4469H20.9699ZM20.9699 25.5126V26.4469H20.0357V25.5126H20.9699ZM20.9699 24.5784V25.5126H20.0357V24.5784H20.9699ZM20.9699 23.6442V24.5784H20.0357V23.6442H20.9699ZM20.9699 32.0523V32.9865H20.0357V32.0523H20.9699ZM20.9699 32.9865V33.9207H20.0357V32.9865H20.9699ZM20.9699 33.9207V34.855H20.0357V33.9207H20.9699ZM20.9699 34.855V35.7892H20.0357V34.855H20.9699ZM20.0357 34.855V35.7892H19.1015V34.855H20.0357ZM19.1015 34.855V35.7892H18.1672V34.855H19.1015ZM18.1672 34.855V35.7892H17.233V34.855H18.1672ZM17.233 34.855V35.7892H16.2988V34.855H17.233ZM17.233 33.9207V34.855H16.2988V33.9207H17.233ZM18.1672 33.9207V34.855H17.233V33.9207H18.1672ZM19.1015 33.9207V34.855H18.1672V33.9207H19.1015ZM20.0357 33.9207V34.855H19.1015V33.9207H20.0357ZM20.0357 32.9865V33.9207H19.1015V32.9865H20.0357ZM17.233 35.7892V36.7234H16.2988V35.7892H17.233ZM18.1672 35.7892V36.7234H17.233V35.7892H18.1672ZM19.1015 35.7892V36.7234H18.1672V35.7892H19.1015ZM20.0357 35.7892V36.7234H19.1015V35.7892H20.0357ZM20.9699 35.7892V36.7234H20.0357V35.7892H20.9699ZM20.9699 36.7234V37.6577H20.0357V36.7234H20.9699ZM20.0357 36.7234V37.6577H19.1015V36.7234H20.0357ZM19.1015 36.7234V37.6577H18.1672V36.7234H19.1015ZM18.1672 36.7234V37.6577H17.233V36.7234H18.1672ZM17.233 36.7234V37.6577H16.2988V36.7234H17.233ZM20.0357 37.6577V38.5919H19.1015V37.6577H20.0357ZM20.9699 38.5919V39.5261H20.0357V38.5919H20.9699ZM20.9699 37.6577V38.5919H20.0357V37.6577H20.9699ZM20.9699 39.5261V40.4604H20.0357V39.5261H20.9699ZM20.9699 40.4604V41.3946H20.0357V40.4604H20.9699ZM17.233 42.3288V43.2631H16.2988V42.3288H17.233ZM18.1672 42.3288V43.2631H17.233V42.3288H18.1672ZM19.1015 42.3288V43.2631H18.1672V42.3288H19.1015ZM20.0357 41.3946V42.3288H19.1015V41.3946H20.0357ZM20.9699 41.3946V42.3288H20.0357V41.3946H20.9699ZM20.9699 42.3288V43.2631H20.0357V42.3288H20.9699ZM20.0357 42.3288V43.2631H19.1015V42.3288H20.0357ZM20.9699 43.2631V44.1973H20.0357V43.2631H20.9699ZM20.9699 44.1973V45.1315H20.0357V44.1973H20.9699ZM20.9699 45.1315V46.0658H20.0357V45.1315H20.9699ZM20.9699 46.0658V47H20.0357V46.0658H20.9699ZM20.0357 46.0658V47H19.1015V46.0658H20.0357ZM20.0357 45.1315V46.0658H19.1015V45.1315H20.0357ZM19.1015 45.1315V46.0658H18.1672V45.1315H19.1015ZM18.1672 46.0658V47H17.233V46.0658H18.1672ZM17.233 46.0658V47H16.2988V46.0658H17.233ZM19.1015 46.0658V47H18.1672V46.0658H19.1015ZM18.1672 45.1315V46.0658H17.233V45.1315H18.1672ZM17.233 45.1315V46.0658H16.2988V45.1315H17.233ZM17.233 44.1973V45.1315H16.2988V44.1973H17.233ZM18.1672 44.1973V45.1315H17.233V44.1973H18.1672ZM19.1015 44.1973V45.1315H18.1672V44.1973H19.1015ZM20.0357 44.1973V45.1315H19.1015V44.1973H20.0357ZM20.0357 43.2631V44.1973H19.1015V43.2631H20.0357ZM19.1015 43.2631V44.1973H18.1672V43.2631H19.1015ZM18.1672 43.2631V44.1973H17.233V43.2631H18.1672ZM17.233 43.2631V44.1973H16.2988V43.2631H17.233ZM21.9042 24.5784V25.5126H20.9699V24.5784H21.9042ZM22.8384 24.5784V25.5126H21.9042V24.5784H22.8384ZM22.8384 25.5126V26.4469H21.9042V25.5126H22.8384ZM23.7726 25.5126V26.4469H22.8384V25.5126H23.7726ZM23.7726 26.4469V27.3811H22.8384V26.4469H23.7726ZM23.7726 27.3811V28.3153H22.8384V27.3811H23.7726ZM24.7069 27.3811V28.3153H23.7726V27.3811H24.7069ZM24.7069 28.3153V29.2496H23.7726V28.3153H24.7069ZM24.7069 29.2496V30.1838H23.7726V29.2496H24.7069ZM24.7069 30.1838V31.118H23.7726V30.1838H24.7069ZM24.7069 31.118V32.0523H23.7726V31.118H24.7069ZM24.7069 32.0523V32.9865H23.7726V32.0523H24.7069ZM24.7069 32.9865V33.9207H23.7726V32.9865H24.7069ZM23.7726 33.9207V34.855H22.8384V33.9207H23.7726ZM22.8384 34.855V35.7892H21.9042V34.855H22.8384ZM23.7726 35.7892V36.7234H22.8384V35.7892H23.7726ZM24.7069 36.7234V37.6577H23.7726V36.7234H24.7069ZM21.9042 45.1315V46.0658H20.9699V45.1315H21.9042ZM22.8384 45.1315V46.0658H21.9042V45.1315H22.8384ZM23.7726 44.1973V45.1315H22.8384V44.1973H23.7726ZM24.7069 42.3288V43.2631H23.7726V42.3288H24.7069ZM22.8384 44.1973V45.1315H21.9042V44.1973H22.8384ZM22.8384 43.2631V44.1973H21.9042V43.2631H22.8384ZM23.7726 43.2631V44.1973H22.8384V43.2631H23.7726ZM24.7069 41.3946V42.3288H23.7726V41.3946H24.7069ZM24.7069 40.4604V41.3946H23.7726V40.4604H24.7069ZM24.7069 39.5261V40.4604H23.7726V39.5261H24.7069ZM24.7069 38.5919V39.5261H23.7726V38.5919H24.7069ZM24.7069 37.6577V38.5919H23.7726V37.6577H24.7069ZM21.9042 35.7892V36.7234H20.9699V35.7892H21.9042ZM22.8384 35.7892V36.7234H21.9042V35.7892H22.8384ZM22.8384 36.7234V37.6577H21.9042V36.7234H22.8384ZM21.9042 36.7234V37.6577H20.9699V36.7234H21.9042ZM23.7726 36.7234V37.6577H22.8384V36.7234H23.7726ZM23.7726 37.6577V38.5919H22.8384V37.6577H23.7726ZM23.7726 38.5919V39.5261H22.8384V38.5919H23.7726ZM23.7726 39.5261V40.4604H22.8384V39.5261H23.7726ZM23.7726 40.4604V41.3946H22.8384V40.4604H23.7726ZM23.7726 41.3946V42.3288H22.8384V41.3946H23.7726ZM23.7726 42.3288V43.2631H22.8384V42.3288H23.7726ZM22.8384 42.3288V43.2631H21.9042V42.3288H22.8384ZM22.8384 41.3946V42.3288H21.9042V41.3946H22.8384ZM22.8384 40.4604V41.3946H21.9042V40.4604H22.8384ZM22.8384 39.5261V40.4604H21.9042V39.5261H22.8384ZM22.8384 38.5919V39.5261H21.9042V38.5919H22.8384ZM22.8384 37.6577V38.5919H21.9042V37.6577H22.8384ZM21.9042 37.6577V38.5919H20.9699V37.6577H21.9042ZM21.9042 38.5919V39.5261H20.9699V38.5919H21.9042ZM21.9042 39.5261V40.4604H20.9699V39.5261H21.9042ZM21.9042 40.4604V41.3946H20.9699V40.4604H21.9042ZM21.9042 41.3946V42.3288H20.9699V41.3946H21.9042ZM21.9042 42.3288V43.2631H20.9699V42.3288H21.9042ZM21.9042 43.2631V44.1973H20.9699V43.2631H21.9042ZM21.9042 44.1973V45.1315H20.9699V44.1973H21.9042ZM21.9042 25.5126V26.4469H20.9699V25.5126H21.9042ZM21.9042 26.4469V27.3811H20.9699V26.4469H21.9042ZM21.9042 27.3811V28.3153H20.9699V27.3811H21.9042ZM21.9042 28.3153V29.2496H20.9699V28.3153H21.9042ZM21.9042 29.2496V30.1838H20.9699V29.2496H21.9042ZM21.9042 30.1838V31.118H20.9699V30.1838H21.9042ZM21.9042 31.118V32.0523H20.9699V31.118H21.9042ZM21.9042 32.0523V32.9865H20.9699V32.0523H21.9042ZM21.9042 32.9865V33.9207H20.9699V32.9865H21.9042ZM21.9042 33.9207V34.855H20.9699V33.9207H21.9042ZM21.9042 34.855V35.7892H20.9699V34.855H21.9042ZM22.8384 33.9207V34.855H21.9042V33.9207H22.8384ZM22.8384 32.9865V33.9207H21.9042V32.9865H22.8384ZM22.8384 32.0523V32.9865H21.9042V32.0523H22.8384ZM22.8384 31.118V32.0523H21.9042V31.118H22.8384ZM22.8384 30.1838V31.118H21.9042V30.1838H22.8384ZM22.8384 29.2496V30.1838H21.9042V29.2496H22.8384ZM22.8384 28.3153V29.2496H21.9042V28.3153H22.8384ZM22.8384 27.3811V28.3153H21.9042V27.3811H22.8384ZM22.8384 26.4469V27.3811H21.9042V26.4469H22.8384ZM23.7726 28.3153V29.2496H22.8384V28.3153H23.7726ZM23.7726 29.2496V30.1838H22.8384V29.2496H23.7726ZM23.7726 30.1838V31.118H22.8384V30.1838H23.7726ZM23.7726 31.118V32.0523H22.8384V31.118H23.7726ZM23.7726 32.0523V32.9865H22.8384V32.0523H23.7726ZM23.7726 32.9865V33.9207H22.8384V32.9865H23.7726ZM29.3963 46.0658V47H28.4621V46.0658H29.3963ZM29.3963 45.1315V46.0658H28.4621V45.1315H29.3963ZM29.3963 44.1973V45.1315H28.4621V44.1973H29.3963ZM29.3963 43.2631V44.1973H28.4621V43.2631H29.3963ZM29.3963 42.3288V43.2631H28.4621V42.3288H29.3963ZM29.3963 41.3946V42.3288H28.4621V41.3946H29.3963ZM29.3963 40.4604V41.3946H28.4621V40.4604H29.3963ZM29.3963 39.5261V40.4604H28.4621V39.5261H29.3963ZM29.3963 38.5919V39.5261H28.4621V38.5919H29.3963ZM29.3963 37.6577V38.5919H28.4621V37.6577H29.3963ZM29.3963 36.7234V37.6577H28.4621V36.7234H29.3963ZM29.3963 35.7892V36.7234H28.4621V35.7892H29.3963ZM29.3963 34.855V35.7892H28.4621V34.855H29.3963ZM29.3963 33.9207V34.855H28.4621V33.9207H29.3963ZM29.3963 32.9865V33.9207H28.4621V32.9865H29.3963ZM30.3305 32.9865V33.9207H29.3963V32.9865H30.3305ZM30.3305 33.9207V34.855H29.3963V33.9207H30.3305ZM30.3305 34.855V35.7892H29.3963V34.855H30.3305ZM30.3305 35.7892V36.7234H29.3963V35.7892H30.3305ZM30.3305 36.7234V37.6577H29.3963V36.7234H30.3305ZM30.3305 37.6577V38.5919H29.3963V37.6577H30.3305ZM30.3305 38.5919V39.5261H29.3963V38.5919H30.3305ZM31.2648 39.5261V40.4604H30.3305V39.5261H31.2648ZM31.2648 40.4604V41.3946H30.3305V40.4604H31.2648ZM31.2648 41.3946V42.3288H30.3305V41.3946H31.2648ZM31.2648 42.3288V43.2631H30.3305V42.3288H31.2648ZM31.2648 43.2631V44.1973H30.3305V43.2631H31.2648ZM31.2648 44.1973V45.1315H30.3305V44.1973H31.2648ZM31.2648 45.1315V46.0658H30.3305V45.1315H31.2648ZM31.2648 46.0658V47H30.3305V46.0658H31.2648ZM32.199 46.0658V47H31.2648V46.0658H32.199ZM33.1332 46.0658V47H32.199V46.0658H33.1332ZM33.1332 45.1315V46.0658H32.199V45.1315H33.1332ZM33.1332 44.1973V45.1315H32.199V44.1973H33.1332ZM33.1332 43.2631V44.1973H32.199V43.2631H33.1332ZM33.1332 42.3288V43.2631H32.199V42.3288H33.1332ZM33.1332 41.3946V42.3288H32.199V41.3946H33.1332ZM33.1332 40.4604V41.3946H32.199V40.4604H33.1332ZM33.1332 39.5261V40.4604H32.199V39.5261H33.1332ZM32.199 39.5261V40.4604H31.2648V39.5261H32.199ZM32.199 38.5919V39.5261H31.2648V38.5919H32.199ZM32.199 40.4604V41.3946H31.2648V40.4604H32.199ZM32.199 41.3946V42.3288H31.2648V41.3946H32.199ZM32.199 42.3288V43.2631H31.2648V42.3288H32.199ZM32.199 43.2631V44.1973H31.2648V43.2631H32.199ZM32.199 44.1973V45.1315H31.2648V44.1973H32.199ZM32.199 45.1315V46.0658H31.2648V45.1315H32.199ZM30.3305 46.0658V47H29.3963V46.0658H30.3305ZM30.3305 45.1315V46.0658H29.3963V45.1315H30.3305ZM30.3305 44.1973V45.1315H29.3963V44.1973H30.3305ZM30.3305 43.2631V44.1973H29.3963V43.2631H30.3305ZM30.3305 42.3288V43.2631H29.3963V42.3288H30.3305ZM30.3305 41.3946V42.3288H29.3963V41.3946H30.3305ZM30.3305 40.4604V41.3946H29.3963V40.4604H30.3305ZM30.3305 39.5261V40.4604H29.3963V39.5261H30.3305ZM29.3963 23.6442V24.5784H28.4621V23.6442H29.3963ZM29.3963 24.5784V25.5126H28.4621V24.5784H29.3963ZM29.3963 25.5126V26.4469H28.4621V25.5126H29.3963ZM29.3963 26.4469V27.3811H28.4621V26.4469H29.3963ZM29.3963 27.3811V28.3153H28.4621V27.3811H29.3963ZM29.3963 28.3153V29.2496H28.4621V28.3153H29.3963ZM29.3963 29.2496V30.1838H28.4621V29.2496H29.3963ZM29.3963 30.1838V31.118H28.4621V30.1838H29.3963ZM29.3963 31.118V32.0523H28.4621V31.118H29.3963ZM29.3963 32.0523V32.9865H28.4621V32.0523H29.3963ZM32.199 23.6442V24.5784H31.2648V23.6442H32.199ZM32.199 24.5784V25.5126H31.2648V24.5784H32.199ZM32.199 25.5126V26.4469H31.2648V25.5126H32.199ZM32.199 26.4469V27.3811H31.2648V26.4469H32.199ZM32.199 27.3811V28.3153H31.2648V27.3811H32.199ZM32.199 28.3153V29.2496H31.2648V28.3153H32.199ZM32.199 30.1838V31.118H31.2648V30.1838H32.199ZM32.199 31.118V32.0523H31.2648V31.118H32.199ZM32.199 32.0523V32.9865H31.2648V32.0523H32.199ZM32.199 32.9865V33.9207H31.2648V32.9865H32.199ZM32.199 33.9207V34.855H31.2648V33.9207H32.199ZM32.199 34.855V35.7892H31.2648V34.855H32.199ZM32.199 35.7892V36.7234H31.2648V35.7892H32.199ZM33.1332 36.7234V37.6577H32.199V36.7234H33.1332ZM33.1332 37.6577V38.5919H32.199V37.6577H33.1332ZM33.1332 38.5919V39.5261H32.199V38.5919H33.1332ZM33.1332 35.7892V36.7234H32.199V35.7892H33.1332ZM33.1332 34.855V35.7892H32.199V34.855H33.1332ZM33.1332 33.9207V34.855H32.199V33.9207H33.1332ZM33.1332 32.9865V33.9207H32.199V32.9865H33.1332ZM33.1332 32.0523V32.9865H32.199V32.0523H33.1332ZM33.1332 31.118V32.0523H32.199V31.118H33.1332ZM33.1332 30.1838V31.118H32.199V30.1838H33.1332ZM33.1332 29.2496V30.1838H32.199V29.2496H33.1332ZM33.1332 28.3153V29.2496H32.199V28.3153H33.1332ZM33.1332 27.3811V28.3153H32.199V27.3811H33.1332ZM32.199 29.2496V30.1838H31.2648V29.2496H32.199ZM33.1332 26.4469V27.3811H32.199V26.4469H33.1332ZM33.1332 25.5126V26.4469H32.199V25.5126H33.1332ZM33.1332 24.5784V25.5126H32.199V24.5784H33.1332ZM33.1332 23.6442V24.5784H32.199V23.6442H33.1332ZM31.2648 23.6442V24.5784H30.3305V23.6442H31.2648ZM30.3305 23.6442V24.5784H29.3963V23.6442H30.3305ZM30.3305 24.5784V25.5126H29.3963V24.5784H30.3305ZM31.2648 24.5784V25.5126H30.3305V24.5784H31.2648ZM31.2648 25.5126V26.4469H30.3305V25.5126H31.2648ZM31.2648 26.4469V27.3811H30.3305V26.4469H31.2648ZM31.2648 27.3811V28.3153H30.3305V27.3811H31.2648ZM31.2648 28.3153V29.2496H30.3305V28.3153H31.2648ZM31.2648 29.2496V30.1838H30.3305V29.2496H31.2648ZM31.2648 30.1838V31.118H30.3305V30.1838H31.2648ZM30.3305 31.118V32.0523H29.3963V31.118H30.3305ZM30.3305 32.0523V32.9865H29.3963V32.0523H30.3305ZM30.3305 30.1838V31.118H29.3963V30.1838H30.3305ZM30.3305 29.2496V30.1838H29.3963V29.2496H30.3305ZM30.3305 28.3153V29.2496H29.3963V28.3153H30.3305ZM30.3305 27.3811V28.3153H29.3963V27.3811H30.3305ZM30.3305 26.4469V27.3811H29.3963V26.4469H30.3305ZM30.3305 25.5126V26.4469H29.3963V25.5126H30.3305ZM31.2648 31.118V32.0523H30.3305V31.118H31.2648ZM31.2648 32.0523V32.9865H30.3305V32.0523H31.2648ZM31.2648 32.9865V33.9207H30.3305V32.9865H31.2648ZM31.2648 33.9207V34.855H30.3305V33.9207H31.2648ZM31.2648 34.855V35.7892H30.3305V34.855H31.2648ZM31.2648 35.7892V36.7234H30.3305V35.7892H31.2648ZM31.2648 36.7234V37.6577H30.3305V36.7234H31.2648ZM31.2648 37.6577V38.5919H30.3305V37.6577H31.2648ZM31.2648 38.5919V39.5261H30.3305V38.5919H31.2648ZM32.199 37.6577V38.5919H31.2648V37.6577H32.199ZM32.199 36.7234V37.6577H31.2648V36.7234H32.199ZM34.0675 46.0658V47H33.1332V46.0658H34.0675ZM35.0017 46.0658V47H34.0675V46.0658H35.0017ZM35.0017 45.1315V46.0658H34.0675V45.1315H35.0017ZM35.0017 44.1973V45.1315H34.0675V44.1973H35.0017ZM35.0017 43.2631V44.1973H34.0675V43.2631H35.0017ZM35.0017 42.3288V43.2631H34.0675V42.3288H35.0017ZM34.0675 42.3288V43.2631H33.1332V42.3288H34.0675ZM34.0675 43.2631V44.1973H33.1332V43.2631H34.0675ZM34.0675 44.1973V45.1315H33.1332V44.1973H34.0675ZM34.0675 45.1315V46.0658H33.1332V45.1315H34.0675ZM35.9359 42.3288V43.2631H35.0017V42.3288H35.9359ZM36.8702 42.3288V43.2631H35.9359V42.3288H36.8702ZM37.8044 42.3288V43.2631H36.8702V42.3288H37.8044ZM37.8044 45.1315V46.0658H36.8702V45.1315H37.8044ZM36.8702 46.0658V47H35.9359V46.0658H36.8702ZM35.9359 46.0658V47H35.0017V46.0658H35.9359ZM37.8044 46.0658V47H36.8702V46.0658H37.8044ZM36.8702 45.1315V46.0658H35.9359V45.1315H36.8702ZM35.9359 45.1315V46.0658H35.0017V45.1315H35.9359ZM35.9359 44.1973V45.1315H35.0017V44.1973H35.9359ZM36.8702 44.1973V45.1315H35.9359V44.1973H36.8702ZM37.8044 44.1973V45.1315H36.8702V44.1973H37.8044ZM37.8044 43.2631V44.1973H36.8702V43.2631H37.8044ZM36.8702 43.2631V44.1973H35.9359V43.2631H36.8702ZM35.9359 43.2631V44.1973H35.0017V43.2631H35.9359ZM38.7386 46.0658V47H37.8044V46.0658H38.7386ZM39.6729 46.0658V47H38.7386V46.0658H39.6729ZM40.6071 46.0658V47H39.6729V46.0658H40.6071ZM40.6071 45.1315V46.0658H39.6729V45.1315H40.6071ZM38.7386 42.3288V43.2631H37.8044V42.3288H38.7386ZM39.6729 42.3288V43.2631H38.7386V42.3288H39.6729ZM40.6071 42.3288V43.2631H39.6729V42.3288H40.6071ZM40.6071 43.2631V44.1973H39.6729V43.2631H40.6071ZM40.6071 44.1973V45.1315H39.6729V44.1973H40.6071ZM39.6729 44.1973V45.1315H38.7386V44.1973H39.6729ZM39.6729 43.2631V44.1973H38.7386V43.2631H39.6729ZM38.7386 43.2631V44.1973H37.8044V43.2631H38.7386ZM38.7386 44.1973V45.1315H37.8044V44.1973H38.7386ZM38.7386 45.1315V46.0658H37.8044V45.1315H38.7386ZM39.6729 45.1315V46.0658H38.7386V45.1315H39.6729ZM45.2938 46.0658V47H44.3595V46.0658H45.2938ZM45.2938 45.1315V46.0658H44.3595V45.1315H45.2938ZM45.2938 44.1973V45.1315H44.3595V44.1973H45.2938ZM45.2938 43.2631V44.1973H44.3595V43.2631H45.2938ZM45.2938 42.3288V43.2631H44.3595V42.3288H45.2938ZM45.2938 41.3946V42.3288H44.3595V41.3946H45.2938ZM45.2938 40.4604V41.3946H44.3595V40.4604H45.2938ZM45.2938 39.5261V40.4604H44.3595V39.5261H45.2938ZM45.2938 38.5919V39.5261H44.3595V38.5919H45.2938ZM45.2938 37.6577V38.5919H44.3595V37.6577H45.2938ZM45.2938 36.7234V37.6577H44.3595V36.7234H45.2938ZM45.2938 35.7892V36.7234H44.3595V35.7892H45.2938ZM45.2938 34.855V35.7892H44.3595V34.855H45.2938ZM45.2938 33.9207V34.855H44.3595V33.9207H45.2938ZM45.2938 32.9865V33.9207H44.3595V32.9865H45.2938ZM46.228 32.9865V33.9207H45.2938V32.9865H46.228ZM46.228 33.9207V34.855H45.2938V33.9207H46.228ZM46.228 34.855V35.7892H45.2938V34.855H46.228ZM46.228 35.7892V36.7234H45.2938V35.7892H46.228ZM46.228 36.7234V37.6577H45.2938V36.7234H46.228ZM46.228 37.6577V38.5919H45.2938V37.6577H46.228ZM46.228 38.5919V39.5261H45.2938V38.5919H46.228ZM47.1622 39.5261V40.4604H46.228V39.5261H47.1622ZM47.1622 40.4604V41.3946H46.228V40.4604H47.1622ZM47.1622 41.3946V42.3288H46.228V41.3946H47.1622ZM47.1622 42.3288V43.2631H46.228V42.3288H47.1622ZM47.1622 43.2631V44.1973H46.228V43.2631H47.1622ZM47.1622 44.1973V45.1315H46.228V44.1973H47.1622ZM47.1622 45.1315V46.0658H46.228V45.1315H47.1622ZM47.1622 46.0658V47H46.228V46.0658H47.1622ZM48.0965 46.0658V47H47.1622V46.0658H48.0965ZM49.0307 46.0658V47H48.0965V46.0658H49.0307ZM49.0307 45.1315V46.0658H48.0965V45.1315H49.0307ZM49.0307 44.1973V45.1315H48.0965V44.1973H49.0307ZM49.0307 43.2631V44.1973H48.0965V43.2631H49.0307ZM49.0307 42.3288V43.2631H48.0965V42.3288H49.0307ZM49.0307 41.3946V42.3288H48.0965V41.3946H49.0307ZM49.0307 40.4604V41.3946H48.0965V40.4604H49.0307ZM49.0307 39.5261V40.4604H48.0965V39.5261H49.0307ZM48.0965 39.5261V40.4604H47.1622V39.5261H48.0965ZM48.0965 38.5919V39.5261H47.1622V38.5919H48.0965ZM48.0965 40.4604V41.3946H47.1622V40.4604H48.0965ZM48.0965 41.3946V42.3288H47.1622V41.3946H48.0965ZM48.0965 42.3288V43.2631H47.1622V42.3288H48.0965ZM48.0965 43.2631V44.1973H47.1622V43.2631H48.0965ZM48.0965 44.1973V45.1315H47.1622V44.1973H48.0965ZM48.0965 45.1315V46.0658H47.1622V45.1315H48.0965ZM46.228 46.0658V47H45.2938V46.0658H46.228ZM46.228 45.1315V46.0658H45.2938V45.1315H46.228ZM46.228 44.1973V45.1315H45.2938V44.1973H46.228ZM46.228 43.2631V44.1973H45.2938V43.2631H46.228ZM46.228 42.3288V43.2631H45.2938V42.3288H46.228ZM46.228 41.3946V42.3288H45.2938V41.3946H46.228ZM46.228 40.4604V41.3946H45.2938V40.4604H46.228ZM46.228 39.5261V40.4604H45.2938V39.5261H46.228ZM45.2938 23.6442V24.5784H44.3595V23.6442H45.2938ZM45.2938 24.5784V25.5126H44.3595V24.5784H45.2938ZM45.2938 25.5126V26.4469H44.3595V25.5126H45.2938ZM45.2938 26.4469V27.3811H44.3595V26.4469H45.2938ZM45.2938 27.3811V28.3153H44.3595V27.3811H45.2938ZM45.2938 28.3153V29.2496H44.3595V28.3153H45.2938ZM45.2938 29.2496V30.1838H44.3595V29.2496H45.2938ZM45.2938 30.1838V31.118H44.3595V30.1838H45.2938ZM45.2938 31.118V32.0523H44.3595V31.118H45.2938ZM45.2938 32.0523V32.9865H44.3595V32.0523H45.2938ZM48.0965 23.6442V24.5784H47.1622V23.6442H48.0965ZM48.0965 24.5784V25.5126H47.1622V24.5784H48.0965ZM48.0965 25.5126V26.4469H47.1622V25.5126H48.0965ZM48.0965 26.4469V27.3811H47.1622V26.4469H48.0965ZM48.0965 27.3811V28.3153H47.1622V27.3811H48.0965ZM48.0965 28.3153V29.2496H47.1622V28.3153H48.0965ZM48.0965 30.1838V31.118H47.1622V30.1838H48.0965ZM48.0965 31.118V32.0523H47.1622V31.118H48.0965ZM48.0965 32.0523V32.9865H47.1622V32.0523H48.0965ZM48.0965 32.9865V33.9207H47.1622V32.9865H48.0965ZM48.0965 33.9207V34.855H47.1622V33.9207H48.0965ZM48.0965 34.855V35.7892H47.1622V34.855H48.0965ZM48.0965 35.7892V36.7234H47.1622V35.7892H48.0965ZM49.0307 36.7234V37.6577H48.0965V36.7234H49.0307ZM49.0307 37.6577V38.5919H48.0965V37.6577H49.0307ZM49.0307 38.5919V39.5261H48.0965V38.5919H49.0307ZM49.0307 35.7892V36.7234H48.0965V35.7892H49.0307ZM49.0307 34.855V35.7892H48.0965V34.855H49.0307ZM49.0307 33.9207V34.855H48.0965V33.9207H49.0307ZM49.0307 32.9865V33.9207H48.0965V32.9865H49.0307ZM49.0307 32.0523V32.9865H48.0965V32.0523H49.0307ZM49.0307 31.118V32.0523H48.0965V31.118H49.0307ZM49.0307 30.1838V31.118H48.0965V30.1838H49.0307ZM49.0307 29.2496V30.1838H48.0965V29.2496H49.0307ZM49.0307 28.3153V29.2496H48.0965V28.3153H49.0307ZM49.0307 27.3811V28.3153H48.0965V27.3811H49.0307ZM48.0965 29.2496V30.1838H47.1622V29.2496H48.0965ZM49.0307 26.4469V27.3811H48.0965V26.4469H49.0307ZM49.0307 25.5126V26.4469H48.0965V25.5126H49.0307ZM49.0307 24.5784V25.5126H48.0965V24.5784H49.0307ZM49.0307 23.6442V24.5784H48.0965V23.6442H49.0307ZM47.1622 23.6442V24.5784H46.228V23.6442H47.1622ZM46.228 23.6442V24.5784H45.2938V23.6442H46.228ZM46.228 24.5784V25.5126H45.2938V24.5784H46.228ZM47.1622 24.5784V25.5126H46.228V24.5784H47.1622ZM47.1622 25.5126V26.4469H46.228V25.5126H47.1622ZM47.1622 26.4469V27.3811H46.228V26.4469H47.1622ZM47.1622 27.3811V28.3153H46.228V27.3811H47.1622ZM47.1622 28.3153V29.2496H46.228V28.3153H47.1622ZM47.1622 29.2496V30.1838H46.228V29.2496H47.1622ZM47.1622 30.1838V31.118H46.228V30.1838H47.1622ZM46.228 31.118V32.0523H45.2938V31.118H46.228ZM46.228 32.0523V32.9865H45.2938V32.0523H46.228ZM46.228 30.1838V31.118H45.2938V30.1838H46.228ZM46.228 29.2496V30.1838H45.2938V29.2496H46.228ZM46.228 28.3153V29.2496H45.2938V28.3153H46.228ZM46.228 27.3811V28.3153H45.2938V27.3811H46.228ZM46.228 26.4469V27.3811H45.2938V26.4469H46.228ZM46.228 25.5126V26.4469H45.2938V25.5126H46.228ZM47.1622 31.118V32.0523H46.228V31.118H47.1622ZM47.1622 32.0523V32.9865H46.228V32.0523H47.1622ZM47.1622 32.9865V33.9207H46.228V32.9865H47.1622ZM47.1622 33.9207V34.855H46.228V33.9207H47.1622ZM47.1622 34.855V35.7892H46.228V34.855H47.1622ZM47.1622 35.7892V36.7234H46.228V35.7892H47.1622ZM47.1622 36.7234V37.6577H46.228V36.7234H47.1622ZM47.1622 37.6577V38.5919H46.228V37.6577H47.1622ZM47.1622 38.5919V39.5261H46.228V38.5919H47.1622ZM48.0965 37.6577V38.5919H47.1622V37.6577H48.0965ZM48.0965 36.7234V37.6577H47.1622V36.7234H48.0965ZM49.9649 34.855V35.7892H49.0307V34.855H49.9649ZM50.8992 34.855V35.7892H49.9649V34.855H50.8992ZM50.8992 35.7892V36.7234H49.9649V35.7892H50.8992ZM49.9649 35.7892V36.7234H49.0307V35.7892H49.9649ZM49.9649 32.9865V33.9207H49.0307V32.9865H49.9649ZM50.8992 32.9865V33.9207H49.9649V32.9865H50.8992ZM49.9649 36.7234V37.6577H49.0307V36.7234H49.9649ZM50.8992 36.7234V37.6577H49.9649V36.7234H50.8992ZM50.8992 33.9207V34.855H49.9649V33.9207H50.8992ZM49.9649 33.9207V34.855H49.0307V33.9207H49.9649ZM49.9649 23.6442V24.5784H49.0307V23.6442H49.9649ZM50.8992 23.6442V24.5784H49.9649V23.6442H50.8992ZM50.8992 24.5784V25.5126H49.9649V24.5784H50.8992ZM49.9649 24.5784V25.5126H49.0307V24.5784H49.9649ZM49.9649 25.5126V26.4469H49.0307V25.5126H49.9649ZM50.8992 25.5126V26.4469H49.9649V25.5126H50.8992ZM50.8992 26.4469V27.3811H49.9649V26.4469H50.8992ZM49.9649 26.4469V27.3811H49.0307V26.4469H49.9649ZM49.9649 27.3811V28.3153H49.0307V27.3811H49.9649ZM50.8992 27.3811V28.3153H49.9649V27.3811H50.8992ZM49.9649 46.0658V47H49.0307V46.0658H49.9649ZM50.8992 46.0658V47H49.9649V46.0658H50.8992ZM50.8992 45.1315V46.0658H49.9649V45.1315H50.8992ZM50.8992 44.1973V45.1315H49.9649V44.1973H50.8992ZM50.8992 43.2631V44.1973H49.9649V43.2631H50.8992ZM50.8992 42.3288V43.2631H49.9649V42.3288H50.8992ZM49.9649 42.3288V43.2631H49.0307V42.3288H49.9649ZM49.9649 43.2631V44.1973H49.0307V43.2631H49.9649ZM49.9649 44.1973V45.1315H49.0307V44.1973H49.9649ZM49.9649 45.1315V46.0658H49.0307V45.1315H49.9649ZM51.8334 32.9865V33.9207H50.8992V32.9865H51.8334ZM52.7676 32.9865V33.9207H51.8334V32.9865H52.7676ZM53.7019 32.9865V33.9207H52.7676V32.9865H53.7019ZM53.7019 27.3811V28.3153H52.7676V27.3811H53.7019ZM52.7676 27.3811V28.3153H51.8334V27.3811H52.7676ZM51.8334 27.3811V28.3153H50.8992V27.3811H51.8334ZM51.8334 23.6442V24.5784H50.8992V23.6442H51.8334ZM52.7676 23.6442V24.5784H51.8334V23.6442H52.7676ZM53.7019 23.6442V24.5784H52.7676V23.6442H53.7019ZM53.7019 26.4469V27.3811H52.7676V26.4469H53.7019ZM53.7019 25.5126V26.4469H52.7676V25.5126H53.7019ZM52.7676 25.5126V26.4469H51.8334V25.5126H52.7676ZM51.8334 25.5126V26.4469H50.8992V25.5126H51.8334ZM51.8334 24.5784V25.5126H50.8992V24.5784H51.8334ZM52.7676 24.5784V25.5126H51.8334V24.5784H52.7676ZM53.7019 24.5784V25.5126H52.7676V24.5784H53.7019ZM51.8334 26.4469V27.3811H50.8992V26.4469H51.8334ZM52.7676 26.4469V27.3811H51.8334V26.4469H52.7676ZM53.7019 34.855V35.7892H52.7676V34.855H53.7019ZM52.7676 34.855V35.7892H51.8334V34.855H52.7676ZM51.8334 34.855V35.7892H50.8992V34.855H51.8334ZM51.8334 33.9207V34.855H50.8992V33.9207H51.8334ZM52.7676 33.9207V34.855H51.8334V33.9207H52.7676ZM53.7019 33.9207V34.855H52.7676V33.9207H53.7019ZM51.8334 35.7892V36.7234H50.8992V35.7892H51.8334ZM52.7676 35.7892V36.7234H51.8334V35.7892H52.7676ZM53.7019 35.7892V36.7234H52.7676V35.7892H53.7019ZM53.7019 36.7234V37.6577H52.7676V36.7234H53.7019ZM52.7676 36.7234V37.6577H51.8334V36.7234H52.7676ZM51.8334 36.7234V37.6577H50.8992V36.7234H51.8334ZM51.8334 42.3288V43.2631H50.8992V42.3288H51.8334ZM52.7676 42.3288V43.2631H51.8334V42.3288H52.7676ZM53.7019 42.3288V43.2631H52.7676V42.3288H53.7019ZM53.7019 45.1315V46.0658H52.7676V45.1315H53.7019ZM52.7676 46.0658V47H51.8334V46.0658H52.7676ZM51.8334 46.0658V47H50.8992V46.0658H51.8334ZM53.7019 46.0658V47H52.7676V46.0658H53.7019ZM52.7676 45.1315V46.0658H51.8334V45.1315H52.7676ZM51.8334 45.1315V46.0658H50.8992V45.1315H51.8334ZM51.8334 44.1973V45.1315H50.8992V44.1973H51.8334ZM52.7676 44.1973V45.1315H51.8334V44.1973H52.7676ZM53.7019 44.1973V45.1315H52.7676V44.1973H53.7019ZM53.7019 43.2631V44.1973H52.7676V43.2631H53.7019ZM52.7676 43.2631V44.1973H51.8334V43.2631H52.7676ZM51.8334 43.2631V44.1973H50.8992V43.2631H51.8334ZM59.3073 27.3811V28.3153H58.373V27.3811H59.3073ZM59.3073 42.3288V43.2631H58.373V42.3288H59.3073ZM54.6361 23.6442V24.5784H53.7019V23.6442H54.6361ZM55.5703 23.6442V24.5784H54.6361V23.6442H55.5703ZM56.5046 23.6442V24.5784H55.5703V23.6442H56.5046ZM57.4388 23.6442V24.5784H56.5046V23.6442H57.4388ZM58.373 23.6442V24.5784H57.4388V23.6442H58.373ZM58.373 24.5784V25.5126H57.4388V24.5784H58.373ZM59.3073 24.5784V25.5126H58.373V24.5784H59.3073ZM59.3073 25.5126V26.4469H58.373V25.5126H59.3073ZM59.3073 23.6442V24.5784H58.373V23.6442H59.3073ZM59.3073 26.4469V27.3811H58.373V26.4469H59.3073ZM58.373 26.4469V27.3811H57.4388V26.4469H58.373ZM57.4388 26.4469V27.3811H56.5046V26.4469H57.4388ZM56.5046 26.4469V27.3811H55.5703V26.4469H56.5046ZM55.5703 26.4469V27.3811H54.6361V26.4469H55.5703ZM54.6361 26.4469V27.3811H53.7019V26.4469H54.6361ZM54.6361 25.5126V26.4469H53.7019V25.5126H54.6361ZM54.6361 24.5784V25.5126H53.7019V24.5784H54.6361ZM55.5703 24.5784V25.5126H54.6361V24.5784H55.5703ZM56.5046 24.5784V25.5126H55.5703V24.5784H56.5046ZM57.4388 24.5784V25.5126H56.5046V24.5784H57.4388ZM57.4388 25.5126V26.4469H56.5046V25.5126H57.4388ZM58.373 25.5126V26.4469H57.4388V25.5126H58.373ZM56.5046 25.5126V26.4469H55.5703V25.5126H56.5046ZM55.5703 25.5126V26.4469H54.6361V25.5126H55.5703ZM54.6361 27.3811V28.3153H53.7019V27.3811H54.6361ZM55.5703 27.3811V28.3153H54.6361V27.3811H55.5703ZM56.5046 27.3811V28.3153H55.5703V27.3811H56.5046ZM57.4388 27.3811V28.3153H56.5046V27.3811H57.4388ZM58.373 27.3811V28.3153H57.4388V27.3811H58.373ZM59.3073 43.2631V44.1973H58.373V43.2631H59.3073ZM58.373 43.2631V44.1973H57.4388V43.2631H58.373ZM58.373 44.1973V45.1315H57.4388V44.1973H58.373ZM58.373 45.1315V46.0658H57.4388V45.1315H58.373ZM58.373 46.0658V47H57.4388V46.0658H58.373ZM59.3073 45.1315V46.0658H58.373V45.1315H59.3073ZM59.3073 44.1973V45.1315H58.373V44.1973H59.3073ZM59.3073 46.0658V47H58.373V46.0658H59.3073ZM54.6361 46.0658V47H53.7019V46.0658H54.6361ZM55.5703 46.0658V47H54.6361V46.0658H55.5703ZM56.5046 46.0658V47H55.5703V46.0658H56.5046ZM56.5046 45.1315V46.0658H55.5703V45.1315H56.5046ZM57.4388 46.0658V47H56.5046V46.0658H57.4388ZM57.4388 45.1315V46.0658H56.5046V45.1315H57.4388ZM57.4388 44.1973V45.1315H56.5046V44.1973H57.4388ZM57.4388 43.2631V44.1973H56.5046V43.2631H57.4388ZM57.4388 42.3288V43.2631H56.5046V42.3288H57.4388ZM58.373 42.3288V43.2631H57.4388V42.3288H58.373ZM54.6361 42.3288V43.2631H53.7019V42.3288H54.6361ZM55.5703 42.3288V43.2631H54.6361V42.3288H55.5703ZM56.5046 42.3288V43.2631H55.5703V42.3288H56.5046ZM56.5046 43.2631V44.1973H55.5703V43.2631H56.5046ZM56.5046 44.1973V45.1315H55.5703V44.1973H56.5046ZM55.5703 44.1973V45.1315H54.6361V44.1973H55.5703ZM55.5703 43.2631V44.1973H54.6361V43.2631H55.5703ZM54.6361 43.2631V44.1973H53.7019V43.2631H54.6361ZM54.6361 44.1973V45.1315H53.7019V44.1973H54.6361ZM54.6361 45.1315V46.0658H53.7019V45.1315H54.6361ZM55.5703 45.1315V46.0658H54.6361V45.1315H55.5703ZM54.6361 32.9865V33.9207H53.7019V32.9865H54.6361ZM54.6361 33.9207V34.855H53.7019V33.9207H54.6361ZM54.6361 34.855V35.7892H53.7019V34.855H54.6361ZM54.6361 35.7892V36.7234H53.7019V35.7892H54.6361ZM55.5703 35.7892V36.7234H54.6361V35.7892H55.5703ZM55.5703 36.7234V37.6577H54.6361V36.7234H55.5703ZM54.6361 36.7234V37.6577H53.7019V36.7234H54.6361ZM55.5703 32.9865V33.9207H54.6361V32.9865H55.5703ZM55.5703 33.9207V34.855H54.6361V33.9207H55.5703ZM55.5703 34.855V35.7892H54.6361V34.855H55.5703ZM56.5046 34.855V35.7892H55.5703V34.855H56.5046ZM57.4388 34.855V35.7892H56.5046V34.855H57.4388ZM57.4388 33.9207V34.855H56.5046V33.9207H57.4388ZM57.4388 32.9865V33.9207H56.5046V32.9865H57.4388ZM56.5046 32.9865V33.9207H55.5703V32.9865H56.5046ZM56.5046 33.9207V34.855H55.5703V33.9207H56.5046ZM56.5046 35.7892V36.7234H55.5703V35.7892H56.5046ZM56.5046 36.7234V37.6577H55.5703V36.7234H56.5046ZM57.4388 36.7234V37.6577H56.5046V36.7234H57.4388ZM57.4388 35.7892V36.7234H56.5046V35.7892H57.4388Z" fill="black"/>
</svg>
