<svg width="30" height="30" viewBox="0 0 30 30" fill="none" xmlns="http://www.w3.org/2000/svg">
<path d="M0 8C0 3.58172 3.58172 0 8 0H22C26.4183 0 30 3.58172 30 8V22C30 26.4183 26.4183 30 22 30H8C3.58172 30 0 26.4183 0 22V8Z" fill="#283A8F"/>
<path d="M15.5785 13.9345L15.1774 13.2941L14.7763 13.9345C14.7319 14.0055 14.6663 14.0669 14.5851 14.1134C14.5039 14.1599 14.4096 14.1902 14.3102 14.2015L13.4121 14.3045L14.0633 14.8049C14.135 14.8601 14.1886 14.9282 14.2195 15.0033C14.2505 15.0785 14.2578 15.1585 14.2409 15.2363L14.088 15.9412L14.8927 15.6088C14.9815 15.572 15.0803 15.5528 15.1805 15.5528C15.2808 15.5528 15.3796 15.572 15.4684 15.6088L16.273 15.9412L16.1201 15.2363C16.1025 15.1589 16.1088 15.0791 16.1387 15.004C16.1685 14.9289 16.221 14.8605 16.2916 14.8049L16.9415 14.305L16.044 14.2015C15.9448 14.1901 15.8506 14.1598 15.7695 14.1133C15.6884 14.0668 15.6229 14.0054 15.5785 13.9345Z" fill="white"/>
<path d="M20.3709 10.8045L16.2532 8.30241C15.9297 8.1047 15.5569 8 15.1767 8C14.7965 8 14.4238 8.1047 14.1002 8.30241L9.98259 10.8045C9.68152 10.9859 9.43286 11.2412 9.26071 11.5457C9.08857 11.8502 8.99877 12.1936 9.00001 12.5425V16.6935C8.99871 17.0424 9.08844 17.3857 9.26049 17.6902C9.43254 17.9947 9.6811 18.2501 9.98207 18.4315L14.0997 20.9336C14.4234 21.1309 14.7961 21.2353 15.1762 21.2353C15.5563 21.2353 15.929 21.1309 16.2527 20.9336L20.3704 18.4315C20.6714 18.2501 20.9201 17.9948 21.0922 17.6903C21.2644 17.3858 21.3542 17.0424 21.3529 16.6935V12.5425C21.3542 12.1936 21.2645 11.8503 21.0925 11.5458C20.9204 11.2413 20.6718 10.9859 20.3709 10.8045ZM18.1103 14.4106L17.0171 15.4656L17.2744 16.9555C17.2906 17.0491 17.2799 17.1454 17.2438 17.2334C17.2076 17.3214 17.1473 17.3976 17.0697 17.4535C16.9921 17.5094 16.9002 17.5427 16.8045 17.5496C16.7088 17.5565 16.6131 17.5368 16.5281 17.4927L15.1765 16.7898L13.8254 17.4927C13.7404 17.5368 13.6446 17.5565 13.5489 17.5496C13.4532 17.5427 13.3614 17.5094 13.2838 17.4535C13.2062 17.3976 13.1459 17.3214 13.1097 17.2334C13.0735 17.1454 13.0629 17.0491 13.079 16.9555L13.3364 15.4656L12.2427 14.4106C12.1747 14.3441 12.1268 14.2602 12.1043 14.1683C12.0818 14.0764 12.0855 13.9801 12.1151 13.8902C12.1447 13.8002 12.199 13.7202 12.2719 13.6591C12.3448 13.598 12.4334 13.5582 12.5278 13.5441L14.0385 13.3264L14.7132 11.9676C14.7604 11.888 14.8278 11.822 14.9087 11.7761C14.9896 11.7303 15.0812 11.7061 15.1744 11.7061C15.2676 11.7061 15.3592 11.7303 15.4401 11.7761C15.521 11.822 15.5884 11.888 15.6356 11.9676L16.3114 13.3224L17.8221 13.54C17.917 13.5537 18.0062 13.5935 18.0796 13.6548C18.1529 13.7161 18.2075 13.7965 18.2371 13.8868C18.2668 13.9772 18.2703 14.074 18.2474 14.1663C18.2244 14.2586 18.1759 14.3426 18.1072 14.409L18.1103 14.4106Z" fill="white"/>
</svg>
