<svg width="30" height="30" viewBox="0 0 30 30" fill="none" xmlns="http://www.w3.org/2000/svg">
<path d="M0 8C0 3.58172 3.58172 0 8 0H22C26.4183 0 30 3.58172 30 8V22C30 26.4183 26.4183 30 22 30H8C3.58172 30 0 26.4183 0 22V8Z" fill="#283A8F"/>
<path d="M11.4092 15.7945V17.9111C11.4092 17.9111 13.2041 19.8956 15.7295 19.8956C18.9059 19.8956 20.0493 17.9111 20.0493 17.9111V15.6148L16.3198 17.7945C16.0536 17.9502 15.7248 17.961 15.4487 17.8222L11.4092 15.7945Z" fill="white"/>
<path d="M15.8222 13.2747C15.356 13.2747 14.8918 13.1774 14.6411 12.9751L10.1571 14.5282L15.4783 17.1919C15.7535 17.3298 16.0809 17.3194 16.3457 17.1637L22.5465 13.5489C22.8358 13.3806 23.0094 13.0668 22.9995 12.7319C22.9896 12.397 22.7949 12.095 22.4962 11.9455L16.0743 8.73191C15.7991 8.5941 15.4727 8.60445 15.2069 8.75967L9.00609 12.374C8.71681 12.5424 8.54325 12.8561 8.55359 13.191C8.56441 13.5254 8.75773 13.8274 9.05736 13.9774L9.04372 17.2592C8.72293 17.3716 8.49339 17.6788 8.49339 18.0367C8.49339 18.3025 8.6185 18.5386 8.81418 18.691C8.75209 19.144 8.54089 19.4699 8.29066 19.7032C8.09028 19.8895 7.98445 20.1562 8.00185 20.4299C8.01926 20.7028 8.15849 20.9544 8.38144 21.1134L8.49527 21.1952C8.70646 21.3457 8.97175 21.4003 9.22528 21.342C9.47881 21.2837 9.69564 21.1233 9.82217 20.8975C10.2587 20.1176 10.047 19.1049 9.90261 18.619C10.0517 18.4704 10.1444 18.2639 10.1444 18.0367C10.1444 17.6802 9.91766 17.3758 9.60016 17.2611L9.61333 14.1275L14.4812 12.4417C14.5235 12.2352 14.7319 12.0452 14.7319 12.0452C14.7159 12.1012 14.7474 12.7808 15.777 12.7808C16.3687 12.7808 16.8471 12.5922 16.8471 12.2065C16.8471 12.136 16.8306 12.0593 16.8001 11.9803C16.9666 12.1853 17.0658 12.4168 17.0658 12.6063C17.0668 13.0551 16.5094 13.2747 15.8222 13.2747Z" fill="white"/>
</svg>
