<svg width="283" height="85" viewBox="0 0 283 85" fill="none" xmlns="http://www.w3.org/2000/svg">
<path fill-rule="evenodd" clip-rule="evenodd" d="M52.4004 18.4545L40.2104 8.88861L28.0204 18.5392L30.1369 20.9093L40.2104 13.0366L50.2843 20.9093L52.4004 18.4545ZM80.4208 40.2104C80.4208 18.0312 62.3896 0 40.2108 0C18.0308 0 0 18.0312 0 40.2104C0 54.263 7.02607 66.4529 17.9465 73.6487V50.4532H14.2219V66.8759C12.3593 64.4211 9.90455 61.204 8.21172 58.3259C5.16353 52.993 3.30098 46.9829 3.30098 40.2104C3.30098 19.8938 19.8087 2.96274 40.21 2.96274C60.7807 2.96274 77.0344 19.8938 77.0344 40.2104C77.0344 46.9829 75.1718 53.0777 72.0398 58.4109C70.4312 61.289 68.0611 64.4211 66.1139 66.8763V50.4536H62.4739V73.6487C73.3944 66.4529 80.4204 54.263 80.4204 40.2104H80.4208ZM50.0303 79.1509V24.5497H46.3903V80.0826C47.8291 79.8282 48.7604 79.4049 50.0303 79.1509ZM58.157 76.1882V50.4536H54.4323V77.7967C55.8715 77.2888 56.8024 76.8655 58.157 76.1882ZM41.9883 80.3362V24.5497H38.3479V80.3362C39.0252 80.3362 39.5331 80.4208 40.2104 80.4208C40.8877 80.4208 41.3957 80.3362 41.9883 80.3362ZM33.9459 79.9975V24.5497H30.3063V79.1509C31.6608 79.4049 32.5917 79.8282 33.9459 79.9975ZM25.9039 77.7967V50.4536H22.2639V76.1882C23.6184 76.8655 24.5497 77.2888 25.9039 77.7967ZM163.885 2.11932L158.806 3.21752V4.56491L161.102 5.07687V31.0714L158.644 31.5706V33.1799H166.942V31.5706L164.821 31.0714V17.1818C166.006 16.0812 167.271 15.0729 168.964 15.0729C171.504 15.0729 171.51 17.6906 171.51 19.5527V31.1461L169.388 31.5706V33.1799H177.6V31.5706L175.403 31.0714V17.6059C175.403 14.5585 173.79 12.4396 170.574 12.4396C168.204 12.4396 166.429 13.7183 164.821 15.0729V2.11932H163.885ZM200.462 2.11932C199.107 2.11932 198.003 3.21353 198.003 4.65237C198.003 6.00694 199.11 7.27326 200.549 7.27326C201.903 7.27326 203.17 6.00415 203.17 4.56491C203.17 3.21073 201.901 2.11932 200.462 2.11932ZM186.235 12.2775L181.243 13.6252V14.8105L183.702 15.235V31.0714L181.244 31.5706V33.1799H190.304V31.5706L187.333 31.0714V19.8023C187.333 19.0404 188.267 16.7609 190.129 16.0836L192.413 17.1818C193.005 16.8432 193.773 16.3316 193.773 14.7234C193.773 13.1995 192.762 12.527 191.576 12.527C189.714 12.527 188.78 13.9611 187.172 16.6702V12.2775H186.235ZM214.089 12.2775L209.097 13.6252V14.9854L211.469 15.3225V31.0714L209.098 31.5706V33.1799H217.471V31.5706L215.187 31.0714V17.0943C216.373 16.0784 217.638 14.9854 219.33 14.9854C221.786 14.9854 221.964 17.6035 221.964 18.7041V31.1461L219.592 31.5706V33.1799H227.891V31.5706L225.683 31.0714V17.6059C225.683 14.3892 224.077 12.3521 220.691 12.3521C218.405 12.3521 216.708 13.6308 215.1 14.9854V12.2775H214.089ZM275.463 12.2775L270.471 13.6252V14.8105L272.917 15.235V31.0714L270.471 31.5706V33.1799H279.531V31.5706L276.561 31.0714V19.8023C276.561 19.0404 277.494 16.7609 279.356 16.0836L281.64 17.1818C282.232 16.8432 283 16.3316 283 14.7234C283 13.1995 281.976 12.527 280.792 12.527C278.929 12.527 278.007 13.9611 276.399 16.6702V12.2775H275.463ZM201.985 12.4396L196.905 13.7998V14.9854L199.027 15.4846V31.071L196.905 31.5702V33.1803H205.204V31.5706L202.833 31.0714V12.4396H201.985ZM128.668 12.0279C122.827 12.0279 120.382 18.1147 120.382 23.1097C120.382 29.7124 123.929 33.6045 128.331 33.6045C132.648 33.6045 136.717 29.8059 136.717 22.6105C136.717 13.3828 131.039 12.0279 128.668 12.0279ZM128.668 13.6372C131.969 13.6372 132.562 19.1366 132.562 22.5226C132.562 25.1471 132.225 31.8326 128.331 31.8326C125.707 31.8326 124.525 28.1913 124.525 23.1967C124.525 20.742 124.774 13.6376 128.668 13.6376V13.6372ZM148.311 12.1025C142.385 12.1025 140.773 18.5464 140.773 23.3716C140.773 29.4664 143.398 33.6045 148.223 33.6045C153.048 33.6045 154.412 30.4736 155.174 28.9497L153.727 28.1885C153.219 29.0352 152.119 30.8965 149.833 30.8965C145.431 30.8965 144.761 25.7442 144.592 22.2734H155.336C155.252 17.4482 154.321 12.1025 148.311 12.1025ZM148.311 13.8872C151.189 13.8872 151.358 18.2081 151.443 20.6633H144.592C144.846 18.2085 145.348 13.8872 148.311 13.8872ZM259.04 12.1025C253.114 12.1025 251.502 18.5336 251.502 23.3589C251.502 29.4541 254.127 33.6045 258.953 33.6045C263.778 33.6045 265.129 30.4736 265.891 28.9497L264.456 28.1885C263.948 29.0352 262.848 30.8965 260.562 30.8965C256.16 30.8965 255.478 25.7318 255.309 22.2607H266.066C265.981 17.4354 265.05 12.1025 259.04 12.1025ZM259.04 13.8872C261.918 13.8872 262.088 18.1961 262.172 20.6509H255.309C255.563 18.1961 256.077 13.8872 259.04 13.8872ZM106.068 3.81654C104.206 3.81654 102.427 4.06573 100.565 4.06573H95.5732V5.76294L98.4556 6.26212V31.0714L95.5728 31.5826V33.1927H100.315C101.331 33.1927 105.898 33.2674 106.829 33.2674C109.2 33.2674 113.015 33.2702 115.216 29.4617C115.808 28.3611 116.226 27.0017 116.226 25.3931C116.226 23.3613 115.547 21.5035 114.193 20.0643C112.669 18.4561 110.898 18.0316 108.951 17.6934C111.068 16.8468 114.542 15.0697 114.542 10.6673C114.542 9.05913 114.032 7.36991 112.932 6.09999C110.9 3.8992 107.676 3.81614 106.068 3.81614L106.068 3.81654ZM105.307 5.50097C106.915 5.50097 110.049 6.01533 110.049 11.1793C110.049 16.8507 106.665 17.1067 104.633 17.1067H102.349V6.09999C103.45 5.76135 104.037 5.50097 105.307 5.50097ZM102.349 18.7916H104.384C107.346 18.7916 111.746 19.133 111.746 25.1435C111.746 27.4294 111.06 29.6362 109.113 30.8218C107.843 31.4987 106.405 31.583 105.219 31.583C104.034 31.583 103.111 31.327 102.349 30.7344V18.7916ZM239.148 12.1025C235.254 12.1025 232.122 14.9806 232.122 19.1286C232.122 22.8533 234.324 24.1224 235.678 24.9686C233.308 26.4079 231.697 27.9378 231.697 29.4613C231.697 30.9005 232.717 31.6588 234.156 32.0822C232.632 33.0977 230.849 34.5357 230.849 36.7369C230.849 39.7 234.484 40.805 238.124 40.805C244.558 40.805 248.033 37.5887 248.033 33.7794C248.033 30.0547 246.008 28.8694 242.367 28.7001L236.939 28.5256C236.515 28.5256 235.341 28.4361 235.341 27.5895C235.341 26.9969 236.355 26.0732 237.201 25.4806C237.963 25.7346 238.723 25.8172 239.485 25.8172C242.448 25.8172 246.336 23.8716 246.336 19.2161C246.336 17.0149 245.328 15.6643 244.651 14.6484L248.208 14.7234V12.6141L243.553 12.7766C242.114 12.7766 240.671 12.1025 239.148 12.1025ZM239.061 13.6252C242.024 13.6252 242.28 17.1023 242.28 19.3031C242.28 21.335 241.944 24.2075 239.235 24.2075C236.442 24.2075 236.103 21.1673 236.103 18.9661C236.103 16.9346 236.267 13.6252 239.061 13.6252ZM236.103 32.3317C240.505 32.5857 242.361 32.7542 243.715 33.0929C244.647 33.2622 245.412 33.6935 245.412 35.3017C245.412 37.5029 242.447 38.9333 239.061 38.9333C236.521 38.9333 234.406 37.8327 234.406 35.8008C234.406 34.0234 235.341 33.0933 236.103 32.3317ZM174.467 45.2853L169.301 46.4705V47.7437L171.672 48.0807V74.3244L169.226 74.8364V76.4457H177.512V74.7489L175.316 74.2374V45.2849L174.467 45.2853ZM186.498 45.2853L181.331 46.4705V47.7437L183.702 48.2552V74.3244L181.244 74.8364V76.4457H189.542V74.7489L187.421 74.2374V60.3601C188.606 59.3442 189.799 58.3263 191.576 58.3263C194.116 58.3263 194.11 60.8689 194.11 62.7311V74.4119L191.988 74.8364V76.4457H200.2V74.7489L197.916 74.2374V60.7843C197.916 57.8211 196.316 55.705 193.099 55.705C190.729 55.705 189.029 56.9709 187.421 58.3259V45.2849L186.498 45.2853ZM226.369 45.2853C224.93 45.2853 223.823 46.4793 223.823 47.9182C223.823 49.2727 224.93 50.4516 226.369 50.4516C227.808 50.4516 228.989 49.2699 228.989 47.8311C228.989 46.4765 227.808 45.2853 226.369 45.2853H226.369ZM95.8228 47.2445V49.0164L98.4556 49.3534V74.3244L95.8224 74.8364V76.4457H105.057V74.7489L102.511 74.2498V49.4409L105.145 48.9293V47.2445H95.8228ZM240.071 55.4434L234.992 56.8036V57.9892L237.363 58.4133V74.3244L234.992 74.8364V76.4457H243.204V74.7489L241.182 74.2374V60.2727C242.198 59.3418 243.378 58.1514 245.325 58.1514C247.695 58.1514 248.12 60.4364 248.12 62.045V74.3248L245.749 74.836V76.4461H254.048V74.7489L251.84 74.2374V60.3601C253.024 59.2595 254.302 58.1518 255.995 58.1518C258.535 58.1518 258.703 60.785 258.703 61.9699V74.3244L256.419 74.8364V76.4457H264.88V74.7489L262.509 74.2374V60.6972C262.509 57.3958 260.56 55.7054 257.343 55.7054C254.972 55.7054 253.198 56.8854 251.59 58.6629C250.743 56.7161 248.967 55.7805 246.935 55.7805C244.734 55.7805 242.7 56.7205 241.007 58.4133V55.4434H240.071ZM113.78 55.4558L108.776 56.8036V58.2388L111.147 58.5008V74.3244L108.776 74.8364V76.4457H117.162V74.7489L114.878 74.2498V60.2727C116.064 59.2572 117.329 58.1642 119.021 58.1642C121.477 58.1642 121.642 60.785 121.642 61.9699V74.4119L119.271 74.8364V76.4457H127.57V74.7489L125.373 74.2498V60.7846C125.373 57.5675 123.768 55.5309 120.382 55.5309C118.096 55.5309 116.399 56.8847 114.791 58.2384V55.4558H113.78ZM227.891 55.7054L222.725 57.0532V58.2388L225.009 58.7504V74.3248L222.725 74.836V76.4461H231.024V74.7489L228.653 74.2374V55.7054H227.891ZM158.731 55.356C152.805 55.356 151.193 61.7998 151.193 66.6251C151.193 72.7199 153.818 76.8579 158.644 76.8579C163.469 76.8579 164.82 73.727 165.582 72.2031L164.147 71.442C163.639 72.2886 162.539 74.1499 160.253 74.1499C155.851 74.1499 155.169 68.9976 155 65.5269H165.757C165.672 60.7016 164.741 55.356 158.731 55.356ZM158.731 57.1406C161.609 57.1406 161.779 61.4615 161.863 63.9167H155C155.254 61.4619 155.768 57.1406 158.731 57.1406ZM211.381 55.356C205.456 55.356 203.843 61.7998 203.843 66.6251C203.843 72.7199 206.469 76.8579 211.294 76.8579C216.119 76.8579 217.47 73.727 218.232 72.2031L216.797 71.442C216.289 72.2886 215.189 74.1499 212.904 74.1499C208.502 74.1499 207.819 68.9976 207.65 65.5269H218.407C218.323 60.7016 217.392 55.356 211.381 55.356ZM211.381 57.1406C214.26 57.1406 214.429 61.4615 214.514 63.9167H207.65C207.904 61.4619 208.418 57.1406 211.381 57.1406ZM138.826 55.3683C134.933 55.3683 131.801 58.2464 131.801 62.3944C131.801 66.1191 134.003 67.3854 135.357 68.1474C132.987 69.5866 131.376 71.1065 131.376 72.7147C131.376 74.1539 132.396 74.9246 133.834 75.348C132.311 76.2792 130.54 77.7145 130.54 79.9153C130.54 82.8784 134.175 84.0585 137.816 84.0585C144.249 84.0585 147.724 80.7671 147.724 76.9581C147.724 73.233 145.686 72.1228 142.046 71.9535L136.63 71.7914C136.206 71.7914 135.02 71.6173 135.02 70.8553C135.02 70.2627 136.033 69.339 136.879 68.7464C137.641 69.0004 138.414 69.0834 139.176 69.0834C142.139 69.0834 146.027 67.1346 146.027 62.3944C146.027 60.2779 145.007 58.9177 144.33 57.9018L147.886 57.9892V55.8799L143.231 56.0424C141.793 56.0424 140.35 55.3683 138.826 55.3683ZM138.752 56.891C141.715 56.891 141.959 60.2711 141.959 62.5565C141.959 64.5884 141.623 67.4733 138.914 67.4733C136.12 67.4733 135.781 64.4207 135.781 62.2195C135.781 60.188 135.958 56.891 138.752 56.891ZM135.781 75.5975C140.183 75.8515 142.052 76.02 143.406 76.3587C144.338 76.528 145.091 76.9593 145.091 78.5675C145.091 80.684 142.138 82.1116 138.752 82.1116C136.212 82.1116 134.097 81.0111 134.097 78.9796C134.097 77.2864 135.019 76.2748 135.781 75.5975Z" fill="#A3ACB5"/>
</svg>
