<svg width="50" height="50" viewBox="0 0 50 50" fill="none" xmlns="http://www.w3.org/2000/svg">
<path d="M0 25C0 11.1929 11.1929 0 25 0C38.8071 0 50 11.1929 50 25C50 38.8071 38.8071 50 25 50C11.1929 50 0 38.8071 0 25Z" fill="#6981F1"/>
<path d="M25.0001 22.0631C24.6573 22.0631 24.328 22.1215 24.022 22.229C24.4062 22.46 24.6629 22.88 24.6629 23.36C24.6629 24.0892 24.0701 24.6804 23.3385 24.6804C22.8619 24.6804 22.4439 24.4293 22.2109 24.0525C22.1093 24.3497 22.0542 24.6684 22.0542 25C22.0542 26.622 23.373 27.9369 25.0001 27.9369C26.627 27.9369 27.9458 26.622 27.9458 25C27.9458 23.378 26.627 22.0631 25.0001 22.0631ZM25.0001 22.0631C24.6573 22.0631 24.328 22.1215 24.022 22.229C24.4062 22.46 24.6629 22.88 24.6629 23.36C24.6629 24.0892 24.0701 24.6804 23.3385 24.6804C22.8619 24.6804 22.4439 24.4293 22.2109 24.0525C22.1093 24.3497 22.0542 24.6684 22.0542 25C22.0542 26.622 23.373 27.9369 25.0001 27.9369C26.627 27.9369 27.9458 26.622 27.9458 25C27.9458 23.378 26.627 22.0631 25.0001 22.0631ZM25.0001 17.5C17.8732 17.5 12.5 25 12.5 25C12.5 25 17.8732 32.5 25.0001 32.5C32.1268 32.5 37.5 25 37.5 25C37.5 25 32.1268 17.5 25.0001 17.5ZM25.0001 30.101C22.1743 30.101 19.8838 27.8171 19.8838 25C19.8838 22.1829 22.1743 19.899 25.0001 19.899C27.8257 19.899 30.1162 22.1829 30.1162 25C30.1162 27.8171 27.8257 30.101 25.0001 30.101ZM25.0001 22.0631C24.6573 22.0631 24.328 22.1215 24.022 22.229C24.4062 22.46 24.6629 22.88 24.6629 23.36C24.6629 24.0892 24.0701 24.6804 23.3385 24.6804C22.8619 24.6804 22.4439 24.4293 22.2109 24.0525C22.1093 24.3497 22.0542 24.6684 22.0542 25C22.0542 26.622 23.373 27.9369 25.0001 27.9369C26.627 27.9369 27.9458 26.622 27.9458 25C27.9458 23.378 26.627 22.0631 25.0001 22.0631Z" fill="white"/>
<path d="M25.0001 22.0631C24.6573 22.0631 24.328 22.1215 24.022 22.229C24.4062 22.46 24.6629 22.88 24.6629 23.36C24.6629 24.0892 24.0701 24.6804 23.3385 24.6804C22.8619 24.6804 22.4439 24.4293 22.2109 24.0525C22.1093 24.3497 22.0542 24.6684 22.0542 25C22.0542 26.622 23.373 27.9369 25.0001 27.9369C26.627 27.9369 27.9458 26.622 27.9458 25C27.9458 23.378 26.627 22.0631 25.0001 22.0631Z" fill="white"/>
<path d="M27.9458 25C27.9458 26.622 26.627 27.9369 25.0001 27.9369C23.373 27.9369 22.0542 26.622 22.0542 25C22.0542 24.6684 22.1093 24.3497 22.2109 24.0525C22.4439 24.4293 22.8619 24.6804 23.3385 24.6804C24.0701 24.6804 24.6629 24.0892 24.6629 23.36C24.6629 22.88 24.4062 22.46 24.022 22.229C24.328 22.1215 24.6573 22.0631 25.0001 22.0631C26.627 22.0631 27.9458 23.378 27.9458 25Z" fill="white"/>
</svg>
