<svg width="50" height="50" viewBox="0 0 50 50" fill="none" xmlns="http://www.w3.org/2000/svg">
<path d="M0 25C0 11.1929 11.1929 0 25 0C38.8071 0 50 11.1929 50 25C50 38.8071 38.8071 50 25 50C11.1929 50 0 38.8071 0 25Z" fill="#6981F1"/>
<path d="M25.7812 12.5H27.2461V13.9648H25.7812V12.5Z" fill="white"/>
<path d="M25.7812 33.0078H27.2461V34.4727H25.7812V33.0078Z" fill="white"/>
<path d="M18.2266 16.2361L19.2621 15.2005L20.2976 16.2361L19.2621 17.2716L18.2266 16.2361Z" fill="white"/>
<path d="M32.7246 30.7372L33.7601 29.7017L34.7957 30.7372L33.7601 31.7728L32.7246 30.7372Z" fill="white"/>
<path d="M15.5273 22.7539H16.9922V24.2188H15.5273V22.7539Z" fill="white"/>
<path d="M36.0352 22.7539H37.5V24.2188H36.0352V22.7539Z" fill="white"/>
<path d="M32.7266 16.2377L33.7621 15.2021L34.7976 16.2377L33.7621 17.2732L32.7266 16.2377Z" fill="white"/>
<path d="M25.5996 22.5729L26.0566 23.9427L27.4264 24.3997L26.9693 23.03L25.5996 22.5729Z" fill="white"/>
<path d="M26.5137 15.4297C22.0712 15.4297 18.457 19.0439 18.457 23.4863C18.457 25.4444 19.1606 27.2403 20.3263 28.638L18.8021 30.1622L17.7661 29.1261L12.5 34.3929L15.6071 37.5L20.8739 32.2339L19.8378 31.1979L21.362 29.6737C22.7597 30.8394 24.5556 31.543 26.5137 31.543C30.9561 31.543 34.5703 27.9288 34.5703 23.4863C34.5703 19.0439 30.9561 15.4297 26.5137 15.4297ZM24.8986 25.1014L23.2843 20.2569L28.1287 21.8713L29.7431 26.7157L24.8986 25.1014Z" fill="white"/>
</svg>
