<svg width="50" height="50" viewBox="0 0 50 50" fill="none" xmlns="http://www.w3.org/2000/svg">
<path d="M0 25C0 11.1929 11.1929 0 25 0C38.8071 0 50 11.1929 50 25C50 38.8071 38.8071 50 25 50C11.1929 50 0 38.8071 0 25Z" fill="#6981F1"/>
<path d="M25.4636 10C31.9444 10 37.1982 15.5391 37.1982 22.3718H36.4694C36.4694 15.9634 31.5419 10.7684 25.4636 10.7684C19.3852 10.7684 14.4577 15.9634 14.4577 22.3718H13.7289C13.7289 15.5391 18.9827 10 25.4636 10Z" fill="white"/>
<path d="M26.8627 14.0802C26.7443 13.8411 26.4879 13.7176 26.2389 13.7825C25.9898 13.8462 25.816 14.0802 25.816 14.3505V24.8327C25.816 25.0485 25.9281 25.246 26.1107 25.3488C26.5373 25.5892 26.8023 26.0559 26.8023 26.5654C26.8023 26.9463 26.6569 27.3011 26.3955 27.565C26.1341 27.8263 25.7913 27.9615 25.4289 27.942C24.7927 27.9082 24.2514 27.3597 24.1947 26.6942C24.1478 26.1378 24.4166 25.61 24.8802 25.3488C25.0627 25.2461 25.1761 25.0485 25.1761 24.8327V14.3532C25.1761 14.0829 25.001 13.8489 24.752 13.7852C24.5029 13.7202 24.2465 13.8437 24.1281 14.0842L18.289 25.9416C18.0708 26.3849 18.0424 26.9074 18.2101 27.3741L20.6685 34.1919C20.7499 34.418 20.9582 34.5689 21.1876 34.5689H29.8046C30.0327 34.5689 30.241 34.4168 30.3224 34.1919L32.7808 27.3741C32.9485 26.9074 32.9201 26.3849 32.7019 25.9416L26.8627 14.0802Z" fill="white"/>
<path d="M29.7169 35.3487H21.2738C20.968 35.3487 20.719 35.6113 20.719 35.9336V38.4151C20.719 38.7374 20.968 39 21.2738 39H29.7169C30.0226 39 30.2717 38.7374 30.2717 38.4151V35.9336C30.2717 35.6113 30.0226 35.3487 29.7169 35.3487Z" fill="white"/>
<path d="M15.1866 22.3718C15.1866 23.0084 14.6971 23.5245 14.0933 23.5245C13.4895 23.5245 13 23.0084 13 22.3718C13 21.7352 13.4895 21.2192 14.0933 21.2192C14.6971 21.2192 15.1866 21.7352 15.1866 22.3718Z" fill="white"/>
<path d="M38 22.3718C38 23.0084 37.5105 23.5245 36.9067 23.5245C36.3029 23.5245 35.8134 23.0084 35.8134 22.3718C35.8134 21.7352 36.3029 21.2192 36.9067 21.2192C37.5105 21.2192 38 21.7352 38 22.3718Z" fill="white"/>
</svg>
