<svg width="50" height="50" viewBox="0 0 50 50" fill="none" xmlns="http://www.w3.org/2000/svg">
<path d="M0 25C0 11.1929 11.1929 0 25 0C38.8071 0 50 11.1929 50 25C50 38.8071 38.8071 50 25 50C11.1929 50 0 38.8071 0 25Z" fill="#6981F1"/>
<path d="M16.8523 20.9638C16.2617 20.3725 15.9375 19.5873 15.9375 18.7522C15.9375 17.9171 16.2617 17.132 16.8515 16.5414C17.4429 15.95 18.2288 15.625 19.0647 15.625C19.9007 15.625 20.6866 15.9508 21.2764 16.5414L23.4685 18.7335C23.9263 19.1913 23.9263 19.9326 23.4685 20.3904C23.0107 20.8482 22.2693 20.8482 21.8115 20.3904L19.6186 18.1975C19.3194 17.896 18.8093 17.8983 18.5101 18.1975C18.3609 18.3468 18.2812 18.5397 18.2812 18.753C18.2812 18.9663 18.3609 19.1584 18.5101 19.3084L20.7022 21.5005C21.16 21.9583 21.16 22.6997 20.7022 23.1575C20.4733 23.3864 20.1733 23.5005 19.8733 23.5005C19.5733 23.5005 19.2733 23.3864 19.0444 23.1575L16.8515 20.9646L16.8523 20.9638ZM31.6261 26.8909C31.1683 26.4331 30.4269 26.4331 29.9691 26.8909C29.5113 27.3487 29.5113 28.0901 29.9691 28.5479L31.7714 30.3502C32.1409 30.7197 32.3432 31.2103 32.3432 31.7314V32.0313H32.0425C31.5292 32.0313 31.0253 31.8228 30.6613 31.4595L28.859 29.658C28.4012 29.2002 27.6598 29.2002 27.202 29.658C26.7442 30.1158 26.7442 30.858 27.202 31.315L29.0043 33.1165C29.816 33.9281 30.8948 34.375 32.0425 34.375H33.5151C34.1619 34.375 34.6869 33.85 34.6869 33.2032V31.7314C34.6869 30.5838 34.2401 29.5049 33.4284 28.6932L31.6261 26.8909ZM25.2833 29.4315C25.2646 30.5595 24.8161 31.6165 24.0169 32.4157C22.6053 33.8274 18.6663 34.3352 18.4999 34.3555C18.403 34.368 18.307 34.3734 18.2109 34.3734C17.6117 34.3734 17.0398 34.1383 16.6078 33.7063C16.1062 33.2055 15.8703 32.5157 15.9586 31.8134C15.9789 31.647 16.4875 27.7081 17.8984 26.2964C18.6976 25.4972 19.7553 25.0488 20.8827 25.0301L29.3761 16.5367C30.5909 15.3227 32.5643 15.3242 33.7776 16.5367C34.9908 17.7499 34.9908 19.7233 33.7776 20.9381L25.2825 29.4315H25.2833ZM23.4255 25.8019C23.6349 25.948 23.8326 26.1128 24.0169 26.2972C24.2013 26.4816 24.3661 26.6792 24.5122 26.8886L32.1206 19.2811C32.4198 18.9811 32.4198 18.4936 32.1206 18.1936C31.8214 17.8944 31.3323 17.8937 31.0331 18.1936L23.4255 25.8011V25.8019ZM22.36 27.9542C21.9732 27.5675 21.4655 27.3745 20.9577 27.3745C20.4499 27.3745 19.9421 27.5675 19.5554 27.9542C19.121 28.3885 18.5163 30.3455 18.2952 32.0188C19.9694 31.7978 21.9256 31.1923 22.36 30.7587C23.1326 29.9853 23.1326 28.7276 22.36 27.9542Z" fill="white"/>
</svg>
