<svg width="50" height="50" viewBox="0 0 50 50" fill="none" xmlns="http://www.w3.org/2000/svg">
<path d="M0 25C0 11.1929 11.1929 0 25 0C38.8071 0 50 11.1929 50 25C50 38.8071 38.8071 50 25 50C11.1929 50 0 38.8071 0 25Z" fill="#6981F1"/>
<path d="M13.75 23.2799C16.0552 23.2799 16.3188 22.5189 16.3188 21.0318L16.2241 17.4535C16.2241 13.6226 18.2416 12.6533 20.8586 12.6533H21.9522V15.6852H21.4572C20.1893 15.7041 19.8979 16.1786 19.8979 17.5723L19.9931 20.924C20.0119 23.1728 19.2834 24.5491 17.3646 24.9402C19.3478 25.3164 20.0119 26.608 19.9931 28.9241L19.8979 32.3582C19.8979 33.759 20.2533 34.2967 21.495 34.326H21.9522V37.346H20.8308C18.2898 37.346 16.1289 36.5058 16.2241 32.61L16.3188 29.0261C16.357 27.3902 16.0449 26.7709 13.75 26.7709L13.75 23.2799Z" fill="white"/>
<path d="M36.25 26.7194C33.9448 26.7194 33.6812 27.4806 33.6812 28.9676L33.7759 32.5459C33.7759 36.3767 31.7584 37.346 29.1414 37.346H28.0478V34.3142H28.5428C29.8107 34.2952 30.1021 33.8208 30.1021 32.4271L30.007 29.0753C29.9881 26.8265 30.7166 25.4502 32.6354 25.0591C30.6522 24.6829 29.9881 23.3913 30.007 21.0752L30.1021 17.6411C30.1021 16.2403 29.7467 15.7026 28.505 15.6733H28.0478V12.6533H29.1692C31.7102 12.6533 33.7759 13.4935 33.7759 17.3893L33.6812 20.9732C33.6812 22.6092 33.9551 23.2284 36.25 23.2284V26.7194Z" fill="white"/>
</svg>
