<svg width="50" height="50" viewBox="0 0 50 50" fill="none" xmlns="http://www.w3.org/2000/svg">
<path d="M0 25C0 11.1929 11.1929 0 25 0C38.8071 0 50 11.1929 50 25C50 38.8071 38.8071 50 25 50C11.1929 50 0 38.8071 0 25Z" fill="#6981F1"/>
<path d="M22.344 22.6054L23.3823 21.5757L24.9332 23.1395L27.4466 20.4398C26.7549 19.7636 25.8097 19.3457 24.7682 19.3457C22.654 19.3457 20.934 21.0657 20.934 23.18C20.934 25.2942 22.654 27.0143 24.7682 27.0143C26.8825 27.0143 28.6025 25.2942 28.6025 23.18C28.6025 22.646 28.4925 22.1374 28.2945 21.6751L24.9665 25.2498L22.344 22.6054Z" fill="white"/>
<path d="M32.1817 22.4397V20.9773H37.4786V17.1684C37.4786 15.4213 36.0573 14 34.3102 14H15.6899C13.9428 14 12.5215 15.4213 12.5215 17.1684V20.9773H17.8183V22.4397H12.5215V23.9208H17.8183V25.3831H12.5215V29.192C12.5215 30.9391 13.9428 32.3604 15.6899 32.3604H20.2516L19.3185 34.5377H17.4609V36H32.5391V34.5377H30.6815L29.7485 32.3604H34.3102C36.0573 32.3604 37.4786 30.9391 37.4786 29.192V25.3831H32.1817V23.9208H37.4786V22.4397H32.1817ZM30.0648 23.1802C30.0648 26.1008 27.6888 28.4768 24.7682 28.4768C21.8477 28.4768 19.4716 26.1008 19.4716 23.1802C19.4716 20.2597 21.8477 17.8836 24.7682 17.8836C26.194 17.8836 27.4899 18.4501 28.4431 19.3696L29.2622 18.4897L30.3325 19.4862L29.3558 20.5353C29.8065 21.314 30.0648 22.2175 30.0648 23.1802Z" fill="white"/>
</svg>
