<svg width="50" height="50" viewBox="0 0 50 50" fill="none" xmlns="http://www.w3.org/2000/svg">
<path d="M0 25C0 11.1929 11.1929 0 25 0C38.8071 0 50 11.1929 50 25C50 38.8071 38.8071 50 25 50C11.1929 50 0 38.8071 0 25Z" fill="#6981F1"/>
<path d="M13.75 23.2803C16.0552 23.2803 16.3188 22.5192 16.3188 21.0321L16.2241 17.4539C16.2241 13.623 18.2416 12.6537 20.8586 12.6537H21.9522V15.6855H21.4572C20.1893 15.7045 19.8979 16.1789 19.8979 17.5726L19.9931 20.9244C20.0119 23.1732 19.2834 24.5495 17.3646 24.9406C19.3478 25.3168 20.0119 26.6084 19.9931 28.9245L19.8979 32.3586C19.8979 33.7594 20.2533 34.2971 21.495 34.3264H21.9522V37.3464H20.8308C18.2898 37.3464 16.1289 36.5062 16.2241 32.6104L16.3188 29.0265C16.357 27.3906 16.0449 26.7712 13.75 26.7712L13.75 23.2803Z" fill="white"/>
<path d="M36.25 26.7198C33.9448 26.7198 33.6812 27.4809 33.6812 28.9679L33.7759 32.5463C33.7759 36.3771 31.7584 37.3464 29.1414 37.3464H28.0478V34.3145H28.5428C29.8107 34.2955 30.1021 33.8211 30.1021 32.4274L30.007 29.0756C29.9881 26.8269 30.7166 25.4506 32.6354 25.0594C30.6522 24.6832 29.9881 23.3917 30.007 21.0755L30.1021 17.6415C30.1021 16.2407 29.7467 15.7029 28.505 15.6737H28.0478V12.6537H29.1692C31.7102 12.6537 33.7759 13.4939 33.7759 17.3897L33.6812 20.9736C33.6812 22.6096 33.9551 23.2288 36.25 23.2288V26.7198Z" fill="white"/>
</svg>
