<svg width="70" height="70" viewBox="0 0 70 70" fill="none" xmlns="http://www.w3.org/2000/svg"><g clip-path="url(#a)"><path d="M35 70c19.33 0 35-15.67 35-35S54.33 0 35 0 0 15.67 0 35s15.67 35 35 35" fill="#121617"/><path fill-rule="evenodd" clip-rule="evenodd" d="M14 16.93A2.93 2.93 0 0 1 16.93 14h28.326a2.93 2.93 0 0 1 2.93 2.93v20.512h-12.86c-.944 0-1.804.545-2.208 1.399l-1.184 2.508h-2.306a1.954 1.954 0 0 0 0 3.907h.461l-.227.481a2.44 2.44 0 0 0-.234 1.043v1.406H16.93a2.93 2.93 0 0 1-2.93-2.93zm6.377 28.326V16.84h11.21q3.233 0 5.508 1.235 2.276 1.22 3.468 3.4 1.208 2.163 1.208 4.994t-1.221 4.995-3.538 3.371q-2.304 1.207-5.578 1.207h-5.05v9.213zm10.086-14.027h-4.079v-9.476h4.051q1.749 0 2.886.596 1.138.584 1.693 1.651.57 1.055.569 2.47 0 1.401-.57 2.484-.554 1.068-1.692 1.678-1.124.597-2.858.597m5.787 7.19c-.931 0-1.781.53-2.192 1.365l-1.316 2.68a1.05 1.05 0 0 0-.588-.178h-2.448a1.055 1.055 0 0 0 0 2.11h2.088l-.614 1.25c-.164.334-.25.702-.25 1.076v8.301c0 .54.438.977.977.977h2.605c.54 0 .976-.437.976-.977V53.89h13.675v1.133c0 .54.437.977.977.977h2.604c.54 0 .977-.437.977-.977v-8.301c0-.374-.086-.742-.25-1.077l-.613-1.249h2.087a1.055 1.055 0 1 0 0-2.11h-2.448c-.218 0-.42.066-.588.179l-1.316-2.68a2.44 2.44 0 0 0-2.192-1.366zm12.641 9.494a.49.49 0 0 0-.488.488v.43c0 .27.219.488.488.488h2.822c.27 0 .489-.218.489-.488v-.43a.49.49 0 0 0-.489-.488zM32.45 48.4c0-.27.218-.488.488-.488h2.822c.27 0 .488.219.488.488v.43c0 .27-.219.488-.488.488h-2.822a.49.49 0 0 1-.488-.488zm7.325 2.676a.49.49 0 0 0-.488.488v.43c0 .27.218.489.488.489h5.101c.27 0 .488-.22.488-.489v-.43a.49.49 0 0 0-.488-.488zm-4.558-11.198a.68.68 0 0 1 .625-.406H48.81c.27 0 .515.16.624.406l1.58 3.556a.683.683 0 0 1-.624.961H34.26a.684.684 0 0 1-.624-.961z" fill="#a3acb5"/></g><defs><clipPath id="a"><path fill="#fff" d="M0 0h70v70H0z"/></clipPath></defs></svg>