<svg width="70" height="70" viewBox="0 0 70 70" fill="none" xmlns="http://www.w3.org/2000/svg"><g clip-path="url(#a)"><path d="M35 70c19.33 0 35-15.67 35-35S54.33 0 35 0 0 15.67 0 35s15.67 35 35 35" fill="#121617"/><path fill-rule="evenodd" clip-rule="evenodd" d="M53.295 38.684c-3.877 0-5.823 4.697-3.081 7.438a1.294 1.294 0 0 1 0 1.83l-2.785 2.784a1.294 1.294 0 0 1-1.829 0c-2.741-2.742-7.438-.797-7.438 3.08a1.293 1.293 0 0 1-1.293 1.293h-3.937a1.295 1.295 0 0 1-1.294-1.293c0-3.882-4.693-5.826-7.438-3.08a1.293 1.293 0 0 1-1.83 0l-2.783-2.785a1.294 1.294 0 0 1 0-1.83c2.741-2.74.796-7.438-3.08-7.438a1.293 1.293 0 0 1-1.294-1.292v-3.938a1.293 1.293 0 0 1 1.293-1.293c3.877 0 5.822-4.697 3.081-7.438a1.294 1.294 0 0 1 0-1.83l2.784-2.784a1.294 1.294 0 0 1 1.83 0c2.74 2.741 7.438.796 7.438-3.08a1.293 1.293 0 0 1 1.293-1.294h3.937a1.293 1.293 0 0 1 1.293 1.294c0 3.877 4.697 5.822 7.438 3.08a1.294 1.294 0 0 1 1.83 0l2.784 2.785a1.294 1.294 0 0 1 0 1.83c-2.741 2.74-.796 7.437 3.081 7.437a1.293 1.293 0 0 1 1.293 1.293v3.938a1.293 1.293 0 0 1-1.293 1.293m-16.049-7.546a2.346 2.346 0 0 0-4.692 0c0 1.296 4.692 1.296 4.692 0m-3.43-4.056a1.085 1.085 0 1 0 2.17 0 1.085 1.085 0 0 0-2.17 0m-5.63 3.015a1.084 1.084 0 1 0 2.168.001 1.084 1.084 0 0 0-2.168 0m14.69 4.056a2.346 2.346 0 1 0-4.691 0c0 1.296 4.692 1.296 4.692 0m-3.43-4.056a1.084 1.084 0 1 0 2.169.001 1.084 1.084 0 0 0-2.168 0m-7.83 4.056a2.347 2.347 0 0 0-4.692 0c0 1.296 4.692 1.296 4.692 0m-.508 6.619.542-.264a2.1 2.1 0 0 1 1.566-.132l2.749.798c.626.181 1.519-.166 2.227-.442l5.327-2.053c.372-.143.716-.67.592-1.068-.174-.566-1.382-.264-1.745-.158l-3.23.948q-.011.192-.066.376c-.258.88-1.26 1.48-2.155 1.187l-3.281-.88a.573.573 0 0 1 .296-1.108l3.312.888a.596.596 0 1 0 .31-1.152l-2.493-.668a.6.6 0 0 1-.184-.087c-.736-.522-1.268-.711-1.742-.7-.482.013-.979.238-1.591.538a148 148 0 0 1-1.742.838zm-1.584 2 .699-.289a.326.326 0 0 0 .177-.43l-1.979-4.75a.33.33 0 0 0-.428-.176l-.699.29a.327.327 0 0 0-.177.429l1.979 4.75a.33.33 0 0 0 .428.177m16.858-7.35a11.482 11.482 0 1 0-22.964 0 11.482 11.482 0 0 0 22.964 0" fill="#a3acb5"/></g><defs><clipPath id="a"><path fill="#fff" d="M0 0h70v70H0z"/></clipPath></defs></svg>