<svg width="70" height="70" viewBox="0 0 70 70" fill="none" xmlns="http://www.w3.org/2000/svg"><g clip-path="url(#a)"><path d="M35 70c19.33 0 35-15.67 35-35S54.33 0 35 0 0 15.67 0 35s15.67 35 35 35" fill="#121617"/><path fill-rule="evenodd" clip-rule="evenodd" d="M46.005 36.052c-1.502-1.053-3.373-2.36-4.995-3.271-2.467-1.386-2.937-1.035-2.942-1.035-2.881 2.386-5.264 3.648-6.853 3.648a2.3 2.3 0 0 1-.815-.137 1.69 1.69 0 0 1-1.091-1.42c-.254-1.868 1.69-4.734 4.77-7.093-.515-.559-1.34-.431-3.007-.024-1.423.347-3.016.736-4.575.206l-5.674 8.73q.124.152.27.28l.057-.06v-.002a2.55 2.55 0 0 1 2.472-.773 2.82 2.82 0 0 1 1.713 1.183 3.66 3.66 0 0 1 3.272-.452 2.45 2.45 0 0 1 1.574 2.01 2.98 2.98 0 0 1 2.599.846c.58.665.727 1.618.438 2.724 1.123.377 1.8.98 2.017 1.8.302 1.138-.67 2.614-1.076 3.164 1.532 1.017 2.758 1.41 3.567 1.14l-.002-.003c.529-.224.926-.67 1.085-1.213l-2.84-1.982h.002a.614.614 0 0 1 .254-1.124.64.64 0 0 1 .477.115l3.166 2.212c.796.342 1.428.405 1.88.185l-.002-.002c.498-.316.845-.817.963-1.387l-5.09-3.262a.613.613 0 0 1-.183-.856.64.64 0 0 1 .874-.182l5.365 3.438c.532.16 1.11.096 1.593-.177.339-.304.54-.726.566-1.176l-6.748-4.482a.62.62 0 0 1-.272-.395.62.62 0 0 1 .503-.731.63.63 0 0 1 .475.1l6.959 4.618a2.81 2.81 0 0 0 2.49-.475 2.04 2.04 0 0 0 .416-1.556c-.121-.562-.604-1.11-1.436-1.627-.537-.33-1.315-.872-2.215-1.502zm-8.75-5.252c-3.502 2.902-5.637 3.592-6.402 3.302a.45.45 0 0 1-.296-.426c-.147-1.082 1.217-3.733 4.709-6.262 2.894-1.637 3.624-1.286 4.634-.8v.002a5.65 5.65 0 0 0 2.316.661q.647.038 1.293-.031l5.904 9.088a.95.95 0 0 1-.354.282l-.168-.109c-.509-.31-1.271-.843-2.156-1.462-4.636-3.246-8.03-5.446-9.484-4.242zm6.788-5.038a.506.506 0 0 1 .158-.704l3.62-2.27h.002a.54.54 0 0 1 .393-.069c.134.03.25.111.326.225L55.918 34.3a.5.5 0 0 1-.158.705l-3.62 2.269a.53.53 0 0 1-.72-.156zM34.014 43.523c.093.35-.202 1.24-.933 2.2-.687.9-1.404 1.397-1.731 1.407-.896.028-1.415-.288-1.686-1.04l.952-1.135 2.03-2.423q1.195.352 1.368.991m-4.372.645-1.024 1.219c-.862.173-1.522.127-1.913-.14a1.37 1.37 0 0 1-.527-.904l3.776-5.226c.87-.14 1.529-.013 1.867.377.356.41.37 1.145.04 2.026zm-4.463-.585a2.25 2.25 0 0 1-1.539-.462 1.93 1.93 0 0 1-.517-1.34c1.716-2.014 2.348-3.448 2.573-4.184v.002a2.44 2.44 0 0 1 2.447-.612c.551.227.883.784.815 1.366zM22.145 41a2.1 2.1 0 0 1-1.534-.144 1.42 1.42 0 0 1-.467-1.073c-.084-.956.67-1.745 1.472-2.58.158-.166.322-.336.475-.507h.002c.31-.35.791-.5 1.25-.388.525.126.947.506 1.124 1.009-.217.658-.795 1.897-2.32 3.683zm-3.565-4.194a.526.526 0 0 1-.72.155l-3.618-2.267a.51.51 0 0 1-.16-.706l7.375-11.356h.002a.52.52 0 0 1 .441-.235c.098 0 .194.029.277.08l3.62 2.269a.507.507 0 0 1 .16.704z" fill="#a3acb5"/></g><defs><clipPath id="a"><path fill="#fff" d="M0 0h70v70H0z"/></clipPath></defs></svg>