<svg width="70" height="70" viewBox="0 0 70 70" fill="none" xmlns="http://www.w3.org/2000/svg">
<g clip-path="url(#clip0_20813_39652)">
<path d="M35 70C54.33 70 70 54.33 70 35C70 15.67 54.33 0 35 0C15.67 0 0 15.67 0 35C0 54.33 15.67 70 35 70Z" fill="#121617"/>
<path d="M30.0378 16.5195H39.3758V20.0824H30.0378V16.5195Z" fill="#A3ACB5"/>
<path d="M34.4618 27.0216C34.4757 27.0181 34.4914 27.0164 34.5071 27.0129C34.5803 27.0026 34.6535 26.9974 34.7268 26.9974C34.7407 26.9974 34.7512 27.0008 34.7634 27.0008C34.8418 27.0043 34.9237 27.0147 35.0004 27.0319H35.0057L44.4482 29.2125V22.6845H24.9634V29.2125L34.4077 27.0319C34.4234 27.0268 34.4426 27.0268 34.46 27.0216H34.4618Z" fill="#A3ACB5"/>
<path d="M55.7525 50.5778C54.487 48.8222 52.2226 47.9998 50.2374 48.5717C49.4965 48.7635 48.951 49.1004 48.5134 49.3682C48.1299 49.6032 47.8283 49.7864 47.4449 49.8676C47.4153 49.8762 47.3839 49.8831 47.3525 49.8918C46.5855 50.1164 45.8691 49.7587 44.7674 49.1574C44.5495 49.0382 44.3316 48.9207 44.1172 48.8084C44.0719 48.7842 44.0283 48.7669 43.9813 48.7479C43.3468 48.5077 42.7663 48.4093 42.2311 48.4023C47.3527 42.9612 49.7459 36.0669 50.5496 33.2921L36.0203 29.9383V49.5705C35.853 49.4824 35.6769 49.3736 35.4852 49.2405C35.4747 49.2319 35.4643 49.2267 35.4538 49.2198C34.835 48.8224 34.1238 48.5649 33.3952 48.4578V29.9402L18.866 33.294C19.7427 36.3126 22.4986 44.2144 28.6155 49.8162C28.0716 49.9976 27.5922 50.0114 27.0327 49.7799C25.3994 48.8537 23.1786 47.6304 20.6983 49.0127C20.646 49.0438 20.5954 49.0749 20.5466 49.1112C19.743 49.7194 18.8122 49.9959 17.9946 49.8767C17.341 49.7782 16.8006 49.4343 16.3805 48.852C15.9587 48.2663 15.1394 48.1315 14.5484 48.5497C13.961 48.9661 13.8233 49.7799 14.2434 50.364C15.0801 51.5251 16.2411 52.2456 17.6007 52.4478C19.0893 52.6724 20.7034 52.2318 22.0527 51.2451C23.0741 50.7112 24.005 51.0602 25.7934 52.0745C25.8335 52.0952 25.8719 52.116 25.9137 52.135C28.2129 53.144 30.0014 52.1384 31.4395 51.3281C31.5389 51.2711 31.6382 51.2158 31.7393 51.1588C32.4191 50.8875 33.3622 50.9842 34.0071 51.3937C36.9269 53.3929 38.8654 52.3821 40.2809 51.6443C41.3564 51.0827 41.977 50.8011 42.9845 51.1605C43.1571 51.2486 43.3314 51.3419 43.504 51.4386C44.7119 52.097 46.2163 52.916 48.0485 52.4045C48.8486 52.2248 49.4273 51.8706 49.8945 51.5855C50.2623 51.3592 50.5534 51.1829 50.9212 51.0861C50.9369 51.0827 50.9508 51.0775 50.963 51.0758C52.0054 50.7682 53.0896 51.3574 53.6195 52.0935C53.8775 52.4495 54.2785 52.6395 54.6881 52.6395C54.953 52.6395 55.2215 52.5583 55.4516 52.3942C56.039 51.9778 56.1767 51.1657 55.7566 50.5799L55.7525 50.5778Z" fill="#A3ACB5"/>
</g>
<defs>
<clipPath id="clip0_20813_39652">
<rect width="70" height="70" fill="white"/>
</clipPath>
</defs>
</svg>
