<svg width="70" height="70" viewBox="0 0 70 70" fill="none" xmlns="http://www.w3.org/2000/svg"><g clip-path="url(#a)"><path d="M35 70c19.33 0 35-15.67 35-35S54.33 0 35 0 0 15.67 0 35s15.67 35 35 35" fill="#121617"/><path fill-rule="evenodd" clip-rule="evenodd" d="M41.832 36.246H56v-2.731l-7.498-7.527h-6.67zM56 38.082v7.915h-2.313a5.05 5.05 0 0 0-1.727-2.959 5.01 5.01 0 0 0-6.424 0 5.05 5.05 0 0 0-1.727 2.96H28.911a5.05 5.05 0 0 0-1.727-2.96 5.01 5.01 0 0 0-6.423 0 5.05 5.05 0 0 0-1.727 2.96h-4.577a.46.46 0 0 1-.457-.46v-25.2a.46.46 0 0 1 .457-.46H39.55a.46.46 0 0 1 .456.46v25.307h1.825v-7.563zm-4.993 6.56a3.19 3.19 0 0 0-4.034-.403 3.22 3.22 0 0 0-1.182 3.894 3.2 3.2 0 0 0 1.443 1.604 3.18 3.18 0 0 0 3.977-.788 3.217 3.217 0 0 0-.204-4.306m-24.777 0a3.19 3.19 0 0 0-4.032-.398 3.22 3.22 0 0 0-1.177 3.893 3.2 3.2 0 0 0 1.445 1.602 3.18 3.18 0 0 0 3.974-.79 3.22 3.22 0 0 0 .486-3.264 3.2 3.2 0 0 0-.694-1.042z" fill="#a3acb5"/></g><defs><clipPath id="a"><path fill="#fff" d="M0 0h70v70H0z"/></clipPath></defs></svg>