<svg width="70" height="70" viewBox="0 0 70 70" fill="none" xmlns="http://www.w3.org/2000/svg"><g clip-path="url(#a)"><path d="M35 70c19.33 0 35-15.67 35-35S54.33 0 35 0 0 15.67 0 35s15.67 35 35 35" fill="#121617"/><path d="M29.35 32.664a1.62 1.62 0 0 0 .807-1.4V16.726a1.615 1.615 0 0 0-2.153-1.514A21.015 21.015 0 0 0 14.35 38.835a1.615 1.615 0 0 0 2.397 1.107zm-2.424-13.49V30.33l-9.67 5.58c-.024-.305-.024-.612-.024-.911a17.79 17.79 0 0 1 9.694-15.827M35.004 14a1.616 1.616 0 0 0-1.616 1.615v18.541l-15.916 9.27a1.616 1.616 0 0 0-.58 2.221A21 21 0 0 0 35.122 56a21.01 21.01 0 0 0 18.105-10.57 20.997 20.997 0 0 0-7.741-28.624A21 21 0 0 0 35.004 14m0 38.77a17.87 17.87 0 0 1-14.438-7.407l15.252-8.885a1.62 1.62 0 0 0 .808-1.397V17.303a17.773 17.773 0 0 1 16.148 18.509 17.77 17.77 0 0 1-17.77 16.957" fill="#a3acb5"/></g><defs><clipPath id="a"><path fill="#fff" d="M0 0h70v70H0z"/></clipPath></defs></svg>