<svg width="70" height="70" viewBox="0 0 70 70" fill="none" xmlns="http://www.w3.org/2000/svg">
<g clip-path="url(#clip0_20813_39641)">
<path d="M35 70C54.33 70 70 54.33 70 35C70 15.67 54.33 0 35 0C15.67 0 0 15.67 0 35C0 54.33 15.67 70 35 70Z" fill="#121617"/>
<path d="M36.8626 42.2093C36.8626 41.6297 36.397 41.1583 35.8246 41.1583H33.3308C32.761 41.1583 32.2971 41.6297 32.2971 42.2093V54.9489C32.2971 55.5285 32.761 56 33.3308 56H35.8246C36.397 56 36.8626 55.5285 36.8626 54.9489V42.2093Z" fill="#A3ACB5"/>
<path d="M31.0782 23.957C31.0782 24.2854 31.123 24.6117 31.2122 24.9274C31.6382 26.4408 33.0233 27.4984 34.5799 27.4984C36.1369 27.4984 37.5216 26.4408 37.9471 24.927C38.0363 24.6112 38.0815 24.285 38.0815 23.9566C38.0815 23.8981 38.082 23.844 38.0781 23.786C38.0777 23.7812 38.0768 23.7769 38.0768 23.7725C38.0764 23.7699 38.0751 23.7673 38.0751 23.7647C38.0751 23.7638 38.0755 23.7634 38.0755 23.7625C38.0096 22.5513 37.3506 21.4745 36.307 20.874C35.7846 20.5708 35.1876 20.4112 34.5799 20.4112C33.9722 20.4112 33.3756 20.5708 32.854 20.874C31.8018 21.4793 31.1398 22.5675 31.0821 23.7856C31.0782 23.8458 31.0782 23.9034 31.0782 23.957Z" fill="#A3ACB5"/>
<path d="M38.4636 25.4294C37.8623 27.0483 36.3113 28.1526 34.5799 28.1526C32.8484 28.1526 31.2975 27.0483 30.6962 25.429C29.6121 25.9292 28.5556 28.1169 27.4405 32.1983H41.7197C40.6055 28.1143 39.5489 25.9266 38.4636 25.4294Z" fill="#A3ACB5"/>
<path d="M42.5566 35.5665C42.3322 34.5852 42.1121 33.6868 41.8933 32.852H27.2674C27.0486 33.6868 26.8276 34.5852 26.6032 35.5665C25.2486 41.4976 25.5893 45.8428 27.5878 48.1325C29.019 49.772 30.9344 49.9408 31.6511 49.9412V42.2093C31.6511 41.269 32.4048 40.504 33.3308 40.504H35.8246C36.7532 40.504 37.5087 41.269 37.5087 42.2093V49.9412C38.2254 49.9408 40.1403 49.7715 41.572 48.1325C43.5704 45.8424 43.9107 41.4971 42.5566 35.5665ZM36.9875 34.891H32.1727C31.9944 34.891 31.8496 34.7444 31.8496 34.5639C31.8496 34.3833 31.9944 34.2368 32.1727 34.2368H36.9875C37.1658 34.2368 37.3106 34.3833 37.3106 34.5639C37.3106 34.7444 37.1658 34.891 36.9875 34.891Z" fill="#A3ACB5"/>
<path d="M47.3632 14C46.3115 14 45.4552 14.8688 45.4552 15.9364C45.4552 17.0041 46.311 17.8725 47.3632 17.8725C48.4202 17.8725 49.2799 17.0041 49.2799 15.9364C49.2799 14.8688 48.4202 14 47.3632 14Z" fill="#A3ACB5"/>
<path d="M24.3549 15.9364C24.3549 16.0533 24.3446 16.1676 24.3295 16.2801C26.4805 16.4472 28.196 18.3971 28.3062 20.8186C28.5198 20.7658 28.7318 20.7178 28.9424 20.6738C28.7666 17.9593 26.7944 15.793 24.3347 15.6259C24.3467 15.728 24.3549 15.8313 24.3549 15.9364Z" fill="#A3ACB5"/>
<path d="M21.7965 17.8725C22.8509 17.8725 23.7089 17.0041 23.7089 15.9364C23.7089 14.8688 22.8509 14 21.7965 14C20.7396 14 19.8799 14.8688 19.8799 15.9364C19.8799 17.0041 20.7396 17.8725 21.7965 17.8725Z" fill="#A3ACB5"/>
<path d="M40.8535 20.8186C40.9638 18.3967 42.6806 16.4472 44.8341 16.2801C44.8195 16.1672 44.8087 16.0529 44.8087 15.9364C44.8087 15.8313 44.8169 15.728 44.829 15.6259C42.3662 15.7925 40.3927 17.9597 40.2174 20.6738C40.428 20.7178 40.6399 20.7658 40.8535 20.8186Z" fill="#A3ACB5"/>
<path d="M38.6927 23.4768C43.5067 24.1794 45.2429 24.0246 45.5392 23.8026C45.4996 23.7267 45.3372 23.5056 44.6825 23.0969C42.3223 21.618 39.6148 21.1051 37.4863 20.9616C38.1603 21.6289 38.5846 22.5117 38.6927 23.4768Z" fill="#A3ACB5"/>
<path d="M23.6206 23.8026C23.916 24.022 25.6513 24.1751 30.4675 23.4746C30.5752 22.5121 30.9994 21.6293 31.6739 20.9616C29.5454 21.1051 26.8379 21.618 24.4772 23.0965C23.823 23.506 23.6602 23.7263 23.6206 23.8026Z" fill="#A3ACB5"/>
</g>
<defs>
<clipPath id="clip0_20813_39641">
<rect width="70" height="70" fill="white"/>
</clipPath>
</defs>
</svg>
