<svg width="35" height="35" viewBox="0 0 35 35" fill="none" xmlns="http://www.w3.org/2000/svg">
<path d="M10.3273 1.93739C10.3273 1.24413 9.76528 0.682129 9.07202 0.682129C8.37877 0.682129 7.81677 1.24413 7.81677 1.93739V4.58055C5.4078 4.77344 3.82634 5.24686 2.66448 6.40872C1.50261 7.57059 1.02919 9.15205 0.836304 11.561H34.0444C33.8516 9.15205 33.3781 7.57059 32.2163 6.40872C31.0544 5.24686 29.4729 4.77344 27.064 4.58055V1.93739C27.064 1.24413 26.502 0.682129 25.8088 0.682129C25.1155 0.682129 24.5535 1.24413 24.5535 1.93739V4.46949C23.44 4.4479 22.192 4.4479 20.7877 4.4479H14.093C12.6888 4.4479 11.4407 4.4479 10.3273 4.46949V1.93739Z" fill="#2A2D30"/>
<path fill-rule="evenodd" clip-rule="evenodd" d="M34.1772 17.8366V21.1839C34.1772 27.4957 34.1772 30.6517 32.2164 32.6124C30.2556 34.5733 27.0996 34.5733 20.7878 34.5733H14.0931C7.7813 34.5733 4.62541 34.5733 2.66456 32.6124C0.703736 30.6517 0.703735 27.4957 0.703735 21.1839V17.8366C0.703735 16.4324 0.703736 15.1843 0.725326 14.0708H34.1556C34.1772 15.1843 34.1772 16.4324 34.1772 17.8366ZM24.1352 19.9287C24.8284 19.9287 25.3904 20.4907 25.3904 21.1839V23.276H27.4825C28.1758 23.276 28.7378 23.838 28.7378 24.5313C28.7378 25.2245 28.1758 25.7865 27.4825 25.7865H25.3904V27.8786C25.3904 28.5719 24.8284 29.1339 24.1352 29.1339C23.4419 29.1339 22.8799 28.5719 22.8799 27.8786V25.7865H20.7878C20.0946 25.7865 19.5326 25.2245 19.5326 24.5313C19.5326 23.838 20.0946 23.276 20.7878 23.276H22.8799V21.1839C22.8799 20.4907 23.4419 19.9287 24.1352 19.9287Z" fill="#2A2D30"/>
</svg>
