<svg width="13" height="18" viewBox="0 0 13 18" fill="none" xmlns="http://www.w3.org/2000/svg">
  <path d="M4.19096 5.61176C4.20637 5.60198 4.22264 5.59385 4.23972 5.58727C4.23972 5.58727 4.2387 5.58559 4.2369 5.58261L4.9842 5.1085C5.60177 4.71669 5.7921 3.88662 5.40931 3.2545L3.81307 0.618546C3.80623 0.607257 3.79926 0.59611 3.79215 0.585099C3.34463 -0.108276 2.38231 -0.197995 1.8025 0.383529C0.799612 1.38939 0.108071 2.13923 0.0141054 3.64118C-0.0616361 4.85182 0.174806 6.09596 0.551622 7.2399C1.57453 10.3452 3.52426 13.0785 5.6028 15.5325C6.52596 16.6224 7.79075 17.5747 9.19785 17.9068C10.3762 18.1849 12.8902 17.898 12.9971 16.2612C13.0147 15.9903 12.9528 15.7115 12.8024 15.4631L11.2062 12.8272C10.8234 12.195 10.0124 12.0002 9.39488 12.392L8.64755 12.8662C8.64661 12.8646 8.64567 12.8631 8.64473 12.8615C8.63138 12.8742 8.61703 12.8855 8.60162 12.8953C8.10294 13.2116 6.71136 11.8376 5.4934 9.82636C4.27542 7.81507 3.6923 5.92813 4.19096 5.61176Z" fill="white"></path>
</svg>