<svg width="22" height="22" viewBox="0 0 22 22" fill="none" xmlns="http://www.w3.org/2000/svg">
<path d="M7.24387 6.76766C6.84797 7.16356 6.78922 7.78568 7.10626 8.24712C7.62875 9.00768 8.57454 10.245 10.0727 11.7432C11.5709 13.2414 12.8083 14.1872 13.5689 14.7097C14.0303 15.0267 14.6524 14.9679 15.0483 14.5721L16.2672 13.3532C16.7989 12.8215 17.661 12.8215 18.1928 13.3532L20.7555 15.9159C21.6036 16.764 21.6036 18.1386 20.7559 18.9864L19.1813 20.5609C19.1813 20.5609 15.2391 24.5031 6.27592 15.54C-2.68722 6.57692 1.25499 2.63473 1.25499 2.63473L2.82958 1.06014C3.67735 0.212374 5.05184 0.212374 5.89962 1.06014L8.46271 3.62323C8.99444 4.15496 8.99444 5.01709 8.46271 5.54882L7.24387 6.76766Z" fill="white"/>
</svg>
