<svg width="40" height="40" viewBox="0 0 40 40" fill="none" xmlns="http://www.w3.org/2000/svg">
<path d="M0.0522461 0V11.7858H39.3572V0H0.0522461ZM26.3903 7.66816H4.42069V4.11951H26.3903V7.66816ZM36.9222 8.2634L35.5877 9.60354L33.2144 7.22469L30.8411 9.60354L29.5066 8.2634L31.8817 5.88637L29.5066 3.51872L30.8411 2.18795L33.2144 4.55751L35.5877 2.18795L36.9222 3.51872L34.5489 5.88637L36.9222 8.2634Z" fill="#2A2D30"/>
<path d="M0.0522461 25.3329H39.3572V13.5488H0.0522461V25.3329ZM29.5085 17.0695L30.843 15.735L33.2163 18.112L35.5896 15.735L36.9241 17.0695L34.5508 19.4408L36.9241 21.8141L35.5896 23.1524L33.2163 20.7791L30.843 23.1524L29.5085 21.8141L31.8836 19.4408L29.5085 17.0695ZM4.42069 17.6665H26.3903V21.2152H4.42069V17.6665Z" fill="#2A2D30"/>
<path d="M0.0522461 39.2525H39.3572V27.4648H0.0522461V39.2525ZM29.5085 30.9873L30.843 29.6547L33.2163 32.028L35.5896 29.6547L36.9241 30.9873L34.5508 33.3587L36.9241 35.7357L35.5896 37.0683L33.2163 34.695L30.843 37.0683L29.5085 35.7357L31.8836 33.3587L29.5085 30.9873ZM4.42069 31.5844H26.3903V35.133H4.42069V31.5844Z" fill="#2A2D30"/>
</svg>
