<svg width="56" height="56" viewBox="0 0 56 56" fill="none" xmlns="http://www.w3.org/2000/svg">
<path d="M37.213 2.68931C36.5605 1.05558 35.0019 0 33.2424 0H22.7532C20.9937 0 19.4351 1.05558 18.7826 2.68931L17.6562 5.50517H38.3395L37.213 2.68931Z" fill="#4361EE"/>
<path d="M33.2689 20.8542C31.593 20.7862 30.0436 22.3463 29.46 23.4706C28.8746 24.6705 27.1106 24.6621 26.5295 23.4618C26.5295 23.4618 26.1582 22.7502 25.4565 22.0696C24.6252 21.263 23.7061 20.8542 22.725 20.8542C20.7228 20.8542 19.0938 22.4832 19.0938 24.4853C19.0938 29.0154 24.9102 33.7299 27.9969 35.7355C31.0835 33.7299 36.9 29.0154 36.9 24.4853C36.9001 22.4832 35.2711 20.8542 33.2689 20.8542Z" fill="#4361EE"/>
<path d="M42.0569 8.78662H13.9403C11.0978 8.78662 8.78516 11.0994 8.78516 13.9419V42.0585C8.78516 44.901 11.0978 47.2138 13.9403 47.2138H42.0569C44.8995 47.2138 47.2121 44.901 47.2121 42.0585V13.9419C47.2122 11.0994 44.8995 8.78662 42.0569 8.78662ZM28.8253 39.0824C28.3144 39.3803 27.6829 39.3803 27.172 39.0824C5.76706 25.8668 19.8545 11.8439 27.9986 19.9763C36.1447 11.8433 50.2287 25.8687 28.8253 39.0824Z" fill="#4361EE"/>
<path d="M18.7826 53.3105C19.4351 54.9442 20.9937 55.9998 22.7532 55.9998H33.2424C35.0019 55.9998 36.5605 54.9442 37.213 53.3105L38.3394 50.4946H17.6562L18.7826 53.3105Z" fill="#4361EE"/>
</svg>
