<svg width="50" height="50" viewBox="0 0 50 50" fill="none" xmlns="http://www.w3.org/2000/svg">
<g clip-path="url(#clip0_21482_72022)">
<path d="M5.83469 14.9998C3.53722 14.9998 1.66797 16.8689 1.66797 19.1665V30.8331C1.66797 33.1306 3.53712 34.9999 5.83469 34.9999C8.13217 34.9999 10.0014 33.1307 10.0014 30.8331V19.1665C10.0014 16.8689 8.13217 14.9998 5.83469 14.9998Z" fill="#4361EE"/>
<path d="M44.1667 14.9998C41.8693 14.9998 40 16.8689 40 19.1665V30.8331C40 33.1306 41.8692 34.9999 44.1667 34.9999C46.4643 34.9999 48.3334 33.1307 48.3334 30.8331V19.1665C48.3334 16.8689 46.4643 14.9998 44.1667 14.9998Z" fill="#4361EE"/>
<path d="M11.668 39.1666H15.0013V46.6666C15.0013 48.505 16.4963 50 18.3346 50C20.1729 50 21.6679 48.5049 21.6679 46.6666V39.1666H28.3347V46.6666C28.3347 48.505 29.8297 50 31.668 50C33.5063 50 35.0013 48.5049 35.0013 46.6666V39.1666H38.3346V14.9998H11.668V39.1666Z" fill="#4361EE"/>
<path d="M34.9 5.5798C34.3409 5.01144 33.6409 4.40811 32.7884 3.84981L34.0818 1.19813C34.2843 0.784754 34.1126 0.285629 33.6985 0.0839681C33.2826 -0.116912 32.7868 0.0556477 32.5851 0.46815L31.3351 3.02988C29.69 2.23574 27.6268 1.6665 25.0792 1.6665C22.5433 1.6665 20.42 2.19316 18.6492 3.02647L17.4165 0.470591C17.2182 0.0564289 16.7207 -0.116131 16.304 0.0822103C15.8899 0.282211 15.7156 0.780554 15.9165 1.1956L17.1857 3.82813C13.6173 6.11984 11.904 9.7682 11.6698 12.4265L11.5898 13.3332H38.41L38.33 12.4265C38.1734 10.6423 37.1892 7.90648 34.9 5.5798ZM20.8333 9.99985C19.9132 9.99985 19.1665 9.25404 19.1665 8.33314C19.1665 7.41233 19.9132 6.66643 20.8333 6.66643C21.7533 6.66643 22.5 7.41223 22.5 8.33314C22.5 9.25404 21.7533 9.99985 20.8333 9.99985ZM29.1666 9.99985C28.2466 9.99985 27.4999 9.25404 27.4999 8.33314C27.4999 7.41233 28.2466 6.66643 29.1666 6.66643C30.0866 6.66643 30.8333 7.41223 30.8333 8.33314C30.8333 9.25404 30.0866 9.99985 29.1666 9.99985Z" fill="#4361EE"/>
</g>
<defs>
<clipPath id="clip0_21482_72022">
<rect width="50" height="50" fill="white"/>
</clipPath>
</defs>
</svg>
