<svg width="50" height="50" viewBox="0 0 50 50" fill="none" xmlns="http://www.w3.org/2000/svg">
<g clip-path="url(#clip0_21482_71964)">
<path d="M38.6991 28.0268C37.3237 21.1048 43.8938 17.0452 43.8938 17.0452C43.8938 17.0452 41.334 13.3418 37.0319 12.3891C32.732 11.4342 30.5799 12.6272 28.432 13.5219C26.2821 14.4189 25.2093 14.4189 25.2093 14.4189C22.1066 14.4189 19.8386 11.1338 13.9273 12.6294C9.85485 13.6571 5.56773 18.3583 4.79314 23.9693C4.01856 29.5824 5.69008 36.7446 8.91285 42.2955C12.1356 47.8507 15.4186 49.9384 17.7487 49.9985C20.0789 50.0564 22.4049 48.3292 25.2093 47.9086C28.0158 47.4923 29.7431 48.9257 32.4959 49.7003C35.2381 50.4728 36.1994 49.7561 39.3578 47.0697C42.5247 44.3832 45.3914 36.6782 45.3914 36.6782C45.3914 36.6782 40.0745 34.9529 38.6991 28.0268Z" fill="#4361EE"/>
<path d="M32.6086 7.91106C35.6554 4.80636 34.6234 0 34.6234 0C34.6234 0 30.3449 0.751009 27.4782 3.73346C24.6138 6.7181 25.0879 11.4321 25.0879 11.4321C25.0879 11.4321 29.5617 11.0138 32.6086 7.91106Z" fill="#4361EE"/>
</g>
<defs>
<clipPath id="clip0_21482_71964">
<rect width="50" height="50" fill="white"/>
</clipPath>
</defs>
</svg>
