<svg width="70" height="70" viewBox="0 0 70 70" fill="none" xmlns="http://www.w3.org/2000/svg">
<path d="M9.56875 67.7139C9.72187 67.7795 9.875 67.8123 10.0391 67.8123C10.2906 67.8123 10.5422 67.7248 10.7391 67.5607L14.6328 64.3014C15.7484 63.3717 17.1594 62.8576 18.6141 62.8576H36.5516C37.9187 62.8576 39.2641 62.4857 40.4344 61.7967L56.9828 52.0404C57.8359 51.5373 58.4266 50.7389 58.6672 49.7873C58.8969 48.8357 58.7437 47.8404 58.2297 47.0092C57.2672 45.4451 55.2875 44.8436 53.625 45.6092L42.4031 50.7607C42.1078 49.0764 40.6312 47.7857 38.8594 47.7857H30.0109C29.6281 47.7857 29.2672 47.6326 29.0047 47.3701C27.2 45.5654 24.8156 44.5811 22.2672 44.5811H21.5234C18.5047 44.5811 15.6609 45.7514 13.5281 47.8951L9.2625 52.1607C9.05469 52.3576 8.94531 52.642 8.94531 52.9264V66.7186C8.94531 67.1451 9.18594 67.5279 9.56875 67.7139ZM11.1328 53.3857L15.0703 49.4373C16.7984 47.7201 19.0844 46.7686 21.5234 46.7686H22.2672C24.225 46.7686 26.0734 47.5342 27.4625 48.9123C28.1297 49.5904 29.0594 49.9732 30.0109 49.9732H38.8594C39.6359 49.9732 40.2703 50.6076 40.2703 51.3842C40.2703 51.592 40.2266 51.7889 40.15 51.9639C40.1062 52.0295 40.0625 52.0951 40.0406 52.1607C39.7781 52.5545 39.3516 52.8061 38.8594 52.8061H29.1469C28.5453 52.8061 28.0531 53.2982 28.0531 53.8998C28.0531 54.5014 28.5453 54.9936 29.1469 54.9936H38.8594C40.0844 54.9936 41.1672 54.3811 41.8125 53.4404L54.5437 47.5998C55.2 47.2936 55.9875 47.5342 56.3703 48.1576C56.5781 48.4857 56.6328 48.8795 56.5453 49.2623C56.4469 49.6451 56.2062 49.9623 55.8781 50.1592L39.3297 59.9045C38.4875 60.4076 37.525 60.6701 36.5516 60.6701H18.6141C16.6453 60.6701 14.7312 61.3592 13.2328 62.617L11.1328 64.3779V53.3857Z" fill="#4361EE"/>
<path d="M15.4219 28.7H18.55C18.7687 28.7 18.9547 28.8531 19.0422 29.0828C19.1844 29.4656 19.3375 29.8375 19.5016 30.2094C19.6 30.4281 19.5781 30.6578 19.4359 30.8L17.2156 33.0203C16.7891 33.4469 16.7891 34.1469 17.2156 34.5734L23.6578 41.0156C24.0844 41.4531 24.7844 41.4531 25.2109 41.0156L27.4312 38.7953C27.5734 38.6531 27.8031 38.6312 28.0219 38.7297C28.3938 38.8937 28.7766 39.0469 29.1484 39.1891C29.3781 39.2766 29.5312 39.4625 29.5312 39.6812V42.8094C29.5312 43.4109 30.0234 43.9031 30.625 43.9031H39.7469C40.3484 43.9031 40.8406 43.4109 40.8406 42.8094V39.6812C40.8406 39.4625 40.9937 39.2766 41.2234 39.1891C41.6062 39.0469 41.9781 38.8937 42.35 38.7297C42.5688 38.6312 42.7984 38.6531 42.9406 38.8062L45.1609 41.0156C45.5875 41.4531 46.2875 41.4531 46.7141 41.0156L53.1562 34.5734C53.3641 34.3656 53.4844 34.0922 53.4844 33.7969C53.4844 33.5125 53.3641 33.2281 53.1562 33.0203L50.9469 30.8C50.7938 30.6578 50.7719 30.4281 50.8703 30.2094C51.0344 29.8375 51.1875 29.4656 51.3297 29.0828C51.4172 28.8531 51.6031 28.7 51.8219 28.7H54.95C55.5516 28.7 56.0438 28.2078 56.0438 27.6062V18.4844C56.0438 17.8828 55.5516 17.3906 54.95 17.3906H51.8219C51.6031 17.3906 51.4172 17.2484 51.3297 17.0078C51.1875 16.625 51.0344 16.2531 50.8703 15.8813C50.7719 15.6625 50.7938 15.4328 50.9359 15.2906L53.1562 13.0703C53.3641 12.8625 53.4844 12.5891 53.4844 12.2937C53.4844 12.0094 53.3641 11.725 53.1562 11.5172L46.7141 5.075C46.2875 4.64844 45.5875 4.64844 45.1609 5.075L42.9406 7.29531C42.7984 7.4375 42.5688 7.45937 42.35 7.36094C41.9781 7.19688 41.6062 7.04375 41.2234 6.90156C40.9937 6.81406 40.8406 6.62813 40.8406 6.40938V3.28125C40.8406 2.67969 40.3484 2.1875 39.7469 2.1875H30.625C30.0234 2.1875 29.5312 2.67969 29.5312 3.28125V6.40938C29.5312 6.62813 29.3781 6.81406 29.1594 6.90156C28.7766 7.04375 28.3938 7.19688 28.0219 7.36094C27.8031 7.45937 27.5734 7.4375 27.4312 7.29531L25.2109 5.075C24.7844 4.64844 24.0844 4.64844 23.6578 5.075L17.2156 11.5172C16.7891 11.9547 16.7891 12.6438 17.2156 13.0703L19.4359 15.2906C19.5781 15.4328 19.6 15.6625 19.5016 15.8813C19.3375 16.2531 19.1844 16.6359 19.0422 17.0188C18.9547 17.2484 18.7687 17.3906 18.55 17.3906H15.4219C14.8203 17.3906 14.3281 17.8828 14.3281 18.4844V27.6062C14.3281 28.2078 14.8203 28.7 15.4219 28.7ZM25.9437 23.0453C25.9437 17.9484 30.0891 13.8031 35.1859 13.8031C40.2828 13.8031 44.4281 17.9484 44.4281 23.0453C44.4281 28.1422 40.2828 32.2875 35.1859 32.2875C30.0891 32.2875 25.9437 28.1422 25.9437 23.0453Z" fill="#4361EE"/>
<path d="M35.1867 30.4389C39.2664 30.4389 42.5805 27.1248 42.5805 23.0451C42.5805 18.9654 39.2664 15.6514 35.1867 15.6514C31.107 15.6514 27.793 18.9764 27.793 23.0451C27.793 27.1139 31.107 30.4389 35.1867 30.4389ZM35.1867 17.8389C38.0523 17.8389 40.393 20.1795 40.393 23.0451C40.393 25.9107 38.0523 28.2514 35.1867 28.2514C32.3211 28.2514 29.9805 25.9107 29.9805 23.0451C29.9805 20.1795 32.3211 17.8389 35.1867 17.8389Z" fill="#4361EE"/>
</svg>
