<svg width="109" height="32" viewBox="0 0 109 32" fill="none" xmlns="http://www.w3.org/2000/svg">
<path d="M64 17.6472H59V14.7061H64V17.6472Z" fill="#0D1330"/>
<path d="M31 15.9672C31 16.8967 30.0808 17.6472 28.9422 17.6472H25.0578C23.9192 17.6472 23 16.8967 23 15.9672V15.4056C23 14.476 23.9192 13.7256 25.0578 13.7256H28.9422C30.0808 13.7256 31 14.476 31 15.4056V15.9672Z" fill="#0D1330"/>
<path d="M36.6681 9.8539C35.7002 8.18414 33.5134 7.12585 31.225 7.12585C26.2359 7.09057 22.3164 10.1243 22.3164 15.9214C22.3164 21.7186 26.0567 24.8876 31.1174 24.8582C33.0234 24.8229 35.6942 23.8704 36.6621 21.8891L36.8712 24.3467H40.8565V7.53741H36.7995L36.6621 9.8539M38.8429 17.9734H36.2259C35.5687 19.6902 34.0332 21.0424 31.6074 21.0424C28.7992 21.0424 26.5466 19.1316 26.5466 15.9273C26.5466 12.7231 28.7992 10.8475 31.6074 10.8475C34.4156 10.8475 35.9392 12.5584 36.4291 14.5751H38.837V17.9734H38.8429ZM12.8642 20.6661C6.87135 20.6661 4.54712 16.5388 4.51127 12.5819C4.47542 8.58982 7.00877 4.29785 12.8642 4.29785C14.9793 4.29785 17.1242 5.01514 18.7195 6.54967L21.7667 3.65112C19.2692 1.2288 16.1503 0 12.8582 0C4.09303 0 -0.0356179 6.34389 0.000231414 12.5819C0.0360807 18.7906 3.84806 24.8934 12.8582 24.8934C16.3595 24.8934 19.5799 23.7705 22.0774 21.3481L18.9585 18.2438C17.3632 19.8136 14.9733 20.6661 12.8582 20.6661H12.8642ZM100.229 7.16113C98.287 7.16113 95.9987 7.97836 94.6842 9.8539L94.4093 7.53741H90.4599V31.3725H94.6902V22.3712C95.9031 24.2114 98.5738 24.7582 100.372 24.7582C105.845 24.7582 109 20.8719 109 15.9626C109 11.0533 105.499 7.167 100.235 7.167L100.229 7.16113ZM105.678 16.7446L103.521 20.4133C103.33 20.7367 102.864 21.0013 102.487 21.0013H98.1795C97.7971 21.0013 97.3311 20.7367 97.1458 20.4133L94.9889 16.7446C94.7977 16.4212 94.7977 15.8921 94.9889 15.5687L97.1458 11.8999C97.337 11.5766 97.8031 11.312 98.1795 11.312H102.487C102.87 11.312 103.336 11.5766 103.521 11.8999L105.678 15.5687C105.869 15.8921 105.869 16.4212 105.678 16.7446ZM83.8398 14.187C83.8398 18.2791 81.6888 20.7661 77.9127 20.7661C74.1366 20.7661 71.6391 18.479 71.6391 14.187V0.511509H67.0982V14.187C67.0982 21.3834 72.0513 24.8582 77.8768 24.8582C83.7024 24.8582 88.3747 21.2423 88.3747 14.187V0.511509H83.8338V14.187H83.8398ZM47.9666 9.47761L47.6559 7.53153H43.7423V24.3408H47.9726V15.4746C47.9726 12.3703 50.016 11.212 52.2327 11.212C53.6188 11.212 54.4135 11.5883 55.2798 12.3056L57.1858 8.68977C56.2478 7.76671 54.5509 7.08469 52.7823 7.08469C51.0138 7.08469 49.2811 7.39042 47.9666 9.47173V9.47761Z" fill="#0D1330"/>
</svg>
