<svg width="50" height="50" viewBox="0 0 50 50" fill="none" xmlns="http://www.w3.org/2000/svg">
<path d="M27.3109 13.0534C27.3109 12.4009 27.0489 11.7752 26.5824 11.3138C26.1159 10.8525 25.4832 10.5933 24.8234 10.5933C24.1637 10.5933 23.531 10.8525 23.0645 11.3138C22.598 11.7752 22.3359 12.4009 22.3359 13.0534V13.8054H27.3109V13.0534Z" fill="#A3ACB5"/>
<path d="M8.23945 31.915C7.57995 31.9158 6.94766 32.1752 6.48132 32.6364C6.01498 33.0976 5.75267 33.7229 5.75195 34.3752V35.1264H10.7269V34.3752C10.7262 33.7229 10.4639 33.0976 9.99758 32.6364C9.53124 32.1752 8.89895 31.9158 8.23945 31.915Z" fill="#A3ACB5"/>
<path d="M8.2403 30.2749C8.69823 30.2749 9.06946 29.9077 9.06946 29.4548C9.06946 29.0019 8.69823 28.6348 8.2403 28.6348C7.78236 28.6348 7.41113 29.0019 7.41113 29.4548C7.41113 29.9077 7.78236 30.2749 8.2403 30.2749Z" fill="#A3ACB5"/>
<path d="M41.4063 30.2573C41.8642 30.2573 42.2355 29.8901 42.2355 29.4372C42.2355 28.9843 41.8642 28.6172 41.4063 28.6172C40.9484 28.6172 40.5771 28.9843 40.5771 29.4372C40.5771 29.8901 40.9484 30.2573 41.4063 30.2573Z" fill="#A3ACB5"/>
<path d="M24.8233 8.9531C25.2812 8.9531 25.6525 8.58595 25.6525 8.13304C25.6525 7.68014 25.2812 7.31299 24.8233 7.31299C24.3654 7.31299 23.9941 7.68014 23.9941 8.13304C23.9941 8.58595 24.3654 8.9531 24.8233 8.9531Z" fill="#A3ACB5"/>
<path d="M48.9208 23.6801H44.3295C43.7123 20.8199 42.4586 18.1316 40.6595 15.8105C38.8605 13.4894 36.5612 11.5939 33.9287 10.2615C33.853 7.91812 32.8568 5.69617 31.1514 4.06748C29.4461 2.43879 27.1661 1.53162 24.7954 1.53861C22.4248 1.5456 20.1502 2.4662 18.4547 4.10492C16.7593 5.74364 15.7764 7.97142 15.7148 10.3152C13.1092 11.6551 10.8352 13.548 9.05545 15.8585C7.27573 18.1689 6.03431 20.8398 5.41999 23.6801H0.829166C0.72027 23.6801 0.612436 23.7012 0.511824 23.7425C0.411213 23.7837 0.319795 23.8441 0.242794 23.9202C0.165793 23.9964 0.104718 24.0868 0.063059 24.1863C0.0213996 24.2858 -2.81843e-05 24.3924 1.39641e-07 24.5001V39.2611C-6.30805e-05 39.3688 0.0213408 39.4755 0.0629878 39.575C0.104635 39.6745 0.165708 39.765 0.242716 39.8411C0.319724 39.9173 0.411156 39.9777 0.511783 40.0189C0.612411 40.0601 0.72026 40.0812 0.829166 40.0812H9.35362C11.2154 42.384 13.5771 44.2431 16.2639 45.5207C18.9507 46.7983 21.8938 47.4617 24.875 47.4617C27.8562 47.4617 30.7992 46.7983 33.4861 45.5207C36.1729 44.2431 38.5346 42.384 40.3964 40.0812H48.9208C49.0297 40.0812 49.1375 40.0601 49.2382 40.0189C49.3388 39.9777 49.4302 39.9173 49.5072 39.8411C49.5842 39.765 49.6453 39.6745 49.687 39.575C49.7286 39.4755 49.75 39.3688 49.7499 39.2611V24.5001C49.75 24.3924 49.7285 24.2858 49.6869 24.1863C49.6452 24.0868 49.5841 23.9964 49.5071 23.9202C49.4301 23.8441 49.3387 23.7837 49.2381 23.7425C49.1375 23.7012 49.0297 23.6801 48.9208 23.6801ZM20.6773 13.0534C20.6798 12.3338 20.8743 11.6277 21.2412 11.0063C21.6081 10.3849 22.1344 9.87035 22.7668 9.51463C22.5123 9.14486 22.3646 8.71347 22.3395 8.26685C22.3144 7.82024 22.4129 7.37532 22.6243 6.97993C22.8358 6.58454 23.1523 6.25366 23.5397 6.02288C23.9272 5.7921 24.3709 5.67015 24.8231 5.67015C25.2754 5.67015 25.7191 5.7921 26.1065 6.02288C26.494 6.25366 26.8104 6.58454 27.0219 6.97993C27.2334 7.37532 27.3319 7.82024 27.3068 8.26685C27.2817 8.71347 27.134 9.14486 26.8795 9.51463C27.5119 9.87035 28.0382 10.3849 28.4051 11.0063C28.772 11.6277 28.9665 12.3338 28.969 13.0534V14.6255C28.969 14.7332 28.9476 14.8398 28.9059 14.9393C28.8643 15.0388 28.8032 15.1292 28.7262 15.2054C28.6492 15.2815 28.5578 15.3419 28.4571 15.3831C28.3565 15.4243 28.2487 15.4455 28.1398 15.4455H21.5065C21.3976 15.4455 21.2897 15.4243 21.1891 15.3831C21.0885 15.3419 20.9971 15.2815 20.9201 15.2054C20.8431 15.1292 20.782 15.0388 20.7404 14.9393C20.6987 14.8398 20.6773 14.7332 20.6773 14.6255V13.0534ZM4.92316 36.7665C4.81426 36.7666 4.70641 36.7454 4.60578 36.7042C4.50515 36.663 4.41372 36.6026 4.33672 36.5265C4.25971 36.4503 4.19863 36.3599 4.15699 36.2603C4.11534 36.1608 4.09394 36.0542 4.094 35.9465V34.3752C4.09647 33.6557 4.29098 32.9495 4.65788 32.3281C5.02478 31.7067 5.55105 31.1922 6.1835 30.8364C5.92901 30.4667 5.78126 30.0353 5.75616 29.5887C5.73106 29.1421 5.82955 28.6971 6.04103 28.3017C6.25252 27.9064 6.56899 27.5755 6.95642 27.3447C7.34384 27.1139 7.78756 26.992 8.23983 26.992C8.6921 26.992 9.13581 27.1139 9.52323 27.3447C9.91066 27.5755 10.2271 27.9064 10.4386 28.3017C10.6501 28.6971 10.7486 29.1421 10.7235 29.5887C10.6984 30.0353 10.5506 30.4667 10.2962 30.8364C10.9286 31.1922 11.4549 31.7067 11.8218 32.3281C12.1887 32.9495 12.3832 33.6557 12.3857 34.3752V35.9465C12.3857 36.0542 12.3643 36.1608 12.3227 36.2603C12.281 36.3599 12.2199 36.4503 12.1429 36.5265C12.0659 36.6026 11.9745 36.663 11.8739 36.7042C11.7732 36.7454 11.6654 36.7666 11.5565 36.7665H4.92316ZM24.875 45.8215C22.3717 45.8298 19.8939 45.3239 17.5986 44.3357C15.3034 43.3476 13.2406 41.8988 11.5409 40.0812H15.7541C15.8631 40.0812 15.9709 40.0601 16.0715 40.0189C16.1722 39.9777 16.2636 39.9173 16.3406 39.8411C16.4176 39.765 16.4787 39.6745 16.5203 39.575C16.562 39.4755 16.5834 39.3688 16.5833 39.2611V24.5001C16.5833 24.3924 16.5619 24.2858 16.5203 24.1863C16.4786 24.0868 16.4175 23.9964 16.3405 23.9202C16.2635 23.8441 16.1721 23.7837 16.0715 23.7425C15.9709 23.7012 15.863 23.6801 15.7541 23.6801H7.11269C7.68581 21.2607 8.75717 18.9841 10.2599 16.9926C11.7625 15.001 13.6643 13.3373 15.8463 12.1053C16.2129 14.2023 17.3181 16.1032 18.9662 17.4713C20.6143 18.8394 22.6989 19.5864 24.8506 19.5799C27.0023 19.5734 29.0822 18.8138 30.7218 17.4358C32.3614 16.0577 33.4549 14.1501 33.8085 12.051C36.0148 13.2782 37.939 14.9458 39.4589 16.9477C40.9788 18.9497 42.0613 21.2423 42.6375 23.6801H33.9958C33.8869 23.6801 33.7791 23.7012 33.6785 23.7425C33.5778 23.7837 33.4864 23.8441 33.4094 23.9202C33.3324 23.9964 33.2713 24.0868 33.2297 24.1863C33.188 24.2858 33.1666 24.3924 33.1666 24.5001V39.2611C33.1666 39.3688 33.188 39.4755 33.2296 39.575C33.2713 39.6745 33.3323 39.765 33.4093 39.8411C33.4864 39.9173 33.5778 39.9777 33.6784 40.0189C33.779 40.0601 33.8869 40.0812 33.9958 40.0812H38.2099C36.5099 41.8986 34.4469 43.3472 32.1515 44.3353C29.8561 45.3234 27.3783 45.8295 24.875 45.8215ZM45.5523 35.9296C45.5523 36.0373 45.5309 36.144 45.4893 36.2435C45.4476 36.3431 45.3866 36.4335 45.3096 36.5096C45.2326 36.5858 45.1411 36.6462 45.0405 36.6874C44.9399 36.7286 44.832 36.7498 44.7231 36.7497H38.0898C37.9809 36.7498 37.873 36.7286 37.7724 36.6874C37.6718 36.6462 37.5804 36.5858 37.5033 36.5096C37.4263 36.4335 37.3653 36.3431 37.3236 36.2435C37.282 36.144 37.2606 36.0373 37.2606 35.9296V34.3576C37.2631 33.638 37.4576 32.9319 37.8245 32.3105C38.1914 31.6891 38.7177 31.1745 39.3501 30.8188C39.0956 30.449 38.9479 30.0176 38.9228 29.571C38.8977 29.1244 38.9962 28.6795 39.2077 28.2841C39.4191 27.8887 39.7356 27.5578 40.123 27.3271C40.5105 27.0963 40.9542 26.9743 41.4065 26.9743C41.8587 26.9743 42.3024 27.0963 42.6899 27.3271C43.0773 27.5578 43.3938 27.8887 43.6052 28.2841C43.8167 28.6795 43.9152 29.1244 43.8901 29.571C43.865 30.0176 43.7173 30.449 43.4628 30.8188C44.0952 31.1745 44.6215 31.6891 44.9884 32.3105C45.3553 32.9319 45.5498 33.638 45.5523 34.3576V35.9296Z" fill="#A3ACB5"/>
<path d="M41.4064 31.8975C40.7469 31.8982 40.1147 32.1576 39.6483 32.6188C39.182 33.08 38.9197 33.7054 38.9189 34.3576V35.1096H43.8939V34.3576C43.8932 33.7054 43.6309 33.08 43.1646 32.6188C42.6982 32.1576 42.0659 31.8982 41.4064 31.8975Z" fill="#A3ACB5"/>
<path d="M27.5511 22.4719C27.4876 22.43 27.4138 22.406 27.3376 22.4023C27.2613 22.3987 27.1856 22.4156 27.1183 22.4512C27.051 22.4868 26.9948 22.5398 26.9555 22.6046C26.9163 22.6693 26.8956 22.7434 26.8956 22.8188V24.4999H19.0704C18.8505 24.4999 18.6396 24.5863 18.4841 24.7401C18.3286 24.8938 18.2412 25.1024 18.2412 25.3199C18.2412 25.5374 18.3286 25.746 18.4841 25.8998C18.6396 26.0536 18.8505 26.14 19.0704 26.14H26.8956V27.821C26.8956 27.8965 26.9163 27.9705 26.9555 28.0353C26.9948 28.1 27.051 28.153 27.1183 28.1886C27.1856 28.2242 27.2614 28.2411 27.3376 28.2375C27.4138 28.2338 27.4876 28.2098 27.5511 28.1679L31.3444 25.6668C31.4022 25.6287 31.4495 25.5771 31.4823 25.5166C31.515 25.4561 31.5322 25.3885 31.5322 25.3199C31.5322 25.2512 31.515 25.1836 31.4823 25.1231C31.4495 25.0626 31.4022 25.011 31.3444 24.9729L27.5511 22.4719Z" fill="#A3ACB5"/>
<path d="M30.6796 30.2406H22.8543V28.5596C22.8543 28.4841 22.8336 28.41 22.7944 28.3453C22.7552 28.2805 22.6989 28.2275 22.6316 28.1919C22.5644 28.1563 22.4886 28.1394 22.4123 28.1431C22.3361 28.1467 22.2623 28.1707 22.1988 28.2126L18.4055 30.7137C18.3478 30.7518 18.3004 30.8034 18.2677 30.8639C18.2349 30.9244 18.2178 30.992 18.2178 31.0606C18.2178 31.1293 18.2349 31.1969 18.2677 31.2574C18.3004 31.3179 18.3478 31.3695 18.4055 31.4076L22.1989 33.9087C22.2624 33.9506 22.3362 33.9746 22.4124 33.9783C22.4886 33.9819 22.5644 33.965 22.6317 33.9294C22.699 33.8938 22.7552 33.8408 22.7944 33.776C22.8336 33.7113 22.8543 33.6372 22.8543 33.5618V31.8807H30.6796C30.8995 31.8807 31.1104 31.7943 31.2659 31.6405C31.4214 31.4867 31.5087 31.2782 31.5087 31.0607C31.5087 30.8432 31.4214 30.6346 31.2659 30.4808C31.1104 30.327 30.8995 30.2406 30.6796 30.2406Z" fill="#A3ACB5"/>
</svg>
