<svg width="50" height="50" viewBox="0 0 50 50" fill="none" xmlns="http://www.w3.org/2000/svg">
<path d="M48.3333 23.3333H48.2488C47.8942 18.3119 45.9164 13.542 42.6137 9.743L43.4863 8.8705C43.6443 8.71647 43.7701 8.5326 43.8565 8.32956C43.9429 8.12652 43.9881 7.90835 43.9895 7.68771C43.9909 7.46707 43.9485 7.24834 43.8647 7.04422C43.7809 6.84011 43.6574 6.65466 43.5014 6.49864C43.3453 6.34262 43.1599 6.21913 42.9558 6.13534C42.7517 6.05154 42.5329 6.00912 42.3123 6.01052C42.0916 6.01191 41.8735 6.05711 41.6704 6.14348C41.4674 6.22985 41.2835 6.35568 41.1295 6.51367L40.257 7.38633C36.458 4.08358 31.6881 2.10575 26.6667 1.75117V1.66667C26.6667 1.22464 26.4911 0.800716 26.1785 0.488155C25.866 0.175595 25.442 0 25 0C24.558 0 24.134 0.175595 23.8215 0.488155C23.5089 0.800716 23.3333 1.22464 23.3333 1.66667V1.75117C18.3119 2.10575 13.542 4.08358 9.743 7.38633L8.8705 6.51367C8.71647 6.35568 8.5326 6.22985 8.32956 6.14348C8.12652 6.05711 7.90835 6.01191 7.68771 6.01052C7.46707 6.00912 7.24834 6.05154 7.04422 6.13534C6.84011 6.21913 6.65466 6.34262 6.49864 6.49864C6.34262 6.65466 6.21913 6.84011 6.13534 7.04422C6.05154 7.24834 6.00912 7.46707 6.01052 7.68771C6.01191 7.90835 6.05711 8.12652 6.14348 8.32956C6.22985 8.5326 6.35568 8.71647 6.51367 8.8705L7.38633 9.743C4.08358 13.542 2.10575 18.3119 1.75117 23.3333H1.66667C1.22464 23.3333 0.800716 23.5089 0.488155 23.8215C0.175595 24.134 0 24.558 0 25C0 25.442 0.175595 25.866 0.488155 26.1785C0.800716 26.4911 1.22464 26.6667 1.66667 26.6667H1.75117C2.10575 31.6881 4.08358 36.458 7.38633 40.257L6.51367 41.1295C6.35568 41.2835 6.22985 41.4674 6.14348 41.6704C6.05711 41.8735 6.01191 42.0916 6.01052 42.3123C6.00912 42.5329 6.05154 42.7517 6.13534 42.9558C6.21913 43.1599 6.34262 43.3453 6.49864 43.5014C6.65466 43.6574 6.84011 43.7809 7.04422 43.8647C7.24834 43.9485 7.46707 43.9909 7.68771 43.9895C7.90835 43.9881 8.12652 43.9429 8.32956 43.8565C8.5326 43.7701 8.71647 43.6443 8.8705 43.4863L9.743 42.6137C13.542 45.9164 18.3119 47.8942 23.3333 48.2488V48.3333C23.3333 48.7754 23.5089 49.1993 23.8215 49.5118C24.134 49.8244 24.558 50 25 50C25.442 50 25.866 49.8244 26.1785 49.5118C26.4911 49.1993 26.6667 48.7754 26.6667 48.3333V48.2488C31.6881 47.8942 36.458 45.9164 40.257 42.6137L41.1295 43.4863C41.4434 43.7924 41.8652 43.9624 42.3035 43.9596C42.7419 43.9568 43.1615 43.7815 43.4715 43.4715C43.7815 43.1615 43.9568 42.7419 43.9596 42.3035C43.9624 41.8652 43.7924 41.4434 43.4863 41.1295L42.6137 40.257C45.9164 36.458 47.8942 31.6881 48.2488 26.6667H48.3333C48.7754 26.6667 49.1993 26.4911 49.5118 26.1785C49.8244 25.866 50 25.442 50 25C50 24.558 49.8244 24.134 49.5118 23.8215C49.1993 23.5089 48.7754 23.3333 48.3333 23.3333ZM44.9167 26.65C44.5778 30.7951 42.9487 34.7299 40.2582 37.9013L39.512 37.1552C39.1977 36.8516 38.7767 36.6836 38.3397 36.6874C37.9027 36.6912 37.4846 36.8665 37.1756 37.1755C36.8666 37.4845 36.6913 37.9025 36.6875 38.3395C36.6837 38.7765 36.8517 39.1975 37.1553 39.5118L37.9013 40.258C34.73 42.9487 30.7952 44.5779 26.65 44.9167C26.6339 44.4898 26.4531 44.0858 26.1454 43.7894C25.8377 43.4931 25.4272 43.3276 25 43.3276C24.5728 43.3276 24.1623 43.4931 23.8546 43.7894C23.5469 44.0858 23.3661 44.4898 23.35 44.9167C19.2049 44.5779 15.2702 42.9487 12.0988 40.2582L12.8448 39.512C13.1484 39.1977 13.3164 38.7767 13.3126 38.3397C13.3088 37.9027 13.1335 37.4846 12.8245 37.1756C12.5155 36.8666 12.0975 36.6913 11.6605 36.6875C11.2235 36.6837 10.8025 36.8517 10.4882 37.1553L9.742 37.9015C7.0514 34.73 5.42219 30.7952 5.08333 26.65C5.5102 26.6339 5.91424 26.4531 6.21056 26.1454C6.50689 25.8377 6.67244 25.4272 6.67244 25C6.67244 24.5728 6.50689 24.1623 6.21056 23.8546C5.91424 23.5469 5.5102 23.3661 5.08333 23.35C5.42243 19.2052 7.05176 15.2709 9.74233 12.1L10.4883 12.8458C10.801 13.1583 11.2249 13.3339 11.667 13.3338C12.109 13.3337 12.5329 13.158 12.8454 12.8454C13.1579 12.5328 13.3335 12.1088 13.3334 11.6668C13.3333 11.2247 13.1576 10.8008 12.845 10.4883L12.1 9.74233C15.2709 7.05176 19.2052 5.42243 23.35 5.08333C23.3661 5.5102 23.5469 5.91424 23.8546 6.21056C24.1623 6.50689 24.5728 6.67244 25 6.67244C25.4272 6.67244 25.8377 6.50689 26.1454 6.21056C26.4531 5.91424 26.6339 5.5102 26.65 5.08333C30.7951 5.42213 34.7298 7.05135 37.901 9.742L37.1552 10.488C36.996 10.6417 36.869 10.8257 36.7817 11.029C36.6943 11.2323 36.6483 11.451 36.6464 11.6723C36.6445 11.8936 36.6867 12.1131 36.7705 12.3179C36.8543 12.5227 36.978 12.7088 37.1345 12.8653C37.291 13.0218 37.4771 13.1456 37.6819 13.2294C37.8867 13.3132 38.1062 13.3553 38.3275 13.3534C38.5488 13.3515 38.7675 13.3055 38.9708 13.2182C39.1742 13.1308 39.3581 13.0039 39.5118 12.8447L40.2578 12.0988C42.9486 15.2701 44.5779 19.2049 44.9167 23.35C44.4898 23.3661 44.0858 23.5469 43.7894 23.8546C43.4931 24.1623 43.3276 24.5728 43.3276 25C43.3276 25.4272 43.4931 25.8377 43.7894 26.1454C44.0858 26.4531 44.4898 26.6339 44.9167 26.65Z" fill="#A3ACB5"/>
<path d="M36.667 16.6665H28.3337C27.0995 16.6702 25.9111 17.1337 25.0003 17.9665C24.0896 17.1337 22.9011 16.6702 21.667 16.6665H13.3337C12.8916 16.6665 12.4677 16.8421 12.1551 17.1547C11.8426 17.4672 11.667 17.8911 11.667 18.3332V31.6665C11.667 32.1085 11.8426 32.5325 12.1551 32.845C12.4677 33.1576 12.8916 33.3332 13.3337 33.3332H21.9527C22.1717 33.3328 22.3887 33.3757 22.591 33.4595C22.7934 33.5433 22.9772 33.6664 23.1318 33.8215L23.822 34.5115C23.8368 34.5265 23.8577 34.5313 23.873 34.5448C24.015 34.6826 24.1808 34.7935 24.3623 34.8722H24.3653C24.5666 34.9556 24.7824 34.9985 25.0003 34.9985C25.2182 34.9985 25.434 34.9556 25.6353 34.8722H25.6383C25.8199 34.7935 25.9856 34.6826 26.1277 34.5448C26.143 34.5307 26.1638 34.5258 26.1787 34.5115L26.8688 33.8215C27.0234 33.6664 27.2072 33.5433 27.4096 33.4595C27.612 33.3757 27.8289 33.3328 28.048 33.3332H36.667C37.109 33.3332 37.5329 33.1576 37.8455 32.845C38.1581 32.5325 38.3337 32.1085 38.3337 31.6665V18.3332C38.3337 17.8911 38.1581 17.4672 37.8455 17.1547C37.5329 16.8421 37.109 16.6665 36.667 16.6665ZM23.3337 26.6665H21.667C21.225 26.6665 20.801 26.4909 20.4885 26.1783C20.1759 25.8658 20.0003 25.4419 20.0003 24.9998C20.0003 24.5578 20.1759 24.1339 20.4885 23.8213C20.801 23.5088 21.225 23.3332 21.667 23.3332H23.3337V26.6665ZM28.3337 26.6665H26.667V23.3332H28.3337C28.7757 23.3332 29.1996 23.5088 29.5122 23.8213C29.8247 24.1339 30.0003 24.5578 30.0003 24.9998C30.0003 25.4419 29.8247 25.8658 29.5122 26.1783C29.1996 26.4909 28.7757 26.6665 28.3337 26.6665Z" fill="#A3ACB5"/>
</svg>
