<svg width="41" height="41" viewBox="0 0 41 41" fill="none" xmlns="http://www.w3.org/2000/svg">
<path d="M0 20.5C0 9.17816 9.17816 0 20.5 0C31.8218 0 41 9.17816 41 20.5C41 31.8218 31.8218 41 20.5 41C9.17816 41 0 31.8218 0 20.5Z" fill="#283A8F"/>
<path d="M12.6084 19.4994H25.9959L21.1396 14.6432C20.7459 14.2494 20.7459 13.6588 21.1396 13.265C21.5334 12.8713 22.124 12.8713 22.5178 13.265L29.0803 19.8275C29.474 20.2213 29.474 20.8119 29.0803 21.2057L22.5178 27.7682C22.3209 27.9651 22.0584 28.0307 21.7959 28.0307C21.5334 28.0307 21.2709 27.9651 21.074 27.7682C20.6803 27.3745 20.6803 26.7839 21.074 26.3901L25.9303 21.5338H12.6084C12.0834 21.5338 11.624 21.0744 11.624 20.5494C11.624 20.0244 12.0834 19.4994 12.6084 19.4994Z" fill="#F5FAFE"/>
</svg>
