<svg width="41" height="41" viewBox="0 0 41 41" fill="none" xmlns="http://www.w3.org/2000/svg">
<g clip-path="url(#clip0_1833_18478)">
<path d="M0 20.5C0 9.17816 9.17816 0 20.5 0C31.8218 0 41 9.17816 41 20.5C41 31.8218 31.8218 41 20.5 41C9.17816 41 0 31.8218 0 20.5Z" fill="#F5FAFE"/>
<circle opacity="0.1" cx="20.5" cy="20.5" r="33.5" transform="rotate(180 20.5 20.5)" fill="white"/>
<path d="M28.3906 21.5011H15.0031L19.8594 26.3573C20.2531 26.7511 20.2531 27.3417 19.8594 27.7354C19.4656 28.1292 18.875 28.1292 18.4813 27.7354L11.9188 21.1729C11.525 20.7792 11.525 20.1886 11.9188 19.7948L18.4813 13.2323C18.6781 13.0354 18.9406 12.9698 19.2031 12.9698C19.4656 12.9698 19.7281 13.0354 19.925 13.2323C20.3188 13.626 20.3188 14.2166 19.925 14.6104L15.0688 19.4667H28.3906C28.9156 19.4667 29.375 19.9261 29.375 20.4511C29.375 20.9761 28.9156 21.5011 28.3906 21.5011Z" fill="#C3C9D0"/>
</g>
<path d="M20.5 0.5C31.5457 0.5 40.5 9.4543 40.5 20.5C40.5 31.5457 31.5457 40.5 20.5 40.5C9.4543 40.5 0.5 31.5457 0.5 20.5C0.5 9.4543 9.4543 0.5 20.5 0.5Z" stroke="#F0F3FF"/>
<defs>
<clipPath id="clip0_1833_18478">
<path d="M0 20.5C0 9.17816 9.17816 0 20.5 0C31.8218 0 41 9.17816 41 20.5C41 31.8218 31.8218 41 20.5 41C9.17816 41 0 31.8218 0 20.5Z" fill="white"/>
</clipPath>
</defs>
</svg>
