<svg width="41" height="41" viewBox="0 0 41 41" fill="none" xmlns="http://www.w3.org/2000/svg">
<g clip-path="url(#clip0_10325_8296)">
<path d="M0 20.5C0 9.17816 9.17816 0 20.5 0C31.8218 0 41 9.17816 41 20.5C41 31.8218 31.8218 41 20.5 41C9.17816 41 0 31.8218 0 20.5Z" fill="#2A2D30"/>
<circle opacity="0.1" cx="20.5" cy="20.5" r="33.5" transform="rotate(180 20.5 20.5)" fill="#45484B"/>
<path d="M28.3916 21.5006H15.0041L19.8604 26.3568C20.2541 26.7506 20.2541 27.3412 19.8604 27.735C19.4666 28.1287 18.876 28.1287 18.4822 27.735L11.9197 21.1725C11.526 20.7787 11.526 20.1881 11.9197 19.7943L18.4822 13.2318C18.6791 13.0349 18.9416 12.9693 19.2041 12.9693C19.4666 12.9693 19.7291 13.0349 19.926 13.2318C20.3197 13.6255 20.3197 14.2161 19.926 14.6099L15.0697 19.4662H28.3916C28.9166 19.4662 29.376 19.9256 29.376 20.4506C29.376 20.9756 28.9166 21.5006 28.3916 21.5006Z" fill="#A3ACB5"/>
</g>
<defs>
<clipPath id="clip0_10325_8296">
<path d="M0 20.5C0 9.17816 9.17816 0 20.5 0C31.8218 0 41 9.17816 41 20.5C41 31.8218 31.8218 41 20.5 41C9.17816 41 0 31.8218 0 20.5Z" fill="white"/>
</clipPath>
</defs>
</svg>
