<svg width="170" height="51" viewBox="0 0 170 51" fill="none" xmlns="http://www.w3.org/2000/svg">
<path d="M39.9145 21.1187C40.2851 25.3927 33.557 29.4716 24.8786 30.2132C16.2003 30.9548 8.88716 28.0859 8.51662 23.8119C8.14609 19.5379 14.8742 15.459 23.5525 14.7174C32.2113 13.9758 39.544 16.8251 39.9145 21.1187Z" fill="#BBE6FB"/>
<path d="M23.7899 15.2089C20.4746 15.1503 16.6133 16.4766 13.7271 17.7053C13.4346 18.5634 13.2591 19.4801 13.2591 20.4358C13.2591 25.5066 17.8419 29.6218 23.4973 29.6218C29.1527 29.6218 33.7551 25.5261 33.7551 20.4358C33.7551 18.8365 33.287 17.3152 32.4875 16.0085C30.1863 15.6574 27.0076 15.2674 23.7899 15.2089Z" fill="white"/>
<path d="M23.5123 15.2167C21.6724 15.0999 18.5015 16.0538 15.8591 17.0078C15.4481 17.9422 15.2328 18.974 15.2328 20.0642C15.2328 24.5029 19.2845 28.1045 23.5515 28.1045C27.7989 28.1045 31.557 24.5029 31.8701 20.0642C31.968 18.6236 31.4787 17.2609 30.774 16.0928C28.0533 15.6255 25.1565 15.3335 23.5123 15.2167Z" fill="white"/>
<path d="M18.805 19.4984C19.039 18.9918 19.3705 18.758 19.7019 18.3488C19.6629 18.2514 19.5849 17.9202 19.5849 17.8227C19.5849 17.3161 19.9944 16.9265 20.4819 16.9265C20.5989 16.9265 20.7159 16.9459 20.8134 16.9849C22.3149 15.8353 24.2843 15.3482 26.2732 15.7964C26.4487 15.8353 26.6242 15.8938 26.7997 15.9328C24.8498 15.66 22.6268 16.3614 21.1254 17.5694C21.1644 17.6863 21.3009 17.9786 21.3009 18.115C21.3009 18.6216 20.9694 18.7385 20.4819 18.7385C20.3649 18.7385 20.2674 18.719 20.1504 18.68C19.8189 19.1282 19.3899 20.005 19.195 20.5505C20.0334 21.2909 20.7744 21.5637 21.7494 21.9339C21.7494 21.8949 21.7884 21.8365 21.7884 21.7975C21.7884 20.2972 23.1143 19.0697 24.6158 19.0697C25.9612 19.0697 27.0922 20.0439 27.3067 21.3299C27.9892 20.9012 28.6326 20.57 29.1201 19.9465C29.0031 19.8101 28.8861 19.401 28.8861 19.2061C28.8861 18.758 29.2566 18.3878 29.7051 18.3878C29.7636 18.3878 29.8221 18.3878 29.9001 18.4073C30.1536 17.8812 30.3486 17.3356 30.4656 16.7706C28.1062 15.017 23.5433 15.2703 23.5433 15.2703C23.5433 15.2703 19.9164 15.0754 17.4595 16.2835C17.635 17.4136 18.103 18.5436 18.805 19.4984Z" fill="#373535"/>
<path d="M30.0772 18.8154C30.2527 18.9715 30.3307 19.0885 30.4087 19.2251C30.6232 19.6153 30.1942 19.9859 29.7263 19.9859C29.6873 19.9859 29.6288 19.9859 29.5898 19.9664C29.0829 20.7663 28.186 21.7807 27.3866 22.3075C28.6149 22.5026 29.7653 22.9903 30.6621 23.7511C31.3251 22.5611 31.832 20.8248 31.832 19.3616C31.832 18.2496 31.3446 17.4303 30.6037 16.8255C30.5842 17.4303 30.2527 18.2691 30.0772 18.8154ZM20.1726 26.3848C20.5821 25.2533 21.5764 24.3949 22.5318 23.6341C22.3953 23.439 22.1808 22.9708 22.1029 22.7562C20.9525 22.405 19.9387 21.7417 19.1393 20.8833C19.1393 20.9028 19.1198 20.9419 19.1198 20.9614C18.9638 21.6247 18.9443 22.3075 19.0223 22.9513C19.5682 23.0488 19.9972 23.5365 19.9972 24.1218C19.9972 24.4729 19.6852 24.9607 19.4512 25.1948C19.6852 25.702 19.8607 25.9751 20.1726 26.3848Z" fill="#373535"/>
<path d="M20.0772 27.3029C19.5888 26.8164 19.2568 25.8628 18.9442 25.2596C18.8856 25.2596 18.827 25.279 18.7684 25.279C18.1043 25.279 17.4206 24.7342 17.5768 24.092C17.655 23.7417 17.9089 23.5082 18.2996 23.3136C18.2019 22.5741 18.1824 21.5427 18.3582 20.7838C18.3973 20.5698 18.5145 20.4725 18.5731 20.2584C17.8503 19.2076 17.3815 17.8065 17.3815 16.4248V16.2691C16.1509 16.8918 15.2328 17.8454 15.2328 19.3632C15.2328 22.7298 17.1862 26.038 20.0772 27.3223V27.3029ZM27.207 22.652C26.8358 23.7028 25.8201 24.4812 24.6285 24.4812C23.9839 24.4812 23.3979 24.2671 22.9486 23.8974C21.9915 24.6369 21.1125 25.9407 20.6827 27.0888C20.8781 27.3029 21.0148 27.478 21.2492 27.6726C21.9133 27.8477 22.851 27.6726 23.5737 27.6726C26.4842 27.6726 29.0822 26.3882 30.5668 24.1114C29.551 23.4109 28.379 22.7493 27.207 22.652Z" fill="#373535"/>
<path d="M18.7204 19.8603C18.9554 19.3537 19.2294 18.9056 19.5622 18.4769C19.523 18.3795 19.5035 18.2626 19.5035 18.1652C19.5035 17.6586 19.9145 17.2689 20.4039 17.2689C20.5214 17.2689 20.6388 17.2884 20.7367 17.3273C22.244 16.1778 24.2211 15.6907 26.2178 16.1388C26.3939 16.1778 26.5701 16.2362 26.7463 16.2752C24.7888 16.0024 22.7529 16.6064 21.2457 17.8145C21.2848 17.9314 21.324 18.0483 21.324 18.1652C21.324 18.6718 20.9129 19.0614 20.4235 19.0614C20.306 19.0614 20.2082 19.042 20.0907 19.003C19.7579 19.4511 19.4643 19.9577 19.2686 20.5033C19.9928 21.2632 20.8737 21.8867 21.8525 22.2374V22.101C21.8525 20.6007 23.0857 19.3732 24.593 19.3732C25.9437 19.3732 27.0791 20.3474 27.2944 21.6334C27.9795 21.2047 28.5668 20.6592 29.0757 20.0162C28.9583 19.8798 28.88 19.7044 28.88 19.5096C28.88 19.0614 29.2519 18.6912 29.7022 18.6912C29.7609 18.6912 29.8196 18.6912 29.8979 18.7107C30.1524 18.1847 30.3481 17.6391 30.4656 17.074C28.097 15.3205 23.5164 15.5738 23.5164 15.5738C23.5164 15.5738 19.8754 15.3789 17.4089 16.5869C17.5459 17.7755 18.0157 18.9056 18.7204 19.8603Z" fill="#1287B1"/>
<path d="M30.1983 18.9636C30.3742 19.1194 30.4719 19.3337 30.4719 19.5674C30.4719 20.0154 30.1006 20.3855 29.651 20.3855C29.6119 20.3855 29.5533 20.3855 29.5142 20.366C29.0061 21.1646 28.322 21.8463 27.5207 22.3527C28.6934 22.528 29.8074 23.0344 30.726 23.794C31.3905 22.6059 31.7814 21.223 31.7814 19.7622C31.7814 18.652 31.2928 17.8339 30.5501 17.2301C30.511 17.8339 30.3937 18.4182 30.1983 18.9636ZM20.2697 26.6377C20.6802 25.508 21.3838 24.5147 22.3414 23.755C22.2046 23.5603 22.0874 23.3655 22.0092 23.1318C20.8561 22.7812 19.8398 22.1189 19.0384 21.2619C19.0384 21.2814 19.0189 21.3204 19.0189 21.3399C18.8625 22.0021 18.843 22.6838 18.9212 23.3265C19.4684 23.4239 19.8984 23.9109 19.8984 24.4952C19.8984 24.8458 19.742 25.1574 19.5075 25.3717C19.703 25.8197 19.9766 26.2482 20.2697 26.6377Z" fill="#1287B1"/>
<path d="M20.1073 27.2736C19.6187 26.786 19.2082 26.2398 18.8955 25.6351C18.8369 25.6351 18.7783 25.6546 18.7196 25.6546C18.0552 25.6546 17.5275 25.1279 17.5275 24.4647C17.5275 23.9966 17.8011 23.5869 18.192 23.3919C18.0942 22.6506 18.1333 21.9094 18.3092 21.1487C18.3483 20.9341 18.4265 20.7195 18.4851 20.5049C17.762 19.4516 17.332 18.1642 17.332 16.7792V16.6232C16.1008 17.2474 15.1822 18.2032 15.1822 19.7247C15.1822 23.0993 17.1952 26.0057 20.0877 27.2932C20.1073 27.2932 20.1073 27.2932 20.1073 27.2736ZM27.1627 23.0213C26.7913 24.0746 25.775 24.8549 24.5828 24.8549C23.9379 24.8549 23.3516 24.6403 22.9021 24.2697C21.9444 25.0109 21.2213 26.0252 20.7718 27.1761C20.9672 27.3907 21.1822 27.5857 21.3972 27.7808C22.0617 27.9564 22.7653 28.0539 23.4884 28.0539C26.4004 28.0539 28.9802 26.5519 30.4656 24.2697C29.4884 23.5674 28.3353 23.1188 27.1627 23.0213Z" fill="#1287B1"/>
<path d="M27.2388 22.3308L29.7571 21.7273L27.2193 21.591L29.2886 20.0336L26.946 20.8707L28.5272 18.6709L26.3213 20.131L27.0827 17.5613L25.5795 19.6832L25.5405 16.9967L24.5449 19.3912L23.725 16.9772L23.7641 19.8195L22.339 17.2692L23.1199 19.9752L20.7968 18.301L22.6123 20.5787L19.7231 19.5275L21.9876 21.2017L19.0789 21.299L22.0657 22.0583L19.0789 22.7007L22.0267 22.9148L19.5475 24.4917L22.1047 23.5767L20.3283 25.8155L22.5733 24.005L21.7729 27.003L23.5103 24.5501L23.276 27.4313L24.2521 24.8032L25.0915 27.5481L25.2867 24.7837L26.5361 27.1393L25.7943 24.4528L28.0587 26.2049L26.5946 23.9661L29.0934 24.9395L27.1803 23.0706L29.7376 23.2653L27.2388 22.3308Z" fill="white"/>
<path d="M0.354251 27.1435C8.17923 19.3343 14.4236 16.9194 20.1021 15.8289C20.8436 15.6925 20.9997 14.0372 20.9997 14.0372C20.9997 14.0372 21.0973 15.2446 21.6241 15.4004C22.151 15.5562 22.834 13.5114 22.834 13.5114C22.834 13.5114 22.2095 15.342 22.834 15.4588C23.4584 15.5562 24.6292 13.6672 24.6292 13.6672C24.6292 13.6672 24.1609 15.2836 24.4731 15.4004C24.7853 15.4978 26.366 13.044 26.366 13.044C26.366 13.044 25.4293 14.6604 26.3074 14.8357C27.205 14.9915 28.5125 13.7256 28.5125 13.7256C28.5125 13.7256 27.4977 14.8746 27.9466 15.0499C29.8979 15.7315 31.459 13.2193 31.459 13.2193C31.459 13.2193 31.0883 14.3293 30.1516 15.5367C32.2005 16.0626 33.7226 12.9856 33.7226 12.9856L32.2005 16.0626C32.9811 16.452 36.1228 12.8298 36.1228 12.8298C36.1228 12.8298 34.5032 15.6536 33.547 16.2378C34.0738 16.6663 35.9667 14.972 35.9667 14.972C35.9667 14.972 34.4446 16.861 35.03 16.9584C35.8691 17.64 38.9718 13.453 38.9718 13.453C38.9718 13.453 37.7619 15.9262 35.9862 17.8542C37.4692 18.6137 41.1768 13.8425 41.1768 13.8425C41.1768 13.8425 41.0793 15.3615 38.3864 17.7763C40.3768 17.5231 42.9526 13.7451 42.9526 13.7451C42.9526 13.7451 42.0159 16.5689 39.7523 18.5748C41.7037 18.38 44.8454 13.5504 44.8454 13.5504C44.8454 13.5504 43.6355 16.9 41.1768 18.8474C43.9087 19.4511 47.8505 15.3809 47.8505 15.3809C47.8505 15.3809 46.3089 18.2632 44.2795 19.4511C46.5431 20.308 49.6457 16.7442 49.6457 16.7442C49.6457 16.7442 46.5431 21.5154 41.6061 21.3012C39.9865 21.2233 35.0886 16.3936 24.5902 16.7831C10.6965 17.2894 7.76944 23.1707 0.354251 27.1435Z" fill="#373535" fill-opacity="0.35"/>
<path d="M0.657895 26.5871C8.4878 18.7566 14.7361 16.3352 20.4182 15.2416C21.1602 15.1049 21.3164 13.4451 21.3164 13.4451C21.3164 13.4451 21.414 14.6558 21.9412 14.812C22.4684 14.9682 23.1518 12.9178 23.1518 12.9178C23.1518 12.9178 22.527 14.7534 23.1518 14.8706C23.7766 14.9682 24.9482 13.0741 24.9482 13.0741C24.9482 13.0741 24.4796 14.6949 24.792 14.812C25.1044 14.9097 26.686 12.4492 26.686 12.4492C26.686 12.4492 25.7488 14.07 26.6274 14.2457C27.5256 14.4019 28.8339 13.1326 28.8339 13.1326C28.8339 13.1326 27.8185 14.2848 28.2676 14.4605C30.2202 15.144 31.7823 12.6249 31.7823 12.6249C31.7823 12.6249 31.4113 13.738 30.474 14.9487C32.5243 15.476 34.0473 12.3906 34.0473 12.3906L32.5243 15.476C33.3053 15.9056 36.4685 12.2734 36.4685 12.2734C36.4685 12.2734 34.8479 15.1049 33.8911 15.6908C34.4183 16.0618 36.3123 14.3824 36.3123 14.3824C36.3123 14.3824 34.7893 16.2766 35.3751 16.3742C36.2147 17.0577 39.3193 12.8593 39.3193 12.8593C39.3193 12.8593 38.0892 15.3393 36.3123 17.2725C37.7963 18.0145 41.5257 13.2303 41.5257 13.2303C41.5257 13.2303 41.4281 14.7534 38.7335 17.1749C40.7252 16.921 43.3026 13.1326 43.3026 13.1326C43.3026 13.1326 42.3653 15.9641 40.1003 17.9755C42.0529 17.7802 45.1966 12.9374 45.1966 12.9374C45.1966 12.9374 43.986 16.2961 41.5257 18.2489C44.2594 18.8542 48.2036 14.773 48.2036 14.773C48.2036 14.773 46.6611 17.663 44.6304 18.8542C46.8954 19.7134 50 16.1399 50 16.1399C50 16.1399 46.8954 20.9241 41.9553 20.7093C40.3346 20.6312 35.4336 15.7884 24.9287 16.1789C11.0262 16.7062 8.07776 22.584 0.657895 26.5871Z" fill="#373535"/>
<path d="M0.151822 28.0157C4.29044 30.0829 8.07767 27.7037 12.841 29.0493C16.472 30.0634 20.884 31.331 26.8771 30.4535C32.8703 29.5954 37.985 26.9821 40.4448 22.3406C41.2061 20.2734 44.3101 22.8087 44.3101 22.8087C44.3101 22.8087 42.0456 21.8726 42.1041 22.3016C42.1627 22.7502 45.5009 24.2908 45.5009 24.2908C45.5009 24.2908 42.475 23.3547 42.6703 24.0568C42.846 24.7589 46.4575 27.6062 46.4575 27.6062C46.4575 27.6062 42.3384 24.5249 42.0065 24.9539C41.6551 25.3829 43.744 27.0796 43.744 27.0796C43.744 27.0796 40.3081 24.9539 39.0978 25.578C38.2193 26.0265 42.6703 28.9323 42.6703 28.9323C42.6703 28.9323 39.781 26.7286 39.0978 27.3136C38.4145 27.8987 42.3579 32.6182 42.3579 32.6182C42.3579 32.6182 37.8679 27.7817 37.4189 28.0157C36.9699 28.2497 38.6488 30.5705 38.6488 30.5705C38.6488 30.5705 36.4623 28.1522 35.8572 28.5618C35.252 28.9908 39.0197 35.2509 39.0197 35.2509C39.0197 35.2509 34.9396 28.8348 33.2412 29.9074C35.8767 35.6995 34.9006 36.5186 34.9006 36.5186C34.9006 36.5186 34.5687 30.6095 31.2695 30.7655C29.6102 30.8435 32.0504 35.1729 32.0504 35.1729C32.0504 35.1729 29.8054 31.214 28.3022 31.292C31.0548 36.5186 30.0787 38.6248 30.0787 38.6248C30.0787 38.6248 30.5277 34.1588 26.7991 31.6821C28.2241 32.9497 25.9011 38.6248 25.9011 38.6248C25.9011 38.6248 27.9313 30.2584 24.3979 31.8576C23.8317 32.1111 24.3588 36.031 24.3588 36.031C24.3588 36.031 23.656 31.5456 22.5823 31.7796C21.9577 31.9161 18.639 38.0007 18.639 38.0007C18.639 38.0007 21.3525 31.4286 20.5326 31.7016C19.9274 31.8966 18.7951 34.6074 18.7951 34.6074C18.7951 34.6074 19.3417 31.9356 18.7951 31.7796C18.2485 31.6236 15.1641 34.6074 15.1641 34.6074C15.1641 34.6074 17.4481 31.9356 17.0577 31.3701C16.4525 30.5315 15.7692 30.4925 14.9298 30.824C13.7195 31.292 12.0992 33.4958 12.0992 33.4958C12.0992 33.4958 13.7195 31.253 13.4462 30.434C12.9972 29.0883 8.33145 33.0277 8.33145 33.0277C8.33145 33.0277 11.084 30.434 10.4593 29.8684C9.83463 29.3223 6.39879 29.4784 5.34462 29.4784C2.20161 29.5174 1.10839 28.7763 0.151822 28.0157Z" fill="#373535" fill-opacity="0.35"/>
<path d="M0 27.5531C4.13862 29.618 7.92584 27.2414 12.6892 28.5855C16.3202 29.5985 20.7321 30.8647 26.7253 29.9881C32.7185 29.131 37.8332 26.5207 40.293 21.8845C41.0543 19.8197 44.1583 22.352 44.1583 22.352C44.1583 22.352 41.8937 21.417 41.9523 21.8455C42.0109 22.2936 45.3491 23.8325 45.3491 23.8325C45.3491 23.8325 42.3232 22.8975 42.5184 23.5987C42.6941 24.3 46.3057 27.144 46.3057 27.144C46.3057 27.144 42.2256 24.0468 41.8937 24.4753C41.5619 24.9039 43.6312 26.5986 43.6312 26.5986C43.6312 26.5986 40.1954 24.4753 38.985 25.0987C38.1065 25.5467 42.5575 28.4492 42.5575 28.4492C42.5575 28.4492 39.6683 26.248 38.985 26.8324C38.3017 27.4168 42.2451 32.1309 42.2451 32.1309C42.2451 32.1309 37.7746 27.2999 37.3256 27.5336C36.8766 27.7674 38.5555 30.0855 38.5555 30.0855C38.5555 30.0855 36.33 27.6895 35.7249 28.0986C35.1197 28.5271 38.8679 34.7801 38.8679 34.7801C38.8679 34.7801 34.7878 28.3518 33.1089 29.4232C35.7639 35.2281 34.7683 36.0463 34.7683 36.0463C34.7683 36.0463 34.4364 30.1439 31.1372 30.2998C29.4779 30.3777 31.9181 34.7022 31.9181 34.7022C31.9181 34.7022 29.6926 30.7673 28.1895 30.8452C30.942 36.0658 29.9659 38.1696 29.9659 38.1696C29.9659 38.1696 30.4149 33.7087 26.6863 31.2348C28.1114 32.501 25.7883 38.1696 25.7883 38.1696C25.7883 38.1696 27.8185 29.8128 24.2851 31.4101C23.719 31.6633 24.2461 35.5788 24.2461 35.5788C24.2461 35.5788 23.5433 31.0984 22.4696 31.3322C21.8449 31.4685 18.5262 37.5462 18.5262 37.5462C18.5262 37.5462 21.2397 30.9816 20.4198 31.2543C19.8146 31.4491 18.6823 34.1568 18.6823 34.1568C18.6823 34.1568 19.229 31.488 18.6823 31.3322C18.1357 31.1763 15.0513 34.1568 15.0513 34.1568C15.0513 34.1568 17.3353 31.488 16.9449 30.9231C16.3397 30.0855 15.6565 30.0465 14.817 30.3777C13.6067 30.8452 11.9864 33.0464 11.9864 33.0464C11.9864 33.0464 13.6067 30.8062 13.3334 29.9881C12.8844 28.644 8.21867 32.5789 8.21867 32.5789C8.21867 32.5789 10.9712 29.9881 10.3465 29.4232C9.72185 28.8777 6.28601 29.0336 5.23184 29.0336C2.04979 29.0531 0.956567 28.3128 0 27.5531Z" fill="#373535"/>
<path d="M83.4659 22.7871H81.7045C81.6004 22.2805 81.4181 21.8354 81.1577 21.4519C80.902 21.0684 80.5895 20.7464 80.2202 20.486C79.8556 20.2208 79.4508 20.022 79.0057 19.8894C78.5606 19.7568 78.0966 19.6905 77.6136 19.6905C76.733 19.6905 75.9351 19.9131 75.2202 20.3581C74.5099 20.8032 73.9441 21.459 73.5227 22.3255C73.1061 23.1919 72.8977 24.2549 72.8977 25.5144C72.8977 26.7739 73.1061 27.8368 73.5227 28.7033C73.9441 29.5698 74.5099 30.2256 75.2202 30.6706C75.9351 31.1157 76.733 31.3382 77.6136 31.3382C78.0966 31.3382 78.5606 31.272 79.0057 31.1394C79.4508 31.0068 79.8556 30.8103 80.2202 30.5499C80.5895 30.2847 80.902 29.9604 81.1577 29.5769C81.4181 29.1886 81.6004 28.7435 81.7045 28.2417H83.4659C83.3333 28.985 83.0919 29.6503 82.7415 30.2374C82.3911 30.8245 81.9555 31.324 81.4347 31.736C80.9138 32.1432 80.3291 32.4533 79.6804 32.6664C79.0365 32.8794 78.3475 32.986 77.6136 32.986C76.3731 32.986 75.2699 32.6829 74.304 32.0769C73.3381 31.4708 72.5781 30.6091 72.0241 29.4917C71.4702 28.3742 71.1932 27.0485 71.1932 25.5144C71.1932 23.9803 71.4702 22.6545 72.0241 21.5371C72.5781 20.4197 73.3381 19.5579 74.304 18.9519C75.2699 18.3458 76.3731 18.0428 77.6136 18.0428C78.3475 18.0428 79.0365 18.1493 79.6804 18.3624C80.3291 18.5755 80.9138 18.888 81.4347 19.2999C81.9555 19.7071 82.3911 20.2042 82.7415 20.7914C83.0919 21.3738 83.3333 22.039 83.4659 22.7871ZM89.2951 33.0428C88.6038 33.0428 87.9764 32.9126 87.413 32.6522C86.8496 32.387 86.4021 32.0059 86.0707 31.5087C85.7392 31.0068 85.5735 30.4007 85.5735 29.6905C85.5735 29.0655 85.6966 28.5589 85.9428 28.1706C86.189 27.7776 86.5181 27.4699 86.93 27.2473C87.342 27.0248 87.7965 26.8591 88.2937 26.7502C88.7956 26.6365 89.2998 26.5466 89.8065 26.4803C90.4693 26.3951 91.0067 26.3311 91.4187 26.2885C91.8353 26.2412 92.1384 26.1631 92.3278 26.0542C92.5219 25.9453 92.619 25.7559 92.619 25.486V25.4292C92.619 24.7284 92.4272 24.1839 92.0437 23.7956C91.6649 23.4074 91.0896 23.2132 90.3178 23.2132C89.5176 23.2132 88.8903 23.3884 88.4357 23.7388C87.9812 24.0892 87.6616 24.4632 87.4769 24.861L85.886 24.2928C86.1701 23.6299 86.5489 23.1138 87.0224 22.7445C87.5006 22.3704 88.0214 22.11 88.5849 21.9632C89.1531 21.8117 89.7118 21.736 90.261 21.736C90.6114 21.736 91.0138 21.7786 91.4684 21.8638C91.9277 21.9443 92.3704 22.1124 92.7965 22.3681C93.2274 22.6238 93.5849 23.0096 93.869 23.5257C94.1531 24.0418 94.2951 24.7331 94.2951 25.5996V32.7871H92.619V31.3098H92.5337C92.4201 31.5466 92.2307 31.7999 91.9656 32.0698C91.7004 32.3397 91.3477 32.5693 90.9073 32.7587C90.467 32.9481 89.9296 33.0428 89.2951 33.0428ZM89.5508 31.5371C90.2137 31.5371 90.7724 31.4069 91.2269 31.1465C91.6862 30.8861 92.0318 30.5499 92.2638 30.138C92.5006 29.726 92.619 29.2928 92.619 28.8382V27.3042C92.5479 27.3894 92.3917 27.4675 92.1502 27.5385C91.9135 27.6048 91.6388 27.664 91.3263 27.7161C91.0186 27.7634 90.7179 27.806 90.4244 27.8439C90.1355 27.8771 89.9012 27.9055 89.7212 27.9292C89.2856 27.986 88.8784 28.0783 88.4996 28.2061C88.1256 28.3292 87.8226 28.5163 87.5906 28.7672C87.3633 29.0134 87.2496 29.3496 87.2496 29.7757C87.2496 30.3581 87.4651 30.7985 87.896 31.0968C88.3316 31.3903 88.8832 31.5371 89.5508 31.5371ZM105.082 24.3212L103.576 24.7473C103.481 24.4964 103.342 24.2525 103.157 24.0158C102.977 23.7743 102.731 23.5755 102.418 23.4192C102.106 23.263 101.706 23.1848 101.218 23.1848C100.55 23.1848 99.9941 23.3387 99.549 23.6465C99.1087 23.9495 98.8885 24.3354 98.8885 24.8042C98.8885 25.2208 99.04 25.5499 99.343 25.7914C99.6461 26.0328 100.12 26.2341 100.763 26.3951L102.383 26.7928C103.358 27.0295 104.085 27.3917 104.563 27.8794C105.041 28.3624 105.281 28.985 105.281 29.7473C105.281 30.3723 105.101 30.931 104.741 31.4235C104.386 31.9159 103.888 32.3042 103.249 32.5882C102.61 32.8723 101.867 33.0144 101.019 33.0144C99.9065 33.0144 98.9856 32.7729 98.2564 32.29C97.5272 31.807 97.0656 31.1015 96.8714 30.1735L98.4624 29.7757C98.6139 30.3629 98.9003 30.8032 99.3217 31.0968C99.7479 31.3903 100.304 31.5371 100.991 31.5371C101.772 31.5371 102.392 31.3714 102.852 31.04C103.316 30.7038 103.548 30.3013 103.548 29.8326C103.548 29.4538 103.415 29.1365 103.15 28.8809C102.885 28.6204 102.478 28.4263 101.928 28.2985L100.11 27.8723C99.111 27.6356 98.3771 27.2686 97.9084 26.7715C97.4444 26.2696 97.2124 25.6422 97.2124 24.8894C97.2124 24.2739 97.3852 23.7293 97.7308 23.2559C98.0812 22.7824 98.5571 22.4107 99.1584 22.1408C99.7644 21.8709 100.451 21.736 101.218 21.736C102.298 21.736 103.145 21.9727 103.761 22.4462C104.381 22.9197 104.821 23.5447 105.082 24.3212ZM115.531 24.3212L114.025 24.7473C113.931 24.4964 113.791 24.2525 113.606 24.0158C113.426 23.7743 113.18 23.5755 112.868 23.4192C112.555 23.263 112.155 23.1848 111.667 23.1848C111 23.1848 110.443 23.3387 109.998 23.6465C109.558 23.9495 109.338 24.3354 109.338 24.8042C109.338 25.2208 109.489 25.5499 109.792 25.7914C110.095 26.0328 110.569 26.2341 111.213 26.3951L112.832 26.7928C113.807 27.0295 114.534 27.3917 115.012 27.8794C115.491 28.3624 115.73 28.985 115.73 29.7473C115.73 30.3723 115.55 30.931 115.19 31.4235C114.835 31.9159 114.338 32.3042 113.699 32.5882C113.059 32.8723 112.316 33.0144 111.468 33.0144C110.356 33.0144 109.435 32.7729 108.706 32.29C107.976 31.807 107.515 31.1015 107.321 30.1735L108.912 29.7757C109.063 30.3629 109.35 30.8032 109.771 31.0968C110.197 31.3903 110.753 31.5371 111.44 31.5371C112.221 31.5371 112.842 31.3714 113.301 31.04C113.765 30.7038 113.997 30.3013 113.997 29.8326C113.997 29.4538 113.864 29.1365 113.599 28.8809C113.334 28.6204 112.927 28.4263 112.377 28.2985L110.559 27.8723C109.56 27.6356 108.826 27.2686 108.358 26.7715C107.894 26.2696 107.662 25.6422 107.662 24.8894C107.662 24.2739 107.834 23.7293 108.18 23.2559C108.53 22.7824 109.006 22.4107 109.608 22.1408C110.214 21.8709 110.9 21.736 111.667 21.736C112.747 21.736 113.594 21.9727 114.21 22.4462C114.83 22.9197 115.27 23.5447 115.531 24.3212ZM121.463 33.0428C120.772 33.0428 120.144 32.9126 119.581 32.6522C119.018 32.387 118.57 32.0059 118.239 31.5087C117.907 31.0068 117.741 30.4007 117.741 29.6905C117.741 29.0655 117.865 28.5589 118.111 28.1706C118.357 27.7776 118.686 27.4699 119.098 27.2473C119.51 27.0248 119.964 26.8591 120.462 26.7502C120.964 26.6365 121.468 26.5466 121.974 26.4803C122.637 26.3951 123.175 26.3311 123.587 26.2885C124.003 26.2412 124.306 26.1631 124.496 26.0542C124.69 25.9453 124.787 25.7559 124.787 25.486V25.4292C124.787 24.7284 124.595 24.1839 124.212 23.7956C123.833 23.4074 123.258 23.2132 122.486 23.2132C121.686 23.2132 121.058 23.3884 120.604 23.7388C120.149 24.0892 119.83 24.4632 119.645 24.861L118.054 24.2928C118.338 23.6299 118.717 23.1138 119.19 22.7445C119.669 22.3704 120.189 22.11 120.753 21.9632C121.321 21.8117 121.88 21.736 122.429 21.736C122.779 21.736 123.182 21.7786 123.636 21.8638C124.096 21.9443 124.538 22.1124 124.964 22.3681C125.395 22.6238 125.753 23.0096 126.037 23.5257C126.321 24.0418 126.463 24.7331 126.463 25.5996V32.7871H124.787V31.3098H124.702C124.588 31.5466 124.399 31.7999 124.134 32.0698C123.868 32.3397 123.516 32.5693 123.075 32.7587C122.635 32.9481 122.098 33.0428 121.463 33.0428ZM121.719 31.5371C122.382 31.5371 122.94 31.4069 123.395 31.1465C123.854 30.8861 124.2 30.5499 124.432 30.138C124.669 29.726 124.787 29.2928 124.787 28.8382V27.3042C124.716 27.3894 124.56 27.4675 124.318 27.5385C124.081 27.6048 123.807 27.664 123.494 27.7161C123.187 27.7634 122.886 27.806 122.592 27.8439C122.304 27.8771 122.069 27.9055 121.889 27.9292C121.454 27.986 121.046 28.0783 120.668 28.2061C120.294 28.3292 119.991 28.5163 119.759 28.7672C119.531 29.0134 119.418 29.3496 119.418 29.7757C119.418 30.3581 119.633 30.7985 120.064 31.0968C120.5 31.3903 121.051 31.5371 121.719 31.5371ZM131.199 26.2246V32.7871H129.522V21.878H131.142V23.5826H131.284C131.539 23.0286 131.928 22.5835 132.449 22.2473C132.969 21.9064 133.642 21.736 134.466 21.736C135.204 21.736 135.85 21.8875 136.404 22.1905C136.958 22.4888 137.389 22.9434 137.697 23.5542C138.005 24.1602 138.159 24.9273 138.159 25.8553V32.7871H136.483V25.9689C136.483 25.1119 136.26 24.4443 135.815 23.9661C135.37 23.4831 134.759 23.2417 133.983 23.2417C133.448 23.2417 132.969 23.3577 132.548 23.5897C132.131 23.8217 131.802 24.1602 131.561 24.6053C131.319 25.0504 131.199 25.5901 131.199 26.2246ZM145.341 33.0144C144.432 33.0144 143.629 32.7847 142.933 32.3255C142.237 31.8614 141.693 31.208 141.3 30.3652C140.907 29.5177 140.71 28.5163 140.71 27.361C140.71 26.2151 140.907 25.2208 141.3 24.378C141.693 23.5352 142.24 22.8842 142.94 22.4249C143.641 21.9656 144.451 21.736 145.369 21.736C146.08 21.736 146.641 21.8543 147.053 22.0911C147.469 22.3231 147.786 22.5882 148.004 22.8865C148.227 23.1801 148.4 23.4216 148.523 23.611H148.665V18.2417H150.341V32.7871H148.722V31.111H148.523C148.4 31.3098 148.224 31.5608 147.997 31.8638C147.77 32.1621 147.446 32.4296 147.024 32.6664C146.603 32.8984 146.042 33.0144 145.341 33.0144ZM145.568 31.5087C146.241 31.5087 146.809 31.3335 147.273 30.9831C147.737 30.628 148.089 30.138 148.331 29.513C148.572 28.8832 148.693 28.1564 148.693 27.3326C148.693 26.5182 148.575 25.8056 148.338 25.1948C148.101 24.5792 147.751 24.101 147.287 23.7601C146.823 23.4145 146.25 23.2417 145.568 23.2417C144.858 23.2417 144.266 23.4239 143.793 23.7885C143.324 24.1484 142.971 24.6384 142.734 25.2587C142.502 25.8742 142.386 26.5655 142.386 27.3326C142.386 28.1091 142.505 28.8146 142.741 29.449C142.983 30.0788 143.338 30.5807 143.807 30.9547C144.28 31.324 144.867 31.5087 145.568 31.5087ZM153.643 32.7871V21.878H155.263V23.5257H155.376C155.575 22.986 155.935 22.548 156.456 22.2118C156.977 21.8757 157.564 21.7076 158.217 21.7076C158.34 21.7076 158.494 21.7099 158.679 21.7147C158.864 21.7194 159.003 21.7265 159.098 21.736V23.4405C159.041 23.4263 158.911 23.405 158.707 23.3766C158.509 23.3435 158.298 23.3269 158.075 23.3269C157.545 23.3269 157.071 23.4382 156.655 23.6607C156.243 23.8785 155.916 24.1815 155.675 24.5698C155.438 24.9533 155.32 25.3913 155.32 25.8837V32.7871H153.643ZM164.295 33.0428C163.604 33.0428 162.976 32.9126 162.413 32.6522C161.85 32.387 161.402 32.0059 161.071 31.5087C160.739 31.0068 160.574 30.4007 160.574 29.6905C160.574 29.0655 160.697 28.5589 160.943 28.1706C161.189 27.7776 161.518 27.4699 161.93 27.2473C162.342 27.0248 162.797 26.8591 163.294 26.7502C163.796 26.6365 164.3 26.5466 164.806 26.4803C165.469 26.3951 166.007 26.3311 166.419 26.2885C166.835 26.2412 167.138 26.1631 167.328 26.0542C167.522 25.9453 167.619 25.7559 167.619 25.486V25.4292C167.619 24.7284 167.427 24.1839 167.044 23.7956C166.665 23.4074 166.09 23.2132 165.318 23.2132C164.518 23.2132 163.89 23.3884 163.436 23.7388C162.981 24.0892 162.662 24.4632 162.477 24.861L160.886 24.2928C161.17 23.6299 161.549 23.1138 162.022 22.7445C162.501 22.3704 163.021 22.11 163.585 21.9632C164.153 21.8117 164.712 21.736 165.261 21.736C165.611 21.736 166.014 21.7786 166.468 21.8638C166.928 21.9443 167.37 22.1124 167.797 22.3681C168.227 22.6238 168.585 23.0096 168.869 23.5257C169.153 24.0418 169.295 24.7331 169.295 25.5996V32.7871H167.619V31.3098H167.534C167.42 31.5466 167.231 31.7999 166.966 32.0698C166.7 32.3397 166.348 32.5693 165.907 32.7587C165.467 32.9481 164.93 33.0428 164.295 33.0428ZM164.551 31.5371C165.214 31.5371 165.772 31.4069 166.227 31.1465C166.686 30.8861 167.032 30.5499 167.264 30.138C167.501 29.726 167.619 29.2928 167.619 28.8382V27.3042C167.548 27.3894 167.392 27.4675 167.15 27.5385C166.913 27.6048 166.639 27.664 166.326 27.7161C166.019 27.7634 165.718 27.806 165.424 27.8439C165.136 27.8771 164.901 27.9055 164.721 27.9292C164.286 27.986 163.878 28.0783 163.5 28.2061C163.126 28.3292 162.823 28.5163 162.591 28.7672C162.363 29.0134 162.25 29.3496 162.25 29.7757C162.25 30.3581 162.465 30.7985 162.896 31.0968C163.332 31.3903 163.883 31.5371 164.551 31.5371Z" fill="white"/>
</svg>
