<svg width="58" height="58" viewBox="0 0 58 58" fill="none" xmlns="http://www.w3.org/2000/svg">
<rect width="58" height="58" rx="12" fill="#A4C639"/>
<path d="M23.156 11.2134C22.9894 11.215 22.8164 11.2552 22.6588 11.3426C22.1583 11.62 21.9747 12.2632 22.2519 12.7633L23.382 14.804C20.6593 16.4887 18.8551 19.3661 18.8551 22.6503C18.8551 22.664 18.8551 22.6847 18.8551 22.7051C18.8551 22.7123 18.855 22.7164 18.8551 22.7245C18.8551 22.7353 18.8551 22.7509 18.8551 22.7536V23.2605C18.3322 22.6589 17.5635 22.2789 16.7046 22.2789C15.1312 22.2789 13.8535 23.5566 13.8535 25.1301V33.9127C13.8535 35.4862 15.1312 36.7638 16.7046 36.7638C17.5635 36.7638 18.3322 36.3839 18.8551 35.7823V37.0125C18.8551 38.6711 20.2123 40.0283 21.8709 40.0283H22.6362V43.9353C22.6362 45.5087 23.9139 46.7864 25.4873 46.7864C27.0608 46.7864 28.3384 45.5087 28.3384 43.9353V40.0283H29.6623V43.9353C29.6623 45.5087 30.94 46.7864 32.5134 46.7864C34.0869 46.7864 35.3646 45.5087 35.3646 43.9353V40.0283H36.1298C37.7884 40.0283 39.1456 38.6711 39.1456 37.0125V35.7823C39.6685 36.3839 40.4372 36.7638 41.2961 36.7638C42.8695 36.7638 44.1472 35.4862 44.1472 33.9127V25.1301C44.1472 23.5566 42.8695 22.2789 41.2961 22.2789C40.4372 22.2789 39.6685 22.6589 39.1456 23.2605V22.7633V22.7536C39.1457 22.738 39.1456 22.7226 39.1456 22.7245C39.1458 22.6936 39.1456 22.6689 39.1456 22.6503C39.1456 19.3667 37.3374 16.492 34.6155 14.8072L35.7488 12.7633C36.026 12.2632 35.8425 11.62 35.342 11.3426C35.1844 11.2552 35.0114 11.215 34.8447 11.2134C34.4751 11.2099 34.1123 11.4047 33.9212 11.7494L32.7362 13.8902C31.5775 13.4626 30.3168 13.2283 29.0004 13.2283C27.6853 13.2283 26.4223 13.4602 25.2645 13.887L24.0795 11.7494C23.8884 11.4047 23.5256 11.2099 23.156 11.2134Z" fill="#A4C639"/>
<path d="M16.7042 23.0215C15.53 23.0215 14.5957 23.9558 14.5957 25.13V33.9126C14.5957 35.0868 15.53 36.0211 16.7042 36.0211C17.8784 36.0211 18.8127 35.0868 18.8127 33.9126V25.13C18.8127 23.9558 17.8784 23.0215 16.7042 23.0215ZM41.2956 23.0215C40.1214 23.0215 39.1871 23.9558 39.1871 25.13V33.9126C39.1871 35.0868 40.1214 36.0211 41.2956 36.0211C42.4698 36.0211 43.4041 35.0868 43.4041 33.9126V25.13C43.4041 23.9558 42.4698 23.0215 41.2956 23.0215Z" fill="white"/>
<path d="M25.4874 33.0439C24.3132 33.0439 23.3789 33.9783 23.3789 35.1524V43.9351C23.3789 45.1093 24.3132 46.0436 25.4874 46.0436C26.6616 46.0436 27.5959 45.1093 27.5959 43.9351V35.1524C27.5959 33.9783 26.6616 33.0439 25.4874 33.0439ZM32.5135 33.0439C31.3393 33.0439 30.405 33.9783 30.405 35.1524V43.9351C30.405 45.1093 31.3393 46.0436 32.5135 46.0436C33.6877 46.0436 34.622 45.1093 34.622 43.9351V35.1524C34.622 33.9783 33.6877 33.0439 32.5135 33.0439Z" fill="white"/>
<path d="M23.1624 11.9561C23.1125 11.9566 23.0661 11.9694 23.0203 11.9948C22.87 12.0782 22.8205 12.2509 22.9041 12.4017L24.3894 15.0849C21.5317 16.5718 19.6015 19.3975 19.5977 22.6406H38.4029C38.399 19.3975 36.4688 16.5718 33.6112 15.0849L35.0965 12.4017C35.18 12.2509 35.1306 12.0782 34.9802 11.9948C34.9344 11.9694 34.888 11.9565 34.8381 11.9561C34.7314 11.955 34.6303 12.0084 34.5734 12.1111L33.0687 14.8233C31.8378 14.2774 30.4572 13.9709 29.0003 13.9709C27.5433 13.9709 26.1627 14.2774 24.9318 14.8233L23.4272 12.1111C23.3702 12.0084 23.2691 11.955 23.1624 11.9561ZM19.5977 23.3832V37.0125C19.5977 38.2718 20.6115 39.2856 21.8708 39.2856H36.1297C37.389 39.2856 38.4029 38.2718 38.4029 37.0125V23.3832H19.5977Z" fill="white"/>
<path d="M24.6596 17.6294C24.2303 17.6294 23.875 17.9847 23.875 18.414C23.875 18.8433 24.2303 19.1986 24.6596 19.1986C25.0889 19.1986 25.4443 18.8433 25.4443 18.414C25.4443 17.9847 25.0889 17.6294 24.6596 17.6294ZM33.339 17.6294C32.9097 17.6294 32.5543 17.9847 32.5543 18.414C32.5543 18.8433 32.9097 19.1986 33.339 19.1986C33.7682 19.1986 34.1236 18.8433 34.1236 18.414C34.1236 17.9847 33.7682 17.6294 33.339 17.6294Z" fill="#A4C639"/>
</svg>
