<svg width="32" height="32" viewBox="0 0 32 32" fill="none" xmlns="http://www.w3.org/2000/svg">
<path d="M8.67188 10.1357H10.5218L9.597 7.54688L8.67188 10.1357Z" fill="white"/>
<path d="M14.4031 9.60312C14.4031 8.44152 14.6575 7.34072 15.1042 6.34392C13.9894 4.46585 11.9465 3.20312 9.60312 3.20312C6.06872 3.20312 3.20312 6.06872 3.20312 9.60312C3.20312 13.1375 6.06872 16.0031 9.60312 16.0031L10.67 18.1366H11.7366V15.6313C13.1599 15.1279 14.3382 14.1266 15.0969 12.8479C14.6553 11.8553 14.4031 10.759 14.4031 9.60312ZM11.6706 13.3366L10.9084 11.2031H8.29817L7.5356 13.3366H6.40312L9.07 5.86968H10.1366L12.8031 13.3366H11.6706Z" fill="white"/>
<path d="M18.6684 25.0634C19.2577 25.0634 19.7353 24.5858 19.7353 23.9966C19.7353 23.4073 19.2577 22.9297 18.6684 22.9297C18.0792 22.9297 17.6016 23.4073 17.6016 23.9966C17.6016 24.5858 18.0792 25.0634 18.6684 25.0634Z" fill="white"/>
<path d="M13.3322 25.0628C13.9212 25.0628 14.3987 24.5853 14.3987 23.9962C14.3987 23.4072 13.9212 22.9297 13.3322 22.9297C12.7431 22.9297 12.2656 23.4072 12.2656 23.9962C12.2656 24.5853 12.7431 25.0628 13.3322 25.0628Z" fill="white"/>
<path d="M25.6025 20.2697L24.0025 23.4697C24.0025 21.1135 22.0924 19.2031 19.7363 19.2031H12.2687C9.91226 19.2031 8.0025 21.1135 8.0025 23.4697L6.4025 20.2697L5.33594 20.8031L6.4025 25.0697L8.0025 25.6031V26.6697C8.0025 27.8492 8.95738 28.8031 10.1359 28.8031H21.8694C23.0489 28.8031 24.0025 27.8492 24.0025 26.6697V25.6031L25.6025 25.0697L26.6694 20.8031L25.6025 20.2697ZM21.8694 26.6697H10.1359V23.4697C10.1359 22.2927 11.0927 21.3366 12.2687 21.3366H19.7363C20.9132 21.3366 21.8694 22.2927 21.8694 23.4697V26.6697Z" fill="white"/>
<path d="M17.5984 26.6681H14.3984L14.9319 25.6016H17.0653L17.5984 26.6681Z" fill="white"/>
<path d="M22.4 3.20312C18.8656 3.20312 16 6.06872 16 9.60312C16 12.3884 17.784 14.7516 20.2669 15.6313V18.1366H21.3338L22.4 16.0031C25.9357 16.0031 28.8 13.1375 28.8 9.60312C28.8 6.06872 25.9357 3.20312 22.4 3.20312ZM25.6 8.00312H24.5338C24.5338 9.34904 24.0182 10.5641 23.1962 11.503C23.8806 11.9791 24.7024 12.2697 25.6 12.2697V13.3366C24.3936 13.3366 23.2899 12.9247 22.3962 12.2492C21.503 12.9225 20.4042 13.3366 19.2 13.3366V12.2697C20.0906 12.2697 20.9168 11.9938 21.6026 11.5254C20.9968 10.8396 20.5626 9.99993 20.3744 9.06968H21.4858C21.6544 9.71832 21.975 10.303 22.4 10.7942C23.0563 10.0441 23.4669 9.07512 23.4669 8.00312H19.2V6.93656H21.8669V5.86968H22.9338V6.93656H25.6V8.00312Z" fill="white"/>
</svg>
