<svg width="34" height="34" viewBox="0 0 34 34" fill="none" xmlns="http://www.w3.org/2000/svg">
<path fill-rule="evenodd" clip-rule="evenodd" d="M0.850003 34H33.15C33.3754 34 33.5916 33.9104 33.751 33.7511C33.9104 33.5917 34 33.3755 34 33.15C34 32.9246 33.9104 32.7084 33.751 32.549C33.5916 32.3896 33.3754 32.3001 33.15 32.3001H0.850003C0.624569 32.3001 0.408369 32.3896 0.248963 32.549C0.0895568 32.7084 3.31332e-06 32.9246 3.31332e-06 33.15C3.31332e-06 33.3755 0.0895568 33.5917 0.248963 33.7511C0.408369 33.9104 0.624569 34 0.850003 34ZM2.55 24.6505V30.6002C2.55 30.8256 2.63956 31.0418 2.79896 31.2012C2.95837 31.3606 3.17457 31.4501 3.4 31.4501H8.5C8.72544 31.4501 8.94164 31.3606 9.10104 31.2012C9.26045 31.0418 9.35 30.8256 9.35 30.6002V24.6505H10.2C10.3617 24.6507 10.52 24.6049 10.6566 24.5183C10.7931 24.4318 10.9021 24.3081 10.9708 24.1617C11.0395 24.0154 11.0651 23.8525 11.0445 23.6922C11.0239 23.5319 10.958 23.3807 10.8545 23.2565L6.6045 18.1568C6.52474 18.0605 6.42474 17.9831 6.31161 17.9299C6.19848 17.8767 6.07501 17.8491 5.95 17.8491C5.825 17.8491 5.70153 17.8767 5.5884 17.9299C5.47527 17.9831 5.37526 18.0605 5.2955 18.1568L1.0455 23.2565C0.942043 23.3807 0.876148 23.5319 0.85555 23.6922C0.834951 23.8525 0.860502 24.0154 0.929206 24.1617C0.99791 24.3081 1.10692 24.4318 1.24344 24.5183C1.37997 24.6049 1.53835 24.6507 1.7 24.6505H2.55ZM13.6 20.4007V30.6002C13.6 30.8256 13.6896 31.0418 13.849 31.2012C14.0084 31.3606 14.2246 31.4501 14.45 31.4501H19.55C19.7754 31.4501 19.9916 31.3606 20.151 31.2012C20.3104 31.0418 20.4 30.8256 20.4 30.6002V20.4007H21.25C21.4117 20.4009 21.57 20.3551 21.7066 20.2685C21.8431 20.182 21.9521 20.0583 22.0208 19.9119C22.0895 19.7656 22.1151 19.6027 22.0945 19.4424C22.0739 19.2821 22.008 19.1309 21.9045 19.0067L17.6545 13.907C17.5747 13.8107 17.4747 13.7333 17.3616 13.6801C17.2485 13.6269 17.125 13.5993 17 13.5993C16.875 13.5993 16.7515 13.6269 16.6384 13.6801C16.5253 13.7333 16.4253 13.8107 16.3455 13.907L12.0955 19.0067C11.992 19.1309 11.9261 19.2821 11.9055 19.4424C11.8849 19.6027 11.9105 19.7656 11.9792 19.9119C12.0479 20.0583 12.1569 20.182 12.2934 20.2685C12.43 20.3551 12.5883 20.4009 12.75 20.4007H13.6ZM24.65 6.80133V30.6002C24.65 30.8256 24.7396 31.0418 24.899 31.2012C25.0584 31.3606 25.2746 31.4501 25.5 31.4501H30.6C30.8254 31.4501 31.0416 31.3606 31.201 31.2012C31.3604 31.0418 31.45 30.8256 31.45 30.6002V6.80133H32.3C32.4617 6.80159 32.62 6.75575 32.7566 6.66919C32.8931 6.58263 33.0021 6.45893 33.0708 6.3126C33.1395 6.16628 33.1651 6.0034 33.1445 5.84307C33.1239 5.68274 33.058 5.5316 32.9545 5.4074L28.7045 0.307648C28.6247 0.211398 28.5247 0.133924 28.4116 0.0807477C28.2985 0.0275709 28.175 0 28.05 0C27.925 0 27.8015 0.0275709 27.6884 0.0807477C27.5753 0.133924 27.4753 0.211398 27.3955 0.307648L23.1455 5.4074C23.042 5.5316 22.9761 5.68274 22.9555 5.84307C22.9349 6.0034 22.9605 6.16628 23.0292 6.3126C23.0979 6.45893 23.2069 6.58263 23.3434 6.66919C23.48 6.75575 23.6383 6.80159 23.8 6.80133H24.65ZM7.65 0.00166271C6.13698 0.00166271 4.65793 0.450306 3.39989 1.29086C2.14185 2.13141 1.16134 3.32612 0.582325 4.7239C0.00331459 6.12169 -0.148181 7.65977 0.146996 9.14366C0.442173 10.6275 1.17076 11.9906 2.24064 13.0604C3.31051 14.1302 4.67361 14.8588 6.15756 15.1539C7.64152 15.4491 9.17968 15.2976 10.5775 14.7186C11.9754 14.1396 13.1702 13.1592 14.0107 11.9012C14.8513 10.6432 15.3 9.16424 15.3 7.65129C15.3 5.62248 14.494 3.67677 13.0594 2.24219C11.6247 0.807603 9.67891 0.00166271 7.65 0.00166271ZM6.8 4.29395C6.32002 4.39192 5.88863 4.65271 5.57885 5.03218C5.26906 5.41165 5.0999 5.8865 5.1 6.37635C5.1 6.93991 5.32389 7.48038 5.7224 7.87888C6.12092 8.27737 6.66142 8.50125 7.225 8.50125H8.075C8.18772 8.50125 8.29582 8.54602 8.37552 8.62572C8.45523 8.70542 8.5 8.81351 8.5 8.92623C8.5 9.03894 8.45523 9.14703 8.37552 9.22673C8.29582 9.30643 8.18772 9.3512 8.075 9.3512H5.95C5.72457 9.3512 5.50837 9.44075 5.34896 9.60015C5.18956 9.75955 5.1 9.97574 5.1 10.2012C5.1 10.4266 5.18956 10.6428 5.34896 10.8022C5.50837 10.9616 5.72457 11.0511 5.95 11.0511H6.8V11.9011C6.8 12.1265 6.88956 12.3427 7.04896 12.5021C7.20837 12.6615 7.42457 12.751 7.65 12.751C7.87544 12.751 8.09164 12.6615 8.25104 12.5021C8.41045 12.3427 8.5 12.1265 8.5 11.9011V11.0511C9.06359 10.9948 9.5817 10.7168 9.94036 10.2785C10.299 9.84016 10.4689 9.27729 10.4125 8.71374C10.3561 8.15018 10.0782 7.63209 9.63984 7.27344C9.20148 6.9148 8.63859 6.74497 8.075 6.80133H7.225C7.11229 6.80133 7.00418 6.75656 6.92448 6.67686C6.84478 6.59716 6.8 6.48906 6.8 6.37635C6.8 6.26364 6.84478 6.15554 6.92448 6.07584C7.00418 5.99615 7.11229 5.95137 7.225 5.95137H9.35C9.57544 5.95137 9.79164 5.86182 9.95104 5.70242C10.1104 5.54303 10.2 5.32684 10.2 5.10141C10.2 4.87599 10.1104 4.6598 9.95104 4.5004C9.79164 4.341 9.57544 4.25145 9.35 4.25145H8.5V3.4015C8.5 3.17607 8.41045 2.95988 8.25104 2.80049C8.09164 2.64109 7.87544 2.55154 7.65 2.55154C7.42457 2.55154 7.20837 2.64109 7.04896 2.80049C6.88956 2.95988 6.8 3.17607 6.8 3.4015V4.29395Z" fill="#3C3E49"/>
</svg>
