<svg width="59" height="59" viewBox="0 0 59 59" fill="none" xmlns="http://www.w3.org/2000/svg">
<path d="M29.1273 31.2205C29.1273 29.5513 30.4867 28.1938 32.157 28.1938H34.3695C35.0857 28.1938 35.7631 28.4451 36.3005 28.8911C37.0475 28.7944 37.7643 28.6368 38.4493 28.4404C39.824 26.2898 40.6482 23.7552 40.6482 21.2742C40.6482 15.127 35.6474 10.125 29.5008 10.125C23.3524 10.125 18.3516 15.127 18.3516 21.2742C18.3527 27.4214 23.3524 33.9468 29.5002 33.9468C29.9049 33.9468 30.3038 33.915 30.6979 33.8607C29.7663 33.3433 29.1273 32.3597 29.1273 31.2205Z" fill="white"/>
<path d="M37.8735 34.0625C35.7105 35.7098 33.0125 36.691 30.0908 36.691H28.9161C25.9938 36.691 23.2952 35.7098 21.1328 34.0625C14.0711 35.2041 8.67969 41.3248 8.67969 48.7075C8.6791 52.7626 18.0017 56.0518 29.5031 56.0518C41.0022 56.0518 50.326 52.7626 50.326 48.7081C50.3266 41.3248 44.9346 35.2041 37.8735 34.0625Z" fill="white"/>
<path d="M13.8805 29.8571H14.0197C15.5561 29.8571 16.7998 28.6134 16.7998 27.0741V21.5181C16.7998 20.4277 16.1697 19.4867 15.2534 19.0324C15.6499 11.5146 21.8891 5.52199 29.5025 5.52199C37.1147 5.52199 43.3551 11.5146 43.7504 19.0318C42.8359 19.4867 42.2064 20.4277 42.2064 21.5175V27.0735C42.2064 27.4434 42.2766 27.7862 42.4034 28.1066C40.7833 29.2677 38.4251 30.0931 35.7695 30.3215C35.4697 29.8642 34.9559 29.5592 34.3717 29.5592H32.1593C31.2371 29.5592 30.4931 30.3055 30.4931 31.223C30.4931 32.1446 31.2371 32.8915 32.1593 32.8915H34.3717C35.016 32.8915 35.5641 32.5233 35.8426 31.9917C38.9254 31.7475 41.6075 30.807 43.4896 29.4152C43.9209 29.6937 44.4324 29.8571 44.9858 29.8571H45.1239C46.6603 29.8571 47.9034 28.6134 47.9034 27.0741V21.5181C47.9034 20.4118 47.255 19.4554 46.3192 19.0129C45.911 10.0904 38.5248 2.95312 29.5025 2.95312C20.4802 2.95312 13.0946 10.0904 12.6881 19.0129C11.75 19.4554 11.1016 20.4118 11.1016 21.5181V27.0741C11.1022 28.6134 12.3465 29.8571 13.8805 29.8571Z" fill="white"/>
</svg>
