<svg width="32" height="32" viewBox="0 0 32 32" fill="none" xmlns="http://www.w3.org/2000/svg">
<path d="M11 6L13 2H12L10 6H11Z" fill="white"/>
<path d="M9 6L11 2H3C2.44775 2 2 2.44775 2 3V6H9ZM7 3C7.55231 3 8 3.44769 8 4C8 4.55231 7.55231 5 7 5C6.44775 5 6 4.55231 6 4C6 3.44769 6.44775 3 7 3ZM4 3C4.55231 3 5 3.44769 5 4C5 4.55231 4.55231 5 4 5C3.44775 5 3 4.55231 3 4C3 3.44769 3.44775 3 4 3Z" fill="white"/>
<path d="M18 6V3C18 2.44775 17.5522 2 17 2H14L12 6H18Z" fill="white"/>
<path d="M11.8204 18.8843C11.7267 18.9619 11.6134 19 11.5006 19C11.3571 19 11.215 18.939 11.1158 18.8203C10.9391 18.6079 10.9679 18.2925 11.1798 18.1157L13 16.599V15.401L11.1798 13.8843C10.9679 13.7075 10.9391 13.3921 11.1158 13.1797C11.2926 12.9678 11.6075 12.939 11.8204 13.1157L13 14.0987V7H2V25C2 25.5523 2.44769 26 3 26H13V17.9013L11.8204 18.8843ZM8.82031 18.1157C9.03223 18.2925 9.06104 18.6079 8.88428 18.8203C8.78516 18.939 8.64307 19 8.49951 19C8.38672 19 8.27344 18.9619 8.17969 18.8843L5.17969 16.3843C5.06592 16.2891 5 16.1484 5 16C5 15.8516 5.06592 15.7109 5.17969 15.6157L8.17969 13.1157C8.39258 12.939 8.70752 12.9678 8.88428 13.1797C9.06104 13.3921 9.03223 13.7075 8.82031 13.8843L6.28125 16L8.82031 18.1157Z" fill="white"/>
<path d="M27 6H17C15.3457 6 14 7.3457 14 9V27C14 28.6543 15.3457 30 17 30H27C28.6543 30 30 28.6543 30 27V9C30 7.3457 28.6543 6 27 6ZM29 27C29 28.1046 28.1046 29 27 29H17C15.8954 29 15 28.1046 15 27V9C15 7.89545 15.8954 7 17 7H27C28.1046 7 29 7.89545 29 9V27Z" fill="white"/>
<path d="M27 8H24C24 9.10455 23.1046 10 22 10C20.8954 10 20 9.10455 20 8H17C16.4477 8 16 8.44769 16 9V27C16 27.5523 16.4477 28 17 28H27C27.5523 28 28 27.5523 28 27V9C28 8.44769 27.5523 8 27 8ZM20.8203 20.1158C21.0322 20.2925 21.061 20.608 20.8843 20.8204C20.7852 20.939 20.6431 21.0001 20.4995 21.0001C20.3867 21.0001 20.2734 20.962 20.1797 20.8843L17.1797 18.3843C17.0659 18.2891 17 18.1485 17 18.0001C17 17.8516 17.0659 17.711 17.1797 17.6158L20.1797 15.1158C20.3926 14.939 20.7075 14.9678 20.8843 15.1797C21.061 15.3922 21.0322 15.7076 20.8203 15.8843L18.2812 18.0001L20.8203 20.1158ZM26.8204 18.3843L23.8204 20.8843C23.7267 20.962 23.6134 21.0001 23.5006 21.0001C23.3571 21.0001 23.215 20.939 23.1158 20.8204C22.9391 20.608 22.9679 20.2925 23.1798 20.1158L25.7189 18.0001L23.1798 15.8843C22.9679 15.7076 22.9391 15.3922 23.1158 15.1797C23.2926 14.9678 23.6075 14.939 23.8204 15.1158L26.8204 17.6158C26.9342 17.711 27.0001 17.8516 27.0001 18.0001C27.0001 18.1485 26.9342 18.2891 26.8204 18.3843Z" fill="white"/>
</svg>
