<svg width="45" height="45" viewBox="0 0 45 45" fill="none" xmlns="http://www.w3.org/2000/svg">
<path d="M5.625 34.9016C4.80422 34.6133 4.09301 34.0777 3.58932 33.3684C3.08562 32.6591 2.81423 31.8111 2.8125 30.9412V26.7224C2.81423 25.8525 3.08562 25.0045 3.58932 24.2952C4.09301 23.586 4.80422 23.0503 5.625 22.762V34.9016ZM7.03125 8.44119C6.19686 8.44119 5.38121 8.68862 4.68744 9.15218C3.99367 9.61574 3.45294 10.2746 3.13364 11.0455C2.81433 11.8164 2.73078 12.6646 2.89356 13.483C3.05635 14.3013 3.45814 15.053 4.04815 15.643C4.63815 16.2331 5.38986 16.6348 6.20821 16.7976C7.02657 16.9604 7.87482 16.8769 8.6457 16.5576C9.41657 16.2382 10.0755 15.6975 10.539 15.0038C11.0026 14.31 11.25 13.4943 11.25 12.6599C11.2488 11.5414 10.8039 10.4691 10.013 9.67818C9.22211 8.88728 8.14976 8.44241 7.03125 8.44119ZM37.9688 14.4192C37.9688 18.9675 33.6168 22.6754 28.2431 22.7289C26.1423 24.2534 23.5759 24.9983 20.9853 24.8355C20.732 24.8324 20.4843 24.7613 20.2678 24.6298C20.0514 24.4983 19.8742 24.3112 19.7547 24.0879C19.6352 23.8646 19.5778 23.6133 19.5884 23.3603C19.5991 23.1072 19.6774 22.8617 19.8153 22.6492C20.3341 21.8951 20.7576 21.0796 21.0759 20.2213C20.2171 19.5148 19.5224 18.6298 19.0398 17.6279C18.5572 16.626 18.2984 15.5311 18.2813 14.4192C18.2813 9.83649 22.6978 6.10938 28.125 6.10938C33.5522 6.10938 37.9688 9.83646 37.9688 14.4192ZM32.3438 16.8787C32.3439 16.694 32.3076 16.5111 32.2369 16.3404C32.1663 16.1698 32.0627 16.0147 31.9321 15.8841C31.8015 15.7535 31.6464 15.6499 31.4758 15.5793C31.3051 15.5086 31.1222 15.4723 30.9375 15.4724H25.3125C24.9395 15.4724 24.5819 15.6206 24.3181 15.8843C24.0544 16.148 23.9063 16.5057 23.9063 16.8787C23.9063 17.2517 24.0544 17.6093 24.3181 17.8731C24.5819 18.1368 24.9395 18.2849 25.3125 18.2849H30.9375C31.1222 18.285 31.3051 18.2487 31.4758 18.1781C31.6464 18.1075 31.8015 18.0039 31.9321 17.8733C32.0627 17.7427 32.1663 17.5876 32.2369 17.417C32.3076 17.2463 32.3439 17.0634 32.3438 16.8787ZM32.3438 12.6599C32.3439 12.4752 32.3076 12.2923 32.2369 12.1217C32.1663 11.951 32.0627 11.7959 31.9321 11.6653C31.8015 11.5347 31.6464 11.4312 31.4758 11.3605C31.3051 11.2899 31.1222 11.2536 30.9375 11.2537H25.3125C24.9395 11.2537 24.5819 11.4018 24.3181 11.6656C24.0544 11.9293 23.9063 12.287 23.9063 12.6599C23.9063 13.0329 24.0544 13.3906 24.3181 13.6543C24.5819 13.918 24.9395 14.0662 25.3125 14.0662H30.9375C31.1222 14.0663 31.3051 14.03 31.4758 13.9594C31.6464 13.8887 31.8015 13.7851 31.9321 13.6545C32.0627 13.5239 32.1663 13.3689 32.2369 13.1982C32.3076 13.0276 32.3439 12.8446 32.3438 12.6599ZM39.375 22.762V34.9016C40.1958 34.6133 40.907 34.0777 41.4107 33.3684C41.9144 32.6591 42.1858 31.8111 42.1875 30.9412V26.7224C42.1858 25.8525 41.9144 25.0045 41.4107 24.2952C40.907 23.586 40.1958 23.0503 39.375 22.762ZM36.5625 22.7182V35.1599C36.5613 36.2784 36.1164 37.3508 35.3255 38.1417C34.5346 38.9326 33.4623 39.3775 32.3438 39.3787H12.6563C11.5377 39.3775 10.4654 38.9326 9.67449 38.1417C8.88359 37.3508 8.43872 36.2784 8.4375 35.1599V22.5037C8.43872 21.3852 8.88359 20.3128 9.67449 19.5219C10.4654 18.731 11.5377 18.2862 12.6563 18.2849H16.287C16.6455 19.1634 17.1205 19.9897 17.699 20.7418C17.1526 21.4305 16.8315 22.2707 16.7793 23.1483C16.727 24.0259 16.9463 24.8983 17.4072 25.647C17.2433 25.7747 17.1104 25.9378 17.0183 26.1239C16.9261 26.3101 16.8772 26.5147 16.875 26.7224C16.875 27.0954 17.0232 27.4531 17.2869 27.7168C17.5506 27.9805 17.9083 28.1287 18.2813 28.1287C18.5353 28.1266 18.7839 28.0549 19.0001 27.9216C19.2164 27.7883 19.392 27.5983 19.5079 27.3723C21.4605 27.773 23.4816 27.6887 25.3941 27.1269C25.4776 27.4143 25.6516 27.667 25.8903 27.8475C26.1289 28.028 26.4195 28.1266 26.7188 28.1287C27.0917 28.1287 27.4494 27.9805 27.7131 27.7168C27.9768 27.4531 28.125 27.0954 28.125 26.7224C28.1238 26.5253 28.0807 26.3307 27.9987 26.1515C28.4436 25.9226 28.8117 25.699 29.1083 25.5085C31.8167 25.3473 34.414 24.3751 36.5625 22.7182ZM26.0156 32.3474C26.0157 32.1627 25.9794 31.9798 25.9088 31.8092C25.8382 31.6385 25.7346 31.4834 25.604 31.3528C25.4734 31.2222 25.3183 31.1187 25.1476 31.048C24.977 30.9774 24.7941 30.9411 24.6094 30.9412H20.3906C20.0177 30.9412 19.66 31.0893 19.3963 31.3531C19.1325 31.6168 18.9844 31.9745 18.9844 32.3474C18.9844 32.7204 19.1325 33.0781 19.3963 33.3418C19.66 33.6055 20.0177 33.7537 20.3906 33.7537H24.6094C24.7941 33.7538 24.977 33.7175 25.1476 33.6469C25.3183 33.5762 25.4734 33.4726 25.604 33.342C25.7346 33.2114 25.8382 33.0564 25.9088 32.8857C25.9794 32.7151 26.0157 32.5321 26.0156 32.3474Z" fill="white"/>
</svg>
