<svg width="32" height="32" viewBox="0 0 32 32" fill="none" xmlns="http://www.w3.org/2000/svg">
<path d="M31 15V19C31 20.103 30.103 21 29 21V23C29 26.309 26.309 29 23 29H21C21 30.103 20.103 31 19 31H15C13.897 31 13 30.103 13 29V27C13 25.897 13.897 25 15 25H19C20.103 25 21 25.897 21 27H23C25.206 27 27 25.206 27 23V21C25.897 21 25 20.103 25 19V15C25 13.914 25.871 13.033 26.95 13.005C26.445 7.405 21.73 3 16 3C10.27 3 5.556 7.405 5.05 13.005C6.129 13.032 7 13.914 7 15V19C7 20.103 6.103 21 5 21H3C1.897 21 1 20.103 1 19V15C1 13.897 1.897 13 3 13H3.051C3.565 6.299 9.17 1 16 1C22.83 1 28.435 6.299 28.949 13H29C30.103 13 31 13.897 31 15ZM18 24C20.607 24 22.824 22.327 23.65 20H8.35C9.176 22.327 11.393 24 14 24H18ZM15 10V8.723C14.405 8.377 14 7.739 14 7C14 5.895 14.895 5 16 5C17.105 5 18 5.895 18 7C18 7.738 17.595 8.376 17 8.723V10H18C21.309 10 24 12.691 24 16V18H8V16C8 12.691 10.691 10 14 10H15ZM15 14.5C15 13.672 14.328 13 13.5 13C12.672 13 12 13.672 12 14.5C12 15.328 12.672 16 13.5 16C14.328 16 15 15.328 15 14.5ZM17 14.5C17 15.328 17.672 16 18.5 16C19.328 16 20 15.328 20 14.5C20 13.672 19.328 13 18.5 13C17.672 13 17 13.672 17 14.5Z" fill="white"/>
</svg>
