<svg width="32" height="32" viewBox="0 0 32 32" fill="none" xmlns="http://www.w3.org/2000/svg">
<path d="M6 13H5C4.20508 13.0024 3.4434 13.3192 2.8813 13.8813C2.31921 14.4434 2.00237 15.2051 2 16V29C2 29.2652 2.10536 29.5196 2.29289 29.7071C2.48043 29.8946 2.73478 30 3 30H6.18C6.0589 29.6806 5.99787 29.3416 6 29V13Z" fill="white"/>
<path d="M27.0003 13H26.0003V29C26.0024 29.3416 25.9414 29.6806 25.8203 30H29.0003C29.2655 30 29.5199 29.8946 29.7074 29.7071C29.895 29.5196 30.0003 29.2652 30.0003 29V16C29.9979 15.2051 29.6811 14.4434 29.119 13.8813C28.5569 13.3192 27.7952 13.0024 27.0003 13Z" fill="white"/>
<path d="M13.9903 30.0033H18.0033V21.9453L13.9453 22.0033L13.9903 30.0033Z" fill="white"/>
<path d="M21.078 4H17V3C17 2.73478 16.8946 2.48043 16.7071 2.29289C16.5196 2.10536 16.2652 2 16 2C15.7348 2 15.4804 2.10536 15.2929 2.29289C15.1054 2.48043 15 2.73478 15 3V4H10.922C10.1474 4.00106 9.40476 4.30925 8.857 4.857C8.30925 5.40475 8.00106 6.14736 8 6.922V29C8 29.2652 8.10536 29.5196 8.29289 29.7071C8.48043 29.8946 8.73478 30 9 30H12V21.942C12.0005 21.4271 12.2053 20.9335 12.5694 20.5694C12.9335 20.2053 13.4271 20.0005 13.942 20H18.058C18.5729 20.0005 19.0665 20.2053 19.4306 20.5694C19.7947 20.9335 19.9995 21.4271 20 21.942V30H23C23.2652 30 23.5196 29.8946 23.7071 29.7071C23.8946 29.5196 24 29.2652 24 29V6.922C23.9989 6.14736 23.6908 5.40475 23.143 4.857C22.5952 4.30925 21.8526 4.00106 21.078 4ZM14 18H13C12.7348 18 12.4804 17.8946 12.2929 17.7071C12.1054 17.5196 12 17.2652 12 17C12 16.7348 12.1054 16.4804 12.2929 16.2929C12.4804 16.1054 12.7348 16 13 16H14C14.2652 16 14.5196 16.1054 14.7071 16.2929C14.8946 16.4804 15 16.7348 15 17C15 17.2652 14.8946 17.5196 14.7071 17.7071C14.5196 17.8946 14.2652 18 14 18ZM14 14H13C12.7348 14 12.4804 13.8946 12.2929 13.7071C12.1054 13.5196 12 13.2652 12 13C12 12.7348 12.1054 12.4804 12.2929 12.2929C12.4804 12.1054 12.7348 12 13 12H14C14.2652 12 14.5196 12.1054 14.7071 12.2929C14.8946 12.4804 15 12.7348 15 13C15 13.2652 14.8946 13.5196 14.7071 13.7071C14.5196 13.8946 14.2652 14 14 14ZM14 10H13C12.7348 10 12.4804 9.89464 12.2929 9.70711C12.1054 9.51957 12 9.26522 12 9C12 8.73478 12.1054 8.48043 12.2929 8.29289C12.4804 8.10536 12.7348 8 13 8H14C14.2652 8 14.5196 8.10536 14.7071 8.29289C14.8946 8.48043 15 8.73478 15 9C15 9.26522 14.8946 9.51957 14.7071 9.70711C14.5196 9.89464 14.2652 10 14 10ZM19 18H18C17.7348 18 17.4804 17.8946 17.2929 17.7071C17.1054 17.5196 17 17.2652 17 17C17 16.7348 17.1054 16.4804 17.2929 16.2929C17.4804 16.1054 17.7348 16 18 16H19C19.2652 16 19.5196 16.1054 19.7071 16.2929C19.8946 16.4804 20 16.7348 20 17C20 17.2652 19.8946 17.5196 19.7071 17.7071C19.5196 17.8946 19.2652 18 19 18ZM19 14H18C17.7348 14 17.4804 13.8946 17.2929 13.7071C17.1054 13.5196 17 13.2652 17 13C17 12.7348 17.1054 12.4804 17.2929 12.2929C17.4804 12.1054 17.7348 12 18 12H19C19.2652 12 19.5196 12.1054 19.7071 12.2929C19.8946 12.4804 20 12.7348 20 13C20 13.2652 19.8946 13.5196 19.7071 13.7071C19.5196 13.8946 19.2652 14 19 14ZM19 10H18C17.7348 10 17.4804 9.89464 17.2929 9.70711C17.1054 9.51957 17 9.26522 17 9C17 8.73478 17.1054 8.48043 17.2929 8.29289C17.4804 8.10536 17.7348 8 18 8H19C19.2652 8 19.5196 8.10536 19.7071 8.29289C19.8946 8.48043 20 8.73478 20 9C20 9.26522 19.8946 9.51957 19.7071 9.70711C19.5196 9.89464 19.2652 10 19 10Z" fill="white"/>
</svg>
