<svg width="101" height="31" viewBox="0 0 101 31" fill="none" xmlns="http://www.w3.org/2000/svg">
<path d="M10.6694 29.8899C8.62391 29.8899 6.80573 29.5395 5.21482 28.8388C3.63338 28.138 2.38338 27.1626 1.46482 25.9126C0.546261 24.6626 0.0585716 23.2185 0.00175351 21.5803H5.34266C5.39001 22.3662 5.65043 23.0528 6.12391 23.6399C6.5974 24.2176 7.22713 24.6674 8.01312 24.9893C8.7991 25.3113 9.67978 25.4723 10.6552 25.4723C11.6968 25.4723 12.6201 25.2924 13.425 24.9325C14.23 24.5632 14.8597 24.0518 15.3143 23.3984C15.7688 22.745 15.9913 21.9922 15.9819 21.1399C15.9913 20.2592 15.7641 19.4827 15.3 18.8104C14.836 18.138 14.1637 17.6125 13.283 17.2337C12.4118 16.8549 11.3607 16.6655 10.1296 16.6655H7.55857V12.603H10.1296C11.1429 12.603 12.0283 12.4278 12.7858 12.0774C13.5529 11.727 14.1542 11.2346 14.5898 10.6001C15.0254 9.9562 15.2385 9.21283 15.229 8.37003C15.2385 7.54616 15.0538 6.8312 14.675 6.22514C14.3057 5.60961 13.7802 5.13139 13.0983 4.79048C12.426 4.44957 11.6353 4.27912 10.7262 4.27912C9.83603 4.27912 9.01217 4.4401 8.2546 4.76207C7.49702 5.08404 6.88622 5.54332 6.42221 6.13991C5.95819 6.72704 5.71198 7.42779 5.68357 8.24219H0.612549C0.650428 6.6134 1.11918 5.18348 2.0188 3.95241C2.92789 2.71188 4.14001 1.74597 5.65516 1.05469C7.17031 0.353929 8.87013 0.00355005 10.7546 0.00355005C12.6959 0.00355005 14.3815 0.368133 15.8114 1.0973C17.2508 1.817 18.3635 2.78764 19.1495 4.00923C19.9355 5.23082 20.3285 6.58025 20.3285 8.05753C20.3379 9.69579 19.855 11.0689 18.8796 12.1768C17.9137 13.2848 16.6447 14.0092 15.0728 14.3501V14.5774C17.1182 14.8615 18.6855 15.6191 19.7745 16.8501C20.873 18.0717 21.4175 19.5916 21.408 21.4098C21.408 23.0386 20.944 24.4969 20.016 25.7848C19.0974 27.0632 17.8285 28.067 16.2091 28.7962C14.5993 29.5253 12.7527 29.8899 10.6694 29.8899ZM37.0366 30.0462C34.6975 30.0462 32.69 29.4543 31.0138 28.2706C29.3472 27.0774 28.064 25.3587 27.1644 23.1143C26.2742 20.8606 25.8292 18.1475 25.8292 14.9751C25.8386 11.8028 26.2884 9.10393 27.1786 6.87855C28.0782 4.6437 29.3614 2.93916 31.028 1.76491C32.7042 0.590672 34.707 0.00355005 37.0366 0.00355005C39.3661 0.00355005 41.3689 0.590672 43.0451 1.76491C44.7212 2.93916 46.0044 4.6437 46.8945 6.87855C47.7941 9.1134 48.2439 11.8123 48.2439 14.9751C48.2439 18.157 47.7941 20.8748 46.8945 23.1286C46.0044 25.3729 44.7212 27.0869 43.0451 28.2706C41.3784 29.4543 39.3756 30.0462 37.0366 30.0462ZM37.0366 25.6001C38.8547 25.6001 40.2894 24.7053 41.3405 22.9155C42.4011 21.1162 42.9314 18.4695 42.9314 14.9751C42.9314 12.6645 42.69 10.7232 42.207 9.15128C41.7241 7.57931 41.0422 6.3956 40.1616 5.60014C39.2809 4.79522 38.2392 4.39276 37.0366 4.39276C35.2278 4.39276 33.7979 5.29238 32.7468 7.09162C31.6956 8.88139 31.1653 11.5092 31.1559 14.9751C31.1464 17.2952 31.3784 19.246 31.8519 20.8274C32.3349 22.4089 33.0167 23.602 33.8974 24.407C34.778 25.2024 35.8244 25.6001 37.0366 25.6001ZM63.7162 30.0462C61.3772 30.0462 59.3697 29.4543 57.6935 28.2706C56.0268 27.0774 54.7437 25.3587 53.8441 23.1143C52.9539 20.8606 52.5089 18.1475 52.5089 14.9751C52.5183 11.8028 52.9681 9.10393 53.8583 6.87855C54.7579 4.6437 56.0411 2.93916 57.7077 1.76491C59.3839 0.590672 61.3867 0.00355005 63.7162 0.00355005C66.0458 0.00355005 68.0486 0.590672 69.7248 1.76491C71.4009 2.93916 72.684 4.6437 73.5742 6.87855C74.4738 9.1134 74.9236 11.8123 74.9236 14.9751C74.9236 18.157 74.4738 20.8748 73.5742 23.1286C72.684 25.3729 71.4009 27.0869 69.7248 28.2706C68.0581 29.4543 66.0553 30.0462 63.7162 30.0462ZM63.7162 25.6001C65.5344 25.6001 66.9691 24.7053 68.0202 22.9155C69.0808 21.1162 69.6111 18.4695 69.6111 14.9751C69.6111 12.6645 69.3697 10.7232 68.8867 9.15128C68.4037 7.57931 67.7219 6.3956 66.8412 5.60014C65.9606 4.79522 64.9189 4.39276 63.7162 4.39276C61.9075 4.39276 60.4776 5.29238 59.4265 7.09162C58.3753 8.88139 57.845 11.5092 57.8356 14.9751C57.8261 17.2952 58.0581 19.246 58.5316 20.8274C59.0145 22.4089 59.6964 23.602 60.577 24.407C61.4577 25.2024 62.5041 25.6001 63.7162 25.6001ZM88.2795 24.8331V5.17401H92.7397V24.8331H88.2795ZM80.68 17.2337V12.7734H100.339V17.2337H80.68Z" fill="url(#paint0_linear_21301_42902)"/>
<defs>
<linearGradient id="paint0_linear_21301_42902" x1="38.2649" y1="-4.13977" x2="60.2211" y2="27.4908" gradientUnits="userSpaceOnUse">
<stop stop-color="#4361EE"/>
<stop offset="1" stop-color="white"/>
</linearGradient>
</defs>
</svg>
