<svg width="35" height="35" viewBox="0 0 35 35" fill="none" xmlns="http://www.w3.org/2000/svg">
<path d="M33.9062 16.4062V20.7812C33.9062 21.9877 32.9252 22.9688 31.7188 22.9688V25.1562C31.7188 28.7755 28.7755 31.7188 25.1562 31.7188H22.9688C22.9688 32.9252 21.9877 33.9062 20.7812 33.9062H16.4062C15.1998 33.9062 14.2188 32.9252 14.2188 31.7188V29.5312C14.2188 28.3248 15.1998 27.3438 16.4062 27.3438H20.7812C21.9877 27.3438 22.9688 28.3248 22.9688 29.5312H25.1562C27.5691 29.5312 29.5312 27.5691 29.5312 25.1562V22.9688C28.3248 22.9688 27.3438 21.9877 27.3438 20.7812V16.4062C27.3438 15.2184 28.2964 14.2548 29.4766 14.2242C28.9242 8.09922 23.7672 3.28125 17.5 3.28125C11.2328 3.28125 6.07688 8.09922 5.52344 14.2242C6.70359 14.2537 7.65625 15.2184 7.65625 16.4062V20.7812C7.65625 21.9877 6.67516 22.9688 5.46875 22.9688H3.28125C2.07484 22.9688 1.09375 21.9877 1.09375 20.7812V16.4062C1.09375 15.1998 2.07484 14.2188 3.28125 14.2188H3.33703C3.89922 6.88953 10.0297 1.09375 17.5 1.09375C24.9703 1.09375 31.1008 6.88953 31.663 14.2188H31.7188C32.9252 14.2188 33.9062 15.1998 33.9062 16.4062ZM19.6875 26.25C22.5389 26.25 24.9637 24.4202 25.8672 21.875H9.13281C10.0363 24.4202 12.4611 26.25 15.3125 26.25H19.6875ZM16.4062 10.9375V9.54078C15.7555 9.16234 15.3125 8.46453 15.3125 7.65625C15.3125 6.44766 16.2914 5.46875 17.5 5.46875C18.7086 5.46875 19.6875 6.44766 19.6875 7.65625C19.6875 8.46344 19.2445 9.16125 18.5938 9.54078V10.9375H19.6875C23.3067 10.9375 26.25 13.8808 26.25 17.5V19.6875H8.75V17.5C8.75 13.8808 11.6933 10.9375 15.3125 10.9375H16.4062ZM16.4062 15.8594C16.4062 14.9537 15.6713 14.2188 14.7656 14.2188C13.86 14.2188 13.125 14.9537 13.125 15.8594C13.125 16.765 13.86 17.5 14.7656 17.5C15.6713 17.5 16.4062 16.765 16.4062 15.8594ZM18.5938 15.8594C18.5938 16.765 19.3288 17.5 20.2344 17.5C21.14 17.5 21.875 16.765 21.875 15.8594C21.875 14.9537 21.14 14.2188 20.2344 14.2188C19.3288 14.2188 18.5938 14.9537 18.5938 15.8594Z" fill="white"/>
</svg>
