<svg width="40" height="40" viewBox="0 0 40 40" fill="none" xmlns="http://www.w3.org/2000/svg">
<path d="M37.4715 12.188C37.2815 11.7473 37.2549 10.9714 36.6901 10.9068L34.277 10.5568L33.2017 8.37551C32.9676 7.84943 32.1894 8.06852 31.7388 8.02552C31.6216 8.02486 31.5065 8.05737 31.407 8.1193C31.3074 8.18123 31.2274 8.27005 31.1762 8.37551L30.1009 10.5568L27.6878 10.9068C27.1224 10.9716 27.0969 11.7461 26.9063 12.188C26.8698 12.2992 26.8651 12.4184 26.8927 12.5322C26.9204 12.6459 26.9792 12.7497 27.0626 12.8318L28.8068 14.5318L28.3942 16.9255C28.286 17.4981 29.0164 17.7537 29.3757 18.0693C29.4689 18.1394 29.5803 18.1813 29.6966 18.1902C29.8129 18.1991 29.9293 18.1745 30.0321 18.1193L32.1889 16.988L34.3457 18.1193C34.449 18.1725 34.5651 18.196 34.681 18.1872C34.7969 18.1783 34.908 18.1375 35.0021 18.0693C35.3607 17.7545 36.0918 17.4976 35.9836 16.9255L35.571 14.5318L37.3152 12.8318C37.3986 12.7497 37.4575 12.6459 37.4851 12.5322C37.5127 12.4184 37.508 12.2992 37.4715 12.188Z" fill="#3C3E49"/>
<path d="M17.2572 14.725L19.9954 13.2875L22.7336 14.725C22.836 14.7804 22.952 14.8056 23.0681 14.7979C23.1843 14.7902 23.2959 14.7497 23.39 14.6812L24.3028 14.0188C24.3967 13.9497 24.4693 13.8557 24.5124 13.7474C24.5555 13.6391 24.5674 13.5209 24.5466 13.4062L24.0277 10.3562L26.2407 8.2C26.3241 8.1179 26.383 8.01413 26.4106 7.90039C26.4382 7.78665 26.4335 7.66746 26.397 7.55625L26.0532 6.49375C26.0171 6.38256 25.9505 6.28375 25.861 6.20859C25.7714 6.13344 25.6626 6.08497 25.5468 6.06871L22.4835 5.625L21.1144 2.85C21.0635 2.74562 20.9844 2.65755 20.8861 2.59571C20.7878 2.53387 20.6742 2.50072 20.5581 2.5H19.4328C19.3166 2.50072 19.203 2.53387 19.1047 2.59571C19.0064 2.65755 18.9273 2.74562 18.8764 2.85L17.5073 5.625L14.444 6.06875C14.3282 6.085 14.2194 6.13347 14.1298 6.20863C14.0403 6.28378 13.9737 6.3826 13.9376 6.49379L13.5938 7.55625C13.5573 7.66746 13.5526 7.78665 13.5802 7.90039C13.6079 8.01413 13.6667 8.1179 13.7501 8.2L15.9631 10.3562L15.4442 13.4062C15.4235 13.5209 15.4353 13.6391 15.4784 13.7474C15.5215 13.8557 15.5942 13.9497 15.6881 14.0188L16.6008 14.6812C16.6952 14.7491 16.8068 14.7892 16.9228 14.7969C17.0388 14.8047 17.1546 14.7797 17.2572 14.725Z" fill="#3C3E49"/>
<path d="M11.5997 16.9254L11.187 14.5317L12.9313 12.8317C13.3545 12.4448 12.9062 11.7693 12.8063 11.3317C12.7715 11.2209 12.7061 11.1221 12.6176 11.0469C12.5291 10.9717 12.4211 10.9231 12.3062 10.9067L9.89303 10.5567L8.81772 8.37544C8.76649 8.26998 8.68647 8.18115 8.58691 8.11922C8.48735 8.05729 8.37231 8.02478 8.25506 8.02544C7.80565 8.06829 7.02568 7.84982 6.79222 8.37544L5.71691 10.5567L3.30378 10.9067C3.1888 10.9231 3.08081 10.9717 2.99231 11.0469C2.9038 11.1221 2.8384 11.2209 2.80367 11.3317C2.70367 11.7695 2.25554 12.4446 2.67862 12.8317L4.42288 14.5317L4.01025 16.9254C3.99062 17.0407 4.00363 17.1592 4.04783 17.2674C4.09203 17.3756 4.16564 17.4694 4.26033 17.5379C4.63563 17.7588 5.16632 18.4098 5.64815 18.1192L7.80497 16.9879L9.96177 18.1192C10.0651 18.1724 10.1812 18.1959 10.297 18.1871C10.4129 18.1782 10.5241 18.1374 10.6182 18.0692C10.9767 17.7544 11.7078 17.4975 11.5997 16.9254Z" fill="#3C3E49"/>
<path d="M13.9741 24.8047H12.4925C12.1612 24.8056 11.8438 24.9376 11.6095 25.1718C11.3753 25.406 11.2432 25.7234 11.2422 26.0547V36.2484C11.2432 36.5797 11.3753 36.8971 11.6095 37.1313C11.8438 37.3655 12.1612 37.4975 12.4925 37.4984H13.9741C14.3049 37.496 14.6215 37.3635 14.8554 37.1297C15.0894 36.8958 15.2219 36.5792 15.2244 36.2484V26.0547C15.2219 25.7239 15.0894 25.4074 14.8554 25.1735C14.6215 24.9396 14.3049 24.8071 13.9741 24.8047Z" fill="#3C3E49"/>
<path d="M27.2996 24.4625H24.849V20.6938C24.8482 19.6821 24.4464 18.712 23.7316 17.9961C23.0167 17.2803 22.0472 16.8771 21.0355 16.875C20.4785 16.8751 19.9444 17.0963 19.5505 17.4901C19.1566 17.8839 18.9352 18.418 18.935 18.975V24.3688C18.9345 24.7234 18.7934 25.0634 18.5426 25.3141C18.2918 25.5649 17.9518 25.7059 17.5971 25.7063H16.4531C16.4708 25.8221 16.4791 25.9391 16.4781 26.0562V36.25C16.4793 36.3672 16.471 36.4842 16.4531 36.6H26.3931C27.1814 36.6019 27.9446 36.323 28.546 35.8134C29.1474 35.3038 29.5477 34.5967 29.6752 33.8188L30.5817 28.3313C30.6561 27.8556 30.6271 27.3695 30.4968 26.906C30.3664 26.4426 30.1377 26.0127 29.8263 25.6455C29.5148 25.2784 29.1279 24.9827 28.6919 24.7786C28.2559 24.5744 27.781 24.4666 27.2996 24.4625Z" fill="#3C3E49"/>
</svg>
