<svg width="34" height="26" viewBox="0 0 34 26" fill="none" xmlns="http://www.w3.org/2000/svg">
<path d="M29.4324 7.76055V11.0254C29.4324 11.2387 29.2602 11.4109 29.0469 11.4109H28.3906V7.375H29.0469C29.2602 7.375 29.4324 7.54727 29.4324 7.76055Z" fill="white"/>
<path d="M27.5914 12.7918C27.5996 13.1773 27.452 13.5465 27.173 13.8172C26.8859 14.1043 26.5168 14.2602 26.123 14.2602H15.3359C14.5238 14.2602 13.8594 13.5957 13.8594 12.7836V11.8156V11.8074V6.96758V6.00781C13.8594 5.1957 14.5238 4.53125 15.3359 4.53125H17.0258H24.4578H26.1148C26.927 4.53125 27.5914 5.1957 27.5914 6.00781V6.98399V11.8156V12.7918ZM25.1223 8.8543V7.025C25.1223 6.65586 24.8187 6.36055 24.4578 6.36055H22.6285C22.2594 6.36055 21.9641 6.66406 21.9641 7.025V8.8543C21.9641 9.22344 22.2676 9.52695 22.6285 9.52695H24.4578C24.8187 9.52695 25.1141 9.22344 25.1223 8.8543ZM22.4234 12.2668C22.4234 12.0453 22.243 11.8648 22.0215 11.8648H19.4293C19.2078 11.8648 19.0273 12.0453 19.0273 12.2668C19.0273 12.4883 19.2078 12.6687 19.4293 12.6687H22.0215C22.243 12.6687 22.4234 12.4883 22.4234 12.2668ZM19.4867 8.87891C19.4867 8.8707 19.4867 8.8625 19.4867 8.8625V7.0332C19.4867 6.66406 19.1832 6.36875 18.8223 6.36875H16.993C16.6238 6.36875 16.3285 6.67227 16.3285 7.0332V8.8625C16.3285 9.23164 16.632 9.53516 16.993 9.53516H18.8223C19.1832 9.52695 19.4703 9.23984 19.4867 8.87891Z" fill="white"/>
<path d="M22.7656 7.16406H24.3242V8.72266H22.7656V7.16406Z" fill="white"/>
<path d="M24.0582 3.2582V3.72578H17.4219V3.2582C17.4219 3.07773 17.5777 2.92188 17.7582 2.92188H23.7219C23.9023 2.92188 24.0582 3.07773 24.0582 3.2582Z" fill="white"/>
<path d="M20.3027 17.9641V20.6957C20.3027 21.5652 19.5973 22.2789 18.7277 22.2789H6.88242C6.64453 22.2789 6.41484 22.3773 6.24258 22.5496L2.95312 25.8391V23.1895C2.95312 22.6727 2.53477 22.2625 2.02617 22.2625H1.5832C0.705469 22.2625 0 21.557 0 20.6793V10.45C0 9.58047 0.705469 8.875 1.5832 8.875H6.97266V15.0684C6.97266 16.668 8.27695 17.9723 9.87656 17.9723H20.3027V17.9641Z" fill="white"/>
<path d="M17.1328 7.16406H18.6914V8.72266H17.1328V7.16406Z" fill="white"/>
<path d="M13.0578 7.36719V11.4031H12.3934C12.1801 11.4031 12.0078 11.2309 12.0078 11.0176V7.75273C12.0078 7.53945 12.1801 7.36719 12.3934 7.36719H13.0578Z" fill="white"/>
<path d="M33.6707 2.1V15.0527C33.6707 16.2094 32.7273 17.1527 31.5707 17.1527H31.0129C30.4305 17.1527 29.9547 17.6285 29.9547 18.2109V21.8121L25.607 17.4645C25.4102 17.2676 25.1313 17.1527 24.8523 17.1527H20.7016H9.87344C8.7168 17.1527 7.77344 16.2094 7.77344 15.0527V8.57227C7.78164 8.53945 7.78984 8.50664 7.78984 8.47383C7.78984 8.44102 7.78984 8.4082 7.77344 8.37539V2.1C7.78164 0.943359 8.725 0 9.87344 0H31.5707C32.7273 0 33.6707 0.951562 33.6707 2.1ZM30.2336 11.0168V7.76836C30.2336 7.11211 29.7004 6.57891 29.0441 6.57891H28.3879V5.99648C28.3879 4.7332 27.3625 3.71602 26.1074 3.71602H24.8605V3.24844C24.8605 2.625 24.352 2.1082 23.7203 2.1082H17.7566C17.1332 2.1082 16.6246 2.6168 16.6246 3.24844V3.71602H15.3367C14.0816 3.71602 13.0562 4.74141 13.0562 5.99648V6.5625H12.3918C11.7355 6.5625 11.2023 7.0957 11.2023 7.75195V11.0168C11.2023 11.673 11.7355 12.2063 12.3918 12.2063H13.0562V12.7887C13.0562 14.0437 14.0816 15.0691 15.3367 15.0691H26.1238C26.7309 15.0691 27.3133 14.823 27.748 14.3883C28.1746 13.9535 28.3961 13.3875 28.3879 12.7887V12.2063H29.0441C29.7004 12.2063 30.2336 11.673 30.2336 11.0168Z" fill="white"/>
</svg>
