<svg width="64" height="54" viewBox="0 0 64 54" fill="none" xmlns="http://www.w3.org/2000/svg">
<g clip-path="url(#clip0_21320_62637)">
<path d="M16.0763 34.1394H15.9688V29.4935C17.8099 28.8406 19.1328 27.0825 19.1328 25.0195C19.1328 22.4029 17.0034 20.2734 14.3867 20.2734C11.77 20.2734 9.64062 22.4029 9.64062 25.0195C9.64062 27.0825 10.9635 28.8406 12.8047 29.4935V34.1394H6.58203C5.70875 34.1394 5 34.8482 5 35.7214V48.3777C5 49.252 5.70875 49.9597 6.58203 49.9597H16.0331L23.0352 42.0991L16.0763 34.1394Z" fill="white"/>
<path d="M33.0659 34.1394H31.4763V22.1107C33.3175 21.4577 34.6404 19.6997 34.6404 17.6367C34.6404 15.02 32.511 12.8906 29.8943 12.8906C27.2776 12.8906 25.1482 15.02 25.1482 17.6367C25.1482 19.6997 26.4711 21.4577 28.3123 22.1107V34.1394H20.2819L26.3389 41.0677C26.8642 41.6678 26.86 42.5653 26.3295 43.1612L20.2734 49.9597H33.0214L40.0235 42.0991L33.0659 34.1394Z" fill="white"/>
<path d="M58.6027 40.9385L53.0192 34.6705C52.7196 34.333 52.2893 34.14 51.8379 34.14H44.5321V18.9504H57.4214C58.7006 18.992 59.4879 17.3744 58.667 16.3938L54.9071 11.5876L58.6839 6.58207C59.4799 5.59615 58.6872 4.00663 57.4214 4.04765H42.95C42.0756 4.04765 41.3679 4.75535 41.3679 5.62968V34.14H37.2673L43.3244 41.0682C43.8486 41.6684 43.8443 42.5659 43.3138 43.1618L37.2578 49.9603H51.8378C52.2945 49.9603 52.728 49.7631 53.0286 49.4193L58.6121 43.0321C59.1374 42.4319 59.1332 41.5344 58.6027 40.9385Z" fill="white"/>
</g>
<defs>
<clipPath id="clip0_21320_62637">
<rect width="54" height="54" fill="white" transform="translate(5)"/>
</clipPath>
</defs>
</svg>
