<svg width="52" height="52" viewBox="0 0 52 52" fill="none" xmlns="http://www.w3.org/2000/svg">
<g clip-path="url(#clip0_21430_42596)">
<path d="M50.5064 19.5167C50.3499 19.5543 50.2146 19.6523 50.1302 19.7893C50.0457 19.9264 50.0188 20.0912 50.0555 20.248C50.4996 22.1332 50.7246 24.0635 50.7258 26.0005C50.7179 32.5543 48.111 38.8374 43.4767 43.4717C38.8424 48.1059 32.5593 50.7129 26.0055 50.7208C20.6226 50.7396 15.3843 48.9802 11.1042 45.7158C11.6789 44.8589 11.9085 43.8165 11.747 42.7975C11.5856 41.7785 11.045 40.8581 10.2336 40.2209C9.42214 39.5836 8.39988 39.2766 7.37163 39.3612C6.34337 39.4459 5.38511 39.9161 4.68888 40.6775C3.99264 41.4389 3.60988 42.4353 3.61729 43.467C3.62471 44.4987 4.02175 45.4895 4.72886 46.2408C5.43597 46.9921 6.40089 47.4484 7.43025 47.5183C8.45961 47.5882 9.47736 47.2665 10.2795 46.6176C14.786 50.087 20.3183 51.9591 26.0055 51.9395C29.9234 51.9353 33.7897 51.0445 37.3145 49.334C40.8394 47.6234 43.9314 45.1374 46.3591 42.0622C48.7867 38.987 50.487 35.4023 51.3326 31.5766C52.1782 27.751 52.1471 23.7836 51.2417 19.9717C51.2236 19.8934 51.1901 19.8195 51.1432 19.7542C51.0964 19.6889 51.0371 19.6335 50.9688 19.5912C50.9004 19.5489 50.8244 19.5205 50.745 19.5078C50.6657 19.495 50.5846 19.498 50.5064 19.5167Z" fill="white"/>
<path d="M1.28127 26.0017C1.28154 21.6045 2.45461 17.2869 4.67953 13.4942C6.90444 9.70142 10.1007 6.57072 13.9387 4.42487C17.7768 2.27901 22.1177 1.19565 26.5139 1.28649C30.9102 1.37733 35.2027 2.63909 38.9488 4.94166C38.5621 5.76889 38.5002 6.71117 38.7754 7.58187C39.0505 8.45256 39.6427 9.18817 40.4345 9.64299C41.2263 10.0978 42.16 10.2387 43.0508 10.0377C43.9415 9.83669 44.7243 9.3085 45.244 8.55773C45.7638 7.80695 45.9827 6.88835 45.8572 5.98387C45.7318 5.07939 45.2713 4.25499 44.5669 3.67395C43.8624 3.09292 42.9655 2.79763 42.0537 2.84658C41.1418 2.89552 40.2817 3.28512 39.6435 3.93822C35.7141 1.50913 31.2073 0.17341 26.5889 0.0691136C21.9705 -0.0351825 17.408 1.09573 13.3729 3.34496C9.33789 5.5942 5.97669 8.88016 3.63669 12.8633C1.29669 16.8463 0.0627972 21.3821 0.0625245 26.0017C0.0603398 27.5851 0.204494 29.1654 0.493149 30.7223C0.517926 30.8626 0.591408 30.9896 0.700653 31.081C0.809897 31.1724 0.947895 31.2223 1.09034 31.222C1.12724 31.2219 1.16402 31.2178 1.20002 31.2098C1.35888 31.1811 1.49985 31.0905 1.59201 30.958C1.68417 30.8255 1.71998 30.6618 1.69159 30.5029C1.41774 29.0182 1.2804 27.5115 1.28127 26.0017Z" fill="white"/>
<path d="M22.3438 21.9784V22.3441H29.6562V21.9784C29.5994 17.0384 22.4006 17.0384 22.3438 21.9784Z" fill="white"/>
<path d="M43.0466 13.3405C36.1891 13.4096 29.5916 9.17238 27.0688 7.34425C26.759 7.12046 26.3865 7 26.0044 7C25.6222 7 25.2498 7.12046 24.94 7.34425C22.4172 9.17238 15.8034 13.3933 8.96219 13.3405C8.71923 13.3381 8.47819 13.3838 8.25295 13.4749C8.02771 13.566 7.82272 13.7008 7.64978 13.8715C7.47684 14.0421 7.33937 14.2453 7.24529 14.4693C7.1512 14.6934 7.10235 14.9338 7.10156 15.1768C7.10563 24.5571 8.9825 37.9755 25.1797 46.1736C25.4351 46.3038 25.7177 46.3717 26.0044 46.3717C26.2911 46.3717 26.5737 46.3038 26.8291 46.1736C43.0263 37.9755 44.9031 24.5571 44.9072 15.1768C44.9035 14.6866 44.7056 14.218 44.3567 13.8737C44.0079 13.5295 43.5367 13.3377 43.0466 13.3405ZM32.7075 31.8899C32.7075 32.698 32.3865 33.4729 31.8151 34.0443C31.2437 34.6157 30.4687 34.9368 29.6606 34.9368H22.3481C21.54 34.9368 20.7651 34.6157 20.1937 34.0443C19.6223 33.4729 19.3013 32.698 19.3013 31.8899V25.3899C19.3016 24.7973 19.4747 24.2177 19.7994 23.7219C20.1241 23.2262 20.5863 22.836 21.1294 22.5989V21.9693C21.2025 15.4489 30.8063 15.4489 30.8794 21.9693V22.5989C31.4225 22.836 31.8847 23.2262 32.2094 23.7219C32.5341 24.2177 32.7072 24.7973 32.7075 25.3899V31.8899Z" fill="white"/>
<path d="M26.9958 27.9379C26.9868 27.8834 26.9893 27.8276 27.0033 27.7741C27.0173 27.7206 27.0425 27.6707 27.0771 27.6276C27.2131 27.4308 27.2928 27.2005 27.3074 26.9617C27.322 26.7229 27.271 26.4847 27.1599 26.2728C27.0488 26.0609 26.8819 25.8834 26.6771 25.7596C26.4724 25.6358 26.2377 25.5703 25.9985 25.5703C25.7592 25.5703 25.5245 25.6358 25.3198 25.7596C25.1151 25.8834 24.9481 26.0609 24.837 26.2728C24.7259 26.4847 24.6749 26.7229 24.6895 26.9617C24.7041 27.2005 24.7838 27.4308 24.9199 27.6276C24.9543 27.6702 24.9793 27.7197 24.9933 27.7727C25.0073 27.8257 25.01 27.881 25.0011 27.9351C24.9057 28.4108 24.6355 29.7709 24.445 30.7151C24.4218 30.8328 24.425 30.9543 24.4544 31.0706C24.4837 31.187 24.5385 31.2954 24.6147 31.3881C24.691 31.4808 24.7868 31.5554 24.8954 31.6066C25.0039 31.6579 25.1224 31.6844 25.2424 31.6844H26.7537C26.8739 31.6844 26.9927 31.6578 27.1013 31.6064C27.21 31.555 27.306 31.4801 27.3822 31.3872C27.4585 31.2942 27.5131 31.1855 27.5423 31.0688C27.5714 30.9522 27.5743 30.8305 27.5507 30.7126L26.9958 27.9379Z" fill="white"/>
</g>
<defs>
<clipPath id="clip0_21430_42596">
<rect width="52" height="52" fill="white"/>
</clipPath>
</defs>
</svg>
