<svg width="34" height="34" viewBox="0 0 34 34" fill="none" xmlns="http://www.w3.org/2000/svg">
<path d="M21.5324 20.3404C21.5324 17.7016 19.386 15.5547 16.7467 15.5547C14.1078 15.5547 11.9609 17.7016 11.9609 20.3404C11.9609 22.9792 14.1078 25.1261 16.7467 25.1261C19.386 25.1261 21.5324 22.9792 21.5324 20.3404Z" fill="#3C3E49"/>
<path d="M20.3393 25.125H16.75H13.1607C10.5176 25.125 8.375 27.2676 8.375 29.9107V33.5H25.125V29.9107C25.125 27.2676 22.9824 25.125 20.3393 25.125Z" fill="#3C3E49"/>
<path d="M29.9096 0H21.5346C19.5554 0 17.9453 1.61004 17.9453 3.58929V8.375C17.9453 10.3542 19.5554 11.9643 21.5346 11.9643H22.2672L21.5965 13.9786C21.4306 14.4751 21.607 15.022 22.0312 15.3275C22.2403 15.4782 22.4857 15.5536 22.731 15.5536C22.9834 15.5536 23.2369 15.4735 23.4484 15.3141L27.9152 11.9643H29.9096C31.8888 11.9643 33.4989 10.3542 33.4989 8.375V3.58929C33.4989 1.61004 31.8888 0 29.9096 0ZM29.8243 3.29865L26.235 9.28079C26.1404 9.43852 25.978 9.54426 25.7957 9.56646C25.7712 9.56938 25.7466 9.57114 25.7221 9.57114C25.5644 9.57114 25.4125 9.50863 25.2991 9.39588L22.9063 7.00302C22.6726 6.76934 22.6726 6.39079 22.9063 6.15711C23.14 5.92343 23.5185 5.92343 23.7522 6.15711L25.6029 8.00842L28.7985 2.68291C28.969 2.39899 29.3406 2.30903 29.6187 2.47786C29.9026 2.64786 29.9949 3.01532 29.8243 3.29865Z" fill="#3C3E49"/>
<path d="M11.9643 0H3.58929C1.61004 0 0 1.61004 0 3.58929V8.375C0 10.3542 1.61004 11.9643 3.58929 11.9643H5.58372L10.0505 15.3141C10.2619 15.4735 10.5155 15.5536 10.7679 15.5536C11.0132 15.5536 11.2586 15.4782 11.4677 15.3275C11.8918 15.022 12.0683 14.4751 11.9024 13.9786L11.2317 11.9643H11.9643C13.9435 11.9643 15.5536 10.3542 15.5536 8.375V3.58929C15.5536 1.61004 13.9435 0 11.9643 0ZM10.5926 8.55026C10.8263 8.78394 10.8263 9.16249 10.5926 9.39617C10.4758 9.51301 10.3227 9.57143 10.1696 9.57143C10.0166 9.57143 9.86353 9.51301 9.74669 9.39617L7.17857 6.82805L4.61046 9.39617C4.49362 9.51301 4.34056 9.57143 4.1875 9.57143C4.03444 9.57143 3.88138 9.51301 3.76454 9.39617C3.53087 9.16249 3.53087 8.78394 3.76454 8.55026L6.33266 5.98214L3.76454 3.41403C3.53087 3.18035 3.53087 2.80179 3.76454 2.56812C3.99822 2.33444 4.37678 2.33444 4.61046 2.56812L7.17857 5.13623L9.74669 2.56812C9.98036 2.33444 10.3589 2.33444 10.5926 2.56812C10.8263 2.80179 10.8263 3.18035 10.5926 3.41403L8.02448 5.98214L10.5926 8.55026Z" fill="#3C3E49"/>
</svg>
