<svg width="74" height="31" viewBox="0 0 74 31" fill="none" xmlns="http://www.w3.org/2000/svg">
<path d="M10.6701 29.8899C8.62465 29.8899 6.80646 29.5395 5.21555 28.8388C3.63411 28.138 2.38411 27.1626 1.46555 25.9126C0.546993 24.6626 0.0593041 23.2185 0.00248593 21.5803H5.34339C5.39074 22.3662 5.65116 23.0528 6.12464 23.6399C6.59813 24.2176 7.22786 24.6674 8.01385 24.9893C8.79983 25.3113 9.68052 25.4723 10.6559 25.4723C11.6976 25.4723 12.6209 25.2924 13.4258 24.9325C14.2307 24.5632 14.8604 24.0518 15.315 23.3984C15.7695 22.745 15.9921 21.9922 15.9826 21.1399C15.9921 20.2592 15.7648 19.4827 15.3008 18.8104C14.8368 18.138 14.1644 17.6125 13.2837 17.2337C12.4125 16.8549 11.3614 16.6655 10.1303 16.6655H7.5593V12.603H10.1303C11.1436 12.603 12.029 12.4278 12.7866 12.0774C13.5536 11.727 14.1549 11.2346 14.5906 10.6001C15.0262 9.9562 15.2392 9.21283 15.2298 8.37003C15.2392 7.54616 15.0546 6.8312 14.6758 6.22514C14.3065 5.60961 13.7809 5.13139 13.0991 4.79048C12.4267 4.44957 11.636 4.27912 10.7269 4.27912C9.83677 4.27912 9.0129 4.4401 8.25533 4.76207C7.49775 5.08404 6.88696 5.54332 6.42294 6.13991C5.95893 6.72704 5.71271 7.42779 5.6843 8.24219H0.613281C0.65116 6.6134 1.11991 5.18348 2.01953 3.95241C2.92862 2.71188 4.14074 1.74597 5.65589 1.05469C7.17105 0.353929 8.87086 0.00355005 10.7553 0.00355005C12.6966 0.00355005 14.3822 0.368133 15.8121 1.0973C17.2515 1.817 18.3642 2.78764 19.1502 4.00923C19.9362 5.23082 20.3292 6.58025 20.3292 8.05753C20.3387 9.69579 19.8557 11.0689 18.8803 12.1768C17.9144 13.2848 16.6455 14.0092 15.0735 14.3501V14.5774C17.119 14.8615 18.6862 15.6191 19.7752 16.8501C20.8737 18.0717 21.4182 19.5916 21.4087 21.4098C21.4087 23.0386 20.9447 24.4969 20.0167 25.7848C19.0981 27.0632 17.8292 28.067 16.2099 28.7962C14.6 29.5253 12.7534 29.8899 10.6701 29.8899ZM37.0373 30.0462C34.6983 30.0462 32.6907 29.4543 31.0146 28.2706C29.3479 27.0774 28.0647 25.3587 27.1651 23.1143C26.275 20.8606 25.8299 18.1475 25.8299 14.9751C25.8394 11.8028 26.2892 9.10393 27.1793 6.87855C28.079 4.6437 29.3621 2.93916 31.0288 1.76491C32.7049 0.590672 34.7077 0.00355005 37.0373 0.00355005C39.3668 0.00355005 41.3697 0.590672 43.0458 1.76491C44.7219 2.93916 46.0051 4.6437 46.8952 6.87855C47.7949 9.1134 48.2447 11.8123 48.2447 14.9751C48.2447 18.157 47.7949 20.8748 46.8952 23.1286C46.0051 25.3729 44.7219 27.0869 43.0458 28.2706C41.3791 29.4543 39.3763 30.0462 37.0373 30.0462ZM37.0373 25.6001C38.8555 25.6001 40.2901 24.7053 41.3413 22.9155C42.4019 21.1162 42.9322 18.4695 42.9322 14.9751C42.9322 12.6645 42.6907 10.7232 42.2077 9.15128C41.7248 7.57931 41.043 6.3956 40.1623 5.60014C39.2816 4.79522 38.2399 4.39276 37.0373 4.39276C35.2286 4.39276 33.7987 5.29238 32.7475 7.09162C31.6964 8.88139 31.1661 11.5092 31.1566 14.9751C31.1471 17.2952 31.3791 19.246 31.8526 20.8274C32.3356 22.4089 33.0174 23.602 33.8981 24.407C34.7788 25.2024 35.8252 25.6001 37.0373 25.6001ZM61.6005 24.8331V5.17401H66.0607V24.8331H61.6005ZM54.0011 17.2337V12.7734H73.6602V17.2337H54.0011Z" fill="url(#paint0_linear_21301_42906)"/>
<defs>
<linearGradient id="paint0_linear_21301_42906" x1="21.9075" y1="-5.13733" x2="19.8026" y2="29.434" gradientUnits="userSpaceOnUse">
<stop stop-color="#4361EE"/>
<stop offset="1" stop-color="white"/>
</linearGradient>
</defs>
</svg>
