<svg width="29" height="33" viewBox="0 0 29 33" fill="none" xmlns="http://www.w3.org/2000/svg">
<path d="M26.3613 5.26562V9.28041C26.3613 11.2864 24.3664 12.6812 22.4941 12.0145V12.4386C22.4941 14.5707 20.7591 16.3058 18.627 16.3058H17.7523L16.4239 17.6342C15.2905 18.7676 13.4558 18.7678 12.3221 17.6342L10.9938 16.3058H10.1191C7.98703 16.3058 6.25195 14.5707 6.25195 12.4386V12.0145C4.38088 12.6808 2.38477 11.2878 2.38477 9.28041V5.26562C1.03061 5.5099 0 6.69713 0 8.12025V23.3312H28.7461V8.12025C28.7461 6.69713 27.7155 5.5099 26.3613 5.26562ZM7.1543 21.1398H5.0918C4.55813 21.1398 4.125 20.7067 4.125 20.173C4.125 19.6393 4.55813 19.2062 5.0918 19.2062H7.1543C7.68797 19.2062 8.12109 19.6393 8.12109 20.173C8.12109 20.7067 7.68797 21.1398 7.1543 21.1398ZM23.6543 21.1398H21.5918C21.0581 21.1398 20.625 20.7067 20.625 20.173C20.625 19.6393 21.0581 19.2062 21.5918 19.2062H23.6543C24.188 19.2062 24.6211 19.6393 24.6211 20.173C24.6211 20.7067 24.188 21.1398 23.6543 21.1398Z" fill="white"/>
<path d="M2.89727 27.7793H11.0852L10.4359 31.0664H7.15118C6.61725 31.0664 6.18438 31.4993 6.18438 32.0332C6.18438 32.5671 6.61725 33 7.15118 33H21.5887C22.1226 33 22.5555 32.5671 22.5555 32.0332C22.5555 31.4993 22.1226 31.0664 21.5887 31.0664H18.304L17.6547 27.7793H25.8426C27.3105 27.7793 28.5266 26.6825 28.7164 25.2656H0.0234375C0.213252 26.6825 1.42935 27.7793 2.89727 27.7793Z" fill="white"/>
<path d="M5.28711 10.248C5.82104 10.248 6.25391 9.81518 6.25391 9.28125V0.966797C6.25391 0.432867 5.82104 0 5.28711 0C4.75318 0 4.32031 0.432867 4.32031 0.966797V9.28125C4.32031 9.81518 4.75318 10.248 5.28711 10.248Z" fill="white"/>
<path d="M23.459 10.248C23.9929 10.248 24.4258 9.81518 24.4258 9.28125V0.966797C24.4258 0.432867 23.9929 0 23.459 0C22.9251 0 22.4922 0.432867 22.4922 0.966797V9.28125C22.4922 9.81518 22.9251 10.248 23.459 10.248Z" fill="white"/>
<path d="M10.1211 14.375H10.996C11.5088 14.375 12.0006 14.5787 12.3632 14.9413L13.6914 16.2695C14.069 16.6471 14.6811 16.6471 15.0587 16.2695L16.3868 14.9413C16.7495 14.5787 17.2413 14.375 17.7541 14.375H18.6289C19.6968 14.375 20.5625 13.5093 20.5625 12.4414V3.93359C20.5625 2.86567 19.6968 2 18.6289 2H10.1211C9.05317 2 8.1875 2.86567 8.1875 3.93359V12.4414C8.1875 13.5093 9.05317 14.375 10.1211 14.375ZM15.4707 6.125C15.4707 5.59107 15.9036 5.1582 16.4375 5.1582C16.9714 5.1582 17.4043 5.59107 17.4043 6.125V7.15625C17.4043 7.69018 16.9714 8.12305 16.4375 8.12305C15.9036 8.12305 15.4707 7.69018 15.4707 7.15625V6.125ZM11.3457 6.125C11.3457 5.59107 11.7786 5.1582 12.3125 5.1582C12.8464 5.1582 13.2793 5.59107 13.2793 6.125V7.15625C13.2793 7.69018 12.8464 8.12305 12.3125 8.12305C11.7786 8.12305 11.3457 7.69018 11.3457 7.15625V6.125ZM11.7969 9.79883H16.9531C17.4871 9.79883 17.9199 10.2317 17.9199 10.7656C17.9199 11.2996 17.4871 11.7324 16.9531 11.7324H11.7969C11.2629 11.7324 10.8301 11.2996 10.8301 10.7656C10.8301 10.2317 11.2629 9.79883 11.7969 9.79883Z" fill="white"/>
</svg>
