<svg width="46" height="54" viewBox="0 0 46 54" fill="none" xmlns="http://www.w3.org/2000/svg">
<path d="M2.8027 33.3288V34.2631H1.86847V33.3288H2.8027ZM2.8027 32.3946V33.3288H1.86847V32.3946H2.8027ZM2.8027 31.4604V32.3946H1.86847V31.4604H2.8027ZM2.8027 30.5261V31.4604H1.86847V30.5261H2.8027ZM2.8027 29.5919V30.5261H1.86847V29.5919H2.8027ZM2.8027 28.6577V29.5919H1.86847V28.6577H2.8027ZM2.8027 27.7234V28.6577H1.86847V27.7234H2.8027ZM2.8027 26.7892V27.7234H1.86847V26.7892H2.8027ZM2.8027 25.855V26.7892H1.86847V25.855H2.8027ZM2.8027 24.9207V25.855H1.86847V24.9207H2.8027ZM2.8027 23.9865V24.9207H1.86847V23.9865H2.8027ZM3.73693 23.9865V24.9207H2.8027V23.9865H3.73693ZM3.73693 24.9207V25.855H2.8027V24.9207H3.73693ZM3.73693 25.855V26.7892H2.8027V25.855H3.73693ZM3.73693 26.7892V27.7234H2.8027V26.7892H3.73693ZM3.73693 27.7234V28.6577H2.8027V27.7234H3.73693ZM3.73693 28.6577V29.5919H2.8027V28.6577H3.73693ZM3.73693 29.5919V30.5261H2.8027V29.5919H3.73693ZM4.67117 30.5261V31.4604H3.73693V30.5261H4.67117ZM4.67117 31.4604V32.3946H3.73693V31.4604H4.67117ZM4.67117 32.3946V33.3288H3.73693V32.3946H4.67117ZM4.67117 33.3288V34.2631H3.73693V33.3288H4.67117ZM4.67117 34.2631V35.1973H3.73693V34.2631H4.67117ZM4.67117 35.1973V36.1315H3.73693V35.1973H4.67117ZM4.67117 36.1315V37.0658H3.73693V36.1315H4.67117ZM6.53963 37.0658V38H5.6054V37.0658H6.53963ZM6.53963 36.1315V37.0658H5.6054V36.1315H6.53963ZM6.53963 35.1973V36.1315H5.6054V35.1973H6.53963ZM6.53963 34.2631V35.1973H5.6054V34.2631H6.53963ZM6.53963 33.3288V34.2631H5.6054V33.3288H6.53963ZM6.53963 32.3946V33.3288H5.6054V32.3946H6.53963ZM6.53963 31.4604V32.3946H5.6054V31.4604H6.53963ZM6.53963 30.5261V31.4604H5.6054V30.5261H6.53963ZM5.6054 30.5261V31.4604H4.67117V30.5261H5.6054ZM5.6054 29.5919V30.5261H4.67117V29.5919H5.6054ZM5.6054 31.4604V32.3946H4.67117V31.4604H5.6054ZM5.6054 32.3946V33.3288H4.67117V32.3946H5.6054ZM5.6054 33.3288V34.2631H4.67117V33.3288H5.6054ZM5.6054 34.2631V35.1973H4.67117V34.2631H5.6054ZM5.6054 35.1973V36.1315H4.67117V35.1973H5.6054ZM5.6054 36.1315V37.0658H4.67117V36.1315H5.6054ZM3.73693 35.1973V36.1315H2.8027V35.1973H3.73693ZM3.73693 34.2631V35.1973H2.8027V34.2631H3.73693ZM3.73693 33.3288V34.2631H2.8027V33.3288H3.73693ZM3.73693 32.3946V33.3288H2.8027V32.3946H3.73693ZM3.73693 31.4604V32.3946H2.8027V31.4604H3.73693ZM3.73693 30.5261V31.4604H2.8027V30.5261H3.73693ZM2.8027 23.0523V23.9865H1.86847V23.0523H2.8027ZM5.6054 23.0523V23.9865H4.67117V23.0523H5.6054ZM5.6054 23.9865V24.9207H4.67117V23.9865H5.6054ZM5.6054 24.9207V25.855H4.67117V24.9207H5.6054ZM5.6054 25.855V26.7892H4.67117V25.855H5.6054ZM5.6054 26.7892V27.7234H4.67117V26.7892H5.6054ZM6.53963 27.7234V28.6577H5.6054V27.7234H6.53963ZM6.53963 28.6577V29.5919H5.6054V28.6577H6.53963ZM6.53963 29.5919V30.5261H5.6054V29.5919H6.53963ZM6.53963 26.7892V27.7234H5.6054V26.7892H6.53963ZM6.53963 25.855V26.7892H5.6054V25.855H6.53963ZM6.53963 24.9207V25.855H5.6054V24.9207H6.53963ZM6.53963 23.9865V24.9207H5.6054V23.9865H6.53963ZM6.53963 23.0523V23.9865H5.6054V23.0523H6.53963ZM3.73693 23.0523V23.9865H2.8027V23.0523H3.73693ZM4.67117 23.0523V23.9865H3.73693V23.0523H4.67117ZM4.67117 23.9865V24.9207H3.73693V23.9865H4.67117ZM4.67117 24.9207V25.855H3.73693V24.9207H4.67117ZM4.67117 25.855V26.7892H3.73693V25.855H4.67117ZM4.67117 26.7892V27.7234H3.73693V26.7892H4.67117ZM4.67117 27.7234V28.6577H3.73693V27.7234H4.67117ZM4.67117 28.6577V29.5919H3.73693V28.6577H4.67117ZM4.67117 29.5919V30.5261H3.73693V29.5919H4.67117ZM5.6054 28.6577V29.5919H4.67117V28.6577H5.6054ZM5.6054 27.7234V28.6577H4.67117V27.7234H5.6054ZM14.0135 37.0658V38H13.0793V37.0658H14.0135ZM14.0135 36.1315V37.0658H13.0793V36.1315H14.0135ZM14.0135 35.1973V36.1315H13.0793V35.1973H14.0135ZM14.0135 34.2631V35.1973H13.0793V34.2631H14.0135ZM14.0135 33.3288V34.2631H13.0793V33.3288H14.0135ZM14.0135 32.3946V33.3288H13.0793V32.3946H14.0135ZM14.0135 31.4604V32.3946H13.0793V31.4604H14.0135ZM15.882 31.4604V32.3946H14.9477V31.4604H15.882ZM15.882 32.3946V33.3288H14.9477V32.3946H15.882ZM15.882 33.3288V34.2631H14.9477V33.3288H15.882ZM15.882 34.2631V35.1973H14.9477V34.2631H15.882ZM15.882 35.1973V36.1315H14.9477V35.1973H15.882ZM15.882 36.1315V37.0658H14.9477V36.1315H15.882ZM17.7504 33.3288V34.2631H16.8162V33.3288H17.7504ZM17.7504 32.3946V33.3288H16.8162V32.3946H17.7504ZM17.7504 31.4604V32.3946H16.8162V31.4604H17.7504ZM16.8162 31.4604V32.3946H15.882V31.4604H16.8162ZM16.8162 32.3946V33.3288H15.882V32.3946H16.8162ZM16.8162 33.3288V34.2631H15.882V33.3288H16.8162ZM16.8162 34.2631V35.1973H15.882V34.2631H16.8162ZM16.8162 35.1973V36.1315H15.882V35.1973H16.8162ZM14.9477 36.1315V37.0658H14.0135V36.1315H14.9477ZM14.9477 35.1973V36.1315H14.0135V35.1973H14.9477ZM14.9477 34.2631V35.1973H14.0135V34.2631H14.9477ZM14.9477 33.3288V34.2631H14.0135V33.3288H14.9477ZM14.9477 32.3946V33.3288H14.0135V32.3946H14.9477ZM14.9477 31.4604V32.3946H14.0135V31.4604H14.9477ZM7.47386 37.0658V38H6.53963V37.0658H7.47386ZM8.4081 37.0658V38H7.47386V37.0658H8.4081ZM9.34233 37.0658V38H8.4081V37.0658H9.34233ZM10.2766 37.0658V38H9.34233V37.0658H10.2766ZM11.2108 37.0658V38H10.2766V37.0658H11.2108ZM13.0793 37.0658V38H12.145V37.0658H13.0793ZM13.0793 36.1315V37.0658H12.145V36.1315H13.0793ZM11.2108 36.1315V37.0658H10.2766V36.1315H11.2108ZM10.2766 36.1315V37.0658H9.34233V36.1315H10.2766ZM9.34233 36.1315V37.0658H8.4081V36.1315H9.34233ZM8.4081 36.1315V37.0658H7.47386V36.1315H8.4081ZM7.47386 36.1315V37.0658H6.53963V36.1315H7.47386ZM7.47386 35.1973V36.1315H6.53963V35.1973H7.47386ZM8.4081 35.1973V36.1315H7.47386V35.1973H8.4081ZM9.34233 35.1973V36.1315H8.4081V35.1973H9.34233ZM10.2766 35.1973V36.1315H9.34233V35.1973H10.2766ZM11.2108 35.1973V36.1315H10.2766V35.1973H11.2108ZM13.0793 35.1973V36.1315H12.145V35.1973H13.0793ZM13.0793 34.2631V35.1973H12.145V34.2631H13.0793ZM11.2108 34.2631V35.1973H10.2766V34.2631H11.2108ZM10.2766 34.2631V35.1973H9.34233V34.2631H10.2766ZM9.34233 34.2631V35.1973H8.4081V34.2631H9.34233ZM8.4081 34.2631V35.1973H7.47386V34.2631H8.4081ZM7.47386 34.2631V35.1973H6.53963V34.2631H7.47386ZM7.47386 33.3288V34.2631H6.53963V33.3288H7.47386ZM13.0793 33.3288V34.2631H12.145V33.3288H13.0793ZM16.8162 19.3153V18.3811H17.7504V19.3153H16.8162ZM16.8162 20.2496V19.3153H17.7504V20.2496H16.8162ZM16.8162 21.1838V20.2496H17.7504V21.1838H16.8162ZM14.9477 21.1838V20.2496H15.882V21.1838H14.9477ZM14.9477 20.2496V19.3153H15.882V20.2496H14.9477ZM14.9477 19.3153V18.3811H15.882V19.3153H14.9477ZM14.9477 18.3811V17.4469H15.882V18.3811H14.9477ZM14.9477 17.4469V16.5126H15.882V17.4469H14.9477ZM14.9477 16.5126V15.5784H15.882V16.5126H14.9477ZM13.0793 15.5784V14.6442H14.0135V15.5784H13.0793ZM13.0793 16.5126V15.5784H14.0135V16.5126H13.0793ZM13.0793 17.4469V16.5126H14.0135V17.4469H13.0793ZM13.0793 18.3811V17.4469H14.0135V18.3811H13.0793ZM13.0793 19.3153V18.3811H14.0135V19.3153H13.0793ZM13.0793 20.2496V19.3153H14.0135V20.2496H13.0793ZM13.0793 21.1838V20.2496H14.0135V21.1838H13.0793ZM14.0135 21.1838V20.2496H14.9477V21.1838H14.0135ZM14.0135 20.2496V19.3153H14.9477V20.2496H14.0135ZM14.0135 19.3153V18.3811H14.9477V19.3153H14.0135ZM14.0135 18.3811V17.4469H14.9477V18.3811H14.0135ZM14.0135 17.4469V16.5126H14.9477V17.4469H14.0135ZM14.0135 16.5126V15.5784H14.9477V16.5126H14.0135ZM15.882 17.4469V16.5126H16.8162V17.4469H15.882ZM15.882 18.3811V17.4469H16.8162V18.3811H15.882ZM15.882 19.3153V18.3811H16.8162V19.3153H15.882ZM15.882 20.2496V19.3153H16.8162V20.2496H15.882ZM15.882 21.1838V20.2496H16.8162V21.1838H15.882ZM5.6054 15.5784V14.6442H6.53963V15.5784H5.6054ZM5.6054 16.5126V15.5784H6.53963V16.5126H5.6054ZM5.6054 17.4469V16.5126H6.53963V17.4469H5.6054ZM5.6054 18.3811V17.4469H6.53963V18.3811H5.6054ZM5.6054 19.3153V18.3811H6.53963V19.3153H5.6054ZM5.6054 20.2496V19.3153H6.53963V20.2496H5.6054ZM5.6054 21.1838V20.2496H6.53963V21.1838H5.6054ZM3.73693 21.1838V20.2496H4.67117V21.1838H3.73693ZM3.73693 20.2496V19.3153H4.67117V20.2496H3.73693ZM3.73693 19.3153V18.3811H4.67117V19.3153H3.73693ZM3.73693 18.3811V17.4469H4.67117V18.3811H3.73693ZM3.73693 17.4469V16.5126H4.67117V17.4469H3.73693ZM3.73693 16.5126V15.5784H4.67117V16.5126H3.73693ZM1.86847 19.3153V18.3811H2.8027V19.3153H1.86847ZM1.86847 20.2496V19.3153H2.8027V20.2496H1.86847ZM1.86847 21.1838V20.2496H2.8027V21.1838H1.86847ZM2.8027 21.1838V20.2496H3.73693V21.1838H2.8027ZM2.8027 20.2496V19.3153H3.73693V20.2496H2.8027ZM2.8027 19.3153V18.3811H3.73693V19.3153H2.8027ZM2.8027 18.3811V17.4469H3.73693V18.3811H2.8027ZM2.8027 17.4469V16.5126H3.73693V17.4469H2.8027ZM4.67117 16.5126V15.5784H5.6054V16.5126H4.67117ZM4.67117 17.4469V16.5126H5.6054V17.4469H4.67117ZM4.67117 18.3811V17.4469H5.6054V18.3811H4.67117ZM4.67117 19.3153V18.3811H5.6054V19.3153H4.67117ZM4.67117 20.2496V19.3153H5.6054V20.2496H4.67117ZM4.67117 21.1838V20.2496H5.6054V21.1838H4.67117ZM12.145 15.5784V14.6442H13.0793V15.5784H12.145ZM10.2766 15.5784V14.6442H11.2108V15.5784H10.2766ZM9.34233 15.5784V14.6442H10.2766V15.5784H9.34233ZM8.4081 15.5784V14.6442H9.34233V15.5784H8.4081ZM7.47386 15.5784V14.6442H8.4081V15.5784H7.47386ZM6.53963 15.5784V14.6442H7.47386V15.5784H6.53963ZM6.53963 16.5126V15.5784H7.47386V16.5126H6.53963ZM7.47386 16.5126V15.5784H8.4081V16.5126H7.47386ZM8.4081 16.5126V15.5784H9.34233V16.5126H8.4081ZM9.34233 16.5126V15.5784H10.2766V16.5126H9.34233ZM10.2766 16.5126V15.5784H11.2108V16.5126H10.2766ZM12.145 16.5126V15.5784H13.0793V16.5126H12.145ZM12.145 17.4469V16.5126H13.0793V17.4469H12.145ZM10.2766 17.4469V16.5126H11.2108V17.4469H10.2766ZM9.34233 17.4469V16.5126H10.2766V17.4469H9.34233ZM8.4081 17.4469V16.5126H9.34233V17.4469H8.4081ZM7.47386 17.4469V16.5126H8.4081V17.4469H7.47386ZM6.53963 17.4469V16.5126H7.47386V17.4469H6.53963ZM6.53963 18.3811V17.4469H7.47386V18.3811H6.53963ZM7.47386 18.3811V17.4469H8.4081V18.3811H7.47386ZM8.4081 18.3811V17.4469H9.34233V18.3811H8.4081ZM9.34233 18.3811V17.4469H10.2766V18.3811H9.34233ZM10.2766 18.3811V17.4469H11.2108V18.3811H10.2766ZM12.145 18.3811V17.4469H13.0793V18.3811H12.145ZM12.145 19.3153V18.3811H13.0793V19.3153H12.145ZM6.53963 19.3153V18.3811H7.47386V19.3153H6.53963ZM2.8027 22.118V23.0523H1.86847V22.118H2.8027ZM3.73693 22.118V23.0523H2.8027V22.118H3.73693ZM2.8027 21.1838V22.118H1.86847V21.1838H2.8027ZM5.6054 21.1838V22.118H4.67117V21.1838H5.6054ZM5.6054 22.118V23.0523H4.67117V22.118H5.6054ZM6.53963 22.118V23.0523H5.6054V22.118H6.53963ZM6.53963 21.1838V22.118H5.6054V21.1838H6.53963ZM3.73693 21.1838V22.118H2.8027V21.1838H3.73693ZM4.67117 21.1838V22.118H3.73693V21.1838H4.67117ZM4.67117 22.118V23.0523H3.73693V22.118H4.67117ZM8.4081 33.3288V34.2631H7.47386V33.3288H8.4081ZM9.34233 33.3288V34.2631H8.4081V33.3288H9.34233ZM10.2766 33.3288V34.2631H9.34233V33.3288H10.2766ZM11.2108 33.3288V34.2631H10.2766V33.3288H11.2108ZM13.0793 32.3946V33.3288H12.145V32.3946H13.0793ZM7.47386 32.3946V33.3288H6.53963V32.3946H7.47386ZM14.0135 30.5261V31.4604H13.0793V30.5261H14.0135ZM14.9477 30.5261V31.4604H14.0135V30.5261H14.9477ZM15.882 30.5261V31.4604H14.9477V30.5261H15.882ZM16.8162 30.5261V31.4604H15.882V30.5261H16.8162ZM17.7504 30.5261V31.4604H16.8162V30.5261H17.7504ZM7.47386 19.3153V20.2496H6.53963V19.3153H7.47386ZM8.4081 18.3811V19.3153H7.47386V18.3811H8.4081ZM9.34233 18.3811V19.3153H8.4081V18.3811H9.34233ZM10.2766 18.3811V19.3153H9.34233V18.3811H10.2766ZM11.2108 18.3811V19.3153H10.2766V18.3811H11.2108ZM13.0793 19.3153V20.2496H12.145V19.3153H13.0793ZM14.0135 21.1838V22.118H13.0793V21.1838H14.0135ZM14.9477 21.1838V22.118H14.0135V21.1838H14.9477ZM15.882 21.1838V22.118H14.9477V21.1838H15.882ZM16.8162 21.1838V22.118H15.882V21.1838H16.8162ZM17.7504 21.1838V22.118H16.8162V21.1838H17.7504ZM12.145 14.6442V15.5784H11.2108V14.6442H12.145ZM12.145 15.5784V16.5126H11.2108V15.5784H12.145ZM12.145 16.5126V17.4469H11.2108V16.5126H12.145ZM12.145 17.4469V18.3811H11.2108V17.4469H12.145ZM12.145 18.3811V19.3153H11.2108V18.3811H12.145ZM12.145 33.3288V34.2631H11.2108V33.3288H12.145ZM12.145 34.2631V35.1973H11.2108V34.2631H12.145ZM12.145 35.1973V36.1315H11.2108V35.1973H12.145ZM12.145 36.1315V37.0658H11.2108V36.1315H12.145ZM12.145 37.0658V38H11.2108V37.0658H12.145ZM22.4033 37.0658V38H21.4691V37.0658H22.4033ZM22.4033 36.1315V37.0658H21.4691V36.1315H22.4033ZM22.4033 35.1973V36.1315H21.4691V35.1973H22.4033ZM22.4033 34.2631V35.1973H21.4691V34.2631H22.4033ZM22.4033 33.3288V34.2631H21.4691V33.3288H22.4033ZM22.4033 32.3946V33.3288H21.4691V32.3946H22.4033ZM22.4033 31.4604V32.3946H21.4691V31.4604H22.4033ZM22.4033 30.5261V31.4604H21.4691V30.5261H22.4033ZM22.4033 29.5919V30.5261H21.4691V29.5919H22.4033ZM22.4033 28.6577V29.5919H21.4691V28.6577H22.4033ZM22.4033 27.7234V28.6577H21.4691V27.7234H22.4033ZM22.4033 26.7892V27.7234H21.4691V26.7892H22.4033ZM22.4033 25.855V26.7892H21.4691V25.855H22.4033ZM22.4033 24.9207V25.855H21.4691V24.9207H22.4033ZM22.4033 23.9865V24.9207H21.4691V23.9865H22.4033ZM23.3376 23.9865V24.9207H22.4033V23.9865H23.3376ZM23.3376 24.9207V25.855H22.4033V24.9207H23.3376ZM23.3376 25.855V26.7892H22.4033V25.855H23.3376ZM23.3376 26.7892V27.7234H22.4033V26.7892H23.3376ZM23.3376 27.7234V28.6577H22.4033V27.7234H23.3376ZM23.3376 28.6577V29.5919H22.4033V28.6577H23.3376ZM23.3376 29.5919V30.5261H22.4033V29.5919H23.3376ZM24.2718 30.5261V31.4604H23.3376V30.5261H24.2718ZM24.2718 31.4604V32.3946H23.3376V31.4604H24.2718ZM24.2718 32.3946V33.3288H23.3376V32.3946H24.2718ZM24.2718 33.3288V34.2631H23.3376V33.3288H24.2718ZM24.2718 34.2631V35.1973H23.3376V34.2631H24.2718ZM24.2718 35.1973V36.1315H23.3376V35.1973H24.2718ZM24.2718 36.1315V37.0658H23.3376V36.1315H24.2718ZM24.2718 37.0658V38H23.3376V37.0658H24.2718ZM25.206 37.0658V38H24.2718V37.0658H25.206ZM26.1403 37.0658V38H25.206V37.0658H26.1403ZM26.1403 36.1315V37.0658H25.206V36.1315H26.1403ZM26.1403 35.1973V36.1315H25.206V35.1973H26.1403ZM26.1403 34.2631V35.1973H25.206V34.2631H26.1403ZM26.1403 33.3288V34.2631H25.206V33.3288H26.1403ZM26.1403 32.3946V33.3288H25.206V32.3946H26.1403ZM26.1403 31.4604V32.3946H25.206V31.4604H26.1403ZM26.1403 30.5261V31.4604H25.206V30.5261H26.1403ZM25.206 30.5261V31.4604H24.2718V30.5261H25.206ZM25.206 29.5919V30.5261H24.2718V29.5919H25.206ZM25.206 31.4604V32.3946H24.2718V31.4604H25.206ZM25.206 32.3946V33.3288H24.2718V32.3946H25.206ZM25.206 33.3288V34.2631H24.2718V33.3288H25.206ZM25.206 34.2631V35.1973H24.2718V34.2631H25.206ZM25.206 35.1973V36.1315H24.2718V35.1973H25.206ZM25.206 36.1315V37.0658H24.2718V36.1315H25.206ZM23.3376 37.0658V38H22.4033V37.0658H23.3376ZM23.3376 36.1315V37.0658H22.4033V36.1315H23.3376ZM23.3376 35.1973V36.1315H22.4033V35.1973H23.3376ZM23.3376 34.2631V35.1973H22.4033V34.2631H23.3376ZM23.3376 33.3288V34.2631H22.4033V33.3288H23.3376ZM23.3376 32.3946V33.3288H22.4033V32.3946H23.3376ZM23.3376 31.4604V32.3946H22.4033V31.4604H23.3376ZM23.3376 30.5261V31.4604H22.4033V30.5261H23.3376ZM22.4033 14.6442V15.5784H21.4691V14.6442H22.4033ZM22.4033 15.5784V16.5126H21.4691V15.5784H22.4033ZM22.4033 16.5126V17.4469H21.4691V16.5126H22.4033ZM22.4033 17.4469V18.3811H21.4691V17.4469H22.4033ZM22.4033 18.3811V19.3153H21.4691V18.3811H22.4033ZM22.4033 19.3153V20.2496H21.4691V19.3153H22.4033ZM22.4033 20.2496V21.1838H21.4691V20.2496H22.4033ZM22.4033 21.1838V22.118H21.4691V21.1838H22.4033ZM22.4033 22.118V23.0523H21.4691V22.118H22.4033ZM22.4033 23.0523V23.9865H21.4691V23.0523H22.4033ZM25.206 14.6442V15.5784H24.2718V14.6442H25.206ZM25.206 15.5784V16.5126H24.2718V15.5784H25.206ZM25.206 16.5126V17.4469H24.2718V16.5126H25.206ZM25.206 17.4469V18.3811H24.2718V17.4469H25.206ZM25.206 18.3811V19.3153H24.2718V18.3811H25.206ZM25.206 19.3153V20.2496H24.2718V19.3153H25.206ZM25.206 21.1838V22.118H24.2718V21.1838H25.206ZM25.206 22.118V23.0523H24.2718V22.118H25.206ZM25.206 23.0523V23.9865H24.2718V23.0523H25.206ZM25.206 23.9865V24.9207H24.2718V23.9865H25.206ZM25.206 24.9207V25.855H24.2718V24.9207H25.206ZM25.206 25.855V26.7892H24.2718V25.855H25.206ZM25.206 26.7892V27.7234H24.2718V26.7892H25.206ZM26.1403 27.7234V28.6577H25.206V27.7234H26.1403ZM26.1403 28.6577V29.5919H25.206V28.6577H26.1403ZM26.1403 29.5919V30.5261H25.206V29.5919H26.1403ZM26.1403 26.7892V27.7234H25.206V26.7892H26.1403ZM26.1403 25.855V26.7892H25.206V25.855H26.1403ZM26.1403 24.9207V25.855H25.206V24.9207H26.1403ZM26.1403 23.9865V24.9207H25.206V23.9865H26.1403ZM26.1403 23.0523V23.9865H25.206V23.0523H26.1403ZM26.1403 22.118V23.0523H25.206V22.118H26.1403ZM26.1403 21.1838V22.118H25.206V21.1838H26.1403ZM26.1403 20.2496V21.1838H25.206V20.2496H26.1403ZM26.1403 19.3153V20.2496H25.206V19.3153H26.1403ZM26.1403 18.3811V19.3153H25.206V18.3811H26.1403ZM25.206 20.2496V21.1838H24.2718V20.2496H25.206ZM26.1403 17.4469V18.3811H25.206V17.4469H26.1403ZM26.1403 16.5126V17.4469H25.206V16.5126H26.1403ZM26.1403 15.5784V16.5126H25.206V15.5784H26.1403ZM26.1403 14.6442V15.5784H25.206V14.6442H26.1403ZM24.2718 14.6442V15.5784H23.3376V14.6442H24.2718ZM23.3376 14.6442V15.5784H22.4033V14.6442H23.3376ZM23.3376 15.5784V16.5126H22.4033V15.5784H23.3376ZM24.2718 15.5784V16.5126H23.3376V15.5784H24.2718ZM24.2718 16.5126V17.4469H23.3376V16.5126H24.2718ZM24.2718 17.4469V18.3811H23.3376V17.4469H24.2718ZM24.2718 18.3811V19.3153H23.3376V18.3811H24.2718ZM24.2718 19.3153V20.2496H23.3376V19.3153H24.2718ZM24.2718 20.2496V21.1838H23.3376V20.2496H24.2718ZM24.2718 21.1838V22.118H23.3376V21.1838H24.2718ZM23.3376 22.118V23.0523H22.4033V22.118H23.3376ZM23.3376 23.0523V23.9865H22.4033V23.0523H23.3376ZM23.3376 21.1838V22.118H22.4033V21.1838H23.3376ZM23.3376 20.2496V21.1838H22.4033V20.2496H23.3376ZM23.3376 19.3153V20.2496H22.4033V19.3153H23.3376ZM23.3376 18.3811V19.3153H22.4033V18.3811H23.3376ZM23.3376 17.4469V18.3811H22.4033V17.4469H23.3376ZM23.3376 16.5126V17.4469H22.4033V16.5126H23.3376ZM24.2718 22.118V23.0523H23.3376V22.118H24.2718ZM24.2718 23.0523V23.9865H23.3376V23.0523H24.2718ZM24.2718 23.9865V24.9207H23.3376V23.9865H24.2718ZM24.2718 24.9207V25.855H23.3376V24.9207H24.2718ZM24.2718 25.855V26.7892H23.3376V25.855H24.2718ZM24.2718 26.7892V27.7234H23.3376V26.7892H24.2718ZM24.2718 27.7234V28.6577H23.3376V27.7234H24.2718ZM24.2718 28.6577V29.5919H23.3376V28.6577H24.2718ZM24.2718 29.5919V30.5261H23.3376V29.5919H24.2718ZM25.206 28.6577V29.5919H24.2718V28.6577H25.206ZM25.206 27.7234V28.6577H24.2718V27.7234H25.206ZM32.6799 37.0658V38H31.7457V37.0658H32.6799ZM33.6141 37.0658V38H32.6799V37.0658H33.6141ZM34.5484 37.0658V38H33.6141V37.0658H34.5484ZM35.4826 37.0658V38H34.5484V37.0658H35.4826ZM36.4168 36.1315V37.0658H35.4826V36.1315H36.4168ZM36.4168 35.1973V36.1315H35.4826V35.1973H36.4168ZM36.4168 37.0658V38H35.4826V37.0658H36.4168ZM35.4826 36.1315V37.0658H34.5484V36.1315H35.4826ZM34.5484 36.1315V37.0658H33.6141V36.1315H34.5484ZM33.6141 36.1315V37.0658H32.6799V36.1315H33.6141ZM32.6799 36.1315V37.0658H31.7457V36.1315H32.6799ZM32.6799 35.1973V36.1315H31.7457V35.1973H32.6799ZM32.6799 34.2631V35.1973H31.7457V34.2631H32.6799ZM33.6141 34.2631V35.1973H32.6799V34.2631H33.6141ZM34.5484 34.2631V35.1973H33.6141V34.2631H34.5484ZM35.4826 34.2631V35.1973H34.5484V34.2631H35.4826ZM36.4168 34.2631V35.1973H35.4826V34.2631H36.4168ZM35.4826 35.1973V36.1315H34.5484V35.1973H35.4826ZM34.5484 35.1973V36.1315H33.6141V35.1973H34.5484ZM33.6141 35.1973V36.1315H32.6799V35.1973H33.6141ZM36.4168 23.9865V24.9207H35.4826V23.9865H36.4168ZM35.4826 23.9865V24.9207H34.5484V23.9865H35.4826ZM33.6141 23.9865V24.9207H32.6799V23.9865H33.6141ZM33.6141 24.9207V25.855H32.6799V24.9207H33.6141ZM33.6141 25.855V26.7892H32.6799V25.855H33.6141ZM32.6799 26.7892V27.7234H31.7457V26.7892H32.6799ZM32.6799 27.7234V28.6577H31.7457V27.7234H32.6799ZM32.6799 28.6577V29.5919H31.7457V28.6577H32.6799ZM32.6799 29.5919V30.5261H31.7457V29.5919H32.6799ZM32.6799 30.5261V31.4604H31.7457V30.5261H32.6799ZM32.6799 31.4604V32.3946H31.7457V31.4604H32.6799ZM32.6799 32.3946V33.3288H31.7457V32.3946H32.6799ZM32.6799 33.3288V34.2631H31.7457V33.3288H32.6799ZM33.6141 33.3288V34.2631H32.6799V33.3288H33.6141ZM34.5484 33.3288V34.2631H33.6141V33.3288H34.5484ZM35.4826 33.3288V34.2631H34.5484V33.3288H35.4826ZM36.4168 33.3288V34.2631H35.4826V33.3288H36.4168ZM36.4168 32.3946V33.3288H35.4826V32.3946H36.4168ZM36.4168 30.5261V31.4604H35.4826V30.5261H36.4168ZM36.4168 29.5919V30.5261H35.4826V29.5919H36.4168ZM36.4168 28.6577V29.5919H35.4826V28.6577H36.4168ZM36.4168 27.7234V28.6577H35.4826V27.7234H36.4168ZM36.4168 26.7892V27.7234H35.4826V26.7892H36.4168ZM36.4168 25.855V26.7892H35.4826V25.855H36.4168ZM36.4168 24.9207V25.855H35.4826V24.9207H36.4168ZM35.4826 28.6577V29.5919H34.5484V28.6577H35.4826ZM35.4826 30.5261V31.4604H34.5484V30.5261H35.4826ZM35.4826 31.4604V32.3946H34.5484V31.4604H35.4826ZM35.4826 32.3946V33.3288H34.5484V32.3946H35.4826ZM36.4168 31.4604V32.3946H35.4826V31.4604H36.4168ZM35.4826 26.7892V27.7234H34.5484V26.7892H35.4826ZM34.5484 26.7892V27.7234H33.6141V26.7892H34.5484ZM33.6141 26.7892V27.7234H32.6799V26.7892H33.6141ZM33.6141 27.7234V28.6577H32.6799V27.7234H33.6141ZM33.6141 28.6577V29.5919H32.6799V28.6577H33.6141ZM33.6141 29.5919V30.5261H32.6799V29.5919H33.6141ZM33.6141 30.5261V31.4604H32.6799V30.5261H33.6141ZM33.6141 31.4604V32.3946H32.6799V31.4604H33.6141ZM33.6141 32.3946V33.3288H32.6799V32.3946H33.6141ZM34.5484 32.3946V33.3288H33.6141V32.3946H34.5484ZM34.5484 31.4604V32.3946H33.6141V31.4604H34.5484ZM34.5484 30.5261V31.4604H33.6141V30.5261H34.5484ZM34.5484 29.5919V30.5261H33.6141V29.5919H34.5484ZM34.5484 28.6577V29.5919H33.6141V28.6577H34.5484ZM34.5484 27.7234V28.6577H33.6141V27.7234H34.5484ZM35.4826 27.7234V28.6577H34.5484V27.7234H35.4826ZM35.4826 29.5919V30.5261H34.5484V29.5919H35.4826ZM35.4826 25.855V26.7892H34.5484V25.855H35.4826ZM35.4826 24.9207V25.855H34.5484V24.9207H35.4826ZM34.5484 24.9207V25.855H33.6141V24.9207H34.5484ZM34.5484 25.855V26.7892H33.6141V25.855H34.5484ZM32.6799 25.855V26.7892H31.7457V25.855H32.6799ZM32.6799 24.9207V25.855H31.7457V24.9207H32.6799ZM32.6799 23.9865V24.9207H31.7457V23.9865H32.6799ZM34.5484 23.9865V24.9207H33.6141V23.9865H34.5484ZM32.6799 20.2496V21.1838H31.7457V20.2496H32.6799ZM32.6799 21.1838V22.118H31.7457V21.1838H32.6799ZM33.6141 21.1838V22.118H32.6799V21.1838H33.6141ZM34.5484 21.1838V22.118H33.6141V21.1838H34.5484ZM34.5484 22.118V23.0523H33.6141V22.118H34.5484ZM35.4826 22.118V23.0523H34.5484V22.118H35.4826ZM35.4826 23.0523V23.9865H34.5484V23.0523H35.4826ZM34.5484 23.0523V23.9865H33.6141V23.0523H34.5484ZM33.6141 23.0523V23.9865H32.6799V23.0523H33.6141ZM33.6141 22.118V23.0523H32.6799V22.118H33.6141ZM32.6799 22.118V23.0523H31.7457V22.118H32.6799ZM31.7457 22.118V23.0523H30.8114V22.118H31.7457ZM31.7457 23.0523V23.9865H30.8114V23.0523H31.7457ZM32.6799 23.0523V23.9865H31.7457V23.0523H32.6799ZM31.7457 23.9865V24.9207H30.8114V23.9865H31.7457ZM30.8114 23.0523V23.9865H29.8772V23.0523H30.8114ZM30.8114 22.118V23.0523H29.8772V22.118H30.8114ZM30.8114 21.1838V22.118H29.8772V21.1838H30.8114ZM30.8114 20.2496V21.1838H29.8772V20.2496H30.8114ZM31.7457 20.2496V21.1838H30.8114V20.2496H31.7457ZM31.7457 21.1838V22.118H30.8114V21.1838H31.7457ZM29.8772 20.2496V21.1838H28.943V20.2496H29.8772ZM29.8772 21.1838V22.118H28.943V21.1838H29.8772ZM29.8772 22.118V23.0523H28.943V22.118H29.8772ZM29.8772 23.0523V23.9865H28.943V23.0523H29.8772ZM28.943 20.2496V21.1838H28.0087V20.2496H28.943ZM28.943 21.1838V22.118H28.0087V21.1838H28.943ZM28.0087 21.1838V22.118H27.0745V21.1838H28.0087ZM28.0087 22.118V23.0523H27.0745V22.118H28.0087ZM27.0745 22.118V23.0523H26.1403V22.118H27.0745ZM27.0745 23.0523V23.9865H26.1403V23.0523H27.0745ZM28.0087 23.0523V23.9865H27.0745V23.0523H28.0087ZM28.943 23.0523V23.9865H28.0087V23.0523H28.943ZM28.943 22.118V23.0523H28.0087V22.118H28.943ZM27.0745 23.9865V24.9207H26.1403V23.9865H27.0745ZM28.0087 20.2496V21.1838H27.0745V20.2496H28.0087ZM27.0745 21.1838V22.118H26.1403V21.1838H27.0745ZM40.1711 14.6442V15.5784H39.2369V14.6442H40.1711ZM40.1711 15.5784V16.5126H39.2369V15.5784H40.1711ZM40.1711 16.5126V17.4469H39.2369V16.5126H40.1711ZM42.9738 14.6442V15.5784H42.0396V14.6442H42.9738ZM42.9738 15.5784V16.5126H42.0396V15.5784H42.9738ZM42.9738 16.5126V17.4469H42.0396V16.5126H42.9738ZM43.908 16.5126V17.4469H42.9738V16.5126H43.908ZM43.908 15.5784V16.5126H42.9738V15.5784H43.908ZM43.908 14.6442V15.5784H42.9738V14.6442H43.908ZM42.0396 14.6442V15.5784H41.1053V14.6442H42.0396ZM41.1053 14.6442V15.5784H40.1711V14.6442H41.1053ZM41.1053 15.5784V16.5126H40.1711V15.5784H41.1053ZM42.0396 15.5784V16.5126H41.1053V15.5784H42.0396ZM42.0396 16.5126V17.4469H41.1053V16.5126H42.0396ZM41.1053 16.5126V17.4469H40.1711V16.5126H41.1053ZM40.1711 17.4469V18.3811H39.2369V17.4469H40.1711ZM41.1053 17.4469V18.3811H40.1711V17.4469H41.1053ZM42.0396 17.4469V18.3811H41.1053V17.4469H42.0396ZM42.9738 17.4469V18.3811H42.0396V17.4469H42.9738ZM43.908 17.4469V18.3811H42.9738V17.4469H43.908ZM40.1711 37.0658V38H39.2369V37.0658H40.1711ZM40.1711 36.1315V37.0658H39.2369V36.1315H40.1711ZM40.1711 35.1973V36.1315H39.2369V35.1973H40.1711ZM40.1711 34.2631V35.1973H39.2369V34.2631H40.1711ZM40.1711 33.3288V34.2631H39.2369V33.3288H40.1711ZM40.1711 32.3946V33.3288H39.2369V32.3946H40.1711ZM40.1711 31.4604V32.3946H39.2369V31.4604H40.1711ZM40.1711 30.5261V31.4604H39.2369V30.5261H40.1711ZM40.1711 29.5919V30.5261H39.2369V29.5919H40.1711ZM40.1711 28.6577V29.5919H39.2369V28.6577H40.1711ZM40.1711 27.7234V28.6577H39.2369V27.7234H40.1711ZM40.1711 26.7892V27.7234H39.2369V26.7892H40.1711ZM40.1711 25.855V26.7892H39.2369V25.855H40.1711ZM40.1711 24.9207V25.855H39.2369V24.9207H40.1711ZM40.1711 23.9865V24.9207H39.2369V23.9865H40.1711ZM41.1053 23.9865V24.9207H40.1711V23.9865H41.1053ZM41.1053 24.9207V25.855H40.1711V24.9207H41.1053ZM41.1053 25.855V26.7892H40.1711V25.855H41.1053ZM41.1053 26.7892V27.7234H40.1711V26.7892H41.1053ZM41.1053 27.7234V28.6577H40.1711V27.7234H41.1053ZM41.1053 28.6577V29.5919H40.1711V28.6577H41.1053ZM41.1053 29.5919V30.5261H40.1711V29.5919H41.1053ZM42.0396 30.5261V31.4604H41.1053V30.5261H42.0396ZM42.0396 31.4604V32.3946H41.1053V31.4604H42.0396ZM42.0396 32.3946V33.3288H41.1053V32.3946H42.0396ZM42.0396 33.3288V34.2631H41.1053V33.3288H42.0396ZM42.0396 34.2631V35.1973H41.1053V34.2631H42.0396ZM42.0396 35.1973V36.1315H41.1053V35.1973H42.0396ZM42.0396 36.1315V37.0658H41.1053V36.1315H42.0396ZM42.0396 37.0658V38H41.1053V37.0658H42.0396ZM42.9738 37.0658V38H42.0396V37.0658H42.9738ZM43.908 37.0658V38H42.9738V37.0658H43.908ZM43.908 36.1315V37.0658H42.9738V36.1315H43.908ZM43.908 35.1973V36.1315H42.9738V35.1973H43.908ZM43.908 34.2631V35.1973H42.9738V34.2631H43.908ZM43.908 33.3288V34.2631H42.9738V33.3288H43.908ZM43.908 32.3946V33.3288H42.9738V32.3946H43.908ZM43.908 31.4604V32.3946H42.9738V31.4604H43.908ZM43.908 30.5261V31.4604H42.9738V30.5261H43.908ZM42.9738 30.5261V31.4604H42.0396V30.5261H42.9738ZM42.9738 29.5919V30.5261H42.0396V29.5919H42.9738ZM42.9738 31.4604V32.3946H42.0396V31.4604H42.9738ZM42.9738 32.3946V33.3288H42.0396V32.3946H42.9738ZM42.9738 33.3288V34.2631H42.0396V33.3288H42.9738ZM42.9738 34.2631V35.1973H42.0396V34.2631H42.9738ZM42.9738 35.1973V36.1315H42.0396V35.1973H42.9738ZM42.9738 36.1315V37.0658H42.0396V36.1315H42.9738ZM41.1053 37.0658V38H40.1711V37.0658H41.1053ZM41.1053 36.1315V37.0658H40.1711V36.1315H41.1053ZM41.1053 35.1973V36.1315H40.1711V35.1973H41.1053ZM41.1053 34.2631V35.1973H40.1711V34.2631H41.1053ZM41.1053 33.3288V34.2631H40.1711V33.3288H41.1053ZM41.1053 32.3946V33.3288H40.1711V32.3946H41.1053ZM41.1053 31.4604V32.3946H40.1711V31.4604H41.1053ZM41.1053 30.5261V31.4604H40.1711V30.5261H41.1053ZM40.1711 22.118V23.0523H39.2369V22.118H40.1711ZM40.1711 23.0523V23.9865H39.2369V23.0523H40.1711ZM42.9738 22.118V23.0523H42.0396V22.118H42.9738ZM42.9738 23.0523V23.9865H42.0396V23.0523H42.9738ZM42.9738 23.9865V24.9207H42.0396V23.9865H42.9738ZM42.9738 24.9207V25.855H42.0396V24.9207H42.9738ZM42.9738 25.855V26.7892H42.0396V25.855H42.9738ZM42.9738 26.7892V27.7234H42.0396V26.7892H42.9738ZM43.908 27.7234V28.6577H42.9738V27.7234H43.908ZM43.908 28.6577V29.5919H42.9738V28.6577H43.908ZM43.908 29.5919V30.5261H42.9738V29.5919H43.908ZM43.908 26.7892V27.7234H42.9738V26.7892H43.908ZM43.908 25.855V26.7892H42.9738V25.855H43.908ZM43.908 24.9207V25.855H42.9738V24.9207H43.908ZM43.908 23.9865V24.9207H42.9738V23.9865H43.908ZM43.908 23.0523V23.9865H42.9738V23.0523H43.908ZM43.908 22.118V23.0523H42.9738V22.118H43.908ZM41.1053 22.118V23.0523H40.1711V22.118H41.1053ZM41.1053 23.0523V23.9865H40.1711V23.0523H41.1053ZM42.0396 22.118V23.0523H41.1053V22.118H42.0396ZM42.0396 23.0523V23.9865H41.1053V23.0523H42.0396ZM42.0396 23.9865V24.9207H41.1053V23.9865H42.0396ZM42.0396 24.9207V25.855H41.1053V24.9207H42.0396ZM42.0396 25.855V26.7892H41.1053V25.855H42.0396ZM42.0396 26.7892V27.7234H41.1053V26.7892H42.0396ZM42.0396 27.7234V28.6577H41.1053V27.7234H42.0396ZM42.0396 28.6577V29.5919H41.1053V28.6577H42.0396ZM42.0396 29.5919V30.5261H41.1053V29.5919H42.0396ZM42.9738 28.6577V29.5919H42.0396V28.6577H42.9738ZM42.9738 27.7234V28.6577H42.0396V27.7234H42.9738ZM42.9738 21.1838V22.118H42.0396V21.1838H42.9738ZM43.908 21.1838V22.118H42.9738V21.1838H43.908ZM42.0396 21.1838V22.118H41.1053V21.1838H42.0396ZM41.1053 21.1838V22.118H40.1711V21.1838H41.1053ZM40.1711 21.1838V22.118H39.2369V21.1838H40.1711Z" fill="black"/>
</svg>
