<svg width="60" height="60" viewBox="0 0 60 60" fill="none" xmlns="http://www.w3.org/2000/svg">
<g clip-path="url(#clip0_4145_2999)">
<g clip-path="url(#clip1_4145_2999)">
<g clip-path="url(#clip2_4145_2999)">
<path fill-rule="evenodd" clip-rule="evenodd" d="M52.0165 42.1296C55.0007 37.6019 56.3587 32.1878 55.8635 26.7537C55.2991 20.5639 52.3942 14.8649 47.7011 10.7864C42.857 6.57725 36.6628 4.50618 30.2619 4.95437C23.8587 5.40257 18.0165 8.31748 13.8062 13.1626C13.4933 13.5214 13.0406 13.6913 12.5712 13.5918C11.601 13.3851 11.145 12.2294 11.8279 11.4425C16.4954 6.07206 22.9802 2.83748 30.0786 2.34011C37.1759 1.84274 44.0496 4.1407 49.4201 8.80815C54.6397 13.3437 57.8653 19.6854 58.4789 26.5704C59.0344 32.816 57.388 39.0225 53.8182 44.1404L55.4567 44.0878C57.179 44.0319 57.2651 46.6518 55.5416 46.7066L51.0877 46.8507C50.4025 46.8731 49.8358 46.3467 49.7621 45.6727L49.2871 41.2724C49.1026 39.5567 51.708 39.2773 51.8935 40.9907L52.0165 42.1296Z" fill="#4361EE"/>
<path fill-rule="evenodd" clip-rule="evenodd" d="M8.45495 19.6472C5.56238 24.0397 4.20216 29.2582 4.57435 34.5381C5.02254 40.9089 7.9464 46.7935 12.7692 50.9848C17.5965 55.1795 23.8399 57.2539 30.2162 56.8046C36.587 56.3564 42.4739 53.4326 46.6641 48.6086C47.1368 48.0643 47.9695 48.0062 48.5127 48.479C49.057 48.9518 49.1152 49.7844 48.6435 50.3276C43.976 55.6992 37.4901 58.9327 30.3917 59.4312C29.7591 59.4759 29.1243 59.4982 28.4905 59.4982C22.0426 59.4993 15.9166 57.1925 11.0502 52.9631C5.67862 48.2957 2.44404 41.8109 1.94667 34.7125C1.51748 28.5965 3.16495 22.6236 6.651 17.6309L5.0136 17.6835C4.28934 17.7069 3.68467 17.1403 3.6612 16.416C3.63773 15.694 4.20663 15.0871 4.92865 15.0636L9.36362 14.9194C9.69222 14.9105 10.0152 15.0245 10.2634 15.2413C10.4142 15.3721 10.535 15.5319 10.6098 15.7175L10.6177 15.7365L10.6478 15.8169L10.6534 15.8348C10.6713 15.8918 10.6624 15.8583 10.6758 15.9164L10.6858 15.9566L10.6993 16.0282L10.7071 16.0896L11.1832 20.4989C11.2603 21.2142 10.7373 21.8647 10.0208 21.9418C9.92693 21.9519 9.97388 21.9497 9.87887 21.9497C9.2105 21.9497 8.64942 21.4445 8.57677 20.7794L8.45495 19.6472Z" fill="#4361EE"/>
<path fill-rule="evenodd" clip-rule="evenodd" d="M30.2353 51.2236C19.0216 51.2236 9.89795 42.0999 9.89795 30.8862C9.89795 19.6725 19.0216 10.5488 30.2353 10.5488C41.449 10.5488 50.5727 19.6725 50.5727 30.8862C50.5727 42.0999 41.449 51.2236 30.2353 51.2236ZM35.9053 42.3771C35.7187 42.3771 35.5331 42.2977 35.4035 42.1435C35.171 41.8674 35.2068 41.4539 35.484 41.2203L41.3853 36.2567L36.8364 29.9418C36.6251 29.6489 36.6911 29.2387 36.985 29.0275C37.2778 28.8162 37.688 28.8822 37.8993 29.1761L42.8037 35.9839C43.0037 36.2623 42.9557 36.6479 42.6941 36.868L36.3267 42.224C36.2037 42.3268 36.0551 42.3771 35.9053 42.3771ZM23.5862 43.0555C23.4756 43.0555 23.3627 43.0276 23.2599 42.9672C22.9458 42.7862 22.8385 42.386 23.0196 42.072L36.3155 19.0443C36.4966 18.7314 36.8967 18.6241 37.2108 18.804C37.5237 18.9851 37.631 19.3864 37.45 19.6993L24.1551 42.7281C24.0333 42.9382 23.8131 43.0555 23.5862 43.0555ZM23.0285 32.8477C22.824 32.8477 22.6228 32.7527 22.4942 32.5728L17.6647 25.7985C17.4658 25.5191 17.5161 25.1346 17.7787 24.9144L24.2267 19.5462C24.505 19.3137 24.9174 19.3517 25.1487 19.63C25.3801 19.9083 25.3432 20.3207 25.0649 20.5532L19.0853 25.5325L23.5616 31.8128C23.7718 32.1067 23.7025 32.5158 23.4085 32.7259C23.2934 32.8086 23.1604 32.8477 23.0285 32.8477Z" fill="#4361EE"/>
</g>
</g>
</g>
<defs>
<clipPath id="clip0_4145_2999">
<rect width="59.2" height="59.2" fill="white" transform="translate(0.399902 0.792969)"/>
</clipPath>
<clipPath id="clip1_4145_2999">
<rect width="59.2" height="59.2" fill="white" transform="translate(0.399902 0.792969)"/>
</clipPath>
<clipPath id="clip2_4145_2999">
<rect width="59.2" height="59.2" fill="white" transform="translate(0.399902 0.792969)"/>
</clipPath>
</defs>
</svg>
