<svg width="80" height="80" viewBox="0 0 80 80" fill="none" xmlns="http://www.w3.org/2000/svg">
<path d="M0 37.1014C0 19.6117 0 10.8668 5.43338 5.43338C10.8668 0 19.6117 0 37.1014 0H42.9C60.3898 0 69.1347 0 74.5681 5.43338C80.0014 10.8668 80.0014 19.6117 80.0014 37.1014V42.9C80.0014 60.3898 80.0014 69.1347 74.5681 74.5681C69.1347 80.0014 60.3898 80.0014 42.9 80.0014H37.1014C19.6117 80.0014 10.8668 80.0014 5.43338 74.5681C0 69.1347 0 60.3898 0 42.9V37.1014Z" fill="#1B1D1E"/>
<g clip-path="url(#clip0_10906_28757)">
<g clip-path="url(#clip1_10906_28757)">
<path d="M39.6951 44.9863C42.4909 44.9863 44.7574 42.7176 44.7574 39.9189C44.7574 37.1203 42.4909 34.8516 39.6951 34.8516C36.8993 34.8516 34.6328 37.1203 34.6328 39.9189C34.6328 42.7176 36.8993 44.9863 39.6951 44.9863Z" fill="white"/>
<path d="M19.019 34.5466C19.019 34.6077 18.958 34.7298 18.958 34.7908C18.958 35.3403 19.3849 35.8287 19.9949 35.8287H28.5946C29.0216 35.8287 29.3265 35.5845 29.5095 35.2182C31.2783 31.3108 35.1817 28.6855 39.6341 28.6855C45.7942 28.6855 50.7955 33.6919 50.7955 39.8582C50.7955 46.0246 45.7942 51.0309 39.6341 51.0309C35.1207 51.0309 31.2783 48.3446 29.5095 44.5593C29.3265 44.1319 29.0216 43.8877 28.5946 43.8877H19.9949C19.4459 43.8877 18.958 44.3151 18.958 44.9256C18.958 44.9867 18.958 45.1088 19.019 45.1698C21.3977 54.4498 29.7535 61.2878 39.6951 61.2878C51.4664 61.2878 61.042 51.7025 61.042 39.9193C61.042 28.1361 51.4664 18.5508 39.6951 18.5508C29.7535 18.5508 21.3977 25.3887 19.019 34.5466Z" fill="white"/>
</g>
</g>
<defs>
<clipPath id="clip0_10906_28757">
<rect width="42.9" height="42.9" fill="white" transform="translate(18.5508 18.5508)"/>
</clipPath>
<clipPath id="clip1_10906_28757">
<rect width="42.3604" height="42.9" fill="white" transform="translate(18.8203 18.5508)"/>
</clipPath>
</defs>
</svg>
