<svg width="40" height="40" viewBox="0 0 40 40" fill="none" xmlns="http://www.w3.org/2000/svg">
<path fill-rule="evenodd" clip-rule="evenodd" d="M20.625 30H18.75V33.9103C17.6578 34.2966 16.875 35.3391 16.875 36.5625C16.875 38.115 18.135 39.375 19.6875 39.375C21.24 39.375 22.5 38.115 22.5 36.5625C22.5 35.3391 21.7172 34.2966 20.625 33.9103V30ZM27.2513 29.5809C26.7956 29.7881 26.3006 29.925 25.7812 29.9766C25.6266 29.9925 25.4709 30 25.3125 30H23.9062C24.3337 30.5691 25.0144 30.9375 25.7812 30.9375C26.04 30.9375 26.25 31.1475 26.25 31.4062V32.0353C25.1578 32.4216 24.375 33.4641 24.375 34.6875C24.375 36.24 25.635 37.5 27.1875 37.5C28.74 37.5 30 36.24 30 34.6875C30 33.4641 29.2172 32.4216 28.125 32.0353V31.4062C28.125 30.6684 27.7838 30.0103 27.2513 29.5809ZM12.1116 29.5753C12.0478 29.6269 11.9859 29.6812 11.9278 29.7403C11.4937 30.1744 11.25 30.7622 11.25 31.3762V32.0353C10.1578 32.4216 9.375 33.4641 9.375 34.6875C9.375 36.24 10.635 37.5 12.1875 37.5C13.74 37.5 15 36.24 15 34.6875C15 33.4641 14.2172 32.4216 13.125 32.0353V31.3762C13.125 31.26 13.1709 31.1484 13.2534 31.0659C13.3359 30.9834 13.4475 30.9375 13.5638 30.9375H13.5656C14.3362 30.9375 15.0216 30.57 15.4547 30H14.0625C13.3659 30 12.705 29.8481 12.1116 29.5753ZM30 23.8912V25.3125C30 25.9997 29.8519 26.6522 29.5866 27.24C30.0206 27.78 30.6872 28.125 31.4344 28.125H32.0353C32.4216 29.2172 33.4641 30 34.6875 30C36.24 30 37.5 28.74 37.5 27.1875C37.5 25.635 36.24 24.375 34.6875 24.375C33.4641 24.375 32.4216 25.1578 32.0353 26.25H31.4344C31.1597 26.25 30.9375 26.0278 30.9375 25.7531C30.9375 25.7531 30.6938 24.5494 30.2597 24.1153C30.1781 24.0338 30.0919 23.9587 30 23.8912ZM9.375 23.8912C9.28312 23.9587 9.19687 24.0338 9.11531 24.1153C8.68125 24.5494 8.4375 25.1372 8.4375 25.7513V25.7531C8.4375 26.0278 8.21531 26.25 7.94063 26.25H7.33969C6.95344 25.1578 5.91094 24.375 4.6875 24.375C3.135 24.375 1.875 25.635 1.875 27.1875C1.875 28.74 3.135 30 4.6875 30C5.91094 30 6.95344 29.2172 7.33969 28.125H7.94063C8.68781 28.125 9.35437 27.78 9.78844 27.24C9.52312 26.6522 9.375 25.9997 9.375 25.3125V23.8912ZM28.125 14.0625C28.125 12.51 26.865 11.25 25.3125 11.25H14.0625C12.51 11.25 11.25 12.51 11.25 14.0625V25.3125C11.25 26.865 12.51 28.125 14.0625 28.125H25.3125C26.865 28.125 28.125 26.865 28.125 25.3125V14.0625ZM30 18.75V20.625H33.9103C34.2966 21.7172 35.3391 22.5 36.5625 22.5C38.115 22.5 39.375 21.24 39.375 19.6875C39.375 18.135 38.115 16.875 36.5625 16.875C35.3391 16.875 34.2966 17.6578 33.9103 18.75H30ZM9.375 20.625V18.75H5.46469C5.07844 17.6578 4.03594 16.875 2.8125 16.875C1.26 16.875 0 18.135 0 19.6875C0 21.24 1.26 22.5 2.8125 22.5C4.03594 22.5 5.07844 21.7172 5.46469 20.625H9.375ZM17.5378 20.8997L16.3256 19.6875L17.5378 18.4753C17.9034 18.1097 17.9034 17.5153 17.5378 17.1497C17.1722 16.7841 16.5778 16.7841 16.2122 17.1497L14.3372 19.0247C13.9706 19.3903 13.9706 19.9847 14.3372 20.3503L16.2122 22.2253C16.5778 22.5909 17.1722 22.5909 17.5378 22.2253C17.9034 21.8597 17.9034 21.2653 17.5378 20.8997ZM23.1628 22.2253L25.0378 20.3503C25.4044 19.9847 25.4044 19.3903 25.0378 19.0247L23.1628 17.1497C22.7972 16.7841 22.2028 16.7841 21.8372 17.1497C21.4716 17.5153 21.4716 18.1097 21.8372 18.4753L23.0494 19.6875L21.8372 20.8997C21.4716 21.2653 21.4716 21.8597 21.8372 22.2253C22.2028 22.5909 22.7972 22.5909 23.1628 22.2253ZM19.3444 18.4069L18.4069 20.0306C18.1481 20.4787 18.3019 21.0525 18.75 21.3113C19.1981 21.57 19.7719 21.4162 20.0306 20.9681L20.9681 19.3444C21.2269 18.8963 21.0731 18.3225 20.625 18.0637C20.1769 17.805 19.6031 17.9588 19.3444 18.4069ZM30 15.4688C30.5691 15.0413 30.9375 14.3606 30.9375 13.5938C30.9375 13.335 31.1475 13.125 31.4062 13.125H32.0353C32.4216 14.2172 33.4641 15 34.6875 15C36.24 15 37.5 13.74 37.5 12.1875C37.5 10.635 36.24 9.375 34.6875 9.375C33.4641 9.375 32.4216 10.1578 32.0353 11.25H31.4062C30.6684 11.25 30.0103 11.5913 29.5809 12.1237C29.85 12.7144 30 13.3716 30 14.0625V15.4688ZM9.375 15.4688V14.0625C9.375 13.3716 9.525 12.7144 9.79406 12.1237C9.36469 11.5913 8.70656 11.25 7.96875 11.25H7.33969C6.95344 10.1578 5.91094 9.375 4.6875 9.375C3.135 9.375 1.875 10.635 1.875 12.1875C1.875 13.74 3.135 15 4.6875 15C5.91094 15 6.95344 14.2172 7.33969 13.125H7.96875C8.2275 13.125 8.4375 13.335 8.4375 13.5938C8.4375 14.3606 8.80594 15.0413 9.375 15.4688ZM12.1116 9.79969C12.705 9.52688 13.3659 9.375 14.0625 9.375H15.4547C15.0216 8.805 14.3362 8.4375 13.5656 8.4375H13.5638C13.4475 8.4375 13.3359 8.39156 13.2534 8.30906C13.1709 8.22656 13.125 8.115 13.125 7.99875V7.33969C14.2172 6.95344 15 5.91094 15 4.6875C15 3.135 13.74 1.875 12.1875 1.875C10.635 1.875 9.375 3.135 9.375 4.6875C9.375 5.91094 10.1578 6.95344 11.25 7.33969V7.99875C11.25 8.61281 11.4937 9.20063 11.9278 9.63469C11.9859 9.69375 12.0478 9.74813 12.1116 9.79969ZM23.9062 9.375H25.3125C26.0034 9.375 26.6606 9.525 27.2513 9.79406C27.7838 9.36469 28.125 8.70656 28.125 7.96875V7.33969C29.2172 6.95344 30 5.91094 30 4.6875C30 3.135 28.74 1.875 27.1875 1.875C25.635 1.875 24.375 3.135 24.375 4.6875C24.375 5.91094 25.1578 6.95344 26.25 7.33969V7.96875C26.25 8.2275 26.04 8.4375 25.7812 8.4375C25.0144 8.4375 24.3337 8.80594 23.9062 9.375ZM18.75 9.375H20.625V5.46469C21.7172 5.07844 22.5 4.03594 22.5 2.8125C22.5 1.26 21.24 0 19.6875 0C18.135 0 16.875 1.26 16.875 2.8125C16.875 4.03594 17.6578 5.07844 18.75 5.46469V9.375Z" fill="#4361EE"/>
</svg>
