<svg width="50" height="50" viewBox="0 0 50 50" fill="none" xmlns="http://www.w3.org/2000/svg">
<path d="M31.7368 18.0559H33.2401L37.583 13.713L37.8057 11.8757C29.7324 4.74893 17.3719 5.52842 10.2452 13.6017C8.24078 15.8288 6.84884 18.5013 6.01367 21.3966C6.51477 21.1739 7.01587 21.1739 7.51697 21.2852L16.2027 19.8376C16.2027 19.8376 16.6481 19.1138 16.8708 19.1695C20.7683 14.938 27.2826 14.4369 31.7368 18.0559Z" fill="#EA4335"/>
<path d="M43.8184 21.3959C42.8162 17.7212 40.7561 14.4362 37.9165 11.875L31.792 17.9996C34.3532 20.1153 35.8565 23.2889 35.7451 26.5739V27.6318C38.7517 27.6318 41.1459 30.0816 41.1459 33.0326C41.1459 35.9835 38.696 38.4333 35.7451 38.4333H24.9436L23.8857 39.5469V46.0612L24.9436 47.119H35.8008C43.5957 47.1747 49.9429 40.8831 49.9986 33.0882C50.0543 28.467 47.7158 24.0684 43.8184 21.3959Z" fill="#4285F4"/>
<path d="M14.0314 47.1204H24.8886V38.4347H14.0314C13.2519 38.4347 12.4724 38.2677 11.8043 37.9336L10.301 38.4347L5.90244 42.7776L5.5127 44.2809C7.96252 46.1739 10.9691 47.1761 14.0314 47.1204Z" fill="#34A853"/>
<path d="M14.0312 18.9453C6.23628 19.001 -0.0553111 25.3483 0.000366711 33.1431C0.000366711 37.486 2.06044 41.6062 5.51247 44.223L11.8041 37.9314C9.07584 36.7065 7.85093 33.4772 9.07584 30.749C10.3008 28.0208 13.5301 26.7959 16.2583 28.0208C17.4832 28.5776 18.4297 29.5241 18.9865 30.749L25.2781 24.4574C22.6055 21.0054 18.4297 18.9453 14.0312 18.9453Z" fill="#FBBC05"/>
</svg>
