<svg width="50" height="50" viewBox="0 0 50 50" fill="none" xmlns="http://www.w3.org/2000/svg">
<g clip-path="url(#clip0_19752_30548)">
<path d="M37.7422 43.0961C31.8482 46.2856 23.7441 46.6134 15.5907 43.3399C8.98906 40.7089 3.51141 36.1031 0 30.8409C1.68548 32.1565 3.65184 33.2093 5.75865 34.1298C14.1788 37.8268 22.5971 37.5737 28.5214 34.1392C20.0939 28.0869 12.9219 20.1828 7.58482 13.7364C6.4607 12.6837 5.61795 11.3679 4.77522 10.1838C11.2362 15.7098 21.4898 22.6828 25.1409 24.6573C17.417 17.0254 10.5341 7.5527 10.8145 7.81533C23.0345 19.3939 34.412 25.9727 34.412 25.9727C34.7884 26.1716 35.0789 26.3371 35.3125 26.4851C35.5588 25.8983 35.7747 25.289 35.9566 24.6573C37.9229 17.947 35.6763 10.3151 30.7597 4C42.1361 10.447 48.8788 22.5514 46.0688 32.683C45.9955 32.9563 45.9159 33.2261 45.83 33.4911C51.4475 40.0701 50.0014 47.1565 49.2993 45.8409C46.2518 40.2546 40.6104 41.9628 37.7422 43.0961Z" fill="url(#paint0_linear_19752_30548)"/>
</g>
<defs>
<linearGradient id="paint0_linear_19752_30548" x1="25.0184" y1="4" x2="25.0184" y2="46.0022" gradientUnits="userSpaceOnUse">
<stop stop-color="#F88A36"/>
<stop offset="1" stop-color="#FD2020"/>
</linearGradient>
<clipPath id="clip0_19752_30548">
<rect width="50" height="50" fill="white"/>
</clipPath>
</defs>
</svg>
