<svg width="50" height="50" viewBox="0 0 50 50" fill="none" xmlns="http://www.w3.org/2000/svg">
<path d="M5 24.7637C5 13.718 13.9543 4.76367 25 4.76367C36.0457 4.76367 45 13.718 45 24.7637C45 35.8094 36.0457 44.7637 25 44.7637C13.9543 44.7637 5 35.8094 5 24.7637Z" fill="#FF9B43"/>
<path d="M34.2099 22.5293H29.8548C29.7752 21.9658 29.6128 21.4654 29.3675 21.0279C29.1223 20.5837 28.8074 20.2059 28.4229 19.8944C28.0385 19.5828 27.5943 19.3442 27.0906 19.1784C26.5934 19.0127 26.0531 18.9299 25.4698 18.9299C24.4158 18.9299 23.4978 19.1917 22.7156 19.7154C21.9334 20.2324 21.3268 20.9881 20.896 21.9824C20.4651 22.9701 20.2496 24.1699 20.2496 25.5819C20.2496 27.0336 20.4651 28.2533 20.896 29.2409C21.3335 30.2286 21.9433 30.9744 22.7255 31.4782C23.5077 31.9819 24.4125 32.2338 25.44 32.2338C26.0167 32.2338 26.5503 32.1576 27.0408 32.0051C27.538 31.8527 27.9788 31.6306 28.3633 31.339C28.7478 31.0407 29.0659 30.6794 29.3178 30.2551C29.5764 29.8309 29.7553 29.347 29.8548 28.8034L34.2099 28.8233C34.0972 29.758 33.8155 30.6595 33.3647 31.5279C32.9206 32.3896 32.3207 33.1619 31.565 33.8446C30.8159 34.5208 29.921 35.0577 28.8803 35.4554C27.8462 35.8465 26.6763 36.0421 25.3704 36.0421C23.5541 36.0421 21.93 35.6311 20.4982 34.8091C19.073 33.9872 17.9461 32.7973 17.1175 31.2395C16.2956 29.6818 15.8846 27.7959 15.8846 25.5819C15.8846 23.3612 16.3022 21.472 17.1374 19.9142C17.9727 18.3565 19.1062 17.1699 20.538 16.3546C21.9698 15.5326 23.5806 15.1216 25.3704 15.1216C26.5503 15.1216 27.6441 15.2873 28.6516 15.6188C29.6658 15.9502 30.564 16.4341 31.3462 17.0705C32.1284 17.7002 32.7648 18.4725 33.2553 19.3873C33.7525 20.302 34.0707 21.3494 34.2099 22.5293Z" fill="white"/>
</svg>
