<svg width="74" height="80" viewBox="0 0 74 80" fill="none" xmlns="http://www.w3.org/2000/svg">
<path d="M0 36.541C0 19.5959 0 11.1233 5.12587 5.74828C5.32839 5.53591 5.53591 5.32839 5.74828 5.12587C11.1233 0 19.5959 0 36.541 0C53.4862 0 61.9587 0 67.3338 5.12587C67.5462 5.32839 67.7537 5.53591 67.9562 5.74828C73.0821 11.1233 73.0821 19.5959 73.0821 36.541V43.4604C73.0821 60.4055 73.0821 68.8781 67.9562 74.2532C67.7537 74.4655 67.5462 74.6731 67.3338 74.8756C61.9587 80.0014 53.4862 80.0014 36.541 80.0014C19.5959 80.0014 11.1233 80.0014 5.74828 74.8756C5.53591 74.6731 5.32839 74.4655 5.12587 74.2532C0 68.8781 0 60.4055 0 43.4604V36.541Z" fill="#1B1D1E"/>
<g clip-path="url(#clip0_10906_28562)">
<path d="M18.6611 51.52L25.2511 46.4717C28.7523 51.0412 32.4722 53.1475 36.6127 53.1475C40.7311 53.1475 44.3458 51.0661 47.6892 46.5326L54.3733 51.4592C49.5491 57.9966 43.5542 61.4507 36.6127 61.4507C29.6934 61.4507 23.6403 58.0187 18.6611 51.52Z" fill="url(#paint0_linear_10906_28562)"/>
<path d="M36.5902 29.5771L24.8605 39.6849L19.4385 33.3966L36.6151 18.5947L53.6561 33.4077L48.2092 39.6739L36.5902 29.5771Z" fill="url(#paint1_linear_10906_28562)"/>
</g>
<defs>
<linearGradient id="paint0_linear_10906_28562" x1="18.6611" y1="1065.19" x2="54.3733" y2="1065.19" gradientUnits="userSpaceOnUse">
<stop stop-color="#8930FD"/>
<stop offset="1" stop-color="#49CCF9"/>
</linearGradient>
<linearGradient id="paint1_linear_10906_28562" x1="19.4385" y1="1452.94" x2="53.6561" y2="1452.94" gradientUnits="userSpaceOnUse">
<stop stop-color="#FF02F0"/>
<stop offset="1" stop-color="#FFC800"/>
</linearGradient>
<clipPath id="clip0_10906_28562">
<rect width="35.9806" height="42.9" fill="white" transform="translate(18.5508 18.5508)"/>
</clipPath>
</defs>
</svg>
