<svg width="44" height="44" viewBox="0 0 44 44" fill="none" xmlns="http://www.w3.org/2000/svg">
<path d="M24.7778 22.0155C24.7778 23.0258 24.2299 23.9082 23.4149 24.3817V33.0092C23.4149 33.7686 22.7993 34.3842 22.0399 34.3842C21.2805 34.3842 20.6649 33.7686 20.6649 33.0092V24.3779C19.8535 23.9035 19.3086 23.0231 19.3086 22.0155C19.3086 20.5225 20.5048 19.3089 21.9912 19.2813L24.912 14.2224C25.2916 13.5647 26.1326 13.3394 26.7902 13.7191C27.4479 14.0988 27.6731 14.9397 27.2935 15.5974L24.3946 20.6185C24.638 21.0273 24.7778 21.5051 24.7778 22.0155Z" fill="#2A2D30"/>
<path d="M41.25 22C41.25 11.3685 32.6315 2.75 22 2.75C11.3685 2.75 2.75 11.3685 2.75 22C2.75 32.6315 11.3685 41.25 22 41.25C32.6315 41.25 41.25 32.6315 41.25 22ZM37.125 22C37.125 30.3533 30.3533 37.125 22 37.125C13.6467 37.125 6.875 30.3533 6.875 22C6.875 13.6467 13.6467 6.875 22 6.875C30.3533 6.875 37.125 13.6467 37.125 22Z" fill="#2A2D30"/>
</svg>
