<svg width="50" height="50" viewBox="0 0 50 50" fill="none" xmlns="http://www.w3.org/2000/svg">
<g clip-path="url(#clip0_2765_12521)">
<g clip-path="url(#clip1_2765_12521)">
<g clip-path="url(#clip2_2765_12521)">
<path d="M16.1186 15.167C17.5422 9.9363 22.2154 6.08347 27.8398 6.08347C34.5809 6.08347 39.9793 11.6631 39.9793 18.5227C39.9793 19.1065 40.3408 19.7365 40.9548 20.1174C43.3212 21.5858 44.875 24.2311 44.875 27.2387C44.875 29.921 43.6422 32.2826 41.7385 33.8264L41.726 33.8364C40.3307 34.939 38.5707 35.5967 36.6858 35.5967H35.6152C35.0979 35.5967 34.7913 34.927 34.9965 34.4521C35.196 33.99 35.3066 33.4806 35.3066 32.9455V28.2104C35.3066 28.1565 35.3503 28.1128 35.4041 28.1128H35.917C38.0173 28.1128 39.7199 26.4102 39.7199 24.3099C39.7199 22.2096 38.0173 20.5069 35.917 20.5069H35.4041C33.1036 20.5069 31.0387 21.5153 29.6271 23.1142V19.0495C29.6271 16.9492 27.9245 15.2466 25.8242 15.2466C23.7239 15.2466 22.0213 16.9492 22.0213 19.0495V23.1138C20.6098 21.5152 18.545 20.5069 16.2447 20.5069H15.7376C13.6373 20.5069 11.9347 22.2096 11.9347 24.3099C11.9347 26.4102 13.6373 28.1128 15.7376 28.1128H16.2447C16.2985 28.1128 16.3422 28.1565 16.3422 28.2104V32.9455C16.3422 33.4806 16.4528 33.99 16.6523 34.4521C16.8574 34.927 16.5509 35.5967 16.0336 35.5967H14.901C13.5868 35.5967 11.9404 34.9853 10.5046 34.0438C7.72176 32.2592 5.875 29.0964 5.875 25.5094C5.875 19.9615 10.263 15.422 15.7524 15.422C15.9396 15.422 16.0852 15.2899 16.1186 15.167Z" fill="#4361EE"/>
<path d="M19.1702 40.3424C18.6317 40.3424 18.1951 39.9057 18.1951 39.3672V37.417C18.1951 36.8785 18.6317 36.4419 19.1702 36.4419H21.1204C21.6589 36.4419 22.0955 36.8785 22.0955 37.417V39.3672C22.0955 39.9057 21.6589 40.3424 21.1204 40.3424H19.1702Z" fill="#4361EE"/>
<path d="M33.4538 39.3672C33.4538 39.9057 33.0172 40.3424 32.4786 40.3424H30.5284C29.9899 40.3424 29.5533 39.9057 29.5533 39.3672V37.417C29.5533 36.8785 29.9899 36.4419 30.5284 36.4419H32.4786C33.0172 36.4419 33.4538 36.8785 33.4538 37.417V39.3672Z" fill="#4361EE"/>
<path d="M27.7745 43.6914C27.7745 44.23 27.338 44.6665 26.7994 44.6665H24.8492C24.3106 44.6665 23.8741 44.23 23.8741 43.6914V41.7412C23.8741 41.2026 24.3106 40.7661 24.8492 40.7661H26.7994C27.338 40.7661 27.7745 41.2026 27.7745 41.7412V43.6914Z" fill="#4361EE"/>
<path d="M25.8243 37.7093C25.1241 37.7093 24.5566 37.1418 24.5566 36.4417V19.0495C24.5566 18.3494 25.1241 17.7819 25.8243 17.7819C26.5243 17.7819 27.0919 18.3494 27.0919 19.0495V36.4417C27.0919 37.1418 26.5243 37.7093 25.8243 37.7093Z" fill="#4361EE"/>
<path d="M31.5036 34.2131C30.8036 34.2131 30.236 33.6456 30.236 32.9454V28.2104C30.236 25.3561 32.5498 23.0423 35.4041 23.0423H35.917C36.6171 23.0423 37.1847 23.6098 37.1847 24.3099C37.1847 25.01 36.6171 25.5776 35.917 25.5776H35.4041C33.95 25.5776 32.7713 26.7563 32.7713 28.2104V32.9454C32.7713 33.6456 32.2038 34.2131 31.5036 34.2131Z" fill="#4361EE"/>
<path d="M21.4129 32.9454C21.4129 33.6456 20.8453 34.2131 20.1452 34.2131C19.4451 34.2131 18.8776 33.6456 18.8776 32.9454V28.2104C18.8776 26.7563 17.6988 25.5776 16.2448 25.5776H15.7377C15.0376 25.5776 14.4701 25.01 14.4701 24.3099C14.4701 23.6098 15.0376 23.0423 15.7377 23.0423H16.2448C19.099 23.0423 21.4129 25.3561 21.4129 28.2104V32.9454Z" fill="#4361EE"/>
</g>
</g>
</g>
<defs>
<clipPath id="clip0_2765_12521">
<rect width="40" height="40" fill="white" transform="translate(5 5)"/>
</clipPath>
<clipPath id="clip1_2765_12521">
<rect width="40" height="40" fill="white" transform="translate(5 5)"/>
</clipPath>
<clipPath id="clip2_2765_12521">
<rect width="40" height="40" fill="white" transform="translate(5 5)"/>
</clipPath>
</defs>
</svg>
