<svg width="14" height="14" viewBox="0 0 14 14" fill="none" xmlns="http://www.w3.org/2000/svg">
<g clip-path="url(#clip0_3462_5981)">
<path d="M13.7 5L12.9 5.2L13.2 7C13.2 10.4 10.4 13.1 7 13.1C3.6 13.1 0.8 10.4 0.8 7C0.787367 5.89849 1.07325 4.81411 1.62731 3.86199C2.18136 2.90988 2.9829 2.12557 3.94682 1.59234C4.91075 1.0591 6.00108 0.796842 7.10206 0.833405C8.20304 0.869968 9.27357 1.20399 10.2 1.8L10.6 1C9.5 0.3 8.3 0 7 0C5.14348 0 3.36301 0.737498 2.05025 2.05025C0.737498 3.36301 0 5.14348 0 7C0 10.9 3.1 14 7 14C8.08955 13.9987 9.16375 13.7431 10.1371 13.2536C11.1105 12.764 11.9561 12.054 12.6067 11.18C13.2574 10.3061 13.695 9.29228 13.8848 8.21939C14.0746 7.14651 14.0113 6.04413 13.7 5ZM4.9 5.4L4.3 6L7.1 8.8L13.8 2.1L13.2 1.5L7.1 7.6L4.9 5.4Z" fill="#6B8DA4"/>
</g>
<defs>
<clipPath id="clip0_3462_5981">
<rect width="14" height="14" fill="white"/>
</clipPath>
</defs>
</svg>
