<svg xmlns="http://www.w3.org/2000/svg" width="70" height="22" viewBox="0 0 70 22" fill="none"><g id="Group"><path id="Vector" d="M18.2002 0H21.4202V21.4457H18.2002V0Z" fill="white"></path><path id="Vector_2" d="M32.6203 14.6496C32.6203 17.9722 30.1003 18.2743 29.2603 18.2743C27.3003 18.2743 27.0203 16.3109 27.0203 15.2537V6.9473H23.8003V15.1027C23.8003 17.0661 24.3603 18.8784 25.4803 19.9356C26.4603 20.9927 27.7203 21.4458 29.2603 21.4458C30.3803 21.4458 31.7803 21.1438 32.6203 20.2376V21.4458H35.8403V6.9473H32.6203V14.6496Z" fill="white"></path><path id="Vector_3" d="M42.14 1.66122H38.92V6.94715H36.54V10.2697H38.92V21.4457H42.14V10.2697H44.52V6.94715H42.14V1.66122Z" fill="white"></path><path id="Vector_4" d="M54.6001 17.0661C53.9001 17.6702 52.9201 18.1232 51.9401 18.1232C49.7001 18.1232 48.1601 16.3109 48.1601 13.8945C48.1601 11.4781 49.7001 9.81679 51.9401 9.81679C52.9201 9.81679 53.9001 10.1188 54.6001 10.874L55.0201 11.327L57.2601 9.06165L56.7001 8.60857C55.4401 7.40036 53.7601 6.64523 51.9401 6.64523C48.0201 6.64523 45.0801 9.81679 45.0801 14.0455C45.0801 18.2743 48.0201 21.4458 51.9401 21.4458C53.7601 21.4458 55.4401 20.6907 56.7001 19.4825L57.2601 19.0294L55.0201 16.613L54.6001 17.0661Z" fill="white"></path><path id="Vector_5" d="M68.5998 8.15543C67.6198 7.09824 66.6398 6.64516 65.0998 6.64516C63.9798 6.64516 62.8598 6.94721 62.0198 7.85337V0H58.7998V21.4457H62.0198V13.4413C62.0198 10.1188 64.1198 9.81671 64.9598 9.81671C66.9198 9.81671 66.7798 11.7801 66.7798 12.8372V21.2947H69.9998V12.9883C69.9998 11.0249 69.5798 9.21261 68.5998 8.15543Z" fill="white"></path><path id="Vector_6" d="M51.8001 16.462C53.0372 16.462 54.0401 15.3801 54.0401 14.0455C54.0401 12.711 53.0372 11.6291 51.8001 11.6291C50.5629 11.6291 49.5601 12.711 49.5601 14.0455C49.5601 15.3801 50.5629 16.462 51.8001 16.462Z" fill="#EF4335"></path><path id="Vector_7" d="M13.72 16.16C12.6 17.3682 10.92 18.1234 9.10001 18.1234C5.60001 18.1234 3.08 15.1028 3.08 11.0251C3.08 6.9474 5.60001 3.92687 9.24001 3.92687C10.92 3.92687 12.6 4.682 13.86 6.04124L14.28 6.49432L16.38 4.22892L15.96 3.77584C14.14 1.8125 11.76 0.755316 9.24001 0.755316C3.92 0.604289 0 5.13508 0 11.0251C0 16.9151 3.92 21.4459 9.10001 21.4459C11.62 21.4459 14.14 20.3887 15.82 18.4254L16.24 17.9723L14.14 15.7069L13.72 16.16Z" fill="white"></path></g></svg>