<svg width="296" height="47" viewBox="0 0 296 47" fill="none" xmlns="http://www.w3.org/2000/svg">
<path d="M17.9264 35.4126H12.102C11.9644 35.4126 11.6862 35.275 11.6862 35.1344L9.8854 29.5882C9.74782 29.1724 9.05378 29.1724 8.9162 29.5882L7.11539 35.1344C7.11539 35.2719 6.83716 35.4126 6.69958 35.4126H0.87523C0.459423 35.4126 0.181198 35.966 0.597005 36.2442L5.31153 39.7113C5.44911 39.8489 5.58974 39.9895 5.4491 40.2647L3.6483 45.8108C3.51071 46.2266 4.0641 46.6424 4.34232 46.3642L9.05684 42.8971C9.19443 42.7595 9.47265 42.7595 9.61023 42.8971L14.3247 46.3642C14.7406 46.6424 15.1564 46.2266 15.0188 45.8108L13.218 40.2647C13.218 40.1271 13.218 39.8489 13.3556 39.7113L18.0701 36.2442C18.6204 35.969 18.4798 35.4126 17.9264 35.4126Z" fill="#FF5B14"/>
<path d="M36.6437 35.4126H30.8193C30.6817 35.4126 30.4035 35.275 30.4035 35.1344L28.6027 29.5882C28.4651 29.1724 27.7711 29.1724 27.6335 29.5882L25.8327 35.1344C25.8327 35.2719 25.5544 35.4126 25.4169 35.4126H19.5925C19.1767 35.4126 18.8985 35.966 19.3143 36.2442L24.0288 39.7113C24.1664 39.8489 24.307 39.9895 24.1664 40.2647L22.3656 45.8108C22.228 46.2266 22.7814 46.6424 23.0596 46.3642L27.7741 42.8971C27.9117 42.7595 28.1899 42.7595 28.3275 42.8971L33.042 46.3642C33.4578 46.6424 33.8736 46.2266 33.7361 45.8108L31.9353 40.2647C31.9353 40.1271 31.9353 39.8489 32.0728 39.7113L36.7873 36.2442C37.197 35.969 37.0595 35.4126 36.6437 35.4126Z" fill="#FF5B14"/>
<path d="M55.7735 35.4126H49.9492C49.8116 35.4126 49.5334 35.275 49.5334 35.1344L47.7326 29.5882C47.595 29.1724 46.901 29.1724 46.7634 29.5882L44.9626 35.1344C44.9626 35.2719 44.6843 35.4126 44.5468 35.4126H38.7224C38.3066 35.4126 38.0284 35.966 38.4442 36.2442L43.1587 39.7113C43.2963 39.8489 43.4369 39.9895 43.2963 40.2647L41.4955 45.8108C41.3579 46.2266 41.9113 46.6424 42.1895 46.3642L46.904 42.8971C47.0416 42.7595 47.3198 42.7595 47.4574 42.8971L52.1719 46.3642C52.5877 46.6424 53.0035 46.2266 52.8659 45.8108L51.0651 40.2647C51.0651 40.1271 51.0651 39.8489 51.2027 39.7113L55.9172 36.2442C56.33 35.969 56.1893 35.4126 55.7735 35.4126Z" fill="#FF5B14"/>
<path d="M74.7696 35.4126H68.9453C68.8077 35.4126 68.5295 35.275 68.5295 35.1344L66.7287 29.5882C66.5911 29.1724 65.897 29.1724 65.7595 29.5882L63.9587 35.1344C63.9587 35.2719 63.6804 35.4126 63.5428 35.4126H57.7185C57.3027 35.4126 57.0245 35.966 57.4403 36.2442L62.1548 39.7113C62.2924 39.8489 62.433 39.9895 62.2924 40.2647L60.4916 45.8108C60.354 46.2266 60.9074 46.6424 61.1856 46.3642L65.9001 42.8971C66.0377 42.7595 66.3159 42.7595 66.4535 42.8971L71.168 46.3642C71.5838 46.6424 71.9996 46.2266 71.862 45.8108L70.0612 40.2647C70.0612 40.1271 70.0612 39.8489 70.1988 39.7113L74.9133 36.2442C75.323 35.969 75.1854 35.4126 74.7696 35.4126Z" fill="#FF5B14"/>
<path d="M93.6245 36.2474C94.0403 35.9691 93.7621 35.4157 93.3463 35.4157H87.5219C87.3844 35.4157 87.1061 35.2782 87.1061 35.1375L85.3053 29.5914C85.1677 29.1756 84.4737 29.1756 84.3361 29.5914L82.5353 35.1375C82.5353 35.2751 82.2571 35.4157 82.1195 35.4157H76.2951C75.8793 35.4157 75.6011 35.9691 76.0169 36.2474L80.7314 39.7145C80.869 39.852 81.0097 39.9927 80.869 40.2678L79.0682 45.814C78.9306 46.2298 79.484 46.6456 79.7622 46.3674L84.4768 42.9003C84.6143 42.7627 84.8926 42.7627 85.0301 42.9003L89.7447 46.3674C90.1605 46.6456 90.5763 46.2298 90.4387 45.814L88.6379 40.2678C88.6379 40.1303 88.6379 39.852 88.7755 39.7145L93.6245 36.2474Z" fill="#FF5B14"/>
<path d="M5.23251 17.7013C4.56584 17.7013 3.96547 17.5688 3.43137 17.3036C2.89728 17.0384 2.46925 16.6748 2.14728 16.2127C1.82531 15.7506 1.64918 15.2241 1.61887 14.6331H2.98251C3.03554 15.1597 3.27418 15.5953 3.69842 15.94C4.12645 16.2809 4.63781 16.4513 5.23251 16.4513C5.70978 16.4513 6.13403 16.3396 6.50524 16.1161C6.88024 15.8926 7.1738 15.5858 7.38592 15.1956C7.60183 14.8017 7.70978 14.3566 7.70978 13.8604C7.70978 13.3528 7.59804 12.9002 7.37456 12.5025C7.15486 12.1009 6.85183 11.7847 6.46547 11.5536C6.0791 11.3225 5.63781 11.2051 5.1416 11.2013C4.78554 11.1975 4.42001 11.2525 4.04501 11.3661C3.67001 11.4759 3.3613 11.618 3.11887 11.7922L1.80069 11.6331L2.50524 5.90587H8.55069V7.15587H3.68706L3.27797 10.5877H3.34615C3.58478 10.3983 3.88403 10.2411 4.24387 10.1161C4.60372 9.9911 4.97872 9.9286 5.36887 9.9286C6.081 9.9286 6.71547 10.0991 7.27228 10.44C7.83289 10.7771 8.27228 11.2392 8.59047 11.8263C8.91243 12.4134 9.07342 13.0839 9.07342 13.8377C9.07342 14.5801 8.90675 15.243 8.57342 15.8263C8.24387 16.4059 7.78933 16.8642 7.20978 17.2013C6.63024 17.5347 5.97115 17.7013 5.23251 17.7013ZM22.3987 8.81496C22.3305 8.23921 22.054 7.79224 21.5692 7.47405C21.0843 7.15587 20.4896 6.99678 19.7851 6.99678C19.2699 6.99678 18.8192 7.08011 18.4328 7.24678C18.0502 7.41345 17.751 7.64261 17.5351 7.93428C17.3229 8.22595 17.2169 8.55739 17.2169 8.9286C17.2169 9.23921 17.2907 9.50625 17.4385 9.72974C17.59 9.94943 17.7832 10.1331 18.018 10.2809C18.2529 10.4248 18.4991 10.5441 18.7567 10.6388C19.0142 10.7297 19.251 10.8036 19.4669 10.8604L20.6487 11.1786C20.9517 11.2581 21.2889 11.368 21.6601 11.5081C22.0351 11.6483 22.393 11.8396 22.7339 12.082C23.0786 12.3206 23.3627 12.6275 23.5862 13.0025C23.8097 13.3775 23.9214 13.8377 23.9214 14.3831C23.9214 15.0119 23.7567 15.5801 23.4271 16.0877C23.1014 16.5953 22.6241 16.9987 21.9953 17.2979C21.3703 17.5972 20.6108 17.7468 19.7169 17.7468C18.8836 17.7468 18.162 17.6123 17.5521 17.3434C16.9461 17.0744 16.4688 16.6994 16.1203 16.2184C15.7756 15.7373 15.5805 15.1786 15.5351 14.5422H16.9896C17.0275 14.9816 17.1752 15.3453 17.4328 15.6331C17.6942 15.9172 18.0237 16.1294 18.4214 16.2695C18.8229 16.4059 19.2548 16.4741 19.7169 16.4741C20.2548 16.4741 20.7377 16.3869 21.1657 16.2127C21.5938 16.0347 21.9328 15.7884 22.1828 15.4741C22.4328 15.1559 22.5578 14.7847 22.5578 14.3604C22.5578 13.9741 22.4498 13.6597 22.2339 13.4172C22.018 13.1748 21.7339 12.9778 21.3817 12.8263C21.0294 12.6748 20.6487 12.5422 20.2396 12.4286L18.8078 12.0195C17.8987 11.7581 17.179 11.385 16.6487 10.9002C16.1184 10.4153 15.8532 9.78087 15.8532 8.99678C15.8532 8.34527 16.0294 7.77708 16.3817 7.29224C16.7377 6.8036 17.215 6.42481 17.8135 6.15587C18.4157 5.88315 19.0881 5.74678 19.8305 5.74678C20.5805 5.74678 21.2472 5.88125 21.8305 6.15019C22.4139 6.41534 22.876 6.77898 23.2169 7.2411C23.5616 7.70322 23.7434 8.22784 23.7623 8.81496H22.3987ZM29.8518 8.81496V9.95133H25.3291V8.81496H29.8518ZM26.6473 6.72405H27.9882V15.0422C27.9882 15.421 28.0431 15.7051 28.153 15.8945C28.2666 16.0801 28.4105 16.2051 28.5848 16.2695C28.7628 16.3301 28.9503 16.3604 29.1473 16.3604C29.295 16.3604 29.4162 16.3528 29.5109 16.3377C29.6056 16.3188 29.6814 16.3036 29.7382 16.2922L30.0109 17.4968C29.92 17.5309 29.7931 17.565 29.6302 17.5991C29.4674 17.6369 29.2609 17.6559 29.0109 17.6559C28.6321 17.6559 28.2609 17.5744 27.8973 17.4116C27.5374 17.2487 27.2382 17.0006 26.9996 16.6672C26.7647 16.3339 26.6473 15.9134 26.6473 15.4059V6.72405ZM34.4371 17.7468C33.884 17.7468 33.3821 17.6426 32.9314 17.4343C32.4806 17.2222 32.1227 16.9172 31.8575 16.5195C31.5924 16.118 31.4598 15.6331 31.4598 15.065C31.4598 14.565 31.5583 14.1597 31.7552 13.8491C31.9522 13.5347 32.2155 13.2884 32.545 13.1104C32.8746 12.9324 33.2382 12.7998 33.6359 12.7127C34.0374 12.6218 34.4408 12.5498 34.8461 12.4968C35.3765 12.4286 35.8064 12.3775 36.1359 12.3434C36.4693 12.3055 36.7117 12.243 36.8632 12.1559C37.0185 12.0688 37.0961 11.9172 37.0961 11.7013V11.6559C37.0961 11.0953 36.9427 10.6597 36.6359 10.3491C36.3329 10.0384 35.8727 9.88315 35.2552 9.88315C34.6151 9.88315 34.1132 10.0233 33.7496 10.3036C33.3859 10.5839 33.1302 10.8831 32.9825 11.2013L31.7098 10.7468C31.9371 10.2165 32.2401 9.8036 32.6189 9.50815C33.0015 9.2089 33.4181 9.00057 33.8689 8.88315C34.3234 8.76193 34.7704 8.70133 35.2098 8.70133C35.4901 8.70133 35.8121 8.73542 36.1757 8.8036C36.5431 8.86799 36.8973 9.00246 37.2382 9.20701C37.5829 9.41155 37.8689 9.72027 38.0961 10.1331C38.3234 10.546 38.4371 11.0991 38.4371 11.7922V17.5422H37.0961V16.3604H37.028C36.9371 16.5498 36.7855 16.7525 36.5734 16.9684C36.3613 17.1843 36.0791 17.368 35.7268 17.5195C35.3746 17.671 34.9446 17.7468 34.4371 17.7468ZM34.6416 16.5422C35.1719 16.5422 35.6189 16.4381 35.9825 16.2297C36.3499 16.0214 36.6265 15.7525 36.8121 15.4229C37.0015 15.0934 37.0961 14.7468 37.0961 14.3831V13.1559C37.0393 13.2241 36.9143 13.2866 36.7211 13.3434C36.5318 13.3964 36.3121 13.4438 36.0621 13.4854C35.8158 13.5233 35.5753 13.5574 35.3405 13.5877C35.1094 13.6142 34.9219 13.6369 34.778 13.6559C34.4295 13.7013 34.1037 13.7752 33.8007 13.8775C33.5015 13.9759 33.259 14.1256 33.0734 14.3263C32.8916 14.5233 32.8007 14.7922 32.8007 15.1331C32.8007 15.5991 32.973 15.9513 33.3177 16.19C33.6662 16.4248 34.1075 16.5422 34.6416 16.5422ZM40.8845 17.5422V8.81496H42.18V10.1331H42.2709C42.43 9.70133 42.7178 9.35095 43.1345 9.08201C43.5512 8.81307 44.0209 8.6786 44.5436 8.6786C44.6421 8.6786 44.7652 8.68049 44.9129 8.68428C45.0606 8.68807 45.1724 8.69375 45.2481 8.70133V10.065C45.2027 10.0536 45.0985 10.0366 44.9356 10.0138C44.7765 9.98731 44.608 9.97405 44.43 9.97405C44.0057 9.97405 43.6269 10.0631 43.2936 10.2411C42.964 10.4153 42.7027 10.6578 42.5095 10.9684C42.3201 11.2752 42.2254 11.6256 42.2254 12.0195V17.5422H40.8845ZM54.8831 17.7241C54.0952 17.7241 53.4039 17.5366 52.8092 17.1616C52.2183 16.7866 51.7562 16.2619 51.4229 15.5877C51.0933 14.9134 50.9285 14.1256 50.9285 13.2241C50.9285 12.315 51.0933 11.5214 51.4229 10.8434C51.7562 10.1653 52.2183 9.63883 52.8092 9.26383C53.4039 8.88883 54.0952 8.70133 54.8831 8.70133C55.671 8.70133 56.3604 8.88883 56.9513 9.26383C57.546 9.63883 58.0081 10.1653 58.3376 10.8434C58.671 11.5214 58.8376 12.315 58.8376 13.2241C58.8376 14.1256 58.671 14.9134 58.3376 15.5877C58.0081 16.2619 57.546 16.7866 56.9513 17.1616C56.3604 17.5366 55.671 17.7241 54.8831 17.7241ZM54.8831 16.5195C55.4816 16.5195 55.974 16.3661 56.3604 16.0593C56.7467 15.7525 57.0327 15.3491 57.2183 14.8491C57.4039 14.3491 57.4967 13.8074 57.4967 13.2241C57.4967 12.6407 57.4039 12.0972 57.2183 11.5934C57.0327 11.0896 56.7467 10.6824 56.3604 10.3718C55.974 10.0612 55.4816 9.90587 54.8831 9.90587C54.2846 9.90587 53.7922 10.0612 53.4058 10.3718C53.0194 10.6824 52.7335 11.0896 52.5479 11.5934C52.3622 12.0972 52.2694 12.6407 52.2694 13.2241C52.2694 13.8074 52.3622 14.3491 52.5479 14.8491C52.7335 15.3491 53.0194 15.7525 53.4058 16.0593C53.7922 16.3661 54.2846 16.5195 54.8831 16.5195ZM62.2254 12.2922V17.5422H60.8845V8.81496H62.18V10.1786H62.2936C62.4981 9.73542 62.8087 9.37936 63.2254 9.11042C63.6421 8.83769 64.18 8.70133 64.839 8.70133C65.43 8.70133 65.947 8.82254 66.3902 9.06496C66.8334 9.3036 67.1781 9.66724 67.4243 10.1559C67.6705 10.6407 67.7936 11.2544 67.7936 11.9968V17.5422H66.4527V12.0877C66.4527 11.4021 66.2747 10.868 65.9186 10.4854C65.5625 10.0991 65.0739 9.90587 64.4527 9.90587C64.0247 9.90587 63.6421 9.99868 63.305 10.1843C62.9716 10.3699 62.7084 10.6407 62.5152 10.9968C62.322 11.3528 62.2254 11.7847 62.2254 12.2922Z" fill="white"/>
<path d="M148.262 2.85645H141.604V44.1407H148.262V2.85645Z" fill="white"/>
<path d="M171.386 44.1408H178.045V16.1738H171.386V30.9436H171.506C171.506 37.119 166.18 37.7224 164.727 37.7224C160.853 37.7224 160.007 33.9685 160.007 31.6698V16.1738H153.348V31.9127C153.348 35.7867 154.68 38.9345 156.616 41.236C158.432 43.0515 161.336 44.1408 164.607 44.1408C166.908 44.1408 169.933 43.5347 171.386 41.8393V44.1408Z" fill="white"/>
<path d="M184.46 44.1409H191.119V22.8326H195.962V16.1739H191.119V6.24731H184.46V16.1739H179.497V22.8326H184.46V44.1409Z" fill="white"/>
<path d="M211.458 44.0206C215.212 44.0206 218.723 42.6883 221.385 40.2667L222.354 39.2975L217.754 34.6973L216.785 35.9068C215.332 37.2391 213.517 37.9653 211.458 37.9653C206.858 37.9653 203.467 34.6973 203.467 29.8542C203.467 25.011 206.735 21.8633 211.458 21.8633C213.517 21.8633 215.332 22.4693 216.785 23.9217L217.754 24.7681L222.111 20.4108L221.142 19.4417C218.357 17.1402 215.089 15.6878 211.455 15.6878C203.224 15.5677 197.169 21.5001 197.169 29.8515C197.172 37.725 203.347 44.0206 211.458 44.0206Z" fill="white"/>
<path d="M232.16 28.522C232.16 22.3466 236.761 21.7432 238.213 21.7432C242.087 21.7432 242.087 25.497 242.087 27.7958V44.1408H248.746V27.6756C248.866 24.0446 248.019 20.774 245.841 18.5954C244.025 16.7799 241.604 15.6906 238.576 15.6906C236.275 15.6906 233.856 16.2966 232.038 17.992V2.85913H225.379V44.1434H232.038V28.5246H232.16V28.522Z" fill="white"/>
<path d="M206.375 29.8544C206.375 32.5189 208.553 34.5747 211.095 34.5747C213.759 34.5747 215.815 32.3961 215.815 29.8544C215.815 27.1898 213.637 25.134 211.095 25.134C208.553 25.134 206.375 27.1925 206.375 29.8544Z" fill="#E52421"/>
<path d="M122.837 44.0206C128.163 44.0206 133.249 41.9621 136.638 38.2083L137.607 37.2391L133.249 32.6389L132.403 33.8484C129.982 36.27 126.35 37.7224 122.84 37.7224C115.335 37.7224 110.005 31.9101 110.005 24.0419C110.005 16.051 115.332 10.3615 122.717 10.3615C126.228 10.3615 129.496 11.8139 132.28 14.2355L133.249 15.2046L137.607 10.8474L136.638 9.87824C133.006 6.00425 128.041 4.06592 122.837 4.06592C111.941 4.18606 103.83 12.6629 103.83 24.0419C103.83 35.4209 111.941 44.0206 122.837 44.0206Z" fill="white"/>
</svg>
