<svg width="94" height="27" viewBox="0 0 94 27" fill="none" xmlns="http://www.w3.org/2000/svg"><path d="M28.682 0h-4.3v26.653h4.3zm14.932 26.653h4.299V8.598h-4.3v9.535h.078c0 3.987-3.438 4.376-4.376 4.376-2.501 0-3.047-2.423-3.047-3.907V8.598h-4.3v10.16c0 2.502.86 4.534 2.11 6.02 1.173 1.172 3.048 1.875 5.16 1.875 1.485 0 3.438-.391 4.376-1.486zm8.442 0h4.299V12.897h3.126v-4.3h-3.126V2.19h-4.3v6.409h-3.203v4.299h3.204zm17.427-.078c2.423 0 4.69-.86 6.408-2.423l.626-.626-2.97-2.97-.626.781a4.98 4.98 0 0 1-3.438 1.33c-2.97 0-5.16-2.11-5.16-5.237s2.11-5.16 5.16-5.16c1.329 0 2.5.392 3.438 1.33l.626.546 2.813-2.813-.626-.626c-1.797-1.485-3.907-2.423-6.253-2.423-5.314-.078-9.223 3.752-9.223 9.144.002 5.083 3.988 9.147 9.225 9.147M82.847 16.57c0-3.987 2.97-4.377 3.907-4.377 2.501 0 2.501 2.424 2.501 3.908v10.552h4.3v-10.63c.077-2.344-.47-4.456-1.876-5.862-1.172-1.172-2.736-1.875-4.69-1.875-1.486 0-3.048.39-4.222 1.485V.001H78.47v26.654h4.299V16.57h.079z" fill="#fff"/><path d="M66.203 17.43a3.05 3.05 0 0 0 3.047 3.047 3.05 3.05 0 0 0 3.048-3.047 3.05 3.05 0 0 0-3.047-3.048 3.05 3.05 0 0 0-3.048 3.048" fill="#e52421"/><path d="M12.27 26.575c3.44 0 6.723-1.329 8.91-3.752l.626-.626-2.813-2.97-.546.781c-1.564 1.564-3.908 2.501-6.175 2.501-4.845 0-8.285-3.752-8.285-8.832 0-5.159 3.439-8.832 8.206-8.832 2.267 0 4.377.938 6.174 2.501l.626.626 2.813-2.813-.626-.626c-2.344-2.5-5.55-3.752-8.91-3.752C5.237.858 0 6.33 0 13.677s5.236 12.898 12.27 12.898" fill="#fff"/></svg>