<svg width="50" height="50" viewBox="0 0 50 50" fill="none" xmlns="http://www.w3.org/2000/svg">
<path d="M48.3221 22.754C47.7656 16.9542 45.0681 11.5698 40.7559 7.65163C36.4438 3.73342 30.8264 1.5625 25 1.5625C19.1736 1.5625 13.5562 3.73342 9.24408 7.65163C4.93193 11.5698 2.23442 16.9542 1.67794 22.754C1.19341 22.8973 0.76821 23.1934 0.465804 23.5982C0.163397 24.003 0 24.4947 0 25C0 25.5053 0.163397 25.997 0.465804 26.4018C0.76821 26.8066 1.19341 27.1028 1.67794 27.2461C2.23442 33.0458 4.93193 38.4302 9.24408 42.3484C13.5562 46.2666 19.1736 48.4375 25 48.4375C30.8264 48.4375 36.4438 46.2666 40.7559 42.3484C45.068 38.4302 47.7656 33.0458 48.322 27.2461C48.8066 27.1028 49.2318 26.8066 49.5342 26.4018C49.8366 25.997 50 25.5053 50 25C50 24.4947 49.8366 24.003 49.5342 23.5982C49.2318 23.1934 48.8066 22.8973 48.3221 22.754ZM2.34375 25.7813C2.18923 25.7813 2.03819 25.7354 1.90971 25.6496C1.78124 25.5638 1.6811 25.4417 1.62197 25.299C1.56284 25.1562 1.54737 24.9991 1.57751 24.8476C1.60766 24.696 1.68206 24.5568 1.79132 24.4476C1.90058 24.3383 2.03979 24.2639 2.19134 24.2338C2.34289 24.2036 2.49997 24.2191 2.64272 24.2782C2.78548 24.3374 2.90749 24.4375 2.99334 24.566C3.07918 24.6944 3.125 24.8455 3.125 25C3.12477 25.2071 3.04238 25.4057 2.89592 25.5522C2.74946 25.6986 2.55088 25.781 2.34375 25.7813ZM46.7602 27.1649C46.225 32.5645 43.7014 37.5723 39.6799 41.215C35.6583 44.8576 30.426 46.875 25 46.875C19.574 46.875 14.3417 44.8576 10.3201 41.215C6.29859 37.5723 3.77499 32.5645 3.23982 27.1649C3.66827 26.9878 4.03453 26.6876 4.29223 26.3022C4.54994 25.9168 4.6875 25.4636 4.6875 25C4.6875 24.5364 4.54994 24.0832 4.29223 23.6978C4.03453 23.3124 3.66827 23.0122 3.23982 22.8351C3.77499 17.4355 6.29859 12.4277 10.3201 8.78505C14.3417 5.14238 19.574 3.125 25 3.125C30.426 3.125 35.6583 5.14238 39.6799 8.78505C43.7014 12.4277 46.225 17.4355 46.7602 22.8351C46.3317 23.0122 45.9655 23.3124 45.7078 23.6978C45.4501 24.0832 45.3125 24.5364 45.3125 25C45.3125 25.4636 45.4501 25.9168 45.7078 26.3022C45.9655 26.6876 46.3317 26.9878 46.7602 27.1649ZM47.6563 25.7813C47.5017 25.7813 47.3507 25.7354 47.2222 25.6496C47.0937 25.5638 46.9936 25.4417 46.9345 25.299C46.8753 25.1562 46.8599 24.9991 46.89 24.8476C46.9202 24.696 46.9946 24.5568 47.1038 24.4476C47.2131 24.3383 47.3523 24.2639 47.5038 24.2338C47.6554 24.2036 47.8125 24.2191 47.9552 24.2782C48.098 24.3374 48.22 24.4375 48.3058 24.566C48.3917 24.6944 48.4375 24.8455 48.4375 25C48.4373 25.2071 48.3549 25.4057 48.2084 25.5522C48.062 25.6986 47.8634 25.781 47.6563 25.7813Z" fill="#A3ACB5"/>
<path d="M27.2542 7.17812C27.1164 6.6863 26.8215 6.25304 26.4145 5.94442C26.0075 5.6358 25.5108 5.46875 25 5.46875C24.4893 5.46875 23.9925 5.6358 23.5856 5.94442C23.1786 6.25304 22.8837 6.6863 22.7459 7.17812C18.4056 7.72571 14.4143 9.83838 11.521 13.1197C8.62769 16.4009 7.03125 20.6253 7.03125 25C7.03125 29.3747 8.62769 33.5991 11.521 36.8803C14.4143 40.1616 18.4056 42.2743 22.7459 42.8219C22.8837 43.3137 23.1786 43.747 23.5855 44.0556C23.9925 44.3642 24.4893 44.5313 25 44.5313C25.5108 44.5313 26.0075 44.3642 26.4145 44.0556C26.8215 43.747 27.1164 43.3137 27.2542 42.8219C31.5945 42.2743 35.5858 40.1616 38.4791 36.8803C41.3724 33.5991 42.9688 29.3747 42.9688 25C42.9688 20.6253 41.3724 16.4009 38.4791 13.1197C35.5858 9.83838 31.5945 7.72571 27.2542 7.17812ZM25 7.03124C25.1546 7.03124 25.3056 7.07706 25.4341 7.16291C25.5625 7.24875 25.6627 7.37077 25.7218 7.51352C25.7809 7.65628 25.7964 7.81336 25.7663 7.96491C25.7361 8.11646 25.6617 8.25566 25.5525 8.36492C25.4432 8.47418 25.304 8.54859 25.1525 8.57873C25.0009 8.60888 24.8438 8.59341 24.7011 8.53428C24.5583 8.47514 24.4363 8.37501 24.3504 8.24653C24.2646 8.11806 24.2188 7.96701 24.2188 7.81249C24.219 7.60537 24.3014 7.40679 24.4479 7.26033C24.5943 7.11387 24.7929 7.03148 25 7.03124ZM25 42.9687C24.8455 42.9687 24.6945 42.9229 24.566 42.8371C24.4375 42.7512 24.3374 42.6292 24.2783 42.4865C24.2191 42.3437 24.2037 42.1866 24.2338 42.0351C24.2639 41.8835 24.3383 41.7443 24.4476 41.6351C24.5569 41.5258 24.6961 41.4514 24.8476 41.4213C24.9992 41.3911 25.1563 41.4066 25.299 41.4657C25.4418 41.5248 25.5638 41.625 25.6496 41.7535C25.7355 41.8819 25.7813 42.033 25.7813 42.1875C25.781 42.3946 25.6987 42.5932 25.5522 42.7397C25.4057 42.8861 25.2072 42.9685 25 42.9687ZM27.1513 41.2594C26.9702 40.839 26.67 40.481 26.2877 40.2294C25.9053 39.9778 25.4577 39.8437 25 39.8437C24.5424 39.8437 24.0947 39.9778 23.7124 40.2294C23.3301 40.481 23.0299 40.839 22.8488 41.2594C18.9049 40.739 15.2847 38.8029 12.6622 35.8117C10.0397 32.8205 8.59385 28.978 8.59385 25C8.59385 21.022 10.0397 17.1795 12.6622 14.1883C15.2847 11.1971 18.9049 9.261 22.8488 8.74062C23.0299 9.16094 23.3301 9.51901 23.7124 9.7706C24.0947 10.0222 24.5424 10.1563 25 10.1563C25.4577 10.1563 25.9053 10.0222 26.2877 9.7706C26.67 9.51901 26.9702 9.16094 27.1513 8.74062C31.0951 9.261 34.7154 11.1971 37.3379 14.1883C39.9604 17.1795 41.4062 21.022 41.4062 25C41.4062 28.978 39.9604 32.8205 37.3379 35.8117C34.7154 38.8029 31.0951 40.739 27.1513 41.2594Z" fill="#A3ACB5"/>
<path d="M35.4223 19.9083C35.8117 19.3923 36.0017 18.7529 35.9573 18.1079C35.9129 17.463 35.637 16.8557 35.1805 16.3979L33.6021 14.8195C33.1447 14.3622 32.5372 14.0858 31.8919 14.0413C31.2466 13.9968 30.607 14.1872 30.0911 14.5774C29.6623 14.3673 29.2208 14.184 28.7693 14.0284C28.6795 13.3884 28.3616 12.8023 27.8741 12.378C27.3866 11.9537 26.7624 11.7196 26.1161 11.7188H23.8839C23.2376 11.7196 22.6134 11.9537 22.1259 12.378C21.6384 12.8024 21.3205 13.3884 21.2307 14.0284C20.7791 14.184 20.3376 14.3674 19.9087 14.5776C19.3929 14.1873 18.7533 13.9969 18.108 14.0413C17.4627 14.0858 16.8553 14.3622 16.3979 14.8195L14.8195 16.3979C14.3629 16.8557 14.087 17.463 14.0426 18.108C13.9981 18.7531 14.1881 19.3925 14.5776 19.9085C14.3675 20.3375 14.1841 20.7791 14.0284 21.2307C13.3884 21.3205 12.8024 21.6384 12.378 22.1259C11.9537 22.6134 11.7196 23.2376 11.7188 23.8839V26.1161C11.7196 26.7624 11.9537 27.3866 12.378 27.8741C12.8024 28.3616 13.3884 28.6795 14.0285 28.7693C14.1841 29.221 14.3675 29.6626 14.5777 30.0916C14.1883 30.6077 13.9983 31.247 14.0427 31.892C14.0872 32.537 14.363 33.1443 14.8196 33.602L16.3979 35.1804C16.8553 35.6377 17.4628 35.9141 18.108 35.9586C18.7533 36.0031 19.3929 35.8127 19.9088 35.4225C20.3377 35.6326 20.7792 35.816 21.2307 35.9715C21.3206 36.6116 21.6384 37.1976 22.1259 37.622C22.6134 38.0463 23.2376 38.2804 23.8839 38.2812H26.1161C26.7624 38.2804 27.3867 38.0463 27.8741 37.622C28.3616 37.1976 28.6795 36.6116 28.7693 35.9715C29.2209 35.816 29.6624 35.6326 30.0914 35.4224C30.6072 35.8127 31.2468 36.0031 31.892 35.9586C32.5373 35.9141 33.1447 35.6377 33.6021 35.1804L35.1805 33.602C35.6371 33.1443 35.913 32.537 35.9574 31.8919C36.0019 31.2469 35.8119 30.6075 35.4224 30.0914C35.6326 29.6625 35.816 29.2209 35.9716 28.7693C36.6116 28.6795 37.1976 28.3616 37.622 27.8741C38.0463 27.3866 38.2804 26.7624 38.2812 26.1161V23.8839C38.2804 23.2376 38.0463 22.6134 37.622 22.1259C37.1976 21.6384 36.6116 21.3205 35.9715 21.2306C35.8159 20.779 35.6325 20.3374 35.4223 19.9083ZM22.4029 31.9437C20.8578 31.3687 19.5486 30.2947 18.6826 28.8918C17.8166 27.4889 17.4432 25.8373 17.6217 24.1983C17.8001 22.5594 18.5201 21.0267 19.6677 19.843C20.8153 18.6594 22.3249 17.8923 23.9576 17.6632C23.9837 17.5235 24.0475 17.3935 24.1421 17.2874C24.2367 17.1812 24.3584 17.1029 24.4943 17.0609C24.6301 17.0189 24.7748 17.0148 24.9128 17.049C25.0508 17.0832 25.1768 17.1544 25.2773 17.255L25.8274 17.8051C25.974 17.952 26.0563 18.1511 26.0563 18.3586C26.0563 18.5662 25.974 18.7652 25.8274 18.9121L25.2773 19.4622C25.1887 19.5521 25.0795 19.6191 24.9592 19.6572C24.8388 19.6953 24.711 19.7035 24.5867 19.681C24.4625 19.6584 24.3457 19.606 24.2463 19.528C24.147 19.4501 24.0682 19.3491 24.0168 19.2338C22.7661 19.4454 21.6181 20.0575 20.7455 20.9781C19.8729 21.8986 19.3231 23.0777 19.1787 24.3379C19.0343 25.598 19.3033 26.871 19.945 27.965C20.5868 29.0591 21.5667 29.915 22.737 30.4039C22.4468 30.8614 22.3284 31.4071 22.4029 31.9437ZM21.875 25C21.875 24.3819 22.0583 23.7777 22.4017 23.2638C22.745 22.7499 23.2331 22.3494 23.8041 22.1129C24.3751 21.8764 25.0035 21.8145 25.6097 21.935C26.2158 22.0556 26.7727 22.3533 27.2097 22.7903C27.6467 23.2273 27.9444 23.7842 28.065 24.3903C28.1855 24.9965 28.1236 25.6249 27.8871 26.1959C27.6506 26.7669 27.2501 27.255 26.7362 27.5983C26.2223 27.9417 25.6181 28.125 25 28.125C24.1715 28.1241 23.3772 27.7945 22.7913 27.2087C22.2055 26.6228 21.8759 25.8285 21.875 25ZM26.0421 32.3385C26.0154 32.4779 25.9512 32.6073 25.8564 32.7129C25.7616 32.8185 25.6399 32.8963 25.5042 32.938C25.3686 32.9796 25.2241 32.9835 25.0864 32.9492C24.9487 32.915 24.823 32.8438 24.7227 32.7435L24.1726 32.1934C24.026 32.0465 23.9437 31.8474 23.9437 31.6399C23.9437 31.4323 24.026 31.2333 24.1726 31.0863L24.7227 30.5363C24.8112 30.4464 24.9204 30.3794 25.0407 30.3413C25.161 30.3032 25.2887 30.295 25.4129 30.3174C25.5371 30.3398 25.6539 30.3922 25.7532 30.4701C25.8526 30.5479 25.9314 30.6488 25.9829 30.764C27.2336 30.5528 28.3817 29.9409 29.2544 29.0205C30.1271 28.1001 30.677 26.921 30.8214 25.6609C30.9657 24.4007 30.6966 23.1278 30.0547 22.0339C29.4128 20.94 28.4327 20.0843 27.2622 19.5958C27.5526 19.1385 27.6714 18.593 27.5973 18.0564C29.1425 18.6316 30.4516 19.7058 31.3176 21.1089C32.1835 22.5119 32.5568 24.1637 32.3783 25.8028C32.1998 27.4418 31.4798 28.9745 30.3321 30.1583C29.1845 31.3421 27.6749 32.1093 26.0421 32.3385Z" fill="#A3ACB5"/>
</svg>
