<svg width="66" height="66" viewBox="0 0 66 66" fill="none" xmlns="http://www.w3.org/2000/svg">
<path d="M57.3999 25.1628C57.7881 24.8146 58.0865 24.3776 58.2697 23.8893C58.4528 23.4009 58.5153 22.8755 58.4517 22.3578C58.4022 21.8833 58.2132 21.4341 57.9085 21.067C57.6038 20.6999 57.1971 20.4314 56.7399 20.2953C56.3573 20.6436 56.0626 21.0774 55.8798 21.5613C55.697 22.0452 55.6313 22.5655 55.688 23.0797C55.7363 23.557 55.9245 24.0094 56.2291 24.38C56.5337 24.7506 56.941 25.023 57.3999 25.1628ZM58.658 26.2972C58.237 26.649 57.9067 27.0968 57.6949 27.6029C57.4832 28.109 57.3961 28.6585 57.4411 29.2053C57.9753 29.2522 58.5134 29.1854 59.0199 29.0092C59.5263 28.833 59.9897 28.5514 60.3795 28.1831C60.7692 27.8148 61.0765 27.368 61.281 26.8723C61.4856 26.3766 61.5827 25.8432 61.5661 25.3072C61.0378 25.2359 60.5002 25.2882 59.9956 25.46C59.4909 25.6318 59.0331 25.9184 58.658 26.2972ZM56.9255 29.1022C57.0623 28.6091 57.0596 28.0877 56.9176 27.5961C56.7755 27.1045 56.4998 26.662 56.1211 26.3178C55.7423 25.9677 55.2755 25.7271 54.7705 25.6217C54.2655 25.5164 53.7414 25.5502 53.2542 25.7197C53.1101 26.2106 53.1071 26.7321 53.2457 27.2246C53.3844 27.717 53.6589 28.1605 54.038 28.5041C54.4211 28.854 54.8915 29.0943 55.3996 29.1995C55.9078 29.3048 56.4349 29.2712 56.9255 29.1022ZM56.9461 32.6703C56.4326 32.9942 56.0013 33.4329 55.6864 33.9519C55.3714 34.4709 55.1813 35.0559 55.1311 35.6609C55.6982 35.8393 56.3 35.8781 56.8854 35.7739C57.4707 35.6698 58.0222 35.4258 58.493 35.0628C59.0033 34.7355 59.4321 34.2959 59.7466 33.7776C60.0612 33.2593 60.2532 32.676 60.308 32.0722C59.7415 31.8885 59.1386 31.847 58.5523 31.9513C57.966 32.0556 57.4144 32.3025 56.9461 32.6703ZM54.5949 35.4341C54.8288 34.9223 54.9197 34.3568 54.858 33.7975C54.7962 33.2383 54.5841 32.7062 54.2442 32.2578C53.9076 31.8122 53.4529 31.4698 52.9316 31.2693C52.4103 31.0688 51.8434 31.0183 51.2949 31.1234C51.0493 31.6279 50.9446 32.1894 50.9918 32.7485C51.039 33.3076 51.2363 33.8435 51.563 34.2997C51.9062 34.7598 52.3746 35.1114 52.9122 35.3126C53.4498 35.5137 54.0339 35.5559 54.5949 35.4341ZM55.1724 39.2909C54.5415 39.5355 53.9733 39.918 53.5094 40.4104C53.0455 40.9029 52.6976 41.4929 52.4911 42.1372C53.0235 42.4796 53.6346 42.6801 54.2663 42.7198C54.898 42.7596 55.5294 42.6371 56.1005 42.3641C56.7313 42.1196 57.2995 41.7371 57.7634 41.2446C58.2274 40.7521 58.5753 40.1621 58.7817 39.5178C58.2516 39.1698 57.64 38.9658 57.0071 38.926C56.3742 38.8862 55.7419 39.012 55.1724 39.2909ZM49.2736 39.7447C49.4748 40.3178 49.8403 40.8189 50.3244 41.1857C50.8086 41.5525 51.39 41.7686 51.9961 41.8072C52.3764 41.2964 52.6229 40.6985 52.7129 40.0681C52.803 39.4376 52.7338 38.7947 52.5117 38.1978C52.3068 37.6231 51.9376 37.1213 51.4499 36.7546C50.9622 36.388 50.3776 36.1726 49.7686 36.1353C49.3865 36.6454 49.1405 37.2445 49.0539 37.8759C48.9673 38.5074 49.0429 39.1505 49.2736 39.7447ZM51.563 44.7772C50.9059 44.9472 50.2949 45.2612 49.7741 45.6964C49.2533 46.1316 48.8358 46.6771 48.5517 47.2934C49.0163 47.7124 49.5851 47.9985 50.1984 48.1219C50.8117 48.2453 51.4469 48.2014 52.0374 47.9947C52.6962 47.8296 53.31 47.5201 53.8344 47.0884C54.3588 46.6568 54.7806 46.1139 55.0692 45.4991C54.6013 45.0787 54.03 44.7903 53.4138 44.6634C52.7977 44.5366 52.1589 44.5758 51.563 44.7772ZM46.8192 40.8791C46.3729 41.3461 46.0489 41.9163 45.8762 42.5388C45.7035 43.1614 45.6873 43.8169 45.8292 44.4472C45.9451 45.0374 46.2315 45.5806 46.6532 46.0096C47.0748 46.4385 47.613 46.7343 48.2011 46.8603C48.6333 46.388 48.9496 45.8216 49.125 45.2058C49.3004 44.5901 49.3301 43.942 49.2117 43.3128C49.0981 42.7161 48.8102 42.1665 48.3844 41.7333C47.9586 41.3001 47.4139 41.0029 46.8192 40.8791ZM46.5099 49.8509C45.78 49.7921 45.0464 49.9029 44.3666 50.1749C43.6867 50.4468 43.079 50.8725 42.5911 51.4184C42.8312 52.0507 43.2531 52.5978 43.8037 52.9905C44.3543 53.3833 45.0089 53.6042 45.6849 53.6253C46.4164 53.6817 47.151 53.5676 47.831 53.292C48.5109 53.0165 49.1177 52.5869 49.6036 52.0372C49.358 51.4103 48.9341 50.8691 48.3843 50.4806C47.8344 50.092 47.1828 49.8731 46.5099 49.8509ZM41.0236 47.2109C40.8818 47.8716 40.9327 48.5592 41.1704 49.1917C41.4081 49.8243 41.8224 50.3752 42.3642 50.7791C43.0059 50.4079 43.5548 49.8956 43.9693 49.281C44.3838 48.6664 44.653 47.9656 44.7567 47.2316C44.8935 46.5709 44.8401 45.885 44.6028 45.2535C44.3655 44.622 43.954 44.0706 43.4161 43.6634C42.7744 44.0346 42.2256 44.5469 41.8111 45.1615C41.3966 45.7761 41.1273 46.4769 41.0236 47.2109ZM39.9099 53.3159C39.1091 53.249 38.3038 53.3708 37.5587 53.6717C36.8136 53.9726 36.1495 54.4442 35.6199 55.0484C35.8921 55.7298 36.357 56.317 36.9578 56.7383C37.5585 57.1595 38.269 57.3965 39.0024 57.4203C39.8056 57.4809 40.612 57.3562 41.3593 57.0558C42.1067 56.7554 42.7751 56.2874 43.313 55.6878C43.0393 55.0033 42.5712 54.414 41.9665 53.9925C41.3617 53.571 40.6468 53.3358 39.9099 53.3159ZM37.9917 50.4491C38.1505 49.7242 38.0968 48.969 37.837 48.2739C37.5773 47.5788 37.1225 46.9734 36.5274 46.5303C35.8193 46.9307 35.2129 47.4887 34.7551 48.1611C34.2973 48.8335 34.0004 49.6023 33.8874 50.4078C33.7396 51.1357 33.7985 51.8904 34.0573 52.5865C34.3161 53.2827 34.7644 53.8926 35.3517 54.3472C36.0583 53.9399 36.6631 53.3773 37.1205 52.702C37.5778 52.0268 37.8757 51.2564 37.9917 50.4491ZM10.313 23.0797C10.3731 22.5622 10.309 22.0379 10.1261 21.5501C9.94314 21.0623 9.64664 20.6251 9.26111 20.2747C8.80385 20.4108 8.39717 20.6793 8.09248 21.0464C7.78778 21.4135 7.59874 21.8627 7.54924 22.3372C7.4857 22.8549 7.54815 23.3803 7.73129 23.8687C7.91443 24.357 8.21283 24.7939 8.60111 25.1422C9.05702 25.0037 9.46225 24.7345 9.76656 24.3678C10.0709 24.0012 10.2609 23.5533 10.313 23.0797ZM8.55986 29.2053C8.60486 28.6585 8.51781 28.109 8.30604 27.6029C8.09427 27.0968 7.76398 26.649 7.34298 26.2972C6.95917 25.9062 6.48761 25.6124 5.96749 25.4403C5.44736 25.2681 4.89366 25.2225 4.35236 25.3072C4.30736 25.854 4.39441 26.4035 4.60618 26.9096C4.81795 27.4157 5.14824 27.8635 5.56923 28.2153C5.95104 28.6091 6.42238 28.9048 6.9431 29.0772C7.46382 29.2496 8.01849 29.2935 8.55986 29.2053ZM9.07548 29.1022C9.56612 29.2712 10.0932 29.3048 10.6013 29.1995C11.1095 29.0943 11.5798 28.854 11.963 28.5041C12.342 28.1605 12.6166 27.717 12.7552 27.2246C12.8939 26.7321 12.8909 26.2106 12.7467 25.7197C12.2595 25.5502 11.7354 25.5164 11.2305 25.6217C10.7255 25.7271 10.2587 25.9677 9.87986 26.3178C9.50116 26.662 9.22544 27.1045 9.08342 27.5961C8.9414 28.0877 8.93865 28.6091 9.07548 29.1022ZM10.8699 35.6609C10.8197 35.0559 10.6296 34.4709 10.3146 33.9519C9.99962 33.4329 9.56837 32.9942 9.05486 32.6703C8.58469 32.306 8.0322 32.0628 7.44598 31.9621C6.85976 31.8614 6.25778 31.9063 5.69298 32.0928C5.75082 32.693 5.94425 33.2722 6.25866 33.7867C6.57308 34.3012 7.00027 34.7376 7.50799 35.0628C7.97879 35.4258 8.5303 35.6698 9.11562 35.7739C9.70093 35.8781 10.3027 35.8393 10.8699 35.6609ZM11.4061 35.4341C11.967 35.5559 12.5512 35.5137 13.0888 35.3126C13.6264 35.1114 14.0948 34.7598 14.438 34.2997C14.7779 33.8513 14.99 33.3192 15.0517 32.76C15.1135 32.2007 15.0225 31.6352 14.7886 31.1234C14.2401 31.0183 13.6731 31.0688 13.1519 31.2693C12.6306 31.4698 12.1759 31.8122 11.8392 32.2578C11.4859 32.6983 11.2589 33.2265 11.1826 33.7859C11.1063 34.3454 11.1836 34.9151 11.4061 35.4341ZM13.5099 42.1372C13.3034 41.4929 12.9555 40.9029 12.4916 40.4104C12.0276 39.918 11.4595 39.5355 10.8286 39.2909C10.2591 39.012 9.62675 38.8862 8.99385 38.926C8.36095 38.9658 7.74933 39.1698 7.21923 39.5178C7.42568 40.1621 7.77361 40.7521 8.23753 41.2446C8.70145 41.7371 9.26964 42.1196 9.90049 42.3641C10.4716 42.6371 11.1029 42.7596 11.7347 42.7198C12.3664 42.6801 12.9775 42.4796 13.5099 42.1372ZM13.4892 38.1566C13.2671 38.7534 13.198 39.3964 13.288 40.0268C13.3781 40.6573 13.6245 41.2551 14.0049 41.7659C14.611 41.7274 15.1924 41.5112 15.6765 41.1444C16.1607 40.7777 16.5261 40.2765 16.7274 39.7034C16.9581 39.1093 17.0337 38.4662 16.9471 37.8347C16.8605 37.2032 16.6145 36.6042 16.2324 36.0941C15.6234 36.1314 15.0387 36.3467 14.5511 36.7134C14.0634 37.08 13.6942 37.5819 13.4892 38.1566ZM14.438 44.7772C13.842 44.5758 13.2033 44.5366 12.5871 44.6634C11.971 44.7903 11.3997 45.0787 10.9317 45.4991C11.2204 46.1139 11.6422 46.6568 12.1666 47.0884C12.6909 47.5201 13.3048 47.8296 13.9636 47.9947C14.5541 48.2014 15.1893 48.2453 15.8026 48.1219C16.4158 47.9985 16.9846 47.7124 17.4492 47.2934C17.1652 46.6771 16.7476 46.1316 16.2268 45.6964C15.706 45.2612 15.095 44.9472 14.438 44.7772ZM17.7999 46.8603C18.388 46.7343 18.9262 46.4385 19.3478 46.0096C19.7694 45.5806 20.0559 45.0374 20.1717 44.4472C20.3136 43.8169 20.2975 43.1614 20.1248 42.5388C19.952 41.9163 19.6281 41.3461 19.1817 40.8791C18.5871 41.0029 18.0424 41.3001 17.6166 41.7333C17.1908 42.1665 16.9029 42.7161 16.7892 43.3128C16.6708 43.942 16.7005 44.5901 16.8759 45.2058C17.0513 45.8216 17.3677 46.388 17.7999 46.8603ZM23.4099 51.4184C22.922 50.8725 22.3143 50.4468 21.6344 50.1749C20.9546 49.9029 20.221 49.7921 19.4911 49.8509C18.8321 49.8627 18.1904 50.0633 17.642 50.4289C17.0936 50.7945 16.6617 51.3097 16.3974 51.9134C16.8833 52.4632 17.49 52.8927 18.17 53.1683C18.85 53.4438 19.5846 53.5579 20.3161 53.5016C20.978 53.4906 21.6225 53.288 22.1715 52.9183C22.7206 52.5485 23.1508 52.0276 23.4099 51.4184ZM23.6367 50.7791C24.1785 50.3752 24.5929 49.8243 24.8306 49.1917C25.0683 48.5592 25.1192 47.8716 24.9774 47.2109C24.8852 46.4861 24.6316 45.7912 24.2354 45.1773C23.8392 44.5634 23.3105 44.0461 22.688 43.6634C22.1501 44.0706 21.7386 44.622 21.5013 45.2535C21.264 45.885 21.2106 46.5709 21.3474 47.2316C21.4396 47.9564 21.6931 48.6513 22.0893 49.2652C22.4855 49.8792 23.0143 50.3965 23.6367 50.7791ZM22.688 55.6878C23.2239 56.2911 23.8914 56.7631 24.6389 57.0671C25.3863 57.3711 26.1938 57.499 26.9986 57.4409C27.7319 57.4171 28.4424 57.1801 29.0432 56.7589C29.6439 56.3376 30.1089 55.7504 30.3811 55.0691C29.8514 54.4648 29.1873 53.9933 28.4423 53.6924C27.6972 53.3915 26.8919 53.2696 26.0911 53.3366C25.3566 53.3547 24.6433 53.5868 24.0388 54.0045C23.4343 54.4222 22.9648 55.0072 22.688 55.6878ZM29.4736 46.5303C28.8784 46.9734 28.4237 47.5788 28.164 48.2739C27.9042 48.969 27.8505 49.7242 28.0092 50.4491C28.1252 51.2564 28.4232 52.0268 28.8805 52.702C29.3378 53.3773 29.9426 53.9399 30.6492 54.3472C31.2365 53.8926 31.6849 53.2827 31.9437 52.5865C32.2025 51.8904 32.2613 51.1357 32.1136 50.4078C32.0006 49.6023 31.7037 48.8335 31.2459 48.1611C30.7881 47.4887 30.1817 46.9307 29.4736 46.5303ZM49.7274 24.7503C49.7274 21.4421 48.7463 18.2081 46.9084 15.4574C45.0704 12.7066 42.458 10.5627 39.4016 9.2967C36.3451 8.03069 32.9819 7.69944 29.7372 8.34485C26.4925 8.99026 23.5121 10.5833 21.1728 12.9226C18.8335 15.2619 17.2404 18.2424 16.595 21.4871C15.9496 24.7318 16.2808 28.095 17.5469 31.1514C18.8129 34.2079 20.9568 36.8202 23.7075 38.6582C26.4583 40.4962 29.6922 41.4772 33.0005 41.4772C37.4351 41.4717 41.6864 39.7077 44.8221 36.572C47.9579 33.4363 49.7219 29.1849 49.7274 24.7503ZM38.6517 33.0003L33.0005 30.0303L27.3492 33.0003L28.4424 26.8128L23.8636 22.3578L30.1749 21.4297L33.0005 15.6134L35.8261 21.3266L42.1374 22.2547L37.5586 26.8128L38.6517 33.0003Z" fill="white"/>
</svg>
