<svg width="60" height="60" viewBox="0 0 60 60" fill="none" xmlns="http://www.w3.org/2000/svg">
<g clip-path="url(#clip0_18772_49140)">
<path d="M52.5 50.625H34.6875V52.5C34.6875 53.5312 33.8438 54.375 32.8125 54.375H21.5625C20.5312 54.375 19.6875 53.5312 19.6875 52.5V50.625H1.875C0.84375 50.625 0 51.4688 0 52.5V54.375C0 57.4781 2.52188 60 5.625 60H48.75C51.8531 60 54.375 57.4781 54.375 54.375V52.5C54.375 51.4688 53.5312 50.625 52.5 50.625ZM51.2344 46.875C51.45 46.2844 51.5625 45.6562 51.5625 45V25.9781C50.6531 26.1562 49.7156 26.25 48.75 26.25C40.4813 26.25 33.75 19.5187 33.75 11.25H8.4375C5.33437 11.25 2.8125 13.7719 2.8125 16.875V45C2.8125 45.6562 2.925 46.2844 3.14062 46.875H51.2344ZM34.2994 28.5131C34.1203 28.3402 33.9775 28.1333 33.8792 27.9045C33.7809 27.6758 33.7292 27.4297 33.727 27.1808C33.7249 26.9318 33.7723 26.6849 33.8666 26.4545C33.9609 26.224 34.1001 26.0147 34.2761 25.8386C34.4522 25.6626 34.6615 25.5234 34.892 25.4291C35.1224 25.3348 35.3693 25.2874 35.6183 25.2895C35.8672 25.2917 36.1133 25.3434 36.342 25.4417C36.5708 25.54 36.7777 25.6828 36.9506 25.8619L40.7006 29.6119C41.0521 29.9635 41.2496 30.4403 41.2496 30.9375C41.2496 31.4347 41.0521 31.9115 40.7006 32.2631L36.9506 36.0131C36.5841 36.3797 36.105 36.5625 35.625 36.5625C35.145 36.5625 34.6659 36.3797 34.2994 36.0131C33.9479 35.6615 33.7504 35.1847 33.7504 34.6875C33.7504 34.1903 33.9479 33.7135 34.2994 33.3619L36.7238 30.9375L34.2994 28.5131ZM23.5341 35.9691L27.2841 24.7191C27.3619 24.4855 27.4851 24.2695 27.6464 24.0834C27.8077 23.8974 28.0041 23.745 28.2244 23.6349C28.4446 23.5247 28.6844 23.4591 28.93 23.4416C29.1757 23.4242 29.4223 23.4553 29.6559 23.5331C29.8895 23.611 30.1055 23.7341 30.2916 23.8955C30.4776 24.0568 30.63 24.2532 30.7401 24.4734C30.8503 24.6937 30.9159 24.9335 30.9334 25.1791C30.9508 25.4247 30.9197 25.6714 30.8419 25.905L27.0919 37.155C27.014 37.3886 26.8909 37.6046 26.7295 37.7906C26.5682 37.9766 26.3718 38.1291 26.1516 38.2392C25.9313 38.3493 25.6915 38.415 25.4459 38.4324C25.2003 38.4499 24.9536 38.4188 24.72 38.3409C24.4864 38.2631 24.2704 38.1399 24.0844 37.9786C23.8984 37.8173 23.7459 37.6209 23.6358 37.4006C23.5257 37.1804 23.46 36.9406 23.4426 36.695C23.4251 36.4493 23.4562 36.2027 23.5341 35.9691ZM13.6744 29.6119L17.4244 25.8619C17.5973 25.6828 17.8042 25.54 18.033 25.4417C18.2617 25.3434 18.5078 25.2917 18.7567 25.2895C19.0057 25.2874 19.2526 25.3348 19.483 25.4291C19.7135 25.5234 19.9228 25.6626 20.0989 25.8386C20.2749 26.0147 20.4141 26.224 20.5084 26.4545C20.6027 26.6849 20.6501 26.9318 20.648 27.1808C20.6458 27.4297 20.5941 27.6758 20.4958 27.9045C20.3975 28.1333 20.2547 28.3402 20.0756 28.5131L17.6512 30.9375L20.0756 33.3619C20.2547 33.5348 20.3975 33.7417 20.4958 33.9705C20.5941 34.1992 20.6458 34.4453 20.648 34.6942C20.6501 34.9432 20.6027 35.1901 20.5084 35.4205C20.4141 35.651 20.2749 35.8603 20.0989 36.0364C19.9228 36.2124 19.7135 36.3516 19.483 36.4459C19.2526 36.5402 19.0057 36.5876 18.7567 36.5855C18.5078 36.5833 18.2617 36.5316 18.033 36.4333C17.8042 36.335 17.5973 36.1922 17.4244 36.0131L13.6744 32.2631C13.3229 31.9115 13.1254 31.4347 13.1254 30.9375C13.1254 30.4403 13.3229 29.9635 13.6744 29.6119ZM30.9563 7.5C31.4535 7.5 31.9304 7.30246 32.2821 6.95083C32.6337 6.59919 32.8312 6.12228 32.8312 5.625C32.8312 5.12772 32.6337 4.65081 32.2821 4.29917C31.9304 3.94754 31.4535 3.75 30.9563 3.75H30.9469C29.9119 3.75 29.0766 4.59 29.0766 5.625C29.0766 6.66 29.9203 7.5 30.9563 7.5ZM23.4563 7.5C23.9535 7.5 24.4304 7.30246 24.7821 6.95083C25.1337 6.59919 25.3313 6.12228 25.3313 5.625C25.3313 5.12772 25.1337 4.65081 24.7821 4.29917C24.4304 3.94754 23.9535 3.75 23.4563 3.75H23.4469C22.4119 3.75 21.5766 4.59 21.5766 5.625C21.5766 6.66 22.4203 7.5 23.4563 7.5ZM48.75 18.1669C50.0831 16.8234 51.0075 15.0431 51.3787 13.125H46.1203C46.4925 15.0431 47.4169 16.8234 48.75 18.1669ZM51.3787 9.375C51.0075 7.45687 50.0831 5.67656 48.75 4.33313C47.4169 5.67656 46.4925 7.45687 46.1213 9.375H51.3787ZM49.845 22.1475C49.526 22.3769 49.1429 22.5003 48.75 22.5C54.3225 22.5 58.9369 18.4434 59.8312 13.125H55.1663C54.6572 16.7306 52.7231 20.0775 49.845 22.1475ZM55.1663 9.375H59.8312C58.9369 4.0575 54.3253 0.0028125 48.7547 0C49.1372 0.0009375 49.5197 0.118125 49.845 0.3525C52.7231 2.4225 54.6572 5.76937 55.1663 9.375ZM47.655 0.3525C47.9803 0.118125 48.3628 0.0009375 48.7453 0C43.1747 0.0028125 38.5631 4.0575 37.6688 9.375H42.3337C42.8428 5.76937 44.7769 2.4225 47.655 0.3525Z" fill="white"/>
<path d="M42.3339 13.125H37.6689C38.5633 18.4434 43.1777 22.5 48.7502 22.5C48.3668 22.5 47.9824 22.3828 47.6552 22.1475C44.7771 20.0775 42.843 16.7306 42.3339 13.125Z" fill="white"/>
</g>
<defs>
<clipPath id="clip0_18772_49140">
<rect width="60" height="60" fill="white"/>
</clipPath>
</defs>
</svg>
