<svg width="60" height="60" viewBox="0 0 60 60" fill="none" xmlns="http://www.w3.org/2000/svg">
<g clip-path="url(#clip0_18772_49194)">
<path d="M48.75 7.5H11.25C10.2558 7.50129 9.30276 7.8968 8.59978 8.59978C7.8968 9.30276 7.50129 10.2558 7.5 11.25V24.9994C7.5 45.9668 25.2704 52.9193 28.8354 54.1003C29.5907 54.3567 30.4093 54.3567 31.1646 54.1003C34.7278 52.9193 52.5 45.9686 52.5 24.9994V11.25C52.4987 10.2558 52.1032 9.30276 51.4002 8.59978C50.6972 7.8968 49.7442 7.50129 48.75 7.5ZM41.6071 23.8568L27.8558 36.9818C27.5069 37.3144 27.0433 37.5 26.5613 37.5C26.0792 37.5 25.6156 37.3144 25.2667 36.9818L18.3929 30.4193C18.2145 30.2494 18.0713 30.0459 17.9715 29.8206C17.8718 29.5953 17.8174 29.3525 17.8115 29.1062C17.8056 28.8599 17.8483 28.6148 17.9372 28.3849C18.0261 28.1551 18.1594 27.9451 18.3295 27.7668C18.4996 27.5885 18.7031 27.4455 18.9285 27.3459C19.1539 27.2464 19.3968 27.1922 19.6431 27.1865C19.8894 27.1808 20.1345 27.2238 20.3642 27.3129C20.594 27.4019 20.8039 27.5354 20.9821 27.7057L26.5613 33.0322L39.0179 21.1432C39.1961 20.9729 39.406 20.8394 39.6357 20.7504C39.8655 20.6613 40.1105 20.6183 40.3569 20.624C40.6032 20.6297 40.8461 20.6839 41.0715 20.7834C41.2969 20.883 41.5004 21.026 41.6705 21.2043C41.8406 21.3826 41.9739 21.5926 42.0628 21.8224C42.1517 22.0523 42.1944 22.2974 42.1885 22.5437C42.1826 22.79 42.1282 23.0328 42.0284 23.2581C41.9287 23.4834 41.7855 23.6869 41.6071 23.8568Z" fill="white"/>
</g>
<defs>
<clipPath id="clip0_18772_49194">
<rect width="60" height="60" fill="white"/>
</clipPath>
</defs>
</svg>
