<svg width="60" height="60" viewBox="0 0 60 60" fill="none" xmlns="http://www.w3.org/2000/svg">
<path d="M13.3429 30.2798L11.1205 32.4944C9.77087 33.8394 9.76706 36.0238 11.112 37.3735C12.457 38.7231 14.6414 38.7269 15.991 37.382L18.2135 35.1673C19.5631 33.8223 19.5669 31.6379 18.222 30.2883C16.877 28.9386 14.6926 28.9348 13.3429 30.2798Z" stroke="white" stroke-width="2" stroke-miterlimit="10"/>
<path d="M18.2297 35.1743L16.0072 37.389C14.6576 38.7339 14.6538 40.9183 15.9987 42.268C17.3437 43.6176 19.5281 43.6215 20.8778 42.2765L23.1002 40.0618C24.4498 38.7169 24.4536 36.5325 23.1087 35.1828C21.7637 33.8331 19.5793 33.8293 18.2297 35.1743Z" stroke="white" stroke-width="2" stroke-miterlimit="10"/>
<path d="M23.0949 40.0571L20.8725 42.2718C19.5228 43.6167 19.519 45.8011 20.864 47.1508C22.2089 48.5005 24.3933 48.5043 25.743 47.1593L27.9654 44.9446C29.3151 43.5997 29.3189 41.4153 27.9739 40.0656C26.629 38.716 24.4446 38.7121 23.0949 40.0571Z" stroke="white" stroke-width="2" stroke-miterlimit="10"/>
<path d="M27.965 44.9477L25.7426 47.1624C24.3929 48.5074 24.3891 50.6918 25.7341 52.0414C27.079 53.3911 29.2635 53.3949 30.6131 52.0499L32.8355 49.8353C34.1852 48.4903 34.189 46.3059 32.844 44.9562C31.4991 43.6066 29.3147 43.6028 27.965 44.9477Z" stroke="white" stroke-width="2" stroke-miterlimit="10"/>
<path d="M10.0127 32.7133L7.80022 30.4883C2.42522 25.0883 2.43772 16.3508 7.83772 10.9758C13.2377 5.58831 21.9752 5.61332 27.3502 11.0133L29.5627 13.2383M43.9502 37.4383C45.3002 38.7883 47.4752 38.7883 48.8252 37.4383C50.1752 36.0883 50.1752 33.9133 48.8252 32.5633L37.3127 21.0133C35.9627 19.6633 33.7877 19.6633 32.4377 21.0133L26.6627 26.7633C25.3127 28.1133 23.1252 28.1008 21.7877 26.7633C20.4377 25.4133 20.4502 23.2258 21.7877 21.8883L32.6752 11.0383C38.0752 5.65082 46.8127 5.67581 52.2002 11.0758C57.5752 16.4758 57.5627 25.2133 52.1627 30.5883L49.9377 32.8008" stroke="white" stroke-width="2" stroke-miterlimit="10"/>
<path d="M35.325 28.7773L43.95 37.4398C45.3 38.7898 45.2875 40.9773 43.95 42.3148C42.6 43.6648 40.4125 43.6523 39.075 42.3148L30.4375 33.6523M39.0625 42.3023C40.4125 43.6523 40.4 45.8398 39.0625 47.1773C37.7125 48.5273 35.525 48.5148 34.1875 47.1773" stroke="white" stroke-width="2" stroke-miterlimit="10" stroke-linecap="round"/>
<path d="M43.5 6.50129C41.1 5.30129 36.1667 9.16667 33 10.5C31.6667 13.1663 26.4 17.5001 24 19.5001C21 22.0001 20.5 23.5001 21 26.0001C21.4 28.0001 24.5 27.8334 26 27.5001C27.5 26.0001 30.8 22.6001 32 21.0001C33.2 19.4001 35.5 20.0001 36.5 20.5001L49.5 33.0001C50.1666 32.3334 52.1 30.3001 54.5 27.5001C57.5 24.0001 56 20.0001 54.5 15.0001C53 10.0001 46.5 8.00129 43.5 6.50129Z" fill="white"/>
</svg>
