<svg width="60" height="60" viewBox="0 0 60 60" fill="none" xmlns="http://www.w3.org/2000/svg">
<path d="M60 30C60 46.5685 46.5685 60 30 60C13.4315 60 0 46.5685 0 30C0 13.4315 13.4315 0 30 0C46.5685 0 60 13.4315 60 30Z" fill="#121314"/>
<path d="M18.1562 20.9688H38.7812V22.0312H18.1562V20.9688Z" fill="#6981F1"/>
<path d="M26.4062 33.7188H38.7812V34.7812H26.4062V33.7188Z" fill="#6981F1"/>
<path d="M26.4062 29.4688H38.7812V30.5312H26.4062V29.4688Z" fill="#6981F1"/>
<path d="M20.7344 31.5926V32.4351L23.099 29.9988L20.7344 27.5625V28.4051C20.7344 28.546 20.6801 28.6811 20.5834 28.7807C20.4867 28.8803 20.3555 28.9363 20.2188 28.9363H17.6406V31.0613H20.2188C20.3555 31.0613 20.4867 31.1173 20.5834 31.2169C20.6801 31.3165 20.7344 31.4517 20.7344 31.5926Z" fill="#6981F1"/>
<path d="M18.1562 37.9688H38.7812V39.0312H18.1562V37.9688Z" fill="#6981F1"/>
<path d="M26.4062 25.2188H38.7812V26.2812H26.4062V25.2188Z" fill="#6981F1"/>
<path d="M43.9375 14.5938H15.0625C14.9257 14.5938 14.7946 14.6497 14.6979 14.7493C14.6012 14.849 14.5469 14.9841 14.5469 15.125V44.875C14.5469 45.0159 14.6012 45.151 14.6979 45.2507C14.7946 45.3503 14.9257 45.4062 15.0625 45.4062H43.9375C44.0743 45.4062 44.2054 45.3503 44.3021 45.2507C44.3988 45.151 44.4531 45.0159 44.4531 44.875V15.125C44.4531 14.9841 44.3988 14.849 44.3021 14.7493C44.2054 14.6497 44.0743 14.5938 43.9375 14.5938ZM16.6094 31.5938V28.4062C16.6094 28.2654 16.6637 28.1302 16.7604 28.0306C16.8571 27.931 16.9882 27.875 17.125 27.875H19.7031V26.2812C19.7031 26.1762 19.7334 26.0735 19.7901 25.9862C19.8467 25.8988 19.9272 25.8307 20.0214 25.7905C20.1156 25.7503 20.2193 25.7398 20.3193 25.7603C20.4193 25.7808 20.5112 25.8314 20.5833 25.9057L24.1927 29.6244C24.2893 29.724 24.3436 29.8591 24.3436 30C24.3436 30.1409 24.2893 30.276 24.1927 30.3756L20.5833 34.0943C20.4866 34.194 20.3555 34.25 20.2188 34.25C20.151 34.2502 20.0838 34.2365 20.0213 34.2096C19.9271 34.1694 19.8466 34.1013 19.7899 34.0139C19.7333 33.9265 19.7031 33.8238 19.7031 33.7188V32.125H17.125C16.9882 32.125 16.8571 32.069 16.7604 31.9694C16.6637 31.8698 16.6094 31.7346 16.6094 31.5938ZM39.8125 39.5625C39.8125 39.7034 39.7582 39.8385 39.6615 39.9382C39.5648 40.0378 39.4336 40.0938 39.2969 40.0938H17.6406C17.5039 40.0938 17.3727 40.0378 17.276 39.9382C17.1793 39.8385 17.125 39.7034 17.125 39.5625V37.4375C17.125 37.2966 17.1793 37.1615 17.276 37.0618C17.3727 36.9622 17.5039 36.9062 17.6406 36.9062H39.2969C39.4336 36.9062 39.5648 36.9622 39.6615 37.0618C39.7582 37.1615 39.8125 37.2966 39.8125 37.4375V39.5625ZM39.8125 35.3125C39.8125 35.4534 39.7582 35.5885 39.6615 35.6882C39.5648 35.7878 39.4336 35.8438 39.2969 35.8438H25.8906C25.7539 35.8438 25.6227 35.7878 25.526 35.6882C25.4293 35.5885 25.375 35.4534 25.375 35.3125V33.1875C25.375 33.0466 25.4293 32.9115 25.526 32.8118C25.6227 32.7122 25.7539 32.6562 25.8906 32.6562H39.2969C39.4336 32.6562 39.5648 32.7122 39.6615 32.8118C39.7582 32.9115 39.8125 33.0466 39.8125 33.1875V35.3125ZM39.8125 31.0625C39.8125 31.2034 39.7582 31.3385 39.6615 31.4382C39.5648 31.5378 39.4336 31.5938 39.2969 31.5938H25.8906C25.7539 31.5938 25.6227 31.5378 25.526 31.4382C25.4293 31.3385 25.375 31.2034 25.375 31.0625V28.9375C25.375 28.7966 25.4293 28.6615 25.526 28.5618C25.6227 28.4622 25.7539 28.4062 25.8906 28.4062H39.2969C39.4336 28.4062 39.5648 28.4622 39.6615 28.5618C39.7582 28.6615 39.8125 28.7966 39.8125 28.9375V31.0625ZM39.8125 26.8125C39.8125 26.9534 39.7582 27.0885 39.6615 27.1882C39.5648 27.2878 39.4336 27.3438 39.2969 27.3438H25.8906C25.7539 27.3438 25.6227 27.2878 25.526 27.1882C25.4293 27.0885 25.375 26.9534 25.375 26.8125V24.6875C25.375 24.5466 25.4293 24.4115 25.526 24.3118C25.6227 24.2122 25.7539 24.1562 25.8906 24.1562H39.2969C39.4336 24.1562 39.5648 24.2122 39.6615 24.3118C39.7582 24.4115 39.8125 24.5466 39.8125 24.6875V26.8125ZM39.8125 22.5625C39.8125 22.7034 39.7582 22.8385 39.6615 22.9382C39.5648 23.0378 39.4336 23.0938 39.2969 23.0938H17.6406C17.5039 23.0938 17.3727 23.0378 17.276 22.9382C17.1793 22.8385 17.125 22.7034 17.125 22.5625V20.4375C17.125 20.2966 17.1793 20.1615 17.276 20.0618C17.3727 19.9622 17.5039 19.9062 17.6406 19.9062H39.2969C39.4336 19.9062 39.5648 19.9622 39.6615 20.0618C39.7582 20.1615 39.8125 20.2966 39.8125 20.4375V22.5625ZM41.875 43.8125H40.8438V41.6875H41.875V43.8125ZM41.875 40.625H40.8438V38.5H41.875V40.625ZM41.875 37.4375H40.8438V35.3125H41.875V37.4375ZM41.875 34.25H40.8438V32.125H41.875V34.25ZM41.875 31.0625H40.8438V28.9375H41.875V31.0625ZM41.875 27.875H40.8438V25.75H41.875V27.875ZM41.875 24.6875H40.8438V22.5625H41.875V24.6875ZM41.875 21.5H40.8438V19.375H41.875V21.5ZM41.875 18.3125H40.8438V16.1875H41.875V18.3125Z" fill="#6981F1"/>
</svg>
