<svg width="50" height="50" viewBox="0 0 50 50" fill="none" xmlns="http://www.w3.org/2000/svg">
<g clip-path="url(#clip0_20698_26721)">
<g clip-path="url(#clip1_20698_26721)">
<g clip-path="url(#clip2_20698_26721)">
<path d="M43 41.0725C43 42.1332 42.1322 43.0011 41.0714 43.0011H35.9286C34.8678 43.0011 34 42.1332 34 41.0725C34 39.3368 34.99 37.8325 36.43 37.0804C35.7357 36.489 35.2857 35.6211 35.2857 34.644C35.2857 32.8697 36.7257 31.4297 38.5 31.4297C40.2743 31.4297 41.7143 32.8697 41.7143 34.644C41.7143 35.6211 41.2643 36.489 40.57 37.0804C42.01 37.8325 43 39.3368 43 41.0725Z" fill="#A3ACB5"/>
<path d="M29.5 16.6429C29.5 17.7035 28.6322 18.5714 27.5714 18.5714H22.4286C21.3678 18.5714 20.5 17.7035 20.5 16.6429C20.5 14.9071 21.49 13.4028 22.93 12.6507C22.2357 12.0593 21.7857 11.1914 21.7857 10.2143C21.7857 8.43999 23.2257 7 25 7C26.7743 7 28.2143 8.43999 28.2143 10.2143C28.2143 11.1914 27.7643 12.0593 27.07 12.6507C28.51 13.4028 29.5 14.9071 29.5 16.6429Z" fill="#A3ACB5"/>
<path d="M16 41.0725C16 42.1332 15.1322 43.0011 14.0714 43.0011H8.92857C7.86784 43.0011 7 42.1332 7 41.0725C7 39.3368 7.98999 37.8325 9.43002 37.0804C8.73572 36.489 8.28571 35.6211 8.28571 34.644C8.28571 32.8697 9.72571 31.4297 11.5 31.4297C13.2743 31.4297 14.7143 32.8697 14.7143 34.644C14.7143 35.6211 14.2643 36.489 13.57 37.0804C15.01 37.8325 16 39.3368 16 41.0725Z" fill="#A3ACB5"/>
<path d="M9.73263 29.7819C9.76464 29.7819 9.79729 29.7798 9.82994 29.7747C10.1809 29.7214 10.4219 29.3937 10.3686 29.0427C10.2669 28.3716 10.2154 27.66 10.2154 26.9277C10.2154 20.9125 13.8057 15.5525 19.3661 13.2579C19.6279 13.1772 19.8168 12.9324 19.8168 12.6433C19.8168 12.2048 19.3322 11.8824 18.9272 12.0481C12.854 14.5304 8.92969 20.3708 8.92969 26.9277C8.92969 27.7244 8.98619 28.5006 9.09794 29.2355C9.14628 29.5538 9.41999 29.7819 9.73263 29.7819Z" fill="#A3ACB5"/>
<path d="M30.6094 13.2455C36.1867 15.5335 39.7889 20.9014 39.7889 26.9273C39.7889 27.6596 39.7374 28.3712 39.6357 29.0423C39.5824 29.3932 39.8235 29.7209 40.1744 29.7743C40.207 29.7793 40.2397 29.7815 40.2717 29.7815C40.5843 29.7815 40.8581 29.5533 40.9064 29.235C41.0181 28.5002 41.0746 27.7239 41.0746 26.9273C41.0746 20.3703 37.1503 14.53 31.0771 12.0477C30.9999 12.0163 30.9176 12 30.8341 12H30.8272C30.4719 12 30.1875 12.2878 30.1875 12.6429C30.1875 12.9191 30.3639 13.1545 30.6094 13.2455Z" fill="#A3ACB5"/>
<path d="M31.1593 40.3647C29.2307 41.2593 27.159 41.7129 25.0013 41.7129C22.8436 41.7129 20.7719 41.2593 18.8433 40.3647C18.5194 40.2149 18.1389 40.3553 17.9895 40.6773C17.8401 40.9994 17.9801 41.3817 18.3022 41.5311C20.4015 42.5048 22.6553 42.9986 25.0013 42.9986C27.3474 42.9986 29.6011 42.5048 31.7005 41.5311C32.0225 41.3817 32.1625 40.9994 32.0131 40.6773C31.8643 40.3559 31.4839 40.2156 31.1593 40.3647Z" fill="#A3ACB5"/>
<path d="M33.3594 28.2143H33.128C32.9222 27.34 32.5815 26.5171 32.1122 25.7586L32.273 25.5979C32.7744 25.0964 32.7744 24.28 32.273 23.7786L31.3665 22.8721C30.8651 22.3707 30.0487 22.3707 29.5472 22.8721L29.3865 23.0329C28.6215 22.5636 27.8051 22.2229 26.9308 22.0171V21.7857C26.9308 21.0785 26.3522 20.5 25.6451 20.5H24.3594C23.6523 20.5 23.0737 21.0785 23.0737 21.7857V22.0171C22.1994 22.2229 21.383 22.5636 20.6179 23.0329L20.4572 22.8721C19.9558 22.3707 19.1394 22.3707 18.6379 22.8721L17.7315 23.7786C17.2301 24.28 17.2301 25.0964 17.7315 25.5979L17.8922 25.7586C17.423 26.5171 17.0822 27.34 16.8765 28.2143H16.6451C15.938 28.2143 15.3594 28.7928 15.3594 29.5V30.7857C15.3594 31.4929 15.938 32.0714 16.6451 32.0714H16.8765C17.0822 32.9457 17.423 33.7686 17.8922 34.5272L17.7315 34.6879C17.2301 35.1893 17.2301 36.0057 17.7315 36.5071L18.6379 37.4136C19.1394 37.915 19.9558 37.915 20.4572 37.4136L20.6179 37.2529C21.3829 37.7221 22.1994 38.0629 23.0737 38.2686V38.5C23.0737 39.2071 23.6523 39.7857 24.3594 39.7857H25.6451C26.3522 39.7857 26.9308 39.2071 26.9308 38.5V38.2686C27.8051 38.0629 28.6215 37.7221 29.3865 37.2529L29.5472 37.4136C30.0487 37.915 30.8651 37.915 31.3665 37.4136L32.273 36.5071C32.7744 36.0057 32.7744 35.1893 32.273 34.6879L32.1122 34.5272C32.5815 33.7686 32.9222 32.9457 33.128 32.0714H33.3594C34.0665 32.0714 34.6451 31.4929 34.6451 30.7857V29.5C34.6451 28.7928 34.0665 28.2143 33.3594 28.2143ZM25.0022 35.9286C23.4594 35.9286 22.0001 35.3243 20.9137 34.2314C19.8208 33.145 19.2165 31.6921 19.2165 30.1429C19.2165 26.9543 21.8137 24.3571 25.0022 24.3571C26.5451 24.3571 28.0365 24.9807 29.0908 26.0671C30.1644 27.1086 30.788 28.6 30.788 30.1429C30.788 33.3314 28.1908 35.9286 25.0022 35.9286Z" fill="#A3ACB5"/>
<path d="M29.5 30.1445C29.5 32.626 27.4814 34.6445 25 34.6445C23.7979 34.6445 22.6664 34.1752 21.8179 33.3267C20.9693 32.4781 20.5 31.3467 20.5 30.1445C20.5 27.6631 22.5186 25.6445 25 25.6445C26.1957 25.6445 27.3528 26.1267 28.1821 26.9753C29.0179 27.7917 29.5 28.9488 29.5 30.1445Z" fill="#A3ACB5"/>
</g>
</g>
</g>
<defs>
<clipPath id="clip0_20698_26721">
<rect width="40" height="40" fill="white" transform="translate(5 5)"/>
</clipPath>
<clipPath id="clip1_20698_26721">
<rect width="40" height="40" fill="white" transform="translate(5 5)"/>
</clipPath>
<clipPath id="clip2_20698_26721">
<rect width="40" height="40" fill="white" transform="translate(5 5)"/>
</clipPath>
</defs>
</svg>
