<svg width="60" height="60" viewBox="0 0 60 60" fill="none" xmlns="http://www.w3.org/2000/svg">
<path d="M60 30C60 46.5685 46.5685 60 30 60C13.4315 60 0 46.5685 0 30C0 13.4315 13.4315 0 30 0C46.5685 0 60 13.4315 60 30Z" fill="#121314"/>
<path d="M29.4971 37.5628C31.6237 37.5628 33.3597 35.833 33.3597 33.7064C33.3597 31.5736 31.6237 29.8438 29.4971 29.8438C27.3705 29.8438 25.6406 31.5736 25.6406 33.7064C25.6406 35.833 27.3705 37.5628 29.4971 37.5628ZM29.0631 33.2656L30.5015 31.8216C30.7433 31.5792 31.1401 31.5792 31.3819 31.8216C31.6237 32.0634 31.6237 32.4596 31.3819 32.702L29.9373 34.1398C29.8195 34.2644 29.6583 34.3264 29.4971 34.3264C29.3421 34.3264 29.1809 34.2644 29.0631 34.1398C28.8213 33.8986 28.8213 33.508 29.0631 33.2656Z" fill="#6981F1"/>
<path d="M42.5203 15H16.48C15.116 15 14 16.1092 14 17.48V21.4059H45.0003V17.48C45.0003 16.1092 43.8905 15 42.5203 15ZM18.7077 19.4424H17.5601C17.2178 19.4424 16.9401 19.1652 16.9401 18.8223C16.9401 18.4795 17.2178 18.2023 17.5601 18.2023H18.7077C19.0499 18.2023 19.3277 18.4795 19.3277 18.8223C19.3277 19.1652 19.0499 19.4424 18.7077 19.4424ZM21.9404 19.4424H20.7934C20.4512 19.4424 20.1734 19.1652 20.1734 18.8223C20.1734 18.4795 20.4512 18.2023 20.7934 18.2023H21.9404C22.2833 18.2023 22.5604 18.4795 22.5604 18.8223C22.5604 19.1652 22.2833 19.4424 21.9404 19.4424ZM25.1744 19.4424H24.0267C23.6845 19.4424 23.4067 19.1652 23.4067 18.8223C23.4067 18.4795 23.6845 18.2023 24.0267 18.2023H25.1744C25.5166 18.2023 25.7944 18.4795 25.7944 18.8223C25.7944 19.1652 25.5166 19.4424 25.1744 19.4424ZM41.4445 19.4424H28.616C28.2738 19.4424 27.996 19.1652 27.996 18.8223C27.996 18.4795 28.2738 18.2023 28.616 18.2023H41.4445C41.7874 18.2023 42.0646 18.4795 42.0646 18.8223C42.0646 19.1652 41.7874 19.4424 41.4445 19.4424Z" fill="#6981F1"/>
<path d="M16.48 45.9989H42.5203C43.8905 45.9989 45.0003 44.8823 45.0003 43.5189V22.6445H14V43.5189C14 44.8823 15.116 45.9989 16.48 45.9989ZM20.2832 32.3755C20.2832 32.0581 20.5231 31.7915 20.8387 31.7586L22.8116 31.5521C22.9287 31.1857 23.0763 30.8305 23.2511 30.4894L22.003 28.9481C21.8028 28.7014 21.822 28.3442 22.0465 28.1192L23.9207 26.2443C24.1445 26.0198 24.5029 26 24.7496 26.2009L26.291 27.4496C26.6326 27.2741 26.9879 27.1272 27.3537 27.0094L27.5608 25.0371C27.5936 24.7216 27.8596 24.4816 28.1771 24.4816H30.8288C31.1456 24.4816 31.4116 24.7216 31.4451 25.0371L31.6522 27.0094C32.0186 27.1272 32.3732 27.2741 32.7149 27.4496L34.2562 26.2009C34.5017 26 34.8607 26.0198 35.0845 26.2443L36.9595 28.1192C37.1839 28.3442 37.2025 28.7014 37.0028 28.9481L35.7542 30.4894C35.9296 30.8298 36.0766 31.1857 36.1944 31.5521L38.1672 31.7586C38.4828 31.7915 38.7227 32.0581 38.7227 32.3755V35.0266C38.7227 35.3441 38.4828 35.6101 38.1672 35.643L36.1944 35.85C36.0772 36.2165 35.9296 36.5717 35.7542 36.9133L37.0028 38.454C37.2025 38.7014 37.1839 39.0585 36.9595 39.283L35.0845 41.1579C34.8601 41.3817 34.5017 41.4003 34.2562 41.2013L32.7149 39.952C32.3739 40.1281 32.0186 40.275 31.6522 40.3922L31.4451 42.3657C31.4116 42.6813 31.1456 42.9206 30.8288 42.9206H28.1771C27.8596 42.9206 27.5936 42.6813 27.5608 42.3657L27.3537 40.3922C26.9873 40.275 26.6326 40.1281 26.291 39.952L24.7496 41.2013C24.5029 41.4003 24.1458 41.3817 23.9207 41.1579L22.0465 39.283C21.822 39.0585 21.8028 38.7014 22.003 38.454L23.2511 36.9133C23.0757 36.5717 22.9287 36.2165 22.8116 35.85L20.8387 35.643C20.5231 35.6101 20.2832 35.3441 20.2832 35.0266V32.3755Z" fill="#6981F1"/>
</svg>
