<svg width="50" height="50" viewBox="0 0 50 50" fill="none" xmlns="http://www.w3.org/2000/svg">
<path fill-rule="evenodd" clip-rule="evenodd" d="M8.32812 43.0137V7.60352V4.44531C8.32812 2.53125 9.95508 1 11.7734 1H37.9961C39.8145 1 41.4414 2.53125 41.4414 4.44531V7.60352V43.0137V46.5547C41.4414 48.4688 39.8145 50 37.9961 50H11.7734C9.95508 50 8.32812 48.4688 8.32812 46.5547V43.0137ZM9.47656 42.4395H40.293V8.17773H9.47656V42.4395ZM28.043 5.11523H21.7266C21.3438 5.11523 21.1523 4.92383 21.1523 4.54102C21.1523 4.25391 21.3438 3.9668 21.7266 3.9668H28.043C28.4258 3.9668 28.6172 4.25391 28.6172 4.54102C28.6172 4.92383 28.4258 5.11523 28.043 5.11523ZM28.043 46.7461H21.7266C21.3438 46.7461 21.1523 46.5547 21.1523 46.1719C21.1523 45.8848 21.3438 45.5977 21.7266 45.5977H28.043C28.4258 45.5977 28.6172 45.8848 28.6172 46.1719C28.6172 46.5547 28.4258 46.7461 28.043 46.7461Z" fill="#A3ACB5"/>
<path fill-rule="evenodd" clip-rule="evenodd" d="M26.5082 39.5664H23.1586C22.1059 39.5664 21.2446 38.7051 21.2446 37.5566V35.1641C20.0961 34.7813 19.0434 34.1113 18.1821 33.3457L16.0766 34.5898C15.1196 35.1641 13.8754 34.7813 13.3969 33.8242L11.6743 30.9531C11.1957 29.9961 11.4829 28.8477 12.4399 28.2734L14.5454 27.125C14.4497 26.4551 14.354 25.8809 14.354 25.3066C14.354 24.7324 14.4497 24.0625 14.5454 23.4883L12.4399 22.3398C11.9614 22.0527 11.6743 21.5742 11.4829 21.0957C11.3872 20.6172 11.4829 20.043 11.6743 19.6602L13.3969 16.6934C13.9711 15.832 15.1196 15.4492 16.0766 16.0234L18.1821 17.2676C19.0434 16.4063 20.0961 15.832 21.2446 15.4492V13.0566C21.2446 11.9082 22.1059 11.0469 23.2543 11.0469H26.604C27.6567 11.0469 28.518 11.9082 28.518 12.9609V15.4492C29.6665 15.832 30.7192 16.4063 31.5805 17.1719L33.686 16.0234C34.1645 15.7363 34.643 15.6406 35.2172 15.832C35.6957 15.9277 36.0786 16.3105 36.3657 16.6934L38.0883 19.6602C38.5668 20.5215 38.2797 21.7656 37.3227 22.2441L35.2172 23.4883C35.3129 24.0625 35.4086 24.7324 35.4086 25.3066C35.4086 25.8809 35.3129 26.4551 35.2172 27.125L37.3227 28.2734C37.8012 28.5605 38.0883 28.9434 38.2797 29.5176C38.3754 29.9961 38.2797 30.4746 38.0883 30.9531L36.3657 33.8242C35.7915 34.7813 34.643 35.0684 33.686 34.5898L31.5805 33.3457C30.7192 34.1113 29.6665 34.7813 28.518 35.1641V37.5566C28.518 38.7051 27.6567 39.5664 26.5082 39.5664ZM31.102 25.8809H28.1352C28.0395 27.8906 27.6567 29.9004 26.8911 31.1445C29.1879 30.3789 30.8149 28.3691 31.102 25.8809ZM22.8715 31.1445C22.1059 29.8047 21.7231 27.8906 21.6274 25.8809H18.6606C18.9477 28.3691 20.5747 30.3789 22.8715 31.1445ZM18.6606 24.7324H21.6274C21.7231 22.7227 22.1059 20.7129 22.8715 19.4688C20.5747 20.2344 18.9477 22.2441 18.6606 24.7324ZM26.8911 19.4688C27.6567 20.7129 28.0395 22.7227 28.1352 24.7324H31.102C30.8149 22.2441 29.1879 20.2344 26.8911 19.4688ZM32.2504 25.2109V25.3066V25.4023C32.1547 29.4219 28.9008 32.6758 24.8813 32.6758C20.8618 32.6758 17.5122 29.3262 17.5122 25.3066C17.5122 21.1914 20.8618 17.9375 24.8813 17.9375C28.9008 17.9375 32.1547 21.1914 32.2504 25.2109ZM26.9868 25.8809H22.7758C22.8715 29.3262 24.02 31.5273 24.8813 31.5273C25.7426 31.5273 26.8911 29.3262 26.9868 25.8809ZM22.7758 24.7324H26.9868C26.8911 21.1914 25.7426 19.0859 24.8813 19.0859C24.02 19.0859 22.8715 21.1914 22.7758 24.7324Z" fill="#A3ACB5"/>
</svg>
