<svg width="60" height="60" viewBox="0 0 60 60" fill="none" xmlns="http://www.w3.org/2000/svg">
<path d="M60 30C60 46.5685 46.5685 60 30 60C13.4315 60 0 46.5685 0 30C0 13.4315 13.4315 0 30 0C46.5685 0 60 13.4315 60 30Z" fill="#121314"/>
<path d="M28.6162 17.6338C28.8604 17.8779 29.1802 18 29.5 18C29.8198 18 30.1396 17.8779 30.3838 17.6338C30.6279 17.3896 30.75 17.0698 30.75 16.75H39.5C41.5679 16.75 43.25 18.4321 43.25 20.5V25.5C43.25 26.1909 43.8097 26.75 44.5 26.75C45.1903 26.75 45.75 26.1909 45.75 25.5V20.5C45.75 17.054 42.946 14.25 39.5 14.25H30.75C30.75 13.9302 30.6279 13.6104 30.3838 13.3662C29.8955 12.8779 29.1045 12.8779 28.6162 13.3662L27.3662 14.6162C26.8779 15.1045 26.8779 15.8955 27.3662 16.3838L28.6162 17.6338Z" fill="#6981F1"/>
<path d="M46.6338 29.6162L45.3838 28.3662C44.8955 27.8779 44.1045 27.8779 43.6162 28.3662L42.3662 29.6162C41.8779 30.1045 41.8779 30.8955 42.3662 31.3838C42.6104 31.6279 42.9302 31.75 43.25 31.75V40.5C43.25 42.5679 41.5679 44.25 39.5 44.25H34.5C33.8097 44.25 33.25 44.8091 33.25 45.5C33.25 46.1909 33.8097 46.75 34.5 46.75H39.5C42.946 46.75 45.75 43.946 45.75 40.5V31.75C46.0698 31.75 46.3896 31.6279 46.6338 31.3838C47.1221 30.8955 47.1221 30.1045 46.6338 29.6162Z" fill="#6981F1"/>
<path d="M30.3838 43.3662C29.8955 42.8779 29.1045 42.8779 28.6162 43.3662C28.3721 43.6104 28.25 43.9302 28.25 44.25H19.5C17.4321 44.25 15.75 42.5679 15.75 40.5V35.5C15.75 34.8091 15.1903 34.25 14.5 34.25C13.8097 34.25 13.25 34.8091 13.25 35.5V40.5C13.25 43.946 16.054 46.75 19.5 46.75H28.25C28.25 47.0698 28.3721 47.3896 28.6162 47.6338C28.8604 47.8779 29.1802 48 29.5 48C29.8198 48 30.1396 47.8779 30.3838 47.6338L31.6338 46.3838C32.1221 45.8955 32.1221 45.1045 31.6338 44.6162L30.3838 43.3662Z" fill="#6981F1"/>
<path d="M14.5 33C14.8198 33 15.1396 32.8779 15.3838 32.6338L16.6338 31.3838C17.1221 30.8955 17.1221 30.1045 16.6338 29.6162C16.3896 29.3721 16.0698 29.25 15.75 29.25V20.5C15.75 18.4321 17.4321 16.75 19.5 16.75H24.5C25.1903 16.75 25.75 16.1909 25.75 15.5C25.75 14.8091 25.1903 14.25 24.5 14.25H19.5C16.054 14.25 13.25 17.054 13.25 20.5V29.25C12.9302 29.25 12.6104 29.3721 12.3662 29.6162C11.8779 30.1045 11.8779 30.8955 12.3662 31.3838L13.6162 32.6338C13.8604 32.8779 14.1802 33 14.5 33Z" fill="#6981F1"/>
<path d="M32 19.25H30.75L28.25 24.25H29.5L32 19.25Z" fill="#6981F1"/>
<path d="M18.25 20.5V24.25H27L29.5 19.25H19.5C18.8097 19.25 18.25 19.8097 18.25 20.5ZM24.5 20.5C25.1904 20.5 25.75 21.0596 25.75 21.75C25.75 22.4404 25.1904 23 24.5 23C23.8097 23 23.25 22.4404 23.25 21.75C23.25 21.0596 23.8097 20.5 24.5 20.5ZM20.75 20.5C21.4404 20.5 22 21.0596 22 21.75C22 22.4404 21.4404 23 20.75 23C20.0597 23 19.5 22.4404 19.5 21.75C19.5 21.0596 20.0597 20.5 20.75 20.5Z" fill="#6981F1"/>
<path d="M40.75 20.5C40.75 19.8097 40.1903 19.25 39.5 19.25H33.25L30.75 24.25H40.75V20.5Z" fill="#6981F1"/>
<path d="M18.25 40.5C18.25 41.1903 18.8097 41.75 19.5 41.75H39.5C40.1903 41.75 40.75 41.1903 40.75 40.5V25.5H18.25V40.5ZM33.4749 30.3555C33.21 30.1346 33.174 29.7403 33.395 29.4748C33.6159 29.2099 34.0096 29.1739 34.2757 29.3948L38.0257 32.5198C38.1679 32.6388 38.2503 32.8146 38.2503 33.0002C38.2503 33.1857 38.1679 33.3615 38.0257 33.4805L34.2757 36.6055C34.1585 36.7025 34.0169 36.7502 33.8759 36.7502C33.6965 36.7502 33.5189 36.6739 33.395 36.5255C33.174 36.26 33.21 35.8658 33.4749 35.6448L36.6487 33.0002L33.4749 30.3555ZM27.0893 35.8027L30.8393 29.5527C31.0176 29.2561 31.4057 29.1627 31.6963 29.3385C31.9929 29.5161 32.0893 29.9 31.9111 30.196L28.1611 36.446C28.0439 36.6414 27.837 36.7494 27.6246 36.7494C27.5154 36.7494 27.4043 36.7207 27.3036 36.6603C27.0076 36.4827 26.9117 36.0988 27.0893 35.8027ZM20.9746 32.5198L24.7246 29.3948C24.9907 29.1739 25.3844 29.2099 25.6053 29.4748C25.8263 29.7403 25.7903 30.1346 25.5254 30.3555L22.3516 33.0002L25.5254 35.6448C25.7903 35.8658 25.8263 36.26 25.6053 36.5255C25.4814 36.6739 25.3038 36.7502 25.1244 36.7502C24.9834 36.7502 24.8418 36.7025 24.7246 36.6055L20.9746 33.4805C20.8324 33.3615 20.75 33.1857 20.75 33.0002C20.75 32.8146 20.8324 32.6388 20.9746 32.5198Z" fill="#6981F1"/>
</svg>
