<svg width="50" height="50" viewBox="0 0 50 50" fill="none" xmlns="http://www.w3.org/2000/svg">
<path d="M30.2083 22.8759L26.0417 20.4691C25.3967 20.0989 24.6033 20.0989 23.9583 20.4691L19.7917 22.8759C19.1467 23.2482 18.75 23.9359 18.75 24.6805V29.4901C18.75 30.2347 19.1467 30.9224 19.7917 31.2947L23.9583 33.7016C24.2808 33.8868 24.6398 33.9803 25 33.9803C25.3602 33.9803 25.7192 33.8868 26.0417 33.7016L30.2083 31.2947C30.8533 30.9224 31.25 30.2347 31.25 29.4901V24.6805C31.25 23.9359 30.8533 23.2482 30.2083 22.8759ZM27.0833 28.2876L25 29.4899L22.9167 28.2876V25.8828L25 24.6805L27.0833 25.8828V28.2876Z" fill="#A3ACB5"/>
<path d="M33.3359 4.16797H16.6693C12.0743 4.16797 8.33594 7.90526 8.33594 12.5013V37.5013C8.33594 42.0973 12.0743 45.8346 16.6693 45.8346H33.3359C37.9309 45.8346 41.6693 42.0973 41.6693 37.5013V12.5013C41.6693 7.90526 37.9309 4.16797 33.3359 4.16797ZM37.5026 37.5013C37.5026 39.7982 35.6339 41.668 33.3359 41.668H16.6693C14.3714 41.668 12.5026 39.7982 12.5026 37.5013V12.5013C12.5026 10.2044 14.3714 8.33464 16.6693 8.33464H33.3359C35.6339 8.33464 37.5026 10.2044 37.5026 12.5013V37.5013Z" fill="#A3ACB5"/>
<path d="M22.9193 14.5846H27.0859C28.2364 14.5846 29.1693 13.6528 29.1693 12.5013C29.1693 11.3498 28.2364 10.418 27.0859 10.418H22.9193C21.7689 10.418 20.8359 11.3498 20.8359 12.5013C20.8359 13.6528 21.7689 14.5846 22.9193 14.5846Z" fill="#A3ACB5"/>
</svg>
