<svg width="60" height="60" viewBox="0 0 60 60" fill="none" xmlns="http://www.w3.org/2000/svg">
<path d="M60 30C60 46.5685 46.5685 60 30 60C13.4315 60 0 46.5685 0 30C0 13.4315 13.4315 0 30 0C46.5685 0 60 13.4315 60 30Z" fill="#121314"/>
<path d="M31.4681 16.925L28.2494 13.5H16.5419L14.8594 15.2925V36.9687L16.05 38.2375L19.1125 38.2312V37.1637C19.1125 36.998 19.1783 36.839 19.2956 36.7218C19.4128 36.6046 19.5717 36.5387 19.7375 36.5387H21.3625C21.5639 35.7885 21.8634 35.0682 22.2531 34.3962L21.1 33.2431C20.9828 33.1259 20.917 32.967 20.917 32.8012C20.917 32.6355 20.9828 32.4766 21.1 32.3594L23.5031 29.9606C23.6203 29.8435 23.7793 29.7776 23.945 29.7776C24.1107 29.7776 24.2697 29.8435 24.3869 29.9606L25.54 31.1137C26.212 30.7239 26.9323 30.424 27.6825 30.2219V28.5969C27.6825 28.4311 27.7483 28.2721 27.8656 28.1549C27.9828 28.0377 28.1417 27.9719 28.3075 27.9719H31.7C31.8658 27.9719 32.0247 28.0377 32.1419 28.1549C32.2592 28.2721 32.325 28.4311 32.325 28.5969V30.2219C33.0752 30.424 33.7955 30.7239 34.4675 31.1137L35.6206 29.9606C35.7378 29.8435 35.8968 29.7776 36.0625 29.7776C36.2282 29.7776 36.3872 29.8435 36.5044 29.9606L38.9037 32.3594C39.0209 32.4766 39.0867 32.6355 39.0867 32.8012C39.0867 32.967 39.0209 33.1259 38.9037 33.2431L37.7506 34.3969C38.1403 35.0687 38.44 35.7888 38.6419 36.5387H40.2669C40.4326 36.5387 40.5916 36.6046 40.7088 36.7218C40.826 36.839 40.8919 36.998 40.8919 37.1637V38.1975L43.0112 38.1919L45.1475 35.9219V19.0556L43.3319 17.125H31.9231C31.8376 17.1246 31.7531 17.1066 31.6749 17.0722C31.5966 17.0378 31.5263 16.9877 31.4681 16.925Z" fill="#6981F1"/>
<path d="M29.9947 42.9112C32.2311 42.9112 34.0441 41.0983 34.0441 38.8619C34.0441 36.6255 32.2311 34.8125 29.9947 34.8125C27.7583 34.8125 25.9453 36.6255 25.9453 38.8619C25.9453 41.0983 27.7583 42.9112 29.9947 42.9112Z" fill="#6981F1"/>
<path d="M20.3594 39.9306H21.8556C21.9996 39.9307 22.1391 39.9806 22.2506 40.0717C22.3621 40.1628 22.4387 40.2896 22.4675 40.4306C22.6633 41.3733 23.0364 42.2703 23.5669 43.0738C23.6458 43.1939 23.6808 43.3376 23.6661 43.4806C23.6514 43.6236 23.5879 43.7571 23.4863 43.8588L22.4237 44.9213L23.9387 46.4363L25.0013 45.3738C25.1029 45.2721 25.2364 45.2086 25.3794 45.1939C25.5224 45.1792 25.6661 45.2142 25.7863 45.2931C26.59 45.8234 27.4871 46.1963 28.43 46.3919C28.5712 46.4207 28.698 46.4974 28.7892 46.609C28.8803 46.7206 28.93 46.8603 28.93 47.0044V48.4988H31.0725V47.0031C31.0725 46.859 31.1222 46.7194 31.2133 46.6078C31.3045 46.4961 31.4313 46.4194 31.5725 46.3906C32.5154 46.1952 33.4126 45.8224 34.2162 45.2919C34.3362 45.2141 34.4792 45.1798 34.6213 45.1947C34.7635 45.2096 34.8963 45.2728 34.9975 45.3738L36.06 46.4363L37.5756 44.9213L36.5131 43.8588C36.4116 43.7572 36.3482 43.6237 36.3335 43.4809C36.3188 43.338 36.3538 43.1945 36.4325 43.0744C36.9627 42.2703 37.3357 41.373 37.5319 40.43C37.5607 40.2889 37.6373 40.1621 37.7488 40.071C37.8603 39.9799 37.9998 39.9301 38.1437 39.93H39.6394V37.7875H38.1437C37.9998 37.7874 37.8603 37.7376 37.7488 37.6465C37.6373 37.5554 37.5607 37.4286 37.5319 37.2875C37.3356 36.3446 36.9626 35.4473 36.4325 34.6431C36.3538 34.523 36.3188 34.3795 36.3335 34.2366C36.3482 34.0938 36.4116 33.9603 36.5131 33.8588L37.5756 32.7962L36.06 31.2812L34.9975 32.3438C34.8959 32.4454 34.7623 32.5089 34.6193 32.5236C34.4763 32.5383 34.3327 32.5033 34.2125 32.4244C33.4087 31.8939 32.5116 31.5207 31.5687 31.3244C31.4277 31.2956 31.3009 31.219 31.2098 31.1075C31.1187 30.996 31.0689 30.8565 31.0688 30.7125V29.2188H28.9281V30.7144C28.928 30.8583 28.8782 30.9979 28.7871 31.1094C28.696 31.2208 28.5692 31.2975 28.4281 31.3262C27.4853 31.5227 26.5883 31.8959 25.7844 32.4263C25.6644 32.5046 25.5211 32.5394 25.3785 32.5247C25.2359 32.5101 25.1027 32.4468 25.0013 32.3456L23.9387 31.2831L22.4237 32.7981L23.4863 33.8606C23.5879 33.9622 23.6514 34.0958 23.6661 34.2388C23.6808 34.3818 23.6458 34.5255 23.5669 34.6456C23.0365 35.4494 22.6634 36.3465 22.4675 37.2894C22.4387 37.4304 22.3621 37.5572 22.2506 37.6483C22.1391 37.7394 21.9996 37.7893 21.8556 37.7894H20.3594V38.8519V38.8575V38.8638V39.9306ZM30.0013 33.5612C31.0495 33.5611 32.0743 33.8719 32.946 34.4542C33.8177 35.0365 34.4971 35.8643 34.8983 36.8327C35.2995 37.8012 35.4045 38.8669 35.2001 39.8951C34.9956 40.9232 34.4908 41.8677 33.7495 42.6089C33.0083 43.3502 32.0639 43.855 31.0357 44.0594C30.0075 44.2639 28.9418 44.1589 27.9734 43.7577C27.0049 43.3565 26.1771 42.6771 25.5948 41.8054C25.0125 40.9337 24.7018 39.9089 24.7019 38.8606C24.7035 37.4557 25.2624 36.1087 26.2559 35.1152C27.2493 34.1218 28.5963 33.5629 30.0013 33.5612Z" fill="#6981F1"/>
</svg>
