<svg width="50" height="50" viewBox="0 0 50 50" fill="none" xmlns="http://www.w3.org/2000/svg">
<path d="M24.099 13.9645C24.4723 13.2597 23.8955 12.3313 23.6527 11.6799C23.4928 11.2974 23.1885 10.9934 22.8057 10.8341C22.423 10.6748 21.9928 10.6731 21.6088 10.8293L21.0064 11.0715C20.7575 10.7782 20.4848 10.506 20.1912 10.2574C20.3612 9.99398 20.4718 9.69668 20.5152 9.38618C20.5586 9.07569 20.5338 8.75947 20.4426 8.45953C20.2084 7.69696 19.1436 7.44793 18.5112 7.15909C18.1278 7.00173 17.6977 7.0021 17.3145 7.16011C16.9314 7.31813 16.6261 7.62102 16.465 8.00292L16.2255 8.59953C15.837 8.56703 15.4465 8.56792 15.0582 8.60219L14.8102 8.00024C14.6504 7.61776 14.3461 7.31387 13.9634 7.1547C13.5806 6.99553 13.1505 6.99396 12.7667 7.15034L11.6799 7.59817C11.2973 7.75797 10.9933 8.06235 10.834 8.44511C10.6747 8.82788 10.673 9.25806 10.8292 9.64209L11.0722 10.244C10.7785 10.493 10.5058 10.7658 10.257 11.0596L9.6573 10.8101C9.27387 10.6527 8.8438 10.6531 8.46062 10.8111C8.07744 10.9691 7.77214 11.272 7.61111 11.654L7.15906 12.7396C7.00172 13.123 7.00205 13.553 7.15999 13.9362C7.31793 14.3193 7.6207 14.6246 8.00251 14.7858L8.59949 15.0254C8.56699 15.4138 8.56788 15.8044 8.60216 16.1927L8.0002 16.4406C7.61775 16.6004 7.31388 16.9048 7.15471 17.2875C6.99554 17.6702 6.99396 18.1003 7.1503 18.4842L7.59813 19.571C7.75796 19.9535 8.06235 20.2575 8.4451 20.4168C8.82785 20.5761 9.25802 20.5778 9.64205 20.4216L10.2413 20.1745L9.94341 19.4523L10.2444 20.1794C10.4935 20.4727 10.7661 20.7451 11.0596 20.9939C10.8896 21.2572 10.779 21.5544 10.7356 21.8649C10.6922 22.1753 10.717 22.4915 10.8083 22.7913C11.0426 23.5535 12.1071 23.8032 12.7396 24.0918C13.123 24.2491 13.553 24.2487 13.9361 24.0908C14.3193 23.9328 14.6246 23.6301 14.7858 23.2483L15.0253 22.6513C15.4138 22.6838 15.8043 22.6829 16.1926 22.6487C16.4016 23.2057 16.6691 23.8882 17.2864 24.099C17.9911 24.4723 18.9196 23.8957 19.571 23.6527C19.9536 23.4929 20.2575 23.1885 20.4168 22.8057C20.5761 22.423 20.5779 21.9928 20.4216 21.6088L20.1795 21.0064C20.4727 20.7574 20.7451 20.4847 20.9939 20.1912L21.5936 20.4407C21.977 20.5981 22.4071 20.5977 22.7902 20.4397C23.1734 20.2817 23.4787 19.9788 23.6398 19.5969L24.0918 18.5112C24.2491 18.1278 24.2488 17.6978 24.0909 17.3147C23.9329 16.9315 23.6302 16.6262 23.2484 16.465L22.6514 16.2255C22.6839 15.837 22.683 15.4465 22.6487 15.0582C23.2054 14.8494 23.8885 14.5817 24.099 13.9645ZM22.0528 13.614C20.943 14.0511 21.1091 15.1314 21.0943 16.097C21.0071 17.1114 21.7904 17.6261 22.6491 17.9108L22.1936 18.998C21.3735 18.5784 20.4669 18.3985 19.7983 19.1858C19.126 19.8682 18.2661 20.5351 18.7303 21.6054L18.9755 22.2081L17.8849 22.6552L17.6369 22.0529C17.1972 20.9397 16.1184 21.111 15.1539 21.0943C14.8258 21.0672 14.4976 21.1452 14.2168 21.317C13.936 21.4889 13.7173 21.7457 13.5922 22.0502L13.34 22.6491L12.2529 22.1936C12.6723 21.3742 12.8512 20.4677 12.0651 19.7984C11.3821 19.1259 10.7174 18.266 9.64546 18.7303L9.04278 18.9755L8.5957 17.8849L9.19804 17.637C10.3078 17.1999 10.1419 16.1195 10.1566 15.1539C10.2438 14.1398 9.46048 13.6248 8.60177 13.3401L9.05727 12.2529L9.65695 12.5024C10.7336 12.9706 11.3959 12.108 12.0823 11.4357C12.8683 10.7733 12.6839 9.85656 12.2753 9.04284L13.366 8.59574L13.6139 9.19809C14.051 10.3097 15.131 10.1425 16.0969 10.1566C16.425 10.1823 16.7527 10.1037 17.0333 9.93196C17.3139 9.76022 17.5331 9.50415 17.6594 9.20037L17.9108 8.60185L18.998 9.05731L18.7485 9.65699C18.2796 10.7338 19.142 11.3947 19.8152 12.0823C20.4779 12.8686 21.3941 12.6842 22.2081 12.2753L22.6552 13.366L22.0528 13.614Z" fill="#1B275F"/>
<path d="M15.6253 11.7871C10.5527 11.9485 10.5539 19.3032 15.6253 19.4638C20.6978 19.3025 20.6966 11.9477 15.6253 11.7871ZM15.6253 17.9013C15.026 17.8946 14.4536 17.6519 14.0323 17.2258C13.6109 16.7997 13.3746 16.2247 13.3746 15.6254C13.3746 15.0262 13.6109 14.4511 14.0323 14.025C14.4537 13.599 15.0261 13.3563 15.6253 13.3496C16.2245 13.3563 16.7969 13.599 17.2183 14.0251C17.6397 14.4512 17.876 15.0262 17.876 15.6255C17.876 16.2247 17.6396 16.7998 17.2183 17.2259C16.7969 17.652 16.2245 17.8947 15.6253 17.9013Z" fill="#1B275F"/>
<path d="M25.9017 36.0364C25.5286 36.7409 26.1051 37.6699 26.348 38.321C26.5079 38.7035 26.8122 39.0075 27.195 39.1668C27.5777 39.3261 28.0079 39.3278 28.3919 39.1717L28.9912 38.9245L28.6933 38.2024L28.9943 38.9294C29.2433 39.2227 29.516 39.4951 29.8095 39.7439C29.6394 40.0072 29.5289 40.3044 29.4855 40.6149C29.4421 40.9253 29.4669 41.2415 29.5581 41.5413C29.7925 42.3036 30.857 42.5532 31.4895 42.8418C31.6791 42.9212 31.8826 42.9623 32.0882 42.9626C32.2938 42.9629 32.4974 42.9225 32.6873 42.8437C32.9644 42.6992 33.2059 42.4948 33.3941 42.2453C33.5822 41.9958 33.7125 41.7075 33.7752 41.4013C34.1637 41.4338 34.5542 41.433 34.9425 41.3987L35.1905 42.0006C35.3502 42.3831 35.6546 42.687 36.0373 42.8462C36.42 43.0054 36.8501 43.0069 37.234 42.8505L38.3208 42.4027C38.7034 42.2429 39.0074 41.9385 39.1667 41.5558C39.326 41.173 39.3277 40.7428 39.1715 40.3588L38.9293 39.7564C39.2225 39.5074 39.4949 39.2347 39.7437 38.9412L40.3434 39.1907C40.7268 39.3481 41.1569 39.3477 41.5401 39.1897C41.9232 39.0317 42.2285 38.7288 42.3896 38.3469C42.6244 37.6905 43.2197 36.7733 42.8435 36.0634C42.6991 35.7863 42.4947 35.5448 42.2452 35.3566C41.9957 35.1684 41.7074 35.0382 41.4012 34.9755C41.4337 34.587 41.4328 34.1965 41.3986 33.8082C41.9552 33.5993 42.6383 33.3317 42.8489 32.7145C43.2222 32.0096 42.6454 31.0813 42.4026 30.4299C42.3246 30.2396 42.2098 30.0666 42.0646 29.9209C41.9195 29.7752 41.7469 29.6597 41.5569 29.5811C41.2571 29.4896 40.9411 29.4637 40.6304 29.5052C40.3197 29.5467 40.0216 29.6545 39.7563 29.8215C39.5074 29.5282 39.2347 29.256 38.9411 29.0074L39.1906 28.4077C39.3481 28.0242 39.3478 27.5941 39.1897 27.2108C39.0317 26.8276 38.7288 26.5222 38.3468 26.3611L37.2611 25.9091C36.8777 25.7517 36.4476 25.7521 36.0645 25.9101C35.6813 26.0681 35.376 26.371 35.215 26.7529L34.9754 27.3495C34.5869 27.317 34.1964 27.3179 33.8081 27.3522L33.5601 26.7502C33.4004 26.3678 33.096 26.0639 32.7133 25.9047C32.3306 25.7455 31.9005 25.744 31.5166 25.9003L30.4298 26.3482C30.0472 26.508 29.7432 26.8124 29.5839 27.1951C29.4246 27.5779 29.4229 28.0081 29.5791 28.3921L29.8221 28.994C29.5284 29.243 29.2557 29.5158 29.0069 29.8096L28.4072 29.5601C28.0238 29.4028 27.5937 29.4031 27.2105 29.5612C26.8274 29.7192 26.5221 30.0221 26.361 30.404L25.909 31.4896C25.7516 31.873 25.752 32.303 25.9099 32.6862C26.0678 33.0693 26.3706 33.3747 26.7524 33.5358L27.3494 33.7754C27.3169 34.1638 27.3178 34.5544 27.3521 34.9427C26.7951 35.152 26.1124 35.4189 25.9017 36.0364ZM27.9479 36.3869C29.0576 35.9499 28.8917 34.8694 28.9064 33.9039C28.9937 32.8898 28.2103 32.3747 27.3516 32.0901L27.8071 31.0029C28.6264 31.4224 29.5328 31.6002 30.2024 30.8151C30.8758 30.1315 31.7342 29.4663 31.2704 28.3955L31.0252 27.7928L32.1158 27.3457L32.3638 27.9481C32.8013 29.0605 33.8808 28.8918 34.8468 28.9066C35.1748 28.9323 35.5025 28.8537 35.7832 28.6819C36.0638 28.5102 36.2829 28.2541 36.4093 27.9503L36.6607 27.3518L37.7479 27.8073C37.3284 28.6268 37.1495 29.5331 37.9356 30.2025C38.6182 30.8749 39.284 31.7348 40.3553 31.2706L40.9579 31.0254L41.405 32.116L40.8027 32.3639C39.6929 32.8011 39.8589 33.8813 39.8441 34.847C39.757 35.8613 40.5402 36.3761 41.399 36.6608L40.9434 37.748L40.3438 37.4985C39.2653 37.0286 38.6066 37.8922 37.9184 38.5652C37.1324 39.2278 37.3168 40.1442 37.7254 40.9581L36.6347 41.4052L36.3868 40.8028C35.9473 39.6898 34.8678 39.8609 33.9038 39.8443C33.5758 39.8176 33.2478 39.8958 32.9671 40.0676C32.6864 40.2394 32.4675 40.4959 32.3421 40.8002L32.0899 41.3991L31.0027 40.9436L31.2522 40.3439C31.7211 39.2674 30.8587 38.606 30.1855 37.9186C29.5232 37.1318 28.607 37.3167 27.7927 37.7256L27.3456 36.6349L27.9479 36.3869Z" fill="#1B275F"/>
<path d="M34.3753 38.2138C39.4478 38.0525 39.4467 30.6977 34.3752 30.5371C29.3027 30.6985 29.3039 38.0532 34.3753 38.2138ZM34.3753 32.0996C34.9745 32.1063 35.5469 32.349 35.9683 32.7751C36.3896 33.2012 36.6259 33.7762 36.6259 34.3755C36.6259 34.9747 36.3896 35.5498 35.9682 35.9759C35.5468 36.402 34.9744 36.6447 34.3752 36.6513C33.776 36.6446 33.2036 36.4019 32.7822 35.9758C32.3609 35.5497 32.1245 34.9747 32.1245 34.3754C32.1246 33.7762 32.3609 33.2011 32.7823 32.775C33.2037 32.349 33.7761 32.1063 34.3753 32.0996Z" fill="#1B275F"/>
<path d="M44.6108 26.8452C43.0129 24.4067 40.6022 22.6136 37.8072 21.7845C35.0121 20.9553 32.0137 21.1438 29.3444 22.3164L20.0674 26.2295C17.8123 27.2193 15.2866 27.4087 12.909 26.7665C10.5314 26.1243 8.44459 24.6889 6.99447 22.6983C5.29337 20.4975 4.50404 17.7267 4.78999 14.9599C5.07594 12.193 6.41525 9.64223 8.53047 7.83587C16.4787 0.144868 28.9417 7.72392 26.889 17.9389C26.8467 18.1501 26.8603 18.3686 26.9283 18.5729C26.9964 18.7772 27.1166 18.9602 27.2771 19.1038C27.4376 19.2473 27.6327 19.3465 27.8433 19.3915C28.0539 19.4366 28.2726 19.4258 28.4777 19.3604L30.9344 18.5486C31.1312 18.4836 31.294 18.343 31.3872 18.1579C31.4803 17.9727 31.4961 17.7582 31.4311 17.5614C31.366 17.3646 31.2255 17.2017 31.0403 17.1086C30.8552 17.0154 30.6406 16.9997 30.4438 17.0647L28.5262 17.6987C28.9288 15.1328 28.5212 12.5051 27.3601 10.1817C26.199 7.8583 24.3423 5.95483 22.0484 4.73638C11.0967 -1.73162 -2.7286 12.336 5.75013 23.644C7.40196 25.9211 9.7847 27.5629 12.5008 28.2954C15.2168 29.0279 18.102 28.8069 20.6748 27.6692L29.9517 23.7561C40.7602 19.2557 50.5711 32.5626 42.1471 41.4509C34.1817 50.2559 20.9637 42.4539 23.059 32.1368C23.1002 31.9159 23.0803 31.6879 23.0016 31.4775C22.9228 31.267 22.7882 31.082 22.6121 30.9424C22.436 30.8027 22.2252 30.7138 22.0023 30.685C21.7795 30.6563 21.553 30.6889 21.3473 30.7793L19.221 31.7391C19.0363 31.827 18.8934 31.9839 18.8231 32.176C18.7527 32.368 18.7605 32.58 18.8447 32.7664C18.9289 32.9529 19.0828 33.0989 19.2734 33.1731C19.464 33.2473 19.6761 33.2439 19.8642 33.1635L21.4152 32.4631C21.0686 34.9019 21.4494 37.3888 22.5098 39.6122C23.5703 41.8356 25.2634 43.6965 27.3768 44.962C32.5585 48.3112 39.1678 47.0429 43.2646 42.5425C45.3091 40.5078 46.5663 37.8143 46.8128 34.9404C47.0592 32.0665 46.2791 29.1983 44.6108 26.8452Z" fill="#1B275F"/>
</svg>
