<svg width="80" height="80" viewBox="0 0 80 80" fill="none" xmlns="http://www.w3.org/2000/svg">
<path d="M0 34.0765C0 18.0127 0 9.98079 4.99039 4.99039C9.98079 0 18.0127 0 34.0765 0H45.9235C61.9873 0 70.0192 0 75.0096 4.99039C80 9.98079 80 18.0127 80 34.0765V45.9235C80 61.9873 80 70.0192 75.0096 75.0096C70.0192 80 61.9873 80 45.9235 80H34.0765C18.0127 80 9.98079 80 4.99039 75.0096C0 70.0192 0 61.9873 0 45.9235V34.0765Z" fill="#1B1D1E"/>
<g clip-path="url(#clip0_10906_29233)">
<g clip-path="url(#clip1_10906_29233)">
<path d="M18.685 51.8292C18.2117 52.5987 17.6758 53.5006 17.2527 54.2146C17.1595 54.3738 17.1003 54.551 17.0735 54.7335C17.0479 54.9168 17.0577 55.1032 17.1021 55.2829C17.1452 55.4636 17.224 55.6318 17.3316 55.7821C17.4391 55.9324 17.5754 56.0613 17.7313 56.1615L27.2373 62.0112C27.4005 62.1132 27.5851 62.1812 27.7769 62.2117C27.9669 62.2421 28.1641 62.2349 28.3523 62.1884C28.5405 62.1419 28.718 62.0596 28.874 61.945C29.0299 61.8305 29.1608 61.6856 29.2594 61.5191C29.643 60.8821 30.1288 60.0572 30.6504 59.1767C34.4184 53.0085 38.2366 53.7636 45.0573 57.0008L54.4862 61.4637C54.6627 61.5482 54.8545 61.5964 55.0501 61.6053C55.2456 61.6142 55.441 61.5837 55.6245 61.5156C55.8073 61.4476 55.9758 61.3438 56.1175 61.2096C56.2609 61.0754 56.3738 60.9143 56.4527 60.7354L60.9789 50.548C61.056 50.3762 61.099 50.1919 61.1044 50.004C61.1116 49.8179 61.0811 49.63 61.0166 49.4546C60.952 49.2792 60.8552 49.1164 60.7298 48.9768C60.6043 48.8372 60.4537 48.7245 60.2834 48.6404C58.2954 47.7063 54.3392 45.8685 50.7935 44.1363C37.896 37.9251 27.0133 38.3349 18.685 51.8292Z" fill="url(#paint0_linear_10906_29233)"/>
<path d="M61.3076 28.6713C61.7862 27.9018 62.3222 27.0017 62.7399 26.2877C62.8349 26.1249 62.8976 25.9441 62.9245 25.7562C62.9514 25.5701 62.9406 25.3787 62.894 25.1961C62.8464 25.0132 62.7636 24.8412 62.6502 24.6897C62.5371 24.5378 62.3952 24.4095 62.2326 24.3121L52.7409 18.4624C52.576 18.3604 52.3931 18.2924 52.2013 18.262C52.0095 18.2316 51.8141 18.2405 51.6259 18.2852C51.4377 18.3318 51.2602 18.4141 51.1043 18.5286C50.9483 18.6431 50.8175 18.7881 50.7171 18.9545C50.3424 19.5916 49.8477 20.4165 49.326 21.2969C45.5437 27.4938 41.7614 26.7387 34.9335 23.5015L25.5135 19.0368C25.3378 18.9527 25.1478 18.9026 24.9542 18.8919C24.7606 18.8793 24.5652 18.908 24.3824 18.9724C24.1996 19.0368 24.0311 19.137 23.8877 19.2677C23.7425 19.3983 23.6277 19.5558 23.5453 19.7311L19.019 29.9472C18.8635 30.2937 18.8487 30.6869 18.9778 31.0441C19.0423 31.2213 19.1409 31.3841 19.2664 31.5237C19.3919 31.6633 19.5442 31.7778 19.7145 31.8601C21.7097 32.796 25.6659 34.632 29.2044 36.366C42.0679 42.5754 52.9847 42.1674 61.3076 28.6713Z" fill="url(#paint1_linear_10906_29233)"/>
</g>
</g>
<defs>
<linearGradient id="paint0_linear_10906_29233" x1="60.6742" y1="65.0404" x2="31.9818" y2="48.522" gradientUnits="userSpaceOnUse">
<stop stop-color="#0052CC"/>
<stop offset="0.92" stop-color="#2380FB"/>
<stop offset="1" stop-color="#2684FF"/>
</linearGradient>
<linearGradient id="paint1_linear_10906_29233" x1="19.3171" y1="15.4543" x2="48.0165" y2="31.9728" gradientUnits="userSpaceOnUse">
<stop stop-color="#0052CC"/>
<stop offset="0.92" stop-color="#2380FB"/>
<stop offset="1" stop-color="#2684FF"/>
</linearGradient>
<clipPath id="clip0_10906_29233">
<rect width="45.9235" height="45.9235" fill="white" transform="translate(17.0381 17.0381)"/>
</clipPath>
<clipPath id="clip1_10906_29233">
<rect width="45.9235" height="44.01" fill="white" transform="translate(17.0381 18.2314)"/>
</clipPath>
</defs>
</svg>
