<svg width="144" height="144" viewBox="0 0 144 144" fill="none" xmlns="http://www.w3.org/2000/svg">
<path d="M69.2481 40.8784H34.2365C29.2904 40.8784 25.2891 44.9075 25.2891 49.8258V73.5837C25.2891 78.2797 28.9292 82.1699 33.5696 82.5312V89.0611C33.5696 89.8947 34.0698 90.6728 34.8478 90.9784C35.0979 91.0896 35.3757 91.1451 35.6536 91.1451C36.2094 91.1451 36.7373 90.9228 37.1263 90.5338L45.1012 82.5589H65.8025V85.5877C65.8025 90.5338 69.8317 94.5629 74.7777 94.5629H98.9524L106.927 102.538C107.316 102.927 107.872 103.149 108.4 103.149C108.678 103.149 108.928 103.094 109.206 102.982C109.984 102.649 110.484 101.899 110.484 101.065V94.5074C115.097 94.1461 118.765 90.2837 118.765 85.5599V61.802C118.765 56.856 114.735 52.8268 109.789 52.8268H78.2233V49.7981C78.2233 44.8798 74.1942 40.8784 69.2481 40.8784ZM44.212 78.3909C43.6563 78.3909 43.1283 78.6132 42.7393 79.0022L37.7099 84.0317V80.4749C37.7099 79.3357 36.7651 78.3909 35.6258 78.3909H34.2365C31.5967 78.3909 29.4571 76.2513 29.4571 73.6115V49.8536C29.4571 47.2139 31.5967 45.0743 34.2365 45.0743H69.2481C71.8879 45.0743 74.0275 47.2139 74.0275 49.8536V73.6115C74.0275 76.2513 71.8879 78.3909 69.2481 78.3909H44.212ZM109.762 57.0227C112.401 57.0227 114.569 59.1623 114.569 61.8298V85.5877C114.569 88.2275 112.429 90.3949 109.762 90.3949H108.372C107.233 90.3949 106.288 91.3396 106.288 92.4789V96.0356L101.259 91.0062C100.87 90.6172 100.342 90.3949 99.7861 90.3949H74.75C72.1102 90.3949 69.9428 88.2553 69.9428 85.5877V82.5312C74.5555 82.1699 78.1955 78.3075 78.1955 73.6115V57.0505H109.762V57.0227Z" fill="black"/>
<path d="M51.7969 70.0828C51.2412 70.0828 50.7132 70.3051 50.3242 70.6941C49.9352 71.0831 49.7129 71.611 49.7129 72.1668C49.7129 72.7225 49.9352 73.2505 50.3242 73.6395C50.7132 74.0285 51.2412 74.2508 51.7969 74.2508C52.3527 74.2508 52.8806 74.0285 53.2696 73.6395C53.6586 73.2505 53.8809 72.7225 53.8809 72.1668C53.8809 71.611 53.6586 71.0831 53.2696 70.6941C52.8806 70.3051 52.3527 70.0828 51.7969 70.0828Z" fill="black"/>
<path d="M51.742 49.1868C48.1852 49.1868 45.2676 52.0766 45.2676 55.6611V55.8001C45.2676 56.9393 46.2123 57.8841 47.3516 57.8841C48.4909 57.8841 49.4356 56.9393 49.4356 55.8001V55.6611C49.4356 54.4107 50.4638 53.3548 51.742 53.3548C53.0202 53.3548 54.0483 54.3829 54.0483 55.6611C54.0483 56.8838 53.5759 58.023 52.7145 58.8844C50.7972 60.8017 49.7413 63.3581 49.7413 66.0813C49.7413 67.2205 50.686 68.1653 51.8253 68.1653C52.9646 68.1653 53.9093 67.2205 53.9093 66.0813C53.9093 64.4696 54.5207 62.9691 55.6599 61.8299C57.2994 60.1904 58.2163 57.9953 58.2163 55.6611C58.2163 52.0766 55.2987 49.1868 51.742 49.1868Z" fill="black"/>
</svg>
