<svg width="50" height="50" viewBox="0 0 50 50" fill="none" xmlns="http://www.w3.org/2000/svg">
<path d="M47.6562 34.8563H45.9313V11.4985C45.9313 9.3188 44.1578 7.54614 41.9789 7.54614H8.02109C5.84141 7.54614 4.06875 9.3188 4.06875 11.4985V34.8563H2.34375C1.9125 34.8563 1.5625 35.2063 1.5625 35.6375V36.7118C1.5625 39.8782 4.13828 42.454 7.30469 42.454H42.6953C45.8617 42.454 48.4375 39.8782 48.4375 36.7118V35.6375C48.4375 35.2063 48.0875 34.8563 47.6562 34.8563ZM5.63125 11.4985C5.63125 10.1805 6.70312 9.10864 8.02109 9.10864H41.9789C43.2969 9.10864 44.3688 10.1805 44.3688 11.4985V34.8563H5.63125V11.4985ZM19.6102 36.4188H30.3906V37.6407C30.3906 37.7696 30.2859 37.8735 30.157 37.8735H19.8438C19.7148 37.8735 19.6102 37.7688 19.6102 37.6407V36.4188ZM46.875 36.7118C46.875 39.0165 45 40.8915 42.6953 40.8915H7.30469C5 40.8915 3.125 39.0165 3.125 36.7118V36.4188H18.0477V37.6407C18.0477 38.6305 18.8531 39.436 19.8438 39.436H30.157C31.1477 39.436 31.9531 38.6305 31.9531 37.6407V36.4188H46.8758L46.875 36.7118Z" fill="#A3ACB5"/>
<path d="M17.3143 13.9891L13.015 18.2883L10.2791 15.5516C9.97363 15.2461 9.47988 15.2461 9.17441 15.5516C8.86895 15.8571 8.86895 16.3508 9.17441 16.6563L12.4627 19.9454C12.6096 20.0922 12.808 20.1743 13.015 20.1743C13.2221 20.1743 13.4213 20.0922 13.5674 19.9454L18.4189 15.0938C18.7244 14.7883 18.7244 14.2946 18.4189 13.9891C18.1135 13.6836 17.6197 13.6836 17.3143 13.9891Z" fill="#A3ACB5"/>
<path d="M17.7299 23.3226C17.4244 23.0171 16.9307 23.0171 16.6252 23.3226L13.8096 26.1382L10.9939 23.3226C10.6885 23.0171 10.1947 23.0171 9.88926 23.3226C9.58379 23.6281 9.58379 24.1218 9.88926 24.4273L12.7049 27.2429L9.88926 30.0585C9.58379 30.364 9.58379 30.8578 9.88926 31.1632C10.0416 31.3156 10.2416 31.3921 10.4416 31.3921C10.6416 31.3921 10.8416 31.3156 10.9939 31.1632L13.8096 28.3476L16.6252 31.1632C16.7775 31.3156 16.9775 31.3921 17.1775 31.3921C17.3775 31.3921 17.5775 31.3156 17.7299 31.1632C18.0354 30.8578 18.0354 30.364 17.7299 30.0585L14.9143 27.2429L17.7299 24.4273C18.0354 24.1218 18.0354 23.6281 17.7299 23.3226Z" fill="#A3ACB5"/>
<path d="M28.8789 15.3228H40.1422C40.5734 15.3228 40.9234 14.9728 40.9234 14.5415C40.9234 14.1103 40.5734 13.7603 40.1422 13.7603H28.8789C28.4477 13.7603 28.0977 14.1103 28.0977 14.5415C28.0977 14.9728 28.4477 15.3228 28.8789 15.3228Z" fill="#A3ACB5"/>
<path d="M22.1992 15.3228H24.9992C25.4305 15.3228 25.7805 14.9728 25.7805 14.5415C25.7805 14.1103 25.4305 13.7603 24.9992 13.7603H22.1992C21.768 13.7603 21.418 14.1103 21.418 14.5415C21.418 14.9728 21.768 15.3228 22.1992 15.3228Z" fill="#A3ACB5"/>
<path d="M22.1992 19.3547H35.5594C35.9906 19.3547 36.3406 19.0047 36.3406 18.5735C36.3406 18.1422 35.9906 17.7922 35.5594 17.7922H22.1992C21.768 17.7922 21.418 18.1422 21.418 18.5735C21.418 19.0047 21.768 19.3547 22.1992 19.3547Z" fill="#A3ACB5"/>
<path d="M40.1422 24.446H28.8789C28.4477 24.446 28.0977 24.796 28.0977 25.2273C28.0977 25.6585 28.4477 26.0085 28.8789 26.0085H40.1422C40.5734 26.0085 40.9234 25.6585 40.9234 25.2273C40.9234 24.796 40.5734 24.446 40.1422 24.446Z" fill="#A3ACB5"/>
<path d="M22.1992 26.0085H24.9992C25.4305 26.0085 25.7805 25.6585 25.7805 25.2273C25.7805 24.796 25.4305 24.446 24.9992 24.446H22.1992C21.768 24.446 21.418 24.796 21.418 25.2273C21.418 25.6585 21.768 26.0085 22.1992 26.0085Z" fill="#A3ACB5"/>
<path d="M22.1992 30.0405H35.5594C35.9906 30.0405 36.3406 29.6905 36.3406 29.2593C36.3406 28.828 35.9906 28.478 35.5594 28.478H22.1992C21.768 28.478 21.418 28.828 21.418 29.2593C21.418 29.6905 21.768 30.0405 22.1992 30.0405Z" fill="#A3ACB5"/>
</svg>
