<svg width="100" height="100" viewBox="0 0 100 100" fill="none" xmlns="http://www.w3.org/2000/svg">
<circle cx="50" cy="50" r="50" fill="#FF5D00" fill-opacity="0.1"/>
<path d="M29.0352 48.4684L33.4227 46.6199C33.5372 46.6033 33.6535 46.6033 33.768 46.6199C33.8885 46.6233 34.0069 46.6522 34.1155 46.7048C34.224 46.7573 34.3202 46.8322 34.3977 46.9246L38.6227 51.8809V39.4293L29.0352 35.834V48.4684Z" fill="#FF5D00"/>
<path d="M47.2352 35.0223L39.1305 31.752L30.6602 34.677L39.4555 37.9676L47.2352 35.0223Z" fill="#FF5D00"/>
<path d="M51.5 19.4629L20.5641 30.8785L28.2219 33.7426L38.8859 30.066H39.15H39.475L49.8344 34.2504C49.9912 34.309 50.1261 34.4146 50.2206 34.5527C50.3152 34.6909 50.3647 34.8549 50.3625 35.0223C50.3632 35.1921 50.3107 35.3579 50.2123 35.4963C50.114 35.6348 49.9747 35.7389 49.8141 35.7941L41.8109 38.841L51.5 42.4973L82.4562 30.8785L51.5 19.4629ZM79.9375 33.5801L52.3328 43.9598V81.5379L84 69.6957V32.0566L79.9375 33.5801ZM72.5031 63.6629C72.4293 63.7379 72.3405 63.7965 72.2425 63.835C72.1445 63.8735 72.0395 63.891 71.9344 63.8863C71.8197 63.889 71.7059 63.8668 71.6007 63.8212C71.4955 63.7756 71.4014 63.7078 71.325 63.6223L69.7812 61.9363V68.0301C69.7812 68.251 69.6935 68.4628 69.5373 68.619C69.3811 68.7752 69.1693 68.8629 68.9484 68.8629C68.7276 68.8629 68.5157 68.7752 68.3596 68.619C68.2034 68.4628 68.1156 68.251 68.1156 68.0301V61.9566L66.5516 63.6223C66.477 63.71 66.3833 63.7795 66.2776 63.8253C66.172 63.871 66.0572 63.8919 65.9422 63.8863C65.7319 63.8828 65.5299 63.8034 65.3734 63.6629C65.2924 63.5872 65.2274 63.4961 65.182 63.395C65.1367 63.2938 65.112 63.1847 65.1094 63.0738C65.1134 62.8575 65.1924 62.6493 65.3328 62.4848L68.2781 59.316H68.4203V59.1941C68.5712 59.0513 68.7711 58.9717 68.9789 58.9717C69.1867 58.9717 69.3866 59.0513 69.5375 59.1941L72.4828 62.3832C72.5616 62.4585 72.6226 62.5505 72.6612 62.6524C72.6999 62.7544 72.7153 62.8636 72.7062 62.9723C72.7329 63.0952 72.7282 63.2228 72.6928 63.3435C72.6573 63.4641 72.5921 63.574 72.5031 63.6629ZM63.3828 49.1191H63.0984C62.9265 49.1182 62.7589 49.0653 62.6175 48.9675C62.4761 48.8696 62.3677 48.7313 62.3062 48.5707C62.2677 48.4668 62.2502 48.3562 62.255 48.2454C62.2597 48.1346 62.2865 48.0259 62.3338 47.9257C62.3811 47.8254 62.4479 47.7356 62.5304 47.6615C62.6129 47.5874 62.7093 47.5305 62.8141 47.4941L72.9703 43.777C73.0642 43.7583 73.1608 43.7583 73.2547 43.777C73.4266 43.7779 73.5942 43.8308 73.7356 43.9286C73.877 44.0265 73.9855 44.1648 74.0469 44.3254C74.0924 44.4241 74.116 44.5315 74.116 44.6402C74.116 44.7489 74.0924 44.8564 74.0469 44.9551C73.9499 45.1507 73.7832 45.3028 73.5797 45.3816L63.3828 49.1191ZM81.075 61.6113C80.9206 61.7552 80.7173 61.835 80.5063 61.8348C80.2763 61.8304 80.0573 61.7355 79.8969 61.5707L78.3328 59.8848V65.877C78.3328 66.0978 78.2451 66.3097 78.0889 66.4658C77.9327 66.622 77.7209 66.7098 77.5 66.7098C77.2791 66.7098 77.0673 66.622 76.9111 66.4658C76.7549 66.3097 76.6672 66.0978 76.6672 65.877V59.8848L75.1031 61.5707C75.0244 61.6532 74.9299 61.7191 74.8252 61.7645C74.7205 61.8098 74.6078 61.8337 74.4937 61.8348C74.2834 61.8312 74.0815 61.7519 73.925 61.6113C73.7698 61.4526 73.6762 61.2438 73.6609 61.0223C73.6614 60.8053 73.7409 60.5959 73.8844 60.4332L76.9109 57.1832L77.0734 57.0816V56.8785L77.1953 57.0613H77.4188H77.7438H77.8453C77.8786 57.0527 77.9136 57.0527 77.9469 57.0613L80.9531 60.291C81.0348 60.3685 81.0974 60.4639 81.1362 60.5696C81.1749 60.6753 81.1887 60.7885 81.1766 60.9004C81.2137 61.019 81.2239 61.1444 81.2063 61.2674C81.1888 61.3904 81.1439 61.5079 81.075 61.6113ZM40.2875 54.0348C40.2866 54.2067 40.2337 54.3743 40.1358 54.5157C40.038 54.6571 39.8997 54.7655 39.7391 54.827H39.4547C39.337 54.8299 39.2201 54.8079 39.1115 54.7624C39.003 54.7169 38.9053 54.6489 38.825 54.5629L33.5234 48.4691L28.5266 50.5004C28.4192 50.5212 28.3089 50.5212 28.2016 50.5004C28.055 50.5382 27.9012 50.5382 27.7547 50.5004C27.6366 50.4231 27.5395 50.3177 27.4721 50.1936C27.4047 50.0695 27.3692 49.9306 27.3687 49.7895V35.2051L19 32.0566V69.6957L50.6672 81.5379V43.9598L40.2875 40.0598V54.0348Z" fill="#FF5D00"/>
</svg>
