<svg width="23" height="50" viewBox="0 0 23 50" fill="none" xmlns="http://www.w3.org/2000/svg">
<path d="M11.0693 0.136719L12.4036 2.64278C12.7036 3.10525 13.0286 3.51459 13.4113 3.89581C14.5336 5.00405 15.5796 6.18686 16.5424 7.43617C18.8031 10.4047 20.328 13.7013 21.417 17.2667C22.0701 19.4446 22.4247 21.6788 22.4513 23.9381C22.5607 30.6922 20.2452 36.4918 15.5768 41.3117C14.8174 42.0761 13.9971 42.7773 13.1239 43.4085C12.6614 43.4085 12.4427 43.0538 12.2521 42.7273C11.9049 42.1218 11.6739 41.4568 11.5709 40.7665C11.4068 39.9493 11.299 39.1322 11.3521 38.2885V37.9073C11.3146 37.8261 10.9068 0.328892 11.0693 0.136719Z" fill="#599636"/>
<path d="M11.0727 0.0537507C11.018 -0.0556161 10.9634 0.0271902 10.9087 0.0803112C10.9352 0.627145 10.7446 1.11461 10.4462 1.5802C10.1181 2.04266 9.68377 2.39732 9.24786 2.77855C6.82617 4.87526 4.92006 7.40788 3.39361 10.2405C1.36252 14.0527 0.315721 18.1383 0.0188685 22.4396C-0.117059 23.991 0.509456 29.4656 0.998482 31.0452C2.33276 35.2386 4.72945 38.7524 7.83391 41.8022C8.59635 42.5365 9.41191 43.2177 10.2556 43.8723C10.5009 43.8723 10.5275 43.6536 10.5837 43.4911C10.6912 43.1434 10.7732 42.7883 10.829 42.4287L11.3758 38.3446L11.0727 0.0537507Z" fill="#6CAC48"/>
<path d="M12.4053 45.069C12.46 44.444 12.76 43.9253 13.0865 43.4082C12.7584 43.2722 12.5147 43.0019 12.3241 42.7004C12.1597 42.4149 12.0236 42.114 11.9178 41.802C11.5366 40.6584 11.4554 39.4585 11.346 38.2898V37.582C11.2101 37.6914 11.182 38.6163 11.182 38.7538C11.1025 39.989 10.9385 41.2173 10.6914 42.4301C10.6101 42.9207 10.5554 43.4097 10.2539 43.8456C10.2539 43.9003 10.2539 43.955 10.2805 44.0362C10.7711 45.4799 10.9054 46.9501 10.9882 48.4484V48.9952C10.9882 49.6483 10.9617 49.5108 11.5038 49.7296C11.7225 49.8108 11.9663 49.8389 12.185 50.0014C12.3491 50.0014 12.3756 49.8655 12.3756 49.7561L12.2944 48.8577V46.3517C12.2678 45.9142 12.3491 45.4799 12.4037 45.0705L12.4053 45.069Z" fill="#C2BFBF"/>
</svg>
