<svg width="72" height="73" viewBox="0 0 72 73" fill="none" xmlns="http://www.w3.org/2000/svg">
<g clip-path="url(#clip0_9862_1994)">
<path d="M40.4259 67.3283H33.4255L32.9203 59.1643H25.5527L25.0475 67.3283H17.9994C16.8104 67.3283 15.8464 68.2923 15.8464 69.4813C15.8464 70.6703 16.8104 71.6343 17.9994 71.6343H40.4259C41.6149 71.6343 42.5789 70.6703 42.5789 69.4813C42.5789 68.2923 41.6149 67.3283 40.4259 67.3283Z" fill="black"/>
<path d="M36.4512 27.5038L39.0951 22.7126H2.81283C2.2143 22.7126 1.72485 23.2007 1.72485 23.8006V53.7703C1.72485 54.3703 2.2143 54.8583 2.81283 54.8583C4.8233 54.8583 53.0903 54.8583 55.6373 54.8583C56.2373 54.8583 56.7267 54.3703 56.7267 53.7703V30.6974H38.3358C36.7016 30.6974 35.6582 28.9387 36.4512 27.5038ZM48.5209 41.6131C48.0366 42.6903 46.7667 43.1845 45.6732 42.6924C39.5551 39.9382 42.3626 41.2019 32.9591 36.9698C27.7623 40.6352 28.8872 39.8416 26.9924 41.1796C26.2058 41.7351 25.1451 41.6992 24.3959 41.0935C22.4252 39.498 23.8119 40.6204 17.4891 35.5029C11.315 40.1579 12.5976 39.191 10.9684 40.4189V46.1214C12.263 46.1214 47.718 46.1214 49.6362 46.1214C50.8246 46.1214 51.7892 47.0846 51.7892 48.2744C51.7892 49.4629 50.8246 50.4274 49.6362 50.4274C48.619 50.4274 9.87451 50.4274 8.81538 50.4274C7.6255 50.4274 6.66239 49.4629 6.66239 48.2744V29.2965C6.66239 28.1081 7.6255 27.1435 8.81538 27.1435C10.0038 27.1435 10.9684 28.1081 10.9684 29.2965C10.9684 31.5942 10.9684 29.9395 10.9684 35.0263C15.5245 31.591 14.4389 32.4096 16.2403 31.0519C17.0298 30.4577 18.1235 30.4763 18.8914 31.0978L25.8398 36.7229L31.4807 32.7427C32.1036 32.3035 32.9117 32.226 33.6064 32.5389L47.4416 38.7668C48.5252 39.255 49.0089 40.5294 48.5209 41.6131Z" fill="black"/>
<path d="M70.9662 25.3271L57.3966 0.736845C57.1238 0.24223 56.413 0.241943 56.1401 0.736415C53.688 5.18005 44.9266 21.0571 42.5698 25.3278C42.3058 25.8062 42.6522 26.3914 43.1986 26.3914H70.3378C70.8843 26.3914 71.2302 25.8053 70.9662 25.3271ZM58.9212 22.3409C58.9212 23.5206 57.9653 24.4939 56.7682 24.4939C56.7539 24.4939 56.7409 24.4939 56.7266 24.4924C55.5557 24.4715 54.6152 23.5157 54.6152 22.3409V20.5596C54.6152 19.3702 55.5789 18.4066 56.7682 18.4066C57.9575 18.4066 58.9212 19.3727 58.9212 20.5596V22.3409ZM58.9212 14.6202C58.9212 15.8087 57.9567 16.7732 56.7682 16.7732C55.5783 16.7732 54.6152 15.8087 54.6152 14.6202V9.17458C54.6152 7.98612 55.5783 7.02158 56.7682 7.02158C57.9567 7.02158 58.9212 7.98612 58.9212 9.17458V14.6202Z" fill="black"/>
</g>
<defs>
<clipPath id="clip0_9862_1994">
<rect width="72" height="72" fill="white" transform="translate(0 0.365723)"/>
</clipPath>
</defs>
</svg>
