<svg width="80" height="80" viewBox="0 0 80 80" fill="none" xmlns="http://www.w3.org/2000/svg">
<path d="M0 34.0765C0 18.0127 0 9.98079 4.99039 4.99039C9.98079 0 18.0127 0 34.0765 0H45.9235C61.9873 0 70.0192 0 75.0096 4.99039C80 9.98079 80 18.0127 80 34.0765V45.9235C80 61.9873 80 70.0192 75.0096 75.0096C70.0192 80 61.9873 80 45.9235 80H34.0765C18.0127 80 9.98079 80 4.99039 75.0096C0 70.0192 0 61.9873 0 45.9235V34.0765Z" fill="#1B1D1E"/>
<g clip-path="url(#clip0_10906_29515)">
<path d="M36.2626 26.3331C36.2626 26.3331 36.2625 22.0736 36.2742 20.3388C36.287 18.4657 37.4689 17.285 39.3235 17.2795C41.1452 17.2739 42.967 17.2741 44.7887 17.2795C46.6244 17.2846 47.8096 18.4512 47.814 20.2768C47.8223 23.8336 47.817 27.3903 47.8152 30.9471C47.815 31.1345 47.7941 31.3217 47.7782 31.5866C44.4285 29.647 41.0105 29.3594 37.5355 30.9687C34.9376 32.1716 33.1374 34.1766 32.1803 36.8804C30.2718 42.2725 33.1911 48.1958 38.6483 50.0434C44.3117 51.9606 50.7179 48.8095 52.3058 42.3393C52.4683 42.4747 57.8405 47.7505 60.3666 50.2542C61.7392 51.6146 61.737 53.244 60.3703 54.6038C59.125 55.8428 57.8757 57.0781 56.6234 58.31C55.2316 59.6789 53.5816 59.6844 52.1997 58.3264C50.9467 57.0951 47.8003 54.0192 47.8003 54.0192C47.8003 54.0192 47.8257 58.4439 47.8137 60.2439C47.802 61.9943 46.6149 63.182 44.8703 63.1916C43.0053 63.2019 41.14 63.2004 39.275 63.1921C37.4948 63.1844 36.2977 62.0057 36.2763 60.215C36.2558 58.4803 36.2715 54.0555 36.2715 54.0555C36.2715 54.0555 33.2374 57.102 31.9991 58.3173C30.6081 59.6826 28.9654 59.6828 27.5754 58.3197C26.3366 57.1048 25.1022 55.8856 23.8703 54.6638C22.436 53.241 22.4412 51.6494 23.8486 50.2219C25.2164 48.8346 28.0502 45.9311 28.0502 45.9311C28.0502 45.9311 23.5634 45.9386 21.6767 45.9289C19.7345 45.919 18.6167 44.7938 18.6103 42.8518C18.6044 41.0951 18.6031 39.3383 18.6108 37.5816C18.619 35.6868 19.7462 34.5567 21.6513 34.544C23.4946 34.5318 28.0735 34.541 28.0735 34.541C28.0735 34.541 24.981 31.4496 23.7062 30.1789C22.3977 28.8746 22.3867 27.2242 23.6831 25.9271C24.9864 24.6233 26.2955 23.3254 27.6165 22.0395C28.8601 20.8292 30.5767 20.8175 31.8016 22.0477C33.2222 23.4744 36.2626 26.3331 36.2626 26.3331Z" fill="white"/>
<path d="M46.3132 40.214C46.3152 42.5479 44.4515 44.4017 42.0957 44.4093C39.7028 44.4168 37.8286 42.5601 37.8379 40.1917C37.8471 37.8739 39.7474 36.0052 42.0857 36.0147C44.4311 36.0242 46.3111 37.8918 46.3132 40.214Z" fill="#9B1B1D"/>
</g>
<defs>
<clipPath id="clip0_10906_29515">
<rect width="45.9235" height="45.9235" fill="white" transform="translate(17.0381 17.0381)"/>
</clipPath>
</defs>
</svg>
