<svg width="16" height="11" viewBox="0 0 16 11" fill="none" xmlns="http://www.w3.org/2000/svg">
<path d="M15.8722 5.16608L11.3722 0.166003C11.2762 0.060001 11.1412 0 11.0002 0H8.00012C7.80212 0 7.62312 0.116002 7.54311 0.296004C7.46311 0.477007 7.49611 0.688011 7.62812 0.834013L10.4772 4.00006H0.500008C0.224003 4.00006 0 4.22406 0 4.50007V6.5001C0 6.7761 0.224003 7.00011 0.500008 7.00011H10.4772L7.62812 10.1652C7.49611 10.3122 7.46211 10.5232 7.54311 10.7032C7.62312 10.8842 7.80212 11.0002 8.00012 11.0002H11.0002C11.1422 11.0002 11.2762 10.9392 11.3722 10.8352L15.8722 5.83509C16.0432 5.64509 16.0432 5.35508 15.8722 5.16608Z" fill="black"/>
</svg>
