<svg width="70" height="70" viewBox="0 0 70 70" fill="none" xmlns="http://www.w3.org/2000/svg">
<path d="M0 35C0 15.67 15.67 0 35 0C54.33 0 70 15.67 70 35C70 54.33 54.33 70 35 70C15.67 70 0 54.33 0 35Z" fill="#E8F2FC"/>
<path d="M38.4097 22.3827C38.4097 22.0111 38.7137 21.7099 39.0886 21.7099H45.9396C46.2923 23.7792 48.1866 25.2356 50.2971 25.0598C52.4073 24.8844 54.0301 23.136 54.0301 21.0371C54.0301 18.9385 52.4073 17.1901 50.2971 17.0143C48.1866 16.8389 46.2923 18.2952 45.9396 20.3643H39.0886C37.9638 20.3643 37.0518 21.268 37.0518 22.3827V25.7468H38.4097V22.3827ZM48.5941 20.3643C48.5941 19.9927 48.8981 19.6914 49.273 19.6914H50.631C51.0062 19.6914 51.3099 19.9927 51.3099 20.3643V21.7099C51.3099 22.0818 51.0062 22.3827 50.631 22.3827H49.273C48.8981 22.3827 48.5941 22.0818 48.5941 21.7099V20.3643Z" fill="#4361EE"/>
<path d="M31.6201 49.2953C31.6201 49.6672 31.3164 49.9681 30.9411 49.9681H24.0905C23.7374 47.899 21.8434 46.4427 19.733 46.6181C17.6228 46.7939 16 48.5423 16 50.6409C16 52.7398 17.6228 54.4882 19.733 54.6637C21.8434 54.8394 23.7374 53.3831 24.0905 51.3137H30.9411C32.0663 51.3137 32.978 50.4103 32.978 49.2953V45.9709H31.6201V49.2953ZM21.4357 51.3137C21.4357 51.6856 21.132 51.9865 20.7567 51.9865H19.3988C19.0238 51.9865 18.7198 51.6856 18.7198 51.3137V49.9681C18.7198 49.5965 19.0238 49.2953 19.3988 49.2953H20.7567C21.132 49.2953 21.4357 49.5965 21.4357 49.9681V51.3137Z" fill="#4361EE"/>
<path d="M20.0777 25.074C22.0636 25.0704 23.758 23.6499 24.0905 21.7099H30.9411C31.3164 21.7099 31.62 22.0112 31.62 22.3828V25.7468H32.978V22.3828C32.978 21.2681 32.0663 20.3643 30.9411 20.3643H24.0905C23.7301 18.2519 21.7672 16.7864 19.6186 17.0255C17.47 17.265 15.8843 19.1261 16.0066 21.2651C16.1286 23.4045 17.9159 25.0763 20.0777 25.074ZM18.7198 20.3643C18.7198 19.9928 19.0238 19.6915 19.3988 19.6915H20.7567C21.132 19.6915 21.4357 19.9928 21.4357 20.3643V21.7099C21.4357 22.0818 21.132 22.3828 20.7567 22.3828H19.3988C19.0238 22.3828 18.7198 22.0818 18.7198 21.7099V20.3643Z" fill="#4361EE"/>
<path d="M49.952 46.604C47.9665 46.6079 46.2721 48.0281 45.9396 49.968H39.0886C38.7137 49.968 38.4097 49.6671 38.4097 49.2952V45.9312H37.0518V49.2952C37.0518 50.4102 37.9638 51.3137 39.0886 51.3137H45.9396C46.2999 53.4264 48.2629 54.8919 50.4115 54.6524C52.5601 54.4133 54.1458 52.5522 54.0234 50.4132C53.9014 48.2738 52.1142 46.602 49.952 46.604ZM51.3099 51.3137C51.3099 51.6856 51.0062 51.9865 50.631 51.9865H49.273C48.8981 51.9865 48.5941 51.6856 48.5941 51.3137V49.968C48.5941 49.5965 48.8981 49.2952 49.273 49.2952H50.631C51.0062 49.2952 51.3099 49.5965 51.3099 49.968V51.3137Z" fill="#4361EE"/>
<path d="M28.9042 26.4194C28.5292 26.4194 28.2252 26.7207 28.2252 27.0922V44.5854C28.2252 44.9573 28.5292 45.2582 28.9042 45.2582H41.1255C41.5007 45.2582 41.8044 44.9573 41.8044 44.5854V27.0922C41.8044 26.7207 41.5007 26.4194 41.1255 26.4194H28.9042ZM35.0148 44.5854C34.2649 44.5854 33.6569 43.9832 33.6569 43.2398C33.6569 42.4967 34.2649 41.8942 35.0148 41.8942C35.7651 41.8942 36.3727 42.4967 36.3727 43.2398C36.3727 43.9832 35.7651 44.5854 35.0148 44.5854ZM41.1255 28.4379H38.8293L38.342 29.4116C38.2263 29.6409 37.9892 29.7851 37.7307 29.7835H32.299C32.0417 29.7838 31.8063 29.6396 31.6913 29.4116L31.2006 28.4379H28.9042V27.0922H31.62C31.8776 27.0922 32.1127 27.2365 32.2277 27.4645L32.7187 28.4379H37.3113L37.8019 27.4645C37.917 27.2365 38.1524 27.0922 38.4096 27.0922H41.1255V28.4379Z" fill="#4361EE"/>
</svg>
