<svg width="101" height="100" viewBox="0 0 101 100" fill="none" xmlns="http://www.w3.org/2000/svg">
<circle cx="50.5" cy="50" r="50" fill="#FF5D00" fill-opacity="0.1"/>
<path d="M57.125 29.5C50.7161 29.5 44.9804 32.3358 41.0653 36.8031C40.481 36.7426 39.911 36.625 39.3125 36.625C29.4764 36.625 21.5 44.6014 21.5 54.4375C21.5 64.2736 29.4764 72.25 39.3125 72.25C42.3727 72.25 53.7477 72.25 57.125 72.25C68.9311 72.25 78.5 62.6811 78.5 50.875C78.5 39.0689 68.9311 29.5 57.125 29.5ZM39.3125 68.6875C31.4536 68.6875 25.0625 62.2964 25.0625 54.4375C25.0625 46.5786 31.4536 40.1875 39.3125 40.1875C40.9085 40.1875 42.476 40.4618 43.9794 41.0069C44.7987 41.2313 45.7784 41.6766 46.7724 42.2965C46.8044 42.3143 46.8365 42.3321 46.865 42.3499L58.0726 49.3645C58.9027 49.8846 59.1592 50.9854 58.6355 51.8191C58.1154 52.6563 57.0181 52.9092 56.1774 52.3855L45.0517 45.4208C45.0161 45.403 44.9804 45.3816 44.9484 45.3603C44.2216 44.9007 43.5305 44.5729 42.8964 44.3984C35.4543 41.7443 28.625 47.3659 28.625 54.4375C28.625 60.3299 33.4201 65.125 39.3125 65.125C39.9146 65.125 40.5095 65.0609 41.0902 64.9647C41.9915 66.0014 42.9961 66.9526 44.1504 67.8254C42.6185 68.3776 40.9904 68.6875 39.3125 68.6875ZM57.125 68.6875C53.2704 68.6875 49.601 67.4691 46.5123 65.1642C45.3118 64.2807 44.3 63.3295 43.4379 62.2679C43.4058 62.2323 43.3738 62.1966 43.3452 62.1646L37.9338 55.5668C37.3104 54.8044 37.4208 53.6822 38.1832 53.0588C38.9384 52.4318 40.0642 52.5458 40.6912 53.3082L45.9993 59.7777C46.0421 59.824 46.0848 59.8703 46.124 59.9202C46.808 60.7823 47.6274 61.5625 48.632 62.3035C51.1115 64.1524 54.047 65.125 57.125 65.125C64.9839 65.125 71.375 58.7339 71.375 50.875C71.375 43.0161 64.9839 36.625 57.125 36.625C54.0363 36.625 51.1436 37.6011 48.7638 39.3396L48.7531 39.3325C48.6961 39.2969 48.6391 39.2612 48.5821 39.2292C47.4599 38.5345 46.3271 38.0215 45.2084 37.6688C48.4183 34.7404 52.6006 33.0625 57.125 33.0625C66.9468 33.0625 74.9375 41.0532 74.9375 50.875C74.9375 60.6968 66.9468 68.6875 57.125 68.6875Z" fill="#FF5D00"/>
</svg>
