<svg width="50" height="50" viewBox="0 0 50 50" fill="none" xmlns="http://www.w3.org/2000/svg">
<g clip-path="url(#clip0_17275_18476)">
<path d="M25.1844 49.6602L10.6652 45.6714L7.42969 9.75781H42.9826L39.7436 45.6658L25.1844 49.6602Z" fill="#264DE4"/>
<path d="M36.9677 43.3803L39.7356 12.6953H25.2031V46.6081L36.9677 43.3803Z" fill="#2965F1"/>
<path d="M14.8516 26.0156L15.2505 30.4202H25.2106V26.0156H14.8516Z" fill="#EBEBEB"/>
<path d="M14.0469 17.1016L14.4515 21.5063H25.2075V17.1016H14.0469Z" fill="#EBEBEB"/>
<path d="M25.2066 37.4574L25.1871 37.4625L20.2301 36.1379L19.9133 32.625H15.4453L16.0689 39.5409L25.1861 42.0457L25.2066 42.0401V37.4574Z" fill="#EBEBEB"/>
<path d="M15.7969 0H21.1876V2.23092H18.0512V4.46184H21.1876V6.69276H15.7969V0Z" fill="black"/>
<path d="M22.2656 0H27.6564V1.93993H24.5199V2.32792H27.6564V6.78975H22.2656V4.75283H25.4021V4.36484H22.2656V0Z" fill="black"/>
<path d="M28.7344 0H34.1251V1.93993H30.9887V2.32792H34.1251V6.78975H28.7344V4.75283H31.8708V4.36484H28.7344V0Z" fill="black"/>
<path d="M35.5334 26.0167L36.3369 17.1016H25.1875V21.5063H31.4592L31.0542 26.0167H25.1875V30.4213H30.6682L30.1516 36.1338L25.1875 37.4598V42.0423L34.312 39.5397L34.3789 38.7955L35.4248 27.1995L35.5334 26.0167Z" fill="white"/>
</g>
<defs>
<clipPath id="clip0_17275_18476">
<rect width="50" height="50" fill="white"/>
</clipPath>
</defs>
</svg>
