<svg width="440" height="570" viewBox="0 0 440 570" fill="none" xmlns="http://www.w3.org/2000/svg">
<rect x="401.709" y="330.492" width="289.626" height="305.878" rx="25.5" transform="rotate(62.4899 401.709 330.492)" fill="url(#paint0_linear_16876_25393)" stroke="url(#paint1_linear_16876_25393)"/>
<rect x="52.5781" y="228.06" width="290.626" height="306.878" rx="26" transform="rotate(53.1783 52.5781 228.06)" fill="url(#paint2_linear_16876_25393)"/>
<path d="M317.029 532.941L456.248 486.442L454.475 578.733L-6.44008 569.876L-2.83532 382.283C46.6798 361.491 149.953 318.184 166.925 311.285C183.897 304.385 195.206 317.515 198.738 324.942C246.274 407.142 279.281 515.155 285.043 528.312C289.652 538.837 308.287 535.783 317.029 532.941Z" fill="#4361EE"/>
<g filter="url(#filter0_f_16876_25393)">
<circle cx="105.752" cy="405.001" r="151" transform="rotate(91.1009 105.752 405.001)" fill="#4158FF"/>
</g>
<defs>
<filter id="filter0_f_16876_25393" x="-299.25" y="0" width="810" height="810.001" filterUnits="userSpaceOnUse" color-interpolation-filters="sRGB">
<feFlood flood-opacity="0" result="BackgroundImageFix"/>
<feBlend mode="normal" in="SourceGraphic" in2="BackgroundImageFix" result="shape"/>
<feGaussianBlur stdDeviation="127" result="effect1_foregroundBlur_16876_25393"/>
</filter>
<linearGradient id="paint0_linear_16876_25393" x1="401.922" y1="493.294" x2="1061.57" y2="346.547" gradientUnits="userSpaceOnUse">
<stop/>
<stop offset="1" stop-color="#4361EE"/>
</linearGradient>
<linearGradient id="paint1_linear_16876_25393" x1="737.002" y1="483.734" x2="376.588" y2="363.756" gradientUnits="userSpaceOnUse">
<stop/>
<stop offset="1" stop-color="#F6F6F6"/>
</linearGradient>
<linearGradient id="paint2_linear_16876_25393" x1="28.241" y1="319.315" x2="359.067" y2="266.483" gradientUnits="userSpaceOnUse">
<stop/>
<stop offset="1" stop-color="#4361EE"/>
</linearGradient>
</defs>
</svg>
