<svg width="89" height="89" viewBox="0 0 89 89" fill="none" xmlns="http://www.w3.org/2000/svg">
<g clip-path="url(#clip0_5784_3470)">
<path d="M66.9959 0H22.0041C9.85156 0 0 9.85156 0 22.0041V66.9959C0 79.1484 9.85156 89 22.0041 89H66.9959C79.1484 89 89 79.1484 89 66.9959V22.0041C89 9.85156 79.1484 0 66.9959 0Z" fill="url(#paint0_linear_5784_3470)"/>
<path d="M66.7505 52.8216C66.7492 53.0757 66.6967 53.327 66.5961 53.5604C66.4955 53.7938 66.3489 54.0045 66.165 54.18C65.9887 54.3628 65.7778 54.5087 65.5446 54.6093C65.3114 54.7098 65.0605 54.7629 64.8066 54.7655H56.9488C56.9772 54.5599 56.9909 54.3525 56.9898 54.1449C56.9912 51.0596 55.7701 48.0994 53.5938 45.9124C54.7791 45.2465 56.1162 44.8976 57.4758 44.8994H58.8049C60.9082 44.8994 62.9256 45.7333 64.4151 47.2183C65.9045 48.7034 66.7443 50.7183 66.7505 52.8216Z" fill="white"/>
<path d="M58.1396 43.1834C60.5164 43.1834 62.4432 41.2566 62.4432 38.8798C62.4432 36.503 60.5164 34.5762 58.1396 34.5762C55.7627 34.5762 53.8359 36.503 53.8359 38.8798C53.8359 41.2566 55.7627 43.1834 58.1396 43.1834Z" fill="white"/>
<path d="M32.0166 54.1215C32.0164 54.3288 32.0282 54.5361 32.0517 54.7421H24.1705C23.6612 54.7421 23.1727 54.5398 22.8125 54.1796C22.4523 53.8194 22.25 53.3309 22.25 52.8216C22.2485 51.7772 22.4531 50.7428 22.8522 49.7778C23.2514 48.8127 23.8371 47.9359 24.5758 47.1977C25.3146 46.4595 26.1918 45.8744 27.1572 45.476C28.1226 45.0776 29.1571 44.8737 30.2015 44.876H31.5247C32.8843 44.8742 34.2214 45.2231 35.4068 45.889C33.2321 48.0765 32.013 51.0368 32.0166 54.1215Z" fill="white"/>
<path d="M30.8661 43.1834C33.2429 43.1834 35.1697 41.2566 35.1697 38.8798C35.1697 36.503 33.2429 34.5762 30.8661 34.5762C28.4893 34.5762 26.5625 36.503 26.5625 38.8798C26.5625 41.2566 28.4893 43.1834 30.8661 43.1834Z" fill="white"/>
<path d="M43.72 44.7578H45.2833C47.768 44.7578 50.1509 45.7448 51.9078 47.5018C53.6647 49.2587 54.6518 51.6416 54.6518 54.1262C54.6518 54.7257 54.4136 55.3005 53.9898 55.7244C53.5659 56.1482 52.9911 56.3864 52.3916 56.3864H36.6117C36.0123 56.3864 35.4374 56.1482 35.0135 55.7244C34.5897 55.3005 34.3516 54.7257 34.3516 54.1262C34.3516 51.6416 35.3386 49.2587 37.0955 47.5018C38.8524 45.7448 41.2353 44.7578 43.72 44.7578Z" fill="white"/>
<path d="M44.5003 42.7614C47.3008 42.7614 49.571 40.4912 49.571 37.6908C49.571 34.8903 47.3008 32.6201 44.5003 32.6201C41.6999 32.6201 39.4297 34.8903 39.4297 37.6908C39.4297 40.4912 41.6999 42.7614 44.5003 42.7614Z" fill="white"/>
</g>
<defs>
<linearGradient id="paint0_linear_5784_3470" x1="6.44664" y1="6.44664" x2="82.5534" y2="82.5534" gradientUnits="userSpaceOnUse">
<stop stop-color="#002B71"/>
<stop offset="1" stop-color="#001761"/>
</linearGradient>
<clipPath id="clip0_5784_3470">
<rect width="89" height="89" fill="white"/>
</clipPath>
</defs>
</svg>
