<svg width="80" height="80" viewBox="0 0 80 80" fill="none" xmlns="http://www.w3.org/2000/svg">
<path d="M0 34.0765C0 18.0127 0 9.98079 4.99039 4.99039C9.98079 0 18.0127 0 34.0765 0H45.9235C61.9873 0 70.0192 0 75.0096 4.99039C80 9.98079 80 18.0127 80 34.0765V45.9235C80 61.9873 80 70.0192 75.0096 75.0096C70.0192 80 61.9873 80 45.9235 80H34.0765C18.0127 80 9.98079 80 4.99039 75.0096C0 70.0192 0 61.9873 0 45.9235V34.0765Z" fill="#1B1D1E"/>
<g clip-path="url(#clip0_10906_29437)">
<g clip-path="url(#clip1_10906_29437)">
<path d="M33.0823 35.5004C34.9642 35.5004 36.4932 36.4929 37.2773 38.2164L37.3361 38.352L40.4921 37.2917L40.4284 37.1319C39.2082 34.1884 36.3903 32.3633 33.0823 32.3633C30.7545 32.3633 28.8628 33.0992 27.2995 34.6145C25.746 36.1201 24.9619 38.0131 24.9619 40.2401C24.9619 42.4525 25.7509 44.3358 27.2995 45.8366C28.8628 47.3519 30.7545 48.0878 33.0823 48.0878C36.3903 48.0878 39.2033 46.2578 40.4284 43.3191L40.4921 43.1593L37.3312 42.0991L37.2773 42.2395C36.5716 43.9388 35.0034 44.9506 33.0823 44.9506C31.7738 44.9506 30.6663 44.5004 29.794 43.6096C28.907 42.7091 28.461 41.5714 28.461 40.2401C28.461 38.899 28.8972 37.7855 29.794 36.8415C30.6712 35.9507 31.7738 35.5004 33.0823 35.5004Z" fill="white"/>
<path d="M46.7847 62.2046L45.8438 59.14C54.3317 56.5935 60.0361 48.9975 60.0361 40.2396C60.0361 37.8238 59.5999 35.4613 58.7374 33.2246L61.766 32.0869C62.7707 34.6915 63.2803 37.4317 63.2803 40.2445C63.2754 50.416 56.6497 59.2417 46.7847 62.2046Z" fill="url(#paint0_linear_10906_29437)"/>
<path d="M59.1582 34.4494C56.5658 26.0933 48.8668 20.4823 39.9966 20.4823C38.791 20.4823 37.5855 20.5888 36.4093 20.797L35.8359 17.6453C37.1983 17.4032 38.5999 17.2773 39.9966 17.2773C50.2978 17.2773 59.2415 23.7986 62.2555 33.5053L59.1582 34.4494Z" fill="#69D3A7"/>
<path d="M18.2086 48.3352C17.2186 45.7499 16.7188 43.0243 16.7188 40.2406C16.7188 28.3794 25.7311 18.5564 37.6838 17.3945L38.0024 20.5801C27.7159 21.5822 19.9581 30.0351 19.9581 40.2406C19.9581 42.637 20.3894 44.985 21.2372 47.2072L18.2086 48.3352Z" fill="url(#paint1_linear_10906_29437)"/>
<path d="M52.8462 32.6543L48.3523 43.9054L43.824 32.6543H40.1191L46.4704 48.0109L41.8442 59.0974L45.0835 59.7365L56.3453 32.6543H52.8462Z" fill="#1B1E2E"/>
<path d="M42.4273 57.7017L41.7461 59.3332C41.5893 59.706 41.2316 59.9625 40.8297 59.9771C40.5504 59.9867 40.2759 59.9964 39.9917 59.9964C31.097 59.9964 23.1775 54.1143 20.7321 45.6904L17.6152 46.5715C20.4576 56.3558 29.6562 63.1917 39.9868 63.1965H39.9917C40.3151 63.1965 40.6386 63.1917 40.962 63.1772C42.6234 63.1094 44.1083 62.0782 44.7454 60.5532L45.6667 58.3407L42.4273 57.7017Z" fill="url(#paint2_linear_10906_29437)"/>
</g>
</g>
<defs>
<linearGradient id="paint0_linear_10906_29437" x1="65.0637" y1="40.385" x2="44.4294" y2="53.9088" gradientUnits="userSpaceOnUse">
<stop offset="0.081" stop-color="#69D3A7"/>
<stop offset="1" stop-color="#69D3A7" stop-opacity="0"/>
</linearGradient>
<linearGradient id="paint1_linear_10906_29437" x1="32.2482" y1="17.5686" x2="19.4489" y2="45.0475" gradientUnits="userSpaceOnUse">
<stop stop-color="#69D3A7"/>
<stop offset="0.823" stop-color="#2AB586"/>
<stop offset="1" stop-color="#1CAE7F"/>
</linearGradient>
<linearGradient id="paint2_linear_10906_29437" x1="16.6855" y1="50.7519" x2="50.8492" y2="61.6053" gradientUnits="userSpaceOnUse">
<stop offset="0.077" stop-color="#1CAE7F"/>
<stop offset="0.164" stop-color="#1CA379"/>
<stop offset="0.316" stop-color="#1C8568"/>
<stop offset="0.516" stop-color="#1B554D"/>
<stop offset="0.719" stop-color="#1B1E2E"/>
</linearGradient>
<clipPath id="clip0_10906_29437">
<rect width="45.9235" height="45.9235" fill="white" transform="translate(17.0381 17.0381)"/>
</clipPath>
<clipPath id="clip1_10906_29437">
<rect width="46.5613" height="45.9235" fill="white" transform="translate(16.7188 17.2754)"/>
</clipPath>
</defs>
</svg>
