<svg width="50" height="50" viewBox="0 0 50 50" fill="none" xmlns="http://www.w3.org/2000/svg">
<path d="M5 24.7637C5 13.718 13.9543 4.76367 25 4.76367C36.0457 4.76367 45 13.718 45 24.7637C45 35.8094 36.0457 44.7637 25 44.7637C13.9543 44.7637 5 35.8094 5 24.7637Z" fill="#4361EE"/>
<path d="M23.8031 35.7637H16.5843V15.4H23.8627C25.911 15.4 27.6743 15.8077 29.1525 16.623C30.6307 17.4318 31.7676 18.5951 32.563 20.1131C33.3651 21.6311 33.7662 23.4474 33.7662 25.562C33.7662 27.6832 33.3651 29.5061 32.563 31.0307C31.7676 32.5553 30.6241 33.7253 29.1326 34.5407C27.6478 35.356 25.8713 35.7637 23.8031 35.7637ZM20.8897 32.0748H23.6241C24.8968 32.0748 25.9674 31.8494 26.8358 31.3986C27.7108 30.9412 28.367 30.2353 28.8045 29.2807C29.2486 28.3195 29.4707 27.08 29.4707 25.562C29.4707 24.0572 29.2486 22.8276 28.8045 21.873C28.367 20.9185 27.7141 20.2158 26.8457 19.7651C25.9773 19.3143 24.9068 19.089 23.6341 19.089H20.8897V32.0748Z" fill="white"/>
</svg>
