<svg width="50" height="50" viewBox="0 0 50 50" fill="none" xmlns="http://www.w3.org/2000/svg">
<g clip-path="url(#clip0_19747_5276)">
<path d="M47.891 30.7409C41.7111 31.9697 41.285 29.9515 41.285 29.9515C47.8108 20.6131 50.5359 8.75599 48.182 5.85478C41.7617 -2.05944 30.6464 1.68405 30.4608 1.7817L30.3975 1.78984C29.1784 1.5457 27.8117 1.39922 26.2762 1.3748C23.4794 1.33004 21.3576 2.08281 19.7504 3.25876C19.7504 3.25876 -0.0800133 -4.62292 0.843804 13.1709C1.04207 16.955 6.46685 41.8086 12.942 34.3012C15.3085 31.5547 17.5948 29.2353 17.5948 29.2353C18.7296 29.9637 20.0921 30.334 21.5137 30.1997L21.6234 30.1102C21.5896 30.452 21.6065 30.7856 21.6655 31.1803C19.9993 32.9788 20.4886 33.2921 17.1519 33.9554C13.7772 34.6268 15.7599 35.819 17.0549 36.1323C18.6241 36.5107 22.2519 37.0478 24.707 33.7356L24.6099 34.1141C25.2638 34.6186 25.7236 37.3978 25.6477 39.9165C25.5717 42.4352 25.5211 44.1645 26.0357 45.5154C26.5504 46.8663 27.065 49.9059 31.4479 48.9985C35.1094 48.2417 37.0076 46.2804 37.2734 43.0089C37.459 40.6814 37.8851 41.0273 37.9104 38.948L38.2521 37.9633C38.6444 34.8099 38.3153 33.7926 40.5721 34.2646L41.1205 34.3094C42.7826 34.3826 44.955 34.053 46.2289 33.4793C48.9666 32.2545 50.5991 30.1997 47.891 30.7409Z" fill="#336791"/>
<path d="M24.2089 32.5251C24.2215 32.1182 24.5717 31.7967 24.9935 31.8089C25.4153 31.8211 25.7486 32.1589 25.7359 32.5658C25.6473 35.589 25.6642 38.6205 25.7781 41.0456C25.8836 43.2306 26.065 44.8745 26.3181 45.4849C26.588 46.1318 27.0056 47.0881 27.8071 47.735C28.5875 48.3698 29.7897 48.7564 31.7049 48.3617C33.3796 48.0158 34.5059 47.5234 35.2567 46.7707C35.9991 46.0261 36.421 44.9722 36.6825 43.4992C36.8766 42.425 37.1423 40.5492 37.3828 38.6815C37.6865 36.3459 37.9649 33.9859 38.024 33.2249C38.0535 32.818 38.4205 32.5129 38.8423 32.5454C39.2641 32.5739 39.5805 32.9279 39.5468 33.3348C39.4877 34.0754 39.2093 36.4639 38.8929 38.8687C38.6398 40.7974 38.3699 42.7098 38.1842 43.7474C37.8679 45.5093 37.3321 46.8073 36.3493 47.792C35.3706 48.7726 33.9997 49.3911 32.0128 49.8021C29.5451 50.3107 27.9168 49.7533 26.8158 48.8581C25.7317 47.9792 25.2171 46.8154 24.8923 46.0301C24.5717 45.2611 24.3565 43.4463 24.2426 41.1066C24.133 38.6611 24.1203 35.589 24.2089 32.5251Z" fill="white"/>
<path d="M19.999 2.44263C20.3913 2.59318 20.5812 3.02043 20.4251 3.39885C20.269 3.77726 19.8261 3.96037 19.4338 3.80982C19.3832 3.78947 0.695906 -3.57544 1.56067 13.0587C1.66612 15.1135 3.35346 23.5201 5.91821 29.3835C6.72813 31.2309 7.6182 32.8097 8.56311 33.8188C9.35194 34.6651 10.1576 35.072 10.9338 34.8035C11.3641 34.6529 11.8239 34.3152 12.309 33.7537C14.6839 30.9989 16.8437 28.822 16.8522 28.818C17.1432 28.525 17.6241 28.5128 17.9278 28.7935C18.2315 29.0743 18.2442 29.5382 17.9531 29.8311C17.9489 29.8352 15.8398 31.9552 13.4817 34.6936C12.811 35.4749 12.1276 35.9591 11.44 36.1951C9.98048 36.6956 8.63904 36.1096 7.42416 34.8075C6.36114 33.6723 5.38248 31.9511 4.51351 29.9532C1.87704 23.9351 0.143304 15.26 0.0336268 13.1279C-0.949247 -5.81746 19.94 2.41822 19.999 2.44263Z" fill="white"/>
<path d="M30.8359 2.32957L29.7012 1.13329C29.794 1.10073 29.8868 1.07225 29.9796 1.04784C30.2285 0.970525 30.4984 0.893214 30.7895 0.811834C31.2156 0.689763 31.8399 0.531072 32.6034 0.388656C36.4126 -0.32342 43.8453 -0.709976 48.7428 5.32844C50.1264 7.03335 50.0125 11.2529 48.5825 16.2497C47.317 20.6727 45.0348 25.7711 41.8795 30.2877C41.6433 30.6255 41.1666 30.715 40.8165 30.4871C40.4664 30.2593 40.3736 29.7995 40.6098 29.4617C43.6723 25.0794 45.8827 20.1356 47.1103 15.855C48.418 11.2895 48.6246 7.56639 47.5405 6.23176C43.145 0.815902 36.3661 1.18211 32.886 1.83722C32.1731 1.9715 31.6036 2.11392 31.2156 2.22378L30.8359 2.32957Z" fill="white"/>
<path d="M41.9685 29.6494C41.9769 29.6698 41.9812 29.6901 41.9854 29.7105C41.9854 29.7145 42.2469 31.0288 47.6928 29.9465C48.4647 29.7918 49.0131 29.8244 49.3675 29.9912C49.8273 30.2028 50.0255 30.5568 49.996 31.0125C49.9791 31.2892 49.8441 31.5863 49.6206 31.8833C49.1059 32.5628 47.929 33.4417 46.499 34.0806C45.4275 34.5607 43.795 34.8822 42.2975 34.9635C41.4159 35.0124 40.5722 34.9798 39.9015 34.8496C39.0578 34.6869 38.4167 34.3491 38.1509 33.7998C38.0792 33.6533 38.037 33.4946 38.0286 33.3237C37.8598 30.4673 39.3025 29.9668 40.3107 29.6901C40.2052 29.5436 40.0618 29.3687 39.9015 29.1774C39.3911 28.563 38.7372 27.7736 38.2184 26.5651C38.1382 26.382 37.9062 25.9751 37.5941 25.438C36.2737 23.1553 33.6752 18.655 34.1857 15.5828C34.5484 13.3897 36.2822 11.9329 40.6144 12.3683L40.5722 12.2463C40.3655 11.6807 40.0365 10.9401 39.5598 10.11C37.67 6.78972 33.5487 2.15918 26.2299 2.04525C15.0639 1.87028 15.4309 15.4526 15.4309 15.4893C15.4394 15.8962 15.1019 16.2298 14.68 16.238C14.2582 16.2461 13.9123 15.9206 13.9039 15.5137C13.9039 15.4689 13.4905 0.372889 26.251 0.57227C34.308 0.69841 38.8301 5.7684 40.897 9.39795C41.4117 10.3013 41.7787 11.1232 42.0107 11.762C42.2722 12.4782 42.3692 13.0397 42.3271 13.2879C42.268 13.6541 42.0571 13.882 41.6943 13.9512L41.4201 13.9552C37.4464 13.3408 35.9447 14.2808 35.6916 15.8107C35.2656 18.3864 37.6953 22.5856 38.9271 24.7218C39.2603 25.2996 39.5134 25.7391 39.6273 26.0077C40.066 27.029 40.6397 27.7207 41.0869 28.266C41.5045 28.7583 41.8335 29.1571 41.9685 29.6494ZM48.0007 31.3869C43.9638 32.1926 42.0824 31.6025 41.2176 30.9678C41.0995 31.0044 40.973 31.037 40.838 31.0736C40.298 31.2201 39.4586 31.4479 39.5472 33.1976C39.6104 33.2627 39.8467 33.3319 40.1926 33.401C40.7452 33.5068 41.4539 33.5313 42.2089 33.4906C43.5293 33.4173 44.9509 33.1447 45.8578 32.7378C46.7901 32.3187 47.5705 31.8141 48.0513 31.3747L48.0007 31.3869Z" fill="white"/>
<path d="M22.1885 31.6025C21.8764 31.9402 21.6191 32.2535 21.3997 32.5221C20.4632 33.6695 20.1722 34.0276 17.2657 34.6054C16.7427 34.7112 16.3883 34.8129 16.169 34.9146C16.4389 35.1018 16.8439 35.2564 17.1982 35.3419C17.9154 35.5168 19.1049 35.7244 20.3789 35.5168C21.6191 35.3134 22.9563 34.699 24.0404 33.2341C24.0741 33.1853 24.1037 33.1324 24.129 33.0795C24.2387 32.8232 24.2133 32.5017 24.1037 32.1965C23.9856 31.871 23.7704 31.5862 23.5215 31.4112C23.4625 31.3705 23.4034 31.338 23.3402 31.3136L23.3022 31.2973C23.1461 31.2362 22.9732 31.1711 22.8255 31.1834C22.6652 31.1996 22.4627 31.3054 22.1885 31.6025ZM20.1975 31.6065C20.4042 31.3543 20.6446 31.0613 21.0074 30.6666C21.0369 30.63 21.0707 30.5933 21.1044 30.5608C21.6655 29.9749 22.2012 29.7551 22.6947 29.7144C23.1841 29.6737 23.5637 29.808 23.8843 29.9382C23.897 29.9423 23.9096 29.9464 23.9265 29.9545C24.091 30.0196 24.2513 30.1091 24.4074 30.2149C24.9094 30.5608 25.3228 31.1101 25.5463 31.7083C25.7741 32.3308 25.8121 33.0266 25.5421 33.6451C25.4746 33.7997 25.3903 33.9462 25.2848 34.0886C23.9181 35.936 22.2139 36.7091 20.6362 36.9695C19.0881 37.2258 17.6791 36.9776 16.827 36.7742C16.2069 36.6236 15.4392 36.29 14.9878 35.8831C14.7221 35.643 14.5407 35.3582 14.4901 35.0408C14.431 34.6624 14.5491 34.2961 14.9077 33.9706C15.2536 33.6573 15.8948 33.3725 16.9536 33.1609C19.3116 32.693 19.5226 32.4366 20.1975 31.6065Z" fill="white"/>
<path d="M22.2686 30.9619C22.3319 31.3647 22.045 31.7431 21.6274 31.8001C21.2098 31.8571 20.8175 31.5844 20.7584 31.1816C20.7415 31.084 20.7331 30.9863 20.7247 30.8846C20.4716 30.8764 20.2227 30.8602 19.978 30.8235C18.3413 30.6038 16.8607 29.8063 15.747 28.6263C14.646 27.4625 13.9036 25.9245 13.7307 24.2073C13.6674 23.597 13.68 22.9622 13.7728 22.3234C14.1483 19.7436 14.0048 17.4365 13.9331 16.2402C13.912 15.9147 13.8994 15.6705 13.8994 15.4834C13.9036 14.9992 15.1649 13.9331 16.8269 13.2739C17.5778 12.9769 18.4172 12.7287 19.2482 12.6066C20.1257 12.4804 21.0115 12.4926 21.8088 12.7327C23.0574 13.1111 24.0487 14.0023 24.4284 15.7072C25.7993 21.8148 24.5718 24.4393 23.6142 26.4941C23.4497 26.8481 23.2936 27.1818 23.1755 27.4829C23.1713 27.5032 23.1629 27.5195 23.1544 27.5399C22.7537 28.5815 23.34 27.0556 23.0363 27.8328C22.5596 29.0861 22.142 30.1603 22.2686 30.9619ZM20.8892 29.4157C21.0537 28.7606 21.3237 28.0688 21.6105 27.3242C21.8383 26.7383 21.2435 28.2723 21.7202 27.0312C21.7286 27.0109 21.7371 26.9905 21.7455 26.9702C21.8931 26.5918 22.0534 26.254 22.218 25.896C23.0869 24.0364 24.1921 21.6601 22.9309 16.0286C22.6862 14.9341 22.0914 14.3725 21.349 14.1487C20.7922 13.9819 20.1383 13.9778 19.4676 14.0755C18.7505 14.1813 18.0334 14.3929 17.3922 14.6452C16.2659 15.0887 15.4138 15.463 15.4138 15.4956C15.4138 15.6014 15.4264 15.8414 15.4475 16.1629C15.5234 17.4039 15.6711 19.8087 15.2788 22.535C15.2029 23.068 15.1902 23.5848 15.2408 24.0812C15.38 25.4647 15.979 26.7057 16.8691 27.6456C17.7465 28.5734 18.9066 29.2041 20.1805 29.375C20.4167 29.3994 20.653 29.4157 20.8892 29.4157Z" fill="white"/>
<path d="M19.6442 15.3856C19.6105 15.6257 20.104 16.2727 20.7452 16.3581C21.3864 16.4436 21.939 15.939 21.9727 15.6989C22.0065 15.4589 21.5129 15.1903 20.8717 15.1049C20.2306 15.0194 19.678 15.1456 19.6442 15.3856Z" fill="white"/>
<path d="M19.8975 15.4207C19.8891 15.4736 19.9777 15.612 20.1253 15.7625C20.2898 15.9293 20.5218 16.0799 20.7791 16.1165H20.7834C21.0365 16.1491 21.2727 16.0677 21.4499 15.9497C21.6144 15.8439 21.7156 15.73 21.7283 15.6649C21.7283 15.6527 21.665 15.616 21.5595 15.5591C21.3866 15.4655 21.1335 15.3882 20.8424 15.3475H20.834C20.5471 15.3109 20.2814 15.319 20.0916 15.3638C19.9734 15.3922 19.8975 15.4126 19.8975 15.4207ZM19.7583 16.1002C19.5094 15.848 19.3702 15.5469 19.3955 15.3597V15.3515C19.4293 15.1196 19.6444 14.9609 19.9734 14.8836C20.2223 14.8266 20.5513 14.8144 20.9015 14.8592C20.9057 14.8592 20.9099 14.8592 20.9141 14.8592C21.2685 14.908 21.5848 15.0057 21.8084 15.1278C22.1037 15.2864 22.2682 15.5021 22.2345 15.73C22.2092 15.909 22.0193 16.1694 21.7367 16.3525C21.4709 16.5275 21.1082 16.6536 20.7159 16.6007H20.7116C20.3236 16.5519 19.9903 16.3362 19.7583 16.1002Z" fill="white"/>
<path d="M39.2345 14.8934C39.2682 15.1335 38.7747 15.7805 38.1335 15.8659C37.4881 15.9514 36.9397 15.4468 36.9059 15.2068C36.8722 14.9667 37.3657 14.6981 38.0111 14.6127C38.6481 14.5272 39.1965 14.6534 39.2345 14.8934Z" fill="white"/>
<path d="M39.3573 14.8789C39.3784 15.0335 39.2519 15.298 39.0283 15.5258C38.8132 15.7456 38.501 15.9449 38.1467 15.9897H38.1425C37.7881 16.0345 37.4591 15.9205 37.2144 15.7618C36.9613 15.5991 36.7968 15.3753 36.7715 15.2247C36.7462 15.0498 36.8854 14.8789 37.1343 14.7446C37.3452 14.6306 37.6447 14.5371 37.9822 14.4923C38.3196 14.4475 38.636 14.4597 38.8722 14.5126C39.1506 14.5737 39.332 14.6998 39.3573 14.8789ZM38.8427 15.3549C39.0157 15.18 39.1169 15.0009 39.1042 14.9114C39.0958 14.8463 38.9861 14.7893 38.8174 14.7486C38.6107 14.6998 38.3281 14.6917 38.0201 14.7324C37.7164 14.7731 37.4464 14.8585 37.2608 14.9562C37.109 15.0375 37.0204 15.123 37.0288 15.1881C37.0415 15.2776 37.168 15.4282 37.3621 15.5543C37.5603 15.6845 37.8303 15.7781 38.1172 15.7415H38.1214C38.404 15.7049 38.6613 15.538 38.8427 15.3549Z" fill="white"/>
<path d="M40.7704 13.2584C40.7493 12.8515 41.0741 12.5057 41.496 12.4853C41.9178 12.465 42.2763 12.7783 42.2974 13.1852C42.3607 14.3245 42.2173 15.2278 42.0654 16.1759C41.9515 16.8839 41.8334 17.6245 41.8081 18.4505C41.7828 19.2358 41.8883 20.1066 42.0022 21.0018C42.2974 23.3577 42.6096 25.8805 40.7957 28.4887C40.5595 28.8265 40.087 28.916 39.7369 28.6922C39.3868 28.4643 39.294 28.0086 39.526 27.6709C41.0193 25.5184 40.7409 23.2763 40.4793 21.1767C40.3612 20.2408 40.2473 19.3294 40.2811 18.4098C40.3106 17.4576 40.4329 16.6967 40.551 15.9602C40.6945 15.0732 40.8252 14.235 40.7704 13.2584Z" fill="white"/>
</g>
<defs>
<clipPath id="clip0_19747_5276">
<rect width="50" height="50" fill="white"/>
</clipPath>
</defs>
</svg>
