<svg width="50" height="50" viewBox="0 0 50 50" fill="none" xmlns="http://www.w3.org/2000/svg">
<path d="M47.3994 7.00242C44.7668 8.36846 31.1288 13.9516 28.2253 15.4585C25.3219 16.9653 23.709 16.9506 21.4153 15.8595C19.1217 14.7678 4.60848 8.93061 1.99439 7.68678C-0.620082 6.44315 -0.674619 5.58649 1.89322 4.58517C4.46125 3.58404 18.8949 -2.05339 21.9455 -3.14316C24.9957 -4.23273 26.0538 -4.27187 28.6496 -3.32504C31.2456 -2.37821 44.8022 2.99369 47.3674 3.92939C49.9335 4.8649 50.032 5.63637 47.3994 7.00242Z" fill="#C6302B"/>
<path d="M38.926 -0.410294L34.6845 0.0281072L33.735 2.3028L32.2014 -0.235509L27.3037 -0.673717L30.9583 -1.98585L29.8618 -4L33.2833 -2.66772L36.5089 -3.71912L35.637 -1.63647L38.926 -0.410294ZM33.4818 10.6251L25.5659 7.3564L36.9087 5.62295L33.4818 10.6251ZM22.507 0.854066C25.8554 0.854066 28.5697 1.90162 28.5697 3.19361C28.5697 4.48598 25.8554 5.53335 22.507 5.53335C19.1587 5.53335 16.4444 4.48579 16.4444 3.19361C16.4444 1.90162 19.1587 0.854066 22.507 0.854066Z" fill="white"/>
<path d="M32.8889 -3.99981L39.6021 -1.35866L32.8947 1.28L32.8889 -3.99981Z" fill="#621B1C"/>
<path d="M47.4005 15.0435C44.7677 16.4095 31.1293 21.9926 28.2258 23.5003C25.3223 25.0072 23.7093 24.9924 21.4155 23.9007C19.1217 22.8096 4.60823 16.972 1.99376 15.7284C0.687198 15.1062 3.51721e-08 14.5819 3.51721e-08 14.0865V9.12112C3.51721e-08 9.12112 18.8951 5.02625 21.9454 3.93686C24.9956 2.8471 26.054 2.80796 28.6498 3.7546C31.2461 4.70143 46.768 7.48897 49.3333 8.42467L49.3322 13.3194C49.3326 13.8096 48.7406 14.348 47.4005 15.0435Z" fill="#912626"/>
<path d="M32.8889 6.00473L40.3159 3.07982L40.3216 8.35962L39.5934 8.64319L32.8889 6.00473Z" fill="#9A2928"/>
<path d="M47.3995 21.1623C44.7669 22.5283 31.1289 28.1111 28.2254 29.6185C25.322 31.1254 23.7091 31.1106 21.4154 30.0189C19.1216 28.928 4.60858 23.0905 1.9943 21.8468C-0.619986 20.603 -0.674715 19.7465 1.89332 18.745C4.46135 17.7441 18.895 12.1059 21.9456 11.0165C24.9958 9.92713 26.0539 9.88761 28.6497 10.8344C31.2457 11.7811 44.8023 17.153 47.3675 18.0887C49.9336 19.025 50.032 19.7962 47.3995 21.1623Z" fill="#C6302B"/>
<path d="M47.4005 29.2035C44.7677 30.5699 31.1293 36.1527 28.2258 37.6603C25.3223 39.167 23.7093 39.1524 21.4155 38.0607C19.1217 36.9696 4.60823 31.1323 1.99376 29.8881C0.687198 29.2664 3.51721e-08 28.7423 3.51721e-08 28.2463V23.2811C3.51721e-08 23.2811 18.8951 19.1861 21.9454 18.0965C24.9956 17.0069 26.054 16.9674 28.6498 17.9142C31.2461 18.8611 46.768 21.6486 49.3333 22.5843L49.3322 27.4792C49.3326 27.9698 48.7406 28.5082 47.4005 29.2035Z" fill="#912626"/>
<path d="M47.3995 35.322C44.7669 36.6877 31.1289 42.2708 28.2254 43.7777C25.322 45.2851 23.7091 45.2704 21.4154 44.1787C19.1216 43.0878 4.60858 37.25 1.9943 36.0066C-0.619986 34.7624 -0.674715 33.9061 1.89332 32.905C4.46135 31.9035 18.8948 26.2656 21.9456 25.1761C24.9958 24.0869 26.0539 24.0472 28.6497 24.9942C31.2457 25.9408 44.8023 31.3131 47.3675 32.2484C49.9336 33.1849 50.032 33.956 47.3995 35.322Z" fill="#C6302B"/>
<path d="M47.4005 43.3632C44.7677 44.7295 31.1293 50.3124 28.2258 51.8195C25.3223 53.3267 23.7093 53.3122 21.4155 52.2205C19.1219 51.1288 4.60823 45.292 1.99376 44.0478C0.687198 43.4262 3.51721e-08 42.9012 3.51721e-08 42.4055V37.4409C3.51721e-08 37.4409 18.8951 33.3456 21.9454 32.2561C24.9956 31.1665 26.054 31.1272 28.6498 32.0738C31.2459 33.0208 46.7678 35.8089 49.3333 36.7445L49.3322 41.6388C49.3326 42.1296 48.7406 42.6679 47.4005 43.3632Z" fill="#912626"/>
</svg>
