<svg width="72" height="62" viewBox="0 0 72 62" fill="none" xmlns="http://www.w3.org/2000/svg">
<path d="M2.63415 25.2128V26.0908H1.7561V25.2128H2.63415ZM2.63415 24.3347V25.2128H1.7561V24.3347H2.63415ZM2.63415 23.4567V24.3347H1.7561V23.4567H2.63415ZM2.63415 22.5786V23.4567H1.7561V22.5786H2.63415ZM2.63415 21.7006V22.5786H1.7561V21.7006H2.63415ZM2.63415 20.8225V21.7006H1.7561V20.8225H2.63415ZM2.63415 19.9445V20.8225H1.7561V19.9445H2.63415ZM2.63415 19.0664V19.9445H1.7561V19.0664H2.63415ZM2.63415 18.1884V19.0664H1.7561V18.1884H2.63415ZM2.63415 17.3103V18.1884H1.7561V17.3103H2.63415ZM2.63415 16.4323V17.3103H1.7561V16.4323H2.63415ZM2.63415 15.5542V16.4323H1.7561V15.5542H2.63415ZM2.63415 14.6762V15.5542H1.7561V14.6762H2.63415ZM2.63415 13.7981V14.6762H1.7561V13.7981H2.63415ZM2.63415 12.9201V13.7981H1.7561V12.9201H2.63415ZM3.51219 12.9201V13.7981H2.63415V12.9201H3.51219ZM3.51219 13.7981V14.6762H2.63415V13.7981H3.51219ZM3.51219 14.6762V15.5542H2.63415V14.6762H3.51219ZM3.51219 15.5542V16.4323H2.63415V15.5542H3.51219ZM3.51219 16.4323V17.3103H2.63415V16.4323H3.51219ZM3.51219 17.3103V18.1884H2.63415V17.3103H3.51219ZM3.51219 18.1884V19.0664H2.63415V18.1884H3.51219ZM4.39024 19.0664V19.9445H3.51219V19.0664H4.39024ZM4.39024 19.9445V20.8225H3.51219V19.9445H4.39024ZM4.39024 20.8225V21.7006H3.51219V20.8225H4.39024ZM4.39024 21.7006V22.5786H3.51219V21.7006H4.39024ZM4.39024 22.5786V23.4567H3.51219V22.5786H4.39024ZM4.39024 23.4567V24.3347H3.51219V23.4567H4.39024ZM4.39024 24.3347V25.2128H3.51219V24.3347H4.39024ZM4.39024 25.2128V26.0908H3.51219V25.2128H4.39024ZM5.26829 25.2128V26.0908H4.39024V25.2128H5.26829ZM6.14634 25.2128V26.0908H5.26829V25.2128H6.14634ZM6.14634 24.3347V25.2128H5.26829V24.3347H6.14634ZM6.14634 23.4567V24.3347H5.26829V23.4567H6.14634ZM6.14634 22.5786V23.4567H5.26829V22.5786H6.14634ZM6.14634 21.7006V22.5786H5.26829V21.7006H6.14634ZM6.14634 20.8225V21.7006H5.26829V20.8225H6.14634ZM6.14634 19.9445V20.8225H5.26829V19.9445H6.14634ZM6.14634 19.0664V19.9445H5.26829V19.0664H6.14634ZM5.26829 19.0664V19.9445H4.39024V19.0664H5.26829ZM5.26829 18.1884V19.0664H4.39024V18.1884H5.26829ZM5.26829 19.9445V20.8225H4.39024V19.9445H5.26829ZM5.26829 20.8225V21.7006H4.39024V20.8225H5.26829ZM5.26829 21.7006V22.5786H4.39024V21.7006H5.26829ZM5.26829 22.5786V23.4567H4.39024V22.5786H5.26829ZM5.26829 23.4567V24.3347H4.39024V23.4567H5.26829ZM5.26829 24.3347V25.2128H4.39024V24.3347H5.26829ZM3.51219 25.2128V26.0908H2.63415V25.2128H3.51219ZM3.51219 24.3347V25.2128H2.63415V24.3347H3.51219ZM3.51219 23.4567V24.3347H2.63415V23.4567H3.51219ZM3.51219 22.5786V23.4567H2.63415V22.5786H3.51219ZM3.51219 21.7006V22.5786H2.63415V21.7006H3.51219ZM3.51219 20.8225V21.7006H2.63415V20.8225H3.51219ZM3.51219 19.9445V20.8225H2.63415V19.9445H3.51219ZM3.51219 19.0664V19.9445H2.63415V19.0664H3.51219ZM2.63415 4.1396V5.01765H1.7561V4.1396H2.63415ZM2.63415 5.01765V5.8957H1.7561V5.01765H2.63415ZM2.63415 5.8957V6.77375H1.7561V5.8957H2.63415ZM2.63415 6.77375V7.6518H1.7561V6.77375H2.63415ZM2.63415 7.6518V8.52985H1.7561V7.6518H2.63415ZM2.63415 8.52985V9.40789H1.7561V8.52985H2.63415ZM2.63415 9.40789V10.2859H1.7561V9.40789H2.63415ZM2.63415 10.2859V11.164H1.7561V10.2859H2.63415ZM2.63415 11.164V12.042H1.7561V11.164H2.63415ZM2.63415 12.042V12.9201H1.7561V12.042H2.63415ZM5.26829 4.1396V5.01765H4.39024V4.1396H5.26829ZM5.26829 5.01765V5.8957H4.39024V5.01765H5.26829ZM5.26829 5.8957V6.77375H4.39024V5.8957H5.26829ZM5.26829 6.77375V7.6518H4.39024V6.77375H5.26829ZM5.26829 7.6518V8.52985H4.39024V7.6518H5.26829ZM5.26829 8.52985V9.40789H4.39024V8.52985H5.26829ZM5.26829 10.2859V11.164H4.39024V10.2859H5.26829ZM5.26829 11.164V12.042H4.39024V11.164H5.26829ZM5.26829 12.042V12.9201H4.39024V12.042H5.26829ZM5.26829 12.9201V13.7981H4.39024V12.9201H5.26829ZM5.26829 13.7981V14.6762H4.39024V13.7981H5.26829ZM5.26829 14.6762V15.5542H4.39024V14.6762H5.26829ZM5.26829 15.5542V16.4323H4.39024V15.5542H5.26829ZM6.14634 16.4323V17.3103H5.26829V16.4323H6.14634ZM6.14634 17.3103V18.1884H5.26829V17.3103H6.14634ZM6.14634 18.1884V19.0664H5.26829V18.1884H6.14634ZM6.14634 15.5542V16.4323H5.26829V15.5542H6.14634ZM6.14634 14.6762V15.5542H5.26829V14.6762H6.14634ZM6.14634 13.7981V14.6762H5.26829V13.7981H6.14634ZM6.14634 12.9201V13.7981H5.26829V12.9201H6.14634ZM6.14634 12.042V12.9201H5.26829V12.042H6.14634ZM6.14634 11.164V12.042H5.26829V11.164H6.14634ZM6.14634 10.2859V11.164H5.26829V10.2859H6.14634ZM6.14634 9.40789V10.2859H5.26829V9.40789H6.14634ZM6.14634 8.52985V9.40789H5.26829V8.52985H6.14634ZM6.14634 7.6518V8.52985H5.26829V7.6518H6.14634ZM5.26829 9.40789V10.2859H4.39024V9.40789H5.26829ZM6.14634 6.77375V7.6518H5.26829V6.77375H6.14634ZM6.14634 5.8957V6.77375H5.26829V5.8957H6.14634ZM6.14634 5.01765V5.8957H5.26829V5.01765H6.14634ZM6.14634 4.1396V5.01765H5.26829V4.1396H6.14634ZM4.39024 4.1396V5.01765H3.51219V4.1396H4.39024ZM3.51219 4.1396V5.01765H2.63415V4.1396H3.51219ZM3.51219 5.01765V5.8957H2.63415V5.01765H3.51219ZM4.39024 5.01765V5.8957H3.51219V5.01765H4.39024ZM4.39024 5.8957V6.77375H3.51219V5.8957H4.39024ZM4.39024 6.77375V7.6518H3.51219V6.77375H4.39024ZM4.39024 7.6518V8.52985H3.51219V7.6518H4.39024ZM4.39024 8.52985V9.40789H3.51219V8.52985H4.39024ZM4.39024 9.40789V10.2859H3.51219V9.40789H4.39024ZM4.39024 10.2859V11.164H3.51219V10.2859H4.39024ZM3.51219 11.164V12.042H2.63415V11.164H3.51219ZM3.51219 12.042V12.9201H2.63415V12.042H3.51219ZM3.51219 10.2859V11.164H2.63415V10.2859H3.51219ZM3.51219 9.40789V10.2859H2.63415V9.40789H3.51219ZM3.51219 8.52985V9.40789H2.63415V8.52985H3.51219ZM3.51219 7.6518V8.52985H2.63415V7.6518H3.51219ZM3.51219 6.77375V7.6518H2.63415V6.77375H3.51219ZM3.51219 5.8957V6.77375H2.63415V5.8957H3.51219ZM4.39024 11.164V12.042H3.51219V11.164H4.39024ZM4.39024 12.042V12.9201H3.51219V12.042H4.39024ZM4.39024 12.9201V13.7981H3.51219V12.9201H4.39024ZM4.39024 13.7981V14.6762H3.51219V13.7981H4.39024ZM4.39024 14.6762V15.5542H3.51219V14.6762H4.39024ZM4.39024 15.5542V16.4323H3.51219V15.5542H4.39024ZM4.39024 16.4323V17.3103H3.51219V16.4323H4.39024ZM4.39024 17.3103V18.1884H3.51219V17.3103H4.39024ZM4.39024 18.1884V19.0664H3.51219V18.1884H4.39024ZM5.26829 17.3103V18.1884H4.39024V17.3103H5.26829ZM5.26829 16.4323V17.3103H4.39024V16.4323H5.26829ZM13.1707 4.1396V5.01765H12.2927V4.1396H13.1707ZM13.1707 5.01765V5.8957H12.2927V5.01765H13.1707ZM13.1707 5.8957V6.77375H12.2927V5.8957H13.1707ZM13.1707 7.6518V8.52985H12.2927V7.6518H13.1707ZM13.1707 8.52985V9.40789H12.2927V8.52985H13.1707ZM13.1707 9.40789V10.2859H12.2927V9.40789H13.1707ZM13.1707 10.2859V11.164H12.2927V10.2859H13.1707ZM13.1707 11.164V12.042H12.2927V11.164H13.1707ZM13.1707 12.042V12.9201H12.2927V12.042H13.1707ZM13.1707 12.9201V13.7981H12.2927V12.9201H13.1707ZM14.0488 13.7981V14.6762H13.1707V13.7981H14.0488ZM14.0488 14.6762V15.5542H13.1707V14.6762H14.0488ZM14.0488 15.5542V16.4323H13.1707V15.5542H14.0488ZM14.0488 16.4323V17.3103H13.1707V16.4323H14.0488ZM14.0488 17.3103V18.1884H13.1707V17.3103H14.0488ZM14.0488 18.1884V19.0664H13.1707V18.1884H14.0488ZM14.9268 18.1884V19.0664H14.0488V18.1884H14.9268ZM14.9268 19.0664V19.9445H14.0488V19.0664H14.9268ZM14.9268 19.9445V20.8225H14.0488V19.9445H14.9268ZM14.9268 20.8225V21.7006H14.0488V20.8225H14.9268ZM14.9268 21.7006V22.5786H14.0488V21.7006H14.9268ZM14.9268 22.5786V23.4567H14.0488V22.5786H14.9268ZM14.9268 23.4567V24.3347H14.0488V23.4567H14.9268ZM14.9268 24.3347V25.2128H14.0488V24.3347H14.9268ZM14.9268 25.2128V26.0908H14.0488V25.2128H14.9268ZM14.0488 25.2128V26.0908H13.1707V25.2128H14.0488ZM14.0488 24.3347V25.2128H13.1707V24.3347H14.0488ZM14.0488 23.4567V24.3347H13.1707V23.4567H14.0488ZM14.0488 22.5786V23.4567H13.1707V22.5786H14.0488ZM14.0488 21.7006V22.5786H13.1707V21.7006H14.0488ZM14.0488 20.8225V21.7006H13.1707V20.8225H14.0488ZM14.0488 19.9445V20.8225H13.1707V19.9445H14.0488ZM13.1707 19.9445V20.8225H12.2927V19.9445H13.1707ZM13.1707 19.0664V19.9445H12.2927V19.0664H13.1707ZM14.0488 19.0664V19.9445H13.1707V19.0664H14.0488ZM13.1707 13.7981V14.6762H12.2927V13.7981H13.1707ZM13.1707 14.6762V15.5542H12.2927V14.6762H13.1707ZM13.1707 15.5542V16.4323H12.2927V15.5542H13.1707ZM13.1707 16.4323V17.3103H12.2927V16.4323H13.1707ZM13.1707 17.3103V18.1884H12.2927V17.3103H13.1707ZM13.1707 18.1884V19.0664H12.2927V18.1884H13.1707ZM13.1707 6.77375V7.6518H12.2927V6.77375H13.1707ZM13.1707 20.8225V21.7006H12.2927V20.8225H13.1707ZM13.1707 21.7006V22.5786H12.2927V21.7006H13.1707ZM13.1707 22.5786V23.4567H12.2927V22.5786H13.1707ZM13.1707 23.4567V24.3347H12.2927V23.4567H13.1707ZM13.1707 24.3347V25.2128H12.2927V24.3347H13.1707ZM13.1707 25.2128V26.0908H12.2927V25.2128H13.1707ZM15.8049 25.2128V26.0908H14.9268V25.2128H15.8049ZM16.6829 25.2128V26.0908H15.8049V25.2128H16.6829ZM16.6829 24.3347V25.2128H15.8049V24.3347H16.6829ZM16.6829 23.4567V24.3347H15.8049V23.4567H16.6829ZM16.6829 22.5786V23.4567H15.8049V22.5786H16.6829ZM16.6829 21.7006V22.5786H15.8049V21.7006H16.6829ZM16.6829 20.8225V21.7006H15.8049V20.8225H16.6829ZM16.6829 19.9445V20.8225H15.8049V19.9445H16.6829ZM16.6829 19.0664V19.9445H15.8049V19.0664H16.6829ZM16.6829 18.1884V19.0664H15.8049V18.1884H16.6829ZM16.6829 17.3103V18.1884H15.8049V17.3103H16.6829ZM16.6829 16.4323V17.3103H15.8049V16.4323H16.6829ZM16.6829 15.5542V16.4323H15.8049V15.5542H16.6829ZM16.6829 14.6762V15.5542H15.8049V14.6762H16.6829ZM16.6829 13.7981V14.6762H15.8049V13.7981H16.6829ZM16.6829 12.9201V13.7981H15.8049V12.9201H16.6829ZM16.6829 12.042V12.9201H15.8049V12.042H16.6829ZM16.6829 11.164V12.042H15.8049V11.164H16.6829ZM16.6829 10.2859V11.164H15.8049V10.2859H16.6829ZM16.6829 9.40789V10.2859H15.8049V9.40789H16.6829ZM14.0488 4.1396V5.01765H13.1707V4.1396H14.0488ZM14.9268 4.1396V5.01765H14.0488V4.1396H14.9268ZM15.8049 4.1396V5.01765H14.9268V4.1396H15.8049ZM16.6829 4.1396V5.01765H15.8049V4.1396H16.6829ZM16.6829 5.01765V5.8957H15.8049V5.01765H16.6829ZM16.6829 5.8957V6.77375H15.8049V5.8957H16.6829ZM16.6829 6.77375V7.6518H15.8049V6.77375H16.6829ZM16.6829 7.6518V8.52985H15.8049V7.6518H16.6829ZM16.6829 8.52985V9.40789H15.8049V8.52985H16.6829ZM14.0488 5.01765V5.8957H13.1707V5.01765H14.0488ZM14.9268 5.01765V5.8957H14.0488V5.01765H14.9268ZM15.8049 5.01765V5.8957H14.9268V5.01765H15.8049ZM15.8049 5.8957V6.77375H14.9268V5.8957H15.8049ZM15.8049 6.77375V7.6518H14.9268V6.77375H15.8049ZM15.8049 7.6518V8.52985H14.9268V7.6518H15.8049ZM15.8049 8.52985V9.40789H14.9268V8.52985H15.8049ZM14.9268 8.52985V9.40789H14.0488V8.52985H14.9268ZM14.9268 7.6518V8.52985H14.0488V7.6518H14.9268ZM14.9268 6.77375V7.6518H14.0488V6.77375H14.9268ZM14.9268 5.8957V6.77375H14.0488V5.8957H14.9268ZM14.0488 5.8957V6.77375H13.1707V5.8957H14.0488ZM14.0488 6.77375V7.6518H13.1707V6.77375H14.0488ZM14.0488 7.6518V8.52985H13.1707V7.6518H14.0488ZM14.0488 8.52985V9.40789H13.1707V8.52985H14.0488ZM14.0488 9.40789V10.2859H13.1707V9.40789H14.0488ZM14.0488 10.2859V11.164H13.1707V10.2859H14.0488ZM14.0488 11.164V12.042H13.1707V11.164H14.0488ZM14.0488 12.042V12.9201H13.1707V12.042H14.0488ZM14.9268 12.042V12.9201H14.0488V12.042H14.9268ZM14.9268 11.164V12.042H14.0488V11.164H14.9268ZM14.9268 10.2859V11.164H14.0488V10.2859H14.9268ZM14.9268 9.40789V10.2859H14.0488V9.40789H14.9268ZM15.8049 9.40789V10.2859H14.9268V9.40789H15.8049ZM15.8049 10.2859V11.164H14.9268V10.2859H15.8049ZM15.8049 11.164V12.042H14.9268V11.164H15.8049ZM15.8049 12.042V12.9201H14.9268V12.042H15.8049ZM15.8049 12.9201V13.7981H14.9268V12.9201H15.8049ZM15.8049 13.7981V14.6762H14.9268V13.7981H15.8049ZM15.8049 14.6762V15.5542H14.9268V14.6762H15.8049ZM15.8049 15.5542V16.4323H14.9268V15.5542H15.8049ZM15.8049 16.4323V17.3103H14.9268V16.4323H15.8049ZM15.8049 17.3103V18.1884H14.9268V17.3103H15.8049ZM14.9268 17.3103V18.1884H14.0488V17.3103H14.9268ZM14.9268 16.4323V17.3103H14.0488V16.4323H14.9268ZM14.9268 15.5542V16.4323H14.0488V15.5542H14.9268ZM14.9268 14.6762V15.5542H14.0488V14.6762H14.9268ZM14.9268 13.7981V14.6762H14.0488V13.7981H14.9268ZM14.0488 12.9201V13.7981H13.1707V12.9201H14.0488ZM14.9268 12.9201V13.7981H14.0488V12.9201H14.9268ZM15.8049 18.1884V19.0664H14.9268V18.1884H15.8049ZM15.8049 19.0664V19.9445H14.9268V19.0664H15.8049ZM15.8049 19.9445V20.8225H14.9268V19.9445H15.8049ZM15.8049 20.8225V21.7006H14.9268V20.8225H15.8049ZM15.8049 21.7006V22.5786H14.9268V21.7006H15.8049ZM15.8049 22.5786V23.4567H14.9268V22.5786H15.8049ZM15.8049 23.4567V24.3347H14.9268V23.4567H15.8049ZM15.8049 24.3347V25.2128H14.9268V24.3347H15.8049ZM7.02439 14.6762V15.5542H6.14634V14.6762H7.02439ZM7.90244 14.6762V15.5542H7.02439V14.6762H7.90244ZM8.78049 14.6762V15.5542H7.90244V14.6762H8.78049ZM9.65854 14.6762V15.5542H8.78049V14.6762H9.65854ZM10.5366 14.6762V15.5542H9.65854V14.6762H10.5366ZM11.4146 14.6762V15.5542H10.5366V14.6762H11.4146ZM12.2927 14.6762V15.5542H11.4146V14.6762H12.2927ZM12.2927 15.5542V16.4323H11.4146V15.5542H12.2927ZM11.4146 15.5542V16.4323H10.5366V15.5542H11.4146ZM10.5366 15.5542V16.4323H9.65854V15.5542H10.5366ZM9.65854 15.5542V16.4323H8.78049V15.5542H9.65854ZM8.78049 15.5542V16.4323H7.90244V15.5542H8.78049ZM7.90244 15.5542V16.4323H7.02439V15.5542H7.90244ZM7.02439 15.5542V16.4323H6.14634V15.5542H7.02439ZM7.02439 12.9201V13.7981H6.14634V12.9201H7.02439ZM7.90244 12.9201V13.7981H7.02439V12.9201H7.90244ZM8.78049 12.9201V13.7981H7.90244V12.9201H8.78049ZM9.65854 12.9201V13.7981H8.78049V12.9201H9.65854ZM10.5366 12.9201V13.7981H9.65854V12.9201H10.5366ZM11.4146 12.9201V13.7981H10.5366V12.9201H11.4146ZM12.2927 12.9201V13.7981H11.4146V12.9201H12.2927ZM12.2927 13.7981V14.6762H11.4146V13.7981H12.2927ZM11.4146 13.7981V14.6762H10.5366V13.7981H11.4146ZM10.5366 13.7981V14.6762H9.65854V13.7981H10.5366ZM9.65854 13.7981V14.6762H8.78049V13.7981H9.65854ZM8.78049 13.7981V14.6762H7.90244V13.7981H8.78049ZM7.02439 16.4323V17.3103H6.14634V16.4323H7.02439ZM7.90244 16.4323V17.3103H7.02439V16.4323H7.90244ZM8.78049 16.4323V17.3103H7.90244V16.4323H8.78049ZM9.65854 16.4323V17.3103H8.78049V16.4323H9.65854ZM10.5366 16.4323V17.3103H9.65854V16.4323H10.5366ZM11.4146 16.4323V17.3103H10.5366V16.4323H11.4146ZM12.2927 16.4323V17.3103H11.4146V16.4323H12.2927ZM7.90244 13.7981V14.6762H7.02439V13.7981H7.90244ZM7.02439 13.7981V14.6762H6.14634V13.7981H7.02439ZM21.056 25.2128V26.0908H20.178V25.2128H21.056ZM21.056 24.3347V25.2128H20.178V24.3347H21.056ZM21.056 23.4567V24.3347H20.178V23.4567H21.056ZM21.056 22.5786V23.4567H20.178V22.5786H21.056ZM21.056 21.7006V22.5786H20.178V21.7006H21.056ZM21.056 20.8225V21.7006H20.178V20.8225H21.056ZM21.056 19.9445V20.8225H20.178V19.9445H21.056ZM21.056 19.0664V19.9445H20.178V19.0664H21.056ZM21.056 18.1884V19.0664H20.178V18.1884H21.056ZM21.056 17.3103V18.1884H20.178V17.3103H21.056ZM21.056 16.4323V17.3103H20.178V16.4323H21.056ZM21.056 15.5542V16.4323H20.178V15.5542H21.056ZM21.056 14.6762V15.5542H20.178V14.6762H21.056ZM21.056 13.7981V14.6762H20.178V13.7981H21.056ZM21.056 12.9201V13.7981H20.178V12.9201H21.056ZM21.9341 12.9201V13.7981H21.056V12.9201H21.9341ZM21.9341 13.7981V14.6762H21.056V13.7981H21.9341ZM21.9341 14.6762V15.5542H21.056V14.6762H21.9341ZM21.9341 15.5542V16.4323H21.056V15.5542H21.9341ZM21.9341 16.4323V17.3103H21.056V16.4323H21.9341ZM21.9341 17.3103V18.1884H21.056V17.3103H21.9341ZM21.9341 18.1884V19.0664H21.056V18.1884H21.9341ZM22.8121 19.0664V19.9445H21.9341V19.0664H22.8121ZM22.8121 19.9445V20.8225H21.9341V19.9445H22.8121ZM22.8121 20.8225V21.7006H21.9341V20.8225H22.8121ZM22.8121 21.7006V22.5786H21.9341V21.7006H22.8121ZM22.8121 22.5786V23.4567H21.9341V22.5786H22.8121ZM22.8121 23.4567V24.3347H21.9341V23.4567H22.8121ZM22.8121 24.3347V25.2128H21.9341V24.3347H22.8121ZM22.8121 25.2128V26.0908H21.9341V25.2128H22.8121ZM23.6902 25.2128V26.0908H22.8121V25.2128H23.6902ZM24.5682 25.2128V26.0908H23.6902V25.2128H24.5682ZM24.5682 24.3347V25.2128H23.6902V24.3347H24.5682ZM24.5682 23.4567V24.3347H23.6902V23.4567H24.5682ZM24.5682 22.5786V23.4567H23.6902V22.5786H24.5682ZM24.5682 21.7006V22.5786H23.6902V21.7006H24.5682ZM24.5682 20.8225V21.7006H23.6902V20.8225H24.5682ZM24.5682 19.9445V20.8225H23.6902V19.9445H24.5682ZM24.5682 19.0664V19.9445H23.6902V19.0664H24.5682ZM23.6902 19.0664V19.9445H22.8121V19.0664H23.6902ZM23.6902 18.1884V19.0664H22.8121V18.1884H23.6902ZM23.6902 19.9445V20.8225H22.8121V19.9445H23.6902ZM23.6902 20.8225V21.7006H22.8121V20.8225H23.6902ZM23.6902 21.7006V22.5786H22.8121V21.7006H23.6902ZM23.6902 22.5786V23.4567H22.8121V22.5786H23.6902ZM23.6902 23.4567V24.3347H22.8121V23.4567H23.6902ZM23.6902 24.3347V25.2128H22.8121V24.3347H23.6902ZM21.9341 25.2128V26.0908H21.056V25.2128H21.9341ZM21.9341 24.3347V25.2128H21.056V24.3347H21.9341ZM21.9341 23.4567V24.3347H21.056V23.4567H21.9341ZM21.9341 22.5786V23.4567H21.056V22.5786H21.9341ZM21.9341 21.7006V22.5786H21.056V21.7006H21.9341ZM21.9341 20.8225V21.7006H21.056V20.8225H21.9341ZM21.9341 19.9445V20.8225H21.056V19.9445H21.9341ZM21.9341 19.0664V19.9445H21.056V19.0664H21.9341ZM21.056 4.1396V5.01765H20.178V4.1396H21.056ZM21.056 5.01765V5.8957H20.178V5.01765H21.056ZM21.056 5.8957V6.77375H20.178V5.8957H21.056ZM21.056 6.77375V7.6518H20.178V6.77375H21.056ZM21.056 7.6518V8.52985H20.178V7.6518H21.056ZM21.056 8.52985V9.40789H20.178V8.52985H21.056ZM21.056 9.40789V10.2859H20.178V9.40789H21.056ZM21.056 10.2859V11.164H20.178V10.2859H21.056ZM21.056 11.164V12.042H20.178V11.164H21.056ZM21.056 12.042V12.9201H20.178V12.042H21.056ZM23.6902 4.1396V5.01765H22.8121V4.1396H23.6902ZM23.6902 5.01765V5.8957H22.8121V5.01765H23.6902ZM23.6902 5.8957V6.77375H22.8121V5.8957H23.6902ZM23.6902 6.77375V7.6518H22.8121V6.77375H23.6902ZM23.6902 7.6518V8.52985H22.8121V7.6518H23.6902ZM23.6902 8.52985V9.40789H22.8121V8.52985H23.6902ZM23.6902 10.2859V11.164H22.8121V10.2859H23.6902ZM23.6902 11.164V12.042H22.8121V11.164H23.6902ZM23.6902 12.042V12.9201H22.8121V12.042H23.6902ZM23.6902 12.9201V13.7981H22.8121V12.9201H23.6902ZM23.6902 13.7981V14.6762H22.8121V13.7981H23.6902ZM23.6902 14.6762V15.5542H22.8121V14.6762H23.6902ZM23.6902 15.5542V16.4323H22.8121V15.5542H23.6902ZM24.5682 16.4323V17.3103H23.6902V16.4323H24.5682ZM24.5682 17.3103V18.1884H23.6902V17.3103H24.5682ZM24.5682 18.1884V19.0664H23.6902V18.1884H24.5682ZM24.5682 15.5542V16.4323H23.6902V15.5542H24.5682ZM24.5682 14.6762V15.5542H23.6902V14.6762H24.5682ZM24.5682 13.7981V14.6762H23.6902V13.7981H24.5682ZM24.5682 12.9201V13.7981H23.6902V12.9201H24.5682ZM24.5682 12.042V12.9201H23.6902V12.042H24.5682ZM24.5682 11.164V12.042H23.6902V11.164H24.5682ZM24.5682 10.2859V11.164H23.6902V10.2859H24.5682ZM24.5682 9.40789V10.2859H23.6902V9.40789H24.5682ZM24.5682 8.52985V9.40789H23.6902V8.52985H24.5682ZM24.5682 7.6518V8.52985H23.6902V7.6518H24.5682ZM23.6902 9.40789V10.2859H22.8121V9.40789H23.6902ZM24.5682 6.77375V7.6518H23.6902V6.77375H24.5682ZM24.5682 5.8957V6.77375H23.6902V5.8957H24.5682ZM24.5682 5.01765V5.8957H23.6902V5.01765H24.5682ZM24.5682 4.1396V5.01765H23.6902V4.1396H24.5682ZM22.8121 4.1396V5.01765H21.9341V4.1396H22.8121ZM21.9341 4.1396V5.01765H21.056V4.1396H21.9341ZM21.9341 5.01765V5.8957H21.056V5.01765H21.9341ZM22.8121 5.01765V5.8957H21.9341V5.01765H22.8121ZM22.8121 5.8957V6.77375H21.9341V5.8957H22.8121ZM22.8121 6.77375V7.6518H21.9341V6.77375H22.8121ZM22.8121 7.6518V8.52985H21.9341V7.6518H22.8121ZM22.8121 8.52985V9.40789H21.9341V8.52985H22.8121ZM22.8121 9.40789V10.2859H21.9341V9.40789H22.8121ZM22.8121 10.2859V11.164H21.9341V10.2859H22.8121ZM21.9341 11.164V12.042H21.056V11.164H21.9341ZM21.9341 12.042V12.9201H21.056V12.042H21.9341ZM21.9341 10.2859V11.164H21.056V10.2859H21.9341ZM21.9341 9.40789V10.2859H21.056V9.40789H21.9341ZM21.9341 8.52985V9.40789H21.056V8.52985H21.9341ZM21.9341 7.6518V8.52985H21.056V7.6518H21.9341ZM21.9341 6.77375V7.6518H21.056V6.77375H21.9341ZM21.9341 5.8957V6.77375H21.056V5.8957H21.9341ZM22.8121 11.164V12.042H21.9341V11.164H22.8121ZM22.8121 12.042V12.9201H21.9341V12.042H22.8121ZM22.8121 12.9201V13.7981H21.9341V12.9201H22.8121ZM22.8121 13.7981V14.6762H21.9341V13.7981H22.8121ZM22.8121 14.6762V15.5542H21.9341V14.6762H22.8121ZM22.8121 15.5542V16.4323H21.9341V15.5542H22.8121ZM22.8121 16.4323V17.3103H21.9341V16.4323H22.8121ZM22.8121 17.3103V18.1884H21.9341V17.3103H22.8121ZM22.8121 18.1884V19.0664H21.9341V18.1884H22.8121ZM23.6902 17.3103V18.1884H22.8121V17.3103H23.6902ZM23.6902 16.4323V17.3103H22.8121V16.4323H23.6902ZM25.4463 25.2128V26.0908H24.5682V25.2128H25.4463ZM26.3243 25.2128V26.0908H25.4463V25.2128H26.3243ZM26.3243 24.3347V25.2128H25.4463V24.3347H26.3243ZM26.3243 23.4567V24.3347H25.4463V23.4567H26.3243ZM26.3243 22.5786V23.4567H25.4463V22.5786H26.3243ZM26.3243 21.7006V22.5786H25.4463V21.7006H26.3243ZM25.4463 21.7006V22.5786H24.5682V21.7006H25.4463ZM25.4463 22.5786V23.4567H24.5682V22.5786H25.4463ZM25.4463 23.4567V24.3347H24.5682V23.4567H25.4463ZM25.4463 24.3347V25.2128H24.5682V24.3347H25.4463ZM27.2024 21.7006V22.5786H26.3243V21.7006H27.2024ZM28.0804 21.7006V22.5786H27.2024V21.7006H28.0804ZM28.9585 21.7006V22.5786H28.0804V21.7006H28.9585ZM28.9585 24.3347V25.2128H28.0804V24.3347H28.9585ZM28.0804 25.2128V26.0908H27.2024V25.2128H28.0804ZM27.2024 25.2128V26.0908H26.3243V25.2128H27.2024ZM28.9585 25.2128V26.0908H28.0804V25.2128H28.9585ZM28.0804 24.3347V25.2128H27.2024V24.3347H28.0804ZM27.2024 24.3347V25.2128H26.3243V24.3347H27.2024ZM27.2024 23.4567V24.3347H26.3243V23.4567H27.2024ZM28.0804 23.4567V24.3347H27.2024V23.4567H28.0804ZM28.9585 23.4567V24.3347H28.0804V23.4567H28.9585ZM28.9585 22.5786V23.4567H28.0804V22.5786H28.9585ZM28.0804 22.5786V23.4567H27.2024V22.5786H28.0804ZM27.2024 22.5786V23.4567H26.3243V22.5786H27.2024ZM29.8365 25.2128V26.0908H28.9585V25.2128H29.8365ZM30.7146 25.2128V26.0908H29.8365V25.2128H30.7146ZM31.5926 25.2128V26.0908H30.7146V25.2128H31.5926ZM31.5926 24.3347V25.2128H30.7146V24.3347H31.5926ZM29.8365 21.7006V22.5786H28.9585V21.7006H29.8365ZM30.7146 21.7006V22.5786H29.8365V21.7006H30.7146ZM31.5926 21.7006V22.5786H30.7146V21.7006H31.5926ZM31.5926 22.5786V23.4567H30.7146V22.5786H31.5926ZM31.5926 23.4567V24.3347H30.7146V23.4567H31.5926ZM30.7146 23.4567V24.3347H29.8365V23.4567H30.7146ZM30.7146 22.5786V23.4567H29.8365V22.5786H30.7146ZM29.8365 22.5786V23.4567H28.9585V22.5786H29.8365ZM29.8365 23.4567V24.3347H28.9585V23.4567H29.8365ZM29.8365 24.3347V25.2128H28.9585V24.3347H29.8365ZM30.7146 24.3347V25.2128H29.8365V24.3347H30.7146ZM35.9974 21.7006V22.5786H35.1194V21.7006H35.9974ZM35.9974 20.8225V21.7006H35.1194V20.8225H35.9974ZM35.9974 19.9445V20.8225H35.1194V19.9445H35.9974ZM35.9974 19.0664V19.9445H35.1194V19.0664H35.9974ZM35.9974 12.9201V13.7981H35.1194V12.9201H35.9974ZM36.8755 12.9201V13.7981H35.9974V12.9201H36.8755ZM36.8755 13.7981V14.6762H35.9974V13.7981H36.8755ZM36.8755 14.6762V15.5542H35.9974V14.6762H36.8755ZM37.7535 19.0664V19.9445H36.8755V19.0664H37.7535ZM37.7535 19.9445V20.8225H36.8755V19.9445H37.7535ZM37.7535 20.8225V21.7006H36.8755V20.8225H37.7535ZM37.7535 21.7006V22.5786H36.8755V21.7006H37.7535ZM37.7535 22.5786V23.4567H36.8755V22.5786H37.7535ZM37.7535 23.4567V24.3347H36.8755V23.4567H37.7535ZM37.7535 24.3347V25.2128H36.8755V24.3347H37.7535ZM39.5096 25.2128V26.0908H38.6316V25.2128H39.5096ZM39.5096 24.3347V25.2128H38.6316V24.3347H39.5096ZM39.5096 23.4567V24.3347H38.6316V23.4567H39.5096ZM39.5096 22.5786V23.4567H38.6316V22.5786H39.5096ZM39.5096 21.7006V22.5786H38.6316V21.7006H39.5096ZM39.5096 20.8225V21.7006H38.6316V20.8225H39.5096ZM39.5096 19.9445V20.8225H38.6316V19.9445H39.5096ZM39.5096 19.0664V19.9445H38.6316V19.0664H39.5096ZM38.6316 19.0664V19.9445H37.7535V19.0664H38.6316ZM38.6316 19.9445V20.8225H37.7535V19.9445H38.6316ZM38.6316 20.8225V21.7006H37.7535V20.8225H38.6316ZM38.6316 21.7006V22.5786H37.7535V21.7006H38.6316ZM38.6316 22.5786V23.4567H37.7535V22.5786H38.6316ZM38.6316 23.4567V24.3347H37.7535V23.4567H38.6316ZM38.6316 24.3347V25.2128H37.7535V24.3347H38.6316ZM36.8755 23.4567V24.3347H35.9974V23.4567H36.8755ZM36.8755 22.5786V23.4567H35.9974V22.5786H36.8755ZM36.8755 21.7006V22.5786H35.9974V21.7006H36.8755ZM36.8755 20.8225V21.7006H35.9974V20.8225H36.8755ZM36.8755 19.9445V20.8225H35.9974V19.9445H36.8755ZM36.8755 19.0664V19.9445H35.9974V19.0664H36.8755ZM35.9974 12.042V12.9201H35.1194V12.042H35.9974ZM38.6316 12.042V12.9201H37.7535V12.042H38.6316ZM38.6316 12.9201V13.7981H37.7535V12.9201H38.6316ZM38.6316 13.7981V14.6762H37.7535V13.7981H38.6316ZM38.6316 14.6762V15.5542H37.7535V14.6762H38.6316ZM38.6316 15.5542V16.4323H37.7535V15.5542H38.6316ZM39.5096 16.4323V17.3103H38.6316V16.4323H39.5096ZM39.5096 15.5542V16.4323H38.6316V15.5542H39.5096ZM39.5096 14.6762V15.5542H38.6316V14.6762H39.5096ZM39.5096 13.7981V14.6762H38.6316V13.7981H39.5096ZM39.5096 12.9201V13.7981H38.6316V12.9201H39.5096ZM39.5096 12.042V12.9201H38.6316V12.042H39.5096ZM36.8755 12.042V12.9201H35.9974V12.042H36.8755ZM37.7535 12.042V12.9201H36.8755V12.042H37.7535ZM37.7535 12.9201V13.7981H36.8755V12.9201H37.7535ZM37.7535 13.7981V14.6762H36.8755V13.7981H37.7535ZM37.7535 14.6762V15.5542H36.8755V14.6762H37.7535ZM37.7535 15.5542V16.4323H36.8755V15.5542H37.7535ZM46.534 25.2128V26.0908H45.656V25.2128H46.534ZM46.534 24.3347V25.2128H45.656V24.3347H46.534ZM46.534 23.4567V24.3347H45.656V23.4567H46.534ZM46.534 22.5786V23.4567H45.656V22.5786H46.534ZM46.534 21.7006V22.5786H45.656V21.7006H46.534ZM46.534 20.8225V21.7006H45.656V20.8225H46.534ZM46.534 19.9445V20.8225H45.656V19.9445H46.534ZM46.534 19.0664V19.9445H45.656V19.0664H46.534ZM46.534 18.1884V19.0664H45.656V18.1884H46.534ZM46.534 17.3103V18.1884H45.656V17.3103H46.534ZM46.534 16.4323V17.3103H45.656V16.4323H46.534ZM46.534 15.5542V16.4323H45.656V15.5542H46.534ZM46.534 14.6762V15.5542H45.656V14.6762H46.534ZM46.534 13.7981V14.6762H45.656V13.7981H46.534ZM46.534 12.9201V13.7981H45.656V12.9201H46.534ZM47.4121 13.7981V14.6762H46.534V13.7981H47.4121ZM47.4121 14.6762V15.5542H46.534V14.6762H47.4121ZM47.4121 15.5542V16.4323H46.534V15.5542H47.4121ZM47.4121 16.4323V17.3103H46.534V16.4323H47.4121ZM47.4121 17.3103V18.1884H46.534V17.3103H47.4121ZM47.4121 18.1884V19.0664H46.534V18.1884H47.4121ZM48.2901 19.0664V19.9445H47.4121V19.0664H48.2901ZM48.2901 19.9445V20.8225H47.4121V19.9445H48.2901ZM48.2901 20.8225V21.7006H47.4121V20.8225H48.2901ZM48.2901 21.7006V22.5786H47.4121V21.7006H48.2901ZM48.2901 22.5786V23.4567H47.4121V22.5786H48.2901ZM48.2901 23.4567V24.3347H47.4121V23.4567H48.2901ZM48.2901 24.3347V25.2128H47.4121V24.3347H48.2901ZM50.0462 21.7006V22.5786H49.1682V21.7006H50.0462ZM50.0462 20.8225V21.7006H49.1682V20.8225H50.0462ZM50.0462 19.9445V20.8225H49.1682V19.9445H50.0462ZM50.0462 19.0664V19.9445H49.1682V19.0664H50.0462ZM49.1682 19.0664V19.9445H48.2901V19.0664H49.1682ZM49.1682 18.1884V19.0664H48.2901V18.1884H49.1682ZM49.1682 19.9445V20.8225H48.2901V19.9445H49.1682ZM49.1682 20.8225V21.7006H48.2901V20.8225H49.1682ZM49.1682 21.7006V22.5786H48.2901V21.7006H49.1682ZM49.1682 22.5786V23.4567H48.2901V22.5786H49.1682ZM49.1682 23.4567V24.3347H48.2901V23.4567H49.1682ZM47.4121 24.3347V25.2128H46.534V24.3347H47.4121ZM47.4121 23.4567V24.3347H46.534V23.4567H47.4121ZM47.4121 22.5786V23.4567H46.534V22.5786H47.4121ZM47.4121 21.7006V22.5786H46.534V21.7006H47.4121ZM47.4121 20.8225V21.7006H46.534V20.8225H47.4121ZM47.4121 19.9445V20.8225H46.534V19.9445H47.4121ZM47.4121 19.0664V19.9445H46.534V19.0664H47.4121ZM49.1682 15.5542V16.4323H48.2901V15.5542H49.1682ZM50.0462 16.4323V17.3103H49.1682V16.4323H50.0462ZM50.0462 17.3103V18.1884H49.1682V17.3103H50.0462ZM50.0462 18.1884V19.0664H49.1682V18.1884H50.0462ZM48.2901 13.7981V14.6762H47.4121V13.7981H48.2901ZM48.2901 14.6762V15.5542H47.4121V14.6762H48.2901ZM48.2901 15.5542V16.4323H47.4121V15.5542H48.2901ZM48.2901 16.4323V17.3103H47.4121V16.4323H48.2901ZM48.2901 17.3103V18.1884H47.4121V17.3103H48.2901ZM48.2901 18.1884V19.0664H47.4121V18.1884H48.2901ZM49.1682 17.3103V18.1884H48.2901V17.3103H49.1682ZM49.1682 16.4323V17.3103H48.2901V16.4323H49.1682ZM40.3877 25.2128V26.0908H39.5096V25.2128H40.3877ZM41.2657 25.2128V26.0908H40.3877V25.2128H41.2657ZM42.1438 25.2128V26.0908H41.2657V25.2128H42.1438ZM43.8999 25.2128V26.0908H43.0218V25.2128H43.8999ZM44.7779 25.2128V26.0908H43.8999V25.2128H44.7779ZM45.656 25.2128V26.0908H44.7779V25.2128H45.656ZM45.656 24.3347V25.2128H44.7779V24.3347H45.656ZM44.7779 24.3347V25.2128H43.8999V24.3347H44.7779ZM43.8999 24.3347V25.2128H43.0218V24.3347H43.8999ZM42.1438 24.3347V25.2128H41.2657V24.3347H42.1438ZM41.2657 24.3347V25.2128H40.3877V24.3347H41.2657ZM40.3877 24.3347V25.2128H39.5096V24.3347H40.3877ZM40.3877 23.4567V24.3347H39.5096V23.4567H40.3877ZM41.2657 23.4567V24.3347H40.3877V23.4567H41.2657ZM42.1438 23.4567V24.3347H41.2657V23.4567H42.1438ZM43.8999 23.4567V24.3347H43.0218V23.4567H43.8999ZM44.7779 23.4567V24.3347H43.8999V23.4567H44.7779ZM45.656 23.4567V24.3347H44.7779V23.4567H45.656ZM45.656 22.5786V23.4567H44.7779V22.5786H45.656ZM44.7779 22.5786V23.4567H43.8999V22.5786H44.7779ZM43.8999 22.5786V23.4567H43.0218V22.5786H43.8999ZM42.1438 22.5786V23.4567H41.2657V22.5786H42.1438ZM41.2657 22.5786V23.4567H40.3877V22.5786H41.2657ZM40.3877 22.5786V23.4567H39.5096V22.5786H40.3877ZM40.3877 21.7006V22.5786H39.5096V21.7006H40.3877ZM45.656 21.7006V22.5786H44.7779V21.7006H45.656ZM49.1682 8.52985V7.6518H50.0462V8.52985H49.1682ZM49.1682 9.40789V8.52985H50.0462V9.40789H49.1682ZM49.1682 10.2859V9.40789H50.0462V10.2859H49.1682ZM47.4121 10.2859V9.40789H48.2901V10.2859H47.4121ZM47.4121 9.40789V8.52985H48.2901V9.40789H47.4121ZM47.4121 8.52985V7.6518H48.2901V8.52985H47.4121ZM47.4121 7.6518V6.77375H48.2901V7.6518H47.4121ZM47.4121 6.77375V5.8957H48.2901V6.77375H47.4121ZM47.4121 5.8957V5.01765H48.2901V5.8957H47.4121ZM45.656 5.01765V4.1396H46.534V5.01765H45.656ZM45.656 5.8957V5.01765H46.534V5.8957H45.656ZM45.656 6.77375V5.8957H46.534V6.77375H45.656ZM45.656 7.6518V6.77375H46.534V7.6518H45.656ZM45.656 8.52985V7.6518H46.534V8.52985H45.656ZM45.656 9.40789V8.52985H46.534V9.40789H45.656ZM45.656 10.2859V9.40789H46.534V10.2859H45.656ZM46.534 10.2859V9.40789H47.4121V10.2859H46.534ZM46.534 9.40789V8.52985H47.4121V9.40789H46.534ZM46.534 8.52985V7.6518H47.4121V8.52985H46.534ZM46.534 7.6518V6.77375H47.4121V7.6518H46.534ZM46.534 6.77375V5.8957H47.4121V6.77375H46.534ZM46.534 5.8957V5.01765H47.4121V5.8957H46.534ZM48.2901 6.77375V5.8957H49.1682V6.77375H48.2901ZM48.2901 7.6518V6.77375H49.1682V7.6518H48.2901ZM48.2901 8.52985V7.6518H49.1682V8.52985H48.2901ZM48.2901 9.40789V8.52985H49.1682V9.40789H48.2901ZM48.2901 10.2859V9.40789H49.1682V10.2859H48.2901ZM38.6316 5.01765V4.1396H39.5096V5.01765H38.6316ZM38.6316 5.8957V5.01765H39.5096V5.8957H38.6316ZM38.6316 6.77375V5.8957H39.5096V6.77375H38.6316ZM38.6316 7.6518V6.77375H39.5096V7.6518H38.6316ZM38.6316 8.52985V7.6518H39.5096V8.52985H38.6316ZM38.6316 9.40789V8.52985H39.5096V9.40789H38.6316ZM38.6316 10.2859V9.40789H39.5096V10.2859H38.6316ZM36.8755 10.2859V9.40789H37.7535V10.2859H36.8755ZM36.8755 9.40789V8.52985H37.7535V9.40789H36.8755ZM36.8755 8.52985V7.6518H37.7535V8.52985H36.8755ZM36.8755 7.6518V6.77375H37.7535V7.6518H36.8755ZM36.8755 6.77375V5.8957H37.7535V6.77375H36.8755ZM36.8755 5.8957V5.01765H37.7535V5.8957H36.8755ZM35.1194 8.52985V7.6518H35.9974V8.52985H35.1194ZM35.1194 9.40789V8.52985H35.9974V9.40789H35.1194ZM35.1194 10.2859V9.40789H35.9974V10.2859H35.1194ZM35.9974 10.2859V9.40789H36.8755V10.2859H35.9974ZM35.9974 9.40789V8.52985H36.8755V9.40789H35.9974ZM35.9974 8.52985V7.6518H36.8755V8.52985H35.9974ZM35.9974 7.6518V6.77375H36.8755V7.6518H35.9974ZM35.9974 6.77375V5.8957H36.8755V6.77375H35.9974ZM37.7535 5.8957V5.01765H38.6316V5.8957H37.7535ZM37.7535 6.77375V5.8957H38.6316V6.77375H37.7535ZM37.7535 7.6518V6.77375H38.6316V7.6518H37.7535ZM37.7535 8.52985V7.6518H38.6316V8.52985H37.7535ZM37.7535 9.40789V8.52985H38.6316V9.40789H37.7535ZM37.7535 10.2859V9.40789H38.6316V10.2859H37.7535ZM44.7779 5.01765V4.1396H45.656V5.01765H44.7779ZM43.8999 5.01765V4.1396H44.7779V5.01765H43.8999ZM43.0218 5.01765V4.1396H43.8999V5.01765H43.0218ZM41.2657 5.01765V4.1396H42.1438V5.01765H41.2657ZM40.3877 5.01765V4.1396H41.2657V5.01765H40.3877ZM39.5096 5.01765V4.1396H40.3877V5.01765H39.5096ZM39.5096 5.8957V5.01765H40.3877V5.8957H39.5096ZM40.3877 5.8957V5.01765H41.2657V5.8957H40.3877ZM41.2657 5.8957V5.01765H42.1438V5.8957H41.2657ZM43.0218 5.8957V5.01765H43.8999V5.8957H43.0218ZM43.8999 5.8957V5.01765H44.7779V5.8957H43.8999ZM44.7779 5.8957V5.01765H45.656V5.8957H44.7779ZM44.7779 6.77375V5.8957H45.656V6.77375H44.7779ZM43.8999 6.77375V5.8957H44.7779V6.77375H43.8999ZM43.0218 6.77375V5.8957H43.8999V6.77375H43.0218ZM41.2657 6.77375V5.8957H42.1438V6.77375H41.2657ZM40.3877 6.77375V5.8957H41.2657V6.77375H40.3877ZM39.5096 6.77375V5.8957H40.3877V6.77375H39.5096ZM39.5096 7.6518V6.77375H40.3877V7.6518H39.5096ZM40.3877 7.6518V6.77375H41.2657V7.6518H40.3877ZM41.2657 7.6518V6.77375H42.1438V7.6518H41.2657ZM43.0218 7.6518V6.77375H43.8999V7.6518H43.0218ZM43.8999 7.6518V6.77375H44.7779V7.6518H43.8999ZM44.7779 7.6518V6.77375H45.656V7.6518H44.7779ZM44.7779 8.52985V7.6518H45.656V8.52985H44.7779ZM39.5096 8.52985V7.6518H40.3877V8.52985H39.5096ZM35.9974 11.164V12.042H35.1194V11.164H35.9974ZM36.8755 11.164V12.042H35.9974V11.164H36.8755ZM35.9974 10.2859V11.164H35.1194V10.2859H35.9974ZM38.6316 10.2859V11.164H37.7535V10.2859H38.6316ZM38.6316 11.164V12.042H37.7535V11.164H38.6316ZM39.5096 11.164V12.042H38.6316V11.164H39.5096ZM39.5096 10.2859V11.164H38.6316V10.2859H39.5096ZM36.8755 10.2859V11.164H35.9974V10.2859H36.8755ZM37.7535 10.2859V11.164H36.8755V10.2859H37.7535ZM37.7535 11.164V12.042H36.8755V11.164H37.7535ZM41.2657 21.7006V22.5786H40.3877V21.7006H41.2657ZM42.1438 21.7006V22.5786H41.2657V21.7006H42.1438ZM43.8999 21.7006V22.5786H43.0218V21.7006H43.8999ZM44.7779 21.7006V22.5786H43.8999V21.7006H44.7779ZM45.656 20.8225V21.7006H44.7779V20.8225H45.656ZM40.3877 20.8225V21.7006H39.5096V20.8225H40.3877ZM41.2657 7.6518V8.52985H40.3877V7.6518H41.2657ZM42.1438 7.6518V8.52985H41.2657V7.6518H42.1438ZM43.8999 7.6518V8.52985H43.0218V7.6518H43.8999ZM44.7779 7.6518V8.52985H43.8999V7.6518H44.7779ZM45.656 8.52985V9.40789H44.7779V8.52985H45.656ZM40.3877 8.52985V9.40789H39.5096V8.52985H40.3877ZM42.1438 14.6762V15.5542H41.2657V14.6762H42.1438ZM43.8999 14.6762V15.5542H43.0218V14.6762H43.8999ZM44.7779 14.6762V15.5542H43.8999V14.6762H44.7779ZM45.656 14.6762V15.5542H44.7779V14.6762H45.656ZM45.656 15.5542V16.4323H44.7779V15.5542H45.656ZM44.7779 15.5542V16.4323H43.8999V15.5542H44.7779ZM43.8999 15.5542V16.4323H43.0218V15.5542H43.8999ZM42.1438 15.5542V16.4323H41.2657V15.5542H42.1438ZM42.1438 12.9201V13.7981H41.2657V12.9201H42.1438ZM43.8999 12.9201V13.7981H43.0218V12.9201H43.8999ZM44.7779 12.9201V13.7981H43.8999V12.9201H44.7779ZM45.656 12.9201V13.7981H44.7779V12.9201H45.656ZM45.656 13.7981V14.6762H44.7779V13.7981H45.656ZM44.7779 13.7981V14.6762H43.8999V13.7981H44.7779ZM43.8999 13.7981V14.6762H43.0218V13.7981H43.8999ZM42.1438 13.7981V14.6762H41.2657V13.7981H42.1438ZM42.1438 16.4323V17.3103H41.2657V16.4323H42.1438ZM43.8999 16.4323V17.3103H43.0218V16.4323H43.8999ZM44.7779 16.4323V17.3103H43.8999V16.4323H44.7779ZM45.656 16.4323V17.3103H44.7779V16.4323H45.656ZM49.1682 14.6762V15.5542H48.2901V14.6762H49.1682ZM45.656 17.3103V18.1884H44.7779V17.3103H45.656ZM40.3877 12.9201V13.7981H39.5096V12.9201H40.3877ZM41.2657 12.9201V13.7981H40.3877V12.9201H41.2657ZM40.3877 12.042V12.9201H39.5096V12.042H40.3877ZM41.2657 13.7981V14.6762H40.3877V13.7981H41.2657ZM41.2657 14.6762V15.5542H40.3877V14.6762H41.2657ZM41.2657 15.5542V16.4323H40.3877V15.5542H41.2657ZM41.2657 16.4323V17.3103H40.3877V16.4323H41.2657ZM40.3877 16.4323V17.3103H39.5096V16.4323H40.3877ZM40.3877 15.5542V16.4323H39.5096V15.5542H40.3877ZM40.3877 14.6762V15.5542H39.5096V14.6762H40.3877ZM40.3877 13.7981V14.6762H39.5096V13.7981H40.3877ZM43.0218 4.1396V5.01765H42.1438V4.1396H43.0218ZM43.0218 5.01765V5.8957H42.1438V5.01765H43.0218ZM43.0218 5.8957V6.77375H42.1438V5.8957H43.0218ZM43.0218 6.77375V7.6518H42.1438V6.77375H43.0218ZM43.0218 7.6518V8.52985H42.1438V7.6518H43.0218ZM43.0218 12.9201V13.7981H42.1438V12.9201H43.0218ZM43.0218 13.7981V14.6762H42.1438V13.7981H43.0218ZM43.0218 14.6762V15.5542H42.1438V14.6762H43.0218ZM43.0218 15.5542V16.4323H42.1438V15.5542H43.0218ZM43.0218 16.4323V17.3103H42.1438V16.4323H43.0218ZM43.0218 21.7006V22.5786H42.1438V21.7006H43.0218ZM43.0218 22.5786V23.4567H42.1438V22.5786H43.0218ZM43.0218 23.4567V24.3347H42.1438V23.4567H43.0218ZM43.0218 24.3347V25.2128H42.1438V24.3347H43.0218ZM43.0218 25.2128V26.0908H42.1438V25.2128H43.0218ZM59.6876 4.1396V5.01765H58.8095V4.1396H59.6876ZM59.6876 5.01765V5.8957H58.8095V5.01765H59.6876ZM59.6876 5.8957V6.77375H58.8095V5.8957H59.6876ZM59.6876 6.77375V7.6518H58.8095V6.77375H59.6876ZM59.6876 7.6518V8.52985H58.8095V7.6518H59.6876ZM59.6876 8.52985V9.40789H58.8095V8.52985H59.6876ZM59.6876 9.40789V10.2859H58.8095V9.40789H59.6876ZM58.8095 9.40789V10.2859H57.9315V9.40789H58.8095ZM58.8095 8.52985V9.40789H57.9315V8.52985H58.8095ZM58.8095 10.2859V11.164H57.9315V10.2859H58.8095ZM58.8095 11.164V12.042H57.9315V11.164H58.8095ZM58.8095 12.042V12.9201H57.9315V12.042H58.8095ZM58.8095 12.9201V13.7981H57.9315V12.9201H58.8095ZM57.9315 12.9201V13.7981H57.0534V12.9201H57.9315ZM57.9315 12.042V12.9201H57.0534V12.042H57.9315ZM57.9315 13.7981V14.6762H57.0534V13.7981H57.9315ZM57.9315 14.6762V15.5542H57.0534V14.6762H57.9315ZM57.9315 15.5542V16.4323H57.0534V15.5542H57.9315ZM57.9315 16.4323V17.3103H57.0534V16.4323H57.9315ZM57.0534 16.4323V17.3103H56.1754V16.4323H57.0534ZM57.0534 15.5542V16.4323H56.1754V15.5542H57.0534ZM57.0534 17.3103V18.1884H56.1754V17.3103H57.0534ZM57.0534 18.1884V19.0664H56.1754V18.1884H57.0534ZM57.0534 19.0664V19.9445H56.1754V19.0664H57.0534ZM57.0534 19.9445V20.8225H56.1754V19.9445H57.0534ZM57.0534 20.8225V21.7006H56.1754V20.8225H57.0534ZM56.1754 19.9445V20.8225H55.2974V19.9445H56.1754ZM56.1754 20.8225V21.7006H55.2974V20.8225H56.1754ZM56.1754 21.7006V22.5786H55.2974V21.7006H56.1754ZM56.1754 19.0664V19.9445H55.2974V19.0664H56.1754ZM56.1754 22.5786V23.4567H55.2974V22.5786H56.1754ZM55.2974 22.5786V23.4567H54.4193V22.5786H55.2974ZM55.2974 23.4567V24.3347H54.4193V23.4567H55.2974ZM55.2974 24.3347V25.2128H54.4193V24.3347H55.2974ZM55.2974 25.2128V26.0908H54.4193V25.2128H55.2974ZM55.2974 26.0908V26.9689H54.4193V26.0908H55.2974ZM55.2974 26.9689V27.8469H54.4193V26.9689H55.2974ZM54.4193 26.9689V27.8469H53.5413V26.9689H54.4193ZM54.4193 26.0908V26.9689H53.5413V26.0908H54.4193ZM54.4193 27.8469V28.725H53.5413V27.8469H54.4193ZM54.4193 28.725V29.603H53.5413V28.725H54.4193ZM54.4193 29.603V30.4811H53.5413V29.603H54.4193ZM55.2974 29.603V30.4811H54.4193V29.603H55.2974ZM56.1754 29.603V30.4811H55.2974V29.603H56.1754ZM56.1754 28.725V29.603H55.2974V28.725H56.1754ZM57.0534 28.725V29.603H56.1754V28.725H57.0534ZM57.9315 28.725V29.603H57.0534V28.725H57.9315ZM57.9315 29.603V30.4811H57.0534V29.603H57.9315ZM57.0534 29.603V30.4811H56.1754V29.603H57.0534ZM55.2974 28.725V29.603H54.4193V28.725H55.2974ZM57.0534 27.8469V28.725H56.1754V27.8469H57.0534ZM57.9315 27.8469V28.725H57.0534V27.8469H57.9315ZM57.9315 26.9689V27.8469H57.0534V26.9689H57.9315ZM57.9315 26.0908V26.9689H57.0534V26.0908H57.9315ZM57.9315 25.2128V26.0908H57.0534V25.2128H57.9315ZM57.0534 25.2128V26.0908H56.1754V25.2128H57.0534ZM57.0534 26.0908V26.9689H56.1754V26.0908H57.0534ZM56.1754 26.9689V27.8469H55.2974V26.9689H56.1754ZM56.1754 27.8469V28.725H55.2974V27.8469H56.1754ZM55.2974 27.8469V28.725H54.4193V27.8469H55.2974ZM57.0534 26.9689V27.8469H56.1754V26.9689H57.0534ZM58.8095 25.2128V26.0908H57.9315V25.2128H58.8095ZM58.8095 24.3347V25.2128H57.9315V24.3347H58.8095ZM58.8095 23.4567V24.3347H57.9315V23.4567H58.8095ZM58.8095 22.5786V23.4567H57.9315V22.5786H58.8095ZM58.8095 21.7006V22.5786H57.9315V21.7006H58.8095ZM59.6876 21.7006V22.5786H58.8095V21.7006H59.6876ZM59.6876 20.8225V21.7006H58.8095V20.8225H59.6876ZM59.6876 19.9445V20.8225H58.8095V19.9445H59.6876ZM59.6876 19.0664V19.9445H58.8095V19.0664H59.6876ZM59.6876 18.1884V19.0664H58.8095V18.1884H59.6876ZM59.6876 17.3103V18.1884H58.8095V17.3103H59.6876ZM60.5656 17.3103V18.1884H59.6876V17.3103H60.5656ZM60.5656 18.1884V19.0664H59.6876V18.1884H60.5656ZM60.5656 16.4323V17.3103H59.6876V16.4323H60.5656ZM60.5656 15.5542V16.4323H59.6876V15.5542H60.5656ZM60.5656 14.6762V15.5542H59.6876V14.6762H60.5656ZM60.5656 13.7981V14.6762H59.6876V13.7981H60.5656ZM61.4437 13.7981V14.6762H60.5656V13.7981H61.4437ZM61.4437 14.6762V15.5542H60.5656V14.6762H61.4437ZM61.4437 12.9201V13.7981H60.5656V12.9201H61.4437ZM61.4437 12.042V12.9201H60.5656V12.042H61.4437ZM61.4437 11.164V12.042H60.5656V11.164H61.4437ZM62.3217 11.164V12.042H61.4437V11.164H62.3217ZM62.3217 10.2859V11.164H61.4437V10.2859H62.3217ZM62.3217 9.40789V10.2859H61.4437V9.40789H62.3217ZM62.3217 8.52985V9.40789H61.4437V8.52985H62.3217ZM62.3217 7.6518V8.52985H61.4437V7.6518H62.3217ZM63.1998 6.77375V7.6518H62.3217V6.77375H63.1998ZM63.1998 7.6518V8.52985H62.3217V7.6518H63.1998ZM63.1998 5.8957V6.77375H62.3217V5.8957H63.1998ZM63.1998 5.01765V5.8957H62.3217V5.01765H63.1998ZM63.1998 4.1396V5.01765H62.3217V4.1396H63.1998ZM62.3217 4.1396V5.01765H61.4437V4.1396H62.3217ZM61.4437 4.1396V5.01765H60.5656V4.1396H61.4437ZM60.5656 4.1396V5.01765H59.6876V4.1396H60.5656ZM60.5656 5.01765V5.8957H59.6876V5.01765H60.5656ZM61.4437 5.01765V5.8957H60.5656V5.01765H61.4437ZM62.3217 5.01765V5.8957H61.4437V5.01765H62.3217ZM62.3217 5.8957V6.77375H61.4437V5.8957H62.3217ZM62.3217 6.77375V7.6518H61.4437V6.77375H62.3217ZM61.4437 6.77375V7.6518H60.5656V6.77375H61.4437ZM61.4437 5.8957V6.77375H60.5656V5.8957H61.4437ZM60.5656 5.8957V6.77375H59.6876V5.8957H60.5656ZM60.5656 6.77375V7.6518H59.6876V6.77375H60.5656ZM60.5656 7.6518V8.52985H59.6876V7.6518H60.5656ZM60.5656 8.52985V9.40789H59.6876V8.52985H60.5656ZM60.5656 9.40789V10.2859H59.6876V9.40789H60.5656ZM60.5656 10.2859V11.164H59.6876V10.2859H60.5656ZM61.4437 10.2859V11.164H60.5656V10.2859H61.4437ZM61.4437 9.40789V10.2859H60.5656V9.40789H61.4437ZM61.4437 7.6518V8.52985H60.5656V7.6518H61.4437ZM61.4437 8.52985V9.40789H60.5656V8.52985H61.4437ZM60.5656 11.164V12.042H59.6876V11.164H60.5656ZM60.5656 12.042V12.9201H59.6876V12.042H60.5656ZM60.5656 12.9201V13.7981H59.6876V12.9201H60.5656ZM59.6876 12.9201V13.7981H58.8095V12.9201H59.6876ZM59.6876 12.042V12.9201H58.8095V12.042H59.6876ZM59.6876 11.164V12.042H58.8095V11.164H59.6876ZM59.6876 10.2859V11.164H58.8095V10.2859H59.6876ZM59.6876 13.7981V14.6762H58.8095V13.7981H59.6876ZM59.6876 14.6762V15.5542H58.8095V14.6762H59.6876ZM59.6876 15.5542V16.4323H58.8095V15.5542H59.6876ZM59.6876 16.4323V17.3103H58.8095V16.4323H59.6876ZM58.8095 17.3103V18.1884H57.9315V17.3103H58.8095ZM58.8095 16.4323V17.3103H57.9315V16.4323H58.8095ZM58.8095 15.5542V16.4323H57.9315V15.5542H58.8095ZM58.8095 14.6762V15.5542H57.9315V14.6762H58.8095ZM58.8095 13.7981V14.6762H57.9315V13.7981H58.8095ZM58.8095 18.1884V19.0664H57.9315V18.1884H58.8095ZM58.8095 19.0664V19.9445H57.9315V19.0664H58.8095ZM57.9315 19.9445V20.8225H57.0534V19.9445H57.9315ZM57.9315 20.8225V21.7006H57.0534V20.8225H57.9315ZM58.8095 20.8225V21.7006H57.9315V20.8225H58.8095ZM58.8095 19.9445V20.8225H57.9315V19.9445H58.8095ZM57.9315 19.0664V19.9445H57.0534V19.0664H57.9315ZM57.9315 18.1884V19.0664H57.0534V18.1884H57.9315ZM57.9315 17.3103V18.1884H57.0534V17.3103H57.9315ZM57.9315 21.7006V22.5786H57.0534V21.7006H57.9315ZM57.9315 22.5786V23.4567H57.0534V22.5786H57.9315ZM57.9315 23.4567V24.3347H57.0534V23.4567H57.9315ZM57.0534 24.3347V25.2128H56.1754V24.3347H57.0534ZM57.0534 23.4567V24.3347H56.1754V23.4567H57.0534ZM57.0534 22.5786V23.4567H56.1754V22.5786H57.0534ZM57.9315 24.3347V25.2128H57.0534V24.3347H57.9315ZM57.0534 21.7006V22.5786H56.1754V21.7006H57.0534ZM56.1754 23.4567V24.3347H55.2974V23.4567H56.1754ZM56.1754 24.3347V25.2128H55.2974V24.3347H56.1754ZM56.1754 25.2128V26.0908H55.2974V25.2128H56.1754ZM56.1754 26.0908V26.9689H55.2974V26.0908H56.1754ZM2.63415 56.2128V57.0908H1.7561V56.2128H2.63415ZM2.63415 55.3347V56.2128H1.7561V55.3347H2.63415ZM2.63415 54.4567V55.3347H1.7561V54.4567H2.63415ZM2.63415 53.5786V54.4567H1.7561V53.5786H2.63415ZM2.63415 52.7006V53.5786H1.7561V52.7006H2.63415ZM2.63415 51.8225V52.7006H1.7561V51.8225H2.63415ZM2.63415 50.9445V51.8225H1.7561V50.9445H2.63415ZM2.63415 50.0664V50.9445H1.7561V50.0664H2.63415ZM2.63415 49.1884V50.0664H1.7561V49.1884H2.63415ZM2.63415 48.3103V49.1884H1.7561V48.3103H2.63415ZM2.63415 47.4323V48.3103H1.7561V47.4323H2.63415ZM2.63415 46.5542V47.4323H1.7561V46.5542H2.63415ZM2.63415 45.6762V46.5542H1.7561V45.6762H2.63415ZM2.63415 44.7981V45.6762H1.7561V44.7981H2.63415ZM2.63415 43.9201V44.7981H1.7561V43.9201H2.63415ZM3.51219 43.9201V44.7981H2.63415V43.9201H3.51219ZM3.51219 44.7981V45.6762H2.63415V44.7981H3.51219ZM3.51219 45.6762V46.5542H2.63415V45.6762H3.51219ZM3.51219 46.5542V47.4323H2.63415V46.5542H3.51219ZM3.51219 47.4323V48.3103H2.63415V47.4323H3.51219ZM3.51219 48.3103V49.1884H2.63415V48.3103H3.51219ZM3.51219 49.1884V50.0664H2.63415V49.1884H3.51219ZM4.39024 50.0664V50.9445H3.51219V50.0664H4.39024ZM4.39024 50.9445V51.8225H3.51219V50.9445H4.39024ZM4.39024 51.8225V52.7006H3.51219V51.8225H4.39024ZM4.39024 52.7006V53.5786H3.51219V52.7006H4.39024ZM4.39024 53.5786V54.4567H3.51219V53.5786H4.39024ZM4.39024 54.4567V55.3347H3.51219V54.4567H4.39024ZM4.39024 55.3347V56.2128H3.51219V55.3347H4.39024ZM4.39024 56.2128V57.0908H3.51219V56.2128H4.39024ZM5.26829 56.2128V57.0908H4.39024V56.2128H5.26829ZM6.14634 56.2128V57.0908H5.26829V56.2128H6.14634ZM6.14634 55.3347V56.2128H5.26829V55.3347H6.14634ZM6.14634 54.4567V55.3347H5.26829V54.4567H6.14634ZM6.14634 53.5786V54.4567H5.26829V53.5786H6.14634ZM6.14634 52.7006V53.5786H5.26829V52.7006H6.14634ZM6.14634 51.8225V52.7006H5.26829V51.8225H6.14634ZM6.14634 50.9445V51.8225H5.26829V50.9445H6.14634ZM6.14634 50.0664V50.9445H5.26829V50.0664H6.14634ZM5.26829 50.0664V50.9445H4.39024V50.0664H5.26829ZM5.26829 49.1884V50.0664H4.39024V49.1884H5.26829ZM5.26829 50.9445V51.8225H4.39024V50.9445H5.26829ZM5.26829 51.8225V52.7006H4.39024V51.8225H5.26829ZM5.26829 52.7006V53.5786H4.39024V52.7006H5.26829ZM5.26829 53.5786V54.4567H4.39024V53.5786H5.26829ZM5.26829 54.4567V55.3347H4.39024V54.4567H5.26829ZM5.26829 55.3347V56.2128H4.39024V55.3347H5.26829ZM3.51219 56.2128V57.0908H2.63415V56.2128H3.51219ZM3.51219 55.3347V56.2128H2.63415V55.3347H3.51219ZM3.51219 54.4567V55.3347H2.63415V54.4567H3.51219ZM3.51219 53.5786V54.4567H2.63415V53.5786H3.51219ZM3.51219 52.7006V53.5786H2.63415V52.7006H3.51219ZM3.51219 51.8225V52.7006H2.63415V51.8225H3.51219ZM3.51219 50.9445V51.8225H2.63415V50.9445H3.51219ZM3.51219 50.0664V50.9445H2.63415V50.0664H3.51219ZM2.63415 35.1396V36.0177H1.7561V35.1396H2.63415ZM2.63415 36.0177V36.8957H1.7561V36.0177H2.63415ZM2.63415 36.8957V37.7737H1.7561V36.8957H2.63415ZM2.63415 37.7737V38.6518H1.7561V37.7737H2.63415ZM2.63415 38.6518V39.5298H1.7561V38.6518H2.63415ZM2.63415 39.5298V40.4079H1.7561V39.5298H2.63415ZM2.63415 40.4079V41.2859H1.7561V40.4079H2.63415ZM2.63415 41.2859V42.164H1.7561V41.2859H2.63415ZM2.63415 42.164V43.042H1.7561V42.164H2.63415ZM2.63415 43.042V43.9201H1.7561V43.042H2.63415ZM5.26829 35.1396V36.0177H4.39024V35.1396H5.26829ZM5.26829 36.0177V36.8957H4.39024V36.0177H5.26829ZM5.26829 36.8957V37.7737H4.39024V36.8957H5.26829ZM5.26829 37.7737V38.6518H4.39024V37.7737H5.26829ZM5.26829 38.6518V39.5298H4.39024V38.6518H5.26829ZM5.26829 39.5298V40.4079H4.39024V39.5298H5.26829ZM5.26829 41.2859V42.164H4.39024V41.2859H5.26829ZM5.26829 42.164V43.042H4.39024V42.164H5.26829ZM5.26829 43.042V43.9201H4.39024V43.042H5.26829ZM5.26829 43.9201V44.7981H4.39024V43.9201H5.26829ZM5.26829 44.7981V45.6762H4.39024V44.7981H5.26829ZM5.26829 45.6762V46.5542H4.39024V45.6762H5.26829ZM5.26829 46.5542V47.4323H4.39024V46.5542H5.26829ZM6.14634 47.4323V48.3103H5.26829V47.4323H6.14634ZM6.14634 48.3103V49.1884H5.26829V48.3103H6.14634ZM6.14634 49.1884V50.0664H5.26829V49.1884H6.14634ZM6.14634 46.5542V47.4323H5.26829V46.5542H6.14634ZM6.14634 45.6762V46.5542H5.26829V45.6762H6.14634ZM6.14634 44.7981V45.6762H5.26829V44.7981H6.14634ZM6.14634 43.9201V44.7981H5.26829V43.9201H6.14634ZM6.14634 43.042V43.9201H5.26829V43.042H6.14634ZM6.14634 42.164V43.042H5.26829V42.164H6.14634ZM6.14634 41.2859V42.164H5.26829V41.2859H6.14634ZM6.14634 40.4079V41.2859H5.26829V40.4079H6.14634ZM6.14634 39.5298V40.4079H5.26829V39.5298H6.14634ZM6.14634 38.6518V39.5298H5.26829V38.6518H6.14634ZM5.26829 40.4079V41.2859H4.39024V40.4079H5.26829ZM6.14634 37.7737V38.6518H5.26829V37.7737H6.14634ZM6.14634 36.8957V37.7737H5.26829V36.8957H6.14634ZM6.14634 36.0177V36.8957H5.26829V36.0177H6.14634ZM6.14634 35.1396V36.0177H5.26829V35.1396H6.14634ZM4.39024 35.1396V36.0177H3.51219V35.1396H4.39024ZM3.51219 35.1396V36.0177H2.63415V35.1396H3.51219ZM3.51219 36.0177V36.8957H2.63415V36.0177H3.51219ZM4.39024 36.0177V36.8957H3.51219V36.0177H4.39024ZM4.39024 36.8957V37.7737H3.51219V36.8957H4.39024ZM4.39024 37.7737V38.6518H3.51219V37.7737H4.39024ZM4.39024 38.6518V39.5298H3.51219V38.6518H4.39024ZM4.39024 39.5298V40.4079H3.51219V39.5298H4.39024ZM4.39024 40.4079V41.2859H3.51219V40.4079H4.39024ZM4.39024 41.2859V42.164H3.51219V41.2859H4.39024ZM3.51219 42.164V43.042H2.63415V42.164H3.51219ZM3.51219 43.042V43.9201H2.63415V43.042H3.51219ZM3.51219 41.2859V42.164H2.63415V41.2859H3.51219ZM3.51219 40.4079V41.2859H2.63415V40.4079H3.51219ZM3.51219 39.5298V40.4079H2.63415V39.5298H3.51219ZM3.51219 38.6518V39.5298H2.63415V38.6518H3.51219ZM3.51219 37.7737V38.6518H2.63415V37.7737H3.51219ZM3.51219 36.8957V37.7737H2.63415V36.8957H3.51219ZM4.39024 42.164V43.042H3.51219V42.164H4.39024ZM4.39024 43.042V43.9201H3.51219V43.042H4.39024ZM4.39024 43.9201V44.7981H3.51219V43.9201H4.39024ZM4.39024 44.7981V45.6762H3.51219V44.7981H4.39024ZM4.39024 45.6762V46.5542H3.51219V45.6762H4.39024ZM4.39024 46.5542V47.4323H3.51219V46.5542H4.39024ZM4.39024 47.4323V48.3103H3.51219V47.4323H4.39024ZM4.39024 48.3103V49.1884H3.51219V48.3103H4.39024ZM4.39024 49.1884V50.0664H3.51219V49.1884H4.39024ZM5.26829 48.3103V49.1884H4.39024V48.3103H5.26829ZM5.26829 47.4323V48.3103H4.39024V47.4323H5.26829ZM7.02439 35.1396V36.0177H6.14634V35.1396H7.02439ZM7.90244 35.1396V36.0177H7.02439V35.1396H7.90244ZM7.90244 36.0177V36.8957H7.02439V36.0177H7.90244ZM7.02439 36.0177V36.8957H6.14634V36.0177H7.02439ZM7.02439 36.8957V37.7737H6.14634V36.8957H7.02439ZM7.90244 36.8957V37.7737H7.02439V36.8957H7.90244ZM7.90244 37.7737V38.6518H7.02439V37.7737H7.90244ZM7.02439 37.7737V38.6518H6.14634V37.7737H7.02439ZM7.02439 38.6518V39.5298H6.14634V38.6518H7.02439ZM7.90244 38.6518V39.5298H7.02439V38.6518H7.90244ZM7.02439 56.2128V57.0908H6.14634V56.2128H7.02439ZM7.90244 56.2128V57.0908H7.02439V56.2128H7.90244ZM7.90244 55.3347V56.2128H7.02439V55.3347H7.90244ZM7.90244 54.4567V55.3347H7.02439V54.4567H7.90244ZM7.90244 53.5786V54.4567H7.02439V53.5786H7.90244ZM7.90244 52.7006V53.5786H7.02439V52.7006H7.90244ZM7.02439 52.7006V53.5786H6.14634V52.7006H7.02439ZM7.02439 53.5786V54.4567H6.14634V53.5786H7.02439ZM7.02439 54.4567V55.3347H6.14634V54.4567H7.02439ZM7.02439 55.3347V56.2128H6.14634V55.3347H7.02439ZM12.2927 42.164V43.042H11.4146V42.164H12.2927ZM12.2927 41.2859V42.164H11.4146V41.2859H12.2927ZM12.2927 40.4079V41.2859H11.4146V40.4079H12.2927ZM11.4146 39.5298V40.4079H10.5366V39.5298H11.4146ZM10.5366 38.6518V39.5298H9.65854V38.6518H10.5366ZM9.65854 38.6518V39.5298H8.78049V38.6518H9.65854ZM8.78049 38.6518V39.5298H7.90244V38.6518H8.78049ZM8.78049 35.1396V36.0177H7.90244V35.1396H8.78049ZM9.65854 35.1396V36.0177H8.78049V35.1396H9.65854ZM10.5366 35.1396V36.0177H9.65854V35.1396H10.5366ZM11.4146 35.1396V36.0177H10.5366V35.1396H11.4146ZM11.4146 36.0177V36.8957H10.5366V36.0177H11.4146ZM11.4146 36.8957V37.7737H10.5366V36.8957H11.4146ZM11.4146 37.7737V38.6518H10.5366V37.7737H11.4146ZM10.5366 37.7737V38.6518H9.65854V37.7737H10.5366ZM10.5366 36.8957V37.7737H9.65854V36.8957H10.5366ZM9.65854 36.8957V37.7737H8.78049V36.8957H9.65854ZM8.78049 36.8957V37.7737H7.90244V36.8957H8.78049ZM8.78049 36.0177V36.8957H7.90244V36.0177H8.78049ZM9.65854 36.0177V36.8957H8.78049V36.0177H9.65854ZM10.5366 36.0177V36.8957H9.65854V36.0177H10.5366ZM8.78049 37.7737V38.6518H7.90244V37.7737H8.78049ZM9.65854 37.7737V38.6518H8.78049V37.7737H9.65854ZM11.4146 38.6518V39.5298H10.5366V38.6518H11.4146ZM12.2927 39.5298V40.4079H11.4146V39.5298H12.2927ZM12.2927 38.6518V39.5298H11.4146V38.6518H12.2927ZM12.2927 37.7737V38.6518H11.4146V37.7737H12.2927ZM12.2927 36.8957V37.7737H11.4146V36.8957H12.2927ZM12.2927 36.0177V36.8957H11.4146V36.0177H12.2927ZM12.2927 35.1396V36.0177H11.4146V35.1396H12.2927ZM12.2927 43.042V43.9201H11.4146V43.042H12.2927ZM12.2927 43.9201V44.7981H11.4146V43.9201H12.2927ZM12.2927 44.7981V45.6762H11.4146V44.7981H12.2927ZM12.2927 45.6762V46.5542H11.4146V45.6762H12.2927ZM12.2927 46.5542V47.4323H11.4146V46.5542H12.2927ZM12.2927 47.4323V48.3103H11.4146V47.4323H12.2927ZM12.2927 49.1884V50.0664H11.4146V49.1884H12.2927ZM12.2927 48.3103V49.1884H11.4146V48.3103H12.2927ZM12.2927 50.0664V50.9445H11.4146V50.0664H12.2927ZM12.2927 50.9445V51.8225H11.4146V50.9445H12.2927ZM8.78049 52.7006V53.5786H7.90244V52.7006H8.78049ZM9.65854 52.7006V53.5786H8.78049V52.7006H9.65854ZM10.5366 52.7006V53.5786H9.65854V52.7006H10.5366ZM11.4146 51.8225V52.7006H10.5366V51.8225H11.4146ZM12.2927 51.8225V52.7006H11.4146V51.8225H12.2927ZM12.2927 52.7006V53.5786H11.4146V52.7006H12.2927ZM11.4146 52.7006V53.5786H10.5366V52.7006H11.4146ZM12.2927 53.5786V54.4567H11.4146V53.5786H12.2927ZM12.2927 54.4567V55.3347H11.4146V54.4567H12.2927ZM12.2927 55.3347V56.2128H11.4146V55.3347H12.2927ZM12.2927 56.2128V57.0908H11.4146V56.2128H12.2927ZM11.4146 56.2128V57.0908H10.5366V56.2128H11.4146ZM11.4146 55.3347V56.2128H10.5366V55.3347H11.4146ZM10.5366 55.3347V56.2128H9.65854V55.3347H10.5366ZM9.65854 56.2128V57.0908H8.78049V56.2128H9.65854ZM8.78049 56.2128V57.0908H7.90244V56.2128H8.78049ZM10.5366 56.2128V57.0908H9.65854V56.2128H10.5366ZM9.65854 55.3347V56.2128H8.78049V55.3347H9.65854ZM8.78049 55.3347V56.2128H7.90244V55.3347H8.78049ZM8.78049 54.4567V55.3347H7.90244V54.4567H8.78049ZM9.65854 54.4567V55.3347H8.78049V54.4567H9.65854ZM10.5366 54.4567V55.3347H9.65854V54.4567H10.5366ZM11.4146 54.4567V55.3347H10.5366V54.4567H11.4146ZM11.4146 53.5786V54.4567H10.5366V53.5786H11.4146ZM10.5366 53.5786V54.4567H9.65854V53.5786H10.5366ZM9.65854 53.5786V54.4567H8.78049V53.5786H9.65854ZM8.78049 53.5786V54.4567H7.90244V53.5786H8.78049ZM13.1707 36.0177V36.8957H12.2927V36.0177H13.1707ZM14.0488 36.0177V36.8957H13.1707V36.0177H14.0488ZM14.0488 36.8957V37.7737H13.1707V36.8957H14.0488ZM14.9268 36.8957V37.7737H14.0488V36.8957H14.9268ZM14.9268 37.7737V38.6518H14.0488V37.7737H14.9268ZM14.9268 38.6518V39.5298H14.0488V38.6518H14.9268ZM15.8049 38.6518V39.5298H14.9268V38.6518H15.8049ZM15.8049 39.5298V40.4079H14.9268V39.5298H15.8049ZM15.8049 40.4079V41.2859H14.9268V40.4079H15.8049ZM15.8049 41.2859V42.164H14.9268V41.2859H15.8049ZM15.8049 42.164V43.042H14.9268V42.164H15.8049ZM15.8049 43.042V43.9201H14.9268V43.042H15.8049ZM15.8049 43.9201V44.7981H14.9268V43.9201H15.8049ZM14.9268 44.7981V45.6762H14.0488V44.7981H14.9268ZM14.0488 45.6762V46.5542H13.1707V45.6762H14.0488ZM14.9268 46.5542V47.4323H14.0488V46.5542H14.9268ZM15.8049 47.4323V48.3103H14.9268V47.4323H15.8049ZM13.1707 55.3347V56.2128H12.2927V55.3347H13.1707ZM14.0488 55.3347V56.2128H13.1707V55.3347H14.0488ZM14.9268 54.4567V55.3347H14.0488V54.4567H14.9268ZM15.8049 52.7006V53.5786H14.9268V52.7006H15.8049ZM14.0488 54.4567V55.3347H13.1707V54.4567H14.0488ZM14.0488 53.5786V54.4567H13.1707V53.5786H14.0488ZM14.9268 53.5786V54.4567H14.0488V53.5786H14.9268ZM15.8049 51.8225V52.7006H14.9268V51.8225H15.8049ZM15.8049 50.9445V51.8225H14.9268V50.9445H15.8049ZM15.8049 50.0664V50.9445H14.9268V50.0664H15.8049ZM15.8049 49.1884V50.0664H14.9268V49.1884H15.8049ZM15.8049 48.3103V49.1884H14.9268V48.3103H15.8049ZM13.1707 46.5542V47.4323H12.2927V46.5542H13.1707ZM14.0488 46.5542V47.4323H13.1707V46.5542H14.0488ZM14.0488 47.4323V48.3103H13.1707V47.4323H14.0488ZM13.1707 47.4323V48.3103H12.2927V47.4323H13.1707ZM14.9268 47.4323V48.3103H14.0488V47.4323H14.9268ZM14.9268 48.3103V49.1884H14.0488V48.3103H14.9268ZM14.9268 49.1884V50.0664H14.0488V49.1884H14.9268ZM14.9268 50.0664V50.9445H14.0488V50.0664H14.9268ZM14.9268 50.9445V51.8225H14.0488V50.9445H14.9268ZM14.9268 51.8225V52.7006H14.0488V51.8225H14.9268ZM14.9268 52.7006V53.5786H14.0488V52.7006H14.9268ZM14.0488 52.7006V53.5786H13.1707V52.7006H14.0488ZM14.0488 51.8225V52.7006H13.1707V51.8225H14.0488ZM14.0488 50.9445V51.8225H13.1707V50.9445H14.0488ZM14.0488 50.0664V50.9445H13.1707V50.0664H14.0488ZM14.0488 49.1884V50.0664H13.1707V49.1884H14.0488ZM14.0488 48.3103V49.1884H13.1707V48.3103H14.0488ZM13.1707 48.3103V49.1884H12.2927V48.3103H13.1707ZM13.1707 49.1884V50.0664H12.2927V49.1884H13.1707ZM13.1707 50.0664V50.9445H12.2927V50.0664H13.1707ZM13.1707 50.9445V51.8225H12.2927V50.9445H13.1707ZM13.1707 51.8225V52.7006H12.2927V51.8225H13.1707ZM13.1707 52.7006V53.5786H12.2927V52.7006H13.1707ZM13.1707 53.5786V54.4567H12.2927V53.5786H13.1707ZM13.1707 54.4567V55.3347H12.2927V54.4567H13.1707ZM13.1707 36.8957V37.7737H12.2927V36.8957H13.1707ZM13.1707 37.7737V38.6518H12.2927V37.7737H13.1707ZM13.1707 38.6518V39.5298H12.2927V38.6518H13.1707ZM13.1707 39.5298V40.4079H12.2927V39.5298H13.1707ZM13.1707 40.4079V41.2859H12.2927V40.4079H13.1707ZM13.1707 41.2859V42.164H12.2927V41.2859H13.1707ZM13.1707 42.164V43.042H12.2927V42.164H13.1707ZM13.1707 43.042V43.9201H12.2927V43.042H13.1707ZM13.1707 43.9201V44.7981H12.2927V43.9201H13.1707ZM13.1707 44.7981V45.6762H12.2927V44.7981H13.1707ZM13.1707 45.6762V46.5542H12.2927V45.6762H13.1707ZM14.0488 44.7981V45.6762H13.1707V44.7981H14.0488ZM14.0488 43.9201V44.7981H13.1707V43.9201H14.0488ZM14.0488 43.042V43.9201H13.1707V43.042H14.0488ZM14.0488 42.164V43.042H13.1707V42.164H14.0488ZM14.0488 41.2859V42.164H13.1707V41.2859H14.0488ZM14.0488 40.4079V41.2859H13.1707V40.4079H14.0488ZM14.0488 39.5298V40.4079H13.1707V39.5298H14.0488ZM14.0488 38.6518V39.5298H13.1707V38.6518H14.0488ZM14.0488 37.7737V38.6518H13.1707V37.7737H14.0488ZM14.9268 39.5298V40.4079H14.0488V39.5298H14.9268ZM14.9268 40.4079V41.2859H14.0488V40.4079H14.9268ZM14.9268 41.2859V42.164H14.0488V41.2859H14.9268ZM14.9268 42.164V43.042H14.0488V42.164H14.9268ZM14.9268 43.042V43.9201H14.0488V43.042H14.9268ZM14.9268 43.9201V44.7981H14.0488V43.9201H14.9268ZM15.8049 44.7981V45.6762H14.9268V44.7981H15.8049ZM15.8049 45.6762V46.5542H14.9268V45.6762H15.8049ZM15.8049 46.5542V47.4323H14.9268V46.5542H15.8049ZM14.9268 45.6762V46.5542H14.0488V45.6762H14.9268ZM20.2123 56.2128V57.0908H19.3342V56.2128H20.2123ZM20.2123 55.3347V56.2128H19.3342V55.3347H20.2123ZM20.2123 54.4567V55.3347H19.3342V54.4567H20.2123ZM20.2123 53.5786V54.4567H19.3342V53.5786H20.2123ZM20.2123 52.7006V53.5786H19.3342V52.7006H20.2123ZM20.2123 51.8225V52.7006H19.3342V51.8225H20.2123ZM20.2123 50.9445V51.8225H19.3342V50.9445H20.2123ZM20.2123 50.0664V50.9445H19.3342V50.0664H20.2123ZM20.2123 49.1884V50.0664H19.3342V49.1884H20.2123ZM20.2123 48.3103V49.1884H19.3342V48.3103H20.2123ZM20.2123 47.4323V48.3103H19.3342V47.4323H20.2123ZM20.2123 46.5542V47.4323H19.3342V46.5542H20.2123ZM20.2123 45.6762V46.5542H19.3342V45.6762H20.2123ZM20.2123 44.7981V45.6762H19.3342V44.7981H20.2123ZM20.2123 43.9201V44.7981H19.3342V43.9201H20.2123ZM21.0903 43.9201V44.7981H20.2123V43.9201H21.0903ZM21.0903 44.7981V45.6762H20.2123V44.7981H21.0903ZM21.0903 45.6762V46.5542H20.2123V45.6762H21.0903ZM21.0903 46.5542V47.4323H20.2123V46.5542H21.0903ZM21.0903 47.4323V48.3103H20.2123V47.4323H21.0903ZM21.0903 48.3103V49.1884H20.2123V48.3103H21.0903ZM21.0903 49.1884V50.0664H20.2123V49.1884H21.0903ZM21.9684 50.0664V50.9445H21.0903V50.0664H21.9684ZM21.9684 50.9445V51.8225H21.0903V50.9445H21.9684ZM21.9684 51.8225V52.7006H21.0903V51.8225H21.9684ZM21.9684 52.7006V53.5786H21.0903V52.7006H21.9684ZM21.9684 53.5786V54.4567H21.0903V53.5786H21.9684ZM21.9684 54.4567V55.3347H21.0903V54.4567H21.9684ZM21.9684 55.3347V56.2128H21.0903V55.3347H21.9684ZM21.9684 56.2128V57.0908H21.0903V56.2128H21.9684ZM22.8464 56.2128V57.0908H21.9684V56.2128H22.8464ZM23.7245 56.2128V57.0908H22.8464V56.2128H23.7245ZM23.7245 55.3347V56.2128H22.8464V55.3347H23.7245ZM23.7245 54.4567V55.3347H22.8464V54.4567H23.7245ZM23.7245 53.5786V54.4567H22.8464V53.5786H23.7245ZM23.7245 52.7006V53.5786H22.8464V52.7006H23.7245ZM23.7245 51.8225V52.7006H22.8464V51.8225H23.7245ZM23.7245 50.9445V51.8225H22.8464V50.9445H23.7245ZM23.7245 50.0664V50.9445H22.8464V50.0664H23.7245ZM22.8464 50.0664V50.9445H21.9684V50.0664H22.8464ZM22.8464 49.1884V50.0664H21.9684V49.1884H22.8464ZM22.8464 50.9445V51.8225H21.9684V50.9445H22.8464ZM22.8464 51.8225V52.7006H21.9684V51.8225H22.8464ZM22.8464 52.7006V53.5786H21.9684V52.7006H22.8464ZM22.8464 53.5786V54.4567H21.9684V53.5786H22.8464ZM22.8464 54.4567V55.3347H21.9684V54.4567H22.8464ZM22.8464 55.3347V56.2128H21.9684V55.3347H22.8464ZM21.0903 56.2128V57.0908H20.2123V56.2128H21.0903ZM21.0903 55.3347V56.2128H20.2123V55.3347H21.0903ZM21.0903 54.4567V55.3347H20.2123V54.4567H21.0903ZM21.0903 53.5786V54.4567H20.2123V53.5786H21.0903ZM21.0903 52.7006V53.5786H20.2123V52.7006H21.0903ZM21.0903 51.8225V52.7006H20.2123V51.8225H21.0903ZM21.0903 50.9445V51.8225H20.2123V50.9445H21.0903ZM21.0903 50.0664V50.9445H20.2123V50.0664H21.0903ZM20.2123 41.2859V42.164H19.3342V41.2859H20.2123ZM20.2123 42.164V43.042H19.3342V42.164H20.2123ZM20.2123 43.042V43.9201H19.3342V43.042H20.2123ZM22.8464 39.5298V40.4079H21.9684V39.5298H22.8464ZM22.8464 41.2859V42.164H21.9684V41.2859H22.8464ZM22.8464 42.164V43.042H21.9684V42.164H22.8464ZM22.8464 43.042V43.9201H21.9684V43.042H22.8464ZM22.8464 43.9201V44.7981H21.9684V43.9201H22.8464ZM22.8464 44.7981V45.6762H21.9684V44.7981H22.8464ZM22.8464 45.6762V46.5542H21.9684V45.6762H22.8464ZM22.8464 46.5542V47.4323H21.9684V46.5542H22.8464ZM23.7245 47.4323V48.3103H22.8464V47.4323H23.7245ZM23.7245 48.3103V49.1884H22.8464V48.3103H23.7245ZM23.7245 49.1884V50.0664H22.8464V49.1884H23.7245ZM23.7245 46.5542V47.4323H22.8464V46.5542H23.7245ZM23.7245 45.6762V46.5542H22.8464V45.6762H23.7245ZM23.7245 44.7981V45.6762H22.8464V44.7981H23.7245ZM23.7245 43.9201V44.7981H22.8464V43.9201H23.7245ZM23.7245 43.042V43.9201H22.8464V43.042H23.7245ZM23.7245 42.164V43.042H22.8464V42.164H23.7245ZM23.7245 41.2859V42.164H22.8464V41.2859H23.7245ZM23.7245 40.4079V41.2859H22.8464V40.4079H23.7245ZM23.7245 39.5298V40.4079H22.8464V39.5298H23.7245ZM23.7245 38.6518V39.5298H22.8464V38.6518H23.7245ZM22.8464 40.4079V41.2859H21.9684V40.4079H22.8464ZM23.7245 37.7737V38.6518H22.8464V37.7737H23.7245ZM23.7245 36.8957V37.7737H22.8464V36.8957H23.7245ZM21.9684 39.5298V40.4079H21.0903V39.5298H21.9684ZM21.9684 40.4079V41.2859H21.0903V40.4079H21.9684ZM21.9684 41.2859V42.164H21.0903V41.2859H21.9684ZM21.0903 42.164V43.042H20.2123V42.164H21.0903ZM21.0903 43.042V43.9201H20.2123V43.042H21.0903ZM21.0903 41.2859V42.164H20.2123V41.2859H21.0903ZM21.0903 40.4079V41.2859H20.2123V40.4079H21.0903ZM21.9684 42.164V43.042H21.0903V42.164H21.9684ZM21.9684 43.042V43.9201H21.0903V43.042H21.9684ZM21.9684 43.9201V44.7981H21.0903V43.9201H21.9684ZM21.9684 44.7981V45.6762H21.0903V44.7981H21.9684ZM21.9684 45.6762V46.5542H21.0903V45.6762H21.9684ZM21.9684 46.5542V47.4323H21.0903V46.5542H21.9684ZM21.9684 47.4323V48.3103H21.0903V47.4323H21.9684ZM21.9684 48.3103V49.1884H21.0903V48.3103H21.9684ZM21.9684 49.1884V50.0664H21.0903V49.1884H21.9684ZM22.8464 48.3103V49.1884H21.9684V48.3103H22.8464ZM22.8464 47.4323V48.3103H21.9684V47.4323H22.8464ZM29.8708 56.2128V57.0908H28.9928V56.2128H29.8708ZM29.8708 55.3347V56.2128H28.9928V55.3347H29.8708ZM29.8708 54.4567V55.3347H28.9928V54.4567H29.8708ZM29.8708 53.5786V54.4567H28.9928V53.5786H29.8708ZM29.8708 52.7006V53.5786H28.9928V52.7006H29.8708ZM29.8708 51.8225V52.7006H28.9928V51.8225H29.8708ZM29.8708 50.9445V51.8225H28.9928V50.9445H29.8708ZM29.8708 50.0664V50.9445H28.9928V50.0664H29.8708ZM29.8708 49.1884V50.0664H28.9928V49.1884H29.8708ZM29.8708 48.3103V49.1884H28.9928V48.3103H29.8708ZM29.8708 47.4323V48.3103H28.9928V47.4323H29.8708ZM29.8708 46.5542V47.4323H28.9928V46.5542H29.8708ZM29.8708 45.6762V46.5542H28.9928V45.6762H29.8708ZM29.8708 44.7981V45.6762H28.9928V44.7981H29.8708ZM29.8708 43.9201V44.7981H28.9928V43.9201H29.8708ZM30.7489 43.9201V44.7981H29.8708V43.9201H30.7489ZM30.7489 44.7981V45.6762H29.8708V44.7981H30.7489ZM30.7489 45.6762V46.5542H29.8708V45.6762H30.7489ZM30.7489 46.5542V47.4323H29.8708V46.5542H30.7489ZM30.7489 47.4323V48.3103H29.8708V47.4323H30.7489ZM30.7489 48.3103V49.1884H29.8708V48.3103H30.7489ZM30.7489 49.1884V50.0664H29.8708V49.1884H30.7489ZM31.6269 50.0664V50.9445H30.7489V50.0664H31.6269ZM31.6269 50.9445V51.8225H30.7489V50.9445H31.6269ZM31.6269 51.8225V52.7006H30.7489V51.8225H31.6269ZM31.6269 52.7006V53.5786H30.7489V52.7006H31.6269ZM31.6269 53.5786V54.4567H30.7489V53.5786H31.6269ZM31.6269 54.4567V55.3347H30.7489V54.4567H31.6269ZM31.6269 55.3347V56.2128H30.7489V55.3347H31.6269ZM31.6269 56.2128V57.0908H30.7489V56.2128H31.6269ZM32.505 56.2128V57.0908H31.6269V56.2128H32.505ZM33.383 56.2128V57.0908H32.505V56.2128H33.383ZM33.383 55.3347V56.2128H32.505V55.3347H33.383ZM33.383 54.4567V55.3347H32.505V54.4567H33.383ZM33.383 53.5786V54.4567H32.505V53.5786H33.383ZM33.383 52.7006V53.5786H32.505V52.7006H33.383ZM33.383 51.8225V52.7006H32.505V51.8225H33.383ZM33.383 50.9445V51.8225H32.505V50.9445H33.383ZM33.383 50.0664V50.9445H32.505V50.0664H33.383ZM32.505 50.0664V50.9445H31.6269V50.0664H32.505ZM32.505 49.1884V50.0664H31.6269V49.1884H32.505ZM32.505 50.9445V51.8225H31.6269V50.9445H32.505ZM32.505 51.8225V52.7006H31.6269V51.8225H32.505ZM32.505 52.7006V53.5786H31.6269V52.7006H32.505ZM32.505 53.5786V54.4567H31.6269V53.5786H32.505ZM32.505 54.4567V55.3347H31.6269V54.4567H32.505ZM32.505 55.3347V56.2128H31.6269V55.3347H32.505ZM30.7489 56.2128V57.0908H29.8708V56.2128H30.7489ZM30.7489 55.3347V56.2128H29.8708V55.3347H30.7489ZM30.7489 54.4567V55.3347H29.8708V54.4567H30.7489ZM30.7489 53.5786V54.4567H29.8708V53.5786H30.7489ZM30.7489 52.7006V53.5786H29.8708V52.7006H30.7489ZM30.7489 51.8225V52.7006H29.8708V51.8225H30.7489ZM30.7489 50.9445V51.8225H29.8708V50.9445H30.7489ZM30.7489 50.0664V50.9445H29.8708V50.0664H30.7489ZM29.8708 36.8957V37.7737H28.9928V36.8957H29.8708ZM29.8708 37.7737V38.6518H28.9928V37.7737H29.8708ZM29.8708 38.6518V39.5298H28.9928V38.6518H29.8708ZM29.8708 39.5298V40.4079H28.9928V39.5298H29.8708ZM29.8708 40.4079V41.2859H28.9928V40.4079H29.8708ZM29.8708 41.2859V42.164H28.9928V41.2859H29.8708ZM29.8708 42.164V43.042H28.9928V42.164H29.8708ZM29.8708 43.042V43.9201H28.9928V43.042H29.8708ZM32.505 39.5298V40.4079H31.6269V39.5298H32.505ZM32.505 41.2859V42.164H31.6269V41.2859H32.505ZM32.505 42.164V43.042H31.6269V42.164H32.505ZM32.505 43.042V43.9201H31.6269V43.042H32.505ZM32.505 43.9201V44.7981H31.6269V43.9201H32.505ZM32.505 44.7981V45.6762H31.6269V44.7981H32.505ZM32.505 45.6762V46.5542H31.6269V45.6762H32.505ZM32.505 46.5542V47.4323H31.6269V46.5542H32.505ZM33.383 47.4323V48.3103H32.505V47.4323H33.383ZM33.383 48.3103V49.1884H32.505V48.3103H33.383ZM33.383 49.1884V50.0664H32.505V49.1884H33.383ZM33.383 46.5542V47.4323H32.505V46.5542H33.383ZM33.383 45.6762V46.5542H32.505V45.6762H33.383ZM33.383 44.7981V45.6762H32.505V44.7981H33.383ZM33.383 43.9201V44.7981H32.505V43.9201H33.383ZM33.383 43.042V43.9201H32.505V43.042H33.383ZM33.383 42.164V43.042H32.505V42.164H33.383ZM33.383 41.2859V42.164H32.505V41.2859H33.383ZM33.383 40.4079V41.2859H32.505V40.4079H33.383ZM32.505 40.4079V41.2859H31.6269V40.4079H32.505ZM31.6269 38.6518V39.5298H30.7489V38.6518H31.6269ZM31.6269 39.5298V40.4079H30.7489V39.5298H31.6269ZM31.6269 40.4079V41.2859H30.7489V40.4079H31.6269ZM31.6269 41.2859V42.164H30.7489V41.2859H31.6269ZM30.7489 42.164V43.042H29.8708V42.164H30.7489ZM30.7489 43.042V43.9201H29.8708V43.042H30.7489ZM30.7489 41.2859V42.164H29.8708V41.2859H30.7489ZM30.7489 40.4079V41.2859H29.8708V40.4079H30.7489ZM30.7489 39.5298V40.4079H29.8708V39.5298H30.7489ZM30.7489 38.6518V39.5298H29.8708V38.6518H30.7489ZM30.7489 37.7737V38.6518H29.8708V37.7737H30.7489ZM31.6269 42.164V43.042H30.7489V42.164H31.6269ZM31.6269 43.042V43.9201H30.7489V43.042H31.6269ZM31.6269 43.9201V44.7981H30.7489V43.9201H31.6269ZM31.6269 44.7981V45.6762H30.7489V44.7981H31.6269ZM31.6269 45.6762V46.5542H30.7489V45.6762H31.6269ZM31.6269 46.5542V47.4323H30.7489V46.5542H31.6269ZM31.6269 47.4323V48.3103H30.7489V47.4323H31.6269ZM31.6269 48.3103V49.1884H30.7489V48.3103H31.6269ZM31.6269 49.1884V50.0664H30.7489V49.1884H31.6269ZM32.505 48.3103V49.1884H31.6269V48.3103H32.505ZM32.505 47.4323V48.3103H31.6269V47.4323H32.505ZM25.4806 35.1396V36.0177H24.6025V35.1396H25.4806ZM26.3586 35.1396V36.0177H25.4806V35.1396H26.3586ZM27.2367 35.1396V36.0177H26.3586V35.1396H27.2367ZM28.1147 35.1396V36.0177H27.2367V35.1396H28.1147ZM28.9928 36.0177V36.8957H28.1147V36.0177H28.9928ZM28.1147 36.0177V36.8957H27.2367V36.0177H28.1147ZM27.2367 36.0177V36.8957H26.3586V36.0177H27.2367ZM26.3586 36.0177V36.8957H25.4806V36.0177H26.3586ZM25.4806 36.0177V36.8957H24.6025V36.0177H25.4806ZM24.6025 36.0177V36.8957H23.7245V36.0177H24.6025ZM24.6025 36.8957V37.7737H23.7245V36.8957H24.6025ZM24.6025 37.7737V38.6518H23.7245V37.7737H24.6025ZM25.4806 36.8957V37.7737H24.6025V36.8957H25.4806ZM26.3586 36.8957V37.7737H25.4806V36.8957H26.3586ZM27.2367 36.8957V37.7737H26.3586V36.8957H27.2367ZM28.1147 36.8957V37.7737H27.2367V36.8957H28.1147ZM28.9928 36.8957V37.7737H28.1147V36.8957H28.9928ZM28.9928 37.7737V38.6518H28.1147V37.7737H28.9928ZM28.1147 37.7737V38.6518H27.2367V37.7737H28.1147ZM27.2367 37.7737V38.6518H26.3586V37.7737H27.2367ZM26.3586 37.7737V38.6518H25.4806V37.7737H26.3586ZM25.4806 37.7737V38.6518H24.6025V37.7737H25.4806ZM24.6025 38.6518V39.5298H23.7245V38.6518H24.6025ZM25.4806 38.6518V39.5298H24.6025V38.6518H25.4806ZM28.9928 38.6518V39.5298H28.1147V38.6518H28.9928ZM28.1147 38.6518V39.5298H27.2367V38.6518H28.1147ZM28.9928 39.5298V40.4079H28.1147V39.5298H28.9928ZM24.6025 39.5298V40.4079H23.7245V39.5298H24.6025ZM22.8464 37.7737V38.6518H21.9684V37.7737H22.8464ZM22.8464 38.6518V39.5298H21.9684V38.6518H22.8464ZM21.9684 38.6518V39.5298H21.0903V38.6518H21.9684ZM21.0903 39.5298V40.4079H20.2123V39.5298H21.0903ZM20.2123 40.4079V41.2859H19.3342V40.4079H20.2123ZM24.6025 40.4079V41.2859H23.7245V40.4079H24.6025ZM25.4806 39.5298V40.4079H24.6025V39.5298H25.4806ZM26.3586 38.6518V39.5298H25.4806V38.6518H26.3586ZM27.2367 38.6518V39.5298H26.3586V38.6518H27.2367ZM28.1147 39.5298V40.4079H27.2367V39.5298H28.1147ZM28.9928 40.4079V41.2859H28.1147V40.4079H28.9928ZM24.6025 50.9445V51.8225H23.7245V50.9445H24.6025ZM25.4806 50.9445V51.8225H24.6025V50.9445H25.4806ZM26.3586 50.9445V51.8225H25.4806V50.9445H26.3586ZM27.2367 50.9445V51.8225H26.3586V50.9445H27.2367ZM28.1147 50.9445V51.8225H27.2367V50.9445H28.1147ZM28.9928 50.9445V51.8225H28.1147V50.9445H28.9928ZM28.9928 50.0664V50.9445H28.1147V50.0664H28.9928ZM28.1147 50.0664V50.9445H27.2367V50.0664H28.1147ZM27.2367 50.0664V50.9445H26.3586V50.0664H27.2367ZM26.3586 50.0664V50.9445H25.4806V50.0664H26.3586ZM25.4806 50.0664V50.9445H24.6025V50.0664H25.4806ZM24.6025 50.0664V50.9445H23.7245V50.0664H24.6025ZM24.6025 49.1884V50.0664H23.7245V49.1884H24.6025ZM25.4806 49.1884V50.0664H24.6025V49.1884H25.4806ZM26.3586 49.1884V50.0664H25.4806V49.1884H26.3586ZM27.2367 49.1884V50.0664H26.3586V49.1884H27.2367ZM28.1147 49.1884V50.0664H27.2367V49.1884H28.1147ZM28.9928 49.1884V50.0664H28.1147V49.1884H28.9928ZM28.9928 48.3103V49.1884H28.1147V48.3103H28.9928ZM28.1147 48.3103V49.1884H27.2367V48.3103H28.1147ZM27.2367 48.3103V49.1884H26.3586V48.3103H27.2367ZM26.3586 48.3103V49.1884H25.4806V48.3103H26.3586ZM25.4806 48.3103V49.1884H24.6025V48.3103H25.4806ZM24.6025 48.3103V49.1884H23.7245V48.3103H24.6025ZM24.6025 47.4323V48.3103H23.7245V47.4323H24.6025ZM25.4806 47.4323V48.3103H24.6025V47.4323H25.4806ZM26.3586 47.4323V48.3103H25.4806V47.4323H26.3586ZM27.2367 47.4323V48.3103H26.3586V47.4323H27.2367ZM28.1147 47.4323V48.3103H27.2367V47.4323H28.1147ZM28.9928 47.4323V48.3103H28.1147V47.4323H28.9928ZM26.3586 39.5298V40.4079H25.4806V39.5298H26.3586ZM27.2367 39.5298V40.4079H26.3586V39.5298H27.2367ZM25.4806 40.4079V41.2859H24.6025V40.4079H25.4806ZM24.6025 41.2859V42.164H23.7245V41.2859H24.6025ZM28.1147 40.4079V41.2859H27.2367V40.4079H28.1147ZM28.9928 41.2859V42.164H28.1147V41.2859H28.9928ZM37.7904 52.7006V53.5786H36.9123V52.7006H37.7904ZM37.7904 51.8225V52.7006H36.9123V51.8225H37.7904ZM37.7904 50.9445V51.8225H36.9123V50.9445H37.7904ZM37.7904 50.0664V50.9445H36.9123V50.0664H37.7904ZM37.7904 43.9201V44.7981H36.9123V43.9201H37.7904ZM38.6684 43.9201V44.7981H37.7904V43.9201H38.6684ZM38.6684 44.7981V45.6762H37.7904V44.7981H38.6684ZM38.6684 45.6762V46.5542H37.7904V45.6762H38.6684ZM39.5465 50.0664V50.9445H38.6684V50.0664H39.5465ZM39.5465 50.9445V51.8225H38.6684V50.9445H39.5465ZM39.5465 51.8225V52.7006H38.6684V51.8225H39.5465ZM39.5465 52.7006V53.5786H38.6684V52.7006H39.5465ZM39.5465 53.5786V54.4567H38.6684V53.5786H39.5465ZM39.5465 54.4567V55.3347H38.6684V54.4567H39.5465ZM39.5465 55.3347V56.2128H38.6684V55.3347H39.5465ZM41.3026 56.2128V57.0908H40.4245V56.2128H41.3026ZM41.3026 55.3347V56.2128H40.4245V55.3347H41.3026ZM41.3026 54.4567V55.3347H40.4245V54.4567H41.3026ZM41.3026 53.5786V54.4567H40.4245V53.5786H41.3026ZM41.3026 52.7006V53.5786H40.4245V52.7006H41.3026ZM41.3026 51.8225V52.7006H40.4245V51.8225H41.3026ZM41.3026 50.9445V51.8225H40.4245V50.9445H41.3026ZM41.3026 50.0664V50.9445H40.4245V50.0664H41.3026ZM40.4245 50.0664V50.9445H39.5465V50.0664H40.4245ZM40.4245 50.9445V51.8225H39.5465V50.9445H40.4245ZM40.4245 51.8225V52.7006H39.5465V51.8225H40.4245ZM40.4245 52.7006V53.5786H39.5465V52.7006H40.4245ZM40.4245 53.5786V54.4567H39.5465V53.5786H40.4245ZM40.4245 54.4567V55.3347H39.5465V54.4567H40.4245ZM40.4245 55.3347V56.2128H39.5465V55.3347H40.4245ZM38.6684 54.4567V55.3347H37.7904V54.4567H38.6684ZM38.6684 53.5786V54.4567H37.7904V53.5786H38.6684ZM38.6684 52.7006V53.5786H37.7904V52.7006H38.6684ZM38.6684 51.8225V52.7006H37.7904V51.8225H38.6684ZM38.6684 50.9445V51.8225H37.7904V50.9445H38.6684ZM38.6684 50.0664V50.9445H37.7904V50.0664H38.6684ZM37.7904 43.042V43.9201H36.9123V43.042H37.7904ZM40.4245 43.042V43.9201H39.5465V43.042H40.4245ZM40.4245 43.9201V44.7981H39.5465V43.9201H40.4245ZM40.4245 44.7981V45.6762H39.5465V44.7981H40.4245ZM40.4245 45.6762V46.5542H39.5465V45.6762H40.4245ZM40.4245 46.5542V47.4323H39.5465V46.5542H40.4245ZM41.3026 47.4323V48.3103H40.4245V47.4323H41.3026ZM41.3026 46.5542V47.4323H40.4245V46.5542H41.3026ZM41.3026 45.6762V46.5542H40.4245V45.6762H41.3026ZM41.3026 44.7981V45.6762H40.4245V44.7981H41.3026ZM41.3026 43.9201V44.7981H40.4245V43.9201H41.3026ZM41.3026 43.042V43.9201H40.4245V43.042H41.3026ZM38.6684 43.042V43.9201H37.7904V43.042H38.6684ZM39.5465 43.042V43.9201H38.6684V43.042H39.5465ZM39.5465 43.9201V44.7981H38.6684V43.9201H39.5465ZM39.5465 44.7981V45.6762H38.6684V44.7981H39.5465ZM39.5465 45.6762V46.5542H38.6684V45.6762H39.5465ZM39.5465 46.5542V47.4323H38.6684V46.5542H39.5465ZM48.327 56.2128V57.0908H47.4489V56.2128H48.327ZM48.327 55.3347V56.2128H47.4489V55.3347H48.327ZM48.327 54.4567V55.3347H47.4489V54.4567H48.327ZM48.327 53.5786V54.4567H47.4489V53.5786H48.327ZM48.327 52.7006V53.5786H47.4489V52.7006H48.327ZM48.327 51.8225V52.7006H47.4489V51.8225H48.327ZM48.327 50.9445V51.8225H47.4489V50.9445H48.327ZM48.327 50.0664V50.9445H47.4489V50.0664H48.327ZM48.327 49.1884V50.0664H47.4489V49.1884H48.327ZM48.327 48.3103V49.1884H47.4489V48.3103H48.327ZM48.327 47.4323V48.3103H47.4489V47.4323H48.327ZM48.327 46.5542V47.4323H47.4489V46.5542H48.327ZM48.327 45.6762V46.5542H47.4489V45.6762H48.327ZM48.327 44.7981V45.6762H47.4489V44.7981H48.327ZM48.327 43.9201V44.7981H47.4489V43.9201H48.327ZM49.205 44.7981V45.6762H48.327V44.7981H49.205ZM49.205 45.6762V46.5542H48.327V45.6762H49.205ZM49.205 46.5542V47.4323H48.327V46.5542H49.205ZM49.205 47.4323V48.3103H48.327V47.4323H49.205ZM49.205 48.3103V49.1884H48.327V48.3103H49.205ZM49.205 49.1884V50.0664H48.327V49.1884H49.205ZM50.0831 50.0664V50.9445H49.205V50.0664H50.0831ZM50.0831 50.9445V51.8225H49.205V50.9445H50.0831ZM50.0831 51.8225V52.7006H49.205V51.8225H50.0831ZM50.0831 52.7006V53.5786H49.205V52.7006H50.0831ZM50.0831 53.5786V54.4567H49.205V53.5786H50.0831ZM50.0831 54.4567V55.3347H49.205V54.4567H50.0831ZM50.0831 55.3347V56.2128H49.205V55.3347H50.0831ZM51.8392 52.7006V53.5786H50.9611V52.7006H51.8392ZM51.8392 51.8225V52.7006H50.9611V51.8225H51.8392ZM51.8392 50.9445V51.8225H50.9611V50.9445H51.8392ZM51.8392 50.0664V50.9445H50.9611V50.0664H51.8392ZM50.9611 50.0664V50.9445H50.0831V50.0664H50.9611ZM50.9611 49.1884V50.0664H50.0831V49.1884H50.9611ZM50.9611 50.9445V51.8225H50.0831V50.9445H50.9611ZM50.9611 51.8225V52.7006H50.0831V51.8225H50.9611ZM50.9611 52.7006V53.5786H50.0831V52.7006H50.9611ZM50.9611 53.5786V54.4567H50.0831V53.5786H50.9611ZM50.9611 54.4567V55.3347H50.0831V54.4567H50.9611ZM49.205 55.3347V56.2128H48.327V55.3347H49.205ZM49.205 54.4567V55.3347H48.327V54.4567H49.205ZM49.205 53.5786V54.4567H48.327V53.5786H49.205ZM49.205 52.7006V53.5786H48.327V52.7006H49.205ZM49.205 51.8225V52.7006H48.327V51.8225H49.205ZM49.205 50.9445V51.8225H48.327V50.9445H49.205ZM49.205 50.0664V50.9445H48.327V50.0664H49.205ZM50.9611 46.5542V47.4323H50.0831V46.5542H50.9611ZM51.8392 47.4323V48.3103H50.9611V47.4323H51.8392ZM51.8392 48.3103V49.1884H50.9611V48.3103H51.8392ZM51.8392 49.1884V50.0664H50.9611V49.1884H51.8392ZM50.0831 44.7981V45.6762H49.205V44.7981H50.0831ZM50.0831 45.6762V46.5542H49.205V45.6762H50.0831ZM50.0831 46.5542V47.4323H49.205V46.5542H50.0831ZM50.0831 47.4323V48.3103H49.205V47.4323H50.0831ZM50.0831 48.3103V49.1884H49.205V48.3103H50.0831ZM50.0831 49.1884V50.0664H49.205V49.1884H50.0831ZM50.9611 48.3103V49.1884H50.0831V48.3103H50.9611ZM50.9611 47.4323V48.3103H50.0831V47.4323H50.9611ZM42.1806 56.2128V57.0908H41.3026V56.2128H42.1806ZM43.0587 56.2128V57.0908H42.1806V56.2128H43.0587ZM43.9367 56.2128V57.0908H43.0587V56.2128H43.9367ZM45.6928 56.2128V57.0908H44.8148V56.2128H45.6928ZM46.5709 56.2128V57.0908H45.6928V56.2128H46.5709ZM47.4489 56.2128V57.0908H46.5709V56.2128H47.4489ZM47.4489 55.3347V56.2128H46.5709V55.3347H47.4489ZM46.5709 55.3347V56.2128H45.6928V55.3347H46.5709ZM45.6928 55.3347V56.2128H44.8148V55.3347H45.6928ZM43.9367 55.3347V56.2128H43.0587V55.3347H43.9367ZM43.0587 55.3347V56.2128H42.1806V55.3347H43.0587ZM42.1806 55.3347V56.2128H41.3026V55.3347H42.1806ZM42.1806 54.4567V55.3347H41.3026V54.4567H42.1806ZM43.0587 54.4567V55.3347H42.1806V54.4567H43.0587ZM43.9367 54.4567V55.3347H43.0587V54.4567H43.9367ZM45.6928 54.4567V55.3347H44.8148V54.4567H45.6928ZM46.5709 54.4567V55.3347H45.6928V54.4567H46.5709ZM47.4489 54.4567V55.3347H46.5709V54.4567H47.4489ZM47.4489 53.5786V54.4567H46.5709V53.5786H47.4489ZM46.5709 53.5786V54.4567H45.6928V53.5786H46.5709ZM45.6928 53.5786V54.4567H44.8148V53.5786H45.6928ZM43.9367 53.5786V54.4567H43.0587V53.5786H43.9367ZM43.0587 53.5786V54.4567H42.1806V53.5786H43.0587ZM42.1806 53.5786V54.4567H41.3026V53.5786H42.1806ZM42.1806 52.7006V53.5786H41.3026V52.7006H42.1806ZM47.4489 52.7006V53.5786H46.5709V52.7006H47.4489ZM50.9611 39.5298V38.6518H51.8392V39.5298H50.9611ZM50.9611 40.4079V39.5298H51.8392V40.4079H50.9611ZM50.9611 41.2859V40.4079H51.8392V41.2859H50.9611ZM49.205 41.2859V40.4079H50.0831V41.2859H49.205ZM49.205 40.4079V39.5298H50.0831V40.4079H49.205ZM49.205 39.5298V38.6518H50.0831V39.5298H49.205ZM49.205 38.6518V37.7737H50.0831V38.6518H49.205ZM49.205 37.7737V36.8957H50.0831V37.7737H49.205ZM49.205 36.8957V36.0177H50.0831V36.8957H49.205ZM47.4489 36.0177V35.1396H48.327V36.0177H47.4489ZM47.4489 36.8957V36.0177H48.327V36.8957H47.4489ZM47.4489 37.7737V36.8957H48.327V37.7737H47.4489ZM47.4489 38.6518V37.7737H48.327V38.6518H47.4489ZM47.4489 39.5298V38.6518H48.327V39.5298H47.4489ZM47.4489 40.4079V39.5298H48.327V40.4079H47.4489ZM47.4489 41.2859V40.4079H48.327V41.2859H47.4489ZM48.327 41.2859V40.4079H49.205V41.2859H48.327ZM48.327 40.4079V39.5298H49.205V40.4079H48.327ZM48.327 39.5298V38.6518H49.205V39.5298H48.327ZM48.327 38.6518V37.7737H49.205V38.6518H48.327ZM48.327 37.7737V36.8957H49.205V37.7737H48.327ZM48.327 36.8957V36.0177H49.205V36.8957H48.327ZM50.0831 37.7737V36.8957H50.9611V37.7737H50.0831ZM50.0831 38.6518V37.7737H50.9611V38.6518H50.0831ZM50.0831 39.5298V38.6518H50.9611V39.5298H50.0831ZM50.0831 40.4079V39.5298H50.9611V40.4079H50.0831ZM50.0831 41.2859V40.4079H50.9611V41.2859H50.0831ZM40.4245 36.0177V35.1396H41.3026V36.0177H40.4245ZM40.4245 36.8957V36.0177H41.3026V36.8957H40.4245ZM40.4245 37.7737V36.8957H41.3026V37.7737H40.4245ZM40.4245 38.6518V37.7737H41.3026V38.6518H40.4245ZM40.4245 39.5298V38.6518H41.3026V39.5298H40.4245ZM40.4245 40.4079V39.5298H41.3026V40.4079H40.4245ZM40.4245 41.2859V40.4079H41.3026V41.2859H40.4245ZM38.6684 41.2859V40.4079H39.5465V41.2859H38.6684ZM38.6684 40.4079V39.5298H39.5465V40.4079H38.6684ZM38.6684 39.5298V38.6518H39.5465V39.5298H38.6684ZM38.6684 38.6518V37.7737H39.5465V38.6518H38.6684ZM38.6684 37.7737V36.8957H39.5465V37.7737H38.6684ZM38.6684 36.8957V36.0177H39.5465V36.8957H38.6684ZM36.9123 39.5298V38.6518H37.7904V39.5298H36.9123ZM36.9123 40.4079V39.5298H37.7904V40.4079H36.9123ZM36.9123 41.2859V40.4079H37.7904V41.2859H36.9123ZM37.7904 41.2859V40.4079H38.6684V41.2859H37.7904ZM37.7904 40.4079V39.5298H38.6684V40.4079H37.7904ZM37.7904 39.5298V38.6518H38.6684V39.5298H37.7904ZM37.7904 38.6518V37.7737H38.6684V38.6518H37.7904ZM37.7904 37.7737V36.8957H38.6684V37.7737H37.7904ZM39.5465 36.8957V36.0177H40.4245V36.8957H39.5465ZM39.5465 37.7737V36.8957H40.4245V37.7737H39.5465ZM39.5465 38.6518V37.7737H40.4245V38.6518H39.5465ZM39.5465 39.5298V38.6518H40.4245V39.5298H39.5465ZM39.5465 40.4079V39.5298H40.4245V40.4079H39.5465ZM39.5465 41.2859V40.4079H40.4245V41.2859H39.5465ZM46.5709 36.0177V35.1396H47.4489V36.0177H46.5709ZM45.6928 36.0177V35.1396H46.5709V36.0177H45.6928ZM44.8148 36.0177V35.1396H45.6928V36.0177H44.8148ZM43.0587 36.0177V35.1396H43.9367V36.0177H43.0587ZM42.1806 36.0177V35.1396H43.0587V36.0177H42.1806ZM41.3026 36.0177V35.1396H42.1806V36.0177H41.3026ZM41.3026 36.8957V36.0177H42.1806V36.8957H41.3026ZM42.1806 36.8957V36.0177H43.0587V36.8957H42.1806ZM43.0587 36.8957V36.0177H43.9367V36.8957H43.0587ZM44.8148 36.8957V36.0177H45.6928V36.8957H44.8148ZM45.6928 36.8957V36.0177H46.5709V36.8957H45.6928ZM46.5709 36.8957V36.0177H47.4489V36.8957H46.5709ZM46.5709 37.7737V36.8957H47.4489V37.7737H46.5709ZM45.6928 37.7737V36.8957H46.5709V37.7737H45.6928ZM44.8148 37.7737V36.8957H45.6928V37.7737H44.8148ZM43.0587 37.7737V36.8957H43.9367V37.7737H43.0587ZM42.1806 37.7737V36.8957H43.0587V37.7737H42.1806ZM41.3026 37.7737V36.8957H42.1806V37.7737H41.3026ZM41.3026 38.6518V37.7737H42.1806V38.6518H41.3026ZM42.1806 38.6518V37.7737H43.0587V38.6518H42.1806ZM43.0587 38.6518V37.7737H43.9367V38.6518H43.0587ZM44.8148 38.6518V37.7737H45.6928V38.6518H44.8148ZM45.6928 38.6518V37.7737H46.5709V38.6518H45.6928ZM46.5709 38.6518V37.7737H47.4489V38.6518H46.5709ZM46.5709 39.5298V38.6518H47.4489V39.5298H46.5709ZM41.3026 39.5298V38.6518H42.1806V39.5298H41.3026ZM37.7904 42.164V43.042H36.9123V42.164H37.7904ZM38.6684 42.164V43.042H37.7904V42.164H38.6684ZM37.7904 41.2859V42.164H36.9123V41.2859H37.7904ZM40.4245 41.2859V42.164H39.5465V41.2859H40.4245ZM40.4245 42.164V43.042H39.5465V42.164H40.4245ZM41.3026 42.164V43.042H40.4245V42.164H41.3026ZM41.3026 41.2859V42.164H40.4245V41.2859H41.3026ZM38.6684 41.2859V42.164H37.7904V41.2859H38.6684ZM39.5465 41.2859V42.164H38.6684V41.2859H39.5465ZM39.5465 42.164V43.042H38.6684V42.164H39.5465ZM43.0587 52.7006V53.5786H42.1806V52.7006H43.0587ZM43.9367 52.7006V53.5786H43.0587V52.7006H43.9367ZM45.6928 52.7006V53.5786H44.8148V52.7006H45.6928ZM46.5709 52.7006V53.5786H45.6928V52.7006H46.5709ZM47.4489 51.8225V52.7006H46.5709V51.8225H47.4489ZM42.1806 51.8225V52.7006H41.3026V51.8225H42.1806ZM43.0587 38.6518V39.5298H42.1806V38.6518H43.0587ZM43.9367 38.6518V39.5298H43.0587V38.6518H43.9367ZM45.6928 38.6518V39.5298H44.8148V38.6518H45.6928ZM46.5709 38.6518V39.5298H45.6928V38.6518H46.5709ZM47.4489 39.5298V40.4079H46.5709V39.5298H47.4489ZM42.1806 39.5298V40.4079H41.3026V39.5298H42.1806ZM43.9367 45.6762V46.5542H43.0587V45.6762H43.9367ZM45.6928 45.6762V46.5542H44.8148V45.6762H45.6928ZM46.5709 45.6762V46.5542H45.6928V45.6762H46.5709ZM47.4489 45.6762V46.5542H46.5709V45.6762H47.4489ZM47.4489 46.5542V47.4323H46.5709V46.5542H47.4489ZM46.5709 46.5542V47.4323H45.6928V46.5542H46.5709ZM45.6928 46.5542V47.4323H44.8148V46.5542H45.6928ZM43.9367 46.5542V47.4323H43.0587V46.5542H43.9367ZM43.9367 43.9201V44.7981H43.0587V43.9201H43.9367ZM45.6928 43.9201V44.7981H44.8148V43.9201H45.6928ZM46.5709 43.9201V44.7981H45.6928V43.9201H46.5709ZM47.4489 43.9201V44.7981H46.5709V43.9201H47.4489ZM47.4489 44.7981V45.6762H46.5709V44.7981H47.4489ZM46.5709 44.7981V45.6762H45.6928V44.7981H46.5709ZM45.6928 44.7981V45.6762H44.8148V44.7981H45.6928ZM43.9367 44.7981V45.6762H43.0587V44.7981H43.9367ZM43.9367 47.4323V48.3103H43.0587V47.4323H43.9367ZM45.6928 47.4323V48.3103H44.8148V47.4323H45.6928ZM46.5709 47.4323V48.3103H45.6928V47.4323H46.5709ZM47.4489 47.4323V48.3103H46.5709V47.4323H47.4489ZM50.9611 45.6762V46.5542H50.0831V45.6762H50.9611ZM47.4489 48.3103V49.1884H46.5709V48.3103H47.4489ZM42.1806 43.9201V44.7981H41.3026V43.9201H42.1806ZM43.0587 43.9201V44.7981H42.1806V43.9201H43.0587ZM42.1806 43.042V43.9201H41.3026V43.042H42.1806ZM43.0587 44.7981V45.6762H42.1806V44.7981H43.0587ZM43.0587 45.6762V46.5542H42.1806V45.6762H43.0587ZM43.0587 46.5542V47.4323H42.1806V46.5542H43.0587ZM43.0587 47.4323V48.3103H42.1806V47.4323H43.0587ZM42.1806 47.4323V48.3103H41.3026V47.4323H42.1806ZM42.1806 46.5542V47.4323H41.3026V46.5542H42.1806ZM42.1806 45.6762V46.5542H41.3026V45.6762H42.1806ZM42.1806 44.7981V45.6762H41.3026V44.7981H42.1806ZM44.8148 35.1396V36.0177H43.9367V35.1396H44.8148ZM44.8148 36.0177V36.8957H43.9367V36.0177H44.8148ZM44.8148 36.8957V37.7737H43.9367V36.8957H44.8148ZM44.8148 37.7737V38.6518H43.9367V37.7737H44.8148ZM44.8148 38.6518V39.5298H43.9367V38.6518H44.8148ZM44.8148 43.9201V44.7981H43.9367V43.9201H44.8148ZM44.8148 44.7981V45.6762H43.9367V44.7981H44.8148ZM44.8148 45.6762V46.5542H43.9367V45.6762H44.8148ZM44.8148 46.5542V47.4323H43.9367V46.5542H44.8148ZM44.8148 47.4323V48.3103H43.9367V47.4323H44.8148ZM44.8148 52.7006V53.5786H43.9367V52.7006H44.8148ZM44.8148 53.5786V54.4567H43.9367V53.5786H44.8148ZM44.8148 54.4567V55.3347H43.9367V54.4567H44.8148ZM44.8148 55.3347V56.2128H43.9367V55.3347H44.8148ZM44.8148 56.2128V57.0908H43.9367V56.2128H44.8148ZM56.2123 56.2128V57.0908H55.3342V56.2128H56.2123ZM56.2123 55.3347V56.2128H55.3342V55.3347H56.2123ZM56.2123 54.4567V55.3347H55.3342V54.4567H56.2123ZM56.2123 53.5786V54.4567H55.3342V53.5786H56.2123ZM56.2123 52.7006V53.5786H55.3342V52.7006H56.2123ZM56.2123 51.8225V52.7006H55.3342V51.8225H56.2123ZM56.2123 50.9445V51.8225H55.3342V50.9445H56.2123ZM56.2123 50.0664V50.9445H55.3342V50.0664H56.2123ZM56.2123 49.1884V50.0664H55.3342V49.1884H56.2123ZM56.2123 48.3103V49.1884H55.3342V48.3103H56.2123ZM56.2123 47.4323V48.3103H55.3342V47.4323H56.2123ZM56.2123 46.5542V47.4323H55.3342V46.5542H56.2123ZM56.2123 45.6762V46.5542H55.3342V45.6762H56.2123ZM56.2123 44.7981V45.6762H55.3342V44.7981H56.2123ZM56.2123 43.9201V44.7981H55.3342V43.9201H56.2123ZM57.0903 43.9201V44.7981H56.2123V43.9201H57.0903ZM57.0903 44.7981V45.6762H56.2123V44.7981H57.0903ZM57.0903 45.6762V46.5542H56.2123V45.6762H57.0903ZM57.0903 46.5542V47.4323H56.2123V46.5542H57.0903ZM57.0903 47.4323V48.3103H56.2123V47.4323H57.0903ZM57.0903 48.3103V49.1884H56.2123V48.3103H57.0903ZM57.0903 49.1884V50.0664H56.2123V49.1884H57.0903ZM57.9684 50.0664V50.9445H57.0903V50.0664H57.9684ZM57.9684 50.9445V51.8225H57.0903V50.9445H57.9684ZM57.9684 51.8225V52.7006H57.0903V51.8225H57.9684ZM57.9684 52.7006V53.5786H57.0903V52.7006H57.9684ZM57.9684 53.5786V54.4567H57.0903V53.5786H57.9684ZM57.9684 54.4567V55.3347H57.0903V54.4567H57.9684ZM57.9684 55.3347V56.2128H57.0903V55.3347H57.9684ZM57.9684 56.2128V57.0908H57.0903V56.2128H57.9684ZM58.8464 56.2128V57.0908H57.9684V56.2128H58.8464ZM59.7245 56.2128V57.0908H58.8464V56.2128H59.7245ZM59.7245 55.3347V56.2128H58.8464V55.3347H59.7245ZM59.7245 54.4567V55.3347H58.8464V54.4567H59.7245ZM59.7245 53.5786V54.4567H58.8464V53.5786H59.7245ZM59.7245 52.7006V53.5786H58.8464V52.7006H59.7245ZM59.7245 51.8225V52.7006H58.8464V51.8225H59.7245ZM59.7245 50.9445V51.8225H58.8464V50.9445H59.7245ZM59.7245 50.0664V50.9445H58.8464V50.0664H59.7245ZM58.8464 50.0664V50.9445H57.9684V50.0664H58.8464ZM58.8464 49.1884V50.0664H57.9684V49.1884H58.8464ZM58.8464 50.9445V51.8225H57.9684V50.9445H58.8464ZM58.8464 51.8225V52.7006H57.9684V51.8225H58.8464ZM58.8464 52.7006V53.5786H57.9684V52.7006H58.8464ZM58.8464 53.5786V54.4567H57.9684V53.5786H58.8464ZM58.8464 54.4567V55.3347H57.9684V54.4567H58.8464ZM58.8464 55.3347V56.2128H57.9684V55.3347H58.8464ZM57.0903 56.2128V57.0908H56.2123V56.2128H57.0903ZM57.0903 55.3347V56.2128H56.2123V55.3347H57.0903ZM57.0903 54.4567V55.3347H56.2123V54.4567H57.0903ZM57.0903 53.5786V54.4567H56.2123V53.5786H57.0903ZM57.0903 52.7006V53.5786H56.2123V52.7006H57.0903ZM57.0903 51.8225V52.7006H56.2123V51.8225H57.0903ZM57.0903 50.9445V51.8225H56.2123V50.9445H57.0903ZM57.0903 50.0664V50.9445H56.2123V50.0664H57.0903ZM56.2123 35.1396V36.0177H55.3342V35.1396H56.2123ZM56.2123 36.0177V36.8957H55.3342V36.0177H56.2123ZM56.2123 36.8957V37.7737H55.3342V36.8957H56.2123ZM56.2123 37.7737V38.6518H55.3342V37.7737H56.2123ZM56.2123 38.6518V39.5298H55.3342V38.6518H56.2123ZM56.2123 39.5298V40.4079H55.3342V39.5298H56.2123ZM56.2123 40.4079V41.2859H55.3342V40.4079H56.2123ZM56.2123 41.2859V42.164H55.3342V41.2859H56.2123ZM56.2123 42.164V43.042H55.3342V42.164H56.2123ZM56.2123 43.042V43.9201H55.3342V43.042H56.2123ZM58.8464 35.1396V36.0177H57.9684V35.1396H58.8464ZM58.8464 36.0177V36.8957H57.9684V36.0177H58.8464ZM58.8464 36.8957V37.7737H57.9684V36.8957H58.8464ZM58.8464 37.7737V38.6518H57.9684V37.7737H58.8464ZM58.8464 38.6518V39.5298H57.9684V38.6518H58.8464ZM58.8464 39.5298V40.4079H57.9684V39.5298H58.8464ZM58.8464 41.2859V42.164H57.9684V41.2859H58.8464ZM58.8464 42.164V43.042H57.9684V42.164H58.8464ZM58.8464 43.042V43.9201H57.9684V43.042H58.8464ZM58.8464 43.9201V44.7981H57.9684V43.9201H58.8464ZM58.8464 44.7981V45.6762H57.9684V44.7981H58.8464ZM58.8464 45.6762V46.5542H57.9684V45.6762H58.8464ZM58.8464 46.5542V47.4323H57.9684V46.5542H58.8464ZM59.7245 47.4323V48.3103H58.8464V47.4323H59.7245ZM59.7245 48.3103V49.1884H58.8464V48.3103H59.7245ZM59.7245 49.1884V50.0664H58.8464V49.1884H59.7245ZM59.7245 46.5542V47.4323H58.8464V46.5542H59.7245ZM59.7245 45.6762V46.5542H58.8464V45.6762H59.7245ZM59.7245 44.7981V45.6762H58.8464V44.7981H59.7245ZM59.7245 43.9201V44.7981H58.8464V43.9201H59.7245ZM59.7245 43.042V43.9201H58.8464V43.042H59.7245ZM59.7245 42.164V43.042H58.8464V42.164H59.7245ZM59.7245 41.2859V42.164H58.8464V41.2859H59.7245ZM59.7245 40.4079V41.2859H58.8464V40.4079H59.7245ZM59.7245 39.5298V40.4079H58.8464V39.5298H59.7245ZM59.7245 38.6518V39.5298H58.8464V38.6518H59.7245ZM58.8464 40.4079V41.2859H57.9684V40.4079H58.8464ZM59.7245 37.7737V38.6518H58.8464V37.7737H59.7245ZM59.7245 36.8957V37.7737H58.8464V36.8957H59.7245ZM59.7245 36.0177V36.8957H58.8464V36.0177H59.7245ZM59.7245 35.1396V36.0177H58.8464V35.1396H59.7245ZM57.9684 35.1396V36.0177H57.0903V35.1396H57.9684ZM57.0903 35.1396V36.0177H56.2123V35.1396H57.0903ZM57.0903 36.0177V36.8957H56.2123V36.0177H57.0903ZM57.9684 36.0177V36.8957H57.0903V36.0177H57.9684ZM57.9684 36.8957V37.7737H57.0903V36.8957H57.9684ZM57.9684 37.7737V38.6518H57.0903V37.7737H57.9684ZM57.9684 38.6518V39.5298H57.0903V38.6518H57.9684ZM57.9684 39.5298V40.4079H57.0903V39.5298H57.9684ZM57.9684 40.4079V41.2859H57.0903V40.4079H57.9684ZM57.9684 41.2859V42.164H57.0903V41.2859H57.9684ZM57.0903 42.164V43.042H56.2123V42.164H57.0903ZM57.0903 43.042V43.9201H56.2123V43.042H57.0903ZM57.0903 41.2859V42.164H56.2123V41.2859H57.0903ZM57.0903 40.4079V41.2859H56.2123V40.4079H57.0903ZM57.0903 39.5298V40.4079H56.2123V39.5298H57.0903ZM57.0903 38.6518V39.5298H56.2123V38.6518H57.0903ZM57.0903 37.7737V38.6518H56.2123V37.7737H57.0903ZM57.0903 36.8957V37.7737H56.2123V36.8957H57.0903ZM57.9684 42.164V43.042H57.0903V42.164H57.9684ZM57.9684 43.042V43.9201H57.0903V43.042H57.9684ZM57.9684 43.9201V44.7981H57.0903V43.9201H57.9684ZM57.9684 44.7981V45.6762H57.0903V44.7981H57.9684ZM57.9684 45.6762V46.5542H57.0903V45.6762H57.9684ZM57.9684 46.5542V47.4323H57.0903V46.5542H57.9684ZM57.9684 47.4323V48.3103H57.0903V47.4323H57.9684ZM57.9684 48.3103V49.1884H57.0903V48.3103H57.9684ZM57.9684 49.1884V50.0664H57.0903V49.1884H57.9684ZM58.8464 48.3103V49.1884H57.9684V48.3103H58.8464ZM58.8464 47.4323V48.3103H57.9684V47.4323H58.8464ZM66.7489 35.1396V36.0177H65.8708V35.1396H66.7489ZM66.7489 36.0177V36.8957H65.8708V36.0177H66.7489ZM66.7489 36.8957V37.7737H65.8708V36.8957H66.7489ZM66.7489 38.6518V39.5298H65.8708V38.6518H66.7489ZM66.7489 39.5298V40.4079H65.8708V39.5298H66.7489ZM66.7489 40.4079V41.2859H65.8708V40.4079H66.7489ZM66.7489 41.2859V42.164H65.8708V41.2859H66.7489ZM66.7489 42.164V43.042H65.8708V42.164H66.7489ZM66.7489 43.042V43.9201H65.8708V43.042H66.7489ZM66.7489 43.9201V44.7981H65.8708V43.9201H66.7489ZM67.6269 44.7981V45.6762H66.7489V44.7981H67.6269ZM67.6269 45.6762V46.5542H66.7489V45.6762H67.6269ZM67.6269 46.5542V47.4323H66.7489V46.5542H67.6269ZM67.6269 47.4323V48.3103H66.7489V47.4323H67.6269ZM67.6269 48.3103V49.1884H66.7489V48.3103H67.6269ZM67.6269 49.1884V50.0664H66.7489V49.1884H67.6269ZM68.505 49.1884V50.0664H67.6269V49.1884H68.505ZM68.505 50.0664V50.9445H67.6269V50.0664H68.505ZM68.505 50.9445V51.8225H67.6269V50.9445H68.505ZM68.505 51.8225V52.7006H67.6269V51.8225H68.505ZM68.505 52.7006V53.5786H67.6269V52.7006H68.505ZM68.505 53.5786V54.4567H67.6269V53.5786H68.505ZM68.505 54.4567V55.3347H67.6269V54.4567H68.505ZM68.505 55.3347V56.2128H67.6269V55.3347H68.505ZM68.505 56.2128V57.0908H67.6269V56.2128H68.505ZM67.6269 56.2128V57.0908H66.7489V56.2128H67.6269ZM67.6269 55.3347V56.2128H66.7489V55.3347H67.6269ZM67.6269 54.4567V55.3347H66.7489V54.4567H67.6269ZM67.6269 53.5786V54.4567H66.7489V53.5786H67.6269ZM67.6269 52.7006V53.5786H66.7489V52.7006H67.6269ZM67.6269 51.8225V52.7006H66.7489V51.8225H67.6269ZM67.6269 50.9445V51.8225H66.7489V50.9445H67.6269ZM66.7489 50.9445V51.8225H65.8708V50.9445H66.7489ZM66.7489 50.0664V50.9445H65.8708V50.0664H66.7489ZM67.6269 50.0664V50.9445H66.7489V50.0664H67.6269ZM66.7489 44.7981V45.6762H65.8708V44.7981H66.7489ZM66.7489 45.6762V46.5542H65.8708V45.6762H66.7489ZM66.7489 46.5542V47.4323H65.8708V46.5542H66.7489ZM66.7489 47.4323V48.3103H65.8708V47.4323H66.7489ZM66.7489 48.3103V49.1884H65.8708V48.3103H66.7489ZM66.7489 49.1884V50.0664H65.8708V49.1884H66.7489ZM66.7489 37.7737V38.6518H65.8708V37.7737H66.7489ZM66.7489 51.8225V52.7006H65.8708V51.8225H66.7489ZM66.7489 52.7006V53.5786H65.8708V52.7006H66.7489ZM66.7489 53.5786V54.4567H65.8708V53.5786H66.7489ZM66.7489 54.4567V55.3347H65.8708V54.4567H66.7489ZM66.7489 55.3347V56.2128H65.8708V55.3347H66.7489ZM66.7489 56.2128V57.0908H65.8708V56.2128H66.7489ZM69.383 56.2128V57.0908H68.505V56.2128H69.383ZM70.2611 56.2128V57.0908H69.383V56.2128H70.2611ZM70.2611 55.3347V56.2128H69.383V55.3347H70.2611ZM70.2611 54.4567V55.3347H69.383V54.4567H70.2611ZM70.2611 53.5786V54.4567H69.383V53.5786H70.2611ZM70.2611 52.7006V53.5786H69.383V52.7006H70.2611ZM70.2611 51.8225V52.7006H69.383V51.8225H70.2611ZM70.2611 50.9445V51.8225H69.383V50.9445H70.2611ZM70.2611 50.0664V50.9445H69.383V50.0664H70.2611ZM70.2611 49.1884V50.0664H69.383V49.1884H70.2611ZM70.2611 48.3103V49.1884H69.383V48.3103H70.2611ZM70.2611 47.4323V48.3103H69.383V47.4323H70.2611ZM70.2611 46.5542V47.4323H69.383V46.5542H70.2611ZM70.2611 45.6762V46.5542H69.383V45.6762H70.2611ZM70.2611 44.7981V45.6762H69.383V44.7981H70.2611ZM70.2611 43.9201V44.7981H69.383V43.9201H70.2611ZM70.2611 43.042V43.9201H69.383V43.042H70.2611ZM70.2611 42.164V43.042H69.383V42.164H70.2611ZM70.2611 41.2859V42.164H69.383V41.2859H70.2611ZM70.2611 40.4079V41.2859H69.383V40.4079H70.2611ZM67.6269 35.1396V36.0177H66.7489V35.1396H67.6269ZM68.505 35.1396V36.0177H67.6269V35.1396H68.505ZM69.383 35.1396V36.0177H68.505V35.1396H69.383ZM70.2611 35.1396V36.0177H69.383V35.1396H70.2611ZM70.2611 36.0177V36.8957H69.383V36.0177H70.2611ZM70.2611 36.8957V37.7737H69.383V36.8957H70.2611ZM70.2611 37.7737V38.6518H69.383V37.7737H70.2611ZM70.2611 38.6518V39.5298H69.383V38.6518H70.2611ZM70.2611 39.5298V40.4079H69.383V39.5298H70.2611ZM67.6269 36.0177V36.8957H66.7489V36.0177H67.6269ZM68.505 36.0177V36.8957H67.6269V36.0177H68.505ZM69.383 36.0177V36.8957H68.505V36.0177H69.383ZM69.383 36.8957V37.7737H68.505V36.8957H69.383ZM69.383 37.7737V38.6518H68.505V37.7737H69.383ZM69.383 38.6518V39.5298H68.505V38.6518H69.383ZM69.383 39.5298V40.4079H68.505V39.5298H69.383ZM68.505 39.5298V40.4079H67.6269V39.5298H68.505ZM68.505 38.6518V39.5298H67.6269V38.6518H68.505ZM68.505 37.7737V38.6518H67.6269V37.7737H68.505ZM68.505 36.8957V37.7737H67.6269V36.8957H68.505ZM67.6269 36.8957V37.7737H66.7489V36.8957H67.6269ZM67.6269 37.7737V38.6518H66.7489V37.7737H67.6269ZM67.6269 38.6518V39.5298H66.7489V38.6518H67.6269ZM67.6269 39.5298V40.4079H66.7489V39.5298H67.6269ZM67.6269 40.4079V41.2859H66.7489V40.4079H67.6269ZM67.6269 41.2859V42.164H66.7489V41.2859H67.6269ZM67.6269 42.164V43.042H66.7489V42.164H67.6269ZM67.6269 43.042V43.9201H66.7489V43.042H67.6269ZM68.505 43.042V43.9201H67.6269V43.042H68.505ZM68.505 42.164V43.042H67.6269V42.164H68.505ZM68.505 41.2859V42.164H67.6269V41.2859H68.505ZM68.505 40.4079V41.2859H67.6269V40.4079H68.505ZM69.383 40.4079V41.2859H68.505V40.4079H69.383ZM69.383 41.2859V42.164H68.505V41.2859H69.383ZM69.383 42.164V43.042H68.505V42.164H69.383ZM69.383 43.042V43.9201H68.505V43.042H69.383ZM69.383 43.9201V44.7981H68.505V43.9201H69.383ZM69.383 44.7981V45.6762H68.505V44.7981H69.383ZM69.383 45.6762V46.5542H68.505V45.6762H69.383ZM69.383 46.5542V47.4323H68.505V46.5542H69.383ZM69.383 47.4323V48.3103H68.505V47.4323H69.383ZM69.383 48.3103V49.1884H68.505V48.3103H69.383ZM68.505 48.3103V49.1884H67.6269V48.3103H68.505ZM68.505 47.4323V48.3103H67.6269V47.4323H68.505ZM68.505 46.5542V47.4323H67.6269V46.5542H68.505ZM68.505 45.6762V46.5542H67.6269V45.6762H68.505ZM68.505 44.7981V45.6762H67.6269V44.7981H68.505ZM67.6269 43.9201V44.7981H66.7489V43.9201H67.6269ZM68.505 43.9201V44.7981H67.6269V43.9201H68.505ZM69.383 49.1884V50.0664H68.505V49.1884H69.383ZM69.383 50.0664V50.9445H68.505V50.0664H69.383ZM69.383 50.9445V51.8225H68.505V50.9445H69.383ZM69.383 51.8225V52.7006H68.505V51.8225H69.383ZM69.383 52.7006V53.5786H68.505V52.7006H69.383ZM69.383 53.5786V54.4567H68.505V53.5786H69.383ZM69.383 54.4567V55.3347H68.505V54.4567H69.383ZM69.383 55.3347V56.2128H68.505V55.3347H69.383ZM60.6025 45.6762V46.5542H59.7245V45.6762H60.6025ZM61.4806 45.6762V46.5542H60.6025V45.6762H61.4806ZM62.3586 45.6762V46.5542H61.4806V45.6762H62.3586ZM63.2367 45.6762V46.5542H62.3586V45.6762H63.2367ZM64.1147 45.6762V46.5542H63.2367V45.6762H64.1147ZM64.9928 45.6762V46.5542H64.1147V45.6762H64.9928ZM65.8708 45.6762V46.5542H64.9928V45.6762H65.8708ZM65.8708 46.5542V47.4323H64.9928V46.5542H65.8708ZM64.9928 46.5542V47.4323H64.1147V46.5542H64.9928ZM64.1147 46.5542V47.4323H63.2367V46.5542H64.1147ZM63.2367 46.5542V47.4323H62.3586V46.5542H63.2367ZM62.3586 46.5542V47.4323H61.4806V46.5542H62.3586ZM61.4806 46.5542V47.4323H60.6025V46.5542H61.4806ZM60.6025 46.5542V47.4323H59.7245V46.5542H60.6025ZM60.6025 43.9201V44.7981H59.7245V43.9201H60.6025ZM61.4806 43.9201V44.7981H60.6025V43.9201H61.4806ZM62.3586 43.9201V44.7981H61.4806V43.9201H62.3586ZM63.2367 43.9201V44.7981H62.3586V43.9201H63.2367ZM64.1147 43.9201V44.7981H63.2367V43.9201H64.1147ZM64.9928 43.9201V44.7981H64.1147V43.9201H64.9928ZM65.8708 43.9201V44.7981H64.9928V43.9201H65.8708ZM65.8708 44.7981V45.6762H64.9928V44.7981H65.8708ZM64.9928 44.7981V45.6762H64.1147V44.7981H64.9928ZM64.1147 44.7981V45.6762H63.2367V44.7981H64.1147ZM63.2367 44.7981V45.6762H62.3586V44.7981H63.2367ZM62.3586 44.7981V45.6762H61.4806V44.7981H62.3586ZM60.6025 47.4323V48.3103H59.7245V47.4323H60.6025ZM61.4806 47.4323V48.3103H60.6025V47.4323H61.4806ZM62.3586 47.4323V48.3103H61.4806V47.4323H62.3586ZM63.2367 47.4323V48.3103H62.3586V47.4323H63.2367ZM64.1147 47.4323V48.3103H63.2367V47.4323H64.1147ZM64.9928 47.4323V48.3103H64.1147V47.4323H64.9928ZM65.8708 47.4323V48.3103H64.9928V47.4323H65.8708ZM61.4806 44.7981V45.6762H60.6025V44.7981H61.4806ZM60.6025 44.7981V45.6762H59.7245V44.7981H60.6025Z" fill="black"/>
</svg>
