<svg width="50" height="50" viewBox="0 0 50 50" fill="none" xmlns="http://www.w3.org/2000/svg">
<g clip-path="url(#clip0_15030_4654)">
<path d="M46.0252 38.3226C43.3067 38.2548 41.1999 38.5268 39.4328 39.2742C38.9231 39.478 38.1075 39.4782 38.0395 40.1237C38.3115 40.3957 38.3454 40.8374 38.5833 41.2111C38.9914 41.8905 39.7046 42.8083 40.3504 43.2841C41.0639 43.8277 41.7776 44.3713 42.525 44.8471C43.8503 45.6627 45.3455 46.1383 46.6368 46.9539C47.3846 47.4293 48.1318 48.0414 48.8794 48.5511C49.2533 48.8226 49.491 49.2646 49.9668 49.4345V49.3326C49.7289 49.0267 49.6609 48.585 49.4232 48.2451C49.0836 47.9053 48.7436 47.5994 48.4038 47.2596C47.4183 45.9345 46.195 44.7791 44.8697 43.8277C43.7825 43.0801 41.4037 42.0607 40.962 40.8033C40.962 40.8033 40.9279 40.7694 40.894 40.7355C41.6416 40.6675 42.525 40.3957 43.2387 40.1917C44.3941 39.8858 45.4475 39.9538 46.6368 39.6481C47.1804 39.5121 47.7242 39.3422 48.2678 39.1723V38.8666C47.6564 38.2548 47.2145 37.4394 46.5688 36.8617C44.8358 35.3662 42.9328 33.9053 40.962 32.6821C39.9084 32.0025 38.5492 31.5606 37.4279 30.9831C37.0203 30.7789 36.3405 30.6772 36.1028 30.3374C35.491 29.5898 35.1512 28.6044 34.7095 27.7208C33.7244 25.8517 32.7725 23.7792 31.923 21.8083C31.3116 20.483 30.9377 19.1577 30.1901 17.9345C26.6902 12.1578 22.8843 8.65784 17.0396 5.22568C15.7823 4.51217 14.2873 4.20626 12.6902 3.83256C11.8409 3.79845 10.9911 3.73066 10.1416 3.69655C9.59801 3.45864 9.05419 2.81315 8.57837 2.50724C6.64187 1.28381 1.64647 -1.36642 0.219254 2.13354C-0.698264 4.34228 1.57847 6.51689 2.35997 7.63841C2.9379 8.41993 3.6853 9.30333 4.09311 10.187C4.33102 10.7642 4.39881 11.3763 4.63671 11.9879C5.18053 13.4827 5.69002 15.148 6.40374 16.5414C6.77766 17.2549 7.18525 18.0025 7.66107 18.648C7.93287 19.0217 8.40846 19.1918 8.51058 19.8034C8.03498 20.483 8.00087 21.5024 7.72885 22.352C6.50564 26.1917 6.98145 30.949 8.71437 33.7693C9.25798 34.6186 10.5494 36.488 12.2823 35.7743C13.8115 35.1626 13.4717 33.2257 13.9134 31.5267C14.0155 31.1187 13.9475 30.8471 14.1513 30.5753C14.1514 30.6092 14.1513 30.6433 14.1513 30.6433C14.6271 31.5947 15.1027 32.5122 15.5444 33.4636C16.5979 35.1285 18.4327 36.8617 19.9618 38.0171C20.7777 38.6285 21.4232 39.682 22.4426 40.0559V39.9538H22.3746C22.1706 39.6479 21.8649 39.5121 21.5931 39.2742C20.9815 38.6626 20.3016 37.915 19.826 37.2354C18.399 35.3323 17.1415 33.2257 16.0202 31.0509C15.4766 29.9976 15.0008 28.8421 14.5591 27.7888C14.3551 27.3808 14.3551 26.7694 14.0153 26.5656C13.5055 27.313 12.7581 27.9587 12.3842 28.8763C11.7389 30.3374 11.6707 32.1383 11.4328 34.0072C11.297 34.0413 11.3648 34.0072 11.2968 34.0752C10.2096 33.8032 9.83569 32.6821 9.42787 31.7305C8.40846 29.318 8.23856 25.4441 9.12218 22.6579C9.36009 21.9441 10.3795 19.7015 9.97169 19.0219C9.7679 18.3762 9.08807 18.0025 8.71437 17.4928C8.27267 16.8471 7.79685 16.0317 7.49116 15.3179C6.67554 13.4151 6.26773 11.3083 5.38433 9.40524C4.97652 8.52162 4.26301 7.60431 3.6853 6.78891C3.0398 5.87139 2.32608 5.22568 1.81637 4.13825C1.64668 3.76455 1.40856 3.15295 1.68036 2.74514C1.74836 2.47334 1.88415 2.37144 2.15617 2.30343C2.59787 1.92952 3.8552 2.40533 4.29689 2.60913C5.55421 3.11862 6.60753 3.59465 7.66105 4.30815C8.13665 4.64796 8.64635 5.29368 9.25796 5.46358H9.97168C11.0591 5.70127 12.2823 5.53158 13.3017 5.83728C15.1029 6.41478 16.7337 7.2645 18.195 8.18202C22.6466 11.0024 26.3162 15.0122 28.797 19.8034C29.2048 20.5847 29.3745 21.2986 29.7484 22.114C30.4621 23.7792 31.3455 25.4782 32.059 27.1092C32.7725 28.7061 33.4521 30.3374 34.4716 31.6627C34.9815 32.376 37.0201 32.7499 37.9376 33.1238C38.6172 33.4295 39.6707 33.7015 40.2824 34.0752C41.4376 34.7885 42.593 35.6044 43.6804 36.3859C44.2242 36.7935 45.923 37.6432 46.0252 38.3226Z" fill="#00546B"/>
<path d="M11.3638 8.79346C10.7861 8.79346 10.3785 8.86168 9.9707 8.96358C9.9707 8.96358 9.9707 8.99769 9.9707 9.03158H10.0387C10.3107 9.57518 10.7861 9.9491 11.1259 10.4247C11.3979 10.9683 11.6356 11.5121 11.9076 12.0559C11.9415 12.0218 11.9754 11.9879 11.9754 11.9879C12.4515 11.6479 12.6891 11.1043 12.6891 10.2889C12.4851 10.051 12.4512 9.81309 12.2813 9.57518C12.0775 9.23516 11.6356 9.06547 11.3638 8.79346Z" fill="#00546B"/>
</g>
<defs>
<clipPath id="clip0_15030_4654">
<rect width="50" height="50" fill="white"/>
</clipPath>
</defs>
</svg>
