<svg width="50" height="50" viewBox="0 0 50 50" fill="none" xmlns="http://www.w3.org/2000/svg">
<path d="M29.0732 0.136719L30.4075 2.64278C30.7075 3.10525 31.0325 3.51459 31.4152 3.89581C32.5375 5.00405 33.5835 6.18686 34.5463 7.43617C36.807 10.4047 38.3319 13.7013 39.4209 17.2667C40.074 19.4446 40.4286 21.6788 40.4552 23.9381C40.5646 30.6922 38.2491 36.4918 33.5807 41.3117C32.8213 42.0761 32.001 42.7773 31.1278 43.4085C30.6653 43.4085 30.4466 43.0538 30.256 42.7273C29.9088 42.1218 29.6778 41.4568 29.5748 40.7665C29.4107 39.9493 29.3029 39.1322 29.356 38.2885V37.9073C29.3185 37.8261 28.9107 0.328892 29.0732 0.136719Z" fill="#599636"/>
<path d="M29.0727 0.0537507C29.018 -0.0556161 28.9634 0.0271902 28.9087 0.0803112C28.9352 0.627145 28.7446 1.11461 28.4462 1.5802C28.1181 2.04266 27.6838 2.39732 27.2479 2.77855C24.8262 4.87526 22.9201 7.40788 21.3936 10.2405C19.3625 14.0527 18.3157 18.1383 18.0189 22.4396C17.8829 23.991 18.5095 29.4656 18.9985 31.0452C20.3328 35.2386 22.7295 38.7524 25.8339 41.8022C26.5963 42.5365 27.4119 43.2177 28.2556 43.8723C28.5009 43.8723 28.5275 43.6536 28.5837 43.4911C28.6912 43.1434 28.7732 42.7883 28.829 42.4287L29.3758 38.3446L29.0727 0.0537507Z" fill="#6CAC48"/>
<path d="M30.4073 45.0675C30.4619 44.4426 30.7619 43.9238 31.0885 43.4067C30.7604 43.2708 30.5166 43.0005 30.326 42.6989C30.1617 42.4134 30.0256 42.1125 29.9198 41.8006C29.5386 40.6569 29.4573 39.457 29.348 38.2883V37.5806C29.212 37.6899 29.1839 38.6149 29.1839 38.7524C29.1044 39.9875 28.9405 41.2158 28.6933 42.4286C28.6121 42.9192 28.5574 43.4083 28.2559 43.8442C28.2559 43.8988 28.2559 43.9535 28.2824 44.0348C28.773 45.4784 28.9074 46.9486 28.9902 48.4469V48.9938C28.9902 49.6468 28.9636 49.5094 29.5058 49.7281C29.7245 49.8093 29.9682 49.8375 30.187 49.9999C30.351 49.9999 30.3776 49.864 30.3776 49.7547L30.2963 48.8563V46.3502C30.2698 45.9128 30.351 45.4784 30.4057 45.0691L30.4073 45.0675Z" fill="#C2BFBF"/>
</svg>
