<svg width="50" height="50" viewBox="0 0 50 50" fill="none" xmlns="http://www.w3.org/2000/svg">
<g clip-path="url(#clip0_15030_4667)">
<path d="M47.891 30.7394C41.7111 31.9682 41.285 29.95 41.285 29.95C47.8108 20.6116 50.5359 8.75452 48.182 5.85332C41.7617 -2.06091 30.6464 1.68258 30.4608 1.78024L30.3975 1.78838C29.1784 1.54424 27.8117 1.39775 26.2762 1.37334C23.4794 1.32858 21.3576 2.08135 19.7504 3.25729C19.7504 3.25729 -0.0800133 -4.62438 0.843804 13.1694C1.04207 16.9536 6.46685 41.8071 12.942 34.2998C15.3085 31.5532 17.5948 29.2339 17.5948 29.2339C18.7296 29.9622 20.0921 30.3325 21.5137 30.1982L21.6234 30.1087C21.5896 30.4505 21.6065 30.7841 21.6655 31.1788C19.9993 32.9773 20.4886 33.2907 17.1519 33.9539C13.7772 34.6253 15.7599 35.8175 17.0549 36.1308C18.6241 36.5092 22.2519 37.0464 24.707 33.7342L24.6099 34.1126C25.2638 34.6172 25.7236 37.3963 25.6476 39.915C25.5717 42.4337 25.5211 44.1631 26.0357 45.514C26.5504 46.8649 27.065 49.9044 31.4479 48.997C35.1094 48.2402 37.0076 46.2789 37.2734 43.0075C37.459 40.68 37.8851 41.0258 37.9104 38.9466L38.2521 37.9619C38.6444 34.8084 38.3153 33.7911 40.5721 34.2631L41.1205 34.3079C42.7826 34.3812 44.955 34.0516 46.2289 33.4778C48.9666 32.2531 50.5991 30.1982 47.891 30.7394Z" fill="#336791"/>
<path d="M24.2089 32.5256C24.2215 32.1187 24.5717 31.7972 24.9935 31.8094C25.4153 31.8216 25.7486 32.1594 25.7359 32.5663C25.6473 35.5895 25.6642 38.6209 25.7781 41.0461C25.8836 43.2311 26.065 44.875 26.3181 45.4854C26.588 46.1323 27.0056 47.0886 27.8071 47.7355C28.5875 48.3703 29.7897 48.7568 31.7049 48.3622C33.3796 48.0163 34.5059 47.5239 35.2567 46.7712C35.9991 46.0265 36.421 44.9727 36.6825 43.4997C36.8766 42.4255 37.1423 40.5497 37.3828 38.682C37.6865 36.3464 37.9649 33.9863 38.0239 33.2254C38.0535 32.8185 38.4205 32.5134 38.8423 32.5459C39.2641 32.5744 39.5805 32.9284 39.5468 33.3353C39.4877 34.0759 39.2093 36.4644 38.8929 38.8692C38.6398 40.7979 38.3699 42.7103 38.1842 43.7479C37.8679 45.5098 37.3321 46.8078 36.3493 47.7925C35.3706 48.7731 33.9997 49.3916 32.0128 49.8026C29.5451 50.3112 27.9168 49.7538 26.8158 48.8586C25.7317 47.9797 25.2171 46.8159 24.8923 46.0306C24.5717 45.2616 24.3565 43.4468 24.2426 41.1071C24.133 38.6616 24.1203 35.5895 24.2089 32.5256Z" fill="white"/>
<path d="M19.999 2.44361C20.3913 2.59416 20.5812 3.02141 20.4251 3.39982C20.269 3.77824 19.8261 3.96135 19.4338 3.81079C19.3832 3.79045 0.695906 -3.57446 1.56067 13.0597C1.66612 15.1145 3.35346 23.5211 5.91821 29.3845C6.72813 31.2319 7.6182 32.8106 8.56311 33.8197C9.35194 34.6661 10.1576 35.073 10.9338 34.8044C11.3641 34.6539 11.8239 34.3162 12.309 33.7546C14.6839 30.9999 16.8437 28.823 16.8522 28.8189C17.1432 28.526 17.6241 28.5138 17.9278 28.7945C18.2316 29.0753 18.2442 29.5391 17.9531 29.8321C17.9489 29.8362 15.8398 31.9561 13.4817 34.6946C12.811 35.4758 12.1276 35.96 11.44 36.196C9.98048 36.6965 8.63904 36.1106 7.42416 34.8085C6.36114 33.6733 5.38248 31.9521 4.5135 29.9542C1.87704 23.9361 0.143304 15.261 0.0336268 13.1288C-0.949247 -5.81649 19.94 2.41919 19.999 2.44361Z" fill="white"/>
<path d="M30.8359 2.32957L29.7012 1.13329C29.794 1.10073 29.8868 1.07225 29.9796 1.04784C30.2285 0.970525 30.4984 0.893214 30.7895 0.811834C31.2156 0.689763 31.8399 0.531072 32.6034 0.388656C36.4126 -0.32342 43.8453 -0.709976 48.7428 5.32844C50.1264 7.03335 50.0125 11.2529 48.5825 16.2497C47.317 20.6727 45.0348 25.7711 41.8795 30.2877C41.6433 30.6255 41.1666 30.715 40.8165 30.4871C40.4664 30.2593 40.3736 29.7995 40.6098 29.4617C43.6723 25.0794 45.8827 20.1356 47.1103 15.855C48.4179 11.2895 48.6246 7.56639 47.5405 6.23176C43.145 0.815902 36.3661 1.18211 32.886 1.83722C32.1731 1.9715 31.6036 2.11392 31.2156 2.22378L30.8359 2.32957Z" fill="white"/>
<path d="M41.9685 29.6489C41.9769 29.6693 41.9812 29.6896 41.9854 29.71C41.9854 29.714 42.2469 31.0283 47.6928 29.946C48.4647 29.7913 49.0131 29.8239 49.3675 29.9907C49.8273 30.2023 50.0255 30.5563 49.996 31.012C49.9791 31.2887 49.8441 31.5858 49.6206 31.8828C49.1059 32.5623 47.929 33.4412 46.499 34.0801C45.4275 34.5602 43.795 34.8817 42.2975 34.9631C41.4159 35.0119 40.5722 34.9793 39.9015 34.8491C39.0578 34.6864 38.4167 34.3486 38.1509 33.7993C38.0792 33.6528 38.037 33.4941 38.0286 33.3232C37.8598 30.4668 39.3025 29.9663 40.3107 29.6896C40.2052 29.5431 40.0618 29.3682 39.9015 29.1769C39.3911 28.5625 38.7372 27.7731 38.2184 26.5646C38.1382 26.3815 37.9062 25.9746 37.5941 25.4375C36.2737 23.1548 33.6752 18.6545 34.1857 15.5824C34.5484 13.3892 36.2822 11.9325 40.6144 12.3678L40.5722 12.2458C40.3655 11.6802 40.0365 10.9396 39.5598 10.1095C37.67 6.78923 33.5487 2.1587 26.2299 2.04476C15.0639 1.8698 15.4309 15.4522 15.4309 15.4888C15.4394 15.8957 15.1019 16.2293 14.68 16.2375C14.2582 16.2456 13.9123 15.9201 13.9039 15.5132C13.9039 15.4684 13.4905 0.3724 26.251 0.571782C34.308 0.697921 38.8301 5.76791 40.897 9.39746C41.4117 10.3008 41.7787 11.1227 42.0107 11.7616C42.2722 12.4777 42.3692 13.0392 42.3271 13.2874C42.268 13.6536 42.0571 13.8815 41.6943 13.9507L41.4201 13.9548C37.4464 13.3403 35.9447 14.2803 35.6916 15.8102C35.2656 18.3859 37.6953 22.5851 38.9271 24.7214C39.2603 25.2992 39.5134 25.7386 39.6273 26.0072C40.066 27.0285 40.6397 27.7202 41.0869 28.2655C41.5045 28.7578 41.8335 29.1566 41.9685 29.6489ZM48.0007 31.3864C43.9638 32.1921 42.0824 31.6021 41.2176 30.9673C41.0995 31.0039 40.973 31.0365 40.838 31.0731C40.298 31.2196 39.4586 31.4474 39.5472 33.1971C39.6104 33.2622 39.8467 33.3314 40.1926 33.4006C40.7452 33.5064 41.4539 33.5308 42.2089 33.4901C43.5293 33.4168 44.9509 33.1442 45.8578 32.7373C46.7901 32.3182 47.5705 31.8136 48.0513 31.3742L48.0007 31.3864Z" fill="white"/>
<path d="M22.1876 31.602C21.8754 31.9397 21.6181 32.253 21.3987 32.5216C20.4623 33.669 20.1712 34.0271 17.2648 34.6049C16.7417 34.7107 16.3873 34.8124 16.168 34.9141C16.438 35.1013 16.8429 35.2559 17.1973 35.3414C17.9144 35.5164 19.104 35.7239 20.3779 35.5164C21.6181 35.3129 22.9553 34.6985 24.0394 33.2336C24.0732 33.1848 24.1027 33.1319 24.128 33.079C24.2377 32.8227 24.2124 32.5012 24.1027 32.196C23.9846 31.8705 23.7694 31.5857 23.5206 31.4107C23.4615 31.37 23.4024 31.3375 23.3392 31.3131L23.3012 31.2968C23.1451 31.2358 22.9722 31.1707 22.8245 31.1829C22.6642 31.1991 22.4618 31.3049 22.1876 31.602ZM20.1965 31.606C20.4032 31.3538 20.6437 31.0608 21.0064 30.6661C21.036 30.6295 21.0697 30.5929 21.1035 30.5603C21.6645 29.9744 22.2002 29.7546 22.6938 29.714C23.1831 29.6733 23.5627 29.8075 23.8833 29.9377C23.896 29.9418 23.9087 29.9459 23.9255 29.954C24.09 30.0191 24.2503 30.1086 24.4064 30.2144C24.9084 30.5603 25.3218 31.1096 25.5454 31.7078C25.7732 32.3303 25.8111 33.0261 25.5411 33.6446C25.4737 33.7992 25.3893 33.9457 25.2838 34.0881C23.9171 35.9355 22.2129 36.7086 20.6352 36.969C19.0871 37.2253 17.6782 36.9771 16.8261 36.7737C16.206 36.6231 15.4382 36.2895 14.9869 35.8826C14.7211 35.6425 14.5397 35.3577 14.4891 35.0403C14.43 34.6619 14.5482 34.2957 14.9067 33.9701C15.2526 33.6568 15.8938 33.372 16.9526 33.1604C19.3107 32.6925 19.5216 32.4361 20.1965 31.606Z" fill="white"/>
<path d="M22.2686 30.9634C22.3319 31.3662 22.045 31.7446 21.6274 31.8016C21.2098 31.8585 20.8175 31.5859 20.7584 31.1831C20.7415 31.0854 20.7331 30.9878 20.7247 30.886C20.4716 30.8779 20.2227 30.8616 19.978 30.825C18.3413 30.6053 16.8607 29.8078 15.747 28.6277C14.646 27.464 13.9036 25.9259 13.7307 24.2088C13.6674 23.5984 13.68 22.9637 13.7728 22.3248C14.1483 19.7451 14.0048 17.438 13.9331 16.2417C13.912 15.9162 13.8994 15.672 13.8994 15.4848C13.9036 15.0006 15.1649 13.9345 16.8269 13.2754C17.5778 12.9783 18.4172 12.7301 19.2482 12.608C20.1257 12.4819 21.0115 12.4941 21.8088 12.7342C23.0574 13.1126 24.0487 14.0037 24.4284 15.7086C25.7993 21.8162 24.5718 24.4407 23.6142 26.4956C23.4497 26.8496 23.2936 27.1832 23.1755 27.4844C23.1713 27.5047 23.1629 27.521 23.1544 27.5413C22.7537 28.583 23.34 27.0571 23.0363 27.8343C22.5596 29.0875 22.142 30.1618 22.2686 30.9634ZM20.8892 29.4171C21.0537 28.762 21.3237 28.0703 21.6105 27.3257C21.8383 26.7397 21.2435 28.2737 21.7202 27.0327C21.7286 27.0123 21.7371 26.992 21.7455 26.9717C21.8931 26.5932 22.0534 26.2555 22.218 25.8974C23.0869 24.0379 24.1921 21.6616 22.9309 16.0301C22.6862 14.9355 22.0914 14.374 21.349 14.1502C20.7922 13.9834 20.1383 13.9793 19.4676 14.077C18.7505 14.1828 18.0334 14.3943 17.3922 14.6466C16.2659 15.0901 15.4138 15.4645 15.4138 15.497C15.4138 15.6028 15.4264 15.8429 15.4475 16.1644C15.5234 17.4054 15.6711 19.8102 15.2788 22.5364C15.2029 23.0695 15.1902 23.5862 15.2408 24.0827C15.38 25.4661 15.979 26.7072 16.8691 27.6471C17.7465 28.5748 18.9066 29.2055 20.1805 29.3764C20.4167 29.4009 20.653 29.4171 20.8892 29.4171Z" fill="white"/>
<path d="M19.6442 15.3871C19.6105 15.6272 20.104 16.2741 20.7452 16.3596C21.3864 16.445 21.939 15.9405 21.9727 15.7004C22.0065 15.4603 21.5129 15.1918 20.8717 15.1063C20.2306 15.0209 19.678 15.147 19.6442 15.3871Z" fill="white"/>
<path d="M19.8975 15.4197C19.8891 15.4726 19.9777 15.611 20.1253 15.7615C20.2898 15.9284 20.5218 16.0789 20.7791 16.1155H20.7834C21.0365 16.1481 21.2727 16.0667 21.4499 15.9487C21.6144 15.8429 21.7156 15.729 21.7283 15.6639C21.7283 15.6517 21.665 15.6151 21.5595 15.5581C21.3866 15.4645 21.1335 15.3872 20.8424 15.3465H20.834C20.5471 15.3099 20.2814 15.318 20.0916 15.3628C19.9734 15.3913 19.8975 15.4116 19.8975 15.4197ZM19.7583 16.0993C19.5094 15.847 19.3702 15.5459 19.3955 15.3587V15.3506C19.4293 15.1186 19.6444 14.9599 19.9734 14.8826C20.2223 14.8257 20.5513 14.8135 20.9015 14.8582C20.9057 14.8582 20.9099 14.8582 20.9141 14.8582C21.2685 14.907 21.5848 15.0047 21.8084 15.1268C22.1037 15.2855 22.2682 15.5011 22.2345 15.729C22.2092 15.908 22.0193 16.1684 21.7367 16.3515C21.4709 16.5265 21.1082 16.6527 20.7159 16.5998H20.7116C20.3236 16.5509 19.9903 16.3353 19.7583 16.0993Z" fill="white"/>
<path d="M39.2345 14.8949C39.2682 15.135 38.7747 15.782 38.1335 15.8674C37.4881 15.9529 36.9397 15.4483 36.9059 15.2082C36.8722 14.9682 37.3657 14.6996 38.0111 14.6141C38.6481 14.5287 39.1965 14.6548 39.2345 14.8949Z" fill="white"/>
<path d="M39.3564 14.8784C39.3775 15.033 39.2509 15.2975 39.0273 15.5253C38.8122 15.7451 38.5 15.9444 38.1457 15.9892H38.1415C37.7871 16.034 37.4581 15.92 37.2135 15.7613C36.9604 15.5986 36.7958 15.3748 36.7705 15.2242C36.7452 15.0493 36.8844 14.8784 37.1333 14.7441C37.3442 14.6302 37.6437 14.5366 37.9812 14.4918C38.3187 14.4471 38.635 14.4593 38.8713 14.5122C39.1497 14.5732 39.3311 14.6993 39.3564 14.8784ZM38.8417 15.3544C39.0147 15.1795 39.1159 15.0004 39.1033 14.9109C39.0948 14.8458 38.9852 14.7889 38.8164 14.7482C38.6097 14.6993 38.3271 14.6912 38.0192 14.7319C37.7154 14.7726 37.4455 14.858 37.2599 14.9557C37.108 15.0371 37.0194 15.1225 37.0278 15.1876C37.0405 15.2771 37.167 15.4277 37.3611 15.5538C37.5594 15.684 37.8293 15.7776 38.1162 15.741H38.1204C38.403 15.7044 38.6603 15.5375 38.8417 15.3544Z" fill="white"/>
<path d="M40.7704 13.2589C40.7493 12.852 41.0741 12.5061 41.496 12.4858C41.9178 12.4655 42.2763 12.7788 42.2974 13.1857C42.3607 14.325 42.2173 15.2283 42.0654 16.1764C41.9515 16.8844 41.8334 17.625 41.8081 18.451C41.7828 19.2363 41.8883 20.1071 42.0022 21.0022C42.2974 23.3582 42.6096 25.881 40.7957 28.4892C40.5595 28.8269 40.087 28.9165 39.7369 28.6927C39.3868 28.4648 39.294 28.0091 39.526 27.6713C41.0193 25.5188 40.7409 23.2768 40.4793 21.1772C40.3612 20.2413 40.2473 19.3299 40.2811 18.4103C40.3106 17.4581 40.4329 16.6972 40.551 15.9607C40.6945 15.0737 40.8252 14.2355 40.7704 13.2589Z" fill="white"/>
</g>
<defs>
<clipPath id="clip0_15030_4667">
<rect width="50" height="50" fill="white"/>
</clipPath>
</defs>
</svg>
