<svg width="50" height="34" viewBox="0 0 50 34" fill="none" xmlns="http://www.w3.org/2000/svg">
<g clip-path="url(#clip0_15030_4683)">
<path d="M48.9054 0.000872099C48.1339 0.0255232 48.3779 0.247814 46.7109 0.658049C45.0275 1.07231 42.9713 0.945285 41.1586 1.70552C35.7472 3.97493 34.6615 11.7314 29.7421 14.5099C26.065 16.587 22.3551 16.7526 19.0197 17.7978C16.8278 18.4851 14.43 19.8947 12.444 21.6062C10.9025 22.9351 10.8622 24.1035 9.25159 25.7702C7.52879 27.553 2.40446 25.8003 0.0820312 28.5289C0.830171 29.2854 1.15816 29.4972 2.63251 29.301C2.32726 29.8795 0.527914 30.3671 0.880139 31.2182C1.25076 32.1137 5.60083 32.7208 9.55522 30.3333C11.3968 29.2214 12.8637 27.6188 15.7319 27.2363C19.4434 26.7416 23.7191 27.5536 28.0158 28.1732C27.3787 30.0728 26.0996 31.3361 25.0749 32.8491C24.7576 33.1908 25.7123 33.2291 26.8013 33.0226C28.7603 32.5382 30.1722 32.1481 31.6507 31.2876C33.467 30.2302 33.7423 27.5192 35.9709 26.9327C37.2126 28.8412 40.5898 29.292 42.6854 27.7655C40.8465 27.245 40.3383 23.3309 40.959 21.6062C41.547 19.9736 42.128 17.362 42.7201 15.204C43.3558 12.8863 43.5903 9.965 44.3597 8.78439C45.5172 7.00815 46.7962 6.39819 47.9066 5.39658C49.017 4.39498 50.0333 3.42 50 1.12812C49.9892 0.389921 49.6076 -0.0215665 48.9054 0.000872099Z" fill="#002B64"/>
<path d="M1.68016 31.0549C4.49616 31.4583 6.20869 31.0549 8.47004 30.0741C10.3941 29.2397 12.2524 27.5193 14.5246 26.7901C17.8616 25.7194 21.521 26.7915 25.0882 27.0052C25.9568 27.0574 26.8199 27.058 27.6718 26.9653C29.0007 26.1485 28.9732 23.0935 30.2666 22.8137C30.2285 27.0999 28.4713 29.668 26.6336 32.1548C30.5067 31.4707 32.8244 29.2305 34.3898 26.2385C34.8648 25.3313 35.2704 24.3552 35.629 23.3323C36.1834 23.7578 35.8691 25.0526 36.1479 25.7541C38.8156 24.2681 40.3433 20.8766 41.3549 17.4465C42.5252 13.4768 43.0044 9.45713 43.7592 8.28259C44.4959 7.1361 45.6424 6.42932 46.689 5.69534C47.8782 4.86086 48.939 3.99113 49.1222 2.40103C47.868 2.28499 47.5779 1.99489 47.3924 1.36279C46.7645 1.71674 46.1871 1.79252 45.5347 1.81195C44.9687 1.82917 44.3469 1.8039 43.5873 1.88191C37.306 2.52706 36.5079 9.45019 32.4818 13.3749C32.189 13.6603 31.8722 13.9265 31.5374 14.1764C30.1275 15.2271 28.3977 15.978 26.8071 16.586C24.2323 17.5698 21.7844 17.6397 19.3687 18.4889C17.5954 19.1122 15.7935 20.0163 14.3369 21.0132C13.9727 21.2622 13.6296 21.5173 13.3139 21.7755C12.4592 22.4748 11.8982 23.2507 11.3554 24.0488C10.7958 24.8713 10.2553 25.7174 9.43138 26.5258C8.09666 27.8364 3.10926 26.9081 1.35342 28.1234C1.15771 28.2586 1.00225 28.421 0.896484 28.6159C1.85449 29.0512 2.49437 28.7841 3.59645 28.906C3.74108 29.9517 1.3226 30.5733 1.68016 31.0549Z" fill="white"/>
<path d="M39.7351 23.5205C39.8101 24.7203 40.5066 27.1008 41.1215 27.6793C39.9172 27.9721 37.8427 27.4883 37.3105 26.6388C37.584 25.4124 39.007 24.2911 39.7351 23.5205Z" fill="white"/>
<path d="M41.498 4.47952C42.3872 5.25153 44.253 4.63192 43.9196 3.09594C42.5379 2.98157 41.7376 3.45044 41.498 4.47952Z" fill="#002B64"/>
<path d="M47.6985 2.68471C47.462 3.18079 47.0092 3.82038 47.0092 5.0832C47.0072 5.30001 46.8446 5.44852 46.8418 5.11429C46.854 3.88007 47.1807 3.34652 47.5278 2.64529C47.689 2.35797 47.7862 2.47651 47.6985 2.68471Z" fill="#002B64"/>
<path d="M47.4585 2.49782C47.1795 2.97113 46.5077 3.83448 46.3967 5.09257C46.3762 5.30827 46.2007 5.4418 46.2274 5.10839C46.3484 3.88028 46.8853 3.1116 47.2928 2.44341C47.4777 2.17164 47.5646 2.29822 47.4585 2.49782Z" fill="#002B64"/>
<path d="M47.2425 2.24983C46.9246 2.69788 45.8905 3.73473 45.6743 4.97922C45.6354 5.19214 45.4494 5.31096 45.5041 4.98089C45.7279 3.76693 46.6193 2.81281 47.0815 2.18182C47.2886 1.92615 47.3643 2.05968 47.2425 2.24983Z" fill="#002B64"/>
<path d="M47.0491 1.97388C46.6715 2.37279 45.4387 3.69502 45.0501 4.89648C44.9812 5.10191 44.7805 5.19352 44.8813 4.87427C45.2733 3.7039 46.3529 2.44331 46.8992 1.88366C47.1404 1.65963 47.1965 1.8026 47.0491 1.97388Z" fill="#002B64"/>
</g>
<defs>
<clipPath id="clip0_15030_4683">
<rect width="50" height="33.2031" fill="white"/>
</clipPath>
</defs>
</svg>
