<svg width="150" height="33" viewBox="0 0 150 33" fill="none" xmlns="http://www.w3.org/2000/svg">
<g clip-path="url(#clip0_16391_40898)">
<path d="M53.4821 25.7228H53.4136L49.2136 8.59991H44.273L40.0901 25.7228H40.021L36.1311 8.59991H30.9325L37.4734 32.5726H42.3791L46.6996 16.1864H46.7858L51.1063 32.5726H56.0468L62.5707 8.59991H57.372L53.4821 25.7228ZM115.571 8.21334C109.374 8.21334 105.673 12.3053 105.673 19.1723V22.071C105.673 29.0081 109.356 32.9775 115.553 32.9775C121.767 32.9775 124.866 29.1135 124.866 24.7923V24.3539H120.201C120.201 26.8301 118.996 28.7617 115.639 28.7617C112.266 28.7617 110.613 26.6368 110.613 22.071V19.1723C110.613 14.6595 112.283 12.3937 115.605 12.3937C118.72 12.3937 120.201 14.501 120.201 16.8723H124.866V16.626C124.866 11.9541 121.389 8.21334 115.571 8.21334ZM70.4374 8.59991L62.8636 32.5726H67.735L69.4364 26.5313H76.8697L78.5445 32.5726H83.7602L76.2041 8.59991H70.4374ZM70.4758 22.8435L73.1575 13.3242H73.2088L75.8474 22.8435H70.4758ZM144.524 8.59991V18.2247H134.918V8.59991H130.048V32.5726H134.918V22.3515H144.524V32.5732H149.412V8.59991H144.524ZM83.6746 12.7444H90.6626V32.5726H95.5169V12.7444H102.523V8.59991H83.6746V12.7444ZM21.7996 17.6684C21.7612 13.5322 25.1096 11.5422 25.2626 11.4462C23.3616 8.59048 20.4254 8.27522 19.3913 8.19625C16.7516 7.99825 14.514 9.70129 13.2644 9.70129C11.997 9.70129 10.0429 8.23927 7.97065 8.27875C5.25057 8.32059 2.74309 9.89221 1.34112 12.379C-1.48466 17.385 0.619471 24.7988 3.37144 28.8578C4.7179 30.8437 6.32301 33.0788 8.43246 32.9969C10.4628 32.9156 11.2299 31.6563 13.6842 31.6563C16.1368 31.6563 16.8289 32.9969 18.9756 32.9551C21.16 32.9162 22.5449 30.9327 23.8807 28.935C25.4279 26.6332 26.0634 24.4046 26.1012 24.2837C26.0521 24.2673 21.8409 22.6184 21.7996 17.6684ZM17.762 5.51559C18.8829 4.13489 19.6376 2.20852 19.4297 0.296875C17.8163 0.361107 15.8663 1.39354 14.7088 2.77246C13.673 3.99641 12.7624 5.9552 13.0092 7.83207C14.8081 7.97291 16.6423 6.89805 17.762 5.51559Z" fill="white"/>
</g>
<defs>
<clipPath id="clip0_16391_40898">
<rect width="150" height="33" fill="white"/>
</clipPath>
</defs>
</svg>
