<svg width="67" height="69" viewBox="0 0 67 69" fill="none" xmlns="http://www.w3.org/2000/svg">
<path fill-rule="evenodd" clip-rule="evenodd" d="M28.2596 38.4849C28.2793 38.503 28.2985 38.5207 28.317 38.5376C28.8246 39.0014 29.3719 39.3773 29.9591 39.6662C30.4528 39.9153 30.9747 40.1019 31.5249 40.2265V44.0939H21.8342C21.764 44.0944 21.6941 44.0944 21.6242 44.0939C21.6147 44.0939 21.6054 44.0939 21.5955 44.0939H21.3855C20.3953 44.073 19.4752 43.8981 18.6262 43.569L28.2596 38.4849ZM34.9333 22.2536C35.7036 22.6372 36.4227 23.1332 37.0911 23.7411C37.7221 24.3184 38.2439 24.9367 38.657 25.5963C38.9945 25.3488 39.3569 25.1534 39.7453 25.0099C40.2865 24.8063 40.8748 24.7043 41.5116 24.7037C42.7942 24.7007 43.8888 25.112 44.7963 25.9375C44.8484 25.9852 44.8995 26.0348 44.9488 26.0863L38.2085 29.6387C38.197 29.6202 38.1842 29.6026 38.1701 29.5862C38.1496 29.578 38.1304 29.5695 38.113 29.5598C37.8198 29.2934 37.5139 29.0568 37.1962 28.8511C36.5009 28.3988 35.7469 28.0811 34.9333 27.8973V22.2536ZM12.6205 25.0535C11.684 25.9087 10.6178 26.4686 9.42209 26.7337V41.3723C10.6109 41.6365 11.6707 42.1883 12.6015 43.0263C12.6126 43.0356 12.6254 43.044 12.6397 43.0523C12.6572 43.0663 12.6764 43.0809 12.6969 43.0961L15.6566 41.5299C14.4954 40.2631 13.9128 38.7785 13.9095 37.0764C13.9145 35.4395 14.4555 34.0045 15.5326 32.7713C15.7265 32.5502 15.9364 32.3346 16.1628 32.1237C17.579 30.8313 19.2721 30.1519 21.2425 30.0849C21.2407 29.9716 21.2407 29.8578 21.2425 29.7436C21.2425 29.6769 21.2425 29.6098 21.2425 29.5423L26.5414 32.3422C26.4631 32.6162 26.4058 32.8993 26.3694 33.191C26.3243 33.4712 26.2987 33.7601 26.2931 34.0573C26.2971 34.6611 26.3798 35.2357 26.5414 35.7812L15.6758 41.5299C15.8297 41.7016 15.9953 41.868 16.1724 42.0286C16.2538 42.1038 16.3365 42.1766 16.4207 42.2473C17.0937 42.8205 17.8287 43.258 18.626 43.5599L14.3774 45.8085C14.5428 46.349 14.6321 46.9176 14.6449 47.5148C14.645 47.5264 14.645 47.538 14.6449 47.55C14.6319 48.1393 14.5458 48.6995 14.387 49.2299L28.2504 56.5536C28.2722 56.5362 28.2947 56.5187 28.3172 56.5011L28.3267 56.4923C29.2618 55.6463 30.3314 55.0893 31.5348 54.821V44.0847H34.9336V40.2173C36.1261 39.952 37.1895 39.3922 38.1227 38.5373C38.1375 38.53 38.1535 38.5243 38.1704 38.5198C38.1855 38.5018 38.2014 38.4843 38.2182 38.4672L47.8518 43.5686C46.9397 43.9181 45.9468 44.0931 44.8727 44.0934C44.863 44.0934 44.8539 44.0934 44.8445 44.0934H34.9338V54.8208C36.1259 55.0911 37.1887 55.6483 38.1229 56.4921C38.1343 56.4986 38.1468 56.5044 38.1613 56.5095C38.178 56.5255 38.1939 56.5426 38.209 56.5622L52.0813 49.247C51.9135 48.6986 51.8278 48.1208 51.8237 47.5144C51.8278 46.9026 51.9105 46.3191 52.0721 45.7643L47.8519 43.5594C48.5684 43.2807 49.2368 42.896 49.8573 42.4044C50.0056 42.2865 50.1521 42.1611 50.296 42.0281C50.4732 41.8672 50.6417 41.7006 50.8023 41.5294L39.918 35.7633C40.0737 35.2329 40.1564 34.6697 40.1664 34.0746C40.1664 34.0628 40.1664 34.0513 40.1664 34.0397C40.1641 33.9331 40.161 33.8281 40.1564 33.7246C40.1251 33.2461 40.0455 32.788 39.918 32.3508L46.1527 29.0607C46.1424 29.4335 46.0855 29.7893 45.9806 30.1282C47.6277 30.3333 49.0665 30.9983 50.296 32.1234C50.9842 32.7504 51.5163 33.4387 51.8905 34.1883C52.3253 35.0663 52.5417 36.0286 52.5397 37.0759C52.5417 38.7773 51.9689 40.2622 50.8211 41.5294L53.7621 43.0782C53.7884 43.0567 53.8143 43.0362 53.8384 43.0171V43.0081C54.7727 42.1669 55.8357 41.6129 57.0275 41.3455V26.742C55.835 26.4722 54.7719 25.918 53.8384 25.0794V25.0707C53.8166 25.0564 53.7941 25.0418 53.7718 25.0269L46.1529 29.0606C46.1529 29.0186 46.1529 28.9777 46.1529 28.9381C46.1555 28.3554 46.0471 27.8158 45.8281 27.3193C45.6281 26.8689 45.3355 26.4547 44.9497 26.0768L52.0723 22.3231C51.9108 21.7743 51.8281 21.1968 51.8239 20.5904C51.828 19.9903 51.9107 19.4186 52.0723 18.8755L38.1898 11.5432C38.1706 11.5611 38.1511 11.5787 38.1327 11.5957C37.1961 12.4477 36.13 13.0049 34.9341 13.267V22.2444C34.2648 21.9077 33.5585 21.6568 32.8146 21.4918C32.3989 21.401 31.9723 21.3369 31.5353 21.2995V13.2843C30.3283 13.0152 29.2554 12.4523 28.3178 11.5957C28.2995 11.579 28.2803 11.5612 28.2604 11.5432L14.3874 18.8755C14.5464 19.4065 14.6324 19.9664 14.6454 20.5557C14.6455 20.5671 14.6455 20.5788 14.6454 20.5904C14.6324 21.1915 14.5431 21.7631 14.3779 22.3056L22.0067 26.3129C22.4546 25.3784 23.107 24.5209 23.9639 23.7403C24.1877 23.5364 24.4169 23.3439 24.6512 23.1628C26.3199 21.8902 28.2771 21.2544 30.523 21.2554C30.8639 21.2566 31.1981 21.2741 31.5254 21.3079V27.8967C30.9031 28.0343 30.3177 28.2501 29.7686 28.5443C29.2559 28.8136 28.7752 29.152 28.327 29.5592C28.3127 29.5687 28.2965 29.5774 28.2793 29.5856C28.268 29.5994 28.2552 29.614 28.2412 29.6293L21.9972 26.3218C21.7745 26.7857 21.5993 27.267 21.472 27.7655C21.332 28.3313 21.2558 28.9205 21.243 29.5332L12.6594 25.0093C12.6545 25.0197 12.6481 25.0286 12.6405 25.0356C12.6321 25.0409 12.6256 25.0466 12.6205 25.0535ZM28.3073 2.63617L28.3264 2.62745C29.4379 1.62133 30.7396 1.02639 32.2314 0.842459C32.5534 0.802606 32.8843 0.782303 33.2244 0.78125C35.1302 0.78501 36.7628 1.40041 38.1224 2.62745L38.1412 2.63617C39.4749 3.86666 40.153 5.35418 40.175 7.09856C40.1753 7.11119 40.1753 7.12578 40.175 7.14232C40.1589 7.73967 40.0663 8.3083 39.898 8.84865L53.7613 16.1637C53.7862 16.1467 53.8117 16.1291 53.8376 16.1112V16.0849C55.1944 14.8653 56.8337 14.2556 58.7547 14.2562C60.6572 14.2541 62.2868 14.8637 63.6429 16.0849L63.6621 16.1197C64.1745 16.59 64.5911 17.0976 64.9128 17.6423C65.4178 18.5257 65.6757 19.5056 65.686 20.5823C65.6863 20.5939 65.6863 20.6056 65.686 20.6172C65.6658 22.368 64.9878 23.8525 63.6528 25.071C62.7142 25.9308 61.6447 26.4937 60.4445 26.7597V41.3458C61.6407 41.6079 62.7071 42.1621 63.6428 43.0084L63.662 43.0261C64.992 44.2593 65.6673 45.7499 65.6859 47.4971C65.6862 47.5057 65.6862 47.5145 65.6859 47.5234C65.6747 48.514 65.4519 49.4185 65.0175 50.236C64.6887 50.8711 64.2334 51.4542 63.6528 51.986C62.2935 53.2288 60.6613 53.8502 58.7547 53.8499C56.8327 53.8488 55.1941 53.2274 53.8376 51.986C53.8136 51.9669 53.7912 51.9494 53.771 51.9333L39.898 59.2573C40.0662 59.792 40.1589 60.3606 40.175 60.9635C40.1753 60.9799 40.1753 60.9943 40.175 61.0073C40.1515 62.7581 39.4703 64.2425 38.1319 65.461C36.9854 66.5129 35.6424 67.1193 34.1027 67.281C33.8175 67.3118 33.5247 67.3265 33.2243 67.3247C31.3057 67.3234 29.6699 66.7023 28.3168 65.461C26.9763 64.2375 26.3046 62.747 26.3023 60.9895C26.3033 60.3833 26.3829 59.806 26.541 59.2573L12.6968 51.9333C12.6786 51.9524 12.6594 51.9702 12.6395 51.986C12.632 51.9908 12.6254 51.9962 12.6203 52.0034C11.2584 53.2465 9.62258 53.8676 7.71289 53.8673C5.79123 53.8658 4.15208 53.2449 2.79577 52.0034C2.11393 51.3799 1.60813 50.6857 1.27787 49.9208C0.950234 49.1869 0.784695 48.3876 0.78125 47.5234C0.785352 45.772 1.45686 44.2792 2.79577 43.0436L2.80545 43.0261C3.74061 42.186 4.8098 41.6347 6.01353 41.3721V26.7337C4.80619 26.4674 3.73372 25.9073 2.79577 25.0535C1.45538 23.8303 0.783875 22.3399 0.78125 20.5824C0.781578 19.4497 1.05835 18.4231 1.61206 17.5026C1.92296 16.9983 2.31753 16.5261 2.79577 16.085L2.80545 16.0676C4.15897 14.8479 5.79516 14.2382 7.71289 14.2388C9.61569 14.2368 11.245 14.8465 12.6013 16.0676C12.6125 16.0827 12.6253 16.0972 12.6395 16.1113C12.6635 16.128 12.6856 16.1455 12.7061 16.1638L26.5409 8.8488C26.3827 8.30349 26.3031 7.72869 26.3022 7.12518C26.3033 5.37102 26.9717 3.87463 28.3073 2.63617Z" fill="white" stroke="white" stroke-width="1.5625"/>
</svg>
