<svg width="112" height="48" viewBox="0 0 112 48" fill="none" xmlns="http://www.w3.org/2000/svg">
<path d="M28.8632 7.69247C30.6615 5.62171 31.8817 2.84127 31.5599 0C28.9275 0.12051 25.7153 1.59889 23.8555 3.67127C22.1857 5.44595 20.7077 8.3428 21.093 11.065C24.0479 11.301 27.0002 9.70514 28.8632 7.69247Z" fill="white"/>
<path d="M31.5298 11.5963C27.2385 11.361 23.5898 13.8386 21.5405 13.8386C19.4901 13.8386 16.3519 11.7149 12.9577 11.7722C8.53997 11.8319 4.44081 14.1316 2.199 17.7892C-2.41204 25.1061 0.982142 35.9597 5.46613 41.9189C7.64366 44.8672 10.2679 48.1134 13.7259 47.9968C16.993 47.8788 18.2736 46.0491 22.2449 46.0491C26.2133 46.0491 27.3669 47.9968 30.8253 47.9378C34.4119 47.8788 36.6541 44.9881 38.8316 42.037C41.3296 38.6762 42.3522 35.431 42.4165 35.2529C42.3522 35.1939 35.5007 32.774 35.4372 25.5178C35.3725 19.4422 40.8164 16.5522 41.0726 16.373C37.9984 12.1869 33.195 11.7149 31.5298 11.5963Z" fill="white"/>
<path d="M64.7458 3.29346V11.8624H72.1913V17.3463H64.7458V37.6383C64.7458 40.7571 66.2349 42.2309 69.4739 42.2309C70.293 42.2309 71.6703 42.1286 72.1541 42.06V47.5439C71.335 47.7498 69.5112 47.8527 67.8358 47.8527C60.2778 47.8527 57.2996 45.1444 57.2996 38.2552V17.3463H51.6406V11.8624H57.2996V3.29346H64.7458Z" fill="white"/>
<path d="M97.9262 47.6468H90.0708L75.9609 11.8623H83.7791L93.9426 40.757H94.0917L104.255 11.8623H111.999L97.9262 47.6468Z" fill="white"/>
</svg>
