<svg width="65" height="65" viewBox="0 0 65 65" fill="none" xmlns="http://www.w3.org/2000/svg">
<path d="M22.2399 42.999C32.6527 37.7132 29.1062 21.9902 17.2655 21.8359C5.42352 21.9909 1.87962 37.7152 12.2913 42.999C6.32943 45.0672 2.03125 50.7257 2.03125 57.3828C2.03125 59.063 3.39798 60.4297 5.07812 60.4297H29.4531C31.1333 60.4297 32.5 59.063 32.5 57.3828C32.5 50.7256 28.2018 45.0672 22.2399 42.999ZM8.12499 33.0078C8.12499 27.9703 12.2281 23.8672 17.2656 23.8672C28.7633 24.2648 29.6277 40.4012 18.3219 42.0875C13.0281 42.7577 8.07559 38.4464 8.12499 33.0078ZM29.4531 58.3984H26.4062V56.3672C26.4062 55.8058 25.952 55.3516 25.3906 55.3516C24.8292 55.3516 24.375 55.8058 24.375 56.3672V58.3984H10.1562V56.3672C10.1562 55.8058 9.70198 55.3516 9.14061 55.3516C8.57925 55.3516 8.12499 55.8058 8.12499 56.3672V58.3984H5.07811C4.51773 58.3984 4.06249 57.9432 4.06249 57.3828C4.06249 50.7402 8.99878 45.2428 15.3927 44.3283L12.2484 52.975C11.9958 53.6084 12.5225 54.355 13.2031 54.3359H21.3281C22.008 54.3548 22.5364 53.6087 22.2827 52.975L19.1385 44.3283C25.5324 45.2428 30.4687 50.7402 30.4687 57.3828C30.4687 57.9432 30.0135 58.3984 29.4531 58.3984Z" fill="white"/>
<path d="M57.8906 4.57031H23.3594C20.5562 4.57031 18.2812 6.8453 18.2812 9.64844V19.8555C26.2009 20.3269 32.1035 28.3612 30.093 36.1258C30.2148 36.0851 30.3367 36.0547 30.4688 36.0547H50.7812C52.1089 36.0782 52.1207 38.0599 50.7812 38.0859H30.4688C30.1335 38.0859 29.8289 37.9132 29.6359 37.6593C28.925 39.5789 27.7673 41.2953 26.2844 42.6765C28.2039 43.8547 29.8898 45.3984 31.2101 47.2266H32.5V48.2422C32.5 49.9223 33.8667 51.2891 35.5469 51.2891H39.6094V53.5075C36.4311 54.6448 37.2139 59.3826 40.625 59.4141C44.0364 59.3824 44.8187 54.6442 41.6406 53.5075V51.2891H45.7031C47.3833 51.2891 48.75 49.9223 48.75 48.2422V47.2266H57.8906C60.6938 47.2266 62.9688 44.9516 62.9688 42.1484V9.64844C62.9688 6.8453 60.6938 4.57031 57.8906 4.57031ZM40.625 57.3828C39.2903 57.3594 39.2904 55.3747 40.625 55.3516C41.9597 55.3749 41.9596 57.3596 40.625 57.3828ZM46.7188 48.2422C46.7188 48.8026 46.2635 49.2578 45.7031 49.2578H35.5469C34.9865 49.2578 34.5312 48.8026 34.5312 48.2422V47.2266H46.7188V48.2422ZM32.5 14.7266H48.75C50.079 14.7505 50.0882 16.7319 48.75 16.7578H32.5C31.171 16.7338 31.1618 14.7525 32.5 14.7266ZM46.7188 30.9766H34.5312C33.2008 30.9521 33.194 28.9711 34.5312 28.9453H46.7188C48.0492 28.9697 48.056 30.9508 46.7188 30.9766ZM51.7969 23.8672H29.4531C28.1263 23.8439 28.113 21.862 29.4531 21.8359H51.7969C53.1237 21.8592 53.137 23.841 51.7969 23.8672Z" fill="white"/>
</svg>
