<svg width="65" height="65" viewBox="0 0 65 65" fill="none" xmlns="http://www.w3.org/2000/svg">
<path d="M21.7166 44.084H18.9062C20.2919 48.576 23.8274 52.1107 28.3126 53.4911V50.6799C28.3126 47.0431 25.3534 44.084 21.7166 44.084Z" fill="white"/>
<path d="M46.6086 41.6768C46.625 41.5472 46.6432 41.4184 46.656 41.2875C46.7006 40.8313 46.7302 40.3705 46.7302 39.9029C46.7302 39.4371 46.7005 38.976 46.6562 38.5189C46.6433 38.3861 46.6248 38.2551 46.6083 38.1234C46.5868 37.9534 46.5531 37.7877 46.5255 37.6196H37.6736C37.6801 37.727 37.6829 37.8362 37.6829 37.9463C37.6829 40.8093 35.3539 43.1384 32.4918 43.1384C29.6363 43.1384 27.3129 40.8093 27.3129 37.9463C27.3129 37.8362 27.3166 37.727 27.3222 37.6196H18.4699C18.4427 37.7864 18.4093 37.951 18.388 38.1195C18.3713 38.2526 18.3526 38.385 18.3396 38.5192C18.2953 38.9764 18.2656 39.4373 18.2656 39.9029C18.2656 40.37 18.2953 40.8302 18.3395 41.2851C18.3525 41.4181 18.371 41.549 18.3877 41.6807C18.4089 41.847 18.442 42.0083 18.469 42.1722H21.7139C26.4046 42.1722 30.2216 45.9892 30.2216 50.6799V53.9235C30.399 53.9525 30.573 53.9888 30.7531 54.0108C30.8637 54.0246 30.9732 54.0402 31.0849 54.0513C32.0168 54.1429 32.971 54.1433 33.9029 54.0522C34.0166 54.041 34.1282 54.0251 34.2409 54.0111C34.4216 53.989 34.5961 53.9528 34.7742 53.9238V50.6799C34.7742 45.9892 38.5912 42.1722 43.2819 42.1722H46.5265C46.5537 42.0069 46.5874 41.8442 46.6086 41.6768Z" fill="white"/>
<path d="M36.6875 50.6799V53.4907C41.1797 52.1065 44.7145 48.5715 46.0949 44.084H43.2835C39.6466 44.084 36.6875 47.0431 36.6875 50.6799Z" fill="white"/>
<path d="M15.6966 11.1856L20.0398 13.3175C20.0615 13.3262 20.0843 13.3297 20.1054 13.3401L32.5245 19.4459C32.5347 19.4413 32.6197 19.4431 32.6299 19.4385L45.4214 14.1942C45.4249 14.1927 45.4287 14.1926 45.4322 14.1912L49.9777 12.3282C49.9852 12.3151 50.03 12.2694 50.0384 12.2572C50.0496 12.2404 50.0561 12.2031 50.0458 12.1685L33.1508 3.83071C33.1387 3.82511 33.1172 3.82324 33.1004 3.82324C33.0892 3.82324 33.0799 3.82418 33.0743 3.82511L15.6901 10.9513C15.6714 10.9597 15.6201 10.9812 15.6173 11.0586C15.6145 11.1436 15.6742 11.1744 15.6966 11.1856Z" fill="white"/>
<path d="M46.4269 23.8289C46.3471 24.59 46.0914 25.3224 45.6598 25.9653C45.5851 26.0857 45.4964 26.1977 45.3975 26.2957C44.8338 27.0218 44.0665 27.5326 43.1746 27.8047C45.7443 30.0743 47.5342 33.0888 48.2697 36.4498C48.2703 36.4523 48.272 36.4542 48.2726 36.4567C48.52 37.5684 48.6451 38.7287 48.6451 39.9031C48.6451 41.082 48.519 42.2377 48.2717 43.3383C46.9374 49.4864 42.0979 54.3275 35.9435 55.6666C35.9411 55.6672 35.9381 55.6681 35.9357 55.6686C34.8426 55.9141 33.687 56.0401 32.5071 56.0401C31.3188 56.0401 30.1594 55.9141 29.0588 55.6667C22.9109 54.3328 18.068 49.4899 16.7285 43.3317C16.483 42.2377 16.357 41.0821 16.357 39.9031C16.357 38.7287 16.482 37.5684 16.7294 36.4567C17.511 32.878 19.4641 29.7147 22.2879 27.4069C22.0406 27.3272 21.7886 27.2642 21.5434 27.1788C20.8965 26.9566 20.2962 26.5861 19.8127 26.1072C19.5541 25.8523 19.318 25.5462 19.093 25.1728C18.843 24.7442 18.673 24.2872 18.5698 23.8208C13.8895 27.8712 11.2266 33.6663 11.2266 39.9003C11.2266 51.6322 20.7714 61.177 32.5033 61.177C44.2353 61.177 53.7801 51.6322 53.7801 39.9003C53.7801 33.73 51.0572 27.8519 46.4269 23.8289Z" fill="white"/>
<path d="M43.9222 25.0814C43.9661 25.0226 44.0165 24.9685 44.0725 24.9218C44.3666 24.4653 44.5318 23.9678 44.5523 23.459L44.7829 16.5233L33.3571 21.2084C33.2339 21.264 33.1038 21.3045 32.9702 21.3318C32.92 21.3421 32.8678 21.3415 32.8166 21.3477C32.7389 21.3571 32.6621 21.3718 32.5833 21.3718C32.5758 21.3718 32.5682 21.3693 32.5607 21.3692C32.459 21.3681 32.3576 21.3511 32.2557 21.3343C32.2098 21.3266 32.1637 21.3267 32.1181 21.3159C31.9713 21.2811 31.8265 21.2311 31.6871 21.1627L20.5934 15.7173L20.3594 22.7104L20.3622 22.8187C20.365 22.8411 20.3706 22.9045 20.3715 22.9279C20.3808 23.3685 20.505 23.796 20.7393 24.1983C20.8756 24.4243 21.0109 24.6016 21.1575 24.7463C21.4403 25.0254 21.7895 25.241 22.1703 25.3717C23.6686 25.8935 25.2051 26.3015 26.7425 26.5862C27.5873 26.7505 28.4424 26.8821 29.3646 26.9895C29.9929 27.0529 30.6295 27.108 31.2839 27.1397C32.6094 27.2079 33.8902 27.2088 35.0962 27.1425L35.3006 27.1341C37.7688 27.0053 40.1893 26.6319 42.4987 26.0224C43.0849 25.8711 43.5759 25.5463 43.9222 25.0814Z" fill="white"/>
<path d="M35.773 37.9464C35.773 37.5973 35.7208 37.264 35.6209 36.984C35.1868 35.5903 33.935 34.6792 32.4937 34.6792C31.0814 34.6792 29.8053 35.6117 29.3909 36.9476C29.2788 37.264 29.2266 37.5973 29.2266 37.9464C29.2266 39.7555 30.6921 41.2266 32.4937 41.2266C34.3019 41.2266 35.773 39.7555 35.773 37.9464Z" fill="white"/>
<path d="M40.8203 28.3634C39.0526 28.715 37.2375 28.9473 35.3978 29.0432L35.1897 29.0526C34.5652 29.0862 33.9201 29.103 33.2611 29.103C32.5825 29.103 31.8889 29.0852 31.1841 29.0498C30.498 29.0162 29.8278 28.9592 29.1519 28.8901C28.168 28.7753 27.2663 28.6362 26.3814 28.4645C25.788 28.3546 25.1946 28.2081 24.6017 28.0635C24.5985 28.0657 24.597 28.0693 24.5938 28.0715C21.8481 29.9167 19.8639 32.5993 18.9062 35.7083H27.8319C28.6589 33.9377 30.453 32.7678 32.4929 32.7678C34.5288 32.7678 36.3222 33.9261 37.164 35.7083H46.0928C45.1847 32.7677 43.3453 30.1932 40.8203 28.3634Z" fill="white"/>
<path d="M48.1328 19.7344C48.1328 20.2601 48.5534 20.6902 49.0887 20.6902C49.6144 20.6902 50.0446 20.2601 50.0446 19.7344L50.0541 14.3623L48.1424 15.1461L48.1328 19.7344Z" fill="white"/>
</svg>
