<svg width="65" height="65" viewBox="0 0 65 65" fill="none" xmlns="http://www.w3.org/2000/svg"><path d="M47.423 18.591c.26 0 .52-.1.718-.298l4.253-4.252a6.24 6.24 0 0 0 3.636 1.185c1.602 0 3.206-.61 4.426-1.83a6.22 6.22 0 0 0 1.834-4.428 6.22 6.22 0 0 0-1.834-4.427 6.27 6.27 0 0 0-8.854 0 6.22 6.22 0 0 0-1.834 4.427 6.2 6.2 0 0 0 1.178 3.647l-4.242 4.242a1.015 1.015 0 0 0 .72 1.734M8.971 62.29a6.24 6.24 0 0 0 4.426-1.832 6.22 6.22 0 0 0 1.835-4.427 6.2 6.2 0 0 0-1.179-3.647l4.243-4.242a1.015 1.015 0 1 0-1.436-1.437l-4.253 4.253c-2.443-1.753-5.868-1.55-8.062.646a6.22 6.22 0 0 0-1.834 4.427c0 1.673.651 3.245 1.834 4.427a6.24 6.24 0 0 0 4.426 1.831m41.975-9.905a6.2 6.2 0 0 0-1.178 3.647c0 1.672.651 3.245 1.834 4.427a6.24 6.24 0 0 0 4.427 1.831c1.602 0 3.206-.61 4.426-1.83a6.22 6.22 0 0 0 1.834-4.428 6.22 6.22 0 0 0-1.834-4.427c-2.196-2.195-5.619-2.398-8.062-.646l-4.253-4.252a1.015 1.015 0 1 0-1.436 1.436zM8.972 15.227c1.28 0 2.55-.407 3.636-1.185l4.253 4.252a1.013 1.013 0 0 0 1.436 0 1.015 1.015 0 0 0 0-1.436l-4.242-4.242a6.2 6.2 0 0 0 1.178-3.647 6.22 6.22 0 0 0-1.835-4.427 6.27 6.27 0 0 0-8.853 0 6.22 6.22 0 0 0-1.834 4.427c0 1.673.651 3.245 1.834 4.427a6.24 6.24 0 0 0 4.426 1.831zm23.531 14.848a1.74 1.74 0 0 0 1.738-1.738v-1.323h-3.475v1.323c0 .958.78 1.738 1.737 1.738m11.955-5.092-2.904-4.771h-1.827l1.742 4.771zm-22.97 5.092a1.74 1.74 0 0 0 1.738-1.738v-1.323H19.75v1.323c0 .958.78 1.738 1.738 1.738m12.035-9.863h-2.051l-.581 4.771h3.213zm2.743 8.125c0 .958.78 1.738 1.737 1.738s1.74-.78 1.74-1.738v-1.323h-3.477zm5.507 0c0 .958.78 1.738 1.738 1.738a1.74 1.74 0 0 0 1.738-1.738v-1.323h-3.476zm-2.466-3.354-1.743-4.771H35.57l.582 4.771zm-15.069 5.909a3.75 3.75 0 0 1-2.753 1.214c-.137 0-.266-.027-.4-.04v10.928h6.276v-7.877c0-.56.454-1.015 1.016-1.015h8.244c.562 0 1.016.455 1.016 1.015v7.877h6.275V32.065c-.133.014-.262.04-.399.04a3.75 3.75 0 0 1-2.753-1.213 3.75 3.75 0 0 1-2.755 1.214 3.75 3.75 0 0 1-2.753-1.214 3.75 3.75 0 0 1-2.754 1.214 3.75 3.75 0 0 1-2.753-1.214 3.75 3.75 0 0 1-2.753 1.214 3.75 3.75 0 0 1-2.754-1.214" fill="#fff2f2"/><path d="M29.39 36.134h6.213v6.861h-6.212zm.042-15.922h-1.994l-1.743 4.771h3.155zm-.698 8.125v-1.323h-3.476v1.323c0 .958.78 1.738 1.739 1.738a1.74 1.74 0 0 0 1.737-1.738m-3.464-8.125h-1.826l-2.905 4.771h2.989z" fill="#fff2f2"/></svg>