<svg width="60" height="60" viewBox="0 0 60 60" fill="none" xmlns="http://www.w3.org/2000/svg">
<path fill-rule="evenodd" clip-rule="evenodd" d="M15 37.5256C14.5027 37.5256 14.0258 37.7231 13.6742 38.0748C13.3225 38.4264 13.125 38.9034 13.125 39.4006C13.125 39.8979 13.3225 40.3748 13.6742 40.7264C14.0258 41.0781 14.5027 41.2756 15 41.2756H30C30.4973 41.2756 30.9742 41.0781 31.3258 40.7264C31.6775 40.3748 31.875 39.8979 31.875 39.4006C31.875 38.9034 31.6775 38.4264 31.3258 38.0748C30.9742 37.7231 30.4973 37.5256 30 37.5256H15Z" fill="#4361EE"/>
<path fill-rule="evenodd" clip-rule="evenodd" d="M18.75 31.9006C18.2527 31.9006 17.7758 32.0981 17.4242 32.4498C17.0725 32.8014 16.875 33.2784 16.875 33.7756C16.875 34.2729 17.0725 34.7498 17.4242 35.1014C17.7758 35.4531 18.2527 35.6506 18.75 35.6506H30C30.4973 35.6506 30.9742 35.4531 31.3258 35.1014C31.6775 34.7498 31.875 34.2729 31.875 33.7756C31.875 33.2784 31.6775 32.8014 31.3258 32.4498C30.9742 32.0981 30.4973 31.9006 30 31.9006H18.75Z" fill="#4361EE"/>
<path fill-rule="evenodd" clip-rule="evenodd" d="M24.375 26.2756C23.8777 26.2756 23.4008 26.4731 23.0492 26.8248C22.6975 27.1764 22.5 27.6534 22.5 28.1506C22.5 28.6479 22.6975 29.1248 23.0492 29.4764C23.4008 29.8281 23.8777 30.0256 24.375 30.0256H30C30.4973 30.0256 30.9742 29.8281 31.3258 29.4764C31.6775 29.1248 31.875 28.6479 31.875 28.1506C31.875 27.6534 31.6775 27.1764 31.3258 26.8248C30.9742 26.4731 30.4973 26.2756 30 26.2756H24.375Z" fill="#4361EE"/>
<path fill-rule="evenodd" clip-rule="evenodd" d="M13.125 13.1506C12.6277 13.1506 12.1508 13.3481 11.7992 13.6998C11.4475 14.0514 11.25 14.5284 11.25 15.0256V16.9006H9.375C8.87772 16.9006 8.4008 17.0981 8.04917 17.4498C7.69754 17.8014 7.5 18.2784 7.5 18.7756C7.5 19.2729 7.69754 19.7498 8.04917 20.1014C8.4008 20.4531 8.87772 20.6506 9.375 20.6506H11.25V22.5256C11.25 23.0229 11.4475 23.4998 11.7992 23.8514C12.1508 24.2031 12.6277 24.4006 13.125 24.4006C13.6223 24.4006 14.0992 24.2031 14.4508 23.8514C14.8025 23.4998 15 23.0229 15 22.5256V20.6506H16.875C17.3723 20.6506 17.8492 20.4531 18.2008 20.1014C18.5525 19.7498 18.75 19.2729 18.75 18.7756C18.75 18.2784 18.5525 17.8014 18.2008 17.4498C17.8492 17.0981 17.3723 16.9006 16.875 16.9006H15V15.0256C15 14.5284 14.8025 14.0514 14.4508 13.6998C14.0992 13.3481 13.6223 13.1506 13.125 13.1506Z" fill="#4361EE"/>
<path fill-rule="evenodd" clip-rule="evenodd" d="M13.125 7.52563C6.93402 7.52563 1.875 12.5847 1.875 18.7756C1.875 22.0907 3.3269 25.0805 5.625 27.1436V48.7756C5.62505 49.2729 5.82261 49.7498 6.17423 50.1014C6.52585 50.453 7.00273 50.6506 7.5 50.6506H11.5759C12.3554 52.8264 14.4462 54.4006 16.875 54.4006C19.3038 54.4006 21.3946 52.8264 22.1741 50.6506H35.625H39.7009C40.4804 52.8264 42.5712 54.4006 45 54.4006C47.4288 54.4006 49.5196 52.8264 50.2991 50.6506H56.25C56.7473 50.6506 57.2241 50.453 57.5758 50.1014C57.9274 49.7498 58.125 49.2729 58.125 48.7756V35.6506C58.1253 35.2248 57.9807 34.8115 57.7148 34.4788L50.2148 25.1038C50.039 24.8842 49.8161 24.707 49.5625 24.5853C49.309 24.4636 49.0313 24.4005 48.75 24.4006H37.5V20.6506C37.5 20.1534 37.3024 19.6765 36.9508 19.3248C36.5991 18.9732 36.1223 18.7757 35.625 18.7756H24.375C24.375 12.5847 19.316 7.52563 13.125 7.52563ZM13.125 11.2756C17.2893 11.2756 20.625 14.6113 20.625 18.7756C20.625 22.94 17.2893 26.2756 13.125 26.2756C11.5358 26.2756 10.0671 25.7895 8.85864 24.9573C8.71379 24.8042 8.54418 24.6767 8.35693 24.5801C6.6854 23.2083 5.625 21.1237 5.625 18.7756C5.625 14.6113 8.96066 11.2756 13.125 11.2756ZM23.7268 22.5256H33.75V46.9006H22.1741C21.3946 44.7249 19.3038 43.1506 16.875 43.1506C14.4462 43.1506 12.3554 44.7249 11.5759 46.9006H9.375V29.3774C10.5493 29.7955 11.8113 30.0256 13.125 30.0256C18.0023 30.0256 22.1747 26.8851 23.7268 22.5256ZM37.5 28.1506H41.25V37.5256C41.25 38.0229 41.4476 38.4998 41.7992 38.8514C42.1509 39.203 42.6277 39.4006 43.125 39.4006H54.375V46.9006H50.2991C49.5196 44.7249 47.4288 43.1506 45 43.1506C42.5712 43.1506 40.4804 44.7249 39.7009 46.9006H37.5V28.1506ZM45 28.1506H47.8491L53.8477 35.6506H45V28.1506ZM16.875 46.9006C17.9327 46.9006 18.75 47.7179 18.75 48.7756C18.75 49.8334 17.9327 50.6506 16.875 50.6506C15.8173 50.6506 15 49.8334 15 48.7756C15 47.7179 15.8173 46.9006 16.875 46.9006ZM45 46.9006C46.0577 46.9006 46.875 47.7179 46.875 48.7756C46.875 49.8334 46.0577 50.6506 45 50.6506C43.9423 50.6506 43.125 49.8334 43.125 48.7756C43.125 47.7179 43.9423 46.9006 45 46.9006Z" fill="#4361EE"/>
</svg>
