<svg width="100" height="100" viewBox="0 0 100 100" fill="none" xmlns="http://www.w3.org/2000/svg">
<circle cx="50" cy="50" r="50" fill="#FF5D00" fill-opacity="0.1"/>
<path d="M72.9996 30.093C72.9724 29.7934 72.8336 29.5149 72.6108 29.3126C72.388 29.1102 72.0973 28.9987 71.7962 29H64.4781C64.4751 30.5634 64.4803 35.8567 64.4781 37.5129H65.9125C66.2317 37.5178 66.5361 37.6479 66.76 37.8751C66.984 38.1023 67.1095 38.4084 67.1095 38.7273C67.1095 39.0461 66.9839 39.3522 66.76 39.5794C66.536 39.8066 66.2316 39.9367 65.9125 39.9416H60.3085C59.9892 39.9369 59.6846 39.8069 59.4605 39.5796C59.2364 39.3524 59.1108 39.0462 59.1108 38.7272C59.1108 38.4082 59.2364 38.1021 59.4605 37.8748C59.6846 37.6476 59.9892 37.5176 60.3085 37.5129H62.0469V29H37.9531V36.7235H39.5942C39.9125 36.7297 40.2157 36.8604 40.4386 37.0875C40.6615 37.3145 40.7864 37.6199 40.7864 37.9379C40.7863 38.256 40.6615 38.5613 40.4386 38.7884C40.2156 39.0154 39.9125 39.1461 39.5942 39.1523H33.9902C33.6678 39.1523 33.3586 39.0243 33.1306 38.7966C32.9026 38.5688 32.7746 38.26 32.7746 37.9379C32.7746 37.6158 32.9026 37.3069 33.1306 37.0792C33.3586 36.8514 33.6678 36.7235 33.9902 36.7235H35.5219V29H28.2038C27.9027 28.9987 27.612 29.1102 27.3892 29.3126C27.1664 29.5149 27.0276 29.7934 27.0003 30.093L22.0041 79.6642C21.9903 79.8329 22.0114 80.0027 22.066 80.1629C22.1206 80.3232 22.2076 80.4705 22.3216 80.5958C22.4356 80.721 22.5741 80.8215 22.7286 80.8911C22.8831 80.9606 23.0503 80.9977 23.2197 81H76.7803C76.9497 80.9977 77.1169 80.9606 77.2714 80.8911C77.4259 80.8216 77.5645 80.721 77.6785 80.5958C77.7924 80.4705 77.8794 80.3232 77.9341 80.1629C77.9887 80.0026 78.0097 79.8328 77.9959 79.6641L72.9996 30.093ZM43.8368 47.1551H56.1632C59.1027 47.1579 61.9209 48.3256 63.9995 50.402C66.078 52.4784 67.2469 55.2938 67.2497 58.2303V61.6306C67.2503 61.7902 67.2192 61.9483 67.1583 62.0959C67.0974 62.2435 67.0079 62.3776 66.8949 62.4905C66.7819 62.6034 66.6477 62.6928 66.5 62.7536C66.3522 62.8145 66.1939 62.8455 66.0341 62.8449H33.9659C33.8061 62.8455 33.6478 62.8145 33.5 62.7536C33.3523 62.6928 33.218 62.6034 33.1051 62.4905C32.9921 62.3776 32.9025 62.2435 32.8416 62.0959C32.7808 61.9483 32.7497 61.7902 32.7502 61.6306V58.2303C32.7531 55.2938 33.922 52.4784 36.0005 50.402C38.079 48.3256 40.8973 47.1579 43.8368 47.1551Z" fill="#FF5D00"/>
<path d="M37.8056 27.3346C38.4743 11.5099 61.5294 11.5171 62.1944 27.3347V28.8632H64.6555C64.8635 26.8587 64.6393 24.8338 63.9976 22.9192C63.3558 21.0047 62.3106 19.2431 60.9295 17.7482C59.5484 16.2533 57.8622 15.0583 55.9796 14.2404C54.097 13.4226 52.06 13 50.0001 13C47.9402 13 45.9031 13.4226 44.0206 14.2405C42.138 15.0583 40.4517 16.2533 39.0707 17.7482C37.6896 19.2431 36.6444 21.0047 36.0026 22.9193C35.3609 24.8338 35.1368 26.8588 35.3448 28.8633L37.8056 28.8632V27.3346ZM65 57.8335C65.0009 55.8064 64.265 53.8449 62.9239 52.2994C61.5827 50.7538 59.7236 49.725 57.6784 49.3964V52.0202C57.6784 52.3394 57.5488 52.6456 57.318 52.8713C57.0872 53.097 56.7743 53.2238 56.4479 53.2238C56.1216 53.2238 55.8086 53.097 55.5778 52.8713C55.347 52.6456 55.2174 52.3394 55.2174 52.0202V49.264H51.4151V52.1526C51.4105 52.4689 51.2789 52.7707 51.0486 52.9927C50.8183 53.2148 50.5079 53.3393 50.1845 53.3393C49.8612 53.3393 49.5508 53.2148 49.3205 52.9927C49.0903 52.7706 48.9586 52.4688 48.9541 52.1525V49.264H44.7826V52.0202C44.7778 52.3363 44.6461 52.6379 44.4158 52.8598C44.1856 53.0817 43.8753 53.2061 43.5521 53.2061C43.2289 53.2061 42.9186 53.0817 42.6884 52.8598C42.4581 52.6379 42.3264 52.3363 42.3216 52.0202V49.3964C40.2764 49.725 38.4173 50.7538 37.0761 52.2994C35.735 53.8449 34.9991 55.8064 35 57.8335V60H65V57.8335Z" fill="#FF5D00"/>
</svg>
