<svg xmlns="http://www.w3.org/2000/svg" width="218" height="126" viewBox="0 0 218 126" fill="none"><path d="M107.876 39.7902H102.743V43.7775H107.876V39.7902Z" fill="#E8E8E8"></path><path d="M67.6584 48.475C69.5375 48.475 70.0875 50.1937 70.0875 51.1332H65.0461C65.0461 49.7812 65.9856 48.475 67.6584 48.475ZM73.0435 56.3808C72.5165 56.5641 71.9436 56.7246 71.3936 56.8391C70.752 56.9766 70.0645 57.0454 69.3771 57.0454C67.1543 57.0454 65.4127 56.3121 65.1377 54.5476H74.6018C74.6705 54.2039 74.808 53.4018 74.808 52.531C74.808 48.5438 72.8144 44.8773 67.7501 44.8773C62.8233 44.8773 60.2109 48.7271 60.2109 53.0581C60.2109 58.0307 63.6941 60.8952 68.575 60.8952C69.8125 60.8952 70.7062 60.7806 71.4624 60.6431C72.2415 60.4827 73.0894 60.2306 73.7997 59.9098L73.0435 56.3808Z" fill="#E8E8E8"></path><path d="M141.079 48.475C142.958 48.475 143.531 50.1937 143.531 51.1332H138.467C138.467 49.7812 139.383 48.475 141.079 48.475ZM146.441 56.3808C145.914 56.5641 145.364 56.7246 144.792 56.8391C144.15 56.9766 143.462 57.0454 142.775 57.0454C140.552 57.0454 138.811 56.3121 138.536 54.5476H147.977C148.045 54.2039 148.16 53.4018 148.16 52.531C148.16 48.5438 146.166 44.8773 141.102 44.8773C136.175 44.8773 133.563 48.7271 133.563 53.0581C133.563 58.0307 137.046 60.8952 141.904 60.8952C143.142 60.8952 144.058 60.7806 144.814 60.6431C145.594 60.4827 146.441 60.2306 147.175 59.9098L146.441 56.3808Z" fill="#E8E8E8"></path><path d="M82.2556 39.7902H77.1226V60.5745H82.2556V39.7902Z" fill="#E8E8E8"></path><path d="M92.5448 57.1142C90.872 57.1142 89.795 55.4643 89.795 52.9207C89.795 50.8812 90.5283 48.7272 92.5677 48.7272C94.5385 48.7272 95.2488 50.9729 95.2488 52.8978C95.2259 55.4414 94.1718 57.1142 92.5448 57.1142ZM92.4761 60.8952C96.4633 60.8952 100.519 58.3746 100.519 52.7603C100.519 49.4147 98.5257 44.9003 92.7052 44.9003C86.7014 44.9003 84.5474 49.2772 84.5474 53.0124C84.5703 57.71 87.8243 60.8952 92.4761 60.8952Z" fill="#E8E8E8"></path><path d="M107.876 45.244H102.743V60.5744H107.876V45.244Z" fill="#E8E8E8"></path><path d="M111.954 41.0734V45.244H109.983V49.0479H111.954V55.3268C111.954 58.787 113.535 60.8952 117.133 60.8952C117.82 60.8952 118.577 60.8264 119.287 60.7119C119.929 60.6202 120.524 60.4827 120.777 60.414L120.731 56.3809C120.547 56.4496 119.402 56.6329 118.966 56.6329C118.554 56.6329 117.935 56.5871 117.5 56.1288C117.179 55.808 116.95 55.2809 116.95 54.456V49.025H120.272V45.2211H116.95V40.4776L111.954 41.0734Z" fill="#E8E8E8"></path><path d="M123.802 41.0734V45.244H121.831V49.0479H123.802V55.3268C123.802 58.787 125.383 60.8952 128.981 60.8952C129.668 60.8952 130.424 60.8264 131.135 60.7119C131.776 60.6202 132.372 60.4827 132.624 60.414L132.578 56.3809C132.418 56.4496 131.249 56.6329 130.814 56.6329C130.401 56.6329 129.783 56.5871 129.347 56.1288C129.026 55.808 128.797 55.2809 128.797 54.456V49.025H132.12V45.2211H128.797V40.4776L123.802 41.0734Z" fill="#E8E8E8"></path><path d="M150.429 58.0766C150.429 56.5184 151.712 55.2351 153.271 55.2351C154.829 55.2351 156.112 56.4955 156.112 58.0766C156.112 59.6578 154.829 60.9181 153.271 60.9181C151.69 60.9181 150.429 59.6349 150.429 58.0766Z" fill="#E8E8E8"></path><path d="M40.3667 60.5973H46.1643C46.5538 60.5973 47.0351 60.5973 47.4017 60.5744C55.3533 60.1619 58.6532 55.4643 58.6532 50.0333C58.6532 43.2504 54.093 39.4694 46.2101 39.4694C44.1706 39.4694 42.3833 39.5381 40.3896 39.6985V60.5973H40.3667ZM47.7913 56.4496C47.585 56.4726 47.2642 56.4726 47.058 56.4726H45.431V43.7087C45.981 43.6629 46.7143 43.617 47.1955 43.617C50.1745 43.617 53.3597 45.5419 53.3597 50.0104C53.3368 54.7081 50.3349 56.2663 47.7913 56.4496Z" fill="#E8E8E8"></path><path d="M47.9973 72.2384C48.2265 72.2384 48.4557 72.2613 48.6848 72.2155C49.2577 72.1238 49.1431 71.4822 49.441 71.4822C49.6702 71.4822 49.6702 72.0092 49.6702 72.6738C49.6702 73.43 49.6472 74.2549 49.3723 74.2549C49.0514 74.2549 49.0973 73.5446 48.8681 73.2237C48.7765 73.0633 48.1348 72.7654 46.5078 72.7654C45.8662 72.7654 45.7516 72.8113 45.7516 73.7966V80.3504C45.7516 81.1066 45.9808 81.2441 46.6912 81.3358C47.1266 81.4045 47.539 81.3816 47.539 81.6337C47.539 81.8399 47.287 81.8399 47.1953 81.8399C46.6912 81.8399 45.7975 81.7712 45.0871 81.7712C44.4225 81.7712 43.6434 81.8399 42.7956 81.8399L42.5206 81.6795C42.5206 81.4274 43.0476 81.4045 43.4372 81.3358C44.1705 81.1754 44.3309 80.9462 44.3309 79.9838V73.4529C44.3309 72.7883 44.2163 72.7654 42.8872 72.7654C41.3977 72.7654 40.8019 74.3695 40.4582 74.3695L40.252 74.1633C40.252 73.957 40.7332 72.6738 40.9165 72.1925C41.0769 71.7572 41.1457 71.4822 41.3748 71.4822C41.7185 71.4822 41.4206 72.0321 41.9706 72.1238C42.7956 72.2155 43.5747 72.2384 44.3767 72.2384H47.9973Z" fill="#E8E8E8"></path><path d="M47.9975 72.2383V72.5133H48.387L48.7308 72.4904C49.1203 72.4217 49.3266 72.1238 49.4182 71.9404L49.5099 71.7342L49.4411 71.6655V71.7571L49.5099 71.7342L49.4411 71.6655V71.7571V71.6196L49.3724 71.7342L49.4411 71.7571V71.6196L49.3724 71.7342L49.4182 71.6655L49.3495 71.7113L49.3724 71.7342L49.4182 71.6655L49.3495 71.7113L49.3953 72.0092C49.4182 72.1925 49.4182 72.4217 49.4182 72.6737C49.4182 73.0404 49.4182 73.4299 49.3724 73.7278L49.3036 74.0257V74.0487L49.3495 74.0716L49.3266 74.0257L49.3036 74.0487L49.3495 74.0716L49.3266 74.0257L49.3953 74.1403V74.0028L49.3266 74.0257L49.3953 74.1403V74.0028V74.0716L49.4411 74.0028L49.3953 73.9799V74.0487L49.4411 73.9799L49.3266 73.6133L49.1432 73.0404C48.9828 72.8341 48.7766 72.7654 48.3641 72.6279C47.9516 72.5362 47.3787 72.4446 46.5309 72.4446C46.233 72.4446 45.9351 72.4217 45.7059 72.6967C45.4997 72.9487 45.5226 73.2466 45.4997 73.7508V80.3046C45.4997 80.717 45.5455 81.0149 45.7747 81.2441C46.0038 81.4732 46.3017 81.5191 46.6455 81.5649C46.8746 81.5878 47.1038 81.6107 47.2183 81.6336L47.31 81.6566L47.3558 81.5878H47.2871L47.3329 81.6566L47.3787 81.5878H47.2871H47.3558L47.2871 81.6336L47.2642 81.6795H47.3329L47.2871 81.6336L47.3558 81.6795L47.3329 81.6107L47.2871 81.6336L47.3558 81.6795L47.3329 81.6107L47.2183 81.6336C46.76 81.6336 45.8434 81.5649 45.1101 81.5649C44.4227 81.5649 43.6435 81.6336 42.8186 81.6336V81.9086L42.9561 81.6795L42.6811 81.5191L42.5436 81.7482H42.8186H42.704L42.7957 81.7941V81.7482H42.704L42.7957 81.7941L42.7498 81.7711L42.7957 81.817L42.8186 81.7941L42.7728 81.7711L42.8186 81.817C42.8415 81.7711 43.2311 81.7024 43.5519 81.6566C43.9185 81.5649 44.2393 81.4503 44.4456 81.1753C44.6289 80.8774 44.6747 80.5337 44.6747 80.0525V73.5216L44.6289 73.0404C44.5602 72.7883 44.3081 72.6279 44.056 72.605C43.8039 72.5592 43.4602 72.5592 42.9561 72.5592C42.1082 72.5592 41.5124 73.0175 41.1229 73.4529C40.9166 73.6591 40.7562 73.8653 40.6416 74.0257L40.5041 74.1632L40.4812 74.1861L40.55 74.3007V74.1861L40.4812 74.2091L40.55 74.3236V74.2091V74.484L40.7333 74.3007L40.55 74.0945L40.3437 74.2778H40.6187C40.6187 74.2091 40.7333 73.8195 40.8937 73.4299C41.0312 73.0404 41.1916 72.605 41.2833 72.3758C41.3749 72.1467 41.4208 71.9634 41.4666 71.8946L41.5124 71.8488L41.4895 71.803V71.8488H41.5124L41.4895 71.803V71.8488V71.78L41.4437 71.8488L41.4895 71.8717V71.803L41.4437 71.8717L41.5124 71.78L41.3978 71.8488L41.4437 71.8946L41.5124 71.803L41.3978 71.8717L41.5124 72.1925C41.5812 72.3529 41.7874 72.5133 42.0395 72.5362C42.8644 72.6279 43.6894 72.6508 44.4685 72.6508H48.0662V72.2383V71.9634H44.4227C43.6206 71.9634 42.8415 71.9404 42.0395 71.8488L41.9249 71.803L41.8561 71.5967L41.7416 71.3446L41.4208 71.2072C41.1687 71.2072 40.9854 71.3905 40.9166 71.5509C40.825 71.7113 40.7791 71.8946 40.7104 72.1009C40.6187 72.33 40.4583 72.7883 40.2979 73.2008C40.2292 73.407 40.1604 73.6133 40.0917 73.7737L40 74.1861V74.3007L40.2521 74.5757L40.3437 74.6674H40.4583C40.7562 74.6215 40.825 74.4611 40.9854 74.3236C41.3749 73.8424 41.9478 73.0633 42.8873 73.0633C43.5519 73.0633 43.9185 73.0862 43.9873 73.132L44.0331 73.1779L44.056 73.4987V80.0296C44.056 80.4879 44.0102 80.7399 43.9185 80.8545C43.8498 80.9691 43.7123 81.0378 43.3686 81.1066C43.1852 81.1524 42.9561 81.1753 42.7269 81.2212L42.4061 81.3587L42.1999 81.7253V81.8857L42.6124 82.1149L42.6811 82.1607H42.7498C43.5977 82.1607 44.3768 82.0919 45.0414 82.0919C45.7518 82.0919 46.6225 82.1607 47.1496 82.1607L47.4475 82.1149C47.585 82.069 47.7683 81.8857 47.7683 81.6795L47.585 81.3128C47.2871 81.1066 46.9892 81.1524 46.6684 81.1066C46.3246 81.0608 46.1413 80.992 46.0955 80.9462C46.0267 80.8774 45.9809 80.7629 45.9809 80.3962V73.8424C45.9809 73.3612 46.0267 73.132 46.0497 73.132L46.1184 73.1091L46.4621 73.0862C47.2642 73.0862 47.8141 73.155 48.1579 73.2466L48.5245 73.3841L48.6162 73.4299C48.6849 73.4987 48.7078 73.7508 48.7766 73.9799L48.9141 74.3466L49.3266 74.5986C49.5557 74.5986 49.6932 74.4382 49.739 74.3007C49.8994 73.9112 49.8994 73.3154 49.8994 72.7425C49.8994 72.3988 49.8994 72.1008 49.8765 71.8488L49.7619 71.5051L49.3953 71.2759L49.0057 71.5051L48.8224 71.8488L48.5933 72.0092L48.3183 72.0321H47.9287V72.2383H47.9975Z" fill="#E8E8E8"></path><path d="M53.3368 76.7756C53.3368 76.2256 52.8098 75.7902 52.1223 75.7902C50.9536 75.7902 50.2662 76.9131 50.2662 77.4172C50.2662 77.5318 50.312 77.5547 51.6869 77.5547C53.1306 77.5776 53.3368 77.3714 53.3368 76.7756ZM50.1287 78.0588C50.1058 78.1505 50.1058 78.3567 50.1058 78.6317C50.1058 79.9837 50.4724 81.3357 52.466 81.3357C53.7264 81.3357 53.7493 80.6712 54.0243 80.6712L54.1618 80.8087C54.1618 80.9232 53.4743 82.1148 51.8015 82.1148C50.0141 82.1148 48.9829 80.8545 48.9829 78.815C48.9829 77.2797 49.9224 75.4006 51.939 75.4006C53.7951 75.4006 54.4368 76.9818 54.4368 77.6922C54.4368 77.9901 54.3909 78.0588 54.116 78.0588H50.1287Z" fill="#E8E8E8"></path><path d="M53.3369 76.7756H53.6119C53.6119 76.0423 52.9244 75.5152 52.1453 75.5152C51.4578 75.5152 50.9308 75.836 50.587 76.2256C50.2204 76.6152 50.0371 77.0506 50.0141 77.4172L50.1516 77.6922C50.312 77.8068 50.4037 77.7838 50.6329 77.8068C50.862 77.8068 51.1828 77.8068 51.7099 77.8068C52.4432 77.8068 52.8786 77.7609 53.1994 77.6005C53.5431 77.4172 53.6348 77.0506 53.6348 76.7527H53.3369H53.0619C53.039 77.0276 53.039 77.0506 52.9015 77.1193C52.7411 77.211 52.3515 77.2797 51.6641 77.2568C50.9766 77.2568 50.6329 77.2568 50.4725 77.2339H50.4037L50.3808 77.3026L50.4266 77.2339H50.4037L50.3808 77.3026L50.4266 77.2339L50.335 77.4172L50.5183 77.3485L50.4266 77.2568L50.335 77.4401L50.5183 77.3714L50.3808 77.4172H50.5412V77.3714L50.4037 77.4172H50.5641C50.5641 77.2797 50.7016 76.8902 50.9995 76.5923C51.2745 76.2944 51.687 76.0423 52.1682 76.0423C52.7411 76.0423 53.1077 76.386 53.1077 76.7527H53.3369V76.7756ZM50.1287 78.0588L49.8767 77.9901C49.8308 78.1734 49.8308 78.3567 49.8308 78.6317C49.8308 79.3421 49.9225 80.0525 50.312 80.6483C50.7016 81.2441 51.412 81.6107 52.4432 81.6107C53.1077 81.6107 53.5202 81.4274 53.7723 81.2212L54.0243 80.9691L54.0702 80.9462L54.0243 80.8545V80.9691L54.0702 80.9462L54.0243 80.8545V80.9691V80.6941L53.841 80.9003L53.9785 81.0378L54.1618 80.8316H53.8868H54.0473L53.8868 80.7629L53.8639 80.8316H54.0243L53.8639 80.7629C53.841 80.8087 53.6577 81.1066 53.3369 81.3586C52.9931 81.6107 52.489 81.8628 51.7557 81.8628C50.9308 81.8628 50.312 81.5878 49.8996 81.0837C49.4642 80.5795 49.235 79.8233 49.235 78.838C49.235 78.1276 49.4642 77.3255 49.8996 76.7068C50.3579 76.0881 50.9995 75.6756 51.9161 75.6756C52.764 75.6756 53.314 76.0194 53.6577 76.4548C54.0014 76.8902 54.1389 77.4172 54.1389 77.6922L54.116 77.8297L54.2077 77.8755L54.1847 77.7839L54.1389 77.8297L54.2306 77.8755L54.2077 77.7839H54.116H49.9225L49.8537 77.9901L50.1287 78.0588V78.3338H54.0931L54.5743 78.1505L54.6889 77.6922C54.6889 77.2797 54.5056 76.661 54.0702 76.111C53.6348 75.5611 52.9244 75.1257 51.9161 75.1257C50.8162 75.1257 49.9912 75.6527 49.4642 76.386C48.9371 77.1193 48.6851 78.013 48.6851 78.838C48.6851 79.915 48.9371 80.7858 49.4871 81.4274C50.0141 82.069 50.8162 82.4128 51.7557 82.4128C52.6723 82.4128 53.314 82.0919 53.7494 81.7482C53.9556 81.5649 54.116 81.4045 54.2077 81.2441L54.3452 81.0378L54.391 80.8316V80.717L54.1618 80.5108L54.0931 80.442H54.0014L53.6348 80.6254C53.4285 80.8316 53.3369 81.0608 52.4661 81.1066C51.5266 81.1066 51.0683 80.8087 50.7704 80.3733C50.4725 79.9379 50.3808 79.3192 50.3808 78.6546C50.3808 78.4026 50.3808 78.1734 50.4037 78.1505L50.1287 78.0588Z" fill="#E8E8E8"></path><path d="M58.951 75.4006C59.4781 75.4006 60.6468 75.5152 60.6468 76.2256C60.6468 76.5235 60.4634 76.6381 60.1885 76.6381C59.5239 76.6381 59.4323 75.7902 58.5844 75.7902C57.8053 75.7902 56.4074 76.6839 56.4074 78.9296C56.4074 80.7399 57.5761 81.4274 58.8823 81.4274C59.8906 81.4274 60.1426 81.0378 60.3489 81.0378L60.4405 81.1753C60.4405 81.4503 59.4552 82.1378 58.3552 82.1378C56.3158 82.1378 55.3304 80.4878 55.3304 78.9525C55.3075 77.2109 56.4762 75.4006 58.951 75.4006Z" fill="#E8E8E8"></path><path d="M58.9507 75.4007V75.6756C59.2027 75.6756 59.6152 75.6986 59.9131 75.8131L60.2568 75.9965L60.3714 76.2256L60.3485 76.3402L60.1881 76.386C59.9818 76.386 59.8673 76.2714 59.6381 76.0423C59.4319 75.8131 59.0881 75.5381 58.5611 75.5381C57.5986 75.5381 56.1091 76.5693 56.1091 78.9296C56.1091 79.8921 56.43 80.6024 56.957 81.0607C57.4841 81.4961 58.1486 81.6795 58.859 81.6795C59.386 81.6795 59.7527 81.5649 60.0048 81.4732L60.2797 81.3357L60.3485 81.3128L60.3256 81.2212V81.3128H60.3485L60.3256 81.2212V81.3128V81.0378L60.0964 81.1982L60.1881 81.3357L60.3943 81.1753H60.1193H60.211L60.1193 81.1295V81.1753H60.211L60.1193 81.1295L60.0964 81.1753C59.9131 81.4045 59.1111 81.8628 58.2861 81.8399C56.43 81.8399 55.5363 80.3504 55.5133 78.9296C55.5363 77.3255 56.5445 75.6756 58.8819 75.6527V75.4007V75.1257C57.5757 75.1257 56.5904 75.6069 55.9258 76.3402C55.2842 77.0735 54.9634 78.013 54.9634 78.9525C54.9634 79.7775 55.2384 80.6254 55.7883 81.2899C56.3383 81.9544 57.1862 82.4128 58.2632 82.4128C58.8819 82.4128 59.4319 82.2294 59.8673 82.0003C60.0735 81.8857 60.2568 81.7711 60.3714 81.6565C60.5089 81.5191 60.6006 81.4274 60.6235 81.1982V81.1066L60.486 80.9003L60.3943 80.7858H60.3485C60.0735 80.8087 60.0048 80.9233 59.7985 80.992C59.6152 81.0837 59.3402 81.1524 58.8819 81.1524C58.2632 81.1524 57.7132 80.992 57.3237 80.6483C56.9341 80.3045 56.6591 79.7775 56.6591 78.9296C56.6591 76.7985 57.9653 76.0652 58.5611 76.0652C58.8819 76.0652 59.0423 76.2027 59.2485 76.4089C59.4548 76.5923 59.7069 76.9131 60.1652 76.9131L60.6693 76.7527C60.8297 76.6152 60.8985 76.4318 60.8985 76.2256C60.8985 75.9735 60.7839 75.7444 60.6235 75.6069C60.1422 75.1944 59.3631 75.1486 58.9277 75.1486V75.4007H58.9507Z" fill="#E8E8E8"></path><path d="M63.6717 76.2256L63.7404 76.4548C63.9238 76.4548 64.5654 75.4007 66.0549 75.4007C68.0256 75.4007 68.0714 77.0964 68.0714 77.6006V80.6025C68.0714 81.267 68.186 81.4045 68.5527 81.5191C68.7818 81.5878 68.9651 81.5878 68.9881 81.7253L68.5985 81.9086C68.1631 81.9086 67.7735 81.8399 67.3381 81.8399C66.9944 81.8399 66.5819 81.9086 66.2153 81.9086L65.9632 81.7482C65.9632 81.6107 66.0778 81.6107 66.4215 81.5191C66.7653 81.4274 66.9028 81.0379 66.9028 80.5108V77.2568C66.9028 76.5923 66.307 76.1111 65.4362 76.1111C64.3821 76.1111 63.6946 76.7985 63.6946 77.4401V80.8775C63.6946 81.3358 63.8779 81.4503 64.4966 81.5191C64.8404 81.542 64.955 81.5649 64.955 81.7253L64.657 81.9086C64.3133 81.9086 63.7404 81.8399 63.2821 81.8399C62.8009 81.8399 62.2968 81.9086 61.8155 81.9086L61.5635 81.7253L61.8385 81.5191C62.4572 81.4503 62.5947 81.1295 62.5947 80.6941V72.8112C62.5947 72.5133 61.7926 72.4446 61.7926 72.2384L61.9301 72.0321L63.4425 71.5051C63.7175 71.5051 63.7175 71.6884 63.7175 72.0779V76.2256H63.6717Z" fill="#E8E8E8"></path><path d="M63.6719 76.2256L63.4198 76.2943L63.4886 76.5006L63.5573 76.6839H63.7635L64.0156 76.5922C64.3364 76.3401 64.8864 75.6527 66.078 75.6527C66.9946 75.6527 67.3613 76.0193 67.5904 76.4089C67.8196 76.8214 67.8196 77.3255 67.8196 77.5776V80.5795C67.8196 80.9232 67.8425 81.1524 67.9571 81.3815C68.0716 81.6107 68.2779 81.7023 68.4841 81.7711L68.8049 81.8627L68.8508 81.7711L68.782 81.8398L68.8049 81.8627L68.8508 81.7711L68.782 81.8398L68.8737 81.7482L68.7362 81.7711L68.7591 81.8398L68.8508 81.7482L68.7133 81.7711L68.9882 81.7253L68.8737 81.4732L68.4841 81.6565L68.5987 81.9086V81.6336C68.2091 81.6336 67.7967 81.5649 67.3383 81.5649C66.9717 81.5649 66.5363 81.6336 66.2155 81.6336V81.9086L66.353 81.6794L66.1238 81.519L65.9863 81.7482H66.2613H66.1009L66.2155 81.8627L66.2613 81.7482H66.1009L66.2155 81.8627L66.1467 81.794L66.1926 81.8857L66.2155 81.8627L66.1467 81.794L66.1926 81.8857C66.2155 81.8628 66.353 81.8398 66.5363 81.794C66.7884 81.7253 66.9946 81.519 67.0863 81.3128C67.1779 81.0836 67.2238 80.8316 67.2238 80.5337V77.2797C67.2238 76.8672 67.0404 76.4776 66.7196 76.2485C66.3988 75.9964 65.9863 75.8589 65.5051 75.8589C64.3364 75.8589 63.5115 76.6151 63.4886 77.463V80.9003C63.4886 81.1524 63.5573 81.4274 63.7635 81.5878C63.9698 81.7253 64.2219 81.7711 64.5427 81.8169L64.8177 81.8398L64.8635 81.7253L64.7718 81.794L64.8177 81.8398L64.8635 81.7253L64.7718 81.794L64.8864 81.7253L64.7718 81.7482L64.7947 81.794L64.9093 81.7253L64.7947 81.7482H65.0697L64.9322 81.519L64.6114 81.7023L64.7489 81.9315V81.6336C64.4281 81.6336 63.8552 81.5649 63.374 81.5649C62.8698 81.5649 62.3657 81.6336 61.9074 81.6336V81.9086L62.0678 81.6794L61.7928 81.4961L61.6324 81.7253L61.7928 81.9315L62.0678 81.7253L61.9074 81.519L61.9303 81.794C62.2741 81.7482 62.549 81.6336 62.7324 81.4044C62.8928 81.1982 62.9386 80.9232 62.9386 80.6941V72.8112C62.9386 72.6049 62.8011 72.4675 62.7094 72.3987L62.2282 72.1696L62.0907 72.1008L61.9762 72.2154H62.1366L62.0907 72.1008L61.9762 72.2154H62.1366H61.8616L62.0907 72.3529L62.1595 72.2154L63.5802 71.7342L63.4886 71.4821V71.7571H63.5344V71.6883L63.4886 71.7342L63.5344 71.7571V71.6883L63.4886 71.7342L63.5344 71.7112L63.4656 71.7342L63.4886 71.7571L63.5344 71.7342L63.4656 71.7571L63.4886 72.1008V76.3401V76.3631L63.6719 76.2256H63.9469V72.0321C63.9469 71.8258 63.9698 71.6883 63.901 71.505C63.8552 71.2988 63.5802 71.1613 63.3969 71.1842H63.3511L61.7928 71.7112L61.7012 71.7342L61.5178 72.0321L61.472 72.1008V72.1696L61.5866 72.4216L62.1136 72.6966L62.2741 72.7883H62.297L62.3199 72.7653L62.2741 72.7883L62.297 72.7653L62.2511 72.7883L62.3428 72.7424H62.2511V72.7883L62.3428 72.7424H62.2511V80.6253L62.1595 81.0149C62.1136 81.0836 61.9991 81.1524 61.747 81.1982H61.6783L61.3345 81.4503L61.0366 81.6794L61.6095 82.069L61.6783 82.1148H61.7699C62.274 82.1148 62.7782 82.0461 63.2365 82.0461C63.6719 82.0461 64.2448 82.1148 64.6114 82.1148H64.6802L65.0468 81.9086L65.1843 81.8169V81.6565L64.9093 81.244L64.4739 81.1753C64.176 81.1524 64.0156 81.1065 63.9698 81.0607C63.9469 81.0149 63.901 81.0149 63.901 80.8086V77.3713C63.901 77.1422 64.0156 76.8901 64.2677 76.661C64.5198 76.4547 64.9093 76.2943 65.3676 76.2943C66.1238 76.3172 66.5592 76.7068 66.5592 77.188V80.442C66.5592 80.6941 66.5363 80.8774 66.4676 80.992L66.2842 81.1753L65.8947 81.2899L65.7114 81.4274L65.6197 81.6794V81.8169L65.9863 82.069L66.0551 82.1148H66.1467C66.5363 82.1148 66.9717 82.0461 67.2696 82.0461C67.6592 82.0461 68.0716 82.1148 68.5299 82.1148H68.5987L69.0341 81.9086L69.2174 81.8169L69.1945 81.6107C69.1716 81.4044 68.9653 81.2669 68.8737 81.2669L68.5758 81.1982L68.3695 81.0607C68.3237 81.0149 68.3008 80.8316 68.3008 80.5107V77.5088C68.3008 77.2568 68.3008 76.661 68.0029 76.0881C67.7279 75.5381 67.0863 75.034 66.0093 75.034C65.2072 75.034 64.6114 75.3319 64.1989 75.6069C63.9927 75.7444 63.8552 75.8818 63.7406 75.9735L63.6261 76.0652H63.6031L63.6948 76.2256V76.0423L63.6031 76.0652L63.6948 76.2256V76.0423V76.3172L63.9469 76.2256L63.8781 76.0193L63.6719 76.2256Z" fill="#E8E8E8"></path><path d="M70.7292 77.4859C70.7292 76.5693 70.0188 76.8901 70.0188 76.5693C70.0188 76.4089 70.2709 76.386 70.6605 76.0422C71.0271 75.6985 71.5313 75.1714 71.6917 75.1714L71.8521 75.3777V76.2256C72.5166 75.7443 73.0437 75.3777 73.9144 75.3777C76.0914 75.3777 76.1143 77.0047 76.1143 77.738V80.7857C76.1143 81.1524 76.1372 81.4273 76.5726 81.4961C76.8018 81.5419 77.1455 81.5419 77.1455 81.7252C77.1455 81.8856 77.0309 81.9086 76.8018 81.9086C76.3435 81.9086 75.8393 81.8398 75.5185 81.8398C75.0373 81.8398 74.6936 81.9086 74.3269 81.9086L74.0061 81.7482L74.2353 81.519C74.6936 81.4273 75.0373 81.4044 75.0373 80.5566V77.8525C75.0373 77.188 74.9456 76.111 73.6624 76.111C72.6541 76.111 71.8979 76.7068 71.875 76.8672C71.8521 77.2797 71.8521 77.6463 71.8521 78.0359V80.5566C71.8521 81.1294 71.875 81.4273 72.5854 81.519C72.7916 81.5648 73.0666 81.5648 73.0666 81.7482L72.6999 81.9315C72.5395 81.9315 71.9208 81.8627 71.5313 81.8627C71.05 81.8627 70.7292 81.9315 70.4084 81.9315L69.8813 81.7482L70.1334 81.519C70.5688 81.4503 70.7521 81.1065 70.7521 80.3274V77.4859H70.7292Z" fill="#E8E8E8"></path><path d="M70.7293 77.4859H71.0043C71.0272 76.9818 70.7293 76.638 70.4773 76.5693L70.2481 76.5006L70.1794 76.5922H70.294L70.2481 76.5006L70.1794 76.5922L70.271 76.6839L70.294 76.5922H70.1794L70.271 76.6839C70.271 76.661 70.5231 76.5464 70.8439 76.2714L71.4397 75.7214L71.6689 75.5152L71.7376 75.4694L71.6918 75.3319V75.4923H71.7376L71.6918 75.3548V75.5152V75.2402L71.4856 75.4006L71.6001 75.5381V76.2943V76.8214L72.0355 76.5006C72.7001 76.0193 73.1355 75.7214 73.9375 75.7214C74.9687 75.7214 75.3812 76.0881 75.6103 76.4776C75.8395 76.8901 75.8624 77.4401 75.8624 77.8067V80.8545C75.8624 81.0378 75.8624 81.244 75.954 81.4503C76.0457 81.6565 76.2749 81.8169 76.5498 81.8398L76.8936 81.8857L76.9394 81.9086H76.9623L77.0311 81.794H76.8936L76.9623 81.9086L77.0311 81.794H76.8936H76.9852L76.9165 81.7482L76.8936 81.794H76.9852L76.9165 81.7482L77.054 81.8169L76.9852 81.6794L76.9394 81.7253L77.0769 81.794L77.0082 81.6565L77.054 81.7253L77.0311 81.6565H77.0082L77.054 81.7253L77.0311 81.6565H76.8707C76.4353 81.6565 75.954 81.5878 75.5874 81.5878C75.0833 81.5878 74.7166 81.6565 74.3958 81.6565V81.9315L74.5104 81.6794L74.1666 81.519L74.0521 81.7711L74.2354 81.9544L74.4645 81.7253L74.2583 81.519L74.3271 81.794C74.5333 81.7482 74.7854 81.7253 75.0145 81.5419C75.2437 81.3357 75.3353 81.0149 75.3353 80.5566V77.8526C75.3353 77.5088 75.3124 77.0505 75.1062 76.6151C74.8999 76.1797 74.4187 75.836 73.6854 75.836C73.1355 75.836 72.6542 75.9964 72.2876 76.1797L71.8522 76.4776C71.7376 76.5922 71.6689 76.6381 71.623 76.8443C71.6001 77.2568 71.6001 77.6463 71.6001 78.0359V80.5566C71.6001 80.8316 71.6001 81.1065 71.7376 81.3586C71.898 81.6107 72.173 81.7482 72.5626 81.8169L72.8605 81.8628H72.8834L72.9063 81.794L72.8605 81.8398L72.8834 81.8628L72.9063 81.794L72.8605 81.8398L72.9751 81.7711H72.8376L72.8605 81.8398L72.9751 81.7711H72.8376H73.1125L72.998 81.5419L72.6313 81.7253L72.7459 81.9773V81.6336C72.6313 81.6336 71.9897 81.5649 71.5772 81.5649C71.0731 81.5649 70.7293 81.6336 70.4544 81.6336V81.9086L70.546 81.6565L70.019 81.4732L69.9273 81.7253L70.1106 81.9315L70.3627 81.7253L70.1794 81.4961L70.2252 81.7711C70.5002 81.7253 70.7523 81.5419 70.8898 81.2899C71.0272 81.0378 71.0502 80.717 71.0731 80.3045V77.4859H70.7293H70.4544V80.3045C70.4544 80.6712 70.4085 80.9232 70.3398 81.0378L70.0419 81.244L69.9731 81.267L69.6752 81.519L69.3086 81.8169L70.271 82.1606H70.3169H70.3627C70.7293 82.1606 71.0502 82.0919 71.4856 82.0919C71.8522 82.0919 72.4709 82.1606 72.6542 82.1606H72.723L73.1355 81.9544L73.2959 81.8857V81.7253L73.1813 81.4044C72.9521 81.2211 72.7459 81.267 72.6084 81.2211C72.2876 81.1753 72.1959 81.0836 72.173 81.0378C72.1272 80.9691 72.1043 80.8086 72.1272 80.5107V77.9901C72.1272 77.6005 72.1272 77.2339 72.1501 76.8443H71.9897L72.1272 76.913V76.8672H71.9668L72.1043 76.9359C72.1272 76.8901 72.3334 76.7297 72.6084 76.5922C72.8834 76.4547 73.25 76.3631 73.6396 76.3631C74.2125 76.386 74.4187 76.5693 74.5562 76.8443C74.6937 77.1193 74.7166 77.5317 74.7166 77.8526V80.5566C74.7166 80.969 74.625 81.0836 74.5791 81.1295C74.5333 81.1982 74.3729 81.2211 74.1437 81.267L74.0521 81.2899L73.7771 81.5649L73.5021 81.8169L74.1666 82.1377L74.2354 82.1606H74.3041C74.6937 82.1606 75.0374 82.0919 75.4957 82.0919C75.7936 82.0919 76.2978 82.1606 76.779 82.1606L77.1456 82.1148L77.3977 81.7253L77.2144 81.4044C76.9852 81.267 76.7332 81.2669 76.5728 81.244L76.3894 81.1524L76.3436 80.7857V77.738C76.3436 77.3713 76.3436 76.7297 76.0457 76.1568C75.7249 75.561 75.0374 75.1027 73.8917 75.1027C72.9292 75.1027 72.3334 75.5152 71.6689 75.9964L71.8293 76.2256H72.1043V75.3777V75.286L71.898 75.0111L71.8293 74.8965H71.6918L71.3481 75.034C71.096 75.2173 70.7293 75.5839 70.4544 75.836L70.019 76.1568L69.8356 76.2943L69.7211 76.5922L69.9961 76.9818L70.3169 77.1193C70.3627 77.1651 70.4085 77.2109 70.4314 77.5088H70.7293V77.4859Z" fill="#E8E8E8"></path><path d="M82.9895 78.7005C82.9895 77.4401 82.2562 75.7902 81.0417 75.7902C79.8272 75.7902 79.071 77.0505 79.071 78.8609C79.071 80.0754 79.8043 81.7482 81.0188 81.7482C82.2333 81.7482 82.9895 80.4649 82.9895 78.7005ZM84.2269 78.7234C84.2269 80.3733 83.2874 82.1148 81.0188 82.1148C78.7731 82.1148 77.8564 80.5337 77.8564 78.7921C77.8564 77.1422 78.796 75.4006 81.0646 75.4006C82.8749 75.4006 84.2269 76.9818 84.2269 78.7234Z" fill="#E8E8E8"></path><path d="M82.9886 78.7004H83.2636C83.2636 78.013 83.0803 77.2568 82.7136 76.6381C82.347 76.0423 81.797 75.5381 81.0408 75.5381C80.3304 75.5381 79.7346 75.9277 79.368 76.5235C79.0014 77.1193 78.7951 77.9442 78.7951 78.8838C78.7951 79.5483 79.0014 80.3045 79.3451 80.9003C79.7117 81.519 80.2617 82.0232 81.0179 82.0232C81.7283 82.0232 82.3012 81.6336 82.6907 81.0378C83.0574 80.442 83.2636 79.6171 83.2636 78.7004H82.9886H82.7136C82.7136 79.5483 82.5303 80.2587 82.2324 80.7399C81.9345 81.2211 81.545 81.4732 81.0179 81.4732C80.5367 81.4732 80.1242 81.1524 79.8263 80.6253C79.5055 80.1212 79.3451 79.4337 79.3451 78.8608C79.3451 77.9901 79.5284 77.2797 79.8263 76.7985C80.1242 76.3172 80.5138 76.0652 81.0408 76.0652C81.522 76.0652 81.9345 76.386 82.2324 76.913C82.5303 77.4401 82.7136 78.1276 82.7136 78.7004H82.9886ZM84.2261 78.7233H83.9511C83.9511 79.5025 83.7219 80.3045 83.2636 80.8774C82.7824 81.4503 82.072 81.8398 81.0179 81.8628C79.9638 81.8628 79.2534 81.4961 78.7951 80.9461C78.3368 80.3962 78.1306 79.6171 78.1306 78.815C78.1306 78.0359 78.3597 77.2339 78.818 76.661C79.2993 76.0881 80.0096 75.6985 81.0637 75.6985C82.7136 75.6985 83.974 77.1651 83.974 78.7463H84.2261H84.501C84.501 76.8901 83.0345 75.1486 81.0637 75.1486C79.8721 75.1486 78.9555 75.6298 78.4056 76.3402C77.8327 77.0276 77.6035 77.9442 77.6035 78.815C77.6035 79.7316 77.8327 80.6253 78.4056 81.2899C78.9784 81.9773 79.8721 82.4127 81.0408 82.4127C82.2324 82.4127 83.149 81.9315 83.7219 81.244C84.2948 80.5337 84.5469 79.64 84.5469 78.7463H84.2261V78.7233Z" fill="#E8E8E8"></path><path d="M87.3887 80.8545C87.3887 81.267 87.7095 81.3358 88.4199 81.4962L88.6719 81.6795L88.4657 81.8857C87.9845 81.8857 87.4803 81.817 86.9762 81.817C86.4262 81.817 85.8533 81.8857 85.3034 81.8857L85.0742 81.7024L85.4179 81.4962C86.0137 81.3358 86.2887 81.2899 86.2887 80.3046V72.6967C86.2887 72.353 85.5096 72.2384 85.5096 72.1009L85.6471 71.9176L86.9533 71.4593L87.2741 71.3905L87.4345 71.7113C87.4345 72.1009 87.4116 72.4675 87.4116 72.88V80.8545H87.3887Z" fill="#E8E8E8"></path><path d="M87.389 80.8545H87.114C87.0911 81.1295 87.2744 81.4045 87.5035 81.4961C87.7327 81.6107 87.9848 81.6795 88.3285 81.7711L88.3972 81.519L88.2368 81.7482L88.4889 81.9086L88.6493 81.6795L88.4431 81.4961L88.2368 81.7253L88.4431 81.9086V81.6336C87.9848 81.6336 87.4806 81.5649 86.9536 81.5649C86.3807 81.5649 85.8078 81.6336 85.2808 81.6336V81.9086L85.4412 81.7024L85.212 81.519L85.0516 81.7482L85.1891 81.9774L85.5328 81.7711L85.3953 81.542L85.4641 81.794C85.7391 81.7024 86.014 81.6565 86.2432 81.4274C86.4724 81.1753 86.5182 80.8545 86.5182 80.3504V72.6966C86.5182 72.4904 86.4036 72.3529 86.3119 72.2612L85.8307 71.9863L85.6932 71.9175H85.6703L85.6016 72.0321L85.6932 71.9633L85.6703 71.9404L85.6016 72.055L85.6932 71.9863L85.5099 72.1238H85.7391L85.6932 71.9863L85.5099 72.1238H85.7391H85.4641L85.6932 72.2842L85.762 72.1696L86.9765 71.7342L87.0682 71.7113L87.114 71.8488L87.3661 71.7342H87.1598C87.1598 72.1008 87.1369 72.4904 87.1369 72.9029V80.8545H87.389H87.664V72.9029C87.664 72.5133 87.6869 72.1237 87.6869 71.7342V71.6884L87.5035 71.3217L87.4119 71.1155L86.8619 71.2301H86.839L85.5099 71.6884L85.4182 71.7113L85.2349 71.9633L85.1891 72.0321V72.1238L85.3266 72.3758L85.8078 72.605L85.9453 72.6966L85.9682 72.7196H85.9911H86.014V80.3504C86.014 80.8087 85.9224 80.992 85.8766 81.0607C85.8078 81.1295 85.6474 81.1982 85.3495 81.267H85.3037L84.937 81.4961L84.6162 81.7024L85.1662 82.1148L85.2349 82.1607H85.3266C85.8995 82.1607 86.4494 82.0919 86.9994 82.0919C87.4577 82.0919 87.9619 82.1607 88.4889 82.1607H88.6035L88.8785 81.8628L89.0847 81.6336L88.6035 81.2899L88.5577 81.267H88.5118C88.1681 81.1753 87.8931 81.1066 87.8014 81.0607L87.7098 80.8774H87.389V80.8545Z" fill="#E8E8E8"></path><path d="M94.7219 78.7005C94.7219 77.4401 93.9886 75.7902 92.7741 75.7902C91.5596 75.7902 90.8033 77.0505 90.8033 78.8609C90.8033 80.0754 91.5366 81.7482 92.7512 81.7482C93.9886 81.7253 94.7219 80.4649 94.7219 78.7005ZM95.9593 78.7234C95.9593 80.3733 95.0198 82.1148 92.7512 82.1148C90.5054 82.1148 89.5659 80.5337 89.5659 78.7921C89.5659 77.1422 90.5054 75.4006 92.797 75.4006C94.5844 75.4006 95.9593 76.9818 95.9593 78.7234Z" fill="#E8E8E8"></path><path d="M94.722 78.7004H94.9969C94.9969 78.013 94.7907 77.2568 94.4241 76.6381C94.0574 76.0423 93.5074 75.5381 92.7512 75.5381C92.0409 75.5381 91.468 75.9277 91.0784 76.5235C90.7118 77.1193 90.5055 77.9442 90.5055 78.8838C90.5055 79.5483 90.6889 80.3045 91.0555 80.9003C91.4221 81.519 91.9721 82.0232 92.7283 82.0232C93.4387 82.0232 94.0116 81.6336 94.4011 81.0378C94.7678 80.442 94.974 79.6171 94.974 78.7004H94.722H94.447C94.447 79.5483 94.2636 80.2587 93.9658 80.7399C93.6679 81.2211 93.2783 81.4732 92.7512 81.4732C92.27 81.4732 91.8575 81.1524 91.5596 80.6253C91.2617 80.1212 91.0784 79.4337 91.0784 78.8608C91.0784 77.9901 91.2617 77.2797 91.5596 76.7985C91.8575 76.3172 92.2471 76.0652 92.7741 76.0652C93.2554 76.0652 93.6679 76.386 93.9658 76.913C94.2636 77.4401 94.447 78.1276 94.447 78.7004H94.722ZM95.9594 78.7233H95.6844C95.6844 79.5025 95.4552 80.3045 94.9969 80.8774C94.5157 81.4503 93.8053 81.8398 92.7512 81.8628C91.6971 81.8628 90.9868 81.4961 90.5284 80.9461C90.0701 80.3962 89.841 79.6171 89.841 78.815C89.841 78.0359 90.0701 77.2339 90.5284 76.661C91.0097 76.0881 91.6971 75.6985 92.7741 75.6985C94.4011 75.6985 95.6615 77.1651 95.6615 78.7463H95.9594H96.2344C96.2344 76.8901 94.7678 75.1486 92.7971 75.1486C91.5826 75.1486 90.6889 75.6298 90.116 76.3402C89.5431 77.0276 89.291 77.9442 89.291 78.815C89.291 79.7316 89.5202 80.6253 90.0931 81.2899C90.6659 81.9773 91.5367 82.4127 92.7283 82.4127C93.9199 82.4127 94.8365 81.9315 95.3865 81.244C95.9594 80.5337 96.2115 79.64 96.2115 78.7463H95.9594V78.7233Z" fill="#E8E8E8"></path><path d="M100.291 75.6756C99.145 75.6756 98.9617 76.7068 98.9617 77.5089C98.9617 78.2421 99.0534 79.6171 100.268 79.6171C101.391 79.6171 101.666 78.7692 101.666 77.738C101.666 76.9131 101.505 75.6756 100.291 75.6756ZM99.3742 84.8876C102.193 84.8876 102.743 83.6273 102.743 83.146C102.743 82.1607 101.597 82.0461 99.8325 82.0461C99.2138 82.0461 98.9159 82.069 98.8013 82.1378C98.2972 82.4357 97.5639 83.2606 97.5639 83.6273C97.5639 84.4522 98.3888 84.8876 99.3742 84.8876ZM102.88 76.7985C102.789 76.7985 102.697 76.9131 102.697 77.5547C102.697 77.8068 102.697 79.7546 100.222 79.915C99.8783 79.9379 98.5951 79.915 98.5951 80.5795C98.5951 80.9462 98.8013 81.0607 100.405 81.0607C102.124 81.0607 103.453 81.2899 103.453 82.8481C103.453 84.9105 100.13 85.4147 99.145 85.4147C97.1056 85.4147 96.5098 84.498 96.5098 83.8564C96.5098 82.7794 97.6785 82.3211 98.5951 81.8857C98.3201 81.7253 97.3347 81.0149 97.3347 80.6483C97.3347 80.1441 98.7784 79.8462 99.0763 79.8004C98.2743 79.2275 97.793 78.6775 97.793 77.6693C97.793 76.3631 98.8013 75.4465 100.199 75.4465C100.772 75.4465 101.185 75.6069 101.597 75.8131C102.009 76.0194 102.468 76.1798 103.109 76.1798H103.797L103.911 76.5922C103.911 76.8443 103.866 76.8672 103.614 76.8672H102.88V76.7985Z" fill="#E8E8E8"></path><path d="M100.29 75.6756V75.4007C99.6259 75.4007 99.1676 75.7215 98.9613 76.1569C98.7322 76.5693 98.6863 77.0735 98.6863 77.486C98.6863 77.8755 98.7093 78.4255 98.8926 78.9296C99.0759 79.4338 99.5342 79.8921 100.268 79.8691C100.909 79.8691 101.367 79.6171 101.62 79.1817C101.872 78.7692 101.94 78.2422 101.94 77.7151C101.94 77.2797 101.894 76.7297 101.688 76.2714C101.482 75.7902 101.001 75.4007 100.313 75.4007V75.6756V75.9506C100.817 75.9506 101.047 76.1798 101.207 76.5006C101.367 76.8443 101.413 77.3255 101.413 77.7151C101.413 78.1963 101.345 78.6317 101.184 78.9067C101.001 79.1817 100.795 79.3421 100.29 79.3421C99.7863 79.3421 99.603 79.1129 99.4196 78.7234C99.2592 78.3567 99.2363 77.8526 99.2363 77.486C99.2363 77.0964 99.2822 76.6839 99.4426 76.4089C99.603 76.1339 99.8092 75.9506 100.313 75.9277V75.6756H100.29ZM99.3738 84.8876V85.1626C100.817 85.1626 101.711 84.8418 102.284 84.4293C102.834 83.9939 103.017 83.4898 103.017 83.146C103.04 82.5273 102.582 82.1149 102.032 81.9774C101.459 81.794 100.726 81.7711 99.8321 81.7711C99.1905 81.7711 98.9384 81.7711 98.6863 81.8857C98.3884 82.069 98.0676 82.344 97.8156 82.6648C97.5635 82.9856 97.3343 83.2606 97.3114 83.6044C97.3114 84.1314 97.5635 84.5439 97.976 84.7959C98.3655 85.048 98.8697 85.1626 99.3967 85.1626V84.8876V84.6126C98.9384 84.6126 98.5259 84.498 98.251 84.3376C97.976 84.1543 97.8385 83.9481 97.8385 83.6044C97.8156 83.5814 97.976 83.2835 98.2051 83.0086C98.4343 82.7336 98.7322 82.4586 98.9384 82.344C99.0072 82.3211 99.3051 82.2982 99.8321 82.2982C100.703 82.2982 101.436 82.344 101.872 82.4815C102.33 82.6419 102.467 82.7794 102.49 83.146C102.49 83.4439 102.147 84.6126 99.3967 84.6355V84.8876H99.3738ZM102.88 76.7985V76.5235L102.628 76.6152C102.444 76.8443 102.444 77.0276 102.444 77.5318C102.444 77.6464 102.444 78.1276 102.169 78.6088C101.895 79.0671 101.39 79.5254 100.222 79.6171C100.061 79.6171 99.6488 79.6171 99.2363 79.7087C99.0301 79.7546 98.8468 79.8233 98.6634 79.9608C98.4801 80.0754 98.3426 80.3045 98.3426 80.5566L98.4572 80.9233C98.6176 81.1295 98.8238 81.1753 99.1217 81.2212C99.4196 81.267 99.8321 81.2899 100.451 81.2899C101.299 81.2899 102.032 81.3586 102.49 81.5878C102.949 81.817 103.201 82.1149 103.201 82.8023C103.201 83.6731 102.513 84.246 101.597 84.6126C100.703 84.9793 99.6259 85.0939 99.1676 85.0939C97.1968 85.0709 96.8073 84.246 96.8073 83.8106C96.8073 83.3752 97.0364 83.0773 97.4031 82.8023C97.7697 82.5273 98.2739 82.2982 98.7551 82.0919L99.2134 81.8857L98.778 81.6336C98.6405 81.5649 98.3426 81.3357 98.0906 81.1295L97.7468 80.8087L97.6552 80.6712V80.6254V80.6024C97.701 80.5108 98.0447 80.3275 98.3655 80.2358C98.7093 80.1212 99.053 80.0525 99.1447 80.0296L99.7863 79.915L99.2592 79.5483C98.4801 78.9754 98.0906 78.5401 98.0906 77.6234C98.0906 76.4777 98.9384 75.6756 100.222 75.6527C100.749 75.6527 101.092 75.7902 101.505 75.9965C101.94 76.2027 102.444 76.386 103.132 76.386H103.613L103.659 76.5923L103.911 76.5235H103.636V76.6152L103.751 76.6381L103.659 76.5923L103.636 76.6381L103.751 76.661L103.659 76.5923L103.796 76.6839L103.728 76.5464L103.659 76.5923L103.796 76.6839L103.728 76.5464L103.774 76.6381L103.751 76.5464H103.728L103.774 76.6381L103.751 76.5464H103.636H102.903V76.7985V77.0735H103.636L104.049 76.9589L104.186 76.5235V76.4777L104.049 76.0423L104.003 75.859H103.132C102.536 75.859 102.124 75.6986 101.734 75.5152C101.299 75.309 100.84 75.1257 100.222 75.1257C99.4426 75.1257 98.778 75.3777 98.2968 75.836C97.8156 76.2714 97.5406 76.9131 97.5406 77.6464C97.5177 78.7692 98.1364 79.4338 98.9384 80.0066L99.0988 79.7775L99.053 79.5025C98.8926 79.5254 98.4572 79.6171 98.0447 79.7775C97.8385 79.8462 97.6322 79.9608 97.4489 80.0754C97.2885 80.19 97.1052 80.3733 97.1052 80.6254C97.1052 80.8316 97.2198 80.9691 97.3343 81.1295C97.6552 81.542 98.251 81.9544 98.503 82.0919L98.6405 81.8628L98.5259 81.6107C98.0676 81.8399 97.5406 82.0461 97.0823 82.3898C96.6469 82.7107 96.2573 83.1919 96.2573 83.8335C96.2573 84.2231 96.4406 84.7043 96.9219 85.0709C97.3802 85.4376 98.1135 85.6667 99.1676 85.6667C99.6946 85.6667 100.795 85.5522 101.803 85.1397C102.788 84.7501 103.751 84.0397 103.751 82.8252C103.774 81.9774 103.338 81.3816 102.719 81.1066C102.101 80.8316 101.322 80.7629 100.451 80.7629C99.6488 80.7629 99.1905 80.717 99.0072 80.6712L98.9155 80.6483V80.5795L99.0072 80.4191C99.2363 80.2129 100.015 80.19 100.29 80.19C101.597 80.0983 102.33 79.5254 102.674 78.9067C103.017 78.3109 103.017 77.6922 103.017 77.5776C103.017 77.2797 103.04 77.0964 103.063 77.0506V77.0276L102.949 76.9589L103.017 77.0735L103.063 77.0276L102.949 76.9589L103.017 77.0735L102.926 76.936V77.1193L103.017 77.0964L102.926 76.9589V77.1422V76.7985H102.88Z" fill="#E8E8E8"></path><path d="M108.081 80.3274L108.219 80.5337L108.402 80.3274L109.479 77.8984C109.663 77.4859 109.869 76.9589 109.869 76.5693C109.869 76.0193 108.884 76.1797 108.884 75.836C108.884 75.7214 108.998 75.6527 109.181 75.6527C109.25 75.6527 109.388 75.6985 110.098 75.6985C110.763 75.6985 110.923 75.6527 111.06 75.6527C111.29 75.6527 111.427 75.7214 111.427 75.836C111.427 76.111 110.831 75.9964 110.579 76.5922L107.279 84.3147C106.959 85.0251 106.729 85.3917 106.019 85.3917C105.377 85.3917 105.171 85.0251 105.171 84.7272C105.171 84.3147 105.446 84.1314 105.836 84.1314C106.111 84.1314 106.317 84.2689 106.5 84.2689C106.821 84.2689 107.532 82.3211 107.532 82.1377C107.532 81.8857 107.417 81.6794 107.325 81.4274L105.561 76.5235C105.423 76.1568 104.736 76.1339 104.736 75.8589C104.736 75.7214 104.828 75.6298 105.08 75.6298C105.423 75.6298 105.813 75.6756 106.202 75.6756C106.592 75.6756 106.982 75.6298 107.486 75.6298C107.738 75.6298 107.806 75.6985 107.806 75.8589C107.806 76.0881 106.752 75.9964 106.752 76.4547L106.844 76.8214L108.081 80.3274Z" fill="#E8E8E8"></path><path d="M108.082 80.3274L107.852 80.4878L107.99 80.694L108.196 80.9919L108.586 80.5107L108.609 80.4878L109.709 78.0129C109.892 77.5776 110.121 77.0505 110.121 76.5693C110.144 76.3401 110.006 76.1568 109.869 76.0422C109.64 75.9047 109.411 75.8589 109.25 75.8131L109.09 75.7672L109.067 75.8131L109.09 75.7902V75.7672L109.067 75.8131L109.09 75.7902L108.998 75.8589H109.113L109.09 75.7902L108.998 75.8589L109.067 75.9506L109.113 75.8589H108.998L109.067 75.9506H109.159C109.159 75.9506 109.388 75.9735 110.075 75.9735C110.74 75.9735 110.946 75.9506 111.038 75.9506L111.198 75.9735L111.221 75.9047L111.175 75.9506L111.198 75.9735L111.221 75.9047L111.175 75.9506L111.29 75.8589H111.152L111.175 75.9506L111.29 75.8589H111.152H111.267L111.175 75.7902L111.152 75.8589H111.267L111.175 75.7902L111.221 75.8131L111.198 75.7672L111.175 75.7902L111.221 75.8131L111.198 75.7672C111.152 75.8131 110.579 75.9276 110.327 76.5005L107.027 84.223C106.89 84.5667 106.753 84.8188 106.615 84.9563C106.478 85.0709 106.34 85.1625 106.042 85.1625C105.767 85.1625 105.63 85.0938 105.561 85.025L105.446 84.773L105.538 84.5209L105.836 84.4522C106.042 84.4292 106.18 84.5667 106.5 84.5897L106.821 84.4063C107.05 84.1543 107.257 83.673 107.463 83.2147C107.555 82.9856 107.623 82.7564 107.692 82.5731L107.807 82.1606C107.807 81.8169 107.669 81.5877 107.6 81.3815L105.836 76.4776C105.698 76.1568 105.423 76.0651 105.24 75.9506L105.034 75.836H105.011L104.919 75.8818H105.034L105.011 75.836L104.919 75.8818H105.034H104.942L104.988 75.9506L105.034 75.8818H104.942L104.988 75.9506H105.011H105.126C105.469 75.9506 105.836 75.9735 106.248 75.9735C106.661 75.9735 107.05 75.9506 107.532 75.9506H107.646L107.715 75.8589L107.6 75.9047L107.646 75.9735L107.715 75.8818L107.6 75.9276L107.646 75.9047H107.6V75.9276L107.646 75.9047H107.6V75.9276H107.784L107.669 75.7902L107.6 75.9276H107.784L107.669 75.7902C107.623 75.8131 107.371 75.8589 107.142 75.9276L106.798 76.111L106.569 76.5464V76.5922L106.684 76.9818V77.0047L107.898 80.5565L107.921 80.5795L108.082 80.3274L108.334 80.2357L107.142 76.7297L107.05 76.386L106.798 76.4547H107.073L107.188 76.386L107.646 76.2714L107.898 76.1797L108.127 75.836L107.967 75.4464L107.532 75.3318C107.005 75.3318 106.615 75.3777 106.248 75.3777C105.882 75.3777 105.515 75.3318 105.126 75.3318L104.69 75.4464L104.484 75.836C104.484 76.0422 104.621 76.1568 104.713 76.2255L105.148 76.4547L105.332 76.5922L107.096 81.4961C107.188 81.7481 107.28 81.9544 107.28 82.1148C107.257 82.2523 107.073 82.7793 106.867 83.2606C106.775 83.4897 106.661 83.696 106.569 83.8564L106.455 84.0168V84.0397L106.546 84.1772V84.0397L106.455 84.0626L106.546 84.2001V84.0626C106.5 84.0855 106.271 83.9251 105.882 83.9251C105.653 83.9251 105.423 83.9709 105.24 84.1313C105.057 84.2918 104.942 84.5209 104.965 84.7959C104.965 85.0021 105.034 85.2542 105.217 85.4375C105.423 85.6208 105.698 85.7354 106.065 85.7354C106.455 85.7354 106.798 85.6208 107.027 85.3917C107.257 85.1625 107.394 84.8646 107.555 84.498L110.854 76.7755C110.946 76.5464 111.084 76.4776 111.244 76.4089L111.519 76.2943L111.748 75.9276L111.496 75.561L111.106 75.4923C110.923 75.4923 110.809 75.5381 110.144 75.5381C109.434 75.5381 109.342 75.5152 109.227 75.4923L108.861 75.5839L108.654 75.9506C108.654 76.2026 108.861 76.3172 108.975 76.386L109.525 76.5464L109.663 76.6839C109.663 76.9818 109.479 77.5088 109.296 77.9213L108.242 80.3045L108.082 80.4878L108.288 80.6482L108.517 80.4878L108.357 80.2816L108.082 80.3274Z" fill="#E8E8E8"></path><path d="M123.343 74.0257L123.16 74.1861L122.977 74.0945C122.472 72.88 122.954 72.4446 120.112 72.4446C119.218 72.4446 119.035 72.5821 119.035 73.0862V75.836C119.035 76.3631 119.127 76.4318 120.204 76.4318C120.525 76.4318 120.8 76.3631 121.12 76.3402C122.266 76.2027 121.808 74.8507 122.381 74.8507C122.472 74.8507 122.564 74.8736 122.564 75.1257C122.564 75.584 122.518 76.0194 122.518 76.4777C122.518 76.9131 122.564 77.8755 122.564 78.1505L122.404 78.4025C122.197 78.4025 122.152 78.2192 121.968 77.5089C121.854 77.0505 121.739 76.8443 120.043 76.8443C119.219 76.8443 119.012 76.8901 119.012 77.2797V80.3962C119.012 81.0836 119.196 81.1753 120.204 81.3128C120.525 81.3586 120.868 81.3357 120.868 81.5878C120.891 81.7482 120.8 81.8169 120.456 81.8169C120.204 81.8169 119.86 81.7482 118.439 81.7482C117.752 81.7482 117.087 81.8169 116.583 81.8169C116.308 81.8169 116.079 81.794 116.079 81.5878C116.079 81.4274 116.148 81.4045 117.064 81.2899C117.454 81.2441 117.592 81.0378 117.592 79.9837V73.132C117.592 72.5362 117.523 72.4904 117.11 72.3758C116.514 72.2154 116.171 72.3529 116.171 72.0779C116.171 71.8946 116.354 71.8717 116.95 71.8717C117.294 71.8717 117.729 71.8717 118.187 71.8946C118.646 71.8946 119.127 71.9175 119.539 71.9175C120.708 71.9175 122.381 71.8488 122.931 71.8488L123.275 72.0092V74.0257H123.343Z" fill="#E8E8E8"></path><path d="M123.343 74.0257L123.16 73.8194L123.137 73.8424H123.114L122.977 74.0715L123.229 73.9569C122.977 73.407 122.999 72.9716 122.587 72.582C122.175 72.2154 121.533 72.1466 120.112 72.1237C119.654 72.1237 119.356 72.1466 119.104 72.307C118.829 72.4674 118.76 72.7883 118.783 73.0632V75.8131L118.806 76.2026C118.875 76.4089 119.081 76.5922 119.31 76.6151C119.539 76.661 119.814 76.6839 120.227 76.6839C120.57 76.6839 120.845 76.6151 121.166 76.5922H121.189C121.9 76.5235 122.175 75.9735 122.266 75.6068L122.381 75.1485L122.404 75.1027V75.0569L122.381 75.1027H122.404V75.0569L122.381 75.1027L122.427 74.9881L122.312 75.034L122.404 75.1027L122.45 74.9881L122.335 75.034L122.358 75.011H122.335L122.358 74.9881H122.335V75.0798C122.335 75.5381 122.312 75.9735 122.312 76.4318C122.312 76.8672 122.335 77.8296 122.335 78.1046H122.61L122.381 77.9671L122.22 78.2192L122.45 78.3567V78.0817L122.427 78.1504L122.472 78.1046L122.45 78.0817L122.427 78.1504L122.472 78.1046C122.45 78.1046 122.358 77.8525 122.266 77.3942C122.22 77.1651 122.083 76.8443 121.739 76.7068C121.395 76.5693 120.937 76.5235 120.089 76.5235C119.677 76.5235 119.402 76.5235 119.173 76.6151L118.875 76.8672L118.806 77.2338V80.3503C118.806 80.6941 118.852 81.0149 119.127 81.2211C119.379 81.4044 119.7 81.4503 120.204 81.5419L120.639 81.5877L120.685 81.6107L120.708 81.5648L120.662 81.5877L120.685 81.6107L120.708 81.5648H120.639L120.662 81.5877L120.708 81.5648H120.639V81.5877H120.708L120.639 81.5419V81.5877H120.708L120.639 81.5419L120.731 81.5877L120.662 81.4961L120.639 81.5419L120.731 81.5877L120.662 81.4961L120.685 81.519V81.4961L120.708 81.519V81.4961L120.525 81.519C120.295 81.519 119.929 81.4503 118.508 81.4503C117.798 81.4503 117.133 81.519 116.652 81.519L116.377 81.4961H116.354L116.308 81.5648H116.377L116.354 81.4961L116.308 81.5648H116.377L116.262 81.6336L116.354 81.7711L116.423 81.6794L116.262 81.6336L116.354 81.7711C116.377 81.7482 116.652 81.7023 117.179 81.6336C117.408 81.6107 117.706 81.4732 117.798 81.1982C117.912 80.9461 117.935 80.6024 117.935 80.0524V73.2007C117.935 72.9028 117.935 72.6966 117.798 72.4904C117.66 72.2841 117.454 72.2383 117.248 72.1695C116.927 72.0779 116.652 72.0779 116.514 72.055L116.446 72.032L116.377 72.1466L116.492 72.0779L116.446 72.032L116.377 72.1466L116.492 72.0779L116.4 72.1237L116.492 72.1008V72.0779L116.4 72.1237L116.492 72.1008H116.377L116.469 72.1695L116.492 72.1008H116.377L116.446 72.1925L116.469 72.1695L116.377 72.1008L116.446 72.1925H116.469C116.537 72.1695 116.721 72.1695 117.019 72.1695C117.362 72.1695 117.798 72.1695 118.256 72.1925C118.691 72.1925 119.196 72.2154 119.608 72.2154C120.777 72.2154 122.45 72.1466 122.999 72.1466V71.8716L122.885 72.1237L123.068 72.2154V74.0257H123.343H123.618V72.032V71.8716L123.114 71.6425L123.068 71.6196H122.999C122.427 71.6196 120.754 71.6883 119.608 71.6883C119.196 71.6883 118.714 71.6654 118.256 71.6654C117.798 71.6425 117.362 71.6425 116.996 71.6425C116.698 71.6425 116.492 71.6425 116.308 71.6883L116.056 71.8258L115.942 72.1237L116.125 72.4904L116.583 72.6049L117.087 72.6966C117.294 72.7424 117.339 72.7883 117.339 72.7883C117.339 72.7883 117.385 72.9257 117.385 73.2007V80.0524C117.385 80.5566 117.339 80.8545 117.294 80.969L117.087 81.1065C116.629 81.1524 116.377 81.1982 116.194 81.244L115.942 81.4044L115.85 81.6794C115.827 81.9086 116.033 82.0919 116.194 82.1148L116.652 82.1606C117.179 82.1606 117.821 82.0919 118.508 82.0919C119.929 82.0919 120.204 82.1606 120.525 82.1606L120.96 82.069L121.189 81.6794V81.6107L120.914 81.6336H121.189L121.029 81.2899C120.754 81.0607 120.502 81.1294 120.273 81.0836C119.768 81.0149 119.493 80.9461 119.425 80.8774C119.356 80.8315 119.31 80.7628 119.31 80.4191V77.3026L119.333 77.188L119.493 77.1422C119.631 77.1193 119.814 77.1193 120.089 77.1193C120.914 77.1193 121.35 77.1651 121.533 77.2567C121.693 77.3484 121.67 77.3484 121.762 77.5776C121.854 77.9213 121.9 78.1504 121.991 78.3338L122.175 78.5858L122.472 78.6775H122.633L122.862 78.2879L122.908 78.2192V78.1504C122.908 77.8525 122.885 76.8901 122.885 76.4776C122.885 76.0422 122.908 75.5839 122.908 75.1256L122.793 74.7361L122.472 74.5986C122.197 74.5986 122.014 74.8277 121.945 74.9881C121.854 75.2402 121.808 75.5152 121.716 75.7214C121.625 75.9277 121.533 76.0422 121.189 76.0881C120.823 76.111 120.548 76.1797 120.273 76.1797C119.723 76.1797 119.448 76.1568 119.402 76.111V76.0881L119.379 75.8589V73.1091C119.379 72.857 119.402 72.857 119.448 72.8112C119.493 72.7653 119.746 72.7195 120.181 72.7195C121.579 72.7195 122.129 72.857 122.312 73.0403C122.518 73.1778 122.541 73.5674 122.816 74.2319L122.839 74.3236L123.091 74.4611L123.274 74.5527L123.595 74.2548L123.687 74.1861V74.0715H123.343V74.0257Z" fill="#E8E8E8"></path><path d="M127.743 79.0671C127.743 78.54 127.628 78.4942 127.514 78.4942C127.445 78.4942 125.474 78.9525 125.474 80.3503C125.474 80.7628 125.772 81.2211 126.345 81.2211C127.353 81.2211 127.72 80.3503 127.72 79.7775V79.0671H127.743ZM128.797 80.5108C128.797 80.7399 128.866 81.0378 129.324 81.0378C129.782 81.0378 129.782 80.717 130.011 80.717L130.195 80.8545C130.195 81.0149 129.759 81.8398 128.843 81.8398C128.132 81.8398 127.766 81.3128 127.605 81.0836C126.964 81.5649 126.62 82.0002 125.543 82.0002C124.901 82.0002 124.283 81.6336 124.283 80.8086C124.283 79.1587 126.391 78.5629 126.505 78.5171C127.032 78.3109 127.376 78.1963 127.697 78.1046L127.766 77.6234C127.766 76.661 127.743 76.0193 126.735 76.0193C125.039 76.0193 125.658 77.8984 124.581 77.8984C124.26 77.8984 124.214 77.6922 124.214 77.5088C124.214 77.188 125.291 75.5152 127.239 75.5152C128.797 75.5152 128.797 76.5464 128.797 76.936V80.5108Z" fill="#E8E8E8"></path><path d="M127.743 79.0671H128.018C128.018 78.7921 127.995 78.6088 127.903 78.4483L127.514 78.2192L127.353 78.2421C127.124 78.3109 126.597 78.4483 126.139 78.7692C125.658 79.09 125.199 79.5941 125.199 80.3503C125.199 80.6253 125.291 80.9003 125.497 81.1065C125.681 81.3357 126.001 81.4961 126.345 81.4961C126.941 81.4961 127.376 81.244 127.628 80.8774C127.903 80.5336 127.995 80.1441 127.995 79.7774V79.0441H127.743H127.491V79.7774C127.491 80.0066 127.399 80.3045 127.239 80.5336C127.056 80.7628 126.803 80.9232 126.368 80.9232C125.956 80.9232 125.772 80.6024 125.772 80.3045C125.772 79.7316 126.162 79.342 126.62 79.0671C126.849 78.9296 127.078 78.8379 127.285 78.7921L127.514 78.7233L127.56 78.7004H127.583L127.56 78.5171V78.7004H127.583L127.56 78.5171V78.7004V78.6546L127.514 78.7462L127.56 78.7692V78.6546L127.468 78.7233L127.514 78.7462L127.56 78.6546L127.468 78.7233C127.491 78.7462 127.514 78.8608 127.514 79.0671H127.743ZM128.797 80.5107H128.522L128.66 81.0149C128.797 81.1982 129.026 81.2899 129.301 81.2899C129.576 81.2899 129.805 81.1753 129.92 81.0836L130.012 80.992V80.717L129.828 80.9232L130.012 81.0836L130.195 80.8774H129.92H130.035L129.943 80.8545V80.8774H130.057L129.966 80.8545L129.668 81.2669C129.485 81.4503 129.21 81.5877 128.866 81.5877C128.316 81.5877 128.018 81.1982 127.835 80.9461L127.651 80.7399L127.445 80.9003C126.781 81.4044 126.551 81.7482 125.543 81.7482C124.993 81.7252 124.581 81.4961 124.558 80.8086C124.558 80.1212 124.993 79.617 125.497 79.2733C126.001 78.9296 126.529 78.7921 126.597 78.7462C127.147 78.54 127.468 78.4254 127.766 78.3338L127.949 78.2879L128.064 77.6234V77.6005V77.5776C128.064 77.0963 128.064 76.661 127.903 76.2943C127.72 75.9047 127.308 75.6756 126.758 75.6985C126.299 75.6985 125.933 75.836 125.681 76.0652C125.314 76.386 125.199 76.8443 125.062 77.1651L124.856 77.4859L124.604 77.5776L124.535 77.5547L124.512 77.4401C124.512 77.3713 124.787 76.8672 125.245 76.4776C125.726 76.0881 126.391 75.7214 127.262 75.7214C127.972 75.7214 128.247 75.9506 128.385 76.1568C128.522 76.386 128.545 76.6839 128.545 76.8672V80.442H128.797H129.072V76.8672C129.072 76.661 129.072 76.2485 128.843 75.8589C128.591 75.4693 128.087 75.1714 127.262 75.1714C126.208 75.1714 125.383 75.6298 124.856 76.111C124.581 76.3401 124.374 76.6151 124.237 76.8214C124.099 77.0505 124.008 77.2109 124.008 77.4172L124.122 77.8296C124.214 77.99 124.443 78.0817 124.649 78.0588C124.993 78.0588 125.291 77.8755 125.429 77.6463C125.658 77.3026 125.726 76.913 125.91 76.638C126.093 76.3631 126.254 76.1797 126.826 76.1797C127.285 76.2026 127.399 76.2943 127.491 76.4547C127.583 76.638 127.606 77.0276 127.606 77.5088H127.881L127.606 77.463L127.537 77.9442L127.789 77.99L127.72 77.738C127.353 77.8296 127.033 77.9671 126.483 78.1504C126.437 78.1734 125.841 78.3338 125.268 78.7233C124.695 79.09 124.077 79.7545 124.077 80.694C124.077 81.1753 124.26 81.5648 124.558 81.8169C124.856 82.069 125.222 82.1606 125.589 82.1606C126.758 82.1835 127.216 81.6565 127.835 81.1982L127.651 80.992L127.445 81.1753C127.606 81.3815 128.041 82.0231 128.912 82.0231C129.462 82.0231 129.874 81.7711 130.126 81.519L130.424 81.1294L130.539 80.7857V80.6482L130.264 80.4191L130.195 80.3503H130.012C129.76 80.3503 129.622 80.5336 129.553 80.5795L129.301 80.6711L129.095 80.6024L129.049 80.4191H128.797V80.5107Z" fill="#E8E8E8"></path><path d="M130.745 80.6712C130.745 80.3504 130.768 80.1671 130.928 80.1671L131.18 80.5796C131.226 80.6942 131.661 81.6795 132.601 81.6795C133.242 81.6795 133.907 81.3587 133.907 80.5796C133.907 79.1359 130.836 79.1588 130.836 77.2569C130.836 76.3402 131.386 75.3778 132.853 75.3778C134.571 75.3778 134.594 75.6299 134.594 76.3632C134.594 77.0048 134.571 77.1194 134.457 77.1194C133.976 77.1194 134.136 75.8361 132.853 75.8361C132.234 75.8361 131.799 76.2028 131.799 76.8215C131.799 78.036 135.03 78.5172 135.03 80.19C135.03 80.9921 134.503 82.092 132.761 82.092C132.28 82.092 130.768 82.0233 130.768 81.4504V80.6712H130.745Z" fill="#E8E8E8"></path><path d="M130.745 80.6712H131.02L131.043 80.3733L130.951 80.3274V80.442L131.043 80.3733L130.951 80.3274V80.442V80.167L130.722 80.3045L130.974 80.717L131.203 80.5795L130.951 80.6712C130.974 80.7628 131.111 81.0378 131.386 81.3357C131.638 81.6336 132.051 81.9315 132.624 81.9315C132.99 81.9315 133.357 81.8398 133.678 81.6336C133.976 81.4044 134.205 81.0378 134.205 80.5795C134.205 80.0983 133.953 79.7545 133.632 79.5025C133.151 79.1129 132.486 78.8608 131.982 78.54C131.478 78.1963 131.134 77.8526 131.134 77.2797C131.134 76.8672 131.249 76.4777 131.524 76.1798C131.799 75.8819 132.211 75.6756 132.876 75.6756C133.724 75.6756 134.136 75.7673 134.228 75.8589L134.32 75.9964L134.342 76.4089C134.342 76.7297 134.342 76.913 134.32 76.9589V76.9818L134.457 77.0505L134.365 76.913L134.297 76.9818L134.434 77.0505V76.8901L134.342 76.913L134.434 77.0505V76.8901V76.913L134.457 76.8901H134.434V76.913L134.457 76.8901C134.411 76.8901 134.297 76.5693 134.09 76.2485C133.884 75.9277 133.472 75.6069 132.83 75.6069C132.463 75.6069 132.143 75.7214 131.89 75.9277C131.661 76.1568 131.501 76.4777 131.501 76.8672C131.501 77.3026 131.776 77.6234 132.12 77.8984C132.601 78.288 133.288 78.6088 133.838 78.9983C134.388 79.3879 134.755 79.7775 134.755 80.2587C134.755 80.6024 134.64 81.0149 134.342 81.3357C134.045 81.6565 133.563 81.8857 132.738 81.9086C132.509 81.9086 132.028 81.8857 131.615 81.8169C131.409 81.7711 131.226 81.7253 131.134 81.6565L131.02 81.5419V80.7399H130.745H130.47V81.5419C130.47 81.8169 130.653 82.0232 130.859 82.1148C131.432 82.4356 132.372 82.4356 132.738 82.4586C133.678 82.4586 134.32 82.1607 134.732 81.7253C135.144 81.2899 135.282 80.7399 135.282 80.2816C135.282 79.7775 135.03 79.365 134.709 79.0213C134.205 78.54 133.517 78.1734 132.945 77.8297C132.67 77.6692 132.418 77.4859 132.28 77.3255L132.051 76.8901C132.074 76.4089 132.326 76.2027 132.83 76.1798C133.38 76.2027 133.517 76.4089 133.701 76.6839L133.93 77.1193C134.022 77.2568 134.182 77.4401 134.434 77.4401L134.709 77.3255L134.847 76.9589C134.869 76.8443 134.869 76.661 134.869 76.4318L134.824 75.9048C134.778 75.6527 134.572 75.3777 134.228 75.286C133.93 75.1944 133.495 75.1486 132.83 75.1486C132.051 75.1486 131.455 75.4235 131.066 75.836C130.699 76.2485 130.538 76.7985 130.538 77.3026C130.538 77.8526 130.768 78.288 131.088 78.6088C131.57 79.09 132.234 79.365 132.761 79.6629C133.013 79.8004 133.242 79.9608 133.38 80.0983C133.517 80.2587 133.586 80.3962 133.586 80.6024C133.586 80.9003 133.472 81.0836 133.288 81.2211C133.105 81.3586 132.83 81.4274 132.555 81.4274C132.188 81.4274 131.913 81.2211 131.73 81.0149C131.524 80.7857 131.409 80.5337 131.409 80.5108L131.386 80.4878L131.111 80.0524L131.02 79.915H130.928C130.722 79.892 130.516 80.0983 130.516 80.2358L130.47 80.6941H130.745V80.6712Z" fill="#E8E8E8"></path><path d="M138.605 76.4089C138.147 76.4089 138.101 76.5464 138.101 77.0505C138.101 77.9213 138.055 79.2733 138.055 80.1899C138.055 80.8545 138.307 81.244 139.178 81.244C139.866 81.244 139.866 81.0607 140.163 81.0607L140.347 81.2211C140.347 81.3815 139.866 81.9544 138.697 81.9544C137.482 81.9544 136.909 81.4961 136.909 80.2816C136.909 79.1587 136.932 78.0359 136.932 76.7755C136.932 76.5464 136.864 76.5005 136.589 76.5005H136.222L136.084 76.363C136.084 76.111 136.864 75.9735 137.276 75.5152C137.895 74.8277 137.757 74.5527 138.009 74.5527L138.216 74.8506V75.4464C138.216 75.6068 138.261 75.6527 138.468 75.6527H140.232C140.393 75.6527 140.53 75.6985 140.53 76.0193C140.53 76.2256 140.507 76.363 140.255 76.363H138.605V76.4089Z" fill="#E8E8E8"></path><path d="M138.605 76.4089V76.1339C138.376 76.1339 138.124 76.1568 137.963 76.386C137.826 76.5922 137.849 76.7984 137.826 77.0505C137.826 77.9213 137.78 79.2733 137.78 80.1899C137.78 80.5566 137.849 80.9003 138.101 81.1523C138.353 81.4044 138.719 81.519 139.178 81.519C139.544 81.519 139.751 81.4732 139.888 81.4273L140.163 81.3586V81.0836L139.98 81.2898L140.163 81.4503L140.346 81.244H140.094H140.186L140.117 81.1982V81.244H140.209L140.14 81.1982C140.117 81.2898 139.705 81.7023 138.742 81.7023C138.147 81.7023 137.78 81.5877 137.574 81.3815C137.344 81.1982 137.23 80.8545 137.23 80.2816C137.23 79.1587 137.276 78.0359 137.276 76.7755L137.092 76.3401L136.657 76.2255H136.405L136.359 76.1797L136.153 76.363H136.428H136.313L136.405 76.4318L136.428 76.363H136.313L136.405 76.4318L136.428 76.4089C136.588 76.2714 137.161 76.111 137.528 75.6985C137.849 75.3319 137.986 75.0798 138.078 74.8965L138.124 74.8048L138.147 74.7819L138.055 74.7131L138.101 74.8048L138.147 74.759L138.055 74.6902L138.101 74.7819L138.032 74.759V74.8506H138.078L138.032 74.759V74.8506V74.5756L137.803 74.7131L137.963 74.9652V75.4923L138.101 75.8589L138.49 75.9735H140.255H140.301L140.323 75.9047L140.278 75.9506L140.323 75.9735L140.346 75.9047L140.301 75.9506V75.9735L140.323 76.0881V76.2026V76.2255L140.392 76.2714L140.346 76.2026L140.301 76.2485L140.369 76.2943L140.323 76.2255V76.1339H140.278H138.651V76.4089V76.6839H140.278L140.736 76.4547L140.828 76.0651L140.644 75.561L140.255 75.4235H138.49H138.422L138.399 75.4923L138.444 75.4235L138.422 75.4006L138.399 75.4693L138.444 75.4006L138.376 75.5152L138.513 75.4693L138.444 75.4006L138.376 75.5152L138.513 75.4693V75.4464V74.8506V74.7819L138.284 74.4152L138.192 74.3007H138.032L137.711 74.4382L137.505 74.7819C137.436 74.9194 137.322 75.0798 137.115 75.3319C136.955 75.5152 136.703 75.6527 136.451 75.7672L136.107 75.9506C135.992 76.0193 135.855 76.1339 135.855 76.3401V76.4547L136.061 76.6609L136.153 76.7297H136.634H136.772H136.795L136.817 76.6609L136.772 76.7068H136.795L136.817 76.638L136.772 76.6839L136.817 76.5922L136.703 76.6151L136.749 76.6609L136.795 76.5693L136.68 76.5922L136.703 76.6609C136.703 77.9213 136.657 79.0441 136.657 80.167C136.657 80.8086 136.817 81.3128 137.184 81.6565C137.551 82.0002 138.078 82.1148 138.719 82.1148C139.361 82.1148 139.819 81.9544 140.14 81.7711L140.507 81.4732L140.667 81.1065V80.9919L140.392 80.7399L140.301 80.6711H140.186C139.98 80.6711 139.842 80.7399 139.728 80.7628C139.613 80.8086 139.499 80.8315 139.178 80.8315C138.788 80.8315 138.582 80.7399 138.49 80.6482C138.399 80.5336 138.33 80.3503 138.33 80.0524C138.33 79.1587 138.376 77.8067 138.376 76.913V76.638L138.399 76.5693L138.605 76.5464V76.4089Z" fill="#E8E8E8"></path><path d="M146.969 74.1173L146.923 74.3235C146.923 74.5298 151.598 74.6672 151.598 78.1733C151.598 81.5648 147.748 82.7105 146.625 82.7105C146.35 82.7105 146.282 82.6189 146.282 82.5272L146.442 82.321C146.58 82.2981 146.9 82.2522 147.313 82.1147C149.009 81.5877 150.498 80.419 150.498 78.4712C150.498 77.3713 150.2 76.638 148.825 75.9734C147.428 75.3318 146.282 75.1714 146.282 74.9422C146.282 74.7131 146.9 72.9486 146.969 72.6965C147.038 72.4674 147.107 72.4445 147.68 72.3757L150.361 72.1007C150.567 72.0778 150.636 72.032 150.727 72.032C150.934 72.032 151.025 72.0549 151.025 72.2841C151.025 72.4903 151.025 72.9715 150.659 73.0173L147.336 73.4986C147.13 73.5215 147.107 73.6361 147.084 73.7277L146.969 74.1173Z" fill="#E8E8E8"></path><path d="M146.969 74.1174L146.694 74.0715L146.671 74.2778V74.3007V74.3236L146.786 74.5528L147.175 74.6903C147.702 74.8048 148.756 74.9881 149.673 75.5152C150.589 76.0423 151.346 76.7985 151.346 78.1734C151.346 79.7545 150.452 80.8087 149.398 81.4961C148.344 82.1607 147.129 82.4586 146.625 82.4356H146.511H146.488L146.442 82.5273L146.511 82.4815L146.465 82.4586L146.419 82.5502L146.488 82.5044L146.396 82.5731H146.533L146.511 82.5044L146.419 82.5731H146.556H146.281L146.488 82.7335L146.648 82.5273L146.442 82.3669L146.488 82.6419C146.625 82.619 146.969 82.5502 147.381 82.4127C149.146 81.8857 150.75 80.6024 150.75 78.5171C150.75 77.9442 150.681 77.4172 150.406 76.9589C150.131 76.5006 149.65 76.111 148.94 75.7673C148.229 75.4465 147.565 75.2173 147.106 75.0798C146.877 75.0111 146.694 74.9423 146.579 74.8965L146.488 74.8507L146.442 74.9194L146.511 74.8736L146.488 74.8507L146.442 74.9194L146.511 74.8736L146.35 74.9652H146.533L146.511 74.8736L146.35 74.9652H146.533H146.511H146.556C146.579 74.8736 146.717 74.3465 146.877 73.8882C147.038 73.407 147.198 72.9258 147.244 72.7883L147.267 72.7424L147.221 72.7195L147.244 72.7424L147.267 72.7195L147.221 72.6966L147.244 72.7195C147.244 72.7195 147.404 72.6737 147.725 72.6508L150.406 72.3758H150.429C150.658 72.3529 150.704 72.33 150.773 72.33H150.864L150.91 72.2154L150.796 72.2841L150.864 72.3529L150.91 72.2383L150.796 72.3071L150.842 72.2841H150.796V72.3071L150.842 72.2841H150.796V72.33L150.773 72.6737L150.658 72.8112L147.335 73.2695L146.969 73.4528L146.854 73.7049L147.129 73.7736L146.877 73.682L146.74 74.0486V74.0715V74.0945L146.969 74.1174L147.221 74.209L147.358 73.8424L147.381 73.7736L147.313 73.7278L147.358 73.7965L147.381 73.7736L147.313 73.7278L147.358 73.7965L147.404 73.7736L150.704 73.3153C151.025 73.2695 151.208 73.0174 151.254 72.8112C151.323 72.605 151.323 72.4216 151.323 72.3071L151.139 71.8946L150.75 71.8029C150.589 71.8029 150.544 71.8258 150.337 71.8487L150.383 72.1237L150.36 71.8487L147.679 72.1237C147.404 72.1466 147.221 72.1696 147.06 72.2383L146.74 72.6279L146.992 72.6966L146.74 72.605C146.694 72.7195 146.511 73.2466 146.35 73.7507C146.258 74.0028 146.19 74.2549 146.121 74.4611C146.075 74.6673 146.029 74.8048 146.029 74.9423L146.19 75.2402C146.419 75.4006 146.717 75.4694 147.152 75.6069C147.588 75.7444 148.16 75.9277 148.733 76.2027C149.398 76.5006 149.765 76.8214 149.971 77.1651C150.177 77.5088 150.246 77.9213 150.246 78.4484C150.246 80.2358 148.894 81.3357 147.244 81.8398C146.831 81.9773 146.556 82.0232 146.396 82.0461L146.304 82.069L146.075 82.3669L146.029 82.4356V82.5273L146.236 82.8939L146.648 82.9856C147.29 82.9856 148.55 82.6877 149.696 81.9315C150.842 81.1982 151.896 79.9608 151.873 78.1505C151.873 76.2485 150.589 75.2402 149.375 74.7361C148.756 74.484 148.16 74.3236 147.702 74.2319C147.496 74.1632 147.29 74.1403 147.175 74.1174L147.06 74.0945L147.015 74.1861L147.083 74.0945L147.06 74.0715L147.015 74.1632L147.083 74.0715L146.969 74.3007H147.198L147.106 74.0945L146.969 74.3007H147.198H146.923L147.198 74.3465L147.221 74.1403L146.969 74.1174Z" fill="#E8E8E8"></path><path d="M159.389 77.0964C159.389 74.8966 158.747 72.3759 157.258 72.3759C155.745 72.3759 155.104 74.8966 155.104 77.0964C155.104 79.2963 155.722 81.817 157.258 81.817C158.747 81.7941 159.389 79.2734 159.389 77.0964ZM153.843 77.0964C153.843 73.7508 155.585 72.0551 157.258 72.0551C159.228 72.0551 160.649 74.1633 160.649 77.0964C160.649 80.3046 158.908 82.1378 157.258 82.1378C155.287 82.1149 153.843 80.3046 153.843 77.0964Z" fill="#E8E8E8"></path><path d="M159.389 77.0964H159.664C159.664 75.9735 159.503 74.7819 159.137 73.8195C158.793 72.88 158.174 72.1238 157.258 72.1238C156.318 72.1238 155.722 72.9029 155.356 73.8195C154.989 74.7819 154.829 75.9735 154.829 77.0964C154.829 78.2192 154.989 79.4338 155.356 80.3733C155.699 81.3128 156.318 82.069 157.258 82.069C158.174 82.069 158.793 81.3128 159.137 80.3733C159.503 79.4338 159.664 78.2192 159.664 77.0964H159.389H159.114C159.114 78.1734 158.953 79.3192 158.633 80.1671C158.289 81.0378 157.831 81.542 157.258 81.542C156.662 81.542 156.204 81.0608 155.86 80.19C155.539 79.3421 155.379 78.1734 155.379 77.1193C155.379 76.0423 155.539 74.8965 155.86 74.0486C156.204 73.1779 156.662 72.6737 157.258 72.6737C157.831 72.6737 158.312 73.1549 158.633 74.0486C158.953 74.8965 159.114 76.0652 159.114 77.1193H159.389V77.0964ZM153.843 77.0964H154.118C154.118 73.8424 155.791 72.33 157.258 72.33C158.128 72.33 158.908 72.7883 159.48 73.6362C160.053 74.484 160.397 75.6756 160.397 77.0964C160.397 78.6546 159.985 79.8462 159.366 80.6483C158.77 81.4503 157.991 81.8628 157.258 81.8628C156.364 81.8628 155.585 81.4503 155.035 80.6712C154.462 79.8691 154.118 78.6546 154.118 77.0964H153.843H153.568C153.568 78.7463 153.935 80.0525 154.577 80.9691C155.218 81.8857 156.181 82.3898 157.235 82.3898C159.114 82.3669 160.901 80.3733 160.901 77.0964C160.901 75.584 160.535 74.2778 159.893 73.3154C159.251 72.3529 158.312 71.78 157.235 71.78C156.318 71.78 155.379 72.2613 154.691 73.155C154.004 74.0486 153.545 75.3777 153.545 77.0964H153.843Z" fill="#E8E8E8"></path><path d="M167.524 77.0964C167.524 74.8966 166.882 72.3759 165.37 72.3759C163.858 72.3759 163.216 74.8966 163.216 77.0964C163.216 79.2963 163.858 81.817 165.37 81.817C166.882 81.7941 167.524 79.2734 167.524 77.0964ZM161.956 77.0964C161.956 73.7508 163.697 72.0551 165.37 72.0551C167.341 72.0551 168.784 74.1633 168.784 77.0964C168.784 80.3046 167.043 82.1378 165.37 82.1378C163.399 82.1149 161.956 80.3046 161.956 77.0964Z" fill="#E8E8E8"></path><path d="M167.524 77.0964H167.776C167.776 75.9735 167.616 74.7819 167.249 73.8195C166.905 72.88 166.287 72.1238 165.37 72.1238C164.43 72.1238 163.835 72.9029 163.491 73.8195C163.124 74.7819 162.964 75.9735 162.964 77.0964C162.964 78.2192 163.124 79.4338 163.491 80.3733C163.835 81.3128 164.453 82.069 165.37 82.069C166.31 82.069 166.905 81.3128 167.249 80.3733C167.616 79.4338 167.776 78.2192 167.776 77.0964H167.524H167.249C167.249 78.1734 167.089 79.3192 166.768 80.1671C166.424 81.0378 165.966 81.542 165.37 81.5191C164.797 81.5191 164.316 81.0149 163.972 80.1671C163.651 79.3192 163.491 78.1505 163.491 77.0964C163.491 76.0194 163.651 74.8736 163.972 74.0257C164.316 73.1549 164.774 72.6508 165.37 72.6508C165.943 72.6508 166.424 73.132 166.768 74.0257C167.089 74.8736 167.249 76.0423 167.249 77.0964H167.524ZM161.956 77.0964H162.208C162.231 73.8424 163.903 72.33 165.347 72.33C166.218 72.33 166.997 72.7883 167.57 73.6362C168.143 74.484 168.487 75.6756 168.487 77.0964C168.487 78.6546 168.074 79.8462 167.455 80.6483C166.86 81.4503 166.08 81.8628 165.347 81.8628C164.453 81.8628 163.674 81.4503 163.124 80.6712C162.551 79.8691 162.208 78.6546 162.208 77.0964H161.956H161.681C161.681 78.7463 162.047 80.0525 162.689 80.9691C163.331 81.8857 164.293 82.3898 165.347 82.3898C167.226 82.3669 169.014 80.3733 169.036 77.0964C169.036 75.584 168.67 74.2778 168.028 73.3154C167.387 72.3529 166.447 71.78 165.347 71.78C164.43 71.78 163.491 72.2613 162.803 73.155C162.116 74.0486 161.658 75.3777 161.658 77.0964H161.956Z" fill="#E8E8E8"></path><path d="M171.969 72.5133H172.176L172.405 72.2841C172.474 72.2841 172.474 72.4445 172.474 72.6508C172.474 72.8799 172.474 73.1549 172.382 73.1549L172.222 72.8341C172.199 72.7883 171.992 72.6966 171.465 72.6966C171.259 72.6966 171.236 72.7195 171.236 73.0174V75.1027C171.236 75.3548 171.305 75.3777 171.534 75.4235L171.809 75.5152L171.694 75.5839C171.534 75.5839 171.259 75.561 171.03 75.561C170.824 75.561 170.572 75.5839 170.297 75.5839L170.205 75.5381L170.503 75.4235C170.732 75.3777 170.778 75.3089 170.778 74.9881V72.9257C170.778 72.7195 170.732 72.6966 170.32 72.6966C169.838 72.6966 169.655 73.2007 169.54 73.2007L169.472 73.132L169.678 72.5133L169.815 72.2841L169.999 72.4904C170.251 72.5133 170.503 72.5362 170.755 72.5362H171.969V72.5133Z" fill="#E8E8E8"></path><path d="M171.97 72.5133L171.992 72.7883H172.199H172.313L172.634 72.4904L172.451 72.3071V72.582V72.3529L172.267 72.4675L172.451 72.5591V72.33L172.267 72.4446L172.336 72.3987L172.245 72.4216L172.267 72.4446L172.336 72.3987L172.245 72.4216V72.6508L172.222 72.9716V73.0174L172.359 73.0862L172.245 72.9716L172.199 73.0174L172.336 73.0862L172.222 72.9716L172.382 73.132V72.9029L172.222 72.9716L172.382 73.132V72.9029V73.1778L172.611 73.0633L172.451 72.7425V72.7195L172.107 72.5133C171.97 72.4904 171.763 72.4446 171.488 72.4446L171.076 72.582L170.984 73.0404V75.1257L171.122 75.561L171.511 75.7215L171.557 75.4465L171.465 75.6985L171.74 75.7902L171.832 75.5381L171.695 75.309L171.58 75.3777L171.717 75.6069V75.3319C171.58 75.3319 171.305 75.309 171.053 75.309C170.824 75.309 170.572 75.3319 170.32 75.3319V75.6069L170.457 75.3777L170.365 75.3319L170.228 75.561L170.32 75.8131L170.618 75.6985L170.526 75.4465L170.572 75.6985L170.984 75.4694L171.099 75.0111V72.9487L171.076 72.7425L170.755 72.4675L170.365 72.4446C170.022 72.4446 169.793 72.6279 169.655 72.7883L169.495 72.9716L169.472 72.9945L169.586 73.1549V72.9258L169.472 72.9716L169.586 73.132V72.9258V73.2008L169.793 73.0174L169.747 72.9487L169.541 73.132L169.793 73.2237L169.999 72.6279L170.113 72.4216L169.884 72.2842L169.678 72.4675L169.884 72.6737L169.953 72.7425H170.045C170.32 72.7654 170.572 72.7883 170.847 72.7883H171.992L171.97 72.5133V72.2383H170.824C170.572 72.2383 170.32 72.2383 170.09 72.2154L170.045 72.4904L170.251 72.3071L170.045 72.1008L169.815 71.8488L169.495 72.3758L169.472 72.3987L169.243 73.0633L169.197 73.2008L169.357 73.3841L169.449 73.4757H169.563C169.793 73.4299 169.815 73.3383 169.861 73.2924L170.343 72.9487H170.572H170.618L170.663 72.7883L170.526 72.8341L170.618 72.9258L170.663 72.7654L170.526 72.8112L170.572 72.7883H170.526V72.8112L170.572 72.7883H170.526V72.857V74.9194V75.0569V75.0798L170.572 75.1027L170.549 75.0569L170.526 75.0798L170.572 75.1027L170.549 75.0569L170.457 75.0798H170.434L170.113 75.1944L169.586 75.4006L170.182 75.7215L170.251 75.7673H170.32C170.595 75.7673 170.847 75.7444 171.053 75.7444C171.259 75.7444 171.557 75.7673 171.717 75.7673H171.786L171.97 75.6527L172.474 75.3548L171.649 75.0798H171.626H171.603L171.511 75.0569L171.465 75.1486L171.557 75.1027L171.511 75.0569L171.465 75.1486L171.557 75.1027V75.034V72.9487V72.8112V72.7883L171.397 72.7425L171.442 72.8799L171.534 72.7883L171.374 72.7425L171.42 72.8799H171.442H171.511C171.763 72.8799 171.924 72.9029 172.015 72.9258L172.084 72.9487L172.153 72.8341L172.038 72.9029L172.084 72.9487L172.153 72.8341L172.038 72.9029L172.267 72.7425L172.038 72.857L172.199 73.1778L172.267 73.3383H172.451L172.749 73.132C172.817 72.9258 172.817 72.7425 172.817 72.5591L172.794 72.2383L172.749 72.055L172.474 71.8946H172.359L172.13 72.1237H172.015L171.97 72.5133Z" fill="#E8E8E8"></path><path d="M173.986 74.0486L173.505 73.0633C173.459 73.0633 173.459 73.5674 173.459 73.8424V75.2402L173.757 75.4006C173.963 75.4465 174.032 75.4465 174.032 75.4923L173.895 75.5611L173.322 75.5381L172.749 75.5611L172.657 75.4923L172.818 75.4006C173.024 75.3777 173.161 75.309 173.161 75.2173L173.322 72.9945V72.7654C173.322 72.6508 173.276 72.6508 173.001 72.5591L172.772 72.4675L172.909 72.3987L173.253 72.4217L173.666 72.3987L173.757 72.4446L174.765 74.6674L174.811 74.6903L174.857 74.6674L175.774 72.605L175.934 72.3987L176.347 72.4217L176.759 72.3987L176.828 72.4675L176.576 72.5821C176.278 72.6279 176.209 72.6279 176.209 72.9945V75.1257C176.209 75.3319 176.278 75.3777 176.599 75.4236L176.782 75.5152L176.553 75.584C176.324 75.584 176.232 75.5611 176.117 75.5611C175.865 75.5611 175.636 75.584 175.43 75.584L175.292 75.4923L175.476 75.4236C175.705 75.3777 175.751 75.3548 175.751 75.2173V73.3612L175.705 73.2237L175.659 73.2466L174.72 75.4465L174.651 75.4923L174.445 75.1715L173.986 74.0486Z" fill="#E8E8E8"></path><path d="M173.987 74.0486L174.239 73.934L173.78 72.9486L173.689 72.7882H173.528L173.299 72.9257L173.253 73.1549C173.23 73.3382 173.23 73.6361 173.23 73.8423V75.2402V75.4006L173.666 75.6527L173.712 75.6756H173.757L173.964 75.6985L174.009 75.561L173.918 75.6756L173.987 75.7214L174.032 75.5839L173.941 75.6985L174.101 75.5381H173.872L173.941 75.6985L174.101 75.5381H173.872H174.147L174.032 75.286L173.941 75.3318L173.437 75.3089H173.414L172.909 75.3318L172.887 75.3089L172.726 75.5381L172.864 75.7672L173.024 75.6756L172.887 75.4464L172.909 75.7214L173.253 75.6297L173.482 75.286H173.207L173.482 75.3089L173.666 73.0861V73.0632V72.8341L173.459 72.4903L173.139 72.3758L173.07 72.6278L173.184 72.3758L172.955 72.2841L172.841 72.5362L172.978 72.7653L173.047 72.7424H173.345H173.689H173.712L173.849 72.5133L173.597 72.6278L174.651 74.9194L174.766 74.9881L174.926 75.0798L175.109 74.9194L175.155 74.8735L176.095 72.7882L176.141 72.7195H176.416H176.851V72.4445L176.668 72.6507L176.736 72.7195L176.92 72.5362L176.805 72.2841L176.576 72.3987L176.668 72.6507L176.622 72.3758L176.186 72.5362L176.026 73.0403V75.1714L176.209 75.5839L176.645 75.7443L176.691 75.4693L176.553 75.6985L176.736 75.7901L176.874 75.561L176.805 75.3089L176.576 75.3777L176.645 75.6297V75.3548C176.438 75.3548 176.37 75.3318 176.209 75.3318C175.957 75.3318 175.705 75.3548 175.522 75.3548V75.6297L175.659 75.4006L175.522 75.3089L175.361 75.5381L175.453 75.7901L175.659 75.7214L175.568 75.4693L175.614 75.7443L175.934 75.6297L176.072 75.4235L176.095 75.2631V73.407V73.3611L176.049 73.2007L175.934 72.8341L175.591 73.0861L175.522 73.132L174.536 75.4006L174.789 75.5152L174.651 75.286L174.582 75.3318L174.72 75.561L174.949 75.4235L174.743 75.1256L174.284 74.0486V74.0257L173.987 74.0486L173.734 74.1632L174.193 75.2631V75.286L174.422 75.6297L174.559 75.836L174.857 75.6756L174.926 75.6297L175.911 73.3611L175.659 73.2465L175.82 73.4528L175.866 73.4299L175.682 73.2236L175.43 73.3153L175.453 73.407V75.2402V75.2631H175.568L175.453 75.1943L175.43 75.2402H175.545L175.43 75.1714L175.591 75.2631L175.476 75.1256L175.43 75.1943L175.591 75.286L175.476 75.1485L175.545 75.2173L175.499 75.1256H175.476L175.545 75.1943L175.499 75.1027L175.361 75.1256H175.339L175.132 75.2173L174.651 75.4006L175.224 75.7672L175.293 75.8131H175.384C175.591 75.8131 175.843 75.7901 176.072 75.7901C176.141 75.7901 176.255 75.8131 176.507 75.8131H176.553L176.828 75.7443L177.47 75.561L176.691 75.1485L176.645 75.1256H176.599L176.438 75.0798L176.393 75.0569L176.347 75.1485L176.438 75.1256L176.416 75.0798L176.37 75.1714L176.461 75.1485L176.438 75.1714H176.461L176.438 75.1943H176.461V75.1485V73.0174V72.8799L176.37 72.8341L176.438 72.9028L176.461 72.8799L176.37 72.8341L176.438 72.9028L176.393 72.857L176.438 72.9257L176.461 72.9028L176.416 72.857L176.461 72.9257L176.645 72.8799H176.668L176.943 72.7653L177.309 72.6049L176.966 72.2841L176.874 72.1924L176.347 72.2153L175.934 72.1924H175.797L175.568 72.4903L175.545 72.5133L174.605 74.5985L174.857 74.7131L174.697 74.5069L174.651 74.5298L174.834 74.736L174.972 74.5069L174.926 74.484L174.766 74.7131L175.018 74.5985L173.964 72.2841L173.78 72.1924L173.712 72.1466L173.253 72.1695L172.909 72.1466H172.841L172.657 72.2383L172.153 72.5133L172.909 72.8341H172.932H172.955L173.116 72.8799H173.162L173.23 72.7424L173.116 72.8112L173.162 72.857L173.23 72.7195L173.116 72.7882L173.253 72.6966L173.093 72.7195L173.116 72.7882L173.253 72.6966L173.093 72.7195V72.9486L172.909 75.1714H173.093L172.955 75.0569L172.909 75.1714H173.093L172.955 75.0569L173.001 75.1027L172.955 75.0339L172.932 75.0569L172.978 75.1027L172.932 75.0339L172.795 75.0798H172.749L172.52 75.1943L172.13 75.4235L172.589 75.7214L172.657 75.7672L173.299 75.7443L173.872 75.7672H173.941L174.147 75.6756L174.307 75.6068V75.4235L174.216 75.1943C174.009 75.0569 173.964 75.1027 173.803 75.0798L173.757 75.3318L173.895 75.1027L173.734 75.011V73.8423V73.3611L173.757 73.1778V73.1549L173.551 73.109L173.734 73.2007L173.757 73.1549L173.551 73.109L173.734 73.2007L173.505 73.0632V73.3153L173.734 73.1778L173.505 73.0403V73.2924V73.0174L173.276 73.132L173.757 74.0944L173.987 74.0486Z" fill="#E8E8E8"></path></svg>