<svg width="99" height="35" viewBox="0 0 99 35" fill="none" xmlns="http://www.w3.org/2000/svg">
<path d="M48.8125 1.09448H45.1211V3.96197H48.8125V1.09448Z" fill="#A3ACB5"/>
<path d="M19.8911 7.3405C21.2424 7.3405 21.6379 8.57648 21.6379 9.25215H18.0124C18.0124 8.27984 18.688 7.3405 19.8911 7.3405ZM23.7638 13.026C23.3848 13.1579 22.9728 13.2732 22.5772 13.3556C22.1158 13.4545 21.6214 13.5039 21.127 13.5039C19.5285 13.5039 18.276 12.9766 18.0783 11.7076H24.8844C24.9338 11.4604 25.0327 10.8837 25.0327 10.2574C25.0327 7.38994 23.599 4.75317 19.957 4.75317C16.4138 4.75317 14.5352 7.52177 14.5352 10.6365C14.5352 14.2126 17.0401 16.2725 20.5502 16.2725C21.4401 16.2725 22.0829 16.1901 22.6267 16.0913C23.187 15.9759 23.7967 15.7946 24.3076 15.5639L23.7638 13.026Z" fill="#A3ACB5"/>
<path d="M72.6924 7.3405C74.0438 7.3405 74.4558 8.57648 74.4558 9.25215H70.8138C70.8138 8.27984 71.4729 7.3405 72.6924 7.3405ZM76.5487 13.026C76.1697 13.1579 75.7742 13.2732 75.3622 13.3556C74.9007 13.4545 74.4063 13.5039 73.9119 13.5039C72.3134 13.5039 71.061 12.9766 70.8632 11.7076H77.6528C77.7023 11.4604 77.7847 10.8837 77.7847 10.2574C77.7847 7.38994 76.3509 4.75317 72.7089 4.75317C69.1658 4.75317 67.2871 7.52177 67.2871 10.6365C67.2871 14.2126 69.792 16.2725 73.2857 16.2725C74.1756 16.2725 74.8348 16.1901 75.3786 16.0913C75.939 15.9759 76.5487 15.7946 77.076 15.5639L76.5487 13.026Z" fill="#A3ACB5"/>
<path d="M30.3887 1.09448H26.6973V16.0416H30.3887V1.09448Z" fill="#A3ACB5"/>
<path d="M37.7885 13.5533C36.5855 13.5533 35.811 12.3667 35.811 10.5375C35.811 9.07076 36.3383 7.52165 37.805 7.52165C39.2223 7.52165 39.7331 9.13667 39.7331 10.521C39.7166 12.3502 38.9586 13.5533 37.7885 13.5533ZM37.7391 16.2724C40.6065 16.2724 43.5235 14.4596 43.5235 10.4221C43.5235 8.01605 42.0897 4.76953 37.9039 4.76953C33.5862 4.76953 32.0371 7.91717 32.0371 10.6034C32.0536 13.9817 34.3937 16.2724 37.7391 16.2724Z" fill="#A3ACB5"/>
<path d="M48.8125 5.0166H45.1211V16.0416H48.8125V5.0166Z" fill="#A3ACB5"/>
<path d="M51.7454 2.01734V5.01666H50.3281V7.75231H51.7454V12.2678C51.7454 14.7562 52.8825 16.2724 55.4698 16.2724C55.9642 16.2724 56.508 16.2229 57.0189 16.1405C57.4803 16.0746 57.9088 15.9757 58.0901 15.9263L58.0571 13.0258C57.9253 13.0753 57.1013 13.2071 56.7882 13.2071C56.4915 13.2071 56.0466 13.1742 55.7335 12.8446C55.5027 12.6138 55.338 12.2348 55.338 11.6415V7.73583H57.7275V5.00018H55.338V1.58887L51.7454 2.01734Z" fill="#A3ACB5"/>
<path d="M60.2669 2.01734V5.01666H58.8496V7.75231H60.2669V12.2678C60.2669 14.7562 61.404 16.2724 63.9913 16.2724C64.4857 16.2724 65.0295 16.2229 65.5404 16.1405C66.0018 16.0746 66.4303 15.9757 66.6115 15.9263L66.5786 13.0258C66.4632 13.0753 65.6228 13.2071 65.3097 13.2071C65.013 13.2071 64.5681 13.1742 64.255 12.8446C64.0242 12.6138 63.8594 12.2348 63.8594 11.6415V7.73583H66.249V5.00018H63.8594V1.58887L60.2669 2.01734Z" fill="#A3ACB5"/>
<path d="M79.415 14.2454C79.415 13.1248 80.3379 12.2019 81.4585 12.2019C82.5791 12.2019 83.502 13.1083 83.502 14.2454C83.502 15.3825 82.5791 16.2889 81.4585 16.2889C80.3214 16.2889 79.415 15.366 79.415 14.2454Z" fill="#A3ACB5"/>
<path d="M0.264648 16.0581H4.43401C4.71417 16.0581 5.06024 16.0581 5.32392 16.0416C11.0424 15.745 13.4154 12.3667 13.4154 8.46095C13.4154 3.58293 10.136 0.86377 4.46697 0.86377C3.00028 0.86377 1.71486 0.913209 0.281128 1.02857V16.0581H0.264648ZM5.60407 13.0753C5.45575 13.0918 5.22504 13.0918 5.07672 13.0918H3.90666V3.91253C4.30217 3.87957 4.82952 3.84661 5.1756 3.84661C7.31796 3.84661 9.60864 5.23091 9.60864 8.44447C9.59216 11.8228 7.43332 12.9434 5.60407 13.0753Z" fill="#A3ACB5"/>
<path d="M5.75178 24.4301C5.91657 24.4301 6.08137 24.4465 6.24617 24.4136C6.65816 24.3477 6.57576 23.8862 6.79 23.8862C6.9548 23.8862 6.9548 24.2653 6.9548 24.7432C6.9548 25.287 6.93832 25.8803 6.74056 25.8803C6.50984 25.8803 6.5428 25.3694 6.37801 25.1387C6.31209 25.0233 5.85066 24.8091 4.6806 24.8091C4.21917 24.8091 4.13677 24.8421 4.13677 25.5507V30.2639C4.13677 30.8077 4.30157 30.9066 4.81244 30.9725C5.12555 31.022 5.42218 31.0055 5.42218 31.1868C5.42218 31.3351 5.24091 31.3351 5.17499 31.3351C4.81244 31.3351 4.16973 31.2857 3.65886 31.2857C3.18095 31.2857 2.62064 31.3351 2.01089 31.3351L1.81313 31.2197C1.81313 31.0385 2.19216 31.022 2.47232 30.9725C2.99967 30.8572 3.11503 30.6924 3.11503 30.0002V25.3035C3.11503 24.8256 3.03263 24.8091 2.07681 24.8091C1.00563 24.8091 0.577154 25.9627 0.329958 25.9627L0.181641 25.8144C0.181641 25.666 0.527714 24.7432 0.659552 24.3971C0.77491 24.084 0.824349 23.8862 0.989146 23.8862C1.23634 23.8862 1.02211 24.2817 1.41762 24.3477C2.01089 24.4136 2.5712 24.4301 3.14799 24.4301H5.75178Z" fill="#A3ACB5"/>
<path d="M5.75141 24.4298V24.6276H6.03157L6.27876 24.6111C6.55892 24.5617 6.70724 24.3474 6.77316 24.2156L6.83907 24.0673L6.78964 24.0178V24.0837L6.83907 24.0673L6.78964 24.0178V24.0837V23.9849L6.7402 24.0673L6.78964 24.0837V23.9849L6.7402 24.0673L6.77316 24.0178L6.72372 24.0508L6.7402 24.0673L6.77316 24.0178L6.72372 24.0508L6.75667 24.265C6.77315 24.3969 6.77316 24.5617 6.77316 24.7429C6.77316 25.0066 6.77315 25.2868 6.7402 25.501L6.69076 25.7152V25.7317L6.72372 25.7482L6.70724 25.7152L6.69076 25.7317L6.72372 25.7482L6.70724 25.7152L6.75667 25.7976V25.6988L6.70724 25.7152L6.75667 25.7976V25.6988V25.7482L6.78964 25.6988L6.75667 25.6823V25.7317L6.78964 25.6823L6.70724 25.4186L6.5754 25.0066C6.46004 24.8583 6.31172 24.8089 6.01509 24.71C5.71845 24.6441 5.30646 24.5781 4.69671 24.5781C4.48248 24.5781 4.26824 24.5617 4.10344 24.7594C3.95513 24.9407 3.97161 25.1549 3.95513 25.5175V30.2307C3.95513 30.5273 3.98809 30.7416 4.15288 30.9064C4.31768 31.0712 4.53192 31.1041 4.77911 31.1371C4.94391 31.1536 5.10871 31.1701 5.1911 31.1865L5.25702 31.203L5.28998 31.1536H5.24054L5.2735 31.203L5.30646 31.1536H5.24054H5.28998L5.24054 31.1865L5.22406 31.2195H5.2735L5.24054 31.1865L5.28998 31.2195L5.2735 31.1701L5.24054 31.1865L5.28998 31.2195L5.2735 31.1701L5.1911 31.1865C4.86151 31.1865 4.20232 31.1371 3.67497 31.1371C3.18058 31.1371 2.62027 31.1865 2.027 31.1865V31.3843L2.12588 31.2195L1.92812 31.1041L1.82925 31.2689H2.027H1.9446L2.01052 31.3019V31.2689H1.9446L2.01052 31.3019L1.97756 31.2854L2.01052 31.3184L2.027 31.3019L1.99404 31.2854L2.027 31.3184C2.04348 31.2854 2.32364 31.236 2.55435 31.203C2.81803 31.1371 3.04874 31.0547 3.19706 30.8569C3.3289 30.6427 3.36186 30.3955 3.36186 30.0494V25.3527L3.3289 25.0066C3.27946 24.8253 3.09818 24.71 2.91691 24.6935C2.73563 24.6605 2.48843 24.6605 2.12588 24.6605C1.51613 24.6605 1.08766 24.9901 0.807505 25.3032C0.659188 25.4516 0.54383 25.5999 0.461431 25.7152L0.362553 25.8141L0.346073 25.8306L0.395513 25.913V25.8306L0.346073 25.8471L0.395513 25.9295V25.8471V26.0448L0.52735 25.913L0.395513 25.7647L0.247195 25.8965H0.444952C0.444952 25.8471 0.52735 25.5669 0.642708 25.2868C0.741586 25.0066 0.856944 24.6935 0.922863 24.5287C0.988782 24.3639 1.02174 24.2321 1.0547 24.1826L1.08766 24.1497L1.07118 24.1167V24.1497H1.08766L1.07118 24.1167V24.1497V24.1002L1.03822 24.1497L1.07118 24.1661V24.1167L1.03822 24.1661L1.08766 24.1002L1.00526 24.1497L1.03822 24.1826L1.08766 24.1167L1.00526 24.1661L1.08766 24.3969C1.1371 24.5122 1.28542 24.6276 1.46669 24.6441C2.05996 24.71 2.65323 24.7265 3.21354 24.7265H5.80085V24.4298V24.2321H3.18058C2.60379 24.2321 2.04348 24.2156 1.46669 24.1497L1.38429 24.1167L1.33486 23.9684L1.25246 23.7871L1.02174 23.6882C0.840464 23.6882 0.708627 23.8201 0.659188 23.9354C0.593269 24.0508 0.560309 24.1826 0.51087 24.3309C0.444952 24.4957 0.329594 24.8253 0.214236 25.122C0.164797 25.2703 0.115358 25.4186 0.0659187 25.534L0 25.8306V25.913L0.181276 26.1108L0.247195 26.1767H0.329594C0.54383 26.1437 0.593269 26.0284 0.708627 25.9295C0.988782 25.5834 1.40077 25.0231 2.07644 25.0231C2.55435 25.0231 2.81803 25.0396 2.86747 25.0725L2.90043 25.1055L2.91691 25.3362V30.0329C2.91691 30.3625 2.88395 30.5438 2.81803 30.6262C2.76859 30.7086 2.66971 30.7581 2.42252 30.8075C2.29068 30.8405 2.12588 30.8569 1.96108 30.8899L1.73037 30.9888L1.58205 31.2525V31.3678L1.87868 31.5326L1.92812 31.5656H1.97756C2.58731 31.5656 3.14762 31.5161 3.62553 31.5161C4.1364 31.5161 4.76263 31.5656 5.14167 31.5656L5.3559 31.5326C5.45478 31.4996 5.58662 31.3678 5.58662 31.2195L5.45478 30.9558C5.24054 30.8075 5.02631 30.8405 4.79559 30.8075C4.5484 30.7745 4.41656 30.7251 4.3836 30.6921C4.33416 30.6427 4.3012 30.5603 4.3012 30.2966V25.5834C4.3012 25.2373 4.33416 25.0725 4.35064 25.0725L4.40008 25.0561L4.64727 25.0396C5.22406 25.0396 5.61958 25.089 5.86677 25.1549L6.13045 25.2538L6.19637 25.2868C6.2458 25.3362 6.26228 25.5175 6.31172 25.6823L6.4106 25.946L6.70724 26.1272C6.87203 26.1272 6.97091 26.0119 7.00387 25.913C7.11923 25.6328 7.11923 25.2044 7.11923 24.7924C7.11923 24.5452 7.11923 24.3309 7.10275 24.1497L7.02035 23.9025L6.75667 23.7377L6.47652 23.9025L6.34468 24.1497L6.17989 24.265L5.98213 24.2815H5.70197V24.4298H5.75141Z" fill="#A3ACB5"/>
<path d="M9.59208 27.6929C9.59208 27.2974 9.21305 26.9843 8.71866 26.9843C7.87819 26.9843 7.3838 27.7918 7.3838 28.1543C7.3838 28.2367 7.41676 28.2532 8.40554 28.2532C9.44376 28.2697 9.59208 28.1214 9.59208 27.6929ZM7.28492 28.6158C7.26844 28.6817 7.26844 28.83 7.26844 29.0278C7.26844 30.0001 7.53212 30.9724 8.96585 30.9724C9.87223 30.9724 9.88871 30.4945 10.0865 30.4945L10.1853 30.5933C10.1853 30.6757 9.69096 31.5327 8.48794 31.5327C7.20252 31.5327 6.46094 30.6263 6.46094 29.1596C6.46094 28.0554 7.13661 26.7041 8.58682 26.7041C9.92167 26.7041 10.3831 27.8412 10.3831 28.3521C10.3831 28.5663 10.3501 28.6158 10.1524 28.6158H7.28492Z" fill="#A3ACB5"/>
<path d="M9.59147 27.6929H9.78923C9.78923 27.1655 9.29484 26.7865 8.73453 26.7865C8.24014 26.7865 7.8611 27.0172 7.61391 27.2974C7.35023 27.5775 7.2184 27.8906 7.20192 28.1543L7.30079 28.3521C7.41615 28.4345 7.48207 28.418 7.64687 28.4345C7.81166 28.4345 8.04238 28.4345 8.42141 28.4345C8.94876 28.4345 9.26188 28.4015 9.49259 28.2862C9.73979 28.1543 9.80571 27.8907 9.80571 27.6764H9.59147H9.39372C9.37724 27.8742 9.37724 27.8906 9.27836 27.9401C9.163 28.006 8.88284 28.0554 8.38845 28.039C7.89406 28.039 7.64687 28.039 7.53151 28.0225H7.48207L7.46559 28.0719L7.49855 28.0225H7.48207L7.46559 28.0719L7.49855 28.0225L7.43263 28.1543L7.56447 28.1049L7.49855 28.039L7.43263 28.1708L7.56447 28.1214L7.46559 28.1543H7.58095V28.1214L7.48207 28.1543H7.59743C7.59743 28.0554 7.69631 27.7753 7.91054 27.5611C8.1083 27.3468 8.40493 27.1655 8.75101 27.1655C9.163 27.1655 9.42668 27.4127 9.42668 27.6764H9.59147V27.6929ZM7.28431 28.6158L7.10304 28.5663C7.07008 28.6982 7.07008 28.83 7.07008 29.0278C7.07008 29.5386 7.136 30.0495 7.41615 30.478C7.69631 30.9064 8.20718 31.1701 8.94876 31.1701C9.42668 31.1701 9.72331 31.0383 9.90459 30.89L10.0859 30.7087L10.1188 30.6922L10.0859 30.6263V30.7087L10.1188 30.6922L10.0859 30.6263V30.7087V30.5109L9.95403 30.6592L10.0529 30.7581L10.1847 30.6098H9.98699H10.1023L9.98699 30.5604L9.9705 30.6098H10.0859L9.9705 30.5604C9.95402 30.5933 9.82219 30.8076 9.59147 30.9888C9.34428 31.1701 8.98172 31.3514 8.45437 31.3514C7.8611 31.3514 7.41615 31.1536 7.11952 30.7911C6.8064 30.4285 6.64161 29.8847 6.64161 29.1761C6.64161 28.6652 6.8064 28.0884 7.11952 27.6435C7.44911 27.1985 7.91054 26.9019 8.56973 26.9019C9.17948 26.9019 9.57499 27.1491 9.82219 27.4622C10.0694 27.7753 10.1683 28.1543 10.1683 28.3521L10.1518 28.451L10.2177 28.4839L10.2012 28.418L10.1683 28.451L10.2342 28.4839L10.2177 28.418H10.1518H7.136L7.08656 28.5663L7.28431 28.6158V28.8135H10.1353L10.4814 28.6817L10.5638 28.3521C10.5638 28.0554 10.4319 27.6105 10.1188 27.215C9.80571 26.8195 9.29484 26.5063 8.56973 26.5063C7.77871 26.5063 7.18544 26.8854 6.8064 27.4127C6.42737 27.9401 6.24609 28.5828 6.24609 29.1761C6.24609 29.9506 6.42737 30.5769 6.82288 31.0383C7.20192 31.4997 7.77871 31.7469 8.45437 31.7469C9.11356 31.7469 9.57499 31.5162 9.88811 31.269C10.0364 31.1372 10.1518 31.0218 10.2177 30.9064L10.3166 30.7581L10.3495 30.6098V30.5274L10.1847 30.3791L10.1353 30.3297H10.0694L9.80571 30.4615C9.65739 30.6098 9.59147 30.7746 8.96524 30.8076C8.28958 30.8076 7.95998 30.5933 7.74575 30.2802C7.53151 29.9671 7.46559 29.5221 7.46559 29.0442C7.46559 28.863 7.46559 28.6982 7.48207 28.6817L7.28431 28.6158Z" fill="#A3ACB5"/>
<path d="M13.6294 26.7041C14.0085 26.7041 14.8489 26.7865 14.8489 27.2974C14.8489 27.5116 14.7171 27.594 14.5193 27.594C14.0414 27.594 13.9755 26.9843 13.3657 26.9843C12.8054 26.9843 11.8002 27.627 11.8002 29.242C11.8002 30.5439 12.6406 31.0383 13.58 31.0383C14.3051 31.0383 14.4864 30.7581 14.6347 30.7581L14.7006 30.857C14.7006 31.0548 13.992 31.5492 13.2009 31.5492C11.7343 31.5492 11.0256 30.3626 11.0256 29.2585C11.0091 28.006 11.8496 26.7041 13.6294 26.7041Z" fill="#A3ACB5"/>
<path d="M13.6282 26.7041V26.9019C13.8095 26.9019 14.1061 26.9183 14.3204 27.0007L14.5676 27.1326L14.65 27.2974L14.6335 27.3798L14.5181 27.4127C14.3698 27.4127 14.2874 27.3303 14.1226 27.1655C13.9743 27.0007 13.7271 26.803 13.3481 26.803C12.6559 26.803 11.5847 27.5446 11.5847 29.242C11.5847 29.9341 11.8154 30.445 12.1945 30.7746C12.5735 31.0877 13.0514 31.2196 13.5623 31.2196C13.9413 31.2196 14.205 31.1372 14.3863 31.0712L14.584 30.9724L14.6335 30.9559L14.617 30.89V30.9559H14.6335L14.617 30.89V30.9559V30.7581L14.4522 30.8735L14.5181 30.9724L14.6664 30.857H14.4687H14.5346L14.4687 30.824V30.857H14.5346L14.4687 30.824L14.4522 30.857C14.3204 31.0218 13.7436 31.3514 13.1503 31.3349C11.8154 31.3349 11.1727 30.2637 11.1563 29.242C11.1727 28.0884 11.8978 26.9019 13.5788 26.8854V26.7041V26.5063C12.6394 26.5063 11.9308 26.8524 11.4529 27.3798C10.9915 27.9071 10.7607 28.5828 10.7607 29.2585C10.7607 29.8517 10.9585 30.4615 11.354 30.9394C11.7495 31.4173 12.3593 31.7469 13.1338 31.7469C13.5788 31.7469 13.9743 31.6151 14.2874 31.4503C14.4357 31.3679 14.5676 31.2855 14.65 31.2031C14.7488 31.1042 14.8147 31.0383 14.8312 30.8735V30.8076L14.7323 30.6592L14.6664 30.5769H14.6335C14.4357 30.5933 14.3863 30.6757 14.238 30.7252C14.1061 30.7911 13.9084 30.8405 13.5788 30.8405C13.1338 30.8405 12.7383 30.7252 12.4582 30.478C12.178 30.2308 11.9802 29.8517 11.9802 29.242C11.9802 27.7094 12.9196 27.182 13.3481 27.182C13.5788 27.182 13.6941 27.2809 13.8424 27.4292C13.9908 27.5611 14.172 27.7918 14.5016 27.7918L14.8642 27.6764C14.9795 27.5775 15.029 27.4457 15.029 27.2974C15.029 27.1161 14.9466 26.9513 14.8312 26.8524C14.4852 26.5558 13.9248 26.5228 13.6117 26.5228V26.7041H13.6282Z" fill="#A3ACB5"/>
<path d="M17.0239 27.2972L17.0734 27.462C17.2052 27.462 17.6667 26.7039 18.7378 26.7039C20.1551 26.7039 20.188 27.9234 20.188 28.286V30.4448C20.188 30.9227 20.2704 31.0216 20.5341 31.104C20.6989 31.1534 20.8308 31.1534 20.8472 31.2523L20.5671 31.3842C20.254 31.3842 19.9738 31.3347 19.6607 31.3347C19.4135 31.3347 19.1169 31.3842 18.8532 31.3842L18.6719 31.2688C18.6719 31.1699 18.7543 31.1699 19.0015 31.104C19.2487 31.0381 19.3476 30.7579 19.3476 30.3789V28.0388C19.3476 27.5609 18.9191 27.2148 18.2929 27.2148C17.5348 27.2148 17.0404 27.7092 17.0404 28.1706V30.6426C17.0404 30.9722 17.1723 31.0546 17.6172 31.104C17.8644 31.1205 17.9468 31.137 17.9468 31.2523L17.7326 31.3842C17.4854 31.3842 17.0734 31.3347 16.7438 31.3347C16.3977 31.3347 16.0352 31.3842 15.6891 31.3842L15.5078 31.2523L15.7056 31.104C16.1505 31.0546 16.2494 30.8239 16.2494 30.5107V24.8417C16.2494 24.6275 15.6726 24.578 15.6726 24.4297L15.7715 24.2814L16.8591 23.9023C17.0569 23.9023 17.0569 24.0342 17.0569 24.3143V27.2972H17.0239Z" fill="#A3ACB5"/>
<path d="M17.0241 27.2975L16.8428 27.347L16.8922 27.4953L16.9417 27.6271H17.09L17.2713 27.5612C17.502 27.3799 17.8975 26.8855 18.7544 26.8855C19.4136 26.8855 19.6773 27.1492 19.8421 27.4293C20.0069 27.726 20.0069 28.0885 20.0069 28.2698V30.4287C20.0069 30.6759 20.0234 30.8407 20.1058 31.0055C20.1882 31.1703 20.3365 31.2362 20.4848 31.2856L20.7155 31.3515L20.7485 31.2856L20.699 31.3351L20.7155 31.3515L20.7485 31.2856L20.699 31.3351L20.765 31.2691L20.6661 31.2856L20.6826 31.3351L20.7485 31.2691L20.6496 31.2856L20.8474 31.2527L20.765 31.0714L20.4848 31.2032L20.5672 31.3845V31.1867C20.2871 31.1867 19.9904 31.1373 19.6608 31.1373C19.3971 31.1373 19.084 31.1867 18.8533 31.1867V31.3845L18.9522 31.2197L18.7874 31.1043L18.6885 31.2691H18.8863H18.7709L18.8533 31.3515L18.8863 31.2691H18.7709L18.8533 31.3515L18.8039 31.3021L18.8368 31.368L18.8533 31.3515L18.8039 31.3021L18.8368 31.368C18.8533 31.3515 18.9522 31.3351 19.084 31.3021C19.2653 31.2527 19.4136 31.1043 19.4795 30.956C19.5455 30.7912 19.5784 30.6099 19.5784 30.3957V28.0556C19.5784 27.7589 19.4466 27.4788 19.2159 27.314C18.9852 27.1327 18.6885 27.0338 18.3424 27.0338C17.502 27.0338 16.9087 27.5777 16.8922 28.1874V30.6594C16.8922 30.8407 16.9417 31.0384 17.09 31.1538C17.2383 31.2527 17.4196 31.2856 17.6503 31.3186L17.8481 31.3351L17.881 31.2527L17.8151 31.3021L17.8481 31.3351L17.881 31.2527L17.8151 31.3021L17.8975 31.2527L17.8151 31.2691L17.8316 31.3021L17.914 31.2527L17.8316 31.2691H18.0293L17.9305 31.1043L17.6997 31.2362L17.7986 31.401V31.1867C17.5679 31.1867 17.1559 31.1373 16.8098 31.1373C16.4473 31.1373 16.0847 31.1867 15.7551 31.1867V31.3845L15.8705 31.2197L15.6727 31.0879L15.5574 31.2527L15.6727 31.401L15.8705 31.2527L15.7551 31.1043L15.7716 31.3021C16.0188 31.2691 16.2166 31.1867 16.3484 31.0219C16.4638 30.8736 16.4967 30.6759 16.4967 30.5111V24.842C16.4967 24.6937 16.3978 24.5948 16.3319 24.5454L15.9858 24.3806L15.887 24.3311L15.8046 24.4135H15.9199L15.887 24.3311L15.8046 24.4135H15.9199H15.7222L15.887 24.5124L15.9364 24.4135L16.9582 24.0675L16.8922 23.8862V24.084H16.9252V24.0345L16.8922 24.0675L16.9252 24.084V24.0345L16.8922 24.0675L16.9252 24.051L16.8758 24.0675L16.8922 24.084L16.9252 24.0675L16.8758 24.084L16.8922 24.3311V27.3799V27.3964L17.0241 27.2975H17.2218V24.2817C17.2218 24.1334 17.2383 24.0345 17.1889 23.9027C17.1559 23.7544 16.9582 23.6555 16.8263 23.672H16.7934L15.6727 24.051L15.6068 24.0675L15.475 24.2817L15.442 24.3311V24.3806L15.5244 24.5619L15.9035 24.7596L16.0188 24.8255H16.0353L16.0518 24.8091L16.0188 24.8255L16.0353 24.8091L16.0023 24.8255L16.0682 24.7926H16.0023V24.8255L16.0682 24.7926H16.0023V30.4616L15.9364 30.7418C15.9035 30.7912 15.8211 30.8407 15.6398 30.8736H15.5903L15.3431 31.0549L15.1289 31.2197L15.5409 31.4999L15.5903 31.5328H15.6563C16.0188 31.5328 16.3814 31.4834 16.711 31.4834C17.0241 31.4834 17.4361 31.5328 17.6997 31.5328H17.7492L18.0129 31.3845L18.1117 31.3186V31.2032L17.914 30.9066L17.6009 30.8571C17.3866 30.8407 17.2713 30.8077 17.2383 30.7747C17.2218 30.7418 17.1889 30.7418 17.1889 30.5935V28.1215C17.1889 27.9567 17.2713 27.7754 17.4525 27.6106C17.6338 27.4623 17.914 27.347 18.2436 27.347C18.7874 27.3634 19.1005 27.6436 19.1005 27.9897V30.3298C19.1005 30.5111 19.084 30.6429 19.0346 30.7253L18.9028 30.8571L18.6226 30.9395L18.4908 31.0384L18.4248 31.2197V31.3186L18.6885 31.4999L18.738 31.5328H18.8039C19.084 31.5328 19.3971 31.4834 19.6114 31.4834C19.8915 31.4834 20.1882 31.5328 20.5178 31.5328H20.5672L20.8803 31.3845L21.0122 31.3186L20.9957 31.1703C20.9792 31.0219 20.8309 30.9231 20.765 30.9231L20.5507 30.8736L20.4024 30.7747C20.3694 30.7418 20.353 30.6099 20.353 30.3792V28.2204C20.353 28.0391 20.353 27.6106 20.1387 27.1986C19.941 26.8031 19.4795 26.4406 18.705 26.4406C18.1282 26.4406 17.6997 26.6548 17.4031 26.8526C17.2548 26.9514 17.1559 27.0503 17.0735 27.1162L16.9911 27.1822H16.9746L17.0406 27.2975V27.1657L16.9746 27.1822L17.0406 27.2975V27.1657V27.3634L17.2218 27.2975L17.1724 27.1492L17.0241 27.2975Z" fill="#A3ACB5"/>
<path d="M22.099 28.2038C22.099 27.5446 21.5881 27.7753 21.5881 27.5446C21.5881 27.4292 21.7694 27.4127 22.0496 27.1655C22.3132 26.9183 22.6758 26.5393 22.7912 26.5393L22.9065 26.6876V27.2974C23.3844 26.9513 23.7635 26.6876 24.3897 26.6876C25.9553 26.6876 25.9717 27.8577 25.9717 28.385V30.5769C25.9717 30.8405 25.9882 31.0383 26.3013 31.0877C26.4661 31.1207 26.7133 31.1207 26.7133 31.2525C26.7133 31.3679 26.6309 31.3844 26.4661 31.3844C26.1365 31.3844 25.774 31.3349 25.5433 31.3349C25.1972 31.3349 24.95 31.3844 24.6863 31.3844L24.4556 31.269L24.6204 31.1042C24.95 31.0383 25.1972 31.0218 25.1972 30.4121V28.4674C25.1972 27.9895 25.1313 27.215 24.2084 27.215C23.4833 27.215 22.9395 27.6435 22.923 27.7588C22.9065 28.0555 22.9065 28.3191 22.9065 28.5993V30.4121C22.9065 30.824 22.923 31.0383 23.4339 31.1042C23.5822 31.1372 23.7799 31.1372 23.7799 31.269L23.5163 31.4008C23.4009 31.4008 22.956 31.3514 22.6758 31.3514C22.3297 31.3514 22.099 31.4008 21.8683 31.4008L21.4893 31.269L21.6705 31.1042C21.9836 31.0548 22.1155 30.8076 22.1155 30.2473V28.2038H22.099Z" fill="#A3ACB5"/>
<path d="M22.0989 28.2038H22.2966C22.3131 27.8412 22.0989 27.594 21.9176 27.5446L21.7528 27.4951L21.7034 27.5611H21.7858L21.7528 27.4951L21.7034 27.5611L21.7693 27.627L21.7858 27.5611H21.7034L21.7693 27.627C21.7693 27.6105 21.9506 27.5281 22.1813 27.3303L22.6098 26.9348L22.7746 26.7865L22.824 26.7535L22.791 26.6547V26.77H22.824L22.791 26.6711V26.7865V26.5887L22.6427 26.7041L22.7251 26.803V27.3468V27.7259L23.0382 27.4951C23.5161 27.1491 23.8293 26.9348 24.406 26.9348C25.1476 26.9348 25.4443 27.1985 25.6091 27.4787C25.7739 27.7753 25.7903 28.1708 25.7903 28.4345V30.6263C25.7903 30.7581 25.7903 30.9065 25.8563 31.0548C25.9222 31.2031 26.087 31.3184 26.2847 31.3349L26.5319 31.3679L26.5649 31.3844H26.5814L26.6308 31.302H26.5319L26.5814 31.3844L26.6308 31.302H26.5319H26.5978L26.5484 31.269L26.5319 31.302H26.5978L26.5484 31.269L26.6473 31.3184L26.5978 31.2196L26.5649 31.2525L26.6638 31.302L26.6143 31.2031L26.6473 31.2525L26.6308 31.2031H26.6143L26.6473 31.2525L26.6308 31.2031H26.5154C26.2023 31.2031 25.8563 31.1536 25.5926 31.1536C25.23 31.1536 24.9664 31.2031 24.7356 31.2031V31.4008L24.818 31.2196L24.5708 31.1042L24.4884 31.2855L24.6203 31.4173L24.7851 31.2525L24.6368 31.1042L24.6862 31.302C24.8345 31.269 25.0158 31.2525 25.1806 31.1207C25.3454 30.9724 25.4113 30.7417 25.4113 30.4121V28.4674C25.4113 28.2202 25.3948 27.8907 25.2465 27.5775C25.0982 27.2644 24.7521 27.0172 24.2248 27.0172C23.8293 27.0172 23.4832 27.1326 23.2195 27.2644L22.9064 27.4787C22.824 27.5611 22.7746 27.594 22.7416 27.7423C22.7251 28.039 22.7251 28.3191 22.7251 28.5993V30.4121C22.7251 30.6098 22.7251 30.8076 22.824 30.9888C22.9394 31.1701 23.1371 31.269 23.4173 31.3184L23.6315 31.3514H23.648L23.6645 31.302L23.6315 31.3349L23.648 31.3514L23.6645 31.302L23.6315 31.3349L23.7139 31.2855H23.615L23.6315 31.3349L23.7139 31.2855H23.615H23.8128L23.7304 31.1207L23.4667 31.2525L23.5491 31.4338V31.1866C23.4667 31.1866 23.0053 31.1372 22.7086 31.1372C22.3461 31.1372 22.0989 31.1866 21.9011 31.1866V31.3844L21.9671 31.2031L21.588 31.0712L21.5221 31.2525L21.6539 31.4008L21.8352 31.2525L21.7034 31.0877L21.7363 31.2855C21.9341 31.2525 22.1154 31.1207 22.2142 30.9394C22.3131 30.7581 22.3296 30.5274 22.3461 30.2308V28.2038H22.0989H21.9011V30.2308C21.9011 30.4945 21.8682 30.6757 21.8187 30.7581L21.6045 30.9064L21.5551 30.9229L21.3408 31.1042L21.0771 31.3184L21.7693 31.5656H21.8023H21.8352C22.0989 31.5656 22.3296 31.5162 22.6427 31.5162C22.9064 31.5162 23.3513 31.5656 23.4832 31.5656H23.5326L23.8293 31.4173L23.9446 31.3679V31.2525L23.8622 31.0218C23.6974 30.89 23.5491 30.9229 23.4502 30.89C23.2195 30.857 23.1536 30.7911 23.1371 30.7581C23.1042 30.7087 23.0877 30.5933 23.1041 30.3791V28.5663C23.1041 28.2862 23.1041 28.0225 23.1206 27.7423H23.0053L23.1041 27.7918V27.7588H22.9888L23.0877 27.8083C23.1042 27.7753 23.2525 27.6599 23.4502 27.5611C23.648 27.4622 23.9117 27.3963 24.1918 27.3963C24.6038 27.4127 24.7521 27.5446 24.851 27.7423C24.9499 27.9401 24.9664 28.2367 24.9664 28.4674V30.4121C24.9664 30.7087 24.9004 30.7911 24.8675 30.8241C24.8345 30.8735 24.7192 30.89 24.5544 30.9229L24.4884 30.9394L24.2907 31.1372L24.0929 31.3184L24.5708 31.5492L24.6203 31.5656H24.6697C24.9499 31.5656 25.1971 31.5162 25.5267 31.5162C25.7409 31.5162 26.1035 31.5656 26.4495 31.5656L26.7132 31.5327L26.8945 31.2525L26.7626 31.0218C26.5978 30.9229 26.4166 30.9229 26.3012 30.9064L26.1694 30.8405L26.1364 30.5769V28.385C26.1364 28.1214 26.1364 27.6599 25.9222 27.2479C25.6915 26.8195 25.1971 26.4899 24.3731 26.4899C23.6809 26.4899 23.2525 26.7865 22.7746 27.1326L22.8899 27.2974H23.0877V26.6876V26.6217L22.9394 26.424L22.8899 26.3416H22.791L22.5438 26.4404C22.3626 26.5723 22.0989 26.8359 21.9011 27.0172L21.588 27.2479L21.4562 27.3468L21.3738 27.5611L21.5715 27.8412L21.8023 27.9401C21.8352 27.973 21.8682 28.006 21.8847 28.2202H22.0989V28.2038Z" fill="#A3ACB5"/>
<path d="M30.9161 29.0772C30.9161 28.1708 30.3887 26.9843 29.5153 26.9843C28.6419 26.9843 28.098 27.8906 28.098 29.1925C28.098 30.066 28.6254 31.269 29.4988 31.269C30.3722 31.269 30.9161 30.3461 30.9161 29.0772ZM31.806 29.0937C31.806 30.2802 31.1303 31.5327 29.4988 31.5327C27.8838 31.5327 27.2246 30.3956 27.2246 29.1431C27.2246 27.9566 27.9003 26.7041 29.5318 26.7041C30.8337 26.7041 31.806 27.8412 31.806 29.0937Z" fill="#A3ACB5"/>
<path d="M30.9157 29.0771H31.1135C31.1135 28.5827 30.9816 28.0388 30.7179 27.5939C30.4543 27.1654 30.0588 26.8029 29.5149 26.8029C29.0041 26.8029 28.5756 27.083 28.3119 27.5115C28.0482 27.94 27.8999 28.5332 27.8999 29.2089C27.8999 29.6868 28.0482 30.2307 28.2954 30.6591C28.5591 31.1041 28.9546 31.4666 29.4984 31.4666C30.0093 31.4666 30.4213 31.1865 30.7015 30.758C30.9651 30.3295 31.1135 29.7363 31.1135 29.0771H30.9157H30.7179C30.7179 29.6868 30.5861 30.1977 30.3719 30.5438C30.1576 30.8898 29.8775 31.0711 29.4984 31.0711C29.1524 31.0711 28.8557 30.8404 28.6415 30.4614C28.4108 30.0988 28.2954 29.6044 28.2954 29.1924C28.2954 28.5662 28.4273 28.0553 28.6415 27.7092C28.8557 27.3632 29.1359 27.1819 29.5149 27.1819C29.861 27.1819 30.1576 27.4126 30.3719 27.7916C30.5861 28.1707 30.7179 28.6651 30.7179 29.0771H30.9157ZM31.8056 29.0935H31.6078C31.6078 29.6539 31.443 30.2307 31.1135 30.6427C30.7674 31.0546 30.2565 31.3348 29.4984 31.3513C28.7404 31.3513 28.2295 31.0876 27.8999 30.6921C27.5703 30.2966 27.422 29.7363 27.422 29.1595C27.422 28.5992 27.5868 28.0224 27.9164 27.6104C28.2625 27.1984 28.7733 26.9182 29.5314 26.9182C30.7179 26.9182 31.6243 27.9729 31.6243 29.11H31.8056H32.0034C32.0034 27.7752 30.9487 26.5227 29.5314 26.5227C28.6745 26.5227 28.0153 26.8688 27.6198 27.3797C27.2078 27.874 27.043 28.5332 27.043 29.1595C27.043 29.8187 27.2078 30.4614 27.6198 30.9393C28.0318 31.4337 28.6745 31.7468 29.5149 31.7468C30.3719 31.7468 31.0311 31.4007 31.443 30.9063C31.855 30.3954 32.0363 29.7527 32.0363 29.11H31.8056V29.0935Z" fill="#A3ACB5"/>
<path d="M34.0805 30.6262C34.0805 30.9229 34.3112 30.9723 34.8221 31.0877L35.0033 31.2195L34.855 31.3678C34.5089 31.3678 34.1464 31.3184 33.7838 31.3184C33.3883 31.3184 32.9763 31.3678 32.5808 31.3678L32.416 31.236L32.6632 31.0877C33.0917 30.9723 33.2894 30.9393 33.2894 30.2307V24.7594C33.2894 24.5122 32.7291 24.4298 32.7291 24.3309L32.828 24.1991L33.7674 23.8695L33.9981 23.8201L34.1134 24.0508C34.1134 24.3309 34.0969 24.5946 34.0969 24.8913V30.6262H34.0805Z" fill="#A3ACB5"/>
<path d="M34.08 30.6262H33.8822C33.8657 30.824 33.9976 31.0217 34.1624 31.0877C34.3272 31.1701 34.5085 31.2195 34.7557 31.2854L34.8051 31.1041L34.6897 31.2689L34.871 31.3843L34.9864 31.2195L34.838 31.0877L34.6897 31.2525L34.838 31.3843V31.1865C34.5085 31.1865 34.1459 31.1371 33.7669 31.1371C33.3549 31.1371 32.9429 31.1865 32.5639 31.1865V31.3843L32.6792 31.236L32.5144 31.1041L32.3991 31.2689L32.4979 31.4337L32.7451 31.2854L32.6462 31.1206L32.6957 31.3019C32.8934 31.236 33.0912 31.203 33.256 31.0382C33.4208 30.8569 33.4538 30.6262 33.4538 30.2637V24.7594C33.4538 24.6111 33.3714 24.5122 33.3054 24.4463L32.9594 24.2485L32.8605 24.1991H32.844L32.7946 24.2815L32.8605 24.2321L32.844 24.2156L32.7946 24.298L32.8605 24.2485L32.7286 24.3474H32.8934L32.8605 24.2485L32.7286 24.3474H32.8934H32.6957L32.8605 24.4628L32.9099 24.3804L33.7833 24.0673L33.8493 24.0508L33.8822 24.1497L34.0635 24.0673H33.9152C33.9152 24.3309 33.8987 24.6111 33.8987 24.9077V30.6262H34.08H34.2777V24.9077C34.2777 24.6276 34.2942 24.3474 34.2942 24.0673V24.0343L34.1624 23.7706L34.0965 23.6223L33.7009 23.7047H33.6845L32.7286 24.0343L32.6627 24.0508L32.5309 24.2321L32.4979 24.2815V24.3474L32.5968 24.5287L32.9429 24.6935L33.0418 24.7594L33.0582 24.7759H33.0747H33.0912V30.2637C33.0912 30.5933 33.0253 30.7251 32.9923 30.7745C32.9429 30.824 32.8275 30.8734 32.6133 30.9229H32.5803L32.3167 31.0877L32.0859 31.236L32.4815 31.5326L32.5309 31.5656H32.5968C33.0088 31.5656 33.4043 31.5161 33.7998 31.5161C34.1294 31.5161 34.492 31.5656 34.871 31.5656H34.9534L35.1512 31.3513L35.2995 31.1865L34.9534 30.9393L34.9204 30.9229H34.8875C34.6403 30.8569 34.4425 30.8075 34.3766 30.7745L34.3107 30.6427H34.08V30.6262Z" fill="#A3ACB5"/>
<path d="M39.3544 29.0772C39.3544 28.1708 38.8271 26.9843 37.9536 26.9843C37.0802 26.9843 36.5364 27.8906 36.5364 29.1925C36.5364 30.066 37.0637 31.269 37.9372 31.269C38.8271 31.2525 39.3544 30.3461 39.3544 29.0772ZM40.2443 29.0937C40.2443 30.2802 39.5687 31.5327 37.9372 31.5327C36.3222 31.5327 35.6465 30.3956 35.6465 29.1431C35.6465 27.9566 36.3222 26.7041 37.9701 26.7041C39.2555 26.7041 40.2443 27.8412 40.2443 29.0937Z" fill="#A3ACB5"/>
<path d="M39.353 29.0771H39.5507C39.5507 28.5827 39.4024 28.0388 39.1387 27.5939C38.875 27.1654 38.4795 26.8029 37.9357 26.8029C37.4248 26.8029 37.0128 27.083 36.7327 27.5115C36.469 27.94 36.3207 28.5332 36.3207 29.2089C36.3207 29.6868 36.4525 30.2307 36.7162 30.6591C36.9799 31.1041 37.3754 31.4666 37.9192 31.4666C38.4301 31.4666 38.8421 31.1865 39.1222 30.758C39.3859 30.3295 39.5342 29.7363 39.5342 29.0771H39.353H39.1552C39.1552 29.6868 39.0234 30.1977 38.8091 30.5438C38.5949 30.8898 38.3147 31.0711 37.9357 31.0711C37.5896 31.0711 37.293 30.8404 37.0788 30.4614C36.8645 30.0988 36.7327 29.6044 36.7327 29.1924C36.7327 28.5662 36.8645 28.0553 37.0788 27.7092C37.293 27.3632 37.5731 27.1819 37.9522 27.1819C38.2983 27.1819 38.5949 27.4126 38.8091 27.7916C39.0234 28.1707 39.1552 28.6651 39.1552 29.0771H39.353ZM40.2429 29.0935H40.0451C40.0451 29.6539 39.8803 30.2307 39.5507 30.6427C39.2046 31.0546 38.6938 31.3348 37.9357 31.3513C37.1776 31.3513 36.6668 31.0876 36.3372 30.6921C36.0076 30.2966 35.8428 29.7363 35.8428 29.1595C35.8428 28.5992 36.0076 28.0224 36.3372 27.6104C36.6832 27.1984 37.1776 26.9182 37.9522 26.9182C39.1222 26.9182 40.0286 27.9729 40.0286 29.11H40.2429H40.4406C40.4406 27.7752 39.3859 26.5227 37.9687 26.5227C37.0952 26.5227 36.4525 26.8688 36.0405 27.3797C35.6285 27.874 35.4473 28.5332 35.4473 29.1595C35.4473 29.8187 35.6121 30.4614 36.0241 30.9393C36.436 31.4337 37.0623 31.7468 37.9192 31.7468C38.7762 31.7468 39.4353 31.4007 39.8309 30.9063C40.2429 30.3954 40.4241 29.7527 40.4241 29.11H40.2429V29.0935Z" fill="#A3ACB5"/>
<path d="M43.3578 26.9019C42.5338 26.9019 42.402 27.6434 42.402 28.2202C42.402 28.7476 42.4679 29.7364 43.3413 29.7364C44.1489 29.7364 44.3466 29.1266 44.3466 28.385C44.3466 27.7918 44.2312 26.9019 43.3578 26.9019ZM42.6986 33.5267C44.7256 33.5267 45.1212 32.6203 45.1212 32.2743C45.1212 31.5656 44.2972 31.4832 43.0282 31.4832C42.5833 31.4832 42.369 31.4997 42.2866 31.5492C41.9241 31.7634 41.3967 32.3567 41.3967 32.6203C41.3967 33.2136 41.99 33.5267 42.6986 33.5267ZM45.22 27.7094C45.1541 27.7094 45.0882 27.7918 45.0882 28.2532C45.0882 28.4345 45.0882 29.8353 43.3084 29.9506C43.0612 29.9671 42.1383 29.9506 42.1383 30.4285C42.1383 30.6922 42.2866 30.7746 43.4402 30.7746C44.6762 30.7746 45.632 30.9394 45.632 32.06C45.632 33.5432 43.2425 33.9058 42.5338 33.9058C41.0671 33.9058 40.6387 33.2466 40.6387 32.7851C40.6387 32.0106 41.4791 31.681 42.1383 31.3679C41.9406 31.2525 41.2319 30.7416 41.2319 30.478C41.2319 30.1154 42.2702 29.9012 42.4844 29.8682C41.9076 29.4562 41.5615 29.0607 41.5615 28.3356C41.5615 27.3963 42.2866 26.7371 43.2919 26.7371C43.7039 26.7371 44.0005 26.8524 44.2972 27.0007C44.5938 27.1491 44.9234 27.2644 45.3848 27.2644H45.8792L45.9616 27.561C45.9616 27.7423 45.9287 27.7588 45.7474 27.7588H45.22V27.7094Z" fill="#A3ACB5"/>
<path d="M43.3584 26.9019V26.7041C42.8805 26.7041 42.5509 26.9348 42.4026 27.2479C42.2378 27.5446 42.2049 27.9071 42.2049 28.2038C42.2049 28.4839 42.2213 28.8794 42.3532 29.242C42.485 29.6045 42.8146 29.9341 43.342 29.9177C43.8034 29.9177 44.133 29.7364 44.3143 29.4233C44.4955 29.1266 44.545 28.7476 44.545 28.3686C44.545 28.0554 44.512 27.6599 44.3637 27.3303C44.2154 26.9843 43.8693 26.7041 43.3749 26.7041V26.9019V27.0996C43.7375 27.0996 43.9023 27.2644 44.0176 27.4951C44.133 27.7423 44.1659 28.0884 44.1659 28.3686C44.1659 28.7146 44.1165 29.0278 44.0011 29.2255C43.8693 29.4233 43.721 29.5386 43.3584 29.5386C42.9959 29.5386 42.864 29.3738 42.7322 29.0937C42.6168 28.83 42.6004 28.4674 42.6004 28.2038C42.6004 27.9236 42.6333 27.627 42.7487 27.4292C42.864 27.2315 43.0124 27.0996 43.3749 27.0831V26.9019H43.3584ZM42.6992 33.5267V33.7245C43.7375 33.7245 44.3802 33.4938 44.7922 33.1971C45.1877 32.884 45.3195 32.5215 45.3195 32.2743C45.336 31.8293 45.0064 31.5327 44.6109 31.4338C44.1989 31.302 43.6715 31.2855 43.0288 31.2855C42.5674 31.2855 42.3861 31.2855 42.2049 31.3679C41.9906 31.4997 41.7599 31.6975 41.5786 31.9282C41.3973 32.1589 41.2325 32.3567 41.2161 32.6039C41.2161 32.9829 41.3974 33.2795 41.694 33.4608C41.9741 33.6421 42.3367 33.7245 42.7157 33.7245V33.5267V33.329C42.3861 33.329 42.0895 33.2466 41.8917 33.1312C41.694 32.9994 41.5951 32.8511 41.5951 32.6039C41.5786 32.5874 41.694 32.3731 41.8588 32.1754C42.0236 31.9776 42.2378 31.7799 42.3861 31.6975C42.4356 31.681 42.6498 31.6645 43.0288 31.6645C43.6551 31.6645 44.1824 31.6975 44.4955 31.7964C44.8251 31.9117 44.924 32.0106 44.9405 32.2743C44.9405 32.4885 44.6933 33.329 42.7157 33.3455V33.5267H42.6992ZM45.2206 27.7094V27.5116L45.0394 27.5775C44.9075 27.7423 44.9075 27.8742 44.9075 28.2367C44.9075 28.3191 44.9075 28.6652 44.7098 29.0113C44.512 29.3409 44.1495 29.6705 43.309 29.7364C43.1936 29.7364 42.897 29.7364 42.6004 29.8023C42.4521 29.8353 42.3202 29.8847 42.1884 29.9836C42.0565 30.066 41.9577 30.2308 41.9577 30.4121L42.0401 30.6757C42.1554 30.824 42.3037 30.857 42.518 30.89C42.7322 30.9229 43.0288 30.9394 43.4738 30.9394C44.0835 30.9394 44.6109 30.9888 44.9405 31.1536C45.2701 31.3184 45.4514 31.5327 45.4514 32.0271C45.4514 32.6533 44.957 33.0653 44.2978 33.329C43.6551 33.5927 42.8805 33.6751 42.5509 33.6751C41.1337 33.6586 40.8535 33.0653 40.8535 32.7522C40.8535 32.4391 41.0183 32.2248 41.282 32.0271C41.5457 31.8293 41.9082 31.6645 42.2543 31.5162L42.5839 31.3679L42.2708 31.1866C42.1719 31.1372 41.9577 30.9724 41.7764 30.824L41.5292 30.5933L41.4633 30.4945V30.4615V30.445C41.4962 30.3791 41.7434 30.2473 41.9741 30.1813C42.2213 30.0989 42.4685 30.0495 42.5344 30.033L42.9959 29.9506L42.6168 29.6869C42.0565 29.2749 41.7764 28.9618 41.7764 28.3026C41.7764 27.4787 42.3861 26.9019 43.309 26.8854C43.688 26.8854 43.9352 26.9843 44.2319 27.1326C44.545 27.2809 44.9075 27.4127 45.4019 27.4127H45.748L45.7809 27.5611L45.9622 27.5116H45.7645V27.5775L45.8469 27.594L45.7809 27.5611L45.7645 27.594L45.8469 27.6105L45.7809 27.5611L45.8798 27.627L45.8304 27.5281L45.7809 27.5611L45.8798 27.627L45.8304 27.5281L45.8633 27.594L45.8469 27.5281H45.8304L45.8633 27.594L45.8469 27.5281H45.7645H45.2371V27.7094V27.9071H45.7645L46.0611 27.8247L46.16 27.5116V27.4787L46.0611 27.1655L46.0281 27.0337H45.4019C44.9734 27.0337 44.6768 26.9183 44.3967 26.7865C44.0835 26.6382 43.7539 26.5063 43.309 26.5063C42.7487 26.5063 42.2708 26.6876 41.9247 27.0172C41.5786 27.3303 41.3809 27.7918 41.3809 28.3191C41.3644 29.1266 41.8093 29.6045 42.3861 30.0165L42.5015 29.8517L42.4685 29.654C42.3532 29.6705 42.0401 29.7364 41.7434 29.8517C41.5951 29.9012 41.4468 29.9836 41.3149 30.066C41.1996 30.1484 41.0678 30.2802 41.0678 30.4615C41.0678 30.6098 41.1502 30.7087 41.2326 30.824C41.4633 31.1207 41.8917 31.4173 42.073 31.5162L42.1719 31.3514L42.0895 31.1701C41.7599 31.3349 41.3809 31.4832 41.0513 31.7304C40.7382 31.9612 40.458 32.3072 40.458 32.7687C40.458 33.0488 40.5898 33.3949 40.9359 33.6586C41.2655 33.9222 41.7929 34.087 42.5509 34.087C42.93 34.087 43.721 34.0046 44.4461 33.708C45.1547 33.4279 45.8469 32.917 45.8469 32.0436C45.8633 31.4338 45.5502 31.0053 45.1053 30.8076C44.6603 30.6098 44.1 30.5604 43.4738 30.5604C42.897 30.5604 42.5674 30.5274 42.4356 30.4945L42.3696 30.478V30.4285L42.4356 30.3132C42.6004 30.1649 43.1607 30.1484 43.3584 30.1484C44.2978 30.0825 44.8251 29.6705 45.0723 29.2255C45.3195 28.797 45.3195 28.3521 45.3195 28.2697C45.3195 28.0554 45.336 27.9236 45.3525 27.8906V27.8742L45.2701 27.8247L45.3195 27.9071L45.3525 27.8742L45.2701 27.8247L45.3195 27.9071L45.2536 27.8082V27.9401L45.3195 27.9236L45.2536 27.8247V27.9566V27.7094H45.2206Z" fill="#A3ACB5"/>
<path d="M48.9607 30.2473L49.0596 30.3956L49.1914 30.2473L49.966 28.5004C50.0978 28.2038 50.2461 27.8247 50.2461 27.5446C50.2461 27.1491 49.5375 27.2644 49.5375 27.0172C49.5375 26.9348 49.6199 26.8854 49.7517 26.8854C49.8012 26.8854 49.9001 26.9183 50.4109 26.9183C50.8888 26.9183 51.0042 26.8854 51.1031 26.8854C51.2679 26.8854 51.3668 26.9348 51.3668 27.0172C51.3668 27.215 50.9383 27.1326 50.757 27.561L48.3839 33.1147C48.1532 33.6256 47.9884 33.8893 47.4775 33.8893C47.0161 33.8893 46.8678 33.6256 46.8678 33.4114C46.8678 33.1147 47.0656 32.9829 47.3457 32.9829C47.5435 32.9829 47.6918 33.0818 47.8236 33.0818C48.0543 33.0818 48.5652 31.681 48.5652 31.5492C48.5652 31.3679 48.4828 31.2196 48.4169 31.0383L47.148 27.5116C47.0491 27.2479 46.5547 27.2315 46.5547 27.0337C46.5547 26.9348 46.6206 26.8689 46.8019 26.8689C47.0491 26.8689 47.3292 26.9019 47.6094 26.9019C47.8895 26.9019 48.1697 26.8689 48.5323 26.8689C48.7135 26.8689 48.763 26.9183 48.763 27.0337C48.763 27.1985 48.0049 27.1326 48.0049 27.4622L48.0708 27.7258L48.9607 30.2473Z" fill="#A3ACB5"/>
<path d="M48.9613 30.2471L48.7965 30.3625L48.8954 30.5108L49.0437 30.725L49.3239 30.379L49.3404 30.3625L50.1314 28.5827C50.2632 28.2696 50.428 27.8905 50.428 27.5444C50.4445 27.3797 50.3456 27.2478 50.2468 27.1654C50.082 27.0665 49.9172 27.0336 49.8018 27.0006L49.6864 26.9677L49.67 27.0006L49.6864 26.9841V26.9677L49.67 27.0006L49.6864 26.9841L49.6205 27.0336H49.7029L49.6864 26.9841L49.6205 27.0336L49.67 27.0995L49.7029 27.0336H49.6205L49.67 27.0995H49.7359C49.7359 27.0995 49.9007 27.116 50.3951 27.116C50.873 27.116 51.0213 27.0995 51.0872 27.0995L51.2026 27.116L51.2191 27.0665L51.1861 27.0995L51.2026 27.116L51.2191 27.0665L51.1861 27.0995L51.2685 27.0336H51.1696L51.1861 27.0995L51.2685 27.0336H51.1696H51.252L51.1861 26.9841L51.1696 27.0336H51.252L51.1861 26.9841L51.2191 27.0006L51.2026 26.9677L51.1861 26.9841L51.2191 27.0006L51.2026 26.9677C51.1696 27.0006 50.7576 27.083 50.5763 27.495L48.2033 33.0487C48.1044 33.2959 48.0055 33.4772 47.9066 33.576C47.8078 33.6584 47.7089 33.7244 47.4946 33.7244C47.2969 33.7244 47.198 33.6749 47.1486 33.6255L47.0662 33.4442L47.1321 33.2629L47.3463 33.2135C47.4946 33.197 47.5935 33.2959 47.8242 33.3124L48.0549 33.1805C48.2197 32.9993 48.3681 32.6532 48.5164 32.3236C48.5823 32.1588 48.6317 31.994 48.6812 31.8622L48.7636 31.5655C48.7636 31.3183 48.6647 31.1535 48.6153 31.0052L47.3463 27.4785C47.2474 27.2478 47.0497 27.1819 46.9179 27.0995L46.7695 27.0171H46.7531L46.6871 27.0501H46.7695L46.7531 27.0171L46.6871 27.0501H46.7695H46.7036L46.7366 27.0995L46.7695 27.0501H46.7036L46.7366 27.0995H46.7531H46.8355C47.0826 27.0995 47.3463 27.116 47.643 27.116C47.9396 27.116 48.2197 27.0995 48.5658 27.0995H48.6482L48.6977 27.0336L48.6153 27.0665L48.6482 27.116L48.6977 27.0501L48.6153 27.083L48.6482 27.0665H48.6153V27.083L48.6482 27.0665H48.6153V27.083H48.7471L48.6647 26.9841L48.6153 27.083H48.7471L48.6647 26.9841C48.6317 27.0006 48.4505 27.0336 48.2857 27.083L48.0385 27.2149L47.8737 27.528V27.5609L47.9561 27.8411V27.8576L48.8295 30.4119L48.846 30.4284L48.9613 30.2471L49.1426 30.1812L48.2857 27.6598L48.2197 27.4126L48.0385 27.462H48.2362L48.3186 27.4126L48.6482 27.3302L48.8295 27.2643L48.9943 27.0171L48.8789 26.7369L48.5658 26.6545C48.1868 26.6545 47.9066 26.6875 47.643 26.6875C47.3793 26.6875 47.1156 26.6545 46.8355 26.6545L46.5223 26.7369L46.374 27.0171C46.374 27.1654 46.4729 27.2478 46.5388 27.2973L46.8519 27.462L46.9838 27.5609L48.2527 31.0876C48.3186 31.2689 48.3845 31.4172 48.3845 31.5326C48.3681 31.6314 48.2362 32.0105 48.0879 32.3565C48.022 32.5213 47.9396 32.6697 47.8737 32.785L47.7913 32.9004V32.9169L47.8572 33.0157V32.9169L47.7913 32.9333L47.8572 33.0322V32.9333C47.8242 32.9498 47.6594 32.8345 47.3793 32.8345C47.2145 32.8345 47.0497 32.8674 46.9179 32.9828C46.786 33.0981 46.7036 33.2629 46.7201 33.4607C46.7201 33.609 46.7695 33.7903 46.9014 33.9221C47.0497 34.054 47.2474 34.1364 47.5111 34.1364C47.7913 34.1364 48.0385 34.054 48.2033 33.8892C48.3681 33.7244 48.4669 33.5101 48.5823 33.2465L50.9554 27.6928C51.0213 27.528 51.1202 27.4785 51.2355 27.4291L51.4333 27.3467L51.5981 27.083L51.4168 26.8193L51.1367 26.7699C51.0048 26.7699 50.9224 26.8029 50.4445 26.8029C49.9336 26.8029 49.8677 26.7864 49.7853 26.7699L49.5216 26.8358L49.3733 27.0995C49.3733 27.2808 49.5216 27.3632 49.604 27.4126L49.9996 27.528L50.0984 27.6268C50.0984 27.8411 49.9666 28.2201 49.8348 28.5168L49.0767 30.2307L48.9613 30.3625L49.1097 30.4779L49.2745 30.3625L49.1591 30.2142L48.9613 30.2471Z" fill="#A3ACB5"/>
<path d="M59.937 25.7152L59.8051 25.8306L59.6733 25.7647C59.3107 24.8913 59.6568 24.5781 57.6133 24.5781C56.9706 24.5781 56.8388 24.677 56.8388 25.0396V27.0171C56.8388 27.3962 56.9047 27.4456 57.6792 27.4456C57.91 27.4456 58.1077 27.3962 58.3384 27.3797C59.1624 27.2808 58.8328 26.3085 59.2448 26.3085C59.3107 26.3085 59.3766 26.325 59.3766 26.5063C59.3766 26.8359 59.3437 27.149 59.3437 27.4786C59.3437 27.7917 59.3766 28.4838 59.3766 28.6816L59.2613 28.8629C59.113 28.8629 59.08 28.731 58.9482 28.2202C58.8658 27.8906 58.7834 27.7423 57.5639 27.7423C56.9706 27.7423 56.8223 27.7752 56.8223 28.0554V30.2966C56.8223 30.791 56.9541 30.8569 57.6792 30.9558C57.91 30.9888 58.1571 30.9723 58.1571 31.1536C58.1736 31.2689 58.1077 31.3184 57.8605 31.3184C57.6792 31.3184 57.432 31.2689 56.4103 31.2689C55.9159 31.2689 55.438 31.3184 55.0754 31.3184C54.8777 31.3184 54.7129 31.3019 54.7129 31.1536C54.7129 31.0382 54.7623 31.0217 55.4215 30.9393C55.7017 30.9064 55.8005 30.7581 55.8005 30V25.0725C55.8005 24.6441 55.7511 24.6111 55.4545 24.5287C55.026 24.4133 54.7788 24.5122 54.7788 24.3145C54.7788 24.1826 54.9106 24.1661 55.3391 24.1661C55.5863 24.1661 55.8994 24.1661 56.229 24.1826C56.5586 24.1826 56.9047 24.1991 57.2013 24.1991C58.0418 24.1991 59.2448 24.1497 59.6403 24.1497L59.8875 24.265V25.7152H59.937Z" fill="#A3ACB5"/>
<path d="M59.937 25.7152L59.8052 25.5669L59.7887 25.5834H59.7722L59.6733 25.7482L59.8546 25.6658C59.6733 25.2703 59.6898 24.9572 59.3932 24.677C59.0965 24.4133 58.6351 24.3639 57.6134 24.3474C57.2838 24.3474 57.0695 24.3639 56.8883 24.4793C56.6905 24.5946 56.6411 24.8253 56.6575 25.0231V27.0007L56.674 27.2808C56.7235 27.4291 56.8718 27.561 57.0366 27.5775C57.2014 27.6104 57.3991 27.6269 57.6958 27.6269C57.943 27.6269 58.1407 27.5775 58.3714 27.561H58.3879C58.8988 27.5115 59.0965 27.116 59.1625 26.8523L59.2449 26.5228L59.2613 26.4898V26.4568L59.2449 26.4898H59.2613V26.4568L59.2449 26.4898L59.2778 26.4074L59.1954 26.4404L59.2613 26.4898L59.2943 26.4074L59.2119 26.4404L59.2284 26.4239H59.2119L59.2284 26.4074H59.2119V26.4733C59.2119 26.8029 59.1954 27.116 59.1954 27.4456C59.1954 27.7587 59.2119 28.4509 59.2119 28.6486H59.4096L59.2449 28.5498L59.1295 28.731L59.2943 28.8299V28.6322L59.2778 28.6816L59.3108 28.6486L59.2943 28.6322L59.2778 28.6816L59.3108 28.6486C59.2943 28.6486 59.2284 28.4674 59.1625 28.1378C59.1295 27.973 59.0306 27.7423 58.7834 27.6434C58.5362 27.5445 58.2066 27.5115 57.5969 27.5115C57.3002 27.5115 57.1025 27.5115 56.9377 27.5775L56.7235 27.7587L56.674 28.0224V30.2637C56.674 30.5109 56.707 30.7416 56.9047 30.8899C57.086 31.0217 57.3167 31.0547 57.6793 31.1206L57.9924 31.1536L58.0253 31.17L58.0418 31.1371L58.0089 31.1536L58.0253 31.17L58.0418 31.1371H57.9924L58.0089 31.1536L58.0418 31.1371H57.9924V31.1536H58.0418L57.9924 31.1206V31.1536H58.0418L57.9924 31.1206L58.0583 31.1536L58.0089 31.0876L57.9924 31.1206L58.0583 31.1536L58.0089 31.0876L58.0253 31.1041V31.0876L58.0418 31.1041V31.0876L57.91 31.1041C57.7452 31.1041 57.4815 31.0547 56.4598 31.0547C55.9489 31.0547 55.471 31.1041 55.1249 31.1041L54.9272 31.0876H54.9107L54.8777 31.1371H54.9272L54.9107 31.0876L54.8777 31.1371H54.9272L54.8448 31.1865L54.9107 31.2854L54.9601 31.2195L54.8448 31.1865L54.9107 31.2854C54.9272 31.2689 55.1249 31.236 55.504 31.1865C55.6688 31.17 55.883 31.0712 55.9489 30.8734C56.0313 30.6921 56.0478 30.4449 56.0478 30.0494V25.122C56.0478 24.9077 56.0478 24.7594 55.9489 24.6111C55.85 24.4628 55.7017 24.4298 55.5534 24.3804C55.3227 24.3145 55.1249 24.3145 55.026 24.298L54.9766 24.2815L54.9272 24.3639L55.0096 24.3145L54.9766 24.2815L54.9272 24.3639L55.0096 24.3145L54.9436 24.3474L55.0096 24.3309V24.3145L54.9436 24.3474L55.0096 24.3309H54.9272L54.9931 24.3804L55.0096 24.3309H54.9272L54.9766 24.3969L54.9931 24.3804L54.9272 24.3309L54.9766 24.3969H54.9931C55.0425 24.3804 55.1744 24.3804 55.3886 24.3804C55.6358 24.3804 55.9489 24.3804 56.2785 24.3969C56.5916 24.3969 56.9542 24.4133 57.2508 24.4133C58.0913 24.4133 59.2943 24.3639 59.6898 24.3639V24.1661L59.6074 24.3474L59.7392 24.4133V25.7152H59.937H60.1348V24.2815V24.1661L59.7722 24.0013L59.7392 23.9849H59.6898C59.2778 23.9849 58.0748 24.0343 57.2508 24.0343C56.9542 24.0343 56.6081 24.0178 56.2785 24.0178C55.9489 24.0013 55.6358 24.0013 55.3721 24.0013C55.1579 24.0013 55.0096 24.0013 54.8777 24.0343L54.6965 24.1332L54.6141 24.3474L54.7459 24.6111L55.0755 24.6935L55.438 24.7594C55.5864 24.7924 55.6193 24.8253 55.6193 24.8253C55.6193 24.8253 55.6523 24.9242 55.6523 25.122V30.0494C55.6523 30.412 55.6193 30.6262 55.5864 30.7086L55.438 30.8075C55.1084 30.8405 54.9272 30.8734 54.7953 30.9064L54.6141 31.0217L54.5481 31.2195C54.5317 31.3843 54.68 31.5161 54.7953 31.5326L55.1249 31.5656C55.504 31.5656 55.9654 31.5161 56.4598 31.5161C57.4815 31.5161 57.6793 31.5656 57.91 31.5656L58.2231 31.4996L58.3879 31.2195V31.17L58.1901 31.1865H58.3879L58.2725 30.9393C58.0748 30.7745 57.8935 30.824 57.7287 30.791C57.3662 30.7416 57.1684 30.6921 57.119 30.6427C57.0695 30.6097 57.0366 30.5603 57.0366 30.3131V28.0719L57.053 27.9895L57.1684 27.9565C57.2673 27.94 57.3991 27.94 57.5969 27.94C58.1901 27.94 58.5033 27.973 58.6351 28.0389C58.7505 28.1048 58.734 28.1048 58.7999 28.2696C58.8658 28.5168 58.8988 28.6816 58.9647 28.8134L59.0965 28.9947L59.3108 29.0606H59.4261L59.5909 28.7805L59.6239 28.731V28.6816C59.6239 28.4674 59.6074 27.7752 59.6074 27.4786C59.6074 27.1655 59.6239 26.8359 59.6239 26.5063L59.5415 26.2261L59.3108 26.1272C59.113 26.1272 58.9812 26.292 58.9317 26.4074C58.8658 26.5887 58.8329 26.7864 58.7669 26.9347C58.701 27.0831 58.6351 27.1655 58.3879 27.1984C58.1242 27.2149 57.9265 27.2643 57.7287 27.2643C57.3332 27.2643 57.1354 27.2479 57.1025 27.2149V27.1984L57.086 27.0336V25.056C57.086 24.8748 57.1025 24.8748 57.1354 24.8418C57.1684 24.8089 57.3497 24.7759 57.6628 24.7759C58.6681 24.7759 59.0636 24.8748 59.1954 25.0066C59.3437 25.1055 59.3602 25.3856 59.558 25.8636L59.5744 25.9295L59.7557 26.0284L59.8876 26.0943L60.1183 25.88L60.1842 25.8306V25.7482H59.937V25.7152Z" fill="#A3ACB5"/>
<path d="M63.1004 29.3407C63.1004 28.9617 63.018 28.9287 62.9356 28.9287C62.8861 28.9287 61.4689 29.2583 61.4689 30.2636C61.4689 30.5602 61.6831 30.8898 62.0951 30.8898C62.8202 30.8898 63.0839 30.2636 63.0839 29.8516V29.3407H63.1004ZM63.8584 30.379C63.8584 30.5438 63.9079 30.758 64.2375 30.758C64.5671 30.758 64.5671 30.5273 64.7319 30.5273L64.8637 30.6262C64.8637 30.7415 64.5506 31.3348 63.8914 31.3348C63.3805 31.3348 63.1169 30.9558 63.0015 30.791C62.5401 31.137 62.2929 31.4502 61.5183 31.4502C61.0569 31.4502 60.6119 31.1865 60.6119 30.5932C60.6119 29.4067 62.1281 28.9782 62.2105 28.9452C62.5895 28.7969 62.8367 28.7145 63.0674 28.6486L63.1169 28.3025C63.1169 27.6104 63.1004 27.1489 62.3753 27.1489C61.1558 27.1489 61.6007 28.5003 60.8262 28.5003C60.5955 28.5003 60.5625 28.352 60.5625 28.2201C60.5625 27.9894 61.337 26.7864 62.7378 26.7864C63.8584 26.7864 63.8584 27.528 63.8584 27.8081V30.379Z" fill="#A3ACB5"/>
<path d="M63.1012 29.3409H63.299C63.299 29.1431 63.2825 29.0113 63.2166 28.8959L62.9364 28.7311L62.8211 28.7476C62.6563 28.797 62.2772 28.8959 61.9477 29.1266C61.6016 29.3574 61.272 29.7199 61.272 30.2637C61.272 30.4615 61.3379 30.6593 61.4862 30.8076C61.6181 30.9724 61.8488 31.0877 62.096 31.0877C62.5244 31.0877 62.8376 30.9065 63.0188 30.6428C63.2166 30.3956 63.2825 30.1154 63.2825 29.8517V29.3244H63.1012H62.92V29.8517C62.92 30.0165 62.854 30.2308 62.7387 30.3956C62.6068 30.5604 62.4256 30.6757 62.1125 30.6757C61.8158 30.6757 61.684 30.445 61.684 30.2308C61.684 29.8188 61.9641 29.5386 62.2937 29.3409C62.4585 29.242 62.6233 29.1761 62.7716 29.1431L62.9364 29.0937L62.9694 29.0772H62.9859L62.9694 28.9454V29.0772H62.9859L62.9694 28.9454V29.0772V29.0442L62.9364 29.1102L62.9694 29.1266V29.0442L62.9035 29.0937L62.9364 29.1102L62.9694 29.0442L62.9035 29.0937C62.92 29.1102 62.9364 29.1926 62.9364 29.3409H63.1012ZM63.8593 30.3791H63.6615L63.7604 30.7417C63.8593 30.8735 64.0241 30.9394 64.2218 30.9394C64.4196 30.9394 64.5844 30.857 64.6668 30.7911L64.7327 30.7252V30.5274L64.6009 30.6757L64.7327 30.7911L64.8646 30.6428H64.6668H64.7492L64.6833 30.6263V30.6428H64.7657L64.6998 30.6263L64.4855 30.9229C64.3537 31.0548 64.1559 31.1536 63.9087 31.1536C63.5132 31.1536 63.299 30.8735 63.1672 30.6922L63.0353 30.5439L62.887 30.6593C62.4091 31.0218 62.2443 31.269 61.5192 31.269C61.1237 31.2525 60.827 31.0877 60.8106 30.5933C60.8106 30.0989 61.1237 29.7364 61.4862 29.4892C61.8488 29.242 62.2278 29.1431 62.2772 29.1102C62.6728 28.9618 62.9035 28.8794 63.1177 28.8135L63.2495 28.7806L63.3319 28.3026V28.2862V28.2697C63.3319 27.9236 63.3319 27.6105 63.2166 27.3468C63.0847 27.0667 62.7881 26.9019 62.3926 26.9183C62.063 26.9183 61.7993 27.0172 61.6181 27.182C61.3544 27.4127 61.272 27.7423 61.1731 27.973L61.0248 28.2038L60.8435 28.2697L60.7941 28.2532L60.7776 28.1708C60.7776 28.1214 60.9754 27.7588 61.3049 27.4787C61.651 27.1985 62.1289 26.9348 62.7552 26.9348C63.266 26.9348 63.4638 27.0996 63.5627 27.2479C63.6615 27.4127 63.678 27.627 63.678 27.7588V30.3297H63.8593H64.0571V27.7588C64.0571 27.6105 64.0571 27.3139 63.8923 27.0337C63.711 26.7535 63.3484 26.5393 62.7552 26.5393C61.9971 26.5393 61.4038 26.8689 61.0248 27.215C60.827 27.3798 60.6787 27.5775 60.5798 27.7259C60.481 27.8907 60.415 28.006 60.415 28.1543L60.4974 28.451C60.5634 28.5663 60.7282 28.6322 60.8765 28.6158C61.1237 28.6158 61.3379 28.4839 61.4368 28.3191C61.6016 28.0719 61.651 27.7918 61.7829 27.594C61.9147 27.3963 62.0301 27.2644 62.442 27.2644C62.7716 27.2809 62.854 27.3468 62.92 27.4622C62.9859 27.594 63.0024 27.8742 63.0024 28.2202H63.2001L63.0024 28.1873L62.9529 28.5334L63.1342 28.5663L63.0848 28.385C62.8211 28.451 62.5904 28.5498 62.1948 28.6817C62.1619 28.6982 61.7334 28.8135 61.3214 29.0937C60.9094 29.3573 60.4645 29.8353 60.4645 30.5109C60.4645 30.857 60.5963 31.1372 60.8106 31.3184C61.0248 31.4997 61.2885 31.5656 61.5521 31.5656C62.3926 31.5821 62.7222 31.2031 63.1672 30.8735L63.0353 30.7252L62.887 30.857C63.0024 31.0053 63.3155 31.4668 63.9417 31.4668C64.3372 31.4668 64.6338 31.2855 64.8151 31.1042L65.0294 30.824L65.1118 30.5769V30.478L64.914 30.3132L64.8646 30.2637H64.7327C64.5514 30.2637 64.4526 30.3956 64.4031 30.4285L64.2218 30.4945L64.0735 30.445L64.0406 30.3132H63.8593V30.3791Z" fill="#A3ACB5"/>
<path d="M65.2598 30.4943C65.2598 30.2636 65.2762 30.1318 65.3916 30.1318L65.5729 30.4284C65.6058 30.5108 65.9189 31.2194 66.5946 31.2194C67.056 31.2194 67.534 30.9887 67.534 30.4284C67.534 29.3902 65.3257 29.4067 65.3257 28.0388C65.3257 27.3796 65.7212 26.6875 66.7759 26.6875C68.0119 26.6875 68.0284 26.8688 68.0284 27.3961C68.0284 27.8576 68.0119 27.94 67.9295 27.94C67.5834 27.94 67.6988 27.0171 66.7759 27.0171C66.3309 27.0171 66.0178 27.2808 66.0178 27.7257C66.0178 28.5992 68.3415 28.9452 68.3415 30.1483C68.3415 30.725 67.9624 31.5161 66.71 31.5161C66.3639 31.5161 65.2762 31.4666 65.2762 31.0546V30.4943H65.2598Z" fill="#A3ACB5"/>
<path d="M65.2603 30.4943H65.458L65.4745 30.2801L65.4086 30.2471V30.3295L65.4745 30.2801L65.4086 30.2471V30.3295V30.1318L65.2438 30.2307L65.4251 30.5273L65.5899 30.4284L65.4086 30.4943C65.4251 30.5602 65.5239 30.758 65.7217 30.9722C65.903 31.1865 66.1996 31.4007 66.6116 31.4007C66.8753 31.4007 67.1389 31.3348 67.3697 31.1865C67.5839 31.0217 67.7487 30.758 67.7487 30.4284C67.7487 30.0823 67.5674 29.8351 67.3367 29.6539C66.9906 29.3737 66.5127 29.1924 66.1502 28.9617C65.7876 28.7145 65.5404 28.4673 65.5404 28.0553C65.5404 27.7587 65.6228 27.4785 65.8206 27.2643C66.0183 27.0501 66.315 26.9017 66.7929 26.9017C67.4026 26.9017 67.6993 26.9677 67.7652 27.0336L67.8311 27.1325L67.8476 27.4291C67.8476 27.6598 67.8476 27.7916 67.8311 27.8246V27.8411L67.93 27.8905L67.864 27.7916L67.8146 27.8411L67.9135 27.8905V27.7752L67.8476 27.7916L67.9135 27.8905V27.7752V27.7916L67.93 27.7752H67.9135V27.7916L67.93 27.7752C67.897 27.7752 67.8146 27.5444 67.6663 27.3137C67.518 27.083 67.2213 26.8523 66.7599 26.8523C66.4962 26.8523 66.2655 26.9347 66.0842 27.083C65.9194 27.2478 65.8041 27.4785 65.8041 27.7587C65.8041 28.0718 66.0018 28.3025 66.249 28.5003C66.5951 28.7804 67.0895 29.0112 67.485 29.2913C67.8805 29.5715 68.1442 29.8516 68.1442 30.1977C68.1442 30.4449 68.0618 30.7415 67.8476 30.9722C67.6333 31.203 67.2873 31.3678 66.694 31.3842C66.5292 31.3842 66.1831 31.3678 65.8865 31.3183C65.7382 31.2854 65.6063 31.2524 65.5404 31.203L65.458 31.1206V30.5438H65.2603H65.0625V31.1206C65.0625 31.3183 65.1943 31.4666 65.3427 31.5326C65.7546 31.7633 66.4303 31.7633 66.694 31.7798C67.3697 31.7798 67.8311 31.5655 68.1277 31.2524C68.4244 30.9393 68.5232 30.5438 68.5232 30.2142C68.5232 29.8516 68.342 29.555 68.1112 29.3078C67.7487 28.9617 67.2543 28.698 66.8423 28.4508C66.6445 28.3355 66.4633 28.2036 66.3644 28.0883L66.1996 27.7752C66.2161 27.4291 66.3974 27.2808 66.7599 27.2643C67.1554 27.2808 67.2543 27.4291 67.3861 27.6268L67.5509 27.94C67.6169 28.0388 67.7322 28.1707 67.9135 28.1707L68.1112 28.0883L68.2101 27.8246C68.2266 27.7422 68.2266 27.6104 68.2266 27.4456L68.1936 27.0665C68.1607 26.8853 68.0124 26.6875 67.7652 26.6216C67.5509 26.5557 67.2378 26.5227 66.7599 26.5227C66.1996 26.5227 65.7711 26.7205 65.491 27.0171C65.2273 27.3137 65.1119 27.7092 65.1119 28.0718C65.1119 28.4673 65.2767 28.7804 65.5075 29.0111C65.8535 29.3572 66.3314 29.555 66.7105 29.7692C66.8917 29.8681 67.0565 29.9835 67.1554 30.0823C67.2543 30.1977 67.3037 30.2966 67.3037 30.4449C67.3037 30.6591 67.2213 30.791 67.0895 30.8898C66.9577 30.9887 66.7599 31.0382 66.5622 31.0382C66.2985 31.0382 66.1007 30.8898 65.9689 30.7415C65.8206 30.5767 65.7382 30.3955 65.7382 30.379L65.7217 30.3625L65.5239 30.0494L65.458 29.9505H65.3921C65.2438 29.934 65.0955 30.0823 65.0955 30.1812L65.0625 30.5108H65.2603V30.4943Z" fill="#A3ACB5"/>
<path d="M70.9124 27.4291C70.5828 27.4291 70.5498 27.528 70.5498 27.8905C70.5498 28.5168 70.5169 29.4891 70.5169 30.1483C70.5169 30.6262 70.6981 30.9063 71.3244 30.9063C71.8188 30.9063 71.8188 30.7745 72.033 30.7745L72.1648 30.8899C72.1648 31.0052 71.8188 31.4172 70.9783 31.4172C70.1049 31.4172 69.6929 31.0876 69.6929 30.2142C69.6929 29.4067 69.7094 28.5992 69.7094 27.6928C69.7094 27.528 69.6599 27.495 69.4622 27.495H69.1985L69.0996 27.3961C69.0996 27.2149 69.6599 27.116 69.9566 26.7864C70.4015 26.292 70.3026 26.0942 70.4839 26.0942L70.6322 26.3085V26.7369C70.6322 26.8523 70.6652 26.8853 70.8135 26.8853H72.0824C72.1978 26.8853 72.2967 26.9182 72.2967 27.1489C72.2967 27.2973 72.2802 27.3961 72.0989 27.3961H70.9124V27.4291Z" fill="#A3ACB5"/>
<path d="M70.9121 27.429V27.2312C70.7473 27.2312 70.5661 27.2477 70.4507 27.4125C70.3518 27.5608 70.3683 27.7091 70.3518 27.8904C70.3518 28.5166 70.3189 29.489 70.3189 30.1481C70.3189 30.4118 70.3683 30.659 70.5496 30.8403C70.7309 31.0216 70.9945 31.104 71.3241 31.104C71.5878 31.104 71.7361 31.071 71.835 31.0381L72.0328 30.9886V30.7909L71.9009 30.9392L72.0328 31.0545L72.1646 30.9062H71.9833H72.0492L71.9998 30.8733V30.9062H72.0657L72.0163 30.8733C71.9998 30.9392 71.7032 31.2358 71.011 31.2358C70.5825 31.2358 70.3189 31.1534 70.1705 31.0051C70.0058 30.8733 69.9234 30.6261 69.9234 30.2141C69.9234 29.4066 69.9563 28.599 69.9563 27.6927L69.8245 27.3795L69.5114 27.2971H69.3301L69.2971 27.2642L69.1488 27.396H69.3466H69.2642L69.3301 27.4455L69.3466 27.396H69.2642L69.3301 27.4455L69.3466 27.429C69.4619 27.3301 69.8739 27.2147 70.1376 26.9181C70.3683 26.6544 70.4672 26.4732 70.5331 26.3413L70.5661 26.2754L70.5825 26.2589L70.5166 26.2095L70.5496 26.2754L70.5825 26.2424L70.5166 26.193L70.5496 26.2589L70.5001 26.2424V26.3084H70.5331L70.5001 26.2424V26.3084V26.1106L70.3353 26.2095L70.4507 26.3908V26.7698L70.5496 27.0335L70.8297 27.1159H72.0987H72.1316L72.1481 27.0664L72.1151 27.0994L72.1481 27.1159L72.1646 27.0664L72.1316 27.0994V27.1159L72.1481 27.1983V27.2807V27.2971L72.1975 27.3301L72.1646 27.2807L72.1316 27.3136L72.1811 27.3466L72.1481 27.2971V27.2312H72.1151H70.9451V27.429V27.6267H72.1151L72.4447 27.4619L72.5107 27.1818L72.3788 26.8192L72.0987 26.7204H70.8297H70.7803L70.7638 26.7698L70.7968 26.7204L70.7803 26.7039L70.7638 26.7533L70.7968 26.7039L70.7473 26.7863L70.8462 26.7533L70.7968 26.7039L70.7473 26.7863L70.8462 26.7533V26.7368V26.3084V26.2589L70.6814 25.9952L70.6155 25.9128H70.5001L70.2694 26.0117L70.1211 26.2589C70.0717 26.3578 69.9893 26.4732 69.841 26.6544C69.7256 26.7863 69.5443 26.8851 69.363 26.9675L69.1158 27.0994C69.0334 27.1488 68.9346 27.2312 68.9346 27.3795V27.4619L69.0829 27.6103L69.1488 27.6597H69.4949H69.5938H69.6102L69.6267 27.6103L69.5938 27.6432H69.6102L69.6267 27.5938L69.5938 27.6267L69.6267 27.5608L69.5443 27.5773L69.5773 27.6103L69.6102 27.5443L69.5278 27.5608L69.5443 27.6103C69.5443 28.5166 69.5114 29.3242 69.5114 30.1317C69.5114 30.5931 69.6267 30.9557 69.8904 31.2029C70.1541 31.45 70.5331 31.5324 70.9945 31.5324C71.456 31.5324 71.7856 31.4171 72.0163 31.2853L72.2799 31.071L72.3953 30.8073V30.7249L72.1975 30.5437L72.1316 30.4942H72.0492C71.9009 30.4942 71.802 30.5437 71.7196 30.5601C71.6372 30.5931 71.5548 30.6096 71.3241 30.6096C71.044 30.6096 70.8957 30.5437 70.8297 30.4777C70.7638 30.3953 70.7144 30.2635 70.7144 30.0493C70.7144 29.4066 70.7473 28.4342 70.7473 27.7915V27.5938L70.7638 27.5443L70.9121 27.5279V27.429Z" fill="#A3ACB5"/>
<path d="M76.927 25.7812L76.894 25.9295C76.894 26.0778 80.2559 26.1767 80.2559 28.6981C80.2559 31.1371 77.4873 31.9611 76.6798 31.9611C76.4821 31.9611 76.4326 31.8952 76.4326 31.8292L76.548 31.6809C76.6469 31.6644 76.8776 31.6315 77.1742 31.5326C78.3937 31.1536 79.4649 30.3131 79.4649 28.9123C79.4649 28.1213 79.2506 27.5939 78.2619 27.116C77.2566 26.6546 76.4326 26.5392 76.4326 26.3744C76.4326 26.2096 76.8776 24.9407 76.927 24.7594C76.9764 24.5946 77.0259 24.5781 77.4379 24.5287L79.366 24.3309C79.5143 24.3145 79.5638 24.2815 79.6297 24.2815C79.778 24.2815 79.8439 24.298 79.8439 24.4628C79.8439 24.6111 79.8439 24.9572 79.5802 24.9901L77.1907 25.3362C77.0424 25.3527 77.0259 25.4351 77.0094 25.501L76.927 25.7812Z" fill="#A3ACB5"/>
<path d="M76.9276 25.7812L76.7299 25.7482L76.7134 25.8965V25.913V25.9295L76.7958 26.0943L77.0759 26.1932C77.455 26.2756 78.213 26.4074 78.8722 26.7864C79.5314 27.1655 80.0752 27.7093 80.0752 28.6981C80.0752 29.8352 79.4325 30.5933 78.6745 31.0876C77.9164 31.5656 77.043 31.7798 76.6804 31.7633H76.598H76.5815L76.5486 31.8292L76.598 31.7963L76.5651 31.7798L76.5321 31.8457L76.5815 31.8128L76.5156 31.8622H76.6145L76.598 31.8128L76.5321 31.8622H76.631H76.4332L76.5815 31.9776L76.6969 31.8292L76.5486 31.7139L76.5815 31.9116C76.6804 31.8952 76.9276 31.8457 77.2243 31.7468C78.4932 31.3678 79.6468 30.4449 79.6468 28.9453C79.6468 28.5333 79.5973 28.1542 79.3996 27.8246C79.2018 27.4951 78.8557 27.2149 78.3449 26.9677C77.834 26.737 77.3561 26.5722 77.0265 26.4733C76.8617 26.4239 76.7299 26.3744 76.6475 26.3415L76.5815 26.3085L76.5486 26.358L76.598 26.325L76.5815 26.3085L76.5486 26.358L76.598 26.325L76.4827 26.3909H76.6145L76.598 26.325L76.4827 26.3909H76.6145H76.598H76.631C76.6475 26.325 76.7463 25.946 76.8617 25.6164C76.9771 25.2703 77.0924 24.9242 77.1254 24.8253L77.1419 24.7924L77.1089 24.7759L77.1254 24.7924L77.1419 24.7759L77.1089 24.7594L77.1254 24.7759C77.1254 24.7759 77.2407 24.7429 77.4714 24.7264L79.3996 24.5287H79.4161C79.5809 24.5122 79.6138 24.4957 79.6633 24.4957H79.7292L79.7621 24.4133L79.6797 24.4628L79.7292 24.5122L79.7621 24.4298L79.6797 24.4793L79.7127 24.4628H79.6797V24.4793L79.7127 24.4628H79.6797V24.4957L79.6633 24.7429L79.5809 24.8418L77.1913 25.1714L76.9276 25.3032L76.8452 25.4845L77.043 25.534L76.8617 25.468L76.7628 25.7317V25.7482V25.7647L76.9276 25.7812L77.1089 25.8471L77.2078 25.5834L77.2243 25.534L77.1748 25.501L77.2078 25.5504L77.2243 25.534L77.1748 25.501L77.2078 25.5504L77.2407 25.534L79.6138 25.2044C79.8445 25.1714 79.9764 24.9901 80.0093 24.8418C80.0588 24.6935 80.0588 24.5617 80.0588 24.4793L79.9269 24.1826L79.6468 24.1167C79.5314 24.1167 79.4985 24.1332 79.3501 24.1497L79.3831 24.3474L79.3666 24.1497L77.4385 24.3474C77.2407 24.3639 77.1089 24.3804 76.9935 24.4298L76.7628 24.71L76.9441 24.7594L76.7628 24.6935C76.7299 24.7759 76.598 25.1549 76.4827 25.5175C76.4167 25.6988 76.3673 25.88 76.3179 26.0284C76.2849 26.1767 76.252 26.2755 76.252 26.3744L76.3673 26.5887C76.5321 26.704 76.7463 26.7535 77.0595 26.8523C77.3726 26.9512 77.7846 27.0831 78.1966 27.2808C78.6745 27.4951 78.9381 27.7258 79.0865 27.973C79.2348 28.2202 79.2842 28.5168 79.2842 28.8958C79.2842 30.1813 78.3119 30.9723 77.1254 31.3348C76.8287 31.4337 76.631 31.4667 76.5156 31.4832L76.4497 31.4996L76.2849 31.7139L76.252 31.7633V31.8292L76.4003 32.0929L76.6969 32.1588C77.1583 32.1588 78.0647 31.9446 78.8887 31.4008C79.7127 30.8734 80.4708 29.9835 80.4543 28.6816C80.4543 27.3138 79.5314 26.5887 78.658 26.2261C78.213 26.0448 77.7846 25.9295 77.455 25.8636C77.3067 25.8141 77.1583 25.7976 77.0759 25.7812L76.9935 25.7647L76.9606 25.8306L77.01 25.7647L76.9935 25.7482L76.9606 25.8141L77.01 25.7482L76.9276 25.913H77.0924L77.0265 25.7647L76.9276 25.913H77.0924H76.8947L77.0924 25.946L77.1089 25.7976L76.9276 25.7812Z" fill="#A3ACB5"/>
<path d="M85.8582 27.9236C85.8582 26.3416 85.3968 24.5288 84.3256 24.5288C83.2379 24.5288 82.7765 26.3416 82.7765 27.9236C82.7765 29.5057 83.2215 31.3185 84.3256 31.3185C85.3968 31.302 85.8582 29.4892 85.8582 27.9236ZM81.8701 27.9236C81.8701 25.5176 83.1226 24.2981 84.3256 24.2981C85.7429 24.2981 86.7646 25.8142 86.7646 27.9236C86.7646 30.2308 85.5121 31.5492 84.3256 31.5492C82.9083 31.5327 81.8701 30.2308 81.8701 27.9236Z" fill="#A3ACB5"/>
<path d="M85.8586 27.9234H86.0563C86.0563 27.1159 85.941 26.2589 85.6773 25.5668C85.4301 24.8911 84.9852 24.3473 84.326 24.3473C83.6503 24.3473 83.2218 24.9076 82.9581 25.5668C82.6945 26.2589 82.5791 27.1159 82.5791 27.9234C82.5791 28.7309 82.6945 29.6043 82.9581 30.28C83.2053 30.9557 83.6503 31.4995 84.326 31.4995C84.9852 31.4995 85.4301 30.9557 85.6773 30.28C85.941 29.6043 86.0563 28.7309 86.0563 27.9234H85.8586H85.6608C85.6608 28.698 85.5455 29.5219 85.3147 30.1317C85.0675 30.7579 84.738 31.1205 84.326 31.1205C83.8975 31.1205 83.5679 30.7744 83.3207 30.1482C83.09 29.5384 82.9746 28.698 82.9746 27.9399C82.9746 27.1653 83.09 26.3413 83.3207 25.7316C83.5679 25.1054 83.8975 24.7428 84.326 24.7428C84.738 24.7428 85.084 25.0889 85.3147 25.7316C85.5455 26.3413 85.6608 27.1818 85.6608 27.9399H85.8586V27.9234ZM81.8705 27.9234H82.0682C82.0682 25.5833 83.2713 24.4956 84.326 24.4956C84.9522 24.4956 85.5125 24.8252 85.9245 25.435C86.3365 26.0447 86.5837 26.9017 86.5837 27.9234C86.5837 29.044 86.287 29.901 85.8421 30.4778C85.4136 31.0546 84.8533 31.3512 84.326 31.3512C83.6833 31.3512 83.1229 31.0546 82.7274 30.4943C82.3154 29.9175 82.0682 29.044 82.0682 27.9234H81.8705H81.6727C81.6727 29.11 81.9364 30.0493 82.3978 30.7085C82.8593 31.3677 83.5514 31.7302 84.3095 31.7302C85.6608 31.7138 86.9462 30.28 86.9462 27.9234C86.9462 26.8357 86.6826 25.8964 86.2211 25.2042C85.7597 24.5121 85.084 24.1001 84.3095 24.1001C83.6503 24.1001 82.9746 24.4462 82.4802 25.0889C81.9858 25.7316 81.6562 26.6874 81.6562 27.9234H81.8705Z" fill="#A3ACB5"/>
<path d="M91.7087 27.9236C91.7087 26.3416 91.2472 24.5288 90.1596 24.5288C89.0719 24.5288 88.6105 26.3416 88.6105 27.9236C88.6105 29.5057 89.0719 31.3185 90.1596 31.3185C91.2472 31.302 91.7087 29.4892 91.7087 27.9236ZM87.7041 27.9236C87.7041 25.5176 88.9566 24.2981 90.1596 24.2981C91.5768 24.2981 92.615 25.8142 92.615 27.9236C92.615 30.2308 91.3626 31.5492 90.1596 31.5492C88.7423 31.5327 87.7041 30.2308 87.7041 27.9236Z" fill="#A3ACB5"/>
<path d="M91.709 27.9234H91.8903C91.8903 27.1159 91.775 26.2589 91.5113 25.5668C91.2641 24.8911 90.8191 24.3473 90.1599 24.3473C89.4843 24.3473 89.0558 24.9076 88.8086 25.5668C88.5449 26.2589 88.4296 27.1159 88.4296 27.9234C88.4296 28.7309 88.5449 29.6043 88.8086 30.28C89.0558 30.9557 89.5008 31.4995 90.1599 31.4995C90.8356 31.4995 91.2641 30.9557 91.5113 30.28C91.775 29.6043 91.8903 28.7309 91.8903 27.9234H91.709H91.5113C91.5113 28.698 91.3959 29.5219 91.1652 30.1317C90.918 30.7579 90.5884 31.1205 90.1599 31.104C89.748 31.104 89.4019 30.7415 89.1547 30.1317C88.924 29.5219 88.8086 28.6815 88.8086 27.9234C88.8086 27.1489 88.924 26.3249 89.1547 25.7151C89.4019 25.0889 89.7315 24.7263 90.1599 24.7263C90.5719 24.7263 90.918 25.0724 91.1652 25.7151C91.3959 26.3249 91.5113 27.1653 91.5113 27.9234H91.709ZM87.7045 27.9234H87.8858C87.9022 25.5833 89.1053 24.4956 90.1435 24.4956C90.7697 24.4956 91.33 24.8252 91.742 25.435C92.154 26.0447 92.4012 26.9017 92.4012 27.9234C92.4012 29.044 92.1046 29.901 91.6596 30.4778C91.2311 31.0546 90.6708 31.3512 90.1435 31.3512C89.5008 31.3512 88.9405 31.0546 88.5449 30.4943C88.1329 29.9175 87.8858 29.044 87.8858 27.9234H87.7045H87.5067C87.5067 29.11 87.7704 30.0493 88.2318 30.7085C88.6933 31.3677 89.3854 31.7302 90.1435 31.7302C91.4948 31.7138 92.7802 30.28 92.7967 27.9234C92.7967 26.8357 92.533 25.8964 92.0716 25.2042C91.6102 24.5121 90.9345 24.1001 90.1435 24.1001C89.4843 24.1001 88.8086 24.4462 88.3142 25.0889C87.8198 25.7316 87.4902 26.6874 87.4902 27.9234H87.7045Z" fill="#A3ACB5"/>
<path d="M94.9066 24.6277H95.055L95.2198 24.4629C95.2692 24.4629 95.2692 24.5782 95.2692 24.7266C95.2692 24.8914 95.2692 25.0891 95.2033 25.0891L95.0879 24.8584C95.0714 24.8254 94.9231 24.7595 94.5441 24.7595C94.3958 24.7595 94.3793 24.776 94.3793 24.9902V26.4899C94.3793 26.6712 94.4287 26.6877 94.5935 26.7206L94.7913 26.7865L94.7089 26.836C94.5935 26.836 94.3958 26.8195 94.231 26.8195C94.0827 26.8195 93.9014 26.836 93.7036 26.836L93.6377 26.803L93.8519 26.7206C94.0167 26.6877 94.0497 26.6382 94.0497 26.4075V24.9243C94.0497 24.776 94.0167 24.7595 93.7201 24.7595C93.374 24.7595 93.2422 25.1221 93.1598 25.1221L93.1104 25.0726L93.2587 24.6277L93.3575 24.4629L93.4894 24.6112C93.6707 24.6277 93.8519 24.6442 94.0332 24.6442H94.9066V24.6277Z" fill="#A3ACB5"/>
<path d="M94.9071 24.6276L94.9236 24.8253H95.0719H95.1543L95.385 24.6111L95.2532 24.4793V24.677V24.5122L95.1214 24.5946L95.2532 24.6605V24.4957L95.1214 24.5781L95.1708 24.5452L95.1049 24.5617L95.1214 24.5781L95.1708 24.5452L95.1049 24.5617V24.7265L95.0884 24.9572V24.9901L95.1873 25.0396L95.1049 24.9572L95.0719 24.9901L95.1708 25.0396L95.0884 24.9572L95.2038 25.0725V24.9077L95.0884 24.9572L95.2038 25.0725V24.9077V25.1055L95.3686 25.0231L95.2532 24.7924V24.7759L95.006 24.6276C94.9071 24.6111 94.7588 24.5781 94.5611 24.5781L94.2644 24.677L94.1985 25.0066V26.5063L94.2974 26.8194L94.5775 26.9347L94.6105 26.737L94.5446 26.9183L94.7423 26.9842L94.8083 26.8029L94.7094 26.6381L94.627 26.6875L94.7259 26.8523V26.6546C94.627 26.6546 94.4292 26.6381 94.2479 26.6381C94.0831 26.6381 93.9019 26.6546 93.7206 26.6546V26.8523L93.8195 26.6875L93.7535 26.6546L93.6547 26.8194L93.7206 27.0007L93.9348 26.9183L93.8689 26.737L93.9019 26.9183L94.1985 26.7535L94.2809 26.4239V24.9407L94.2644 24.7924L94.0337 24.5946L93.7535 24.5781C93.5064 24.5781 93.3416 24.71 93.2427 24.8253L93.1273 24.9572L93.1108 24.9736L93.1932 25.089V24.9242L93.1108 24.9572L93.1932 25.0725V24.9242V25.122L93.3416 24.9901L93.3086 24.9407L93.1603 25.0725L93.3416 25.1384L93.4899 24.71L93.5723 24.5617L93.4075 24.4628L93.2592 24.5946L93.4075 24.7429L93.4569 24.7924H93.5228C93.7206 24.8089 93.9019 24.8253 94.0996 24.8253H94.9236L94.9071 24.6276V24.4298H94.0831C93.9019 24.4298 93.7206 24.4298 93.5558 24.4133L93.5228 24.6111L93.6711 24.4793L93.5228 24.3309L93.358 24.1497L93.1273 24.5287L93.1108 24.5452L92.946 25.0231L92.9131 25.122L93.0284 25.2538L93.0944 25.3197H93.1768C93.3416 25.2868 93.358 25.2208 93.391 25.1879L93.7371 24.9407H93.9019H93.9348L93.9678 24.8253L93.8689 24.8583L93.9348 24.9242L93.9678 24.8088L93.8689 24.8418L93.9019 24.8253H93.8689V24.8418L93.9019 24.8253H93.8689V24.8748V26.358V26.4568V26.4733L93.9019 26.4898L93.8854 26.4568L93.8689 26.4733L93.9019 26.4898L93.8854 26.4568L93.8195 26.4733H93.803L93.5723 26.5557L93.1932 26.704L93.6217 26.9347L93.6711 26.9677H93.7206C93.9184 26.9677 94.0996 26.9512 94.2479 26.9512C94.3963 26.9512 94.6105 26.9677 94.7259 26.9677H94.7753L94.9071 26.8853L95.2697 26.6711L94.6764 26.4733H94.6599H94.6435L94.5775 26.4568L94.5446 26.5228L94.6105 26.4898L94.5775 26.4568L94.5446 26.5228L94.6105 26.4898V26.4404V24.9407V24.8418V24.8253L94.4951 24.7924L94.5281 24.8912L94.594 24.8253L94.4787 24.7924L94.5116 24.8912H94.5281H94.5775C94.7588 24.8912 94.8742 24.9077 94.9401 24.9242L94.9895 24.9407L95.039 24.8583L94.9566 24.9077L94.9895 24.9407L95.039 24.8583L94.9566 24.9077L95.1214 24.7924L94.9566 24.8748L95.0719 25.1055L95.1214 25.2208H95.2532L95.4674 25.0725C95.5169 24.9242 95.5169 24.7924 95.5169 24.6605L95.5004 24.4298L95.4674 24.298L95.2697 24.1826H95.1873L95.0225 24.3474H94.9401L94.9071 24.6276Z" fill="#A3ACB5"/>
<path d="M96.3572 25.7317L96.0111 25.0231C95.9782 25.0231 95.9782 25.3856 95.9782 25.5834V26.5887L96.1924 26.704C96.3407 26.737 96.3901 26.737 96.3901 26.7699L96.2913 26.8194L95.8793 26.8029L95.4673 26.8194L95.4014 26.7699L95.5167 26.704C95.665 26.6875 95.7639 26.6381 95.7639 26.5722L95.8793 24.9736V24.8088C95.8793 24.7264 95.8463 24.7264 95.6486 24.6605L95.4838 24.5946L95.5826 24.5452L95.8298 24.5616L96.1265 24.5452L96.1924 24.5781L96.9175 26.1767L96.9505 26.1931L96.9834 26.1767L97.6426 24.6935L97.758 24.5452L98.0546 24.5616L98.3512 24.5452L98.4007 24.5946L98.2194 24.677C98.0052 24.71 97.9557 24.71 97.9557 24.9736V26.5063C97.9557 26.6546 98.0052 26.6875 98.2359 26.7205L98.3677 26.7864L98.2029 26.8359C98.0381 26.8359 97.9722 26.8194 97.8898 26.8194C97.7085 26.8194 97.5437 26.8359 97.3954 26.8359L97.2965 26.7699L97.4284 26.7205C97.5932 26.6875 97.6261 26.6711 97.6261 26.5722V25.2373L97.5932 25.1384L97.5602 25.1549L96.8845 26.737L96.8351 26.7699L96.6868 26.5392L96.3572 25.7317Z" fill="#A3ACB5"/>
<path d="M96.3573 25.7318L96.5386 25.6494L96.209 24.9408L96.1431 24.8254H96.0277L95.8629 24.9243L95.83 25.0891C95.8135 25.221 95.8135 25.4352 95.8135 25.5835V26.5888V26.7041L96.1266 26.8854L96.1596 26.9019H96.1925L96.3408 26.9184L96.3738 26.8195L96.3079 26.9019L96.3573 26.9349L96.3903 26.836L96.3244 26.9184L96.4397 26.803H96.2749L96.3244 26.9184L96.4397 26.803H96.2749H96.4727L96.3903 26.6217L96.3244 26.6547L95.9618 26.6382H95.9453L95.5828 26.6547L95.5663 26.6382L95.4509 26.803L95.5498 26.9678L95.6652 26.9019L95.5663 26.7371L95.5828 26.9349L95.83 26.8689L95.9948 26.6217H95.797L95.9948 26.6382L96.1266 25.0397V25.0232V24.8584L95.9783 24.6112L95.7476 24.5288L95.6981 24.7101L95.7805 24.5288L95.6157 24.4629L95.5333 24.6442L95.6322 24.809L95.6816 24.7925H95.8959H96.1431H96.1596L96.2584 24.6277L96.0772 24.7101L96.8352 26.3581L96.9176 26.4075L97.033 26.4734L97.1648 26.3581L97.1978 26.3251L97.8734 24.8254L97.9064 24.776H98.1042H98.4173V24.5782L98.2854 24.7266L98.3349 24.776L98.4667 24.6442L98.3843 24.4629L98.2195 24.5453L98.2854 24.7266L98.2525 24.5288L97.9394 24.6442L97.824 25.0067V26.5393L97.9558 26.836L98.269 26.9513L98.3019 26.7536L98.203 26.9184L98.3349 26.9843L98.4338 26.8195L98.3843 26.6382L98.2195 26.6877L98.269 26.8689V26.6712C98.1206 26.6712 98.0712 26.6547 97.9558 26.6547C97.7746 26.6547 97.5933 26.6712 97.4615 26.6712V26.8689L97.5603 26.7041L97.4615 26.6382L97.3461 26.803L97.412 26.9843L97.5603 26.9349L97.4944 26.7536L97.5274 26.9513L97.7581 26.8689L97.857 26.7206L97.8734 26.6053V25.2704V25.2374L97.8405 25.1221L97.7581 24.8584L97.5109 25.0397L97.4615 25.0726L96.7528 26.7041L96.9341 26.7865L96.8352 26.6217L96.7858 26.6547L96.8847 26.8195L97.0495 26.7206L96.9012 26.5064L96.5716 25.7318V25.7154L96.3573 25.7318L96.176 25.8142L96.5056 26.6053V26.6217L96.6704 26.8689L96.7693 27.0173L96.9835 26.9019L97.033 26.8689L97.7416 25.2374L97.5603 25.155L97.6757 25.3034L97.7086 25.2869L97.5768 25.1386L97.3955 25.2045L97.412 25.2704V26.5888V26.6053H97.4944L97.412 26.5558L97.3955 26.5888H97.4779L97.3955 26.5393L97.5109 26.6053L97.4285 26.5064L97.3955 26.5558L97.5109 26.6217L97.4285 26.5229L97.4779 26.5723L97.445 26.5064H97.4285L97.4779 26.5558L97.445 26.4899L97.3461 26.5064H97.3296L97.1813 26.5723L96.8352 26.7041L97.2472 26.9678L97.2967 27.0008H97.3626C97.5109 27.0008 97.6922 26.9843 97.857 26.9843C97.9064 26.9843 97.9888 27.0008 98.1701 27.0008H98.203L98.4008 26.9513L98.8622 26.8195L98.3019 26.5229L98.269 26.5064H98.236L98.1206 26.4734L98.0877 26.4569L98.0547 26.5229L98.1206 26.5064L98.1042 26.4734L98.0712 26.5393L98.1371 26.5229L98.1206 26.5393H98.1371L98.1206 26.5558H98.1371V26.5229V24.9902V24.8914L98.0712 24.8584L98.1206 24.9078L98.1371 24.8914L98.0712 24.8584L98.1206 24.9078L98.0877 24.8749L98.1206 24.9243L98.1371 24.9078L98.1042 24.8749L98.1371 24.9243L98.269 24.8914H98.2854L98.4832 24.809L98.7469 24.6936L98.4997 24.4629L98.4338 24.397L98.0547 24.4135L97.7581 24.397H97.6592L97.4944 24.6112L97.4779 24.6277L96.8023 26.1273L96.9835 26.2097L96.8682 26.0614L96.8352 26.0779L96.9671 26.2262L97.0659 26.0614L97.033 26.0449L96.9176 26.2097L97.0989 26.1273L96.3408 24.4629L96.209 24.397L96.1596 24.364L95.83 24.3805L95.5828 24.364H95.5333L95.4015 24.4299L95.0389 24.6277L95.5828 24.8584H95.5993H95.6157L95.7311 24.8914H95.764L95.8135 24.7925L95.7311 24.8419L95.764 24.8749L95.8135 24.776L95.7311 24.8254L95.83 24.7595L95.7146 24.776L95.7311 24.8254L95.83 24.7595L95.7146 24.776V24.9408L95.5828 26.5393H95.7146L95.6157 26.4569L95.5828 26.5393H95.7146L95.6157 26.4569L95.6487 26.4899L95.6157 26.4405L95.5993 26.4569L95.6322 26.4899L95.5993 26.4405L95.5004 26.4734H95.4674L95.3026 26.5558L95.0225 26.7206L95.3521 26.9349L95.4015 26.9678L95.8629 26.9513L96.2749 26.9678H96.3244L96.4727 26.9019L96.588 26.8525V26.7206L96.5221 26.5558C96.3738 26.4569 96.3408 26.4899 96.2255 26.4734L96.1925 26.6547L96.2914 26.4899L96.176 26.424V25.5835V25.2374L96.1925 25.1056V25.0891L96.0442 25.0562L96.176 25.1221L96.1925 25.0891L96.0442 25.0562L96.176 25.1221L96.0112 25.0232V25.2045L96.176 25.1056L96.0112 25.0067V25.188V24.9902L95.8464 25.0726L96.1925 25.7648L96.3573 25.7318Z" fill="#A3ACB5"/>
</svg>
