<svg width="50" height="50" viewBox="0 0 50 50" fill="none" xmlns="http://www.w3.org/2000/svg">
<path fill-rule="evenodd" clip-rule="evenodd" d="M8.32422 43.0137V7.60352V4.44531C8.32422 2.53125 9.95117 1 11.7695 1H37.9922C39.8105 1 41.4375 2.53125 41.4375 4.44531V7.60352V43.0137V46.5547C41.4375 48.4688 39.8105 50 37.9922 50H11.7695C9.95117 50 8.32422 48.4688 8.32422 46.5547V43.0137ZM9.47266 42.4395H40.2891V8.17773H9.47266V42.4395ZM28.0391 5.11523H21.7227C21.3398 5.11523 21.1484 4.92383 21.1484 4.54102C21.1484 4.25391 21.3398 3.9668 21.7227 3.9668H28.0391C28.4219 3.9668 28.6133 4.25391 28.6133 4.54102C28.6133 4.92383 28.4219 5.11523 28.0391 5.11523ZM28.0391 46.7461H21.7227C21.3398 46.7461 21.1484 46.5547 21.1484 46.1719C21.1484 45.8848 21.3398 45.5977 21.7227 45.5977H28.0391C28.4219 45.5977 28.6133 45.8848 28.6133 46.1719C28.6133 46.5547 28.4219 46.7461 28.0391 46.7461Z" fill="#A3ACB5"/>
<path fill-rule="evenodd" clip-rule="evenodd" d="M26.5082 39.5684H23.1586C22.1059 39.5684 21.2446 38.707 21.2446 37.5586V35.166C20.0961 34.7832 19.0434 34.1133 18.1821 33.3477L16.0766 34.5918C15.1196 35.166 13.8754 34.7832 13.3969 33.8262L11.6743 30.9551C11.1957 29.998 11.4829 28.8496 12.4399 28.2754L14.5454 27.127C14.4497 26.457 14.354 25.8828 14.354 25.3086C14.354 24.7344 14.4497 24.0645 14.5454 23.4902L12.4399 22.3418C11.9614 22.0547 11.6743 21.5762 11.4829 21.0977C11.3872 20.6191 11.4829 20.0449 11.6743 19.6621L13.3969 16.6953C13.9711 15.834 15.1196 15.4512 16.0766 16.0254L18.1821 17.2695C19.0434 16.4082 20.0961 15.834 21.2446 15.4512V13.0586C21.2446 11.9102 22.1059 11.0488 23.2543 11.0488H26.604C27.6567 11.0488 28.518 11.9102 28.518 12.9629V15.4512C29.6665 15.834 30.7192 16.4082 31.5805 17.1738L33.686 16.0254C34.1645 15.7383 34.643 15.6426 35.2172 15.834C35.6957 15.9297 36.0786 16.3125 36.3657 16.6953L38.0883 19.6621C38.5668 20.5234 38.2797 21.7676 37.3227 22.2461L35.2172 23.4902C35.3129 24.0645 35.4086 24.7344 35.4086 25.3086C35.4086 25.8828 35.3129 26.457 35.2172 27.127L37.3227 28.2754C37.8012 28.5625 38.0883 28.9453 38.2797 29.5195C38.3754 29.998 38.2797 30.4766 38.0883 30.9551L36.3657 33.8262C35.7915 34.7832 34.643 35.0703 33.686 34.5918L31.5805 33.3477C30.7192 34.1133 29.6665 34.7832 28.518 35.166V37.5586C28.518 38.707 27.6567 39.5684 26.5082 39.5684ZM31.102 25.8828H28.1352C28.0395 27.8926 27.6567 29.9023 26.8911 31.1465C29.1879 30.3809 30.8149 28.3711 31.102 25.8828ZM22.8715 31.1465C22.1059 29.8066 21.7231 27.8926 21.6274 25.8828H18.6606C18.9477 28.3711 20.5747 30.3809 22.8715 31.1465ZM18.6606 24.7344H21.6274C21.7231 22.7246 22.1059 20.7148 22.8715 19.4707C20.5747 20.2363 18.9477 22.2461 18.6606 24.7344ZM26.8911 19.4707C27.6567 20.7148 28.0395 22.7246 28.1352 24.7344H31.102C30.8149 22.2461 29.1879 20.2363 26.8911 19.4707ZM32.2504 25.2129V25.3086V25.4043C32.1547 29.4238 28.9008 32.6777 24.8813 32.6777C20.8618 32.6777 17.5122 29.3281 17.5122 25.3086C17.5122 21.1934 20.8618 17.9395 24.8813 17.9395C28.9008 17.9395 32.1547 21.1934 32.2504 25.2129ZM26.9868 25.8828H22.7758C22.8715 29.3281 24.02 31.5293 24.8813 31.5293C25.7426 31.5293 26.8911 29.3281 26.9868 25.8828ZM22.7758 24.7344H26.9868C26.8911 21.1934 25.7426 19.0879 24.8813 19.0879C24.02 19.0879 22.8715 21.1934 22.7758 24.7344Z" fill="#A3ACB5"/>
</svg>
