<svg width="50" height="50" viewBox="0 0 50 50" fill="none" xmlns="http://www.w3.org/2000/svg">
<g clip-path="url(#clip0_21426_27635)">
<g clip-path="url(#clip1_21426_27635)">
<g clip-path="url(#clip2_21426_27635)">
<path d="M16.1186 15.1656C17.5422 9.93486 22.2154 6.08203 27.8398 6.08203C34.5809 6.08203 39.9793 11.6617 39.9793 18.5213C39.9793 19.105 40.3408 19.735 40.9548 20.116C43.3212 21.5844 44.875 24.2296 44.875 27.2373C44.875 29.9196 43.6422 32.2811 41.7385 33.825L41.726 33.835C40.3307 34.9376 38.5707 35.5953 36.6858 35.5953H35.6152C35.0979 35.5953 34.7913 34.9255 34.9965 34.4506C35.196 33.9886 35.3066 33.4792 35.3066 32.944V28.2089C35.3066 28.1551 35.3503 28.1114 35.4041 28.1114H35.917C38.0173 28.1114 39.7199 26.4088 39.7199 24.3084C39.7199 22.2081 38.0173 20.5055 35.917 20.5055H35.4041C33.1036 20.5055 31.0387 21.5139 29.6271 23.1128V19.0481C29.6271 16.9478 27.9245 15.2451 25.8242 15.2451C23.7239 15.2451 22.0213 16.9478 22.0213 19.0481V23.1124C20.6098 21.5138 18.545 20.5055 16.2447 20.5055H15.7376C13.6373 20.5055 11.9347 22.2081 11.9347 24.3084C11.9347 26.4088 13.6373 28.1114 15.7376 28.1114H16.2447C16.2985 28.1114 16.3422 28.1551 16.3422 28.2089V32.944C16.3422 33.4792 16.4528 33.9886 16.6523 34.4506C16.8574 34.9255 16.5509 35.5953 16.0336 35.5953H14.901C13.5868 35.5953 11.9404 34.9839 10.5046 34.0424C7.72176 32.2577 5.875 29.095 5.875 25.5079C5.875 19.96 10.263 15.4205 15.7524 15.4205C15.9396 15.4205 16.0852 15.2884 16.1186 15.1656Z" fill="#A3ACB5"/>
<path d="M19.1704 40.3419C18.6319 40.3419 18.1953 39.9052 18.1953 39.3667V37.4165C18.1953 36.878 18.6319 36.4414 19.1704 36.4414H21.1206C21.6592 36.4414 22.0958 36.878 22.0958 37.4165V39.3667C22.0958 39.9052 21.6592 40.3419 21.1206 40.3419H19.1704Z" fill="#A3ACB5"/>
<path d="M33.4532 39.3667C33.4532 39.9052 33.0166 40.3419 32.4781 40.3419H30.5278C29.9893 40.3419 29.5527 39.9052 29.5527 39.3667V37.4165C29.5527 36.878 29.9893 36.4414 30.5278 36.4414H32.4781C33.0166 36.4414 33.4532 36.878 33.4532 37.4165V39.3667Z" fill="#A3ACB5"/>
<path d="M27.7754 43.691C27.7754 44.2295 27.3389 44.6661 26.8003 44.6661H24.8501C24.3116 44.6661 23.875 44.2295 23.875 43.691V41.7407C23.875 41.2022 24.3116 40.7656 24.8501 40.7656H26.8003C27.3389 40.7656 27.7754 41.2022 27.7754 41.7407V43.691Z" fill="#A3ACB5"/>
<path d="M25.8243 37.7087C25.1242 37.7087 24.5566 37.1412 24.5566 36.441V19.0489C24.5566 18.3488 25.1242 17.7812 25.8243 17.7812C26.5244 17.7812 27.0919 18.3488 27.0919 19.0489V36.441C27.0919 37.1412 26.5244 37.7087 25.8243 37.7087Z" fill="#A3ACB5"/>
<path d="M31.504 34.2099C30.8039 34.2099 30.2363 33.6424 30.2363 32.9422V28.2072C30.2363 25.3529 32.5502 23.0391 35.4044 23.0391H35.9174C36.6175 23.0391 37.185 23.6066 37.185 24.3067C37.185 25.0068 36.6175 25.5744 35.9174 25.5744H35.4044C33.9504 25.5744 32.7716 26.7531 32.7716 28.2072V32.9422C32.7716 33.6424 32.2041 34.2099 31.504 34.2099Z" fill="#A3ACB5"/>
<path d="M21.4135 32.9422C21.4135 33.6424 20.846 34.2099 20.1458 34.2099C19.4458 34.2099 18.8782 33.6424 18.8782 32.9422V28.2072C18.8782 26.7531 17.6995 25.5744 16.2454 25.5744H15.7383C15.0383 25.5744 14.4707 25.0068 14.4707 24.3067C14.4707 23.6066 15.0383 23.0391 15.7383 23.0391H16.2454C19.0997 23.0391 21.4135 25.3529 21.4135 28.2072V32.9422Z" fill="#A3ACB5"/>
</g>
</g>
</g>
<defs>
<clipPath id="clip0_21426_27635">
<rect width="40" height="40" fill="white" transform="translate(5 5)"/>
</clipPath>
<clipPath id="clip1_21426_27635">
<rect width="40" height="40" fill="white" transform="translate(5 5)"/>
</clipPath>
<clipPath id="clip2_21426_27635">
<rect width="40" height="40" fill="white" transform="translate(5 5)"/>
</clipPath>
</defs>
</svg>
