<svg width="50" height="50" viewBox="0 0 50 50" fill="none" xmlns="http://www.w3.org/2000/svg">
<g clip-path="url(#clip0_20742_37667)">
<path d="M25 25.7812C27.9124 25.7812 30.2734 23.4203 30.2734 20.5078C30.2734 17.5954 27.9124 15.2344 25 15.2344C22.0876 15.2344 19.7266 17.5954 19.7266 20.5078C19.7266 23.4203 22.0876 25.7812 25 25.7812Z" fill="#F5FAFE"/>
<path d="M40.2344 29.4922C42.8232 29.4922 44.9219 27.3935 44.9219 24.8047C44.9219 22.2159 42.8232 20.1172 40.2344 20.1172C37.6455 20.1172 35.5469 22.2159 35.5469 24.8047C35.5469 27.3935 37.6455 29.4922 40.2344 29.4922Z" fill="#F5FAFE"/>
<path d="M9.76562 29.4922C12.3545 29.4922 14.4531 27.3935 14.4531 24.8047C14.4531 22.2159 12.3545 20.1172 9.76562 20.1172C7.17679 20.1172 5.07812 22.2159 5.07812 24.8047C5.07812 27.3935 7.17679 29.4922 9.76562 29.4922Z" fill="#F5FAFE"/>
<path d="M12.6136 7.44898C9.72121 9.49338 7.37625 12.218 5.78544 15.3826C5.09794 16.5662 6.12919 18.2654 7.48466 18.2185C7.85386 18.2241 8.21724 18.1261 8.53349 17.9355C8.84975 17.7449 9.10621 17.4694 9.27372 17.1404C10.5766 14.5464 12.4977 12.3128 14.8675 10.6365C15.2704 10.33 15.5385 9.87905 15.6154 9.37871C15.6923 8.87837 15.5719 8.36772 15.2797 7.9544C14.9874 7.54108 14.5461 7.25738 14.0487 7.16309C13.5514 7.06881 13.0368 7.1713 12.6136 7.44898Z" fill="#F5FAFE"/>
<path d="M35.1319 10.6365C37.5017 12.3128 39.4228 14.5464 40.7257 17.1404C40.8932 17.4694 41.1496 17.7449 41.4659 17.9355C41.7822 18.1261 42.1455 18.2241 42.5147 18.2185C43.8702 18.2654 44.9015 16.5662 44.214 15.3826C42.6231 12.218 40.2782 9.49338 37.3858 7.44898C36.9626 7.1713 36.448 7.06881 35.9507 7.16309C35.4533 7.25738 35.012 7.54108 34.7197 7.9544C34.4275 8.36772 34.3071 8.87837 34.384 9.37871C34.4609 9.87905 34.729 10.33 35.1319 10.6365Z" fill="#F5FAFE"/>
<path d="M30.9727 8.97657C31.2837 8.9669 31.5787 8.83611 31.7947 8.61209C32.0107 8.38807 32.1306 8.08853 32.1289 7.77735V6.48047C32.1299 6.1695 32.0097 5.87036 31.7939 5.64649C31.578 5.42262 31.2835 5.29161 30.9727 5.28126H30.9453C30.8326 4.9187 30.6875 4.56702 30.5117 4.23047L30.5274 4.21094C30.7415 3.98519 30.8586 3.68446 30.8535 3.37333C30.8484 3.0622 30.7215 2.76548 30.5 2.54688L29.582 1.62891C29.3635 1.40745 29.0667 1.28054 28.7556 1.27542C28.4445 1.27031 28.1437 1.38741 27.918 1.60157L27.8985 1.61719C27.5619 1.44143 27.2102 1.29632 26.8477 1.1836V1.15626C26.8373 0.845447 26.7063 0.550892 26.4824 0.335042C26.2586 0.119193 25.9594 -0.000979021 25.6485 6.00808e-06H24.3516C24.0406 -0.000979021 23.7415 0.119193 23.5176 0.335042C23.2937 0.550892 23.1627 0.845447 23.1524 1.15626V1.1836C22.7898 1.29632 22.4381 1.44143 22.1016 1.61719L22.082 1.60157C21.8563 1.38741 21.5556 1.27031 21.2444 1.27542C20.9333 1.28054 20.6366 1.40745 20.418 1.62891L19.5 2.54688C19.2794 2.76592 19.153 3.06249 19.1479 3.37335C19.1428 3.68421 19.2594 3.98477 19.4727 4.21094L19.4883 4.23047C19.3125 4.56702 19.1674 4.9187 19.0547 5.28126H19.0274C18.7163 5.29093 18.4214 5.42172 18.2054 5.64574C17.9894 5.86976 17.8694 6.16929 17.8711 6.48047V7.77735C17.8694 8.08853 17.9894 8.38807 18.2054 8.61209C18.4214 8.83611 18.7163 8.9669 19.0274 8.97657H19.0547C19.1674 9.33913 19.3125 9.69081 19.4883 10.0273L19.4727 10.0469C19.2594 10.2731 19.1428 10.5736 19.1479 10.8845C19.153 11.1953 19.2794 11.4919 19.5 11.7109L20.418 12.6289C20.637 12.8496 20.9336 12.9759 21.2445 12.981C21.5553 12.9861 21.8559 12.8696 22.082 12.6563L22.1016 12.6406C22.4381 12.8164 22.7898 12.9615 23.1524 13.0742V13.1016C23.1627 13.4124 23.2937 13.7069 23.5176 13.9228C23.7415 14.1386 24.0406 14.2588 24.3516 14.2578H25.6485C25.9596 14.2595 26.2592 14.1396 26.4832 13.9236C26.7072 13.7076 26.838 13.4126 26.8477 13.1016V13.0742C27.2102 12.9615 27.5619 12.8164 27.8985 12.6406L27.918 12.6563C28.1442 12.8696 28.4447 12.9861 28.7556 12.981C29.0664 12.9759 29.363 12.8496 29.582 12.6289L30.5 11.7109C30.7207 11.4919 30.847 11.1953 30.8521 10.8845C30.8572 10.5736 30.7407 10.2731 30.5274 10.0469L30.5117 10.0273C30.6875 9.69081 30.8326 9.33913 30.9453 8.97657H30.9727ZM25 10.191C24.3944 10.191 23.8024 10.0114 23.2988 9.67496C22.7952 9.33849 22.4028 8.86026 22.171 8.30073C21.9392 7.7412 21.8786 7.12552 21.9967 6.53152C22.1149 5.93753 22.4065 5.39192 22.8348 4.96367C23.263 4.53543 23.8086 4.24379 24.4026 4.12564C24.9966 4.00749 25.6123 4.06813 26.1718 4.29989C26.7314 4.53166 27.2096 4.92413 27.5461 5.4277C27.8825 5.93126 28.0621 6.52328 28.0621 7.12891C28.0622 7.53105 27.983 7.92926 27.8291 8.30079C27.6753 8.67233 27.4497 9.00991 27.1654 9.29426C26.881 9.57862 26.5434 9.80417 26.1719 9.95804C25.8004 10.1119 25.4022 10.1911 25 10.191Z" fill="#F5FAFE"/>
<path d="M12.2311 39.3861C7.46279 38.7689 4.04013 37.5501 2.3331 35.8587C2.26422 35.7916 2.17996 35.7423 2.08767 35.7153C1.99539 35.6882 1.89787 35.6841 1.80364 35.7033C1.70941 35.7226 1.62133 35.7646 1.54707 35.8258C1.47281 35.8869 1.41464 35.9653 1.37763 36.054C-0.270416 40.1341 0.44013 45.1005 1.01161 47.6978C1.15145 48.3521 1.51235 48.9382 2.03361 49.3577C2.55486 49.7771 3.20467 50.0043 3.87372 50.0009H13.5753C13.6774 49.9995 13.7774 49.9717 13.8655 49.92C13.9536 49.8684 14.0268 49.7949 14.078 49.7065C14.1292 49.6181 14.1565 49.518 14.1574 49.4159C14.1583 49.3138 14.1327 49.2132 14.0831 49.124C13.8823 48.7754 13.7337 48.3992 13.6421 48.0076C13.0192 45.3775 12.7167 42.6817 12.7409 39.979C12.7439 39.8348 12.6935 39.6945 12.5994 39.5851C12.5054 39.4757 12.3742 39.4048 12.2311 39.3861Z" fill="#F5FAFE"/>
<path d="M47.6665 35.8581C45.9599 37.5483 42.5372 38.7682 37.7689 39.3854C37.6257 39.4039 37.4943 39.4747 37.4001 39.5842C37.3059 39.6936 37.2554 39.834 37.2583 39.9784C37.2824 42.6809 36.9798 45.3765 36.3572 48.0065C36.2656 48.398 36.117 48.7738 35.9161 49.1221C35.8665 49.2114 35.8409 49.312 35.8418 49.4141C35.8427 49.5162 35.8701 49.6163 35.9213 49.7047C35.9724 49.793 36.0456 49.8666 36.1338 49.9182C36.2219 49.9698 36.3219 49.9977 36.424 49.9991H46.1259C46.7947 50.0024 47.4442 49.7755 47.9654 49.3563C48.4865 48.9372 48.8475 48.3514 48.9876 47.6975C49.5583 45.1002 50.2697 40.1338 48.6216 36.0538C48.5845 35.9651 48.5264 35.8868 48.4522 35.8258C48.378 35.7647 48.29 35.7227 48.1958 35.7034C48.1017 35.6841 48.0042 35.6881 47.912 35.7151C47.8197 35.742 47.7355 35.7911 47.6665 35.8581Z" fill="#F5FAFE"/>
<path d="M42.7577 29.7737C38.9791 30.6565 35.3166 30.4768 30.9065 28.2413C27.4998 26.5131 22.4998 26.5135 19.0944 28.2413C14.678 30.4819 11.0248 30.6561 7.24281 29.7737C5.45453 29.4108 4.04164 29.1249 3.00805 30.1307C2.08422 31.0291 2.02406 32.5073 2.25336 33.4999C3.05492 36.9651 10.808 38.0862 13.9998 38.4022C13.7902 41.5368 14.0548 44.6852 14.7846 47.7409C14.9329 48.3851 15.296 48.9597 15.8143 49.37C16.3326 49.7804 16.9751 50.0021 17.6362 49.9987H32.3627C33.0238 50.0023 33.6664 49.7806 34.1848 49.3702C34.7031 48.9598 35.0662 48.3852 35.2143 47.7409C35.9443 44.6852 36.209 41.5369 35.9995 38.4022C39.1916 38.0862 46.9448 36.9651 47.7459 33.4999C47.9752 32.5073 47.9151 31.0291 46.9912 30.1307C45.9584 29.1249 44.5452 29.4127 42.7577 29.7737Z" fill="#F5FAFE"/>
</g>
<defs>
<clipPath id="clip0_20742_37667">
<rect width="50" height="50" fill="white"/>
</clipPath>
</defs>
</svg>
