<svg width="50" height="50" viewBox="0 0 50 50" fill="none" xmlns="http://www.w3.org/2000/svg">
<g clip-path="url(#clip0_20742_37759)">
<g clip-path="url(#clip1_20742_37759)">
<path d="M35.233 32.0893C33.7855 31.8674 32.3188 31.6889 30.8568 31.5586C30.0954 33.5478 29.0975 35.4382 27.8848 37.1892C30.8557 36.4019 33.4562 34.5971 35.233 32.0893Z" fill="#1B1D1E"/>
<path d="M24.6096 36.714C25.8751 35.0602 26.9377 33.2605 27.7746 31.3536C25.671 31.2571 23.5481 31.2571 21.4492 31.3536C22.2825 33.2614 23.3437 35.0613 24.6096 36.714Z" fill="#1B1D1E"/>
<path d="M21.3326 37.1892C20.119 35.4387 19.1211 33.5482 18.3605 31.5586C16.8986 31.6889 15.4318 31.8674 13.9844 32.0893C15.7612 34.5971 18.3617 36.4019 21.3326 37.1892Z" fill="#1B1D1E"/>
<path d="M3.75837 27.8679C4.32957 27.8678 4.89067 27.7173 5.38521 27.4315C5.87975 27.1456 6.2903 26.7346 6.57556 26.2397H11.7128C11.8472 27.3043 12.1132 28.348 12.5046 29.3471C14.1884 29.0673 15.8723 28.8453 17.5128 28.6813C16.9193 25.9989 16.9193 23.2193 17.5128 20.5369C15.8675 20.3777 14.1836 20.1557 12.5046 19.8711C12.1126 20.8717 11.8464 21.9171 11.7122 22.9833H6.57562C6.28964 22.4886 5.87849 22.0779 5.38349 21.7925C4.88849 21.5071 4.32708 21.3569 3.75568 21.3572C3.18428 21.3575 2.62302 21.5082 2.1283 21.7941C1.63359 22.0801 1.22285 22.4912 0.937368 22.9861C0.651886 23.4811 0.501717 24.0425 0.501953 24.6139C0.50219 25.1853 0.652823 25.7466 0.938715 26.2413C1.22461 26.7361 1.63568 27.1468 2.13064 27.4324C2.62559 27.7179 3.18697 27.8681 3.75837 27.8679Z" fill="#1B1D1E"/>
<path d="M28.7447 20.7617C25.9904 20.921 23.2292 20.921 20.4749 20.7617C19.8573 23.2898 19.8573 25.9294 20.4749 28.4574C21.85 28.3802 23.2283 28.3416 24.6099 28.3416C25.9897 28.3416 27.3745 28.3802 28.7447 28.4574C29.3671 25.9299 29.3671 23.2892 28.7447 20.7617Z" fill="#1B1D1E"/>
<path d="M27.8848 12.0273C29.0974 13.7766 30.0953 15.6655 30.8569 17.6531C32.3188 17.5228 33.7904 17.3443 35.233 17.1272C33.4576 14.618 30.8565 12.8128 27.8848 12.0273Z" fill="#1B1D1E"/>
<path d="M27.7746 17.8682C26.9399 15.9602 25.8772 14.1603 24.6096 12.5078C23.3417 14.1592 22.2803 15.9593 21.4492 17.8682C23.5481 17.9599 25.671 17.9599 27.7746 17.8682Z" fill="#1B1D1E"/>
<path d="M13.9844 17.1272C15.427 17.3443 16.8986 17.5228 18.3605 17.6531C19.124 15.6663 20.1218 13.7778 21.3326 12.0273C18.3608 12.8128 15.7598 14.618 13.9844 17.1272Z" fill="#1B1D1E"/>
<path d="M45.4614 21.3551C44.8902 21.3552 44.3291 21.5058 43.8346 21.7916C43.34 22.0774 42.9295 22.4884 42.6442 22.9833H37.5076C37.3734 21.9171 37.1072 20.8717 36.7152 19.8711C35.0362 20.1557 33.3523 20.3777 31.707 20.5369C32.3004 23.2193 32.3004 25.9989 31.707 28.6813C33.3523 28.8453 35.0362 29.0673 36.7152 29.3471C37.1075 28.3483 37.3736 27.3044 37.5074 26.2397H42.6443C42.9303 26.7344 43.3414 27.1451 43.8364 27.4305C44.3314 27.716 44.8928 27.8661 45.4642 27.8658C46.0356 27.8655 46.5969 27.7148 47.0916 27.4288C47.5863 27.1429 47.997 26.7318 48.2825 26.2368C48.5679 25.7418 48.7181 25.1804 48.7179 24.609C48.7176 24.0376 48.567 23.4764 48.2811 22.9816C47.9952 22.4869 47.5841 22.0762 47.0892 21.7906C46.5942 21.5051 46.0328 21.3549 45.4614 21.3551Z" fill="#1B1D1E"/>
<path d="M44.7952 32.4888C44.4127 32.3393 43.9878 32.3401 43.6059 32.4911C43.224 32.6421 42.9133 32.932 42.7364 33.3026C41.1779 36.5467 38.7774 39.3131 35.7854 41.3133C32.7933 43.3135 29.3193 44.4741 25.7258 44.6741C22.1324 44.874 18.5511 44.106 15.3556 42.4501C12.1601 40.7943 9.46747 38.3112 7.55869 35.2601L9.42276 35.8657C9.64313 35.9373 9.87625 35.9611 10.1065 35.9354C10.3368 35.9097 10.559 35.8352 10.7582 35.7168C10.9574 35.5984 11.129 35.4388 11.2616 35.2488C11.3942 35.0587 11.4847 34.8426 11.5271 34.6148C11.593 34.2177 11.5129 33.8102 11.3015 33.4677C11.09 33.1251 10.7616 32.8708 10.3771 32.7519L4.87029 30.9626C4.66695 30.8965 4.45256 30.8711 4.23939 30.8878C4.02622 30.9046 3.81844 30.9631 3.62791 31.0602C3.43739 31.1573 3.26785 31.2909 3.12899 31.4535C2.99013 31.6161 2.88467 31.8045 2.81862 32.0079L1.03291 37.5037C0.895046 37.9079 0.917016 38.3495 1.09431 38.7381C1.27161 39.1266 1.59081 39.4326 1.98648 39.5933C2.19247 39.6713 2.41215 39.7065 2.63219 39.697C2.85222 39.6875 3.06804 39.6334 3.26655 39.538C3.46505 39.4426 3.64212 39.3079 3.787 39.142C3.93188 38.9762 4.04157 38.7826 4.1094 38.573L4.68732 36.7945C6.88075 40.3791 10.0006 43.3055 13.718 45.2655C17.4354 47.2254 21.6127 48.1462 25.8096 47.9308C30.0065 47.7155 34.0676 46.3719 37.5648 44.0417C41.062 41.7115 43.8659 38.481 45.6808 34.6907C45.7752 34.4891 45.8271 34.2702 45.8333 34.0477C45.8395 33.8252 45.7998 33.6037 45.7167 33.3972C45.6337 33.1907 45.509 33.0034 45.3505 32.8472C45.1919 32.6909 45.0029 32.5689 44.7952 32.4888Z" fill="#1B1D1E"/>
<path d="M4.42938 16.7307C4.81188 16.8802 5.23677 16.8793 5.61868 16.7284C6.0006 16.5774 6.31123 16.2875 6.48816 15.9169C8.04643 12.6728 10.4468 9.90629 13.4388 7.90611C16.4307 5.90592 19.9047 4.74535 23.4981 4.5455C27.0916 4.34566 30.6728 5.11385 33.8681 6.76993C37.0634 8.426 39.7557 10.9093 41.6641 13.9606L39.7964 13.3538C39.5891 13.2864 39.3703 13.2613 39.1531 13.2801C38.9359 13.2988 38.7246 13.361 38.5319 13.463C38.3392 13.5649 38.1689 13.7046 38.0311 13.8736C37.8934 14.0426 37.791 14.2375 37.73 14.4469C37.6202 14.8644 37.6759 15.3082 37.8856 15.6855C38.0953 16.0629 38.4427 16.3446 38.8553 16.4719L44.3489 18.2569C44.5522 18.3232 44.7667 18.3488 44.9799 18.3322C45.1932 18.3155 45.401 18.257 45.5916 18.1599C45.7822 18.0628 45.9517 17.9291 46.0906 17.7663C46.2294 17.6036 46.3347 17.4151 46.4006 17.2116L48.2067 11.6528C48.2741 11.4454 48.2992 11.2267 48.2804 11.0094C48.2616 10.7922 48.1994 10.581 48.0975 10.3882C47.9955 10.1955 47.8559 10.0252 47.6869 9.88749C47.5179 9.74975 47.3229 9.64736 47.1136 9.5864C46.6961 9.47661 46.2523 9.53239 45.8749 9.74209C45.4976 9.95179 45.2158 10.2992 45.0886 10.7117L44.5329 12.4218C42.3393 8.8378 39.2196 5.91196 35.5024 3.95259C31.7852 1.99322 27.6083 1.0729 23.4119 1.28862C19.2154 1.50433 15.1549 2.8481 11.6582 5.17829C8.16155 7.50848 5.35822 10.7388 3.5437 14.5288C3.44931 14.7304 3.39742 14.9493 3.39125 15.1718C3.38508 15.3943 3.42477 15.6158 3.50784 15.8223C3.59092 16.0288 3.7156 16.2161 3.87414 16.3723C4.03267 16.5286 4.22167 16.6506 4.42938 16.7307Z" fill="#1B1D1E"/>
</g>
</g>
<defs>
<clipPath id="clip0_20742_37759">
<rect width="50" height="50" fill="white"/>
</clipPath>
<clipPath id="clip1_20742_37759">
<rect width="50" height="50" fill="white"/>
</clipPath>
</defs>
</svg>
