<svg width="50" height="50" viewBox="0 0 50 50" fill="none" xmlns="http://www.w3.org/2000/svg">
<path d="M24.9999 6.71669C25.3935 6.71669 25.7126 6.3897 25.7126 5.98634V0.730348C25.7126 0.326987 25.3935 0 24.9999 0C24.6062 0 24.2871 0.326987 24.2871 0.730348V5.98636C24.2871 6.3897 24.6062 6.71669 24.9999 6.71669Z" fill="#1B1D1E"/>
<path d="M14.8049 8.97953C14.9369 9.21384 15.1765 9.34481 15.4228 9.34481C15.5437 9.34481 15.6663 9.31323 15.7785 9.24683C16.1194 9.04515 16.2362 8.59848 16.0394 8.24915L13.4747 3.69733C13.2778 3.34803 12.842 3.2283 12.501 3.43002C12.1601 3.6317 12.0433 4.07837 12.2401 4.4277L14.8049 8.97953Z" fill="#1B1D1E"/>
<path d="M8.76542 15.1674L4.32317 12.5394C3.98221 12.3377 3.54632 12.4574 3.34951 12.8067C3.15269 13.156 3.26951 13.6027 3.61041 13.8044L8.05266 16.4324C8.16493 16.4988 8.28746 16.5304 8.40837 16.5304C8.65471 16.5304 8.89429 16.3994 9.02632 16.1651C9.22314 15.8157 9.10632 15.3691 8.76542 15.1674Z" fill="#1B1D1E"/>
<path d="M5.84223 24.8867H0.712767C0.319116 24.8867 0 25.2137 0 25.6171C0 26.0204 0.319116 26.3474 0.712767 26.3474H5.84225C6.2359 26.3474 6.55502 26.0204 6.55502 25.6171C6.555 25.2137 6.23588 24.8867 5.84223 24.8867Z" fill="#1B1D1E"/>
<path d="M49.2875 24.8867H44.1581C43.7644 24.8867 43.4453 25.2137 43.4453 25.6171C43.4453 26.0204 43.7644 26.3474 44.1581 26.3474H49.2875C49.6812 26.3474 50.0003 26.0204 50.0003 25.6171C50.0003 25.2137 49.6812 24.8867 49.2875 24.8867Z" fill="#1B1D1E"/>
<path d="M46.6513 12.8067C46.4545 12.4574 46.0186 12.3377 45.6777 12.5394L41.2354 15.1674C40.8945 15.3691 40.7777 15.8157 40.9745 16.1651C41.1066 16.3994 41.3461 16.5304 41.5925 16.5304C41.7133 16.5304 41.8359 16.4988 41.9482 16.4324L46.3904 13.8044C46.7313 13.6027 46.8481 13.156 46.6513 12.8067Z" fill="#1B1D1E"/>
<path d="M34.2237 9.24683C34.336 9.31325 34.4585 9.34481 34.5794 9.34481C34.8258 9.34481 35.0653 9.21379 35.1974 8.97952L37.7621 4.42769C37.9589 4.07837 37.8421 3.6317 37.5012 3.43002C37.1602 3.22829 36.7243 3.34804 36.5275 3.69732L33.9628 8.24915C33.766 8.59847 33.8828 9.04515 34.2237 9.24683Z" fill="#1B1D1E"/>
<path d="M26.4059 45.9844H23.5968C22.5171 45.9844 21.6387 46.8844 21.6387 47.9908C21.6387 49.0971 22.5171 49.9972 23.5968 49.9972H26.4059C27.4856 49.9972 28.364 49.0971 28.364 47.9908C28.364 46.8844 27.4856 45.9844 26.4059 45.9844Z" fill="#1B1D1E"/>
<path d="M29.8969 41.2969H20.1026C19.0229 41.2969 18.1445 42.1969 18.1445 43.3033C18.1445 44.4096 19.0229 45.3097 20.1026 45.3097H29.8969C30.9766 45.3097 31.855 44.4096 31.855 43.3033C31.855 42.1969 30.9766 41.2969 29.8969 41.2969Z" fill="#1B1D1E"/>
<path d="M24.6699 35.9851C24.6699 35.8548 24.7431 35.7362 24.858 35.6802C24.9728 35.6243 25.1088 35.6411 25.2074 35.7234C25.6724 36.1115 26.2595 36.3253 26.8607 36.3253C28.306 36.3253 29.4818 35.1204 29.4818 33.6393C29.4818 32.1585 28.306 30.9538 26.8607 30.9538C26.2593 30.9538 25.6722 31.1675 25.2075 31.5556C25.1089 31.6379 24.9729 31.6548 24.858 31.5988C24.7432 31.5429 24.6699 31.4242 24.6699 31.2939V25.8281H19.9466C20.1941 26.3088 20.3265 26.8487 20.3265 27.3978C20.3265 29.251 18.8552 30.7586 17.0468 30.7586C15.2381 30.7586 13.7667 29.251 13.7667 27.3978C13.7667 26.8488 13.8991 26.3089 14.1466 25.8281H10.3184C10.5929 29.6862 12.3137 33.3208 15.1348 35.9323C15.6787 36.4358 15.9907 37.1588 15.9907 37.9157V38.6157C15.9907 39.722 16.8691 40.6221 17.9488 40.6221H24.67V35.9851H24.6699Z" fill="#1B1D1E"/>
<path d="M15.055 25.3481C15.1096 25.4658 15.0932 25.6051 15.0129 25.7061C14.6342 26.1825 14.4256 26.7842 14.4256 27.4002C14.4256 28.8811 15.6015 30.0859 17.0469 30.0859C18.492 30.0859 19.6677 28.8811 19.6677 27.4002C19.6677 26.784 19.4591 26.1824 19.0804 25.7062C19.0001 25.6052 18.9836 25.4658 19.0382 25.3481C19.0928 25.2304 19.2086 25.1554 19.3358 25.1554H24.67V20.3156C24.2009 20.5692 23.674 20.7049 23.1381 20.7049C21.3295 20.7049 19.8581 19.1973 19.8581 17.3442C19.8581 15.4909 21.3295 13.9832 23.1381 13.9832C23.6739 13.9832 24.2007 14.1189 24.67 14.3725V9.66016C16.7048 9.8403 10.2793 16.5353 10.2793 24.7394C10.2793 24.8783 10.2813 25.017 10.285 25.1554H14.7575C14.8847 25.1554 15.0005 25.2304 15.055 25.3481Z" fill="#1B1D1E"/>
<path d="M25.3294 9.66016V14.9984C25.3294 15.1287 25.2562 15.2474 25.1414 15.3033C25.0265 15.3592 24.8905 15.3424 24.7919 15.2601C24.327 14.872 23.7398 14.6583 23.1387 14.6583C21.6934 14.6583 20.5176 15.8632 20.5176 17.3442C20.5176 18.825 21.6934 20.0297 23.1387 20.0297C23.7401 20.0297 24.3272 19.816 24.7919 19.428C24.8905 19.3456 25.0265 19.3288 25.1413 19.3847C25.2562 19.4406 25.3294 19.5593 25.3294 19.6896V25.1554H30.0527C29.8052 24.6748 29.6728 24.1348 29.6728 23.5857C29.6728 21.7325 31.1442 20.2249 32.9526 20.2249C34.7612 20.2249 36.2327 21.7325 36.2327 23.5857C36.2327 24.1347 36.1003 24.6746 35.8527 25.1554H39.7144C39.7181 25.017 39.7201 24.8783 39.7201 24.7394C39.7201 16.5353 33.2946 9.84032 25.3294 9.66016Z" fill="#1B1D1E"/>
<path d="M34.9451 25.6363C34.8905 25.5186 34.9069 25.3793 34.9872 25.2782C35.3659 24.8018 35.5745 24.2002 35.5745 23.5842C35.5745 22.1033 34.3986 20.8984 32.9532 20.8984C31.5081 20.8984 30.3324 22.1033 30.3324 23.5842C30.3324 24.2004 30.5409 24.802 30.9197 25.2782C31 25.3792 31.0164 25.5186 30.9619 25.6363C30.9073 25.754 30.7915 25.829 30.6643 25.829H25.3301V30.6688C25.7992 30.4152 26.3261 30.2795 26.862 30.2795C28.6705 30.2795 30.1419 31.7871 30.1419 33.6402C30.1419 35.4934 28.6705 37.0012 26.862 37.0012C26.3262 37.0012 25.7993 36.8655 25.3301 36.6119V40.6229H32.0515C33.1312 40.6229 34.0096 39.7229 34.0096 38.6165V37.9165C34.0096 37.1596 34.3215 36.4366 34.8654 35.9331C37.6864 33.3215 39.4072 29.6869 39.6817 25.829H35.2426C35.1154 25.829 34.9996 25.754 34.9451 25.6363Z" fill="#1B1D1E"/>
</svg>
