<svg width="100" height="100" viewBox="0 0 100 100" fill="none" xmlns="http://www.w3.org/2000/svg">
<circle cx="50" cy="50" r="50" fill="#FF5D00" fill-opacity="0.1"/>
<g clip-path="url(#clip0_0_1)">
<path d="M21.9977 72.998C21.7328 72.999 21.479 73.105 21.292 73.2927C21.105 73.4804 21 73.7346 21 73.9996V79.9935C21 80.549 21.446 80.995 21.9977 80.9987H79.9942C80.126 80.9987 80.2566 80.9727 80.3783 80.9221C80.5001 80.8716 80.6107 80.7975 80.7037 80.7041C80.7968 80.6107 80.8705 80.4998 80.9206 80.3779C80.9707 80.2559 80.9962 80.1253 80.9957 79.9935V73.9996C80.9957 73.7339 80.8902 73.4792 80.7024 73.2914C80.5146 73.1036 80.2598 72.998 79.9942 72.998H21.9977Z" fill="#FF5D00"/>
<path d="M38.996 31.001C38.996 31.001 37.9961 31.001 37.9961 32.0009V69.9977C37.9961 70.9976 38.996 70.9976 38.996 70.9976H42.9957C43.9956 70.9976 43.9956 69.9977 43.9956 69.9977L43.9976 64.9941C43.9976 64.9941 43.9836 64.2852 44.3526 63.5472C44.7225 62.8083 45.6624 61.9984 46.9953 61.9984H54.9967C54.9967 61.9984 55.7056 61.9824 56.4435 62.3523C57.1825 62.7213 57.9924 63.6612 57.9924 64.9941L57.9944 69.9977C57.9944 70.9976 58.9943 70.9976 58.9943 70.9976H62.994C63.9939 70.9976 63.9939 69.9977 63.9939 69.9977V32.0009C63.9939 31.001 62.994 31.001 62.994 31.001H38.996ZM49.9911 33.0028H51.9909C51.9909 33.0028 52.4559 32.9868 52.9438 33.2308C53.4328 33.4758 53.9927 33.9997 53.9927 35.0026V37.9984L54.9947 38.0004L56.9965 37.9984C56.9965 37.9984 57.4535 37.9824 57.9414 38.2274C58.4304 38.4713 58.9963 38.9993 58.9963 40.0002V42.0001C58.9963 42.0001 59.0043 42.457 58.7603 42.945C58.5144 43.4339 57.9944 43.9999 56.9965 43.9999H53.9927V46.9956C53.9927 47.9965 53.4328 48.5255 52.9438 48.7695C52.4559 49.0135 51.9909 48.9975 51.9909 48.9975H49.9911C49.9911 48.9975 49.5341 49.0135 49.0462 48.7695C48.5572 48.5245 47.9993 47.9965 47.9993 46.9956V43.9999H44.9935C43.9946 43.9999 43.4666 43.4339 43.2227 42.945C42.9777 42.457 42.9937 42.0001 42.9937 42.0001V40.0002C42.9937 40.0002 42.9777 39.5433 43.2227 39.0553C43.4666 38.5663 43.9946 37.9984 44.9935 37.9984H47.9993V35.0026C47.9993 35.0026 47.9833 34.5377 48.2272 34.0497C48.4722 33.5608 48.9952 33.0028 49.9911 33.0028Z" fill="#FF5D00"/>
<path d="M40.006 21.0001C40.006 21.0001 39.0461 20.9849 38.0521 21.48C37.062 21.9713 36 22.9993 36 25.0023V27.9955C36 28.551 36.446 29.0007 36.9977 29.0007H64.9945C65.1266 29.0012 65.2576 28.9756 65.3798 28.9252C65.5019 28.8749 65.613 28.8009 65.7064 28.7074C65.7999 28.614 65.8739 28.5029 65.9242 28.3808C65.9746 28.2586 66.0002 28.1276 65.9997 27.9955V25.0023C65.9997 22.9993 64.934 21.9751 63.9476 21.48C62.9574 20.9887 61.9975 21.0001 61.9975 21.0001H40.006Z" fill="#FF5D00"/>
<path d="M25.0899 36.2734C23.6088 36.2734 22.8243 37.0833 22.4556 37.8193C22.2333 38.2693 22.1099 38.7617 22.0938 39.2634L22.0977 70.1827C22.0977 71.18 23.0945 71.18 23.0945 71.18H35.0552C36.0519 71.18 36.0539 70.2136 36.0539 70.2136L36.0519 37.2708C36.0519 36.2734 35.0552 36.2734 35.0552 36.2734H25.0899ZM27.9804 42.2594C28.0123 42.2574 28.0442 42.2574 28.0761 42.2594H33.0657C33.3287 42.2605 33.5806 42.3655 33.7665 42.5515C33.9525 42.7376 34.0574 42.9896 34.0584 43.2528V48.2454C34.0574 48.5085 33.9525 48.7606 33.7665 48.9466C33.5806 49.1327 33.3287 49.2377 33.0657 49.2387H28.0761C27.8131 49.2377 27.5612 49.1327 27.3753 48.9466C27.1893 48.7606 27.0844 48.5085 27.0834 48.2454V43.2528C27.0831 43.0053 27.1748 42.7667 27.3406 42.5831C27.5063 42.3995 27.7344 42.2842 27.9804 42.2594ZM28.0761 52.2267H33.0657C33.6159 52.2287 34.0604 52.6785 34.0584 53.2301V58.2127C34.059 58.3437 34.0337 58.4735 33.9841 58.5947C33.9345 58.7159 33.8615 58.8261 33.7693 58.9191C33.6771 59.0121 33.5676 59.086 33.4468 59.1366C33.3261 59.1872 33.1966 59.2135 33.0657 59.2141H28.0761C27.9452 59.2135 27.8157 59.1872 27.695 59.1366C27.5742 59.086 27.4647 59.0121 27.3725 58.9191C27.2803 58.8261 27.2073 58.7159 27.1577 58.5947C27.1081 58.4735 27.0828 58.3437 27.0834 58.2127V53.2301C27.0827 53.099 27.1079 52.969 27.1574 52.8476C27.2069 52.7263 27.2799 52.6158 27.3721 52.5227C27.4642 52.4295 27.5739 52.3554 27.6947 52.3046C27.8155 52.2539 27.9451 52.2274 28.0761 52.2267ZM28.0761 62.2041H33.0657C33.1966 62.2046 33.3261 62.2309 33.4468 62.2815C33.5676 62.3321 33.6771 62.406 33.7693 62.499C33.8615 62.592 33.9345 62.7022 33.9841 62.8234C34.0337 62.9446 34.059 63.0744 34.0584 63.2054V68.19C34.0574 68.4532 33.9525 68.7052 33.7665 68.8913C33.5806 69.0773 33.3287 69.1823 33.0657 69.1834H28.0761C27.8131 69.1823 27.5612 69.0773 27.3753 68.8913C27.1893 68.7052 27.0844 68.4532 27.0834 68.19V63.2054C27.0828 63.0744 27.1081 62.9446 27.1577 62.8234C27.2073 62.7022 27.2803 62.592 27.3725 62.499C27.4647 62.406 27.5742 62.3321 27.695 62.2815C27.8157 62.2309 27.9452 62.2046 28.0761 62.2041ZM65.9536 37.2708V70.1827C65.9536 71.18 66.9504 71.18 66.9504 71.18H78.9111C79.9078 71.18 79.9078 70.1827 79.9078 70.1827L79.9038 39.2634C79.9038 39.2634 79.9198 38.5563 79.552 37.8203C79.1832 37.0833 78.3868 36.2734 76.9176 36.2734H66.9504C66.9504 36.2734 65.9536 36.2734 65.9536 37.2708ZM68.8461 42.2594C68.878 42.2574 68.9099 42.2574 68.9418 42.2594H73.9294C74.1924 42.2605 74.4443 42.3655 74.6303 42.5515C74.8162 42.7376 74.9211 42.9896 74.9222 43.2528V48.2454C74.9211 48.5085 74.8162 48.7606 74.6303 48.9466C74.4443 49.1327 74.1924 49.2377 73.9294 49.2387H68.9418C68.6789 49.2377 68.427 49.1327 68.241 48.9466C68.0551 48.7606 67.9501 48.5085 67.9491 48.2454V43.2528C67.9488 43.0053 68.0405 42.7667 68.2063 42.5831C68.3721 42.3995 68.6001 42.2842 68.8461 42.2594ZM68.9418 52.2267H73.9294C74.4796 52.2287 74.9242 52.6785 74.9222 53.2301V58.2127C74.9227 58.3437 74.8974 58.4735 74.8478 58.5947C74.7982 58.7159 74.7253 58.8261 74.6331 58.9191C74.5409 59.0121 74.4313 59.086 74.3106 59.1366C74.1898 59.1872 74.0603 59.2135 73.9294 59.2141H68.9418C68.8109 59.2135 68.6814 59.1872 68.5607 59.1366C68.44 59.086 68.3304 59.0121 68.2382 58.9191C68.146 58.8261 68.073 58.7159 68.0234 58.5947C67.9738 58.4735 67.9486 58.3437 67.9491 58.2127V53.2301C67.9484 53.099 67.9736 52.969 68.0231 52.8476C68.0727 52.7263 68.1456 52.6158 68.2378 52.5227C68.33 52.4295 68.4396 52.3554 68.5604 52.3046C68.6812 52.2539 68.8108 52.2274 68.9418 52.2267ZM68.9418 62.2041H73.9294C74.0603 62.2046 74.1898 62.2309 74.3106 62.2815C74.4313 62.3321 74.5409 62.406 74.6331 62.499C74.7253 62.592 74.7982 62.7022 74.8478 62.8234C74.8974 62.9446 74.9227 63.0744 74.9222 63.2054V68.19C74.9211 68.4532 74.8162 68.7052 74.6303 68.8913C74.4443 69.0773 74.1924 69.1823 73.9294 69.1834H68.9418C68.6789 69.1823 68.427 69.0773 68.241 68.8913C68.0551 68.7052 67.9501 68.4532 67.9491 68.19V63.2054C67.9486 63.0744 67.9738 62.9446 68.0234 62.8234C68.073 62.7022 68.146 62.592 68.2382 62.499C68.3304 62.406 68.44 62.3321 68.5607 62.2815C68.6814 62.2309 68.8109 62.2046 68.9418 62.2041Z" fill="#FF5D00"/>
</g>
<defs>
<clipPath id="clip0_0_1">
<rect width="59" height="59" fill="white" transform="translate(21 21)"/>
</clipPath>
</defs>
</svg>
