<svg width="100" height="100" viewBox="0 0 100 100" fill="none" xmlns="http://www.w3.org/2000/svg">
<circle cx="50" cy="50" r="50" fill="#FF5D00" fill-opacity="0.1"/>
<path fill-rule="evenodd" clip-rule="evenodd" d="M70.1735 66.1111C63.6005 49.6552 55.9283 45.3181 55.9283 37.1111V27.4444H57.5354C57.9616 27.4444 58.3704 27.2747 58.6718 26.9726C58.9732 26.6704 59.1425 26.2606 59.1425 25.8333V22.6111C59.1425 22.1838 58.9732 21.774 58.6718 21.4719C58.3704 21.1697 57.9616 21 57.5354 21H41.4646C41.0384 21 40.6296 21.1697 40.3282 21.4719C40.0268 21.774 39.8575 22.1838 39.8575 22.6111V25.8333C39.8575 26.2606 40.0268 26.6704 40.3282 26.9726C40.6296 27.2747 41.0384 27.4444 41.4646 27.4444H43.0717V37.1111C43.0717 45.3181 35.3995 49.6552 28.8265 66.1111C26.7341 71.3472 21.36 79 49.5 79C77.64 79 72.2659 71.3472 70.1735 66.1111ZM64.9762 71.7532C62.7198 72.4299 58.2297 73.2 49.5 73.2C40.7703 73.2 36.2802 72.4299 34.0238 71.7532C33.2235 71.5148 32.9117 70.5836 33.1946 69.7297C33.9017 67.5708 35.2356 63.8394 37.7297 59.6731C43.8238 49.4941 50.146 61.2746 55.4076 61.2746C60.6692 61.2746 59.226 56.2447 61.2703 59.6731C63.1514 62.8452 64.6726 66.2184 65.8054 69.7297C66.0883 70.5836 65.7765 71.5116 64.9762 71.7532Z" fill="#FF5D00"/>
</svg>
