<svg width="100" height="100" viewBox="0 0 100 100" fill="none" xmlns="http://www.w3.org/2000/svg">
<circle cx="50" cy="50" r="50" fill="#FF5D00" fill-opacity="0.1"/>
<path d="M72.7587 53.9915L47.7155 29.234L47.7223 29.2412C44.8995 26.4172 41.1827 24.9975 37.4822 25C33.7818 24.9976 30.0646 26.4172 27.2416 29.2413C24.4169 32.0652 22.9981 35.7813 23 39.4821C22.9981 43.183 24.4169 46.8998 27.2417 49.7231L52.2841 74.4798L52.2774 74.4726C55.101 77.2967 58.8171 78.7154 62.5176 78.714C66.2185 78.7154 69.9344 77.2967 72.7581 74.4734C75.5829 71.6485 77.0017 67.931 77.0001 64.2309C77.0017 60.5307 75.5832 56.8148 72.7587 53.9915ZM31.3957 43.6516C28.9968 41.2533 28.9968 37.2997 31.426 34.8709C32.6021 33.6944 34.1663 33.0472 35.8307 33.0472L31.3957 43.6516ZM70.3189 72.0342C68.1604 74.191 65.3471 75.2631 62.5175 75.264C59.6882 75.2631 56.8745 74.191 54.7156 72.0334L54.71 72.0279L54.7093 72.0262L43.1703 60.6191C43.2041 60.3968 43.2552 60.1361 43.3289 59.8468C43.5959 58.778 44.1335 57.3384 44.9446 55.8159C46.1598 53.5282 47.9906 51.0478 50.4106 49.1356C52.8193 47.2353 55.7742 45.877 59.4368 45.6714L70.3146 56.4247L70.3197 56.4287C72.4766 58.588 73.5486 61.401 73.5511 64.2306C73.5486 67.0604 72.4774 69.8741 70.3189 72.0342Z" fill="#FF5D00"/>
</svg>
