<svg width="100" height="100" viewBox="0 0 100 100" fill="none" xmlns="http://www.w3.org/2000/svg">
<circle cx="50" cy="50" r="50" fill="#FF5D00" fill-opacity="0.1"/>
<g clip-path="url(#clip0_0_1)">
<g clip-path="url(#clip1_0_1)">
<g clip-path="url(#clip2_0_1)">
<path d="M53.2425 21V42.1522C56.8175 43.3439 59.2009 46.621 59.2009 50.4939C59.2009 51.9835 58.9029 53.4731 58.0092 54.6648L63.9675 59.4315C64.2655 59.4315 64.5634 59.1335 65.1592 59.1335C66.9467 59.1335 68.1384 60.3252 68.1384 62.1127C68.1384 63.9002 66.9467 65.0919 65.1592 65.0919C63.3717 65.0919 62.18 63.9002 62.18 62.1127V61.8148L56.2217 57.0481C54.7321 58.5377 52.6467 59.4315 50.2633 59.4315C45.1987 59.4315 41.3258 55.5585 41.3258 50.4939C41.3258 46.621 43.7091 43.3439 47.2841 42.1522V21.2979H46.9862C36.5591 22.4896 27.9194 31.1292 26.7278 41.8543C25.834 48.4085 27.6215 54.3668 31.1965 59.1335C33.8778 62.7086 35.3674 66.5815 35.3674 71.0503V80.5837H62.18V71.6461H68.1384C71.4155 71.6461 74.0968 68.9648 74.0968 65.6877V56.7502L78.5655 54.9627C79.7572 54.3668 80.3531 52.5793 79.7572 51.3877L74.0968 42.4501C72.9051 31.4271 64.2655 22.4896 53.2425 21ZM50.2633 46.3231C47.88 46.3231 45.7945 48.4085 45.7945 50.7918C45.7945 53.1752 47.88 55.2606 50.2633 55.2606C52.6467 55.2606 54.7321 53.1752 54.7321 50.7918C54.7321 48.4085 52.6467 46.3231 50.2633 46.3231Z" fill="#FF5D00"/>
</g>
<path d="M61.6263 33.9062H57.0391C57.9185 39.136 62.456 43.125 67.9356 43.125C67.5586 43.125 67.1806 43.0098 66.8589 42.7784C64.0287 40.7429 62.1269 37.4518 61.6263 33.9062Z" fill="#FF5D00"/>
</g>
</g>
<defs>
<clipPath id="clip0_0_1">
<rect width="78" height="78" fill="white" transform="translate(11 9)"/>
</clipPath>
<clipPath id="clip1_0_1">
<rect width="59" height="59" fill="white" transform="translate(20 21)"/>
</clipPath>
<clipPath id="clip2_0_1">
<rect width="65" height="65" fill="white" transform="translate(20 18)"/>
</clipPath>
</defs>
</svg>
