<svg width="100" height="100" viewBox="0 0 100 100" fill="none" xmlns="http://www.w3.org/2000/svg">
<circle cx="50" cy="50" r="50" fill="#FF5D00" fill-opacity="0.1"/>
<path d="M28.4663 69.4464L32.0084 72.989C32.0077 72.9885 32.0089 72.9895 32.0084 72.989C32.0092 72.9895 32.0109 72.9913 32.0114 72.992L35.5528 76.5341C36.529 77.5116 37.8137 78 39.0961 78C40.3808 78 41.6655 77.5119 42.6417 76.5341C43.618 77.5116 44.9026 78 46.1851 78C47.4675 78 48.7519 77.5119 49.7284 76.5341C50.6753 75.5872 51.1965 74.3293 51.1965 72.9908C51.1965 71.651 50.6753 70.3921 49.7284 69.4474L44.4125 64.131L62.1305 46.4129L67.4469 51.7298C68.4231 52.7051 69.7078 53.1932 70.9902 53.1932C72.2727 53.1932 73.5571 52.7051 74.5336 51.7298C76.4888 49.7758 76.4888 46.5951 74.5336 44.6411C76.4888 42.6871 76.4888 39.5086 74.5336 37.5546L70.9915 34.012C70.991 34.0115 70.9922 34.0125 70.9915 34.012C70.9907 34.0115 70.989 34.0097 70.9885 34.009L67.4472 30.4669C65.4904 28.5101 62.3117 28.5119 60.3585 30.4671C58.4057 28.5119 55.2245 28.5116 53.2718 30.4669C52.3249 31.4138 51.8037 32.6717 51.8037 34.0102C51.8037 35.35 52.3249 36.6089 53.2718 37.5536L58.5877 42.87L40.8697 60.5881L35.5533 55.2712C33.6006 53.321 30.4196 53.3197 28.4669 55.2724C26.5116 57.2264 26.5116 60.4062 28.4669 62.3602C26.5111 64.3136 26.5111 67.4924 28.4663 69.4464ZM70.9902 48.1854L65.6741 42.8693L67.4469 44.6408C67.4509 44.6448 67.4562 44.6476 67.4604 44.6519L70.9928 48.1829L70.9902 48.1854ZM70.9928 41.0952L70.9902 41.0977L69.2182 39.3254L70.9928 41.0952ZM60.3582 37.5531L56.8149 34.0097L60.3527 37.5463C60.3547 37.5486 60.3562 37.5511 60.3582 37.5531ZM46.1876 72.9883L46.1851 72.9908L40.8689 67.6746L46.1876 72.9883Z" fill="#FF5D00"/>
</svg>
