<svg width="189" height="51" viewBox="0 0 189 51" fill="none" xmlns="http://www.w3.org/2000/svg">
<path d="M24.9085 50.6086V40.9158C35.225 40.9158 43.1842 30.7826 39.2046 20.062C37.7306 16.0968 34.636 12.8657 30.5087 11.397C19.8974 7.57897 9.72746 15.5094 9.72746 25.6425H0C0 9.488 15.7701 -3.28878 33.0148 1.99849C40.5315 4.34786 46.4265 10.2226 48.785 17.7121C54.0909 34.8944 41.2683 50.6086 24.9085 50.6086Z" fill="#0080FF"/>
<path d="M25.0564 40.9158H15.3289V31.3701H25.0564V40.9158ZM15.3289 48.4058H7.95934V40.9158H15.3289V48.4058ZM7.95934 40.9158H1.76953V34.7478H7.95934V40.9158Z" fill="#0080FF"/>
<path d="M76.25 32.7871H71.7614V18.2417H76.4489C77.8598 18.2417 79.0672 18.5328 80.071 19.1152C81.0748 19.6929 81.8442 20.5239 82.3793 21.6081C82.9143 22.6877 83.1818 23.9803 83.1818 25.486C83.1818 27.0011 82.9119 28.3056 82.3722 29.3993C81.8324 30.4883 81.0464 31.3264 80.0142 31.9135C78.982 32.4959 77.7273 32.7871 76.25 32.7871ZM73.5227 31.2246H76.1364C77.339 31.2246 78.3357 30.9926 79.1264 30.5286C79.9171 30.0646 80.5066 29.4041 80.8949 28.5471C81.2831 27.69 81.4773 26.6697 81.4773 25.486C81.4773 24.3117 81.2855 23.3008 80.902 22.4533C80.5185 21.601 79.9455 20.9476 79.1832 20.4931C78.4209 20.0338 77.4716 19.8042 76.3352 19.8042H73.5227V31.2246ZM85.9091 32.7871V21.878H87.5852V32.7871H85.9091ZM86.7614 20.0598C86.4347 20.0598 86.1529 19.9486 85.9162 19.726C85.6842 19.5035 85.5682 19.236 85.5682 18.9235C85.5682 18.611 85.6842 18.3435 85.9162 18.1209C86.1529 17.8984 86.4347 17.7871 86.7614 17.7871C87.0881 17.7871 87.3674 17.8984 87.5994 18.1209C87.8362 18.3435 87.9545 18.611 87.9545 18.9235C87.9545 19.236 87.8362 19.5035 87.5994 19.726C87.3674 19.9486 87.0881 20.0598 86.7614 20.0598ZM95.0586 37.1053C94.2489 37.1053 93.5529 37.0011 92.9705 36.7928C92.3881 36.5892 91.9028 36.3193 91.5146 35.9831C91.131 35.6517 90.8256 35.2966 90.5984 34.9178L91.9336 33.9803C92.0851 34.1792 92.2769 34.4064 92.5089 34.6621C92.7409 34.9225 93.0581 35.1474 93.4606 35.3368C93.8678 35.531 94.4004 35.628 95.0586 35.628C95.9393 35.628 96.6661 35.415 97.239 34.9888C97.8119 34.5627 98.0984 33.8951 98.0984 32.986V30.7701H97.9563C97.8332 30.9689 97.658 31.2151 97.4308 31.5087C97.2082 31.7975 96.8862 32.0556 96.4648 32.2828C96.0482 32.5054 95.4847 32.6167 94.7745 32.6167C93.8938 32.6167 93.1031 32.4083 92.4023 31.9917C91.7063 31.575 91.1547 30.9689 90.7475 30.1735C90.3451 29.378 90.1438 28.4121 90.1438 27.2757C90.1438 26.1583 90.3403 25.1853 90.7333 24.3567C91.1263 23.5234 91.6732 22.8794 92.3739 22.4249C93.0747 21.9656 93.8844 21.736 94.8029 21.736C95.5131 21.736 96.0766 21.8543 96.4933 22.0911C96.9147 22.3231 97.2366 22.5882 97.4592 22.8865C97.6864 23.1801 97.8616 23.4216 97.9847 23.611H98.1552V21.878H99.7745V33.0996C99.7745 34.0371 99.5614 34.7994 99.1353 35.3865C98.7139 35.9784 98.1457 36.4116 97.4308 36.6863C96.7205 36.9656 95.9298 37.1053 95.0586 37.1053ZM95.0018 31.111C95.6741 31.111 96.2423 30.9571 96.7063 30.6493C97.1703 30.3416 97.5231 29.8989 97.7646 29.3212C98.006 28.7435 98.1268 28.0523 98.1268 27.2473C98.1268 26.4614 98.0084 25.7677 97.7717 25.1664C97.5349 24.565 97.1845 24.0939 96.7205 23.753C96.2565 23.4121 95.6836 23.2417 95.0018 23.2417C94.2915 23.2417 93.6997 23.4216 93.2262 23.7814C92.7575 24.1413 92.4047 24.6242 92.168 25.2303C91.936 25.8364 91.82 26.5087 91.82 27.2473C91.82 28.0049 91.9383 28.6749 92.1751 29.2573C92.4165 29.8349 92.7717 30.2895 93.2404 30.6209C93.7139 30.9476 94.301 31.111 95.0018 31.111ZM102.843 32.7871V21.878H104.519V32.7871H102.843ZM103.695 20.0598C103.368 20.0598 103.087 19.9486 102.85 19.726C102.618 19.5035 102.502 19.236 102.502 18.9235C102.502 18.611 102.618 18.3435 102.85 18.1209C103.087 17.8984 103.368 17.7871 103.695 17.7871C104.022 17.7871 104.301 17.8984 104.533 18.1209C104.77 18.3435 104.888 18.611 104.888 18.9235C104.888 19.236 104.77 19.5035 104.533 19.726C104.301 19.9486 104.022 20.0598 103.695 20.0598ZM112.333 21.878V23.2985H106.68V21.878H112.333ZM108.327 19.2644H110.004V29.6621C110.004 30.1356 110.072 30.4907 110.21 30.7275C110.352 30.9595 110.531 31.1157 110.749 31.1962C110.972 31.272 111.206 31.3098 111.452 31.3098C111.637 31.3098 111.789 31.3004 111.907 31.2814C112.025 31.2578 112.12 31.2388 112.191 31.2246L112.532 32.7303C112.418 32.7729 112.26 32.8155 112.056 32.8581C111.853 32.9055 111.594 32.9292 111.282 32.9292C110.808 32.9292 110.344 32.8274 109.89 32.6238C109.44 32.4202 109.066 32.11 108.768 31.6934C108.474 31.2767 108.327 30.7511 108.327 30.1167V19.2644ZM118.065 33.0428C117.373 33.0428 116.746 32.9126 116.183 32.6522C115.619 32.387 115.172 32.0059 114.84 31.5087C114.509 31.0068 114.343 30.4007 114.343 29.6905C114.343 29.0655 114.466 28.5589 114.712 28.1706C114.959 27.7776 115.288 27.4699 115.7 27.2473C116.112 27.0248 116.566 26.8591 117.063 26.7502C117.565 26.6365 118.069 26.5466 118.576 26.4803C119.239 26.3951 119.776 26.3311 120.188 26.2885C120.605 26.2412 120.908 26.1631 121.097 26.0542C121.291 25.9453 121.388 25.7559 121.388 25.486V25.4292C121.388 24.7284 121.197 24.1839 120.813 23.7956C120.434 23.4074 119.859 23.2132 119.087 23.2132C118.287 23.2132 117.66 23.3884 117.205 23.7388C116.751 24.0892 116.431 24.4632 116.246 24.861L114.656 24.2928C114.94 23.6299 115.318 23.1138 115.792 22.7445C116.27 22.3704 116.791 22.11 117.354 21.9632C117.923 21.8117 118.481 21.736 119.031 21.736C119.381 21.736 119.783 21.7786 120.238 21.8638C120.697 21.9443 121.14 22.1124 121.566 22.3681C121.997 22.6238 122.354 23.0096 122.638 23.5257C122.923 24.0418 123.065 24.7331 123.065 25.5996V32.7871H121.388V31.3098H121.303C121.19 31.5466 121 31.7999 120.735 32.0698C120.47 32.3397 120.117 32.5693 119.677 32.7587C119.237 32.9481 118.699 33.0428 118.065 33.0428ZM118.32 31.5371C118.983 31.5371 119.542 31.4069 119.996 31.1465C120.456 30.8861 120.801 30.5499 121.033 30.138C121.27 29.726 121.388 29.2928 121.388 28.8382V27.3042C121.317 27.3894 121.161 27.4675 120.92 27.5385C120.683 27.6048 120.408 27.664 120.096 27.7161C119.788 27.7634 119.487 27.806 119.194 27.8439C118.905 27.8771 118.671 27.9055 118.491 27.9292C118.055 27.986 117.648 28.0783 117.269 28.2061C116.895 28.3292 116.592 28.5163 116.36 28.7672C116.133 29.0134 116.019 29.3496 116.019 29.7757C116.019 30.3581 116.235 30.7985 116.665 31.0968C117.101 31.3903 117.653 31.5371 118.32 31.5371ZM127.8 18.2417V32.7871H126.124V18.2417H127.8ZM143.37 25.5144C143.37 27.0485 143.093 28.3742 142.539 29.4917C141.985 30.6091 141.225 31.4708 140.259 32.0769C139.293 32.6829 138.19 32.986 136.95 32.986C135.709 32.986 134.606 32.6829 133.64 32.0769C132.674 31.4708 131.914 30.6091 131.36 29.4917C130.806 28.3742 130.529 27.0485 130.529 25.5144C130.529 23.9803 130.806 22.6545 131.36 21.5371C131.914 20.4197 132.674 19.5579 133.64 18.9519C134.606 18.3458 135.709 18.0428 136.95 18.0428C138.19 18.0428 139.293 18.3458 140.259 18.9519C141.225 19.5579 141.985 20.4197 142.539 21.5371C143.093 22.6545 143.37 23.9803 143.37 25.5144ZM141.665 25.5144C141.665 24.2549 141.455 23.1919 141.033 22.3255C140.617 21.459 140.051 20.8032 139.336 20.3581C138.626 19.9131 137.83 19.6905 136.95 19.6905C136.069 19.6905 135.271 19.9131 134.556 20.3581C133.846 20.8032 133.28 21.459 132.859 22.3255C132.442 23.1919 132.234 24.2549 132.234 25.5144C132.234 26.7739 132.442 27.8368 132.859 28.7033C133.28 29.5698 133.846 30.2256 134.556 30.6706C135.271 31.1157 136.069 31.3382 136.95 31.3382C137.83 31.3382 138.626 31.1157 139.336 30.6706C140.051 30.2256 140.617 29.5698 141.033 28.7033C141.455 27.8368 141.665 26.7739 141.665 25.5144ZM150.536 33.0144C149.513 33.0144 148.633 32.7729 147.894 32.29C147.156 31.807 146.587 31.1417 146.19 30.2942C145.792 29.4467 145.593 28.4784 145.593 27.3894C145.593 26.2814 145.797 25.3037 146.204 24.4561C146.616 23.6039 147.189 22.9386 147.923 22.4604C148.661 21.9775 149.523 21.736 150.508 21.736C151.275 21.736 151.966 21.878 152.582 22.1621C153.197 22.4462 153.701 22.8439 154.094 23.3553C154.487 23.8667 154.731 24.4632 154.826 25.1451H153.15C153.022 24.6479 152.738 24.2076 152.298 23.824C151.862 23.4358 151.275 23.2417 150.536 23.2417C149.883 23.2417 149.31 23.4121 148.817 23.753C148.33 24.0892 147.949 24.565 147.674 25.1806C147.404 25.7914 147.269 26.5087 147.269 27.3326C147.269 28.1754 147.402 28.9093 147.667 29.5343C147.937 30.1593 148.316 30.6446 148.803 30.9902C149.296 31.3359 149.873 31.5087 150.536 31.5087C150.972 31.5087 151.367 31.4329 151.722 31.2814C152.077 31.1299 152.378 30.9121 152.624 30.628C152.871 30.3439 153.046 30.003 153.15 29.6053H154.826C154.731 30.2492 154.497 30.8292 154.123 31.3453C153.754 31.8567 153.263 32.2639 152.653 32.5669C152.047 32.8652 151.341 33.0144 150.536 33.0144ZM161.85 33.0144C160.799 33.0144 159.892 32.7824 159.13 32.3184C158.372 31.8496 157.788 31.1962 157.376 30.3581C156.969 29.5153 156.765 28.5352 156.765 27.4178C156.765 26.3004 156.969 25.3155 157.376 24.4632C157.788 23.6062 158.361 22.9386 159.094 22.4604C159.833 21.9775 160.695 21.736 161.68 21.736C162.248 21.736 162.809 21.8307 163.363 22.0201C163.917 22.2095 164.421 22.5172 164.876 22.9434C165.33 23.3648 165.692 23.9235 165.962 24.6195C166.232 25.3155 166.367 26.1725 166.367 27.1905V27.9007H157.958V26.4519H164.663C164.663 25.8364 164.54 25.2871 164.293 24.8042C164.052 24.3212 163.706 23.94 163.256 23.6607C162.811 23.3813 162.286 23.2417 161.68 23.2417C161.012 23.2417 160.434 23.4074 159.947 23.7388C159.464 24.0655 159.092 24.4917 158.832 25.0172C158.571 25.5428 158.441 26.1062 158.441 26.7076V27.6735C158.441 28.4973 158.583 29.1957 158.867 29.7686C159.156 30.3368 159.556 30.7701 160.067 31.0684C160.579 31.3619 161.173 31.5087 161.85 31.5087C162.29 31.5087 162.688 31.4471 163.043 31.324C163.403 31.1962 163.713 31.0068 163.974 30.7559C164.234 30.5002 164.435 30.1829 164.577 29.8042L166.197 30.2587C166.026 30.8079 165.74 31.2909 165.337 31.7076C164.935 32.1195 164.438 32.4415 163.846 32.6735C163.254 32.9007 162.589 33.0144 161.85 33.0144ZM172.127 33.0428C171.436 33.0428 170.808 32.9126 170.245 32.6522C169.682 32.387 169.234 32.0059 168.903 31.5087C168.571 31.0068 168.406 30.4007 168.406 29.6905C168.406 29.0655 168.529 28.5589 168.775 28.1706C169.021 27.7776 169.35 27.4699 169.762 27.2473C170.174 27.0248 170.629 26.8591 171.126 26.7502C171.628 26.6365 172.132 26.5466 172.638 26.4803C173.301 26.3951 173.839 26.3311 174.251 26.2885C174.667 26.2412 174.97 26.1631 175.16 26.0542C175.354 25.9453 175.451 25.7559 175.451 25.486V25.4292C175.451 24.7284 175.259 24.1839 174.876 23.7956C174.497 23.4074 173.922 23.2132 173.15 23.2132C172.35 23.2132 171.722 23.3884 171.268 23.7388C170.813 24.0892 170.494 24.4632 170.309 24.861L168.718 24.2928C169.002 23.6299 169.381 23.1138 169.854 22.7445C170.333 22.3704 170.853 22.11 171.417 21.9632C171.985 21.8117 172.544 21.736 173.093 21.736C173.443 21.736 173.846 21.7786 174.3 21.8638C174.76 21.9443 175.202 22.1124 175.629 22.3681C176.059 22.6238 176.417 23.0096 176.701 23.5257C176.985 24.0418 177.127 24.7331 177.127 25.5996V32.7871H175.451V31.3098H175.366C175.252 31.5466 175.063 31.7999 174.798 32.0698C174.532 32.3397 174.18 32.5693 173.739 32.7587C173.299 32.9481 172.762 33.0428 172.127 33.0428ZM172.383 31.5371C173.046 31.5371 173.604 31.4069 174.059 31.1465C174.518 30.8861 174.864 30.5499 175.096 30.138C175.333 29.726 175.451 29.2928 175.451 28.8382V27.3042C175.38 27.3894 175.224 27.4675 174.982 27.5385C174.746 27.6048 174.471 27.664 174.158 27.7161C173.851 27.7634 173.55 27.806 173.256 27.8439C172.968 27.8771 172.733 27.9055 172.553 27.9292C172.118 27.986 171.71 28.0783 171.332 28.2061C170.958 28.3292 170.655 28.5163 170.423 28.7672C170.195 29.0134 170.082 29.3496 170.082 29.7757C170.082 30.3581 170.297 30.7985 170.728 31.0968C171.164 31.3903 171.715 31.5371 172.383 31.5371ZM181.863 26.2246V32.7871H180.186V21.878H181.806V23.5826H181.948C182.203 23.0286 182.592 22.5835 183.113 22.2473C183.633 21.9064 184.306 21.736 185.13 21.736C185.868 21.736 186.515 21.8875 187.069 22.1905C187.623 22.4888 188.053 22.9434 188.361 23.5542C188.669 24.1602 188.823 24.9273 188.823 25.8553V32.7871H187.147V25.9689C187.147 25.1119 186.924 24.4443 186.479 23.9661C186.034 23.4831 185.423 23.2417 184.647 23.2417C184.112 23.2417 183.633 23.3577 183.212 23.5897C182.795 23.8217 182.466 24.1602 182.225 24.6053C181.983 25.0504 181.863 25.5901 181.863 26.2246Z" fill="white"/>
</svg>
