<svg xmlns="http://www.w3.org/2000/svg" width="60" height="75" viewBox="0 0 60 75" fill="none"><g clip-path="url(#clip0_751_597)"><path d="M26.9595 0H39.2155V56.1735C32.9377 57.3609 28.3163 57.8281 23.3159 57.8281C8.3468 57.8125 0.554688 51.125 0.554688 38.2813C0.554688 25.9063 8.81999 17.875 21.6281 17.875C23.6156 17.875 25.1298 18.0314 26.9595 18.5V0ZM27.389 28.6231C25.9535 28.1543 24.7707 27.9981 23.2563 27.9981C17.0575 27.9981 13.4769 31.7792 13.4769 38.4057C13.4769 44.8574 16.8999 48.4198 23.1776 48.4198C24.534 48.4198 25.6381 48.3434 27.389 48.109V28.6231Z" fill="#2BA977"></path><path d="M59.2575 19.3831V47.5084C59.2575 57.1942 58.5319 61.852 56.4025 65.8678C54.4149 69.7285 51.7966 72.163 46.3863 74.8519L35.0137 69.4927C40.424 66.9784 43.0423 64.7567 44.7144 61.3661C46.465 57.899 47.0171 53.8832 47.0171 43.3207V19.3833L59.2575 19.3831ZM45.782 0H58.0381V12.4532H45.782V0Z" fill="#2BA977"></path></g><defs><clipPath id="clip0_751_597"><rect width="58.89" height="75" fill="white" transform="translate(0.554688)"></rect></clipPath></defs></svg>