<svg width="37" height="38" viewBox="0 0 37 38" fill="none" xmlns="http://www.w3.org/2000/svg">
<path fill-rule="evenodd" clip-rule="evenodd" d="M34.0949 18.9461C34.0949 28.0175 26.925 35.3713 18.0803 35.3713C18.0803 27.5951 20.3681 17.7728 31.8071 16.5996H33.9325C34.0409 17.3768 34.0951 18.1609 34.0949 18.9461Z" stroke="#4361EE" stroke-width="4" stroke-linecap="round" stroke-linejoin="round"/>
<mask id="path-2-inside-1_3093_5036" fill="white">
<path d="M4.53326 14.8489C3.5664 14.7499 2.7022 15.4533 2.60304 16.4201C2.50388 17.3871 3.2073 18.2513 4.17416 18.3503L4.53326 14.8489ZM18.0804 35.3712V37.1311C18.5471 37.1313 18.9948 36.9457 19.3247 36.6158C19.6548 36.2856 19.8402 35.8382 19.8402 35.3712H18.0804ZM32.1898 16.8448C32.3255 17.8073 33.2155 18.4777 34.1777 18.3423C35.1403 18.2069 35.8106 17.3169 35.6752 16.3544L32.1898 16.8448ZM4.35371 18.3594C5.32564 18.3594 6.11355 17.5715 6.11355 16.5996C6.11355 15.6277 5.32564 14.8397 4.35371 14.8397V18.3594ZM2.22834 14.8397C1.25641 14.8397 0.468497 15.6277 0.468497 16.5996C0.468497 17.5715 1.25641 18.3594 2.22834 18.3594V14.8397ZM4.35371 14.8397C3.38179 14.8397 2.59387 15.6277 2.59387 16.5996C2.59387 17.5715 3.38179 18.3594 4.35371 18.3594V14.8397ZM31.8071 18.3594C32.7793 18.3594 33.567 17.5715 33.567 16.5996C33.567 15.6277 32.7793 14.8397 31.8071 14.8397V18.3594ZM4.17416 18.3503C9.31393 18.8775 12.2446 21.2864 13.9713 24.3694C15.7592 27.5618 16.3205 31.6096 16.3205 35.3712H19.8402C19.8402 31.3567 19.2578 26.6053 17.042 22.6494C14.765 18.5837 10.8325 15.4951 4.53326 14.8489L4.17416 18.3503ZM18.0806 33.6114C10.5126 33.6107 4.20961 27.504 3.8439 19.6476L0.328014 19.8112C0.777501 29.4671 8.5544 37.1301 18.0804 37.1311L18.0806 33.6114ZM3.8439 19.6476C3.47806 11.7885 9.18922 5.08799 16.7269 4.34722L16.3827 0.844404C6.90435 1.7759 -0.121332 10.158 0.328014 19.8112L3.8439 19.6476ZM16.7269 4.34722C24.2583 3.60705 31.095 9.0646 32.1898 16.8448L35.6752 16.3544C34.3281 6.78225 25.8673 -0.0877016 16.3827 0.844404L16.7269 4.34722ZM4.35371 14.8397H2.22834V18.3594H4.35371V14.8397ZM4.35371 18.3594H31.8071V14.8397H4.35371V18.3594Z"/>
</mask>
<path d="M4.53326 14.8489C3.5664 14.7499 2.7022 15.4533 2.60304 16.4201C2.50388 17.3871 3.2073 18.2513 4.17416 18.3503L4.53326 14.8489ZM18.0804 35.3712V37.1311C18.5471 37.1313 18.9948 36.9457 19.3247 36.6158C19.6548 36.2856 19.8402 35.8382 19.8402 35.3712H18.0804ZM32.1898 16.8448C32.3255 17.8073 33.2155 18.4777 34.1777 18.3423C35.1403 18.2069 35.8106 17.3169 35.6752 16.3544L32.1898 16.8448ZM4.35371 18.3594C5.32564 18.3594 6.11355 17.5715 6.11355 16.5996C6.11355 15.6277 5.32564 14.8397 4.35371 14.8397V18.3594ZM2.22834 14.8397C1.25641 14.8397 0.468497 15.6277 0.468497 16.5996C0.468497 17.5715 1.25641 18.3594 2.22834 18.3594V14.8397ZM4.35371 14.8397C3.38179 14.8397 2.59387 15.6277 2.59387 16.5996C2.59387 17.5715 3.38179 18.3594 4.35371 18.3594V14.8397ZM31.8071 18.3594C32.7793 18.3594 33.567 17.5715 33.567 16.5996C33.567 15.6277 32.7793 14.8397 31.8071 14.8397V18.3594ZM4.17416 18.3503C9.31393 18.8775 12.2446 21.2864 13.9713 24.3694C15.7592 27.5618 16.3205 31.6096 16.3205 35.3712H19.8402C19.8402 31.3567 19.2578 26.6053 17.042 22.6494C14.765 18.5837 10.8325 15.4951 4.53326 14.8489L4.17416 18.3503ZM18.0806 33.6114C10.5126 33.6107 4.20961 27.504 3.8439 19.6476L0.328014 19.8112C0.777501 29.4671 8.5544 37.1301 18.0804 37.1311L18.0806 33.6114ZM3.8439 19.6476C3.47806 11.7885 9.18922 5.08799 16.7269 4.34722L16.3827 0.844404C6.90435 1.7759 -0.121332 10.158 0.328014 19.8112L3.8439 19.6476ZM16.7269 4.34722C24.2583 3.60705 31.095 9.0646 32.1898 16.8448L35.6752 16.3544C34.3281 6.78225 25.8673 -0.0877016 16.3827 0.844404L16.7269 4.34722ZM4.35371 14.8397H2.22834V18.3594H4.35371V14.8397ZM4.35371 18.3594H31.8071V14.8397H4.35371V18.3594Z" fill="black"/>
<path d="M0.328014 19.8112L0.234949 17.8133L0.420947 21.809L0.328014 19.8112ZM16.3827 0.844404L18.3731 0.648803L14.3923 1.03987L16.3827 0.844404ZM4.17416 18.3503L6.16372 18.5543L6.52282 15.0529L4.53326 14.8489L2.5437 14.6448L2.1846 18.1462L4.17416 18.3503ZM2.08596 19.7293L1.99289 17.7315L0.234949 17.8133L0.328014 19.8112L0.42108 21.809L2.17902 21.7271L2.08596 19.7293ZM16.5547 2.5958L18.5451 2.40033L18.3731 0.648934L16.3827 0.844404L14.3923 1.03987L14.5643 2.79127L16.5547 2.5958ZM35.6752 16.3544L35.3966 14.3739L31.9112 14.8643L32.1898 16.8448L32.4685 18.8253L35.9539 18.3349L35.6752 16.3544ZM4.35371 14.8397H2.35371V18.3594H4.35371H6.35371V14.8397H4.35371ZM2.22834 18.3594H4.22834V14.8397H2.22834H0.228338V18.3594H2.22834ZM31.8071 14.8397H29.8071V18.3594H31.8071H33.8071V14.8397H31.8071ZM3.8439 19.6476L3.75096 17.6498L0.235082 17.8133L0.328014 19.8112L0.420947 21.809L3.93683 21.6455L3.8439 19.6476ZM16.7269 4.34722L18.7173 4.15161L18.3731 0.648803L16.3827 0.844404L14.3923 1.04001L14.7365 4.54282L16.7269 4.34722ZM4.53326 14.8489L4.94146 10.8698L4.94079 10.8697L4.53326 14.8489ZM2.60304 16.4201L-1.37608 16.0119L-1.37609 16.012L2.60304 16.4201ZM4.17416 18.3503L4.58235 14.3712L4.58169 14.3711L4.17416 18.3503ZM18.0804 35.3712V31.3712H14.0804V35.3712H18.0804ZM0.328014 19.8112L-3.66766 19.9972L-3.66766 19.9972L0.328014 19.8112ZM16.3827 0.844404L15.9915 -3.13642L15.9915 -3.13642L16.3827 0.844404ZM32.1898 16.8448L28.2289 17.4022L28.229 17.4029L32.1898 16.8448ZM34.1777 18.3423L33.6206 14.3813L33.6204 14.3813L34.1777 18.3423ZM35.6752 16.3544L39.6363 15.7972L39.6362 15.7969L35.6752 16.3544ZM13.9713 24.3694L10.4813 26.3239L10.4814 26.324L13.9713 24.3694ZM16.3205 35.3712H12.3205V39.3712H16.3205V35.3712ZM17.042 22.6494L13.5521 24.604L13.5522 24.6042L17.042 22.6494ZM18.0806 33.6114L22.0806 33.6116L22.0809 29.6118L18.081 29.6114L18.0806 33.6114ZM3.8439 19.6476L-0.151777 19.8336L-0.151777 19.8336L3.8439 19.6476ZM16.7269 4.34722L17.1181 8.32804L17.1181 8.32804L16.7269 4.34722ZM4.53326 14.8489L4.94079 10.8697C1.77685 10.5457 -1.05149 12.8475 -1.37608 16.0119L2.60304 16.4201L6.58217 16.8282C6.4559 18.0592 5.35596 18.9541 4.12573 18.8281L4.53326 14.8489ZM2.60304 16.4201L-1.37609 16.012C-1.70057 19.1763 0.601358 22.0053 3.76663 22.3295L4.17416 18.3503L4.58169 14.3711C5.81325 14.4972 6.70834 15.5979 6.58218 16.8281L2.60304 16.4201ZM18.0804 35.3712H14.0804V37.1311H18.0804H22.0804V35.3712H18.0804ZM18.0804 37.1311L18.0783 41.1311C19.6082 41.1318 21.0736 40.5237 22.1531 39.4442L19.3247 36.6158L16.4963 33.7874C16.9159 33.3677 17.486 33.1308 18.0824 33.1311L18.0804 37.1311ZM19.3247 36.6158L22.1531 39.4442C23.2333 38.364 23.8402 36.8991 23.8402 35.3712H19.8402H15.8402C15.8402 34.7772 16.0763 34.2073 16.4963 33.7874L19.3247 36.6158ZM19.8402 35.3712V31.3712H18.0804V35.3712V39.3712H19.8402V35.3712ZM32.1898 16.8448L28.229 17.4029C28.6727 20.552 31.5849 22.7465 34.735 22.3033L34.1777 18.3423L33.6204 14.3813C34.846 14.2089 35.9782 15.0626 36.1507 16.2867L32.1898 16.8448ZM34.1777 18.3423L34.7349 22.3033C37.8854 21.8601 40.0793 18.9469 39.6363 15.7972L35.6752 16.3544L31.7142 16.9115C31.542 15.6869 32.3951 14.5537 33.6206 14.3813L34.1777 18.3423ZM4.35371 18.3594V22.3594C7.53481 22.3594 10.1136 19.7806 10.1136 16.5996H6.11355H2.11355C2.11355 15.3624 3.11646 14.3594 4.35371 14.3594V18.3594ZM6.11355 16.5996H10.1136C10.1136 13.4186 7.53481 10.8397 4.35371 10.8397V14.8397V18.8397C3.11646 18.8397 2.11355 17.8368 2.11355 16.5996H6.11355ZM2.22834 14.8397V10.8397C-0.95276 10.8397 -3.5315 13.4186 -3.5315 16.5996H0.468497H4.4685C4.4685 17.8368 3.46559 18.8397 2.22834 18.8397V14.8397ZM0.468497 16.5996H-3.5315C-3.5315 19.7806 -0.95276 22.3594 2.22834 22.3594V18.3594V14.3594C3.46559 14.3594 4.4685 15.3624 4.4685 16.5996H0.468497ZM4.35371 14.8397V10.8397C1.17261 10.8397 -1.40613 13.4186 -1.40613 16.5996H2.59387H6.59387C6.59387 17.8368 5.59096 18.8397 4.35371 18.8397V14.8397ZM2.59387 16.5996H-1.40613C-1.40613 19.7806 1.17261 22.3594 4.35371 22.3594V18.3594V14.3594C5.59096 14.3594 6.59387 15.3624 6.59387 16.5996H2.59387ZM31.8071 18.3594V22.3594C34.9887 22.3594 37.567 19.7803 37.567 16.5996H33.567H29.567C29.567 15.3627 30.5698 14.3594 31.8071 14.3594V18.3594ZM33.567 16.5996H37.567C37.567 13.4189 34.9887 10.8397 31.8071 10.8397V14.8397V18.8397C30.5698 18.8397 29.567 17.8365 29.567 16.5996H33.567ZM4.17416 18.3503L3.76597 22.3294C7.58849 22.7215 9.38038 24.3581 10.4813 26.3239L13.9713 24.3694L17.4612 22.4149C15.1089 18.2147 11.0394 15.0335 4.58235 14.3712L4.17416 18.3503ZM13.9713 24.3694L10.4814 26.324C11.7833 28.6485 12.3205 31.8967 12.3205 35.3712H16.3205H20.3205C20.3205 31.3226 19.7352 26.475 17.4612 22.4148L13.9713 24.3694ZM16.3205 35.3712V39.3712H19.8402V35.3712V31.3712H16.3205V35.3712ZM19.8402 35.3712H23.8402C23.8402 31.0692 23.2337 25.5183 20.5319 20.6947L17.042 22.6494L13.5522 24.6042C15.282 27.6924 15.8402 31.6442 15.8402 35.3712H19.8402ZM17.042 22.6494L20.532 20.6949C17.6296 15.5125 12.5585 11.6512 4.94146 10.8698L4.53326 14.8489L4.12506 18.828C9.10647 19.339 11.9005 21.655 13.5521 24.604L17.042 22.6494ZM18.0806 33.6114L18.081 29.6114C12.7351 29.6109 8.10995 25.27 7.83957 19.4616L3.8439 19.6476L-0.151777 19.8336C0.309276 29.738 8.29013 37.6105 18.0802 37.6114L18.0806 33.6114ZM0.328014 19.8112L-3.66766 19.9972C-3.12309 31.6956 6.32656 41.1299 18.08 41.1311L18.0804 37.1311L18.0807 33.1311C10.7823 33.1303 4.6781 27.2386 4.32369 19.6252L0.328014 19.8112ZM18.0804 37.1311L22.0804 37.1313L22.0806 33.6116L18.0806 33.6114L14.0806 33.6111L14.0804 37.1308L18.0804 37.1311ZM3.8439 19.6476L7.83957 19.4616C7.56879 13.6445 11.783 8.85236 17.1181 8.32804L16.7269 4.34722L16.3357 0.366393C6.59544 1.32363 -0.612666 9.93251 -0.151777 19.8336L3.8439 19.6476ZM16.3827 0.844404L15.9915 -3.13642C4.30539 -1.98795 -4.21181 8.30732 -3.66766 19.9972L0.328014 19.8112L4.32369 19.6252C3.96915 12.0086 9.50332 5.53975 16.7739 4.82523L16.3827 0.844404ZM16.7269 4.34722L17.1181 8.32804C22.4326 7.80575 27.421 11.6614 28.2289 17.4022L32.1898 16.8448L36.1508 16.2874C34.769 6.4678 26.0841 -0.591647 16.3357 0.366393L16.7269 4.34722ZM35.6752 16.3544L39.6362 15.7969C38.0029 4.19087 27.6983 -4.28692 15.9915 -3.13642L16.3827 0.844404L16.7739 4.82523C24.0363 4.11152 30.6534 9.37362 31.7143 16.9118L35.6752 16.3544ZM4.35371 14.8397V10.8397H2.22834V14.8397V18.8397H4.35371V14.8397ZM2.22834 18.3594V22.3594H4.35371V18.3594V14.3594H2.22834V18.3594ZM4.35371 18.3594V22.3594H31.8071V18.3594V14.3594H4.35371V18.3594ZM31.8071 14.8397V10.8397H4.35371V14.8397V18.8397H31.8071V14.8397Z" fill="#4361EE" mask="url(#path-2-inside-1_3093_5036)"/>
</svg>
