<svg width="80" height="80" viewBox="0 0 80 80" fill="none" xmlns="http://www.w3.org/2000/svg">
<path d="M0 37.1014C0 19.6117 0 10.8668 5.43338 5.43338C10.8668 0 19.6117 0 37.1014 0H42.9C60.3898 0 69.1347 0 74.5681 5.43338C80.0014 10.8668 80.0014 19.6117 80.0014 37.1014V42.9C80.0014 60.3898 80.0014 69.1347 74.5681 74.5681C69.1347 80.0014 60.3898 80.0014 42.9 80.0014H37.1014C19.6117 80.0014 10.8668 80.0014 5.43338 74.5681C0 69.1347 0 60.3898 0 42.9V37.1014Z" fill="#1B1D1E"/>
<g clip-path="url(#clip0_20566_40035)">
<g clip-path="url(#clip1_20566_40035)">
<path d="M61.0378 34.7727C60.9191 34.6365 59.8438 33.4979 57.5361 33.4979C56.9391 33.4979 56.3211 33.5806 55.7241 33.7217C55.2877 29.4789 52.7601 27.4256 52.6589 27.3186L52.0409 26.8174L51.6429 27.6203C51.1472 28.7004 50.7666 29.9217 50.5502 31.1673C50.1312 33.5806 50.3896 35.8529 51.2659 37.7942C50.2115 38.6262 48.5008 38.8209 48.1412 38.8501H19.8869C19.1502 38.8501 18.5532 39.6821 18.5532 40.7087C18.5148 44.1487 18.9303 47.5838 19.7856 50.8292C20.7597 54.3762 22.212 57.0134 24.0833 58.619C26.192 60.4193 29.6343 61.4459 33.5131 61.4459C35.2622 61.4459 37.0147 61.2221 38.7464 60.7793C41.1553 60.1711 43.463 59.0034 45.5892 57.315C47.3417 55.8991 48.9128 54.0989 50.2464 51.9921C52.4948 48.4694 53.8284 44.5331 54.8025 41.0396C54.9421 41.0396 55.0608 41.0396 55.2005 41.0396C57.6478 41.0396 59.1595 39.6821 59.9939 38.5143C60.5525 37.7942 60.9679 36.9038 61.2682 35.9064L61.4462 35.1863L61.0378 34.7727ZM43.5503 37.7115H47.3313C47.5093 37.7115 47.6699 37.5169 47.6699 37.2396V32.5248C47.6699 32.2766 47.5303 32.0528 47.3313 32.0528H43.5503C43.3722 32.0528 43.2116 32.2474 43.2116 32.5248V37.2396C43.2326 37.5169 43.3722 37.7115 43.5503 37.7115ZM38.2786 24.2095H42.0595C42.2376 24.2095 42.3982 24.0149 42.3982 23.7375V19.0227C42.3982 18.7746 42.2376 18.5508 42.0595 18.5508H38.2786C38.1005 18.5508 37.9399 18.7454 37.9399 19.0227V23.7375C37.9399 23.9857 38.097 24.2095 38.2786 24.2095ZM38.2786 30.9727H42.0595C42.2376 30.9727 42.3982 30.7488 42.3982 30.5007V25.7859C42.3982 25.5378 42.2376 25.314 42.0595 25.314H38.2786C38.1005 25.314 37.9399 25.5086 37.9399 25.7859V30.5007C37.9399 30.7537 38.097 30.9727 38.2786 30.9727ZM33.0452 30.9727H36.8262C37.0043 30.9727 37.1649 30.7488 37.1649 30.5007V25.7859C37.1649 25.5378 37.0252 25.314 36.8262 25.314H33.0452C32.8672 25.314 32.7066 25.5086 32.7066 25.7859V30.5007C32.7066 30.7537 32.8462 30.9727 33.0452 30.9727ZM27.7316 30.9727H31.5126C31.6906 30.9727 31.8512 30.7488 31.8512 30.5007V25.7859C31.8512 25.5378 31.7116 25.314 31.5126 25.314H27.7316C27.5536 25.314 27.393 25.5086 27.393 25.7859V30.5007C27.4139 30.7537 27.5536 30.9727 27.7316 30.9727ZM38.2786 37.7115H42.0595C42.2376 37.7115 42.3982 37.5169 42.3982 37.2396V32.5248C42.3982 32.2766 42.2585 32.0528 42.0595 32.0528H38.2786C38.1005 32.0528 37.9399 32.2474 37.9399 32.5248V37.2396C37.9399 37.5169 38.097 37.7115 38.2786 37.7115ZM33.0452 37.7115H36.8262C37.0043 37.7115 37.1649 37.5169 37.1649 37.2396V32.5248C37.1649 32.2766 37.0252 32.0528 36.8262 32.0528H33.0452C32.8672 32.0528 32.7066 32.2474 32.7066 32.5248V37.2396C32.7066 37.5169 32.8462 37.7115 33.0452 37.7115ZM27.7316 37.7115H31.5126C31.6906 37.7115 31.8512 37.5169 31.8512 37.2396V32.5248C31.8512 32.2766 31.7116 32.0528 31.5126 32.0528H27.7316C27.5536 32.0528 27.393 32.2474 27.393 32.5248V37.2396C27.4139 37.5169 27.5536 37.7115 27.7316 37.7115ZM22.5192 37.7115H26.3002C26.4783 37.7115 26.6389 37.5169 26.6389 37.2396V32.5248C26.6389 32.2766 26.4992 32.0528 26.3002 32.0528H22.5192C22.3412 32.0528 22.1806 32.2474 22.1806 32.5248V37.2396C22.2015 37.5169 22.3412 37.7115 22.5192 37.7115Z" fill="#0091E2"/>
</g>
</g>
<defs>
<clipPath id="clip0_20566_40035">
<rect width="42.9" height="42.9" fill="white" transform="translate(18.5508 18.5508)"/>
</clipPath>
<clipPath id="clip1_20566_40035">
<rect width="42.9" height="42.9" fill="white" transform="translate(18.5508 18.5508)"/>
</clipPath>
</defs>
</svg>
