<svg width="50" height="44" viewBox="0 0 50 44" fill="none" xmlns="http://www.w3.org/2000/svg">
<g clip-path="url(#clip0_22469_24020)">
<path d="M25.0127 44.009L34.2127 16.9844H15.8125L25.0127 44.009Z" fill="#E24329"/>
<path d="M25.0154 44.009L15.8152 16.9844H2.92188L25.0154 44.009Z" fill="#FC6D26"/>
<path d="M2.92019 16.9844L0.124492 25.1971C0.000186155 25.5622 0.000169007 25.9555 0.124443 26.3206C0.248717 26.6857 0.490901 27.0039 0.816289 27.2296L25.0137 44.0092L2.92 16.9846L2.92019 16.9844Z" fill="#FCA326"/>
<path d="M2.92188 16.9831H15.8152L10.2744 0.706228C9.98926 -0.131336 8.74785 -0.13115 8.46289 0.706228L2.92188 16.9831Z" fill="#E24329"/>
<path d="M25.0158 44.009L34.2158 16.9844H47.1094L25.0158 44.009Z" fill="#FC6D26"/>
<path d="M47.1092 16.9844L49.9049 25.1971C50.0292 25.5622 50.0292 25.9555 49.9048 26.3206C49.7805 26.6858 49.5383 27.0039 49.2129 27.2296L25.0156 44.0092L47.1092 16.9846V16.9844Z" fill="#FCA326"/>
<path d="M47.1045 16.9831H34.2109L39.752 0.706228C40.0371 -0.131336 41.2785 -0.13115 41.5635 0.706228L47.1045 16.9831Z" fill="#E24329"/>
</g>
<defs>
<clipPath id="clip0_22469_24020">
<rect width="50" height="44" fill="white"/>
</clipPath>
</defs>
</svg>
