<svg width="64" height="64" viewBox="0 0 64 64" fill="none" xmlns="http://www.w3.org/2000/svg">
<path d="M52.3604 39.5546C54.6132 39.2803 59.5813 38.6898 60.4658 39.829C61.3498 40.9473 59.4763 45.6525 58.6341 47.7411C58.3815 48.3742 58.9289 48.6273 59.4972 48.1421C63.2024 45.0194 64.1709 38.4995 63.4132 37.5501C62.655 36.6221 56.15 35.82 52.1919 38.6053C51.5813 39.0482 51.6867 39.6391 52.3604 39.5546Z" fill="#FF9900"/>
<path d="M31.9372 50.9675C40.59 50.9675 50.653 48.2453 57.5795 43.1185C58.7161 42.2746 57.7267 40.9877 56.5687 41.5151C48.8004 44.8064 40.3584 46.4102 32.6741 46.4102C21.2847 46.4102 10.2741 43.2666 1.34823 38.0762C0.568708 37.6119 -0.0205182 38.4136 0.631855 39.0046C8.88487 46.4734 19.8109 50.9675 31.9372 50.9675Z" fill="#FF9900"/>
<path d="M18.1901 26.8087C18.1901 27.5895 18.2741 28.2223 18.4213 28.6865C18.6085 29.2087 18.8338 29.7163 19.0955 30.2054C19.2004 30.3744 19.2427 30.5434 19.2427 30.691C19.2427 30.9022 19.1164 31.1134 18.8425 31.3242L17.5164 32.2103C17.3269 32.3366 17.1371 32.4002 16.969 32.4002C16.7582 32.4002 16.5478 32.2944 16.3375 32.1045C16.0537 31.799 15.7998 31.467 15.5793 31.113C15.3439 30.7075 15.1261 30.2921 14.9265 29.8679C13.2847 31.8093 11.2213 32.7799 8.73728 32.7799C6.96875 32.7799 5.55862 32.2735 4.52694 31.261C3.49526 30.2481 2.96875 28.8973 2.96875 27.2098C2.96875 25.4161 3.60022 23.9603 4.88448 22.8634C6.16875 21.766 7.87414 21.2177 10.0429 21.2177C10.7584 21.2177 11.4953 21.2808 12.2744 21.3862C13.053 21.4921 13.853 21.6606 14.6953 21.8505V20.3102C14.6953 18.7068 14.3582 17.5885 13.7054 16.9344C13.0321 16.2803 11.895 15.9642 10.2741 15.9642C9.53728 15.9642 8.77952 16.0482 8.00043 16.2381C7.22644 16.423 6.46661 16.6628 5.72672 16.9557C5.48733 17.0631 5.24119 17.1547 4.98987 17.2301C4.84267 17.2719 4.73728 17.2932 4.6528 17.2932C4.3584 17.2932 4.21078 17.0825 4.21078 16.6391V15.6053C4.21078 15.2678 4.25344 15.0144 4.3584 14.8672C4.46336 14.7191 4.6528 14.5715 4.94763 14.4235C5.68448 14.0437 6.56896 13.7276 7.60022 13.4741C8.6319 13.2002 9.72715 13.0731 10.8847 13.0731C13.3901 13.0731 15.2213 13.6431 16.4002 14.7823C17.5582 15.9215 18.1478 17.652 18.1478 19.9727V26.8087H18.1901ZM9.64267 30.016C10.3373 30.016 11.0532 29.8893 11.811 29.6363C12.5687 29.3828 13.2425 28.9186 13.8108 28.2859C14.1478 27.8848 14.4004 27.4419 14.5267 26.9355C14.653 26.429 14.7371 25.8172 14.7371 25.0999V24.2138C14.0987 24.0581 13.4522 23.9385 12.8004 23.8554C12.1441 23.7717 11.4832 23.7292 10.8215 23.7282C9.41099 23.7282 8.37931 24.0026 7.6847 24.5722C6.99008 25.1422 6.65302 25.9439 6.65302 26.9986C6.65302 27.9902 6.9056 28.7287 7.43211 29.2352C7.93728 29.7626 8.67414 30.016 9.64224 30.016H9.64267ZM26.5476 32.2944C26.1687 32.2944 25.9162 32.2313 25.7476 32.0836C25.5795 31.9569 25.4319 31.6612 25.3056 31.2606L20.3584 14.9513C20.2321 14.5289 20.169 14.2549 20.169 14.1073C20.169 13.7698 20.3371 13.5799 20.6741 13.5799H22.7371C23.1373 13.5799 23.4112 13.6431 23.5584 13.7907C23.7269 13.9174 23.8528 14.2131 23.9795 14.6138L27.5166 28.5811L30.8006 14.6138C30.9056 14.1914 31.0319 13.9174 31.2004 13.7907C31.369 13.664 31.6634 13.5799 32.0427 13.5799H33.7267C34.1269 13.5799 34.4004 13.6431 34.569 13.7907C34.7375 13.9174 34.8847 14.2131 34.9687 14.6138L38.295 28.7501L41.9375 14.6138C42.0634 14.1914 42.2106 13.9174 42.3582 13.7907C42.5267 13.664 42.8002 13.5799 43.1795 13.5799H45.1371C45.4741 13.5799 45.6636 13.7485 45.6636 14.1073C45.6636 14.2127 45.6427 14.3181 45.6213 14.4448C45.5884 14.6247 45.5392 14.8012 45.4741 14.9722L40.4006 31.2823C40.2739 31.7043 40.1267 31.9782 39.9582 32.105C39.7901 32.2317 39.5162 32.3162 39.1582 32.3162H37.3478C36.9476 32.3162 36.6737 32.2526 36.5056 32.105C36.3375 31.9573 36.1899 31.683 36.1058 31.261L32.8427 17.6525L29.6004 31.2401C29.495 31.6621 29.3687 31.9364 29.2002 32.0841C29.0321 32.2317 28.7373 32.2948 28.3584 32.2948L26.5476 32.2944ZM53.6004 32.8644C52.5056 32.8644 51.4108 32.7377 50.3582 32.4847C49.3056 32.2313 48.4847 31.9569 47.9373 31.6403C47.6002 31.4505 47.369 31.2393 47.2845 31.0498C47.2026 30.8635 47.1596 30.6624 47.1582 30.4589V29.3828C47.1582 28.9399 47.3267 28.7287 47.6425 28.7287C47.7687 28.7287 47.895 28.7501 48.0213 28.7919C48.1476 28.8346 48.3371 28.9186 48.5478 29.0031C49.2914 29.3307 50.0678 29.5782 50.8638 29.7412C51.7056 29.9102 52.5269 29.9947 53.3687 29.9947C54.6953 29.9947 55.7269 29.7626 56.4425 29.2983C57.1584 28.8341 57.5373 28.1591 57.5373 27.2939C57.5373 26.7034 57.3478 26.2182 56.969 25.8172C56.5901 25.4161 55.8741 25.0577 54.8425 24.7202L51.7901 23.7705C50.2532 23.2853 49.1162 22.5681 48.4215 21.6183C47.7269 20.6899 47.369 19.6561 47.369 18.5591C47.369 17.673 47.5584 16.8922 47.9373 16.2172C48.3162 15.5422 48.8213 14.9513 49.4532 14.487C50.0847 14.0019 50.8002 13.6431 51.6425 13.3901C52.4847 13.1366 53.3687 13.0312 54.295 13.0312C54.7584 13.0312 55.2427 13.0526 55.7056 13.1157C56.1899 13.1789 56.6319 13.2634 57.0739 13.3478C57.495 13.4532 57.8953 13.5586 58.2741 13.6849C58.653 13.812 58.9478 13.9383 59.1582 14.0651C59.453 14.234 59.6638 14.4026 59.7901 14.5924C59.9164 14.7614 59.9795 14.9935 59.9795 15.2887V16.2807C59.9795 16.7241 59.811 16.9562 59.4953 16.9562C59.3267 16.9562 59.0532 16.8717 58.6953 16.7027C57.495 16.1545 56.1476 15.8801 54.653 15.8801C53.4532 15.8801 52.5056 16.07 51.8532 16.4706C51.2004 16.8717 50.8638 17.4835 50.8638 18.3488C50.8638 18.9393 51.0741 19.4453 51.4953 19.8464C51.9164 20.2475 52.695 20.6485 53.8108 21.0069L56.8004 21.9567C58.3164 22.4418 59.4108 23.1172 60.0636 23.9821C60.7164 24.8469 61.0321 25.8385 61.0321 26.9359C61.0321 27.843 60.8427 28.666 60.4847 29.3833C60.1058 30.1005 59.6006 30.7337 58.9478 31.2401C58.295 31.7675 57.5164 32.1472 56.611 32.4215C55.6638 32.7168 54.6739 32.8644 53.6004 32.8644Z" fill="#A3ACB5"/>
</svg>
