<svg width="35" height="23" viewBox="0 0 35 23" fill="none" xmlns="http://www.w3.org/2000/svg">
<path fill-rule="evenodd" clip-rule="evenodd" d="M12.533 7.50234C13.1634 8.13396 13.5479 9.02746 13.5479 9.99799C13.5479 10.9839 13.1481 11.8774 12.5022 12.5244L12.4714 12.5553C12.3792 12.6477 12.2715 12.7401 12.1639 12.8171C13.1019 13.1561 13.9323 13.6952 14.6243 14.3885C14.9319 14.6812 15.1933 15.0047 15.4394 15.359V4.52914H4.52109V15.359C4.75176 15.0047 5.02856 14.6812 5.32074 14.3885C6.01274 13.6952 6.84315 13.1561 7.78119 12.8171C7.65817 12.7247 7.55053 12.6323 7.44288 12.5244C6.79701 11.8774 6.39719 10.9839 6.39719 9.99799C6.39719 9.01206 6.79701 8.10315 7.44288 7.45613C8.08875 6.80911 8.98067 6.40857 9.98023 6.40857C10.9644 6.40857 11.8563 6.80911 12.5022 7.45613L12.533 7.50234ZM8.24253 11.7234C8.68849 12.1701 9.3036 12.4474 9.98023 12.4474C10.6415 12.4474 11.2412 12.1855 11.6718 11.7542L11.7025 11.7234C12.1485 11.2766 12.4253 10.6758 12.4253 9.99799C12.4253 9.33557 12.1639 8.71936 11.7333 8.28801L11.7025 8.2572C11.2566 7.81045 10.6569 7.54856 9.98023 7.54856C9.3036 7.54856 8.68849 7.81045 8.24253 8.2572C7.79657 8.70395 7.53515 9.32016 7.53515 9.99799C7.53515 10.6758 7.79657 11.2766 8.24253 11.7234ZM4.55185 18.4709H15.4086C15.2702 17.1922 14.6859 16.0522 13.8247 15.1741C12.8405 14.1882 11.4719 13.572 9.98023 13.572C8.4732 13.572 7.10457 14.1882 6.12039 15.1741C5.25923 16.0522 4.67487 17.1922 4.55185 18.4709ZM1.84534 23H33.1547C33.6621 23 34.1235 22.7997 34.4618 22.4608C34.8001 22.1219 35 21.6597 35 21.1514V1.84863C35 1.35566 34.8155 0.893503 34.4925 0.569993L34.4618 0.539183C34.1235 0.215673 33.6621 0 33.1547 0H1.84534C1.33787 0 0.876538 0.215673 0.538225 0.539183C0.199912 0.878098 0 1.34025 0 1.84863V21.1514C0 21.6443 0.199912 22.1065 0.507469 22.43L0.538225 22.4608C0.876538 22.7997 1.33787 23 1.84534 23ZM25.0351 18.4709C25.3427 18.4709 25.5888 18.7328 25.5888 19.0409C25.5888 19.349 25.3427 19.6108 25.0351 19.6108H20.5141C20.2065 19.6108 19.9451 19.349 19.9451 19.0409C19.9451 18.7328 20.2065 18.4709 20.5141 18.4709H25.0351ZM29.5409 14.5733H20.5141C20.2065 14.5733 19.9451 14.3269 19.9451 14.0188C19.9451 13.6952 20.2065 13.4488 20.5141 13.4488H29.5409C29.8638 13.4488 30.1098 13.6952 30.1098 14.0188C30.1098 14.3269 29.8638 14.5733 29.5409 14.5733ZM20.5141 9.55124C20.2065 9.55124 19.9451 9.30476 19.9451 8.98125C19.9451 8.67314 20.2065 8.42666 20.5141 8.42666H29.5409C29.8638 8.42666 30.1098 8.67314 30.1098 8.98125C30.1098 9.30476 29.8638 9.55124 29.5409 9.55124H20.5141ZM20.5141 4.52914C20.2065 4.52914 19.9451 4.26725 19.9451 3.95914C19.9451 3.65104 20.2065 3.38915 20.5141 3.38915H29.5409C29.8638 3.38915 30.1098 3.65104 30.1098 3.95914C30.1098 4.26725 29.8638 4.52914 29.5409 4.52914H20.5141ZM16.562 3.95914V19.0409C16.562 19.349 16.3159 19.6108 15.993 19.6108H3.95211C3.64455 19.6108 3.38313 19.349 3.38313 19.0409V3.95914C3.38313 3.65104 3.64455 3.38915 3.95211 3.38915H15.993C16.3159 3.38915 16.562 3.65104 16.562 3.95914Z" fill="#6981F1"/>
</svg>
