<svg width="50" height="50" viewBox="0 0 50 50" fill="none" xmlns="http://www.w3.org/2000/svg"><path fill-rule="evenodd" clip-rule="evenodd" d="M16.883 18.796v11.603h3.122l-.552-.956a.585.585 0 0 1 .147-.755l1.005-.785a6.1 6.1 0 0 1 0-2.853l-1.005-.785a.585.585 0 0 1-.147-.755l.97-1.68a.585.585 0 0 1 .727-.252l1.184.48a6.05 6.05 0 0 1 2.47-1.428l.178-1.264a.585.585 0 0 1 .58-.504h1.94c.294 0 .541.215.582.504l.177 1.264q.113.034.225.073v-1.907zm20.338-2.683a14.55 14.55 0 0 0-6.774-5.265l2.019-5.153.005.002c7.733 2.961 12.93 10.517 12.93 18.8 0 11.097-9.029 20.124-20.125 20.124a.586.586 0 0 0-.586.586v.777l-4.133-4.132 4.133-4.133v.785c0 .323.262.586.586.586 8.046 0 14.593-6.546 14.593-14.593a14.5 14.5 0 0 0-2.648-8.384M12.803 32.787a14.57 14.57 0 0 0 6.74 5.253l-2.338 5.027-.026-.011A20.05 20.05 0 0 1 4.625 24.403c0-11.096 9.027-20.124 20.124-20.124a.586.586 0 0 0 .586-.586v-.777l4.133 4.133-4.133 4.133v-.786a.586.586 0 0 0-.586-.585c-8.047 0-14.593 6.546-14.593 14.592a14.5 14.5 0 0 0 2.647 8.384m13.73-8.991a2.684 2.684 0 0 1 2.68 2.68 2.684 2.684 0 0 1-2.68 2.681 2.683 2.683 0 0 1-2.68-2.68 2.683 2.683 0 0 1 2.68-2.681m-1.075-2.125a.59.59 0 0 0 .452-.491l.16-1.146h.923l.16 1.146a.59.59 0 0 0 .453.49q.623.14 1.181.429l.024.011c.5.262.955.61 1.345 1.034.165.18.424.238.65.146l1.075-.434.46.798-.911.712a.59.59 0 0 0-.199.638 4.93 4.93 0 0 1 0 2.946.585.585 0 0 0 .199.637l.912.712-.461.799-1.074-.435a.58.58 0 0 0-.65.147 4.9 4.9 0 0 1-2.55 1.472.59.59 0 0 0-.454.491l-.16 1.147h-.923l-.16-1.147a.59.59 0 0 0-.452-.49 4.9 4.9 0 0 1-2.55-1.473.58.58 0 0 0-.65-.147l-1.074.435-.461-.8.912-.711a.585.585 0 0 0 .198-.637 4.94 4.94 0 0 1 0-2.946.59.59 0 0 0-.198-.638l-.912-.712.46-.799 1.075.435a.585.585 0 0 0 .65-.146 4.9 4.9 0 0 1 2.55-1.473m-2.778 4.806a3.857 3.857 0 0 1 3.852-3.853 3.857 3.857 0 0 1 3.853 3.853 3.857 3.857 0 0 1-3.853 3.852 3.857 3.857 0 0 1-3.852-3.852" fill="#fff"/></svg>