<svg width="74" height="74" viewBox="0 0 74 74" fill="none" xmlns="http://www.w3.org/2000/svg"><path d="M28.482 22.42h-9.644l-4.736 15.626c7.67 8.646 17.797 16.305 21.805 19.191.592.432 1.394.37 1.912-.148.283-.284.431-.654.431-1.048a1.47 1.47 0 0 0-.431-1.061l-2.59-2.59-2.96-2.96a1.229 1.229 0 1 1 1.739-1.74l6.894 6.895c.752.74 1.973.74 2.713 0s.753-1.948.025-2.7l-6.093-6.303a1.244 1.244 0 0 1 .037-1.751 1.23 1.23 0 0 1 1.74.037l.974.999 5.118 5.303 1.369 1.406a2.004 2.004 0 0 0 2.787.099c.42-.37.666-.888.679-1.456a2.05 2.05 0 0 0-.617-1.492l-4.563-4.428-3.01-2.91a1.217 1.217 0 0 1-.024-1.74 1.217 1.217 0 0 1 1.739-.024l8.83 8.547c.753.715 1.9.715 2.627-.012.383-.358.58-.851.568-1.37a1.86 1.86 0 0 0-.617-1.356L38.46 30.128c-2.775.53-5.205 3.133-5.23 3.158a.9.9 0 0 1-.234.197c-4.588 2.972-7.289.567-7.4.469-2.43-2.208-1.27-5.686-.21-7.4a26 26 0 0 1 3.096-4.132" fill="#f5fafe"/><path d="M40.552 19.817c-1.308-.518-2.726-.555-3.984-.086-2.43.875-5.957 3.009-9.09 8.115-.024.037-1.751 2.898-.222 4.28.037.037 1.456 1.147 4.28-.642.63-.653 3.638-3.552 7.215-3.885.345-.037.69.087.95.321l17.143 15.7c.012 0 .012 0 .012.013 1.394-.346 2.38-1.53 2.825-2.183l-6.044-16.428zm25.923-.121c-2.32.16-7.08.653-10.077 1.912-.666.283-.999 1.085-.74 1.776l7.301 19.832c.21.542.74.925 1.333.925h2.269c.703 0 1.27-.568 1.27-1.27V20.953c0-.74-.616-1.32-1.356-1.258M7.434 40.984H9.58c.63 0 1.172-.395 1.357-1l5.982-19.782a1.41 1.41 0 0 0-.753-1.702c-3.404-1.517-6.61-1.936-8.682-2.023a1.265 1.265 0 0 0-1.32 1.27v21.966c0 .703.567 1.27 1.27 1.27" fill="#f5fafe"/></svg>