<svg width="50" height="50" viewBox="0 0 50 50" fill="none" xmlns="http://www.w3.org/2000/svg"><g clip-path="url(#a)"><path d="M48.344 48.345a5.68 5.68 0 0 0 0-8.018L36.747 28.73a19.55 19.55 0 0 0-3.42-23.012c-7.613-7.612-19.998-7.612-27.61 0s-7.612 19.997 0 27.61a19.55 19.55 0 0 0 23.012 3.42l11.597 11.596a5.683 5.683 0 0 0 8.017 0M7.374 31.67c-6.698-6.7-6.698-17.597 0-24.295a17.179 17.179 0 1 1 0 24.295m34.609 15.017L30.776 35.48a19.8 19.8 0 0 0 4.703-4.703l11.207 11.207a3.326 3.326 0 0 1-4.703 4.703M19.522 7.898a9.871 9.871 0 0 0-6.109 17.626 1.74 1.74 0 0 1 .69 1.424v1.619a3.99 3.99 0 0 0 3.986 3.986h2.866a3.99 3.99 0 0 0 3.986-3.986v-1.62a1.74 1.74 0 0 1 .69-1.423q.458-.361.87-.775a9.871 9.871 0 0 0-6.98-16.851zm3.075 20.669a1.645 1.645 0 0 1-1.642 1.643h-2.866a1.644 1.644 0 0 1-1.643-1.643v-1.62q-.001-.209-.02-.411h6.192q-.02.202-.021.411zm-3.075-10.812a.223.223 0 1 1 .223-.222.226.226 0 0 1-.223.222m5.322 5.337q-.315.315-.666.593a4.3 4.3 0 0 0-.54.507h-2.945v-4.377a2.566 2.566 0 1 0-2.343 0v4.377h-2.945a4.3 4.3 0 0 0-.54-.508 7.528 7.528 0 1 1 9.98-.592" fill="#fff"/></g><defs><clipPath id="a"><path fill="#fff" d="M0 0h50v50H0z"/></clipPath></defs></svg>