<svg width="50" height="50" viewBox="0 0 50 50" fill="none" xmlns="http://www.w3.org/2000/svg"><path d="M8.79 37.793c0-.808.656-1.465 1.464-1.465h13.281v2.93h2.93v-2.93h13.281c.808 0 1.465.657 1.465 1.465v1.465h2.93v-1.465a4.4 4.4 0 0 0-4.395-4.395H26.465v-3.125h.488c.81 0 1.465-.655 1.465-1.464v-.939a13 13 0 0 0 3.166-1.315l.667.666c.572.572 1.5.572 2.071 0l2.762-2.762c.572-.572.572-1.5 0-2.072l-.666-.666a13 13 0 0 0 1.315-3.166h.939c.809 0 1.465-.656 1.465-1.465v-3.906c0-.81-.656-1.465-1.465-1.465h-.939a13 13 0 0 0-1.315-3.167l.666-.666c.572-.572.572-1.5 0-2.071l-2.762-2.762a1.465 1.465 0 0 0-2.071 0l-.666.666a13 13 0 0 0-3.167-1.316v-.938c0-.81-.656-1.465-1.465-1.465h-3.906c-.81 0-1.465.656-1.465 1.465v.938a13 13 0 0 0-3.166 1.315l-.667-.666a1.465 1.465 0 0 0-2.071 0l-2.762 2.762a1.465 1.465 0 0 0 0 2.072l.666.666a13 13 0 0 0-1.315 3.167h-.939c-.809 0-1.465.656-1.465 1.465v3.906c0 .809.656 1.465 1.465 1.465h.939a13 13 0 0 0 1.315 3.166l-.666.666a1.465 1.465 0 0 0 0 2.072l2.762 2.762c.572.572 1.5.572 2.071 0l.666-.666a13 13 0 0 0 3.167 1.315v.939c0 .809.656 1.464 1.465 1.464h.488v3.125H10.254a4.4 4.4 0 0 0-4.395 4.395v1.465h2.93zm11.327-22.656a4.883 4.883 0 1 1 9.766 0 4.883 4.883 0 0 1-9.766 0m-7.91 27.051H2.441A2.44 2.44 0 0 0 0 44.628v2.93A2.44 2.44 0 0 0 2.441 50h9.766a2.44 2.44 0 0 0 2.441-2.441v-2.93a2.44 2.44 0 0 0-2.441-2.441m17.672 0h-9.766a2.44 2.44 0 0 0-2.441 2.44v2.93A2.44 2.44 0 0 0 20.113 50h9.766a2.44 2.44 0 0 0 2.441-2.441v-2.93a2.44 2.44 0 0 0-2.441-2.441m17.68 0h-9.766a2.44 2.44 0 0 0-2.441 2.44v2.93A2.44 2.44 0 0 0 37.793 50h9.766A2.44 2.44 0 0 0 50 47.559v-2.93a2.44 2.44 0 0 0-2.441-2.441" fill="#fff"/></svg>