<svg width="40" height="57" viewBox="0 0 40 57" fill="none" xmlns="http://www.w3.org/2000/svg">
<path d="M19.7309 24.0419C26.2055 24.0419 31.473 18.7744 31.473 12.2997C31.4732 5.8251 26.2055 0.557617 19.7309 0.557617C13.2562 0.557617 7.98877 5.8251 7.98877 12.2997C7.98877 18.7746 13.2562 24.0419 19.7309 24.0419ZM19.7309 3.36134C24.6597 3.36134 28.6693 7.37112 28.6693 12.2997C28.6693 17.2284 24.6595 21.2382 19.7309 21.2382C14.8023 21.2382 10.7925 17.2284 10.7925 12.2997C10.7925 7.37112 14.8023 3.36134 19.7309 3.36134Z" fill="#2A2D30"/>
<path d="M39.3424 50.8799L35.4918 34.9065C35.0349 33.0107 33.3538 31.6865 31.4032 31.6865C28.9574 31.6865 10.2444 31.6865 8.05828 31.6865C6.10807 31.6865 4.42676 33.0107 3.96966 34.9065L0.119028 50.8799C-0.518332 53.5243 1.48425 56.0711 4.20765 56.0711H35.254C37.9741 56.0711 39.9809 53.5282 39.3424 50.8799ZM4.20765 53.2674C3.30121 53.2674 2.6322 52.4196 2.84484 51.5371L6.69546 35.5634C6.84777 34.9314 7.40815 34.4902 8.05846 34.4902H14.4408L12.6728 46.9963C12.6205 47.3664 12.718 47.7419 12.9438 48.0395L16.9082 53.2674H4.20765ZM15.531 46.8109L17.2726 34.4904H22.1892L23.9309 46.8109L19.7308 52.3493L15.531 46.8109ZM35.254 53.2674H22.5534L26.5177 48.0397C26.7435 47.7419 26.841 47.3664 26.7886 46.9965L25.0207 34.4904H31.403C32.0531 34.4904 32.6137 34.9318 32.766 35.5638L36.6166 51.5372C36.8293 52.4189 36.1616 53.2674 35.254 53.2674Z" fill="#2A2D30"/>
</svg>
