<svg width="49" height="45" viewBox="0 0 49 45" fill="none" xmlns="http://www.w3.org/2000/svg">
<path d="M26.8039 42.2438V37.283C26.8039 30.4337 21.2513 24.8811 14.4019 24.8811C7.55255 24.8811 2 30.4337 2 37.283V42.2438H26.8039ZM26.8039 42.2438H46.647V39.7634C46.647 32.4574 41.0944 27.3615 34.245 27.3615C30.7395 27.3615 27.5735 28.913 25.3179 31.4072M21.8431 9.99878C21.8431 14.1084 18.5116 17.4399 14.4019 17.4399C10.2923 17.4399 6.96077 14.1084 6.96077 9.99878C6.96077 5.88915 10.2923 2.55762 14.4019 2.55762C18.5116 2.55762 21.8431 5.88915 21.8431 9.99878ZM39.2058 14.9596C39.2058 17.6994 36.9849 19.9203 34.245 19.9203C31.5052 19.9203 29.2843 17.6994 29.2843 14.9596C29.2843 12.2198 31.5052 9.99878 34.245 9.99878C36.9849 9.99878 39.2058 12.2198 39.2058 14.9596Z" stroke="#2A2D30" stroke-width="4" stroke-linecap="round" stroke-linejoin="round"/>
</svg>
