<svg width="55" height="44" viewBox="0 0 55 44" fill="none" xmlns="http://www.w3.org/2000/svg">
<path fill-rule="evenodd" clip-rule="evenodd" d="M18.7142 16.4861C22.5605 16.4861 25.6785 13.3681 25.6785 9.52184C25.6785 5.67561 22.5605 2.55762 18.7142 2.55762C14.868 2.55762 11.75 5.67561 11.75 9.52184C11.75 13.3681 14.868 16.4861 18.7142 16.4861Z" stroke="#030819" stroke-width="4" stroke-linecap="round"/>
<path d="M2 41.5574C2 32.3264 9.48318 24.8433 18.7141 24.8433C27.9451 24.8433 35.4283 32.3264 35.4283 41.5574" stroke="#030819" stroke-width="4" stroke-linecap="round"/>
<path d="M35.4287 16.4861C39.2749 16.4861 42.3929 13.3681 42.3929 9.52184C42.3929 5.67561 39.2749 2.55762 35.4287 2.55762" stroke="#030819" stroke-width="4" stroke-linecap="round"/>
<path d="M38.5884 25.1416C46.3084 26.6189 52.1424 33.4068 52.1424 41.5574" stroke="#030819" stroke-width="4" stroke-linecap="round"/>
</svg>
