<svg width="100" height="101" viewBox="0 0 100 101" fill="none" xmlns="http://www.w3.org/2000/svg">
<rect width="100" height="101" fill="#F5F5F5"/>
<g id="Landing Pages">
<path d="M-69874 -2409C-69874 -2410.1 -69873.1 -2411 -69872 -2411H14475C14476.1 -2411 14477 -2410.1 14477 -2409V12223C14477 12224.1 14476.1 12225 14475 12225H-69872C-69873.1 12225 -69874 12224.1 -69874 12223V-2409Z" fill="#D9D9D9"/>
<path d="M-69872 -2410H14475V-2412H-69872V-2410ZM14476 -2409V12223H14478V-2409H14476ZM14475 12224H-69872V12226H14475V12224ZM-69873 12223V-2409H-69875V12223H-69873ZM-69872 12224C-69872.6 12224 -69873 12223.6 -69873 12223H-69875C-69875 12224.7 -69873.7 12226 -69872 12226V12224ZM14476 12223C14476 12223.6 14475.6 12224 14475 12224V12226C14476.7 12226 14478 12224.7 14478 12223H14476ZM14475 -2410C14475.6 -2410 14476 -2409.55 14476 -2409H14478C14478 -2410.66 14476.7 -2412 14475 -2412V-2410ZM-69872 -2412C-69873.7 -2412 -69875 -2410.66 -69875 -2409H-69873C-69873 -2409.55 -69872.6 -2410 -69872 -2410V-2412Z" fill="black" fill-opacity="0.1"/>
<g id="Digital Transformation service page" clip-path="url(#clip0_0_1)">
<rect width="1900" height="10000" transform="translate(-407 -1637.5)" fill="white"/>
<g id="Frame 61">
<rect width="1900" height="1780" transform="translate(-407 -337.5)" fill="#EFF3F5"/>
<g id="card">
<rect x="-182" y="-39.5" width="464" height="450" rx="8" fill="#FCFDFD"/>
<g id="Group 6">
<path id="Ellipse 1" d="M100 50.5C100 78.1142 77.6142 100.5 50 100.5C22.3858 100.5 0 78.1142 0 50.5C0 22.8858 22.3858 0.5 50 0.5C77.6142 0.5 100 22.8858 100 50.5Z" fill="#FF5D00" fill-opacity="0.1"/>
<path id="Vector" fill-rule="evenodd" clip-rule="evenodd" d="M25 52.0558V60.9081C26.0425 60.7393 26.9914 60.2011 27.6764 59.3899C28.3614 58.5787 28.7376 57.5476 28.7376 56.4817C28.7376 55.4157 28.3614 54.3846 27.6764 53.5734C26.9914 52.7622 26.0425 52.2245 25 52.0558ZM25 45.0045H25.8568C25.8626 45.0045 25.8683 45.0058 25.8736 45.0082C25.8789 45.0106 25.8837 45.014 25.8876 45.0183C25.8919 45.0224 25.8953 45.0273 25.8977 45.0328C25.9 45.0382 25.9013 45.0441 25.9013 45.05V46.8613C25.9016 47.0303 25.9616 47.1937 26.0704 47.3222C26.1793 47.4506 26.33 47.5356 26.4954 47.5619C26.9335 47.6719 27.3629 47.8147 27.78 47.9892C27.7914 47.9944 27.8034 47.999 27.8148 48.0031C28.2377 48.1831 28.6465 48.3951 29.0378 48.6374C29.172 48.7202 29.3299 48.755 29.4861 48.7363C29.6424 48.7176 29.7878 48.6464 29.8991 48.5342L31.1689 47.2528C31.173 47.2487 31.1779 47.2454 31.1833 47.2432C31.1887 47.241 31.1945 47.24 31.2003 47.2402C31.2062 47.24 31.2121 47.241 31.2176 47.2432C31.2231 47.2454 31.2281 47.2486 31.2323 47.2528L33.4394 49.4811C33.4434 49.4854 33.4465 49.4904 33.4486 49.496C33.4506 49.5015 33.4516 49.5074 33.4514 49.5133C33.4516 49.5253 33.4473 49.5368 33.4394 49.5456L32.1702 50.8264C32.053 50.9448 31.981 51.1013 31.967 51.2681C31.953 51.4349 31.9979 51.6014 32.0937 51.7381C32.3288 52.1306 32.5342 52.5404 32.7083 52.9641C32.8885 53.4034 33.0346 53.8563 33.1452 54.3186C33.1821 54.4728 33.2694 54.61 33.3928 54.7081C33.5163 54.8062 33.6689 54.8596 33.8261 54.8595H35.6208C35.6326 54.8599 35.6438 54.8649 35.6522 54.8733C35.6606 54.8818 35.6655 54.8931 35.6659 54.9051V58.0565C35.6654 58.0683 35.6605 58.0794 35.6522 58.0876C35.6439 58.0962 35.6326 58.1012 35.6208 58.1015H33.8267C33.6594 58.1016 33.4976 58.1619 33.3704 58.2716C33.2432 58.3813 33.1589 58.5332 33.1327 58.7C33.0236 59.1434 32.882 59.5778 32.7088 59.9998C32.5289 60.439 32.315 60.8632 32.0691 61.2685C31.9873 61.404 31.953 61.5634 31.9716 61.7209C31.9902 61.8785 32.0608 62.0252 32.1719 62.1375L33.4411 63.4188C33.4489 63.4278 33.4531 63.4392 33.4531 63.4511C33.4531 63.463 33.4489 63.4745 33.4411 63.4834L31.234 65.7116C31.2252 65.7194 31.2138 65.7237 31.202 65.7237C31.1903 65.7237 31.1789 65.7194 31.17 65.7116L29.8997 64.4309C29.7825 64.3126 29.6276 64.2399 29.4624 64.2258C29.2973 64.2117 29.1325 64.2569 28.9972 64.3536C28.2037 64.8368 27.3417 65.1948 26.4411 65.4152C26.2884 65.4525 26.1525 65.5406 26.0552 65.6652C25.9579 65.7899 25.905 65.9439 25.9048 66.1026V67.9139C25.9044 67.9257 25.8995 67.937 25.8913 67.9454C25.883 67.9538 25.8719 67.9588 25.8602 67.9594H25.0034V62.3411C26.4216 62.1674 27.7277 61.4754 28.6751 60.396C29.6224 59.3165 30.1455 57.9242 30.1455 56.4819C30.1455 55.0397 29.6224 53.6474 28.6751 52.5679C27.7277 51.4884 26.4216 50.7965 25.0034 50.6228V45.0039L25 45.0045ZM75 39.1341V72.2814C74.9996 72.3392 74.9767 72.3944 74.9363 72.4353C74.8959 72.4762 74.8413 72.4994 74.7841 72.5H25.2159C25.1587 72.4994 25.1041 72.4762 25.0637 72.4353C25.0233 72.3944 25.0004 72.3392 25 72.2814V69.3791H25.8568C26.2412 69.3782 26.6097 69.2236 26.8815 68.9491C27.1533 68.6746 27.3063 68.3026 27.3071 67.9144V66.6452C27.6497 66.5421 27.987 66.4214 28.3175 66.2836C28.6474 66.1452 28.9702 65.9898 29.2845 65.8183L30.1739 66.7167C30.4463 66.9907 30.8152 67.1445 31.1997 67.1445C31.5843 67.1445 31.9531 66.9907 32.2256 66.7167L34.4327 64.4885C34.7041 64.2135 34.8564 63.8411 34.8564 63.4528C34.8564 63.0646 34.7041 62.6922 34.4327 62.4172L33.5439 61.5176C33.7145 61.1993 33.8689 60.8725 34.0066 60.5384C34.143 60.206 34.2624 59.8667 34.3641 59.5218H35.6208C36.0053 59.5212 36.3739 59.3667 36.6458 59.0923C36.9177 58.8179 37.0708 58.4458 37.0716 58.0577V54.9062C37.071 54.518 36.918 54.1458 36.646 53.8712C36.374 53.5966 36.0054 53.4421 35.6208 53.4415H34.3641C34.2623 53.0967 34.1429 52.7574 34.0066 52.4249C33.8694 52.0905 33.7155 51.7633 33.5456 51.4446L34.4355 50.5461C34.707 50.2713 34.8595 49.8989 34.8595 49.5107C34.8595 49.1226 34.707 48.7502 34.4355 48.4754L32.2285 46.2472C31.9562 45.9728 31.5873 45.8187 31.2026 45.8187C30.8179 45.8187 30.449 45.9728 30.1767 46.2472L29.2868 47.1456C28.9864 46.9818 28.676 46.8321 28.3558 46.6964L28.3198 46.6802C27.9896 46.5421 27.6525 46.4214 27.3099 46.3187V45.05C27.3093 44.6618 27.1563 44.2897 26.8845 44.0152C26.6127 43.7407 26.2441 43.5861 25.8596 43.5853H25.0029V39.1335L75 39.1341ZM25 37.7144H75V28.7186C74.9996 28.6608 74.9767 28.6056 74.9363 28.5647C74.8959 28.5238 74.8413 28.5006 74.7841 28.5H25.2159C25.1587 28.5006 25.1041 28.5238 25.0637 28.5647C25.0233 28.6056 25.0004 28.6608 25 28.7186V37.7144ZM28.7385 33.9661C28.5521 33.9661 28.3734 33.8914 28.2417 33.7584C28.1099 33.6254 28.0359 33.4449 28.0359 33.2568C28.0359 33.0687 28.1099 32.8883 28.2417 32.7553C28.3734 32.6223 28.5521 32.5475 28.7385 32.5475H28.8527C29.039 32.5475 29.2177 32.6223 29.3495 32.7553C29.4812 32.8883 29.5553 33.0687 29.5553 33.2568C29.5553 33.4449 29.4812 33.6254 29.3495 33.7584C29.2177 33.8914 29.039 33.9661 28.8527 33.9661H28.7385ZM40.9175 33.9661C40.7311 33.9661 40.5524 33.8914 40.4207 33.7584C40.2889 33.6254 40.2149 33.4449 40.2149 33.2568C40.2149 33.0687 40.2889 32.8883 40.4207 32.7553C40.5524 32.6223 40.7311 32.5475 40.9175 32.5475H71.2615C71.4479 32.5475 71.6266 32.6223 71.7583 32.7553C71.8901 32.8883 71.9641 33.0687 71.9641 33.2568C71.9641 33.4449 71.8901 33.6254 71.7583 33.7584C71.6266 33.8914 71.4479 33.9661 71.2615 33.9661H40.9175ZM32.4489 33.9661C32.2626 33.9661 32.0839 33.8914 31.9521 33.7584C31.8204 33.6254 31.7464 33.4449 31.7464 33.2568C31.7464 33.0687 31.8204 32.8883 31.9521 32.7553C32.0839 32.6223 32.2626 32.5475 32.4489 32.5475H32.5632C32.7495 32.5475 32.9282 32.6223 33.06 32.7553C33.1917 32.8883 33.2657 33.0687 33.2657 33.2568C33.2657 33.4449 33.1917 33.6254 33.06 33.7584C32.9282 33.8914 32.7495 33.9661 32.5632 33.9661H32.4489ZM36.1617 33.9661C35.9754 33.9661 35.7967 33.8914 35.6649 33.7584C35.5331 33.6254 35.4591 33.4449 35.4591 33.2568C35.4591 33.0687 35.5331 32.8883 35.6649 32.7553C35.7967 32.6223 35.9754 32.5475 36.1617 32.5475H36.2759C36.4623 32.5475 36.641 32.6223 36.7727 32.7553C36.9045 32.8883 36.9785 33.0687 36.9785 33.2568C36.9785 33.4449 36.9045 33.6254 36.7727 33.7584C36.641 33.8914 36.4623 33.9661 36.2759 33.9661H36.1617ZM43.9699 43.7693C43.8491 43.8911 43.7739 44.0515 43.7571 44.223C43.7403 44.3946 43.7829 44.5667 43.8778 44.7101C43.9726 44.8534 44.1137 44.9592 44.2771 45.0092C44.4405 45.0593 44.616 45.0507 44.7738 44.9847C44.9316 44.9188 45.0618 44.7996 45.1423 44.6476C45.2228 44.4956 45.2486 44.3201 45.2153 44.151C45.182 43.9819 45.0916 43.8297 44.9596 43.7204C44.8276 43.611 44.6622 43.5513 44.4914 43.5513C44.3946 43.5512 44.2986 43.5704 44.2091 43.6078C44.1197 43.6452 44.0384 43.7001 43.9699 43.7693ZM45.0112 68.1445C44.8905 68.0226 44.7317 67.9466 44.5617 67.9297C44.3918 67.9127 44.2213 67.9558 44.0793 68.0515C43.9373 68.1472 43.8326 68.2897 43.783 68.4547C43.7334 68.6196 43.742 68.7968 43.8073 68.9561C43.8726 69.1154 43.9906 69.2469 44.1412 69.3281C44.2918 69.4094 44.4656 69.4355 44.6331 69.4018C44.8006 69.3682 44.9513 69.277 45.0596 69.1437C45.1679 69.0105 45.2271 68.8434 45.2271 68.671C45.2273 68.5732 45.2083 68.4764 45.1712 68.386C45.1341 68.2957 45.0798 68.2136 45.0112 68.1445ZM49.0815 55.9575C48.961 55.8358 48.8023 55.7601 48.6327 55.7433C48.463 55.7264 48.2928 55.7695 48.1511 55.8651C48.0094 55.9608 47.9049 56.1031 47.8554 56.2678C47.806 56.4325 47.8146 56.6094 47.8799 56.7684C47.9452 56.9274 48.063 57.0586 48.2134 57.1397C48.3638 57.2208 48.5373 57.2467 48.7045 57.2131C48.8717 57.1795 49.0222 57.0884 49.1303 56.9553C49.2384 56.8223 49.2975 56.6555 49.2974 56.4834C49.2976 56.3857 49.2786 56.2889 49.2415 56.1987C49.2044 56.1084 49.1501 56.0264 49.0815 55.9575ZM46.5351 57.1932C46.7013 57.6754 47.0312 58.0827 47.4663 58.3427C47.9015 58.6027 48.4139 58.6987 48.9125 58.6136C49.4111 58.5286 49.8638 58.268 50.1902 57.8781C50.5167 57.4882 50.6958 56.9942 50.6958 56.4837C50.6958 55.9731 50.5167 55.4791 50.1902 55.0892C49.8638 54.6993 49.4111 54.4387 48.9125 54.3537C48.4139 54.2687 47.9015 54.3647 47.4663 54.6247C47.0312 54.8847 46.7013 55.2919 46.5351 55.7741H39.49C39.3071 55.7794 39.1334 55.8564 39.0058 55.9889C38.8783 56.1214 38.8069 56.2989 38.8069 56.4837C38.8069 56.6684 38.8783 56.8459 39.0058 56.9784C39.1334 57.1109 39.3071 57.188 39.49 57.1932H46.5351ZM42.4465 43.5842H36.9722C36.811 43.5839 36.6545 43.6399 36.5295 43.7427L34.3493 45.3441C34.1986 45.4543 34.0974 45.6204 34.068 45.806C34.0386 45.9915 34.0834 46.1812 34.1925 46.3334C34.3017 46.4855 34.4662 46.5877 34.65 46.6174C34.8337 46.6471 35.0217 46.6019 35.1724 46.4917L37.199 45.0039H42.4648C42.6309 45.4866 42.9611 45.8942 43.3966 46.1546C43.8321 46.4149 44.3449 46.5111 44.844 46.4261C45.3431 46.341 45.7962 46.0802 46.1229 45.69C46.4497 45.2998 46.629 44.8053 46.629 44.2943C46.629 43.7833 46.4497 43.2889 46.1229 42.8986C45.7962 42.5084 45.3431 42.2476 44.844 42.1626C44.3449 42.0775 43.8321 42.1737 43.3966 42.4341C42.9611 42.6944 42.6309 43.1021 42.4648 43.5847L42.4465 43.5842ZM42.4465 67.9594H37.199L35.173 66.4722C35.0984 66.4176 35.0138 66.3784 34.9242 66.3568C34.8346 66.3351 34.7417 66.3316 34.6507 66.3462C34.5597 66.3608 34.4724 66.3934 34.3939 66.4421C34.3154 66.4908 34.2472 66.5546 34.1931 66.6299C34.139 66.7052 34.1001 66.7906 34.0787 66.881C34.0573 66.9715 34.0537 67.0654 34.0682 67.1572C34.0828 67.2491 34.115 67.3372 34.1633 67.4164C34.2115 67.4957 34.2747 67.5646 34.3493 67.6192L36.5295 69.22C36.6545 69.3228 36.811 69.3789 36.9722 69.3786H42.4648C42.6309 69.8616 42.9611 70.2696 43.3969 70.5303C43.8326 70.7909 44.3457 70.8872 44.8451 70.8022C45.3446 70.7172 45.798 70.4563 46.125 70.0658C46.452 69.6754 46.6314 69.1806 46.6314 68.6693C46.6314 68.158 46.452 67.6632 46.125 67.2727C45.798 66.8823 45.3446 66.6214 44.8451 66.5363C44.3457 66.4513 43.8326 66.5477 43.3969 66.8083C42.9611 67.0689 42.6309 67.4769 42.4648 67.96L42.4465 67.9594Z" fill="#FF5D00"/>
</g>
</g>
</g>
</g>
</g>
<defs>
<clipPath id="clip0_0_1">
<rect width="1900" height="10000" fill="white" transform="translate(-407 -1637.5)"/>
</clipPath>
</defs>
</svg>
