<svg width="100" height="101" viewBox="0 0 100 101" fill="none" xmlns="http://www.w3.org/2000/svg">
<path d="M100 50.5C100 78.1142 77.6142 100.5 50 100.5C22.3858 100.5 0 78.1142 0 50.5C0 22.8858 22.3858 0.5 50 0.5C77.6142 0.5 100 22.8858 100 50.5Z" fill="#FF5D00" fill-opacity="0.1"/>
<path d="M50.0009 54.7352C52.34 54.7352 54.2362 52.839 54.2362 50.4999C54.2362 48.1609 52.34 46.2646 50.0009 46.2646C47.6618 46.2646 45.7656 48.1609 45.7656 50.4999C45.7656 52.839 47.6618 54.7352 50.0009 54.7352Z" stroke="#FF5D00" stroke-width="4" stroke-miterlimit="10"/>
<path d="M43.8828 61.3236C43.8828 59.5763 44.5273 57.9005 45.6746 56.665C46.8219 55.4295 48.378 54.7354 50.0005 54.7354C51.623 54.7354 53.179 55.4295 54.3263 56.665C55.4736 57.9005 56.1181 59.5763 56.1181 61.3236" stroke="#FF5D00" stroke-width="4" stroke-miterlimit="10"/>
<path d="M69.7646 34.9706C72.1037 34.9706 73.9999 33.0744 73.9999 30.7353C73.9999 28.3962 72.1037 26.5 69.7646 26.5C67.4255 26.5 65.5293 28.3962 65.5293 30.7353C65.5293 33.0744 67.4255 34.9706 69.7646 34.9706Z" stroke="#FF5D00" stroke-width="4" stroke-miterlimit="10"/>
<path d="M30.2353 74.5C32.5744 74.5 34.4706 72.6038 34.4706 70.2647C34.4706 67.9256 32.5744 66.0294 30.2353 66.0294C27.8962 66.0294 26 67.9256 26 70.2647C26 72.6038 27.8962 74.5 30.2353 74.5Z" stroke="#FF5D00" stroke-width="4" stroke-miterlimit="10"/>
<path d="M68.823 74.5C71.6818 74.5 73.9994 72.1825 73.9994 69.3236C73.9994 66.4647 71.6818 64.1471 68.823 64.1471C65.9641 64.1471 63.6465 66.4647 63.6465 69.3236C63.6465 72.1825 65.9641 74.5 68.823 74.5Z" stroke="#FF5D00" stroke-width="4" stroke-miterlimit="10"/>
<path d="M31.6471 37.7941C34.7658 37.7941 37.2941 35.2658 37.2941 32.1471C37.2941 29.0283 34.7658 26.5 31.6471 26.5C28.5283 26.5 26 29.0283 26 32.1471C26 35.2658 28.5283 37.7941 31.6471 37.7941Z" stroke="#FF5D00" stroke-width="4" stroke-miterlimit="10"/>
<path d="M41.0587 59.4412L33.5293 66.9706" stroke="#FF5D00" stroke-width="4" stroke-miterlimit="10"/>
<path d="M66.4708 34.0294L58.9414 41.5588" stroke="#FF5D00" stroke-width="4" stroke-miterlimit="10"/>
<path d="M63.6472 50.8377C63.678 53.8918 62.6468 56.8618 60.7301 59.2397C58.8133 61.6176 56.13 63.2558 53.1389 63.8741C50.1479 64.4925 47.035 64.0525 44.3324 62.6295C41.6299 61.2065 39.5056 58.8889 38.3229 56.0729C37.1402 53.2569 36.9725 50.1175 37.8485 47.1915C38.7244 44.2656 40.5897 41.7348 43.1252 40.032C45.6607 38.3291 48.7091 37.56 51.749 37.8562C54.7889 38.1523 57.6315 39.4953 59.7907 41.6555C62.2384 44.0868 63.6248 47.3877 63.6472 50.8377Z" stroke="#FF5D00" stroke-width="4" stroke-miterlimit="10"/>
<path d="M64.5885 65.0882L58.9414 59.4412" stroke="#FF5D00" stroke-width="4" stroke-miterlimit="10"/>
<path d="M41.0592 41.5588L35.4121 35.9117" stroke="#FF5D00" stroke-width="4" stroke-miterlimit="10"/>
</svg>
