<svg width="50" height="50" viewBox="0 0 50 50" fill="none" xmlns="http://www.w3.org/2000/svg">
<g clip-path="url(#clip0_15110_6890)">
<path d="M31.7368 18.0559H33.2401L37.583 13.7131L37.8057 11.8757C29.7324 4.74893 17.3719 5.52841 10.2452 13.6017C8.24078 15.8288 6.84884 18.5013 6.01367 21.3966C6.51477 21.1739 7.01587 21.1739 7.51697 21.2852L16.2027 19.8376C16.2027 19.8376 16.6481 19.1138 16.8708 19.1695C20.7683 14.938 27.2826 14.4369 31.7368 18.0559Z" fill="#EA4335"/>
<path d="M43.8194 21.3969C42.8172 17.7221 40.7571 14.4372 37.9175 11.876L31.793 18.0005C34.3541 20.1163 35.8574 23.2899 35.7461 26.5749V27.6328C38.7527 27.6328 41.1468 30.0826 41.1468 33.0335C41.1468 35.9845 38.697 38.4343 35.7461 38.4343H24.9446L23.8867 39.5478V46.0621L24.9446 47.12H35.8018C43.5967 47.1757 49.9439 40.8841 49.9996 33.0892C50.0553 28.468 47.7168 24.0694 43.8194 21.3969Z" fill="#4285F4"/>
<path d="M14.0304 47.1199H24.8876V38.4342H14.0304C13.2509 38.4342 12.4714 38.2672 11.8033 37.9331L10.3 38.4342L5.90146 42.7771L5.51172 44.2804C7.96154 46.1734 10.9681 47.1756 14.0304 47.1199Z" fill="#34A853"/>
<path d="M14.0312 18.9468C6.23628 19.0025 -0.0553111 25.3497 0.000366711 33.1446C0.000366711 37.4875 2.06044 41.6076 5.51247 44.2245L11.8041 37.9329C9.07584 36.708 7.85093 33.4787 9.07584 30.7505C10.3008 28.0223 13.5301 26.7973 16.2583 28.0223C17.4832 28.579 18.4297 29.5256 18.9865 30.7505L25.2781 24.4589C22.6055 21.0069 18.4297 18.9468 14.0312 18.9468Z" fill="#FBBC05"/>
</g>
<defs>
<clipPath id="clip0_15110_6890">
<rect width="50" height="50" fill="white"/>
</clipPath>
</defs>
</svg>
