<svg width="50" height="50" viewBox="0 0 50 50" fill="none" xmlns="http://www.w3.org/2000/svg">
<g clip-path="url(#clip0_15110_6898)">
<path d="M40.9053 30.9012C42.6653 30.6869 46.5467 30.2255 47.2377 31.1155C47.9283 31.9892 46.4647 35.6652 45.8067 37.2969C45.6093 37.7915 46.037 37.9892 46.481 37.6102C49.3757 35.1705 50.1323 30.0769 49.5403 29.3352C48.948 28.6102 43.866 27.9835 40.7737 30.1595C40.2967 30.5055 40.379 30.9672 40.9053 30.9012Z" fill="#FF9900"/>
<path d="M24.9497 39.8188C31.7097 39.8188 39.5714 37.6921 44.9828 33.6868C45.8708 33.0275 45.0978 32.0222 44.1931 32.4342C38.1241 35.0055 31.5287 36.2585 25.5254 36.2585C16.6274 36.2585 8.02542 33.8025 1.05208 29.7475C0.443083 29.3848 -0.0172506 30.0111 0.492416 30.4728C6.94008 36.3078 15.4761 39.8188 24.9497 39.8188Z" fill="#FF9900"/>
<path d="M14.21 20.9448C14.21 21.5548 14.2757 22.0492 14.3907 22.4118C14.5369 22.8198 14.7129 23.2164 14.9174 23.5985C14.9994 23.7305 15.0324 23.8625 15.0324 23.9778C15.0324 24.1428 14.9337 24.3078 14.7197 24.4725L13.6837 25.1648C13.5357 25.2635 13.3874 25.3132 13.256 25.3132C13.0914 25.3132 12.927 25.2305 12.7627 25.0822C12.5409 24.8435 12.3426 24.584 12.1704 24.3075C11.9865 23.9907 11.8163 23.6662 11.6604 23.3348C10.3777 24.8515 8.76569 25.6098 6.82503 25.6098C5.44336 25.6098 4.34169 25.2142 3.53569 24.4232C2.72969 23.6318 2.31836 22.5765 2.31836 21.2582C2.31836 19.8568 2.81169 18.7195 3.81503 17.8625C4.81836 17.0052 6.15069 16.5768 7.84503 16.5768C8.40403 16.5768 8.97969 16.6262 9.58836 16.7085C10.1967 16.7912 10.8217 16.9228 11.4797 17.0712V15.8678C11.4797 14.6152 11.2164 13.7415 10.7064 13.2305C10.1804 12.7195 9.29203 12.4725 8.02569 12.4725C7.45003 12.4725 6.85803 12.5382 6.24936 12.6865C5.64468 12.8309 5.05106 13.0183 4.47303 13.2472C4.286 13.331 4.0937 13.4026 3.89736 13.4615C3.78236 13.4942 3.70003 13.5108 3.63403 13.5108C3.40403 13.5108 3.28869 13.3462 3.28869 12.9998V12.1922C3.28869 11.9285 3.32203 11.7305 3.40403 11.6155C3.48603 11.4998 3.63403 11.3845 3.86436 11.2688C4.44003 10.9722 5.13103 10.7252 5.93669 10.5272C6.74269 10.3132 7.59836 10.2138 8.50269 10.2138C10.46 10.2138 11.8907 10.6592 12.8117 11.5492C13.7164 12.4392 14.177 13.7912 14.177 15.6042V20.9448H14.21ZM7.53236 23.4505C8.07503 23.4505 8.63436 23.3515 9.22636 23.1538C9.81836 22.9558 10.3447 22.5932 10.7887 22.0988C11.052 21.7855 11.2494 21.4395 11.348 21.0438C11.4467 20.6482 11.5124 20.1702 11.5124 19.6098V18.9175C11.0137 18.7959 10.5085 18.7024 9.99936 18.6375C9.48661 18.5721 8.97026 18.5389 8.45336 18.5382C7.35136 18.5382 6.54536 18.7525 6.00269 19.1975C5.46003 19.6428 5.19669 20.2692 5.19669 21.0932C5.19669 21.8678 5.39403 22.4448 5.80536 22.8405C6.20003 23.2525 6.77569 23.4505 7.53203 23.4505H7.53236ZM20.7394 25.2305C20.4434 25.2305 20.246 25.1812 20.1144 25.0658C19.983 24.9668 19.8677 24.7358 19.769 24.4228L15.904 11.6812C15.8054 11.3512 15.756 11.1372 15.756 11.0218C15.756 10.7582 15.8874 10.6098 16.1507 10.6098H17.7624C18.075 10.6098 18.289 10.6592 18.404 10.7745C18.5357 10.8735 18.634 11.1045 18.733 11.4175L21.4964 22.3295L24.062 11.4175C24.144 11.0875 24.2427 10.8735 24.3744 10.7745C24.506 10.6755 24.736 10.6098 25.0324 10.6098H26.348C26.6607 10.6098 26.8744 10.6592 27.006 10.7745C27.1377 10.8735 27.2527 11.1045 27.3184 11.4175L29.917 22.4615L32.7627 11.4175C32.861 11.0875 32.976 10.8735 33.0914 10.7745C33.223 10.6755 33.4367 10.6098 33.733 10.6098H35.2624C35.5257 10.6098 35.6737 10.7415 35.6737 11.0218C35.6737 11.1042 35.6574 11.1865 35.6407 11.2855C35.615 11.426 35.5765 11.5639 35.5257 11.6975L31.562 24.4398C31.463 24.7695 31.348 24.9835 31.2164 25.0825C31.085 25.1815 30.871 25.2475 30.5914 25.2475H29.177C28.8644 25.2475 28.6504 25.1978 28.519 25.0825C28.3877 24.9672 28.2724 24.7528 28.2067 24.4232L25.6574 13.7915L23.1244 24.4068C23.042 24.7365 22.9434 24.9508 22.8117 25.0662C22.6804 25.1815 22.45 25.2308 22.154 25.2308L20.7394 25.2305ZM41.8744 25.6758C41.019 25.6758 40.1637 25.5768 39.3414 25.3792C38.519 25.1812 37.8777 24.9668 37.45 24.7195C37.1867 24.5712 37.006 24.4062 36.94 24.2582C36.876 24.1126 36.8425 23.9555 36.8414 23.7965V22.9558C36.8414 22.6098 36.973 22.4448 37.2197 22.4448C37.3184 22.4448 37.417 22.4615 37.5157 22.4942C37.6144 22.5275 37.7624 22.5932 37.927 22.6592C38.5079 22.9151 39.1145 23.1085 39.7364 23.2358C40.394 23.3678 41.0357 23.4338 41.6934 23.4338C42.7297 23.4338 43.5357 23.2525 44.0947 22.8898C44.654 22.5272 44.95 21.9998 44.95 21.3238C44.95 20.8625 44.802 20.4835 44.506 20.1702C44.21 19.8568 43.6507 19.5768 42.8447 19.3132L40.46 18.5712C39.2594 18.1922 38.371 17.6318 37.8284 16.8898C37.2857 16.1645 37.006 15.3568 37.006 14.4998C37.006 13.8075 37.154 13.1975 37.45 12.6702C37.746 12.1428 38.1407 11.6812 38.6344 11.3185C39.1277 10.9395 39.6867 10.6592 40.3447 10.4615C41.0027 10.2635 41.6934 10.1812 42.417 10.1812C42.779 10.1812 43.1574 10.1978 43.519 10.2472C43.8974 10.2965 44.2427 10.3625 44.588 10.4285C44.917 10.5108 45.2297 10.5932 45.5257 10.6918C45.8217 10.7912 46.052 10.8898 46.2164 10.9888C46.4467 11.1208 46.6114 11.2525 46.71 11.4008C46.8087 11.5328 46.858 11.7142 46.858 11.9448V12.7198C46.858 13.0662 46.7264 13.2475 46.4797 13.2475C46.348 13.2475 46.1344 13.1815 45.8547 13.0495C44.917 12.6212 43.8644 12.4068 42.6967 12.4068C41.7594 12.4068 41.019 12.5552 40.5094 12.8682C39.9994 13.1815 39.7364 13.6595 39.7364 14.3355C39.7364 14.7968 39.9007 15.1922 40.2297 15.5055C40.5587 15.8188 41.167 16.1322 42.0387 16.4122L44.3744 17.1542C45.5587 17.5332 46.4137 18.0608 46.9237 18.7365C47.4337 19.4122 47.6804 20.1868 47.6804 21.0442C47.6804 21.7528 47.5324 22.3958 47.2527 22.9562C46.9567 23.5165 46.562 24.0112 46.052 24.4068C45.542 24.8188 44.9337 25.1155 44.2264 25.3298C43.4864 25.5605 42.713 25.6758 41.8744 25.6758Z" fill="#A3ACB5"/>
</g>
<defs>
<clipPath id="clip0_15110_6898">
<rect width="50" height="50" fill="white"/>
</clipPath>
</defs>
</svg>
