<svg width="50" height="45" viewBox="0 0 50 45" fill="none" xmlns="http://www.w3.org/2000/svg">
<g clip-path="url(#clip0_15110_6909)">
<path d="M13.5121 36.6751H13.04L10.6836 34.3226V33.8513L14.286 30.2549H16.7818L17.1145 30.5871V33.0787L13.5121 36.6751Z" fill="#05BDBA"/>
<path d="M10.6836 10.067V9.59573L13.04 7.24316H13.5121L17.1145 10.8396V13.3312L16.7818 13.6635H14.286L10.6836 10.067Z" fill="#05BDBA"/>
<path d="M31.4274 29.0922H27.9992L27.7129 28.8064V20.7945C27.7129 19.3691 27.1518 18.2643 25.4299 18.2256C24.5438 18.2024 23.5301 18.2256 22.4467 18.2681L22.2841 18.4342V28.8025L21.9978 29.0883H18.5695L18.2832 28.8025V15.1159L18.5695 14.8301H26.2851C29.2838 14.8301 31.7138 17.256 31.7138 20.2498V28.8064L31.4274 29.0922Z" fill="#014847"/>
<path d="M13.9994 23.962H0.286333L0 23.6761V20.2458L0.286333 19.96H13.9994L14.2857 20.2458V23.6761L13.9994 23.962Z" fill="#05BDBA"/>
<path d="M49.7143 23.962H36.0012L35.7148 23.6761V20.2458L36.0012 19.96H49.7143L50.0006 20.2458V23.6761L49.7143 23.962Z" fill="#05BDBA"/>
<path d="M23.0234 10.5537V0.285861L23.3098 0H26.7458L27.0321 0.285861V10.5537L26.7458 10.8395H23.3098L23.0234 10.5537Z" fill="#05BDBA"/>
<path d="M23.0234 43.6361V33.3684L23.3098 33.0825H26.7458L27.0321 33.3684V43.6361L26.7458 43.922H23.3098L23.0234 43.6361Z" fill="#05BDBA"/>
</g>
<defs>
<clipPath id="clip0_15110_6909">
<rect width="50" height="44.0678" fill="white"/>
</clipPath>
</defs>
</svg>
