<svg width="50" height="50" viewBox="0 0 50 50" fill="none" xmlns="http://www.w3.org/2000/svg">
<path d="M31.0543 0H31.6552L41.4777 4.96254L41.6404 5.19694V44.8071L41.4777 45.0415L31.6572 50H31.0483L31.0543 0Z" fill="#5294CF"/>
<path d="M18.2709 0H17.6601L7.84544 4.96254L7.64713 5.30913L7.54599 44.6047L7.84544 45.0415L17.6621 50H18.2808L18.2709 0Z" fill="#1F5B98"/>
<path d="M17.6779 50H31.6473V0H17.6779V50Z" fill="#2D72B8"/>
<path d="M46.622 26.1229L46.2909 26.1971L41.5511 26.6438L41.4817 26.6078L31.6492 27.0044H17.6799L7.84743 26.6078V34.1828L7.83751 34.1768L7.84743 34.1988L17.6799 36.5008H31.6473L41.4797 34.1988L45.095 32.2575V33.5056L46.622 33.6739L46.4634 33.9865L41.6265 37.4805L41.4797 37.4324L31.6473 40.5097H17.6779L7.84544 37.4324L7.84544 45.0415L2.70312 38.957V33.6419L2.74279 33.6719L4.23015 33.5076V32.2334L2.70312 31.408V26.1189L2.74279 26.1229L4.23015 26.1009V23.8811L2.94705 23.861L2.70312 23.8851V18.594L4.23015 17.7646V16.4763L2.76658 16.3141L2.70312 16.3621V11.049L7.84544 4.96254L7.84544 12.5716L17.6779 9.49433H31.6473L41.5075 12.5816L41.6384 12.5235L46.4118 15.9655L46.6201 16.3081L45.093 16.4783V17.7405L44.8927 17.8207L41.6265 16.0416L41.5075 15.7912L31.6473 13.5032V13.5012H17.6779V13.5032L7.84544 15.8012V23.4023L17.6779 23.0056V22.9956H31.6473L41.4797 23.4002L41.7038 23.2961L46.2988 23.6948L46.622 23.855L45.095 23.8771V26.0969L46.622 26.1229Z" fill="#1A476F"/>
<path d="M41.4797 12.5716V4.96254L46.622 11.049V16.3281L41.5095 12.5796L41.4797 12.5716ZM41.4797 15.7851L41.5095 15.7912L46.622 18.5699V23.8811L41.4797 23.4043V15.7851ZM41.5095 34.1928L41.4797 34.1988L41.4797 26.6078L46.622 26.1229L46.622 31.4321L41.5095 34.1928ZM41.5095 37.4023L46.622 33.6759V38.955L41.4797 45.0415L41.4797 37.4324L41.5095 37.4224V37.4023Z" fill="#2D72B8"/>
</svg>
