<svg width="100" height="100" viewBox="0 0 100 100" fill="none" xmlns="http://www.w3.org/2000/svg">
<circle cx="50" cy="50" r="50" fill="#FF5D00" fill-opacity="0.1"/>
<path d="M76.5 66.5H75C75.653 65.6365 76.0043 64.5825 76 63.5V31.5C75.9995 30.1741 75.4726 28.9026 74.535 27.965C73.5974 27.0274 72.3259 26.5005 71 26.5H29C27.6741 26.5005 26.4026 27.0274 25.465 27.965C24.5274 28.9026 24.0005 30.1741 24 31.5V63.5C23.9957 64.5825 24.347 65.6365 25 66.5H23.5C18.8977 66.5923 18.8731 73.382 23.5001 73.5H76.5C81.0979 73.4094 81.1307 66.6188 76.5 66.5ZM74 63.5C73.9977 64.2949 73.6808 65.0566 73.1187 65.6187C72.5566 66.1809 71.7949 66.4977 71 66.5H53C52.735 66.5008 52.4811 66.6064 52.2938 66.7938C52.1064 66.9811 52.0008 67.235 52 67.5C52 68.0304 51.7893 68.5391 51.4142 68.9142C51.0391 69.2893 50.5304 69.5 50 69.5C49.4696 69.5 48.9609 69.2893 48.5858 68.9142C48.2107 68.5391 48 68.0304 48 67.5C47.9992 67.235 47.8936 66.9811 47.7062 66.7938C47.5189 66.6064 47.265 66.5008 47 66.5H29C28.2051 66.4977 27.4434 66.1808 26.8813 65.6187C26.3192 65.0566 26.0023 64.2949 26 63.5V31.5C26.0023 30.7051 26.3191 29.9434 26.8812 29.3813C27.4434 28.8191 28.2051 28.5023 29 28.5H71C71.7949 28.5023 72.5566 28.8191 73.1188 29.3812C73.6809 29.9433 73.9977 30.7051 74 31.5V63.5Z" fill="#FF5D00"/>
<path d="M49.9995 41.065C50.196 40.871 50.399 40.6853 50.6027 40.5H49.3957C49.5994 40.6852 49.8025 40.8709 49.9995 41.065ZM38 51.54C42.0707 51.8286 45.9347 53.4436 49 56.1377V42.8945C46.1285 39.8023 42.2054 37.8943 38 37.5449V51.54ZM52.4943 57.5H55.7037L55.0967 55.6786C54.1771 56.2075 53.3061 56.817 52.4943 57.5Z" fill="#FF5D00"/>
<path d="M36 52.5V40.5H35C34.7349 40.5003 34.4807 40.6057 34.2932 40.7932C34.1057 40.9807 34.0003 41.2349 34 41.5V56.5C34.0003 56.7651 34.1057 57.0193 34.2932 57.2068C34.4807 57.3943 34.7349 57.4997 35 57.5H47.5062C44.5744 54.9788 40.8525 53.5636 36.9863 53.5C36.7235 53.4963 36.4727 53.3893 36.2882 53.2022C36.1036 53.0151 36.0001 52.7628 36 52.5ZM53.8897 52.0566C53.7769 51.7047 53.7634 51.3284 53.8504 50.9692C53.9375 50.61 54.1218 50.2818 54.3832 50.0204C54.6446 49.7591 54.9729 49.5749 55.3321 49.4879C55.6913 49.4009 56.0675 49.4146 56.4195 49.5274L62 51.3876V37.5449C57.7952 37.8965 53.8728 39.804 51 42.8945V56.1397C52.0657 55.2266 53.2239 54.4274 54.4557 53.7551L53.8897 52.0566Z" fill="#FF5D00"/>
<path d="M71 30.5H29C28.8687 30.5 28.7386 30.5258 28.6173 30.5761C28.4959 30.6263 28.3857 30.7 28.2928 30.7928C28.2 30.8857 28.1263 30.9959 28.0761 31.1173C28.0258 31.2386 28 31.3687 28 31.5V63.5C28 63.6313 28.0258 63.7614 28.0761 63.8827C28.1263 64.0041 28.2 64.1143 28.2928 64.2072C28.3857 64.3 28.4959 64.3737 28.6173 64.424C28.7386 64.4742 28.8687 64.5 29 64.5H71C71.1313 64.5 71.2614 64.4742 71.3827 64.424C71.5041 64.3737 71.6143 64.3 71.7072 64.2072C71.8 64.1143 71.8737 64.0041 71.924 63.8827C71.9742 63.7614 72 63.6313 72 63.5V31.5C72 31.3687 71.9742 31.2386 71.924 31.1173C71.8737 30.9959 71.8 30.8857 71.7072 30.7928C71.6143 30.7 71.5041 30.6263 71.3827 30.5761C71.2614 30.5258 71.1313 30.5 71 30.5ZM68 56.5C67.9989 57.1955 67.7564 57.869 67.3139 58.4056C66.8715 58.9421 66.2564 59.3085 65.5739 59.442C65.5483 59.5244 64.0998 60.9484 64 61.0517C63.8148 61.2381 63.5944 61.3858 63.3517 61.4864C63.109 61.587 62.8487 61.6384 62.586 61.6377C61.5071 61.7428 60.5596 60.3687 59.8628 59.7422C59.661 60.0247 59.3901 60.2508 59.076 60.3987C58.7619 60.5467 58.4151 60.6117 58.0687 60.5874C57.7223 60.5631 57.388 60.4503 57.0976 60.26C56.8072 60.0696 56.5705 59.8079 56.4101 59.5H35C34.2046 59.4991 33.4421 59.1828 32.8796 58.6204C32.3172 58.0579 32.0009 57.2954 32 56.5V41.5C32.0009 40.7046 32.3172 39.9421 32.8796 39.3796C33.4421 38.8172 34.2046 38.5009 35 38.5H36V36.5C36 36.3675 36.0263 36.2364 36.0775 36.1141C36.1286 35.9919 36.2035 35.8811 36.2979 35.7881C36.3893 35.6912 36.5006 35.6153 36.6242 35.5656C36.7478 35.5158 36.8806 35.4935 37.0137 35.5C40.4969 35.546 43.8945 36.5869 46.8057 38.5H53.192C56.1032 36.585 59.502 35.544 62.9863 35.5C63.1189 35.497 63.2508 35.521 63.3738 35.5705C63.4969 35.6201 63.6086 35.6941 63.7022 35.7881C63.7965 35.8811 63.8714 35.9919 63.9225 36.1141C63.9737 36.2364 64 36.3675 64 36.5V38.5H65C65.7954 38.5009 66.5579 38.8172 67.1204 39.3796C67.6828 39.9421 67.9991 40.7046 68 41.5V56.5Z" fill="#FF5D00"/>
<path d="M61.6895 55.5C61.6243 54.904 62.6318 54.2107 62.9595 53.8154C62.4526 53.6464 56.469 51.6518 55.7852 51.4238L58.1768 58.5986C58.5776 58.2664 59.2603 57.2658 59.8613 57.3281C60.1265 57.3282 60.3808 57.4336 60.5683 57.6211L62.5845 59.6377L63.9985 58.2236L61.9825 56.207C61.8896 56.1142 61.8159 56.004 61.7656 55.8827C61.7153 55.7613 61.6895 55.6313 61.6895 55.5ZM64.9986 40.5H63.9986V52.1138C64.2808 52.2927 64.515 52.5381 64.6806 52.8283C64.8462 53.1186 64.9382 53.445 64.9486 53.7791C64.959 54.1131 64.8874 54.4446 64.7401 54.7446C64.5927 55.0446 64.3742 55.3039 64.1036 55.5C64.6748 56.0297 65.2107 56.5964 65.7076 57.1963C65.7998 57.1053 65.873 56.9968 65.9229 56.8773C65.9729 56.7578 65.9986 56.6295 65.9986 56.5V41.5C65.9984 41.2349 65.8929 40.9806 65.7054 40.7932C65.5179 40.6057 65.2637 40.5002 64.9986 40.5Z" fill="#FF5D00"/>
</svg>
