<svg width="50" height="50" viewBox="0 0 50 50" fill="none" xmlns="http://www.w3.org/2000/svg">
<g clip-path="url(#clip0_23065_869)">
<path fill-rule="evenodd" clip-rule="evenodd" d="M28.4352 14.7227L28.3898 2.36328H21.5898L21.6352 14.7227L25.0352 19.4552L28.4352 14.7227ZM21.6352 35.9038V48.3092H28.4352V35.9038L25.0352 31.1714L21.6352 35.9038Z" fill="white"/>
<path fill-rule="evenodd" clip-rule="evenodd" d="M28.4347 35.9043L35.5974 45.9205L41.0827 41.8773L33.9201 31.8611L28.4347 30.0692V35.9043ZM21.6347 14.7232L14.4267 4.70703L8.94141 8.75027L16.1041 18.7665L21.6347 20.5584V14.7232Z" fill="#00F2E6"/>
<path fill-rule="evenodd" clip-rule="evenodd" d="M16.1047 18.7666L4.4994 14.9531L2.41406 21.4774L14.0194 25.3369L19.5047 23.4991L16.1047 18.7666ZM30.5207 27.1288L33.9207 31.8612L45.5261 35.6747L47.6114 29.1504L36.0061 25.3369L30.5207 27.1288Z" fill="#00B9F1"/>
<path fill-rule="evenodd" clip-rule="evenodd" d="M36.0061 25.3369L47.6114 21.4775L45.5261 14.9531L33.9207 18.7666L30.5207 23.4991L36.0061 25.3369ZM14.0194 25.3369L2.41406 29.1504L4.4994 35.6747L16.1047 31.8612L19.5047 27.1288L14.0194 25.3369Z" fill="#D63AFF"/>
<path fill-rule="evenodd" clip-rule="evenodd" d="M16.1041 31.8611L8.94141 41.8773L14.4267 45.9205L21.6347 35.9043V30.0692L16.1041 31.8611ZM33.9201 18.7665L41.0827 8.75027L35.5974 4.70703L28.4347 14.7232V20.5584L33.9201 18.7665Z" fill="#FB015B"/>
</g>
<defs>
<clipPath id="clip0_23065_869">
<rect width="45.3333" height="45.9459" fill="white" transform="translate(2.34766 2.36328)"/>
</clipPath>
</defs>
</svg>
