<svg width="50" height="50" viewBox="0 0 50 50" fill="none" xmlns="http://www.w3.org/2000/svg">
<path d="M1.68359 30.7526V29.1981H2.33132V21.6327H1.68359V20.0781H4.24858C5.41448 20.0781 6.13993 21.1145 6.13993 22.9799C6.13993 24.1717 5.7772 24.8972 5.31084 25.2599C5.98447 25.6226 6.45083 26.5035 6.45083 27.7472C6.45083 29.7162 5.67357 30.8044 4.37812 30.8044H1.68359V30.7526ZM3.21222 21.6327V24.5345H4.17085C4.8963 24.5345 5.25902 24.0163 5.25902 23.0836C5.25902 22.099 4.87039 21.6327 4.14494 21.6327H3.21222ZM3.21222 29.1981H4.30039C5.15539 29.1981 5.56993 28.6799 5.56993 27.6435C5.56993 26.6072 5.12948 26.089 4.24858 26.089H3.21222V29.1981Z" fill="#3E3C42"/>
<path d="M11.1158 25.207C11.0121 24.5852 10.779 24.2225 10.468 24.2225C9.7426 24.2225 9.04306 25.2589 9.04306 27.1761V29.197H10.468V30.7515H7.28125V29.197H8.18806V24.4816H7.48852V22.9271H9.04306V24.2743C9.30215 23.3416 9.82032 22.668 10.5199 22.668C11.2971 22.668 11.7894 23.5489 11.9449 24.7925L11.1158 25.207Z" fill="#3E3C42"/>
<path d="M15.417 26.1916V25.7252C15.417 24.637 14.9507 24.1707 14.4584 24.1707C13.992 24.1707 13.5775 24.5334 13.2666 25.1034L12.7225 23.9634C13.1111 23.2898 13.6552 22.668 14.4843 22.668C15.5207 22.668 16.2979 23.7043 16.2979 25.7252V29.197H16.8938V30.7515H15.417V29.9225C15.1838 30.5961 14.6138 31.0106 14.0179 31.0106C13.1629 31.0106 12.4375 30.1816 12.4375 28.5234C12.4375 26.6061 13.422 25.8289 14.3289 25.8289C14.7693 25.8807 15.132 26.0361 15.417 26.1916ZM15.417 27.5907C15.1579 27.3834 14.7434 27.2798 14.3807 27.2798C13.8366 27.2798 13.3184 27.5907 13.3184 28.5752C13.3184 29.3006 13.6552 29.6116 14.0957 29.6116C14.7175 29.6116 15.417 28.9897 15.417 27.8498V27.5907Z" fill="#3E3C42"/>
<path d="M21.9945 29.1974V30.752H17.875V29.1974H19.585V24.482H18.2895V22.9275H20.44V29.1974H21.9945ZM19.4814 18.9375H20.44V21.3211H19.4814V18.9375Z" fill="#3E3C42"/>
<path d="M23.0049 29.197H23.6268V24.4816H23.0309V22.9271H24.4558V23.9634C24.7149 23.1861 25.2331 22.668 25.8549 22.668C26.7617 22.668 27.4095 23.7561 27.4095 25.5698V29.197H28.0313V30.7515H25.9067V29.197H26.5545V25.9843C26.5545 24.637 26.114 24.2225 25.7254 24.2225C25.0777 24.2225 24.4299 25.1552 24.4299 26.5543V29.197H25.0777V30.7515H22.9531V29.197" fill="#3E3C42"/>
<path d="M29.199 24.4826H28.1367V22.9281H29.199V20.0781H30.054V22.9281H32.049V24.4826H30.054V27.799C30.054 29.0426 30.4944 29.509 31.0126 29.509C31.479 29.509 31.8935 28.9908 32.1785 28.4208L32.7485 29.5608C32.3858 30.3381 31.7899 31.0635 31.0126 31.0635C29.9762 31.0635 29.2249 29.9753 29.2249 27.8508V24.4826" fill="#3E3C42"/>
<path d="M37.336 25.207C37.2323 24.5852 36.9991 24.2225 36.6882 24.2225C35.9628 24.2225 35.2632 25.2589 35.2632 27.1761V29.197H36.6882V30.7515H33.5273V29.197H34.4342V24.4816H33.7346V22.9271H35.2892V24.2743C35.5482 23.3416 36.0664 22.668 36.766 22.668C37.5432 22.668 38.0355 23.5489 38.1909 24.7925L37.336 25.207Z" fill="#3E3C42"/>
<path d="M43.0065 29.5608C42.5919 30.3899 41.8406 31.0117 41.0115 31.0117C39.6383 31.0117 38.6797 29.2499 38.6797 26.8144C38.6797 24.379 39.6124 22.6172 40.9079 22.6172C42.2033 22.6172 43.0842 24.5344 43.0842 27.1253V27.3844H39.5606C39.716 28.6799 40.2601 29.509 41.0115 29.509C41.6333 29.509 42.1515 29.0426 42.4365 28.4208L43.0065 29.5608ZM39.6124 26.0372H42.1256C41.996 24.8972 41.4778 24.1717 40.9079 24.1717C40.2342 24.1199 39.742 24.8972 39.6124 26.0372Z" fill="#3E3C42"/>
<path d="M48.2408 29.5608C47.8263 30.3899 47.0749 31.0117 46.2459 31.0117C44.8727 31.0117 43.9141 29.2499 43.9141 26.8144C43.9141 24.379 44.8468 22.6172 46.1422 22.6172C47.4377 22.6172 48.3186 24.5344 48.3186 27.1253V27.3844H44.795C44.9504 28.6799 45.4945 29.509 46.2459 29.509C46.8677 29.509 47.3859 29.0426 47.6709 28.4208L48.2408 29.5608ZM44.8468 26.0372H47.3599C47.2304 24.8972 46.7122 24.1717 46.1422 24.1717C45.4945 24.1199 44.9763 24.8972 44.8468 26.0372Z" fill="#3E3C42"/>
</svg>
