<svg width="50" height="50" viewBox="0 0 50 50" fill="none" xmlns="http://www.w3.org/2000/svg">
<path d="M6.75339 38.109L4.91797 37.0488L25.3669 1.63281L27.2011 2.69257L6.75339 38.109Z" fill="#E434AA"/>
<path d="M4.49609 34.2188H45.3924V36.3375H4.49609V34.2188Z" fill="#E434AA"/>
<path d="M25.7635 47.2197L5.30859 35.41L6.36835 33.5737L26.8237 45.3851L25.7635 47.2197ZM43.5332 16.4385L23.0782 4.62719L24.138 2.79297L44.5933 14.6023L43.5332 16.4385Z" fill="#E434AA"/>
<path d="M6.37265 16.4307L5.3125 14.5949L25.7694 2.78516L26.8292 4.61978L6.37265 16.4307Z" fill="#E434AA"/>
<path d="M43.157 38.109L22.7097 2.69257L24.5443 1.63281L44.9933 37.0488L43.157 38.109ZM6.12109 13.1896H8.241V36.8122H6.12149L6.12109 13.1896Z" fill="#E434AA"/>
<path d="M41.6641 13.1875H43.7836V36.8101H41.6641V13.1875Z" fill="#E434AA"/>
<path d="M25.4023 46.3217L24.4766 44.7177L42.2666 34.4453L43.1922 36.0493L25.4023 46.3217Z" fill="#E434AA"/>
<path d="M46.5942 37.5C45.3692 39.6323 42.6369 40.3601 40.505 39.1351C38.3727 37.9086 37.6449 35.1762 38.8699 33.0439C40.0964 30.9116 42.8288 30.1839 44.9611 31.4092C47.1057 32.6481 47.8335 35.3677 46.5942 37.5ZM11.0238 16.9561C9.79723 19.0884 7.06485 19.8161 4.93257 18.5908C2.80029 17.3643 2.07251 14.6323 3.29785 12.5C4.52439 10.3677 7.25637 9.63994 9.38865 10.8649C11.5209 12.1042 12.2487 14.8238 11.0238 16.9561ZM3.31182 37.5C2.08488 35.3677 2.81306 32.6481 4.94494 31.4088C7.07722 30.1839 9.79683 30.9116 11.0361 33.0439C12.2611 35.1762 11.5333 37.8958 9.40102 39.1351C7.25637 40.3601 4.53676 39.6323 3.31182 37.5ZM38.8822 16.9561C37.6573 14.8238 38.3851 12.1042 40.5174 10.8649C42.6496 9.63994 45.3692 10.3677 46.6081 12.5C47.8331 14.6323 47.1057 17.3519 44.9734 18.5912C42.8412 19.8161 40.1088 19.0884 38.8822 16.9561ZM24.953 50C24.3677 50.0005 23.788 49.8856 23.2471 49.6619C22.7062 49.4381 22.2148 49.1099 21.8009 48.696C21.387 48.2821 21.0588 47.7907 20.8351 47.2498C20.6113 46.7089 20.4964 46.1293 20.4969 45.5439C20.4964 44.9586 20.6113 44.3789 20.8351 43.838C21.0588 43.2972 21.387 42.8057 21.8009 42.3918C22.2148 41.9779 22.7062 41.6497 23.2471 41.426C23.788 41.2022 24.3677 41.0873 24.953 41.0878C25.5383 41.0873 26.118 41.2022 26.6589 41.426C27.1998 41.6497 27.6912 41.9779 28.1051 42.3918C28.519 42.8057 28.8472 43.2972 29.0709 43.838C29.2947 44.3789 29.4096 44.9586 29.4091 45.5439C29.4091 47.9958 27.4172 50 24.953 50ZM24.953 8.91216C24.3677 8.91268 23.788 8.79778 23.2471 8.57403C22.7062 8.35027 22.2148 8.02206 21.8009 7.60817C21.387 7.19428 21.0588 6.70284 20.8351 6.16197C20.6113 5.62109 20.4964 5.04141 20.4969 4.45608C20.4964 3.87075 20.6113 3.29106 20.8351 2.75019C21.0588 2.20932 21.387 1.71788 21.8009 1.30399C22.2148 0.890097 22.7062 0.561885 23.2471 0.338132C23.788 0.114379 24.3677 -0.000523027 24.953 1.78974e-06C25.5383 -0.000523027 26.118 0.114379 26.6589 0.338132C27.1998 0.561885 27.6912 0.890097 28.1051 1.30399C28.519 1.71788 28.8472 2.20932 29.0709 2.75019C29.2947 3.29106 29.4096 3.87075 29.4091 4.45608C29.4096 5.04141 29.2947 5.62109 29.0709 6.16197C28.8472 6.70284 28.519 7.19428 28.1051 7.60817C27.6912 8.02206 27.1998 8.35027 26.6589 8.57403C26.118 8.79778 25.5383 8.91268 24.953 8.91216Z" fill="#E434AA"/>
</svg>
