<svg width="50" height="50" viewBox="0 0 50 50" fill="none" xmlns="http://www.w3.org/2000/svg">
<rect width="50" height="50" rx="12" fill="#45D1FD"/>
<mask id="mask0_23051_3207" style="mask-type:luminance" maskUnits="userSpaceOnUse" x="11" y="10" width="25" height="30">
<path d="M35.2045 23.876L27.3538 31.7295L35.2045 39.5831H26.2335L18.3799 31.7295L26.2335 23.876H35.2045ZM26.2335 10.418L11.6523 24.9991L16.1393 29.486L35.2045 10.418H26.2335V10.418Z" fill="white"/>
</mask>
<g mask="url(#mask0_23051_3207)">
<path d="M18.3828 31.7285L22.8669 36.2155L35.2046 23.875H26.2335L18.3828 31.7285Z" fill="#39CEFD"/>
</g>
<mask id="mask1_23051_3207" style="mask-type:luminance" maskUnits="userSpaceOnUse" x="11" y="10" width="25" height="30">
<path d="M35.2045 23.876L27.3538 31.7295L35.2045 39.5831H26.2335L18.3799 31.7295L26.2335 23.876H35.2045ZM26.2335 10.418L11.6523 24.9991L16.1393 29.486L35.2045 10.418H26.2335V10.418Z" fill="white"/>
</mask>
<g mask="url(#mask1_23051_3207)">
<path d="M26.2335 10.418H35.2045L16.1393 29.486L11.6523 24.9991L26.2335 10.418Z" fill="#39CEFD"/>
</g>
<mask id="mask2_23051_3207" style="mask-type:luminance" maskUnits="userSpaceOnUse" x="11" y="10" width="25" height="30">
<path d="M35.2045 23.876L27.3538 31.7295L35.2045 39.5831H26.2335L18.3799 31.7295L26.2335 23.876H35.2045ZM26.2335 10.418L11.6523 24.9991L16.1393 29.486L35.2045 10.418H26.2335V10.418Z" fill="white"/>
</mask>
<g mask="url(#mask2_23051_3207)">
<path d="M22.8672 36.2174L26.2338 39.5812H35.2049L27.3541 31.7305L22.8672 36.2174Z" fill="#03569B"/>
</g>
<mask id="mask3_23051_3207" style="mask-type:luminance" maskUnits="userSpaceOnUse" x="11" y="10" width="25" height="30">
<path d="M35.2045 23.876L27.3538 31.7295L35.2045 39.5831H26.2335L18.3799 31.7295L26.2335 23.876H35.2045ZM26.2335 10.418L11.6523 24.9991L16.1393 29.486L35.2045 10.418H26.2335V10.418Z" fill="white"/>
</mask>
<g mask="url(#mask3_23051_3207)">
<path d="M29.5218 33.9122L27.3541 31.7305L22.8672 36.2174L29.5218 33.9122Z" fill="url(#paint0_linear_23051_3207)"/>
</g>
<mask id="mask4_23051_3207" style="mask-type:luminance" maskUnits="userSpaceOnUse" x="11" y="10" width="25" height="30">
<path d="M35.2045 23.876L27.3538 31.7295L35.2045 39.5831H26.2335L18.3799 31.7295L26.2335 23.876H35.2045ZM26.2335 10.418L11.6523 24.9991L16.1393 29.486L35.2045 10.418H26.2335V10.418Z" fill="white"/>
</mask>
<g mask="url(#mask4_23051_3207)">
<path d="M18.3828 31.7293L22.8699 27.2422L27.3572 31.7293L22.8699 36.2163L18.3828 31.7293Z" fill="#16B9FD"/>
</g>
<path d="M35.2045 23.876L27.3538 31.7295L35.2045 39.5831H26.2335L18.3799 31.7295L26.2335 23.876H35.2045ZM26.2335 10.418L11.6523 24.9991L16.1393 29.486L35.2045 10.418H26.2335Z" fill="white"/>
<defs>
<linearGradient id="paint0_linear_23051_3207" x1="24.1766" y1="37.0833" x2="27.5184" y2="33.7416" gradientUnits="userSpaceOnUse">
<stop stop-color="#1A237E" stop-opacity="0.4"/>
<stop offset="1" stop-color="#1A237E" stop-opacity="0"/>
</linearGradient>
</defs>
</svg>
