<svg width="50" height="50" viewBox="0 0 50 50" fill="none" xmlns="http://www.w3.org/2000/svg">
<g clip-path="url(#clip0_23065_18609)">
<path d="M0 8C0 3.58172 3.58172 0 8 0H42C46.4183 0 50 3.58172 50 8V42C50 46.4183 46.4183 50 42 50H8C3.58172 50 0 46.4183 0 42V8Z" fill="#F7DF1E"/>
<path d="M13.1486 41.785L16.9748 39.4693C17.7131 40.7781 18.3846 41.8856 19.9953 41.8856C21.5393 41.8856 22.5129 41.2816 22.5129 38.9324V22.9562H27.2115V38.9988C27.2115 43.8654 24.3588 46.0807 20.1967 46.0807C16.4379 46.0807 14.2561 44.134 13.1484 41.7846M29.7637 41.2814L33.5895 39.0664C34.5967 40.7111 35.9057 41.9193 38.2213 41.9193C40.1684 41.9193 41.4098 40.9459 41.4098 39.6033C41.4098 37.9924 40.1344 37.4217 37.9863 36.4822L36.8119 35.9783C33.4219 34.5355 31.1732 32.723 31.1732 28.8969C31.1732 25.3727 33.8582 22.6875 38.0537 22.6875C41.0408 22.6875 43.1889 23.7281 44.7326 26.4467L41.074 28.7963C40.2684 27.3531 39.3961 26.7826 38.0535 26.7826C36.6773 26.7826 35.8047 27.6553 35.8047 28.7963C35.8047 30.2059 36.6773 30.7768 38.691 31.6494L39.8656 32.1527C43.8598 33.8647 46.1084 35.6098 46.1084 39.5363C46.1084 43.7656 42.7857 46.0813 38.3219 46.0813C33.9588 46.0813 31.1395 44.0004 29.7635 41.2816" fill="black"/>
</g>
<defs>
<clipPath id="clip0_23065_18609">
<rect width="50" height="50" fill="white"/>
</clipPath>
</defs>
</svg>
