<svg width="50" height="50" viewBox="0 0 50 50" fill="none" xmlns="http://www.w3.org/2000/svg">
<g clip-path="url(#clip0_23058_19738)">
<path d="M29.0693 0.136719L30.4036 2.64278C30.7036 3.10525 31.0286 3.51459 31.4113 3.89581C32.5336 5.00405 33.5796 6.18686 34.5424 7.43617C36.8031 10.4047 38.328 13.7013 39.417 17.2667C40.0701 19.4446 40.4247 21.6788 40.4513 23.9381C40.5607 30.6922 38.2452 36.4918 33.5768 41.3117C32.8174 42.0761 31.9971 42.7773 31.1239 43.4085C30.6614 43.4085 30.4427 43.0538 30.2521 42.7273C29.9049 42.1218 29.6739 41.4568 29.5709 40.7665C29.4068 39.9493 29.299 39.1322 29.3521 38.2885V37.9073C29.3146 37.8261 28.9068 0.328892 29.0693 0.136719Z" fill="#599636"/>
<path d="M29.0727 0.0537507C29.018 -0.0556161 28.9634 0.0271902 28.9087 0.0803112C28.9352 0.627145 28.7446 1.11461 28.4462 1.5802C28.1181 2.04266 27.6838 2.39732 27.2479 2.77855C24.8262 4.87526 22.9201 7.40788 21.3936 10.2405C19.3625 14.0527 18.3157 18.1383 18.0189 22.4396C17.8829 23.991 18.5095 29.4656 18.9985 31.0452C20.3328 35.2386 22.7295 38.7524 25.8339 41.8022C26.5963 42.5365 27.4119 43.2177 28.2556 43.8723C28.5009 43.8723 28.5275 43.6536 28.5837 43.4911C28.6912 43.1434 28.7732 42.7883 28.829 42.4287L29.3758 38.3446L29.0727 0.0537507Z" fill="#6CAC48"/>
<path d="M30.4053 45.069C30.46 44.444 30.76 43.9253 31.0865 43.4082C30.7584 43.2722 30.5147 43.0019 30.3241 42.7004C30.1597 42.4149 30.0236 42.114 29.9178 41.802C29.5366 40.6584 29.4554 39.4585 29.346 38.2898V37.582C29.2101 37.6914 29.182 38.6163 29.182 38.7538C29.1025 39.989 28.9385 41.2173 28.6914 42.4301C28.6101 42.9207 28.5554 43.4097 28.2539 43.8456C28.2539 43.9003 28.2539 43.955 28.2805 44.0362C28.7711 45.4799 28.9054 46.9501 28.9882 48.4484V48.9952C28.9882 49.6483 28.9617 49.5108 29.5038 49.7296C29.7225 49.8108 29.9663 49.8389 30.185 50.0014C30.3491 50.0014 30.3756 49.8655 30.3756 49.7561L30.2944 48.8577V46.3517C30.2678 45.9142 30.3491 45.4799 30.4037 45.0705L30.4053 45.069Z" fill="#C2BFBF"/>
</g>
<defs>
<clipPath id="clip0_23058_19738">
<rect width="50" height="50" fill="white"/>
</clipPath>
</defs>
</svg>
