<svg width="50" height="50" viewBox="0 0 50 50" fill="none" xmlns="http://www.w3.org/2000/svg">
<g clip-path="url(#clip0_23065_18626)">
<g clip-path="url(#clip1_23065_18626)">
<path fill-rule="evenodd" clip-rule="evenodd" d="M41.1526 6.97481L42.1643 8.37566C42.43 8.74539 42.3635 9.27533 42.012 9.55468L40.9378 10.4133C41.1331 10.9596 41.2581 11.543 41.3089 12.1386L42.5315 12.3153C42.969 12.3769 43.2737 12.8042 43.2151 13.2643L42.9885 15.0102C42.93 15.4703 42.5237 15.7948 42.0862 15.7291L40.7503 15.536C40.512 16.0824 40.2073 16.5836 39.8479 17.0314L40.5979 18.0666C40.8636 18.4363 40.7932 18.9663 40.4417 19.2456L39.1096 20.3096C38.7581 20.5889 38.2542 20.515 37.9885 20.1494L37.1721 19.0197C36.6487 19.2251 36.0979 19.3565 35.5276 19.4099L35.3596 20.6957C35.301 21.1559 34.8948 21.4763 34.4573 21.4147L32.7971 21.1764C32.3596 21.1148 32.055 20.6875 32.1135 20.2274L32.2971 18.8225C31.7815 18.5719 31.301 18.2515 30.8753 17.8776L29.8909 18.6623C29.5393 18.9416 29.0354 18.8718 28.7698 18.502L27.7581 17.1012C27.4925 16.7315 27.5589 16.2015 27.9104 15.9222L28.9846 15.0636C28.7893 14.5131 28.6643 13.9339 28.6135 13.3382L27.3909 13.1616C26.9534 13.0999 26.6448 12.6727 26.7073 12.2126L26.9339 10.4667C26.9964 10.0066 27.3987 9.68614 27.8362 9.74776L29.1721 9.94084C29.4104 9.39857 29.7151 8.89328 30.0706 8.4455L29.3245 7.41027C29.0589 7.04465 29.1253 6.51471 29.4768 6.23536L30.8089 5.17137C31.1604 4.89202 31.6643 4.96186 31.93 5.33159L32.7464 6.4613C33.2659 6.2559 33.8206 6.12444 34.387 6.07104L34.555 4.78521C34.6135 4.32511 35.0198 4.00057 35.4573 4.06219L37.1175 4.30046C37.555 4.36208 37.8635 4.78932 37.801 5.24943L37.6175 6.65438C38.137 6.90498 38.6135 7.2254 39.0432 7.60335L40.0276 6.81871C40.3792 6.53525 40.8831 6.60509 41.1526 6.97481ZM12.5901 31.6273V24.849H15.9104C16.5276 24.849 16.9964 24.9024 17.3206 25.0174C17.6448 25.1284 17.9104 25.3338 18.1057 25.6336C18.305 25.9376 18.4065 26.3033 18.4065 26.7346C18.4065 27.1084 18.3284 27.4371 18.176 27.7082C18.0237 27.9835 17.8128 28.2053 17.5471 28.3737C17.3792 28.4805 17.1448 28.5709 16.8479 28.6407C17.0862 28.727 17.2581 28.8051 17.3635 28.8913C17.4378 28.9489 17.5432 29.068 17.68 29.2487C17.8167 29.4295 17.9104 29.5733 17.9573 29.6719L18.926 31.6314H16.676L15.6135 29.5651C15.4768 29.298 15.3596 29.1214 15.2542 29.0433C15.1096 28.9406 14.9456 28.8872 14.7659 28.8872H14.5901V31.6314H12.5901V31.6273ZM19.6135 43.4298H15.8948L15.3596 45.2702H12.0081L16.0042 34.1004H19.5979L23.5784 45.2702H20.1409L19.6135 43.4298ZM18.9182 41.0101L17.7581 36.9924L16.594 41.0101H18.9182ZM24.3518 34.1004H29.8128C31.0042 34.1004 31.8948 34.3961 32.4846 34.9918C33.0745 35.5875 33.3714 36.4379 33.3714 37.5347C33.3714 38.6644 33.0471 39.5477 32.4026 40.1844C31.7581 40.8212 30.7698 41.1375 29.4456 41.1375H27.6448V45.2702H24.3518V34.1004ZM27.6448 38.8739H28.4534C29.0901 38.8739 29.5393 38.7589 29.7971 38.5248C30.055 38.2947 30.1839 37.9948 30.1839 37.6374C30.1839 37.2882 30.0706 36.9883 29.8479 36.746C29.6253 36.5036 29.2034 36.3803 28.5862 36.3803H27.6448V38.8739ZM34.6995 34.1004H37.9925V45.2702H34.6995V34.1004ZM14.5901 27.6014H15.43C15.5198 27.6014 15.6956 27.5685 15.9573 27.5069C16.0901 27.4782 16.1995 27.4083 16.2815 27.2933C16.3675 27.1783 16.4065 27.0468 16.4065 26.8989C16.4065 26.6812 16.3401 26.5087 16.2073 26.3936C16.0745 26.2745 15.8284 26.217 15.4651 26.217H14.5901V27.6014ZM19.3089 24.849H24.6409V26.295H21.3089V27.3755H24.3987V28.7558H21.3089V30.0909H24.7385V31.6232H19.3089V24.849ZM25.2112 29.3843L27.1018 29.2611C27.1409 29.5856 27.2268 29.828 27.3518 29.9964C27.5589 30.2675 27.8518 30.4072 28.2307 30.4072C28.512 30.4072 28.7346 30.3374 28.887 30.1977C29.0393 30.058 29.1175 29.8937 29.1175 29.7088C29.1175 29.5322 29.0432 29.3761 28.8987 29.2364C28.7542 29.0967 28.4143 28.9694 27.8792 28.842C27.0081 28.6366 26.387 28.3614 26.012 28.0204C25.637 27.6795 25.4495 27.244 25.4495 26.7141C25.4495 26.3649 25.5471 26.0362 25.7385 25.7281C25.93 25.42 26.219 25.1735 26.6057 24.9969C26.9925 24.8202 27.5198 24.734 28.1917 24.734C29.0159 24.734 29.6409 24.8942 30.0745 25.2187C30.5042 25.5433 30.762 26.0527 30.844 26.7593L28.9729 26.8784C28.9221 26.5703 28.8167 26.3443 28.6604 26.2088C28.5003 26.0691 28.2776 25.9993 28.0003 25.9993C27.7698 25.9993 27.594 26.0527 27.4768 26.1554C27.3596 26.2581 27.301 26.3854 27.301 26.5333C27.301 26.6401 27.3518 26.7346 27.4456 26.825C27.5393 26.9113 27.7581 26.9975 28.1096 27.0756C28.9807 27.2728 29.6057 27.4741 29.9807 27.6754C30.3557 27.8766 30.6331 28.1272 30.801 28.4271C30.9729 28.7229 31.0589 29.0598 31.0589 29.4295C31.0589 29.865 30.9456 30.2634 30.7151 30.6291C30.4885 30.9947 30.1682 31.274 29.7581 31.463C29.3479 31.652 28.8323 31.7464 28.2073 31.7464C27.1135 31.7464 26.3518 31.5246 25.93 31.0809C25.5081 30.6291 25.2698 30.0662 25.2112 29.3843ZM31.3479 24.849H37.4065V26.5251H35.3753V31.6273H33.3831V26.5251H31.3479V24.849ZM24.6448 8.76182C23.93 8.70431 23.2073 8.71252 22.4925 8.78647C20.2932 9.00831 18.1565 9.85046 16.3909 11.2924C14.3479 12.9562 12.7971 15.4456 12.1995 18.7444L12.012 19.7755L11.0354 19.9563C10.0784 20.1329 9.22292 20.3753 8.47292 20.6834C7.74635 20.9792 7.09792 21.3448 6.53151 21.7762C6.07839 22.1212 5.68776 22.5074 5.35573 22.9264C4.32839 24.2205 3.85182 25.8432 3.86354 27.4864C3.87526 29.1543 4.39089 30.8386 5.34401 32.223C5.69948 32.7365 6.10964 33.2089 6.57839 33.6197C7.05495 34.0346 7.59011 34.3797 8.19167 34.6385C8.53151 34.7864 8.89479 34.9097 9.2737 35.0082V38.0852C8.49245 37.9373 7.7737 37.7155 7.10182 37.4238C6.21511 37.0376 5.42995 36.5406 4.73854 35.9326C4.08229 35.3574 3.50807 34.7042 3.01979 33.9936C1.71901 32.1038 1.01589 29.7951 1.00026 27.4946C0.984635 25.1694 1.67214 22.8566 3.15651 20.9833C3.63698 20.3753 4.20339 19.8166 4.85182 19.3237C5.60573 18.7485 6.46901 18.2638 7.44557 17.8653C8.11745 17.5901 8.8362 17.36 9.59401 17.1751C10.4534 13.5847 12.2854 10.82 14.6409 8.9015C16.844 7.10627 19.4964 6.05871 22.2268 5.78347C23.6604 5.63969 25.1135 5.70542 26.5354 5.98477C26.5042 6.12034 26.4768 6.2559 26.4612 6.39558L26.4573 6.42022C26.43 6.65438 26.4182 6.88854 26.43 7.12681C26.1292 7.25005 25.8479 7.41848 25.594 7.62389L25.5823 7.6321C25.2034 7.93199 24.8831 8.31815 24.6448 8.76182ZM45.3128 16.6493C45.5315 16.8588 45.7425 17.0765 45.9495 17.3107C46.3675 17.7831 46.762 18.3172 47.1331 18.9128C48.3831 20.934 49.0237 23.633 48.9964 26.2745C48.969 28.8667 48.305 31.4466 46.9456 33.3445C46.0589 34.581 44.9221 35.5916 43.5589 36.3927C42.6253 36.9431 41.5745 37.3991 40.43 37.7689V34.5851C41.0471 34.3427 41.6214 34.0716 42.1487 33.7635C43.176 33.1596 44.0159 32.4243 44.6448 31.541C45.6214 30.1731 46.1018 28.2382 46.1214 26.254C46.1448 24.1712 45.6604 22.0802 44.719 20.5602C44.4495 20.1206 44.1526 19.7262 43.8401 19.373C43.719 19.2374 43.5979 19.11 43.4729 18.9868C43.4925 18.7814 43.5003 18.5719 43.4885 18.3624C43.7893 18.2391 44.0706 18.0707 44.3245 17.8653L44.3362 17.8571C44.7386 17.5325 45.0745 17.1217 45.3128 16.6493ZM35.4065 9.3123C37.2073 9.57111 38.4651 11.317 38.219 13.2109C37.9729 15.1047 36.3128 16.4316 34.512 16.1728C32.7112 15.914 31.4495 14.168 31.6995 12.2742C31.9495 10.3804 33.6057 9.05349 35.4065 9.3123Z" fill="black"/>
</g>
</g>
<defs>
<clipPath id="clip0_23065_18626">
<rect width="48" height="50" fill="white" transform="translate(1)"/>
</clipPath>
<clipPath id="clip1_23065_18626">
<rect width="48" height="41.2162" fill="white" transform="translate(1 4.05469)"/>
</clipPath>
</defs>
</svg>
