<svg width="50" height="50" viewBox="0 0 50 50" fill="none" xmlns="http://www.w3.org/2000/svg">
<g clip-path="url(#clip0_23065_18914)">
<path d="M25 50C38.2548 50 49 38.8071 49 25C49 11.1929 38.2548 0 25 0C11.7452 0 1 11.1929 1 25C1 38.8071 11.7452 50 25 50Z" fill="#635BFF"/>
<path d="M37.6395 25.1816C37.6395 23.3091 36.7686 21.8311 35.1045 21.8311C33.4405 21.8311 32.4219 23.3086 32.4219 25.167C32.4219 27.3687 33.6158 28.481 35.3281 28.481C36.1639 28.481 36.7958 28.2856 37.2734 28.0054V26.5405C36.7958 26.7891 36.2483 26.9429 35.5531 26.9429C34.872 26.9429 34.2678 26.6943 34.1909 25.8311H37.625C37.6255 25.7373 37.6395 25.3569 37.6395 25.1816ZM34.1708 24.4868C34.1708 23.6602 34.6555 23.3149 35.098 23.3149C35.5264 23.3149 35.983 23.6567 35.983 24.4868H34.1708ZM29.7111 21.8311C29.1988 21.8291 28.7056 22.0336 28.3348 22.4019L28.2434 21.9482H26.6966V30.4775L28.452 30.0898L28.4591 28.0195C28.7117 28.21 29.0839 28.4805 29.7022 28.4805C30.9594 28.4805 32.1041 27.4272 32.1041 25.1084C32.0984 22.9868 30.9397 21.8311 29.7111 21.8311ZM29.2892 26.8711C28.8748 26.8711 28.6292 26.7173 28.4605 26.5293L28.4534 23.8154C28.6363 23.6035 28.8889 23.457 29.2892 23.457C29.9281 23.457 30.3706 24.2031 30.3706 25.1616C30.3711 26.1396 29.9356 26.8711 29.2897 26.8711H29.2892ZM24.2825 21.3994L26.045 21.0044V19.5195L24.2825 19.9072V21.3994ZM24.2825 21.9556H26.045V28.3564H24.2825V21.9556ZM22.3934 22.4966L22.28 21.9556H20.7641V28.356H22.5195V24.0181C22.9339 23.4546 23.6361 23.5571 23.8536 23.6377V21.9556C23.6295 21.8677 22.8078 21.7065 22.3934 22.4966ZM18.882 20.3682L17.1706 20.7505L17.1636 26.6099C17.1636 27.6924 17.9431 28.4897 18.9823 28.4897C19.558 28.4897 19.9794 28.3799 20.2114 28.2485V26.7617C19.9869 26.8569 18.8773 27.1934 18.8773 26.1108V23.5137H20.2114V21.9556H18.875L18.882 20.3682ZM14.135 23.8135C14.135 23.5283 14.3595 23.4185 14.7317 23.4185C15.3392 23.4317 15.9354 23.592 16.4731 23.8867V22.1665C15.9192 21.9392 15.3284 21.8253 14.7331 21.8311C13.3077 21.8311 12.3594 22.6064 12.3594 23.9014C12.3594 25.9204 15.028 25.5986 15.028 26.4687C15.028 26.8052 14.7467 26.915 14.3539 26.915C13.7713 26.915 13.0264 26.6665 12.4367 26.3291V28.0703C13.0421 28.3432 13.6943 28.485 14.3539 28.4873C15.8145 28.4873 16.8186 27.7339 16.8186 26.4243C16.8106 24.2451 14.135 24.6328 14.135 23.8135Z" fill="white"/>
</g>
<defs>
<clipPath id="clip0_23065_18914">
<rect width="48" height="50" fill="white" transform="translate(1)"/>
</clipPath>
</defs>
</svg>
