<svg width="50" height="50" viewBox="0 0 50 50" fill="none" xmlns="http://www.w3.org/2000/svg">
<path d="M25.0193 46.8622C23.3569 47.8596 21.7776 48.774 20.1152 49.6883C19.4503 50.1039 18.8684 50.1039 18.2034 49.6883C14.463 47.444 10.6395 45.2829 6.89902 43.0386C6.15094 42.623 5.90157 41.9581 5.90157 41.1269C5.90157 39.4645 5.90157 37.802 5.90157 36.2227C5.90157 35.6409 5.73533 35.2253 5.23661 34.8928C3.90668 33.8954 2.57674 32.8148 1.16369 31.8173C0.415603 31.2355 0 30.5705 0 29.5731C0.0831207 26.4976 0.0831207 23.4221 0 20.3467C0 19.4323 0.332484 18.8505 0.99745 18.2687C2.32738 17.2712 3.65731 16.1906 4.98724 15.1932C5.56909 14.7776 5.81845 14.2789 5.81845 13.5308C5.73533 11.9515 5.81845 10.3722 5.81845 8.79289C5.81845 7.96169 6.15094 7.37984 6.8159 6.96424C10.0576 4.88622 13.2993 2.72508 16.4579 0.647063C16.7904 0.397701 17.206 0.231459 17.6216 0.0652174C18.1203 -0.101024 18.5359 0.0652171 19.0346 0.3977C20.7802 1.56139 22.6088 2.72508 24.3544 3.88877C24.77 4.22125 25.1025 4.13813 25.5181 3.88877C27.2636 2.72508 29.0091 1.64451 30.6716 0.480821C31.5859 -0.101024 32.334 -0.101024 33.2483 0.480821C36.5731 2.64196 39.898 4.8031 43.2228 6.96424C43.8046 7.29672 44.054 7.79545 44.054 8.46041C44.054 10.1228 44.1371 11.7852 44.054 13.4477C44.054 14.1957 44.3865 14.6945 44.8852 15.1101C46.2983 16.1075 47.6282 17.2712 48.9581 18.2687C49.6231 18.7674 49.9556 19.4324 49.8724 20.2636C49.8724 23.339 49.8724 26.4145 49.8724 29.49C49.8724 30.4043 49.6231 30.9861 48.875 31.568C47.4619 32.5654 46.132 33.646 44.8021 34.7266C44.2202 35.1422 43.9709 35.6409 43.9709 36.389C44.054 37.9683 43.9709 39.4644 43.9709 41.0437C43.9709 41.9581 43.6384 42.5399 42.8072 43.0386C39.233 45.1167 35.6588 47.1947 32.0846 49.3558C31.0872 49.9377 30.2559 49.9377 29.2585 49.3558C28.0117 48.6077 26.5155 47.7765 25.0193 46.8622ZM44.2202 31.4017C43.1397 30.7368 42.3085 30.1549 41.311 29.7393C40.8954 29.5731 40.3136 29.6562 39.8148 29.5731C38.9836 29.4068 38.3187 28.9081 38.0693 28.0769C37.7368 27.2457 37.8199 26.4145 38.4018 25.7495C39.6486 24.2534 41.8929 24.5858 42.6409 26.3314C42.8072 26.5807 42.8903 26.9963 43.0565 27.1626C44.2202 27.9107 45.3839 28.5756 46.6307 29.3237C46.6307 29.1575 46.7139 29.0744 46.7139 28.9912C46.7139 26.4145 46.7139 23.8377 46.7139 21.1779C46.7139 20.7623 46.5476 20.596 46.2982 20.4298C44.8021 19.2661 43.389 18.1024 41.976 17.0218C41.2279 16.44 40.8123 15.775 40.8954 14.8607C40.8954 14.4451 40.8954 13.9464 40.8954 13.4477C40.5629 13.4477 40.3136 13.4477 39.9811 13.4477C38.4849 13.4477 36.9056 13.4477 35.4094 13.4477C34.7445 13.4477 34.2457 13.5308 33.6639 13.9464C32.8327 14.5282 31.669 14.4451 30.8378 13.8633C30.0066 13.1983 29.6741 12.1177 30.0066 11.2034C30.5053 9.70722 32.334 9.04226 33.6639 9.87347C34.2457 10.2059 34.7445 10.3722 35.3263 10.3722C36.8225 10.3722 38.4018 10.3722 39.898 10.3722C40.2304 10.3722 40.4798 10.3722 40.8123 10.3722C41.0616 9.79034 40.8123 9.45786 40.3136 9.2085C39.8148 8.87602 39.3161 8.54353 38.8174 8.21105C36.7394 6.88112 34.6613 5.46807 32.5002 4.13813C32.1677 3.97189 31.9184 3.72253 31.5859 3.97189C30.0897 4.96934 28.5104 5.96679 26.9311 6.96424C26.5986 7.2136 26.5155 7.46296 26.5155 7.79545C26.5155 11.1203 26.5155 14.4451 26.5155 17.7699C26.5155 18.1855 26.6818 18.4349 27.0142 18.6011C27.7623 19.0167 28.4273 19.4324 29.1754 19.848C29.7572 20.1804 30.3391 20.5129 31.0872 20.3467C32.334 20.1804 33.8301 21.3441 33.5808 23.1728C33.4145 24.2534 32.5002 25.0846 31.5028 25.1677C30.3391 25.3339 29.2585 24.7521 28.8429 23.6715C28.6767 23.1728 28.3442 22.9234 27.9286 22.6741C26.848 22.0091 25.7674 21.3441 24.6869 20.7623C23.6894 20.2636 23.3569 19.5155 23.44 18.4349C23.5232 14.9438 23.44 11.3696 23.44 7.87857C23.44 7.29672 23.2738 6.96424 22.7751 6.71488C21.2789 5.80055 19.7827 4.8031 18.3697 3.88877C18.0372 3.63941 17.7878 3.72253 17.5385 3.88877C16.9566 4.30438 16.2917 4.71998 15.6267 5.13558C15.128 5.46807 14.9617 5.80055 14.9617 6.38239C14.9617 8.54353 14.9617 10.7047 14.9617 12.8658C14.9617 13.9464 14.2968 14.7776 13.3824 14.6945C12.6344 14.6945 11.8031 14.0295 11.8031 12.8658C11.8863 11.4528 11.8031 10.0397 11.8031 8.62665C11.8031 8.29417 11.8031 8.04481 11.72 7.6292C10.8057 8.21105 10.0576 8.70977 9.30952 9.2085C9.14328 9.37474 8.97704 9.70722 8.97704 9.95658C8.97704 11.3696 8.97704 12.6996 8.97704 14.1126C8.97704 14.362 9.14328 14.6945 9.30952 14.8607C10.5563 15.775 11.8031 16.6062 13.05 17.5206C13.2993 17.6868 13.5487 17.6868 13.8812 17.5206C14.9617 16.9387 16.0423 16.2738 17.1229 15.6919C17.4554 15.5257 17.6216 15.2763 17.6216 14.8607C17.6216 13.7801 17.6216 12.6996 17.6216 11.7021C17.6216 11.0372 17.6216 10.4553 17.6216 9.79034C17.7047 8.7929 18.4528 8.12793 19.284 8.21105C20.1152 8.29417 20.6971 8.95914 20.6971 9.87347C20.6971 11.9515 20.6971 13.9464 20.6971 16.0244C20.6971 17.0218 20.3646 17.6037 19.5334 18.0193C18.1203 18.7674 16.7904 19.5155 15.4605 20.2636C15.2111 20.4298 14.9617 20.5129 14.9617 20.9285C14.9617 22.3416 14.9617 23.7546 14.9617 25.1677C15.2942 25.3339 15.5436 25.5002 15.7929 25.5833C16.9566 26.1651 18.1203 26.747 19.284 27.3288C20.0321 27.6613 20.3646 28.2432 20.3646 29.0744C20.3646 29.5731 20.3646 30.0718 20.3646 30.6537C20.3646 31.568 20.3646 32.3992 20.3646 33.3966C21.1958 32.8979 21.9439 32.5654 22.692 32.1498C22.8582 32.0667 23.0244 31.9836 23.1076 31.9005C23.2738 31.6511 23.3569 31.4017 23.44 31.1524C23.44 30.1549 23.44 29.1575 23.44 28.2432C23.44 27.5782 23.2738 27.2457 22.692 26.9132C21.8608 26.4145 21.1127 25.9158 20.3646 25.417C19.3671 24.669 19.4503 23.4221 20.4477 22.7572C21.1127 22.3416 21.6945 22.5078 22.1932 22.9234C23.2738 23.5884 24.3544 24.3365 25.4349 25.0014C26.183 25.417 26.4324 26.082 26.4324 26.9132C26.4324 29.49 26.4324 32.0667 26.4324 34.7266C26.4324 35.059 26.4324 35.3915 26.4324 35.8071C27.5961 35.8071 28.5935 35.8071 29.591 35.8071C29.7572 35.8071 29.9235 35.8071 30.0897 35.8071C30.2559 35.724 30.5053 35.6409 30.5884 35.5578C31.1703 35.1422 31.7521 34.9759 32.4171 34.9759C33.9964 35.0591 35.077 36.6383 34.5782 38.1345C33.9964 39.7138 32.2508 40.3788 30.7547 39.3813C30.3391 39.0488 29.9235 38.9657 29.4247 38.9657C28.6767 38.9657 27.8454 38.9657 27.0974 38.9657C26.848 38.9657 26.6818 39.0488 26.4324 39.0488C26.4324 40.7113 26.4324 42.3737 26.4324 44.0361C26.4324 44.3686 26.6818 44.5348 26.9311 44.7011C28.0117 45.366 29.0923 45.9479 30.1728 46.6128C30.5053 46.8622 30.8378 46.8622 31.1703 46.6128C34.1626 44.8673 37.155 43.0386 40.1473 41.2931C40.5629 41.0437 40.7292 40.7944 40.7292 40.2957C40.7292 38.8826 40.8123 37.5527 40.7292 36.1396C40.646 34.7266 41.1448 33.7291 42.3085 33.0642C43.0565 32.4823 43.5553 31.9836 44.2202 31.4017ZM7.56399 17.3543C6.15093 18.4349 4.821 19.4324 3.49107 20.5129C3.40795 20.596 3.24171 20.7623 3.24171 20.9285C3.24171 21.6766 3.24171 22.4247 3.24171 23.339C3.65731 23.0897 3.90668 23.0065 4.23916 22.8403C5.15349 22.3416 6.15093 21.7597 7.06526 21.1779C8.06271 20.6792 9.06016 21.0948 9.39264 22.1753C9.55889 22.8403 9.30952 23.5053 8.56144 24.004C7.14838 24.8352 5.73533 25.7495 4.23916 26.4976C3.49107 26.9132 3.24171 27.3288 3.24171 28.16C3.24171 29.1575 3.49107 29.8224 4.32228 30.4874C5.73533 31.4849 7.06526 32.6485 8.47832 33.646C8.8108 33.4798 9.06016 33.3966 9.30952 33.2304C10.4732 32.5654 11.6369 31.9005 12.8006 31.2355C13.798 30.6537 15.0449 31.3186 15.128 32.3992C15.2111 33.2304 14.7124 33.7291 14.0474 34.1447C12.6344 34.8928 11.2213 35.724 9.80825 36.4721C9.2264 36.8046 8.97704 37.1371 8.97704 37.7189C8.97704 38.5501 8.97704 39.2982 8.97704 40.1294C8.97704 40.6281 9.14328 40.8775 9.55889 41.1269C10.5563 41.7087 11.5538 42.2906 12.5512 42.8724C13.1331 43.288 13.6318 43.288 14.2968 42.8724C15.7929 41.9581 17.2891 41.1269 18.7853 40.2957C19.6165 39.8801 20.5308 40.1294 20.9464 40.9606C21.362 41.7087 21.0295 42.623 20.1983 43.1218C19.284 43.6205 18.3697 44.2023 17.4554 44.7011C17.206 44.8673 16.9566 45.0335 16.6241 45.1998C17.3722 45.6154 17.9541 45.9479 18.5359 46.3635C18.9515 46.6128 19.284 46.6128 19.6996 46.3635C20.6971 45.7816 21.6945 45.1167 22.7751 44.5348C23.2738 44.2855 23.44 43.953 23.44 43.3711C23.44 40.8775 23.44 38.3839 23.44 35.9734C23.44 35.724 23.44 35.4747 23.3569 35.2253C23.1076 35.3084 22.9413 35.3915 22.692 35.4747C20.7802 36.5552 18.8684 37.6358 16.8735 38.7164C15.9592 39.2151 15.0449 39.7138 14.1305 40.2125C13.3824 40.6281 12.6344 40.4619 12.1356 39.9632C11.3875 39.132 11.6369 38.0514 12.6344 37.4696C13.8812 36.7215 15.2111 36.0565 16.4579 35.3084C16.8735 35.0591 17.1229 34.8097 17.1229 34.2278C17.0398 32.8979 17.1229 31.4849 17.1229 30.1549C17.1229 29.7393 16.9566 29.49 16.541 29.3237C15.8761 29.0744 15.2942 28.7419 14.7124 28.4094C13.3824 27.7444 13.3824 27.7444 12.1356 28.5756C11.1382 29.2406 10.1407 29.9056 9.14328 30.4874C8.3952 30.9861 7.48087 30.7368 6.98214 30.0718C6.48342 29.4068 6.64966 28.4925 7.39775 27.9107C7.56399 27.7444 7.81335 27.5782 8.06271 27.4951C9.06016 26.8301 10.1407 26.1651 11.1382 25.5002C11.3875 25.3339 11.6369 25.0846 11.6369 24.8352C11.72 23.339 11.6369 21.8429 11.6369 20.3467C10.3901 19.3492 8.97704 18.3518 7.56399 17.3543Z" fill="#A164FD"/>
</svg>
