<svg width="50" height="43" viewBox="0 0 50 43" fill="none" xmlns="http://www.w3.org/2000/svg">
<g clip-path="url(#clip0_23065_18950)">
<path d="M45.4113 8.23778C40.4796 5.39096 34.1734 7.08259 31.3235 12.0143L24.1394 24.4591C22.0607 28.0528 24.7368 29.3085 27.7208 31.0976L34.6336 35.0874C36.9745 36.4377 39.9646 35.6361 41.3148 33.2983L48.7001 20.5089C51.1811 16.2113 49.7089 10.7189 45.4113 8.23778Z" fill="#EA4335"/>
<path d="M37.2837 13.3875L30.3709 9.39771C26.5548 7.27936 24.3938 7.13915 22.8271 9.62936L12.6317 27.2864C9.78481 32.2149 11.4795 38.5182 16.4081 41.3589C20.7057 43.8399 26.1982 42.3678 28.6793 38.0701L39.0698 20.0717C40.4262 17.7309 39.6246 14.7378 37.2837 13.3875Z" fill="#FBBC04"/>
<path d="M38.6124 4.31029L33.757 1.50615C28.3865 -1.59365 21.5194 0.244279 18.4196 5.61482L9.17503 21.6258C7.80953 23.9881 8.6203 27.0116 10.9825 28.3741L16.4201 31.5135C19.1053 33.065 22.5373 32.1445 24.0888 29.4592L34.6501 11.1683C36.8385 7.37961 41.6818 6.08117 45.4704 8.26962L38.6124 4.31029Z" fill="#34A853"/>
<path d="M19.7331 10.1977L14.4845 7.17415C12.1436 5.82695 9.15353 6.62551 7.80328 8.96027L1.50615 19.8416C-1.59366 25.1969 0.24428 32.0488 5.61483 35.1395L9.61073 37.4406L14.457 40.2325L16.5601 41.4426C12.8263 38.9433 11.6407 33.9354 13.9236 29.9913L15.5543 27.175L21.5253 16.8576C22.8725 14.529 22.0709 11.5449 19.7331 10.1977Z" fill="#4285F4"/>
</g>
<defs>
<clipPath id="clip0_23065_18950">
<rect width="50" height="42.5781" fill="white"/>
</clipPath>
</defs>
</svg>
