<svg width="50" height="50" viewBox="0 0 50 50" fill="none" xmlns="http://www.w3.org/2000/svg">
<g clip-path="url(#clip0_23065_33085)">
<g clip-path="url(#clip1_23065_33085)">
<path d="M20.6475 10C20.3095 9.99998 19.9825 10.1225 19.7255 10.3454C19.4685 10.5683 19.2983 10.877 19.2455 11.216L16.9155 26.216L14.7747 39.9992L14.7734 40.0107L14.776 39.9992L16.9168 26.216C17.0257 25.5155 17.6197 25 18.318 25H25.1439C32.0135 25 37.8441 19.9115 38.909 13.0163C38.9901 12.4924 39.0336 11.9735 39.0434 11.4614V11.4606H39.0426C37.2968 10.5307 35.2468 10 33.0005 10H20.6475Z" fill="#001C64"/>
<path d="M39.0429 11.4609C39.0333 11.973 38.9893 12.4924 38.9084 13.0163C37.8436 19.9116 32.013 25 25.1434 25H18.3174C17.6192 25 17.0251 25.5155 16.9163 26.216L14.7755 39.9992L13.432 48.6467C13.4061 48.8137 13.4162 48.9845 13.4615 49.1472C13.5068 49.3099 13.5863 49.4607 13.6945 49.5892C13.8028 49.7178 13.9371 49.821 14.0884 49.8917C14.2396 49.9625 14.4042 49.9992 14.5707 49.9992H21.9799C22.3179 49.9992 22.6448 49.8767 22.9018 49.6538C23.1588 49.4309 23.329 49.1222 23.3818 48.7832L25.3336 36.216C25.443 35.5155 26.0373 34.9992 26.7356 34.9992H31.0983C37.9679 34.9992 43.7978 29.911 44.8626 23.0163C45.6185 18.1216 43.1923 13.6688 39.0429 11.4609Z" fill="#0070E0"/>
<path d="M12.2299 0C11.8918 1.06949e-05 11.5647 0.122594 11.3077 0.345673C11.0507 0.568753 10.8805 0.877674 10.8279 1.2168L5.01412 38.6467C4.98812 38.8138 4.99811 38.9846 5.04338 39.1474C5.08865 39.3102 5.16813 39.4611 5.27637 39.5897C5.3846 39.7183 5.51901 39.8216 5.67033 39.8924C5.82165 39.9633 5.98628 39.9999 6.1529 40H14.7747L16.9155 26.2168L19.2456 11.2168C19.2983 10.8778 19.4685 10.5691 19.7255 10.3462C19.9825 10.1232 20.3095 10.0008 20.6475 10.0008H33C35.2468 10.0008 37.2968 10.5323 39.0429 11.4609C39.1618 5.18346 34.0599 0 27.0445 0H12.2299Z" fill="#003087"/>
</g>
</g>
<defs>
<clipPath id="clip0_23065_33085">
<rect width="48" height="50" fill="white" transform="translate(1)"/>
</clipPath>
<clipPath id="clip1_23065_33085">
<rect width="40" height="50" fill="white" transform="translate(5)"/>
</clipPath>
</defs>
</svg>
