<svg width="50" height="23" viewBox="0 0 50 23" fill="none" xmlns="http://www.w3.org/2000/svg">
<g clip-path="url(#clip0_23065_39948)">
<path d="M39.5233 9.64922L38.486 9.23438C33.6108 20.2039 14.2165 13.535 13.0495 16.7982C12.8549 19.0025 23.6407 17.2174 31.3514 17.591C33.7028 17.7049 34.8819 19.4799 33.8835 22.373L35.8501 22.3791C38.1186 15.307 45.3585 18.9162 45.661 16.5822C45.1639 15.0477 37.3405 16.5822 39.5233 9.64922Z" fill="white"/>
<path d="M34.4398 21.1619C34.751 20.1246 34.6473 19.0873 34.1287 18.4648C33.61 17.8424 32.8838 17.4275 31.9502 17.3238L13.9004 17.1162C13.7967 17.1162 13.693 17.0125 13.5893 17.0125C13.4855 16.9088 13.4855 16.8051 13.5893 16.7014C13.693 16.4939 13.7967 16.39 14.0041 16.39L32.1576 16.1826C34.3361 16.0789 36.6184 14.3154 37.448 12.2408L38.4855 9.54375C38.4855 9.43984 38.5893 9.33613 38.4855 9.23242C37.3443 3.94199 32.5727 0 26.9709 0C21.7842 0 17.3236 3.31953 15.7676 7.9877C14.7303 7.26152 13.4855 6.84648 12.0332 6.95039C9.54355 7.15781 7.57266 9.23242 7.26133 11.7221C7.15762 12.3445 7.26133 12.967 7.36523 13.5893C3.31953 13.693 0 17.0125 0 21.1619C0 21.5768 0 21.8881 0.103711 22.3029C0.103711 22.5105 0.311133 22.6143 0.415039 22.6143H33.7137C33.9211 22.6143 34.1287 22.5105 34.1287 22.3029L34.4398 21.1619Z" fill="#F4811F"/>
<path d="M40.1446 9.54297H39.6258C39.5221 9.54297 39.4184 9.64668 39.3147 9.75039L38.5885 12.24C38.2774 13.2773 38.3811 14.3148 38.8999 14.9371C39.4184 15.5596 40.1446 15.9744 41.0782 16.0783L44.9165 16.2857C45.0202 16.2857 45.1239 16.3895 45.2276 16.3895C45.3313 16.4932 45.3313 16.5969 45.2276 16.7006C45.1239 16.9082 45.0202 17.0119 44.8126 17.0119L40.8708 17.2193C38.6922 17.323 36.4102 19.0865 35.5803 21.1611L35.3727 22.0949C35.269 22.1986 35.3727 22.4061 35.5803 22.4061H49.2733C49.4807 22.4061 49.5844 22.3023 49.5844 22.0949C49.7919 21.265 49.9993 20.3314 49.9993 19.3977C49.9993 14.0035 45.5387 9.54297 40.1446 9.54297Z" fill="#FAAD3F"/>
</g>
<defs>
<clipPath id="clip0_23065_39948">
<rect width="50" height="22.6562" fill="white"/>
</clipPath>
</defs>
</svg>
