<svg width="50" height="50" viewBox="0 0 50 50" fill="none" xmlns="http://www.w3.org/2000/svg">
<path d="M11 39.9233L11.2928 39.5151L25.1057 13.3119L25.135 13.0346L19.0466 1.59842C18.9352 1.38929 18.7608 1.22051 18.5481 1.11594C18.3355 1.01137 18.0953 0.976322 17.8616 1.01574C17.6279 1.05517 17.4126 1.16707 17.246 1.33561C17.0794 1.50416 16.97 1.72082 16.9334 1.95494L11 39.9233Z" fill="#FFC24A"/>
<path d="M11.1719 39.6119L11.3923 39.1813L25.0623 13.2502L18.9894 1.7693C18.8893 1.56963 18.7272 1.40779 18.5273 1.30803C18.3274 1.20826 18.1006 1.17593 17.8809 1.21589C17.6611 1.25585 17.4602 1.36594 17.3083 1.52967C17.1563 1.6934 17.0615 1.90196 17.0381 2.12409L11.1719 39.6119Z" fill="#FFA712"/>
<path d="M29.573 21.6833L34.1061 17.0331L29.5713 8.38537C29.4715 8.19926 29.3231 8.0437 29.1419 7.93525C28.9606 7.8268 28.7534 7.76953 28.5422 7.76953C28.331 7.76953 28.1238 7.8268 27.9426 7.93525C27.7614 8.0437 27.6129 8.19926 27.5131 8.38537L25.0898 13.0046V13.399L29.573 21.6833Z" fill="#F4BD62"/>
<path d="M29.4903 21.4954L33.8977 16.9829L29.4903 8.57803C29.4181 8.3961 29.2949 8.23892 29.1354 8.12544C28.976 8.01196 28.7871 7.94703 28.5916 7.93847C28.3961 7.92991 28.2022 7.9781 28.0335 8.07721C27.8647 8.17633 27.7283 8.32214 27.6405 8.49708L25.2051 13.1973L25.1328 13.4367L29.4903 21.4954Z" fill="#FFA50E"/>
<path d="M11.0039 39.926L11.1365 39.7917L11.617 39.5971L29.288 21.9916L29.5119 21.3819L25.1045 12.9805L11.0039 39.926Z" fill="#F6820C"/>
<path d="M30.1383 48.8021L46.1351 39.8823L41.5641 11.7552C41.5314 11.5569 41.4446 11.3715 41.3134 11.2193C41.1821 11.0671 41.0115 10.954 40.8202 10.8924C40.6289 10.8309 40.4243 10.8232 40.2289 10.8703C40.0335 10.9173 39.8549 11.0173 39.7126 11.1593L11 39.9219L26.9021 48.8004C27.3965 49.0763 27.9532 49.2211 28.5193 49.2211C29.0855 49.2211 29.6422 49.0763 30.1366 48.8004" fill="#FDE068"/>
<path d="M46.1351 39.7759L41.5605 12.0494C41.5525 11.861 41.4878 11.6792 41.3747 11.5271C41.2616 11.3749 41.1052 11.2591 40.9253 11.1945C40.7453 11.1298 40.5499 11.1192 40.3638 11.1639C40.1777 11.2086 40.0093 11.3066 39.8798 11.4455L11 39.8357L26.8703 48.5601C27.3653 48.8319 27.9226 48.9746 28.4894 48.9746C29.0561 48.9746 29.6134 48.8319 30.1084 48.5601L46.1351 39.7759Z" fill="#FCCA3F"/>
<path d="M30.1383 48.5329C29.6439 48.8088 29.0872 48.9536 28.5211 48.9536C27.9549 48.9536 27.3982 48.8088 26.9038 48.5329L11.1309 39.787L11 39.9214L26.9021 48.7999C27.3965 49.0757 27.9532 49.2206 28.5193 49.2206C29.0855 49.2206 29.6422 49.0757 30.1366 48.7999L46.1351 39.8817L46.0955 39.6406L30.1383 48.5329Z" fill="#EEAB37"/>
</svg>
