<svg width="50" height="50" viewBox="0 0 50 50" fill="none" xmlns="http://www.w3.org/2000/svg">
<g clip-path="url(#clip0_23065_39944)">
<path d="M49.5186 18.9067C49.3803 18.7479 48.127 17.4209 45.4374 17.4209C44.7416 17.4209 44.0214 17.5173 43.3256 17.6818C42.817 12.7368 39.871 10.3437 39.753 10.2189L39.0328 9.6348L38.5689 10.5705C37.9911 11.8294 37.5476 13.2528 37.2953 14.7045C36.807 17.5173 37.1081 20.1656 38.1295 22.4283C36.9006 23.398 34.9068 23.6248 34.4877 23.6588H1.5572C0.698642 23.6588 0.00284172 24.6286 0.00284172 25.8251C-0.0419174 29.8344 0.442295 33.838 1.4392 37.6205C2.57446 41.7546 4.26716 44.8282 6.44815 46.6996C8.90584 48.7978 12.9179 49.9943 17.4386 49.9943C19.4771 49.9943 21.5198 49.7335 23.538 49.2174C26.3456 48.5086 29.0352 47.1476 31.5133 45.1798C33.5559 43.5295 35.387 41.4313 36.9413 38.9758C39.5618 34.8701 41.1161 30.2824 42.2514 26.2107C42.4141 26.2107 42.5525 26.2107 42.7152 26.2107C45.5676 26.2107 47.3295 24.6286 48.302 23.2676C48.953 22.4283 49.4372 21.3905 49.7872 20.228L49.9947 19.3887L49.5186 18.9067ZM29.137 22.3319H33.5437C33.7512 22.3319 33.9384 22.105 33.9384 21.7818V16.2867C33.9384 15.9975 33.7756 15.7366 33.5437 15.7366H29.137C28.9294 15.7366 28.7423 15.9635 28.7423 16.2867V21.7818C28.7667 22.105 28.9294 22.3319 29.137 22.3319ZM22.9928 6.59521H27.3995C27.607 6.59521 27.7942 6.36838 27.7942 6.04514V0.550074C27.7942 0.26086 27.607 0 27.3995 0H22.9928C22.7852 0 22.5981 0.226835 22.5981 0.550074V6.04514C22.5981 6.33435 22.7812 6.59521 22.9928 6.59521ZM22.9928 14.4777H27.3995C27.607 14.4777 27.7942 14.2169 27.7942 13.9276V8.43257C27.7942 8.14336 27.607 7.8825 27.3995 7.8825H22.9928C22.7852 7.8825 22.5981 8.10933 22.5981 8.43257V13.9276C22.5981 14.2225 22.7812 14.4777 22.9928 14.4777ZM16.8933 14.4777H21.3C21.5076 14.4777 21.6947 14.2169 21.6947 13.9276V8.43257C21.6947 8.14336 21.532 7.8825 21.3 7.8825H16.8933C16.6858 7.8825 16.4986 8.10933 16.4986 8.43257V13.9276C16.4986 14.2225 16.6614 14.4777 16.8933 14.4777ZM10.7003 14.4777H15.107C15.3145 14.4777 15.5017 14.2169 15.5017 13.9276V8.43257C15.5017 8.14336 15.3389 7.8825 15.107 7.8825H10.7003C10.4928 7.8825 10.3056 8.10933 10.3056 8.43257V13.9276C10.33 14.2225 10.4928 14.4777 10.7003 14.4777ZM22.9928 22.3319H27.3995C27.607 22.3319 27.7942 22.105 27.7942 21.7818V16.2867C27.7942 15.9975 27.6314 15.7366 27.3995 15.7366H22.9928C22.7852 15.7366 22.5981 15.9635 22.5981 16.2867V21.7818C22.5981 22.105 22.7812 22.3319 22.9928 22.3319ZM16.8933 22.3319H21.3C21.5076 22.3319 21.6947 22.105 21.6947 21.7818V16.2867C21.6947 15.9975 21.532 15.7366 21.3 15.7366H16.8933C16.6858 15.7366 16.4986 15.9635 16.4986 16.2867V21.7818C16.4986 22.105 16.6614 22.3319 16.8933 22.3319ZM10.7003 22.3319H15.107C15.3145 22.3319 15.5017 22.105 15.5017 21.7818V16.2867C15.5017 15.9975 15.3389 15.7366 15.107 15.7366H10.7003C10.4928 15.7366 10.3056 15.9635 10.3056 16.2867V21.7818C10.33 22.105 10.4928 22.3319 10.7003 22.3319ZM4.62524 22.3319H9.03198C9.23949 22.3319 9.42667 22.105 9.42667 21.7818V16.2867C9.42667 15.9975 9.26391 15.7366 9.03198 15.7366H4.62524C4.41772 15.7366 4.23054 15.9635 4.23054 16.2867V21.7818C4.25496 22.105 4.41772 22.3319 4.62524 22.3319Z" fill="#F5FAFE"/>
</g>
<defs>
<clipPath id="clip0_23065_39944">
<rect width="50" height="50" fill="white"/>
</clipPath>
</defs>
</svg>
