<svg width="100" height="100" viewBox="0 0 100 100" fill="none" xmlns="http://www.w3.org/2000/svg">
<circle cx="50" cy="50" r="50" fill="#FF5D00" fill-opacity="0.1"/>
<path d="M47.824 18.8008C40.7988 18.8008 35.074 24.5255 35.074 31.5508V40.0508C35.074 44.0883 36.995 47.6583 39.9318 49.9958C30.824 53.1918 24.0963 61.6578 23.7818 71.8663C23.7691 72.446 23.9848 73.0075 24.3823 73.4297C24.7798 73.8519 25.3273 74.1009 25.9068 74.123H59.5073C59.1869 73.5897 58.9857 72.9933 58.9175 72.3749C58.8493 71.7565 58.9156 71.1306 59.112 70.5403L59.3755 69.873H28.563C29.9698 60.0173 38.2955 52.567 48.487 52.873C50.4861 52.9609 52.4585 53.3654 54.3308 54.0715C54.7135 53.4256 55.2575 52.8902 55.9094 52.5177C56.5613 52.1452 57.2987 51.9484 58.0495 51.9465H59.775C58.4524 51.1937 57.0657 50.5594 55.6313 50.051C57.1612 48.8699 58.4013 47.3551 59.2571 45.6221C60.113 43.8891 60.5619 41.9836 60.5698 40.0508V31.5508C60.5698 24.5255 54.8535 18.8008 47.824 18.8008ZM71.3903 44.373C70.9573 44.3905 70.5401 44.5399 70.1945 44.8012C69.8489 45.0625 69.5914 45.4233 69.4565 45.835L66.7578 54.1098L58.0198 54.0673C57.5701 54.0657 57.1314 54.2068 56.767 54.4703C56.4026 54.7338 56.1312 55.1061 55.9918 55.5337C55.8524 55.9613 55.8523 56.422 55.9914 56.8497C56.1305 57.2773 56.4018 57.6498 56.766 57.9135L63.8295 63.0263L61.0883 71.284C60.9457 71.711 60.9424 72.1723 61.0788 72.6013C61.2153 73.0303 61.4844 73.4049 61.8475 73.671C62.2106 73.9372 62.6488 74.0811 63.0989 74.0822C63.5491 74.0832 63.988 73.9413 64.3523 73.6768L71.4243 68.564L78.4793 73.7065C78.842 73.9705 79.2789 74.1129 79.7276 74.1134C80.1762 74.1138 80.6134 73.9723 80.9767 73.7091C81.3399 73.4458 81.6105 73.0744 81.7498 72.6479C81.889 72.2215 81.8897 71.7619 81.7518 71.335L79.053 63.0688L86.142 57.99C86.5087 57.7284 86.7828 57.3569 86.9246 56.9293C87.0665 56.5017 87.0687 56.0401 86.9311 55.6111C86.7935 55.1821 86.5231 54.808 86.1589 54.5427C85.7948 54.2775 85.3558 54.1348 84.9053 54.1353H76.163L73.4983 45.8478C73.3565 45.4053 73.0735 45.0215 72.6928 44.7552C72.3121 44.4888 71.8546 44.3546 71.3903 44.373Z" fill="#FF5D00"/>
</svg>
