<svg width="100" height="100" viewBox="0 0 100 100" fill="none" xmlns="http://www.w3.org/2000/svg">
<circle cx="50" cy="50" r="50" fill="#FF5D00" fill-opacity="0.1"/>
<path d="M50 48.4375C53.4518 48.4375 56.25 45.6393 56.25 42.1875C56.25 38.7357 53.4518 35.9375 50 35.9375C46.5482 35.9375 43.75 38.7357 43.75 42.1875C43.75 45.6393 46.5482 48.4375 50 48.4375Z" fill="#FF5D00"/>
<path d="M51.5625 32.9531V29.6875C51.5625 29.2731 51.3979 28.8757 51.1049 28.5826C50.8118 28.2896 50.4144 28.125 50 28.125C49.5856 28.125 49.1882 28.2896 48.8951 28.5826C48.6021 28.8757 48.4375 29.2731 48.4375 29.6875V32.9531C49.4707 32.7656 50.5293 32.7656 51.5625 32.9531ZM48.4375 51.4219V70.3125C48.4375 70.7269 48.6021 71.1243 48.8951 71.4174C49.1882 71.7104 49.5856 71.875 50 71.875C50.4144 71.875 50.8118 71.7104 51.1049 71.4174C51.3979 71.1243 51.5625 70.7269 51.5625 70.3125V51.4219C50.5293 51.6094 49.4707 51.6094 48.4375 51.4219Z" fill="#FF5D00"/>
<path d="M34.375 64.0625C37.8268 64.0625 40.625 61.2643 40.625 57.8125C40.625 54.3607 37.8268 51.5625 34.375 51.5625C30.9232 51.5625 28.125 54.3607 28.125 57.8125C28.125 61.2643 30.9232 64.0625 34.375 64.0625Z" fill="#FF5D00"/>
<path d="M32.8125 67.0469V70.3125C32.8125 70.7269 32.9771 71.1243 33.2701 71.4174C33.5632 71.7104 33.9606 71.875 34.375 71.875C34.7894 71.875 35.1868 71.7104 35.4799 71.4174C35.7729 71.1243 35.9375 70.7269 35.9375 70.3125V67.0469C34.9043 67.2344 33.8457 67.2344 32.8125 67.0469ZM35.9375 48.5781V29.6875C35.9375 29.2731 35.7729 28.8757 35.4799 28.5826C35.1868 28.2896 34.7894 28.125 34.375 28.125C33.9606 28.125 33.5632 28.2896 33.2701 28.5826C32.9771 28.8757 32.8125 29.2731 32.8125 29.6875V48.5781C33.8457 48.3906 34.9043 48.3906 35.9375 48.5781Z" fill="#FF5D00"/>
<path d="M65.625 57.8125C69.0768 57.8125 71.875 55.0143 71.875 51.5625C71.875 48.1107 69.0768 45.3125 65.625 45.3125C62.1732 45.3125 59.375 48.1107 59.375 51.5625C59.375 55.0143 62.1732 57.8125 65.625 57.8125Z" fill="#FF5D00"/>
<path d="M64.0625 60.7969V70.3125C64.0625 70.7269 64.2271 71.1243 64.5201 71.4174C64.8132 71.7104 65.2106 71.875 65.625 71.875C66.0394 71.875 66.4368 71.7104 66.7299 71.4174C67.0229 71.1243 67.1875 70.7269 67.1875 70.3125V60.7969C66.1543 60.9844 65.0957 60.9844 64.0625 60.7969ZM67.1875 42.3281V29.6875C67.1875 29.2731 67.0229 28.8757 66.7299 28.5826C66.4368 28.2896 66.0394 28.125 65.625 28.125C65.2106 28.125 64.8132 28.2896 64.5201 28.5826C64.2271 28.8757 64.0625 29.2731 64.0625 29.6875V42.3281C65.0957 42.1406 66.1543 42.1406 67.1875 42.3281Z" fill="#FF5D00"/>
</svg>
