<svg width="100" height="100" viewBox="0 0 100 100" fill="none" xmlns="http://www.w3.org/2000/svg">
<circle cx="50" cy="50" r="50" fill="#FF5D00" fill-opacity="0.1"/>
<path d="M70.25 42.475V44.125C70.25 45.6375 69.0125 46.875 67.5 46.875C65.9875 46.875 64.75 45.6375 64.75 44.125V42.475L63.65 43.575C63.1 44.125 62.4125 44.4 61.725 44.4C61.0375 44.4 60.35 44.125 59.8 43.575C58.7 42.475 58.7 40.825 59.8 39.725L60.9 38.625H59.25C57.7375 38.625 56.5 37.3875 56.5 35.875C56.5 35.325 56.6375 34.9125 56.9125 34.5H34.5C32.9875 34.5 31.75 35.7375 31.75 37.25V62L26.25 75.75L37.25 70.25H68.875C70.3875 70.25 71.625 69.0125 71.625 67.5V43.85C71.4875 43.85 71.4875 43.7125 71.35 43.7125L70.25 42.475ZM45.5 56.5H37.25C36.5625 56.5 35.875 55.8125 35.875 55.125C35.875 54.4375 36.5625 53.75 37.25 53.75H45.5C46.1875 53.75 46.875 54.4375 46.875 55.125C46.875 55.8125 46.325 56.5 45.5 56.5ZM51 49.625H37.25C36.5625 49.625 35.875 48.9375 35.875 48.25C35.875 47.5625 36.5625 46.875 37.25 46.875H51C51.6875 46.875 52.375 47.5625 52.375 48.25C52.375 48.9375 51.825 49.625 51 49.625ZM56.5 42.75H37.25C36.5625 42.75 35.875 42.0625 35.875 41.375C35.875 40.6875 36.5625 40 37.25 40H56.5C57.1875 40 57.875 40.6875 57.875 41.375C57.875 42.0625 57.325 42.75 56.5 42.75Z" fill="#FF5D00"/>
<path d="M75.75 34.5H70.8L74.375 31.0625C74.925 30.5125 74.925 29.6875 74.375 29.1375C74.1 28.8625 73.6875 28.725 73.4125 28.725C73 28.725 72.725 28.8625 72.45 29.1375L68.875 32.575V27.625C68.875 26.9375 68.1875 26.25 67.5 26.25C66.8125 26.25 66.125 26.9375 66.125 27.625V32.575L62.6875 29C62.4125 28.725 62 28.5875 61.725 28.5875C61.3125 28.5875 61.0375 28.725 60.7625 29C60.2125 29.55 60.2125 30.375 60.7625 30.925L64.2 34.3625H59.25C58.5625 34.3625 57.875 35.05 57.875 35.7375C57.875 36.425 58.5625 37.1125 59.25 37.1125H64.2L60.7625 40.55C60.2125 41.1 60.2125 41.925 60.7625 42.475C61.0375 42.75 61.45 42.8875 61.725 42.8875C62.1375 42.8875 62.4125 42.75 62.6875 42.475L66.125 39.0375V44.125C66.125 44.8125 66.8125 45.5 67.5 45.5C68.1875 45.5 68.875 44.8125 68.875 44.125V39.175L72.3125 42.6125C72.5875 42.8875 73 43.025 73.275 43.025C73.6875 43.025 73.9625 42.8875 74.2375 42.6125C74.7875 42.0625 74.7875 41.2375 74.2375 40.6875L70.8 37.25H75.75C76.4375 37.25 77.125 36.5625 77.125 35.875C77.125 35.1875 76.575 34.5 75.75 34.5Z" fill="#FF5D00"/>
</svg>
