<svg width="100" height="100" viewBox="0 0 100 100" fill="none" xmlns="http://www.w3.org/2000/svg">
<circle cx="50" cy="50" r="50" fill="#FF5D00" fill-opacity="0.1"/>
<g clip-path="url(#clip0_0_1)">
<path d="M70.7942 30.1422C69.6073 31.3278 69.5084 33.1722 70.5634 34.4896C75.3441 40.4836 77.8498 48.6844 75.6079 57.2803C73.0032 67.3253 65.1233 74.8344 55.1333 76.8434C38.3185 80.1698 23.5808 67.1936 23.5808 50.9568C23.5808 37.5195 33.6368 26.4535 46.66 24.8397V31.4925C36.3403 33.238 28.7572 42.8879 30.4057 53.9868C31.6915 62.5827 38.8461 69.499 47.4843 70.5529C59.4854 72.035 69.7392 62.6815 69.7392 50.9568C69.7392 46.84 68.4863 43.0525 66.3432 39.8908C65.2222 38.2441 62.8154 38.1453 61.3977 39.5285L61.3647 39.5615C60.2437 40.6813 60.1448 42.4268 61.002 43.7442C62.9803 46.7741 63.7715 50.6604 62.6176 54.6784C61.3318 59.1905 57.5402 62.7803 52.9243 63.8013C44.3521 65.6786 36.7689 59.2234 36.7689 50.9568C36.7689 44.831 40.9891 39.7262 46.66 38.2441V45.2921C44.6818 46.4448 43.363 48.5197 43.363 50.9568C43.363 54.5796 46.3303 57.5437 49.957 57.5437C53.5837 57.5437 56.5511 54.5796 56.5511 50.9568C56.5511 48.5197 55.2323 46.4119 53.254 45.2921V20.3606C53.254 19.0762 52.199 18.0223 50.9132 18.0223C33.2411 17.3636 18.0089 31.3937 17.0527 48.9808C15.8658 70.5529 34.8896 87.9094 56.65 83.2327C69.4424 80.4991 79.3335 70.7176 82.2019 57.9719C84.5428 47.5646 81.5425 37.6842 75.7068 30.4057C74.4869 28.8577 72.179 28.7589 70.7942 30.1422Z" fill="#FF5D00"/>
</g>
<defs>
<clipPath id="clip0_0_1">
<rect width="67" height="67" fill="white" transform="translate(16 17)"/>
</clipPath>
</defs>
</svg>
