<svg width="100" height="100" viewBox="0 0 100 100" fill="none" xmlns="http://www.w3.org/2000/svg">
<circle cx="50" cy="50" r="50" fill="#FF5D00" fill-opacity="0.1"/>
<path d="M50.875 23.5V29.8293H53.125V23.5H50.875ZM34.702 23.5697L32.875 24.8365L36.601 30.0385L38.4303 28.7043L34.702 23.5697ZM69.7885 23.5697L66.0625 28.702L67.8918 30.0385L71.6177 24.8365L69.7885 23.5697ZM42.1562 34.0458C45.4322 34.0458 48.7083 35.335 51.226 37.8438C51.4395 38.0328 51.7148 38.1371 52 38.1371C52.2852 38.1371 52.5605 38.0328 52.774 37.8438C53.9642 36.6512 55.3779 35.705 56.9342 35.0595C58.4905 34.4139 60.1589 34.0816 61.8438 34.0816C63.5286 34.0816 65.197 34.4139 66.7533 35.0595C68.3096 35.705 69.7233 36.6512 70.9135 37.8438C72.1099 39.0246 73.0599 40.4314 73.7083 41.9823C74.3566 43.5333 74.6905 45.1976 74.6905 46.8786C74.6905 48.5597 74.3566 50.224 73.7083 51.7749C73.0599 53.3259 72.1099 54.7326 70.9135 55.9135L61.0698 65.6875L52 74.7573L42.9303 65.6875C39.661 62.371 36.187 59.1288 33.0168 55.774C28.0938 50.752 28.0892 42.8185 33.0842 37.8438C34.273 36.646 35.6859 35.6941 37.2425 35.0425C38.7991 34.3908 40.4688 34.0521 42.1562 34.0458ZM21.3438 37.2813L20.5 39.3918L26.4062 41.7093L27.25 39.6033L21.3438 37.2813ZM82.6562 37.2813L76.75 39.601L77.5938 41.7115L83.5 39.3918L82.6562 37.2813ZM29.5 58.2355L23.5938 60.553L24.4375 62.6635L30.3438 60.274L29.5 58.2355ZM74.5 58.2355L73.6562 60.274L79.5625 62.6635L80.4062 60.5553L74.5 58.2355ZM36.601 69.9063L32.875 75.0385L34.7042 76.375L38.4303 71.2428L36.601 69.9063ZM67.8895 69.9063L66.0625 71.2428L69.7885 76.375L71.6177 75.0385L67.8895 69.9063ZM50.875 78.8365V85.1635H53.125V78.8365H50.875Z" fill="#FF5D00"/>
</svg>
