<svg width="100" height="100" viewBox="0 0 100 100" fill="none" xmlns="http://www.w3.org/2000/svg">
<circle cx="50" cy="50" r="50" fill="#FF5D00" fill-opacity="0.1"/>
<g clip-path="url(#clip0_0_1)">
<path d="M72.6761 46.2288C72.2211 32.815 62.0798 22 49.8123 22H48.1848C35.9961 22 25.8548 32.7362 25.3211 46.045C23.2736 46.6313 21.7773 48.5038 21.7773 50.7263V56.4225C21.7773 59.1175 23.9648 61.3138 26.6686 61.3138C28.1473 61.3138 29.4686 60.6488 30.3698 59.5988C31.2536 63.0025 32.6711 66.24 34.4823 68.9963C38.2098 74.6838 43.1798 77.8775 48.4648 77.9913L48.7623 78C54.1173 78 59.1748 74.9113 63.0161 69.3112C63.3311 68.8475 63.6373 68.3575 63.9348 67.8675L65.6411 67.85C67.2972 67.8554 68.9037 67.2848 70.1855 66.2361C71.4673 65.1874 72.3446 63.7257 72.6673 62.1012H72.7111L72.7723 61.5063C72.7811 61.4275 72.7811 61.3488 72.7811 61.27C74.7673 60.6488 76.2198 58.8025 76.2198 56.6237V50.9275C76.2198 48.6875 74.7236 46.815 72.6761 46.2288ZM29.5386 46.7887C29.1623 46.5087 28.7423 46.29 28.2961 46.1237C28.7948 34.4162 37.5973 24.9838 48.1848 24.9838H49.8123C60.4698 24.9838 69.2811 34.5038 69.6923 46.3075C69.2723 46.4563 68.8786 46.6663 68.5198 46.92C67.1636 35.9737 59.7611 28.7812 49.5323 28.5625H49.1386C43.8273 28.5625 38.9361 30.6013 35.3573 34.2937C32.2511 37.5138 30.2561 41.8275 29.5386 46.7887ZM62.1673 64.91L55.1323 65.0063C54.8612 64.4883 54.4539 64.0541 53.9544 63.7504C53.4549 63.4466 52.882 63.2849 52.2973 63.2825H49.6023C47.8173 63.2825 46.3736 64.735 46.3736 66.5025C46.3736 68.2875 47.8261 69.7313 49.6023 69.7313H52.2973C53.5311 69.7313 54.6073 69.0137 55.1411 67.9813L60.2948 67.9113C57.0136 72.435 52.8573 75.0075 48.7536 75.0075H48.5173C44.2386 74.9113 40.1348 72.1988 36.9586 67.3512C33.9398 62.7488 32.2073 56.8075 32.2073 51.05V50.735L32.2161 50.42C32.3386 44.6712 34.1673 39.815 37.5011 36.3587C40.5198 33.2437 44.6323 31.5288 49.0773 31.5288H49.0948C49.2086 31.5288 49.3223 31.5287 49.4536 31.5375C59.0523 31.7475 65.7636 39.57 65.7636 50.5513C65.7636 50.7525 65.7636 50.945 65.7548 51.155C65.6673 55.9412 64.3811 60.7975 62.1673 64.91ZM69.7798 61.3225C69.4736 63.3438 67.6973 64.8663 65.6323 64.8663H65.5273C66.2973 63.2213 66.9448 61.4625 67.4698 59.5988C68.0561 60.36 68.8611 60.9375 69.7886 61.2525C69.7798 61.27 69.7798 61.2962 69.7798 61.3225Z" fill="#FF5D00"/>
</g>
<defs>
<clipPath id="clip0_0_1">
<rect width="56" height="56" fill="white" transform="translate(21 22)"/>
</clipPath>
</defs>
</svg>
