<svg width="100" height="101" viewBox="0 0 100 101" fill="none" xmlns="http://www.w3.org/2000/svg">
<rect width="100" height="101" fill="#F5F5F5"/>
<g id="Technologies Services">
<path d="M-67800 -2593.96C-67800 -2595.09 -67799.1 -2596 -67798 -2596H10805C10806.1 -2596 10807 -2595.09 10807 -2593.96V13351C10807 13352.1 10806.1 13353 10805 13353H-67798C-67799.1 13353 -67800 13352.1 -67800 13351V-2593.96Z" fill="#D9D9D9"/>
<path d="M-67798 -2594.98H10805V-2597.02H-67798V-2594.98ZM10806 -2593.96V13351H10808V-2593.96H10806ZM10805 13352H-67798V13354H10805V13352ZM-67799 13351V-2593.96H-67801V13351H-67799ZM-67798 13352C-67798.5 13352 -67799 13351.5 -67799 13351H-67801C-67801 13352.7 -67799.6 13354 -67798 13354V13352ZM10806 13351C10806 13351.5 10805.5 13352 10805 13352V13354C10806.6 13354 10808 13352.7 10808 13351H10806ZM10805 -2594.98C10805.5 -2594.98 10806 -2594.52 10806 -2593.96H10808C10808 -2595.65 10806.6 -2597.02 10805 -2597.02V-2594.98ZM-67798 -2597.02C-67799.7 -2597.02 -67801 -2595.65 -67801 -2593.96H-67799C-67799 -2594.53 -67798.5 -2594.98 -67798 -2594.98V-2597.02Z" fill="black" fill-opacity="0.1"/>
<g id="Industry page" clip-path="url(#clip0_0_1)">
<rect width="1935" height="11035" transform="translate(-424 -1157)" fill="white"/>
<g id="Process">
<rect width="1935" height="2232" transform="translate(-423 -306)" fill="#E9EEF1"/>
<g id="card">
<rect x="-184.996" y="-39.2441" width="470" height="480" rx="8" fill="#FCFDFD"/>
<g id="Group 6">
<path id="Ellipse 1" d="M100.004 50.7559C100.004 78.3701 77.6181 100.756 50.0039 100.756C22.3897 100.756 0.00390625 78.3701 0.00390625 50.7559C0.00390625 23.1416 22.3897 0.755859 50.0039 0.755859C77.6181 0.755859 100.004 23.1416 100.004 50.7559Z" fill="#FF5D00" fill-opacity="0.1"/>
<g id="book-open-cover_7720109 1" clip-path="url(#clip1_0_1)">
<path id="Vector" d="M76 31.5009V69.6581L50 77.0876L24 69.6581V33.6675C24 31.6092 24.9425 29.7177 26.587 28.4784C27.1265 28.071 27.7202 27.7937 28.3333 27.5727V66.3907L50 72.5809L71.6667 66.3907V25.406C72.2798 25.627 72.8757 25.9044 73.413 26.3117C75.0575 27.551 76 29.4425 76 31.5009ZM52.1667 32.3047V63.2079L50 63.8276L47.8333 63.2079V32.3047C47.8333 29.4187 45.8942 26.8469 42.9562 26.0149L39.34 25.1504C35.9362 24.3379 32.6667 26.9205 32.6667 30.4197V63.3812L50 68.3342L67.3333 63.3812V30.4934C67.3333 27.0332 64.1332 24.4592 60.7532 25.2024L56.8792 26.0539C54.1037 26.8469 52.1645 29.4187 52.1645 32.3047H52.1667Z" fill="#FF5D00"/>
</g>
</g>
</g>
</g>
</g>
</g>
<defs>
<clipPath id="clip0_0_1">
<rect width="1935" height="11035" fill="white" transform="translate(-424 -1157)"/>
</clipPath>
<clipPath id="clip1_0_1">
<rect width="52" height="52" fill="white" transform="translate(24 25)"/>
</clipPath>
</defs>
</svg>
