<svg width="73" height="73" viewBox="0 0 73 73" fill="none" xmlns="http://www.w3.org/2000/svg">
<path d="M36.5 73C56.6584 73 73 56.6584 73 36.5C73 16.3416 56.6584 0 36.5 0C16.3416 0 0 16.3416 0 36.5C0 56.6584 16.3416 73 36.5 73Z" fill="black"/>
<path fill-rule="evenodd" clip-rule="evenodd" d="M20.4454 25.9892C19.8217 23.7851 20.3058 21.8631 21.9227 20.2415C22.7538 19.4077 23.7776 18.93 24.9333 18.7395C25.2226 18.6917 25.5162 18.6485 25.7124 18.6687C26.9834 18.6893 28.0575 19.0116 29.0251 19.6801C29.1643 19.7762 29.2078 19.8642 29.1728 20.0405C28.8407 21.7161 28.5214 23.3943 28.1978 25.0716C28.0397 25.8925 27.8809 26.7127 27.7221 27.5333C27.7133 27.5785 27.7045 27.6237 27.6948 27.6682C27.6425 27.8988 27.6425 27.9004 27.4129 27.8462C25.1949 27.3236 22.9776 26.7984 20.7586 26.2799C20.5867 26.2394 20.4953 26.1642 20.4454 25.9892ZM21.0175 41.4067C20.588 41.795 20.1531 42.178 19.729 42.5725C19.6124 42.6803 19.5166 42.709 19.3649 42.6416C16.7852 41.4943 15.199 39.547 14.6305 36.7782C14.5901 36.5806 14.5557 36.3803 14.5385 36.1798C14.5152 35.9144 14.5115 35.6471 14.4967 35.3147C14.5375 33.1125 15.3888 31.2027 17.0279 29.6417C17.7763 28.929 18.6394 28.396 19.6043 28.0262C19.7897 27.9547 19.963 27.9355 20.1646 27.9837C22.6041 28.5659 25.0452 29.1401 27.4871 29.7108C27.6641 29.7523 27.7669 29.8342 27.8441 30.0035C28.3768 31.1646 28.9202 32.3206 29.4617 33.4773C29.5763 33.7234 29.5638 33.6796 29.3858 33.8407C28.1931 34.9199 26.9989 35.999 25.8055 37.0779L21.0175 41.4067Z" fill="#FDFDFD"/>
<mask id="mask0_7859_14423" style="mask-type:luminance" maskUnits="userSpaceOnUse" x="20" y="35" width="24" height="24">
<path d="M20.3691 35.0179H43.5463V58.3013H20.3691V35.0179Z" fill="white"/>
</mask>
<g mask="url(#mask0_7859_14423)">
<path fill-rule="evenodd" clip-rule="evenodd" d="M43.4704 43.9497C43.5368 44.0768 43.5638 44.1904 43.5344 44.3401C42.9935 47.1265 42.4598 49.9144 41.9334 52.7037C41.8761 53.0094 41.7722 53.2734 41.5838 53.5236C39.9925 55.6357 37.9384 57.0749 35.4008 57.8264C34.2087 58.1794 32.9903 58.3422 31.7517 58.293C28.9818 58.1821 26.5285 57.2378 24.4268 55.4213C22.6157 53.8567 21.397 51.9117 20.7655 49.6034C20.4835 48.5816 20.3506 47.5245 20.3711 46.4647C20.3576 45.7951 20.421 45.101 20.5413 44.4109C20.5669 44.2632 20.6283 44.1604 20.7358 44.0636C21.6394 43.2532 22.5395 42.4386 23.4407 41.6248C25.0107 40.2078 26.5811 38.7909 28.1514 37.3746C28.9848 36.6234 29.8226 35.8764 30.6496 35.1192C30.7821 34.9975 30.8856 34.9941 31.0383 35.0642C32.5166 35.7439 33.9973 36.4178 35.4783 37.0927C37.31 37.9275 39.1413 38.7642 40.9763 39.5926C41.1809 39.6849 41.3127 39.8127 41.4159 40.0133C42.0935 41.3295 42.782 42.6396 43.4704 43.95" fill="#FDFDFD"/>
</g>
<path fill-rule="evenodd" clip-rule="evenodd" d="M52.4002 46.9865C53.4362 50.2058 51.3727 53.6317 48.035 54.2281C47.6898 54.2895 47.3433 54.3225 47.0884 54.3239C45.8407 54.2915 44.7918 53.9453 43.8415 53.2919C43.6988 53.1941 43.6591 53.095 43.6918 52.9278C44.1604 50.5382 44.6239 48.1479 45.0882 45.7583C45.1182 45.6046 45.1458 45.4509 45.1765 45.2975C45.2176 45.0932 45.219 45.0918 45.43 45.1411C46.3521 45.3558 47.2741 45.5706 48.1955 45.787C49.4928 46.0921 50.7887 46.4019 52.0877 46.6979C52.2664 46.7384 52.3456 46.8176 52.4002 46.9865Z" fill="#FDFDFD"/>
<mask id="mask1_7859_14423" style="mask-type:luminance" maskUnits="userSpaceOnUse" x="29" y="14" width="24" height="24">
<path d="M29.339 14.7159H52.4579V37.8985H29.339V14.7159Z" fill="white"/>
</mask>
<g mask="url(#mask1_7859_14423)">
<path fill-rule="evenodd" clip-rule="evenodd" d="M29.4004 29.0653C29.3346 28.9254 29.3252 28.7945 29.3555 28.6412C29.7729 26.5047 30.1835 24.367 30.5962 22.2296C30.7422 21.472 30.8898 20.7148 31.0331 19.957C31.0496 19.8667 31.086 19.7812 31.1396 19.7068C32.1487 18.2817 33.4052 17.1274 34.9206 16.2586C36.2445 15.4997 37.6648 15.0112 39.1769 14.818C41.3885 14.5362 43.5228 14.8329 45.5551 15.7661C48.0792 16.9258 49.9641 18.7571 51.2196 21.2313C51.8281 22.4305 52.2003 23.7042 52.3598 25.0409C52.4171 25.5163 52.4245 25.994 52.4575 26.4481C52.4255 27.1686 52.3979 27.8657 52.2613 28.5542C52.232 28.7018 52.1693 28.8006 52.0607 28.8957C50.5248 30.2395 48.9911 31.5867 47.4572 32.9328C45.6121 34.5521 43.7656 36.1693 41.9242 37.7926C41.7954 37.9062 41.6993 37.9298 41.5392 37.8567C39.1995 36.7846 36.8564 35.7192 34.514 34.6522C33.5265 34.2025 32.5408 33.7504 31.5513 33.3057C31.409 33.2417 31.3149 33.1554 31.2478 33.0111C30.6357 31.6941 30.0198 30.3788 29.4004 29.0653Z" fill="#FDFDFD"/>
</g>
<mask id="mask2_7859_14423" style="mask-type:luminance" maskUnits="userSpaceOnUse" x="43" y="30" width="16" height="16">
<path d="M43.0525 30.2974H58.3239V45.0271H43.0525V30.2974Z" fill="white"/>
</mask>
<g mask="url(#mask2_7859_14423)">
<path fill-rule="evenodd" clip-rule="evenodd" d="M57.3034 33.722C57.9865 34.9205 58.329 36.2135 58.3239 38.0468C58.237 40.3214 57.1052 42.4915 54.8764 44.0788C54.3336 44.4651 53.741 44.7554 53.1169 44.985C52.9982 45.0313 52.8681 45.0398 52.7444 45.0092C50.2666 44.4287 47.7881 43.8511 45.3089 43.2764C45.1677 43.244 45.0696 43.1854 44.9981 43.0448C44.3788 41.8335 43.7517 40.6265 43.125 39.4192C43.0063 39.1907 43.0367 39.2183 43.1917 39.0824L50.9505 32.2832C51.6625 31.6588 52.3793 31.0402 53.0846 30.4077C53.2228 30.284 53.329 30.2681 53.4959 30.3403C55.1384 31.0493 56.4171 32.1675 57.3034 33.722Z" fill="#FDFDFD"/>
</g>
<path fill-rule="evenodd" clip-rule="evenodd" d="M43.5346 44.34C42.9936 47.1265 42.4599 49.9143 41.9336 52.7036C41.8759 53.0094 41.7727 53.2734 41.584 53.5235C39.9927 55.6356 37.9385 57.0749 35.4009 57.8263C34.2088 58.1793 32.9904 58.3421 31.7518 58.2926C28.9819 58.1823 26.529 57.2374 24.4266 55.4212C22.6162 53.8566 21.3968 51.9117 20.7657 49.6033C20.4834 48.5816 20.3505 47.5244 20.3712 46.4646C20.3577 45.7951 20.4211 45.1013 20.5415 44.4108C20.5623 44.2753 20.6315 44.1519 20.7363 44.0636C21.6399 43.2531 22.5393 42.4382 23.4408 41.6247C25.0109 40.2081 26.5809 38.7911 28.1519 37.3745C28.9846 36.6234 29.8224 35.8763 30.6497 35.1191C30.7822 34.9974 30.8857 34.994 31.0381 35.0641C32.5168 35.7438 33.9978 36.4177 35.4781 37.0927C37.3101 37.9274 39.1411 38.7645 40.9764 39.5925C41.1811 39.6849 41.3132 39.8127 41.4164 40.0133C42.0934 41.3294 42.7818 42.6395 43.4705 43.95C43.537 44.0767 43.5639 44.1903 43.5346 44.34Z" fill="#00BFB2"/>
<path fill-rule="evenodd" clip-rule="evenodd" d="M52.4578 26.448C52.4254 27.1685 52.3978 27.8657 52.2613 28.5541C52.2319 28.7021 52.1692 28.8009 52.061 28.8956C50.5247 30.2394 48.9911 31.5866 47.4571 32.9328C45.612 34.5517 43.7655 36.1693 41.9244 37.7926C41.7953 37.9062 41.6989 37.9298 41.5394 37.8566C39.1994 36.7845 36.8567 35.7192 34.5139 34.6522C33.5265 34.2024 32.5403 33.7503 31.5512 33.3057C31.4086 33.2416 31.3149 33.155 31.2478 33.011C30.6356 31.694 30.0198 30.3788 29.4003 29.0652C29.3342 28.925 29.3255 28.7941 29.3555 28.6408C29.7728 26.5047 30.1835 24.3669 30.5961 22.2295C30.7421 21.472 30.8901 20.7148 31.033 19.9569C31.0509 19.8632 31.0849 19.7836 31.1392 19.7071C32.1486 18.2817 33.4048 17.1273 34.9208 16.2585C36.2444 15.4997 37.6648 15.0112 39.1768 14.8183C41.3884 14.5358 43.5228 14.8328 45.555 15.7657C48.0791 16.9254 49.964 18.757 51.2195 21.2316C51.828 22.4304 52.2006 23.7041 52.3597 25.0408C52.417 25.5162 52.4248 25.9939 52.4575 26.448" fill="#FFD100"/>
<path fill-rule="evenodd" clip-rule="evenodd" d="M58.324 38.0471C58.237 40.3214 57.1052 42.4915 54.8764 44.0784C54.3337 44.4654 53.741 44.7554 53.1173 44.9853C52.9983 45.0315 52.8679 45.0398 52.7441 45.0089C50.2664 44.4286 47.788 43.8511 45.309 43.2764C45.1677 43.244 45.0696 43.1854 44.9981 43.0448C44.3792 41.8335 43.7517 40.6265 43.1254 39.4192C43.0063 39.1903 43.0364 39.2187 43.1918 39.0828L50.9502 32.2828C51.6629 31.6591 52.3796 31.0398 53.0842 30.4077C53.2225 30.2843 53.329 30.2685 53.4962 30.3403C55.1381 31.0493 56.4168 32.1675 57.3035 33.722C57.9865 34.9205 58.329 36.2135 58.324 38.0471Z" fill="#007AA5"/>
<mask id="mask3_7859_14423" style="mask-type:luminance" maskUnits="userSpaceOnUse" x="14" y="27" width="16" height="16">
<path d="M14.4967 27.9571H29.5362V42.678H14.4967V27.9571Z" fill="white"/>
</mask>
<g mask="url(#mask3_7859_14423)">
<path fill-rule="evenodd" clip-rule="evenodd" d="M29.3862 33.841L25.8058 37.0781L21.0179 41.4069C20.588 41.7953 20.1531 42.1783 19.729 42.5727C19.6124 42.6806 19.5163 42.7092 19.3649 42.6418C16.7852 41.4945 15.1986 39.5473 14.6309 36.7784C14.5901 36.5808 14.5557 36.3806 14.5385 36.18C14.5156 35.9147 14.5115 35.6473 14.4967 35.3149C14.5372 33.1128 15.3884 31.2029 17.0276 29.642C17.776 28.9296 18.6391 28.3966 19.6043 28.0268C19.7897 27.9553 19.9633 27.9361 20.1649 27.9843C22.6037 28.5665 25.0456 29.1407 27.4874 29.7114C27.6641 29.7529 27.7666 29.8348 27.8441 30.0041C28.3768 31.1651 28.9206 32.3212 29.4617 33.4779C29.5766 33.724 29.5638 33.6798 29.3862 33.841Z" fill="#00A9E6"/>
</g>
<path fill-rule="evenodd" clip-rule="evenodd" d="M29.1728 20.0405C28.8407 21.7161 28.5214 23.3943 28.1978 25.0716C28.0397 25.8925 27.8809 26.7127 27.7221 27.5333C27.7133 27.5785 27.7046 27.6237 27.6944 27.6682C27.6429 27.8988 27.6425 27.9004 27.4129 27.8462C25.1946 27.3236 22.9776 26.7984 20.7586 26.2799C20.5867 26.2394 20.495 26.1642 20.4451 25.9892C19.8217 23.7851 20.3058 21.8631 21.9227 20.2415C22.7538 19.4077 23.7776 18.93 24.9337 18.7395C25.2226 18.6917 25.5162 18.6485 25.7124 18.6687C26.9834 18.6893 28.0575 19.0116 29.0251 19.6801C29.1643 19.7762 29.2078 19.8642 29.1728 20.0405Z" fill="#FF3A9A"/>
<path fill-rule="evenodd" clip-rule="evenodd" d="M48.0346 54.2278C47.6897 54.2895 47.3435 54.3222 47.0883 54.3242C45.8402 54.2915 44.7921 53.9453 43.8417 53.2919C43.6984 53.1938 43.659 53.0947 43.6917 52.9278C44.1603 50.5382 44.6239 48.148 45.0881 45.7584C45.1178 45.6046 45.1454 45.4512 45.1764 45.2978C45.2175 45.0935 45.2189 45.0919 45.4299 45.1407C46.3517 45.3558 47.2737 45.5706 48.1951 45.7874C49.4924 46.0918 50.7883 46.4023 52.0876 46.6983C52.2663 46.7387 52.3455 46.8176 52.3998 46.9869C53.4362 50.2058 51.3726 53.6318 48.0346 54.2278Z" fill="#82CC02"/>
</svg>
