<svg width="74" height="74" viewBox="0 0 74 74" fill="none" xmlns="http://www.w3.org/2000/svg">
<path d="M54.093 25.9H34.6776C34.7705 26.3625 34.9563 26.825 35.0492 27.195C35.6995 29.415 36.0711 31.7275 36.2569 34.1325C36.3498 35.0575 36.3498 36.075 36.3498 37C36.3498 37.925 36.3498 38.9425 36.2569 39.8675C36.0711 42.2725 35.6995 44.585 35.0492 46.805C34.9563 47.2675 34.7705 47.73 34.6776 48.1H54.093C60.2241 48.1 65.1476 43.105 65.1476 37C65.1476 30.895 60.2241 25.9 54.093 25.9Z" fill="#00A9E5"/>
<path d="M36.2569 39.8675C36.3498 38.9425 36.3498 37.925 36.3498 37C36.3498 36.075 36.3498 35.0575 36.2569 34.1325C36.0711 31.7275 35.6995 29.415 35.0492 27.195C34.9563 26.7325 34.7705 26.27 34.6776 25.9H4.67213C3.55737 29.415 3 33.115 3 37C3 40.885 3.55737 44.585 4.67213 48.1H34.6776C34.7705 47.6375 34.9563 47.175 35.0492 46.805C35.6995 44.585 36.0711 42.2725 36.2569 39.8675Z" fill="#353535"/>
<path d="M57.4371 51.8H33.2841C32.541 53.465 31.7049 55.0375 30.7759 56.5175C29.3825 58.83 27.7104 60.865 25.8524 62.8075C25.2022 63.455 24.5519 64.01 23.9016 64.6575C22.6011 65.86 21.1147 66.8775 19.6284 67.895C25.4809 71.78 32.541 74 40.0656 74C52.9781 74 64.3115 67.4325 71 57.535C67.5628 54.02 62.7322 51.8 57.4371 51.8Z" fill="#00BFB3"/>
<path d="M30.7759 56.5175C31.7049 55.0375 32.541 53.465 33.2841 51.8H6.06556C8.94535 58.3675 13.6831 64.01 19.7213 67.895C21.2077 66.8775 22.6011 65.86 23.9945 64.6575C24.6448 64.1025 25.2951 63.455 25.9454 62.8075C27.7104 60.9575 29.3825 58.83 30.7759 56.5175Z" fill="#019B8F"/>
<path d="M25.8525 11.1925C25.2022 10.545 24.5519 9.98998 23.9017 9.34248C22.6011 8.13998 21.1148 7.12248 19.6284 6.10498C13.6831 9.98998 8.94537 15.6325 5.97269 22.2H33.1913C32.4481 20.535 31.612 18.9625 30.6831 17.4825C29.3825 15.17 27.7104 13.0425 25.8525 11.1925Z" fill="#F9B110"/>
<path d="M40.0656 0C32.541 0 25.4809 2.21998 19.6284 6.10498C21.1148 7.12248 22.5082 8.13998 23.9017 9.34248C24.5519 9.89748 25.2022 10.545 25.8525 11.1925C27.7104 13.135 29.3825 15.17 30.7759 17.4825C31.7049 18.9625 32.541 20.535 33.2841 22.2H57.4371C62.7322 22.2 67.5628 19.98 71 16.465C64.3115 6.5675 52.9781 0 40.0656 0Z" fill="#FED10A"/>
</svg>
