<svg width="150" height="51" viewBox="0 0 150 51" fill="none" xmlns="http://www.w3.org/2000/svg">
<path d="M0 0.787109H50V50.7871H0V0.787109Z" fill="#E04E39"/>
<path fill-rule="evenodd" clip-rule="evenodd" d="M25.3923 10.0276C28.5796 9.96458 30.832 10.8289 32.7701 13.5798C36.9964 24.0584 21.8903 29.4664 21.2846 29.679L21.2656 29.6852C21.2656 29.6852 20.8095 32.5313 25.1418 32.4219C30.4733 32.4219 36.0784 28.2894 38.2106 26.5427C38.4584 26.339 38.7739 26.2364 39.0942 26.2554C39.4144 26.2744 39.7156 26.4136 39.9376 26.6451L41.534 28.3034C41.7583 28.5347 41.8865 28.8426 41.8926 29.1649C41.8987 29.4871 41.7823 29.7996 41.5668 30.0393C40.1792 31.5843 36.923 34.7562 32.021 36.8052C32.021 36.8052 23.8419 40.5925 18.3299 37.0062C15.0432 34.8687 14.1391 32.3094 13.7715 29.6473C13.7734 29.6473 9.78088 29.4448 7.21699 28.4437C4.65233 27.4418 7.23593 24.4195 7.23593 24.4195C7.23593 24.4195 8.02446 23.1698 9.52422 24.4195C11.0251 25.6672 13.8264 25.1044 13.8264 25.1044C14.0761 23.1335 14.4912 20.5325 15.7142 17.7873C18.2777 12.0337 22.2037 10.0894 25.3923 10.0276ZM27.2681 15.7928C25.5793 14.1654 20.7032 17.417 20.515 24.857C20.515 24.857 21.9544 25.2953 25.1418 23.106C28.3307 20.9178 28.9569 17.417 27.2681 15.7928Z" fill="white"/>
<path d="M71.7614 32.7871V18.2417H80.5398V19.8042H73.5227V24.7189H80.0852V26.2814H73.5227V31.2246H80.6534V32.7871H71.7614ZM83.4872 32.7871V21.878H85.1065V23.5826H85.2486C85.4759 23.0002 85.8428 22.548 86.3494 22.226C86.8561 21.8993 87.4645 21.736 88.1747 21.736C88.8944 21.736 89.4934 21.8993 89.9716 22.226C90.4545 22.548 90.831 23.0002 91.1009 23.5826H91.2145C91.4938 23.0191 91.9129 22.5717 92.4716 22.2402C93.0303 21.9041 93.7003 21.736 94.4815 21.736C95.4569 21.736 96.2547 22.0414 96.875 22.6522C97.4953 23.2582 97.8054 24.2028 97.8054 25.486V32.7871H96.1293V25.486C96.1293 24.681 95.9091 24.1058 95.4688 23.7601C95.0284 23.4145 94.5099 23.2417 93.9134 23.2417C93.1463 23.2417 92.5521 23.4737 92.1307 23.9377C91.7093 24.397 91.4986 24.9793 91.4986 25.6848V32.7871H89.794V25.3155C89.794 24.6953 89.5928 24.1957 89.1903 23.8169C88.7879 23.4334 88.2694 23.2417 87.6349 23.2417C87.1993 23.2417 86.7921 23.3577 86.4134 23.5897C86.0393 23.8217 85.7363 24.1436 85.5043 24.5556C85.277 24.9628 85.1634 25.4339 85.1634 25.9689V32.7871H83.4872ZM101.097 32.7871V18.2417H102.773V23.611H102.915C103.039 23.4216 103.209 23.1801 103.427 22.8865C103.649 22.5882 103.967 22.3231 104.379 22.0911C104.795 21.8543 105.359 21.736 106.069 21.736C106.987 21.736 107.797 21.9656 108.498 22.4249C109.199 22.8842 109.746 23.5352 110.138 24.378C110.531 25.2208 110.728 26.2151 110.728 27.361C110.728 28.5163 110.531 29.5177 110.138 30.3652C109.746 31.208 109.201 31.8614 108.505 32.3255C107.809 32.7847 107.006 33.0144 106.097 33.0144C105.397 33.0144 104.835 32.8984 104.414 32.6664C103.993 32.4296 103.668 32.1621 103.441 31.8638C103.214 31.5608 103.039 31.3098 102.915 31.111H102.717V32.7871H101.097ZM102.745 27.3326C102.745 28.1564 102.866 28.8832 103.107 29.513C103.349 30.138 103.701 30.628 104.165 30.9831C104.629 31.3335 105.198 31.5087 105.87 31.5087C106.571 31.5087 107.156 31.324 107.624 30.9547C108.098 30.5807 108.453 30.0788 108.69 29.449C108.931 28.8146 109.052 28.1091 109.052 27.3326C109.052 26.5655 108.933 25.8742 108.697 25.2587C108.465 24.6384 108.112 24.1484 107.638 23.7885C107.17 23.4239 106.58 23.2417 105.87 23.2417C105.188 23.2417 104.615 23.4145 104.151 23.7601C103.687 24.101 103.337 24.5792 103.1 25.1948C102.863 25.8056 102.745 26.5182 102.745 27.3326ZM117.866 33.0144C116.815 33.0144 115.908 32.7824 115.146 32.3184C114.388 31.8496 113.803 31.1962 113.391 30.3581C112.984 29.5153 112.781 28.5352 112.781 27.4178C112.781 26.3004 112.984 25.3155 113.391 24.4632C113.803 23.6062 114.376 22.9386 115.11 22.4604C115.849 21.9775 116.71 21.736 117.695 21.736C118.263 21.736 118.825 21.8307 119.379 22.0201C119.933 22.2095 120.437 22.5172 120.891 22.9434C121.346 23.3648 121.708 23.9235 121.978 24.6195C122.248 25.3155 122.383 26.1725 122.383 27.1905V27.9007H113.974V26.4519H120.678C120.678 25.8364 120.555 25.2871 120.309 24.8042C120.067 24.3212 119.722 23.94 119.272 23.6607C118.827 23.3813 118.301 23.2417 117.695 23.2417C117.028 23.2417 116.45 23.4074 115.962 23.7388C115.479 24.0655 115.108 24.4917 114.847 25.0172C114.587 25.5428 114.457 26.1062 114.457 26.7076V27.6735C114.457 28.4973 114.599 29.1957 114.883 29.7686C115.172 30.3368 115.572 30.7701 116.083 31.0684C116.594 31.3619 117.189 31.5087 117.866 31.5087C118.306 31.5087 118.704 31.4471 119.059 31.324C119.419 31.1962 119.729 31.0068 119.989 30.7559C120.25 30.5002 120.451 30.1829 120.593 29.8042L122.212 30.2587C122.042 30.8079 121.755 31.2909 121.353 31.7076C120.951 32.1195 120.453 32.4415 119.862 32.6735C119.27 32.9007 118.604 33.0144 117.866 33.0144ZM124.933 32.7871V21.878H126.552V23.5257H126.665C126.864 22.986 127.224 22.548 127.745 22.2118C128.266 21.8757 128.853 21.7076 129.506 21.7076C129.629 21.7076 129.783 21.7099 129.968 21.7147C130.153 21.7194 130.292 21.7265 130.387 21.736V23.4405C130.33 23.4263 130.2 23.405 129.996 23.3766C129.798 23.3435 129.587 23.3269 129.364 23.3269C128.834 23.3269 128.361 23.4382 127.944 23.6607C127.532 23.8785 127.205 24.1815 126.964 24.5698C126.727 24.9533 126.609 25.3913 126.609 25.8837V32.7871H124.933ZM132.346 32.9007C131.995 32.9007 131.694 32.7753 131.444 32.5243C131.193 32.2734 131.067 31.9727 131.067 31.6223C131.067 31.272 131.193 30.9713 131.444 30.7203C131.694 30.4694 131.995 30.3439 132.346 30.3439C132.696 30.3439 132.997 30.4694 133.248 30.7203C133.498 30.9713 133.624 31.272 133.624 31.6223C133.624 31.8543 133.565 32.0674 133.446 32.2615C133.333 32.4557 133.179 32.6119 132.985 32.7303C132.795 32.8439 132.582 32.9007 132.346 32.9007ZM136.632 21.878H138.308V33.5826C138.308 34.2549 138.192 34.8373 137.96 35.3297C137.733 35.8221 137.387 36.2033 136.923 36.4732C136.464 36.7431 135.884 36.878 135.183 36.878C135.126 36.878 135.069 36.878 135.012 36.878C134.956 36.878 134.899 36.878 134.842 36.878V35.3155C134.899 35.3155 134.951 35.3155 134.998 35.3155C135.046 35.3155 135.098 35.3155 135.154 35.3155C135.666 35.3155 136.04 35.164 136.277 34.861C136.513 34.5627 136.632 34.1365 136.632 33.5826V21.878ZM137.456 20.0598C137.129 20.0598 136.847 19.9486 136.61 19.726C136.378 19.5035 136.262 19.236 136.262 18.9235C136.262 18.611 136.378 18.3435 136.61 18.1209C136.847 17.8984 137.129 17.7871 137.456 17.7871C137.782 17.7871 138.062 17.8984 138.294 18.1209C138.53 18.3435 138.649 18.611 138.649 18.9235C138.649 19.236 138.53 19.5035 138.294 19.726C138.062 19.9486 137.782 20.0598 137.456 20.0598ZM149.105 24.3212L147.599 24.7473C147.505 24.4964 147.365 24.2525 147.18 24.0158C147 23.7743 146.754 23.5755 146.442 23.4192C146.129 23.263 145.729 23.1848 145.241 23.1848C144.574 23.1848 144.018 23.3387 143.572 23.6465C143.132 23.9495 142.912 24.3354 142.912 24.8042C142.912 25.2208 143.063 25.5499 143.366 25.7914C143.67 26.0328 144.143 26.2341 144.787 26.3951L146.406 26.7928C147.382 27.0295 148.108 27.3917 148.587 27.8794C149.065 28.3624 149.304 28.985 149.304 29.7473C149.304 30.3723 149.124 30.931 148.764 31.4235C148.409 31.9159 147.912 32.3042 147.273 32.5882C146.634 32.8723 145.89 33.0144 145.043 33.0144C143.93 33.0144 143.009 32.7729 142.28 32.29C141.551 31.807 141.089 31.1015 140.895 30.1735L142.486 29.7757C142.637 30.3629 142.924 30.8032 143.345 31.0968C143.771 31.3903 144.328 31.5371 145.014 31.5371C145.795 31.5371 146.416 31.3714 146.875 31.04C147.339 30.7038 147.571 30.3013 147.571 29.8326C147.571 29.4538 147.438 29.1365 147.173 28.8809C146.908 28.6204 146.501 28.4263 145.952 28.2985L144.134 27.8723C143.134 27.6356 142.401 27.2686 141.932 26.7715C141.468 26.2696 141.236 25.6422 141.236 24.8894C141.236 24.2739 141.409 23.7293 141.754 23.2559C142.105 22.7824 142.58 22.4107 143.182 22.1408C143.788 21.8709 144.474 21.736 145.241 21.736C146.321 21.736 147.169 21.9727 147.784 22.4462C148.404 22.9197 148.845 23.5447 149.105 24.3212Z" fill="white"/>
</svg>
