<svg width="70" height="70" viewBox="0 0 70 70" fill="none" xmlns="http://www.w3.org/2000/svg"><g clip-path="url(#a)"><path d="M35 70c19.33 0 35-15.67 35-35S54.33 0 35 0 0 15.67 0 35s15.67 35 35 35" fill="#121617"/><g filter="url(#b)"><path fill-rule="evenodd" clip-rule="evenodd" d="M20.633 22.214a3.18 3.18 0 0 1 3.185-3.179h22.366a3.19 3.19 0 0 1 3.184 3.179v25.571a3.18 3.18 0 0 1-3.184 3.179H23.818a3.19 3.19 0 0 1-3.185-3.179zm3.185 23.959c0 .883.718 1.598 1.607 1.598h19.143a1.6 1.6 0 0 0 1.608-1.598v-22.36c0-.883-.719-1.598-1.608-1.598H25.433a1.6 1.6 0 0 0-1.607 1.598zm3.2-17.56c0-.88.708-1.596 1.611-1.596h3.163a1.6 1.6 0 0 1 1.61 1.597c0 .88-.707 1.596-1.61 1.596h-3.163a1.6 1.6 0 0 1-1.61-1.596m0 6.386c0-.88.729-1.596 1.589-1.596h12.786c.878 0 1.588.709 1.588 1.596 0 .882-.728 1.597-1.588 1.597H28.607A1.59 1.59 0 0 1 27.019 35m0 6.386c0-.881.729-1.596 1.589-1.596h12.786c.878 0 1.588.708 1.588 1.596 0 .881-.728 1.596-1.588 1.596H28.607a1.59 1.59 0 0 1-1.588-1.596" fill="#f5fafe"/></g></g><defs><clipPath id="a"><path fill="#fff" d="M0 0h70v70H0z"/></clipPath><filter id="b" x="-246.034" y="-234.298" width="562.068" height="565.263" filterUnits="userSpaceOnUse" color-interpolation-filters="sRGB"><feFlood flood-opacity="0" result="BackgroundImageFix"/><feColorMatrix in="SourceAlpha" values="0 0 0 0 0 0 0 0 0 0 0 0 0 0 0 0 0 0 127 0" result="hardAlpha"/><feOffset dy="13.333"/><feGaussianBlur stdDeviation="133.333"/><feColorMatrix values="0 0 0 0 0 0 0 0 0 0 0 0 0 0 0 0 0 0 0.1 0"/><feBlend in2="BackgroundImageFix" result="effect1_dropShadow_20557_67013"/><feBlend in="SourceGraphic" in2="effect1_dropShadow_20557_67013" result="shape"/></filter></defs></svg>