<svg width="70" height="70" viewBox="0 0 70 70" fill="none" xmlns="http://www.w3.org/2000/svg"><g clip-path="url(#a)"><path d="M35 70c19.33 0 35-15.67 35-35S54.33 0 35 0 0 15.67 0 35s15.67 35 35 35" fill="#121617"/><path d="M51.078 35c0 7.58 0 11.369-2.355 13.724C46.37 51.078 42.58 51.078 35 51.078s-11.369 0-13.724-2.355C18.923 46.37 18.923 42.58 18.923 35s0-11.369 2.354-13.724c2.355-2.354 6.145-2.354 13.724-2.354" stroke="#f5fafe" stroke-width="3" stroke-linecap="round"/><path d="m18.922 35.8 2.816-2.463a3.7 3.7 0 0 1 5.05.168l6.897 6.897a3.215 3.215 0 0 0 4.123.357l.48-.337a4.82 4.82 0 0 1 6 .361l5.182 4.665" stroke="#f5fafe" stroke-width="3" stroke-linecap="round"/><path d="m45.544 20.426.67-.67a2.845 2.845 0 0 1 4.025 4.023l-.671.67m-4.024-4.023s.084 1.425 1.342 2.682c1.257 1.258 2.682 1.342 2.682 1.342m-4.024-4.024L39.38 26.59c-.418.418-.626.627-.806.857a4.7 4.7 0 0 0-.541.876c-.126.263-.22.544-.406 1.104l-.598 1.794m12.54-6.773-6.165 6.166c-.418.417-.627.626-.857.806a4.7 4.7 0 0 1-.876.541c-.264.126-.544.22-1.104.406l-1.794.598m-1.744-1.744-.387 1.16a.767.767 0 0 0 .97.97l1.161-.386m-1.744-1.744 1.744 1.744" stroke="#f5fafe" stroke-width="3"/></g><defs><clipPath id="a"><path fill="#fff" d="M0 0h70v70H0z"/></clipPath></defs></svg>