<svg width="70" height="70" viewBox="0 0 70 70" fill="none" xmlns="http://www.w3.org/2000/svg"><g clip-path="url(#a)"><path d="M35 70c19.33 0 35-15.67 35-35S54.33 0 35 0 0 15.67 0 35s15.67 35 35 35" fill="#121617"/><path d="M27.42 42.644c-4.185-4.184-4.185-10.968 0-15.152m-6.06 21.216c-7.532-7.532-7.532-19.743 0-27.274m21.218 5.98c4.184 4.184 4.184 10.968 0 15.152m6.055-21.273c7.531 7.532 7.531 19.743 0 27.274M34.994 37.212a2.143 2.143 0 1 0 0-4.286 2.143 2.143 0 0 0 0 4.285Z" stroke="#f5fafe" stroke-width="3" stroke-linecap="round"/></g><defs><clipPath id="a"><path fill="#fff" d="M0 0h70v70H0z"/></clipPath></defs></svg>