<svg width="70" height="70" viewBox="0 0 70 70" fill="none" xmlns="http://www.w3.org/2000/svg"><g clip-path="url(#a)"><path d="M35 70c19.33 0 35-15.67 35-35S54.33 0 35 0 0 15.67 0 35s15.67 35 35 35" fill="#121617"/><path d="M47.414 40c0 2.276 1.871 4.13 4.148 4.13 0 6.62-1.659 8.28-8.279 8.28H26.725c-6.62 0-8.28-1.66-8.28-8.28v-.812c2.278 0 4.149-1.871 4.149-4.148a4.166 4.166 0 0 0-4.149-4.149v-.812c.018-6.62 1.66-8.28 8.28-8.28h16.54c6.62 0 8.28 1.66 8.28 8.28v1.66a4.125 4.125 0 0 0-4.131 4.13" stroke="#f5fafe" stroke-width="3" stroke-linecap="round" stroke-linejoin="round"/><path d="M42.648 25.93H26.602l5.172-5.172c4.219-4.219 6.337-4.219 10.557 0l1.059 1.06a3.63 3.63 0 0 0-.742 4.112" stroke="#f5fafe" stroke-width="3" stroke-linecap="round" stroke-linejoin="round"/><path d="M31.477 25.93v26.48" stroke="#f5fafe" stroke-width="3" stroke-linecap="round" stroke-linejoin="round" stroke-dasharray="166.67 166.67"/></g><defs><clipPath id="a"><path fill="#fff" d="M0 0h70v70H0z"/></clipPath></defs></svg>