<svg width="70" height="70" viewBox="0 0 70 70" fill="none" xmlns="http://www.w3.org/2000/svg"><g clip-path="url(#a)"><path d="M35 70c19.33 0 35-15.67 35-35S54.33 0 35 0 0 15.67 0 35s15.67 35 35 35" fill="#121617"/><path d="M35.875 17.5c-2.446 0-4.798.522-6.992 1.552a2.057 2.057 0 0 0 1.749 3.723 12.2 12.2 0 0 1 5.243-1.162c6.803 0 12.337 5.534 12.337 12.337s-5.534 12.337-12.337 12.337c-1.455 0-2.877-.248-4.23-.739a2.056 2.056 0 1 0-1.404 3.864c1.804.657 3.7.988 5.634.988 9.07 0 16.45-7.38 16.45-16.45s-7.38-16.45-16.45-16.45M17.369 31.894a2.056 2.056 0 1 0 0 4.112h8.225a2.056 2.056 0 1 0 0-4.112z" fill="#f5fafe"/><path d="M29.71 25.724a2.056 2.056 0 0 0-2.057-2.056h-6.169a2.056 2.056 0 1 0 0 4.113h6.17c1.135 0 2.055-.92 2.055-2.057M13.26 44.231h14.393a2.056 2.056 0 1 0 0-4.113H13.26a2.056 2.056 0 1 0 0 4.112m22.618-16.45c-1.135 0-2.056.92-2.056 2.056v4.112c0 .78.44 1.49 1.136 1.84l4.113 2.056a2.055 2.055 0 1 0 1.84-3.679l-2.977-1.488v-2.841c0-1.137-.92-2.056-2.056-2.056" fill="#f5fafe"/></g><defs><clipPath id="a"><path fill="#fff" d="M0 0h70v70H0z"/></clipPath></defs></svg>