<svg width="70" height="70" viewBox="0 0 70 70" fill="none" xmlns="http://www.w3.org/2000/svg"><g clip-path="url(#a)"><path d="M35 70c19.33 0 35-15.67 35-35S54.33 0 35 0 0 15.67 0 35s15.67 35 35 35" fill="#121617"/><path d="M21.368 20.856h21.286a2.26 2.26 0 0 1 2.258 2.257v28.602a1.505 1.505 0 0 1-1.506 1.506H21.932a.753.753 0 0 1-.752-.753V21.044a.19.19 0 0 1 .188-.189Z" stroke="#f5fafe" stroke-width="2" stroke-miterlimit="10"/><path d="M21.18 20.855c0-3.424 1.212-4.057 3.891-4.057h20.902a2.55 2.55 0 0 1 2.83 2.83v28.098a1.415 1.415 0 0 1-1.415 1.415h-2.476" stroke="#f5fafe" stroke-width="2" stroke-miterlimit="10"/><path d="M28.93 37.597V26.93a.249.249 0 0 1 .384-.203l8.392 5.329a.248.248 0 0 1 0 .414l-8.392 5.336a.249.249 0 0 1-.384-.21Z" stroke="#f5fafe" stroke-width="2" stroke-miterlimit="10"/><path d="M28.164 43.64h9.762m-9.762 4.063h9.762" stroke="#f5fafe" stroke-width="2" stroke-linecap="round" stroke-linejoin="round"/></g><defs><clipPath id="a"><path fill="#fff" d="M0 0h70v70H0z"/></clipPath></defs></svg>