<svg width="40" height="40" viewBox="0 0 40 40" fill="none" xmlns="http://www.w3.org/2000/svg">
<path d="M38.803 14.966C38.6826 14.9949 38.5786 15.0703 38.5136 15.1757C38.4486 15.2811 38.4279 15.4079 38.4561 15.5285C38.7978 16.9787 38.9708 18.4635 38.9718 19.9535C38.9657 24.9949 36.9604 29.8281 33.3955 33.3929C29.8307 36.9577 24.9975 38.9631 19.9561 38.9691C15.8155 38.9836 11.786 37.6302 8.49363 35.1191C8.93568 34.46 9.11231 33.6581 8.98811 32.8743C8.8639 32.0904 8.44805 31.3824 7.82389 30.8923C7.19972 30.4021 6.41337 30.1659 5.6224 30.231C4.83144 30.2961 4.09432 30.6578 3.55875 31.2435C3.02319 31.8292 2.72875 32.5956 2.73446 33.3893C2.74016 34.1829 3.04558 34.945 3.58951 35.523C4.13344 36.1009 4.87568 36.4519 5.6675 36.5057C6.45932 36.5594 7.2422 36.312 7.85925 35.8128C11.3258 38.4816 15.5814 39.9217 19.9561 39.9066C22.97 39.9034 25.944 39.2182 28.6554 37.9023C31.3668 36.5865 33.7453 34.6742 35.6128 32.3087C37.4802 29.9431 38.7881 27.1857 39.4386 24.2429C40.089 21.3001 40.0651 18.2482 39.3686 15.316C39.3547 15.2557 39.3289 15.1989 39.2929 15.1486C39.2568 15.0984 39.2112 15.0558 39.1586 15.0233C39.1061 14.9907 39.0476 14.9689 38.9865 14.9591C38.9255 14.9493 38.8631 14.9516 38.803 14.966Z" fill="white"/>
<path d="M0.937519 19.9532C0.937724 16.5707 1.84008 13.2496 3.55156 10.3321C5.26303 7.41455 7.72169 5.00633 10.674 3.35567C13.6264 1.70501 16.9655 0.871654 20.3473 0.941532C23.729 1.01141 27.0309 1.98199 29.9125 3.7532C29.6151 4.38953 29.5675 5.11436 29.7791 5.78413C29.9908 6.45389 30.4463 7.01974 31.0554 7.36961C31.6644 7.71947 32.3827 7.82783 33.0679 7.67322C33.7531 7.51861 34.3552 7.11231 34.755 6.53479C35.1548 5.95727 35.3232 5.25066 35.2267 4.5549C35.1303 3.85914 34.776 3.22499 34.2341 2.77804C33.6923 2.33109 33.0023 2.10395 32.3009 2.1416C31.5995 2.17924 30.9378 2.47894 30.4469 2.98132C27.4243 1.11279 23.9575 0.0853151 20.4049 0.00508739C16.8523 -0.0751404 13.3427 0.794789 10.2388 2.52497C7.13491 4.25515 4.54937 6.78281 2.74938 9.84673C0.949378 12.9107 0.000228579 16.3997 1.88157e-05 19.9532C-0.00166166 21.1712 0.109227 22.3868 0.331269 23.5844C0.350328 23.6923 0.406853 23.7901 0.490887 23.8604C0.574921 23.9307 0.681073 23.9691 0.790644 23.9688C0.819027 23.9688 0.847322 23.9657 0.875019 23.9594C0.997212 23.9374 1.10566 23.8677 1.17655 23.7658C1.24744 23.6638 1.27499 23.5379 1.25314 23.4157C1.04249 22.2736 0.936844 21.1146 0.937519 19.9532Z" fill="white"/>
<path d="M17.1406 16.8578V17.1391H22.7656V16.8578C22.7219 13.0578 17.1844 13.0578 17.1406 16.8578Z" fill="white"/>
<path d="M33.0641 10.2132C27.7891 10.2664 22.7141 7.007 20.7734 5.60075C20.5351 5.4286 20.2487 5.33594 19.9547 5.33594C19.6607 5.33594 19.3742 5.4286 19.1359 5.60075C17.1953 7.007 12.1078 10.2539 6.84531 10.2132C6.65842 10.2114 6.473 10.2465 6.29974 10.3166C6.12648 10.3867 5.9688 10.4904 5.83577 10.6217C5.70274 10.753 5.59699 10.9093 5.52462 11.0816C5.45225 11.2539 5.41467 11.4388 5.41406 11.6257C5.41719 18.8414 6.86094 29.1632 19.3203 35.4695C19.5168 35.5696 19.7342 35.6219 19.9547 35.6219C20.1752 35.6219 20.3926 35.5696 20.5891 35.4695C33.0484 29.1632 34.4922 18.8414 34.4953 11.6257C34.4925 11.2487 34.3402 10.8883 34.0719 10.6234C33.8035 10.3586 33.4411 10.2111 33.0641 10.2132ZM25.1109 24.482C25.1109 25.1036 24.864 25.6997 24.4245 26.1393C23.9849 26.5788 23.3888 26.8257 22.7672 26.8257H17.1422C16.5206 26.8257 15.9244 26.5788 15.4849 26.1393C15.0454 25.6997 14.7984 25.1036 14.7984 24.482V19.482C14.7987 19.0262 14.9318 18.5803 15.1816 18.199C15.4314 17.8177 15.7869 17.5175 16.2047 17.3351V16.8507C16.2609 11.8351 23.6484 11.8351 23.7047 16.8507V17.3351C24.1225 17.5175 24.478 17.8177 24.7278 18.199C24.9775 18.5803 25.1107 19.0262 25.1109 19.482V24.482Z" fill="white"/>
<path d="M20.7239 21.4423C20.717 21.4004 20.719 21.3575 20.7297 21.3163C20.7405 21.2752 20.7598 21.2368 20.7864 21.2036C20.8911 21.0522 20.9524 20.8751 20.9636 20.6914C20.9749 20.5077 20.9356 20.3244 20.8502 20.1614C20.7647 19.9984 20.6363 19.8619 20.4788 19.7667C20.3213 19.6714 20.1408 19.6211 19.9568 19.6211C19.7727 19.6211 19.5922 19.6714 19.4347 19.7667C19.2772 19.8619 19.1488 19.9984 19.0633 20.1614C18.9779 20.3244 18.9387 20.5077 18.9499 20.6914C18.9611 20.8751 19.0224 21.0522 19.1271 21.2036C19.1536 21.2364 19.1728 21.2744 19.1836 21.3152C19.1944 21.356 19.1964 21.3986 19.1896 21.4402C19.1161 21.8061 18.9083 22.8523 18.7618 23.5786C18.7439 23.6692 18.7464 23.7626 18.769 23.8521C18.7916 23.9416 18.8337 24.025 18.8924 24.0963C18.951 24.1676 19.0247 24.225 19.1082 24.2644C19.1917 24.3038 19.2829 24.3243 19.3752 24.3242H20.5377C20.6302 24.3243 20.7215 24.3038 20.8051 24.2642C20.8887 24.2247 20.9625 24.1671 21.0212 24.0956C21.0798 24.0241 21.1219 23.9405 21.1443 23.8507C21.1667 23.761 21.1689 23.6674 21.1508 23.5767L20.7239 21.4423Z" fill="white"/>
</svg>
