<svg width="44" height="51" viewBox="0 0 44 51" fill="none" xmlns="http://www.w3.org/2000/svg">
<path d="M29.4197 17.9389H23.956L24.2682 15.3632C24.7365 11.5386 23.956 8.49447 21.4583 7.79199H21.2241C20.9661 7.83731 20.7235 7.94686 20.5189 8.11055C20.3143 8.27424 20.1542 8.48679 20.0533 8.72863C20.0533 8.72863 15.6043 18.095 13.0285 19.9683V35.8912H14.0432C14.2124 35.8768 14.3827 35.8971 14.5437 35.9508C14.7048 36.0045 14.8532 36.0904 14.9799 36.2034C16.0726 36.9839 19.7411 39.0133 21.6144 39.0133H25.5171C30.1222 39.0133 34.1029 35.8912 34.4932 29.725L34.8835 23.4807C34.9281 22.748 34.818 22.0141 34.5602 21.3267C34.3025 20.6394 33.9029 20.014 33.3876 19.4913C32.8722 18.9685 32.2525 18.5601 31.5689 18.2927C30.8853 18.0252 30.153 17.9047 29.4197 17.9389ZM2.10107 21.8416V34.3301C2.10107 34.7441 2.26554 35.1412 2.5583 35.434C2.85106 35.7267 3.24812 35.8912 3.66214 35.8912H9.9064V20.2805H3.66214C3.24812 20.2805 2.85106 20.445 2.5583 20.7377C2.26554 21.0305 2.10107 21.4276 2.10107 21.8416Z" fill="white"/>
</svg>
