<svg width="100" height="100" viewBox="0 0 100 100" fill="none" xmlns="http://www.w3.org/2000/svg">
<circle cx="50" cy="50" r="50" fill="#FF5D00" fill-opacity="0.1"/>
<path d="M51 28C43.3115 28.0091 35.9406 31.0646 30.5041 36.496C25.0675 41.9275 22.0092 49.2915 22.0001 56.9727C21.9946 59.5481 22.3398 62.1123 23.0262 64.5947C23.0887 64.8309 23.2276 65.0398 23.4212 65.189C23.6149 65.3381 23.8525 65.4191 24.097 65.4194H77.903C78.1475 65.4191 78.3851 65.3381 78.5788 65.189C78.7724 65.0398 78.9113 64.8309 78.9738 64.5947C79.6602 62.1123 80.0054 59.5481 79.9999 56.9727C79.9908 49.2915 76.9325 41.9275 71.4959 36.496C66.0594 31.0646 58.6885 28.0091 51 28ZM49.8846 32.4573C49.8846 32.1618 50.0021 31.8784 50.2113 31.6694C50.4205 31.4604 50.7042 31.343 51 31.343C51.2958 31.343 51.5795 31.4604 51.7887 31.6694C51.9979 31.8784 52.1154 32.1618 52.1154 32.4573V34.3406C52.1154 34.6361 51.9979 34.9195 51.7887 35.1285C51.5795 35.3375 51.2958 35.4549 51 35.4549C50.7042 35.4549 50.4205 35.3375 50.2113 35.1285C50.0021 34.9195 49.8846 34.6361 49.8846 34.3406V32.4573ZM28.3354 58.0202L26.4616 58.009C26.1658 58.009 25.8821 57.8916 25.6729 57.6826C25.4637 57.4737 25.3462 57.1902 25.3462 56.8947C25.3462 56.5992 25.4637 56.3157 25.6729 56.1067C25.8821 55.8978 26.1658 55.7804 26.4616 55.7804L28.3354 55.7915C28.6313 55.7915 28.915 55.9089 29.1241 56.1179C29.3333 56.3269 29.4508 56.6103 29.4508 56.9058C29.4508 57.2014 29.3333 57.4848 29.1241 57.6938C28.915 57.9028 28.6313 58.0202 28.3354 58.0202ZM32.3843 46.1525C32.2821 46.3182 32.1394 46.4552 31.9697 46.5507C31.7999 46.6462 31.6087 46.6971 31.4139 46.6985C31.2186 46.6994 31.0264 46.6495 30.8562 46.5537L29.2277 45.6065C28.9751 45.4543 28.7918 45.2097 28.7168 44.9246C28.6418 44.6395 28.681 44.3365 28.8262 44.0798C28.9 43.9531 28.9981 43.8421 29.1149 43.7533C29.2317 43.6645 29.3649 43.5996 29.5069 43.5624C29.6488 43.5251 29.7968 43.5162 29.9422 43.5361C30.0876 43.5561 30.2276 43.6045 30.3543 43.6787L31.9716 44.6259C32.2275 44.775 32.4143 45.0188 32.4915 45.3046C32.5688 45.5903 32.5302 45.8949 32.3843 46.1525ZM40.3035 38.2965C40.0446 38.4425 39.7383 38.48 39.4518 38.4006C39.1652 38.3212 38.922 38.1314 38.7754 37.873L37.8496 36.2461C37.7032 35.989 37.665 35.6843 37.7435 35.399C37.8219 35.1137 38.0106 34.8713 38.2679 34.725C38.5253 34.5787 38.8303 34.5406 39.1158 34.6189C39.4013 34.6973 39.644 34.8858 39.7904 35.1429L40.7162 36.7698C40.8621 37.0274 40.9007 37.332 40.8234 37.6177C40.7462 37.9035 40.5594 38.1473 40.3035 38.2965ZM52.6396 60.8729C52.1208 61.0924 51.5634 61.206 51 61.2072C50.1685 61.2003 49.3571 60.951 48.6656 60.4897C47.974 60.0284 47.4324 59.3754 47.1073 58.6108C46.7443 57.7576 46.6743 56.8082 46.9084 55.9111C47.1425 55.014 47.6674 54.2196 48.4012 53.652L42.88 40.5363C42.7673 40.2641 42.7661 39.9586 42.8767 39.6855C42.9872 39.4125 43.2007 39.1938 43.4712 39.0765C43.6057 39.0177 43.7506 38.9863 43.8975 38.9843C44.0443 38.9822 44.19 39.0095 44.3262 39.0645C44.4623 39.1196 44.586 39.2012 44.6901 39.3047C44.7942 39.4082 44.8766 39.5314 44.9323 39.6671L50.4423 52.7939C51.1719 52.6912 51.9157 52.7874 52.595 53.0725C53.1109 53.2783 53.5801 53.5856 53.9748 53.9761C54.3695 54.3666 54.6817 54.8324 54.8927 55.3458C55.3235 56.3776 55.3285 57.5378 54.9064 58.5732C54.4843 59.6087 53.6694 60.4353 52.6396 60.8729ZM64.2396 36.3129L63.3027 37.9287C63.2044 38.0988 63.0629 38.2399 62.8925 38.3377C62.7221 38.4355 62.5288 38.4867 62.3323 38.4859C62.1403 38.4881 61.9514 38.438 61.7857 38.341C61.6579 38.2682 61.5458 38.1709 61.4558 38.0546C61.3658 37.9383 61.2997 37.8054 61.2614 37.6635C61.223 37.5216 61.2131 37.3735 61.2323 37.2278C61.2515 37.0821 61.2993 36.9416 61.3731 36.8144L62.31 35.1986C62.3797 35.0654 62.4757 34.9477 62.5921 34.8526C62.7086 34.7574 62.8431 34.6868 62.9875 34.6449C63.132 34.603 63.2835 34.5908 63.4328 34.6089C63.5821 34.627 63.7262 34.6752 63.8565 34.7504C63.9867 34.8256 64.1004 34.9263 64.1906 35.0466C64.2809 35.1668 64.3459 35.304 64.3817 35.45C64.4174 35.596 64.4233 35.7477 64.3989 35.896C64.3745 36.0443 64.3203 36.1861 64.2396 36.3129ZM70.6307 46.7877C70.4359 46.7875 70.2445 46.7359 70.0761 46.6381C69.9076 46.5402 69.768 46.3996 69.6715 46.2305C69.5237 45.9745 69.483 45.6706 69.5582 45.3847C69.6334 45.0989 69.8184 44.8542 70.073 44.7039L71.7015 43.7678C71.9593 43.622 72.2642 43.5835 72.5502 43.6607C72.8362 43.7379 73.0803 43.9245 73.2296 44.1801C73.375 44.436 73.4132 44.7389 73.3359 45.0229C73.2586 45.3068 73.072 45.5486 72.8169 45.6956L71.1884 46.6317C71.0219 46.7373 70.8279 46.7915 70.6307 46.7877ZM75.5384 58.1205H73.6646C73.3687 58.1205 73.085 58.0031 72.8759 57.7941C72.6667 57.5851 72.5492 57.3017 72.5492 57.0061C72.5492 56.7106 72.6667 56.4272 72.8759 56.2182C73.085 56.0092 73.3687 55.8918 73.6646 55.8918H75.5384C75.8342 55.8918 76.1179 56.0092 76.3271 56.2182C76.5363 56.4272 76.6538 56.7106 76.6538 57.0061C76.6538 57.3017 76.5363 57.5851 76.3271 57.7941C76.1179 58.0031 75.8342 58.1205 75.5384 58.1205ZM52.8404 56.2038C52.9955 56.5679 53.0385 56.9699 52.9639 57.3585C52.8894 57.7471 52.7006 58.1047 52.4218 58.3857C52.1429 58.6666 51.7866 58.8583 51.3983 58.9361C51.01 59.0139 50.6073 58.9743 50.2415 58.8225C49.9989 58.7253 49.7782 58.5806 49.5924 58.3968C49.4066 58.2131 49.2594 57.9941 49.1596 57.7527C49.0021 57.3886 48.9573 56.9857 49.031 56.5959C49.1046 56.2062 49.2934 55.8473 49.5729 55.5656C49.8525 55.284 50.21 55.0923 50.5995 55.0154C50.989 54.9385 51.3927 54.9798 51.7585 55.134C52.0011 55.2313 52.2218 55.376 52.4076 55.5597C52.5934 55.7434 52.7406 55.9624 52.8404 56.2038Z" fill="#FF5D00"/>
</svg>
