<svg width="100" height="100" viewBox="0 0 100 100" fill="none" xmlns="http://www.w3.org/2000/svg">
<circle cx="50" cy="50" r="50" fill="#FF5D00" fill-opacity="0.1"/>
<g clip-path="url(#clip0_3009_8976)">
<g clip-path="url(#clip1_3009_8976)">
<path d="M41.4001 58.901L39.2428 59.29C39.7708 54.3227 46.1672 42.6374 49.9386 36.2337C53.4404 42.0147 56.5354 48.0288 59.2013 54.2329C57.4362 54.8015 55.5958 55.37 53.6799 55.9086L50.7382 56.7166L49.2296 57.0906L48.4451 57.3001L47.6908 57.4796C45.6543 57.9734 43.5423 58.4372 41.4001 58.901ZM88 44.6872V45.4353C88 45.4353 88 45.5251 88 45.54V45.7495V45.959V46.1834C87.9004 46.5315 87.7743 46.8716 87.6229 47.2008C87.45 47.5768 87.2535 47.9416 87.0345 48.293C86.7931 48.6521 86.5216 49.0262 86.2199 49.4002C85.5387 50.2122 84.792 50.9677 83.9872 51.6595C81.9555 53.3941 79.7576 54.9276 77.4249 56.2378C75.7051 57.2253 73.8194 58.2277 71.7526 59.2302L69.3087 60.2476L69.1428 60.3224V60.6366C69.0698 64.9108 67.5514 69.0368 64.8312 72.3527C62.111 75.6686 58.3467 77.9823 54.1421 78.9226C49.9375 79.8629 45.5363 79.3753 41.6445 77.5381C37.7527 75.7008 34.5959 72.6204 32.6805 68.7909C31.715 68.7909 30.7344 68.7909 29.6634 68.7909C28.4263 68.7909 27.1742 68.7161 25.907 68.5964C24.6027 68.4825 23.3075 68.2826 22.03 67.9979C21.3501 67.8429 20.6801 67.648 20.0236 67.4144C19.3247 67.1674 18.6526 66.8516 18.0172 66.4718L17.4892 66.1277L16.9611 65.7237C16.5931 65.4093 16.2639 65.0527 15.9806 64.6614C15.6548 64.2052 15.4052 63.7 15.2414 63.1652C15.0862 62.6658 15.0049 62.1467 15 61.6241V61.2949C15 61.2949 15 61.1902 15 61.1154V60.891C15 60.7264 15 60.6217 15 60.502L15.0905 60.1578C15.2576 59.7184 15.47 59.2973 15.7241 58.901C16.0784 58.2231 16.514 57.5901 17.0215 57.0158C17.9237 56.0103 18.9356 55.107 20.0386 54.3227C21.0529 53.5715 22.1052 52.8724 23.1916 52.228C24.2627 51.5996 25.3337 51.0161 26.4199 50.4625C27.5061 49.9089 28.5923 49.4002 29.6784 48.9663L32.9521 47.5749H33.0275C32.1461 49.1985 31.3505 50.8665 30.6439 52.5721C29.8444 52.9761 29.0448 53.41 28.2755 53.8589C27.2798 54.4274 26.3143 55.0109 25.379 55.6393C24.4525 56.2531 23.561 56.9174 22.7088 57.6293C21.9098 58.2857 21.1818 59.0228 20.5365 59.8287C20.3856 60.0232 20.2649 60.2027 20.1442 60.3823C20.0391 60.549 19.9482 60.7241 19.8727 60.9059C19.8092 61.0457 19.7587 61.1909 19.7218 61.3398C19.7302 61.3692 19.7302 61.4003 19.7218 61.4296V61.5643C19.7171 61.604 19.7171 61.6442 19.7218 61.684C19.751 61.7332 19.7865 61.7785 19.8274 61.8186C19.898 61.8989 19.9792 61.9694 20.0688 62.0281L20.2649 62.1627L20.4912 62.2824C20.8769 62.4765 21.2812 62.6318 21.6981 62.7463C22.1936 62.8906 22.6974 63.0055 23.2067 63.0904C24.264 63.2712 25.3325 63.3812 26.4048 63.4195C27.5061 63.4195 28.6224 63.4195 29.7388 63.4195H30.0103H31.0211C30.8822 62.4983 30.8116 61.5681 30.8099 60.6366C30.8099 56.4473 33.6611 49.0411 39.5294 38.0291C43.7384 30.0993 48.0076 23.2168 48.0529 23.0672L49.9386 20L51.8998 23.142C51.8998 23.2168 56.2143 30.0993 60.4232 38.1039C63.4076 43.4489 65.9309 49.0347 67.9661 54.8015L68.5243 54.577L70.5156 53.7691C72.0242 53.1407 73.4121 52.4973 74.6944 51.8689C75.9766 51.2405 77.0779 50.6121 78.0887 49.9987C79.002 49.4573 79.8788 48.8576 80.7136 48.2033C81.3507 47.725 81.9416 47.1891 82.4786 46.6023C82.6711 46.3924 82.8524 46.1727 83.0217 45.944C83.1394 45.777 83.2453 45.602 83.3385 45.4203C83.4039 45.3055 83.4595 45.1854 83.5044 45.0612V44.8219C83.5304 44.7339 83.5304 44.6405 83.5044 44.5525C83.4351 44.4402 83.3486 44.3393 83.248 44.2533C83.0774 44.0988 82.8902 43.9633 82.6898 43.8493C82.0271 43.4916 81.323 43.2153 80.5929 43.0264C79.5685 42.75 78.5246 42.5499 77.4701 42.4279C76.2934 42.2933 74.981 42.1886 73.5629 42.1586C70.5698 42.0958 67.5759 42.2358 64.602 42.5776C64.0438 41.6649 63.4555 40.7223 62.8219 39.7498L63.5611 39.6301C65.3714 39.3458 67.1062 39.1064 68.7807 38.9418C70.4553 38.7772 72.0393 38.6426 73.5478 38.5977C76.2302 38.4531 78.9203 38.634 81.5584 39.1363C82.6537 39.3521 83.7144 39.7145 84.7113 40.2136C85.1711 40.4488 85.6058 40.7295 86.0087 41.0514C86.3921 41.3638 86.7364 41.7204 87.0345 42.1137C87.289 42.4595 87.4969 42.8368 87.653 43.2359C87.7651 43.5321 87.8509 43.8375 87.9095 44.1486C87.9095 44.2832 87.9095 44.388 87.9095 44.4927V44.9116L88 44.6872ZM35.3205 60.6366C35.3215 61.4391 35.3921 62.2401 35.5317 63.0305L36.3916 62.9258C37.2968 62.8211 38.1868 62.6864 39.0769 62.5517C40.3743 62.3423 41.6716 62.1179 42.9539 61.8785C45.0961 61.4595 47.2081 61.0107 49.2598 60.502L50.014 60.3224L50.7985 60.1279L52.3071 59.7389L55.3242 58.931C57.8737 58.2128 60.2875 57.4348 62.5956 56.6867L63.7874 56.2827C61.3736 48.5773 54.4191 36.0392 50.0291 28.6779C44.5832 37.7 35.3205 54.5172 35.3205 60.6366ZM64.4813 62.2076C63.2593 62.6565 62.0072 63.1053 60.7099 63.5243C59.4125 63.9432 58.2358 64.3173 56.9384 64.6913C55.9277 64.9905 54.9018 65.2599 53.8458 65.5292L53.0614 65.7386L52.2618 65.9331L51.4774 66.1127L50.6627 66.3072L46.8762 67.1002C45.9258 67.2797 44.9754 67.4593 44.0099 67.6089C41.9583 67.953 39.8462 68.2373 37.7192 68.4468C39.3803 70.9112 41.7604 72.814 44.5412 73.9007C47.3221 74.9874 50.3712 75.2062 53.2808 74.5278C56.1905 73.8495 58.822 72.3064 60.8235 70.1047C62.825 67.9031 64.1012 65.148 64.4813 62.2076Z" fill="#FF5D00"/>
</g>
</g>
<defs>
<clipPath id="clip0_3009_8976">
<rect width="78" height="78" fill="white" transform="translate(13 11)"/>
</clipPath>
<clipPath id="clip1_3009_8976">
<rect width="73" height="73" fill="white" transform="translate(15 20)"/>
</clipPath>
</defs>
</svg>
