<svg width="100" height="100" viewBox="0 0 100 100" fill="none" xmlns="http://www.w3.org/2000/svg">
<circle cx="50" cy="50" r="50" fill="#FF5D00" fill-opacity="0.1"/>
<path d="M32.3333 73.25H47.75V76.3333H44.6667C42.8167 76.3333 41.5833 77.5667 41.5833 79.4167C41.5833 81.2667 42.8167 82.5 44.6667 82.5H57C58.85 82.5 60.0833 81.2667 60.0833 79.4167C60.0833 77.5667 58.85 76.3333 57 76.3333H53.9167V73.25H69.3333C76.1167 73.25 81.6667 67.7 81.6667 60.9167V39.3333C81.6667 32.55 76.1167 27 69.3333 27H32.3333C25.55 27 20 32.55 20 39.3333V60.9167C20 67.7 25.55 73.25 32.3333 73.25ZM69.3333 67.0833H32.3333C30.175 67.0833 28.0167 65.85 27.0917 64H74.575C73.65 65.85 71.4917 67.0833 69.3333 67.0833ZM32.3333 33.1667H69.3333C72.725 33.1667 75.5 35.9417 75.5 39.3333V57.8333H26.1667V39.3333C26.1667 35.9417 28.9417 33.1667 32.3333 33.1667Z" fill="#FF5D00"/>
<path d="M43.0917 54.575C43.7083 55.1917 44.325 55.5 45.25 55.5C46.175 55.5 46.7917 55.1917 47.4083 54.575C48.6417 53.3417 48.6417 51.4917 47.4083 50.2583L43.4 46.25L47.4083 42.2417C48.6417 41.0083 48.6417 39.1583 47.4083 37.925C46.175 36.6917 44.325 36.6917 43.0917 37.925L36.925 44.0917C35.6917 45.325 35.6917 47.175 36.925 48.4083L43.0917 54.575ZM55.425 54.575C56.0417 55.1917 56.9667 55.5 57.5833 55.5C58.2 55.5 59.125 55.1917 59.7417 54.575L65.9083 48.4083C67.1417 47.175 67.1417 45.325 65.9083 44.0917L59.7417 37.925C58.5083 36.6917 56.6583 36.6917 55.425 37.925C54.1917 39.1583 54.1917 41.0083 55.425 42.2417L59.4333 46.25L55.425 50.2583C54.1917 51.4917 54.1917 53.3417 55.425 54.575Z" fill="#FF5D00"/>
</svg>
