<svg width="38" height="38" viewBox="0 0 38 38" fill="none" xmlns="http://www.w3.org/2000/svg">
<path d="M19.4009 0.23291C15.7223 0.23291 12.1264 1.32373 9.06777 3.36743C6.00916 5.41112 3.62526 8.31591 2.21754 11.7145C0.809817 15.113 0.441492 18.8527 1.15914 22.4605C1.87679 26.0684 3.64819 29.3825 6.24932 31.9836C8.85046 34.5847 12.1645 36.3561 15.7724 37.0738C19.3803 37.7914 23.1199 37.4231 26.5185 36.0154C29.917 34.6077 32.8218 32.2238 34.8655 29.1651C36.9092 26.1065 38 22.5106 38 18.832C38 16.3896 37.5189 13.971 36.5842 11.7145C35.6495 9.4579 34.2795 7.40755 32.5524 5.68047C30.8254 3.95338 28.775 2.58338 26.5185 1.64868C24.2619 0.713991 21.8434 0.23291 19.4009 0.23291ZM29.9577 15.553L18.7983 25.7825C18.445 26.1065 17.9802 26.2815 17.5009 26.2711C17.0217 26.2607 16.565 26.0657 16.226 25.7267L10.6463 20.147C10.4686 19.9754 10.3269 19.7702 10.2295 19.5433C10.132 19.3163 10.0807 19.0723 10.0785 18.8253C10.0764 18.5784 10.1235 18.3335 10.217 18.1049C10.3105 17.8763 10.4486 17.6686 10.6232 17.494C10.7979 17.3194 11.0055 17.1813 11.2341 17.0878C11.4627 16.9942 11.7076 16.9472 11.9545 16.9493C12.2015 16.9515 12.4456 17.0028 12.6725 17.1003C12.8994 17.1977 13.1046 17.3394 13.2762 17.5171L17.5968 21.8376L27.4431 12.8115C27.8067 12.478 28.2878 12.3027 28.7807 12.3239C29.2735 12.3452 29.7377 12.5614 30.0712 12.9249C30.4047 13.2885 30.58 13.7696 30.5588 14.2625C30.5375 14.7553 30.3213 15.2195 29.9577 15.553Z" fill="#2A2D30"/>
</svg>
