<svg width="50" height="50" viewBox="0 0 50 50" fill="none" xmlns="http://www.w3.org/2000/svg">
<g clip-path="url(#clip0_17275_3323)">
<path d="M50 38.7519C48.1813 39.2144 47.0562 38.7722 46.0469 37.2566L38.8687 27.3253L37.8312 25.9503L29.4484 37.2894C28.4906 38.6534 27.4859 39.2472 25.6984 38.7644L36.4328 24.355L26.4391 11.3394C28.1578 11.005 29.3453 11.1753 30.4 12.7144L37.8453 22.7691L45.3453 12.7691C46.3063 11.405 47.3391 10.8863 49.0641 11.3894L45.1891 16.5269L39.9391 23.3628C39.3141 24.1441 39.4 24.6784 39.975 25.4331L50 38.7519ZM0.0125 24.1144L0.890625 19.7956C3.28125 11.2488 13.0781 7.6972 19.8344 12.9784C23.7828 16.0847 24.7641 20.4784 24.5688 25.4003H2.3125C1.97812 34.2597 8.35469 39.6066 16.4844 36.8784C19.3359 35.9206 21.0156 33.6878 21.8563 30.8941C22.2828 29.4941 22.9891 29.2753 24.3047 29.6753C23.6328 33.1691 22.1172 36.0878 18.9141 37.9144C14.1281 40.6488 7.29687 39.7644 3.70312 35.9644C1.5625 33.7597 0.678125 30.9659 0.28125 27.9784C0.21875 27.4847 0.09375 27.0144 0 26.5409C0.00833333 25.7326 0.0125 24.9243 0.0125 24.1159V24.1144ZM2.35313 23.5206H22.4656C22.3344 17.1144 18.3453 12.5644 12.8938 12.5253C6.90937 12.4784 2.6125 16.9206 2.35313 23.5206Z" fill="black"/>
</g>
<defs>
<clipPath id="clip0_17275_3323">
<rect width="50" height="50" fill="white"/>
</clipPath>
</defs>
</svg>
