<svg width="32" height="32" viewBox="0 0 32 32" fill="none" xmlns="http://www.w3.org/2000/svg">
<path fill-rule="evenodd" clip-rule="evenodd" d="M2.76211 3.63575C2.2139 3.45203 1.81836 2.93388 1.81836 2.32413C1.81836 1.56083 2.43809 0.941162 3.20132 0.941162C3.96462 0.941162 4.58429 1.56083 4.58429 2.32413C4.58429 2.93388 4.18881 3.45203 3.64054 3.63575V6.91807H9.99041C10.233 6.91807 10.4296 7.11472 10.4296 7.35729V10.4536C10.1263 10.5864 9.83298 10.7377 9.55119 10.906V7.7965H3.20132C2.95875 7.7965 2.76211 7.59986 2.76211 7.35729V3.63575ZM13.7115 3.61705C13.1907 3.41865 12.8201 2.91431 12.8201 2.32413C12.8201 1.56083 13.4398 0.941162 14.2031 0.941162C14.9664 0.941162 15.5861 1.56083 15.5861 2.32413C15.5861 2.95315 15.1652 3.48466 14.5899 3.65219V9.85429C14.3017 9.8184 14.0086 9.79795 13.7115 9.79387V3.61705ZM25.1881 3.63575V7.35729C25.1881 7.59986 24.9914 7.7965 24.7489 7.7965H18.399V11.4134C18.1205 11.2003 17.8271 11.0053 17.5206 10.8301V7.35729C17.5206 7.11472 17.7172 6.91807 17.9598 6.91807H24.3097V3.63575C23.7615 3.45203 23.3659 2.93388 23.3659 2.32413C23.3659 1.56083 23.9856 0.941162 24.7489 0.941162C25.5122 0.941162 26.1318 1.56083 26.1318 2.32413C26.1318 2.93388 25.7364 3.45203 25.1881 3.63575ZM9.25001 26.8812H7.14887C4.44518 26.8812 2.25343 24.7162 2.25343 22.0455V22.0454C2.25343 19.546 4.17318 17.4894 6.63568 17.236C6.80666 13.5844 9.86203 10.6715 13.6007 10.6715C15.796 10.6715 17.7557 11.6758 19.0342 13.2443C19.6516 12.9998 20.3255 12.8652 21.031 12.8652C23.9974 12.8652 26.4057 15.2442 26.4057 18.1742C26.4057 18.3813 26.3937 18.5856 26.3703 18.7865C28.4998 18.9343 30.181 20.6876 30.181 22.8287V22.8288C30.181 25.0669 28.3443 26.8812 26.0786 26.8812H24.5674V19.4915C24.5674 18.6118 23.8536 17.898 22.9738 17.898H11.1022C10.0801 17.898 9.25001 18.7266 9.25001 19.7501V26.8812ZM18.6927 29.386C18.7587 29.8402 18.8752 30.2744 19.0126 30.6124C19.0581 30.7084 19.0512 30.8212 18.9943 30.911C18.9375 31.0008 18.8385 31.0553 18.7322 31.0553C17.832 31.0588 15.9785 31.0588 15.0811 31.0588C14.974 31.0588 14.8743 31.0042 14.8167 30.9139C14.759 30.8236 14.7515 30.7101 14.7966 30.6129C14.9333 30.2763 15.0426 29.8412 15.1024 29.386H18.6927ZM10.1284 25.4133V19.7501C10.1284 19.212 10.5649 18.7764 11.1022 18.7764H22.9738C23.3686 18.7764 23.6889 19.0967 23.6889 19.4915V25.4133H10.1284ZM23.6889 26.2918V27.5337C23.6889 28.0711 23.2525 28.5075 22.7152 28.5075H11.1022C10.5649 28.5075 10.1284 28.0711 10.1284 27.5337V26.2918H23.6889Z" fill="#F5FAFE"/>
</svg>
