<svg width="32" height="32" viewBox="0 0 32 32" fill="none" xmlns="http://www.w3.org/2000/svg">
<path d="M11.334 13.3333H13.0673C13.0873 12.2866 13.9473 11.4466 15.0007 11.4466H17.0007C18.0473 11.4466 18.914 12.2866 18.934 13.3333H20.6673C22.874 13.3333 24.6673 11.5399 24.6673 9.33325C24.6673 7.12659 22.874 5.33325 20.6673 5.33325C20.2873 5.33325 19.914 5.39323 19.5407 5.49992C18.8673 4.17989 17.5207 3.33325 16.0007 3.33325C14.4806 3.33325 13.1273 4.17989 12.4607 5.49992C12.0873 5.39323 11.714 5.33325 11.334 5.33325C9.12732 5.33325 7.33398 7.12659 7.33398 9.33325C7.33398 11.5399 9.12732 13.3333 11.334 13.3333Z" fill="#F5FAFE"/>
<path d="M27.334 24.7867V15.88C28.1073 15.6 28.6673 14.8667 28.6673 14C28.6673 12.9 27.7673 12 26.6673 12C25.5673 12 24.6673 12.9 24.6673 14C24.6673 14.8667 25.2273 15.6 26.0007 15.88V20H21.8596C22.0381 19.3551 22.4445 18.8072 23.034 18.4667C23.3206 18.2933 23.4207 17.9267 23.254 17.64C23.254 17.64 22.2607 15.88 22.254 15.8733C22.094 15.58 21.7006 15.48 21.414 15.6466C20.634 16.1066 19.7006 16.1133 18.914 15.6667C18.094 15.2 17.6073 14.3466 17.6073 13.3866C17.6073 13.0533 17.334 12.78 17.0007 12.78H15.0007C14.6673 12.78 14.394 13.0533 14.394 13.3866C14.394 14.3466 13.9006 15.2 13.0873 15.6667C12.3007 16.1133 11.3673 16.1066 10.5873 15.6466C10.3007 15.48 9.90731 15.5867 9.74732 15.8733L8.74732 17.6333C8.58065 17.9267 8.68066 18.2933 8.96733 18.4667C9.55677 18.8072 9.96318 19.3551 10.1417 20H6.00065V15.88C6.77396 15.6 7.33398 14.8667 7.33398 14C7.33398 12.9 6.434 12 5.33398 12C4.23397 12 3.33398 12.9 3.33398 14C3.33398 14.8667 3.894 15.6 4.66732 15.88V24.7867C3.894 25.0667 3.33398 25.8 3.33398 26.6667C3.33398 27.7666 4.23397 28.6667 5.33398 28.6667C6.434 28.6667 7.33398 27.7666 7.33398 26.6667C7.33398 25.8 6.77396 25.0667 6.00065 24.7867V21.3333H10.1633C10.01 22.0187 9.59021 22.6128 8.96732 22.98C8.68066 23.1466 8.58064 23.52 8.74731 23.8066C8.74731 23.8066 9.74064 25.5666 9.74731 25.5733C9.9073 25.8667 10.3007 25.9667 10.5873 25.8C11.3673 25.34 12.3007 25.3333 13.0873 25.78C13.9006 26.2467 14.394 27.1 14.394 28.0533C14.394 28.3933 14.6673 28.6667 15.0007 28.6667H17.0007C17.334 28.6667 17.6073 28.3933 17.6073 28.0533C17.6073 27.1 18.094 26.2467 18.914 25.78C19.7006 25.3333 20.634 25.34 21.414 25.8C21.7073 25.9667 22.094 25.8667 22.254 25.5733L23.254 23.8066C23.4207 23.52 23.3206 23.1467 23.034 22.98C22.4111 22.6128 21.9913 22.0187 21.838 21.3333H26.0007V24.7867C25.2273 25.0667 24.6673 25.8 24.6673 26.6667C24.6673 27.7666 25.5673 28.6667 26.6673 28.6667C27.7673 28.6667 28.6673 27.7666 28.6673 26.6667C28.6673 25.8 28.1073 25.0667 27.334 24.7867ZM16.0007 24.72C13.794 24.72 12.0007 22.9267 12.0007 20.72C12.0007 18.5133 13.794 16.72 16.0007 16.72C18.2073 16.72 20.0007 18.5133 20.0007 20.72C20.0007 22.9267 18.2073 24.72 16.0007 24.72Z" fill="#F5FAFE"/>
<path d="M16.0007 23.3885C17.4734 23.3885 18.6673 22.1946 18.6673 20.7218C18.6673 19.2491 17.4734 18.0552 16.0007 18.0552C14.5279 18.0552 13.334 19.2491 13.334 20.7218C13.334 22.1946 14.5279 23.3885 16.0007 23.3885Z" fill="#F5FAFE"/>
</svg>
