<svg width="32" height="32" viewBox="0 0 32 32" fill="none" xmlns="http://www.w3.org/2000/svg">
<path d="M28.278 13.6917H18.1515C17.4422 13.6917 16.8672 14.2666 16.8672 14.9759V19.4773C16.8672 20.1866 17.4422 20.7616 18.1515 20.7616H28.278C28.9873 20.7616 29.5623 20.1866 29.5623 19.4773V14.9759C29.5623 14.2666 28.9873 13.6917 28.278 13.6917ZM20.5242 18.3398C20.7123 18.5279 20.7123 18.8327 20.5242 19.0208C20.3361 19.2089 20.0313 19.2089 19.8432 19.0208L18.3902 17.5678C18.2021 17.3797 18.2021 17.0749 18.3902 16.8868L19.8432 15.4338C20.0313 15.2457 20.3361 15.2457 20.5242 15.4338C20.7123 15.622 20.7123 15.9267 20.5242 16.1148L19.4117 17.2273L20.5242 18.3398ZM24.6834 15.8038L22.5632 19.165C22.4207 19.3904 22.1229 19.4565 21.8991 19.3155C21.674 19.1732 21.6065 18.8759 21.7486 18.6508L23.8688 15.2896C24.0111 15.0651 24.3093 14.9974 24.5329 15.1391C24.758 15.2814 24.8254 15.5787 24.6834 15.8038ZM28.0417 17.5678L26.5888 19.0208C26.4006 19.2089 26.0959 19.2089 25.9078 19.0208C25.7196 18.8327 25.7196 18.5279 25.9078 18.3398L27.0202 17.2273L25.9078 16.1148C25.7196 15.9267 25.7196 15.622 25.9078 15.4338C26.0959 15.2457 26.4006 15.2457 26.5888 15.4338L28.0417 16.8868C28.2299 17.0749 28.2299 17.3797 28.0417 17.5678Z" fill="#F5FAFE"/>
<path d="M2.43945 26.7493V28.8362C2.43945 29.9022 3.2999 30.7691 4.36587 30.7691H17.9343C19.0002 30.7691 19.8607 29.9022 19.8607 28.8362V26.7493H2.43945ZM12.4312 28.9968H9.8626C9.5993 28.9968 9.38099 28.7848 9.38099 28.5152C9.38099 28.2519 9.5993 28.0335 9.8626 28.0335H12.4312C12.7008 28.0335 12.9128 28.2519 12.9128 28.5152C12.9128 28.7848 12.7008 28.9968 12.4312 28.9968Z" fill="#F5FAFE"/>
<path d="M18.1526 12.7314H19.8607V3.15713C19.8607 2.09116 19.0002 1.23071 17.9343 1.23071H14.6208L14.5438 1.41692L13.6512 3.13146C13.4265 3.55526 12.9898 3.81852 12.5082 3.81852H9.79197C9.31036 3.81852 8.87367 3.55526 8.64894 3.13146L7.79488 1.49397L7.67287 1.23071H4.36587C3.2999 1.23071 2.43945 2.09116 2.43945 3.15713V25.7862H19.8607V21.7278H18.1526C16.9133 21.7278 15.9051 20.7132 15.9051 19.4803V14.9789C15.9051 13.7396 16.9133 12.7314 18.1526 12.7314ZM5.93913 10.9977C5.95837 10.8885 5.9327 10.7665 5.85564 10.683L5.2135 9.95099C5.10431 9.83541 5.0915 9.66202 5.16855 9.52073L5.5731 8.82725C5.65016 8.68595 5.81069 8.61533 5.9648 8.64743L6.92158 8.84006C7.03716 8.85935 7.15274 8.82725 7.23622 8.75019C7.62153 8.41627 8.071 8.15297 8.56546 7.98604C8.67461 7.94752 8.75809 7.86404 8.79662 7.75484L9.1113 6.83016C9.16265 6.68248 9.30394 6.57975 9.45804 6.57975H10.2671C10.4277 6.57975 10.5625 6.68248 10.6139 6.83016L10.9285 7.75484C10.9671 7.86404 11.0505 7.94752 11.1661 7.98604C11.6542 8.15297 12.1037 8.41627 12.4889 8.75019C12.5788 8.82725 12.6944 8.85935 12.8036 8.83363L13.7668 8.64743C13.9209 8.61533 14.0815 8.68595 14.1585 8.82082L14.5631 9.52073C14.6401 9.66202 14.6208 9.83541 14.5181 9.95099L13.876 10.683C13.7989 10.7729 13.7668 10.8885 13.7925 11.0041C13.8867 11.5153 13.8867 12.0142 13.7925 12.5388C13.7668 12.648 13.7989 12.77 13.876 12.8534L14.5181 13.5855C14.6208 13.7075 14.6401 13.8809 14.5631 14.0157L14.1585 14.7157C14.0815 14.8505 13.9209 14.9212 13.7668 14.8891L12.8036 14.6964C12.6944 14.6771 12.5788 14.7092 12.4889 14.7863C12.1037 15.1266 11.6542 15.3835 11.1661 15.5504C11.057 15.589 10.9671 15.6724 10.9285 15.7816L10.6139 16.7063C10.5625 16.854 10.4277 16.9567 10.2671 16.9567H9.46447C9.30394 16.9567 9.16265 16.854 9.1113 16.7063L8.80305 15.7816C8.76452 15.6724 8.67461 15.589 8.56546 15.5504C8.071 15.3835 7.62153 15.1202 7.23622 14.7863C7.15274 14.7092 7.03716 14.6707 6.92158 14.6964L5.9648 14.8891C5.81069 14.9212 5.65016 14.8505 5.5731 14.7092L5.16855 14.0157C5.0915 13.8809 5.10431 13.7075 5.2135 13.5855L5.85564 12.8534C5.9327 12.77 5.95837 12.6544 5.93913 12.5388C5.83877 12.0497 5.83387 11.5106 5.93913 10.9977ZM9.03421 23.8469H5.11717C4.85391 23.8469 4.63556 23.635 4.63556 23.3653C4.63556 23.102 4.85391 22.8837 5.11717 22.8837H9.03421C9.29751 22.8837 9.51581 23.102 9.51581 23.3653C9.51581 23.635 9.29751 23.8469 9.03421 23.8469ZM14.608 20.9509H5.11717C4.85391 20.9509 4.63556 20.7325 4.63556 20.4693C4.63556 20.206 4.85391 19.9876 5.11717 19.9876H14.608C14.8777 19.9876 15.0896 20.206 15.0896 20.4693C15.0896 20.7325 14.8777 20.9509 14.608 20.9509Z" fill="#F5FAFE"/>
<path d="M9.8653 13.3766C10.752 13.3766 11.4708 12.6578 11.4708 11.7711C11.4708 10.8844 10.752 10.1655 9.8653 10.1655C8.97859 10.1655 8.25977 10.8844 8.25977 11.7711C8.25977 12.6578 8.97859 13.3766 9.8653 13.3766Z" fill="#F5FAFE"/>
</svg>
