<svg width="32" height="32" viewBox="0 0 32 32" fill="none" xmlns="http://www.w3.org/2000/svg">
<g clip-path="url(#clip0_12733_11068)">
<path fill-rule="evenodd" clip-rule="evenodd" d="M13.9914 18.3027C13.6164 18.1671 13.2748 18.045 12.9755 17.948C11.7659 17.5552 10.6321 17.8874 9.52514 18.4708C9.03823 17.6125 8.6755 16.6875 8.44397 15.7257L6.40143 14.9395V11.6038L8.44397 10.8176C8.706 9.72585 9.13599 8.6878 9.72385 7.73376L8.83362 5.73156L11.1919 3.37335L13.1941 4.26358C14.1481 3.67566 15.1861 3.24566 16.2746 2.98703L17.064 0.941162H20.3999L21.1859 2.98703C22.2744 3.24566 23.3124 3.67566 24.2665 4.26358L26.2687 3.37335L28.6269 5.73156L27.74 7.73376C28.3279 8.6878 28.7579 9.72585 29.0166 10.8176L31.0591 11.6038V14.9395L29.0166 15.7257C28.7738 16.7472 28.3772 17.7244 27.846 18.6294C27.4421 18.7746 27.0013 18.9806 26.5225 19.2595L20.8654 22.5542C20.5831 22.7188 20.295 22.8331 19.999 22.9019C20.1066 22.7239 20.191 22.5231 20.2504 22.3019C20.4729 21.4744 20.1591 20.6502 19.5319 20.1379C22.9724 19.7404 25.6442 16.8166 25.6442 13.2696C25.6442 9.45147 22.5481 6.35939 18.73 6.35939C14.9117 6.35939 11.8197 9.45147 11.8197 13.2696C11.8197 14.5553 12.1703 15.7591 12.7811 16.7904C13.1126 17.3502 13.5209 17.8591 13.9914 18.3027ZM15.8807 18.4484C14.8803 17.8961 14.0573 17.0621 13.5182 16.0533L15.084 14.4875C14.4368 12.9134 14.756 11.0375 16.0285 9.76501C17.231 8.5625 18.9538 8.21263 20.4624 8.70675L17.3709 11.7983L17.9612 13.9891L20.152 14.5794L23.2435 11.4879C23.7333 12.992 23.3835 14.7149 22.1809 15.9174C20.9085 17.1899 19.0325 17.5091 17.4627 16.8663L15.8807 18.4484ZM8.71001 26.8054L5.78678 21.6401L9.56692 19.4515C10.5766 18.8676 11.5953 18.4234 12.7042 18.7835H12.7044C14.0629 19.2241 16.2795 20.1654 18.5427 20.5785C19.1745 20.7948 19.5761 21.4269 19.4021 22.0738L19.402 22.074C19.2317 22.7084 18.696 23.0276 17.9537 22.9421C16.701 22.6839 15.5385 22.3039 14.2486 21.9573C14.048 21.9034 13.8413 22.0225 13.7874 22.2232C13.7334 22.4238 13.8526 22.6305 14.0533 22.6845C15.3634 23.0365 16.5441 23.4214 17.8173 23.6827L18.535 23.7999C18.5355 23.8 18.5359 23.8001 18.5363 23.8001C19.5285 23.9581 20.4391 23.8194 21.3077 23.3132L26.9647 20.0185C28.1692 19.3168 29.0582 19.1225 29.6868 19.2542C30.4355 19.4111 30.727 20.0742 30.6771 20.6795C30.6443 21.0766 30.4713 21.4591 30.1581 21.6521L19.8926 27.9724L19.8922 27.9726C19.0401 28.4986 18.1062 28.6184 17.1393 28.3605L9.69329 26.365C9.59685 26.3391 9.49408 26.3526 9.40761 26.4026L8.71001 26.8054ZM4.0862 20.6736L8.75193 28.9177C8.97668 29.3176 8.83481 29.828 8.43682 30.0528L6.85025 30.952C6.45037 31.1768 5.93994 31.035 5.71513 30.6369L1.04946 22.3928C0.822829 21.9929 0.964696 21.4825 1.36275 21.2577L2.95114 20.3584C3.34914 20.1336 3.85957 20.2755 4.0862 20.6736ZM3.00222 21.8186C2.64219 21.87 2.39353 22.2043 2.44498 22.5644C2.49856 22.9245 2.83293 23.1753 3.19303 23.1217C3.55312 23.0703 3.80172 22.7338 3.75026 22.3737C3.69668 22.0136 3.36231 21.765 3.00222 21.8186Z" fill="#F5FAFE"/>
</g>
<defs>
<clipPath id="clip0_12733_11068">
<rect width="32" height="32" fill="white"/>
</clipPath>
</defs>
</svg>
