<svg width="52" height="51" viewBox="0 0 52 51" fill="none" xmlns="http://www.w3.org/2000/svg">
<path d="M36.3928 49.8923C36.3573 49.874 26 43.4894 26 43.4894C26 43.4894 15.6427 49.874 15.6062 49.8923C13.8289 50.8273 11.7164 50.6748 10.0914 49.4939C8.46742 48.3129 7.66915 46.3494 8.00836 44.3686C8.01446 44.334 10.9272 31.8576 10.9272 31.8576C10.9272 31.8576 1.63334 24.6316 1.58561 24.5848C0.147493 23.1823 -0.360315 21.1242 0.260227 19.2136C0.880768 17.3029 2.50068 15.9359 4.48722 15.6473C4.53699 15.6402 17.0392 14.8921 17.0392 14.8921C17.0392 14.8921 21.2774 3.47579 21.3048 3.42091C22.1935 1.61897 23.9931 0.5 26 0.5C28.0079 0.5 29.8075 1.61897 30.6952 3.42091C30.7226 3.47579 34.9608 14.8921 34.9608 14.8921C34.9608 14.8921 47.463 15.6402 47.5128 15.6473C49.4993 15.9359 51.1192 17.3029 51.7398 19.2136C52.3603 21.1242 51.8525 23.1823 50.4144 24.5848C50.3667 24.6316 41.0717 31.8566 41.0717 31.8566C41.0717 31.8566 43.9845 44.333 43.9906 44.3675C44.3298 46.3484 43.557 48.3475 41.9076 49.4929C40.3659 50.5641 38.2463 50.8456 36.3928 49.8923Z" fill="white"/>
</svg>
