<svg width="80" height="81" viewBox="0 0 80 81" fill="none" xmlns="http://www.w3.org/2000/svg">
<path d="M43.7285 38.214C44.4389 37.7878 45.3602 38.0181 45.7865 38.7285L49.0002 44.0847L52.214 38.7285C52.6403 38.0181 53.5616 37.7878 54.272 38.214C54.9824 38.6403 55.2126 39.5616 54.7865 40.272L50.7495 47.0002L54.7865 53.7285C55.2126 54.4389 54.9824 55.3602 54.272 55.7865C53.5616 56.2126 52.6403 55.9824 52.214 55.272L49.0002 49.9156L45.7865 55.272C45.3602 55.9824 44.4389 56.2126 43.7285 55.7865C43.0181 55.3602 42.7878 54.4389 43.214 53.7285L47.2509 47.0002L43.214 40.272C42.7878 39.5616 43.0181 38.6403 43.7285 38.214Z" fill="white"/>
<path d="M26.5 38C27.3284 38 28 38.6716 28 39.5V48.5C28 50.9853 30.0147 53 32.5 53C34.9853 53 37 50.9853 37 48.5V39.5C37 38.6716 37.6715 38 38.5 38C39.3285 38 40 38.6716 40 39.5V48.5C40 52.6421 36.6421 56 32.5 56C28.3579 56 25 52.6421 25 48.5V39.5C25 38.6716 25.6716 38 26.5 38Z" fill="white"/>
<path fill-rule="evenodd" clip-rule="evenodd" d="M16.0001 22.9709C16.0157 20.499 18.0244 18.5 20.5 18.5H59.5C61.9854 18.5 64 20.5147 64 23V59C64 61.4854 61.9854 63.5 59.5 63.5H20.5C18.0147 63.5 16 61.4854 16 59V23L16.0001 22.9709ZM19 33.5V59C19 59.8284 19.6716 60.5 20.5 60.5H59.5C60.3284 60.5 61 59.8284 61 59V33.5H19ZM25 26C25 26.8284 24.3284 27.5 23.5 27.5C22.6716 27.5 22 26.8284 22 26C22 25.1716 22.6716 24.5 23.5 24.5C24.3284 24.5 25 25.1716 25 26ZM28 27.5C28.8284 27.5 29.5 26.8284 29.5 26C29.5 25.1716 28.8284 24.5 28 24.5C27.1716 24.5 26.5 25.1716 26.5 26C26.5 26.8284 27.1716 27.5 28 27.5ZM34 26C34 26.8284 33.3284 27.5 32.5 27.5C31.6715 27.5 31 26.8284 31 26C31 25.1716 31.6715 24.5 32.5 24.5C33.3284 24.5 34 25.1716 34 26Z" fill="white"/>
</svg>
