<svg width="39" height="51" viewBox="0 0 39 51" fill="none" xmlns="http://www.w3.org/2000/svg">
<path d="M13.5 0.5H16.5V6.38236H13.5V0.5Z" fill="white"/>
<path d="M19.4932 6.53906L23.7352 2.38024L25.8562 4.45965L21.6142 8.61848L19.4932 6.53906Z" fill="white"/>
<path d="M4.1377 4.45801L6.2587 2.37859L10.5007 6.53742L8.3797 8.61683L4.1377 4.45801Z" fill="white"/>
<path d="M38.1213 28.6937C36.95 27.5453 35.0512 27.5451 33.8795 28.6928L34.9394 27.6537C36.111 26.5052 36.111 24.6429 34.9394 23.4943C33.7681 22.3458 31.8691 22.3457 30.6975 23.4935L31.7575 22.4543C32.929 21.3057 32.929 19.4435 31.7575 18.2949C30.5862 17.1464 28.6873 17.1462 27.5157 18.294L36 9.97604C37.1716 8.82751 37.1716 6.96525 36 5.81662C34.8284 4.6679 32.9289 4.6679 31.7574 5.81662L12.7279 24.5036C12.7279 24.5036 6.5053 13.9663 1.0606 19.3044L0 20.3442L3.5355 23.8104C6.8549 27.0647 6.8549 32.3411 3.5355 35.5955L2.1212 36.9819L15.9099 50.5002L19.0919 47.3806L24.5481 45.0881C25.8484 44.5417 27.0304 43.7572 28.0307 42.7764L38.1213 32.8531C39.2929 31.7045 39.2929 29.8423 38.1213 28.6937Z" fill="white"/>
</svg>
