<svg width="72" height="47" viewBox="0 0 72 47" fill="none" xmlns="http://www.w3.org/2000/svg">
<path d="M2.4222 32.1926V33H1.6148V32.1926H2.4222ZM2.4222 31.3852V32.1926H1.6148V31.3852H2.4222ZM2.4222 30.5778V31.3852H1.6148V30.5778H2.4222ZM2.4222 29.7704V30.5778H1.6148V29.7704H2.4222ZM2.4222 28.963V29.7704H1.6148V28.963H2.4222ZM2.4222 28.1556V28.963H1.6148V28.1556H2.4222ZM2.4222 27.3482V28.1556H1.6148V27.3482H2.4222ZM2.4222 26.5408V27.3482H1.6148V26.5408H2.4222ZM2.4222 25.7334V26.5408H1.6148V25.7334H2.4222ZM2.4222 24.926V25.7334H1.6148V24.926H2.4222ZM2.4222 24.1186V24.926H1.6148V24.1186H2.4222ZM2.4222 23.3112V24.1186H1.6148V23.3112H2.4222ZM2.4222 22.5038V23.3112H1.6148V22.5038H2.4222ZM2.4222 21.6964V22.5038H1.6148V21.6964H2.4222ZM2.4222 20.889V21.6964H1.6148V20.889H2.4222ZM3.2296 20.889V21.6964H2.4222V20.889H3.2296ZM3.2296 21.6964V22.5038H2.4222V21.6964H3.2296ZM3.2296 22.5038V23.3112H2.4222V22.5038H3.2296ZM3.2296 23.3112V24.1186H2.4222V23.3112H3.2296ZM3.2296 24.1186V24.926H2.4222V24.1186H3.2296ZM3.2296 24.926V25.7334H2.4222V24.926H3.2296ZM3.2296 25.7334V26.5408H2.4222V25.7334H3.2296ZM4.03701 26.5408V27.3482H3.2296V26.5408H4.03701ZM4.03701 27.3482V28.1556H3.2296V27.3482H4.03701ZM4.03701 28.1556V28.963H3.2296V28.1556H4.03701ZM4.03701 28.963V29.7704H3.2296V28.963H4.03701ZM4.03701 29.7704V30.5778H3.2296V29.7704H4.03701ZM4.03701 30.5778V31.3852H3.2296V30.5778H4.03701ZM4.03701 31.3852V32.1926H3.2296V31.3852H4.03701ZM4.03701 32.1926V33H3.2296V32.1926H4.03701ZM4.84441 32.1926V33H4.03701V32.1926H4.84441ZM5.65181 32.1926V33H4.84441V32.1926H5.65181ZM5.65181 31.3852V32.1926H4.84441V31.3852H5.65181ZM5.65181 30.5778V31.3852H4.84441V30.5778H5.65181ZM5.65181 29.7704V30.5778H4.84441V29.7704H5.65181ZM5.65181 28.963V29.7704H4.84441V28.963H5.65181ZM5.65181 28.1556V28.963H4.84441V28.1556H5.65181ZM5.65181 27.3482V28.1556H4.84441V27.3482H5.65181ZM5.65181 26.5408V27.3482H4.84441V26.5408H5.65181ZM4.84441 26.5408V27.3482H4.03701V26.5408H4.84441ZM4.84441 25.7334V26.5408H4.03701V25.7334H4.84441ZM4.84441 27.3482V28.1556H4.03701V27.3482H4.84441ZM4.84441 28.1556V28.963H4.03701V28.1556H4.84441ZM4.84441 28.963V29.7704H4.03701V28.963H4.84441ZM4.84441 29.7704V30.5778H4.03701V29.7704H4.84441ZM4.84441 30.5778V31.3852H4.03701V30.5778H4.84441ZM4.84441 31.3852V32.1926H4.03701V31.3852H4.84441ZM3.2296 32.1926V33H2.4222V32.1926H3.2296ZM3.2296 31.3852V32.1926H2.4222V31.3852H3.2296ZM3.2296 30.5778V31.3852H2.4222V30.5778H3.2296ZM3.2296 29.7704V30.5778H2.4222V29.7704H3.2296ZM3.2296 28.963V29.7704H2.4222V28.963H3.2296ZM3.2296 28.1556V28.963H2.4222V28.1556H3.2296ZM3.2296 27.3482V28.1556H2.4222V27.3482H3.2296ZM3.2296 26.5408V27.3482H2.4222V26.5408H3.2296ZM2.4222 12.815V13.6224H1.6148V12.815H2.4222ZM2.4222 13.6224V14.4298H1.6148V13.6224H2.4222ZM2.4222 14.4298V15.2372H1.6148V14.4298H2.4222ZM2.4222 15.2372V16.0446H1.6148V15.2372H2.4222ZM2.4222 16.0446V16.852H1.6148V16.0446H2.4222ZM2.4222 16.852V17.6594H1.6148V16.852H2.4222ZM2.4222 17.6594V18.4668H1.6148V17.6594H2.4222ZM2.4222 18.4668V19.2742H1.6148V18.4668H2.4222ZM2.4222 19.2742V20.0816H1.6148V19.2742H2.4222ZM2.4222 20.0816V20.889H1.6148V20.0816H2.4222ZM4.84441 12.815V13.6224H4.03701V12.815H4.84441ZM4.84441 13.6224V14.4298H4.03701V13.6224H4.84441ZM4.84441 14.4298V15.2372H4.03701V14.4298H4.84441ZM4.84441 15.2372V16.0446H4.03701V15.2372H4.84441ZM4.84441 16.0446V16.852H4.03701V16.0446H4.84441ZM4.84441 16.852V17.6594H4.03701V16.852H4.84441ZM4.84441 18.4668V19.2742H4.03701V18.4668H4.84441ZM4.84441 19.2742V20.0816H4.03701V19.2742H4.84441ZM4.84441 20.0816V20.889H4.03701V20.0816H4.84441ZM4.84441 20.889V21.6964H4.03701V20.889H4.84441ZM4.84441 21.6964V22.5038H4.03701V21.6964H4.84441ZM4.84441 22.5038V23.3112H4.03701V22.5038H4.84441ZM4.84441 23.3112V24.1186H4.03701V23.3112H4.84441ZM5.65181 24.1186V24.926H4.84441V24.1186H5.65181ZM5.65181 24.926V25.7334H4.84441V24.926H5.65181ZM5.65181 25.7334V26.5408H4.84441V25.7334H5.65181ZM5.65181 23.3112V24.1186H4.84441V23.3112H5.65181ZM5.65181 22.5038V23.3112H4.84441V22.5038H5.65181ZM5.65181 21.6964V22.5038H4.84441V21.6964H5.65181ZM5.65181 20.889V21.6964H4.84441V20.889H5.65181ZM5.65181 20.0816V20.889H4.84441V20.0816H5.65181ZM5.65181 19.2742V20.0816H4.84441V19.2742H5.65181ZM5.65181 18.4668V19.2742H4.84441V18.4668H5.65181ZM5.65181 17.6594V18.4668H4.84441V17.6594H5.65181ZM5.65181 16.852V17.6594H4.84441V16.852H5.65181ZM5.65181 16.0446V16.852H4.84441V16.0446H5.65181ZM4.84441 17.6594V18.4668H4.03701V17.6594H4.84441ZM5.65181 15.2372V16.0446H4.84441V15.2372H5.65181ZM5.65181 14.4298V15.2372H4.84441V14.4298H5.65181ZM5.65181 13.6224V14.4298H4.84441V13.6224H5.65181ZM5.65181 12.815V13.6224H4.84441V12.815H5.65181ZM4.03701 12.815V13.6224H3.2296V12.815H4.03701ZM3.2296 12.815V13.6224H2.4222V12.815H3.2296ZM3.2296 13.6224V14.4298H2.4222V13.6224H3.2296ZM4.03701 13.6224V14.4298H3.2296V13.6224H4.03701ZM4.03701 14.4298V15.2372H3.2296V14.4298H4.03701ZM4.03701 15.2372V16.0446H3.2296V15.2372H4.03701ZM4.03701 16.0446V16.852H3.2296V16.0446H4.03701ZM4.03701 16.852V17.6594H3.2296V16.852H4.03701ZM4.03701 17.6594V18.4668H3.2296V17.6594H4.03701ZM4.03701 18.4668V19.2742H3.2296V18.4668H4.03701ZM3.2296 19.2742V20.0816H2.4222V19.2742H3.2296ZM3.2296 20.0816V20.889H2.4222V20.0816H3.2296ZM3.2296 18.4668V19.2742H2.4222V18.4668H3.2296ZM3.2296 17.6594V18.4668H2.4222V17.6594H3.2296ZM3.2296 16.852V17.6594H2.4222V16.852H3.2296ZM3.2296 16.0446V16.852H2.4222V16.0446H3.2296ZM3.2296 15.2372V16.0446H2.4222V15.2372H3.2296ZM3.2296 14.4298V15.2372H2.4222V14.4298H3.2296ZM4.03701 19.2742V20.0816H3.2296V19.2742H4.03701ZM4.03701 20.0816V20.889H3.2296V20.0816H4.03701ZM4.03701 20.889V21.6964H3.2296V20.889H4.03701ZM4.03701 21.6964V22.5038H3.2296V21.6964H4.03701ZM4.03701 22.5038V23.3112H3.2296V22.5038H4.03701ZM4.03701 23.3112V24.1186H3.2296V23.3112H4.03701ZM4.03701 24.1186V24.926H3.2296V24.1186H4.03701ZM4.03701 24.926V25.7334H3.2296V24.926H4.03701ZM4.03701 25.7334V26.5408H3.2296V25.7334H4.03701ZM4.84441 24.926V25.7334H4.03701V24.926H4.84441ZM4.84441 24.1186V24.926H4.03701V24.1186H4.84441ZM6.45921 22.5038V23.3112H5.65181V22.5038H6.45921ZM7.26661 22.5038V23.3112H6.45921V22.5038H7.26661ZM7.26661 23.3112V24.1186H6.45921V23.3112H7.26661ZM6.45921 23.3112V24.1186H5.65181V23.3112H6.45921ZM6.45921 20.889V21.6964H5.65181V20.889H6.45921ZM7.26661 20.889V21.6964H6.45921V20.889H7.26661ZM6.45921 24.1186V24.926H5.65181V24.1186H6.45921ZM7.26661 24.1186V24.926H6.45921V24.1186H7.26661ZM7.26661 21.6964V22.5038H6.45921V21.6964H7.26661ZM6.45921 21.6964V22.5038H5.65181V21.6964H6.45921ZM6.45921 12.815V13.6224H5.65181V12.815H6.45921ZM7.26661 12.815V13.6224H6.45921V12.815H7.26661ZM7.26661 13.6224V14.4298H6.45921V13.6224H7.26661ZM6.45921 13.6224V14.4298H5.65181V13.6224H6.45921ZM6.45921 14.4298V15.2372H5.65181V14.4298H6.45921ZM7.26661 14.4298V15.2372H6.45921V14.4298H7.26661ZM7.26661 15.2372V16.0446H6.45921V15.2372H7.26661ZM6.45921 15.2372V16.0446H5.65181V15.2372H6.45921ZM6.45921 16.0446V16.852H5.65181V16.0446H6.45921ZM7.26661 16.0446V16.852H6.45921V16.0446H7.26661ZM8.07401 20.889V21.6964H7.26661V20.889H8.07401ZM8.88141 20.889V21.6964H8.07401V20.889H8.88141ZM9.68881 20.889V21.6964H8.88141V20.889H9.68881ZM9.68881 16.0446V16.852H8.88141V16.0446H9.68881ZM8.88141 16.0446V16.852H8.07401V16.0446H8.88141ZM8.07401 16.0446V16.852H7.26661V16.0446H8.07401ZM8.07401 12.815V13.6224H7.26661V12.815H8.07401ZM8.88141 12.815V13.6224H8.07401V12.815H8.88141ZM9.68881 12.815V13.6224H8.88141V12.815H9.68881ZM9.68881 15.2372V16.0446H8.88141V15.2372H9.68881ZM9.68881 14.4298V15.2372H8.88141V14.4298H9.68881ZM8.88141 14.4298V15.2372H8.07401V14.4298H8.88141ZM8.07401 14.4298V15.2372H7.26661V14.4298H8.07401ZM8.07401 13.6224V14.4298H7.26661V13.6224H8.07401ZM8.88141 13.6224V14.4298H8.07401V13.6224H8.88141ZM9.68881 13.6224V14.4298H8.88141V13.6224H9.68881ZM8.07401 15.2372V16.0446H7.26661V15.2372H8.07401ZM8.88141 15.2372V16.0446H8.07401V15.2372H8.88141ZM9.68881 22.5038V23.3112H8.88141V22.5038H9.68881ZM8.88141 22.5038V23.3112H8.07401V22.5038H8.88141ZM8.07401 22.5038V23.3112H7.26661V22.5038H8.07401ZM8.07401 21.6964V22.5038H7.26661V21.6964H8.07401ZM8.88141 21.6964V22.5038H8.07401V21.6964H8.88141ZM9.68881 21.6964V22.5038H8.88141V21.6964H9.68881ZM8.07401 23.3112V24.1186H7.26661V23.3112H8.07401ZM8.88141 23.3112V24.1186H8.07401V23.3112H8.88141ZM9.68881 23.3112V24.1186H8.88141V23.3112H9.68881ZM9.68881 24.1186V24.926H8.88141V24.1186H9.68881ZM8.88141 24.1186V24.926H8.07401V24.1186H8.88141ZM8.07401 24.1186V24.926H7.26661V24.1186H8.07401ZM14.5332 16.0446V16.852H13.7258V16.0446H14.5332ZM10.4962 12.815V13.6224H9.68881V12.815H10.4962ZM11.3036 12.815V13.6224H10.4962V12.815H11.3036ZM12.111 12.815V13.6224H11.3036V12.815H12.111ZM12.9184 12.815V13.6224H12.111V12.815H12.9184ZM13.7258 12.815V13.6224H12.9184V12.815H13.7258ZM13.7258 13.6224V14.4298H12.9184V13.6224H13.7258ZM14.5332 13.6224V14.4298H13.7258V13.6224H14.5332ZM14.5332 14.4298V15.2372H13.7258V14.4298H14.5332ZM14.5332 12.815V13.6224H13.7258V12.815H14.5332ZM14.5332 15.2372V16.0446H13.7258V15.2372H14.5332ZM13.7258 15.2372V16.0446H12.9184V15.2372H13.7258ZM12.9184 15.2372V16.0446H12.111V15.2372H12.9184ZM12.111 15.2372V16.0446H11.3036V15.2372H12.111ZM11.3036 15.2372V16.0446H10.4962V15.2372H11.3036ZM10.4962 15.2372V16.0446H9.68881V15.2372H10.4962ZM10.4962 14.4298V15.2372H9.68881V14.4298H10.4962ZM10.4962 13.6224V14.4298H9.68881V13.6224H10.4962ZM11.3036 13.6224V14.4298H10.4962V13.6224H11.3036ZM12.111 13.6224V14.4298H11.3036V13.6224H12.111ZM12.9184 13.6224V14.4298H12.111V13.6224H12.9184ZM12.9184 14.4298V15.2372H12.111V14.4298H12.9184ZM13.7258 14.4298V15.2372H12.9184V14.4298H13.7258ZM12.111 14.4298V15.2372H11.3036V14.4298H12.111ZM11.3036 14.4298V15.2372H10.4962V14.4298H11.3036ZM10.4962 16.0446V16.852H9.68881V16.0446H10.4962ZM11.3036 16.0446V16.852H10.4962V16.0446H11.3036ZM12.111 16.0446V16.852H11.3036V16.0446H12.111ZM12.9184 16.0446V16.852H12.111V16.0446H12.9184ZM13.7258 16.0446V16.852H12.9184V16.0446H13.7258ZM10.4962 20.889V21.6964H9.68881V20.889H10.4962ZM10.4962 21.6964V22.5038H9.68881V21.6964H10.4962ZM10.4962 22.5038V23.3112H9.68881V22.5038H10.4962ZM10.4962 23.3112V24.1186H9.68881V23.3112H10.4962ZM11.3036 23.3112V24.1186H10.4962V23.3112H11.3036ZM11.3036 24.1186V24.926H10.4962V24.1186H11.3036ZM10.4962 24.1186V24.926H9.68881V24.1186H10.4962ZM11.3036 20.889V21.6964H10.4962V20.889H11.3036ZM11.3036 21.6964V22.5038H10.4962V21.6964H11.3036ZM11.3036 22.5038V23.3112H10.4962V22.5038H11.3036ZM12.111 22.5038V23.3112H11.3036V22.5038H12.111ZM12.9184 22.5038V23.3112H12.111V22.5038H12.9184ZM12.9184 21.6964V22.5038H12.111V21.6964H12.9184ZM12.9184 20.889V21.6964H12.111V20.889H12.9184ZM12.111 20.889V21.6964H11.3036V20.889H12.111ZM12.111 21.6964V22.5038H11.3036V21.6964H12.111ZM12.111 23.3112V24.1186H11.3036V23.3112H12.111ZM12.111 24.1186V24.926H11.3036V24.1186H12.111ZM12.9184 24.1186V24.926H12.111V24.1186H12.9184ZM12.9184 23.3112V24.1186H12.111V23.3112H12.9184ZM16.9696 32.1926V33H16.1622V32.1926H16.9696ZM16.9696 31.3852V32.1926H16.1622V31.3852H16.9696ZM16.9696 30.5778V31.3852H16.1622V30.5778H16.9696ZM16.9696 29.7704V30.5778H16.1622V29.7704H16.9696ZM16.9696 28.963V29.7704H16.1622V28.963H16.9696ZM16.9696 28.1556V28.963H16.1622V28.1556H16.9696ZM16.9696 27.3482V28.1556H16.1622V27.3482H16.9696ZM16.9696 26.5408V27.3482H16.1622V26.5408H16.9696ZM16.9696 25.7334V26.5408H16.1622V25.7334H16.9696ZM16.9696 24.926V25.7334H16.1622V24.926H16.9696ZM16.9696 24.1186V24.926H16.1622V24.1186H16.9696ZM16.9696 23.3112V24.1186H16.1622V23.3112H16.9696ZM16.9696 22.5038V23.3112H16.1622V22.5038H16.9696ZM16.9696 21.6964V22.5038H16.1622V21.6964H16.9696ZM16.9696 20.889V21.6964H16.1622V20.889H16.9696ZM17.777 20.889V21.6964H16.9696V20.889H17.777ZM17.777 21.6964V22.5038H16.9696V21.6964H17.777ZM17.777 22.5038V23.3112H16.9696V22.5038H17.777ZM17.777 23.3112V24.1186H16.9696V23.3112H17.777ZM17.777 24.1186V24.926H16.9696V24.1186H17.777ZM17.777 24.926V25.7334H16.9696V24.926H17.777ZM17.777 25.7334V26.5408H16.9696V25.7334H17.777ZM18.5844 26.5408V27.3482H17.777V26.5408H18.5844ZM18.5844 27.3482V28.1556H17.777V27.3482H18.5844ZM18.5844 28.1556V28.963H17.777V28.1556H18.5844ZM18.5844 28.963V29.7704H17.777V28.963H18.5844ZM18.5844 29.7704V30.5778H17.777V29.7704H18.5844ZM18.5844 30.5778V31.3852H17.777V30.5778H18.5844ZM18.5844 31.3852V32.1926H17.777V31.3852H18.5844ZM18.5844 32.1926V33H17.777V32.1926H18.5844ZM19.3918 32.1926V33H18.5844V32.1926H19.3918ZM20.1992 32.1926V33H19.3918V32.1926H20.1992ZM20.1992 31.3852V32.1926H19.3918V31.3852H20.1992ZM20.1992 30.5778V31.3852H19.3918V30.5778H20.1992ZM20.1992 29.7704V30.5778H19.3918V29.7704H20.1992ZM20.1992 28.963V29.7704H19.3918V28.963H20.1992ZM20.1992 28.1556V28.963H19.3918V28.1556H20.1992ZM20.1992 27.3482V28.1556H19.3918V27.3482H20.1992ZM20.1992 26.5408V27.3482H19.3918V26.5408H20.1992ZM19.3918 26.5408V27.3482H18.5844V26.5408H19.3918ZM19.3918 25.7334V26.5408H18.5844V25.7334H19.3918ZM19.3918 27.3482V28.1556H18.5844V27.3482H19.3918ZM19.3918 28.1556V28.963H18.5844V28.1556H19.3918ZM19.3918 28.963V29.7704H18.5844V28.963H19.3918ZM19.3918 29.7704V30.5778H18.5844V29.7704H19.3918ZM19.3918 30.5778V31.3852H18.5844V30.5778H19.3918ZM19.3918 31.3852V32.1926H18.5844V31.3852H19.3918ZM17.777 32.1926V33H16.9696V32.1926H17.777ZM17.777 31.3852V32.1926H16.9696V31.3852H17.777ZM17.777 30.5778V31.3852H16.9696V30.5778H17.777ZM17.777 29.7704V30.5778H16.9696V29.7704H17.777ZM17.777 28.963V29.7704H16.9696V28.963H17.777ZM17.777 28.1556V28.963H16.9696V28.1556H17.777ZM17.777 27.3482V28.1556H16.9696V27.3482H17.777ZM17.777 26.5408V27.3482H16.9696V26.5408H17.777ZM16.9696 18.4668V19.2742H16.1622V18.4668H16.9696ZM16.9696 19.2742V20.0816H16.1622V19.2742H16.9696ZM16.9696 20.0816V20.889H16.1622V20.0816H16.9696ZM19.3918 16.852V17.6594H18.5844V16.852H19.3918ZM19.3918 18.4668V19.2742H18.5844V18.4668H19.3918ZM19.3918 19.2742V20.0816H18.5844V19.2742H19.3918ZM19.3918 20.0816V20.889H18.5844V20.0816H19.3918ZM19.3918 20.889V21.6964H18.5844V20.889H19.3918ZM19.3918 21.6964V22.5038H18.5844V21.6964H19.3918ZM19.3918 22.5038V23.3112H18.5844V22.5038H19.3918ZM19.3918 23.3112V24.1186H18.5844V23.3112H19.3918ZM20.1992 24.1186V24.926H19.3918V24.1186H20.1992ZM20.1992 24.926V25.7334H19.3918V24.926H20.1992ZM20.1992 25.7334V26.5408H19.3918V25.7334H20.1992ZM20.1992 23.3112V24.1186H19.3918V23.3112H20.1992ZM20.1992 22.5038V23.3112H19.3918V22.5038H20.1992ZM20.1992 21.6964V22.5038H19.3918V21.6964H20.1992ZM20.1992 20.889V21.6964H19.3918V20.889H20.1992ZM20.1992 20.0816V20.889H19.3918V20.0816H20.1992ZM20.1992 19.2742V20.0816H19.3918V19.2742H20.1992ZM20.1992 18.4668V19.2742H19.3918V18.4668H20.1992ZM20.1992 17.6594V18.4668H19.3918V17.6594H20.1992ZM20.1992 16.852V17.6594H19.3918V16.852H20.1992ZM20.1992 16.0446V16.852H19.3918V16.0446H20.1992ZM19.3918 17.6594V18.4668H18.5844V17.6594H19.3918ZM20.1992 15.2372V16.0446H19.3918V15.2372H20.1992ZM20.1992 14.4298V15.2372H19.3918V14.4298H20.1992ZM18.5844 16.852V17.6594H17.777V16.852H18.5844ZM18.5844 17.6594V18.4668H17.777V17.6594H18.5844ZM18.5844 18.4668V19.2742H17.777V18.4668H18.5844ZM17.777 19.2742V20.0816H16.9696V19.2742H17.777ZM17.777 20.0816V20.889H16.9696V20.0816H17.777ZM17.777 18.4668V19.2742H16.9696V18.4668H17.777ZM17.777 17.6594V18.4668H16.9696V17.6594H17.777ZM18.5844 19.2742V20.0816H17.777V19.2742H18.5844ZM18.5844 20.0816V20.889H17.777V20.0816H18.5844ZM18.5844 20.889V21.6964H17.777V20.889H18.5844ZM18.5844 21.6964V22.5038H17.777V21.6964H18.5844ZM18.5844 22.5038V23.3112H17.777V22.5038H18.5844ZM18.5844 23.3112V24.1186H17.777V23.3112H18.5844ZM18.5844 24.1186V24.926H17.777V24.1186H18.5844ZM18.5844 24.926V25.7334H17.777V24.926H18.5844ZM18.5844 25.7334V26.5408H17.777V25.7334H18.5844ZM19.3918 24.926V25.7334H18.5844V24.926H19.3918ZM19.3918 24.1186V24.926H18.5844V24.1186H19.3918ZM25.851 32.1926V33H25.0436V32.1926H25.851ZM25.851 31.3852V32.1926H25.0436V31.3852H25.851ZM25.851 30.5778V31.3852H25.0436V30.5778H25.851ZM25.851 29.7704V30.5778H25.0436V29.7704H25.851ZM25.851 28.963V29.7704H25.0436V28.963H25.851ZM25.851 28.1556V28.963H25.0436V28.1556H25.851ZM25.851 27.3482V28.1556H25.0436V27.3482H25.851ZM25.851 26.5408V27.3482H25.0436V26.5408H25.851ZM25.851 25.7334V26.5408H25.0436V25.7334H25.851ZM25.851 24.926V25.7334H25.0436V24.926H25.851ZM25.851 24.1186V24.926H25.0436V24.1186H25.851ZM25.851 23.3112V24.1186H25.0436V23.3112H25.851ZM25.851 22.5038V23.3112H25.0436V22.5038H25.851ZM25.851 21.6964V22.5038H25.0436V21.6964H25.851ZM25.851 20.889V21.6964H25.0436V20.889H25.851ZM26.6584 20.889V21.6964H25.851V20.889H26.6584ZM26.6584 21.6964V22.5038H25.851V21.6964H26.6584ZM26.6584 22.5038V23.3112H25.851V22.5038H26.6584ZM26.6584 23.3112V24.1186H25.851V23.3112H26.6584ZM26.6584 24.1186V24.926H25.851V24.1186H26.6584ZM26.6584 24.926V25.7334H25.851V24.926H26.6584ZM26.6584 25.7334V26.5408H25.851V25.7334H26.6584ZM27.4658 26.5408V27.3482H26.6584V26.5408H27.4658ZM27.4658 27.3482V28.1556H26.6584V27.3482H27.4658ZM27.4658 28.1556V28.963H26.6584V28.1556H27.4658ZM27.4658 28.963V29.7704H26.6584V28.963H27.4658ZM27.4658 29.7704V30.5778H26.6584V29.7704H27.4658ZM27.4658 30.5778V31.3852H26.6584V30.5778H27.4658ZM27.4658 31.3852V32.1926H26.6584V31.3852H27.4658ZM27.4658 32.1926V33H26.6584V32.1926H27.4658ZM28.2732 32.1926V33H27.4658V32.1926H28.2732ZM29.0806 32.1926V33H28.2732V32.1926H29.0806ZM29.0806 31.3852V32.1926H28.2732V31.3852H29.0806ZM29.0806 30.5778V31.3852H28.2732V30.5778H29.0806ZM29.0806 29.7704V30.5778H28.2732V29.7704H29.0806ZM29.0806 28.963V29.7704H28.2732V28.963H29.0806ZM29.0806 28.1556V28.963H28.2732V28.1556H29.0806ZM29.0806 27.3482V28.1556H28.2732V27.3482H29.0806ZM29.0806 26.5408V27.3482H28.2732V26.5408H29.0806ZM28.2732 26.5408V27.3482H27.4658V26.5408H28.2732ZM28.2732 25.7334V26.5408H27.4658V25.7334H28.2732ZM28.2732 27.3482V28.1556H27.4658V27.3482H28.2732ZM28.2732 28.1556V28.963H27.4658V28.1556H28.2732ZM28.2732 28.963V29.7704H27.4658V28.963H28.2732ZM28.2732 29.7704V30.5778H27.4658V29.7704H28.2732ZM28.2732 30.5778V31.3852H27.4658V30.5778H28.2732ZM28.2732 31.3852V32.1926H27.4658V31.3852H28.2732ZM26.6584 32.1926V33H25.851V32.1926H26.6584ZM26.6584 31.3852V32.1926H25.851V31.3852H26.6584ZM26.6584 30.5778V31.3852H25.851V30.5778H26.6584ZM26.6584 29.7704V30.5778H25.851V29.7704H26.6584ZM26.6584 28.963V29.7704H25.851V28.963H26.6584ZM26.6584 28.1556V28.963H25.851V28.1556H26.6584ZM26.6584 27.3482V28.1556H25.851V27.3482H26.6584ZM26.6584 26.5408V27.3482H25.851V26.5408H26.6584ZM25.851 14.4298V15.2372H25.0436V14.4298H25.851ZM25.851 15.2372V16.0446H25.0436V15.2372H25.851ZM25.851 16.0446V16.852H25.0436V16.0446H25.851ZM25.851 16.852V17.6594H25.0436V16.852H25.851ZM25.851 17.6594V18.4668H25.0436V17.6594H25.851ZM25.851 18.4668V19.2742H25.0436V18.4668H25.851ZM25.851 19.2742V20.0816H25.0436V19.2742H25.851ZM25.851 20.0816V20.889H25.0436V20.0816H25.851ZM28.2732 16.852V17.6594H27.4658V16.852H28.2732ZM28.2732 18.4668V19.2742H27.4658V18.4668H28.2732ZM28.2732 19.2742V20.0816H27.4658V19.2742H28.2732ZM28.2732 20.0816V20.889H27.4658V20.0816H28.2732ZM28.2732 20.889V21.6964H27.4658V20.889H28.2732ZM28.2732 21.6964V22.5038H27.4658V21.6964H28.2732ZM28.2732 22.5038V23.3112H27.4658V22.5038H28.2732ZM28.2732 23.3112V24.1186H27.4658V23.3112H28.2732ZM29.0806 24.1186V24.926H28.2732V24.1186H29.0806ZM29.0806 24.926V25.7334H28.2732V24.926H29.0806ZM29.0806 25.7334V26.5408H28.2732V25.7334H29.0806ZM29.0806 23.3112V24.1186H28.2732V23.3112H29.0806ZM29.0806 22.5038V23.3112H28.2732V22.5038H29.0806ZM29.0806 21.6964V22.5038H28.2732V21.6964H29.0806ZM29.0806 20.889V21.6964H28.2732V20.889H29.0806ZM29.0806 20.0816V20.889H28.2732V20.0816H29.0806ZM29.0806 19.2742V20.0816H28.2732V19.2742H29.0806ZM29.0806 18.4668V19.2742H28.2732V18.4668H29.0806ZM29.0806 17.6594V18.4668H28.2732V17.6594H29.0806ZM28.2732 17.6594V18.4668H27.4658V17.6594H28.2732ZM27.4658 16.0446V16.852H26.6584V16.0446H27.4658ZM27.4658 16.852V17.6594H26.6584V16.852H27.4658ZM27.4658 17.6594V18.4668H26.6584V17.6594H27.4658ZM27.4658 18.4668V19.2742H26.6584V18.4668H27.4658ZM26.6584 19.2742V20.0816H25.851V19.2742H26.6584ZM26.6584 20.0816V20.889H25.851V20.0816H26.6584ZM26.6584 18.4668V19.2742H25.851V18.4668H26.6584ZM26.6584 17.6594V18.4668H25.851V17.6594H26.6584ZM26.6584 16.852V17.6594H25.851V16.852H26.6584ZM26.6584 16.0446V16.852H25.851V16.0446H26.6584ZM26.6584 15.2372V16.0446H25.851V15.2372H26.6584ZM27.4658 19.2742V20.0816H26.6584V19.2742H27.4658ZM27.4658 20.0816V20.889H26.6584V20.0816H27.4658ZM27.4658 20.889V21.6964H26.6584V20.889H27.4658ZM27.4658 21.6964V22.5038H26.6584V21.6964H27.4658ZM27.4658 22.5038V23.3112H26.6584V22.5038H27.4658ZM27.4658 23.3112V24.1186H26.6584V23.3112H27.4658ZM27.4658 24.1186V24.926H26.6584V24.1186H27.4658ZM27.4658 24.926V25.7334H26.6584V24.926H27.4658ZM27.4658 25.7334V26.5408H26.6584V25.7334H27.4658ZM28.2732 24.926V25.7334H27.4658V24.926H28.2732ZM28.2732 24.1186V24.926H27.4658V24.1186H28.2732ZM21.814 12.815V13.6224H21.0066V12.815H21.814ZM22.6214 12.815V13.6224H21.814V12.815H22.6214ZM23.4288 12.815V13.6224H22.6214V12.815H23.4288ZM24.2362 12.815V13.6224H23.4288V12.815H24.2362ZM25.0436 13.6224V14.4298H24.2362V13.6224H25.0436ZM24.2362 13.6224V14.4298H23.4288V13.6224H24.2362ZM23.4288 13.6224V14.4298H22.6214V13.6224H23.4288ZM22.6214 13.6224V14.4298H21.814V13.6224H22.6214ZM21.814 13.6224V14.4298H21.0066V13.6224H21.814ZM21.0066 13.6224V14.4298H20.1992V13.6224H21.0066ZM21.0066 14.4298V15.2372H20.1992V14.4298H21.0066ZM21.0066 15.2372V16.0446H20.1992V15.2372H21.0066ZM21.814 14.4298V15.2372H21.0066V14.4298H21.814ZM22.6214 14.4298V15.2372H21.814V14.4298H22.6214ZM23.4288 14.4298V15.2372H22.6214V14.4298H23.4288ZM24.2362 14.4298V15.2372H23.4288V14.4298H24.2362ZM25.0436 14.4298V15.2372H24.2362V14.4298H25.0436ZM25.0436 15.2372V16.0446H24.2362V15.2372H25.0436ZM24.2362 15.2372V16.0446H23.4288V15.2372H24.2362ZM23.4288 15.2372V16.0446H22.6214V15.2372H23.4288ZM22.6214 15.2372V16.0446H21.814V15.2372H22.6214ZM21.814 15.2372V16.0446H21.0066V15.2372H21.814ZM21.0066 16.0446V16.852H20.1992V16.0446H21.0066ZM21.814 16.0446V16.852H21.0066V16.0446H21.814ZM25.0436 16.0446V16.852H24.2362V16.0446H25.0436ZM24.2362 16.0446V16.852H23.4288V16.0446H24.2362ZM25.0436 16.852V17.6594H24.2362V16.852H25.0436ZM21.0066 16.852V17.6594H20.1992V16.852H21.0066ZM19.3918 15.2372V16.0446H18.5844V15.2372H19.3918ZM19.3918 16.0446V16.852H18.5844V16.0446H19.3918ZM18.5844 16.0446V16.852H17.777V16.0446H18.5844ZM17.777 16.852V17.6594H16.9696V16.852H17.777ZM16.9696 17.6594V18.4668H16.1622V17.6594H16.9696ZM21.0066 17.6594V18.4668H20.1992V17.6594H21.0066ZM21.814 16.852V17.6594H21.0066V16.852H21.814ZM22.6214 16.0446V16.852H21.814V16.0446H22.6214ZM23.4288 16.0446V16.852H22.6214V16.0446H23.4288ZM24.2362 16.852V17.6594H23.4288V16.852H24.2362ZM25.0436 17.6594V18.4668H24.2362V17.6594H25.0436ZM21.0066 27.3482V28.1556H20.1992V27.3482H21.0066ZM21.814 27.3482V28.1556H21.0066V27.3482H21.814ZM22.6214 27.3482V28.1556H21.814V27.3482H22.6214ZM23.4288 27.3482V28.1556H22.6214V27.3482H23.4288ZM24.2362 27.3482V28.1556H23.4288V27.3482H24.2362ZM25.0436 27.3482V28.1556H24.2362V27.3482H25.0436ZM25.0436 26.5408V27.3482H24.2362V26.5408H25.0436ZM24.2362 26.5408V27.3482H23.4288V26.5408H24.2362ZM23.4288 26.5408V27.3482H22.6214V26.5408H23.4288ZM22.6214 26.5408V27.3482H21.814V26.5408H22.6214ZM21.814 26.5408V27.3482H21.0066V26.5408H21.814ZM21.0066 26.5408V27.3482H20.1992V26.5408H21.0066ZM21.0066 25.7334V26.5408H20.1992V25.7334H21.0066ZM21.814 25.7334V26.5408H21.0066V25.7334H21.814ZM22.6214 25.7334V26.5408H21.814V25.7334H22.6214ZM23.4288 25.7334V26.5408H22.6214V25.7334H23.4288ZM24.2362 25.7334V26.5408H23.4288V25.7334H24.2362ZM25.0436 25.7334V26.5408H24.2362V25.7334H25.0436ZM25.0436 24.926V25.7334H24.2362V24.926H25.0436ZM24.2362 24.926V25.7334H23.4288V24.926H24.2362ZM23.4288 24.926V25.7334H22.6214V24.926H23.4288ZM22.6214 24.926V25.7334H21.814V24.926H22.6214ZM21.814 24.926V25.7334H21.0066V24.926H21.814ZM21.0066 24.926V25.7334H20.1992V24.926H21.0066ZM21.0066 24.1186V24.926H20.1992V24.1186H21.0066ZM21.814 24.1186V24.926H21.0066V24.1186H21.814ZM22.6214 24.1186V24.926H21.814V24.1186H22.6214ZM23.4288 24.1186V24.926H22.6214V24.1186H23.4288ZM24.2362 24.1186V24.926H23.4288V24.1186H24.2362ZM25.0436 24.1186V24.926H24.2362V24.1186H25.0436ZM22.6214 16.852V17.6594H21.814V16.852H22.6214ZM23.4288 16.852V17.6594H22.6214V16.852H23.4288ZM21.814 17.6594V18.4668H21.0066V17.6594H21.814ZM21.0066 18.4668V19.2742H20.1992V18.4668H21.0066ZM24.2362 17.6594V18.4668H23.4288V17.6594H24.2362ZM25.0436 18.4668V19.2742H24.2362V18.4668H25.0436ZM33.1334 32.1926V33H32.326V32.1926H33.1334ZM33.1334 31.3852V32.1926H32.326V31.3852H33.1334ZM33.1334 30.5778V31.3852H32.326V30.5778H33.1334ZM33.1334 29.7704V30.5778H32.326V29.7704H33.1334ZM33.1334 28.963V29.7704H32.326V28.963H33.1334ZM33.1334 28.1556V28.963H32.326V28.1556H33.1334ZM33.1334 27.3482V28.1556H32.326V27.3482H33.1334ZM33.1334 26.5408V27.3482H32.326V26.5408H33.1334ZM33.1334 25.7334V26.5408H32.326V25.7334H33.1334ZM33.1334 24.926V25.7334H32.326V24.926H33.1334ZM33.1334 24.1186V24.926H32.326V24.1186H33.1334ZM33.1334 23.3112V24.1186H32.326V23.3112H33.1334ZM33.1334 22.5038V23.3112H32.326V22.5038H33.1334ZM33.1334 21.6964V22.5038H32.326V21.6964H33.1334ZM33.1334 20.889V21.6964H32.326V20.889H33.1334ZM33.9408 20.889V21.6964H33.1334V20.889H33.9408ZM33.9408 21.6964V22.5038H33.1334V21.6964H33.9408ZM33.9408 22.5038V23.3112H33.1334V22.5038H33.9408ZM33.9408 23.3112V24.1186H33.1334V23.3112H33.9408ZM33.9408 24.1186V24.926H33.1334V24.1186H33.9408ZM33.9408 24.926V25.7334H33.1334V24.926H33.9408ZM33.9408 25.7334V26.5408H33.1334V25.7334H33.9408ZM34.7482 26.5408V27.3482H33.9408V26.5408H34.7482ZM34.7482 27.3482V28.1556H33.9408V27.3482H34.7482ZM34.7482 28.1556V28.963H33.9408V28.1556H34.7482ZM34.7482 28.963V29.7704H33.9408V28.963H34.7482ZM34.7482 29.7704V30.5778H33.9408V29.7704H34.7482ZM34.7482 30.5778V31.3852H33.9408V30.5778H34.7482ZM34.7482 31.3852V32.1926H33.9408V31.3852H34.7482ZM34.7482 32.1926V33H33.9408V32.1926H34.7482ZM35.5556 32.1926V33H34.7482V32.1926H35.5556ZM36.363 32.1926V33H35.5556V32.1926H36.363ZM36.363 31.3852V32.1926H35.5556V31.3852H36.363ZM36.363 30.5778V31.3852H35.5556V30.5778H36.363ZM36.363 29.7704V30.5778H35.5556V29.7704H36.363ZM36.363 28.963V29.7704H35.5556V28.963H36.363ZM36.363 28.1556V28.963H35.5556V28.1556H36.363ZM36.363 27.3482V28.1556H35.5556V27.3482H36.363ZM36.363 26.5408V27.3482H35.5556V26.5408H36.363ZM35.5556 26.5408V27.3482H34.7482V26.5408H35.5556ZM35.5556 25.7334V26.5408H34.7482V25.7334H35.5556ZM35.5556 27.3482V28.1556H34.7482V27.3482H35.5556ZM35.5556 28.1556V28.963H34.7482V28.1556H35.5556ZM35.5556 28.963V29.7704H34.7482V28.963H35.5556ZM35.5556 29.7704V30.5778H34.7482V29.7704H35.5556ZM35.5556 30.5778V31.3852H34.7482V30.5778H35.5556ZM35.5556 31.3852V32.1926H34.7482V31.3852H35.5556ZM33.9408 32.1926V33H33.1334V32.1926H33.9408ZM33.9408 31.3852V32.1926H33.1334V31.3852H33.9408ZM33.9408 30.5778V31.3852H33.1334V30.5778H33.9408ZM33.9408 29.7704V30.5778H33.1334V29.7704H33.9408ZM33.9408 28.963V29.7704H33.1334V28.963H33.9408ZM33.9408 28.1556V28.963H33.1334V28.1556H33.9408ZM33.9408 27.3482V28.1556H33.1334V27.3482H33.9408ZM33.9408 26.5408V27.3482H33.1334V26.5408H33.9408ZM33.1334 12.815V13.6224H32.326V12.815H33.1334ZM33.1334 13.6224V14.4298H32.326V13.6224H33.1334ZM33.1334 14.4298V15.2372H32.326V14.4298H33.1334ZM33.1334 15.2372V16.0446H32.326V15.2372H33.1334ZM33.1334 16.0446V16.852H32.326V16.0446H33.1334ZM33.1334 16.852V17.6594H32.326V16.852H33.1334ZM33.1334 17.6594V18.4668H32.326V17.6594H33.1334ZM33.1334 18.4668V19.2742H32.326V18.4668H33.1334ZM33.1334 19.2742V20.0816H32.326V19.2742H33.1334ZM33.1334 20.0816V20.889H32.326V20.0816H33.1334ZM35.5556 12.815V13.6224H34.7482V12.815H35.5556ZM35.5556 13.6224V14.4298H34.7482V13.6224H35.5556ZM35.5556 14.4298V15.2372H34.7482V14.4298H35.5556ZM35.5556 15.2372V16.0446H34.7482V15.2372H35.5556ZM35.5556 16.0446V16.852H34.7482V16.0446H35.5556ZM35.5556 16.852V17.6594H34.7482V16.852H35.5556ZM35.5556 18.4668V19.2742H34.7482V18.4668H35.5556ZM35.5556 19.2742V20.0816H34.7482V19.2742H35.5556ZM35.5556 20.0816V20.889H34.7482V20.0816H35.5556ZM35.5556 20.889V21.6964H34.7482V20.889H35.5556ZM35.5556 21.6964V22.5038H34.7482V21.6964H35.5556ZM35.5556 22.5038V23.3112H34.7482V22.5038H35.5556ZM35.5556 23.3112V24.1186H34.7482V23.3112H35.5556ZM36.363 24.1186V24.926H35.5556V24.1186H36.363ZM36.363 24.926V25.7334H35.5556V24.926H36.363ZM36.363 25.7334V26.5408H35.5556V25.7334H36.363ZM36.363 23.3112V24.1186H35.5556V23.3112H36.363ZM36.363 22.5038V23.3112H35.5556V22.5038H36.363ZM36.363 21.6964V22.5038H35.5556V21.6964H36.363ZM36.363 20.889V21.6964H35.5556V20.889H36.363ZM36.363 20.0816V20.889H35.5556V20.0816H36.363ZM36.363 19.2742V20.0816H35.5556V19.2742H36.363ZM36.363 18.4668V19.2742H35.5556V18.4668H36.363ZM36.363 17.6594V18.4668H35.5556V17.6594H36.363ZM36.363 16.852V17.6594H35.5556V16.852H36.363ZM36.363 16.0446V16.852H35.5556V16.0446H36.363ZM35.5556 17.6594V18.4668H34.7482V17.6594H35.5556ZM36.363 15.2372V16.0446H35.5556V15.2372H36.363ZM36.363 14.4298V15.2372H35.5556V14.4298H36.363ZM36.363 13.6224V14.4298H35.5556V13.6224H36.363ZM36.363 12.815V13.6224H35.5556V12.815H36.363ZM34.7482 12.815V13.6224H33.9408V12.815H34.7482ZM33.9408 12.815V13.6224H33.1334V12.815H33.9408ZM33.9408 13.6224V14.4298H33.1334V13.6224H33.9408ZM34.7482 13.6224V14.4298H33.9408V13.6224H34.7482ZM34.7482 14.4298V15.2372H33.9408V14.4298H34.7482ZM34.7482 15.2372V16.0446H33.9408V15.2372H34.7482ZM34.7482 16.0446V16.852H33.9408V16.0446H34.7482ZM34.7482 16.852V17.6594H33.9408V16.852H34.7482ZM34.7482 17.6594V18.4668H33.9408V17.6594H34.7482ZM34.7482 18.4668V19.2742H33.9408V18.4668H34.7482ZM33.9408 19.2742V20.0816H33.1334V19.2742H33.9408ZM33.9408 20.0816V20.889H33.1334V20.0816H33.9408ZM33.9408 18.4668V19.2742H33.1334V18.4668H33.9408ZM33.9408 17.6594V18.4668H33.1334V17.6594H33.9408ZM33.9408 16.852V17.6594H33.1334V16.852H33.9408ZM33.9408 16.0446V16.852H33.1334V16.0446H33.9408ZM33.9408 15.2372V16.0446H33.1334V15.2372H33.9408ZM33.9408 14.4298V15.2372H33.1334V14.4298H33.9408ZM34.7482 19.2742V20.0816H33.9408V19.2742H34.7482ZM34.7482 20.0816V20.889H33.9408V20.0816H34.7482ZM34.7482 20.889V21.6964H33.9408V20.889H34.7482ZM34.7482 21.6964V22.5038H33.9408V21.6964H34.7482ZM34.7482 22.5038V23.3112H33.9408V22.5038H34.7482ZM34.7482 23.3112V24.1186H33.9408V23.3112H34.7482ZM34.7482 24.1186V24.926H33.9408V24.1186H34.7482ZM34.7482 24.926V25.7334H33.9408V24.926H34.7482ZM34.7482 25.7334V26.5408H33.9408V25.7334H34.7482ZM35.5556 24.926V25.7334H34.7482V24.926H35.5556ZM35.5556 24.1186V24.926H34.7482V24.1186H35.5556ZM40.4071 28.963V29.7704H39.5997V28.963H40.4071ZM40.4071 28.1556V28.963H39.5997V28.1556H40.4071ZM40.4071 27.3482V28.1556H39.5997V27.3482H40.4071ZM40.4071 26.5408V27.3482H39.5997V26.5408H40.4071ZM40.4071 20.889V21.6964H39.5997V20.889H40.4071ZM41.2145 20.889V21.6964H40.4071V20.889H41.2145ZM41.2145 21.6964V22.5038H40.4071V21.6964H41.2145ZM41.2145 22.5038V23.3112H40.4071V22.5038H41.2145ZM42.0219 26.5408V27.3482H41.2145V26.5408H42.0219ZM42.0219 27.3482V28.1556H41.2145V27.3482H42.0219ZM42.0219 28.1556V28.963H41.2145V28.1556H42.0219ZM42.0219 28.963V29.7704H41.2145V28.963H42.0219ZM42.0219 29.7704V30.5778H41.2145V29.7704H42.0219ZM42.0219 30.5778V31.3852H41.2145V30.5778H42.0219ZM42.0219 31.3852V32.1926H41.2145V31.3852H42.0219ZM43.6367 32.1926V33H42.8293V32.1926H43.6367ZM43.6367 31.3852V32.1926H42.8293V31.3852H43.6367ZM43.6367 30.5778V31.3852H42.8293V30.5778H43.6367ZM43.6367 29.7704V30.5778H42.8293V29.7704H43.6367ZM43.6367 28.963V29.7704H42.8293V28.963H43.6367ZM43.6367 28.1556V28.963H42.8293V28.1556H43.6367ZM43.6367 27.3482V28.1556H42.8293V27.3482H43.6367ZM43.6367 26.5408V27.3482H42.8293V26.5408H43.6367ZM42.8293 26.5408V27.3482H42.0219V26.5408H42.8293ZM42.8293 27.3482V28.1556H42.0219V27.3482H42.8293ZM42.8293 28.1556V28.963H42.0219V28.1556H42.8293ZM42.8293 28.963V29.7704H42.0219V28.963H42.8293ZM42.8293 29.7704V30.5778H42.0219V29.7704H42.8293ZM42.8293 30.5778V31.3852H42.0219V30.5778H42.8293ZM42.8293 31.3852V32.1926H42.0219V31.3852H42.8293ZM41.2145 30.5778V31.3852H40.4071V30.5778H41.2145ZM41.2145 29.7704V30.5778H40.4071V29.7704H41.2145ZM41.2145 28.963V29.7704H40.4071V28.963H41.2145ZM41.2145 28.1556V28.963H40.4071V28.1556H41.2145ZM41.2145 27.3482V28.1556H40.4071V27.3482H41.2145ZM41.2145 26.5408V27.3482H40.4071V26.5408H41.2145ZM40.4071 20.0816V20.889H39.5997V20.0816H40.4071ZM42.8293 20.0816V20.889H42.0219V20.0816H42.8293ZM42.8293 20.889V21.6964H42.0219V20.889H42.8293ZM42.8293 21.6964V22.5038H42.0219V21.6964H42.8293ZM42.8293 22.5038V23.3112H42.0219V22.5038H42.8293ZM42.8293 23.3112V24.1186H42.0219V23.3112H42.8293ZM43.6367 24.1186V24.926H42.8293V24.1186H43.6367ZM43.6367 23.3112V24.1186H42.8293V23.3112H43.6367ZM43.6367 22.5038V23.3112H42.8293V22.5038H43.6367ZM43.6367 21.6964V22.5038H42.8293V21.6964H43.6367ZM43.6367 20.889V21.6964H42.8293V20.889H43.6367ZM43.6367 20.0816V20.889H42.8293V20.0816H43.6367ZM41.2145 20.0816V20.889H40.4071V20.0816H41.2145ZM42.0219 20.0816V20.889H41.2145V20.0816H42.0219ZM42.0219 20.889V21.6964H41.2145V20.889H42.0219ZM42.0219 21.6964V22.5038H41.2145V21.6964H42.0219ZM42.0219 22.5038V23.3112H41.2145V22.5038H42.0219ZM42.0219 23.3112V24.1186H41.2145V23.3112H42.0219ZM50.0959 32.1926V33H49.2885V32.1926H50.0959ZM50.0959 31.3852V32.1926H49.2885V31.3852H50.0959ZM50.0959 30.5778V31.3852H49.2885V30.5778H50.0959ZM50.0959 29.7704V30.5778H49.2885V29.7704H50.0959ZM50.0959 28.963V29.7704H49.2885V28.963H50.0959ZM50.0959 28.1556V28.963H49.2885V28.1556H50.0959ZM50.0959 27.3482V28.1556H49.2885V27.3482H50.0959ZM50.0959 26.5408V27.3482H49.2885V26.5408H50.0959ZM50.0959 25.7334V26.5408H49.2885V25.7334H50.0959ZM50.0959 24.926V25.7334H49.2885V24.926H50.0959ZM50.0959 24.1186V24.926H49.2885V24.1186H50.0959ZM50.0959 23.3112V24.1186H49.2885V23.3112H50.0959ZM50.0959 22.5038V23.3112H49.2885V22.5038H50.0959ZM50.0959 21.6964V22.5038H49.2885V21.6964H50.0959ZM50.0959 20.889V21.6964H49.2885V20.889H50.0959ZM50.9033 21.6964V22.5038H50.0959V21.6964H50.9033ZM50.9033 22.5038V23.3112H50.0959V22.5038H50.9033ZM50.9033 23.3112V24.1186H50.0959V23.3112H50.9033ZM50.9033 24.1186V24.926H50.0959V24.1186H50.9033ZM50.9033 24.926V25.7334H50.0959V24.926H50.9033ZM50.9033 25.7334V26.5408H50.0959V25.7334H50.9033ZM51.7107 26.5408V27.3482H50.9033V26.5408H51.7107ZM51.7107 27.3482V28.1556H50.9033V27.3482H51.7107ZM51.7107 28.1556V28.963H50.9033V28.1556H51.7107ZM51.7107 28.963V29.7704H50.9033V28.963H51.7107ZM51.7107 29.7704V30.5778H50.9033V29.7704H51.7107ZM51.7107 30.5778V31.3852H50.9033V30.5778H51.7107ZM51.7107 31.3852V32.1926H50.9033V31.3852H51.7107ZM53.3255 28.963V29.7704H52.5181V28.963H53.3255ZM53.3255 28.1556V28.963H52.5181V28.1556H53.3255ZM53.3255 27.3482V28.1556H52.5181V27.3482H53.3255ZM53.3255 26.5408V27.3482H52.5181V26.5408H53.3255ZM52.5181 26.5408V27.3482H51.7107V26.5408H52.5181ZM52.5181 25.7334V26.5408H51.7107V25.7334H52.5181ZM52.5181 27.3482V28.1556H51.7107V27.3482H52.5181ZM52.5181 28.1556V28.963H51.7107V28.1556H52.5181ZM52.5181 28.963V29.7704H51.7107V28.963H52.5181ZM52.5181 29.7704V30.5778H51.7107V29.7704H52.5181ZM52.5181 30.5778V31.3852H51.7107V30.5778H52.5181ZM50.9033 31.3852V32.1926H50.0959V31.3852H50.9033ZM50.9033 30.5778V31.3852H50.0959V30.5778H50.9033ZM50.9033 29.7704V30.5778H50.0959V29.7704H50.9033ZM50.9033 28.963V29.7704H50.0959V28.963H50.9033ZM50.9033 28.1556V28.963H50.0959V28.1556H50.9033ZM50.9033 27.3482V28.1556H50.0959V27.3482H50.9033ZM50.9033 26.5408V27.3482H50.0959V26.5408H50.9033ZM52.5181 23.3112V24.1186H51.7107V23.3112H52.5181ZM53.3255 24.1186V24.926H52.5181V24.1186H53.3255ZM53.3255 24.926V25.7334H52.5181V24.926H53.3255ZM53.3255 25.7334V26.5408H52.5181V25.7334H53.3255ZM51.7107 21.6964V22.5038H50.9033V21.6964H51.7107ZM51.7107 22.5038V23.3112H50.9033V22.5038H51.7107ZM51.7107 23.3112V24.1186H50.9033V23.3112H51.7107ZM51.7107 24.1186V24.926H50.9033V24.1186H51.7107ZM51.7107 24.926V25.7334H50.9033V24.926H51.7107ZM51.7107 25.7334V26.5408H50.9033V25.7334H51.7107ZM52.5181 24.926V25.7334H51.7107V24.926H52.5181ZM52.5181 24.1186V24.926H51.7107V24.1186H52.5181ZM44.4441 32.1926V33H43.6367V32.1926H44.4441ZM45.2515 32.1926V33H44.4441V32.1926H45.2515ZM46.0589 32.1926V33H45.2515V32.1926H46.0589ZM47.6737 32.1926V33H46.8663V32.1926H47.6737ZM48.4811 32.1926V33H47.6737V32.1926H48.4811ZM49.2885 32.1926V33H48.4811V32.1926H49.2885ZM49.2885 31.3852V32.1926H48.4811V31.3852H49.2885ZM48.4811 31.3852V32.1926H47.6737V31.3852H48.4811ZM47.6737 31.3852V32.1926H46.8663V31.3852H47.6737ZM46.0589 31.3852V32.1926H45.2515V31.3852H46.0589ZM45.2515 31.3852V32.1926H44.4441V31.3852H45.2515ZM44.4441 31.3852V32.1926H43.6367V31.3852H44.4441ZM44.4441 30.5778V31.3852H43.6367V30.5778H44.4441ZM45.2515 30.5778V31.3852H44.4441V30.5778H45.2515ZM46.0589 30.5778V31.3852H45.2515V30.5778H46.0589ZM47.6737 30.5778V31.3852H46.8663V30.5778H47.6737ZM48.4811 30.5778V31.3852H47.6737V30.5778H48.4811ZM49.2885 30.5778V31.3852H48.4811V30.5778H49.2885ZM49.2885 29.7704V30.5778H48.4811V29.7704H49.2885ZM48.4811 29.7704V30.5778H47.6737V29.7704H48.4811ZM47.6737 29.7704V30.5778H46.8663V29.7704H47.6737ZM46.0589 29.7704V30.5778H45.2515V29.7704H46.0589ZM45.2515 29.7704V30.5778H44.4441V29.7704H45.2515ZM44.4441 29.7704V30.5778H43.6367V29.7704H44.4441ZM44.4441 28.963V29.7704H43.6367V28.963H44.4441ZM49.2885 28.963V29.7704H48.4811V28.963H49.2885ZM52.5181 16.852V16.0446H53.3255V16.852H52.5181ZM52.5181 17.6594V16.852H53.3255V17.6594H52.5181ZM52.5181 18.4668V17.6594H53.3255V18.4668H52.5181ZM50.9033 18.4668V17.6594H51.7107V18.4668H50.9033ZM50.9033 17.6594V16.852H51.7107V17.6594H50.9033ZM50.9033 16.852V16.0446H51.7107V16.852H50.9033ZM50.9033 16.0446V15.2372H51.7107V16.0446H50.9033ZM50.9033 15.2372V14.4298H51.7107V15.2372H50.9033ZM50.9033 14.4298V13.6224H51.7107V14.4298H50.9033ZM49.2885 13.6224V12.815H50.0959V13.6224H49.2885ZM49.2885 14.4298V13.6224H50.0959V14.4298H49.2885ZM49.2885 15.2372V14.4298H50.0959V15.2372H49.2885ZM49.2885 16.0446V15.2372H50.0959V16.0446H49.2885ZM49.2885 16.852V16.0446H50.0959V16.852H49.2885ZM49.2885 17.6594V16.852H50.0959V17.6594H49.2885ZM49.2885 18.4668V17.6594H50.0959V18.4668H49.2885ZM50.0959 18.4668V17.6594H50.9033V18.4668H50.0959ZM50.0959 17.6594V16.852H50.9033V17.6594H50.0959ZM50.0959 16.852V16.0446H50.9033V16.852H50.0959ZM50.0959 16.0446V15.2372H50.9033V16.0446H50.0959ZM50.0959 15.2372V14.4298H50.9033V15.2372H50.0959ZM50.0959 14.4298V13.6224H50.9033V14.4298H50.0959ZM51.7107 15.2372V14.4298H52.5181V15.2372H51.7107ZM51.7107 16.0446V15.2372H52.5181V16.0446H51.7107ZM51.7107 16.852V16.0446H52.5181V16.852H51.7107ZM51.7107 17.6594V16.852H52.5181V17.6594H51.7107ZM51.7107 18.4668V17.6594H52.5181V18.4668H51.7107ZM42.8293 13.6224V12.815H43.6367V13.6224H42.8293ZM42.8293 14.4298V13.6224H43.6367V14.4298H42.8293ZM42.8293 15.2372V14.4298H43.6367V15.2372H42.8293ZM42.8293 16.0446V15.2372H43.6367V16.0446H42.8293ZM42.8293 16.852V16.0446H43.6367V16.852H42.8293ZM42.8293 17.6594V16.852H43.6367V17.6594H42.8293ZM42.8293 18.4668V17.6594H43.6367V18.4668H42.8293ZM41.2145 18.4668V17.6594H42.0219V18.4668H41.2145ZM41.2145 17.6594V16.852H42.0219V17.6594H41.2145ZM41.2145 16.852V16.0446H42.0219V16.852H41.2145ZM41.2145 16.0446V15.2372H42.0219V16.0446H41.2145ZM41.2145 15.2372V14.4298H42.0219V15.2372H41.2145ZM41.2145 14.4298V13.6224H42.0219V14.4298H41.2145ZM39.5997 16.852V16.0446H40.4071V16.852H39.5997ZM39.5997 17.6594V16.852H40.4071V17.6594H39.5997ZM39.5997 18.4668V17.6594H40.4071V18.4668H39.5997ZM40.4071 18.4668V17.6594H41.2145V18.4668H40.4071ZM40.4071 17.6594V16.852H41.2145V17.6594H40.4071ZM40.4071 16.852V16.0446H41.2145V16.852H40.4071ZM40.4071 16.0446V15.2372H41.2145V16.0446H40.4071ZM40.4071 15.2372V14.4298H41.2145V15.2372H40.4071ZM42.0219 14.4298V13.6224H42.8293V14.4298H42.0219ZM42.0219 15.2372V14.4298H42.8293V15.2372H42.0219ZM42.0219 16.0446V15.2372H42.8293V16.0446H42.0219ZM42.0219 16.852V16.0446H42.8293V16.852H42.0219ZM42.0219 17.6594V16.852H42.8293V17.6594H42.0219ZM42.0219 18.4668V17.6594H42.8293V18.4668H42.0219ZM48.4811 13.6224V12.815H49.2885V13.6224H48.4811ZM47.6737 13.6224V12.815H48.4811V13.6224H47.6737ZM46.8663 13.6224V12.815H47.6737V13.6224H46.8663ZM45.2515 13.6224V12.815H46.0589V13.6224H45.2515ZM44.4441 13.6224V12.815H45.2515V13.6224H44.4441ZM43.6367 13.6224V12.815H44.4441V13.6224H43.6367ZM43.6367 14.4298V13.6224H44.4441V14.4298H43.6367ZM44.4441 14.4298V13.6224H45.2515V14.4298H44.4441ZM45.2515 14.4298V13.6224H46.0589V14.4298H45.2515ZM46.8663 14.4298V13.6224H47.6737V14.4298H46.8663ZM47.6737 14.4298V13.6224H48.4811V14.4298H47.6737ZM48.4811 14.4298V13.6224H49.2885V14.4298H48.4811ZM48.4811 15.2372V14.4298H49.2885V15.2372H48.4811ZM47.6737 15.2372V14.4298H48.4811V15.2372H47.6737ZM46.8663 15.2372V14.4298H47.6737V15.2372H46.8663ZM45.2515 15.2372V14.4298H46.0589V15.2372H45.2515ZM44.4441 15.2372V14.4298H45.2515V15.2372H44.4441ZM43.6367 15.2372V14.4298H44.4441V15.2372H43.6367ZM43.6367 16.0446V15.2372H44.4441V16.0446H43.6367ZM44.4441 16.0446V15.2372H45.2515V16.0446H44.4441ZM45.2515 16.0446V15.2372H46.0589V16.0446H45.2515ZM46.8663 16.0446V15.2372H47.6737V16.0446H46.8663ZM47.6737 16.0446V15.2372H48.4811V16.0446H47.6737ZM48.4811 16.0446V15.2372H49.2885V16.0446H48.4811ZM48.4811 16.852V16.0446H49.2885V16.852H48.4811ZM43.6367 16.852V16.0446H44.4441V16.852H43.6367ZM40.4071 19.2742V20.0816H39.5997V19.2742H40.4071ZM41.2145 19.2742V20.0816H40.4071V19.2742H41.2145ZM40.4071 18.4668V19.2742H39.5997V18.4668H40.4071ZM42.8293 18.4668V19.2742H42.0219V18.4668H42.8293ZM42.8293 19.2742V20.0816H42.0219V19.2742H42.8293ZM43.6367 19.2742V20.0816H42.8293V19.2742H43.6367ZM43.6367 18.4668V19.2742H42.8293V18.4668H43.6367ZM41.2145 18.4668V19.2742H40.4071V18.4668H41.2145ZM42.0219 18.4668V19.2742H41.2145V18.4668H42.0219ZM42.0219 19.2742V20.0816H41.2145V19.2742H42.0219ZM45.2515 28.963V29.7704H44.4441V28.963H45.2515ZM46.0589 28.963V29.7704H45.2515V28.963H46.0589ZM47.6737 28.963V29.7704H46.8663V28.963H47.6737ZM48.4811 28.963V29.7704H47.6737V28.963H48.4811ZM49.2885 28.1556V28.963H48.4811V28.1556H49.2885ZM44.4441 28.1556V28.963H43.6367V28.1556H44.4441ZM45.2515 16.0446V16.852H44.4441V16.0446H45.2515ZM46.0589 16.0446V16.852H45.2515V16.0446H46.0589ZM47.6737 16.0446V16.852H46.8663V16.0446H47.6737ZM48.4811 16.0446V16.852H47.6737V16.0446H48.4811ZM49.2885 16.852V17.6594H48.4811V16.852H49.2885ZM44.4441 16.852V17.6594H43.6367V16.852H44.4441ZM46.0589 22.5038V23.3112H45.2515V22.5038H46.0589ZM47.6737 22.5038V23.3112H46.8663V22.5038H47.6737ZM48.4811 22.5038V23.3112H47.6737V22.5038H48.4811ZM49.2885 22.5038V23.3112H48.4811V22.5038H49.2885ZM49.2885 23.3112V24.1186H48.4811V23.3112H49.2885ZM48.4811 23.3112V24.1186H47.6737V23.3112H48.4811ZM47.6737 23.3112V24.1186H46.8663V23.3112H47.6737ZM46.0589 23.3112V24.1186H45.2515V23.3112H46.0589ZM46.0589 20.889V21.6964H45.2515V20.889H46.0589ZM47.6737 20.889V21.6964H46.8663V20.889H47.6737ZM48.4811 20.889V21.6964H47.6737V20.889H48.4811ZM49.2885 20.889V21.6964H48.4811V20.889H49.2885ZM49.2885 21.6964V22.5038H48.4811V21.6964H49.2885ZM48.4811 21.6964V22.5038H47.6737V21.6964H48.4811ZM47.6737 21.6964V22.5038H46.8663V21.6964H47.6737ZM46.0589 21.6964V22.5038H45.2515V21.6964H46.0589ZM46.0589 24.1186V24.926H45.2515V24.1186H46.0589ZM47.6737 24.1186V24.926H46.8663V24.1186H47.6737ZM48.4811 24.1186V24.926H47.6737V24.1186H48.4811ZM49.2885 24.1186V24.926H48.4811V24.1186H49.2885ZM52.5181 22.5038V23.3112H51.7107V22.5038H52.5181ZM49.2885 24.926V25.7334H48.4811V24.926H49.2885ZM44.4441 20.889V21.6964H43.6367V20.889H44.4441ZM45.2515 20.889V21.6964H44.4441V20.889H45.2515ZM44.4441 20.0816V20.889H43.6367V20.0816H44.4441ZM45.2515 21.6964V22.5038H44.4441V21.6964H45.2515ZM45.2515 22.5038V23.3112H44.4441V22.5038H45.2515ZM45.2515 23.3112V24.1186H44.4441V23.3112H45.2515ZM45.2515 24.1186V24.926H44.4441V24.1186H45.2515ZM44.4441 24.1186V24.926H43.6367V24.1186H44.4441ZM44.4441 23.3112V24.1186H43.6367V23.3112H44.4441ZM44.4441 22.5038V23.3112H43.6367V22.5038H44.4441ZM44.4441 21.6964V22.5038H43.6367V21.6964H44.4441ZM46.8663 12.815V13.6224H46.0589V12.815H46.8663ZM46.8663 13.6224V14.4298H46.0589V13.6224H46.8663ZM46.8663 14.4298V15.2372H46.0589V14.4298H46.8663ZM46.8663 15.2372V16.0446H46.0589V15.2372H46.8663ZM46.8663 16.0446V16.852H46.0589V16.0446H46.8663ZM46.8663 20.889V21.6964H46.0589V20.889H46.8663ZM46.8663 21.6964V22.5038H46.0589V21.6964H46.8663ZM46.8663 22.5038V23.3112H46.0589V22.5038H46.8663ZM46.8663 23.3112V24.1186H46.0589V23.3112H46.8663ZM46.8663 24.1186V24.926H46.0589V24.1186H46.8663ZM46.8663 28.963V29.7704H46.0589V28.963H46.8663ZM46.8663 29.7704V30.5778H46.0589V29.7704H46.8663ZM46.8663 30.5778V31.3852H46.0589V30.5778H46.8663ZM46.8663 31.3852V32.1926H46.0589V31.3852H46.8663ZM46.8663 32.1926V33H46.0589V32.1926H46.8663ZM57.3468 28.963V29.7704H56.5394V28.963H57.3468ZM57.3468 28.1556V28.963H56.5394V28.1556H57.3468ZM57.3468 27.3482V28.1556H56.5394V27.3482H57.3468ZM57.3468 26.5408V27.3482H56.5394V26.5408H57.3468ZM57.3468 20.889V21.6964H56.5394V20.889H57.3468ZM58.1542 20.889V21.6964H57.3468V20.889H58.1542ZM58.1542 21.6964V22.5038H57.3468V21.6964H58.1542ZM58.1542 22.5038V23.3112H57.3468V22.5038H58.1542ZM58.9616 26.5408V27.3482H58.1542V26.5408H58.9616ZM58.9616 27.3482V28.1556H58.1542V27.3482H58.9616ZM58.9616 28.1556V28.963H58.1542V28.1556H58.9616ZM58.9616 28.963V29.7704H58.1542V28.963H58.9616ZM58.9616 29.7704V30.5778H58.1542V29.7704H58.9616ZM58.9616 30.5778V31.3852H58.1542V30.5778H58.9616ZM58.9616 31.3852V32.1926H58.1542V31.3852H58.9616ZM60.5764 32.1926V33H59.769V32.1926H60.5764ZM60.5764 31.3852V32.1926H59.769V31.3852H60.5764ZM60.5764 30.5778V31.3852H59.769V30.5778H60.5764ZM60.5764 29.7704V30.5778H59.769V29.7704H60.5764ZM60.5764 28.963V29.7704H59.769V28.963H60.5764ZM60.5764 28.1556V28.963H59.769V28.1556H60.5764ZM60.5764 27.3482V28.1556H59.769V27.3482H60.5764ZM60.5764 26.5408V27.3482H59.769V26.5408H60.5764ZM59.769 26.5408V27.3482H58.9616V26.5408H59.769ZM59.769 27.3482V28.1556H58.9616V27.3482H59.769ZM59.769 28.1556V28.963H58.9616V28.1556H59.769ZM59.769 28.963V29.7704H58.9616V28.963H59.769ZM59.769 29.7704V30.5778H58.9616V29.7704H59.769ZM59.769 30.5778V31.3852H58.9616V30.5778H59.769ZM59.769 31.3852V32.1926H58.9616V31.3852H59.769ZM58.1542 30.5778V31.3852H57.3468V30.5778H58.1542ZM58.1542 29.7704V30.5778H57.3468V29.7704H58.1542ZM58.1542 28.963V29.7704H57.3468V28.963H58.1542ZM58.1542 28.1556V28.963H57.3468V28.1556H58.1542ZM58.1542 27.3482V28.1556H57.3468V27.3482H58.1542ZM58.1542 26.5408V27.3482H57.3468V26.5408H58.1542ZM57.3468 20.0816V20.889H56.5394V20.0816H57.3468ZM59.769 20.0816V20.889H58.9616V20.0816H59.769ZM59.769 20.889V21.6964H58.9616V20.889H59.769ZM59.769 21.6964V22.5038H58.9616V21.6964H59.769ZM59.769 22.5038V23.3112H58.9616V22.5038H59.769ZM59.769 23.3112V24.1186H58.9616V23.3112H59.769ZM60.5764 24.1186V24.926H59.769V24.1186H60.5764ZM60.5764 23.3112V24.1186H59.769V23.3112H60.5764ZM60.5764 22.5038V23.3112H59.769V22.5038H60.5764ZM60.5764 21.6964V22.5038H59.769V21.6964H60.5764ZM60.5764 20.889V21.6964H59.769V20.889H60.5764ZM60.5764 20.0816V20.889H59.769V20.0816H60.5764ZM58.1542 20.0816V20.889H57.3468V20.0816H58.1542ZM58.9616 20.0816V20.889H58.1542V20.0816H58.9616ZM58.9616 20.889V21.6964H58.1542V20.889H58.9616ZM58.9616 21.6964V22.5038H58.1542V21.6964H58.9616ZM58.9616 22.5038V23.3112H58.1542V22.5038H58.9616ZM58.9616 23.3112V24.1186H58.1542V23.3112H58.9616ZM67.0356 32.1926V33H66.2282V32.1926H67.0356ZM67.0356 31.3852V32.1926H66.2282V31.3852H67.0356ZM67.0356 30.5778V31.3852H66.2282V30.5778H67.0356ZM67.0356 29.7704V30.5778H66.2282V29.7704H67.0356ZM67.0356 28.963V29.7704H66.2282V28.963H67.0356ZM67.0356 28.1556V28.963H66.2282V28.1556H67.0356ZM67.0356 27.3482V28.1556H66.2282V27.3482H67.0356ZM67.0356 26.5408V27.3482H66.2282V26.5408H67.0356ZM67.0356 25.7334V26.5408H66.2282V25.7334H67.0356ZM67.0356 24.926V25.7334H66.2282V24.926H67.0356ZM67.0356 24.1186V24.926H66.2282V24.1186H67.0356ZM67.0356 23.3112V24.1186H66.2282V23.3112H67.0356ZM67.0356 22.5038V23.3112H66.2282V22.5038H67.0356ZM67.0356 21.6964V22.5038H66.2282V21.6964H67.0356ZM67.0356 20.889V21.6964H66.2282V20.889H67.0356ZM67.843 21.6964V22.5038H67.0356V21.6964H67.843ZM67.843 22.5038V23.3112H67.0356V22.5038H67.843ZM67.843 23.3112V24.1186H67.0356V23.3112H67.843ZM67.843 24.1186V24.926H67.0356V24.1186H67.843ZM67.843 24.926V25.7334H67.0356V24.926H67.843ZM67.843 25.7334V26.5408H67.0356V25.7334H67.843ZM68.6504 26.5408V27.3482H67.843V26.5408H68.6504ZM68.6504 27.3482V28.1556H67.843V27.3482H68.6504ZM68.6504 28.1556V28.963H67.843V28.1556H68.6504ZM68.6504 28.963V29.7704H67.843V28.963H68.6504ZM68.6504 29.7704V30.5778H67.843V29.7704H68.6504ZM68.6504 30.5778V31.3852H67.843V30.5778H68.6504ZM68.6504 31.3852V32.1926H67.843V31.3852H68.6504ZM70.2652 28.963V29.7704H69.4578V28.963H70.2652ZM70.2652 28.1556V28.963H69.4578V28.1556H70.2652ZM70.2652 27.3482V28.1556H69.4578V27.3482H70.2652ZM70.2652 26.5408V27.3482H69.4578V26.5408H70.2652ZM69.4578 26.5408V27.3482H68.6504V26.5408H69.4578ZM69.4578 25.7334V26.5408H68.6504V25.7334H69.4578ZM69.4578 27.3482V28.1556H68.6504V27.3482H69.4578ZM69.4578 28.1556V28.963H68.6504V28.1556H69.4578ZM69.4578 28.963V29.7704H68.6504V28.963H69.4578ZM69.4578 29.7704V30.5778H68.6504V29.7704H69.4578ZM69.4578 30.5778V31.3852H68.6504V30.5778H69.4578ZM67.843 31.3852V32.1926H67.0356V31.3852H67.843ZM67.843 30.5778V31.3852H67.0356V30.5778H67.843ZM67.843 29.7704V30.5778H67.0356V29.7704H67.843ZM67.843 28.963V29.7704H67.0356V28.963H67.843ZM67.843 28.1556V28.963H67.0356V28.1556H67.843ZM67.843 27.3482V28.1556H67.0356V27.3482H67.843ZM67.843 26.5408V27.3482H67.0356V26.5408H67.843ZM69.4578 23.3112V24.1186H68.6504V23.3112H69.4578ZM70.2652 24.1186V24.926H69.4578V24.1186H70.2652ZM70.2652 24.926V25.7334H69.4578V24.926H70.2652ZM70.2652 25.7334V26.5408H69.4578V25.7334H70.2652ZM68.6504 21.6964V22.5038H67.843V21.6964H68.6504ZM68.6504 22.5038V23.3112H67.843V22.5038H68.6504ZM68.6504 23.3112V24.1186H67.843V23.3112H68.6504ZM68.6504 24.1186V24.926H67.843V24.1186H68.6504ZM68.6504 24.926V25.7334H67.843V24.926H68.6504ZM68.6504 25.7334V26.5408H67.843V25.7334H68.6504ZM69.4578 24.926V25.7334H68.6504V24.926H69.4578ZM69.4578 24.1186V24.926H68.6504V24.1186H69.4578ZM61.3838 32.1926V33H60.5764V32.1926H61.3838ZM62.1912 32.1926V33H61.3838V32.1926H62.1912ZM62.9986 32.1926V33H62.1912V32.1926H62.9986ZM64.6134 32.1926V33H63.806V32.1926H64.6134ZM65.4208 32.1926V33H64.6134V32.1926H65.4208ZM66.2282 32.1926V33H65.4208V32.1926H66.2282ZM66.2282 31.3852V32.1926H65.4208V31.3852H66.2282ZM65.4208 31.3852V32.1926H64.6134V31.3852H65.4208ZM64.6134 31.3852V32.1926H63.806V31.3852H64.6134ZM62.9986 31.3852V32.1926H62.1912V31.3852H62.9986ZM62.1912 31.3852V32.1926H61.3838V31.3852H62.1912ZM61.3838 31.3852V32.1926H60.5764V31.3852H61.3838ZM61.3838 30.5778V31.3852H60.5764V30.5778H61.3838ZM62.1912 30.5778V31.3852H61.3838V30.5778H62.1912ZM62.9986 30.5778V31.3852H62.1912V30.5778H62.9986ZM64.6134 30.5778V31.3852H63.806V30.5778H64.6134ZM65.4208 30.5778V31.3852H64.6134V30.5778H65.4208ZM66.2282 30.5778V31.3852H65.4208V30.5778H66.2282ZM66.2282 29.7704V30.5778H65.4208V29.7704H66.2282ZM65.4208 29.7704V30.5778H64.6134V29.7704H65.4208ZM64.6134 29.7704V30.5778H63.806V29.7704H64.6134ZM62.9986 29.7704V30.5778H62.1912V29.7704H62.9986ZM62.1912 29.7704V30.5778H61.3838V29.7704H62.1912ZM61.3838 29.7704V30.5778H60.5764V29.7704H61.3838ZM61.3838 28.963V29.7704H60.5764V28.963H61.3838ZM66.2282 28.963V29.7704H65.4208V28.963H66.2282ZM69.4578 16.852V16.0446H70.2652V16.852H69.4578ZM69.4578 17.6594V16.852H70.2652V17.6594H69.4578ZM69.4578 18.4668V17.6594H70.2652V18.4668H69.4578ZM67.843 18.4668V17.6594H68.6504V18.4668H67.843ZM67.843 17.6594V16.852H68.6504V17.6594H67.843ZM67.843 16.852V16.0446H68.6504V16.852H67.843ZM67.843 16.0446V15.2372H68.6504V16.0446H67.843ZM67.843 15.2372V14.4298H68.6504V15.2372H67.843ZM67.843 14.4298V13.6224H68.6504V14.4298H67.843ZM66.2282 13.6224V12.815H67.0356V13.6224H66.2282ZM66.2282 14.4298V13.6224H67.0356V14.4298H66.2282ZM66.2282 15.2372V14.4298H67.0356V15.2372H66.2282ZM66.2282 16.0446V15.2372H67.0356V16.0446H66.2282ZM66.2282 16.852V16.0446H67.0356V16.852H66.2282ZM66.2282 17.6594V16.852H67.0356V17.6594H66.2282ZM66.2282 18.4668V17.6594H67.0356V18.4668H66.2282ZM67.0356 18.4668V17.6594H67.843V18.4668H67.0356ZM67.0356 17.6594V16.852H67.843V17.6594H67.0356ZM67.0356 16.852V16.0446H67.843V16.852H67.0356ZM67.0356 16.0446V15.2372H67.843V16.0446H67.0356ZM67.0356 15.2372V14.4298H67.843V15.2372H67.0356ZM67.0356 14.4298V13.6224H67.843V14.4298H67.0356ZM68.6504 15.2372V14.4298H69.4578V15.2372H68.6504ZM68.6504 16.0446V15.2372H69.4578V16.0446H68.6504ZM68.6504 16.852V16.0446H69.4578V16.852H68.6504ZM68.6504 17.6594V16.852H69.4578V17.6594H68.6504ZM68.6504 18.4668V17.6594H69.4578V18.4668H68.6504ZM59.769 13.6224V12.815H60.5764V13.6224H59.769ZM59.769 14.4298V13.6224H60.5764V14.4298H59.769ZM59.769 15.2372V14.4298H60.5764V15.2372H59.769ZM59.769 16.0446V15.2372H60.5764V16.0446H59.769ZM59.769 16.852V16.0446H60.5764V16.852H59.769ZM59.769 17.6594V16.852H60.5764V17.6594H59.769ZM59.769 18.4668V17.6594H60.5764V18.4668H59.769ZM58.1542 18.4668V17.6594H58.9616V18.4668H58.1542ZM58.1542 17.6594V16.852H58.9616V17.6594H58.1542ZM58.1542 16.852V16.0446H58.9616V16.852H58.1542ZM58.1542 16.0446V15.2372H58.9616V16.0446H58.1542ZM58.1542 15.2372V14.4298H58.9616V15.2372H58.1542ZM58.1542 14.4298V13.6224H58.9616V14.4298H58.1542ZM56.5394 16.852V16.0446H57.3468V16.852H56.5394ZM56.5394 17.6594V16.852H57.3468V17.6594H56.5394ZM56.5394 18.4668V17.6594H57.3468V18.4668H56.5394ZM57.3468 18.4668V17.6594H58.1542V18.4668H57.3468ZM57.3468 17.6594V16.852H58.1542V17.6594H57.3468ZM57.3468 16.852V16.0446H58.1542V16.852H57.3468ZM57.3468 16.0446V15.2372H58.1542V16.0446H57.3468ZM57.3468 15.2372V14.4298H58.1542V15.2372H57.3468ZM58.9616 14.4298V13.6224H59.769V14.4298H58.9616ZM58.9616 15.2372V14.4298H59.769V15.2372H58.9616ZM58.9616 16.0446V15.2372H59.769V16.0446H58.9616ZM58.9616 16.852V16.0446H59.769V16.852H58.9616ZM58.9616 17.6594V16.852H59.769V17.6594H58.9616ZM58.9616 18.4668V17.6594H59.769V18.4668H58.9616ZM65.4208 13.6224V12.815H66.2282V13.6224H65.4208ZM64.6134 13.6224V12.815H65.4208V13.6224H64.6134ZM63.806 13.6224V12.815H64.6134V13.6224H63.806ZM62.1912 13.6224V12.815H62.9986V13.6224H62.1912ZM61.3838 13.6224V12.815H62.1912V13.6224H61.3838ZM60.5764 13.6224V12.815H61.3838V13.6224H60.5764ZM60.5764 14.4298V13.6224H61.3838V14.4298H60.5764ZM61.3838 14.4298V13.6224H62.1912V14.4298H61.3838ZM62.1912 14.4298V13.6224H62.9986V14.4298H62.1912ZM63.806 14.4298V13.6224H64.6134V14.4298H63.806ZM64.6134 14.4298V13.6224H65.4208V14.4298H64.6134ZM65.4208 14.4298V13.6224H66.2282V14.4298H65.4208ZM65.4208 15.2372V14.4298H66.2282V15.2372H65.4208ZM64.6134 15.2372V14.4298H65.4208V15.2372H64.6134ZM63.806 15.2372V14.4298H64.6134V15.2372H63.806ZM62.1912 15.2372V14.4298H62.9986V15.2372H62.1912ZM61.3838 15.2372V14.4298H62.1912V15.2372H61.3838ZM60.5764 15.2372V14.4298H61.3838V15.2372H60.5764ZM60.5764 16.0446V15.2372H61.3838V16.0446H60.5764ZM61.3838 16.0446V15.2372H62.1912V16.0446H61.3838ZM62.1912 16.0446V15.2372H62.9986V16.0446H62.1912ZM63.806 16.0446V15.2372H64.6134V16.0446H63.806ZM64.6134 16.0446V15.2372H65.4208V16.0446H64.6134ZM65.4208 16.0446V15.2372H66.2282V16.0446H65.4208ZM65.4208 16.852V16.0446H66.2282V16.852H65.4208ZM60.5764 16.852V16.0446H61.3838V16.852H60.5764ZM57.3468 19.2742V20.0816H56.5394V19.2742H57.3468ZM58.1542 19.2742V20.0816H57.3468V19.2742H58.1542ZM57.3468 18.4668V19.2742H56.5394V18.4668H57.3468ZM59.769 18.4668V19.2742H58.9616V18.4668H59.769ZM59.769 19.2742V20.0816H58.9616V19.2742H59.769ZM60.5764 19.2742V20.0816H59.769V19.2742H60.5764ZM60.5764 18.4668V19.2742H59.769V18.4668H60.5764ZM58.1542 18.4668V19.2742H57.3468V18.4668H58.1542ZM58.9616 18.4668V19.2742H58.1542V18.4668H58.9616ZM58.9616 19.2742V20.0816H58.1542V19.2742H58.9616ZM62.1912 28.963V29.7704H61.3838V28.963H62.1912ZM62.9986 28.963V29.7704H62.1912V28.963H62.9986ZM64.6134 28.963V29.7704H63.806V28.963H64.6134ZM65.4208 28.963V29.7704H64.6134V28.963H65.4208ZM66.2282 28.1556V28.963H65.4208V28.1556H66.2282ZM61.3838 28.1556V28.963H60.5764V28.1556H61.3838ZM62.1912 16.0446V16.852H61.3838V16.0446H62.1912ZM62.9986 16.0446V16.852H62.1912V16.0446H62.9986ZM64.6134 16.0446V16.852H63.806V16.0446H64.6134ZM65.4208 16.0446V16.852H64.6134V16.0446H65.4208ZM66.2282 16.852V17.6594H65.4208V16.852H66.2282ZM61.3838 16.852V17.6594H60.5764V16.852H61.3838ZM62.9986 22.5038V23.3112H62.1912V22.5038H62.9986ZM64.6134 22.5038V23.3112H63.806V22.5038H64.6134ZM65.4208 22.5038V23.3112H64.6134V22.5038H65.4208ZM66.2282 22.5038V23.3112H65.4208V22.5038H66.2282ZM66.2282 23.3112V24.1186H65.4208V23.3112H66.2282ZM65.4208 23.3112V24.1186H64.6134V23.3112H65.4208ZM64.6134 23.3112V24.1186H63.806V23.3112H64.6134ZM62.9986 23.3112V24.1186H62.1912V23.3112H62.9986ZM62.9986 20.889V21.6964H62.1912V20.889H62.9986ZM64.6134 20.889V21.6964H63.806V20.889H64.6134ZM65.4208 20.889V21.6964H64.6134V20.889H65.4208ZM66.2282 20.889V21.6964H65.4208V20.889H66.2282ZM66.2282 21.6964V22.5038H65.4208V21.6964H66.2282ZM65.4208 21.6964V22.5038H64.6134V21.6964H65.4208ZM64.6134 21.6964V22.5038H63.806V21.6964H64.6134ZM62.9986 21.6964V22.5038H62.1912V21.6964H62.9986ZM62.9986 24.1186V24.926H62.1912V24.1186H62.9986ZM64.6134 24.1186V24.926H63.806V24.1186H64.6134ZM65.4208 24.1186V24.926H64.6134V24.1186H65.4208ZM66.2282 24.1186V24.926H65.4208V24.1186H66.2282ZM69.4578 22.5038V23.3112H68.6504V22.5038H69.4578ZM66.2282 24.926V25.7334H65.4208V24.926H66.2282ZM61.3838 20.889V21.6964H60.5764V20.889H61.3838ZM62.1912 20.889V21.6964H61.3838V20.889H62.1912ZM61.3838 20.0816V20.889H60.5764V20.0816H61.3838ZM62.1912 21.6964V22.5038H61.3838V21.6964H62.1912ZM62.1912 22.5038V23.3112H61.3838V22.5038H62.1912ZM62.1912 23.3112V24.1186H61.3838V23.3112H62.1912ZM62.1912 24.1186V24.926H61.3838V24.1186H62.1912ZM61.3838 24.1186V24.926H60.5764V24.1186H61.3838ZM61.3838 23.3112V24.1186H60.5764V23.3112H61.3838ZM61.3838 22.5038V23.3112H60.5764V22.5038H61.3838ZM61.3838 21.6964V22.5038H60.5764V21.6964H61.3838ZM63.806 12.815V13.6224H62.9986V12.815H63.806ZM63.806 13.6224V14.4298H62.9986V13.6224H63.806ZM63.806 14.4298V15.2372H62.9986V14.4298H63.806ZM63.806 15.2372V16.0446H62.9986V15.2372H63.806ZM63.806 16.0446V16.852H62.9986V16.0446H63.806ZM63.806 20.889V21.6964H62.9986V20.889H63.806ZM63.806 21.6964V22.5038H62.9986V21.6964H63.806ZM63.806 22.5038V23.3112H62.9986V22.5038H63.806ZM63.806 23.3112V24.1186H62.9986V23.3112H63.806ZM63.806 24.1186V24.926H62.9986V24.1186H63.806ZM63.806 28.963V29.7704H62.9986V28.963H63.806ZM63.806 29.7704V30.5778H62.9986V29.7704H63.806ZM63.806 30.5778V31.3852H62.9986V30.5778H63.806ZM63.806 31.3852V32.1926H62.9986V31.3852H63.806ZM63.806 32.1926V33H62.9986V32.1926H63.806Z" fill="black"/>
</svg>
