<svg width="111" height="37" viewBox="0 0 111 37" fill="none" xmlns="http://www.w3.org/2000/svg">
<path d="M109.62 8.26161H105.898L102.937 23.1026H99.5412L102.502 8.26161H98.8281L99.372 5.5061H110.164L109.62 8.26161Z" fill="#A3ACB5"/>
<path d="M93.1297 18.8359C93.2828 18.0382 93.2143 17.442 92.9243 17.0472C92.6423 16.6443 92.0622 16.2052 91.184 15.7299C89.5645 15.0692 88.3842 14.2836 87.6429 13.3732C86.9097 12.4547 86.6882 11.2663 86.9782 9.80796C87.2683 8.35769 87.9571 7.23777 89.0448 6.44818C90.1325 5.65053 91.4257 5.25171 92.9243 5.25171C94.5196 5.25171 95.7523 5.73513 96.6224 6.70197C97.4926 7.66882 97.7464 8.98211 97.3838 10.6419L97.3596 10.7023H94.0361C94.1973 9.88047 94.1248 9.22785 93.8186 8.74443C93.5124 8.25295 93.033 8.00721 92.3804 8.00721C91.9453 8.00721 91.5304 8.18044 91.1356 8.52689C90.7408 8.87334 90.4951 9.29231 90.3984 9.78378C90.2453 10.5411 90.3299 11.1051 90.6522 11.4758C90.9745 11.8464 91.6835 12.3016 92.7792 12.8414C94.2698 13.4618 95.3454 14.2313 96.0061 15.1498C96.6667 16.0683 96.844 17.2889 96.5378 18.8117C96.2317 20.3183 95.5428 21.4544 94.4712 22.2198C93.3996 22.9772 92.1065 23.3558 90.5918 23.3558C89.0287 23.3558 87.7195 22.9208 86.664 22.0506C85.6166 21.1724 85.2943 19.8148 85.6972 17.9778L85.7213 17.9174H89.0448C88.8353 18.9406 88.9481 19.6456 89.3832 20.0323C89.8264 20.4191 90.4105 20.6124 91.1356 20.6124C91.5546 20.6124 91.9655 20.4432 92.3683 20.1048C92.7712 19.7584 93.025 19.3354 93.1297 18.8359Z" fill="#A3ACB5"/>
<path d="M84.3604 15.38H78.8011L77.798 20.3592H84.3484L83.8045 23.1026H73.834L77.3509 5.5061H87.2972L86.7534 8.26161H80.2151L79.345 12.6366H84.9043L84.3604 15.38Z" fill="#A3ACB5"/>
<path d="M75.8812 8.26161H72.1589L69.1979 23.1026H65.8019L68.7629 8.26161H65.0889L65.6327 5.5061H76.4251L75.8812 8.26161Z" fill="#A3ACB5"/>
<path d="M59.3905 18.8359C59.5436 18.0382 59.4751 17.442 59.185 17.0472C58.903 16.6443 58.3229 16.2052 57.4447 15.7299C55.8253 15.0692 54.6449 14.2836 53.9037 13.3732C53.1705 12.4547 52.9489 11.2663 53.239 9.80796C53.529 8.35769 54.2179 7.23777 55.3056 6.44818C56.3933 5.65053 57.6864 5.25171 59.185 5.25171C60.7803 5.25171 62.013 5.73513 62.8832 6.70197C63.7533 7.66882 64.0071 8.98211 63.6446 10.6419L63.6204 10.7023H60.2969C60.458 9.88047 60.3855 9.22785 60.0793 8.74443C59.7732 8.25295 59.2938 8.00721 58.6412 8.00721C58.2061 8.00721 57.7912 8.18044 57.3964 8.52689C57.0016 8.87334 56.7558 9.29231 56.6591 9.78378C56.5061 10.5411 56.5907 11.1051 56.9129 11.4758C57.2352 11.8464 57.9442 12.3016 59.04 12.8414C60.5305 13.4618 61.6061 14.2313 62.2668 15.1498C62.9275 16.0683 63.1047 17.2889 62.7986 18.8117C62.4924 20.3183 61.8035 21.4544 60.732 22.2198C59.6604 22.9772 58.3672 23.3558 56.8525 23.3558C55.2895 23.3558 53.9802 22.9208 52.9247 22.0506C51.8773 21.1724 51.555 19.8148 51.9579 17.9778L51.9821 17.9174H55.3056C55.0961 18.9406 55.2089 19.6456 55.644 20.0323C56.0871 20.4191 56.6712 20.6124 57.3964 20.6124C57.8153 20.6124 58.2262 20.4432 58.6291 20.1048C59.0319 19.7584 59.2857 19.3354 59.3905 18.8359Z" fill="#A3ACB5"/>
<path d="M46.8638 19.3682H42.6218L40.9782 23.1026H37.5459L45.7519 5.5061H49.293L50.4532 23.1026H47.0209L46.8638 19.3682ZM43.8304 16.6006H46.755L46.5254 10.6666L46.4529 10.6545L43.8304 16.6006Z" fill="#A3ACB5"/>
<path d="M38.7099 15.7909H33.1023L31.6399 23.1026H28.2197L31.7366 5.5061H41.7676L41.2237 8.26161H34.6009L33.6461 13.0475H39.2538L38.7099 15.7909Z" fill="#A3ACB5"/>
<path d="M26.0697 12.6966L25.5742 15.8993C25.4372 16.8661 25.1996 17.8007 24.8612 18.7031C24.5228 19.5975 24.0716 20.3991 23.5076 21.1082C22.9517 21.8172 22.2668 22.3731 21.4531 22.776C20.6474 23.1788 19.6926 23.3682 18.5888 23.344C17.7509 23.3279 17.0298 23.1788 16.4255 22.8968C15.8212 22.6068 15.3177 22.22 14.9148 21.7366C14.52 21.2532 14.2139 20.6972 13.9963 20.0688C13.7868 19.4404 13.6579 18.7716 13.6096 18.0626C13.5612 17.3536 13.5814 16.6365 13.67 15.9114L14.1534 12.6966C14.2985 11.7298 14.5402 10.7992 14.8786 9.90486C15.2169 9.00247 15.6681 8.19677 16.2321 7.48775C16.7961 6.77874 17.485 6.22683 18.2987 5.83204C19.1125 5.42918 20.0673 5.23984 21.163 5.26402C22.0009 5.28013 22.722 5.43321 23.3263 5.72327C23.9306 6.00526 24.4301 6.38797 24.8249 6.87139C25.2197 7.35481 25.5218 7.91075 25.7313 8.5392C25.9489 9.16764 26.0818 9.83638 26.1301 10.5454C26.1785 11.2544 26.1583 11.9715 26.0697 12.6966ZM21.5497 16.419L22.1782 12.1528C22.2024 11.9111 22.2306 11.6331 22.2628 11.3189C22.295 11.0046 22.3031 10.6824 22.287 10.352C22.2789 10.0136 22.2306 9.69941 22.1419 9.40935C22.0614 9.1193 21.9204 8.88162 21.7189 8.69631C21.5256 8.50294 21.2516 8.3982 20.8971 8.38208C20.3976 8.35791 19.9827 8.46668 19.6523 8.70839C19.33 8.9501 19.0722 9.27238 18.8789 9.67524C18.6855 10.07 18.5364 10.493 18.4317 10.9442C18.335 11.3874 18.2585 11.7942 18.2021 12.1649L17.5736 16.419C17.5494 16.6607 17.5212 16.9427 17.489 17.265C17.4568 17.5792 17.4447 17.9055 17.4528 18.2439C17.4608 18.5823 17.5051 18.8965 17.5857 19.1866C17.6743 19.4766 17.8194 19.7183 18.0208 19.9117C18.2222 20.097 18.5002 20.2017 18.8547 20.2259C19.3542 20.2501 19.7651 20.1413 20.0874 19.8996C20.4177 19.6498 20.6796 19.3276 20.873 18.9328C21.0663 18.5299 21.2114 18.1029 21.308 17.6517C21.4128 17.2005 21.4933 16.7896 21.5497 16.419Z" fill="#A3ACB5"/>
<path d="M5.1542 15.2347L1.92738 14.4492L4.35656 5.50586H14.3875L13.8799 8.67227H7.1604L6.08479 12.1892C6.4393 11.9636 6.83006 11.8024 7.25708 11.7057C7.6841 11.601 8.10306 11.5446 8.51397 11.5365C9.35996 11.5365 10.0891 11.6937 10.7014 12.0079C11.3138 12.314 11.8093 12.737 12.188 13.2769C12.5666 13.8167 12.8325 14.4371 12.9856 15.138C13.1387 15.839 13.183 16.5762 13.1185 17.3497C13.046 18.236 12.8285 19.0497 12.4659 19.791C12.1034 20.5322 11.624 21.1727 11.0278 21.7126C10.4315 22.2524 9.74669 22.6673 8.97322 22.9574C8.19975 23.2394 7.36988 23.3723 6.48361 23.3562C5.71819 23.3401 5.00112 23.2071 4.33239 22.9574C3.67172 22.6995 3.08759 22.341 2.58 21.8818C2.0724 21.4145 1.67761 20.8625 1.39562 20.226C1.11362 19.5815 0.976654 18.8684 0.984711 18.0869H4.96084C4.97695 18.4495 5.04141 18.7879 5.1542 19.1021C5.267 19.4163 5.44426 19.6741 5.68597 19.8756C5.93573 20.0689 6.26607 20.1737 6.67698 20.1898C7.11205 20.1978 7.47865 20.1092 7.77676 19.9239C8.07486 19.7386 8.3206 19.4929 8.51397 19.1867C8.70734 18.8725 8.85237 18.53 8.94905 18.1594C9.05379 17.7888 9.12227 17.4262 9.1545 17.0717C9.19479 16.7172 9.19479 16.3788 9.1545 16.0565C9.11422 15.7262 9.02559 15.4361 8.88862 15.1864C8.75165 14.9285 8.55023 14.7271 8.28435 14.5821C8.02652 14.429 7.69619 14.3484 7.29334 14.3404C6.88243 14.3404 6.49167 14.4129 6.12104 14.5579C5.75042 14.703 5.42814 14.9285 5.1542 15.2347Z" fill="#A3ACB5"/>
<path d="M107.722 33.6474C107.722 33.3073 107.62 33.0109 107.416 32.7582C107.211 32.4959 106.944 32.2481 106.614 32.0149C106.293 31.7817 105.948 31.5485 105.579 31.3152C105.21 31.0723 104.86 30.8051 104.53 30.5136C104.209 30.2123 103.942 29.8625 103.728 29.4641C103.524 29.0657 103.422 28.5993 103.422 28.0649H105.113C105.113 28.3952 105.215 28.6916 105.419 28.954C105.632 29.2163 105.9 29.4641 106.22 29.6973C106.551 29.9305 106.901 30.1686 107.27 30.4115C107.639 30.6448 107.984 30.912 108.305 31.2132C108.635 31.5047 108.902 31.8497 109.106 32.2481C109.31 32.6368 109.412 33.1032 109.412 33.6474H107.722ZM103.422 28.0794C103.422 27.5547 103.553 27.098 103.815 26.7093C104.078 26.3109 104.437 26.0048 104.894 25.7911C105.36 25.5676 105.89 25.4558 106.483 25.4558V26.8405C106.055 26.8405 105.72 26.9522 105.477 27.1757C105.234 27.3895 105.113 27.6908 105.113 28.0794H103.422ZM109.412 33.6328C109.412 34.1672 109.281 34.6288 109.019 35.0175C108.757 35.4062 108.397 35.7122 107.94 35.9357C107.484 36.1495 106.954 36.2564 106.352 36.2564V34.8863C106.779 34.8863 107.114 34.7745 107.357 34.551C107.6 34.3275 107.722 34.0215 107.722 33.6328H109.412ZM107.722 28.0649C107.673 27.6567 107.532 27.3507 107.299 27.1466C107.075 26.9425 106.803 26.8405 106.483 26.8405V25.4558C106.978 25.4558 107.42 25.553 107.809 25.7473C108.198 25.9417 108.514 26.2137 108.757 26.5636C109.009 26.9037 109.169 27.3069 109.238 27.7733L107.722 28.0649ZM104.748 33.006C104.797 33.589 104.962 34.0506 105.244 34.3907C105.526 34.7211 105.895 34.8863 106.352 34.8863V36.2564C105.467 36.2564 104.748 35.994 104.194 35.4693C103.65 34.9446 103.325 34.2158 103.218 33.283L104.748 33.006Z" fill="#A3ACB5"/>
<path d="M98.929 36.038V34.6533H102.85V36.038H98.929ZM99.0748 31.5778V30.1785H101.975V31.5778H99.0748ZM97.8213 25.6892H99.5121V36.038H97.8213V25.6892ZM99.0748 25.6892H102.704V27.0593H99.0748V25.6892Z" fill="#A3ACB5"/>
<path d="M94.8936 36.038V25.6892H96.5843V36.038H94.8936Z" fill="#A3ACB5"/>
<path d="M91.5384 36.038L87.4135 25.6892H88.9585L93.0689 36.038H91.5384ZM87.1074 36.038V25.6892H88.7982V36.038H87.1074ZM91.9611 36.038V25.6892H93.6519V36.038H91.9611Z" fill="#A3ACB5"/>
<path d="M81.632 34.1285V32.7438H85.3487V34.1285H81.632ZM84.0952 25.6892L81.5445 36.038H79.8975L82.4482 25.6892H84.0952ZM84.1244 25.6892L86.6606 36.038H85.0135L82.4774 25.6892H84.1244Z" fill="#A3ACB5"/>
<path d="M76.0276 27.0593V25.6892H77.2665V27.0593H76.0276ZM76.0276 32.19V30.8199H77.2665V32.19H76.0276ZM78.622 29.3623V28.5169H80.3128V29.3623H78.622ZM80.3128 28.5315H78.622C78.622 28.065 78.5006 27.7055 78.2576 27.4529C78.0147 27.1905 77.6795 27.0593 77.2519 27.0593V25.6892C77.8544 25.6892 78.384 25.8107 78.8407 26.0536C79.2974 26.2965 79.6569 26.6318 79.9193 27.0593C80.1816 27.4869 80.3128 27.9776 80.3128 28.5315ZM80.3128 29.3477C80.3128 29.9016 80.1816 30.3923 79.9193 30.8199C79.6569 31.2474 79.2974 31.5826 78.8407 31.8256C78.384 32.0685 77.8544 32.19 77.2519 32.19V30.8199C77.6795 30.8199 78.0147 30.6935 78.2576 30.4409C78.5006 30.1785 78.622 29.8141 78.622 29.3477H80.3128ZM74.7012 36.038V25.6892H76.3919V36.038H74.7012Z" fill="#A3ACB5"/>
<path d="M69.0168 36.038L71.3052 25.6892H72.6607L70.3724 36.038H69.0168ZM68.9731 36.038L66.6847 25.6892H68.0403L70.3286 36.038H68.9731ZM65.7373 36.038V25.6892H67.4281V36.038H65.7373ZM71.9174 36.038V25.6892H73.6081V36.038H71.9174Z" fill="#A3ACB5"/>
<path d="M63.0942 33.4288V28.2836H64.7849V33.4288H63.0942ZM58.6777 33.4288V28.2836H60.3685V33.4288H58.6777ZM64.7849 28.3127H63.0942C63.0942 27.8463 62.9727 27.4868 62.7298 27.2341C62.4868 26.9718 62.1516 26.8406 61.724 26.8406V25.4705C62.3265 25.4705 62.8561 25.5919 63.3128 25.8349C63.7695 26.0778 64.129 26.413 64.3914 26.8406C64.6537 27.2681 64.7849 27.7588 64.7849 28.3127ZM58.6777 28.3127C58.6777 27.7588 58.8089 27.2681 59.0713 26.8406C59.3336 26.413 59.6932 26.0778 60.1499 25.8349C60.6163 25.5919 61.1459 25.4705 61.7386 25.4705V26.8406C61.3111 26.8406 60.9758 26.9718 60.7329 27.2341C60.49 27.4868 60.3685 27.8463 60.3685 28.3127H58.6777ZM64.7849 33.4142C64.7849 33.9681 64.6537 34.4588 64.3914 34.8864C64.129 35.3139 63.7695 35.6492 63.3128 35.8921C62.8561 36.135 62.3265 36.2565 61.724 36.2565V34.8718C62.1516 34.8718 62.4868 34.7455 62.7298 34.4928C62.9727 34.2305 63.0942 33.8709 63.0942 33.4142H64.7849ZM58.6777 33.4142H60.3685C60.3685 33.8709 60.49 34.2305 60.7329 34.4928C60.9758 34.7455 61.3111 34.8718 61.7386 34.8718V36.2565C61.1459 36.2565 60.6163 36.135 60.1499 35.8921C59.6932 35.6492 59.3336 35.3139 59.0713 34.8864C58.8089 34.4588 58.6777 33.9681 58.6777 33.4142Z" fill="#A3ACB5"/>
<path d="M51.9893 33.4287V28.2835H53.68V33.4287H51.9893ZM51.9893 28.2981C51.9893 27.7442 52.1204 27.2535 52.3828 26.8259C52.6452 26.3984 53.0047 26.0631 53.4614 25.8202C53.9278 25.5773 54.4574 25.4558 55.0501 25.4558V26.8259C54.6226 26.8259 54.2874 26.9571 54.0444 27.2195C53.8015 27.4721 53.68 27.8316 53.68 28.2981H51.9893ZM51.9893 33.4287H53.68C53.68 33.8854 53.8015 34.245 54.0444 34.5073C54.2874 34.76 54.6226 34.8863 55.0501 34.8863V36.271C54.4574 36.271 53.9278 36.1495 53.4614 35.9066C53.0047 35.6637 52.6452 35.3284 52.3828 34.9009C52.1204 34.4733 51.9893 33.9826 51.9893 33.4287ZM56.6389 28.7062C56.5903 28.1232 56.4251 27.6665 56.1433 27.3361C55.8615 26.996 55.4923 26.8259 55.0356 26.8259V25.4558C55.9198 25.4558 56.6389 25.7182 57.1928 26.2429C57.7466 26.7579 58.0722 27.4867 58.1693 28.4293L56.6389 28.7062ZM56.6389 33.006L58.1693 33.2975C58.0722 34.2304 57.7466 34.9592 57.1928 35.4839C56.6389 36.0086 55.9198 36.271 55.0356 36.271V34.8863C55.4923 34.8863 55.8615 34.7211 56.1433 34.3907C56.4251 34.0603 56.5903 33.5988 56.6389 33.006Z" fill="#A3ACB5"/>
<path d="M45.7999 31.7962V30.4261H48.992V31.7962H45.7999ZM47.3012 33.4433V30.4698H48.992V33.4433H47.3012ZM42.8848 33.4287V28.2835H44.5755V33.4287H42.8848ZM42.8848 28.2981C42.8848 27.7442 43.0159 27.2535 43.2783 26.8259C43.5407 26.3984 43.9002 26.0631 44.3569 25.8202C44.8233 25.5773 45.3529 25.4558 45.9457 25.4558V26.8259C45.5181 26.8259 45.1829 26.9571 44.9399 27.2195C44.697 27.4721 44.5755 27.8316 44.5755 28.2981H42.8848ZM42.8848 33.4287H44.5755C44.5755 33.8854 44.697 34.245 44.9399 34.5073C45.1829 34.76 45.5181 34.8863 45.9457 34.8863V36.271C45.3529 36.271 44.8233 36.1495 44.3569 35.9066C43.9002 35.6637 43.5407 35.3284 43.2783 34.9009C43.0159 34.4733 42.8848 33.9826 42.8848 33.4287ZM47.5344 28.7062C47.4858 28.1232 47.3206 27.6665 47.0388 27.3361C46.757 26.996 46.3878 26.8259 45.9311 26.8259V25.4558C46.8153 25.4558 47.5344 25.7182 48.0883 26.2429C48.6421 26.7579 48.9677 27.4867 49.0648 28.4293L47.5344 28.7062ZM48.992 33.4287C48.992 33.9826 48.8608 34.4733 48.5984 34.9009C48.3361 35.3284 47.9765 35.6637 47.5198 35.9066C47.0631 36.1495 46.5335 36.271 45.9311 36.271V34.8863C46.3586 34.8863 46.6939 34.76 46.9368 34.5073C47.1797 34.245 47.3012 33.8854 47.3012 33.4287H48.992Z" fill="#A3ACB5"/>
<path d="M39.8919 36.038L35.767 25.6892H37.312L41.4224 36.038H39.8919ZM35.4609 36.038V25.6892H37.1517V36.038H35.4609ZM40.3146 36.038V25.6892H42.0054V36.038H40.3146Z" fill="#A3ACB5"/>
<path d="M32.5352 36.038V25.6892H34.2259V36.038H32.5352Z" fill="#A3ACB5"/>
<path d="M27.9711 36.038L25.9888 25.6892H27.4172L29.4724 36.038H27.9711ZM23.3506 36.038L21.3975 25.6892H23.0445L24.9976 36.038H23.3506ZM23.8753 36.038L25.9305 25.6892H27.3589L25.3766 36.038H23.8753ZM28.35 36.038L30.3032 25.6892H31.9502L29.9971 36.038H28.35Z" fill="#A3ACB5"/>
<path d="M19.1166 33.4288V28.2836H20.8074V33.4288H19.1166ZM14.7002 33.4288V28.2836H16.391V33.4288H14.7002ZM20.8074 28.3127H19.1166C19.1166 27.8463 18.9951 27.4868 18.7522 27.2341C18.5093 26.9718 18.1741 26.8406 17.7465 26.8406V25.4705C18.349 25.4705 18.8785 25.5919 19.3352 25.8349C19.792 26.0778 20.1515 26.413 20.4138 26.8406C20.6762 27.2681 20.8074 27.7588 20.8074 28.3127ZM14.7002 28.3127C14.7002 27.7588 14.8314 27.2681 15.0937 26.8406C15.3561 26.413 15.7156 26.0778 16.1723 25.8349C16.6388 25.5919 17.1683 25.4705 17.7611 25.4705V26.8406C17.3335 26.8406 16.9983 26.9718 16.7554 27.2341C16.5124 27.4868 16.391 27.8463 16.391 28.3127H14.7002ZM20.8074 33.4142C20.8074 33.9681 20.6762 34.4588 20.4138 34.8864C20.1515 35.3139 19.792 35.6492 19.3352 35.8921C18.8785 36.135 18.349 36.2565 17.7465 36.2565V34.8718C18.1741 34.8718 18.5093 34.7455 18.7522 34.4928C18.9951 34.2305 19.1166 33.8709 19.1166 33.4142H20.8074ZM14.7002 33.4142H16.391C16.391 33.8709 16.5124 34.2305 16.7554 34.4928C16.9983 34.7455 17.3335 34.8718 17.7611 34.8718V36.2565C17.1683 36.2565 16.6388 36.135 16.1723 35.8921C15.7156 35.6492 15.3561 35.3139 15.0937 34.8864C14.8314 34.4588 14.7002 33.9681 14.7002 33.4142Z" fill="#A3ACB5"/>
<path d="M12.3655 36.038L10.529 31.0822H12.2052L14.0417 36.038H12.3655ZM9.63986 31.8693V30.4846H10.8788V31.8693H9.63986ZM9.63986 27.0593V25.6892H10.8788V27.0593H9.63986ZM12.2343 29.0416V28.5169H13.9251V29.0416H12.2343ZM13.9251 28.5315H12.2343C12.2343 28.065 12.1129 27.7055 11.8699 27.4529C11.627 27.1905 11.2918 27.0593 10.8642 27.0593V25.6892C11.4667 25.6892 11.9963 25.8107 12.453 26.0536C12.9097 26.2965 13.2692 26.6318 13.5316 27.0593C13.7939 27.4869 13.9251 27.9776 13.9251 28.5315ZM13.9251 29.027C13.9251 29.5809 13.7939 30.0716 13.5316 30.4992C13.2692 30.9267 12.9097 31.262 12.453 31.5049C11.9963 31.7478 11.4667 31.8693 10.8642 31.8693V30.4846C11.2918 30.4846 11.627 30.3583 11.8699 30.1056C12.1129 29.8433 12.2343 29.4837 12.2343 29.027H13.9251ZM8.31348 36.038V25.6892H10.0043V36.038H8.31348Z" fill="#A3ACB5"/>
<path d="M4.09775 31.7962V30.4261H7.28981V31.7962H4.09775ZM5.59904 33.4433V30.4698H7.28981V33.4433H5.59904ZM1.18262 33.4287V28.2835H2.87339V33.4287H1.18262ZM1.18262 28.2981C1.18262 27.7442 1.3138 27.2535 1.57616 26.8259C1.83852 26.3984 2.19805 26.0631 2.65476 25.8202C3.12118 25.5773 3.65076 25.4558 4.2435 25.4558V26.8259C3.81595 26.8259 3.48071 26.9571 3.23778 27.2195C2.99486 27.4721 2.87339 27.8316 2.87339 28.2981H1.18262ZM1.18262 33.4287H2.87339C2.87339 33.8854 2.99486 34.245 3.23778 34.5073C3.48071 34.76 3.81595 34.8863 4.2435 34.8863V36.271C3.65076 36.271 3.12118 36.1495 2.65476 35.9066C2.19805 35.6637 1.83852 35.3284 1.57616 34.9009C1.3138 34.4733 1.18262 33.9826 1.18262 33.4287ZM5.83225 28.7062C5.78366 28.1232 5.61847 27.6665 5.33668 27.3361C5.05488 26.996 4.68563 26.8259 4.22893 26.8259V25.4558C5.11318 25.4558 5.83225 25.7182 6.38612 26.2429C6.94 26.7579 7.26552 27.4867 7.36269 28.4293L5.83225 28.7062ZM7.28981 33.4287C7.28981 33.9826 7.15863 34.4733 6.89627 34.9009C6.63391 35.3284 6.27437 35.6637 5.81767 35.9066C5.36097 36.1495 4.83139 36.271 4.22893 36.271V34.8863C4.65648 34.8863 4.99172 34.76 5.23465 34.5073C5.47757 34.245 5.59904 33.8854 5.59904 33.4287H7.28981Z" fill="#A3ACB5"/>
<path d="M38.0385 0.270996C38.4967 0.270996 38.9549 0.411253 39.2821 0.626313L38.997 1.23877C38.651 1.03306 38.2396 0.902152 37.9778 0.902152C37.73 0.902152 37.5617 0.99098 37.5617 1.16864C37.5617 1.77174 39.3055 1.43513 39.3008 2.61328C39.3008 3.25379 38.7445 3.59975 38.0198 3.59975C37.4822 3.59975 36.9445 3.39404 36.5752 3.0808L36.8697 2.4777C37.2063 2.77692 37.6832 2.9686 38.0292 2.9686C38.3331 2.9686 38.5154 2.85639 38.5154 2.65536C38.5154 2.03823 36.7716 2.39822 36.7716 1.23877C36.7716 0.645014 37.2812 0.270996 38.0385 0.270996Z" fill="#A3ACB5"/>
<path d="M35.9475 0.299072C36.1346 0.299072 36.2982 0.429979 36.2982 0.66374C36.2982 0.775945 36.2608 0.869449 36.2 0.953603L35.8868 1.4258H35.5361L35.7325 0.953603C35.6343 0.883474 35.5876 0.78062 35.5876 0.66374C35.5876 0.453355 35.7418 0.299072 35.9475 0.299072Z" fill="#A3ACB5"/>
<path d="M34.2171 2.51952V3.57612H33.4785V2.53822L32.2676 0.303467H33.0109L33.8478 1.77149L34.666 0.303467H35.4093L34.2171 2.51952Z" fill="#A3ACB5"/>
<path d="M32.0104 0.915921H30.2572V1.62655H31.8375V2.23901H30.2572V2.96367H32.0619V3.57612H29.5186V0.303467H32.0104V0.915921Z" fill="#A3ACB5"/>
<path d="M27.7378 0.270996C28.1959 0.270996 28.6541 0.411253 28.9814 0.626313L28.6962 1.23877C28.3502 1.03306 27.9388 0.902152 27.677 0.902152C27.4292 0.902152 27.2609 0.99098 27.2609 1.16864C27.2609 1.77174 29.0047 1.43513 29.0001 2.61328C29.0001 3.25379 28.4437 3.59975 27.7191 3.59975C27.1814 3.59975 26.6438 3.39404 26.2744 3.0808L26.569 2.4777C26.9056 2.77692 27.3824 2.9686 27.7284 2.9686C28.0323 2.9686 28.2146 2.85639 28.2146 2.65536C28.2146 2.03823 26.4708 2.39822 26.4708 1.23877C26.4708 0.645014 26.9804 0.270996 27.7378 0.270996Z" fill="#A3ACB5"/>
<path d="M25.1676 3.57612L24.6486 2.64108H24.5785H23.8959V3.57612H23.1572V0.303467H24.5785C25.4341 0.303467 25.9203 0.714886 25.9203 1.43955C25.9203 1.94447 25.7052 2.30914 25.3078 2.49615L26.0044 3.57612H25.1676ZM23.8959 2.02395H24.5785C24.9852 2.02395 25.219 1.83694 25.219 1.46292C25.219 1.09825 24.9852 0.915921 24.5785 0.915921H23.8959V2.02395Z" fill="#A3ACB5"/>
<path d="M22.527 0.915921H20.7738V1.62655H22.3541V2.23901H20.7738V2.96367H22.5785V3.57612H20.0352V0.303467H22.527V0.915921Z" fill="#A3ACB5"/>
<path d="M19.3734 0.303467V2.52887C19.3734 3.21613 18.9526 3.60885 18.2747 3.60885C17.8353 3.60885 17.4799 3.42184 17.2041 3.09925L17.5454 2.57563C17.7745 2.81874 18.0363 2.94029 18.2373 2.94029C18.4804 2.94029 18.63 2.79069 18.63 2.51017V0.929947H17.5033V0.303467H19.3734Z" fill="#A3ACB5"/>
<path d="M15.0469 3.57612H14.2848L13.6256 1.24319L12.9524 3.57612H12.1903L11.1104 0.303467H11.9051L12.5924 2.77198L13.275 0.303467H13.9996L14.6916 2.77198L15.3741 0.303467H16.1315L15.0469 3.57612Z" fill="#A3ACB5"/>
<path d="M10.8405 0.915921H9.08732V1.62655H10.6675V2.23901H9.08732V2.96367H10.8919V3.57612H8.34863V0.303467H10.8405V0.915921Z" fill="#A3ACB5"/>
<path d="M7.62717 3.57612H6.95394L5.36904 1.47695V3.57612H4.66309V0.303467H5.33632L6.92589 2.40732V0.303467H7.62717V3.57612Z" fill="#A3ACB5"/>
</svg>
