<svg width="70" height="70" viewBox="0 0 70 70" fill="none" xmlns="http://www.w3.org/2000/svg">
<path d="M0 35C0 15.67 15.67 0 35 0C54.33 0 70 15.67 70 35C70 54.33 54.33 70 35 70C15.67 70 0 54.33 0 35Z" fill="#E8F2FC"/>
<path d="M52.923 45.3319V26.9121C52.923 25.7627 52.4664 24.6603 51.6536 23.8475C50.8408 23.0347 49.7384 22.5781 48.589 22.5781H40.6143C40.3532 21.5408 39.9484 20.5452 39.4116 19.6201C38.3773 17.7794 36.8842 16.2378 35.0775 15.1452C34.9128 15.0501 34.726 15 34.5358 15C34.3456 15 34.1587 15.0501 33.994 15.1452C31.222 16.7874 29.2122 19.4594 28.4031 22.5781H20.4176C19.2681 22.5781 18.1657 23.0347 17.3529 23.8475C16.5401 24.6603 16.0835 25.7627 16.0835 26.9121V45.3319C15.7961 45.3319 15.5206 45.446 15.3174 45.6492C15.1142 45.8524 15 46.128 15 46.4154V49.6659C15 50.8154 15.4566 51.9178 16.2694 52.7306C17.0822 53.5434 18.1846 54 19.3341 54H49.6725C50.8219 54 51.9243 53.5434 52.7371 52.7306C53.5499 51.9178 54.0065 50.8154 54.0065 49.6659V46.4154C54.0065 46.128 53.8924 45.8524 53.6892 45.6492C53.486 45.446 53.2104 45.3319 52.923 45.3319ZM34.5033 26.9121C35.1462 26.9121 35.7746 27.1028 36.3092 27.4599C36.8437 27.8171 37.2604 28.3248 37.5064 28.9187C37.7524 29.5127 37.8168 30.1663 37.6914 30.7968C37.5659 31.4274 37.2563 32.0066 36.8017 32.4612C36.3472 32.9158 35.768 33.2253 35.1374 33.3508C34.5069 33.4762 33.8533 33.4118 33.2593 33.1658C32.6654 32.9198 32.1577 32.5031 31.8005 31.9686C31.4434 31.434 31.2527 30.8056 31.2527 30.1627C31.2527 29.3006 31.5952 28.4738 32.2048 27.8642C32.8144 27.2546 33.6412 26.9121 34.5033 26.9121ZM40.8202 50.2619C40.722 50.4109 40.5886 50.5334 40.4317 50.6185C40.2748 50.7035 40.0993 50.7485 39.9208 50.7495H29.0857C28.9072 50.7485 28.7318 50.7035 28.5749 50.6185C28.418 50.5334 28.2845 50.4109 28.1864 50.2619L26.3444 47.4989H28.9448L29.6708 48.5824H39.3357L40.0617 47.4989H42.6621L40.8202 50.2619ZM50.756 45.3319H18.2505V26.9121C18.2505 26.3374 18.4789 25.7862 18.8853 25.3798C19.2916 24.9734 19.8428 24.7451 20.4176 24.7451H28.0022C28.0022 24.7993 28.0022 24.8535 28.0022 24.9076C28.0022 25.1568 28.0022 25.406 28.0022 25.6444V29.1767C26.4884 29.4325 25.1141 30.2159 24.1225 31.3879C23.131 32.5599 22.5862 34.045 22.5846 35.5802V38.8308C22.5846 39.1182 22.6988 39.3938 22.902 39.597C23.1052 39.8002 23.3808 39.9143 23.6681 39.9143C23.8055 39.9163 23.9419 39.8905 24.069 39.8385L28.9557 37.8773C29.3923 38.3154 29.9448 38.6199 30.5484 38.7549L31.9137 41.4854C32.0037 41.6641 32.1415 41.8144 32.3117 41.9195C32.4819 42.0247 32.6779 42.0807 32.878 42.0813H36.1285C36.3286 42.0807 36.5246 42.0247 36.6949 41.9195C36.8651 41.8144 37.0028 41.6641 37.0929 41.4854L38.4581 38.7549C39.0617 38.6199 39.6143 38.3154 40.0509 37.8773L44.9375 39.8385C45.0647 39.8905 45.201 39.9163 45.3384 39.9143C45.6258 39.9143 45.9014 39.8002 46.1046 39.597C46.3078 39.3938 46.4219 39.1182 46.4219 38.8308V35.5802C46.4204 34.045 45.8756 32.5599 44.884 31.3879C43.8924 30.2159 42.5181 29.4325 41.0044 29.1767V25.6444C41.0044 25.3519 41.0044 25.0485 41.0044 24.7451H48.589C49.1637 24.7451 49.7149 24.9734 50.1213 25.3798C50.5277 25.7862 50.756 26.3374 50.756 26.9121V45.3319Z" fill="#4361EE"/>
<path d="M38.8371 44.2481C39.4355 44.2481 39.9206 43.763 39.9206 43.1646C39.9206 42.5662 39.4355 42.0811 38.8371 42.0811C38.2386 42.0811 37.7535 42.5662 37.7535 43.1646C37.7535 43.763 38.2386 44.2481 38.8371 44.2481Z" fill="#4361EE"/>
<path d="M43.171 44.2481C43.7694 44.2481 44.2545 43.763 44.2545 43.1646C44.2545 42.5662 43.7694 42.0811 43.171 42.0811C42.5726 42.0811 42.0875 42.5662 42.0875 43.1646C42.0875 43.763 42.5726 44.2481 43.171 44.2481Z" fill="#4361EE"/>
<path d="M47.5051 44.2481C48.1036 44.2481 48.5887 43.763 48.5887 43.1646C48.5887 42.5662 48.1036 42.0811 47.5051 42.0811C46.9067 42.0811 46.4216 42.5662 46.4216 43.1646C46.4216 43.763 46.9067 44.2481 47.5051 44.2481Z" fill="#4361EE"/>
</svg>
