<svg width="50" height="50" viewBox="0 0 50 50" fill="none" xmlns="http://www.w3.org/2000/svg">
<path d="M35.3516 10.3516H5.85938C4.24131 10.3516 2.92969 11.6632 2.92969 13.2812C2.92969 14.8991 4.24131 16.2109 5.85938 16.2109H14.7461C16.3642 16.2109 17.6758 17.5226 17.6758 19.1406C17.6758 20.7585 16.3642 22.0703 14.7461 22.0703H8.78906C7.171 22.0703 5.85938 23.3819 5.85938 25C5.85938 26.6179 7.171 27.9297 8.78906 27.9297H14.7461C16.3642 27.9297 17.6758 29.2413 17.6758 30.8594C17.6758 32.4772 16.3642 33.7891 14.7461 33.7891H2.92969C1.31162 33.7891 0 35.1007 0 36.7188C0 38.3366 1.31162 39.6484 2.92969 39.6484H35.3516C43.4416 39.6484 50 33.09 50 25C50 16.91 43.4416 10.3516 35.3516 10.3516ZM35.3516 35.2539C29.6981 35.2539 25.0977 30.6534 25.0977 25C25.0977 19.3466 29.6981 14.7461 35.3516 14.7461C41.005 14.7461 45.6055 19.3466 45.6055 25C45.6055 30.6534 41.005 35.2539 35.3516 35.2539Z" fill="#A3ACB5"/>
<path d="M35.3516 17.6758C31.3132 17.6758 28.0273 20.9616 28.0273 25C28.0273 29.0384 31.3132 32.3242 35.3516 32.3242C39.3899 32.3242 42.6758 29.0384 42.6758 25C42.6758 20.9616 39.3899 17.6758 35.3516 17.6758ZM39.7461 26.4648H33.8867V20.6055H36.8164V23.5352H39.7461V26.4648Z" fill="#A3ACB5"/>
</svg>
