<svg width="50" height="50" viewBox="0 0 50 50" fill="none" xmlns="http://www.w3.org/2000/svg">
<path d="M25 0.5C38.531 0.5 49.5 11.469 49.5 25C49.5 38.531 38.531 49.5 25 49.5C11.469 49.5 0.5 38.531 0.5 25C0.5 11.469 11.469 0.5 25 0.5Z" fill="#0D0D0D"/>
<path d="M25 0.5C38.531 0.5 49.5 11.469 49.5 25C49.5 38.531 38.531 49.5 25 49.5C11.469 49.5 0.5 38.531 0.5 25C0.5 11.469 11.469 0.5 25 0.5Z" stroke="#282828"/>
<path d="M30.9821 10.7227H26.9066C24.4881 10.7227 21.7979 11.7598 21.7979 15.3342C21.8097 16.5796 21.7979 17.7724 21.7979 19.1148H19V23.6543H21.8845V36.7227H27.185V23.568H30.6835L31 19.1021H27.0936C27.0936 19.1021 27.1024 17.1154 27.0936 16.5385C27.0936 15.126 28.5352 15.2068 28.6219 15.2068C29.3079 15.2068 30.6417 15.2089 30.9841 15.2068V10.7227H30.9821Z" fill="#A3ACB5"/>
</svg>
