<svg width="100" height="100" viewBox="0 0 100 100" fill="none" xmlns="http://www.w3.org/2000/svg">
<g id="Group 6">
<path id="Ellipse 1" d="M100 50C100 77.6142 77.6142 100 50 100C22.3858 100 0 77.6142 0 50C0 22.3858 22.3858 0 50 0C77.6142 0 100 22.3858 100 50Z" fill="#FF5D00" fill-opacity="0.1"/>
<g id="secure 1">
<path id="Vector" d="M54.5 38.75C54.5 36.275 52.475 34.25 50 34.25C47.525 34.25 45.5 36.275 45.5 38.75V43.25H54.5V38.75Z" fill="#FF5D00"/>
<path id="Vector_2" d="M23 29.7504V47.7504C23 66.4254 32.9 72.0504 46.4 79.7004L48.875 81.0504C49.325 81.5004 49.55 81.5004 50 81.5004C50.45 81.5004 50.675 81.5004 51.125 81.2754L53.6 79.9254C67.1 72.0504 77 66.4254 77 47.7504V29.7504C77 28.8504 76.325 27.9504 75.425 27.7254L50.675 18.7254C50.225 18.5004 49.55 18.5004 49.1 18.7254L24.35 27.7254C23.675 27.9504 23 28.8504 23 29.7504ZM36.5 50.0004C36.5 47.0754 38.3 44.6004 41 43.7004V38.7504C41 33.8004 45.05 29.7504 50 29.7504C54.95 29.7504 59 33.8004 59 38.7504V43.7004C61.7 44.6004 63.5 47.0754 63.5 50.0004V56.7504C63.5 64.1754 57.425 70.2504 50 70.2504C42.575 70.2504 36.5 64.1754 36.5 56.7504V50.0004Z" fill="#FF5D00"/>
<path id="Vector_3" d="M50 50C48.65 50 47.75 50.9 47.75 52.25V56.75C47.75 58.1 48.65 59 50 59C51.35 59 52.25 58.1 52.25 56.75V52.25C52.25 50.9 51.35 50 50 50Z" fill="#FF5D00"/>
</g>
</g>
</svg>
