<svg width="383" height="51" viewBox="0 0 383 51" fill="none" xmlns="http://www.w3.org/2000/svg">
<g clip-path="url(#clip0_5224_19472)">
<path d="M11 40.7104L11.2928 40.3022L25.1057 14.099L25.135 13.8217L19.0466 2.38553C18.9352 2.1764 18.7608 2.00762 18.5481 1.90305C18.3355 1.79848 18.0953 1.76343 17.8616 1.80285C17.6279 1.84228 17.4126 1.95417 17.246 2.12272C17.0794 2.29127 16.97 2.50793 16.9334 2.74205L11 40.7104Z" fill="#FFC24A"/>
<path d="M11.1738 40.4L11.3943 39.9694L25.0643 14.0383L18.9914 2.55738C18.8912 2.35772 18.7291 2.19588 18.5293 2.09611C18.3294 1.99634 18.1026 1.96402 17.8828 2.00397C17.6631 2.04393 17.4622 2.15402 17.3102 2.31775C17.1583 2.48149 17.0635 2.69004 17.04 2.91218L11.1738 40.4Z" fill="#FFA712"/>
<path d="M29.575 22.4714L34.1081 17.8212L29.5732 9.17346C29.4734 8.98734 29.325 8.83178 29.1438 8.72334C28.9626 8.61489 28.7554 8.55762 28.5442 8.55762C28.333 8.55762 28.1257 8.61489 27.9445 8.72334C27.7633 8.83178 27.6149 8.98734 27.5151 9.17346L25.0918 13.7927V14.1871L29.575 22.4714Z" fill="#F4BD62"/>
<path d="M29.4942 22.2815L33.9016 17.769L29.4942 9.36416C29.422 9.18223 29.2988 9.02505 29.1394 8.91157C28.9799 8.79809 28.791 8.73316 28.5955 8.7246C28.4 8.71605 28.2062 8.76423 28.0374 8.86335C27.8686 8.96246 27.7322 9.10828 27.6444 9.28321L25.2091 13.9834L25.1367 14.2228L29.4942 22.2815Z" fill="#FFA50E"/>
<path d="M11.0039 40.7121L11.1365 40.5778L11.617 40.3832L29.288 22.7777L29.5119 22.168L25.1045 13.7666L11.0039 40.7121Z" fill="#F6820C"/>
<path d="M30.1383 49.5902L46.1351 40.6703L41.5641 12.5433C41.5314 12.345 41.4446 12.1596 41.3133 12.0074C41.1821 11.8552 41.0115 11.7421 40.8202 11.6805C40.6289 11.619 40.4243 11.6113 40.2289 11.6584C40.0335 11.7054 39.8549 11.8054 39.7126 11.9474L11 40.71L26.9021 49.5885C27.3965 49.8643 27.9532 50.0092 28.5193 50.0092C29.0855 50.0092 29.6422 49.8643 30.1366 49.5885" fill="#FDE068"/>
<path d="M46.1351 40.561L41.5605 12.8345C41.5524 12.6462 41.4878 12.4644 41.3747 12.3122C41.2616 12.16 41.1052 12.0443 40.9253 11.9796C40.7453 11.915 40.5499 11.9043 40.3638 11.949C40.1777 11.9937 40.0093 12.0917 39.8798 12.2307L11 40.6209L26.8703 49.3453C27.3653 49.6171 27.9226 49.7597 28.4894 49.7597C29.0561 49.7597 29.6134 49.6171 30.1084 49.3453L46.1351 40.561Z" fill="#FCCA3F"/>
<path d="M30.1383 49.322C29.6439 49.5978 29.0872 49.7427 28.5211 49.7427C27.9549 49.7427 27.3982 49.5978 26.9038 49.322L11.1309 40.5761L11 40.7104L26.9021 49.5889C27.3965 49.8648 27.9532 50.0096 28.5193 50.0096C29.0855 50.0096 29.6422 49.8648 30.1366 49.5889L46.1351 40.6708L46.0955 40.4297L30.1383 49.322Z" fill="#EEAB37"/>
</g>
<path d="M71.7614 32.7871V18.2417H80.483V19.8042H73.5227V24.7189H79.8295V26.2814H73.5227V32.7871H71.7614ZM83.2724 32.7871V21.878H84.9485V32.7871H83.2724ZM84.1246 20.0598C83.7979 20.0598 83.5162 19.9486 83.2795 19.726C83.0475 19.5035 82.9315 19.236 82.9315 18.9235C82.9315 18.611 83.0475 18.3435 83.2795 18.1209C83.5162 17.8984 83.7979 17.7871 84.1246 17.7871C84.4513 17.7871 84.7307 17.8984 84.9627 18.1209C85.1995 18.3435 85.3178 18.611 85.3178 18.9235C85.3178 19.236 85.1995 19.5035 84.9627 19.726C84.7307 19.9486 84.4513 20.0598 84.1246 20.0598ZM88.0185 32.7871V21.878H89.6378V23.5257H89.7514C89.9503 22.986 90.3101 22.548 90.831 22.2118C91.3518 21.8757 91.9389 21.7076 92.5923 21.7076C92.7154 21.7076 92.8693 21.7099 93.054 21.7147C93.2386 21.7194 93.3783 21.7265 93.473 21.736V23.4405C93.4162 23.4263 93.286 23.405 93.0824 23.3766C92.8835 23.3435 92.6728 23.3269 92.4503 23.3269C91.92 23.3269 91.4465 23.4382 91.0298 23.6607C90.6179 23.8785 90.2912 24.1815 90.0497 24.5698C89.813 24.9533 89.6946 25.3913 89.6946 25.8837V32.7871H88.0185ZM99.7017 33.0144C98.6506 33.0144 97.7438 32.7824 96.9815 32.3184C96.224 31.8496 95.6392 31.1962 95.2273 30.3581C94.8201 29.5153 94.6165 28.5352 94.6165 27.4178C94.6165 26.3004 94.8201 25.3155 95.2273 24.4632C95.6392 23.6062 96.2121 22.9386 96.946 22.4604C97.6847 21.9775 98.5464 21.736 99.5312 21.736C100.099 21.736 100.661 21.8307 101.214 22.0201C101.768 22.2095 102.273 22.5172 102.727 22.9434C103.182 23.3648 103.544 23.9235 103.814 24.6195C104.084 25.3155 104.219 26.1725 104.219 27.1905V27.9007H95.8097V26.4519H102.514C102.514 25.8364 102.391 25.2871 102.145 24.8042C101.903 24.3212 101.558 23.94 101.108 23.6607C100.663 23.3813 100.137 23.2417 99.5312 23.2417C98.8636 23.2417 98.286 23.4074 97.7983 23.7388C97.3153 24.0655 96.9437 24.4917 96.6832 25.0172C96.4228 25.5428 96.2926 26.1062 96.2926 26.7076V27.6735C96.2926 28.4973 96.4347 29.1957 96.7188 29.7686C97.0076 30.3368 97.4077 30.7701 97.919 31.0684C98.4304 31.3619 99.0246 31.5087 99.7017 31.5087C100.142 31.5087 100.54 31.4471 100.895 31.324C101.255 31.1962 101.565 31.0068 101.825 30.7559C102.086 30.5002 102.287 30.1829 102.429 29.8042L104.048 30.2587C103.878 30.8079 103.591 31.2909 103.189 31.7076C102.786 32.1195 102.289 32.4415 101.697 32.6735C101.106 32.9007 100.44 33.0144 99.7017 33.0144ZM106.996 32.7871V18.2417H108.672V23.611H108.814C108.937 23.4216 109.107 23.1801 109.325 22.8865C109.548 22.5882 109.865 22.3231 110.277 22.0911C110.694 21.8543 111.257 21.736 111.967 21.736C112.886 21.736 113.696 21.9656 114.396 22.4249C115.097 22.8842 115.644 23.5352 116.037 24.378C116.43 25.2208 116.626 26.2151 116.626 27.361C116.626 28.5163 116.43 29.5177 116.037 30.3652C115.644 31.208 115.099 31.8614 114.403 32.3255C113.707 32.7847 112.905 33.0144 111.996 33.0144C111.295 33.0144 110.734 32.8984 110.312 32.6664C109.891 32.4296 109.567 32.1621 109.339 31.8638C109.112 31.5608 108.937 31.3098 108.814 31.111H108.615V32.7871H106.996ZM108.643 27.3326C108.643 28.1564 108.764 28.8832 109.006 29.513C109.247 30.138 109.6 30.628 110.064 30.9831C110.528 31.3335 111.096 31.5087 111.768 31.5087C112.469 31.5087 113.054 31.324 113.523 30.9547C113.996 30.5807 114.351 30.0788 114.588 29.449C114.83 28.8146 114.95 28.1091 114.95 27.3326C114.95 26.5655 114.832 25.8742 114.595 25.2587C114.363 24.6384 114.01 24.1484 113.537 23.7885C113.068 23.4239 112.479 23.2417 111.768 23.2417C111.087 23.2417 110.514 23.4145 110.05 23.7601C109.586 24.101 109.235 24.5792 108.999 25.1948C108.762 25.8056 108.643 26.5182 108.643 27.3326ZM122.401 33.0428C121.709 33.0428 121.082 32.9126 120.518 32.6522C119.955 32.387 119.508 32.0059 119.176 31.5087C118.845 31.0068 118.679 30.4007 118.679 29.6905C118.679 29.0655 118.802 28.5589 119.048 28.1706C119.295 27.7776 119.624 27.4699 120.036 27.2473C120.447 27.0248 120.902 26.8591 121.399 26.7502C121.901 26.6365 122.405 26.5466 122.912 26.4803C123.575 26.3951 124.112 26.3311 124.524 26.2885C124.941 26.2412 125.244 26.1631 125.433 26.0542C125.627 25.9453 125.724 25.7559 125.724 25.486V25.4292C125.724 24.7284 125.533 24.1839 125.149 23.7956C124.77 23.4074 124.195 23.2132 123.423 23.2132C122.623 23.2132 121.996 23.3884 121.541 23.7388C121.087 24.0892 120.767 24.4632 120.582 24.861L118.991 24.2928C119.276 23.6299 119.654 23.1138 120.128 22.7445C120.606 22.3704 121.127 22.11 121.69 21.9632C122.259 21.8117 122.817 21.736 123.366 21.736C123.717 21.736 124.119 21.7786 124.574 21.8638C125.033 21.9443 125.476 22.1124 125.902 22.3681C126.333 22.6238 126.69 23.0096 126.974 23.5257C127.259 24.0418 127.401 24.7331 127.401 25.5996V32.7871H125.724V31.3098H125.639C125.526 31.5466 125.336 31.7999 125.071 32.0698C124.806 32.3397 124.453 32.5693 124.013 32.7587C123.572 32.9481 123.035 33.0428 122.401 33.0428ZM122.656 31.5371C123.319 31.5371 123.878 31.4069 124.332 31.1465C124.792 30.8861 125.137 30.5499 125.369 30.138C125.606 29.726 125.724 29.2928 125.724 28.8382V27.3042C125.653 27.3894 125.497 27.4675 125.256 27.5385C125.019 27.6048 124.744 27.664 124.432 27.7161C124.124 27.7634 123.823 27.806 123.53 27.8439C123.241 27.8771 123.007 27.9055 122.827 27.9292C122.391 27.986 121.984 28.0783 121.605 28.2061C121.231 28.3292 120.928 28.5163 120.696 28.7672C120.469 29.0134 120.355 29.3496 120.355 29.7757C120.355 30.3581 120.571 30.7985 121.001 31.0968C121.437 31.3903 121.989 31.5371 122.656 31.5371ZM138.187 24.3212L136.681 24.7473C136.587 24.4964 136.447 24.2525 136.262 24.0158C136.083 23.7743 135.836 23.5755 135.524 23.4192C135.211 23.263 134.811 23.1848 134.324 23.1848C133.656 23.1848 133.1 23.3387 132.654 23.6465C132.214 23.9495 131.994 24.3354 131.994 24.8042C131.994 25.2208 132.145 25.5499 132.449 25.7914C132.752 26.0328 133.225 26.2341 133.869 26.3951L135.488 26.7928C136.464 27.0295 137.19 27.3917 137.669 27.8794C138.147 28.3624 138.386 28.985 138.386 29.7473C138.386 30.3723 138.206 30.931 137.846 31.4235C137.491 31.9159 136.994 32.3042 136.355 32.5882C135.716 32.8723 134.972 33.0144 134.125 33.0144C133.012 33.0144 132.091 32.7729 131.362 32.29C130.633 31.807 130.171 31.1015 129.977 30.1735L131.568 29.7757C131.719 30.3629 132.006 30.8032 132.427 31.0968C132.853 31.3903 133.41 31.5371 134.096 31.5371C134.877 31.5371 135.498 31.3714 135.957 31.04C136.421 30.7038 136.653 30.3013 136.653 29.8326C136.653 29.4538 136.52 29.1365 136.255 28.8809C135.99 28.6204 135.583 28.4263 135.034 28.2985L133.216 27.8723C132.217 27.6356 131.483 27.2686 131.014 26.7715C130.55 26.2696 130.318 25.6422 130.318 24.8894C130.318 24.2739 130.491 23.7293 130.836 23.2559C131.187 22.7824 131.663 22.4107 132.264 22.1408C132.87 21.8709 133.556 21.736 134.324 21.736C135.403 21.736 136.251 21.9727 136.866 22.4462C137.486 22.9197 137.927 23.5447 138.187 24.3212ZM145.483 33.0144C144.432 33.0144 143.525 32.7824 142.763 32.3184C142.005 31.8496 141.42 31.1962 141.009 30.3581C140.601 29.5153 140.398 28.5352 140.398 27.4178C140.398 26.3004 140.601 25.3155 141.009 24.4632C141.42 23.6062 141.993 22.9386 142.727 22.4604C143.466 21.9775 144.328 21.736 145.312 21.736C145.881 21.736 146.442 21.8307 146.996 22.0201C147.55 22.2095 148.054 22.5172 148.509 22.9434C148.963 23.3648 149.325 23.9235 149.595 24.6195C149.865 25.3155 150 26.1725 150 27.1905V27.9007H141.591V26.4519H148.295C148.295 25.8364 148.172 25.2871 147.926 24.8042C147.685 24.3212 147.339 23.94 146.889 23.6607C146.444 23.3813 145.919 23.2417 145.312 23.2417C144.645 23.2417 144.067 23.4074 143.58 23.7388C143.097 24.0655 142.725 24.4917 142.464 25.0172C142.204 25.5428 142.074 26.1062 142.074 26.7076V27.6735C142.074 28.4973 142.216 29.1957 142.5 29.7686C142.789 30.3368 143.189 30.7701 143.7 31.0684C144.212 31.3619 144.806 31.5087 145.483 31.5087C145.923 31.5087 146.321 31.4471 146.676 31.324C147.036 31.1962 147.346 31.0068 147.607 30.7559C147.867 30.5002 148.068 30.1829 148.21 29.8042L149.83 30.2587C149.659 30.8079 149.373 31.2909 148.97 31.7076C148.568 32.1195 148.071 32.4415 147.479 32.6735C146.887 32.9007 146.222 33.0144 145.483 33.0144ZM170.107 22.7871H168.345C168.241 22.2805 168.059 21.8354 167.798 21.4519C167.543 21.0684 167.23 20.7464 166.861 20.486C166.496 20.2208 166.091 20.022 165.646 19.8894C165.201 19.7568 164.737 19.6905 164.254 19.6905C163.374 19.6905 162.576 19.9131 161.861 20.3581C161.151 20.8032 160.585 21.459 160.163 22.3255C159.747 23.1919 159.538 24.2549 159.538 25.5144C159.538 26.7739 159.747 27.8368 160.163 28.7033C160.585 29.5698 161.151 30.2256 161.861 30.6706C162.576 31.1157 163.374 31.3382 164.254 31.3382C164.737 31.3382 165.201 31.272 165.646 31.1394C166.091 31.0068 166.496 30.8103 166.861 30.5499C167.23 30.2847 167.543 29.9604 167.798 29.5769C168.059 29.1886 168.241 28.7435 168.345 28.2417H170.107C169.974 28.985 169.732 29.6503 169.382 30.2374C169.032 30.8245 168.596 31.324 168.075 31.736C167.554 32.1432 166.97 32.4533 166.321 32.6664C165.677 32.8794 164.988 32.986 164.254 32.986C163.014 32.986 161.911 32.6829 160.945 32.0769C159.979 31.4708 159.219 30.6091 158.665 29.4917C158.111 28.3742 157.834 27.0485 157.834 25.5144C157.834 23.9803 158.111 22.6545 158.665 21.5371C159.219 20.4197 159.979 19.5579 160.945 18.9519C161.911 18.3458 163.014 18.0428 164.254 18.0428C164.988 18.0428 165.677 18.1493 166.321 18.3624C166.97 18.5755 167.554 18.888 168.075 19.2999C168.596 19.7071 169.032 20.2042 169.382 20.7914C169.732 21.3738 169.974 22.039 170.107 22.7871ZM174.402 18.2417V32.7871H172.725V18.2417H174.402ZM181.903 33.0144C180.919 33.0144 180.054 32.78 179.311 32.3113C178.572 31.8425 177.995 31.1867 177.578 30.3439C177.166 29.5011 176.96 28.5163 176.96 27.3894C176.96 26.253 177.166 25.2611 177.578 24.4135C177.995 23.566 178.572 22.9078 179.311 22.4391C180.054 21.9703 180.919 21.736 181.903 21.736C182.888 21.736 183.75 21.9703 184.489 22.4391C185.232 22.9078 185.81 23.566 186.222 24.4135C186.638 25.2611 186.847 26.253 186.847 27.3894C186.847 28.5163 186.638 29.5011 186.222 30.3439C185.81 31.1867 185.232 31.8425 184.489 32.3113C183.75 32.78 182.888 33.0144 181.903 33.0144ZM181.903 31.5087C182.652 31.5087 183.267 31.3169 183.75 30.9334C184.233 30.5499 184.59 30.0456 184.822 29.4206C185.054 28.7956 185.17 28.1185 185.17 27.3894C185.17 26.6602 185.054 25.9808 184.822 25.351C184.59 24.7213 184.233 24.2123 183.75 23.824C183.267 23.4358 182.652 23.2417 181.903 23.2417C181.155 23.2417 180.54 23.4358 180.057 23.824C179.574 24.2123 179.216 24.7213 178.984 25.351C178.752 25.9808 178.636 26.6602 178.636 27.3894C178.636 28.1185 178.752 28.7956 178.984 29.4206C179.216 30.0456 179.574 30.5499 180.057 30.9334C180.54 31.3169 181.155 31.5087 181.903 31.5087ZM196.28 28.3269V21.878H197.956V32.7871H196.28V30.9405H196.167C195.911 31.4945 195.513 31.9656 194.973 32.3539C194.434 32.7374 193.752 32.9292 192.928 32.9292C192.246 32.9292 191.64 32.78 191.11 32.4817C190.579 32.1787 190.163 31.7241 189.86 31.1181C189.557 30.5073 189.405 29.7379 189.405 28.8098V21.878H191.081V28.6962C191.081 29.4917 191.304 30.1261 191.749 30.5996C192.199 31.0731 192.772 31.3098 193.468 31.3098C193.884 31.3098 194.308 31.2033 194.739 30.9902C195.175 30.7772 195.539 30.4505 195.833 30.0101C196.131 29.5698 196.28 29.0087 196.28 28.3269ZM205.146 33.0144C204.237 33.0144 203.434 32.7847 202.738 32.3255C202.042 31.8614 201.497 31.208 201.104 30.3652C200.711 29.5177 200.515 28.5163 200.515 27.361C200.515 26.2151 200.711 25.2208 201.104 24.378C201.497 23.5352 202.044 22.8842 202.745 22.4249C203.446 21.9656 204.255 21.736 205.174 21.736C205.884 21.736 206.445 21.8543 206.857 22.0911C207.274 22.3231 207.591 22.5882 207.809 22.8865C208.031 23.1801 208.204 23.4216 208.327 23.611H208.469V18.2417H210.146V32.7871H208.526V31.111H208.327C208.204 31.3098 208.029 31.5608 207.802 31.8638C207.575 32.1621 207.25 32.4296 206.829 32.6664C206.407 32.8984 205.846 33.0144 205.146 33.0144ZM205.373 31.5087C206.045 31.5087 206.613 31.3335 207.077 30.9831C207.541 30.628 207.894 30.138 208.136 29.513C208.377 28.8832 208.498 28.1564 208.498 27.3326C208.498 26.5182 208.379 25.8056 208.143 25.1948C207.906 24.5792 207.556 24.101 207.092 23.7601C206.628 23.4145 206.055 23.2417 205.373 23.2417C204.663 23.2417 204.071 23.4239 203.597 23.7885C203.129 24.1484 202.776 24.6384 202.539 25.2587C202.307 25.8742 202.191 26.5655 202.191 27.3326C202.191 28.1091 202.309 28.8146 202.546 29.449C202.788 30.0788 203.143 30.5807 203.612 30.9547C204.085 31.324 204.672 31.5087 205.373 31.5087ZM219.3 18.2417H221.403L226.346 30.3155H226.516L231.46 18.2417H233.562V32.7871H231.914V21.736H231.772L227.227 32.7871H225.636L221.09 21.736H220.948V32.7871H219.3V18.2417ZM241.44 33.0144C240.389 33.0144 239.482 32.7824 238.72 32.3184C237.962 31.8496 237.377 31.1962 236.966 30.3581C236.558 29.5153 236.355 28.5352 236.355 27.4178C236.355 26.3004 236.558 25.3155 236.966 24.4632C237.377 23.6062 237.95 22.9386 238.684 22.4604C239.423 21.9775 240.285 21.736 241.27 21.736C241.838 21.736 242.399 21.8307 242.953 22.0201C243.507 22.2095 244.011 22.5172 244.466 22.9434C244.92 23.3648 245.282 23.9235 245.552 24.6195C245.822 25.3155 245.957 26.1725 245.957 27.1905V27.9007H237.548V26.4519H244.252C244.252 25.8364 244.129 25.2871 243.883 24.8042C243.642 24.3212 243.296 23.94 242.846 23.6607C242.401 23.3813 241.876 23.2417 241.27 23.2417C240.602 23.2417 240.024 23.4074 239.537 23.7388C239.054 24.0655 238.682 24.4917 238.422 25.0172C238.161 25.5428 238.031 26.1062 238.031 26.7076V27.6735C238.031 28.4973 238.173 29.1957 238.457 29.7686C238.746 30.3368 239.146 30.7701 239.657 31.0684C240.169 31.3619 240.763 31.5087 241.44 31.5087C241.88 31.5087 242.278 31.4471 242.633 31.324C242.993 31.1962 243.303 31.0068 243.564 30.7559C243.824 30.5002 244.025 30.1829 244.167 29.8042L245.787 30.2587C245.616 30.8079 245.33 31.2909 244.927 31.7076C244.525 32.1195 244.028 32.4415 243.436 32.6735C242.844 32.9007 242.179 33.0144 241.44 33.0144ZM256.234 24.3212L254.728 24.7473C254.634 24.4964 254.494 24.2525 254.309 24.0158C254.129 23.7743 253.883 23.5755 253.571 23.4192C253.258 23.263 252.858 23.1848 252.37 23.1848C251.703 23.1848 251.146 23.3387 250.701 23.6465C250.261 23.9495 250.041 24.3354 250.041 24.8042C250.041 25.2208 250.192 25.5499 250.495 25.7914C250.798 26.0328 251.272 26.2341 251.916 26.3951L253.535 26.7928C254.511 27.0295 255.237 27.3917 255.716 27.8794C256.194 28.3624 256.433 28.985 256.433 29.7473C256.433 30.3723 256.253 30.931 255.893 31.4235C255.538 31.9159 255.041 32.3042 254.402 32.5882C253.762 32.8723 253.019 33.0144 252.172 33.0144C251.059 33.0144 250.138 32.7729 249.409 32.29C248.68 31.807 248.218 31.1015 248.024 30.1735L249.615 29.7757C249.766 30.3629 250.053 30.8032 250.474 31.0968C250.9 31.3903 251.457 31.5371 252.143 31.5371C252.924 31.5371 253.545 31.3714 254.004 31.04C254.468 30.7038 254.7 30.3013 254.7 29.8326C254.7 29.4538 254.567 29.1365 254.302 28.8809C254.037 28.6204 253.63 28.4263 253.081 28.2985L251.262 27.8723C250.263 27.6356 249.529 27.2686 249.061 26.7715C248.597 26.2696 248.365 25.6422 248.365 24.8894C248.365 24.2739 248.538 23.7293 248.883 23.2559C249.234 22.7824 249.709 22.4107 250.311 22.1408C250.917 21.8709 251.603 21.736 252.37 21.736C253.45 21.736 254.297 21.9727 254.913 22.4462C255.533 22.9197 255.974 23.5447 256.234 24.3212ZM266.683 24.3212L265.178 24.7473C265.083 24.4964 264.943 24.2525 264.759 24.0158C264.579 23.7743 264.332 23.5755 264.02 23.4192C263.707 23.263 263.307 23.1848 262.82 23.1848C262.152 23.1848 261.596 23.3387 261.151 23.6465C260.71 23.9495 260.49 24.3354 260.49 24.8042C260.49 25.2208 260.642 25.5499 260.945 25.7914C261.248 26.0328 261.721 26.2341 262.365 26.3951L263.984 26.7928C264.96 27.0295 265.687 27.3917 266.165 27.8794C266.643 28.3624 266.882 28.985 266.882 29.7473C266.882 30.3723 266.702 30.931 266.342 31.4235C265.987 31.9159 265.49 32.3042 264.851 32.5882C264.212 32.8723 263.468 33.0144 262.621 33.0144C261.508 33.0144 260.587 32.7729 259.858 32.29C259.129 31.807 258.667 31.1015 258.473 30.1735L260.064 29.7757C260.215 30.3629 260.502 30.8032 260.923 31.0968C261.349 31.3903 261.906 31.5371 262.592 31.5371C263.374 31.5371 263.994 31.3714 264.453 31.04C264.917 30.7038 265.149 30.3013 265.149 29.8326C265.149 29.4538 265.017 29.1365 264.751 28.8809C264.486 28.6204 264.079 28.4263 263.53 28.2985L261.712 27.8723C260.713 27.6356 259.979 27.2686 259.51 26.7715C259.046 26.2696 258.814 25.6422 258.814 24.8894C258.814 24.2739 258.987 23.7293 259.332 23.2559C259.683 22.7824 260.159 22.4107 260.76 22.1408C261.366 21.8709 262.053 21.736 262.82 21.736C263.899 21.736 264.747 21.9727 265.362 22.4462C265.982 22.9197 266.423 23.5447 266.683 24.3212ZM272.615 33.0428C271.924 33.0428 271.297 32.9126 270.733 32.6522C270.17 32.387 269.722 32.0059 269.391 31.5087C269.06 31.0068 268.894 30.4007 268.894 29.6905C268.894 29.0655 269.017 28.5589 269.263 28.1706C269.509 27.7776 269.838 27.4699 270.25 27.2473C270.662 27.0248 271.117 26.8591 271.614 26.7502C272.116 26.6365 272.62 26.5466 273.127 26.4803C273.79 26.3951 274.327 26.3311 274.739 26.2885C275.156 26.2412 275.459 26.1631 275.648 26.0542C275.842 25.9453 275.939 25.7559 275.939 25.486V25.4292C275.939 24.7284 275.748 24.1839 275.364 23.7956C274.985 23.4074 274.41 23.2132 273.638 23.2132C272.838 23.2132 272.211 23.3884 271.756 23.7388C271.301 24.0892 270.982 24.4632 270.797 24.861L269.206 24.2928C269.49 23.6299 269.869 23.1138 270.343 22.7445C270.821 22.3704 271.342 22.11 271.905 21.9632C272.473 21.8117 273.032 21.736 273.581 21.736C273.932 21.736 274.334 21.7786 274.789 21.8638C275.248 21.9443 275.691 22.1124 276.117 22.3681C276.548 22.6238 276.905 23.0096 277.189 23.5257C277.473 24.0418 277.615 24.7331 277.615 25.5996V32.7871H275.939V31.3098H275.854C275.74 31.5466 275.551 31.7999 275.286 32.0698C275.021 32.3397 274.668 32.5693 274.228 32.7587C273.787 32.9481 273.25 33.0428 272.615 33.0428ZM272.871 31.5371C273.534 31.5371 274.093 31.4069 274.547 31.1465C275.007 30.8861 275.352 30.5499 275.584 30.138C275.821 29.726 275.939 29.2928 275.939 28.8382V27.3042C275.868 27.3894 275.712 27.4675 275.471 27.5385C275.234 27.6048 274.959 27.664 274.647 27.7161C274.339 27.7634 274.038 27.806 273.745 27.8439C273.456 27.8771 273.221 27.9055 273.042 27.9292C272.606 27.986 272.199 28.0783 271.82 28.2061C271.446 28.3292 271.143 28.5163 270.911 28.7672C270.684 29.0134 270.57 29.3496 270.57 29.7757C270.57 30.3581 270.785 30.7985 271.216 31.0968C271.652 31.3903 272.203 31.5371 272.871 31.5371ZM285.078 37.1053C284.268 37.1053 283.572 37.0011 282.99 36.7928C282.408 36.5892 281.922 36.3193 281.534 35.9831C281.151 35.6517 280.845 35.2966 280.618 34.9178L281.953 33.9803C282.105 34.1792 282.296 34.4064 282.528 34.6621C282.76 34.9225 283.078 35.1474 283.48 35.3368C283.887 35.531 284.42 35.628 285.078 35.628C285.959 35.628 286.686 35.415 287.259 34.9888C287.831 34.5627 288.118 33.8951 288.118 32.986V30.7701H287.976C287.853 30.9689 287.678 31.2151 287.45 31.5087C287.228 31.7975 286.906 32.0556 286.484 32.2828C286.068 32.5054 285.504 32.6167 284.794 32.6167C283.913 32.6167 283.123 32.4083 282.422 31.9917C281.726 31.575 281.174 30.9689 280.767 30.1735C280.365 29.378 280.163 28.4121 280.163 27.2757C280.163 26.1583 280.36 25.1853 280.753 24.3567C281.146 23.5234 281.693 22.8794 282.393 22.4249C283.094 21.9656 283.904 21.736 284.822 21.736C285.533 21.736 286.096 21.8543 286.513 22.0911C286.934 22.3231 287.256 22.5882 287.479 22.8865C287.706 23.1801 287.881 23.4216 288.004 23.611H288.175V21.878H289.794V33.0996C289.794 34.0371 289.581 34.7994 289.155 35.3865C288.733 35.9784 288.165 36.4116 287.45 36.6863C286.74 36.9656 285.949 37.1053 285.078 37.1053ZM285.021 31.111C285.694 31.111 286.262 30.9571 286.726 30.6493C287.19 30.3416 287.543 29.8989 287.784 29.3212C288.026 28.7435 288.146 28.0523 288.146 27.2473C288.146 26.4614 288.028 25.7677 287.791 25.1664C287.554 24.565 287.204 24.0939 286.74 23.753C286.276 23.4121 285.703 23.2417 285.021 23.2417C284.311 23.2417 283.719 23.4216 283.246 23.7814C282.777 24.1413 282.424 24.6242 282.188 25.2303C281.955 25.8364 281.839 26.5087 281.839 27.2473C281.839 28.0049 281.958 28.6749 282.195 29.2573C282.436 29.8349 282.791 30.2895 283.26 30.6209C283.733 30.9476 284.321 31.111 285.021 31.111ZM292.862 32.7871V21.878H294.538V32.7871H292.862ZM293.714 20.0598C293.388 20.0598 293.106 19.9486 292.869 19.726C292.637 19.5035 292.521 19.236 292.521 18.9235C292.521 18.611 292.637 18.3435 292.869 18.1209C293.106 17.8984 293.388 17.7871 293.714 17.7871C294.041 17.7871 294.321 17.8984 294.553 18.1209C294.789 18.3435 294.908 18.611 294.908 18.9235C294.908 19.236 294.789 19.5035 294.553 19.726C294.321 19.9486 294.041 20.0598 293.714 20.0598ZM299.284 26.2246V32.7871H297.608V21.878H299.228V23.5826H299.37C299.625 23.0286 300.014 22.5835 300.534 22.2473C301.055 21.9064 301.728 21.736 302.551 21.736C303.29 21.736 303.936 21.8875 304.49 22.1905C305.044 22.4888 305.475 22.9434 305.783 23.5542C306.091 24.1602 306.245 24.9273 306.245 25.8553V32.7871H304.569V25.9689C304.569 25.1119 304.346 24.4443 303.901 23.9661C303.456 23.4831 302.845 23.2417 302.069 23.2417C301.533 23.2417 301.055 23.3577 300.634 23.5897C300.217 23.8217 299.888 24.1602 299.647 24.6053C299.405 25.0504 299.284 25.5901 299.284 26.2246ZM313.711 37.1053C312.901 37.1053 312.205 37.0011 311.623 36.7928C311.04 36.5892 310.555 36.3193 310.167 35.9831C309.783 35.6517 309.478 35.2966 309.251 34.9178L310.586 33.9803C310.737 34.1792 310.929 34.4064 311.161 34.6621C311.393 34.9225 311.71 35.1474 312.113 35.3368C312.52 35.531 313.053 35.628 313.711 35.628C314.592 35.628 315.318 35.415 315.891 34.9888C316.464 34.5627 316.751 33.8951 316.751 32.986V30.7701H316.609C316.486 30.9689 316.31 31.2151 316.083 31.5087C315.861 31.7975 315.539 32.0556 315.117 32.2828C314.701 32.5054 314.137 32.6167 313.427 32.6167C312.546 32.6167 311.755 32.4083 311.055 31.9917C310.359 31.575 309.807 30.9689 309.4 30.1735C308.997 29.378 308.796 28.4121 308.796 27.2757C308.796 26.1583 308.993 25.1853 309.386 24.3567C309.779 23.5234 310.326 22.8794 311.026 22.4249C311.727 21.9656 312.537 21.736 313.455 21.736C314.165 21.736 314.729 21.8543 315.146 22.0911C315.567 22.3231 315.889 22.5882 316.112 22.8865C316.339 23.1801 316.514 23.4216 316.637 23.611H316.808V21.878H318.427V33.0996C318.427 34.0371 318.214 34.7994 317.788 35.3865C317.366 35.9784 316.798 36.4116 316.083 36.6863C315.373 36.9656 314.582 37.1053 313.711 37.1053ZM313.654 31.111C314.326 31.111 314.895 30.9571 315.359 30.6493C315.823 30.3416 316.175 29.8989 316.417 29.3212C316.658 28.7435 316.779 28.0523 316.779 27.2473C316.779 26.4614 316.661 25.7677 316.424 25.1664C316.187 24.565 315.837 24.0939 315.373 23.753C314.909 23.4121 314.336 23.2417 313.654 23.2417C312.944 23.2417 312.352 23.4216 311.879 23.7814C311.41 24.1413 311.057 24.6242 310.82 25.2303C310.588 25.8364 310.472 26.5087 310.472 27.2473C310.472 28.0049 310.591 28.6749 310.827 29.2573C311.069 29.8349 311.424 30.2895 311.893 30.6209C312.366 30.9476 312.953 31.111 313.654 31.111ZM327.717 25.5144C327.717 23.7246 327.949 22.0792 328.413 20.5783C328.881 19.0726 329.549 17.6877 330.415 16.4235H331.893C331.552 16.8922 331.232 17.4699 330.934 18.1564C330.64 18.8382 330.382 19.5887 330.16 20.4078C329.937 21.2222 329.762 22.065 329.634 22.9363C329.511 23.8075 329.45 24.6668 329.45 25.5144C329.45 26.6413 329.558 27.7847 329.776 28.9448C329.994 30.1048 330.288 31.182 330.657 32.1763C331.026 33.1706 331.438 33.9803 331.893 34.6053H330.415C329.549 33.3411 328.881 31.9585 328.413 30.4576C327.949 28.9519 327.717 27.3042 327.717 25.5144ZM334.593 32.7871V18.2417H343.315V19.8042H336.355V24.7189H342.662V26.2814H336.355V32.7871H334.593ZM358.036 22.7871H356.275C356.171 22.2805 355.988 21.8354 355.728 21.4519C355.472 21.0684 355.16 20.7464 354.79 20.486C354.426 20.2208 354.021 20.022 353.576 19.8894C353.131 19.7568 352.667 19.6905 352.184 19.6905C351.303 19.6905 350.505 19.9131 349.79 20.3581C349.08 20.8032 348.514 21.459 348.093 22.3255C347.676 23.1919 347.468 24.2549 347.468 25.5144C347.468 26.7739 347.676 27.8368 348.093 28.7033C348.514 29.5698 349.08 30.2256 349.79 30.6706C350.505 31.1157 351.303 31.3382 352.184 31.3382C352.667 31.3382 353.131 31.272 353.576 31.1394C354.021 31.0068 354.426 30.8103 354.79 30.5499C355.16 30.2847 355.472 29.9604 355.728 29.5769C355.988 29.1886 356.171 28.7435 356.275 28.2417H358.036C357.904 28.985 357.662 29.6503 357.312 30.2374C356.961 30.8245 356.526 31.324 356.005 31.736C355.484 32.1432 354.899 32.4533 354.251 32.6664C353.607 32.8794 352.918 32.986 352.184 32.986C350.943 32.986 349.84 32.6829 348.874 32.0769C347.908 31.4708 347.148 30.6091 346.594 29.4917C346.04 28.3742 345.763 27.0485 345.763 25.5144C345.763 23.9803 346.04 22.6545 346.594 21.5371C347.148 20.4197 347.908 19.5579 348.874 18.9519C349.84 18.3458 350.943 18.0428 352.184 18.0428C352.918 18.0428 353.607 18.1493 354.251 18.3624C354.899 18.5755 355.484 18.888 356.005 19.2999C356.526 19.7071 356.961 20.2042 357.312 20.7914C357.662 21.3738 357.904 22.039 358.036 22.7871ZM360.882 18.2417H362.985L367.928 30.3155H368.098L373.042 18.2417H375.144V32.7871H373.496V21.736H373.354L368.809 32.7871H367.218L362.672 21.736H362.53V32.7871H360.882V18.2417ZM382.028 25.5144C382.028 27.3042 381.793 28.9519 381.325 30.4576C380.861 31.9585 380.195 33.3411 379.329 34.6053H377.852C378.192 34.1365 378.51 33.5589 378.803 32.8723C379.102 32.1905 379.362 31.4424 379.585 30.628C379.807 29.8089 379.98 28.9637 380.103 28.0925C380.231 27.2166 380.295 26.3572 380.295 25.5144C380.295 24.3875 380.186 23.244 379.968 22.084C379.75 20.9239 379.457 19.8468 379.087 18.8524C378.718 17.8581 378.306 17.0485 377.852 16.4235H379.329C380.195 17.6877 380.861 19.0726 381.325 20.5783C381.793 22.0792 382.028 23.7246 382.028 25.5144Z" fill="white"/>
<defs>
<clipPath id="clip0_5224_19472">
<rect width="50" height="50" fill="white" transform="translate(0 0.787109)"/>
</clipPath>
</defs>
</svg>
