<svg width="89" height="89" viewBox="0 0 89 89" fill="none" xmlns="http://www.w3.org/2000/svg">
<g clip-path="url(#clip0_5784_3492)">
<path d="M66.9959 0H22.0041C9.85156 0 0 9.85156 0 22.0041V66.9959C0 79.1484 9.85156 89 22.0041 89H66.9959C79.1484 89 89 79.1484 89 66.9959V22.0041C89 9.85156 79.1484 0 66.9959 0Z" fill="url(#paint0_linear_5784_3492)"/>
<path d="M50.7831 59.7189C50.4258 59.9014 50.0341 59.9974 49.6368 59.9997H30.7115C30.3543 59.9997 30.0006 59.9254 29.6707 59.7812C29.3408 59.637 29.0413 59.4257 28.7893 59.1594C28.5373 58.8931 28.3379 58.577 28.2025 58.2294C28.067 57.8817 27.9982 57.5094 28 57.1337C28 53.9996 29.184 50.9939 31.2914 48.7777C33.3988 46.5616 36.257 45.3166 39.2374 45.3166H41.1156C42.2186 45.3108 43.3166 45.4738 44.3749 45.8007C44.2157 46.0895 44.1123 46.4085 44.0705 46.7394C44.0288 47.0703 44.0496 47.4067 44.1317 47.7292C44.2138 48.0516 44.3556 48.3539 44.549 48.6186C44.7425 48.8833 44.9837 49.1053 45.2588 49.2717L45.5166 49.4315C45.489 49.7462 45.4706 50.0608 45.4706 50.3997C45.4706 50.7386 45.4706 51.0339 45.5166 51.368L45.2588 51.5229C44.9835 51.6898 44.7422 51.9122 44.5487 52.1774C44.3553 52.4425 44.2134 52.7452 44.1313 53.068C44.0492 53.3909 44.0285 53.7276 44.0703 54.0589C44.1121 54.3902 44.2156 54.7096 44.3749 54.9988L45.6363 57.2983C45.7946 57.5883 46.0059 57.8425 46.258 58.0464C46.5101 58.2502 46.798 58.3996 47.1052 58.486C47.4124 58.5723 47.7328 58.594 48.0479 58.5497C48.3631 58.5054 48.6668 58.396 48.9417 58.2278L49.1765 58.0632C49.6662 58.4401 50.1905 58.7644 50.7417 59.0314V59.3461C50.7466 59.4713 50.7604 59.5959 50.7831 59.7189Z" fill="white"/>
<path d="M40.1797 42.7999C43.5408 42.7999 46.2656 39.9346 46.2656 36.4C46.2656 32.8654 43.5408 30 40.1797 30C36.8185 30 34.0938 32.8654 34.0938 36.4C34.0938 39.9346 36.8185 42.7999 40.1797 42.7999Z" fill="white"/>
<path d="M62.6971 53.2229L61.316 52.3854C61.6381 51.1167 61.6381 49.7813 61.316 48.5125L62.6971 47.675C62.7628 47.6354 62.8204 47.5825 62.8666 47.5194C62.9128 47.4563 62.9467 47.3843 62.9664 47.3073C62.9861 47.2304 62.9911 47.1502 62.9812 47.0712C62.9714 46.9923 62.9468 46.9161 62.9089 46.8472L61.6475 44.5089C61.6098 44.4399 61.5595 44.3793 61.4995 44.3307C61.4395 44.2821 61.371 44.2464 61.2978 44.2257C61.2247 44.205 61.1484 44.1997 61.0733 44.2101C60.9982 44.2205 60.9258 44.2464 60.8603 44.2862L59.4792 45.1238C58.5859 44.1912 57.4742 43.5232 56.2567 43.1873V41.5026C56.2567 41.3421 56.1961 41.1882 56.0881 41.0747C55.9802 40.9612 55.8339 40.8975 55.6812 40.8975H53.1723C53.0197 40.8975 52.8733 40.9612 52.7654 41.0747C52.6575 41.1882 52.5969 41.3421 52.5969 41.5026V43.1728C51.3796 43.5095 50.2682 44.1774 49.3744 45.1092L47.9933 44.2717C47.9277 44.2318 47.8553 44.206 47.7802 44.1956C47.7051 44.1852 47.6288 44.1905 47.5557 44.2112C47.4826 44.2319 47.414 44.2676 47.354 44.3162C47.294 44.3648 47.2438 44.4253 47.2061 44.4944L45.9539 46.8085C45.9158 46.8771 45.8909 46.953 45.8807 47.0318C45.8705 47.1105 45.8751 47.1906 45.8944 47.2675C45.9136 47.3444 45.9471 47.4165 45.9928 47.4798C46.0386 47.5431 46.0958 47.5963 46.1611 47.6363L47.5421 48.4738C47.2201 49.7426 47.2201 51.0779 47.5421 52.3467L46.1611 53.1842C46.0933 53.2242 46.0339 53.2782 45.9865 53.3431C45.9391 53.4079 45.9047 53.4821 45.8853 53.5613C45.866 53.6404 45.8621 53.7229 45.8738 53.8037C45.8856 53.8845 45.9129 53.962 45.9539 54.0314L47.2153 56.3309C47.2923 56.4695 47.4181 56.5705 47.5654 56.6122C47.7128 56.6539 47.8698 56.6329 48.0025 56.5536L49.3836 55.7161C50.276 56.65 51.3879 57.3182 52.6061 57.6526V59.3276C52.6061 59.4881 52.6667 59.642 52.7746 59.7555C52.8825 59.869 53.0289 59.9327 53.1815 59.9327H55.7089C55.8615 59.9327 56.0079 59.869 56.1158 59.7555C56.2237 59.642 56.2843 59.4881 56.2843 59.3276V57.6526C57.5028 57.319 58.615 56.6507 59.5068 55.7161L60.8879 56.5536C61.0206 56.6329 61.1776 56.6539 61.325 56.6122C61.4723 56.5705 61.5981 56.4695 61.6751 56.3309L62.9365 54.0314C63.005 53.8905 63.0184 53.7269 62.9736 53.5758C62.9289 53.4247 62.8296 53.298 62.6971 53.2229ZM54.4107 53.4989C53.8352 53.4989 53.2727 53.3194 52.7943 52.9833C52.3158 52.6471 51.9429 52.1692 51.7227 51.6102C51.5025 51.0511 51.4448 50.4359 51.5571 49.8424C51.6694 49.2489 51.9465 48.7037 52.3534 48.2758C52.7603 47.848 53.2787 47.5566 53.8431 47.4385C54.4074 47.3205 54.9924 47.381 55.5241 47.6126C56.0557 47.8442 56.5101 48.2363 56.8298 48.7395C57.1495 49.2426 57.3201 49.8342 57.3201 50.4393C57.3153 51.2432 57.0098 52.0128 56.4697 52.5818C55.9295 53.1507 55.1981 53.4732 54.4337 53.4795L54.4107 53.4989Z" fill="white"/>
</g>
<defs>
<linearGradient id="paint0_linear_5784_3492" x1="6.44664" y1="6.44664" x2="82.5534" y2="82.5534" gradientUnits="userSpaceOnUse">
<stop stop-color="#002B71"/>
<stop offset="1" stop-color="#001761"/>
</linearGradient>
<clipPath id="clip0_5784_3492">
<rect width="89" height="89" fill="white"/>
</clipPath>
</defs>
</svg>
