<svg width="84" height="84" viewBox="0 0 84 84" fill="none" xmlns="http://www.w3.org/2000/svg">
<rect width="84" height="84" rx="13" fill="#DBE7FF" fill-opacity="0.52"/>
<path d="M53.7979 48.2003C52.8146 42.317 47.1646 37.5337 41.1979 37.5337C34.7145 37.5337 29.0145 42.7837 28.4645 49.2503C28.2479 51.7503 29.0479 54.117 30.6979 55.9003C32.3312 57.6837 34.6312 58.667 37.1312 58.667H44.9312C47.7479 58.667 50.2146 57.567 51.8979 55.5837C53.5812 53.6003 54.2479 50.967 53.7979 48.2003Z" fill="#003296"/>
<path d="M39.1333 35.1002C41.8303 35.1002 44.0167 32.9138 44.0167 30.2168C44.0167 27.5198 41.8303 25.3335 39.1333 25.3335C36.4363 25.3335 34.25 27.5198 34.25 30.2168C34.25 32.9138 36.4363 35.1002 39.1333 35.1002Z" fill="#003296"/>
<path d="M50.2307 37.0474C52.4767 37.0474 54.2974 35.2267 54.2974 32.9807C54.2974 30.7348 52.4767 28.9141 50.2307 28.9141C47.9847 28.9141 46.1641 30.7348 46.1641 32.9807C46.1641 35.2267 47.9847 37.0474 50.2307 37.0474Z" fill="#003296"/>
<path d="M56.25 43.5523C58.045 43.5523 59.5 42.0972 59.5 40.3022C59.5 38.5073 58.045 37.0522 56.25 37.0522C54.4552 37.0522 53 38.5073 53 40.3022C53 42.0972 54.4552 43.5523 56.25 43.5523Z" fill="#003296"/>
<path d="M28.5667 40.3028C30.8126 40.3028 32.6333 38.4821 32.6333 36.2361C32.6333 33.9902 30.8126 32.1694 28.5667 32.1694C26.3207 32.1694 24.5 33.9902 24.5 36.2361C24.5 38.4821 26.3207 40.3028 28.5667 40.3028Z" fill="#003296"/>
</svg>
