<svg width="130" height="130" viewBox="0 0 130 130" fill="none" xmlns="http://www.w3.org/2000/svg">
<path d="M96.327 14.1243L91.6702 15.1601C90.3766 15.419 89.4712 16.8432 89.7299 18.1379C89.9886 19.3031 91.0234 20.0799 92.1876 20.0799H92.705L102.665 17.8789C103.053 17.8789 103.442 17.62 103.83 17.4905C103.959 17.361 104.218 17.2316 104.347 16.9726C104.347 16.9726 104.347 16.8432 104.476 16.8432L104.606 16.7137C104.994 16.1958 105.123 15.419 104.994 14.7716L102.665 4.41404C102.407 3.11934 100.984 2.21305 99.6902 2.47199C98.3967 2.73093 97.4912 4.1551 97.7499 5.4498L98.6554 9.59284C73.4311 -5.94356 40.3161 -2.44787 18.9725 18.9147C-3.92343 41.9604 -6.38119 78.4709 13.1515 104.106C13.6689 104.753 14.445 105.142 15.0918 105.142C15.6092 105.142 16.1267 105.012 16.6441 104.624C17.6789 103.847 17.9376 102.164 17.1615 101.128C-0.94826 77.4352 1.25078 43.7729 22.4651 22.5398C42.1271 2.8604 73.043 -0.376351 96.327 14.1243ZM116.118 25.6471C115.342 24.6114 113.661 24.3524 112.626 25.1292C111.591 25.9061 111.332 27.5892 112.108 28.6249C130.218 52.318 127.89 86.1096 106.805 107.213C87.0134 127.022 56.2268 130.259 32.9429 115.629L37.729 114.593C39.0226 114.334 39.928 112.91 39.6693 111.615C39.4106 110.321 37.9877 109.414 36.6942 109.673L26.3457 112.004H26.2164C26.087 112.004 26.087 112.004 25.9577 112.133C25.8283 112.133 25.8283 112.133 25.6989 112.263C25.5696 112.263 25.5696 112.392 25.4402 112.392L25.3109 112.522C25.1815 112.522 25.1815 112.651 25.1815 112.651L25.0522 112.78C25.0522 112.78 24.9228 112.78 24.9228 112.91V113.039C24.9228 113.039 24.7935 113.169 24.7935 113.298C24.7935 113.428 24.6641 113.428 24.6641 113.557C24.6641 113.557 24.6641 113.687 24.5348 113.816C24.5348 113.946 24.5348 113.946 24.4054 114.075V115.24L26.7338 125.598C26.9925 126.763 28.0273 127.54 29.1915 127.54H29.709C31.0025 127.281 31.908 125.857 31.6493 124.562L30.7438 120.419C41.0922 126.763 52.8636 130 64.6349 130C81.3218 130 98.0086 123.656 110.427 111.097C133.193 87.7928 135.651 51.2822 116.118 25.6471Z" fill="white"/>
<path d="M64.1302 21.666C55.5597 21.666 47.1817 24.2075 40.0555 28.969C32.9294 33.7305 27.3752 40.4983 24.0954 48.4164C20.8157 56.3345 19.9575 65.0474 21.6295 73.4533C23.3016 81.8591 27.4287 89.5804 33.4889 95.6406C39.5492 101.701 47.2705 105.828 55.6763 107.5C64.0822 109.172 72.7951 108.314 80.7132 105.034C88.6313 101.754 95.3991 96.2002 100.161 89.0741C104.922 81.9479 107.464 73.5699 107.464 64.9993C107.464 59.3087 106.343 53.6738 104.165 48.4164C101.987 43.159 98.7954 38.3819 94.7715 34.3581C90.7477 30.3342 85.9706 27.1423 80.7132 24.9646C75.4557 22.7869 69.8209 21.666 64.1302 21.666ZM81.4636 69.3327H64.1302C62.981 69.3327 61.8788 68.8761 61.0661 68.0635C60.2534 67.2508 59.7969 66.1486 59.7969 64.9993V47.666C59.7969 46.5167 60.2534 45.4145 61.0661 44.6019C61.8788 43.7892 62.981 43.3327 64.1302 43.3327C65.2795 43.3327 66.3817 43.7892 67.1944 44.6019C68.007 45.4145 68.4636 46.5167 68.4636 47.666V60.666H81.4636C82.6128 60.666 83.715 61.1226 84.5277 61.9352C85.3404 62.7479 85.7969 63.8501 85.7969 64.9993C85.7969 66.1486 85.3404 67.2508 84.5277 68.0635C83.715 68.8761 82.6128 69.3327 81.4636 69.3327Z" fill="#FCFDFD"/>
</svg>
