<svg width="123" height="130" viewBox="0 0 123 130" fill="none" xmlns="http://www.w3.org/2000/svg">
<path d="M81.514 125.775C81.839 125.125 81.893 124.394 81.6764 123.69C81.2458 122.309 79.6993 121.496 78.2912 121.93C74.5538 123.121 70.6812 123.934 66.7271 124.313C66.6189 124.313 66.5376 124.34 66.4292 124.34C64.7232 124.502 62.9898 124.584 61.2836 124.584C30.4672 124.584 5.41645 99.5328 5.41645 68.7137C5.41645 37.9214 30.4672 12.8707 61.2836 12.8707H88.2031L85.3866 15.6872C84.3303 16.7435 84.3303 18.4767 85.3866 19.5329C85.9013 20.0474 86.6054 20.3182 87.2823 20.3182C87.9864 20.3182 88.6634 20.0474 89.2052 19.5329L96.6527 12.0852C96.8964 11.8417 97.0861 11.5437 97.2214 11.2187C97.2754 11.0833 97.3296 10.9751 97.3296 10.8395C97.4111 10.623 97.4382 10.4063 97.4382 10.1624C97.4382 9.97305 97.4111 9.81048 97.384 9.62096C97.3569 9.43129 97.3025 9.26888 97.2214 9.1063C97.0861 8.78147 96.8964 8.48342 96.6527 8.23972L89.2052 0.792193C88.1489 -0.264064 86.4427 -0.264064 85.3866 0.792193C84.3303 1.84845 84.3303 3.58163 85.3866 4.63773L88.2031 7.45426H61.2836C27.4854 7.45426 0 34.9425 0 68.7137C0 102.512 27.4854 130 61.2836 130C63.044 130 64.8585 129.919 66.6459 129.756C66.7542 129.756 66.8354 129.729 66.9439 129.729C71.3852 129.323 75.7454 128.429 79.9432 127.102C80.6201 126.886 81.189 126.398 81.514 125.775ZM122.271 74.3744C122.463 72.5328 122.545 70.6371 122.545 68.7142C122.545 67.2247 121.326 66.0061 119.836 66.0061C118.344 66.0061 117.128 67.2247 117.128 68.7142C117.128 70.4746 117.047 72.208 116.882 73.887C116.746 75.3764 117.859 76.7035 119.346 76.8388H119.59C120.974 76.8388 122.162 75.7827 122.271 74.3744ZM117.073 89.2683C118.265 89.2683 119.294 88.5101 119.646 87.3726C120.106 85.9373 119.321 84.4207 117.885 83.9604C116.504 83.527 114.961 84.3125 114.5 85.6936V85.7207C114.04 87.1289 114.825 88.6727 116.261 89.133C116.504 89.2143 116.772 89.2683 117.073 89.2683ZM98.956 116.27C99.5789 116.27 100.202 116.027 100.689 115.62C103.397 113.373 105.913 110.854 108.188 108.146C111.035 104.733 113.526 101.05 115.557 97.1503C116.261 95.8232 115.744 94.1714 114.42 93.4943C113.12 92.8172 111.438 93.359 110.761 94.6317C108.895 98.2066 106.617 101.538 104.074 104.625C104.047 104.625 104.047 104.652 104.047 104.652C101.986 107.117 99.6871 109.418 97.22 111.477C96.654 111.964 96.3263 112.614 96.2479 113.318C96.1937 114.049 96.4103 114.753 96.8707 115.295C97.3852 115.918 98.1408 116.27 98.956 116.27Z" fill="white"/>
<path d="M62.3959 25.1328C53.8253 25.1328 45.4473 27.6743 38.3211 32.4358C31.195 37.1973 25.6409 43.9651 22.3611 51.8832C19.0813 59.8013 18.2231 68.5142 19.8952 76.9201C21.5672 85.3259 25.6943 93.0472 31.7546 99.1074C37.8148 105.168 45.5361 109.295 53.9419 110.967C62.3478 112.639 71.0607 111.781 78.9788 108.501C86.8969 105.221 93.6647 99.667 98.4262 92.5408C103.188 85.4147 105.729 77.0367 105.729 68.4661C105.729 62.7755 104.608 57.1406 102.431 51.8832C100.253 46.6258 97.061 41.8487 93.0372 37.8249C89.0133 33.801 84.2363 30.6091 78.9788 28.4314C73.7214 26.2537 68.0865 25.1328 62.3959 25.1328ZM79.7292 72.7995H62.3959C61.2466 72.7995 60.1444 72.3429 59.3317 71.5303C58.5191 70.7176 58.0625 69.6154 58.0625 68.4661V51.1328C58.0625 49.9835 58.5191 48.8813 59.3317 48.0687C60.1444 47.256 61.2466 46.7995 62.3959 46.7995C63.5451 46.7995 64.6473 47.256 65.46 48.0687C66.2726 48.8813 66.7292 49.9835 66.7292 51.1328V64.1328H79.7292C80.8785 64.1328 81.9807 64.5894 82.7933 65.402C83.606 66.2147 84.0625 67.3169 84.0625 68.4661C84.0625 69.6154 83.606 70.7176 82.7933 71.5303C81.9807 72.3429 80.8785 72.7995 79.7292 72.7995Z" fill="#FCFDFD"/>
</svg>
