<svg width="75" height="54" viewBox="0 0 75 54" fill="none" xmlns="http://www.w3.org/2000/svg">
<path d="M2.8027 37.0658V38H1.86847V37.0658H2.8027ZM2.8027 36.1315V37.0658H1.86847V36.1315H2.8027ZM2.8027 35.1973V36.1315H1.86847V35.1973H2.8027ZM2.8027 34.2631V35.1973H1.86847V34.2631H2.8027ZM2.8027 33.3288V34.2631H1.86847V33.3288H2.8027ZM2.8027 32.3946V33.3288H1.86847V32.3946H2.8027ZM2.8027 31.4604V32.3946H1.86847V31.4604H2.8027ZM2.8027 30.5261V31.4604H1.86847V30.5261H2.8027ZM2.8027 29.5919V30.5261H1.86847V29.5919H2.8027ZM2.8027 28.6577V29.5919H1.86847V28.6577H2.8027ZM2.8027 27.7234V28.6577H1.86847V27.7234H2.8027ZM2.8027 26.7892V27.7234H1.86847V26.7892H2.8027ZM2.8027 25.855V26.7892H1.86847V25.855H2.8027ZM2.8027 24.9207V25.855H1.86847V24.9207H2.8027ZM2.8027 23.9865V24.9207H1.86847V23.9865H2.8027ZM3.73693 23.9865V24.9207H2.8027V23.9865H3.73693ZM3.73693 24.9207V25.855H2.8027V24.9207H3.73693ZM3.73693 25.855V26.7892H2.8027V25.855H3.73693ZM3.73693 26.7892V27.7234H2.8027V26.7892H3.73693ZM3.73693 27.7234V28.6577H2.8027V27.7234H3.73693ZM3.73693 28.6577V29.5919H2.8027V28.6577H3.73693ZM3.73693 29.5919V30.5261H2.8027V29.5919H3.73693ZM4.67117 30.5261V31.4604H3.73693V30.5261H4.67117ZM4.67117 31.4604V32.3946H3.73693V31.4604H4.67117ZM4.67117 32.3946V33.3288H3.73693V32.3946H4.67117ZM4.67117 33.3288V34.2631H3.73693V33.3288H4.67117ZM4.67117 34.2631V35.1973H3.73693V34.2631H4.67117ZM4.67117 35.1973V36.1315H3.73693V35.1973H4.67117ZM4.67117 36.1315V37.0658H3.73693V36.1315H4.67117ZM4.67117 37.0658V38H3.73693V37.0658H4.67117ZM5.6054 37.0658V38H4.67117V37.0658H5.6054ZM6.53963 37.0658V38H5.6054V37.0658H6.53963ZM6.53963 36.1315V37.0658H5.6054V36.1315H6.53963ZM6.53963 35.1973V36.1315H5.6054V35.1973H6.53963ZM6.53963 34.2631V35.1973H5.6054V34.2631H6.53963ZM6.53963 33.3288V34.2631H5.6054V33.3288H6.53963ZM6.53963 32.3946V33.3288H5.6054V32.3946H6.53963ZM6.53963 31.4604V32.3946H5.6054V31.4604H6.53963ZM6.53963 30.5261V31.4604H5.6054V30.5261H6.53963ZM5.6054 30.5261V31.4604H4.67117V30.5261H5.6054ZM5.6054 29.5919V30.5261H4.67117V29.5919H5.6054ZM5.6054 31.4604V32.3946H4.67117V31.4604H5.6054ZM5.6054 32.3946V33.3288H4.67117V32.3946H5.6054ZM5.6054 33.3288V34.2631H4.67117V33.3288H5.6054ZM5.6054 34.2631V35.1973H4.67117V34.2631H5.6054ZM5.6054 35.1973V36.1315H4.67117V35.1973H5.6054ZM5.6054 36.1315V37.0658H4.67117V36.1315H5.6054ZM3.73693 37.0658V38H2.8027V37.0658H3.73693ZM3.73693 36.1315V37.0658H2.8027V36.1315H3.73693ZM3.73693 35.1973V36.1315H2.8027V35.1973H3.73693ZM3.73693 34.2631V35.1973H2.8027V34.2631H3.73693ZM3.73693 33.3288V34.2631H2.8027V33.3288H3.73693ZM3.73693 32.3946V33.3288H2.8027V32.3946H3.73693ZM3.73693 31.4604V32.3946H2.8027V31.4604H3.73693ZM3.73693 30.5261V31.4604H2.8027V30.5261H3.73693ZM2.8027 14.6442V15.5784H1.86847V14.6442H2.8027ZM2.8027 15.5784V16.5126H1.86847V15.5784H2.8027ZM2.8027 16.5126V17.4469H1.86847V16.5126H2.8027ZM2.8027 17.4469V18.3811H1.86847V17.4469H2.8027ZM2.8027 18.3811V19.3153H1.86847V18.3811H2.8027ZM2.8027 19.3153V20.2496H1.86847V19.3153H2.8027ZM2.8027 20.2496V21.1838H1.86847V20.2496H2.8027ZM2.8027 21.1838V22.118H1.86847V21.1838H2.8027ZM2.8027 22.118V23.0523H1.86847V22.118H2.8027ZM2.8027 23.0523V23.9865H1.86847V23.0523H2.8027ZM5.6054 14.6442V15.5784H4.67117V14.6442H5.6054ZM5.6054 15.5784V16.5126H4.67117V15.5784H5.6054ZM5.6054 16.5126V17.4469H4.67117V16.5126H5.6054ZM5.6054 17.4469V18.3811H4.67117V17.4469H5.6054ZM5.6054 18.3811V19.3153H4.67117V18.3811H5.6054ZM5.6054 19.3153V20.2496H4.67117V19.3153H5.6054ZM5.6054 21.1838V22.118H4.67117V21.1838H5.6054ZM5.6054 22.118V23.0523H4.67117V22.118H5.6054ZM5.6054 23.0523V23.9865H4.67117V23.0523H5.6054ZM5.6054 23.9865V24.9207H4.67117V23.9865H5.6054ZM5.6054 24.9207V25.855H4.67117V24.9207H5.6054ZM5.6054 25.855V26.7892H4.67117V25.855H5.6054ZM5.6054 26.7892V27.7234H4.67117V26.7892H5.6054ZM6.53963 27.7234V28.6577H5.6054V27.7234H6.53963ZM6.53963 28.6577V29.5919H5.6054V28.6577H6.53963ZM6.53963 29.5919V30.5261H5.6054V29.5919H6.53963ZM6.53963 26.7892V27.7234H5.6054V26.7892H6.53963ZM6.53963 25.855V26.7892H5.6054V25.855H6.53963ZM6.53963 24.9207V25.855H5.6054V24.9207H6.53963ZM6.53963 23.9865V24.9207H5.6054V23.9865H6.53963ZM6.53963 23.0523V23.9865H5.6054V23.0523H6.53963ZM6.53963 22.118V23.0523H5.6054V22.118H6.53963ZM6.53963 21.1838V22.118H5.6054V21.1838H6.53963ZM6.53963 20.2496V21.1838H5.6054V20.2496H6.53963ZM6.53963 19.3153V20.2496H5.6054V19.3153H6.53963ZM6.53963 18.3811V19.3153H5.6054V18.3811H6.53963ZM5.6054 20.2496V21.1838H4.67117V20.2496H5.6054ZM6.53963 17.4469V18.3811H5.6054V17.4469H6.53963ZM6.53963 16.5126V17.4469H5.6054V16.5126H6.53963ZM6.53963 15.5784V16.5126H5.6054V15.5784H6.53963ZM6.53963 14.6442V15.5784H5.6054V14.6442H6.53963ZM4.67117 14.6442V15.5784H3.73693V14.6442H4.67117ZM3.73693 14.6442V15.5784H2.8027V14.6442H3.73693ZM3.73693 15.5784V16.5126H2.8027V15.5784H3.73693ZM4.67117 15.5784V16.5126H3.73693V15.5784H4.67117ZM4.67117 16.5126V17.4469H3.73693V16.5126H4.67117ZM4.67117 17.4469V18.3811H3.73693V17.4469H4.67117ZM4.67117 18.3811V19.3153H3.73693V18.3811H4.67117ZM4.67117 19.3153V20.2496H3.73693V19.3153H4.67117ZM4.67117 20.2496V21.1838H3.73693V20.2496H4.67117ZM4.67117 21.1838V22.118H3.73693V21.1838H4.67117ZM3.73693 22.118V23.0523H2.8027V22.118H3.73693ZM3.73693 23.0523V23.9865H2.8027V23.0523H3.73693ZM3.73693 21.1838V22.118H2.8027V21.1838H3.73693ZM3.73693 20.2496V21.1838H2.8027V20.2496H3.73693ZM3.73693 19.3153V20.2496H2.8027V19.3153H3.73693ZM3.73693 18.3811V19.3153H2.8027V18.3811H3.73693ZM3.73693 17.4469V18.3811H2.8027V17.4469H3.73693ZM3.73693 16.5126V17.4469H2.8027V16.5126H3.73693ZM4.67117 22.118V23.0523H3.73693V22.118H4.67117ZM4.67117 23.0523V23.9865H3.73693V23.0523H4.67117ZM4.67117 23.9865V24.9207H3.73693V23.9865H4.67117ZM4.67117 24.9207V25.855H3.73693V24.9207H4.67117ZM4.67117 25.855V26.7892H3.73693V25.855H4.67117ZM4.67117 26.7892V27.7234H3.73693V26.7892H4.67117ZM4.67117 27.7234V28.6577H3.73693V27.7234H4.67117ZM4.67117 28.6577V29.5919H3.73693V28.6577H4.67117ZM4.67117 29.5919V30.5261H3.73693V29.5919H4.67117ZM5.6054 28.6577V29.5919H4.67117V28.6577H5.6054ZM5.6054 27.7234V28.6577H4.67117V27.7234H5.6054ZM7.47386 25.855V26.7892H6.53963V25.855H7.47386ZM8.4081 25.855V26.7892H7.47386V25.855H8.4081ZM8.4081 26.7892V27.7234H7.47386V26.7892H8.4081ZM7.47386 26.7892V27.7234H6.53963V26.7892H7.47386ZM7.47386 23.9865V24.9207H6.53963V23.9865H7.47386ZM8.4081 23.9865V24.9207H7.47386V23.9865H8.4081ZM7.47386 27.7234V28.6577H6.53963V27.7234H7.47386ZM8.4081 27.7234V28.6577H7.47386V27.7234H8.4081ZM8.4081 24.9207V25.855H7.47386V24.9207H8.4081ZM7.47386 24.9207V25.855H6.53963V24.9207H7.47386ZM7.47386 14.6442V15.5784H6.53963V14.6442H7.47386ZM8.4081 14.6442V15.5784H7.47386V14.6442H8.4081ZM8.4081 15.5784V16.5126H7.47386V15.5784H8.4081ZM7.47386 15.5784V16.5126H6.53963V15.5784H7.47386ZM7.47386 16.5126V17.4469H6.53963V16.5126H7.47386ZM8.4081 16.5126V17.4469H7.47386V16.5126H8.4081ZM8.4081 17.4469V18.3811H7.47386V17.4469H8.4081ZM7.47386 17.4469V18.3811H6.53963V17.4469H7.47386ZM7.47386 18.3811V19.3153H6.53963V18.3811H7.47386ZM8.4081 18.3811V19.3153H7.47386V18.3811H8.4081ZM9.34233 23.9865V24.9207H8.4081V23.9865H9.34233ZM10.2766 23.9865V24.9207H9.34233V23.9865H10.2766ZM11.2108 23.9865V24.9207H10.2766V23.9865H11.2108ZM11.2108 18.3811V19.3153H10.2766V18.3811H11.2108ZM10.2766 18.3811V19.3153H9.34233V18.3811H10.2766ZM9.34233 18.3811V19.3153H8.4081V18.3811H9.34233ZM9.34233 14.6442V15.5784H8.4081V14.6442H9.34233ZM10.2766 14.6442V15.5784H9.34233V14.6442H10.2766ZM11.2108 14.6442V15.5784H10.2766V14.6442H11.2108ZM11.2108 17.4469V18.3811H10.2766V17.4469H11.2108ZM11.2108 16.5126V17.4469H10.2766V16.5126H11.2108ZM10.2766 16.5126V17.4469H9.34233V16.5126H10.2766ZM9.34233 16.5126V17.4469H8.4081V16.5126H9.34233ZM9.34233 15.5784V16.5126H8.4081V15.5784H9.34233ZM10.2766 15.5784V16.5126H9.34233V15.5784H10.2766ZM11.2108 15.5784V16.5126H10.2766V15.5784H11.2108ZM9.34233 17.4469V18.3811H8.4081V17.4469H9.34233ZM10.2766 17.4469V18.3811H9.34233V17.4469H10.2766ZM11.2108 25.855V26.7892H10.2766V25.855H11.2108ZM10.2766 25.855V26.7892H9.34233V25.855H10.2766ZM9.34233 25.855V26.7892H8.4081V25.855H9.34233ZM9.34233 24.9207V25.855H8.4081V24.9207H9.34233ZM10.2766 24.9207V25.855H9.34233V24.9207H10.2766ZM11.2108 24.9207V25.855H10.2766V24.9207H11.2108ZM9.34233 26.7892V27.7234H8.4081V26.7892H9.34233ZM10.2766 26.7892V27.7234H9.34233V26.7892H10.2766ZM11.2108 26.7892V27.7234H10.2766V26.7892H11.2108ZM11.2108 27.7234V28.6577H10.2766V27.7234H11.2108ZM10.2766 27.7234V28.6577H9.34233V27.7234H10.2766ZM9.34233 27.7234V28.6577H8.4081V27.7234H9.34233ZM16.8162 18.3811V19.3153H15.882V18.3811H16.8162ZM12.145 14.6442V15.5784H11.2108V14.6442H12.145ZM13.0793 14.6442V15.5784H12.145V14.6442H13.0793ZM14.0135 14.6442V15.5784H13.0793V14.6442H14.0135ZM14.9477 14.6442V15.5784H14.0135V14.6442H14.9477ZM15.882 14.6442V15.5784H14.9477V14.6442H15.882ZM15.882 15.5784V16.5126H14.9477V15.5784H15.882ZM16.8162 15.5784V16.5126H15.882V15.5784H16.8162ZM16.8162 16.5126V17.4469H15.882V16.5126H16.8162ZM16.8162 14.6442V15.5784H15.882V14.6442H16.8162ZM16.8162 17.4469V18.3811H15.882V17.4469H16.8162ZM15.882 17.4469V18.3811H14.9477V17.4469H15.882ZM14.9477 17.4469V18.3811H14.0135V17.4469H14.9477ZM14.0135 17.4469V18.3811H13.0793V17.4469H14.0135ZM13.0793 17.4469V18.3811H12.145V17.4469H13.0793ZM12.145 17.4469V18.3811H11.2108V17.4469H12.145ZM12.145 16.5126V17.4469H11.2108V16.5126H12.145ZM12.145 15.5784V16.5126H11.2108V15.5784H12.145ZM13.0793 15.5784V16.5126H12.145V15.5784H13.0793ZM14.0135 15.5784V16.5126H13.0793V15.5784H14.0135ZM14.9477 15.5784V16.5126H14.0135V15.5784H14.9477ZM14.9477 16.5126V17.4469H14.0135V16.5126H14.9477ZM15.882 16.5126V17.4469H14.9477V16.5126H15.882ZM14.0135 16.5126V17.4469H13.0793V16.5126H14.0135ZM13.0793 16.5126V17.4469H12.145V16.5126H13.0793ZM12.145 18.3811V19.3153H11.2108V18.3811H12.145ZM13.0793 18.3811V19.3153H12.145V18.3811H13.0793ZM14.0135 18.3811V19.3153H13.0793V18.3811H14.0135ZM14.9477 18.3811V19.3153H14.0135V18.3811H14.9477ZM15.882 18.3811V19.3153H14.9477V18.3811H15.882ZM12.145 23.9865V24.9207H11.2108V23.9865H12.145ZM12.145 24.9207V25.855H11.2108V24.9207H12.145ZM12.145 25.855V26.7892H11.2108V25.855H12.145ZM12.145 26.7892V27.7234H11.2108V26.7892H12.145ZM13.0793 26.7892V27.7234H12.145V26.7892H13.0793ZM13.0793 27.7234V28.6577H12.145V27.7234H13.0793ZM12.145 27.7234V28.6577H11.2108V27.7234H12.145ZM13.0793 23.9865V24.9207H12.145V23.9865H13.0793ZM13.0793 24.9207V25.855H12.145V24.9207H13.0793ZM13.0793 25.855V26.7892H12.145V25.855H13.0793ZM14.0135 25.855V26.7892H13.0793V25.855H14.0135ZM14.9477 25.855V26.7892H14.0135V25.855H14.9477ZM14.9477 24.9207V25.855H14.0135V24.9207H14.9477ZM14.9477 23.9865V24.9207H14.0135V23.9865H14.9477ZM14.0135 23.9865V24.9207H13.0793V23.9865H14.0135ZM14.0135 24.9207V25.855H13.0793V24.9207H14.0135ZM14.0135 26.7892V27.7234H13.0793V26.7892H14.0135ZM14.0135 27.7234V28.6577H13.0793V27.7234H14.0135ZM14.9477 27.7234V28.6577H14.0135V27.7234H14.9477ZM14.9477 26.7892V27.7234H14.0135V26.7892H14.9477ZM19.6353 14.6442V15.5784H18.7011V14.6442H19.6353ZM19.6353 15.5784V16.5126H18.7011V15.5784H19.6353ZM19.6353 16.5126V17.4469H18.7011V16.5126H19.6353ZM22.438 14.6442V15.5784H21.5038V14.6442H22.438ZM22.438 15.5784V16.5126H21.5038V15.5784H22.438ZM22.438 16.5126V17.4469H21.5038V16.5126H22.438ZM23.3723 16.5126V17.4469H22.438V16.5126H23.3723ZM23.3723 15.5784V16.5126H22.438V15.5784H23.3723ZM23.3723 14.6442V15.5784H22.438V14.6442H23.3723ZM21.5038 14.6442V15.5784H20.5696V14.6442H21.5038ZM20.5696 14.6442V15.5784H19.6353V14.6442H20.5696ZM20.5696 15.5784V16.5126H19.6353V15.5784H20.5696ZM21.5038 15.5784V16.5126H20.5696V15.5784H21.5038ZM21.5038 16.5126V17.4469H20.5696V16.5126H21.5038ZM20.5696 16.5126V17.4469H19.6353V16.5126H20.5696ZM19.6353 17.4469V18.3811H18.7011V17.4469H19.6353ZM20.5696 17.4469V18.3811H19.6353V17.4469H20.5696ZM21.5038 17.4469V18.3811H20.5696V17.4469H21.5038ZM22.438 17.4469V18.3811H21.5038V17.4469H22.438ZM23.3723 17.4469V18.3811H22.438V17.4469H23.3723ZM19.6353 37.0658V38H18.7011V37.0658H19.6353ZM19.6353 36.1315V37.0658H18.7011V36.1315H19.6353ZM19.6353 35.1973V36.1315H18.7011V35.1973H19.6353ZM19.6353 34.2631V35.1973H18.7011V34.2631H19.6353ZM19.6353 33.3288V34.2631H18.7011V33.3288H19.6353ZM19.6353 32.3946V33.3288H18.7011V32.3946H19.6353ZM19.6353 31.4604V32.3946H18.7011V31.4604H19.6353ZM19.6353 30.5261V31.4604H18.7011V30.5261H19.6353ZM19.6353 29.5919V30.5261H18.7011V29.5919H19.6353ZM19.6353 28.6577V29.5919H18.7011V28.6577H19.6353ZM19.6353 27.7234V28.6577H18.7011V27.7234H19.6353ZM19.6353 26.7892V27.7234H18.7011V26.7892H19.6353ZM19.6353 25.855V26.7892H18.7011V25.855H19.6353ZM19.6353 24.9207V25.855H18.7011V24.9207H19.6353ZM19.6353 23.9865V24.9207H18.7011V23.9865H19.6353ZM20.5696 23.9865V24.9207H19.6353V23.9865H20.5696ZM20.5696 24.9207V25.855H19.6353V24.9207H20.5696ZM20.5696 25.855V26.7892H19.6353V25.855H20.5696ZM20.5696 26.7892V27.7234H19.6353V26.7892H20.5696ZM20.5696 27.7234V28.6577H19.6353V27.7234H20.5696ZM20.5696 28.6577V29.5919H19.6353V28.6577H20.5696ZM20.5696 29.5919V30.5261H19.6353V29.5919H20.5696ZM21.5038 30.5261V31.4604H20.5696V30.5261H21.5038ZM21.5038 31.4604V32.3946H20.5696V31.4604H21.5038ZM21.5038 32.3946V33.3288H20.5696V32.3946H21.5038ZM21.5038 33.3288V34.2631H20.5696V33.3288H21.5038ZM21.5038 34.2631V35.1973H20.5696V34.2631H21.5038ZM21.5038 35.1973V36.1315H20.5696V35.1973H21.5038ZM21.5038 36.1315V37.0658H20.5696V36.1315H21.5038ZM21.5038 37.0658V38H20.5696V37.0658H21.5038ZM22.438 37.0658V38H21.5038V37.0658H22.438ZM23.3723 37.0658V38H22.438V37.0658H23.3723ZM23.3723 36.1315V37.0658H22.438V36.1315H23.3723ZM23.3723 35.1973V36.1315H22.438V35.1973H23.3723ZM23.3723 34.2631V35.1973H22.438V34.2631H23.3723ZM23.3723 33.3288V34.2631H22.438V33.3288H23.3723ZM23.3723 32.3946V33.3288H22.438V32.3946H23.3723ZM23.3723 31.4604V32.3946H22.438V31.4604H23.3723ZM23.3723 30.5261V31.4604H22.438V30.5261H23.3723ZM22.438 30.5261V31.4604H21.5038V30.5261H22.438ZM22.438 29.5919V30.5261H21.5038V29.5919H22.438ZM22.438 31.4604V32.3946H21.5038V31.4604H22.438ZM22.438 32.3946V33.3288H21.5038V32.3946H22.438ZM22.438 33.3288V34.2631H21.5038V33.3288H22.438ZM22.438 34.2631V35.1973H21.5038V34.2631H22.438ZM22.438 35.1973V36.1315H21.5038V35.1973H22.438ZM22.438 36.1315V37.0658H21.5038V36.1315H22.438ZM20.5696 37.0658V38H19.6353V37.0658H20.5696ZM20.5696 36.1315V37.0658H19.6353V36.1315H20.5696ZM20.5696 35.1973V36.1315H19.6353V35.1973H20.5696ZM20.5696 34.2631V35.1973H19.6353V34.2631H20.5696ZM20.5696 33.3288V34.2631H19.6353V33.3288H20.5696ZM20.5696 32.3946V33.3288H19.6353V32.3946H20.5696ZM20.5696 31.4604V32.3946H19.6353V31.4604H20.5696ZM20.5696 30.5261V31.4604H19.6353V30.5261H20.5696ZM19.6353 22.118V23.0523H18.7011V22.118H19.6353ZM19.6353 23.0523V23.9865H18.7011V23.0523H19.6353ZM22.438 22.118V23.0523H21.5038V22.118H22.438ZM22.438 23.0523V23.9865H21.5038V23.0523H22.438ZM22.438 23.9865V24.9207H21.5038V23.9865H22.438ZM22.438 24.9207V25.855H21.5038V24.9207H22.438ZM22.438 25.855V26.7892H21.5038V25.855H22.438ZM22.438 26.7892V27.7234H21.5038V26.7892H22.438ZM23.3723 27.7234V28.6577H22.438V27.7234H23.3723ZM23.3723 28.6577V29.5919H22.438V28.6577H23.3723ZM23.3723 29.5919V30.5261H22.438V29.5919H23.3723ZM23.3723 26.7892V27.7234H22.438V26.7892H23.3723ZM23.3723 25.855V26.7892H22.438V25.855H23.3723ZM23.3723 24.9207V25.855H22.438V24.9207H23.3723ZM23.3723 23.9865V24.9207H22.438V23.9865H23.3723ZM23.3723 23.0523V23.9865H22.438V23.0523H23.3723ZM23.3723 22.118V23.0523H22.438V22.118H23.3723ZM20.5696 22.118V23.0523H19.6353V22.118H20.5696ZM20.5696 23.0523V23.9865H19.6353V23.0523H20.5696ZM21.5038 22.118V23.0523H20.5696V22.118H21.5038ZM21.5038 23.0523V23.9865H20.5696V23.0523H21.5038ZM21.5038 23.9865V24.9207H20.5696V23.9865H21.5038ZM21.5038 24.9207V25.855H20.5696V24.9207H21.5038ZM21.5038 25.855V26.7892H20.5696V25.855H21.5038ZM21.5038 26.7892V27.7234H20.5696V26.7892H21.5038ZM21.5038 27.7234V28.6577H20.5696V27.7234H21.5038ZM21.5038 28.6577V29.5919H20.5696V28.6577H21.5038ZM21.5038 29.5919V30.5261H20.5696V29.5919H21.5038ZM22.438 28.6577V29.5919H21.5038V28.6577H22.438ZM22.438 27.7234V28.6577H21.5038V27.7234H22.438ZM22.438 21.1838V22.118H21.5038V21.1838H22.438ZM23.3723 21.1838V22.118H22.438V21.1838H23.3723ZM21.5038 21.1838V22.118H20.5696V21.1838H21.5038ZM20.5696 21.1838V22.118H19.6353V21.1838H20.5696ZM19.6353 21.1838V22.118H18.7011V21.1838H19.6353ZM31.7886 23.0523H32.7228V23.9865H31.7886V23.0523ZM31.7886 22.118H32.7228V23.0523H31.7886V22.118ZM31.7886 21.1838H32.7228V22.118H31.7886V21.1838ZM32.7228 21.1838H33.657V22.118H32.7228V21.1838ZM32.7228 22.118H33.657V23.0523H32.7228V22.118ZM33.657 22.118H34.5913V23.0523H33.657V22.118ZM33.657 23.0523H34.5913V23.9865H33.657V23.0523ZM32.7228 23.0523H33.657V23.9865H32.7228V23.0523ZM34.5913 23.0523H35.5255V23.9865H34.5913V23.0523ZM34.5913 22.118H35.5255V23.0523H34.5913V22.118ZM34.5913 21.1838H35.5255V22.118H34.5913V21.1838ZM34.5913 20.2496H35.5255V21.1838H34.5913V20.2496ZM33.657 20.2496H34.5913V21.1838H33.657V20.2496ZM33.657 21.1838H34.5913V22.118H33.657V21.1838ZM35.5255 20.2496H36.4597V21.1838H35.5255V20.2496ZM36.4597 20.2496H37.394V21.1838H36.4597V20.2496ZM37.394 20.2496H38.3282V21.1838H37.394V20.2496ZM37.394 21.1838H38.3282V22.118H37.394V21.1838ZM37.394 22.118H38.3282V23.0523H37.394V22.118ZM37.394 23.0523H38.3282V23.9865H37.394V23.0523ZM36.4597 23.0523H37.394V23.9865H36.4597V23.0523ZM35.5255 23.0523H36.4597V23.9865H35.5255V23.0523ZM35.5255 22.118H36.4597V23.0523H35.5255V22.118ZM35.5255 21.1838H36.4597V22.118H35.5255V21.1838ZM36.4597 21.1838H37.394V22.118H36.4597V21.1838ZM36.4597 22.118H37.394V23.0523H36.4597V22.118ZM38.3282 22.118H39.2624V23.0523H38.3282V22.118ZM38.3282 21.1838H39.2624V22.118H38.3282V21.1838ZM39.2624 21.1838H40.1967V22.118H39.2624V21.1838ZM39.2624 22.118H40.1967V23.0523H39.2624V22.118ZM40.1967 22.118H41.1309V23.0523H40.1967V22.118ZM40.1967 23.0523H41.1309V23.9865H40.1967V23.0523ZM40.1967 23.9865H41.1309V24.9207H40.1967V23.9865ZM39.2624 23.9865H40.1967V24.9207H39.2624V23.9865ZM39.2624 23.0523H40.1967V23.9865H39.2624V23.0523ZM38.3282 23.0523H39.2624V23.9865H38.3282V23.0523ZM38.3282 23.9865H39.2624V24.9207H38.3282V23.9865ZM37.394 23.9865H38.3282V24.9207H37.394V23.9865ZM36.4597 23.9865H37.394V24.9207H36.4597V23.9865ZM41.1309 23.9865H42.0651V24.9207H41.1309V23.9865ZM41.1309 24.9207H42.0651V25.855H41.1309V24.9207ZM41.1309 25.855H42.0651V26.7892H41.1309V25.855ZM41.1309 26.7892H42.0651V27.7234H41.1309V26.7892ZM41.1309 27.7234H42.0651V28.6577H41.1309V27.7234ZM41.1309 28.6577H42.0651V29.5919H41.1309V28.6577ZM41.1309 29.5919H42.0651V30.5261H41.1309V29.5919ZM41.1309 30.5261H42.0651V31.4604H41.1309V30.5261ZM41.1309 31.4604H42.0651V32.3946H41.1309V31.4604ZM41.1309 32.3946H42.0651V33.3288H41.1309V32.3946ZM40.1967 32.3946H41.1309V33.3288H40.1967V32.3946ZM40.1967 33.3288H41.1309V34.2631H40.1967V33.3288ZM41.1309 33.3288H42.0651V34.2631H41.1309V33.3288ZM39.2624 33.3288H40.1967V34.2631H39.2624V33.3288ZM38.3282 33.3288H39.2624V34.2631H38.3282V33.3288ZM37.394 33.3288H38.3282V34.2631H37.394V33.3288ZM36.4597 33.3288H37.394V34.2631H36.4597V33.3288ZM37.394 32.3946H38.3282V33.3288H37.394V32.3946ZM37.394 31.4604H38.3282V32.3946H37.394V31.4604ZM37.394 30.5261H38.3282V31.4604H37.394V30.5261ZM37.394 29.5919H38.3282V30.5261H37.394V29.5919ZM37.394 28.6577H38.3282V29.5919H37.394V28.6577ZM37.394 27.7234H38.3282V28.6577H37.394V27.7234ZM37.394 26.7892H38.3282V27.7234H37.394V26.7892ZM37.394 25.855H38.3282V26.7892H37.394V25.855ZM37.394 24.9207H38.3282V25.855H37.394V24.9207ZM38.3282 24.9207H39.2624V25.855H38.3282V24.9207ZM39.2624 24.9207H40.1967V25.855H39.2624V24.9207ZM40.1967 24.9207H41.1309V25.855H40.1967V24.9207ZM40.1967 25.855H41.1309V26.7892H40.1967V25.855ZM40.1967 26.7892H41.1309V27.7234H40.1967V26.7892ZM40.1967 27.7234H41.1309V28.6577H40.1967V27.7234ZM40.1967 28.6577H41.1309V29.5919H40.1967V28.6577ZM40.1967 29.5919H41.1309V30.5261H40.1967V29.5919ZM40.1967 30.5261H41.1309V31.4604H40.1967V30.5261ZM40.1967 31.4604H41.1309V32.3946H40.1967V31.4604ZM39.2624 32.3946H40.1967V33.3288H39.2624V32.3946ZM38.3282 32.3946H39.2624V33.3288H38.3282V32.3946ZM38.3282 31.4604H39.2624V32.3946H38.3282V31.4604ZM38.3282 30.5261H39.2624V31.4604H38.3282V30.5261ZM38.3282 29.5919H39.2624V30.5261H38.3282V29.5919ZM38.3282 28.6577H39.2624V29.5919H38.3282V28.6577ZM39.2624 28.6577H40.1967V29.5919H39.2624V28.6577ZM39.2624 27.7234H40.1967V28.6577H39.2624V27.7234ZM39.2624 26.7892H40.1967V27.7234H39.2624V26.7892ZM39.2624 25.855H40.1967V26.7892H39.2624V25.855ZM38.3282 25.855H39.2624V26.7892H38.3282V25.855ZM38.3282 26.7892H39.2624V27.7234H38.3282V26.7892ZM38.3282 27.7234H39.2624V28.6577H38.3282V27.7234ZM39.2624 30.5261H40.1967V31.4604H39.2624V30.5261ZM39.2624 31.4604H40.1967V32.3946H39.2624V31.4604ZM39.2624 29.5919H40.1967V30.5261H39.2624V29.5919ZM31.7886 34.2631H32.7228V35.1973H31.7886V34.2631ZM32.7228 37.0658H33.657V38H32.7228V37.0658ZM33.657 37.0658H34.5913V38H33.657V37.0658ZM34.5913 37.0658H35.5255V38H34.5913V37.0658ZM35.5255 37.0658H36.4597V38H35.5255V37.0658ZM36.4597 37.0658H37.394V38H36.4597V37.0658ZM37.394 37.0658H38.3282V38H37.394V37.0658ZM36.4597 36.1315H37.394V37.0658H36.4597V36.1315ZM35.5255 36.1315H36.4597V37.0658H35.5255V36.1315ZM34.5913 36.1315H35.5255V37.0658H34.5913V36.1315ZM33.657 36.1315H34.5913V37.0658H33.657V36.1315ZM32.7228 36.1315H33.657V37.0658H32.7228V36.1315ZM31.7886 36.1315H32.7228V37.0658H31.7886V36.1315ZM31.7886 35.1973H32.7228V36.1315H31.7886V35.1973ZM32.7228 35.1973H33.657V36.1315H32.7228V35.1973ZM33.657 35.1973H34.5913V36.1315H33.657V35.1973ZM34.5913 35.1973H35.5255V36.1315H34.5913V35.1973ZM35.5255 35.1973H36.4597V36.1315H35.5255V35.1973ZM36.4597 35.1973H37.394V36.1315H36.4597V35.1973ZM37.394 36.1315H38.3282V37.0658H37.394V36.1315ZM38.3282 36.1315H39.2624V37.0658H38.3282V36.1315ZM39.2624 36.1315H40.1967V37.0658H39.2624V36.1315ZM39.2624 35.1973H40.1967V36.1315H39.2624V35.1973ZM40.1967 35.1973H41.1309V36.1315H40.1967V35.1973ZM40.1967 34.2631H41.1309V35.1973H40.1967V34.2631ZM39.2624 34.2631H40.1967V35.1973H39.2624V34.2631ZM38.3282 34.2631H39.2624V35.1973H38.3282V34.2631ZM37.394 34.2631H38.3282V35.1973H37.394V34.2631ZM36.4597 34.2631H37.394V35.1973H36.4597V34.2631ZM35.5255 34.2631H36.4597V35.1973H35.5255V34.2631ZM34.5913 34.2631H35.5255V35.1973H34.5913V34.2631ZM33.657 34.2631H34.5913V35.1973H33.657V34.2631ZM32.7228 34.2631H33.657V35.1973H32.7228V34.2631ZM37.394 35.1973H38.3282V36.1315H37.394V35.1973ZM38.3282 35.1973H39.2624V36.1315H38.3282V35.1973ZM30.8543 35.1973H31.7886V36.1315H30.8543V35.1973ZM30.8543 34.2631H31.7886V35.1973H30.8543V34.2631ZM30.8543 33.3288H31.7886V34.2631H30.8543V33.3288ZM30.8543 32.3946H31.7886V33.3288H30.8543V32.3946ZM30.8543 31.4604H31.7886V32.3946H30.8543V31.4604ZM30.8543 30.5261H31.7886V31.4604H30.8543V30.5261ZM30.8543 29.5919H31.7886V30.5261H30.8543V29.5919ZM30.8543 28.6577H31.7886V29.5919H30.8543V28.6577ZM30.8543 27.7234H31.7886V28.6577H30.8543V27.7234ZM30.8543 26.7892H31.7886V27.7234H30.8543V26.7892ZM30.8543 25.855H31.7886V26.7892H30.8543V25.855ZM30.8543 24.9207H31.7886V25.855H30.8543V24.9207ZM30.8543 23.9865H31.7886V24.9207H30.8543V23.9865ZM29.9201 23.9865H30.8543V24.9207H29.9201V23.9865ZM29.9201 24.9207H30.8543V25.855H29.9201V24.9207ZM29.9201 25.855H30.8543V26.7892H29.9201V25.855ZM29.9201 26.7892H30.8543V27.7234H29.9201V26.7892ZM29.9201 27.7234H30.8543V28.6577H29.9201V27.7234ZM29.9201 28.6577H30.8543V29.5919H29.9201V28.6577ZM29.9201 29.5919H30.8543V30.5261H29.9201V29.5919ZM28.9859 30.5261H29.9201V31.4604H28.9859V30.5261ZM28.9859 31.4604H29.9201V32.3946H28.9859V31.4604ZM28.9859 32.3946H29.9201V33.3288H28.9859V32.3946ZM28.9859 33.3288H29.9201V34.2631H28.9859V33.3288ZM28.9859 34.2631H29.9201V35.1973H28.9859V34.2631ZM28.9859 35.1973H29.9201V36.1315H28.9859V35.1973ZM28.9859 36.1315H29.9201V37.0658H28.9859V36.1315ZM28.9859 37.0658H29.9201V38H28.9859V37.0658ZM28.0516 37.0658H28.9859V38H28.0516V37.0658ZM27.1174 37.0658H28.0516V38H27.1174V37.0658ZM27.1174 36.1315H28.0516V37.0658H27.1174V36.1315ZM27.1174 35.1973H28.0516V36.1315H27.1174V35.1973ZM27.1174 34.2631H28.0516V35.1973H27.1174V34.2631ZM27.1174 33.3288H28.0516V34.2631H27.1174V33.3288ZM27.1174 32.3946H28.0516V33.3288H27.1174V32.3946ZM27.1174 31.4604H28.0516V32.3946H27.1174V31.4604ZM27.1174 30.5261H28.0516V31.4604H27.1174V30.5261ZM28.0516 30.5261H28.9859V31.4604H28.0516V30.5261ZM28.0516 29.5919H28.9859V30.5261H28.0516V29.5919ZM28.0516 31.4604H28.9859V32.3946H28.0516V31.4604ZM28.0516 32.3946H28.9859V33.3288H28.0516V32.3946ZM28.0516 33.3288H28.9859V34.2631H28.0516V33.3288ZM28.0516 34.2631H28.9859V35.1973H28.0516V34.2631ZM28.0516 35.1973H28.9859V36.1315H28.0516V35.1973ZM28.0516 36.1315H28.9859V37.0658H28.0516V36.1315ZM29.9201 35.1973H30.8543V36.1315H29.9201V35.1973ZM29.9201 34.2631H30.8543V35.1973H29.9201V34.2631ZM29.9201 33.3288H30.8543V34.2631H29.9201V33.3288ZM29.9201 32.3946H30.8543V33.3288H29.9201V32.3946ZM29.9201 31.4604H30.8543V32.3946H29.9201V31.4604ZM29.9201 30.5261H30.8543V31.4604H29.9201V30.5261ZM30.8543 14.6442H31.7886V15.5784H30.8543V14.6442ZM30.8543 15.5784H31.7886V16.5126H30.8543V15.5784ZM30.8543 16.5126H31.7886V17.4469H30.8543V16.5126ZM30.8543 17.4469H31.7886V18.3811H30.8543V17.4469ZM30.8543 18.3811H31.7886V19.3153H30.8543V18.3811ZM30.8543 19.3153H31.7886V20.2496H30.8543V19.3153ZM30.8543 21.1838H31.7886V22.118H30.8543V21.1838ZM30.8543 23.0523H31.7886V23.9865H30.8543V23.0523ZM28.0516 14.6442H28.9859V15.5784H28.0516V14.6442ZM28.0516 15.5784H28.9859V16.5126H28.0516V15.5784ZM28.0516 16.5126H28.9859V17.4469H28.0516V16.5126ZM28.0516 17.4469H28.9859V18.3811H28.0516V17.4469ZM28.0516 18.3811H28.9859V19.3153H28.0516V18.3811ZM28.0516 19.3153H28.9859V20.2496H28.0516V19.3153ZM28.0516 21.1838H28.9859V22.118H28.0516V21.1838ZM28.0516 22.118H28.9859V23.0523H28.0516V22.118ZM28.0516 23.0523H28.9859V23.9865H28.0516V23.0523ZM28.0516 24.9207H28.9859V25.855H28.0516V24.9207ZM28.0516 25.855H28.9859V26.7892H28.0516V25.855ZM28.0516 26.7892H28.9859V27.7234H28.0516V26.7892ZM27.1174 27.7234H28.0516V28.6577H27.1174V27.7234ZM27.1174 28.6577H28.0516V29.5919H27.1174V28.6577ZM27.1174 29.5919H28.0516V30.5261H27.1174V29.5919ZM27.1174 26.7892H28.0516V27.7234H27.1174V26.7892ZM27.1174 25.855H28.0516V26.7892H27.1174V25.855ZM27.1174 23.9865H28.0516V24.9207H27.1174V23.9865ZM27.1174 23.0523H28.0516V23.9865H27.1174V23.0523ZM27.1174 22.118H28.0516V23.0523H27.1174V22.118ZM27.1174 21.1838H28.0516V22.118H27.1174V21.1838ZM27.1174 20.2496H28.0516V21.1838H27.1174V20.2496ZM27.1174 19.3153H28.0516V20.2496H27.1174V19.3153ZM27.1174 18.3811H28.0516V19.3153H27.1174V18.3811ZM28.0516 20.2496H28.9859V21.1838H28.0516V20.2496ZM27.1174 17.4469H28.0516V18.3811H27.1174V17.4469ZM27.1174 16.5126H28.0516V17.4469H27.1174V16.5126ZM27.1174 15.5784H28.0516V16.5126H27.1174V15.5784ZM27.1174 14.6442H28.0516V15.5784H27.1174V14.6442ZM28.9859 14.6442H29.9201V15.5784H28.9859V14.6442ZM29.9201 14.6442H30.8543V15.5784H29.9201V14.6442ZM29.9201 15.5784H30.8543V16.5126H29.9201V15.5784ZM28.9859 15.5784H29.9201V16.5126H28.9859V15.5784ZM28.9859 16.5126H29.9201V17.4469H28.9859V16.5126ZM28.9859 17.4469H29.9201V18.3811H28.9859V17.4469ZM28.9859 18.3811H29.9201V19.3153H28.9859V18.3811ZM28.9859 19.3153H29.9201V20.2496H28.9859V19.3153ZM28.9859 20.2496H29.9201V21.1838H28.9859V20.2496ZM28.9859 21.1838H29.9201V22.118H28.9859V21.1838ZM29.9201 22.118H30.8543V23.0523H29.9201V22.118ZM29.9201 23.0523H30.8543V23.9865H29.9201V23.0523ZM29.9201 21.1838H30.8543V22.118H29.9201V21.1838ZM29.9201 20.2496H30.8543V21.1838H29.9201V20.2496ZM29.9201 19.3153H30.8543V20.2496H29.9201V19.3153ZM29.9201 18.3811H30.8543V19.3153H29.9201V18.3811ZM29.9201 17.4469H30.8543V18.3811H29.9201V17.4469ZM29.9201 16.5126H30.8543V17.4469H29.9201V16.5126ZM28.9859 23.0523H29.9201V23.9865H28.9859V23.0523ZM28.9859 24.9207H29.9201V25.855H28.9859V24.9207ZM28.9859 25.855H29.9201V26.7892H28.9859V25.855ZM28.9859 26.7892H29.9201V27.7234H28.9859V26.7892ZM28.9859 27.7234H29.9201V28.6577H28.9859V27.7234ZM28.9859 28.6577H29.9201V29.5919H28.9859V28.6577ZM28.9859 29.5919H29.9201V30.5261H28.9859V29.5919ZM28.0516 28.6577H28.9859V29.5919H28.0516V28.6577ZM28.0516 27.7234H28.9859V28.6577H28.0516V27.7234ZM30.8543 20.2496H31.7886V21.1838H30.8543V20.2496ZM27.1174 24.9207H28.0516V25.855H27.1174V24.9207ZM30.8543 22.118H31.7886V23.0523H30.8543V22.118ZM28.9859 22.118H29.9201V23.0523H28.9859V22.118ZM28.9859 23.9865H29.9201V24.9207H28.9859V23.9865ZM28.0516 23.9865H28.9859V24.9207H28.0516V23.9865ZM31.7886 37.0658H32.7228V38H31.7886V37.0658ZM30.8543 36.1315H31.7886V37.0658H30.8543V36.1315ZM29.9201 36.1315H30.8543V37.0658H29.9201V36.1315ZM29.9201 37.0658H30.8543V38H29.9201V37.0658ZM33.657 20.2496V21.1838H32.7228V20.2496H33.657ZM31.7886 37.0658V38H30.8543V37.0658H31.7886ZM32.7228 23.9865V24.9207H31.7886V23.9865H32.7228ZM55.1617 25.855V26.7892H54.2275V25.855H55.1617ZM56.096 25.855V26.7892H55.1617V25.855H56.096ZM57.0302 25.855V26.7892H56.096V25.855H57.0302ZM57.9644 25.855V26.7892H57.0302V25.855H57.9644ZM58.8987 25.855V26.7892H57.9644V25.855H58.8987ZM58.8987 24.9207V25.855H57.9644V24.9207H58.8987ZM58.8987 23.9865V24.9207H57.9644V23.9865H58.8987ZM57.9644 23.9865V24.9207H57.0302V23.9865H57.9644ZM57.0302 23.9865V24.9207H56.096V23.9865H57.0302ZM56.096 23.9865V24.9207H55.1617V23.9865H56.096ZM56.096 24.9207V25.855H55.1617V24.9207H56.096ZM55.1617 24.9207V25.855H54.2275V24.9207H55.1617ZM57.0302 24.9207V25.855H56.096V24.9207H57.0302ZM57.9644 24.9207V25.855H57.0302V24.9207H57.9644ZM55.1617 23.9865V24.9207H54.2275V23.9865H55.1617ZM54.2275 23.9865V24.9207H53.2933V23.9865H54.2275ZM54.2275 23.0523V23.9865H53.2933V23.0523H54.2275ZM55.1617 23.0523V23.9865H54.2275V23.0523H55.1617ZM56.096 23.0523V23.9865H55.1617V23.0523H56.096ZM57.0302 23.0523V23.9865H56.096V23.0523H57.0302ZM57.9644 23.0523V23.9865H57.0302V23.0523H57.9644ZM57.9644 22.118V23.0523H57.0302V22.118H57.9644ZM57.0302 22.118V23.0523H56.096V22.118H57.0302ZM56.096 22.118V23.0523H55.1617V22.118H56.096ZM55.1617 22.118V23.0523H54.2275V22.118H55.1617ZM54.2275 22.118V23.0523H53.2933V22.118H54.2275ZM56.096 21.1838V22.118H55.1617V21.1838H56.096ZM57.0302 21.1838V22.118H56.096V21.1838H57.0302ZM55.1617 21.1838V22.118H54.2275V21.1838H55.1617ZM55.1617 20.2496V21.1838H54.2275V20.2496H55.1617ZM54.2275 20.2496V21.1838H53.2933V20.2496H54.2275ZM54.2275 21.1838V22.118H53.2933V21.1838H54.2275ZM53.2933 21.1838V22.118H52.359V21.1838H53.2933ZM53.2933 20.2496V21.1838H52.359V20.2496H53.2933ZM53.2933 22.118V23.0523H52.359V22.118H53.2933ZM52.359 22.118V23.0523H51.4248V22.118H52.359ZM52.359 23.0523V23.9865H51.4248V23.0523H52.359ZM53.2933 23.0523V23.9865H52.359V23.0523H53.2933ZM51.4248 23.0523V23.9865H50.4906V23.0523H51.4248ZM51.4248 22.118V23.0523H50.4906V22.118H51.4248ZM51.4248 21.1838V22.118H50.4906V21.1838H51.4248ZM51.4248 20.2496V21.1838H50.4906V20.2496H51.4248ZM52.359 20.2496V21.1838H51.4248V20.2496H52.359ZM52.359 21.1838V22.118H51.4248V21.1838H52.359ZM50.4906 20.2496V21.1838H49.5563V20.2496H50.4906ZM49.5563 20.2496V21.1838H48.6221V20.2496H49.5563ZM48.6221 20.2496V21.1838H47.6879V20.2496H48.6221ZM48.6221 21.1838V22.118H47.6879V21.1838H48.6221ZM48.6221 22.118V23.0523H47.6879V22.118H48.6221ZM48.6221 23.0523V23.9865H47.6879V23.0523H48.6221ZM49.5563 23.0523V23.9865H48.6221V23.0523H49.5563ZM50.4906 23.0523V23.9865H49.5563V23.0523H50.4906ZM50.4906 22.118V23.0523H49.5563V22.118H50.4906ZM50.4906 21.1838V22.118H49.5563V21.1838H50.4906ZM49.5563 21.1838V22.118H48.6221V21.1838H49.5563ZM49.5563 22.118V23.0523H48.6221V22.118H49.5563ZM47.6879 22.118V23.0523H46.7536V22.118H47.6879ZM47.6879 21.1838V22.118H46.7536V21.1838H47.6879ZM46.7536 21.1838V22.118H45.8194V21.1838H46.7536ZM46.7536 22.118V23.0523H45.8194V22.118H46.7536ZM45.8194 22.118V23.0523H44.8852V22.118H45.8194ZM45.8194 23.0523V23.9865H44.8852V23.0523H45.8194ZM45.8194 23.9865V24.9207H44.8852V23.9865H45.8194ZM46.7536 23.9865V24.9207H45.8194V23.9865H46.7536ZM46.7536 23.0523V23.9865H45.8194V23.0523H46.7536ZM47.6879 23.0523V23.9865H46.7536V23.0523H47.6879ZM47.6879 23.9865V24.9207H46.7536V23.9865H47.6879ZM48.6221 23.9865V24.9207H47.6879V23.9865H48.6221ZM49.5563 23.9865V24.9207H48.6221V23.9865H49.5563ZM44.8852 23.9865V24.9207H43.9509V23.9865H44.8852ZM44.8852 24.9207V25.855H43.9509V24.9207H44.8852ZM44.8852 25.855V26.7892H43.9509V25.855H44.8852ZM44.8852 26.7892V27.7234H43.9509V26.7892H44.8852ZM44.8852 27.7234V28.6577H43.9509V27.7234H44.8852ZM44.8852 28.6577V29.5919H43.9509V28.6577H44.8852ZM44.8852 29.5919V30.5261H43.9509V29.5919H44.8852ZM44.8852 30.5261V31.4604H43.9509V30.5261H44.8852ZM44.8852 31.4604V32.3946H43.9509V31.4604H44.8852ZM44.8852 32.3946V33.3288H43.9509V32.3946H44.8852ZM45.8194 32.3946V33.3288H44.8852V32.3946H45.8194ZM45.8194 33.3288V34.2631H44.8852V33.3288H45.8194ZM44.8852 33.3288V34.2631H43.9509V33.3288H44.8852ZM46.7536 33.3288V34.2631H45.8194V33.3288H46.7536ZM47.6879 33.3288V34.2631H46.7536V33.3288H47.6879ZM48.6221 33.3288V34.2631H47.6879V33.3288H48.6221ZM49.5563 33.3288V34.2631H48.6221V33.3288H49.5563ZM48.6221 32.3946V33.3288H47.6879V32.3946H48.6221ZM48.6221 31.4604V32.3946H47.6879V31.4604H48.6221ZM48.6221 30.5261V31.4604H47.6879V30.5261H48.6221ZM48.6221 29.5919V30.5261H47.6879V29.5919H48.6221ZM48.6221 28.6577V29.5919H47.6879V28.6577H48.6221ZM48.6221 27.7234V28.6577H47.6879V27.7234H48.6221ZM48.6221 26.7892V27.7234H47.6879V26.7892H48.6221ZM48.6221 25.855V26.7892H47.6879V25.855H48.6221ZM48.6221 24.9207V25.855H47.6879V24.9207H48.6221ZM47.6879 24.9207V25.855H46.7536V24.9207H47.6879ZM46.7536 24.9207V25.855H45.8194V24.9207H46.7536ZM45.8194 24.9207V25.855H44.8852V24.9207H45.8194ZM45.8194 25.855V26.7892H44.8852V25.855H45.8194ZM45.8194 26.7892V27.7234H44.8852V26.7892H45.8194ZM45.8194 27.7234V28.6577H44.8852V27.7234H45.8194ZM45.8194 28.6577V29.5919H44.8852V28.6577H45.8194ZM45.8194 29.5919V30.5261H44.8852V29.5919H45.8194ZM45.8194 30.5261V31.4604H44.8852V30.5261H45.8194ZM45.8194 31.4604V32.3946H44.8852V31.4604H45.8194ZM46.7536 32.3946V33.3288H45.8194V32.3946H46.7536ZM47.6879 32.3946V33.3288H46.7536V32.3946H47.6879ZM47.6879 31.4604V32.3946H46.7536V31.4604H47.6879ZM47.6879 30.5261V31.4604H46.7536V30.5261H47.6879ZM47.6879 29.5919V30.5261H46.7536V29.5919H47.6879ZM47.6879 28.6577V29.5919H46.7536V28.6577H47.6879ZM46.7536 28.6577V29.5919H45.8194V28.6577H46.7536ZM46.7536 27.7234V28.6577H45.8194V27.7234H46.7536ZM46.7536 26.7892V27.7234H45.8194V26.7892H46.7536ZM46.7536 25.855V26.7892H45.8194V25.855H46.7536ZM47.6879 25.855V26.7892H46.7536V25.855H47.6879ZM47.6879 26.7892V27.7234H46.7536V26.7892H47.6879ZM47.6879 27.7234V28.6577H46.7536V27.7234H47.6879ZM46.7536 30.5261V31.4604H45.8194V30.5261H46.7536ZM46.7536 31.4604V32.3946H45.8194V31.4604H46.7536ZM46.7536 29.5919V30.5261H45.8194V29.5919H46.7536ZM55.1617 32.3946V33.3288H54.2275V32.3946H55.1617ZM56.096 32.3946V33.3288H55.1617V32.3946H56.096ZM57.0302 32.3946V33.3288H56.096V32.3946H57.0302ZM57.9644 32.3946V33.3288H57.0302V32.3946H57.9644ZM58.8987 32.3946V33.3288H57.9644V32.3946H58.8987ZM58.8987 33.3288V34.2631H57.9644V33.3288H58.8987ZM57.9644 33.3288V34.2631H57.0302V33.3288H57.9644ZM57.0302 33.3288V34.2631H56.096V33.3288H57.0302ZM56.096 33.3288V34.2631H55.1617V33.3288H56.096ZM55.1617 33.3288V34.2631H54.2275V33.3288H55.1617ZM54.2275 33.3288V34.2631H53.2933V33.3288H54.2275ZM54.2275 34.2631V35.1973H53.2933V34.2631H54.2275ZM55.1617 34.2631V35.1973H54.2275V34.2631H55.1617ZM56.096 34.2631V35.1973H55.1617V34.2631H56.096ZM57.0302 34.2631V35.1973H56.096V34.2631H57.0302ZM57.0302 35.1973V36.1315H56.096V35.1973H57.0302ZM57.9644 35.1973V36.1315H57.0302V35.1973H57.9644ZM57.9644 34.2631V35.1973H57.0302V34.2631H57.9644ZM57.0302 36.1315V37.0658H56.096V36.1315H57.0302ZM56.096 36.1315V37.0658H55.1617V36.1315H56.096ZM56.096 35.1973V36.1315H55.1617V35.1973H56.096ZM55.1617 35.1973V36.1315H54.2275V35.1973H55.1617ZM55.1617 36.1315V37.0658H54.2275V36.1315H55.1617ZM55.1617 37.0658V38H54.2275V37.0658H55.1617ZM54.2275 37.0658V38H53.2933V37.0658H54.2275ZM53.2933 37.0658V38H52.359V37.0658H53.2933ZM52.359 37.0658V38H51.4248V37.0658H52.359ZM51.4248 37.0658V38H50.4906V37.0658H51.4248ZM50.4906 37.0658V38H49.5563V37.0658H50.4906ZM49.5563 37.0658V38H48.6221V37.0658H49.5563ZM48.6221 37.0658V38H47.6879V37.0658H48.6221ZM49.5563 36.1315V37.0658H48.6221V36.1315H49.5563ZM50.4906 36.1315V37.0658H49.5563V36.1315H50.4906ZM51.4248 36.1315V37.0658H50.4906V36.1315H51.4248ZM52.359 36.1315V37.0658H51.4248V36.1315H52.359ZM53.2933 36.1315V37.0658H52.359V36.1315H53.2933ZM54.2275 36.1315V37.0658H53.2933V36.1315H54.2275ZM54.2275 35.1973V36.1315H53.2933V35.1973H54.2275ZM53.2933 35.1973V36.1315H52.359V35.1973H53.2933ZM52.359 35.1973V36.1315H51.4248V35.1973H52.359ZM51.4248 35.1973V36.1315H50.4906V35.1973H51.4248ZM50.4906 35.1973V36.1315H49.5563V35.1973H50.4906ZM49.5563 35.1973V36.1315H48.6221V35.1973H49.5563ZM48.6221 36.1315V37.0658H47.6879V36.1315H48.6221ZM47.6879 36.1315V37.0658H46.7536V36.1315H47.6879ZM46.7536 36.1315V37.0658H45.8194V36.1315H46.7536ZM46.7536 35.1973V36.1315H45.8194V35.1973H46.7536ZM45.8194 35.1973V36.1315H44.8852V35.1973H45.8194ZM45.8194 34.2631V35.1973H44.8852V34.2631H45.8194ZM46.7536 34.2631V35.1973H45.8194V34.2631H46.7536ZM47.6879 34.2631V35.1973H46.7536V34.2631H47.6879ZM48.6221 34.2631V35.1973H47.6879V34.2631H48.6221ZM49.5563 34.2631V35.1973H48.6221V34.2631H49.5563ZM50.4906 34.2631V35.1973H49.5563V34.2631H50.4906ZM51.4248 34.2631V35.1973H50.4906V34.2631H51.4248ZM52.359 34.2631V35.1973H51.4248V34.2631H52.359ZM53.2933 34.2631V35.1973H52.359V34.2631H53.2933ZM48.6221 35.1973V36.1315H47.6879V35.1973H48.6221ZM47.6879 35.1973V36.1315H46.7536V35.1973H47.6879ZM58.8987 26.7892V27.7234H57.9644V26.7892H58.8987ZM57.9644 26.7892V27.7234H57.0302V26.7892H57.9644ZM57.0302 26.7892V27.7234H56.096V26.7892H57.0302ZM56.096 26.7892V27.7234H55.1617V26.7892H56.096ZM55.1617 26.7892V27.7234H54.2275V26.7892H55.1617ZM58.8987 27.7234V28.6577H57.9644V27.7234H58.8987ZM57.0302 27.7234V28.6577H56.096V27.7234H57.0302ZM56.096 27.7234V28.6577H55.1617V27.7234H56.096ZM54.2275 27.7234V28.6577H53.2933V27.7234H54.2275ZM53.2933 27.7234V28.6577H52.359V27.7234H53.2933ZM52.359 27.7234V28.6577H51.4248V27.7234H52.359ZM51.4248 27.7234V28.6577H50.4906V27.7234H51.4248ZM50.4906 27.7234V28.6577H49.5563V27.7234H50.4906ZM49.5563 27.7234V28.6577H48.6221V27.7234H49.5563ZM55.1617 27.7234V28.6577H54.2275V27.7234H55.1617ZM57.9644 27.7234V28.6577H57.0302V27.7234H57.9644ZM58.8987 28.6577V29.5919H57.9644V28.6577H58.8987ZM57.9644 28.6577V29.5919H57.0302V28.6577H57.9644ZM57.0302 28.6577V29.5919H56.096V28.6577H57.0302ZM56.096 28.6577V29.5919H55.1617V28.6577H56.096ZM55.1617 28.6577V29.5919H54.2275V28.6577H55.1617ZM54.2275 28.6577V29.5919H53.2933V28.6577H54.2275ZM53.2933 28.6577V29.5919H52.359V28.6577H53.2933ZM52.359 28.6577V29.5919H51.4248V28.6577H52.359ZM51.4248 28.6577V29.5919H50.4906V28.6577H51.4248ZM50.4906 28.6577V29.5919H49.5563V28.6577H50.4906ZM49.5563 28.6577V29.5919H48.6221V28.6577H49.5563ZM49.5563 29.5919V30.5261H48.6221V29.5919H49.5563ZM50.4906 29.5919V30.5261H49.5563V29.5919H50.4906ZM51.4248 29.5919V30.5261H50.4906V29.5919H51.4248ZM53.2933 29.5919V30.5261H52.359V29.5919H53.2933ZM54.2275 29.5919V30.5261H53.2933V29.5919H54.2275ZM55.1617 29.5919V30.5261H54.2275V29.5919H55.1617ZM56.096 29.5919V30.5261H55.1617V29.5919H56.096ZM57.0302 29.5919V30.5261H56.096V29.5919H57.0302ZM57.9644 29.5919V30.5261H57.0302V29.5919H57.9644ZM58.8987 29.5919V30.5261H57.9644V29.5919H58.8987ZM52.359 29.5919V30.5261H51.4248V29.5919H52.359ZM62.652 37.0658V38H61.7178V37.0658H62.652ZM62.652 36.1315V37.0658H61.7178V36.1315H62.652ZM62.652 35.1973V36.1315H61.7178V35.1973H62.652ZM62.652 34.2631V35.1973H61.7178V34.2631H62.652ZM62.652 33.3288V34.2631H61.7178V33.3288H62.652ZM62.652 32.3946V33.3288H61.7178V32.3946H62.652ZM62.652 31.4604V32.3946H61.7178V31.4604H62.652ZM62.652 30.5261V31.4604H61.7178V30.5261H62.652ZM62.652 29.5919V30.5261H61.7178V29.5919H62.652ZM62.652 28.6577V29.5919H61.7178V28.6577H62.652ZM62.652 27.7234V28.6577H61.7178V27.7234H62.652ZM62.652 26.7892V27.7234H61.7178V26.7892H62.652ZM62.652 25.855V26.7892H61.7178V25.855H62.652ZM62.652 24.9207V25.855H61.7178V24.9207H62.652ZM62.652 23.9865V24.9207H61.7178V23.9865H62.652ZM63.5862 23.9865V24.9207H62.652V23.9865H63.5862ZM63.5862 24.9207V25.855H62.652V24.9207H63.5862ZM63.5862 25.855V26.7892H62.652V25.855H63.5862ZM63.5862 26.7892V27.7234H62.652V26.7892H63.5862ZM63.5862 27.7234V28.6577H62.652V27.7234H63.5862ZM63.5862 28.6577V29.5919H62.652V28.6577H63.5862ZM63.5862 29.5919V30.5261H62.652V29.5919H63.5862ZM64.5205 30.5261V31.4604H63.5862V30.5261H64.5205ZM64.5205 31.4604V32.3946H63.5862V31.4604H64.5205ZM64.5205 32.3946V33.3288H63.5862V32.3946H64.5205ZM64.5205 33.3288V34.2631H63.5862V33.3288H64.5205ZM64.5205 34.2631V35.1973H63.5862V34.2631H64.5205ZM64.5205 35.1973V36.1315H63.5862V35.1973H64.5205ZM64.5205 36.1315V37.0658H63.5862V36.1315H64.5205ZM64.5205 37.0658V38H63.5862V37.0658H64.5205ZM65.4547 37.0658V38H64.5205V37.0658H65.4547ZM66.3889 37.0658V38H65.4547V37.0658H66.3889ZM66.3889 36.1315V37.0658H65.4547V36.1315H66.3889ZM66.3889 35.1973V36.1315H65.4547V35.1973H66.3889ZM66.3889 34.2631V35.1973H65.4547V34.2631H66.3889ZM66.3889 33.3288V34.2631H65.4547V33.3288H66.3889ZM66.3889 32.3946V33.3288H65.4547V32.3946H66.3889ZM66.3889 31.4604V32.3946H65.4547V31.4604H66.3889ZM66.3889 30.5261V31.4604H65.4547V30.5261H66.3889ZM65.4547 30.5261V31.4604H64.5205V30.5261H65.4547ZM65.4547 29.5919V30.5261H64.5205V29.5919H65.4547ZM65.4547 31.4604V32.3946H64.5205V31.4604H65.4547ZM65.4547 32.3946V33.3288H64.5205V32.3946H65.4547ZM65.4547 33.3288V34.2631H64.5205V33.3288H65.4547ZM65.4547 34.2631V35.1973H64.5205V34.2631H65.4547ZM65.4547 35.1973V36.1315H64.5205V35.1973H65.4547ZM65.4547 36.1315V37.0658H64.5205V36.1315H65.4547ZM63.5862 37.0658V38H62.652V37.0658H63.5862ZM63.5862 36.1315V37.0658H62.652V36.1315H63.5862ZM63.5862 35.1973V36.1315H62.652V35.1973H63.5862ZM63.5862 34.2631V35.1973H62.652V34.2631H63.5862ZM63.5862 33.3288V34.2631H62.652V33.3288H63.5862ZM63.5862 32.3946V33.3288H62.652V32.3946H63.5862ZM63.5862 31.4604V32.3946H62.652V31.4604H63.5862ZM63.5862 30.5261V31.4604H62.652V30.5261H63.5862ZM62.652 20.2496V21.1838H61.7178V20.2496H62.652ZM62.652 21.1838V22.118H61.7178V21.1838H62.652ZM62.652 22.118V23.0523H61.7178V22.118H62.652ZM62.652 23.0523V23.9865H61.7178V23.0523H62.652ZM65.4547 21.1838V22.118H64.5205V21.1838H65.4547ZM65.4547 22.118V23.0523H64.5205V22.118H65.4547ZM65.4547 23.0523V23.9865H64.5205V23.0523H65.4547ZM65.4547 23.9865V24.9207H64.5205V23.9865H65.4547ZM65.4547 24.9207V25.855H64.5205V24.9207H65.4547ZM65.4547 25.855V26.7892H64.5205V25.855H65.4547ZM65.4547 26.7892V27.7234H64.5205V26.7892H65.4547ZM66.3889 27.7234V28.6577H65.4547V27.7234H66.3889ZM66.3889 28.6577V29.5919H65.4547V28.6577H66.3889ZM66.3889 29.5919V30.5261H65.4547V29.5919H66.3889ZM66.3889 26.7892V27.7234H65.4547V26.7892H66.3889ZM66.3889 25.855V26.7892H65.4547V25.855H66.3889ZM66.3889 24.9207V25.855H65.4547V24.9207H66.3889ZM66.3889 23.9865V24.9207H65.4547V23.9865H66.3889ZM66.3889 23.0523V23.9865H65.4547V23.0523H66.3889ZM66.3889 22.118V23.0523H65.4547V22.118H66.3889ZM66.3889 21.1838V22.118H65.4547V21.1838H66.3889ZM66.3889 20.2496V21.1838H65.4547V20.2496H66.3889ZM65.4547 20.2496V21.1838H64.5205V20.2496H65.4547ZM64.5205 20.2496V21.1838H63.5862V20.2496H64.5205ZM64.5205 21.1838V22.118H63.5862V21.1838H64.5205ZM63.5862 22.118V23.0523H62.652V22.118H63.5862ZM63.5862 23.0523V23.9865H62.652V23.0523H63.5862ZM63.5862 21.1838V22.118H62.652V21.1838H63.5862ZM63.5862 20.2496V21.1838H62.652V20.2496H63.5862ZM64.5205 22.118V23.0523H63.5862V22.118H64.5205ZM64.5205 23.0523V23.9865H63.5862V23.0523H64.5205ZM64.5205 23.9865V24.9207H63.5862V23.9865H64.5205ZM64.5205 24.9207V25.855H63.5862V24.9207H64.5205ZM64.5205 25.855V26.7892H63.5862V25.855H64.5205ZM64.5205 26.7892V27.7234H63.5862V26.7892H64.5205ZM64.5205 27.7234V28.6577H63.5862V27.7234H64.5205ZM64.5205 28.6577V29.5919H63.5862V28.6577H64.5205ZM64.5205 29.5919V30.5261H63.5862V29.5919H64.5205ZM65.4547 28.6577V29.5919H64.5205V28.6577H65.4547ZM65.4547 27.7234V28.6577H64.5205V27.7234H65.4547ZM72.9286 23.9865V24.9207H71.9943V23.9865H72.9286ZM72.9286 20.2496V21.1838H71.9943V20.2496H72.9286ZM72.9286 21.1838V22.118H71.9943V21.1838H72.9286ZM73.8628 21.1838V22.118H72.9286V21.1838H73.8628ZM74.797 22.118V23.0523H73.8628V22.118H74.797ZM73.8628 23.0523V23.9865H72.9286V23.0523H73.8628ZM73.8628 22.118V23.0523H72.9286V22.118H73.8628ZM72.9286 22.118V23.0523H71.9943V22.118H72.9286ZM71.9943 22.118V23.0523H71.0601V22.118H71.9943ZM71.9943 23.0523V23.9865H71.0601V23.0523H71.9943ZM72.9286 23.0523V23.9865H71.9943V23.0523H72.9286ZM71.9943 23.9865V24.9207H71.0601V23.9865H71.9943ZM71.0601 23.0523V23.9865H70.1259V23.0523H71.0601ZM71.0601 22.118V23.0523H70.1259V22.118H71.0601ZM71.0601 21.1838V22.118H70.1259V21.1838H71.0601ZM71.0601 20.2496V21.1838H70.1259V20.2496H71.0601ZM71.9943 20.2496V21.1838H71.0601V20.2496H71.9943ZM71.9943 21.1838V22.118H71.0601V21.1838H71.9943ZM70.1259 20.2496V21.1838H69.1916V20.2496H70.1259ZM70.1259 21.1838V22.118H69.1916V21.1838H70.1259ZM70.1259 22.118V23.0523H69.1916V22.118H70.1259ZM70.1259 23.0523V23.9865H69.1916V23.0523H70.1259ZM69.1916 20.2496V21.1838H68.2574V20.2496H69.1916ZM69.1916 21.1838V22.118H68.2574V21.1838H69.1916ZM68.2574 21.1838V22.118H67.3232V21.1838H68.2574ZM68.2574 22.118V23.0523H67.3232V22.118H68.2574ZM67.3232 22.118V23.0523H66.3889V22.118H67.3232ZM67.3232 23.0523V23.9865H66.3889V23.0523H67.3232ZM68.2574 23.0523V23.9865H67.3232V23.0523H68.2574ZM69.1916 23.0523V23.9865H68.2574V23.0523H69.1916ZM69.1916 22.118V23.0523H68.2574V22.118H69.1916ZM67.3232 23.9865V24.9207H66.3889V23.9865H67.3232ZM68.2574 20.2496V21.1838H67.3232V20.2496H68.2574ZM67.3232 21.1838V22.118H66.3889V21.1838H67.3232ZM71.0601 23.9865V24.9207H70.1259V23.9865H71.0601ZM71.9943 24.9207V25.855H71.0601V24.9207H71.9943Z" fill="black"/>
</svg>
