<svg width="48" height="50" viewBox="0 0 48 50" fill="none" xmlns="http://www.w3.org/2000/svg">
<g clip-path="url(#clip0_17110_20255)">
<path d="M24.0625 25.0003C24.0625 20.3979 27.7437 16.667 32.2847 16.667C36.8257 16.667 40.5069 20.398 40.5069 25.0003C40.5069 29.6027 36.8256 33.3336 32.2847 33.3336C27.7436 33.3336 24.0625 29.6026 24.0625 25.0003Z" fill="#00BCFF"/>
<path d="M7.61719 41.6672C7.61719 37.0648 11.2984 33.3339 15.8394 33.3339L20.2211 30.9893L24.0616 33.3339V41.6672C24.0616 46.2696 20.3804 50.0005 15.8394 50.0005C11.2984 50.0005 7.61719 46.2695 7.61719 41.6672Z" fill="#00CF7F"/>
<path d="M24.06 0L19.5859 7.87793L24.06 16.6666H32.1669C36.708 16.6666 40.3891 12.9356 40.3891 8.3333C40.3891 3.73096 36.7079 0 32.1669 0H24.06Z" fill="#FF7361"/>
<path d="M7.5 8.3333C7.5 12.9356 11.1812 16.6666 15.7222 16.6666L20.0839 18.374L24.0597 16.6666V0H15.7221C11.1812 0 7.5 3.73096 7.5 8.3333Z" fill="#FF4D12"/>
<path d="M7.61719 25.0004C7.61719 29.6028 11.2984 33.3337 15.8394 33.3337H24.0616V16.667H15.8394C11.2984 16.667 7.61719 20.398 7.61719 25.0004Z" fill="#B659FF"/>
</g>
<defs>
<clipPath id="clip0_17110_20255">
<rect width="49.3333" height="50" fill="white" transform="translate(-0.664062)"/>
</clipPath>
</defs>
</svg>
