<svg width="126" height="51" viewBox="0 0 126 51" fill="none" xmlns="http://www.w3.org/2000/svg">
<g clip-path="url(#clip0_5224_19472)">
<g clip-path="url(#clip1_5224_19472)">
<path d="M25.0586 25.7874C25.0586 21.1851 28.7398 17.4541 33.2808 17.4541C37.8218 17.4541 41.503 21.1852 41.503 25.7874C41.503 30.3898 37.8217 34.1207 33.2808 34.1207C28.7397 34.1207 25.0586 30.3897 25.0586 25.7874Z" fill="#00BCFF"/>
<path d="M8.61328 42.4543C8.61328 37.852 12.2945 34.121 16.8355 34.121L21.2172 31.7764L25.0577 34.121V42.4543C25.0577 47.0567 21.3764 50.7876 16.8355 50.7876C12.2945 50.7876 8.61328 47.0566 8.61328 42.4543Z" fill="#00CF7F"/>
<path d="M25.0581 0.787109L20.584 8.66504L25.0581 17.4537H33.1649C37.706 17.4537 41.3871 13.7228 41.3871 9.12041C41.3871 4.51807 37.7059 0.787109 33.1649 0.787109H25.0581Z" fill="#FF7361"/>
<path d="M8.49805 9.12041C8.49805 13.7228 12.1793 17.4537 16.7202 17.4537L21.0819 19.1611L25.0578 17.4537V0.787109H16.7201C12.1793 0.787109 8.49805 4.51807 8.49805 9.12041Z" fill="#FF4D12"/>
<path d="M8.61328 25.7875C8.61328 30.3899 12.2945 34.1208 16.8355 34.1208H25.0577V17.4541H16.8355C12.2945 17.4541 8.61328 21.1852 8.61328 25.7875Z" fill="#B659FF"/>
</g>
</g>
<path d="M71.7614 32.7871V18.2417H80.483V19.8042H73.5227V24.7189H79.8295V26.2814H73.5227V32.7871H71.7614ZM83.2724 32.7871V21.878H84.9485V32.7871H83.2724ZM84.1246 20.0598C83.7979 20.0598 83.5162 19.9486 83.2795 19.726C83.0475 19.5035 82.9315 19.236 82.9315 18.9235C82.9315 18.611 83.0475 18.3435 83.2795 18.1209C83.5162 17.8984 83.7979 17.7871 84.1246 17.7871C84.4513 17.7871 84.7307 17.8984 84.9627 18.1209C85.1995 18.3435 85.3178 18.611 85.3178 18.9235C85.3178 19.236 85.1995 19.5035 84.9627 19.726C84.7307 19.9486 84.4513 20.0598 84.1246 20.0598ZM92.4219 37.1053C91.6122 37.1053 90.9162 37.0011 90.3338 36.7928C89.7514 36.5892 89.2661 36.3193 88.8778 35.9831C88.4943 35.6517 88.1889 35.2966 87.9616 34.9178L89.2969 33.9803C89.4484 34.1792 89.6402 34.4064 89.8722 34.6621C90.1042 34.9225 90.4214 35.1474 90.8239 35.3368C91.2311 35.531 91.7637 35.628 92.4219 35.628C93.3026 35.628 94.0294 35.415 94.6023 34.9888C95.1752 34.5627 95.4616 33.8951 95.4616 32.986V30.7701H95.3196C95.1965 30.9689 95.0213 31.2151 94.794 31.5087C94.5715 31.7975 94.2495 32.0556 93.8281 32.2828C93.4115 32.5054 92.848 32.6167 92.1378 32.6167C91.2571 32.6167 90.4664 32.4083 89.7656 31.9917C89.0696 31.575 88.518 30.9689 88.1108 30.1735C87.7083 29.378 87.5071 28.4121 87.5071 27.2757C87.5071 26.1583 87.7036 25.1853 88.0966 24.3567C88.4896 23.5234 89.0365 22.8794 89.7372 22.4249C90.438 21.9656 91.2476 21.736 92.1662 21.736C92.8764 21.736 93.4399 21.8543 93.8565 22.0911C94.2779 22.3231 94.5999 22.5882 94.8224 22.8865C95.0497 23.1801 95.2249 23.4216 95.348 23.611H95.5185V21.878H97.1378V33.0996C97.1378 34.0371 96.9247 34.7994 96.4986 35.3865C96.0772 35.9784 95.509 36.4116 94.794 36.6863C94.0838 36.9656 93.2931 37.1053 92.4219 37.1053ZM92.3651 31.111C93.0374 31.111 93.6056 30.9571 94.0696 30.6493C94.5336 30.3416 94.8864 29.8989 95.1278 29.3212C95.3693 28.7435 95.4901 28.0523 95.4901 27.2473C95.4901 26.4614 95.3717 25.7677 95.1349 25.1664C94.8982 24.565 94.5478 24.0939 94.0838 23.753C93.6198 23.4121 93.0469 23.2417 92.3651 23.2417C91.6548 23.2417 91.063 23.4216 90.5895 23.7814C90.1207 24.1413 89.768 24.6242 89.5312 25.2303C89.2992 25.8364 89.1832 26.5087 89.1832 27.2473C89.1832 28.0049 89.3016 28.6749 89.5384 29.2573C89.7798 29.8349 90.1349 30.2895 90.6037 30.6209C91.0772 30.9476 91.6643 31.111 92.3651 31.111ZM100.206 32.7871V21.878H101.825V23.5826H101.967C102.195 23.0002 102.562 22.548 103.068 22.226C103.575 21.8993 104.183 21.736 104.893 21.736C105.613 21.736 106.212 21.8993 106.69 22.226C107.173 22.548 107.55 23.0002 107.82 23.5826H107.933C108.213 23.0191 108.632 22.5717 109.19 22.2402C109.749 21.9041 110.419 21.736 111.2 21.736C112.176 21.736 112.973 22.0414 113.594 22.6522C114.214 23.2582 114.524 24.2028 114.524 25.486V32.7871H112.848V25.486C112.848 24.681 112.628 24.1058 112.188 23.7601C111.747 23.4145 111.229 23.2417 110.632 23.2417C109.865 23.2417 109.271 23.4737 108.849 23.9377C108.428 24.397 108.217 24.9793 108.217 25.6848V32.7871H106.513V25.3155C106.513 24.6953 106.312 24.1957 105.909 23.8169C105.507 23.4334 104.988 23.2417 104.354 23.2417C103.918 23.2417 103.511 23.3577 103.132 23.5897C102.758 23.8217 102.455 24.1436 102.223 24.5556C101.996 24.9628 101.882 25.4339 101.882 25.9689V32.7871H100.206ZM120.799 33.0428C120.108 33.0428 119.48 32.9126 118.917 32.6522C118.353 32.387 117.906 32.0059 117.575 31.5087C117.243 31.0068 117.077 30.4007 117.077 29.6905C117.077 29.0655 117.201 28.5589 117.447 28.1706C117.693 27.7776 118.022 27.4699 118.434 27.2473C118.846 27.0248 119.3 26.8591 119.798 26.7502C120.299 26.6365 120.804 26.5466 121.31 26.4803C121.973 26.3951 122.511 26.3311 122.923 26.2885C123.339 26.2412 123.642 26.1631 123.832 26.0542C124.026 25.9453 124.123 25.7559 124.123 25.486V25.4292C124.123 24.7284 123.931 24.1839 123.548 23.7956C123.169 23.4074 122.594 23.2132 121.822 23.2132C121.022 23.2132 120.394 23.3884 119.94 23.7388C119.485 24.0892 119.165 24.4632 118.981 24.861L117.39 24.2928C117.674 23.6299 118.053 23.1138 118.526 22.7445C119.004 22.3704 119.525 22.11 120.089 21.9632C120.657 21.8117 121.216 21.736 121.765 21.736C122.115 21.736 122.518 21.7786 122.972 21.8638C123.432 21.9443 123.874 22.1124 124.3 22.3681C124.731 22.6238 125.089 23.0096 125.373 23.5257C125.657 24.0418 125.799 24.7331 125.799 25.5996V32.7871H124.123V31.3098H124.038C123.924 31.5466 123.735 31.7999 123.469 32.0698C123.204 32.3397 122.852 32.5693 122.411 32.7587C121.971 32.9481 121.433 33.0428 120.799 33.0428ZM121.055 31.5371C121.718 31.5371 122.276 31.4069 122.731 31.1465C123.19 30.8861 123.536 30.5499 123.768 30.138C124.004 29.726 124.123 29.2928 124.123 28.8382V27.3042C124.052 27.3894 123.896 27.4675 123.654 27.5385C123.417 27.6048 123.143 27.664 122.83 27.7161C122.522 27.7634 122.222 27.806 121.928 27.8439C121.639 27.8771 121.405 27.9055 121.225 27.9292C120.79 27.986 120.382 28.0783 120.004 28.2061C119.629 28.3292 119.326 28.5163 119.094 28.7672C118.867 29.0134 118.754 29.3496 118.754 29.7757C118.754 30.3581 118.969 30.7985 119.4 31.0968C119.835 31.3903 120.387 31.5371 121.055 31.5371Z" fill="white"/>
<defs>
<clipPath id="clip0_5224_19472">
<rect width="48" height="50" fill="white" transform="translate(1 0.787109)"/>
</clipPath>
<clipPath id="clip1_5224_19472">
<rect width="49.3333" height="50" fill="white" transform="translate(0.333984 0.787109)"/>
</clipPath>
</defs>
</svg>
