<svg width="100" height="100" viewBox="0 0 100 100" fill="none" xmlns="http://www.w3.org/2000/svg">
<g id="Frame 6">
<rect width="100" height="100" fill="#FF5D00" fill-opacity="0.1"/>
<g id="filters-svgrepo-com 1">
<path id="Vector" d="M66.5 39C66.5 48.1127 59.1127 55.5 50 55.5C40.8873 55.5 33.5 48.1127 33.5 39C33.5 29.8873 40.8873 22.5 50 22.5C59.1127 22.5 66.5 29.8873 66.5 39Z" fill="#FF5D00"/>
<path id="Vector_2" d="M30.8421 46.6543C25.8595 49.4939 22.5 54.8545 22.5 60.9999C22.5 70.1126 29.8873 77.4999 39 77.4999C48.1127 77.4999 55.5 70.1126 55.5 60.9999C55.5 60.2951 55.4557 59.6005 55.3699 58.9187C53.6578 59.3794 51.8576 59.6249 50 59.6249C41.3138 59.6249 33.8818 54.2553 30.8421 46.6543Z" fill="#FF5D00"/>
<path id="Vector_3" d="M59.3121 57.4073C59.5169 58.5742 59.6239 59.7745 59.6239 60.9999C59.6239 66.7491 57.2716 71.9491 53.4766 75.6893C55.7324 76.8468 58.2893 77.4999 60.9989 77.4999C70.1116 77.4999 77.4989 70.1126 77.4989 60.9999C77.4989 54.8545 74.1392 49.4939 69.1568 46.6543C67.2898 51.323 63.766 55.1496 59.3121 57.4073Z" fill="#FF5D00"/>
</g>
</g>
</svg>
