<svg width="150" height="51" viewBox="0 0 150 51" fill="none" xmlns="http://www.w3.org/2000/svg">
<g clip-path="url(#clip0_5224_19472)">
<path d="M11 40.7104L11.2928 40.3022L25.1057 14.099L25.135 13.8217L19.0466 2.38553C18.9352 2.1764 18.7608 2.00762 18.5481 1.90305C18.3355 1.79848 18.0953 1.76343 17.8616 1.80285C17.6279 1.84228 17.4126 1.95417 17.246 2.12272C17.0794 2.29127 16.97 2.50793 16.9334 2.74205L11 40.7104Z" fill="#FFC24A"/>
<path d="M11.1738 40.4L11.3943 39.9694L25.0643 14.0383L18.9914 2.55738C18.8912 2.35772 18.7291 2.19588 18.5293 2.09611C18.3294 1.99634 18.1026 1.96402 17.8828 2.00397C17.6631 2.04393 17.4622 2.15402 17.3102 2.31775C17.1583 2.48149 17.0635 2.69004 17.04 2.91218L11.1738 40.4Z" fill="#FFA712"/>
<path d="M29.575 22.4714L34.1081 17.8212L29.5732 9.17346C29.4734 8.98734 29.325 8.83178 29.1438 8.72334C28.9626 8.61489 28.7554 8.55762 28.5442 8.55762C28.333 8.55762 28.1257 8.61489 27.9445 8.72334C27.7633 8.83178 27.6149 8.98734 27.5151 9.17346L25.0918 13.7927V14.1871L29.575 22.4714Z" fill="#F4BD62"/>
<path d="M29.4942 22.2815L33.9016 17.769L29.4942 9.36416C29.422 9.18223 29.2988 9.02505 29.1394 8.91157C28.9799 8.79809 28.791 8.73316 28.5955 8.7246C28.4 8.71605 28.2062 8.76423 28.0374 8.86335C27.8686 8.96246 27.7322 9.10828 27.6444 9.28321L25.2091 13.9834L25.1367 14.2228L29.4942 22.2815Z" fill="#FFA50E"/>
<path d="M11.0039 40.7121L11.1365 40.5778L11.617 40.3832L29.288 22.7777L29.5119 22.168L25.1045 13.7666L11.0039 40.7121Z" fill="#F6820C"/>
<path d="M30.1383 49.5902L46.1351 40.6703L41.5641 12.5433C41.5314 12.345 41.4446 12.1596 41.3133 12.0074C41.1821 11.8552 41.0115 11.7421 40.8202 11.6805C40.6289 11.619 40.4243 11.6113 40.2289 11.6584C40.0335 11.7054 39.8549 11.8054 39.7126 11.9474L11 40.71L26.9021 49.5885C27.3965 49.8643 27.9532 50.0092 28.5193 50.0092C29.0855 50.0092 29.6422 49.8643 30.1366 49.5885" fill="#FDE068"/>
<path d="M46.1351 40.561L41.5605 12.8345C41.5524 12.6462 41.4878 12.4644 41.3747 12.3122C41.2616 12.16 41.1052 12.0443 40.9253 11.9796C40.7453 11.915 40.5499 11.9043 40.3638 11.949C40.1777 11.9937 40.0093 12.0917 39.8798 12.2307L11 40.6209L26.8703 49.3453C27.3653 49.6171 27.9226 49.7597 28.4894 49.7597C29.0561 49.7597 29.6134 49.6171 30.1084 49.3453L46.1351 40.561Z" fill="#FCCA3F"/>
<path d="M30.1383 49.322C29.6439 49.5978 29.0872 49.7427 28.5211 49.7427C27.9549 49.7427 27.3982 49.5978 26.9038 49.322L11.1309 40.5761L11 40.7104L26.9021 49.5889C27.3965 49.8648 27.9532 50.0096 28.5193 50.0096C29.0855 50.0096 29.6422 49.8648 30.1366 49.5889L46.1351 40.6708L46.0955 40.4297L30.1383 49.322Z" fill="#EEAB37"/>
</g>
<path d="M71.7614 32.7871V18.2417H80.483V19.8042H73.5227V24.7189H79.8295V26.2814H73.5227V32.7871H71.7614ZM83.2724 32.7871V21.878H84.9485V32.7871H83.2724ZM84.1246 20.0598C83.7979 20.0598 83.5162 19.9486 83.2795 19.726C83.0475 19.5035 82.9315 19.236 82.9315 18.9235C82.9315 18.611 83.0475 18.3435 83.2795 18.1209C83.5162 17.8984 83.7979 17.7871 84.1246 17.7871C84.4513 17.7871 84.7307 17.8984 84.9627 18.1209C85.1995 18.3435 85.3178 18.611 85.3178 18.9235C85.3178 19.236 85.1995 19.5035 84.9627 19.726C84.7307 19.9486 84.4513 20.0598 84.1246 20.0598ZM88.0185 32.7871V21.878H89.6378V23.5257H89.7514C89.9503 22.986 90.3101 22.548 90.831 22.2118C91.3518 21.8757 91.9389 21.7076 92.5923 21.7076C92.7154 21.7076 92.8693 21.7099 93.054 21.7147C93.2386 21.7194 93.3783 21.7265 93.473 21.736V23.4405C93.4162 23.4263 93.286 23.405 93.0824 23.3766C92.8835 23.3435 92.6728 23.3269 92.4503 23.3269C91.92 23.3269 91.4465 23.4382 91.0298 23.6607C90.6179 23.8785 90.2912 24.1815 90.0497 24.5698C89.813 24.9533 89.6946 25.3913 89.6946 25.8837V32.7871H88.0185ZM99.7017 33.0144C98.6506 33.0144 97.7438 32.7824 96.9815 32.3184C96.224 31.8496 95.6392 31.1962 95.2273 30.3581C94.8201 29.5153 94.6165 28.5352 94.6165 27.4178C94.6165 26.3004 94.8201 25.3155 95.2273 24.4632C95.6392 23.6062 96.2121 22.9386 96.946 22.4604C97.6847 21.9775 98.5464 21.736 99.5312 21.736C100.099 21.736 100.661 21.8307 101.214 22.0201C101.768 22.2095 102.273 22.5172 102.727 22.9434C103.182 23.3648 103.544 23.9235 103.814 24.6195C104.084 25.3155 104.219 26.1725 104.219 27.1905V27.9007H95.8097V26.4519H102.514C102.514 25.8364 102.391 25.2871 102.145 24.8042C101.903 24.3212 101.558 23.94 101.108 23.6607C100.663 23.3813 100.137 23.2417 99.5312 23.2417C98.8636 23.2417 98.286 23.4074 97.7983 23.7388C97.3153 24.0655 96.9437 24.4917 96.6832 25.0172C96.4228 25.5428 96.2926 26.1062 96.2926 26.7076V27.6735C96.2926 28.4973 96.4347 29.1957 96.7188 29.7686C97.0076 30.3368 97.4077 30.7701 97.919 31.0684C98.4304 31.3619 99.0246 31.5087 99.7017 31.5087C100.142 31.5087 100.54 31.4471 100.895 31.324C101.255 31.1962 101.565 31.0068 101.825 30.7559C102.086 30.5002 102.287 30.1829 102.429 29.8042L104.048 30.2587C103.878 30.8079 103.591 31.2909 103.189 31.7076C102.786 32.1195 102.289 32.4415 101.697 32.6735C101.106 32.9007 100.44 33.0144 99.7017 33.0144ZM106.996 32.7871V18.2417H108.672V23.611H108.814C108.937 23.4216 109.107 23.1801 109.325 22.8865C109.548 22.5882 109.865 22.3231 110.277 22.0911C110.694 21.8543 111.257 21.736 111.967 21.736C112.886 21.736 113.696 21.9656 114.396 22.4249C115.097 22.8842 115.644 23.5352 116.037 24.378C116.43 25.2208 116.626 26.2151 116.626 27.361C116.626 28.5163 116.43 29.5177 116.037 30.3652C115.644 31.208 115.099 31.8614 114.403 32.3255C113.707 32.7847 112.905 33.0144 111.996 33.0144C111.295 33.0144 110.734 32.8984 110.312 32.6664C109.891 32.4296 109.567 32.1621 109.339 31.8638C109.112 31.5608 108.937 31.3098 108.814 31.111H108.615V32.7871H106.996ZM108.643 27.3326C108.643 28.1564 108.764 28.8832 109.006 29.513C109.247 30.138 109.6 30.628 110.064 30.9831C110.528 31.3335 111.096 31.5087 111.768 31.5087C112.469 31.5087 113.054 31.324 113.523 30.9547C113.996 30.5807 114.351 30.0788 114.588 29.449C114.83 28.8146 114.95 28.1091 114.95 27.3326C114.95 26.5655 114.832 25.8742 114.595 25.2587C114.363 24.6384 114.01 24.1484 113.537 23.7885C113.068 23.4239 112.479 23.2417 111.768 23.2417C111.087 23.2417 110.514 23.4145 110.05 23.7601C109.586 24.101 109.235 24.5792 108.999 25.1948C108.762 25.8056 108.643 26.5182 108.643 27.3326ZM122.401 33.0428C121.709 33.0428 121.082 32.9126 120.518 32.6522C119.955 32.387 119.508 32.0059 119.176 31.5087C118.845 31.0068 118.679 30.4007 118.679 29.6905C118.679 29.0655 118.802 28.5589 119.048 28.1706C119.295 27.7776 119.624 27.4699 120.036 27.2473C120.447 27.0248 120.902 26.8591 121.399 26.7502C121.901 26.6365 122.405 26.5466 122.912 26.4803C123.575 26.3951 124.112 26.3311 124.524 26.2885C124.941 26.2412 125.244 26.1631 125.433 26.0542C125.627 25.9453 125.724 25.7559 125.724 25.486V25.4292C125.724 24.7284 125.533 24.1839 125.149 23.7956C124.77 23.4074 124.195 23.2132 123.423 23.2132C122.623 23.2132 121.996 23.3884 121.541 23.7388C121.087 24.0892 120.767 24.4632 120.582 24.861L118.991 24.2928C119.276 23.6299 119.654 23.1138 120.128 22.7445C120.606 22.3704 121.127 22.11 121.69 21.9632C122.259 21.8117 122.817 21.736 123.366 21.736C123.717 21.736 124.119 21.7786 124.574 21.8638C125.033 21.9443 125.476 22.1124 125.902 22.3681C126.333 22.6238 126.69 23.0096 126.974 23.5257C127.259 24.0418 127.401 24.7331 127.401 25.5996V32.7871H125.724V31.3098H125.639C125.526 31.5466 125.336 31.7999 125.071 32.0698C124.806 32.3397 124.453 32.5693 124.013 32.7587C123.572 32.9481 123.035 33.0428 122.401 33.0428ZM122.656 31.5371C123.319 31.5371 123.878 31.4069 124.332 31.1465C124.792 30.8861 125.137 30.5499 125.369 30.138C125.606 29.726 125.724 29.2928 125.724 28.8382V27.3042C125.653 27.3894 125.497 27.4675 125.256 27.5385C125.019 27.6048 124.744 27.664 124.432 27.7161C124.124 27.7634 123.823 27.806 123.53 27.8439C123.241 27.8771 123.007 27.9055 122.827 27.9292C122.391 27.986 121.984 28.0783 121.605 28.2061C121.231 28.3292 120.928 28.5163 120.696 28.7672C120.469 29.0134 120.355 29.3496 120.355 29.7757C120.355 30.3581 120.571 30.7985 121.001 31.0968C121.437 31.3903 121.989 31.5371 122.656 31.5371ZM138.187 24.3212L136.681 24.7473C136.587 24.4964 136.447 24.2525 136.262 24.0158C136.083 23.7743 135.836 23.5755 135.524 23.4192C135.211 23.263 134.811 23.1848 134.324 23.1848C133.656 23.1848 133.1 23.3387 132.654 23.6465C132.214 23.9495 131.994 24.3354 131.994 24.8042C131.994 25.2208 132.145 25.5499 132.449 25.7914C132.752 26.0328 133.225 26.2341 133.869 26.3951L135.488 26.7928C136.464 27.0295 137.19 27.3917 137.669 27.8794C138.147 28.3624 138.386 28.985 138.386 29.7473C138.386 30.3723 138.206 30.931 137.846 31.4235C137.491 31.9159 136.994 32.3042 136.355 32.5882C135.716 32.8723 134.972 33.0144 134.125 33.0144C133.012 33.0144 132.091 32.7729 131.362 32.29C130.633 31.807 130.171 31.1015 129.977 30.1735L131.568 29.7757C131.719 30.3629 132.006 30.8032 132.427 31.0968C132.853 31.3903 133.41 31.5371 134.096 31.5371C134.877 31.5371 135.498 31.3714 135.957 31.04C136.421 30.7038 136.653 30.3013 136.653 29.8326C136.653 29.4538 136.52 29.1365 136.255 28.8809C135.99 28.6204 135.583 28.4263 135.034 28.2985L133.216 27.8723C132.217 27.6356 131.483 27.2686 131.014 26.7715C130.55 26.2696 130.318 25.6422 130.318 24.8894C130.318 24.2739 130.491 23.7293 130.836 23.2559C131.187 22.7824 131.663 22.4107 132.264 22.1408C132.87 21.8709 133.556 21.736 134.324 21.736C135.403 21.736 136.251 21.9727 136.866 22.4462C137.486 22.9197 137.927 23.5447 138.187 24.3212ZM145.483 33.0144C144.432 33.0144 143.525 32.7824 142.763 32.3184C142.005 31.8496 141.42 31.1962 141.009 30.3581C140.601 29.5153 140.398 28.5352 140.398 27.4178C140.398 26.3004 140.601 25.3155 141.009 24.4632C141.42 23.6062 141.993 22.9386 142.727 22.4604C143.466 21.9775 144.328 21.736 145.312 21.736C145.881 21.736 146.442 21.8307 146.996 22.0201C147.55 22.2095 148.054 22.5172 148.509 22.9434C148.963 23.3648 149.325 23.9235 149.595 24.6195C149.865 25.3155 150 26.1725 150 27.1905V27.9007H141.591V26.4519H148.295C148.295 25.8364 148.172 25.2871 147.926 24.8042C147.685 24.3212 147.339 23.94 146.889 23.6607C146.444 23.3813 145.919 23.2417 145.312 23.2417C144.645 23.2417 144.067 23.4074 143.58 23.7388C143.097 24.0655 142.725 24.4917 142.464 25.0172C142.204 25.5428 142.074 26.1062 142.074 26.7076V27.6735C142.074 28.4973 142.216 29.1957 142.5 29.7686C142.789 30.3368 143.189 30.7701 143.7 31.0684C144.212 31.3619 144.806 31.5087 145.483 31.5087C145.923 31.5087 146.321 31.4471 146.676 31.324C147.036 31.1962 147.346 31.0068 147.607 30.7559C147.867 30.5002 148.068 30.1829 148.21 29.8042L149.83 30.2587C149.659 30.8079 149.373 31.2909 148.97 31.7076C148.568 32.1195 148.071 32.4415 147.479 32.6735C146.887 32.9007 146.222 33.0144 145.483 33.0144Z" fill="white"/>
<defs>
<clipPath id="clip0_5224_19472">
<rect width="50" height="50" fill="white" transform="translate(0 0.787109)"/>
</clipPath>
</defs>
</svg>
