<svg xmlns="http://www.w3.org/2000/svg" width="56" height="75" viewBox="0 0 56 75" fill="none"><g clip-path="url(#clip0_751_640)"><path d="M0.655273 60.4649L1.10882 59.83L22.5584 19.13L22.6037 18.6991L13.1485 0.938304C12.3559 -0.549435 10.1256 -0.173227 9.86584 1.49225L0.655273 60.4649Z" fill="#FFC24A"></path><path d="M0.922852 59.9812L1.26573 59.3123L22.4908 19.0387L13.0589 1.20566C12.2751 -0.266482 10.2845 0.108871 10.0272 1.75683L0.922852 59.9812Z" fill="#FFA712"></path><g filter="url(#filter0_i_751_640)"><path d="M0.922852 59.9812L1.26573 59.3123L22.4908 19.0387L13.0589 1.20566C12.2751 -0.266482 10.2845 0.108871 10.0272 1.75683L0.922852 59.9812Z" fill="black"></path></g><path d="M29.4964 32.1334L36.5367 24.9232L29.4942 11.4793C28.8258 10.2067 26.9593 10.2029 26.2979 11.4793L22.5352 18.6546V19.2656L29.4962 32.1334H29.4964Z" fill="#F4BD62"></path><path d="M29.371 31.8329L36.2156 24.8232L29.371 11.7901C28.7211 10.553 27.1421 10.4233 26.4991 11.6641L22.7167 18.9509L22.6035 19.3235L29.371 31.8329V31.8329Z" fill="#FFA50E"></path><g filter="url(#filter1_i_751_640)"><path d="M29.371 31.8329L36.2156 24.8232L29.371 11.7901C28.7211 10.553 27.1421 10.4233 26.4991 11.6641L22.7167 18.9509L22.6035 19.3235L29.371 31.8329V31.8329Z" fill="black"></path></g><path d="M0.655273 60.4649L0.860788 60.2581L1.60765 59.9547L29.0546 32.6097L29.4023 31.6631L22.5554 18.6157L0.655273 60.4649Z" fill="#F6820C"></path><path d="M30.3761 74.2555L55.2162 60.4021L48.1228 16.7152C47.9008 15.3484 46.224 14.8081 45.2456 15.7881L0.655273 60.4649L25.3529 74.2545C26.1206 74.6831 26.9852 74.9082 27.8644 74.9084C28.7436 74.9085 29.6082 74.6838 30.3761 74.2555Z" fill="#FDE068"></path><path d="M54.9934 60.2861L47.9538 16.931C47.7338 15.5745 46.3392 15.0132 45.3682 15.9859L0.930664 60.3801L25.3572 74.0329C26.119 74.4583 26.977 74.6817 27.8495 74.6819C28.722 74.6822 29.5801 74.4592 30.3421 74.0342L54.9937 60.2859L54.9934 60.2861Z" fill="#FCCA3F"></path><path d="M30.3757 73.8473C29.6078 74.2756 28.7432 74.5003 27.864 74.5001C26.9849 74.4999 26.1204 74.2748 25.3527 73.8462L0.853952 60.2549L0.655273 60.4649L25.3527 74.2545C26.1204 74.6831 26.9849 74.9082 27.8642 74.9084C28.7434 74.9086 29.608 74.6838 30.3759 74.2556L55.216 60.4021L55.1551 60.0278L30.3759 73.8475L30.3757 73.8473Z" fill="#EEAB37"></path></g><defs><filter id="filter0_i_751_640" x="0.922852" y="0.285645" width="21.5684" height="59.6953" filterUnits="userSpaceOnUse" color-interpolation-filters="sRGB"><feGaussianBlur stdDeviation="124.619"></feGaussianBlur></filter><filter id="filter1_i_751_640" x="22.6035" y="-39.0522" width="20.7334" height="70.8853" filterUnits="userSpaceOnUse" color-interpolation-filters="sRGB"><feGaussianBlur stdDeviation="24.9238"></feGaussianBlur></filter><clipPath id="clip0_751_640"><rect width="54.69" height="75" fill="white" transform="translate(0.655273)"></rect></clipPath></defs></svg>