<svg width="80" height="80" viewBox="0 0 80 80" fill="none" xmlns="http://www.w3.org/2000/svg">
<path d="M0 37.1014C0 19.6117 0 10.8668 5.43338 5.43338C10.8668 0 19.6117 0 37.1014 0H42.9C60.3898 0 69.1347 0 74.5681 5.43338C80.0014 10.8668 80.0014 19.6117 80.0014 37.1014V42.9C80.0014 60.3898 80.0014 69.1347 74.5681 74.5681C69.1347 80.0014 60.3898 80.0014 42.9 80.0014H37.1014C19.6117 80.0014 10.8668 80.0014 5.43338 74.5681C0 69.1347 0 60.3898 0 42.9V37.1014Z" fill="#1B1D1E"/>
<g clip-path="url(#clip0_11783_37825)">
<rect x="18.5508" y="18.5508" width="42.9" height="42.9" rx="10.296" fill="#45D1FD"/>
<mask id="mask0_11783_37825" style="mask-type:luminance" maskUnits="userSpaceOnUse" x="28" y="27" width="21" height="26">
<path d="M48.7566 39.0352L42.0207 45.7736L48.7566 52.5119H41.0594L34.3211 45.7736L41.0594 39.0352H48.7566ZM41.0594 27.4883L28.5488 39.9989L32.3986 43.8487L48.7566 27.4883H41.0594Z" fill="white"/>
</mask>
<g mask="url(#mask0_11783_37825)">
<path d="M34.3223 45.7735L38.1696 49.6233L48.7554 39.0352H41.0582L34.3223 45.7735Z" fill="#39CEFD"/>
</g>
<mask id="mask1_11783_37825" style="mask-type:luminance" maskUnits="userSpaceOnUse" x="28" y="27" width="21" height="26">
<path d="M48.7566 39.0352L42.0207 45.7736L48.7566 52.5119H41.0594L34.3211 45.7736L41.0594 39.0352H48.7566ZM41.0594 27.4883L28.5488 39.9989L32.3986 43.8487L48.7566 27.4883H41.0594Z" fill="white"/>
</mask>
<g mask="url(#mask1_11783_37825)">
<path d="M41.0594 27.4883H48.7566L32.3986 43.8487L28.5488 39.9989L41.0594 27.4883Z" fill="#39CEFD"/>
</g>
<mask id="mask2_11783_37825" style="mask-type:luminance" maskUnits="userSpaceOnUse" x="28" y="27" width="21" height="26">
<path d="M48.7566 39.0352L42.0207 45.7736L48.7566 52.5119H41.0594L34.3211 45.7736L41.0594 39.0352H48.7566ZM41.0594 27.4883L28.5488 39.9989L32.3986 43.8487L48.7566 27.4883H41.0594Z" fill="white"/>
</mask>
<g mask="url(#mask2_11783_37825)">
<path d="M38.1699 49.6232L41.0585 52.5094H48.7556L42.0197 45.7734L38.1699 49.6232Z" fill="#03569B"/>
</g>
<mask id="mask3_11783_37825" style="mask-type:luminance" maskUnits="userSpaceOnUse" x="28" y="27" width="21" height="26">
<path d="M48.7566 39.0352L42.0207 45.7736L48.7566 52.5119H41.0594L34.3211 45.7736L41.0594 39.0352H48.7566ZM41.0594 27.4883L28.5488 39.9989L32.3986 43.8487L48.7566 27.4883H41.0594Z" fill="white"/>
</mask>
<g mask="url(#mask3_11783_37825)">
<path d="M43.8796 47.6453L42.0197 45.7734L38.1699 49.6232L43.8796 47.6453Z" fill="url(#paint0_linear_11783_37825)"/>
</g>
<mask id="mask4_11783_37825" style="mask-type:luminance" maskUnits="userSpaceOnUse" x="28" y="27" width="21" height="26">
<path d="M48.7566 39.0352L42.0207 45.7736L48.7566 52.5119H41.0594L34.3211 45.7736L41.0594 39.0352H48.7566ZM41.0594 27.4883L28.5488 39.9989L32.3986 43.8487L48.7566 27.4883H41.0594Z" fill="white"/>
</mask>
<g mask="url(#mask4_11783_37825)">
<path d="M34.3223 45.7728L38.1722 41.9229L42.0223 45.7728L38.1722 49.6227L34.3223 45.7728Z" fill="#16B9FD"/>
</g>
<path d="M48.7566 39.0352L42.0207 45.7736L48.7566 52.5119H41.0594L34.3211 45.7736L41.0594 39.0352H48.7566ZM41.0594 27.4883L28.5488 39.9989L32.3986 43.8487L48.7566 27.4883H41.0594Z" fill="white"/>
</g>
<defs>
<linearGradient id="paint0_linear_11783_37825" x1="39.2934" y1="50.3662" x2="42.1606" y2="47.499" gradientUnits="userSpaceOnUse">
<stop stop-color="#1A237E" stop-opacity="0.4"/>
<stop offset="1" stop-color="#1A237E" stop-opacity="0"/>
</linearGradient>
<clipPath id="clip0_11783_37825">
<rect width="42.9" height="42.9" fill="white" transform="translate(18.5508 18.5508)"/>
</clipPath>
</defs>
</svg>
