<svg width="132" height="51" viewBox="0 0 132 51" fill="none" xmlns="http://www.w3.org/2000/svg">
<g clip-path="url(#clip0_5224_19472)">
<path d="M31.552 0.787109L7 25.6554L14.5993 33.3527L46.7507 0.787109H31.552Z" fill="#47C5FB"/>
<path d="M31.3802 23.7207L18.2344 37.0359L25.8623 44.8775L33.4475 37.1945L46.7501 23.7207H31.3802Z" fill="#47C5FB"/>
<path d="M25.8613 44.8774L31.6357 50.7262H46.749L33.4464 37.1943L25.8613 44.8774Z" fill="#00569E"/>
<path d="M18.1484 37.1222L25.7479 29.4248L33.447 37.1943L25.8619 44.8773L18.1484 37.1222Z" fill="#00B5F8"/>
<path d="M25.8613 44.8769L32.1774 42.754L32.8048 37.8438L25.8613 44.8769Z" fill="url(#paint0_linear_5224_19472)" fill-opacity="0.8"/>
</g>
<path d="M71.7614 32.7871V18.2417H80.483V19.8042H73.5227V24.7189H79.8295V26.2814H73.5227V32.7871H71.7614ZM84.9485 18.2417V32.7871H83.2724V18.2417H84.9485ZM94.8935 28.3269V21.878H96.5696V32.7871H94.8935V30.9405H94.7798C94.5241 31.4945 94.1264 31.9656 93.5866 32.3539C93.0469 32.7374 92.3651 32.9292 91.5412 32.9292C90.8594 32.9292 90.2533 32.78 89.723 32.4817C89.1927 32.1787 88.776 31.7241 88.473 31.1181C88.17 30.5073 88.0185 29.7379 88.0185 28.8098V21.878H89.6946V28.6962C89.6946 29.4917 89.9171 30.1261 90.3622 30.5996C90.812 31.0731 91.3849 31.3098 92.081 31.3098C92.4976 31.3098 92.9214 31.2033 93.3523 30.9902C93.7879 30.7772 94.1525 30.4505 94.446 30.0101C94.7443 29.5698 94.8935 29.0087 94.8935 28.3269ZM104.384 21.878V23.2985H98.7305V21.878H104.384ZM100.378 19.2644H102.054V29.6621C102.054 30.1356 102.123 30.4907 102.26 30.7275C102.402 30.9595 102.582 31.1157 102.8 31.1962C103.023 31.272 103.257 31.3098 103.503 31.3098C103.688 31.3098 103.839 31.3004 103.958 31.2814C104.076 31.2578 104.171 31.2388 104.242 31.2246L104.583 32.7303C104.469 32.7729 104.31 32.8155 104.107 32.8581C103.903 32.9055 103.645 32.9292 103.333 32.9292C102.859 32.9292 102.395 32.8274 101.941 32.6238C101.491 32.4202 101.117 32.11 100.819 31.6934C100.525 31.2767 100.378 30.7511 100.378 30.1167V19.2644ZM111.65 21.878V23.2985H105.996V21.878H111.65ZM107.644 19.2644H109.32V29.6621C109.32 30.1356 109.389 30.4907 109.526 30.7275C109.668 30.9595 109.848 31.1157 110.066 31.1962C110.288 31.272 110.523 31.3098 110.769 31.3098C110.953 31.3098 111.105 31.3004 111.223 31.2814C111.342 31.2578 111.436 31.2388 111.507 31.2246L111.848 32.7303C111.735 32.7729 111.576 32.8155 111.373 32.8581C111.169 32.9055 110.911 32.9292 110.598 32.9292C110.125 32.9292 109.661 32.8274 109.206 32.6238C108.757 32.4202 108.382 32.11 108.084 31.6934C107.791 31.2767 107.644 30.7511 107.644 30.1167V19.2644ZM118.627 33.0144C117.576 33.0144 116.67 32.7824 115.907 32.3184C115.15 31.8496 114.565 31.1962 114.153 30.3581C113.746 29.5153 113.542 28.5352 113.542 27.4178C113.542 26.3004 113.746 25.3155 114.153 24.4632C114.565 23.6062 115.138 22.9386 115.872 22.4604C116.61 21.9775 117.472 21.736 118.457 21.736C119.025 21.736 119.586 21.8307 120.14 22.0201C120.694 22.2095 121.199 22.5172 121.653 22.9434C122.108 23.3648 122.47 23.9235 122.74 24.6195C123.01 25.3155 123.145 26.1725 123.145 27.1905V27.9007H114.735V26.4519H121.44C121.44 25.8364 121.317 25.2871 121.071 24.8042C120.829 24.3212 120.484 23.94 120.034 23.6607C119.589 23.3813 119.063 23.2417 118.457 23.2417C117.789 23.2417 117.212 23.4074 116.724 23.7388C116.241 24.0655 115.869 24.4917 115.609 25.0172C115.349 25.5428 115.218 26.1062 115.218 26.7076V27.6735C115.218 28.4973 115.36 29.1957 115.645 29.7686C115.933 30.3368 116.333 30.7701 116.845 31.0684C117.356 31.3619 117.95 31.5087 118.627 31.5087C119.068 31.5087 119.466 31.4471 119.821 31.324C120.181 31.1962 120.491 31.0068 120.751 30.7559C121.011 30.5002 121.213 30.1829 121.355 29.8042L122.974 30.2587C122.804 30.8079 122.517 31.2909 122.115 31.7076C121.712 32.1195 121.215 32.4415 120.623 32.6735C120.031 32.9007 119.366 33.0144 118.627 33.0144ZM125.694 32.7871V21.878H127.314V23.5257H127.427C127.626 22.986 127.986 22.548 128.507 22.2118C129.028 21.8757 129.615 21.7076 130.268 21.7076C130.391 21.7076 130.545 21.7099 130.73 21.7147C130.914 21.7194 131.054 21.7265 131.149 21.736V23.4405C131.092 23.4263 130.962 23.405 130.758 23.3766C130.559 23.3435 130.349 23.3269 130.126 23.3269C129.596 23.3269 129.122 23.4382 128.706 23.6607C128.294 23.8785 127.967 24.1815 127.725 24.5698C127.489 24.9533 127.37 25.3913 127.37 25.8837V32.7871H125.694Z" fill="white"/>
<defs>
<linearGradient id="paint0_linear_5224_19472" x1="53.3" y1="227.69" x2="554.311" y2="405.933" gradientUnits="userSpaceOnUse">
<stop/>
<stop offset="1" stop-opacity="0"/>
</linearGradient>
<clipPath id="clip0_5224_19472">
<rect width="50" height="50" fill="white" transform="translate(0 0.787109)"/>
</clipPath>
</defs>
</svg>
