<svg width="32" height="32" viewBox="0 0 32 32" fill="none" xmlns="http://www.w3.org/2000/svg">
<path fill-rule="evenodd" clip-rule="evenodd" d="M4.92071 7.43624C4.44531 8.11356 4.44531 10.1268 4.44531 14.1535V16.1364C4.44531 23.2362 9.78326 26.6816 13.1324 28.1446C14.0409 28.5414 14.4951 28.7399 15.7786 28.7399V3.55469C14.7569 3.55469 13.7701 3.89247 11.7965 4.56804L11.0752 4.81494C7.28912 6.11093 5.39609 6.75892 4.92071 7.43624Z" fill="#283A8F"/>
<path d="M15.499 27.9297C15.8582 27.9107 16.1287 27.8716 16.3711 27.8115C16.7213 27.7246 17.032 27.5935 17.502 27.3945C20.8701 25.9685 26.0547 22.6873 26.0547 15.9883V14.0283C26.0547 12.0324 26.0547 10.557 25.9951 9.49609C25.9653 8.96629 25.9209 8.55728 25.8594 8.24805C25.7963 7.93086 25.7234 7.76425 25.665 7.68359C25.6072 7.60375 25.4703 7.48127 25.1826 7.31934C24.9025 7.16165 24.5191 6.98868 24.0146 6.79004C23.0049 6.39249 21.5736 5.91671 19.6377 5.27441L18.9023 5.03027C17.2181 4.47149 16.298 4.17335 15.499 4.08496V27.9297Z" stroke="#283A8F"/>
</svg>
