<svg width="50" height="50" viewBox="0 0 50 50" fill="none" xmlns="http://www.w3.org/2000/svg">
<rect width="50" height="50" rx="12" fill="#2DBCAF"/>
<path d="M9.09251 22.2386C9.01953 22.2386 9.00129 22.2021 9.03778 22.1473L9.42094 21.6547C9.45743 21.6 9.54866 21.5635 9.62164 21.5635H16.1354C16.2084 21.5635 16.2266 21.6182 16.1901 21.673L15.8799 22.1473C15.8434 22.2021 15.7522 22.2568 15.6975 22.2568L9.09251 22.2386Z" fill="white"/>
<path d="M6.33666 23.9173C6.26367 23.9173 6.24543 23.8808 6.28192 23.8261L6.66508 23.3334C6.70157 23.2787 6.7928 23.2422 6.86578 23.2422H15.1858C15.2588 23.2422 15.2953 23.2969 15.2771 23.3517L15.1311 23.7896C15.1129 23.8625 15.0399 23.899 14.9669 23.899L6.33666 23.9173Z" fill="white"/>
<path d="M10.7527 25.596C10.6797 25.596 10.6614 25.5413 10.6979 25.4865L10.9534 25.0304C10.9899 24.9756 11.0628 24.9209 11.1358 24.9209H14.785C14.858 24.9209 14.8945 24.9756 14.8945 25.0486L14.858 25.4865C14.858 25.5595 14.785 25.6142 14.7302 25.6142L10.7527 25.596Z" fill="white"/>
<path d="M29.6918 21.9104C28.5423 22.2023 27.7578 22.4212 26.6265 22.7132C26.3529 22.7862 26.3346 22.8044 26.0974 22.5307C25.8237 22.2205 25.623 22.0198 25.2399 21.8374C24.0904 21.2718 22.9774 21.436 21.9374 22.1111C20.6967 22.9139 20.0581 24.0999 20.0763 25.5778C20.0946 27.0374 21.0981 28.2416 22.5395 28.4423C23.7802 28.6066 24.8202 28.1687 25.6413 27.2381C25.8055 27.0374 25.9514 26.8185 26.1339 26.563C25.4771 26.563 24.656 26.563 22.6125 26.563C22.2293 26.563 22.1381 26.3258 22.2658 26.0157C22.503 25.45 22.9409 24.5013 23.1963 24.0269C23.2511 23.9174 23.3788 23.7349 23.6525 23.7349C24.583 23.7349 28.0132 23.7349 30.2939 23.7349C30.2574 24.2276 30.2574 24.7202 30.1845 25.2128C29.9838 26.5265 29.4911 27.7308 28.6883 28.789C27.3746 30.5224 25.6595 31.5989 23.4883 31.8908C21.7002 32.128 20.0398 31.7813 18.5802 30.6866C17.23 29.6648 16.4637 28.3146 16.263 26.636C16.0258 24.6472 16.6096 22.8591 17.8138 21.29C19.1093 19.5932 20.8244 18.5167 22.9226 18.1335C24.6378 17.8233 26.2799 18.024 27.7578 19.0275C28.7248 19.6661 29.4181 20.5419 29.8743 21.6002C29.9838 21.7644 29.9108 21.8556 29.6918 21.9104Z" fill="white"/>
<path d="M35.7312 32.0003C34.0708 31.9638 32.5564 31.4894 31.2792 30.3946C30.2027 29.4641 29.5276 28.2781 29.3087 26.8732C28.9803 24.8114 29.5459 22.9869 30.7866 21.363C32.1185 19.6114 33.7242 18.6991 35.8954 18.3159C37.7565 17.9875 39.5081 18.17 41.0954 19.2465C42.5369 20.2317 43.4309 21.5637 43.6681 23.3153C43.9783 25.7785 43.2667 27.7855 41.5698 29.5006C40.3656 30.7231 38.8877 31.4894 37.1908 31.836C36.6982 31.9273 36.2056 31.9455 35.7312 32.0003ZM40.0737 24.629C40.0554 24.3918 40.0554 24.2093 40.0189 24.0269C39.6905 22.2205 38.0302 21.1988 36.2968 21.6002C34.6 21.9833 33.5052 23.0598 33.1038 24.7749C32.7754 26.1981 33.4687 27.6395 34.7824 28.2234C35.7859 28.6613 36.7894 28.6065 37.7565 28.1139C39.1979 27.3658 39.9824 26.1981 40.0737 24.629Z" fill="white"/>
</svg>
