<svg width="50" height="21" viewBox="0 0 50 21" fill="none" xmlns="http://www.w3.org/2000/svg">
<g clip-path="url(#clip0_15030_10141)">
<path d="M5.53537 17.5652C5.90659 18.0591 6.38901 18.4585 6.9435 18.731C7.54318 19.0281 8.20489 19.1783 8.87404 19.1692C9.41507 19.1834 9.95366 19.0915 10.4594 18.8988C10.8639 18.7399 11.225 18.4874 11.5132 18.1621C11.7836 17.8452 11.981 17.4726 12.0914 17.0709C12.2118 16.6367 12.2714 16.188 12.2685 15.7374V14.1707H12.2314C11.8807 14.7265 11.3748 15.1675 10.7763 15.439C10.2057 15.6875 9.58958 15.8145 8.96719 15.812C8.35733 15.8166 7.7524 15.7026 7.18605 15.4763C6.6498 15.2634 6.15915 14.95 5.74048 14.553C5.32504 14.1542 4.99504 13.675 4.77055 13.1447C4.53166 12.5848 4.41101 11.9815 4.41618 11.3728C4.41103 10.7659 4.52514 10.1639 4.75202 9.60089C4.96647 9.06828 5.27969 8.58102 5.67518 8.16478C6.07061 7.75195 6.5468 7.42496 7.0741 7.20418C7.63833 6.96959 8.24437 6.8522 8.85538 6.85914C9.1336 6.86076 9.41119 6.88568 9.68525 6.93364C9.98663 6.98629 10.2808 7.07396 10.5619 7.19485C11.2292 7.48405 11.806 7.94808 12.2314 8.53793H12.2685V7.0829H13.4997V15.7374C13.4955 16.2459 13.436 16.7525 13.3224 17.2481C13.2036 17.7841 12.968 18.2872 12.6324 18.7216C12.2505 19.2008 11.7619 19.5841 11.2054 19.8409C10.5961 20.1392 9.80022 20.2883 8.81793 20.2883C8.02 20.3019 7.22738 20.1561 6.48652 19.8594C5.77772 19.5558 5.1419 19.1043 4.62154 18.5353L5.53537 17.5652ZM5.75914 11.3357C5.75606 11.7802 5.84169 12.2208 6.01101 12.6318C6.17244 13.0262 6.40647 13.3869 6.70095 13.6949C6.99372 14.0003 7.34187 14.2471 7.72686 14.4224C8.12791 14.6047 8.564 14.697 9.00451 14.6928C9.87691 14.696 10.7176 14.3658 11.3546 13.7697C11.6674 13.4745 11.9125 13.1148 12.0728 12.7157C12.2455 12.2769 12.3249 11.8069 12.306 11.3357C12.3091 10.8936 12.2333 10.4546 12.0821 10.0392C11.9384 9.64443 11.7163 9.28281 11.4292 8.97612C11.1341 8.66522 10.7787 8.41772 10.3848 8.24874C9.94857 8.06334 9.47843 7.97119 9.00451 7.97821C8.56399 7.97416 8.12793 8.0665 7.72686 8.24874C7.34199 8.42419 6.99388 8.67101 6.70095 8.97612C6.40657 9.28429 6.17251 9.64487 6.01088 10.0392C5.84163 10.4503 5.75605 10.8911 5.75914 11.3357ZM18.5167 15.812H17.1739V2.60639H21.24C22.5829 2.60639 23.6429 2.89861 24.42 3.48304C25.1971 4.06764 25.5857 4.9505 25.5859 6.13163C25.6095 6.98896 25.2984 7.8218 24.7185 8.45371C24.1403 9.08176 23.304 9.44546 22.2099 9.54479L26.0149 15.812H24.3734L20.7551 9.67552H18.5169L18.5167 15.812ZM18.5167 8.44451H20.9043C21.4173 8.45531 21.9292 8.39248 22.4243 8.25794C22.7865 8.16111 23.1257 7.99312 23.4222 7.76377C23.6614 7.57126 23.8476 7.32091 23.963 7.03639C24.0765 6.74836 24.1335 6.44119 24.131 6.13163C24.1323 5.82831 24.0753 5.52756 23.963 5.24579C23.8462 4.95936 23.6605 4.70624 23.4222 4.50894C23.1286 4.27504 22.7883 4.10652 22.4243 4.01465C21.928 3.88687 21.4166 3.82729 20.9043 3.83753H18.5167V8.44451ZM28.3274 2.60639H32.1698C33.5126 2.60639 34.5726 2.89865 35.3497 3.48317C36.1268 4.06777 36.5154 4.95063 36.5155 6.13176C36.5155 7.31323 36.1269 8.19916 35.3497 8.78955C34.5726 9.38028 33.5126 9.67561 32.1698 9.67552H29.6704V15.812H28.3274V2.60639ZM29.6706 8.44464H31.8342C32.3472 8.45542 32.8591 8.39259 33.3543 8.25807C33.7164 8.1612 34.0556 7.99321 34.3522 7.7639C34.5914 7.57137 34.7775 7.32102 34.893 7.03652C35.0065 6.7485 35.0635 6.44133 35.0609 6.13176C35.0623 5.82844 35.0053 5.52768 34.893 5.24591C34.7762 4.9595 34.5904 4.70639 34.3522 4.50907C34.0585 4.27521 33.7183 4.10669 33.3543 4.01478C32.858 3.88702 32.3466 3.82743 31.8342 3.83766H29.6704L29.6706 8.44464ZM50.0004 13.723C49.7641 14.0731 49.4854 14.3926 49.1707 14.6743C48.8299 14.9804 48.4505 15.2406 48.0421 15.4482C47.6062 15.6708 47.1463 15.8429 46.6713 15.9613C46.1618 16.0877 45.6386 16.1504 45.1137 16.1477C44.1773 16.1565 43.2485 15.979 42.3814 15.6256C40.7276 14.9573 39.4176 13.6439 38.7535 11.9884C38.3982 11.1054 38.2207 10.161 38.2314 9.20921C38.2207 8.25747 38.3982 7.313 38.7535 6.43002C39.4176 4.77458 40.7276 3.46126 42.3814 2.7931C43.2485 2.43959 44.1773 2.26205 45.1137 2.27082C45.9577 2.27534 46.7931 2.43986 47.5758 2.75565C48.4106 3.08973 49.139 3.64417 49.6833 4.35981L48.5084 5.23646C48.3506 5.00132 48.1624 4.78807 47.9487 4.60223C47.7019 4.3837 47.4296 4.19585 47.1376 4.04276C46.8257 3.87847 46.4975 3.7472 46.1582 3.65109C45.8187 3.55285 45.4671 3.50261 45.1137 3.50182C44.3302 3.48897 43.5535 3.64815 42.8382 3.96813C42.1893 4.26254 41.6083 4.68796 41.1317 5.21767C40.66 5.7489 40.2957 6.36653 40.059 7.03639C39.5618 8.44226 39.5618 9.97617 40.059 11.382C40.2957 12.0519 40.66 12.6695 41.1317 13.2006C41.6082 13.7305 42.1892 14.156 42.8382 14.4503C43.5534 14.7705 44.3302 14.9297 45.1137 14.9167C45.4609 14.9169 45.8074 14.8856 46.1489 14.8234C46.4964 14.7595 46.8347 14.6531 47.1562 14.5064C47.495 14.351 47.8092 14.1467 48.0888 13.9C48.4028 13.6195 48.6759 13.2962 48.9 12.9397L50.0004 13.723Z" fill="#244B5A"/>
<path d="M3.47852 6.92969L0.000608364 3.47754L3.45275 -0.000364233L6.93066 3.45178L3.47852 6.92969Z" fill="url(#paint0_linear_15030_10141)"/>
<path d="M12.9434 5.45654L10.9034 3.43168L12.9282 1.3917L14.9682 3.41657L12.9434 5.45654Z" fill="url(#paint1_linear_15030_10141)"/>
<path d="M3.60422 1.36989L1.51367 3.47612L3.61977 5.56667L5.40156 5.56006L3.53309 3.70662L12.7594 3.67241L11.9507 4.48647L12.8416 4.48323L13.887 3.43012L12.8339 2.38491L11.943 2.38815L12.7577 3.19638L3.53141 3.23059L5.38589 1.36328L3.60422 1.36989Z" fill="#244B5A"/>
</g>
<defs>
<linearGradient id="paint0_linear_15030_10141" x1="-344.312" y1="-338.285" x2="348.693" y2="-340.861" gradientUnits="userSpaceOnUse">
<stop stop-color="#72C9C9"/>
<stop offset="1" stop-color="#02B0AD"/>
</linearGradient>
<linearGradient id="paint1_linear_15030_10141" x1="-191.054" y1="-197.03" x2="215.43" y2="-198.541" gradientUnits="userSpaceOnUse">
<stop stop-color="#03B6B4"/>
<stop offset="1" stop-color="#74CBCA"/>
</linearGradient>
<clipPath id="clip0_15030_10141">
<rect width="50" height="20.3125" fill="white"/>
</clipPath>
</defs>
</svg>
