<svg width="48" height="37" viewBox="0 0 48 37" fill="none" xmlns="http://www.w3.org/2000/svg">
<path d="M0 22.1404V29.5066C0 33.5845 10.5858 36.888 23.6511 36.888V29.5066C10.5858 29.5066 0 26.2107 0 22.1404ZM23.6512 14.759L42.1524 19.3366C45.3721 18.0778 47.3062 16.4756 47.3062 14.759V7.38135C47.3062 3.30732 36.7165 0 23.6551 0C10.5936 0 9.76026e-05 3.2959 9.76026e-05 7.38135V14.759C9.76026e-05 18.8254 10.5859 22.1404 23.6512 22.1404V14.759ZM42.1486 26.7371L23.6512 22.1404V29.5066L42.1524 34.1033C45.3683 32.8559 47.3023 31.2576 47.3023 29.5066V22.1404C47.3023 23.8761 45.3683 25.4744 42.1486 26.7371Z" fill="#D43D44"/>
</svg>
