<svg width="50" height="50" viewBox="0 0 50 50" fill="none" xmlns="http://www.w3.org/2000/svg">
<path d="M18.2247 49.9966C15.4886 48.7007 12.9282 45.4071 12.9221 42.0371C12.9146 38.3629 15.0397 35.2434 17.6828 33.1934C17.3651 34.5088 17.1918 35.712 17.979 36.8886C18.7108 37.9825 19.9925 38.514 21.2027 38.2255C24.0306 37.5472 24.1603 34.141 22.4839 32.1565C20.8263 30.1912 19.2228 27.9714 19.8538 25.1214C20.1696 23.6928 20.9702 22.3546 21.9844 21.398C21.2048 23.6427 23.4201 25.8565 24.8797 26.9592C27.4116 28.8723 30.1896 30.3181 32.5176 32.5607C34.9664 34.9177 36.7747 38.1045 36.4095 41.8007C36.0138 45.807 33.1084 48.5933 29.8495 50C36.7361 48.3346 43.8517 42.4782 43.9975 34.1098C44.1183 27.225 39.8079 21.9266 34.4684 18.8933L34.1895 18.7264C34.336 19.116 34.384 19.4474 34.3784 19.7441C34.4262 19.5253 34.4587 19.3005 34.4678 19.0685C34.4665 19.3441 34.4337 19.6184 34.37 19.885L34.3784 19.7441C34.2991 20.1096 34.1656 20.4584 33.9831 20.7764L34.0614 20.6841C32.9962 22.62 30.1124 23.0404 28.6878 21.0358C26.3976 17.8113 28.7357 14.3347 29.0628 10.9201C29.4723 6.64061 27.0229 2.48612 23.9861 0C25.6587 2.96471 23.4551 6.88702 21.6921 9.07983C19.9825 11.2054 17.9035 12.9802 16.0163 14.9115C13.989 16.9858 12.0401 19.1709 10.3738 21.6055C7.0411 26.4785 5.00084 32.6072 6.50017 38.6865C7.99856 44.7617 12.8011 48.6291 18.2247 49.9966Z" fill="#EE4323"/>
</svg>
