<svg width="46" height="47" viewBox="0 0 46 47" fill="none" xmlns="http://www.w3.org/2000/svg">
<path fill-rule="evenodd" clip-rule="evenodd" d="M45.589 10.6232C45.6059 10.6858 45.6146 10.7503 45.6147 10.8152V20.8946C45.6147 21.024 45.5806 21.1511 45.5158 21.263C45.4509 21.375 45.3577 21.4678 45.2454 21.5322L36.7856 26.4029V36.057C36.7856 36.3197 36.6459 36.5622 36.4181 36.6945L18.7589 46.8603C18.7185 46.8833 18.6744 46.898 18.6303 46.9136C18.6137 46.9191 18.5981 46.9292 18.5807 46.9338C18.4572 46.9663 18.3275 46.9663 18.204 46.9338C18.1838 46.9283 18.1654 46.9173 18.1461 46.9099C18.1057 46.8952 18.0635 46.8824 18.0249 46.8603L0.369298 36.6945C0.257137 36.6301 0.163943 36.5372 0.0991083 36.4253C0.0342734 36.3134 8.88698e-05 36.1863 0 36.057L0 5.81862C0 5.75248 0.00918652 5.68817 0.0257223 5.62571C0.0312342 5.60458 0.0440953 5.58529 0.0514445 5.56416C0.0652243 5.52557 0.0780854 5.48607 0.0982958 5.45024C0.112076 5.42636 0.132286 5.40707 0.148822 5.38502C0.169951 5.35562 0.189242 5.32531 0.214046 5.29958C0.235175 5.27846 0.262734 5.26284 0.286619 5.24447C0.31326 5.22242 0.337145 5.19853 0.367461 5.18108L9.19662 0.0981775C9.30841 0.033854 9.43512 0 9.56409 0C9.69305 0 9.81976 0.033854 9.93155 0.0981775L18.7598 5.18108H18.7616C18.791 5.19945 18.8158 5.22242 18.8425 5.24355C18.8664 5.26192 18.893 5.27846 18.9141 5.29867C18.9398 5.32531 18.9582 5.35562 18.9803 5.38502C18.9959 5.40707 19.017 5.42636 19.0299 5.45024C19.051 5.48699 19.0629 5.52557 19.0776 5.56416C19.085 5.58529 19.0979 5.60458 19.1034 5.62662C19.1203 5.68923 19.1289 5.75378 19.1291 5.81862V24.7052L26.4857 20.4693V10.8143C26.4857 10.7499 26.4948 10.6847 26.5114 10.6232C26.5178 10.6011 26.5297 10.5818 26.5371 10.5607C26.5518 10.5221 26.5647 10.4826 26.5849 10.4468C26.5986 10.4229 26.6189 10.4036 26.6345 10.3816C26.6565 10.3522 26.6749 10.3219 26.7006 10.2961C26.7217 10.275 26.7484 10.2594 26.7723 10.241C26.7998 10.219 26.8237 10.1951 26.8531 10.1776L35.6832 5.09473C35.7949 5.03031 35.9217 4.99641 36.0507 4.99641C36.1796 4.99641 36.3064 5.03031 36.4181 5.09473L45.2464 10.1776C45.2776 10.196 45.3015 10.219 45.329 10.2401C45.352 10.2585 45.3786 10.275 45.3998 10.2952C45.4255 10.3219 45.4439 10.3522 45.4659 10.3816C45.4825 10.4036 45.5027 10.4229 45.5155 10.4468C45.5367 10.4826 45.5486 10.5221 45.5633 10.5607C45.5716 10.5818 45.5835 10.6011 45.589 10.6232ZM44.1431 20.4693V12.0875L41.0536 13.866L36.7856 16.3234V24.7052L44.144 20.4693H44.1431ZM35.3148 35.6316V27.2443L31.1166 29.642L19.1282 36.4841V44.9504L35.3148 35.6316ZM1.47168 7.09096V35.6316L17.6565 44.9495V36.4851L9.20122 31.6998L9.19846 31.698L9.19479 31.6961C9.16631 31.6796 9.14242 31.6557 9.11578 31.6355C9.09282 31.6171 9.06618 31.6024 9.04597 31.5822L9.04413 31.5795C9.02024 31.5565 9.00371 31.528 8.9835 31.5023C8.96512 31.4775 8.94308 31.4564 8.92838 31.4306L8.92746 31.4279C8.91092 31.4003 8.90082 31.3673 8.88888 31.336C8.87693 31.3085 8.86132 31.2827 8.85397 31.2533C8.84478 31.2184 8.84294 31.1808 8.83927 31.1449C8.83559 31.1174 8.82824 31.0898 8.82824 31.0623V31.0604V11.3269L4.56111 8.86855L1.47168 7.09096ZM9.565 1.58456L2.20936 5.81862L9.56317 10.0527L16.9179 5.8177L9.56317 1.58456H9.565ZM13.3903 28.0087L17.6574 25.5522V7.09096L14.568 8.86947L10.2999 11.3269V29.7881L13.3903 28.0087ZM36.0507 6.5811L28.6959 10.8152L36.0507 15.0492L43.4045 10.8143L36.0507 6.5811ZM35.3148 16.3234L31.0468 13.866L27.9573 12.0875V20.4693L32.2245 22.9258L35.3148 24.7052V16.3234ZM18.3914 35.2118L29.1791 29.0532L34.5716 25.9757L27.2224 21.7444L18.7607 26.616L11.0486 31.0558L18.3914 35.2118Z" fill="#FF2D20"/>
</svg>
