<svg width="69" height="69" viewBox="0 0 69 69" fill="none" xmlns="http://www.w3.org/2000/svg">
<path d="M45.2812 28.5703C45.2812 22.616 40.4543 17.7891 34.5 17.7891C28.5457 17.7891 23.7188 22.616 23.7188 28.5703C23.7188 34.5246 28.5457 39.3516 34.5 39.3516C40.4543 39.3516 45.2812 34.5246 45.2812 28.5703Z" stroke="white" stroke-width="3"/>
<path d="M14.0156 52.5486C14.0156 55.9783 16.7957 58.7582 20.2252 58.7582H48.7612C52.1982 58.7582 54.9844 55.9718 54.9844 52.5351C54.9844 48.7211 51.5849 45.8045 47.8153 46.3842L39.6524 47.6396C36.0595 48.1921 32.4026 48.1849 28.8119 47.6179L21.1937 46.415C17.4247 45.8199 14.0156 48.7329 14.0156 52.5486Z" stroke="white" stroke-width="3" stroke-linejoin="round"/>
<path d="M51.2109 16.7109C50.3019 15.3336 48.9696 14.0822 47.29 13.0281C45.6104 11.9739 43.6164 11.1377 41.4219 10.5672C39.2274 9.99675 36.8753 9.70312 34.5 9.70312C32.1247 9.70312 29.7726 9.99675 27.5781 10.5672C25.3836 11.1377 23.3896 11.9739 21.71 13.0281C20.0304 14.0822 18.6981 15.3336 17.7891 16.7109" stroke="white" stroke-width="4" stroke-linecap="round"/>
<path d="M57.6797 25.3359C57.6797 23.5496 56.2316 22.1016 54.4453 22.1016C52.659 22.1016 51.2109 23.5496 51.2109 25.3359V31.2656C51.2109 33.0519 52.659 34.5 54.4453 34.5C56.2316 34.5 57.6797 33.0519 57.6797 31.2656V25.3359Z" stroke="white" stroke-width="4"/>
<path d="M17.7891 25.3359C17.7891 23.5496 16.341 22.1016 14.5547 22.1016C12.7684 22.1016 11.3203 23.5496 11.3203 25.3359V31.2656C11.3203 33.0519 12.7684 34.5 14.5547 34.5C16.341 34.5 17.7891 33.0519 17.7891 31.2656V25.3359Z" stroke="white" stroke-width="4"/>
<path d="M54.4453 34.5C54.4453 37.4771 52.0318 39.8906 49.0547 39.8906H48.2461" stroke="white" stroke-width="4" stroke-linecap="round" stroke-linejoin="round"/>
</svg>
