<svg width="65" height="52" viewBox="0 0 65 52" fill="none" xmlns="http://www.w3.org/2000/svg">
<path d="M41.1229 14.3645H43.0471L48.606 8.80559L48.891 6.45377C38.5572 -2.66848 22.7358 -1.67074 13.6136 8.66306C11.048 11.5138 9.26628 14.9346 8.19727 18.6405C8.83867 18.3554 9.48008 18.3554 10.1215 18.498L21.2392 16.645C21.2392 16.645 21.8094 15.7185 22.0944 15.7898C27.0832 10.3735 35.4215 9.73207 41.1229 14.3645Z" fill="#EA4335"/>
<path d="M56.588 18.6409C55.3052 13.9372 52.6683 9.73241 49.0336 6.4541L41.1942 14.2935C44.4725 17.0017 46.3967 21.064 46.2542 25.2687V26.6228C50.1027 26.6228 53.1672 29.7586 53.1672 33.5358C53.1672 37.313 50.0314 40.4487 46.2542 40.4487H32.4283L31.0742 41.8741V50.2124L32.4283 51.5665H46.3255C56.3029 51.6377 64.4274 43.5845 64.4987 33.607C64.57 27.6918 61.5767 22.0617 56.588 18.6409Z" fill="#4285F4"/>
<path d="M18.4606 51.5668H32.3578V40.449H18.4606C17.4628 40.449 16.4651 40.2352 15.6099 39.8076L13.6857 40.449L8.05551 46.0079L7.55664 47.9321C10.6924 50.3552 14.5409 51.638 18.4606 51.5668Z" fill="#34A853"/>
<path d="M18.4599 15.5049C8.48244 15.5762 0.429202 23.7007 0.500469 33.6781C0.500469 39.237 3.13737 44.5108 7.55596 47.8604L15.6092 39.8071C12.1171 38.2392 10.5492 34.1057 12.1171 30.6136C13.685 27.1215 17.8185 25.5536 21.3106 27.1215C22.8785 27.8342 24.09 29.0457 24.8027 30.6136L32.8559 22.5604C29.4351 18.1418 24.09 15.5049 18.4599 15.5049Z" fill="#FBBC05"/>
</svg>
