<svg width="50" height="50" viewBox="0 0 50 50" fill="none" xmlns="http://www.w3.org/2000/svg">
<g clip-path="url(#clip0_18308_16909)">
<path fill-rule="evenodd" clip-rule="evenodd" d="M0 45.5066V9.91923C0 7.85086 1.70703 6.17188 3.81232 6.17188H40.0155L0 45.5066Z" fill="#1EA361"/>
<path fill-rule="evenodd" clip-rule="evenodd" d="M0 46.25V45.5037L40.0166 6.16797H40.7759C42.8812 6.16797 44.5893 7.84695 44.5893 9.91533V10.6627L4.57266 49.9984H3.81339C1.70809 49.9984 0.00106489 48.3195 0.00106489 46.2511L0 46.25Z" fill="#FEDB43"/>
<path fill-rule="evenodd" clip-rule="evenodd" d="M4.57422 49.9981L22.2962 32.5781L40.0182 49.9981H4.57422Z" fill="#5384C4"/>
<path fill-rule="evenodd" clip-rule="evenodd" d="M40.0159 50.0009L22.0234 32.315L26.5972 27.8203L44.5896 45.5062V46.2525C44.5896 48.3209 42.8815 49.9999 40.7762 49.9999H40.017L40.0159 50.0009Z" fill="white"/>
<path fill-rule="evenodd" clip-rule="evenodd" d="M44.5892 45.504L26.8672 28.084L44.5892 10.6641V45.504Z" fill="#C2C2C1"/>
<path d="M7.95158 11.0133C10.2198 9.99272 13.0588 10.4083 14.9011 12.0789C14.325 12.6567 13.7329 13.2209 13.1408 13.783C11.2985 11.9847 7.8355 12.8378 6.97187 15.216C5.84202 17.5555 7.71943 20.6319 10.3753 20.6654C12.1132 20.8642 13.8468 19.7201 14.2132 18.0192C12.9992 18.0213 11.7873 18.0098 10.5755 18.0286C10.5414 17.2938 10.5371 16.5579 10.5531 15.821C12.5807 15.8723 14.6583 15.7069 16.656 15.9016C16.8083 17.3597 16.7039 18.9068 15.9063 20.1849C14.6562 22.4731 11.7032 23.4717 9.20496 22.8939C6.1157 22.2648 3.80381 19.1507 4.22551 16.0649C4.44168 13.8887 5.93892 11.9156 7.95158 11.0133Z" fill="#EFEFEF"/>
<path d="M36.8036 0H38.2529C41.8651 0.203069 45.3973 1.93858 47.5878 4.79201C49.0212 6.59451 49.822 8.83246 50.0019 11.1049V11.9486C49.9178 16.3544 47.05 19.9699 44.5667 23.3969C41.7788 27.2688 39.2028 31.4883 38.4894 36.2604C38.2977 37.0685 38.5266 38.2011 37.5448 38.5653C37.3137 38.3884 37.0443 38.2419 36.8824 37.9949C36.5917 35.3267 35.9134 32.692 34.7548 30.2552C33.4407 27.4164 31.6112 24.8508 29.753 22.3407C28.621 20.8355 27.554 19.2769 26.6722 17.6168C25.2847 15.1276 24.7693 12.1862 25.3358 9.39456C25.8001 7.19011 26.9746 5.14686 28.5997 3.56627C30.788 1.46231 33.7484 0.188415 36.8036 0ZM36.5214 7.75954C34.8069 8.13532 33.3693 9.62589 33.2245 11.3698C33.0445 12.9933 34.0115 14.6409 35.4917 15.3579C37.0965 16.1921 39.2039 15.9367 40.5446 14.7309C41.7959 13.6423 42.2516 11.7634 41.5988 10.2424C40.8257 8.33944 38.5288 7.25501 36.5214 7.76059V7.75954Z" fill="#DC4B3E"/>
<path d="M36.5215 7.76022C38.5289 7.25569 40.8258 8.33907 41.599 10.2421C42.2528 11.763 41.797 13.6419 40.5447 14.7305C39.204 15.9364 37.0966 16.1928 35.4918 15.3575C34.0116 14.6405 33.0447 12.9929 33.2246 11.3694C33.3694 9.62553 34.8071 8.13496 36.5215 7.75918V7.76022Z" fill="#802C27"/>
</g>
<defs>
<clipPath id="clip0_18308_16909">
<rect width="50" height="50" fill="white"/>
</clipPath>
</defs>
</svg>
