<svg width="50" height="50" viewBox="0 0 50 50" fill="none" xmlns="http://www.w3.org/2000/svg">
<mask id="mask0_10891_27711" style="mask-type:luminance" maskUnits="userSpaceOnUse" x="0" y="0" width="50" height="50">
<path d="M0 0H50V50H0V0Z" fill="white"/>
</mask>
<g mask="url(#mask0_10891_27711)">
<path d="M28.6647 22.2233H10.3511C5.17363 22.2233 0.976562 26.4205 0.976562 31.5979V35.1948C0.976562 40.3723 5.17363 44.5693 10.3511 44.5693H12.2371C17.4146 44.5693 21.6116 40.3723 21.6116 35.1948H28.3883C28.3883 40.3723 32.5854 44.5693 37.7628 44.5693H39.6489C44.8263 44.5693 49.0234 40.3723 49.0234 35.1948V31.5979C49.0234 26.4205 44.8263 22.2233 39.6489 22.2233H37.4941" stroke="#1B275F" stroke-width="1.95312" stroke-miterlimit="10" stroke-linecap="round" stroke-linejoin="round"/>
<path d="M16.4795 31.4786H13.4422V28.4413H9.60557V31.4786H6.56836V35.3152H9.60557V38.3525H13.4422V35.3152H16.4795V31.4786Z" stroke="#1B275F" stroke-width="1.95312" stroke-miterlimit="10" stroke-linecap="round" stroke-linejoin="round"/>
<path d="M38.5088 29.9453H40.5922" stroke="#1B275F" stroke-width="1.95312" stroke-miterlimit="10" stroke-linecap="round" stroke-linejoin="round"/>
<path d="M38.5088 36.8477H40.5922" stroke="#1B275F" stroke-width="1.95312" stroke-miterlimit="10" stroke-linecap="round" stroke-linejoin="round"/>
<path d="M43.001 32.3551V34.4385" stroke="#1B275F" stroke-width="1.95312" stroke-miterlimit="10" stroke-linecap="round" stroke-linejoin="round"/>
<path d="M36.0996 32.3551V34.4385" stroke="#1B275F" stroke-width="1.95312" stroke-miterlimit="10" stroke-linecap="round" stroke-linejoin="round"/>
<path d="M27.9283 22.2236H21.7295V18.2457H27.9283V22.2236Z" stroke="#1B275F" stroke-width="1.95312" stroke-miterlimit="10" stroke-linecap="round" stroke-linejoin="round"/>
<path d="M22.2656 28.7432H27.7344" stroke="#1B275F" stroke-width="1.95312" stroke-miterlimit="10" stroke-linecap="round" stroke-linejoin="round"/>
<path d="M24.8291 17.9521V10.5736H35.3841V5.43047" stroke="#1B275F" stroke-width="1.95312" stroke-miterlimit="10" stroke-linecap="round" stroke-linejoin="round"/>
</g>
</svg>
