<svg width="50" height="50" viewBox="0 0 50 50" fill="none" xmlns="http://www.w3.org/2000/svg">
<path d="M13.945 45.3125H13.5231C13.1267 45.3113 12.7453 45.1605 12.4553 44.8902C12.1652 44.6198 11.988 44.2499 11.9591 43.8545L9.81953 11.7188H34.2972C34.5044 11.7188 34.7031 11.6364 34.8496 11.4899C34.9961 11.3434 35.0784 11.1447 35.0784 10.9375C35.0784 10.7303 34.9961 10.5316 34.8496 10.3851C34.7031 10.2386 34.5044 10.1562 34.2972 10.1562H8.20312C7.99592 10.1562 7.79721 10.0739 7.6507 9.92743C7.50419 9.78091 7.42188 9.5822 7.42188 9.375C7.42188 9.1678 7.50419 8.96909 7.6507 8.82257C7.79721 8.67606 7.99592 8.59375 8.20312 8.59375H39.4531C39.6603 8.59375 39.859 8.67606 40.0056 8.82257C40.1521 8.96909 40.2344 9.1678 40.2344 9.375C40.2344 9.5822 40.1521 9.78091 40.0056 9.92743C39.859 10.0739 39.6603 10.1562 39.4531 10.1562H37.4222C37.215 10.1562 37.0163 10.2386 36.8698 10.3851C36.7232 10.5316 36.6409 10.7303 36.6409 10.9375C36.6409 11.1447 36.7232 11.3434 36.8698 11.4899C37.0163 11.6364 37.215 11.7188 37.4222 11.7188H37.8367L36.6425 29.6593C36.6289 29.866 36.698 30.0697 36.8344 30.2256C36.9709 30.3815 37.1636 30.4769 37.3703 30.4909C37.3879 30.4917 37.4054 30.4924 37.4229 30.4924C37.6211 30.4923 37.8117 30.4169 37.9563 30.2815C38.101 30.146 38.1887 29.9608 38.2019 29.7631L39.4031 11.7188H39.4531C40.0747 11.7188 40.6709 11.4718 41.1104 11.0323C41.5499 10.5927 41.7969 9.9966 41.7969 9.375C41.7969 8.7534 41.5499 8.15726 41.1104 7.71772C40.6709 7.27818 40.0747 7.03125 39.4531 7.03125H30.8594V5.46875C30.8587 4.84736 30.6115 4.25161 30.1722 3.81222C29.7328 3.37283 29.137 3.12568 28.5156 3.125H19.1406C18.5192 3.12568 17.9235 3.37283 17.4841 3.81222C17.0447 4.25161 16.7976 4.84736 16.7969 5.46875V7.03125H8.20312C7.58152 7.03125 6.98538 7.27818 6.54584 7.71772C6.1063 8.15726 5.85938 8.7534 5.85938 9.375C5.85938 9.9966 6.1063 10.5927 6.54584 11.0323C6.98538 11.4718 7.58152 11.7188 8.20312 11.7188H8.2532L10.3996 43.9606C10.457 44.7506 10.8107 45.4898 11.3899 46.0302C11.9691 46.5706 12.731 46.8724 13.5231 46.875H13.945C14.1522 46.875 14.3509 46.7927 14.4974 46.6462C14.6439 46.4997 14.7262 46.3009 14.7262 46.0938C14.7262 45.8866 14.6439 45.6878 14.4974 45.5413C14.3509 45.3948 14.1522 45.3125 13.945 45.3125ZM18.3594 5.46875C18.3595 5.26159 18.4419 5.06296 18.5884 4.91648C18.7348 4.76999 18.9335 4.68764 19.1406 4.6875H28.5156C28.7228 4.68764 28.9214 4.76999 29.0679 4.91648C29.2144 5.06296 29.2967 5.26159 29.2969 5.46875V7.03125H18.3594V5.46875Z" fill="#1B275F"/>
<path d="M15.2329 15.5781C15.227 15.4755 15.2009 15.375 15.1561 15.2825C15.1113 15.19 15.0487 15.1072 14.9719 15.039C14.895 14.9707 14.8055 14.9183 14.7083 14.8847C14.6112 14.8511 14.5083 14.837 14.4057 14.8432C14.3031 14.8495 14.2028 14.8759 14.1104 14.921C14.018 14.966 13.9355 15.0289 13.8674 15.106C13.7994 15.183 13.7472 15.2728 13.714 15.37C13.6807 15.4673 13.6669 15.5701 13.6735 15.6727L14.5951 30.8293C14.6072 31.0278 14.6945 31.2141 14.8392 31.3505C14.9839 31.4869 15.1752 31.5629 15.3741 31.5632C15.3901 31.5632 15.4061 31.5624 15.4221 31.5617C15.5245 31.5555 15.6247 31.5291 15.7169 31.4842C15.8091 31.4393 15.8916 31.3767 15.9596 31.2999C16.0277 31.2231 16.0799 31.1336 16.1133 31.0366C16.1468 30.9396 16.1608 30.837 16.1545 30.7346L15.2329 15.5781Z" fill="#1B275F"/>
<path d="M32.4232 15.5781L31.5717 29.6643C31.5655 29.7667 31.5795 29.8693 31.613 29.9662C31.6464 30.0632 31.6987 30.1527 31.7667 30.2295C31.8347 30.3063 31.9172 30.3689 32.0094 30.4138C32.1016 30.4588 32.2018 30.4851 32.3042 30.4913C32.3202 30.4921 32.3362 30.4928 32.3522 30.4928C32.5511 30.4926 32.7423 30.4165 32.8871 30.2801C33.0318 30.1438 33.1191 29.9574 33.1312 29.7589L33.9826 15.6727C33.9889 15.5704 33.9748 15.4677 33.9414 15.3708C33.9079 15.2738 33.8557 15.1843 33.7877 15.1075C33.7197 15.0307 33.6372 14.9681 33.545 14.9232C33.4528 14.8782 33.3526 14.8519 33.2502 14.8457C33.044 14.8354 32.8419 14.9063 32.6873 15.0432C32.5327 15.1801 32.4379 15.3721 32.4232 15.5781Z" fill="#1B275F"/>
<path d="M23.0469 15.625V29.7111C23.0469 29.9183 23.1292 30.1171 23.2757 30.2636C23.4222 30.4101 23.6209 30.4924 23.8281 30.4924C24.0353 30.4924 24.234 30.4101 24.3806 30.2636C24.5271 30.1171 24.6094 29.9183 24.6094 29.7111V15.625C24.6094 15.4178 24.5271 15.2191 24.3806 15.0726C24.234 14.9261 24.0353 14.8438 23.8281 14.8438C23.6209 14.8438 23.4222 14.9261 23.2757 15.0726C23.1292 15.2191 23.0469 15.4178 23.0469 15.625Z" fill="#1B275F"/>
<path d="M24.2241 35.9437C24.1515 35.8712 24.0654 35.8136 23.9707 35.7743C23.8759 35.7351 23.7743 35.7148 23.6717 35.7148C23.5691 35.7148 23.4675 35.7351 23.3727 35.7743C23.278 35.8136 23.1919 35.8712 23.1193 35.9437L20.1508 38.9123C20.0782 38.9848 20.0206 39.071 19.9814 39.1657C19.9421 39.2605 19.9219 39.3621 19.9219 39.4647C19.9219 39.5673 19.9421 39.6689 19.9814 39.7636C20.0206 39.8584 20.0782 39.9445 20.1508 40.0171L23.1194 42.9857C23.2659 43.1322 23.4645 43.2145 23.6717 43.2145C23.8789 43.2145 24.0776 43.1322 24.2241 42.9857C24.3706 42.8392 24.4529 42.6405 24.4529 42.4333C24.4529 42.2261 24.3706 42.0274 24.2241 41.8809L21.8079 39.4647L24.2241 37.0485C24.2967 36.9759 24.3542 36.8898 24.3935 36.795C24.4328 36.7003 24.453 36.5987 24.453 36.4961C24.453 36.3935 24.4327 36.2919 24.3935 36.1971C24.3542 36.1024 24.2966 36.0162 24.2241 35.9437Z" fill="#1B275F"/>
<path d="M35.9319 42.9856C36.0044 43.0581 36.0905 43.1157 36.1853 43.155C36.2801 43.1942 36.3817 43.2144 36.4843 43.2144C36.5869 43.2144 36.6885 43.1942 36.7832 43.155C36.878 43.1157 36.9641 43.0581 37.0367 42.9856L40.0052 40.017C40.0778 39.9444 40.1354 39.8583 40.1746 39.7636C40.2139 39.6688 40.2341 39.5672 40.2341 39.4646C40.2341 39.362 40.2139 39.2604 40.1746 39.1656C40.1354 39.0709 40.0778 38.9848 40.0052 38.9122L37.0367 35.9436C36.9642 35.8709 36.878 35.8131 36.7832 35.7737C36.6884 35.7343 36.5867 35.714 36.484 35.7139C36.3813 35.7138 36.2796 35.7339 36.1847 35.7732C36.0898 35.8125 36.0036 35.87 35.9309 35.9427C35.8583 36.0153 35.8007 36.1015 35.7615 36.1964C35.7222 36.2913 35.7021 36.393 35.7021 36.4957C35.7022 36.5984 35.7226 36.7001 35.762 36.7949C35.8014 36.8898 35.8592 36.9759 35.9319 37.0484L38.3481 39.4646L35.9319 41.8808C35.8593 41.9534 35.8018 42.0395 35.7625 42.1342C35.7232 42.229 35.703 42.3306 35.703 42.4332C35.703 42.5358 35.7232 42.6374 35.7625 42.7321C35.8018 42.8269 35.8593 42.913 35.9319 42.9856Z" fill="#1B275F"/>
<path d="M29.2003 43.7612C29.3744 43.7611 29.5435 43.7028 29.6807 43.5955C29.8178 43.4882 29.9151 43.3381 29.9571 43.1691L31.7149 36.1379C31.7645 35.9372 31.7324 35.725 31.6257 35.5479C31.5191 35.3709 31.3466 35.2433 31.146 35.1932C30.9455 35.1431 30.7332 35.1746 30.5558 35.2807C30.3784 35.3869 30.2504 35.559 30.1997 35.7595L28.4419 42.7907C28.4134 42.9059 28.4114 43.0261 28.4362 43.1421C28.4609 43.2582 28.5118 43.3671 28.5848 43.4606C28.6579 43.5541 28.7513 43.6297 28.8579 43.6818C28.9645 43.7339 29.0816 43.761 29.2003 43.7612Z" fill="#1B275F"/>
<path d="M37.1094 45.3121H18.3594C18.1522 45.3119 17.9536 45.2296 17.8071 45.0831C17.6606 44.9366 17.5783 44.738 17.5781 44.5308V34.3975C17.5783 34.1903 17.6606 33.9917 17.8071 33.8452C17.9536 33.6987 18.1522 33.6163 18.3594 33.6162H19.9219C20.1291 33.6162 20.3278 33.5339 20.4743 33.3874C20.6208 33.2409 20.7031 33.0422 20.7031 32.835C20.7031 32.6278 20.6208 32.429 20.4743 32.2825C20.3278 32.136 20.1291 32.0537 19.9219 32.0537H18.3594C17.738 32.0544 17.1422 32.3015 16.7028 32.7409C16.2635 33.1803 16.0163 33.7761 16.0156 34.3975V44.5308C16.0163 45.1522 16.2635 45.748 16.7028 46.1874C17.1422 46.6267 17.738 46.8739 18.3594 46.8746H37.1094C37.3166 46.8746 37.5153 46.7923 37.6618 46.6457C37.8083 46.4992 37.8906 46.3005 37.8906 46.0933C37.8906 45.8861 37.8083 45.6874 37.6618 45.5409C37.5153 45.3944 37.3166 45.3121 37.1094 45.3121Z" fill="#1B275F"/>
<path d="M41.7969 32.0537H23.0469C22.8397 32.0537 22.641 32.136 22.4944 32.2825C22.3479 32.429 22.2656 32.6278 22.2656 32.835C22.2656 33.0422 22.3479 33.2409 22.4944 33.3874C22.641 33.5339 22.8397 33.6162 23.0469 33.6162H41.7969C42.004 33.6163 42.2027 33.6987 42.3491 33.8452C42.4956 33.9917 42.578 34.1903 42.5781 34.3975V44.5308C42.578 44.738 42.4956 44.9366 42.3491 45.0831C42.2027 45.2296 42.004 45.3119 41.7969 45.3121H40.2344C40.0272 45.3121 39.8285 45.3944 39.6819 45.5409C39.5354 45.6874 39.4531 45.8861 39.4531 46.0933C39.4531 46.3005 39.5354 46.4992 39.6819 46.6457C39.8285 46.7923 40.0272 46.8746 40.2344 46.8746H41.7969C42.4183 46.8739 43.014 46.6267 43.4534 46.1874C43.8928 45.748 44.1399 45.1522 44.1406 44.5308V34.3975C44.1399 33.7761 43.8928 33.1803 43.4534 32.7409C43.014 32.3015 42.4183 32.0544 41.7969 32.0537Z" fill="#1B275F"/>
</svg>
