<svg width="72" height="73" viewBox="0 0 72 73" fill="none" xmlns="http://www.w3.org/2000/svg">
<path d="M10.6933 42.3288V43.2631H9.75909V42.3288H10.6933ZM10.6933 41.3946V42.3288H9.75909V41.3946H10.6933ZM10.6933 40.4604V41.3946H9.75909V40.4604H10.6933ZM10.6933 39.5261V40.4604H9.75909V39.5261H10.6933ZM10.6933 38.5919V39.5261H9.75909V38.5919H10.6933ZM10.6933 37.6577V38.5919H9.75909V37.6577H10.6933ZM10.6933 36.7234V37.6577H9.75909V36.7234H10.6933ZM10.6933 35.7892V36.7234H9.75909V35.7892H10.6933ZM10.6933 34.855V35.7892H9.75909V34.855H10.6933ZM10.6933 33.9207V34.855H9.75909V33.9207H10.6933ZM10.6933 32.9865V33.9207H9.75909V32.9865H10.6933ZM11.6276 32.9865V33.9207H10.6933V32.9865H11.6276ZM11.6276 33.9207V34.855H10.6933V33.9207H11.6276ZM11.6276 34.855V35.7892H10.6933V34.855H11.6276ZM11.6276 35.7892V36.7234H10.6933V35.7892H11.6276ZM11.6276 36.7234V37.6577H10.6933V36.7234H11.6276ZM11.6276 37.6577V38.5919H10.6933V37.6577H11.6276ZM11.6276 38.5919V39.5261H10.6933V38.5919H11.6276ZM12.5618 39.5261V40.4604H11.6276V39.5261H12.5618ZM12.5618 40.4604V41.3946H11.6276V40.4604H12.5618ZM12.5618 41.3946V42.3288H11.6276V41.3946H12.5618ZM12.5618 42.3288V43.2631H11.6276V42.3288H12.5618ZM12.5618 43.2631V44.1973H11.6276V43.2631H12.5618ZM12.5618 44.1973V45.1315H11.6276V44.1973H12.5618ZM12.5618 45.1315V46.0658H11.6276V45.1315H12.5618ZM14.4303 46.0658V47H13.496V46.0658H14.4303ZM14.4303 45.1315V46.0658H13.496V45.1315H14.4303ZM14.4303 44.1973V45.1315H13.496V44.1973H14.4303ZM14.4303 43.2631V44.1973H13.496V43.2631H14.4303ZM14.4303 42.3288V43.2631H13.496V42.3288H14.4303ZM14.4303 41.3946V42.3288H13.496V41.3946H14.4303ZM14.4303 40.4604V41.3946H13.496V40.4604H14.4303ZM14.4303 39.5261V40.4604H13.496V39.5261H14.4303ZM13.496 39.5261V40.4604H12.5618V39.5261H13.496ZM13.496 38.5919V39.5261H12.5618V38.5919H13.496ZM13.496 40.4604V41.3946H12.5618V40.4604H13.496ZM13.496 41.3946V42.3288H12.5618V41.3946H13.496ZM13.496 42.3288V43.2631H12.5618V42.3288H13.496ZM13.496 43.2631V44.1973H12.5618V43.2631H13.496ZM13.496 44.1973V45.1315H12.5618V44.1973H13.496ZM13.496 45.1315V46.0658H12.5618V45.1315H13.496ZM11.6276 44.1973V45.1315H10.6933V44.1973H11.6276ZM11.6276 43.2631V44.1973H10.6933V43.2631H11.6276ZM11.6276 42.3288V43.2631H10.6933V42.3288H11.6276ZM11.6276 41.3946V42.3288H10.6933V41.3946H11.6276ZM11.6276 40.4604V41.3946H10.6933V40.4604H11.6276ZM11.6276 39.5261V40.4604H10.6933V39.5261H11.6276ZM10.6933 32.0523V32.9865H9.75909V32.0523H10.6933ZM13.496 32.0523V32.9865H12.5618V32.0523H13.496ZM13.496 32.9865V33.9207H12.5618V32.9865H13.496ZM13.496 33.9207V34.855H12.5618V33.9207H13.496ZM13.496 34.855V35.7892H12.5618V34.855H13.496ZM13.496 35.7892V36.7234H12.5618V35.7892H13.496ZM14.4303 36.7234V37.6577H13.496V36.7234H14.4303ZM14.4303 37.6577V38.5919H13.496V37.6577H14.4303ZM14.4303 38.5919V39.5261H13.496V38.5919H14.4303ZM14.4303 35.7892V36.7234H13.496V35.7892H14.4303ZM14.4303 34.855V35.7892H13.496V34.855H14.4303ZM14.4303 33.9207V34.855H13.496V33.9207H14.4303ZM14.4303 32.9865V33.9207H13.496V32.9865H14.4303ZM14.4303 32.0523V32.9865H13.496V32.0523H14.4303ZM11.6276 32.0523V32.9865H10.6933V32.0523H11.6276ZM12.5618 32.0523V32.9865H11.6276V32.0523H12.5618ZM12.5618 32.9865V33.9207H11.6276V32.9865H12.5618ZM12.5618 33.9207V34.855H11.6276V33.9207H12.5618ZM12.5618 34.855V35.7892H11.6276V34.855H12.5618ZM12.5618 35.7892V36.7234H11.6276V35.7892H12.5618ZM12.5618 36.7234V37.6577H11.6276V36.7234H12.5618ZM12.5618 37.6577V38.5919H11.6276V37.6577H12.5618ZM12.5618 38.5919V39.5261H11.6276V38.5919H12.5618ZM13.496 37.6577V38.5919H12.5618V37.6577H13.496ZM13.496 36.7234V37.6577H12.5618V36.7234H13.496ZM21.9041 46.0658V47H20.9699V46.0658H21.9041ZM21.9041 45.1315V46.0658H20.9699V45.1315H21.9041ZM21.9041 44.1973V45.1315H20.9699V44.1973H21.9041ZM21.9041 43.2631V44.1973H20.9699V43.2631H21.9041ZM21.9041 42.3288V43.2631H20.9699V42.3288H21.9041ZM21.9041 41.3946V42.3288H20.9699V41.3946H21.9041ZM21.9041 40.4604V41.3946H20.9699V40.4604H21.9041ZM23.7726 40.4604V41.3946H22.8384V40.4604H23.7726ZM23.7726 41.3946V42.3288H22.8384V41.3946H23.7726ZM23.7726 42.3288V43.2631H22.8384V42.3288H23.7726ZM23.7726 43.2631V44.1973H22.8384V43.2631H23.7726ZM23.7726 44.1973V45.1315H22.8384V44.1973H23.7726ZM23.7726 45.1315V46.0658H22.8384V45.1315H23.7726ZM25.6411 42.3288V43.2631H24.7068V42.3288H25.6411ZM25.6411 41.3946V42.3288H24.7068V41.3946H25.6411ZM25.6411 40.4604V41.3946H24.7068V40.4604H25.6411ZM24.7068 40.4604V41.3946H23.7726V40.4604H24.7068ZM24.7068 41.3946V42.3288H23.7726V41.3946H24.7068ZM24.7068 42.3288V43.2631H23.7726V42.3288H24.7068ZM24.7068 43.2631V44.1973H23.7726V43.2631H24.7068ZM24.7068 44.1973V45.1315H23.7726V44.1973H24.7068ZM22.8384 45.1315V46.0658H21.9041V45.1315H22.8384ZM22.8384 44.1973V45.1315H21.9041V44.1973H22.8384ZM22.8384 43.2631V44.1973H21.9041V43.2631H22.8384ZM22.8384 42.3288V43.2631H21.9041V42.3288H22.8384ZM22.8384 41.3946V42.3288H21.9041V41.3946H22.8384ZM22.8384 40.4604V41.3946H21.9041V40.4604H22.8384ZM15.3645 46.0658V47H14.4303V46.0658H15.3645ZM16.2987 46.0658V47H15.3645V46.0658H16.2987ZM17.233 46.0658V47H16.2987V46.0658H17.233ZM18.1672 46.0658V47H17.233V46.0658H18.1672ZM20.0357 46.0658V47H19.1014V46.0658H20.0357ZM20.9699 46.0658V47H20.0357V46.0658H20.9699ZM20.9699 45.1315V46.0658H20.0357V45.1315H20.9699ZM20.0357 45.1315V46.0658H19.1014V45.1315H20.0357ZM18.1672 45.1315V46.0658H17.233V45.1315H18.1672ZM17.233 45.1315V46.0658H16.2987V45.1315H17.233ZM16.2987 45.1315V46.0658H15.3645V45.1315H16.2987ZM15.3645 45.1315V46.0658H14.4303V45.1315H15.3645ZM15.3645 44.1973V45.1315H14.4303V44.1973H15.3645ZM16.2987 44.1973V45.1315H15.3645V44.1973H16.2987ZM17.233 44.1973V45.1315H16.2987V44.1973H17.233ZM18.1672 44.1973V45.1315H17.233V44.1973H18.1672ZM20.0357 44.1973V45.1315H19.1014V44.1973H20.0357ZM20.9699 44.1973V45.1315H20.0357V44.1973H20.9699ZM20.9699 43.2631V44.1973H20.0357V43.2631H20.9699ZM20.0357 43.2631V44.1973H19.1014V43.2631H20.0357ZM18.1672 43.2631V44.1973H17.233V43.2631H18.1672ZM17.233 43.2631V44.1973H16.2987V43.2631H17.233ZM16.2987 43.2631V44.1973H15.3645V43.2631H16.2987ZM15.3645 43.2631V44.1973H14.4303V43.2631H15.3645ZM15.3645 42.3288V43.2631H14.4303V42.3288H15.3645ZM20.9699 42.3288V43.2631H20.0357V42.3288H20.9699ZM24.7068 28.3153V27.3811H25.6411V28.3153H24.7068ZM24.7068 29.2496V28.3153H25.6411V29.2496H24.7068ZM24.7068 30.1838V29.2496H25.6411V30.1838H24.7068ZM22.8384 30.1838V29.2496H23.7726V30.1838H22.8384ZM22.8384 29.2496V28.3153H23.7726V29.2496H22.8384ZM22.8384 28.3153V27.3811H23.7726V28.3153H22.8384ZM22.8384 27.3811V26.4469H23.7726V27.3811H22.8384ZM22.8384 26.4469V25.5126H23.7726V26.4469H22.8384ZM22.8384 25.5126V24.5784H23.7726V25.5126H22.8384ZM20.9699 24.5784V23.6442H21.9041V24.5784H20.9699ZM20.9699 25.5126V24.5784H21.9041V25.5126H20.9699ZM20.9699 26.4469V25.5126H21.9041V26.4469H20.9699ZM20.9699 27.3811V26.4469H21.9041V27.3811H20.9699ZM20.9699 28.3153V27.3811H21.9041V28.3153H20.9699ZM20.9699 29.2496V28.3153H21.9041V29.2496H20.9699ZM20.9699 30.1838V29.2496H21.9041V30.1838H20.9699ZM21.9041 30.1838V29.2496H22.8384V30.1838H21.9041ZM21.9041 29.2496V28.3153H22.8384V29.2496H21.9041ZM21.9041 28.3153V27.3811H22.8384V28.3153H21.9041ZM21.9041 27.3811V26.4469H22.8384V27.3811H21.9041ZM21.9041 26.4469V25.5126H22.8384V26.4469H21.9041ZM21.9041 25.5126V24.5784H22.8384V25.5126H21.9041ZM23.7726 26.4469V25.5126H24.7068V26.4469H23.7726ZM23.7726 27.3811V26.4469H24.7068V27.3811H23.7726ZM23.7726 28.3153V27.3811H24.7068V28.3153H23.7726ZM23.7726 29.2496V28.3153H24.7068V29.2496H23.7726ZM23.7726 30.1838V29.2496H24.7068V30.1838H23.7726ZM13.496 24.5784V23.6442H14.4303V24.5784H13.496ZM13.496 25.5126V24.5784H14.4303V25.5126H13.496ZM13.496 26.4469V25.5126H14.4303V26.4469H13.496ZM13.496 27.3811V26.4469H14.4303V27.3811H13.496ZM13.496 28.3153V27.3811H14.4303V28.3153H13.496ZM13.496 29.2496V28.3153H14.4303V29.2496H13.496ZM13.496 30.1838V29.2496H14.4303V30.1838H13.496ZM11.6276 30.1838V29.2496H12.5618V30.1838H11.6276ZM11.6276 29.2496V28.3153H12.5618V29.2496H11.6276ZM11.6276 28.3153V27.3811H12.5618V28.3153H11.6276ZM11.6276 27.3811V26.4469H12.5618V27.3811H11.6276ZM11.6276 26.4469V25.5126H12.5618V26.4469H11.6276ZM11.6276 25.5126V24.5784H12.5618V25.5126H11.6276ZM9.75909 28.3153V27.3811H10.6933V28.3153H9.75909ZM9.75909 29.2496V28.3153H10.6933V29.2496H9.75909ZM9.75909 30.1838V29.2496H10.6933V30.1838H9.75909ZM10.6933 30.1838V29.2496H11.6276V30.1838H10.6933ZM10.6933 29.2496V28.3153H11.6276V29.2496H10.6933ZM10.6933 28.3153V27.3811H11.6276V28.3153H10.6933ZM10.6933 27.3811V26.4469H11.6276V27.3811H10.6933ZM10.6933 26.4469V25.5126H11.6276V26.4469H10.6933ZM12.5618 25.5126V24.5784H13.496V25.5126H12.5618ZM12.5618 26.4469V25.5126H13.496V26.4469H12.5618ZM12.5618 27.3811V26.4469H13.496V27.3811H12.5618ZM12.5618 28.3153V27.3811H13.496V28.3153H12.5618ZM12.5618 29.2496V28.3153H13.496V29.2496H12.5618ZM12.5618 30.1838V29.2496H13.496V30.1838H12.5618ZM20.0357 24.5784V23.6442H20.9699V24.5784H20.0357ZM19.1014 24.5784V23.6442H20.0357V24.5784H19.1014ZM17.233 24.5784V23.6442H18.1672V24.5784H17.233ZM16.2987 24.5784V23.6442H17.233V24.5784H16.2987ZM15.3645 24.5784V23.6442H16.2987V24.5784H15.3645ZM14.4303 24.5784V23.6442H15.3645V24.5784H14.4303ZM14.4303 25.5126V24.5784H15.3645V25.5126H14.4303ZM15.3645 25.5126V24.5784H16.2987V25.5126H15.3645ZM16.2987 25.5126V24.5784H17.233V25.5126H16.2987ZM17.233 25.5126V24.5784H18.1672V25.5126H17.233ZM19.1014 25.5126V24.5784H20.0357V25.5126H19.1014ZM20.0357 25.5126V24.5784H20.9699V25.5126H20.0357ZM20.0357 26.4469V25.5126H20.9699V26.4469H20.0357ZM19.1014 26.4469V25.5126H20.0357V26.4469H19.1014ZM17.233 26.4469V25.5126H18.1672V26.4469H17.233ZM16.2987 26.4469V25.5126H17.233V26.4469H16.2987ZM15.3645 26.4469V25.5126H16.2987V26.4469H15.3645ZM14.4303 26.4469V25.5126H15.3645V26.4469H14.4303ZM14.4303 27.3811V26.4469H15.3645V27.3811H14.4303ZM15.3645 27.3811V26.4469H16.2987V27.3811H15.3645ZM16.2987 27.3811V26.4469H17.233V27.3811H16.2987ZM17.233 27.3811V26.4469H18.1672V27.3811H17.233ZM19.1014 27.3811V26.4469H20.0357V27.3811H19.1014ZM20.0357 27.3811V26.4469H20.9699V27.3811H20.0357ZM20.0357 28.3153V27.3811H20.9699V28.3153H20.0357ZM14.4303 28.3153V27.3811H15.3645V28.3153H14.4303ZM10.6933 31.118V32.0523H9.75909V31.118H10.6933ZM11.6276 31.118V32.0523H10.6933V31.118H11.6276ZM10.6933 30.1838V31.118H9.75909V30.1838H10.6933ZM13.496 30.1838V31.118H12.5618V30.1838H13.496ZM13.496 31.118V32.0523H12.5618V31.118H13.496ZM14.4303 31.118V32.0523H13.496V31.118H14.4303ZM14.4303 30.1838V31.118H13.496V30.1838H14.4303ZM11.6276 30.1838V31.118H10.6933V30.1838H11.6276ZM12.5618 30.1838V31.118H11.6276V30.1838H12.5618ZM12.5618 31.118V32.0523H11.6276V31.118H12.5618ZM18.1672 33.9207V34.855H17.233V33.9207H18.1672ZM18.1672 34.855V35.7892H17.233V34.855H18.1672ZM20.0357 34.855V35.7892H19.1014V34.855H20.0357ZM20.9699 34.855V35.7892H20.0357V34.855H20.9699ZM21.9041 34.855V35.7892H20.9699V34.855H21.9041ZM22.8384 34.855V35.7892H21.9041V34.855H22.8384ZM23.7726 34.855V35.7892H22.8384V34.855H23.7726ZM24.7068 34.855V35.7892H23.7726V34.855H24.7068ZM25.6411 33.9207V34.855H24.7068V33.9207H25.6411ZM24.7068 33.9207V34.855H23.7726V33.9207H24.7068ZM23.7726 33.9207V34.855H22.8384V33.9207H23.7726ZM22.8384 33.9207V34.855H21.9041V33.9207H22.8384ZM21.9041 33.9207V34.855H20.9699V33.9207H21.9041ZM20.9699 33.9207V34.855H20.0357V33.9207H20.9699ZM20.0357 33.9207V34.855H19.1014V33.9207H20.0357ZM25.6411 34.855V35.7892H24.7068V34.855H25.6411ZM25.6411 35.7892V36.7234H24.7068V35.7892H25.6411ZM25.6411 36.7234V37.6577H24.7068V36.7234H25.6411ZM25.6411 37.6577V38.5919H24.7068V37.6577H25.6411ZM25.6411 38.5919V39.5261H24.7068V38.5919H25.6411ZM25.6411 39.5261V40.4604H24.7068V39.5261H25.6411ZM24.7068 39.5261V40.4604H23.7726V39.5261H24.7068ZM23.7726 39.5261V40.4604H22.8384V39.5261H23.7726ZM22.8384 39.5261V40.4604H21.9041V39.5261H22.8384ZM21.9041 39.5261V40.4604H20.9699V39.5261H21.9041ZM21.9041 38.5919V39.5261H20.9699V38.5919H21.9041ZM22.8384 38.5919V39.5261H21.9041V38.5919H22.8384ZM23.7726 38.5919V39.5261H22.8384V38.5919H23.7726ZM24.7068 38.5919V39.5261H23.7726V38.5919H24.7068ZM24.7068 37.6577V38.5919H23.7726V37.6577H24.7068ZM23.7726 37.6577V38.5919H22.8384V37.6577H23.7726ZM22.8384 37.6577V38.5919H21.9041V37.6577H22.8384ZM21.9041 37.6577V38.5919H20.9699V37.6577H21.9041ZM18.1672 35.7892V36.7234H17.233V35.7892H18.1672ZM18.1672 36.7234V37.6577H17.233V36.7234H18.1672ZM20.0357 36.7234V37.6577H19.1014V36.7234H20.0357ZM20.9699 36.7234V37.6577H20.0357V36.7234H20.9699ZM21.9041 36.7234V37.6577H20.9699V36.7234H21.9041ZM22.8384 36.7234V37.6577H21.9041V36.7234H22.8384ZM23.7726 36.7234V37.6577H22.8384V36.7234H23.7726ZM24.7068 36.7234V37.6577H23.7726V36.7234H24.7068ZM24.7068 35.7892V36.7234H23.7726V35.7892H24.7068ZM23.7726 35.7892V36.7234H22.8384V35.7892H23.7726ZM22.8384 35.7892V36.7234H21.9041V35.7892H22.8384ZM21.9041 35.7892V36.7234H20.9699V35.7892H21.9041ZM20.9699 35.7892V36.7234H20.0357V35.7892H20.9699ZM20.0357 35.7892V36.7234H19.1014V35.7892H20.0357ZM16.2987 42.3288V43.2631H15.3645V42.3288H16.2987ZM17.233 42.3288V43.2631H16.2987V42.3288H17.233ZM18.1672 42.3288V43.2631H17.233V42.3288H18.1672ZM20.0357 42.3288V43.2631H19.1014V42.3288H20.0357ZM20.9699 41.3946V42.3288H20.0357V41.3946H20.9699ZM15.3645 41.3946V42.3288H14.4303V41.3946H15.3645ZM16.2987 27.3811V28.3153H15.3645V27.3811H16.2987ZM17.233 27.3811V28.3153H16.2987V27.3811H17.233ZM18.1672 27.3811V28.3153H17.233V27.3811H18.1672ZM20.0357 27.3811V28.3153H19.1014V27.3811H20.0357ZM15.3645 28.3153V29.2496H14.4303V28.3153H15.3645ZM20.9699 28.3153V29.2496H20.0357V28.3153H20.9699ZM21.9041 30.1838V31.118H20.9699V30.1838H21.9041ZM22.8384 30.1838V31.118H21.9041V30.1838H22.8384ZM23.7726 30.1838V31.118H22.8384V30.1838H23.7726ZM24.7068 30.1838V31.118H23.7726V30.1838H24.7068ZM25.6411 30.1838V31.118H24.7068V30.1838H25.6411ZM18.1672 37.6577V38.5919H17.233V37.6577H18.1672ZM20.0357 37.6577V38.5919H19.1014V37.6577H20.0357ZM20.9699 37.6577V38.5919H20.0357V37.6577H20.9699ZM19.1014 23.6442V24.5784H18.1672V23.6442H19.1014ZM19.1014 24.5784V25.5126H18.1672V24.5784H19.1014ZM19.1014 25.5126V26.4469H18.1672V25.5126H19.1014ZM19.1014 26.4469V27.3811H18.1672V26.4469H19.1014ZM19.1014 27.3811V28.3153H18.1672V27.3811H19.1014ZM19.1014 33.9207V34.855H18.1672V33.9207H19.1014ZM19.1014 34.855V35.7892H18.1672V34.855H19.1014ZM19.1014 35.7892V36.7234H18.1672V35.7892H19.1014ZM19.1014 36.7234V37.6577H18.1672V36.7234H19.1014ZM19.1014 37.6577V38.5919H18.1672V37.6577H19.1014ZM19.1014 42.3288V43.2631H18.1672V42.3288H19.1014ZM19.1014 43.2631V44.1973H18.1672V43.2631H19.1014ZM19.1014 44.1973V45.1315H18.1672V44.1973H19.1014ZM19.1014 45.1315V46.0658H18.1672V45.1315H19.1014ZM19.1014 46.0658V47H18.1672V46.0658H19.1014ZM30.294 42.3288V43.2631H29.3597V42.3288H30.294ZM30.294 41.3946V42.3288H29.3597V41.3946H30.294ZM30.294 40.4604V41.3946H29.3597V40.4604H30.294ZM30.294 39.5261V40.4604H29.3597V39.5261H30.294ZM30.294 38.5919V39.5261H29.3597V38.5919H30.294ZM30.294 37.6577V38.5919H29.3597V37.6577H30.294ZM30.294 36.7234V37.6577H29.3597V36.7234H30.294ZM30.294 35.7892V36.7234H29.3597V35.7892H30.294ZM30.294 34.855V35.7892H29.3597V34.855H30.294ZM30.294 33.9207V34.855H29.3597V33.9207H30.294ZM30.294 32.9865V33.9207H29.3597V32.9865H30.294ZM31.2282 32.9865V33.9207H30.294V32.9865H31.2282ZM31.2282 33.9207V34.855H30.294V33.9207H31.2282ZM31.2282 34.855V35.7892H30.294V34.855H31.2282ZM31.2282 35.7892V36.7234H30.294V35.7892H31.2282ZM31.2282 36.7234V37.6577H30.294V36.7234H31.2282ZM31.2282 37.6577V38.5919H30.294V37.6577H31.2282ZM31.2282 38.5919V39.5261H30.294V38.5919H31.2282ZM32.1624 39.5261V40.4604H31.2282V39.5261H32.1624ZM32.1624 40.4604V41.3946H31.2282V40.4604H32.1624ZM32.1624 41.3946V42.3288H31.2282V41.3946H32.1624ZM32.1624 42.3288V43.2631H31.2282V42.3288H32.1624ZM32.1624 43.2631V44.1973H31.2282V43.2631H32.1624ZM32.1624 44.1973V45.1315H31.2282V44.1973H32.1624ZM32.1624 45.1315V46.0658H31.2282V45.1315H32.1624ZM34.0309 46.0658V47H33.0967V46.0658H34.0309ZM34.0309 45.1315V46.0658H33.0967V45.1315H34.0309ZM34.0309 44.1973V45.1315H33.0967V44.1973H34.0309ZM34.0309 43.2631V44.1973H33.0967V43.2631H34.0309ZM34.0309 42.3288V43.2631H33.0967V42.3288H34.0309ZM34.0309 41.3946V42.3288H33.0967V41.3946H34.0309ZM34.0309 40.4604V41.3946H33.0967V40.4604H34.0309ZM34.0309 39.5261V40.4604H33.0967V39.5261H34.0309ZM33.0967 39.5261V40.4604H32.1624V39.5261H33.0967ZM33.0967 38.5919V39.5261H32.1624V38.5919H33.0967ZM33.0967 40.4604V41.3946H32.1624V40.4604H33.0967ZM33.0967 41.3946V42.3288H32.1624V41.3946H33.0967ZM33.0967 42.3288V43.2631H32.1624V42.3288H33.0967ZM33.0967 43.2631V44.1973H32.1624V43.2631H33.0967ZM33.0967 44.1973V45.1315H32.1624V44.1973H33.0967ZM33.0967 45.1315V46.0658H32.1624V45.1315H33.0967ZM31.2282 44.1973V45.1315H30.294V44.1973H31.2282ZM31.2282 43.2631V44.1973H30.294V43.2631H31.2282ZM31.2282 42.3288V43.2631H30.294V42.3288H31.2282ZM31.2282 41.3946V42.3288H30.294V41.3946H31.2282ZM31.2282 40.4604V41.3946H30.294V40.4604H31.2282ZM31.2282 39.5261V40.4604H30.294V39.5261H31.2282ZM30.294 32.0523V32.9865H29.3597V32.0523H30.294ZM33.0967 32.0523V32.9865H32.1624V32.0523H33.0967ZM33.0967 32.9865V33.9207H32.1624V32.9865H33.0967ZM33.0967 33.9207V34.855H32.1624V33.9207H33.0967ZM33.0967 34.855V35.7892H32.1624V34.855H33.0967ZM33.0967 35.7892V36.7234H32.1624V35.7892H33.0967ZM34.0309 36.7234V37.6577H33.0967V36.7234H34.0309ZM34.0309 37.6577V38.5919H33.0967V37.6577H34.0309ZM34.0309 38.5919V39.5261H33.0967V38.5919H34.0309ZM34.0309 35.7892V36.7234H33.0967V35.7892H34.0309ZM34.0309 34.855V35.7892H33.0967V34.855H34.0309ZM34.0309 33.9207V34.855H33.0967V33.9207H34.0309ZM34.0309 32.9865V33.9207H33.0967V32.9865H34.0309ZM34.0309 32.0523V32.9865H33.0967V32.0523H34.0309ZM31.2282 32.0523V32.9865H30.294V32.0523H31.2282ZM32.1624 32.0523V32.9865H31.2282V32.0523H32.1624ZM32.1624 32.9865V33.9207H31.2282V32.9865H32.1624ZM32.1624 33.9207V34.855H31.2282V33.9207H32.1624ZM32.1624 34.855V35.7892H31.2282V34.855H32.1624ZM32.1624 35.7892V36.7234H31.2282V35.7892H32.1624ZM32.1624 36.7234V37.6577H31.2282V36.7234H32.1624ZM32.1624 37.6577V38.5919H31.2282V37.6577H32.1624ZM32.1624 38.5919V39.5261H31.2282V38.5919H32.1624ZM33.0967 37.6577V38.5919H32.1624V37.6577H33.0967ZM33.0967 36.7234V37.6577H32.1624V36.7234H33.0967ZM41.5048 46.0658V47H40.5705V46.0658H41.5048ZM41.5048 45.1315V46.0658H40.5705V45.1315H41.5048ZM41.5048 44.1973V45.1315H40.5705V44.1973H41.5048ZM41.5048 43.2631V44.1973H40.5705V43.2631H41.5048ZM41.5048 42.3288V43.2631H40.5705V42.3288H41.5048ZM41.5048 41.3946V42.3288H40.5705V41.3946H41.5048ZM41.5048 40.4604V41.3946H40.5705V40.4604H41.5048ZM43.3732 40.4604V41.3946H42.439V40.4604H43.3732ZM43.3732 41.3946V42.3288H42.439V41.3946H43.3732ZM43.3732 42.3288V43.2631H42.439V42.3288H43.3732ZM43.3732 43.2631V44.1973H42.439V43.2631H43.3732ZM43.3732 44.1973V45.1315H42.439V44.1973H43.3732ZM43.3732 45.1315V46.0658H42.439V45.1315H43.3732ZM45.2417 42.3288V43.2631H44.3075V42.3288H45.2417ZM45.2417 41.3946V42.3288H44.3075V41.3946H45.2417ZM45.2417 40.4604V41.3946H44.3075V40.4604H45.2417ZM44.3075 40.4604V41.3946H43.3732V40.4604H44.3075ZM44.3075 41.3946V42.3288H43.3732V41.3946H44.3075ZM44.3075 42.3288V43.2631H43.3732V42.3288H44.3075ZM44.3075 43.2631V44.1973H43.3732V43.2631H44.3075ZM44.3075 44.1973V45.1315H43.3732V44.1973H44.3075ZM42.439 45.1315V46.0658H41.5048V45.1315H42.439ZM42.439 44.1973V45.1315H41.5048V44.1973H42.439ZM42.439 43.2631V44.1973H41.5048V43.2631H42.439ZM42.439 42.3288V43.2631H41.5048V42.3288H42.439ZM42.439 41.3946V42.3288H41.5048V41.3946H42.439ZM42.439 40.4604V41.3946H41.5048V40.4604H42.439ZM34.9651 46.0658V47H34.0309V46.0658H34.9651ZM35.8994 46.0658V47H34.9651V46.0658H35.8994ZM36.8336 46.0658V47H35.8994V46.0658H36.8336ZM37.7678 46.0658V47H36.8336V46.0658H37.7678ZM38.7021 46.0658V47H37.7678V46.0658H38.7021ZM40.5705 46.0658V47H39.6363V46.0658H40.5705ZM40.5705 45.1315V46.0658H39.6363V45.1315H40.5705ZM38.7021 45.1315V46.0658H37.7678V45.1315H38.7021ZM37.7678 45.1315V46.0658H36.8336V45.1315H37.7678ZM36.8336 45.1315V46.0658H35.8994V45.1315H36.8336ZM35.8994 45.1315V46.0658H34.9651V45.1315H35.8994ZM34.9651 45.1315V46.0658H34.0309V45.1315H34.9651ZM34.9651 44.1973V45.1315H34.0309V44.1973H34.9651ZM35.8994 44.1973V45.1315H34.9651V44.1973H35.8994ZM36.8336 44.1973V45.1315H35.8994V44.1973H36.8336ZM37.7678 44.1973V45.1315H36.8336V44.1973H37.7678ZM38.7021 44.1973V45.1315H37.7678V44.1973H38.7021ZM40.5705 44.1973V45.1315H39.6363V44.1973H40.5705ZM40.5705 43.2631V44.1973H39.6363V43.2631H40.5705ZM38.7021 43.2631V44.1973H37.7678V43.2631H38.7021ZM37.7678 43.2631V44.1973H36.8336V43.2631H37.7678ZM36.8336 43.2631V44.1973H35.8994V43.2631H36.8336ZM35.8994 43.2631V44.1973H34.9651V43.2631H35.8994ZM34.9651 43.2631V44.1973H34.0309V43.2631H34.9651ZM34.9651 42.3288V43.2631H34.0309V42.3288H34.9651ZM40.5705 42.3288V43.2631H39.6363V42.3288H40.5705ZM44.3075 28.3153V27.3811H45.2417V28.3153H44.3075ZM44.3075 29.2496V28.3153H45.2417V29.2496H44.3075ZM44.3075 30.1838V29.2496H45.2417V30.1838H44.3075ZM42.439 30.1838V29.2496H43.3732V30.1838H42.439ZM42.439 29.2496V28.3153H43.3732V29.2496H42.439ZM42.439 28.3153V27.3811H43.3732V28.3153H42.439ZM42.439 27.3811V26.4469H43.3732V27.3811H42.439ZM42.439 26.4469V25.5126H43.3732V26.4469H42.439ZM42.439 25.5126V24.5784H43.3732V25.5126H42.439ZM40.5705 24.5784V23.6442H41.5048V24.5784H40.5705ZM40.5705 25.5126V24.5784H41.5048V25.5126H40.5705ZM40.5705 26.4469V25.5126H41.5048V26.4469H40.5705ZM40.5705 27.3811V26.4469H41.5048V27.3811H40.5705ZM40.5705 28.3153V27.3811H41.5048V28.3153H40.5705ZM40.5705 29.2496V28.3153H41.5048V29.2496H40.5705ZM40.5705 30.1838V29.2496H41.5048V30.1838H40.5705ZM41.5048 30.1838V29.2496H42.439V30.1838H41.5048ZM41.5048 29.2496V28.3153H42.439V29.2496H41.5048ZM41.5048 28.3153V27.3811H42.439V28.3153H41.5048ZM41.5048 27.3811V26.4469H42.439V27.3811H41.5048ZM41.5048 26.4469V25.5126H42.439V26.4469H41.5048ZM41.5048 25.5126V24.5784H42.439V25.5126H41.5048ZM43.3732 26.4469V25.5126H44.3075V26.4469H43.3732ZM43.3732 27.3811V26.4469H44.3075V27.3811H43.3732ZM43.3732 28.3153V27.3811H44.3075V28.3153H43.3732ZM43.3732 29.2496V28.3153H44.3075V29.2496H43.3732ZM43.3732 30.1838V29.2496H44.3075V30.1838H43.3732ZM33.0967 24.5784V23.6442H34.0309V24.5784H33.0967ZM33.0967 25.5126V24.5784H34.0309V25.5126H33.0967ZM33.0967 26.4469V25.5126H34.0309V26.4469H33.0967ZM33.0967 27.3811V26.4469H34.0309V27.3811H33.0967ZM33.0967 28.3153V27.3811H34.0309V28.3153H33.0967ZM33.0967 29.2496V28.3153H34.0309V29.2496H33.0967ZM33.0967 30.1838V29.2496H34.0309V30.1838H33.0967ZM31.2282 30.1838V29.2496H32.1624V30.1838H31.2282ZM31.2282 29.2496V28.3153H32.1624V29.2496H31.2282ZM31.2282 28.3153V27.3811H32.1624V28.3153H31.2282ZM31.2282 27.3811V26.4469H32.1624V27.3811H31.2282ZM31.2282 26.4469V25.5126H32.1624V26.4469H31.2282ZM31.2282 25.5126V24.5784H32.1624V25.5126H31.2282ZM29.3597 28.3153V27.3811H30.294V28.3153H29.3597ZM29.3597 29.2496V28.3153H30.294V29.2496H29.3597ZM29.3597 30.1838V29.2496H30.294V30.1838H29.3597ZM30.294 30.1838V29.2496H31.2282V30.1838H30.294ZM30.294 29.2496V28.3153H31.2282V29.2496H30.294ZM30.294 28.3153V27.3811H31.2282V28.3153H30.294ZM30.294 27.3811V26.4469H31.2282V27.3811H30.294ZM30.294 26.4469V25.5126H31.2282V26.4469H30.294ZM32.1624 25.5126V24.5784H33.0967V25.5126H32.1624ZM32.1624 26.4469V25.5126H33.0967V26.4469H32.1624ZM32.1624 27.3811V26.4469H33.0967V27.3811H32.1624ZM32.1624 28.3153V27.3811H33.0967V28.3153H32.1624ZM32.1624 29.2496V28.3153H33.0967V29.2496H32.1624ZM32.1624 30.1838V29.2496H33.0967V30.1838H32.1624ZM39.6363 24.5784V23.6442H40.5705V24.5784H39.6363ZM37.7678 24.5784V23.6442H38.7021V24.5784H37.7678ZM36.8336 24.5784V23.6442H37.7678V24.5784H36.8336ZM35.8994 24.5784V23.6442H36.8336V24.5784H35.8994ZM34.9651 24.5784V23.6442H35.8994V24.5784H34.9651ZM34.0309 24.5784V23.6442H34.9651V24.5784H34.0309ZM34.0309 25.5126V24.5784H34.9651V25.5126H34.0309ZM34.9651 25.5126V24.5784H35.8994V25.5126H34.9651ZM35.8994 25.5126V24.5784H36.8336V25.5126H35.8994ZM36.8336 25.5126V24.5784H37.7678V25.5126H36.8336ZM37.7678 25.5126V24.5784H38.7021V25.5126H37.7678ZM39.6363 25.5126V24.5784H40.5705V25.5126H39.6363ZM39.6363 26.4469V25.5126H40.5705V26.4469H39.6363ZM37.7678 26.4469V25.5126H38.7021V26.4469H37.7678ZM36.8336 26.4469V25.5126H37.7678V26.4469H36.8336ZM35.8994 26.4469V25.5126H36.8336V26.4469H35.8994ZM34.9651 26.4469V25.5126H35.8994V26.4469H34.9651ZM34.0309 26.4469V25.5126H34.9651V26.4469H34.0309ZM34.0309 27.3811V26.4469H34.9651V27.3811H34.0309ZM34.9651 27.3811V26.4469H35.8994V27.3811H34.9651ZM35.8994 27.3811V26.4469H36.8336V27.3811H35.8994ZM36.8336 27.3811V26.4469H37.7678V27.3811H36.8336ZM37.7678 27.3811V26.4469H38.7021V27.3811H37.7678ZM39.6363 27.3811V26.4469H40.5705V27.3811H39.6363ZM39.6363 28.3153V27.3811H40.5705V28.3153H39.6363ZM34.0309 28.3153V27.3811H34.9651V28.3153H34.0309ZM30.294 31.118V32.0523H29.3597V31.118H30.294ZM31.2282 31.118V32.0523H30.294V31.118H31.2282ZM30.294 30.1838V31.118H29.3597V30.1838H30.294ZM33.0967 30.1838V31.118H32.1624V30.1838H33.0967ZM33.0967 31.118V32.0523H32.1624V31.118H33.0967ZM34.0309 31.118V32.0523H33.0967V31.118H34.0309ZM34.0309 30.1838V31.118H33.0967V30.1838H34.0309ZM31.2282 30.1838V31.118H30.294V30.1838H31.2282ZM32.1624 30.1838V31.118H31.2282V30.1838H32.1624ZM32.1624 31.118V32.0523H31.2282V31.118H32.1624ZM35.8994 42.3288V43.2631H34.9651V42.3288H35.8994ZM36.8336 42.3288V43.2631H35.8994V42.3288H36.8336ZM37.7678 42.3288V43.2631H36.8336V42.3288H37.7678ZM38.7021 42.3288V43.2631H37.7678V42.3288H38.7021ZM40.5705 41.3946V42.3288H39.6363V41.3946H40.5705ZM34.9651 41.3946V42.3288H34.0309V41.3946H34.9651ZM41.5048 39.5261V40.4604H40.5705V39.5261H41.5048ZM42.439 39.5261V40.4604H41.5048V39.5261H42.439ZM43.3732 39.5261V40.4604H42.439V39.5261H43.3732ZM44.3075 39.5261V40.4604H43.3732V39.5261H44.3075ZM45.2417 39.5261V40.4604H44.3075V39.5261H45.2417ZM34.9651 28.3153V29.2496H34.0309V28.3153H34.9651ZM35.8994 27.3811V28.3153H34.9651V27.3811H35.8994ZM36.8336 27.3811V28.3153H35.8994V27.3811H36.8336ZM37.7678 27.3811V28.3153H36.8336V27.3811H37.7678ZM38.7021 27.3811V28.3153H37.7678V27.3811H38.7021ZM40.5705 28.3153V29.2496H39.6363V28.3153H40.5705ZM41.5048 30.1838V31.118H40.5705V30.1838H41.5048ZM42.439 30.1838V31.118H41.5048V30.1838H42.439ZM43.3732 30.1838V31.118H42.439V30.1838H43.3732ZM44.3075 30.1838V31.118H43.3732V30.1838H44.3075ZM45.2417 30.1838V31.118H44.3075V30.1838H45.2417ZM39.6363 23.6442V24.5784H38.7021V23.6442H39.6363ZM39.6363 24.5784V25.5126H38.7021V24.5784H39.6363ZM39.6363 25.5126V26.4469H38.7021V25.5126H39.6363ZM39.6363 26.4469V27.3811H38.7021V26.4469H39.6363ZM39.6363 27.3811V28.3153H38.7021V27.3811H39.6363ZM39.6363 42.3288V43.2631H38.7021V42.3288H39.6363ZM39.6363 43.2631V44.1973H38.7021V43.2631H39.6363ZM39.6363 44.1973V45.1315H38.7021V44.1973H39.6363ZM39.6363 45.1315V46.0658H38.7021V45.1315H39.6363ZM39.6363 46.0658V47H38.7021V46.0658H39.6363ZM49.8946 46.0658V47H48.9604V46.0658H49.8946ZM49.8946 45.1315V46.0658H48.9604V45.1315H49.8946ZM49.8946 44.1973V45.1315H48.9604V44.1973H49.8946ZM49.8946 43.2631V44.1973H48.9604V43.2631H49.8946ZM49.8946 42.3288V43.2631H48.9604V42.3288H49.8946ZM49.8946 41.3946V42.3288H48.9604V41.3946H49.8946ZM49.8946 40.4604V41.3946H48.9604V40.4604H49.8946ZM49.8946 39.5261V40.4604H48.9604V39.5261H49.8946ZM49.8946 38.5919V39.5261H48.9604V38.5919H49.8946ZM49.8946 37.6577V38.5919H48.9604V37.6577H49.8946ZM49.8946 36.7234V37.6577H48.9604V36.7234H49.8946ZM49.8946 35.7892V36.7234H48.9604V35.7892H49.8946ZM49.8946 34.855V35.7892H48.9604V34.855H49.8946ZM49.8946 33.9207V34.855H48.9604V33.9207H49.8946ZM49.8946 32.9865V33.9207H48.9604V32.9865H49.8946ZM50.8289 32.9865V33.9207H49.8946V32.9865H50.8289ZM50.8289 33.9207V34.855H49.8946V33.9207H50.8289ZM50.8289 34.855V35.7892H49.8946V34.855H50.8289ZM50.8289 35.7892V36.7234H49.8946V35.7892H50.8289ZM50.8289 36.7234V37.6577H49.8946V36.7234H50.8289ZM50.8289 37.6577V38.5919H49.8946V37.6577H50.8289ZM50.8289 38.5919V39.5261H49.8946V38.5919H50.8289ZM51.7631 39.5261V40.4604H50.8289V39.5261H51.7631ZM51.7631 40.4604V41.3946H50.8289V40.4604H51.7631ZM51.7631 41.3946V42.3288H50.8289V41.3946H51.7631ZM51.7631 42.3288V43.2631H50.8289V42.3288H51.7631ZM51.7631 43.2631V44.1973H50.8289V43.2631H51.7631ZM51.7631 44.1973V45.1315H50.8289V44.1973H51.7631ZM51.7631 45.1315V46.0658H50.8289V45.1315H51.7631ZM51.7631 46.0658V47H50.8289V46.0658H51.7631ZM52.6973 46.0658V47H51.7631V46.0658H52.6973ZM53.6316 46.0658V47H52.6973V46.0658H53.6316ZM53.6316 42.3288V43.2631H52.6973V42.3288H53.6316ZM53.6316 41.3946V42.3288H52.6973V41.3946H53.6316ZM53.6316 40.4604V41.3946H52.6973V40.4604H53.6316ZM53.6316 39.5261V40.4604H52.6973V39.5261H53.6316ZM52.6973 39.5261V40.4604H51.7631V39.5261H52.6973ZM52.6973 38.5919V39.5261H51.7631V38.5919H52.6973ZM52.6973 40.4604V41.3946H51.7631V40.4604H52.6973ZM52.6973 41.3946V42.3288H51.7631V41.3946H52.6973ZM52.6973 42.3288V43.2631H51.7631V42.3288H52.6973ZM52.6973 43.2631V44.1973H51.7631V43.2631H52.6973ZM52.6973 44.1973V45.1315H51.7631V44.1973H52.6973ZM52.6973 45.1315V46.0658H51.7631V45.1315H52.6973ZM50.8289 46.0658V47H49.8946V46.0658H50.8289ZM50.8289 45.1315V46.0658H49.8946V45.1315H50.8289ZM50.8289 44.1973V45.1315H49.8946V44.1973H50.8289ZM50.8289 43.2631V44.1973H49.8946V43.2631H50.8289ZM50.8289 42.3288V43.2631H49.8946V42.3288H50.8289ZM50.8289 41.3946V42.3288H49.8946V41.3946H50.8289ZM50.8289 40.4604V41.3946H49.8946V40.4604H50.8289ZM50.8289 39.5261V40.4604H49.8946V39.5261H50.8289ZM49.8946 23.6442V24.5784H48.9604V23.6442H49.8946ZM49.8946 24.5784V25.5126H48.9604V24.5784H49.8946ZM49.8946 25.5126V26.4469H48.9604V25.5126H49.8946ZM49.8946 26.4469V27.3811H48.9604V26.4469H49.8946ZM49.8946 27.3811V28.3153H48.9604V27.3811H49.8946ZM49.8946 28.3153V29.2496H48.9604V28.3153H49.8946ZM49.8946 29.2496V30.1838H48.9604V29.2496H49.8946ZM49.8946 30.1838V31.118H48.9604V30.1838H49.8946ZM49.8946 31.118V32.0523H48.9604V31.118H49.8946ZM49.8946 32.0523V32.9865H48.9604V32.0523H49.8946ZM52.6973 23.6442V24.5784H51.7631V23.6442H52.6973ZM52.6973 24.5784V25.5126H51.7631V24.5784H52.6973ZM52.6973 25.5126V26.4469H51.7631V25.5126H52.6973ZM52.6973 26.4469V27.3811H51.7631V26.4469H52.6973ZM52.6973 27.3811V28.3153H51.7631V27.3811H52.6973ZM52.6973 28.3153V29.2496H51.7631V28.3153H52.6973ZM52.6973 30.1838V31.118H51.7631V30.1838H52.6973ZM52.6973 31.118V32.0523H51.7631V31.118H52.6973ZM52.6973 32.0523V32.9865H51.7631V32.0523H52.6973ZM52.6973 32.9865V33.9207H51.7631V32.9865H52.6973ZM52.6973 33.9207V34.855H51.7631V33.9207H52.6973ZM52.6973 34.855V35.7892H51.7631V34.855H52.6973ZM52.6973 35.7892V36.7234H51.7631V35.7892H52.6973ZM53.6316 36.7234V37.6577H52.6973V36.7234H53.6316ZM53.6316 37.6577V38.5919H52.6973V37.6577H53.6316ZM53.6316 38.5919V39.5261H52.6973V38.5919H53.6316ZM53.6316 35.7892V36.7234H52.6973V35.7892H53.6316ZM53.6316 34.855V35.7892H52.6973V34.855H53.6316ZM53.6316 33.9207V34.855H52.6973V33.9207H53.6316ZM53.6316 32.9865V33.9207H52.6973V32.9865H53.6316ZM53.6316 32.0523V32.9865H52.6973V32.0523H53.6316ZM53.6316 31.118V32.0523H52.6973V31.118H53.6316ZM53.6316 30.1838V31.118H52.6973V30.1838H53.6316ZM53.6316 29.2496V30.1838H52.6973V29.2496H53.6316ZM53.6316 28.3153V29.2496H52.6973V28.3153H53.6316ZM53.6316 27.3811V28.3153H52.6973V27.3811H53.6316ZM52.6973 29.2496V30.1838H51.7631V29.2496H52.6973ZM53.6316 26.4469V27.3811H52.6973V26.4469H53.6316ZM53.6316 25.5126V26.4469H52.6973V25.5126H53.6316ZM53.6316 24.5784V25.5126H52.6973V24.5784H53.6316ZM53.6316 23.6442V24.5784H52.6973V23.6442H53.6316ZM51.7631 23.6442V24.5784H50.8289V23.6442H51.7631ZM50.8289 23.6442V24.5784H49.8946V23.6442H50.8289ZM50.8289 24.5784V25.5126H49.8946V24.5784H50.8289ZM51.7631 24.5784V25.5126H50.8289V24.5784H51.7631ZM51.7631 25.5126V26.4469H50.8289V25.5126H51.7631ZM51.7631 26.4469V27.3811H50.8289V26.4469H51.7631ZM51.7631 27.3811V28.3153H50.8289V27.3811H51.7631ZM51.7631 28.3153V29.2496H50.8289V28.3153H51.7631ZM51.7631 29.2496V30.1838H50.8289V29.2496H51.7631ZM51.7631 30.1838V31.118H50.8289V30.1838H51.7631ZM50.8289 31.118V32.0523H49.8946V31.118H50.8289ZM50.8289 32.0523V32.9865H49.8946V32.0523H50.8289ZM50.8289 30.1838V31.118H49.8946V30.1838H50.8289ZM50.8289 29.2496V30.1838H49.8946V29.2496H50.8289ZM50.8289 28.3153V29.2496H49.8946V28.3153H50.8289ZM50.8289 27.3811V28.3153H49.8946V27.3811H50.8289ZM50.8289 26.4469V27.3811H49.8946V26.4469H50.8289ZM50.8289 25.5126V26.4469H49.8946V25.5126H50.8289ZM51.7631 31.118V32.0523H50.8289V31.118H51.7631ZM51.7631 32.0523V32.9865H50.8289V32.0523H51.7631ZM51.7631 32.9865V33.9207H50.8289V32.9865H51.7631ZM51.7631 33.9207V34.855H50.8289V33.9207H51.7631ZM51.7631 34.855V35.7892H50.8289V34.855H51.7631ZM51.7631 35.7892V36.7234H50.8289V35.7892H51.7631ZM51.7631 36.7234V37.6577H50.8289V36.7234H51.7631ZM51.7631 37.6577V38.5919H50.8289V37.6577H51.7631ZM51.7631 38.5919V39.5261H50.8289V38.5919H51.7631ZM52.6973 37.6577V38.5919H51.7631V37.6577H52.6973ZM52.6973 36.7234V37.6577H51.7631V36.7234H52.6973ZM54.5658 36.7234V37.6577H53.6316V36.7234H54.5658ZM55.5 36.7234V37.6577H54.5658V36.7234H55.5ZM55.5 37.6577V38.5919H54.5658V37.6577H55.5ZM54.5658 37.6577V38.5919H53.6316V37.6577H54.5658ZM54.5658 34.855V35.7892H53.6316V34.855H54.5658ZM55.5 34.855V35.7892H54.5658V34.855H55.5ZM54.5658 38.5919V39.5261H53.6316V38.5919H54.5658ZM55.5 38.5919V39.5261H54.5658V38.5919H55.5ZM55.5 35.7892V36.7234H54.5658V35.7892H55.5ZM54.5658 35.7892V36.7234H53.6316V35.7892H54.5658ZM54.5658 23.6442V24.5784H53.6316V23.6442H54.5658ZM55.5 23.6442V24.5784H54.5658V23.6442H55.5ZM55.5 24.5784V25.5126H54.5658V24.5784H55.5ZM54.5658 24.5784V25.5126H53.6316V24.5784H54.5658ZM54.5658 25.5126V26.4469H53.6316V25.5126H54.5658ZM55.5 25.5126V26.4469H54.5658V25.5126H55.5ZM55.5 26.4469V27.3811H54.5658V26.4469H55.5ZM54.5658 26.4469V27.3811H53.6316V26.4469H54.5658ZM54.5658 27.3811V28.3153H53.6316V27.3811H54.5658ZM55.5 27.3811V28.3153H54.5658V27.3811H55.5ZM56.4343 34.855V35.7892H55.5V34.855H56.4343ZM57.3685 34.855V35.7892H56.4343V34.855H57.3685ZM58.3027 34.855V35.7892H57.3685V34.855H58.3027ZM59.237 33.9207V34.855H58.3027V33.9207H59.237ZM60.1712 32.9865V33.9207H59.237V32.9865H60.1712ZM60.1712 32.0523V32.9865H59.237V32.0523H60.1712ZM60.1712 29.2496V30.1838H59.237V29.2496H60.1712ZM59.237 28.3153V29.2496H58.3027V28.3153H59.237ZM58.3027 27.3811V28.3153H57.3685V27.3811H58.3027ZM57.3685 27.3811V28.3153H56.4343V27.3811H57.3685ZM56.4343 27.3811V28.3153H55.5V27.3811H56.4343ZM56.4343 23.6442V24.5784H55.5V23.6442H56.4343ZM57.3685 23.6442V24.5784H56.4343V23.6442H57.3685ZM58.3027 23.6442V24.5784H57.3685V23.6442H58.3027ZM59.237 23.6442V24.5784H58.3027V23.6442H59.237ZM59.237 24.5784V25.5126H58.3027V24.5784H59.237ZM59.237 25.5126V26.4469H58.3027V25.5126H59.237ZM59.237 26.4469V27.3811H58.3027V26.4469H59.237ZM58.3027 26.4469V27.3811H57.3685V26.4469H58.3027ZM58.3027 25.5126V26.4469H57.3685V25.5126H58.3027ZM57.3685 25.5126V26.4469H56.4343V25.5126H57.3685ZM56.4343 25.5126V26.4469H55.5V25.5126H56.4343ZM56.4343 24.5784V25.5126H55.5V24.5784H56.4343ZM57.3685 24.5784V25.5126H56.4343V24.5784H57.3685ZM58.3027 24.5784V25.5126H57.3685V24.5784H58.3027ZM56.4343 26.4469V27.3811H55.5V26.4469H56.4343ZM57.3685 26.4469V27.3811H56.4343V26.4469H57.3685ZM59.237 27.3811V28.3153H58.3027V27.3811H59.237ZM60.1712 28.3153V29.2496H59.237V28.3153H60.1712ZM60.1712 27.3811V28.3153H59.237V27.3811H60.1712ZM60.1712 26.4469V27.3811H59.237V26.4469H60.1712ZM60.1712 25.5126V26.4469H59.237V25.5126H60.1712ZM60.1712 24.5784V25.5126H59.237V24.5784H60.1712ZM60.1712 23.6442V24.5784H59.237V23.6442H60.1712ZM60.1712 33.9207V34.855H59.237V33.9207H60.1712ZM60.1712 34.855V35.7892H59.237V34.855H60.1712ZM60.1712 35.7892V36.7234H59.237V35.7892H60.1712ZM60.1712 36.7234V37.6577H59.237V36.7234H60.1712ZM59.237 36.7234V37.6577H58.3027V36.7234H59.237ZM58.3027 36.7234V37.6577H57.3685V36.7234H58.3027ZM57.3685 36.7234V37.6577H56.4343V36.7234H57.3685ZM56.4343 36.7234V37.6577H55.5V36.7234H56.4343ZM56.4343 35.7892V36.7234H55.5V35.7892H56.4343ZM57.3685 35.7892V36.7234H56.4343V35.7892H57.3685ZM58.3027 35.7892V36.7234H57.3685V35.7892H58.3027ZM59.237 35.7892V36.7234H58.3027V35.7892H59.237ZM59.237 34.855V35.7892H58.3027V34.855H59.237ZM56.4343 37.6577V38.5919H55.5V37.6577H56.4343ZM57.3685 37.6577V38.5919H56.4343V37.6577H57.3685ZM58.3027 37.6577V38.5919H57.3685V37.6577H58.3027ZM59.237 37.6577V38.5919H58.3027V37.6577H59.237ZM60.1712 37.6577V38.5919H59.237V37.6577H60.1712ZM60.1712 38.5919V39.5261H59.237V38.5919H60.1712ZM59.237 38.5919V39.5261H58.3027V38.5919H59.237ZM58.3027 38.5919V39.5261H57.3685V38.5919H58.3027ZM57.3685 38.5919V39.5261H56.4343V38.5919H57.3685ZM56.4343 38.5919V39.5261H55.5V38.5919H56.4343ZM61.1054 24.5784V25.5126H60.1712V24.5784H61.1054ZM62.0397 24.5784V25.5126H61.1054V24.5784H62.0397ZM62.0397 25.5126V26.4469H61.1054V25.5126H62.0397ZM62.9739 25.5126V26.4469H62.0397V25.5126H62.9739ZM62.9739 26.4469V27.3811H62.0397V26.4469H62.9739ZM62.9739 27.3811V28.3153H62.0397V27.3811H62.9739ZM63.9081 27.3811V28.3153H62.9739V27.3811H63.9081ZM63.9081 28.3153V29.2496H62.9739V28.3153H63.9081ZM63.9081 29.2496V30.1838H62.9739V29.2496H63.9081ZM63.9081 32.0523V32.9865H62.9739V32.0523H63.9081ZM63.9081 32.9865V33.9207H62.9739V32.9865H63.9081ZM63.9081 33.9207V34.855H62.9739V33.9207H63.9081ZM63.9081 34.855V35.7892H62.9739V34.855H63.9081ZM62.9739 35.7892V36.7234H62.0397V35.7892H62.9739ZM62.0397 36.7234V37.6577H61.1054V36.7234H62.0397ZM61.1054 37.6577V38.5919H60.1712V37.6577H61.1054ZM62.0397 37.6577V38.5919H61.1054V37.6577H62.0397ZM61.1054 38.5919V39.5261H60.1712V38.5919H61.1054ZM61.1054 25.5126V26.4469H60.1712V25.5126H61.1054ZM61.1054 26.4469V27.3811H60.1712V26.4469H61.1054ZM61.1054 27.3811V28.3153H60.1712V27.3811H61.1054ZM61.1054 28.3153V29.2496H60.1712V28.3153H61.1054ZM61.1054 29.2496V30.1838H60.1712V29.2496H61.1054ZM61.1054 32.0523V32.9865H60.1712V32.0523H61.1054ZM61.1054 32.9865V33.9207H60.1712V32.9865H61.1054ZM61.1054 33.9207V34.855H60.1712V33.9207H61.1054ZM61.1054 34.855V35.7892H60.1712V34.855H61.1054ZM61.1054 35.7892V36.7234H60.1712V35.7892H61.1054ZM61.1054 36.7234V37.6577H60.1712V36.7234H61.1054ZM62.0397 35.7892V36.7234H61.1054V35.7892H62.0397ZM62.0397 34.855V35.7892H61.1054V34.855H62.0397ZM62.0397 33.9207V34.855H61.1054V33.9207H62.0397ZM62.0397 32.9865V33.9207H61.1054V32.9865H62.0397ZM62.0397 32.0523V32.9865H61.1054V32.0523H62.0397ZM62.0397 29.2496V30.1838H61.1054V29.2496H62.0397ZM62.0397 28.3153V29.2496H61.1054V28.3153H62.0397ZM62.0397 27.3811V28.3153H61.1054V27.3811H62.0397ZM62.0397 26.4469V27.3811H61.1054V26.4469H62.0397ZM62.9739 28.3153V29.2496H62.0397V28.3153H62.9739ZM62.9739 29.2496V30.1838H62.0397V29.2496H62.9739ZM62.9739 32.0523V32.9865H62.0397V32.0523H62.9739ZM62.9739 32.9865V33.9207H62.0397V32.9865H62.9739ZM62.9739 33.9207V34.855H62.0397V33.9207H62.9739ZM62.9739 34.855V35.7892H62.0397V34.855H62.9739ZM53.6316 44.1973V45.1315H52.6973V44.1973H53.6316ZM53.6316 45.1315V46.0658H52.6973V45.1315H53.6316ZM53.6316 43.2631V44.1973H52.6973V43.2631H53.6316ZM60.1712 30.1838V31.118H59.237V30.1838H60.1712ZM61.1054 30.1838V31.118H60.1712V30.1838H61.1054ZM62.0397 30.1838V31.118H61.1054V30.1838H62.0397ZM62.9739 30.1838V31.118H62.0397V30.1838H62.9739ZM63.9081 30.1838V31.118H62.9739V30.1838H63.9081ZM63.9081 31.118V32.0523H62.9739V31.118H63.9081ZM62.9739 31.118V32.0523H62.0397V31.118H62.9739ZM62.0397 31.118V32.0523H61.1054V31.118H62.0397ZM61.1054 31.118V32.0523H60.1712V31.118H61.1054ZM60.1712 31.118V32.0523H59.237V31.118H60.1712Z" fill="black"/>
</svg>
