<svg width="100" height="100" viewBox="0 0 100 100" fill="none" xmlns="http://www.w3.org/2000/svg">
<circle cx="50" cy="50" r="50" fill="#FF5D00" fill-opacity="0.1"/>
<path d="M60.387 27.6632C60.352 27.5666 60.3369 27.4639 60.3426 27.3613C60.3484 27.2587 60.3749 27.1583 60.4205 27.0662C60.4661 26.9741 60.53 26.8921 60.6082 26.8253C60.6863 26.7584 60.7773 26.708 60.8755 26.6772C60.9737 26.6463 61.0771 26.6356 61.1795 26.6457C61.282 26.6558 61.3813 26.6865 61.4716 26.7359C61.5619 26.7853 61.6412 26.8524 61.7048 26.9332C61.7684 27.014 61.8149 27.1069 61.8417 27.2061C62.4971 29.2721 62.8297 31.4265 62.8277 33.5937C62.8454 35.6074 62.6324 37.6166 62.1928 39.582C62.1538 39.7497 62.0591 39.8992 61.9241 40.0063C61.7891 40.1134 61.6218 40.1717 61.4494 40.1717C61.3914 40.1716 61.3336 40.1654 61.2769 40.1534C61.1791 40.131 61.0868 40.0895 61.0051 40.0314C60.9234 39.9733 60.854 39.8997 60.8008 39.8147C60.7477 39.7298 60.7118 39.6353 60.6953 39.5365C60.6787 39.4378 60.6819 39.3367 60.7045 39.2392C61.1177 37.3887 61.318 35.4971 61.3013 33.6013C61.3047 31.5867 60.9963 29.5838 60.387 27.6632ZM26.6714 62.2417C26.8349 62.2417 26.994 62.1892 27.1253 62.0921C27.2567 61.995 27.3533 61.8584 27.4011 61.7023L30.2753 52.3053C30.3079 52.2088 30.3207 52.1067 30.313 52.0051C30.3054 51.9036 30.2774 51.8046 30.2308 51.714C30.1841 51.6234 30.1197 51.543 30.0414 51.4777C29.9631 51.4124 29.8725 51.3634 29.7749 51.3336C29.6773 51.3039 29.5748 51.2939 29.4733 51.3045C29.3718 51.315 29.2734 51.3457 29.184 51.3948C29.0946 51.4439 29.016 51.5104 28.9528 51.5904C28.8896 51.6704 28.8431 51.7622 28.8161 51.8604L25.9418 61.2574C25.907 61.3713 25.8994 61.4917 25.9196 61.609C25.9398 61.7264 25.9873 61.8373 26.0582 61.933C26.1292 62.0287 26.2216 62.1065 26.3281 62.1601C26.4346 62.2137 26.5522 62.2417 26.6714 62.2417ZM79.8595 75.6949C79.7879 75.789 79.6956 75.8653 79.5897 75.9182C79.4839 75.971 79.3673 75.9989 79.249 75.9997H27.2591C27.138 76.0032 27.0178 75.9773 26.9088 75.9244C26.7999 75.8714 26.7054 75.793 26.6334 75.6957C26.5614 75.5984 26.5141 75.4851 26.4955 75.3656C26.4768 75.246 26.4875 75.1238 26.5264 75.0093L28.8161 67.5276V67.4972L33.9296 50.8121L33.5937 50.4768C28.6024 45.4942 25 41.8829 25 33.5937C25 29.1927 26.7513 24.9721 29.8687 21.8602C32.986 18.7483 37.2141 17 41.6227 17C46.0313 17 50.2594 18.7483 53.3767 21.8602C56.4941 24.9721 58.2454 29.1927 58.2454 33.5937C58.3356 36.0576 57.9205 38.5139 57.0254 40.8119C56.1303 43.1099 54.7742 45.201 53.0403 46.957H70.8186C70.9818 46.956 71.141 47.0072 71.2728 47.1032C71.4047 47.1992 71.5023 47.3349 71.5512 47.4903L72.6808 51.1778C72.6891 51.186 72.6944 51.1967 72.696 51.2082C72.696 51.2235 72.7113 51.254 72.7113 51.2692L79.9618 75.0093C79.9991 75.1236 80.0093 75.2451 79.9915 75.3641C79.9738 75.4831 79.9286 75.5963 79.8595 75.6949ZM70.2584 48.4807H55.8261L62.4232 54.3243L71.0338 51.0269L70.2584 48.4807ZM34.0975 32.7099C34.096 34.1978 34.5367 35.6527 35.3638 36.8905C36.1909 38.1283 37.3673 39.0933 38.7441 39.6634C40.1209 40.2335 41.6361 40.383 43.0981 40.0931C44.56 39.8032 45.9029 39.0869 46.9569 38.0347C48.0108 36.9826 48.7284 35.642 49.0189 34.1827C49.3093 32.7233 49.1595 31.2107 48.5884 29.8363C48.0173 28.462 47.0506 27.2876 45.8106 26.4619C44.5707 25.6362 43.1132 25.1963 41.6227 25.1978C39.6274 25.1994 37.7143 25.9914 36.3033 27.3998C34.8924 28.8083 34.0991 30.718 34.0975 32.7099ZM30.7241 66.461V66.4701L60.8205 54.9399L53.5242 48.4807H51.636C51.0102 49.1359 50.3538 49.7912 49.6669 50.4768C47.0113 53.038 44.528 55.7715 42.2333 58.6594C42.1597 58.7502 42.0667 58.8233 41.961 58.8735C41.8553 58.9236 41.7397 58.9493 41.6227 58.9489C41.5079 58.9492 41.3946 58.9232 41.2914 58.873C41.1883 58.8228 41.098 58.7498 41.0274 58.6594C39.2036 56.3342 37.2411 54.1207 35.1507 52.0311L30.7241 66.461ZM28.2818 74.4759H61.2158L49.3556 61.4326C49.2607 61.3205 49.2003 61.1835 49.1815 61.038L30.1547 68.32L28.2818 74.4759ZM78.211 74.4759L71.4795 52.4897L50.5675 60.497L63.2704 74.4759H78.211ZM59.5673 24.4283C59.7183 24.4283 59.8658 24.3836 59.9913 24.2999C60.1168 24.2162 60.2147 24.0972 60.2724 23.958C60.3302 23.8188 60.3453 23.6656 60.3159 23.5178C60.2864 23.37 60.2137 23.2342 60.107 23.1277C60.0002 23.0211 59.8643 22.9486 59.7162 22.9192C59.5682 22.8898 59.4147 22.9049 59.2752 22.9625C59.1358 23.0202 59.0166 23.1179 58.9327 23.2431C58.8489 23.3684 58.8041 23.5157 58.8041 23.6664C58.8041 23.8685 58.8845 24.0623 59.0276 24.2051C59.1708 24.348 59.3649 24.4283 59.5673 24.4283ZM25.7708 64.3278C25.6199 64.3278 25.4723 64.3724 25.3468 64.4561C25.2213 64.5399 25.1235 64.6589 25.0657 64.7981C25.008 64.9373 24.9928 65.0905 25.0223 65.2383C25.0517 65.3861 25.1244 65.5218 25.2312 65.6284C25.3379 65.7349 25.4739 65.8075 25.6219 65.8369C25.77 65.8663 25.9235 65.8512 26.0629 65.7935C26.2024 65.7358 26.3216 65.6382 26.4054 65.5129C26.4893 65.3876 26.5341 65.2403 26.5341 65.0896C26.5341 64.8876 26.4536 64.6938 26.3105 64.5509C26.1674 64.408 25.9733 64.3278 25.7708 64.3278Z" fill="#FF5D00"/>
</svg>
