<svg width="72" height="40" viewBox="0 0 72 40" fill="none" xmlns="http://www.w3.org/2000/svg">
<path d="M2.05913 24.5681V25.2545H1.37275V24.5681H2.05913ZM2.05913 23.8817V24.5681H1.37275V23.8817H2.05913ZM2.05913 23.1954V23.8817H1.37275V23.1954H2.05913ZM2.05913 22.509V23.1954H1.37275V22.509H2.05913ZM2.05913 21.8226V22.509H1.37275V21.8226H2.05913ZM2.05913 21.1362V21.8226H1.37275V21.1362H2.05913ZM2.05913 20.4499V21.1362H1.37275V20.4499H2.05913ZM2.05913 19.7635V20.4499H1.37275V19.7635H2.05913ZM2.05913 19.0771V19.7635H1.37275V19.0771H2.05913ZM2.05913 18.3907V19.0771H1.37275V18.3907H2.05913ZM2.05913 17.7044V18.3907H1.37275V17.7044H2.05913ZM2.7455 17.7044V18.3907H2.05913V17.7044H2.7455ZM2.7455 18.3907V19.0771H2.05913V18.3907H2.7455ZM2.7455 19.0771V19.7635H2.05913V19.0771H2.7455ZM2.7455 19.7635V20.4499H2.05913V19.7635H2.7455ZM2.7455 20.4499V21.1362H2.05913V20.4499H2.7455ZM2.7455 21.1362V21.8226H2.05913V21.1362H2.7455ZM2.7455 21.8226V22.509H2.05913V21.8226H2.7455ZM3.43188 22.509V23.1954H2.7455V22.509H3.43188ZM3.43188 23.1954V23.8817H2.7455V23.1954H3.43188ZM3.43188 23.8817V24.5681H2.7455V23.8817H3.43188ZM3.43188 24.5681V25.2545H2.7455V24.5681H3.43188ZM3.43188 25.2545V25.9409H2.7455V25.2545H3.43188ZM3.43188 25.9409V26.6272H2.7455V25.9409H3.43188ZM3.43188 26.6272V27.3136H2.7455V26.6272H3.43188ZM4.80463 27.3136V28H4.11825V27.3136H4.80463ZM4.80463 26.6272V27.3136H4.11825V26.6272H4.80463ZM4.80463 25.9409V26.6272H4.11825V25.9409H4.80463ZM4.80463 25.2545V25.9409H4.11825V25.2545H4.80463ZM4.80463 24.5681V25.2545H4.11825V24.5681H4.80463ZM4.80463 23.8817V24.5681H4.11825V23.8817H4.80463ZM4.80463 23.1954V23.8817H4.11825V23.1954H4.80463ZM4.80463 22.509V23.1954H4.11825V22.509H4.80463ZM4.11825 22.509V23.1954H3.43188V22.509H4.11825ZM4.11825 21.8226V22.509H3.43188V21.8226H4.11825ZM4.11825 23.1954V23.8817H3.43188V23.1954H4.11825ZM4.11825 23.8817V24.5681H3.43188V23.8817H4.11825ZM4.11825 24.5681V25.2545H3.43188V24.5681H4.11825ZM4.11825 25.2545V25.9409H3.43188V25.2545H4.11825ZM4.11825 25.9409V26.6272H3.43188V25.9409H4.11825ZM4.11825 26.6272V27.3136H3.43188V26.6272H4.11825ZM2.7455 25.9409V26.6272H2.05913V25.9409H2.7455ZM2.7455 25.2545V25.9409H2.05913V25.2545H2.7455ZM2.7455 24.5681V25.2545H2.05913V24.5681H2.7455ZM2.7455 23.8817V24.5681H2.05913V23.8817H2.7455ZM2.7455 23.1954V23.8817H2.05913V23.1954H2.7455ZM2.7455 22.509V23.1954H2.05913V22.509H2.7455ZM2.05913 17.018V17.7044H1.37275V17.018H2.05913ZM4.11825 17.018V17.7044H3.43188V17.018H4.11825ZM4.11825 17.7044V18.3907H3.43188V17.7044H4.11825ZM4.11825 18.3907V19.0771H3.43188V18.3907H4.11825ZM4.11825 19.0771V19.7635H3.43188V19.0771H4.11825ZM4.11825 19.7635V20.4499H3.43188V19.7635H4.11825ZM4.80463 20.4499V21.1362H4.11825V20.4499H4.80463ZM4.80463 21.1362V21.8226H4.11825V21.1362H4.80463ZM4.80463 21.8226V22.509H4.11825V21.8226H4.80463ZM4.80463 19.7635V20.4499H4.11825V19.7635H4.80463ZM4.80463 19.0771V19.7635H4.11825V19.0771H4.80463ZM4.80463 18.3907V19.0771H4.11825V18.3907H4.80463ZM4.80463 17.7044V18.3907H4.11825V17.7044H4.80463ZM4.80463 17.018V17.7044H4.11825V17.018H4.80463ZM2.7455 17.018V17.7044H2.05913V17.018H2.7455ZM3.43188 17.018V17.7044H2.7455V17.018H3.43188ZM3.43188 17.7044V18.3907H2.7455V17.7044H3.43188ZM3.43188 18.3907V19.0771H2.7455V18.3907H3.43188ZM3.43188 19.0771V19.7635H2.7455V19.0771H3.43188ZM3.43188 19.7635V20.4499H2.7455V19.7635H3.43188ZM3.43188 20.4499V21.1362H2.7455V20.4499H3.43188ZM3.43188 21.1362V21.8226H2.7455V21.1362H3.43188ZM3.43188 21.8226V22.509H2.7455V21.8226H3.43188ZM4.11825 21.1362V21.8226H3.43188V21.1362H4.11825ZM4.11825 20.4499V21.1362H3.43188V20.4499H4.11825ZM10.2956 27.3136V28H9.60926V27.3136H10.2956ZM10.2956 26.6272V27.3136H9.60926V26.6272H10.2956ZM10.2956 25.9409V26.6272H9.60926V25.9409H10.2956ZM10.2956 25.2545V25.9409H9.60926V25.2545H10.2956ZM10.2956 24.5681V25.2545H9.60926V24.5681H10.2956ZM10.2956 23.8817V24.5681H9.60926V23.8817H10.2956ZM10.2956 23.1954V23.8817H9.60926V23.1954H10.2956ZM11.6684 23.1954V23.8817H10.982V23.1954H11.6684ZM11.6684 23.8817V24.5681H10.982V23.8817H11.6684ZM11.6684 24.5681V25.2545H10.982V24.5681H11.6684ZM11.6684 25.2545V25.9409H10.982V25.2545H11.6684ZM11.6684 25.9409V26.6272H10.982V25.9409H11.6684ZM11.6684 26.6272V27.3136H10.982V26.6272H11.6684ZM13.0411 24.5681V25.2545H12.3548V24.5681H13.0411ZM13.0411 23.8817V24.5681H12.3548V23.8817H13.0411ZM13.0411 23.1954V23.8817H12.3548V23.1954H13.0411ZM12.3548 23.1954V23.8817H11.6684V23.1954H12.3548ZM12.3548 23.8817V24.5681H11.6684V23.8817H12.3548ZM12.3548 24.5681V25.2545H11.6684V24.5681H12.3548ZM12.3548 25.2545V25.9409H11.6684V25.2545H12.3548ZM12.3548 25.9409V26.6272H11.6684V25.9409H12.3548ZM10.982 26.6272V27.3136H10.2956V26.6272H10.982ZM10.982 25.9409V26.6272H10.2956V25.9409H10.982ZM10.982 25.2545V25.9409H10.2956V25.2545H10.982ZM10.982 24.5681V25.2545H10.2956V24.5681H10.982ZM10.982 23.8817V24.5681H10.2956V23.8817H10.982ZM10.982 23.1954V23.8817H10.2956V23.1954H10.982ZM5.491 27.3136V28H4.80463V27.3136H5.491ZM6.17738 27.3136V28H5.491V27.3136H6.17738ZM6.86375 27.3136V28H6.17738V27.3136H6.86375ZM7.55013 27.3136V28H6.86375V27.3136H7.55013ZM8.92288 27.3136V28H8.2365V27.3136H8.92288ZM9.60926 27.3136V28H8.92288V27.3136H9.60926ZM9.60926 26.6272V27.3136H8.92288V26.6272H9.60926ZM8.92288 26.6272V27.3136H8.2365V26.6272H8.92288ZM7.55013 26.6272V27.3136H6.86375V26.6272H7.55013ZM6.86375 26.6272V27.3136H6.17738V26.6272H6.86375ZM6.17738 26.6272V27.3136H5.491V26.6272H6.17738ZM5.491 26.6272V27.3136H4.80463V26.6272H5.491ZM5.491 25.9409V26.6272H4.80463V25.9409H5.491ZM6.17738 25.9409V26.6272H5.491V25.9409H6.17738ZM6.86375 25.9409V26.6272H6.17738V25.9409H6.86375ZM7.55013 25.9409V26.6272H6.86375V25.9409H7.55013ZM8.92288 25.9409V26.6272H8.2365V25.9409H8.92288ZM9.60926 25.9409V26.6272H8.92288V25.9409H9.60926ZM9.60926 25.2545V25.9409H8.92288V25.2545H9.60926ZM8.92288 25.2545V25.9409H8.2365V25.2545H8.92288ZM7.55013 25.2545V25.9409H6.86375V25.2545H7.55013ZM6.86375 25.2545V25.9409H6.17738V25.2545H6.86375ZM6.17738 25.2545V25.9409H5.491V25.2545H6.17738ZM5.491 25.2545V25.9409H4.80463V25.2545H5.491ZM5.491 24.5681V25.2545H4.80463V24.5681H5.491ZM9.60926 24.5681V25.2545H8.92288V24.5681H9.60926ZM12.3548 14.2725V13.5861H13.0411V14.2725H12.3548ZM12.3548 14.9589V14.2725H13.0411V14.9589H12.3548ZM12.3548 15.6452V14.9589H13.0411V15.6452H12.3548ZM10.982 15.6452V14.9589H11.6684V15.6452H10.982ZM10.982 14.9589V14.2725H11.6684V14.9589H10.982ZM10.982 14.2725V13.5861H11.6684V14.2725H10.982ZM10.982 13.5861V12.8997H11.6684V13.5861H10.982ZM10.982 12.8997V12.2134H11.6684V12.8997H10.982ZM10.982 12.2134V11.527H11.6684V12.2134H10.982ZM9.60926 11.527V10.8406H10.2956V11.527H9.60926ZM9.60926 12.2134V11.527H10.2956V12.2134H9.60926ZM9.60926 12.8997V12.2134H10.2956V12.8997H9.60926ZM9.60926 13.5861V12.8997H10.2956V13.5861H9.60926ZM9.60926 14.2725V13.5861H10.2956V14.2725H9.60926ZM9.60926 14.9589V14.2725H10.2956V14.9589H9.60926ZM9.60926 15.6452V14.9589H10.2956V15.6452H9.60926ZM10.2956 15.6452V14.9589H10.982V15.6452H10.2956ZM10.2956 14.9589V14.2725H10.982V14.9589H10.2956ZM10.2956 14.2725V13.5861H10.982V14.2725H10.2956ZM10.2956 13.5861V12.8997H10.982V13.5861H10.2956ZM10.2956 12.8997V12.2134H10.982V12.8997H10.2956ZM10.2956 12.2134V11.527H10.982V12.2134H10.2956ZM11.6684 12.8997V12.2134H12.3548V12.8997H11.6684ZM11.6684 13.5861V12.8997H12.3548V13.5861H11.6684ZM11.6684 14.2725V13.5861H12.3548V14.2725H11.6684ZM11.6684 14.9589V14.2725H12.3548V14.9589H11.6684ZM11.6684 15.6452V14.9589H12.3548V15.6452H11.6684ZM4.11825 11.527V10.8406H4.80463V11.527H4.11825ZM4.11825 12.2134V11.527H4.80463V12.2134H4.11825ZM4.11825 12.8997V12.2134H4.80463V12.8997H4.11825ZM4.11825 13.5861V12.8997H4.80463V13.5861H4.11825ZM4.11825 14.2725V13.5861H4.80463V14.2725H4.11825ZM4.11825 14.9589V14.2725H4.80463V14.9589H4.11825ZM4.11825 15.6452V14.9589H4.80463V15.6452H4.11825ZM2.7455 15.6452V14.9589H3.43188V15.6452H2.7455ZM2.7455 14.9589V14.2725H3.43188V14.9589H2.7455ZM2.7455 14.2725V13.5861H3.43188V14.2725H2.7455ZM2.7455 13.5861V12.8997H3.43188V13.5861H2.7455ZM2.7455 12.8997V12.2134H3.43188V12.8997H2.7455ZM2.7455 12.2134V11.527H3.43188V12.2134H2.7455ZM1.37275 14.2725V13.5861H2.05913V14.2725H1.37275ZM1.37275 14.9589V14.2725H2.05913V14.9589H1.37275ZM1.37275 15.6452V14.9589H2.05913V15.6452H1.37275ZM2.05913 15.6452V14.9589H2.7455V15.6452H2.05913ZM2.05913 14.9589V14.2725H2.7455V14.9589H2.05913ZM2.05913 14.2725V13.5861H2.7455V14.2725H2.05913ZM2.05913 13.5861V12.8997H2.7455V13.5861H2.05913ZM2.05913 12.8997V12.2134H2.7455V12.8997H2.05913ZM3.43188 12.2134V11.527H4.11825V12.2134H3.43188ZM3.43188 12.8997V12.2134H4.11825V12.8997H3.43188ZM3.43188 13.5861V12.8997H4.11825V13.5861H3.43188ZM3.43188 14.2725V13.5861H4.11825V14.2725H3.43188ZM3.43188 14.9589V14.2725H4.11825V14.9589H3.43188ZM3.43188 15.6452V14.9589H4.11825V15.6452H3.43188ZM8.92288 11.527V10.8406H9.60926V11.527H8.92288ZM8.2365 11.527V10.8406H8.92288V11.527H8.2365ZM6.86375 11.527V10.8406H7.55013V11.527H6.86375ZM6.17738 11.527V10.8406H6.86375V11.527H6.17738ZM5.491 11.527V10.8406H6.17738V11.527H5.491ZM4.80463 11.527V10.8406H5.491V11.527H4.80463ZM4.80463 12.2134V11.527H5.491V12.2134H4.80463ZM5.491 12.2134V11.527H6.17738V12.2134H5.491ZM6.17738 12.2134V11.527H6.86375V12.2134H6.17738ZM6.86375 12.2134V11.527H7.55013V12.2134H6.86375ZM8.2365 12.2134V11.527H8.92288V12.2134H8.2365ZM8.92288 12.2134V11.527H9.60926V12.2134H8.92288ZM8.92288 12.8997V12.2134H9.60926V12.8997H8.92288ZM8.2365 12.8997V12.2134H8.92288V12.8997H8.2365ZM6.86375 12.8997V12.2134H7.55013V12.8997H6.86375ZM6.17738 12.8997V12.2134H6.86375V12.8997H6.17738ZM5.491 12.8997V12.2134H6.17738V12.8997H5.491ZM4.80463 12.8997V12.2134H5.491V12.8997H4.80463ZM4.80463 13.5861V12.8997H5.491V13.5861H4.80463ZM5.491 13.5861V12.8997H6.17738V13.5861H5.491ZM6.17738 13.5861V12.8997H6.86375V13.5861H6.17738ZM6.86375 13.5861V12.8997H7.55013V13.5861H6.86375ZM8.2365 13.5861V12.8997H8.92288V13.5861H8.2365ZM8.92288 13.5861V12.8997H9.60926V13.5861H8.92288ZM8.92288 14.2725V13.5861H9.60926V14.2725H8.92288ZM4.80463 14.2725V13.5861H5.491V14.2725H4.80463ZM2.05913 16.3316V17.018H1.37275V16.3316H2.05913ZM2.7455 16.3316V17.018H2.05913V16.3316H2.7455ZM2.05913 15.6452V16.3316H1.37275V15.6452H2.05913ZM4.11825 15.6452V16.3316H3.43188V15.6452H4.11825ZM4.11825 16.3316V17.018H3.43188V16.3316H4.11825ZM4.80463 16.3316V17.018H4.11825V16.3316H4.80463ZM4.80463 15.6452V16.3316H4.11825V15.6452H4.80463ZM2.7455 15.6452V16.3316H2.05913V15.6452H2.7455ZM3.43188 15.6452V16.3316H2.7455V15.6452H3.43188ZM3.43188 16.3316V17.018H2.7455V16.3316H3.43188ZM7.55013 18.3907V19.0771H6.86375V18.3907H7.55013ZM7.55013 19.0771V19.7635H6.86375V19.0771H7.55013ZM8.92288 19.0771V19.7635H8.2365V19.0771H8.92288ZM9.60926 19.0771V19.7635H8.92288V19.0771H9.60926ZM10.2956 19.0771V19.7635H9.60926V19.0771H10.2956ZM10.982 19.0771V19.7635H10.2956V19.0771H10.982ZM11.6684 19.0771V19.7635H10.982V19.0771H11.6684ZM12.3548 19.0771V19.7635H11.6684V19.0771H12.3548ZM13.0411 18.3907V19.0771H12.3548V18.3907H13.0411ZM12.3548 18.3907V19.0771H11.6684V18.3907H12.3548ZM11.6684 18.3907V19.0771H10.982V18.3907H11.6684ZM10.982 18.3907V19.0771H10.2956V18.3907H10.982ZM10.2956 18.3907V19.0771H9.60926V18.3907H10.2956ZM9.60926 18.3907V19.0771H8.92288V18.3907H9.60926ZM8.92288 18.3907V19.0771H8.2365V18.3907H8.92288ZM13.0411 19.0771V19.7635H12.3548V19.0771H13.0411ZM13.0411 19.7635V20.4499H12.3548V19.7635H13.0411ZM13.0411 20.4499V21.1362H12.3548V20.4499H13.0411ZM13.0411 21.1362V21.8226H12.3548V21.1362H13.0411ZM13.0411 21.8226V22.509H12.3548V21.8226H13.0411ZM13.0411 22.509V23.1954H12.3548V22.509H13.0411ZM12.3548 22.509V23.1954H11.6684V22.509H12.3548ZM11.6684 22.509V23.1954H10.982V22.509H11.6684ZM10.982 22.509V23.1954H10.2956V22.509H10.982ZM10.2956 22.509V23.1954H9.60926V22.509H10.2956ZM10.2956 21.8226V22.509H9.60926V21.8226H10.2956ZM10.982 21.8226V22.509H10.2956V21.8226H10.982ZM11.6684 21.8226V22.509H10.982V21.8226H11.6684ZM12.3548 21.8226V22.509H11.6684V21.8226H12.3548ZM12.3548 21.1362V21.8226H11.6684V21.1362H12.3548ZM11.6684 21.1362V21.8226H10.982V21.1362H11.6684ZM10.982 21.1362V21.8226H10.2956V21.1362H10.982ZM10.2956 21.1362V21.8226H9.60926V21.1362H10.2956ZM7.55013 19.7635V20.4499H6.86375V19.7635H7.55013ZM7.55013 20.4499V21.1362H6.86375V20.4499H7.55013ZM8.92288 20.4499V21.1362H8.2365V20.4499H8.92288ZM9.60926 20.4499V21.1362H8.92288V20.4499H9.60926ZM10.2956 20.4499V21.1362H9.60926V20.4499H10.2956ZM10.982 20.4499V21.1362H10.2956V20.4499H10.982ZM11.6684 20.4499V21.1362H10.982V20.4499H11.6684ZM12.3548 20.4499V21.1362H11.6684V20.4499H12.3548ZM12.3548 19.7635V20.4499H11.6684V19.7635H12.3548ZM11.6684 19.7635V20.4499H10.982V19.7635H11.6684ZM10.982 19.7635V20.4499H10.2956V19.7635H10.982ZM10.2956 19.7635V20.4499H9.60926V19.7635H10.2956ZM9.60926 19.7635V20.4499H8.92288V19.7635H9.60926ZM8.92288 19.7635V20.4499H8.2365V19.7635H8.92288ZM6.17738 24.5681V25.2545H5.491V24.5681H6.17738ZM6.86375 24.5681V25.2545H6.17738V24.5681H6.86375ZM7.55013 24.5681V25.2545H6.86375V24.5681H7.55013ZM8.92288 24.5681V25.2545H8.2365V24.5681H8.92288ZM9.60926 23.8817V24.5681H8.92288V23.8817H9.60926ZM5.491 23.8817V24.5681H4.80463V23.8817H5.491ZM6.17738 13.5861V14.2725H5.491V13.5861H6.17738ZM6.86375 13.5861V14.2725H6.17738V13.5861H6.86375ZM7.55013 13.5861V14.2725H6.86375V13.5861H7.55013ZM8.92288 13.5861V14.2725H8.2365V13.5861H8.92288ZM5.491 14.2725V14.9589H4.80463V14.2725H5.491ZM9.60926 14.2725V14.9589H8.92288V14.2725H9.60926ZM10.2956 15.6452V16.3316H9.60926V15.6452H10.2956ZM10.982 15.6452V16.3316H10.2956V15.6452H10.982ZM11.6684 15.6452V16.3316H10.982V15.6452H11.6684ZM12.3548 15.6452V16.3316H11.6684V15.6452H12.3548ZM13.0411 15.6452V16.3316H12.3548V15.6452H13.0411ZM7.55013 21.1362V21.8226H6.86375V21.1362H7.55013ZM8.92288 21.1362V21.8226H8.2365V21.1362H8.92288ZM9.60926 21.1362V21.8226H8.92288V21.1362H9.60926ZM8.2365 10.8406V11.527H7.55013V10.8406H8.2365ZM8.2365 11.527V12.2134H7.55013V11.527H8.2365ZM8.2365 12.2134V12.8997H7.55013V12.2134H8.2365ZM8.2365 12.8997V13.5861H7.55013V12.8997H8.2365ZM8.2365 13.5861V14.2725H7.55013V13.5861H8.2365ZM8.2365 18.3907V19.0771H7.55013V18.3907H8.2365ZM8.2365 19.0771V19.7635H7.55013V19.0771H8.2365ZM8.2365 19.7635V20.4499H7.55013V19.7635H8.2365ZM8.2365 20.4499V21.1362H7.55013V20.4499H8.2365ZM8.2365 21.1362V21.8226H7.55013V21.1362H8.2365ZM8.2365 24.5681V25.2545H7.55013V24.5681H8.2365ZM8.2365 25.2545V25.9409H7.55013V25.2545H8.2365ZM8.2365 25.9409V26.6272H7.55013V25.9409H8.2365ZM8.2365 26.6272V27.3136H7.55013V26.6272H8.2365ZM8.2365 27.3136V28H7.55013V27.3136H8.2365ZM16.4596 10.8406V11.527H15.7732V10.8406H16.4596ZM16.4596 11.527V12.2134H15.7732V11.527H16.4596ZM16.4596 12.2134V12.8997H15.7732V12.2134H16.4596ZM18.5187 10.8406V11.527H17.8324V10.8406H18.5187ZM18.5187 11.527V12.2134H17.8324V11.527H18.5187ZM18.5187 12.2134V12.8997H17.8324V12.2134H18.5187ZM19.2051 12.2134V12.8997H18.5187V12.2134H19.2051ZM19.2051 11.527V12.2134H18.5187V11.527H19.2051ZM19.2051 10.8406V11.527H18.5187V10.8406H19.2051ZM17.8324 10.8406V11.527H17.146V10.8406H17.8324ZM17.146 10.8406V11.527H16.4596V10.8406H17.146ZM17.146 11.527V12.2134H16.4596V11.527H17.146ZM17.8324 11.527V12.2134H17.146V11.527H17.8324ZM17.8324 12.2134V12.8997H17.146V12.2134H17.8324ZM17.146 12.2134V12.8997H16.4596V12.2134H17.146ZM16.4596 12.8997V13.5861H15.7732V12.8997H16.4596ZM17.146 12.8997V13.5861H16.4596V12.8997H17.146ZM17.8324 12.8997V13.5861H17.146V12.8997H17.8324ZM18.5187 12.8997V13.5861H17.8324V12.8997H18.5187ZM19.2051 12.8997V13.5861H18.5187V12.8997H19.2051ZM16.4596 27.3136V28H15.7732V27.3136H16.4596ZM16.4596 26.6272V27.3136H15.7732V26.6272H16.4596ZM16.4596 25.9409V26.6272H15.7732V25.9409H16.4596ZM16.4596 25.2545V25.9409H15.7732V25.2545H16.4596ZM16.4596 24.5681V25.2545H15.7732V24.5681H16.4596ZM16.4596 23.8817V24.5681H15.7732V23.8817H16.4596ZM16.4596 23.1954V23.8817H15.7732V23.1954H16.4596ZM16.4596 22.509V23.1954H15.7732V22.509H16.4596ZM16.4596 21.8226V22.509H15.7732V21.8226H16.4596ZM16.4596 21.1362V21.8226H15.7732V21.1362H16.4596ZM16.4596 20.4499V21.1362H15.7732V20.4499H16.4596ZM16.4596 19.7635V20.4499H15.7732V19.7635H16.4596ZM16.4596 19.0771V19.7635H15.7732V19.0771H16.4596ZM16.4596 18.3907V19.0771H15.7732V18.3907H16.4596ZM16.4596 17.7044V18.3907H15.7732V17.7044H16.4596ZM17.146 17.7044V18.3907H16.4596V17.7044H17.146ZM17.146 18.3907V19.0771H16.4596V18.3907H17.146ZM17.146 19.0771V19.7635H16.4596V19.0771H17.146ZM17.146 19.7635V20.4499H16.4596V19.7635H17.146ZM17.146 20.4499V21.1362H16.4596V20.4499H17.146ZM17.146 21.1362V21.8226H16.4596V21.1362H17.146ZM17.146 21.8226V22.509H16.4596V21.8226H17.146ZM17.8324 22.509V23.1954H17.146V22.509H17.8324ZM17.8324 23.1954V23.8817H17.146V23.1954H17.8324ZM17.8324 23.8817V24.5681H17.146V23.8817H17.8324ZM17.8324 24.5681V25.2545H17.146V24.5681H17.8324ZM17.8324 25.2545V25.9409H17.146V25.2545H17.8324ZM17.8324 25.9409V26.6272H17.146V25.9409H17.8324ZM17.8324 26.6272V27.3136H17.146V26.6272H17.8324ZM17.8324 27.3136V28H17.146V27.3136H17.8324ZM18.5187 27.3136V28H17.8324V27.3136H18.5187ZM19.2051 27.3136V28H18.5187V27.3136H19.2051ZM19.2051 26.6272V27.3136H18.5187V26.6272H19.2051ZM19.2051 25.9409V26.6272H18.5187V25.9409H19.2051ZM19.2051 25.2545V25.9409H18.5187V25.2545H19.2051ZM19.2051 24.5681V25.2545H18.5187V24.5681H19.2051ZM19.2051 23.8817V24.5681H18.5187V23.8817H19.2051ZM19.2051 23.1954V23.8817H18.5187V23.1954H19.2051ZM19.2051 22.509V23.1954H18.5187V22.509H19.2051ZM18.5187 22.509V23.1954H17.8324V22.509H18.5187ZM18.5187 21.8226V22.509H17.8324V21.8226H18.5187ZM18.5187 23.1954V23.8817H17.8324V23.1954H18.5187ZM18.5187 23.8817V24.5681H17.8324V23.8817H18.5187ZM18.5187 24.5681V25.2545H17.8324V24.5681H18.5187ZM18.5187 25.2545V25.9409H17.8324V25.2545H18.5187ZM18.5187 25.9409V26.6272H17.8324V25.9409H18.5187ZM18.5187 26.6272V27.3136H17.8324V26.6272H18.5187ZM17.146 27.3136V28H16.4596V27.3136H17.146ZM17.146 26.6272V27.3136H16.4596V26.6272H17.146ZM17.146 25.9409V26.6272H16.4596V25.9409H17.146ZM17.146 25.2545V25.9409H16.4596V25.2545H17.146ZM17.146 24.5681V25.2545H16.4596V24.5681H17.146ZM17.146 23.8817V24.5681H16.4596V23.8817H17.146ZM17.146 23.1954V23.8817H16.4596V23.1954H17.146ZM17.146 22.509V23.1954H16.4596V22.509H17.146ZM16.4596 16.3316V17.018H15.7732V16.3316H16.4596ZM16.4596 17.018V17.7044H15.7732V17.018H16.4596ZM18.5187 16.3316V17.018H17.8324V16.3316H18.5187ZM18.5187 17.018V17.7044H17.8324V17.018H18.5187ZM18.5187 17.7044V18.3907H17.8324V17.7044H18.5187ZM18.5187 18.3907V19.0771H17.8324V18.3907H18.5187ZM18.5187 19.0771V19.7635H17.8324V19.0771H18.5187ZM18.5187 19.7635V20.4499H17.8324V19.7635H18.5187ZM19.2051 20.4499V21.1362H18.5187V20.4499H19.2051ZM19.2051 21.1362V21.8226H18.5187V21.1362H19.2051ZM19.2051 21.8226V22.509H18.5187V21.8226H19.2051ZM19.2051 19.7635V20.4499H18.5187V19.7635H19.2051ZM19.2051 19.0771V19.7635H18.5187V19.0771H19.2051ZM19.2051 18.3907V19.0771H18.5187V18.3907H19.2051ZM19.2051 17.7044V18.3907H18.5187V17.7044H19.2051ZM19.2051 17.018V17.7044H18.5187V17.018H19.2051ZM19.2051 16.3316V17.018H18.5187V16.3316H19.2051ZM17.146 16.3316V17.018H16.4596V16.3316H17.146ZM17.146 17.018V17.7044H16.4596V17.018H17.146ZM17.8324 16.3316V17.018H17.146V16.3316H17.8324ZM17.8324 17.018V17.7044H17.146V17.018H17.8324ZM17.8324 17.7044V18.3907H17.146V17.7044H17.8324ZM17.8324 18.3907V19.0771H17.146V18.3907H17.8324ZM17.8324 19.0771V19.7635H17.146V19.0771H17.8324ZM17.8324 19.7635V20.4499H17.146V19.7635H17.8324ZM17.8324 20.4499V21.1362H17.146V20.4499H17.8324ZM17.8324 21.1362V21.8226H17.146V21.1362H17.8324ZM17.8324 21.8226V22.509H17.146V21.8226H17.8324ZM18.5187 21.1362V21.8226H17.8324V21.1362H18.5187ZM18.5187 20.4499V21.1362H17.8324V20.4499H18.5187ZM18.5187 15.6452V16.3316H17.8324V15.6452H18.5187ZM19.2051 15.6452V16.3316H18.5187V15.6452H19.2051ZM17.8324 15.6452V16.3316H17.146V15.6452H17.8324ZM17.146 15.6452V16.3316H16.4596V15.6452H17.146ZM16.4596 15.6452V16.3316H15.7732V15.6452H16.4596ZM22.643 27.3136V28H21.9566V27.3136H22.643ZM22.643 26.6272V27.3136H21.9566V26.6272H22.643ZM22.643 25.9409V26.6272H21.9566V25.9409H22.643ZM22.643 25.2545V25.9409H21.9566V25.2545H22.643ZM22.643 24.5681V25.2545H21.9566V24.5681H22.643ZM22.643 23.8817V24.5681H21.9566V23.8817H22.643ZM22.643 23.1954V23.8817H21.9566V23.1954H22.643ZM22.643 22.509V23.1954H21.9566V22.509H22.643ZM22.643 21.8226V22.509H21.9566V21.8226H22.643ZM22.643 21.1362V21.8226H21.9566V21.1362H22.643ZM22.643 20.4499V21.1362H21.9566V20.4499H22.643ZM22.643 19.7635V20.4499H21.9566V19.7635H22.643ZM22.643 19.0771V19.7635H21.9566V19.0771H22.643ZM22.643 18.3907V19.0771H21.9566V18.3907H22.643ZM22.643 17.7044V18.3907H21.9566V17.7044H22.643ZM23.3294 17.7044V18.3907H22.643V17.7044H23.3294ZM23.3294 18.3907V19.0771H22.643V18.3907H23.3294ZM23.3294 19.0771V19.7635H22.643V19.0771H23.3294ZM23.3294 19.7635V20.4499H22.643V19.7635H23.3294ZM23.3294 20.4499V21.1362H22.643V20.4499H23.3294ZM23.3294 21.1362V21.8226H22.643V21.1362H23.3294ZM23.3294 21.8226V22.509H22.643V21.8226H23.3294ZM24.0158 22.509V23.1954H23.3294V22.509H24.0158ZM24.0158 23.1954V23.8817H23.3294V23.1954H24.0158ZM24.0158 23.8817V24.5681H23.3294V23.8817H24.0158ZM24.0158 24.5681V25.2545H23.3294V24.5681H24.0158ZM24.0158 25.2545V25.9409H23.3294V25.2545H24.0158ZM24.0158 25.9409V26.6272H23.3294V25.9409H24.0158ZM24.0158 26.6272V27.3136H23.3294V26.6272H24.0158ZM24.0158 27.3136V28H23.3294V27.3136H24.0158ZM24.7021 27.3136V28H24.0158V27.3136H24.7021ZM25.3885 27.3136V28H24.7021V27.3136H25.3885ZM25.3885 26.6272V27.3136H24.7021V26.6272H25.3885ZM25.3885 25.9409V26.6272H24.7021V25.9409H25.3885ZM25.3885 25.2545V25.9409H24.7021V25.2545H25.3885ZM25.3885 24.5681V25.2545H24.7021V24.5681H25.3885ZM25.3885 23.8817V24.5681H24.7021V23.8817H25.3885ZM25.3885 23.1954V23.8817H24.7021V23.1954H25.3885ZM25.3885 22.509V23.1954H24.7021V22.509H25.3885ZM24.7021 22.509V23.1954H24.0158V22.509H24.7021ZM24.7021 21.8226V22.509H24.0158V21.8226H24.7021ZM24.7021 23.1954V23.8817H24.0158V23.1954H24.7021ZM24.7021 23.8817V24.5681H24.0158V23.8817H24.7021ZM24.7021 24.5681V25.2545H24.0158V24.5681H24.7021ZM24.7021 25.2545V25.9409H24.0158V25.2545H24.7021ZM24.7021 25.9409V26.6272H24.0158V25.9409H24.7021ZM24.7021 26.6272V27.3136H24.0158V26.6272H24.7021ZM23.3294 27.3136V28H22.643V27.3136H23.3294ZM23.3294 26.6272V27.3136H22.643V26.6272H23.3294ZM23.3294 25.9409V26.6272H22.643V25.9409H23.3294ZM23.3294 25.2545V25.9409H22.643V25.2545H23.3294ZM23.3294 24.5681V25.2545H22.643V24.5681H23.3294ZM23.3294 23.8817V24.5681H22.643V23.8817H23.3294ZM23.3294 23.1954V23.8817H22.643V23.1954H23.3294ZM23.3294 22.509V23.1954H22.643V22.509H23.3294ZM22.643 14.9589V15.6452H21.9566V14.9589H22.643ZM22.643 15.6452V16.3316H21.9566V15.6452H22.643ZM22.643 16.3316V17.018H21.9566V16.3316H22.643ZM22.643 17.018V17.7044H21.9566V17.018H22.643ZM24.7021 15.6452V16.3316H24.0158V15.6452H24.7021ZM24.7021 16.3316V17.018H24.0158V16.3316H24.7021ZM24.7021 17.018V17.7044H24.0158V17.018H24.7021ZM24.7021 17.7044V18.3907H24.0158V17.7044H24.7021ZM24.7021 18.3907V19.0771H24.0158V18.3907H24.7021ZM24.7021 19.0771V19.7635H24.0158V19.0771H24.7021ZM24.7021 19.7635V20.4499H24.0158V19.7635H24.7021ZM25.3885 20.4499V21.1362H24.7021V20.4499H25.3885ZM25.3885 21.1362V21.8226H24.7021V21.1362H25.3885ZM25.3885 21.8226V22.509H24.7021V21.8226H25.3885ZM25.3885 19.7635V20.4499H24.7021V19.7635H25.3885ZM25.3885 19.0771V19.7635H24.7021V19.0771H25.3885ZM25.3885 18.3907V19.0771H24.7021V18.3907H25.3885ZM25.3885 17.7044V18.3907H24.7021V17.7044H25.3885ZM25.3885 17.018V17.7044H24.7021V17.018H25.3885ZM25.3885 16.3316V17.018H24.7021V16.3316H25.3885ZM25.3885 15.6452V16.3316H24.7021V15.6452H25.3885ZM25.3885 14.9589V15.6452H24.7021V14.9589H25.3885ZM24.7021 14.9589V15.6452H24.0158V14.9589H24.7021ZM24.0158 14.9589V15.6452H23.3294V14.9589H24.0158ZM24.0158 15.6452V16.3316H23.3294V15.6452H24.0158ZM23.3294 16.3316V17.018H22.643V16.3316H23.3294ZM23.3294 17.018V17.7044H22.643V17.018H23.3294ZM23.3294 15.6452V16.3316H22.643V15.6452H23.3294ZM23.3294 14.9589V15.6452H22.643V14.9589H23.3294ZM24.0158 16.3316V17.018H23.3294V16.3316H24.0158ZM24.0158 17.018V17.7044H23.3294V17.018H24.0158ZM24.0158 17.7044V18.3907H23.3294V17.7044H24.0158ZM24.0158 18.3907V19.0771H23.3294V18.3907H24.0158ZM24.0158 19.0771V19.7635H23.3294V19.0771H24.0158ZM24.0158 19.7635V20.4499H23.3294V19.7635H24.0158ZM24.0158 20.4499V21.1362H23.3294V20.4499H24.0158ZM24.0158 21.1362V21.8226H23.3294V21.1362H24.0158ZM24.0158 21.8226V22.509H23.3294V21.8226H24.0158ZM24.7021 21.1362V21.8226H24.0158V21.1362H24.7021ZM24.7021 20.4499V21.1362H24.0158V20.4499H24.7021ZM30.1931 27.3136V28H29.5068V27.3136H30.1931ZM30.8795 27.3136V28H30.1931V27.3136H30.8795ZM31.5659 27.3136V28H30.8795V27.3136H31.5659ZM32.2523 27.3136V28H31.5659V27.3136H32.2523ZM32.9386 26.6272V27.3136H32.2523V26.6272H32.9386ZM32.9386 25.9409V26.6272H32.2523V25.9409H32.9386ZM32.9386 27.3136V28H32.2523V27.3136H32.9386ZM32.2523 26.6272V27.3136H31.5659V26.6272H32.2523ZM31.5659 26.6272V27.3136H30.8795V26.6272H31.5659ZM30.8795 26.6272V27.3136H30.1931V26.6272H30.8795ZM30.1931 26.6272V27.3136H29.5068V26.6272H30.1931ZM30.1931 25.9409V26.6272H29.5068V25.9409H30.1931ZM30.1931 25.2545V25.9409H29.5068V25.2545H30.1931ZM30.8795 25.2545V25.9409H30.1931V25.2545H30.8795ZM31.5659 25.2545V25.9409H30.8795V25.2545H31.5659ZM32.2523 25.2545V25.9409H31.5659V25.2545H32.2523ZM32.9386 25.2545V25.9409H32.2523V25.2545H32.9386ZM32.2523 25.9409V26.6272H31.5659V25.9409H32.2523ZM31.5659 25.9409V26.6272H30.8795V25.9409H31.5659ZM30.8795 25.9409V26.6272H30.1931V25.9409H30.8795ZM32.9386 17.7044V18.3907H32.2523V17.7044H32.9386ZM32.2523 17.7044V18.3907H31.5659V17.7044H32.2523ZM30.8795 17.7044V18.3907H30.1931V17.7044H30.8795ZM30.8795 18.3907V19.0771H30.1931V18.3907H30.8795ZM30.8795 19.0771V19.7635H30.1931V19.0771H30.8795ZM30.1931 19.7635V20.4499H29.5068V19.7635H30.1931ZM30.1931 20.4499V21.1362H29.5068V20.4499H30.1931ZM30.1931 21.1362V21.8226H29.5068V21.1362H30.1931ZM30.1931 21.8226V22.509H29.5068V21.8226H30.1931ZM30.1931 22.509V23.1954H29.5068V22.509H30.1931ZM30.1931 23.1954V23.8817H29.5068V23.1954H30.1931ZM30.1931 23.8817V24.5681H29.5068V23.8817H30.1931ZM30.1931 24.5681V25.2545H29.5068V24.5681H30.1931ZM30.8795 24.5681V25.2545H30.1931V24.5681H30.8795ZM31.5659 24.5681V25.2545H30.8795V24.5681H31.5659ZM32.2523 24.5681V25.2545H31.5659V24.5681H32.2523ZM32.9386 24.5681V25.2545H32.2523V24.5681H32.9386ZM32.9386 23.8817V24.5681H32.2523V23.8817H32.9386ZM32.9386 22.509V23.1954H32.2523V22.509H32.9386ZM32.9386 21.8226V22.509H32.2523V21.8226H32.9386ZM32.9386 21.1362V21.8226H32.2523V21.1362H32.9386ZM32.9386 20.4499V21.1362H32.2523V20.4499H32.9386ZM32.9386 19.7635V20.4499H32.2523V19.7635H32.9386ZM32.9386 19.0771V19.7635H32.2523V19.0771H32.9386ZM32.9386 18.3907V19.0771H32.2523V18.3907H32.9386ZM32.2523 21.1362V21.8226H31.5659V21.1362H32.2523ZM32.2523 22.509V23.1954H31.5659V22.509H32.2523ZM32.2523 23.1954V23.8817H31.5659V23.1954H32.2523ZM32.2523 23.8817V24.5681H31.5659V23.8817H32.2523ZM32.9386 23.1954V23.8817H32.2523V23.1954H32.9386ZM32.2523 19.7635V20.4499H31.5659V19.7635H32.2523ZM31.5659 19.7635V20.4499H30.8795V19.7635H31.5659ZM30.8795 19.7635V20.4499H30.1931V19.7635H30.8795ZM30.8795 20.4499V21.1362H30.1931V20.4499H30.8795ZM30.8795 21.1362V21.8226H30.1931V21.1362H30.8795ZM30.8795 21.8226V22.509H30.1931V21.8226H30.8795ZM30.8795 22.509V23.1954H30.1931V22.509H30.8795ZM30.8795 23.1954V23.8817H30.1931V23.1954H30.8795ZM30.8795 23.8817V24.5681H30.1931V23.8817H30.8795ZM31.5659 23.8817V24.5681H30.8795V23.8817H31.5659ZM31.5659 23.1954V23.8817H30.8795V23.1954H31.5659ZM31.5659 22.509V23.1954H30.8795V22.509H31.5659ZM31.5659 21.8226V22.509H30.8795V21.8226H31.5659ZM31.5659 21.1362V21.8226H30.8795V21.1362H31.5659ZM31.5659 20.4499V21.1362H30.8795V20.4499H31.5659ZM32.2523 20.4499V21.1362H31.5659V20.4499H32.2523ZM32.2523 21.8226V22.509H31.5659V21.8226H32.2523ZM32.2523 19.0771V19.7635H31.5659V19.0771H32.2523ZM32.2523 18.3907V19.0771H31.5659V18.3907H32.2523ZM31.5659 18.3907V19.0771H30.8795V18.3907H31.5659ZM31.5659 19.0771V19.7635H30.8795V19.0771H31.5659ZM30.1931 19.0771V19.7635H29.5068V19.0771H30.1931ZM30.1931 18.3907V19.0771H29.5068V18.3907H30.1931ZM30.1931 17.7044V18.3907H29.5068V17.7044H30.1931ZM31.5659 17.7044V18.3907H30.8795V17.7044H31.5659ZM30.1931 14.9589V15.6452H29.5068V14.9589H30.1931ZM30.1931 15.6452V16.3316H29.5068V15.6452H30.1931ZM30.8795 15.6452V16.3316H30.1931V15.6452H30.8795ZM31.5659 15.6452V16.3316H30.8795V15.6452H31.5659ZM31.5659 16.3316V17.018H30.8795V16.3316H31.5659ZM32.2523 16.3316V17.018H31.5659V16.3316H32.2523ZM32.2523 17.018V17.7044H31.5659V17.018H32.2523ZM31.5659 17.018V17.7044H30.8795V17.018H31.5659ZM30.8795 17.018V17.7044H30.1931V17.018H30.8795ZM30.8795 16.3316V17.018H30.1931V16.3316H30.8795ZM30.1931 16.3316V17.018H29.5068V16.3316H30.1931ZM29.5068 16.3316V17.018H28.8204V16.3316H29.5068ZM29.5068 17.018V17.7044H28.8204V17.018H29.5068ZM30.1931 17.018V17.7044H29.5068V17.018H30.1931ZM29.5068 17.7044V18.3907H28.8204V17.7044H29.5068ZM28.8204 17.018V17.7044H28.134V17.018H28.8204ZM28.8204 16.3316V17.018H28.134V16.3316H28.8204ZM28.8204 15.6452V16.3316H28.134V15.6452H28.8204ZM28.8204 14.9589V15.6452H28.134V14.9589H28.8204ZM29.5068 14.9589V15.6452H28.8204V14.9589H29.5068ZM29.5068 15.6452V16.3316H28.8204V15.6452H29.5068ZM28.134 14.9589V15.6452H27.4476V14.9589H28.134ZM28.134 15.6452V16.3316H27.4476V15.6452H28.134ZM28.134 16.3316V17.018H27.4476V16.3316H28.134ZM28.134 17.018V17.7044H27.4476V17.018H28.134ZM27.4476 14.9589V15.6452H26.7613V14.9589H27.4476ZM27.4476 15.6452V16.3316H26.7613V15.6452H27.4476ZM26.7613 15.6452V16.3316H26.0749V15.6452H26.7613ZM26.7613 16.3316V17.018H26.0749V16.3316H26.7613ZM26.0749 16.3316V17.018H25.3885V16.3316H26.0749ZM26.0749 17.018V17.7044H25.3885V17.018H26.0749ZM26.7613 17.018V17.7044H26.0749V17.018H26.7613ZM27.4476 17.018V17.7044H26.7613V17.018H27.4476ZM27.4476 16.3316V17.018H26.7613V16.3316H27.4476ZM26.0749 17.7044V18.3907H25.3885V17.7044H26.0749ZM26.7613 14.9589V15.6452H26.0749V14.9589H26.7613ZM26.0749 15.6452V16.3316H25.3885V15.6452H26.0749ZM35.6969 27.3136V28H35.0105V27.3136H35.6969ZM35.6969 26.6272V27.3136H35.0105V26.6272H35.6969ZM35.6969 25.9409V26.6272H35.0105V25.9409H35.6969ZM35.6969 25.2545V25.9409H35.0105V25.2545H35.6969ZM35.6969 24.5681V25.2545H35.0105V24.5681H35.6969ZM35.6969 23.8817V24.5681H35.0105V23.8817H35.6969ZM35.6969 23.1954V23.8817H35.0105V23.1954H35.6969ZM35.6969 22.509V23.1954H35.0105V22.509H35.6969ZM35.6969 21.8226V22.509H35.0105V21.8226H35.6969ZM35.6969 21.1362V21.8226H35.0105V21.1362H35.6969ZM35.6969 20.4499V21.1362H35.0105V20.4499H35.6969ZM35.6969 19.7635V20.4499H35.0105V19.7635H35.6969ZM35.6969 19.0771V19.7635H35.0105V19.0771H35.6969ZM35.6969 18.3907V19.0771H35.0105V18.3907H35.6969ZM35.6969 17.7044V18.3907H35.0105V17.7044H35.6969ZM36.3833 17.7044V18.3907H35.6969V17.7044H36.3833ZM36.3833 18.3907V19.0771H35.6969V18.3907H36.3833ZM36.3833 19.0771V19.7635H35.6969V19.0771H36.3833ZM36.3833 19.7635V20.4499H35.6969V19.7635H36.3833ZM36.3833 20.4499V21.1362H35.6969V20.4499H36.3833ZM36.3833 21.1362V21.8226H35.6969V21.1362H36.3833ZM36.3833 21.8226V22.509H35.6969V21.8226H36.3833ZM37.0696 22.509V23.1954H36.3833V22.509H37.0696ZM37.0696 23.1954V23.8817H36.3833V23.1954H37.0696ZM37.0696 23.8817V24.5681H36.3833V23.8817H37.0696ZM37.0696 24.5681V25.2545H36.3833V24.5681H37.0696ZM37.0696 25.2545V25.9409H36.3833V25.2545H37.0696ZM37.0696 25.9409V26.6272H36.3833V25.9409H37.0696ZM37.0696 26.6272V27.3136H36.3833V26.6272H37.0696ZM37.0696 27.3136V28H36.3833V27.3136H37.0696ZM37.756 27.3136V28H37.0696V27.3136H37.756ZM38.4424 27.3136V28H37.756V27.3136H38.4424ZM38.4424 26.6272V27.3136H37.756V26.6272H38.4424ZM38.4424 25.9409V26.6272H37.756V25.9409H38.4424ZM38.4424 25.2545V25.9409H37.756V25.2545H38.4424ZM38.4424 24.5681V25.2545H37.756V24.5681H38.4424ZM38.4424 23.8817V24.5681H37.756V23.8817H38.4424ZM38.4424 23.1954V23.8817H37.756V23.1954H38.4424ZM38.4424 22.509V23.1954H37.756V22.509H38.4424ZM37.756 22.509V23.1954H37.0696V22.509H37.756ZM37.756 21.8226V22.509H37.0696V21.8226H37.756ZM37.756 23.1954V23.8817H37.0696V23.1954H37.756ZM37.756 23.8817V24.5681H37.0696V23.8817H37.756ZM37.756 24.5681V25.2545H37.0696V24.5681H37.756ZM37.756 25.2545V25.9409H37.0696V25.2545H37.756ZM37.756 25.9409V26.6272H37.0696V25.9409H37.756ZM37.756 26.6272V27.3136H37.0696V26.6272H37.756ZM36.3833 27.3136V28H35.6969V27.3136H36.3833ZM36.3833 26.6272V27.3136H35.6969V26.6272H36.3833ZM36.3833 25.9409V26.6272H35.6969V25.9409H36.3833ZM36.3833 25.2545V25.9409H35.6969V25.2545H36.3833ZM36.3833 24.5681V25.2545H35.6969V24.5681H36.3833ZM36.3833 23.8817V24.5681H35.6969V23.8817H36.3833ZM36.3833 23.1954V23.8817H35.6969V23.1954H36.3833ZM36.3833 22.509V23.1954H35.6969V22.509H36.3833ZM35.6969 10.8406V11.527H35.0105V10.8406H35.6969ZM35.6969 11.527V12.2134H35.0105V11.527H35.6969ZM35.6969 12.2134V12.8997H35.0105V12.2134H35.6969ZM35.6969 12.8997V13.5861H35.0105V12.8997H35.6969ZM35.6969 13.5861V14.2725H35.0105V13.5861H35.6969ZM35.6969 14.2725V14.9589H35.0105V14.2725H35.6969ZM35.6969 14.9589V15.6452H35.0105V14.9589H35.6969ZM35.6969 15.6452V16.3316H35.0105V15.6452H35.6969ZM35.6969 16.3316V17.018H35.0105V16.3316H35.6969ZM35.6969 17.018V17.7044H35.0105V17.018H35.6969ZM37.756 10.8406V11.527H37.0696V10.8406H37.756ZM37.756 11.527V12.2134H37.0696V11.527H37.756ZM37.756 12.2134V12.8997H37.0696V12.2134H37.756ZM37.756 12.8997V13.5861H37.0696V12.8997H37.756ZM37.756 13.5861V14.2725H37.0696V13.5861H37.756ZM37.756 14.2725V14.9589H37.0696V14.2725H37.756ZM37.756 15.6452V16.3316H37.0696V15.6452H37.756ZM37.756 16.3316V17.018H37.0696V16.3316H37.756ZM37.756 17.018V17.7044H37.0696V17.018H37.756ZM37.756 17.7044V18.3907H37.0696V17.7044H37.756ZM37.756 18.3907V19.0771H37.0696V18.3907H37.756ZM37.756 19.0771V19.7635H37.0696V19.0771H37.756ZM37.756 19.7635V20.4499H37.0696V19.7635H37.756ZM38.4424 20.4499V21.1362H37.756V20.4499H38.4424ZM38.4424 21.1362V21.8226H37.756V21.1362H38.4424ZM38.4424 21.8226V22.509H37.756V21.8226H38.4424ZM38.4424 19.7635V20.4499H37.756V19.7635H38.4424ZM38.4424 19.0771V19.7635H37.756V19.0771H38.4424ZM38.4424 18.3907V19.0771H37.756V18.3907H38.4424ZM38.4424 17.7044V18.3907H37.756V17.7044H38.4424ZM38.4424 17.018V17.7044H37.756V17.018H38.4424ZM38.4424 16.3316V17.018H37.756V16.3316H38.4424ZM38.4424 15.6452V16.3316H37.756V15.6452H38.4424ZM38.4424 14.9589V15.6452H37.756V14.9589H38.4424ZM38.4424 14.2725V14.9589H37.756V14.2725H38.4424ZM38.4424 13.5861V14.2725H37.756V13.5861H38.4424ZM37.756 14.9589V15.6452H37.0696V14.9589H37.756ZM38.4424 12.8997V13.5861H37.756V12.8997H38.4424ZM38.4424 12.2134V12.8997H37.756V12.2134H38.4424ZM38.4424 11.527V12.2134H37.756V11.527H38.4424ZM38.4424 10.8406V11.527H37.756V10.8406H38.4424ZM37.0696 10.8406V11.527H36.3833V10.8406H37.0696ZM36.3833 10.8406V11.527H35.6969V10.8406H36.3833ZM36.3833 11.527V12.2134H35.6969V11.527H36.3833ZM37.0696 11.527V12.2134H36.3833V11.527H37.0696ZM37.0696 12.2134V12.8997H36.3833V12.2134H37.0696ZM37.0696 12.8997V13.5861H36.3833V12.8997H37.0696ZM37.0696 13.5861V14.2725H36.3833V13.5861H37.0696ZM37.0696 14.2725V14.9589H36.3833V14.2725H37.0696ZM37.0696 14.9589V15.6452H36.3833V14.9589H37.0696ZM37.0696 15.6452V16.3316H36.3833V15.6452H37.0696ZM36.3833 16.3316V17.018H35.6969V16.3316H36.3833ZM36.3833 17.018V17.7044H35.6969V17.018H36.3833ZM36.3833 15.6452V16.3316H35.6969V15.6452H36.3833ZM36.3833 14.9589V15.6452H35.6969V14.9589H36.3833ZM36.3833 14.2725V14.9589H35.6969V14.2725H36.3833ZM36.3833 13.5861V14.2725H35.6969V13.5861H36.3833ZM36.3833 12.8997V13.5861H35.6969V12.8997H36.3833ZM36.3833 12.2134V12.8997H35.6969V12.2134H36.3833ZM37.0696 16.3316V17.018H36.3833V16.3316H37.0696ZM37.0696 17.018V17.7044H36.3833V17.018H37.0696ZM37.0696 17.7044V18.3907H36.3833V17.7044H37.0696ZM37.0696 18.3907V19.0771H36.3833V18.3907H37.0696ZM37.0696 19.0771V19.7635H36.3833V19.0771H37.0696ZM37.0696 19.7635V20.4499H36.3833V19.7635H37.0696ZM37.0696 20.4499V21.1362H36.3833V20.4499H37.0696ZM37.0696 21.1362V21.8226H36.3833V21.1362H37.0696ZM37.0696 21.8226V22.509H36.3833V21.8226H37.0696ZM37.756 21.1362V21.8226H37.0696V21.1362H37.756ZM37.756 20.4499V21.1362H37.0696V20.4499H37.756ZM41.8743 15.6452V16.3316H41.1879V15.6452H41.8743ZM41.8743 14.9589V15.6452H41.1879V14.9589H41.8743ZM42.5606 14.9589V15.6452H41.8743V14.9589H42.5606ZM43.247 14.9589V15.6452H42.5606V14.9589H43.247ZM43.9334 14.9589V15.6452H43.247V14.9589H43.9334ZM44.6198 14.9589V15.6452H43.9334V14.9589H44.6198ZM44.6198 15.6452V16.3316H43.9334V15.6452H44.6198ZM44.6198 16.3316V17.018H43.9334V16.3316H44.6198ZM44.6198 17.018V17.7044H43.9334V17.018H44.6198ZM44.6198 17.7044V18.3907H43.9334V17.7044H44.6198ZM43.9334 17.7044V18.3907H43.247V17.7044H43.9334ZM43.9334 18.3907V19.0771H43.247V18.3907H43.9334ZM43.247 18.3907V19.0771H42.5606V18.3907H43.247ZM43.247 19.0771V19.7635H42.5606V19.0771H43.247ZM42.5606 19.0771V19.7635H41.8743V19.0771H42.5606ZM42.5606 19.7635V20.4499H41.8743V19.7635H42.5606ZM41.8743 19.7635V20.4499H41.1879V19.7635H41.8743ZM41.8743 20.4499V21.1362H41.1879V20.4499H41.8743ZM41.8743 21.1362V21.8226H41.1879V21.1362H41.8743ZM42.5606 21.1362V21.8226H41.8743V21.1362H42.5606ZM42.5606 21.8226V22.509H41.8743V21.8226H42.5606ZM43.247 21.8226V22.509H42.5606V21.8226H43.247ZM43.247 22.509V23.1954H42.5606V22.509H43.247ZM43.9334 22.509V23.1954H43.247V22.509H43.9334ZM43.9334 23.1954V23.8817H43.247V23.1954H43.9334ZM44.6198 23.1954V23.8817H43.9334V23.1954H44.6198ZM44.6198 23.8817V24.5681H43.9334V23.8817H44.6198ZM44.6198 24.5681V25.2545H43.9334V24.5681H44.6198ZM44.6198 25.2545V25.9409H43.9334V25.2545H44.6198ZM44.6198 25.9409V26.6272H43.9334V25.9409H44.6198ZM44.6198 26.6272V27.3136H43.9334V26.6272H44.6198ZM44.6198 27.3136V28H43.9334V27.3136H44.6198ZM41.8743 16.3316V17.018H41.1879V16.3316H41.8743ZM41.8743 17.018V17.7044H41.1879V17.018H41.8743ZM41.8743 17.7044V18.3907H41.1879V17.7044H41.8743ZM41.1879 17.7044V18.3907H40.5015V17.7044H41.1879ZM41.8743 18.3907V19.0771H41.1879V18.3907H41.8743ZM41.1879 18.3907V19.0771H40.5015V18.3907H41.1879ZM41.1879 19.0771V19.7635H40.5015V19.0771H41.1879ZM40.5015 18.3907V19.0771H39.8151V18.3907H40.5015ZM40.5015 19.0771V19.7635H39.8151V19.0771H40.5015ZM41.1879 19.7635V20.4499H40.5015V19.7635H41.1879ZM41.8743 19.0771V19.7635H41.1879V19.0771H41.8743ZM42.5606 18.3907V19.0771H41.8743V18.3907H42.5606ZM43.247 17.7044V18.3907H42.5606V17.7044H43.247ZM43.9334 17.018V17.7044H43.247V17.018H43.9334ZM43.9334 16.3316V17.018H43.247V16.3316H43.9334ZM43.9334 15.6452V16.3316H43.247V15.6452H43.9334ZM43.247 15.6452V16.3316H42.5606V15.6452H43.247ZM42.5606 16.3316V17.018H41.8743V16.3316H42.5606ZM42.5606 17.018V17.7044H41.8743V17.018H42.5606ZM42.5606 17.7044V18.3907H41.8743V17.7044H42.5606ZM43.247 17.018V17.7044H42.5606V17.018H43.247ZM43.247 16.3316V17.018H42.5606V16.3316H43.247ZM42.5606 15.6452V16.3316H41.8743V15.6452H42.5606ZM39.8151 19.0771V19.7635H39.1288V19.0771H39.8151ZM39.1288 19.0771V19.7635H38.4424V19.0771H39.1288ZM39.1288 19.7635V20.4499H38.4424V19.7635H39.1288ZM39.1288 20.4499V21.1362H38.4424V20.4499H39.1288ZM39.1288 21.1362V21.8226H38.4424V21.1362H39.1288ZM39.8151 21.1362V21.8226H39.1288V21.1362H39.8151ZM39.8151 21.8226V22.509H39.1288V21.8226H39.8151ZM39.1288 21.8226V22.509H38.4424V21.8226H39.1288ZM40.5015 21.8226V22.509H39.8151V21.8226H40.5015ZM40.5015 22.509V23.1954H39.8151V22.509H40.5015ZM41.1879 22.509V23.1954H40.5015V22.509H41.1879ZM41.1879 23.1954V23.8817H40.5015V23.1954H41.1879ZM41.8743 23.1954V23.8817H41.1879V23.1954H41.8743ZM41.8743 23.8817V24.5681H41.1879V23.8817H41.8743ZM42.5606 24.5681V25.2545H41.8743V24.5681H42.5606ZM42.5606 25.2545V25.9409H41.8743V25.2545H42.5606ZM42.5606 25.9409V26.6272H41.8743V25.9409H42.5606ZM41.8743 25.9409V26.6272H41.1879V25.9409H41.8743ZM41.8743 25.2545V25.9409H41.1879V25.2545H41.8743ZM41.8743 24.5681V25.2545H41.1879V24.5681H41.8743ZM41.8743 26.6272V27.3136H41.1879V26.6272H41.8743ZM41.8743 27.3136V28H41.1879V27.3136H41.8743ZM42.5606 27.3136V28H41.8743V27.3136H42.5606ZM43.247 27.3136V28H42.5606V27.3136H43.247ZM43.9334 27.3136V28H43.247V27.3136H43.9334ZM43.9334 26.6272V27.3136H43.247V26.6272H43.9334ZM43.247 26.6272V27.3136H42.5606V26.6272H43.247ZM42.5606 26.6272V27.3136H41.8743V26.6272H42.5606ZM43.247 25.9409V26.6272H42.5606V25.9409H43.247ZM43.9334 25.9409V26.6272H43.247V25.9409H43.9334ZM43.9334 25.2545V25.9409H43.247V25.2545H43.9334ZM43.9334 24.5681V25.2545H43.247V24.5681H43.9334ZM43.9334 23.8817V24.5681H43.247V23.8817H43.9334ZM43.247 23.8817V24.5681H42.5606V23.8817H43.247ZM43.247 24.5681V25.2545H42.5606V24.5681H43.247ZM43.247 25.2545V25.9409H42.5606V25.2545H43.247ZM43.247 23.1954V23.8817H42.5606V23.1954H43.247ZM42.5606 23.1954V23.8817H41.8743V23.1954H42.5606ZM42.5606 22.509V23.1954H41.8743V22.509H42.5606ZM41.8743 22.509V23.1954H41.1879V22.509H41.8743ZM41.8743 21.8226V22.509H41.1879V21.8226H41.8743ZM41.1879 21.8226V22.509H40.5015V21.8226H41.1879ZM41.1879 21.1362V21.8226H40.5015V21.1362H41.1879ZM41.1879 20.4499V21.1362H40.5015V20.4499H41.1879ZM40.5015 20.4499V21.1362H39.8151V20.4499H40.5015ZM40.5015 19.7635V20.4499H39.8151V19.7635H40.5015ZM39.8151 19.7635V20.4499H39.1288V19.7635H39.8151ZM39.8151 20.4499V21.1362H39.1288V20.4499H39.8151ZM40.5015 21.1362V21.8226H39.8151V21.1362H40.5015ZM42.5606 23.8817V24.5681H41.8743V23.8817H42.5606ZM57.673 14.9589V15.6452H56.9866V14.9589H57.673ZM56.9866 14.9589V15.6452H56.3002V14.9589H56.9866ZM56.3002 14.9589V15.6452H55.6138V14.9589H56.3002ZM55.6138 14.9589V15.6452H54.9275V14.9589H55.6138ZM54.9275 14.9589V15.6452H54.2411V14.9589H54.9275ZM54.9275 15.6452V16.3316H54.2411V15.6452H54.9275ZM54.9275 16.3316V17.018H54.2411V16.3316H54.9275ZM54.9275 17.018V17.7044H54.2411V17.018H54.9275ZM54.9275 17.7044V18.3907H54.2411V17.7044H54.9275ZM54.9275 18.3907V19.0771H54.2411V18.3907H54.9275ZM54.9275 19.0771V19.7635H54.2411V19.0771H54.9275ZM54.9275 19.7635V20.4499H54.2411V19.7635H54.9275ZM54.9275 20.4499V21.1362H54.2411V20.4499H54.9275ZM54.9275 21.1362V21.8226H54.2411V21.1362H54.9275ZM54.9275 21.8226V22.509H54.2411V21.8226H54.9275ZM54.9275 22.509V23.1954H54.2411V22.509H54.9275ZM54.9275 23.1954V23.8817H54.2411V23.1954H54.9275ZM54.9275 23.8817V24.5681H54.2411V23.8817H54.9275ZM54.9275 24.5681V25.2545H54.2411V24.5681H54.9275ZM55.6138 25.2545V25.9409H54.9275V25.2545H55.6138ZM56.3002 25.2545V25.9409H55.6138V25.2545H56.3002ZM56.9866 25.2545V25.9409H56.3002V25.2545H56.9866ZM57.673 25.2545V25.9409H56.9866V25.2545H57.673ZM57.673 24.5681V25.2545H56.9866V24.5681H57.673ZM57.673 23.8817V24.5681H56.9866V23.8817H57.673ZM57.673 23.1954V23.8817H56.9866V23.1954H57.673ZM57.673 22.509V23.1954H56.9866V22.509H57.673ZM57.673 21.8226V22.509H56.9866V21.8226H57.673ZM57.673 21.1362V21.8226H56.9866V21.1362H57.673ZM57.673 20.4499V21.1362H56.9866V20.4499H57.673ZM57.673 19.7635V20.4499H56.9866V19.7635H57.673ZM57.673 19.0771V19.7635H56.9866V19.0771H57.673ZM57.673 18.3907V19.0771H56.9866V18.3907H57.673ZM57.673 17.7044V18.3907H56.9866V17.7044H57.673ZM57.673 17.018V17.7044H56.9866V17.018H57.673ZM56.9866 16.3316V17.018H56.3002V16.3316H56.9866ZM56.9866 15.6452V16.3316H56.3002V15.6452H56.9866ZM57.673 15.6452V16.3316H56.9866V15.6452H57.673ZM57.673 16.3316V17.018H56.9866V16.3316H57.673ZM56.3002 16.3316V17.018H55.6138V16.3316H56.3002ZM55.6138 16.3316V17.018H54.9275V16.3316H55.6138ZM55.6138 15.6452V16.3316H54.9275V15.6452H55.6138ZM56.3002 15.6452V16.3316H55.6138V15.6452H56.3002ZM56.3002 17.018V17.7044H55.6138V17.018H56.3002ZM56.3002 17.7044V18.3907H55.6138V17.7044H56.3002ZM56.3002 18.3907V19.0771H55.6138V18.3907H56.3002ZM56.3002 19.0771V19.7635H55.6138V19.0771H56.3002ZM56.3002 19.7635V20.4499H55.6138V19.7635H56.3002ZM56.3002 20.4499V21.1362H55.6138V20.4499H56.3002ZM56.3002 21.1362V21.8226H55.6138V21.1362H56.3002ZM56.3002 21.8226V22.509H55.6138V21.8226H56.3002ZM56.3002 22.509V23.1954H55.6138V22.509H56.3002ZM55.6138 23.1954V23.8817H54.9275V23.1954H55.6138ZM55.6138 23.8817V24.5681H54.9275V23.8817H55.6138ZM55.6138 24.5681V25.2545H54.9275V24.5681H55.6138ZM56.3002 24.5681V25.2545H55.6138V24.5681H56.3002ZM56.3002 23.8817V24.5681H55.6138V23.8817H56.3002ZM56.3002 23.1954V23.8817H55.6138V23.1954H56.3002ZM55.6138 17.7044V18.3907H54.9275V17.7044H55.6138ZM55.6138 17.018V17.7044H54.9275V17.018H55.6138ZM55.6138 18.3907V19.0771H54.9275V18.3907H55.6138ZM55.6138 19.0771V19.7635H54.9275V19.0771H55.6138ZM55.6138 19.7635V20.4499H54.9275V19.7635H55.6138ZM55.6138 20.4499V21.1362H54.9275V20.4499H55.6138ZM55.6138 21.1362V21.8226H54.9275V21.1362H55.6138ZM55.6138 21.8226V22.509H54.9275V21.8226H55.6138ZM55.6138 22.509V23.1954H54.9275V22.509H55.6138ZM56.9866 24.5681V25.2545H56.3002V24.5681H56.9866ZM56.9866 23.8817V24.5681H56.3002V23.8817H56.9866ZM56.9866 23.1954V23.8817H56.3002V23.1954H56.9866ZM56.9866 22.509V23.1954H56.3002V22.509H56.9866ZM56.9866 21.8226V22.509H56.3002V21.8226H56.9866ZM56.9866 21.1362V21.8226H56.3002V21.1362H56.9866ZM56.9866 20.4499V21.1362H56.3002V20.4499H56.9866ZM56.9866 19.7635V20.4499H56.3002V19.7635H56.9866ZM56.9866 19.0771V19.7635H56.3002V19.0771H56.9866ZM56.9866 18.3907V19.0771H56.3002V18.3907H56.9866ZM56.9866 17.7044V18.3907H56.3002V17.7044H56.9866ZM56.9866 17.018V17.7044H56.3002V17.018H56.9866ZM54.9275 25.2545V25.9409H54.2411V25.2545H54.9275ZM54.9275 25.9409V26.6272H54.2411V25.9409H54.9275ZM54.9275 26.6272V27.3136H54.2411V26.6272H54.9275ZM54.9275 27.3136V28H54.2411V27.3136H54.9275ZM54.9275 28V28.6864H54.2411V28H54.9275ZM55.6138 28V28.6864H54.9275V28H55.6138ZM56.3002 28V28.6864H55.6138V28H56.3002ZM56.9866 28V28.6864H56.3002V28H56.9866ZM57.673 28V28.6864H56.9866V28H57.673ZM57.673 28.6864V29.3728H56.9866V28.6864H57.673ZM56.9866 28.6864V29.3728H56.3002V28.6864H56.9866ZM56.3002 28.6864V29.3728H55.6138V28.6864H56.3002ZM55.6138 28.6864V29.3728H54.9275V28.6864H55.6138ZM54.9275 28.6864V29.3728H54.2411V28.6864H54.9275ZM54.2411 28.6864V29.3728H53.5547V28.6864H54.2411ZM54.9275 29.3728V30.0591H54.2411V29.3728H54.9275ZM55.6138 29.3728V30.0591H54.9275V29.3728H55.6138ZM56.3002 29.3728V30.0591H55.6138V29.3728H56.3002ZM56.9866 29.3728V30.0591H56.3002V29.3728H56.9866ZM56.9866 30.0591V30.7455H56.3002V30.0591H56.9866ZM56.3002 30.0591V30.7455H55.6138V30.0591H56.3002ZM56.3002 30.7455V31.4319H55.6138V30.7455H56.3002ZM55.6138 30.7455V31.4319H54.9275V30.7455H55.6138ZM54.9275 30.7455V31.4319H54.2411V30.7455H54.9275ZM54.9275 31.4319V32.1183H54.2411V31.4319H54.9275ZM54.2411 31.4319V32.1183H53.5547V31.4319H54.2411ZM53.5547 31.4319V32.1183H52.8683V31.4319H53.5547ZM52.8683 31.4319V32.1183H52.182V31.4319H52.8683ZM52.182 31.4319V32.1183H51.4956V31.4319H52.182ZM51.4956 31.4319V32.1183H50.8092V31.4319H51.4956ZM50.8092 31.4319V32.1183H50.1228V31.4319H50.8092ZM50.1228 31.4319V32.1183H49.4365V31.4319H50.1228ZM50.1228 30.7455V31.4319H49.4365V30.7455H50.1228ZM49.4365 30.7455V31.4319H48.7501V30.7455H49.4365ZM48.7501 30.7455V31.4319H48.0637V30.7455H48.7501ZM48.7501 30.0591V30.7455H48.0637V30.0591H48.7501ZM48.0637 30.0591V30.7455H47.3773V30.0591H48.0637ZM48.0637 29.3728V30.0591H47.3773V29.3728H48.0637ZM48.0637 28.6864V29.3728H47.3773V28.6864H48.0637ZM47.3773 28.6864V29.3728H46.691V28.6864H47.3773ZM47.3773 28V28.6864H46.691V28H47.3773ZM48.0637 28V28.6864H47.3773V28H48.0637ZM48.7501 28V28.6864H48.0637V28H48.7501ZM49.4365 28V28.6864H48.7501V28H49.4365ZM50.1228 28V28.6864H49.4365V28H50.1228ZM50.1228 28.6864V29.3728H49.4365V28.6864H50.1228ZM50.8092 28.6864V29.3728H50.1228V28.6864H50.8092ZM50.8092 29.3728V30.0591H50.1228V29.3728H50.8092ZM51.4956 29.3728V30.0591H50.8092V29.3728H51.4956ZM52.182 29.3728V30.0591H51.4956V29.3728H52.182ZM52.8683 29.3728V30.0591H52.182V29.3728H52.8683ZM53.5547 29.3728V30.0591H52.8683V29.3728H53.5547ZM54.2411 29.3728V30.0591H53.5547V29.3728H54.2411ZM55.6138 30.0591V30.7455H54.9275V30.0591H55.6138ZM54.9275 30.0591V30.7455H54.2411V30.0591H54.9275ZM54.2411 30.0591V30.7455H53.5547V30.0591H54.2411ZM53.5547 30.0591V30.7455H52.8683V30.0591H53.5547ZM52.8683 30.0591V30.7455H52.182V30.0591H52.8683ZM52.182 30.0591V30.7455H51.4956V30.0591H52.182ZM52.182 30.7455V31.4319H51.4956V30.7455H52.182ZM51.4956 30.7455V31.4319H50.8092V30.7455H51.4956ZM50.8092 30.7455V31.4319H50.1228V30.7455H50.8092ZM50.1228 30.0591V30.7455H49.4365V30.0591H50.1228ZM50.8092 30.0591V30.7455H50.1228V30.0591H50.8092ZM51.4956 30.0591V30.7455H50.8092V30.0591H51.4956ZM54.2411 30.7455V31.4319H53.5547V30.7455H54.2411ZM53.5547 30.7455V31.4319H52.8683V30.7455H53.5547ZM52.8683 30.7455V31.4319H52.182V30.7455H52.8683ZM49.4365 30.0591V30.7455H48.7501V30.0591H49.4365ZM49.4365 29.3728V30.0591H48.7501V29.3728H49.4365ZM50.1228 29.3728V30.0591H49.4365V29.3728H50.1228ZM48.7501 29.3728V30.0591H48.0637V29.3728H48.7501ZM48.7501 28.6864V29.3728H48.0637V28.6864H48.7501ZM49.4365 28.6864V29.3728H48.7501V28.6864H49.4365ZM55.6138 25.9409V26.6272H54.9275V25.9409H55.6138ZM56.3002 25.9409V26.6272H55.6138V25.9409H56.3002ZM56.9866 25.9409V26.6272H56.3002V25.9409H56.9866ZM57.673 25.9409V26.6272H56.9866V25.9409H57.673ZM57.673 26.6272V27.3136H56.9866V26.6272H57.673ZM57.673 27.3136V28H56.9866V27.3136H57.673ZM56.9866 27.3136V28H56.3002V27.3136H56.9866ZM56.3002 27.3136V28H55.6138V27.3136H56.3002ZM55.6138 27.3136V28H54.9275V27.3136H55.6138ZM55.6138 26.6272V27.3136H54.9275V26.6272H55.6138ZM56.3002 26.6272V27.3136H55.6138V26.6272H56.3002ZM56.9866 26.6272V27.3136H56.3002V26.6272H56.9866ZM51.4956 23.8817V24.5681H50.8092V23.8817H51.4956ZM52.182 23.8817V24.5681H51.4956V23.8817H52.182ZM52.8683 23.8817V24.5681H52.182V23.8817H52.8683ZM53.5547 23.8817V24.5681H52.8683V23.8817H53.5547ZM54.2411 23.8817V24.5681H53.5547V23.8817H54.2411ZM54.2411 24.5681V25.2545H53.5547V24.5681H54.2411ZM53.5547 25.9409V26.6272H52.8683V25.9409H53.5547ZM52.8683 25.9409V26.6272H52.182V25.9409H52.8683ZM52.182 25.9409V26.6272H51.4956V25.9409H52.182ZM51.4956 25.9409V26.6272H50.8092V25.9409H51.4956ZM50.8092 25.9409V26.6272H50.1228V25.9409H50.8092ZM50.8092 25.2545V25.9409H50.1228V25.2545H50.8092ZM50.8092 24.5681V25.2545H50.1228V24.5681H50.8092ZM51.4956 24.5681V25.2545H50.8092V24.5681H51.4956ZM52.182 24.5681V25.2545H51.4956V24.5681H52.182ZM52.182 25.2545V25.9409H51.4956V25.2545H52.182ZM51.4956 25.2545V25.9409H50.8092V25.2545H51.4956ZM52.8683 24.5681V25.2545H52.182V24.5681H52.8683ZM53.5547 24.5681V25.2545H52.8683V24.5681H53.5547ZM53.5547 25.2545V25.9409H52.8683V25.2545H53.5547ZM52.8683 25.2545V25.9409H52.182V25.2545H52.8683ZM54.2411 25.2545V25.9409H53.5547V25.2545H54.2411ZM50.1228 25.9409V26.6272H49.4365V25.9409H50.1228ZM50.1228 25.2545V25.9409H49.4365V25.2545H50.1228ZM49.4365 25.2545V25.9409H48.7501V25.2545H49.4365ZM48.7501 25.2545V25.9409H48.0637V25.2545H48.7501ZM48.7501 24.5681V25.2545H48.0637V24.5681H48.7501ZM48.0637 24.5681V25.2545H47.3773V24.5681H48.0637ZM48.0637 23.8817V24.5681H47.3773V23.8817H48.0637ZM48.0637 23.1954V23.8817H47.3773V23.1954H48.0637ZM48.7501 23.1954V23.8817H48.0637V23.1954H48.7501ZM47.3773 23.1954V23.8817H46.691V23.1954H47.3773ZM47.3773 22.509V23.1954H46.691V22.509H47.3773ZM48.0637 22.509V23.1954H47.3773V22.509H48.0637ZM50.1228 23.8817V24.5681H49.4365V23.8817H50.1228ZM50.8092 23.8817V24.5681H50.1228V23.8817H50.8092ZM50.8092 23.1954V23.8817H50.1228V23.1954H50.8092ZM50.1228 23.1954V23.8817H49.4365V23.1954H50.1228ZM49.4365 23.1954V23.8817H48.7501V23.1954H49.4365ZM49.4365 23.8817V24.5681H48.7501V23.8817H49.4365ZM49.4365 24.5681V25.2545H48.7501V24.5681H49.4365ZM50.1228 24.5681V25.2545H49.4365V24.5681H50.1228ZM48.7501 23.8817V24.5681H48.0637V23.8817H48.7501ZM49.4365 22.509V23.1954H48.7501V22.509H49.4365ZM50.1228 22.509V23.1954H49.4365V22.509H50.1228ZM50.1228 21.8226V22.509H49.4365V21.8226H50.1228ZM50.1228 21.1362V21.8226H49.4365V21.1362H50.1228ZM50.1228 20.4499V21.1362H49.4365V20.4499H50.1228ZM50.1228 19.7635V20.4499H49.4365V19.7635H50.1228ZM50.1228 19.0771V19.7635H49.4365V19.0771H50.1228ZM50.1228 18.3907V19.0771H49.4365V18.3907H50.1228ZM49.4365 18.3907V19.0771H48.7501V18.3907H49.4365ZM48.7501 18.3907V19.0771H48.0637V18.3907H48.7501ZM48.0637 18.3907V19.0771H47.3773V18.3907H48.0637ZM48.0637 17.7044V18.3907H47.3773V17.7044H48.0637ZM47.3773 17.7044V18.3907H46.691V17.7044H47.3773ZM47.3773 18.3907V19.0771H46.691V18.3907H47.3773ZM47.3773 19.0771V19.7635H46.691V19.0771H47.3773ZM47.3773 19.7635V20.4499H46.691V19.7635H47.3773ZM47.3773 20.4499V21.1362H46.691V20.4499H47.3773ZM47.3773 21.1362V21.8226H46.691V21.1362H47.3773ZM47.3773 21.8226V22.509H46.691V21.8226H47.3773ZM48.7501 22.509V23.1954H48.0637V22.509H48.7501ZM49.4365 21.8226V22.509H48.7501V21.8226H49.4365ZM49.4365 21.1362V21.8226H48.7501V21.1362H49.4365ZM49.4365 20.4499V21.1362H48.7501V20.4499H49.4365ZM49.4365 19.7635V20.4499H48.7501V19.7635H49.4365ZM49.4365 19.0771V19.7635H48.7501V19.0771H49.4365ZM48.7501 19.0771V19.7635H48.0637V19.0771H48.7501ZM48.0637 19.0771V19.7635H47.3773V19.0771H48.0637ZM48.0637 19.7635V20.4499H47.3773V19.7635H48.0637ZM48.0637 21.8226V22.509H47.3773V21.8226H48.0637ZM48.0637 21.1362V21.8226H47.3773V21.1362H48.0637ZM48.7501 21.1362V21.8226H48.0637V21.1362H48.7501ZM48.7501 20.4499V21.1362H48.0637V20.4499H48.7501ZM48.7501 19.7635V20.4499H48.0637V19.7635H48.7501ZM48.0637 20.4499V21.1362H47.3773V20.4499H48.0637ZM48.7501 21.8226V22.509H48.0637V21.8226H48.7501ZM53.5547 14.9589V15.6452H52.8683V14.9589H53.5547ZM52.8683 14.9589V15.6452H52.182V14.9589H52.8683ZM52.182 14.9589V15.6452H51.4956V14.9589H52.182ZM51.4956 14.9589V15.6452H50.8092V14.9589H51.4956ZM50.8092 14.9589V15.6452H50.1228V14.9589H50.8092ZM50.1228 14.9589V15.6452H49.4365V14.9589H50.1228ZM50.1228 15.6452V16.3316H49.4365V15.6452H50.1228ZM49.4365 15.6452V16.3316H48.7501V15.6452H49.4365ZM48.7501 15.6452V16.3316H48.0637V15.6452H48.7501ZM48.7501 16.3316V17.018H48.0637V16.3316H48.7501ZM48.0637 16.3316V17.018H47.3773V16.3316H48.0637ZM48.7501 17.018V17.7044H48.0637V17.018H48.7501ZM48.7501 17.7044V18.3907H48.0637V17.7044H48.7501ZM48.0637 17.018V17.7044H47.3773V17.018H48.0637ZM49.4365 17.018V17.7044H48.7501V17.018H49.4365ZM50.1228 17.018V17.7044H49.4365V17.018H50.1228ZM50.1228 17.7044V18.3907H49.4365V17.7044H50.1228ZM50.8092 17.7044V18.3907H50.1228V17.7044H50.8092ZM49.4365 17.7044V18.3907H48.7501V17.7044H49.4365ZM50.1228 16.3316V17.018H49.4365V16.3316H50.1228ZM49.4365 16.3316V17.018H48.7501V16.3316H49.4365ZM50.8092 16.3316V17.018H50.1228V16.3316H50.8092ZM50.8092 17.018V17.7044H50.1228V17.018H50.8092ZM51.4956 17.018V17.7044H50.8092V17.018H51.4956ZM51.4956 16.3316V17.018H50.8092V16.3316H51.4956ZM52.182 16.3316V17.018H51.4956V16.3316H52.182ZM52.8683 16.3316V17.018H52.182V16.3316H52.8683ZM53.5547 16.3316V17.018H52.8683V16.3316H53.5547ZM54.2411 16.3316V17.018H53.5547V16.3316H54.2411ZM54.2411 17.018V17.7044H53.5547V17.018H54.2411ZM53.5547 17.018V17.7044H52.8683V17.018H53.5547ZM52.8683 17.018V17.7044H52.182V17.018H52.8683ZM52.182 17.018V17.7044H51.4956V17.018H52.182ZM50.8092 15.6452V16.3316H50.1228V15.6452H50.8092ZM51.4956 15.6452V16.3316H50.8092V15.6452H51.4956ZM52.182 15.6452V16.3316H51.4956V15.6452H52.182ZM52.8683 15.6452V16.3316H52.182V15.6452H52.8683ZM53.5547 15.6452V16.3316H52.8683V15.6452H53.5547ZM54.2411 15.6452V16.3316H53.5547V15.6452H54.2411ZM54.2411 14.9589V15.6452H53.5547V14.9589H54.2411ZM54.2411 23.1954V23.8817H53.5547V23.1954H54.2411ZM67.9813 19.0771V19.7635H67.2949V19.0771H67.9813ZM68.6677 19.0771V19.7635H67.9813V19.0771H68.6677ZM69.3541 19.0771V19.7635H68.6677V19.0771H69.3541ZM70.0404 19.0771V19.7635H69.3541V19.0771H70.0404ZM70.7268 19.0771V19.7635H70.0404V19.0771H70.7268ZM70.7268 18.3907V19.0771H70.0404V18.3907H70.7268ZM70.7268 17.7044V18.3907H70.0404V17.7044H70.7268ZM70.0404 17.7044V18.3907H69.3541V17.7044H70.0404ZM69.3541 17.7044V18.3907H68.6677V17.7044H69.3541ZM68.6677 17.7044V18.3907H67.9813V17.7044H68.6677ZM68.6677 18.3907V19.0771H67.9813V18.3907H68.6677ZM67.9813 18.3907V19.0771H67.2949V18.3907H67.9813ZM69.3541 18.3907V19.0771H68.6677V18.3907H69.3541ZM70.0404 18.3907V19.0771H69.3541V18.3907H70.0404ZM67.9813 17.7044V18.3907H67.2949V17.7044H67.9813ZM67.2949 17.7044V18.3907H66.6086V17.7044H67.2949ZM67.2949 17.018V17.7044H66.6086V17.018H67.2949ZM67.9813 17.018V17.7044H67.2949V17.018H67.9813ZM68.6677 17.018V17.7044H67.9813V17.018H68.6677ZM69.3541 17.018V17.7044H68.6677V17.018H69.3541ZM70.0404 17.018V17.7044H69.3541V17.018H70.0404ZM70.0404 16.3316V17.018H69.3541V16.3316H70.0404ZM69.3541 16.3316V17.018H68.6677V16.3316H69.3541ZM68.6677 16.3316V17.018H67.9813V16.3316H68.6677ZM67.9813 16.3316V17.018H67.2949V16.3316H67.9813ZM67.2949 16.3316V17.018H66.6086V16.3316H67.2949ZM68.6677 15.6452V16.3316H67.9813V15.6452H68.6677ZM69.3541 15.6452V16.3316H68.6677V15.6452H69.3541ZM67.9813 15.6452V16.3316H67.2949V15.6452H67.9813ZM67.9813 14.9589V15.6452H67.2949V14.9589H67.9813ZM67.2949 14.9589V15.6452H66.6086V14.9589H67.2949ZM67.2949 15.6452V16.3316H66.6086V15.6452H67.2949ZM66.6086 15.6452V16.3316H65.9222V15.6452H66.6086ZM66.6086 14.9589V15.6452H65.9222V14.9589H66.6086ZM66.6086 16.3316V17.018H65.9222V16.3316H66.6086ZM65.9222 16.3316V17.018H65.2358V16.3316H65.9222ZM65.9222 17.018V17.7044H65.2358V17.018H65.9222ZM66.6086 17.018V17.7044H65.9222V17.018H66.6086ZM65.2358 17.018V17.7044H64.5494V17.018H65.2358ZM65.2358 16.3316V17.018H64.5494V16.3316H65.2358ZM65.2358 15.6452V16.3316H64.5494V15.6452H65.2358ZM65.2358 14.9589V15.6452H64.5494V14.9589H65.2358ZM65.9222 14.9589V15.6452H65.2358V14.9589H65.9222ZM65.9222 15.6452V16.3316H65.2358V15.6452H65.9222ZM64.5494 14.9589V15.6452H63.8631V14.9589H64.5494ZM63.8631 14.9589V15.6452H63.1767V14.9589H63.8631ZM63.1767 14.9589V15.6452H62.4903V14.9589H63.1767ZM63.1767 15.6452V16.3316H62.4903V15.6452H63.1767ZM63.1767 16.3316V17.018H62.4903V16.3316H63.1767ZM63.1767 17.018V17.7044H62.4903V17.018H63.1767ZM63.8631 17.018V17.7044H63.1767V17.018H63.8631ZM64.5494 17.018V17.7044H63.8631V17.018H64.5494ZM64.5494 16.3316V17.018H63.8631V16.3316H64.5494ZM64.5494 15.6452V16.3316H63.8631V15.6452H64.5494ZM63.8631 15.6452V16.3316H63.1767V15.6452H63.8631ZM63.8631 16.3316V17.018H63.1767V16.3316H63.8631ZM62.4903 16.3316V17.018H61.8039V16.3316H62.4903ZM62.4903 15.6452V16.3316H61.8039V15.6452H62.4903ZM61.8039 15.6452V16.3316H61.1176V15.6452H61.8039ZM61.8039 16.3316V17.018H61.1176V16.3316H61.8039ZM61.1176 16.3316V17.018H60.4312V16.3316H61.1176ZM61.1176 17.018V17.7044H60.4312V17.018H61.1176ZM61.1176 17.7044V18.3907H60.4312V17.7044H61.1176ZM61.8039 17.7044V18.3907H61.1176V17.7044H61.8039ZM61.8039 17.018V17.7044H61.1176V17.018H61.8039ZM62.4903 17.018V17.7044H61.8039V17.018H62.4903ZM62.4903 17.7044V18.3907H61.8039V17.7044H62.4903ZM63.1767 17.7044V18.3907H62.4903V17.7044H63.1767ZM63.8631 17.7044V18.3907H63.1767V17.7044H63.8631ZM60.4312 17.7044V18.3907H59.7448V17.7044H60.4312ZM60.4312 18.3907V19.0771H59.7448V18.3907H60.4312ZM60.4312 19.0771V19.7635H59.7448V19.0771H60.4312ZM60.4312 19.7635V20.4499H59.7448V19.7635H60.4312ZM60.4312 20.4499V21.1362H59.7448V20.4499H60.4312ZM60.4312 21.1362V21.8226H59.7448V21.1362H60.4312ZM60.4312 21.8226V22.509H59.7448V21.8226H60.4312ZM60.4312 22.509V23.1954H59.7448V22.509H60.4312ZM60.4312 23.1954V23.8817H59.7448V23.1954H60.4312ZM60.4312 23.8817V24.5681H59.7448V23.8817H60.4312ZM61.1176 23.8817V24.5681H60.4312V23.8817H61.1176ZM61.1176 24.5681V25.2545H60.4312V24.5681H61.1176ZM60.4312 24.5681V25.2545H59.7448V24.5681H60.4312ZM61.8039 24.5681V25.2545H61.1176V24.5681H61.8039ZM62.4903 24.5681V25.2545H61.8039V24.5681H62.4903ZM63.1767 24.5681V25.2545H62.4903V24.5681H63.1767ZM63.8631 24.5681V25.2545H63.1767V24.5681H63.8631ZM63.1767 23.8817V24.5681H62.4903V23.8817H63.1767ZM63.1767 23.1954V23.8817H62.4903V23.1954H63.1767ZM63.1767 22.509V23.1954H62.4903V22.509H63.1767ZM63.1767 21.8226V22.509H62.4903V21.8226H63.1767ZM63.1767 21.1362V21.8226H62.4903V21.1362H63.1767ZM63.1767 20.4499V21.1362H62.4903V20.4499H63.1767ZM63.1767 19.7635V20.4499H62.4903V19.7635H63.1767ZM63.1767 19.0771V19.7635H62.4903V19.0771H63.1767ZM63.1767 18.3907V19.0771H62.4903V18.3907H63.1767ZM62.4903 18.3907V19.0771H61.8039V18.3907H62.4903ZM61.8039 18.3907V19.0771H61.1176V18.3907H61.8039ZM61.1176 18.3907V19.0771H60.4312V18.3907H61.1176ZM61.1176 19.0771V19.7635H60.4312V19.0771H61.1176ZM61.1176 19.7635V20.4499H60.4312V19.7635H61.1176ZM61.1176 20.4499V21.1362H60.4312V20.4499H61.1176ZM61.1176 21.1362V21.8226H60.4312V21.1362H61.1176ZM61.1176 21.8226V22.509H60.4312V21.8226H61.1176ZM61.1176 22.509V23.1954H60.4312V22.509H61.1176ZM61.1176 23.1954V23.8817H60.4312V23.1954H61.1176ZM61.8039 23.8817V24.5681H61.1176V23.8817H61.8039ZM62.4903 23.8817V24.5681H61.8039V23.8817H62.4903ZM62.4903 23.1954V23.8817H61.8039V23.1954H62.4903ZM62.4903 22.509V23.1954H61.8039V22.509H62.4903ZM62.4903 21.8226V22.509H61.8039V21.8226H62.4903ZM62.4903 21.1362V21.8226H61.8039V21.1362H62.4903ZM61.8039 21.1362V21.8226H61.1176V21.1362H61.8039ZM61.8039 20.4499V21.1362H61.1176V20.4499H61.8039ZM61.8039 19.7635V20.4499H61.1176V19.7635H61.8039ZM61.8039 19.0771V19.7635H61.1176V19.0771H61.8039ZM62.4903 19.0771V19.7635H61.8039V19.0771H62.4903ZM62.4903 19.7635V20.4499H61.8039V19.7635H62.4903ZM62.4903 20.4499V21.1362H61.8039V20.4499H62.4903ZM61.8039 22.509V23.1954H61.1176V22.509H61.8039ZM61.8039 23.1954V23.8817H61.1176V23.1954H61.8039ZM61.8039 21.8226V22.509H61.1176V21.8226H61.8039ZM67.9813 23.1954V23.8817H67.2949V23.1954H67.9813ZM67.9813 23.8817V24.5681H67.2949V23.8817H67.9813ZM68.6677 23.8817V24.5681H67.9813V23.8817H68.6677ZM69.3541 23.8817V24.5681H68.6677V23.8817H69.3541ZM70.0404 23.8817V24.5681H69.3541V23.8817H70.0404ZM70.7268 23.8817V24.5681H70.0404V23.8817H70.7268ZM70.7268 23.1954V23.8817H70.0404V23.1954H70.7268ZM70.0404 23.1954V23.8817H69.3541V23.1954H70.0404ZM69.3541 23.1954V23.8817H68.6677V23.1954H69.3541ZM68.6677 23.1954V23.8817H67.9813V23.1954H68.6677ZM70.7268 24.5681V25.2545H70.0404V24.5681H70.7268ZM70.0404 24.5681V25.2545H69.3541V24.5681H70.0404ZM69.3541 24.5681V25.2545H68.6677V24.5681H69.3541ZM68.6677 24.5681V25.2545H67.9813V24.5681H68.6677ZM67.9813 24.5681V25.2545H67.2949V24.5681H67.9813ZM67.2949 24.5681V25.2545H66.6086V24.5681H67.2949ZM67.2949 25.2545V25.9409H66.6086V25.2545H67.2949ZM67.9813 25.2545V25.9409H67.2949V25.2545H67.9813ZM68.6677 25.2545V25.9409H67.9813V25.2545H68.6677ZM69.3541 25.2545V25.9409H68.6677V25.2545H69.3541ZM69.3541 25.9409V26.6272H68.6677V25.9409H69.3541ZM70.0404 25.9409V26.6272H69.3541V25.9409H70.0404ZM70.0404 25.2545V25.9409H69.3541V25.2545H70.0404ZM69.3541 26.6272V27.3136H68.6677V26.6272H69.3541ZM68.6677 26.6272V27.3136H67.9813V26.6272H68.6677ZM68.6677 25.9409V26.6272H67.9813V25.9409H68.6677ZM67.9813 25.9409V26.6272H67.2949V25.9409H67.9813ZM67.9813 26.6272V27.3136H67.2949V26.6272H67.9813ZM67.9813 27.3136V28H67.2949V27.3136H67.9813ZM67.2949 27.3136V28H66.6086V27.3136H67.2949ZM66.6086 27.3136V28H65.9222V27.3136H66.6086ZM65.9222 27.3136V28H65.2358V27.3136H65.9222ZM65.2358 27.3136V28H64.5494V27.3136H65.2358ZM64.5494 27.3136V28H63.8631V27.3136H64.5494ZM63.8631 27.3136V28H63.1767V27.3136H63.8631ZM63.1767 27.3136V28H62.4903V27.3136H63.1767ZM63.8631 26.6272V27.3136H63.1767V26.6272H63.8631ZM64.5494 26.6272V27.3136H63.8631V26.6272H64.5494ZM65.2358 26.6272V27.3136H64.5494V26.6272H65.2358ZM65.9222 26.6272V27.3136H65.2358V26.6272H65.9222ZM66.6086 26.6272V27.3136H65.9222V26.6272H66.6086ZM67.2949 26.6272V27.3136H66.6086V26.6272H67.2949ZM67.2949 25.9409V26.6272H66.6086V25.9409H67.2949ZM66.6086 25.9409V26.6272H65.9222V25.9409H66.6086ZM65.9222 25.9409V26.6272H65.2358V25.9409H65.9222ZM65.2358 25.9409V26.6272H64.5494V25.9409H65.2358ZM64.5494 25.9409V26.6272H63.8631V25.9409H64.5494ZM63.8631 25.9409V26.6272H63.1767V25.9409H63.8631ZM63.1767 26.6272V27.3136H62.4903V26.6272H63.1767ZM62.4903 26.6272V27.3136H61.8039V26.6272H62.4903ZM61.8039 26.6272V27.3136H61.1176V26.6272H61.8039ZM61.8039 25.9409V26.6272H61.1176V25.9409H61.8039ZM61.1176 25.9409V26.6272H60.4312V25.9409H61.1176ZM61.1176 25.2545V25.9409H60.4312V25.2545H61.1176ZM61.8039 25.2545V25.9409H61.1176V25.2545H61.8039ZM62.4903 25.2545V25.9409H61.8039V25.2545H62.4903ZM63.1767 25.2545V25.9409H62.4903V25.2545H63.1767ZM63.8631 25.2545V25.9409H63.1767V25.2545H63.8631ZM64.5494 25.2545V25.9409H63.8631V25.2545H64.5494ZM65.2358 25.2545V25.9409H64.5494V25.2545H65.2358ZM65.9222 25.2545V25.9409H65.2358V25.2545H65.9222ZM66.6086 25.2545V25.9409H65.9222V25.2545H66.6086ZM63.1767 25.9409V26.6272H62.4903V25.9409H63.1767ZM62.4903 25.9409V26.6272H61.8039V25.9409H62.4903ZM67.9813 19.7635V20.4499H67.2949V19.7635H67.9813ZM67.9813 20.4499V21.1362H67.2949V20.4499H67.9813ZM68.6677 20.4499V21.1362H67.9813V20.4499H68.6677ZM69.3541 20.4499V21.1362H68.6677V20.4499H69.3541ZM70.0404 20.4499V21.1362H69.3541V20.4499H70.0404ZM70.7268 20.4499V21.1362H70.0404V20.4499H70.7268ZM70.7268 19.7635V20.4499H70.0404V19.7635H70.7268ZM70.0404 19.7635V20.4499H69.3541V19.7635H70.0404ZM69.3541 19.7635V20.4499H68.6677V19.7635H69.3541ZM68.6677 19.7635V20.4499H67.9813V19.7635H68.6677ZM68.6677 21.1362V21.8226H67.9813V21.1362H68.6677ZM69.3541 21.1362V21.8226H68.6677V21.1362H69.3541ZM69.3541 21.8226V22.509H68.6677V21.8226H69.3541ZM70.0404 21.8226V22.509H69.3541V21.8226H70.0404ZM70.0404 21.1362V21.8226H69.3541V21.1362H70.0404ZM70.7268 21.1362V21.8226H70.0404V21.1362H70.7268ZM70.7268 21.8226V22.509H70.0404V21.8226H70.7268ZM70.7268 22.509V23.1954H70.0404V22.509H70.7268ZM70.0404 22.509V23.1954H69.3541V22.509H70.0404ZM69.3541 22.509V23.1954H68.6677V22.509H69.3541ZM68.6677 22.509V23.1954H67.9813V22.509H68.6677ZM68.6677 21.8226V22.509H67.9813V21.8226H68.6677ZM67.9813 21.8226V22.509H67.2949V21.8226H67.9813ZM67.9813 21.1362V21.8226H67.2949V21.1362H67.9813ZM67.9813 22.509V23.1954H67.2949V22.509H67.9813Z" fill="black"/>
</svg>
