<svg width="80" height="80" viewBox="0 0 80 80" fill="none" xmlns="http://www.w3.org/2000/svg">
<path d="M0 37.1014C0 19.6117 0 10.8668 5.43338 5.43338C10.8668 0 19.6117 0 37.1014 0H42.9C60.3898 0 69.1347 0 74.5681 5.43338C80.0014 10.8668 80.0014 19.6117 80.0014 37.1014V42.9C80.0014 60.3898 80.0014 69.1347 74.5681 74.5681C69.1347 80.0014 60.3898 80.0014 42.9 80.0014H37.1014C19.6117 80.0014 10.8668 80.0014 5.43338 74.5681C0 69.1347 0 60.3898 0 42.9V37.1014Z" fill="#1B1D1E"/>
<g clip-path="url(#clip0_10906_28643)">
<g clip-path="url(#clip1_10906_28643)">
<g clip-path="url(#clip2_10906_28643)">
<path d="M40.0129 58.8834L47.9065 35.6963H32.1191L40.0129 58.8834Z" fill="white"/>
<path d="M40.0129 58.8834L32.1191 35.6963H21.0566L40.0129 58.8834Z" fill="#FC6D26"/>
<path d="M21.0568 35.6963L18.6581 42.7428C18.5515 43.0561 18.5515 43.3935 18.6581 43.7068C18.7647 44.02 18.9725 44.2931 19.2517 44.4867L40.0131 58.8836L21.0567 35.6965L21.0568 35.6963Z" fill="#FCA326"/>
<path d="M21.0566 35.6968H32.1191L27.3651 21.7313C27.1205 21.0127 26.0553 21.0128 25.8108 21.7313L21.0566 35.6968Z" fill="#E24329"/>
<path d="M40.0138 58.8834L47.9074 35.6963H58.9701L40.0138 58.8834Z" fill="#FC6D26"/>
<path d="M58.9699 35.6963L61.3687 42.7428C61.4753 43.0561 61.4753 43.3935 61.3686 43.7068C61.262 44.0201 61.0541 44.2931 60.7749 44.4867L40.0137 58.8836L58.9699 35.6965V35.6963Z" fill="#FCA326"/>
<path d="M58.9699 35.6968H47.9072L52.6614 21.7313C52.9061 21.0127 53.9712 21.0128 54.2157 21.7313L58.9699 35.6968Z" fill="#E24329"/>
</g>
</g>
</g>
<defs>
<clipPath id="clip0_10906_28643">
<rect width="42.9" height="42.9" fill="white" transform="translate(18.5508 18.5508)"/>
</clipPath>
<clipPath id="clip1_10906_28643">
<rect width="42.9" height="42.9" fill="white" transform="translate(18.5508 18.5508)"/>
</clipPath>
<clipPath id="clip2_10906_28643">
<rect width="42.9" height="37.752" fill="white" transform="translate(18.5508 21.125)"/>
</clipPath>
</defs>
</svg>
