<svg width="194" height="51" viewBox="0 0 194 51" fill="none" xmlns="http://www.w3.org/2000/svg">
<g clip-path="url(#clip0_5224_19472)">
<path d="M25.0146 47.7952L34.2146 20.7705H15.8145L25.0146 47.7952Z" fill="#E24329"/>
<path d="M25.0154 47.7952L15.8152 20.7705H2.92188L25.0154 47.7952Z" fill="#FC6D26"/>
<path d="M2.92019 20.7705L0.124492 28.9832C0.000186155 29.3483 0.000169007 29.7416 0.124443 30.1067C0.248717 30.4719 0.490901 30.79 0.816289 31.0157L25.0137 47.7953L2.92 20.7707L2.92019 20.7705Z" fill="#FCA326"/>
<path d="M2.92188 20.7702H15.8152L10.2744 4.49334C9.98926 3.65577 8.74785 3.65596 8.46289 4.49334L2.92188 20.7702Z" fill="#E24329"/>
<path d="M25.0139 47.7952L34.2139 20.7705H47.1074L25.0139 47.7952Z" fill="#FC6D26"/>
<path d="M47.1092 20.7705L49.9049 28.9832C50.0292 29.3484 50.0292 29.7417 49.9048 30.1068C49.7805 30.4719 49.5383 30.7901 49.2129 31.0157L25.0156 47.7953L47.1092 20.7707V20.7705Z" fill="#FCA326"/>
<path d="M47.1084 20.7702H34.2148L39.7559 4.49334C40.041 3.65577 41.2824 3.65596 41.5674 4.49334L47.1084 20.7702Z" fill="#E24329"/>
</g>
<path d="M81.7045 22.7871C81.5483 22.3089 81.3423 21.8804 81.0866 21.5016C80.8357 21.1181 80.535 20.7914 80.1847 20.5215C79.839 20.2516 79.446 20.0456 79.0057 19.9036C78.5653 19.7615 78.0824 19.6905 77.5568 19.6905C76.6951 19.6905 75.9115 19.9131 75.206 20.3581C74.5005 20.8032 73.9394 21.459 73.5227 22.3255C73.1061 23.1919 72.8977 24.2549 72.8977 25.5144C72.8977 26.7739 73.1084 27.8368 73.5298 28.7033C73.9512 29.5698 74.5218 30.2256 75.2415 30.6706C75.9612 31.1157 76.7708 31.3382 77.6705 31.3382C78.5038 31.3382 79.2377 31.1607 79.8722 30.8056C80.5114 30.4457 81.0085 29.9391 81.3636 29.2857C81.7235 28.6275 81.9034 27.8534 81.9034 26.9632L82.4432 27.0769H78.0682V25.5144H83.608V27.0769C83.608 28.2748 83.3523 29.3165 82.8409 30.2019C82.3343 31.0873 81.6335 31.7739 80.7386 32.2615C79.8485 32.7445 78.8258 32.986 77.6705 32.986C76.3826 32.986 75.2509 32.6829 74.2756 32.0769C73.3049 31.4708 72.5473 30.6091 72.0028 29.4917C71.4631 28.3742 71.1932 27.0485 71.1932 25.5144C71.1932 24.3638 71.3471 23.3292 71.6548 22.4107C71.9673 21.4874 72.4077 20.7014 72.9759 20.0527C73.544 19.4041 74.2164 18.9069 74.9929 18.5613C75.7694 18.2156 76.6241 18.0428 77.5568 18.0428C78.3239 18.0428 79.0388 18.1588 79.7017 18.3908C80.3693 18.6181 80.9635 18.9424 81.4844 19.3638C82.0099 19.7805 82.4479 20.28 82.7983 20.8624C83.1487 21.44 83.3902 22.0816 83.5227 22.7871H81.7045ZM87.081 32.7871V21.878H88.7571V32.7871H87.081ZM87.9332 20.0598C87.6065 20.0598 87.3248 19.9486 87.0881 19.726C86.8561 19.5035 86.7401 19.236 86.7401 18.9235C86.7401 18.611 86.8561 18.3435 87.0881 18.1209C87.3248 17.8984 87.6065 17.7871 87.9332 17.7871C88.2599 17.7871 88.5393 17.8984 88.7713 18.1209C89.008 18.3435 89.1264 18.611 89.1264 18.9235C89.1264 19.236 89.008 19.5035 88.7713 19.726C88.5393 19.9486 88.2599 20.0598 87.9332 20.0598ZM96.5714 21.878V23.2985H90.918V21.878H96.5714ZM92.5657 19.2644H94.2418V29.6621C94.2418 30.1356 94.3105 30.4907 94.4478 30.7275C94.5898 30.9595 94.7698 31.1157 94.9876 31.1962C95.2101 31.272 95.4445 31.3098 95.6907 31.3098C95.8754 31.3098 96.0269 31.3004 96.1452 31.2814C96.2636 31.2578 96.3583 31.2388 96.4293 31.2246L96.7702 32.7303C96.6566 32.7729 96.498 32.8155 96.2944 32.8581C96.0908 32.9055 95.8327 32.9292 95.5202 32.9292C95.0468 32.9292 94.5827 32.8274 94.1282 32.6238C93.6784 32.4202 93.3043 32.11 93.006 31.6934C92.7125 31.2767 92.5657 30.7511 92.5657 30.1167V19.2644ZM99.5543 32.7871V18.2417H101.316V31.2246H108.077V32.7871H99.5543ZM113.787 33.0428C113.096 33.0428 112.469 32.9126 111.905 32.6522C111.342 32.387 110.894 32.0059 110.563 31.5087C110.231 31.0068 110.066 30.4007 110.066 29.6905C110.066 29.0655 110.189 28.5589 110.435 28.1706C110.681 27.7776 111.01 27.4699 111.422 27.2473C111.834 27.0248 112.289 26.8591 112.786 26.7502C113.288 26.6365 113.792 26.5466 114.299 26.4803C114.962 26.3951 115.499 26.3311 115.911 26.2885C116.328 26.2412 116.631 26.1631 116.82 26.0542C117.014 25.9453 117.111 25.7559 117.111 25.486V25.4292C117.111 24.7284 116.919 24.1839 116.536 23.7956C116.157 23.4074 115.582 23.2132 114.81 23.2132C114.01 23.2132 113.382 23.3884 112.928 23.7388C112.473 24.0892 112.154 24.4632 111.969 24.861L110.378 24.2928C110.662 23.6299 111.041 23.1138 111.515 22.7445C111.993 22.3704 112.514 22.11 113.077 21.9632C113.645 21.8117 114.204 21.736 114.753 21.736C115.104 21.736 115.506 21.7786 115.961 21.8638C116.42 21.9443 116.863 22.1124 117.289 22.3681C117.72 22.6238 118.077 23.0096 118.361 23.5257C118.645 24.0418 118.787 24.7331 118.787 25.5996V32.7871H117.111V31.3098H117.026C116.912 31.5466 116.723 31.7999 116.458 32.0698C116.193 32.3397 115.84 32.5693 115.4 32.7587C114.959 32.9481 114.422 33.0428 113.787 33.0428ZM114.043 31.5371C114.706 31.5371 115.265 31.4069 115.719 31.1465C116.178 30.8861 116.524 30.5499 116.756 30.138C116.993 29.726 117.111 29.2928 117.111 28.8382V27.3042C117.04 27.3894 116.884 27.4675 116.642 27.5385C116.406 27.6048 116.131 27.664 115.819 27.7161C115.511 27.7634 115.21 27.806 114.917 27.8439C114.628 27.8771 114.393 27.9055 114.213 27.9292C113.778 27.986 113.371 28.0783 112.992 28.2061C112.618 28.3292 112.315 28.5163 112.083 28.7672C111.855 29.0134 111.742 29.3496 111.742 29.7757C111.742 30.3581 111.957 30.7985 112.388 31.0968C112.824 31.3903 113.375 31.5371 114.043 31.5371ZM122.074 32.7871V18.2417H123.75V23.611H123.892C124.015 23.4216 124.186 23.1801 124.403 22.8865C124.626 22.5882 124.943 22.3231 125.355 22.0911C125.772 21.8543 126.335 21.736 127.045 21.736C127.964 21.736 128.774 21.9656 129.474 22.4249C130.175 22.8842 130.722 23.5352 131.115 24.378C131.508 25.2208 131.705 26.2151 131.705 27.361C131.705 28.5163 131.508 29.5177 131.115 30.3652C130.722 31.208 130.178 31.8614 129.482 32.3255C128.786 32.7847 127.983 33.0144 127.074 33.0144C126.373 33.0144 125.812 32.8984 125.391 32.6664C124.969 32.4296 124.645 32.1621 124.418 31.8638C124.19 31.5608 124.015 31.3098 123.892 31.111H123.693V32.7871H122.074ZM123.722 27.3326C123.722 28.1564 123.842 28.8832 124.084 29.513C124.325 30.138 124.678 30.628 125.142 30.9831C125.606 31.3335 126.174 31.5087 126.847 31.5087C127.547 31.5087 128.132 31.324 128.601 30.9547C129.074 30.5807 129.429 30.0788 129.666 29.449C129.908 28.8146 130.028 28.1091 130.028 27.3326C130.028 26.5655 129.91 25.8742 129.673 25.2587C129.441 24.6384 129.089 24.1484 128.615 23.7885C128.146 23.4239 127.557 23.2417 126.847 23.2417C126.165 23.2417 125.592 23.4145 125.128 23.7601C124.664 24.101 124.313 24.5792 124.077 25.1948C123.84 25.8056 123.722 26.5182 123.722 27.3326ZM151.825 22.7871H150.064C149.96 22.2805 149.777 21.8354 149.517 21.4519C149.261 21.0684 148.949 20.7464 148.58 20.486C148.215 20.2208 147.81 20.022 147.365 19.8894C146.92 19.7568 146.456 19.6905 145.973 19.6905C145.092 19.6905 144.295 19.9131 143.58 20.3581C142.869 20.8032 142.304 21.459 141.882 22.3255C141.465 23.1919 141.257 24.2549 141.257 25.5144C141.257 26.7739 141.465 27.8368 141.882 28.7033C142.304 29.5698 142.869 30.2256 143.58 30.6706C144.295 31.1157 145.092 31.3382 145.973 31.3382C146.456 31.3382 146.92 31.272 147.365 31.1394C147.81 31.0068 148.215 30.8103 148.58 30.5499C148.949 30.2847 149.261 29.9604 149.517 29.5769C149.777 29.1886 149.96 28.7435 150.064 28.2417H151.825C151.693 28.985 151.451 29.6503 151.101 30.2374C150.75 30.8245 150.315 31.324 149.794 31.736C149.273 32.1432 148.688 32.4533 148.04 32.6664C147.396 32.8794 146.707 32.986 145.973 32.986C144.732 32.986 143.629 32.6829 142.663 32.0769C141.697 31.4708 140.938 30.6091 140.384 29.4917C139.83 28.3742 139.553 27.0485 139.553 25.5144C139.553 23.9803 139.83 22.6545 140.384 21.5371C140.938 20.4197 141.697 19.5579 142.663 18.9519C143.629 18.3458 144.732 18.0428 145.973 18.0428C146.707 18.0428 147.396 18.1493 148.04 18.3624C148.688 18.5755 149.273 18.888 149.794 19.2999C150.315 19.7071 150.75 20.2042 151.101 20.7914C151.451 21.3738 151.693 22.039 151.825 22.7871ZM156.433 18.2417V32.7871H154.672V18.2417H156.433ZM164.879 17.5598L160.192 34.9746H158.658L163.345 17.5598H164.879ZM178.798 22.7871H177.037C176.932 22.2805 176.75 21.8354 176.49 21.4519C176.234 21.0684 175.922 20.7464 175.552 20.486C175.188 20.2208 174.783 20.022 174.338 19.8894C173.893 19.7568 173.429 19.6905 172.946 19.6905C172.065 19.6905 171.267 19.9131 170.552 20.3581C169.842 20.8032 169.276 21.459 168.855 22.3255C168.438 23.1919 168.23 24.2549 168.23 25.5144C168.23 26.7739 168.438 27.8368 168.855 28.7033C169.276 29.5698 169.842 30.2256 170.552 30.6706C171.267 31.1157 172.065 31.3382 172.946 31.3382C173.429 31.3382 173.893 31.272 174.338 31.1394C174.783 31.0068 175.188 30.8103 175.552 30.5499C175.922 30.2847 176.234 29.9604 176.49 29.5769C176.75 29.1886 176.932 28.7435 177.037 28.2417H178.798C178.665 28.985 178.424 29.6503 178.074 30.2374C177.723 30.8245 177.288 31.324 176.767 31.736C176.246 32.1432 175.661 32.4533 175.012 32.6664C174.368 32.8794 173.68 32.986 172.946 32.986C171.705 32.986 170.602 32.6829 169.636 32.0769C168.67 31.4708 167.91 30.6091 167.356 29.4917C166.802 28.3742 166.525 27.0485 166.525 25.5144C166.525 23.9803 166.802 22.6545 167.356 21.5371C167.91 20.4197 168.67 19.5579 169.636 18.9519C170.602 18.3458 171.705 18.0428 172.946 18.0428C173.68 18.0428 174.368 18.1493 175.012 18.3624C175.661 18.5755 176.246 18.888 176.767 19.2999C177.288 19.7071 177.723 20.2042 178.074 20.7914C178.424 21.3738 178.665 22.039 178.798 22.7871ZM186.133 32.7871H181.644V18.2417H186.332C187.743 18.2417 188.95 18.5328 189.954 19.1152C190.958 19.6929 191.727 20.5239 192.262 21.6081C192.797 22.6877 193.065 23.9803 193.065 25.486C193.065 27.0011 192.795 28.3056 192.255 29.3993C191.715 30.4883 190.929 31.3264 189.897 31.9135C188.865 32.4959 187.61 32.7871 186.133 32.7871ZM183.406 31.2246H186.019C187.222 31.2246 188.219 30.9926 189.009 30.5286C189.8 30.0646 190.389 29.4041 190.778 28.5471C191.166 27.69 191.36 26.6697 191.36 25.486C191.36 24.3117 191.168 23.3008 190.785 22.4533C190.401 21.601 189.828 20.9476 189.066 20.4931C188.304 20.0338 187.354 19.8042 186.218 19.8042H183.406V31.2246Z" fill="white"/>
<defs>
<clipPath id="clip0_5224_19472">
<rect width="50" height="44" fill="white" transform="translate(0 3.78711)"/>
</clipPath>
</defs>
</svg>
