<svg width="50" height="50" viewBox="0 0 50 50" fill="none" xmlns="http://www.w3.org/2000/svg">
<rect width="50" height="50" rx="12" fill="#2DBCAF"/>
<path d="M9.08861 22.2376C9.01562 22.2376 8.99738 22.2011 9.03387 22.1464L9.41703 21.6537C9.45352 21.599 9.54475 21.5625 9.61773 21.5625H16.1315C16.2045 21.5625 16.2227 21.6172 16.1862 21.672L15.876 22.1464C15.8395 22.2011 15.7483 22.2558 15.6936 22.2558L9.08861 22.2376Z" fill="white"/>
<path d="M6.3347 23.9173C6.26172 23.9173 6.24347 23.8808 6.27996 23.8261L6.66313 23.3334C6.69962 23.2787 6.79085 23.2422 6.86383 23.2422H15.1839C15.2569 23.2422 15.2934 23.2969 15.2751 23.3517L15.1292 23.7896C15.1109 23.8625 15.0379 23.899 14.9649 23.899L6.3347 23.9173Z" fill="white"/>
<path d="M10.7488 25.597C10.6758 25.597 10.6575 25.5422 10.694 25.4875L10.9495 25.0313C10.986 24.9766 11.0589 24.9219 11.1319 24.9219H14.7811C14.8541 24.9219 14.8905 24.9766 14.8905 25.0496L14.8541 25.4875C14.8541 25.5605 14.7811 25.6152 14.7263 25.6152L10.7488 25.597Z" fill="white"/>
<path d="M29.6879 21.9109C28.5384 22.2028 27.7539 22.4217 26.6226 22.7137C26.3489 22.7866 26.3307 22.8049 26.0935 22.5312C25.8198 22.221 25.6191 22.0203 25.236 21.8379C24.0865 21.2723 22.9735 21.4365 21.9335 22.1116C20.6928 22.9144 20.0542 24.1003 20.0724 25.5782C20.0907 27.0379 21.0942 28.2421 22.5356 28.4428C23.7763 28.607 24.8163 28.1691 25.6374 27.2386C25.8016 27.0379 25.9475 26.819 26.13 26.5635C25.4732 26.5635 24.6521 26.5635 22.6086 26.5635C22.2254 26.5635 22.1342 26.3263 22.2619 26.0161C22.4991 25.4505 22.937 24.5017 23.1924 24.0274C23.2472 23.9179 23.3749 23.7354 23.6486 23.7354C24.5791 23.7354 28.0093 23.7354 30.29 23.7354C30.2535 24.2281 30.2535 24.7207 30.1806 25.2133C29.9798 26.527 29.4872 27.7312 28.6844 28.7895C27.3707 30.5228 25.6556 31.5993 23.4844 31.8913C21.6963 32.1285 20.0359 31.7818 18.5763 30.6871C17.2261 29.6653 16.4597 28.3151 16.259 26.6365C16.0219 24.6477 16.6057 22.8596 17.8099 21.2905C19.1054 19.5936 20.8205 18.5171 22.9187 18.134C24.6338 17.8238 26.276 18.0245 27.7539 19.028C28.7209 19.6666 29.4142 20.5424 29.8704 21.6007C29.9799 21.7649 29.9069 21.8561 29.6879 21.9109Z" fill="white"/>
<path d="M35.7292 31.9998C34.0689 31.9633 32.5545 31.4889 31.2773 30.3941C30.2008 29.4636 29.5257 28.2776 29.3067 26.8727C28.9783 24.8109 29.5439 22.9864 30.7846 21.3625C32.1166 19.6109 33.7222 18.6986 35.8934 18.3155C37.7545 17.987 39.5061 18.1695 41.0935 19.246C42.5349 20.2313 43.4289 21.5632 43.6661 23.3148C43.9763 25.778 43.2647 27.785 41.5679 29.5001C40.3637 30.7226 38.8858 31.4889 37.1889 31.8356C36.6963 31.9268 36.2036 31.945 35.7292 31.9998ZM40.0717 24.6285C40.0535 24.3913 40.0535 24.2088 40.017 24.0264C39.6886 22.22 38.0282 21.1983 36.2949 21.5997C34.598 21.9829 33.5033 23.0594 33.1018 24.7745C32.7734 26.1976 33.4668 27.639 34.7805 28.2229C35.784 28.6608 36.7875 28.6061 37.7545 28.1134C39.1959 27.3653 39.9805 26.1976 40.0717 24.6285Z" fill="white"/>
</svg>
