<svg width="50" height="50" viewBox="0 0 50 50" fill="none" xmlns="http://www.w3.org/2000/svg">
<rect width="50" height="50" rx="13.5294" fill="#364EBE"/>
<g clip-path="url(#clip0_10309_8647)">
<path d="M11.678 21.0148C11.6347 21.0148 11.5914 20.9681 11.6347 20.9215L11.938 20.4548C11.9813 20.4081 12.0246 20.3615 12.1113 20.3615H17.5707C17.6141 20.3615 17.6574 20.4081 17.6141 20.4548L17.3541 20.8748C17.3108 20.9215 17.2674 20.9681 17.1808 20.9681L11.678 21.0148ZM9.38159 22.5081C9.33826 22.5081 9.29493 22.4615 9.33826 22.4148L9.64156 21.9481C9.68489 21.9015 9.72822 21.8548 9.81488 21.8548H16.7908C16.8341 21.8548 16.8775 21.9015 16.8775 21.9481L16.7475 22.4148C16.7475 22.4615 16.6608 22.5081 16.6175 22.5081H9.38159ZM13.0645 24.0481C13.0212 24.0481 12.9779 24.0015 13.0212 23.9548L13.2378 23.5348C13.2812 23.4881 13.3245 23.4415 13.4112 23.4415H16.4442C16.4875 23.4415 16.5308 23.4881 16.5308 23.5348L16.4875 23.9081C16.4875 23.9548 16.4442 24.0015 16.4008 24.0015L13.0645 24.0481ZM28.9229 20.6881L26.3665 21.3881C26.1498 21.4348 26.1065 21.4815 25.9332 21.2015C25.7165 20.9215 25.5432 20.7348 25.1966 20.5948C24.2434 20.0815 23.2901 20.2215 22.4235 20.8281C21.3837 21.5281 20.8637 22.6015 20.8637 23.9548C20.8637 25.2615 21.7303 26.3348 22.9435 26.5215C23.9834 26.6615 24.85 26.2881 25.5432 25.4481C25.6732 25.2615 25.8032 25.0748 25.9765 24.8415H23.0301C22.7268 24.8415 22.6402 24.6081 22.7268 24.3281C22.9435 23.8148 23.2901 22.9748 23.5068 22.5548C23.5501 22.4615 23.6801 22.2748 23.8967 22.2748H29.4428C29.3995 22.7415 29.3995 23.1615 29.3561 23.6281C29.1828 24.7948 28.7929 25.9148 28.0996 26.8481C27.0164 28.3881 25.5865 29.3681 23.7667 29.6481C22.2502 29.8815 20.8637 29.5548 19.6505 28.5748C18.524 27.6415 17.874 26.4281 17.7007 24.9348C17.4841 23.1614 18.004 21.5281 19.0006 20.1281C20.0838 18.5881 21.5136 17.6081 23.2901 17.2815C24.72 17.0015 26.1065 17.1881 27.3197 18.0748C28.1429 18.6348 28.7062 19.4281 29.0962 20.4081C29.1395 20.5948 29.0962 20.6415 28.9229 20.6881Z" fill="white"/>
<path d="M33.9494 29.7872C32.5629 29.7406 31.3063 29.3206 30.2231 28.3406C29.3132 27.5006 28.75 26.4272 28.5766 25.1672C28.3167 23.3006 28.7933 21.6672 29.8332 20.2206C30.9597 18.6339 32.3029 17.8406 34.1227 17.4672C35.6826 17.1872 37.1557 17.3272 38.4556 18.3072C39.6688 19.1939 40.4054 20.4072 40.622 21.9939C40.882 24.2339 40.2754 26.0072 38.8889 27.5472C37.8923 28.6672 36.6358 29.3206 35.2493 29.6472C34.7726 29.7406 34.3394 29.7406 33.9494 29.7872ZM37.589 23.1606C37.589 22.9272 37.589 22.7872 37.5457 22.6006C37.2857 20.9672 35.8992 20.0339 34.426 20.4072C32.9962 20.7339 32.0863 21.7139 31.7396 23.2539C31.4797 24.5139 32.0429 25.8206 33.1262 26.3806C33.9494 26.7539 34.816 26.7072 35.5959 26.2872C36.8524 25.6339 37.5024 24.5606 37.589 23.1606Z" fill="white"/>
</g>
<defs>
<clipPath id="clip0_10309_8647">
<rect width="32" height="28" fill="white" transform="translate(9 11)"/>
</clipPath>
</defs>
</svg>
