<svg width="80" height="80" viewBox="0 0 80 80" fill="none" xmlns="http://www.w3.org/2000/svg">
<path d="M0 37.1014C0 19.6117 0 10.8668 5.43338 5.43338C10.8668 0 19.6117 0 37.1014 0H42.9C60.3898 0 69.1347 0 74.5681 5.43338C80.0014 10.8668 80.0014 19.6117 80.0014 37.1014V42.9C80.0014 60.3898 80.0014 69.1347 74.5681 74.5681C69.1347 80.0014 60.3898 80.0014 42.9 80.0014H37.1014C19.6117 80.0014 10.8668 80.0014 5.43338 74.5681C0 69.1347 0 60.3898 0 42.9V37.1014Z" fill="#1B1D1E"/>
<g clip-path="url(#clip0_12476_11500)">
<rect x="18.5508" y="18.5508" width="42.9" height="42.9" rx="10.296" fill="#2DBCAF"/>
<path d="M26.3517 37.632C26.2891 37.632 26.2734 37.6007 26.3047 37.5537L26.6335 37.131C26.6648 37.084 26.7431 37.0527 26.8057 37.0527H32.3945C32.4571 37.0527 32.4727 37.0997 32.4414 37.1467L32.1753 37.5537C32.144 37.6007 32.0657 37.6476 32.0187 37.6476L26.3517 37.632Z" fill="white"/>
<path d="M23.9884 39.0724C23.9258 39.0724 23.9101 39.0411 23.9414 38.9941L24.2702 38.5714C24.3015 38.5245 24.3798 38.4932 24.4424 38.4932H31.581C31.6436 38.4932 31.6749 38.5401 31.6593 38.5871L31.534 38.9628C31.5184 39.0254 31.4558 39.0567 31.3931 39.0567L23.9884 39.0724Z" fill="white"/>
<path d="M27.7775 40.5118C27.7148 40.5118 27.6992 40.4649 27.7305 40.4179L27.9497 40.0265C27.981 39.9796 28.0436 39.9326 28.1062 39.9326H31.2372C31.2998 39.9326 31.3311 39.9796 31.3311 40.0422L31.2998 40.4179C31.2998 40.4805 31.2372 40.5275 31.1902 40.5275L27.7775 40.5118Z" fill="white"/>
<path d="M44.0256 37.3506C43.0393 37.6011 42.3662 37.789 41.3956 38.0394C41.1607 38.1021 41.1451 38.1177 40.9416 37.8829C40.7068 37.6168 40.5346 37.4446 40.2058 37.288C39.2195 36.8027 38.2646 36.9436 37.3723 37.5228C36.3077 38.2116 35.7598 39.2292 35.7755 40.4973C35.7911 41.7496 36.6521 42.7829 37.8889 42.9551C38.9534 43.096 39.8457 42.7202 40.5502 41.9218C40.6911 41.7496 40.8163 41.5618 40.9729 41.3426C40.4093 41.3426 39.7048 41.3426 37.9515 41.3426C37.6227 41.3426 37.5445 41.1391 37.6541 40.873C37.8576 40.3877 38.2333 39.5736 38.4525 39.1666C38.4994 39.0727 38.609 38.9161 38.8438 38.9161C39.6422 38.9161 42.5853 38.9161 44.5422 38.9161C44.5109 39.3388 44.5109 39.7615 44.4483 40.1842C44.2761 41.3113 43.8534 42.3445 43.1646 43.2525C42.0374 44.7397 40.5659 45.6634 38.7029 45.9138C37.1688 46.1173 35.7442 45.8199 34.4918 44.8806C33.3333 44.0039 32.6758 42.8455 32.5036 41.4052C32.3001 39.6989 32.8011 38.1647 33.8343 36.8184C34.9458 35.3625 36.4173 34.4388 38.2176 34.1101C39.6892 33.8439 41.0981 34.0161 42.3662 34.8772C43.1959 35.4251 43.7908 36.1765 44.1821 37.0845C44.2761 37.2254 44.2134 37.3037 44.0256 37.3506Z" fill="white"/>
<path d="M49.2085 46.0073C47.7839 45.976 46.4845 45.569 45.3887 44.6297C44.4651 43.8313 43.8858 42.8137 43.698 41.6083C43.4162 39.8393 43.9015 38.2738 44.966 36.8806C46.1088 35.3777 47.4865 34.5949 49.3494 34.2662C50.9462 33.9844 52.449 34.141 53.811 35.0646C55.0478 35.91 55.8148 37.0528 56.0183 38.5556C56.2845 40.669 55.6739 42.3911 54.218 43.8626C53.1848 44.9115 51.9168 45.569 50.4609 45.8664C50.0382 45.9447 49.6155 45.9604 49.2085 46.0073ZM52.9343 39.6828C52.9187 39.4793 52.9187 39.3227 52.8874 39.1662C52.6056 37.6163 51.181 36.7397 49.6938 37.0841C48.2379 37.4128 47.2986 38.3365 46.9542 39.808C46.6724 41.0291 47.2673 42.2658 48.3944 42.7668C49.2555 43.1425 50.1165 43.0955 50.9462 42.6729C52.1829 42.031 52.8561 41.0291 52.9343 39.6828Z" fill="white"/>
</g>
<defs>
<clipPath id="clip0_12476_11500">
<rect width="42.9" height="42.9" fill="white" transform="translate(18.5508 18.5508)"/>
</clipPath>
</defs>
</svg>
