<svg width="1601" height="982" viewBox="0 0 1601 982" fill="none" xmlns="http://www.w3.org/2000/svg"><g clip-path="url(#a)"><path opacity=".5" d="M1561.56 393.21q.555 6.25 1.02 12.527v.001l-.53.039c.31 4.183.58 8.375.82 12.576l.52-.03c.24 4.176.44 8.36.61 12.553l-.53.02c.17 4.174.31 8.357.41 12.548l.53-.012c.1 4.194.17 8.396.2 12.606l-.53.004a665 665 0 0 1 0 12.634l.53.003c-.03 4.21-.1 8.412-.2 12.606l-.53-.012c-.1 4.191-.24 8.374-.41 12.548l.53.021a744 744 0 0 1-.61 12.553l-.52-.03c-.24 4.201-.51 8.394-.82 12.576l.53.038q-.465 6.279-1.02 12.529l-.52-.047c-.38 4.174-.78 8.338-1.22 12.492l.52.055c-.44 4.187-.92 8.364-1.43 12.53l-.52-.063c-.51 4.163-1.05 8.317-1.63 12.46l.52.072a639 639 0 0 1-1.83 12.422l-.52-.08q-.975 6.234-2.04 12.435l.52.089c-.72 4.137-1.46 8.262-2.24 12.376l-.52-.098a826 826 0 0 1-2.44 12.309l.51.105a721 721 0 0 1-2.65 12.327l-.52-.115c-.91 4.094-1.86 8.175-2.84 12.244l.5.123c-.98 4.073-1.99 8.134-3.04 12.182l-.51-.132c-1.06 4.07-2.14 8.126-3.26 12.169l.51.14a814 814 0 0 1-3.46 12.096l-.5-.148c-1.19 4.017-2.4 8.021-3.65 12.01l.5.157a704 704 0 0 1-3.86 11.997l-.5-.165a697 697 0 0 1-4.05 11.904l.5.171c-1.38 3.957-2.8 7.9-4.24 11.828l-.49-.182a788 788 0 0 1-4.45 11.78l.49.19a690 690 0 0 1-4.64 11.695l-.48-.197a777 777 0 0 1-4.82 11.597l.48.205a684 684 0 0 1-5.02 11.552l-.48-.214a767 767 0 0 1-5.21 11.445l.48.22a766 766 0 0 1-5.39 11.356l-.47-.229c-1.83 3.777-3.7 7.537-5.59 11.279l.47.237c-1.89 3.745-3.81 7.47-5.77 11.18l-.46-.244a753 753 0 0 1-5.94 11.071l.46.252a756 756 0 0 1-6.14 10.996l-.45-.261c-2.08 3.644-4.18 7.27-6.31 10.876l.45.268q-3.195 5.415-6.48 10.773l-.45-.273a743 743 0 0 1-6.66 10.671l.44.281q-3.375 5.31-6.84 10.561l-.44-.29c-2.3 3.5-4.64 6.98-7 10.439l.44.296a820 820 0 0 1-7.19 10.336l-.43-.303a725 725 0 0 1-7.34 10.206l.43.31a802 802 0 0 1-7.51 10.091l-.42-.317a715 715 0 0 1-7.68 9.965l.42.322c-2.59 3.302-5.2 6.583-7.84 9.842l-.41-.329c-2.64 3.257-5.3 6.493-7.99 9.706l.41.338q-4.05 4.824-8.16 9.582l-.4-.344c-2.74 3.17-5.51 6.317-8.3 9.441l.39.349a862 862 0 0 1-8.46 9.312l-.39-.356a768 768 0 0 1-8.6 9.167l.38.363a812 812 0 0 1-8.76 9.026l-.38-.36a828 828 0 0 1-8.9 8.88l.37.37c-2.99 2.94-6.01 5.85-9.05 8.74l-.36-.38c-3.04 2.89-6.1 5.75-9.19 8.59l.36.39c-3.09 2.84-6.2 5.65-9.33 8.44l-.35-.39c-3.13 2.78-6.28 5.55-9.46 8.28l.35.4c-3.18 2.74-6.38 5.45-9.6 8.14l-.34-.41c-3.22 2.68-6.46 5.34-9.72 7.97l.33.41a752 752 0 0 1-9.86 7.82l-.32-.41a940 940 0 0 1-9.98 7.65l.31.42c-3.34 2.52-6.71 5.02-10.1 7.49l-.31-.43c-3.39 2.47-6.79 4.91-10.22 7.33l.3.42q-5.145 3.63-10.35 7.17l-.29-.44c-3.47 2.36-6.95 4.69-10.45 6.99l.28.44c-3.5 2.3-7.02 4.57-10.57 6.81l-.28-.44c-3.54 2.24-7.1 4.46-10.68 6.64l.27.45a832 832 0 0 1-10.79 6.47l-.26-.46a733 733 0 0 1-10.89 6.29l.26.46c-3.65 2.07-7.32 4.1-11.01 6.11l-.25-.46a734 734 0 0 1-11.08 5.93l.24.46c-3.71 1.94-7.44 3.86-11.19 5.75l-.23-.47c-3.75 1.88-7.51 3.74-11.29 5.56l.23.48q-5.655 2.73-11.37 5.37l-.22-.48c-3.8 1.76-7.61 3.49-11.45 5.19l.21.48c-3.83 1.7-7.69 3.37-11.55 5.01l-.21-.48c-3.85 1.63-7.72 3.23-11.6 4.8l.19.48a748 748 0 0 1-11.7 4.62l-.19-.49c-3.91 1.51-7.84 2.99-11.78 4.43l.18.5c-3.93 1.44-7.88 2.84-11.84 4.22l-.17-.5c-3.95 1.38-7.92 2.72-11.91 4.04l.17.49c-3.99 1.32-7.99 2.6-12 3.85l-.16-.5c-3.99 1.24-7.99 2.45-12.01 3.63l.14.51a937 937 0 0 1-12.1 3.44l-.13-.51c-4.049 1.12-8.107 2.2-12.178 3.25l.131.51q-6.073 1.56-12.183 3.03l-.124-.51c-4.069.98-8.151 1.93-12.246 2.84l.115.52q-6.147 1.365-12.329 2.64l-.106-.51q-6.136 1.26-12.309 2.43l.097.51c-4.114.78-8.24 1.53-12.378 2.24l-.089-.52c-4.134.71-8.28 1.39-12.437 2.03l.08.52q-6.195.96-12.422 1.83l-.072-.53c-4.143.58-8.297 1.12-12.461 1.63l.063.52c-4.167.51-8.344.98-12.532 1.42l-.054-.52c-4.154.44-8.318.84-12.492 1.21l.046.53c-4.167.37-8.343.7-12.529 1.01l-.037-.53c-4.183.31-8.375.58-12.576.82l.028.52c-4.175.24-8.359.44-12.552.61l-.02-.53c-4.175.17-8.357.3-12.548.4l.011.53c-4.193.1-8.396.17-12.606.2l-.003-.52c-2.104.01-4.21.02-6.317.02s-4.213-.01-6.317-.02l-.004.52c-4.21-.03-8.412-.1-12.606-.2l.013-.53c-4.191-.1-8.374-.23-12.548-.4l-.022.53a744 744 0 0 1-12.552-.61l.03-.52c-4.201-.24-8.394-.51-12.577-.82l-.038.53c-4.186-.31-8.363-.64-12.53-1.01l.047-.53c-4.173-.37-8.337-.77-12.491-1.21l-.056.52c-4.187-.44-8.364-.91-12.531-1.42l.064-.52c-4.164-.51-8.318-1.05-12.461-1.63l-.073.53a844 844 0 0 1-12.423-1.83l.082-.52c-4.157-.64-8.303-1.32-12.438-2.03l-.09.52c-4.137-.71-8.263-1.46-12.378-2.24l.099-.51q-6.173-1.17-12.31-2.43l-.106.51q-6.183-1.275-12.329-2.64l.115-.52c-4.094-.91-8.177-1.86-12.246-2.84l-.124.51q-6.11-1.47-12.184-3.03l.132-.51a712 712 0 0 1-12.173-3.25l-.139.51c-4.047-1.12-8.08-2.27-12.1-3.44l.147-.51a801 801 0 0 1-12.013-3.63l-.157.5a701 701 0 0 1-12.002-3.85l.165-.49a797 797 0 0 1-11.909-4.04l-.172.5a786 786 0 0 1-11.831-4.22l.181-.5a695 695 0 0 1-11.788-4.43l-.188.49a781 781 0 0 1-11.702-4.62l.196-.48a777 777 0 0 1-11.603-4.8l-.206.48a781 781 0 0 1-11.559-5.01l.213-.48q-5.75-2.55-11.452-5.19l-.221.48a766 766 0 0 1-11.363-5.37l.229-.48c-3.78-1.82-7.544-3.68-11.289-5.56l-.237.47a873 873 0 0 1-11.19-5.75l.244-.46a753 753 0 0 1-11.08-5.93l-.252.46a756 756 0 0 1-11.008-6.11l.261-.46a748 748 0 0 1-10.888-6.29l-.266.46c-3.615-2.13-7.21-4.29-10.786-6.47l.274-.45c-3.581-2.18-7.142-4.4-10.684-6.64l-.282.44a731 731 0 0 1-10.573-6.81l.289-.44q-5.255-3.45-10.45-6.99l-.296.44a727 727 0 0 1-10.352-7.17l.304-.42a817 817 0 0 1-10.221-7.33l-.31.43c-3.39-2.47-6.757-4.97-10.105-7.49l.317-.42a910 910 0 0 1-9.98-7.65l-.323.41a801 801 0 0 1-9.858-7.82l.331-.41a784 784 0 0 1-9.722-7.97l-.338.41c-3.222-2.69-6.421-5.4-9.598-8.14l.342-.4c-3.175-2.73-6.328-5.5-9.458-8.28l-.349.39c-3.133-2.79-6.243-5.6-9.329-8.44l.357-.39c-3.085-2.84-6.147-5.7-9.186-8.59l-.362.38c-3.04-2.89-6.055-5.8-9.048-8.74l.367-.37a847 847 0 0 1-8.899-8.88l-.374.36a754 754 0 0 1-8.762-9.026l.382-.363a776 776 0 0 1-8.607-9.167l-.386.356a769 769 0 0 1-8.461-9.312l.392-.349a767 767 0 0 1-8.304-9.441l-.398.344a784 784 0 0 1-8.157-9.582l.406-.339a774 774 0 0 1-7.992-9.705l-.408.33a782 782 0 0 1-7.837-9.842l.413-.323a773 773 0 0 1-7.673-9.965l-.419.317a765 765 0 0 1-7.512-10.092l.426-.309a768 768 0 0 1-7.342-10.206l-.429.303a780 780 0 0 1-7.183-10.336l.435-.296a769 769 0 0 1-7.003-10.439l-.44.291h-.001a767 767 0 0 1-6.834-10.562l.443-.281a780 780 0 0 1-6.663-10.671l-.447.274a776 776 0 0 1-6.488-10.774l.455-.268a761 761 0 0 1-6.306-10.876l-.458.261a765 765 0 0 1-6.135-10.996l.461-.252a757 757 0 0 1-5.942-11.071l-.465.245a771 771 0 0 1-5.77-11.18l.472-.238a762 762 0 0 1-5.584-11.279l-.473.229a762 762 0 0 1-5.391-11.356l.476-.22a761 761 0 0 1-5.204-11.445l-.482.214a761 761 0 0 1-5.023-11.552l.484-.205a761 761 0 0 1-4.819-11.596l-.487.196a767 767 0 0 1-4.637-11.694l.492-.19a760 760 0 0 1-4.446-11.78l-.494.181a766 766 0 0 1-4.24-11.828l.497-.171a762 762 0 0 1-4.048-11.903l-.5.165a760 760 0 0 1-3.86-11.998l.503-.156a763 763 0 0 1-3.647-12.011l-.504.148a764 764 0 0 1-3.457-12.096l.508-.14a757 757 0 0 1-3.26-12.168l-.509.131a761 761 0 0 1-3.046-12.181l.51-.124a760 760 0 0 1-2.85-12.243l-.515.115a764 764 0 0 1-2.654-12.327l.514-.105a762 762 0 0 1-2.439-12.309l-.519.098a765 765 0 0 1-2.243-12.376l.52-.089a765 765 0 0 1-2.041-12.435l-.522.08a768 768 0 0 1-1.83-12.422l.522-.072a768 768 0 0 1-1.63-12.46l-.523.063a768 768 0 0 1-1.43-12.53l.526-.055q-.66-6.231-1.219-12.492l-.525.047a772 772 0 0 1-1.018-12.529l.528-.038a773 773 0 0 1-.815-12.576l-.527.03a776 776 0 0 1-.608-12.553l.528-.021a778 778 0 0 1-.405-12.548l-.528.012q-.152-6.291-.204-12.606l.528-.003a773 773 0 0 1-.02-3.157l-.005-3.161q0-3.16.025-6.315l-.528-.005q.052-6.315.204-12.606l.527.012q.153-6.286.406-12.547l-.527-.021q.253-6.29.607-12.553l.527.03q.357-6.302.815-12.576l-.527-.039v-.001q.458-6.278 1.017-12.527l.525.047q.56-6.261 1.219-12.492l-.525-.056q.665-6.28 1.43-12.53l.523.064q.765-6.246 1.629-12.46l-.523-.072a765 765 0 0 1 1.831-12.423l.522.081a763 763 0 0 1 2.042-12.435l-.52-.09a765 765 0 0 1 2.242-12.376l.519.098a763 763 0 0 1 2.44-12.307l-.515-.108q1.277-6.18 2.654-12.326l.515.115a764 764 0 0 1 2.85-12.243l-.51-.123a761 761 0 0 1 3.046-12.182l.51.131a763 763 0 0 1 3.259-12.168l-.509-.14a762 762 0 0 1 3.458-12.096l.504.149q1.776-6.027 3.647-12.011l-.503-.157a760 760 0 0 1 3.86-11.998l.5.166a762 762 0 0 1 4.047-11.903l-.495-.173a762 762 0 0 1 4.239-11.827l.494.182a760 760 0 0 1 4.445-11.78l-.49-.191a760 760 0 0 1 4.636-11.694l.486.197a766 766 0 0 1 4.82-11.597l-.484-.206a761 761 0 0 1 5.023-11.551l.482.213a765 765 0 0 1 5.204-11.443l-.476-.222a766 766 0 0 1 5.391-11.355l.473.229a767 767 0 0 1 5.584-11.279l-.471-.238a765 765 0 0 1 5.769-11.18l.465.245a764 764 0 0 1 5.942-11.071l-.461-.252q3.023-5.526 6.135-10.996l.458.26a764 764 0 0 1 6.306-10.875l-.455-.268a769 769 0 0 1 6.487-10.774l.448.275a775 775 0 0 1 6.663-10.67l-.443-.284q3.374-5.31 6.834-10.561h.001l.44.29a764 764 0 0 1 7.003-10.437l-.435-.297a771 771 0 0 1 7.183-10.337l.429.304a764 764 0 0 1 7.342-10.206l-.426-.31a769 769 0 0 1 7.512-10.092l.419.318a773 773 0 0 1 7.673-9.964l-.413-.325a778 778 0 0 1 7.837-9.841l.408.331a772 772 0 0 1 7.992-9.706l-.406-.339a776 776 0 0 1 8.157-9.582l.399.344q4.113-4.755 8.303-9.44l-.392-.351a767 767 0 0 1 8.461-9.312l.387.358a777 777 0 0 1 8.606-9.167l-.382-.364a781 781 0 0 1 8.762-9.03l.374.368a775 775 0 0 1 8.9-8.88l-.369-.377a779 779 0 0 1 9.049-8.742l.363.382a775 775 0 0 1 9.185-8.588l-.356-.387a761 761 0 0 1 9.329-8.442l.348.393a766 766 0 0 1 9.458-8.283l-.343-.399a769 769 0 0 1 9.599-8.139l.338.407a767 767 0 0 1 9.722-7.972l-.331-.409a775 775 0 0 1 9.858-7.817l.323.414a789 789 0 0 1 9.981-7.654l-.318-.421a771 771 0 0 1 10.105-7.492l.31.427a768 768 0 0 1 10.221-7.321l-.303-.43a770 770 0 0 1 10.351-7.162l.296.434a775 775 0 0 1 10.45-6.982l-.289-.441a774 774 0 0 1 10.574-6.817l.281.445a774 774 0 0 1 10.684-6.643l-.273-.448a761 761 0 0 1 10.785-6.466l.266.453q5.416-3.186 10.888-6.286l-.261-.46a765 765 0 0 1 11.008-6.114l.252.461a753 753 0 0 1 11.08-5.922l-.244-.466a756 756 0 0 1 11.19-5.749l.237.471a762 762 0 0 1 11.289-5.567l-.229-.474q5.657-2.73 11.363-5.371l.22.477a772 772 0 0 1 11.453-5.188l-.213-.481q5.755-2.55 11.559-5.008l.206.486a756 756 0 0 1 11.603-4.802l-.197-.487a770 770 0 0 1 11.702-4.62l.189.491a760 760 0 0 1 11.787-4.429l-.181-.495a754 754 0 0 1 11.831-4.224l.173.496a760 760 0 0 1 11.908-4.032l-.165-.5a755 755 0 0 1 12.003-3.847l.157.503a768 768 0 0 1 12.013-3.632l-.148-.504a765 765 0 0 1 12.1-3.443l.14.507a761 761 0 0 1 12.173-3.247l-.132-.51a771 771 0 0 1 12.184-3.034l.123.51q6.105-1.468 12.247-2.839l-.115-.514a770 770 0 0 1 12.329-2.644l.106.515a767 767 0 0 1 12.309-2.43l-.099-.519a764 764 0 0 1 12.379-2.233l.089.52q6.202-1.067 12.438-2.035l-.081-.521a780 780 0 0 1 12.422-1.824l.073.523a761 761 0 0 1 12.461-1.622l-.064-.524q6.25-.762 12.531-1.424l.056.526q6.231-.657 12.491-1.214l-.047-.525-.001-.001q6.252-.556 12.531-1.012l.038.526a767 767 0 0 1 12.577-.81l-.03-.528q6.263-.353 12.552-.605l.021.527q6.262-.252 12.549-.403l-.013-.527q6.291-.153 12.606-.204l.004.529a782 782 0 0 1 12.634 0l.003-.529q6.316.051 12.606.204l-.011.527q6.286.151 12.548.403l.02-.527q6.29.252 12.552.605l-.028.528q6.302.354 12.576.81l.037-.526q6.279.456 12.529 1.012l-.046.526q6.261.557 12.492 1.214l.054-.526q6.282.662 12.532 1.424l-.063.524q6.247.76 12.462 1.622l.071-.523a780 780 0 0 1 12.422 1.824l-.08.521q6.236.967 12.437 2.034l.089-.52q6.207 1.067 12.378 2.234l-.096.519q6.171 1.166 12.308 2.429l.106-.514q6.182 1.273 12.329 2.644l-.115.514q6.143 1.37 12.247 2.839l.123-.511q6.11 1.47 12.183 3.035l-.131.51a747 747 0 0 1 12.169 3.247l.14-.507a767 767 0 0 1 12.1 3.443l-.14.504c4.01 1.179 8.02 2.39 12.01 3.632l.16-.503q6.015 1.875 12 3.847l-.17.499a727 727 0 0 1 11.91 4.033l.17-.496c3.96 1.377 7.91 2.784 11.84 4.224l-.18.494c3.94 1.445 7.87 2.922 11.78 4.43l.19-.492a739 739 0 0 1 11.7 4.621l-.19.487c3.88 1.57 7.75 3.17 11.6 4.802l.2-.486c3.87 1.639 7.73 3.308 11.56 5.008l-.21.481c3.84 1.699 7.65 3.428 11.45 5.187l.22-.477q5.715 2.642 11.37 5.372l-.23.474c3.78 1.825 7.54 3.681 11.29 5.567l.23-.472q5.625 2.83 11.19 5.751l-.24.465a733 733 0 0 1 11.08 5.922l.25-.461q5.535 3.013 11.01 6.114l-.26.46q5.475 3.1 10.89 6.286l.26-.453c3.62 2.126 7.21 4.282 10.79 6.466l-.27.448q5.37 3.28 10.68 6.643l.28-.445c3.54 2.245 7.07 4.517 10.57 6.817l-.28.441c3.5 2.3 6.98 4.627 10.45 6.982l.29-.434q5.205 3.54 10.35 7.162l-.3.43c3.43 2.413 6.83 4.854 10.22 7.322l.31-.427q5.085 3.706 10.11 7.492l-.32.42c3.35 2.525 6.67 5.077 9.98 7.654l.32-.415c3.31 2.58 6.59 5.185 9.86 7.817l-.33.41q4.89 3.947 9.72 7.972l.34-.407q4.83 4.031 9.6 8.139l-.34.399a804 804 0 0 1 9.45 8.283l.35-.393q4.695 4.183 9.33 8.442l-.36.387c3.09 2.838 6.15 5.7 9.19 8.588l.36-.382a756 756 0 0 1 9.05 8.743l-.37.376a760 760 0 0 1 8.9 8.88l.38-.369q4.41 4.48 8.76 9.03l-.38.365c2.89 3.032 5.76 6.088 8.6 9.167l.39-.358q4.26 4.62 8.46 9.312l-.39.35a783 783 0 0 1 8.3 9.44l.4-.343q4.11 4.758 8.16 9.582l-.41.339c2.69 3.213 5.35 6.449 7.99 9.706l.41-.331a793 793 0 0 1 7.84 9.842l-.42.324q3.885 4.95 7.68 9.964l.42-.317c2.53 3.342 5.03 6.706 7.51 10.09l-.43.31c2.48 3.382 4.92 6.784 7.34 10.207l.43-.303c2.42 3.425 4.82 6.87 7.19 10.336l-.44.297c2.36 3.459 4.7 6.938 7 10.438l.44-.29q3.465 5.25 6.84 10.56l-.44.283q3.375 5.306 6.66 10.67l.45-.274q3.285 5.358 6.48 10.773l-.45.269c2.13 3.606 4.23 7.232 6.31 10.876l.45-.261c2.08 3.647 4.12 7.313 6.14 10.996l-.46.252q3.015 5.508 5.94 11.071l.46-.245c1.96 3.709 3.88 7.435 5.77 11.18l-.47.238c1.89 3.742 3.76 7.502 5.59 11.278l.47-.229c1.83 3.768 3.62 7.554 5.39 11.356l-.48.221c1.77 3.798 3.5 7.613 5.21 11.444l.48-.214c1.71 3.834 3.38 7.685 5.02 11.551l-.48.206a781 781 0 0 1 4.82 11.598l.48-.198a690 690 0 0 1 4.64 11.695l-.49.191c1.51 3.911 3 7.838 4.45 11.78l.49-.183c1.44 3.928 2.86 7.87 4.24 11.827l-.5.173c1.39 3.953 2.73 7.922 4.05 11.904l.5-.166a698 698 0 0 1 3.86 11.997l-.5.157a798 798 0 0 1 3.65 12.011l.5-.149c1.18 4.019 2.34 8.05 3.46 12.096l-.51.14c1.12 4.043 2.2 8.1 3.26 12.169l.51-.132c1.04 4.048 2.06 8.109 3.04 12.182l-.51.124q1.485 6.103 2.85 12.243l.52-.115c.92 4.096 1.8 8.205 2.65 12.325l-.51.108c.84 4.091 1.66 8.193 2.44 12.307l.52-.098c.78 4.114 1.52 8.24 2.24 12.377l-.52.09q1.065 6.2 2.04 12.434l.52-.081q.975 6.195 1.83 12.423l-.52.072c.58 4.143 1.12 8.296 1.63 12.46l.52-.064c.51 4.166.99 8.343 1.43 12.53l-.52.056c.44 4.154.84 8.318 1.22 12.492z" stroke="url(#b)" stroke-width="1.056" stroke-dasharray="12.67 12.67"/><circle cx="794.694" cy="464.999" r="524.386" stroke="url(#c)" stroke-width="100.336"/><circle opacity=".5" cx="794.688" cy="466.055" r="474.746" stroke="#fff" stroke-width="1.056" stroke-dasharray="12.67 12.67"/><circle opacity=".5" cx="801.557" cy="462.358" r="568.216" stroke="url(#d)" stroke-width="1.056" stroke-dasharray="12.67 12.67"/></g><defs><linearGradient id="b" x1="1340.2" y1="-20.835" x2="-13.802" y2="524.673" gradientUnits="userSpaceOnUse"><stop stop-color="#fff"/><stop offset="1" stop-color="#999" stop-opacity=".56"/></linearGradient><linearGradient id="c" x1="1283.15" y1="686.386" x2="372.418" y2="495.454" gradientUnits="userSpaceOnUse"><stop stop-color="#5b6fff"/><stop offset="1" stop-color="#09090b" stop-opacity="0"/></linearGradient><linearGradient id="d" x1="801.557" y1="-106.387" x2="308.856" y2="776.567" gradientUnits="userSpaceOnUse"><stop stop-color="#fff"/><stop offset="1" stop-color="#999" stop-opacity=".75"/></linearGradient><clipPath id="a"><path fill="#fff" d="M0 0h1600v982H0z"/></clipPath></defs></svg>