<svg width="72" height="35" viewBox="0 0 72 35" fill="none" xmlns="http://www.w3.org/2000/svg">
<path d="M1.76497 21.0584V21.6467H1.17664V21.0584H1.76497ZM1.76497 20.4701V21.0584H1.17664V20.4701H1.76497ZM1.76497 19.8817V20.4701H1.17664V19.8817H1.76497ZM1.76497 19.2934V19.8817H1.17664V19.2934H1.76497ZM1.76497 18.7051V19.2934H1.17664V18.7051H1.76497ZM1.76497 18.1168V18.7051H1.17664V18.1168H1.76497ZM1.76497 17.5285V18.1168H1.17664V17.5285H1.76497ZM1.76497 16.9401V17.5285H1.17664V16.9401H1.76497ZM1.76497 16.3518V16.9401H1.17664V16.3518H1.76497ZM1.76497 15.7635V16.3518H1.17664V15.7635H1.76497ZM1.76497 15.1752V15.7635H1.17664V15.1752H1.76497ZM2.35329 15.1752V15.7635H1.76497V15.1752H2.35329ZM2.35329 15.7635V16.3518H1.76497V15.7635H2.35329ZM2.35329 16.3518V16.9401H1.76497V16.3518H2.35329ZM2.35329 16.9401V17.5285H1.76497V16.9401H2.35329ZM2.35329 17.5285V18.1168H1.76497V17.5285H2.35329ZM2.35329 18.1168V18.7051H1.76497V18.1168H2.35329ZM2.35329 18.7051V19.2934H1.76497V18.7051H2.35329ZM2.94161 19.2934V19.8817H2.35329V19.2934H2.94161ZM2.94161 19.8817V20.4701H2.35329V19.8817H2.94161ZM2.94161 20.4701V21.0584H2.35329V20.4701H2.94161ZM2.94161 21.0584V21.6467H2.35329V21.0584H2.94161ZM2.94161 21.6467V22.235H2.35329V21.6467H2.94161ZM2.94161 22.235V22.8234H2.35329V22.235H2.94161ZM2.94161 22.8234V23.4117H2.35329V22.8234H2.94161ZM4.11825 23.4117V24H3.52993V23.4117H4.11825ZM4.11825 22.8234V23.4117H3.52993V22.8234H4.11825ZM4.11825 22.235V22.8234H3.52993V22.235H4.11825ZM4.11825 21.6467V22.235H3.52993V21.6467H4.11825ZM4.11825 21.0584V21.6467H3.52993V21.0584H4.11825ZM4.11825 20.4701V21.0584H3.52993V20.4701H4.11825ZM4.11825 19.8817V20.4701H3.52993V19.8817H4.11825ZM4.11825 19.2934V19.8817H3.52993V19.2934H4.11825ZM3.52993 19.2934V19.8817H2.94161V19.2934H3.52993ZM3.52993 18.7051V19.2934H2.94161V18.7051H3.52993ZM3.52993 19.8817V20.4701H2.94161V19.8817H3.52993ZM3.52993 20.4701V21.0584H2.94161V20.4701H3.52993ZM3.52993 21.0584V21.6467H2.94161V21.0584H3.52993ZM3.52993 21.6467V22.235H2.94161V21.6467H3.52993ZM3.52993 22.235V22.8234H2.94161V22.235H3.52993ZM3.52993 22.8234V23.4117H2.94161V22.8234H3.52993ZM2.35329 22.235V22.8234H1.76497V22.235H2.35329ZM2.35329 21.6467V22.235H1.76497V21.6467H2.35329ZM2.35329 21.0584V21.6467H1.76497V21.0584H2.35329ZM2.35329 20.4701V21.0584H1.76497V20.4701H2.35329ZM2.35329 19.8817V20.4701H1.76497V19.8817H2.35329ZM2.35329 19.2934V19.8817H1.76497V19.2934H2.35329ZM1.76497 14.5869V15.1752H1.17664V14.5869H1.76497ZM3.52993 14.5869V15.1752H2.94161V14.5869H3.52993ZM3.52993 15.1752V15.7635H2.94161V15.1752H3.52993ZM3.52993 15.7635V16.3518H2.94161V15.7635H3.52993ZM3.52993 16.3518V16.9401H2.94161V16.3518H3.52993ZM3.52993 16.9401V17.5285H2.94161V16.9401H3.52993ZM4.11825 17.5285V18.1168H3.52993V17.5285H4.11825ZM4.11825 18.1168V18.7051H3.52993V18.1168H4.11825ZM4.11825 18.7051V19.2934H3.52993V18.7051H4.11825ZM4.11825 16.9401V17.5285H3.52993V16.9401H4.11825ZM4.11825 16.3518V16.9401H3.52993V16.3518H4.11825ZM4.11825 15.7635V16.3518H3.52993V15.7635H4.11825ZM4.11825 15.1752V15.7635H3.52993V15.1752H4.11825ZM4.11825 14.5869V15.1752H3.52993V14.5869H4.11825ZM2.35329 14.5869V15.1752H1.76497V14.5869H2.35329ZM2.94161 14.5869V15.1752H2.35329V14.5869H2.94161ZM2.94161 15.1752V15.7635H2.35329V15.1752H2.94161ZM2.94161 15.7635V16.3518H2.35329V15.7635H2.94161ZM2.94161 16.3518V16.9401H2.35329V16.3518H2.94161ZM2.94161 16.9401V17.5285H2.35329V16.9401H2.94161ZM2.94161 17.5285V18.1168H2.35329V17.5285H2.94161ZM2.94161 18.1168V18.7051H2.35329V18.1168H2.94161ZM2.94161 18.7051V19.2934H2.35329V18.7051H2.94161ZM3.52993 18.1168V18.7051H2.94161V18.1168H3.52993ZM3.52993 17.5285V18.1168H2.94161V17.5285H3.52993ZM8.82483 23.4117V24H8.2365V23.4117H8.82483ZM8.82483 22.8234V23.4117H8.2365V22.8234H8.82483ZM8.82483 22.235V22.8234H8.2365V22.235H8.82483ZM8.82483 21.6467V22.235H8.2365V21.6467H8.82483ZM8.82483 21.0584V21.6467H8.2365V21.0584H8.82483ZM8.82483 20.4701V21.0584H8.2365V20.4701H8.82483ZM8.82483 19.8817V20.4701H8.2365V19.8817H8.82483ZM10.0015 19.8817V20.4701H9.41315V19.8817H10.0015ZM10.0015 20.4701V21.0584H9.41315V20.4701H10.0015ZM10.0015 21.0584V21.6467H9.41315V21.0584H10.0015ZM10.0015 21.6467V22.235H9.41315V21.6467H10.0015ZM10.0015 22.235V22.8234H9.41315V22.235H10.0015ZM10.0015 22.8234V23.4117H9.41315V22.8234H10.0015ZM11.1781 21.0584V21.6467H10.5898V21.0584H11.1781ZM11.1781 20.4701V21.0584H10.5898V20.4701H11.1781ZM11.1781 19.8817V20.4701H10.5898V19.8817H11.1781ZM10.5898 19.8817V20.4701H10.0015V19.8817H10.5898ZM10.5898 20.4701V21.0584H10.0015V20.4701H10.5898ZM10.5898 21.0584V21.6467H10.0015V21.0584H10.5898ZM10.5898 21.6467V22.235H10.0015V21.6467H10.5898ZM10.5898 22.235V22.8234H10.0015V22.235H10.5898ZM9.41315 22.8234V23.4117H8.82483V22.8234H9.41315ZM9.41315 22.235V22.8234H8.82483V22.235H9.41315ZM9.41315 21.6467V22.235H8.82483V21.6467H9.41315ZM9.41315 21.0584V21.6467H8.82483V21.0584H9.41315ZM9.41315 20.4701V21.0584H8.82483V20.4701H9.41315ZM9.41315 19.8817V20.4701H8.82483V19.8817H9.41315ZM4.70657 23.4117V24H4.11825V23.4117H4.70657ZM5.2949 23.4117V24H4.70657V23.4117H5.2949ZM5.88322 23.4117V24H5.2949V23.4117H5.88322ZM6.47154 23.4117V24H5.88322V23.4117H6.47154ZM7.64818 23.4117V24H7.05986V23.4117H7.64818ZM8.2365 23.4117V24H7.64818V23.4117H8.2365ZM8.2365 22.8234V23.4117H7.64818V22.8234H8.2365ZM7.64818 22.8234V23.4117H7.05986V22.8234H7.64818ZM6.47154 22.8234V23.4117H5.88322V22.8234H6.47154ZM5.88322 22.8234V23.4117H5.2949V22.8234H5.88322ZM5.2949 22.8234V23.4117H4.70657V22.8234H5.2949ZM4.70657 22.8234V23.4117H4.11825V22.8234H4.70657ZM4.70657 22.235V22.8234H4.11825V22.235H4.70657ZM5.2949 22.235V22.8234H4.70657V22.235H5.2949ZM5.88322 22.235V22.8234H5.2949V22.235H5.88322ZM6.47154 22.235V22.8234H5.88322V22.235H6.47154ZM7.64818 22.235V22.8234H7.05986V22.235H7.64818ZM8.2365 22.235V22.8234H7.64818V22.235H8.2365ZM8.2365 21.6467V22.235H7.64818V21.6467H8.2365ZM7.64818 21.6467V22.235H7.05986V21.6467H7.64818ZM6.47154 21.6467V22.235H5.88322V21.6467H6.47154ZM5.88322 21.6467V22.235H5.2949V21.6467H5.88322ZM5.2949 21.6467V22.235H4.70657V21.6467H5.2949ZM4.70657 21.6467V22.235H4.11825V21.6467H4.70657ZM4.70657 21.0584V21.6467H4.11825V21.0584H4.70657ZM8.2365 21.0584V21.6467H7.64818V21.0584H8.2365ZM10.5898 12.2336V11.6452H11.1781V12.2336H10.5898ZM10.5898 12.8219V12.2336H11.1781V12.8219H10.5898ZM10.5898 13.4102V12.8219H11.1781V13.4102H10.5898ZM9.41315 13.4102V12.8219H10.0015V13.4102H9.41315ZM9.41315 12.8219V12.2336H10.0015V12.8219H9.41315ZM9.41315 12.2336V11.6452H10.0015V12.2336H9.41315ZM9.41315 11.6452V11.0569H10.0015V11.6452H9.41315ZM9.41315 11.0569V10.4686H10.0015V11.0569H9.41315ZM9.41315 10.4686V9.88028H10.0015V10.4686H9.41315ZM8.2365 9.88028V9.29196H8.82483V9.88028H8.2365ZM8.2365 10.4686V9.88028H8.82483V10.4686H8.2365ZM8.2365 11.0569V10.4686H8.82483V11.0569H8.2365ZM8.2365 11.6452V11.0569H8.82483V11.6452H8.2365ZM8.2365 12.2336V11.6452H8.82483V12.2336H8.2365ZM8.2365 12.8219V12.2336H8.82483V12.8219H8.2365ZM8.2365 13.4102V12.8219H8.82483V13.4102H8.2365ZM8.82483 13.4102V12.8219H9.41315V13.4102H8.82483ZM8.82483 12.8219V12.2336H9.41315V12.8219H8.82483ZM8.82483 12.2336V11.6452H9.41315V12.2336H8.82483ZM8.82483 11.6452V11.0569H9.41315V11.6452H8.82483ZM8.82483 11.0569V10.4686H9.41315V11.0569H8.82483ZM8.82483 10.4686V9.88028H9.41315V10.4686H8.82483ZM10.0015 11.0569V10.4686H10.5898V11.0569H10.0015ZM10.0015 11.6452V11.0569H10.5898V11.6452H10.0015ZM10.0015 12.2336V11.6452H10.5898V12.2336H10.0015ZM10.0015 12.8219V12.2336H10.5898V12.8219H10.0015ZM10.0015 13.4102V12.8219H10.5898V13.4102H10.0015ZM3.52993 9.88028V9.29196H4.11825V9.88028H3.52993ZM3.52993 10.4686V9.88028H4.11825V10.4686H3.52993ZM3.52993 11.0569V10.4686H4.11825V11.0569H3.52993ZM3.52993 11.6452V11.0569H4.11825V11.6452H3.52993ZM3.52993 12.2336V11.6452H4.11825V12.2336H3.52993ZM3.52993 12.8219V12.2336H4.11825V12.8219H3.52993ZM3.52993 13.4102V12.8219H4.11825V13.4102H3.52993ZM2.35329 13.4102V12.8219H2.94161V13.4102H2.35329ZM2.35329 12.8219V12.2336H2.94161V12.8219H2.35329ZM2.35329 12.2336V11.6452H2.94161V12.2336H2.35329ZM2.35329 11.6452V11.0569H2.94161V11.6452H2.35329ZM2.35329 11.0569V10.4686H2.94161V11.0569H2.35329ZM2.35329 10.4686V9.88028H2.94161V10.4686H2.35329ZM1.17664 12.2336V11.6452H1.76497V12.2336H1.17664ZM1.17664 12.8219V12.2336H1.76497V12.8219H1.17664ZM1.17664 13.4102V12.8219H1.76497V13.4102H1.17664ZM1.76497 13.4102V12.8219H2.35329V13.4102H1.76497ZM1.76497 12.8219V12.2336H2.35329V12.8219H1.76497ZM1.76497 12.2336V11.6452H2.35329V12.2336H1.76497ZM1.76497 11.6452V11.0569H2.35329V11.6452H1.76497ZM1.76497 11.0569V10.4686H2.35329V11.0569H1.76497ZM2.94161 10.4686V9.88028H3.52993V10.4686H2.94161ZM2.94161 11.0569V10.4686H3.52993V11.0569H2.94161ZM2.94161 11.6452V11.0569H3.52993V11.6452H2.94161ZM2.94161 12.2336V11.6452H3.52993V12.2336H2.94161ZM2.94161 12.8219V12.2336H3.52993V12.8219H2.94161ZM2.94161 13.4102V12.8219H3.52993V13.4102H2.94161ZM7.64818 9.88028V9.29196H8.2365V9.88028H7.64818ZM7.05986 9.88028V9.29196H7.64818V9.88028H7.05986ZM5.88322 9.88028V9.29196H6.47154V9.88028H5.88322ZM5.2949 9.88028V9.29196H5.88322V9.88028H5.2949ZM4.70657 9.88028V9.29196H5.2949V9.88028H4.70657ZM4.11825 9.88028V9.29196H4.70657V9.88028H4.11825ZM4.11825 10.4686V9.88028H4.70657V10.4686H4.11825ZM4.70657 10.4686V9.88028H5.2949V10.4686H4.70657ZM5.2949 10.4686V9.88028H5.88322V10.4686H5.2949ZM5.88322 10.4686V9.88028H6.47154V10.4686H5.88322ZM7.05986 10.4686V9.88028H7.64818V10.4686H7.05986ZM7.64818 10.4686V9.88028H8.2365V10.4686H7.64818ZM7.64818 11.0569V10.4686H8.2365V11.0569H7.64818ZM7.05986 11.0569V10.4686H7.64818V11.0569H7.05986ZM5.88322 11.0569V10.4686H6.47154V11.0569H5.88322ZM5.2949 11.0569V10.4686H5.88322V11.0569H5.2949ZM4.70657 11.0569V10.4686H5.2949V11.0569H4.70657ZM4.11825 11.0569V10.4686H4.70657V11.0569H4.11825ZM4.11825 11.6452V11.0569H4.70657V11.6452H4.11825ZM4.70657 11.6452V11.0569H5.2949V11.6452H4.70657ZM5.2949 11.6452V11.0569H5.88322V11.6452H5.2949ZM5.88322 11.6452V11.0569H6.47154V11.6452H5.88322ZM7.05986 11.6452V11.0569H7.64818V11.6452H7.05986ZM7.64818 11.6452V11.0569H8.2365V11.6452H7.64818ZM7.64818 12.2336V11.6452H8.2365V12.2336H7.64818ZM4.11825 12.2336V11.6452H4.70657V12.2336H4.11825ZM1.76497 13.9985V14.5869H1.17664V13.9985H1.76497ZM2.35329 13.9985V14.5869H1.76497V13.9985H2.35329ZM1.76497 13.4102V13.9985H1.17664V13.4102H1.76497ZM3.52993 13.4102V13.9985H2.94161V13.4102H3.52993ZM3.52993 13.9985V14.5869H2.94161V13.9985H3.52993ZM4.11825 13.9985V14.5869H3.52993V13.9985H4.11825ZM4.11825 13.4102V13.9985H3.52993V13.4102H4.11825ZM2.35329 13.4102V13.9985H1.76497V13.4102H2.35329ZM2.94161 13.4102V13.9985H2.35329V13.4102H2.94161ZM2.94161 13.9985V14.5869H2.35329V13.9985H2.94161ZM6.47154 15.7635V16.3518H5.88322V15.7635H6.47154ZM6.47154 16.3518V16.9401H5.88322V16.3518H6.47154ZM7.64818 16.3518V16.9401H7.05986V16.3518H7.64818ZM8.2365 16.3518V16.9401H7.64818V16.3518H8.2365ZM8.82483 16.3518V16.9401H8.2365V16.3518H8.82483ZM9.41315 16.3518V16.9401H8.82483V16.3518H9.41315ZM10.0015 16.3518V16.9401H9.41315V16.3518H10.0015ZM10.5898 16.3518V16.9401H10.0015V16.3518H10.5898ZM11.1781 15.7635V16.3518H10.5898V15.7635H11.1781ZM10.5898 15.7635V16.3518H10.0015V15.7635H10.5898ZM10.0015 15.7635V16.3518H9.41315V15.7635H10.0015ZM9.41315 15.7635V16.3518H8.82483V15.7635H9.41315ZM8.82483 15.7635V16.3518H8.2365V15.7635H8.82483ZM8.2365 15.7635V16.3518H7.64818V15.7635H8.2365ZM7.64818 15.7635V16.3518H7.05986V15.7635H7.64818ZM11.1781 16.3518V16.9401H10.5898V16.3518H11.1781ZM11.1781 16.9401V17.5285H10.5898V16.9401H11.1781ZM11.1781 17.5285V18.1168H10.5898V17.5285H11.1781ZM11.1781 18.1168V18.7051H10.5898V18.1168H11.1781ZM11.1781 18.7051V19.2934H10.5898V18.7051H11.1781ZM11.1781 19.2934V19.8817H10.5898V19.2934H11.1781ZM10.5898 19.2934V19.8817H10.0015V19.2934H10.5898ZM10.0015 19.2934V19.8817H9.41315V19.2934H10.0015ZM9.41315 19.2934V19.8817H8.82483V19.2934H9.41315ZM8.82483 19.2934V19.8817H8.2365V19.2934H8.82483ZM8.82483 18.7051V19.2934H8.2365V18.7051H8.82483ZM9.41315 18.7051V19.2934H8.82483V18.7051H9.41315ZM10.0015 18.7051V19.2934H9.41315V18.7051H10.0015ZM10.5898 18.7051V19.2934H10.0015V18.7051H10.5898ZM10.5898 18.1168V18.7051H10.0015V18.1168H10.5898ZM10.0015 18.1168V18.7051H9.41315V18.1168H10.0015ZM9.41315 18.1168V18.7051H8.82483V18.1168H9.41315ZM8.82483 18.1168V18.7051H8.2365V18.1168H8.82483ZM6.47154 16.9401V17.5285H5.88322V16.9401H6.47154ZM6.47154 17.5285V18.1168H5.88322V17.5285H6.47154ZM7.64818 17.5285V18.1168H7.05986V17.5285H7.64818ZM8.2365 17.5285V18.1168H7.64818V17.5285H8.2365ZM8.82483 17.5285V18.1168H8.2365V17.5285H8.82483ZM9.41315 17.5285V18.1168H8.82483V17.5285H9.41315ZM10.0015 17.5285V18.1168H9.41315V17.5285H10.0015ZM10.5898 17.5285V18.1168H10.0015V17.5285H10.5898ZM10.5898 16.9401V17.5285H10.0015V16.9401H10.5898ZM10.0015 16.9401V17.5285H9.41315V16.9401H10.0015ZM9.41315 16.9401V17.5285H8.82483V16.9401H9.41315ZM8.82483 16.9401V17.5285H8.2365V16.9401H8.82483ZM8.2365 16.9401V17.5285H7.64818V16.9401H8.2365ZM7.64818 16.9401V17.5285H7.05986V16.9401H7.64818ZM5.2949 21.0584V21.6467H4.70657V21.0584H5.2949ZM5.88322 21.0584V21.6467H5.2949V21.0584H5.88322ZM6.47154 21.0584V21.6467H5.88322V21.0584H6.47154ZM7.64818 21.0584V21.6467H7.05986V21.0584H7.64818ZM8.2365 20.4701V21.0584H7.64818V20.4701H8.2365ZM4.70657 20.4701V21.0584H4.11825V20.4701H4.70657ZM5.2949 11.6452V12.2336H4.70657V11.6452H5.2949ZM5.88322 11.6452V12.2336H5.2949V11.6452H5.88322ZM6.47154 11.6452V12.2336H5.88322V11.6452H6.47154ZM7.64818 11.6452V12.2336H7.05986V11.6452H7.64818ZM4.70657 12.2336V12.8219H4.11825V12.2336H4.70657ZM8.2365 12.2336V12.8219H7.64818V12.2336H8.2365ZM8.82483 13.4102V13.9985H8.2365V13.4102H8.82483ZM9.41315 13.4102V13.9985H8.82483V13.4102H9.41315ZM10.0015 13.4102V13.9985H9.41315V13.4102H10.0015ZM10.5898 13.4102V13.9985H10.0015V13.4102H10.5898ZM11.1781 13.4102V13.9985H10.5898V13.4102H11.1781ZM6.47154 18.1168V18.7051H5.88322V18.1168H6.47154ZM7.64818 18.1168V18.7051H7.05986V18.1168H7.64818ZM8.2365 18.1168V18.7051H7.64818V18.1168H8.2365ZM7.05986 9.29196V9.88028H6.47154V9.29196H7.05986ZM7.05986 9.88028V10.4686H6.47154V9.88028H7.05986ZM7.05986 10.4686V11.0569H6.47154V10.4686H7.05986ZM7.05986 11.0569V11.6452H6.47154V11.0569H7.05986ZM7.05986 11.6452V12.2336H6.47154V11.6452H7.05986ZM7.05986 15.7635V16.3518H6.47154V15.7635H7.05986ZM7.05986 16.3518V16.9401H6.47154V16.3518H7.05986ZM7.05986 16.9401V17.5285H6.47154V16.9401H7.05986ZM7.05986 17.5285V18.1168H6.47154V17.5285H7.05986ZM7.05986 18.1168V18.7051H6.47154V18.1168H7.05986ZM7.05986 21.0584V21.6467H6.47154V21.0584H7.05986ZM7.05986 21.6467V22.235H6.47154V21.6467H7.05986ZM7.05986 22.235V22.8234H6.47154V22.235H7.05986ZM7.05986 22.8234V23.4117H6.47154V22.8234H7.05986ZM7.05986 23.4117V24H6.47154V23.4117H7.05986ZM19.9914 16.3518V16.9401H19.4031V16.3518H19.9914ZM20.5798 16.3518V16.9401H19.9914V16.3518H20.5798ZM21.1681 16.3518V16.9401H20.5798V16.3518H21.1681ZM21.7564 16.3518V16.9401H21.1681V16.3518H21.7564ZM22.3447 16.3518V16.9401H21.7564V16.3518H22.3447ZM22.3447 15.7635V16.3518H21.7564V15.7635H22.3447ZM22.3447 15.1752V15.7635H21.7564V15.1752H22.3447ZM21.7564 15.1752V15.7635H21.1681V15.1752H21.7564ZM21.1681 15.1752V15.7635H20.5798V15.1752H21.1681ZM20.5798 15.1752V15.7635H19.9914V15.1752H20.5798ZM20.5798 15.7635V16.3518H19.9914V15.7635H20.5798ZM19.9914 15.7635V16.3518H19.4031V15.7635H19.9914ZM21.1681 15.7635V16.3518H20.5798V15.7635H21.1681ZM21.7564 15.7635V16.3518H21.1681V15.7635H21.7564ZM19.9914 15.1752V15.7635H19.4031V15.1752H19.9914ZM19.4031 15.1752V15.7635H18.8148V15.1752H19.4031ZM19.4031 14.5869V15.1752H18.8148V14.5869H19.4031ZM19.9914 14.5869V15.1752H19.4031V14.5869H19.9914ZM20.5798 14.5869V15.1752H19.9914V14.5869H20.5798ZM21.1681 14.5869V15.1752H20.5798V14.5869H21.1681ZM21.7564 14.5869V15.1752H21.1681V14.5869H21.7564ZM21.7564 13.9985V14.5869H21.1681V13.9985H21.7564ZM21.1681 13.9985V14.5869H20.5798V13.9985H21.1681ZM20.5798 13.9985V14.5869H19.9914V13.9985H20.5798ZM19.9914 13.9985V14.5869H19.4031V13.9985H19.9914ZM19.4031 13.9985V14.5869H18.8148V13.9985H19.4031ZM20.5798 13.4102V13.9985H19.9914V13.4102H20.5798ZM21.1681 13.4102V13.9985H20.5798V13.4102H21.1681ZM19.9914 13.4102V13.9985H19.4031V13.4102H19.9914ZM19.9914 12.8219V13.4102H19.4031V12.8219H19.9914ZM19.4031 12.8219V13.4102H18.8148V12.8219H19.4031ZM19.4031 13.4102V13.9985H18.8148V13.4102H19.4031ZM18.8148 13.4102V13.9985H18.2265V13.4102H18.8148ZM18.8148 12.8219V13.4102H18.2265V12.8219H18.8148ZM18.8148 13.9985V14.5869H18.2265V13.9985H18.8148ZM18.2265 13.9985V14.5869H17.6382V13.9985H18.2265ZM18.2265 14.5869V15.1752H17.6382V14.5869H18.2265ZM18.8148 14.5869V15.1752H18.2265V14.5869H18.8148ZM17.6382 14.5869V15.1752H17.0498V14.5869H17.6382ZM17.6382 13.9985V14.5869H17.0498V13.9985H17.6382ZM17.6382 13.4102V13.9985H17.0498V13.4102H17.6382ZM17.6382 12.8219V13.4102H17.0498V12.8219H17.6382ZM18.2265 12.8219V13.4102H17.6382V12.8219H18.2265ZM18.2265 13.4102V13.9985H17.6382V13.4102H18.2265ZM17.0498 12.8219V13.4102H16.4615V12.8219H17.0498ZM16.4615 12.8219V13.4102H15.8732V12.8219H16.4615ZM15.8732 12.8219V13.4102H15.2849V12.8219H15.8732ZM15.8732 13.4102V13.9985H15.2849V13.4102H15.8732ZM15.8732 13.9985V14.5869H15.2849V13.9985H15.8732ZM15.8732 14.5869V15.1752H15.2849V14.5869H15.8732ZM16.4615 14.5869V15.1752H15.8732V14.5869H16.4615ZM17.0498 14.5869V15.1752H16.4615V14.5869H17.0498ZM17.0498 13.9985V14.5869H16.4615V13.9985H17.0498ZM17.0498 13.4102V13.9985H16.4615V13.4102H17.0498ZM16.4615 13.4102V13.9985H15.8732V13.4102H16.4615ZM16.4615 13.9985V14.5869H15.8732V13.9985H16.4615ZM15.2849 13.9985V14.5869H14.6966V13.9985H15.2849ZM15.2849 13.4102V13.9985H14.6966V13.4102H15.2849ZM14.6966 13.4102V13.9985H14.1082V13.4102H14.6966ZM14.6966 13.9985V14.5869H14.1082V13.9985H14.6966ZM14.1082 13.9985V14.5869H13.5199V13.9985H14.1082ZM14.1082 14.5869V15.1752H13.5199V14.5869H14.1082ZM14.1082 15.1752V15.7635H13.5199V15.1752H14.1082ZM14.6966 15.1752V15.7635H14.1082V15.1752H14.6966ZM14.6966 14.5869V15.1752H14.1082V14.5869H14.6966ZM15.2849 14.5869V15.1752H14.6966V14.5869H15.2849ZM15.2849 15.1752V15.7635H14.6966V15.1752H15.2849ZM15.8732 15.1752V15.7635H15.2849V15.1752H15.8732ZM16.4615 15.1752V15.7635H15.8732V15.1752H16.4615ZM13.5199 15.1752V15.7635H12.9316V15.1752H13.5199ZM13.5199 15.7635V16.3518H12.9316V15.7635H13.5199ZM13.5199 16.3518V16.9401H12.9316V16.3518H13.5199ZM13.5199 16.9401V17.5285H12.9316V16.9401H13.5199ZM13.5199 17.5285V18.1168H12.9316V17.5285H13.5199ZM13.5199 18.1168V18.7051H12.9316V18.1168H13.5199ZM13.5199 18.7051V19.2934H12.9316V18.7051H13.5199ZM13.5199 19.2934V19.8817H12.9316V19.2934H13.5199ZM13.5199 19.8817V20.4701H12.9316V19.8817H13.5199ZM13.5199 20.4701V21.0584H12.9316V20.4701H13.5199ZM14.1082 20.4701V21.0584H13.5199V20.4701H14.1082ZM14.1082 21.0584V21.6467H13.5199V21.0584H14.1082ZM13.5199 21.0584V21.6467H12.9316V21.0584H13.5199ZM14.6966 21.0584V21.6467H14.1082V21.0584H14.6966ZM15.2849 21.0584V21.6467H14.6966V21.0584H15.2849ZM15.8732 21.0584V21.6467H15.2849V21.0584H15.8732ZM16.4615 21.0584V21.6467H15.8732V21.0584H16.4615ZM15.8732 20.4701V21.0584H15.2849V20.4701H15.8732ZM15.8732 19.8817V20.4701H15.2849V19.8817H15.8732ZM15.8732 19.2934V19.8817H15.2849V19.2934H15.8732ZM15.8732 18.7051V19.2934H15.2849V18.7051H15.8732ZM15.8732 18.1168V18.7051H15.2849V18.1168H15.8732ZM15.8732 17.5285V18.1168H15.2849V17.5285H15.8732ZM15.8732 16.9401V17.5285H15.2849V16.9401H15.8732ZM15.8732 16.3518V16.9401H15.2849V16.3518H15.8732ZM15.8732 15.7635V16.3518H15.2849V15.7635H15.8732ZM15.2849 15.7635V16.3518H14.6966V15.7635H15.2849ZM14.6966 15.7635V16.3518H14.1082V15.7635H14.6966ZM14.1082 15.7635V16.3518H13.5199V15.7635H14.1082ZM14.1082 16.3518V16.9401H13.5199V16.3518H14.1082ZM14.1082 16.9401V17.5285H13.5199V16.9401H14.1082ZM14.1082 17.5285V18.1168H13.5199V17.5285H14.1082ZM14.1082 18.1168V18.7051H13.5199V18.1168H14.1082ZM14.1082 18.7051V19.2934H13.5199V18.7051H14.1082ZM14.1082 19.2934V19.8817H13.5199V19.2934H14.1082ZM14.1082 19.8817V20.4701H13.5199V19.8817H14.1082ZM14.6966 20.4701V21.0584H14.1082V20.4701H14.6966ZM15.2849 20.4701V21.0584H14.6966V20.4701H15.2849ZM15.2849 19.8817V20.4701H14.6966V19.8817H15.2849ZM15.2849 19.2934V19.8817H14.6966V19.2934H15.2849ZM15.2849 18.7051V19.2934H14.6966V18.7051H15.2849ZM15.2849 18.1168V18.7051H14.6966V18.1168H15.2849ZM14.6966 18.1168V18.7051H14.1082V18.1168H14.6966ZM14.6966 17.5285V18.1168H14.1082V17.5285H14.6966ZM14.6966 16.9401V17.5285H14.1082V16.9401H14.6966ZM14.6966 16.3518V16.9401H14.1082V16.3518H14.6966ZM15.2849 16.3518V16.9401H14.6966V16.3518H15.2849ZM15.2849 16.9401V17.5285H14.6966V16.9401H15.2849ZM15.2849 17.5285V18.1168H14.6966V17.5285H15.2849ZM14.6966 19.2934V19.8817H14.1082V19.2934H14.6966ZM14.6966 19.8817V20.4701H14.1082V19.8817H14.6966ZM14.6966 18.7051V19.2934H14.1082V18.7051H14.6966ZM19.9914 19.8817V20.4701H19.4031V19.8817H19.9914ZM19.9914 20.4701V21.0584H19.4031V20.4701H19.9914ZM20.5798 20.4701V21.0584H19.9914V20.4701H20.5798ZM21.1681 20.4701V21.0584H20.5798V20.4701H21.1681ZM21.7564 20.4701V21.0584H21.1681V20.4701H21.7564ZM22.3447 20.4701V21.0584H21.7564V20.4701H22.3447ZM22.3447 19.8817V20.4701H21.7564V19.8817H22.3447ZM21.7564 19.8817V20.4701H21.1681V19.8817H21.7564ZM21.1681 19.8817V20.4701H20.5798V19.8817H21.1681ZM20.5798 19.8817V20.4701H19.9914V19.8817H20.5798ZM22.3447 21.0584V21.6467H21.7564V21.0584H22.3447ZM21.7564 21.0584V21.6467H21.1681V21.0584H21.7564ZM21.1681 21.0584V21.6467H20.5798V21.0584H21.1681ZM20.5798 21.0584V21.6467H19.9914V21.0584H20.5798ZM19.9914 21.0584V21.6467H19.4031V21.0584H19.9914ZM19.4031 21.0584V21.6467H18.8148V21.0584H19.4031ZM19.4031 21.6467V22.235H18.8148V21.6467H19.4031ZM19.9914 21.6467V22.235H19.4031V21.6467H19.9914ZM20.5798 21.6467V22.235H19.9914V21.6467H20.5798ZM21.1681 21.6467V22.235H20.5798V21.6467H21.1681ZM21.1681 22.235V22.8234H20.5798V22.235H21.1681ZM21.7564 22.235V22.8234H21.1681V22.235H21.7564ZM21.7564 21.6467V22.235H21.1681V21.6467H21.7564ZM21.1681 22.8234V23.4117H20.5798V22.8234H21.1681ZM20.5798 22.8234V23.4117H19.9914V22.8234H20.5798ZM20.5798 22.235V22.8234H19.9914V22.235H20.5798ZM19.9914 22.235V22.8234H19.4031V22.235H19.9914ZM19.9914 22.8234V23.4117H19.4031V22.8234H19.9914ZM19.9914 23.4117V24H19.4031V23.4117H19.9914ZM19.4031 23.4117V24H18.8148V23.4117H19.4031ZM18.8148 23.4117V24H18.2265V23.4117H18.8148ZM18.2265 23.4117V24H17.6382V23.4117H18.2265ZM17.6382 23.4117V24H17.0498V23.4117H17.6382ZM17.0498 23.4117V24H16.4615V23.4117H17.0498ZM16.4615 23.4117V24H15.8732V23.4117H16.4615ZM15.8732 23.4117V24H15.2849V23.4117H15.8732ZM16.4615 22.8234V23.4117H15.8732V22.8234H16.4615ZM17.0498 22.8234V23.4117H16.4615V22.8234H17.0498ZM17.6382 22.8234V23.4117H17.0498V22.8234H17.6382ZM18.2265 22.8234V23.4117H17.6382V22.8234H18.2265ZM18.8148 22.8234V23.4117H18.2265V22.8234H18.8148ZM19.4031 22.8234V23.4117H18.8148V22.8234H19.4031ZM19.4031 22.235V22.8234H18.8148V22.235H19.4031ZM18.8148 22.235V22.8234H18.2265V22.235H18.8148ZM18.2265 22.235V22.8234H17.6382V22.235H18.2265ZM17.6382 22.235V22.8234H17.0498V22.235H17.6382ZM17.0498 22.235V22.8234H16.4615V22.235H17.0498ZM16.4615 22.235V22.8234H15.8732V22.235H16.4615ZM15.8732 22.8234V23.4117H15.2849V22.8234H15.8732ZM15.2849 22.8234V23.4117H14.6966V22.8234H15.2849ZM14.6966 22.8234V23.4117H14.1082V22.8234H14.6966ZM14.6966 22.235V22.8234H14.1082V22.235H14.6966ZM14.1082 22.235V22.8234H13.5199V22.235H14.1082ZM14.1082 21.6467V22.235H13.5199V21.6467H14.1082ZM14.6966 21.6467V22.235H14.1082V21.6467H14.6966ZM15.2849 21.6467V22.235H14.6966V21.6467H15.2849ZM15.8732 21.6467V22.235H15.2849V21.6467H15.8732ZM16.4615 21.6467V22.235H15.8732V21.6467H16.4615ZM17.0498 21.6467V22.235H16.4615V21.6467H17.0498ZM17.6382 21.6467V22.235H17.0498V21.6467H17.6382ZM18.2265 21.6467V22.235H17.6382V21.6467H18.2265ZM18.8148 21.6467V22.235H18.2265V21.6467H18.8148ZM15.8732 22.235V22.8234H15.2849V22.235H15.8732ZM15.2849 22.235V22.8234H14.6966V22.235H15.2849ZM19.9914 16.9401V17.5285H19.4031V16.9401H19.9914ZM19.9914 17.5285V18.1168H19.4031V17.5285H19.9914ZM20.5798 17.5285V18.1168H19.9914V17.5285H20.5798ZM21.1681 17.5285V18.1168H20.5798V17.5285H21.1681ZM21.7564 17.5285V18.1168H21.1681V17.5285H21.7564ZM22.3447 17.5285V18.1168H21.7564V17.5285H22.3447ZM22.3447 16.9401V17.5285H21.7564V16.9401H22.3447ZM21.7564 16.9401V17.5285H21.1681V16.9401H21.7564ZM21.1681 16.9401V17.5285H20.5798V16.9401H21.1681ZM20.5798 16.9401V17.5285H19.9914V16.9401H20.5798ZM20.5798 18.1168V18.7051H19.9914V18.1168H20.5798ZM21.1681 18.1168V18.7051H20.5798V18.1168H21.1681ZM21.1681 18.7051V19.2934H20.5798V18.7051H21.1681ZM21.7564 18.7051V19.2934H21.1681V18.7051H21.7564ZM21.7564 18.1168V18.7051H21.1681V18.1168H21.7564ZM22.3447 18.1168V18.7051H21.7564V18.1168H22.3447ZM22.3447 18.7051V19.2934H21.7564V18.7051H22.3447ZM22.3447 19.2934V19.8817H21.7564V19.2934H22.3447ZM21.7564 19.2934V19.8817H21.1681V19.2934H21.7564ZM21.1681 19.2934V19.8817H20.5798V19.2934H21.1681ZM20.5798 19.2934V19.8817H19.9914V19.2934H20.5798ZM20.5798 18.7051V19.2934H19.9914V18.7051H20.5798ZM19.9914 18.7051V19.2934H19.4031V18.7051H19.9914ZM19.9914 18.1168V18.7051H19.4031V18.1168H19.9914ZM19.9914 19.2934V19.8817H19.4031V19.2934H19.9914ZM24.7084 23.4117V24H24.12V23.4117H24.7084ZM24.7084 22.8234V23.4117H24.12V22.8234H24.7084ZM24.7084 22.235V22.8234H24.12V22.235H24.7084ZM24.7084 21.6467V22.235H24.12V21.6467H24.7084ZM24.7084 21.0584V21.6467H24.12V21.0584H24.7084ZM24.7084 20.4701V21.0584H24.12V20.4701H24.7084ZM24.7084 19.8817V20.4701H24.12V19.8817H24.7084ZM24.7084 19.2934V19.8817H24.12V19.2934H24.7084ZM24.7084 18.7051V19.2934H24.12V18.7051H24.7084ZM24.7084 18.1168V18.7051H24.12V18.1168H24.7084ZM24.7084 17.5285V18.1168H24.12V17.5285H24.7084ZM24.7084 16.9401V17.5285H24.12V16.9401H24.7084ZM24.7084 16.3518V16.9401H24.12V16.3518H24.7084ZM24.7084 15.7635V16.3518H24.12V15.7635H24.7084ZM24.7084 15.1752V15.7635H24.12V15.1752H24.7084ZM25.2967 15.1752V15.7635H24.7084V15.1752H25.2967ZM25.2967 15.7635V16.3518H24.7084V15.7635H25.2967ZM25.2967 16.3518V16.9401H24.7084V16.3518H25.2967ZM25.2967 16.9401V17.5285H24.7084V16.9401H25.2967ZM25.2967 17.5285V18.1168H24.7084V17.5285H25.2967ZM25.2967 18.1168V18.7051H24.7084V18.1168H25.2967ZM25.2967 18.7051V19.2934H24.7084V18.7051H25.2967ZM25.885 19.2934V19.8817H25.2967V19.2934H25.885ZM25.885 19.8817V20.4701H25.2967V19.8817H25.885ZM25.885 20.4701V21.0584H25.2967V20.4701H25.885ZM25.885 21.0584V21.6467H25.2967V21.0584H25.885ZM25.885 21.6467V22.235H25.2967V21.6467H25.885ZM25.885 22.235V22.8234H25.2967V22.235H25.885ZM25.885 22.8234V23.4117H25.2967V22.8234H25.885ZM25.885 23.4117V24H25.2967V23.4117H25.885ZM26.4733 23.4117V24H25.885V23.4117H26.4733ZM27.0616 23.4117V24H26.4733V23.4117H27.0616ZM27.0616 22.8234V23.4117H26.4733V22.8234H27.0616ZM27.0616 22.235V22.8234H26.4733V22.235H27.0616ZM27.0616 21.6467V22.235H26.4733V21.6467H27.0616ZM27.0616 21.0584V21.6467H26.4733V21.0584H27.0616ZM27.0616 20.4701V21.0584H26.4733V20.4701H27.0616ZM27.0616 19.8817V20.4701H26.4733V19.8817H27.0616ZM27.0616 19.2934V19.8817H26.4733V19.2934H27.0616ZM26.4733 19.2934V19.8817H25.885V19.2934H26.4733ZM26.4733 18.7051V19.2934H25.885V18.7051H26.4733ZM26.4733 19.8817V20.4701H25.885V19.8817H26.4733ZM26.4733 20.4701V21.0584H25.885V20.4701H26.4733ZM26.4733 21.0584V21.6467H25.885V21.0584H26.4733ZM26.4733 21.6467V22.235H25.885V21.6467H26.4733ZM26.4733 22.235V22.8234H25.885V22.235H26.4733ZM26.4733 22.8234V23.4117H25.885V22.8234H26.4733ZM25.2967 23.4117V24H24.7084V23.4117H25.2967ZM25.2967 22.8234V23.4117H24.7084V22.8234H25.2967ZM25.2967 22.235V22.8234H24.7084V22.235H25.2967ZM25.2967 21.6467V22.235H24.7084V21.6467H25.2967ZM25.2967 21.0584V21.6467H24.7084V21.0584H25.2967ZM25.2967 20.4701V21.0584H24.7084V20.4701H25.2967ZM25.2967 19.8817V20.4701H24.7084V19.8817H25.2967ZM25.2967 19.2934V19.8817H24.7084V19.2934H25.2967ZM24.7084 9.29196V9.88028H24.12V9.29196H24.7084ZM24.7084 9.88028V10.4686H24.12V9.88028H24.7084ZM24.7084 10.4686V11.0569H24.12V10.4686H24.7084ZM24.7084 11.0569V11.6452H24.12V11.0569H24.7084ZM24.7084 11.6452V12.2336H24.12V11.6452H24.7084ZM24.7084 12.2336V12.8219H24.12V12.2336H24.7084ZM24.7084 12.8219V13.4102H24.12V12.8219H24.7084ZM24.7084 13.4102V13.9985H24.12V13.4102H24.7084ZM24.7084 13.9985V14.5869H24.12V13.9985H24.7084ZM24.7084 14.5869V15.1752H24.12V14.5869H24.7084ZM26.4733 9.29196V9.88028H25.885V9.29196H26.4733ZM26.4733 9.88028V10.4686H25.885V9.88028H26.4733ZM26.4733 10.4686V11.0569H25.885V10.4686H26.4733ZM26.4733 11.0569V11.6452H25.885V11.0569H26.4733ZM26.4733 11.6452V12.2336H25.885V11.6452H26.4733ZM26.4733 12.2336V12.8219H25.885V12.2336H26.4733ZM26.4733 13.4102V13.9985H25.885V13.4102H26.4733ZM26.4733 13.9985V14.5869H25.885V13.9985H26.4733ZM26.4733 14.5869V15.1752H25.885V14.5869H26.4733ZM26.4733 15.1752V15.7635H25.885V15.1752H26.4733ZM26.4733 15.7635V16.3518H25.885V15.7635H26.4733ZM26.4733 16.3518V16.9401H25.885V16.3518H26.4733ZM26.4733 16.9401V17.5285H25.885V16.9401H26.4733ZM27.0616 17.5285V18.1168H26.4733V17.5285H27.0616ZM27.0616 18.1168V18.7051H26.4733V18.1168H27.0616ZM27.0616 18.7051V19.2934H26.4733V18.7051H27.0616ZM27.0616 16.9401V17.5285H26.4733V16.9401H27.0616ZM27.0616 16.3518V16.9401H26.4733V16.3518H27.0616ZM27.0616 15.7635V16.3518H26.4733V15.7635H27.0616ZM27.0616 15.1752V15.7635H26.4733V15.1752H27.0616ZM27.0616 14.5869V15.1752H26.4733V14.5869H27.0616ZM27.0616 13.9985V14.5869H26.4733V13.9985H27.0616ZM27.0616 13.4102V13.9985H26.4733V13.4102H27.0616ZM27.0616 12.8219V13.4102H26.4733V12.8219H27.0616ZM27.0616 12.2336V12.8219H26.4733V12.2336H27.0616ZM27.0616 11.6452V12.2336H26.4733V11.6452H27.0616ZM26.4733 12.8219V13.4102H25.885V12.8219H26.4733ZM27.0616 11.0569V11.6452H26.4733V11.0569H27.0616ZM27.0616 10.4686V11.0569H26.4733V10.4686H27.0616ZM27.0616 9.88028V10.4686H26.4733V9.88028H27.0616ZM27.0616 9.29196V9.88028H26.4733V9.29196H27.0616ZM25.885 9.29196V9.88028H25.2967V9.29196H25.885ZM25.2967 9.29196V9.88028H24.7084V9.29196H25.2967ZM25.2967 9.88028V10.4686H24.7084V9.88028H25.2967ZM25.885 9.88028V10.4686H25.2967V9.88028H25.885ZM25.885 10.4686V11.0569H25.2967V10.4686H25.885ZM25.885 11.0569V11.6452H25.2967V11.0569H25.885ZM25.885 11.6452V12.2336H25.2967V11.6452H25.885ZM25.885 12.2336V12.8219H25.2967V12.2336H25.885ZM25.885 12.8219V13.4102H25.2967V12.8219H25.885ZM25.885 13.4102V13.9985H25.2967V13.4102H25.885ZM25.2967 13.9985V14.5869H24.7084V13.9985H25.2967ZM25.2967 14.5869V15.1752H24.7084V14.5869H25.2967ZM25.2967 13.4102V13.9985H24.7084V13.4102H25.2967ZM25.2967 12.8219V13.4102H24.7084V12.8219H25.2967ZM25.2967 12.2336V12.8219H24.7084V12.2336H25.2967ZM25.2967 11.6452V12.2336H24.7084V11.6452H25.2967ZM25.2967 11.0569V11.6452H24.7084V11.0569H25.2967ZM25.2967 10.4686V11.0569H24.7084V10.4686H25.2967ZM25.885 13.9985V14.5869H25.2967V13.9985H25.885ZM25.885 14.5869V15.1752H25.2967V14.5869H25.885ZM25.885 15.1752V15.7635H25.2967V15.1752H25.885ZM25.885 15.7635V16.3518H25.2967V15.7635H25.885ZM25.885 16.3518V16.9401H25.2967V16.3518H25.885ZM25.885 16.9401V17.5285H25.2967V16.9401H25.885ZM25.885 17.5285V18.1168H25.2967V17.5285H25.885ZM25.885 18.1168V18.7051H25.2967V18.1168H25.885ZM25.885 18.7051V19.2934H25.2967V18.7051H25.885ZM26.4733 18.1168V18.7051H25.885V18.1168H26.4733ZM26.4733 17.5285V18.1168H25.885V17.5285H26.4733ZM35.8865 9.29196V9.88028H35.2982V9.29196H35.8865ZM35.8865 9.88028V10.4686H35.2982V9.88028H35.8865ZM35.8865 10.4686V11.0569H35.2982V10.4686H35.8865ZM35.8865 11.6452V12.2336H35.2982V11.6452H35.8865ZM35.8865 12.2336V12.8219H35.2982V12.2336H35.8865ZM35.8865 12.8219V13.4102H35.2982V12.8219H35.8865ZM35.8865 13.4102V13.9985H35.2982V13.4102H35.8865ZM35.8865 13.9985V14.5869H35.2982V13.9985H35.8865ZM35.8865 14.5869V15.1752H35.2982V14.5869H35.8865ZM35.8865 15.1752V15.7635H35.2982V15.1752H35.8865ZM36.4748 15.7635V16.3518H35.8865V15.7635H36.4748ZM36.4748 16.3518V16.9401H35.8865V16.3518H36.4748ZM36.4748 16.9401V17.5285H35.8865V16.9401H36.4748ZM36.4748 17.5285V18.1168H35.8865V17.5285H36.4748ZM36.4748 18.1168V18.7051H35.8865V18.1168H36.4748ZM36.4748 18.7051V19.2934H35.8865V18.7051H36.4748ZM37.0631 18.7051V19.2934H36.4748V18.7051H37.0631ZM37.0631 19.2934V19.8817H36.4748V19.2934H37.0631ZM37.0631 19.8817V20.4701H36.4748V19.8817H37.0631ZM37.0631 20.4701V21.0584H36.4748V20.4701H37.0631ZM37.0631 21.0584V21.6467H36.4748V21.0584H37.0631ZM37.0631 21.6467V22.235H36.4748V21.6467H37.0631ZM37.0631 22.235V22.8234H36.4748V22.235H37.0631ZM37.0631 22.8234V23.4117H36.4748V22.8234H37.0631ZM37.0631 23.4117V24H36.4748V23.4117H37.0631ZM36.4748 23.4117V24H35.8865V23.4117H36.4748ZM36.4748 22.8234V23.4117H35.8865V22.8234H36.4748ZM36.4748 22.235V22.8234H35.8865V22.235H36.4748ZM36.4748 21.6467V22.235H35.8865V21.6467H36.4748ZM36.4748 21.0584V21.6467H35.8865V21.0584H36.4748ZM36.4748 20.4701V21.0584H35.8865V20.4701H36.4748ZM36.4748 19.8817V20.4701H35.8865V19.8817H36.4748ZM35.8865 19.8817V20.4701H35.2982V19.8817H35.8865ZM35.8865 19.2934V19.8817H35.2982V19.2934H35.8865ZM36.4748 19.2934V19.8817H35.8865V19.2934H36.4748ZM35.8865 15.7635V16.3518H35.2982V15.7635H35.8865ZM35.8865 16.3518V16.9401H35.2982V16.3518H35.8865ZM35.8865 16.9401V17.5285H35.2982V16.9401H35.8865ZM35.8865 17.5285V18.1168H35.2982V17.5285H35.8865ZM35.8865 18.1168V18.7051H35.2982V18.1168H35.8865ZM35.8865 18.7051V19.2934H35.2982V18.7051H35.8865ZM35.8865 11.0569V11.6452H35.2982V11.0569H35.8865ZM35.8865 20.4701V21.0584H35.2982V20.4701H35.8865ZM35.8865 21.0584V21.6467H35.2982V21.0584H35.8865ZM35.8865 21.6467V22.235H35.2982V21.6467H35.8865ZM35.8865 22.235V22.8234H35.2982V22.235H35.8865ZM35.8865 22.8234V23.4117H35.2982V22.8234H35.8865ZM35.8865 23.4117V24H35.2982V23.4117H35.8865ZM37.6514 23.4117V24H37.0631V23.4117H37.6514ZM38.2398 23.4117V24H37.6514V23.4117H38.2398ZM38.2398 22.8234V23.4117H37.6514V22.8234H38.2398ZM38.2398 22.235V22.8234H37.6514V22.235H38.2398ZM38.2398 21.6467V22.235H37.6514V21.6467H38.2398ZM38.2398 21.0584V21.6467H37.6514V21.0584H38.2398ZM38.2398 20.4701V21.0584H37.6514V20.4701H38.2398ZM38.2398 19.8817V20.4701H37.6514V19.8817H38.2398ZM38.2398 19.2934V19.8817H37.6514V19.2934H38.2398ZM38.2398 18.7051V19.2934H37.6514V18.7051H38.2398ZM38.2398 18.1168V18.7051H37.6514V18.1168H38.2398ZM38.2398 17.5285V18.1168H37.6514V17.5285H38.2398ZM38.2398 16.9401V17.5285H37.6514V16.9401H38.2398ZM38.2398 16.3518V16.9401H37.6514V16.3518H38.2398ZM38.2398 15.7635V16.3518H37.6514V15.7635H38.2398ZM38.2398 15.1752V15.7635H37.6514V15.1752H38.2398ZM38.2398 14.5869V15.1752H37.6514V14.5869H38.2398ZM38.2398 13.9985V14.5869H37.6514V13.9985H38.2398ZM38.2398 13.4102V13.9985H37.6514V13.4102H38.2398ZM38.2398 12.8219V13.4102H37.6514V12.8219H38.2398ZM36.4748 9.29196V9.88028H35.8865V9.29196H36.4748ZM37.0631 9.29196V9.88028H36.4748V9.29196H37.0631ZM37.6514 9.29196V9.88028H37.0631V9.29196H37.6514ZM38.2398 9.29196V9.88028H37.6514V9.29196H38.2398ZM38.2398 9.88028V10.4686H37.6514V9.88028H38.2398ZM38.2398 10.4686V11.0569H37.6514V10.4686H38.2398ZM38.2398 11.0569V11.6452H37.6514V11.0569H38.2398ZM38.2398 11.6452V12.2336H37.6514V11.6452H38.2398ZM38.2398 12.2336V12.8219H37.6514V12.2336H38.2398ZM36.4748 9.88028V10.4686H35.8865V9.88028H36.4748ZM37.0631 9.88028V10.4686H36.4748V9.88028H37.0631ZM37.6514 9.88028V10.4686H37.0631V9.88028H37.6514ZM37.6514 10.4686V11.0569H37.0631V10.4686H37.6514ZM37.6514 11.0569V11.6452H37.0631V11.0569H37.6514ZM37.6514 11.6452V12.2336H37.0631V11.6452H37.6514ZM37.6514 12.2336V12.8219H37.0631V12.2336H37.6514ZM37.0631 12.2336V12.8219H36.4748V12.2336H37.0631ZM37.0631 11.6452V12.2336H36.4748V11.6452H37.0631ZM37.0631 11.0569V11.6452H36.4748V11.0569H37.0631ZM37.0631 10.4686V11.0569H36.4748V10.4686H37.0631ZM36.4748 10.4686V11.0569H35.8865V10.4686H36.4748ZM36.4748 11.0569V11.6452H35.8865V11.0569H36.4748ZM36.4748 11.6452V12.2336H35.8865V11.6452H36.4748ZM36.4748 12.2336V12.8219H35.8865V12.2336H36.4748ZM36.4748 12.8219V13.4102H35.8865V12.8219H36.4748ZM36.4748 13.4102V13.9985H35.8865V13.4102H36.4748ZM36.4748 13.9985V14.5869H35.8865V13.9985H36.4748ZM36.4748 14.5869V15.1752H35.8865V14.5869H36.4748ZM37.0631 14.5869V15.1752H36.4748V14.5869H37.0631ZM37.0631 13.9985V14.5869H36.4748V13.9985H37.0631ZM37.0631 13.4102V13.9985H36.4748V13.4102H37.0631ZM37.0631 12.8219V13.4102H36.4748V12.8219H37.0631ZM37.6514 12.8219V13.4102H37.0631V12.8219H37.6514ZM37.6514 13.4102V13.9985H37.0631V13.4102H37.6514ZM37.6514 13.9985V14.5869H37.0631V13.9985H37.6514ZM37.6514 14.5869V15.1752H37.0631V14.5869H37.6514ZM37.6514 15.1752V15.7635H37.0631V15.1752H37.6514ZM37.6514 15.7635V16.3518H37.0631V15.7635H37.6514ZM37.6514 16.3518V16.9401H37.0631V16.3518H37.6514ZM37.6514 16.9401V17.5285H37.0631V16.9401H37.6514ZM37.6514 17.5285V18.1168H37.0631V17.5285H37.6514ZM37.6514 18.1168V18.7051H37.0631V18.1168H37.6514ZM37.0631 18.1168V18.7051H36.4748V18.1168H37.0631ZM37.0631 17.5285V18.1168H36.4748V17.5285H37.0631ZM37.0631 16.9401V17.5285H36.4748V16.9401H37.0631ZM37.0631 16.3518V16.9401H36.4748V16.3518H37.0631ZM37.0631 15.7635V16.3518H36.4748V15.7635H37.0631ZM36.4748 15.1752V15.7635H35.8865V15.1752H36.4748ZM37.0631 15.1752V15.7635H36.4748V15.1752H37.0631ZM37.6514 18.7051V19.2934H37.0631V18.7051H37.6514ZM37.6514 19.2934V19.8817H37.0631V19.2934H37.6514ZM37.6514 19.8817V20.4701H37.0631V19.8817H37.6514ZM37.6514 20.4701V21.0584H37.0631V20.4701H37.6514ZM37.6514 21.0584V21.6467H37.0631V21.0584H37.6514ZM37.6514 21.6467V22.235H37.0631V21.6467H37.6514ZM37.6514 22.235V22.8234H37.0631V22.235H37.6514ZM37.6514 22.8234V23.4117H37.0631V22.8234H37.6514ZM31.1799 16.3518V16.9401H30.5916V16.3518H31.1799ZM31.1799 15.7635V16.3518H30.5916V15.7635H31.1799ZM31.1799 15.1752V15.7635H30.5916V15.1752H31.1799ZM31.1799 14.5869V15.1752H30.5916V14.5869H31.1799ZM31.1799 13.9985V14.5869H30.5916V13.9985H31.1799ZM31.1799 13.4102V13.9985H30.5916V13.4102H31.1799ZM31.1799 16.9401V17.5285H30.5916V16.9401H31.1799ZM32.3565 12.8219V13.4102H31.7682V12.8219H32.3565ZM32.9449 12.2336V12.8219H32.3565V12.2336H32.9449ZM33.5332 11.6452V12.2336H32.9449V11.6452H33.5332ZM34.1215 11.0569V11.6452H33.5332V11.0569H34.1215ZM30.5916 12.8219V13.4102H30.0033V12.8219H30.5916ZM30.0033 12.2336V12.8219H29.4149V12.2336H30.0033ZM29.4149 11.6452V12.2336H28.8266V11.6452H29.4149ZM28.8266 11.0569V11.6452H28.2383V11.0569H28.8266ZM32.3565 16.3518V16.9401H31.7682V16.3518H32.3565ZM32.9449 15.7635V16.3518H32.3565V15.7635H32.9449ZM33.5332 15.1752V15.7635H32.9449V15.1752H33.5332ZM34.1215 14.5869V15.1752H33.5332V14.5869H34.1215ZM30.5916 16.3518V16.9401H30.0033V16.3518H30.5916ZM30.0033 15.7635V16.3518H29.4149V15.7635H30.0033ZM29.4149 15.1752V15.7635H28.8266V15.1752H29.4149ZM28.8266 14.5869V15.1752H28.2383V14.5869H28.8266ZM27.65 9.88028V10.4686H27.0616V9.88028H27.65ZM28.2383 10.4686V11.0569H27.65V10.4686H28.2383ZM34.7098 10.4686V11.0569H34.1215V10.4686H34.7098ZM35.2982 9.88028V10.4686H34.7098V9.88028H35.2982ZM28.2383 12.2336V12.8219H27.65V12.2336H28.2383ZM28.2383 13.9985V14.5869H27.65V13.9985H28.2383ZM28.2383 13.4102V13.9985H27.65V13.4102H28.2383ZM27.65 13.4102V13.9985H27.0616V13.4102H27.65ZM34.7098 13.9985V14.5869H34.1215V13.9985H34.7098ZM35.2982 13.4102V13.9985H34.7098V13.4102H35.2982ZM35.2982 12.8219V13.4102H34.7098V12.8219H35.2982ZM35.2982 12.2336V12.8219H34.7098V12.2336H35.2982ZM35.2982 11.6452V12.2336H34.7098V11.6452H35.2982ZM35.2982 11.0569V11.6452H34.7098V11.0569H35.2982ZM35.2982 10.4686V11.0569H34.7098V10.4686H35.2982ZM34.7098 11.0569V11.6452H34.1215V11.0569H34.7098ZM34.7098 11.6452V12.2336H34.1215V11.6452H34.7098ZM34.7098 12.2336V12.8219H34.1215V12.2336H34.7098ZM34.7098 12.8219V13.4102H34.1215V12.8219H34.7098ZM34.7098 13.4102V13.9985H34.1215V13.4102H34.7098ZM34.1215 11.6452V12.2336H33.5332V11.6452H34.1215ZM34.1215 12.2336V12.8219H33.5332V12.2336H34.1215ZM34.1215 12.8219V13.4102H33.5332V12.8219H34.1215ZM34.1215 13.4102V13.9985H33.5332V13.4102H34.1215ZM34.1215 13.9985V14.5869H33.5332V13.9985H34.1215ZM33.5332 12.2336V12.8219H32.9449V12.2336H33.5332ZM33.5332 12.8219V13.4102H32.9449V12.8219H33.5332ZM33.5332 13.4102V13.9985H32.9449V13.4102H33.5332ZM33.5332 13.9985V14.5869H32.9449V13.9985H33.5332ZM33.5332 14.5869V15.1752H32.9449V14.5869H33.5332ZM32.9449 12.8219V13.4102H32.3565V12.8219H32.9449ZM32.9449 13.4102V13.9985H32.3565V13.4102H32.9449ZM32.9449 13.9985V14.5869H32.3565V13.9985H32.9449ZM32.9449 14.5869V15.1752H32.3565V14.5869H32.9449ZM32.9449 15.1752V15.7635H32.3565V15.1752H32.9449ZM32.3565 13.4102V13.9985H31.7682V13.4102H32.3565ZM32.3565 13.9985V14.5869H31.7682V13.9985H32.3565ZM32.3565 14.5869V15.1752H31.7682V14.5869H32.3565ZM32.3565 15.1752V15.7635H31.7682V15.1752H32.3565ZM32.3565 15.7635V16.3518H31.7682V15.7635H32.3565ZM30.5916 15.7635V16.3518H30.0033V15.7635H30.5916ZM30.5916 15.1752V15.7635H30.0033V15.1752H30.5916ZM30.0033 15.1752V15.7635H29.4149V15.1752H30.0033ZM30.0033 14.5869V15.1752H29.4149V14.5869H30.0033ZM29.4149 14.5869V15.1752H28.8266V14.5869H29.4149ZM29.4149 13.9985V14.5869H28.8266V13.9985H29.4149ZM28.8266 13.9985V14.5869H28.2383V13.9985H28.8266ZM28.8266 13.4102V13.9985H28.2383V13.4102H28.8266ZM28.2383 12.8219V13.4102H27.65V12.8219H28.2383ZM27.65 12.8219V13.4102H27.0616V12.8219H27.65ZM27.65 12.2336V12.8219H27.0616V12.2336H27.65ZM27.65 11.6452V12.2336H27.0616V11.6452H27.65ZM27.65 11.0569V11.6452H27.0616V11.0569H27.65ZM27.65 10.4686V11.0569H27.0616V10.4686H27.65ZM28.2383 11.0569V11.6452H27.65V11.0569H28.2383ZM28.2383 11.6452V12.2336H27.65V11.6452H28.2383ZM28.8266 11.6452V12.2336H28.2383V11.6452H28.8266ZM28.8266 12.2336V12.8219H28.2383V12.2336H28.8266ZM29.4149 12.2336V12.8219H28.8266V12.2336H29.4149ZM29.4149 12.8219V13.4102H28.8266V12.8219H29.4149ZM30.0033 12.8219V13.4102H29.4149V12.8219H30.0033ZM30.0033 13.4102V13.9985H29.4149V13.4102H30.0033ZM30.5916 13.4102V13.9985H30.0033V13.4102H30.5916ZM30.5916 13.9985V14.5869H30.0033V13.9985H30.5916ZM30.5916 14.5869V15.1752H30.0033V14.5869H30.5916ZM30.0033 13.9985V14.5869H29.4149V13.9985H30.0033ZM29.4149 13.4102V13.9985H28.8266V13.4102H29.4149ZM28.8266 12.8219V13.4102H28.2383V12.8219H28.8266ZM31.7682 13.4102V13.9985H31.1799V13.4102H31.7682ZM31.7682 13.9985V14.5869H31.1799V13.9985H31.7682ZM31.7682 14.5869V15.1752H31.1799V14.5869H31.7682ZM31.7682 15.1752V15.7635H31.1799V15.1752H31.7682ZM31.7682 15.7635V16.3518H31.1799V15.7635H31.7682ZM31.7682 16.3518V16.9401H31.1799V16.3518H31.7682ZM31.7682 16.9401V17.5285H31.1799V16.9401H31.7682ZM47.0571 16.3518V16.9401H46.4688V16.3518H47.0571ZM47.6454 16.3518V16.9401H47.0571V16.3518H47.6454ZM48.2338 16.3518V16.9401H47.6454V16.3518H48.2338ZM48.8221 16.3518V16.9401H48.2338V16.3518H48.8221ZM49.4104 16.3518V16.9401H48.8221V16.3518H49.4104ZM49.4104 15.7635V16.3518H48.8221V15.7635H49.4104ZM49.4104 15.1752V15.7635H48.8221V15.1752H49.4104ZM48.8221 15.1752V15.7635H48.2338V15.1752H48.8221ZM48.2338 15.1752V15.7635H47.6454V15.1752H48.2338ZM47.6454 15.1752V15.7635H47.0571V15.1752H47.6454ZM47.6454 15.7635V16.3518H47.0571V15.7635H47.6454ZM47.0571 15.7635V16.3518H46.4688V15.7635H47.0571ZM48.2338 15.7635V16.3518H47.6454V15.7635H48.2338ZM48.8221 15.7635V16.3518H48.2338V15.7635H48.8221ZM47.0571 15.1752V15.7635H46.4688V15.1752H47.0571ZM46.4688 15.1752V15.7635H45.8805V15.1752H46.4688ZM46.4688 14.5869V15.1752H45.8805V14.5869H46.4688ZM47.0571 14.5869V15.1752H46.4688V14.5869H47.0571ZM47.6454 14.5869V15.1752H47.0571V14.5869H47.6454ZM48.2338 14.5869V15.1752H47.6454V14.5869H48.2338ZM48.8221 14.5869V15.1752H48.2338V14.5869H48.8221ZM48.8221 13.9985V14.5869H48.2338V13.9985H48.8221ZM48.2338 13.9985V14.5869H47.6454V13.9985H48.2338ZM47.6454 13.9985V14.5869H47.0571V13.9985H47.6454ZM47.0571 13.9985V14.5869H46.4688V13.9985H47.0571ZM46.4688 13.9985V14.5869H45.8805V13.9985H46.4688ZM47.6454 13.4102V13.9985H47.0571V13.4102H47.6454ZM48.2338 13.4102V13.9985H47.6454V13.4102H48.2338ZM47.0571 13.4102V13.9985H46.4688V13.4102H47.0571ZM47.0571 12.8219V13.4102H46.4688V12.8219H47.0571ZM46.4688 12.8219V13.4102H45.8805V12.8219H46.4688ZM46.4688 13.4102V13.9985H45.8805V13.4102H46.4688ZM45.8805 13.4102V13.9985H45.2922V13.4102H45.8805ZM45.8805 12.8219V13.4102H45.2922V12.8219H45.8805ZM45.8805 13.9985V14.5869H45.2922V13.9985H45.8805ZM45.2922 13.9985V14.5869H44.7038V13.9985H45.2922ZM45.2922 14.5869V15.1752H44.7038V14.5869H45.2922ZM45.8805 14.5869V15.1752H45.2922V14.5869H45.8805ZM44.7038 14.5869V15.1752H44.1155V14.5869H44.7038ZM44.7038 13.9985V14.5869H44.1155V13.9985H44.7038ZM44.7038 13.4102V13.9985H44.1155V13.4102H44.7038ZM44.7038 12.8219V13.4102H44.1155V12.8219H44.7038ZM45.2922 12.8219V13.4102H44.7038V12.8219H45.2922ZM45.2922 13.4102V13.9985H44.7038V13.4102H45.2922ZM44.1155 12.8219V13.4102H43.5272V12.8219H44.1155ZM43.5272 12.8219V13.4102H42.9389V12.8219H43.5272ZM42.9389 12.8219V13.4102H42.3505V12.8219H42.9389ZM42.9389 13.4102V13.9985H42.3505V13.4102H42.9389ZM42.9389 13.9985V14.5869H42.3505V13.9985H42.9389ZM42.9389 14.5869V15.1752H42.3505V14.5869H42.9389ZM43.5272 14.5869V15.1752H42.9389V14.5869H43.5272ZM44.1155 14.5869V15.1752H43.5272V14.5869H44.1155ZM44.1155 13.9985V14.5869H43.5272V13.9985H44.1155ZM44.1155 13.4102V13.9985H43.5272V13.4102H44.1155ZM43.5272 13.4102V13.9985H42.9389V13.4102H43.5272ZM43.5272 13.9985V14.5869H42.9389V13.9985H43.5272ZM42.3505 13.9985V14.5869H41.7622V13.9985H42.3505ZM42.3505 13.4102V13.9985H41.7622V13.4102H42.3505ZM41.7622 13.4102V13.9985H41.1739V13.4102H41.7622ZM41.7622 13.9985V14.5869H41.1739V13.9985H41.7622ZM41.1739 13.9985V14.5869H40.5856V13.9985H41.1739ZM41.1739 14.5869V15.1752H40.5856V14.5869H41.1739ZM41.1739 15.1752V15.7635H40.5856V15.1752H41.1739ZM41.7622 15.1752V15.7635H41.1739V15.1752H41.7622ZM41.7622 14.5869V15.1752H41.1739V14.5869H41.7622ZM42.3505 14.5869V15.1752H41.7622V14.5869H42.3505ZM42.3505 15.1752V15.7635H41.7622V15.1752H42.3505ZM42.9389 15.1752V15.7635H42.3505V15.1752H42.9389ZM43.5272 15.1752V15.7635H42.9389V15.1752H43.5272ZM40.5856 15.1752V15.7635H39.9973V15.1752H40.5856ZM40.5856 15.7635V16.3518H39.9973V15.7635H40.5856ZM40.5856 16.3518V16.9401H39.9973V16.3518H40.5856ZM40.5856 16.9401V17.5285H39.9973V16.9401H40.5856ZM40.5856 17.5285V18.1168H39.9973V17.5285H40.5856ZM40.5856 18.1168V18.7051H39.9973V18.1168H40.5856ZM40.5856 18.7051V19.2934H39.9973V18.7051H40.5856ZM40.5856 19.2934V19.8817H39.9973V19.2934H40.5856ZM40.5856 19.8817V20.4701H39.9973V19.8817H40.5856ZM40.5856 20.4701V21.0584H39.9973V20.4701H40.5856ZM41.1739 20.4701V21.0584H40.5856V20.4701H41.1739ZM41.1739 21.0584V21.6467H40.5856V21.0584H41.1739ZM40.5856 21.0584V21.6467H39.9973V21.0584H40.5856ZM41.7622 21.0584V21.6467H41.1739V21.0584H41.7622ZM42.3505 21.0584V21.6467H41.7622V21.0584H42.3505ZM42.9389 21.0584V21.6467H42.3505V21.0584H42.9389ZM43.5272 21.0584V21.6467H42.9389V21.0584H43.5272ZM42.9389 20.4701V21.0584H42.3505V20.4701H42.9389ZM42.9389 19.8817V20.4701H42.3505V19.8817H42.9389ZM42.9389 19.2934V19.8817H42.3505V19.2934H42.9389ZM42.9389 18.7051V19.2934H42.3505V18.7051H42.9389ZM42.9389 18.1168V18.7051H42.3505V18.1168H42.9389ZM42.9389 17.5285V18.1168H42.3505V17.5285H42.9389ZM42.9389 16.9401V17.5285H42.3505V16.9401H42.9389ZM42.9389 16.3518V16.9401H42.3505V16.3518H42.9389ZM42.9389 15.7635V16.3518H42.3505V15.7635H42.9389ZM42.3505 15.7635V16.3518H41.7622V15.7635H42.3505ZM41.7622 15.7635V16.3518H41.1739V15.7635H41.7622ZM41.1739 15.7635V16.3518H40.5856V15.7635H41.1739ZM41.1739 16.3518V16.9401H40.5856V16.3518H41.1739ZM41.1739 16.9401V17.5285H40.5856V16.9401H41.1739ZM41.1739 17.5285V18.1168H40.5856V17.5285H41.1739ZM41.1739 18.1168V18.7051H40.5856V18.1168H41.1739ZM41.1739 18.7051V19.2934H40.5856V18.7051H41.1739ZM41.1739 19.2934V19.8817H40.5856V19.2934H41.1739ZM41.1739 19.8817V20.4701H40.5856V19.8817H41.1739ZM41.7622 20.4701V21.0584H41.1739V20.4701H41.7622ZM42.3505 20.4701V21.0584H41.7622V20.4701H42.3505ZM42.3505 19.8817V20.4701H41.7622V19.8817H42.3505ZM42.3505 19.2934V19.8817H41.7622V19.2934H42.3505ZM42.3505 18.7051V19.2934H41.7622V18.7051H42.3505ZM42.3505 18.1168V18.7051H41.7622V18.1168H42.3505ZM41.7622 18.1168V18.7051H41.1739V18.1168H41.7622ZM41.7622 17.5285V18.1168H41.1739V17.5285H41.7622ZM41.7622 16.9401V17.5285H41.1739V16.9401H41.7622ZM41.7622 16.3518V16.9401H41.1739V16.3518H41.7622ZM42.3505 16.3518V16.9401H41.7622V16.3518H42.3505ZM42.3505 16.9401V17.5285H41.7622V16.9401H42.3505ZM42.3505 17.5285V18.1168H41.7622V17.5285H42.3505ZM41.7622 19.2934V19.8817H41.1739V19.2934H41.7622ZM41.7622 19.8817V20.4701H41.1739V19.8817H41.7622ZM41.7622 18.7051V19.2934H41.1739V18.7051H41.7622ZM47.0571 19.8817V20.4701H46.4688V19.8817H47.0571ZM47.0571 20.4701V21.0584H46.4688V20.4701H47.0571ZM47.6454 20.4701V21.0584H47.0571V20.4701H47.6454ZM48.2338 20.4701V21.0584H47.6454V20.4701H48.2338ZM48.8221 20.4701V21.0584H48.2338V20.4701H48.8221ZM49.4104 20.4701V21.0584H48.8221V20.4701H49.4104ZM49.4104 19.8817V20.4701H48.8221V19.8817H49.4104ZM48.8221 19.8817V20.4701H48.2338V19.8817H48.8221ZM48.2338 19.8817V20.4701H47.6454V19.8817H48.2338ZM47.6454 19.8817V20.4701H47.0571V19.8817H47.6454ZM49.4104 21.0584V21.6467H48.8221V21.0584H49.4104ZM48.8221 21.0584V21.6467H48.2338V21.0584H48.8221ZM48.2338 21.0584V21.6467H47.6454V21.0584H48.2338ZM47.6454 21.0584V21.6467H47.0571V21.0584H47.6454ZM47.0571 21.0584V21.6467H46.4688V21.0584H47.0571ZM46.4688 21.0584V21.6467H45.8805V21.0584H46.4688ZM46.4688 21.6467V22.235H45.8805V21.6467H46.4688ZM47.0571 21.6467V22.235H46.4688V21.6467H47.0571ZM47.6454 21.6467V22.235H47.0571V21.6467H47.6454ZM48.2338 21.6467V22.235H47.6454V21.6467H48.2338ZM48.2338 22.235V22.8234H47.6454V22.235H48.2338ZM48.8221 22.235V22.8234H48.2338V22.235H48.8221ZM48.8221 21.6467V22.235H48.2338V21.6467H48.8221ZM48.2338 22.8234V23.4117H47.6454V22.8234H48.2338ZM47.6454 22.8234V23.4117H47.0571V22.8234H47.6454ZM47.6454 22.235V22.8234H47.0571V22.235H47.6454ZM47.0571 22.235V22.8234H46.4688V22.235H47.0571ZM47.0571 22.8234V23.4117H46.4688V22.8234H47.0571ZM47.0571 23.4117V24H46.4688V23.4117H47.0571ZM46.4688 23.4117V24H45.8805V23.4117H46.4688ZM45.8805 23.4117V24H45.2922V23.4117H45.8805ZM45.2922 23.4117V24H44.7038V23.4117H45.2922ZM44.7038 23.4117V24H44.1155V23.4117H44.7038ZM44.1155 23.4117V24H43.5272V23.4117H44.1155ZM43.5272 23.4117V24H42.9389V23.4117H43.5272ZM42.9389 23.4117V24H42.3505V23.4117H42.9389ZM43.5272 22.8234V23.4117H42.9389V22.8234H43.5272ZM44.1155 22.8234V23.4117H43.5272V22.8234H44.1155ZM44.7038 22.8234V23.4117H44.1155V22.8234H44.7038ZM45.2922 22.8234V23.4117H44.7038V22.8234H45.2922ZM45.8805 22.8234V23.4117H45.2922V22.8234H45.8805ZM46.4688 22.8234V23.4117H45.8805V22.8234H46.4688ZM46.4688 22.235V22.8234H45.8805V22.235H46.4688ZM45.8805 22.235V22.8234H45.2922V22.235H45.8805ZM45.2922 22.235V22.8234H44.7038V22.235H45.2922ZM44.7038 22.235V22.8234H44.1155V22.235H44.7038ZM44.1155 22.235V22.8234H43.5272V22.235H44.1155ZM43.5272 22.235V22.8234H42.9389V22.235H43.5272ZM42.9389 22.8234V23.4117H42.3505V22.8234H42.9389ZM42.3505 22.8234V23.4117H41.7622V22.8234H42.3505ZM41.7622 22.8234V23.4117H41.1739V22.8234H41.7622ZM41.7622 22.235V22.8234H41.1739V22.235H41.7622ZM41.1739 22.235V22.8234H40.5856V22.235H41.1739ZM41.1739 21.6467V22.235H40.5856V21.6467H41.1739ZM41.7622 21.6467V22.235H41.1739V21.6467H41.7622ZM42.3505 21.6467V22.235H41.7622V21.6467H42.3505ZM42.9389 21.6467V22.235H42.3505V21.6467H42.9389ZM43.5272 21.6467V22.235H42.9389V21.6467H43.5272ZM44.1155 21.6467V22.235H43.5272V21.6467H44.1155ZM44.7038 21.6467V22.235H44.1155V21.6467H44.7038ZM45.2922 21.6467V22.235H44.7038V21.6467H45.2922ZM45.8805 21.6467V22.235H45.2922V21.6467H45.8805ZM42.9389 22.235V22.8234H42.3505V22.235H42.9389ZM42.3505 22.235V22.8234H41.7622V22.235H42.3505ZM47.0571 16.9401V17.5285H46.4688V16.9401H47.0571ZM47.0571 17.5285V18.1168H46.4688V17.5285H47.0571ZM47.6454 17.5285V18.1168H47.0571V17.5285H47.6454ZM48.2338 17.5285V18.1168H47.6454V17.5285H48.2338ZM48.8221 17.5285V18.1168H48.2338V17.5285H48.8221ZM49.4104 17.5285V18.1168H48.8221V17.5285H49.4104ZM49.4104 16.9401V17.5285H48.8221V16.9401H49.4104ZM48.8221 16.9401V17.5285H48.2338V16.9401H48.8221ZM48.2338 16.9401V17.5285H47.6454V16.9401H48.2338ZM47.6454 16.9401V17.5285H47.0571V16.9401H47.6454ZM47.6454 18.1168V18.7051H47.0571V18.1168H47.6454ZM48.2338 18.1168V18.7051H47.6454V18.1168H48.2338ZM48.2338 18.7051V19.2934H47.6454V18.7051H48.2338ZM48.8221 18.7051V19.2934H48.2338V18.7051H48.8221ZM48.8221 18.1168V18.7051H48.2338V18.1168H48.8221ZM49.4104 18.1168V18.7051H48.8221V18.1168H49.4104ZM49.4104 18.7051V19.2934H48.8221V18.7051H49.4104ZM49.4104 19.2934V19.8817H48.8221V19.2934H49.4104ZM48.8221 19.2934V19.8817H48.2338V19.2934H48.8221ZM48.2338 19.2934V19.8817H47.6454V19.2934H48.2338ZM47.6454 19.2934V19.8817H47.0571V19.2934H47.6454ZM47.6454 18.7051V19.2934H47.0571V18.7051H47.6454ZM47.0571 18.7051V19.2934H46.4688V18.7051H47.0571ZM47.0571 18.1168V18.7051H46.4688V18.1168H47.0571ZM47.0571 19.2934V19.8817H46.4688V19.2934H47.0571ZM57.6573 16.3518V16.9401H57.0689V16.3518H57.6573ZM58.2456 16.3518V16.9401H57.6573V16.3518H58.2456ZM58.8339 16.3518V16.9401H58.2456V16.3518H58.8339ZM59.4222 16.3518V16.9401H58.8339V16.3518H59.4222ZM60.0105 16.3518V16.9401H59.4222V16.3518H60.0105ZM60.0105 15.7635V16.3518H59.4222V15.7635H60.0105ZM60.0105 15.1752V15.7635H59.4222V15.1752H60.0105ZM59.4222 15.1752V15.7635H58.8339V15.1752H59.4222ZM58.8339 15.1752V15.7635H58.2456V15.1752H58.8339ZM58.2456 15.1752V15.7635H57.6573V15.1752H58.2456ZM58.2456 15.7635V16.3518H57.6573V15.7635H58.2456ZM57.6573 15.7635V16.3518H57.0689V15.7635H57.6573ZM58.8339 15.7635V16.3518H58.2456V15.7635H58.8339ZM59.4222 15.7635V16.3518H58.8339V15.7635H59.4222ZM57.6573 15.1752V15.7635H57.0689V15.1752H57.6573ZM57.0689 15.1752V15.7635H56.4806V15.1752H57.0689ZM57.0689 14.5869V15.1752H56.4806V14.5869H57.0689ZM57.6573 14.5869V15.1752H57.0689V14.5869H57.6573ZM58.2456 14.5869V15.1752H57.6573V14.5869H58.2456ZM58.8339 14.5869V15.1752H58.2456V14.5869H58.8339ZM59.4222 14.5869V15.1752H58.8339V14.5869H59.4222ZM59.4222 13.9985V14.5869H58.8339V13.9985H59.4222ZM58.8339 13.9985V14.5869H58.2456V13.9985H58.8339ZM58.2456 13.9985V14.5869H57.6573V13.9985H58.2456ZM57.6573 13.9985V14.5869H57.0689V13.9985H57.6573ZM57.0689 13.9985V14.5869H56.4806V13.9985H57.0689ZM58.2456 13.4102V13.9985H57.6573V13.4102H58.2456ZM58.8339 13.4102V13.9985H58.2456V13.4102H58.8339ZM57.6573 13.4102V13.9985H57.0689V13.4102H57.6573ZM57.6573 12.8219V13.4102H57.0689V12.8219H57.6573ZM57.0689 12.8219V13.4102H56.4806V12.8219H57.0689ZM57.0689 13.4102V13.9985H56.4806V13.4102H57.0689ZM56.4806 13.4102V13.9985H55.8923V13.4102H56.4806ZM56.4806 12.8219V13.4102H55.8923V12.8219H56.4806ZM56.4806 13.9985V14.5869H55.8923V13.9985H56.4806ZM55.8923 13.9985V14.5869H55.304V13.9985H55.8923ZM55.8923 14.5869V15.1752H55.304V14.5869H55.8923ZM56.4806 14.5869V15.1752H55.8923V14.5869H56.4806ZM55.304 14.5869V15.1752H54.7156V14.5869H55.304ZM55.304 13.9985V14.5869H54.7156V13.9985H55.304ZM55.304 13.4102V13.9985H54.7156V13.4102H55.304ZM55.304 12.8219V13.4102H54.7156V12.8219H55.304ZM55.8923 12.8219V13.4102H55.304V12.8219H55.8923ZM55.8923 13.4102V13.9985H55.304V13.4102H55.8923ZM54.7156 12.8219V13.4102H54.1273V12.8219H54.7156ZM54.1273 12.8219V13.4102H53.539V12.8219H54.1273ZM53.539 12.8219V13.4102H52.9507V12.8219H53.539ZM53.539 13.4102V13.9985H52.9507V13.4102H53.539ZM53.539 13.9985V14.5869H52.9507V13.9985H53.539ZM53.539 14.5869V15.1752H52.9507V14.5869H53.539ZM54.1273 14.5869V15.1752H53.539V14.5869H54.1273ZM54.7156 14.5869V15.1752H54.1273V14.5869H54.7156ZM54.7156 13.9985V14.5869H54.1273V13.9985H54.7156ZM54.7156 13.4102V13.9985H54.1273V13.4102H54.7156ZM54.1273 13.4102V13.9985H53.539V13.4102H54.1273ZM54.1273 13.9985V14.5869H53.539V13.9985H54.1273ZM52.9507 13.9985V14.5869H52.3624V13.9985H52.9507ZM52.9507 13.4102V13.9985H52.3624V13.4102H52.9507ZM52.3624 13.4102V13.9985H51.774V13.4102H52.3624ZM52.3624 13.9985V14.5869H51.774V13.9985H52.3624ZM51.774 13.9985V14.5869H51.1857V13.9985H51.774ZM51.774 14.5869V15.1752H51.1857V14.5869H51.774ZM51.774 15.1752V15.7635H51.1857V15.1752H51.774ZM52.3624 15.1752V15.7635H51.774V15.1752H52.3624ZM52.3624 14.5869V15.1752H51.774V14.5869H52.3624ZM52.9507 14.5869V15.1752H52.3624V14.5869H52.9507ZM52.9507 15.1752V15.7635H52.3624V15.1752H52.9507ZM53.539 15.1752V15.7635H52.9507V15.1752H53.539ZM54.1273 15.1752V15.7635H53.539V15.1752H54.1273ZM51.1857 15.1752V15.7635H50.5974V15.1752H51.1857ZM51.1857 15.7635V16.3518H50.5974V15.7635H51.1857ZM51.1857 16.3518V16.9401H50.5974V16.3518H51.1857ZM51.1857 16.9401V17.5285H50.5974V16.9401H51.1857ZM51.1857 17.5285V18.1168H50.5974V17.5285H51.1857ZM51.1857 18.1168V18.7051H50.5974V18.1168H51.1857ZM51.1857 18.7051V19.2934H50.5974V18.7051H51.1857ZM51.1857 19.2934V19.8817H50.5974V19.2934H51.1857ZM51.1857 19.8817V20.4701H50.5974V19.8817H51.1857ZM51.1857 20.4701V21.0584H50.5974V20.4701H51.1857ZM51.774 20.4701V21.0584H51.1857V20.4701H51.774ZM51.774 21.0584V21.6467H51.1857V21.0584H51.774ZM51.1857 21.0584V21.6467H50.5974V21.0584H51.1857ZM52.3624 21.0584V21.6467H51.774V21.0584H52.3624ZM52.9507 21.0584V21.6467H52.3624V21.0584H52.9507ZM53.539 21.0584V21.6467H52.9507V21.0584H53.539ZM54.1273 21.0584V21.6467H53.539V21.0584H54.1273ZM53.539 20.4701V21.0584H52.9507V20.4701H53.539ZM53.539 19.8817V20.4701H52.9507V19.8817H53.539ZM53.539 19.2934V19.8817H52.9507V19.2934H53.539ZM53.539 18.7051V19.2934H52.9507V18.7051H53.539ZM53.539 18.1168V18.7051H52.9507V18.1168H53.539ZM53.539 17.5285V18.1168H52.9507V17.5285H53.539ZM53.539 16.9401V17.5285H52.9507V16.9401H53.539ZM53.539 16.3518V16.9401H52.9507V16.3518H53.539ZM53.539 15.7635V16.3518H52.9507V15.7635H53.539ZM52.9507 15.7635V16.3518H52.3624V15.7635H52.9507ZM52.3624 15.7635V16.3518H51.774V15.7635H52.3624ZM51.774 15.7635V16.3518H51.1857V15.7635H51.774ZM51.774 16.3518V16.9401H51.1857V16.3518H51.774ZM51.774 16.9401V17.5285H51.1857V16.9401H51.774ZM51.774 17.5285V18.1168H51.1857V17.5285H51.774ZM51.774 18.1168V18.7051H51.1857V18.1168H51.774ZM51.774 18.7051V19.2934H51.1857V18.7051H51.774ZM51.774 19.2934V19.8817H51.1857V19.2934H51.774ZM51.774 19.8817V20.4701H51.1857V19.8817H51.774ZM52.3624 20.4701V21.0584H51.774V20.4701H52.3624ZM52.9507 20.4701V21.0584H52.3624V20.4701H52.9507ZM52.9507 19.8817V20.4701H52.3624V19.8817H52.9507ZM52.9507 19.2934V19.8817H52.3624V19.2934H52.9507ZM52.9507 18.7051V19.2934H52.3624V18.7051H52.9507ZM52.9507 18.1168V18.7051H52.3624V18.1168H52.9507ZM52.3624 18.1168V18.7051H51.774V18.1168H52.3624ZM52.3624 17.5285V18.1168H51.774V17.5285H52.3624ZM52.3624 16.9401V17.5285H51.774V16.9401H52.3624ZM52.3624 16.3518V16.9401H51.774V16.3518H52.3624ZM52.9507 16.3518V16.9401H52.3624V16.3518H52.9507ZM52.9507 16.9401V17.5285H52.3624V16.9401H52.9507ZM52.9507 17.5285V18.1168H52.3624V17.5285H52.9507ZM52.3624 19.2934V19.8817H51.774V19.2934H52.3624ZM52.3624 19.8817V20.4701H51.774V19.8817H52.3624ZM52.3624 18.7051V19.2934H51.774V18.7051H52.3624ZM57.6573 19.8817V20.4701H57.0689V19.8817H57.6573ZM57.6573 20.4701V21.0584H57.0689V20.4701H57.6573ZM58.2456 20.4701V21.0584H57.6573V20.4701H58.2456ZM58.8339 20.4701V21.0584H58.2456V20.4701H58.8339ZM59.4222 20.4701V21.0584H58.8339V20.4701H59.4222ZM60.0105 20.4701V21.0584H59.4222V20.4701H60.0105ZM60.0105 19.8817V20.4701H59.4222V19.8817H60.0105ZM59.4222 19.8817V20.4701H58.8339V19.8817H59.4222ZM58.8339 19.8817V20.4701H58.2456V19.8817H58.8339ZM58.2456 19.8817V20.4701H57.6573V19.8817H58.2456ZM60.0105 21.0584V21.6467H59.4222V21.0584H60.0105ZM59.4222 21.0584V21.6467H58.8339V21.0584H59.4222ZM58.8339 21.0584V21.6467H58.2456V21.0584H58.8339ZM58.2456 21.0584V21.6467H57.6573V21.0584H58.2456ZM57.6573 21.0584V21.6467H57.0689V21.0584H57.6573ZM57.0689 21.0584V21.6467H56.4806V21.0584H57.0689ZM57.0689 21.6467V22.235H56.4806V21.6467H57.0689ZM57.6573 21.6467V22.235H57.0689V21.6467H57.6573ZM58.2456 21.6467V22.235H57.6573V21.6467H58.2456ZM58.8339 21.6467V22.235H58.2456V21.6467H58.8339ZM58.8339 22.235V22.8234H58.2456V22.235H58.8339ZM59.4222 22.235V22.8234H58.8339V22.235H59.4222ZM59.4222 21.6467V22.235H58.8339V21.6467H59.4222ZM58.8339 22.8234V23.4117H58.2456V22.8234H58.8339ZM58.2456 22.8234V23.4117H57.6573V22.8234H58.2456ZM58.2456 22.235V22.8234H57.6573V22.235H58.2456ZM57.6573 22.235V22.8234H57.0689V22.235H57.6573ZM57.6573 22.8234V23.4117H57.0689V22.8234H57.6573ZM57.6573 23.4117V24H57.0689V23.4117H57.6573ZM57.0689 23.4117V24H56.4806V23.4117H57.0689ZM56.4806 23.4117V24H55.8923V23.4117H56.4806ZM55.8923 23.4117V24H55.304V23.4117H55.8923ZM55.304 23.4117V24H54.7156V23.4117H55.304ZM54.7156 23.4117V24H54.1273V23.4117H54.7156ZM54.1273 23.4117V24H53.539V23.4117H54.1273ZM53.539 23.4117V24H52.9507V23.4117H53.539ZM54.1273 22.8234V23.4117H53.539V22.8234H54.1273ZM54.7156 22.8234V23.4117H54.1273V22.8234H54.7156ZM55.304 22.8234V23.4117H54.7156V22.8234H55.304ZM55.8923 22.8234V23.4117H55.304V22.8234H55.8923ZM56.4806 22.8234V23.4117H55.8923V22.8234H56.4806ZM57.0689 22.8234V23.4117H56.4806V22.8234H57.0689ZM57.0689 22.235V22.8234H56.4806V22.235H57.0689ZM56.4806 22.235V22.8234H55.8923V22.235H56.4806ZM55.8923 22.235V22.8234H55.304V22.235H55.8923ZM55.304 22.235V22.8234H54.7156V22.235H55.304ZM54.7156 22.235V22.8234H54.1273V22.235H54.7156ZM54.1273 22.235V22.8234H53.539V22.235H54.1273ZM53.539 22.8234V23.4117H52.9507V22.8234H53.539ZM52.9507 22.8234V23.4117H52.3624V22.8234H52.9507ZM52.3624 22.8234V23.4117H51.774V22.8234H52.3624ZM52.3624 22.235V22.8234H51.774V22.235H52.3624ZM51.774 22.235V22.8234H51.1857V22.235H51.774ZM51.774 21.6467V22.235H51.1857V21.6467H51.774ZM52.3624 21.6467V22.235H51.774V21.6467H52.3624ZM52.9507 21.6467V22.235H52.3624V21.6467H52.9507ZM53.539 21.6467V22.235H52.9507V21.6467H53.539ZM54.1273 21.6467V22.235H53.539V21.6467H54.1273ZM54.7156 21.6467V22.235H54.1273V21.6467H54.7156ZM55.304 21.6467V22.235H54.7156V21.6467H55.304ZM55.8923 21.6467V22.235H55.304V21.6467H55.8923ZM56.4806 21.6467V22.235H55.8923V21.6467H56.4806ZM53.539 22.235V22.8234H52.9507V22.235H53.539ZM52.9507 22.235V22.8234H52.3624V22.235H52.9507ZM62.3742 23.4117V24H61.7858V23.4117H62.3742ZM62.3742 22.8234V23.4117H61.7858V22.8234H62.3742ZM62.3742 22.235V22.8234H61.7858V22.235H62.3742ZM62.3742 21.6467V22.235H61.7858V21.6467H62.3742ZM62.3742 21.0584V21.6467H61.7858V21.0584H62.3742ZM62.3742 20.4701V21.0584H61.7858V20.4701H62.3742ZM62.3742 19.8817V20.4701H61.7858V19.8817H62.3742ZM62.3742 19.2934V19.8817H61.7858V19.2934H62.3742ZM62.3742 18.7051V19.2934H61.7858V18.7051H62.3742ZM62.3742 18.1168V18.7051H61.7858V18.1168H62.3742ZM62.3742 17.5285V18.1168H61.7858V17.5285H62.3742ZM62.3742 16.9401V17.5285H61.7858V16.9401H62.3742ZM62.3742 16.3518V16.9401H61.7858V16.3518H62.3742ZM62.3742 15.7635V16.3518H61.7858V15.7635H62.3742ZM62.3742 15.1752V15.7635H61.7858V15.1752H62.3742ZM62.9625 15.1752V15.7635H62.3742V15.1752H62.9625ZM62.9625 15.7635V16.3518H62.3742V15.7635H62.9625ZM62.9625 16.3518V16.9401H62.3742V16.3518H62.9625ZM62.9625 16.9401V17.5285H62.3742V16.9401H62.9625ZM62.9625 17.5285V18.1168H62.3742V17.5285H62.9625ZM62.9625 18.1168V18.7051H62.3742V18.1168H62.9625ZM62.9625 18.7051V19.2934H62.3742V18.7051H62.9625ZM63.5508 19.2934V19.8817H62.9625V19.2934H63.5508ZM63.5508 19.8817V20.4701H62.9625V19.8817H63.5508ZM63.5508 20.4701V21.0584H62.9625V20.4701H63.5508ZM63.5508 21.0584V21.6467H62.9625V21.0584H63.5508ZM63.5508 21.6467V22.235H62.9625V21.6467H63.5508ZM63.5508 22.235V22.8234H62.9625V22.235H63.5508ZM63.5508 22.8234V23.4117H62.9625V22.8234H63.5508ZM63.5508 23.4117V24H62.9625V23.4117H63.5508ZM64.1391 23.4117V24H63.5508V23.4117H64.1391ZM64.7275 23.4117V24H64.1391V23.4117H64.7275ZM64.7275 22.8234V23.4117H64.1391V22.8234H64.7275ZM64.7275 22.235V22.8234H64.1391V22.235H64.7275ZM64.7275 21.6467V22.235H64.1391V21.6467H64.7275ZM64.7275 21.0584V21.6467H64.1391V21.0584H64.7275ZM64.7275 20.4701V21.0584H64.1391V20.4701H64.7275ZM64.7275 19.8817V20.4701H64.1391V19.8817H64.7275ZM64.7275 19.2934V19.8817H64.1391V19.2934H64.7275ZM64.1391 19.2934V19.8817H63.5508V19.2934H64.1391ZM64.1391 18.7051V19.2934H63.5508V18.7051H64.1391ZM64.1391 19.8817V20.4701H63.5508V19.8817H64.1391ZM64.1391 20.4701V21.0584H63.5508V20.4701H64.1391ZM64.1391 21.0584V21.6467H63.5508V21.0584H64.1391ZM64.1391 21.6467V22.235H63.5508V21.6467H64.1391ZM64.1391 22.235V22.8234H63.5508V22.235H64.1391ZM64.1391 22.8234V23.4117H63.5508V22.8234H64.1391ZM62.9625 23.4117V24H62.3742V23.4117H62.9625ZM62.9625 22.8234V23.4117H62.3742V22.8234H62.9625ZM62.9625 22.235V22.8234H62.3742V22.235H62.9625ZM62.9625 21.6467V22.235H62.3742V21.6467H62.9625ZM62.9625 21.0584V21.6467H62.3742V21.0584H62.9625ZM62.9625 20.4701V21.0584H62.3742V20.4701H62.9625ZM62.9625 19.8817V20.4701H62.3742V19.8817H62.9625ZM62.9625 19.2934V19.8817H62.3742V19.2934H62.9625ZM62.3742 9.29196V9.88028H61.7858V9.29196H62.3742ZM62.3742 9.88028V10.4686H61.7858V9.88028H62.3742ZM62.3742 10.4686V11.0569H61.7858V10.4686H62.3742ZM62.3742 11.0569V11.6452H61.7858V11.0569H62.3742ZM62.3742 11.6452V12.2336H61.7858V11.6452H62.3742ZM62.3742 12.2336V12.8219H61.7858V12.2336H62.3742ZM62.3742 12.8219V13.4102H61.7858V12.8219H62.3742ZM62.3742 13.4102V13.9985H61.7858V13.4102H62.3742ZM62.3742 13.9985V14.5869H61.7858V13.9985H62.3742ZM62.3742 14.5869V15.1752H61.7858V14.5869H62.3742ZM64.1391 9.29196V9.88028H63.5508V9.29196H64.1391ZM64.1391 9.88028V10.4686H63.5508V9.88028H64.1391ZM64.1391 10.4686V11.0569H63.5508V10.4686H64.1391ZM64.1391 11.0569V11.6452H63.5508V11.0569H64.1391ZM64.1391 11.6452V12.2336H63.5508V11.6452H64.1391ZM64.1391 12.2336V12.8219H63.5508V12.2336H64.1391ZM64.1391 13.4102V13.9985H63.5508V13.4102H64.1391ZM64.1391 13.9985V14.5869H63.5508V13.9985H64.1391ZM64.1391 14.5869V15.1752H63.5508V14.5869H64.1391ZM64.1391 15.1752V15.7635H63.5508V15.1752H64.1391ZM64.1391 15.7635V16.3518H63.5508V15.7635H64.1391ZM64.1391 16.3518V16.9401H63.5508V16.3518H64.1391ZM64.1391 16.9401V17.5285H63.5508V16.9401H64.1391ZM64.7275 17.5285V18.1168H64.1391V17.5285H64.7275ZM64.7275 18.1168V18.7051H64.1391V18.1168H64.7275ZM64.7275 18.7051V19.2934H64.1391V18.7051H64.7275ZM64.7275 16.9401V17.5285H64.1391V16.9401H64.7275ZM64.7275 16.3518V16.9401H64.1391V16.3518H64.7275ZM64.7275 15.7635V16.3518H64.1391V15.7635H64.7275ZM64.7275 15.1752V15.7635H64.1391V15.1752H64.7275ZM64.7275 14.5869V15.1752H64.1391V14.5869H64.7275ZM64.7275 13.9985V14.5869H64.1391V13.9985H64.7275ZM64.7275 13.4102V13.9985H64.1391V13.4102H64.7275ZM64.7275 12.8219V13.4102H64.1391V12.8219H64.7275ZM64.7275 12.2336V12.8219H64.1391V12.2336H64.7275ZM64.7275 11.6452V12.2336H64.1391V11.6452H64.7275ZM64.1391 12.8219V13.4102H63.5508V12.8219H64.1391ZM64.7275 11.0569V11.6452H64.1391V11.0569H64.7275ZM64.7275 10.4686V11.0569H64.1391V10.4686H64.7275ZM64.7275 9.88028V10.4686H64.1391V9.88028H64.7275ZM64.7275 9.29196V9.88028H64.1391V9.29196H64.7275ZM63.5508 9.29196V9.88028H62.9625V9.29196H63.5508ZM62.9625 9.29196V9.88028H62.3742V9.29196H62.9625ZM62.9625 9.88028V10.4686H62.3742V9.88028H62.9625ZM63.5508 9.88028V10.4686H62.9625V9.88028H63.5508ZM63.5508 10.4686V11.0569H62.9625V10.4686H63.5508ZM63.5508 11.0569V11.6452H62.9625V11.0569H63.5508ZM63.5508 11.6452V12.2336H62.9625V11.6452H63.5508ZM63.5508 12.2336V12.8219H62.9625V12.2336H63.5508ZM63.5508 12.8219V13.4102H62.9625V12.8219H63.5508ZM63.5508 13.4102V13.9985H62.9625V13.4102H63.5508ZM62.9625 13.9985V14.5869H62.3742V13.9985H62.9625ZM62.9625 14.5869V15.1752H62.3742V14.5869H62.9625ZM62.9625 13.4102V13.9985H62.3742V13.4102H62.9625ZM62.9625 12.8219V13.4102H62.3742V12.8219H62.9625ZM62.9625 12.2336V12.8219H62.3742V12.2336H62.9625ZM62.9625 11.6452V12.2336H62.3742V11.6452H62.9625ZM62.9625 11.0569V11.6452H62.3742V11.0569H62.9625ZM62.9625 10.4686V11.0569H62.3742V10.4686H62.9625ZM63.5508 13.9985V14.5869H62.9625V13.9985H63.5508ZM63.5508 14.5869V15.1752H62.9625V14.5869H63.5508ZM63.5508 15.1752V15.7635H62.9625V15.1752H63.5508ZM63.5508 15.7635V16.3518H62.9625V15.7635H63.5508ZM63.5508 16.3518V16.9401H62.9625V16.3518H63.5508ZM63.5508 16.9401V17.5285H62.9625V16.9401H63.5508ZM63.5508 17.5285V18.1168H62.9625V17.5285H63.5508ZM63.5508 18.1168V18.7051H62.9625V18.1168H63.5508ZM63.5508 18.7051V19.2934H62.9625V18.7051H63.5508ZM64.1391 18.1168V18.7051H63.5508V18.1168H64.1391ZM64.1391 17.5285V18.1168H63.5508V17.5285H64.1391ZM67.6691 13.4102V13.9985H67.0807V13.4102H67.6691ZM67.6691 12.8219V13.4102H67.0807V12.8219H67.6691ZM68.2574 12.8219V13.4102H67.6691V12.8219H68.2574ZM68.8457 12.8219V13.4102H68.2574V12.8219H68.8457ZM69.434 12.8219V13.4102H68.8457V12.8219H69.434ZM70.0224 12.8219V13.4102H69.434V12.8219H70.0224ZM70.0224 13.4102V13.9985H69.434V13.4102H70.0224ZM70.0224 13.9985V14.5869H69.434V13.9985H70.0224ZM70.0224 14.5869V15.1752H69.434V14.5869H70.0224ZM70.0224 15.1752V15.7635H69.434V15.1752H70.0224ZM69.434 15.1752V15.7635H68.8457V15.1752H69.434ZM69.434 15.7635V16.3518H68.8457V15.7635H69.434ZM68.8457 15.7635V16.3518H68.2574V15.7635H68.8457ZM68.8457 16.3518V16.9401H68.2574V16.3518H68.8457ZM68.2574 16.3518V16.9401H67.6691V16.3518H68.2574ZM68.2574 16.9401V17.5285H67.6691V16.9401H68.2574ZM67.6691 16.9401V17.5285H67.0807V16.9401H67.6691ZM67.6691 17.5285V18.1168H67.0807V17.5285H67.6691ZM67.6691 18.1168V18.7051H67.0807V18.1168H67.6691ZM68.2574 18.1168V18.7051H67.6691V18.1168H68.2574ZM68.2574 18.7051V19.2934H67.6691V18.7051H68.2574ZM68.8457 18.7051V19.2934H68.2574V18.7051H68.8457ZM68.8457 19.2934V19.8817H68.2574V19.2934H68.8457ZM69.434 19.2934V19.8817H68.8457V19.2934H69.434ZM69.434 19.8817V20.4701H68.8457V19.8817H69.434ZM70.0224 19.8817V20.4701H69.434V19.8817H70.0224ZM70.0224 20.4701V21.0584H69.434V20.4701H70.0224ZM70.0224 21.0584V21.6467H69.434V21.0584H70.0224ZM70.0224 21.6467V22.235H69.434V21.6467H70.0224ZM70.0224 22.235V22.8234H69.434V22.235H70.0224ZM70.0224 22.8234V23.4117H69.434V22.8234H70.0224ZM70.0224 23.4117V24H69.434V23.4117H70.0224ZM67.6691 13.9985V14.5869H67.0807V13.9985H67.6691ZM67.6691 14.5869V15.1752H67.0807V14.5869H67.6691ZM67.6691 15.1752V15.7635H67.0807V15.1752H67.6691ZM67.0807 15.1752V15.7635H66.4924V15.1752H67.0807ZM67.6691 15.7635V16.3518H67.0807V15.7635H67.6691ZM67.0807 15.7635V16.3518H66.4924V15.7635H67.0807ZM67.0807 16.3518V16.9401H66.4924V16.3518H67.0807ZM66.4924 15.7635V16.3518H65.9041V15.7635H66.4924ZM66.4924 16.3518V16.9401H65.9041V16.3518H66.4924ZM67.0807 16.9401V17.5285H66.4924V16.9401H67.0807ZM67.6691 16.3518V16.9401H67.0807V16.3518H67.6691ZM68.2574 15.7635V16.3518H67.6691V15.7635H68.2574ZM68.8457 15.1752V15.7635H68.2574V15.1752H68.8457ZM69.434 14.5869V15.1752H68.8457V14.5869H69.434ZM69.434 13.9985V14.5869H68.8457V13.9985H69.434ZM69.434 13.4102V13.9985H68.8457V13.4102H69.434ZM68.8457 13.4102V13.9985H68.2574V13.4102H68.8457ZM68.2574 13.9985V14.5869H67.6691V13.9985H68.2574ZM68.2574 14.5869V15.1752H67.6691V14.5869H68.2574ZM68.2574 15.1752V15.7635H67.6691V15.1752H68.2574ZM68.8457 14.5869V15.1752H68.2574V14.5869H68.8457ZM68.8457 13.9985V14.5869H68.2574V13.9985H68.8457ZM68.2574 13.4102V13.9985H67.6691V13.4102H68.2574ZM65.9041 16.3518V16.9401H65.3158V16.3518H65.9041ZM65.3158 16.3518V16.9401H64.7275V16.3518H65.3158ZM65.3158 16.9401V17.5285H64.7275V16.9401H65.3158ZM65.3158 17.5285V18.1168H64.7275V17.5285H65.3158ZM65.3158 18.1168V18.7051H64.7275V18.1168H65.3158ZM65.9041 18.1168V18.7051H65.3158V18.1168H65.9041ZM65.9041 18.7051V19.2934H65.3158V18.7051H65.9041ZM65.3158 18.7051V19.2934H64.7275V18.7051H65.3158ZM66.4924 18.7051V19.2934H65.9041V18.7051H66.4924ZM66.4924 19.2934V19.8817H65.9041V19.2934H66.4924ZM67.0807 19.2934V19.8817H66.4924V19.2934H67.0807ZM67.0807 19.8817V20.4701H66.4924V19.8817H67.0807ZM67.6691 19.8817V20.4701H67.0807V19.8817H67.6691ZM67.6691 20.4701V21.0584H67.0807V20.4701H67.6691ZM68.2574 21.0584V21.6467H67.6691V21.0584H68.2574ZM68.2574 21.6467V22.235H67.6691V21.6467H68.2574ZM68.2574 22.235V22.8234H67.6691V22.235H68.2574ZM67.6691 22.235V22.8234H67.0807V22.235H67.6691ZM67.6691 21.6467V22.235H67.0807V21.6467H67.6691ZM67.6691 21.0584V21.6467H67.0807V21.0584H67.6691ZM67.6691 22.8234V23.4117H67.0807V22.8234H67.6691ZM67.6691 23.4117V24H67.0807V23.4117H67.6691ZM68.2574 23.4117V24H67.6691V23.4117H68.2574ZM68.8457 23.4117V24H68.2574V23.4117H68.8457ZM69.434 23.4117V24H68.8457V23.4117H69.434ZM69.434 22.8234V23.4117H68.8457V22.8234H69.434ZM68.8457 22.8234V23.4117H68.2574V22.8234H68.8457ZM68.2574 22.8234V23.4117H67.6691V22.8234H68.2574ZM68.8457 22.235V22.8234H68.2574V22.235H68.8457ZM69.434 22.235V22.8234H68.8457V22.235H69.434ZM69.434 21.6467V22.235H68.8457V21.6467H69.434ZM69.434 21.0584V21.6467H68.8457V21.0584H69.434ZM69.434 20.4701V21.0584H68.8457V20.4701H69.434ZM68.8457 20.4701V21.0584H68.2574V20.4701H68.8457ZM68.8457 21.0584V21.6467H68.2574V21.0584H68.8457ZM68.8457 21.6467V22.235H68.2574V21.6467H68.8457ZM68.8457 19.8817V20.4701H68.2574V19.8817H68.8457ZM68.2574 19.8817V20.4701H67.6691V19.8817H68.2574ZM68.2574 19.2934V19.8817H67.6691V19.2934H68.2574ZM67.6691 19.2934V19.8817H67.0807V19.2934H67.6691ZM67.6691 18.7051V19.2934H67.0807V18.7051H67.6691ZM67.0807 18.7051V19.2934H66.4924V18.7051H67.0807ZM67.0807 18.1168V18.7051H66.4924V18.1168H67.0807ZM67.0807 17.5285V18.1168H66.4924V17.5285H67.0807ZM66.4924 17.5285V18.1168H65.9041V17.5285H66.4924ZM66.4924 16.9401V17.5285H65.9041V16.9401H66.4924ZM65.9041 16.9401V17.5285H65.3158V16.9401H65.9041ZM65.9041 17.5285V18.1168H65.3158V17.5285H65.9041ZM66.4924 18.1168V18.7051H65.9041V18.1168H66.4924ZM68.2574 20.4701V21.0584H67.6691V20.4701H68.2574Z" fill="black"/>
</svg>
