<svg width="100" height="100" viewBox="0 0 100 100" fill="none" xmlns="http://www.w3.org/2000/svg">
<g id="Frame 6">
<rect width="100" height="100" fill="#FF5D00" fill-opacity="0.1"/>
<g id="cib-google-ads 1">
<g id="Group">
<g id="Group_2">
<path id="Vector" d="M49.9867 24.0221H50.0531C52.2844 24.0221 54.3563 24.7658 56.0297 26.0275H56.043C57.1852 26.8908 58.1414 28.0064 58.8187 29.2682L69.9219 48.6189L69.9883 48.7783L78.5016 63.5471C79.4047 65.0744 79.8828 66.8275 79.8828 68.6205C79.8828 70.0283 79.5906 71.3697 79.0727 72.5783L79.0859 72.6182C78.6875 73.5213 78.1562 74.3447 77.5055 75.1018C76.7617 75.965 75.8852 76.6955 74.9023 77.2666C73.4281 78.1299 71.7547 78.5814 70.0547 78.5947H69.882C67.7172 78.5947 65.632 77.8908 63.9055 76.5893H63.8922C62.75 75.726 61.7938 74.6104 61.1164 73.3486L50 53.9846L49.9336 53.8252L41.3805 38.99C40.4906 37.476 40.0391 35.7494 40.0391 33.9963C40.0391 32.9471 40.1984 31.9244 40.5039 30.9682L40.5172 30.9018L40.5438 30.8221C40.6766 30.4369 40.8359 29.9854 40.8359 29.9854C41.2211 29.0955 41.7656 28.2588 42.3898 27.5283L42.5492 27.3424L42.5891 27.3025V27.2893H42.6023L42.6289 27.2627L42.6555 27.2494C43.3195 26.5057 44.1297 25.8549 45.0328 25.3369C46.507 24.4736 48.1805 24.0221 49.8805 24.0088L49.9867 24.0221ZM30.1047 78.5814H29.9453C28.2453 78.5549 26.5719 78.1033 25.0977 77.2533C24.1016 76.6822 23.225 75.9518 22.4945 75.0885C21.8438 74.3447 21.3125 73.508 20.9141 72.6049L20.9273 72.565C20.3828 71.3166 20.1172 69.9619 20.1172 68.6072C20.1172 66.7479 20.6219 65.0213 21.4984 63.5338L30.0117 48.765L30.0781 48.6057L37.6484 35.4439C37.8344 37.051 38.3258 38.6182 39.1227 40.0658L39.2687 40.3049L47.6758 54.8877V54.8611L47.8484 55.2197L48.5656 56.4814L38.8836 73.3221C38.2063 74.5838 37.25 75.6994 36.1078 76.5627H36.0945C34.368 77.8643 32.2828 78.5682 30.118 78.5682L30.1047 78.5814Z" fill="#FF5D00"/>
</g>
</g>
</g>
</g>
</svg>
