<svg width="228" height="51" viewBox="0 0 228 51" fill="none" xmlns="http://www.w3.org/2000/svg">
<path d="M46.2719 31.1452C45.9551 30.7556 45.5111 30.4967 45.0222 30.4166C44.5334 30.3365 44.0327 30.4405 43.613 30.7094L25.0005 44.7069V45.306C25.2691 45.2734 25.5413 45.2994 25.7993 45.3824C26.0573 45.4654 26.2952 45.6034 26.4973 45.7874C26.6995 45.9713 26.8613 46.197 26.9721 46.4497C27.0829 46.7023 27.1402 46.9761 27.1402 47.2531C27.1402 47.53 27.0829 47.8039 26.9721 48.0565C26.8613 48.3091 26.6995 48.5349 26.4973 48.7188C26.2952 48.9028 26.0573 49.0408 25.7993 49.1238C25.5413 49.2067 25.2691 49.2328 25.0005 49.2002C25.4323 49.2022 25.8528 49.0587 26.197 48.7917L45.8997 33.8956C46.2836 33.566 46.5342 33.102 46.603 32.5938C46.6718 32.0856 46.5538 31.5693 46.2719 31.1452Z" fill="#669DF6"/>
<path d="M8.9304 22.155C10.06 22.155 10.9757 21.2332 10.9757 20.0962C10.9757 18.9591 10.06 18.0373 8.9304 18.0373C7.80082 18.0373 6.88511 18.9591 6.88511 20.0962C6.88511 21.2332 7.80082 22.155 8.9304 22.155Z" fill="#AECBFA"/>
<path d="M41.0706 5.6844C42.2002 5.6844 43.1159 4.76263 43.1159 3.62557C43.1159 2.48852 42.2002 1.56675 41.0706 1.56675C39.9411 1.56675 39.0254 2.48852 39.0254 3.62557C39.0254 4.76263 39.9411 5.6844 41.0706 5.6844Z" fill="#4285F4"/>
<path d="M24.974 49.2138C24.5088 49.1573 24.08 48.9278 23.7689 48.5689C23.4577 48.2099 23.2859 47.7464 23.2859 47.2662C23.2859 46.786 23.4577 46.3225 23.7689 45.9635C24.08 45.6045 24.5088 45.3751 24.974 45.3186V44.7193L6.37391 30.7182C5.95617 30.4434 5.45433 30.3359 4.96421 30.4163C4.47409 30.4967 4.03001 30.7593 3.71676 31.154C3.43661 31.5784 3.32463 32.0962 3.40361 32.6022C3.48258 33.1082 3.74657 33.5644 4.14191 33.878L23.8314 48.778C24.1672 49.0411 24.5778 49.1846 25.0005 49.1866L24.974 49.2138Z" fill="#AECBFA"/>
<path d="M8.9304 16.2726C10.06 16.2726 10.9757 15.3509 10.9757 14.2138C10.9757 13.0768 10.06 12.155 8.9304 12.155C7.80082 12.155 6.88511 13.0768 6.88511 14.2138C6.88511 15.3509 7.80082 16.2726 8.9304 16.2726Z" fill="#AECBFA"/>
<path d="M9.21105 10.3903C8.75408 10.3833 8.3175 10.1671 7.99434 9.78792C7.67118 9.4087 7.48699 8.8964 7.48102 8.36015V3.2713C7.45271 2.98317 7.47665 2.69128 7.55125 2.41477C7.62585 2.13826 7.74944 1.88339 7.9139 1.66688C8.07836 1.45037 8.27997 1.27711 8.50551 1.15848C8.73105 1.03984 8.97542 0.978516 9.22259 0.978516C9.46975 0.978516 9.71412 1.03984 9.93966 1.15848C10.1652 1.27711 10.3668 1.45037 10.5313 1.66688C10.6957 1.88339 10.8193 2.13826 10.8939 2.41477C10.9685 2.69128 10.9925 2.98317 10.9642 3.2713V8.36015C10.9581 8.90105 10.7707 9.41738 10.4426 9.79734C10.1145 10.1773 9.67204 10.3903 9.21105 10.3903Z" fill="#AECBFA"/>
<path d="M8.9304 28.0373C10.06 28.0373 10.9757 27.1156 10.9757 25.9785C10.9757 24.8415 10.06 23.9197 8.9304 23.9197C7.80082 23.9197 6.88511 24.8415 6.88511 25.9785C6.88511 27.1156 7.80082 28.0373 8.9304 28.0373Z" fill="#AECBFA"/>
<path d="M41.0706 16.2726C40.5256 16.2658 40.0055 16.0544 39.6227 15.6841C39.2399 15.3139 39.0253 14.8147 39.0254 14.2945V9.40121C39.0254 8.88348 39.2408 8.38695 39.6244 8.02086C40.0079 7.65477 40.5281 7.4491 41.0706 7.4491C41.613 7.4491 42.1332 7.65477 42.5167 8.02086C42.9003 8.38695 43.1158 8.88348 43.1158 9.40121V14.2945C43.1194 14.553 43.0691 14.8097 42.968 15.0495C42.8668 15.2894 42.7167 15.5077 42.5265 15.6917C42.3362 15.8757 42.1095 16.0219 41.8596 16.1216C41.6096 16.2213 41.3414 16.2727 41.0706 16.2726Z" fill="#4285F4"/>
<path d="M41.0706 28.0373C42.2002 28.0373 43.1159 27.1156 43.1159 25.9785C43.1159 24.8415 42.2002 23.9197 41.0706 23.9197C39.9411 23.9197 39.0254 24.8415 39.0254 25.9785C39.0254 27.1156 39.9411 28.0373 41.0706 28.0373Z" fill="#4285F4"/>
<path d="M41.0706 22.155C42.2002 22.155 43.1159 21.2332 43.1159 20.0962C43.1159 18.9591 42.2002 18.0373 41.0706 18.0373C39.9411 18.0373 39.0254 18.9591 39.0254 20.0962C39.0254 21.2332 39.9411 22.155 41.0706 22.155Z" fill="#4285F4"/>
<path d="M32.8895 28.0373C34.0191 28.0373 34.9348 27.1156 34.9348 25.9785C34.9348 24.8415 34.0191 23.9197 32.8895 23.9197C31.7599 23.9197 30.8442 24.8415 30.8442 25.9785C30.8442 27.1156 31.7599 28.0373 32.8895 28.0373Z" fill="#4285F4"/>
<path d="M25.2791 33.9197C24.7424 33.9128 24.2297 33.7014 23.8502 33.3306C23.4707 32.9597 23.2544 32.4586 23.2474 31.9342V26.8777C23.3053 26.3873 23.5456 25.9347 23.9228 25.6062C24.2999 25.2777 24.7874 25.0962 25.2926 25.0962C25.7978 25.0962 26.2854 25.2777 26.6625 25.6062C27.0396 25.9347 27.28 26.3873 27.3378 26.8777V31.8812C27.3414 32.1477 27.2908 32.4121 27.189 32.6593C27.0871 32.9065 26.936 33.1314 26.7445 33.3211C26.553 33.5107 26.3248 33.6613 26.0732 33.764C25.8217 33.8668 25.5517 33.9197 25.2791 33.9197Z" fill="#669DF6"/>
<path d="M25.2927 40.3903C26.4223 40.3903 27.338 39.4685 27.338 38.3315C27.338 37.1944 26.4223 36.2726 25.2927 36.2726C24.1631 36.2726 23.2474 37.1944 23.2474 38.3315C23.2474 39.4685 24.1631 40.3903 25.2927 40.3903Z" fill="#669DF6"/>
<path d="M25.2927 23.3315C26.4223 23.3315 27.338 22.4097 27.338 21.2726C27.338 20.1356 26.4223 19.2138 25.2927 19.2138C24.1631 19.2138 23.2474 20.1356 23.2474 21.2726C23.2474 22.4097 24.1631 23.3315 25.2927 23.3315Z" fill="#669DF6"/>
<path d="M25.2927 17.4491C26.4223 17.4491 27.338 16.5273 27.338 15.3903C27.338 14.2532 26.4223 13.3315 25.2927 13.3315C24.1631 13.3315 23.2474 14.2532 23.2474 15.3903C23.2474 16.5273 24.1631 17.4491 25.2927 17.4491Z" fill="#669DF6"/>
<path d="M32.876 22.155C32.3429 22.148 31.8336 21.9318 31.4565 21.5526C31.0795 21.1734 30.8646 20.6611 30.8577 20.1249V15.036C30.8246 14.7479 30.8526 14.456 30.9396 14.1795C31.0266 13.903 31.1708 13.6481 31.3627 13.4316C31.5546 13.2151 31.7898 13.0418 32.0529 12.9232C32.316 12.8046 32.6011 12.7432 32.8895 12.7432C33.1779 12.7432 33.4629 12.8046 33.7261 12.9232C33.9892 13.0418 34.2244 13.2151 34.4163 13.4316C34.6082 13.6481 34.7524 13.903 34.8394 14.1795C34.9264 14.456 34.9544 14.7479 34.9213 15.036V20.1249C34.9143 20.6658 34.6956 21.1821 34.3128 21.562C33.93 21.942 33.4139 22.155 32.876 22.155Z" fill="#4285F4"/>
<path d="M32.8895 11.5668C34.0191 11.5668 34.9348 10.645 34.9348 9.50793C34.9348 8.37087 34.0191 7.4491 32.8895 7.4491C31.7599 7.4491 30.8442 8.37087 30.8442 9.50793C30.8442 10.645 31.7599 11.5668 32.8895 11.5668Z" fill="#4285F4"/>
<path d="M32.8895 33.9197C34.0191 33.9197 34.9348 32.9979 34.9348 31.8609C34.9348 30.7238 34.0191 29.802 32.8895 29.802C31.7599 29.802 30.8442 30.7238 30.8442 31.8609C30.8442 32.9979 31.7599 33.9197 32.8895 33.9197Z" fill="#4285F4"/>
<path d="M17.1116 33.9197C18.2411 33.9197 19.1568 32.9979 19.1568 31.8609C19.1568 30.7238 18.2411 29.802 17.1116 29.802C15.982 29.802 15.0663 30.7238 15.0663 31.8609C15.0663 32.9979 15.982 33.9197 17.1116 33.9197Z" fill="#AECBFA"/>
<path d="M17.1116 17.4491C18.2411 17.4491 19.1568 16.5273 19.1568 15.3903C19.1568 14.2532 18.2411 13.3315 17.1116 13.3315C15.982 13.3315 15.0663 14.2532 15.0663 15.3903C15.0663 16.5273 15.982 17.4491 17.1116 17.4491Z" fill="#AECBFA"/>
<path d="M17.1116 11.5668C18.2411 11.5668 19.1568 10.645 19.1568 9.50793C19.1568 8.37087 18.2411 7.4491 17.1116 7.4491C15.982 7.4491 15.0663 8.37087 15.0663 9.50793C15.0663 10.645 15.982 11.5668 17.1116 11.5668Z" fill="#AECBFA"/>
<path d="M17.1388 28.0373C16.603 28.0377 16.0879 27.8395 15.7015 27.4842C15.3151 27.1289 15.0874 26.6442 15.0663 26.1317V21.1717C15.0663 20.6524 15.2818 20.1544 15.6653 19.7873C16.0489 19.4201 16.5691 19.2138 17.1116 19.2138C17.654 19.2138 18.1742 19.4201 18.5578 19.7873C18.9414 20.1544 19.1568 20.6524 19.1568 21.1717V26.1317C19.1428 26.6373 18.9248 27.1182 18.5486 27.4734C18.1725 27.8287 17.6672 28.0308 17.1388 28.0373Z" fill="#AECBFA"/>
<path d="M25.2927 43.3315C24.5415 43.3315 23.8071 43.5557 23.1824 43.9758C22.5578 44.396 22.0709 44.9931 21.7835 45.6918C21.496 46.3904 21.4207 47.1592 21.5673 47.9009C21.7139 48.6426 22.0756 49.3239 22.6068 49.8586C23.1381 50.3934 23.8149 50.7575 24.5517 50.905C25.2885 51.0526 26.0522 50.9769 26.7463 50.6875C27.4404 50.3981 28.0336 49.908 28.451 49.2792C28.8683 48.6505 29.0911 47.9112 29.0911 47.155C29.0911 46.1409 28.6909 45.1684 27.9786 44.4513C27.2662 43.7343 26.3001 43.3315 25.2927 43.3315ZM25.2927 49.0017C24.9237 49.0017 24.563 48.8912 24.2565 48.6842C23.95 48.4773 23.7116 48.1832 23.5716 47.8395C23.4315 47.4958 23.3962 47.1179 23.4701 46.754C23.544 46.39 23.7238 46.0564 23.9866 45.7955C24.2494 45.5347 24.5833 45.3584 24.9459 45.2891C25.3084 45.2198 25.6833 45.2606 26.0228 45.4064C26.3622 45.5521 26.651 45.7962 26.8522 46.1075C27.0535 46.4189 27.1583 46.7835 27.1531 47.155C27.1532 47.3997 27.1049 47.642 27.0111 47.8678C26.9173 48.0935 26.7798 48.2983 26.6067 48.4701C26.4336 48.6419 26.2283 48.7774 26.0027 48.8687C25.7771 48.9599 25.5358 49.0052 25.2927 49.0017Z" fill="#4285F4"/>
<path d="M81.7045 22.7871C81.5483 22.3089 81.3423 21.8804 81.0866 21.5016C80.8357 21.1181 80.535 20.7914 80.1847 20.5215C79.839 20.2516 79.446 20.0456 79.0057 19.9036C78.5653 19.7615 78.0824 19.6905 77.5568 19.6905C76.6951 19.6905 75.9115 19.9131 75.206 20.3581C74.5005 20.8032 73.9394 21.459 73.5227 22.3255C73.1061 23.1919 72.8977 24.2549 72.8977 25.5144C72.8977 26.7739 73.1084 27.8368 73.5298 28.7033C73.9512 29.5698 74.5218 30.2256 75.2415 30.6706C75.9612 31.1157 76.7708 31.3382 77.6705 31.3382C78.5038 31.3382 79.2377 31.1607 79.8722 30.8056C80.5114 30.4457 81.0085 29.9391 81.3636 29.2857C81.7235 28.6275 81.9034 27.8534 81.9034 26.9632L82.4432 27.0769H78.0682V25.5144H83.608V27.0769C83.608 28.2748 83.3523 29.3165 82.8409 30.2019C82.3343 31.0873 81.6335 31.7739 80.7386 32.2615C79.8485 32.7445 78.8258 32.986 77.6705 32.986C76.3826 32.986 75.2509 32.6829 74.2756 32.0769C73.3049 31.4708 72.5473 30.6091 72.0028 29.4917C71.4631 28.3742 71.1932 27.0485 71.1932 25.5144C71.1932 24.3638 71.3471 23.3292 71.6548 22.4107C71.9673 21.4874 72.4077 20.7014 72.9759 20.0527C73.544 19.4041 74.2164 18.9069 74.9929 18.5613C75.7694 18.2156 76.6241 18.0428 77.5568 18.0428C78.3239 18.0428 79.0388 18.1588 79.7017 18.3908C80.3693 18.6181 80.9635 18.9424 81.4844 19.3638C82.0099 19.7805 82.4479 20.28 82.7983 20.8624C83.1487 21.44 83.3902 22.0816 83.5227 22.7871H81.7045ZM90.8292 33.0144C89.8443 33.0144 88.9802 32.78 88.2369 32.3113C87.4982 31.8425 86.9206 31.1867 86.5039 30.3439C86.092 29.5011 85.886 28.5163 85.886 27.3894C85.886 26.253 86.092 25.2611 86.5039 24.4135C86.9206 23.566 87.4982 22.9078 88.2369 22.4391C88.9802 21.9703 89.8443 21.736 90.8292 21.736C91.814 21.736 92.6758 21.9703 93.4144 22.4391C94.1578 22.9078 94.7354 23.566 95.1474 24.4135C95.564 25.2611 95.7724 26.253 95.7724 27.3894C95.7724 28.5163 95.564 29.5011 95.1474 30.3439C94.7354 31.1867 94.1578 31.8425 93.4144 32.3113C92.6758 32.78 91.814 33.0144 90.8292 33.0144ZM90.8292 31.5087C91.5773 31.5087 92.1928 31.3169 92.6758 30.9334C93.1587 30.5499 93.5162 30.0456 93.7482 29.4206C93.9802 28.7956 94.0962 28.1185 94.0962 27.3894C94.0962 26.6602 93.9802 25.9808 93.7482 25.351C93.5162 24.7213 93.1587 24.2123 92.6758 23.824C92.1928 23.4358 91.5773 23.2417 90.8292 23.2417C90.0811 23.2417 89.4656 23.4358 88.9826 23.824C88.4996 24.2123 88.1422 24.7213 87.9102 25.351C87.6781 25.9808 87.5621 26.6602 87.5621 27.3894C87.5621 28.1185 87.6781 28.7956 87.9102 29.4206C88.1422 30.0456 88.4996 30.5499 88.9826 30.9334C89.4656 31.3169 90.0811 31.5087 90.8292 31.5087ZM102.763 33.0144C101.778 33.0144 100.914 32.78 100.17 32.3113C99.4318 31.8425 98.8542 31.1867 98.4375 30.3439C98.0256 29.5011 97.8196 28.5163 97.8196 27.3894C97.8196 26.253 98.0256 25.2611 98.4375 24.4135C98.8542 23.566 99.4318 22.9078 100.17 22.4391C100.914 21.9703 101.778 21.736 102.763 21.736C103.748 21.736 104.609 21.9703 105.348 22.4391C106.091 22.9078 106.669 23.566 107.081 24.4135C107.498 25.2611 107.706 26.253 107.706 27.3894C107.706 28.5163 107.498 29.5011 107.081 30.3439C106.669 31.1867 106.091 31.8425 105.348 32.3113C104.609 32.78 103.748 33.0144 102.763 33.0144ZM102.763 31.5087C103.511 31.5087 104.126 31.3169 104.609 30.9334C105.092 30.5499 105.45 30.0456 105.682 29.4206C105.914 28.7956 106.03 28.1185 106.03 27.3894C106.03 26.6602 105.914 25.9808 105.682 25.351C105.45 24.7213 105.092 24.2123 104.609 23.824C104.126 23.4358 103.511 23.2417 102.763 23.2417C102.015 23.2417 101.399 23.4358 100.916 23.824C100.433 24.2123 100.076 24.7213 99.8438 25.351C99.6117 25.9808 99.4957 26.6602 99.4957 27.3894C99.4957 28.1185 99.6117 28.7956 99.8438 29.4206C100.076 30.0456 100.433 30.5499 100.916 30.9334C101.399 31.3169 102.015 31.5087 102.763 31.5087ZM114.668 37.1053C113.858 37.1053 113.162 37.0011 112.58 36.7928C111.998 36.5892 111.512 36.3193 111.124 35.9831C110.74 35.6517 110.435 35.2966 110.208 34.9178L111.543 33.9803C111.694 34.1792 111.886 34.4064 112.118 34.6621C112.35 34.9225 112.667 35.1474 113.07 35.3368C113.477 35.531 114.01 35.628 114.668 35.628C115.549 35.628 116.275 35.415 116.848 34.9888C117.421 34.5627 117.708 33.8951 117.708 32.986V30.7701H117.566C117.443 30.9689 117.267 31.2151 117.04 31.5087C116.818 31.7975 116.496 32.0556 116.074 32.2828C115.658 32.5054 115.094 32.6167 114.384 32.6167C113.503 32.6167 112.712 32.4083 112.012 31.9917C111.316 31.575 110.764 30.9689 110.357 30.1735C109.954 29.378 109.753 28.4121 109.753 27.2757C109.753 26.1583 109.95 25.1853 110.343 24.3567C110.736 23.5234 111.283 22.8794 111.983 22.4249C112.684 21.9656 113.494 21.736 114.412 21.736C115.123 21.736 115.686 21.8543 116.103 22.0911C116.524 22.3231 116.846 22.5882 117.069 22.8865C117.296 23.1801 117.471 23.4216 117.594 23.611H117.765V21.878H119.384V33.0996C119.384 34.0371 119.171 34.7994 118.745 35.3865C118.323 35.9784 117.755 36.4116 117.04 36.6863C116.33 36.9656 115.539 37.1053 114.668 37.1053ZM114.611 31.111C115.283 31.111 115.852 30.9571 116.316 30.6493C116.78 30.3416 117.132 29.8989 117.374 29.3212C117.615 28.7435 117.736 28.0523 117.736 27.2473C117.736 26.4614 117.618 25.7677 117.381 25.1664C117.144 24.565 116.794 24.0939 116.33 23.753C115.866 23.4121 115.293 23.2417 114.611 23.2417C113.901 23.2417 113.309 23.4216 112.836 23.7814C112.367 24.1413 112.014 24.6242 111.777 25.2303C111.545 25.8364 111.429 26.5087 111.429 27.2473C111.429 28.0049 111.548 28.6749 111.784 29.2573C112.026 29.8349 112.381 30.2895 112.85 30.6209C113.323 30.9476 113.91 31.111 114.611 31.111ZM124.128 18.2417V32.7871H122.452V18.2417H124.128ZM131.772 33.0144C130.721 33.0144 129.814 32.7824 129.052 32.3184C128.294 31.8496 127.71 31.1962 127.298 30.3581C126.89 29.5153 126.687 28.5352 126.687 27.4178C126.687 26.3004 126.89 25.3155 127.298 24.4632C127.71 23.6062 128.282 22.9386 129.016 22.4604C129.755 21.9775 130.617 21.736 131.602 21.736C132.17 21.736 132.731 21.8307 133.285 22.0201C133.839 22.2095 134.343 22.5172 134.798 22.9434C135.252 23.3648 135.614 23.9235 135.884 24.6195C136.154 25.3155 136.289 26.1725 136.289 27.1905V27.9007H127.88V26.4519H134.585C134.585 25.8364 134.461 25.2871 134.215 24.8042C133.974 24.3212 133.628 23.94 133.178 23.6607C132.733 23.3813 132.208 23.2417 131.602 23.2417C130.934 23.2417 130.356 23.4074 129.869 23.7388C129.386 24.0655 129.014 24.4917 128.754 25.0172C128.493 25.5428 128.363 26.1062 128.363 26.7076V27.6735C128.363 28.4973 128.505 29.1957 128.789 29.7686C129.078 30.3368 129.478 30.7701 129.989 31.0684C130.501 31.3619 131.095 31.5087 131.772 31.5087C132.212 31.5087 132.61 31.4471 132.965 31.324C133.325 31.1962 133.635 31.0068 133.896 30.7559C134.156 30.5002 134.357 30.1829 134.499 29.8042L136.119 30.2587C135.948 30.8079 135.662 31.2909 135.259 31.7076C134.857 32.1195 134.36 32.4415 133.768 32.6735C133.176 32.9007 132.511 33.0144 131.772 33.0144ZM145.288 18.2417L149.606 30.486H149.776L154.094 18.2417H155.941L150.6 32.7871H148.782L143.441 18.2417H145.288ZM161.538 33.0144C160.487 33.0144 159.58 32.7824 158.817 32.3184C158.06 31.8496 157.475 31.1962 157.063 30.3581C156.656 29.5153 156.452 28.5352 156.452 27.4178C156.452 26.3004 156.656 25.3155 157.063 24.4632C157.475 23.6062 158.048 22.9386 158.782 22.4604C159.521 21.9775 160.382 21.736 161.367 21.736C161.935 21.736 162.496 21.8307 163.05 22.0201C163.604 22.2095 164.109 22.5172 164.563 22.9434C165.018 23.3648 165.38 23.9235 165.65 24.6195C165.92 25.3155 166.055 26.1725 166.055 27.1905V27.9007H157.646V26.4519H164.35C164.35 25.8364 164.227 25.2871 163.981 24.8042C163.739 24.3212 163.394 23.94 162.944 23.6607C162.499 23.3813 161.973 23.2417 161.367 23.2417C160.7 23.2417 160.122 23.4074 159.634 23.7388C159.151 24.0655 158.78 24.4917 158.519 25.0172C158.259 25.5428 158.129 26.1062 158.129 26.7076V27.6735C158.129 28.4973 158.271 29.1957 158.555 29.7686C158.844 30.3368 159.244 30.7701 159.755 31.0684C160.266 31.3619 160.861 31.5087 161.538 31.5087C161.978 31.5087 162.376 31.4471 162.731 31.324C163.091 31.1962 163.401 31.0068 163.661 30.7559C163.922 30.5002 164.123 30.1829 164.265 29.8042L165.884 30.2587C165.714 30.8079 165.427 31.2909 165.025 31.7076C164.622 32.1195 164.125 32.4415 163.533 32.6735C162.942 32.9007 162.276 33.0144 161.538 33.0144ZM168.604 32.7871V21.878H170.224V23.5257H170.337C170.536 22.986 170.896 22.548 171.417 22.2118C171.938 21.8757 172.525 21.7076 173.178 21.7076C173.301 21.7076 173.455 21.7099 173.64 21.7147C173.825 21.7194 173.964 21.7265 174.059 21.736V23.4405C174.002 23.4263 173.872 23.405 173.668 23.3766C173.469 23.3435 173.259 23.3269 173.036 23.3269C172.506 23.3269 172.032 23.4382 171.616 23.6607C171.204 23.8785 170.877 24.1815 170.636 24.5698C170.399 24.9533 170.281 25.3913 170.281 25.8837V32.7871H168.604ZM181.474 21.878V23.2985H175.82V21.878H181.474ZM177.468 19.2644H179.144V29.6621C179.144 30.1356 179.213 30.4907 179.35 30.7275C179.492 30.9595 179.672 31.1157 179.89 31.1962C180.112 31.272 180.347 31.3098 180.593 31.3098C180.778 31.3098 180.929 31.3004 181.048 31.2814C181.166 31.2578 181.261 31.2388 181.332 31.2246L181.673 32.7303C181.559 32.7729 181.4 32.8155 181.197 32.8581C180.993 32.9055 180.735 32.9292 180.423 32.9292C179.949 32.9292 179.485 32.8274 179.031 32.6238C178.581 32.4202 178.207 32.11 177.908 31.6934C177.615 31.2767 177.468 30.7511 177.468 30.1167V19.2644ZM188.452 33.0144C187.401 33.0144 186.494 32.7824 185.732 32.3184C184.974 31.8496 184.389 31.1962 183.977 30.3581C183.57 29.5153 183.366 28.5352 183.366 27.4178C183.366 26.3004 183.57 25.3155 183.977 24.4632C184.389 23.6062 184.962 22.9386 185.696 22.4604C186.435 21.9775 187.296 21.736 188.281 21.736C188.849 21.736 189.411 21.8307 189.964 22.0201C190.518 22.2095 191.023 22.5172 191.477 22.9434C191.932 23.3648 192.294 23.9235 192.564 24.6195C192.834 25.3155 192.969 26.1725 192.969 27.1905V27.9007H184.56V26.4519H191.264C191.264 25.8364 191.141 25.2871 190.895 24.8042C190.653 24.3212 190.308 23.94 189.858 23.6607C189.413 23.3813 188.887 23.2417 188.281 23.2417C187.614 23.2417 187.036 23.4074 186.548 23.7388C186.065 24.0655 185.694 24.4917 185.433 25.0172C185.173 25.5428 185.043 26.1062 185.043 26.7076V27.6735C185.043 28.4973 185.185 29.1957 185.469 29.7686C185.758 30.3368 186.158 30.7701 186.669 31.0684C187.18 31.3619 187.775 31.5087 188.452 31.5087C188.892 31.5087 189.29 31.4471 189.645 31.324C190.005 31.1962 190.315 31.0068 190.575 30.7559C190.836 30.5002 191.037 30.1829 191.179 29.8042L192.798 30.2587C192.628 30.8079 192.341 31.2909 191.939 31.7076C191.536 32.1195 191.039 32.4415 190.447 32.6735C189.856 32.9007 189.19 33.0144 188.452 33.0144ZM196.475 21.878L199.089 26.3382L201.703 21.878H203.635L200.112 27.3326L203.635 32.7871H201.703L199.089 28.5542L196.475 32.7871H194.544L198.01 27.3326L194.544 21.878H196.475ZM212.475 32.7871H210.629L215.969 18.2417H217.788L223.129 32.7871H221.282L216.935 20.5428H216.822L212.475 32.7871ZM213.157 27.1053H220.6V28.6678H213.157V27.1053ZM227.156 18.2417V32.7871H225.394V18.2417H227.156Z" fill="white"/>
</svg>
