<svg width="48" height="50" viewBox="0 0 48 50" fill="none" xmlns="http://www.w3.org/2000/svg">
<rect width="47.0588" height="50" rx="13.5294" fill="#FF8214"/>
<path d="M22.4819 9.00861C22.4131 9.01487 22.1942 9.03676 21.9971 9.0524C17.4522 9.4621 13.195 11.9141 10.4987 15.6827C8.99729 17.7781 8.037 20.155 7.67416 22.6727C7.54591 23.5515 7.53027 23.8111 7.53027 25.0027C7.53027 26.1943 7.54591 26.4538 7.67416 27.3327C8.54373 33.3406 12.8197 38.3884 18.6189 40.2586C19.6574 40.5933 20.7522 40.8216 21.9971 40.9592C22.4819 41.0124 24.5777 41.0124 25.0625 40.9592C27.2114 40.7215 29.0319 40.1898 30.8274 39.2735C31.1026 39.1327 31.1558 39.0952 31.1183 39.0639C31.0932 39.0452 29.9202 37.472 28.5127 35.5705L25.954 32.1146L22.7478 27.3702C20.9837 24.7619 19.5323 22.6289 19.5198 22.6289C19.5073 22.6258 19.4947 24.7337 19.4885 27.3076C19.4791 31.8144 19.476 31.9958 19.4197 32.1021C19.3383 32.2554 19.2758 32.3179 19.1444 32.3867C19.0443 32.4368 18.9567 32.4461 18.4844 32.4461H17.9433L17.7994 32.3554C17.7055 32.296 17.6367 32.2178 17.5898 32.1271L17.5241 31.9864L17.5304 25.7157L17.5398 19.442L17.6367 19.32C17.6868 19.2543 17.7931 19.1699 17.8682 19.1292C17.9964 19.0667 18.0465 19.0604 18.5876 19.0604C19.2257 19.0604 19.3321 19.0854 19.4979 19.2668C19.5448 19.3169 21.2808 21.9315 23.3578 25.0809C25.4347 28.2303 28.2749 32.5306 29.67 34.6416L32.2037 38.4791L32.3319 38.3947C33.4674 37.6566 34.6685 36.6057 35.6194 35.5111C37.6432 33.1874 38.9476 30.3538 39.3855 27.3327C39.5137 26.4538 39.5294 26.1943 39.5294 25.0027C39.5294 23.8111 39.5137 23.5515 39.3855 22.6727C38.5159 16.6647 34.24 11.617 28.4407 9.7467C27.4179 9.41519 26.3293 9.18688 25.1094 9.04927C24.8092 9.01799 22.7416 8.98359 22.4819 9.00861ZM29.0319 18.6851C29.182 18.7602 29.304 18.904 29.3478 19.0542C29.3729 19.1355 29.3791 20.8744 29.3729 24.7931L29.3635 30.4164L28.3719 28.8964L27.3772 27.3764V23.2888C27.3772 20.6461 27.3897 19.1605 27.4085 19.0886C27.4585 18.9134 27.568 18.7758 27.7182 18.6945C27.8464 18.6288 27.8933 18.6226 28.3844 18.6226C28.8474 18.6226 28.9287 18.6288 29.0319 18.6851Z" fill="#F0F3FF"/>
</svg>
