<svg width="48" height="50" viewBox="0 0 48 50" fill="none" xmlns="http://www.w3.org/2000/svg">
<rect width="47.0588" height="50" rx="13.5294" fill="#0E9943"/>
<path d="M30.8488 20.3786C30.5932 20.2907 30.3283 20.2074 30.0555 20.1287C30.1004 19.9457 30.1415 19.7651 30.1781 19.5876C30.7786 16.6728 30.386 14.3246 29.0453 13.5515C27.7598 12.8101 25.6574 13.5831 23.534 15.4309C23.3299 15.6086 23.1251 15.7968 22.9204 15.9939C22.7841 15.8635 22.6479 15.7374 22.5121 15.6168C20.2868 13.641 18.0563 12.8083 16.7169 13.5837C15.4326 14.3272 15.0523 16.5347 15.5928 19.2971C15.645 19.5639 15.706 19.8364 15.775 20.1135C15.4594 20.2031 15.1546 20.2986 14.863 20.4002C12.2541 21.3098 10.5879 22.7354 10.5879 24.214C10.5879 25.7412 12.3765 27.273 15.0939 28.2018C15.3084 28.2751 15.5309 28.3444 15.7602 28.4102C15.6858 28.7098 15.621 29.0034 15.5667 29.2898C15.0513 32.0043 15.4538 34.1596 16.7347 34.8984C18.0577 35.6614 20.2781 34.8771 22.4403 32.9872C22.6112 32.8378 22.7827 32.6793 22.9545 32.5133C23.1772 32.7277 23.3995 32.9307 23.6207 33.121C25.7149 34.9232 27.7834 35.651 29.0631 34.9101C30.3848 34.145 30.8144 31.8296 30.2567 29.0125C30.2141 28.7974 30.1645 28.5776 30.1089 28.3539C30.2648 28.3078 30.4179 28.2602 30.5672 28.2107C33.3921 27.2747 35.2302 25.7616 35.2302 24.214C35.2302 22.73 33.5103 21.2949 30.8488 20.3786ZM30.2361 27.2115C30.1013 27.2561 29.9631 27.2992 29.8222 27.341C29.5103 26.3537 29.0894 25.3038 28.5743 24.2192C29.0659 23.1603 29.4705 22.1239 29.7736 21.143C30.0257 21.2159 30.2704 21.2928 30.5061 21.374C32.7865 22.159 34.1775 23.3197 34.1775 24.214C34.1775 25.1666 32.6753 26.4033 30.2361 27.2115ZM29.224 29.217C29.4706 30.4626 29.5058 31.5889 29.3425 32.4693C29.1957 33.2604 28.9005 33.7879 28.5356 33.9991C27.759 34.4486 26.0983 33.8643 24.3072 32.323C24.1019 32.1464 23.8951 31.9577 23.6876 31.7581C24.382 30.9987 25.0759 30.1158 25.7532 29.1354C26.9445 29.0296 28.0699 28.8568 29.0906 28.6209C29.1409 28.8237 29.1855 29.0225 29.224 29.217ZM18.989 33.9214C18.2303 34.1894 17.626 34.1971 17.2607 33.9864C16.4834 33.5381 16.1602 31.8075 16.601 29.4861C16.6515 29.2203 16.7116 28.9472 16.7809 28.668C17.7903 28.8913 18.9075 29.0519 20.1017 29.1487C20.7835 30.1081 21.4975 30.99 22.2171 31.7621C22.0598 31.9139 21.9033 32.0584 21.7475 32.1945C20.7915 33.0303 19.8334 33.6232 18.989 33.9214ZM15.4344 27.2056C14.2328 26.795 13.2405 26.2612 12.5603 25.6787C11.9491 25.1553 11.6406 24.6357 11.6406 24.214C11.6406 23.3167 12.9783 22.1722 15.2095 21.3943C15.4802 21.2999 15.7636 21.2109 16.0577 21.1274C16.3661 22.1304 16.7706 23.1792 17.2587 24.2396C16.7643 25.3159 16.354 26.3813 16.0426 27.3961C15.833 27.3358 15.6298 27.2724 15.4344 27.2056ZM16.6259 19.095C16.1628 16.7282 16.4704 14.9428 17.2444 14.4948C18.0688 14.0175 19.8917 14.698 21.8131 16.404C21.9359 16.5131 22.0592 16.6272 22.1829 16.7453C21.4669 17.5141 20.7594 18.3893 20.0836 19.3431C18.9247 19.4505 17.8153 19.6231 16.7953 19.8541C16.7312 19.5962 16.6744 19.3427 16.6259 19.095ZM27.2555 21.7197C27.0117 21.2985 26.7613 20.8873 26.5061 20.4873C27.2924 20.5867 28.0457 20.7186 28.7531 20.8801C28.5407 21.5608 28.276 22.2724 27.9644 23.002C27.7409 22.5776 27.5045 22.1497 27.2555 21.7197ZM22.9208 17.4976C23.4064 18.0237 23.8926 18.611 24.3709 19.2483C23.8889 19.2255 23.401 19.2136 22.909 19.2136C22.4217 19.2136 21.9374 19.2252 21.4584 19.2476C21.9372 18.6163 22.4276 18.0297 22.9208 17.4976ZM18.5583 21.7269C18.3147 22.1493 18.0827 22.5749 17.8627 23.0012C17.5561 22.2742 17.2939 21.5593 17.0796 20.8689C17.7827 20.7116 18.5325 20.583 19.3137 20.4855C19.0549 20.8891 18.8025 21.3035 18.5583 21.7269ZM19.3362 28.0177C18.5291 27.9276 17.768 27.8056 17.0651 27.6526C17.2828 26.95 17.5508 26.2198 17.8639 25.4771C18.0845 25.9031 18.3174 26.3289 18.5625 26.7521C18.8121 27.1834 19.0708 27.6058 19.3362 28.0177ZM22.9499 31.0046C22.451 30.4663 21.9533 29.8708 21.4673 29.2303C21.9391 29.2488 22.4201 29.2583 22.909 29.2583C23.4113 29.2583 23.9078 29.2469 24.3966 29.2252C23.9167 29.8773 23.4322 30.4737 22.9499 31.0046ZM27.9745 25.4392C28.3038 26.19 28.5815 26.9163 28.8019 27.607C28.0875 27.77 27.316 27.9013 26.5033 27.9988C26.7591 27.5934 27.0116 27.1752 27.2597 26.7449C27.5107 26.3096 27.7491 25.8737 27.9745 25.4392ZM26.3478 26.219C25.9626 26.8869 25.5672 27.5245 25.1657 28.1263C24.4345 28.1786 23.679 28.2055 22.909 28.2055C22.1422 28.2055 21.3962 28.1817 20.6779 28.1351C20.2603 27.5254 19.8562 26.8859 19.4735 26.2247C19.0917 25.5654 18.7405 24.9005 18.4221 24.2393C18.7404 23.5766 19.0908 22.9109 19.4704 22.2527L19.4703 22.2529C19.8508 21.5929 20.2513 20.9566 20.6651 20.3507C21.398 20.2953 22.1495 20.2664 22.909 20.2664C23.6719 20.2664 24.4244 20.2955 25.1571 20.3514C25.5645 20.9529 25.9623 21.5872 26.3444 22.2472C26.7308 22.9146 27.0857 23.5758 27.4067 24.2243C27.0867 24.884 26.7325 25.5519 26.3478 26.219ZM28.5195 14.4635C29.3447 14.9393 29.6656 16.8585 29.1471 19.3751C29.114 19.5357 29.0768 19.6993 29.0363 19.8651C28.014 19.6292 26.9038 19.4536 25.7415 19.3446C25.0644 18.3803 24.3627 17.5037 23.6584 16.7448C23.8477 16.5627 24.0368 16.389 24.2251 16.225C26.0444 14.6418 27.7447 14.0167 28.5195 14.4635ZM22.909 22.0135C24.1243 22.0135 25.1095 22.9987 25.1095 24.214C25.1095 25.4293 24.1243 26.4145 22.909 26.4145C21.6938 26.4145 20.7086 25.4293 20.7086 24.214C20.7086 22.9987 21.6938 22.0135 22.909 22.0135Z" fill="white"/>
</svg>
