<svg width="32" height="17" viewBox="0 0 32 17" fill="none" xmlns="http://www.w3.org/2000/svg">
<path d="M8.50469 13.1692L3.43594 8.10049L8.50469 3.03174C9.06094 2.47549 9.06094 1.57549 8.50469 1.01924C7.94844 0.462988 7.04844 0.462988 6.49219 1.01924L0.417187 7.09424C-0.139062 7.65049 -0.139062 8.55049 0.417187 9.10674L6.49219 15.1817C7.04844 15.738 7.94844 15.738 8.50469 15.1817C9.06094 14.6255 9.06094 13.7255 8.50469 13.1692Z" fill="white"/>
<path d="M23.4924 13.1692L28.5611 8.10049L23.4924 3.03174C22.9361 2.47549 22.9361 1.57549 23.4924 1.01924C24.0486 0.462988 24.9486 0.462988 25.5049 1.01924L31.5799 7.09424C32.1361 7.65049 32.1361 8.55049 31.5799 9.10674L25.5049 15.1817C24.9486 15.738 24.0486 15.738 23.4924 15.1817C22.9361 14.6255 22.9361 13.7255 23.4924 13.1692Z" fill="white"/>
<path d="M19.8547 1.93184L14.8047 15.2756C14.5297 16.0131 13.7047 16.3818 12.9672 16.1006C12.2297 15.8256 11.8609 15.0006 12.1422 14.2631L17.1922 0.91934C17.4672 0.18184 18.2922 -0.18691 19.0297 0.09434C19.7609 0.37559 20.1297 1.19434 19.8547 1.93184Z" fill="white"/>
</svg>
