<svg width="32" height="30" viewBox="0 0 32 30" fill="none" xmlns="http://www.w3.org/2000/svg">
<path d="M15.9683 10.2562C17.1972 10.2562 18.1934 9.25994 18.1934 8.03103C18.1934 6.80213 17.1972 5.80591 15.9683 5.80591C14.7394 5.80591 13.7432 6.80213 13.7432 8.03103C13.7432 9.25994 14.7394 10.2562 15.9683 10.2562Z" fill="white"/>
<path d="M8.67662 9.86163C9.39587 10.0893 10.0019 10.5782 10.3832 11.2385C10.7611 11.8931 10.8827 12.6548 10.7265 13.3856L10.506 14.6065C11.2587 15.2316 12.1182 15.7267 13.0327 16.0621L13.9082 15.2617C14.465 14.7526 15.1915 14.4722 15.9539 14.4722C16.7096 14.4722 17.4301 14.7477 17.985 15.2485L18.932 16.0499C19.8497 15.7106 20.7082 15.2139 21.456 14.5894L21.2005 13.4311C21.038 12.6944 21.1584 11.925 21.5397 11.2647C21.9176 10.6102 22.5164 10.1239 23.2276 9.89375L24.3951 9.47444C24.5601 8.50994 24.5591 7.51806 24.3922 6.55837L23.2614 6.20044C22.5421 5.97275 21.936 5.48381 21.5548 4.82356C21.1769 4.169 21.0552 3.40731 21.2115 2.67644L21.432 1.45556C20.6793 0.830438 19.8198 0.335375 18.9052 0L18.0298 0.800375C17.4731 1.3095 16.7466 1.58981 15.9842 1.58981C15.2284 1.58981 14.5079 1.31425 13.9529 0.8135L13.0061 0.012125C12.0883 0.351438 11.2298 0.848188 10.4821 1.47263L10.7376 2.63094C10.9001 3.36769 10.7796 4.13706 10.3984 4.79738C10.0205 5.45188 9.42162 5.93813 8.71043 6.16831L7.543 6.58763C7.37793 7.55212 7.37893 8.544 7.54581 9.50369L8.67662 9.86163ZM15.969 3.93094C18.2298 3.93094 20.0691 5.77025 20.0691 8.03106C20.0691 10.2919 18.2298 12.1312 15.969 12.1312C13.7082 12.1312 11.8689 10.2919 11.8689 8.03106C11.8689 5.77025 13.7082 3.93094 15.969 3.93094Z" fill="white"/>
<path d="M25.5015 16.72C24.3032 16.72 23.1324 17.0495 22.1154 17.6728L22.1021 17.681C21.7017 17.9249 8.41269 26.0526 8.27725 26.1354C7.74344 26.462 7.12831 26.6347 6.49844 26.6347C4.61475 26.6347 3.08231 25.1022 3.08231 23.2185C3.08231 21.3348 4.61481 19.8023 6.49844 19.8023C7.12831 19.8023 7.74344 19.975 8.27738 20.3016L11.2498 22.1195C12.3529 21.4448 13.3325 20.8458 14.2034 20.3132C11.4665 18.6393 10.0166 17.7524 9.88581 17.6722C8.86744 17.0493 7.69613 16.72 6.49844 16.72C2.91525 16.72 0 19.6352 0 23.2184C0 26.8017 2.91525 29.7169 6.4985 29.7169C7.69675 29.7169 8.86756 29.3874 9.88456 28.764L23.7227 20.3015C24.2566 19.9749 24.8717 19.8023 25.5016 19.8023C27.3853 19.8023 28.9177 21.3348 28.9177 23.2185C28.9177 25.1022 27.3852 26.6347 25.5016 26.6347C24.8717 26.6347 24.2567 26.4622 23.7229 26.1359L20.7499 24.3173L17.7961 26.1237L22.115 28.7655C23.1331 29.3879 24.3043 29.7169 25.5016 29.7169C29.0848 29.7169 32 26.8017 32 23.2184C32 19.6351 29.0847 16.72 25.5015 16.72Z" fill="white"/>
</svg>
