<svg width="32" height="32" viewBox="0 0 32 32" fill="none" xmlns="http://www.w3.org/2000/svg">
<path d="M14.1963 10.6648C15.5139 10.4212 16.7624 10.5865 17.8496 11.3367L17.8584 11.3425C18.5453 11.7837 19.032 12.4014 19.3848 13.1775L17.0371 13.7839C17.0197 13.7875 17.0034 13.7915 16.9893 13.7947C16.9805 13.7824 16.9703 13.768 16.959 13.7507L16.9502 13.7361L16.9395 13.7234L16.7705 13.5281C16.6015 13.3478 16.4107 13.199 16.1152 13.0828C15.0788 12.56 14.0386 12.7136 13.124 13.3181C12.0222 14.0205 11.4736 15.1055 11.4736 16.4382C11.4737 17.7866 12.4248 18.9029 13.7568 19.0964L13.7627 19.0974C14.8788 19.2392 15.8197 18.8533 16.5557 18.0115L16.5645 18.0007L16.5723 17.99C16.6977 17.8199 16.8213 17.6536 16.9854 17.4451L17.3926 16.9265H13.8887C13.8906 16.9152 13.8907 16.9012 13.8955 16.8855C14.0549 16.5286 14.2741 16.0321 14.457 15.6521L14.6279 15.3142L14.6348 15.3015C14.6367 15.2977 14.6419 15.2885 14.6504 15.2771C14.6592 15.2653 14.6693 15.2537 14.6797 15.2449C14.6991 15.2285 14.7122 15.2254 14.7236 15.2253H19.7412C19.7353 15.321 19.7264 15.4147 19.7217 15.5066C19.7114 15.7046 19.7008 15.8948 19.6816 16.0935C19.5203 17.116 19.161 18.0816 18.5332 18.8796L18.5283 18.8865C17.5277 20.2297 16.2191 21.073 14.5527 21.3152C13.1642 21.5169 11.9118 21.2352 10.8145 20.3982C9.7945 19.5989 9.21154 18.5688 9.05469 17.2927V17.2908L9.02539 17.0076C8.91808 15.5952 9.38477 14.2858 10.249 13.1394L10.25 13.1384C11.2511 11.7946 12.5621 10.9479 14.1924 10.6648H14.1963Z" fill="#F5FAFE" stroke="#F5FAFE" stroke-width="0.64"/>
<path d="M25.083 10.8335C26.5369 10.5882 27.8627 10.7204 29.0244 11.5474L29.0273 11.5493C30.0594 12.2615 30.706 13.2109 30.9443 14.4448L30.9863 14.6958C31.2233 16.638 30.6707 18.1593 29.3965 19.4956L29.3955 19.4966C28.4854 20.4623 27.3334 21.0317 26.0439 21.3188C25.8336 21.3572 25.63 21.3776 25.4277 21.3931C25.2393 21.4074 25.0386 21.419 24.8516 21.439C23.6563 21.3987 22.5837 21.0766 21.6484 20.3481L21.4629 20.1968C20.6926 19.5245 20.2006 18.6827 20.0137 17.6978L19.9805 17.4985C19.7432 15.8898 20.1746 14.4848 21.1328 13.2261L21.1338 13.2241C22.1686 11.848 23.3925 11.1611 25.083 10.8335ZM28.6406 15.1265C28.357 13.5178 26.9289 12.5705 25.3916 12.8589L25.249 12.8892C24.5057 13.0495 23.8817 13.3743 23.3984 13.8599C22.9158 14.3448 22.5879 14.9755 22.4092 15.7251L22.4072 15.731C22.1263 17.0167 22.7335 18.3608 23.9199 18.9399L23.9268 18.9429L23.9346 18.9458C24.82 19.3248 25.7556 19.2757 26.5908 18.8511C27.9061 18.2039 28.6003 17.124 28.6914 15.7349L28.6924 15.7251V15.7144C28.6924 15.5048 28.693 15.3395 28.6406 15.1265Z" fill="#F5FAFE" stroke="#F5FAFE" stroke-width="0.64"/>
</svg>
