<svg width="32" height="32" viewBox="0 0 32 32" fill="none" xmlns="http://www.w3.org/2000/svg">
<path d="M18.5877 12.6375H17.2656C17.2671 13.1484 17.2709 14.8635 17.2734 15.353C17.7472 15.3506 18.2844 15.3482 18.5877 15.3482C19.3468 15.3482 19.9881 14.7275 19.9881 13.9928C19.9881 13.2581 19.3467 12.6375 18.5877 12.6375Z" fill="white"/>
<path d="M8.99512 16.8925H11.1812L10.0932 14.0095L8.99512 16.8925Z" fill="white"/>
<path d="M31.5311 18.5114L29.4396 17.3039C29.5059 16.7621 29.5384 16.2534 29.5384 15.7624C29.5384 15.2715 29.5059 14.7628 29.4396 14.221L31.5311 13.0135C31.9794 12.7546 32.1331 12.1812 31.8742 11.7329L27.4267 4.02962C27.1678 3.58125 26.5944 3.42756 26.1461 3.6865L24.0633 4.88894C23.2415 4.28113 22.3445 3.76656 21.3848 3.35225V0.9375C21.3848 0.41975 20.965 0 20.4473 0H11.5526C11.0349 0 10.6151 0.41975 10.6151 0.9375V3.35219C9.65544 3.76644 8.75844 4.28113 7.93663 4.88888L5.85388 3.68644C5.40551 3.42756 4.83213 3.58119 4.57325 4.02956L0.125755 11.7329C-0.13312 12.1812 0.0205047 12.7546 0.46888 13.0135L2.56025 14.221C2.49388 14.7628 2.46138 15.2715 2.46138 15.7624C2.46138 16.2534 2.49388 16.7621 2.56025 17.3039L0.46888 18.5114C0.0205047 18.7703 -0.13312 19.3436 0.125755 19.792L4.57325 27.4953C4.83213 27.9436 5.40551 28.0973 5.85388 27.8384L7.93663 26.6359C8.75844 27.2438 9.65544 27.7584 10.6151 28.1726V30.5873C10.6151 31.1051 11.0349 31.5248 11.5526 31.5248H20.4473C20.9651 31.5248 21.3848 31.1051 21.3848 30.5873V28.1726C22.3446 27.7583 23.2416 27.2437 24.0633 26.6359L26.1461 27.8384C26.5945 28.0973 27.1679 27.9437 27.4268 27.4953L31.8743 19.7921C32.1331 19.3436 31.9795 18.7703 31.5311 18.5114ZM13.6209 20.7021C13.5119 20.7432 13.4 20.7627 13.29 20.7627C12.9111 20.7627 12.5544 20.5314 12.4128 20.1559L11.8887 18.7674H8.28094L7.75107 20.1586C7.56675 20.6424 7.02519 20.8853 6.54132 20.7011C6.05744 20.5168 5.81463 19.9751 5.99888 19.4913C5.99888 19.4913 9.05525 11.4666 9.05813 11.4596C9.23113 11.0366 9.63813 10.763 10.0951 10.7625H10.0964C10.5529 10.7625 10.9599 11.0352 11.1336 11.4575C11.1371 11.466 14.1669 19.494 14.1669 19.494C14.3498 19.9784 14.1053 20.5193 13.6209 20.7021ZM18.5873 17.2232C18.2828 17.2232 17.7384 17.2256 17.2624 17.2281V19.8249C17.2624 20.3427 16.8426 20.7624 16.3249 20.7624C15.8071 20.7624 15.3874 20.3427 15.3874 19.8249C15.3874 19.8249 15.3874 11.703 15.3874 11.7029C15.3866 11.4538 15.485 11.2146 15.6609 11.0381C15.8368 10.8616 16.0757 10.7624 16.3249 10.7624H18.5873C20.3933 10.7624 21.8626 12.2116 21.8626 13.9928C21.8626 15.7741 20.3933 17.2232 18.5873 17.2232ZM24.9375 19.8249C24.9375 20.3427 24.5178 20.7624 24 20.7624C23.4823 20.7624 23.0625 20.3427 23.0625 19.8249V11.6999C23.0625 11.1822 23.4823 10.7624 24 10.7624C24.5178 10.7624 24.9375 11.1822 24.9375 11.6999V19.8249Z" fill="white"/>
</svg>
