<svg width="60" height="60" viewBox="0 0 60 60" fill="none" xmlns="http://www.w3.org/2000/svg">
<g clip-path="url(#clip0_2584_11767)">
<path d="M50 15H57.5V20H55V47.5H57.5V52.5H2.5V47.5H5V20H2.5V15H10V10C10 9.33696 10.2634 8.70107 10.7322 8.23223C11.2011 7.76339 11.837 7.5 12.5 7.5H47.5C48.163 7.5 48.7989 7.76339 49.2678 8.23223C49.7366 8.70107 50 9.33696 50 10V15ZM50 20H10V47.5H17.5V30H22.5V47.5H27.5V30H32.5V47.5H37.5V30H42.5V47.5H50V20ZM15 12.5V15H45V12.5H15Z" fill="#4361EE"/>
</g>
<defs>
<clipPath id="clip0_2584_11767">
<rect width="60" height="60" fill="white"/>
</clipPath>
</defs>
</svg>
