<svg width="74" height="74" viewBox="0 0 74 74" fill="none" xmlns="http://www.w3.org/2000/svg">
<path d="M70.8911 32.6579C70.769 31.4143 70.5654 29.9873 70.1583 28.3972C69.7511 26.8275 69.1404 25.0948 68.2447 23.3008C67.349 21.5069 66.1886 19.6518 64.6822 17.8375C64.0918 17.124 63.4404 16.4309 62.7483 15.7581C63.7865 11.6198 61.4861 8.03196 61.4861 8.03196C57.5165 7.78733 54.9922 9.27548 54.0557 9.94821C53.8929 9.88705 53.7504 9.80551 53.5875 9.74435C52.9157 9.47934 52.2236 9.21432 51.4907 8.99008C50.7782 8.76584 50.0454 8.56198 49.2922 8.37851C48.539 8.19504 47.7857 8.05234 47.0122 7.93003C46.8697 7.90964 46.7475 7.88926 46.605 7.86887C44.8747 2.32397 39.9075 0 39.9075 0C34.35 3.52672 33.3118 8.46006 33.3118 8.46006C33.3118 8.46006 33.2915 8.56198 33.2507 8.74545C32.9454 8.827 32.64 8.92893 32.3347 9.01047C31.9072 9.13278 31.4797 9.29587 31.0725 9.45895C30.645 9.62204 30.2379 9.78512 29.8104 9.9686C28.9757 10.3355 28.1411 10.7433 27.3268 11.1917C26.5329 11.6402 25.7593 12.1295 25.0061 12.6391L24.8025 12.5576C17.1075 9.62204 10.2879 13.1488 10.2879 13.1488C9.65679 21.3438 13.3618 26.5014 14.0947 27.4391C13.9114 27.9488 13.7486 28.4584 13.5857 28.968C13.0157 30.8231 12.5882 32.719 12.3236 34.6964C12.2829 34.9818 12.2421 35.2672 12.2218 35.5526C5.09679 39.0793 3 46.2755 3 46.2755C8.92393 53.1047 15.8454 53.5328 15.8454 53.5328L15.8657 53.5124C16.7411 55.0821 17.7589 56.5702 18.8989 57.9769C19.3875 58.568 19.8761 59.1185 20.4054 59.6689C18.2475 65.8661 20.7107 71.0033 20.7107 71.0033C27.3064 71.2479 31.6425 68.1085 32.5586 67.395C33.21 67.6193 33.8818 67.8231 34.5536 67.9862C36.5893 68.5163 38.6657 68.822 40.7422 68.9036C41.2511 68.924 41.7804 68.9444 42.2893 68.924H43.0222L43.3479 68.9036V68.924C46.4625 73.368 51.9183 74 51.9183 74C55.8065 69.9025 56.0304 65.8253 56.0304 64.9488V64.8876V64.7653V64.5818C56.8447 64.011 57.6183 63.3995 58.3511 62.7267C59.8983 61.3201 61.2622 59.7096 62.4022 57.9769L62.7075 57.4876C67.1047 57.7322 70.2193 54.7559 70.2193 54.7559C69.4865 50.1691 66.8808 47.9267 66.3311 47.4986C65.7815 47.0705 66.3108 47.4782 66.27 47.4579C66.2293 47.4375 66.2293 47.4171 66.2293 47.4171C66.209 47.3967 66.1683 47.3763 66.1275 47.3559C66.1479 47.0705 66.1683 46.8055 66.1886 46.5201C66.2293 46.0309 66.2293 45.5212 66.2293 45.032V44.3796V44.2573L66.209 43.9515L66.1886 43.5438C66.1886 43.4011 66.1683 43.2788 66.1479 43.1565C66.1275 43.0342 66.1275 42.8915 66.1072 42.7691L66.0665 42.3818L66.0054 41.9945C65.924 41.4848 65.8425 40.9956 65.7204 40.486C65.2522 38.5085 64.4786 36.6331 63.4811 34.941C62.4633 33.249 61.2011 31.7609 59.7558 30.497C58.3307 29.2331 56.7225 28.2138 55.0533 27.4595C53.3636 26.7052 51.6129 26.216 49.8622 25.9917C48.9868 25.8694 48.1115 25.8287 47.2361 25.849H46.5847L46.259 25.8694C46.1368 25.8694 46.0147 25.8898 45.9129 25.8898C45.465 25.9306 45.0172 25.9917 44.5897 26.0733C42.839 26.3994 41.19 27.0314 39.7447 27.908C38.2993 28.7846 37.0372 29.865 36.0193 31.0882C35.0014 32.3113 34.2075 33.6771 33.6579 35.0837C33.1082 36.4904 32.8029 37.9581 32.7214 39.3647C32.7011 39.7113 32.7011 40.0782 32.7011 40.4248V40.6898L32.7214 40.9752C32.7418 41.1383 32.7418 41.3218 32.7622 41.4848C32.8232 42.1983 32.9657 42.8915 33.149 43.5438C33.5357 44.8689 34.1465 46.0716 34.8997 47.0909C35.6529 48.1102 36.569 48.946 37.5257 49.6187C38.4825 50.2711 39.5207 50.7399 40.5386 51.0457C41.5565 51.3515 42.5743 51.4738 43.5311 51.4738H44.0604C44.1215 51.4738 44.1825 51.4738 44.2436 51.4534C44.3454 51.4534 44.4472 51.4331 44.549 51.4331C44.5693 51.4331 44.61 51.4331 44.6304 51.4127L44.7322 51.3923C44.7932 51.3923 44.8543 51.3719 44.9154 51.3719C45.0375 51.3515 45.1393 51.3311 45.2615 51.3107C45.3836 51.2904 45.4854 51.27 45.5872 51.2292C45.8111 51.1884 46.0147 51.1069 46.2182 51.0457C46.6254 50.903 47.0325 50.7399 47.3786 50.5565C47.745 50.373 48.0707 50.1488 48.3965 49.9449C48.4779 49.8837 48.5797 49.8226 48.6611 49.741C48.9868 49.476 49.0479 48.9868 48.7832 48.6606C48.5593 48.3752 48.1522 48.2937 47.8265 48.4771L47.5822 48.5994C47.2972 48.7421 47.0122 48.8645 46.7068 48.9664C46.4015 49.0683 46.0757 49.1499 45.75 49.211C45.5872 49.2314 45.4243 49.2518 45.2411 49.2722C45.1597 49.2722 45.0782 49.2926 44.9765 49.2926H44.4879C44.3861 49.2926 44.2843 49.2926 44.1825 49.2722H44.0604C44.0197 49.2722 43.9586 49.2722 43.9179 49.2518C43.8161 49.2314 43.7347 49.2314 43.6329 49.211C42.8797 49.1091 42.1265 48.8848 41.414 48.5587C40.6811 48.2325 39.989 47.784 39.3579 47.2132C38.7268 46.6424 38.1772 45.9697 37.7497 45.195C37.3222 44.4204 37.0168 43.5642 36.8743 42.6672C36.8132 42.2187 36.7725 41.7499 36.7929 41.3014C36.7929 41.1791 36.8132 41.0568 36.8132 40.9344V40.7714C36.8132 40.7102 36.8336 40.649 36.8336 40.5879C36.854 40.3433 36.8947 40.0986 36.9354 39.854C37.2815 37.897 38.2586 35.9807 39.765 34.5333C40.1518 34.1664 40.559 33.8402 40.9865 33.5344C41.414 33.2286 41.8822 32.9636 42.3707 32.7394C42.8593 32.5152 43.3479 32.3317 43.8772 32.189C44.3861 32.0463 44.9154 31.9647 45.465 31.9036C45.7297 31.8832 45.9943 31.8628 46.2793 31.8628H46.9104L47.1343 31.8832C47.7247 31.924 48.2947 32.0055 48.8647 32.1482C50.0047 32.3928 51.1243 32.8209 52.1625 33.3917C54.239 34.5537 56.01 36.3477 57.089 38.5085C57.6386 39.589 58.0254 40.751 58.2086 41.9537C58.2493 42.2595 58.29 42.5653 58.3104 42.8711L58.3307 43.0953L58.3511 43.3196V44.1961C58.3511 44.3388 58.3307 44.5835 58.3307 44.7262C58.3104 45.0523 58.2697 45.3989 58.229 45.7251C58.1883 46.0512 58.1272 46.3774 58.0661 46.7036C58.005 47.0298 57.9236 47.3559 57.8422 47.6617C57.6793 48.2937 57.4757 48.9256 57.2315 49.5576C56.7429 50.7807 56.0915 51.9631 55.3179 53.0435C53.7504 55.2044 51.6129 56.9576 49.17 58.0788C47.9486 58.6292 46.6661 59.0369 45.3429 59.2408C44.6915 59.3631 44.0197 59.4242 43.3479 59.4446H42.33C41.9636 59.4446 41.6175 59.4242 41.2511 59.3835C39.8261 59.2815 38.4215 59.0165 37.0372 58.6292C35.6732 58.2419 34.35 57.6915 33.0879 57.0391C30.5839 55.6937 28.3243 53.859 26.5736 51.6369C25.6982 50.5361 24.9247 49.3333 24.2936 48.0898C23.6625 46.8463 23.1536 45.5212 22.7872 44.1961C22.4207 42.8507 22.1968 41.4848 22.095 40.0986L22.0747 39.8336V38.6716V38.5289V38.0193C22.095 37.3466 22.1561 36.6331 22.2375 35.9399C22.3189 35.2468 22.4411 34.5333 22.5836 33.8402C22.7261 33.1471 22.8889 32.454 23.0925 31.7609C23.4793 30.395 23.9679 29.07 24.5379 27.8264C25.6982 25.3394 27.2047 23.1174 29.0164 21.3438C29.4643 20.8953 29.9325 20.4876 30.4211 20.0799C30.9097 19.6926 31.4186 19.3256 31.9479 18.9791C32.4568 18.6325 33.0065 18.3267 33.5561 18.0413C33.8207 17.8986 34.1057 17.7559 34.3907 17.6336L34.8182 17.4501L35.2457 17.2667C35.8157 17.022 36.4061 16.8182 37.0168 16.6347C37.1593 16.5939 37.3222 16.5532 37.4647 16.492C37.6072 16.4512 37.77 16.4105 37.9125 16.3697C38.2179 16.2882 38.5232 16.2066 38.8286 16.1455C38.9711 16.1047 39.134 16.0843 39.2968 16.0435C39.4597 16.0028 39.6022 15.9824 39.765 15.9416C39.9279 15.9212 40.0704 15.8804 40.2332 15.8601L40.4572 15.8193L40.7015 15.7785C40.8643 15.7581 41.0068 15.7377 41.1697 15.7174C41.3529 15.697 41.5157 15.6766 41.699 15.6562C41.8415 15.6358 42.0857 15.6154 42.2282 15.595C42.33 15.5747 42.4522 15.5747 42.554 15.5543L42.7779 15.5339L42.8797 15.5135H43.0018C43.185 15.4931 43.3479 15.4931 43.5311 15.4727L43.7957 15.4523H43.9993C44.1418 15.4523 44.3047 15.432 44.4472 15.432C45.0375 15.4116 45.6482 15.4116 46.2386 15.432C47.4193 15.4727 48.5797 15.6154 49.6993 15.8193C51.959 16.2474 54.0761 16.9609 56.01 17.919C57.944 18.8568 59.654 20.0187 61.1604 21.2826C61.2622 21.3642 61.3436 21.4457 61.4454 21.5273C61.5268 21.6088 61.6286 21.6904 61.71 21.7719C61.8933 21.935 62.0561 22.0981 62.2393 22.2612C62.4225 22.4242 62.5854 22.5873 62.7483 22.7504C62.9111 22.9135 63.074 23.0766 63.2368 23.2601C63.8679 23.9328 64.4583 24.6055 64.9875 25.2986C66.0461 26.6645 66.9011 28.0507 67.5729 29.3554L67.695 29.6L67.8172 29.8446C67.8986 30.0077 67.98 30.1708 68.0411 30.3339C68.1225 30.497 68.1836 30.6397 68.265 30.8028C68.3261 30.9658 68.4075 31.1085 68.4686 31.2716C68.7129 31.8832 68.9572 32.4744 69.1404 33.0248C69.4458 33.9218 69.6697 34.7168 69.8529 35.4099C69.914 35.6953 70.1786 35.8788 70.4636 35.838C70.769 35.8176 70.9929 35.573 70.9929 35.2672C71.0133 34.5333 70.9929 33.6567 70.8911 32.6579Z" fill="url(#paint0_linear_6670_23720)"/>
<defs>
<linearGradient id="paint0_linear_6670_23720" x1="36.9965" y1="21.9961" x2="36.9965" y2="73.0561" gradientUnits="userSpaceOnUse">
<stop stop-color="#F05A28"/>
<stop offset="1" stop-color="#FBCA0A"/>
</linearGradient>
</defs>
</svg>
