<svg width="80" height="80" viewBox="0 0 80 80" fill="none" xmlns="http://www.w3.org/2000/svg">
<path d="M0 34.0765C0 18.0127 0 9.98079 4.99039 4.99039C9.98079 0 18.0127 0 34.0765 0H45.9235C61.9873 0 70.0192 0 75.0096 4.99039C80 9.98079 80 18.0127 80 34.0765V45.9235C80 61.9873 80 70.0192 75.0096 75.0096C70.0192 80 61.9873 80 45.9235 80H34.0765C18.0127 80 9.98079 80 4.99039 75.0096C0 70.0192 0 61.9873 0 45.9235V34.0765Z" fill="#1B1D1E"/>
<path d="M61.0328 37.3051C60.957 36.5334 60.8306 35.6478 60.578 34.6611C60.3253 33.6869 59.9463 32.6116 59.3904 31.4983C58.8345 30.385 58.1144 29.2337 57.1796 28.1078C56.8132 27.665 56.4089 27.2349 55.9794 26.8174C56.6237 24.2492 55.1961 22.0226 55.1961 22.0226C52.7326 21.8708 51.1661 22.7943 50.5849 23.2118C50.4839 23.1739 50.3954 23.1233 50.2944 23.0853C49.8775 22.9208 49.4479 22.7564 48.9931 22.6172C48.551 22.4781 48.0962 22.3515 47.6287 22.2377C47.1613 22.1238 46.6939 22.0353 46.2138 21.9594C46.1254 21.9467 46.0496 21.9341 45.9611 21.9214C44.8873 18.4803 41.8047 17.0381 41.8047 17.0381C38.3558 19.2267 37.7115 22.2883 37.7115 22.2883C37.7115 22.2883 37.6989 22.3515 37.6736 22.4654C37.4841 22.516 37.2946 22.5793 37.1051 22.6299C36.8398 22.7058 36.5745 22.807 36.3218 22.9082C36.0565 23.0094 35.8039 23.1106 35.5386 23.2245C35.0206 23.4522 34.5026 23.7052 33.9973 23.9835C33.5046 24.2619 33.0245 24.5655 32.5571 24.8818L32.4308 24.8312C27.6553 23.0094 23.4231 25.198 23.4231 25.198C23.0315 30.2838 25.3308 33.4845 25.7856 34.0665C25.6719 34.3827 25.5708 34.699 25.4698 35.0153C25.116 36.1665 24.8507 37.3431 24.6865 38.5702C24.6612 38.7474 24.636 38.9245 24.6233 39.1016C20.2016 41.2902 18.9004 45.7561 18.9004 45.7561C22.5767 49.9942 26.8721 50.2599 26.8721 50.2599L26.8847 50.2472C27.4279 51.2213 28.0596 52.1449 28.7671 53.0178C29.0703 53.3847 29.3735 53.7263 29.7019 54.0678C28.3628 57.9138 29.8914 61.1018 29.8914 61.1018C33.9847 61.2537 36.6756 59.3054 37.2441 58.8626C37.6483 59.0018 38.0652 59.1283 38.4822 59.2295C39.7455 59.5584 41.0341 59.7482 42.3227 59.7988C42.6385 59.8114 42.967 59.8241 43.2828 59.8114H43.7376L43.9398 59.7988V59.8114C45.8727 62.5694 49.2584 62.9615 49.2584 62.9615C51.6714 60.4187 51.8104 57.8885 51.8104 57.3445V57.3065V57.2306V57.1167C52.3157 56.7625 52.7958 56.383 53.2506 55.9655C54.2107 55.0926 55.0572 54.0931 55.7646 53.0178L55.9541 52.7142C58.6829 52.866 60.6159 51.0189 60.6159 51.0189C60.1611 48.1724 58.544 46.7808 58.2029 46.5151C57.8618 46.2495 58.1902 46.5025 58.165 46.4898C58.1397 46.4772 58.1397 46.4645 58.1397 46.4645C58.1271 46.4519 58.1018 46.4392 58.0765 46.4266C58.0892 46.2495 58.1018 46.085 58.1144 45.9079C58.1397 45.6042 58.1397 45.288 58.1397 44.9843V44.5795V44.5036L58.1271 44.3138L58.1144 44.0608C58.1144 43.9723 58.1018 43.8964 58.0892 43.8204C58.0765 43.7445 58.0765 43.656 58.0639 43.5801L58.0386 43.3397L58.0007 43.0993C57.9502 42.7831 57.8997 42.4794 57.8239 42.1632C57.5333 40.936 57.0532 39.7721 56.4342 38.7221C55.8025 37.672 55.0193 36.7485 54.1223 35.9641C53.238 35.1798 52.2399 34.5472 51.204 34.0791C50.1554 33.611 49.0689 33.3074 47.9825 33.1682C47.4392 33.0923 46.896 33.067 46.3528 33.0797H45.9485L45.7464 33.0923C45.6706 33.0923 45.5948 33.105 45.5316 33.105C45.2537 33.1303 44.9757 33.1682 44.7104 33.2188C43.6239 33.4212 42.6006 33.8134 41.7037 34.3574C40.8067 34.9014 40.0234 35.5719 39.3918 36.331C38.7601 37.0901 38.2674 37.9377 37.9263 38.8106C37.5852 39.6835 37.3957 40.5944 37.3451 41.4673C37.3325 41.6824 37.3325 41.9101 37.3325 42.1252V42.2897L37.3451 42.4668C37.3578 42.568 37.3578 42.6818 37.3704 42.7831C37.4083 43.2258 37.4967 43.656 37.6104 44.0608C37.8505 44.8831 38.2295 45.6296 38.6969 46.2621C39.1644 46.8947 39.7329 47.4134 40.3266 47.8308C40.9204 48.2357 41.5647 48.5267 42.1964 48.7164C42.828 48.9062 43.4597 48.9821 44.0535 48.9821H44.3819C44.4198 48.9821 44.4577 48.9821 44.4956 48.9694C44.5588 48.9694 44.622 48.9568 44.6851 48.9568C44.6978 48.9568 44.723 48.9568 44.7357 48.9441L44.7988 48.9315C44.8367 48.9315 44.8746 48.9188 44.9125 48.9188C44.9883 48.9062 45.0515 48.8935 45.1273 48.8809C45.2031 48.8682 45.2663 48.8556 45.3295 48.8303C45.4684 48.805 45.5948 48.7544 45.7211 48.7164C45.9738 48.6279 46.2264 48.5267 46.4412 48.4128C46.6686 48.2989 46.8707 48.1598 47.0729 48.0333C47.1234 47.9953 47.1866 47.9574 47.2371 47.9067C47.4392 47.7423 47.4771 47.4387 47.3129 47.2362C47.1739 47.0591 46.9213 47.0085 46.7191 47.1224L46.5675 47.1983C46.3907 47.2868 46.2138 47.3628 46.0243 47.426C45.8348 47.4893 45.6327 47.5399 45.4305 47.5778C45.3295 47.5905 45.2284 47.6031 45.1147 47.6158C45.0641 47.6158 45.0136 47.6284 44.9504 47.6284H44.6472C44.5841 47.6284 44.5209 47.6284 44.4577 47.6158H44.3819C44.3567 47.6158 44.3188 47.6158 44.2935 47.6031C44.2303 47.5905 44.1798 47.5905 44.1166 47.5778C43.6492 47.5146 43.1818 47.3754 42.7396 47.173C42.2848 46.9706 41.8553 46.6922 41.4636 46.338C41.072 45.9838 40.7309 45.5663 40.4656 45.0856C40.2003 44.6048 40.0108 44.0735 39.9224 43.5168C39.8845 43.2385 39.8592 42.9475 39.8718 42.6692C39.8718 42.5933 39.8845 42.5174 39.8845 42.4415V42.3403C39.8845 42.3023 39.8971 42.2644 39.8971 42.2264C39.9097 42.0746 39.935 41.9228 39.9603 41.771C40.175 40.5565 40.7814 39.3673 41.7163 38.469C41.9563 38.2413 42.209 38.0389 42.4743 37.8491C42.7396 37.6594 43.0302 37.4949 43.3334 37.3557C43.6366 37.2166 43.9398 37.1027 44.2682 37.0142C44.5841 36.9256 44.9125 36.875 45.2537 36.837C45.4179 36.8244 45.5821 36.8117 45.759 36.8117H46.1506L46.2896 36.8244C46.656 36.8497 47.0097 36.9003 47.3634 36.9889C48.0709 37.1407 48.7657 37.4063 49.41 37.7606C50.6986 38.4817 51.7977 39.595 52.4673 40.936C52.8084 41.6065 53.0485 42.3276 53.1622 43.074C53.1874 43.2638 53.2127 43.4536 53.2253 43.6433L53.238 43.7825L53.2506 43.9217V44.4657C53.2506 44.5542 53.238 44.706 53.238 44.7946C53.2253 44.997 53.2001 45.2121 53.1748 45.4145C53.1495 45.6169 53.1116 45.8193 53.0737 46.0217C53.0358 46.2242 52.9853 46.4266 52.9348 46.6163C52.8337 47.0085 52.7074 47.4007 52.5558 47.7929C52.2525 48.552 51.8483 49.2857 51.3682 49.9562C50.3954 51.2972 49.0689 52.3852 47.5529 53.081C46.7949 53.4226 45.999 53.6756 45.1778 53.8022C44.7736 53.8781 44.3567 53.916 43.9398 53.9287H43.3081C43.0807 53.9287 42.8659 53.916 42.6385 53.8907C41.7542 53.8275 40.8825 53.663 40.0234 53.4226C39.177 53.1823 38.3558 52.8407 37.5725 52.4358C36.0186 51.6009 34.6163 50.4623 33.5299 49.0833C32.9866 48.4001 32.5066 47.6537 32.1149 46.882C31.7233 46.1103 31.4074 45.288 31.18 44.4657C30.9526 43.6307 30.8137 42.7831 30.7505 41.9228L30.7379 41.7583V41.0372V40.9487V40.6324C30.7505 40.2149 30.7884 39.7721 30.8389 39.342C30.8895 38.9118 30.9653 38.469 31.0537 38.0389C31.1421 37.6088 31.2432 37.1786 31.3695 36.7485C31.6096 35.9009 31.9128 35.0785 32.2665 34.3068C32.9866 32.7634 33.9215 31.3844 35.0459 30.2838C35.3238 30.0055 35.6144 29.7524 35.9176 29.4994C36.2208 29.259 36.5366 29.0313 36.8651 28.8163C37.1809 28.6012 37.522 28.4114 37.8631 28.2343C38.0273 28.1457 38.2042 28.0572 38.3811 27.9813L38.6464 27.8674L38.9117 27.7536C39.2654 27.6017 39.6318 27.4752 40.0108 27.3614C40.0992 27.3361 40.2003 27.3108 40.2887 27.2728C40.3772 27.2475 40.4782 27.2222 40.5667 27.1969C40.7562 27.1463 40.9457 27.0957 41.1352 27.0578C41.2236 27.0324 41.3247 27.0198 41.4257 26.9945C41.5268 26.9692 41.6152 26.9565 41.7163 26.9312C41.8174 26.9186 41.9058 26.8933 42.0069 26.8806L42.1458 26.8553L42.2974 26.83C42.3985 26.8174 42.4869 26.8047 42.588 26.7921C42.7017 26.7794 42.8028 26.7668 42.9165 26.7541C43.0049 26.7415 43.1565 26.7288 43.2449 26.7162C43.3081 26.7035 43.3839 26.7035 43.4471 26.6909L43.586 26.6782L43.6492 26.6656H43.725C43.8387 26.6529 43.9398 26.6529 44.0535 26.6403L44.2177 26.6276H44.344C44.4325 26.6276 44.5335 26.615 44.622 26.615C44.9883 26.6023 45.3673 26.6023 45.7337 26.615C46.4665 26.6403 47.1866 26.7288 47.8814 26.8553C49.2837 27.121 50.5976 27.5638 51.7977 28.1584C52.9979 28.7403 54.0591 29.4615 54.994 30.2458C55.0572 30.2964 55.1077 30.347 55.1709 30.3976C55.2214 30.4482 55.2846 30.4988 55.3351 30.5495C55.4488 30.6507 55.5499 30.7519 55.6636 30.8531C55.7773 30.9543 55.8783 31.0555 55.9794 31.1567C56.0805 31.2579 56.1815 31.3591 56.2826 31.473C56.6742 31.8905 57.0406 32.308 57.3691 32.7381C58.026 33.5857 58.5566 34.446 58.9735 35.2557L59.0493 35.4075L59.1251 35.5593C59.1756 35.6605 59.2262 35.7617 59.2641 35.8629C59.3146 35.9641 59.3525 36.0527 59.4031 36.1539C59.441 36.2551 59.4915 36.3437 59.5294 36.4449C59.681 36.8244 59.8326 37.1913 59.9463 37.5329C60.1358 38.0895 60.2748 38.5829 60.3885 39.013C60.4264 39.1901 60.5906 39.304 60.7675 39.2787C60.957 39.2661 61.0959 39.1142 61.0959 38.9245C61.1086 38.469 61.0959 37.925 61.0328 37.3051Z" fill="url(#paint0_linear_10906_29496)"/>
<defs>
<linearGradient id="paint0_linear_10906_29496" x1="39.9982" y1="30.6886" x2="39.9982" y2="62.3758" gradientUnits="userSpaceOnUse">
<stop stop-color="#F05A28"/>
<stop offset="1" stop-color="#FBCA0A"/>
</linearGradient>
</defs>
</svg>
