<svg width="154" height="51" viewBox="0 0 154 51" fill="none" xmlns="http://www.w3.org/2000/svg">
<path d="M6.75339 38.8951L4.91797 37.8349L25.3669 2.41895L27.2011 3.4787L6.75339 38.8951Z" fill="#E434AA"/>
<path d="M4.49805 35.0059H45.3944V37.1246H4.49805V35.0059Z" fill="#E434AA"/>
<path d="M25.7635 48.0068L5.30859 36.1971L6.36835 34.3608L26.8237 46.1722L25.7635 48.0068ZM43.5332 17.2256L23.0782 5.4143L24.138 3.58008L44.5933 15.3894L43.5332 17.2256Z" fill="#E434AA"/>
<path d="M6.37265 17.2178L5.3125 15.382L25.7694 3.57227L26.8292 5.40689L6.37265 17.2178Z" fill="#E434AA"/>
<path d="M43.1551 38.8951L22.7077 3.4787L24.5424 2.41895L44.9913 37.8349L43.1551 38.8951ZM6.11914 13.9757H8.23905V37.5983H6.11954L6.11914 13.9757Z" fill="#E434AA"/>
<path d="M41.666 13.9756H43.7855V37.5982H41.666V13.9756Z" fill="#E434AA"/>
<path d="M25.4023 47.1107L24.4766 45.5067L42.2666 35.2344L43.1922 36.8384L25.4023 47.1107Z" fill="#E434AA"/>
<path d="M46.5942 38.2871C45.3692 40.4194 42.6369 41.1472 40.505 39.9222C38.3727 38.6957 37.6449 35.9633 38.8699 33.831C40.0964 31.6988 42.8288 30.971 44.9611 32.1963C47.1057 33.4352 47.8335 36.1548 46.5942 38.2871ZM11.0238 17.7432C9.79723 19.8755 7.06485 20.6033 4.93257 19.3779C2.80029 18.1514 2.07251 15.4194 3.29785 13.2871C4.52439 11.1548 7.25637 10.427 9.38865 11.652C11.5209 12.8913 12.2487 15.6109 11.0238 17.7432ZM3.31182 38.2871C2.08488 36.1548 2.81306 33.4352 4.94494 32.1959C7.07722 30.971 9.79683 31.6988 11.0361 33.831C12.2611 35.9633 11.5333 38.6829 9.40102 39.9222C7.25637 41.1472 4.53676 40.4194 3.31182 38.2871ZM38.8822 17.7432C37.6573 15.6109 38.3851 12.8913 40.5174 11.652C42.6496 10.427 45.3692 11.1548 46.6081 13.2871C47.8331 15.4194 47.1057 18.139 44.9734 19.3783C42.8412 20.6033 40.1088 19.8755 38.8822 17.7432ZM24.953 50.7871C24.3677 50.7876 23.788 50.6727 23.2471 50.449C22.7062 50.2252 22.2148 49.897 21.8009 49.4831C21.387 49.0692 21.0588 48.5778 20.8351 48.0369C20.6113 47.496 20.4964 46.9164 20.4969 46.331C20.4964 45.7457 20.6113 45.166 20.8351 44.6251C21.0588 44.0843 21.387 43.5928 21.8009 43.1789C22.2148 42.765 22.7062 42.4368 23.2471 42.2131C23.788 41.9893 24.3677 41.8744 24.953 41.875C25.5383 41.8744 26.118 41.9893 26.6589 42.2131C27.1998 42.4368 27.6912 42.765 28.1051 43.1789C28.519 43.5928 28.8472 44.0843 29.0709 44.6251C29.2947 45.166 29.4096 45.7457 29.4091 46.331C29.4091 48.7829 27.4172 50.7871 24.953 50.7871ZM24.953 9.69927C24.3677 9.69979 23.788 9.58489 23.2471 9.36114C22.7062 9.13738 22.2148 8.80917 21.8009 8.39528C21.387 7.98139 21.0588 7.48995 20.8351 6.94908C20.6113 6.4082 20.4964 5.82852 20.4969 5.24319C20.4964 4.65786 20.6113 4.07817 20.8351 3.5373C21.0588 2.99643 21.387 2.50499 21.8009 2.0911C22.2148 1.67721 22.7062 1.34899 23.2471 1.12524C23.788 0.901488 24.3677 0.786586 24.953 0.787111C25.5383 0.786586 26.118 0.901488 26.6589 1.12524C27.1998 1.34899 27.6912 1.67721 28.1051 2.0911C28.519 2.50499 28.8472 2.99643 29.0709 3.5373C29.2947 4.07817 29.4096 4.65786 29.4091 5.24319C29.4096 5.82852 29.2947 6.4082 29.0709 6.94908C28.8472 7.48995 28.519 7.98139 28.1051 8.39528C27.6912 8.80917 27.1998 9.13738 26.6589 9.36114C26.118 9.58489 25.5383 9.69979 24.953 9.69927Z" fill="#E434AA"/>
<path d="M81.7045 22.7871C81.5483 22.3089 81.3423 21.8804 81.0866 21.5016C80.8357 21.1181 80.535 20.7914 80.1847 20.5215C79.839 20.2516 79.446 20.0456 79.0057 19.9036C78.5653 19.7615 78.0824 19.6905 77.5568 19.6905C76.6951 19.6905 75.9115 19.9131 75.206 20.3581C74.5005 20.8032 73.9394 21.459 73.5227 22.3255C73.1061 23.1919 72.8977 24.2549 72.8977 25.5144C72.8977 26.7739 73.1084 27.8368 73.5298 28.7033C73.9512 29.5698 74.5218 30.2256 75.2415 30.6706C75.9612 31.1157 76.7708 31.3382 77.6705 31.3382C78.5038 31.3382 79.2377 31.1607 79.8722 30.8056C80.5114 30.4457 81.0085 29.9391 81.3636 29.2857C81.7235 28.6275 81.9034 27.8534 81.9034 26.9632L82.4432 27.0769H78.0682V25.5144H83.608V27.0769C83.608 28.2748 83.3523 29.3165 82.8409 30.2019C82.3343 31.0873 81.6335 31.7739 80.7386 32.2615C79.8485 32.7445 78.8258 32.986 77.6705 32.986C76.3826 32.986 75.2509 32.6829 74.2756 32.0769C73.3049 31.4708 72.5473 30.6091 72.0028 29.4917C71.4631 28.3742 71.1932 27.0485 71.1932 25.5144C71.1932 24.3638 71.3471 23.3292 71.6548 22.4107C71.9673 21.4874 72.4077 20.7014 72.9759 20.0527C73.544 19.4041 74.2164 18.9069 74.9929 18.5613C75.7694 18.2156 76.6241 18.0428 77.5568 18.0428C78.3239 18.0428 79.0388 18.1588 79.7017 18.3908C80.3693 18.6181 80.9635 18.9424 81.4844 19.3638C82.0099 19.7805 82.4479 20.28 82.7983 20.8624C83.1487 21.44 83.3902 22.0816 83.5227 22.7871H81.7045ZM86.3974 32.7871V21.878H88.0167V23.5257H88.1303C88.3292 22.986 88.689 22.548 89.2099 22.2118C89.7307 21.8757 90.3178 21.7076 90.9712 21.7076C91.0943 21.7076 91.2482 21.7099 91.4329 21.7147C91.6175 21.7194 91.7572 21.7265 91.8519 21.736V23.4405C91.7951 23.4263 91.6649 23.405 91.4613 23.3766C91.2624 23.3435 91.0517 23.3269 90.8292 23.3269C90.2989 23.3269 89.8254 23.4382 89.4087 23.6607C88.9968 23.8785 88.6701 24.1815 88.4286 24.5698C88.1919 24.9533 88.0735 25.3913 88.0735 25.8837V32.7871H86.3974ZM97.049 33.0428C96.3577 33.0428 95.7304 32.9126 95.1669 32.6522C94.6035 32.387 94.156 32.0059 93.8246 31.5087C93.4931 31.0068 93.3274 30.4007 93.3274 29.6905C93.3274 29.0655 93.4505 28.5589 93.6967 28.1706C93.9429 27.7776 94.272 27.4699 94.6839 27.2473C95.0959 27.0248 95.5504 26.8591 96.0476 26.7502C96.5495 26.6365 97.0537 26.5466 97.5604 26.4803C98.2232 26.3951 98.7607 26.3311 99.1726 26.2885C99.5893 26.2412 99.8923 26.1631 100.082 26.0542C100.276 25.9453 100.373 25.7559 100.373 25.486V25.4292C100.373 24.7284 100.181 24.1839 99.7976 23.7956C99.4188 23.4074 98.8435 23.2132 98.0717 23.2132C97.2715 23.2132 96.6442 23.3884 96.1896 23.7388C95.7351 24.0892 95.4155 24.4632 95.2308 24.861L93.6399 24.2928C93.924 23.6299 94.3028 23.1138 94.7763 22.7445C95.2545 22.3704 95.7753 22.11 96.3388 21.9632C96.907 21.8117 97.4657 21.736 98.0149 21.736C98.3653 21.736 98.7678 21.7786 99.2223 21.8638C99.6816 21.9443 100.124 22.1124 100.55 22.3681C100.981 22.6238 101.339 23.0096 101.623 23.5257C101.907 24.0418 102.049 24.7331 102.049 25.5996V32.7871H100.373V31.3098H100.288C100.174 31.5466 99.9846 31.7999 99.7195 32.0698C99.4543 32.3397 99.1016 32.5693 98.6612 32.7587C98.2209 32.9481 97.6835 33.0428 97.049 33.0428ZM97.3047 31.5371C97.9676 31.5371 98.5263 31.4069 98.9808 31.1465C99.4401 30.8861 99.7857 30.5499 100.018 30.138C100.254 29.726 100.373 29.2928 100.373 28.8382V27.3042C100.302 27.3894 100.146 27.4675 99.9041 27.5385C99.6674 27.6048 99.3928 27.664 99.0803 27.7161C98.7725 27.7634 98.4718 27.806 98.1783 27.8439C97.8894 27.8771 97.6551 27.9055 97.4751 27.9292C97.0395 27.986 96.6323 28.0783 96.2536 28.2061C95.8795 28.3292 95.5765 28.5163 95.3445 28.7672C95.1172 29.0134 95.0036 29.3496 95.0036 29.7757C95.0036 30.3581 95.219 30.7985 95.6499 31.0968C96.0855 31.3903 96.6371 31.5371 97.3047 31.5371ZM105.108 36.878V21.878H106.728V23.611H106.926C107.05 23.4216 107.22 23.1801 107.438 22.8865C107.66 22.5882 107.978 22.3231 108.39 22.0911C108.806 21.8543 109.37 21.736 110.08 21.736C110.998 21.736 111.808 21.9656 112.509 22.4249C113.21 22.8842 113.757 23.5352 114.15 24.378C114.542 25.2208 114.739 26.2151 114.739 27.361C114.739 28.5163 114.542 29.5177 114.15 30.3652C113.757 31.208 113.212 31.8614 112.516 32.3255C111.82 32.7847 111.017 33.0144 110.108 33.0144C109.408 33.0144 108.846 32.8984 108.425 32.6664C108.004 32.4296 107.679 32.1621 107.452 31.8638C107.225 31.5608 107.05 31.3098 106.926 31.111H106.784V36.878H105.108ZM106.756 27.3326C106.756 28.1564 106.877 28.8832 107.118 29.513C107.36 30.138 107.712 30.628 108.176 30.9831C108.641 31.3335 109.209 31.5087 109.881 31.5087C110.582 31.5087 111.167 31.324 111.635 30.9547C112.109 30.5807 112.464 30.0788 112.701 29.449C112.942 28.8146 113.063 28.1091 113.063 27.3326C113.063 26.5655 112.944 25.8742 112.708 25.2587C112.476 24.6384 112.123 24.1484 111.65 23.7885C111.181 23.4239 110.591 23.2417 109.881 23.2417C109.199 23.2417 108.626 23.4145 108.162 23.7601C107.698 24.101 107.348 24.5792 107.111 25.1948C106.874 25.8056 106.756 26.5182 106.756 27.3326ZM118.972 26.2246V32.7871H117.296V18.2417H118.972V23.5826H119.114C119.37 23.0191 119.753 22.5717 120.265 22.2402C120.781 21.9041 121.467 21.736 122.324 21.736C123.068 21.736 123.719 21.8851 124.277 22.1834C124.836 22.477 125.269 22.9292 125.577 23.54C125.89 24.146 126.046 24.9178 126.046 25.8553V32.7871H124.37V25.9689C124.37 25.1025 124.145 24.4325 123.695 23.959C123.25 23.4808 122.632 23.2417 121.841 23.2417C121.292 23.2417 120.8 23.3577 120.364 23.5897C119.933 23.8217 119.592 24.1602 119.341 24.6053C119.095 25.0504 118.972 25.5901 118.972 26.2246ZM134.624 28.2417H136.555L138.175 30.3723L138.601 30.9405L141.016 34.1507H139.084L137.493 32.0201L137.095 31.4803L134.624 28.2417ZM141.612 25.5144C141.612 27.0485 141.335 28.3742 140.781 29.4917C140.227 30.6091 139.467 31.4708 138.501 32.0769C137.536 32.6829 136.432 32.986 135.192 32.986C133.951 32.986 132.848 32.6829 131.882 32.0769C130.916 31.4708 130.156 30.6091 129.602 29.4917C129.048 28.3742 128.771 27.0485 128.771 25.5144C128.771 23.9803 129.048 22.6545 129.602 21.5371C130.156 20.4197 130.916 19.5579 131.882 18.9519C132.848 18.3458 133.951 18.0428 135.192 18.0428C136.432 18.0428 137.536 18.3458 138.501 18.9519C139.467 19.5579 140.227 20.4197 140.781 21.5371C141.335 22.6545 141.612 23.9803 141.612 25.5144ZM139.908 25.5144C139.908 24.2549 139.697 23.1919 139.276 22.3255C138.859 21.459 138.293 20.8032 137.578 20.3581C136.868 19.9131 136.072 19.6905 135.192 19.6905C134.311 19.6905 133.513 19.9131 132.798 20.3581C132.088 20.8032 131.522 21.459 131.101 22.3255C130.684 23.1919 130.476 24.2549 130.476 25.5144C130.476 26.7739 130.684 27.8368 131.101 28.7033C131.522 29.5698 132.088 30.2256 132.798 30.6706C133.513 31.1157 134.311 31.3382 135.192 31.3382C136.072 31.3382 136.868 31.1157 137.578 30.6706C138.293 30.2256 138.859 29.5698 139.276 28.7033C139.697 27.8368 139.908 26.7739 139.908 25.5144ZM144.574 32.7871V18.2417H146.335V31.2246H153.097V32.7871H144.574Z" fill="white"/>
</svg>
