<svg width="100" height="100" viewBox="0 0 100 100" fill="none" xmlns="http://www.w3.org/2000/svg">
<circle cx="50" cy="50" r="50" fill="#FF5D00" fill-opacity="0.1"/>
<path d="M33 48.4824C32.9961 48.2198 32.889 47.9692 32.7019 47.7848C32.5148 47.6005 32.2627 47.4971 32 47.4971C31.7373 47.4971 31.4852 47.6005 31.2981 47.7848C31.111 47.9692 31.0039 48.2198 31 48.4824V50.4824H33V48.4824ZM68 47.4824C67.735 47.4832 67.4811 47.5888 67.2938 47.7762C67.1064 47.9636 67.0008 48.2174 67 48.4824V50.4824H69V48.4824C68.9992 48.2174 68.8936 47.9636 68.7062 47.7762C68.5189 47.5888 68.265 47.4832 68 47.4824ZM33.18 52.4824C33.3864 53.0659 33.7682 53.5713 34.273 53.9294C34.7779 54.2874 35.3811 54.4806 36 54.4824H64C64.7939 54.4768 65.5537 54.1589 66.1151 53.5975C66.6765 53.0361 66.9944 52.2763 67 51.4824V50.4824H33C32.9416 51.1545 33.0026 51.8316 33.18 52.4824Z" fill="#FF5D00"/>
<path d="M79.6586 46.1022C80.0528 45.1971 80.0993 44.1784 79.7894 43.2411C79.4794 42.3039 78.8347 41.5138 77.9786 41.0222C77.9053 40.2497 77.6529 39.505 77.2415 38.8471C76.8301 38.1892 76.271 37.6362 75.6086 37.2322C79.2353 27.7262 75.6111 19.143 66.6986 23.8022C66.3714 22.9092 65.7966 22.1279 65.0414 21.5497C64.2863 20.9716 63.3821 20.6205 62.4346 20.5376C61.4872 20.4547 60.5357 20.6434 59.6917 21.0817C58.8476 21.5199 58.1459 22.1896 57.6686 23.0122C56.4198 22.499 55.0489 22.3587 53.7221 22.6084C52.3952 22.8581 51.1691 23.487 50.1922 24.419C49.2826 23.8555 48.2393 23.5445 47.1696 23.518C46.0999 23.4915 45.0425 23.7506 44.1061 24.2684C43.1697 24.7863 42.3883 25.5443 41.8421 26.4644C41.2959 27.3846 41.0048 28.4336 40.9986 29.5036C40.3332 30.0042 39.8035 30.6632 39.4578 31.4206L38.3686 29.5321C37.8376 28.6152 36.9651 27.9458 35.942 27.6703C34.9188 27.3949 33.8282 27.5357 32.9086 28.0621L32.4086 27.1921C32.6354 27.0604 32.8339 26.8852 32.9929 26.6766C33.1519 26.468 33.2681 26.2301 33.335 25.9765C33.4019 25.7229 33.4181 25.4586 33.3827 25.1988C33.3472 24.9389 33.2609 24.6886 33.1286 24.4621L32.1286 22.7321C31.8624 22.2744 31.4258 21.9406 30.9142 21.8038C30.4027 21.667 29.8577 21.7383 29.3986 22.0021L22.4685 26.0021C22.0117 26.2692 21.6787 26.7058 21.542 27.217C21.4053 27.7282 21.4759 28.2727 21.7385 28.7321L22.7385 30.4621C23.0047 30.9198 23.4406 31.2541 23.9516 31.3926C24.4626 31.5312 25.0076 31.4627 25.4685 31.2021L25.9685 32.0721C25.1008 32.575 24.4546 33.3866 24.1589 34.3449C23.8632 35.3032 23.9398 36.3378 24.3733 37.2422C23.7138 37.6458 23.1576 38.1978 22.749 38.8542C22.3404 39.5106 22.0906 40.2533 22.0196 41.0232C21.1634 41.5126 20.5186 42.3014 20.2091 43.2377C19.8996 44.1741 19.9474 45.1918 20.3433 46.095C19.8261 46.8788 20.039 48.5836 19.9986 49.4822C20.0009 50.2771 20.3177 51.0388 20.8798 51.6009C21.4419 52.163 22.2036 52.4799 22.9986 52.4822H24.2186L30.2586 75.7322C30.535 76.8056 31.1606 77.7566 32.0368 78.4355C32.913 79.1144 33.9901 79.4826 35.0986 79.4822H64.8986C66.0071 79.4826 67.0842 79.1144 67.9604 78.4355C68.8366 77.7566 69.4622 76.8056 69.7386 75.7322L75.7786 52.4822H76.9986C77.7935 52.4799 78.5553 52.163 79.1174 51.6009C79.6795 51.0388 79.9963 50.2771 79.9986 49.4822C79.9565 48.584 80.1697 46.8896 79.6586 46.1022ZM74.8586 39.1322C75.2443 39.4244 75.5495 39.8099 75.7454 40.2525C75.9413 40.695 76.0215 41.1801 75.9786 41.6622C75.9796 41.8689 76.0445 42.0702 76.1645 42.2385C76.2845 42.4068 76.4536 42.5338 76.6486 42.6022C77.0695 42.7473 77.4298 43.0288 77.6726 43.402C77.9153 43.7751 78.0265 44.2186 77.9886 44.6622C77.356 44.3286 74.1109 44.536 73.3786 44.4822C73.0861 44.4487 72.2205 44.501 71.9086 44.4822C73.0674 42.8014 74.0556 41.0092 74.8586 39.1322ZM67.0486 33.0822L68.5486 30.4822C68.6136 30.3674 68.7007 30.2666 68.8049 30.1856C68.9091 30.1047 69.0283 30.0452 69.1556 30.0105C69.2829 29.9759 69.4158 29.9668 69.5467 29.9838C69.6775 30.0008 69.8037 30.0436 69.9179 30.1096C70.0322 30.1756 70.1322 30.2636 70.2122 30.3685C70.2923 30.4734 70.3507 30.5931 70.3843 30.7208C70.4178 30.8484 70.4257 30.9814 70.4076 31.112C70.3894 31.2427 70.3456 31.3685 70.2786 31.4822L68.7786 34.0822L70.5186 35.0822C70.7463 35.2156 70.912 35.4338 70.9794 35.689C71.0468 35.9442 71.0105 36.2157 70.8784 36.4442C70.7463 36.6727 70.5292 36.8397 70.2744 36.9086C70.0196 36.9776 69.7479 36.9429 69.5186 36.8122L67.7786 35.8122L66.2786 38.4122L68.0186 39.4122C68.2463 39.5456 68.412 39.7638 68.4794 40.019C68.5468 40.2742 68.5105 40.5457 68.3784 40.7742C68.2463 41.0027 68.0292 41.1697 67.7744 41.2386C67.5196 41.3076 67.2479 41.2729 67.0186 41.1422L65.2786 40.1422L62.7686 44.4822H60.4886C60.4998 44.4291 60.5201 44.3784 60.5486 44.3322L63.5486 39.1422L61.8186 38.1422C61.5892 38.0083 61.4218 37.7895 61.3526 37.5331C61.2833 37.2767 61.3178 37.0033 61.4486 36.7722C61.5146 36.6583 61.6025 36.5585 61.7072 36.4787C61.8119 36.3989 61.9313 36.3406 62.0587 36.3071C62.186 36.2737 62.3187 36.2657 62.4491 36.2838C62.5795 36.3018 62.7051 36.3454 62.8186 36.4122L64.5486 37.4122L66.0486 34.8122L64.3186 33.8122C64.0913 33.6785 63.926 33.4604 63.8588 33.2054C63.7917 32.9504 63.828 32.6792 63.96 32.4509C64.092 32.2226 64.3088 32.0557 64.5633 31.9867C64.8178 31.9176 65.0893 31.9519 65.3186 32.0822L67.0486 33.0822ZM49.5987 30.3022C49.7226 30.2042 49.8228 30.0797 49.8921 29.9377C49.9613 29.7958 49.9977 29.6401 49.9986 29.4822C50.0074 28.5943 50.2513 27.7245 50.7056 26.9616C51.1599 26.1986 51.8083 25.5696 52.5847 25.1388C53.3611 24.7079 54.2379 24.4905 55.1256 24.5087C56.0134 24.5268 56.8805 24.78 57.6387 25.2423C57.7703 25.3219 57.9184 25.3705 58.0717 25.3842C58.2249 25.3979 58.3793 25.3764 58.523 25.3214C58.6667 25.2664 58.796 25.1794 58.9009 25.0668C59.0059 24.9543 59.0837 24.8193 59.1286 24.6721C59.3146 24.0283 59.7112 23.4656 60.255 23.0739C60.7988 22.6823 61.4582 22.4845 62.1278 22.5122C62.7973 22.5398 63.4382 22.7914 63.9479 23.2265C64.4575 23.6617 64.8064 24.2552 64.9386 24.9122C59.5506 28.6359 54.2676 37.8607 53.8886 44.4822H51.9986C51.3449 44.4768 50.7109 44.2581 50.1931 43.8592C49.6752 43.4604 49.3018 42.9032 49.1297 42.2726C48.9576 41.642 48.9963 40.9725 49.2398 40.3658C49.4833 39.7592 49.9183 39.2487 50.4786 38.9121C50.6362 38.8196 50.7655 38.6856 50.8523 38.5248C50.9391 38.3639 50.98 38.1823 50.9707 37.9998C50.9615 37.8172 50.9023 37.6407 50.7996 37.4895C50.6969 37.3383 50.5547 37.2181 50.3885 37.1421C49.7556 36.8574 49.2074 36.4132 48.7977 35.853C48.3879 35.2929 48.1307 34.6359 48.0511 33.9465C47.9715 33.257 48.0722 32.5587 48.3435 31.9199C48.6148 31.2811 49.0473 30.7237 49.5987 30.3022ZM40.9986 33.4822C41.0005 32.9518 41.144 32.4315 41.4141 31.9751C41.6842 31.5186 42.0712 31.1425 42.5352 30.8855C42.7072 30.7898 42.8471 30.6454 42.9373 30.4704C43.0276 30.2955 43.0642 30.0978 43.0425 29.9021C42.9682 29.1776 43.0934 28.4466 43.4047 27.7881C43.7159 27.1297 44.2014 26.5689 44.8085 26.1666C45.4156 25.7642 46.1212 25.5356 46.8488 25.5054C47.5765 25.4753 48.2986 25.6448 48.9369 25.9956C48.4016 26.9166 48.0873 27.9491 48.0186 29.0122C47.3699 29.5944 46.8555 30.3108 46.5112 31.1116C46.1669 31.9125 46.0009 32.7786 46.0247 33.65C46.0485 34.5214 46.2615 35.3772 46.649 36.158C47.0364 36.9389 47.5891 37.6262 48.2686 38.1722C47.5076 39.0339 47.0655 40.1308 47.0164 41.2794C46.9672 42.428 47.314 43.5586 47.9986 44.4822H46.9986C45.5523 41.9817 42.3623 36.4515 40.8959 33.9074C40.9616 33.7752 40.9967 33.6298 40.9986 33.4822ZM41.0073 38.1073L42.2886 40.3322C40.2672 41.5759 38.7269 41.9912 36.9722 41.0539C37.9918 39.6898 39.3976 38.6633 41.0073 38.1073ZM26.9686 33.7922C27.4272 33.5268 27.7623 33.091 27.9009 32.5796C28.0395 32.0682 27.9704 31.5228 27.7086 31.0621L27.2086 30.2021C28.2674 29.5773 29.6022 28.8096 30.6686 28.2021L31.1686 29.0521C31.4334 29.5112 31.8685 29.8474 32.3796 29.9878C32.8906 30.1282 33.4364 30.0615 33.8986 29.8021C34.1255 29.6695 34.3764 29.5831 34.6368 29.548C34.8972 29.513 35.162 29.5298 35.4159 29.5977C35.6697 29.6656 35.9076 29.7831 36.1158 29.9435C36.324 30.1039 36.4983 30.304 36.6286 30.5321L39.9871 36.3496C38.1558 37.0569 36.5607 38.2657 35.3846 39.8375C33.2478 37.6172 30.4141 36.4669 27.4786 38.6722C27.197 38.1746 26.5248 37.0204 26.2486 36.5422C25.9844 36.0809 25.9118 35.5343 26.0465 35.02C26.1811 34.5058 26.5122 34.0649 26.9686 33.7922ZM23.3497 42.6052C23.5738 42.5259 23.7624 42.3693 23.8813 42.1634C24.0003 41.9576 24.0419 41.716 23.9986 41.4822C23.9986 40.9865 24.1223 40.4986 24.3583 40.0627C24.5944 39.6268 24.9355 39.2567 25.3506 38.9858C25.996 40.0983 27.8512 43.3223 28.5186 44.4822C28.2404 44.4978 26.9269 44.4564 26.6845 44.4821C25.9473 44.5363 22.6645 44.3296 22.0246 44.6577C21.9785 44.2158 22.0847 43.7714 22.3257 43.3981C22.5667 43.0248 22.928 42.745 23.3497 42.6052ZM42.2386 72.4522C42.1112 72.4841 41.9787 72.4906 41.8488 72.4711C41.7189 72.4517 41.5942 72.4068 41.4817 72.3389C41.3692 72.2711 41.2713 72.1817 41.1935 72.0758C41.1158 71.97 41.0597 71.8498 41.0286 71.7222L39.0286 63.7222C38.9971 63.5948 38.9909 63.4624 39.0106 63.3327C39.0302 63.203 39.0752 63.0784 39.143 62.966C39.2108 62.8536 39.3 62.7557 39.4056 62.6779C39.5112 62.6 39.6312 62.5437 39.7585 62.5122C39.8859 62.4807 40.0183 62.4746 40.148 62.4942C40.2778 62.5138 40.4024 62.5588 40.5147 62.6266C40.6271 62.6944 40.725 62.7836 40.8028 62.8892C40.8807 62.9949 40.937 63.1148 40.9685 63.2422L42.9685 71.2422C43.0322 71.4994 42.991 71.7714 42.8541 71.9983C42.7172 72.2252 42.4958 72.3885 42.2386 72.4522ZM50.9986 71.4822C50.9947 71.7448 50.8876 71.9954 50.7005 72.1797C50.5134 72.3641 50.2612 72.4674 49.9985 72.4674C49.7359 72.4674 49.4837 72.3641 49.2966 72.1797C49.1095 71.9953 49.0025 71.7448 48.9986 71.4821V63.4822C48.9986 63.217 49.1039 62.9626 49.2915 62.7751C49.479 62.5875 49.7334 62.4822 49.9986 62.4822C50.2638 62.4822 50.5182 62.5875 50.7057 62.7751C50.8932 62.9626 50.9986 63.217 50.9986 63.4822V71.4822ZM60.9686 63.7222L58.9686 71.7222C58.9019 71.9762 58.738 72.1937 58.5122 72.3278C58.2864 72.4618 58.0169 72.5016 57.762 72.4385C57.5071 72.3755 57.2872 72.2146 57.15 71.9907C57.0128 71.7668 56.9692 71.4979 57.0286 71.2422L59.0286 63.2422C59.0955 62.9885 59.2595 62.7712 59.4852 62.6373C59.7109 62.5035 59.9802 62.4638 60.235 62.5268C60.4897 62.5898 60.7094 62.7505 60.8467 62.9742C60.984 63.1978 61.0278 63.4665 60.9686 63.7222ZM77.9986 49.4822C77.9978 49.7471 77.8922 50.001 77.7048 50.1884C77.5174 50.3758 77.2635 50.4814 76.9986 50.4822H68.9986C69.3298 53.5943 67.3222 56.4489 63.9985 56.4822H35.9986C32.6826 56.4516 30.663 53.5926 30.9986 50.4822H22.9986C22.7336 50.4814 22.4797 50.3758 22.2924 50.1884C22.105 50.001 21.9994 49.7471 21.9986 49.4822V47.4822C22.0013 47.2172 22.1051 46.9633 22.2886 46.7722C22.4782 46.5863 22.7331 46.4822 22.9986 46.4822H76.9986C77.1299 46.4821 77.26 46.5079 77.3813 46.5582C77.5027 46.6084 77.6129 46.6821 77.7058 46.7749C77.7987 46.8678 77.8723 46.9781 77.9226 47.0994C77.9728 47.2208 77.9986 47.3508 77.9986 47.4822L77.9986 49.4822Z" fill="#FF5D00"/>
</svg>
