<svg width="60" height="60" viewBox="0 0 60 60" fill="none" xmlns="http://www.w3.org/2000/svg">
<path d="M60 30C60 46.5685 46.5685 60 30 60C13.4315 60 0 46.5685 0 30C0 13.4315 13.4315 0 30 0C46.5685 0 60 13.4315 60 30Z" fill="#121314"/>
<path d="M42.7464 15.5H17.25C14.9075 15.5 13 17.3687 13 19.667V35.499C13 37.7957 14.9059 39.6659 17.25 39.6659H23.6114C23.8425 39.6659 24.0672 39.7597 24.2281 39.9253L29.3833 45.2406C29.5427 45.4063 29.7658 45.5 30 45.5C30.2342 45.5 30.4558 45.4063 30.6167 45.2406L35.7719 39.9253C35.9312 39.7597 36.1559 39.6659 36.3886 39.6659H42.75C45.0925 39.6659 47 37.7973 47 35.499L46.9968 19.667C46.9968 17.3702 45.0905 15.5 42.7464 15.5ZM37.4848 26.0463L34.5559 28.8945C34.3933 29.0524 34.3184 29.2773 34.3551 29.4992L35.0164 33.4927C35.1104 34.0568 34.5097 34.4833 33.9918 34.2224L30.3235 32.3709C30.1211 32.2678 29.8789 32.2678 29.6749 32.3709L26.0066 34.2224C25.4887 34.4833 24.8895 34.0552 24.982 33.4927L25.6433 29.4992C25.6799 29.2773 25.605 29.0523 25.4425 28.8945L22.5136 26.0463C22.1009 25.6447 22.3303 24.9526 22.904 24.8666L26.9818 24.2495C27.2081 24.2151 27.4042 24.076 27.5061 23.8761L29.3642 20.2638C29.6255 19.7544 30.3681 19.7544 30.6295 20.2638L32.4875 23.8761C32.5911 24.076 32.7855 24.2167 33.0118 24.2495L37.0897 24.8666C37.665 24.9526 37.8944 25.6447 37.4801 26.0463H37.4848Z" fill="#6981F1"/>
</svg>
