<svg width="60" height="60" viewBox="0 0 60 60" fill="none" xmlns="http://www.w3.org/2000/svg">
<path d="M60 30C60 46.5685 46.5685 60 30 60C13.4315 60 0 46.5685 0 30C0 13.4315 13.4315 0 30 0C46.5685 0 60 13.4315 60 30Z" fill="#121314"/>
<path d="M40.0188 23.8196C40.4909 23.8196 40.8735 24.1993 40.8735 24.6678C40.8735 25.1362 40.4909 25.5159 40.0188 25.5159H19.9811C19.509 25.5159 19.1264 25.1362 19.1264 24.6678C19.1264 24.1993 19.509 23.8196 19.9811 23.8196H40.0188ZM33.5493 28.6226C34.0214 28.6226 34.404 29.0023 34.404 29.4707C34.404 29.9392 34.0214 30.3189 33.5493 30.3189H19.9811C19.509 30.3189 19.1264 29.9392 19.1264 29.4707C19.1264 29.0023 19.509 28.6226 19.9811 28.6226H33.5493ZM43.1311 14H16.8608C14.7258 14 13 15.7193 13 17.8397V36.2987C13 38.4125 14.7209 40.1368 16.8492 40.1384H22.4953C23.8981 41.5307 27.2603 44.8673 27.2671 44.874C28.0223 45.6236 29.0161 46 30.0082 46C30.9904 46 31.9742 45.6302 32.7228 44.8889L37.5094 40.1385H43.1309C45.2675 40.1385 47 38.4192 47 36.2988V17.8398C47 15.7178 45.2677 14 43.1311 14Z" fill="#6981F1"/>
</svg>
