<svg width="60" height="60" viewBox="0 0 60 60" fill="none" xmlns="http://www.w3.org/2000/svg">
<path d="M60 30C60 46.5685 46.5685 60 30 60C13.4315 60 0 46.5685 0 30C0 13.4315 13.4315 0 30 0C46.5685 0 60 13.4315 60 30Z" fill="#121314"/>
<path d="M49 25.5868C49 24.5867 48.1594 23.7413 47.0797 23.7413H44.6C44.0407 22.0879 43.4407 20.4346 42.8797 18.783C42.2001 16.7843 40.3204 15.3998 38.1594 15.2466C37.1594 15.17 36.1594 15.131 35.1188 15.0544C33.3203 15.0153 31.6407 15.0153 30 15.0153C28.3594 14.9763 26.6797 15.0153 24.8797 15.0919C23.839 15.131 22.839 15.2076 21.8391 15.2841C19.6797 15.4373 17.7983 16.8218 17.1187 18.8205C16.5593 20.4739 15.9594 22.1272 15.3984 23.7788L12.9203 23.7803C11.8797 23.7803 11 24.5882 11 25.6259C11 26.626 11.8406 27.4714 12.9203 27.4714H14.6406C12.8 27.4714 11.3203 28.8934 11.3203 30.6624V36.9662C11.3203 38.1585 12 39.1961 13 39.7337V43.4623C13 44.3077 13.7203 45 14.6 45H17.3999C18.2796 45 18.9999 44.3077 18.9999 43.4623V40.0791H41.0405V43.4623C41.0405 44.3077 41.7608 45 42.6405 45H45.4405C46.3201 45 47.0405 44.3077 47.0405 43.4623V39.6556C48.0404 39.1181 48.7201 38.0789 48.7201 36.8881V30.6232C48.7201 28.8542 47.2405 27.4321 45.3998 27.4321H47.1201C48.1592 27.4321 49 26.6244 49 25.5868ZM17.5207 25.2024L19.6004 19.5125C19.9597 18.5124 20.9207 17.7826 22.041 17.7061C23.0816 17.6295 24.1206 17.5529 25.2003 17.5138C26.8409 17.4373 28.4409 17.3982 30.0003 17.3607C31.5596 17.3997 33.1596 17.4373 34.8002 17.5138C35.8799 17.5529 36.9205 17.6295 37.9595 17.7061C39.0799 17.7826 40.0392 18.514 40.4002 19.5125L42.4798 25.2024L42.9595 25.0492V25.2024H17.0409V25.0492L17.5207 25.2024ZM17.2801 34.8895C16.9598 34.8895 16.6801 34.8504 16.4004 34.7738C15.0801 34.4285 14.0801 33.2361 14.0801 31.8516C14.0801 30.4671 15.0395 29.2763 16.4004 28.9294C16.6801 28.8528 16.9598 28.8137 17.2801 28.8137C19.0394 28.8137 20.4394 30.1983 20.4394 31.8501C20.441 33.5064 19.0003 34.8895 17.2801 34.8895ZM35.7595 33.8128H24.2408C23.6408 33.8128 23.1205 33.3518 23.1205 32.7361C23.1205 32.1204 23.6002 31.6594 24.2408 31.6594L30 31.6609H35.7591C36.3591 31.6609 36.8794 32.1219 36.8794 32.7376C36.8794 33.3518 36.3595 33.8128 35.7595 33.8128ZM45.9202 31.8141C45.9202 33.1986 44.9609 34.3894 43.5999 34.7363C43.3202 34.8129 43.0406 34.8519 42.7202 34.8519C40.9609 34.8519 39.5609 33.4674 39.5609 31.8156C39.5609 30.1248 41.0015 28.7793 42.7202 28.7793C43.0405 28.7793 43.3202 28.8183 43.5999 28.8949C44.9202 29.2778 45.9202 30.431 45.9202 31.8141Z" fill="#6981F1"/>
</svg>
