<svg width="45" height="38" viewBox="0 0 45 38" fill="none" xmlns="http://www.w3.org/2000/svg">
<path d="M0.333008 22.8866C0.333008 22.2139 0.880221 21.6683 1.55523 21.6683H5.2219C5.89693 21.6683 6.44412 22.2137 6.44412 22.8866V36.2816C6.44412 36.9545 5.89693 37.4999 5.2219 37.4999H1.55523C0.880221 37.4999 0.333008 36.9545 0.333008 36.2816V22.8866ZM18.5622 21.8975C18.5622 21.8975 15.7784 21.38 14.6394 21.8975C13.7913 22.2828 10.5091 23.4574 8.88857 24.0321V34.8263C9.8265 34.7716 11.6915 34.6733 12.4881 34.7053C17.0787 34.8897 19.4221 36.8174 24.0036 37.1634C26.5663 37.357 28.8122 37.8103 30.5838 37.1634C32.3554 36.5165 42.4788 31.6004 43.7442 30.3066C45.0097 29.013 44.3769 25.5199 40.4541 26.1668C36.5313 26.8136 31.343 29.9186 29.1918 29.7893C27.0407 29.6599 21.3462 28.6249 21.3462 28.6249L27.8844 28.7037C27.8844 28.7037 28.808 28.7526 30.0776 27.8486C31.3473 26.9447 32.482 24.3555 30.5838 24.3555C28.6857 24.3555 26.6609 23.7086 26.6609 23.7086L18.5622 21.8975Z" fill="#2A2D30"/>
<path d="M23.3115 12.2852H26.9475L25.296 18.9217C25.1853 19.366 25.3953 19.8282 25.8018 20.0356C26.2078 20.2425 26.703 20.1411 26.9955 19.7886L36.7719 8.00341C37.302 7.36426 36.8474 6.39258 36.0208 6.39258H31.208L33.0181 1.84685C33.2748 1.202 32.8008 0.5 32.1102 0.5H27.222C26.8223 0.5 26.4627 0.744444 26.3143 1.11735L22.4037 10.9383C22.147 11.5832 22.621 12.2852 23.3115 12.2852Z" fill="#2A2D30"/>
</svg>
