<svg width="100" height="100" viewBox="0 0 100 100" fill="none" xmlns="http://www.w3.org/2000/svg">
<path d="M100 50C100 77.6142 77.6142 100 50 100C22.3858 100 0 77.6142 0 50C0 22.3858 22.3858 0 50 0C77.6142 0 100 22.3858 100 50Z" fill="#FF5D00" fill-opacity="0.1"/>
<path d="M57.2695 48.0396L51.457 44.6892C50.5573 44.1739 49.4506 44.1739 48.5508 44.6892L42.7383 48.0396C41.8385 48.5578 41.2852 49.5151 41.2852 50.5516V57.2465C41.2852 58.283 41.8385 59.2403 42.7383 59.7585L48.5508 63.1089C49.0007 63.3667 49.5014 63.4969 50.0039 63.4969C50.5064 63.4969 51.0071 63.3667 51.457 63.1089L57.2695 59.7585C58.1693 59.2403 58.7227 58.283 58.7227 57.2465V50.5516C58.7227 49.5151 58.1693 48.5578 57.2695 48.0396ZM52.9102 55.5726L50.0039 57.2462L47.0977 55.5726V52.2252L50.0039 50.5516L52.9102 52.2252V55.5726Z" fill="#FF5D00"/>
<path d="M61.625 22H38.375C31.965 22 26.75 27.2023 26.75 33.6V68.4C26.75 74.7977 31.965 80 38.375 80H61.625C68.035 80 73.25 74.7977 73.25 68.4V33.6C73.25 27.2023 68.035 22 61.625 22ZM67.4375 68.4C67.4375 71.5973 64.8306 74.2 61.625 74.2H38.375C35.1694 74.2 32.5625 71.5973 32.5625 68.4V33.6C32.5625 30.4028 35.1694 27.8 38.375 27.8H61.625C64.8306 27.8 67.4375 30.4028 67.4375 33.6V68.4Z" fill="#FF5D00"/>
<path d="M47.0938 36.4992H52.9062C54.5111 36.4992 55.8125 35.202 55.8125 33.5992C55.8125 31.9964 54.5111 30.6992 52.9062 30.6992H47.0938C45.4889 30.6992 44.1875 31.9964 44.1875 33.5992C44.1875 35.202 45.4889 36.4992 47.0938 36.4992Z" fill="#FF5D00"/>
</svg>
