<svg width="100" height="100" viewBox="0 0 100 100" fill="none" xmlns="http://www.w3.org/2000/svg">
<g id="Group 6">
<path id="Ellipse 1" d="M100 50C100 77.6142 77.6142 100 50 100C22.3858 100 0 77.6142 0 50C0 22.3858 22.3858 0 50 0C77.6142 0 100 22.3858 100 50Z" fill="#FF5D00" fill-opacity="0.1"/>
<path id="Vector" fill-rule="evenodd" clip-rule="evenodd" d="M25 52.5558V61.4081C26.0425 61.2393 26.9914 60.7011 27.6764 59.8899C28.3614 59.0787 28.7376 58.0476 28.7376 56.9817C28.7376 55.9157 28.3614 54.8846 27.6764 54.0734C26.9914 53.2622 26.0425 52.7245 25 52.5558ZM25 45.5045H25.8568C25.8626 45.5045 25.8683 45.5058 25.8736 45.5082C25.8789 45.5106 25.8837 45.514 25.8876 45.5183C25.8919 45.5224 25.8953 45.5273 25.8977 45.5328C25.9 45.5382 25.9013 45.5441 25.9013 45.55V47.3613C25.9016 47.5303 25.9616 47.6937 26.0704 47.8222C26.1793 47.9506 26.33 48.0356 26.4954 48.0619C26.9335 48.1719 27.3629 48.3147 27.78 48.4892C27.7914 48.4944 27.8034 48.499 27.8148 48.5031C28.2377 48.6831 28.6465 48.8951 29.0378 49.1374C29.172 49.2202 29.3299 49.255 29.4861 49.2363C29.6424 49.2176 29.7878 49.1464 29.8991 49.0342L31.1689 47.7528C31.173 47.7487 31.1779 47.7454 31.1833 47.7432C31.1887 47.741 31.1945 47.74 31.2003 47.7402C31.2062 47.74 31.2121 47.741 31.2176 47.7432C31.2231 47.7454 31.2281 47.7486 31.2323 47.7528L33.4394 49.9811C33.4434 49.9854 33.4465 49.9904 33.4486 49.996C33.4506 50.0015 33.4516 50.0074 33.4514 50.0133C33.4516 50.0253 33.4473 50.0368 33.4394 50.0456L32.1702 51.3264C32.053 51.4448 31.981 51.6013 31.967 51.7681C31.953 51.9349 31.9979 52.1014 32.0937 52.2381C32.3288 52.6306 32.5342 53.0404 32.7083 53.4641C32.8885 53.9034 33.0346 54.3563 33.1452 54.8186C33.1821 54.9728 33.2694 55.11 33.3928 55.2081C33.5163 55.3062 33.6689 55.3596 33.8261 55.3595H35.6208C35.6326 55.3599 35.6438 55.3649 35.6522 55.3733C35.6606 55.3818 35.6655 55.3931 35.6659 55.4051V58.5565C35.6654 58.5683 35.6605 58.5794 35.6522 58.5876C35.6439 58.5962 35.6326 58.6012 35.6208 58.6015H33.8267C33.6594 58.6016 33.4976 58.6619 33.3704 58.7716C33.2432 58.8813 33.1589 59.0332 33.1327 59.2C33.0236 59.6434 32.882 60.0778 32.7088 60.4998C32.5289 60.939 32.315 61.3632 32.0691 61.7685C31.9873 61.904 31.953 62.0634 31.9716 62.2209C31.9902 62.3785 32.0608 62.5252 32.1719 62.6375L33.4411 63.9188C33.4489 63.9278 33.4531 63.9392 33.4531 63.9511C33.4531 63.963 33.4489 63.9745 33.4411 63.9834L31.234 66.2116C31.2252 66.2194 31.2138 66.2237 31.202 66.2237C31.1903 66.2237 31.1789 66.2194 31.17 66.2116L29.8997 64.9309C29.7825 64.8126 29.6276 64.7399 29.4624 64.7258C29.2973 64.7117 29.1325 64.7569 28.9972 64.8536C28.2037 65.3368 27.3417 65.6948 26.4411 65.9152C26.2884 65.9525 26.1525 66.0406 26.0552 66.1652C25.9579 66.2899 25.905 66.4439 25.9048 66.6026V68.4139C25.9044 68.4257 25.8995 68.437 25.8913 68.4454C25.883 68.4538 25.8719 68.4588 25.8602 68.4594H25.0034V62.8411C26.4216 62.6674 27.7277 61.9754 28.6751 60.896C29.6224 59.8165 30.1455 58.4242 30.1455 56.9819C30.1455 55.5397 29.6224 54.1474 28.6751 53.0679C27.7277 51.9884 26.4216 51.2965 25.0034 51.1228V45.5039L25 45.5045ZM75 39.6341V72.7814C74.9996 72.8392 74.9767 72.8944 74.9363 72.9353C74.8959 72.9762 74.8413 72.9994 74.7841 73H25.2159C25.1587 72.9994 25.1041 72.9762 25.0637 72.9353C25.0233 72.8944 25.0004 72.8392 25 72.7814V69.8791H25.8568C26.2412 69.8782 26.6097 69.7236 26.8815 69.4491C27.1533 69.1746 27.3063 68.8026 27.3071 68.4144V67.1452C27.6497 67.0421 27.987 66.9214 28.3175 66.7836C28.6474 66.6452 28.9702 66.4898 29.2845 66.3183L30.1739 67.2167C30.4463 67.4907 30.8152 67.6445 31.1997 67.6445C31.5843 67.6445 31.9531 67.4907 32.2256 67.2167L34.4327 64.9885C34.7041 64.7135 34.8564 64.3411 34.8564 63.9528C34.8564 63.5646 34.7041 63.1922 34.4327 62.9172L33.5439 62.0176C33.7145 61.6993 33.8689 61.3725 34.0066 61.0384C34.143 60.706 34.2624 60.3667 34.3641 60.0218H35.6208C36.0053 60.0212 36.3739 59.8667 36.6458 59.5923C36.9177 59.3179 37.0708 58.9458 37.0716 58.5577V55.4062C37.071 55.018 36.918 54.6458 36.646 54.3712C36.374 54.0966 36.0054 53.9421 35.6208 53.9415H34.3641C34.2623 53.5967 34.1429 53.2574 34.0066 52.9249C33.8694 52.5905 33.7155 52.2633 33.5456 51.9446L34.4355 51.0461C34.707 50.7713 34.8595 50.3989 34.8595 50.0107C34.8595 49.6226 34.707 49.2502 34.4355 48.9754L32.2285 46.7472C31.9562 46.4728 31.5873 46.3187 31.2026 46.3187C30.8179 46.3187 30.449 46.4728 30.1767 46.7472L29.2868 47.6456C28.9864 47.4818 28.676 47.3321 28.3558 47.1964L28.3198 47.1802C27.9896 47.0421 27.6525 46.9214 27.3099 46.8187V45.55C27.3093 45.1618 27.1563 44.7897 26.8845 44.5152C26.6127 44.2407 26.2441 44.0861 25.8596 44.0853H25.0029V39.6335L75 39.6341ZM25 38.2144H75V29.2186C74.9996 29.1608 74.9767 29.1056 74.9363 29.0647C74.8959 29.0238 74.8413 29.0006 74.7841 29H25.2159C25.1587 29.0006 25.1041 29.0238 25.0637 29.0647C25.0233 29.1056 25.0004 29.1608 25 29.2186V38.2144ZM28.7385 34.4661C28.5521 34.4661 28.3734 34.3914 28.2417 34.2584C28.1099 34.1254 28.0359 33.9449 28.0359 33.7568C28.0359 33.5687 28.1099 33.3883 28.2417 33.2553C28.3734 33.1223 28.5521 33.0475 28.7385 33.0475H28.8527C29.039 33.0475 29.2177 33.1223 29.3495 33.2553C29.4812 33.3883 29.5553 33.5687 29.5553 33.7568C29.5553 33.9449 29.4812 34.1254 29.3495 34.2584C29.2177 34.3914 29.039 34.4661 28.8527 34.4661H28.7385ZM40.9175 34.4661C40.7311 34.4661 40.5524 34.3914 40.4207 34.2584C40.2889 34.1254 40.2149 33.9449 40.2149 33.7568C40.2149 33.5687 40.2889 33.3883 40.4207 33.2553C40.5524 33.1223 40.7311 33.0475 40.9175 33.0475H71.2615C71.4479 33.0475 71.6266 33.1223 71.7583 33.2553C71.8901 33.3883 71.9641 33.5687 71.9641 33.7568C71.9641 33.9449 71.8901 34.1254 71.7583 34.2584C71.6266 34.3914 71.4479 34.4661 71.2615 34.4661H40.9175ZM32.4489 34.4661C32.2626 34.4661 32.0839 34.3914 31.9521 34.2584C31.8204 34.1254 31.7464 33.9449 31.7464 33.7568C31.7464 33.5687 31.8204 33.3883 31.9521 33.2553C32.0839 33.1223 32.2626 33.0475 32.4489 33.0475H32.5632C32.7495 33.0475 32.9282 33.1223 33.06 33.2553C33.1917 33.3883 33.2657 33.5687 33.2657 33.7568C33.2657 33.9449 33.1917 34.1254 33.06 34.2584C32.9282 34.3914 32.7495 34.4661 32.5632 34.4661H32.4489ZM36.1617 34.4661C35.9754 34.4661 35.7967 34.3914 35.6649 34.2584C35.5331 34.1254 35.4591 33.9449 35.4591 33.7568C35.4591 33.5687 35.5331 33.3883 35.6649 33.2553C35.7967 33.1223 35.9754 33.0475 36.1617 33.0475H36.2759C36.4623 33.0475 36.641 33.1223 36.7727 33.2553C36.9045 33.3883 36.9785 33.5687 36.9785 33.7568C36.9785 33.9449 36.9045 34.1254 36.7727 34.2584C36.641 34.3914 36.4623 34.4661 36.2759 34.4661H36.1617ZM43.9699 44.2693C43.8491 44.3911 43.7739 44.5515 43.7571 44.723C43.7403 44.8946 43.7829 45.0667 43.8778 45.2101C43.9726 45.3534 44.1137 45.4592 44.2771 45.5092C44.4405 45.5593 44.616 45.5507 44.7738 45.4847C44.9316 45.4188 45.0618 45.2996 45.1423 45.1476C45.2228 44.9956 45.2486 44.8201 45.2153 44.651C45.182 44.4819 45.0916 44.3297 44.9596 44.2204C44.8276 44.111 44.6622 44.0513 44.4914 44.0513C44.3946 44.0512 44.2986 44.0704 44.2091 44.1078C44.1197 44.1452 44.0384 44.2001 43.9699 44.2693ZM45.0112 68.6445C44.8905 68.5226 44.7317 68.4466 44.5617 68.4297C44.3918 68.4127 44.2213 68.4558 44.0793 68.5515C43.9373 68.6472 43.8326 68.7897 43.783 68.9547C43.7334 69.1196 43.742 69.2968 43.8073 69.4561C43.8726 69.6154 43.9906 69.7469 44.1412 69.8281C44.2918 69.9094 44.4656 69.9355 44.6331 69.9018C44.8006 69.8682 44.9513 69.777 45.0596 69.6437C45.1679 69.5105 45.2271 69.3434 45.2271 69.171C45.2273 69.0732 45.2083 68.9764 45.1712 68.886C45.1341 68.7957 45.0798 68.7136 45.0112 68.6445ZM49.0815 56.4575C48.961 56.3358 48.8023 56.2601 48.6327 56.2433C48.463 56.2264 48.2928 56.2695 48.1511 56.3651C48.0094 56.4608 47.9049 56.6031 47.8554 56.7678C47.806 56.9325 47.8146 57.1094 47.8799 57.2684C47.9452 57.4274 48.063 57.5586 48.2134 57.6397C48.3638 57.7208 48.5373 57.7467 48.7045 57.7131C48.8717 57.6795 49.0222 57.5884 49.1303 57.4553C49.2384 57.3223 49.2975 57.1555 49.2974 56.9834C49.2976 56.8857 49.2786 56.7889 49.2415 56.6987C49.2044 56.6084 49.1501 56.5264 49.0815 56.4575ZM46.5351 57.6932C46.7013 58.1754 47.0312 58.5827 47.4663 58.8427C47.9015 59.1027 48.4139 59.1987 48.9125 59.1136C49.4111 59.0286 49.8638 58.768 50.1902 58.3781C50.5167 57.9882 50.6958 57.4942 50.6958 56.9837C50.6958 56.4731 50.5167 55.9791 50.1902 55.5892C49.8638 55.1993 49.4111 54.9387 48.9125 54.8537C48.4139 54.7687 47.9015 54.8647 47.4663 55.1247C47.0312 55.3847 46.7013 55.7919 46.5351 56.2741H39.49C39.3071 56.2794 39.1334 56.3564 39.0058 56.4889C38.8783 56.6214 38.8069 56.7989 38.8069 56.9837C38.8069 57.1684 38.8783 57.3459 39.0058 57.4784C39.1334 57.6109 39.3071 57.688 39.49 57.6932H46.5351ZM42.4465 44.0842H36.9722C36.811 44.0839 36.6545 44.1399 36.5295 44.2427L34.3493 45.8441C34.1986 45.9543 34.0974 46.1204 34.068 46.306C34.0386 46.4915 34.0834 46.6812 34.1925 46.8334C34.3017 46.9855 34.4662 47.0877 34.65 47.1174C34.8337 47.1471 35.0217 47.1019 35.1724 46.9917L37.199 45.5039H42.4648C42.6309 45.9866 42.9611 46.3942 43.3966 46.6546C43.8321 46.9149 44.3449 47.0111 44.844 46.9261C45.3431 46.841 45.7962 46.5802 46.1229 46.19C46.4497 45.7998 46.629 45.3053 46.629 44.7943C46.629 44.2833 46.4497 43.7889 46.1229 43.3986C45.7962 43.0084 45.3431 42.7476 44.844 42.6626C44.3449 42.5775 43.8321 42.6737 43.3966 42.9341C42.9611 43.1944 42.6309 43.6021 42.4648 44.0847L42.4465 44.0842ZM42.4465 68.4594H37.199L35.173 66.9722C35.0984 66.9176 35.0138 66.8784 34.9242 66.8568C34.8346 66.8351 34.7417 66.8316 34.6507 66.8462C34.5597 66.8608 34.4724 66.8934 34.3939 66.9421C34.3154 66.9908 34.2472 67.0546 34.1931 67.1299C34.139 67.2052 34.1001 67.2906 34.0787 67.381C34.0573 67.4715 34.0537 67.5654 34.0682 67.6572C34.0828 67.7491 34.115 67.8372 34.1633 67.9164C34.2115 67.9957 34.2747 68.0646 34.3493 68.1192L36.5295 69.72C36.6545 69.8228 36.811 69.8789 36.9722 69.8786H42.4648C42.6309 70.3616 42.9611 70.7696 43.3969 71.0303C43.8326 71.2909 44.3457 71.3872 44.8451 71.3022C45.3446 71.2172 45.798 70.9563 46.125 70.5658C46.452 70.1754 46.6314 69.6806 46.6314 69.1693C46.6314 68.658 46.452 68.1632 46.125 67.7727C45.798 67.3823 45.3446 67.1214 44.8451 67.0363C44.3457 66.9513 43.8326 67.0477 43.3969 67.3083C42.9611 67.5689 42.6309 67.9769 42.4648 68.46L42.4465 68.4594Z" fill="#FF5D00"/>
</g>
</svg>
