<svg width="62" height="68" viewBox="0 0 62 68" fill="none" xmlns="http://www.w3.org/2000/svg">
<path opacity="0.4" d="M20.6182 10.4741H41.5033V5.61133H20.6182V10.4741ZM15.8673 5.81104V5.83525C14.2369 5.98352 12.6241 6.3073 11.055 6.79448V6.77633C10.9471 6.82172 10.8538 6.8429 10.7634 6.88829C10.638 6.91855 10.5155 6.96394 10.3988 7.02143C10.0547 7.13339 9.71052 7.26654 9.38678 7.4027C9.21471 7.46928 9.04264 7.55703 8.87056 7.6236C8.63433 7.73556 8.37767 7.86871 8.14144 7.98067L7.55814 8.31655C7.38606 8.4043 7.2344 8.51626 7.06233 8.61915C6.18446 9.185 5.37076 9.84769 4.6358 10.6012L4.59205 10.6465C4.33248 10.9491 4.07583 11.2275 3.83959 11.518L3.79584 11.5604C1.41014 14.8527 0.214376 18.9105 0.421448 23.0228V24.327H5.1316V23.0107C5.1316 17.2795 6.95734 13.7119 11.02 11.8842C12.5716 11.2275 14.2107 10.8221 15.8789 10.6738H15.9227V5.83222L15.8673 5.81104ZM58.212 11.5422L58.1916 11.4999C57.9495 11.1943 57.6899 10.9038 57.4158 10.6284L57.3895 10.583C56.6458 9.83559 55.8234 9.16987 54.9426 8.60099C54.7909 8.51021 54.6509 8.39825 54.4701 8.29839C54.2893 8.19854 54.0822 8.07447 53.8664 7.96251C53.6564 7.85055 53.3939 7.71741 53.1373 7.60544C52.9885 7.53887 52.8135 7.45112 52.624 7.38455C52.2944 7.24838 51.9765 7.11524 51.6353 7.00328C51.507 6.96091 51.399 6.91552 51.2707 6.87013C51.1424 6.82474 51.0724 6.80054 50.9791 6.75817V6.78238C49.4071 6.2952 47.7942 5.97445 46.1639 5.82315V10.6405C47.8117 10.7857 49.4275 11.1943 50.9528 11.8509C52.869 12.6376 54.4555 14.0871 55.4472 15.9541C56.4796 18.1358 56.9666 20.5506 56.8675 22.9774V24.327H61.5747V23.0107C61.7847 18.8984 60.5948 14.8375 58.212 11.5422Z" fill="#FF5D00"/>
<path d="M46.2985 2.43761V13.1528C46.2985 14.5029 45.2031 15.5964 43.8505 15.5964C42.498 15.5964 41.4025 14.5029 41.4025 13.1528V2.46205C41.3903 1.11196 42.4797 0.00927811 43.8322 5.69325e-05C45.1847 -0.00904894 46.2894 1.0753 46.2985 2.42539V2.43761ZM20.5944 2.47643V13.1652C20.5944 14.5211 19.4976 15.6205 18.1449 15.6205C16.7922 15.6205 15.6984 14.5211 15.6984 13.1652V2.47643C15.6984 1.12049 16.7922 0.0241346 18.1449 0.0241346C19.4976 0.0241346 20.5944 1.12049 20.5944 2.47643ZM61.5984 24.3302V50.6946C61.5984 62.1914 55.1778 68 42.4534 68H19.5143C6.81904 68 0.398438 62.1914 0.398438 50.6946V24.3302H61.5984ZM44.9924 48.4374C43.4165 48.4374 42.1615 49.7315 42.1615 51.3266C42.1907 52.9217 43.4456 54.2159 44.9924 54.2159C46.5392 54.2159 47.7941 52.9217 47.7941 51.3266C47.7941 49.7315 46.5392 48.4374 44.9924 48.4374ZM31.013 48.4073C29.4371 48.4374 28.1821 49.7315 28.1821 51.3266C28.1821 52.9217 29.4662 54.2159 31.013 54.2159C32.5598 54.2159 33.8147 52.9217 33.8147 51.2965C33.7856 49.7315 32.5598 48.4374 31.013 48.4073ZM17.0044 48.4073C15.4285 48.4073 14.1735 49.7315 14.2027 51.3266C14.2027 52.9217 15.4577 54.2159 17.0044 54.2159C18.5512 54.2159 19.8062 52.8916 19.8062 51.2965C19.8062 49.7014 18.5512 48.4073 17.0044 48.4073ZM44.9924 36.0978C43.4165 36.0978 42.1907 37.392 42.1907 38.9871C42.1907 40.5822 43.4456 41.8763 44.9924 41.8763C46.5392 41.8763 47.7941 40.5822 47.7941 38.9871C47.7941 37.392 46.5392 36.0978 44.9924 36.0978ZM31.013 36.0677C29.4371 36.0978 28.1821 37.392 28.1821 38.9871C28.1821 40.5822 29.4662 41.8763 31.013 41.8763C32.5598 41.8763 33.8147 40.5822 33.8147 38.957C33.8147 37.392 32.5598 36.0978 31.013 36.0677ZM17.0336 36.0677C15.4577 36.0677 14.2027 37.392 14.2027 38.9871C14.2027 40.5822 15.4577 41.8763 17.0044 41.8763C18.5804 41.8763 19.8353 40.5521 19.8062 38.957C19.8062 37.3619 18.5512 36.0677 17.0336 36.0677Z" fill="#FF5D00"/>
</svg>
