<svg width="60" height="60" viewBox="0 0 60 60" fill="none" xmlns="http://www.w3.org/2000/svg">
<path d="M47.4272 28.3816V36.0864C47.4272 39.9091 45.8861 43.5753 43.1428 46.2784C40.3996 48.9814 36.679 50.5 32.7994 50.5C28.9199 50.5 25.1993 48.9814 22.456 46.2784C19.7128 43.5753 18.1716 39.9091 18.1716 36.0864V34.3918C14.9214 33.8926 11.959 32.2654 9.81894 29.8038C7.67882 27.3422 6.50176 24.2081 6.5 20.9667V10.0798C6.50047 9.0268 6.76735 7.99055 7.27649 7.06476C7.78564 6.13897 8.52098 5.35286 9.416 4.77754C9.47961 3.76753 9.88346 2.80732 10.5636 2.04906C11.2436 1.2908 12.1611 0.777853 13.1705 0.591495C14.1799 0.405138 15.2236 0.55603 16.1362 1.02026C17.0487 1.48449 17.7779 2.23551 18.2083 3.15432C18.6387 4.07313 18.7456 5.10718 18.512 6.09262C18.2785 7.07807 17.7179 7.95854 16.9191 8.59453C16.1203 9.23053 15.1289 9.58567 14.1021 9.60368C13.0753 9.62169 12.0717 9.30155 11.2504 8.69397C10.9179 9.08145 10.7351 9.57233 10.7345 10.0798V20.9629C10.7345 23.4598 11.7411 25.8544 13.5329 27.62C15.3247 29.3856 17.7549 30.3774 20.2889 30.3774C22.8229 30.3774 25.2531 29.3856 27.0449 27.62C28.8367 25.8544 29.8433 23.4598 29.8433 20.9629V10.0798C29.8434 9.62818 29.699 9.18804 29.4305 8.82201C28.5785 9.38756 27.5594 9.65692 26.5344 9.58745C25.5095 9.51798 24.5374 9.11365 23.772 8.43846C23.0066 7.76327 22.4915 6.8558 22.3085 5.85971C22.1254 4.86363 22.2848 3.83583 22.7613 2.93902C23.2378 2.04222 24.0043 1.32765 24.9394 0.908427C25.8745 0.489209 26.9248 0.389296 27.924 0.624505C28.9232 0.859715 29.8142 1.41661 30.4561 2.20702C31.0979 2.99744 31.4538 3.97622 31.4675 4.98842C32.2766 5.57661 32.9343 6.3437 33.3876 7.22799C33.841 8.11227 34.0774 9.08907 34.0778 10.0798V20.9629C34.0761 24.2043 32.899 27.3384 30.7589 29.8C28.6188 32.2617 25.6565 33.8888 22.4062 34.388V36.0826C22.4062 38.7982 23.501 41.4026 25.4497 43.3229C27.3985 45.2431 30.0416 46.3218 32.7975 46.3218C35.5535 46.3218 38.1966 45.2431 40.1453 43.3229C42.0941 41.4026 43.1889 38.7982 43.1889 36.0826V28.3816C41.2682 27.8754 39.5998 26.6983 38.4947 25.0697C37.3896 23.4411 36.9231 21.4722 37.1821 19.5298C37.4412 17.5874 38.4082 15.8041 39.9029 14.5122C41.3975 13.2203 43.3179 12.508 45.3061 12.508C47.2943 12.508 49.2147 13.2203 50.7094 14.5122C52.2041 15.8041 53.171 17.5874 53.4301 19.5298C53.6892 21.4722 53.2227 23.4411 52.1176 25.0697C51.0124 26.6983 49.3441 27.8754 47.4234 28.3816H47.4272ZM49.2617 20.5864C49.2617 19.8155 49.0297 19.0619 48.595 18.421C48.1604 17.78 47.5426 17.2805 46.8198 16.9855C46.0971 16.6905 45.3017 16.6133 44.5344 16.7637C43.7672 16.914 43.0623 17.2853 42.5092 17.8303C41.956 18.3754 41.5792 19.0699 41.4266 19.826C41.274 20.582 41.3523 21.3657 41.6517 22.0779C41.9511 22.7901 42.4581 23.3988 43.1086 23.8271C43.759 24.2554 44.5238 24.484 45.3061 24.484C46.3552 24.483 47.3612 24.0721 48.1033 23.3415C48.8455 22.6109 49.2635 21.6201 49.2655 20.5864H49.2617Z" fill="#4361EE"/>
</svg>
