<svg width="113" height="51" viewBox="0 0 113 51" fill="none" xmlns="http://www.w3.org/2000/svg">
<path d="M9.43571 12.6598C9.3617 12.6207 9.3247 12.5426 9.25069 12.5036C8.0666 11.2929 7.14154 9.84784 6.58649 8.16848C6.43848 7.69982 6.32747 7.23116 6.32747 6.72345V6.56723C6.36448 5.9033 6.77151 5.59086 7.36355 5.74708C7.54857 5.78613 7.73358 5.86424 7.88159 5.98141C8.54764 6.3329 9.06568 6.84061 9.54672 7.42644C10.3978 8.40281 11.1008 9.57446 11.5819 10.8242C11.5819 10.8633 11.6189 10.9023 11.6189 10.9023C11.6189 10.9023 11.6559 10.9414 11.6929 10.9414C13.987 9.45729 16.6142 8.55903 19.3154 8.40281C19.2784 8.3247 19.2784 8.24659 19.2784 8.16848C19.0194 6.95778 18.9084 5.66897 19.0194 4.41921C19.0564 3.67717 19.2044 2.93513 19.4265 2.19308C19.5375 1.80254 19.7225 1.4901 19.9445 1.17766C20.0185 1.06049 20.1295 0.982384 20.2405 0.904274C20.4625 0.748055 20.7586 0.748055 20.9806 0.904274C21.2026 1.06049 21.3876 1.29482 21.5356 1.56821C21.7576 2.03687 21.9426 2.54458 22.0167 3.05229C22.2387 4.14583 22.3127 5.27842 22.2017 6.41101C22.1647 7.07494 22.0537 7.77793 21.8686 8.44186C22.5347 8.55903 23.2007 8.67619 23.8668 8.83241C24.5328 8.98863 25.1619 9.18391 25.7909 9.45729C26.42 9.69162 27.049 10.0041 27.6411 10.3165C28.2331 10.6289 28.7882 11.0195 29.3802 11.371C29.4172 11.3319 29.4172 11.2929 29.4542 11.2148C30.0833 9.37918 31.1563 7.73888 32.5624 6.45007C32.8955 6.13763 33.2655 5.9033 33.6725 5.74708C33.7835 5.70802 33.8945 5.66897 34.0056 5.66897C34.5976 5.59086 34.8566 5.98141 34.8936 6.48912C34.9306 6.84061 34.8936 7.19211 34.8196 7.5436C34.5976 8.44186 34.2646 9.26202 33.8205 10.0431C33.1915 11.1757 32.4144 12.1521 31.4524 12.9722C31.4154 13.0113 31.3784 13.0113 31.3413 13.0894C32.2664 14.0267 33.1175 15.0812 33.8575 16.2138C33.7835 16.2138 33.7465 16.2528 33.7095 16.2528H30.7123C30.6013 16.2528 30.4903 16.1747 30.4163 16.0966C28.2331 13.519 25.3099 11.8787 22.1277 11.371C21.2026 11.2148 20.2405 11.1757 19.2784 11.2538C16.4662 11.4491 13.728 12.5817 11.5449 14.4954C10.9898 14.964 10.4348 15.5108 9.95375 16.0966C9.87974 16.2138 9.73173 16.2919 9.58372 16.2919H6.51249C6.58649 16.0576 7.14154 15.1984 7.80759 14.4173C8.36263 13.7924 8.88067 13.2456 9.43571 12.6598ZM33.6355 35.6631C32.9695 36.6785 32.2294 37.5768 31.3784 38.436C31.4524 38.5141 31.4894 38.5532 31.5634 38.5922C33.0065 39.881 34.1166 41.5604 34.7456 43.4741C34.8936 43.9427 34.9676 44.4505 34.9676 44.9191C34.9676 45.0363 34.9306 45.1534 34.8936 45.3097C34.7826 45.6612 34.4496 45.8955 34.1166 45.8174C33.8945 45.7783 33.6725 45.7002 33.4875 45.6221C33.1915 45.4659 32.8955 45.2706 32.6364 45.0363C31.2303 43.7865 30.1573 42.1462 29.5282 40.3106C29.4912 40.2716 29.4912 40.1935 29.4542 40.1154C28.7142 40.6621 27.9371 41.1308 27.123 41.5213C26.309 41.9119 25.4579 42.2634 24.6068 42.4977C23.7188 42.732 22.8677 42.9273 21.9426 43.0445C21.9796 43.1226 21.9796 43.2007 21.9796 43.2788C22.2757 44.4895 22.3497 45.7393 22.2757 46.989C22.2387 47.7701 22.0907 48.5122 21.8686 49.2542C21.7576 49.5666 21.6096 49.84 21.4616 50.1525C21.3876 50.2696 21.3136 50.3477 21.2396 50.4649C20.8696 50.8945 20.4255 50.8945 20.0555 50.4649C19.9075 50.3087 19.7965 50.1134 19.6855 49.8791C19.3895 49.2933 19.2414 48.6684 19.1304 48.0044C18.9824 47.1062 18.9454 46.2079 18.9824 45.3097C19.0194 44.6457 19.0934 43.9818 19.2414 43.3569C19.2414 43.3179 19.2784 43.2398 19.2784 43.2007C19.2784 43.2007 19.2784 43.1616 19.2414 43.1226C16.5402 42.9664 13.95 42.1072 11.6189 40.584L11.5079 40.8184C10.8418 42.4587 9.87974 43.9037 8.62165 45.0363C8.28862 45.3487 7.91859 45.583 7.51156 45.7393C7.32655 45.8174 7.10453 45.8564 6.91952 45.8174C6.6975 45.7783 6.51249 45.6221 6.40148 45.3487C6.25347 44.9972 6.29047 44.6457 6.32747 44.2942C6.40148 43.7865 6.54949 43.3179 6.73451 42.8492C7.28955 41.4042 8.17761 40.1154 9.21369 39.0218C9.25069 38.9828 9.2877 38.9437 9.3617 38.9047C9.3617 38.8656 9.39871 38.8656 9.39871 38.8266C8.39963 37.8892 7.47456 36.8348 6.73451 35.6631C6.84551 35.6631 6.88252 35.6241 6.95652 35.6241H9.91674C10.0648 35.6241 10.1758 35.7022 10.2498 35.7803C11.3228 36.991 12.5809 37.9673 13.95 38.7094C15.3932 39.5295 16.9843 40.0373 18.6124 40.1935C23.0527 40.6621 26.864 39.2171 30.0463 35.8584C30.1943 35.7022 30.3793 35.585 30.6013 35.6241H33.5985L33.6355 35.6631ZM29.5282 20.4317C29.7872 20.4317 30.0463 20.4708 30.3053 20.4317C30.6013 20.3927 30.7863 20.5098 31.0083 20.7051C32.1924 21.8767 33.3765 23.0484 34.5976 24.22L34.7826 24.4153C34.8566 24.3372 34.9306 24.2981 35.0046 24.22C36.2257 23.0093 37.4838 21.7986 38.6679 20.5879C38.7789 20.4708 38.9269 20.4317 39.0749 20.4317H40V31.1327C39.852 31.1718 37.6688 31.2109 37.4098 31.1327V25.7041L37.3728 25.6651C36.5217 26.4852 35.6707 27.3444 34.8196 28.1646C33.9685 27.3054 33.1175 26.4852 32.2294 25.6651L32.1924 25.7041V31.1718H29.6022C29.5282 30.9765 29.4912 21.0566 29.5282 20.4317ZM5.77243 20.4317H8.32562C8.39963 20.627 8.39963 30.8984 8.32562 31.1327H5.77243C5.73543 30.4688 5.77243 29.7658 5.77243 29.1019V27.071H2.59019V31.0937C2.40518 31.1718 0.222017 31.1718 0 31.0937V20.4317H2.59019V24.22C2.77521 24.2981 5.47641 24.2981 5.77243 24.22V20.4317ZM11.3969 31.1327V20.4708C11.5449 20.4317 17.1693 20.3927 17.5393 20.4317V22.6969C17.4653 22.6969 17.3543 22.7359 17.2803 22.7359H13.987V24.4934H17.1323V26.8367H14.0241C13.95 27.032 13.95 28.438 13.987 28.8285C14.0611 28.8285 14.1721 28.8676 14.2461 28.8676H17.5393V31.1327H11.3969ZM20.4995 31.1327C20.4625 30.8594 20.4625 20.627 20.4995 20.4317H23.0527V28.3208C23.1637 28.3208 23.2377 28.3208 23.3488 28.3598H26.642V31.1718L20.4995 31.1327Z" fill="#0F1689"/>
<path d="M66.7614 32.7871V18.2417H68.5227V24.7189H76.2784V18.2417H78.0398V32.7871H76.2784V26.2814H68.5227V32.7871H66.7614ZM85.9126 33.0144C84.8615 33.0144 83.9548 32.7824 83.1925 32.3184C82.4349 31.8496 81.8501 31.1962 81.4382 30.3581C81.031 29.5153 80.8274 28.5352 80.8274 27.4178C80.8274 26.3004 81.031 25.3155 81.4382 24.4632C81.8501 23.6062 82.4231 22.9386 83.157 22.4604C83.8956 21.9775 84.7573 21.736 85.7422 21.736C86.3104 21.736 86.8714 21.8307 87.4254 22.0201C87.9794 22.2095 88.4837 22.5172 88.9382 22.9434C89.3928 23.3648 89.755 23.9235 90.0249 24.6195C90.2947 25.3155 90.4297 26.1725 90.4297 27.1905V27.9007H82.0206V26.4519H88.7251C88.7251 25.8364 88.602 25.2871 88.3558 24.8042C88.1143 24.3212 87.7687 23.94 87.3189 23.6607C86.8738 23.3813 86.3482 23.2417 85.7422 23.2417C85.0746 23.2417 84.4969 23.4074 84.0092 23.7388C83.5263 24.0655 83.1546 24.4917 82.8942 25.0172C82.6338 25.5428 82.5036 26.1062 82.5036 26.7076V27.6735C82.5036 28.4973 82.6456 29.1957 82.9297 29.7686C83.2185 30.3368 83.6186 30.7701 84.13 31.0684C84.6413 31.3619 85.2356 31.5087 85.9126 31.5087C86.353 31.5087 86.7507 31.4471 87.1058 31.324C87.4657 31.1962 87.7758 31.0068 88.0362 30.7559C88.2966 30.5002 88.4979 30.1829 88.6399 29.8042L90.2592 30.2587C90.0888 30.8079 89.8023 31.2909 89.3999 31.7076C88.9974 32.1195 88.5002 32.4415 87.9084 32.6735C87.3165 32.9007 86.6513 33.0144 85.9126 33.0144ZM94.6555 18.2417V32.7871H92.9794V18.2417H94.6555ZM97.7255 32.7871V21.878H99.3448V23.5826H99.4869C99.7141 23.0002 100.081 22.548 100.588 22.226C101.094 21.8993 101.703 21.736 102.413 21.736C103.133 21.736 103.732 21.8993 104.21 22.226C104.693 22.548 105.069 23.0002 105.339 23.5826H105.453C105.732 23.0191 106.151 22.5717 106.71 22.2402C107.269 21.9041 107.939 21.736 108.72 21.736C109.695 21.736 110.493 22.0414 111.113 22.6522C111.734 23.2582 112.044 24.2028 112.044 25.486V32.7871H110.368V25.486C110.368 24.681 110.147 24.1058 109.707 23.7601C109.267 23.4145 108.748 23.2417 108.152 23.2417C107.385 23.2417 106.79 23.4737 106.369 23.9377C105.948 24.397 105.737 24.9793 105.737 25.6848V32.7871H104.032V25.3155C104.032 24.6953 103.831 24.1957 103.429 23.8169C103.026 23.4334 102.508 23.2417 101.873 23.2417C101.438 23.2417 101.03 23.3577 100.652 23.5897C100.278 23.8217 99.9746 24.1436 99.7425 24.5556C99.5153 24.9628 99.4016 25.4339 99.4016 25.9689V32.7871H97.7255Z" fill="white"/>
</svg>
