<svg width="137" height="51" viewBox="0 0 137 51" fill="none" xmlns="http://www.w3.org/2000/svg">
<path d="M45.2305 5.58163C45.2305 2.92248 43.084 0.787109 40.411 0.787109H9.54997C6.87697 0.787109 4.73047 2.92248 4.73047 5.58163V45.9926C4.73047 48.6517 6.87697 50.7871 9.54997 50.7871H40.4515C43.1245 50.7871 45.271 48.6517 45.271 45.9926V5.58163H45.2305ZM43.6105 5.62192V45.63C43.6105 47.5236 42.193 49.1352 40.2895 49.1352H9.79297C7.88947 49.1352 6.35047 47.5236 6.35047 45.63V5.62192C6.35047 3.72829 7.92997 2.39871 9.79297 2.39871H40.249C42.1525 2.39871 43.651 3.84916 43.651 5.74279L43.6105 5.62192ZM14.0455 43.7766L19.756 38.0957L14.0455 32.4148V43.7766ZM19.7155 19.24V7.39468L14.086 7.43497C14.086 7.43497 14.1265 25.9281 14.167 25.8475C31.501 19.1191 30.2455 23.9136 30.2455 23.9136V43.8169L30.205 43.8975H35.5105V23.9539C35.5105 13.0353 19.7155 19.24 19.7155 19.24ZM27.4105 14.4857H33.4045C36.6445 10.4567 37.738 7.63642 37.738 7.63642H31.5415C31.5415 7.63642 29.557 12.0683 27.4105 14.4857Z" fill="#6762A6"/>
<path d="M71.7614 32.7871V18.2417H73.5227V24.7189H81.2784V18.2417H83.0398V32.7871H81.2784V26.2814H73.5227V32.7871H71.7614ZM90.9126 33.0144C89.8615 33.0144 88.9548 32.7824 88.1925 32.3184C87.4349 31.8496 86.8501 31.1962 86.4382 30.3581C86.031 29.5153 85.8274 28.5352 85.8274 27.4178C85.8274 26.3004 86.031 25.3155 86.4382 24.4632C86.8501 23.6062 87.4231 22.9386 88.157 22.4604C88.8956 21.9775 89.7573 21.736 90.7422 21.736C91.3104 21.736 91.8714 21.8307 92.4254 22.0201C92.9794 22.2095 93.4837 22.5172 93.9382 22.9434C94.3928 23.3648 94.755 23.9235 95.0249 24.6195C95.2947 25.3155 95.4297 26.1725 95.4297 27.1905V27.9007H87.0206V26.4519H93.7251C93.7251 25.8364 93.602 25.2871 93.3558 24.8042C93.1143 24.3212 92.7687 23.94 92.3189 23.6607C91.8738 23.3813 91.3482 23.2417 90.7422 23.2417C90.0746 23.2417 89.4969 23.4074 89.0092 23.7388C88.5263 24.0655 88.1546 24.4917 87.8942 25.0172C87.6338 25.5428 87.5036 26.1062 87.5036 26.7076V27.6735C87.5036 28.4973 87.6456 29.1957 87.9297 29.7686C88.2185 30.3368 88.6186 30.7701 89.13 31.0684C89.6413 31.3619 90.2356 31.5087 90.9126 31.5087C91.353 31.5087 91.7507 31.4471 92.1058 31.324C92.4657 31.1962 92.7758 31.0068 93.0362 30.7559C93.2966 30.5002 93.4979 30.1829 93.6399 29.8042L95.2592 30.2587C95.0888 30.8079 94.8023 31.2909 94.3999 31.7076C93.9974 32.1195 93.5002 32.4415 92.9084 32.6735C92.3165 32.9007 91.6513 33.0144 90.9126 33.0144ZM97.9794 32.7871V21.878H99.5987V23.5257H99.7124C99.9112 22.986 100.271 22.548 100.792 22.2118C101.313 21.8757 101.9 21.7076 102.553 21.7076C102.676 21.7076 102.83 21.7099 103.015 21.7147C103.2 21.7194 103.339 21.7265 103.434 21.736V23.4405C103.377 23.4263 103.247 23.405 103.043 23.3766C102.844 23.3435 102.634 23.3269 102.411 23.3269C101.881 23.3269 101.407 23.4382 100.991 23.6607C100.579 23.8785 100.252 24.1815 100.011 24.5698C99.7739 24.9533 99.6555 25.3913 99.6555 25.8837V32.7871H97.9794ZM109.521 33.0144C108.536 33.0144 107.672 32.78 106.928 32.3113C106.19 31.8425 105.612 31.1867 105.195 30.3439C104.783 29.5011 104.577 28.5163 104.577 27.3894C104.577 26.253 104.783 25.2611 105.195 24.4135C105.612 23.566 106.19 22.9078 106.928 22.4391C107.672 21.9703 108.536 21.736 109.521 21.736C110.505 21.736 111.367 21.9703 112.106 22.4391C112.849 22.9078 113.427 23.566 113.839 24.4135C114.255 25.2611 114.464 26.253 114.464 27.3894C114.464 28.5163 114.255 29.5011 113.839 30.3439C113.427 31.1867 112.849 31.8425 112.106 32.3113C111.367 32.78 110.505 33.0144 109.521 33.0144ZM109.521 31.5087C110.269 31.5087 110.884 31.3169 111.367 30.9334C111.85 30.5499 112.208 30.0456 112.44 29.4206C112.672 28.7956 112.788 28.1185 112.788 27.3894C112.788 26.6602 112.672 25.9808 112.44 25.351C112.208 24.7213 111.85 24.2123 111.367 23.824C110.884 23.4358 110.269 23.2417 109.521 23.2417C108.772 23.2417 108.157 23.4358 107.674 23.824C107.191 24.2123 106.834 24.7213 106.602 25.351C106.37 25.9808 106.254 26.6602 106.254 27.3894C106.254 28.1185 106.37 28.7956 106.602 29.4206C106.834 30.0456 107.191 30.5499 107.674 30.9334C108.157 31.3169 108.772 31.5087 109.521 31.5087ZM118.585 28.8098L118.556 26.736H118.897L123.67 21.878H125.744L120.659 27.0201H120.517L118.585 28.8098ZM117.022 32.7871V18.2417H118.699V32.7871H117.022ZM123.954 32.7871L119.693 27.3894L120.886 26.2246L126.085 32.7871H123.954ZM134.776 28.3269V21.878H136.452V32.7871H134.776V30.9405H134.663C134.407 31.4945 134.009 31.9656 133.469 32.3539C132.93 32.7374 132.248 32.9292 131.424 32.9292C130.742 32.9292 130.136 32.78 129.606 32.4817C129.076 32.1787 128.659 31.7241 128.356 31.1181C128.053 30.5073 127.901 29.7379 127.901 28.8098V21.878H129.577V28.6962C129.577 29.4917 129.8 30.1261 130.245 30.5996C130.695 31.0731 131.268 31.3098 131.964 31.3098C132.38 31.3098 132.804 31.2033 133.235 30.9902C133.671 30.7772 134.035 30.4505 134.329 30.0101C134.627 29.5698 134.776 29.0087 134.776 28.3269Z" fill="white"/>
</svg>
