<svg width="1600" height="1134" viewBox="0 0 1600 1134" fill="none" xmlns="http://www.w3.org/2000/svg">
<g clip-path="url(#clip0_7207_1103)">
<path opacity="0.5" d="M1468.59 331.438C1470.2 335.067 1471.79 338.713 1473.34 342.374L1472.89 342.569C1474.44 346.214 1475.96 349.875 1477.45 353.55L1477.91 353.363C1479.4 357.039 1480.87 360.73 1482.3 364.436L1481.84 364.616C1483.27 368.32 1484.67 372.038 1486.04 375.771L1486.51 375.598C1487.88 379.316 1489.22 383.049 1490.53 386.796L1490.06 386.96C1491.36 390.703 1492.64 394.459 1493.89 398.229L1494.36 398.072C1495.61 401.845 1496.83 405.632 1498.02 409.432L1497.54 409.581C1498.72 413.358 1499.87 417.149 1501 420.952L1501.47 420.812C1502.59 424.616 1503.68 428.434 1504.74 432.265L1504.26 432.397C1505.32 436.225 1506.35 440.066 1507.35 443.919L1507.83 443.794C1508.82 447.627 1509.79 451.471 1510.72 455.328L1510.23 455.445C1511.16 459.298 1512.06 463.162 1512.93 467.038L1513.42 466.929C1514.29 470.807 1515.12 474.697 1515.93 478.599L1515.45 478.7C1516.25 482.573 1517.02 486.458 1517.76 490.354L1518.24 490.261C1518.98 494.156 1519.69 498.062 1520.37 501.979H1520.37L1519.88 502.063C1520.55 505.978 1521.2 509.903 1521.81 513.838L1522.3 513.761C1522.91 517.671 1523.49 521.592 1524.04 525.522L1523.54 525.591C1524.09 529.513 1524.6 533.446 1525.09 537.389L1525.58 537.328C1526.06 541.273 1526.51 545.227 1526.93 549.191L1526.44 549.244C1526.85 553.177 1527.24 557.121 1527.59 561.072L1528.09 561.027C1528.44 564.972 1528.76 568.927 1529.05 572.89L1528.55 572.927C1528.84 576.887 1529.1 580.856 1529.32 584.834L1529.82 584.806C1530.05 588.759 1530.24 592.721 1530.4 596.69L1529.9 596.71C1530.06 600.662 1530.19 604.623 1530.28 608.591L1530.78 608.579C1530.88 612.55 1530.94 616.528 1530.97 620.515L1530.48 620.519C1530.49 622.51 1530.5 624.504 1530.5 626.5C1530.5 628.495 1530.49 630.489 1530.48 632.48L1530.97 632.483C1530.94 636.47 1530.88 640.449 1530.78 644.42L1530.28 644.408C1530.19 648.376 1530.06 652.337 1529.9 656.289L1530.4 656.309C1530.24 660.278 1530.05 664.24 1529.82 668.193L1529.32 668.166C1529.1 672.144 1528.84 676.113 1528.55 680.073L1529.05 680.108C1528.76 684.071 1528.44 688.026 1528.09 691.971L1527.59 691.928C1527.24 695.879 1526.85 699.822 1526.44 703.755L1526.93 703.807C1526.51 707.771 1526.06 711.726 1525.58 715.671L1525.09 715.611C1524.6 719.553 1524.09 723.486 1523.54 727.408L1524.04 727.477C1523.49 731.407 1522.91 735.328 1522.3 739.238L1521.81 739.162C1521.2 743.097 1520.55 747.022 1519.88 750.937L1520.37 751.021C1519.69 754.937 1518.98 758.843 1518.24 762.738L1517.76 762.646C1517.02 766.542 1516.25 770.427 1515.45 774.3L1515.93 774.399C1515.12 778.301 1514.29 782.192 1513.42 786.07L1512.93 785.962C1512.06 789.838 1511.16 793.702 1510.23 797.555L1510.72 797.671C1509.79 801.528 1508.82 805.373 1507.83 809.205L1507.35 809.08C1506.35 812.933 1505.32 816.774 1504.26 820.602L1504.74 820.734C1503.68 824.565 1502.59 828.383 1501.47 832.188L1501 832.047C1499.87 835.85 1498.72 839.642 1497.54 843.419L1498.02 843.567C1496.83 847.367 1495.61 851.154 1494.36 854.927L1493.89 854.771C1492.64 858.541 1491.37 862.297 1490.06 866.04L1490.53 866.203C1489.22 869.95 1487.88 873.683 1486.51 877.401L1486.04 877.229C1484.67 880.962 1483.27 884.68 1481.84 888.384L1482.3 888.562C1480.87 892.269 1479.4 895.959 1477.91 899.636L1477.45 899.449C1475.96 903.124 1474.44 906.785 1472.89 910.43L1473.35 910.624C1471.79 914.285 1470.2 917.931 1468.59 921.562L1468.13 921.359C1466.52 924.987 1464.88 928.598 1463.21 932.194L1463.66 932.403C1461.98 936.003 1460.28 939.588 1458.55 943.155L1458.1 942.938C1456.37 946.515 1454.61 950.075 1452.82 953.618L1453.26 953.843C1451.47 957.388 1449.65 960.916 1447.8 964.428L1447.36 964.196C1445.51 967.707 1443.64 971.202 1441.74 974.679L1442.17 974.917C1440.26 978.405 1438.33 981.876 1436.36 985.328L1435.93 985.082C1433.97 988.532 1431.98 991.965 1429.96 995.38L1430.39 995.633C1428.37 999.052 1426.32 1002.45 1424.25 1005.83L1423.82 1005.57C1421.75 1008.96 1419.64 1012.33 1417.51 1015.68L1417.93 1015.94C1415.8 1019.3 1413.65 1022.63 1411.46 1025.95L1411.05 1025.67C1408.86 1028.98 1406.65 1032.28 1404.42 1035.55L1404.83 1035.83C1402.58 1039.11 1400.32 1042.38 1398.03 1045.62L1397.62 1045.33C1395.33 1048.57 1393.01 1051.79 1390.67 1055L1391.07 1055.29C1388.73 1058.49 1386.36 1061.68 1383.96 1064.84L1383.56 1064.54C1381.17 1067.71 1378.74 1070.85 1376.3 1073.98L1376.69 1074.28C1374.24 1077.41 1371.77 1080.52 1369.27 1083.6L1368.88 1083.29C1366.38 1086.37 1363.86 1089.44 1361.32 1092.48L1361.7 1092.8C1359.15 1095.85 1356.57 1098.87 1353.97 1101.87L1353.6 1101.55C1351 1104.55 1348.38 1107.53 1345.74 1110.49L1346.11 1110.82C1343.46 1113.78 1340.79 1116.72 1338.1 1119.63L1337.73 1119.3C1335.04 1122.21 1332.32 1125.1 1329.58 1127.98L1329.94 1128.32C1327.2 1131.19 1324.43 1134.04 1321.65 1136.87L1321.29 1136.52C1318.51 1139.35 1315.7 1142.15 1312.87 1144.93L1313.21 1145.28C1310.38 1148.07 1307.53 1150.83 1304.65 1153.56L1304.3 1153.2C1301.43 1155.93 1298.53 1158.65 1295.61 1161.33L1295.95 1161.7C1293.02 1164.39 1290.08 1167.05 1287.11 1169.69L1286.78 1169.32C1283.82 1171.96 1280.83 1174.57 1277.83 1177.16L1278.15 1177.54C1275.14 1180.13 1272.11 1182.7 1269.06 1185.25L1268.74 1184.86C1265.7 1187.4 1262.63 1189.92 1259.54 1192.41L1259.85 1192.8C1256.76 1195.29 1253.65 1197.75 1250.52 1200.2L1250.21 1199.81C1247.08 1202.25 1243.93 1204.66 1240.76 1207.05L1241.06 1207.45C1237.89 1209.84 1234.71 1212.2 1231.5 1214.54L1231.2 1214.14C1228 1216.48 1224.77 1218.79 1221.53 1221.07L1221.81 1221.48C1218.56 1223.77 1215.3 1226.03 1212.01 1228.26L1211.73 1227.85C1208.45 1230.08 1205.15 1232.28 1201.84 1234.46L1202.11 1234.88C1198.79 1237.05 1195.45 1239.21 1192.1 1241.33L1191.83 1240.91C1188.48 1243.03 1185.11 1245.13 1181.72 1247.2L1181.98 1247.62C1178.59 1249.69 1175.19 1251.73 1171.76 1253.75L1171.51 1253.32C1168.09 1255.33 1164.66 1257.31 1161.2 1259.27L1161.45 1259.7C1157.99 1261.66 1154.52 1263.59 1151.03 1265.49L1150.79 1265.06C1147.31 1266.96 1143.81 1268.82 1140.3 1270.67L1140.53 1271.11C1137.01 1272.95 1133.48 1274.76 1129.93 1276.55L1129.71 1276.1C1126.16 1277.89 1122.6 1279.65 1119.02 1281.37L1119.24 1281.82C1115.67 1283.55 1112.08 1285.24 1108.48 1286.91L1108.27 1286.46C1104.67 1288.12 1101.06 1289.76 1097.43 1291.37L1097.63 1291.82C1094 1293.43 1090.35 1295.01 1086.68 1296.57L1086.49 1296.11C1082.84 1297.65 1079.18 1299.17 1075.5 1300.65L1075.69 1301.11C1072.01 1302.6 1068.32 1304.06 1064.61 1305.49L1064.43 1305.02C1060.73 1306.45 1057 1307.85 1053.27 1309.22L1053.44 1309.69C1049.72 1311.05 1045.99 1312.38 1042.24 1313.68L1042.08 1313.21C1038.33 1314.52 1034.57 1315.79 1030.8 1317.03L1030.96 1317.51C1027.18 1318.75 1023.39 1319.96 1019.59 1321.15L1019.45 1320.67C1015.67 1321.85 1011.88 1323 1008.07 1324.11L1008.21 1324.59C1004.4 1325.7 1000.59 1326.79 996.754 1327.85L996.622 1327.37C992.793 1328.42 988.951 1329.45 985.097 1330.44L985.221 1330.92C981.388 1331.91 977.542 1332.87 973.685 1333.8L973.568 1333.32C969.715 1334.24 965.85 1335.14 961.974 1336L962.081 1336.49C958.202 1337.36 954.311 1338.19 950.408 1338.99L950.308 1338.51C946.434 1339.3 942.549 1340.07 938.653 1340.81L938.745 1341.29C934.849 1342.03 930.944 1342.74 927.026 1343.41L926.941 1342.92C923.027 1343.59 919.102 1344.24 915.166 1344.85L915.241 1345.34C911.331 1345.94 907.41 1346.52 903.479 1347.06L903.412 1346.57C899.489 1347.12 895.556 1347.63 891.613 1348.11L891.673 1348.6C887.727 1349.08 883.772 1349.53 879.808 1349.95L879.757 1349.46C875.824 1349.87 871.881 1350.25 867.93 1350.6L867.973 1351.1C864.027 1351.45 860.073 1351.77 856.109 1352.06L856.074 1351.56C852.114 1351.85 848.145 1352.1 844.167 1352.33L844.193 1352.83C840.24 1353.05 836.279 1353.24 832.31 1353.4L832.29 1352.9C828.338 1353.06 824.377 1353.19 820.409 1353.28L820.42 1353.78C816.449 1353.88 812.471 1353.94 808.484 1353.97L808.481 1353.48C806.49 1353.49 804.496 1353.5 802.5 1353.5C800.505 1353.5 798.511 1353.49 796.52 1353.48L796.516 1353.97C792.529 1353.94 788.55 1353.88 784.579 1353.78L784.591 1353.28C780.623 1353.19 776.662 1353.06 772.71 1352.9L772.69 1353.4C768.721 1353.24 764.759 1353.05 760.806 1352.83L760.834 1352.33C756.856 1352.1 752.886 1351.85 748.926 1351.56L748.89 1352.06C744.927 1351.77 740.972 1351.45 737.027 1351.1L737.071 1350.6C733.12 1350.25 729.177 1349.87 725.244 1349.46L725.191 1349.95C721.227 1349.53 717.272 1349.08 713.326 1348.6L713.387 1348.11C709.444 1347.63 705.512 1347.12 701.589 1346.57L701.52 1347.06C697.589 1346.52 693.668 1345.94 689.758 1345.34L689.835 1344.85C685.899 1344.24 681.973 1343.59 678.059 1342.92L677.974 1343.41H677.973C674.055 1342.74 670.15 1342.03 666.254 1341.29L666.347 1340.81C662.451 1340.07 658.566 1339.3 654.692 1338.51L654.592 1338.99C650.689 1338.19 646.798 1337.36 642.918 1336.49L643.027 1336C639.151 1335.14 635.285 1334.24 631.432 1333.32L631.315 1333.8C627.458 1332.87 623.612 1331.91 619.779 1330.92L619.904 1330.44C616.05 1329.45 612.208 1328.42 608.379 1327.37L608.246 1327.85C604.415 1326.79 600.596 1325.7 596.79 1324.59L596.93 1324.11C593.125 1323 589.333 1321.85 585.555 1320.67L585.406 1321.15C581.605 1319.96 577.817 1318.75 574.042 1317.51L574.198 1317.03C570.426 1315.79 566.668 1314.52 562.924 1313.21L562.76 1313.68C559.012 1312.38 555.277 1311.05 551.558 1309.69L551.729 1309.22C547.995 1307.85 544.275 1306.45 540.569 1305.02L540.39 1305.49C536.682 1304.06 532.989 1302.6 529.311 1301.11L529.496 1300.65C525.819 1299.17 522.157 1297.65 518.511 1296.11L518.315 1296.57C514.652 1295.01 511.004 1293.43 507.371 1291.82L507.573 1291.37C503.943 1289.76 500.328 1288.12 496.729 1286.46L496.521 1286.91C492.918 1285.24 489.332 1283.55 485.762 1281.82L485.979 1281.38C482.399 1279.65 478.836 1277.89 475.29 1276.1L475.065 1276.55C471.517 1274.76 467.986 1272.95 464.471 1271.11L464.702 1270.67C461.188 1268.82 457.691 1266.96 454.211 1265.06L453.973 1265.49C450.482 1263.59 447.007 1261.66 443.551 1259.71L443.797 1259.27C440.343 1257.31 436.907 1255.33 433.488 1253.32L433.236 1253.75C429.814 1251.73 426.41 1249.69 423.023 1247.62L423.283 1247.2C419.893 1245.13 416.521 1243.03 413.168 1240.91L412.901 1241.33C409.546 1239.21 406.208 1237.06 402.89 1234.88L403.163 1234.46C399.846 1232.28 396.548 1230.08 393.269 1227.85L392.988 1228.26C389.702 1226.03 386.435 1223.77 383.188 1221.48L383.475 1221.07C380.229 1218.79 377.004 1216.48 373.798 1214.14L373.504 1214.54C370.294 1212.2 367.106 1209.84 363.937 1207.45L364.236 1207.05C361.066 1204.66 357.916 1202.25 354.787 1199.81L354.481 1200.2C351.35 1197.75 348.238 1195.29 345.147 1192.8L345.461 1192.41C342.372 1189.92 339.303 1187.4 336.256 1184.86L335.936 1185.25C332.884 1182.7 329.856 1180.13 326.848 1177.54L327.173 1177.16C324.166 1174.57 321.181 1171.96 318.218 1169.32L317.887 1169.69C314.921 1167.05 311.976 1164.39 309.054 1161.7L309.392 1161.33C306.471 1158.65 303.572 1155.94 300.695 1153.2L300.351 1153.56C297.472 1150.83 294.618 1148.07 291.785 1145.28L292.133 1144.93C289.301 1142.15 286.493 1139.35 283.707 1136.52L283.353 1136.87C280.565 1134.04 277.798 1131.19 275.057 1128.32L275.418 1127.98C272.678 1125.1 269.961 1122.21 267.269 1119.3L266.902 1119.63C264.208 1116.72 261.539 1113.78 258.893 1110.82L259.263 1110.49C256.618 1107.53 253.998 1104.55 251.401 1101.55L251.024 1101.87C248.426 1098.87 245.851 1095.85 243.302 1092.8L243.685 1092.48C241.138 1089.44 238.616 1086.38 236.119 1083.29L235.731 1083.6C233.233 1080.52 230.76 1077.41 228.312 1074.28L228.703 1073.98C226.256 1070.85 223.835 1067.71 221.438 1064.54L221.04 1064.84C218.644 1061.68 216.274 1058.49 213.929 1055.29L214.331 1055C211.988 1051.79 209.671 1048.57 207.38 1045.33L206.974 1045.62C204.681 1042.38 202.414 1039.11 200.174 1035.83L200.585 1035.55C198.349 1032.28 196.138 1028.98 193.954 1025.67L193.536 1025.95C191.352 1022.63 189.197 1019.3 187.065 1015.94L187.485 1015.68C185.356 1012.33 183.253 1008.96 181.177 1005.58L180.753 1005.83C178.679 1002.45 176.631 999.052 174.611 995.634L175.041 995.38C173.024 991.965 171.033 988.532 169.07 985.082L168.637 985.329C166.672 981.876 164.737 978.405 162.828 974.917L163.265 974.68C161.362 971.203 159.486 967.708 157.639 964.197L157.198 964.428C155.35 960.916 153.528 957.388 151.736 953.843L152.183 953.618C150.392 950.075 148.629 946.515 146.896 942.939L146.447 943.155C144.717 939.588 143.017 936.004 141.344 932.404L141.794 932.195C140.123 928.599 138.481 924.987 136.867 921.359L136.41 921.562C134.795 917.932 133.211 914.286 131.654 910.625L132.112 910.431C130.562 906.786 129.042 903.125 127.55 899.45L127.089 899.636C125.597 895.96 124.132 892.269 122.698 888.563L123.164 888.384C121.732 884.68 120.328 880.962 118.955 877.229L118.487 877.401C117.119 873.683 115.782 869.95 114.474 866.203L114.942 866.04C113.635 862.297 112.357 858.541 111.109 854.771L110.637 854.927C109.388 851.154 108.169 847.367 106.981 843.567L107.458 843.419C106.277 839.642 105.125 835.851 104.005 832.048L103.528 832.188C102.407 828.383 101.315 824.565 100.255 820.734L100.735 820.603C99.676 816.775 98.6473 812.934 97.6494 809.081L97.168 809.205C96.1753 805.372 95.2136 801.528 94.2822 797.671L94.7656 797.555C93.8353 793.702 92.936 789.838 92.0674 785.962L91.5801 786.07C90.711 782.192 89.8742 778.302 89.0674 774.4L89.5547 774.3C88.7537 770.427 87.9832 766.542 87.2441 762.646L86.7559 762.738C86.0169 758.843 85.3064 754.937 84.6299 751.021L85.123 750.937C84.447 747.022 83.8015 743.097 83.1885 739.162L82.6973 739.238C82.0881 735.328 81.5085 731.407 80.9619 727.477L81.4561 727.409C80.9106 723.487 80.3965 719.554 79.9141 715.611L79.4199 715.671C78.9371 711.726 78.4867 707.772 78.0674 703.808L78.5615 703.756C78.1455 699.823 77.7612 695.879 77.4082 691.928L76.9111 691.972C76.5588 688.027 76.2402 684.072 75.9512 680.109L76.4463 680.073C76.1574 676.113 75.9008 672.144 75.6758 668.166L75.1768 668.193C74.9531 664.24 74.7637 660.278 74.6035 656.309L75.0996 656.29C74.9401 652.338 74.8129 648.377 74.7168 644.409L74.2188 644.42C74.1226 640.449 74.0585 636.471 74.0264 632.484L74.5244 632.481C74.5083 630.49 74.5 628.496 74.5 626.5C74.5 624.505 74.5083 622.511 74.5244 620.52L74.0264 620.516C74.0585 616.529 74.1226 612.55 74.2188 608.579L74.7168 608.592C74.8129 604.624 74.9401 600.663 75.0996 596.711L74.6035 596.69C74.7637 592.721 74.9531 588.759 75.1768 584.806L75.6758 584.834C75.9008 580.856 76.1574 576.887 76.4463 572.927L75.9512 572.891C76.2402 568.928 76.5588 564.973 76.9111 561.028L77.4082 561.072C77.7612 557.121 78.1455 553.178 78.5615 549.245L78.0674 549.192C78.4867 545.228 78.9371 541.273 79.4199 537.328L79.9141 537.389C80.3965 533.447 80.9107 529.514 81.4561 525.592L80.9619 525.522C81.5085 521.592 82.0881 517.671 82.6973 513.761L83.1885 513.838C83.8015 509.903 84.4461 505.978 85.1221 502.063L84.6299 501.979C85.3064 498.062 86.0169 494.156 86.7559 490.261L87.2441 490.354C87.9831 486.458 88.7537 482.573 89.5547 478.7L89.0674 478.6C89.8743 474.698 90.7109 470.807 91.5801 466.929L92.0674 467.038C92.936 463.162 93.8353 459.298 94.7656 455.445L94.2822 455.328C95.2136 451.471 96.1753 447.626 97.168 443.794L97.6494 443.92C98.6473 440.067 99.6761 436.226 100.735 432.398L100.255 432.265C101.315 428.434 102.407 424.617 103.528 420.812L104.005 420.953C105.125 417.15 106.276 413.358 107.457 409.581L106.981 409.432C108.169 405.632 109.388 401.845 110.637 398.072L111.109 398.229C112.357 394.459 113.635 390.703 114.942 386.96L114.474 386.796C115.782 383.049 117.119 379.316 118.487 375.598L118.955 375.771C120.328 372.038 121.732 368.32 123.164 364.616L122.698 364.437C124.132 360.73 125.597 357.04 127.089 353.363L127.55 353.551C129.042 349.876 130.562 346.215 132.112 342.57L131.653 342.375C132.675 339.973 133.707 337.578 134.753 335.189L136.41 331.438L136.866 331.641C138.48 328.013 140.123 324.402 141.794 320.806L141.344 320.596C143.017 316.996 144.717 313.411 146.447 309.844L146.896 310.062C148.629 306.485 150.392 302.925 152.183 299.382L151.736 299.156C153.528 295.611 155.35 292.083 157.198 288.571L157.639 288.804C159.486 285.293 161.362 281.798 163.265 278.321L162.828 278.082C164.737 274.595 166.672 271.123 168.636 267.671L169.07 267.918C171.033 264.468 173.023 261.035 175.04 257.62L174.611 257.366C176.631 253.948 178.679 250.548 180.753 247.165L181.177 247.426C183.253 244.04 185.356 240.672 187.485 237.322L187.065 237.055C189.197 233.703 191.352 230.368 193.536 227.054L193.537 227.055L193.954 227.33C196.138 224.017 198.349 220.723 200.585 217.447L200.174 217.166C202.414 213.885 204.681 210.623 206.974 207.38L207.38 207.667C209.671 204.426 211.988 201.205 214.331 198.004L213.928 197.709C216.273 194.504 218.644 191.32 221.04 188.155L221.438 188.456C223.835 185.291 226.256 182.146 228.703 179.021L228.312 178.715C230.76 175.588 233.233 172.482 235.731 169.396L236.118 169.71C238.616 166.626 241.138 163.562 243.685 160.52L243.301 160.199C245.85 157.153 248.426 154.129 251.024 151.126L251.401 151.452C253.998 148.451 256.618 145.472 259.263 142.514L258.892 142.183C261.538 139.222 264.208 136.282 266.902 133.365L267.269 133.704C269.961 130.789 272.678 127.895 275.418 125.024L275.056 124.679C277.797 121.806 280.565 118.958 283.353 116.13L283.706 116.479C286.492 113.654 289.301 110.85 292.133 108.07L291.784 107.715C294.618 104.933 297.472 102.173 300.351 99.4375L300.695 99.7988C303.572 97.0651 306.471 94.3549 309.392 91.668L309.053 91.2998C311.975 88.6115 314.92 85.9485 317.886 83.3076L318.218 83.6797C321.181 81.0414 324.165 78.4262 327.172 75.8359L326.847 75.459C329.855 72.8669 332.884 70.2974 335.936 67.7539L336.256 68.1377C339.303 65.5976 342.371 63.0818 345.46 60.5908L345.147 60.2031C348.238 57.7111 351.35 55.2441 354.481 52.8018L354.787 53.1943C357.917 50.7537 361.066 48.3376 364.236 45.9473L363.937 45.5498C367.106 43.1602 370.294 40.7948 373.503 38.4561L373.798 38.8594C377.004 36.5231 380.229 34.2127 383.475 31.9277L383.188 31.5195C386.435 29.233 389.702 26.9728 392.988 24.7383L393.269 25.1504C396.548 22.9206 399.846 20.7164 403.163 18.5391L402.889 18.1221C406.207 15.9441 409.545 13.7939 412.9 11.6689L413.167 12.0889C416.52 9.96531 419.893 7.86884 423.283 5.79883L423.023 5.37402C426.409 3.30672 429.813 1.26627 433.235 -0.74707L433.488 -0.318359C436.907 -2.32957 440.343 -4.31378 443.797 -6.27051L443.55 -6.70508C447.006 -8.66326 450.481 -10.592 453.973 -12.4951L454.211 -12.0586C457.691 -13.9553 461.187 -15.8247 464.701 -17.666L464.471 -18.1064C467.986 -19.9485 471.517 -21.7647 475.065 -23.5508L475.29 -23.1045C478.836 -24.8893 482.399 -26.6457 485.979 -28.374L485.761 -28.8232C489.331 -30.5473 492.918 -32.2419 496.521 -33.9092L496.729 -33.458C500.328 -35.1236 503.943 -36.7609 507.573 -38.3691L507.37 -38.8252C511.003 -40.4346 514.652 -42.0149 518.315 -43.5664L518.511 -43.1074C522.157 -44.6517 525.819 -46.167 529.496 -47.6533L529.31 -48.1143C532.988 -49.6012 536.681 -51.0599 540.389 -52.4883L540.569 -52.0234C544.275 -53.4509 547.995 -54.8494 551.729 -56.2178L551.558 -56.6865C555.277 -58.0495 559.012 -59.3808 562.76 -60.6846L562.923 -60.2148C566.667 -61.5175 570.426 -62.7902 574.198 -64.0332L574.041 -64.5068C577.816 -65.7508 581.604 -66.9657 585.406 -68.1494L585.555 -67.6729C589.333 -68.8491 593.124 -69.9951 596.929 -71.1113L596.788 -71.5879C600.594 -72.7046 604.413 -73.7926 608.245 -74.8486L608.378 -74.3682C612.207 -75.4235 616.049 -76.4492 619.903 -77.4434L619.778 -77.9258C623.612 -78.9145 627.457 -79.8711 631.314 -80.7988L631.432 -80.3154C635.285 -81.2421 639.15 -82.1387 643.026 -83.0039L642.918 -83.4902C646.797 -84.356 650.688 -85.1904 654.591 -85.9941L654.692 -85.5059C658.566 -86.3036 662.451 -87.0716 666.347 -87.8076L666.254 -88.2949C670.15 -89.0309 674.055 -89.7403 677.973 -90.4141L677.974 -90.4131L678.059 -89.9209C681.973 -90.5942 685.898 -91.2361 689.834 -91.8467L689.758 -92.3379C693.668 -92.9446 697.589 -93.5211 701.52 -94.0654L701.588 -93.5723C705.511 -94.1155 709.444 -94.6269 713.387 -95.1074L713.326 -95.6025C717.272 -96.0834 721.227 -96.5316 725.191 -96.9492L725.243 -96.4551C729.176 -96.8694 733.119 -97.252 737.07 -97.6035L737.026 -98.1016C740.972 -98.4525 744.926 -98.7688 748.89 -99.0566L748.926 -98.5615C752.886 -98.8492 756.855 -99.105 760.833 -99.3291L760.806 -99.8271C764.759 -100.05 768.72 -100.24 772.689 -100.399L772.71 -99.9023C776.662 -100.061 780.623 -100.189 784.591 -100.284L784.579 -100.782C788.55 -100.878 792.528 -100.942 796.515 -100.974L796.519 -100.476C798.51 -100.492 800.504 -100.5 802.5 -100.5C804.495 -100.5 806.489 -100.492 808.48 -100.476L808.483 -100.974C812.47 -100.942 816.449 -100.878 820.42 -100.782L820.409 -100.284C824.377 -100.189 828.338 -100.061 832.29 -99.9023L832.309 -100.399C836.278 -100.24 840.24 -100.05 844.193 -99.8271L844.166 -99.3291C848.144 -99.105 852.114 -98.8492 856.074 -98.5615L856.109 -99.0566C860.072 -98.7688 864.027 -98.4525 867.972 -98.1016L867.929 -97.6035C871.88 -97.252 875.823 -96.8694 879.756 -96.4551L879.808 -96.9492C883.772 -96.5316 887.727 -96.0834 891.673 -95.6025L891.613 -95.1084C895.556 -94.6279 899.488 -94.1155 903.411 -93.5723L903.479 -94.0654C907.41 -93.5211 911.331 -92.9446 915.241 -92.3379L915.165 -91.8467C919.101 -91.236 923.027 -90.5942 926.941 -89.9209L927.026 -90.4131V-90.4141C930.944 -89.7403 934.849 -89.0309 938.745 -88.2949L938.653 -87.8076C942.549 -87.0716 946.434 -86.3046 950.308 -85.5068L950.407 -85.9941C954.31 -85.1904 958.201 -84.3561 962.081 -83.4902L961.973 -83.0039C965.849 -82.1387 969.715 -81.2421 973.568 -80.3154L973.684 -80.7988C977.541 -79.8712 981.387 -78.9145 985.22 -77.9258L985.096 -77.4434C988.95 -76.4492 992.792 -75.4244 996.621 -74.3691L996.753 -74.8486C1000.58 -73.7927 1004.4 -72.7055 1008.21 -71.5889L1008.07 -71.1113C1011.87 -69.9951 1015.67 -68.8492 1019.45 -67.6729L1019.59 -68.1494C1023.39 -66.9658 1027.18 -65.7507 1030.96 -64.5068L1030.8 -64.0342C1034.57 -62.7912 1038.33 -61.5174 1042.08 -60.2148L1042.24 -60.6846C1045.99 -59.3808 1049.72 -58.0495 1053.44 -56.6865L1053.27 -56.2178C1057.01 -54.8494 1060.73 -53.4509 1064.43 -52.0234L1064.61 -52.4883C1068.32 -51.0599 1072.01 -49.6012 1075.69 -48.1143L1075.5 -47.6533C1079.18 -46.167 1082.84 -44.6517 1086.49 -43.1074L1086.68 -43.5664C1090.35 -42.015 1094 -40.4345 1097.63 -38.8252L1097.43 -38.3691C1101.06 -36.7609 1104.67 -35.1236 1108.27 -33.458L1108.48 -33.9092C1112.08 -32.242 1115.67 -30.5472 1119.24 -28.8232L1119.02 -28.375C1122.6 -26.6466 1126.16 -24.8894 1129.71 -23.1045L1129.93 -23.5508C1133.48 -21.7647 1137.01 -19.9485 1140.53 -18.1064L1140.3 -17.666C1143.81 -15.8246 1147.31 -13.9554 1150.79 -12.0586L1151.03 -12.4951C1154.52 -10.5923 1157.99 -8.66401 1161.45 -6.70605L1161.2 -6.27051C1164.66 -4.31379 1168.09 -2.32955 1171.51 -0.318359L1171.76 -0.748047C1175.19 1.26559 1178.59 3.30641 1181.98 5.37402L1181.72 5.79883C1185.11 7.86874 1188.48 9.96542 1191.83 12.0889L1192.1 11.668C1195.45 13.7929 1198.79 15.9432 1202.11 18.1211L1201.84 18.5391C1205.15 20.7164 1208.45 22.9207 1211.73 25.1504L1212.01 24.7383C1215.3 26.9727 1218.56 29.2331 1221.81 31.5195L1221.53 31.9268C1224.77 34.2117 1228 36.5231 1231.2 38.8594L1231.5 38.4551C1234.7 40.7941 1237.89 43.16 1241.06 45.5498L1240.76 45.9473C1243.93 48.3376 1247.08 50.7538 1250.21 53.1943L1250.52 52.8018C1253.65 55.2442 1256.76 57.711 1259.85 60.2031L1259.54 60.5908C1262.63 63.082 1265.7 65.5974 1268.74 68.1377L1269.06 67.7539C1272.11 70.2974 1275.14 72.8669 1278.15 75.459L1277.83 75.8359C1280.83 78.4263 1283.82 81.0413 1286.78 83.6797L1287.11 83.3076C1290.08 85.9483 1293.02 88.6117 1295.95 91.2998L1295.61 91.667C1298.53 94.354 1301.43 97.065 1304.3 99.7988L1304.65 99.4375C1307.53 102.173 1310.38 104.933 1313.21 107.715L1312.87 108.069C1315.7 110.849 1318.51 113.653 1321.29 116.479L1321.65 116.13C1324.43 118.957 1327.2 121.806 1329.94 124.679L1329.58 125.024C1332.32 127.895 1335.04 130.788 1337.73 133.703L1338.1 133.365C1340.79 136.282 1343.46 139.221 1346.11 142.182L1345.74 142.514C1348.38 145.472 1351 148.451 1353.6 151.452L1353.97 151.126C1356.57 154.129 1359.15 157.153 1361.7 160.198L1361.32 160.52C1363.86 163.562 1366.38 166.625 1368.88 169.709L1369.27 169.396C1371.77 172.481 1374.24 175.588 1376.69 178.715L1376.3 179.021C1378.74 182.146 1381.17 185.291 1383.56 188.456L1383.96 188.154C1386.36 191.319 1388.73 194.504 1391.07 197.709L1390.67 198.004C1393.01 201.205 1395.33 204.426 1397.62 207.667L1398.03 207.38C1400.32 210.623 1402.58 213.885 1404.83 217.166L1404.42 217.447C1406.65 220.722 1408.86 224.017 1411.05 227.33L1411.46 227.055V227.054C1413.65 230.368 1415.8 233.703 1417.93 237.055L1417.51 237.322C1419.64 240.671 1421.75 244.039 1423.82 247.425L1424.25 247.165C1426.32 250.547 1428.37 253.947 1430.39 257.365L1429.96 257.62C1431.98 261.035 1433.97 264.468 1435.93 267.918L1436.36 267.67C1438.33 271.123 1440.26 274.594 1442.17 278.082L1441.74 278.32C1443.64 281.797 1445.51 285.292 1447.36 288.803L1447.8 288.571C1449.65 292.083 1451.47 295.611 1453.26 299.156L1452.82 299.382C1454.61 302.925 1456.37 306.485 1458.1 310.061L1458.55 309.844C1460.28 313.411 1461.98 316.995 1463.66 320.595L1463.21 320.805C1464.88 324.401 1466.52 328.013 1468.13 331.641L1468.59 331.438Z" stroke="url(#paint0_linear_7207_1103)" stroke-dasharray="12 12"/>
<circle cx="802" cy="629" r="496.5" stroke="url(#paint1_linear_7207_1103)" stroke-width="95"/>
<circle opacity="0.5" cx="802" cy="630" r="449.5" stroke="white" stroke-dasharray="12 12"/>
<circle opacity="0.5" cx="808.5" cy="626.5" r="538" stroke="url(#paint2_linear_7207_1103)" stroke-dasharray="12 12"/>
<g style="mix-blend-mode:plus-lighter" filter="url(#filter0_f_7207_1103)">
<path d="M885.151 652L278 1110H1502L885.151 652Z" fill="url(#paint3_linear_7207_1103)"/>
</g>
<g style="mix-blend-mode:plus-lighter" filter="url(#filter1_f_7207_1103)">
<path d="M884.248 989L164 1110H1616L884.248 989Z" fill="#514BFF"/>
</g>
<g style="mix-blend-mode:plus-lighter" filter="url(#filter2_f_7207_1103)">
<path d="M886.783 989L484 1110H1296L886.783 989Z" fill="#514BFF"/>
</g>
<g style="mix-blend-mode:plus-lighter" filter="url(#filter3_f_7207_1103)">
<path d="M887.061 1060L519 1110H1261L887.061 1060Z" fill="#BBCEE2"/>
</g>
<g style="mix-blend-mode:plus-lighter" filter="url(#filter4_f_7207_1103)">
<path d="M886.863 1107L494 1134H1286L886.863 1107Z" fill="white"/>
</g>
<g filter="url(#filter5_f_7207_1103)">
<ellipse cx="455" cy="149" rx="455" ry="149" transform="matrix(1 0 0 -1 429 1286)" fill="white" fill-opacity="0.2"/>
</g>
</g>
<defs>
<filter id="filter0_f_7207_1103" x="-22" y="352" width="1824" height="1058" filterUnits="userSpaceOnUse" color-interpolation-filters="sRGB">
<feFlood flood-opacity="0" result="BackgroundImageFix"/>
<feBlend mode="normal" in="SourceGraphic" in2="BackgroundImageFix" result="shape"/>
<feGaussianBlur stdDeviation="150" result="effect1_foregroundBlur_7207_1103"/>
</filter>
<filter id="filter1_f_7207_1103" x="-136" y="689" width="2052" height="721" filterUnits="userSpaceOnUse" color-interpolation-filters="sRGB">
<feFlood flood-opacity="0" result="BackgroundImageFix"/>
<feBlend mode="normal" in="SourceGraphic" in2="BackgroundImageFix" result="shape"/>
<feGaussianBlur stdDeviation="150" result="effect1_foregroundBlur_7207_1103"/>
</filter>
<filter id="filter2_f_7207_1103" x="184" y="689" width="1412" height="721" filterUnits="userSpaceOnUse" color-interpolation-filters="sRGB">
<feFlood flood-opacity="0" result="BackgroundImageFix"/>
<feBlend mode="normal" in="SourceGraphic" in2="BackgroundImageFix" result="shape"/>
<feGaussianBlur stdDeviation="150" result="effect1_foregroundBlur_7207_1103"/>
</filter>
<filter id="filter3_f_7207_1103" x="319" y="860" width="1142" height="450" filterUnits="userSpaceOnUse" color-interpolation-filters="sRGB">
<feFlood flood-opacity="0" result="BackgroundImageFix"/>
<feBlend mode="normal" in="SourceGraphic" in2="BackgroundImageFix" result="shape"/>
<feGaussianBlur stdDeviation="100" result="effect1_foregroundBlur_7207_1103"/>
</filter>
<filter id="filter4_f_7207_1103" x="474" y="1087" width="832" height="67" filterUnits="userSpaceOnUse" color-interpolation-filters="sRGB">
<feFlood flood-opacity="0" result="BackgroundImageFix"/>
<feBlend mode="normal" in="SourceGraphic" in2="BackgroundImageFix" result="shape"/>
<feGaussianBlur stdDeviation="10" result="effect1_foregroundBlur_7207_1103"/>
</filter>
<filter id="filter5_f_7207_1103" x="-571" y="-12" width="2910" height="2298" filterUnits="userSpaceOnUse" color-interpolation-filters="sRGB">
<feFlood flood-opacity="0" result="BackgroundImageFix"/>
<feBlend mode="normal" in="SourceGraphic" in2="BackgroundImageFix" result="shape"/>
<feGaussianBlur stdDeviation="500" result="effect1_foregroundBlur_7207_1103"/>
</filter>
<linearGradient id="paint0_linear_7207_1103" x1="1318.5" y1="169" x2="36.5" y2="685.5" gradientUnits="userSpaceOnUse">
<stop stop-color="white"/>
<stop offset="1" stop-color="#999999" stop-opacity="0.56"/>
</linearGradient>
<linearGradient id="paint1_linear_7207_1103" x1="1264.48" y1="838.615" x2="402.179" y2="657.836" gradientUnits="userSpaceOnUse">
<stop stop-color="#5B6FFF"/>
<stop offset="1" stop-color="#09090B" stop-opacity="0"/>
</linearGradient>
<linearGradient id="paint2_linear_7207_1103" x1="808.5" y1="88" x2="342" y2="924" gradientUnits="userSpaceOnUse">
<stop stop-color="white"/>
<stop offset="1" stop-color="#999999" stop-opacity="0.75"/>
</linearGradient>
<linearGradient id="paint3_linear_7207_1103" x1="890" y1="1110" x2="890" y2="652" gradientUnits="userSpaceOnUse">
<stop stop-color="#111C27"/>
<stop offset="1" stop-color="#05080B" stop-opacity="0"/>
</linearGradient>
<clipPath id="clip0_7207_1103">
<rect width="1600" height="1134" fill="white"/>
</clipPath>
</defs>
</svg>
