<svg width="68" height="68" viewBox="0 0 68 68" fill="none" xmlns="http://www.w3.org/2000/svg">
<path d="M34 0C24.9857 0.0100791 16.3436 3.59545 9.9695 9.9695C3.59545 16.3436 0.0100791 24.9857 0 34C0.0151033 43.0127 3.60209 51.652 9.97505 58.0249C16.348 64.3979 24.9873 67.9849 34 68C43.0174 68 51.6654 64.4179 58.0416 58.0416C64.4179 51.6654 68 43.0174 68 34C68 24.9826 64.4179 16.3346 58.0416 9.95837C51.6654 3.58213 43.0174 0 34 0ZM54.6802 53.6194C52.7707 49.7679 49.8228 46.5266 46.1692 44.2614C42.5156 41.9961 38.3016 40.7969 34.0028 40.7992C29.7039 40.8015 25.4912 42.0051 21.84 44.2742C18.1888 46.5433 15.2443 49.7876 13.3389 53.6411C8.25497 48.3684 5.42216 41.3244 5.44 34C5.44 26.4254 8.44899 19.1611 13.805 13.805C19.1611 8.44899 26.4254 5.44 34 5.44C41.5746 5.44 48.8389 8.44899 54.195 13.805C59.551 19.1611 62.56 26.4254 62.56 34C62.577 41.3142 59.7516 48.3489 54.6802 53.6194ZM34 13.6C31.5792 13.6 29.2127 14.3179 27.1998 15.6628C25.187 17.0078 23.6181 18.9194 22.6917 21.156C21.7653 23.3925 21.5229 25.8536 21.9952 28.2279C22.4675 30.6022 23.6332 32.7832 25.345 34.495C27.0568 36.2068 29.2378 37.3725 31.6121 37.8448C33.9864 38.3171 36.4475 38.0747 38.684 37.1483C40.9206 36.2219 42.8322 34.653 44.1772 32.6402C45.5221 30.6273 46.24 28.2608 46.24 25.84C46.24 24.2326 45.9234 22.641 45.3083 21.156C44.6932 19.6709 43.7916 18.3216 42.655 17.185C41.5184 16.0484 40.1691 15.1468 38.684 14.5317C37.199 13.9166 35.6074 13.6 34 13.6Z" fill="#FF5D00"/>
</svg>
