<svg width="58" height="68" viewBox="0 0 58 68" fill="none" xmlns="http://www.w3.org/2000/svg">
<path d="M1.71787 0C1.0841 0 0.574219 0.509887 0.574219 1.14365V66.8564C0.574219 67.4901 1.0841 68 1.71787 68H56.2829C56.9167 68 57.4265 67.4901 57.4265 66.8564V22.8386L34.8722 0H1.71787ZM34.8722 3.90307L53.5716 22.8386H35.7889C35.3204 22.8386 34.8722 22.4759 34.8722 21.9035V3.90307ZM18.1346 8.4089C22.7182 8.4089 26.4587 12.1494 26.4587 16.733C26.4586 18.8281 25.2534 20.589 23.8597 22.112C26.1215 23.2983 28.0476 25.0742 29.2296 27.4567C30.6084 30.2359 31.3966 33.3846 31.785 36.0604C31.8867 36.767 31.3392 37.4 30.6253 37.4011H5.85012C5.13622 37.4 4.58872 36.767 4.69043 36.0604C5.07949 33.3984 5.81999 30.2459 7.14961 27.4659C8.28717 25.0874 10.1845 23.3189 12.4347 22.1304C11.0274 20.6071 9.81136 18.8375 9.80819 16.733C9.80819 12.1494 13.551 8.4089 18.1346 8.4089ZM18.1346 10.7581C14.8194 10.7581 12.1574 13.4178 12.1574 16.733C12.1601 18.5609 13.0004 20.2877 14.4355 21.4199C15.1603 21.9988 14.9587 23.1501 14.0803 23.4482C12.0379 24.1393 10.439 26.0195 9.26273 28.4789C8.28592 30.5212 7.79704 32.8735 7.39255 35.0543H29.0645C28.6514 32.8844 28.1395 30.5409 27.1256 28.4972C25.9041 26.035 24.2493 24.1345 22.205 23.439C21.3297 23.1363 21.1335 21.9865 21.8589 21.4107C23.2859 20.2762 24.1095 18.5561 24.1095 16.733C24.1095 13.4178 21.4498 10.7581 18.1346 10.7581ZM35.9952 28.1511C36.0013 28.1511 36.0074 28.1511 36.0135 28.1511H50.2713C51.1455 28.1511 51.8894 28.8885 51.8894 29.7623V34.3002C51.8894 35.174 51.1453 35.9206 50.2713 35.9206H35.6652C34.791 35.9206 34.054 35.1741 34.054 34.3002V29.9778C34.054 29.5133 34.2499 28.9517 34.6613 28.6003C35.0728 28.2489 35.5644 28.1511 35.9952 28.1511ZM36.4031 30.498V33.5737H49.5425V30.498H36.4031ZM9.09083 41.318H24.0935C24.9676 41.318 25.7047 42.0622 25.7047 42.936V47.4762C25.7047 48.35 24.9675 49.0874 24.0935 49.0874H8.7608C7.88663 49.0874 7.14961 48.3515 7.14961 47.4762V43.1538C7.14961 42.0892 7.8024 41.4095 9.09083 41.318ZM31.8973 41.318H50.2713C51.1455 41.318 51.8894 42.0622 51.8894 42.936V47.4762C51.8894 48.35 51.1453 49.0874 50.2713 49.0874H31.5696C30.6954 49.0874 29.9584 48.3501 29.9584 47.4762V43.1538C29.9584 41.8963 30.4364 41.318 31.8973 41.318ZM9.4965 43.6648V46.7405H23.3578V43.6648H9.4965ZM32.3053 43.6648V46.7405H49.5425V43.6648H32.3053ZM9.09083 52.759H24.0935C24.9676 52.759 25.7047 53.5056 25.7047 54.3794V58.9196C25.7047 59.7933 24.9675 60.5308 24.0935 60.5308H8.7608C7.88663 60.5308 7.14961 59.7948 7.14961 58.9196V54.5971C7.14961 53.4728 7.80297 52.8525 9.09083 52.759ZM34.4252 52.759H49.8106C50.6848 52.759 51.4218 53.5056 51.4218 54.3794V58.9196C51.4218 59.7933 50.6846 60.5308 49.8106 60.5308H34.4871C33.613 60.5308 32.8691 59.7948 32.8691 58.9196V54.5971C32.8691 53.228 33.4735 52.8276 34.4252 52.759ZM9.4965 55.1082V58.1816H23.3578V55.1082H9.4965ZM35.2159 55.1082V58.1816H49.0749V55.1082H35.2159Z" fill="#FF5D00"/>
</svg>
