<svg width="40" height="37" viewBox="0 0 40 37" fill="none" xmlns="http://www.w3.org/2000/svg">
<path d="M34.1259 6.88706H5.87432C4.46942 6.88706 3.12206 7.44515 2.12865 8.43857C1.13524 9.43198 0.577148 10.7793 0.577148 12.1842V30.7243C0.577148 32.1292 1.13524 33.4766 2.12865 34.47C3.12206 35.4634 4.46942 36.0215 5.87432 36.0215H34.1259C35.5308 36.0215 36.8781 35.4634 37.8715 34.47C38.865 33.4766 39.423 32.1292 39.423 30.7243V12.1842C39.423 10.7793 38.865 9.43198 37.8715 8.43857C36.8781 7.44515 35.5308 6.88706 34.1259 6.88706ZM35.8916 30.7243C35.8916 31.1926 35.7056 31.6417 35.3744 31.9729C35.0433 32.304 34.5942 32.49 34.1259 32.49H5.87432C5.40602 32.49 4.9569 32.304 4.62576 31.9729C4.29462 31.6417 4.10859 31.1926 4.10859 30.7243V12.1842C4.10859 11.7159 4.29462 11.2668 4.62576 10.9357C4.9569 10.6045 5.40602 10.4185 5.87432 10.4185H34.1259C34.5942 10.4185 35.0433 10.6045 35.3744 10.9357C35.7056 11.2668 35.8916 11.7159 35.8916 12.1842V30.7243ZM11.1715 2.47275C11.1715 2.00446 11.3575 1.55534 11.6887 1.2242C12.0198 0.893062 12.4689 0.707031 12.9372 0.707031H27.063C27.5313 0.707031 27.9804 0.893062 28.3115 1.2242C28.6427 1.55534 28.8287 2.00446 28.8287 2.47275C28.8287 2.94105 28.6427 3.39017 28.3115 3.72131C27.9804 4.05245 27.5313 4.23848 27.063 4.23848H12.9372C12.4689 4.23848 12.0198 4.05245 11.6887 3.72131C11.3575 3.39017 11.1715 2.94105 11.1715 2.47275ZM21.7658 19.6885H25.2973V23.22H21.7658V26.7514H18.2344V23.22H14.7029V19.6885H18.2344V16.1571H21.7658V19.6885Z" fill="#4361EE"/>
</svg>
