<svg width="1440" height="276" viewBox="0 0 1440 276" fill="none" xmlns="http://www.w3.org/2000/svg">
<g clip-path="url(#clip0_11413_11916)">
<path d="M0 16C0 7.16344 7.16344 0 16 0H1424C1432.84 0 1440 7.16344 1440 16V260C1440 268.837 1432.84 276 1424 276H16C7.16349 276 0 268.837 0 260V16Z" fill="#070916"/>
<rect width="1600" height="1200" transform="translate(368 -86)" fill="url(#paint0_radial_11413_11916)"/>
<circle opacity="0.02" cx="1168" cy="472" r="650" fill="url(#paint1_radial_11413_11916)"/>
<circle opacity="0.05" cx="1168" cy="472" r="550" fill="url(#paint2_radial_11413_11916)"/>
<circle opacity="0.05" cx="1168" cy="472" r="450" fill="url(#paint3_radial_11413_11916)"/>
<circle opacity="0.1" cx="1168" cy="472" r="350" fill="url(#paint4_radial_11413_11916)"/>
<circle opacity="0.2" cx="1168" cy="472" r="250" fill="url(#paint5_radial_11413_11916)"/>
<g filter="url(#filter0_d_11413_11916)">
<circle cx="1168" cy="472" r="150" fill="#5871F0"/>
</g>
</g>
<defs>
<filter id="filter0_d_11413_11916" x="935" y="234" width="466" height="466" filterUnits="userSpaceOnUse" color-interpolation-filters="sRGB">
<feFlood flood-opacity="0" result="BackgroundImageFix"/>
<feColorMatrix in="SourceAlpha" type="matrix" values="0 0 0 0 0 0 0 0 0 0 0 0 0 0 0 0 0 0 127 0" result="hardAlpha"/>
<feMorphology radius="13" operator="dilate" in="SourceAlpha" result="effect1_dropShadow_11413_11916"/>
<feOffset dy="-5"/>
<feGaussianBlur stdDeviation="35"/>
<feComposite in2="hardAlpha" operator="out"/>
<feColorMatrix type="matrix" values="0 0 0 0 0.841346 0 0 0 0 0.933894 0 0 0 0 1 0 0 0 0.25 0"/>
<feBlend mode="normal" in2="BackgroundImageFix" result="effect1_dropShadow_11413_11916"/>
<feBlend mode="normal" in="SourceGraphic" in2="effect1_dropShadow_11413_11916" result="shape"/>
</filter>
<radialGradient id="paint0_radial_11413_11916" cx="0" cy="0" r="1" gradientUnits="userSpaceOnUse" gradientTransform="translate(800 600) rotate(90) scale(600 800)">
<stop stop-color="#002DFF"/>
<stop offset="1" stop-color="#070916"/>
</radialGradient>
<radialGradient id="paint1_radial_11413_11916" cx="0" cy="0" r="1" gradientUnits="userSpaceOnUse" gradientTransform="translate(1168 472) rotate(90) scale(650)">
<stop stop-color="white" stop-opacity="0"/>
<stop offset="1" stop-color="white"/>
</radialGradient>
<radialGradient id="paint2_radial_11413_11916" cx="0" cy="0" r="1" gradientUnits="userSpaceOnUse" gradientTransform="translate(1168 472) rotate(90) scale(550)">
<stop stop-color="white" stop-opacity="0"/>
<stop offset="1" stop-color="white"/>
</radialGradient>
<radialGradient id="paint3_radial_11413_11916" cx="0" cy="0" r="1" gradientUnits="userSpaceOnUse" gradientTransform="translate(1168 472) rotate(90) scale(450)">
<stop stop-color="white" stop-opacity="0"/>
<stop offset="1" stop-color="white"/>
</radialGradient>
<radialGradient id="paint4_radial_11413_11916" cx="0" cy="0" r="1" gradientUnits="userSpaceOnUse" gradientTransform="translate(1168 472) rotate(90) scale(350)">
<stop stop-color="white" stop-opacity="0"/>
<stop offset="1" stop-color="white"/>
</radialGradient>
<radialGradient id="paint5_radial_11413_11916" cx="0" cy="0" r="1" gradientUnits="userSpaceOnUse" gradientTransform="translate(1168 472) rotate(90) scale(250)">
<stop stop-color="white" stop-opacity="0"/>
<stop offset="1" stop-color="white"/>
</radialGradient>
<clipPath id="clip0_11413_11916">
<path d="M0 16C0 7.16344 7.16344 0 16 0H1424C1432.84 0 1440 7.16344 1440 16V260C1440 268.837 1432.84 276 1424 276H16C7.16349 276 0 268.837 0 260V16Z" fill="white"/>
</clipPath>
</defs>
</svg>
