<svg width="100" height="100" viewBox="0 0 100 100" fill="none" xmlns="http://www.w3.org/2000/svg">
<circle cx="50" cy="50" r="50" fill="#FF5D00" fill-opacity="0.1"/>
<path fill-rule="evenodd" clip-rule="evenodd" d="M53.3899 18L25.7797 45.4286H81L53.3899 18ZM69.4958 27.1429V31.0011L74.0975 35.504V27.1429H69.4958ZM30.3814 47.7143V55.9817C30.5125 56.2939 30.5723 56.6312 30.5563 56.9691C30.484 58.4489 30.8974 59.912 31.7343 61.1383L31.824 61.28L31.877 61.3783C32.0325 61.6465 32.1316 61.9433 32.1683 62.2507C32.2049 62.5581 32.1783 62.8697 32.0901 63.1665C32.0019 63.4634 31.8539 63.7394 31.6551 63.9777C31.4563 64.2161 31.2108 64.4119 30.9336 64.5531L30.3814 64.8343V65.36C31.5632 67.0893 33.0818 68.566 34.8474 69.7029L35.2293 68.9691C35.369 68.7004 35.561 68.4619 35.7942 68.2674C36.0274 68.073 36.2972 67.9264 36.5878 67.8363C36.8784 67.7461 37.1842 67.7142 37.4873 67.7423C37.7905 67.7704 38.085 67.858 38.3538 68C40.1163 68.928 41.2115 69.1886 43.135 69.2846C43.7239 69.3144 44.2787 69.5678 44.685 69.9922C45.0913 70.4167 45.3181 70.98 45.3185 71.5657V79.5977C45.3208 79.6739 45.3193 79.7502 45.3139 79.8263V79.8537C45.3967 81.4171 42.967 81.8834 42.0467 81.7737C37.9345 81.5519 33.9352 80.3576 30.3814 78.2903V82H48.7882V61.4743H57.9916V82H76.3983V47.7143H30.3814ZM20 56.8571C20.1084 62.8846 22.5694 68.6346 26.8638 72.8939C31.1582 77.1532 36.9501 79.5888 43.0177 79.6869V71.5726C40.8756 71.4651 39.2788 71.0743 37.2747 70.0183L35.701 73.0491L35.6665 73.0263C31.7274 71.2003 28.5669 68.0468 26.7461 64.1257H26.7369L29.8867 62.5211L29.8269 62.4229C28.7123 60.7849 28.1625 58.8319 28.26 56.8571H20Z" fill="#FF5D00"/>
</svg>
