<svg width="60" height="60" viewBox="0 0 60 60" fill="none" xmlns="http://www.w3.org/2000/svg">
<path d="M51.4 18.9275L31.4 5.42749C30.9866 5.14805 30.499 4.99872 30 4.99872C29.501 4.99872 29.0134 5.14805 28.6 5.42749L8.6 18.9275C8.26108 19.1566 7.98355 19.4653 7.79176 19.8267C7.59998 20.188 7.49979 20.5909 7.5 21V52.5C7.5 53.163 7.76339 53.7989 8.23223 54.2678C8.70107 54.7366 9.33696 55 10 55H50C50.663 55 51.2989 54.7366 51.7678 54.2678C52.2366 53.7989 52.5 53.163 52.5 52.5V21C52.5002 20.5909 52.4 20.188 52.2082 19.8267C52.0165 19.4653 51.7389 19.1566 51.4 18.9275ZM47.5 50H12.5V22.33L30 10.515L47.5 22.33V50ZM32.5 25V30H37.5V35H32.5V40H27.5V35H22.5V30H27.5V25H32.5Z" fill="#4361EE"/>
</svg>
