<svg width="100" height="100" viewBox="0 0 100 100" fill="none" xmlns="http://www.w3.org/2000/svg">
<path d="M100 50C100 77.6142 77.6142 100 50 100C22.3858 100 0 77.6142 0 50C0 22.3858 22.3858 0 50 0C77.6142 0 100 22.3858 100 50Z" fill="#FF5D00" fill-opacity="0.1"/>
<path d="M57.5195 47.0406L51.707 43.6902C50.8073 43.1749 49.7006 43.1749 48.8008 43.6902L42.9883 47.0406C42.0885 47.5588 41.5352 48.5161 41.5352 49.5526V56.2475C41.5352 57.284 42.0885 58.2413 42.9883 58.7595L48.8008 62.1099C49.2507 62.3677 49.7514 62.4979 50.2539 62.4979C50.7564 62.4979 51.2571 62.3677 51.707 62.1099L57.5195 58.7595C58.4193 58.2413 58.9727 57.284 58.9727 56.2475V49.5526C58.9727 48.5161 58.4193 47.5588 57.5195 47.0406ZM53.1602 54.5736L50.2539 56.2472L47.3477 54.5736V51.2262L50.2539 49.5526L53.1602 51.2262V54.5736Z" fill="#FF5D00"/>
<path d="M61.875 21H38.625C32.215 21 27 26.2023 27 32.6V67.4C27 73.7977 32.215 79 38.625 79H61.875C68.285 79 73.5 73.7977 73.5 67.4V32.6C73.5 26.2023 68.285 21 61.875 21ZM67.6875 67.4C67.6875 70.5973 65.0806 73.2 61.875 73.2H38.625C35.4194 73.2 32.8125 70.5973 32.8125 67.4V32.6C32.8125 29.4028 35.4194 26.8 38.625 26.8H61.875C65.0806 26.8 67.6875 29.4028 67.6875 32.6V67.4Z" fill="#FF5D00"/>
<path d="M47.3438 35.5002H53.1562C54.7611 35.5002 56.0625 34.203 56.0625 32.6002C56.0625 30.9974 54.7611 29.7002 53.1562 29.7002H47.3438C45.7389 29.7002 44.4375 30.9974 44.4375 32.6002C44.4375 34.203 45.7389 35.5002 47.3438 35.5002Z" fill="#FF5D00"/>
</svg>
