<svg width="100" height="100" viewBox="0 0 100 100" fill="none" xmlns="http://www.w3.org/2000/svg">
<circle cx="50" cy="50" r="50" fill="#FF5D00" fill-opacity="0.1"/>
<path d="M31.3333 72.25H46.75V75.3333H43.6667C41.8167 75.3333 40.5833 76.5667 40.5833 78.4167C40.5833 80.2667 41.8167 81.5 43.6667 81.5H56C57.85 81.5 59.0833 80.2667 59.0833 78.4167C59.0833 76.5667 57.85 75.3333 56 75.3333H52.9167V72.25H68.3333C75.1167 72.25 80.6667 66.7 80.6667 59.9167V38.3333C80.6667 31.55 75.1167 26 68.3333 26H31.3333C24.55 26 19 31.55 19 38.3333V59.9167C19 66.7 24.55 72.25 31.3333 72.25ZM68.3333 66.0833H31.3333C29.175 66.0833 27.0167 64.85 26.0917 63H73.575C72.65 64.85 70.4917 66.0833 68.3333 66.0833ZM31.3333 32.1667H68.3333C71.725 32.1667 74.5 34.9417 74.5 38.3333V56.8333H25.1667V38.3333C25.1667 34.9417 27.9417 32.1667 31.3333 32.1667Z" fill="#FF5D00"/>
<path d="M42.0917 53.575C42.7083 54.1917 43.325 54.5 44.25 54.5C45.175 54.5 45.7917 54.1917 46.4083 53.575C47.6417 52.3417 47.6417 50.4917 46.4083 49.2583L42.4 45.25L46.4083 41.2417C47.6417 40.0083 47.6417 38.1583 46.4083 36.925C45.175 35.6917 43.325 35.6917 42.0917 36.925L35.925 43.0917C34.6917 44.325 34.6917 46.175 35.925 47.4083L42.0917 53.575ZM54.425 53.575C55.0417 54.1917 55.9667 54.5 56.5833 54.5C57.2 54.5 58.125 54.1917 58.7417 53.575L64.9083 47.4083C66.1417 46.175 66.1417 44.325 64.9083 43.0917L58.7417 36.925C57.5083 35.6917 55.6583 35.6917 54.425 36.925C53.1917 38.1583 53.1917 40.0083 54.425 41.2417L58.4333 45.25L54.425 49.2583C53.1917 50.4917 53.1917 52.3417 54.425 53.575Z" fill="#FF5D00"/>
</svg>
