<svg width="100" height="101" viewBox="0 0 100 101" fill="none" xmlns="http://www.w3.org/2000/svg">
<circle cx="50" cy="50.5" r="50" fill="#FF5D00" fill-opacity="0.1"/>
<path d="M66.9613 22C64.2268 22.002 61.6049 23.0891 59.6714 25.0227C57.7379 26.9562 56.6507 29.5781 56.6488 32.3125C56.6524 35.0192 57.72 37.6159 59.6212 39.5424C61.5225 41.4688 64.1049 42.5706 66.8112 42.61H67.1C69.8064 42.5706 72.3888 41.4688 74.29 39.5424C76.1912 37.6159 77.2589 35.0192 77.2625 32.3125C77.2625 29.5794 76.1776 26.9581 74.246 25.0244C72.3145 23.0908 69.6943 22.003 66.9613 22ZM71.9113 27.67L73.235 28.9938L65.2738 36.9475C65.1872 37.0351 65.0842 37.1047 64.9706 37.1522C64.8569 37.1997 64.735 37.2242 64.6119 37.2242C64.4887 37.2242 64.3668 37.1997 64.2532 37.1522C64.1396 37.1047 64.0365 37.0351 63.95 36.9475L60.6838 33.685L62.0075 32.3575L64.6175 34.9563L71.9113 27.67ZM24.5487 29.485C24.1396 29.484 23.7468 29.6453 23.4565 29.9335C23.1662 30.2218 23.002 30.6134 23 31.0225V41.0725C23 41.92 23.6937 42.61 24.545 42.61H60.5075C58.7566 41.5208 57.3113 40.0042 56.3077 38.2029C55.304 36.4015 54.7749 34.3746 54.77 32.3125C54.77 31.3338 54.9125 30.3962 55.13 29.485H24.5487ZM27.6875 35.11H42.6875V36.985H27.6875V35.11ZM24.545 44.485C24.1365 44.485 23.7447 44.6467 23.4552 44.9349C23.1656 45.223 23.002 45.614 23 46.0225V56.0725C23 56.9238 23.6975 57.61 24.545 57.61H68.3375C68.7453 57.61 69.1363 57.448 69.4247 57.1597C69.713 56.8713 69.875 56.4803 69.875 56.0725V46.0225C69.875 45.6147 69.713 45.2237 69.4247 44.9353C69.1363 44.647 68.7453 44.485 68.3375 44.485H67.1075C67.0588 44.485 67.0138 44.5 66.9575 44.5C66.9087 44.5 66.8675 44.485 66.815 44.485H24.545ZM63.395 49.9225C64.01 49.9225 64.52 50.425 64.52 51.0475C64.52 51.6663 64.01 52.1725 63.395 52.1725C63.0966 52.1715 62.8106 52.0528 62.5993 51.8421C62.3879 51.6315 62.2682 51.3459 62.2663 51.0475C62.2663 50.425 62.7725 49.9225 63.3913 49.9225H63.395ZM27.6875 50.11H42.6875V51.985H27.6875V50.11ZM24.545 59.485C24.1365 59.485 23.7447 59.6467 23.4552 59.9349C23.1656 60.223 23.002 60.614 23 61.0225V71.0725C23 71.9238 23.6975 72.61 24.545 72.61H68.3375C68.7453 72.61 69.1363 72.448 69.4247 72.1597C69.713 71.8713 69.875 71.4803 69.875 71.0725V61.0225C69.875 60.6147 69.713 60.2237 69.4247 59.9353C69.1363 59.647 68.7453 59.485 68.3375 59.485H24.545ZM63.29 64.9225C63.5889 64.9225 63.8755 65.0412 64.0868 65.2526C64.2982 65.4639 64.4169 65.7505 64.4169 66.0494C64.4169 66.3482 64.2982 66.6349 64.0868 66.8462C63.8755 67.0575 63.5889 67.1763 63.29 67.1763C62.9906 67.1763 62.7035 67.0573 62.4919 66.8456C62.2802 66.634 62.1613 66.3469 62.1613 66.0475C62.1613 65.7481 62.2802 65.461 62.4919 65.2494C62.7035 65.0377 62.9906 64.9225 63.29 64.9225ZM27.6875 65.11H42.6875V66.985H27.6875V65.11Z" fill="#FF5D00"/>
</svg>
