<svg width="36" height="50" viewBox="0 0 36 50" fill="none" xmlns="http://www.w3.org/2000/svg">
<path d="M3.22802 45.9843L0 9.82715H35.4703L32.2389 45.9786L17.7135 50.0001L3.22802 45.9843Z" fill="#E34F26"/>
<path d="M17.7344 46.924L29.4716 43.6743L32.2331 12.7812H17.7344V46.924Z" fill="#EF652A"/>
<path d="M17.7363 26.1924H11.8603L11.4545 21.6514H17.7363V17.2168H17.7209H6.60156L6.70786 18.4065L7.79925 30.6269H17.7363V26.1924Z" fill="#EBEBEB"/>
<path d="M17.7386 37.7089L17.7192 37.7141L12.7737 36.3805L12.4576 32.8438H10.0545H8L8.62211 39.8066L17.7182 42.3283L17.7386 42.3226V37.7089Z" fill="#EBEBEB"/>
<path d="M3.29688 0H5.55348V2.22652H7.61775V0H9.87445V6.74243H7.61785V4.48467H5.55358V6.74243H3.29697L3.29688 0Z" fill="black"/>
<path d="M12.846 2.23589H10.8594V0H17.0903V2.23589H15.1028V6.74243H12.8461L12.846 2.23589Z" fill="black"/>
<path d="M18.0781 0H20.4312L21.8786 2.36909L23.3245 0H25.6784V6.74243H23.4311V3.40051L21.8786 5.79783H21.8398L20.2861 3.40051V6.74243H18.0781V0Z" fill="black"/>
<path d="M26.7969 0H29.0542V4.51377H32.2276V6.74243H26.7969V0Z" fill="black"/>
<path d="M17.7188 26.1934V30.6278H23.1867L22.6713 36.3791L17.7188 37.714V42.3276L26.822 39.808L26.8888 39.0588L27.9323 27.3842L28.0407 26.1934H26.844H17.7188Z" fill="white"/>
<path d="M17.7188 17.2168V19.971V21.6405V21.6514H28.4304H28.4447L28.5338 20.6546L28.7361 18.4065L28.8423 17.2168H17.7188Z" fill="white"/>
</svg>
