<svg width="166" height="51" viewBox="0 0 166 51" fill="none" xmlns="http://www.w3.org/2000/svg">
<path d="M6.65593 21.571C6.492 21.571 6.32806 21.5387 6.19691 21.4416L1.73788 18.886C1.31165 18.6595 1.11492 18.1743 1.27886 17.7214C1.44279 17.2361 2.00017 16.9773 2.49198 17.1714C2.55755 17.2038 2.59034 17.2038 2.65591 17.2361L7.11495 19.7918C7.57396 20.0506 7.7379 20.6005 7.54118 21.0534C7.31167 21.3769 7.01659 21.571 6.65593 21.571ZM14.3609 13.9688C14.033 13.9688 13.7051 13.7747 13.5412 13.5159L10.951 9.11632C10.7215 8.72812 10.7871 8.21052 11.1478 7.88702C11.5412 7.56352 12.1314 7.59587 12.492 7.98407C12.5248 8.01642 12.5576 8.08113 12.5904 8.11347L15.1806 12.5131C15.4429 12.9336 15.3445 13.4836 14.9183 13.8071C14.7543 13.9041 14.5576 13.9688 14.3609 13.9688ZM23.9675 10.1839V5.16964C23.9675 4.65204 24.3609 4.23149 24.8855 4.16679C25.4101 4.13444 25.8363 4.55499 25.8691 5.07259V5.10494V10.2486C25.8691 10.7662 25.4429 11.1867 24.9183 11.1867H24.8855C24.3609 11.122 23.9675 10.7015 23.9675 10.1839ZM35.4757 13.9688C35.279 13.9688 35.0823 13.9041 34.9511 13.8071C34.5577 13.5159 34.4265 12.966 34.6888 12.5131L37.279 8.11347C37.5413 7.66058 38.1315 7.49883 38.5577 7.75762C38.5905 7.78997 38.6561 7.82233 38.6888 7.85468C39.0495 8.17817 39.1151 8.69577 38.8856 9.08397L36.2954 13.4836C36.0987 13.7747 35.8036 13.9688 35.4757 13.9688ZM43.1807 21.571C42.82 21.571 42.4921 21.3769 42.3282 21.0858C42.0987 20.6329 42.2954 20.0506 42.7544 19.8241L47.1807 17.3008C47.5741 17.0744 48.0987 17.1391 48.3938 17.4626C48.7217 17.8508 48.6889 18.4331 48.2954 18.7889C48.2627 18.8213 48.1971 18.8536 48.1643 18.886L43.6397 21.474C43.5085 21.5387 43.3446 21.571 43.1807 21.571ZM12.9182 42.8896C6.29527 36.3549 6.29527 25.7441 12.9182 19.2095C19.5412 12.6748 30.2954 12.6748 36.9183 19.2095C37.4102 19.6947 37.8364 20.18 38.2626 20.6976C38.5577 21.0534 38.82 21.4416 39.0823 21.8298L37.5085 22.865C37.279 22.5092 37.0495 22.1857 36.7872 21.8622C36.4265 21.4093 36.0003 20.9564 35.5741 20.5358C29.6724 14.7128 20.1314 14.7128 14.2297 20.5358C8.32806 26.3588 8.32806 35.7726 14.2297 41.5956C14.2625 41.5632 12.9182 42.8896 12.9182 42.8896ZM37.0167 47.8067H10.8855C4.81986 47.7744 -0.0326218 42.8896 0.000165174 36.9048H1.90181C1.86903 41.8544 5.90183 45.8981 10.9182 45.9305H37.0167C43.1479 45.9305 48.0987 41.0456 48.0987 34.9962C48.0987 32.3112 47.0823 29.7232 45.279 27.7175L46.6889 26.4882C51.4758 31.7612 51.0168 39.8487 45.6725 44.5718C43.279 46.6421 40.197 47.8067 37.0167 47.8067ZM1.90181 36.9048H0.000165174C0.0329522 31.6642 3.90182 27.1999 9.14774 26.3264L9.47561 28.1704C5.11494 28.8821 1.9346 32.57 1.90181 36.9048ZM25.9347 34.9315H24.033C24.0986 27.8792 29.9347 22.1857 37.0823 22.218C40.7544 22.2504 44.2299 23.8032 46.6561 26.4882L45.2462 27.7175C41.1807 23.2209 34.1642 22.8327 29.6068 26.844C27.3118 28.9144 25.9675 31.8259 25.9347 34.9315Z" fill="url(#paint0_linear_5224_19472)"/>
<path d="M73.5227 18.2417V32.7871H71.7614V18.2417H73.5227ZM77.0543 32.7871V18.2417H82.1396C83.1528 18.2417 83.9885 18.4168 84.6467 18.7672C85.3048 19.1129 85.7949 19.5792 86.1168 20.1664C86.4388 20.7488 86.5998 21.3951 86.5998 22.1053C86.5998 22.7303 86.4885 23.2464 86.266 23.6536C86.0482 24.0608 85.7594 24.3828 85.3995 24.6195C85.0444 24.8562 84.6585 25.0314 84.2418 25.1451V25.2871C84.6869 25.3155 85.1344 25.4718 85.5842 25.7559C86.034 26.04 86.4104 26.4471 86.7134 26.9775C87.0165 27.5078 87.168 28.1564 87.168 28.9235C87.168 29.6526 87.0022 30.3084 86.6708 30.8908C86.3394 31.4732 85.8162 31.9348 85.1012 32.2757C84.3862 32.6167 83.4558 32.7871 82.31 32.7871H77.0543ZM78.8157 31.2246H82.31C83.4606 31.2246 84.2773 31.0021 84.7603 30.557C85.248 30.1072 85.4918 29.5627 85.4918 28.9235C85.4918 28.431 85.3664 27.9765 85.1154 27.5598C84.8645 27.1384 84.507 26.8023 84.043 26.5513C83.579 26.2956 83.0297 26.1678 82.3952 26.1678H78.8157V31.2246ZM78.8157 24.6337H82.0827C82.613 24.6337 83.0913 24.5295 83.5174 24.3212C83.9483 24.1129 84.2892 23.8193 84.5401 23.4405C84.7958 23.0617 84.9237 22.6167 84.9237 22.1053C84.9237 21.4661 84.7011 20.9239 84.256 20.4789C83.811 20.0291 83.1055 19.8042 82.1396 19.8042H78.8157V24.6337ZM90.0621 18.2417H92.1644L97.1076 30.3155H97.2781L102.221 18.2417H104.324V32.7871H102.676V21.736H102.534L97.9883 32.7871H96.3974L91.8519 21.736H91.7099V32.7871H90.0621V18.2417ZM125.185 22.7871H123.423C123.319 22.2805 123.137 21.8354 122.876 21.4519C122.621 21.0684 122.308 20.7464 121.939 20.486C121.574 20.2208 121.17 20.022 120.724 19.8894C120.279 19.7568 119.815 19.6905 119.332 19.6905C118.452 19.6905 117.654 19.9131 116.939 20.3581C116.229 20.8032 115.663 21.459 115.241 22.3255C114.825 23.1919 114.616 24.2549 114.616 25.5144C114.616 26.7739 114.825 27.8368 115.241 28.7033C115.663 29.5698 116.229 30.2256 116.939 30.6706C117.654 31.1157 118.452 31.3382 119.332 31.3382C119.815 31.3382 120.279 31.272 120.724 31.1394C121.17 31.0068 121.574 30.8103 121.939 30.5499C122.308 30.2847 122.621 29.9604 122.876 29.5769C123.137 29.1886 123.319 28.7435 123.423 28.2417H125.185C125.052 28.985 124.811 29.6503 124.46 30.2374C124.11 30.8245 123.674 31.324 123.153 31.736C122.633 32.1432 122.048 32.4533 121.399 32.6664C120.755 32.8794 120.066 32.986 119.332 32.986C118.092 32.986 116.989 32.6829 116.023 32.0769C115.057 31.4708 114.297 30.6091 113.743 29.4917C113.189 28.3742 112.912 27.0485 112.912 25.5144C112.912 23.9803 113.189 22.6545 113.743 21.5371C114.297 20.4197 115.057 19.5579 116.023 18.9519C116.989 18.3458 118.092 18.0428 119.332 18.0428C120.066 18.0428 120.755 18.1493 121.399 18.3624C122.048 18.5755 122.633 18.888 123.153 19.2999C123.674 19.7071 124.11 20.2042 124.46 20.7914C124.811 21.3738 125.052 22.039 125.185 22.7871ZM129.48 18.2417V32.7871H127.804V18.2417H129.48ZM136.982 33.0144C135.997 33.0144 135.133 32.78 134.389 32.3113C133.651 31.8425 133.073 31.1867 132.656 30.3439C132.244 29.5011 132.038 28.5163 132.038 27.3894C132.038 26.253 132.244 25.2611 132.656 24.4135C133.073 23.566 133.651 22.9078 134.389 22.4391C135.133 21.9703 135.997 21.736 136.982 21.736C137.966 21.736 138.828 21.9703 139.567 22.4391C140.31 22.9078 140.888 23.566 141.3 24.4135C141.716 25.2611 141.925 26.253 141.925 27.3894C141.925 28.5163 141.716 29.5011 141.3 30.3439C140.888 31.1867 140.31 31.8425 139.567 32.3113C138.828 32.78 137.966 33.0144 136.982 33.0144ZM136.982 31.5087C137.73 31.5087 138.345 31.3169 138.828 30.9334C139.311 30.5499 139.669 30.0456 139.901 29.4206C140.133 28.7956 140.249 28.1185 140.249 27.3894C140.249 26.6602 140.133 25.9808 139.901 25.351C139.669 24.7213 139.311 24.2123 138.828 23.824C138.345 23.4358 137.73 23.2417 136.982 23.2417C136.233 23.2417 135.618 23.4358 135.135 23.824C134.652 24.2123 134.295 24.7213 134.062 25.351C133.83 25.9808 133.714 26.6602 133.714 27.3894C133.714 28.1185 133.83 28.7956 134.062 29.4206C134.295 30.0456 134.652 30.5499 135.135 30.9334C135.618 31.3169 136.233 31.5087 136.982 31.5087ZM151.358 28.3269V21.878H153.034V32.7871H151.358V30.9405H151.245C150.989 31.4945 150.591 31.9656 150.051 32.3539C149.512 32.7374 148.83 32.9292 148.006 32.9292C147.324 32.9292 146.718 32.78 146.188 32.4817C145.658 32.1787 145.241 31.7241 144.938 31.1181C144.635 30.5073 144.483 29.7379 144.483 28.8098V21.878H146.159V28.6962C146.159 29.4917 146.382 30.1261 146.827 30.5996C147.277 31.0731 147.85 31.3098 148.546 31.3098C148.962 31.3098 149.386 31.2033 149.817 30.9902C150.253 30.7772 150.617 30.4505 150.911 30.0101C151.209 29.5698 151.358 29.0087 151.358 28.3269ZM160.224 33.0144C159.315 33.0144 158.512 32.7847 157.816 32.3255C157.12 31.8614 156.576 31.208 156.183 30.3652C155.79 29.5177 155.593 28.5163 155.593 27.361C155.593 26.2151 155.79 25.2208 156.183 24.378C156.576 23.5352 157.122 22.8842 157.823 22.4249C158.524 21.9656 159.334 21.736 160.252 21.736C160.962 21.736 161.523 21.8543 161.935 22.0911C162.352 22.3231 162.669 22.5882 162.887 22.8865C163.11 23.1801 163.282 23.4216 163.406 23.611H163.548V18.2417H165.224V32.7871H163.604V31.111H163.406C163.282 31.3098 163.107 31.5608 162.88 31.8638C162.653 32.1621 162.328 32.4296 161.907 32.6664C161.486 32.8984 160.924 33.0144 160.224 33.0144ZM160.451 31.5087C161.123 31.5087 161.692 31.3335 162.156 30.9831C162.62 30.628 162.972 30.138 163.214 29.513C163.455 28.8832 163.576 28.1564 163.576 27.3326C163.576 26.5182 163.458 25.8056 163.221 25.1948C162.984 24.5792 162.634 24.101 162.17 23.7601C161.706 23.4145 161.133 23.2417 160.451 23.2417C159.741 23.2417 159.149 23.4239 158.675 23.7885C158.207 24.1484 157.854 24.6384 157.617 25.2587C157.385 25.8742 157.269 26.5655 157.269 27.3326C157.269 28.1091 157.388 28.8146 157.624 29.449C157.866 30.0788 158.221 30.5807 158.69 30.9547C159.163 31.324 159.75 31.5087 160.451 31.5087Z" fill="white"/>
<defs>
<linearGradient id="paint0_linear_5224_19472" x1="37.7634" y1="7.3242" x2="13.0703" y2="50.6719" gradientUnits="userSpaceOnUse">
<stop stop-color="#50FFD2"/>
<stop offset="1" stop-color="#0064FF"/>
</linearGradient>
</defs>
</svg>
