<svg width="50" height="50" viewBox="0 0 50 50" fill="none" xmlns="http://www.w3.org/2000/svg">
<g clip-path="url(#clip0_2777_11455)">
<g clip-path="url(#clip1_2777_11455)">
<g clip-path="url(#clip2_2777_11455)">
<path d="M40.2727 18.8246C40.1415 18.8326 40.0109 18.8476 39.8814 18.8694C38.8699 15.7965 36.8837 13.116 34.2093 11.2143C31.5348 9.31257 28.3101 8.28789 25 8.28789C21.6899 8.28789 18.4652 9.31257 15.7907 11.2143C13.1163 13.116 11.1301 15.7965 10.1186 18.8694C9.98907 18.8476 9.85845 18.8326 9.72729 18.8246C7.0767 18.8246 5 21.5156 5 24.9516C5 28.387 7.0767 31.0779 9.72729 31.0779C10.7371 31.0673 11.704 30.6782 12.4276 29.9914C12.5904 29.8406 12.7015 29.6445 12.7457 29.4299C12.7899 29.2152 12.7652 28.9925 12.6747 28.7921C11.7175 26.6774 11.359 24.3512 11.6367 22.0557C11.6524 21.9205 11.6797 21.7891 11.6996 21.6551C11.755 21.2853 11.82 20.918 11.908 20.5575C12.5943 17.6736 14.2619 15.1012 16.6393 13.2595C19.0166 11.4177 21.9636 10.4152 25.0001 10.4152C28.0365 10.4152 30.9835 11.4177 33.3608 13.2595C35.7382 15.1012 37.4058 17.6736 38.0921 20.5575C38.1801 20.918 38.2451 21.2853 38.3005 21.6551C38.3204 21.7891 38.3477 21.9205 38.3634 22.0557C38.4223 22.5462 38.4528 23.0396 38.4545 23.5334C38.4544 23.9828 38.4308 24.4319 38.3839 24.8789C38.3668 25.0409 38.332 25.1974 38.3089 25.3578C38.2688 25.6379 38.2336 25.919 38.1751 26.1953C38.1421 26.3501 38.0931 26.4986 38.0547 26.6513C37.9844 26.929 37.9184 27.2077 37.8296 27.4809C37.7838 27.6225 37.7238 27.7576 37.6733 27.8971C37.5725 28.1734 37.4731 28.4504 37.3527 28.7215C36.3114 31.074 34.5872 33.0782 32.3923 34.4873C30.1975 35.8963 27.6279 36.6487 24.9999 36.6516H24.2727C23.5976 36.6516 22.9501 36.9131 22.4728 37.3786C21.9954 37.844 21.7272 38.4753 21.7272 39.1335C21.7272 39.7917 21.9954 40.423 22.4728 40.8884C22.9501 41.3538 23.5976 41.6153 24.2727 41.6153H27.1818C27.6061 41.6167 28.024 41.5143 28.3972 41.3175C28.7704 41.1207 29.087 40.8357 29.3181 40.4888C29.5492 40.1418 29.6873 39.7438 29.7198 39.3313C29.7523 38.9188 29.6782 38.505 29.5042 38.1277C33.4662 36.9574 36.7941 34.3092 38.7639 30.759C39.2388 30.966 39.7526 31.0746 40.2727 31.0779C42.9233 31.0779 45 28.387 45 24.9516C45 21.5156 42.9233 18.8246 40.2727 18.8246Z" fill="#4361EE"/>
<path d="M15.7272 34.1698H24.6867C27.5063 34.1994 30.2321 33.1832 32.3121 31.3271C34.3922 29.4709 35.6711 26.9134 35.8899 24.1724C36.0039 22.3714 35.6462 20.5717 34.8503 18.9427C34.0545 17.3136 32.8467 15.9087 31.3406 14.8601C29.8344 13.8115 28.0795 13.1536 26.2408 12.9485C24.4021 12.7433 22.5401 12.9975 20.8299 13.6873C19.1198 14.377 17.6177 15.4795 16.4649 16.8912C15.3121 18.3028 14.5466 19.9772 14.2404 21.7567C13.9341 23.5363 14.0972 25.3626 14.7142 27.0637C15.3313 28.7649 16.382 30.2851 17.7676 31.4813L15.3997 33.2126C15.3082 33.2796 15.2407 33.373 15.2066 33.4795C15.1725 33.586 15.1736 33.7003 15.2098 33.8062C15.2461 33.912 15.3155 34.0041 15.4083 34.0694C15.5012 34.1346 15.6127 34.1698 15.7272 34.1698ZM29.3636 22.1152C29.6513 22.1152 29.9325 22.1984 30.1717 22.3543C30.4109 22.5101 30.5973 22.7316 30.7074 22.9907C30.8175 23.2499 30.8463 23.535 30.7902 23.8101C30.734 24.0852 30.5955 24.3379 30.3921 24.5362C30.1887 24.7346 29.9295 24.8696 29.6473 24.9244C29.3652 24.9791 29.0727 24.951 28.8069 24.8437C28.5412 24.7363 28.314 24.5546 28.1542 24.3213C27.9943 24.0881 27.909 23.8139 27.909 23.5334C27.909 23.1573 28.0623 22.7966 28.335 22.5306C28.6078 22.2647 28.9778 22.1152 29.3636 22.1152ZM24.9999 22.1152C25.2876 22.1152 25.5688 22.1984 25.808 22.3543C26.0472 22.5101 26.2337 22.7316 26.3438 22.9907C26.4538 23.2499 26.4826 23.535 26.4265 23.8101C26.3704 24.0852 26.2319 24.3379 26.0284 24.5362C25.825 24.7346 25.5658 24.8696 25.2837 24.9244C25.0015 24.9791 24.7091 24.951 24.4433 24.8437C24.1775 24.7363 23.9503 24.5546 23.7905 24.3213C23.6307 24.0881 23.5454 23.8139 23.5454 23.5334C23.5454 23.1573 23.6986 22.7966 23.9714 22.5306C24.2442 22.2647 24.6142 22.1152 24.9999 22.1152ZM20.6363 22.1152C20.924 22.1152 21.2052 22.1984 21.4444 22.3543C21.6836 22.5101 21.87 22.7316 21.9801 22.9907C22.0902 23.2499 22.119 23.535 22.0629 23.8101C22.0068 24.0852 21.8682 24.3379 21.6648 24.5362C21.4614 24.7346 21.2022 24.8696 20.92 24.9244C20.6379 24.9791 20.3454 24.951 20.0796 24.8437C19.8139 24.7363 19.5867 24.5546 19.4269 24.3213C19.267 24.0881 19.1817 23.8139 19.1817 23.5334C19.1817 23.1573 19.335 22.7966 19.6078 22.5306C19.8805 22.2647 20.2505 22.1152 20.6363 22.1152Z" fill="#4361EE"/>
</g>
</g>
</g>
<defs>
<clipPath id="clip0_2777_11455">
<rect width="40" height="40" fill="white" transform="translate(5 5)"/>
</clipPath>
<clipPath id="clip1_2777_11455">
<rect width="40" height="40" fill="white" transform="translate(5 5)"/>
</clipPath>
<clipPath id="clip2_2777_11455">
<rect width="40" height="40" fill="white" transform="translate(5 5)"/>
</clipPath>
</defs>
</svg>
