<svg width="50" height="50" viewBox="0 0 50 50" fill="none" xmlns="http://www.w3.org/2000/svg">
<g clip-path="url(#clip0_1320_3328)">
<mask id="mask0_1320_3328" style="mask-type:luminance" maskUnits="userSpaceOnUse" x="0" y="0" width="50" height="50">
<path d="M50 0H0V50H50V0Z" fill="white"/>
</mask>
<g mask="url(#mask0_1320_3328)">
<path d="M41.1401 26.3569C41.1401 36.0606 33.2736 43.927 23.57 43.927C13.8663 43.927 5.99993 36.0606 5.99993 26.3569M5.99993 26.3569C5.99993 16.6533 13.8663 8.7869 23.57 8.7869M5.99993 26.3569H26.273" stroke="#4361EE" stroke-width="3" stroke-linecap="round" stroke-linejoin="round"/>
<path d="M23.5702 8.7869C19.511 13.7785 17.1444 19.9317 16.8125 26.3569C17.1444 32.7821 19.511 38.9354 23.5702 43.927C26.7659 39.9972 28.9126 35.3473 29.8432 30.4115" stroke="#4361EE" stroke-width="3" stroke-linecap="round" stroke-linejoin="round"/>
<path d="M26.1838 16.1288C25.1561 15.95 25.1561 14.4748 26.1838 14.296C29.9067 13.6483 32.8678 10.8127 33.6759 7.12117L33.7379 6.83821C33.9601 5.82257 35.4064 5.81625 35.6375 6.82991L35.7127 7.15967C36.5508 10.8337 39.5125 13.6455 43.2254 14.2914C44.2582 14.4711 44.2582 15.9538 43.2254 16.1335C39.5125 16.7794 36.5508 19.5911 35.7127 23.2652L35.6375 23.5949C35.4064 24.6086 33.9601 24.6023 33.7379 23.5867L33.6759 23.3037C32.8678 19.6122 29.9067 16.7765 26.1838 16.1288Z" fill="#4361EE"/>
</g>
</g>
<defs>
<clipPath id="clip0_1320_3328">
<rect width="50" height="50" fill="white"/>
</clipPath>
</defs>
</svg>
