<svg width="116" height="121" viewBox="0 0 116 121" fill="none" xmlns="http://www.w3.org/2000/svg">
<path d="M0 58C0 25.9675 25.9675 0 58 0C90.0325 0 116 25.9675 116 58V63C116 95.0325 90.0325 121 58 121C25.9675 121 0 95.0325 0 63V58Z" fill="#E8F2FC"/>
<g clip-path="url(#clip0_2610_11975)">
<path d="M88.2403 46.6112C87.3769 46.411 86.5175 46.9565 86.3173 47.8199C86.3095 47.8434 86.1682 48.3929 85.8111 49.2013C85.5835 49.1463 85.3519 49.1189 85.1086 49.1189C84.7515 49.1189 84.4061 49.1934 84.0844 49.3033L70.7885 36.0153C70.8238 35.8348 70.8513 35.6504 70.8513 35.462C70.8513 35.2697 70.8238 35.0852 70.7885 34.9008C71.8089 34.4103 72.5466 34.2062 72.6761 34.1709C73.5395 33.9746 74.0693 33.1152 73.8809 32.2479C73.6847 31.3845 72.8214 30.843 71.958 31.0392C71.9109 31.051 70.502 31.4002 68.6183 32.4716C68.3279 32.3853 68.0257 32.3225 67.7079 32.3225C65.9811 32.3225 64.5684 33.7274 64.5684 35.4581C64.5684 35.5012 64.5801 35.5366 64.5801 35.5758C62.8102 37.3771 61.0992 39.8534 59.9533 43.2166C58.9683 43.7464 58.2893 44.7746 58.2893 45.9715C58.2893 46.6465 58.5091 47.2666 58.8662 47.7767C58.4385 50.669 58.3757 54.0361 58.8701 57.9723L59.2508 61.2335C59.5844 64.8596 59.4274 68.0344 58.9879 70.8404C58.7838 70.8757 58.5954 70.9228 58.411 70.9895L49.4712 62.0537C49.5419 61.8692 49.585 61.6848 49.6204 61.4925C51.61 61.1981 54.3689 61.0451 56.5704 61.0647V57.8546C53.6272 57.8232 50.9743 58.1214 48.5451 58.6002C47.9996 58.145 47.305 57.8585 46.5319 57.8585C45.1662 57.8585 44.0163 58.7415 43.5846 59.958C40.7866 60.9509 38.4201 62.1871 36.5011 63.4586C36.3795 63.4429 36.2539 63.4233 36.1283 63.4233C34.5311 63.4233 33.2282 64.6163 33.028 66.1507C30.9206 68.054 29.8454 69.5885 29.7315 69.7808C29.347 70.4283 29.4686 71.225 29.9749 71.7351C30.0651 71.8215 30.1711 71.9078 30.2849 71.9824C31.0462 72.4337 32.0352 72.1904 32.4943 71.4329C32.5767 71.2956 33.1772 70.3655 34.3349 69.1293C34.6606 69.3609 35.0295 69.5218 35.4298 69.612L51.2843 85.4626C51.2843 85.7099 51.3196 85.9453 51.3706 86.169C50.1423 87.3267 49.2122 87.9232 49.0788 88.0096C48.3175 88.4648 48.0663 89.4498 48.5176 90.2151C48.5882 90.3328 48.6707 90.4388 48.7648 90.529C49.275 91.0392 50.0795 91.1569 50.7231 90.7723C50.8919 90.6821 52.0731 89.9325 53.6154 88.4687C53.8705 88.5394 54.1373 88.5865 54.416 88.5865C56.1505 88.5865 57.5555 87.1815 57.5555 85.4469C57.5555 84.9839 57.4495 84.5483 57.2729 84.148C58.6111 82.1819 59.8905 79.7291 60.8794 76.7466C61.9194 76.2364 62.6415 75.1807 62.6415 73.9367C62.6415 73.2656 62.4256 72.6456 62.0646 72.1354C62.6179 69.0705 62.8298 65.5817 62.5198 61.622C62.5198 61.622 62.304 58.3569 62.1666 58.3412C61.6761 54.9191 61.629 51.9876 61.8801 49.4524L71.0397 58.608C69.2109 58.7925 65.8359 58.8239 63.5598 58.6394L65.0864 61.9398C67.9119 62.0458 70.3922 61.8221 72.6291 61.3983C73.1588 61.8025 73.8142 62.0497 74.5245 62.0497C75.8588 62.0497 76.993 61.2178 77.4482 60.0483C80.6191 58.7925 83.013 57.0893 84.7986 55.3626C84.9045 55.3704 85.0105 55.394 85.1165 55.394C86.8432 55.394 88.252 53.989 88.252 52.2584C88.252 51.917 88.1893 51.5952 88.0872 51.2851C89.0526 49.7115 89.449 48.5773 89.4608 48.5341C89.6491 47.6708 89.1076 46.8074 88.2403 46.6112ZM54.8673 82.3467L39.2443 66.7276C39.2482 66.6687 39.26 66.6177 39.26 66.5589C39.26 66.3038 39.2207 66.0565 39.1658 65.8211C40.5746 64.8753 42.2739 63.9491 44.2753 63.1721C44.8483 63.7647 45.6449 64.1375 46.5319 64.1375C46.5633 64.1375 46.5947 64.1257 46.6221 64.1257L56.3585 73.87C56.3585 73.8896 56.3546 73.9132 56.3546 73.9328C56.3546 75.2514 57.167 76.3738 58.3168 76.8408C57.4652 79.0816 56.4449 80.9574 55.401 82.4762C55.2322 82.4212 55.0517 82.3741 54.8673 82.3467ZM64.5134 45.3868C64.4232 44.9001 64.2112 44.4606 63.9208 44.0839C64.7371 41.7253 65.8516 39.9122 67.0446 38.5269C67.2605 38.5701 67.4842 38.6015 67.7118 38.6015C67.9473 38.6015 68.1709 38.574 68.3868 38.523L81.9848 52.121C81.9848 52.1642 81.9691 52.2074 81.9691 52.2545C81.9691 53.059 82.2831 53.7889 82.7854 54.3422C81.3961 55.5235 79.5948 56.6262 77.2755 57.4425C76.8125 56.5752 75.9569 55.963 74.9484 55.8178L64.5134 45.3868Z" fill="#4361EE"/>
</g>
<defs>
<clipPath id="clip0_2610_11975">
<rect width="60" height="60" fill="white" transform="translate(29.5 31)"/>
</clipPath>
</defs>
</svg>
