<svg width="86" height="87" viewBox="0 0 86 87" fill="none" xmlns="http://www.w3.org/2000/svg">
<path d="M42.9987 52.4583V59.625M25.082 36.4365C26.7713 36.3333 28.8538 36.3333 31.532 36.3333H54.4654C57.1435 36.3333 59.2262 36.3333 60.9154 36.4365M25.082 36.4365C22.9739 36.5652 21.4782 36.8547 20.2016 37.5051C18.1789 38.5356 16.5343 40.18 15.5037 42.2028C14.332 44.5026 14.332 47.5126 14.332 53.5333V58.55C14.332 64.5707 14.332 67.5807 15.5037 69.8805C16.5343 71.9033 18.1789 73.5477 20.2016 74.5782C22.5012 75.75 25.5115 75.75 31.532 75.75H54.4654C60.4861 75.75 63.4961 75.75 65.7959 74.5782C67.8187 73.5477 69.463 71.9033 70.4936 69.8805C71.6654 67.5807 71.6654 64.5707 71.6654 58.55V53.5333C71.6654 47.5126 71.6654 44.5026 70.4936 42.2028C69.463 40.18 67.8187 38.5356 65.7959 37.5051C64.5191 36.8547 63.0234 36.5652 60.9154 36.4365M25.082 36.4365V29.1667C25.082 19.2716 33.1036 11.25 42.9987 11.25C52.8937 11.25 60.9154 19.2716 60.9154 29.1667V36.4365" stroke="black" stroke-width="5" stroke-linecap="round" stroke-linejoin="round"/>
</svg>
