<svg width="94" height="93" viewBox="0 0 94 93" fill="none" xmlns="http://www.w3.org/2000/svg">
<path d="M59.8538 77.5H79.9375C81.0076 77.5 81.875 78.3674 81.875 79.4375C81.875 80.5076 81.0076 81.375 79.9375 81.375H14.0625C12.9924 81.375 12.125 80.5076 12.125 79.4375C12.125 78.3674 12.9924 77.5 14.0625 77.5H46.9906L46.9972 77.5C52.1031 77.4926 57.0282 75.4972 60.7002 71.8252C68.2666 64.2588 68.2666 51.9912 60.7002 44.4248C59.2258 42.9505 57.573 41.7634 55.8112 40.8636C55.7378 40.8323 55.6659 40.7962 55.5958 40.7553C49.1409 37.5601 41.2757 38.1833 35.3709 42.625H41.1875C42.2576 42.625 43.125 43.4924 43.125 44.5625C43.125 45.6326 42.2576 46.5 41.1875 46.5H29.5625C28.4924 46.5 27.625 45.6326 27.625 44.5625V32.9375C27.625 31.8674 28.4924 31 29.5625 31C30.6326 31 31.5 31.8674 31.5 32.9375V40.7946C37.173 35.7117 44.7423 33.9022 51.7655 35.3659C51.2009 33.9268 50.875 32.417 50.875 31C50.875 24.5797 56.0797 19.375 62.5 19.375H63.635L63.0675 18.8075C62.3108 18.0509 62.3108 16.8241 63.0675 16.0675C63.8241 15.3108 65.0509 15.3108 65.8075 16.0675L69.6825 19.9425C70.4392 20.6991 70.4392 21.9259 69.6825 22.6825L65.8075 26.5575C65.0509 27.3142 63.8241 27.3142 63.0675 26.5575C62.3108 25.8009 62.3108 24.5741 63.0675 23.8175L63.635 23.25H62.5C58.2198 23.25 54.75 26.7198 54.75 31C54.75 33.175 56.0293 35.932 57.6628 37.4572C59.7435 38.5313 61.696 39.9405 63.4402 41.6848C72.5199 50.7645 72.5199 65.4855 63.4402 74.5652C62.333 75.6725 61.1307 76.6527 59.8538 77.5Z" fill="black"/>
</svg>
