<svg width="50" height="50" viewBox="0 0 50 50" fill="none" xmlns="http://www.w3.org/2000/svg">
<g clip-path="url(#clip0_2765_12740)">
<g clip-path="url(#clip1_2765_12740)">
<g clip-path="url(#clip2_2765_12740)">
<path d="M41.2857 8H8.71429C7.21464 8 6 9.24501 6 10.7821V33.8072C6 35.3443 7.21464 36.5893 8.71429 36.5893H19.5918L23.9414 42.148C24.4843 42.8422 25.5157 42.8422 26.0586 42.148L30.4082 36.5893H41.2857C42.7854 36.5893 44 35.3443 44 33.8072V10.7821C44 9.2464 42.7854 8 41.2857 8ZM18.4436 28.6435C18.1858 28.8772 17.8641 28.9927 17.5439 28.9927C17.1693 28.9927 16.7961 28.8341 16.5274 28.5239C16.0306 27.948 16.0836 27.0702 16.6441 26.5597L21.3466 22.2947L16.6441 18.031C16.0836 17.5219 16.0306 16.6427 16.5274 16.0668C17.0241 15.4895 17.8831 15.4395 18.4436 15.9472L24.2943 21.2527C24.5847 21.517 24.7516 21.8954 24.7516 22.2947C24.7516 22.6925 24.5847 23.0723 24.2943 23.3366L18.4436 28.6435ZM32.4561 28.9927H25.8428C25.0923 28.9927 24.4856 28.3695 24.4856 27.6016C24.4856 26.8337 25.0923 26.2105 25.8428 26.2105H32.4561C33.2066 26.2105 33.8133 26.8337 33.8133 27.6016C33.8133 28.3695 33.2066 28.9927 32.4561 28.9927Z" fill="#4361EE"/>
</g>
</g>
</g>
<defs>
<clipPath id="clip0_2765_12740">
<rect width="40" height="40" fill="white" transform="translate(5 5)"/>
</clipPath>
<clipPath id="clip1_2765_12740">
<rect width="40" height="40" fill="white" transform="translate(5 5)"/>
</clipPath>
<clipPath id="clip2_2765_12740">
<rect width="40" height="40" fill="white" transform="translate(5 5)"/>
</clipPath>
</defs>
</svg>
