<svg width="68" height="67" viewBox="0 0 68 67" fill="none" xmlns="http://www.w3.org/2000/svg">
<g clip-path="url(#clip0_2005_10746)">
<path d="M44.8918 33.2791C38.6796 33.279 32.9463 34.9835 28.6887 38.3974C24.4312 41.8114 21.7538 46.9973 21.7539 53.366V53.3712V53.3764C21.7545 53.4712 21.7643 59.0868 21.7643 59.0868L21.7539 66.7242H67.4227L67.461 59.0868C67.461 59.0868 67.4688 56.3273 67.4713 55.2681C67.4739 54.209 67.4841 53.3286 67.4815 53.4065V53.3859V53.3652C67.4815 46.3585 64.2555 41.1329 59.8342 37.8999C55.4128 34.6668 49.8881 33.2783 44.8957 33.2783L44.8918 33.2791ZM44.8918 37.1329C49.1505 37.1329 53.9586 38.3841 57.5521 41.0118C61.1456 43.6395 63.6238 47.4971 63.6238 53.366C63.6187 53.6441 63.616 54.2148 63.6135 55.2528C63.6109 56.3128 63.6084 57.6964 63.6033 59.0765C63.5981 60.4493 63.5904 61.8158 63.5827 62.8701H25.6319C25.6267 61.8158 25.6189 60.4475 25.6163 59.0765C25.6086 56.3235 25.6087 53.6675 25.6061 53.366C25.606 48.0405 27.676 44.1454 31.0958 41.4032C34.5156 38.661 39.3886 37.1328 44.8918 37.1329Z" fill="black"/>
<path d="M44.8929 0.335938C36.7784 0.335938 30.1602 6.94297 30.1602 15.0486C30.1602 23.1543 36.7784 29.7663 44.8929 29.7663C53.0074 29.7663 59.6307 23.1543 59.6307 15.0486C59.6307 6.94297 53.0074 0.335938 44.8929 0.335938ZM44.8929 4.18974C50.9283 4.18974 55.7769 9.02945 55.7769 15.0486C55.7769 21.0678 50.9283 25.9125 44.8929 25.9125C38.8574 25.9125 34.014 21.0678 34.014 15.0486C34.014 9.02945 38.8574 4.18974 44.8929 4.18974Z" fill="black"/>
<path d="M20.7247 34.8096C14.9345 34.8094 9.87572 36.4177 6.24786 39.6619C2.61999 42.9062 0.561755 47.7458 0.5625 53.6119V53.6171V53.6222C0.563014 53.7245 0.57285 59.2072 0.57285 59.2072L0.611582 66.7242H16.3851H18.5226V62.8704H16.3851H4.43731C4.43217 61.8433 4.42969 60.5296 4.42712 59.2022C4.42198 56.4967 4.41934 53.8571 4.41677 53.6022C4.41859 48.6133 6.04726 45.0149 8.81752 42.5376C11.5879 40.0601 15.6411 38.6655 20.7151 38.6637C21.2885 38.6688 22.9879 38.8352 22.9879 38.8352C22.9879 38.8352 24.9493 36.4938 25.8385 35.3617L23.9367 35.0656C22.8783 34.901 21.8068 34.8159 20.7352 34.8097H20.73L20.7247 34.8096Z" fill="black"/>
<path d="M20.5331 5.30697C13.2135 5.25559 7.19003 11.1787 7.14094 18.4892C7.09109 25.7996 13.0339 31.8037 20.3536 31.8514C23.5201 31.8694 26.5747 30.7562 28.9805 28.7384C29.2729 28.4935 29.5528 28.2365 29.8239 27.9662L30.8024 26.983L28.4665 23.8774L27.4333 24.9485C27.2439 25.1448 26.7129 25.6131 26.5065 25.7861C24.7981 27.219 22.6246 28.0113 20.3746 27.9977C15.1335 27.9636 10.9591 23.738 10.9947 18.5152C11.0299 13.2924 15.261 9.12385 20.5021 9.16061C22.0999 9.17089 23.6726 9.58485 25.0653 10.3657L26.745 11.3105C26.745 11.3105 27.9499 8.16211 28.1195 7.67561L26.9498 7.00634C24.9894 5.90706 22.7813 5.32311 20.5331 5.30697Z" fill="black"/>
</g>
<defs>
<clipPath id="clip0_2005_10746">
<rect width="67" height="67" fill="white" transform="translate(0.5)"/>
</clipPath>
</defs>
</svg>
