<svg width="50" height="50" viewBox="0 0 50 50" fill="none" xmlns="http://www.w3.org/2000/svg">
<path d="M45.575 26.52L40.575 20.52C40.56 20.505 40.54 20.49 40.525 20.475C40.495 20.445 40.465 20.415 40.43 20.39C40.4 20.37 40.37 20.35 40.335 20.335C40.315 20.325 40.3 20.31 40.275 20.3L35.745 18.49V18.395L39.175 16.055C39.66 16.485 40.3 16.75 40.995 16.75C42.51 16.75 43.745 15.515 43.745 14C43.745 12.485 42.51 11.25 40.995 11.25C39.48 11.25 38.245 12.485 38.245 14C38.245 14.275 38.285 14.54 38.36 14.79L34.57 17.38C34.395 17.5 34.285 17.69 34.255 17.895L30.74 16.49V16.31L34.52 12.53C34.66 12.39 34.74 12.2 34.74 12V9.645C35.89 9.315 36.74 8.26 36.74 7C36.74 5.485 35.505 4.25 33.99 4.25C32.475 4.25 31.24 5.485 31.24 7C31.24 8.255 32.09 9.315 33.24 9.645V11.69L29.46 15.47C29.345 15.585 29.275 15.735 29.25 15.895L25.74 14.49V9.64C26.89 9.31 27.74 8.255 27.74 6.995C27.74 5.48 26.505 4.245 24.99 4.245C23.475 4.245 22.24 5.48 22.24 6.995C22.24 8.25 23.09 9.31 24.24 9.64V14.49L20.73 15.895C20.71 15.735 20.635 15.585 20.52 15.47L16.74 11.69V9.645C17.89 9.315 18.74 8.26 18.74 7C18.74 5.485 17.505 4.25 15.99 4.25C14.475 4.25 13.24 5.485 13.24 7C13.24 8.255 14.09 9.315 15.24 9.645V12C15.24 12.2 15.32 12.39 15.46 12.53L19.24 16.31V16.49L15.725 17.895C15.695 17.685 15.585 17.5 15.41 17.38L11.62 14.79C11.695 14.54 11.735 14.275 11.735 14C11.735 12.485 10.5 11.25 8.98501 11.25C7.47001 11.25 6.23501 12.485 6.23501 14C6.23501 15.515 7.47001 16.75 8.98501 16.75C9.68501 16.75 10.32 16.485 10.805 16.055L14.235 18.395V18.49L9.70501 20.3C9.68501 20.31 9.66501 20.325 9.64501 20.335C9.61001 20.35 9.58001 20.37 9.55001 20.39C9.51501 20.415 9.48501 20.445 9.45501 20.475C9.44001 20.49 9.42001 20.5 9.40501 20.52L4.40501 26.52C4.25001 26.705 4.19501 26.95 4.25501 27.185C4.31501 27.42 4.48001 27.61 4.70501 27.695L9.23501 29.505V39C9.23501 39.305 9.42001 39.585 9.70501 39.695L24.705 45.695C24.715 45.7 24.725 45.695 24.73 45.7C24.81 45.73 24.895 45.75 24.985 45.75C25.05 45.75 25.115 45.74 25.18 45.72C25.195 45.715 25.21 45.71 25.225 45.705C25.24 45.7 25.25 45.7 25.265 45.695L40.265 39.695C40.55 39.58 40.735 39.305 40.735 39V29.51L45.265 27.7C45.49 27.61 45.655 27.42 45.715 27.19C45.785 26.95 45.73 26.705 45.575 26.52ZM41 12.75C41.69 12.75 42.25 13.31 42.25 14C42.25 14.69 41.69 15.25 41 15.25C40.31 15.25 39.75 14.69 39.75 14C39.75 13.31 40.31 12.75 41 12.75ZM32.75 7C32.75 6.31 33.31 5.75 34 5.75C34.69 5.75 35.25 6.31 35.25 7C35.25 7.69 34.69 8.25 34 8.25C33.31 8.25 32.75 7.69 32.75 7ZM14.75 7C14.75 6.31 15.31 5.75 16 5.75C16.69 5.75 17.25 6.31 17.25 7C17.25 7.69 16.69 8.25 16 8.25C15.31 8.25 14.75 7.69 14.75 7ZM9.00001 15.25C8.31001 15.25 7.75001 14.69 7.75001 14C7.75001 13.31 8.31001 12.75 9.00001 12.75C9.69001 12.75 10.25 13.31 10.25 14C10.25 14.69 9.69001 15.25 9.00001 15.25ZM23.75 7C23.75 6.31 24.31 5.75 25 5.75C25.69 5.75 26.25 6.31 26.25 7C26.25 7.69 25.69 8.25 25 8.25C24.31 8.25 23.75 7.69 23.75 7ZM14.25 20.11V21C14.25 21.415 14.585 21.75 15 21.75C15.415 21.75 15.75 21.415 15.75 21V19.51L19.25 18.11V22C19.25 22.415 19.585 22.75 20 22.75C20.415 22.75 20.75 22.415 20.75 22V17.51L24.25 16.11V23C24.25 23.415 24.585 23.75 25 23.75C25.415 23.75 25.75 23.415 25.75 23V16.11L29.25 17.51V22C29.25 22.415 29.585 22.75 30 22.75C30.415 22.75 30.75 22.415 30.75 22V18.11L34.25 19.51V21C34.25 21.415 34.585 21.75 35 21.75C35.415 21.75 35.75 21.415 35.75 21V20.11L37.98 21L25 26.19L12.02 21L14.25 20.11ZM10.75 38.49V30.11L19.72 33.7C19.81 33.735 19.905 33.755 20 33.755C20.22 33.755 20.43 33.66 20.575 33.485L24.25 29.075V43.895L10.75 38.49ZM39.25 38.49L25.75 43.89V29.07L29.425 33.48C29.57 33.655 29.785 33.75 30 33.75C30.095 33.75 30.19 33.735 30.28 33.695L39.25 30.105V38.49Z" fill="#4361EE"/>
</svg>
