<svg width="50" height="46" viewBox="0 0 50 46" fill="none" xmlns="http://www.w3.org/2000/svg">
<path d="M29.4443 30.3804C27.3422 30.3804 25.4553 31.8253 24.8814 33.8483C24.8814 33.9205 24.6661 34.4985 25.0248 35.1488C25.2401 35.51 25.5342 35.7268 25.9647 35.8713L32.1204 37.4607C32.9168 37.6775 33.7849 37.1717 34.0073 36.377V36.2325C34.8036 33.3426 32.558 30.3804 29.4443 30.3804ZM32.2711 35.6545L26.6893 34.2095C27.1987 32.7646 28.6479 31.8976 30.1689 32.3311C31.6899 32.6923 32.558 34.2095 32.2711 35.6545Z" fill="#283A8F"/>
<path d="M34.8117 22.8665C34.5965 23.2278 34.6682 23.7335 34.9552 24.0225C37.1291 26.1177 40.2428 25.7565 41.9144 23.1555C42.1297 22.7943 42.0579 22.2885 41.771 21.9995C39.5254 19.9043 36.4116 20.2656 34.8117 22.8665ZM36.8349 23.2278C37.703 22.3608 38.7936 22.2885 39.8052 22.8665C38.937 23.6613 37.8465 23.8058 36.8349 23.2278Z" fill="#283A8F"/>
<path d="M20.5318 21.7828C20.5318 20.9158 19.8789 20.2656 19.0108 20.2656H12.6327C11.7646 20.2656 11.1117 20.9158 11.1117 21.7828C11.1117 24.3837 13.2138 26.4789 15.8181 26.4789C18.4225 26.4789 20.5246 24.3837 20.5246 21.7828H20.5318ZM15.8971 24.6727C14.3761 24.6727 13.1421 23.5168 12.9986 22.0718H18.7238C18.5803 23.5168 17.3463 24.6727 15.8971 24.6727Z" fill="#283A8F"/>
<path d="M44.5176 16.2919C39.517 16.5086 33.2179 14.9192 28.7195 12.8962V5.16559C28.7195 3.57612 27.1985 2.42015 25.6058 2.85364C20.0958 4.5876 11.6227 4.5876 6.11274 2.92589C4.59175 2.42015 2.99902 3.64837 2.99902 5.23784V20.1211C2.99902 27.9962 10.1017 34.065 18.0726 32.7646C19.2348 38.8334 24.5224 43.2406 30.6781 43.2406C36.4751 43.2406 41.6192 39.3392 43.0684 33.7038L46.9067 19.3263C47.3444 17.7369 46.1821 16.2196 44.5176 16.2919ZM4.80699 20.1211V5.16559C4.80699 4.7321 5.17289 4.51536 5.53161 4.5876C11.4003 6.39382 20.2393 6.39382 26.108 4.5876C26.4667 4.44311 26.8326 4.7321 26.8326 5.16559C26.8326 21.4938 26.9043 20.8435 26.6174 22.433C25.821 26.1177 23.1377 29.2244 19.4429 30.5249C12.2684 32.9813 4.80699 27.5627 4.80699 20.1211ZM45.1705 18.8206L41.3322 33.1981C40.0982 38.0387 35.6787 41.4344 30.6781 41.4344C25.247 41.4344 20.6769 37.4607 19.8088 32.3311C24.8094 30.7416 28.289 26.2622 28.6477 21.0603C28.7195 20.4101 28.6477 20.3378 28.6477 14.9192C33.3542 16.9421 39.517 18.3148 44.5176 18.1703C45.027 18.0981 45.314 18.4593 45.1705 18.8206Z" fill="#283A8F"/>
<path d="M18.2877 12.824C20.9709 14.2689 23.8694 13.113 24.7375 10.1508C24.881 9.71728 24.6658 9.28378 24.2999 9.06704C21.6166 7.62207 18.7182 8.77805 17.8501 11.7402C17.7783 12.1737 17.9218 12.6795 18.2877 12.824ZM22.7072 10.4398C22.126 11.4512 21.0427 11.8847 19.8804 11.5957C20.2392 11.09 21.6166 10.1508 22.7072 10.4398Z" fill="#283A8F"/>
<path d="M13.9388 11.8125C12.9989 8.85028 10.1722 7.6943 7.48896 9.13927C7.13024 9.35602 6.90783 9.78951 7.05132 10.223C7.48896 11.668 8.42882 12.6795 9.5839 13.1852C10.3803 13.5464 11.1766 13.4742 11.1766 13.4742C11.973 13.4742 12.7694 13.2574 13.494 12.824C13.8527 12.6795 14.0751 12.1737 13.9316 11.8125H13.9388ZM9.08169 10.4397C10.244 10.1508 11.2556 10.5842 11.9084 11.5957C11.3273 11.7402 9.66282 11.4512 9.08169 10.4397Z" fill="#283A8F"/>
<path d="M31.4016 10.9455H44.0789C44.5883 10.9455 45.0188 10.512 45.0188 10.0062C45.0188 9.5005 44.5811 9.06701 44.0789 9.06701H31.4016C30.8923 9.06701 30.4618 9.5005 30.4618 10.0062C30.5335 10.512 30.9712 10.9455 31.4016 10.9455Z" fill="#283A8F"/>
<path d="M37.7818 8.20004H45.9679C46.4773 8.20004 46.9078 7.76654 46.9078 7.2608C46.9078 6.75506 46.4701 6.32157 45.9679 6.32157H37.7818C37.2724 6.32157 36.842 6.75506 36.842 7.2608C36.842 7.83879 37.2796 8.20004 37.7818 8.20004Z" fill="#283A8F"/>
<path d="M15.4612 39.8449H5.17301C4.66362 39.8449 4.23315 40.2784 4.23315 40.7842C4.23315 41.2899 4.6708 41.7234 5.17301 41.7234H15.4612C15.9706 41.7234 16.401 41.2899 16.401 40.7842C16.401 40.2062 15.9634 39.8449 15.4612 39.8449Z" fill="#283A8F"/>
<path d="M16.9089 37.0995H10.3156C9.8062 37.0995 9.37573 37.533 9.37573 38.0387C9.37573 38.5444 9.81337 38.9779 10.3156 38.9779H16.9089C17.4183 38.9779 17.8488 38.5444 17.8488 38.0387C17.8488 37.533 17.4111 37.0995 16.9089 37.0995Z" fill="#283A8F"/>
</svg>
