<svg width="50" height="50" viewBox="0 0 50 50" fill="none" xmlns="http://www.w3.org/2000/svg">
<g clip-path="url(#clip0_2777_13247)">
<g clip-path="url(#clip1_2777_13247)">
<g clip-path="url(#clip2_2777_13247)">
<path d="M26.2857 7H10.8571C9.83416 7 8.85309 7.40638 8.12973 8.12973C7.40638 8.85309 7 9.83416 7 10.8571V41.7143C7 42.0553 7.13546 42.3823 7.37658 42.6234C7.6177 42.8645 7.94472 43 8.28571 43H14.7143V34C14.7143 33.659 14.8497 33.332 15.0909 33.0909C15.332 32.8497 15.659 32.7143 16 32.7143H21.1429C21.4838 32.7143 21.8109 32.8497 22.052 33.0909C22.2931 33.332 22.4286 33.659 22.4286 34V43H30.1429V10.8571C30.1429 9.83416 29.7365 8.85309 29.0131 8.12973C28.2898 7.40638 27.3087 7 26.2857 7ZM16 28.8571H13.4286C13.0876 28.8571 12.7606 28.7217 12.5194 28.4806C12.2783 28.2394 12.1429 27.9124 12.1429 27.5714C12.1429 27.2304 12.2783 26.9034 12.5194 26.6623C12.7606 26.4212 13.0876 26.2857 13.4286 26.2857H16C16.341 26.2857 16.668 26.4212 16.9091 26.6623C17.1503 26.9034 17.2857 27.2304 17.2857 27.5714C17.2857 27.9124 17.1503 28.2394 16.9091 28.4806C16.668 28.7217 16.341 28.8571 16 28.8571ZM16 22.4286H13.4286C13.0876 22.4286 12.7606 22.2931 12.5194 22.052C12.2783 21.8109 12.1429 21.4838 12.1429 21.1429C12.1429 20.8019 12.2783 20.4748 12.5194 20.2337C12.7606 19.9926 13.0876 19.8571 13.4286 19.8571H16C16.341 19.8571 16.668 19.9926 16.9091 20.2337C17.1503 20.4748 17.2857 20.8019 17.2857 21.1429C17.2857 21.4838 17.1503 21.8109 16.9091 22.052C16.668 22.2931 16.341 22.4286 16 22.4286ZM16 16H13.4286C13.0876 16 12.7606 15.8645 12.5194 15.6234C12.2783 15.3823 12.1429 15.0553 12.1429 14.7143C12.1429 14.3733 12.2783 14.0463 12.5194 13.8051C12.7606 13.564 13.0876 13.4286 13.4286 13.4286H16C16.341 13.4286 16.668 13.564 16.9091 13.8051C17.1503 14.0463 17.2857 14.3733 17.2857 14.7143C17.2857 15.0553 17.1503 15.3823 16.9091 15.6234C16.668 15.8645 16.341 16 16 16ZM23.7143 28.8571H21.1429C20.8019 28.8571 20.4748 28.7217 20.2337 28.4806C19.9926 28.2394 19.8571 27.9124 19.8571 27.5714C19.8571 27.2304 19.9926 26.9034 20.2337 26.6623C20.4748 26.4212 20.8019 26.2857 21.1429 26.2857H23.7143C24.0553 26.2857 24.3823 26.4212 24.6234 26.6623C24.8645 26.9034 25 27.2304 25 27.5714C25 27.9124 24.8645 28.2394 24.6234 28.4806C24.3823 28.7217 24.0553 28.8571 23.7143 28.8571ZM23.7143 22.4286H21.1429C20.8019 22.4286 20.4748 22.2931 20.2337 22.052C19.9926 21.8109 19.8571 21.4838 19.8571 21.1429C19.8571 20.8019 19.9926 20.4748 20.2337 20.2337C20.4748 19.9926 20.8019 19.8571 21.1429 19.8571H23.7143C24.0553 19.8571 24.3823 19.9926 24.6234 20.2337C24.8645 20.4748 25 20.8019 25 21.1429C25 21.4838 24.8645 21.8109 24.6234 22.052C24.3823 22.2931 24.0553 22.4286 23.7143 22.4286ZM23.7143 16H21.1429C20.8019 16 20.4748 15.8645 20.2337 15.6234C19.9926 15.3823 19.8571 15.0553 19.8571 14.7143C19.8571 14.3733 19.9926 14.0463 20.2337 13.8051C20.4748 13.564 20.8019 13.4286 21.1429 13.4286H23.7143C24.0553 13.4286 24.3823 13.564 24.6234 13.8051C24.8645 14.0463 25 14.3733 25 14.7143C25 15.0553 24.8645 15.3823 24.6234 15.6234C24.3823 15.8645 24.0553 16 23.7143 16Z" fill="#4361EE"/>
<path d="M39.1429 13.4286H32.7143V19.8571H36.5714C36.9124 19.8571 37.2394 19.9926 37.4806 20.2337C37.7217 20.4748 37.8571 20.8019 37.8571 21.1429C37.8571 21.4839 37.7217 21.8109 37.4806 22.052C37.2394 22.2931 36.9124 22.4286 36.5714 22.4286H32.7143V26.2857H36.5714C36.9124 26.2857 37.2394 26.4212 37.4806 26.6623C37.7217 26.9034 37.8571 27.2304 37.8571 27.5714C37.8571 27.9124 37.7217 28.2395 37.4806 28.4806C37.2394 28.7217 36.9124 28.8571 36.5714 28.8571H32.7143V32.7143H36.5714C36.9124 32.7143 37.2394 32.8497 37.4806 33.0909C37.7217 33.332 37.8571 33.659 37.8571 34C37.8571 34.341 37.7217 34.668 37.4806 34.9091C37.2394 35.1503 36.9124 35.2857 36.5714 35.2857H32.7143V43H41.7143C42.0553 43 42.3823 42.8645 42.6234 42.6234C42.8645 42.3823 43 42.0553 43 41.7143V17.2857C43 16.2627 42.5936 15.2817 41.8703 14.5583C41.1469 13.835 40.1658 13.4286 39.1429 13.4286Z" fill="#4361EE"/>
</g>
</g>
</g>
<defs>
<clipPath id="clip0_2777_13247">
<rect width="40" height="40" fill="white" transform="translate(5 5)"/>
</clipPath>
<clipPath id="clip1_2777_13247">
<rect width="40" height="40" fill="white" transform="translate(5 5)"/>
</clipPath>
<clipPath id="clip2_2777_13247">
<rect width="40" height="40" fill="white" transform="translate(5 5)"/>
</clipPath>
</defs>
</svg>
