<svg width="50" height="36" viewBox="0 0 50 36" fill="none" xmlns="http://www.w3.org/2000/svg">
<g clip-path="url(#clip0_1392_4070)">
<path d="M48.2143 29.637H47.7054V2.7C47.7054 1.215 46.5 0 45.0268 0H4.97321C3.5 0 2.29464 1.215 2.29464 2.7V29.637H1.78571C0.803571 29.637 0 30.447 0 31.437V32.4C0 34.389 1.59821 36 3.57143 36H46.4286C48.4018 36 50 34.389 50 32.4V31.437C50 30.447 49.1964 29.637 48.2143 29.637ZM4.08036 2.7C4.08036 2.205 4.48214 1.8 4.97321 1.8H45.0268C45.5179 1.8 45.9196 2.205 45.9196 2.7V29.637H4.08036V2.7ZM48.2143 32.4C48.2143 33.39 47.4107 34.2 46.4286 34.2H3.57143C2.58929 34.2 1.78571 33.39 1.78571 32.4V31.437H20.5268V32.301C20.5268 32.796 20.9286 33.201 21.4196 33.201H28.5804C29.0714 33.201 29.4732 32.796 29.4732 32.301V31.437H48.2143V32.4Z" fill="#283A8F"/>
<path d="M36.1518 13.14C36.1518 12.393 35.7143 11.718 34.9197 11.313L26.2322 7.785C25.5268 7.425 24.6607 7.416 23.9464 7.767L15.1518 11.34C14.4197 11.709 13.9911 12.384 13.9911 13.131C13.9911 13.878 14.4286 14.553 15.2232 14.958L17.4911 15.876V19.53C17.4911 20.367 17.9911 21.105 18.7679 21.42L24.3125 23.67C24.5625 23.769 24.8214 23.823 25.0804 23.823C25.3393 23.823 25.5982 23.769 25.8482 23.67L31.3929 21.42C32.1697 21.105 32.6697 20.367 32.6697 19.53V15.867L33.5536 15.507V23.841C33.2589 24.372 33.0625 25.047 33.0625 25.47C33.0625 26.226 33.6786 26.838 34.4464 26.838C35.2143 26.838 35.8304 26.226 35.8304 25.47C35.8304 25.056 35.6429 24.372 35.3393 23.841V14.688C35.8572 14.301 36.1607 13.743 36.1607 13.122L36.1518 13.14ZM15.7768 13.14C15.7768 13.14 15.8304 13.014 15.8929 12.987L24.6518 9.432L24.7232 9.396C24.8214 9.342 24.9375 9.315 25.0625 9.315C25.2054 9.315 25.3572 9.351 25.5089 9.423L34.1964 12.951C34.3214 13.014 34.3839 13.095 34.3839 13.14C34.3839 13.185 34.3304 13.266 34.2679 13.293L25.4464 16.884C25.2322 16.992 24.9464 16.992 24.6607 16.848L15.9732 13.329C15.8482 13.266 15.7857 13.185 15.7857 13.14H15.7768ZM30.875 19.539C30.875 19.638 30.8125 19.719 30.7232 19.764L25.1786 22.014C25.1161 22.041 25.0447 22.041 24.9732 22.014L19.4286 19.764C19.3304 19.728 19.2768 19.638 19.2768 19.539V16.605L23.9197 18.486C24.2857 18.675 24.6964 18.765 25.0982 18.765C25.4822 18.765 25.8572 18.684 26.1697 18.522L30.875 16.605V19.539Z" fill="#283A8F"/>
</g>
<defs>
<clipPath id="clip0_1392_4070">
<rect width="50" height="36" fill="white"/>
</clipPath>
</defs>
</svg>
