<svg width="50" height="50" viewBox="0 0 50 50" fill="none" xmlns="http://www.w3.org/2000/svg">
<g clip-path="url(#clip0_1392_4072)">
<path d="M24.2347 6.10228V14.2804H25.7652V6.10228C27.1041 5.76081 28.099 4.54477 28.099 3.10026C28.099 1.3929 26.7086 0.00244141 25.0012 0.00244141C23.2938 0.00244141 21.9034 1.3929 21.9034 3.10026C21.9034 4.54477 22.8983 5.76081 24.2372 6.10228H24.2347ZM25.0012 1.53047C25.8659 1.53047 26.571 2.23307 26.571 3.10026C26.571 3.96746 25.8684 4.67006 25.0012 4.67006C24.134 4.67006 23.4314 3.96746 23.4314 3.10026C23.4314 2.23307 24.134 1.53047 25.0012 1.53047Z" fill="#283A8F"/>
<path d="M25.7652 43.9002V35.722H24.2347V43.9002C22.8959 44.2416 21.9009 45.4577 21.9009 46.9022C21.9009 48.6095 23.2914 50 24.9988 50C26.7061 50 28.0966 48.6095 28.0966 46.9022C28.0966 45.4577 27.1016 44.2416 25.7628 43.9002H25.7652ZM25.0012 48.472C24.1365 48.472 23.4314 47.7694 23.4314 46.9022C23.4314 46.035 24.134 45.3324 25.0012 45.3324C25.8684 45.3324 26.571 46.035 26.571 46.9022C26.571 47.7694 25.8684 48.472 25.0012 48.472Z" fill="#283A8F"/>
<path d="M43.9001 25.7652C44.2416 27.1041 45.4577 28.099 46.9022 28.099C48.6095 28.099 50 26.7086 50 25.0012C50 23.2938 48.6095 21.9034 46.9022 21.9034C45.4577 21.9034 44.2416 22.8983 43.9001 24.2372H35.722V25.0012C35.722 22.5962 34.931 20.3778 33.5945 18.5894L34.076 19.1839L38.3948 15.6758H42.1215C42.463 17.0147 43.6791 18.0096 45.1236 18.0096C46.8309 18.0096 48.2214 16.6192 48.2214 14.9118C48.2214 13.2044 46.8309 11.814 45.1236 11.814C43.6791 11.814 42.463 12.8089 42.1215 14.1478H38.1221C37.9477 14.1478 37.7757 14.2092 37.6406 14.3197L33.113 17.9949C32.7716 17.6018 32.4031 17.2309 32.0075 16.8894L35.6851 12.3618C35.7957 12.2267 35.8571 12.0547 35.8571 11.8803V7.88335C37.196 7.54187 38.1909 6.32584 38.1909 4.88133C38.1909 3.17397 36.8005 1.78351 35.0931 1.78351C33.3857 1.78351 31.9953 3.17397 31.9953 4.88133C31.9953 6.32584 32.9902 7.54187 34.3291 7.88335V11.6101L30.821 15.9288L31.4155 16.4103C29.6271 15.0739 27.4063 14.2829 25.0037 14.2829C22.6011 14.2829 20.3803 15.0739 18.5918 16.4103L19.1863 15.9288L15.6783 11.6101V7.88335C17.0171 7.54187 18.0121 6.32584 18.0121 4.88133C18.0121 3.17397 16.6216 1.78351 14.9142 1.78351C13.2069 1.78351 11.8164 3.17397 11.8164 4.88133C11.8164 6.32584 12.8114 7.54187 14.1502 7.88335V11.8803C14.1502 12.0547 14.2116 12.2267 14.3222 12.3618L17.9998 16.8894C17.6043 17.2309 17.2358 17.5994 16.8943 17.9949L12.3667 14.3197C12.2316 14.2092 12.0596 14.1478 11.8852 14.1478H7.88826C7.54678 12.8089 6.33075 11.814 4.88624 11.814C3.17888 11.814 1.78842 13.2044 1.78842 14.9118C1.78842 16.6192 3.17888 18.0096 4.88624 18.0096C6.33075 18.0096 7.54678 17.0147 7.88826 15.6758H11.615L15.9338 19.1839L16.4153 18.5894C15.0788 20.3778 14.2878 22.5962 14.2878 25.0012V24.2372H6.10228C5.76081 22.8983 4.54477 21.9034 3.10026 21.9034C1.3929 21.9034 0.00244141 23.2938 0.00244141 25.0012C0.00244141 26.7086 1.3929 28.099 3.10026 28.099C4.54477 28.099 5.76081 27.1041 6.10228 25.7652H14.2804V25.0012C14.2804 27.4063 15.0715 29.6246 16.4079 31.413L15.9264 30.8185L11.6076 34.3266H7.88089C7.53941 32.9878 6.32338 31.9928 4.87887 31.9928C3.17151 31.9928 1.78105 33.3833 1.78105 35.0906C1.78105 36.798 3.17151 38.1885 4.87887 38.1885C6.32338 38.1885 7.53941 37.1935 7.88089 35.8547H11.8778C12.0523 35.8547 12.2242 35.7932 12.3593 35.6827L16.8869 32.0076C17.2284 32.4006 17.5969 32.7716 17.9924 33.113L14.3148 37.6406C14.2043 37.7757 14.1429 37.9477 14.1429 38.1221V42.1191C12.804 42.4606 11.8091 43.6766 11.8091 45.1211C11.8091 46.8285 13.1995 48.2189 14.9069 48.2189C16.6142 48.2189 18.0047 46.8285 18.0047 45.1211C18.0047 43.6766 17.0098 42.4606 15.6709 42.1191V38.3924L19.179 34.0736L18.5845 33.5921C20.3729 34.9285 22.5937 35.7195 24.9963 35.7195C27.3989 35.7195 29.6197 34.9285 31.4081 33.5921L30.8136 34.0736L34.3217 38.3924V42.1191C32.9828 42.4606 31.9879 43.6766 31.9879 45.1211C31.9879 46.8285 33.3784 48.2189 35.0857 48.2189C36.7931 48.2189 38.1835 46.8285 38.1835 45.1211C38.1835 43.6766 37.1886 42.4606 35.8497 42.1191V38.1221C35.8497 37.9477 35.7883 37.7757 35.6778 37.6406L32.0002 33.113C32.3957 32.7716 32.7642 32.4031 33.1057 32.0076L37.6333 35.6827C37.7684 35.7932 37.9403 35.8547 38.1148 35.8547H42.1142C42.4556 37.1935 43.6717 38.1885 45.1162 38.1885C46.8235 38.1885 48.214 36.798 48.214 35.0906C48.214 33.3833 46.8235 31.9928 45.1162 31.9928C43.6717 31.9928 42.4556 32.9878 42.1142 34.3266H38.3874L34.0687 30.8185L33.5872 31.413C34.9236 29.6246 35.7146 27.4063 35.7146 25.0012V25.7652H43.8928H43.9001ZM46.9022 23.4314C47.7669 23.4314 48.472 24.134 48.472 25.0012C48.472 25.8684 47.7694 26.571 46.9022 26.571C46.035 26.571 45.3324 25.8684 45.3324 25.0012C45.3324 24.134 46.035 23.4314 46.9022 23.4314ZM45.1236 13.3395C45.9883 13.3395 46.6934 14.0421 46.6934 14.9093C46.6934 15.7765 45.9907 16.4791 45.1236 16.4791C44.2564 16.4791 43.5538 15.7765 43.5538 14.9093C43.5538 14.0421 44.2564 13.3395 45.1236 13.3395ZM33.5233 4.87642C33.5233 4.01168 34.2259 3.30663 35.0931 3.30663C35.9603 3.30663 36.6629 4.00922 36.6629 4.87642C36.6629 5.74361 35.9603 6.44621 35.0931 6.44621C34.2259 6.44621 33.5233 5.74361 33.5233 4.87642ZM13.3395 4.87642C13.3395 4.01168 14.0421 3.30663 14.9093 3.30663C15.7765 3.30663 16.4791 4.00922 16.4791 4.87642C16.4791 5.74361 15.7765 6.44621 14.9093 6.44621C14.0421 6.44621 13.3395 5.74361 13.3395 4.87642ZM4.87642 16.4767C4.01168 16.4767 3.30662 15.7741 3.30662 14.9069C3.30662 14.0397 4.00922 13.3371 4.87642 13.3371C5.74361 13.3371 6.44621 14.0397 6.44621 14.9069C6.44621 15.7741 5.74361 16.4767 4.87642 16.4767ZM3.09781 26.5686C2.23307 26.5686 1.52801 25.866 1.52801 24.9988C1.52801 24.1316 2.23061 23.429 3.09781 23.429C3.965 23.429 4.6676 24.1316 4.6676 24.9988C4.6676 25.866 3.965 26.5686 3.09781 26.5686ZM4.87642 36.6604C4.01168 36.6604 3.30662 35.9578 3.30662 35.0906C3.30662 34.2234 4.00922 33.5208 4.87642 33.5208C5.74361 33.5208 6.44621 34.2234 6.44621 35.0906C6.44621 35.9578 5.74361 36.6604 4.87642 36.6604ZM16.4767 45.1236C16.4767 45.9883 15.7741 46.6934 14.9069 46.6934C14.0397 46.6934 13.3371 45.9907 13.3371 45.1236C13.3371 44.2564 14.0397 43.5538 14.9069 43.5538C15.7741 43.5538 16.4767 44.2564 16.4767 45.1236ZM30.2486 22.7116H26.8019C26.8019 22.1024 26.657 21.6454 26.3646 21.3457C26.0723 21.046 25.6842 20.8962 25.1977 20.8962C24.7113 20.8962 24.3404 21.019 24.1045 21.2647C23.8687 21.5103 23.7508 21.8248 23.7508 22.2056C23.7508 22.5863 23.8785 22.9057 24.1316 23.1465C24.3846 23.3872 24.8587 23.6304 25.554 23.8785C27.1655 24.4337 28.3472 24.9865 29.1038 25.5368C29.8604 26.0895 30.2388 26.8756 30.2388 27.9025C30.2388 28.9294 29.858 29.6615 29.0989 30.256C28.3398 30.8505 27.3154 31.1993 26.033 31.305V32.9927H24.3772V31.2951C23.031 31.1895 21.9132 30.8087 21.0239 30.1577C20.1346 29.5042 19.7047 28.5486 19.7317 27.2883L19.7637 27.2368H23.1907C23.1907 27.932 23.3774 28.4307 23.7532 28.7353C24.1291 29.0399 24.6131 29.1922 25.21 29.1922C25.7087 29.1922 26.087 29.0743 26.345 28.8385C26.6029 28.6026 26.7307 28.2956 26.7307 27.9148C26.7307 27.4726 26.598 27.1287 26.3352 26.8855C26.0723 26.6423 25.6031 26.4015 24.93 26.1681C23.2914 25.6424 22.0999 25.1093 21.3531 24.5688C20.6063 24.0284 20.2329 23.2349 20.2329 22.1859C20.2329 21.2401 20.6284 20.4589 21.4194 19.8472C22.2105 19.233 23.2668 18.8768 24.586 18.7761V17.0024H26.2418V18.808C27.4922 18.953 28.4798 19.3681 29.2094 20.0511C29.9391 20.734 30.2928 21.6061 30.2707 22.665L30.2511 22.7067L30.2486 22.7116ZM36.6604 45.1236C36.6604 45.9883 35.9578 46.6934 35.0906 46.6934C34.2234 46.6934 33.5208 45.9907 33.5208 45.1236C33.5208 44.2564 34.2234 43.5538 35.0906 43.5538C35.9578 43.5538 36.6604 44.2564 36.6604 45.1236ZM45.1236 33.5233C45.9883 33.5233 46.6934 34.2259 46.6934 35.0931C46.6934 35.9603 45.9907 36.6629 45.1236 36.6629C44.2564 36.6629 43.5538 35.9603 43.5538 35.0931C43.5538 34.2259 44.2564 33.5233 45.1236 33.5233Z" fill="#283A8F"/>
</g>
<defs>
<clipPath id="clip0_1392_4072">
<rect width="50" height="50" fill="white"/>
</clipPath>
</defs>
</svg>
