<svg width="52" height="36" viewBox="0 0 52 36" fill="none" xmlns="http://www.w3.org/2000/svg">
<path d="M35.9775 4.23682C37.5536 3.61098 39.328 3.73386 41.0977 4.56104C44.6891 6.23967 48.0217 10.6909 49.8389 16.1353C51.1752 20.1423 51.5825 24.266 50.9746 27.7495C50.3488 31.3362 48.7047 33.8927 46.2832 34.854L46.2822 34.853C45.616 35.1179 44.9126 35.2505 44.1875 35.2505C43.21 35.2505 42.1971 35.0111 41.1865 34.5425C37.7489 32.9485 34.5349 28.7942 32.6719 23.6665H19.3291C17.4644 28.7948 14.2494 32.949 10.8115 34.5425C9.05015 35.359 7.2842 35.4762 5.71582 34.853C3.29449 33.8917 1.65075 31.3359 1.02539 27.7495C0.41779 24.2657 0.824883 20.142 2.16211 16.1353C3.9775 10.6916 7.30912 6.24015 10.9004 4.56104C12.6704 3.73369 14.4454 3.61142 16.0215 4.23682C16.5457 4.4452 17.0415 4.73428 17.4961 5.09424C17.9076 5.41998 18.3782 5.58739 18.8574 5.5874H33.1416C33.6208 5.5874 34.0915 5.41993 34.5029 5.09424C34.9575 4.73443 35.4537 4.44507 35.9775 4.23682ZM40.4209 6.01709C39.0098 5.35765 37.7196 5.27366 36.5674 5.73096C36.1901 5.88087 35.8291 6.09068 35.4951 6.35498C34.8047 6.90165 33.9903 7.19382 33.1416 7.19385H18.8574C18.0089 7.19383 17.1944 6.90166 16.5039 6.35498C16.17 6.09062 15.8092 5.88103 15.4316 5.73096C14.2793 5.27367 12.9885 5.35724 11.5771 6.01709C8.42493 7.49089 5.38125 11.5455 3.68066 16.645C2.42136 20.4179 2.04295 24.2646 2.60254 27.4731C3.14534 30.5853 4.48557 32.6374 6.30566 33.3599C7.45255 33.8156 8.73623 33.7349 10.1396 33.0845C13.2595 31.6385 16.2911 27.6406 18.0059 22.604C18.1163 22.2795 18.4208 22.0601 18.7637 22.0601H33.2373C33.5803 22.0601 33.8847 22.2795 33.9951 22.604C35.7082 27.6399 38.7387 31.6379 41.8584 33.0845C43.2619 33.7352 44.5464 33.8167 45.6934 33.3608V33.3599C47.5135 32.6373 48.8544 30.5853 49.3975 27.4731C49.9573 24.2647 49.5785 20.4181 48.3203 16.645C46.6181 11.5449 43.5732 7.49045 40.4209 6.01709Z" fill="#283A8F" stroke="#283A8F" stroke-width="0.5"/>
<path d="M27.0323 0H24.9676V6.39076H27.0323V0Z" fill="#283A8F"/>
<path d="M13.7809 19.6273C13.2108 19.6273 12.7485 19.163 12.7485 18.5903V10.0409C12.7485 9.4682 13.2108 9.00389 13.7809 9.00389C14.351 9.00389 14.8133 9.4682 14.8133 10.0409V18.5903C14.8133 19.163 14.351 19.6273 13.7809 19.6273Z" fill="#283A8F"/>
<path d="M18.0364 15.3526H9.52529C8.95515 15.3526 8.49292 14.8883 8.49292 14.3156C8.49292 13.7429 8.95515 13.2786 9.52529 13.2786H18.0364C18.6066 13.2786 19.0688 13.7429 19.0688 14.3156C19.0688 14.8883 18.6066 15.3526 18.0364 15.3526Z" fill="#283A8F"/>
<path d="M39.0335 13.0383C37.7509 13.0383 36.7074 11.9901 36.7074 10.7017C36.7074 9.41331 37.7509 8.3651 39.0335 8.3651C40.3163 8.3651 41.3598 9.41331 41.3598 10.7017C41.3598 11.9901 40.3163 13.0383 39.0335 13.0383ZM39.0335 9.74764C38.5099 9.74764 38.0839 10.1756 38.0839 10.7016C38.0839 11.2275 38.5099 11.6555 39.0335 11.6555C39.5573 11.6555 39.9833 11.2275 39.9833 10.7016C39.9833 10.1756 39.5573 9.74764 39.0335 9.74764Z" fill="#283A8F"/>
<path d="M39.0335 20.8686C37.7509 20.8686 36.7074 19.8204 36.7074 18.532C36.7074 17.2436 37.7509 16.1954 39.0335 16.1954C40.3163 16.1954 41.3598 17.2436 41.3598 18.532C41.3598 19.8204 40.3163 20.8686 39.0335 20.8686ZM39.0335 17.5779C38.5099 17.5779 38.0839 18.0059 38.0839 18.5318C38.0839 19.0578 38.5099 19.4857 39.0335 19.4857C39.5573 19.4857 39.9833 19.0578 39.9833 18.5318C39.9833 18.0059 39.5573 17.5779 39.0335 17.5779Z" fill="#283A8F"/>
<path d="M35.136 16.9534C33.8534 16.9534 32.8099 15.9051 32.8099 14.6166C32.8099 13.3282 33.8534 12.28 35.136 12.28C36.4188 12.28 37.4623 13.3282 37.4623 14.6166C37.4623 15.9051 36.4188 16.9534 35.136 16.9534ZM35.136 13.6627C34.6124 13.6627 34.1864 14.0907 34.1864 14.6166C34.1864 15.1426 34.6124 15.5707 35.136 15.5707C35.6598 15.5707 36.0858 15.1427 36.0858 14.6166C36.0858 14.0905 35.6596 13.6627 35.136 13.6627Z" fill="#283A8F"/>
<path d="M42.9312 16.9534C41.6486 16.9534 40.6051 15.9051 40.6051 14.6166C40.6051 13.3282 41.6486 12.28 42.9312 12.28C44.214 12.28 45.2575 13.3282 45.2575 14.6166C45.2574 15.9051 44.2138 16.9534 42.9312 16.9534ZM42.9312 13.6627C42.4076 13.6627 41.9816 14.0907 41.9816 14.6166C41.9816 15.1426 42.4076 15.5707 42.9312 15.5707C43.455 15.5707 43.881 15.1427 43.881 14.6166C43.881 14.0905 43.4549 13.6627 42.9312 13.6627Z" fill="#283A8F"/>
</svg>
