<svg width="50" height="50" viewBox="0 0 50 50" fill="none" xmlns="http://www.w3.org/2000/svg">
<path d="M4 46H10V45.1341L9.93435 45.0366L10 45.0122V32H4V46Z" fill="#4361EE"/>
<path d="M44.7651 34.3407L44.7407 34.3528L37.5506 37.9696C37.6347 38.3605 37.6757 38.7593 37.6727 39.159C37.6727 39.159 37.697 39.6777 37.6727 40.0086C37.6485 40.3395 26.0759 40.0086 26.0759 40.0086V38.3094H35.8661C35.6693 37.4241 35.1752 36.6317 34.4653 36.0626C33.7553 35.4935 32.8717 35.1816 31.9598 35.1781H25.4289C24.1314 35.1783 22.8505 34.888 21.6813 34.3285L21.0099 34.0008C19.4246 33.2332 17.6629 32.8973 15.9044 33.0273C14.1459 33.1574 12.4536 33.7488 11 34.7412V44.0623L11.8911 43.5526C13.005 42.9201 14.3221 42.7417 15.5655 43.055L26.7229 45.8464C28.8548 46.2176 31.0501 45.9119 32.9974 44.9726L48 34.729C47.5679 34.3387 47.0244 34.0916 46.4448 34.022C45.8652 33.9524 45.2782 34.0638 44.7651 34.3407Z" fill="#4361EE"/>
<path d="M30.752 16.5039H33.2031C33.0726 14.9439 32.5001 13.4533 31.5527 12.207C31.1337 12.6025 30.6793 12.9588 30.1953 13.2715C30.5196 14.3204 30.7067 15.4069 30.752 16.5039ZM28.9648 13.9551C27.93 14.427 26.8184 14.7082 25.6836 14.7852V16.5039H29.3848C29.3443 15.6409 29.2033 14.7855 28.9648 13.9551ZM28.4961 21.7187C27.6112 21.3018 26.6585 21.0471 25.6836 20.9668V25.0684C26.9043 24.2871 27.8613 23.1348 28.4961 21.7187ZM29.3848 17.8711H25.6836V19.5898C26.8176 19.6715 27.9284 19.9525 28.9648 20.4199C29.2033 19.5895 29.3443 18.7341 29.3848 17.8711Z" fill="#4361EE"/>
<path d="M24.3164 19.5898C23.1796 19.6669 22.0654 19.9447 21.0254 20.4102C20.7949 19.5816 20.6574 18.73 20.6152 17.8711H24.3164V19.5898Z" fill="#4361EE"/>
<path d="M24.3164 20.9668V25.0684C23.0957 24.2871 22.1387 23.125 21.4941 21.709C22.383 21.2951 23.3389 21.0437 24.3164 20.9668Z" fill="#4361EE"/>
<path d="M24.3164 16.5039H20.6152C20.6574 15.645 20.7949 14.7934 21.0254 13.9648C22.0654 14.4303 23.1796 14.7081 24.3164 14.7852V16.5039Z" fill="#4361EE"/>
<path d="M28.0859 9.55078C29.0288 9.93714 29.8927 10.4932 30.6348 11.1914C30.3417 11.4753 30.0248 11.7334 29.6875 11.9629C29.2797 11.0819 28.7396 10.2685 28.0859 9.55078Z" fill="#4361EE"/>
<path d="M24.3164 9.31641V13.418C23.3418 13.3304 22.3883 13.0829 21.4941 12.6855C22.1387 11.2598 23.0957 10.0977 24.3164 9.31641Z" fill="#4361EE"/>
<path d="M19.3359 11.2207C20.0837 10.5106 20.9582 9.94747 21.9141 9.56055C21.2529 10.2837 20.7062 11.1037 20.293 11.9922C19.9544 11.7603 19.6344 11.5024 19.3359 11.2207Z" fill="#4361EE"/>
<path d="M18.4277 12.2363C18.8482 12.6343 19.306 12.9907 19.7949 13.3008C19.4731 14.3399 19.2892 15.4169 19.248 16.5039H16.7969C16.9296 14.9566 17.4947 13.4778 18.4277 12.2363Z" fill="#4361EE"/>
<path d="M21.9141 24.8145C20.9582 24.4275 20.0837 23.8644 19.3359 23.1543C19.6406 22.8728 19.9636 22.6118 20.3027 22.373C20.7089 23.2661 21.2526 24.0899 21.9141 24.8145Z" fill="#4361EE"/>
<path d="M19.2383 17.8711C19.2883 18.958 19.4753 20.0342 19.7949 21.0742C19.3095 21.3892 18.8521 21.7453 18.4277 22.1387C17.4867 20.9017 16.9206 19.4204 16.7969 17.8711H19.2383Z" fill="#4361EE"/>
<path d="M31.5527 22.1582C31.1337 21.7627 30.6793 21.4064 30.1953 21.0938C30.5213 20.0452 30.7084 18.9585 30.752 17.8613H33.2031C33.0761 19.4222 32.5033 20.9137 31.5527 22.1582Z" fill="#4361EE"/>
<path d="M25.6836 13.4082V9.30664C26.9043 10.0879 27.8613 11.2402 28.4961 12.6563C27.6112 13.0732 26.6585 13.3279 25.6836 13.4082Z" fill="#4361EE"/>
<path d="M30.6348 23.1738C29.8943 23.8741 29.03 24.4305 28.0859 24.8145C28.7439 24.1001 29.2845 23.286 29.6875 22.4023C30.0248 22.6319 30.3417 22.89 30.6348 23.1738Z" fill="#4361EE"/>
<path d="M10.9379 15.2326C10.7434 16.7393 10.7815 18.267 11.0509 19.7621C11.0748 19.8901 11.0666 20.0221 11.0272 20.1462C10.9878 20.2704 10.9183 20.3829 10.825 20.4737L9.20973 22.0212L10.7798 25.6131L13.0163 25.4437C13.1486 25.4333 13.2813 25.457 13.4019 25.5123C13.5225 25.5677 13.6269 25.6529 13.7053 25.76C14.6021 26.9755 15.7028 28.0265 16.9584 28.8662C17.0703 28.9394 17.1613 29.0402 17.2227 29.159C17.2841 29.2778 17.3136 29.4104 17.3086 29.544L17.2408 31.7805L20.8892 33.1924L22.335 31.5207C22.42 31.4208 22.5286 31.3437 22.6508 31.2963C22.7731 31.249 22.9053 31.2329 23.0354 31.2496C24.5421 31.4441 26.0697 31.406 27.5648 31.1366C27.6929 31.1127 27.8248 31.1209 27.949 31.1603C28.0731 31.1997 28.1856 31.2692 28.2764 31.3625L29.8239 32.9778L33.4159 31.4077L33.2464 29.1712C33.2361 29.0389 33.2597 28.9062 33.315 28.7856C33.3704 28.665 33.4557 28.5606 33.5627 28.4822C34.7782 27.5854 35.8292 26.4847 36.669 25.2291C36.7421 25.1172 36.843 25.0262 36.9617 24.9648C37.0805 24.9034 37.2131 24.8739 37.3467 24.8789L39.5832 24.9467L40.9951 21.2983L39.3234 19.8525C39.2235 19.7675 39.1464 19.6589 39.0991 19.5367C39.0517 19.4144 39.0357 19.2822 39.0523 19.1521C39.2469 17.6454 39.2088 16.1178 38.9393 14.6227C38.9155 14.4946 38.9236 14.3627 38.963 14.2385C39.0024 14.1144 39.0719 14.0019 39.1653 13.9111L40.7805 12.3636L39.2104 8.77163L36.9739 8.94106C36.8417 8.95142 36.7089 8.9278 36.5883 8.87245C36.4677 8.8171 36.3633 8.73185 36.2849 8.62479C35.3881 7.40925 34.2875 6.35829 33.0318 5.51854C32.9199 5.44538 32.8289 5.34452 32.7675 5.22577C32.7062 5.10701 32.6766 4.97439 32.6817 4.84081L32.7494 2.60431L29.101 1.19238L27.6552 2.86411C27.5702 2.96398 27.4617 3.04108 27.3394 3.08842C27.2171 3.13575 27.0849 3.15183 26.9549 3.1352C25.4482 2.94064 23.9205 2.97874 22.4254 3.24815C22.2974 3.27202 22.1654 3.26389 22.0413 3.22448C21.9171 3.18507 21.8046 3.1156 21.7138 3.02224L20.1663 1.407L16.5744 2.97706L16.7438 5.21356C16.7542 5.34584 16.7305 5.47858 16.6752 5.59917C16.6198 5.71976 16.5346 5.8242 16.4275 5.90258C15.212 6.7994 14.161 7.90004 13.3213 9.15567C13.2481 9.26755 13.1473 9.3586 13.0285 9.41996C12.9097 9.48132 12.7771 9.5109 12.6435 9.50583L10.407 9.43806L8.99512 13.0865L10.6668 14.5323C10.7667 14.6173 10.8438 14.7258 10.8912 14.8481C10.9385 14.9704 10.9546 15.1026 10.9379 15.2326ZM25.0008 6.08331C27.1968 6.08331 29.3435 6.73452 31.1695 7.95458C32.9954 9.17464 34.4186 10.9088 35.259 12.9376C36.0994 14.9665 36.3193 17.1991 35.8908 19.3529C35.4624 21.5068 34.4049 23.4852 32.8521 25.038C31.2992 26.5909 29.3208 27.6484 27.1669 28.0768C25.0131 28.5052 22.7806 28.2854 20.7517 27.445C18.7228 26.6046 16.9887 25.1814 15.7686 23.3555C14.5485 21.5295 13.8973 19.3828 13.8973 17.1867C13.9008 14.243 15.0717 11.4208 17.1533 9.33922C19.2348 7.25767 22.057 6.08675 25.0008 6.08331Z" fill="#4361EE"/>
</svg>
