<svg width="50" height="50" viewBox="0 0 50 50" fill="none" xmlns="http://www.w3.org/2000/svg">
<g clip-path="url(#clip0_2765_12560)">
<g clip-path="url(#clip1_2765_12560)">
<g clip-path="url(#clip2_2765_12560)">
<path d="M35.3379 5H14.2871C9.15798 5 5 9.15798 5 14.2871V35.3379C5 40.467 9.15798 44.625 14.2871 44.625H35.3379C40.467 44.625 44.625 40.467 44.625 35.3379V14.2871C44.625 9.15798 40.467 5 35.3379 5Z" fill="#4361EE"/>
<path d="M11.2688 22.5269C11.2069 22.5269 11.1914 22.496 11.2224 22.4496L11.5474 22.0316C11.5784 21.9852 11.6558 21.9542 11.7177 21.9542H17.2435C17.3054 21.9542 17.3209 22.0007 17.2899 22.0471L17.0268 22.4496C16.9958 22.496 16.9185 22.5424 16.872 22.5424L11.2688 22.5269ZM8.93154 23.951C8.86963 23.951 8.85415 23.92 8.88511 23.8736L9.21016 23.4557C9.24111 23.4092 9.31851 23.3783 9.38042 23.3783H16.4386C16.5005 23.3783 16.5315 23.4247 16.516 23.4711L16.3922 23.8426C16.3767 23.9045 16.3148 23.9355 16.2529 23.9355L8.93154 23.951ZM12.6773 25.375C12.6154 25.375 12.6 25.3286 12.6309 25.2821L12.8476 24.8952C12.8786 24.8487 12.9405 24.8023 13.0024 24.8023H16.0981C16.16 24.8023 16.191 24.8487 16.191 24.9106L16.16 25.2821C16.16 25.344 16.0981 25.3905 16.0517 25.3905L12.6773 25.375ZM28.744 22.2483C27.7689 22.496 27.1033 22.6817 26.1437 22.9294C25.9115 22.9913 25.896 23.0068 25.6948 22.7746C25.4626 22.5115 25.2923 22.3412 24.9673 22.1864C23.9921 21.7066 23.0479 21.8459 22.1657 22.4186C21.1131 23.0997 20.5714 24.1058 20.5869 25.3595C20.6023 26.5978 21.4537 27.6194 22.6765 27.7896C23.729 27.9289 24.6113 27.5575 25.3078 26.7681C25.4471 26.5978 25.5709 26.4121 25.7257 26.1954H22.7384C22.4133 26.1954 22.3359 25.9941 22.4443 25.731C22.6455 25.2512 23.017 24.4463 23.2337 24.0438C23.2801 23.951 23.3885 23.7962 23.6207 23.7962H29.2548C29.2239 24.2141 29.2239 24.632 29.162 25.0499C28.9917 26.1644 28.5738 27.186 27.8927 28.0837C26.7783 29.5542 25.3233 30.4674 23.4813 30.7151C21.9645 30.9163 20.5559 30.6222 19.3176 29.6935C18.1722 28.8267 17.5221 27.6813 17.3519 26.2573C17.1506 24.5701 17.6459 23.0532 18.6675 21.7221C19.7665 20.2826 21.2215 19.3693 23.0015 19.0443C24.4565 18.7811 25.8496 18.9514 27.1033 19.8027C27.9237 20.3445 28.5119 21.0874 28.8988 21.9852C28.9917 22.1245 28.9298 22.2019 28.744 22.2483Z" fill="white"/>
<path d="M33.8675 30.808C32.4589 30.777 31.1742 30.3746 30.0907 29.4458C29.1775 28.6564 28.6048 27.6503 28.419 26.4585C28.1404 24.7094 28.6202 23.1616 29.6728 21.784C30.8027 20.298 32.1648 19.5241 34.0068 19.1991C35.5856 18.9205 37.0715 19.0752 38.4181 19.9885C39.6409 20.8243 40.3994 21.9542 40.6006 23.4402C40.8637 25.5298 40.2601 27.2324 38.8206 28.6874C37.799 29.7245 36.5452 30.3746 35.1057 30.6686C34.6878 30.746 34.2699 30.7615 33.8675 30.808ZM37.5513 24.5546C37.5359 24.3534 37.5359 24.1986 37.5049 24.0438C37.2263 22.5115 35.8177 21.6447 34.3473 21.9852C32.9078 22.3102 31.9791 23.2235 31.6385 24.6785C31.3599 25.8858 31.9481 27.1086 33.0626 27.6039C33.9139 27.9754 34.7652 27.9289 35.5856 27.511C36.8084 26.8764 37.4739 25.8858 37.5513 24.5546Z" fill="white"/>
</g>
</g>
</g>
<defs>
<clipPath id="clip0_2765_12560">
<rect width="40" height="40" fill="white" transform="translate(5 5)"/>
</clipPath>
<clipPath id="clip1_2765_12560">
<rect width="40" height="40" fill="white" transform="translate(5 5)"/>
</clipPath>
<clipPath id="clip2_2765_12560">
<rect width="40" height="40" fill="white" transform="translate(5 5)"/>
</clipPath>
</defs>
</svg>
