<svg width="116" height="121" viewBox="0 0 116 121" fill="none" xmlns="http://www.w3.org/2000/svg">
<path d="M0 58C0 25.9675 25.9675 0 58 0C90.0325 0 116 25.9675 116 58V63C116 95.0325 90.0325 121 58 121C25.9675 121 0 95.0325 0 63V58Z" fill="#E8F2FC"/>
<g clip-path="url(#clip0_2610_11946)">
<path d="M79.5 46H87V51H84.5V78.5H87V83.5H32V78.5H34.5V51H32V46H39.5V41C39.5 40.337 39.7634 39.7011 40.2322 39.2322C40.7011 38.7634 41.337 38.5 42 38.5H77C77.663 38.5 78.2989 38.7634 78.7678 39.2322C79.2366 39.7011 79.5 40.337 79.5 41V46ZM79.5 51H39.5V78.5H47V61H52V78.5H57V61H62V78.5H67V61H72V78.5H79.5V51ZM44.5 43.5V46H74.5V43.5H44.5Z" fill="#4361EE"/>
</g>
<defs>
<clipPath id="clip0_2610_11946">
<rect width="60" height="60" fill="white" transform="translate(29.5 31)"/>
</clipPath>
</defs>
</svg>
