<svg width="116" height="121" viewBox="0 0 116 121" fill="none" xmlns="http://www.w3.org/2000/svg">
<path d="M0 58C0 25.9675 25.9675 0 58 0C90.0325 0 116 25.9675 116 58V63C116 95.0325 90.0325 121 58 121C25.9675 121 0 95.0325 0 63V58Z" fill="#E8F2FC"/>
<path d="M67 66H59.5M59.5 66H52M59.5 66V58.5M59.5 66V73.5" stroke="#4361EE" stroke-width="4" stroke-linecap="round"/>
<path d="M84.5 61.5098V65.3125C84.5 75.0645 84.5 79.9407 81.571 82.9702C78.6422 86 73.928 86 64.5 86H54.5C45.0719 86 40.3579 86 37.4289 82.9702C34.5 79.9407 34.5 75.0645 34.5 65.3125V61.5098C34.5 55.7887 34.5 52.9282 35.798 50.5569C37.096 48.1855 39.4674 46.7138 44.2101 43.7703L49.2101 40.6672C54.2235 37.5557 56.7302 36 59.5 36C62.2698 36 64.7765 37.5557 69.79 40.6672L74.79 43.7703C79.5327 46.7138 81.904 48.1855 83.202 50.5569" stroke="#4361EE" stroke-width="4.5" stroke-linecap="round"/>
</svg>
