<svg width="116" height="121" viewBox="0 0 116 121" fill="none" xmlns="http://www.w3.org/2000/svg">
<path d="M0 58C0 25.9675 25.9675 0 58 0C90.0325 0 116 25.9675 116 58V63C116 95.0325 90.0325 121 58 121C25.9675 121 0 95.0325 0 63V58Z" fill="#E8F2FC"/>
<path d="M59.5 44.9354L58.1305 46.2159C58.485 46.5951 58.9807 46.8104 59.5 46.8104C60.0193 46.8104 60.515 46.5951 60.8695 46.2159L59.5 44.9354ZM53.0858 77.9908C49.4611 75.0493 45.2291 71.1926 41.9193 66.9711C38.5733 62.7036 36.375 58.3223 36.375 54.2938H32.625C32.625 59.5886 35.451 64.7991 38.9682 69.2848C42.5216 73.8168 46.9918 77.8748 50.7228 80.9026L53.0858 77.9908ZM36.375 54.2938C36.375 47.0323 39.5441 42.5433 43.465 41.008C47.3773 39.4761 52.851 40.5695 58.1305 46.2159L60.8695 43.6548C54.8995 37.2697 47.8731 35.2547 42.0978 37.5162C36.3311 39.7742 32.625 45.9803 32.625 54.2938H36.375ZM68.2772 80.9026C72.0082 77.8748 76.4785 73.8171 80.0317 69.285C83.549 64.7991 86.375 59.5886 86.375 54.2937H82.625C82.625 58.3223 80.4268 62.7036 77.0808 66.9711C73.771 71.1926 69.539 75.0493 65.9142 77.9908L68.2772 80.9026ZM86.375 54.2937C86.375 45.9802 82.669 39.7742 76.9022 37.5162C71.127 35.2547 64.1005 37.2697 58.1305 43.6548L60.8695 46.2159C66.149 40.5695 71.6227 39.4761 75.535 41.008C79.4557 42.5433 82.625 47.0322 82.625 54.2937H86.375ZM50.7228 80.9026C53.9014 83.4821 56.1057 85.3751 59.5 85.3751V81.6251C57.6928 81.6251 56.5673 80.8158 53.0858 77.9908L50.7228 80.9026ZM65.9142 77.9908C62.4327 80.8158 61.3072 81.6251 59.5 81.6251V85.3751C62.8943 85.3751 65.0985 83.4821 68.2772 80.9026L65.9142 77.9908Z" fill="#4361EE"/>
<path d="M75.75 53.5001H70.75M70.75 53.5001H65.75M70.75 53.5001V48.5M70.75 53.5001V58.5" stroke="#4361EE" stroke-width="3.75" stroke-linecap="round"/>
</svg>
