<svg width="116" height="121" viewBox="0 0 116 121" fill="none" xmlns="http://www.w3.org/2000/svg">
<path d="M0 58C0 25.9675 25.9675 0 58 0C90.0325 0 116 25.9675 116 58V63C116 95.0325 90.0325 121 58 121C25.9675 121 0 95.0325 0 63V58Z" fill="#E8F2FC"/>
<path fill-rule="evenodd" clip-rule="evenodd" d="M56.87 34.125H62.13C64.3762 34.1249 66.2493 34.1249 67.7363 34.3248C69.3058 34.5358 70.7228 35 71.8613 36.1387C73 37.2773 73.4642 38.6943 73.6752 40.2638C73.732 40.6865 73.7727 41.1403 73.8018 41.6251C75.2752 41.6259 76.521 41.6355 77.5475 41.74C78.7313 41.8604 79.8295 42.1222 80.8195 42.7837C81.5702 43.2853 82.2148 43.9298 82.7163 44.6805C83.3778 45.6705 83.6398 46.7689 83.76 47.9526C83.875 49.0834 83.875 50.4802 83.875 52.1542V84.125H84.5C85.5355 84.125 86.375 84.9645 86.375 86C86.375 87.0355 85.5355 87.875 84.5 87.875H34.5C33.4645 87.875 32.625 87.0355 32.625 86C32.625 84.9645 33.4645 84.125 34.5 84.125H35.125V52.1542C35.1249 50.4802 35.1249 49.0834 35.2399 47.9526C35.3604 46.7689 35.6221 45.6705 36.2836 44.6805C36.7852 43.9298 37.4298 43.2853 38.1804 42.7837C39.1704 42.1222 40.2689 41.8604 41.4526 41.74C42.4791 41.6355 43.7249 41.6259 45.1982 41.6251C45.2273 41.1403 45.2679 40.6865 45.3248 40.2638C45.5358 38.6943 46 37.2773 47.1386 36.1387C48.2773 35 49.6943 34.5358 51.2638 34.3248C52.7507 34.1249 54.6238 34.1249 56.87 34.125ZM45.1251 45.3753C43.6686 45.3769 42.6396 45.3886 41.8321 45.4707C40.9449 45.561 40.535 45.7205 40.2639 45.9017C39.9226 46.1297 39.6297 46.4226 39.4016 46.7639C39.2205 47.035 39.0609 47.4449 38.9707 48.3321C38.8773 49.2506 38.875 50.4554 38.875 52.25V84.125H45.125V67.875H43.25C42.2145 67.875 41.375 67.0355 41.375 66C41.375 64.9645 42.2145 64.125 43.25 64.125H45.125V60.375H43.25C42.2145 60.375 41.375 59.5355 41.375 58.5C41.375 57.4645 42.2145 56.625 43.25 56.625H45.125V52.875H43.25C42.2145 52.875 41.375 52.0356 41.375 51C41.375 49.9645 42.2145 49.125 43.25 49.125H45.125V45.87C45.125 45.7031 45.125 45.5381 45.1251 45.3753ZM48.875 84.125H57.625V78.5C57.625 77.4645 58.4645 76.625 59.5 76.625C60.5355 76.625 61.375 77.4645 61.375 78.5V84.125H70.125V46C70.125 43.59 70.121 41.9711 69.9588 40.7635C69.8035 39.6098 69.5355 39.1161 69.2097 38.7903C68.884 38.4645 68.3903 38.1965 67.2365 38.0414C66.029 37.879 64.41 37.875 62 37.875H57C54.59 37.875 52.9711 37.879 51.7635 38.0414C50.6098 38.1965 50.1161 38.4645 49.7903 38.7903C49.4645 39.1161 49.1964 39.6098 49.0413 40.7635C48.879 41.9711 48.875 43.59 48.875 46V84.125ZM73.875 52.875H75.75C76.7855 52.875 77.625 52.0356 77.625 51C77.625 49.9645 76.7855 49.125 75.75 49.125H73.875V45.87C73.875 45.7031 73.875 45.5381 73.875 45.3753C75.3315 45.3769 76.3602 45.3886 77.168 45.4707C78.055 45.561 78.465 45.7205 78.7363 45.9017C79.0773 46.1297 79.3703 46.4226 79.5983 46.7639C79.7795 47.035 79.939 47.4449 80.0293 48.3321C80.1227 49.2506 80.125 50.4554 80.125 52.25V84.125H73.875V67.875H75.75C76.7855 67.875 77.625 67.0355 77.625 66C77.625 64.9645 76.7855 64.125 75.75 64.125H73.875V60.375H75.75C76.7855 60.375 77.625 59.5355 77.625 58.5C77.625 57.4645 76.7855 56.625 75.75 56.625H73.875V52.875ZM59.5 41.625C60.5355 41.625 61.375 42.4645 61.375 43.5V46.625H64.5C65.5355 46.625 66.375 47.4645 66.375 48.5C66.375 49.5356 65.5355 50.375 64.5 50.375H61.375V53.5C61.375 54.5356 60.5355 55.375 59.5 55.375C58.4645 55.375 57.625 54.5356 57.625 53.5V50.375H54.5C53.4645 50.375 52.625 49.5356 52.625 48.5C52.625 47.4645 53.4645 46.625 54.5 46.625H57.625V43.5C57.625 42.4645 58.4645 41.625 59.5 41.625ZM52.625 61C52.625 59.9645 53.4645 59.125 54.5 59.125H64.5C65.5355 59.125 66.375 59.9645 66.375 61C66.375 62.0355 65.5355 62.875 64.5 62.875H54.5C53.4645 62.875 52.625 62.0355 52.625 61ZM52.625 68.5C52.625 67.4645 53.4645 66.625 54.5 66.625H64.5C65.5355 66.625 66.375 67.4645 66.375 68.5C66.375 69.5355 65.5355 70.375 64.5 70.375H54.5C53.4645 70.375 52.625 69.5355 52.625 68.5Z" fill="#4361EE"/>
</svg>
