<svg width="116" height="121" viewBox="0 0 116 121" fill="none" xmlns="http://www.w3.org/2000/svg">
<path d="M0 58C0 25.9675 25.9675 0 58 0C90.0325 0 116 25.9675 116 58V63C116 95.0325 90.0325 121 58 121C25.9675 121 0 95.0325 0 63V58Z" fill="#E8F2FC"/>
<path d="M80.9 49.9275L60.9 36.4275C60.4866 36.1481 59.999 35.9988 59.5 35.9988C59.001 35.9988 58.5134 36.1481 58.1 36.4275L38.1 49.9275C37.7611 50.1566 37.4835 50.4654 37.2918 50.8267C37.1 51.1881 36.9998 51.591 37 52V83.5C37 84.1631 37.2634 84.799 37.7322 85.2678C38.2011 85.7367 38.837 86 39.5 86H79.5C80.163 86 80.7989 85.7367 81.2678 85.2678C81.7366 84.799 82 84.1631 82 83.5V52C82.0002 51.591 81.9 51.1881 81.7082 50.8267C81.5165 50.4654 81.2389 50.1566 80.9 49.9275ZM77 81H42V53.33L59.5 41.515L77 53.33V81ZM62 56V61H67V66H62V71H57V66H52V61H57V56H62Z" fill="#4361EE"/>
</svg>
