<svg width="50" height="50" viewBox="0 0 50 50" fill="none" xmlns="http://www.w3.org/2000/svg">
<g clip-path="url(#clip0_2777_11389)">
<g clip-path="url(#clip1_2777_11389)">
<g clip-path="url(#clip2_2777_11389)">
<path d="M43 41.0714C43 42.1321 42.1322 43 41.0714 43H35.9286C34.8678 43 34 42.1321 34 41.0714C34 39.3357 34.99 37.8314 36.43 37.0793C35.7357 36.4879 35.2857 35.62 35.2857 34.6429C35.2857 32.8686 36.7257 31.4286 38.5 31.4286C40.2743 31.4286 41.7143 32.8686 41.7143 34.6429C41.7143 35.62 41.2643 36.4879 40.57 37.0793C42.01 37.8314 43 39.3357 43 41.0714Z" fill="#4361EE"/>
<path d="M29.5 16.6429C29.5 17.7035 28.6322 18.5714 27.5714 18.5714H22.4286C21.3678 18.5714 20.5 17.7035 20.5 16.6429C20.5 14.9071 21.49 13.4028 22.93 12.6507C22.2357 12.0593 21.7857 11.1914 21.7857 10.2143C21.7857 8.43999 23.2257 7 25 7C26.7743 7 28.2143 8.43999 28.2143 10.2143C28.2143 11.1914 27.7643 12.0593 27.07 12.6507C28.51 13.4028 29.5 14.9071 29.5 16.6429Z" fill="#4361EE"/>
<path d="M16 41.0714C16 42.1321 15.1322 43 14.0714 43H8.92857C7.86784 43 7 42.1321 7 41.0714C7 39.3357 7.98999 37.8314 9.43002 37.0793C8.73572 36.4879 8.28571 35.62 8.28571 34.6429C8.28571 32.8686 9.72571 31.4286 11.5 31.4286C13.2743 31.4286 14.7143 32.8686 14.7143 34.6429C14.7143 35.62 14.2643 36.4879 13.57 37.0793C15.01 37.8314 16 39.3357 16 41.0714Z" fill="#4361EE"/>
<path d="M9.7315 29.7828C9.76351 29.7828 9.79616 29.7806 9.82881 29.7756C10.1797 29.7222 10.4208 29.3945 10.3675 29.0436C10.2658 28.3725 10.2143 27.6609 10.2143 26.9286C10.2143 20.9134 13.8046 15.5533 19.3649 13.2588C19.6267 13.1781 19.8157 12.9332 19.8157 12.6442C19.8157 12.2056 19.331 11.8833 18.9261 12.049C12.8529 14.5313 8.92856 20.3716 8.92856 26.9286C8.92856 27.7252 8.98506 28.5015 9.09681 29.2363C9.14515 29.5546 9.41887 29.7828 9.7315 29.7828Z" fill="#4361EE"/>
<path d="M30.6062 13.2468C36.1835 15.5348 39.7857 20.9027 39.7857 26.9286C39.7857 27.6609 39.7342 28.3725 39.6325 29.0436C39.5792 29.3945 39.8202 29.7222 40.1712 29.7756C40.2038 29.7806 40.2365 29.7828 40.2685 29.7828C40.5811 29.7828 40.8549 29.5546 40.9032 29.2363C41.0149 28.5015 41.0714 27.7252 41.0714 26.9286C41.0714 20.3716 37.1471 14.5313 31.0739 12.049C30.9967 12.0176 30.9144 12.0013 30.8309 12.0013H30.824C30.4687 12.0013 30.1843 12.2891 30.1843 12.6442C30.1843 12.9204 30.3607 13.1558 30.6062 13.2468Z" fill="#4361EE"/>
<path d="M31.158 40.3661C29.2294 41.2607 27.1577 41.7143 25 41.7143C22.8423 41.7143 20.7706 41.2607 18.842 40.3661C18.5181 40.2164 18.1376 40.3567 17.9882 40.6787C17.8388 41.0008 17.9788 41.3831 18.3009 41.5325C20.4002 42.5062 22.654 43 25 43C27.3461 43 29.5998 42.5062 31.6992 41.5325C32.0212 41.3831 32.1612 41.0008 32.0118 40.6787C31.863 40.3573 31.4826 40.217 31.158 40.3661Z" fill="#4361EE"/>
<path d="M33.3571 28.2143H33.1257C32.92 27.34 32.5793 26.5171 32.11 25.7586L32.2707 25.5979C32.7721 25.0964 32.7721 24.28 32.2707 23.7786L31.3643 22.8721C30.8628 22.3707 30.0464 22.3707 29.545 22.8721L29.3843 23.0329C28.6193 22.5636 27.8028 22.2229 26.9285 22.0171V21.7857C26.9285 21.0785 26.35 20.5 25.6428 20.5H24.3571C23.65 20.5 23.0714 21.0785 23.0714 21.7857V22.0171C22.1971 22.2229 21.3807 22.5636 20.6157 23.0329L20.455 22.8721C19.9536 22.3707 19.1371 22.3707 18.6357 22.8721L17.7293 23.7786C17.2278 24.28 17.2278 25.0964 17.7293 25.5979L17.89 25.7586C17.4207 26.5171 17.08 27.34 16.8743 28.2143H16.6428C15.9357 28.2143 15.3571 28.7928 15.3571 29.5V30.7857C15.3571 31.4929 15.9357 32.0714 16.6428 32.0714H16.8743C17.08 32.9457 17.4207 33.7686 17.89 34.5272L17.7293 34.6879C17.2278 35.1893 17.2278 36.0057 17.7293 36.5071L18.6357 37.4136C19.1371 37.915 19.9536 37.915 20.455 37.4136L20.6157 37.2529C21.3807 37.7221 22.1971 38.0629 23.0714 38.2686V38.5C23.0714 39.2071 23.65 39.7857 24.3571 39.7857H25.6428C26.35 39.7857 26.9285 39.2071 26.9285 38.5V38.2686C27.8028 38.0629 28.6193 37.7221 29.3843 37.2529L29.545 37.4136C30.0464 37.915 30.8628 37.915 31.3643 37.4136L32.2707 36.5071C32.7721 36.0057 32.7721 35.1893 32.2707 34.6879L32.11 34.5272C32.5793 33.7686 32.92 32.9457 33.1257 32.0714H33.3571C34.0643 32.0714 34.6428 31.4929 34.6428 30.7857V29.5C34.6428 28.7928 34.0643 28.2143 33.3571 28.2143ZM25 35.9286C23.4571 35.9286 21.9979 35.3243 20.9114 34.2314C19.8186 33.145 19.2143 31.6921 19.2143 30.1429C19.2143 26.9543 21.8114 24.3571 25 24.3571C26.5429 24.3571 28.0343 24.9807 29.0886 26.0671C30.1621 27.1086 30.7857 28.6 30.7857 30.1429C30.7857 33.3314 28.1886 35.9286 25 35.9286Z" fill="#4361EE"/>
<path d="M29.5 30.1429C29.5 32.6243 27.4814 34.6429 25 34.6429C23.7979 34.6429 22.6664 34.1735 21.8179 33.325C20.9693 32.4764 20.5 31.345 20.5 30.1429C20.5 27.6614 22.5186 25.6429 25 25.6429C26.1957 25.6429 27.3528 26.125 28.1821 26.9736C29.0179 27.79 29.5 28.9472 29.5 30.1429Z" fill="#4361EE"/>
</g>
</g>
</g>
<defs>
<clipPath id="clip0_2777_11389">
<rect width="40" height="40" fill="white" transform="translate(5 5)"/>
</clipPath>
<clipPath id="clip1_2777_11389">
<rect width="40" height="40" fill="white" transform="translate(5 5)"/>
</clipPath>
<clipPath id="clip2_2777_11389">
<rect width="40" height="40" fill="white" transform="translate(5 5)"/>
</clipPath>
</defs>
</svg>
