<svg width="50" height="50" viewBox="0 0 50 50" fill="none" xmlns="http://www.w3.org/2000/svg">
<path d="M4.99045 46H35.1675C35.1984 46 35.2292 46 35.2662 46C35.2786 46 35.2909 46 35.3094 46C35.3279 46 35.3464 46 35.3649 45.9938C35.3834 45.9938 35.3957 45.9876 35.4142 45.9815C35.4327 45.9815 35.4451 45.9753 35.4636 45.9691C35.4759 45.9691 35.4944 45.9567 35.5067 45.9506C35.5191 45.9506 35.5376 45.9382 35.5499 45.932C35.5623 45.932 35.5808 45.9197 35.5931 45.9135C35.6054 45.9073 35.6239 45.9011 35.6363 45.8888C35.6486 45.8826 35.6609 45.8764 35.6733 45.8641C35.6856 45.8579 35.7041 45.8455 35.7164 45.8394C35.7288 45.8332 35.7411 45.8208 35.7596 45.8085C35.7719 45.8023 35.7843 45.7899 35.7966 45.7776C35.8089 45.7652 35.8275 45.7529 35.8398 45.7405C35.846 45.7343 35.8583 45.7281 35.8645 45.7158L45.7076 36.0282C45.7261 36.0097 45.7385 35.9973 45.757 35.9788C45.7631 35.9726 45.7693 35.9665 45.7755 35.9603C45.794 35.9356 45.8125 35.9109 45.831 35.8861C45.8433 35.8676 45.8556 35.8491 45.868 35.8305C45.8741 35.8182 45.8803 35.812 45.8865 35.7996C45.8927 35.7811 45.905 35.7688 45.9112 35.7502C45.9173 35.7379 45.9235 35.7255 45.9297 35.7132C45.9297 35.7008 45.942 35.6823 45.9482 35.6699C45.9482 35.6514 45.9605 35.639 45.9667 35.6205C45.9667 35.6081 45.9728 35.5958 45.979 35.5772C45.979 35.5587 45.9913 35.5402 45.9913 35.5278C45.9975 35.4969 46.0037 35.466 46.0037 35.4351C46.0037 35.4289 46.0037 35.4166 46.0037 35.4104C46.0037 35.3857 46.0037 35.361 46.0037 35.3363V4.98853C46.0037 4.44484 45.5596 4 45.0169 4H14.8336C14.8336 4 14.8151 4 14.8028 4C14.7843 4 14.7596 4 14.7411 4C14.7288 4 14.7103 4 14.6979 4C14.6794 4 14.6609 4 14.6486 4.00618C14.6301 4.00618 14.6178 4.01236 14.5993 4.01853C14.5808 4.01853 14.5684 4.02471 14.5499 4.03089C14.5376 4.03089 14.5191 4.04325 14.5067 4.04943C14.4944 4.04943 14.4759 4.06178 14.4636 4.06796C14.4512 4.06796 14.4327 4.08032 14.4204 4.0865C14.4081 4.09267 14.3896 4.09885 14.3772 4.11121C14.3649 4.11739 14.3526 4.12357 14.3402 4.13592C14.3279 4.1421 14.3094 4.15446 14.2971 4.16064C14.2847 4.16681 14.2724 4.17917 14.2539 4.19153C14.2415 4.20388 14.2292 4.21006 14.2169 4.22242C14.2045 4.23477 14.186 4.24713 14.1737 4.25949C14.1675 4.26567 14.1552 4.27184 14.149 4.2842L4.2997 13.9718C4.2812 13.9903 4.26886 14.0026 4.25036 14.0212C4.24419 14.0274 4.23802 14.0335 4.23186 14.0397C4.21335 14.0644 4.19485 14.0891 4.17635 14.1139C4.16401 14.1324 4.15168 14.1509 4.13934 14.1695C4.13318 14.1818 4.12701 14.188 4.12084 14.2004C4.11468 14.2189 4.10234 14.2312 4.09617 14.2498C4.09001 14.2621 4.08384 14.2745 4.07767 14.2868C4.07767 14.2992 4.06534 14.3177 4.05917 14.3301C4.05917 14.3486 4.04683 14.361 4.04067 14.3795C4.04067 14.3919 4.0345 14.4042 4.02833 14.4228C4.02833 14.4413 4.016 14.4598 4.016 14.4722C4.00983 14.5031 4.00366 14.534 4.00366 14.5649C4.00366 14.571 4.00366 14.5834 4.00366 14.5896C4.00366 14.6143 4.00366 14.639 4.00366 14.6637V44.9991C4.00366 45.5428 4.44772 45.9876 4.99045 45.9876V46ZM34.1808 44.0229H5.97723V15.6646H15.3455V30.9373L17.9482 29.1271L19.9464 30.9373L21.9076 29.053L24.9605 30.9373V15.6646H34.1808V44.0229ZM36.1543 15.0838L44.0178 7.10768V34.91L36.1543 42.6514V15.0838ZM34.7543 13.6876H26.1323L33.6812 5.97705H42.3587L34.7605 13.6876H34.7543ZM15.2345 5.97705H23.986L16.1719 13.6876H7.40807L15.2345 5.97705Z" fill="#283A8F"/>
<path d="M17.6611 36H7.35238C7.15661 36 7.00366 36.1685 7.00366 36.3694V42.6306C7.00366 42.838 7.16273 43 7.35238 43H17.6549C17.8507 43 18.0037 42.8315 18.0037 42.6306V36.3694C18.0037 36.162 17.8446 36 17.6549 36H17.6611ZM17.3062 42.2611H7.7011V36.7389H17.3062V42.2611Z" fill="#283A8F"/>
<path d="M9.00366 37H8.00366V41H9.00366V37Z" fill="#283A8F"/>
<path d="M17.0037 37H16.0037V41H17.0037V37Z" fill="#283A8F"/>
<path d="M10.0037 37H9.00366V41H10.0037V37Z" fill="#283A8F"/>
<path d="M12.0037 37H11.0037V41H12.0037V37Z" fill="#283A8F"/>
<path d="M14.0037 37H13.0037V41H14.0037V37Z" fill="#283A8F"/>
<path d="M13.0037 37H12.0037V41H13.0037V37Z" fill="#283A8F"/>
<path d="M11.0037 37H10.0037V41H11.0037V37Z" fill="#283A8F"/>
<path d="M16.0037 37H15.0037V41H16.0037V37Z" fill="#283A8F"/>
</svg>
