<svg width="39" height="50" viewBox="0 0 39 50" fill="none" xmlns="http://www.w3.org/2000/svg">
<g clip-path="url(#clip0_1392_4063)">
<path d="M38.4534 34.671C37.4409 30.6199 35.6049 26.306 31.7858 24.123C31.8209 19.9024 31.0501 15.6784 29.4243 11.7726C27.3361 7.12655 24.3299 2.55656 19.7435 0C16.4325 1.77126 13.9343 4.71182 12.0493 7.8738C8.83642 12.9973 7.55055 19.0722 7.43493 25.0398C5.25911 25.9808 3.51426 27.7036 2.40708 29.762C0.57463 33.1488 -0.0245076 37.0615 0.0105297 40.8669C0.0560781 42.2577 -0.175168 43.7314 0.39594 45.046C0.606164 45.0633 1.04063 45.1014 1.25786 45.1256C3.02374 43.0015 4.681 40.6559 7.23522 39.3759C9.05365 38.0786 11.3661 37.9506 13.5174 38.3242C14.2707 39.4935 15.0836 40.6317 15.8299 41.8079C12.5854 43.1052 11.3486 46.7342 11.4852 49.9446C11.7725 49.9585 12.3542 49.9827 12.645 50C12.8797 47.741 13.2686 45.1706 15.3113 43.7798C16.3449 42.7973 17.813 42.8735 19.1444 42.9184C19.1969 43.638 18.7309 44.7693 19.8241 44.8938C20.7526 44.7243 20.4197 43.5584 20.4583 42.9184C21.8563 42.9357 23.4295 42.9461 24.5156 43.9701C26.2254 45.4473 26.4216 47.8274 26.6003 49.917C26.9087 49.9343 27.5358 49.9689 27.8441 49.9862C27.9948 46.6651 26.7685 42.8804 23.3384 41.635C24.5156 40.438 24.8379 38.0959 26.8876 38.1512C29.5715 37.615 32.0171 39.2133 33.9897 40.8151C35.7696 42.1193 36.8067 44.1535 38.6041 45.4439C39.1752 41.8875 39.1367 38.2066 38.4534 34.6745V34.671ZM19.733 1.56023C21.9228 3.117 23.8359 5.06123 25.2409 7.34104C21.5515 7.30644 17.8585 7.30644 14.1691 7.22341C15.6126 4.97475 17.5152 3.07203 19.733 1.56023ZM1.33844 42.3269C1.31041 38.006 1.79042 33.4567 4.16245 29.717C4.95779 28.3817 6.21213 27.4165 7.54004 26.6311C7.96049 29.9903 8.47203 33.4014 10.0417 36.4526C6.61506 37.5043 3.84711 39.8914 1.33494 42.3269H1.33844ZM19.0953 41.5588C16.9861 41.7664 16.0506 39.7668 15.1607 38.2723C16.4956 38.2931 17.8305 38.3415 19.1689 38.3554C19.1374 39.4243 19.1234 40.4899 19.0953 41.5588ZM20.5179 41.6626C20.4828 40.5625 20.4898 39.4659 20.4898 38.3727C21.597 38.3865 22.7077 38.3761 23.8219 38.383C22.9494 39.6457 22.3223 41.5796 20.5143 41.6661L20.5179 41.6626ZM26.4497 36.8643C24.4666 37.0996 22.4589 36.8609 20.4723 36.8782C20.4373 34.6433 20.5389 32.405 20.4408 30.1771C20.5108 29.3676 19.1023 29.2707 19.2004 30.1252C19.0988 32.3912 19.204 34.6641 19.1479 36.9335C16.9055 36.8955 14.6456 37.0892 12.4137 36.8332C10.8335 35.6708 10.343 33.6678 9.849 31.893C7.89392 24.1092 8.96256 15.5089 13.2791 8.65218C17.5607 8.44807 21.8493 8.66256 26.1308 8.50688C30.3073 15.3774 31.6036 23.9431 29.3507 31.6716C28.7341 33.5155 28.4678 35.9649 26.4497 36.8643ZM37.6371 42.2369C35.4087 39.6042 32.5216 37.4282 29.151 36.4665C30.6752 33.0969 31.4109 29.4541 31.7158 25.7905C36.5859 29.6928 37.8753 36.3523 37.6371 42.2369Z" fill="#283A8F"/>
<path d="M17.7079 13.492C13.7697 14.9346 14.036 21.39 18.1038 22.4728C21.4779 23.8082 25.3705 20.3418 24.2844 16.8927C23.7798 14.0248 20.3567 12.4196 17.7079 13.492ZM18.0337 20.8261C15.5706 19.5842 15.8894 15.5435 18.5803 14.7755C20.5494 14.087 22.8619 15.6576 22.9144 17.723C23.2753 20.1584 20.15 22.2964 18.0302 20.8261H18.0337Z" fill="#283A8F"/>
</g>
<defs>
<clipPath id="clip0_1392_4063">
<rect width="39" height="50" fill="white"/>
</clipPath>
</defs>
</svg>
