<svg width="50" height="43" viewBox="0 0 50 43" fill="none" xmlns="http://www.w3.org/2000/svg">
<path d="M44.0026 40H5.9975C4.61751 40 3.4884 38.8829 3.4884 37.5175V5.48251C3.4884 4.11714 4.61751 3 5.9975 3H44.0026C45.3826 3 46.5117 4.11714 46.5117 5.48251V37.5175C46.5117 38.8829 45.3826 40 44.0026 40Z" stroke="#283A8F" stroke-width="1.5" stroke-miterlimit="10" stroke-linecap="round" stroke-linejoin="round"/>
<path d="M3.4884 9.72726H46.5117" stroke="#283A8F" stroke-width="1.5" stroke-miterlimit="10" stroke-linecap="round" stroke-linejoin="round"/>
<path d="M18.154 24.6447C20.5569 22.2673 20.5569 18.4129 18.154 16.0355C15.7512 13.6581 11.8555 13.6581 9.45263 16.0355C7.04981 18.4129 7.04981 22.2673 9.45263 24.6447C11.8555 27.0221 15.7512 27.0221 18.154 24.6447Z" stroke="#283A8F" stroke-width="1.5" stroke-miterlimit="10" stroke-linecap="round" stroke-linejoin="round"/>
<path d="M13.802 22.8522C15.2042 22.8522 16.3409 21.7275 16.3409 20.3401C16.3409 18.9528 15.2042 17.8281 13.802 17.8281C12.3998 17.8281 11.2631 18.9528 11.2631 20.3401C11.2631 21.7275 12.3998 22.8522 13.802 22.8522Z" stroke="#283A8F" stroke-width="1.5" stroke-miterlimit="10" stroke-linecap="round" stroke-linejoin="round"/>
<path d="M11.71 14.6159L12.94 17.9781" stroke="#283A8F" stroke-width="1.5" stroke-miterlimit="10" stroke-linecap="round" stroke-linejoin="round"/>
<path d="M14.6678 22.7022L15.8979 26.0643" stroke="#283A8F" stroke-width="1.5" stroke-miterlimit="10" stroke-linecap="round" stroke-linejoin="round"/>
<path d="M16.1904 19.4851L19.5886 18.2681" stroke="#283A8F" stroke-width="1.5" stroke-miterlimit="10" stroke-linecap="round" stroke-linejoin="round"/>
<path d="M8.01599 22.4122L11.4142 21.1951" stroke="#283A8F" stroke-width="1.5" stroke-miterlimit="10" stroke-linecap="round" stroke-linejoin="round"/>
<path d="M23.224 25.5306H43.2703" stroke="#283A8F" stroke-width="1.5" stroke-miterlimit="10" stroke-linecap="round" stroke-linejoin="round"/>
<path d="M28.1776 25.5305H24.778C24.5845 25.5305 24.4263 25.374 24.4263 25.1826V16.6575C24.4263 16.4661 24.5845 16.3096 24.778 16.3096H28.1776C28.3711 16.3096 28.5293 16.4661 28.5293 16.6575V25.1826C28.5293 25.374 28.3711 25.5305 28.1776 25.5305Z" stroke="#283A8F" stroke-width="1.5" stroke-miterlimit="10" stroke-linecap="round" stroke-linejoin="round"/>
<path d="M34.9132 25.5306H31.5881C31.3741 25.5306 31.1991 25.3574 31.1991 25.1457V14.6356C31.1991 14.424 31.3741 14.2508 31.5881 14.2508H34.9132C35.1271 14.2508 35.3021 14.424 35.3021 14.6356V25.1457C35.3021 25.3574 35.1271 25.5306 34.9132 25.5306Z" stroke="#283A8F" stroke-width="1.5" stroke-miterlimit="10" stroke-linecap="round" stroke-linejoin="round"/>
<path d="M41.6509 25.5306H38.3892C38.1578 25.5306 37.9685 25.3433 37.9685 25.1143V12.7532C37.9685 12.5243 38.1578 12.337 38.3892 12.337H41.6509C41.8822 12.337 42.0715 12.5243 42.0715 12.7532V25.1143C42.0715 25.3433 41.8822 25.5306 41.6509 25.5306Z" stroke="#283A8F" stroke-width="1.5" stroke-miterlimit="10" stroke-linecap="round" stroke-linejoin="round"/>
<path d="M11.9792 31.7359H10.9981C10.7037 31.7359 10.4629 31.4977 10.4629 31.2064V30.2356C10.4629 29.9444 10.7037 29.7061 10.9981 29.7061H11.9792C12.2736 29.7061 12.5144 29.9444 12.5144 30.2356V31.2064C12.5144 31.4976 12.2736 31.7359 11.9792 31.7359Z" fill="#283A8F" stroke="#283A8F" stroke-miterlimit="10" stroke-linecap="round" stroke-linejoin="round"/>
<path d="M11.9792 36.8393H10.9981C10.7037 36.8393 10.4629 36.6011 10.4629 36.3099V35.3391C10.4629 35.0479 10.7037 34.8096 10.9981 34.8096H11.9792C12.2736 34.8096 12.5144 35.0479 12.5144 35.3391V36.3099C12.5144 36.6011 12.2736 36.8393 11.9792 36.8393Z" fill="#283A8F" stroke="#283A8F" stroke-miterlimit="10" stroke-linecap="round" stroke-linejoin="round"/>
<path d="M14.4189 30.721H40.0629" stroke="#283A8F" stroke-width="1.5" stroke-miterlimit="10" stroke-linecap="round" stroke-linejoin="round"/>
<path d="M14.4189 35.8245H40.0629" stroke="#283A8F" stroke-width="1.5" stroke-miterlimit="10" stroke-linecap="round" stroke-linejoin="round"/>
</svg>
