<svg width="116" height="121" viewBox="0 0 116 121" fill="none" xmlns="http://www.w3.org/2000/svg">
<path d="M0 58C0 25.9675 25.9675 0 58 0C90.0325 0 116 25.9675 116 58V63C116 95.0325 90.0325 121 58 121C25.9675 121 0 95.0325 0 63V58Z" fill="#E8F2FC"/>
<g clip-path="url(#clip0_2610_11900)">
<path d="M84.6821 35.8257C80.6926 31.8361 76.9471 31 74.5031 31C72.5414 31 71.2721 31.5316 71.0413 31.6394L70.6592 31.8134L33.4387 69.032L35.4571 80.1532C35.3776 80.2156 35.3039 80.2856 35.2282 80.3575L30.5198 85.0639C29.1597 86.424 29.1597 88.626 30.5198 89.9823C31.1989 90.6633 32.088 91 32.9771 91C33.8681 91 34.7572 90.6633 35.4401 89.9823L40.1465 85.2796C40.2184 85.2058 40.2884 85.1301 40.3527 85.0507L51.472 87.0672L88.6944 49.8467L88.8703 49.4684C88.9895 49.2017 91.7494 42.8929 84.6821 35.8257ZM84.737 47.2457L49.9114 82.0751L40.2014 80.3045L38.4327 70.5946L57.2472 51.78L60.5255 55.0583C60.7525 55.2853 61.0476 55.3988 61.3465 55.3988C61.6435 55.3988 61.9367 55.2853 62.1656 55.0583C62.6158 54.6062 62.6158 53.8722 62.1656 53.4182L58.8873 50.1399L62.1637 46.8598L65.4439 50.1399C65.6709 50.3669 65.9641 50.4823 66.263 50.4823C66.5618 50.4823 66.8569 50.3669 67.0858 50.1399C67.536 49.6897 67.536 48.9557 67.0858 48.5036L63.8076 45.2216L67.0858 41.9433L70.3622 45.2216C70.5873 45.4486 70.8843 45.564 71.1851 45.564C71.4783 45.564 71.7753 45.4467 72.0042 45.2197C72.4544 44.7695 72.4544 44.0355 72.0042 43.5815L68.7297 40.3032L73.2546 35.7746C74.3025 35.523 77.5354 35.2317 81.4077 39.102C85.3631 43.0632 84.9791 46.2771 84.737 47.2457Z" fill="#4361EE"/>
<path d="M43.2127 70.536C42.3066 71.4421 43.086 73.6875 44.953 75.5489C46.8163 77.416 49.0655 78.1953 49.9679 77.2892L62.0424 65.2147L55.2872 58.4614L43.2127 70.536Z" fill="#4361EE"/>
</g>
<defs>
<clipPath id="clip0_2610_11900">
<rect width="60" height="60" fill="white" transform="translate(29.5 31)"/>
</clipPath>
</defs>
</svg>
