<svg width="50" height="50" viewBox="0 0 50 50" fill="none" xmlns="http://www.w3.org/2000/svg">
<path d="M30.2083 22.874L26.0417 20.4671C25.3967 20.0969 24.6033 20.0969 23.9583 20.4671L19.7917 22.874C19.1467 23.2463 18.75 23.934 18.75 24.6786V29.4882C18.75 30.2327 19.1467 30.9204 19.7917 31.2927L23.9583 33.6996C24.2808 33.8848 24.6398 33.9784 25 33.9784C25.3602 33.9784 25.7192 33.8848 26.0417 33.6996L30.2083 31.2927C30.8533 30.9204 31.25 30.2327 31.25 29.4882V24.6786C31.25 23.934 30.8533 23.2463 30.2083 22.874ZM27.0833 28.2857L25 29.4879L22.9167 28.2857V25.8809L25 24.6786L27.0833 25.8809V28.2857Z" fill="#A3ACB5"/>
<path d="M33.332 4.16675H16.6654C12.0704 4.16675 8.33203 7.90404 8.33203 12.5001V37.5001C8.33203 42.0961 12.0704 45.8334 16.6654 45.8334H33.332C37.927 45.8334 41.6654 42.0961 41.6654 37.5001V12.5001C41.6654 7.90404 37.927 4.16675 33.332 4.16675ZM37.4987 37.5001C37.4987 39.797 35.6299 41.6668 33.332 41.6668H16.6654C14.3674 41.6668 12.4987 39.797 12.4987 37.5001V12.5001C12.4987 10.2032 14.3674 8.33342 16.6654 8.33342H33.332C35.6299 8.33342 37.4987 10.2032 37.4987 12.5001V37.5001Z" fill="#A3ACB5"/>
<path d="M22.9154 14.5834H27.082C28.2324 14.5834 29.1654 13.6515 29.1654 12.5001C29.1654 11.3486 28.2324 10.4167 27.082 10.4167H22.9154C21.7649 10.4167 20.832 11.3486 20.832 12.5001C20.832 13.6515 21.7649 14.5834 22.9154 14.5834Z" fill="#A3ACB5"/>
</svg>
