<svg width="50" height="47" viewBox="0 0 50 47" fill="none" xmlns="http://www.w3.org/2000/svg">
<g clip-path="url(#clip0_1392_4075)">
<path d="M26.0682 21.2963C26.4223 21.628 26.4389 22.1834 26.1059 22.5377C25.7729 22.8905 25.2153 22.907 24.8597 22.5752C24.3684 22.1129 23.9962 21.6926 23.6993 21.2332C23.3949 20.7649 23.1779 20.274 23.0046 19.6826C22.86 19.1902 22.7484 18.5672 22.658 17.8782C22.5676 17.1847 22.4998 16.4612 22.4455 15.7557C22.4455 15.7391 22.444 15.7241 22.4425 15.7076C22.3506 14.7199 22.2451 13.9423 21.9769 13.2638C21.7162 12.6033 21.2777 11.9909 20.5016 11.2883C20.4956 11.2823 20.4895 11.2778 20.485 11.2718L9.2177 1.54007C8.85001 1.22333 8.80932 0.669421 9.12728 0.303148C9.44524 -0.0631243 10.0013 -0.103654 10.369 0.213081L21.6378 9.94633C21.6544 9.95984 21.6725 9.97335 21.6891 9.98836C22.6836 10.8875 23.2593 11.7056 23.621 12.6228C23.963 13.492 24.0896 14.4031 24.1966 15.5455C24.2011 15.571 24.2041 15.598 24.2056 15.6236C24.2614 16.3441 24.3262 17.0496 24.4046 17.6501C24.4844 18.2565 24.5779 18.7939 24.6954 19.1932C24.819 19.615 24.9682 19.9573 25.1761 20.2755C25.3901 20.6043 25.6764 20.9255 26.0682 21.2933M25.4775 30.6693C25.146 30.3135 25.1656 29.7581 25.5227 29.4278C25.8798 29.0976 26.4374 29.1171 26.7689 29.4729L40.5559 44.2904C40.5694 44.3054 40.583 44.3219 40.5965 44.3369C41.1647 44.9794 41.8111 45.2451 42.432 45.2451C43.077 45.2451 43.7129 44.9674 44.2222 44.5291L44.2298 44.5231C44.2418 44.5126 44.2554 44.5021 44.2674 44.4916L44.2704 44.4886C44.2825 44.475 44.2961 44.463 44.3081 44.451L44.3111 44.448C44.3277 44.427 44.3473 44.406 44.3654 44.385C44.8009 43.8866 45.0782 43.2636 45.0857 42.6302C45.0932 42.0057 44.8295 41.3527 44.1785 40.7778L44.171 40.7703C44.1514 40.7538 44.1333 40.7358 44.1152 40.7162L31.4133 28.7463C31.0607 28.4146 31.0456 27.8607 31.3786 27.5094C31.7117 27.1581 32.2677 27.1431 32.6203 27.4749L45.3223 39.4448C45.3223 39.4448 45.3313 39.4523 45.3358 39.4568L45.3434 39.4643C46.4208 40.416 46.8563 41.5434 46.8443 42.6437C46.8322 43.6824 46.4133 44.6792 45.7533 45.4643C45.7186 45.5198 45.6764 45.5709 45.6282 45.6189C45.6041 45.6429 45.5845 45.6624 45.5679 45.6774L45.5227 45.721L45.4911 45.7525V45.7555C45.4685 45.7765 45.4474 45.796 45.4263 45.8185C45.3795 45.8651 45.3283 45.9041 45.2741 45.9371C44.4784 46.5886 43.4733 46.9969 42.429 46.9984C41.3304 46.9984 40.2093 46.5586 39.2689 45.4928L39.2629 45.4868L25.476 30.6693H25.4775ZM0.207751 10.233C-0.107198 9.86227 -0.0604831 9.30835 0.311729 8.99612C0.683941 8.68239 1.24 8.72892 1.55344 9.0997L11.2234 20.4406C11.9211 21.2227 12.5299 21.6656 13.1885 21.9298C13.8771 22.2075 14.6728 22.3185 15.6885 22.4221V22.4191C16.3982 22.4822 17.1216 22.5557 17.8147 22.6533C18.5004 22.7494 19.1258 22.868 19.6261 23.0196C20.0917 23.1607 20.3539 23.65 20.2123 24.1124C20.0706 24.5762 19.5794 24.8374 19.1152 24.6963C18.7234 24.5777 18.1854 24.4786 17.5736 24.3931C16.9678 24.309 16.2596 24.237 15.5378 24.1739V24.1709C15.5378 24.1709 15.5302 24.1709 15.5272 24.1709C14.3533 24.0523 13.4205 23.9172 12.5329 23.56C11.6137 23.1892 10.797 22.6083 9.90486 21.61C9.90486 21.61 9.89581 21.598 9.88979 21.5935L0.207751 10.233Z" fill="#283A8F"/>
<path d="M6.19199 4.4328C5.84841 4.08905 5.84991 3.53363 6.195 3.19138C6.54009 2.84912 7.09765 2.85063 7.44123 3.19438L19.1471 14.9737C19.4907 15.3174 19.4892 15.8728 19.1441 16.2151C18.799 16.5573 18.2414 16.5558 17.8978 16.2121L6.19199 4.4328Z" fill="#283A8F"/>
<path d="M3.23538 7.34796C2.8918 7.00421 2.89331 6.44879 3.2384 6.10654C3.58349 5.76429 4.14105 5.76579 4.48463 6.10954L16.1905 17.8903C16.5341 18.2341 16.5326 18.7895 16.1875 19.1317C15.8424 19.474 15.2848 19.4725 14.9412 19.1287L3.23538 7.34796Z" fill="#283A8F"/>
<path d="M10.654 46.979C9.51177 47.0961 8.38458 46.7088 7.49549 46.0243C7.38247 45.9372 7.29507 45.8637 7.21369 45.7856C7.1278 45.7045 7.05245 45.622 6.96505 45.5199C6.2357 44.6688 5.79115 43.5684 5.85293 42.4276C5.90718 41.4263 6.33967 40.4146 7.29356 39.5394L26.0488 21.1357C26.0549 21.1297 26.0609 21.1237 26.0669 21.1177C27.9837 19.2834 27.9928 18.6139 28.0199 16.6879C28.0289 16.0319 28.0395 15.2544 28.1028 14.3417C28.16 13.5011 28.3183 12.6664 28.5654 11.8513C29.4575 8.90763 31.5145 6.1756 34.1667 4.24216C36.8279 2.30121 40.101 1.15135 43.4162 1.37502C44.2948 1.43356 45.1733 1.58968 46.0413 1.84937C46.8219 2.08205 47.5 2.47384 48.0546 2.99773C48.6001 3.51411 49.019 4.15509 49.2902 4.89514C49.2963 4.91015 49.3023 4.92516 49.3083 4.94018C49.6142 5.79281 49.8147 6.65896 49.9186 7.5296C50.3104 10.814 49.3219 14.1285 47.5091 16.8756C45.7022 19.6151 43.0696 21.8007 40.1673 22.835C39.3611 23.1217 38.5323 23.3214 37.6914 23.4204C36.7601 23.53 35.9916 23.5796 35.3436 23.6216C33.4253 23.7447 32.7487 23.7897 31.0338 25.7472C31.0217 25.7637 31.0081 25.7787 30.9946 25.7952L13.4629 45.4178H13.4614C12.6356 46.3965 11.6501 46.8724 10.6585 46.9745M8.57144 44.6357C9.12298 45.0606 9.80411 45.3022 10.4747 45.2332C11.0413 45.1746 11.6185 44.8834 12.1248 44.2785C12.1308 44.271 12.1368 44.2635 12.1444 44.256H12.1429L29.6745 24.6318C29.6851 24.6198 29.6956 24.6093 29.7062 24.5988C31.9033 22.0889 32.7682 22.0334 35.2321 21.8743C35.8409 21.8353 36.5642 21.7887 37.4834 21.6791C38.1872 21.5966 38.8864 21.427 39.572 21.1823C42.1188 20.2741 44.4379 18.3437 46.0383 15.9179C47.6326 13.4995 48.5051 10.5979 48.1646 7.73976C48.0772 7.00121 47.9069 6.26266 47.6447 5.53462C47.6402 5.52111 47.6356 5.5076 47.6311 5.49559C47.4533 5.01373 47.1851 4.60092 46.8385 4.27368C46.4874 3.94043 46.0488 3.68974 45.5365 3.53663C44.7921 3.31296 44.0431 3.18087 43.2972 3.12983C40.4174 2.93468 37.5512 3.95094 35.2065 5.66071C32.8526 7.37649 31.0338 9.77978 30.2532 12.3557C30.0422 13.0507 29.9081 13.7562 29.8599 14.4618C29.7966 15.4 29.786 16.1115 29.777 16.7119C29.7423 19.1858 29.7303 20.0459 27.286 22.3862H27.2845L8.50664 40.8139C8.49911 40.8214 8.49308 40.8274 8.48554 40.8334C7.90387 41.3678 7.64016 41.9547 7.61002 42.5192C7.57385 43.1887 7.84962 43.8537 8.3017 44.3805C8.34992 44.4376 8.3891 44.4796 8.42677 44.5156C8.46746 44.5547 8.51267 44.5922 8.57144 44.6372V44.6357Z" fill="#283A8F"/>
</g>
<defs>
<clipPath id="clip0_1392_4075">
<rect width="50" height="47" fill="white"/>
</clipPath>
</defs>
</svg>
