<svg width="47" height="50" viewBox="0 0 47 50" fill="none" xmlns="http://www.w3.org/2000/svg">
<g clip-path="url(#clip0_1392_4066)">
<path d="M45.8596 28.6754C44.3392 27.0757 41.7734 27.0757 40.1737 28.6754L32.2467 36.5941C32.1675 36.3542 32.0091 36.1142 31.9299 35.8743C32.4922 34.9944 31.3677 33.9546 30.4886 34.5945C30.0848 34.3545 29.6096 34.2745 29.1265 34.1945L12.8607 32.8347C13.7397 32.3548 13.4229 30.995 12.3776 30.995C11.4194 30.9151 10.9363 32.2748 11.8153 32.8347C10.2157 32.9147 8.60809 33.5546 7.33311 34.5945L0.847348 40.3535C0.443473 40.7535 0.364282 41.3934 0.768157 41.7933L8.6952 49.712C9.01196 50.032 9.57422 50.112 9.9781 49.792L13.3437 47.3924L28.4059 48.4322C30.4886 48.5922 32.4922 47.7924 33.9334 46.3526L45.8676 34.4345C47.388 32.7548 47.388 30.1952 45.8676 28.6754C44.2679 27.0757 47.388 30.1952 45.8676 28.6754H45.8596ZM44.4184 32.9147L32.4842 44.8328C31.4468 45.8727 29.9976 46.4326 28.4772 46.3526L13.415 45.3927L8.68728 41.2334C7.72907 40.3535 6.36698 41.8733 7.40438 42.7532L11.4907 46.2726L9.5663 47.7124L2.99343 41.1534L8.67936 36.1142C9.71677 35.1544 11.166 34.7544 12.5281 34.8344L28.8731 36.1942C29.9976 36.2742 30.7183 37.394 30.3936 38.4338C30.3144 38.5938 30.2352 38.6738 30.2352 38.8338C29.9185 39.3937 29.277 39.7136 28.6356 39.7136L17.8972 39.2337C16.6143 39.1537 16.5351 41.1534 17.818 41.2334L28.5564 41.7133C30.0768 41.7933 31.5181 40.9135 32.1596 39.5537L41.615 30.1152C43.4602 28.2755 46.2635 31.075 44.4184 32.9147Z" fill="#283A8F"/>
<path d="M3.96754 22.5164C5.00494 22.5164 6.05027 22.1165 6.77091 21.3166L14.698 13.3979C15.1018 14.4377 15.9809 15.3176 17.0974 15.6375C17.2558 16.6773 18.6179 16.8373 19.0218 15.8775L34.2424 17.1573C36.1667 17.3172 38.1702 16.6773 39.6115 15.3975L46.0973 9.63846C46.5012 9.23853 46.5803 8.59863 46.1765 8.19869L38.3286 0.279959C38.0119 -0.0399903 37.4496 -0.119977 37.0457 0.199971L33.6801 2.59959L18.6179 1.55975C16.5352 1.39978 14.5317 2.19965 13.0904 3.63942L1.16417 15.6375C-1.32244 18.1171 0.443529 22.5164 3.96754 22.5164ZM2.52626 17.0773L14.4604 5.15918C15.5057 4.11934 17.0262 3.55943 18.4675 3.63942L33.5296 4.67925L38.2573 8.83859C39.2156 9.71845 40.5777 8.19869 39.5402 7.31883L35.454 3.7994L37.3783 2.35963L43.9433 8.91858L38.3365 13.8778C37.2991 14.8376 35.8499 15.2376 34.4878 15.1576L18.1428 13.7978C17.0183 13.7178 16.2976 12.598 16.6223 11.5582C16.7015 11.3982 16.7807 11.3182 16.7807 11.1582C17.0974 10.5983 17.7389 10.2784 18.3803 10.2784L29.1187 10.7583C30.4016 10.8383 30.4808 8.83859 29.1979 8.7586L18.4595 8.27868C16.9391 8.19869 15.4978 9.07855 14.8563 10.4383L5.4009 19.8768C3.55574 21.7165 0.752375 18.917 2.51834 17.0773H2.52626Z" fill="#283A8F"/>
<path d="M32.6427 19.3169C31.5182 20.0368 32.6427 21.7165 33.6801 20.9966C34.8046 20.2768 33.7593 18.597 32.6427 19.3169C33.1258 18.997 32.3259 19.4769 32.6427 19.3169Z" fill="#283A8F"/>
<path d="M33.3633 22.6764C33.3633 23.9562 35.3668 23.9562 35.3668 22.6764C35.3668 21.3966 33.3633 21.3966 33.3633 22.6764Z" fill="#283A8F"/>
<path d="M32.1675 18.677C33.0465 17.7972 31.6844 16.3574 30.7262 17.2373C29.8472 18.1971 31.2093 19.5569 32.1675 18.677C32.3259 18.4371 31.9299 18.837 32.1675 18.677Z" fill="#283A8F"/>
<path d="M35.1293 31.235C35.6124 30.0352 33.7672 29.3153 33.2841 30.5151C32.8011 31.7149 34.6462 32.4348 35.1293 31.235C35.1293 31.155 34.9709 31.6349 35.1293 31.235Z" fill="#283A8F"/>
<path d="M32.3259 34.1945C33.0465 34.6745 34.0047 34.0346 33.8463 33.1547C33.688 32.2748 32.5634 32.0349 32.0012 32.7548C31.7636 33.2347 31.8428 33.8746 32.318 34.1945C32.0012 33.9546 32.4763 34.2745 32.318 34.1945H32.3259Z" fill="#283A8F"/>
<path d="M35.9291 25.316C35.8499 24.0362 33.7672 24.1961 33.9256 25.4759C34.084 26.7557 36.0083 26.5958 35.9291 25.316Z" fill="#283A8F"/>
<path d="M35.85 28.3555C36.0084 27.0757 34.0048 26.8357 33.8464 28.1155C33.6881 29.3153 35.6916 29.6353 35.85 28.3555C35.9292 28.2755 35.85 28.8354 35.85 28.3555Z" fill="#283A8F"/>
<path d="M11.2531 24.836C12.536 24.836 12.536 22.9163 11.3323 22.8364C10.0494 22.7564 9.97019 24.836 11.2531 24.836Z" fill="#283A8F"/>
<path d="M11.3323 30.3551C12.536 30.3551 12.6944 28.5154 11.4115 28.3555C10.0494 28.1955 9.97023 30.3551 11.3323 30.3551Z" fill="#283A8F"/>
<path d="M9.97021 26.5958C9.97021 27.7956 11.7362 27.9555 11.9738 26.7557C12.2113 25.3959 9.97021 25.156 9.97021 26.5958Z" fill="#283A8F"/>
<path d="M13.0983 21.6365C13.6606 20.5967 12.1401 19.6369 11.4195 20.5967C10.5404 21.7165 12.544 22.8363 13.0983 21.6365C13.1775 21.4766 12.9399 21.9565 13.0983 21.6365Z" fill="#283A8F"/>
<path d="M15.7433 17.8772C17.0262 17.8772 17.0262 15.9575 15.8225 15.8775C14.5396 15.8775 14.4604 17.8772 15.7433 17.8772Z" fill="#283A8F"/>
<path d="M14.5395 19.4769C15.3394 18.597 14.0565 17.3172 13.0982 18.0371C12.0529 18.997 13.6605 20.5167 14.5395 19.4769C14.6979 19.3169 14.3019 19.7168 14.5395 19.4769Z" fill="#283A8F"/>
<path d="M17.2637 31.6349H27.915C28.4772 31.6349 28.9603 31.155 28.9603 30.5951V22.9963L29.7601 23.3963C30.8846 24.0362 31.8429 22.1965 30.7183 21.6365L23.1081 17.6372C22.7042 17.4772 22.5458 17.6372 22.1498 17.6372L14.5396 21.7165C13.4151 22.3564 14.302 24.1162 15.4978 23.4763L16.2976 23.0763V30.7551C16.2976 31.235 16.7015 31.6349 17.2558 31.6349H17.2637ZM21.8331 29.6353V26.8357C21.8331 25.7959 23.3536 25.7959 23.3536 26.8357V29.6353H21.8331ZM26.9568 29.6353H25.4363V26.8357C25.4363 25.316 24.1534 24.0362 22.6329 24.0362C21.1124 24.0362 19.8295 25.316 19.8295 26.8357V29.6353H18.3091V21.8765L22.6329 19.5569L26.9568 21.8765V29.6353Z" fill="#283A8F"/>
<path d="M42.0189 21.4766H40.0154V23.4762H42.0189V21.4766Z" fill="#283A8F"/>
<path d="M44.0225 19.4769H42.0189V21.4766H44.0225V19.4769Z" fill="#283A8F"/>
<path d="M42.0189 17.4772H40.0154V19.4769H42.0189V17.4772Z" fill="#283A8F"/>
<path d="M44.0225 15.4775H42.0189V17.4772H44.0225V15.4775Z" fill="#283A8F"/>
<path d="M5.005 32.5148H3.00146V34.5145H5.005V32.5148Z" fill="#283A8F"/>
<path d="M7.00854 30.5151H5.005V32.5148H7.00854V30.5151Z" fill="#283A8F"/>
<path d="M5.005 28.5154H3.00146V30.5151H5.005V28.5154Z" fill="#283A8F"/>
<path d="M7.00854 26.5158H5.005V28.5154H7.00854V26.5158Z" fill="#283A8F"/>
</g>
<defs>
<clipPath id="clip0_1392_4066">
<rect width="47" height="50" fill="white"/>
</clipPath>
</defs>
</svg>
