<svg width="116" height="121" viewBox="0 0 116 121" fill="none" xmlns="http://www.w3.org/2000/svg">
<path d="M0 58C0 25.9675 25.9675 0 58 0C90.0325 0 116 25.9675 116 58V63C116 95.0325 90.0325 121 58 121C25.9675 121 0 95.0325 0 63V58Z" fill="#E8F2FC"/>
<g clip-path="url(#clip0_2610_11952)">
<path d="M89.5 31.0001L74.8888 33.9663L66.3486 42.5065L56.5527 40.1363L39.7439 56.945L49.54 59.3152L47.4773 61.3779C46.6582 62.1968 46.2072 63.2857 46.2072 64.444C46.2072 65.6023 46.6582 66.6912 47.4773 67.5101L52.9898 73.0227C53.8088 73.8418 54.8977 74.2928 56.056 74.2928C57.2143 74.2928 58.3032 73.8418 59.1222 73.0227L61.1848 70.9601L63.555 80.7562L80.3638 63.9473L77.9936 54.1512L86.5337 45.6112L89.5 31.0001ZM70.4057 43.4882L75.7691 38.1248L77.8127 40.1683L57.5043 60.4765L55.4608 58.433L60.544 53.3498L70.4057 43.4882ZM46.7523 54.9752L57.6582 44.0693L63.3971 45.4579L52.4912 56.3637L46.7523 54.9752ZM56.6029 70.5036C56.4059 70.7007 56.1757 70.7301 56.0561 70.7301C55.9364 70.7301 55.7063 70.7008 55.5092 70.5036L49.9966 64.9909C49.7996 64.7939 49.77 64.5637 49.77 64.4441C49.77 64.3244 49.7995 64.0943 49.9966 63.8973L52.9415 60.9523L56.2448 64.2556L59.5479 67.5589L56.6029 70.5036ZM65.525 73.7477L64.1364 68.0088L75.0422 57.1031L76.4308 62.842L65.525 73.7477ZM62.0671 65.0393L60.0236 62.9958L80.3318 42.6873L82.3755 44.731L62.0671 65.0393ZM83.8089 41.1259L79.3743 36.6912L84.9385 35.5615L83.8089 41.1259Z" fill="#4361EE"/>
<path d="M48.8028 71.6973C44.6025 67.4971 37.7679 67.497 33.5675 71.6973C27.394 77.8707 30.0507 88.5958 30.1668 89.0493L30.4286 90.0714L31.4508 90.3332C31.6634 90.3876 34.1316 91 37.3307 91C40.9572 91 45.5227 90.2125 48.8028 86.9325C53.0031 82.7322 53.0031 75.8977 48.8028 71.6973ZM46.2835 84.4134C42.5198 88.177 35.971 87.5283 33.4056 87.0945C32.9717 84.5289 32.3232 77.9802 36.0868 74.2165C38.8981 71.4054 43.4721 71.4053 46.2834 74.2166C47.6452 75.5785 48.3952 77.3891 48.3952 79.3151C48.3953 81.2409 47.6453 83.0515 46.2835 84.4134Z" fill="#4361EE"/>
<path d="M44.6038 75.8964C43.6906 74.9832 42.4764 74.4801 41.185 74.4801C39.8936 74.4801 38.6795 74.983 37.7663 75.8962C36.6885 76.9739 35.4099 79.131 35.4382 83.2884L35.4502 85.0474L37.3386 85.0581C41.4224 85.0581 43.5436 83.7942 44.6038 82.7339C45.5161 81.8215 46.0185 80.6076 46.0185 79.315C46.0185 78.0227 45.5161 76.8086 44.6038 75.8964ZM42.0845 80.2144C41.494 80.8051 40.4641 81.2058 39.11 81.3863C39.2908 80.0356 39.6925 79.0086 40.2857 78.4154C40.5294 78.1716 40.8405 78.0428 41.1851 78.0428C41.5298 78.0428 41.8408 78.1717 42.0846 78.4155C42.3239 78.6549 42.4558 78.9742 42.4558 79.315C42.4557 79.6557 42.3239 79.9751 42.0845 80.2144Z" fill="#4361EE"/>
</g>
<defs>
<clipPath id="clip0_2610_11952">
<rect width="60" height="60" fill="white" transform="translate(29.5 31)"/>
</clipPath>
</defs>
</svg>
