<svg width="116" height="121" viewBox="0 0 116 121" fill="none" xmlns="http://www.w3.org/2000/svg">
<path d="M0 58C0 25.9675 25.9675 0 58 0C90.0325 0 116 25.9675 116 58V63C116 95.0325 90.0325 121 58 121C25.9675 121 0 95.0325 0 63V58Z" fill="#E8F2FC"/>
<g clip-path="url(#clip0_2610_11964)">
<path d="M81.6078 64.9068C81.6078 56.6883 76.6589 49.6079 69.5912 46.4928C69.5824 43.1893 66.8965 40.5045 63.5958 40.5045H53.6483V36.3691C53.6483 35.521 52.9611 34.8338 52.1131 34.8338H50.4925C50.1019 32.6573 48.1982 31 45.9141 31C43.6301 31 41.7264 32.6573 41.3358 34.8338H39.7148C38.8667 34.8338 38.1795 35.521 38.1795 36.3691V64.3099C38.1795 65.158 38.8667 65.8452 39.7148 65.8452H39.7743V70.7248C39.7743 71.5729 40.4615 72.2601 41.3096 72.2601H50.5189C51.3669 72.2601 52.0541 71.5729 52.0541 70.7248V65.8452H52.1129C52.9609 65.8452 53.6481 65.158 53.6481 64.3099V52.5149H60.001V54.5357C60.001 55.3837 60.6882 56.0709 61.5363 56.0709C66.3651 56.0709 70.2938 60.0085 70.2938 64.8487C70.2938 69.6898 66.447 73.4823 61.5363 73.4823C60.6882 73.4823 60.001 74.1695 60.001 75.0176V76.7612H39.4051C38.557 76.7612 37.8698 77.4484 37.8698 78.2965C37.8698 79.1446 38.557 79.8317 39.4051 79.8317H60.0012V81.6826H38.9277C38.0798 81.6826 37.3924 82.3698 37.3924 83.2179V89.465C37.3924 90.313 38.0798 91.0002 38.9277 91.0002H70.8882C71.7363 91.0002 72.4235 90.313 72.4235 89.465V83.2179C72.4235 82.717 72.1825 82.2736 71.8116 81.9934C73.2195 81.169 74.5325 80.1703 75.7193 79.0041C79.5165 75.2733 81.6078 70.2667 81.6078 64.9068ZM45.9141 34.0705C46.4852 34.0705 46.9853 34.3769 47.2637 34.8338H44.5647C44.8429 34.3769 45.343 34.0705 45.9141 34.0705ZM48.9838 69.1896H42.8448V65.8452H48.9836L48.9838 69.1896ZM52.1131 49.4443C51.265 49.4443 50.5778 50.1315 50.5778 50.9796V62.7747H41.25V37.9043H50.5776V42.0397C50.5776 42.8878 51.2648 43.575 52.1129 43.575H63.5955C65.2086 43.575 66.5209 44.8914 66.5209 46.5091C66.5209 48.1275 65.2086 49.4443 63.5955 49.4443H52.1131ZM69.353 87.9295H40.4629V84.7529H69.353V87.9295ZM63.0717 81.6167V76.4568C65.6511 76.1322 68.0306 74.9914 69.8905 73.1638C72.1307 70.9627 73.3647 68.0095 73.3647 64.8485C73.3647 58.8366 68.8711 53.8561 63.0719 53.0995V52.5146H63.596C65.8127 52.5146 67.7508 51.3026 68.7882 49.5066C74.5442 52.2389 78.5375 58.1114 78.5375 64.9066C78.5375 69.4362 76.7725 73.6649 73.5675 76.8136C70.7328 79.5988 67.0513 81.2739 63.0717 81.6167Z" fill="#4361EE"/>
<path d="M64.7603 46.5902C64.7603 46.1851 64.5965 45.7898 64.31 45.5032C64.0234 45.2185 63.6283 45.0549 63.225 45.0549C62.8218 45.0549 62.4247 45.2187 62.1401 45.5032C61.8535 45.7896 61.6898 46.1849 61.6898 46.5902C61.6898 46.9937 61.8535 47.3906 62.1401 47.6751C62.4247 47.9617 62.8218 48.1254 63.225 48.1254C63.6283 48.1254 64.0254 47.9617 64.31 47.6751C64.5965 47.3887 64.7603 46.9937 64.7603 46.5902Z" fill="#4361EE"/>
</g>
<defs>
<clipPath id="clip0_2610_11964">
<rect width="60" height="60" fill="white" transform="translate(29.5 31)"/>
</clipPath>
</defs>
</svg>
