<svg width="50" height="50" viewBox="0 0 50 50" fill="none" xmlns="http://www.w3.org/2000/svg">
<g clip-path="url(#clip0_1392_4061)">
<path d="M24.619 10.4898V17.7723C24.869 17.7344 25.119 17.7117 25.3766 17.7041V10.4901C27.8892 10.2967 29.8754 8.19508 29.8754 5.63371C29.8754 2.94523 27.6885 0.757576 25 0.757576C22.3115 0.757576 20.1239 2.94523 20.1239 5.63371C20.1239 8.19364 22.1084 10.2943 24.619 10.4898ZM25 2.27273C26.8525 2.27273 28.3602 3.78045 28.3602 5.63371C28.3602 7.48621 26.8525 8.99394 25 8.99394C23.1467 8.99394 21.639 7.48621 21.639 5.63371C21.639 3.78045 23.1467 2.27273 25 2.27273ZM25.3766 39.5107V34.1814C25.1342 34.2042 24.8766 34.2117 24.619 34.2117V39.5109C22.1084 39.7064 20.1239 41.8071 20.1239 44.367C20.1239 47.0555 22.3115 49.2424 25 49.2424C27.6885 49.2424 29.8754 47.0555 29.8754 44.367C29.8754 41.8056 27.8892 39.704 25.3766 39.5107ZM25 47.7273C23.1467 47.7273 21.639 46.2195 21.639 44.367C21.639 42.5145 23.1467 41.0067 25 41.0067C26.8525 41.0067 28.3602 42.5145 28.3602 44.367C28.3602 46.2195 26.8525 47.7273 25 47.7273ZM44.3663 20.1246C41.8057 20.1246 39.7048 22.1094 39.5101 24.6208H32.8766C32.8841 24.689 32.8841 24.7496 32.8841 24.8178C32.8841 25.0072 32.8766 25.1966 32.8614 25.3784H39.5099C39.7042 27.8903 41.8054 29.8762 44.3662 29.8762C47.0548 29.8761 49.2424 27.6885 49.2424 25C49.2424 22.3115 47.0548 20.1246 44.3663 20.1246ZM44.3663 28.361C42.5138 28.361 41.0061 26.8533 41.0061 25C41.0061 23.1475 42.5138 21.6398 44.3663 21.6398C46.2195 21.6398 47.7273 23.1475 47.7273 25C47.7273 26.8533 46.2195 28.361 44.3663 28.361ZM10.4892 25.3784H17.278C17.3159 25.1208 17.3538 24.8708 17.4068 24.6208H10.4892C10.2945 22.1094 8.19348 20.1246 5.63295 20.1246C2.94446 20.1246 0.757568 22.3115 0.757568 25C0.757568 27.6885 2.94446 29.8761 5.63295 29.8761C8.19378 29.8761 10.295 27.8902 10.4892 25.3784ZM5.63295 28.361C3.78045 28.361 2.27272 26.8533 2.27272 25C2.27272 23.1475 3.78045 21.6398 5.63295 21.6398C7.48545 21.6398 8.99325 23.1475 8.99325 25C8.99325 26.8533 7.48552 28.361 5.63295 28.361ZM35.528 34.9919L30.5887 30.0526C30.3766 30.2041 30.1493 30.3405 29.922 30.4541L34.9938 35.5258C33.3451 37.4449 33.4292 40.325 35.2465 42.1423C37.1529 44.0486 40.2356 44.0483 42.1417 42.1423C44.048 40.2359 44.0477 37.1532 42.1417 35.2471C40.3325 33.4382 37.4557 33.3386 35.528 34.9919ZM41.0704 41.0711C39.7594 42.3806 37.6287 42.3806 36.3178 41.0711C35.0076 39.7609 35.0076 37.6288 36.3178 36.3186C37.6297 35.0082 39.7594 35.009 41.0704 36.3186C42.3806 37.6287 42.3806 39.7609 41.0704 41.0711ZM14.4703 15.0099L19.6872 20.2269C19.8614 20.0375 20.0432 19.8633 20.2326 19.6966L15.0081 14.472C16.6605 12.5455 16.5629 9.66856 14.7528 7.85841C12.8482 5.95235 9.76401 5.95212 7.85764 7.85841C5.95704 9.75977 5.95704 12.8522 7.85764 14.7536C9.66954 16.5654 12.5473 16.6592 14.4703 15.0099ZM8.92886 8.92962C10.2374 7.62106 12.3626 7.61076 13.6814 8.92962C16.8259 12.0741 12.0364 16.7897 8.92886 13.6822C7.61939 12.372 7.61939 10.2398 8.92886 8.92962ZM18.4675 30.992L14.4695 34.9901C13.5879 34.2342 12.4795 33.8186 11.3052 33.8186C10.0031 33.8186 8.7787 34.3261 7.85764 35.2472C4.80689 38.2992 6.97355 43.5709 11.3052 43.5709C14.0032 43.5709 16.1814 41.3854 16.1814 38.6948C16.1814 37.5198 15.7648 36.4105 15.0073 35.5279L18.922 31.6132C18.7554 31.4162 18.6039 31.2042 18.4675 30.992ZM11.3052 42.0558C8.34037 42.0558 6.80469 38.4439 8.92893 36.3186C9.5637 35.6838 10.4078 35.3339 11.3052 35.3339C12.2033 35.3339 13.0467 35.6838 13.6815 36.3186C15.7848 38.4217 14.2908 42.0558 11.3052 42.0558ZM30.8462 19.6889L35.5271 15.008C37.4577 16.6648 40.3351 16.56 42.1416 14.7534C44.0479 12.847 44.0476 9.76432 42.1416 7.85826C40.2352 5.95189 37.1525 5.9522 35.2464 7.85826C33.4357 9.66886 33.3385 12.5473 34.9929 14.4739L30.2779 19.1889C30.4826 19.348 30.6645 19.5148 30.8462 19.6889ZM36.3178 8.92962C37.6297 7.61924 39.7594 7.62008 41.0704 8.92962C42.3806 10.2398 42.3806 12.372 41.0704 13.6822C39.7594 14.9917 37.6287 14.9917 36.3178 13.6822C35.0076 12.372 35.0076 10.2398 36.3178 8.92962Z" fill="#283A8F"/>
<circle cx="25" cy="25" r="5.30303" fill="#283A8F"/>
</g>
<defs>
<clipPath id="clip0_1392_4061">
<rect width="50" height="50" fill="white"/>
</clipPath>
</defs>
</svg>
