<svg width="70" height="70" viewBox="0 0 70 70" fill="none" xmlns="http://www.w3.org/2000/svg"><g clip-path="url(#a)"><path d="M35 70c19.33 0 35-15.67 35-35S54.33 0 35 0 0 15.67 0 35s15.67 35 35 35" fill="#121617"/><path d="M55.863 34.624c-.217-.967-.998-1.187-.998-1.187l-3.604.396-3.256-7.74c-.304-.88-1.346-2.287-3.517-2.55h-1.085v2.77h.868c.825.088 1.086.572 1.086.66l3.212 7.651-27.308-.044 3.17-7.476.043-.088c.043-.087.26-.571 1.085-.703h1.042v-2.727h-1.259c-2.127.22-3.213 1.628-3.517 2.55l-3.212 7.74-3.474-.351s-.781.22-.998 1.187-.478 2.682 1.693 3.254l1.172.132c-1.39 2.77-2.909 7.74 1.129 11.961.087.088 1.085.88 1.606 1.011v2.419a1.66 1.66 0 0 0 1.65 1.671h2.17a1.66 1.66 0 0 0 1.65-1.671v-2.287H44.62v2.243a1.66 1.66 0 0 0 1.65 1.671h2.214a1.66 1.66 0 0 0 1.65-1.671v-2.463a3 3 0 0 0 1.519-1.011c4.124-4.177 2.822-9.147 1.39-12.049l.998-.088c2.3-.528 2.04-2.199 1.823-3.21m-32.779 9.63c-1.346 0-2.43-1.099-2.43-2.462s1.084-2.463 2.43-2.463 2.432 1.1 2.432 2.463-1.13 2.462-2.432 2.462m23.445 0c-1.346 0-2.432-1.099-2.432-2.462s1.086-2.463 2.432-2.463 2.431 1.1 2.431 2.463-1.085 2.462-2.431 2.462" fill="#a3acb5"/><path d="M40.928 20.288c0-3.474-2.778-6.288-6.208-6.288h-.087c-3.43 0-6.209 2.814-6.252 6.288-.043.572-.26 4.926 5.774 9.675a.83.83 0 0 0 .434.132h.087a.73.73 0 0 0 .434-.132c6.079-4.75 5.905-9.103 5.818-9.675m-6.295 3.518c-1.824 0-3.3-1.495-3.3-3.342s1.477-3.342 3.3-3.342 3.3 1.495 3.3 3.342-1.477 3.342-3.3 3.342" fill="#a3acb5"/><path d="M34.633 18.53c-1.042 0-1.867.835-1.867 1.89 0 1.056.825 1.891 1.867 1.891s1.867-.835 1.867-1.89c0-1.056-.825-1.892-1.867-1.892" fill="#a3acb5"/></g><defs><clipPath id="a"><path fill="#fff" d="M0 0h70v70H0z"/></clipPath></defs></svg>