<svg width="50" height="50" viewBox="0 0 50 50" fill="none" xmlns="http://www.w3.org/2000/svg">
<g clip-path="url(#clip0_2765_13323)">
<g clip-path="url(#clip1_2765_13323)">
<g clip-path="url(#clip2_2765_13323)">
<path d="M31.8015 24.4504H35.5187C35.9482 24.4504 36.2997 24.1075 36.2997 23.6885V13.6079H37.2602C37.5648 13.6079 37.8381 13.4327 37.963 13.1584C38.0958 12.8917 38.0489 12.5717 37.8459 12.3431L34.2458 8.26668C34.0974 8.09905 33.8866 8 33.6601 8C33.4258 8 33.215 8.09905 33.0666 8.26668L29.4665 12.3431C29.2713 12.5717 29.2244 12.8917 29.3494 13.1584C29.4821 13.4327 29.7555 13.6079 30.06 13.6079H31.0206V23.6885C31.0206 24.1075 31.372 24.4504 31.8015 24.4504Z" fill="#4361EE"/>
<path d="M13.5278 24.4504H17.245C17.6745 24.4504 18.0259 24.1075 18.0259 23.6885V13.6079H18.9787C19.291 13.6079 19.5644 13.4327 19.6893 13.1584C19.8221 12.8917 19.7752 12.5717 19.5722 12.3431L15.9799 8.26668C15.8315 8.09905 15.6129 8 15.3864 8C15.1599 8 14.9413 8.09905 14.7929 8.26668L11.1928 12.3431C10.9976 12.5717 10.9507 12.8917 11.0757 13.1584C11.2084 13.4327 11.4817 13.6079 11.7863 13.6079H12.7468V23.6885C12.7468 24.1075 13.0905 24.4504 13.5278 24.4504Z" fill="#4361EE"/>
<path d="M12.247 25.9667C9.66998 25.9667 7.57708 28.0087 7.57708 30.5155C7.57708 33.0299 9.66998 35.072 12.247 35.072C14.8163 35.072 16.9092 33.0299 16.9092 30.5155C16.9092 28.0087 14.8163 25.9667 12.247 25.9667Z" fill="#4361EE"/>
<path d="M41.4616 30.5155C41.4616 28.0087 39.3687 25.9667 36.7995 25.9667C34.2302 25.9667 32.1373 28.0087 32.1373 30.5155C32.1373 33.0299 34.2302 35.072 36.7995 35.072C39.3687 35.072 41.4616 33.0299 41.4616 30.5155Z" fill="#4361EE"/>
<path d="M29.6071 32.7709C28.303 34.0433 26.5068 34.8281 24.5233 34.8281C22.5397 34.8281 20.7358 34.0433 19.4394 32.7709C17.0185 33.9062 15.6675 35.971 15.6675 38.7598C15.6675 39.5903 16.1986 40.7332 18.7444 41.4723C20.2828 41.9218 22.3289 42.1657 24.5233 42.1657C25.9992 42.1657 33.379 41.998 33.379 38.7598C33.379 35.971 32.028 33.8986 29.6071 32.7709Z" fill="#4361EE"/>
<path d="M24.5232 33.3042C27.6313 33.3042 30.1537 30.8355 30.1537 27.803C30.1537 24.7704 27.6313 22.3094 24.5232 22.3094C21.4151 22.3094 18.8849 24.7704 18.8849 27.803C18.8849 30.8355 21.4151 33.3042 24.5232 33.3042Z" fill="#4361EE"/>
<path d="M41.3835 34.6148C40.2434 35.8263 38.6112 36.5958 36.7995 36.5958C36.0185 36.5958 35.2688 36.4511 34.5738 36.1844C34.8159 36.9768 34.9409 37.8378 34.9409 38.7598C34.9409 39.7503 34.566 40.5351 33.9725 41.1675L34.0974 41.4494C34.1599 41.7771 34.4411 42.0438 34.7925 42.0742C35.4406 42.1352 36.1201 42.1657 36.8073 42.1657C39.4624 42.1657 42.2035 41.7085 43.3749 40.6646C43.9294 40.1694 44.0465 39.6436 44.0465 39.2855C44.0465 37.2054 43.0781 35.5977 41.3835 34.6148Z" fill="#4361EE"/>
<path d="M14.4883 36.1844C13.7933 36.4434 13.0358 36.5958 12.247 36.5958C10.4275 36.5958 8.79532 35.8263 7.65516 34.6148C5.96054 35.5977 5 37.2054 5 39.2855C5 39.6436 5.11714 40.1694 5.6716 40.6646C6.84299 41.7085 9.58406 42.1657 12.2392 42.1657C12.9264 42.1657 13.6058 42.1352 14.2462 42.0742C14.6757 42.0361 14.9959 41.6628 14.9569 41.2437C14.1994 40.398 14.1056 39.3693 14.1056 38.7598C14.1056 37.8378 14.2384 36.9768 14.4883 36.1844Z" fill="#4361EE"/>
</g>
</g>
</g>
<defs>
<clipPath id="clip0_2765_13323">
<rect width="40" height="40" fill="white" transform="translate(5 5)"/>
</clipPath>
<clipPath id="clip1_2765_13323">
<rect width="40" height="40" fill="white" transform="translate(5 5)"/>
</clipPath>
<clipPath id="clip2_2765_13323">
<rect width="40" height="40" fill="white" transform="translate(5 5)"/>
</clipPath>
</defs>
</svg>
