<svg width="70" height="70" viewBox="0 0 70 70" fill="none" xmlns="http://www.w3.org/2000/svg">
<g clip-path="url(#clip0_20687_44834)">
<path d="M35 70C54.33 70 70 54.33 70 35C70 15.67 54.33 0 35 0C15.67 0 0 15.67 0 35C0 54.33 15.67 70 35 70Z" fill="#121617"/>
<path d="M50.8764 17.3594H19.1244C18.066 17.3594 17.3604 18.065 17.3604 19.1234V50.8754C17.3604 51.7574 18.066 52.6394 19.1244 52.6394H50.8764C51.7584 52.6394 52.6404 51.7574 52.6404 50.8754V19.1234C52.6404 18.065 51.7584 17.3594 50.8764 17.3594ZM29.7084 20.8874C30.7668 20.8874 31.4724 21.593 31.4724 22.6514C31.4724 23.7098 30.7668 24.4154 29.7084 24.4154C28.65 24.4154 27.9444 23.5334 27.9444 22.6514C27.9444 21.593 28.65 20.8874 29.7084 20.8874ZM22.6524 20.8874C23.5344 20.8874 24.4164 21.593 24.4164 22.6514C24.4164 23.7098 23.5344 24.4154 22.6524 24.4154C21.594 24.4154 20.8884 23.5334 20.8884 22.6514C20.8884 21.593 21.594 20.8874 22.6524 20.8874ZM49.1124 49.1114H20.8884V27.9434H49.1124V49.1114Z" fill="#A3ACB5"/>
<path d="M43.4 37.0984H26.6C25.34 37.0984 24.5 36.2584 24.5 34.9984C24.5 33.7384 25.34 32.8984 26.6 32.8984H43.4C44.66 32.8984 45.5 33.7384 45.5 34.9984C45.5 36.2584 44.45 37.0984 43.4 37.0984Z" fill="#A3ACB5"/>
<path d="M37.1 45.5008H26.6C25.34 45.5008 24.5 44.6608 24.5 43.4008C24.5 42.1408 25.34 41.3008 26.6 41.3008H37.1C38.36 41.3008 39.2 42.1408 39.2 43.4008C39.2 44.6608 38.15 45.5008 37.1 45.5008Z" fill="#A3ACB5"/>
</g>
<defs>
<clipPath id="clip0_20687_44834">
<rect width="70" height="70" fill="white"/>
</clipPath>
</defs>
</svg>
