<svg width="70" height="70" viewBox="0 0 70 70" fill="none" xmlns="http://www.w3.org/2000/svg">
<g clip-path="url(#clip0_20687_44809)">
<path d="M35 70C54.33 70 70 54.33 70 35C70 15.67 54.33 0 35 0C15.67 0 0 15.67 0 35C0 54.33 15.67 70 35 70Z" fill="#121617"/>
<g clip-path="url(#clip1_20687_44809)">
<path d="M34.9998 55.9991C30.8468 55.9984 26.7873 54.7665 23.3345 52.4589C19.8816 50.1514 17.1905 46.8718 15.6013 43.035C14.0121 39.1981 13.5962 34.9762 14.4063 30.903C15.2163 26.8299 17.2158 23.0883 20.1521 20.1514C23.5207 16.7886 27.9314 14.6696 32.6618 14.1415C37.3921 13.6133 42.1616 14.7074 46.1889 17.2444C50.2162 19.7814 53.2624 23.6109 54.8286 28.1056C56.3948 32.6003 56.3881 37.4937 54.8095 41.984C54.735 42.1863 54.5838 42.3511 54.3887 42.4428C54.1936 42.5346 53.9703 42.5458 53.767 42.4741C53.5637 42.4024 53.3967 42.2536 53.3023 42.0598C53.2079 41.866 53.1935 41.6428 53.2624 41.4385C53.991 39.3699 54.3619 37.1923 54.3591 34.9991C54.3591 24.3243 45.6745 15.6397 34.9998 15.6397C24.325 15.6397 15.6404 24.3243 15.6404 34.9991C15.6404 45.6738 24.325 54.3584 34.9998 54.3584C37.193 54.3612 39.3706 53.9903 41.4392 53.2617C41.6435 53.1928 41.8667 53.2072 42.0605 53.3016C42.2543 53.396 42.4031 53.5629 42.4748 53.7663C42.5465 53.9696 42.5353 54.1929 42.4436 54.388C42.3518 54.5831 42.187 54.7343 41.9847 54.8088C39.741 55.5995 37.3788 56.0021 34.9998 55.9991Z" fill="#A3ACB5"/>
<path d="M35 18.1114C34.8923 18.1114 34.7856 18.0902 34.6861 18.049C34.5866 18.0077 34.4961 17.9473 34.42 17.8711C34.3438 17.795 34.2834 17.7045 34.2421 17.605C34.2009 17.5055 34.1797 17.3988 34.1797 17.2911V14.8203C34.1797 14.6028 34.2661 14.3941 34.42 14.2403C34.5738 14.0864 34.7824 14 35 14C35.2176 14 35.4262 14.0864 35.58 14.2403C35.7339 14.3941 35.8203 14.6028 35.8203 14.8203V17.2911C35.8203 17.3988 35.7991 17.5055 35.7579 17.605C35.7166 17.7045 35.6562 17.795 35.58 17.8711C35.5039 17.9473 35.4134 18.0077 35.3139 18.049C35.2144 18.0902 35.1077 18.1114 35 18.1114Z" fill="#A3ACB5"/>
<path d="M47.5223 23.2999C47.3601 23.2999 47.2015 23.2518 47.0666 23.1616C46.9318 23.0715 46.8267 22.9434 46.7646 22.7935C46.7025 22.6437 46.6863 22.4787 46.7179 22.3196C46.7495 22.1605 46.8276 22.0144 46.9423 21.8997L48.6896 20.154C48.8459 20.0143 49.0497 19.9398 49.2592 19.9456C49.4688 19.9515 49.6681 20.0374 49.8163 20.1856C49.9646 20.3338 50.0504 20.5331 50.0563 20.7427C50.0621 20.9522 49.9876 21.156 49.8479 21.3123L48.1006 23.0596C48.0248 23.1358 47.9347 23.1963 47.8355 23.2376C47.7362 23.2788 47.6298 23.3 47.5223 23.2999Z" fill="#A3ACB5"/>
<path d="M55.1798 35.8203H52.709C52.4914 35.8203 52.2828 35.7339 52.1289 35.58C51.9751 35.4262 51.8887 35.2176 51.8887 35C51.8887 34.7824 51.9751 34.5738 52.1289 34.42C52.2828 34.2661 52.4914 34.1797 52.709 34.1797H55.1798C55.3973 34.1797 55.606 34.2661 55.7598 34.42C55.9137 34.5738 56.0001 34.7824 56.0001 35C56.0001 35.2176 55.9137 35.4262 55.7598 35.58C55.606 35.7339 55.3973 35.8203 55.1798 35.8203Z" fill="#A3ACB5"/>
<path d="M35 55.9981C34.7824 55.9981 34.5738 55.9117 34.42 55.7579C34.2661 55.604 34.1797 55.3954 34.1797 55.1778V52.707C34.1797 52.4895 34.2661 52.2808 34.42 52.127C34.5738 51.9731 34.7824 51.8867 35 51.8867C35.2176 51.8867 35.4262 51.9731 35.58 52.127C35.7339 52.2808 35.8203 52.4895 35.8203 52.707V55.1778C35.8203 55.3954 35.7339 55.604 35.58 55.7579C35.4262 55.9117 35.2176 55.9981 35 55.9981Z" fill="#A3ACB5"/>
<path d="M20.7308 50.0935C20.5679 50.0939 20.4085 50.0459 20.273 49.9554C20.1375 49.8649 20.032 49.7362 19.97 49.5855C19.908 49.4349 19.8922 49.2692 19.9247 49.1095C19.9572 48.9499 20.0365 48.8035 20.1525 48.6891L21.8998 46.9418C21.9754 46.8635 22.066 46.801 22.166 46.758C22.2661 46.715 22.3738 46.6924 22.4827 46.6914C22.5916 46.6905 22.6996 46.7112 22.8004 46.7525C22.9013 46.7937 22.9928 46.8546 23.0699 46.9317C23.1469 47.0087 23.2078 47.1003 23.249 47.2011C23.2903 47.3019 23.311 47.4099 23.3101 47.5188C23.3092 47.6278 23.2865 47.7354 23.2435 47.8355C23.2005 47.9356 23.138 48.0261 23.0597 48.1018L21.3108 49.8474C21.2351 49.9246 21.1449 49.9861 21.0454 50.0283C20.9458 50.0706 20.839 50.0927 20.7308 50.0935Z" fill="#A3ACB5"/>
<path d="M17.2911 35.8203H14.8203C14.6028 35.8203 14.3941 35.7339 14.2403 35.58C14.0864 35.4262 14 35.2176 14 35C14 34.7824 14.0864 34.5738 14.2403 34.42C14.3941 34.2661 14.6028 34.1797 14.8203 34.1797H17.2911C17.5087 34.1797 17.7173 34.2661 17.8711 34.42C18.025 34.5738 18.1114 34.7824 18.1114 35C18.1114 35.2176 18.025 35.4262 17.8711 35.58C17.7173 35.7339 17.5087 35.8203 17.2911 35.8203Z" fill="#A3ACB5"/>
<path d="M22.4777 23.2999C22.3699 23.3002 22.2632 23.2791 22.1636 23.2379C22.0641 23.1966 21.9737 23.136 21.8977 23.0596L20.1521 21.3123C20.0124 21.156 19.9378 20.9522 19.9437 20.7427C19.9495 20.5331 20.0354 20.3338 20.1836 20.1856C20.3318 20.0374 20.5312 19.9515 20.7407 19.9456C20.9503 19.9398 21.1541 20.0143 21.3104 20.154L23.0576 21.9013C23.1723 22.016 23.2504 22.1622 23.2821 22.3213C23.3137 22.4804 23.2975 22.6453 23.2354 22.7952C23.1733 22.945 23.0682 23.0731 22.9333 23.1633C22.7985 23.2534 22.6399 23.3015 22.4777 23.3016V23.2999Z" fill="#A3ACB5"/>
<path d="M46.1189 55.9996C44.1647 55.9996 42.2544 55.4201 40.6295 54.3344C39.0047 53.2487 37.7383 51.7056 36.9904 49.9001C36.2426 48.0947 36.0469 46.108 36.4281 44.1913C36.8094 42.2747 37.7504 40.5141 39.1323 39.1323C40.5141 37.7504 42.2747 36.8094 44.1913 36.4281C46.108 36.0469 48.0947 36.2426 49.9001 36.9904C51.7056 37.7383 53.2487 39.0047 54.3344 40.6295C55.4201 42.2544 55.9996 44.1647 55.9996 46.1189C55.9968 48.7386 54.9549 51.2501 53.1025 53.1025C51.2501 54.9549 48.7386 55.9968 46.1189 55.9996ZM46.1189 37.8789C44.4892 37.8789 42.8961 38.3622 41.541 39.2676C40.186 40.173 39.1298 41.46 38.5061 42.9656C37.8825 44.4713 37.7193 46.1281 38.0372 47.7265C38.3552 49.3249 39.14 50.7932 40.2924 51.9455C41.4448 53.0979 42.913 53.8827 44.5114 54.2007C46.1098 54.5186 47.7666 54.3554 49.2723 53.7318C50.7779 53.1081 52.0649 52.0519 52.9703 50.6969C53.8757 49.3418 54.359 47.7487 54.359 46.1189C54.3566 43.9343 53.4877 41.8398 51.9429 40.295C50.3981 38.7502 48.3036 37.8813 46.1189 37.8789Z" fill="#A3ACB5"/>
<path d="M35.0004 39.1161C34.1866 39.1161 33.3911 38.8748 32.7144 38.4226C32.0378 37.9705 31.5104 37.3279 31.199 36.576C30.8875 35.8242 30.806 34.9968 30.9648 34.1987C31.1236 33.4005 31.5155 32.6673 32.0909 32.0919C32.6664 31.5164 33.3995 31.1245 34.1977 30.9658C34.9959 30.807 35.8232 30.8885 36.5751 31.1999C37.3269 31.5114 37.9695 32.0388 38.4217 32.7154C38.8738 33.3921 39.1151 34.1876 39.1151 35.0014C39.114 36.0924 38.6802 37.1383 37.9088 37.9097C37.1373 38.6812 36.0914 39.115 35.0004 39.1161ZM35.0004 32.5273C34.5111 32.5273 34.0328 32.6724 33.6259 32.9443C33.2191 33.2162 32.902 33.6025 32.7147 34.0546C32.5274 34.5067 32.4784 35.0042 32.5739 35.4841C32.6694 35.964 32.905 36.4048 33.251 36.7508C33.597 37.0968 34.0378 37.3325 34.5178 37.4279C34.9977 37.5234 35.4951 37.4744 35.9472 37.2871C36.3993 37.0999 36.7857 36.7828 37.0575 36.3759C37.3294 35.9691 37.4745 35.4907 37.4745 35.0014C37.4738 34.3454 37.213 33.7165 36.7491 33.2527C36.2853 32.7889 35.6564 32.528 35.0004 32.5273Z" fill="#A3ACB5"/>
<path d="M36.6469 32.9663C36.4294 32.9663 36.2207 32.8799 36.0669 32.726C35.913 32.5722 35.8266 32.3635 35.8266 32.146V26.0273C35.8267 25.1446 35.6968 24.2667 35.4411 23.4219C35.3206 23.0249 35.1732 22.6365 34.9997 22.2596C34.4537 23.4405 34.1715 24.7262 34.1729 26.0273V32.146C34.1729 32.3635 34.0864 32.5722 33.9326 32.726C33.7788 32.8799 33.5701 32.9663 33.3525 32.9663C33.135 32.9663 32.9263 32.8799 32.7725 32.726C32.6187 32.5722 32.5322 32.3635 32.5322 32.146V26.0273C32.5299 23.9283 33.1512 21.8761 34.3172 20.1308C34.3921 20.0185 34.4936 19.9264 34.6127 19.8627C34.7318 19.799 34.8647 19.7656 34.9997 19.7656C35.1348 19.7656 35.2677 19.799 35.3868 19.8627C35.5058 19.9264 35.6073 20.0185 35.6822 20.1308C36.8461 21.8771 37.4671 23.9287 37.4672 26.0273V32.146C37.4672 32.3635 37.3808 32.5722 37.227 32.726C37.0731 32.8799 36.8645 32.9663 36.6469 32.9663Z" fill="#A3ACB5"/>
<path d="M32.1459 37.4662H28.498C26.3991 37.4684 24.3468 36.8472 22.6016 35.6813C22.4892 35.6063 22.3971 35.5048 22.3334 35.3858C22.2697 35.2667 22.2363 35.1338 22.2363 34.9988C22.2363 34.8637 22.2697 34.7308 22.3334 34.6117C22.3971 34.4927 22.4892 34.3912 22.6016 34.3162C24.3478 33.1524 26.3994 32.5313 28.498 32.5312H32.1459C32.3634 32.5312 32.5721 32.6177 32.7259 32.7715C32.8798 32.9254 32.9662 33.134 32.9662 33.3516C32.9662 33.5691 32.8798 33.7778 32.7259 33.9316C32.5721 34.0855 32.3634 34.1719 32.1459 34.1719H28.498C27.6153 34.1717 26.7374 34.3016 25.8926 34.5574C25.4956 34.6779 25.1072 34.8253 24.7303 34.9988C25.9112 35.5448 27.1969 35.827 28.498 35.8256H32.1459C32.3634 35.8256 32.5721 35.9121 32.7259 36.0659C32.8798 36.2197 32.9662 36.4284 32.9662 36.6459C32.9662 36.8635 32.8798 37.0721 32.7259 37.226C32.5721 37.3798 32.3634 37.4662 32.1459 37.4662Z" fill="#A3ACB5"/>
<path d="M42.8249 49.412C42.6075 49.4121 42.3989 49.326 42.245 49.1724L39.7734 46.7008C39.6196 46.547 39.5332 46.3384 39.5332 46.1209C39.5332 45.9033 39.6196 45.6947 39.7734 45.5409L42.245 43.0701C42.3997 42.9207 42.6069 42.838 42.822 42.8399C43.0371 42.8417 43.2428 42.928 43.3949 43.0801C43.547 43.2322 43.6333 43.4379 43.6351 43.653C43.637 43.8681 43.5543 44.0753 43.4049 44.23L41.5182 46.1209L43.4049 48.0117C43.5196 48.1264 43.5977 48.2726 43.6293 48.4317C43.661 48.5908 43.6447 48.7557 43.5826 48.9055C43.5206 49.0554 43.4155 49.1835 43.2806 49.2736C43.1457 49.3638 42.9872 49.4119 42.8249 49.412Z" fill="#A3ACB5"/>
<path d="M49.4139 49.4105C49.2517 49.4104 49.0931 49.3623 48.9582 49.2722C48.8234 49.182 48.7183 49.0539 48.6562 48.9041C48.5941 48.7542 48.5779 48.5893 48.6095 48.4302C48.6411 48.2711 48.7192 48.1249 48.8339 48.0102L50.7247 46.1194L48.8339 44.2286C48.6801 44.0746 48.5937 43.8659 48.5938 43.6483C48.5939 43.4307 48.6804 43.222 48.8343 43.0682C48.9883 42.9144 49.197 42.828 49.4146 42.8281C49.6322 42.8282 49.8409 42.9147 49.9947 43.0686L52.4654 45.5394C52.6192 45.6933 52.7056 45.9019 52.7056 46.1194C52.7056 46.3369 52.6192 46.5455 52.4654 46.6993L49.9947 49.1709C49.9183 49.2471 49.8278 49.3074 49.7281 49.3485C49.6285 49.3896 49.5217 49.4107 49.4139 49.4105Z" fill="#A3ACB5"/>
<path d="M45.2964 51.8827C45.2511 51.8826 45.2058 51.8787 45.1611 51.8713C45.0548 51.8536 44.953 51.8151 44.8616 51.758C44.7702 51.701 44.691 51.6265 44.6283 51.5388C44.5657 51.4512 44.521 51.352 44.4967 51.247C44.4724 51.1421 44.469 51.0334 44.4868 50.9271L46.134 41.0431C46.1703 40.8285 46.2904 40.6371 46.4679 40.511C46.6453 40.385 46.8656 40.3346 47.0802 40.3709C47.2948 40.4072 47.4862 40.5273 47.6123 40.7048C47.7384 40.8822 47.7888 41.1025 47.7524 41.3171L46.1044 51.197C46.0726 51.3884 45.974 51.5623 45.826 51.6879C45.6781 51.8134 45.4905 51.8825 45.2964 51.8827Z" fill="#A3ACB5"/>
</g>
</g>
<defs>
<clipPath id="clip0_20687_44809">
<rect width="70" height="70" fill="white"/>
</clipPath>
<clipPath id="clip1_20687_44809">
<rect width="42" height="42" fill="white" transform="translate(14 14)"/>
</clipPath>
</defs>
</svg>
