<svg width="116" height="121" viewBox="0 0 116 121" fill="none" xmlns="http://www.w3.org/2000/svg">
<path d="M0 58C0 25.9675 25.9675 0 58 0C90.0325 0 116 25.9675 116 58V63C116 95.0325 90.0325 121 58 121C25.9675 121 0 95.0325 0 63V58Z" fill="#E8F2FC"/>
<g clip-path="url(#clip0_2610_11940)">
<path d="M39.5001 83.5001V77.2501C39.5001 69.6561 45.6561 63.5001 53.2501 63.5001H63.2501M49.5001 83.5001V76.0001M69.5001 47.2501C69.5001 52.773 65.0228 57.2501 59.5001 57.2501C53.9772 57.2501 49.5001 52.773 49.5001 47.2501C49.5001 41.7273 53.9772 37.2501 59.5001 37.2501C65.0228 37.2501 69.5001 41.7273 69.5001 47.2501ZM73.2501 63.4996C72.1098 61.9819 70.2946 61.0001 68.2501 61.0001C64.7983 61.0001 62.0001 63.7984 62.0001 67.2501C62.0001 68.7989 62.5633 70.2161 63.4963 71.3079L73.2501 83.5001L83.0038 71.3079C83.9368 70.2161 84.5001 68.7989 84.5001 67.2501C84.5001 63.7984 81.7018 61.0001 78.2501 61.0001C76.2056 61.0001 74.3903 61.9819 73.2501 63.4996Z" stroke="#4361EE" stroke-width="4" stroke-linecap="round" stroke-linejoin="round"/>
</g>
<defs>
<clipPath id="clip0_2610_11940">
<rect width="60" height="60" fill="white" transform="translate(29.5 31)"/>
</clipPath>
</defs>
</svg>
