<svg width="70" height="70" viewBox="0 0 70 70" fill="none" xmlns="http://www.w3.org/2000/svg">
<g clip-path="url(#clip0_20687_44825)">
<path d="M35 70C54.33 70 70 54.33 70 35C70 15.67 54.33 0 35 0C15.67 0 0 15.67 0 35C0 54.33 15.67 70 35 70Z" fill="#121617"/>
<path d="M19.6837 24.4332C19.9772 25.5937 20.5793 26.6546 21.4255 27.5007L22.2002 28.2655L28.2769 22.1892L27.5023 21.4243C26.6555 20.5782 25.5951 19.9762 24.4346 19.6826L18.6058 18.2091C18.4945 18.1811 18.3767 18.2136 18.2953 18.2943C18.2146 18.3757 18.1821 18.4935 18.2101 18.6048L19.6837 24.4332Z" fill="#A3ACB5"/>
<path d="M26.5467 32.5574L32.6229 26.4816L29.6664 23.5625L23.5898 29.6387L26.5467 32.5574Z" fill="#A3ACB5"/>
<path d="M37.1641 43.2422L43.2393 37.167L46.8808 40.8085L40.8056 46.8838L37.1641 43.2422Z" fill="#A3ACB5"/>
<path d="M48.2681 42.1914L42.1914 48.2677L44.1912 50.2676C45.0029 51.0785 46.0821 51.5257 47.2297 51.5257C48.3772 51.5257 49.4564 51.0785 50.2681 50.2676C51.9429 48.5922 51.9429 45.8664 50.2681 44.1912L48.2681 42.1914Z" fill="#A3ACB5"/>
<path d="M33.2321 36.0907C33.6135 35.7094 34.2317 35.7094 34.6129 36.0907L37.9759 39.4535L39.4559 37.9736L37.5362 36.0541C37.1549 35.6729 37.1549 35.0548 37.5362 34.6735C37.9175 34.2923 38.5357 34.2921 38.917 34.6735L40.8366 36.5929L42.3426 35.087L38.9796 31.7241C38.5983 31.3429 38.5983 30.7247 38.9796 30.3435C39.3609 29.9623 39.9791 29.9621 40.3604 30.3435L43.7234 33.7063L45.2295 32.2004L43.3098 30.2809C42.9285 29.8997 42.9285 29.2816 43.3098 28.9002C43.6911 28.519 44.3093 28.5189 44.6906 28.9002L46.6102 30.8197L48.1162 29.3137L44.7532 25.9509C44.3719 25.5697 44.3719 24.9515 44.7532 24.5702C45.1346 24.1889 45.7528 24.1889 46.134 24.5702L49.497 27.9331L50.8781 26.5498C51.2949 26.1331 51.5243 25.579 51.5243 24.9897C51.5243 24.4004 51.2947 23.8465 50.8781 23.4297L46.2934 18.8455C45.8766 18.4287 45.3226 18.1992 44.7333 18.1992C44.144 18.1992 43.59 18.4286 43.1732 18.8454L18.8464 43.1728C18.4297 43.5894 18.2002 44.1435 18.2002 44.7327C18.2002 45.322 18.4297 45.876 18.8464 46.2927L23.4312 50.8771C23.8479 51.2938 24.4019 51.5234 24.9912 51.5234C25.5806 51.5234 26.1346 51.2939 26.5513 50.8772L27.9346 49.4941L26.015 47.5746C25.6338 47.1934 25.6338 46.5752 26.015 46.1939C26.3963 45.8127 27.0145 45.8127 27.3958 46.1939L29.3154 48.1134L30.8214 46.6074L27.4584 43.2447C27.0771 42.8635 27.0771 42.2453 27.4584 41.864C27.8397 41.4828 28.4579 41.4828 28.8391 41.864L32.2021 45.2267L33.7082 43.7208L31.7886 41.8013C31.4073 41.4201 31.4073 40.802 31.7886 40.4206C32.1699 40.0394 32.7881 40.0393 33.1694 40.4206L35.089 42.3401L36.5951 40.8341L33.2321 37.4713C32.8508 37.0901 32.8508 36.4719 33.2321 36.0907Z" fill="#A3ACB5"/>
</g>
<defs>
<clipPath id="clip0_20687_44825">
<rect width="70" height="70" fill="white"/>
</clipPath>
</defs>
</svg>
