<svg width="50" height="50" viewBox="0 0 50 50" fill="none" xmlns="http://www.w3.org/2000/svg">
<path d="M6.25 14.8438C6.25 10.0976 10.0976 6.25 14.8438 6.25H35.1562C39.9025 6.25 43.75 10.0976 43.75 14.8438V20.0528C42.1675 19.6335 40.6191 18.683 39.0625 17.0307V15.6219H10.9375V35.1562C10.9375 37.3137 12.6864 39.0625 14.8438 39.0625H23.1069C23.6561 40.5525 24.394 41.9434 25.331 43.2206C25.4628 43.4 25.5979 43.5766 25.7363 43.75H14.8438C10.0976 43.75 6.25 39.9025 6.25 35.1562V14.8438Z" fill="#4361EE"/>
<path d="M39.0625 21.1931C40.5416 22.2645 42.1019 22.9493 43.75 23.2539C44.4128 23.3764 45.0897 23.4375 45.7812 23.4375C46.31 23.4375 46.7509 23.8392 46.8528 24.3732L46.875 24.6094V31.6434C46.875 39.1866 43.285 44.3144 36.2834 46.815C36.0591 46.895 35.8163 46.895 35.5916 46.815C33.4278 46.0422 31.59 45.0184 30.0831 43.75C28.532 42.4444 27.3317 40.8797 26.488 39.0625C25.5875 37.1231 25.0932 34.8959 25.012 32.3897L25 31.6434V24.6094C25 23.9622 25.4897 23.4375 26.0938 23.4375C29.439 23.4375 32.4466 22.0055 35.1659 19.0931C35.5934 18.6353 36.2862 18.6357 36.7134 19.094C37.4731 19.9094 38.2556 20.6088 39.0625 21.1931Z" fill="#4361EE"/>
</svg>
