<svg xmlns="http://www.w3.org/2000/svg" width="65" height="65" viewBox="0 0 65 65" fill="none"><path d="M32.5 0C15.84 0 2.11018 12.5363 0.223438 28.6898C0.0751401 29.9545 0.000534818 31.2267 0 32.5C0 32.7587 0.00377252 33.0167 0.00972118 33.2738C0.420904 50.8655 14.8094 65 32.5 65C47.7714 65 60.5801 54.4662 64.063 40.2689C64.258 39.4737 64.4228 38.6713 64.5569 37.8635C64.8516 36.0909 64.9998 34.297 65 32.5C65 14.5507 50.4493 0 32.5 0ZM62.4733 36.0332C61.4192 34.9005 60.5778 33.6987 60.1951 33.0692C60.0687 32.8559 57.0493 27.8468 52.5303 27.8468C48.4769 27.8468 46.3975 31.6582 45.0218 34.18C44.8165 34.5562 44.6228 34.9114 44.4446 35.2127C42.7665 38.0546 40.4267 39.6536 38.1905 39.4988C36.2194 39.3597 34.5381 37.8444 33.4566 35.2317C32.1027 31.9614 29.169 28.4398 25.6669 27.9441C24.0088 27.7092 21.5241 28.0697 19.0907 31.118C18.6129 31.7164 18.0803 32.5126 17.4635 33.4347C15.9296 35.7277 13.6116 39.1927 11.8554 39.4795C8.80561 39.9783 6.77422 37.652 6.69268 37.5572L6.62202 37.4731L6.53685 37.4036C6.50667 37.3789 4.35456 35.602 2.32244 32.5672C2.32244 32.5447 2.32157 32.5222 2.32157 32.4999C2.32157 28.4247 3.11913 24.4728 4.69219 20.7537C6.21214 17.1603 8.38848 13.9326 11.1607 11.1604C13.9329 8.38819 17.1607 6.21185 20.754 4.6919C24.4729 3.11898 28.4249 2.32143 32.5 2.32143C36.5751 2.32143 40.5271 3.11898 44.2461 4.69204C47.8396 6.212 51.0672 8.38834 53.8394 11.1606C56.6117 13.9328 58.788 17.1606 60.308 20.7539C61.881 24.4729 62.6786 28.4249 62.6786 32.5C62.6786 33.6893 62.6086 34.8676 62.4733 36.0332Z" fill="#FF5D00"></path></svg>