<svg width="100" height="100" viewBox="0 0 100 100" fill="none" xmlns="http://www.w3.org/2000/svg">
<rect width="100" height="100" fill="#F5F5F5"/>
<g id="Mainframe" clip-path="url(#clip0_0_1)">
<rect width="1900" height="10986" transform="translate(-1388 -1150)" fill="white"/>
<g id="Process">
<rect width="1900" height="1874" transform="translate(-1388 -314)" fill="#E9EEF1"/>
<g id="card">
<rect x="-182" y="-55" width="464" height="438" rx="8" fill="#FCFDFD"/>
<g id="ic_Application_Development&#194;&#160;">
<path id="Ellipse 1" d="M100 50C100 77.6142 77.6142 100 50 100C22.3858 100 0 77.6142 0 50C0 22.3858 22.3858 0 50 0C77.6142 0 100 22.3858 100 50Z" fill="#FF5D00" fill-opacity="0.1"/>
<g id="Group">
<g id="Group_2">
<path id="Vector" d="M32.6408 32.085C32.0894 32.085 31.6406 32.5368 31.6406 33.0917C31.6406 33.6435 32.0894 34.0921 32.6408 34.0921C33.1959 34.0921 33.6475 33.6433 33.6475 33.0917C33.6475 32.5368 33.1959 32.085 32.6408 32.085Z" fill="#FF5D00"/>
<path id="Vector_2" d="M69.5413 32.0065C69.5413 29.2474 67.2992 27 64.5402 27H30.0065C27.2474 27 25 29.2474 25 32.0065V38.1209H69.5412V32.0065H69.5413ZM32.6391 35.1455C31.5048 35.1455 30.5816 34.2223 30.5816 33.0934C30.5816 31.9539 31.5048 31.0306 32.6391 31.0306C33.7733 31.0306 34.7018 31.9539 34.7018 33.0934C34.7017 34.2223 33.7733 35.1455 32.6391 35.1455ZM38.479 35.1455C37.3448 35.1455 36.4216 34.2223 36.4216 33.0934C36.4216 31.9539 37.3448 31.0306 38.479 31.0306C39.6132 31.0306 40.5418 31.9539 40.5418 33.0934C40.5418 34.2223 39.6132 35.1455 38.479 35.1455ZM44.319 35.1455C43.1848 35.1455 42.2616 34.2223 42.2616 33.0934C42.2616 31.9539 43.1848 31.0306 44.319 31.0306C45.4532 31.0306 46.3818 31.9539 46.3818 33.0934C46.3818 34.2223 45.4532 35.1455 44.319 35.1455ZM63.4376 33.6156H54.1474C53.8572 33.6156 53.6198 33.3782 53.6198 33.0881C53.6198 32.7979 53.8572 32.5605 54.1474 32.5605H63.4376C63.7277 32.5605 63.9651 32.7979 63.9651 33.0881C63.9651 33.3782 63.7276 33.6156 63.4376 33.6156Z" fill="#FF5D00"/>
<path id="Vector_3" d="M38.4782 32.085C37.9268 32.085 37.478 32.5368 37.478 33.0917C37.478 33.6435 37.9268 34.0921 38.4782 34.0921C39.0333 34.0921 39.4849 33.6433 39.4849 33.0917C39.4849 32.5368 39.0333 32.085 38.4782 32.085ZM30.2861 58.5848V44.4095C30.2861 44.1194 30.5235 43.882 30.8137 43.882H63.733C64.0232 43.882 64.2606 44.1194 64.2606 44.4095V50.8457H69.5413V39.1762H25V66.4771C25 69.2415 27.2474 71.4836 30.0065 71.4836H56.4527V64.2139H31.109C30.8188 64.2139 30.5814 63.9765 30.5814 63.6863C30.5814 63.3909 30.8188 63.1587 31.109 63.1587H56.4527V59.1124H30.8137C30.5235 59.1124 30.2861 58.875 30.2861 58.5848Z" fill="#FF5D00"/>
<path id="Vector_4" d="M63.2079 50.8457V44.9371H31.3438V58.0574H56.4553V54.3804C56.4553 52.4336 58.0432 50.8457 59.9899 50.8457H63.2079ZM44.3211 32.085C43.7697 32.085 43.3209 32.5368 43.3209 33.0917C43.3209 33.6435 43.7697 34.0921 44.3211 34.0921C44.8762 34.0921 45.3278 33.6433 45.3278 33.0917C45.3278 32.5368 44.8764 32.085 44.3211 32.085Z" fill="#FF5D00"/>
<path id="Vector_5" d="M72.5167 51.9004H59.9874C58.621 51.9004 57.5078 53.0136 57.5078 54.3799V78.3309C57.5078 78.5049 57.5289 78.6685 57.5606 78.8321C57.7928 79.961 58.7898 80.8104 59.9874 80.8104H72.5167C73.2025 80.8104 73.8197 80.5308 74.2681 80.0824C74.7165 79.634 74.9961 79.0168 74.9961 78.331V54.3799C74.9962 53.0136 73.883 51.9004 72.5167 51.9004ZM73.9411 73.6937C73.9411 74.4797 73.3027 75.1181 72.5167 75.1181H59.9874C59.2012 75.1181 58.5682 74.4797 58.563 73.699V54.3799C58.563 53.5939 59.2013 52.9555 59.9874 52.9555H72.5167C73.3027 52.9555 73.9411 53.5939 73.9411 54.3799V73.6937Z" fill="#FF5D00"/>
<path id="Vector_6" d="M71.1711 56.9014H61.3323C61.0421 56.9014 60.8047 57.1388 60.8047 57.4289V64.1658C60.8047 64.456 61.0421 64.6934 61.3323 64.6934H71.1711C71.4613 64.6934 71.6987 64.456 71.6987 64.1658V57.4289C71.6986 57.1389 71.4613 56.9014 71.1711 56.9014ZM71.17 68.874H61.3343C61.043 68.874 60.8067 69.1099 60.8067 69.4016C60.8067 69.6931 61.043 69.9291 61.3343 69.9291H71.17C71.4613 69.9291 71.6976 69.6932 71.6976 69.4016C71.6975 69.1099 71.4613 68.874 71.17 68.874Z" fill="#FF5D00"/>
</g>
</g>
</g>
</g>
</g>
</g>
<defs>
<clipPath id="clip0_0_1">
<rect width="1900" height="10986" fill="white" transform="translate(-1388 -1150)"/>
</clipPath>
</defs>
</svg>
