<svg width="100" height="100" viewBox="0 0 100 100" fill="none" xmlns="http://www.w3.org/2000/svg">
<rect width="100" height="100" fill="#F5F5F5"/>
<g id="App Development Services01 Georgia" clip-path="url(#clip0_0_1)">
<rect width="1900" height="11808" transform="translate(-412 -1764)" fill="white"/>
<g id="Frame 61">
<rect width="1900" height="3127" transform="translate(-412 -464)" fill="#EFF3F5"/>
<g id="card">
<rect x="-182" y="-40" width="464" height="581" rx="8" fill="#FCFDFD"/>
<g id="ic_android">
<path id="Ellipse 1" d="M100 50C100 77.6142 77.6142 100 50 100C22.3858 100 0 77.6142 0 50C0 22.3858 22.3858 0 50 0C77.6142 0 100 22.3858 100 50Z" fill="#FF5D00" fill-opacity="0.1"/>
<path id="Vector" d="M41.5071 28.8005C41.8859 28.8005 42.2114 28.6623 42.4837 28.3858C42.7559 28.1094 42.892 27.7788 42.892 27.3942C42.892 27.0096 42.7559 26.6791 42.4837 26.4026C42.2114 26.1262 41.8859 25.988 41.5071 25.988C41.1283 25.988 40.8087 26.1262 40.5483 26.4026C40.2879 26.6791 40.1577 27.0096 40.1577 27.3942C40.1577 27.7788 40.2879 28.1094 40.5483 28.3858C40.8087 28.6623 41.1283 28.8005 41.5071 28.8005ZM56.4929 28.8005C56.8717 28.8005 57.1913 28.6623 57.4517 28.3858C57.7121 28.1094 57.8423 27.7788 57.8423 27.3942C57.8423 27.0096 57.7121 26.6791 57.4517 26.4026C57.1913 26.1262 56.8717 25.988 56.4929 25.988C56.1141 25.988 55.7886 26.1262 55.5163 26.4026C55.2441 26.6791 55.108 27.0096 55.108 27.3942C55.108 27.7788 55.2441 28.1094 55.5163 28.3858C55.7886 28.6623 56.1141 28.8005 56.4929 28.8005ZM27.6577 35.4351C28.652 35.4351 29.5043 35.7957 30.2145 36.5168C30.9247 37.238 31.2798 38.1034 31.2798 39.113V54.6178C31.2798 55.6514 30.9306 56.5288 30.2322 57.25C29.5339 57.9712 28.6757 58.3317 27.6577 58.3317C26.6397 58.3317 25.7756 57.9712 25.0653 57.25C24.3551 56.5288 24 55.6514 24 54.6178V39.113C24 38.1034 24.3551 37.238 25.0653 36.5168C25.7756 35.7957 26.6397 35.4351 27.6577 35.4351ZM65.2997 36.1202V60.1346C65.2997 61.2404 64.9209 62.1779 64.1634 62.9471C63.4058 63.7163 62.4943 64.101 61.429 64.101H58.7656V72.2861C58.7656 73.3197 58.4105 74.1971 57.7003 74.9183C56.9901 75.6394 56.1259 76 55.108 76C54.09 76 53.2259 75.6394 52.5156 74.9183C51.8054 74.1971 51.4503 73.3197 51.4503 72.2861V64.101H46.5497V72.2861C46.5497 73.3197 46.1946 74.1971 45.4844 74.9183C44.7741 75.6394 43.91 76 42.892 76C41.8977 76 41.0455 75.6394 40.3352 74.9183C39.625 74.1971 39.2699 73.3197 39.2699 72.2861L39.2344 64.101H36.6065C35.5175 64.101 34.5942 63.7163 33.8366 62.9471C33.0791 62.1779 32.7003 61.2404 32.7003 60.1346V36.1202H65.2997ZM57.0611 21.5168C59.5942 22.8389 61.6184 24.6839 63.1335 27.0517C64.6487 29.4195 65.4062 32.0096 65.4062 34.8221H32.5582C32.5582 32.0096 33.3158 29.4195 34.831 27.0517C36.3461 24.6839 38.3821 22.8389 40.9389 21.5168L38.4176 16.7933C38.2519 16.4808 38.3111 16.2404 38.5952 16.0721C38.9029 15.9279 39.1397 16 39.3054 16.2885L41.8622 21.0481C44.1113 20.0385 46.4905 19.5337 49 19.5337C51.5095 19.5337 53.8887 20.0385 56.1378 21.0481L58.6946 16.2885C58.8603 16 59.0971 15.9279 59.4048 16.0721C59.6889 16.2404 59.7481 16.4808 59.5824 16.7933L57.0611 21.5168ZM74 39.113V54.6178C74 55.6514 73.6449 56.5288 72.9347 57.25C72.2244 57.9712 71.3603 58.3317 70.3423 58.3317C69.348 58.3317 68.4957 57.9712 67.7855 57.25C67.0753 56.5288 66.7202 55.6514 66.7202 54.6178V39.113C66.7202 38.0793 67.0753 37.2079 67.7855 36.4988C68.4957 35.7897 69.348 35.4351 70.3423 35.4351C71.3603 35.4351 72.2244 35.7897 72.9347 36.4988C73.6449 37.2079 74 38.0793 74 39.113Z" fill="#FF5D00"/>
</g>
</g>
</g>
</g>
<defs>
<clipPath id="clip0_0_1">
<rect width="1900" height="11808" fill="white" transform="translate(-412 -1764)"/>
</clipPath>
</defs>
</svg>
