<svg xmlns="http://www.w3.org/2000/svg" width="84" height="83" viewBox="0 0 84 83" fill="none"><path d="M66.9864 35.8504L64.4105 35.3352C63.8953 33.4462 63.0367 31.3855 62.0063 29.6683L63.5519 27.6076C64.4105 26.4055 64.2388 24.6883 63.2084 23.6579L59.7739 20.2234C58.7436 19.0214 57.0263 19.0214 55.8243 19.88L53.5918 21.4255C51.8746 20.3952 49.9856 19.7083 47.9249 19.0214L47.4098 16.4455C47.4098 14.9 46.036 13.8696 44.4904 13.8696H39.5104C37.9649 13.8696 36.7628 14.9 36.4194 16.4455L36.0759 19.0214C34.0152 19.5365 32.1263 20.3952 30.409 21.4255L28.3483 19.88C27.1462 19.0214 25.429 19.0214 24.3987 20.2234L20.9642 23.6579C19.7621 24.6883 19.7621 26.4055 20.6207 27.6076L22.1662 29.84C21.1359 31.5573 20.449 33.4462 19.7621 35.5069L17.1862 36.0221C15.6407 36.0221 14.6104 37.3959 14.6104 38.9414V43.9214C14.6104 45.467 15.6407 46.669 17.1862 47.0125L19.7621 47.5277C20.2773 49.5884 21.1359 51.4773 22.1662 53.1946L20.6207 55.0835C19.7621 56.2856 19.9338 58.0029 20.9642 59.0332L24.3987 62.4677C25.429 63.4981 27.1462 63.6698 28.3483 62.8112L30.5807 61.2656C32.298 62.296 34.187 62.9829 36.2477 63.6698L36.7628 66.2456C36.9346 67.7912 38.3084 68.8215 39.8539 68.8215H44.8339C46.3794 68.8215 47.5815 67.7912 47.9249 66.2456L48.4401 63.6698C50.5008 63.1546 52.3898 62.296 54.107 61.2656L56.3394 62.8112C57.5415 63.6698 59.2588 63.4981 60.2891 62.4677L63.7236 59.0332C64.7539 58.0029 64.9257 56.2856 64.067 55.0835L62.5215 52.8511C63.5519 51.1339 64.2388 49.2449 64.9257 47.1842L67.5015 46.669C69.0471 46.4973 70.0774 45.1235 70.0774 43.578V38.598C69.5622 37.3959 68.5319 36.0221 66.9864 35.8504ZM42.0863 53.3663C35.389 53.3663 30.0656 48.0428 30.0656 41.3456C30.0656 34.6483 35.389 29.3248 42.0863 29.3248C48.6118 29.3248 54.107 34.6483 54.107 41.3456C54.107 48.0428 48.7836 53.3663 42.0863 53.3663Z" fill="#FF5D00"></path><path d="M6.88195 34.3048C7.74057 34.4765 8.77092 33.9614 8.94264 33.1027C12.2054 19.7082 23.1958 9.91992 36.4186 7.6875L33.4993 10.0916C32.8124 10.6068 32.6406 11.8089 33.1558 12.4958C33.671 13.1827 34.8731 13.3544 35.56 12.8392L43.1158 7.0006C43.631 6.65715 43.8027 6.14197 43.8027 5.6268C43.8027 4.76818 43.2876 4.253 42.6007 3.90955L34.0144 0.131611C33.1558 -0.211838 32.1255 0.131611 31.782 0.990234C31.4386 1.84886 31.782 2.87921 32.6406 3.22265L35.2165 4.42473C20.9634 7.17232 9.28609 17.8193 5.67988 32.2441C5.50815 33.2745 6.02332 34.1331 6.88195 34.3048Z" fill="#FF5D00"></path><path d="M33.843 74.3166C20.4485 71.0538 10.6601 60.0634 8.42773 46.8406L10.8319 49.9317C11.347 50.6186 12.5491 50.7903 13.236 50.2751C13.9229 49.7599 14.0946 48.5579 13.5795 47.871L7.74083 40.3151C7.39738 39.7999 6.88221 39.6282 6.36703 39.6282C5.50841 39.6282 4.99324 40.1433 4.64979 40.8302L0.871845 49.4165C0.528396 50.2751 0.871845 51.3054 1.73047 51.6489C2.58909 51.9923 3.61944 51.6489 3.96289 50.7903L5.16496 48.2144C7.74083 62.4676 18.5595 74.1448 32.9844 77.751C33.843 77.9228 34.8733 77.4076 35.045 76.549C35.3885 75.5186 34.7016 74.66 33.843 74.3166Z" fill="#FF5D00"></path><path d="M77.2894 47.6993C76.4308 47.5276 75.4005 48.0427 75.2288 49.0731C72.1377 62.8111 61.1473 72.7711 47.5811 75.0035L50.5004 72.7711C51.1873 72.2559 51.359 71.0538 50.8439 70.3669C50.3287 69.68 49.1266 69.5083 48.4397 70.0235L41.0556 75.6904C40.5404 76.0338 40.3687 76.7208 40.3687 77.2359C40.5404 77.9228 41.0556 78.438 41.5707 78.6097L50.157 82.3877C51.0156 82.7311 52.0459 82.3877 52.3894 81.529C52.7328 80.6704 52.3894 79.6401 51.5308 79.2966L48.9549 78.2663C63.3798 75.6904 75.2288 64.7 78.6632 49.76C78.835 48.9014 78.3198 47.871 77.2894 47.6993Z" fill="#FF5D00"></path><path d="M83.1281 33.2744C83.4716 32.4158 83.1281 31.3855 82.2695 31.042C81.4109 30.6986 80.3805 31.042 80.0371 31.9006L79.0067 34.4765C76.2592 19.8799 65.4405 8.20263 50.5005 4.76814C49.6418 4.59641 48.6115 5.11159 48.4398 6.14193C48.268 7.00056 48.7832 8.03091 49.8136 8.20263C63.5515 11.2937 73.6833 22.284 75.744 35.8503L73.3398 32.7593C72.8247 32.0724 71.6226 31.9006 70.9357 32.4158C70.2488 32.931 70.0771 34.1331 70.5922 34.82L76.4309 42.3758C77.1178 43.0627 77.8047 43.0627 77.8047 43.0627C78.4916 43.0627 79.1785 42.5476 79.3502 41.8607L83.1281 33.2744Z" fill="#FF5D00"></path></svg>