<svg width="80" height="80" viewBox="0 0 80 80" fill="none" xmlns="http://www.w3.org/2000/svg">
<g clip-path="url(#clip0_7829_9390)">
<path d="M0 40C0 17.9086 17.9086 0 40 0C62.0914 0 80 17.9086 80 40C80 62.0914 62.0914 80 40 80C17.9086 80 0 62.0914 0 40Z" fill="#6981F1"/>
<path d="M54.1849 44.8424C54.7372 44.8424 55.1849 44.3947 55.1849 43.8424C55.1849 43.2902 54.7372 42.8424 54.1849 42.8424V43.8424V44.8424ZM47.9994 43.8424V44.8424V43.8424ZM40.2731 40.2345L41.0404 39.5931L40.2731 40.2345ZM40.8151 53.0924H39.8151C39.8151 55.8028 37.6179 58 34.9076 58V59V60C38.7225 60 41.8151 56.9074 41.8151 53.0924H40.8151ZM34.9076 59V58C32.1972 58 30 55.8028 30 53.0924H29H28C28 56.9074 31.0926 60 34.9076 60V59ZM29 53.0924H30C30 50.3821 32.1972 48.1849 34.9076 48.1849V47.1849V46.1849C31.0926 46.1849 28 49.2775 28 53.0924H29ZM34.9076 47.1849V48.1849C37.6179 48.1849 39.8151 50.3821 39.8151 53.0924H40.8151H41.8151C41.8151 49.2775 38.7225 46.1849 34.9076 46.1849V47.1849ZM40.8151 27.9076H39.8151C39.8151 30.6179 37.6179 32.8151 34.9076 32.8151V33.8151V34.8151C38.7225 34.8151 41.8151 31.7225 41.8151 27.9076H40.8151ZM34.9076 33.8151V32.8151C32.1972 32.8151 30 30.6179 30 27.9076H29H28C28 31.7225 31.0926 34.8151 34.9076 34.8151V33.8151ZM29 27.9076H30C30 25.1972 32.1972 23 34.9076 23V22V21C31.0926 21 28 24.0926 28 27.9076H29ZM34.9076 22V23C37.6179 23 39.8151 25.1972 39.8151 27.9076H40.8151H41.8151C41.8151 24.0926 38.7225 21 34.9076 21V22ZM66 43.1429H65C65 45.8532 62.8028 48.0504 60.0924 48.0504V49.0504V50.0504C63.9074 50.0504 67 46.9578 67 43.1429H66ZM60.0924 49.0504V48.0504C57.3821 48.0504 55.1849 45.8532 55.1849 43.1429H54.1849H53.1849C53.1849 46.9578 56.2775 50.0504 60.0924 50.0504V49.0504ZM54.1849 43.1429H55.1849C55.1849 40.4325 57.3821 38.2353 60.0924 38.2353V37.2353V36.2353C56.2775 36.2353 53.1849 39.3279 53.1849 43.1429H54.1849ZM60.0924 37.2353V38.2353C62.8028 38.2353 65 40.4325 65 43.1429H66H67C67 39.3279 63.9074 36.2353 60.0924 36.2353V37.2353ZM54.1849 43.8424V42.8424H47.9994V43.8424V44.8424H54.1849V43.8424ZM47.9994 43.8424V42.8424C46.6712 42.8424 45.3593 42.5513 44.1566 41.9897L43.7335 42.8958L43.3104 43.8018C44.7781 44.4872 46.3789 44.8424 47.9994 44.8424V43.8424ZM43.7335 42.8958L44.1566 41.9897C42.954 41.4281 41.8902 40.6099 41.0404 39.5931L40.2731 40.2345L39.5058 40.8758C40.5438 42.1176 41.8427 43.1164 43.3104 43.8018L43.7335 42.8958ZM40.2731 40.2345L41.0404 39.5931L35.6748 33.1738L34.9076 33.8151L34.1403 34.4564L39.5058 40.8758L40.2731 40.2345ZM34.9076 33.8151H33.9076V47.1849H34.9076H35.9076V33.8151H34.9076Z" fill="white"/>
</g>
<defs>
<clipPath id="clip0_7829_9390">
<path d="M0 40C0 17.9086 17.9086 0 40 0C62.0914 0 80 17.9086 80 40C80 62.0914 62.0914 80 40 80C17.9086 80 0 62.0914 0 40Z" fill="white"/>
</clipPath>
</defs>
</svg>
