<svg width="50" height="50" viewBox="0 0 50 50" fill="none" xmlns="http://www.w3.org/2000/svg">
<g clip-path="url(#clip0_1392_4077)">
<path d="M45.1282 17.8289C44.7136 17.8289 44.3032 17.9109 43.9205 18.0701C43.5377 18.2293 43.1902 18.4626 42.898 18.7566C42.6057 19.0505 42.3745 19.3994 42.2176 19.7831C42.0607 20.1668 41.9812 20.5777 41.9836 20.9922L42.0094 25.3445L39.6164 28.0156C39.4772 27.6799 39.2724 27.3752 39.0141 27.1195C38.7554 26.8588 38.446 26.6541 38.1049 26.5179C37.7638 26.3818 37.3984 26.3172 37.0313 26.3281C36.6646 26.334 36.3028 26.4141 35.9679 26.5637C35.633 26.7133 35.3319 26.9292 35.0829 27.1985L29.6875 32.9914C29.2593 33.4486 29.0213 34.0517 29.0219 34.6781V44.5039H28.8727C28.6655 44.5039 28.4668 44.5862 28.3203 44.7327C28.1738 44.8793 28.0914 45.078 28.0914 45.2852V49.3305C28.0914 49.5377 28.1738 49.7364 28.3203 49.8829C28.4668 50.0294 28.6655 50.1117 28.8727 50.1117H38.4821C38.6893 50.1117 38.888 50.0294 39.0345 49.8829C39.181 49.7364 39.2633 49.5377 39.2633 49.3305V45.2852C39.2633 45.078 39.181 44.8793 39.0345 44.7327C38.888 44.5862 38.6893 44.5039 38.4821 44.5039H30.5852V34.6781C30.5852 34.4475 30.6729 34.2255 30.8305 34.057L36.2274 28.2633C36.3346 28.148 36.464 28.0556 36.6077 27.9914C36.7515 27.9272 36.9067 27.8927 37.0641 27.8899C37.3799 27.8941 37.683 28.0152 37.9149 28.2297C38.1306 28.4421 38.2557 28.7298 38.264 29.0325C38.2723 29.3351 38.1631 29.6292 37.9594 29.8531L34.2188 33.9938L35.3782 35.0414L38.5438 31.5399L38.5532 31.5485L43.375 26.1656C43.5041 26.0211 43.5748 25.8337 43.5735 25.6399L43.5461 20.986C43.5449 20.7774 43.5849 20.5707 43.6639 20.3777C43.7428 20.1846 43.8591 20.0091 44.0062 19.8612C44.1532 19.7133 44.328 19.5959 44.5206 19.5159C44.7131 19.4358 44.9196 19.3945 45.1282 19.3945C45.5408 19.397 45.9363 19.5598 46.2312 19.8484C46.5261 20.137 46.6973 20.5289 46.7086 20.9414L46.8922 29.2227L36.9313 41.2149C36.8152 41.355 36.7516 41.5313 36.7516 41.7133V42.8016H38.3141V41.9961L48.2813 29.993C48.4014 29.8481 48.4652 29.6647 48.461 29.4766L48.2711 20.9031C48.2482 20.0832 47.9076 19.3041 47.3212 18.7306C46.7348 18.157 45.9485 17.8337 45.1282 17.8289ZM37.5329 46.0664H37.7008V48.5492H29.6539V46.0664H37.5329ZM12.3774 44.5039H12.2102C12.003 44.5039 11.8043 44.5862 11.6578 44.7327C11.5113 44.8793 11.4289 45.078 11.4289 45.2852V49.3305C11.4289 49.5377 11.5113 49.7364 11.6578 49.8829C11.8043 50.0294 12.003 50.1117 12.2102 50.1117H21.8196C22.0268 50.1117 22.2255 50.0294 22.372 49.8829C22.5185 49.7364 22.6008 49.5377 22.6008 49.3305V45.2852C22.6008 45.078 22.5185 44.8793 22.372 44.7327C22.2255 44.5862 22.0268 44.5039 21.8196 44.5039H13.9399V41.7133C13.9397 41.5312 13.8758 41.3549 13.7594 41.2149L3.79848 29.2188L3.98442 20.9375C3.99576 20.525 4.16695 20.1331 4.46184 19.8445C4.75674 19.5559 5.15226 19.3931 5.56489 19.3906C5.77342 19.3905 5.97992 19.4317 6.17248 19.5118C6.36504 19.5918 6.53985 19.7092 6.68684 19.8571C6.83382 20.0051 6.95008 20.1806 7.02891 20.3737C7.10774 20.5668 7.14758 20.7735 7.14614 20.982L7.11879 25.636C7.11809 25.8298 7.18904 26.017 7.31801 26.1617L12.1399 31.5445L12.1485 31.5367L15.3125 35.0383L16.4719 33.9906L12.7313 29.85C12.5277 29.626 12.4187 29.3318 12.4271 29.0292C12.4356 28.7265 12.5608 28.4389 12.7766 28.2266C13.005 28.0071 13.3099 27.8852 13.6266 27.8867C13.7841 27.8895 13.9395 27.924 14.0834 27.9881C14.2273 28.0523 14.3568 28.1448 14.4641 28.2602L19.8618 34.0547C20.0187 34.2231 20.1058 34.4448 20.1055 34.675V42.6336H21.668V34.6781C21.6689 34.0522 21.4315 33.4494 21.0039 32.9922L15.6071 27.1977C15.3572 26.9283 15.0553 26.7123 14.7196 26.5629C14.3839 26.4134 14.0214 26.3336 13.6539 26.3281C13.2874 26.3179 12.9227 26.3829 12.5822 26.519C12.2417 26.6551 11.9327 26.8595 11.6743 27.1195C11.4158 27.3755 11.2111 27.6804 11.0719 28.0164L8.67817 25.3445L8.70395 20.9922C8.70652 20.5777 8.62711 20.1668 8.47027 19.7831C8.31344 19.3995 8.08228 19.0506 7.7901 18.7566C7.49792 18.4626 7.15048 18.2293 6.76779 18.0701C6.38509 17.9109 5.97469 17.8289 5.5602 17.8289C4.74072 17.8349 3.95556 18.1587 3.37014 18.7322C2.78472 19.3056 2.44477 20.084 2.42192 20.9031L2.22973 29.4766C2.22652 29.6647 2.29051 29.8478 2.4102 29.993L12.3774 41.9961V44.5039ZM20.8875 46.0664H21.0375V48.5492H12.9907V46.0664H20.8875Z" fill="#283A8F"/>
<path d="M11.7625 18.5195L24.7828 31.5398C24.9293 31.6863 25.128 31.7686 25.3351 31.7686C25.5423 31.7686 25.741 31.6863 25.8875 31.5398L38.9062 18.5195C42.0695 15.3562 43.325 11.4578 42.3516 7.82265C41.9074 6.17532 41.0387 4.6734 39.8322 3.46697C38.6258 2.26053 37.1239 1.39182 35.4766 0.947652C32.0562 0.0328079 28.3937 1.09375 25.3351 3.86796C20.2781 -0.712505 14.3367 0.197651 10.9508 3.58281C7.44062 7.09218 6.59218 13.35 11.7625 18.5195ZM12.0555 4.6875C13.582 3.15079 15.6558 2.28234 17.8219 2.27265C20.0437 2.27265 22.4812 3.19765 24.7828 5.49921C24.9293 5.64568 25.128 5.72795 25.3351 5.72795C25.5423 5.72795 25.741 5.64568 25.8875 5.49921C28.6875 2.7 31.9531 1.62031 35.0781 2.45859C36.4603 2.83136 37.7205 3.56031 38.7328 4.57261C39.7451 5.58491 40.4741 6.84512 40.8469 8.22734C41.6844 11.3523 40.6047 14.6164 37.8062 17.4148L25.3351 29.8828L12.8672 17.4148C8.2164 12.7641 9.18593 7.55703 12.0555 4.6875Z" fill="#283A8F"/>
</g>
<defs>
<clipPath id="clip0_1392_4077">
<rect width="50" height="50" fill="white"/>
</clipPath>
</defs>
</svg>
