<svg width="100" height="100" viewBox="0 0 100 100" fill="none" xmlns="http://www.w3.org/2000/svg">
<circle cx="50" cy="50" r="50" fill="#FF5D00" fill-opacity="0.1"/>
<g clip-path="url(#clip0_6629_4573)">
<mask id="mask0_6629_4573" style="mask-type:luminance" maskUnits="userSpaceOnUse" x="22" y="22" width="56" height="56">
<path d="M78 22H22V78H78V22Z" fill="white"/>
</mask>
<g mask="url(#mask0_6629_4573)">
<path fill-rule="evenodd" clip-rule="evenodd" d="M39.2421 26.6916C42.3653 23.783 46.5593 22 51.1667 22C56.9853 22 62.1387 24.8412 65.3179 29.2028C72.5132 30.3894 78 36.6361 78 44.1667C78 52.5431 71.2095 59.3333 62.8333 59.3333H57V66.3333C57 67.622 58.0446 68.6667 59.3333 68.6667H64.3983C65.3592 65.9479 67.9522 64 71 64C74.8661 64 78 67.1339 78 71C78 74.8661 74.8661 78 71 78C67.9522 78 65.3592 76.0521 64.3983 73.3333H59.3333C55.4672 73.3333 52.3333 70.1994 52.3333 66.3333V59.3333H47.6667V66.3333C47.6667 70.1994 44.5326 73.3333 40.6667 73.3333H35.6017C34.6407 76.0521 32.0478 78 29 78C25.134 78 22 74.8661 22 71C22 67.1339 25.134 64 29 64C32.0478 64 34.6407 65.9479 35.6017 68.6667H40.6667C41.9553 68.6667 43 67.622 43 66.3333V59.3333H38.3333C29.3127 59.3333 22 52.0207 22 43C22 33.9794 29.3127 26.6667 38.3333 26.6667C38.6381 26.6667 38.9411 26.675 39.2421 26.6916ZM35.9757 43.8936C35.0645 42.9824 35.0645 41.505 35.9757 40.5938C37.8174 38.7521 40.0038 37.2912 42.4101 36.2945C44.8164 35.2978 47.3953 34.7848 50 34.7848C52.6045 34.7848 55.1835 35.2978 57.5899 36.2945C59.9962 37.2912 62.1826 38.7521 64.0243 40.5938C64.9354 41.505 64.9354 42.9824 64.0243 43.8936C63.1131 44.8049 61.6356 44.8049 60.7245 43.8936C59.3161 42.4853 57.644 41.3681 55.8039 40.6059C53.9639 39.8437 51.9917 39.4514 50 39.4514C48.0083 39.4514 46.0361 39.8437 44.1959 40.6059C42.3558 41.3681 40.6839 42.4853 39.2755 43.8936C38.3643 44.8049 36.8869 44.8049 35.9757 43.8936ZM41.8333 49.7998C40.9221 48.8886 40.9221 47.4112 41.8333 46.5C42.9058 45.4276 44.179 44.5768 45.5802 43.9964C46.9814 43.416 48.4833 43.1172 50 43.1172C51.5167 43.1172 53.0184 43.416 54.4198 43.9964C55.821 44.5768 57.094 45.4276 58.1667 46.5C59.0778 47.4112 59.0778 48.8886 58.1667 49.7998C57.2553 50.711 55.778 50.711 54.8669 49.7998C54.2275 49.1607 53.469 48.6537 52.6339 48.3079C51.7988 47.9618 50.9039 47.7838 50 47.7838C49.0961 47.7838 48.2012 47.9618 47.3661 48.3079C46.531 48.6537 45.7722 49.1607 45.1332 49.7998C44.2219 50.711 42.7446 50.711 41.8333 49.7998Z" fill="#FF5D00"/>
</g>
</g>
<defs>
<clipPath id="clip0_6629_4573">
<rect width="56" height="56" fill="white" transform="translate(22 22)"/>
</clipPath>
</defs>
</svg>
