<svg xmlns="http://www.w3.org/2000/svg" width="70" height="63" viewBox="0 0 70 63" fill="none"><path fill-rule="evenodd" clip-rule="evenodd" d="M26.1263 0C25.8592 0.000540953 25.5949 0.0532757 25.3485 0.155187C25.102 0.257099 24.8782 0.406187 24.69 0.593919C24.5017 0.781652 24.3526 1.00434 24.2512 1.24925C24.1499 1.49416 24.0982 1.75648 24.0992 2.0212V14.9505C24.1014 15.4824 24.3158 15.9919 24.6956 16.3676C25.0754 16.7434 25.5897 16.9549 26.1263 16.956H43.6673C44.2032 16.9539 44.7166 16.7419 45.0955 16.3663C45.4744 15.9906 45.6883 15.4818 45.6904 14.9505V2.0212C45.6925 1.48725 45.4805 0.974349 45.1011 0.595311C44.7217 0.216273 44.206 0.0021374 43.6673 0H26.1263ZM17.2328 2.92561C16.9646 2.91419 16.6968 2.95558 16.4449 3.04737C16.193 3.13916 15.9619 3.27955 15.7651 3.4604C15.5692 3.64147 15.4114 3.85914 15.3008 4.10088C15.1902 4.34263 15.1288 4.60368 15.1204 4.86901C15.1119 5.13435 15.1564 5.39872 15.2514 5.64692C15.3464 5.89513 15.49 6.12225 15.6739 6.31524L15.8166 6.46461H6.93504C6.66699 6.46357 6.40138 6.51514 6.15353 6.61634C5.90568 6.71755 5.6805 6.86639 5.49096 7.05429C5.30141 7.24218 5.15127 7.46541 5.04917 7.7111C4.94708 7.95679 4.89506 8.22009 4.89611 8.48581C4.89715 8.75021 4.95071 9.01181 5.05374 9.25569C5.15676 9.49956 5.30724 9.72094 5.49657 9.90716C5.68591 10.0934 5.91039 10.2408 6.1572 10.3411C6.40401 10.4413 6.66832 10.4923 6.93504 10.4913H15.8286L15.6738 10.6525C15.3073 11.0416 15.1111 11.5587 15.1282 12.0907C15.1453 12.6228 15.3743 13.1265 15.765 13.4916C15.9594 13.6742 16.1883 13.8168 16.4386 13.9113C16.6888 14.0057 16.9554 14.0502 17.2231 14.0422C17.4908 14.0341 17.7542 13.9737 17.9982 13.8644C18.2422 13.755 18.462 13.5989 18.6449 13.405L21.9849 9.85026C22.3362 9.47737 22.5316 8.98616 22.5316 8.47593C22.5316 7.96569 22.3362 7.47449 21.9849 7.10159L18.6449 3.55079C18.2757 3.16589 17.7683 2.94125 17.2328 2.92561ZM28.1493 4.02666H41.6284V12.9293H28.1493V4.02666ZM32.4533 6.46468C32.1862 6.4652 31.9219 6.51792 31.6754 6.61982C31.429 6.72172 31.2052 6.8708 31.0169 7.05854C30.8286 7.24627 30.6796 7.46897 30.5782 7.71389C30.4769 7.95881 30.4252 8.22113 30.4263 8.48586C30.4284 9.01778 30.6427 9.52727 31.0225 9.90303C31.4023 10.2788 31.9167 10.4903 32.4533 10.4913H37.3403C37.8762 10.4893 38.3896 10.2773 38.7686 9.90166C39.1475 9.526 39.3613 9.0171 39.3634 8.48586C39.3644 8.22146 39.3129 7.95945 39.2118 7.71479C39.1107 7.47013 38.962 7.2476 38.7741 7.05992C38.5863 6.87223 38.363 6.72307 38.117 6.62093C37.8709 6.5188 37.607 6.46571 37.3403 6.46468H32.4533ZM49.8277 6.46468C49.5597 6.46364 49.2941 6.51521 49.0462 6.61642C48.7984 6.71762 48.5732 6.86646 48.3837 7.05435C48.1941 7.24224 48.044 7.46547 47.9419 7.71116C47.8398 7.95685 47.7878 8.22014 47.7888 8.48586C47.7899 8.75025 47.8434 9.01185 47.9465 9.25573C48.0495 9.4996 48.2 9.72097 48.3893 9.9072C48.5786 10.0934 48.8031 10.2409 49.0499 10.3411C49.2967 10.4413 49.561 10.4924 49.8277 10.4913H56.004C61.2808 10.4913 65.4648 14.6436 65.4648 19.8698C65.4648 25.0961 61.2808 29.2326 56.004 29.2326H54.0484L54.1912 29.0832C54.3751 28.8902 54.5186 28.6631 54.6136 28.4149C54.7086 28.1667 54.7532 27.9023 54.7447 27.637C54.7362 27.3716 54.6749 27.1106 54.5642 26.8688C54.4536 26.6271 54.2958 26.4094 54.1 26.2284C53.7063 25.867 53.1843 25.6747 52.6481 25.6936C52.3798 25.7018 52.1158 25.7627 51.8714 25.8727C51.6269 25.9827 51.4069 26.1397 51.2241 26.3345L47.8801 29.8696C47.5276 30.2427 47.3315 30.7348 47.3315 31.2459C47.3315 31.7571 47.5276 32.2491 47.8801 32.6222L51.2241 36.1731C51.4067 36.3666 51.626 36.5225 51.8695 36.6319C52.113 36.7412 52.3759 36.8018 52.6431 36.8102C52.9103 36.8186 53.1765 36.7746 53.4265 36.6808C53.6765 36.587 53.9054 36.4452 54.1 36.2635C54.4907 35.8983 54.7197 35.3946 54.7368 34.8626C54.7538 34.3305 54.5577 33.8134 54.1912 33.4244L54.0364 33.2592H56.0039C63.4596 33.2592 69.5267 27.2584 69.5267 19.8698C69.5267 12.4813 63.4596 6.46469 56.0039 6.46469L49.8277 6.46468ZM26.1263 22.7679C25.8592 22.7684 25.5949 22.8212 25.3485 22.9231C25.102 23.025 24.8782 23.1741 24.69 23.3618C24.5017 23.5495 24.3526 23.7722 24.2512 24.0171C24.1499 24.2621 24.0982 24.5244 24.0992 24.7891V37.7184C24.1014 38.2503 24.3158 38.7598 24.6956 39.1355C25.0753 39.5113 25.5897 39.7228 26.1263 39.7239H43.6673C44.2032 39.7218 44.7166 39.5098 45.0955 39.1342C45.4744 38.7585 45.6883 38.2496 45.6904 37.7184V24.7891C45.6925 24.2551 45.4805 23.7422 45.1011 23.3632C44.7217 22.9842 44.206 22.77 43.6673 22.7679H26.1263ZM28.1493 26.7945H41.6284V35.6972H28.1493V26.7945ZM13.9959 29.2326C6.54022 29.2326 0.473145 35.2492 0.473145 42.6377C0.473145 50.0263 6.54022 56.0271 13.9959 56.0271H15.8285L15.6738 56.1922C15.3073 56.5813 15.1111 57.0984 15.1282 57.6304C15.1453 58.1625 15.3742 58.6662 15.765 59.0313C15.9596 59.2136 16.1888 59.3559 16.4391 59.4501C16.6895 59.5443 16.9562 59.5884 17.2239 59.58C17.4915 59.5716 17.7549 59.5108 17.9987 59.4012C18.2426 59.2915 18.4622 59.1351 18.6448 58.9409L21.9849 55.3901C22.3362 55.0172 22.5316 54.526 22.5316 54.0158C22.5316 53.5055 22.3362 53.0143 21.9849 52.6414L18.6448 49.1023C18.2777 48.7131 17.7699 48.484 17.2327 48.4653C16.9645 48.4539 16.6967 48.4952 16.4448 48.587C16.1929 48.6788 15.9618 48.8192 15.765 49.0001C15.5697 49.1811 15.4124 49.3985 15.3021 49.6399C15.1919 49.8813 15.1307 50.1419 15.1222 50.4068C15.1138 50.6716 15.1581 50.9355 15.2528 51.1834C15.3474 51.4312 15.4905 51.6581 15.6738 51.851L15.8165 52.0004H13.9958C8.719 52.0004 4.53504 47.8639 4.53504 42.6376C4.53504 37.4114 8.719 33.2591 13.9958 33.2591H20.1721C20.708 33.257 21.2213 33.0451 21.6003 32.6695C21.9792 32.2938 22.193 31.7849 22.1951 31.2537C22.1962 30.9893 22.1447 30.7273 22.0436 30.4826C21.9425 30.238 21.7937 30.0154 21.6059 29.8278C21.418 29.6401 21.1947 29.4909 20.9487 29.3888C20.7027 29.2866 20.4388 29.2335 20.1721 29.2325L13.9959 29.2326ZM32.4533 29.2326C32.1862 29.2331 31.9219 29.2858 31.6754 29.3877C31.429 29.4896 31.2052 29.6387 31.0169 29.8264C30.8286 30.0142 30.6795 30.2369 30.5782 30.4818C30.4768 30.7267 30.4252 30.989 30.4263 31.2538C30.4284 31.7857 30.6427 32.2952 31.0225 32.6709C31.4023 33.0467 31.9167 33.2582 32.4533 33.2592H37.3403C37.8762 33.2572 38.3896 33.0452 38.7685 32.6696C39.1475 32.2939 39.3613 31.785 39.3634 31.2538C39.3644 30.9894 39.3129 30.7274 39.2118 30.4827C39.1107 30.238 38.962 30.0155 38.7742 29.8278C38.5863 29.6401 38.363 29.491 38.117 29.3888C37.8709 29.2867 37.607 29.2336 37.3403 29.2326H32.4533ZM26.1263 45.5515C25.5897 45.5526 25.0754 45.7641 24.6956 46.1399C24.3158 46.5156 24.1014 47.0251 24.0992 47.557V60.4863C24.1014 61.0182 24.3158 61.5277 24.6956 61.9034C25.0754 62.2792 25.5897 62.4907 26.1263 62.4918H43.6673C44.2032 62.4897 44.7166 62.2777 45.0955 61.9021C45.4744 61.5264 45.6883 61.0176 45.6904 60.4863V47.557C45.6883 47.0258 45.4744 46.5169 45.0955 46.1413C44.7166 45.7656 44.2032 45.5537 43.6673 45.5515H26.1263ZM59.6534 48.4575C59.3861 48.4482 59.1194 48.4913 58.8689 48.5844C58.6184 48.6775 58.3889 48.8188 58.1937 49.0001C57.9984 49.1811 57.8411 49.3986 57.7308 49.6399C57.6206 49.8813 57.5594 50.1419 57.5509 50.4068C57.5425 50.6717 57.5868 50.9356 57.6815 51.1834C57.7761 51.4313 57.9192 51.6581 58.1025 51.851L58.2452 52.0004H49.3637C49.0956 51.9994 48.83 52.0509 48.5822 52.1521C48.3343 52.2533 48.1091 52.4022 47.9196 52.5901C47.73 52.778 47.5799 53.0012 47.4778 53.2469C47.3757 53.4926 47.3237 53.7559 47.3247 54.0216C47.3258 54.286 47.3793 54.5476 47.4824 54.7915C47.5854 55.0353 47.7359 55.2567 47.9252 55.4429C48.1145 55.6292 48.339 55.7766 48.5858 55.8768C48.8326 55.977 49.0969 56.0281 49.3637 56.0271H58.2572L58.1024 56.1922C57.7359 56.5812 57.5397 57.0983 57.5568 57.6304C57.5739 58.1624 57.8029 58.6661 58.1936 59.0313C58.3883 59.2136 58.6174 59.3559 58.8678 59.4501C59.1181 59.5442 59.3848 59.5884 59.6525 59.58C59.9202 59.5716 60.1835 59.5108 60.4274 59.4011C60.6712 59.2914 60.8908 59.135 61.0735 58.9409L64.4175 55.39C64.7688 55.0171 64.9642 54.5259 64.9642 54.0157C64.9642 53.5054 64.7688 53.0142 64.4175 52.6413L61.0735 49.1023C60.8914 48.9072 60.6722 48.7498 60.4285 48.6391C60.1847 48.5284 59.9214 48.4667 59.6534 48.4575ZM28.1493 49.5625H41.6284V58.4651H28.1493V49.5625ZM32.4533 52.0005C32.1862 52.001 31.9219 52.0537 31.6754 52.1556C31.429 52.2575 31.2052 52.4066 31.0169 52.5943C30.8286 52.7821 30.6795 53.0048 30.5782 53.2497C30.4768 53.4946 30.4252 53.7569 30.4263 54.0217C30.4284 54.5536 30.6427 55.0631 31.0225 55.4388C31.4023 55.8146 31.9167 56.0261 32.4533 56.0271H37.3403C37.8762 56.0251 38.3896 55.8131 38.7685 55.4375C39.1475 55.0618 39.3613 54.5529 39.3634 54.0217C39.3644 53.7573 39.3129 53.4953 39.2118 53.2506C39.1107 53.0059 38.962 52.7834 38.7742 52.5957C38.5863 52.408 38.363 52.2588 38.117 52.1567C37.8709 52.0546 37.607 52.0015 37.3403 52.0005H32.4533Z" fill="#FE5F03"></path></svg>