<svg xmlns="http://www.w3.org/2000/svg" width="70" height="60" viewBox="0 0 70 60" fill="none"><path d="M59.1741 0H10.8259C1.4163 0 0 1.4163 0 10.8259V34.0687C0 43.4784 1.4163 44.8947 10.8259 44.8947H25.1765L21.0569 56.2897H15.6957C15.2669 56.2897 14.8556 56.4601 14.5524 56.7633C14.2492 57.0665 14.0789 57.4777 14.0789 57.9065C14.0789 58.3353 14.2492 58.7465 14.5524 59.0497C14.8556 59.3529 15.2669 59.5233 15.6957 59.5233H54.3043C54.7331 59.5233 55.1444 59.3529 55.4476 59.0497C55.7508 58.7465 55.9211 58.3353 55.9211 57.9065C55.9211 57.4777 55.7508 57.0665 55.4476 56.7633C55.1444 56.4601 54.7331 56.2897 54.3043 56.2897H48.9496L47.9601 53.5606C47.8058 53.169 47.5049 52.8531 47.1213 52.6798C46.7377 52.5066 46.3017 52.4898 45.9059 52.6329C45.5102 52.7761 45.1858 53.0679 45.0018 53.4465C44.8178 53.825 44.7886 54.2603 44.9205 54.66L45.5091 56.2897H24.4909L28.6105 44.8947H59.1741C68.5837 44.8947 70 43.4784 70 34.0687V10.8259C70 1.4163 68.5837 0 59.1741 0ZM61.651 23.6243C61.1595 24.0835 49.5769 34.8513 35 34.8513C20.4231 34.8513 8.84054 24.0835 8.34904 23.6243C8.18961 23.4726 8.06268 23.29 7.97596 23.0876C7.88923 22.8853 7.84451 22.6675 7.84451 22.4473C7.84451 22.2272 7.88923 22.0094 7.97596 21.807C8.06268 21.6047 8.18961 21.4221 8.34904 21.2703C8.84054 20.8112 20.4231 10.0434 35 10.0434C49.5769 10.0434 61.1595 20.8112 61.651 21.2703C61.8104 21.4221 61.9373 21.6047 62.024 21.807C62.1108 22.0094 62.1555 22.2272 62.1555 22.4473C62.1555 22.6675 62.1108 22.8853 62.024 23.0876C61.9373 23.29 61.8104 23.4726 61.651 23.6243Z" fill="#FF5D00"></path><path d="M44.9723 29.8135C46.5514 27.6823 47.4039 25.1 47.4039 22.4475C47.4039 19.7949 46.5514 17.2127 44.9723 15.0814C49.7042 16.8018 54.1201 19.2905 58.0423 22.4475C54.1201 25.6044 49.7042 28.0932 44.9723 29.8135ZM35 13.2771C33.1863 13.2771 31.4133 13.8149 29.9052 14.8226C28.3972 15.8302 27.2218 17.2625 26.5277 18.9381C25.8336 20.6138 25.652 22.4576 26.0059 24.2365C26.3597 26.0154 27.2331 27.6494 28.5156 28.9319C29.7981 30.2144 31.4321 31.0878 33.211 31.4416C34.9898 31.7955 36.8337 31.6139 38.5094 30.9198C40.185 30.2257 41.6172 29.0503 42.6249 27.5422C43.6325 26.0342 44.1704 24.2612 44.1704 22.4475C44.1678 20.0161 43.2008 17.6851 41.4816 15.9659C39.7624 14.2467 37.4314 13.2797 35 13.2771ZM35 25.9591C34.3055 25.9591 33.6265 25.7531 33.0491 25.3673C32.4716 24.9814 32.0215 24.433 31.7557 23.7913C31.4899 23.1496 31.4204 22.4436 31.5558 21.7624C31.6913 21.0812 32.0258 20.4555 32.5169 19.9644C33.008 19.4732 33.6337 19.1388 34.3149 19.0033C34.9961 18.8678 35.7022 18.9373 36.3439 19.2031C36.9855 19.4689 37.534 19.919 37.9198 20.4965C38.3057 21.074 38.5117 21.7529 38.5117 22.4475C38.5117 22.9086 38.421 23.3653 38.2445 23.7914C38.0681 24.2175 37.8094 24.6047 37.4833 24.9308C37.1572 25.2569 36.77 25.5155 36.344 25.692C35.9179 25.8684 35.4612 25.9592 35 25.9591ZM22.5961 22.4475C22.5932 25.1004 23.446 27.6836 25.0277 29.8135C20.2958 28.0932 15.8799 25.6044 11.9577 22.4475C15.8799 19.2905 20.2958 16.8018 25.0277 15.0814C23.446 17.2113 22.5932 19.7945 22.5961 22.4475Z" fill="#FF5D00"></path></svg>