<svg xmlns="http://www.w3.org/2000/svg" width="64" height="67" viewBox="0 0 64 67" fill="none"><path d="M54.018 23.2914C59.5309 23.2914 64 18.8223 64 13.3094C64 7.79649 59.5309 3.32739 54.018 3.32739C48.5051 3.32739 44.036 7.79649 44.036 13.3094C44.036 18.8223 48.5051 23.2914 54.018 23.2914Z" fill="#FF5D00"></path><path d="M1.62383 49.569L4.08672 53.3528C6.59853 57.2145 11.3945 58.8635 15.755 57.3609L18.1287 56.5421L18.7396 58.971C19.8626 63.4323 23.8591 66.5467 28.4588 66.5467H32.9949C37.5943 66.5467 41.5911 63.4323 42.7137 58.9707L43.2774 56.7367L45.4155 57.5053C49.7584 59.0698 54.5737 57.481 57.1391 53.6449L59.6362 49.91C62.1949 46.0806 61.8246 41.023 58.7329 37.6095L54.9277 33.4147L54.9294 33.4114C56.1788 32.0645 56.0993 29.959 54.7507 28.7096C53.4055 27.4618 51.2966 27.5397 50.0489 28.8882C47.6851 31.4373 47.6638 35.3023 49.9969 37.879L53.8004 42.0771C54.8402 43.2241 54.9637 44.9237 54.1025 46.212L51.607 49.9456C50.7443 51.2323 49.1195 51.767 47.6655 51.2436L45.529 50.475C43.7629 49.8398 41.8054 49.9829 40.1497 50.8616C38.494 51.7437 37.2805 53.2922 36.8224 55.1116L36.2604 57.3456C35.8834 58.8456 34.5398 59.892 32.9946 59.892H28.4584C26.9132 59.892 25.5697 58.8456 25.193 57.3463L24.5821 54.9173C24.1289 53.1139 22.9297 51.572 21.2937 50.6883C19.6576 49.8012 17.7145 49.6435 15.9583 50.2514L13.5863 51.0702C12.1256 51.5787 10.5075 51.0217 9.66433 49.7233L7.20311 45.9395C6.35996 44.6445 6.50437 42.9486 7.55414 41.8146L11.4079 37.6571C13.7686 35.108 13.7896 31.243 11.4564 28.6676L7.65296 24.4676C6.61483 23.3206 6.48972 21.621 7.35084 20.3343L9.84634 16.6007C10.7058 15.3124 12.3289 14.7747 13.7879 15.3027L15.9244 16.0714C17.6902 16.7032 19.6463 16.5635 21.3037 15.6847C22.9594 14.8026 24.1728 13.2541 24.631 11.4347L25.193 9.20074C25.57 7.70111 26.9136 6.65467 28.4588 6.65467H32.9949C33.8624 6.65467 34.6862 6.98274 35.3134 7.58066C36.6457 8.84638 38.7529 8.79414 40.0169 7.46055C41.2843 6.12828 41.2304 4.02275 39.8985 2.75703C38.0279 0.979567 35.5763 0 32.9946 0H28.4584C23.8591 0 19.8626 3.11438 18.74 7.57601L18.176 9.80965L16.0378 9.04103C11.7067 7.48317 6.87969 9.07064 4.31431 12.9014L1.81715 16.6367C-0.741568 20.4644 -0.371237 25.522 2.72052 28.9355L6.52566 33.1353L2.67361 37.2911C-0.452423 40.6657 -0.88298 45.7136 1.62383 49.569Z" fill="#FF5D00"></path><path d="M30.7267 43.2553C36.2396 43.2553 40.7087 38.7862 40.7087 33.2733C40.7087 27.7604 36.2396 23.2913 30.7267 23.2913C25.2138 23.2913 20.7447 27.7604 20.7447 33.2733C20.7447 38.7862 25.2138 43.2553 30.7267 43.2553Z" fill="#FF5D00"></path></svg>