<svg width="100" height="100" viewBox="0 0 100 100" fill="none" xmlns="http://www.w3.org/2000/svg">
<circle cx="50" cy="50" r="50" fill="#FF5D00" fill-opacity="0.1"/>
<path d="M69.9219 29.5312H68.0329C67.203 24.1408 62.5331 20 56.9141 20H43.0859C37.4669 20 32.797 24.1408 31.9671 29.5312H30.0781C27.1704 29.5312 24.8047 31.8969 24.8047 34.8046V53.5546C24.8047 56.4624 27.1704 58.8281 30.0781 58.8281H31.8928L36.5234 66.443V80H63.4766V66.443L68.1072 58.8281H69.9219C72.8296 58.8281 75.1953 56.4624 75.1953 53.5546V34.8046C75.1953 31.897 72.8296 29.5312 69.9219 29.5312ZM43.0859 23.5156H56.9141C60.5744 23.5156 63.6489 26.0714 64.447 29.4922H35.553C36.3511 26.0714 39.4256 23.5156 43.0859 23.5156ZM59.9272 65.5134C58.9769 67.0761 57.2504 68.0469 55.4214 68.0469H44.5786C42.7496 68.0469 41.0231 67.0761 40.0728 65.5134L36.0075 58.8281H39.6723C41.8814 58.8281 44.0112 58.1667 45.832 56.9152C48.325 55.2016 51.6752 55.2016 54.1682 56.9152C55.9888 58.1666 58.1188 58.828 60.3279 58.828H63.9927L59.9272 65.5134ZM68.1641 44.7656H31.8359V41.25H68.1641V44.7656Z" fill="#FF5D00"/>
</svg>
