<svg width="100" height="100" viewBox="0 0 100 100" fill="none" xmlns="http://www.w3.org/2000/svg">
<rect width="100" height="100" fill="#F5F5F5"/>
<g id="App Development Services01 Georgia" clip-path="url(#clip0_0_1)">
<rect width="1900" height="11808" transform="translate(-413 -3579)" fill="white"/>
<g id="Frame 61">
<rect width="1900" height="3127" transform="translate(-413 -2279)" fill="#EFF3F5"/>
<g id="card">
<rect x="-182" y="-40" width="464" height="581" rx="8" fill="#FCFDFD"/>
<g id="ic_vr">
<path id="Ellipse 1" d="M100 50C100 77.6142 77.6142 100 50 100C22.3858 100 0 77.6142 0 50C0 22.3858 22.3858 0 50 0C77.6142 0 100 22.3858 100 50Z" fill="#FF5D00" fill-opacity="0.1"/>
<g id="Group 7">
<path id="Vector" fill-rule="evenodd" clip-rule="evenodd" d="M29.913 31.2619C35.2513 29.6234 42.1084 29 50.4804 29C58.8524 29 65.7094 29.6234 71.0478 31.2619C75.9465 32.7655 79.7161 35.1744 82.1409 38.8524C83.5208 39.0264 84.9613 39.5653 85.8978 41.1262C86.4223 42.0005 86.6605 43.0098 86.7892 44.0016C86.9202 45.0119 86.9607 46.2095 86.9607 47.5831C86.9607 49.9671 86.5762 51.6987 85.9553 52.9247C85.7109 53.4072 85.4165 53.8368 85.0726 54.1934C84.3416 60.8051 81.3601 64.8402 77.9663 67.19C74.495 69.5935 70.8289 70.0762 69.3245 70.1424C63.7113 70.3896 59.61 68.0088 56.5411 65.8327C55.8297 65.3282 55.2332 64.8817 54.69 64.4751C53.9636 63.9313 53.3325 63.4588 52.6489 63.0143C51.5172 62.2784 50.8793 62.0789 50.4804 62.0789C50.0814 62.0789 49.4436 62.2784 48.3118 63.0143C47.6283 63.4588 46.9971 63.9313 46.2707 64.4751C45.7275 64.8817 45.1311 65.3282 44.4197 65.8327C41.3508 68.0088 37.2495 70.3896 31.6363 70.1424C30.1319 70.0762 26.4658 69.5935 22.9945 67.19C19.6007 64.8402 16.6192 60.8051 15.8882 54.1934C15.5443 53.8368 15.2499 53.4072 15.0055 52.9247C14.3845 51.6987 14 49.9671 14 47.5831C14 46.2095 14.0405 45.0119 14.1716 44.0016C14.3003 43.0098 14.5384 42.0005 15.063 41.1262C15.9995 39.5653 17.44 39.0264 18.8199 38.8524C21.2447 35.1744 25.0142 32.7655 29.913 31.2619ZM31.3089 35.81C26.7127 37.2208 23.9017 39.3529 22.2981 42.2932C21.1168 44.4594 20.4745 47.2704 20.4745 50.9672C20.4745 51.5722 20.494 52.1497 20.531 52.7009C20.9288 58.6207 23.3462 61.647 25.7026 63.2785C28.1779 64.9923 30.8589 65.3461 31.8456 65.3895C35.875 65.5669 38.8995 63.9148 41.6678 61.9518C42.147 61.6121 42.6707 61.2223 43.2036 60.8257C44.0675 60.1828 44.9558 59.5218 45.7183 59.0259C47.0143 58.1832 48.6355 57.3214 50.4804 57.3214C52.3253 57.3214 53.9465 58.1832 55.2425 59.0259C56.005 59.5218 56.8932 60.1828 57.7571 60.8257C58.2901 61.2223 58.8138 61.6121 59.293 61.9518C62.0612 63.9148 65.0858 65.5669 69.1152 65.3895C70.1019 65.3461 72.7829 64.9923 75.2581 63.2785C77.6146 61.647 80.0319 58.6207 80.4297 52.7009C80.4668 52.1497 80.4863 51.5722 80.4863 50.9672C80.4863 47.2704 79.844 44.4594 78.6626 42.2932C77.059 39.3529 74.2481 37.2208 69.6518 35.81C64.9965 34.3811 58.7039 33.7575 50.4804 33.7575C42.2569 33.7575 35.9642 34.3811 31.3089 35.81Z" fill="#FF5D00"/>
<path id="Vector_2" fill-rule="evenodd" clip-rule="evenodd" d="M40.2027 36.3951C40.2027 36.0827 39.9331 35.8382 39.6224 35.8714C36.568 36.1971 33.9713 36.6888 31.7847 37.36C27.4596 38.6875 25.0641 40.6078 23.7215 43.0696C22.7078 44.9283 22.0957 47.4499 22.0957 50.9673C22.0957 51.5375 22.1141 52.0787 22.1486 52.5923C22.5145 58.0378 24.6898 60.6055 26.6255 61.9457C28.761 63.4243 31.1061 63.7343 31.9169 63.77C35.4065 63.9236 38.0641 62.5198 40.73 60.6294C41.1032 60.3649 41.5766 60.0134 42.0766 59.6421L42.0847 59.6361C43.0215 58.9405 44.055 58.1737 44.8345 57.6669C46.1849 56.7887 48.1418 55.7003 50.4804 55.7003C52.819 55.7003 54.7758 56.7887 56.1263 57.6669C56.9057 58.1737 57.9392 58.9405 58.8761 59.6361L58.8839 59.6419C59.3839 60.0131 59.8577 60.3649 60.2307 60.6294C62.8966 62.5198 65.5543 63.9236 69.0439 63.77C69.8546 63.7343 72.1997 63.4243 74.3352 61.9457C76.271 60.6055 78.4462 58.0378 78.8121 52.5923C78.8466 52.0786 78.8651 51.5374 78.8651 50.9673C78.8651 47.4499 78.253 44.9283 77.2393 43.0696C75.8967 40.6078 73.5011 38.6875 69.1761 37.36C66.8055 36.6324 63.953 36.1156 60.5576 35.7927C60.2771 35.766 60.0352 35.9873 60.0352 36.2691C60.0352 36.497 60.1955 36.6932 60.4183 36.7415C64.4119 37.608 67.649 39.0469 69.1308 41.058C69.6523 41.7657 69.5658 43.0308 68.6886 42.9727C68.309 42.9475 67.8161 42.7812 67.1089 42.5427C64.8508 41.781 60.4069 40.2821 50.4804 40.2821C40.5539 40.2821 36.1099 41.781 33.8519 42.5427C33.1446 42.7812 32.6518 42.9475 32.2722 42.9727C31.395 43.0308 31.3085 41.7657 31.83 41.058C33.2177 39.1745 36.1452 37.793 39.7917 36.9134C40.0316 36.8555 40.2027 36.6419 40.2027 36.3951Z" fill="#FF5D00"/>
</g>
</g>
</g>
</g>
</g>
<defs>
<clipPath id="clip0_0_1">
<rect width="1900" height="11808" fill="white" transform="translate(-413 -3579)"/>
</clipPath>
</defs>
</svg>
