<svg width="100" height="100" viewBox="0 0 100 100" fill="none" xmlns="http://www.w3.org/2000/svg">
<rect width="100" height="100" fill="#F5F5F5"/>
<g id="App Development Services01 Georgia" clip-path="url(#clip0_0_1)">
<rect width="1900" height="11808" transform="translate(-413 -2974)" fill="white"/>
<g id="Frame 61">
<rect width="1900" height="3127" transform="translate(-413 -1674)" fill="#EFF3F5"/>
<g id="card">
<rect x="-182" y="-40" width="464" height="581" rx="8" fill="#FCFDFD"/>
<g id="ic_wearable">
<path id="Ellipse 1" d="M100 50C100 77.6142 77.6142 100 50 100C22.3858 100 0 77.6142 0 50C0 22.3858 22.3858 0 50 0C77.6142 0 100 22.3858 100 50Z" fill="#FF5D00" fill-opacity="0.1"/>
<g id="smart-watch-svgrepo-com 1">
<path id="Vector" fill-rule="evenodd" clip-rule="evenodd" d="M34.7916 26.9306L35.7744 23.9817C36.2047 22.6872 36.5963 21.5087 37.5263 20.2765C37.9334 19.7368 38.4719 19.2187 38.9338 18.8237C39.3953 18.4287 39.9903 17.9767 40.5866 17.6578C41.9416 16.9328 42.8944 16.7728 43.9819 16.5902L44.0425 16.58C45.5872 16.3204 47.4344 16.125 49.5 16.125C51.5656 16.125 53.4128 16.3204 54.9575 16.58L55.0181 16.5902C56.1055 16.7728 57.0584 16.9328 58.4135 17.6578C59.0096 17.9767 59.6047 18.4287 60.0664 18.8237C60.5281 19.2187 61.0665 19.7368 61.4738 20.2765C62.4038 21.5087 62.7954 22.6872 63.2256 23.9817L64.2084 26.9306C64.2391 26.9461 64.2697 26.9618 64.3003 26.9777C66.6975 28.2229 68.6521 30.1775 69.8973 32.5747C70.7306 34.1788 71.0665 35.8973 71.2235 37.7887C71.3751 39.6133 71.375 41.8576 71.375 44.5925V56.4075C71.375 59.1422 71.3751 61.3869 71.2235 63.2112C71.0665 65.1028 70.7306 66.8212 69.8973 68.4253C68.6521 70.8225 66.6975 72.7772 64.3003 74.0222L64.2084 74.0694L63.2256 77.0181C62.7954 78.3128 62.4038 79.4912 61.4738 80.7234C61.0665 81.2631 60.5281 81.7812 60.0664 82.1762C59.6047 82.5712 59.0096 83.0231 58.4135 83.3422C57.0584 84.0672 56.1055 84.2272 55.0181 84.4097L54.9575 84.42C53.4128 84.6797 51.5656 84.875 49.5 84.875C47.4344 84.875 45.5872 84.6797 44.0425 84.42L43.9819 84.4097C42.8944 84.2272 41.9416 84.0672 40.5866 83.3422C39.9903 83.0231 39.3953 82.5712 38.9338 82.1762C38.4719 81.7812 37.9334 81.2631 37.5263 80.7234C36.5963 79.4912 36.2047 78.3128 35.7744 77.0181L34.7916 74.0694L34.6997 74.0222C32.3025 72.7772 30.3478 70.8225 29.1028 68.4253C28.2694 66.8212 27.9334 65.1028 27.7766 63.2112C27.625 61.3869 27.625 59.1425 27.625 56.4078V48.9375C25.8991 48.9375 24.5 47.5384 24.5 45.8125V39.5625C24.5 37.8366 25.8991 36.4375 27.625 36.4375C27.7263 36.4375 27.8266 36.4423 27.9253 36.4517C28.1241 35.0764 28.47 33.7926 29.1028 32.5747C30.3478 30.1775 32.3025 28.2229 34.6997 26.9777C34.7303 26.9618 34.7609 26.9461 34.7916 26.9306ZM45.0784 22.7435C46.3278 22.5335 47.8263 22.375 49.5 22.375C51.1737 22.375 52.6722 22.5335 53.9216 22.7435C54.9378 22.9144 55.0397 22.941 55.465 23.1686C55.465 23.1686 55.4647 23.1684 55.465 23.1686C55.47 23.1715 55.5291 23.2055 55.6388 23.2845C55.7475 23.3629 55.8736 23.4618 56.0029 23.5725C56.1323 23.6831 56.2495 23.7923 56.3437 23.8877C56.4389 23.9842 56.4813 24.0368 56.4849 24.0412C56.4851 24.0415 56.4849 24.0413 56.4849 24.0412C56.7031 24.3304 56.8113 24.5371 57.1566 25.546C55.7394 25.4999 54.1219 25.5 52.2825 25.5H46.7175C44.8781 25.5 43.2606 25.4999 41.8434 25.546C42.1888 24.5371 42.2966 24.3307 42.515 24.0415C42.5147 24.0416 42.5147 24.0417 42.515 24.0415C42.5184 24.037 42.5613 23.9841 42.6563 23.8877C42.7506 23.7923 42.8678 23.6831 42.9972 23.5725C43.1263 23.4618 43.2525 23.3629 43.3613 23.2845C43.4713 23.2054 43.5297 23.1717 43.5347 23.1688C43.535 23.1686 43.5347 23.1687 43.5347 23.1688C43.96 22.9412 44.0622 22.9144 45.0784 22.7435ZM56.4851 76.9584C56.7033 76.6694 56.8113 76.4628 57.1566 75.4541C55.7397 75.5 54.1222 75.5 52.2831 75.5H46.7175C44.8784 75.5 43.2603 75.5 41.8434 75.4541C42.1888 76.4628 42.2966 76.6694 42.515 76.9584C42.5184 76.9631 42.5613 77.0159 42.6563 77.1122C42.7506 77.2078 42.8678 77.3169 42.9972 77.4275C43.1263 77.5381 43.2525 77.6372 43.3613 77.7153C43.4713 77.7947 43.5297 77.8284 43.5347 77.8312C43.96 78.0587 44.0622 78.0856 45.0784 78.2566C46.3278 78.4666 47.8263 78.625 49.5 78.625C51.1737 78.625 52.6722 78.4666 53.9216 78.2566C54.9378 78.0856 55.0397 78.0591 55.465 77.8312C55.47 77.8284 55.5288 77.7947 55.6388 77.7153C55.7475 77.6372 55.8736 77.5381 56.0029 77.4275C56.1323 77.3169 56.2495 77.2078 56.3437 77.1122C56.4389 77.0159 56.4815 76.9631 56.4851 76.9584ZM61.4192 32.524C60.8559 32.2314 60.067 32.0044 58.5691 31.88C57.0337 31.7525 55.05 31.75 52.15 31.75H46.85C43.95 31.75 41.9663 31.7525 40.4309 31.88C38.9331 32.0044 38.1441 32.2314 37.5809 32.524C36.325 33.1763 35.3013 34.2001 34.6491 35.4558C34.3566 36.0191 34.1294 36.808 34.005 38.3059C33.8775 39.8412 33.875 41.8251 33.875 44.725V56.275C33.875 59.175 33.8775 61.1587 34.005 62.6941C34.1294 64.1919 34.3566 64.9809 34.6491 65.5441C35.3013 66.8 36.325 67.8237 37.5809 68.4759C38.1441 68.7684 38.9331 68.9956 40.4309 69.12C41.9663 69.2475 43.95 69.25 46.85 69.25H52.15C55.05 69.25 57.0337 69.2475 58.5691 69.12C60.067 68.9956 60.8559 68.7684 61.4192 68.4759C62.6749 67.8237 63.6987 66.8 64.351 65.5441C64.6436 64.9809 64.8706 64.1919 64.995 62.6941C65.1225 61.1587 65.125 59.175 65.125 56.275V44.725C65.125 41.8251 65.1225 39.8412 64.995 38.3059C64.8706 36.808 64.6436 36.0191 64.351 35.4558C63.6987 34.2001 62.6749 33.1763 61.4192 32.524Z" fill="#FF5D00"/>
</g>
</g>
</g>
</g>
</g>
<defs>
<clipPath id="clip0_0_1">
<rect width="1900" height="11808" fill="white" transform="translate(-413 -2974)"/>
</clipPath>
</defs>
</svg>
