<svg width="32" height="32" viewBox="0 0 32 32" fill="none" xmlns="http://www.w3.org/2000/svg">
<g clip-path="url(#clip0_13021_16027)">
<path d="M17.7048 15.3393C18.0734 15.1508 18.4841 15.0511 18.9102 15.0511C19.6163 15.0511 20.2801 15.3252 20.7805 15.823L21.8578 14.7459C24.5237 15.6804 27.607 15.0821 29.7381 12.9511C31.5313 11.1579 32.2385 8.69073 31.861 6.36515C31.8194 6.10904 31.6381 5.8978 31.3912 5.81811C31.1444 5.73831 30.8735 5.80316 30.6901 5.98667L29.0905 7.58618C27.788 8.88876 25.6759 8.88876 24.3733 7.58618C23.0706 6.2836 23.0706 4.17155 24.3733 2.86897L25.9728 1.26945C26.1564 1.08594 26.2217 0.814991 26.1418 0.568055C26.062 0.32101 25.8505 0.140121 25.5943 0.0985282C23.2688 -0.278971 20.8015 0.428212 19.0084 2.22139C16.8456 4.3842 16.2635 7.52734 17.2583 10.2199L14.9219 12.5563L17.7048 15.3393Z" fill="#F5FAFE"/>
<path d="M13.4494 19.5735L10.6782 16.8022L0.987972 26.4923C-0.272032 27.7523 -0.272032 29.7952 0.987972 31.0552C2.24798 32.3152 4.29082 32.3152 5.55082 31.0552L13.9044 22.7017C13.0618 21.8547 12.91 20.5759 13.4494 19.5735Z" fill="#F5FAFE"/>
<path d="M19.6289 16.9863C19.4308 16.7881 19.1709 16.689 18.9112 16.689C18.6515 16.689 18.3917 16.7881 18.1936 16.9863L17.6151 17.5647L7.3106 7.26025L7.79224 6.7786C8.23109 6.33986 8.17662 5.61205 7.67642 5.24372L3.47218 2.14742C3.06815 1.84994 2.50747 1.89218 2.15268 2.24698L0.367581 4.03218C0.0127882 4.38697 -0.0294594 4.94777 0.268021 5.35168L3.36421 9.55592C3.73254 10.056 4.45992 10.111 4.8991 9.67175L5.38075 9.18999L15.6852 19.4945L15.066 20.1137C14.6697 20.5101 14.6697 21.1526 15.066 21.549L24.5722 31.0551C25.8322 32.3152 27.875 32.3152 29.135 31.0551C30.395 29.7951 30.395 27.7523 29.135 26.4923L19.6289 16.9863Z" fill="#F5FAFE"/>
</g>
<defs>
<clipPath id="clip0_13021_16027">
<rect width="32" height="32" fill="white"/>
</clipPath>
</defs>
</svg>
