<svg width="70" height="70" viewBox="0 0 70 70" fill="none" xmlns="http://www.w3.org/2000/svg">
<path d="M0 35C0 15.67 15.67 0 35 0C54.33 0 70 15.67 70 35C70 54.33 54.33 70 35 70C15.67 70 0 54.33 0 35Z" fill="#E8F2FC"/>
<g clip-path="url(#clip0_2678_13098)">
<path d="M51.043 48.6852C50.8596 48.5017 50.7679 48.41 50.7127 48.327C50.5378 48.0638 50.498 47.8241 50.5786 47.5186C50.604 47.4222 50.6748 47.278 50.8164 46.9895C51.3587 45.885 51.6665 44.6453 51.6665 43.3335C51.6665 38.7305 47.936 35 43.3335 35C43.1836 35 43.0554 34.9136 43.0351 34.765C43.015 34.6175 42.9952 34.4698 42.9741 34.323C42.9199 33.9473 43.1184 33.5736 43.469 33.4284L47.1152 31.9182C47.3902 31.8043 47.5276 31.7474 47.6287 31.6715C47.9204 31.4525 48.0697 31.092 48.0183 30.7308C48.0004 30.6057 47.9435 30.4682 47.8295 30.1933L47.5644 29.5536C47.4505 29.2787 47.3935 29.1412 47.3177 29.0402C47.0986 28.7485 46.738 28.5993 46.3769 28.6508C46.2518 28.6687 46.1144 28.7256 45.8395 28.8396L43.2081 29.9306C42.915 30.0521 42.7685 30.1128 42.6466 30.131C42.2779 30.1859 41.9533 30.0589 41.7198 29.7683C41.6426 29.6723 41.5692 29.5129 41.4224 29.1943C40.4875 27.1655 39.2497 25.4498 37.803 24.1694C37.5864 23.9777 37.478 23.8818 37.418 23.8025C37.2331 23.5582 37.1749 23.3061 37.2341 23.0056C37.2534 22.908 37.3008 22.7936 37.3956 22.5647L39.4959 17.4956C39.6097 17.2208 39.6667 17.0834 39.6845 16.9584C39.7359 16.5973 39.5867 16.2369 39.2952 16.0178C39.1942 15.942 39.0568 15.885 38.782 15.771L38.1422 15.5057C37.8673 15.3917 37.7298 15.3347 37.6047 15.3169C37.2435 15.2654 36.883 15.4146 36.6639 15.7063C36.588 15.8074 36.531 15.9449 36.4171 16.2198L34.4731 20.9118C34.3644 21.1743 34.31 21.3056 34.2496 21.393C34.0573 21.6714 33.8313 21.7998 33.4937 21.8225C33.3877 21.8296 33.2132 21.8041 32.8643 21.7533C32.4712 21.696 32.0721 21.6665 31.6685 21.6665C31.2652 21.6665 30.8662 21.6958 30.4731 21.753C30.1233 21.8038 29.9484 21.8293 29.8425 21.8221C29.5046 21.7994 29.2792 21.6712 29.0867 21.3926C29.0264 21.3052 28.972 21.1738 28.8631 20.9109L26.9197 16.2196C26.8058 15.9447 26.7489 15.8072 26.673 15.7062C26.454 15.4145 26.0935 15.2652 25.7324 15.3167C25.6073 15.3345 25.4698 15.3914 25.1949 15.5053L24.5545 15.7707C24.2796 15.8846 24.1422 15.9416 24.0411 16.0174C23.7495 16.2365 23.6002 16.597 23.6517 16.9581C23.6695 17.0831 23.7264 17.2206 23.8404 17.4955L25.9407 22.5638C26.0356 22.7928 26.083 22.9073 26.1022 23.0048C26.1615 23.3055 26.1033 23.5576 25.9183 23.8019C25.8582 23.8812 25.7498 23.9771 25.533 24.169C24.0858 25.4495 22.8487 27.1654 21.914 29.194C21.7673 29.5125 21.6939 29.6718 21.6167 29.7678C21.3833 30.0584 21.0586 30.1855 20.6899 30.1306C20.5681 30.1125 20.4216 30.0517 20.1285 29.9303L17.4955 28.8389C17.2206 28.725 17.0831 28.668 16.9581 28.6502C16.5969 28.5987 16.2364 28.748 16.0174 29.0396C15.9415 29.1406 15.8845 29.2781 15.7706 29.553L15.5055 30.1926C15.3916 30.4676 15.3346 30.6051 15.3168 30.7302C15.2653 31.0914 15.4147 31.4519 15.7065 31.671C15.8075 31.7468 15.945 31.8038 16.22 31.9176L19.4671 33.262C19.7025 33.3594 19.8201 33.4081 19.9082 33.4692C20.1698 33.6505 20.3187 33.916 20.337 34.2338C20.3431 34.3408 20.3217 34.4766 20.2789 34.7482C20.2428 34.9775 20.2099 35.2084 20.1805 35.4411C20.1411 35.7519 20.1214 35.9073 20.0809 36.0161C19.9592 36.342 19.7117 36.5602 19.3731 36.6399C19.2601 36.6665 19.1162 36.6665 18.8286 36.6665H16.3215C16.0239 36.6665 15.8752 36.6665 15.7528 36.6979C15.3995 36.7886 15.1236 37.0645 15.0329 37.4178C15.0015 37.5402 15.0015 37.6889 15.0015 37.9865V38.68C15.0015 38.9776 15.0015 39.1263 15.0329 39.2487C15.1236 39.602 15.3995 39.8779 15.7528 39.9686C15.8752 40 16.0239 40 16.3215 40H18.8291C19.1166 40 19.2604 40 19.3734 40.0266C19.7119 40.1063 19.9596 40.3246 20.0811 40.6504C20.1217 40.7592 20.1414 40.9144 20.1807 41.2248C20.2102 41.4579 20.2432 41.6892 20.2793 41.9187C20.322 42.1901 20.3434 42.3258 20.3372 42.4328C20.319 42.7504 20.17 43.016 19.9085 43.1973C19.8205 43.2583 19.7029 43.307 19.4677 43.4044L16.2208 44.7491C15.9459 44.8629 15.8085 44.9198 15.7075 44.9956C15.4158 45.2146 15.2665 45.5749 15.3178 45.936C15.3355 46.0611 15.3924 46.1985 15.5062 46.4734L15.771 47.1132C15.8848 47.3883 15.9417 47.5258 16.0176 47.6269C16.2366 47.9187 16.5972 48.0681 16.9584 48.0166C17.0835 47.9988 17.221 47.9418 17.496 47.8278L20.1282 46.7368C20.4213 46.6154 20.5678 46.5547 20.6897 46.5365C21.0584 46.4817 21.3834 46.609 21.6168 46.8997C21.6939 46.9958 21.7672 47.1552 21.9138 47.4739C23.9979 52.0052 27.5872 55 31.6685 55C34.3447 55 36.8042 53.7 38.7711 51.5303C38.9796 51.3003 39.0838 51.1853 39.1606 51.1278C39.419 50.9342 39.612 50.8878 39.9301 50.9426C40.0247 50.9589 40.1805 51.018 40.4922 51.1361C41.3779 51.4716 42.3302 51.6665 43.3335 51.6665C44.6461 51.6665 45.8858 51.3592 46.9901 50.8164C47.2791 50.6743 47.4236 50.6033 47.5201 50.5778C47.8259 50.4971 48.0656 50.5369 48.329 50.712C48.412 50.7672 48.5039 50.8591 48.6875 51.0429L51.7096 54.0662C51.92 54.2767 52.0252 54.382 52.134 54.4463C52.4479 54.632 52.8382 54.6321 53.1522 54.4464C53.2609 54.3821 53.3661 54.2769 53.5766 54.0664L54.0667 53.5763C54.2771 53.3659 54.3823 53.2607 54.4466 53.152C54.6323 52.838 54.6323 52.4479 54.4467 52.134C54.3824 52.0252 54.2772 51.92 54.0668 51.7096L51.043 48.6852ZM31.6685 25C33.4245 25 35.0697 25.9289 36.4291 27.4827C36.5691 27.6427 36.639 27.7226 36.7014 27.868C36.8586 28.2347 36.7012 28.8232 36.3818 29.0624C36.2553 29.1572 36.1506 29.193 35.9413 29.2645C33.1751 30.2097 30.1598 30.2095 27.3936 29.264C27.1846 29.1925 27.0801 29.1568 26.9536 29.0621C26.6345 28.823 26.4769 28.2346 26.6339 27.868C26.6961 27.7227 26.7659 27.6429 26.9054 27.4833C28.2648 25.9276 29.9119 25 31.6685 25ZM36.3089 47.7528C36.4675 48.0007 36.5469 48.1247 36.584 48.2237C36.6921 48.512 36.6645 48.821 36.5072 49.0857C36.4531 49.1766 36.3865 49.2485 36.2534 49.3923C34.9282 50.8234 33.3471 51.667 31.6685 51.667C27.152 51.667 23.335 45.5605 23.335 38.334C23.335 36.4575 23.5965 34.6616 24.0587 33.0251C24.1369 32.7483 24.176 32.6099 24.2446 32.4955C24.4441 32.1631 24.813 31.9772 25.1989 32.0148C25.3316 32.0277 25.501 32.0918 25.8398 32.2202C29.5921 33.6419 33.7443 33.6437 37.4994 32.2227C37.8359 32.0954 38.0042 32.0317 38.1375 32.0189C38.5232 31.9819 38.8955 32.1711 39.0931 32.5044C39.1614 32.6195 39.1991 32.7561 39.2743 33.0293C39.436 33.6159 39.571 34.2236 39.6795 34.8478C39.7152 35.0536 39.7331 35.1565 39.7313 35.2521C39.7259 35.5426 39.6212 35.7746 39.407 35.9708C39.3365 36.0354 39.2157 36.1097 38.974 36.2582C36.5942 37.7203 35 40.3342 35 43.3335C35 44.9655 35.4896 46.4726 36.3089 47.7528ZM43.3335 48.3335C40.5715 48.3335 38.3335 46.094 38.3335 43.3335C38.3335 40.57 40.5715 38.3335 43.3335 38.3335C46.095 38.3335 48.3335 40.57 48.3335 43.3335C48.3335 46.094 46.095 48.3335 43.3335 48.3335Z" fill="#4361EE"/>
</g>
<defs>
<clipPath id="clip0_2678_13098">
<rect width="40" height="40" fill="white" transform="translate(15 15)"/>
</clipPath>
</defs>
</svg>
