<svg width="100" height="100" viewBox="0 0 100 100" fill="none" xmlns="http://www.w3.org/2000/svg">
<circle cx="50" cy="50" r="50" fill="#FF5D00" fill-opacity="0.1"/>
<path d="M42.3676 20C40.5187 20 39.4716 21.5933 39.0023 23.3829V25.0001H80.0012V23.3829C80.0012 21.5328 78.4926 20 76.6437 20H42.3676ZM39.0023 27.0002V30.0002H80.0012V27.0002H39.0023ZM39.0023 32.0002V43.6274C39.0023 45.4775 40.5187 47.0005 42.3676 47.0005H76.6437C78.4926 47.0005 80.0012 45.4775 80.0012 43.6274V32.0002H39.0023ZM46.147 36.0589H51.862C53.0529 36.0589 54.0026 37.0505 54.0026 38.2445V40.8676C54.0026 42.0694 53.0529 43.059 51.862 43.059H46.147C44.956 43.059 44.0063 42.0697 44.0063 40.8676V38.2445C44.0063 37.0427 44.956 36.0589 46.147 36.0589ZM46.147 38.059C46.0718 38.059 46.0083 38.1421 46.0083 38.2446V40.8676C46.0083 40.9897 46.0718 41.0589 46.147 41.0589H51.862C51.9372 41.0589 52.0007 40.9856 52.0007 40.8676V38.2446C52.0007 38.1304 51.9372 38.059 51.862 38.059H46.147ZM40.9399 56.0027C39.0023 56.0027 35.6246 57.4766 33.3733 58.6297C33.7615 59.3406 34.0023 60.1432 34.0023 61.0067V74.4874C35.2758 74.2656 36.5677 74.0618 38.0062 74.0069C39.2425 74.0069 41.5533 75.7589 43.0552 76.8195C45.1953 78.3301 47.5005 80.0012 50.0006 80.0012C50.7531 80.0012 51.5091 79.7536 52.5046 79.382C57.9755 77.3368 69.5153 70.8084 76.2375 66.8759C77.9384 65.9352 78.4972 63.757 77.5363 62.0926C76.6143 60.4957 74.7427 60.1068 72.9229 60.7274L60.366 65.0751C60.456 65.8921 60.3097 66.7391 59.8699 67.5009C58.7706 69.4051 56.3111 70.0633 54.4069 68.9639L48.3385 65.4638C47.084 64.8234 48.1654 62.9637 49.3424 63.7372L55.403 67.2353C56.3776 67.798 57.5729 67.4795 58.1355 66.5048C58.6982 65.5303 58.3778 64.337 57.4031 63.7743C52.9404 61.1977 45.0256 56.0027 40.9399 56.0027ZM23.0059 58.0027C21.3225 58.0027 20 59.3639 20 61.0086V75.003C20 76.6412 21.3235 77.9962 22.9864 78.007H29.006C30.8321 78.007 32.0022 76.4556 32.0022 75.0011V61.0067C32.0022 59.3261 30.6428 58.0027 29.008 58.0027H23.0059ZM25.004 72.0049C25.5563 72.0049 26.004 72.4527 26.004 73.005C26.004 73.5573 25.5563 74.005 25.004 74.005C24.4517 74.005 24.004 73.5573 24.004 73.005C24.004 72.4527 24.4517 72.0049 25.004 72.0049Z" fill="#FF5D00"/>
</svg>
