<svg width="56" height="38" viewBox="0 0 56 38" fill="none" xmlns="http://www.w3.org/2000/svg">
<path d="M47.3201 18.4473C44.3742 18.4473 42.2804 19.6731 40.9534 21.5907C39.7211 23.3656 39.1425 25.7283 39.1425 28.2598C39.1425 30.7912 39.71 32.7357 40.7003 34.2583C42.0847 36.3837 44.2963 37.54 46.9613 37.54C53.0489 37.54 55.1751 32.2749 55.1751 27.7294C55.1751 23.9776 53.6571 18.5289 47.4639 18.4491C47.4147 18.4482 47.3674 18.4482 47.3201 18.4482M47.1439 33.791C45.9487 33.791 45.1512 32.911 44.8044 31.5034C44.5911 30.5455 44.567 29.5338 44.567 28.5528C44.567 26.7455 44.6718 24.3763 45.3636 23.2089C45.8662 22.3845 46.6395 22.0655 47.2515 22.0655C48.5274 22.0655 49.1923 23.1004 49.4566 24.2437C49.7236 25.3889 49.7774 27.3816 49.7774 28.206C49.7774 30.8126 49.3787 33.791 47.1439 33.791Z" fill="white"/>
<path d="M28.1828 21.5956C27.0255 19.7819 25.107 18.4243 22.0396 18.3844C19.4905 18.3492 17.5719 19.2236 16.2218 20.6665L16.016 22.6129H14.8884C14.4711 23.4558 14.1707 24.3895 13.9769 25.3836C15.8101 26.4351 16.9738 28.2544 16.9738 30.5346C16.9738 32.0099 16.4648 33.5001 15.595 34.649C16.9877 36.485 19.0676 37.4744 21.5342 37.4744C24.5859 37.4744 26.6398 36.153 27.9333 34.2641C26.9393 32.7388 26.3737 30.7182 26.3737 28.2619C26.3737 25.8055 26.9541 23.3677 28.1828 21.5956ZM21.7196 33.7263C20.5235 33.7263 19.726 32.8463 19.3801 31.4387C19.1668 30.4808 19.1427 29.4729 19.1427 28.4881C19.1427 26.679 19.2466 24.3135 19.9383 23.1442C20.4446 22.3189 21.2152 22.0008 21.8263 22.0008C23.1031 22.0008 23.7671 23.0375 24.0323 24.18C24.2993 25.3233 24.3522 27.317 24.3522 28.1413C24.3522 30.7488 23.9553 33.7254 21.7196 33.7254" fill="white"/>
<path d="M34.4829 22.0675C33.8709 22.0675 33.1022 22.3865 32.5959 23.2108C31.9032 24.3801 31.7994 26.7447 31.7994 28.5547C31.7994 29.5386 31.8262 30.5484 32.0386 31.5053C32.3835 32.9157 33.1819 33.792 34.379 33.792C36.6119 33.792 37.0116 30.8154 37.0116 28.2079C37.0116 27.3836 36.9569 25.3908 36.6917 24.2475C36.4265 23.1032 35.7607 22.0675 34.4838 22.0675M34.1899 37.5419C31.5277 37.5419 29.3152 36.3875 27.9335 34.2631C29.2187 32.3807 29.7482 29.9317 29.7482 27.6645C29.7482 25.7701 29.3634 23.4454 28.182 21.5946C29.5136 19.6769 31.6046 18.4492 34.5515 18.4492C34.5988 18.4492 34.648 18.4492 34.6952 18.4501C37.7914 18.4891 39.7183 19.8707 40.8718 21.7105C39.6951 23.4704 39.1415 25.7849 39.1415 28.2589C39.1415 30.7329 39.697 32.6932 40.6697 34.2093C39.3817 36.1631 37.3037 37.541 34.1899 37.541" fill="white"/>
<path d="M40.6696 34.21C39.6969 32.6939 39.1415 30.6872 39.1415 28.2596C39.1415 25.832 39.696 23.4702 40.8718 21.7093C42.0272 23.5527 42.4064 25.8542 42.4064 27.7292C42.4064 29.951 41.8983 32.3434 40.6696 34.21Z" fill="white"/>
<path d="M28.1826 21.5947C26.954 23.3676 26.3754 25.7294 26.3754 28.2628C26.3754 30.7961 26.941 32.7387 27.9332 34.2632C29.2212 32.3808 29.7497 29.9319 29.7497 27.6628C29.7497 25.7712 29.3631 23.4446 28.1826 21.5938" fill="white"/>
<path d="M13.9769 25.3835C12.8632 24.7455 11.5029 24.3932 10.0081 24.3932C9.02337 24.3932 7.82718 24.5795 7.02972 24.8995C6.84333 24.9783 6.65695 25.084 6.4715 25.1915L6.73763 22.6119H14.8893C15.2473 21.8886 15.6896 21.233 16.2209 20.6646L16.4156 18.81H2.85511L1.84438 28.7013L6.39082 29.2595C6.70981 28.7811 7.13543 28.0902 8.62464 28.0902C10.5116 28.0902 11.4157 29.2864 11.4157 30.9351C11.4157 32.3715 10.6452 33.7791 8.70531 33.7791C7.61483 33.7791 6.73763 33.2756 6.41771 32.237C6.28419 31.8114 6.28419 31.3598 6.28419 30.9073L0.860535 31.4665C1.15448 32.8472 1.41876 34.125 2.58898 35.349C4.66238 37.4493 7.69458 37.4493 8.67749 37.4493C10.2196 37.4493 13.0654 37.3157 15.059 35.2692C15.251 35.0773 15.429 34.8696 15.595 34.6489C14.4062 33.0827 13.7172 30.9017 13.7172 28.195C13.7172 27.226 13.8026 26.2811 13.9769 25.3835Z" fill="white"/>
<path d="M16.0152 22.6117L16.2192 20.6653C15.6888 21.2319 15.2456 21.8884 14.8876 22.6117H16.0152Z" fill="white"/>
<path d="M13.977 25.3834C13.8027 26.281 13.7173 27.2259 13.7173 28.1949C13.7173 30.9017 14.4063 33.0817 15.5951 34.6488C16.4667 33.4999 16.9739 32.0098 16.9739 30.5345C16.9739 28.2524 15.8093 26.4331 13.977 25.3834Z" fill="white"/>
<path d="M5.68451 15.4402V12.076H7.70041V3.62103H5.68451V0H16.4298V3.62103H14.4148V12.0732H16.4298V15.4402H5.68451Z" fill="white"/>
<path d="M26.1281 15.4402V12.0742H27.6859V8.5505C27.6859 7.48876 26.9292 7.01307 25.9556 7.01307C24.7205 7.01307 23.7895 7.92273 23.7895 9.15601V12.0742H25.3927V15.4402H16.986V12.0742H18.504V6.9973H16.986V3.62756H23.6151V5.95133C23.7236 5.86417 23.8321 5.73435 23.9184 5.62585C25.1312 4.23864 26.5184 3.74162 28.3378 3.74162C30.8924 3.74162 32.9732 4.7811 32.9732 7.61951V12.0723H34.3373V15.4393H26.1281V15.4402Z" fill="white"/>
<path d="M47.7039 8.61078L43.1676 9.10966C43.112 7.85041 42.8533 6.51976 41.3187 6.51976C39.3695 6.51976 39.2184 8.14436 39.2184 9.70497V9.73743C39.2184 11.2971 39.3695 12.9217 41.3187 12.9217C42.3424 12.9217 43.2455 12.3357 43.2455 11.095H43.3939L47.7632 11.0987L47.7261 11.4881C46.9797 15.1611 43.6656 15.736 41.2751 15.736C37.5289 15.736 33.8448 13.8954 33.8448 9.71424V9.7263C33.8448 5.54519 37.5289 3.70453 41.2751 3.70453C41.2751 3.70453 47.1503 3.32342 47.7039 8.61171" fill="white"/>
<path d="M51.2174 13.5827C51.2174 14.6398 50.3606 15.4957 49.3045 15.4957C48.2483 15.4957 47.3915 14.6389 47.3915 13.5827C47.3915 12.5266 48.2483 11.6679 49.3045 11.6679C50.3606 11.6679 51.2174 12.5256 51.2174 13.5827Z" fill="white"/>
</svg>
