<svg width="45" height="45" viewBox="0 0 45 45" fill="none" xmlns="http://www.w3.org/2000/svg"><path d="M14.079 29.37c1.761 1.644 2.544 3.539 2.544 6.144q.002.052.01.105c-.235.325-.375.72-.375 1.154v1.595c0 .85.54 1.57 1.288 1.85A5.37 5.37 0 0 0 22.875 45c2.76 0 5.035-2.096 5.33-4.785.752-.276 1.287-1 1.287-1.851V36.77c0-.431-.14-.831-.375-1.155a1 1 0 0 0 .01-.105c0-2.605.783-4.5 2.544-6.144a12.98 12.98 0 0 0 4.101-9.456c0-7.124-5.788-12.926-12.903-12.926-7.11 0-12.9 5.8-12.9 12.926a13.03 13.03 0 0 0 4.11 9.46m13.451 6.856c.294 0 .545.25.545.545v1.595c0 .3-.245.545-.545.545l-9.306-.002a.546.546 0 0 1-.544-.545v-1.595c0-.3.244-.545.544-.545zM22.875 19.92a.99.99 0 0 1 0-1.98.99.99 0 0 1 0 1.98m0 23.66a3.95 3.95 0 0 1-3.877-3.24h7.759a3.954 3.954 0 0 1-3.882 3.24m0-35.17c6.332 0 11.482 5.16 11.482 11.506a11.55 11.55 0 0 1-3.652 8.414c-1.876 1.756-2.835 3.825-2.98 6.476h-1.232V29.4l1.486-1.49a.7.7 0 0 0 .21-.505v-1.95a2.31 2.31 0 0 0 1.587-2.171 2.27 2.27 0 0 0-.662-1.63 2.3 2.3 0 0 0-1.616-.686h-.016c-.609 0-1.176.235-1.612.664a2.3 2.3 0 0 0-.684 1.62 2.3 2.3 0 0 0 1.582 2.199v1.656l-1.486 1.489a.7.7 0 0 0-.21.505v5.694h-1.473V21.23a2.41 2.41 0 0 0 1.677-2.295 2.414 2.414 0 0 0-2.41-2.416 2.414 2.414 0 0 0-.694 4.726v13.56h-1.517v-3.45a.7.7 0 0 0-.21-.505l-1.485-1.49v-1.656a2.301 2.301 0 0 0-.71-4.487h-.016a2.26 2.26 0 0 0-1.616.686 2.3 2.3 0 0 0 .021 3.25q.392.384.904.55v1.95c0 .19.074.37.21.505l1.486 1.49v3.154h-1.226c-.14-2.645-1.099-4.72-2.98-6.476a11.56 11.56 0 0 1-3.652-8.414c.013-6.341 5.163-11.502 11.495-11.502m4.611 15.74h-.005a.876.876 0 0 1 .004-1.755h.005c.235 0 .455.096.62.26a.87.87 0 0 1 .253.62.886.886 0 0 1-.877.875m-8.597 1.98a.87.87 0 0 1-1.238.005.88.88 0 0 1-.26-.62.87.87 0 0 1 .87-.88h.005c.48 0 .873.39.879.87a.88.88 0 0 1-.256.624m3.986-21.565a.71.71 0 0 1-.708-.71V.71a.71.71 0 1 1 1.417 0v3.145a.71.71 0 0 1-.709.71m-8.628 1.8-1.572-2.726a.71.71 0 0 1 .26-.97.71.71 0 0 1 .968.26l1.572 2.725a.71.71 0 0 1-.613 1.066.71.71 0 0 1-.615-.356M9.613 12.24a.7.7 0 0 1-.967.258l-2.72-1.57a.711.711 0 0 1 .709-1.23l2.72 1.57a.716.716 0 0 1 .258.972m-5.904 6.965h3.138a.71.71 0 0 1 0 1.42H3.71a.71.71 0 0 1-.709-.71c0-.396.315-.71.709-.71m5.904 8.383a.71.71 0 0 1-.26.97l-2.72 1.57a.7.7 0 0 1-.353.096.71.71 0 0 1-.353-1.325l2.72-1.569a.707.707 0 0 1 .966.258M40.085 9.96a.71.71 0 0 1-.26.97l-2.714 1.572a.7.7 0 0 1-.353.096.71.71 0 0 1-.353-1.325l2.72-1.57a.695.695 0 0 1 .96.257m-1.182 9.247h3.138a.71.71 0 0 1 0 1.42h-3.138a.71.71 0 0 1-.709-.71c0-.396.313-.71.709-.71m-2.76 8.383a.71.71 0 0 1 .968-.26l2.72 1.57a.71.71 0 0 1-.353 1.324.7.7 0 0 1-.353-.095l-2.72-1.57a.7.7 0 0 1-.262-.969m-3.07-23.95-1.572 2.726a.7.7 0 0 1-.966.258.71.71 0 0 1-.26-.97l1.572-2.726a.71.71 0 0 1 .968-.26.715.715 0 0 1 .258.972" fill="#fff"/></svg>