<svg width="80" height="80" viewBox="0 0 80 80" fill="none" xmlns="http://www.w3.org/2000/svg">
<circle cx="40" cy="40" r="40" fill="#4361EE" fill-opacity="0.25"/>
<circle cx="40" cy="40" r="30" fill="#4361EE"/>
<path fill-rule="evenodd" clip-rule="evenodd" d="M29.1669 28.4445C25.7097 28.4445 22.9062 31.2891 22.9062 34.7989V44.5738C22.9062 46.3207 23.8423 47.848 25.233 48.6642C25.6814 45.9722 27.9909 43.9213 30.7739 43.9213C33.7685 43.9213 36.2174 46.2998 36.3839 49.2971H44.4287C44.5949 46.2997 47.0439 43.9213 50.0387 43.9213C53.0004 43.9213 55.4259 46.2457 55.6423 49.1936C56.9467 48.8404 57.9062 47.6361 57.9062 46.2026V42.1297C57.9062 41.8959 57.8514 41.6652 57.7448 41.4568L54.6294 35.33C53.8298 33.7581 52.2337 32.7717 50.4917 32.7717H48.0881C47.4484 30.2819 45.2174 28.4443 42.5628 28.4443L29.1669 28.4445ZM53.8951 40.2826L48.2727 39.4808V35.7038H50.4912C51.1512 35.7038 51.7564 36.0777 52.0606 36.6743L53.8951 40.2826ZM52.9293 49.6233C52.9293 51.2429 51.6343 52.5554 50.0382 52.5554C48.4421 52.5554 47.1486 51.2429 47.1486 49.6233C47.1486 48.0037 48.4421 46.6912 50.0382 46.6912C51.6343 46.6912 52.9293 48.0037 52.9293 49.6233ZM30.7723 52.5554C32.3684 52.5554 33.6634 51.2429 33.6634 49.6233C33.6634 48.0037 32.3684 46.6912 30.7723 46.6912C29.1762 46.6912 27.8827 48.0037 27.8827 49.6233C27.8827 51.2429 29.1762 52.5554 30.7723 52.5554Z" fill="white"/>
</svg>
