<svg width="80" height="80" viewBox="0 0 80 80" fill="none" xmlns="http://www.w3.org/2000/svg">
<circle cx="40" cy="40" r="40" fill="#E51CFF" fill-opacity="0.25"/>
<circle cx="40" cy="40" r="30" fill="#E51CFF"/>
<path d="M24.1827 26.8814H27.3241C28.1369 26.8814 28.8025 27.4726 28.9137 28.2469L29.3944 31.422L31.5007 45.7447C31.7967 47.6639 33.4598 49.1044 35.4191 49.1044H51.3847C53.1951 49.1044 54.7846 47.85 55.2277 46.0778L57.8884 34.9662C58.4052 32.8249 57.0756 30.7212 54.9693 30.2051C54.6733 30.1316 54.3773 30.0941 54.0453 30.0941L31.5742 30.0927L31.2422 27.9154C30.9462 25.9962 29.2831 24.5557 27.3238 24.5557H24.1824C23.5544 24.5557 23 25.0719 23 25.7366C23 26.4013 23.5168 26.9175 24.1824 26.9175L24.1827 26.8814ZM48.8336 35.9251C48.9447 35.2979 49.5352 34.8552 50.1647 34.9288C50.7927 35.0398 51.2359 35.6295 51.1622 36.2582L50.1271 43.2718C50.0535 43.8255 49.5352 44.2681 48.9808 44.2681H48.796C48.168 44.1571 47.7248 43.5674 47.8345 42.9387L48.8696 35.9251H48.8336ZM42.6619 36.0722C42.6619 35.445 43.1787 34.8913 43.8443 34.8913C44.5098 34.8913 45.0266 35.4075 45.0266 36.0722V42.7901C45.0266 43.4173 44.5098 43.971 43.8443 43.971C43.1787 43.971 42.6619 43.4548 42.6619 42.7901V36.0722ZM37.4877 34.9273C38.1157 34.8538 38.7076 35.2964 38.8188 35.9237L39.8539 42.9372C39.9651 43.5644 39.5219 44.1556 38.8924 44.2667H38.7076C38.1157 44.2667 37.6364 43.86 37.5613 43.2703L36.5262 36.2568C36.415 35.6295 36.8582 35.0383 37.5238 34.9273H37.4877ZM39.8525 54.3068C39.8525 52.6832 38.5589 51.3912 36.9333 51.3912C35.3078 51.3912 34.0142 52.6832 34.0142 54.3068C34.0142 55.9304 35.3078 57.2223 36.9333 57.2223C38.5228 57.2223 39.8525 55.9304 39.8525 54.3068ZM49.2406 51.3912C47.615 51.3912 46.3215 52.6832 46.3215 54.3068C46.3215 55.9304 47.615 57.2223 49.2406 57.2223C50.8662 57.2223 52.1598 55.9304 52.1598 54.3068C52.1598 52.7192 50.8662 51.3912 49.2406 51.3912Z" fill="white"/>
</svg>
