<svg width="80" height="80" viewBox="0 0 80 80" fill="none" xmlns="http://www.w3.org/2000/svg">
<circle cx="40" cy="40" r="40" fill="#313A66"/>
<circle cx="40" cy="40" r="30" fill="#6981F1"/>
<path d="M25.9085 33.4318C24.1481 38.8275 23.1697 44.4484 23.0028 50.1207C22.9691 50.8633 23.243 51.5868 23.76 52.1213C24.3136 52.7013 25.0927 53.0103 25.8938 52.9679C26.6949 52.9268 27.4375 52.5358 27.9267 51.9002C29.2213 50.1588 30.3359 48.2915 31.2556 46.3261C31.695 45.4224 32.6104 44.8483 33.6151 44.8454H47.3852C48.3884 44.8483 49.3023 45.4225 49.7417 46.3231C50.6599 48.2871 51.7745 50.1546 53.0677 51.8972C53.5583 52.5314 54.3009 52.9224 55.102 52.9649C55.9031 53.0074 56.6838 52.6984 57.2374 52.1184C57.7543 51.5853 58.0297 50.8633 57.9975 50.1207C57.8305 44.4484 56.8536 38.8275 55.0947 33.4318C54.6656 32.2001 53.8644 31.1325 52.7997 30.3782C51.7364 29.624 50.4637 29.2197 49.1588 29.2227H31.8415C30.5365 29.2197 29.2653 29.624 28.202 30.3782C27.1387 31.1339 26.3361 32.2001 25.9085 33.4318ZM51.1226 35.472H52.3733C52.7175 35.472 52.9972 35.7517 52.9972 36.0974C52.9972 36.4415 52.7175 36.7213 52.3733 36.7213H51.1226C50.7784 36.7213 50.4987 36.4416 50.4987 36.0974C50.4987 35.7517 50.7784 35.472 51.1226 35.472ZM48.6225 32.9719H48.624C48.624 32.6278 48.9037 32.348 49.2479 32.348C49.5936 32.348 49.8733 32.6278 49.8733 32.9719V34.2227C49.8733 34.5668 49.5936 34.8466 49.2479 34.8466C48.9037 34.8466 48.624 34.5669 48.624 34.2227L48.6225 32.9719ZM48.6225 37.9705L48.624 37.972C48.624 37.6263 48.9037 37.3466 49.2479 37.3466C49.5936 37.3466 49.8733 37.6263 49.8733 37.972V39.2212C49.8733 39.5669 49.5936 39.8466 49.2479 39.8466C48.9037 39.8466 48.624 39.5669 48.624 39.2212L48.6225 37.9705ZM46.1225 35.4705H47.3718L47.3732 35.4719C47.7189 35.4719 47.9986 35.7517 47.9986 36.0973C47.9986 36.4415 47.7189 36.7212 47.3732 36.7212H46.124C45.7783 36.7212 45.4986 36.4415 45.4986 36.0973C45.4986 35.7517 45.7783 35.4719 46.124 35.4719L46.1225 35.4705ZM42.3747 41.7213H44.8747C45.2189 41.7213 45.4986 42.0011 45.4986 42.3452C45.4986 42.6909 45.2189 42.9706 44.8747 42.9706H42.3747C42.029 42.9706 41.7493 42.6909 41.7493 42.3452C41.7493 42.0011 42.029 41.7213 42.3747 41.7213ZM36.1253 41.7213H38.6253C38.971 41.7213 39.2507 42.0011 39.2507 42.3452C39.2507 42.6909 38.971 42.9706 38.6253 42.9706H36.1253C35.7811 42.9706 35.5014 42.6909 35.5014 42.3452C35.5014 42.0011 35.7811 41.7213 36.1253 41.7213ZM28.6267 35.472H31.1267V32.9719C31.1267 32.6278 31.4065 32.348 31.7521 32.348C32.0963 32.348 32.376 32.6278 32.376 32.9719V35.472H34.8761C35.2217 35.472 35.5015 35.7517 35.5015 36.0974C35.5015 36.4415 35.2217 36.7213 34.8761 36.7213H32.376V39.2213C32.376 39.567 32.0963 39.8467 31.7521 39.8467C31.4065 39.8467 31.1267 39.567 31.1267 39.2213V36.7213H28.6267C28.2825 36.7213 28.0028 36.4416 28.0028 36.0974C28.0028 35.7517 28.2825 35.472 28.6267 35.472Z" fill="white"/>
</svg>
