<svg width="80" height="80" viewBox="0 0 80 80" fill="none" xmlns="http://www.w3.org/2000/svg">
<circle cx="40" cy="40" r="40" fill="#59296B"/>
<circle cx="40" cy="40" r="30" fill="#E51CFF"/>
<path d="M35.375 48.4935C35.375 46.9691 36.6097 45.7344 38.1342 45.7344H42.8525C44.377 45.7344 45.6117 46.9691 45.6117 48.4935V53.2119C45.6117 54.7363 44.377 55.9711 42.8525 55.9711H38.1342C36.6097 55.9711 35.375 54.7363 35.375 53.2119V48.4935Z" fill="white"/>
<path d="M49.9846 35.1658C49.9708 35.9246 50.6192 36.5936 51.3745 36.6523C54.9614 36.9282 58 39.977 58 43.74C58 46.6785 56.2134 49.2031 53.6681 50.286C53.137 50.5137 52.5955 50.6516 52.0471 50.7344C51.0435 50.8862 50.2123 50.0273 50.2123 49.0099V48.4926C50.2123 44.4263 46.9186 41.1325 42.8557 41.1325H38.1373C34.0745 41.1325 30.7807 44.4262 30.7807 48.4926V48.9375C30.7807 49.9791 29.9047 50.8344 28.9011 50.5551C25.497 49.6066 23 46.4819 23 42.7778C23 38.7011 26.0213 35.328 29.9495 34.7833C30.4359 34.7143 30.8222 34.3246 30.8773 33.8383C31.4154 29.051 35.4748 25.333 40.4033 25.333C45.8077 25.333 50.0848 29.9755 49.9846 35.1658Z" fill="white"/>
</svg>
