<svg width="80" height="80" viewBox="0 0 80 80" fill="none" xmlns="http://www.w3.org/2000/svg">
<circle cx="40" cy="40" r="40" fill="#3FDB9F" fill-opacity="0.25"/>
<circle cx="40" cy="40" r="30" fill="#3FDB9F"/>
<path d="M54.7949 36.9573H51.8101C51.582 36.9615 51.3582 36.8956 51.1688 36.7684C50.9794 36.6412 50.8337 36.4589 50.7514 36.2461C50.6583 36.0382 50.6321 35.8064 50.6767 35.583C50.7213 35.3596 50.8343 35.1555 51.0001 34.9993L53.1112 32.8882C53.4177 32.581 53.5898 32.1647 53.5898 31.7307C53.5898 31.2967 53.4177 30.8804 53.1112 30.5731L50.4198 27.8817C50.1075 27.5823 49.6916 27.4152 49.259 27.4152C48.8264 27.4152 48.4105 27.5823 48.0983 27.8817L45.9872 29.9927C45.8274 30.1524 45.6237 30.261 45.4021 30.3049C45.1805 30.3488 44.9508 30.3259 44.7422 30.2392C44.5336 30.1524 44.3554 30.0058 44.2302 29.8177C44.1049 29.6297 44.0384 29.4087 44.0388 29.1827V26.2043C44.0392 25.9882 43.9971 25.7742 43.9148 25.5744C43.8325 25.3746 43.7116 25.193 43.5591 25.0399C43.4066 24.8868 43.2255 24.7652 43.026 24.6821C42.8265 24.5991 42.6126 24.5561 42.3965 24.5557H38.5858C38.1494 24.5557 37.7309 24.729 37.4223 25.0376C37.1137 25.3462 36.9403 25.7647 36.9403 26.2011V29.1827C36.9408 29.4087 36.8742 29.6297 36.749 29.8177C36.6238 30.0058 36.4456 30.1524 36.2369 30.2392C36.0283 30.3259 35.7987 30.3488 35.577 30.3049C35.3554 30.261 35.1518 30.1524 34.9919 29.9927L32.8809 27.8817C32.5686 27.5823 32.1527 27.4152 31.7201 27.4152C31.2875 27.4152 30.8717 27.5823 30.5594 27.8817L27.8679 30.5731C27.5614 30.8804 27.3893 31.2967 27.3893 31.7307C27.3893 32.1647 27.5614 32.581 27.8679 32.8882L29.9758 35.0025C30.1361 35.1626 30.2453 35.3666 30.2895 35.5888C30.3338 35.811 30.3111 36.0414 30.2244 36.2507C30.1377 36.46 29.9908 36.6388 29.8023 36.7646C29.6139 36.8904 29.3924 36.9574 29.1658 36.9573H26.2002C25.7662 36.9564 25.3496 37.1273 25.0413 37.4326C24.733 37.7379 24.5581 38.1529 24.5547 38.5868V42.4134C24.5543 42.6296 24.5965 42.8438 24.6791 43.0436C24.7616 43.2435 24.8828 43.425 25.0357 43.5779C25.1886 43.7308 25.3701 43.852 25.57 43.9345C25.7698 44.0171 25.984 44.0593 26.2002 44.0589H29.1818C29.4098 44.0546 29.6337 44.1206 29.8231 44.2478C30.0125 44.375 30.1582 44.5573 30.2405 44.77C30.3274 44.9772 30.3486 45.206 30.3012 45.4255C30.2539 45.6451 30.1403 45.8448 29.9758 45.9977L27.8648 48.1088C27.5583 48.4161 27.3861 48.8324 27.3861 49.2664C27.3861 49.7004 27.5583 50.1167 27.8648 50.4239L30.5562 53.1153C30.8685 53.4147 31.2843 53.5819 31.7169 53.5819C32.1495 53.5819 32.5654 53.4147 32.8777 53.1153L34.9887 51.0043C35.1486 50.8446 35.3522 50.736 35.5738 50.6921C35.7955 50.6482 36.0251 50.6711 36.2338 50.7579C36.4424 50.8446 36.6206 50.9913 36.7458 51.1793C36.871 51.3674 36.9376 51.5884 36.9371 51.8143V54.7959C36.9367 55.0125 36.9791 55.2271 37.0618 55.4273C37.1445 55.6275 37.2659 55.8094 37.4191 55.9626C37.5723 56.1158 37.7542 56.2372 37.9544 56.3199C38.1546 56.4026 38.3692 56.445 38.5858 56.4445H42.4125C42.8489 56.4445 43.2674 56.2712 43.576 55.9626C43.8846 55.654 44.0579 55.2355 44.0579 54.7991V51.8143C44.0536 51.587 44.1188 51.3639 44.2448 51.1747C44.3707 50.9855 44.5514 50.8393 44.7627 50.7556C44.9706 50.6624 45.2024 50.6363 45.4258 50.6809C45.6493 50.7255 45.8533 50.8385 46.0095 51.0043L48.1206 53.1153C48.4329 53.4147 48.8487 53.5819 49.2813 53.5819C49.7139 53.5819 50.1298 53.4147 50.4421 53.1153L53.1335 50.4239C53.44 50.1167 53.6121 49.7004 53.6121 49.2664C53.6121 48.8324 53.44 48.4161 53.1335 48.1088L51.0225 45.9977C50.8622 45.8376 50.753 45.6336 50.7087 45.4114C50.6645 45.1892 50.6872 44.9588 50.7739 44.7495C50.8606 44.5402 51.0075 44.3614 51.1959 44.2356C51.3844 44.1098 51.6059 44.0428 51.8324 44.043H54.8141C55.2449 44.0388 55.657 43.8658 55.9617 43.5611C56.2664 43.2564 56.4394 42.8443 56.4436 42.4134V38.5868C56.4377 38.1531 56.2615 37.7391 55.9531 37.4343C55.6446 37.1294 55.2286 36.958 54.7949 36.9573ZM40.4991 44.6457C39.6792 44.6457 38.8777 44.4025 38.196 43.947C37.5143 43.4915 36.9829 42.844 36.6691 42.0865C36.3554 41.329 36.2733 40.4955 36.4332 39.6913C36.5932 38.8872 36.988 38.1485 37.5678 37.5688C38.1476 36.989 38.8862 36.5942 39.6904 36.4342C40.4945 36.2742 41.3281 36.3563 42.0856 36.6701C42.8431 36.9839 43.4905 37.5152 43.946 38.197C44.4016 38.8787 44.6447 39.6802 44.6447 40.5001C44.6447 41.0445 44.5375 41.5836 44.3291 42.0865C44.1208 42.5895 43.8154 43.0465 43.4305 43.4315C43.0455 43.8164 42.5885 44.1218 42.0856 44.3301C41.5826 44.5384 41.0435 44.6457 40.4991 44.6457Z" fill="white"/>
</svg>
