<svg width="80" height="80" viewBox="0 0 80 80" fill="none" xmlns="http://www.w3.org/2000/svg">
<circle cx="40" cy="40" r="40" fill="#4361EE" fill-opacity="0.25"/>
<circle cx="40" cy="40" r="30" fill="#4361EE"/>
<path d="M57.1068 39.1315H48.7349L45.3435 32.8999C45.2253 32.6804 45.0544 32.5013 44.8497 32.3826C44.6449 32.2639 44.4144 32.2101 44.1836 32.2273C43.9529 32.2445 43.731 32.3319 43.5425 32.4799C43.3541 32.6279 43.2064 32.8307 43.116 33.0657L40.2127 40.5132L37.7099 36.8931C37.596 36.7338 37.4517 36.6042 37.2874 36.5135C37.123 36.4227 36.9425 36.3731 36.7588 36.368C36.5591 36.3759 36.364 36.4364 36.1898 36.5446C36.0156 36.6528 35.8675 36.8054 35.7577 36.9898L33.5802 40.5132H24.57C23.2353 38.1487 22.7269 35.3282 23.1399 32.5797C23.5529 29.8311 24.8591 27.343 26.8138 25.5811C28.7686 23.8193 31.2379 22.9044 33.7595 23.0079C36.2811 23.1114 38.6821 24.226 40.5131 26.1433C42.2573 24.3295 44.5163 23.2382 46.9065 23.0548C49.2967 22.8714 51.6708 23.6071 53.6254 25.1371C55.5801 26.667 56.9949 28.8968 57.6295 31.4478C58.2641 33.9988 58.0794 36.7137 57.1068 39.1315ZM46.9453 41.2179L44.4425 36.6305L41.6518 43.8155C41.5656 44.0385 41.4276 44.2326 41.2519 44.3781C41.0761 44.5236 40.8688 44.6155 40.6507 44.6445H40.5131C40.3188 44.6445 40.1272 44.5946 39.9534 44.4987C39.7796 44.4027 39.6285 44.2635 39.5119 44.0918L36.8214 40.1263L35.2947 42.641C35.1827 42.8337 35.0292 42.9926 34.848 43.1035C34.6667 43.2145 34.4632 43.274 34.256 43.2766H26.6724L39.6246 57.5913C39.7409 57.7208 39.8793 57.8236 40.0318 57.8937C40.1843 57.9639 40.3479 58 40.5131 58C40.6783 58 40.8418 57.9639 40.9943 57.8937C41.1468 57.8236 41.2852 57.7208 41.4016 57.5913L54.9669 42.6134C55.1671 42.3785 55.3548 42.1436 55.5425 41.8949H48.0215C47.8044 41.8949 47.5909 41.8324 47.4023 41.7137C47.2136 41.595 47.0561 41.4241 46.9453 41.2179Z" fill="white"/>
</svg>
