<svg width="80" height="80" viewBox="0 0 80 80" fill="none" xmlns="http://www.w3.org/2000/svg">
<circle cx="40" cy="40" r="40" fill="#4361EE" fill-opacity="0.25"/>
<circle cx="40" cy="40" r="30" fill="#4361EE"/>
<path fill-rule="evenodd" clip-rule="evenodd" d="M41.974 32.0862L29.4817 27.669L25.3858 30.8071L36.8579 37.6258L41.974 32.0862ZM37.0311 27.9986C37.29 27.7397 37.7136 27.7397 37.9724 27.9986C38.2312 28.2575 38.2312 28.6727 37.9724 28.933L37.6277 29.2859L36.238 28.7918L37.0311 27.9986ZM52.0662 43.0258C52.325 42.7669 52.7486 42.7669 53.0074 43.0258C53.2663 43.2846 53.2663 43.7082 53.0074 43.967L52.2074 44.7602L51.7215 43.3704L52.0662 43.0258ZM28.3762 48.5351L32.4721 52.6227L33.5628 56.4445L36.2855 54.6713L36.4267 48.9433L52.7253 33.869C55.6529 31.1615 57.52 26.7126 55.7622 25.2371C54.2867 23.4791 49.8464 25.3478 47.1388 28.2741L32.0555 44.572L26.3278 44.7132L24.5547 47.436L28.3762 48.5351ZM43.3708 44.1484L50.1906 55.6128L53.33 51.5167L48.9116 39.0239L43.3708 44.1484Z" fill="white"/>
</svg>
