<svg width="100" height="100" viewBox="0 0 100 100" fill="none" xmlns="http://www.w3.org/2000/svg">
<circle cx="50" cy="50" r="50" fill="#FF5D00" fill-opacity="0.1"/>
<g clip-path="url(#clip0_2427_4984)">
<path d="M78.5944 60.8935L57.7372 26.3037C56.8938 24.9843 55.7318 23.8985 54.3583 23.1464C52.9849 22.3942 51.4442 22 49.8783 22C48.3124 22 46.7717 22.3942 45.3983 23.1464C44.0248 23.8985 42.8628 24.9843 42.0195 26.3037L21.1623 60.8935C20.4255 62.1217 20.025 63.5222 20.0011 64.9542C19.9773 66.3863 20.3308 67.7994 21.0263 69.0514C21.8303 70.4608 22.9941 71.6314 24.3988 72.4436C25.8034 73.2558 27.3985 73.6805 29.0211 73.6743H70.7355C72.3474 73.6915 73.9353 73.2832 75.339 72.4906C76.7427 71.6981 77.9125 70.5493 78.7303 69.1602C79.4462 67.8951 79.8111 66.4617 79.7872 65.0083C79.7633 63.5549 79.3515 62.1343 78.5944 60.8935ZM49.8783 62.797C49.3405 62.797 48.8147 62.6375 48.3675 62.3387C47.9203 62.0399 47.5718 61.6152 47.366 61.1183C47.1602 60.6214 47.1063 60.0746 47.2112 59.5471C47.3162 59.0197 47.5752 58.5351 47.9555 58.1548C48.3358 57.7745 48.8203 57.5155 49.3478 57.4106C49.8753 57.3057 50.4221 57.3595 50.919 57.5653C51.4158 57.7712 51.8405 58.1197 52.1393 58.5669C52.4381 59.0141 52.5976 59.5398 52.5976 60.0777C52.5976 60.7989 52.3111 61.4905 51.8012 62.0005C51.2912 62.5105 50.5995 62.797 49.8783 62.797ZM52.5976 51.9197C52.5976 52.6409 52.3111 53.3326 51.8012 53.8425C51.2912 54.3525 50.5995 54.639 49.8783 54.639C49.1571 54.639 48.4654 54.3525 47.9555 53.8425C47.4455 53.3326 47.159 52.6409 47.159 51.9197V41.0424C47.159 40.3212 47.4455 39.6295 47.9555 39.1195C48.4654 38.6096 49.1571 38.3231 49.8783 38.3231C50.5995 38.3231 51.2912 38.6096 51.8012 39.1195C52.3111 39.6295 52.5976 40.3212 52.5976 41.0424V51.9197Z" fill="#FF5D00"/>
</g>
<defs>
<clipPath id="clip0_2427_4984">
<rect width="64" height="64" fill="white" transform="translate(18 18)"/>
</clipPath>
</defs>
</svg>
