<svg width="50" height="50" viewBox="0 0 50 50" fill="none" xmlns="http://www.w3.org/2000/svg">
<g clip-path="url(#clip0_19870_19956)">
<path d="M12.6417 39.2592L0.570312 29.6878L6.57031 18.5449L23.7846 25.2592L12.6417 39.2592Z" fill="url(#paint0_linear_19870_19956)"/>
<path d="M49.9994 13.6164L49.0709 42.5449L29.8566 50.2592L18.2852 42.8306L35.2137 25.2592L27.7852 9.04492L34.428 1.04492L49.9994 13.6164Z" fill="url(#paint1_linear_19870_19956)"/>
<path d="M49.9994 13.6164L34.7852 31.6164L27.7852 9.04492L34.428 1.04492L49.9994 13.6164Z" fill="url(#paint2_linear_19870_19956)"/>
<path d="M24.0714 41.7588L4 49.0445L7.21429 37.7588L11.4286 23.9016L0 20.0445L7.21429 0.258789L22.9286 2.18736L38.3571 19.8302L24.0714 41.7588Z" fill="url(#paint3_linear_19870_19956)"/>
<path d="M40.6423 9.90137H9.78516V40.7585H40.6423V9.90137Z" fill="black"/>
<path d="M24.2121 34.9727H12.6406V36.9012H24.2121V34.9727Z" fill="white"/>
<path d="M20.9989 16.2585V13.9014H14.5703V16.2585H16.4275V24.3299H14.5703V26.6871H20.9989V24.3299H19.2132V16.2585H20.9989Z" fill="white"/>
<path d="M27.1429 26.9014C26.1429 26.9014 25.2857 26.6871 24.6429 26.3299C24 25.9728 23.4286 25.4728 23 24.9728L24.7857 22.9728C25.1429 23.4014 25.5 23.6871 25.8571 23.9014C26.2143 24.1157 26.6429 24.2585 27.0714 24.2585C27.5714 24.2585 28 24.1157 28.3571 23.7585C28.6429 23.4014 28.7857 22.9014 28.7857 22.1157V13.9014H31.6429V22.2585C31.6429 23.0442 31.5714 23.6871 31.3571 24.2585C31.1429 24.8299 30.8571 25.2585 30.4286 25.6871C30.0714 26.0442 29.5714 26.4014 29 26.5442C28.4286 26.7585 27.8571 26.9014 27.1429 26.9014Z" fill="white"/>
</g>
<defs>
<linearGradient id="paint0_linear_19870_19956" x1="0.563027" y1="28.8944" x2="23.7969" y2="28.8944" gradientUnits="userSpaceOnUse">
<stop offset="0.2581" stop-color="#F97A12"/>
<stop offset="0.4591" stop-color="#B07B58"/>
<stop offset="0.7241" stop-color="#577BAE"/>
<stop offset="0.9105" stop-color="#1E7CE5"/>
<stop offset="1" stop-color="#087CFA"/>
</linearGradient>
<linearGradient id="paint1_linear_19870_19956" x1="18.4047" y1="18.0306" x2="56.7309" y2="39.2378" gradientUnits="userSpaceOnUse">
<stop stop-color="#F97A12"/>
<stop offset="0.0717995" stop-color="#CB7A3E"/>
<stop offset="0.1541" stop-color="#9E7B6A"/>
<stop offset="0.242" stop-color="#757B91"/>
<stop offset="0.3344" stop-color="#537BB1"/>
<stop offset="0.4324" stop-color="#387CCC"/>
<stop offset="0.5381" stop-color="#237CE0"/>
<stop offset="0.6552" stop-color="#147CEF"/>
<stop offset="0.7925" stop-color="#0B7CF7"/>
<stop offset="1" stop-color="#087CFA"/>
</linearGradient>
<linearGradient id="paint2_linear_19870_19956" x1="45.1621" y1="30.913" x2="34.4925" y2="-0.96872" gradientUnits="userSpaceOnUse">
<stop stop-color="#FE315D"/>
<stop offset="0.0784025" stop-color="#CB417E"/>
<stop offset="0.1601" stop-color="#9E4E9B"/>
<stop offset="0.2474" stop-color="#755BB4"/>
<stop offset="0.3392" stop-color="#5365CA"/>
<stop offset="0.4365" stop-color="#386DDB"/>
<stop offset="0.5414" stop-color="#2374E9"/>
<stop offset="0.6576" stop-color="#1478F3"/>
<stop offset="0.794" stop-color="#0B7BF8"/>
<stop offset="1" stop-color="#087CFA"/>
</linearGradient>
<linearGradient id="paint3_linear_19870_19956" x1="7.65743" y1="12.0252" x2="39.6598" y2="64.9588" gradientUnits="userSpaceOnUse">
<stop stop-color="#FE315D"/>
<stop offset="0.0402328" stop-color="#F63462"/>
<stop offset="0.1037" stop-color="#DF3A71"/>
<stop offset="0.1667" stop-color="#C24383"/>
<stop offset="0.2912" stop-color="#AD4A91"/>
<stop offset="0.5498" stop-color="#755BB4"/>
<stop offset="0.9175" stop-color="#1D76ED"/>
<stop offset="1" stop-color="#087CFA"/>
</linearGradient>
<clipPath id="clip0_19870_19956">
<rect width="50" height="50" fill="white"/>
</clipPath>
</defs>
</svg>
