<svg width="80" height="80" viewBox="0 0 80 80" fill="none" xmlns="http://www.w3.org/2000/svg">
<path d="M0 37.1014C0 19.6117 0 10.8668 5.43338 5.43338C10.8668 0 19.6117 0 37.1014 0H42.8986C60.3883 0 69.1332 0 74.5666 5.43338C80 10.8668 80 19.6117 80 37.1014V42.8986C80 60.3883 80 69.1332 74.5666 74.5666C69.1332 80 60.3883 80 42.8986 80H37.1014C19.6117 80 10.8668 80 5.43338 74.5666C0 69.1332 0 60.3883 0 42.8986V37.1014Z" fill="#1B1D1E"/>
<g clip-path="url(#clip0_12436_12506)">
<g clip-path="url(#clip1_12436_12506)">
<path d="M29.398 52.2332L19.041 44.0212L24.1888 34.4609L38.9582 40.2216L29.398 52.2332Z" fill="url(#paint0_linear_12436_12506)"/>
<path d="M61.4482 30.2332L60.6515 55.0531L44.1662 61.6717L34.2383 55.2982L48.7625 40.2224L42.389 26.311L48.0884 19.4473L61.4482 30.2332Z" fill="url(#paint1_linear_12436_12506)"/>
<path d="M61.4498 30.2332L48.3964 45.6767L42.3906 26.311L48.09 19.4473L61.4498 30.2332Z" fill="url(#paint2_linear_12436_12506)"/>
<path d="M39.2034 54.3783L21.9827 60.6292L24.7404 50.9464L28.3562 39.0573L18.5508 35.748L24.7404 18.7725L38.2228 20.4271L51.4601 35.5642L39.2034 54.3783Z" fill="url(#paint3_linear_12436_12506)"/>
<path d="M53.4218 27.0459H26.9473V53.5204H53.4218V27.0459Z" fill="black"/>
<path d="M39.3264 48.5566H29.3984V50.2113H39.3264V48.5566Z" fill="white"/>
<path d="M36.5683 32.4999V30.4775H31.0527V32.4999H32.6461V39.425H31.0527V41.4473H36.5683V39.425H35.0362V32.4999H36.5683Z" fill="white"/>
<path d="M41.8377 41.6312C40.9797 41.6312 40.2443 41.4473 39.6927 41.1409C39.1412 40.8345 38.6509 40.4055 38.2832 39.9765L39.8153 38.2606C40.1217 38.6283 40.4281 38.8734 40.7345 39.0572C41.041 39.2411 41.4087 39.3637 41.7764 39.3637C42.2054 39.3637 42.5731 39.2411 42.8795 38.9347C43.1246 38.6283 43.2472 38.1993 43.2472 37.5252V30.4775H45.6985V37.6477C45.6985 38.3218 45.6372 38.8734 45.4534 39.3637C45.2695 39.8539 45.0244 40.2216 44.6567 40.5893C44.3503 40.8958 43.9213 41.2022 43.431 41.3247C42.9408 41.5086 42.4505 41.6312 41.8377 41.6312Z" fill="white"/>
</g>
</g>
<defs>
<linearGradient id="paint0_linear_12436_12506" x1="19.0348" y1="43.3405" x2="38.9687" y2="43.3405" gradientUnits="userSpaceOnUse">
<stop offset="0.2581" stop-color="#F97A12"/>
<stop offset="0.4591" stop-color="#B07B58"/>
<stop offset="0.7241" stop-color="#577BAE"/>
<stop offset="0.9105" stop-color="#1E7CE5"/>
<stop offset="1" stop-color="#087CFA"/>
</linearGradient>
<linearGradient id="paint1_linear_12436_12506" x1="34.3409" y1="34.0205" x2="67.2236" y2="52.2156" gradientUnits="userSpaceOnUse">
<stop stop-color="#F97A12"/>
<stop offset="0.0717995" stop-color="#CB7A3E"/>
<stop offset="0.1541" stop-color="#9E7B6A"/>
<stop offset="0.242" stop-color="#757B91"/>
<stop offset="0.3344" stop-color="#537BB1"/>
<stop offset="0.4324" stop-color="#387CCC"/>
<stop offset="0.5381" stop-color="#237CE0"/>
<stop offset="0.6552" stop-color="#147CEF"/>
<stop offset="0.7925" stop-color="#0B7CF7"/>
<stop offset="1" stop-color="#087CFA"/>
</linearGradient>
<linearGradient id="paint2_linear_12436_12506" x1="57.2995" y1="45.0732" x2="48.1453" y2="17.7196" gradientUnits="userSpaceOnUse">
<stop stop-color="#FE315D"/>
<stop offset="0.0784025" stop-color="#CB417E"/>
<stop offset="0.1601" stop-color="#9E4E9B"/>
<stop offset="0.2474" stop-color="#755BB4"/>
<stop offset="0.3392" stop-color="#5365CA"/>
<stop offset="0.4365" stop-color="#386DDB"/>
<stop offset="0.5414" stop-color="#2374E9"/>
<stop offset="0.6576" stop-color="#1478F3"/>
<stop offset="0.794" stop-color="#0B7BF8"/>
<stop offset="1" stop-color="#087CFA"/>
</linearGradient>
<linearGradient id="paint3_linear_12436_12506" x1="25.1206" y1="28.8677" x2="52.5777" y2="74.2832" gradientUnits="userSpaceOnUse">
<stop stop-color="#FE315D"/>
<stop offset="0.0402328" stop-color="#F63462"/>
<stop offset="0.1037" stop-color="#DF3A71"/>
<stop offset="0.1667" stop-color="#C24383"/>
<stop offset="0.2912" stop-color="#AD4A91"/>
<stop offset="0.5498" stop-color="#755BB4"/>
<stop offset="0.9175" stop-color="#1D76ED"/>
<stop offset="1" stop-color="#087CFA"/>
</linearGradient>
<clipPath id="clip0_12436_12506">
<rect width="42.8986" height="42.8986" fill="white" transform="translate(18.5508 18.5508)"/>
</clipPath>
<clipPath id="clip1_12436_12506">
<rect width="42.8985" height="42.8985" fill="white" transform="translate(18.5508 18.5508)"/>
</clipPath>
</defs>
</svg>
