<svg width="50" height="50" viewBox="0 0 50 50" fill="none" xmlns="http://www.w3.org/2000/svg">
<g clip-path="url(#clip0_17110_12482)">
<path d="M50 0H0V50H50V0Z" fill="#FF0066"/>
<path d="M17.0176 16.0895C18.5992 16.0664 19.8648 14.7696 19.8494 13.1879C19.8341 11.6062 18.5435 10.3343 16.9618 10.3418C15.38 10.3495 14.1017 11.6338 14.1016 13.2155C14.1042 13.9842 14.4136 14.7201 14.9611 15.2597C15.5086 15.7994 16.2489 16.0981 17.0176 16.0895Z" fill="white"/>
<path d="M10.9694 31.4759C10.8039 32.1835 10.7173 32.9072 10.7114 33.6339C10.7114 36.1639 12.0834 37.8439 14.9994 37.8439C17.4174 37.8439 19.3794 36.4079 20.7894 34.0879L19.9274 37.5479H24.7274L27.4734 26.5479C28.1594 23.7599 29.4874 22.3139 31.5034 22.3139C33.0894 22.3139 34.0754 23.2999 34.0754 24.9299C34.0833 25.4525 34.0111 25.9731 33.8614 26.4739L32.4474 31.5319C32.2451 32.2285 32.1441 32.9505 32.1474 33.6759C32.1474 36.0759 33.5614 37.8359 36.5194 37.8359C39.0494 37.8359 41.0654 36.2079 42.1794 32.3059L40.2934 31.5759C39.3494 34.1919 38.5354 34.6639 37.8934 34.6639C37.2514 34.6639 36.9054 34.2359 36.9054 33.3779C36.924 32.9276 36.9958 32.4812 37.1194 32.0479L38.4934 27.1179C38.8019 26.1044 38.9609 25.0513 38.9654 23.9919C38.9654 20.3039 36.7354 18.3799 34.0334 18.3799C31.5034 18.3799 28.9314 20.6619 27.6454 23.0639L28.5874 18.7519H21.2574L20.2274 22.5519H23.6594L21.5474 30.9999C19.8874 34.6879 16.8394 34.7479 16.4574 34.6619C15.8294 34.5199 15.4294 34.2819 15.4294 33.4619C15.4478 32.798 15.5485 32.1389 15.7294 31.4999L18.9454 18.7419H10.8014L9.77344 22.5419H13.1594L10.9694 31.4759Z" fill="white"/>
</g>
<defs>
<clipPath id="clip0_17110_12482">
<rect width="50" height="50" fill="white"/>
</clipPath>
</defs>
</svg>
