<svg width="100" height="100" viewBox="0 0 100 100" fill="none" xmlns="http://www.w3.org/2000/svg">
<circle cx="50" cy="50" r="50" fill="#FF5D00" fill-opacity="0.1"/>
<g clip-path="url(#clip0_2686_12072)">
<path d="M55.7026 50.9915C55.7026 55.0871 52.2856 58.4009 48.0671 58.4009C37.9387 58.0125 37.9436 43.9656 48.0671 43.5771C52.2856 43.5771 55.7026 46.8959 55.7026 50.9866V50.9915Z" fill="#FF5D00"/>
<path d="M30.5001 66.7202C28.5383 66.7202 26.9453 65.1961 26.9453 63.3179V39.064C26.9453 37.1858 28.5383 35.6617 30.5001 35.6617C32.4618 35.6617 34.0548 37.1858 34.0548 39.064V63.3179C34.0548 65.1961 32.4618 66.7202 30.5001 66.7202ZM74.3961 41.5027V63.3523C74.3961 65.2452 72.8866 66.7842 71.0232 66.7842C69.1598 66.7842 67.6504 65.2452 67.6504 63.3523V41.5027M74.3961 41.5027H79.1751C80.8123 41.5027 82.0562 40.1407 82.0513 38.5772C82.0513 36.9646 80.7631 35.6567 79.1751 35.6567H62.8665C61.2292 35.6567 59.9853 37.0187 59.9902 38.5772C59.9902 40.1899 61.2784 41.5027 62.8665 41.5027H67.6455" fill="#FF5D00"/>
<path d="M48.1234 59.3304C52.8237 59.3304 56.644 55.5888 56.644 50.9917C56.1769 39.9243 40.065 39.9292 39.6028 50.9917C39.6028 55.5888 43.428 59.3304 48.1234 59.3304ZM48.1234 44.5066C51.7715 44.5066 54.7461 47.4124 54.7461 50.9868C54.3823 59.586 41.8645 59.5811 41.5055 50.9868C41.5055 47.4124 44.4752 44.5066 48.1283 44.5066H48.1234ZM54.1905 60.7415C54.5347 61.1299 54.4954 61.715 54.0971 62.0542C53.3105 62.7278 51.1717 64.2667 48.1234 64.2667C45.311 64.2962 43.069 62.8655 42.1496 62.0542C41.2155 61.2184 42.4594 59.8663 43.3985 60.653C43.9983 61.1643 45.6454 62.364 47.9857 62.4082C50.3457 62.482 52.2534 61.1938 52.8483 60.653C53.2416 60.3137 53.8415 60.353 54.1905 60.7415ZM40.4583 63.1654C41.5891 64.0455 44.662 66.0711 48.856 65.8204C52.1993 65.6237 54.638 64.075 55.7934 63.1654C56.757 62.418 57.9518 63.8193 56.9832 64.6158C51.688 68.8687 44.136 68.5049 39.2783 64.6158C38.3097 63.8242 39.4848 62.418 40.4632 63.1605L40.4583 63.1654ZM42.779 40.5635C41.948 40.5979 41.481 39.467 42.1545 38.9311C43.0936 38.1297 45.0947 36.7727 47.9513 36.7186C51.0783 36.6744 53.3006 38.2477 54.102 38.9311C55.0362 39.762 53.7923 41.119 52.8532 40.3324C52.219 39.7915 50.4637 38.5378 47.9906 38.5771C45.6503 38.6214 44.0032 39.821 43.4034 40.3324C43.2215 40.4848 43.0002 40.5635 42.779 40.5635ZM57.1307 37.6774C56.8013 38.0805 56.2064 38.1445 55.7934 37.82C54.638 36.9153 52.1993 35.3616 48.856 35.165C44.662 34.9191 41.5891 36.9399 40.4583 37.82C40.0502 38.1395 39.4504 38.0756 39.121 37.6725C38.7915 37.2693 38.8604 36.6842 39.2734 36.3646C40.5714 35.3518 44.1163 33.0262 48.969 33.3065C52.8385 33.5326 55.6459 35.3223 56.9783 36.3646C57.3864 36.6842 57.4552 37.2693 57.1258 37.6725L57.1307 37.6774ZM30.7085 34.7274C28.2404 34.7274 26.2344 36.694 26.2344 39.1081V63.2686C26.2344 65.6827 28.2404 67.6494 30.7085 67.6494C33.1767 67.6494 35.1827 65.6827 35.1827 63.2686V39.1081C35.1827 36.694 33.1767 34.7274 30.7085 34.7274ZM33.28 63.2686C33.162 66.5972 28.2551 66.607 28.1322 63.2686V39.1081C28.2502 35.7795 33.157 35.7697 33.28 39.1081V63.2686ZM78.9705 34.7323H62.8045C61.777 34.7323 60.8182 35.1355 60.1004 35.873C57.7404 38.2477 59.4514 42.4564 62.8045 42.4367H66.5953V63.3522C66.5953 65.7565 68.5226 67.7133 70.8925 67.7133C73.2623 67.7133 75.1896 65.7565 75.1896 63.3522V42.4367H78.9804C84.02 42.245 84.02 34.929 78.9804 34.7323H78.9705ZM80.298 40.0079C79.944 40.3717 79.472 40.5733 78.9705 40.5733H74.2309C73.7048 40.5733 73.282 40.9912 73.282 41.5025V63.3473C73.282 64.724 72.2052 65.845 70.8875 65.845C69.5699 65.845 68.4931 64.724 68.4931 63.3473V41.5025C68.4931 40.9912 68.0654 40.5733 67.5442 40.5733H62.8045C60.3167 40.5045 60.2675 36.6793 62.8045 36.5908H78.9705C80.657 36.5564 81.5125 38.8377 80.298 40.0079Z" fill="#FF5D00"/>
</g>
<defs>
<clipPath id="clip0_2686_12072">
<rect width="59" height="59" fill="white" transform="translate(25 21)"/>
</clipPath>
</defs>
</svg>
