<svg width="100" height="100" viewBox="0 0 100 100" fill="none" xmlns="http://www.w3.org/2000/svg">
<circle cx="50" cy="50" r="50" fill="#FF5D00" fill-opacity="0.1"/>
<g clip-path="url(#clip0_2686_12084)">
<path d="M73.9037 41.6138C71.6937 30.4337 61.83 22 50 22C40.6075 22 32.4662 27.33 28.3875 35.1137C18.6212 36.17 11 44.4412 11 54.5C11 65.2738 19.7262 74 30.5 74H72.75C81.72 74 89 66.72 89 57.75C89 49.17 82.3213 42.215 73.9037 41.6138ZM43.5 64.25L32.125 52.875L36.7237 48.2763L43.5 55.0525L60.3188 38.2337L64.9175 42.8325L43.5 64.25Z" fill="#FF5D00"/>
</g>
<defs>
<clipPath id="clip0_2686_12084">
<rect width="78" height="78" fill="white" transform="translate(11 9)"/>
</clipPath>
</defs>
</svg>
