<svg width="100" height="100" viewBox="0 0 100 100" fill="none" xmlns="http://www.w3.org/2000/svg">
<circle cx="50" cy="50" r="50" fill="#FF5D00" fill-opacity="0.1"/>
<path d="M46.5556 19L21.0322 30.6163C19.7922 31.1711 19 32.4195 19 33.7718V63.9049L20.2744 63.3154L20.3089 63.2808L46.5556 51.0403V19ZM22.8922 69.7651L48.6567 80.7226C49.1044 80.896 49.5522 81 50 81C50.4478 81 50.8956 80.896 51.3433 80.7226L77.0389 69.7998L50 57.1085L22.8922 69.7651ZM78.9678 30.6163L53.4444 19V51.0403L79.8633 63.4541L81 63.9743V33.7718C81 32.4195 80.2078 31.1711 78.9678 30.6163Z" fill="#FF5D00"/>
</svg>
