<svg width="120" height="27" viewBox="0 0 120 27" fill="none" xmlns="http://www.w3.org/2000/svg">
<path d="M0.5 1.07617H4.13581V26.491H0.5V1.07617ZM31.1499 26.7814C29.2656 26.7863 27.3931 26.4859 25.6053 25.8919C24.0575 25.4296 22.626 24.6437 21.4059 23.5864L22.7511 20.7545C23.8438 21.6969 25.1095 22.4183 26.4778 22.8784C27.9757 23.4201 29.5568 23.6965 31.1499 23.6953C33.2586 23.6953 34.8341 23.3383 35.8764 22.6243C36.361 22.3242 36.7596 21.904 37.0336 21.4046C37.3075 20.9052 37.4475 20.3436 37.4398 19.7742C37.4548 19.3801 37.3864 18.9873 37.2392 18.6213C37.092 18.2554 36.8692 17.9245 36.5854 17.6502C35.9816 17.0851 35.2621 16.6578 34.4766 16.3977C33.6404 16.1072 32.4588 15.7804 30.9317 15.4174C29.3577 15.0603 27.8091 14.5994 26.2961 14.0377C25.1319 13.5858 24.0959 12.8567 23.2783 11.9138C22.4421 10.9577 22.024 9.66879 22.024 8.04708C22.0085 6.74589 22.3819 5.46964 23.0965 4.38149C23.906 3.21494 25.0361 2.30709 26.3506 1.7674C27.8049 1.11387 29.6112 0.787111 31.7693 0.787111C33.267 0.786435 34.7582 0.981735 36.205 1.36802C37.5414 1.70219 38.8088 2.26743 39.9499 3.03813L38.7501 5.94268C37.6905 5.26806 36.5396 4.74844 35.3324 4.39964C34.1757 4.05675 32.976 3.8795 31.7693 3.87319C29.7091 3.87319 28.1638 4.24836 27.1337 4.9987C26.6542 5.31597 26.2617 5.74785 25.9919 6.2551C25.722 6.76235 25.5833 7.32889 25.5885 7.90325C25.5741 8.29903 25.6447 8.6933 25.7954 9.05962C25.9462 9.42593 26.1736 9.75584 26.4625 10.0272C27.0867 10.5971 27.8237 11.0299 28.6258 11.2979C29.7763 11.6808 30.9465 12.0015 32.1315 12.2587C33.7002 12.6137 35.2429 13.0746 36.749 13.6383C37.9027 14.0914 38.9312 14.8134 39.7486 15.7441C40.5848 16.6881 41.0029 17.9588 41.0029 19.5563C41.0129 20.8542 40.633 22.1252 39.9122 23.2052C39.0907 24.3825 37.9399 25.2917 36.6036 25.8193C34.8703 26.5078 33.0144 26.8352 31.1499 26.7814ZM75.2886 26.491L69.7999 18.685C69.1212 18.7334 68.588 18.7576 68.2001 18.7576H61.9088V26.491H58.273V1.07617H68.1987C71.4952 1.07617 74.0888 1.86282 75.9794 3.43611C77.87 5.00941 78.8153 7.17572 78.8153 9.93504C78.8684 11.7161 78.3596 13.4687 77.361 14.9454C76.3367 16.3657 74.8843 17.4216 73.2162 17.9588L79.2516 26.491H75.2886ZM68.0897 15.6715C70.3923 15.6715 72.1497 15.1753 73.3616 14.1829C74.5735 13.1905 75.1795 11.7746 75.1795 9.93504C75.1795 8.09642 74.5735 6.68651 73.3616 5.70529C72.1497 4.72407 70.3923 4.23393 68.0897 4.23486H61.9088V15.6715H68.0897ZM112.883 20.1373H99.359L96.558 26.491H92.8132L104.339 1.07617H107.94L119.5 26.491H115.682L112.883 20.1373ZM111.61 17.2327L106.122 4.77947L100.633 17.2327H111.61Z" fill="#0D1330"/>
</svg>
