<svg width="50" height="50" viewBox="0 0 50 50" fill="none" xmlns="http://www.w3.org/2000/svg">
<path d="M5 24.7637C5 13.718 13.9543 4.76367 25 4.76367C36.0457 4.76367 45 13.718 45 24.7637C45 35.8094 36.0457 44.7637 25 44.7637C13.9543 44.7637 5 35.8094 5 24.7637Z" fill="#4361EE"/>
<path d="M26.9389 15.4H31.1946V29.5989C31.1946 30.9114 30.8996 32.0516 30.3097 33.0194C29.7263 33.9872 28.9143 34.7329 27.8736 35.2566C26.8329 35.7802 25.6231 36.0421 24.2443 36.0421C23.018 36.0421 21.9044 35.8266 20.9034 35.3958C19.9091 34.9583 19.1203 34.2954 18.5369 33.4071C17.9536 32.5123 17.6652 31.3887 17.6719 30.0364H21.9574C21.9706 30.5733 22.08 31.034 22.2855 31.4185C22.4976 31.7963 22.786 32.088 23.1506 32.2935C23.5218 32.4924 23.9593 32.5918 24.4631 32.5918C24.9934 32.5918 25.4408 32.4791 25.8054 32.2537C26.1766 32.0217 26.4583 31.6837 26.6506 31.2395C26.8428 30.7954 26.9389 30.2485 26.9389 29.5989V15.4Z" fill="white"/>
</svg>
