<svg width="80" height="80" viewBox="0 0 80 80" fill="none" xmlns="http://www.w3.org/2000/svg">
<path d="M0 37.1014C0 19.6117 0 10.8668 5.43338 5.43338C10.8668 0 19.6117 0 37.1014 0H42.9C60.3898 0 69.1347 0 74.5681 5.43338C80.0014 10.8668 80.0014 19.6117 80.0014 37.1014V42.9C80.0014 60.3898 80.0014 69.1347 74.5681 74.5681C69.1347 80.0014 60.3898 80.0014 42.9 80.0014H37.1014C19.6117 80.0014 10.8668 80.0014 5.43338 74.5681C0 69.1347 0 60.3898 0 42.9V37.1014Z" fill="#1B1D1E"/>
<g clip-path="url(#clip0_10906_28685)">
<g clip-path="url(#clip1_10906_28685)">
<path fill-rule="evenodd" clip-rule="evenodd" d="M57.965 39.2225C57.965 47.722 51.1681 54.6123 42.7837 54.6123C34.3994 54.6123 27.6025 47.722 27.6025 39.2225C27.6025 30.7228 34.3994 23.8324 42.7837 23.8324C51.1681 23.8324 57.965 30.7228 57.965 39.2225Z" fill="#D33833"/>
<path d="M28.2209 43.0352C28.2209 43.0352 27.1219 26.9861 42.043 26.5275L41.0021 24.808L32.9054 27.502L30.592 30.1386L28.5679 33.979L27.4111 38.4498L27.7581 41.4303" fill="#EF3D3A"/>
<path d="M32.3859 28.7246C29.7223 31.4257 28.0741 35.155 28.0741 39.2807C28.0741 43.4056 29.7223 47.1354 32.3859 49.836C35.0508 52.5366 38.7233 54.203 42.7835 54.203C46.8438 54.203 50.5167 52.5366 53.1813 49.836C55.8447 47.1354 57.4933 43.4056 57.4933 39.2807C57.4933 35.155 55.8447 31.4257 53.1813 28.7246C50.5167 26.0246 46.8438 24.3582 42.7835 24.3578C38.7233 24.3582 35.0508 26.0246 32.3859 28.7246ZM31.7117 50.4893C28.8809 47.6201 27.1309 43.6547 27.1309 39.2807C27.1309 34.906 28.8809 30.9411 31.7117 28.0717C34.5418 25.2018 38.4594 23.4229 42.7835 23.4234C47.1077 23.4229 51.0257 25.2018 53.8553 28.0717C56.6863 30.9411 58.4366 34.9064 58.4363 39.2807C58.4366 43.6547 56.6863 47.6201 53.8553 50.4893C51.0257 53.359 47.1077 55.1377 42.7835 55.1377C38.4594 55.1377 34.5418 53.359 31.7117 50.4893Z" fill="#231F20"/>
<path fill-rule="evenodd" clip-rule="evenodd" d="M49.1745 39.3086L46.8611 39.6525L43.738 39.9964L41.7138 40.0537L39.7475 39.9964L38.2438 39.5378L36.9136 38.1049L35.8726 35.1817L35.6412 34.5512L34.2532 34.0927L33.4435 32.7744L32.8652 30.8828L33.5015 29.2206L35.0051 28.7047L36.2196 29.278L36.798 30.5389L37.492 30.4242L37.7233 30.1378L37.492 28.8194L37.4341 27.1571L37.7811 24.8644L37.7675 23.5548L38.8221 21.8839L40.6728 20.5656L43.9115 19.1899L47.4971 19.7058L50.6201 21.9412L52.0661 24.2339L52.9914 25.8962L53.2226 30.0231L52.5286 33.5769L51.2564 36.7293L50.0419 38.3916" fill="#F0D6B7"/>
<path fill-rule="evenodd" clip-rule="evenodd" d="M47.2075 49.2245L38.9372 49.5684V50.9441L39.6312 55.7588L39.2842 56.1602L33.5009 54.2112L33.096 53.5234L32.5177 47.0466L31.1877 43.1489L30.8984 42.2318L35.525 39.0794L36.971 38.5061L38.2432 40.0537L39.342 41.0281L40.6145 41.4293L41.1927 41.6013L41.8867 44.5818L42.4072 45.2123L43.7375 44.7537L42.812 46.5307L47.8436 48.8806L47.2075 49.2245Z" fill="#335061"/>
<path fill-rule="evenodd" clip-rule="evenodd" d="M33.501 29.2197L35.0045 28.7038L36.219 29.2771L36.7975 30.5381L37.4915 30.4234L37.665 29.7356L37.318 28.4174L37.665 25.2648L37.3757 23.5452L38.4167 22.3415L40.6722 20.5647L40.0361 19.7049L36.8552 21.2525L35.525 22.2843L34.7732 23.8891L33.6165 25.4367L33.2695 27.2709L33.501 29.2197Z" fill="#6D6B6D"/>
<path fill-rule="evenodd" clip-rule="evenodd" d="M35.872 23.8326C35.872 23.8326 36.7395 21.7119 40.2096 20.6801C43.6796 19.6484 40.3831 19.9349 40.3831 19.9349L36.624 21.3679L35.178 22.8008L34.542 23.9473L35.872 23.8326Z" fill="#DCD9D8"/>
<path fill-rule="evenodd" clip-rule="evenodd" d="M34.137 28.8195C34.137 28.8195 32.9225 24.8071 37.5492 24.234L37.3757 23.5462L34.195 24.2914L33.2695 27.2719L33.501 29.2207L34.137 28.8195Z" fill="#DCD9D8"/>
<path fill-rule="evenodd" clip-rule="evenodd" d="M35.9873 34.15L36.7445 33.4228C36.7445 33.4228 37.0863 33.4622 37.1441 33.8634C37.2018 34.2647 37.3753 37.8758 39.8621 39.8247C40.089 40.0025 38.0116 39.5379 38.0116 39.5379L36.1608 36.6721" fill="#F7E4CD"/>
<path fill-rule="evenodd" clip-rule="evenodd" d="M46.6288 33.0605C46.6288 33.0605 46.7637 31.3231 47.2357 31.4567C47.7078 31.5903 47.7078 32.0582 47.7078 32.0582C47.7078 32.0582 46.5614 32.7933 46.6288 33.0605Z" fill="#F7E4CD"/>
<path d="M51.4297 26.6994C51.4297 26.6994 50.4764 26.8989 50.3886 27.7312C50.3009 28.5636 51.4297 27.9031 51.6032 27.8459" fill="#F7E4CD"/>
<path d="M44.4316 26.7563C44.4316 26.7563 43.1592 26.9282 43.1592 27.7306C43.1592 28.5331 44.6052 28.4758 45.0099 28.1319" fill="#F7E4CD"/>
<path fill-rule="evenodd" clip-rule="evenodd" d="M36.5657 30.4818C36.5657 30.4818 34.3679 29.1634 34.1367 30.4245C33.9054 31.6855 33.3847 32.6027 34.4837 33.9209L33.7319 33.6917L33.0379 31.9149L32.8066 30.1953L34.1367 28.8195L35.6404 28.9342L36.5079 29.622L36.5657 30.4818Z" fill="#F7E4CD"/>
<path fill-rule="evenodd" clip-rule="evenodd" d="M37.6066 26.8701C37.6066 26.8701 38.5898 21.8262 43.5636 20.8517C47.6584 20.0495 49.8095 21.0237 50.6192 21.9407C50.6192 21.9407 46.9757 17.642 43.5056 18.9602C40.0356 20.2786 37.4911 22.6859 37.5488 24.2334C37.6473 26.8691 37.6066 26.8701 37.6066 26.8701Z" fill="#F7E4CD"/>
<path fill-rule="evenodd" clip-rule="evenodd" d="M51.0241 22.5147C51.0241 22.5147 49.347 22.4575 49.2891 23.9478C49.2891 23.9478 49.2889 24.177 49.4046 24.4062C49.4046 24.4062 50.735 22.9159 51.5446 23.7184" fill="#F7E4CD"/>
<path fill-rule="evenodd" clip-rule="evenodd" d="M43.6802 24.5611C43.6802 24.5611 43.3915 22.2736 41.4237 23.6035C40.1514 24.4632 40.2671 25.6669 40.4984 25.8961C40.7297 26.1255 40.6668 26.5872 40.8429 26.2703C41.0189 25.9534 40.9609 24.9217 41.5972 24.6352C42.2334 24.3486 43.2763 24.0284 43.6802 24.5611Z" fill="#F7E4CD"/>
<path fill-rule="evenodd" clip-rule="evenodd" d="M38.2432 40.0537L32.8069 42.461C32.8069 42.461 35.0625 51.3454 33.9057 54.0967L33.096 53.8102L33.0382 50.4283L31.5347 44.0088L30.8984 42.2318L36.566 38.449L38.2432 40.0537Z" fill="#49728B"/>
<path fill-rule="evenodd" clip-rule="evenodd" d="M38.802 44.9671L39.5732 45.8998V49.3389H38.6478C38.6478 49.3389 38.5322 46.9315 38.5322 46.6448C38.5322 46.3582 38.6478 45.3265 38.6478 45.3265" fill="#49728B"/>
<path fill-rule="evenodd" clip-rule="evenodd" d="M38.8213 49.8545L36.2188 49.969L36.9707 50.4849L38.8213 50.7715" fill="#49728B"/>
<path fill-rule="evenodd" clip-rule="evenodd" d="M47.7285 49.2816L49.8683 49.2243L50.3888 54.4977L48.1911 54.7842L47.7285 49.2816Z" fill="#335061"/>
<path fill-rule="evenodd" clip-rule="evenodd" d="M48.3066 49.2822L51.5454 49.1103C51.5454 49.1103 52.8754 45.7858 52.8754 45.6139C52.8754 45.4419 54.0322 40.7992 54.0322 40.7992L51.4297 38.1053L50.9091 37.6467L49.5211 39.0224V44.353L48.3066 49.2822Z" fill="#335061"/>
<path fill-rule="evenodd" clip-rule="evenodd" d="M49.7526 48.8805L47.7285 49.2817L48.0176 50.8867C48.7693 51.2306 50.0418 50.3134 50.0418 50.3134" fill="#49728B"/>
<path fill-rule="evenodd" clip-rule="evenodd" d="M49.8096 38.8506L53.8579 41.8311L53.9736 40.4554L50.9084 37.6469L49.8096 38.8506Z" fill="#49728B"/>
<path fill-rule="evenodd" clip-rule="evenodd" d="M40.8289 60.5743L39.6315 55.7589L39.036 52.2058L38.9375 49.5685L44.3568 49.2826L47.7283 49.282L47.4217 55.301L47.9422 59.9438L47.8845 60.8036L43.4893 61.1475L40.8289 60.5743Z" fill="white"/>
<path fill-rule="evenodd" clip-rule="evenodd" d="M46.9758 49.2245C46.9758 49.2245 46.6867 55.1857 47.5542 59.4271C47.5542 59.4271 45.8192 60.5163 43.2744 60.8027L48.1325 60.6308L48.7108 60.2869L48.0168 50.8868L47.8433 48.8804" fill="#DCD9D8"/>
<path fill-rule="evenodd" clip-rule="evenodd" d="M50.4862 54.04L52.7417 53.4095L57.0213 53.1803L57.6575 51.2315L56.5008 47.8497L55.1707 47.6777L53.32 48.2509L51.5444 49.1101L50.6018 48.9387L49.8672 49.2248" fill="white"/>
<path fill-rule="evenodd" clip-rule="evenodd" d="M50.4453 52.893C50.4453 52.893 51.9489 52.2053 52.1803 52.2626L51.5443 49.11L52.296 48.8235C52.296 48.8235 52.8165 51.804 52.8165 52.1479C52.8165 52.1479 56.0551 52.3198 56.3443 52.3198C56.3443 52.3198 57.0383 51.0015 56.8648 49.6259L57.5011 51.4601L57.5588 52.4918L56.6336 53.8674L55.5926 54.0967L53.8575 54.0394L53.2793 53.2943L51.255 53.5808L50.6188 53.8102" fill="#DCD9D8"/>
<path d="M48.1728 48.8242L46.9005 45.6143L45.5703 43.7228C45.5703 43.7228 45.8594 42.9203 46.2643 42.9203C46.6693 42.9203 47.5945 42.9203 47.5945 42.9203L48.8668 43.3789L48.7513 45.4997L48.1728 48.8242Z" fill="white"/>
<path fill-rule="evenodd" clip-rule="evenodd" d="M48.4222 47.7343C48.4222 47.7343 46.8027 44.6393 46.8027 44.1807C46.8027 44.1807 47.0918 43.4929 47.4967 43.6648C47.9017 43.8368 48.7692 44.2952 48.7692 44.2952V43.2062L46.8027 42.8049L45.4727 42.9768L47.7282 48.2502L48.1907 48.3076" fill="#DCD9D8"/>
<path d="M41.3491 40.1693L39.7469 39.9967L38.2432 39.5381V40.0539L38.9779 40.8569L41.2912 41.8887" fill="white"/>
<path fill-rule="evenodd" clip-rule="evenodd" d="M38.7633 40.3411C38.7633 40.3411 40.5563 41.0864 41.1346 40.9144L41.1921 41.6016L39.5731 41.2583L38.5898 40.5705L38.7633 40.3411Z" fill="#DCD9D8"/>
<path fill-rule="evenodd" clip-rule="evenodd" d="M50.4806 43.1152C49.4992 43.0867 48.6127 42.9711 47.8364 42.7541C47.8892 42.4388 47.7904 42.1292 47.8697 41.9021C48.0861 41.7477 48.4487 41.7501 48.7757 41.7138C48.4929 41.5761 48.0956 41.5216 47.7693 41.6012C47.7616 41.3823 47.6626 41.2466 47.6025 41.0753C48.1543 40.8802 49.4567 39.6007 50.1894 40.0243C50.5385 40.2259 50.6869 41.3769 50.7139 41.9367C50.7365 42.4009 50.6714 42.8693 50.4806 43.1152Z" fill="#D33833"/>
<path d="M50.4806 43.1152C49.4992 43.0867 48.6127 42.9711 47.8364 42.7541C47.8892 42.4388 47.7904 42.1292 47.8697 41.9021C48.0861 41.7477 48.4487 41.7501 48.7757 41.7138C48.4929 41.5761 48.0956 41.5216 47.7693 41.6012C47.7616 41.3823 47.6626 41.2466 47.6025 41.0753C48.1543 40.8802 49.4567 39.6007 50.1894 40.0243C50.5385 40.2259 50.6869 41.3769 50.7139 41.9367C50.7365 42.4009 50.6714 42.8693 50.4806 43.1152Z" stroke="#D33833" stroke-width="2.145"/>
<path fill-rule="evenodd" clip-rule="evenodd" d="M45.7874 41.5253C45.7848 41.5989 45.7817 41.673 45.7787 41.7473C45.4723 41.9468 44.9777 41.9444 44.6414 42.112C45.1371 42.1335 45.5273 42.2518 45.865 42.4186C45.8575 42.604 45.8504 42.7892 45.8431 42.9745C45.2815 43.3556 44.7684 43.923 44.1072 44.2804C43.7945 44.4494 42.6973 44.8842 42.3647 44.8074C42.1765 44.7641 42.1595 44.5326 42.0843 44.3144C41.924 43.8472 41.555 43.1035 41.5228 42.4002C41.4818 41.5119 41.3913 40.0231 42.3572 40.2061C43.1365 40.3534 44.0428 40.7092 44.6461 41.0359C45.0148 41.2357 45.228 41.4827 45.7874 41.5253Z" fill="#D33833"/>
<path d="M45.7874 41.5253C45.7848 41.5989 45.7817 41.673 45.7787 41.7473C45.4723 41.9468 44.9777 41.9444 44.6414 42.112C45.1371 42.1335 45.5273 42.2518 45.865 42.4186C45.8575 42.604 45.8504 42.7892 45.8431 42.9745C45.2815 43.3556 44.7684 43.923 44.1072 44.2804C43.7945 44.4494 42.6973 44.8842 42.3647 44.8074C42.1765 44.7641 42.1595 44.5326 42.0843 44.3144C41.924 43.8472 41.555 43.1035 41.5228 42.4002C41.4818 41.5119 41.3913 40.0231 42.3572 40.2061C43.1365 40.3534 44.0428 40.7092 44.6461 41.0359C45.0148 41.2357 45.228 41.4827 45.7874 41.5253Z" stroke="#D33833" stroke-width="2.145"/>
<path fill-rule="evenodd" clip-rule="evenodd" d="M46.3454 42.5854C46.2596 42.1015 46.1606 41.9635 46.1989 41.5413C47.501 40.6809 47.7455 43.0193 46.3454 42.5854Z" fill="#D33833"/>
<path d="M46.3454 42.5854C46.2596 42.1015 46.1606 41.9635 46.1989 41.5413C47.501 40.6809 47.7455 43.0193 46.3454 42.5854Z" stroke="#D33833" stroke-width="2.145"/>
<path fill-rule="evenodd" clip-rule="evenodd" d="M48.2316 42.9775C48.2316 42.9775 47.8267 42.4042 48.1159 42.2323C48.4051 42.0603 48.6943 42.2325 48.8678 41.9458C49.0413 41.6592 48.8678 41.4872 48.9256 41.1433C48.9834 40.7994 49.2728 40.742 49.5618 40.6847C49.8509 40.6274 50.6608 40.5127 50.7763 40.7994L50.4293 39.7677L49.7353 39.5384L47.5376 40.7994L47.4219 41.4299V42.6909" fill="#EF3D3A"/>
<path fill-rule="evenodd" clip-rule="evenodd" d="M42.1588 44.8691C42.0893 43.9746 42.0158 43.0813 41.934 42.1877C41.8115 40.8533 42.2574 41.0861 43.4244 41.0861C43.6027 41.0861 44.522 41.2968 44.5877 41.43C44.9032 42.0685 44.0603 41.9266 44.951 42.4081C45.703 42.8144 47.0313 42.1614 46.7275 41.2581C46.5575 41.0572 45.8416 41.1955 45.585 41.0636C45.1332 40.8315 44.6814 40.5993 44.2296 40.3672C43.6547 40.0716 42.3262 39.6407 41.7133 40.0537C40.1604 41.1004 41.8113 43.7157 42.3653 44.8075" fill="#EF3D3A"/>
<path fill-rule="evenodd" clip-rule="evenodd" d="M43.6798 24.5613C42.1035 24.1974 41.3202 25.215 40.8424 26.2705C40.4158 26.168 40.5855 25.593 40.6933 25.3C40.9754 24.531 42.1125 23.5074 43.0415 23.6461C43.4413 23.7058 43.9824 24.0681 43.6798 24.5613Z" fill="#231F20"/>
<path fill-rule="evenodd" clip-rule="evenodd" d="M51.3604 26.3401C51.3852 26.3411 51.4104 26.342 51.4352 26.343C51.7914 27.0764 52.0997 27.8533 52.5491 28.5007C52.248 29.1956 50.2696 29.8105 50.3002 28.5628C50.728 28.3774 51.4666 28.5249 51.8459 28.2882C51.6266 27.6916 51.3101 27.1839 51.3604 26.3401Z" fill="#231F20"/>
<path fill-rule="evenodd" clip-rule="evenodd" d="M44.4866 26.359C44.8246 26.973 44.9346 27.6182 45.415 28.0823C45.6313 28.2912 46.0521 28.5459 45.8435 29.1269C45.7948 29.264 45.4386 29.5695 45.233 29.6295C44.4819 29.8493 42.7318 29.6749 43.3244 28.7469C43.9456 28.7756 44.7805 29.1467 45.2448 28.6998C44.8882 28.1349 44.2526 27.0174 44.4866 26.359Z" fill="#231F20"/>
<path fill-rule="evenodd" clip-rule="evenodd" d="M51.0794 32.6004C49.9485 33.3203 48.6875 34.1033 46.8345 33.9217C46.4386 33.5805 46.2877 32.8213 46.6723 32.3199C46.8725 32.6611 46.7468 33.2885 47.3047 33.3829C48.3561 33.5613 49.5798 32.7455 50.3361 32.4604C50.8051 31.6768 50.2957 31.3886 49.8732 30.8843C49.0083 29.851 47.8481 28.5703 47.8903 27.0234C48.2399 26.7721 48.2701 27.4068 48.3202 27.5224C48.7719 28.5699 49.9085 29.9096 50.738 30.8062C50.9417 31.027 51.277 31.2388 51.3143 31.3848C51.4219 31.8094 51.0345 32.318 51.0794 32.6004Z" fill="#231F20"/>
<path fill-rule="evenodd" clip-rule="evenodd" d="M36.1702 31.8424C35.8157 31.6419 35.7314 30.7588 35.3152 30.7337C34.7205 30.6979 34.829 31.8794 34.8313 32.5703C34.422 32.202 34.35 31.0679 34.6507 30.4855C34.308 30.3187 34.1549 30.6695 33.9648 30.7932C34.2092 29.0341 36.5613 29.9772 36.1702 31.8424Z" fill="#231F20"/>
<path fill-rule="evenodd" clip-rule="evenodd" d="M51.7988 33.3327C51.2724 34.3257 50.5278 35.4194 48.9831 35.4512C48.9517 35.1305 48.9276 34.6425 48.9848 34.4494C50.1657 34.3369 50.8947 33.7413 51.7988 33.3327Z" fill="#231F20"/>
<path fill-rule="evenodd" clip-rule="evenodd" d="M44.3984 33.9766C45.3836 34.49 47.1943 34.5452 48.5334 34.5064C48.6052 34.7971 48.6035 35.1564 48.6062 35.5109C46.8849 35.596 44.8498 35.1739 44.3984 33.9766Z" fill="#231F20"/>
<path fill-rule="evenodd" clip-rule="evenodd" d="M44.2113 34.9336C44.8926 36.6289 47.2342 36.4338 49.2088 36.387C49.1218 36.6071 48.9334 36.8671 48.6992 36.9611C48.0664 37.2163 46.3212 37.4099 45.4428 36.9476C44.8857 36.654 44.5277 35.9908 44.2225 35.602C44.0751 35.4142 43.3411 34.9347 44.2113 34.9336Z" fill="#231F20"/>
<path fill-rule="evenodd" clip-rule="evenodd" d="M50.9964 44.2854C50.1969 45.6425 49.4319 47.0364 48.4834 48.2334C48.8811 47.0746 49.0513 45.135 49.1113 43.6564C49.9432 43.2706 50.6556 43.7433 50.9964 44.2854Z" fill="#81B0C4"/>
<path fill-rule="evenodd" clip-rule="evenodd" d="M55.2986 49.1634C54.4035 49.341 53.7746 50.2032 52.9014 50.1478C53.3813 49.4773 54.2222 49.1947 55.2986 49.1634Z" fill="#231F20"/>
<path fill-rule="evenodd" clip-rule="evenodd" d="M55.6937 50.5504C54.9641 50.6268 54.1072 50.7438 53.3672 50.6835C53.7175 50.1532 55.0671 50.3362 55.6937 50.5504Z" fill="#231F20"/>
<path fill-rule="evenodd" clip-rule="evenodd" d="M55.9466 51.7482C55.1266 51.7659 54.1075 51.7497 53.3281 51.6848C53.7891 51.1941 55.4148 51.5027 55.9466 51.7482Z" fill="#231F20"/>
<path fill-rule="evenodd" clip-rule="evenodd" d="M49.4531 55.0239C49.5707 56.0445 49.979 57.0785 49.9278 58.1962C49.4744 58.3478 49.214 58.4803 48.6066 58.4795C48.5637 57.5296 48.4355 56.0774 48.4739 55.1719C48.7726 55.1915 49.2131 54.9604 49.4531 55.0239Z" fill="#DCD9D8"/>
<path fill-rule="evenodd" clip-rule="evenodd" d="M48.131 39.9829C47.7193 40.2492 47.3686 40.5818 46.9732 40.8662C46.0964 40.9092 45.6178 40.806 44.9736 40.307C44.9842 40.2669 45.0489 40.2848 45.0514 40.2356C45.99 40.6502 47.1832 40.0668 48.131 39.9829Z" fill="#F0D6B7"/>
<path fill-rule="evenodd" clip-rule="evenodd" d="M43.2041 46.3236C43.462 45.216 44.4725 44.6424 45.3901 44.0325C46.3373 45.2238 46.9133 46.7559 47.5476 48.2344C46.0489 47.7866 44.5176 47.0601 43.2041 46.3236Z" fill="#81B0C4"/>
<path fill-rule="evenodd" clip-rule="evenodd" d="M48.4745 55.172C48.4362 56.0776 48.5644 57.5297 48.6072 58.4796C49.2147 58.4804 49.4751 58.3479 49.9284 58.1964C49.9796 57.0787 49.5714 56.0446 49.4537 55.024C49.2138 54.9605 48.7733 55.1916 48.4745 55.172ZM39.0163 50.0222C39.4168 53.6716 39.997 56.7394 41.061 59.971C43.4226 60.6816 46.2695 60.7436 48.3569 60.1023C47.9736 58.2784 48.141 56.0578 47.9171 54.1114C47.7482 52.6485 47.8343 51.1765 47.6028 49.6839C45.0736 49.1624 41.4985 49.562 39.0163 50.0222ZM48.2009 49.7068C48.1796 51.2742 48.2717 52.8202 48.3924 54.3895C48.9997 54.2992 49.4118 54.2388 49.976 54.1163C49.7928 52.6055 49.8153 50.9055 49.4421 49.5691C49.0108 49.5732 48.631 49.5641 48.2009 49.7068ZM51.2814 49.4542C50.9932 49.3887 50.6577 49.4517 50.3823 49.457C50.5118 50.7346 50.8258 52.1444 50.9363 53.4855C51.3695 53.4989 51.601 53.2964 51.9574 53.2283C51.9764 52.0511 51.8536 50.4292 51.2814 49.4542ZM55.9458 53.6779C56.8489 53.4606 57.4167 52.3644 57.1641 51.2386C56.9946 50.482 56.6927 49.0573 56.3696 48.5733C56.1309 48.2153 55.4836 47.7466 54.9667 48.0746C54.1259 48.6082 52.6448 48.7631 52.0316 49.409C52.3391 50.4235 52.4345 51.817 52.5613 53.1025C53.6117 53.1674 54.9041 52.8161 55.7777 53.1889C55.1678 53.3847 54.3765 53.3863 53.8496 53.6716C54.2802 53.8777 55.2884 53.8361 55.9458 53.6779ZM47.5478 48.2349C46.9135 46.7564 46.3375 45.2243 45.3904 44.033C44.4727 44.6429 43.4622 45.2165 43.2043 46.3241C44.5178 47.0606 46.0491 47.7871 47.5478 48.2349ZM49.1114 43.6566C49.0514 45.1352 48.8812 47.0747 48.4835 48.2335C49.4321 47.0365 50.197 45.6427 50.9965 44.2856C50.6558 43.7434 49.9434 43.2707 49.1114 43.6566ZM47.3389 43.0324C46.9796 42.994 46.6746 43.4418 46.2074 43.2482C46.1003 43.3655 46.003 43.4925 45.8939 43.6071C46.9258 44.8396 47.3948 46.5884 48.1919 48.0369C48.6196 46.6455 48.5703 45.1211 48.6645 43.6024C48.0768 43.6394 47.7508 43.0757 47.3389 43.0324ZM46.1992 41.5415C46.1609 41.9637 46.2599 42.1018 46.3457 42.5856C47.7458 43.0195 47.5013 40.6811 46.1992 41.5415ZM44.6466 41.0363C44.0433 40.7096 43.1369 40.3538 42.3577 40.2065C41.3917 40.0234 41.4822 41.5123 41.5232 42.4006C41.5554 43.1039 41.9244 43.8476 42.0847 44.3148C42.16 44.533 42.1769 44.7645 42.3651 44.8078C42.6977 44.8846 43.795 44.4498 44.1076 44.2808C44.7689 43.9235 45.2819 43.356 45.8435 42.975C45.8508 42.7896 45.8579 42.6044 45.8654 42.419C45.5278 42.2522 45.1376 42.1339 44.6419 42.1124C44.9781 41.9448 45.4728 41.9472 45.7792 41.7477C45.7821 41.6734 45.7853 41.5993 45.7879 41.5257C45.2285 41.4831 45.0153 41.2361 44.6466 41.0363ZM38.884 39.9989C38.3833 40.5028 40.2884 41.1895 40.895 41.2265C40.8916 40.9077 41.0783 40.6071 41.0407 40.3784C40.3202 40.2531 39.3734 40.3358 38.884 39.9989ZM45.0522 40.2355C45.0498 40.2847 44.9851 40.2668 44.9745 40.3069C45.6187 40.8059 46.0972 40.9091 46.9741 40.8661C47.3695 40.5817 47.7201 40.2491 48.1318 39.9828C47.184 40.0667 45.9908 40.6501 45.0522 40.2355ZM50.7139 41.937C50.6868 41.3773 50.5385 40.2263 50.1894 40.0247C49.4567 39.6009 48.1542 40.8805 47.6025 41.0757C47.6625 41.247 47.7616 41.3827 47.7692 41.6016C48.0956 41.5219 48.4929 41.5764 48.7757 41.7142C48.4487 41.7505 48.086 41.7481 47.8697 41.9025C47.7904 42.1296 47.8891 42.4391 47.8364 42.7545C48.6126 42.9715 49.4992 43.0871 50.4805 43.1156C50.6714 42.8697 50.7364 42.4013 50.7139 41.937ZM38.041 40.4863C37.8838 40.3752 36.8201 39.0035 36.6744 39.0604C34.7496 39.8127 32.9499 41.1135 31.3416 42.3439C32.875 45.6048 33.4939 49.6 33.6033 53.4507C35.3599 54.265 36.9027 55.4388 39.2864 55.5614C39.0105 53.6272 38.7587 51.9016 38.6022 50.0806C38.0033 49.8304 37.144 50.092 36.5835 50.0031C36.5788 49.3336 37.4395 49.7099 37.5112 49.2598C37.5652 48.9193 37.0376 48.8935 37.2094 48.3573C37.6476 48.5152 37.8777 48.8639 38.345 48.9948C38.772 48.069 38.339 46.4309 38.4005 45.6571C38.4122 45.5118 38.4737 44.8522 38.8021 44.9679C39.0927 45.0704 38.7855 46.7222 38.8174 47.4546C38.8464 48.1293 38.7351 48.7822 39.0108 49.2058C41.3141 48.895 43.6547 48.6942 46.1468 48.6264C45.5986 48.3933 44.9472 48.1726 44.2331 47.7737C43.846 47.5574 42.6258 47.1074 42.5141 46.743C42.3358 46.1623 42.9817 45.853 43.0922 45.3552C41.9295 45.9836 41.7027 44.7528 41.4277 43.8808C41.1785 43.091 41.0366 42.501 40.9755 42.0455C39.9739 41.5723 38.9031 41.0931 38.041 40.4863ZM49.6966 39.2263C51.3003 38.4556 51.5894 42.1068 50.9608 43.2829C51.0579 43.6337 51.3921 43.768 51.5285 44.0834C50.6335 45.6722 49.6396 47.1553 48.7264 48.7255C49.4057 48.3064 50.3759 48.6505 51.1752 48.3368C51.4674 48.2223 51.6789 47.5594 51.9001 47.0291C52.5086 45.5701 53.1474 43.7307 53.4316 42.3384C53.4958 42.0211 53.6707 41.3299 53.6315 41.0475C53.5615 40.542 52.8695 40.1671 52.5174 39.8545C51.8689 39.2771 51.4605 38.7689 50.784 38.229C50.5097 38.6303 49.921 38.9 49.6966 39.2263ZM34.3734 25.1316C33.6093 25.9649 33.7692 27.5262 33.8618 28.637C35.243 27.7759 37.0762 28.7051 37.059 30.1698C37.7184 30.1525 37.3053 29.3536 37.186 28.8389C36.7962 27.1579 37.8428 25.3315 37.2335 23.7943C36.0505 23.8832 35.0786 24.3621 34.3734 25.1316ZM39.8411 20.2952C38.1112 20.7811 35.8941 22.0269 35.1832 23.5671C35.7336 23.4878 36.1158 23.2127 36.6588 23.1787C36.864 23.1654 37.1328 23.264 37.3687 23.2058C37.8387 23.0903 38.2354 22.0458 38.59 21.6572C38.9356 21.2777 39.3511 21.1156 39.6354 20.7696C39.818 20.6822 40.0881 20.6882 40.0985 20.4164C40.0193 20.3325 39.936 20.2685 39.8411 20.2952ZM48.8463 20.7522C47.0508 19.7482 44.0115 18.9929 42.1015 19.9366C40.5604 20.6982 38.4771 21.9583 37.7669 23.5551C38.4304 25.096 37.5703 26.5079 37.5154 28.0723C37.4863 28.9048 37.9109 29.6314 37.9434 30.5376C37.7164 30.9089 37.0227 30.9546 36.5425 30.9292C36.3809 30.1275 36.0979 29.2265 35.265 29.136C34.0864 29.0083 33.2247 29.975 33.1711 30.9852C33.1078 32.1733 34.0918 34.1423 35.4866 34.0056C36.0254 33.9528 36.1578 33.4175 36.7448 33.423C37.063 34.0522 36.254 34.2498 36.1708 34.6998C36.1491 34.816 36.2379 35.2704 36.2895 35.4834C36.5429 36.5208 37.1076 37.8634 37.6635 38.6532C38.369 39.655 39.7551 39.806 41.2464 39.9042C41.5127 39.3355 42.4939 39.3823 43.1332 39.531C42.367 39.2303 41.6547 38.5012 41.0644 37.8559C40.3863 37.1154 39.6994 36.3212 39.6647 35.3534C40.9461 37.1153 42.0048 38.6539 44.3348 39.4289C46.0979 40.0149 48.157 39.1603 49.5117 38.2175C50.0738 37.8256 50.4094 37.2038 50.809 36.6346C52.304 34.5033 53.0017 31.461 52.8483 28.5124C52.7851 27.2963 52.7879 26.0844 52.3762 25.2662C51.9459 24.4107 50.4906 23.6454 49.6387 24.4192C49.4808 23.5872 50.3471 23.0727 51.3647 23.3721C50.6391 22.4441 49.8776 21.3289 48.8463 20.7522ZM52.1916 48.1905C53.5947 47.4992 56.2163 46.3298 57.0959 48.1931C57.4205 48.8799 57.8014 50.0409 57.9695 50.7499C58.207 51.7501 57.712 53.8525 56.6747 54.1881C55.7584 54.4846 54.6893 54.4665 53.5857 54.2468C53.4557 54.1396 53.311 53.9529 53.2099 53.7583C52.4218 53.728 51.6839 53.8002 51.0614 54.1212C51.1204 54.6988 50.7262 54.7915 50.3566 54.9105C50.0827 55.9871 50.9047 57.393 50.708 58.3747C50.5676 59.0741 49.6994 59.1822 49.0613 59.3131C49.0405 59.7017 49.0892 60.0261 49.1328 60.3549C48.9869 60.8878 48.3324 61.1911 47.7123 61.2654C45.6721 61.5086 42.5744 61.6178 40.612 60.9184C40.0644 59.5872 39.633 57.968 39.1769 56.4479C37.263 56.6505 35.715 55.6295 34.2557 54.9605C33.7505 54.7284 33.0515 54.6005 32.8628 54.2019C32.6798 53.816 32.7547 53.0764 32.7093 52.3778C32.5937 50.5934 32.4948 48.8723 32.0193 47.0453C31.8058 46.2254 31.4338 45.502 31.1742 44.712C30.9343 43.9799 30.5151 43.075 30.4058 42.3449C30.2437 41.2628 31.2718 41.2026 31.9292 40.7337C32.9454 40.0086 33.7431 39.6076 34.8438 38.9531C35.1698 38.7593 36.1528 38.2687 36.2647 38.0428C36.487 37.5948 35.8831 36.9632 35.7217 36.6121C35.4663 36.0569 35.3331 35.5852 35.2965 35.0374C34.3732 34.8927 33.6733 34.3482 33.2506 33.7341C32.5512 32.7179 32.0662 30.8377 32.6713 29.4076C32.7187 29.2949 32.9554 29.0734 32.9903 28.9005C33.0592 28.5598 32.8607 28.1069 32.8484 27.7446C32.7848 25.8857 33.1657 24.2842 34.4283 23.7236C34.9409 21.6999 36.7755 21.027 38.5039 20.0212C39.15 19.6453 39.8622 19.4051 40.5978 19.1369C43.2364 18.1744 47.2848 18.3557 49.4747 19.9972C50.4033 20.6932 51.8876 22.1629 52.4185 23.227C53.8208 26.0362 53.7212 30.7311 52.7404 34.1483C52.6085 34.6071 52.4173 35.2815 52.1503 35.8326C51.9641 36.2175 51.3855 36.9875 51.4558 37.3273C51.5281 37.6786 52.7751 38.6169 53.0424 38.8725C53.5239 39.3328 54.4386 39.9437 54.5127 40.5246C54.5923 41.1428 54.2379 41.9884 54.0583 42.585C53.458 44.5757 52.8722 46.4158 52.1916 48.1905Z" fill="#231F20"/>
<path fill-rule="evenodd" clip-rule="evenodd" d="M42.8303 34.4103C42.9064 34.3099 43.3249 34.1574 43.9105 34.4368C43.9105 34.4368 43.2165 34.5515 43.2742 35.6982L42.985 35.6408C42.985 35.6408 42.6862 34.601 42.8303 34.4103Z" fill="#F7E4CD"/>
<path fill-rule="evenodd" clip-rule="evenodd" d="M47.9009 44.2659C47.9009 44.4399 47.7584 44.5811 47.5827 44.5811C47.4071 44.5811 47.2646 44.4399 47.2646 44.2659C47.2646 44.0919 47.4071 43.9505 47.5827 43.9505C47.7584 43.9505 47.9009 44.0919 47.9009 44.2659Z" fill="#1D1919"/>
<path fill-rule="evenodd" clip-rule="evenodd" d="M48.2192 45.7288C48.2192 45.9028 48.0768 46.0439 47.901 46.0439C47.7255 46.0439 47.583 45.9028 47.583 45.7288C47.583 45.5548 47.7255 45.4134 47.901 45.4134C48.0768 45.4134 48.2192 45.5548 48.2192 45.7288Z" fill="#1D1919"/>
</g>
</g>
<defs>
<clipPath id="clip0_10906_28685">
<rect width="42.9" height="42.9" fill="white" transform="translate(18.5508 18.5508)"/>
</clipPath>
<clipPath id="clip1_10906_28685">
<rect width="42.9" height="42.9" fill="white" transform="translate(18.5508 18.5508)"/>
</clipPath>
</defs>
</svg>
