<svg width="141" height="51" viewBox="0 0 141 51" fill="none" xmlns="http://www.w3.org/2000/svg">
<g clip-path="url(#clip0_5224_19472)">
<path fill-rule="evenodd" clip-rule="evenodd" d="M45.9363 24.8805C45.9363 34.7867 38.0145 42.8174 28.2425 42.8174C18.4706 42.8174 10.5488 34.7867 10.5488 24.8805C10.5488 14.9741 18.4706 6.94334 28.2425 6.94334C38.0145 6.94334 45.9363 14.9741 45.9363 24.8805Z" fill="#D33833"/>
<path d="M11.2699 29.3232C11.2699 29.3232 9.98904 10.6181 27.3796 10.0836L26.1664 8.07942L16.7298 11.2193L14.0335 14.2922L11.6744 18.7683L10.3262 23.979L10.7306 27.4528" fill="#EF3D3A"/>
<path d="M16.1248 12.6442C13.0203 15.7923 11.0993 20.1389 11.0993 24.9474C11.0993 29.7549 13.0203 34.1021 16.1248 37.2496C19.2307 40.3971 23.511 42.3393 28.2432 42.3393C32.9755 42.3393 37.2562 40.3971 40.3618 37.2496C43.466 34.1021 45.3874 29.7549 45.3874 24.9474C45.3874 20.1389 43.466 15.7923 40.3618 12.6442C37.2562 9.49733 32.9755 7.55513 28.2432 7.55473C23.511 7.55513 19.2307 9.49733 16.1248 12.6442ZM15.3389 38.011C12.0397 34.6669 10 30.0453 10 24.9474C10 19.8487 12.0397 15.2276 15.3389 11.8833C18.6374 8.53836 23.2034 6.46508 28.2432 6.46568C33.2831 6.46508 37.8495 8.53836 41.1474 11.8833C44.4469 15.2276 46.4869 19.8491 46.4865 24.9474C46.4869 30.0453 44.4469 34.6669 41.1474 38.011C37.8495 41.3557 33.2831 43.4287 28.2432 43.4287C23.2034 43.4287 18.6374 41.3557 15.3389 38.011Z" fill="#231F20"/>
<path fill-rule="evenodd" clip-rule="evenodd" d="M35.6921 24.9802L32.9958 25.3811L29.3558 25.7819L26.9966 25.8486L24.7049 25.7819L22.9523 25.2474L21.4019 23.5773L20.1886 20.1703L19.919 19.4354L18.3013 18.9011L17.3576 17.3645L16.6836 15.16L17.4252 13.2226L19.1776 12.6213L20.5931 13.2895L21.2672 14.7592L22.0761 14.6255L22.3456 14.2916L22.0761 12.755L22.0086 10.8176L22.413 8.14551L22.3972 6.61917L23.6263 4.67175L25.7833 3.13518L29.5581 1.53187L33.7371 2.13311L37.377 4.73849L39.0622 7.4106L40.1406 9.34799L40.4102 14.1579L39.6013 18.2999L38.1185 21.974L36.703 23.9114" fill="#F0D6B7"/>
<path fill-rule="evenodd" clip-rule="evenodd" d="M33.3989 36.5376L23.7598 36.9384V38.5418L24.5687 44.1533L24.1642 44.6211L17.4239 42.3496L16.9519 41.548L16.2779 33.9992L14.7278 29.4564L14.3906 28.3876L19.7829 24.7134L21.4682 24.0452L22.951 25.849L24.2316 26.9847L25.7147 27.4523L26.3886 27.6527L27.1975 31.1265L27.8041 31.8613L29.3545 31.3269L28.2759 33.3979L34.1402 36.1368L33.3989 36.5376Z" fill="#335061"/>
<path fill-rule="evenodd" clip-rule="evenodd" d="M17.4241 13.2222L19.1764 12.621L20.592 13.2892L21.2661 14.7588L22.075 14.6251L22.2772 13.8235L21.8728 12.2871L22.2772 8.61271L21.9401 6.60858L23.1534 5.20568L25.7822 3.13481L25.0407 2.13274L21.3334 3.93646L19.7831 5.13894L18.9069 7.0094L17.5587 8.81313L17.1543 10.9509L17.4241 13.2222Z" fill="#6D6B6D"/>
<path fill-rule="evenodd" clip-rule="evenodd" d="M20.1889 6.94347C20.1889 6.94347 21.1999 4.47177 25.2442 3.26929C29.2885 2.06681 25.4464 2.4007 25.4464 2.4007L21.0653 4.07095L19.38 5.74099L18.6387 7.07715L20.1889 6.94347Z" fill="#DCD9D8"/>
<path fill-rule="evenodd" clip-rule="evenodd" d="M18.1654 12.7551C18.1654 12.7551 16.7499 8.07864 22.1423 7.41067L21.9401 6.60901L18.2329 7.4776L17.1543 10.9514L17.4241 13.2227L18.1654 12.7551Z" fill="#DCD9D8"/>
<path fill-rule="evenodd" clip-rule="evenodd" d="M20.3223 18.9678L21.2048 18.1203C21.2048 18.1203 21.6032 18.1662 21.6705 18.6337C21.7378 19.1015 21.94 23.3102 24.8384 25.5817C25.1028 25.7889 22.6816 25.2474 22.6816 25.2474L20.5245 21.9073" fill="#F7E4CD"/>
<path fill-rule="evenodd" clip-rule="evenodd" d="M32.726 17.6982C32.726 17.6982 32.8831 15.6733 33.4333 15.829C33.9836 15.9847 33.9836 16.53 33.9836 16.53C33.9836 16.53 32.6473 17.3868 32.726 17.6982Z" fill="#F7E4CD"/>
<path d="M38.3205 10.2839C38.3205 10.2839 37.2095 10.5163 37.1072 11.4863C37.0049 12.4565 38.3205 11.6867 38.5227 11.62" fill="#F7E4CD"/>
<path d="M30.1647 10.3504C30.1647 10.3504 28.6816 10.5508 28.6816 11.4859C28.6816 12.4212 30.3669 12.3545 30.8387 11.9537" fill="#F7E4CD"/>
<path fill-rule="evenodd" clip-rule="evenodd" d="M20.9964 14.6929C20.9964 14.6929 18.4349 13.1563 18.1654 14.6262C17.8958 16.0958 17.289 17.1648 18.5698 18.7012L17.6936 18.434L16.8847 16.3631L16.6152 14.359L18.1654 12.7555L19.918 12.8892L20.929 13.6908L20.9964 14.6929Z" fill="#F7E4CD"/>
<path fill-rule="evenodd" clip-rule="evenodd" d="M22.2111 10.4834C22.2111 10.4834 23.357 4.60467 29.1539 3.46893C33.9265 2.534 36.4335 3.66934 37.3773 4.73815C37.3773 4.73815 33.1307 -0.271988 29.0864 1.26438C25.0421 2.80095 22.0764 5.60674 22.1437 7.41026C22.2585 10.4822 22.2111 10.4834 22.2111 10.4834Z" fill="#F7E4CD"/>
<path fill-rule="evenodd" clip-rule="evenodd" d="M37.8483 5.40678C37.8483 5.40678 35.8937 5.34004 35.8262 7.07703C35.8262 7.07703 35.826 7.34418 35.9608 7.61133C35.9608 7.61133 37.5114 5.87435 38.455 6.80967" fill="#F7E4CD"/>
<path fill-rule="evenodd" clip-rule="evenodd" d="M29.2886 7.79165C29.2886 7.79165 28.9521 5.12555 26.6586 6.67555C25.1757 7.67761 25.3106 9.08051 25.5801 9.34766C25.8497 9.61501 25.7764 10.1531 25.9817 9.78376C26.1868 9.4144 26.1192 8.21192 26.8608 7.87803C27.6023 7.54394 28.8178 7.17077 29.2886 7.79165Z" fill="#F7E4CD"/>
<path fill-rule="evenodd" clip-rule="evenodd" d="M22.951 25.8487L16.615 28.6544C16.615 28.6544 19.2438 39.0092 17.8956 42.2158L16.9519 41.8819L16.8845 37.9404L15.1322 30.4584L14.3906 28.3873L20.9962 23.9784L22.951 25.8487Z" fill="#49728B"/>
<path fill-rule="evenodd" clip-rule="evenodd" d="M23.6034 31.5756L24.5024 32.6626V36.6709H23.4237C23.4237 36.6709 23.2891 33.8651 23.2891 33.531C23.2891 33.1969 23.4237 31.9945 23.4237 31.9945" fill="#49728B"/>
<path fill-rule="evenodd" clip-rule="evenodd" d="M23.625 37.2721L20.5918 37.4055L21.4682 38.0068L23.625 38.3408" fill="#49728B"/>
<path fill-rule="evenodd" clip-rule="evenodd" d="M34.0059 36.6044L36.4998 36.5376L37.1064 42.6837L34.545 43.0176L34.0059 36.6044Z" fill="#335061"/>
<path fill-rule="evenodd" clip-rule="evenodd" d="M34.6797 36.6045L38.4544 36.4041C38.4544 36.4041 40.0046 32.5294 40.0046 32.329C40.0046 32.1286 41.3528 26.7175 41.3528 26.7175L38.3196 23.5778L37.7129 23.0433L36.0952 24.6466V30.8594L34.6797 36.6045Z" fill="#335061"/>
<path fill-rule="evenodd" clip-rule="evenodd" d="M36.3649 36.1363L34.0059 36.6039L34.3427 38.4745C35.2189 38.8754 36.702 37.8063 36.702 37.8063" fill="#49728B"/>
<path fill-rule="evenodd" clip-rule="evenodd" d="M36.4336 24.4462L41.1519 27.9199L41.2868 26.3166L37.7142 23.0433L36.4336 24.4462Z" fill="#49728B"/>
<path fill-rule="evenodd" clip-rule="evenodd" d="M25.9642 49.7656L24.5686 44.1532L23.8745 40.0121L23.7598 36.9383L30.0759 36.6051L34.0055 36.6044L33.6482 43.6195L34.2548 49.0307L34.1875 50.0328L29.0648 50.4336L25.9642 49.7656Z" fill="white"/>
<path fill-rule="evenodd" clip-rule="evenodd" d="M33.1303 36.5377C33.1303 36.5377 32.7935 43.4855 33.8045 48.4289C33.8045 48.4289 31.7824 49.6983 28.8164 50.0322L34.4785 49.8318L35.1525 49.431L34.3436 38.4752L34.1414 36.1368" fill="#DCD9D8"/>
<path fill-rule="evenodd" clip-rule="evenodd" d="M37.2215 42.1494L39.8503 41.4145L44.8381 41.1473L45.5797 38.8761L44.2315 34.9345L42.6813 34.7341L40.5243 35.4021L38.4548 36.4036L37.3562 36.2038L36.5 36.5372" fill="white"/>
<path fill-rule="evenodd" clip-rule="evenodd" d="M37.1738 40.8129C37.1738 40.8129 38.9262 40.0114 39.196 40.0782L38.4547 36.4038L39.3309 36.0699C39.3309 36.0699 39.9375 39.5437 39.9375 39.9445C39.9375 39.9445 43.712 40.1449 44.0491 40.1449C44.0491 40.1449 44.858 38.6084 44.6558 37.0051L45.3973 39.1428L45.4646 40.3453L44.3862 41.9486L43.1729 42.2158L41.1508 42.149L40.4768 41.2807L38.1176 41.6146L37.376 41.8819" fill="#DCD9D8"/>
<path d="M34.5254 36.0703L33.0426 32.3292L31.4922 30.1246C31.4922 30.1246 31.8291 29.1893 32.301 29.1893C32.773 29.1893 33.8514 29.1893 33.8514 29.1893L35.3343 29.7238L35.1996 32.1955L34.5254 36.0703Z" fill="white"/>
<path fill-rule="evenodd" clip-rule="evenodd" d="M34.8146 34.8006C34.8146 34.8006 32.9271 31.1933 32.9271 30.6588C32.9271 30.6588 33.264 29.8572 33.736 30.0576C34.208 30.258 35.219 30.7923 35.219 30.7923V29.5231L32.9271 29.0553L31.377 29.2557L34.0058 35.4018L34.5449 35.4688" fill="#DCD9D8"/>
<path d="M26.5711 25.9834L24.7038 25.7822L22.9512 25.2477V25.8489L23.8075 26.7848L26.5037 27.9873" fill="white"/>
<path fill-rule="evenodd" clip-rule="evenodd" d="M23.5596 26.1833C23.5596 26.1833 25.6493 27.0519 26.3234 26.8515L26.3904 27.6523L24.5034 27.2523L23.3574 26.4507L23.5596 26.1833Z" fill="#DCD9D8"/>
<path fill-rule="evenodd" clip-rule="evenodd" d="M37.2137 29.417C36.07 29.3837 35.0367 29.249 34.132 28.9961C34.1934 28.6286 34.0784 28.2678 34.1708 28.0031C34.4229 27.8231 34.8456 27.8259 35.2268 27.7836C34.8971 27.6231 34.4341 27.5596 34.0537 27.6524C34.0448 27.3972 33.9293 27.2391 33.8594 27.0395C34.5024 26.812 36.0204 25.3207 36.8744 25.8146C37.2813 26.0494 37.4542 27.391 37.4857 28.0434C37.512 28.5845 37.4362 29.1304 37.2137 29.417Z" fill="#D33833"/>
<path d="M37.2137 29.417C36.07 29.3837 35.0367 29.249 34.132 28.9961C34.1934 28.6286 34.0784 28.2678 34.1708 28.0031C34.4229 27.8231 34.8456 27.8259 35.2268 27.7836C34.8971 27.6231 34.4341 27.5596 34.0537 27.6524C34.0448 27.3972 33.9293 27.2391 33.8594 27.0395C34.5024 26.812 36.0204 25.3207 36.8744 25.8146C37.2813 26.0494 37.4542 27.391 37.4857 28.0434C37.512 28.5845 37.4362 29.1304 37.2137 29.417Z" stroke="#D33833" stroke-width="2.5"/>
<path fill-rule="evenodd" clip-rule="evenodd" d="M31.745 27.5636C31.742 27.6494 31.7384 27.7358 31.7349 27.8224C31.3778 28.0548 30.8013 28.052 30.4094 28.2474C30.9871 28.2725 31.4419 28.4104 31.8354 28.6048C31.8267 28.8208 31.8184 29.0367 31.8099 29.2527C31.1554 29.6968 30.5574 30.3582 29.7867 30.7747C29.4223 30.9716 28.1435 31.4785 27.7558 31.3889C27.5365 31.3384 27.5167 31.0686 27.429 30.8144C27.2422 30.2698 26.8121 29.403 26.7746 28.5833C26.7268 27.548 26.6214 25.8128 27.7471 26.0261C28.6554 26.1978 29.7117 26.6125 30.4149 26.9933C30.8446 27.2261 31.0931 27.5139 31.745 27.5636Z" fill="#D33833"/>
<path d="M31.745 27.5636C31.742 27.6494 31.7384 27.7358 31.7349 27.8224C31.3778 28.0548 30.8013 28.052 30.4094 28.2474C30.9871 28.2725 31.4419 28.4104 31.8354 28.6048C31.8267 28.8208 31.8184 29.0367 31.8099 29.2527C31.1554 29.6968 30.5574 30.3582 29.7867 30.7747C29.4223 30.9716 28.1435 31.4785 27.7558 31.3889C27.5365 31.3384 27.5167 31.0686 27.429 30.8144C27.2422 30.2698 26.8121 29.403 26.7746 28.5833C26.7268 27.548 26.6214 25.8128 27.7471 26.0261C28.6554 26.1978 29.7117 26.6125 30.4149 26.9933C30.8446 27.2261 31.0931 27.5139 31.745 27.5636Z" stroke="#D33833" stroke-width="2.5"/>
<path fill-rule="evenodd" clip-rule="evenodd" d="M32.3954 28.7991C32.2955 28.2351 32.18 28.0742 32.2247 27.5822C33.7424 26.5793 34.0273 29.3048 32.3954 28.7991Z" fill="#D33833"/>
<path d="M32.3954 28.7991C32.2955 28.2351 32.18 28.0742 32.2247 27.5822C33.7424 26.5793 34.0273 29.3048 32.3954 28.7991Z" stroke="#D33833" stroke-width="2.5"/>
<path fill-rule="evenodd" clip-rule="evenodd" d="M34.5922 29.2568C34.5922 29.2568 34.1202 28.5887 34.4573 28.3882C34.7944 28.1878 35.1315 28.3884 35.3337 28.0544C35.5359 27.7203 35.3337 27.5199 35.401 27.119C35.4684 26.7182 35.8057 26.6513 36.1426 26.5845C36.4794 26.5178 37.4234 26.3841 37.5581 26.7182L37.1536 25.5157L36.3448 25.2486L33.7833 26.7182L33.6484 27.4531V28.9227" fill="#EF3D3A"/>
<path fill-rule="evenodd" clip-rule="evenodd" d="M27.5156 31.4609C27.4347 30.4184 27.349 29.3772 27.2536 28.3357C27.111 26.7805 27.6306 27.0518 28.9908 27.0518C29.1985 27.0518 30.27 27.2973 30.3466 27.4526C30.7142 28.1968 29.7319 28.0314 30.7701 28.5926C31.6465 29.0662 33.1946 28.305 32.8405 27.2522C32.6424 27.0182 31.808 27.1793 31.509 27.0256C30.9824 26.755 30.4558 26.4845 29.9292 26.2139C29.2592 25.8694 27.7107 25.3671 26.9964 25.8485C25.1865 27.0685 27.1107 30.1165 27.7563 31.3891" fill="#EF3D3A"/>
<path fill-rule="evenodd" clip-rule="evenodd" d="M29.2896 7.79207C27.4524 7.368 26.5395 8.55404 25.9827 9.78418C25.4854 9.66473 25.6833 8.99455 25.8089 8.65305C26.1377 7.7568 27.4629 6.56373 28.5457 6.72547C29.0117 6.79501 29.6423 7.21728 29.2896 7.79207Z" fill="#231F20"/>
<path fill-rule="evenodd" clip-rule="evenodd" d="M38.24 9.86502C38.269 9.86623 38.2983 9.86723 38.3272 9.86843C38.7424 10.7232 39.1017 11.6287 39.6254 12.3832C39.2746 13.1931 36.9687 13.9098 37.0043 12.4556C37.503 12.2395 38.3638 12.4115 38.8058 12.1355C38.5502 11.4403 38.1814 10.8485 38.24 9.86502Z" fill="#231F20"/>
<path fill-rule="evenodd" clip-rule="evenodd" d="M30.2291 9.88754C30.623 10.6032 30.7512 11.3552 31.3112 11.8961C31.5633 12.1396 32.0537 12.4364 31.8106 13.1136C31.7538 13.2733 31.3387 13.6295 31.099 13.6994C30.2236 13.9555 28.1839 13.7523 28.8746 12.6707C29.5986 12.7042 30.5717 13.1366 31.1128 12.6158C30.6972 11.9574 29.9564 10.6549 30.2291 9.88754Z" fill="#231F20"/>
<path fill-rule="evenodd" clip-rule="evenodd" d="M37.9121 17.1615C36.5941 18.0006 35.1244 18.9131 32.9647 18.7015C32.5033 18.3038 32.3273 17.419 32.7757 16.8346C33.009 17.2322 32.8624 17.9635 33.5127 18.0736C34.7382 18.2814 36.1644 17.3306 37.0458 16.9983C37.5924 16.0851 36.9987 15.7492 36.5063 15.1614C35.4983 13.9571 34.1461 12.4644 34.1952 10.6615C34.6027 10.3687 34.6379 11.1084 34.6963 11.2431C35.2227 12.464 36.5474 14.0254 37.5142 15.0704C37.7516 15.3277 38.1424 15.5746 38.1859 15.7448C38.3113 16.2396 37.8597 16.8324 37.9121 17.1615Z" fill="#231F20"/>
<path fill-rule="evenodd" clip-rule="evenodd" d="M20.5352 16.2786C20.1221 16.0449 20.0237 15.0156 19.5387 14.9863C18.8456 14.9447 18.972 16.3217 18.9747 17.127C18.4976 16.6977 18.4137 15.3759 18.7642 14.6971C18.3648 14.5027 18.1864 14.9116 17.9648 15.0557C18.2496 13.0054 20.991 14.1047 20.5352 16.2786Z" fill="#231F20"/>
<path fill-rule="evenodd" clip-rule="evenodd" d="M38.7517 18.0153C38.1382 19.1727 37.2703 20.4473 35.47 20.4844C35.4334 20.1106 35.4053 19.5418 35.472 19.3168C36.8483 19.1857 37.698 18.4915 38.7517 18.0153Z" fill="#231F20"/>
<path fill-rule="evenodd" clip-rule="evenodd" d="M30.125 18.7658C31.2733 19.3642 33.3836 19.4286 34.9443 19.3833C35.028 19.7222 35.026 20.1408 35.0292 20.5541C33.023 20.6533 30.651 20.1613 30.125 18.7658Z" fill="#231F20"/>
<path fill-rule="evenodd" clip-rule="evenodd" d="M29.9075 19.8811C30.7015 21.857 33.4306 21.6295 35.732 21.575C35.6307 21.8316 35.4111 22.1346 35.1381 22.2442C34.4007 22.5416 32.3666 22.7673 31.3428 22.2284C30.6934 21.8863 30.2763 21.1133 29.9205 20.6601C29.7487 20.4413 28.8932 19.8823 29.9075 19.8811Z" fill="#231F20"/>
<path fill-rule="evenodd" clip-rule="evenodd" d="M37.8156 30.7805C36.8838 32.3622 35.9922 33.9867 34.8867 35.3818C35.3502 34.0312 35.5486 31.7707 35.6185 30.0474C36.5882 29.5977 37.4185 30.1486 37.8156 30.7805Z" fill="#81B0C4"/>
<path fill-rule="evenodd" clip-rule="evenodd" d="M42.8292 36.4659C41.7859 36.6729 41.0529 37.6777 40.0352 37.6132C40.5945 36.8318 41.5746 36.5023 42.8292 36.4659Z" fill="#231F20"/>
<path fill-rule="evenodd" clip-rule="evenodd" d="M43.2896 38.0832C42.4393 38.1722 41.4406 38.3087 40.5781 38.2384C40.9864 37.6203 42.5594 37.8336 43.2896 38.0832Z" fill="#231F20"/>
<path fill-rule="evenodd" clip-rule="evenodd" d="M43.585 39.4786C42.6294 39.4991 41.4416 39.4802 40.5332 39.4047C41.0705 38.8327 42.9652 39.1925 43.585 39.4786Z" fill="#231F20"/>
<path fill-rule="evenodd" clip-rule="evenodd" d="M36.0187 43.2967C36.1558 44.4862 36.6316 45.6914 36.5719 46.9941C36.0436 47.1707 35.74 47.3252 35.0321 47.3242C34.9821 46.2171 34.8327 44.5246 34.8774 43.4692C35.2256 43.4921 35.739 43.2227 36.0187 43.2967Z" fill="#DCD9D8"/>
<path fill-rule="evenodd" clip-rule="evenodd" d="M34.4768 25.7659C33.9969 26.0763 33.5883 26.4639 33.1274 26.7954C32.1054 26.8455 31.5477 26.7253 30.7969 26.1437C30.8092 26.097 30.8846 26.1178 30.8875 26.0605C31.9815 26.5437 33.3721 25.8637 34.4768 25.7659Z" fill="#F0D6B7"/>
<path fill-rule="evenodd" clip-rule="evenodd" d="M28.7344 33.1568C29.0349 31.8659 30.2127 31.1974 31.2822 30.4865C32.3861 31.875 33.0574 33.6606 33.7967 35.3838C32.05 34.8619 30.2652 34.0152 28.7344 33.1568Z" fill="#81B0C4"/>
<path fill-rule="evenodd" clip-rule="evenodd" d="M34.8759 43.4688C34.8312 44.5242 34.9807 46.2166 35.0306 47.3238C35.7386 47.3247 36.0421 47.1702 36.5705 46.9936C36.6302 45.6909 36.1543 44.4857 36.0172 43.2962C35.7376 43.2223 35.2242 43.4916 34.8759 43.4688ZM23.8524 37.4666C24.3192 41.72 24.9953 45.2955 26.2355 49.062C28.9879 49.8902 32.306 49.9624 34.7388 49.215C34.2921 47.0892 34.4873 44.5011 34.2262 42.2326C34.0295 40.5276 34.1298 38.812 33.86 37.0724C30.9121 36.4646 26.7454 36.9303 23.8524 37.4666ZM34.557 37.0991C34.5322 38.9258 34.6395 40.7277 34.7803 42.5567C35.488 42.4514 35.9683 42.3811 36.6259 42.2383C36.4124 40.4774 36.4387 38.4961 36.0037 36.9385C35.501 36.9433 35.0583 36.9327 34.557 37.0991ZM38.1474 36.8046C37.8115 36.7283 37.4204 36.8017 37.0995 36.8078C37.2504 38.2969 37.6164 39.9401 37.7452 41.5032C38.2501 41.5187 38.5199 41.2827 38.9352 41.2033C38.9574 39.8313 38.8143 37.941 38.1474 36.8046ZM43.5837 41.7274C44.6363 41.474 45.2981 40.1964 45.0037 38.8843C44.8061 38.0025 44.4543 36.342 44.0777 35.7779C43.7995 35.3607 43.045 34.8144 42.4426 35.1967C41.4627 35.8186 39.7364 35.9992 39.0218 36.7519C39.3801 37.9344 39.4913 39.5585 39.6391 41.0568C40.8633 41.1324 42.3696 40.7229 43.3878 41.1575C42.677 41.3856 41.7547 41.3874 41.1406 41.72C41.6425 41.9603 42.8175 41.9117 43.5837 41.7274ZM33.7959 35.3835C33.0566 33.6603 32.3853 31.8747 31.2814 30.4862C30.2119 31.1971 29.0341 31.8656 28.7336 33.1565C30.2644 34.0149 32.0492 34.8616 33.7959 35.3835ZM35.6183 30.0475C35.5483 31.7708 35.3499 34.0313 34.8865 35.3819C35.992 33.9868 36.8835 32.3623 37.8153 30.7806C37.4182 30.1487 36.5879 29.5978 35.6183 30.0475ZM33.5524 29.32C33.1337 29.2753 32.7782 29.7972 32.2336 29.5715C32.1088 29.7082 31.9954 29.8563 31.8682 29.9898C33.071 31.4264 33.6176 33.4645 34.5465 35.1528C35.045 33.5311 34.9876 31.7544 35.0974 29.9844C34.4125 30.0275 34.0325 29.3705 33.5524 29.32ZM32.2241 27.5824C32.1794 28.0744 32.2949 28.2354 32.3948 28.7993C34.0266 29.305 33.7417 26.5795 32.2241 27.5824ZM30.4145 26.9936C29.7113 26.6128 28.655 26.1982 27.7467 26.0264C26.621 25.813 26.7264 27.5483 26.7742 28.5837C26.8117 29.4034 27.2418 30.2702 27.4286 30.8147C27.5163 31.069 27.5361 31.3388 27.7554 31.3892C28.1431 31.4788 29.422 30.972 29.7863 30.775C30.557 30.3585 31.155 29.6972 31.8095 29.2531C31.818 29.037 31.8263 28.8212 31.835 28.6051C31.4415 28.4107 30.9867 28.2728 30.409 28.2478C30.8009 28.0524 31.3774 28.0552 31.7345 27.8227C31.738 27.7361 31.7416 27.6497 31.7446 27.564C31.0927 27.5143 30.8442 27.2265 30.4145 26.9936ZM23.6982 25.7845C23.1146 26.3717 25.335 27.1722 26.042 27.2153C26.038 26.8437 26.2556 26.4934 26.2118 26.2268C25.3721 26.0807 24.2686 26.1771 23.6982 25.7845ZM30.8872 26.0603C30.8844 26.1176 30.809 26.0967 30.7967 26.1434C31.5475 26.725 32.1052 26.8453 33.1272 26.7952C33.588 26.4637 33.9967 26.0761 34.4766 25.7657C33.3719 25.8635 31.9812 26.5435 30.8872 26.0603ZM37.4859 28.0434C37.4544 27.391 37.2815 26.0494 36.8746 25.8146C36.0207 25.3205 34.5027 26.812 33.8596 27.0395C33.9296 27.2391 34.045 27.3972 34.0539 27.6524C34.4343 27.5596 34.8974 27.6231 35.227 27.7836C34.8458 27.8259 34.4232 27.8231 34.171 28.0031C34.0786 28.2678 34.1937 28.6286 34.1322 28.9961C35.0369 29.249 36.0702 29.3837 37.214 29.417C37.4364 29.1304 37.5122 28.5845 37.4859 28.0434ZM22.7157 26.3525C22.5324 26.223 21.2927 24.6243 21.1228 24.6906C18.8795 25.5675 16.7819 27.0836 14.9075 28.5175C16.6947 32.3182 17.4161 36.9746 17.5436 41.4626C19.5908 42.4116 21.389 43.7797 24.1671 43.9225C23.8456 41.6683 23.5522 39.6571 23.3697 37.5347C22.6717 37.2431 21.6702 37.548 21.017 37.4443C21.0115 36.6641 22.0147 37.1027 22.0982 36.578C22.1612 36.1812 21.5462 36.1511 21.7465 35.5262C22.2571 35.7102 22.5253 36.1166 23.07 36.2692C23.5676 35.1901 23.063 33.281 23.1347 32.3791C23.1483 32.2098 23.22 31.441 23.6027 31.5759C23.9415 31.6953 23.5834 33.6205 23.6205 34.474C23.6543 35.2604 23.5247 36.0214 23.846 36.5151C26.5305 36.1529 29.2584 35.9188 32.163 35.8398C31.524 35.5681 30.7649 35.3109 29.9326 34.846C29.4814 34.5939 28.0592 34.0694 27.929 33.6447C27.7213 32.9679 28.4741 32.6074 28.6028 32.0272C27.2478 32.7596 26.9834 31.3251 26.6628 30.3088C26.3724 29.3883 26.2071 28.7007 26.1358 28.1698C24.9685 27.6183 23.7204 27.0597 22.7157 26.3525ZM36.3003 24.884C38.1694 23.9858 38.5063 28.2412 37.7737 29.612C37.8869 30.0208 38.2764 30.1774 38.4353 30.5449C37.3923 32.3967 36.2338 34.1253 35.1696 35.9553C35.9612 35.4669 37.092 35.8679 38.0236 35.5023C38.3642 35.3689 38.6107 34.5963 38.8685 33.9782C39.5776 32.2777 40.3222 30.1339 40.6534 28.5111C40.7282 28.1414 40.9321 27.3357 40.8864 27.0066C40.8049 26.4174 39.9983 25.9805 39.588 25.6162C38.8321 24.9432 38.3561 24.3509 37.5676 23.7216C37.2479 24.1894 36.5618 24.5037 36.3003 24.884ZM18.4411 8.45655C17.5505 9.42776 17.7369 11.2475 17.8448 12.5422C19.4546 11.5385 21.5913 12.6215 21.5711 14.3287C22.3397 14.3084 21.8582 13.3773 21.7192 12.7775C21.2649 10.8182 22.4846 8.68964 21.7745 6.89794C20.3957 7.00155 19.263 7.5597 18.4411 8.45655ZM24.8137 2.81973C22.7974 3.3861 20.2134 4.83809 19.3849 6.63319C20.0265 6.5408 20.4718 6.22014 21.1047 6.18046C21.3439 6.16503 21.6572 6.27987 21.9321 6.21213C22.4799 6.07745 22.9422 4.86013 23.3555 4.4072C23.7584 3.96489 24.2426 3.7759 24.5739 3.37267C24.7868 3.27086 25.1016 3.27787 25.1137 2.96102C25.0214 2.86322 24.9242 2.78866 24.8137 2.81973ZM35.3093 3.35242C33.2166 2.18221 29.6743 1.30199 27.4482 2.40186C25.652 3.28949 23.224 4.75813 22.3962 6.61916C23.1695 8.41507 22.1671 10.0607 22.1031 11.884C22.0691 12.8542 22.564 13.7012 22.6019 14.7574C22.3373 15.19 21.5289 15.2434 20.9692 15.2137C20.7808 14.2794 20.451 13.2292 19.4802 13.1238C18.1066 12.9749 17.1022 14.1016 17.0398 15.279C16.966 16.6637 18.1129 18.9586 19.7385 18.7993C20.3665 18.7378 20.5208 18.1139 21.205 18.1203C21.5758 18.8536 20.633 19.0839 20.536 19.6084C20.5107 19.7438 20.6142 20.2733 20.6743 20.5216C20.9696 21.7307 21.6278 23.2956 22.2757 24.2161C23.098 25.3837 24.7135 25.5596 26.4515 25.6741C26.762 25.0113 27.9055 25.0658 28.6506 25.2392C27.7576 24.8887 26.9274 24.0389 26.2394 23.2867C25.4491 22.4238 24.6486 21.4981 24.6081 20.3701C26.1016 22.4236 27.3354 24.2169 30.0511 25.1201C32.106 25.8031 34.5059 24.8071 36.0848 23.7082C36.74 23.2515 37.131 22.5268 37.5967 21.8634C39.3392 19.3793 40.1523 15.8336 39.9736 12.3969C39.9 10.9796 39.9032 9.56705 39.4234 8.61348C38.9219 7.61642 37.2257 6.72438 36.2328 7.62624C36.0488 6.65664 37.0584 6.05701 38.2444 6.40593C37.3988 5.3243 36.5113 4.02461 35.3093 3.35242ZM39.2082 35.3318C40.8435 34.5261 43.899 33.1631 44.9242 35.3348C45.3026 36.1353 45.7464 37.4885 45.9424 38.3148C46.2192 39.4806 45.6423 41.9308 44.4332 42.322C43.3653 42.6675 42.1193 42.6465 40.833 42.3904C40.6815 42.2655 40.5129 42.0479 40.395 41.821C39.4765 41.7857 38.6165 41.8699 37.891 42.2441C37.9597 42.9172 37.5003 43.0253 37.0696 43.1639C36.7503 44.4187 37.7084 46.0573 37.4791 47.2015C37.3155 48.0166 36.3036 48.1426 35.5598 48.2951C35.5356 48.7481 35.5924 49.1262 35.6431 49.5094C35.4731 50.1305 34.7103 50.484 33.9876 50.5706C31.6098 50.854 27.9994 50.9813 25.7122 50.1662C25.0739 48.6146 24.5712 46.7275 24.0396 44.9558C21.8089 45.1919 20.0047 44.0019 18.3039 43.2223C17.7151 42.9517 16.9004 42.8026 16.6804 42.3381C16.4672 41.8883 16.5544 41.0263 16.5015 40.2121C16.3668 38.1324 16.2515 36.1264 15.6974 33.997C15.4486 33.0415 15.0149 32.1983 14.7124 31.2776C14.4328 30.4243 13.9442 29.3697 13.8168 28.5187C13.6279 27.2575 14.8261 27.1874 15.5923 26.6409C16.7768 25.7957 17.7065 25.3284 18.9893 24.5656C19.3693 24.3397 20.515 23.7679 20.6454 23.5046C20.9044 22.9825 20.2006 22.2464 20.0125 21.8372C19.7148 21.19 19.5596 20.6403 19.517 20.0018C18.4409 19.8332 17.6251 19.1985 17.1324 18.4828C16.3173 17.2984 15.752 15.1071 16.4573 13.4402C16.5126 13.309 16.7884 13.0508 16.8291 12.8492C16.9093 12.4522 16.6781 11.9243 16.6637 11.502C16.5896 9.33557 17.0335 7.46891 18.5051 6.81557C19.1025 4.4569 21.2407 3.67269 23.2552 2.50047C24.0082 2.06237 24.8383 1.78239 25.6956 1.46974C28.7709 0.348026 33.4894 0.559265 36.0417 2.47241C37.124 3.28368 38.8539 4.99662 39.4727 6.23677C41.107 9.51093 40.9909 14.9828 39.8478 18.9656C39.6941 19.5003 39.4713 20.2864 39.1601 20.9287C38.9431 21.3772 38.2687 22.2747 38.3506 22.6707C38.4349 23.0801 39.8882 24.1738 40.1999 24.4716C40.761 25.0081 41.8271 25.7202 41.9134 26.3972C42.0062 27.1176 41.5931 28.1033 41.3838 28.7985C40.6842 31.1187 40.0015 33.2633 39.2082 35.3318Z" fill="#231F20"/>
<path fill-rule="evenodd" clip-rule="evenodd" d="M28.2977 19.2714C28.3865 19.1543 28.8742 18.9766 29.5567 19.3022C29.5567 19.3022 28.7478 19.4359 28.8151 20.7725L28.4781 20.7055C28.4781 20.7055 28.1297 19.4936 28.2977 19.2714Z" fill="#F7E4CD"/>
<path fill-rule="evenodd" clip-rule="evenodd" d="M34.2083 30.7587C34.2083 30.9615 34.0423 31.126 33.8375 31.126C33.6328 31.126 33.4668 30.9615 33.4668 30.7587C33.4668 30.5558 33.6328 30.3911 33.8375 30.3911C34.0423 30.3911 34.2083 30.5558 34.2083 30.7587Z" fill="#1D1919"/>
<path fill-rule="evenodd" clip-rule="evenodd" d="M34.5794 32.4628C34.5794 32.6656 34.4134 32.8301 34.2086 32.8301C34.0039 32.8301 33.8379 32.6656 33.8379 32.4628C33.8379 32.2599 34.0039 32.0952 34.2086 32.0952C34.4134 32.0952 34.5794 32.2599 34.5794 32.4628Z" fill="#1D1919"/>
</g>
<path d="M77.3295 18.2417H79.0909V28.6394C79.0909 29.5674 78.9205 30.3558 78.5795 31.0044C78.2386 31.6531 77.758 32.1455 77.1378 32.4817C76.5175 32.8179 75.786 32.986 74.9432 32.986C74.1477 32.986 73.4399 32.8416 72.8196 32.5527C72.1993 32.2592 71.7116 31.8425 71.3565 31.3027C71.0014 30.763 70.8239 30.1214 70.8239 29.378H72.5568C72.5568 29.79 72.6586 30.1498 72.8622 30.4576C73.0705 30.7606 73.3546 30.9973 73.7145 31.1678C74.0743 31.3382 74.4839 31.4235 74.9432 31.4235C75.4498 31.4235 75.8807 31.3169 76.2358 31.1039C76.5909 30.8908 76.8608 30.5783 77.0455 30.1664C77.2348 29.7497 77.3295 29.2407 77.3295 28.6394V18.2417ZM86.9673 33.0144C85.9162 33.0144 85.0095 32.7824 84.2472 32.3184C83.4896 31.8496 82.9048 31.1962 82.4929 30.3581C82.0857 29.5153 81.8821 28.5352 81.8821 27.4178C81.8821 26.3004 82.0857 25.3155 82.4929 24.4632C82.9048 23.6062 83.4777 22.9386 84.2116 22.4604C84.9503 21.9775 85.812 21.736 86.7969 21.736C87.3651 21.736 87.9261 21.8307 88.4801 22.0201C89.0341 22.2095 89.5384 22.5172 89.9929 22.9434C90.4474 23.3648 90.8097 23.9235 91.0795 24.6195C91.3494 25.3155 91.4844 26.1725 91.4844 27.1905V27.9007H83.0753V26.4519H89.7798C89.7798 25.8364 89.6567 25.2871 89.4105 24.8042C89.169 24.3212 88.8234 23.94 88.3736 23.6607C87.9285 23.3813 87.4029 23.2417 86.7969 23.2417C86.1293 23.2417 85.5516 23.4074 85.0639 23.7388C84.581 24.0655 84.2093 24.4917 83.9489 25.0172C83.6884 25.5428 83.5582 26.1062 83.5582 26.7076V27.6735C83.5582 28.4973 83.7003 29.1957 83.9844 29.7686C84.2732 30.3368 84.6733 30.7701 85.1847 31.0684C85.696 31.3619 86.2902 31.5087 86.9673 31.5087C87.4077 31.5087 87.8054 31.4471 88.1605 31.324C88.5204 31.1962 88.8305 31.0068 89.0909 30.7559C89.3513 30.5002 89.5526 30.1829 89.6946 29.8042L91.3139 30.2587C91.1435 30.8079 90.857 31.2909 90.4545 31.7076C90.0521 32.1195 89.5549 32.4415 88.9631 32.6735C88.3712 32.9007 87.706 33.0144 86.9673 33.0144ZM95.7102 26.2246V32.7871H94.0341V21.878H95.6534V23.5826H95.7955C96.0511 23.0286 96.4394 22.5835 96.9602 22.2473C97.4811 21.9064 98.1534 21.736 98.9773 21.736C99.7159 21.736 100.362 21.8875 100.916 22.1905C101.47 22.4888 101.901 22.9434 102.209 23.5542C102.517 24.1602 102.67 24.9273 102.67 25.8553V32.7871H100.994V25.9689C100.994 25.1119 100.772 24.4443 100.327 23.9661C99.8816 23.4831 99.2708 23.2417 98.4943 23.2417C97.9593 23.2417 97.4811 23.3577 97.0597 23.5897C96.643 23.8217 96.3139 24.1602 96.0724 24.6053C95.831 25.0504 95.7102 25.5901 95.7102 26.2246ZM107.296 28.8098L107.267 26.736H107.608L112.381 21.878H114.455L109.37 27.0201H109.228L107.296 28.8098ZM105.733 32.7871V18.2417H107.409V32.7871H105.733ZM112.665 32.7871L108.404 27.3894L109.597 26.2246L114.796 32.7871H112.665ZM116.612 32.7871V21.878H118.288V32.7871H116.612ZM117.464 20.0598C117.138 20.0598 116.856 19.9486 116.619 19.726C116.387 19.5035 116.271 19.236 116.271 18.9235C116.271 18.611 116.387 18.3435 116.619 18.1209C116.856 17.8984 117.138 17.7871 117.464 17.7871C117.791 17.7871 118.071 17.8984 118.303 18.1209C118.539 18.3435 118.658 18.611 118.658 18.9235C118.658 19.236 118.539 19.5035 118.303 19.726C118.071 19.9486 117.791 20.0598 117.464 20.0598ZM123.034 26.2246V32.7871H121.358V21.878H122.978V23.5826H123.12C123.375 23.0286 123.764 22.5835 124.284 22.2473C124.805 21.9064 125.478 21.736 126.301 21.736C127.04 21.736 127.686 21.8875 128.24 22.1905C128.794 22.4888 129.225 22.9434 129.533 23.5542C129.841 24.1602 129.995 24.9273 129.995 25.8553V32.7871H128.319V25.9689C128.319 25.1119 128.096 24.4443 127.651 23.9661C127.206 23.4831 126.595 23.2417 125.819 23.2417C125.283 23.2417 124.805 23.3577 124.384 23.5897C123.967 23.8217 123.638 24.1602 123.397 24.6053C123.155 25.0504 123.034 25.5901 123.034 26.2246ZM140.785 24.3212L139.279 24.7473C139.184 24.4964 139.045 24.2525 138.86 24.0158C138.68 23.7743 138.434 23.5755 138.121 23.4192C137.809 23.263 137.409 23.1848 136.921 23.1848C136.254 23.1848 135.697 23.3387 135.252 23.6465C134.812 23.9495 134.592 24.3354 134.592 24.8042C134.592 25.2208 134.743 25.5499 135.046 25.7914C135.349 26.0328 135.823 26.2341 136.467 26.3951L138.086 26.7928C139.061 27.0295 139.788 27.3917 140.266 27.8794C140.745 28.3624 140.984 28.985 140.984 29.7473C140.984 30.3723 140.804 30.931 140.444 31.4235C140.089 31.9159 139.592 32.3042 138.952 32.5882C138.313 32.8723 137.57 33.0144 136.722 33.0144C135.61 33.0144 134.689 32.7729 133.96 32.29C133.23 31.807 132.769 31.1015 132.575 30.1735L134.165 29.7757C134.317 30.3629 134.603 30.8032 135.025 31.0968C135.451 31.3903 136.007 31.5371 136.694 31.5371C137.475 31.5371 138.095 31.3714 138.555 31.04C139.019 30.7038 139.251 30.3013 139.251 29.8326C139.251 29.4538 139.118 29.1365 138.853 28.8809C138.588 28.6204 138.181 28.4263 137.631 28.2985L135.813 27.8723C134.814 27.6356 134.08 27.2686 133.612 26.7715C133.147 26.2696 132.915 25.6422 132.915 24.8894C132.915 24.2739 133.088 23.7293 133.434 23.2559C133.784 22.7824 134.26 22.4107 134.862 22.1408C135.468 21.8709 136.154 21.736 136.921 21.736C138.001 21.736 138.848 21.9727 139.464 22.4462C140.084 22.9197 140.524 23.5447 140.785 24.3212Z" fill="white"/>
<defs>
<clipPath id="clip0_5224_19472">
<rect width="50" height="50" fill="white" transform="translate(0 0.787109)"/>
</clipPath>
</defs>
</svg>
