<svg width="80" height="80" viewBox="0 0 80 80" fill="none" xmlns="http://www.w3.org/2000/svg">
<path d="M0 34.0765C0 18.0127 0 9.98079 4.99039 4.99039C9.98079 0 18.0127 0 34.0765 0H45.9235C61.9873 0 70.0192 0 75.0096 4.99039C80 9.98079 80 18.0127 80 34.0765V45.9235C80 61.9873 80 70.0192 75.0096 75.0096C70.0192 80 61.9873 80 45.9235 80H34.0765C18.0127 80 9.98079 80 4.99039 75.0096C0 70.0192 0 61.9873 0 45.9235V34.0765Z" fill="#1B1D1E"/>
<g clip-path="url(#clip0_10906_29424)">
<g clip-path="url(#clip1_10906_29424)">
<path d="M58.1333 39.8647C58.1333 37.5067 56.2252 35.5952 53.8715 35.5952C53.72 35.5952 53.5707 35.6033 53.4235 35.6187L59.2771 18.3232H34.4013L40.2466 35.6038C40.1604 35.5983 40.0739 35.5954 39.9875 35.5952C37.6339 35.5952 35.7258 37.5067 35.7258 39.8647C35.7258 41.7707 36.9727 43.3843 38.6937 43.9333C37.7847 45.5106 36.641 46.9312 35.3425 48.1583C33.5768 49.8271 31.556 51.0924 29.3705 51.8722C26.7683 50.533 25.5395 47.5547 26.6482 44.9434C26.7735 44.6486 26.9013 44.3496 27.0236 44.0521C28.9086 43.6113 30.3134 41.9181 30.3134 39.8953C30.3134 37.5374 28.4053 35.6259 26.0516 35.6259C23.6976 35.6259 21.7896 37.5374 21.7896 39.8953C21.7896 41.3414 22.5078 42.6184 23.6055 43.3908C22.5506 45.797 21.0001 48.3149 20.517 51.2333C19.938 54.731 20.5152 58.4436 23.5347 60.5403C30.5672 65.423 38.2007 57.5134 46.2494 55.525C49.1661 54.8043 52.3681 54.9205 54.9379 53.4293C56.868 52.3096 58.1403 50.4539 58.5014 48.3704C58.858 46.3122 58.3378 44.263 57.1422 42.6013C57.7837 41.8344 58.1347 40.8653 58.1333 39.8647ZM44.2492 39.8798L44.2496 39.8647C44.2496 38.3163 43.4266 36.9603 42.1952 36.2119L46.8476 26.7872L51.5082 36.3118C50.3637 37.0773 49.6095 38.3826 49.6095 39.8647C49.6095 39.8958 49.6111 39.9265 49.6119 39.9575L44.2492 39.8798Z" fill="white"/>
<path d="M59.1743 39.8644C59.1743 37.271 57.3092 35.1071 54.8523 34.6449L60.7292 17.2803H32.9496L38.8354 34.6801C36.464 35.2088 34.6852 37.3319 34.6852 39.8644C34.6852 41.7664 35.6885 43.4369 37.1922 44.3756C36.4689 45.455 35.6112 46.4708 34.6284 47.3996C33.0698 48.8727 31.3332 49.9899 29.4611 50.7249C27.5755 49.5383 26.7784 47.3007 27.6063 45.3512L27.6711 45.1987L27.7927 44.9118C29.8637 44.1884 31.3544 42.2135 31.3544 39.8951C31.3544 36.9659 28.9756 34.5829 26.0516 34.5829C23.1276 34.5829 20.7489 36.9659 20.7489 39.8951C20.7489 41.3736 21.3554 42.7124 22.3317 43.6764C22.1496 44.063 21.9648 44.4483 21.7773 44.8322C20.8846 46.6689 19.873 48.7507 19.4903 51.0625C18.7303 55.6537 19.956 59.3239 22.9419 61.397C24.7537 62.655 26.5936 63.1498 28.4452 63.1496C31.9318 63.1495 35.4585 61.3948 38.908 59.6784C41.3924 58.4423 43.9613 57.164 46.4988 56.5371C47.443 56.3038 48.4145 56.1634 49.443 56.0148C51.4826 55.72 53.5918 55.4154 55.4601 54.3314C57.6255 53.0749 59.1079 50.9671 59.5271 48.5486C59.8869 46.4724 59.4537 44.3932 58.3975 42.6296C58.9065 41.7975 59.1755 40.8404 59.1743 39.8644ZM57.0927 39.8644C57.0927 41.6437 55.6478 43.0914 53.8715 43.0914C52.0956 43.0914 50.6505 41.6437 50.6505 39.8644C50.6505 38.0852 52.0956 36.6377 53.8715 36.6377C55.6478 36.6377 57.0927 38.0852 57.0927 39.8644ZM57.8253 19.3657L52.6357 34.6994C52.4124 34.7529 52.1929 34.8211 51.9785 34.9035L46.8519 24.4264L41.7103 34.8415C41.4864 34.7639 41.2574 34.7015 41.025 34.6549L35.8532 19.3657H57.8253ZM39.9879 36.6377C41.764 36.6377 43.2089 38.0852 43.2089 39.8644C43.2089 41.6437 41.764 43.0914 39.9879 43.0914C38.2119 43.0914 36.7669 41.6437 36.7669 39.8644C36.7669 38.0852 38.2119 36.6377 39.9879 36.6377ZM26.0516 36.6683C27.8278 36.6683 29.2727 38.1158 29.2727 39.8951C29.2727 41.6744 27.8278 43.122 26.0516 43.122C24.2757 43.122 22.8306 41.6744 22.8306 39.8951C22.8306 38.1158 24.2757 36.6683 26.0516 36.6683ZM57.476 48.1918C57.1626 50.0005 56.0474 51.5805 54.4166 52.5267C52.8964 53.4088 51.0747 53.6721 49.1459 53.9507C48.1126 54.0999 47.0441 54.2544 46.0003 54.5123C43.2404 55.1941 40.5672 56.5243 37.982 57.8107C32.8086 60.3849 28.3406 62.6079 24.1278 59.6829C21.0419 57.5404 21.1844 53.5761 21.5439 51.4037C21.8771 49.3911 22.7778 47.5375 23.6489 45.7449C23.7972 45.4402 23.9441 45.1349 24.0898 44.8289C24.529 45.0051 24.99 45.121 25.4602 45.1735C24.5735 48.1054 25.968 51.293 28.8949 52.7994L29.2954 53.0056L29.7197 52.8543C32.0336 52.0288 34.1657 50.7039 36.0569 48.9166C37.2795 47.7612 38.33 46.483 39.1938 45.1171C39.4567 45.1568 39.7221 45.1768 39.9879 45.1768C42.9118 45.1768 45.2907 42.7938 45.2907 39.8644C45.2907 38.2891 44.6019 36.8724 43.511 35.8987L46.8436 29.1476L50.21 36.0273C49.2 36.9952 48.5688 38.3569 48.5688 39.8644C48.5688 42.7938 50.9475 45.1768 53.8715 45.1768C54.9531 45.1777 56.0088 44.8454 56.8954 44.2248C57.4914 45.4469 57.7134 46.8221 57.476 48.1918Z" fill="white"/>
</g>
</g>
<defs>
<clipPath id="clip0_10906_29424">
<rect width="45.9235" height="45.9235" fill="white" transform="translate(17.0381 17.0381)"/>
</clipPath>
<clipPath id="clip1_10906_29424">
<rect width="41.4587" height="45.9235" fill="white" transform="translate(19.2705 17.2754)"/>
</clipPath>
</defs>
</svg>
