<svg width="80" height="80" viewBox="0 0 80 80" fill="none" xmlns="http://www.w3.org/2000/svg">
<path d="M0 37.1014C0 19.6117 0 10.8668 5.43338 5.43338C10.8668 0 19.6117 0 37.1014 0H42.8986C60.3883 0 69.1332 0 74.5666 5.43338C80 10.8668 80 19.6117 80 37.1014V42.8986C80 60.3883 80 69.1332 74.5666 74.5666C69.1332 80 60.3883 80 42.8986 80H37.1014C19.6117 80 10.8668 80 5.43338 74.5666C0 69.1332 0 60.3883 0 42.8986V37.1014Z" fill="#1B1D1E"/>
<g clip-path="url(#clip0_10900_28528)">
<g clip-path="url(#clip1_10900_28528)">
<path d="M59.5485 18.5508H38.9453C38.9453 21.0175 39.9252 23.3831 41.6694 25.1273C43.4136 26.8715 45.7793 27.8514 48.246 27.8514H52.0413V31.5157C52.0446 36.6476 56.204 40.8071 61.336 40.8104V20.3382C61.336 19.351 60.5357 18.5508 59.5485 18.5508Z" fill="#2684FF"/>
<path d="M49.3542 28.8164H28.751C28.7543 33.9484 32.9137 38.1078 38.0457 38.1111H41.841V41.7873C41.8476 46.9192 46.0097 51.076 51.1416 51.076V30.6038C51.1416 29.6167 50.3414 28.8164 49.3542 28.8164Z" fill="url(#paint0_linear_10900_28528)"/>
<path d="M39.154 39.0771H18.5508C18.5508 44.2138 22.7148 48.3778 27.8514 48.3778H31.6587V52.042C31.6619 57.1693 35.8141 61.3269 40.9414 61.3367V40.8646C40.9414 39.8774 40.1412 39.0771 39.154 39.0771Z" fill="url(#paint1_linear_10900_28528)"/>
</g>
</g>
<defs>
<linearGradient id="paint0_linear_10900_28528" x1="2223.73" y1="32.3914" x2="1352.62" y2="941.351" gradientUnits="userSpaceOnUse">
<stop offset="0.18" stop-color="#0052CC"/>
<stop offset="1" stop-color="#2684FF"/>
</linearGradient>
<linearGradient id="paint1_linear_10900_28528" x1="2272.51" y1="49.2058" x2="1264.85" y2="1040.6" gradientUnits="userSpaceOnUse">
<stop offset="0.18" stop-color="#0052CC"/>
<stop offset="1" stop-color="#2684FF"/>
</linearGradient>
<clipPath id="clip0_10900_28528">
<rect width="42.8986" height="42.8986" fill="white" transform="translate(18.5508 18.5508)"/>
</clipPath>
<clipPath id="clip1_10900_28528">
<rect width="42.8985" height="42.8985" fill="white" transform="translate(18.5508 18.5508)"/>
</clipPath>
</defs>
</svg>
