<svg width="80" height="80" viewBox="0 0 80 80" fill="none" xmlns="http://www.w3.org/2000/svg">
<path d="M0 37.1014C0 19.6117 0 10.8668 5.43338 5.43338C10.8668 0 19.6117 0 37.1014 0H42.9C60.3898 0 69.1347 0 74.5681 5.43338C80.0014 10.8668 80.0014 19.6117 80.0014 37.1014V42.9C80.0014 60.3898 80.0014 69.1347 74.5681 74.5681C69.1347 80.0014 60.3898 80.0014 42.9 80.0014H37.1014C19.6117 80.0014 10.8668 80.0014 5.43338 74.5681C0 69.1347 0 60.3898 0 42.9V37.1014Z" fill="#1B1D1E"/>
<g clip-path="url(#clip0_12436_12196)">
<path d="M18.0078 25.4148C18.0078 21.6239 21.0809 18.5508 24.8718 18.5508H55.1306C58.9215 18.5508 61.9946 21.6239 61.9946 25.4148V54.5868C61.9946 58.3777 58.9215 61.4508 55.1306 61.4508H24.8718C21.0809 61.4508 18.0078 58.3777 18.0078 54.5868V25.4148Z" fill="#FFEA47"/>
<path d="M29.5744 54.4022L32.9404 52.4154C33.5899 53.5384 34.1806 54.4885 35.5977 54.4885C36.9559 54.4885 37.8125 53.9704 37.8125 51.9547V38.2472H41.946V52.0117C41.946 56.1873 39.4364 58.0879 35.7748 58.0879C32.4681 58.0879 30.5486 56.4177 29.5742 54.4019M44.1912 53.9702L47.5569 52.0697C48.443 53.4809 49.5946 54.5175 51.6317 54.5175C53.3446 54.5175 54.4367 53.6823 54.4367 52.5304C54.4367 51.1482 53.3147 50.6585 51.425 49.8525L50.3918 49.4201C47.4095 48.1822 45.4313 46.6271 45.4313 43.3442C45.4313 40.3205 47.7933 38.0166 51.4843 38.0166C54.1121 38.0166 56.0019 38.9095 57.3599 41.242L54.1413 43.2579C53.4326 42.0197 52.6652 41.5302 51.4841 41.5302C50.2734 41.5302 49.5057 42.279 49.5057 43.2579C49.5057 44.4674 50.2734 44.9572 52.0449 45.7059L53.0783 46.1378C56.5921 47.6066 58.5703 49.1039 58.5703 52.4729C58.5703 56.1016 55.6472 58.0884 51.7202 58.0884C47.8818 58.0884 45.4016 56.3031 44.1911 53.9704" fill="black"/>
</g>
<defs>
<clipPath id="clip0_12436_12196">
<rect width="42.9" height="42.9" fill="white" transform="translate(18.5508 18.5508)"/>
</clipPath>
</defs>
</svg>
