<svg width="80" height="80" viewBox="0 0 80 80" fill="none" xmlns="http://www.w3.org/2000/svg">
<path d="M0 37.1014C0 19.6117 0 10.8668 5.43338 5.43338C10.8668 0 19.6117 0 37.1014 0H42.8986C60.3883 0 69.1332 0 74.5666 5.43338C80 10.8668 80 19.6117 80 37.1014V42.8986C80 60.3883 80 69.1332 74.5666 74.5666C69.1332 80 60.3883 80 42.8986 80H37.1014C19.6117 80 10.8668 80 5.43338 74.5666C0 69.1332 0 60.3883 0 42.8986V37.1014Z" fill="#1B1D1E"/>
<g clip-path="url(#clip0_12436_12524)">
<g clip-path="url(#clip1_12436_12524)">
<g clip-path="url(#clip2_12436_12524)">
<path d="M40.0554 19.5069C34.9267 19.409 30.0345 20.7623 25.8486 24.6322C17.0889 32.734 16.8282 46.6057 25.2889 55.0064C26.8118 56.5186 28.6243 57.9175 30.6143 58.7694C31.1342 57.0216 31.0329 54.9116 30.8684 52.8374C30.8288 52.7965 30.788 52.7559 30.7578 52.7107C30.2018 51.8819 30.6143 49.7182 30.6143 48.7338C34.1119 49.3539 36.9607 51.2776 40.7049 50.1602C44.369 49.0666 45.8963 43.7824 42.6658 41.2809C40.7149 39.7694 37.8206 39.9755 35.5199 40.2527C34.1381 40.4196 32.4127 40.9297 31.4589 39.4601C30.8959 38.595 31.477 36.4719 31.5715 35.4933C31.595 35.2466 31.6208 34.9952 31.6453 34.7476C31.8902 31.7085 32.2968 28.6365 32.2968 25.5958H47.1517V20.4399C44.7668 19.8953 42.3867 19.5521 40.0554 19.5069Z" fill="#DC514A"/>
<path d="M47.0317 20.4307V29.5064H36.2222L35.6605 36.4865C38.0592 36.2984 40.2829 35.8751 42.6798 36.4385C44.323 36.8256 45.8654 37.6015 47.0065 38.8606C50.1914 42.3703 49.5647 48.9585 45.9083 51.9185C44.8794 52.7517 43.7037 53.299 42.4623 53.6509C41.3161 54.0172 40.1645 54.1724 39.009 54.1831C38.5951 54.2056 38.1807 54.2172 37.7663 54.218C35.9665 54.218 34.1665 53.984 32.4318 53.4987C31.9907 53.3751 31.3083 53.2031 30.8794 52.8821C30.7885 52.8626 30.6974 52.8415 30.6066 52.8218L30.4668 58.6858C41.607 64.593 55.7987 58.2725 59.7947 46.6792C63.1726 36.8819 57.9413 23.0022 47.0317 20.4307Z" fill="#23A161"/>
</g>
</g>
</g>
<defs>
<clipPath id="clip0_12436_12524">
<rect width="42.8986" height="42.8986" fill="white" transform="translate(18.5508 18.5508)"/>
</clipPath>
<clipPath id="clip1_12436_12524">
<rect width="42.8985" height="42.8985" fill="white" transform="translate(18.5508 18.5508)"/>
</clipPath>
<clipPath id="clip2_12436_12524">
<rect width="42.8985" height="42.8985" fill="white" transform="translate(18.5508 18.7725)"/>
</clipPath>
</defs>
</svg>
