<svg width="74" height="74" viewBox="0 0 74 74" fill="none" xmlns="http://www.w3.org/2000/svg">
<path d="M29.1464 6.58459C28.3084 5.76291 27.1457 5.25671 25.8496 5.25671C24.5567 5.25671 23.403 5.76291 22.5756 6.58459H22.5544C21.7188 7.40072 21.2005 8.53947 21.2005 9.79743C21.2005 11.0625 21.7188 12.1941 22.5544 13.0023L22.5756 13.0246C23.403 13.8391 24.5567 14.3381 25.8496 14.3381C27.1457 14.3381 28.3084 13.8391 29.1464 13.0246L29.1562 13.0023C29.995 12.1941 30.5068 11.0625 30.5068 9.79743C30.5068 8.53947 29.995 7.40072 29.1562 6.58459H29.1464ZM25.8496 68.7433C27.1457 68.7433 28.3084 68.2276 29.1464 67.421L29.1562 67.3971C29.995 66.5921 30.5068 65.4534 30.5068 64.2018C30.5068 62.9367 29.995 61.8035 29.1562 60.9834H29.1464C28.3084 60.1538 27.1457 59.6523 25.8496 59.6523C24.5567 59.6523 23.403 60.1538 22.5756 60.9834H22.5544C21.7188 61.8035 21.2005 62.9367 21.2005 64.2018C21.2005 65.4534 21.7188 66.5921 22.5544 67.3971L22.5756 67.421C23.403 68.2276 24.5567 68.7433 25.8496 68.7433ZM51.1802 54.9853C52.3315 54.6896 53.3738 53.9681 54.0108 52.8762L54.0963 52.7165C54.6625 51.6826 54.7659 50.4874 54.4632 49.4266C54.1581 48.2942 53.4112 47.2897 52.2957 46.6643L52.2298 46.6214C51.1428 46.0381 49.9061 45.911 48.7686 46.2137C47.6125 46.4958 46.5735 47.2476 45.9405 48.3299C45.2993 49.4059 45.1659 50.6424 45.4726 51.7804C45.7891 52.9001 46.5303 53.9117 47.6393 54.5442H47.6458C48.7572 55.168 50.0135 55.2801 51.1802 54.9853ZM30.6183 32.3468C29.3978 31.158 27.7136 30.4126 25.8496 30.4126C23.988 30.4126 22.3087 31.158 21.0907 32.3468C19.8768 33.5341 19.1282 35.1719 19.1282 36.9925C19.1282 38.813 19.8768 40.458 21.0907 41.6587C22.3087 42.8404 23.988 43.5786 25.8496 43.5786C27.7136 43.5786 29.3978 42.8404 30.6183 41.6587C31.8354 40.458 32.584 38.813 32.584 36.9925C32.584 35.1719 31.8354 33.5341 30.6183 32.3468ZM27.9365 24.6076C30.6427 25.0431 33.0722 26.309 34.9297 28.1359H34.9435C35.2388 28.4236 35.5261 28.7407 35.7937 29.0569L40.4355 26.4345C39.8114 24.5925 39.7821 22.667 40.2841 20.8608C40.9456 18.4426 42.5509 16.2779 44.9576 14.9214L45.0357 14.873C47.4164 13.5578 50.1217 13.2836 52.5634 13.9297C55.0368 14.5773 57.2678 16.1524 58.6566 18.499V18.5062C60.039 20.8401 60.3189 23.5181 59.6598 25.9291C59.0016 28.3465 57.3906 30.5263 54.9864 31.8748L54.3525 32.2404H54.2883C52.0646 33.2742 49.6197 33.4363 47.3741 32.8586C45.5304 32.3818 43.8397 31.3758 42.5151 29.9493L37.8799 32.5646C38.4128 33.9409 38.7073 35.4246 38.7073 36.9925C38.7073 38.5524 38.4128 40.0575 37.8799 41.441L42.5151 44.0491C43.8397 42.6004 45.5304 41.6174 47.3741 41.139C49.8483 40.4786 52.5902 40.7592 54.9864 42.1236L55.1401 42.1935V42.2007C57.4549 43.5715 59.0089 45.6869 59.6598 48.0764C60.3189 50.4731 60.039 53.1528 58.6566 55.4915L58.5728 55.6544L58.5631 55.6409C57.175 57.8953 54.9864 59.4227 52.5707 60.0687C50.0932 60.7068 47.3505 60.4343 44.9576 59.0897V59.0714C42.5509 57.7125 40.9456 55.5431 40.2841 53.1297C39.7821 51.3314 39.8114 49.4059 40.4355 47.5647L35.7937 44.9486C35.5261 45.2649 35.2388 45.5677 34.9435 45.8554L34.9297 45.8697C33.0722 47.6902 30.6427 48.9553 27.9365 49.3765V54.6149C29.8648 55.0083 31.5914 55.95 32.9436 57.2715L32.9509 57.285C34.7637 59.0476 35.8865 61.5031 35.8865 64.2018C35.8865 66.8925 34.7637 69.3337 32.9509 71.105L32.9436 71.1329C31.1178 72.9034 28.6135 74 25.8496 74C23.1004 74 20.5895 72.9034 18.7678 71.1329H18.7605V71.105C16.9461 69.3337 15.8208 66.8925 15.8208 64.2018C15.8208 61.5031 16.9461 59.0476 18.7605 57.285V57.2715H18.7678C20.1192 55.95 21.849 55.0083 23.77 54.6149V49.3765C21.0647 48.9553 18.6392 47.6902 16.785 45.8697L16.7655 45.8554C14.4499 43.5858 13 40.458 13 36.9925C13 33.5341 14.4499 30.4063 16.7655 28.1359H16.785C18.6392 26.309 21.0647 25.0431 23.77 24.6076V19.3914C21.849 18.9845 20.1192 18.0429 18.7678 16.7285H18.7605V16.7142C16.9461 14.9357 15.8208 12.4969 15.8208 9.79743C15.8208 7.11225 16.9461 4.65197 18.7605 2.88066L18.7678 2.87351C20.5895 1.09584 23.1004 0 25.8496 0C28.6135 0 31.1178 1.09584 32.9436 2.87351V2.88066H32.9509C34.7637 4.65197 35.8865 7.11225 35.8865 9.79743C35.8865 12.4969 34.7637 14.9357 32.9509 16.7142L32.9436 16.7285C31.5914 18.0429 29.8648 18.9845 27.9365 19.3914V24.6076ZM54.0108 21.1286L53.971 21.0713C53.3314 20.0176 52.3095 19.3151 51.1802 19.0124C50.0135 18.7096 48.7572 18.8367 47.6393 19.4629H47.6458C46.5303 20.0812 45.7842 21.092 45.4726 22.2252C45.1659 23.3496 45.2993 24.5925 45.9405 25.6756L45.9624 25.7034C46.6044 26.7723 47.6271 27.4891 48.7686 27.7775C49.9158 28.0946 51.194 27.9603 52.2957 27.3341L52.3551 27.3063C53.4397 26.6737 54.1622 25.6756 54.4632 24.579C54.7707 23.4474 54.6479 22.2109 54.0108 21.1286Z" fill="#1A1919"/>
</svg>
