<svg width="122" height="51" viewBox="0 0 122 51" fill="none" xmlns="http://www.w3.org/2000/svg">
<g clip-path="url(#clip0_5224_19472)">
<path d="M0 50.7874L25.0833 25.7041L50 50.7874H0Z" fill="url(#paint0_linear_5224_19472)"/>
<path d="M0 0.787109H25.0833L0 27.8704V0.787109Z" fill="url(#paint1_linear_5224_19472)"/>
<path d="M25.0833 0.787109L0 27.2038V50.7871L25.0833 25.7038L50 0.787109H25.0833Z" fill="url(#paint2_linear_5224_19472)"/>
</g>
<path d="M71.7614 32.7871V18.2417H73.5227V25.4576H73.6932L80.2273 18.2417H82.5284L76.4205 24.8042L82.5284 32.7871H80.3977L75.3409 26.0257L73.5227 28.0712V32.7871H71.7614ZM88.212 33.0144C87.2272 33.0144 86.363 32.78 85.6197 32.3113C84.881 31.8425 84.3034 31.1867 83.8867 30.3439C83.4748 29.5011 83.2688 28.5163 83.2688 27.3894C83.2688 26.253 83.4748 25.2611 83.8867 24.4135C84.3034 23.566 84.881 22.9078 85.6197 22.4391C86.363 21.9703 87.2272 21.736 88.212 21.736C89.1969 21.736 90.0586 21.9703 90.7972 22.4391C91.5406 22.9078 92.1183 23.566 92.5302 24.4135C92.9469 25.2611 93.1552 26.253 93.1552 27.3894C93.1552 28.5163 92.9469 29.5011 92.5302 30.3439C92.1183 31.1867 91.5406 31.8425 90.7972 32.3113C90.0586 32.78 89.1969 33.0144 88.212 33.0144ZM88.212 31.5087C88.9601 31.5087 89.5756 31.3169 90.0586 30.9334C90.5415 30.5499 90.899 30.0456 91.131 29.4206C91.363 28.7956 91.479 28.1185 91.479 27.3894C91.479 26.6602 91.363 25.9808 91.131 25.351C90.899 24.7213 90.5415 24.2123 90.0586 23.824C89.5756 23.4358 88.9601 23.2417 88.212 23.2417C87.4639 23.2417 86.8484 23.4358 86.3654 23.824C85.8825 24.2123 85.525 24.7213 85.293 25.351C85.061 25.9808 84.945 26.6602 84.945 27.3894C84.945 28.1185 85.061 28.7956 85.293 29.4206C85.525 30.0456 85.8825 30.5499 86.3654 30.9334C86.8484 31.3169 87.4639 31.5087 88.212 31.5087ZM100.458 21.878V23.2985H94.8047V21.878H100.458ZM96.4524 19.2644H98.1286V29.6621C98.1286 30.1356 98.1972 30.4907 98.3345 30.7275C98.4766 30.9595 98.6565 31.1157 98.8743 31.1962C99.0968 31.272 99.3312 31.3098 99.5774 31.3098C99.7621 31.3098 99.9136 31.3004 100.032 31.2814C100.15 31.2578 100.245 31.2388 100.316 31.2246L100.657 32.7303C100.543 32.7729 100.385 32.8155 100.181 32.8581C99.9775 32.9055 99.7195 32.9292 99.407 32.9292C98.9335 32.9292 98.4695 32.8274 98.0149 32.6238C97.5651 32.4202 97.1911 32.11 96.8928 31.6934C96.5992 31.2767 96.4524 30.7511 96.4524 30.1167V19.2644ZM104.89 18.2417V32.7871H103.214V18.2417H104.89ZM107.96 32.7871V21.878H109.636V32.7871H107.96ZM108.812 20.0598C108.485 20.0598 108.204 19.9486 107.967 19.726C107.735 19.5035 107.619 19.236 107.619 18.9235C107.619 18.611 107.735 18.3435 107.967 18.1209C108.204 17.8984 108.485 17.7871 108.812 17.7871C109.139 17.7871 109.418 17.8984 109.65 18.1209C109.887 18.3435 110.005 18.611 110.005 18.9235C110.005 19.236 109.887 19.5035 109.65 19.726C109.418 19.9486 109.139 20.0598 108.812 20.0598ZM114.382 26.2246V32.7871H112.706V21.878H114.325V23.5826H114.467C114.723 23.0286 115.111 22.5835 115.632 22.2473C116.153 21.9064 116.825 21.736 117.649 21.736C118.388 21.736 119.034 21.8875 119.588 22.1905C120.142 22.4888 120.573 22.9434 120.881 23.5542C121.188 24.1602 121.342 24.9273 121.342 25.8553V32.7871H119.666V25.9689C119.666 25.1119 119.444 24.4443 118.999 23.9661C118.554 23.4831 117.943 23.2417 117.166 23.2417C116.631 23.2417 116.153 23.3577 115.732 23.5897C115.315 23.8217 114.986 24.1602 114.744 24.6053C114.503 25.0504 114.382 25.5901 114.382 26.2246Z" fill="white"/>
<defs>
<linearGradient id="paint0_linear_5224_19472" x1="13.2995" y1="62.466" x2="36.9223" y2="38.8431" gradientUnits="userSpaceOnUse">
<stop offset="0.09677" stop-color="#0095D5"/>
<stop offset="0.3007" stop-color="#238AD9"/>
<stop offset="0.6211" stop-color="#557BDE"/>
<stop offset="0.8643" stop-color="#7472E2"/>
<stop offset="1" stop-color="#806EE3"/>
</linearGradient>
<linearGradient id="paint1_linear_5224_19472" x1="3.50767" y1="10.8364" x2="17.2278" y2="-2.88373" gradientUnits="userSpaceOnUse">
<stop offset="0.1183" stop-color="#0095D5"/>
<stop offset="0.4178" stop-color="#3C83DC"/>
<stop offset="0.6962" stop-color="#6D74E1"/>
<stop offset="0.8333" stop-color="#806EE3"/>
</linearGradient>
<linearGradient id="paint2_linear_5224_19472" x1="-8.41808" y1="46.7569" x2="38.1096" y2="0.229275" gradientUnits="userSpaceOnUse">
<stop offset="0.1075" stop-color="#C757BC"/>
<stop offset="0.2138" stop-color="#D0609A"/>
<stop offset="0.4254" stop-color="#E1725C"/>
<stop offset="0.6048" stop-color="#EE7E2F"/>
<stop offset="0.743" stop-color="#F58613"/>
<stop offset="0.8232" stop-color="#F88909"/>
</linearGradient>
<clipPath id="clip0_5224_19472">
<rect width="50" height="50" fill="white" transform="translate(0 0.787109)"/>
</clipPath>
</defs>
</svg>
