<svg width="1599" height="528" viewBox="0 0 1599 528" fill="none" xmlns="http://www.w3.org/2000/svg"><path stroke="#313131" stroke-opacity=".3" d="M.5.5h47v47H.5zm48 0h47v47h-47zm48 0h47v47h-47zm48 0h47v47h-47zm48 0h47v47h-47zm48 0h47v47h-47zm48 0h47v47h-47zm48 0h47v47h-47zm48 0h47v47h-47zm48 0h47v47h-47zm48 0h47v47h-47zm48 0h47v47h-47zm48 0h47v47h-47zm48 0h47v47h-47zm48 0h47v47h-47zm48 0h47v47h-47zm-720 48h47v47H.5zm48 0h47v47h-47zm48 0h47v47h-47zm48 0h47v47h-47zm48 0h47v47h-47zm48 0h47v47h-47zm48 0h47v47h-47zm48 0h47v47h-47zm48 0h47v47h-47zm48 0h47v47h-47zm48 0h47v47h-47zm48 0h47v47h-47zm48 0h47v47h-47zm48 0h47v47h-47zm48 0h47v47h-47zm48 0h47v47h-47zm-720 48h47v47H.5zm48 0h47v47h-47zm48 0h47v47h-47zm48 0h47v47h-47zm48 0h47v47h-47zm48 0h47v47h-47zm48 0h47v47h-47zm48 0h47v47h-47zm48 0h47v47h-47zm48 0h47v47h-47zm48 0h47v47h-47zm48 0h47v47h-47zm48 0h47v47h-47zm48 0h47v47h-47zm48 0h47v47h-47zm48 0h47v47h-47zm-720 48h47v47H.5zm48 0h47v47h-47zm48 0h47v47h-47zm48 0h47v47h-47zm48 0h47v47h-47zm48 0h47v47h-47zm48 0h47v47h-47zm48 0h47v47h-47zm48 0h47v47h-47zm48 0h47v47h-47z"/><path fill="#fff" fill-opacity=".05" d="M480 144h48v48h-48z"/><path stroke="#313131" stroke-opacity=".3" d="M480.5 144.5h47v47h-47z"/><path fill="#fff" fill-opacity=".05" d="M528 144h48v48h-48z"/><path stroke="#313131" stroke-opacity=".3" d="M528.5 144.5h47v47h-47zm48 0h47v47h-47zm48 0h47v47h-47zm48 0h47v47h-47zm48 0h47v47h-47zm-720 48h47v47H.5zm48 0h47v47h-47zm48 0h47v47h-47zm48 0h47v47h-47zm48 0h47v47h-47zm48 0h47v47h-47z"/><path fill="#fff" fill-opacity=".05" d="M288 192h48v48h-48z"/><path stroke="#313131" stroke-opacity=".3" d="M288.5 192.5h47v47h-47z"/><path fill="#fff" fill-opacity=".05" d="M336 192h48v48h-48z"/><path stroke="#313131" stroke-opacity=".3" d="M336.5 192.5h47v47h-47zm48 0h47v47h-47zm48 0h47v47h-47zm48 0h47v47h-47zm48 0h47v47h-47zm48 0h47v47h-47zm48 0h47v47h-47z"/><path fill="#fff" fill-opacity=".05" d="M672 192h48v48h-48z"/><path stroke="#313131" stroke-opacity=".3" d="M672.5 192.5h47v47h-47z"/><path fill="#fff" fill-opacity=".05" d="M720 192h48v48h-48z"/><path stroke="#313131" stroke-opacity=".3" d="M720.5 192.5h47v47h-47zm-720 48h47v47H.5zm48 0h47v47h-47zm48 0h47v47h-47z"/><path fill="#fff" fill-opacity=".05" d="M144 240h48v48h-48z"/><path stroke="#313131" stroke-opacity=".3" d="M144.5 240.5h47v47h-47z"/><path fill="#fff" fill-opacity=".05" d="M192 240h48v48h-48z"/><path stroke="#313131" stroke-opacity=".3" d="M192.5 240.5h47v47h-47z"/><path fill="#fff" fill-opacity=".05" d="M240 240h48v48h-48z"/><path stroke="#313131" stroke-opacity=".3" d="M240.5 240.5h47v47h-47z"/><path fill="#fff" fill-opacity=".05" d="M288 240h48v48h-48z"/><path stroke="#313131" stroke-opacity=".3" d="M288.5 240.5h47v47h-47z"/><path fill="#fff" fill-opacity=".05" d="M336 240h48v48h-48z"/><path stroke="#313131" stroke-opacity=".3" d="M336.5 240.5h47v47h-47zm48 0h47v47h-47zm48 0h47v47h-47zm48 0h47v47h-47zm48 0h47v47h-47zm48 0h47v47h-47zm48 0h47v47h-47z"/><path fill="#fff" fill-opacity=".05" d="M672 240h48v48h-48z"/><path stroke="#313131" stroke-opacity=".3" d="M672.5 240.5h47v47h-47z"/><path fill="#fff" fill-opacity=".05" d="M720 240h48v48h-48z"/><path stroke="#313131" stroke-opacity=".3" d="M720.5 240.5h47v47h-47z"/><path fill="#fff" fill-opacity=".05" d="M0 288h48v48H0z"/><path stroke="#313131" stroke-opacity=".3" d="M.5 288.5h47v47H.5z"/><path fill="#fff" fill-opacity=".05" d="M48 288h48v48H48z"/><path stroke="#313131" stroke-opacity=".3" d="M48.5 288.5h47v47h-47zm48 0h47v47h-47zm48 0h47v47h-47z"/><path fill="#fff" fill-opacity=".05" d="M192 288h48v48h-48z"/><path stroke="#313131" stroke-opacity=".3" d="M192.5 288.5h47v47h-47z"/><path fill="#fff" fill-opacity=".05" d="M240 288h48v48h-48z"/><path stroke="#313131" stroke-opacity=".3" d="M240.5 288.5h47v47h-47z"/><path fill="#fff" fill-opacity=".05" d="M288 288h48v48h-48z"/><path stroke="#313131" stroke-opacity=".3" d="M288.5 288.5h47v47h-47z"/><path fill="#fff" fill-opacity=".05" d="M336 288h48v48h-48z"/><path stroke="#313131" stroke-opacity=".3" d="M336.5 288.5h47v47h-47z"/><path fill="#fff" fill-opacity=".05" d="M384 288h48v48h-48z"/><path stroke="#313131" stroke-opacity=".3" d="M384.5 288.5h47v47h-47zm48 0h47v47h-47zm48 0h47v47h-47zm48 0h47v47h-47zm48 0h47v47h-47z"/><path fill="#fff" fill-opacity=".05" d="M624 288h48v48h-48z"/><path stroke="#313131" stroke-opacity=".3" d="M624.5 288.5h47v47h-47z"/><path fill="#fff" fill-opacity=".05" d="M672 288h48v48h-48z"/><path stroke="#313131" stroke-opacity=".3" d="M672.5 288.5h47v47h-47z"/><path fill="#fff" fill-opacity=".05" d="M720 288h48v48h-48z"/><path stroke="#313131" stroke-opacity=".3" d="M720.5 288.5h47v47h-47z"/><path fill="#fff" fill-opacity=".05" d="M0 336h48v48H0z"/><path stroke="#313131" stroke-opacity=".3" d="M.5 336.5h47v47H.5z"/><path fill="#fff" fill-opacity=".05" d="M48 336h48v48H48z"/><path stroke="#313131" stroke-opacity=".3" d="M48.5 336.5h47v47h-47z"/><path fill="#fff" fill-opacity=".05" d="M96 336h48v48H96z"/><path stroke="#313131" stroke-opacity=".3" d="M96.5 336.5h47v47h-47zm48 0h47v47h-47zm48 0h47v47h-47z"/><path fill="#fff" fill-opacity=".05" d="M240 336h48v48h-48z"/><path stroke="#313131" stroke-opacity=".3" d="M240.5 336.5h47v47h-47z"/><path fill="#fff" fill-opacity=".05" d="M288 336h48v48h-48z"/><path stroke="#313131" stroke-opacity=".3" d="M288.5 336.5h47v47h-47z"/><path fill="#fff" fill-opacity=".05" d="M336 336h48v48h-48z"/><path stroke="#313131" stroke-opacity=".3" d="M336.5 336.5h47v47h-47z"/><path fill="#fff" fill-opacity=".05" d="M384 336h48v48h-48z"/><path stroke="#313131" stroke-opacity=".3" d="M384.5 336.5h47v47h-47z"/><path fill="#fff" fill-opacity=".05" d="M432 336h48v48h-48z"/><path stroke="#313131" stroke-opacity=".3" d="M432.5 336.5h47v47h-47zm48 0h47v47h-47z"/><path fill="#fff" fill-opacity=".05" d="M528 336h48v48h-48z"/><path stroke="#313131" stroke-opacity=".3" d="M528.5 336.5h47v47h-47zm48 0h47v47h-47z"/><path fill="#fff" fill-opacity=".05" d="M624 336h48v48h-48z"/><path stroke="#313131" stroke-opacity=".3" d="M624.5 336.5h47v47h-47z"/><path fill="#fff" fill-opacity=".05" d="M672 336h48v48h-48z"/><path stroke="#313131" stroke-opacity=".3" d="M672.5 336.5h47v47h-47z"/><path fill="#fff" fill-opacity=".05" d="M720 336h48v48h-48z"/><path stroke="#313131" stroke-opacity=".3" d="M720.5 336.5h47v47h-47zm-720 48h47v47H.5zm48 0h47v47h-47z"/><path fill="#fff" fill-opacity=".05" d="M96 384h48v48H96z"/><path stroke="#313131" stroke-opacity=".3" d="M96.5 384.5h47v47h-47z"/><path fill="#fff" fill-opacity=".05" d="M144 384h48v48h-48z"/><path stroke="#313131" stroke-opacity=".3" d="M144.5 384.5h47v47h-47zm48 0h47v47h-47zm48 0h47v47h-47z"/><path fill="#fff" fill-opacity=".05" d="M288 384h48v48h-48z"/><path stroke="#313131" stroke-opacity=".3" d="M288.5 384.5h47v47h-47z"/><path fill="#fff" fill-opacity=".05" d="M336 384h48v48h-48z"/><path stroke="#313131" stroke-opacity=".3" d="M336.5 384.5h47v47h-47z"/><path fill="#fff" fill-opacity=".05" d="M384 384h48v48h-48z"/><path stroke="#313131" stroke-opacity=".3" d="M384.5 384.5h47v47h-47z"/><path fill="#fff" fill-opacity=".05" d="M432 384h48v48h-48z"/><path stroke="#313131" stroke-opacity=".3" d="M432.5 384.5h47v47h-47z"/><path fill="#fff" fill-opacity=".05" d="M480 384h48v48h-48z"/><path stroke="#313131" stroke-opacity=".3" d="M480.5 384.5h47v47h-47zm48 0h47v47h-47zm48 0h47v47h-47z"/><path fill="#fff" fill-opacity=".05" d="M624 384h48v48h-48z"/><path stroke="#313131" stroke-opacity=".3" d="M624.5 384.5h47v47h-47z"/><path fill="#fff" fill-opacity=".05" d="M672 384h48v48h-48z"/><path stroke="#313131" stroke-opacity=".3" d="M672.5 384.5h47v47h-47z"/><path fill="#fff" fill-opacity=".05" d="M720 384h48v48h-48z"/><path stroke="#313131" stroke-opacity=".3" d="M720.5 384.5h47v47h-47zm-720 48h47v47H.5zm48 0h47v47h-47z"/><path fill="#fff" fill-opacity=".05" d="M96 432h48v48H96z"/><path stroke="#313131" stroke-opacity=".3" d="M96.5 432.5h47v47h-47z"/><path fill="#fff" fill-opacity=".05" d="M144 432h48v48h-48z"/><path stroke="#313131" stroke-opacity=".3" d="M144.5 432.5h47v47h-47zm48 0h47v47h-47zm48 0h47v47h-47z"/><path fill="#fff" fill-opacity=".05" d="M288 432h48v48h-48z"/><path stroke="#313131" stroke-opacity=".3" d="M288.5 432.5h47v47h-47z"/><path fill="#fff" fill-opacity=".05" d="M336 432h48v48h-48z"/><path stroke="#313131" stroke-opacity=".3" d="M336.5 432.5h47v47h-47z"/><path fill="#fff" fill-opacity=".05" d="M384 432h48v48h-48z"/><path stroke="#313131" stroke-opacity=".3" d="M384.5 432.5h47v47h-47z"/><path fill="#fff" fill-opacity=".05" d="M432 432h48v48h-48z"/><path stroke="#313131" stroke-opacity=".3" d="M432.5 432.5h47v47h-47z"/><path fill="#fff" fill-opacity=".05" d="M480 432h48v48h-48z"/><path stroke="#313131" stroke-opacity=".3" d="M480.5 432.5h47v47h-47z"/><path fill="#fff" fill-opacity=".05" d="M528 432h48v48h-48z"/><path stroke="#313131" stroke-opacity=".3" d="M528.5 432.5h47v47h-47z"/><path fill="#fff" fill-opacity=".05" d="M576 432h48v48h-48z"/><path stroke="#313131" stroke-opacity=".3" d="M576.5 432.5h47v47h-47z"/><path fill="#fff" fill-opacity=".05" d="M624 432h48v48h-48z"/><path stroke="#313131" stroke-opacity=".3" d="M624.5 432.5h47v47h-47z"/><path fill="#fff" fill-opacity=".05" d="M672 432h48v48h-48z"/><path stroke="#313131" stroke-opacity=".3" d="M672.5 432.5h47v47h-47z"/><path fill="#fff" fill-opacity=".05" d="M720 432h48v48h-48z"/><path stroke="#313131" stroke-opacity=".3" d="M720.5 432.5h47v47h-47zm-720 48h47v47H.5zm48 0h47v47h-47z"/><path fill="#fff" fill-opacity=".05" d="M96 480h48v48H96z"/><path stroke="#313131" stroke-opacity=".3" d="M96.5 480.5h47v47h-47z"/><path fill="#fff" fill-opacity=".05" d="M144 480h48v48h-48z"/><path stroke="#313131" stroke-opacity=".3" d="M144.5 480.5h47v47h-47zm48 0h47v47h-47zm48 0h47v47h-47z"/><path fill="#fff" fill-opacity=".05" d="M288 480h48v48h-48z"/><path stroke="#313131" stroke-opacity=".3" d="M288.5 480.5h47v47h-47z"/><path fill="#fff" fill-opacity=".05" d="M336 480h48v48h-48z"/><path stroke="#313131" stroke-opacity=".3" d="M336.5 480.5h47v47h-47z"/><path fill="#fff" fill-opacity=".05" d="M384 480h48v48h-48z"/><path stroke="#313131" stroke-opacity=".3" d="M384.5 480.5h47v47h-47z"/><path fill="#fff" fill-opacity=".05" d="M432 480h48v48h-48z"/><path stroke="#313131" stroke-opacity=".3" d="M432.5 480.5h47v47h-47zm48 0h47v47h-47zm48 0h47v47h-47zm48 0h47v47h-47zm48 0h47v47h-47zm48 0h47v47h-47zm48 0h47v47h-47zm48-480h47v47h-47zm48 0h47v47h-47zm48 0h47v47h-47zm48 0h47v47h-47zm48 0h47v47h-47zm48 0h47v47h-47zm48 0h47v47h-47zm48 0h47v47h-47zm48 0h47v47h-47zm48 0h47v47h-47zm48 0h47v47h-47zm48 0h47v47h-47zm48 0h47v47h-47zm48 0h47v47h-47zm48 0h47v47h-47zm48 0h47v47h-47zm-720 48h47v47h-47zm48 0h47v47h-47zm48 0h47v47h-47zm48 0h47v47h-47zm48 0h47v47h-47zm48 0h47v47h-47zm48 0h47v47h-47zm48 0h47v47h-47zm48 0h47v47h-47zm48 0h47v47h-47zm48 0h47v47h-47zm48 0h47v47h-47zm48 0h47v47h-47zm48 0h47v47h-47zm48 0h47v47h-47zm48 0h47v47h-47zm-720 48h47v47h-47zm48 0h47v47h-47zm48 0h47v47h-47zm48 0h47v47h-47zm48 0h47v47h-47zm48 0h47v47h-47zm48 0h47v47h-47zm48 0h47v47h-47zm48 0h47v47h-47zm48 0h47v47h-47zm48 0h47v47h-47zm48 0h47v47h-47zm48 0h47v47h-47zm48 0h47v47h-47zm48 0h47v47h-47zm48 0h47v47h-47zm-720 48h47v47h-47zm48 0h47v47h-47zm48 0h47v47h-47zm48 0h47v47h-47zm48 0h47v47h-47zm48 0h47v47h-47zm48 0h47v47h-47zm48 0h47v47h-47zm48 0h47v47h-47zm48 0h47v47h-47z"/><path fill="#fff" fill-opacity=".05" d="M1248 144h48v48h-48z"/><path stroke="#313131" stroke-opacity=".3" d="M1248.5 144.5h47v47h-47z"/><path fill="#fff" fill-opacity=".05" d="M1296 144h48v48h-48z"/><path stroke="#313131" stroke-opacity=".3" d="M1296.5 144.5h47v47h-47zm48 0h47v47h-47zm48 0h47v47h-47zm48 0h47v47h-47zm48 0h47v47h-47zm-720 48h47v47h-47zm48 0h47v47h-47zm48 0h47v47h-47zm48 0h47v47h-47zm48 0h47v47h-47zm48 0h47v47h-47z"/><path fill="#fff" fill-opacity=".05" d="M1056 192h48v48h-48z"/><path stroke="#313131" stroke-opacity=".3" d="M1056.5 192.5h47v47h-47z"/><path fill="#fff" fill-opacity=".05" d="M1104 192h48v48h-48z"/><path stroke="#313131" stroke-opacity=".3" d="M1104.5 192.5h47v47h-47zm48 0h47v47h-47zm48 0h47v47h-47zm48 0h47v47h-47zm48 0h47v47h-47zm48 0h47v47h-47zm48 0h47v47h-47z"/><path fill="#fff" fill-opacity=".05" d="M1440 192h48v48h-48z"/><path stroke="#313131" stroke-opacity=".3" d="M1440.5 192.5h47v47h-47z"/><path fill="#fff" fill-opacity=".05" d="M1488 192h48v48h-48z"/><path stroke="#313131" stroke-opacity=".3" d="M1488.5 192.5h47v47h-47zm-720 48h47v47h-47zm48 0h47v47h-47zm48 0h47v47h-47z"/><path fill="#fff" fill-opacity=".05" d="M912 240h48v48h-48z"/><path stroke="#313131" stroke-opacity=".3" d="M912.5 240.5h47v47h-47z"/><path fill="#fff" fill-opacity=".05" d="M960 240h48v48h-48z"/><path stroke="#313131" stroke-opacity=".3" d="M960.5 240.5h47v47h-47z"/><path fill="#fff" fill-opacity=".05" d="M1008 240h48v48h-48z"/><path stroke="#313131" stroke-opacity=".3" d="M1008.5 240.5h47v47h-47z"/><path fill="#fff" fill-opacity=".05" d="M1056 240h48v48h-48z"/><path stroke="#313131" stroke-opacity=".3" d="M1056.5 240.5h47v47h-47z"/><path fill="#fff" fill-opacity=".05" d="M1104 240h48v48h-48z"/><path stroke="#313131" stroke-opacity=".3" d="M1104.5 240.5h47v47h-47zm48 0h47v47h-47zm48 0h47v47h-47zm48 0h47v47h-47zm48 0h47v47h-47zm48 0h47v47h-47zm48 0h47v47h-47z"/><path fill="#fff" fill-opacity=".05" d="M1440 240h48v48h-48z"/><path stroke="#313131" stroke-opacity=".3" d="M1440.5 240.5h47v47h-47z"/><path fill="#fff" fill-opacity=".05" d="M1488 240h48v48h-48z"/><path stroke="#313131" stroke-opacity=".3" d="M1488.5 240.5h47v47h-47z"/><path fill="#fff" fill-opacity=".05" d="M768 288h48v48h-48z"/><path stroke="#313131" stroke-opacity=".3" d="M768.5 288.5h47v47h-47z"/><path fill="#fff" fill-opacity=".05" d="M816 288h48v48h-48z"/><path stroke="#313131" stroke-opacity=".3" d="M816.5 288.5h47v47h-47zm48 0h47v47h-47zm48 0h47v47h-47z"/><path fill="#fff" fill-opacity=".05" d="M960 288h48v48h-48z"/><path stroke="#313131" stroke-opacity=".3" d="M960.5 288.5h47v47h-47z"/><path fill="#fff" fill-opacity=".05" d="M1008 288h48v48h-48z"/><path stroke="#313131" stroke-opacity=".3" d="M1008.5 288.5h47v47h-47z"/><path fill="#fff" fill-opacity=".05" d="M1056 288h48v48h-48z"/><path stroke="#313131" stroke-opacity=".3" d="M1056.5 288.5h47v47h-47z"/><path fill="#fff" fill-opacity=".05" d="M1104 288h48v48h-48z"/><path stroke="#313131" stroke-opacity=".3" d="M1104.5 288.5h47v47h-47z"/><path fill="#fff" fill-opacity=".05" d="M1152 288h48v48h-48z"/><path stroke="#313131" stroke-opacity=".3" d="M1152.5 288.5h47v47h-47zm48 0h47v47h-47zm48 0h47v47h-47zm48 0h47v47h-47zm48 0h47v47h-47z"/><path fill="#fff" fill-opacity=".05" d="M1392 288h48v48h-48z"/><path stroke="#313131" stroke-opacity=".3" d="M1392.5 288.5h47v47h-47z"/><path fill="#fff" fill-opacity=".05" d="M1440 288h48v48h-48z"/><path stroke="#313131" stroke-opacity=".3" d="M1440.5 288.5h47v47h-47z"/><path fill="#fff" fill-opacity=".05" d="M1488 288h48v48h-48z"/><path stroke="#313131" stroke-opacity=".3" d="M1488.5 288.5h47v47h-47z"/><path fill="#fff" fill-opacity=".05" d="M768 336h48v48h-48z"/><path stroke="#313131" stroke-opacity=".3" d="M768.5 336.5h47v47h-47z"/><path fill="#fff" fill-opacity=".05" d="M816 336h48v48h-48z"/><path stroke="#313131" stroke-opacity=".3" d="M816.5 336.5h47v47h-47z"/><path fill="#fff" fill-opacity=".05" d="M864 336h48v48h-48z"/><path stroke="#313131" stroke-opacity=".3" d="M864.5 336.5h47v47h-47zm48 0h47v47h-47zm48 0h47v47h-47z"/><path fill="#fff" fill-opacity=".05" d="M1008 336h48v48h-48z"/><path stroke="#313131" stroke-opacity=".3" d="M1008.5 336.5h47v47h-47z"/><path fill="#fff" fill-opacity=".05" d="M1056 336h48v48h-48z"/><path stroke="#313131" stroke-opacity=".3" d="M1056.5 336.5h47v47h-47z"/><path fill="#fff" fill-opacity=".05" d="M1104 336h48v48h-48z"/><path stroke="#313131" stroke-opacity=".3" d="M1104.5 336.5h47v47h-47z"/><path fill="#fff" fill-opacity=".05" d="M1152 336h48v48h-48z"/><path stroke="#313131" stroke-opacity=".3" d="M1152.5 336.5h47v47h-47z"/><path fill="#fff" fill-opacity=".05" d="M1200 336h48v48h-48z"/><path stroke="#313131" stroke-opacity=".3" d="M1200.5 336.5h47v47h-47zm48 0h47v47h-47z"/><path fill="#fff" fill-opacity=".05" d="M1296 336h48v48h-48z"/><path stroke="#313131" stroke-opacity=".3" d="M1296.5 336.5h47v47h-47zm48 0h47v47h-47z"/><path fill="#fff" fill-opacity=".05" d="M1392 336h48v48h-48z"/><path stroke="#313131" stroke-opacity=".3" d="M1392.5 336.5h47v47h-47z"/><path fill="#fff" fill-opacity=".05" d="M1440 336h48v48h-48z"/><path stroke="#313131" stroke-opacity=".3" d="M1440.5 336.5h47v47h-47z"/><path fill="#fff" fill-opacity=".05" d="M1488 336h48v48h-48z"/><path stroke="#313131" stroke-opacity=".3" d="M1488.5 336.5h47v47h-47zm-720 48h47v47h-47zm48 0h47v47h-47z"/><path fill="#fff" fill-opacity=".05" d="M864 384h48v48h-48z"/><path stroke="#313131" stroke-opacity=".3" d="M864.5 384.5h47v47h-47z"/><path fill="#fff" fill-opacity=".05" d="M912 384h48v48h-48z"/><path stroke="#313131" stroke-opacity=".3" d="M912.5 384.5h47v47h-47zm48 0h47v47h-47zm48 0h47v47h-47z"/><path fill="#fff" fill-opacity=".05" d="M1056 384h48v48h-48z"/><path stroke="#313131" stroke-opacity=".3" d="M1056.5 384.5h47v47h-47z"/><path fill="#fff" fill-opacity=".05" d="M1104 384h48v48h-48z"/><path stroke="#313131" stroke-opacity=".3" d="M1104.5 384.5h47v47h-47z"/><path fill="#fff" fill-opacity=".05" d="M1152 384h48v48h-48z"/><path stroke="#313131" stroke-opacity=".3" d="M1152.5 384.5h47v47h-47z"/><path fill="#fff" fill-opacity=".05" d="M1200 384h48v48h-48z"/><path stroke="#313131" stroke-opacity=".3" d="M1200.5 384.5h47v47h-47z"/><path fill="#fff" fill-opacity=".05" d="M1248 384h48v48h-48z"/><path stroke="#313131" stroke-opacity=".3" d="M1248.5 384.5h47v47h-47zm48 0h47v47h-47zm48 0h47v47h-47z"/><path fill="#fff" fill-opacity=".05" d="M1392 384h48v48h-48z"/><path stroke="#313131" stroke-opacity=".3" d="M1392.5 384.5h47v47h-47z"/><path fill="#fff" fill-opacity=".05" d="M1440 384h48v48h-48z"/><path stroke="#313131" stroke-opacity=".3" d="M1440.5 384.5h47v47h-47z"/><path fill="#fff" fill-opacity=".05" d="M1488 384h48v48h-48z"/><path stroke="#313131" stroke-opacity=".3" d="M1488.5 384.5h47v47h-47zm-720 48h47v47h-47zm48 0h47v47h-47z"/><path fill="#fff" fill-opacity=".05" d="M864 432h48v48h-48z"/><path stroke="#313131" stroke-opacity=".3" d="M864.5 432.5h47v47h-47z"/><path fill="#fff" fill-opacity=".05" d="M912 432h48v48h-48z"/><path stroke="#313131" stroke-opacity=".3" d="M912.5 432.5h47v47h-47zm48 0h47v47h-47zm48 0h47v47h-47z"/><path fill="#fff" fill-opacity=".05" d="M1056 432h48v48h-48z"/><path stroke="#313131" stroke-opacity=".3" d="M1056.5 432.5h47v47h-47z"/><path fill="#fff" fill-opacity=".05" d="M1104 432h48v48h-48z"/><path stroke="#313131" stroke-opacity=".3" d="M1104.5 432.5h47v47h-47z"/><path fill="#fff" fill-opacity=".05" d="M1152 432h48v48h-48z"/><path stroke="#313131" stroke-opacity=".3" d="M1152.5 432.5h47v47h-47z"/><path fill="#fff" fill-opacity=".05" d="M1200 432h48v48h-48z"/><path stroke="#313131" stroke-opacity=".3" d="M1200.5 432.5h47v47h-47z"/><path fill="#fff" fill-opacity=".05" d="M1248 432h48v48h-48z"/><path stroke="#313131" stroke-opacity=".3" d="M1248.5 432.5h47v47h-47z"/><path fill="#fff" fill-opacity=".05" d="M1296 432h48v48h-48z"/><path stroke="#313131" stroke-opacity=".3" d="M1296.5 432.5h47v47h-47z"/><path fill="#fff" fill-opacity=".05" d="M1344 432h48v48h-48z"/><path stroke="#313131" stroke-opacity=".3" d="M1344.5 432.5h47v47h-47z"/><path fill="#fff" fill-opacity=".05" d="M1392 432h48v48h-48z"/><path stroke="#313131" stroke-opacity=".3" d="M1392.5 432.5h47v47h-47z"/><path fill="#fff" fill-opacity=".05" d="M1440 432h48v48h-48z"/><path stroke="#313131" stroke-opacity=".3" d="M1440.5 432.5h47v47h-47z"/><path fill="#fff" fill-opacity=".05" d="M1488 432h48v48h-48z"/><path stroke="#313131" stroke-opacity=".3" d="M1488.5 432.5h47v47h-47zm-720 48h47v47h-47zm48 0h47v47h-47z"/><path fill="#fff" fill-opacity=".05" d="M864 480h48v48h-48z"/><path stroke="#313131" stroke-opacity=".3" d="M864.5 480.5h47v47h-47z"/><path fill="#fff" fill-opacity=".05" d="M912 480h48v48h-48z"/><path stroke="#313131" stroke-opacity=".3" d="M912.5 480.5h47v47h-47zm48 0h47v47h-47zm48 0h47v47h-47z"/><path fill="#fff" fill-opacity=".05" d="M1056 480h48v48h-48z"/><path stroke="#313131" stroke-opacity=".3" d="M1056.5 480.5h47v47h-47z"/><path fill="#fff" fill-opacity=".05" d="M1104 480h48v48h-48z"/><path stroke="#313131" stroke-opacity=".3" d="M1104.5 480.5h47v47h-47z"/><path fill="#fff" fill-opacity=".05" d="M1152 480h48v48h-48z"/><path stroke="#313131" stroke-opacity=".3" d="M1152.5 480.5h47v47h-47z"/><path fill="#fff" fill-opacity=".05" d="M1200 480h48v48h-48z"/><path stroke="#313131" stroke-opacity=".3" d="M1200.5 480.5h47v47h-47zm48 0h47v47h-47zm48 0h47v47h-47zm48 0h47v47h-47zm48 0h47v47h-47zm48 0h47v47h-47zm48 0h47v47h-47zm48-480h47v47h-47zm48 0h47v47h-47zm-48 48h47v47h-47zm48 0h47v47h-47zm-48 48h47v47h-47zm48 0h47v47h-47zm-48 48h47v47h-47zm48 0h47v47h-47zm-48 48h47v47h-47zm48 0h47v47h-47zm-48 48h47v47h-47zm48 0h47v47h-47z"/><path fill="#fff" fill-opacity=".05" d="M1536 288h48v48h-48z"/><path stroke="#313131" stroke-opacity=".3" d="M1536.5 288.5h47v47h-47z"/><path fill="#fff" fill-opacity=".05" d="M1584 288h48v48h-48z"/><path stroke="#313131" stroke-opacity=".3" d="M1584.5 288.5h47v47h-47z"/><path fill="#fff" fill-opacity=".05" d="M1536 336h48v48h-48z"/><path stroke="#313131" stroke-opacity=".3" d="M1536.5 336.5h47v47h-47z"/><path fill="#fff" fill-opacity=".05" d="M1584 336h48v48h-48z"/><path stroke="#313131" stroke-opacity=".3" d="M1584.5 336.5h47v47h-47zm-48 48h47v47h-47zm48 0h47v47h-47zm-48 48h47v47h-47zm48 0h47v47h-47zm-48 48h47v47h-47zm48 0h47v47h-47z"/></svg>