<svg width="72" height="52" viewBox="0 0 72 52" fill="none" xmlns="http://www.w3.org/2000/svg">
<path d="M2.29889 18.8338V19.6001H1.53259V18.8338H2.29889ZM2.29889 18.0675V18.8338H1.53259V18.0675H2.29889ZM2.29889 17.3012V18.0675H1.53259V17.3012H2.29889ZM2.29889 16.5349V17.3012H1.53259V16.5349H2.29889ZM2.29889 15.7686V16.5349H1.53259V15.7686H2.29889ZM2.29889 15.0023V15.7686H1.53259V15.0023H2.29889ZM2.29889 14.236V15.0023H1.53259V14.236H2.29889ZM2.29889 13.4697V14.236H1.53259V13.4697H2.29889ZM2.29889 12.7034V13.4697H1.53259V12.7034H2.29889ZM2.29889 11.9371V12.7034H1.53259V11.9371H2.29889ZM2.29889 11.1708V11.9371H1.53259V11.1708H2.29889ZM2.29889 10.4045V11.1708H1.53259V10.4045H2.29889ZM2.29889 9.63824V10.4045H1.53259V9.63824H2.29889ZM2.29889 8.87194V9.63824H1.53259V8.87194H2.29889ZM2.29889 8.10564V8.87194H1.53259V8.10564H2.29889ZM3.06519 8.10564V8.87194H2.29889V8.10564H3.06519ZM3.06519 8.87194V9.63824H2.29889V8.87194H3.06519ZM3.06519 9.63824V10.4045H2.29889V9.63824H3.06519ZM3.06519 10.4045V11.1708H2.29889V10.4045H3.06519ZM3.06519 11.1708V11.9371H2.29889V11.1708H3.06519ZM3.06519 11.9371V12.7034H2.29889V11.9371H3.06519ZM3.06519 12.7034V13.4697H2.29889V12.7034H3.06519ZM3.83149 13.4697V14.236H3.06519V13.4697H3.83149ZM3.83149 14.236V15.0023H3.06519V14.236H3.83149ZM3.83149 15.0023V15.7686H3.06519V15.0023H3.83149ZM3.83149 15.7686V16.5349H3.06519V15.7686H3.83149ZM3.83149 16.5349V17.3012H3.06519V16.5349H3.83149ZM3.83149 17.3012V18.0675H3.06519V17.3012H3.83149ZM3.83149 18.0675V18.8338H3.06519V18.0675H3.83149ZM3.83149 18.8338V19.6001H3.06519V18.8338H3.83149ZM4.59778 18.8338V19.6001H3.83149V18.8338H4.59778ZM5.36408 18.8338V19.6001H4.59778V18.8338H5.36408ZM5.36408 18.0675V18.8338H4.59778V18.0675H5.36408ZM5.36408 17.3012V18.0675H4.59778V17.3012H5.36408ZM5.36408 16.5349V17.3012H4.59778V16.5349H5.36408ZM5.36408 15.7686V16.5349H4.59778V15.7686H5.36408ZM5.36408 15.0023V15.7686H4.59778V15.0023H5.36408ZM5.36408 14.236V15.0023H4.59778V14.236H5.36408ZM5.36408 13.4697V14.236H4.59778V13.4697H5.36408ZM4.59778 13.4697V14.236H3.83149V13.4697H4.59778ZM4.59778 12.7034V13.4697H3.83149V12.7034H4.59778ZM4.59778 14.236V15.0023H3.83149V14.236H4.59778ZM4.59778 15.0023V15.7686H3.83149V15.0023H4.59778ZM4.59778 15.7686V16.5349H3.83149V15.7686H4.59778ZM4.59778 16.5349V17.3012H3.83149V16.5349H4.59778ZM4.59778 17.3012V18.0675H3.83149V17.3012H4.59778ZM4.59778 18.0675V18.8338H3.83149V18.0675H4.59778ZM3.06519 18.8338V19.6001H2.29889V18.8338H3.06519ZM3.06519 18.0675V18.8338H2.29889V18.0675H3.06519ZM3.06519 17.3012V18.0675H2.29889V17.3012H3.06519ZM3.06519 16.5349V17.3012H2.29889V16.5349H3.06519ZM3.06519 15.7686V16.5349H2.29889V15.7686H3.06519ZM3.06519 15.0023V15.7686H2.29889V15.0023H3.06519ZM3.06519 14.236V15.0023H2.29889V14.236H3.06519ZM3.06519 13.4697V14.236H2.29889V13.4697H3.06519ZM2.29889 0.442669V1.20897H1.53259V0.442669H2.29889ZM2.29889 1.20897V1.97526H1.53259V1.20897H2.29889ZM2.29889 1.97526V2.74156H1.53259V1.97526H2.29889ZM2.29889 2.74156V3.50786H1.53259V2.74156H2.29889ZM2.29889 3.50786V4.27416H1.53259V3.50786H2.29889ZM2.29889 4.27416V5.04045H1.53259V4.27416H2.29889ZM2.29889 5.04045V5.80675H1.53259V5.04045H2.29889ZM2.29889 5.80675V6.57305H1.53259V5.80675H2.29889ZM2.29889 6.57305V7.33934H1.53259V6.57305H2.29889ZM2.29889 7.33934V8.10564H1.53259V7.33934H2.29889ZM4.59778 0.442669V1.20897H3.83149V0.442669H4.59778ZM4.59778 1.20897V1.97526H3.83149V1.20897H4.59778ZM4.59778 1.97526V2.74156H3.83149V1.97526H4.59778ZM4.59778 2.74156V3.50786H3.83149V2.74156H4.59778ZM4.59778 3.50786V4.27416H3.83149V3.50786H4.59778ZM4.59778 4.27416V5.04045H3.83149V4.27416H4.59778ZM4.59778 5.80675V6.57305H3.83149V5.80675H4.59778ZM4.59778 6.57305V7.33934H3.83149V6.57305H4.59778ZM4.59778 7.33934V8.10564H3.83149V7.33934H4.59778ZM4.59778 8.10564V8.87194H3.83149V8.10564H4.59778ZM4.59778 8.87194V9.63824H3.83149V8.87194H4.59778ZM4.59778 9.63824V10.4045H3.83149V9.63824H4.59778ZM4.59778 10.4045V11.1708H3.83149V10.4045H4.59778ZM5.36408 11.1708V11.9371H4.59778V11.1708H5.36408ZM5.36408 11.9371V12.7034H4.59778V11.9371H5.36408ZM5.36408 12.7034V13.4697H4.59778V12.7034H5.36408ZM5.36408 10.4045V11.1708H4.59778V10.4045H5.36408ZM5.36408 9.63824V10.4045H4.59778V9.63824H5.36408ZM5.36408 8.87194V9.63824H4.59778V8.87194H5.36408ZM5.36408 8.10564V8.87194H4.59778V8.10564H5.36408ZM5.36408 7.33934V8.10564H4.59778V7.33934H5.36408ZM5.36408 6.57305V7.33934H4.59778V6.57305H5.36408ZM5.36408 5.80675V6.57305H4.59778V5.80675H5.36408ZM5.36408 5.04045V5.80675H4.59778V5.04045H5.36408ZM5.36408 4.27416V5.04045H4.59778V4.27416H5.36408ZM5.36408 3.50786V4.27416H4.59778V3.50786H5.36408ZM4.59778 5.04045V5.80675H3.83149V5.04045H4.59778ZM5.36408 2.74156V3.50786H4.59778V2.74156H5.36408ZM5.36408 1.97526V2.74156H4.59778V1.97526H5.36408ZM5.36408 1.20897V1.97526H4.59778V1.20897H5.36408ZM5.36408 0.442669V1.20897H4.59778V0.442669H5.36408ZM3.83149 0.442669V1.20897H3.06519V0.442669H3.83149ZM3.06519 0.442669V1.20897H2.29889V0.442669H3.06519ZM3.06519 1.20897V1.97526H2.29889V1.20897H3.06519ZM3.83149 1.20897V1.97526H3.06519V1.20897H3.83149ZM3.83149 1.97526V2.74156H3.06519V1.97526H3.83149ZM3.83149 2.74156V3.50786H3.06519V2.74156H3.83149ZM3.83149 3.50786V4.27416H3.06519V3.50786H3.83149ZM3.83149 4.27416V5.04045H3.06519V4.27416H3.83149ZM3.83149 5.04045V5.80675H3.06519V5.04045H3.83149ZM3.83149 5.80675V6.57305H3.06519V5.80675H3.83149ZM3.06519 6.57305V7.33934H2.29889V6.57305H3.06519ZM3.06519 7.33934V8.10564H2.29889V7.33934H3.06519ZM3.06519 5.80675V6.57305H2.29889V5.80675H3.06519ZM3.06519 5.04045V5.80675H2.29889V5.04045H3.06519ZM3.06519 4.27416V5.04045H2.29889V4.27416H3.06519ZM3.06519 3.50786V4.27416H2.29889V3.50786H3.06519ZM3.06519 2.74156V3.50786H2.29889V2.74156H3.06519ZM3.06519 1.97526V2.74156H2.29889V1.97526H3.06519ZM3.83149 6.57305V7.33934H3.06519V6.57305H3.83149ZM3.83149 7.33934V8.10564H3.06519V7.33934H3.83149ZM3.83149 8.10564V8.87194H3.06519V8.10564H3.83149ZM3.83149 8.87194V9.63824H3.06519V8.87194H3.83149ZM3.83149 9.63824V10.4045H3.06519V9.63824H3.83149ZM3.83149 10.4045V11.1708H3.06519V10.4045H3.83149ZM3.83149 11.1708V11.9371H3.06519V11.1708H3.83149ZM3.83149 11.9371V12.7034H3.06519V11.9371H3.83149ZM3.83149 12.7034V13.4697H3.06519V12.7034H3.83149ZM4.59778 11.9371V12.7034H3.83149V11.9371H4.59778ZM4.59778 11.1708V11.9371H3.83149V11.1708H4.59778ZM6.13038 18.8338V19.6001H5.36408V18.8338H6.13038ZM6.89667 18.8338V19.6001H6.13038V18.8338H6.89667ZM6.89667 18.0675V18.8338H6.13038V18.0675H6.89667ZM6.89667 17.3012V18.0675H6.13038V17.3012H6.89667ZM6.89667 16.5349V17.3012H6.13038V16.5349H6.89667ZM6.89667 15.7686V16.5349H6.13038V15.7686H6.89667ZM6.13038 15.7686V16.5349H5.36408V15.7686H6.13038ZM6.13038 16.5349V17.3012H5.36408V16.5349H6.13038ZM6.13038 17.3012V18.0675H5.36408V17.3012H6.13038ZM6.13038 18.0675V18.8338H5.36408V18.0675H6.13038ZM7.66297 15.7686V16.5349H6.89667V15.7686H7.66297ZM8.42927 15.7686V16.5349H7.66297V15.7686H8.42927ZM9.19557 15.7686V16.5349H8.42927V15.7686H9.19557ZM9.19557 18.0675V18.8338H8.42927V18.0675H9.19557ZM8.42927 18.8338V19.6001H7.66297V18.8338H8.42927ZM7.66297 18.8338V19.6001H6.89667V18.8338H7.66297ZM9.19557 18.8338V19.6001H8.42927V18.8338H9.19557ZM8.42927 18.0675V18.8338H7.66297V18.0675H8.42927ZM7.66297 18.0675V18.8338H6.89667V18.0675H7.66297ZM7.66297 17.3012V18.0675H6.89667V17.3012H7.66297ZM8.42927 17.3012V18.0675H7.66297V17.3012H8.42927ZM9.19557 17.3012V18.0675H8.42927V17.3012H9.19557ZM9.19557 16.5349V17.3012H8.42927V16.5349H9.19557ZM8.42927 16.5349V17.3012H7.66297V16.5349H8.42927ZM7.66297 16.5349V17.3012H6.89667V16.5349H7.66297ZM9.96186 18.8338V19.6001H9.19557V18.8338H9.96186ZM10.7282 18.8338V19.6001H9.96186V18.8338H10.7282ZM11.4945 18.8338V19.6001H10.7282V18.8338H11.4945ZM11.4945 18.0675V18.8338H10.7282V18.0675H11.4945ZM9.96186 15.7686V16.5349H9.19557V15.7686H9.96186ZM10.7282 15.7686V16.5349H9.96186V15.7686H10.7282ZM11.4945 15.7686V16.5349H10.7282V15.7686H11.4945ZM11.4945 16.5349V17.3012H10.7282V16.5349H11.4945ZM11.4945 17.3012V18.0675H10.7282V17.3012H11.4945ZM10.7282 17.3012V18.0675H9.96186V17.3012H10.7282ZM10.7282 16.5349V17.3012H9.96186V16.5349H10.7282ZM9.96186 16.5349V17.3012H9.19557V16.5349H9.96186ZM9.96186 17.3012V18.0675H9.19557V17.3012H9.96186ZM9.96186 18.0675V18.8338H9.19557V18.0675H9.96186ZM10.7282 18.0675V18.8338H9.96186V18.0675H10.7282ZM16.8713 15.0023V14.236H17.6376V15.0023H16.8713ZM16.105 15.0023V14.236H16.8713V15.0023H16.105ZM15.3387 15.0023V14.236H16.105V15.0023H15.3387ZM14.5724 15.0023V14.236H15.3387V15.0023H14.5724ZM13.8061 15.0023V14.236H14.5724V15.0023H13.8061ZM13.8061 15.7686V15.0023H14.5724V15.7686H13.8061ZM13.8061 16.5349V15.7686H14.5724V16.5349H13.8061ZM14.5724 16.5349V15.7686H15.3387V16.5349H14.5724ZM15.3387 16.5349V15.7686H16.105V16.5349H15.3387ZM16.105 16.5349V15.7686H16.8713V16.5349H16.105ZM16.105 15.7686V15.0023H16.8713V15.7686H16.105ZM16.8713 15.7686V15.0023H17.6376V15.7686H16.8713ZM15.3387 15.7686V15.0023H16.105V15.7686H15.3387ZM14.5724 15.7686V15.0023H15.3387V15.7686H14.5724ZM16.8713 16.5349V15.7686H17.6376V16.5349H16.8713ZM17.6376 16.5349V15.7686H18.4039V16.5349H17.6376ZM17.6376 17.3012V16.5349H18.4039V17.3012H17.6376ZM16.8713 17.3012V16.5349H17.6376V17.3012H16.8713ZM16.105 17.3012V16.5349H16.8713V17.3012H16.105ZM15.3387 17.3012V16.5349H16.105V17.3012H15.3387ZM14.5724 17.3012V16.5349H15.3387V17.3012H14.5724ZM14.5724 18.0675V17.3012H15.3387V18.0675H14.5724ZM15.3387 18.0675V17.3012H16.105V18.0675H15.3387ZM16.105 18.0675V17.3012H16.8713V18.0675H16.105ZM16.8713 18.0675V17.3012H17.6376V18.0675H16.8713ZM17.6376 18.0675V17.3012H18.4039V18.0675H17.6376ZM16.105 18.8338V18.0675H16.8713V18.8338H16.105ZM15.3387 18.8338V18.0675H16.105V18.8338H15.3387ZM16.8713 18.8338V18.0675H17.6376V18.8338H16.8713ZM16.8713 19.6001V18.8338H17.6376V19.6001H16.8713ZM17.6376 19.6001V18.8338H18.4039V19.6001H17.6376ZM17.6376 18.8338V18.0675H18.4039V18.8338H17.6376ZM18.4039 18.8338V18.0675H19.1701V18.8338H18.4039ZM18.4039 19.6001V18.8338H19.1701V19.6001H18.4039ZM18.4039 18.0675V17.3012H19.1701V18.0675H18.4039ZM19.1701 18.0675V17.3012H19.9364V18.0675H19.1701ZM19.1701 17.3012V16.5349H19.9364V17.3012H19.1701ZM18.4039 17.3012V16.5349H19.1701V17.3012H18.4039ZM19.9364 17.3012V16.5349H20.7027V17.3012H19.9364ZM19.9364 18.0675V17.3012H20.7027V18.0675H19.9364ZM19.9364 18.8338V18.0675H20.7027V18.8338H19.9364ZM19.9364 19.6001V18.8338H20.7027V19.6001H19.9364ZM19.1701 19.6001V18.8338H19.9364V19.6001H19.1701ZM19.1701 18.8338V18.0675H19.9364V18.8338H19.1701ZM20.7027 19.6001V18.8338H21.469V19.6001H20.7027ZM22.2353 18.8338V18.0675H23.0016V18.8338H22.2353ZM22.2353 18.0675V17.3012H23.0016V18.0675H22.2353ZM22.2353 17.3012V16.5349H23.0016V17.3012H22.2353ZM21.469 17.3012V16.5349H22.2353V17.3012H21.469ZM20.7027 17.3012V16.5349H21.469V17.3012H20.7027ZM20.7027 18.0675V17.3012H21.469V18.0675H20.7027ZM20.7027 18.8338V18.0675H21.469V18.8338H20.7027ZM21.469 18.8338V18.0675H22.2353V18.8338H21.469ZM21.469 18.0675V17.3012H22.2353V18.0675H21.469ZM23.0016 18.0675V17.3012H23.7679V18.0675H23.0016ZM23.0016 18.8338V18.0675H23.7679V18.8338H23.0016ZM23.7679 18.8338V18.0675H24.5342V18.8338H23.7679ZM23.7679 18.0675V17.3012H24.5342V18.0675H23.7679ZM24.5342 18.0675V17.3012H25.3005V18.0675H24.5342ZM24.5342 17.3012V16.5349H25.3005V17.3012H24.5342ZM24.5342 16.5349V15.7686H25.3005V16.5349H24.5342ZM23.7679 16.5349V15.7686H24.5342V16.5349H23.7679ZM23.7679 17.3012V16.5349H24.5342V17.3012H23.7679ZM23.0016 17.3012V16.5349H23.7679V17.3012H23.0016ZM23.0016 16.5349V15.7686H23.7679V16.5349H23.0016ZM22.2353 16.5349V15.7686H23.0016V16.5349H22.2353ZM25.3005 16.5349V15.7686H26.0668V16.5349H25.3005ZM25.3005 15.7686V15.0023H26.0668V15.7686H25.3005ZM25.3005 15.0023V14.236H26.0668V15.0023H25.3005ZM25.3005 14.236V13.4697H26.0668V14.236H25.3005ZM25.3005 13.4697V12.7034H26.0668V13.4697H25.3005ZM25.3005 12.7034V11.9371H26.0668V12.7034H25.3005ZM25.3005 11.9371V11.1708H26.0668V11.9371H25.3005ZM25.3005 11.1708V10.4045H26.0668V11.1708H25.3005ZM25.3005 10.4045V9.63824H26.0668V10.4045H25.3005ZM25.3005 9.63824V8.87194H26.0668V9.63824H25.3005ZM24.5342 9.63824V8.87194H25.3005V9.63824H24.5342ZM24.5342 8.87194V8.10564H25.3005V8.87194H24.5342ZM25.3005 8.87194V8.10564H26.0668V8.87194H25.3005ZM23.7679 8.87194V8.10564H24.5342V8.87194H23.7679ZM23.0016 8.87194V8.10564H23.7679V8.87194H23.0016ZM22.2353 8.87194V8.10564H23.0016V8.87194H22.2353ZM21.469 8.87194V8.10564H22.2353V8.87194H21.469ZM22.2353 9.63824V8.87194H23.0016V9.63824H22.2353ZM22.2353 10.4045V9.63824H23.0016V10.4045H22.2353ZM22.2353 11.1708V10.4045H23.0016V11.1708H22.2353ZM22.2353 11.9371V11.1708H23.0016V11.9371H22.2353ZM22.2353 12.7034V11.9371H23.0016V12.7034H22.2353ZM22.2353 13.4697V12.7034H23.0016V13.4697H22.2353ZM22.2353 14.236V13.4697H23.0016V14.236H22.2353ZM22.2353 15.0023V14.236H23.0016V15.0023H22.2353ZM22.2353 15.7686V15.0023H23.0016V15.7686H22.2353ZM23.0016 15.7686V15.0023H23.7679V15.7686H23.0016ZM23.7679 15.7686V15.0023H24.5342V15.7686H23.7679ZM24.5342 15.7686V15.0023H25.3005V15.7686H24.5342ZM24.5342 15.0023V14.236H25.3005V15.0023H24.5342ZM24.5342 14.236V13.4697H25.3005V14.236H24.5342ZM24.5342 13.4697V12.7034H25.3005V13.4697H24.5342ZM24.5342 12.7034V11.9371H25.3005V12.7034H24.5342ZM24.5342 11.9371V11.1708H25.3005V11.9371H24.5342ZM24.5342 11.1708V10.4045H25.3005V11.1708H24.5342ZM24.5342 10.4045V9.63824H25.3005V10.4045H24.5342ZM23.7679 9.63824V8.87194H24.5342V9.63824H23.7679ZM23.0016 9.63824V8.87194H23.7679V9.63824H23.0016ZM23.0016 10.4045V9.63824H23.7679V10.4045H23.0016ZM23.0016 11.1708V10.4045H23.7679V11.1708H23.0016ZM23.0016 11.9371V11.1708H23.7679V11.9371H23.0016ZM23.0016 12.7034V11.9371H23.7679V12.7034H23.0016ZM23.7679 12.7034V11.9371H24.5342V12.7034H23.7679ZM23.7679 13.4697V12.7034H24.5342V13.4697H23.7679ZM23.7679 14.236V13.4697H24.5342V14.236H23.7679ZM23.7679 15.0023V14.236H24.5342V15.0023H23.7679ZM23.0016 15.0023V14.236H23.7679V15.0023H23.0016ZM23.0016 14.236V13.4697H23.7679V14.236H23.0016ZM23.0016 13.4697V12.7034H23.7679V13.4697H23.0016ZM23.7679 11.1708V10.4045H24.5342V11.1708H23.7679ZM23.7679 10.4045V9.63824H24.5342V10.4045H23.7679ZM23.7679 11.9371V11.1708H24.5342V11.9371H23.7679ZM16.8713 9.63824V8.87194H17.6376V9.63824H16.8713ZM16.105 9.63824V8.87194H16.8713V9.63824H16.105ZM15.3387 9.63824V8.87194H16.105V9.63824H15.3387ZM14.5724 9.63824V8.87194H15.3387V9.63824H14.5724ZM13.8061 9.63824V8.87194H14.5724V9.63824H13.8061ZM13.8061 8.87194V8.10564H14.5724V8.87194H13.8061ZM14.5724 8.87194V8.10564H15.3387V8.87194H14.5724ZM15.3387 8.87194V8.10564H16.105V8.87194H15.3387ZM16.105 8.87194V8.10564H16.8713V8.87194H16.105ZM16.8713 8.87194V8.10564H17.6376V8.87194H16.8713ZM17.6376 8.87194V8.10564H18.4039V8.87194H17.6376ZM17.6376 8.10564V7.33934H18.4039V8.10564H17.6376ZM16.8713 8.10564V7.33934H17.6376V8.10564H16.8713ZM16.105 8.10564V7.33934H16.8713V8.10564H16.105ZM15.3387 8.10564V7.33934H16.105V8.10564H15.3387ZM15.3387 7.33934V6.57305H16.105V7.33934H15.3387ZM14.5724 7.33934V6.57305H15.3387V7.33934H14.5724ZM14.5724 8.10564V7.33934H15.3387V8.10564H14.5724ZM15.3387 6.57305V5.80675H16.105V6.57305H15.3387ZM16.105 6.57305V5.80675H16.8713V6.57305H16.105ZM16.105 7.33934V6.57305H16.8713V7.33934H16.105ZM16.8713 7.33934V6.57305H17.6376V7.33934H16.8713ZM16.8713 6.57305V5.80675H17.6376V6.57305H16.8713ZM16.8713 5.80675V5.04045H17.6376V5.80675H16.8713ZM17.6376 5.80675V5.04045H18.4039V5.80675H17.6376ZM18.4039 5.80675V5.04045H19.1701V5.80675H18.4039ZM19.1701 5.80675V5.04045H19.9364V5.80675H19.1701ZM19.9364 5.80675V5.04045H20.7027V5.80675H19.9364ZM20.7027 5.80675V5.04045H21.469V5.80675H20.7027ZM21.469 5.80675V5.04045H22.2353V5.80675H21.469ZM22.2353 5.80675V5.04045H23.0016V5.80675H22.2353ZM21.469 6.57305V5.80675H22.2353V6.57305H21.469ZM20.7027 6.57305V5.80675H21.469V6.57305H20.7027ZM19.9364 6.57305V5.80675H20.7027V6.57305H19.9364ZM19.1701 6.57305V5.80675H19.9364V6.57305H19.1701ZM18.4039 6.57305V5.80675H19.1701V6.57305H18.4039ZM17.6376 6.57305V5.80675H18.4039V6.57305H17.6376ZM17.6376 7.33934V6.57305H18.4039V7.33934H17.6376ZM18.4039 7.33934V6.57305H19.1701V7.33934H18.4039ZM19.1701 7.33934V6.57305H19.9364V7.33934H19.1701ZM19.9364 7.33934V6.57305H20.7027V7.33934H19.9364ZM20.7027 7.33934V6.57305H21.469V7.33934H20.7027ZM21.469 7.33934V6.57305H22.2353V7.33934H21.469ZM22.2353 6.57305V5.80675H23.0016V6.57305H22.2353ZM23.0016 6.57305V5.80675H23.7679V6.57305H23.0016ZM23.7679 6.57305V5.80675H24.5342V6.57305H23.7679ZM23.7679 7.33934V6.57305H24.5342V7.33934H23.7679ZM24.5342 7.33934V6.57305H25.3005V7.33934H24.5342ZM24.5342 8.10564V7.33934H25.3005V8.10564H24.5342ZM23.7679 8.10564V7.33934H24.5342V8.10564H23.7679ZM23.0016 8.10564V7.33934H23.7679V8.10564H23.0016ZM22.2353 8.10564V7.33934H23.0016V8.10564H22.2353ZM21.469 8.10564V7.33934H22.2353V8.10564H21.469ZM20.7027 8.10564V7.33934H21.469V8.10564H20.7027ZM19.9364 8.10564V7.33934H20.7027V8.10564H19.9364ZM19.1701 8.10564V7.33934H19.9364V8.10564H19.1701ZM18.4039 8.10564V7.33934H19.1701V8.10564H18.4039ZM22.2353 7.33934V6.57305H23.0016V7.33934H22.2353ZM23.0016 7.33934V6.57305H23.7679V7.33934H23.0016ZM14.5724 14.236V13.4697H15.3387V14.236H14.5724ZM15.3387 14.236V13.4697H16.105V14.236H15.3387ZM16.105 14.236V13.4697H16.8713V14.236H16.105ZM16.8713 14.236V13.4697H17.6376V14.236H16.8713ZM15.3387 13.4697V12.7034H16.105V13.4697H15.3387ZM16.105 13.4697V12.7034H16.8713V13.4697H16.105ZM17.6376 13.4697V12.7034H18.4039V13.4697H17.6376ZM18.4039 13.4697V12.7034H19.1701V13.4697H18.4039ZM19.1701 13.4697V12.7034H19.9364V13.4697H19.1701ZM19.9364 13.4697V12.7034H20.7027V13.4697H19.9364ZM20.7027 13.4697V12.7034H21.469V13.4697H20.7027ZM21.469 13.4697V12.7034H22.2353V13.4697H21.469ZM16.8713 13.4697V12.7034H17.6376V13.4697H16.8713ZM14.5724 13.4697V12.7034H15.3387V13.4697H14.5724ZM15.3387 12.7034V11.9371H16.105V12.7034H15.3387ZM16.105 12.7034V11.9371H16.8713V12.7034H16.105ZM16.8713 12.7034V11.9371H17.6376V12.7034H16.8713ZM17.6376 12.7034V11.9371H18.4039V12.7034H17.6376ZM18.4039 12.7034V11.9371H19.1701V12.7034H18.4039ZM19.1701 12.7034V11.9371H19.9364V12.7034H19.1701ZM19.9364 12.7034V11.9371H20.7027V12.7034H19.9364ZM20.7027 12.7034V11.9371H21.469V12.7034H20.7027ZM21.469 12.7034V11.9371H22.2353V12.7034H21.469ZM21.469 11.9371V11.1708H22.2353V11.9371H21.469ZM20.7027 11.9371V11.1708H21.469V11.9371H20.7027ZM19.9364 11.9371V11.1708H20.7027V11.9371H19.9364ZM18.4039 11.9371V11.1708H19.1701V11.9371H18.4039ZM17.6376 11.9371V11.1708H18.4039V11.9371H17.6376ZM16.8713 11.9371V11.1708H17.6376V11.9371H16.8713ZM19.1701 11.9371V11.1708H19.9364V11.9371H19.1701ZM26.0668 16.5349V17.3012H25.3005V16.5349H26.0668ZM26.0668 17.3012V18.0675H25.3005V17.3012H26.0668ZM26.0668 18.0675V18.8338H25.3005V18.0675H26.0668ZM26.0668 18.8338V19.6001H25.3005V18.8338H26.0668ZM25.3005 18.8338V19.6001H24.5342V18.8338H25.3005ZM25.3005 18.0675V18.8338H24.5342V18.0675H25.3005ZM24.5342 18.8338V19.6001H23.7679V18.8338H24.5342ZM23.7679 18.8338V19.6001H23.0016V18.8338H23.7679ZM23.0016 18.8338V19.6001H22.2353V18.8338H23.0016ZM22.2353 15.7686V16.5349H21.469V15.7686H22.2353ZM16.8713 18.8338V19.6001H16.105V18.8338H16.8713ZM18.4039 13.4697V14.236H17.6376V13.4697H18.4039ZM29.9125 18.8338V19.6001H29.1462V18.8338H29.9125ZM29.9125 18.0675V18.8338H29.1462V18.0675H29.9125ZM29.9125 17.3012V18.0675H29.1462V17.3012H29.9125ZM29.9125 16.5349V17.3012H29.1462V16.5349H29.9125ZM29.9125 15.7686V16.5349H29.1462V15.7686H29.9125ZM29.9125 15.0023V15.7686H29.1462V15.0023H29.9125ZM29.9125 14.236V15.0023H29.1462V14.236H29.9125ZM29.9125 13.4697V14.236H29.1462V13.4697H29.9125ZM29.9125 12.7034V13.4697H29.1462V12.7034H29.9125ZM29.9125 11.9371V12.7034H29.1462V11.9371H29.9125ZM29.9125 11.1708V11.9371H29.1462V11.1708H29.9125ZM29.9125 10.4045V11.1708H29.1462V10.4045H29.9125ZM29.9125 9.63824V10.4045H29.1462V9.63824H29.9125ZM29.9125 8.87194V9.63824H29.1462V8.87194H29.9125ZM29.9125 8.10564V8.87194H29.1462V8.10564H29.9125ZM30.6788 8.10564V8.87194H29.9125V8.10564H30.6788ZM30.6788 8.87194V9.63824H29.9125V8.87194H30.6788ZM30.6788 9.63824V10.4045H29.9125V9.63824H30.6788ZM30.6788 10.4045V11.1708H29.9125V10.4045H30.6788ZM30.6788 11.1708V11.9371H29.9125V11.1708H30.6788ZM30.6788 11.9371V12.7034H29.9125V11.9371H30.6788ZM30.6788 12.7034V13.4697H29.9125V12.7034H30.6788ZM31.4451 13.4697V14.236H30.6788V13.4697H31.4451ZM31.4451 14.236V15.0023H30.6788V14.236H31.4451ZM31.4451 15.0023V15.7686H30.6788V15.0023H31.4451ZM31.4451 15.7686V16.5349H30.6788V15.7686H31.4451ZM31.4451 16.5349V17.3012H30.6788V16.5349H31.4451ZM31.4451 17.3012V18.0675H30.6788V17.3012H31.4451ZM31.4451 18.0675V18.8338H30.6788V18.0675H31.4451ZM31.4451 18.8338V19.6001H30.6788V18.8338H31.4451ZM32.2114 18.8338V19.6001H31.4451V18.8338H32.2114ZM32.9777 18.8338V19.6001H32.2114V18.8338H32.9777ZM32.9777 18.0675V18.8338H32.2114V18.0675H32.9777ZM32.9777 17.3012V18.0675H32.2114V17.3012H32.9777ZM32.9777 16.5349V17.3012H32.2114V16.5349H32.9777ZM32.9777 15.7686V16.5349H32.2114V15.7686H32.9777ZM32.9777 15.0023V15.7686H32.2114V15.0023H32.9777ZM32.9777 14.236V15.0023H32.2114V14.236H32.9777ZM32.9777 13.4697V14.236H32.2114V13.4697H32.9777ZM32.2114 13.4697V14.236H31.4451V13.4697H32.2114ZM32.2114 12.7034V13.4697H31.4451V12.7034H32.2114ZM32.2114 14.236V15.0023H31.4451V14.236H32.2114ZM32.2114 15.0023V15.7686H31.4451V15.0023H32.2114ZM32.2114 15.7686V16.5349H31.4451V15.7686H32.2114ZM32.2114 16.5349V17.3012H31.4451V16.5349H32.2114ZM32.2114 17.3012V18.0675H31.4451V17.3012H32.2114ZM32.2114 18.0675V18.8338H31.4451V18.0675H32.2114ZM30.6788 18.8338V19.6001H29.9125V18.8338H30.6788ZM30.6788 18.0675V18.8338H29.9125V18.0675H30.6788ZM30.6788 17.3012V18.0675H29.9125V17.3012H30.6788ZM30.6788 16.5349V17.3012H29.9125V16.5349H30.6788ZM30.6788 15.7686V16.5349H29.9125V15.7686H30.6788ZM30.6788 15.0023V15.7686H29.9125V15.0023H30.6788ZM30.6788 14.236V15.0023H29.9125V14.236H30.6788ZM30.6788 13.4697V14.236H29.9125V13.4697H30.6788ZM29.9125 5.04045V5.80675H29.1462V5.04045H29.9125ZM29.9125 5.80675V6.57305H29.1462V5.80675H29.9125ZM29.9125 6.57305V7.33934H29.1462V6.57305H29.9125ZM29.9125 7.33934V8.10564H29.1462V7.33934H29.9125ZM32.2114 5.80675V6.57305H31.4451V5.80675H32.2114ZM32.2114 6.57305V7.33934H31.4451V6.57305H32.2114ZM32.2114 7.33934V8.10564H31.4451V7.33934H32.2114ZM32.2114 8.10564V8.87194H31.4451V8.10564H32.2114ZM32.2114 8.87194V9.63824H31.4451V8.87194H32.2114ZM32.2114 9.63824V10.4045H31.4451V9.63824H32.2114ZM32.2114 10.4045V11.1708H31.4451V10.4045H32.2114ZM32.9777 11.1708V11.9371H32.2114V11.1708H32.9777ZM32.9777 11.9371V12.7034H32.2114V11.9371H32.9777ZM32.9777 12.7034V13.4697H32.2114V12.7034H32.9777ZM32.9777 10.4045V11.1708H32.2114V10.4045H32.9777ZM32.9777 9.63824V10.4045H32.2114V9.63824H32.9777ZM32.9777 8.87194V9.63824H32.2114V8.87194H32.9777ZM32.9777 8.10564V8.87194H32.2114V8.10564H32.9777ZM32.9777 7.33934V8.10564H32.2114V7.33934H32.9777ZM32.9777 6.57305V7.33934H32.2114V6.57305H32.9777ZM32.9777 5.80675V6.57305H32.2114V5.80675H32.9777ZM32.9777 5.04045V5.80675H32.2114V5.04045H32.9777ZM32.2114 5.04045V5.80675H31.4451V5.04045H32.2114ZM31.4451 5.04045V5.80675H30.6788V5.04045H31.4451ZM31.4451 5.80675V6.57305H30.6788V5.80675H31.4451ZM30.6788 6.57305V7.33934H29.9125V6.57305H30.6788ZM30.6788 7.33934V8.10564H29.9125V7.33934H30.6788ZM30.6788 5.80675V6.57305H29.9125V5.80675H30.6788ZM30.6788 5.04045V5.80675H29.9125V5.04045H30.6788ZM31.4451 6.57305V7.33934H30.6788V6.57305H31.4451ZM31.4451 7.33934V8.10564H30.6788V7.33934H31.4451ZM31.4451 8.10564V8.87194H30.6788V8.10564H31.4451ZM31.4451 8.87194V9.63824H30.6788V8.87194H31.4451ZM31.4451 9.63824V10.4045H30.6788V9.63824H31.4451ZM31.4451 10.4045V11.1708H30.6788V10.4045H31.4451ZM31.4451 11.1708V11.9371H30.6788V11.1708H31.4451ZM31.4451 11.9371V12.7034H30.6788V11.9371H31.4451ZM31.4451 12.7034V13.4697H30.6788V12.7034H31.4451ZM32.2114 11.9371V12.7034H31.4451V11.9371H32.2114ZM32.2114 11.1708V11.9371H31.4451V11.1708H32.2114ZM38.3418 18.8338V19.6001H37.5755V18.8338H38.3418ZM39.1081 18.8338V19.6001H38.3418V18.8338H39.1081ZM39.8744 18.8338V19.6001H39.1081V18.8338H39.8744ZM40.6407 18.8338V19.6001H39.8744V18.8338H40.6407ZM41.407 18.0675V18.8338H40.6407V18.0675H41.407ZM41.407 17.3012V18.0675H40.6407V17.3012H41.407ZM41.407 18.8338V19.6001H40.6407V18.8338H41.407ZM40.6407 18.0675V18.8338H39.8744V18.0675H40.6407ZM39.8744 18.0675V18.8338H39.1081V18.0675H39.8744ZM39.1081 18.0675V18.8338H38.3418V18.0675H39.1081ZM38.3418 18.0675V18.8338H37.5755V18.0675H38.3418ZM38.3418 17.3012V18.0675H37.5755V17.3012H38.3418ZM38.3418 16.5349V17.3012H37.5755V16.5349H38.3418ZM39.1081 16.5349V17.3012H38.3418V16.5349H39.1081ZM39.8744 16.5349V17.3012H39.1081V16.5349H39.8744ZM40.6407 16.5349V17.3012H39.8744V16.5349H40.6407ZM41.407 16.5349V17.3012H40.6407V16.5349H41.407ZM40.6407 17.3012V18.0675H39.8744V17.3012H40.6407ZM39.8744 17.3012V18.0675H39.1081V17.3012H39.8744ZM39.1081 17.3012V18.0675H38.3418V17.3012H39.1081ZM41.407 8.10564V8.87194H40.6407V8.10564H41.407ZM40.6407 8.10564V8.87194H39.8744V8.10564H40.6407ZM39.1081 8.10564V8.87194H38.3418V8.10564H39.1081ZM39.1081 8.87194V9.63824H38.3418V8.87194H39.1081ZM39.1081 9.63824V10.4045H38.3418V9.63824H39.1081ZM38.3418 10.4045V11.1708H37.5755V10.4045H38.3418ZM38.3418 11.1708V11.9371H37.5755V11.1708H38.3418ZM38.3418 11.9371V12.7034H37.5755V11.9371H38.3418ZM38.3418 12.7034V13.4697H37.5755V12.7034H38.3418ZM38.3418 13.4697V14.236H37.5755V13.4697H38.3418ZM38.3418 14.236V15.0023H37.5755V14.236H38.3418ZM38.3418 15.0023V15.7686H37.5755V15.0023H38.3418ZM38.3418 15.7686V16.5349H37.5755V15.7686H38.3418ZM39.1081 15.7686V16.5349H38.3418V15.7686H39.1081ZM39.8744 15.7686V16.5349H39.1081V15.7686H39.8744ZM40.6407 15.7686V16.5349H39.8744V15.7686H40.6407ZM41.407 15.7686V16.5349H40.6407V15.7686H41.407ZM41.407 15.0023V15.7686H40.6407V15.0023H41.407ZM41.407 13.4697V14.236H40.6407V13.4697H41.407ZM41.407 12.7034V13.4697H40.6407V12.7034H41.407ZM41.407 11.9371V12.7034H40.6407V11.9371H41.407ZM41.407 11.1708V11.9371H40.6407V11.1708H41.407ZM41.407 10.4045V11.1708H40.6407V10.4045H41.407ZM41.407 9.63824V10.4045H40.6407V9.63824H41.407ZM41.407 8.87194V9.63824H40.6407V8.87194H41.407ZM40.6407 11.9371V12.7034H39.8744V11.9371H40.6407ZM40.6407 13.4697V14.236H39.8744V13.4697H40.6407ZM40.6407 14.236V15.0023H39.8744V14.236H40.6407ZM40.6407 15.0023V15.7686H39.8744V15.0023H40.6407ZM41.407 14.236V15.0023H40.6407V14.236H41.407ZM40.6407 10.4045V11.1708H39.8744V10.4045H40.6407ZM39.8744 10.4045V11.1708H39.1081V10.4045H39.8744ZM39.1081 10.4045V11.1708H38.3418V10.4045H39.1081ZM39.1081 11.1708V11.9371H38.3418V11.1708H39.1081ZM39.1081 11.9371V12.7034H38.3418V11.9371H39.1081ZM39.1081 12.7034V13.4697H38.3418V12.7034H39.1081ZM39.1081 13.4697V14.236H38.3418V13.4697H39.1081ZM39.1081 14.236V15.0023H38.3418V14.236H39.1081ZM39.1081 15.0023V15.7686H38.3418V15.0023H39.1081ZM39.8744 15.0023V15.7686H39.1081V15.0023H39.8744ZM39.8744 14.236V15.0023H39.1081V14.236H39.8744ZM39.8744 13.4697V14.236H39.1081V13.4697H39.8744ZM39.8744 12.7034V13.4697H39.1081V12.7034H39.8744ZM39.8744 11.9371V12.7034H39.1081V11.9371H39.8744ZM39.8744 11.1708V11.9371H39.1081V11.1708H39.8744ZM40.6407 11.1708V11.9371H39.8744V11.1708H40.6407ZM40.6407 12.7034V13.4697H39.8744V12.7034H40.6407ZM40.6407 9.63824V10.4045H39.8744V9.63824H40.6407ZM40.6407 8.87194V9.63824H39.8744V8.87194H40.6407ZM39.8744 8.87194V9.63824H39.1081V8.87194H39.8744ZM39.8744 9.63824V10.4045H39.1081V9.63824H39.8744ZM38.3418 9.63824V10.4045H37.5755V9.63824H38.3418ZM38.3418 8.87194V9.63824H37.5755V8.87194H38.3418ZM38.3418 8.10564V8.87194H37.5755V8.10564H38.3418ZM39.8744 8.10564V8.87194H39.1081V8.10564H39.8744ZM38.3418 5.04045V5.80675H37.5755V5.04045H38.3418ZM38.3418 5.80675V6.57305H37.5755V5.80675H38.3418ZM39.1081 5.80675V6.57305H38.3418V5.80675H39.1081ZM39.8744 5.80675V6.57305H39.1081V5.80675H39.8744ZM39.8744 6.57305V7.33934H39.1081V6.57305H39.8744ZM40.6407 6.57305V7.33934H39.8744V6.57305H40.6407ZM40.6407 7.33934V8.10564H39.8744V7.33934H40.6407ZM39.8744 7.33934V8.10564H39.1081V7.33934H39.8744ZM39.1081 7.33934V8.10564H38.3418V7.33934H39.1081ZM39.1081 6.57305V7.33934H38.3418V6.57305H39.1081ZM38.3418 6.57305V7.33934H37.5755V6.57305H38.3418ZM37.5755 6.57305V7.33934H36.8092V6.57305H37.5755ZM37.5755 7.33934V8.10564H36.8092V7.33934H37.5755ZM38.3418 7.33934V8.10564H37.5755V7.33934H38.3418ZM37.5755 8.10564V8.87194H36.8092V8.10564H37.5755ZM36.8092 7.33934V8.10564H36.0429V7.33934H36.8092ZM36.8092 6.57305V7.33934H36.0429V6.57305H36.8092ZM36.8092 5.80675V6.57305H36.0429V5.80675H36.8092ZM36.8092 5.04045V5.80675H36.0429V5.04045H36.8092ZM37.5755 5.04045V5.80675H36.8092V5.04045H37.5755ZM37.5755 5.80675V6.57305H36.8092V5.80675H37.5755ZM36.0429 5.04045V5.80675H35.2766V5.04045H36.0429ZM36.0429 5.80675V6.57305H35.2766V5.80675H36.0429ZM36.0429 6.57305V7.33934H35.2766V6.57305H36.0429ZM36.0429 7.33934V8.10564H35.2766V7.33934H36.0429ZM35.2766 5.04045V5.80675H34.5103V5.04045H35.2766ZM35.2766 5.80675V6.57305H34.5103V5.80675H35.2766ZM34.5103 5.80675V6.57305H33.744V5.80675H34.5103ZM34.5103 6.57305V7.33934H33.744V6.57305H34.5103ZM33.744 6.57305V7.33934H32.9777V6.57305H33.744ZM33.744 7.33934V8.10564H32.9777V7.33934H33.744ZM34.5103 7.33934V8.10564H33.744V7.33934H34.5103ZM35.2766 7.33934V8.10564H34.5103V7.33934H35.2766ZM35.2766 6.57305V7.33934H34.5103V6.57305H35.2766ZM33.744 8.10564V8.87194H32.9777V8.10564H33.744ZM34.5103 5.04045V5.80675H33.744V5.04045H34.5103ZM33.744 5.80675V6.57305H32.9777V5.80675H33.744ZM55.2146 5.04045V5.80675H54.4483V5.04045H55.2146ZM54.4483 5.04045V5.80675H53.682V5.04045H54.4483ZM53.682 5.04045V5.80675H52.9157V5.04045H53.682ZM52.9157 5.04045V5.80675H52.1494V5.04045H52.9157ZM52.1494 5.04045V5.80675H51.3831V5.04045H52.1494ZM52.1494 5.80675V6.57305H51.3831V5.80675H52.1494ZM52.1494 6.57305V7.33934H51.3831V6.57305H52.1494ZM52.1494 7.33934V8.10564H51.3831V7.33934H52.1494ZM52.1494 8.10564V8.87194H51.3831V8.10564H52.1494ZM52.1494 8.87194V9.63824H51.3831V8.87194H52.1494ZM52.1494 9.63824V10.4045H51.3831V9.63824H52.1494ZM52.1494 10.4045V11.1708H51.3831V10.4045H52.1494ZM52.1494 11.1708V11.9371H51.3831V11.1708H52.1494ZM52.1494 11.9371V12.7034H51.3831V11.9371H52.1494ZM52.1494 12.7034V13.4697H51.3831V12.7034H52.1494ZM52.1494 13.4697V14.236H51.3831V13.4697H52.1494ZM52.1494 14.236V15.0023H51.3831V14.236H52.1494ZM52.1494 15.0023V15.7686H51.3831V15.0023H52.1494ZM52.1494 15.7686V16.5349H51.3831V15.7686H52.1494ZM52.9157 16.5349V17.3012H52.1494V16.5349H52.9157ZM53.682 16.5349V17.3012H52.9157V16.5349H53.682ZM54.4483 16.5349V17.3012H53.682V16.5349H54.4483ZM55.2146 16.5349V17.3012H54.4483V16.5349H55.2146ZM55.2146 15.7686V16.5349H54.4483V15.7686H55.2146ZM55.2146 15.0023V15.7686H54.4483V15.0023H55.2146ZM55.2146 14.236V15.0023H54.4483V14.236H55.2146ZM55.2146 13.4697V14.236H54.4483V13.4697H55.2146ZM55.2146 12.7034V13.4697H54.4483V12.7034H55.2146ZM55.2146 11.9371V12.7034H54.4483V11.9371H55.2146ZM55.2146 11.1708V11.9371H54.4483V11.1708H55.2146ZM55.2146 10.4045V11.1708H54.4483V10.4045H55.2146ZM55.2146 9.63824V10.4045H54.4483V9.63824H55.2146ZM55.2146 8.87194V9.63824H54.4483V8.87194H55.2146ZM55.2146 8.10564V8.87194H54.4483V8.10564H55.2146ZM55.2146 7.33934V8.10564H54.4483V7.33934H55.2146ZM54.4483 6.57305V7.33934H53.682V6.57305H54.4483ZM54.4483 5.80675V6.57305H53.682V5.80675H54.4483ZM55.2146 5.80675V6.57305H54.4483V5.80675H55.2146ZM55.2146 6.57305V7.33934H54.4483V6.57305H55.2146ZM53.682 6.57305V7.33934H52.9157V6.57305H53.682ZM52.9157 6.57305V7.33934H52.1494V6.57305H52.9157ZM52.9157 5.80675V6.57305H52.1494V5.80675H52.9157ZM53.682 5.80675V6.57305H52.9157V5.80675H53.682ZM53.682 7.33934V8.10564H52.9157V7.33934H53.682ZM53.682 8.10564V8.87194H52.9157V8.10564H53.682ZM53.682 8.87194V9.63824H52.9157V8.87194H53.682ZM53.682 9.63824V10.4045H52.9157V9.63824H53.682ZM53.682 10.4045V11.1708H52.9157V10.4045H53.682ZM53.682 11.1708V11.9371H52.9157V11.1708H53.682ZM53.682 11.9371V12.7034H52.9157V11.9371H53.682ZM53.682 12.7034V13.4697H52.9157V12.7034H53.682ZM53.682 13.4697V14.236H52.9157V13.4697H53.682ZM52.9157 14.236V15.0023H52.1494V14.236H52.9157ZM52.9157 15.0023V15.7686H52.1494V15.0023H52.9157ZM52.9157 15.7686V16.5349H52.1494V15.7686H52.9157ZM53.682 15.7686V16.5349H52.9157V15.7686H53.682ZM53.682 15.0023V15.7686H52.9157V15.0023H53.682ZM53.682 14.236V15.0023H52.9157V14.236H53.682ZM52.9157 8.10564V8.87194H52.1494V8.10564H52.9157ZM52.9157 7.33934V8.10564H52.1494V7.33934H52.9157ZM52.9157 8.87194V9.63824H52.1494V8.87194H52.9157ZM52.9157 9.63824V10.4045H52.1494V9.63824H52.9157ZM52.9157 10.4045V11.1708H52.1494V10.4045H52.9157ZM52.9157 11.1708V11.9371H52.1494V11.1708H52.9157ZM52.9157 11.9371V12.7034H52.1494V11.9371H52.9157ZM52.9157 12.7034V13.4697H52.1494V12.7034H52.9157ZM52.9157 13.4697V14.236H52.1494V13.4697H52.9157ZM54.4483 15.7686V16.5349H53.682V15.7686H54.4483ZM54.4483 15.0023V15.7686H53.682V15.0023H54.4483ZM54.4483 14.236V15.0023H53.682V14.236H54.4483ZM54.4483 13.4697V14.236H53.682V13.4697H54.4483ZM54.4483 12.7034V13.4697H53.682V12.7034H54.4483ZM54.4483 11.9371V12.7034H53.682V11.9371H54.4483ZM54.4483 11.1708V11.9371H53.682V11.1708H54.4483ZM54.4483 10.4045V11.1708H53.682V10.4045H54.4483ZM54.4483 9.63824V10.4045H53.682V9.63824H54.4483ZM54.4483 8.87194V9.63824H53.682V8.87194H54.4483ZM54.4483 8.10564V8.87194H53.682V8.10564H54.4483ZM54.4483 7.33934V8.10564H53.682V7.33934H54.4483ZM52.1494 16.5349V17.3012H51.3831V16.5349H52.1494ZM52.1494 17.3012V18.0675H51.3831V17.3012H52.1494ZM52.1494 18.0675V18.8338H51.3831V18.0675H52.1494ZM52.1494 18.8338V19.6001H51.3831V18.8338H52.1494ZM52.1494 19.6001V20.3664H51.3831V19.6001H52.1494ZM52.9157 19.6001V20.3664H52.1494V19.6001H52.9157ZM53.682 19.6001V20.3664H52.9157V19.6001H53.682ZM54.4483 19.6001V20.3664H53.682V19.6001H54.4483ZM55.2146 19.6001V20.3664H54.4483V19.6001H55.2146ZM55.2146 20.3664V21.1327H54.4483V20.3664H55.2146ZM54.4483 20.3664V21.1327H53.682V20.3664H54.4483ZM53.682 20.3664V21.1327H52.9157V20.3664H53.682ZM52.9157 20.3664V21.1327H52.1494V20.3664H52.9157ZM52.1494 20.3664V21.1327H51.3831V20.3664H52.1494ZM51.3831 20.3664V21.1327H50.6168V20.3664H51.3831ZM52.1494 21.1327V21.899H51.3831V21.1327H52.1494ZM52.9157 21.1327V21.899H52.1494V21.1327H52.9157ZM53.682 21.1327V21.899H52.9157V21.1327H53.682ZM54.4483 21.1327V21.899H53.682V21.1327H54.4483ZM54.4483 21.899V22.6653H53.682V21.899H54.4483ZM53.682 21.899V22.6653H52.9157V21.899H53.682ZM53.682 22.6653V23.4316H52.9157V22.6653H53.682ZM52.9157 22.6653V23.4316H52.1494V22.6653H52.9157ZM52.1494 22.6653V23.4316H51.3831V22.6653H52.1494ZM52.1494 23.4316V24.1979H51.3831V23.4316H52.1494ZM51.3831 23.4316V24.1979H50.6168V23.4316H51.3831ZM50.6168 23.4316V24.1979H49.8505V23.4316H50.6168ZM49.8505 23.4316V24.1979H49.0842V23.4316H49.8505ZM49.0842 23.4316V24.1979H48.3179V23.4316H49.0842ZM48.3179 23.4316V24.1979H47.5516V23.4316H48.3179ZM47.5516 23.4316V24.1979H46.7853V23.4316H47.5516ZM46.7853 23.4316V24.1979H46.019V23.4316H46.7853ZM46.7853 22.6653V23.4316H46.019V22.6653H46.7853ZM46.019 22.6653V23.4316H45.2527V22.6653H46.019ZM45.2527 22.6653V23.4316H44.4864V22.6653H45.2527ZM45.2527 21.899V22.6653H44.4864V21.899H45.2527ZM44.4864 21.899V22.6653H43.7201V21.899H44.4864ZM44.4864 21.1327V21.899H43.7201V21.1327H44.4864ZM44.4864 20.3664V21.1327H43.7201V20.3664H44.4864ZM43.7201 20.3664V21.1327H42.9538V20.3664H43.7201ZM43.7201 19.6001V20.3664H42.9538V19.6001H43.7201ZM44.4864 19.6001V20.3664H43.7201V19.6001H44.4864ZM45.2527 19.6001V20.3664H44.4864V19.6001H45.2527ZM46.019 19.6001V20.3664H45.2527V19.6001H46.019ZM46.7853 19.6001V20.3664H46.019V19.6001H46.7853ZM46.7853 20.3664V21.1327H46.019V20.3664H46.7853ZM47.5516 20.3664V21.1327H46.7853V20.3664H47.5516ZM47.5516 21.1327V21.899H46.7853V21.1327H47.5516ZM48.3179 21.1327V21.899H47.5516V21.1327H48.3179ZM49.0842 21.1327V21.899H48.3179V21.1327H49.0842ZM49.8505 21.1327V21.899H49.0842V21.1327H49.8505ZM50.6168 21.1327V21.899H49.8505V21.1327H50.6168ZM51.3831 21.1327V21.899H50.6168V21.1327H51.3831ZM52.9157 21.899V22.6653H52.1494V21.899H52.9157ZM52.1494 21.899V22.6653H51.3831V21.899H52.1494ZM51.3831 21.899V22.6653H50.6168V21.899H51.3831ZM50.6168 21.899V22.6653H49.8505V21.899H50.6168ZM49.8505 21.899V22.6653H49.0842V21.899H49.8505ZM49.0842 21.899V22.6653H48.3179V21.899H49.0842ZM49.0842 22.6653V23.4316H48.3179V22.6653H49.0842ZM48.3179 22.6653V23.4316H47.5516V22.6653H48.3179ZM47.5516 22.6653V23.4316H46.7853V22.6653H47.5516ZM46.7853 21.899V22.6653H46.019V21.899H46.7853ZM47.5516 21.899V22.6653H46.7853V21.899H47.5516ZM48.3179 21.899V22.6653H47.5516V21.899H48.3179ZM51.3831 22.6653V23.4316H50.6168V22.6653H51.3831ZM50.6168 22.6653V23.4316H49.8505V22.6653H50.6168ZM49.8505 22.6653V23.4316H49.0842V22.6653H49.8505ZM46.019 21.899V22.6653H45.2527V21.899H46.019ZM46.019 21.1327V21.899H45.2527V21.1327H46.019ZM46.7853 21.1327V21.899H46.019V21.1327H46.7853ZM45.2527 21.1327V21.899H44.4864V21.1327H45.2527ZM45.2527 20.3664V21.1327H44.4864V20.3664H45.2527ZM46.019 20.3664V21.1327H45.2527V20.3664H46.019ZM52.9157 17.3012V18.0675H52.1494V17.3012H52.9157ZM53.682 17.3012V18.0675H52.9157V17.3012H53.682ZM54.4483 17.3012V18.0675H53.682V17.3012H54.4483ZM55.2146 17.3012V18.0675H54.4483V17.3012H55.2146ZM55.2146 18.0675V18.8338H54.4483V18.0675H55.2146ZM55.2146 18.8338V19.6001H54.4483V18.8338H55.2146ZM54.4483 18.8338V19.6001H53.682V18.8338H54.4483ZM53.682 18.8338V19.6001H52.9157V18.8338H53.682ZM52.9157 18.8338V19.6001H52.1494V18.8338H52.9157ZM52.9157 18.0675V18.8338H52.1494V18.0675H52.9157ZM53.682 18.0675V18.8338H52.9157V18.0675H53.682ZM54.4483 18.0675V18.8338H53.682V18.0675H54.4483ZM48.3179 15.0023V15.7686H47.5516V15.0023H48.3179ZM49.0842 15.0023V15.7686H48.3179V15.0023H49.0842ZM49.8505 15.0023V15.7686H49.0842V15.0023H49.8505ZM50.6168 15.0023V15.7686H49.8505V15.0023H50.6168ZM51.3831 15.0023V15.7686H50.6168V15.0023H51.3831ZM51.3831 15.7686V16.5349H50.6168V15.7686H51.3831ZM50.6168 17.3012V18.0675H49.8505V17.3012H50.6168ZM49.8505 17.3012V18.0675H49.0842V17.3012H49.8505ZM49.0842 17.3012V18.0675H48.3179V17.3012H49.0842ZM48.3179 17.3012V18.0675H47.5516V17.3012H48.3179ZM47.5516 17.3012V18.0675H46.7853V17.3012H47.5516ZM47.5516 16.5349V17.3012H46.7853V16.5349H47.5516ZM47.5516 15.7686V16.5349H46.7853V15.7686H47.5516ZM48.3179 15.7686V16.5349H47.5516V15.7686H48.3179ZM49.0842 15.7686V16.5349H48.3179V15.7686H49.0842ZM49.0842 16.5349V17.3012H48.3179V16.5349H49.0842ZM48.3179 16.5349V17.3012H47.5516V16.5349H48.3179ZM49.8505 15.7686V16.5349H49.0842V15.7686H49.8505ZM50.6168 15.7686V16.5349H49.8505V15.7686H50.6168ZM50.6168 16.5349V17.3012H49.8505V16.5349H50.6168ZM49.8505 16.5349V17.3012H49.0842V16.5349H49.8505ZM51.3831 16.5349V17.3012H50.6168V16.5349H51.3831ZM46.7853 17.3012V18.0675H46.019V17.3012H46.7853ZM46.7853 16.5349V17.3012H46.019V16.5349H46.7853ZM46.019 16.5349V17.3012H45.2527V16.5349H46.019ZM45.2527 16.5349V17.3012H44.4864V16.5349H45.2527ZM45.2527 15.7686V16.5349H44.4864V15.7686H45.2527ZM44.4864 15.7686V16.5349H43.7201V15.7686H44.4864ZM44.4864 15.0023V15.7686H43.7201V15.0023H44.4864ZM44.4864 14.236V15.0023H43.7201V14.236H44.4864ZM45.2527 14.236V15.0023H44.4864V14.236H45.2527ZM43.7201 14.236V15.0023H42.9538V14.236H43.7201ZM43.7201 13.4697V14.236H42.9538V13.4697H43.7201ZM44.4864 13.4697V14.236H43.7201V13.4697H44.4864ZM46.7853 15.0023V15.7686H46.019V15.0023H46.7853ZM47.5516 15.0023V15.7686H46.7853V15.0023H47.5516ZM47.5516 14.236V15.0023H46.7853V14.236H47.5516ZM46.7853 14.236V15.0023H46.019V14.236H46.7853ZM46.019 14.236V15.0023H45.2527V14.236H46.019ZM46.019 15.0023V15.7686H45.2527V15.0023H46.019ZM46.019 15.7686V16.5349H45.2527V15.7686H46.019ZM46.7853 15.7686V16.5349H46.019V15.7686H46.7853ZM45.2527 15.0023V15.7686H44.4864V15.0023H45.2527ZM46.019 13.4697V14.236H45.2527V13.4697H46.019ZM46.7853 13.4697V14.236H46.019V13.4697H46.7853ZM46.7853 12.7034V13.4697H46.019V12.7034H46.7853ZM46.7853 11.9371V12.7034H46.019V11.9371H46.7853ZM46.7853 11.1708V11.9371H46.019V11.1708H46.7853ZM46.7853 10.4045V11.1708H46.019V10.4045H46.7853ZM46.7853 9.63824V10.4045H46.019V9.63824H46.7853ZM46.7853 8.87194V9.63824H46.019V8.87194H46.7853ZM46.019 8.87194V9.63824H45.2527V8.87194H46.019ZM45.2527 8.87194V9.63824H44.4864V8.87194H45.2527ZM44.4864 8.87194V9.63824H43.7201V8.87194H44.4864ZM44.4864 8.10564V8.87194H43.7201V8.10564H44.4864ZM43.7201 8.10564V8.87194H42.9538V8.10564H43.7201ZM43.7201 8.87194V9.63824H42.9538V8.87194H43.7201ZM43.7201 9.63824V10.4045H42.9538V9.63824H43.7201ZM43.7201 10.4045V11.1708H42.9538V10.4045H43.7201ZM43.7201 11.1708V11.9371H42.9538V11.1708H43.7201ZM43.7201 11.9371V12.7034H42.9538V11.9371H43.7201ZM43.7201 12.7034V13.4697H42.9538V12.7034H43.7201ZM45.2527 13.4697V14.236H44.4864V13.4697H45.2527ZM46.019 12.7034V13.4697H45.2527V12.7034H46.019ZM46.019 11.9371V12.7034H45.2527V11.9371H46.019ZM46.019 11.1708V11.9371H45.2527V11.1708H46.019ZM46.019 10.4045V11.1708H45.2527V10.4045H46.019ZM46.019 9.63824V10.4045H45.2527V9.63824H46.019ZM45.2527 9.63824V10.4045H44.4864V9.63824H45.2527ZM44.4864 9.63824V10.4045H43.7201V9.63824H44.4864ZM44.4864 10.4045V11.1708H43.7201V10.4045H44.4864ZM44.4864 12.7034V13.4697H43.7201V12.7034H44.4864ZM44.4864 11.9371V12.7034H43.7201V11.9371H44.4864ZM45.2527 11.9371V12.7034H44.4864V11.9371H45.2527ZM45.2527 11.1708V11.9371H44.4864V11.1708H45.2527ZM45.2527 10.4045V11.1708H44.4864V10.4045H45.2527ZM44.4864 11.1708V11.9371H43.7201V11.1708H44.4864ZM45.2527 12.7034V13.4697H44.4864V12.7034H45.2527ZM50.6168 5.04045V5.80675H49.8505V5.04045H50.6168ZM49.8505 5.04045V5.80675H49.0842V5.04045H49.8505ZM49.0842 5.04045V5.80675H48.3179V5.04045H49.0842ZM48.3179 5.04045V5.80675H47.5516V5.04045H48.3179ZM47.5516 5.04045V5.80675H46.7853V5.04045H47.5516ZM46.7853 5.04045V5.80675H46.019V5.04045H46.7853ZM46.7853 5.80675V6.57305H46.019V5.80675H46.7853ZM46.019 5.80675V6.57305H45.2527V5.80675H46.019ZM45.2527 5.80675V6.57305H44.4864V5.80675H45.2527ZM45.2527 6.57305V7.33934H44.4864V6.57305H45.2527ZM44.4864 6.57305V7.33934H43.7201V6.57305H44.4864ZM45.2527 7.33934V8.10564H44.4864V7.33934H45.2527ZM45.2527 8.10564V8.87194H44.4864V8.10564H45.2527ZM44.4864 7.33934V8.10564H43.7201V7.33934H44.4864ZM46.019 7.33934V8.10564H45.2527V7.33934H46.019ZM46.7853 7.33934V8.10564H46.019V7.33934H46.7853ZM46.7853 8.10564V8.87194H46.019V8.10564H46.7853ZM47.5516 8.10564V8.87194H46.7853V8.10564H47.5516ZM46.019 8.10564V8.87194H45.2527V8.10564H46.019ZM46.7853 6.57305V7.33934H46.019V6.57305H46.7853ZM46.019 6.57305V7.33934H45.2527V6.57305H46.019ZM47.5516 6.57305V7.33934H46.7853V6.57305H47.5516ZM47.5516 7.33934V8.10564H46.7853V7.33934H47.5516ZM48.3179 7.33934V8.10564H47.5516V7.33934H48.3179ZM48.3179 6.57305V7.33934H47.5516V6.57305H48.3179ZM49.0842 6.57305V7.33934H48.3179V6.57305H49.0842ZM49.8505 6.57305V7.33934H49.0842V6.57305H49.8505ZM50.6168 6.57305V7.33934H49.8505V6.57305H50.6168ZM51.3831 6.57305V7.33934H50.6168V6.57305H51.3831ZM51.3831 7.33934V8.10564H50.6168V7.33934H51.3831ZM50.6168 7.33934V8.10564H49.8505V7.33934H50.6168ZM49.8505 7.33934V8.10564H49.0842V7.33934H49.8505ZM49.0842 7.33934V8.10564H48.3179V7.33934H49.0842ZM47.5516 5.80675V6.57305H46.7853V5.80675H47.5516ZM48.3179 5.80675V6.57305H47.5516V5.80675H48.3179ZM49.0842 5.80675V6.57305H48.3179V5.80675H49.0842ZM49.8505 5.80675V6.57305H49.0842V5.80675H49.8505ZM50.6168 5.80675V6.57305H49.8505V5.80675H50.6168ZM51.3831 5.80675V6.57305H50.6168V5.80675H51.3831ZM51.3831 5.04045V5.80675H50.6168V5.04045H51.3831ZM51.3831 14.236V15.0023H50.6168V14.236H51.3831ZM2.29889 42.7686V43.5349H1.53259V42.7686H2.29889ZM2.29889 42.0023V42.7686H1.53259V42.0023H2.29889ZM2.29889 41.236V42.0023H1.53259V41.236H2.29889ZM2.29889 40.4697V41.236H1.53259V40.4697H2.29889ZM2.29889 39.7034V40.4697H1.53259V39.7034H2.29889ZM2.29889 38.9371V39.7034H1.53259V38.9371H2.29889ZM2.29889 38.1708V38.9371H1.53259V38.1708H2.29889ZM2.29889 37.4045V38.1708H1.53259V37.4045H2.29889ZM2.29889 36.6382V37.4045H1.53259V36.6382H2.29889ZM2.29889 35.8719V36.6382H1.53259V35.8719H2.29889ZM2.29889 35.1056V35.8719H1.53259V35.1056H2.29889ZM3.06519 35.1056V35.8719H2.29889V35.1056H3.06519ZM3.06519 35.8719V36.6382H2.29889V35.8719H3.06519ZM3.06519 36.6382V37.4045H2.29889V36.6382H3.06519ZM3.06519 37.4045V38.1708H2.29889V37.4045H3.06519ZM3.06519 38.1708V38.9371H2.29889V38.1708H3.06519ZM3.06519 38.9371V39.7034H2.29889V38.9371H3.06519ZM3.06519 39.7034V40.4697H2.29889V39.7034H3.06519ZM3.83149 40.4697V41.236H3.06519V40.4697H3.83149ZM3.83149 41.236V42.0023H3.06519V41.236H3.83149ZM3.83149 42.0023V42.7686H3.06519V42.0023H3.83149ZM3.83149 42.7686V43.5349H3.06519V42.7686H3.83149ZM3.83149 43.5349V44.3012H3.06519V43.5349H3.83149ZM3.83149 44.3012V45.0675H3.06519V44.3012H3.83149ZM3.83149 45.0675V45.8338H3.06519V45.0675H3.83149ZM5.36408 45.8338V46.6001H4.59778V45.8338H5.36408ZM5.36408 45.0675V45.8338H4.59778V45.0675H5.36408ZM5.36408 44.3012V45.0675H4.59778V44.3012H5.36408ZM5.36408 43.5349V44.3012H4.59778V43.5349H5.36408ZM5.36408 42.7686V43.5349H4.59778V42.7686H5.36408ZM5.36408 42.0023V42.7686H4.59778V42.0023H5.36408ZM5.36408 41.236V42.0023H4.59778V41.236H5.36408ZM5.36408 40.4697V41.236H4.59778V40.4697H5.36408ZM4.59778 40.4697V41.236H3.83149V40.4697H4.59778ZM4.59778 39.7034V40.4697H3.83149V39.7034H4.59778ZM4.59778 41.236V42.0023H3.83149V41.236H4.59778ZM4.59778 42.0023V42.7686H3.83149V42.0023H4.59778ZM4.59778 42.7686V43.5349H3.83149V42.7686H4.59778ZM4.59778 43.5349V44.3012H3.83149V43.5349H4.59778ZM4.59778 44.3012V45.0675H3.83149V44.3012H4.59778ZM4.59778 45.0675V45.8338H3.83149V45.0675H4.59778ZM3.06519 44.3012V45.0675H2.29889V44.3012H3.06519ZM3.06519 43.5349V44.3012H2.29889V43.5349H3.06519ZM3.06519 42.7686V43.5349H2.29889V42.7686H3.06519ZM3.06519 42.0023V42.7686H2.29889V42.0023H3.06519ZM3.06519 41.236V42.0023H2.29889V41.236H3.06519ZM3.06519 40.4697V41.236H2.29889V40.4697H3.06519ZM2.29889 34.3393V35.1056H1.53259V34.3393H2.29889ZM4.59778 34.3393V35.1056H3.83149V34.3393H4.59778ZM4.59778 35.1056V35.8719H3.83149V35.1056H4.59778ZM4.59778 35.8719V36.6382H3.83149V35.8719H4.59778ZM4.59778 36.6382V37.4045H3.83149V36.6382H4.59778ZM4.59778 37.4045V38.1708H3.83149V37.4045H4.59778ZM5.36408 38.1708V38.9371H4.59778V38.1708H5.36408ZM5.36408 38.9371V39.7034H4.59778V38.9371H5.36408ZM5.36408 39.7034V40.4697H4.59778V39.7034H5.36408ZM5.36408 37.4045V38.1708H4.59778V37.4045H5.36408ZM5.36408 36.6382V37.4045H4.59778V36.6382H5.36408ZM5.36408 35.8719V36.6382H4.59778V35.8719H5.36408ZM5.36408 35.1056V35.8719H4.59778V35.1056H5.36408ZM5.36408 34.3393V35.1056H4.59778V34.3393H5.36408ZM3.06519 34.3393V35.1056H2.29889V34.3393H3.06519ZM3.83149 34.3393V35.1056H3.06519V34.3393H3.83149ZM3.83149 35.1056V35.8719H3.06519V35.1056H3.83149ZM3.83149 35.8719V36.6382H3.06519V35.8719H3.83149ZM3.83149 36.6382V37.4045H3.06519V36.6382H3.83149ZM3.83149 37.4045V38.1708H3.06519V37.4045H3.83149ZM3.83149 38.1708V38.9371H3.06519V38.1708H3.83149ZM3.83149 38.9371V39.7034H3.06519V38.9371H3.83149ZM3.83149 39.7034V40.4697H3.06519V39.7034H3.83149ZM4.59778 38.9371V39.7034H3.83149V38.9371H4.59778ZM4.59778 38.1708V38.9371H3.83149V38.1708H4.59778ZM11.4945 45.8338V46.6001H10.7282V45.8338H11.4945ZM11.4945 45.0675V45.8338H10.7282V45.0675H11.4945ZM11.4945 44.3012V45.0675H10.7282V44.3012H11.4945ZM11.4945 43.5349V44.3012H10.7282V43.5349H11.4945ZM11.4945 42.7686V43.5349H10.7282V42.7686H11.4945ZM11.4945 42.0023V42.7686H10.7282V42.0023H11.4945ZM11.4945 41.236V42.0023H10.7282V41.236H11.4945ZM13.0271 41.236V42.0023H12.2608V41.236H13.0271ZM13.0271 42.0023V42.7686H12.2608V42.0023H13.0271ZM13.0271 42.7686V43.5349H12.2608V42.7686H13.0271ZM13.0271 43.5349V44.3012H12.2608V43.5349H13.0271ZM13.0271 44.3012V45.0675H12.2608V44.3012H13.0271ZM13.0271 45.0675V45.8338H12.2608V45.0675H13.0271ZM14.5596 42.7686V43.5349H13.7933V42.7686H14.5596ZM14.5596 42.0023V42.7686H13.7933V42.0023H14.5596ZM14.5596 41.236V42.0023H13.7933V41.236H14.5596ZM13.7933 41.236V42.0023H13.0271V41.236H13.7933ZM13.7933 42.0023V42.7686H13.0271V42.0023H13.7933ZM13.7933 42.7686V43.5349H13.0271V42.7686H13.7933ZM13.7933 43.5349V44.3012H13.0271V43.5349H13.7933ZM13.7933 44.3012V45.0675H13.0271V44.3012H13.7933ZM12.2608 45.0675V45.8338H11.4945V45.0675H12.2608ZM12.2608 44.3012V45.0675H11.4945V44.3012H12.2608ZM12.2608 43.5349V44.3012H11.4945V43.5349H12.2608ZM12.2608 42.7686V43.5349H11.4945V42.7686H12.2608ZM12.2608 42.0023V42.7686H11.4945V42.0023H12.2608ZM12.2608 41.236V42.0023H11.4945V41.236H12.2608ZM6.13038 45.8338V46.6001H5.36408V45.8338H6.13038ZM6.89667 45.8338V46.6001H6.13038V45.8338H6.89667ZM7.66297 45.8338V46.6001H6.89667V45.8338H7.66297ZM8.42927 45.8338V46.6001H7.66297V45.8338H8.42927ZM9.96186 45.8338V46.6001H9.19557V45.8338H9.96186ZM10.7282 45.8338V46.6001H9.96186V45.8338H10.7282ZM10.7282 45.0675V45.8338H9.96186V45.0675H10.7282ZM9.96186 45.0675V45.8338H9.19557V45.0675H9.96186ZM8.42927 45.0675V45.8338H7.66297V45.0675H8.42927ZM7.66297 45.0675V45.8338H6.89667V45.0675H7.66297ZM6.89667 45.0675V45.8338H6.13038V45.0675H6.89667ZM6.13038 45.0675V45.8338H5.36408V45.0675H6.13038ZM6.13038 44.3012V45.0675H5.36408V44.3012H6.13038ZM6.89667 44.3012V45.0675H6.13038V44.3012H6.89667ZM7.66297 44.3012V45.0675H6.89667V44.3012H7.66297ZM8.42927 44.3012V45.0675H7.66297V44.3012H8.42927ZM9.96186 44.3012V45.0675H9.19557V44.3012H9.96186ZM10.7282 44.3012V45.0675H9.96186V44.3012H10.7282ZM10.7282 43.5349V44.3012H9.96186V43.5349H10.7282ZM9.96186 43.5349V44.3012H9.19557V43.5349H9.96186ZM8.42927 43.5349V44.3012H7.66297V43.5349H8.42927ZM7.66297 43.5349V44.3012H6.89667V43.5349H7.66297ZM6.89667 43.5349V44.3012H6.13038V43.5349H6.89667ZM6.13038 43.5349V44.3012H5.36408V43.5349H6.13038ZM6.13038 42.7686V43.5349H5.36408V42.7686H6.13038ZM10.7282 42.7686V43.5349H9.96186V42.7686H10.7282ZM13.7933 31.2742V30.5079H14.5596V31.2742H13.7933ZM13.7933 32.0405V31.2742H14.5596V32.0405H13.7933ZM13.7933 32.8067V32.0405H14.5596V32.8067H13.7933ZM12.2608 32.8067V32.0405H13.0271V32.8067H12.2608ZM12.2608 32.0405V31.2742H13.0271V32.0405H12.2608ZM12.2608 31.2742V30.5079H13.0271V31.2742H12.2608ZM12.2608 30.5079V29.7416H13.0271V30.5079H12.2608ZM12.2608 29.7416V28.9753H13.0271V29.7416H12.2608ZM12.2608 28.9753V28.209H13.0271V28.9753H12.2608ZM10.7282 28.209V27.4427H11.4945V28.209H10.7282ZM10.7282 28.9753V28.209H11.4945V28.9753H10.7282ZM10.7282 29.7416V28.9753H11.4945V29.7416H10.7282ZM10.7282 30.5079V29.7416H11.4945V30.5079H10.7282ZM10.7282 31.2742V30.5079H11.4945V31.2742H10.7282ZM10.7282 32.0405V31.2742H11.4945V32.0405H10.7282ZM10.7282 32.8067V32.0405H11.4945V32.8067H10.7282ZM11.4945 32.8067V32.0405H12.2608V32.8067H11.4945ZM11.4945 32.0405V31.2742H12.2608V32.0405H11.4945ZM11.4945 31.2742V30.5079H12.2608V31.2742H11.4945ZM11.4945 30.5079V29.7416H12.2608V30.5079H11.4945ZM11.4945 29.7416V28.9753H12.2608V29.7416H11.4945ZM11.4945 28.9753V28.209H12.2608V28.9753H11.4945ZM13.0271 29.7416V28.9753H13.7933V29.7416H13.0271ZM13.0271 30.5079V29.7416H13.7933V30.5079H13.0271ZM13.0271 31.2742V30.5079H13.7933V31.2742H13.0271ZM13.0271 32.0405V31.2742H13.7933V32.0405H13.0271ZM13.0271 32.8067V32.0405H13.7933V32.8067H13.0271ZM4.59778 28.209V27.4427H5.36408V28.209H4.59778ZM4.59778 28.9753V28.209H5.36408V28.9753H4.59778ZM4.59778 29.7416V28.9753H5.36408V29.7416H4.59778ZM4.59778 30.5079V29.7416H5.36408V30.5079H4.59778ZM4.59778 31.2742V30.5079H5.36408V31.2742H4.59778ZM4.59778 32.0405V31.2742H5.36408V32.0405H4.59778ZM4.59778 32.8067V32.0405H5.36408V32.8067H4.59778ZM3.06519 32.8067V32.0405H3.83149V32.8067H3.06519ZM3.06519 32.0405V31.2742H3.83149V32.0405H3.06519ZM3.06519 31.2742V30.5079H3.83149V31.2742H3.06519ZM3.06519 30.5079V29.7416H3.83149V30.5079H3.06519ZM3.06519 29.7416V28.9753H3.83149V29.7416H3.06519ZM3.06519 28.9753V28.209H3.83149V28.9753H3.06519ZM1.53259 31.2742V30.5079H2.29889V31.2742H1.53259ZM1.53259 32.0405V31.2742H2.29889V32.0405H1.53259ZM1.53259 32.8067V32.0405H2.29889V32.8067H1.53259ZM2.29889 32.8067V32.0405H3.06519V32.8067H2.29889ZM2.29889 32.0405V31.2742H3.06519V32.0405H2.29889ZM2.29889 31.2742V30.5079H3.06519V31.2742H2.29889ZM2.29889 30.5079V29.7416H3.06519V30.5079H2.29889ZM2.29889 29.7416V28.9753H3.06519V29.7416H2.29889ZM3.83149 28.9753V28.209H4.59778V28.9753H3.83149ZM3.83149 29.7416V28.9753H4.59778V29.7416H3.83149ZM3.83149 30.5079V29.7416H4.59778V30.5079H3.83149ZM3.83149 31.2742V30.5079H4.59778V31.2742H3.83149ZM3.83149 32.0405V31.2742H4.59778V32.0405H3.83149ZM3.83149 32.8067V32.0405H4.59778V32.8067H3.83149ZM9.96186 28.209V27.4427H10.7282V28.209H9.96186ZM9.19557 28.209V27.4427H9.96186V28.209H9.19557ZM7.66297 28.209V27.4427H8.42927V28.209H7.66297ZM6.89667 28.209V27.4427H7.66297V28.209H6.89667ZM6.13038 28.209V27.4427H6.89667V28.209H6.13038ZM5.36408 28.209V27.4427H6.13038V28.209H5.36408ZM5.36408 28.9753V28.209H6.13038V28.9753H5.36408ZM6.13038 28.9753V28.209H6.89667V28.9753H6.13038ZM6.89667 28.9753V28.209H7.66297V28.9753H6.89667ZM7.66297 28.9753V28.209H8.42927V28.9753H7.66297ZM9.19557 28.9753V28.209H9.96186V28.9753H9.19557ZM9.96186 28.9753V28.209H10.7282V28.9753H9.96186ZM9.96186 29.7416V28.9753H10.7282V29.7416H9.96186ZM9.19557 29.7416V28.9753H9.96186V29.7416H9.19557ZM7.66297 29.7416V28.9753H8.42927V29.7416H7.66297ZM6.89667 29.7416V28.9753H7.66297V29.7416H6.89667ZM6.13038 29.7416V28.9753H6.89667V29.7416H6.13038ZM5.36408 29.7416V28.9753H6.13038V29.7416H5.36408ZM5.36408 30.5079V29.7416H6.13038V30.5079H5.36408ZM6.13038 30.5079V29.7416H6.89667V30.5079H6.13038ZM6.89667 30.5079V29.7416H7.66297V30.5079H6.89667ZM7.66297 30.5079V29.7416H8.42927V30.5079H7.66297ZM9.19557 30.5079V29.7416H9.96186V30.5079H9.19557ZM9.96186 30.5079V29.7416H10.7282V30.5079H9.96186ZM9.96186 31.2742V30.5079H10.7282V31.2742H9.96186ZM5.36408 31.2742V30.5079H6.13038V31.2742H5.36408ZM2.29889 33.573V34.3393H1.53259V33.573H2.29889ZM3.06519 33.573V34.3393H2.29889V33.573H3.06519ZM2.29889 32.8067V33.573H1.53259V32.8067H2.29889ZM4.59778 32.8067V33.573H3.83149V32.8067H4.59778ZM4.59778 33.573V34.3393H3.83149V33.573H4.59778ZM5.36408 33.573V34.3393H4.59778V33.573H5.36408ZM5.36408 32.8067V33.573H4.59778V32.8067H5.36408ZM3.06519 32.8067V33.573H2.29889V32.8067H3.06519ZM3.83149 32.8067V33.573H3.06519V32.8067H3.83149ZM3.83149 33.573V34.3393H3.06519V33.573H3.83149ZM8.42927 35.8719V36.6382H7.66297V35.8719H8.42927ZM8.42927 36.6382V37.4045H7.66297V36.6382H8.42927ZM9.96186 36.6382V37.4045H9.19557V36.6382H9.96186ZM10.7282 36.6382V37.4045H9.96186V36.6382H10.7282ZM11.4945 36.6382V37.4045H10.7282V36.6382H11.4945ZM12.2608 36.6382V37.4045H11.4945V36.6382H12.2608ZM13.0271 36.6382V37.4045H12.2608V36.6382H13.0271ZM13.7933 36.6382V37.4045H13.0271V36.6382H13.7933ZM14.5596 35.8719V36.6382H13.7933V35.8719H14.5596ZM13.7933 35.8719V36.6382H13.0271V35.8719H13.7933ZM13.0271 35.8719V36.6382H12.2608V35.8719H13.0271ZM12.2608 35.8719V36.6382H11.4945V35.8719H12.2608ZM11.4945 35.8719V36.6382H10.7282V35.8719H11.4945ZM10.7282 35.8719V36.6382H9.96186V35.8719H10.7282ZM9.96186 35.8719V36.6382H9.19557V35.8719H9.96186ZM14.5596 36.6382V37.4045H13.7933V36.6382H14.5596ZM14.5596 37.4045V38.1708H13.7933V37.4045H14.5596ZM14.5596 38.1708V38.9371H13.7933V38.1708H14.5596ZM14.5596 38.9371V39.7034H13.7933V38.9371H14.5596ZM14.5596 39.7034V40.4697H13.7933V39.7034H14.5596ZM14.5596 40.4697V41.236H13.7933V40.4697H14.5596ZM13.7933 40.4697V41.236H13.0271V40.4697H13.7933ZM13.0271 40.4697V41.236H12.2608V40.4697H13.0271ZM12.2608 40.4697V41.236H11.4945V40.4697H12.2608ZM11.4945 40.4697V41.236H10.7282V40.4697H11.4945ZM11.4945 39.7034V40.4697H10.7282V39.7034H11.4945ZM12.2608 39.7034V40.4697H11.4945V39.7034H12.2608ZM13.0271 39.7034V40.4697H12.2608V39.7034H13.0271ZM13.7933 39.7034V40.4697H13.0271V39.7034H13.7933ZM13.7933 38.9371V39.7034H13.0271V38.9371H13.7933ZM13.0271 38.9371V39.7034H12.2608V38.9371H13.0271ZM12.2608 38.9371V39.7034H11.4945V38.9371H12.2608ZM11.4945 38.9371V39.7034H10.7282V38.9371H11.4945ZM8.42927 37.4045V38.1708H7.66297V37.4045H8.42927ZM8.42927 38.1708V38.9371H7.66297V38.1708H8.42927ZM9.96186 38.1708V38.9371H9.19557V38.1708H9.96186ZM10.7282 38.1708V38.9371H9.96186V38.1708H10.7282ZM11.4945 38.1708V38.9371H10.7282V38.1708H11.4945ZM12.2608 38.1708V38.9371H11.4945V38.1708H12.2608ZM13.0271 38.1708V38.9371H12.2608V38.1708H13.0271ZM13.7933 38.1708V38.9371H13.0271V38.1708H13.7933ZM13.7933 37.4045V38.1708H13.0271V37.4045H13.7933ZM13.0271 37.4045V38.1708H12.2608V37.4045H13.0271ZM12.2608 37.4045V38.1708H11.4945V37.4045H12.2608ZM11.4945 37.4045V38.1708H10.7282V37.4045H11.4945ZM10.7282 37.4045V38.1708H9.96186V37.4045H10.7282ZM9.96186 37.4045V38.1708H9.19557V37.4045H9.96186ZM6.89667 42.7686V43.5349H6.13038V42.7686H6.89667ZM7.66297 42.7686V43.5349H6.89667V42.7686H7.66297ZM8.42927 42.7686V43.5349H7.66297V42.7686H8.42927ZM9.96186 42.7686V43.5349H9.19557V42.7686H9.96186ZM10.7282 42.0023V42.7686H9.96186V42.0023H10.7282ZM6.13038 42.0023V42.7686H5.36408V42.0023H6.13038ZM6.89667 30.5079V31.2742H6.13038V30.5079H6.89667ZM7.66297 30.5079V31.2742H6.89667V30.5079H7.66297ZM8.42927 30.5079V31.2742H7.66297V30.5079H8.42927ZM9.96186 30.5079V31.2742H9.19557V30.5079H9.96186ZM6.13038 31.2742V32.0405H5.36408V31.2742H6.13038ZM10.7282 31.2742V32.0405H9.96186V31.2742H10.7282ZM11.4945 32.8067V33.573H10.7282V32.8067H11.4945ZM12.2608 32.8067V33.573H11.4945V32.8067H12.2608ZM13.0271 32.8067V33.573H12.2608V32.8067H13.0271ZM13.7933 32.8067V33.573H13.0271V32.8067H13.7933ZM14.5596 32.8067V33.573H13.7933V32.8067H14.5596ZM8.42927 38.9371V39.7034H7.66297V38.9371H8.42927ZM9.96186 38.9371V39.7034H9.19557V38.9371H9.96186ZM10.7282 38.9371V39.7034H9.96186V38.9371H10.7282ZM9.19557 27.4427V28.209H8.42927V27.4427H9.19557ZM9.19557 28.209V28.9753H8.42927V28.209H9.19557ZM9.19557 28.9753V29.7416H8.42927V28.9753H9.19557ZM9.19557 29.7416V30.5079H8.42927V29.7416H9.19557ZM9.19557 30.5079V31.2742H8.42927V30.5079H9.19557ZM9.19557 35.8719V36.6382H8.42927V35.8719H9.19557ZM9.19557 36.6382V37.4045H8.42927V36.6382H9.19557ZM9.19557 37.4045V38.1708H8.42927V37.4045H9.19557ZM9.19557 38.1708V38.9371H8.42927V38.1708H9.19557ZM9.19557 38.9371V39.7034H8.42927V38.9371H9.19557ZM9.19557 42.7686V43.5349H8.42927V42.7686H9.19557ZM9.19557 43.5349V44.3012H8.42927V43.5349H9.19557ZM9.19557 44.3012V45.0675H8.42927V44.3012H9.19557ZM9.19557 45.0675V45.8338H8.42927V45.0675H9.19557ZM9.19557 45.8338V46.6001H8.42927V45.8338H9.19557ZM18.3762 45.8338V46.6001H17.6099V45.8338H18.3762ZM18.3762 45.0675V45.8338H17.6099V45.0675H18.3762ZM18.3762 44.3012V45.0675H17.6099V44.3012H18.3762ZM18.3762 43.5349V44.3012H17.6099V43.5349H18.3762ZM18.3762 42.7686V43.5349H17.6099V42.7686H18.3762ZM18.3762 42.0023V42.7686H17.6099V42.0023H18.3762ZM18.3762 41.236V42.0023H17.6099V41.236H18.3762ZM18.3762 40.4697V41.236H17.6099V40.4697H18.3762ZM18.3762 39.7034V40.4697H17.6099V39.7034H18.3762ZM18.3762 38.9371V39.7034H17.6099V38.9371H18.3762ZM18.3762 38.1708V38.9371H17.6099V38.1708H18.3762ZM18.3762 37.4045V38.1708H17.6099V37.4045H18.3762ZM18.3762 36.6382V37.4045H17.6099V36.6382H18.3762ZM18.3762 35.8719V36.6382H17.6099V35.8719H18.3762ZM18.3762 35.1056V35.8719H17.6099V35.1056H18.3762ZM19.1425 35.1056V35.8719H18.3762V35.1056H19.1425ZM19.1425 35.8719V36.6382H18.3762V35.8719H19.1425ZM19.1425 36.6382V37.4045H18.3762V36.6382H19.1425ZM19.1425 37.4045V38.1708H18.3762V37.4045H19.1425ZM19.1425 38.1708V38.9371H18.3762V38.1708H19.1425ZM19.1425 38.9371V39.7034H18.3762V38.9371H19.1425ZM19.1425 39.7034V40.4697H18.3762V39.7034H19.1425ZM19.9088 40.4697V41.236H19.1425V40.4697H19.9088ZM19.9088 41.236V42.0023H19.1425V41.236H19.9088ZM19.9088 42.0023V42.7686H19.1425V42.0023H19.9088ZM19.9088 42.7686V43.5349H19.1425V42.7686H19.9088ZM19.9088 43.5349V44.3012H19.1425V43.5349H19.9088ZM19.9088 44.3012V45.0675H19.1425V44.3012H19.9088ZM19.9088 45.0675V45.8338H19.1425V45.0675H19.9088ZM19.9088 45.8338V46.6001H19.1425V45.8338H19.9088ZM20.6751 45.8338V46.6001H19.9088V45.8338H20.6751ZM21.4414 45.8338V46.6001H20.6751V45.8338H21.4414ZM21.4414 45.0675V45.8338H20.6751V45.0675H21.4414ZM21.4414 44.3012V45.0675H20.6751V44.3012H21.4414ZM21.4414 43.5349V44.3012H20.6751V43.5349H21.4414ZM21.4414 42.7686V43.5349H20.6751V42.7686H21.4414ZM21.4414 42.0023V42.7686H20.6751V42.0023H21.4414ZM21.4414 41.236V42.0023H20.6751V41.236H21.4414ZM21.4414 40.4697V41.236H20.6751V40.4697H21.4414ZM20.6751 40.4697V41.236H19.9088V40.4697H20.6751ZM20.6751 39.7034V40.4697H19.9088V39.7034H20.6751ZM20.6751 41.236V42.0023H19.9088V41.236H20.6751ZM20.6751 42.0023V42.7686H19.9088V42.0023H20.6751ZM20.6751 42.7686V43.5349H19.9088V42.7686H20.6751ZM20.6751 43.5349V44.3012H19.9088V43.5349H20.6751ZM20.6751 44.3012V45.0675H19.9088V44.3012H20.6751ZM20.6751 45.0675V45.8338H19.9088V45.0675H20.6751ZM19.1425 45.8338V46.6001H18.3762V45.8338H19.1425ZM19.1425 45.0675V45.8338H18.3762V45.0675H19.1425ZM19.1425 44.3012V45.0675H18.3762V44.3012H19.1425ZM19.1425 43.5349V44.3012H18.3762V43.5349H19.1425ZM19.1425 42.7686V43.5349H18.3762V42.7686H19.1425ZM19.1425 42.0023V42.7686H18.3762V42.0023H19.1425ZM19.1425 41.236V42.0023H18.3762V41.236H19.1425ZM19.1425 40.4697V41.236H18.3762V40.4697H19.1425ZM18.3762 32.0405V32.8067H17.6099V32.0405H18.3762ZM18.3762 32.8067V33.573H17.6099V32.8067H18.3762ZM18.3762 33.573V34.3393H17.6099V33.573H18.3762ZM18.3762 34.3393V35.1056H17.6099V34.3393H18.3762ZM20.6751 32.8067V33.573H19.9088V32.8067H20.6751ZM20.6751 33.573V34.3393H19.9088V33.573H20.6751ZM20.6751 34.3393V35.1056H19.9088V34.3393H20.6751ZM20.6751 35.1056V35.8719H19.9088V35.1056H20.6751ZM20.6751 35.8719V36.6382H19.9088V35.8719H20.6751ZM20.6751 36.6382V37.4045H19.9088V36.6382H20.6751ZM20.6751 37.4045V38.1708H19.9088V37.4045H20.6751ZM21.4414 38.1708V38.9371H20.6751V38.1708H21.4414ZM21.4414 38.9371V39.7034H20.6751V38.9371H21.4414ZM21.4414 39.7034V40.4697H20.6751V39.7034H21.4414ZM21.4414 37.4045V38.1708H20.6751V37.4045H21.4414ZM21.4414 36.6382V37.4045H20.6751V36.6382H21.4414ZM21.4414 35.8719V36.6382H20.6751V35.8719H21.4414ZM21.4414 35.1056V35.8719H20.6751V35.1056H21.4414ZM21.4414 34.3393V35.1056H20.6751V34.3393H21.4414ZM21.4414 33.573V34.3393H20.6751V33.573H21.4414ZM21.4414 32.8067V33.573H20.6751V32.8067H21.4414ZM21.4414 32.0405V32.8067H20.6751V32.0405H21.4414ZM20.6751 32.0405V32.8067H19.9088V32.0405H20.6751ZM19.9088 32.0405V32.8067H19.1425V32.0405H19.9088ZM19.9088 32.8067V33.573H19.1425V32.8067H19.9088ZM19.1425 33.573V34.3393H18.3762V33.573H19.1425ZM19.1425 34.3393V35.1056H18.3762V34.3393H19.1425ZM19.1425 32.8067V33.573H18.3762V32.8067H19.1425ZM19.1425 32.0405V32.8067H18.3762V32.0405H19.1425ZM19.9088 33.573V34.3393H19.1425V33.573H19.9088ZM19.9088 34.3393V35.1056H19.1425V34.3393H19.9088ZM19.9088 35.1056V35.8719H19.1425V35.1056H19.9088ZM19.9088 35.8719V36.6382H19.1425V35.8719H19.9088ZM19.9088 36.6382V37.4045H19.1425V36.6382H19.9088ZM19.9088 37.4045V38.1708H19.1425V37.4045H19.9088ZM19.9088 38.1708V38.9371H19.1425V38.1708H19.9088ZM19.9088 38.9371V39.7034H19.1425V38.9371H19.9088ZM19.9088 39.7034V40.4697H19.1425V39.7034H19.9088ZM20.6751 38.9371V39.7034H19.9088V38.9371H20.6751ZM20.6751 38.1708V38.9371H19.9088V38.1708H20.6751ZM26.8054 35.1056V35.8719H26.0391V35.1056H26.8054ZM26.8054 32.0405V32.8067H26.0391V32.0405H26.8054ZM26.8054 32.8067V33.573H26.0391V32.8067H26.8054ZM27.5717 32.8067V33.573H26.8054V32.8067H27.5717ZM28.338 33.573V34.3393H27.5717V33.573H28.338ZM27.5717 34.3393V35.1056H26.8054V34.3393H27.5717ZM27.5717 33.573V34.3393H26.8054V33.573H27.5717ZM26.8054 33.573V34.3393H26.0391V33.573H26.8054ZM26.0391 33.573V34.3393H25.2728V33.573H26.0391ZM26.0391 34.3393V35.1056H25.2728V34.3393H26.0391ZM26.8054 34.3393V35.1056H26.0391V34.3393H26.8054ZM26.0391 35.1056V35.8719H25.2728V35.1056H26.0391ZM25.2728 34.3393V35.1056H24.5065V34.3393H25.2728ZM25.2728 33.573V34.3393H24.5065V33.573H25.2728ZM25.2728 32.8067V33.573H24.5065V32.8067H25.2728ZM25.2728 32.0405V32.8067H24.5065V32.0405H25.2728ZM26.0391 32.0405V32.8067H25.2728V32.0405H26.0391ZM26.0391 32.8067V33.573H25.2728V32.8067H26.0391ZM24.5065 32.0405V32.8067H23.7402V32.0405H24.5065ZM24.5065 32.8067V33.573H23.7402V32.8067H24.5065ZM24.5065 33.573V34.3393H23.7402V33.573H24.5065ZM24.5065 34.3393V35.1056H23.7402V34.3393H24.5065ZM23.7402 32.0405V32.8067H22.9739V32.0405H23.7402ZM23.7402 32.8067V33.573H22.9739V32.8067H23.7402ZM22.9739 32.8067V33.573H22.2076V32.8067H22.9739ZM22.9739 33.573V34.3393H22.2076V33.573H22.9739ZM22.2076 33.573V34.3393H21.4414V33.573H22.2076ZM22.2076 34.3393V35.1056H21.4414V34.3393H22.2076ZM22.9739 34.3393V35.1056H22.2076V34.3393H22.9739ZM23.7402 34.3393V35.1056H22.9739V34.3393H23.7402ZM23.7402 33.573V34.3393H22.9739V33.573H23.7402ZM22.2076 35.1056V35.8719H21.4414V35.1056H22.2076ZM22.9739 32.0405V32.8067H22.2076V32.0405H22.9739ZM22.2076 32.8067V33.573H21.4414V32.8067H22.2076ZM25.2728 35.1056V35.8719H24.5065V35.1056H25.2728ZM26.0391 35.8719V36.6382H25.2728V35.8719H26.0391ZM32.1815 42.0023V41.236H32.9478V42.0023H32.1815ZM31.4152 42.0023V41.236H32.1815V42.0023H31.4152ZM30.6489 42.0023V41.236H31.4152V42.0023H30.6489ZM29.8826 42.0023V41.236H30.6489V42.0023H29.8826ZM29.1163 42.0023V41.236H29.8826V42.0023H29.1163ZM29.1163 42.7686V42.0023H29.8826V42.7686H29.1163ZM29.1163 43.5349V42.7686H29.8826V43.5349H29.1163ZM29.8826 43.5349V42.7686H30.6489V43.5349H29.8826ZM30.6489 43.5349V42.7686H31.4152V43.5349H30.6489ZM31.4152 43.5349V42.7686H32.1815V43.5349H31.4152ZM31.4152 42.7686V42.0023H32.1815V42.7686H31.4152ZM32.1815 42.7686V42.0023H32.9478V42.7686H32.1815ZM30.6489 42.7686V42.0023H31.4152V42.7686H30.6489ZM29.8826 42.7686V42.0023H30.6489V42.7686H29.8826ZM32.1815 43.5349V42.7686H32.9478V43.5349H32.1815ZM32.9478 43.5349V42.7686H33.7141V43.5349H32.9478ZM32.9478 44.3012V43.5349H33.7141V44.3012H32.9478ZM32.1815 44.3012V43.5349H32.9478V44.3012H32.1815ZM31.4152 44.3012V43.5349H32.1815V44.3012H31.4152ZM30.6489 44.3012V43.5349H31.4152V44.3012H30.6489ZM29.8826 44.3012V43.5349H30.6489V44.3012H29.8826ZM29.8826 45.0675V44.3012H30.6489V45.0675H29.8826ZM30.6489 45.0675V44.3012H31.4152V45.0675H30.6489ZM31.4152 45.0675V44.3012H32.1815V45.0675H31.4152ZM32.1815 45.0675V44.3012H32.9478V45.0675H32.1815ZM32.9478 45.0675V44.3012H33.7141V45.0675H32.9478ZM31.4152 45.8338V45.0675H32.1815V45.8338H31.4152ZM30.6489 45.8338V45.0675H31.4152V45.8338H30.6489ZM32.1815 45.8338V45.0675H32.9478V45.8338H32.1815ZM32.1815 46.6001V45.8338H32.9478V46.6001H32.1815ZM32.9478 46.6001V45.8338H33.7141V46.6001H32.9478ZM32.9478 45.8338V45.0675H33.7141V45.8338H32.9478ZM33.7141 45.8338V45.0675H34.4804V45.8338H33.7141ZM33.7141 46.6001V45.8338H34.4804V46.6001H33.7141ZM33.7141 45.0675V44.3012H34.4804V45.0675H33.7141ZM34.4804 45.0675V44.3012H35.2467V45.0675H34.4804ZM34.4804 44.3012V43.5349H35.2467V44.3012H34.4804ZM33.7141 44.3012V43.5349H34.4804V44.3012H33.7141ZM35.2467 44.3012V43.5349H36.013V44.3012H35.2467ZM35.2467 45.0675V44.3012H36.013V45.0675H35.2467ZM35.2467 45.8338V45.0675H36.013V45.8338H35.2467ZM35.2467 46.6001V45.8338H36.013V46.6001H35.2467ZM34.4804 46.6001V45.8338H35.2467V46.6001H34.4804ZM34.4804 45.8338V45.0675H35.2467V45.8338H34.4804ZM36.013 46.6001V45.8338H36.7793V46.6001H36.013ZM37.5456 45.8338V45.0675H38.3119V45.8338H37.5456ZM37.5456 45.0675V44.3012H38.3119V45.0675H37.5456ZM37.5456 44.3012V43.5349H38.3119V44.3012H37.5456ZM36.7793 44.3012V43.5349H37.5456V44.3012H36.7793ZM36.013 44.3012V43.5349H36.7793V44.3012H36.013ZM36.013 45.0675V44.3012H36.7793V45.0675H36.013ZM36.013 45.8338V45.0675H36.7793V45.8338H36.013ZM36.7793 45.8338V45.0675H37.5456V45.8338H36.7793ZM36.7793 45.0675V44.3012H37.5456V45.0675H36.7793ZM38.3119 45.0675V44.3012H39.0782V45.0675H38.3119ZM38.3119 45.8338V45.0675H39.0782V45.8338H38.3119ZM39.0782 45.8338V45.0675H39.8445V45.8338H39.0782ZM39.0782 45.0675V44.3012H39.8445V45.0675H39.0782ZM39.8445 45.0675V44.3012H40.6108V45.0675H39.8445ZM39.8445 44.3012V43.5349H40.6108V44.3012H39.8445ZM39.8445 43.5349V42.7686H40.6108V43.5349H39.8445ZM39.0782 43.5349V42.7686H39.8445V43.5349H39.0782ZM39.0782 44.3012V43.5349H39.8445V44.3012H39.0782ZM38.3119 44.3012V43.5349H39.0782V44.3012H38.3119ZM38.3119 43.5349V42.7686H39.0782V43.5349H38.3119ZM37.5456 43.5349V42.7686H38.3119V43.5349H37.5456ZM40.6108 43.5349V42.7686H41.3771V43.5349H40.6108ZM40.6108 42.7686V42.0023H41.3771V42.7686H40.6108ZM40.6108 42.0023V41.236H41.3771V42.0023H40.6108ZM40.6108 41.236V40.4697H41.3771V41.236H40.6108ZM40.6108 40.4697V39.7034H41.3771V40.4697H40.6108ZM40.6108 39.7034V38.9371H41.3771V39.7034H40.6108ZM40.6108 38.9371V38.1708H41.3771V38.9371H40.6108ZM40.6108 38.1708V37.4045H41.3771V38.1708H40.6108ZM40.6108 37.4045V36.6382H41.3771V37.4045H40.6108ZM40.6108 36.6382V35.8719H41.3771V36.6382H40.6108ZM39.8445 36.6382V35.8719H40.6108V36.6382H39.8445ZM39.8445 35.8719V35.1056H40.6108V35.8719H39.8445ZM40.6108 35.8719V35.1056H41.3771V35.8719H40.6108ZM39.0782 35.8719V35.1056H39.8445V35.8719H39.0782ZM38.3119 35.8719V35.1056H39.0782V35.8719H38.3119ZM37.5456 35.8719V35.1056H38.3119V35.8719H37.5456ZM36.7793 35.8719V35.1056H37.5456V35.8719H36.7793ZM37.5456 36.6382V35.8719H38.3119V36.6382H37.5456ZM37.5456 37.4045V36.6382H38.3119V37.4045H37.5456ZM37.5456 38.1708V37.4045H38.3119V38.1708H37.5456ZM37.5456 38.9371V38.1708H38.3119V38.9371H37.5456ZM37.5456 39.7034V38.9371H38.3119V39.7034H37.5456ZM37.5456 40.4697V39.7034H38.3119V40.4697H37.5456ZM37.5456 41.236V40.4697H38.3119V41.236H37.5456ZM37.5456 42.0023V41.236H38.3119V42.0023H37.5456ZM37.5456 42.7686V42.0023H38.3119V42.7686H37.5456ZM38.3119 42.7686V42.0023H39.0782V42.7686H38.3119ZM39.0782 42.7686V42.0023H39.8445V42.7686H39.0782ZM39.8445 42.7686V42.0023H40.6108V42.7686H39.8445ZM39.8445 42.0023V41.236H40.6108V42.0023H39.8445ZM39.8445 41.236V40.4697H40.6108V41.236H39.8445ZM39.8445 40.4697V39.7034H40.6108V40.4697H39.8445ZM39.8445 39.7034V38.9371H40.6108V39.7034H39.8445ZM39.8445 38.9371V38.1708H40.6108V38.9371H39.8445ZM39.8445 38.1708V37.4045H40.6108V38.1708H39.8445ZM39.8445 37.4045V36.6382H40.6108V37.4045H39.8445ZM39.0782 36.6382V35.8719H39.8445V36.6382H39.0782ZM38.3119 36.6382V35.8719H39.0782V36.6382H38.3119ZM38.3119 37.4045V36.6382H39.0782V37.4045H38.3119ZM38.3119 38.1708V37.4045H39.0782V38.1708H38.3119ZM38.3119 38.9371V38.1708H39.0782V38.9371H38.3119ZM38.3119 39.7034V38.9371H39.0782V39.7034H38.3119ZM39.0782 39.7034V38.9371H39.8445V39.7034H39.0782ZM39.0782 40.4697V39.7034H39.8445V40.4697H39.0782ZM39.0782 41.236V40.4697H39.8445V41.236H39.0782ZM39.0782 42.0023V41.236H39.8445V42.0023H39.0782ZM38.3119 42.0023V41.236H39.0782V42.0023H38.3119ZM38.3119 41.236V40.4697H39.0782V41.236H38.3119ZM38.3119 40.4697V39.7034H39.0782V40.4697H38.3119ZM39.0782 38.1708V37.4045H39.8445V38.1708H39.0782ZM39.0782 37.4045V36.6382H39.8445V37.4045H39.0782ZM39.0782 38.9371V38.1708H39.8445V38.9371H39.0782ZM32.1815 36.6382V35.8719H32.9478V36.6382H32.1815ZM31.4152 36.6382V35.8719H32.1815V36.6382H31.4152ZM30.6489 36.6382V35.8719H31.4152V36.6382H30.6489ZM29.8826 36.6382V35.8719H30.6489V36.6382H29.8826ZM29.1163 36.6382V35.8719H29.8826V36.6382H29.1163ZM29.1163 35.8719V35.1056H29.8826V35.8719H29.1163ZM29.8826 35.8719V35.1056H30.6489V35.8719H29.8826ZM30.6489 35.8719V35.1056H31.4152V35.8719H30.6489ZM31.4152 35.8719V35.1056H32.1815V35.8719H31.4152ZM32.1815 35.8719V35.1056H32.9478V35.8719H32.1815ZM32.9478 35.8719V35.1056H33.7141V35.8719H32.9478ZM32.9478 35.1056V34.3393H33.7141V35.1056H32.9478ZM32.1815 35.1056V34.3393H32.9478V35.1056H32.1815ZM31.4152 35.1056V34.3393H32.1815V35.1056H31.4152ZM30.6489 35.1056V34.3393H31.4152V35.1056H30.6489ZM30.6489 34.3393V33.573H31.4152V34.3393H30.6489ZM29.8826 34.3393V33.573H30.6489V34.3393H29.8826ZM29.8826 35.1056V34.3393H30.6489V35.1056H29.8826ZM30.6489 33.573V32.8067H31.4152V33.573H30.6489ZM31.4152 33.573V32.8067H32.1815V33.573H31.4152ZM31.4152 34.3393V33.573H32.1815V34.3393H31.4152ZM32.1815 34.3393V33.573H32.9478V34.3393H32.1815ZM32.1815 33.573V32.8067H32.9478V33.573H32.1815ZM32.1815 32.8067V32.0405H32.9478V32.8067H32.1815ZM32.9478 32.8067V32.0405H33.7141V32.8067H32.9478ZM33.7141 32.8067V32.0405H34.4804V32.8067H33.7141ZM34.4804 32.8067V32.0405H35.2467V32.8067H34.4804ZM35.2467 32.8067V32.0405H36.013V32.8067H35.2467ZM36.013 32.8067V32.0405H36.7793V32.8067H36.013ZM36.7793 32.8067V32.0405H37.5456V32.8067H36.7793ZM37.5456 32.8067V32.0405H38.3119V32.8067H37.5456ZM36.7793 33.573V32.8067H37.5456V33.573H36.7793ZM36.013 33.573V32.8067H36.7793V33.573H36.013ZM35.2467 33.573V32.8067H36.013V33.573H35.2467ZM34.4804 33.573V32.8067H35.2467V33.573H34.4804ZM33.7141 33.573V32.8067H34.4804V33.573H33.7141ZM32.9478 33.573V32.8067H33.7141V33.573H32.9478ZM32.9478 34.3393V33.573H33.7141V34.3393H32.9478ZM33.7141 34.3393V33.573H34.4804V34.3393H33.7141ZM34.4804 34.3393V33.573H35.2467V34.3393H34.4804ZM35.2467 34.3393V33.573H36.013V34.3393H35.2467ZM36.013 34.3393V33.573H36.7793V34.3393H36.013ZM36.7793 34.3393V33.573H37.5456V34.3393H36.7793ZM37.5456 33.573V32.8067H38.3119V33.573H37.5456ZM38.3119 33.573V32.8067H39.0782V33.573H38.3119ZM39.0782 33.573V32.8067H39.8445V33.573H39.0782ZM39.0782 34.3393V33.573H39.8445V34.3393H39.0782ZM39.8445 34.3393V33.573H40.6108V34.3393H39.8445ZM39.8445 35.1056V34.3393H40.6108V35.1056H39.8445ZM39.0782 35.1056V34.3393H39.8445V35.1056H39.0782ZM38.3119 35.1056V34.3393H39.0782V35.1056H38.3119ZM37.5456 35.1056V34.3393H38.3119V35.1056H37.5456ZM36.7793 35.1056V34.3393H37.5456V35.1056H36.7793ZM36.013 35.1056V34.3393H36.7793V35.1056H36.013ZM35.2467 35.1056V34.3393H36.013V35.1056H35.2467ZM34.4804 35.1056V34.3393H35.2467V35.1056H34.4804ZM33.7141 35.1056V34.3393H34.4804V35.1056H33.7141ZM37.5456 34.3393V33.573H38.3119V34.3393H37.5456ZM38.3119 34.3393V33.573H39.0782V34.3393H38.3119ZM29.8826 41.236V40.4697H30.6489V41.236H29.8826ZM30.6489 41.236V40.4697H31.4152V41.236H30.6489ZM31.4152 41.236V40.4697H32.1815V41.236H31.4152ZM32.1815 41.236V40.4697H32.9478V41.236H32.1815ZM30.6489 40.4697V39.7034H31.4152V40.4697H30.6489ZM31.4152 40.4697V39.7034H32.1815V40.4697H31.4152ZM32.9478 40.4697V39.7034H33.7141V40.4697H32.9478ZM33.7141 40.4697V39.7034H34.4804V40.4697H33.7141ZM34.4804 40.4697V39.7034H35.2467V40.4697H34.4804ZM35.2467 40.4697V39.7034H36.013V40.4697H35.2467ZM36.013 40.4697V39.7034H36.7793V40.4697H36.013ZM36.7793 40.4697V39.7034H37.5456V40.4697H36.7793ZM32.1815 40.4697V39.7034H32.9478V40.4697H32.1815ZM29.8826 40.4697V39.7034H30.6489V40.4697H29.8826ZM30.6489 39.7034V38.9371H31.4152V39.7034H30.6489ZM31.4152 39.7034V38.9371H32.1815V39.7034H31.4152ZM32.1815 39.7034V38.9371H32.9478V39.7034H32.1815ZM32.9478 39.7034V38.9371H33.7141V39.7034H32.9478ZM33.7141 39.7034V38.9371H34.4804V39.7034H33.7141ZM34.4804 39.7034V38.9371H35.2467V39.7034H34.4804ZM35.2467 39.7034V38.9371H36.013V39.7034H35.2467ZM36.013 39.7034V38.9371H36.7793V39.7034H36.013ZM36.7793 39.7034V38.9371H37.5456V39.7034H36.7793ZM36.7793 38.9371V38.1708H37.5456V38.9371H36.7793ZM36.013 38.9371V38.1708H36.7793V38.9371H36.013ZM35.2467 38.9371V38.1708H36.013V38.9371H35.2467ZM33.7141 38.9371V38.1708H34.4804V38.9371H33.7141ZM32.9478 38.9371V38.1708H33.7141V38.9371H32.9478ZM32.1815 38.9371V38.1708H32.9478V38.9371H32.1815ZM34.4804 38.9371V38.1708H35.2467V38.9371H34.4804ZM41.3771 43.5349V44.3012H40.6108V43.5349H41.3771ZM41.3771 44.3012V45.0675H40.6108V44.3012H41.3771ZM41.3771 45.0675V45.8338H40.6108V45.0675H41.3771ZM41.3771 45.8338V46.6001H40.6108V45.8338H41.3771ZM40.6108 45.8338V46.6001H39.8445V45.8338H40.6108ZM40.6108 45.0675V45.8338H39.8445V45.0675H40.6108ZM39.8445 45.8338V46.6001H39.0782V45.8338H39.8445ZM39.0782 45.8338V46.6001H38.3119V45.8338H39.0782ZM38.3119 45.8338V46.6001H37.5456V45.8338H38.3119ZM37.5456 42.7686V43.5349H36.7793V42.7686H37.5456ZM32.1815 45.8338V46.6001H31.4152V45.8338H32.1815ZM33.7141 40.4697V41.236H32.9478V40.4697H33.7141ZM48.2879 34.3393H49.0542V35.1056H48.2879V34.3393ZM48.2879 33.573H49.0542V34.3393H48.2879V33.573ZM48.2879 32.8067H49.0542V33.573H48.2879V32.8067ZM49.0542 32.8067H49.8205V33.573H49.0542V32.8067ZM49.0542 33.573H49.8205V34.3393H49.0542V33.573ZM49.8205 33.573H50.5868V34.3393H49.8205V33.573ZM49.8205 34.3393H50.5868V35.1056H49.8205V34.3393ZM49.0542 34.3393H49.8205V35.1056H49.0542V34.3393ZM50.5868 34.3393H51.3531V35.1056H50.5868V34.3393ZM50.5868 33.573H51.3531V34.3393H50.5868V33.573ZM50.5868 32.8067H51.3531V33.573H50.5868V32.8067ZM50.5868 32.0405H51.3531V32.8067H50.5868V32.0405ZM49.8205 32.0405H50.5868V32.8067H49.8205V32.0405ZM49.8205 32.8067H50.5868V33.573H49.8205V32.8067ZM51.3531 32.0405H52.1194V32.8067H51.3531V32.0405ZM52.1194 32.0405H52.8857V32.8067H52.1194V32.0405ZM52.8857 32.0405H53.652V32.8067H52.8857V32.0405ZM52.8857 32.8067H53.652V33.573H52.8857V32.8067ZM52.8857 33.573H53.652V34.3393H52.8857V33.573ZM52.8857 34.3393H53.652V35.1056H52.8857V34.3393ZM52.1194 34.3393H52.8857V35.1056H52.1194V34.3393ZM51.3531 34.3393H52.1194V35.1056H51.3531V34.3393ZM51.3531 33.573H52.1194V34.3393H51.3531V33.573ZM51.3531 32.8067H52.1194V33.573H51.3531V32.8067ZM52.1194 32.8067H52.8857V33.573H52.1194V32.8067ZM52.1194 33.573H52.8857V34.3393H52.1194V33.573ZM53.652 33.573H54.4183V34.3393H53.652V33.573ZM53.652 32.8067H54.4183V33.573H53.652V32.8067ZM54.4183 32.8067H55.1846V33.573H54.4183V32.8067ZM54.4183 33.573H55.1846V34.3393H54.4183V33.573ZM55.1846 33.573H55.9509V34.3393H55.1846V33.573ZM55.1846 34.3393H55.9509V35.1056H55.1846V34.3393ZM55.1846 35.1056H55.9509V35.8719H55.1846V35.1056ZM54.4183 35.1056H55.1846V35.8719H54.4183V35.1056ZM54.4183 34.3393H55.1846V35.1056H54.4183V34.3393ZM53.652 34.3393H54.4183V35.1056H53.652V34.3393ZM53.652 35.1056H54.4183V35.8719H53.652V35.1056ZM52.8857 35.1056H53.652V35.8719H52.8857V35.1056ZM52.1194 35.1056H52.8857V35.8719H52.1194V35.1056ZM55.9509 35.1056H56.7172V35.8719H55.9509V35.1056ZM55.9509 35.8719H56.7172V36.6382H55.9509V35.8719ZM55.9509 36.6382H56.7172V37.4045H55.9509V36.6382ZM55.9509 37.4045H56.7172V38.1708H55.9509V37.4045ZM55.9509 38.1708H56.7172V38.9371H55.9509V38.1708ZM55.9509 38.9371H56.7172V39.7034H55.9509V38.9371ZM55.9509 39.7034H56.7172V40.4697H55.9509V39.7034ZM55.9509 40.4697H56.7172V41.236H55.9509V40.4697ZM55.9509 41.236H56.7172V42.0023H55.9509V41.236ZM55.9509 42.0023H56.7172V42.7686H55.9509V42.0023ZM55.1846 42.0023H55.9509V42.7686H55.1846V42.0023ZM55.1846 42.7686H55.9509V43.5349H55.1846V42.7686ZM55.9509 42.7686H56.7172V43.5349H55.9509V42.7686ZM54.4183 42.7686H55.1846V43.5349H54.4183V42.7686ZM53.652 42.7686H54.4183V43.5349H53.652V42.7686ZM52.8857 42.7686H53.652V43.5349H52.8857V42.7686ZM52.1194 42.7686H52.8857V43.5349H52.1194V42.7686ZM52.8857 42.0023H53.652V42.7686H52.8857V42.0023ZM52.8857 41.236H53.652V42.0023H52.8857V41.236ZM52.8857 40.4697H53.652V41.236H52.8857V40.4697ZM52.8857 39.7034H53.652V40.4697H52.8857V39.7034ZM52.8857 38.9371H53.652V39.7034H52.8857V38.9371ZM52.8857 38.1708H53.652V38.9371H52.8857V38.1708ZM52.8857 37.4045H53.652V38.1708H52.8857V37.4045ZM52.8857 36.6382H53.652V37.4045H52.8857V36.6382ZM52.8857 35.8719H53.652V36.6382H52.8857V35.8719ZM53.652 35.8719H54.4183V36.6382H53.652V35.8719ZM54.4183 35.8719H55.1846V36.6382H54.4183V35.8719ZM55.1846 35.8719H55.9509V36.6382H55.1846V35.8719ZM55.1846 36.6382H55.9509V37.4045H55.1846V36.6382ZM55.1846 37.4045H55.9509V38.1708H55.1846V37.4045ZM55.1846 38.1708H55.9509V38.9371H55.1846V38.1708ZM55.1846 38.9371H55.9509V39.7034H55.1846V38.9371ZM55.1846 39.7034H55.9509V40.4697H55.1846V39.7034ZM55.1846 40.4697H55.9509V41.236H55.1846V40.4697ZM55.1846 41.236H55.9509V42.0023H55.1846V41.236ZM54.4183 42.0023H55.1846V42.7686H54.4183V42.0023ZM53.652 42.0023H54.4183V42.7686H53.652V42.0023ZM53.652 41.236H54.4183V42.0023H53.652V41.236ZM53.652 40.4697H54.4183V41.236H53.652V40.4697ZM53.652 39.7034H54.4183V40.4697H53.652V39.7034ZM53.652 38.9371H54.4183V39.7034H53.652V38.9371ZM54.4183 38.9371H55.1846V39.7034H54.4183V38.9371ZM54.4183 38.1708H55.1846V38.9371H54.4183V38.1708ZM54.4183 37.4045H55.1846V38.1708H54.4183V37.4045ZM54.4183 36.6382H55.1846V37.4045H54.4183V36.6382ZM53.652 36.6382H54.4183V37.4045H53.652V36.6382ZM53.652 37.4045H54.4183V38.1708H53.652V37.4045ZM53.652 38.1708H54.4183V38.9371H53.652V38.1708ZM54.4183 40.4697H55.1846V41.236H54.4183V40.4697ZM54.4183 41.236H55.1846V42.0023H54.4183V41.236ZM54.4183 39.7034H55.1846V40.4697H54.4183V39.7034ZM48.2879 43.5349H49.0542V44.3012H48.2879V43.5349ZM49.0542 45.8338H49.8205V46.6001H49.0542V45.8338ZM49.8205 45.8338H50.5868V46.6001H49.8205V45.8338ZM50.5868 45.8338H51.3531V46.6001H50.5868V45.8338ZM51.3531 45.8338H52.1194V46.6001H51.3531V45.8338ZM52.1194 45.8338H52.8857V46.6001H52.1194V45.8338ZM52.8857 45.8338H53.652V46.6001H52.8857V45.8338ZM52.1194 45.0675H52.8857V45.8338H52.1194V45.0675ZM51.3531 45.0675H52.1194V45.8338H51.3531V45.0675ZM50.5868 45.0675H51.3531V45.8338H50.5868V45.0675ZM49.8205 45.0675H50.5868V45.8338H49.8205V45.0675ZM49.0542 45.0675H49.8205V45.8338H49.0542V45.0675ZM48.2879 45.0675H49.0542V45.8338H48.2879V45.0675ZM48.2879 44.3012H49.0542V45.0675H48.2879V44.3012ZM49.0542 44.3012H49.8205V45.0675H49.0542V44.3012ZM49.8205 44.3012H50.5868V45.0675H49.8205V44.3012ZM50.5868 44.3012H51.3531V45.0675H50.5868V44.3012ZM51.3531 44.3012H52.1194V45.0675H51.3531V44.3012ZM52.1194 44.3012H52.8857V45.0675H52.1194V44.3012ZM52.8857 45.0675H53.652V45.8338H52.8857V45.0675ZM53.652 45.0675H54.4183V45.8338H53.652V45.0675ZM54.4183 45.0675H55.1846V45.8338H54.4183V45.0675ZM54.4183 44.3012H55.1846V45.0675H54.4183V44.3012ZM55.1846 44.3012H55.9509V45.0675H55.1846V44.3012ZM55.1846 43.5349H55.9509V44.3012H55.1846V43.5349ZM54.4183 43.5349H55.1846V44.3012H54.4183V43.5349ZM53.652 43.5349H54.4183V44.3012H53.652V43.5349ZM52.8857 43.5349H53.652V44.3012H52.8857V43.5349ZM52.1194 43.5349H52.8857V44.3012H52.1194V43.5349ZM51.3531 43.5349H52.1194V44.3012H51.3531V43.5349ZM50.5868 43.5349H51.3531V44.3012H50.5868V43.5349ZM49.8205 43.5349H50.5868V44.3012H49.8205V43.5349ZM49.0542 43.5349H49.8205V44.3012H49.0542V43.5349ZM52.8857 44.3012H53.652V45.0675H52.8857V44.3012ZM53.652 44.3012H54.4183V45.0675H53.652V44.3012ZM47.5216 44.3012H48.2879V45.0675H47.5216V44.3012ZM47.5216 43.5349H48.2879V44.3012H47.5216V43.5349ZM47.5216 42.7686H48.2879V43.5349H47.5216V42.7686ZM47.5216 42.0023H48.2879V42.7686H47.5216V42.0023ZM47.5216 41.236H48.2879V42.0023H47.5216V41.236ZM47.5216 40.4697H48.2879V41.236H47.5216V40.4697ZM47.5216 39.7034H48.2879V40.4697H47.5216V39.7034ZM47.5216 38.9371H48.2879V39.7034H47.5216V38.9371ZM47.5216 38.1708H48.2879V38.9371H47.5216V38.1708ZM47.5216 37.4045H48.2879V38.1708H47.5216V37.4045ZM47.5216 36.6382H48.2879V37.4045H47.5216V36.6382ZM47.5216 35.8719H48.2879V36.6382H47.5216V35.8719ZM47.5216 35.1056H48.2879V35.8719H47.5216V35.1056ZM46.7554 35.1056H47.5216V35.8719H46.7554V35.1056ZM46.7554 35.8719H47.5216V36.6382H46.7554V35.8719ZM46.7554 36.6382H47.5216V37.4045H46.7554V36.6382ZM46.7554 37.4045H47.5216V38.1708H46.7554V37.4045ZM46.7554 38.1708H47.5216V38.9371H46.7554V38.1708ZM46.7554 38.9371H47.5216V39.7034H46.7554V38.9371ZM46.7554 39.7034H47.5216V40.4697H46.7554V39.7034ZM45.9891 40.4697H46.7554V41.236H45.9891V40.4697ZM45.9891 41.236H46.7554V42.0023H45.9891V41.236ZM45.9891 42.0023H46.7554V42.7686H45.9891V42.0023ZM45.9891 42.7686H46.7554V43.5349H45.9891V42.7686ZM45.9891 43.5349H46.7554V44.3012H45.9891V43.5349ZM45.9891 44.3012H46.7554V45.0675H45.9891V44.3012ZM45.9891 45.0675H46.7554V45.8338H45.9891V45.0675ZM45.9891 45.8338H46.7554V46.6001H45.9891V45.8338ZM45.2228 45.8338H45.9891V46.6001H45.2228V45.8338ZM44.4565 45.8338H45.2228V46.6001H44.4565V45.8338ZM44.4565 45.0675H45.2228V45.8338H44.4565V45.0675ZM44.4565 44.3012H45.2228V45.0675H44.4565V44.3012ZM44.4565 43.5349H45.2228V44.3012H44.4565V43.5349ZM44.4565 42.7686H45.2228V43.5349H44.4565V42.7686ZM44.4565 42.0023H45.2228V42.7686H44.4565V42.0023ZM44.4565 41.236H45.2228V42.0023H44.4565V41.236ZM44.4565 40.4697H45.2228V41.236H44.4565V40.4697ZM45.2228 40.4697H45.9891V41.236H45.2228V40.4697ZM45.2228 39.7034H45.9891V40.4697H45.2228V39.7034ZM45.2228 41.236H45.9891V42.0023H45.2228V41.236ZM45.2228 42.0023H45.9891V42.7686H45.2228V42.0023ZM45.2228 42.7686H45.9891V43.5349H45.2228V42.7686ZM45.2228 43.5349H45.9891V44.3012H45.2228V43.5349ZM45.2228 44.3012H45.9891V45.0675H45.2228V44.3012ZM45.2228 45.0675H45.9891V45.8338H45.2228V45.0675ZM46.7554 44.3012H47.5216V45.0675H46.7554V44.3012ZM46.7554 43.5349H47.5216V44.3012H46.7554V43.5349ZM46.7554 42.7686H47.5216V43.5349H46.7554V42.7686ZM46.7554 42.0023H47.5216V42.7686H46.7554V42.0023ZM46.7554 41.236H47.5216V42.0023H46.7554V41.236ZM46.7554 40.4697H47.5216V41.236H46.7554V40.4697ZM47.5216 46.6001H48.2879V47.3664H47.5216V46.6001ZM47.5216 47.3664H48.2879V48.1327H47.5216V47.3664ZM47.5216 48.1327H48.2879V48.899H47.5216V48.1327ZM47.5216 48.899H48.2879V49.6653H47.5216V48.899ZM47.5216 49.6653H48.2879V50.4316H47.5216V49.6653ZM47.5216 50.4316H48.2879V51.1979H47.5216V50.4316ZM47.5216 32.8067H48.2879V33.573H47.5216V32.8067ZM47.5216 34.3393H48.2879V35.1056H47.5216V34.3393ZM45.2228 46.6001H45.9891V47.3664H45.2228V46.6001ZM45.2228 47.3664H45.9891V48.1327H45.2228V47.3664ZM45.2228 48.1327H45.9891V48.899H45.2228V48.1327ZM45.2228 48.899H45.9891V49.6653H45.2228V48.899ZM45.2228 49.6653H45.9891V50.4316H45.2228V49.6653ZM45.2228 50.4316H45.9891V51.1979H45.2228V50.4316ZM45.2228 32.8067H45.9891V33.573H45.2228V32.8067ZM45.2228 33.573H45.9891V34.3393H45.2228V33.573ZM45.2228 34.3393H45.9891V35.1056H45.2228V34.3393ZM45.2228 35.8719H45.9891V36.6382H45.2228V35.8719ZM45.2228 36.6382H45.9891V37.4045H45.2228V36.6382ZM45.2228 37.4045H45.9891V38.1708H45.2228V37.4045ZM44.4565 38.1708H45.2228V38.9371H44.4565V38.1708ZM44.4565 38.9371H45.2228V39.7034H44.4565V38.9371ZM44.4565 39.7034H45.2228V40.4697H44.4565V39.7034ZM44.4565 37.4045H45.2228V38.1708H44.4565V37.4045ZM44.4565 36.6382H45.2228V37.4045H44.4565V36.6382ZM44.4565 35.1056H45.2228V35.8719H44.4565V35.1056ZM44.4565 34.3393H45.2228V35.1056H44.4565V34.3393ZM44.4565 33.573H45.2228V34.3393H44.4565V33.573ZM44.4565 32.8067H45.2228V33.573H44.4565V32.8067ZM44.4565 32.0405H45.2228V32.8067H44.4565V32.0405ZM44.4565 50.4316H45.2228V51.1979H44.4565V50.4316ZM44.4565 49.6653H45.2228V50.4316H44.4565V49.6653ZM45.2228 32.0405H45.9891V32.8067H45.2228V32.0405ZM44.4565 48.899H45.2228V49.6653H44.4565V48.899ZM44.4565 48.1327H45.2228V48.899H44.4565V48.1327ZM44.4565 47.3664H45.2228V48.1327H44.4565V47.3664ZM44.4565 46.6001H45.2228V47.3664H44.4565V46.6001ZM45.9891 46.6001H46.7554V47.3664H45.9891V46.6001ZM46.7554 46.6001H47.5216V47.3664H46.7554V46.6001ZM46.7554 47.3664H47.5216V48.1327H46.7554V47.3664ZM45.9891 47.3664H46.7554V48.1327H45.9891V47.3664ZM45.9891 48.1327H46.7554V48.899H45.9891V48.1327ZM45.9891 48.899H46.7554V49.6653H45.9891V48.899ZM45.9891 49.6653H46.7554V50.4316H45.9891V49.6653ZM45.9891 50.4316H46.7554V51.1979H45.9891V50.4316ZM45.9891 32.0405H46.7554V32.8067H45.9891V32.0405ZM45.9891 32.8067H46.7554V33.573H45.9891V32.8067ZM46.7554 33.573H47.5216V34.3393H46.7554V33.573ZM46.7554 34.3393H47.5216V35.1056H46.7554V34.3393ZM46.7554 32.8067H47.5216V33.573H46.7554V32.8067ZM46.7554 32.0405H47.5216V32.8067H46.7554V32.0405ZM46.7554 50.4316H47.5216V51.1979H46.7554V50.4316ZM46.7554 49.6653H47.5216V50.4316H46.7554V49.6653ZM46.7554 48.899H47.5216V49.6653H46.7554V48.899ZM46.7554 48.1327H47.5216V48.899H46.7554V48.1327ZM45.9891 34.3393H46.7554V35.1056H45.9891V34.3393ZM45.9891 35.8719H46.7554V36.6382H45.9891V35.8719ZM45.9891 36.6382H46.7554V37.4045H45.9891V36.6382ZM45.9891 37.4045H46.7554V38.1708H45.9891V37.4045ZM45.9891 38.1708H46.7554V38.9371H45.9891V38.1708ZM45.9891 38.9371H46.7554V39.7034H45.9891V38.9371ZM45.9891 39.7034H46.7554V40.4697H45.9891V39.7034ZM45.2228 38.9371H45.9891V39.7034H45.2228V38.9371ZM45.2228 38.1708H45.9891V38.9371H45.2228V38.1708ZM47.5216 32.0405H48.2879V32.8067H47.5216V32.0405ZM44.4565 35.8719H45.2228V36.6382H44.4565V35.8719ZM47.5216 33.573H48.2879V34.3393H47.5216V33.573ZM45.9891 33.573H46.7554V34.3393H45.9891V33.573ZM45.9891 35.1056H46.7554V35.8719H45.9891V35.1056ZM45.2228 35.1056H45.9891V35.8719H45.2228V35.1056ZM47.5216 45.0675H48.2879V45.8338H47.5216V45.0675ZM46.7554 45.0675H47.5216V45.8338H46.7554V45.0675ZM46.7554 45.8338H47.5216V46.6001H46.7554V45.8338ZM49.8205 32.0405V32.8067H49.0542V32.0405H49.8205ZM48.2879 45.8338V46.6001H47.5216V45.8338H48.2879ZM49.0542 35.1056V35.8719H48.2879V35.1056H49.0542ZM49.0542 45.8338V46.6001H48.2879V45.8338H49.0542ZM59.7966 45.8338V46.6001H59.0303V45.8338H59.7966ZM59.7966 45.0675V45.8338H59.0303V45.0675H59.7966ZM59.7966 44.3012V45.0675H59.0303V44.3012H59.7966ZM59.7966 43.5349V44.3012H59.0303V43.5349H59.7966ZM59.7966 42.7686V43.5349H59.0303V42.7686H59.7966ZM59.7966 42.0023V42.7686H59.0303V42.0023H59.7966ZM59.7966 41.236V42.0023H59.0303V41.236H59.7966ZM59.7966 40.4697V41.236H59.0303V40.4697H59.7966ZM59.7966 39.7034V40.4697H59.0303V39.7034H59.7966ZM59.7966 38.9371V39.7034H59.0303V38.9371H59.7966ZM59.7966 38.1708V38.9371H59.0303V38.1708H59.7966ZM59.7966 37.4045V38.1708H59.0303V37.4045H59.7966ZM59.7966 36.6382V37.4045H59.0303V36.6382H59.7966ZM59.7966 35.8719V36.6382H59.0303V35.8719H59.7966ZM59.7966 35.1056V35.8719H59.0303V35.1056H59.7966ZM60.5629 35.1056V35.8719H59.7966V35.1056H60.5629ZM60.5629 35.8719V36.6382H59.7966V35.8719H60.5629ZM60.5629 36.6382V37.4045H59.7966V36.6382H60.5629ZM60.5629 37.4045V38.1708H59.7966V37.4045H60.5629ZM60.5629 38.1708V38.9371H59.7966V38.1708H60.5629ZM60.5629 38.9371V39.7034H59.7966V38.9371H60.5629ZM60.5629 39.7034V40.4697H59.7966V39.7034H60.5629ZM61.3292 40.4697V41.236H60.5629V40.4697H61.3292ZM61.3292 41.236V42.0023H60.5629V41.236H61.3292ZM61.3292 42.0023V42.7686H60.5629V42.0023H61.3292ZM61.3292 42.7686V43.5349H60.5629V42.7686H61.3292ZM61.3292 43.5349V44.3012H60.5629V43.5349H61.3292ZM61.3292 44.3012V45.0675H60.5629V44.3012H61.3292ZM61.3292 45.0675V45.8338H60.5629V45.0675H61.3292ZM61.3292 45.8338V46.6001H60.5629V45.8338H61.3292ZM62.0955 45.8338V46.6001H61.3292V45.8338H62.0955ZM62.8618 45.8338V46.6001H62.0955V45.8338H62.8618ZM62.8618 45.0675V45.8338H62.0955V45.0675H62.8618ZM62.8618 44.3012V45.0675H62.0955V44.3012H62.8618ZM62.8618 43.5349V44.3012H62.0955V43.5349H62.8618ZM62.8618 42.7686V43.5349H62.0955V42.7686H62.8618ZM62.8618 42.0023V42.7686H62.0955V42.0023H62.8618ZM62.8618 41.236V42.0023H62.0955V41.236H62.8618ZM62.8618 40.4697V41.236H62.0955V40.4697H62.8618ZM62.0955 40.4697V41.236H61.3292V40.4697H62.0955ZM62.0955 39.7034V40.4697H61.3292V39.7034H62.0955ZM62.0955 41.236V42.0023H61.3292V41.236H62.0955ZM62.0955 42.0023V42.7686H61.3292V42.0023H62.0955ZM62.0955 42.7686V43.5349H61.3292V42.7686H62.0955ZM62.0955 43.5349V44.3012H61.3292V43.5349H62.0955ZM62.0955 44.3012V45.0675H61.3292V44.3012H62.0955ZM62.0955 45.0675V45.8338H61.3292V45.0675H62.0955ZM60.5629 45.8338V46.6001H59.7966V45.8338H60.5629ZM60.5629 45.0675V45.8338H59.7966V45.0675H60.5629ZM60.5629 44.3012V45.0675H59.7966V44.3012H60.5629ZM60.5629 43.5349V44.3012H59.7966V43.5349H60.5629ZM60.5629 42.7686V43.5349H59.7966V42.7686H60.5629ZM60.5629 42.0023V42.7686H59.7966V42.0023H60.5629ZM60.5629 41.236V42.0023H59.7966V41.236H60.5629ZM60.5629 40.4697V41.236H59.7966V40.4697H60.5629ZM59.7966 27.4427V28.209H59.0303V27.4427H59.7966ZM59.7966 28.209V28.9753H59.0303V28.209H59.7966ZM59.7966 28.9753V29.7416H59.0303V28.9753H59.7966ZM59.7966 29.7416V30.5079H59.0303V29.7416H59.7966ZM59.7966 30.5079V31.2742H59.0303V30.5079H59.7966ZM59.7966 31.2742V32.0405H59.0303V31.2742H59.7966ZM59.7966 32.0405V32.8067H59.0303V32.0405H59.7966ZM59.7966 32.8067V33.573H59.0303V32.8067H59.7966ZM59.7966 33.573V34.3393H59.0303V33.573H59.7966ZM59.7966 34.3393V35.1056H59.0303V34.3393H59.7966ZM62.0955 27.4427V28.209H61.3292V27.4427H62.0955ZM62.0955 28.209V28.9753H61.3292V28.209H62.0955ZM62.0955 28.9753V29.7416H61.3292V28.9753H62.0955ZM62.0955 29.7416V30.5079H61.3292V29.7416H62.0955ZM62.0955 30.5079V31.2742H61.3292V30.5079H62.0955ZM62.0955 31.2742V32.0405H61.3292V31.2742H62.0955ZM62.0955 32.8067V33.573H61.3292V32.8067H62.0955ZM62.0955 33.573V34.3393H61.3292V33.573H62.0955ZM62.0955 34.3393V35.1056H61.3292V34.3393H62.0955ZM62.0955 35.1056V35.8719H61.3292V35.1056H62.0955ZM62.0955 35.8719V36.6382H61.3292V35.8719H62.0955ZM62.0955 36.6382V37.4045H61.3292V36.6382H62.0955ZM62.0955 37.4045V38.1708H61.3292V37.4045H62.0955ZM62.8618 38.1708V38.9371H62.0955V38.1708H62.8618ZM62.8618 38.9371V39.7034H62.0955V38.9371H62.8618ZM62.8618 39.7034V40.4697H62.0955V39.7034H62.8618ZM62.8618 37.4045V38.1708H62.0955V37.4045H62.8618ZM62.8618 36.6382V37.4045H62.0955V36.6382H62.8618ZM62.8618 35.8719V36.6382H62.0955V35.8719H62.8618ZM62.8618 35.1056V35.8719H62.0955V35.1056H62.8618ZM62.8618 34.3393V35.1056H62.0955V34.3393H62.8618ZM62.8618 33.573V34.3393H62.0955V33.573H62.8618ZM62.8618 32.8067V33.573H62.0955V32.8067H62.8618ZM62.8618 32.0405V32.8067H62.0955V32.0405H62.8618ZM62.8618 31.2742V32.0405H62.0955V31.2742H62.8618ZM62.8618 30.5079V31.2742H62.0955V30.5079H62.8618ZM62.0955 32.0405V32.8067H61.3292V32.0405H62.0955ZM62.8618 29.7416V30.5079H62.0955V29.7416H62.8618ZM62.8618 28.9753V29.7416H62.0955V28.9753H62.8618ZM62.8618 28.209V28.9753H62.0955V28.209H62.8618ZM62.8618 27.4427V28.209H62.0955V27.4427H62.8618ZM61.3292 27.4427V28.209H60.5629V27.4427H61.3292ZM60.5629 27.4427V28.209H59.7966V27.4427H60.5629ZM60.5629 28.209V28.9753H59.7966V28.209H60.5629ZM61.3292 28.209V28.9753H60.5629V28.209H61.3292ZM61.3292 28.9753V29.7416H60.5629V28.9753H61.3292ZM61.3292 29.7416V30.5079H60.5629V29.7416H61.3292ZM61.3292 30.5079V31.2742H60.5629V30.5079H61.3292ZM61.3292 31.2742V32.0405H60.5629V31.2742H61.3292ZM61.3292 32.0405V32.8067H60.5629V32.0405H61.3292ZM61.3292 32.8067V33.573H60.5629V32.8067H61.3292ZM60.5629 33.573V34.3393H59.7966V33.573H60.5629ZM60.5629 34.3393V35.1056H59.7966V34.3393H60.5629ZM60.5629 32.8067V33.573H59.7966V32.8067H60.5629ZM60.5629 32.0405V32.8067H59.7966V32.0405H60.5629ZM60.5629 31.2742V32.0405H59.7966V31.2742H60.5629ZM60.5629 30.5079V31.2742H59.7966V30.5079H60.5629ZM60.5629 29.7416V30.5079H59.7966V29.7416H60.5629ZM60.5629 28.9753V29.7416H59.7966V28.9753H60.5629ZM61.3292 33.573V34.3393H60.5629V33.573H61.3292ZM61.3292 34.3393V35.1056H60.5629V34.3393H61.3292ZM61.3292 35.1056V35.8719H60.5629V35.1056H61.3292ZM61.3292 35.8719V36.6382H60.5629V35.8719H61.3292ZM61.3292 36.6382V37.4045H60.5629V36.6382H61.3292ZM61.3292 37.4045V38.1708H60.5629V37.4045H61.3292ZM61.3292 38.1708V38.9371H60.5629V38.1708H61.3292ZM61.3292 38.9371V39.7034H60.5629V38.9371H61.3292ZM61.3292 39.7034V40.4697H60.5629V39.7034H61.3292ZM62.0955 38.9371V39.7034H61.3292V38.9371H62.0955ZM62.0955 38.1708V38.9371H61.3292V38.1708H62.0955ZM68.2259 45.8338V46.6001H67.4596V45.8338H68.2259ZM68.9922 45.8338V46.6001H68.2259V45.8338H68.9922ZM69.7585 45.8338V46.6001H68.9922V45.8338H69.7585ZM70.5248 45.8338V46.6001H69.7585V45.8338H70.5248ZM71.2911 45.0675V45.8338H70.5248V45.0675H71.2911ZM71.2911 44.3012V45.0675H70.5248V44.3012H71.2911ZM71.2911 45.8338V46.6001H70.5248V45.8338H71.2911ZM70.5248 45.0675V45.8338H69.7585V45.0675H70.5248ZM69.7585 45.0675V45.8338H68.9922V45.0675H69.7585ZM68.9922 45.0675V45.8338H68.2259V45.0675H68.9922ZM68.2259 45.0675V45.8338H67.4596V45.0675H68.2259ZM68.2259 44.3012V45.0675H67.4596V44.3012H68.2259ZM68.2259 43.5349V44.3012H67.4596V43.5349H68.2259ZM68.9922 43.5349V44.3012H68.2259V43.5349H68.9922ZM69.7585 43.5349V44.3012H68.9922V43.5349H69.7585ZM70.5248 43.5349V44.3012H69.7585V43.5349H70.5248ZM71.2911 43.5349V44.3012H70.5248V43.5349H71.2911ZM70.5248 44.3012V45.0675H69.7585V44.3012H70.5248ZM69.7585 44.3012V45.0675H68.9922V44.3012H69.7585ZM68.9922 44.3012V45.0675H68.2259V44.3012H68.9922ZM71.2911 35.1056V35.8719H70.5248V35.1056H71.2911ZM70.5248 35.1056V35.8719H69.7585V35.1056H70.5248ZM68.9922 35.1056V35.8719H68.2259V35.1056H68.9922ZM68.9922 35.8719V36.6382H68.2259V35.8719H68.9922ZM68.9922 36.6382V37.4045H68.2259V36.6382H68.9922ZM68.2259 37.4045V38.1708H67.4596V37.4045H68.2259ZM68.2259 38.1708V38.9371H67.4596V38.1708H68.2259ZM68.2259 38.9371V39.7034H67.4596V38.9371H68.2259ZM68.2259 39.7034V40.4697H67.4596V39.7034H68.2259ZM68.2259 40.4697V41.236H67.4596V40.4697H68.2259ZM68.2259 41.236V42.0023H67.4596V41.236H68.2259ZM68.2259 42.0023V42.7686H67.4596V42.0023H68.2259ZM68.2259 42.7686V43.5349H67.4596V42.7686H68.2259ZM68.9922 42.7686V43.5349H68.2259V42.7686H68.9922ZM69.7585 42.7686V43.5349H68.9922V42.7686H69.7585ZM70.5248 42.7686V43.5349H69.7585V42.7686H70.5248ZM71.2911 42.7686V43.5349H70.5248V42.7686H71.2911ZM71.2911 42.0023V42.7686H70.5248V42.0023H71.2911ZM71.2911 40.4697V41.236H70.5248V40.4697H71.2911ZM71.2911 39.7034V40.4697H70.5248V39.7034H71.2911ZM71.2911 38.9371V39.7034H70.5248V38.9371H71.2911ZM71.2911 38.1708V38.9371H70.5248V38.1708H71.2911ZM71.2911 37.4045V38.1708H70.5248V37.4045H71.2911ZM71.2911 36.6382V37.4045H70.5248V36.6382H71.2911ZM71.2911 35.8719V36.6382H70.5248V35.8719H71.2911ZM70.5248 38.9371V39.7034H69.7585V38.9371H70.5248ZM70.5248 40.4697V41.236H69.7585V40.4697H70.5248ZM70.5248 41.236V42.0023H69.7585V41.236H70.5248ZM70.5248 42.0023V42.7686H69.7585V42.0023H70.5248ZM71.2911 41.236V42.0023H70.5248V41.236H71.2911ZM70.5248 37.4045V38.1708H69.7585V37.4045H70.5248ZM69.7585 37.4045V38.1708H68.9922V37.4045H69.7585ZM68.9922 37.4045V38.1708H68.2259V37.4045H68.9922ZM68.9922 38.1708V38.9371H68.2259V38.1708H68.9922ZM68.9922 38.9371V39.7034H68.2259V38.9371H68.9922ZM68.9922 39.7034V40.4697H68.2259V39.7034H68.9922ZM68.9922 40.4697V41.236H68.2259V40.4697H68.9922ZM68.9922 41.236V42.0023H68.2259V41.236H68.9922ZM68.9922 42.0023V42.7686H68.2259V42.0023H68.9922ZM69.7585 42.0023V42.7686H68.9922V42.0023H69.7585ZM69.7585 41.236V42.0023H68.9922V41.236H69.7585ZM69.7585 40.4697V41.236H68.9922V40.4697H69.7585ZM69.7585 39.7034V40.4697H68.9922V39.7034H69.7585ZM69.7585 38.9371V39.7034H68.9922V38.9371H69.7585ZM69.7585 38.1708V38.9371H68.9922V38.1708H69.7585ZM70.5248 38.1708V38.9371H69.7585V38.1708H70.5248ZM70.5248 39.7034V40.4697H69.7585V39.7034H70.5248ZM70.5248 36.6382V37.4045H69.7585V36.6382H70.5248ZM70.5248 35.8719V36.6382H69.7585V35.8719H70.5248ZM69.7585 35.8719V36.6382H68.9922V35.8719H69.7585ZM69.7585 36.6382V37.4045H68.9922V36.6382H69.7585ZM68.2259 36.6382V37.4045H67.4596V36.6382H68.2259ZM68.2259 35.8719V36.6382H67.4596V35.8719H68.2259ZM68.2259 35.1056V35.8719H67.4596V35.1056H68.2259ZM69.7585 35.1056V35.8719H68.9922V35.1056H69.7585ZM68.2259 32.0405V32.8067H67.4596V32.0405H68.2259ZM68.2259 32.8067V33.573H67.4596V32.8067H68.2259ZM68.9922 32.8067V33.573H68.2259V32.8067H68.9922ZM69.7585 32.8067V33.573H68.9922V32.8067H69.7585ZM69.7585 33.573V34.3393H68.9922V33.573H69.7585ZM70.5248 33.573V34.3393H69.7585V33.573H70.5248ZM70.5248 34.3393V35.1056H69.7585V34.3393H70.5248ZM69.7585 34.3393V35.1056H68.9922V34.3393H69.7585ZM68.9922 34.3393V35.1056H68.2259V34.3393H68.9922ZM68.9922 33.573V34.3393H68.2259V33.573H68.9922ZM68.2259 33.573V34.3393H67.4596V33.573H68.2259ZM67.4596 33.573V34.3393H66.6933V33.573H67.4596ZM67.4596 34.3393V35.1056H66.6933V34.3393H67.4596ZM68.2259 34.3393V35.1056H67.4596V34.3393H68.2259ZM67.4596 35.1056V35.8719H66.6933V35.1056H67.4596ZM66.6933 34.3393V35.1056H65.927V34.3393H66.6933ZM66.6933 33.573V34.3393H65.927V33.573H66.6933ZM66.6933 32.8067V33.573H65.927V32.8067H66.6933ZM66.6933 32.0405V32.8067H65.927V32.0405H66.6933ZM67.4596 32.0405V32.8067H66.6933V32.0405H67.4596ZM67.4596 32.8067V33.573H66.6933V32.8067H67.4596ZM65.927 32.0405V32.8067H65.1607V32.0405H65.927ZM65.927 32.8067V33.573H65.1607V32.8067H65.927ZM65.927 33.573V34.3393H65.1607V33.573H65.927ZM65.927 34.3393V35.1056H65.1607V34.3393H65.927ZM65.1607 32.0405V32.8067H64.3944V32.0405H65.1607ZM65.1607 32.8067V33.573H64.3944V32.8067H65.1607ZM64.3944 32.8067V33.573H63.6281V32.8067H64.3944ZM64.3944 33.573V34.3393H63.6281V33.573H64.3944ZM63.6281 33.573V34.3393H62.8618V33.573H63.6281ZM63.6281 34.3393V35.1056H62.8618V34.3393H63.6281ZM64.3944 34.3393V35.1056H63.6281V34.3393H64.3944ZM65.1607 34.3393V35.1056H64.3944V34.3393H65.1607ZM65.1607 33.573V34.3393H64.3944V33.573H65.1607ZM63.6281 35.1056V35.8719H62.8618V35.1056H63.6281ZM64.3944 32.0405V32.8067H63.6281V32.0405H64.3944ZM63.6281 32.8067V33.573H62.8618V32.8067H63.6281Z" fill="black"/>
</svg>
