<svg width="138" height="139" viewBox="0 0 138 139" fill="none" xmlns="http://www.w3.org/2000/svg">
<path d="M0 64.3926C0 34.2227 0 19.1377 9.37258 9.76516C18.7452 0.392578 33.8301 0.392578 64 0.392578H74C104.17 0.392578 119.255 0.392578 128.627 9.76516C138 19.1377 138 34.2227 138 64.3926V74.3926C138 104.562 138 119.647 128.627 129.02C119.255 138.393 104.17 138.393 74 138.393H64C33.8301 138.393 18.7452 138.393 9.37258 129.02C0 119.647 0 104.562 0 74.3926V64.3926Z" fill="#F5FAFE"/>
<g clip-path="url(#clip0_4140_2843)">
<path fill-rule="evenodd" clip-rule="evenodd" d="M102.717 50.3659C102.742 50.4585 102.755 50.554 102.755 50.65V65.5676C102.755 65.7591 102.704 65.9471 102.608 66.1128C102.512 66.2785 102.374 66.4159 102.208 66.5112L89.6878 73.7198V88.0079C89.6878 88.3967 89.4811 88.7556 89.1439 88.9514L63.0082 103.997C62.9484 104.031 62.8832 104.053 62.8179 104.076C62.7934 104.084 62.7703 104.099 62.7445 104.106C62.5618 104.154 62.3697 104.154 62.187 104.106C62.1571 104.097 62.1299 104.081 62.1014 104.07C62.0416 104.048 61.979 104.029 61.9219 103.997L35.7917 88.9514C35.6257 88.8561 35.4878 88.7186 35.3918 88.553C35.2958 88.3873 35.2452 88.1993 35.2451 88.0079V43.2551C35.2451 43.1572 35.2587 43.0621 35.2832 42.9696C35.2913 42.9383 35.3104 42.9098 35.3213 42.8785C35.3416 42.8214 35.3607 42.7629 35.3906 42.7099C35.411 42.6746 35.4409 42.646 35.4654 42.6134C35.4966 42.5699 35.5252 42.525 35.5619 42.4869C35.5932 42.4557 35.634 42.4326 35.6693 42.4054C35.7087 42.3727 35.7441 42.3374 35.789 42.3116L48.8561 34.7889C49.0216 34.6937 49.2091 34.6436 49.4 34.6436C49.5908 34.6436 49.7784 34.6937 49.9438 34.7889L63.0096 42.3116H63.0123C63.0558 42.3387 63.0925 42.3727 63.132 42.404C63.1673 42.4312 63.2068 42.4557 63.238 42.4856C63.2761 42.525 63.3033 42.5699 63.3359 42.6134C63.359 42.646 63.3903 42.6746 63.4093 42.7099C63.4406 42.7643 63.4583 42.8214 63.48 42.8785C63.4909 42.9098 63.5099 42.9383 63.5181 42.971C63.5431 43.0636 63.5559 43.1591 63.5562 43.2551V71.2072L74.4439 64.9381V50.6486C74.4439 50.5535 74.4575 50.4569 74.482 50.3659C74.4915 50.3332 74.5091 50.3047 74.52 50.2734C74.5418 50.2163 74.5608 50.1578 74.5907 50.1048C74.6111 50.0695 74.641 50.0409 74.6641 50.0083C74.6968 49.9648 74.724 49.9199 74.762 49.8818C74.7933 49.8506 74.8327 49.8274 74.8681 49.8003C74.9089 49.7676 74.9442 49.7323 74.9877 49.7064L88.0562 42.1837C88.2216 42.0884 88.4092 42.0382 88.6001 42.0382C88.791 42.0382 88.9785 42.0884 89.1439 42.1837L102.21 49.7064C102.256 49.7336 102.291 49.7676 102.332 49.7989C102.366 49.8261 102.406 49.8506 102.437 49.8805C102.475 49.9199 102.502 49.9648 102.535 50.0083C102.559 50.0409 102.589 50.0695 102.608 50.1048C102.639 50.1578 102.657 50.2163 102.679 50.2734C102.691 50.3047 102.709 50.3332 102.717 50.3659ZM100.577 64.9381V52.5331L96.0045 55.1653L89.6878 58.8022V71.2072L100.578 64.9381H100.577ZM87.511 87.3784V74.9652L81.2977 78.5137L63.5548 88.6401V101.17L87.511 87.3784ZM37.4232 45.1382V87.3784L61.3767 101.169V88.6414L48.8629 81.5593L48.8588 81.5565L48.8534 81.5538C48.8113 81.5294 48.7759 81.494 48.7365 81.4641C48.7025 81.4369 48.6631 81.4151 48.6331 81.3852L48.6304 81.3812C48.5951 81.3472 48.5706 81.305 48.5407 81.2669C48.5135 81.2302 48.4809 81.199 48.4591 81.1609L48.4578 81.1568C48.4333 81.116 48.4183 81.0671 48.4007 81.0209C48.383 80.9801 48.3599 80.942 48.349 80.8985C48.3354 80.8468 48.3327 80.7911 48.3272 80.7381C48.3218 80.6973 48.3109 80.6565 48.3109 80.6157V80.613V51.4073L41.9956 47.769L37.4232 45.1382ZM49.4013 36.9887L38.515 43.2551L49.3986 49.5215L60.2836 43.2538L49.3986 36.9887H49.4013ZM55.0627 76.0964L61.3781 72.4608V45.1382L56.8057 47.7704L50.489 51.4073V78.7299L55.0627 76.0964ZM88.6001 44.3836L77.7151 50.65L88.6001 56.9164L99.4837 50.6486L88.6001 44.3836ZM87.511 58.8022L81.1943 55.1653L76.622 52.5331V64.9381L82.9373 68.5737L87.511 71.2072V58.8022ZM62.4644 86.757L78.4302 77.6422L86.4111 73.0876L75.5343 66.8252L63.011 74.0352L51.5971 80.6062L62.4644 86.757Z" fill="#FF2D20"/>
</g>
<defs>
<clipPath id="clip0_4140_2843">
<rect width="74" height="74" fill="white" transform="translate(32 32.3926)"/>
</clipPath>
</defs>
</svg>
