<svg width="137" height="51" viewBox="0 0 137 51" fill="none" xmlns="http://www.w3.org/2000/svg">
<path fill-rule="evenodd" clip-rule="evenodd" d="M47.7824 12.9308C47.7993 12.9934 47.8079 13.0579 47.8081 13.1228V23.2022C47.8081 23.3316 47.774 23.4587 47.7091 23.5706C47.6443 23.6826 47.551 23.7754 47.4388 23.8398L38.9789 28.7105V38.3646C38.9789 38.6273 38.8393 38.8698 38.6115 39.0021L20.9522 49.1679C20.9118 49.1909 20.8677 49.2056 20.8236 49.2212C20.8071 49.2267 20.7915 49.2368 20.774 49.2414C20.6506 49.2739 20.5208 49.2739 20.3974 49.2414C20.3772 49.2359 20.3588 49.2249 20.3395 49.2175C20.2991 49.2028 20.2568 49.19 20.2182 49.1679L2.56266 39.0021C2.4505 38.9377 2.3573 38.8448 2.29247 38.7329C2.22763 38.621 2.19345 38.4939 2.19336 38.3646V8.12624C2.19336 8.0601 2.20255 7.99579 2.21908 7.93332C2.22459 7.91219 2.23745 7.8929 2.2448 7.87177C2.25858 7.83319 2.27144 7.79369 2.29166 7.75786C2.30543 7.73398 2.32565 7.71468 2.34218 7.69264C2.36331 7.66324 2.3826 7.63292 2.40741 7.6072C2.42853 7.58607 2.45609 7.57046 2.47998 7.55208C2.50662 7.53004 2.5305 7.50615 2.56082 7.4887L11.39 2.40579C11.5018 2.34147 11.6285 2.30762 11.7574 2.30762C11.8864 2.30762 12.0131 2.34147 12.1249 2.40579L20.9531 7.4887H20.955C20.9844 7.50707 21.0092 7.53004 21.0358 7.55116C21.0597 7.56954 21.0864 7.58607 21.1075 7.60628C21.1332 7.63292 21.1516 7.66324 21.1736 7.69264C21.1892 7.71468 21.2104 7.73398 21.2232 7.75786C21.2444 7.79461 21.2563 7.83319 21.271 7.87177C21.2784 7.8929 21.2912 7.91219 21.2967 7.93424C21.3136 7.99685 21.3223 8.06139 21.3224 8.12624V27.0128L28.679 22.7769V13.1219C28.679 13.0576 28.6882 12.9923 28.7047 12.9308C28.7112 12.9087 28.7231 12.8895 28.7305 12.8683C28.7452 12.8297 28.758 12.7902 28.7782 12.7544C28.792 12.7305 28.8122 12.7112 28.8278 12.6892C28.8499 12.6598 28.8683 12.6295 28.894 12.6038C28.9151 12.5826 28.9417 12.567 28.9656 12.5486C28.9932 12.5266 29.0171 12.5027 29.0465 12.4852L37.8766 7.40234C37.9883 7.33793 38.115 7.30402 38.244 7.30402C38.373 7.30402 38.4997 7.33793 38.6115 7.40234L47.4397 12.4852C47.471 12.5036 47.4948 12.5266 47.5224 12.5477C47.5454 12.5661 47.572 12.5826 47.5931 12.6028C47.6189 12.6295 47.6372 12.6598 47.6593 12.6892C47.6758 12.7112 47.696 12.7305 47.7089 12.7544C47.73 12.7902 47.742 12.8297 47.7567 12.8683C47.7649 12.8895 47.7769 12.9087 47.7824 12.9308ZM46.3364 22.7769V14.3951L43.247 16.1736L38.9789 18.631V27.0128L46.3373 22.7769H46.3364ZM37.5082 37.9393V29.552L33.3099 31.9496L21.3215 38.7918V47.2581L37.5082 37.9393ZM3.66504 9.39857V37.9393L19.8498 47.2571V38.7927L11.3946 34.0074L11.3918 34.0056L11.3881 34.0037C11.3597 33.9872 11.3358 33.9633 11.3091 33.9431C11.2862 33.9247 11.2595 33.91 11.2393 33.8898L11.2375 33.8871C11.2136 33.8641 11.1971 33.8356 11.1769 33.8099C11.1585 33.7851 11.1364 33.764 11.1217 33.7383L11.1208 33.7355C11.1043 33.7079 11.0942 33.6749 11.0822 33.6436C11.0703 33.6161 11.0547 33.5904 11.0473 33.561C11.0381 33.526 11.0363 33.4884 11.0326 33.4526C11.029 33.425 11.0216 33.3974 11.0216 33.3699V33.368V13.6345L6.75447 11.1762L3.66504 9.39857ZM11.7584 3.89217L4.40272 8.12624L11.7565 12.3603L19.1113 8.12532L11.7565 3.89217H11.7584ZM15.5836 30.3163L19.8508 27.8598V9.39857L16.7613 11.1771L12.4933 13.6345V32.0957L15.5836 30.3163ZM38.244 8.88872L30.8893 13.1228L38.244 17.3569L45.5978 13.1219L38.244 8.88872ZM37.5082 18.631L33.2401 16.1736L30.1507 14.3951V22.7769L34.4178 25.2334L37.5082 27.0128V18.631ZM20.5848 37.5194L31.3725 31.3608L36.765 28.2833L29.4158 24.052L20.9541 28.9236L13.242 33.3634L20.5848 37.5194Z" fill="#FF2D20"/>
<path d="M71.7614 32.7871V18.2417H73.5227V31.2246H80.2841V32.7871H71.7614ZM85.9943 33.0428C85.303 33.0428 84.6757 32.9126 84.1122 32.6522C83.5488 32.387 83.1013 32.0059 82.7699 31.5087C82.4384 31.0068 82.2727 30.4007 82.2727 29.6905C82.2727 29.0655 82.3958 28.5589 82.642 28.1706C82.8883 27.7776 83.2173 27.4699 83.6293 27.2473C84.0412 27.0248 84.4957 26.8591 84.9929 26.7502C85.4948 26.6365 85.9991 26.5466 86.5057 26.4803C87.1686 26.3951 87.706 26.3311 88.1179 26.2885C88.5346 26.2412 88.8376 26.1631 89.027 26.0542C89.2211 25.9453 89.3182 25.7559 89.3182 25.486V25.4292C89.3182 24.7284 89.1264 24.1839 88.7429 23.7956C88.3641 23.4074 87.7888 23.2132 87.017 23.2132C86.2169 23.2132 85.5895 23.3884 85.1349 23.7388C84.6804 24.0892 84.3608 24.4632 84.1761 24.861L82.5852 24.2928C82.8693 23.6299 83.2481 23.1138 83.7216 22.7445C84.1998 22.3704 84.7206 22.11 85.2841 21.9632C85.8523 21.8117 86.411 21.736 86.9602 21.736C87.3106 21.736 87.7131 21.7786 88.1676 21.8638C88.6269 21.9443 89.0696 22.1124 89.4957 22.3681C89.9266 22.6238 90.2841 23.0096 90.5682 23.5257C90.8523 24.0418 90.9943 24.7331 90.9943 25.5996V32.7871H89.3182V31.3098H89.233C89.1193 31.5466 88.9299 31.7999 88.6648 32.0698C88.3996 32.3397 88.0469 32.5693 87.6065 32.7587C87.1662 32.9481 86.6288 33.0428 85.9943 33.0428ZM86.25 31.5371C86.9129 31.5371 87.4716 31.4069 87.9261 31.1465C88.3854 30.8861 88.7311 30.5499 88.9631 30.138C89.1998 29.726 89.3182 29.2928 89.3182 28.8382V27.3042C89.2472 27.3894 89.0909 27.4675 88.8494 27.5385C88.6127 27.6048 88.3381 27.664 88.0256 27.7161C87.7178 27.7634 87.4171 27.806 87.1236 27.8439C86.8348 27.8771 86.6004 27.9055 86.4205 27.9292C85.9848 27.986 85.5777 28.0783 85.1989 28.2061C84.8248 28.3292 84.5218 28.5163 84.2898 28.7672C84.0625 29.0134 83.9489 29.3496 83.9489 29.7757C83.9489 30.3581 84.1643 30.7985 84.5952 31.0968C85.0308 31.3903 85.5824 31.5371 86.25 31.5371ZM94.0536 32.7871V21.878H95.6729V23.5257H95.7866C95.9854 22.986 96.3453 22.548 96.8661 22.2118C97.387 21.8757 97.9741 21.7076 98.6275 21.7076C98.7506 21.7076 98.9045 21.7099 99.0891 21.7147C99.2738 21.7194 99.4135 21.7265 99.5082 21.736V23.4405C99.4513 23.4263 99.3211 23.405 99.1175 23.3766C98.9187 23.3435 98.708 23.3269 98.4854 23.3269C97.9551 23.3269 97.4817 23.4382 97.065 23.6607C96.6531 23.8785 96.3263 24.1815 96.0849 24.5698C95.8481 24.9533 95.7298 25.3913 95.7298 25.8837V32.7871H94.0536ZM104.705 33.0428C104.014 33.0428 103.387 32.9126 102.823 32.6522C102.26 32.387 101.812 32.0059 101.481 31.5087C101.149 31.0068 100.984 30.4007 100.984 29.6905C100.984 29.0655 101.107 28.5589 101.353 28.1706C101.599 27.7776 101.928 27.4699 102.34 27.2473C102.752 27.0248 103.207 26.8591 103.704 26.7502C104.206 26.6365 104.71 26.5466 105.217 26.4803C105.879 26.3951 106.417 26.3311 106.829 26.2885C107.246 26.2412 107.549 26.1631 107.738 26.0542C107.932 25.9453 108.029 25.7559 108.029 25.486V25.4292C108.029 24.7284 107.837 24.1839 107.454 23.7956C107.075 23.4074 106.5 23.2132 105.728 23.2132C104.928 23.2132 104.3 23.3884 103.846 23.7388C103.391 24.0892 103.072 24.4632 102.887 24.861L101.296 24.2928C101.58 23.6299 101.959 23.1138 102.433 22.7445C102.911 22.3704 103.432 22.11 103.995 21.9632C104.563 21.8117 105.122 21.736 105.671 21.736C106.022 21.736 106.424 21.7786 106.879 21.8638C107.338 21.9443 107.781 22.1124 108.207 22.3681C108.638 22.6238 108.995 23.0096 109.279 23.5257C109.563 24.0418 109.705 24.7331 109.705 25.5996V32.7871H108.029V31.3098H107.944C107.83 31.5466 107.641 31.7999 107.376 32.0698C107.111 32.3397 106.758 32.5693 106.317 32.7587C105.877 32.9481 105.34 33.0428 104.705 33.0428ZM104.961 31.5371C105.624 31.5371 106.183 31.4069 106.637 31.1465C107.096 30.8861 107.442 30.5499 107.674 30.138C107.911 29.726 108.029 29.2928 108.029 28.8382V27.3042C107.958 27.3894 107.802 27.4675 107.56 27.5385C107.324 27.6048 107.049 27.664 106.737 27.7161C106.429 27.7634 106.128 27.806 105.835 27.8439C105.546 27.8771 105.311 27.9055 105.131 27.9292C104.696 27.986 104.289 28.0783 103.91 28.2061C103.536 28.3292 103.233 28.5163 103.001 28.7672C102.773 29.0134 102.66 29.3496 102.66 29.7757C102.66 30.3581 102.875 30.7985 103.306 31.0968C103.742 31.3903 104.293 31.5371 104.961 31.5371ZM121.294 21.878L117.26 32.7871H115.556L111.522 21.878H113.34L116.351 30.5712H116.465L119.476 21.878H121.294ZM127.69 33.0144C126.639 33.0144 125.732 32.7824 124.97 32.3184C124.212 31.8496 123.627 31.1962 123.216 30.3581C122.808 29.5153 122.605 28.5352 122.605 27.4178C122.605 26.3004 122.808 25.3155 123.216 24.4632C123.627 23.6062 124.2 22.9386 124.934 22.4604C125.673 21.9775 126.535 21.736 127.52 21.736C128.088 21.736 128.649 21.8307 129.203 22.0201C129.757 22.2095 130.261 22.5172 130.716 22.9434C131.17 23.3648 131.532 23.9235 131.802 24.6195C132.072 25.3155 132.207 26.1725 132.207 27.1905V27.9007H123.798V26.4519H130.502C130.502 25.8364 130.379 25.2871 130.133 24.8042C129.892 24.3212 129.546 23.94 129.096 23.6607C128.651 23.3813 128.126 23.2417 127.52 23.2417C126.852 23.2417 126.274 23.4074 125.787 23.7388C125.304 24.0655 124.932 24.4917 124.672 25.0172C124.411 25.5428 124.281 26.1062 124.281 26.7076V27.6735C124.281 28.4973 124.423 29.1957 124.707 29.7686C124.996 30.3368 125.396 30.7701 125.907 31.0684C126.419 31.3619 127.013 31.5087 127.69 31.5087C128.13 31.5087 128.528 31.4471 128.883 31.324C129.243 31.1962 129.553 31.0068 129.814 30.7559C130.074 30.5002 130.275 30.1829 130.417 29.8042L132.037 30.2587C131.866 30.8079 131.58 31.2909 131.177 31.7076C130.775 32.1195 130.278 32.4415 129.686 32.6735C129.094 32.9007 128.429 33.0144 127.69 33.0144ZM136.433 18.2417V32.7871H134.757V18.2417H136.433Z" fill="white"/>
</svg>
