<svg width="90" height="28" viewBox="0 0 90 28" fill="none" xmlns="http://www.w3.org/2000/svg">
<mask id="path-1-outside-1_6100_1121" maskUnits="userSpaceOnUse" x="0" y="0" width="90" height="28" fill="black">
<rect fill="white" width="90" height="28"/>
<path d="M1 26.5567V1.34436H3.95209V23.8484H15.2843V26.5567H1ZM38.5231 9.22332H35.5711C35.3964 8.3451 35.0908 7.57357 34.6543 6.90874C34.2258 6.2443 33.7021 5.68616 33.0831 5.23472C32.472 4.7752 31.7935 4.43046 31.0475 4.2005C30.3016 3.97093 29.5239 3.85576 28.7144 3.85576C27.2384 3.85576 25.9013 4.24172 24.7029 5.01325C23.5126 5.78439 22.5643 6.92107 21.858 8.42329C21.1597 9.92513 20.8105 11.7675 20.8105 13.9507C20.8105 16.1335 21.1597 17.9763 21.858 19.4781C22.5643 20.9799 23.5126 22.1166 24.7029 22.8882C25.9013 23.6597 27.2384 24.0452 28.7144 24.0452C29.5239 24.0452 30.3016 23.9305 31.0475 23.7005C31.7935 23.4709 32.472 23.13 33.0831 22.679C33.7021 22.2191 34.2258 21.6571 34.6543 20.9923C35.0908 20.3194 35.3964 19.5478 35.5711 18.6777H38.5231C38.3007 19.9665 37.8963 21.1194 37.3089 22.137C36.7215 23.1547 35.9915 24.0206 35.1186 24.7347C34.2457 25.4404 33.2656 25.9781 32.1784 26.3475C31.0991 26.7165 29.9445 26.9014 28.7144 26.9014C26.6353 26.9014 24.7863 26.376 23.1674 25.3256C21.5485 24.2752 20.2748 22.7814 19.3463 20.8443C18.4179 18.9076 17.9536 16.6096 17.9536 13.9507C17.9536 11.2914 18.4179 8.99336 19.3463 7.05665C20.2748 5.11994 21.5485 3.62619 23.1674 2.57541C24.7863 1.52501 26.6353 1 28.7144 1C29.9445 1 31.0991 1.1845 32.1784 1.55389C33.2656 1.92328 34.2457 2.46486 35.1186 3.179C35.9915 3.88466 36.7215 4.74632 37.3089 5.76398C37.8963 6.77355 38.3007 7.92679 38.5231 9.22332ZM48.2928 27C47.1341 27 46.0827 26.7743 45.1385 26.3228C44.194 25.8633 43.4443 25.2023 42.8886 24.3407C42.3332 23.4709 42.0554 22.4202 42.0554 21.1891C42.0554 20.106 42.2617 19.2277 42.6744 18.5548C43.0871 17.8734 43.6387 17.3399 44.3288 16.9544C45.0193 16.5688 45.7814 16.2814 46.6145 16.0927C47.4555 15.8955 48.3006 15.7399 49.1498 15.6247C50.2608 15.4772 51.1618 15.3662 51.8519 15.2923C52.5503 15.2102 53.0583 15.0751 53.3756 14.8863C53.7011 14.6976 53.8639 14.369 53.8639 13.9014V13.8028C53.8639 12.5883 53.5425 11.6446 52.8996 10.9713C52.2646 10.2984 51.3003 9.9621 50.0068 9.9621C48.666 9.9621 47.6142 10.2656 46.8525 10.8731C46.0905 11.4801 45.5549 12.1288 45.2454 12.8179L42.5791 11.8333C43.0554 10.6843 43.6901 9.78955 44.4838 9.14937C45.2853 8.5011 46.1583 8.04966 47.1024 7.79544C48.0548 7.53274 48.9911 7.40139 49.9118 7.40139C50.4988 7.40139 51.1733 7.47535 51.9354 7.62287C52.7052 7.76231 53.4471 8.0539 54.1615 8.49686C54.8833 8.94021 55.4826 9.60889 55.9589 10.5037C56.4349 11.3981 56.6729 12.5964 56.6729 14.0982V26.5567H53.8639V23.9959H53.7209C53.5305 24.4065 53.2129 24.8457 52.7685 25.3133C52.3242 25.7813 51.7331 26.1792 50.9949 26.5074C50.2571 26.8355 49.3561 27 48.2928 27ZM48.7215 24.39C49.8325 24.39 50.7688 24.1643 51.5305 23.7128C52.3004 23.2614 52.8795 22.679 53.2683 21.9649C53.6654 21.2507 53.8639 20.5 53.8639 19.7119V17.053C53.7447 17.2005 53.4829 17.3361 53.078 17.459C52.6814 17.5741 52.221 17.6766 51.6974 17.7667C51.1815 17.8488 50.6776 17.9227 50.1856 17.9886C49.7014 18.046 49.3085 18.0953 49.0072 18.1361C48.2772 18.2347 47.5945 18.3946 46.9598 18.6164C46.3326 18.8298 45.8249 19.1538 45.4361 19.589C45.0551 20.0154 44.8648 20.5982 44.8648 21.337C44.8648 22.3466 45.2257 23.1096 45.9479 23.6266C46.6779 24.1354 47.6023 24.39 48.7215 24.39ZM61.8004 26.5567V7.64753H64.5145V10.5037H64.7048C65.0381 9.56806 65.6411 8.80886 66.5141 8.22608C67.3871 7.64329 68.3712 7.35209 69.4662 7.35209C69.6725 7.35209 69.9306 7.35633 70.2401 7.36442C70.5496 7.37251 70.7835 7.38483 70.9422 7.40139V10.3558C70.8472 10.3311 70.629 10.2945 70.2878 10.2452C69.9544 10.1878 69.6014 10.1589 69.2282 10.1589C68.3395 10.1589 67.5458 10.3519 66.8475 10.7375C66.157 11.115 65.6095 11.6403 65.205 12.3133C64.8079 12.9781 64.6098 13.7373 64.6098 14.5909V26.5567H61.8004ZM80.6199 26.9507C79.0962 26.9507 77.7513 26.5524 76.5848 25.7566C75.4179 24.9523 74.5054 23.8195 73.8469 22.3589C73.188 20.8898 72.8588 19.1538 72.8588 17.1512C72.8588 15.1652 73.188 13.4419 73.8469 11.9809C74.5054 10.5199 75.422 9.39164 76.5967 8.59547C77.771 7.79929 79.1279 7.40139 80.6676 7.40139C81.8579 7.40139 82.7984 7.6067 83.4889 8.01692C84.1872 8.41906 84.7187 8.87857 85.0837 9.39549C85.4569 9.90432 85.7463 10.323 85.9526 10.6512H86.1906V1.34436H89V26.5567H86.286V23.6512H85.9526C85.7463 23.9959 85.4528 24.4312 85.0718 24.9562C84.6911 25.4731 84.1474 25.9369 83.4412 26.3475C82.7347 26.7496 81.7946 26.9507 80.6199 26.9507ZM81.0009 24.3407C82.1276 24.3407 83.0799 24.0372 83.8576 23.4297C84.6353 22.8142 85.2267 21.9649 85.6312 20.8813C86.036 19.7901 86.2383 18.5302 86.2383 17.1023C86.2383 15.6906 86.0401 14.4553 85.6431 13.3968C85.2465 12.3298 84.6591 11.5009 83.8814 10.91C83.1038 10.3107 82.1436 10.011 81.0009 10.011C79.8106 10.011 78.8184 10.3273 78.025 10.959C77.2392 11.583 76.6481 12.4323 76.2514 13.5074C75.8626 14.5743 75.6682 15.7726 75.6682 17.1023C75.6682 18.4481 75.8663 19.6711 76.2634 20.7708C76.6678 21.862 77.263 22.7322 78.0489 23.3804C78.8422 24.0206 79.8262 24.3407 81.0009 24.3407Z"/>
</mask>
<path d="M1 26.5567V1.34436H3.95209V23.8484H15.2843V26.5567H1ZM38.5231 9.22332H35.5711C35.3964 8.3451 35.0908 7.57357 34.6543 6.90874C34.2258 6.2443 33.7021 5.68616 33.0831 5.23472C32.472 4.7752 31.7935 4.43046 31.0475 4.2005C30.3016 3.97093 29.5239 3.85576 28.7144 3.85576C27.2384 3.85576 25.9013 4.24172 24.7029 5.01325C23.5126 5.78439 22.5643 6.92107 21.858 8.42329C21.1597 9.92513 20.8105 11.7675 20.8105 13.9507C20.8105 16.1335 21.1597 17.9763 21.858 19.4781C22.5643 20.9799 23.5126 22.1166 24.7029 22.8882C25.9013 23.6597 27.2384 24.0452 28.7144 24.0452C29.5239 24.0452 30.3016 23.9305 31.0475 23.7005C31.7935 23.4709 32.472 23.13 33.0831 22.679C33.7021 22.2191 34.2258 21.6571 34.6543 20.9923C35.0908 20.3194 35.3964 19.5478 35.5711 18.6777H38.5231C38.3007 19.9665 37.8963 21.1194 37.3089 22.137C36.7215 23.1547 35.9915 24.0206 35.1186 24.7347C34.2457 25.4404 33.2656 25.9781 32.1784 26.3475C31.0991 26.7165 29.9445 26.9014 28.7144 26.9014C26.6353 26.9014 24.7863 26.376 23.1674 25.3256C21.5485 24.2752 20.2748 22.7814 19.3463 20.8443C18.4179 18.9076 17.9536 16.6096 17.9536 13.9507C17.9536 11.2914 18.4179 8.99336 19.3463 7.05665C20.2748 5.11994 21.5485 3.62619 23.1674 2.57541C24.7863 1.52501 26.6353 1 28.7144 1C29.9445 1 31.0991 1.1845 32.1784 1.55389C33.2656 1.92328 34.2457 2.46486 35.1186 3.179C35.9915 3.88466 36.7215 4.74632 37.3089 5.76398C37.8963 6.77355 38.3007 7.92679 38.5231 9.22332ZM48.2928 27C47.1341 27 46.0827 26.7743 45.1385 26.3228C44.194 25.8633 43.4443 25.2023 42.8886 24.3407C42.3332 23.4709 42.0554 22.4202 42.0554 21.1891C42.0554 20.106 42.2617 19.2277 42.6744 18.5548C43.0871 17.8734 43.6387 17.3399 44.3288 16.9544C45.0193 16.5688 45.7814 16.2814 46.6145 16.0927C47.4555 15.8955 48.3006 15.7399 49.1498 15.6247C50.2608 15.4772 51.1618 15.3662 51.8519 15.2923C52.5503 15.2102 53.0583 15.0751 53.3756 14.8863C53.7011 14.6976 53.8639 14.369 53.8639 13.9014V13.8028C53.8639 12.5883 53.5425 11.6446 52.8996 10.9713C52.2646 10.2984 51.3003 9.9621 50.0068 9.9621C48.666 9.9621 47.6142 10.2656 46.8525 10.8731C46.0905 11.4801 45.5549 12.1288 45.2454 12.8179L42.5791 11.8333C43.0554 10.6843 43.6901 9.78955 44.4838 9.14937C45.2853 8.5011 46.1583 8.04966 47.1024 7.79544C48.0548 7.53274 48.9911 7.40139 49.9118 7.40139C50.4988 7.40139 51.1733 7.47535 51.9354 7.62287C52.7052 7.76231 53.4471 8.0539 54.1615 8.49686C54.8833 8.94021 55.4826 9.60889 55.9589 10.5037C56.4349 11.3981 56.6729 12.5964 56.6729 14.0982V26.5567H53.8639V23.9959H53.7209C53.5305 24.4065 53.2129 24.8457 52.7685 25.3133C52.3242 25.7813 51.7331 26.1792 50.9949 26.5074C50.2571 26.8355 49.3561 27 48.2928 27ZM48.7215 24.39C49.8325 24.39 50.7688 24.1643 51.5305 23.7128C52.3004 23.2614 52.8795 22.679 53.2683 21.9649C53.6654 21.2507 53.8639 20.5 53.8639 19.7119V17.053C53.7447 17.2005 53.4829 17.3361 53.078 17.459C52.6814 17.5741 52.221 17.6766 51.6974 17.7667C51.1815 17.8488 50.6776 17.9227 50.1856 17.9886C49.7014 18.046 49.3085 18.0953 49.0072 18.1361C48.2772 18.2347 47.5945 18.3946 46.9598 18.6164C46.3326 18.8298 45.8249 19.1538 45.4361 19.589C45.0551 20.0154 44.8648 20.5982 44.8648 21.337C44.8648 22.3466 45.2257 23.1096 45.9479 23.6266C46.6779 24.1354 47.6023 24.39 48.7215 24.39ZM61.8004 26.5567V7.64753H64.5145V10.5037H64.7048C65.0381 9.56806 65.6411 8.80886 66.5141 8.22608C67.3871 7.64329 68.3712 7.35209 69.4662 7.35209C69.6725 7.35209 69.9306 7.35633 70.2401 7.36442C70.5496 7.37251 70.7835 7.38483 70.9422 7.40139V10.3558C70.8472 10.3311 70.629 10.2945 70.2878 10.2452C69.9544 10.1878 69.6014 10.1589 69.2282 10.1589C68.3395 10.1589 67.5458 10.3519 66.8475 10.7375C66.157 11.115 65.6095 11.6403 65.205 12.3133C64.8079 12.9781 64.6098 13.7373 64.6098 14.5909V26.5567H61.8004ZM80.6199 26.9507C79.0962 26.9507 77.7513 26.5524 76.5848 25.7566C75.4179 24.9523 74.5054 23.8195 73.8469 22.3589C73.188 20.8898 72.8588 19.1538 72.8588 17.1512C72.8588 15.1652 73.188 13.4419 73.8469 11.9809C74.5054 10.5199 75.422 9.39164 76.5967 8.59547C77.771 7.79929 79.1279 7.40139 80.6676 7.40139C81.8579 7.40139 82.7984 7.6067 83.4889 8.01692C84.1872 8.41906 84.7187 8.87857 85.0837 9.39549C85.4569 9.90432 85.7463 10.323 85.9526 10.6512H86.1906V1.34436H89V26.5567H86.286V23.6512H85.9526C85.7463 23.9959 85.4528 24.4312 85.0718 24.9562C84.6911 25.4731 84.1474 25.9369 83.4412 26.3475C82.7347 26.7496 81.7946 26.9507 80.6199 26.9507ZM81.0009 24.3407C82.1276 24.3407 83.0799 24.0372 83.8576 23.4297C84.6353 22.8142 85.2267 21.9649 85.6312 20.8813C86.036 19.7901 86.2383 18.5302 86.2383 17.1023C86.2383 15.6906 86.0401 14.4553 85.6431 13.3968C85.2465 12.3298 84.6591 11.5009 83.8814 10.91C83.1038 10.3107 82.1436 10.011 81.0009 10.011C79.8106 10.011 78.8184 10.3273 78.025 10.959C77.2392 11.583 76.6481 12.4323 76.2514 13.5074C75.8626 14.5743 75.6682 15.7726 75.6682 17.1023C75.6682 18.4481 75.8663 19.6711 76.2634 20.7708C76.6678 21.862 77.263 22.7322 78.0489 23.3804C78.8422 24.0206 79.8262 24.3407 81.0009 24.3407Z" fill="#0D1330"/>
<path d="M1 26.5567V1.34436H3.95209V23.8484H15.2843V26.5567H1ZM38.5231 9.22332H35.5711C35.3964 8.3451 35.0908 7.57357 34.6543 6.90874C34.2258 6.2443 33.7021 5.68616 33.0831 5.23472C32.472 4.7752 31.7935 4.43046 31.0475 4.2005C30.3016 3.97093 29.5239 3.85576 28.7144 3.85576C27.2384 3.85576 25.9013 4.24172 24.7029 5.01325C23.5126 5.78439 22.5643 6.92107 21.858 8.42329C21.1597 9.92513 20.8105 11.7675 20.8105 13.9507C20.8105 16.1335 21.1597 17.9763 21.858 19.4781C22.5643 20.9799 23.5126 22.1166 24.7029 22.8882C25.9013 23.6597 27.2384 24.0452 28.7144 24.0452C29.5239 24.0452 30.3016 23.9305 31.0475 23.7005C31.7935 23.4709 32.472 23.13 33.0831 22.679C33.7021 22.2191 34.2258 21.6571 34.6543 20.9923C35.0908 20.3194 35.3964 19.5478 35.5711 18.6777H38.5231C38.3007 19.9665 37.8963 21.1194 37.3089 22.137C36.7215 23.1547 35.9915 24.0206 35.1186 24.7347C34.2457 25.4404 33.2656 25.9781 32.1784 26.3475C31.0991 26.7165 29.9445 26.9014 28.7144 26.9014C26.6353 26.9014 24.7863 26.376 23.1674 25.3256C21.5485 24.2752 20.2748 22.7814 19.3463 20.8443C18.4179 18.9076 17.9536 16.6096 17.9536 13.9507C17.9536 11.2914 18.4179 8.99336 19.3463 7.05665C20.2748 5.11994 21.5485 3.62619 23.1674 2.57541C24.7863 1.52501 26.6353 1 28.7144 1C29.9445 1 31.0991 1.1845 32.1784 1.55389C33.2656 1.92328 34.2457 2.46486 35.1186 3.179C35.9915 3.88466 36.7215 4.74632 37.3089 5.76398C37.8963 6.77355 38.3007 7.92679 38.5231 9.22332ZM48.2928 27C47.1341 27 46.0827 26.7743 45.1385 26.3228C44.194 25.8633 43.4443 25.2023 42.8886 24.3407C42.3332 23.4709 42.0554 22.4202 42.0554 21.1891C42.0554 20.106 42.2617 19.2277 42.6744 18.5548C43.0871 17.8734 43.6387 17.3399 44.3288 16.9544C45.0193 16.5688 45.7814 16.2814 46.6145 16.0927C47.4555 15.8955 48.3006 15.7399 49.1498 15.6247C50.2608 15.4772 51.1618 15.3662 51.8519 15.2923C52.5503 15.2102 53.0583 15.0751 53.3756 14.8863C53.7011 14.6976 53.8639 14.369 53.8639 13.9014V13.8028C53.8639 12.5883 53.5425 11.6446 52.8996 10.9713C52.2646 10.2984 51.3003 9.9621 50.0068 9.9621C48.666 9.9621 47.6142 10.2656 46.8525 10.8731C46.0905 11.4801 45.5549 12.1288 45.2454 12.8179L42.5791 11.8333C43.0554 10.6843 43.6901 9.78955 44.4838 9.14937C45.2853 8.5011 46.1583 8.04966 47.1024 7.79544C48.0548 7.53274 48.9911 7.40139 49.9118 7.40139C50.4988 7.40139 51.1733 7.47535 51.9354 7.62287C52.7052 7.76231 53.4471 8.0539 54.1615 8.49686C54.8833 8.94021 55.4826 9.60889 55.9589 10.5037C56.4349 11.3981 56.6729 12.5964 56.6729 14.0982V26.5567H53.8639V23.9959H53.7209C53.5305 24.4065 53.2129 24.8457 52.7685 25.3133C52.3242 25.7813 51.7331 26.1792 50.9949 26.5074C50.2571 26.8355 49.3561 27 48.2928 27ZM48.7215 24.39C49.8325 24.39 50.7688 24.1643 51.5305 23.7128C52.3004 23.2614 52.8795 22.679 53.2683 21.9649C53.6654 21.2507 53.8639 20.5 53.8639 19.7119V17.053C53.7447 17.2005 53.4829 17.3361 53.078 17.459C52.6814 17.5741 52.221 17.6766 51.6974 17.7667C51.1815 17.8488 50.6776 17.9227 50.1856 17.9886C49.7014 18.046 49.3085 18.0953 49.0072 18.1361C48.2772 18.2347 47.5945 18.3946 46.9598 18.6164C46.3326 18.8298 45.8249 19.1538 45.4361 19.589C45.0551 20.0154 44.8648 20.5982 44.8648 21.337C44.8648 22.3466 45.2257 23.1096 45.9479 23.6266C46.6779 24.1354 47.6023 24.39 48.7215 24.39ZM61.8004 26.5567V7.64753H64.5145V10.5037H64.7048C65.0381 9.56806 65.6411 8.80886 66.5141 8.22608C67.3871 7.64329 68.3712 7.35209 69.4662 7.35209C69.6725 7.35209 69.9306 7.35633 70.2401 7.36442C70.5496 7.37251 70.7835 7.38483 70.9422 7.40139V10.3558C70.8472 10.3311 70.629 10.2945 70.2878 10.2452C69.9544 10.1878 69.6014 10.1589 69.2282 10.1589C68.3395 10.1589 67.5458 10.3519 66.8475 10.7375C66.157 11.115 65.6095 11.6403 65.205 12.3133C64.8079 12.9781 64.6098 13.7373 64.6098 14.5909V26.5567H61.8004ZM80.6199 26.9507C79.0962 26.9507 77.7513 26.5524 76.5848 25.7566C75.4179 24.9523 74.5054 23.8195 73.8469 22.3589C73.188 20.8898 72.8588 19.1538 72.8588 17.1512C72.8588 15.1652 73.188 13.4419 73.8469 11.9809C74.5054 10.5199 75.422 9.39164 76.5967 8.59547C77.771 7.79929 79.1279 7.40139 80.6676 7.40139C81.8579 7.40139 82.7984 7.6067 83.4889 8.01692C84.1872 8.41906 84.7187 8.87857 85.0837 9.39549C85.4569 9.90432 85.7463 10.323 85.9526 10.6512H86.1906V1.34436H89V26.5567H86.286V23.6512H85.9526C85.7463 23.9959 85.4528 24.4312 85.0718 24.9562C84.6911 25.4731 84.1474 25.9369 83.4412 26.3475C82.7347 26.7496 81.7946 26.9507 80.6199 26.9507ZM81.0009 24.3407C82.1276 24.3407 83.0799 24.0372 83.8576 23.4297C84.6353 22.8142 85.2267 21.9649 85.6312 20.8813C86.036 19.7901 86.2383 18.5302 86.2383 17.1023C86.2383 15.6906 86.0401 14.4553 85.6431 13.3968C85.2465 12.3298 84.6591 11.5009 83.8814 10.91C83.1038 10.3107 82.1436 10.011 81.0009 10.011C79.8106 10.011 78.8184 10.3273 78.025 10.959C77.2392 11.583 76.6481 12.4323 76.2514 13.5074C75.8626 14.5743 75.6682 15.7726 75.6682 17.1023C75.6682 18.4481 75.8663 19.6711 76.2634 20.7708C76.6678 21.862 77.263 22.7322 78.0489 23.3804C78.8422 24.0206 79.8262 24.3407 81.0009 24.3407Z" stroke="#C3C9D0" mask="url(#path-1-outside-1_6100_1121)"/>
</svg>
