<svg width="56" height="56" viewBox="0 0 56 56" fill="none" xmlns="http://www.w3.org/2000/svg">
<path d="M27.7266 0C12.4141 0 0 12.4141 0 27.7266C0 43.0391 12.4141 55.4531 27.7266 55.4531C43.0391 55.4531 55.4531 43.0391 55.4531 27.7266C55.4531 12.4141 43.0391 0 27.7266 0ZM27.7266 52.8281C13.8906 52.8281 2.625 41.5625 2.625 27.7266C2.625 13.8906 13.8906 2.625 27.7266 2.625C41.5625 2.625 52.8281 13.8906 52.8281 27.7266C52.8281 41.5625 41.5625 52.8281 27.7266 52.8281Z" fill="#B5A59B"/>
<path d="M40.9062 26.4141H17.7188L26.0313 18.1016C26.5234 17.6094 26.5234 16.7344 26.0313 16.2422C25.5391 15.75 24.6641 15.75 24.1719 16.2422L13.5625 26.7969C13.4531 26.9062 13.3438 27.0703 13.2891 27.2344C13.1797 27.5625 13.1797 27.9453 13.2891 28.2188C13.3438 28.3828 13.4531 28.5469 13.5625 28.6562L24.1719 39.2109C24.4453 39.4844 24.7734 39.5937 25.1016 39.5937C25.4297 39.5937 25.7578 39.4844 26.0313 39.2109C26.5234 38.7188 26.5234 37.8437 26.0313 37.3516L17.7188 29.0391H40.9609C41.6719 29.0391 42.2734 28.4375 42.2734 27.7266C42.2734 27.0156 41.6719 26.4141 40.9062 26.4141Z" fill="#B5A59B"/>
</svg>
