<svg width="50" height="50" viewBox="0 0 50 50" fill="none" xmlns="http://www.w3.org/2000/svg">
<path d="M25 0.5C38.531 0.5 49.5 11.469 49.5 25C49.5 38.531 38.531 49.5 25 49.5C11.469 49.5 0.5 38.531 0.5 25C0.5 11.469 11.469 0.5 25 0.5Z" fill="#0D0D0D"/>
<path d="M25 0.5C38.531 0.5 49.5 11.469 49.5 25C49.5 38.531 38.531 49.5 25 49.5C11.469 49.5 0.5 38.531 0.5 25C0.5 11.469 11.469 0.5 25 0.5Z" stroke="#282828"/>
<path d="M37 35.7219V26.8245C37 22.057 34.462 19.8386 31.078 19.8386C28.3472 19.8386 27.1233 21.3448 26.4415 22.4021V20.2033H21.2965C21.3647 21.6599 21.2965 35.7219 21.2965 35.7219H26.4415V27.0554C26.4415 26.5929 26.4745 26.1289 26.611 25.798C26.9823 24.8709 27.829 23.9113 29.2495 23.9113C31.1117 23.9113 31.8558 25.3341 31.8558 27.4201V35.7227L37 35.7219ZM15.8763 18.085C17.6695 18.085 18.7878 16.8924 18.7878 15.4027C18.7547 13.8807 17.6702 12.7227 15.9107 12.7227C14.1513 12.7227 13 13.88 13 15.4027C13 16.8924 14.1168 18.085 15.844 18.085H15.8763ZM18.4488 35.7219V20.2033H13.3045V35.7219H18.4488Z" fill="#A3ACB5"/>
</svg>
