<svg width="78" height="38" viewBox="0 0 78 38" fill="none" xmlns="http://www.w3.org/2000/svg">
<path d="M1.93468 26.3551V27H1.28979V26.3551H1.93468ZM1.93468 25.7102V26.3551H1.28979V25.7102H1.93468ZM1.93468 25.0653V25.7102H1.28979V25.0653H1.93468ZM1.93468 24.4204V25.0653H1.28979V24.4204H1.93468ZM1.93468 23.7755V24.4204H1.28979V23.7755H1.93468ZM1.93468 23.1306V23.7755H1.28979V23.1306H1.93468ZM1.93468 22.4857V23.1306H1.28979V22.4857H1.93468ZM1.93468 21.8408V22.4857H1.28979V21.8408H1.93468ZM1.93468 21.1959V21.8408H1.28979V21.1959H1.93468ZM1.93468 20.5511V21.1959H1.28979V20.5511H1.93468ZM1.93468 19.9062V20.5511H1.28979V19.9062H1.93468ZM1.93468 19.2613V19.9062H1.28979V19.2613H1.93468ZM1.93468 18.6164V19.2613H1.28979V18.6164H1.93468ZM1.93468 17.9715V18.6164H1.28979V17.9715H1.93468ZM1.93468 17.3266V17.9715H1.28979V17.3266H1.93468ZM2.57958 17.3266V17.9715H1.93468V17.3266H2.57958ZM2.57958 17.9715V18.6164H1.93468V17.9715H2.57958ZM2.57958 18.6164V19.2613H1.93468V18.6164H2.57958ZM2.57958 19.2613V19.9062H1.93468V19.2613H2.57958ZM2.57958 19.9062V20.5511H1.93468V19.9062H2.57958ZM2.57958 20.5511V21.1959H1.93468V20.5511H2.57958ZM2.57958 21.1959V21.8408H1.93468V21.1959H2.57958ZM3.22447 21.8408V22.4857H2.57958V21.8408H3.22447ZM3.22447 22.4857V23.1306H2.57958V22.4857H3.22447ZM3.22447 23.1306V23.7755H2.57958V23.1306H3.22447ZM3.22447 23.7755V24.4204H2.57958V23.7755H3.22447ZM3.22447 24.4204V25.0653H2.57958V24.4204H3.22447ZM3.22447 25.0653V25.7102H2.57958V25.0653H3.22447ZM3.22447 25.7102V26.3551H2.57958V25.7102H3.22447ZM3.22447 26.3551V27H2.57958V26.3551H3.22447ZM3.86937 26.3551V27H3.22447V26.3551H3.86937ZM4.51426 26.3551V27H3.86937V26.3551H4.51426ZM4.51426 25.7102V26.3551H3.86937V25.7102H4.51426ZM4.51426 25.0653V25.7102H3.86937V25.0653H4.51426ZM4.51426 24.4204V25.0653H3.86937V24.4204H4.51426ZM4.51426 23.7755V24.4204H3.86937V23.7755H4.51426ZM4.51426 23.1306V23.7755H3.86937V23.1306H4.51426ZM4.51426 22.4857V23.1306H3.86937V22.4857H4.51426ZM4.51426 21.8408V22.4857H3.86937V21.8408H4.51426ZM3.86937 21.8408V22.4857H3.22447V21.8408H3.86937ZM3.86937 21.1959V21.8408H3.22447V21.1959H3.86937ZM3.86937 22.4857V23.1306H3.22447V22.4857H3.86937ZM3.86937 23.1306V23.7755H3.22447V23.1306H3.86937ZM3.86937 23.7755V24.4204H3.22447V23.7755H3.86937ZM3.86937 24.4204V25.0653H3.22447V24.4204H3.86937ZM3.86937 25.0653V25.7102H3.22447V25.0653H3.86937ZM3.86937 25.7102V26.3551H3.22447V25.7102H3.86937ZM2.57958 26.3551V27H1.93468V26.3551H2.57958ZM2.57958 25.7102V26.3551H1.93468V25.7102H2.57958ZM2.57958 25.0653V25.7102H1.93468V25.0653H2.57958ZM2.57958 24.4204V25.0653H1.93468V24.4204H2.57958ZM2.57958 23.7755V24.4204H1.93468V23.7755H2.57958ZM2.57958 23.1306V23.7755H1.93468V23.1306H2.57958ZM2.57958 22.4857V23.1306H1.93468V22.4857H2.57958ZM2.57958 21.8408V22.4857H1.93468V21.8408H2.57958ZM1.93468 10.8776V11.5225H1.28979V10.8776H1.93468ZM1.93468 11.5225V12.1674H1.28979V11.5225H1.93468ZM1.93468 12.1674V12.8123H1.28979V12.1674H1.93468ZM1.93468 12.8123V13.4572H1.28979V12.8123H1.93468ZM1.93468 13.4572V14.1021H1.28979V13.4572H1.93468ZM1.93468 14.1021V14.747H1.28979V14.1021H1.93468ZM1.93468 14.747V15.3919H1.28979V14.747H1.93468ZM1.93468 15.3919V16.0368H1.28979V15.3919H1.93468ZM1.93468 16.0368V16.6817H1.28979V16.0368H1.93468ZM1.93468 16.6817V17.3266H1.28979V16.6817H1.93468ZM3.86937 10.8776V11.5225H3.22447V10.8776H3.86937ZM3.86937 11.5225V12.1674H3.22447V11.5225H3.86937ZM3.86937 12.1674V12.8123H3.22447V12.1674H3.86937ZM3.86937 12.8123V13.4572H3.22447V12.8123H3.86937ZM3.86937 13.4572V14.1021H3.22447V13.4572H3.86937ZM3.86937 14.1021V14.747H3.22447V14.1021H3.86937ZM3.86937 15.3919V16.0368H3.22447V15.3919H3.86937ZM3.86937 16.0368V16.6817H3.22447V16.0368H3.86937ZM3.86937 16.6817V17.3266H3.22447V16.6817H3.86937ZM3.86937 17.3266V17.9715H3.22447V17.3266H3.86937ZM3.86937 17.9715V18.6164H3.22447V17.9715H3.86937ZM3.86937 18.6164V19.2613H3.22447V18.6164H3.86937ZM3.86937 19.2613V19.9062H3.22447V19.2613H3.86937ZM4.51426 19.9062V20.5511H3.86937V19.9062H4.51426ZM4.51426 20.5511V21.1959H3.86937V20.5511H4.51426ZM4.51426 21.1959V21.8408H3.86937V21.1959H4.51426ZM4.51426 19.2613V19.9062H3.86937V19.2613H4.51426ZM4.51426 18.6164V19.2613H3.86937V18.6164H4.51426ZM4.51426 17.9715V18.6164H3.86937V17.9715H4.51426ZM4.51426 17.3266V17.9715H3.86937V17.3266H4.51426ZM4.51426 16.6817V17.3266H3.86937V16.6817H4.51426ZM4.51426 16.0368V16.6817H3.86937V16.0368H4.51426ZM4.51426 15.3919V16.0368H3.86937V15.3919H4.51426ZM4.51426 14.747V15.3919H3.86937V14.747H4.51426ZM4.51426 14.1021V14.747H3.86937V14.1021H4.51426ZM4.51426 13.4572V14.1021H3.86937V13.4572H4.51426ZM3.86937 14.747V15.3919H3.22447V14.747H3.86937ZM4.51426 12.8123V13.4572H3.86937V12.8123H4.51426ZM4.51426 12.1674V12.8123H3.86937V12.1674H4.51426ZM4.51426 11.5225V12.1674H3.86937V11.5225H4.51426ZM4.51426 10.8776V11.5225H3.86937V10.8776H4.51426ZM3.22447 10.8776V11.5225H2.57958V10.8776H3.22447ZM2.57958 10.8776V11.5225H1.93468V10.8776H2.57958ZM2.57958 11.5225V12.1674H1.93468V11.5225H2.57958ZM3.22447 11.5225V12.1674H2.57958V11.5225H3.22447ZM3.22447 12.1674V12.8123H2.57958V12.1674H3.22447ZM3.22447 12.8123V13.4572H2.57958V12.8123H3.22447ZM3.22447 13.4572V14.1021H2.57958V13.4572H3.22447ZM3.22447 14.1021V14.747H2.57958V14.1021H3.22447ZM3.22447 14.747V15.3919H2.57958V14.747H3.22447ZM3.22447 15.3919V16.0368H2.57958V15.3919H3.22447ZM2.57958 16.0368V16.6817H1.93468V16.0368H2.57958ZM2.57958 16.6817V17.3266H1.93468V16.6817H2.57958ZM2.57958 15.3919V16.0368H1.93468V15.3919H2.57958ZM2.57958 14.747V15.3919H1.93468V14.747H2.57958ZM2.57958 14.1021V14.747H1.93468V14.1021H2.57958ZM2.57958 13.4572V14.1021H1.93468V13.4572H2.57958ZM2.57958 12.8123V13.4572H1.93468V12.8123H2.57958ZM2.57958 12.1674V12.8123H1.93468V12.1674H2.57958ZM3.22447 16.0368V16.6817H2.57958V16.0368H3.22447ZM3.22447 16.6817V17.3266H2.57958V16.6817H3.22447ZM3.22447 17.3266V17.9715H2.57958V17.3266H3.22447ZM3.22447 17.9715V18.6164H2.57958V17.9715H3.22447ZM3.22447 18.6164V19.2613H2.57958V18.6164H3.22447ZM3.22447 19.2613V19.9062H2.57958V19.2613H3.22447ZM3.22447 19.9062V20.5511H2.57958V19.9062H3.22447ZM3.22447 20.5511V21.1959H2.57958V20.5511H3.22447ZM3.22447 21.1959V21.8408H2.57958V21.1959H3.22447ZM3.86937 20.5511V21.1959H3.22447V20.5511H3.86937ZM3.86937 19.9062V20.5511H3.22447V19.9062H3.86937ZM5.15916 26.3551V27H4.51426V26.3551H5.15916ZM5.80405 26.3551V27H5.15916V26.3551H5.80405ZM5.80405 25.7102V26.3551H5.15916V25.7102H5.80405ZM5.80405 25.0653V25.7102H5.15916V25.0653H5.80405ZM5.80405 24.4204V25.0653H5.15916V24.4204H5.80405ZM5.80405 23.7755V24.4204H5.15916V23.7755H5.80405ZM5.15916 23.7755V24.4204H4.51426V23.7755H5.15916ZM5.15916 24.4204V25.0653H4.51426V24.4204H5.15916ZM5.15916 25.0653V25.7102H4.51426V25.0653H5.15916ZM5.15916 25.7102V26.3551H4.51426V25.7102H5.15916ZM6.44895 23.7755V24.4204H5.80405V23.7755H6.44895ZM7.09384 23.7755V24.4204H6.44895V23.7755H7.09384ZM7.73873 23.7755V24.4204H7.09384V23.7755H7.73873ZM7.73873 25.7102V26.3551H7.09384V25.7102H7.73873ZM7.09384 26.3551V27H6.44895V26.3551H7.09384ZM6.44895 26.3551V27H5.80405V26.3551H6.44895ZM7.73873 26.3551V27H7.09384V26.3551H7.73873ZM7.09384 25.7102V26.3551H6.44895V25.7102H7.09384ZM6.44895 25.7102V26.3551H5.80405V25.7102H6.44895ZM6.44895 25.0653V25.7102H5.80405V25.0653H6.44895ZM7.09384 25.0653V25.7102H6.44895V25.0653H7.09384ZM7.73873 25.0653V25.7102H7.09384V25.0653H7.73873ZM7.73873 24.4204V25.0653H7.09384V24.4204H7.73873ZM7.09384 24.4204V25.0653H6.44895V24.4204H7.09384ZM6.44895 24.4204V25.0653H5.80405V24.4204H6.44895ZM8.38363 26.3551V27H7.73873V26.3551H8.38363ZM9.02852 26.3551V27H8.38363V26.3551H9.02852ZM9.67342 26.3551V27H9.02852V26.3551H9.67342ZM9.67342 25.7102V26.3551H9.02852V25.7102H9.67342ZM8.38363 23.7755V24.4204H7.73873V23.7755H8.38363ZM9.02852 23.7755V24.4204H8.38363V23.7755H9.02852ZM9.67342 23.7755V24.4204H9.02852V23.7755H9.67342ZM9.67342 24.4204V25.0653H9.02852V24.4204H9.67342ZM9.67342 25.0653V25.7102H9.02852V25.0653H9.67342ZM9.02852 25.0653V25.7102H8.38363V25.0653H9.02852ZM9.02852 24.4204V25.0653H8.38363V24.4204H9.02852ZM8.38363 24.4204V25.0653H7.73873V24.4204H8.38363ZM8.38363 25.0653V25.7102H7.73873V25.0653H8.38363ZM8.38363 25.7102V26.3551H7.73873V25.7102H8.38363ZM9.02852 25.7102V26.3551H8.38363V25.7102H9.02852ZM12.9086 26.3551V27H12.2637V26.3551H12.9086ZM12.9086 25.7102V26.3551H12.2637V25.7102H12.9086ZM12.9086 25.0653V25.7102H12.2637V25.0653H12.9086ZM12.9086 24.4204V25.0653H12.2637V24.4204H12.9086ZM12.9086 23.7755V24.4204H12.2637V23.7755H12.9086ZM12.9086 23.1306V23.7755H12.2637V23.1306H12.9086ZM12.9086 22.4857V23.1306H12.2637V22.4857H12.9086ZM12.9086 21.8408V22.4857H12.2637V21.8408H12.9086ZM12.9086 21.1959V21.8408H12.2637V21.1959H12.9086ZM12.9086 20.5511V21.1959H12.2637V20.5511H12.9086ZM12.9086 19.9062V20.5511H12.2637V19.9062H12.9086ZM12.9086 19.2613V19.9062H12.2637V19.2613H12.9086ZM12.9086 18.6164V19.2613H12.2637V18.6164H12.9086ZM12.9086 17.9715V18.6164H12.2637V17.9715H12.9086ZM12.9086 17.3266V17.9715H12.2637V17.3266H12.9086ZM13.5535 17.3266V17.9715H12.9086V17.3266H13.5535ZM13.5535 17.9715V18.6164H12.9086V17.9715H13.5535ZM13.5535 18.6164V19.2613H12.9086V18.6164H13.5535ZM13.5535 19.2613V19.9062H12.9086V19.2613H13.5535ZM13.5535 19.9062V20.5511H12.9086V19.9062H13.5535ZM13.5535 20.5511V21.1959H12.9086V20.5511H13.5535ZM13.5535 21.1959V21.8408H12.9086V21.1959H13.5535ZM14.1984 21.8408V22.4857H13.5535V21.8408H14.1984ZM14.1984 22.4857V23.1306H13.5535V22.4857H14.1984ZM14.1984 23.1306V23.7755H13.5535V23.1306H14.1984ZM14.1984 23.7755V24.4204H13.5535V23.7755H14.1984ZM14.1984 24.4204V25.0653H13.5535V24.4204H14.1984ZM14.1984 25.0653V25.7102H13.5535V25.0653H14.1984ZM14.1984 25.7102V26.3551H13.5535V25.7102H14.1984ZM14.1984 26.3551V27H13.5535V26.3551H14.1984ZM14.8433 26.3551V27H14.1984V26.3551H14.8433ZM15.4882 26.3551V27H14.8433V26.3551H15.4882ZM15.4882 25.7102V26.3551H14.8433V25.7102H15.4882ZM15.4882 25.0653V25.7102H14.8433V25.0653H15.4882ZM15.4882 24.4204V25.0653H14.8433V24.4204H15.4882ZM15.4882 23.7755V24.4204H14.8433V23.7755H15.4882ZM15.4882 23.1306V23.7755H14.8433V23.1306H15.4882ZM15.4882 22.4857V23.1306H14.8433V22.4857H15.4882ZM15.4882 21.8408V22.4857H14.8433V21.8408H15.4882ZM14.8433 21.8408V22.4857H14.1984V21.8408H14.8433ZM14.8433 21.1959V21.8408H14.1984V21.1959H14.8433ZM14.8433 22.4857V23.1306H14.1984V22.4857H14.8433ZM14.8433 23.1306V23.7755H14.1984V23.1306H14.8433ZM14.8433 23.7755V24.4204H14.1984V23.7755H14.8433ZM14.8433 24.4204V25.0653H14.1984V24.4204H14.8433ZM14.8433 25.0653V25.7102H14.1984V25.0653H14.8433ZM14.8433 25.7102V26.3551H14.1984V25.7102H14.8433ZM13.5535 26.3551V27H12.9086V26.3551H13.5535ZM13.5535 25.7102V26.3551H12.9086V25.7102H13.5535ZM13.5535 25.0653V25.7102H12.9086V25.0653H13.5535ZM13.5535 24.4204V25.0653H12.9086V24.4204H13.5535ZM13.5535 23.7755V24.4204H12.9086V23.7755H13.5535ZM13.5535 23.1306V23.7755H12.9086V23.1306H13.5535ZM13.5535 22.4857V23.1306H12.9086V22.4857H13.5535ZM13.5535 21.8408V22.4857H12.9086V21.8408H13.5535ZM12.9086 10.8776V11.5225H12.2637V10.8776H12.9086ZM12.9086 11.5225V12.1674H12.2637V11.5225H12.9086ZM12.9086 12.1674V12.8123H12.2637V12.1674H12.9086ZM12.9086 12.8123V13.4572H12.2637V12.8123H12.9086ZM12.9086 13.4572V14.1021H12.2637V13.4572H12.9086ZM12.9086 14.1021V14.747H12.2637V14.1021H12.9086ZM12.9086 14.747V15.3919H12.2637V14.747H12.9086ZM12.9086 15.3919V16.0368H12.2637V15.3919H12.9086ZM12.9086 16.0368V16.6817H12.2637V16.0368H12.9086ZM12.9086 16.6817V17.3266H12.2637V16.6817H12.9086ZM14.8433 10.8776V11.5225H14.1984V10.8776H14.8433ZM14.8433 11.5225V12.1674H14.1984V11.5225H14.8433ZM14.8433 12.1674V12.8123H14.1984V12.1674H14.8433ZM14.8433 12.8123V13.4572H14.1984V12.8123H14.8433ZM14.8433 13.4572V14.1021H14.1984V13.4572H14.8433ZM14.8433 14.1021V14.747H14.1984V14.1021H14.8433ZM14.8433 15.3919V16.0368H14.1984V15.3919H14.8433ZM14.8433 16.0368V16.6817H14.1984V16.0368H14.8433ZM14.8433 16.6817V17.3266H14.1984V16.6817H14.8433ZM14.8433 17.3266V17.9715H14.1984V17.3266H14.8433ZM14.8433 17.9715V18.6164H14.1984V17.9715H14.8433ZM14.8433 18.6164V19.2613H14.1984V18.6164H14.8433ZM14.8433 19.2613V19.9062H14.1984V19.2613H14.8433ZM15.4882 19.9062V20.5511H14.8433V19.9062H15.4882ZM15.4882 20.5511V21.1959H14.8433V20.5511H15.4882ZM15.4882 21.1959V21.8408H14.8433V21.1959H15.4882ZM15.4882 19.2613V19.9062H14.8433V19.2613H15.4882ZM15.4882 18.6164V19.2613H14.8433V18.6164H15.4882ZM15.4882 17.9715V18.6164H14.8433V17.9715H15.4882ZM15.4882 17.3266V17.9715H14.8433V17.3266H15.4882ZM15.4882 16.6817V17.3266H14.8433V16.6817H15.4882ZM15.4882 16.0368V16.6817H14.8433V16.0368H15.4882ZM15.4882 15.3919V16.0368H14.8433V15.3919H15.4882ZM15.4882 14.747V15.3919H14.8433V14.747H15.4882ZM15.4882 14.1021V14.747H14.8433V14.1021H15.4882ZM15.4882 13.4572V14.1021H14.8433V13.4572H15.4882ZM14.8433 14.747V15.3919H14.1984V14.747H14.8433ZM15.4882 12.8123V13.4572H14.8433V12.8123H15.4882ZM15.4882 12.1674V12.8123H14.8433V12.1674H15.4882ZM15.4882 11.5225V12.1674H14.8433V11.5225H15.4882ZM15.4882 10.8776V11.5225H14.8433V10.8776H15.4882ZM14.1984 10.8776V11.5225H13.5535V10.8776H14.1984ZM13.5535 10.8776V11.5225H12.9086V10.8776H13.5535ZM13.5535 11.5225V12.1674H12.9086V11.5225H13.5535ZM14.1984 11.5225V12.1674H13.5535V11.5225H14.1984ZM14.1984 12.1674V12.8123H13.5535V12.1674H14.1984ZM14.1984 12.8123V13.4572H13.5535V12.8123H14.1984ZM14.1984 13.4572V14.1021H13.5535V13.4572H14.1984ZM14.1984 14.1021V14.747H13.5535V14.1021H14.1984ZM14.1984 14.747V15.3919H13.5535V14.747H14.1984ZM14.1984 15.3919V16.0368H13.5535V15.3919H14.1984ZM13.5535 16.0368V16.6817H12.9086V16.0368H13.5535ZM13.5535 16.6817V17.3266H12.9086V16.6817H13.5535ZM13.5535 15.3919V16.0368H12.9086V15.3919H13.5535ZM13.5535 14.747V15.3919H12.9086V14.747H13.5535ZM13.5535 14.1021V14.747H12.9086V14.1021H13.5535ZM13.5535 13.4572V14.1021H12.9086V13.4572H13.5535ZM13.5535 12.8123V13.4572H12.9086V12.8123H13.5535ZM13.5535 12.1674V12.8123H12.9086V12.1674H13.5535ZM14.1984 16.0368V16.6817H13.5535V16.0368H14.1984ZM14.1984 16.6817V17.3266H13.5535V16.6817H14.1984ZM14.1984 17.3266V17.9715H13.5535V17.3266H14.1984ZM14.1984 17.9715V18.6164H13.5535V17.9715H14.1984ZM14.1984 18.6164V19.2613H13.5535V18.6164H14.1984ZM14.1984 19.2613V19.9062H13.5535V19.2613H14.1984ZM14.1984 19.9062V20.5511H13.5535V19.9062H14.1984ZM14.1984 20.5511V21.1959H13.5535V20.5511H14.1984ZM14.1984 21.1959V21.8408H13.5535V21.1959H14.1984ZM14.8433 20.5511V21.1959H14.1984V20.5511H14.8433ZM14.8433 19.9062V20.5511H14.1984V19.9062H14.8433ZM20.0081 23.1306V22.4857H20.653V23.1306H20.0081ZM19.3632 23.1306V22.4857H20.0081V23.1306H19.3632ZM18.7183 23.1306V22.4857H19.3632V23.1306H18.7183ZM18.0734 23.1306V22.4857H18.7183V23.1306H18.0734ZM17.4285 23.1306V22.4857H18.0734V23.1306H17.4285ZM17.4285 23.7755V23.1306H18.0734V23.7755H17.4285ZM17.4285 24.4204V23.7755H18.0734V24.4204H17.4285ZM18.0734 24.4204V23.7755H18.7183V24.4204H18.0734ZM18.7183 24.4204V23.7755H19.3632V24.4204H18.7183ZM19.3632 24.4204V23.7755H20.0081V24.4204H19.3632ZM19.3632 23.7755V23.1306H20.0081V23.7755H19.3632ZM20.0081 23.7755V23.1306H20.653V23.7755H20.0081ZM18.7183 23.7755V23.1306H19.3632V23.7755H18.7183ZM18.0734 23.7755V23.1306H18.7183V23.7755H18.0734ZM20.0081 24.4204V23.7755H20.653V24.4204H20.0081ZM20.653 24.4204V23.7755H21.2979V24.4204H20.653ZM20.653 25.0653V24.4204H21.2979V25.0653H20.653ZM20.0081 25.0653V24.4204H20.653V25.0653H20.0081ZM19.3632 25.0653V24.4204H20.0081V25.0653H19.3632ZM18.7183 25.0653V24.4204H19.3632V25.0653H18.7183ZM18.0734 25.0653V24.4204H18.7183V25.0653H18.0734ZM18.0734 25.7102V25.0653H18.7183V25.7102H18.0734ZM18.7183 25.7102V25.0653H19.3632V25.7102H18.7183ZM19.3632 25.7102V25.0653H20.0081V25.7102H19.3632ZM20.0081 25.7102V25.0653H20.653V25.7102H20.0081ZM20.653 25.7102V25.0653H21.2979V25.7102H20.653ZM19.3632 26.3551V25.7102H20.0081V26.3551H19.3632ZM18.7183 26.3551V25.7102H19.3632V26.3551H18.7183ZM20.0081 26.3551V25.7102H20.653V26.3551H20.0081ZM20.0081 27V26.3551H20.653V27H20.0081ZM20.653 27V26.3551H21.2979V27H20.653ZM20.653 26.3551V25.7102H21.2979V26.3551H20.653ZM21.2979 26.3551V25.7102H21.9428V26.3551H21.2979ZM21.2979 27V26.3551H21.9428V27H21.2979ZM21.2979 25.7102V25.0653H21.9428V25.7102H21.2979ZM21.9428 25.7102V25.0653H22.5877V25.7102H21.9428ZM21.9428 25.0653V24.4204H22.5877V25.0653H21.9428ZM21.2979 25.0653V24.4204H21.9428V25.0653H21.2979ZM22.5877 25.0653V24.4204H23.2326V25.0653H22.5877ZM22.5877 25.7102V25.0653H23.2326V25.7102H22.5877ZM22.5877 26.3551V25.7102H23.2326V26.3551H22.5877ZM22.5877 27V26.3551H23.2326V27H22.5877ZM21.9428 27V26.3551H22.5877V27H21.9428ZM21.9428 26.3551V25.7102H22.5877V26.3551H21.9428ZM23.2326 27V26.3551H23.8775V27H23.2326ZM24.5224 26.3551V25.7102H25.1673V26.3551H24.5224ZM24.5224 25.7102V25.0653H25.1673V25.7102H24.5224ZM24.5224 25.0653V24.4204H25.1673V25.0653H24.5224ZM23.8775 25.0653V24.4204H24.5224V25.0653H23.8775ZM23.2326 25.0653V24.4204H23.8775V25.0653H23.2326ZM23.2326 25.7102V25.0653H23.8775V25.7102H23.2326ZM23.2326 26.3551V25.7102H23.8775V26.3551H23.2326ZM23.8775 26.3551V25.7102H24.5224V26.3551H23.8775ZM23.8775 25.7102V25.0653H24.5224V25.7102H23.8775ZM25.1673 25.7102V25.0653H25.8122V25.7102H25.1673ZM25.1673 26.3551V25.7102H25.8122V26.3551H25.1673ZM25.8122 26.3551V25.7102H26.4571V26.3551H25.8122ZM25.8122 25.7102V25.0653H26.4571V25.7102H25.8122ZM26.4571 25.7102V25.0653H27.1019V25.7102H26.4571ZM26.4571 25.0653V24.4204H27.1019V25.0653H26.4571ZM26.4571 24.4204V23.7755H27.1019V24.4204H26.4571ZM25.8122 24.4204V23.7755H26.4571V24.4204H25.8122ZM25.8122 25.0653V24.4204H26.4571V25.0653H25.8122ZM25.1673 25.0653V24.4204H25.8122V25.0653H25.1673ZM25.1673 24.4204V23.7755H25.8122V24.4204H25.1673ZM24.5224 24.4204V23.7755H25.1673V24.4204H24.5224ZM27.1019 24.4204V23.7755H27.7468V24.4204H27.1019ZM27.1019 23.7755V23.1306H27.7468V23.7755H27.1019ZM27.1019 23.1306V22.4857H27.7468V23.1306H27.1019ZM27.1019 22.4857V21.8408H27.7468V22.4857H27.1019ZM27.1019 21.8408V21.1959H27.7468V21.8408H27.1019ZM27.1019 21.1959V20.5511H27.7468V21.1959H27.1019ZM27.1019 20.5511V19.9062H27.7468V20.5511H27.1019ZM27.1019 19.9062V19.2613H27.7468V19.9062H27.1019ZM27.1019 19.2613V18.6164H27.7468V19.2613H27.1019ZM27.1019 18.6164V17.9715H27.7468V18.6164H27.1019ZM26.4571 18.6164V17.9715H27.1019V18.6164H26.4571ZM26.4571 17.9715V17.3266H27.1019V17.9715H26.4571ZM27.1019 17.9715V17.3266H27.7468V17.9715H27.1019ZM25.8122 17.9715V17.3266H26.4571V17.9715H25.8122ZM25.1673 17.9715V17.3266H25.8122V17.9715H25.1673ZM24.5224 17.9715V17.3266H25.1673V17.9715H24.5224ZM23.8775 17.9715V17.3266H24.5224V17.9715H23.8775ZM24.5224 18.6164V17.9715H25.1673V18.6164H24.5224ZM24.5224 19.2613V18.6164H25.1673V19.2613H24.5224ZM24.5224 19.9062V19.2613H25.1673V19.9062H24.5224ZM24.5224 20.5511V19.9062H25.1673V20.5511H24.5224ZM24.5224 21.1959V20.5511H25.1673V21.1959H24.5224ZM24.5224 21.8408V21.1959H25.1673V21.8408H24.5224ZM24.5224 22.4857V21.8408H25.1673V22.4857H24.5224ZM24.5224 23.1306V22.4857H25.1673V23.1306H24.5224ZM24.5224 23.7755V23.1306H25.1673V23.7755H24.5224ZM25.1673 23.7755V23.1306H25.8122V23.7755H25.1673ZM25.8122 23.7755V23.1306H26.4571V23.7755H25.8122ZM26.4571 23.7755V23.1306H27.1019V23.7755H26.4571ZM26.4571 23.1306V22.4857H27.1019V23.1306H26.4571ZM26.4571 22.4857V21.8408H27.1019V22.4857H26.4571ZM26.4571 21.8408V21.1959H27.1019V21.8408H26.4571ZM26.4571 21.1959V20.5511H27.1019V21.1959H26.4571ZM26.4571 20.5511V19.9062H27.1019V20.5511H26.4571ZM26.4571 19.9062V19.2613H27.1019V19.9062H26.4571ZM26.4571 19.2613V18.6164H27.1019V19.2613H26.4571ZM25.8122 18.6164V17.9715H26.4571V18.6164H25.8122ZM25.1673 18.6164V17.9715H25.8122V18.6164H25.1673ZM25.1673 19.2613V18.6164H25.8122V19.2613H25.1673ZM25.1673 19.9062V19.2613H25.8122V19.9062H25.1673ZM25.1673 20.5511V19.9062H25.8122V20.5511H25.1673ZM25.1673 21.1959V20.5511H25.8122V21.1959H25.1673ZM25.8122 21.1959V20.5511H26.4571V21.1959H25.8122ZM25.8122 21.8408V21.1959H26.4571V21.8408H25.8122ZM25.8122 22.4857V21.8408H26.4571V22.4857H25.8122ZM25.8122 23.1306V22.4857H26.4571V23.1306H25.8122ZM25.1673 23.1306V22.4857H25.8122V23.1306H25.1673ZM25.1673 22.4857V21.8408H25.8122V22.4857H25.1673ZM25.1673 21.8408V21.1959H25.8122V21.8408H25.1673ZM25.8122 19.9062V19.2613H26.4571V19.9062H25.8122ZM25.8122 19.2613V18.6164H26.4571V19.2613H25.8122ZM25.8122 20.5511V19.9062H26.4571V20.5511H25.8122ZM20.0081 18.6164V17.9715H20.653V18.6164H20.0081ZM19.3632 18.6164V17.9715H20.0081V18.6164H19.3632ZM18.7183 18.6164V17.9715H19.3632V18.6164H18.7183ZM18.0734 18.6164V17.9715H18.7183V18.6164H18.0734ZM17.4285 18.6164V17.9715H18.0734V18.6164H17.4285ZM17.4285 17.9715V17.3266H18.0734V17.9715H17.4285ZM18.0734 17.9715V17.3266H18.7183V17.9715H18.0734ZM18.7183 17.9715V17.3266H19.3632V17.9715H18.7183ZM19.3632 17.9715V17.3266H20.0081V17.9715H19.3632ZM20.0081 17.9715V17.3266H20.653V17.9715H20.0081ZM20.653 17.9715V17.3266H21.2979V17.9715H20.653ZM20.653 17.3266V16.6817H21.2979V17.3266H20.653ZM20.0081 17.3266V16.6817H20.653V17.3266H20.0081ZM19.3632 17.3266V16.6817H20.0081V17.3266H19.3632ZM18.7183 17.3266V16.6817H19.3632V17.3266H18.7183ZM18.7183 16.6817V16.0368H19.3632V16.6817H18.7183ZM18.0734 16.6817V16.0368H18.7183V16.6817H18.0734ZM18.0734 17.3266V16.6817H18.7183V17.3266H18.0734ZM18.7183 16.0368V15.3919H19.3632V16.0368H18.7183ZM19.3632 16.0368V15.3919H20.0081V16.0368H19.3632ZM19.3632 16.6817V16.0368H20.0081V16.6817H19.3632ZM20.0081 16.6817V16.0368H20.653V16.6817H20.0081ZM20.0081 16.0368V15.3919H20.653V16.0368H20.0081ZM20.0081 15.3919V14.747H20.653V15.3919H20.0081ZM20.653 15.3919V14.747H21.2979V15.3919H20.653ZM21.2979 15.3919V14.747H21.9428V15.3919H21.2979ZM21.9428 15.3919V14.747H22.5877V15.3919H21.9428ZM22.5877 15.3919V14.747H23.2326V15.3919H22.5877ZM23.2326 15.3919V14.747H23.8775V15.3919H23.2326ZM23.8775 15.3919V14.747H24.5224V15.3919H23.8775ZM24.5224 15.3919V14.747H25.1673V15.3919H24.5224ZM23.8775 16.0368V15.3919H24.5224V16.0368H23.8775ZM23.2326 16.0368V15.3919H23.8775V16.0368H23.2326ZM22.5877 16.0368V15.3919H23.2326V16.0368H22.5877ZM21.9428 16.0368V15.3919H22.5877V16.0368H21.9428ZM21.2979 16.0368V15.3919H21.9428V16.0368H21.2979ZM20.653 16.0368V15.3919H21.2979V16.0368H20.653ZM20.653 16.6817V16.0368H21.2979V16.6817H20.653ZM21.2979 16.6817V16.0368H21.9428V16.6817H21.2979ZM21.9428 16.6817V16.0368H22.5877V16.6817H21.9428ZM22.5877 16.6817V16.0368H23.2326V16.6817H22.5877ZM23.2326 16.6817V16.0368H23.8775V16.6817H23.2326ZM23.8775 16.6817V16.0368H24.5224V16.6817H23.8775ZM24.5224 16.0368V15.3919H25.1673V16.0368H24.5224ZM25.1673 16.0368V15.3919H25.8122V16.0368H25.1673ZM25.8122 16.0368V15.3919H26.4571V16.0368H25.8122ZM25.8122 16.6817V16.0368H26.4571V16.6817H25.8122ZM26.4571 16.6817V16.0368H27.1019V16.6817H26.4571ZM26.4571 17.3266V16.6817H27.1019V17.3266H26.4571ZM25.8122 17.3266V16.6817H26.4571V17.3266H25.8122ZM25.1673 17.3266V16.6817H25.8122V17.3266H25.1673ZM24.5224 17.3266V16.6817H25.1673V17.3266H24.5224ZM23.8775 17.3266V16.6817H24.5224V17.3266H23.8775ZM23.2326 17.3266V16.6817H23.8775V17.3266H23.2326ZM22.5877 17.3266V16.6817H23.2326V17.3266H22.5877ZM21.9428 17.3266V16.6817H22.5877V17.3266H21.9428ZM21.2979 17.3266V16.6817H21.9428V17.3266H21.2979ZM24.5224 16.6817V16.0368H25.1673V16.6817H24.5224ZM25.1673 16.6817V16.0368H25.8122V16.6817H25.1673ZM18.0734 22.4857V21.8408H18.7183V22.4857H18.0734ZM18.7183 22.4857V21.8408H19.3632V22.4857H18.7183ZM19.3632 22.4857V21.8408H20.0081V22.4857H19.3632ZM20.0081 22.4857V21.8408H20.653V22.4857H20.0081ZM18.7183 21.8408V21.1959H19.3632V21.8408H18.7183ZM19.3632 21.8408V21.1959H20.0081V21.8408H19.3632ZM20.653 21.8408V21.1959H21.2979V21.8408H20.653ZM21.2979 21.8408V21.1959H21.9428V21.8408H21.2979ZM21.9428 21.8408V21.1959H22.5877V21.8408H21.9428ZM22.5877 21.8408V21.1959H23.2326V21.8408H22.5877ZM23.2326 21.8408V21.1959H23.8775V21.8408H23.2326ZM23.8775 21.8408V21.1959H24.5224V21.8408H23.8775ZM20.0081 21.8408V21.1959H20.653V21.8408H20.0081ZM18.0734 21.8408V21.1959H18.7183V21.8408H18.0734ZM18.7183 21.1959V20.5511H19.3632V21.1959H18.7183ZM19.3632 21.1959V20.5511H20.0081V21.1959H19.3632ZM20.0081 21.1959V20.5511H20.653V21.1959H20.0081ZM20.653 21.1959V20.5511H21.2979V21.1959H20.653ZM21.2979 21.1959V20.5511H21.9428V21.1959H21.2979ZM21.9428 21.1959V20.5511H22.5877V21.1959H21.9428ZM22.5877 21.1959V20.5511H23.2326V21.1959H22.5877ZM23.2326 21.1959V20.5511H23.8775V21.1959H23.2326ZM23.8775 21.1959V20.5511H24.5224V21.1959H23.8775ZM23.8775 20.5511V19.9062H24.5224V20.5511H23.8775ZM23.2326 20.5511V19.9062H23.8775V20.5511H23.2326ZM22.5877 20.5511V19.9062H23.2326V20.5511H22.5877ZM21.2979 20.5511V19.9062H21.9428V20.5511H21.2979ZM20.653 20.5511V19.9062H21.2979V20.5511H20.653ZM20.0081 20.5511V19.9062H20.653V20.5511H20.0081ZM21.9428 20.5511V19.9062H22.5877V20.5511H21.9428ZM27.7468 24.4204V25.0653H27.1019V24.4204H27.7468ZM27.7468 25.0653V25.7102H27.1019V25.0653H27.7468ZM27.7468 25.7102V26.3551H27.1019V25.7102H27.7468ZM27.7468 26.3551V27H27.1019V26.3551H27.7468ZM27.1019 26.3551V27H26.4571V26.3551H27.1019ZM27.1019 25.7102V26.3551H26.4571V25.7102H27.1019ZM26.4571 26.3551V27H25.8122V26.3551H26.4571ZM25.8122 26.3551V27H25.1673V26.3551H25.8122ZM25.1673 26.3551V27H24.5224V26.3551H25.1673ZM24.5224 23.7755V24.4204H23.8775V23.7755H24.5224ZM20.0081 26.3551V27H19.3632V26.3551H20.0081ZM21.2979 21.8408V22.4857H20.653V21.8408H21.2979ZM30.9833 26.3551V27H30.3384V26.3551H30.9833ZM30.9833 25.7102V26.3551H30.3384V25.7102H30.9833ZM30.9833 25.0653V25.7102H30.3384V25.0653H30.9833ZM30.9833 24.4204V25.0653H30.3384V24.4204H30.9833ZM30.9833 23.7755V24.4204H30.3384V23.7755H30.9833ZM30.9833 23.1306V23.7755H30.3384V23.1306H30.9833ZM30.9833 22.4857V23.1306H30.3384V22.4857H30.9833ZM30.9833 21.8408V22.4857H30.3384V21.8408H30.9833ZM30.9833 21.1959V21.8408H30.3384V21.1959H30.9833ZM30.9833 20.5511V21.1959H30.3384V20.5511H30.9833ZM30.9833 19.9062V20.5511H30.3384V19.9062H30.9833ZM30.9833 19.2613V19.9062H30.3384V19.2613H30.9833ZM30.9833 18.6164V19.2613H30.3384V18.6164H30.9833ZM30.9833 17.9715V18.6164H30.3384V17.9715H30.9833ZM30.9833 17.3266V17.9715H30.3384V17.3266H30.9833ZM31.6282 17.3266V17.9715H30.9833V17.3266H31.6282ZM31.6282 17.9715V18.6164H30.9833V17.9715H31.6282ZM31.6282 18.6164V19.2613H30.9833V18.6164H31.6282ZM31.6282 19.2613V19.9062H30.9833V19.2613H31.6282ZM31.6282 19.9062V20.5511H30.9833V19.9062H31.6282ZM31.6282 20.5511V21.1959H30.9833V20.5511H31.6282ZM31.6282 21.1959V21.8408H30.9833V21.1959H31.6282ZM32.2731 21.8408V22.4857H31.6282V21.8408H32.2731ZM32.2731 22.4857V23.1306H31.6282V22.4857H32.2731ZM32.2731 23.1306V23.7755H31.6282V23.1306H32.2731ZM32.2731 23.7755V24.4204H31.6282V23.7755H32.2731ZM32.2731 24.4204V25.0653H31.6282V24.4204H32.2731ZM32.2731 25.0653V25.7102H31.6282V25.0653H32.2731ZM32.2731 25.7102V26.3551H31.6282V25.7102H32.2731ZM32.2731 26.3551V27H31.6282V26.3551H32.2731ZM32.918 26.3551V27H32.2731V26.3551H32.918ZM33.5629 26.3551V27H32.918V26.3551H33.5629ZM33.5629 25.7102V26.3551H32.918V25.7102H33.5629ZM33.5629 25.0653V25.7102H32.918V25.0653H33.5629ZM33.5629 24.4204V25.0653H32.918V24.4204H33.5629ZM33.5629 23.7755V24.4204H32.918V23.7755H33.5629ZM33.5629 23.1306V23.7755H32.918V23.1306H33.5629ZM33.5629 22.4857V23.1306H32.918V22.4857H33.5629ZM33.5629 21.8408V22.4857H32.918V21.8408H33.5629ZM32.918 21.8408V22.4857H32.2731V21.8408H32.918ZM32.918 21.1959V21.8408H32.2731V21.1959H32.918ZM32.918 22.4857V23.1306H32.2731V22.4857H32.918ZM32.918 23.1306V23.7755H32.2731V23.1306H32.918ZM32.918 23.7755V24.4204H32.2731V23.7755H32.918ZM32.918 24.4204V25.0653H32.2731V24.4204H32.918ZM32.918 25.0653V25.7102H32.2731V25.0653H32.918ZM32.918 25.7102V26.3551H32.2731V25.7102H32.918ZM31.6282 26.3551V27H30.9833V26.3551H31.6282ZM31.6282 25.7102V26.3551H30.9833V25.7102H31.6282ZM31.6282 25.0653V25.7102H30.9833V25.0653H31.6282ZM31.6282 24.4204V25.0653H30.9833V24.4204H31.6282ZM31.6282 23.7755V24.4204H30.9833V23.7755H31.6282ZM31.6282 23.1306V23.7755H30.9833V23.1306H31.6282ZM31.6282 22.4857V23.1306H30.9833V22.4857H31.6282ZM31.6282 21.8408V22.4857H30.9833V21.8408H31.6282ZM30.9833 14.747V15.3919H30.3384V14.747H30.9833ZM30.9833 15.3919V16.0368H30.3384V15.3919H30.9833ZM30.9833 16.0368V16.6817H30.3384V16.0368H30.9833ZM30.9833 16.6817V17.3266H30.3384V16.6817H30.9833ZM32.918 15.3919V16.0368H32.2731V15.3919H32.918ZM32.918 16.0368V16.6817H32.2731V16.0368H32.918ZM32.918 16.6817V17.3266H32.2731V16.6817H32.918ZM32.918 17.3266V17.9715H32.2731V17.3266H32.918ZM32.918 17.9715V18.6164H32.2731V17.9715H32.918ZM32.918 18.6164V19.2613H32.2731V18.6164H32.918ZM32.918 19.2613V19.9062H32.2731V19.2613H32.918ZM33.5629 19.9062V20.5511H32.918V19.9062H33.5629ZM33.5629 20.5511V21.1959H32.918V20.5511H33.5629ZM33.5629 21.1959V21.8408H32.918V21.1959H33.5629ZM33.5629 19.2613V19.9062H32.918V19.2613H33.5629ZM33.5629 18.6164V19.2613H32.918V18.6164H33.5629ZM33.5629 17.9715V18.6164H32.918V17.9715H33.5629ZM33.5629 17.3266V17.9715H32.918V17.3266H33.5629ZM33.5629 16.6817V17.3266H32.918V16.6817H33.5629ZM33.5629 16.0368V16.6817H32.918V16.0368H33.5629ZM33.5629 15.3919V16.0368H32.918V15.3919H33.5629ZM33.5629 14.747V15.3919H32.918V14.747H33.5629ZM32.918 14.747V15.3919H32.2731V14.747H32.918ZM32.2731 14.747V15.3919H31.6282V14.747H32.2731ZM32.2731 15.3919V16.0368H31.6282V15.3919H32.2731ZM31.6282 16.0368V16.6817H30.9833V16.0368H31.6282ZM31.6282 16.6817V17.3266H30.9833V16.6817H31.6282ZM31.6282 15.3919V16.0368H30.9833V15.3919H31.6282ZM31.6282 14.747V15.3919H30.9833V14.747H31.6282ZM32.2731 16.0368V16.6817H31.6282V16.0368H32.2731ZM32.2731 16.6817V17.3266H31.6282V16.6817H32.2731ZM32.2731 17.3266V17.9715H31.6282V17.3266H32.2731ZM32.2731 17.9715V18.6164H31.6282V17.9715H32.2731ZM32.2731 18.6164V19.2613H31.6282V18.6164H32.2731ZM32.2731 19.2613V19.9062H31.6282V19.2613H32.2731ZM32.2731 19.9062V20.5511H31.6282V19.9062H32.2731ZM32.2731 20.5511V21.1959H31.6282V20.5511H32.2731ZM32.2731 21.1959V21.8408H31.6282V21.1959H32.2731ZM32.918 20.5511V21.1959H32.2731V20.5511H32.918ZM32.918 19.9062V20.5511H32.2731V19.9062H32.918ZM36.7873 26.3551V27H36.1424V26.3551H36.7873ZM37.4322 26.3551V27H36.7873V26.3551H37.4322ZM38.0771 26.3551V27H37.4322V26.3551H38.0771ZM38.722 26.3551V27H38.0771V26.3551H38.722ZM39.3669 25.7102V26.3551H38.722V25.7102H39.3669ZM39.3669 25.0653V25.7102H38.722V25.0653H39.3669ZM39.3669 26.3551V27H38.722V26.3551H39.3669ZM38.722 25.7102V26.3551H38.0771V25.7102H38.722ZM38.0771 25.7102V26.3551H37.4322V25.7102H38.0771ZM37.4322 25.7102V26.3551H36.7873V25.7102H37.4322ZM36.7873 25.7102V26.3551H36.1424V25.7102H36.7873ZM36.7873 25.0653V25.7102H36.1424V25.0653H36.7873ZM36.7873 24.4204V25.0653H36.1424V24.4204H36.7873ZM37.4322 24.4204V25.0653H36.7873V24.4204H37.4322ZM38.0771 24.4204V25.0653H37.4322V24.4204H38.0771ZM38.722 24.4204V25.0653H38.0771V24.4204H38.722ZM39.3669 24.4204V25.0653H38.722V24.4204H39.3669ZM38.722 25.0653V25.7102H38.0771V25.0653H38.722ZM38.0771 25.0653V25.7102H37.4322V25.0653H38.0771ZM37.4322 25.0653V25.7102H36.7873V25.0653H37.4322ZM38.722 17.3266V17.9715H38.0771V17.3266H38.722ZM37.4322 17.3266V17.9715H36.7873V17.3266H37.4322ZM37.4322 17.9715V18.6164H36.7873V17.9715H37.4322ZM37.4322 18.6164V19.2613H36.7873V18.6164H37.4322ZM36.7873 19.2613V19.9062H36.1424V19.2613H36.7873ZM36.7873 19.9062V20.5511H36.1424V19.9062H36.7873ZM36.7873 20.5511V21.1959H36.1424V20.5511H36.7873ZM36.7873 21.1959V21.8408H36.1424V21.1959H36.7873ZM36.7873 21.8408V22.4857H36.1424V21.8408H36.7873ZM36.7873 22.4857V23.1306H36.1424V22.4857H36.7873ZM36.7873 23.1306V23.7755H36.1424V23.1306H36.7873ZM36.7873 23.7755V24.4204H36.1424V23.7755H36.7873ZM37.4322 23.7755V24.4204H36.7873V23.7755H37.4322ZM38.0771 23.7755V24.4204H37.4322V23.7755H38.0771ZM38.722 23.7755V24.4204H38.0771V23.7755H38.722ZM39.3669 23.7755V24.4204H38.722V23.7755H39.3669ZM39.3669 23.1306V23.7755H38.722V23.1306H39.3669ZM39.3669 21.8408V22.4857H38.722V21.8408H39.3669ZM39.3669 21.1959V21.8408H38.722V21.1959H39.3669ZM39.3669 20.5511V21.1959H38.722V20.5511H39.3669ZM39.3669 19.9062V20.5511H38.722V19.9062H39.3669ZM39.3669 19.2613V19.9062H38.722V19.2613H39.3669ZM39.3669 18.6164V19.2613H38.722V18.6164H39.3669ZM38.722 20.5511V21.1959H38.0771V20.5511H38.722ZM38.722 21.8408V22.4857H38.0771V21.8408H38.722ZM38.722 22.4857V23.1306H38.0771V22.4857H38.722ZM38.722 23.1306V23.7755H38.0771V23.1306H38.722ZM39.3669 22.4857V23.1306H38.722V22.4857H39.3669ZM38.722 19.2613V19.9062H38.0771V19.2613H38.722ZM38.0771 19.2613V19.9062H37.4322V19.2613H38.0771ZM37.4322 19.2613V19.9062H36.7873V19.2613H37.4322ZM37.4322 19.9062V20.5511H36.7873V19.9062H37.4322ZM37.4322 20.5511V21.1959H36.7873V20.5511H37.4322ZM37.4322 21.1959V21.8408H36.7873V21.1959H37.4322ZM37.4322 21.8408V22.4857H36.7873V21.8408H37.4322ZM37.4322 22.4857V23.1306H36.7873V22.4857H37.4322ZM37.4322 23.1306V23.7755H36.7873V23.1306H37.4322ZM38.0771 23.1306V23.7755H37.4322V23.1306H38.0771ZM38.0771 22.4857V23.1306H37.4322V22.4857H38.0771ZM38.0771 21.8408V22.4857H37.4322V21.8408H38.0771ZM38.0771 21.1959V21.8408H37.4322V21.1959H38.0771ZM38.0771 20.5511V21.1959H37.4322V20.5511H38.0771ZM38.0771 19.9062V20.5511H37.4322V19.9062H38.0771ZM38.722 19.9062V20.5511H38.0771V19.9062H38.722ZM38.722 21.1959V21.8408H38.0771V21.1959H38.722ZM38.722 18.6164V19.2613H38.0771V18.6164H38.722ZM38.722 17.9715V18.6164H38.0771V17.9715H38.722ZM38.0771 17.9715V18.6164H37.4322V17.9715H38.0771ZM38.0771 18.6164V19.2613H37.4322V18.6164H38.0771ZM36.7873 18.6164V19.2613H36.1424V18.6164H36.7873ZM36.7873 17.9715V18.6164H36.1424V17.9715H36.7873ZM36.7873 17.3266V17.9715H36.1424V17.3266H36.7873ZM38.0771 17.3266V17.9715H37.4322V17.3266H38.0771ZM36.7873 14.747V15.3919H36.1424V14.747H36.7873ZM36.7873 15.3919V16.0368H36.1424V15.3919H36.7873ZM37.4322 15.3919V16.0368H36.7873V15.3919H37.4322ZM38.0771 15.3919V16.0368H37.4322V15.3919H38.0771ZM38.0771 16.0368V16.6817H37.4322V16.0368H38.0771ZM38.722 16.0368V16.6817H38.0771V16.0368H38.722ZM38.722 16.6817V17.3266H38.0771V16.6817H38.722ZM38.0771 16.6817V17.3266H37.4322V16.6817H38.0771ZM37.4322 16.6817V17.3266H36.7873V16.6817H37.4322ZM37.4322 16.0368V16.6817H36.7873V16.0368H37.4322ZM36.7873 16.0368V16.6817H36.1424V16.0368H36.7873ZM36.1424 16.0368V16.6817H35.4975V16.0368H36.1424ZM36.1424 16.6817V17.3266H35.4975V16.6817H36.1424ZM36.7873 16.6817V17.3266H36.1424V16.6817H36.7873ZM36.1424 17.3266V17.9715H35.4975V17.3266H36.1424ZM36.1424 14.747V15.3919H35.4975V14.747H36.1424ZM36.1424 15.3919V16.0368H35.4975V15.3919H36.1424ZM35.4975 14.747V15.3919H34.8526V14.747H35.4975ZM35.4975 15.3919V16.0368H34.8526V15.3919H35.4975ZM35.4975 16.0368V16.6817H34.8526V16.0368H35.4975ZM34.8526 15.3919V16.0368H34.2078V15.3919H34.8526ZM34.2078 16.0368V16.6817H33.5629V16.0368H34.2078ZM34.2078 16.6817V17.3266H33.5629V16.6817H34.2078ZM34.8526 16.6817V17.3266H34.2078V16.6817H34.8526ZM34.8526 16.0368V16.6817H34.2078V16.0368H34.8526ZM34.2078 17.3266V17.9715H33.5629V17.3266H34.2078ZM42.5914 26.3551V27H41.9465V26.3551H42.5914ZM43.2363 26.3551V27H42.5914V26.3551H43.2363ZM43.8812 26.3551V27H43.2363V26.3551H43.8812ZM44.5261 26.3551V27H43.8812V26.3551H44.5261ZM45.171 25.7102V26.3551H44.5261V25.7102H45.171ZM45.171 25.0653V25.7102H44.5261V25.0653H45.171ZM45.171 26.3551V27H44.5261V26.3551H45.171ZM44.5261 25.7102V26.3551H43.8812V25.7102H44.5261ZM43.8812 25.7102V26.3551H43.2363V25.7102H43.8812ZM43.2363 25.7102V26.3551H42.5914V25.7102H43.2363ZM42.5914 25.7102V26.3551H41.9465V25.7102H42.5914ZM42.5914 25.0653V25.7102H41.9465V25.0653H42.5914ZM42.5914 24.4204V25.0653H41.9465V24.4204H42.5914ZM43.2363 24.4204V25.0653H42.5914V24.4204H43.2363ZM43.8812 24.4204V25.0653H43.2363V24.4204H43.8812ZM44.5261 24.4204V25.0653H43.8812V24.4204H44.5261ZM45.171 24.4204V25.0653H44.5261V24.4204H45.171ZM44.5261 25.0653V25.7102H43.8812V25.0653H44.5261ZM43.8812 25.0653V25.7102H43.2363V25.0653H43.8812ZM43.2363 25.0653V25.7102H42.5914V25.0653H43.2363ZM45.171 17.3266V17.9715H44.5261V17.3266H45.171ZM44.5261 17.3266V17.9715H43.8812V17.3266H44.5261ZM43.2363 17.3266V17.9715H42.5914V17.3266H43.2363ZM43.2363 17.9715V18.6164H42.5914V17.9715H43.2363ZM43.2363 18.6164V19.2613H42.5914V18.6164H43.2363ZM42.5914 19.2613V19.9062H41.9465V19.2613H42.5914ZM42.5914 19.9062V20.5511H41.9465V19.9062H42.5914ZM42.5914 20.5511V21.1959H41.9465V20.5511H42.5914ZM42.5914 21.1959V21.8408H41.9465V21.1959H42.5914ZM42.5914 21.8408V22.4857H41.9465V21.8408H42.5914ZM42.5914 22.4857V23.1306H41.9465V22.4857H42.5914ZM42.5914 23.1306V23.7755H41.9465V23.1306H42.5914ZM42.5914 23.7755V24.4204H41.9465V23.7755H42.5914ZM43.2363 23.7755V24.4204H42.5914V23.7755H43.2363ZM43.8812 23.7755V24.4204H43.2363V23.7755H43.8812ZM44.5261 23.7755V24.4204H43.8812V23.7755H44.5261ZM45.171 23.7755V24.4204H44.5261V23.7755H45.171ZM45.171 23.1306V23.7755H44.5261V23.1306H45.171ZM45.171 21.8408V22.4857H44.5261V21.8408H45.171ZM45.171 21.1959V21.8408H44.5261V21.1959H45.171ZM45.171 20.5511V21.1959H44.5261V20.5511H45.171ZM45.171 19.9062V20.5511H44.5261V19.9062H45.171ZM45.171 19.2613V19.9062H44.5261V19.2613H45.171ZM45.171 18.6164V19.2613H44.5261V18.6164H45.171ZM45.171 17.9715V18.6164H44.5261V17.9715H45.171ZM44.5261 20.5511V21.1959H43.8812V20.5511H44.5261ZM44.5261 21.8408V22.4857H43.8812V21.8408H44.5261ZM44.5261 22.4857V23.1306H43.8812V22.4857H44.5261ZM44.5261 23.1306V23.7755H43.8812V23.1306H44.5261ZM45.171 22.4857V23.1306H44.5261V22.4857H45.171ZM44.5261 19.2613V19.9062H43.8812V19.2613H44.5261ZM43.8812 19.2613V19.9062H43.2363V19.2613H43.8812ZM43.2363 19.2613V19.9062H42.5914V19.2613H43.2363ZM43.2363 19.9062V20.5511H42.5914V19.9062H43.2363ZM43.2363 20.5511V21.1959H42.5914V20.5511H43.2363ZM43.2363 21.1959V21.8408H42.5914V21.1959H43.2363ZM43.2363 21.8408V22.4857H42.5914V21.8408H43.2363ZM43.2363 22.4857V23.1306H42.5914V22.4857H43.2363ZM43.2363 23.1306V23.7755H42.5914V23.1306H43.2363ZM43.8812 23.1306V23.7755H43.2363V23.1306H43.8812ZM43.8812 22.4857V23.1306H43.2363V22.4857H43.8812ZM43.8812 21.8408V22.4857H43.2363V21.8408H43.8812ZM43.8812 21.1959V21.8408H43.2363V21.1959H43.8812ZM43.8812 20.5511V21.1959H43.2363V20.5511H43.8812ZM43.8812 19.9062V20.5511H43.2363V19.9062H43.8812ZM44.5261 19.9062V20.5511H43.8812V19.9062H44.5261ZM44.5261 21.1959V21.8408H43.8812V21.1959H44.5261ZM44.5261 18.6164V19.2613H43.8812V18.6164H44.5261ZM44.5261 17.9715V18.6164H43.8812V17.9715H44.5261ZM43.8812 17.9715V18.6164H43.2363V17.9715H43.8812ZM43.8812 18.6164V19.2613H43.2363V18.6164H43.8812ZM42.5914 18.6164V19.2613H41.9465V18.6164H42.5914ZM42.5914 17.9715V18.6164H41.9465V17.9715H42.5914ZM42.5914 17.3266V17.9715H41.9465V17.3266H42.5914ZM43.8812 17.3266V17.9715H43.2363V17.3266H43.8812ZM42.5914 14.747V15.3919H41.9465V14.747H42.5914ZM42.5914 15.3919V16.0368H41.9465V15.3919H42.5914ZM43.2363 15.3919V16.0368H42.5914V15.3919H43.2363ZM43.8812 15.3919V16.0368H43.2363V15.3919H43.8812ZM43.8812 16.0368V16.6817H43.2363V16.0368H43.8812ZM44.5261 16.0368V16.6817H43.8812V16.0368H44.5261ZM44.5261 16.6817V17.3266H43.8812V16.6817H44.5261ZM43.8812 16.6817V17.3266H43.2363V16.6817H43.8812ZM43.2363 16.6817V17.3266H42.5914V16.6817H43.2363ZM43.2363 16.0368V16.6817H42.5914V16.0368H43.2363ZM42.5914 16.0368V16.6817H41.9465V16.0368H42.5914ZM41.9465 16.0368V16.6817H41.3016V16.0368H41.9465ZM41.9465 16.6817V17.3266H41.3016V16.6817H41.9465ZM42.5914 16.6817V17.3266H41.9465V16.6817H42.5914ZM41.9465 17.3266V17.9715H41.3016V17.3266H41.9465ZM41.3016 16.6817V17.3266H40.6567V16.6817H41.3016ZM41.3016 16.0368V16.6817H40.6567V16.0368H41.3016ZM41.3016 15.3919V16.0368H40.6567V15.3919H41.3016ZM41.3016 14.747V15.3919H40.6567V14.747H41.3016ZM41.9465 14.747V15.3919H41.3016V14.747H41.9465ZM41.9465 15.3919V16.0368H41.3016V15.3919H41.9465ZM40.6567 14.747V15.3919H40.0118V14.747H40.6567ZM40.6567 15.3919V16.0368H40.0118V15.3919H40.6567ZM40.0118 15.3919V16.0368H39.3669V15.3919H40.0118ZM40.0118 16.0368V16.6817H39.3669V16.0368H40.0118ZM39.3669 16.0368V16.6817H38.722V16.0368H39.3669ZM39.3669 16.6817V17.3266H38.722V16.6817H39.3669ZM40.0118 16.6817V17.3266H39.3669V16.6817H40.0118ZM40.6567 16.6817V17.3266H40.0118V16.6817H40.6567ZM40.6567 16.0368V16.6817H40.0118V16.0368H40.6567ZM39.3669 17.3266V17.9715H38.722V17.3266H39.3669ZM40.0118 17.3266V17.9715H39.3669V17.3266H40.0118ZM39.3669 17.9715V18.6164H38.722V17.9715H39.3669ZM34.8526 14.747V15.3919H34.2078V14.747H34.8526ZM34.2078 15.3919V16.0368H33.5629V15.3919H34.2078ZM40.0118 14.747V15.3919H39.3669V14.747H40.0118ZM39.3669 15.3919V16.0368H38.722V15.3919H39.3669ZM35.4975 16.6817V17.3266H34.8526V16.6817H35.4975ZM37.4322 14.747V15.3919H36.7873V14.747H37.4322ZM49.0309 23.1306V22.4857H49.6758V23.1306H49.0309ZM48.386 23.1306V22.4857H49.0309V23.1306H48.386ZM47.7411 23.1306V22.4857H48.386V23.1306H47.7411ZM47.0962 23.1306V22.4857H47.7411V23.1306H47.0962ZM46.4513 23.1306V22.4857H47.0962V23.1306H46.4513ZM46.4513 23.7755V23.1306H47.0962V23.7755H46.4513ZM46.4513 24.4204V23.7755H47.0962V24.4204H46.4513ZM47.0962 24.4204V23.7755H47.7411V24.4204H47.0962ZM47.7411 24.4204V23.7755H48.386V24.4204H47.7411ZM48.386 24.4204V23.7755H49.0309V24.4204H48.386ZM48.386 23.7755V23.1306H49.0309V23.7755H48.386ZM49.0309 23.7755V23.1306H49.6758V23.7755H49.0309ZM47.7411 23.7755V23.1306H48.386V23.7755H47.7411ZM47.0962 23.7755V23.1306H47.7411V23.7755H47.0962ZM49.0309 24.4204V23.7755H49.6758V24.4204H49.0309ZM49.6758 24.4204V23.7755H50.3207V24.4204H49.6758ZM49.6758 25.0653V24.4204H50.3207V25.0653H49.6758ZM49.0309 25.0653V24.4204H49.6758V25.0653H49.0309ZM48.386 25.0653V24.4204H49.0309V25.0653H48.386ZM47.7411 25.0653V24.4204H48.386V25.0653H47.7411ZM47.0962 25.0653V24.4204H47.7411V25.0653H47.0962ZM47.0962 25.7102V25.0653H47.7411V25.7102H47.0962ZM47.7411 25.7102V25.0653H48.386V25.7102H47.7411ZM48.386 25.7102V25.0653H49.0309V25.7102H48.386ZM49.0309 25.7102V25.0653H49.6758V25.7102H49.0309ZM49.6758 25.7102V25.0653H50.3207V25.7102H49.6758ZM48.386 26.3551V25.7102H49.0309V26.3551H48.386ZM47.7411 26.3551V25.7102H48.386V26.3551H47.7411ZM49.0309 26.3551V25.7102H49.6758V26.3551H49.0309ZM49.0309 27V26.3551H49.6758V27H49.0309ZM49.6758 27V26.3551H50.3207V27H49.6758ZM49.6758 26.3551V25.7102H50.3207V26.3551H49.6758ZM50.3207 26.3551V25.7102H50.9656V26.3551H50.3207ZM50.3207 27V26.3551H50.9656V27H50.3207ZM50.3207 25.7102V25.0653H50.9656V25.7102H50.3207ZM50.9656 25.7102V25.0653H51.6105V25.7102H50.9656ZM50.9656 25.0653V24.4204H51.6105V25.0653H50.9656ZM50.3207 25.0653V24.4204H50.9656V25.0653H50.3207ZM51.6105 25.0653V24.4204H52.2554V25.0653H51.6105ZM51.6105 25.7102V25.0653H52.2554V25.7102H51.6105ZM51.6105 26.3551V25.7102H52.2554V26.3551H51.6105ZM51.6105 27V26.3551H52.2554V27H51.6105ZM50.9656 27V26.3551H51.6105V27H50.9656ZM50.9656 26.3551V25.7102H51.6105V26.3551H50.9656ZM52.2554 27V26.3551H52.9002V27H52.2554ZM53.5451 26.3551V25.7102H54.19V26.3551H53.5451ZM53.5451 25.7102V25.0653H54.19V25.7102H53.5451ZM53.5451 25.0653V24.4204H54.19V25.0653H53.5451ZM52.9002 25.0653V24.4204H53.5451V25.0653H52.9002ZM52.2554 25.0653V24.4204H52.9002V25.0653H52.2554ZM52.2554 25.7102V25.0653H52.9002V25.7102H52.2554ZM52.2554 26.3551V25.7102H52.9002V26.3551H52.2554ZM52.9002 26.3551V25.7102H53.5451V26.3551H52.9002ZM52.9002 25.7102V25.0653H53.5451V25.7102H52.9002ZM54.19 25.7102V25.0653H54.8349V25.7102H54.19ZM54.19 26.3551V25.7102H54.8349V26.3551H54.19ZM54.8349 26.3551V25.7102H55.4798V26.3551H54.8349ZM54.8349 25.7102V25.0653H55.4798V25.7102H54.8349ZM55.4798 25.7102V25.0653H56.1247V25.7102H55.4798ZM55.4798 25.0653V24.4204H56.1247V25.0653H55.4798ZM55.4798 24.4204V23.7755H56.1247V24.4204H55.4798ZM54.8349 24.4204V23.7755H55.4798V24.4204H54.8349ZM54.8349 25.0653V24.4204H55.4798V25.0653H54.8349ZM54.19 25.0653V24.4204H54.8349V25.0653H54.19ZM54.19 24.4204V23.7755H54.8349V24.4204H54.19ZM53.5451 24.4204V23.7755H54.19V24.4204H53.5451ZM56.1247 24.4204V23.7755H56.7696V24.4204H56.1247ZM56.1247 23.7755V23.1306H56.7696V23.7755H56.1247ZM56.1247 23.1306V22.4857H56.7696V23.1306H56.1247ZM56.1247 22.4857V21.8408H56.7696V22.4857H56.1247ZM56.1247 21.8408V21.1959H56.7696V21.8408H56.1247ZM56.1247 21.1959V20.5511H56.7696V21.1959H56.1247ZM56.1247 20.5511V19.9062H56.7696V20.5511H56.1247ZM56.1247 19.9062V19.2613H56.7696V19.9062H56.1247ZM56.1247 19.2613V18.6164H56.7696V19.2613H56.1247ZM56.1247 18.6164V17.9715H56.7696V18.6164H56.1247ZM55.4798 18.6164V17.9715H56.1247V18.6164H55.4798ZM55.4798 17.9715V17.3266H56.1247V17.9715H55.4798ZM56.1247 17.9715V17.3266H56.7696V17.9715H56.1247ZM54.8349 17.9715V17.3266H55.4798V17.9715H54.8349ZM54.19 17.9715V17.3266H54.8349V17.9715H54.19ZM53.5451 17.9715V17.3266H54.19V17.9715H53.5451ZM52.9002 17.9715V17.3266H53.5451V17.9715H52.9002ZM53.5451 18.6164V17.9715H54.19V18.6164H53.5451ZM53.5451 19.2613V18.6164H54.19V19.2613H53.5451ZM53.5451 19.9062V19.2613H54.19V19.9062H53.5451ZM53.5451 20.5511V19.9062H54.19V20.5511H53.5451ZM53.5451 21.1959V20.5511H54.19V21.1959H53.5451ZM53.5451 21.8408V21.1959H54.19V21.8408H53.5451ZM53.5451 22.4857V21.8408H54.19V22.4857H53.5451ZM53.5451 23.1306V22.4857H54.19V23.1306H53.5451ZM53.5451 23.7755V23.1306H54.19V23.7755H53.5451ZM54.19 23.7755V23.1306H54.8349V23.7755H54.19ZM54.8349 23.7755V23.1306H55.4798V23.7755H54.8349ZM55.4798 23.7755V23.1306H56.1247V23.7755H55.4798ZM55.4798 23.1306V22.4857H56.1247V23.1306H55.4798ZM55.4798 22.4857V21.8408H56.1247V22.4857H55.4798ZM55.4798 21.8408V21.1959H56.1247V21.8408H55.4798ZM55.4798 21.1959V20.5511H56.1247V21.1959H55.4798ZM55.4798 20.5511V19.9062H56.1247V20.5511H55.4798ZM55.4798 19.9062V19.2613H56.1247V19.9062H55.4798ZM55.4798 19.2613V18.6164H56.1247V19.2613H55.4798ZM54.8349 18.6164V17.9715H55.4798V18.6164H54.8349ZM54.19 18.6164V17.9715H54.8349V18.6164H54.19ZM54.19 19.2613V18.6164H54.8349V19.2613H54.19ZM54.19 19.9062V19.2613H54.8349V19.9062H54.19ZM54.19 20.5511V19.9062H54.8349V20.5511H54.19ZM54.19 21.1959V20.5511H54.8349V21.1959H54.19ZM54.8349 21.1959V20.5511H55.4798V21.1959H54.8349ZM54.8349 21.8408V21.1959H55.4798V21.8408H54.8349ZM54.8349 22.4857V21.8408H55.4798V22.4857H54.8349ZM54.8349 23.1306V22.4857H55.4798V23.1306H54.8349ZM54.19 23.1306V22.4857H54.8349V23.1306H54.19ZM54.19 22.4857V21.8408H54.8349V22.4857H54.19ZM54.19 21.8408V21.1959H54.8349V21.8408H54.19ZM54.8349 19.9062V19.2613H55.4798V19.9062H54.8349ZM54.8349 19.2613V18.6164H55.4798V19.2613H54.8349ZM54.8349 20.5511V19.9062H55.4798V20.5511H54.8349ZM49.0309 18.6164V17.9715H49.6758V18.6164H49.0309ZM48.386 18.6164V17.9715H49.0309V18.6164H48.386ZM47.7411 18.6164V17.9715H48.386V18.6164H47.7411ZM47.0962 18.6164V17.9715H47.7411V18.6164H47.0962ZM46.4513 18.6164V17.9715H47.0962V18.6164H46.4513ZM46.4513 17.9715V17.3266H47.0962V17.9715H46.4513ZM47.0962 17.9715V17.3266H47.7411V17.9715H47.0962ZM47.7411 17.9715V17.3266H48.386V17.9715H47.7411ZM48.386 17.9715V17.3266H49.0309V17.9715H48.386ZM49.0309 17.9715V17.3266H49.6758V17.9715H49.0309ZM49.6758 17.9715V17.3266H50.3207V17.9715H49.6758ZM49.6758 17.3266V16.6817H50.3207V17.3266H49.6758ZM49.0309 17.3266V16.6817H49.6758V17.3266H49.0309ZM48.386 17.3266V16.6817H49.0309V17.3266H48.386ZM47.7411 17.3266V16.6817H48.386V17.3266H47.7411ZM47.7411 16.6817V16.0368H48.386V16.6817H47.7411ZM47.0962 16.6817V16.0368H47.7411V16.6817H47.0962ZM47.0962 17.3266V16.6817H47.7411V17.3266H47.0962ZM47.7411 16.0368V15.3919H48.386V16.0368H47.7411ZM48.386 16.0368V15.3919H49.0309V16.0368H48.386ZM48.386 16.6817V16.0368H49.0309V16.6817H48.386ZM49.0309 16.6817V16.0368H49.6758V16.6817H49.0309ZM49.0309 16.0368V15.3919H49.6758V16.0368H49.0309ZM49.0309 15.3919V14.747H49.6758V15.3919H49.0309ZM49.6758 15.3919V14.747H50.3207V15.3919H49.6758ZM50.3207 15.3919V14.747H50.9656V15.3919H50.3207ZM50.9656 15.3919V14.747H51.6105V15.3919H50.9656ZM51.6105 15.3919V14.747H52.2554V15.3919H51.6105ZM52.2554 15.3919V14.747H52.9002V15.3919H52.2554ZM52.9002 15.3919V14.747H53.5451V15.3919H52.9002ZM53.5451 15.3919V14.747H54.19V15.3919H53.5451ZM52.9002 16.0368V15.3919H53.5451V16.0368H52.9002ZM52.2554 16.0368V15.3919H52.9002V16.0368H52.2554ZM51.6105 16.0368V15.3919H52.2554V16.0368H51.6105ZM50.9656 16.0368V15.3919H51.6105V16.0368H50.9656ZM50.3207 16.0368V15.3919H50.9656V16.0368H50.3207ZM49.6758 16.0368V15.3919H50.3207V16.0368H49.6758ZM49.6758 16.6817V16.0368H50.3207V16.6817H49.6758ZM50.3207 16.6817V16.0368H50.9656V16.6817H50.3207ZM50.9656 16.6817V16.0368H51.6105V16.6817H50.9656ZM51.6105 16.6817V16.0368H52.2554V16.6817H51.6105ZM52.2554 16.6817V16.0368H52.9002V16.6817H52.2554ZM52.9002 16.6817V16.0368H53.5451V16.6817H52.9002ZM53.5451 16.0368V15.3919H54.19V16.0368H53.5451ZM54.19 16.0368V15.3919H54.8349V16.0368H54.19ZM54.8349 16.0368V15.3919H55.4798V16.0368H54.8349ZM54.8349 16.6817V16.0368H55.4798V16.6817H54.8349ZM55.4798 16.6817V16.0368H56.1247V16.6817H55.4798ZM55.4798 17.3266V16.6817H56.1247V17.3266H55.4798ZM54.8349 17.3266V16.6817H55.4798V17.3266H54.8349ZM54.19 17.3266V16.6817H54.8349V17.3266H54.19ZM53.5451 17.3266V16.6817H54.19V17.3266H53.5451ZM52.9002 17.3266V16.6817H53.5451V17.3266H52.9002ZM52.2554 17.3266V16.6817H52.9002V17.3266H52.2554ZM51.6105 17.3266V16.6817H52.2554V17.3266H51.6105ZM50.9656 17.3266V16.6817H51.6105V17.3266H50.9656ZM50.3207 17.3266V16.6817H50.9656V17.3266H50.3207ZM53.5451 16.6817V16.0368H54.19V16.6817H53.5451ZM54.19 16.6817V16.0368H54.8349V16.6817H54.19ZM47.0962 22.4857V21.8408H47.7411V22.4857H47.0962ZM47.7411 22.4857V21.8408H48.386V22.4857H47.7411ZM48.386 22.4857V21.8408H49.0309V22.4857H48.386ZM49.0309 22.4857V21.8408H49.6758V22.4857H49.0309ZM47.7411 21.8408V21.1959H48.386V21.8408H47.7411ZM48.386 21.8408V21.1959H49.0309V21.8408H48.386ZM49.6758 21.8408V21.1959H50.3207V21.8408H49.6758ZM50.3207 21.8408V21.1959H50.9656V21.8408H50.3207ZM50.9656 21.8408V21.1959H51.6105V21.8408H50.9656ZM51.6105 21.8408V21.1959H52.2554V21.8408H51.6105ZM52.2554 21.8408V21.1959H52.9002V21.8408H52.2554ZM52.9002 21.8408V21.1959H53.5451V21.8408H52.9002ZM49.0309 21.8408V21.1959H49.6758V21.8408H49.0309ZM47.0962 21.8408V21.1959H47.7411V21.8408H47.0962ZM47.7411 21.1959V20.5511H48.386V21.1959H47.7411ZM48.386 21.1959V20.5511H49.0309V21.1959H48.386ZM49.0309 21.1959V20.5511H49.6758V21.1959H49.0309ZM49.6758 21.1959V20.5511H50.3207V21.1959H49.6758ZM50.3207 21.1959V20.5511H50.9656V21.1959H50.3207ZM50.9656 21.1959V20.5511H51.6105V21.1959H50.9656ZM51.6105 21.1959V20.5511H52.2554V21.1959H51.6105ZM52.2554 21.1959V20.5511H52.9002V21.1959H52.2554ZM52.9002 21.1959V20.5511H53.5451V21.1959H52.9002ZM52.9002 20.5511V19.9062H53.5451V20.5511H52.9002ZM52.2554 20.5511V19.9062H52.9002V20.5511H52.2554ZM51.6105 20.5511V19.9062H52.2554V20.5511H51.6105ZM50.3207 20.5511V19.9062H50.9656V20.5511H50.3207ZM49.6758 20.5511V19.9062H50.3207V20.5511H49.6758ZM49.0309 20.5511V19.9062H49.6758V20.5511H49.0309ZM50.9656 20.5511V19.9062H51.6105V20.5511H50.9656ZM56.7696 24.4204V25.0653H56.1247V24.4204H56.7696ZM56.7696 25.0653V25.7102H56.1247V25.0653H56.7696ZM56.7696 25.7102V26.3551H56.1247V25.7102H56.7696ZM56.7696 26.3551V27H56.1247V26.3551H56.7696ZM56.1247 26.3551V27H55.4798V26.3551H56.1247ZM56.1247 25.7102V26.3551H55.4798V25.7102H56.1247ZM55.4798 26.3551V27H54.8349V26.3551H55.4798ZM54.8349 26.3551V27H54.19V26.3551H54.8349ZM54.19 26.3551V27H53.5451V26.3551H54.19ZM53.5451 23.7755V24.4204H52.9002V23.7755H53.5451ZM49.0309 26.3551V27H48.386V26.3551H49.0309ZM50.3207 21.8408V22.4857H49.6758V21.8408H50.3207ZM66.4613 13.4572V14.1021H65.8164V13.4572H66.4613ZM66.4613 14.1021V14.747H65.8164V14.1021H66.4613ZM66.4613 14.747V15.3919H65.8164V14.747H66.4613ZM67.1062 14.747V15.3919H66.4613V14.747H67.1062ZM67.7511 14.747V15.3919H67.1062V14.747H67.7511ZM68.396 14.747V15.3919H67.7511V14.747H68.396ZM69.0409 14.747V15.3919H68.396V14.747H69.0409ZM69.0409 14.1021V14.747H68.396V14.1021H69.0409ZM69.6858 14.1021V14.747H69.0409V14.1021H69.6858ZM69.6858 13.4572V14.1021H69.0409V13.4572H69.6858ZM70.3307 13.4572V14.1021H69.6858V13.4572H70.3307ZM70.9756 13.4572V14.1021H70.3307V13.4572H70.9756ZM71.6205 13.4572V14.1021H70.9756V13.4572H71.6205ZM72.2654 13.4572V14.1021H71.6205V13.4572H72.2654ZM72.9102 13.4572V14.1021H72.2654V13.4572H72.9102ZM72.9102 14.1021V14.747H72.2654V14.1021H72.9102ZM73.5551 14.1021V14.747H72.9102V14.1021H73.5551ZM73.5551 14.747V15.3919H72.9102V14.747H73.5551ZM73.5551 15.3919V16.0368H72.9102V15.3919H73.5551ZM73.5551 16.0368V16.6817H72.9102V16.0368H73.5551ZM73.5551 16.6817V17.3266H72.9102V16.6817H73.5551ZM72.9102 16.6817V17.3266H72.2654V16.6817H72.9102ZM72.9102 17.3266V17.9715H72.2654V17.3266H72.9102ZM72.2654 17.3266V17.9715H71.6205V17.3266H72.2654ZM71.6205 17.3266V17.9715H70.9756V17.3266H71.6205ZM70.9756 17.3266V17.9715H70.3307V17.3266H70.9756ZM70.3307 17.3266V17.9715H69.6858V17.3266H70.3307ZM69.6858 17.3266V17.9715H69.0409V17.3266H69.6858ZM69.6858 17.9715V18.6164H69.0409V17.9715H69.6858ZM69.6858 18.6164V19.2613H69.0409V18.6164H69.6858ZM69.6858 19.2613V19.9062H69.0409V19.2613H69.6858ZM70.3307 19.2613V19.9062H69.6858V19.2613H70.3307ZM70.9756 19.2613V19.9062H70.3307V19.2613H70.9756ZM71.6205 19.2613V19.9062H70.9756V19.2613H71.6205ZM72.2654 19.2613V19.9062H71.6205V19.2613H72.2654ZM72.2654 18.6164V19.2613H71.6205V18.6164H72.2654ZM72.9102 18.6164V19.2613H72.2654V18.6164H72.9102ZM72.9102 17.9715V18.6164H72.2654V17.9715H72.9102ZM72.2654 17.9715V18.6164H71.6205V17.9715H72.2654ZM71.6205 17.9715V18.6164H70.9756V17.9715H71.6205ZM70.9756 17.9715V18.6164H70.3307V17.9715H70.9756ZM70.3307 17.9715V18.6164H69.6858V17.9715H70.3307ZM70.3307 18.6164V19.2613H69.6858V18.6164H70.3307ZM70.9756 18.6164V19.2613H70.3307V18.6164H70.9756ZM71.6205 18.6164V19.2613H70.9756V18.6164H71.6205ZM73.5551 17.3266V17.9715H72.9102V17.3266H73.5551ZM73.5551 17.9715V18.6164H72.9102V17.9715H73.5551ZM73.5551 18.6164V19.2613H72.9102V18.6164H73.5551ZM73.5551 19.2613V19.9062H72.9102V19.2613H73.5551ZM73.5551 19.9062V20.5511H72.9102V19.9062H73.5551ZM72.9102 19.9062V20.5511H72.2654V19.9062H72.9102ZM72.9102 19.2613V19.9062H72.2654V19.2613H72.9102ZM76.1347 19.9062V20.5511H75.4898V19.9062H76.1347ZM75.4898 19.9062V20.5511H74.8449V19.9062H75.4898ZM74.8449 19.9062V20.5511H74.2V19.9062H74.8449ZM74.2 19.9062V20.5511H73.5551V19.9062H74.2ZM74.2 19.2613V19.9062H73.5551V19.2613H74.2ZM74.8449 19.2613V19.9062H74.2V19.2613H74.8449ZM75.4898 19.2613V19.9062H74.8449V19.2613H75.4898ZM74.8449 18.6164V19.2613H74.2V18.6164H74.8449ZM74.8449 17.9715V18.6164H74.2V17.9715H74.8449ZM74.8449 17.3266V17.9715H74.2V17.3266H74.8449ZM74.2 17.9715V18.6164H73.5551V17.9715H74.2ZM74.2 18.6164V19.2613H73.5551V18.6164H74.2ZM74.2 17.3266V17.9715H73.5551V17.3266H74.2ZM75.4898 17.3266V17.9715H74.8449V17.3266H75.4898ZM75.4898 16.6817V17.3266H74.8449V16.6817H75.4898ZM76.1347 16.6817V17.3266H75.4898V16.6817H76.1347ZM76.1347 16.0368V16.6817H75.4898V16.0368H76.1347ZM76.1347 15.3919V16.0368H75.4898V15.3919H76.1347ZM76.1347 14.747V15.3919H75.4898V14.747H76.1347ZM76.1347 14.1021V14.747H75.4898V14.1021H76.1347ZM76.1347 13.4572V14.1021H75.4898V13.4572H76.1347ZM75.4898 13.4572V14.1021H74.8449V13.4572H75.4898ZM75.4898 12.8123V13.4572H74.8449V12.8123H75.4898ZM75.4898 12.1674V12.8123H74.8449V12.1674H75.4898ZM74.8449 12.1674V12.8123H74.2V12.1674H74.8449ZM74.2 12.1674V12.8123H73.5551V12.1674H74.2ZM74.2 11.5225V12.1674H73.5551V11.5225H74.2ZM74.8449 11.5225V12.1674H74.2V11.5225H74.8449ZM73.5551 12.1674V12.8123H72.9102V12.1674H73.5551ZM73.5551 11.5225V12.1674H72.9102V11.5225H73.5551ZM73.5551 10.8776V11.5225H72.9102V10.8776H73.5551ZM72.9102 10.8776V11.5225H72.2654V10.8776H72.9102ZM72.2654 10.8776V11.5225H71.6205V10.8776H72.2654ZM71.6205 10.8776V11.5225H70.9756V10.8776H71.6205ZM70.9756 10.8776V11.5225H70.3307V10.8776H70.9756ZM70.3307 10.8776V11.5225H69.6858V10.8776H70.3307ZM69.6858 10.8776V11.5225H69.0409V10.8776H69.6858ZM69.0409 10.8776V11.5225H68.396V10.8776H69.0409ZM69.0409 11.5225V12.1674H68.396V11.5225H69.0409ZM68.396 11.5225V12.1674H67.7511V11.5225H68.396ZM67.7511 11.5225V12.1674H67.1062V11.5225H67.7511ZM67.7511 12.1674V12.8123H67.1062V12.1674H67.7511ZM67.1062 12.1674V12.8123H66.4613V12.1674H67.1062ZM67.1062 12.8123V13.4572H66.4613V12.8123H67.1062ZM67.1062 13.4572V14.1021H66.4613V13.4572H67.1062ZM67.1062 14.1021V14.747H66.4613V14.1021H67.1062ZM67.7511 14.1021V14.747H67.1062V14.1021H67.7511ZM68.396 14.1021V14.747H67.7511V14.1021H68.396ZM68.396 13.4572V14.1021H67.7511V13.4572H68.396ZM69.0409 13.4572V14.1021H68.396V13.4572H69.0409ZM68.396 12.8123V13.4572H67.7511V12.8123H68.396ZM67.7511 12.8123V13.4572H67.1062V12.8123H67.7511ZM67.7511 13.4572V14.1021H67.1062V13.4572H67.7511ZM69.0409 12.8123V13.4572H68.396V12.8123H69.0409ZM68.396 12.1674V12.8123H67.7511V12.1674H68.396ZM69.0409 12.1674V12.8123H68.396V12.1674H69.0409ZM69.6858 12.1674V12.8123H69.0409V12.1674H69.6858ZM70.3307 12.1674V12.8123H69.6858V12.1674H70.3307ZM70.3307 12.8123V13.4572H69.6858V12.8123H70.3307ZM69.6858 12.8123V13.4572H69.0409V12.8123H69.6858ZM70.9756 12.8123V13.4572H70.3307V12.8123H70.9756ZM71.6205 12.8123V13.4572H70.9756V12.8123H71.6205ZM72.2654 12.8123V13.4572H71.6205V12.8123H72.2654ZM72.9102 12.8123V13.4572H72.2654V12.8123H72.9102ZM73.5551 12.8123V13.4572H72.9102V12.8123H73.5551ZM74.2 12.8123V13.4572H73.5551V12.8123H74.2ZM74.8449 12.8123V13.4572H74.2V12.8123H74.8449ZM74.8449 13.4572V14.1021H74.2V13.4572H74.8449ZM74.2 13.4572V14.1021H73.5551V13.4572H74.2ZM74.2 14.1021V14.747H73.5551V14.1021H74.2ZM73.5551 13.4572V14.1021H72.9102V13.4572H73.5551ZM74.8449 14.1021V14.747H74.2V14.1021H74.8449ZM75.4898 14.1021V14.747H74.8449V14.1021H75.4898ZM75.4898 14.747V15.3919H74.8449V14.747H75.4898ZM75.4898 15.3919V16.0368H74.8449V15.3919H75.4898ZM75.4898 16.0368V16.6817H74.8449V16.0368H75.4898ZM74.8449 16.0368V16.6817H74.2V16.0368H74.8449ZM74.8449 16.6817V17.3266H74.2V16.6817H74.8449ZM74.8449 15.3919V16.0368H74.2V15.3919H74.8449ZM74.8449 14.747V15.3919H74.2V14.747H74.8449ZM74.2 14.747V15.3919H73.5551V14.747H74.2ZM74.2 15.3919V16.0368H73.5551V15.3919H74.2ZM74.2 16.0368V16.6817H73.5551V16.0368H74.2ZM74.2 16.6817V17.3266H73.5551V16.6817H74.2ZM72.9102 12.1674V12.8123H72.2654V12.1674H72.9102ZM72.2654 12.1674V12.8123H71.6205V12.1674H72.2654ZM71.6205 12.1674V12.8123H70.9756V12.1674H71.6205ZM70.9756 12.1674V12.8123H70.3307V12.1674H70.9756ZM70.3307 11.5225V12.1674H69.6858V11.5225H70.3307ZM69.6858 11.5225V12.1674H69.0409V11.5225H69.6858ZM70.9756 11.5225V12.1674H70.3307V11.5225H70.9756ZM71.6205 11.5225V12.1674H70.9756V11.5225H71.6205ZM72.2654 11.5225V12.1674H71.6205V11.5225H72.2654ZM72.9102 11.5225V12.1674H72.2654V11.5225H72.9102ZM66.4613 22.4857V23.1306H65.8164V22.4857H66.4613ZM67.1062 22.4857V23.1306H66.4613V22.4857H67.1062ZM67.7511 22.4857V23.1306H67.1062V22.4857H67.7511ZM68.396 22.4857V23.1306H67.7511V22.4857H68.396ZM69.0409 22.4857V23.1306H68.396V22.4857H69.0409ZM69.0409 23.1306V23.7755H68.396V23.1306H69.0409ZM69.6858 23.1306V23.7755H69.0409V23.1306H69.6858ZM66.4613 23.1306V23.7755H65.8164V23.1306H66.4613ZM66.4613 23.7755V24.4204H65.8164V23.7755H66.4613ZM67.1062 23.7755V24.4204H66.4613V23.7755H67.1062ZM67.7511 23.7755V24.4204H67.1062V23.7755H67.7511ZM68.396 23.7755V24.4204H67.7511V23.7755H68.396ZM69.0409 23.7755V24.4204H68.396V23.7755H69.0409ZM69.6858 23.7755V24.4204H69.0409V23.7755H69.6858ZM68.396 23.1306V23.7755H67.7511V23.1306H68.396ZM67.7511 23.1306V23.7755H67.1062V23.1306H67.7511ZM67.1062 23.1306V23.7755H66.4613V23.1306H67.1062ZM67.7511 24.4204V25.0653H67.1062V24.4204H67.7511ZM67.1062 24.4204V25.0653H66.4613V24.4204H67.1062ZM67.1062 25.0653V25.7102H66.4613V25.0653H67.1062ZM67.7511 25.0653V25.7102H67.1062V25.0653H67.7511ZM67.7511 25.7102V26.3551H67.1062V25.7102H67.7511ZM68.396 25.7102V26.3551H67.7511V25.7102H68.396ZM69.0409 25.7102V26.3551H68.396V25.7102H69.0409ZM69.0409 26.3551V27H68.396V26.3551H69.0409ZM69.6858 26.3551V27H69.0409V26.3551H69.6858ZM69.6858 25.7102V26.3551H69.0409V25.7102H69.6858ZM70.3307 25.7102V26.3551H69.6858V25.7102H70.3307ZM70.3307 25.0653V25.7102H69.6858V25.0653H70.3307ZM70.3307 24.4204V25.0653H69.6858V24.4204H70.3307ZM69.6858 24.4204V25.0653H69.0409V24.4204H69.6858ZM69.0409 24.4204V25.0653H68.396V24.4204H69.0409ZM68.396 24.4204V25.0653H67.7511V24.4204H68.396ZM68.396 25.0653V25.7102H67.7511V25.0653H68.396ZM69.0409 25.0653V25.7102H68.396V25.0653H69.0409ZM69.6858 25.0653V25.7102H69.0409V25.0653H69.6858ZM70.3307 26.3551V27H69.6858V26.3551H70.3307ZM70.9756 26.3551V27H70.3307V26.3551H70.9756ZM71.6205 26.3551V27H70.9756V26.3551H71.6205ZM72.2654 26.3551V27H71.6205V26.3551H72.2654ZM72.9102 26.3551V27H72.2654V26.3551H72.9102ZM73.5551 26.3551V27H72.9102V26.3551H73.5551ZM73.5551 25.7102V26.3551H72.9102V25.7102H73.5551ZM74.2 25.7102V26.3551H73.5551V25.7102H74.2ZM74.8449 25.7102V26.3551H74.2V25.7102H74.8449ZM74.8449 25.0653V25.7102H74.2V25.0653H74.8449ZM75.4898 25.0653V25.7102H74.8449V25.0653H75.4898ZM75.4898 24.4204V25.0653H74.8449V24.4204H75.4898ZM75.4898 23.7755V24.4204H74.8449V23.7755H75.4898ZM76.1347 23.7755V24.4204H75.4898V23.7755H76.1347ZM76.1347 23.1306V23.7755H75.4898V23.1306H76.1347ZM76.1347 22.4857V23.1306H75.4898V22.4857H76.1347ZM76.1347 21.8408V22.4857H75.4898V21.8408H76.1347ZM76.1347 21.1959V21.8408H75.4898V21.1959H76.1347ZM76.1347 20.5511V21.1959H75.4898V20.5511H76.1347ZM75.4898 20.5511V21.1959H74.8449V20.5511H75.4898ZM74.8449 20.5511V21.1959H74.2V20.5511H74.8449ZM74.8449 21.1959V21.8408H74.2V21.1959H74.8449ZM74.2 21.1959V21.8408H73.5551V21.1959H74.2ZM74.2 20.5511V21.1959H73.5551V20.5511H74.2ZM73.5551 20.5511V21.1959H72.9102V20.5511H73.5551ZM73.5551 21.1959V21.8408H72.9102V21.1959H73.5551ZM73.5551 21.8408V22.4857H72.9102V21.8408H73.5551ZM73.5551 22.4857V23.1306H72.9102V22.4857H73.5551ZM73.5551 23.1306V23.7755H72.9102V23.1306H73.5551ZM72.9102 23.1306V23.7755H72.2654V23.1306H72.9102ZM72.9102 23.7755V24.4204H72.2654V23.7755H72.9102ZM72.2654 23.7755V24.4204H71.6205V23.7755H72.2654ZM71.6205 23.7755V24.4204H70.9756V23.7755H71.6205ZM70.9756 23.7755V24.4204H70.3307V23.7755H70.9756ZM70.3307 23.7755V24.4204H69.6858V23.7755H70.3307ZM70.9756 24.4204V25.0653H70.3307V24.4204H70.9756ZM70.9756 25.0653V25.7102H70.3307V25.0653H70.9756ZM71.6205 25.0653V25.7102H70.9756V25.0653H71.6205ZM71.6205 25.7102V26.3551H70.9756V25.7102H71.6205ZM72.2654 25.7102V26.3551H71.6205V25.7102H72.2654ZM72.9102 25.7102V26.3551H72.2654V25.7102H72.9102ZM70.9756 25.7102V26.3551H70.3307V25.7102H70.9756ZM71.6205 24.4204V25.0653H70.9756V24.4204H71.6205ZM72.2654 24.4204V25.0653H71.6205V24.4204H72.2654ZM72.9102 24.4204V25.0653H72.2654V24.4204H72.9102ZM73.5551 25.0653V25.7102H72.9102V25.0653H73.5551ZM74.2 25.0653V25.7102H73.5551V25.0653H74.2ZM72.9102 25.0653V25.7102H72.2654V25.0653H72.9102ZM72.2654 25.0653V25.7102H71.6205V25.0653H72.2654ZM73.5551 24.4204V25.0653H72.9102V24.4204H73.5551ZM74.2 24.4204V25.0653H73.5551V24.4204H74.2ZM74.8449 24.4204V25.0653H74.2V24.4204H74.8449ZM74.2 23.7755V24.4204H73.5551V23.7755H74.2ZM73.5551 23.7755V24.4204H72.9102V23.7755H73.5551ZM74.8449 23.1306V23.7755H74.2V23.1306H74.8449ZM75.4898 22.4857V23.1306H74.8449V22.4857H75.4898ZM75.4898 21.8408V22.4857H74.8449V21.8408H75.4898ZM75.4898 21.1959V21.8408H74.8449V21.1959H75.4898ZM74.8449 21.8408V22.4857H74.2V21.8408H74.8449ZM74.2 22.4857V23.1306H73.5551V22.4857H74.2ZM74.2 23.1306V23.7755H73.5551V23.1306H74.2ZM74.8449 22.4857V23.1306H74.2V22.4857H74.8449ZM75.4898 23.1306V23.7755H74.8449V23.1306H75.4898ZM74.8449 23.7755V24.4204H74.2V23.7755H74.8449ZM74.2 21.8408V22.4857H73.5551V21.8408H74.2Z" fill="black"/>
</svg>
