<svg width="76" height="47" viewBox="0 0 76 47" fill="none" xmlns="http://www.w3.org/2000/svg">
<path d="M2.31256 19.1625V19.9333H1.5417V19.1625H2.31256ZM2.31256 18.3916V19.1625H1.5417V18.3916H2.31256ZM2.31256 17.6208V18.3916H1.5417V17.6208H2.31256ZM2.31256 16.8499V17.6208H1.5417V16.8499H2.31256ZM2.31256 16.0791V16.8499H1.5417V16.0791H2.31256ZM2.31256 15.3082V16.0791H1.5417V15.3082H2.31256ZM2.31256 14.5374V15.3082H1.5417V14.5374H2.31256ZM2.31256 13.7665V14.5374H1.5417V13.7665H2.31256ZM2.31256 12.9957V13.7665H1.5417V12.9957H2.31256ZM2.31256 12.2248V12.9957H1.5417V12.2248H2.31256ZM2.31256 11.454V12.2248H1.5417V11.454H2.31256ZM2.31256 10.6831V11.454H1.5417V10.6831H2.31256ZM2.31256 9.91227V10.6831H1.5417V9.91227H2.31256ZM2.31256 9.14142V9.91227H1.5417V9.14142H2.31256ZM2.31256 8.37057V9.14142H1.5417V8.37057H2.31256ZM3.08341 8.37057V9.14142H2.31256V8.37057H3.08341ZM3.08341 9.14142V9.91227H2.31256V9.14142H3.08341ZM3.08341 9.91227V10.6831H2.31256V9.91227H3.08341ZM3.08341 10.6831V11.454H2.31256V10.6831H3.08341ZM3.08341 11.454V12.2248H2.31256V11.454H3.08341ZM3.08341 12.2248V12.9957H2.31256V12.2248H3.08341ZM3.08341 12.9957V13.7665H2.31256V12.9957H3.08341ZM3.85426 13.7665V14.5374H3.08341V13.7665H3.85426ZM3.85426 14.5374V15.3082H3.08341V14.5374H3.85426ZM3.85426 15.3082V16.0791H3.08341V15.3082H3.85426ZM3.85426 16.0791V16.8499H3.08341V16.0791H3.85426ZM3.85426 16.8499V17.6208H3.08341V16.8499H3.85426ZM3.85426 17.6208V18.3916H3.08341V17.6208H3.85426ZM3.85426 18.3916V19.1625H3.08341V18.3916H3.85426ZM3.85426 19.1625V19.9333H3.08341V19.1625H3.85426ZM4.62511 19.1625V19.9333H3.85426V19.1625H4.62511ZM5.39596 19.1625V19.9333H4.62511V19.1625H5.39596ZM5.39596 18.3916V19.1625H4.62511V18.3916H5.39596ZM5.39596 17.6208V18.3916H4.62511V17.6208H5.39596ZM5.39596 16.8499V17.6208H4.62511V16.8499H5.39596ZM5.39596 16.0791V16.8499H4.62511V16.0791H5.39596ZM5.39596 15.3082V16.0791H4.62511V15.3082H5.39596ZM5.39596 14.5374V15.3082H4.62511V14.5374H5.39596ZM5.39596 13.7665V14.5374H4.62511V13.7665H5.39596ZM4.62511 13.7665V14.5374H3.85426V13.7665H4.62511ZM4.62511 12.9957V13.7665H3.85426V12.9957H4.62511ZM4.62511 14.5374V15.3082H3.85426V14.5374H4.62511ZM4.62511 15.3082V16.0791H3.85426V15.3082H4.62511ZM4.62511 16.0791V16.8499H3.85426V16.0791H4.62511ZM4.62511 16.8499V17.6208H3.85426V16.8499H4.62511ZM4.62511 17.6208V18.3916H3.85426V17.6208H4.62511ZM4.62511 18.3916V19.1625H3.85426V18.3916H4.62511ZM3.08341 19.1625V19.9333H2.31256V19.1625H3.08341ZM3.08341 18.3916V19.1625H2.31256V18.3916H3.08341ZM3.08341 17.6208V18.3916H2.31256V17.6208H3.08341ZM3.08341 16.8499V17.6208H2.31256V16.8499H3.08341ZM3.08341 16.0791V16.8499H2.31256V16.0791H3.08341ZM3.08341 15.3082V16.0791H2.31256V15.3082H3.08341ZM3.08341 14.5374V15.3082H2.31256V14.5374H3.08341ZM3.08341 13.7665V14.5374H2.31256V13.7665H3.08341ZM2.31256 0.662046V1.4329H1.5417V0.662046H2.31256ZM2.31256 1.4329V2.20375H1.5417V1.4329H2.31256ZM2.31256 2.20375V2.9746H1.5417V2.20375H2.31256ZM2.31256 2.9746V3.74546H1.5417V2.9746H2.31256ZM2.31256 3.74546V4.51631H1.5417V3.74546H2.31256ZM2.31256 4.51631V5.28716H1.5417V4.51631H2.31256ZM2.31256 5.28716V6.05801H1.5417V5.28716H2.31256ZM2.31256 6.05801V6.82886H1.5417V6.05801H2.31256ZM2.31256 6.82886V7.59972H1.5417V6.82886H2.31256ZM2.31256 7.59972V8.37057H1.5417V7.59972H2.31256ZM4.62511 0.662046V1.4329H3.85426V0.662046H4.62511ZM4.62511 1.4329V2.20375H3.85426V1.4329H4.62511ZM4.62511 2.20375V2.9746H3.85426V2.20375H4.62511ZM4.62511 2.9746V3.74546H3.85426V2.9746H4.62511ZM4.62511 3.74546V4.51631H3.85426V3.74546H4.62511ZM4.62511 4.51631V5.28716H3.85426V4.51631H4.62511ZM4.62511 6.05801V6.82886H3.85426V6.05801H4.62511ZM4.62511 6.82886V7.59972H3.85426V6.82886H4.62511ZM4.62511 7.59972V8.37057H3.85426V7.59972H4.62511ZM4.62511 8.37057V9.14142H3.85426V8.37057H4.62511ZM4.62511 9.14142V9.91227H3.85426V9.14142H4.62511ZM4.62511 9.91227V10.6831H3.85426V9.91227H4.62511ZM4.62511 10.6831V11.454H3.85426V10.6831H4.62511ZM5.39596 11.454V12.2248H4.62511V11.454H5.39596ZM5.39596 12.2248V12.9957H4.62511V12.2248H5.39596ZM5.39596 12.9957V13.7665H4.62511V12.9957H5.39596ZM5.39596 10.6831V11.454H4.62511V10.6831H5.39596ZM5.39596 9.91227V10.6831H4.62511V9.91227H5.39596ZM5.39596 9.14142V9.91227H4.62511V9.14142H5.39596ZM5.39596 8.37057V9.14142H4.62511V8.37057H5.39596ZM5.39596 7.59972V8.37057H4.62511V7.59972H5.39596ZM5.39596 6.82886V7.59972H4.62511V6.82886H5.39596ZM5.39596 6.05801V6.82886H4.62511V6.05801H5.39596ZM5.39596 5.28716V6.05801H4.62511V5.28716H5.39596ZM5.39596 4.51631V5.28716H4.62511V4.51631H5.39596ZM5.39596 3.74546V4.51631H4.62511V3.74546H5.39596ZM4.62511 5.28716V6.05801H3.85426V5.28716H4.62511ZM5.39596 2.9746V3.74546H4.62511V2.9746H5.39596ZM5.39596 2.20375V2.9746H4.62511V2.20375H5.39596ZM5.39596 1.4329V2.20375H4.62511V1.4329H5.39596ZM5.39596 0.662046V1.4329H4.62511V0.662046H5.39596ZM3.85426 0.662046V1.4329H3.08341V0.662046H3.85426ZM3.08341 0.662046V1.4329H2.31256V0.662046H3.08341ZM3.08341 1.4329V2.20375H2.31256V1.4329H3.08341ZM3.85426 1.4329V2.20375H3.08341V1.4329H3.85426ZM3.85426 2.20375V2.9746H3.08341V2.20375H3.85426ZM3.85426 2.9746V3.74546H3.08341V2.9746H3.85426ZM3.85426 3.74546V4.51631H3.08341V3.74546H3.85426ZM3.85426 4.51631V5.28716H3.08341V4.51631H3.85426ZM3.85426 5.28716V6.05801H3.08341V5.28716H3.85426ZM3.85426 6.05801V6.82886H3.08341V6.05801H3.85426ZM3.08341 6.82886V7.59972H2.31256V6.82886H3.08341ZM3.08341 7.59972V8.37057H2.31256V7.59972H3.08341ZM3.08341 6.05801V6.82886H2.31256V6.05801H3.08341ZM3.08341 5.28716V6.05801H2.31256V5.28716H3.08341ZM3.08341 4.51631V5.28716H2.31256V4.51631H3.08341ZM3.08341 3.74546V4.51631H2.31256V3.74546H3.08341ZM3.08341 2.9746V3.74546H2.31256V2.9746H3.08341ZM3.08341 2.20375V2.9746H2.31256V2.20375H3.08341ZM3.85426 6.82886V7.59972H3.08341V6.82886H3.85426ZM3.85426 7.59972V8.37057H3.08341V7.59972H3.85426ZM3.85426 8.37057V9.14142H3.08341V8.37057H3.85426ZM3.85426 9.14142V9.91227H3.08341V9.14142H3.85426ZM3.85426 9.91227V10.6831H3.08341V9.91227H3.85426ZM3.85426 10.6831V11.454H3.08341V10.6831H3.85426ZM3.85426 11.454V12.2248H3.08341V11.454H3.85426ZM3.85426 12.2248V12.9957H3.08341V12.2248H3.85426ZM3.85426 12.9957V13.7665H3.08341V12.9957H3.85426ZM4.62511 12.2248V12.9957H3.85426V12.2248H4.62511ZM4.62511 11.454V12.2248H3.85426V11.454H4.62511ZM6.16682 19.1625V19.9333H5.39596V19.1625H6.16682ZM6.93767 19.1625V19.9333H6.16682V19.1625H6.93767ZM6.93767 18.3916V19.1625H6.16682V18.3916H6.93767ZM6.93767 17.6208V18.3916H6.16682V17.6208H6.93767ZM6.93767 16.8499V17.6208H6.16682V16.8499H6.93767ZM6.93767 16.0791V16.8499H6.16682V16.0791H6.93767ZM6.16682 16.0791V16.8499H5.39596V16.0791H6.16682ZM6.16682 16.8499V17.6208H5.39596V16.8499H6.16682ZM6.16682 17.6208V18.3916H5.39596V17.6208H6.16682ZM6.16682 18.3916V19.1625H5.39596V18.3916H6.16682ZM7.70852 16.0791V16.8499H6.93767V16.0791H7.70852ZM8.47937 16.0791V16.8499H7.70852V16.0791H8.47937ZM9.25023 16.0791V16.8499H8.47937V16.0791H9.25023ZM9.25023 18.3916V19.1625H8.47937V18.3916H9.25023ZM8.47937 19.1625V19.9333H7.70852V19.1625H8.47937ZM7.70852 19.1625V19.9333H6.93767V19.1625H7.70852ZM9.25023 19.1625V19.9333H8.47937V19.1625H9.25023ZM8.47937 18.3916V19.1625H7.70852V18.3916H8.47937ZM7.70852 18.3916V19.1625H6.93767V18.3916H7.70852ZM7.70852 17.6208V18.3916H6.93767V17.6208H7.70852ZM8.47937 17.6208V18.3916H7.70852V17.6208H8.47937ZM9.25023 17.6208V18.3916H8.47937V17.6208H9.25023ZM9.25023 16.8499V17.6208H8.47937V16.8499H9.25023ZM8.47937 16.8499V17.6208H7.70852V16.8499H8.47937ZM7.70852 16.8499V17.6208H6.93767V16.8499H7.70852ZM10.0211 19.1625V19.9333H9.25023V19.1625H10.0211ZM10.7919 19.1625V19.9333H10.0211V19.1625H10.7919ZM11.5628 19.1625V19.9333H10.7919V19.1625H11.5628ZM11.5628 18.3916V19.1625H10.7919V18.3916H11.5628ZM10.0211 16.0791V16.8499H9.25023V16.0791H10.0211ZM10.7919 16.0791V16.8499H10.0211V16.0791H10.7919ZM11.5628 16.0791V16.8499H10.7919V16.0791H11.5628ZM11.5628 16.8499V17.6208H10.7919V16.8499H11.5628ZM11.5628 17.6208V18.3916H10.7919V17.6208H11.5628ZM10.7919 17.6208V18.3916H10.0211V17.6208H10.7919ZM10.7919 16.8499V17.6208H10.0211V16.8499H10.7919ZM10.0211 16.8499V17.6208H9.25023V16.8499H10.0211ZM10.0211 17.6208V18.3916H9.25023V17.6208H10.0211ZM10.0211 18.3916V19.1625H9.25023V18.3916H10.0211ZM10.7919 18.3916V19.1625H10.0211V18.3916H10.7919ZM15.4298 19.1625V19.9333H14.659V19.1625H15.4298ZM15.4298 18.3916V19.1625H14.659V18.3916H15.4298ZM15.4298 17.6208V18.3916H14.659V17.6208H15.4298ZM15.4298 16.8499V17.6208H14.659V16.8499H15.4298ZM15.4298 16.0791V16.8499H14.659V16.0791H15.4298ZM15.4298 15.3082V16.0791H14.659V15.3082H15.4298ZM15.4298 14.5374V15.3082H14.659V14.5374H15.4298ZM15.4298 13.7665V14.5374H14.659V13.7665H15.4298ZM15.4298 12.9957V13.7665H14.659V12.9957H15.4298ZM15.4298 12.2248V12.9957H14.659V12.2248H15.4298ZM15.4298 11.454V12.2248H14.659V11.454H15.4298ZM15.4298 10.6831V11.454H14.659V10.6831H15.4298ZM15.4298 9.91227V10.6831H14.659V9.91227H15.4298ZM15.4298 9.14142V9.91227H14.659V9.14142H15.4298ZM15.4298 8.37057V9.14142H14.659V8.37057H15.4298ZM16.2007 8.37057V9.14142H15.4298V8.37057H16.2007ZM16.2007 9.14142V9.91227H15.4298V9.14142H16.2007ZM16.2007 9.91227V10.6831H15.4298V9.91227H16.2007ZM16.2007 10.6831V11.454H15.4298V10.6831H16.2007ZM16.2007 11.454V12.2248H15.4298V11.454H16.2007ZM16.2007 12.2248V12.9957H15.4298V12.2248H16.2007ZM16.2007 12.9957V13.7665H15.4298V12.9957H16.2007ZM16.9715 13.7665V14.5374H16.2007V13.7665H16.9715ZM16.9715 14.5374V15.3082H16.2007V14.5374H16.9715ZM16.9715 15.3082V16.0791H16.2007V15.3082H16.9715ZM16.9715 16.0791V16.8499H16.2007V16.0791H16.9715ZM16.9715 16.8499V17.6208H16.2007V16.8499H16.9715ZM16.9715 17.6208V18.3916H16.2007V17.6208H16.9715ZM16.9715 18.3916V19.1625H16.2007V18.3916H16.9715ZM16.9715 19.1625V19.9333H16.2007V19.1625H16.9715ZM17.7424 19.1625V19.9333H16.9715V19.1625H17.7424ZM18.5132 19.1625V19.9333H17.7424V19.1625H18.5132ZM18.5132 18.3916V19.1625H17.7424V18.3916H18.5132ZM18.5132 17.6208V18.3916H17.7424V17.6208H18.5132ZM18.5132 16.8499V17.6208H17.7424V16.8499H18.5132ZM18.5132 16.0791V16.8499H17.7424V16.0791H18.5132ZM18.5132 15.3082V16.0791H17.7424V15.3082H18.5132ZM18.5132 14.5374V15.3082H17.7424V14.5374H18.5132ZM18.5132 13.7665V14.5374H17.7424V13.7665H18.5132ZM17.7424 13.7665V14.5374H16.9715V13.7665H17.7424ZM17.7424 12.9957V13.7665H16.9715V12.9957H17.7424ZM17.7424 14.5374V15.3082H16.9715V14.5374H17.7424ZM17.7424 15.3082V16.0791H16.9715V15.3082H17.7424ZM17.7424 16.0791V16.8499H16.9715V16.0791H17.7424ZM17.7424 16.8499V17.6208H16.9715V16.8499H17.7424ZM17.7424 17.6208V18.3916H16.9715V17.6208H17.7424ZM17.7424 18.3916V19.1625H16.9715V18.3916H17.7424ZM16.2007 19.1625V19.9333H15.4298V19.1625H16.2007ZM16.2007 18.3916V19.1625H15.4298V18.3916H16.2007ZM16.2007 17.6208V18.3916H15.4298V17.6208H16.2007ZM16.2007 16.8499V17.6208H15.4298V16.8499H16.2007ZM16.2007 16.0791V16.8499H15.4298V16.0791H16.2007ZM16.2007 15.3082V16.0791H15.4298V15.3082H16.2007ZM16.2007 14.5374V15.3082H15.4298V14.5374H16.2007ZM16.2007 13.7665V14.5374H15.4298V13.7665H16.2007ZM15.4298 0.662046V1.4329H14.659V0.662046H15.4298ZM15.4298 1.4329V2.20375H14.659V1.4329H15.4298ZM15.4298 2.20375V2.9746H14.659V2.20375H15.4298ZM15.4298 2.9746V3.74546H14.659V2.9746H15.4298ZM15.4298 3.74546V4.51631H14.659V3.74546H15.4298ZM15.4298 4.51631V5.28716H14.659V4.51631H15.4298ZM15.4298 5.28716V6.05801H14.659V5.28716H15.4298ZM15.4298 6.05801V6.82886H14.659V6.05801H15.4298ZM15.4298 6.82886V7.59972H14.659V6.82886H15.4298ZM15.4298 7.59972V8.37057H14.659V7.59972H15.4298ZM17.7424 0.662046V1.4329H16.9715V0.662046H17.7424ZM17.7424 1.4329V2.20375H16.9715V1.4329H17.7424ZM17.7424 2.20375V2.9746H16.9715V2.20375H17.7424ZM17.7424 2.9746V3.74546H16.9715V2.9746H17.7424ZM17.7424 3.74546V4.51631H16.9715V3.74546H17.7424ZM17.7424 4.51631V5.28716H16.9715V4.51631H17.7424ZM17.7424 6.05801V6.82886H16.9715V6.05801H17.7424ZM17.7424 6.82886V7.59972H16.9715V6.82886H17.7424ZM17.7424 7.59972V8.37057H16.9715V7.59972H17.7424ZM17.7424 8.37057V9.14142H16.9715V8.37057H17.7424ZM17.7424 9.14142V9.91227H16.9715V9.14142H17.7424ZM17.7424 9.91227V10.6831H16.9715V9.91227H17.7424ZM17.7424 10.6831V11.454H16.9715V10.6831H17.7424ZM18.5132 11.454V12.2248H17.7424V11.454H18.5132ZM18.5132 12.2248V12.9957H17.7424V12.2248H18.5132ZM18.5132 12.9957V13.7665H17.7424V12.9957H18.5132ZM18.5132 10.6831V11.454H17.7424V10.6831H18.5132ZM18.5132 9.91227V10.6831H17.7424V9.91227H18.5132ZM18.5132 9.14142V9.91227H17.7424V9.14142H18.5132ZM18.5132 8.37057V9.14142H17.7424V8.37057H18.5132ZM18.5132 7.59972V8.37057H17.7424V7.59972H18.5132ZM18.5132 6.82886V7.59972H17.7424V6.82886H18.5132ZM18.5132 6.05801V6.82886H17.7424V6.05801H18.5132ZM18.5132 5.28716V6.05801H17.7424V5.28716H18.5132ZM18.5132 4.51631V5.28716H17.7424V4.51631H18.5132ZM18.5132 3.74546V4.51631H17.7424V3.74546H18.5132ZM17.7424 5.28716V6.05801H16.9715V5.28716H17.7424ZM18.5132 2.9746V3.74546H17.7424V2.9746H18.5132ZM18.5132 2.20375V2.9746H17.7424V2.20375H18.5132ZM18.5132 1.4329V2.20375H17.7424V1.4329H18.5132ZM18.5132 0.662046V1.4329H17.7424V0.662046H18.5132ZM16.9715 0.662046V1.4329H16.2007V0.662046H16.9715ZM16.2007 0.662046V1.4329H15.4298V0.662046H16.2007ZM16.2007 1.4329V2.20375H15.4298V1.4329H16.2007ZM16.9715 1.4329V2.20375H16.2007V1.4329H16.9715ZM16.9715 2.20375V2.9746H16.2007V2.20375H16.9715ZM16.9715 2.9746V3.74546H16.2007V2.9746H16.9715ZM16.9715 3.74546V4.51631H16.2007V3.74546H16.9715ZM16.9715 4.51631V5.28716H16.2007V4.51631H16.9715ZM16.9715 5.28716V6.05801H16.2007V5.28716H16.9715ZM16.9715 6.05801V6.82886H16.2007V6.05801H16.9715ZM16.2007 6.82886V7.59972H15.4298V6.82886H16.2007ZM16.2007 7.59972V8.37057H15.4298V7.59972H16.2007ZM16.2007 6.05801V6.82886H15.4298V6.05801H16.2007ZM16.2007 5.28716V6.05801H15.4298V5.28716H16.2007ZM16.2007 4.51631V5.28716H15.4298V4.51631H16.2007ZM16.2007 3.74546V4.51631H15.4298V3.74546H16.2007ZM16.2007 2.9746V3.74546H15.4298V2.9746H16.2007ZM16.2007 2.20375V2.9746H15.4298V2.20375H16.2007ZM16.9715 6.82886V7.59972H16.2007V6.82886H16.9715ZM16.9715 7.59972V8.37057H16.2007V7.59972H16.9715ZM16.9715 8.37057V9.14142H16.2007V8.37057H16.9715ZM16.9715 9.14142V9.91227H16.2007V9.14142H16.9715ZM16.9715 9.91227V10.6831H16.2007V9.91227H16.9715ZM16.9715 10.6831V11.454H16.2007V10.6831H16.9715ZM16.9715 11.454V12.2248H16.2007V11.454H16.9715ZM16.9715 12.2248V12.9957H16.2007V12.2248H16.9715ZM16.9715 12.9957V13.7665H16.2007V12.9957H16.9715ZM17.7424 12.2248V12.9957H16.9715V12.2248H17.7424ZM17.7424 11.454V12.2248H16.9715V11.454H17.7424ZM23.916 15.3082V14.5374H24.6868V15.3082H23.916ZM23.1451 15.3082V14.5374H23.916V15.3082H23.1451ZM22.3743 15.3082V14.5374H23.1451V15.3082H22.3743ZM21.6034 15.3082V14.5374H22.3743V15.3082H21.6034ZM20.8326 15.3082V14.5374H21.6034V15.3082H20.8326ZM20.8326 16.0791V15.3082H21.6034V16.0791H20.8326ZM20.8326 16.8499V16.0791H21.6034V16.8499H20.8326ZM21.6034 16.8499V16.0791H22.3743V16.8499H21.6034ZM22.3743 16.8499V16.0791H23.1451V16.8499H22.3743ZM23.1451 16.8499V16.0791H23.916V16.8499H23.1451ZM23.1451 16.0791V15.3082H23.916V16.0791H23.1451ZM23.916 16.0791V15.3082H24.6868V16.0791H23.916ZM22.3743 16.0791V15.3082H23.1451V16.0791H22.3743ZM21.6034 16.0791V15.3082H22.3743V16.0791H21.6034ZM23.916 16.8499V16.0791H24.6868V16.8499H23.916ZM24.6868 16.8499V16.0791H25.4577V16.8499H24.6868ZM24.6868 17.6208V16.8499H25.4577V17.6208H24.6868ZM23.916 17.6208V16.8499H24.6868V17.6208H23.916ZM23.1451 17.6208V16.8499H23.916V17.6208H23.1451ZM22.3743 17.6208V16.8499H23.1451V17.6208H22.3743ZM21.6034 17.6208V16.8499H22.3743V17.6208H21.6034ZM21.6034 18.3916V17.6208H22.3743V18.3916H21.6034ZM22.3743 18.3916V17.6208H23.1451V18.3916H22.3743ZM23.1451 18.3916V17.6208H23.916V18.3916H23.1451ZM23.916 18.3916V17.6208H24.6868V18.3916H23.916ZM24.6868 18.3916V17.6208H25.4577V18.3916H24.6868ZM23.1451 19.1625V18.3916H23.916V19.1625H23.1451ZM22.3743 19.1625V18.3916H23.1451V19.1625H22.3743ZM23.916 19.1625V18.3916H24.6868V19.1625H23.916ZM23.916 19.9333V19.1625H24.6868V19.9333H23.916ZM24.6868 19.9333V19.1625H25.4577V19.9333H24.6868ZM24.6868 19.1625V18.3916H25.4577V19.1625H24.6868ZM25.4577 19.1625V18.3916H26.2285V19.1625H25.4577ZM25.4577 19.9333V19.1625H26.2285V19.9333H25.4577ZM25.4577 18.3916V17.6208H26.2285V18.3916H25.4577ZM26.2285 18.3916V17.6208H26.9994V18.3916H26.2285ZM26.2285 17.6208V16.8499H26.9994V17.6208H26.2285ZM25.4577 17.6208V16.8499H26.2285V17.6208H25.4577ZM26.9994 17.6208V16.8499H27.7702V17.6208H26.9994ZM26.9994 18.3916V17.6208H27.7702V18.3916H26.9994ZM26.9994 19.1625V18.3916H27.7702V19.1625H26.9994ZM26.9994 19.9333V19.1625H27.7702V19.9333H26.9994ZM26.2285 19.9333V19.1625H26.9994V19.9333H26.2285ZM26.2285 19.1625V18.3916H26.9994V19.1625H26.2285ZM27.7702 19.9333V19.1625H28.5411V19.9333H27.7702ZM29.312 19.1625V18.3916H30.0828V19.1625H29.312ZM29.312 18.3916V17.6208H30.0828V18.3916H29.312ZM29.312 17.6208V16.8499H30.0828V17.6208H29.312ZM28.5411 17.6208V16.8499H29.312V17.6208H28.5411ZM27.7702 17.6208V16.8499H28.5411V17.6208H27.7702ZM27.7702 18.3916V17.6208H28.5411V18.3916H27.7702ZM27.7702 19.1625V18.3916H28.5411V19.1625H27.7702ZM28.5411 19.1625V18.3916H29.312V19.1625H28.5411ZM28.5411 18.3916V17.6208H29.312V18.3916H28.5411ZM30.0828 18.3916V17.6208H30.8537V18.3916H30.0828ZM30.0828 19.1625V18.3916H30.8537V19.1625H30.0828ZM30.8537 19.1625V18.3916H31.6245V19.1625H30.8537ZM30.8537 18.3916V17.6208H31.6245V18.3916H30.8537ZM31.6245 18.3916V17.6208H32.3954V18.3916H31.6245ZM31.6245 17.6208V16.8499H32.3954V17.6208H31.6245ZM31.6245 16.8499V16.0791H32.3954V16.8499H31.6245ZM30.8537 16.8499V16.0791H31.6245V16.8499H30.8537ZM30.8537 17.6208V16.8499H31.6245V17.6208H30.8537ZM30.0828 17.6208V16.8499H30.8537V17.6208H30.0828ZM30.0828 16.8499V16.0791H30.8537V16.8499H30.0828ZM29.312 16.8499V16.0791H30.0828V16.8499H29.312ZM32.3954 16.8499V16.0791H33.1662V16.8499H32.3954ZM32.3954 16.0791V15.3082H33.1662V16.0791H32.3954ZM32.3954 15.3082V14.5374H33.1662V15.3082H32.3954ZM32.3954 14.5374V13.7665H33.1662V14.5374H32.3954ZM32.3954 13.7665V12.9957H33.1662V13.7665H32.3954ZM32.3954 12.9957V12.2248H33.1662V12.9957H32.3954ZM32.3954 12.2248V11.454H33.1662V12.2248H32.3954ZM32.3954 11.454V10.6831H33.1662V11.454H32.3954ZM32.3954 10.6831V9.91227H33.1662V10.6831H32.3954ZM32.3954 9.91227V9.14142H33.1662V9.91227H32.3954ZM31.6245 9.91227V9.14142H32.3954V9.91227H31.6245ZM31.6245 9.14142V8.37057H32.3954V9.14142H31.6245ZM32.3954 9.14142V8.37057H33.1662V9.14142H32.3954ZM30.8537 9.14142V8.37057H31.6245V9.14142H30.8537ZM30.0828 9.14142V8.37057H30.8537V9.14142H30.0828ZM29.312 9.14142V8.37057H30.0828V9.14142H29.312ZM28.5411 9.14142V8.37057H29.312V9.14142H28.5411ZM29.312 9.91227V9.14142H30.0828V9.91227H29.312ZM29.312 10.6831V9.91227H30.0828V10.6831H29.312ZM29.312 11.454V10.6831H30.0828V11.454H29.312ZM29.312 12.2248V11.454H30.0828V12.2248H29.312ZM29.312 12.9957V12.2248H30.0828V12.9957H29.312ZM29.312 13.7665V12.9957H30.0828V13.7665H29.312ZM29.312 14.5374V13.7665H30.0828V14.5374H29.312ZM29.312 15.3082V14.5374H30.0828V15.3082H29.312ZM29.312 16.0791V15.3082H30.0828V16.0791H29.312ZM30.0828 16.0791V15.3082H30.8537V16.0791H30.0828ZM30.8537 16.0791V15.3082H31.6245V16.0791H30.8537ZM31.6245 16.0791V15.3082H32.3954V16.0791H31.6245ZM31.6245 15.3082V14.5374H32.3954V15.3082H31.6245ZM31.6245 14.5374V13.7665H32.3954V14.5374H31.6245ZM31.6245 13.7665V12.9957H32.3954V13.7665H31.6245ZM31.6245 12.9957V12.2248H32.3954V12.9957H31.6245ZM31.6245 12.2248V11.454H32.3954V12.2248H31.6245ZM31.6245 11.454V10.6831H32.3954V11.454H31.6245ZM31.6245 10.6831V9.91227H32.3954V10.6831H31.6245ZM30.8537 9.91227V9.14142H31.6245V9.91227H30.8537ZM30.0828 9.91227V9.14142H30.8537V9.91227H30.0828ZM30.0828 10.6831V9.91227H30.8537V10.6831H30.0828ZM30.0828 11.454V10.6831H30.8537V11.454H30.0828ZM30.0828 12.2248V11.454H30.8537V12.2248H30.0828ZM30.0828 12.9957V12.2248H30.8537V12.9957H30.0828ZM30.8537 12.9957V12.2248H31.6245V12.9957H30.8537ZM30.8537 13.7665V12.9957H31.6245V13.7665H30.8537ZM30.8537 14.5374V13.7665H31.6245V14.5374H30.8537ZM30.8537 15.3082V14.5374H31.6245V15.3082H30.8537ZM30.0828 15.3082V14.5374H30.8537V15.3082H30.0828ZM30.0828 14.5374V13.7665H30.8537V14.5374H30.0828ZM30.0828 13.7665V12.9957H30.8537V13.7665H30.0828ZM30.8537 11.454V10.6831H31.6245V11.454H30.8537ZM30.8537 10.6831V9.91227H31.6245V10.6831H30.8537ZM30.8537 12.2248V11.454H31.6245V12.2248H30.8537ZM23.916 9.91227V9.14142H24.6868V9.91227H23.916ZM23.1451 9.91227V9.14142H23.916V9.91227H23.1451ZM22.3743 9.91227V9.14142H23.1451V9.91227H22.3743ZM21.6034 9.91227V9.14142H22.3743V9.91227H21.6034ZM20.8326 9.91227V9.14142H21.6034V9.91227H20.8326ZM20.8326 9.14142V8.37057H21.6034V9.14142H20.8326ZM21.6034 9.14142V8.37057H22.3743V9.14142H21.6034ZM22.3743 9.14142V8.37057H23.1451V9.14142H22.3743ZM23.1451 9.14142V8.37057H23.916V9.14142H23.1451ZM23.916 9.14142V8.37057H24.6868V9.14142H23.916ZM24.6868 9.14142V8.37057H25.4577V9.14142H24.6868ZM24.6868 8.37057V7.59972H25.4577V8.37057H24.6868ZM23.916 8.37057V7.59972H24.6868V8.37057H23.916ZM23.1451 8.37057V7.59972H23.916V8.37057H23.1451ZM22.3743 8.37057V7.59972H23.1451V8.37057H22.3743ZM22.3743 7.59972V6.82886H23.1451V7.59972H22.3743ZM21.6034 7.59972V6.82886H22.3743V7.59972H21.6034ZM21.6034 8.37057V7.59972H22.3743V8.37057H21.6034ZM22.3743 6.82886V6.05801H23.1451V6.82886H22.3743ZM23.1451 6.82886V6.05801H23.916V6.82886H23.1451ZM23.1451 7.59972V6.82886H23.916V7.59972H23.1451ZM23.916 7.59972V6.82886H24.6868V7.59972H23.916ZM23.916 6.82886V6.05801H24.6868V6.82886H23.916ZM23.916 6.05801V5.28716H24.6868V6.05801H23.916ZM24.6868 6.05801V5.28716H25.4577V6.05801H24.6868ZM25.4577 6.05801V5.28716H26.2285V6.05801H25.4577ZM26.2285 6.05801V5.28716H26.9994V6.05801H26.2285ZM26.9994 6.05801V5.28716H27.7702V6.05801H26.9994ZM27.7702 6.05801V5.28716H28.5411V6.05801H27.7702ZM28.5411 6.05801V5.28716H29.312V6.05801H28.5411ZM29.312 6.05801V5.28716H30.0828V6.05801H29.312ZM28.5411 6.82886V6.05801H29.312V6.82886H28.5411ZM27.7702 6.82886V6.05801H28.5411V6.82886H27.7702ZM26.9994 6.82886V6.05801H27.7702V6.82886H26.9994ZM26.2285 6.82886V6.05801H26.9994V6.82886H26.2285ZM25.4577 6.82886V6.05801H26.2285V6.82886H25.4577ZM24.6868 6.82886V6.05801H25.4577V6.82886H24.6868ZM24.6868 7.59972V6.82886H25.4577V7.59972H24.6868ZM25.4577 7.59972V6.82886H26.2285V7.59972H25.4577ZM26.2285 7.59972V6.82886H26.9994V7.59972H26.2285ZM26.9994 7.59972V6.82886H27.7702V7.59972H26.9994ZM27.7702 7.59972V6.82886H28.5411V7.59972H27.7702ZM28.5411 7.59972V6.82886H29.312V7.59972H28.5411ZM29.312 6.82886V6.05801H30.0828V6.82886H29.312ZM30.0828 6.82886V6.05801H30.8537V6.82886H30.0828ZM30.8537 6.82886V6.05801H31.6245V6.82886H30.8537ZM30.8537 7.59972V6.82886H31.6245V7.59972H30.8537ZM31.6245 7.59972V6.82886H32.3954V7.59972H31.6245ZM31.6245 8.37057V7.59972H32.3954V8.37057H31.6245ZM30.8537 8.37057V7.59972H31.6245V8.37057H30.8537ZM30.0828 8.37057V7.59972H30.8537V8.37057H30.0828ZM29.312 8.37057V7.59972H30.0828V8.37057H29.312ZM28.5411 8.37057V7.59972H29.312V8.37057H28.5411ZM27.7702 8.37057V7.59972H28.5411V8.37057H27.7702ZM26.9994 8.37057V7.59972H27.7702V8.37057H26.9994ZM26.2285 8.37057V7.59972H26.9994V8.37057H26.2285ZM25.4577 8.37057V7.59972H26.2285V8.37057H25.4577ZM29.312 7.59972V6.82886H30.0828V7.59972H29.312ZM30.0828 7.59972V6.82886H30.8537V7.59972H30.0828ZM21.6034 14.5374V13.7665H22.3743V14.5374H21.6034ZM22.3743 14.5374V13.7665H23.1451V14.5374H22.3743ZM23.1451 14.5374V13.7665H23.916V14.5374H23.1451ZM23.916 14.5374V13.7665H24.6868V14.5374H23.916ZM22.3743 13.7665V12.9957H23.1451V13.7665H22.3743ZM23.1451 13.7665V12.9957H23.916V13.7665H23.1451ZM24.6868 13.7665V12.9957H25.4577V13.7665H24.6868ZM25.4577 13.7665V12.9957H26.2285V13.7665H25.4577ZM26.2285 13.7665V12.9957H26.9994V13.7665H26.2285ZM26.9994 13.7665V12.9957H27.7702V13.7665H26.9994ZM27.7702 13.7665V12.9957H28.5411V13.7665H27.7702ZM28.5411 13.7665V12.9957H29.312V13.7665H28.5411ZM23.916 13.7665V12.9957H24.6868V13.7665H23.916ZM21.6034 13.7665V12.9957H22.3743V13.7665H21.6034ZM22.3743 12.9957V12.2248H23.1451V12.9957H22.3743ZM23.1451 12.9957V12.2248H23.916V12.9957H23.1451ZM23.916 12.9957V12.2248H24.6868V12.9957H23.916ZM24.6868 12.9957V12.2248H25.4577V12.9957H24.6868ZM25.4577 12.9957V12.2248H26.2285V12.9957H25.4577ZM26.2285 12.9957V12.2248H26.9994V12.9957H26.2285ZM26.9994 12.9957V12.2248H27.7702V12.9957H26.9994ZM27.7702 12.9957V12.2248H28.5411V12.9957H27.7702ZM28.5411 12.9957V12.2248H29.312V12.9957H28.5411ZM28.5411 12.2248V11.454H29.312V12.2248H28.5411ZM27.7702 12.2248V11.454H28.5411V12.2248H27.7702ZM26.9994 12.2248V11.454H27.7702V12.2248H26.9994ZM25.4577 12.2248V11.454H26.2285V12.2248H25.4577ZM24.6868 12.2248V11.454H25.4577V12.2248H24.6868ZM23.916 12.2248V11.454H24.6868V12.2248H23.916ZM26.2285 12.2248V11.454H26.9994V12.2248H26.2285ZM33.1662 16.8499V17.6208H32.3954V16.8499H33.1662ZM33.1662 17.6208V18.3916H32.3954V17.6208H33.1662ZM33.1662 18.3916V19.1625H32.3954V18.3916H33.1662ZM33.1662 19.1625V19.9333H32.3954V19.1625H33.1662ZM32.3954 19.1625V19.9333H31.6245V19.1625H32.3954ZM32.3954 18.3916V19.1625H31.6245V18.3916H32.3954ZM31.6245 19.1625V19.9333H30.8537V19.1625H31.6245ZM30.8537 19.1625V19.9333H30.0828V19.1625H30.8537ZM30.0828 19.1625V19.9333H29.312V19.1625H30.0828ZM29.312 16.0791V16.8499H28.5411V16.0791H29.312ZM23.916 19.1625V19.9333H23.1451V19.1625H23.916ZM25.4577 13.7665V14.5374H24.6868V13.7665H25.4577ZM37.0348 19.1625V19.9333H36.2639V19.1625H37.0348ZM37.0348 18.3916V19.1625H36.2639V18.3916H37.0348ZM37.0348 17.6208V18.3916H36.2639V17.6208H37.0348ZM37.0348 16.8499V17.6208H36.2639V16.8499H37.0348ZM37.0348 16.0791V16.8499H36.2639V16.0791H37.0348ZM37.0348 15.3082V16.0791H36.2639V15.3082H37.0348ZM37.0348 14.5374V15.3082H36.2639V14.5374H37.0348ZM37.0348 13.7665V14.5374H36.2639V13.7665H37.0348ZM37.0348 12.9957V13.7665H36.2639V12.9957H37.0348ZM37.0348 12.2248V12.9957H36.2639V12.2248H37.0348ZM37.0348 11.454V12.2248H36.2639V11.454H37.0348ZM37.0348 10.6831V11.454H36.2639V10.6831H37.0348ZM37.0348 9.91227V10.6831H36.2639V9.91227H37.0348ZM37.0348 9.14142V9.91227H36.2639V9.14142H37.0348ZM37.0348 8.37057V9.14142H36.2639V8.37057H37.0348ZM37.8056 8.37057V9.14142H37.0348V8.37057H37.8056ZM37.8056 9.14142V9.91227H37.0348V9.14142H37.8056ZM37.8056 9.91227V10.6831H37.0348V9.91227H37.8056ZM37.8056 10.6831V11.454H37.0348V10.6831H37.8056ZM37.8056 11.454V12.2248H37.0348V11.454H37.8056ZM37.8056 12.2248V12.9957H37.0348V12.2248H37.8056ZM37.8056 12.9957V13.7665H37.0348V12.9957H37.8056ZM38.5765 13.7665V14.5374H37.8056V13.7665H38.5765ZM38.5765 14.5374V15.3082H37.8056V14.5374H38.5765ZM38.5765 15.3082V16.0791H37.8056V15.3082H38.5765ZM38.5765 16.0791V16.8499H37.8056V16.0791H38.5765ZM38.5765 16.8499V17.6208H37.8056V16.8499H38.5765ZM38.5765 17.6208V18.3916H37.8056V17.6208H38.5765ZM38.5765 18.3916V19.1625H37.8056V18.3916H38.5765ZM38.5765 19.1625V19.9333H37.8056V19.1625H38.5765ZM39.3473 19.1625V19.9333H38.5765V19.1625H39.3473ZM40.1182 19.1625V19.9333H39.3473V19.1625H40.1182ZM40.1182 18.3916V19.1625H39.3473V18.3916H40.1182ZM40.1182 17.6208V18.3916H39.3473V17.6208H40.1182ZM40.1182 16.8499V17.6208H39.3473V16.8499H40.1182ZM40.1182 16.0791V16.8499H39.3473V16.0791H40.1182ZM40.1182 15.3082V16.0791H39.3473V15.3082H40.1182ZM40.1182 14.5374V15.3082H39.3473V14.5374H40.1182ZM40.1182 13.7665V14.5374H39.3473V13.7665H40.1182ZM39.3473 13.7665V14.5374H38.5765V13.7665H39.3473ZM39.3473 12.9957V13.7665H38.5765V12.9957H39.3473ZM39.3473 14.5374V15.3082H38.5765V14.5374H39.3473ZM39.3473 15.3082V16.0791H38.5765V15.3082H39.3473ZM39.3473 16.0791V16.8499H38.5765V16.0791H39.3473ZM39.3473 16.8499V17.6208H38.5765V16.8499H39.3473ZM39.3473 17.6208V18.3916H38.5765V17.6208H39.3473ZM39.3473 18.3916V19.1625H38.5765V18.3916H39.3473ZM37.8056 19.1625V19.9333H37.0348V19.1625H37.8056ZM37.8056 18.3916V19.1625H37.0348V18.3916H37.8056ZM37.8056 17.6208V18.3916H37.0348V17.6208H37.8056ZM37.8056 16.8499V17.6208H37.0348V16.8499H37.8056ZM37.8056 16.0791V16.8499H37.0348V16.0791H37.8056ZM37.8056 15.3082V16.0791H37.0348V15.3082H37.8056ZM37.8056 14.5374V15.3082H37.0348V14.5374H37.8056ZM37.8056 13.7665V14.5374H37.0348V13.7665H37.8056ZM37.0348 5.28716V6.05801H36.2639V5.28716H37.0348ZM37.0348 6.05801V6.82886H36.2639V6.05801H37.0348ZM37.0348 6.82886V7.59972H36.2639V6.82886H37.0348ZM37.0348 7.59972V8.37057H36.2639V7.59972H37.0348ZM39.3473 6.05801V6.82886H38.5765V6.05801H39.3473ZM39.3473 6.82886V7.59972H38.5765V6.82886H39.3473ZM39.3473 7.59972V8.37057H38.5765V7.59972H39.3473ZM39.3473 8.37057V9.14142H38.5765V8.37057H39.3473ZM39.3473 9.14142V9.91227H38.5765V9.14142H39.3473ZM39.3473 9.91227V10.6831H38.5765V9.91227H39.3473ZM39.3473 10.6831V11.454H38.5765V10.6831H39.3473ZM40.1182 11.454V12.2248H39.3473V11.454H40.1182ZM40.1182 12.2248V12.9957H39.3473V12.2248H40.1182ZM40.1182 12.9957V13.7665H39.3473V12.9957H40.1182ZM40.1182 10.6831V11.454H39.3473V10.6831H40.1182ZM40.1182 9.91227V10.6831H39.3473V9.91227H40.1182ZM40.1182 9.14142V9.91227H39.3473V9.14142H40.1182ZM40.1182 8.37057V9.14142H39.3473V8.37057H40.1182ZM40.1182 7.59972V8.37057H39.3473V7.59972H40.1182ZM40.1182 6.82886V7.59972H39.3473V6.82886H40.1182ZM40.1182 6.05801V6.82886H39.3473V6.05801H40.1182ZM40.1182 5.28716V6.05801H39.3473V5.28716H40.1182ZM39.3473 5.28716V6.05801H38.5765V5.28716H39.3473ZM38.5765 5.28716V6.05801H37.8056V5.28716H38.5765ZM38.5765 6.05801V6.82886H37.8056V6.05801H38.5765ZM37.8056 6.82886V7.59972H37.0348V6.82886H37.8056ZM37.8056 7.59972V8.37057H37.0348V7.59972H37.8056ZM37.8056 6.05801V6.82886H37.0348V6.05801H37.8056ZM37.8056 5.28716V6.05801H37.0348V5.28716H37.8056ZM38.5765 6.82886V7.59972H37.8056V6.82886H38.5765ZM38.5765 7.59972V8.37057H37.8056V7.59972H38.5765ZM38.5765 8.37057V9.14142H37.8056V8.37057H38.5765ZM38.5765 9.14142V9.91227H37.8056V9.14142H38.5765ZM38.5765 9.91227V10.6831H37.8056V9.91227H38.5765ZM38.5765 10.6831V11.454H37.8056V10.6831H38.5765ZM38.5765 11.454V12.2248H37.8056V11.454H38.5765ZM38.5765 12.2248V12.9957H37.8056V12.2248H38.5765ZM38.5765 12.9957V13.7665H37.8056V12.9957H38.5765ZM39.3473 12.2248V12.9957H38.5765V12.2248H39.3473ZM39.3473 11.454V12.2248H38.5765V11.454H39.3473ZM43.9724 19.1625V19.9333H43.2016V19.1625H43.9724ZM44.7433 19.1625V19.9333H43.9724V19.1625H44.7433ZM45.5142 19.1625V19.9333H44.7433V19.1625H45.5142ZM46.285 19.1625V19.9333H45.5142V19.1625H46.285ZM47.0559 18.3916V19.1625H46.285V18.3916H47.0559ZM47.0559 17.6208V18.3916H46.285V17.6208H47.0559ZM47.0559 19.1625V19.9333H46.285V19.1625H47.0559ZM46.285 18.3916V19.1625H45.5142V18.3916H46.285ZM45.5142 18.3916V19.1625H44.7433V18.3916H45.5142ZM44.7433 18.3916V19.1625H43.9724V18.3916H44.7433ZM43.9724 18.3916V19.1625H43.2016V18.3916H43.9724ZM43.9724 17.6208V18.3916H43.2016V17.6208H43.9724ZM43.9724 16.8499V17.6208H43.2016V16.8499H43.9724ZM44.7433 16.8499V17.6208H43.9724V16.8499H44.7433ZM45.5142 16.8499V17.6208H44.7433V16.8499H45.5142ZM46.285 16.8499V17.6208H45.5142V16.8499H46.285ZM47.0559 16.8499V17.6208H46.285V16.8499H47.0559ZM46.285 17.6208V18.3916H45.5142V17.6208H46.285ZM45.5142 17.6208V18.3916H44.7433V17.6208H45.5142ZM44.7433 17.6208V18.3916H43.9724V17.6208H44.7433ZM46.285 8.37057V9.14142H45.5142V8.37057H46.285ZM44.7433 8.37057V9.14142H43.9724V8.37057H44.7433ZM44.7433 9.14142V9.91227H43.9724V9.14142H44.7433ZM44.7433 9.91227V10.6831H43.9724V9.91227H44.7433ZM43.9724 10.6831V11.454H43.2016V10.6831H43.9724ZM43.9724 11.454V12.2248H43.2016V11.454H43.9724ZM43.9724 12.2248V12.9957H43.2016V12.2248H43.9724ZM43.9724 12.9957V13.7665H43.2016V12.9957H43.9724ZM43.9724 13.7665V14.5374H43.2016V13.7665H43.9724ZM43.9724 14.5374V15.3082H43.2016V14.5374H43.9724ZM43.9724 15.3082V16.0791H43.2016V15.3082H43.9724ZM43.9724 16.0791V16.8499H43.2016V16.0791H43.9724ZM44.7433 16.0791V16.8499H43.9724V16.0791H44.7433ZM45.5142 16.0791V16.8499H44.7433V16.0791H45.5142ZM46.285 16.0791V16.8499H45.5142V16.0791H46.285ZM47.0559 16.0791V16.8499H46.285V16.0791H47.0559ZM47.0559 15.3082V16.0791H46.285V15.3082H47.0559ZM47.0559 13.7665V14.5374H46.285V13.7665H47.0559ZM47.0559 12.9957V13.7665H46.285V12.9957H47.0559ZM47.0559 12.2248V12.9957H46.285V12.2248H47.0559ZM47.0559 11.454V12.2248H46.285V11.454H47.0559ZM47.0559 10.6831V11.454H46.285V10.6831H47.0559ZM47.0559 9.91227V10.6831H46.285V9.91227H47.0559ZM46.285 12.2248V12.9957H45.5142V12.2248H46.285ZM46.285 13.7665V14.5374H45.5142V13.7665H46.285ZM46.285 14.5374V15.3082H45.5142V14.5374H46.285ZM46.285 15.3082V16.0791H45.5142V15.3082H46.285ZM47.0559 14.5374V15.3082H46.285V14.5374H47.0559ZM46.285 10.6831V11.454H45.5142V10.6831H46.285ZM45.5142 10.6831V11.454H44.7433V10.6831H45.5142ZM44.7433 10.6831V11.454H43.9724V10.6831H44.7433ZM44.7433 11.454V12.2248H43.9724V11.454H44.7433ZM44.7433 12.2248V12.9957H43.9724V12.2248H44.7433ZM44.7433 12.9957V13.7665H43.9724V12.9957H44.7433ZM44.7433 13.7665V14.5374H43.9724V13.7665H44.7433ZM44.7433 14.5374V15.3082H43.9724V14.5374H44.7433ZM44.7433 15.3082V16.0791H43.9724V15.3082H44.7433ZM45.5142 15.3082V16.0791H44.7433V15.3082H45.5142ZM45.5142 14.5374V15.3082H44.7433V14.5374H45.5142ZM45.5142 13.7665V14.5374H44.7433V13.7665H45.5142ZM45.5142 12.9957V13.7665H44.7433V12.9957H45.5142ZM45.5142 12.2248V12.9957H44.7433V12.2248H45.5142ZM45.5142 11.454V12.2248H44.7433V11.454H45.5142ZM46.285 11.454V12.2248H45.5142V11.454H46.285ZM46.285 12.9957V13.7665H45.5142V12.9957H46.285ZM46.285 9.91227V10.6831H45.5142V9.91227H46.285ZM46.285 9.14142V9.91227H45.5142V9.14142H46.285ZM45.5142 9.14142V9.91227H44.7433V9.14142H45.5142ZM45.5142 9.91227V10.6831H44.7433V9.91227H45.5142ZM43.9724 9.91227V10.6831H43.2016V9.91227H43.9724ZM43.9724 9.14142V9.91227H43.2016V9.14142H43.9724ZM43.9724 8.37057V9.14142H43.2016V8.37057H43.9724ZM45.5142 8.37057V9.14142H44.7433V8.37057H45.5142ZM43.9724 5.28716V6.05801H43.2016V5.28716H43.9724ZM43.9724 6.05801V6.82886H43.2016V6.05801H43.9724ZM44.7433 6.05801V6.82886H43.9724V6.05801H44.7433ZM45.5142 6.05801V6.82886H44.7433V6.05801H45.5142ZM45.5142 6.82886V7.59972H44.7433V6.82886H45.5142ZM46.285 6.82886V7.59972H45.5142V6.82886H46.285ZM46.285 7.59972V8.37057H45.5142V7.59972H46.285ZM45.5142 7.59972V8.37057H44.7433V7.59972H45.5142ZM44.7433 7.59972V8.37057H43.9724V7.59972H44.7433ZM44.7433 6.82886V7.59972H43.9724V6.82886H44.7433ZM43.9724 6.82886V7.59972H43.2016V6.82886H43.9724ZM43.2016 6.82886V7.59972H42.4307V6.82886H43.2016ZM43.2016 7.59972V8.37057H42.4307V7.59972H43.2016ZM43.9724 7.59972V8.37057H43.2016V7.59972H43.9724ZM43.2016 8.37057V9.14142H42.4307V8.37057H43.2016ZM43.2016 5.28716V6.05801H42.4307V5.28716H43.2016ZM43.2016 6.05801V6.82886H42.4307V6.05801H43.2016ZM42.4307 5.28716V6.05801H41.6599V5.28716H42.4307ZM42.4307 6.05801V6.82886H41.6599V6.05801H42.4307ZM42.4307 6.82886V7.59972H41.6599V6.82886H42.4307ZM41.6599 6.05801V6.82886H40.889V6.05801H41.6599ZM40.889 6.82886V7.59972H40.1182V6.82886H40.889ZM40.889 7.59972V8.37057H40.1182V7.59972H40.889ZM41.6599 7.59972V8.37057H40.889V7.59972H41.6599ZM41.6599 6.82886V7.59972H40.889V6.82886H41.6599ZM40.889 8.37057V9.14142H40.1182V8.37057H40.889ZM50.9101 19.1625V19.9333H50.1393V19.1625H50.9101ZM51.681 19.1625V19.9333H50.9101V19.1625H51.681ZM52.4518 19.1625V19.9333H51.681V19.1625H52.4518ZM53.2227 19.1625V19.9333H52.4518V19.1625H53.2227ZM53.9935 18.3916V19.1625H53.2227V18.3916H53.9935ZM53.9935 17.6208V18.3916H53.2227V17.6208H53.9935ZM53.9935 19.1625V19.9333H53.2227V19.1625H53.9935ZM53.2227 18.3916V19.1625H52.4518V18.3916H53.2227ZM52.4518 18.3916V19.1625H51.681V18.3916H52.4518ZM51.681 18.3916V19.1625H50.9101V18.3916H51.681ZM50.9101 18.3916V19.1625H50.1393V18.3916H50.9101ZM50.9101 17.6208V18.3916H50.1393V17.6208H50.9101ZM50.9101 16.8499V17.6208H50.1393V16.8499H50.9101ZM51.681 16.8499V17.6208H50.9101V16.8499H51.681ZM52.4518 16.8499V17.6208H51.681V16.8499H52.4518ZM53.2227 16.8499V17.6208H52.4518V16.8499H53.2227ZM53.9935 16.8499V17.6208H53.2227V16.8499H53.9935ZM53.2227 17.6208V18.3916H52.4518V17.6208H53.2227ZM52.4518 17.6208V18.3916H51.681V17.6208H52.4518ZM51.681 17.6208V18.3916H50.9101V17.6208H51.681ZM53.9935 8.37057V9.14142H53.2227V8.37057H53.9935ZM53.2227 8.37057V9.14142H52.4518V8.37057H53.2227ZM51.681 8.37057V9.14142H50.9101V8.37057H51.681ZM51.681 9.14142V9.91227H50.9101V9.14142H51.681ZM51.681 9.91227V10.6831H50.9101V9.91227H51.681ZM50.9101 10.6831V11.454H50.1393V10.6831H50.9101ZM50.9101 11.454V12.2248H50.1393V11.454H50.9101ZM50.9101 12.2248V12.9957H50.1393V12.2248H50.9101ZM50.9101 12.9957V13.7665H50.1393V12.9957H50.9101ZM50.9101 13.7665V14.5374H50.1393V13.7665H50.9101ZM50.9101 14.5374V15.3082H50.1393V14.5374H50.9101ZM50.9101 15.3082V16.0791H50.1393V15.3082H50.9101ZM50.9101 16.0791V16.8499H50.1393V16.0791H50.9101ZM51.681 16.0791V16.8499H50.9101V16.0791H51.681ZM52.4518 16.0791V16.8499H51.681V16.0791H52.4518ZM53.2227 16.0791V16.8499H52.4518V16.0791H53.2227ZM53.9935 16.0791V16.8499H53.2227V16.0791H53.9935ZM53.9935 15.3082V16.0791H53.2227V15.3082H53.9935ZM53.9935 13.7665V14.5374H53.2227V13.7665H53.9935ZM53.9935 12.9957V13.7665H53.2227V12.9957H53.9935ZM53.9935 12.2248V12.9957H53.2227V12.2248H53.9935ZM53.9935 11.454V12.2248H53.2227V11.454H53.9935ZM53.9935 10.6831V11.454H53.2227V10.6831H53.9935ZM53.9935 9.91227V10.6831H53.2227V9.91227H53.9935ZM53.9935 9.14142V9.91227H53.2227V9.14142H53.9935ZM53.2227 12.2248V12.9957H52.4518V12.2248H53.2227ZM53.2227 13.7665V14.5374H52.4518V13.7665H53.2227ZM53.2227 14.5374V15.3082H52.4518V14.5374H53.2227ZM53.2227 15.3082V16.0791H52.4518V15.3082H53.2227ZM53.9935 14.5374V15.3082H53.2227V14.5374H53.9935ZM53.2227 10.6831V11.454H52.4518V10.6831H53.2227ZM52.4518 10.6831V11.454H51.681V10.6831H52.4518ZM51.681 10.6831V11.454H50.9101V10.6831H51.681ZM51.681 11.454V12.2248H50.9101V11.454H51.681ZM51.681 12.2248V12.9957H50.9101V12.2248H51.681ZM51.681 12.9957V13.7665H50.9101V12.9957H51.681ZM51.681 13.7665V14.5374H50.9101V13.7665H51.681ZM51.681 14.5374V15.3082H50.9101V14.5374H51.681ZM51.681 15.3082V16.0791H50.9101V15.3082H51.681ZM52.4518 15.3082V16.0791H51.681V15.3082H52.4518ZM52.4518 14.5374V15.3082H51.681V14.5374H52.4518ZM52.4518 13.7665V14.5374H51.681V13.7665H52.4518ZM52.4518 12.9957V13.7665H51.681V12.9957H52.4518ZM52.4518 12.2248V12.9957H51.681V12.2248H52.4518ZM52.4518 11.454V12.2248H51.681V11.454H52.4518ZM53.2227 11.454V12.2248H52.4518V11.454H53.2227ZM53.2227 12.9957V13.7665H52.4518V12.9957H53.2227ZM53.2227 9.91227V10.6831H52.4518V9.91227H53.2227ZM53.2227 9.14142V9.91227H52.4518V9.14142H53.2227ZM52.4518 9.14142V9.91227H51.681V9.14142H52.4518ZM52.4518 9.91227V10.6831H51.681V9.91227H52.4518ZM50.9101 9.91227V10.6831H50.1393V9.91227H50.9101ZM50.9101 9.14142V9.91227H50.1393V9.14142H50.9101ZM50.9101 8.37057V9.14142H50.1393V8.37057H50.9101ZM52.4518 8.37057V9.14142H51.681V8.37057H52.4518ZM50.9101 5.28716V6.05801H50.1393V5.28716H50.9101ZM50.9101 6.05801V6.82886H50.1393V6.05801H50.9101ZM51.681 6.05801V6.82886H50.9101V6.05801H51.681ZM52.4518 6.05801V6.82886H51.681V6.05801H52.4518ZM52.4518 6.82886V7.59972H51.681V6.82886H52.4518ZM53.2227 6.82886V7.59972H52.4518V6.82886H53.2227ZM53.2227 7.59972V8.37057H52.4518V7.59972H53.2227ZM52.4518 7.59972V8.37057H51.681V7.59972H52.4518ZM51.681 7.59972V8.37057H50.9101V7.59972H51.681ZM51.681 6.82886V7.59972H50.9101V6.82886H51.681ZM50.9101 6.82886V7.59972H50.1393V6.82886H50.9101ZM50.1393 6.82886V7.59972H49.3684V6.82886H50.1393ZM50.1393 7.59972V8.37057H49.3684V7.59972H50.1393ZM50.9101 7.59972V8.37057H50.1393V7.59972H50.9101ZM50.1393 8.37057V9.14142H49.3684V8.37057H50.1393ZM49.3684 7.59972V8.37057H48.5976V7.59972H49.3684ZM49.3684 6.82886V7.59972H48.5976V6.82886H49.3684ZM49.3684 6.05801V6.82886H48.5976V6.05801H49.3684ZM49.3684 5.28716V6.05801H48.5976V5.28716H49.3684ZM50.1393 5.28716V6.05801H49.3684V5.28716H50.1393ZM50.1393 6.05801V6.82886H49.3684V6.05801H50.1393ZM48.5976 5.28716V6.05801H47.8267V5.28716H48.5976ZM48.5976 6.05801V6.82886H47.8267V6.05801H48.5976ZM47.8267 6.05801V6.82886H47.0559V6.05801H47.8267ZM47.8267 6.82886V7.59972H47.0559V6.82886H47.8267ZM47.0559 6.82886V7.59972H46.285V6.82886H47.0559ZM47.0559 7.59972V8.37057H46.285V7.59972H47.0559ZM47.8267 7.59972V8.37057H47.0559V7.59972H47.8267ZM48.5976 7.59972V8.37057H47.8267V7.59972H48.5976ZM48.5976 6.82886V7.59972H47.8267V6.82886H48.5976ZM47.0559 8.37057V9.14142H46.285V8.37057H47.0559ZM47.8267 8.37057V9.14142H47.0559V8.37057H47.8267ZM47.0559 9.14142V9.91227H46.285V9.14142H47.0559ZM41.6599 5.28716V6.05801H40.889V5.28716H41.6599ZM40.889 6.05801V6.82886H40.1182V6.05801H40.889ZM47.8267 5.28716V6.05801H47.0559V5.28716H47.8267ZM47.0559 6.05801V6.82886H46.285V6.05801H47.0559ZM42.4307 7.59972V8.37057H41.6599V7.59972H42.4307ZM44.7433 5.28716V6.05801H43.9724V5.28716H44.7433ZM58.6073 15.3082V14.5374H59.3782V15.3082H58.6073ZM57.8365 15.3082V14.5374H58.6073V15.3082H57.8365ZM57.0656 15.3082V14.5374H57.8365V15.3082H57.0656ZM56.2948 15.3082V14.5374H57.0656V15.3082H56.2948ZM55.5239 15.3082V14.5374H56.2948V15.3082H55.5239ZM55.5239 16.0791V15.3082H56.2948V16.0791H55.5239ZM55.5239 16.8499V16.0791H56.2948V16.8499H55.5239ZM56.2948 16.8499V16.0791H57.0656V16.8499H56.2948ZM57.0656 16.8499V16.0791H57.8365V16.8499H57.0656ZM57.8365 16.8499V16.0791H58.6073V16.8499H57.8365ZM57.8365 16.0791V15.3082H58.6073V16.0791H57.8365ZM58.6073 16.0791V15.3082H59.3782V16.0791H58.6073ZM57.0656 16.0791V15.3082H57.8365V16.0791H57.0656ZM56.2948 16.0791V15.3082H57.0656V16.0791H56.2948ZM58.6073 16.8499V16.0791H59.3782V16.8499H58.6073ZM59.3782 16.8499V16.0791H60.149V16.8499H59.3782ZM59.3782 17.6208V16.8499H60.149V17.6208H59.3782ZM58.6073 17.6208V16.8499H59.3782V17.6208H58.6073ZM57.8365 17.6208V16.8499H58.6073V17.6208H57.8365ZM57.0656 17.6208V16.8499H57.8365V17.6208H57.0656ZM56.2948 17.6208V16.8499H57.0656V17.6208H56.2948ZM56.2948 18.3916V17.6208H57.0656V18.3916H56.2948ZM57.0656 18.3916V17.6208H57.8365V18.3916H57.0656ZM57.8365 18.3916V17.6208H58.6073V18.3916H57.8365ZM58.6073 18.3916V17.6208H59.3782V18.3916H58.6073ZM59.3782 18.3916V17.6208H60.149V18.3916H59.3782ZM57.8365 19.1625V18.3916H58.6073V19.1625H57.8365ZM57.0656 19.1625V18.3916H57.8365V19.1625H57.0656ZM58.6073 19.1625V18.3916H59.3782V19.1625H58.6073ZM58.6073 19.9333V19.1625H59.3782V19.9333H58.6073ZM59.3782 19.9333V19.1625H60.149V19.9333H59.3782ZM59.3782 19.1625V18.3916H60.149V19.1625H59.3782ZM60.149 19.1625V18.3916H60.9199V19.1625H60.149ZM60.149 19.9333V19.1625H60.9199V19.9333H60.149ZM60.149 18.3916V17.6208H60.9199V18.3916H60.149ZM60.9199 18.3916V17.6208H61.6908V18.3916H60.9199ZM60.9199 17.6208V16.8499H61.6908V17.6208H60.9199ZM60.149 17.6208V16.8499H60.9199V17.6208H60.149ZM61.6908 17.6208V16.8499H62.4616V17.6208H61.6908ZM61.6908 18.3916V17.6208H62.4616V18.3916H61.6908ZM61.6908 19.1625V18.3916H62.4616V19.1625H61.6908ZM61.6908 19.9333V19.1625H62.4616V19.9333H61.6908ZM60.9199 19.9333V19.1625H61.6908V19.9333H60.9199ZM60.9199 19.1625V18.3916H61.6908V19.1625H60.9199ZM62.4616 19.9333V19.1625H63.2325V19.9333H62.4616ZM64.0033 19.1625V18.3916H64.7742V19.1625H64.0033ZM64.0033 18.3916V17.6208H64.7742V18.3916H64.0033ZM64.0033 17.6208V16.8499H64.7742V17.6208H64.0033ZM63.2325 17.6208V16.8499H64.0033V17.6208H63.2325ZM62.4616 17.6208V16.8499H63.2325V17.6208H62.4616ZM62.4616 18.3916V17.6208H63.2325V18.3916H62.4616ZM62.4616 19.1625V18.3916H63.2325V19.1625H62.4616ZM63.2325 19.1625V18.3916H64.0033V19.1625H63.2325ZM63.2325 18.3916V17.6208H64.0033V18.3916H63.2325ZM64.7742 18.3916V17.6208H65.545V18.3916H64.7742ZM64.7742 19.1625V18.3916H65.545V19.1625H64.7742ZM65.545 19.1625V18.3916H66.3159V19.1625H65.545ZM65.545 18.3916V17.6208H66.3159V18.3916H65.545ZM66.3159 18.3916V17.6208H67.0867V18.3916H66.3159ZM66.3159 17.6208V16.8499H67.0867V17.6208H66.3159ZM66.3159 16.8499V16.0791H67.0867V16.8499H66.3159ZM65.545 16.8499V16.0791H66.3159V16.8499H65.545ZM65.545 17.6208V16.8499H66.3159V17.6208H65.545ZM64.7742 17.6208V16.8499H65.545V17.6208H64.7742ZM64.7742 16.8499V16.0791H65.545V16.8499H64.7742ZM64.0033 16.8499V16.0791H64.7742V16.8499H64.0033ZM67.0867 16.8499V16.0791H67.8576V16.8499H67.0867ZM67.0867 16.0791V15.3082H67.8576V16.0791H67.0867ZM67.0867 15.3082V14.5374H67.8576V15.3082H67.0867ZM67.0867 14.5374V13.7665H67.8576V14.5374H67.0867ZM67.0867 13.7665V12.9957H67.8576V13.7665H67.0867ZM67.0867 12.9957V12.2248H67.8576V12.9957H67.0867ZM67.0867 12.2248V11.454H67.8576V12.2248H67.0867ZM67.0867 11.454V10.6831H67.8576V11.454H67.0867ZM67.0867 10.6831V9.91227H67.8576V10.6831H67.0867ZM67.0867 9.91227V9.14142H67.8576V9.91227H67.0867ZM66.3159 9.91227V9.14142H67.0867V9.91227H66.3159ZM66.3159 9.14142V8.37057H67.0867V9.14142H66.3159ZM67.0867 9.14142V8.37057H67.8576V9.14142H67.0867ZM65.545 9.14142V8.37057H66.3159V9.14142H65.545ZM64.7742 9.14142V8.37057H65.545V9.14142H64.7742ZM64.0033 9.14142V8.37057H64.7742V9.14142H64.0033ZM63.2325 9.14142V8.37057H64.0033V9.14142H63.2325ZM64.0033 9.91227V9.14142H64.7742V9.91227H64.0033ZM64.0033 10.6831V9.91227H64.7742V10.6831H64.0033ZM64.0033 11.454V10.6831H64.7742V11.454H64.0033ZM64.0033 12.2248V11.454H64.7742V12.2248H64.0033ZM64.0033 12.9957V12.2248H64.7742V12.9957H64.0033ZM64.0033 13.7665V12.9957H64.7742V13.7665H64.0033ZM64.0033 14.5374V13.7665H64.7742V14.5374H64.0033ZM64.0033 15.3082V14.5374H64.7742V15.3082H64.0033ZM64.0033 16.0791V15.3082H64.7742V16.0791H64.0033ZM64.7742 16.0791V15.3082H65.545V16.0791H64.7742ZM65.545 16.0791V15.3082H66.3159V16.0791H65.545ZM66.3159 16.0791V15.3082H67.0867V16.0791H66.3159ZM66.3159 15.3082V14.5374H67.0867V15.3082H66.3159ZM66.3159 14.5374V13.7665H67.0867V14.5374H66.3159ZM66.3159 13.7665V12.9957H67.0867V13.7665H66.3159ZM66.3159 12.9957V12.2248H67.0867V12.9957H66.3159ZM66.3159 12.2248V11.454H67.0867V12.2248H66.3159ZM66.3159 11.454V10.6831H67.0867V11.454H66.3159ZM66.3159 10.6831V9.91227H67.0867V10.6831H66.3159ZM65.545 9.91227V9.14142H66.3159V9.91227H65.545ZM64.7742 9.91227V9.14142H65.545V9.91227H64.7742ZM64.7742 10.6831V9.91227H65.545V10.6831H64.7742ZM64.7742 11.454V10.6831H65.545V11.454H64.7742ZM64.7742 12.2248V11.454H65.545V12.2248H64.7742ZM64.7742 12.9957V12.2248H65.545V12.9957H64.7742ZM65.545 12.9957V12.2248H66.3159V12.9957H65.545ZM65.545 13.7665V12.9957H66.3159V13.7665H65.545ZM65.545 14.5374V13.7665H66.3159V14.5374H65.545ZM65.545 15.3082V14.5374H66.3159V15.3082H65.545ZM64.7742 15.3082V14.5374H65.545V15.3082H64.7742ZM64.7742 14.5374V13.7665H65.545V14.5374H64.7742ZM64.7742 13.7665V12.9957H65.545V13.7665H64.7742ZM65.545 11.454V10.6831H66.3159V11.454H65.545ZM65.545 10.6831V9.91227H66.3159V10.6831H65.545ZM65.545 12.2248V11.454H66.3159V12.2248H65.545ZM58.6073 9.91227V9.14142H59.3782V9.91227H58.6073ZM57.8365 9.91227V9.14142H58.6073V9.91227H57.8365ZM57.0656 9.91227V9.14142H57.8365V9.91227H57.0656ZM56.2948 9.91227V9.14142H57.0656V9.91227H56.2948ZM55.5239 9.91227V9.14142H56.2948V9.91227H55.5239ZM55.5239 9.14142V8.37057H56.2948V9.14142H55.5239ZM56.2948 9.14142V8.37057H57.0656V9.14142H56.2948ZM57.0656 9.14142V8.37057H57.8365V9.14142H57.0656ZM57.8365 9.14142V8.37057H58.6073V9.14142H57.8365ZM58.6073 9.14142V8.37057H59.3782V9.14142H58.6073ZM59.3782 9.14142V8.37057H60.149V9.14142H59.3782ZM59.3782 8.37057V7.59972H60.149V8.37057H59.3782ZM58.6073 8.37057V7.59972H59.3782V8.37057H58.6073ZM57.8365 8.37057V7.59972H58.6073V8.37057H57.8365ZM57.0656 8.37057V7.59972H57.8365V8.37057H57.0656ZM57.0656 7.59972V6.82886H57.8365V7.59972H57.0656ZM56.2948 7.59972V6.82886H57.0656V7.59972H56.2948ZM56.2948 8.37057V7.59972H57.0656V8.37057H56.2948ZM57.0656 6.82886V6.05801H57.8365V6.82886H57.0656ZM57.8365 6.82886V6.05801H58.6073V6.82886H57.8365ZM57.8365 7.59972V6.82886H58.6073V7.59972H57.8365ZM58.6073 7.59972V6.82886H59.3782V7.59972H58.6073ZM58.6073 6.82886V6.05801H59.3782V6.82886H58.6073ZM58.6073 6.05801V5.28716H59.3782V6.05801H58.6073ZM59.3782 6.05801V5.28716H60.149V6.05801H59.3782ZM60.149 6.05801V5.28716H60.9199V6.05801H60.149ZM60.9199 6.05801V5.28716H61.6908V6.05801H60.9199ZM61.6908 6.05801V5.28716H62.4616V6.05801H61.6908ZM62.4616 6.05801V5.28716H63.2325V6.05801H62.4616ZM63.2325 6.05801V5.28716H64.0033V6.05801H63.2325ZM64.0033 6.05801V5.28716H64.7742V6.05801H64.0033ZM63.2325 6.82886V6.05801H64.0033V6.82886H63.2325ZM62.4616 6.82886V6.05801H63.2325V6.82886H62.4616ZM61.6908 6.82886V6.05801H62.4616V6.82886H61.6908ZM60.9199 6.82886V6.05801H61.6908V6.82886H60.9199ZM60.149 6.82886V6.05801H60.9199V6.82886H60.149ZM59.3782 6.82886V6.05801H60.149V6.82886H59.3782ZM59.3782 7.59972V6.82886H60.149V7.59972H59.3782ZM60.149 7.59972V6.82886H60.9199V7.59972H60.149ZM60.9199 7.59972V6.82886H61.6908V7.59972H60.9199ZM61.6908 7.59972V6.82886H62.4616V7.59972H61.6908ZM62.4616 7.59972V6.82886H63.2325V7.59972H62.4616ZM63.2325 7.59972V6.82886H64.0033V7.59972H63.2325ZM64.0033 6.82886V6.05801H64.7742V6.82886H64.0033ZM64.7742 6.82886V6.05801H65.545V6.82886H64.7742ZM65.545 6.82886V6.05801H66.3159V6.82886H65.545ZM65.545 7.59972V6.82886H66.3159V7.59972H65.545ZM66.3159 7.59972V6.82886H67.0867V7.59972H66.3159ZM66.3159 8.37057V7.59972H67.0867V8.37057H66.3159ZM65.545 8.37057V7.59972H66.3159V8.37057H65.545ZM64.7742 8.37057V7.59972H65.545V8.37057H64.7742ZM64.0033 8.37057V7.59972H64.7742V8.37057H64.0033ZM63.2325 8.37057V7.59972H64.0033V8.37057H63.2325ZM62.4616 8.37057V7.59972H63.2325V8.37057H62.4616ZM61.6908 8.37057V7.59972H62.4616V8.37057H61.6908ZM60.9199 8.37057V7.59972H61.6908V8.37057H60.9199ZM60.149 8.37057V7.59972H60.9199V8.37057H60.149ZM64.0033 7.59972V6.82886H64.7742V7.59972H64.0033ZM64.7742 7.59972V6.82886H65.545V7.59972H64.7742ZM56.2948 14.5374V13.7665H57.0656V14.5374H56.2948ZM57.0656 14.5374V13.7665H57.8365V14.5374H57.0656ZM57.8365 14.5374V13.7665H58.6073V14.5374H57.8365ZM58.6073 14.5374V13.7665H59.3782V14.5374H58.6073ZM57.0656 13.7665V12.9957H57.8365V13.7665H57.0656ZM57.8365 13.7665V12.9957H58.6073V13.7665H57.8365ZM59.3782 13.7665V12.9957H60.149V13.7665H59.3782ZM60.149 13.7665V12.9957H60.9199V13.7665H60.149ZM60.9199 13.7665V12.9957H61.6908V13.7665H60.9199ZM61.6908 13.7665V12.9957H62.4616V13.7665H61.6908ZM62.4616 13.7665V12.9957H63.2325V13.7665H62.4616ZM63.2325 13.7665V12.9957H64.0033V13.7665H63.2325ZM58.6073 13.7665V12.9957H59.3782V13.7665H58.6073ZM56.2948 13.7665V12.9957H57.0656V13.7665H56.2948ZM57.0656 12.9957V12.2248H57.8365V12.9957H57.0656ZM57.8365 12.9957V12.2248H58.6073V12.9957H57.8365ZM58.6073 12.9957V12.2248H59.3782V12.9957H58.6073ZM59.3782 12.9957V12.2248H60.149V12.9957H59.3782ZM60.149 12.9957V12.2248H60.9199V12.9957H60.149ZM60.9199 12.9957V12.2248H61.6908V12.9957H60.9199ZM61.6908 12.9957V12.2248H62.4616V12.9957H61.6908ZM62.4616 12.9957V12.2248H63.2325V12.9957H62.4616ZM63.2325 12.9957V12.2248H64.0033V12.9957H63.2325ZM63.2325 12.2248V11.454H64.0033V12.2248H63.2325ZM62.4616 12.2248V11.454H63.2325V12.2248H62.4616ZM61.6908 12.2248V11.454H62.4616V12.2248H61.6908ZM60.149 12.2248V11.454H60.9199V12.2248H60.149ZM59.3782 12.2248V11.454H60.149V12.2248H59.3782ZM58.6073 12.2248V11.454H59.3782V12.2248H58.6073ZM60.9199 12.2248V11.454H61.6908V12.2248H60.9199ZM67.8576 16.8499V17.6208H67.0867V16.8499H67.8576ZM67.8576 17.6208V18.3916H67.0867V17.6208H67.8576ZM67.8576 18.3916V19.1625H67.0867V18.3916H67.8576ZM67.8576 19.1625V19.9333H67.0867V19.1625H67.8576ZM67.0867 19.1625V19.9333H66.3159V19.1625H67.0867ZM67.0867 18.3916V19.1625H66.3159V18.3916H67.0867ZM66.3159 19.1625V19.9333H65.545V19.1625H66.3159ZM65.545 19.1625V19.9333H64.7742V19.1625H65.545ZM64.7742 19.1625V19.9333H64.0033V19.1625H64.7742ZM64.0033 16.0791V16.8499H63.2325V16.0791H64.0033ZM58.6073 19.1625V19.9333H57.8365V19.1625H58.6073ZM60.149 13.7665V14.5374H59.3782V13.7665H60.149ZM2.31256 46.1625V46.9333H1.5417V46.1625H2.31256ZM2.31256 45.3916V46.1625H1.5417V45.3916H2.31256ZM2.31256 44.6208V45.3916H1.5417V44.6208H2.31256ZM2.31256 43.8499V44.6208H1.5417V43.8499H2.31256ZM2.31256 43.0791V43.8499H1.5417V43.0791H2.31256ZM2.31256 42.3082V43.0791H1.5417V42.3082H2.31256ZM2.31256 41.5374V42.3082H1.5417V41.5374H2.31256ZM2.31256 40.7665V41.5374H1.5417V40.7665H2.31256ZM2.31256 39.9957V40.7665H1.5417V39.9957H2.31256ZM2.31256 39.2248V39.9957H1.5417V39.2248H2.31256ZM2.31256 38.454V39.2248H1.5417V38.454H2.31256ZM2.31256 37.6831V38.454H1.5417V37.6831H2.31256ZM2.31256 36.9123V37.6831H1.5417V36.9123H2.31256ZM2.31256 36.1414V36.9123H1.5417V36.1414H2.31256ZM2.31256 35.3706V36.1414H1.5417V35.3706H2.31256ZM3.08341 35.3706V36.1414H2.31256V35.3706H3.08341ZM3.08341 36.1414V36.9123H2.31256V36.1414H3.08341ZM3.08341 36.9123V37.6831H2.31256V36.9123H3.08341ZM3.08341 37.6831V38.454H2.31256V37.6831H3.08341ZM3.08341 38.454V39.2248H2.31256V38.454H3.08341ZM3.08341 39.2248V39.9957H2.31256V39.2248H3.08341ZM3.08341 39.9957V40.7665H2.31256V39.9957H3.08341ZM3.85426 40.7665V41.5374H3.08341V40.7665H3.85426ZM3.85426 41.5374V42.3082H3.08341V41.5374H3.85426ZM3.85426 42.3082V43.0791H3.08341V42.3082H3.85426ZM3.85426 43.0791V43.8499H3.08341V43.0791H3.85426ZM3.85426 43.8499V44.6208H3.08341V43.8499H3.85426ZM3.85426 44.6208V45.3916H3.08341V44.6208H3.85426ZM3.85426 45.3916V46.1625H3.08341V45.3916H3.85426ZM3.85426 46.1625V46.9333H3.08341V46.1625H3.85426ZM4.62511 46.1625V46.9333H3.85426V46.1625H4.62511ZM5.39596 46.1625V46.9333H4.62511V46.1625H5.39596ZM5.39596 45.3916V46.1625H4.62511V45.3916H5.39596ZM5.39596 44.6208V45.3916H4.62511V44.6208H5.39596ZM5.39596 43.8499V44.6208H4.62511V43.8499H5.39596ZM5.39596 43.0791V43.8499H4.62511V43.0791H5.39596ZM5.39596 42.3082V43.0791H4.62511V42.3082H5.39596ZM5.39596 41.5374V42.3082H4.62511V41.5374H5.39596ZM5.39596 40.7665V41.5374H4.62511V40.7665H5.39596ZM4.62511 40.7665V41.5374H3.85426V40.7665H4.62511ZM4.62511 39.9957V40.7665H3.85426V39.9957H4.62511ZM4.62511 41.5374V42.3082H3.85426V41.5374H4.62511ZM4.62511 42.3082V43.0791H3.85426V42.3082H4.62511ZM4.62511 43.0791V43.8499H3.85426V43.0791H4.62511ZM4.62511 43.8499V44.6208H3.85426V43.8499H4.62511ZM4.62511 44.6208V45.3916H3.85426V44.6208H4.62511ZM4.62511 45.3916V46.1625H3.85426V45.3916H4.62511ZM3.08341 46.1625V46.9333H2.31256V46.1625H3.08341ZM3.08341 45.3916V46.1625H2.31256V45.3916H3.08341ZM3.08341 44.6208V45.3916H2.31256V44.6208H3.08341ZM3.08341 43.8499V44.6208H2.31256V43.8499H3.08341ZM3.08341 43.0791V43.8499H2.31256V43.0791H3.08341ZM3.08341 42.3082V43.0791H2.31256V42.3082H3.08341ZM3.08341 41.5374V42.3082H2.31256V41.5374H3.08341ZM3.08341 40.7665V41.5374H2.31256V40.7665H3.08341ZM2.31256 27.662V28.4329H1.5417V27.662H2.31256ZM2.31256 28.4329V29.2038H1.5417V28.4329H2.31256ZM2.31256 29.2038V29.9746H1.5417V29.2038H2.31256ZM2.31256 29.9746V30.7455H1.5417V29.9746H2.31256ZM2.31256 30.7455V31.5163H1.5417V30.7455H2.31256ZM2.31256 31.5163V32.2872H1.5417V31.5163H2.31256ZM2.31256 32.2872V33.058H1.5417V32.2872H2.31256ZM2.31256 33.058V33.8289H1.5417V33.058H2.31256ZM2.31256 33.8289V34.5997H1.5417V33.8289H2.31256ZM2.31256 34.5997V35.3706H1.5417V34.5997H2.31256ZM4.62511 27.662V28.4329H3.85426V27.662H4.62511ZM4.62511 28.4329V29.2038H3.85426V28.4329H4.62511ZM4.62511 29.2038V29.9746H3.85426V29.2038H4.62511ZM4.62511 29.9746V30.7455H3.85426V29.9746H4.62511ZM4.62511 30.7455V31.5163H3.85426V30.7455H4.62511ZM4.62511 31.5163V32.2872H3.85426V31.5163H4.62511ZM4.62511 33.058V33.8289H3.85426V33.058H4.62511ZM4.62511 33.8289V34.5997H3.85426V33.8289H4.62511ZM4.62511 34.5997V35.3706H3.85426V34.5997H4.62511ZM4.62511 35.3706V36.1414H3.85426V35.3706H4.62511ZM4.62511 36.1414V36.9123H3.85426V36.1414H4.62511ZM4.62511 36.9123V37.6831H3.85426V36.9123H4.62511ZM4.62511 37.6831V38.454H3.85426V37.6831H4.62511ZM5.39596 38.454V39.2248H4.62511V38.454H5.39596ZM5.39596 39.2248V39.9957H4.62511V39.2248H5.39596ZM5.39596 39.9957V40.7665H4.62511V39.9957H5.39596ZM5.39596 37.6831V38.454H4.62511V37.6831H5.39596ZM5.39596 36.9123V37.6831H4.62511V36.9123H5.39596ZM5.39596 36.1414V36.9123H4.62511V36.1414H5.39596ZM5.39596 35.3706V36.1414H4.62511V35.3706H5.39596ZM5.39596 34.5997V35.3706H4.62511V34.5997H5.39596ZM5.39596 33.8289V34.5997H4.62511V33.8289H5.39596ZM5.39596 33.058V33.8289H4.62511V33.058H5.39596ZM5.39596 32.2872V33.058H4.62511V32.2872H5.39596ZM5.39596 31.5163V32.2872H4.62511V31.5163H5.39596ZM5.39596 30.7455V31.5163H4.62511V30.7455H5.39596ZM4.62511 32.2872V33.058H3.85426V32.2872H4.62511ZM5.39596 29.9746V30.7455H4.62511V29.9746H5.39596ZM5.39596 29.2038V29.9746H4.62511V29.2038H5.39596ZM5.39596 28.4329V29.2038H4.62511V28.4329H5.39596ZM5.39596 27.662V28.4329H4.62511V27.662H5.39596ZM3.85426 27.662V28.4329H3.08341V27.662H3.85426ZM3.08341 27.662V28.4329H2.31256V27.662H3.08341ZM3.08341 28.4329V29.2038H2.31256V28.4329H3.08341ZM3.85426 28.4329V29.2038H3.08341V28.4329H3.85426ZM3.85426 29.2038V29.9746H3.08341V29.2038H3.85426ZM3.85426 29.9746V30.7455H3.08341V29.9746H3.85426ZM3.85426 30.7455V31.5163H3.08341V30.7455H3.85426ZM3.85426 31.5163V32.2872H3.08341V31.5163H3.85426ZM3.85426 32.2872V33.058H3.08341V32.2872H3.85426ZM3.85426 33.058V33.8289H3.08341V33.058H3.85426ZM3.08341 33.8289V34.5997H2.31256V33.8289H3.08341ZM3.08341 34.5997V35.3706H2.31256V34.5997H3.08341ZM3.08341 33.058V33.8289H2.31256V33.058H3.08341ZM3.08341 32.2872V33.058H2.31256V32.2872H3.08341ZM3.08341 31.5163V32.2872H2.31256V31.5163H3.08341ZM3.08341 30.7455V31.5163H2.31256V30.7455H3.08341ZM3.08341 29.9746V30.7455H2.31256V29.9746H3.08341ZM3.08341 29.2038V29.9746H2.31256V29.2038H3.08341ZM3.85426 33.8289V34.5997H3.08341V33.8289H3.85426ZM3.85426 34.5997V35.3706H3.08341V34.5997H3.85426ZM3.85426 35.3706V36.1414H3.08341V35.3706H3.85426ZM3.85426 36.1414V36.9123H3.08341V36.1414H3.85426ZM3.85426 36.9123V37.6831H3.08341V36.9123H3.85426ZM3.85426 37.6831V38.454H3.08341V37.6831H3.85426ZM3.85426 38.454V39.2248H3.08341V38.454H3.85426ZM3.85426 39.2248V39.9957H3.08341V39.2248H3.85426ZM3.85426 39.9957V40.7665H3.08341V39.9957H3.85426ZM4.62511 39.2248V39.9957H3.85426V39.2248H4.62511ZM4.62511 38.454V39.2248H3.85426V38.454H4.62511ZM9.257 46.1625V46.9333H8.48615V46.1625H9.257ZM9.257 45.3916V46.1625H8.48615V45.3916H9.257ZM9.257 44.6208V45.3916H8.48615V44.6208H9.257ZM9.257 43.8499V44.6208H8.48615V43.8499H9.257ZM9.257 43.0791V43.8499H8.48615V43.0791H9.257ZM9.257 42.3082V43.0791H8.48615V42.3082H9.257ZM9.257 41.5374V42.3082H8.48615V41.5374H9.257ZM9.257 40.7665V41.5374H8.48615V40.7665H9.257ZM9.257 39.9957V40.7665H8.48615V39.9957H9.257ZM9.257 39.2248V39.9957H8.48615V39.2248H9.257ZM9.257 38.454V39.2248H8.48615V38.454H9.257ZM9.257 37.6831V38.454H8.48615V37.6831H9.257ZM9.257 36.9123V37.6831H8.48615V36.9123H9.257ZM9.257 36.1414V36.9123H8.48615V36.1414H9.257ZM9.257 35.3706V36.1414H8.48615V35.3706H9.257ZM10.0279 35.3706V36.1414H9.257V35.3706H10.0279ZM10.0279 36.1414V36.9123H9.257V36.1414H10.0279ZM10.0279 36.9123V37.6831H9.257V36.9123H10.0279ZM10.0279 37.6831V38.454H9.257V37.6831H10.0279ZM10.0279 38.454V39.2248H9.257V38.454H10.0279ZM10.0279 39.2248V39.9957H9.257V39.2248H10.0279ZM10.0279 39.9957V40.7665H9.257V39.9957H10.0279ZM10.7987 40.7665V41.5374H10.0279V40.7665H10.7987ZM10.7987 41.5374V42.3082H10.0279V41.5374H10.7987ZM10.7987 42.3082V43.0791H10.0279V42.3082H10.7987ZM10.7987 43.0791V43.8499H10.0279V43.0791H10.7987ZM10.7987 43.8499V44.6208H10.0279V43.8499H10.7987ZM10.7987 44.6208V45.3916H10.0279V44.6208H10.7987ZM10.7987 45.3916V46.1625H10.0279V45.3916H10.7987ZM10.7987 46.1625V46.9333H10.0279V46.1625H10.7987ZM11.5696 46.1625V46.9333H10.7987V46.1625H11.5696ZM12.3404 46.1625V46.9333H11.5696V46.1625H12.3404ZM12.3404 45.3916V46.1625H11.5696V45.3916H12.3404ZM12.3404 44.6208V45.3916H11.5696V44.6208H12.3404ZM12.3404 43.8499V44.6208H11.5696V43.8499H12.3404ZM12.3404 43.0791V43.8499H11.5696V43.0791H12.3404ZM12.3404 42.3082V43.0791H11.5696V42.3082H12.3404ZM12.3404 41.5374V42.3082H11.5696V41.5374H12.3404ZM12.3404 40.7665V41.5374H11.5696V40.7665H12.3404ZM11.5696 40.7665V41.5374H10.7987V40.7665H11.5696ZM11.5696 39.9957V40.7665H10.7987V39.9957H11.5696ZM11.5696 41.5374V42.3082H10.7987V41.5374H11.5696ZM11.5696 42.3082V43.0791H10.7987V42.3082H11.5696ZM11.5696 43.0791V43.8499H10.7987V43.0791H11.5696ZM11.5696 43.8499V44.6208H10.7987V43.8499H11.5696ZM11.5696 44.6208V45.3916H10.7987V44.6208H11.5696ZM11.5696 45.3916V46.1625H10.7987V45.3916H11.5696ZM10.0279 46.1625V46.9333H9.257V46.1625H10.0279ZM10.0279 45.3916V46.1625H9.257V45.3916H10.0279ZM10.0279 44.6208V45.3916H9.257V44.6208H10.0279ZM10.0279 43.8499V44.6208H9.257V43.8499H10.0279ZM10.0279 43.0791V43.8499H9.257V43.0791H10.0279ZM10.0279 42.3082V43.0791H9.257V42.3082H10.0279ZM10.0279 41.5374V42.3082H9.257V41.5374H10.0279ZM10.0279 40.7665V41.5374H9.257V40.7665H10.0279ZM9.257 32.2872V33.058H8.48615V32.2872H9.257ZM9.257 33.058V33.8289H8.48615V33.058H9.257ZM9.257 33.8289V34.5997H8.48615V33.8289H9.257ZM9.257 34.5997V35.3706H8.48615V34.5997H9.257ZM11.5696 33.058V33.8289H10.7987V33.058H11.5696ZM11.5696 33.8289V34.5997H10.7987V33.8289H11.5696ZM11.5696 34.5997V35.3706H10.7987V34.5997H11.5696ZM11.5696 35.3706V36.1414H10.7987V35.3706H11.5696ZM11.5696 36.1414V36.9123H10.7987V36.1414H11.5696ZM11.5696 36.9123V37.6831H10.7987V36.9123H11.5696ZM11.5696 37.6831V38.454H10.7987V37.6831H11.5696ZM12.3404 38.454V39.2248H11.5696V38.454H12.3404ZM12.3404 39.2248V39.9957H11.5696V39.2248H12.3404ZM12.3404 39.9957V40.7665H11.5696V39.9957H12.3404ZM12.3404 37.6831V38.454H11.5696V37.6831H12.3404ZM12.3404 36.9123V37.6831H11.5696V36.9123H12.3404ZM12.3404 36.1414V36.9123H11.5696V36.1414H12.3404ZM12.3404 35.3706V36.1414H11.5696V35.3706H12.3404ZM12.3404 34.5997V35.3706H11.5696V34.5997H12.3404ZM12.3404 33.8289V34.5997H11.5696V33.8289H12.3404ZM12.3404 33.058V33.8289H11.5696V33.058H12.3404ZM12.3404 32.2872V33.058H11.5696V32.2872H12.3404ZM11.5696 32.2872V33.058H10.7987V32.2872H11.5696ZM10.7987 32.2872V33.058H10.0279V32.2872H10.7987ZM10.7987 33.058V33.8289H10.0279V33.058H10.7987ZM10.0279 33.8289V34.5997H9.257V33.8289H10.0279ZM10.0279 34.5997V35.3706H9.257V34.5997H10.0279ZM10.0279 33.058V33.8289H9.257V33.058H10.0279ZM10.0279 32.2872V33.058H9.257V32.2872H10.0279ZM10.7987 33.8289V34.5997H10.0279V33.8289H10.7987ZM10.7987 34.5997V35.3706H10.0279V34.5997H10.7987ZM10.7987 35.3706V36.1414H10.0279V35.3706H10.7987ZM10.7987 36.1414V36.9123H10.0279V36.1414H10.7987ZM10.7987 36.9123V37.6831H10.0279V36.9123H10.7987ZM10.7987 37.6831V38.454H10.0279V37.6831H10.7987ZM10.7987 38.454V39.2248H10.0279V38.454H10.7987ZM10.7987 39.2248V39.9957H10.0279V39.2248H10.7987ZM10.7987 39.9957V40.7665H10.0279V39.9957H10.7987ZM11.5696 39.2248V39.9957H10.7987V39.2248H11.5696ZM11.5696 38.454V39.2248H10.7987V38.454H11.5696ZM17.7364 46.1625V46.9333H16.9655V46.1625H17.7364ZM18.5072 46.1625V46.9333H17.7364V46.1625H18.5072ZM19.2781 46.1625V46.9333H18.5072V46.1625H19.2781ZM20.0489 46.1625V46.9333H19.2781V46.1625H20.0489ZM20.8198 45.3916V46.1625H20.0489V45.3916H20.8198ZM20.8198 44.6208V45.3916H20.0489V44.6208H20.8198ZM20.8198 46.1625V46.9333H20.0489V46.1625H20.8198ZM20.0489 45.3916V46.1625H19.2781V45.3916H20.0489ZM19.2781 45.3916V46.1625H18.5072V45.3916H19.2781ZM18.5072 45.3916V46.1625H17.7364V45.3916H18.5072ZM17.7364 45.3916V46.1625H16.9655V45.3916H17.7364ZM17.7364 44.6208V45.3916H16.9655V44.6208H17.7364ZM17.7364 43.8499V44.6208H16.9655V43.8499H17.7364ZM18.5072 43.8499V44.6208H17.7364V43.8499H18.5072ZM19.2781 43.8499V44.6208H18.5072V43.8499H19.2781ZM20.0489 43.8499V44.6208H19.2781V43.8499H20.0489ZM20.8198 43.8499V44.6208H20.0489V43.8499H20.8198ZM20.0489 44.6208V45.3916H19.2781V44.6208H20.0489ZM19.2781 44.6208V45.3916H18.5072V44.6208H19.2781ZM18.5072 44.6208V45.3916H17.7364V44.6208H18.5072ZM20.8198 35.3706V36.1414H20.0489V35.3706H20.8198ZM20.0489 35.3706V36.1414H19.2781V35.3706H20.0489ZM18.5072 35.3706V36.1414H17.7364V35.3706H18.5072ZM18.5072 36.1414V36.9123H17.7364V36.1414H18.5072ZM18.5072 36.9123V37.6831H17.7364V36.9123H18.5072ZM17.7364 37.6831V38.454H16.9655V37.6831H17.7364ZM17.7364 38.454V39.2248H16.9655V38.454H17.7364ZM17.7364 39.2248V39.9957H16.9655V39.2248H17.7364ZM17.7364 39.9957V40.7665H16.9655V39.9957H17.7364ZM17.7364 40.7665V41.5374H16.9655V40.7665H17.7364ZM17.7364 41.5374V42.3082H16.9655V41.5374H17.7364ZM17.7364 42.3082V43.0791H16.9655V42.3082H17.7364ZM17.7364 43.0791V43.8499H16.9655V43.0791H17.7364ZM18.5072 43.0791V43.8499H17.7364V43.0791H18.5072ZM19.2781 43.0791V43.8499H18.5072V43.0791H19.2781ZM20.0489 43.0791V43.8499H19.2781V43.0791H20.0489ZM20.8198 43.0791V43.8499H20.0489V43.0791H20.8198ZM20.8198 42.3082V43.0791H20.0489V42.3082H20.8198ZM20.8198 40.7665V41.5374H20.0489V40.7665H20.8198ZM20.8198 39.9957V40.7665H20.0489V39.9957H20.8198ZM20.8198 39.2248V39.9957H20.0489V39.2248H20.8198ZM20.8198 38.454V39.2248H20.0489V38.454H20.8198ZM20.8198 37.6831V38.454H20.0489V37.6831H20.8198ZM20.8198 36.9123V37.6831H20.0489V36.9123H20.8198ZM20.8198 36.1414V36.9123H20.0489V36.1414H20.8198ZM20.0489 39.2248V39.9957H19.2781V39.2248H20.0489ZM20.0489 40.7665V41.5374H19.2781V40.7665H20.0489ZM20.0489 41.5374V42.3082H19.2781V41.5374H20.0489ZM20.0489 42.3082V43.0791H19.2781V42.3082H20.0489ZM20.8198 41.5374V42.3082H20.0489V41.5374H20.8198ZM20.0489 37.6831V38.454H19.2781V37.6831H20.0489ZM19.2781 37.6831V38.454H18.5072V37.6831H19.2781ZM18.5072 37.6831V38.454H17.7364V37.6831H18.5072ZM18.5072 38.454V39.2248H17.7364V38.454H18.5072ZM18.5072 39.2248V39.9957H17.7364V39.2248H18.5072ZM18.5072 39.9957V40.7665H17.7364V39.9957H18.5072ZM18.5072 40.7665V41.5374H17.7364V40.7665H18.5072ZM18.5072 41.5374V42.3082H17.7364V41.5374H18.5072ZM18.5072 42.3082V43.0791H17.7364V42.3082H18.5072ZM19.2781 42.3082V43.0791H18.5072V42.3082H19.2781ZM19.2781 41.5374V42.3082H18.5072V41.5374H19.2781ZM19.2781 40.7665V41.5374H18.5072V40.7665H19.2781ZM19.2781 39.9957V40.7665H18.5072V39.9957H19.2781ZM19.2781 39.2248V39.9957H18.5072V39.2248H19.2781ZM19.2781 38.454V39.2248H18.5072V38.454H19.2781ZM20.0489 38.454V39.2248H19.2781V38.454H20.0489ZM20.0489 39.9957V40.7665H19.2781V39.9957H20.0489ZM20.0489 36.9123V37.6831H19.2781V36.9123H20.0489ZM20.0489 36.1414V36.9123H19.2781V36.1414H20.0489ZM19.2781 36.1414V36.9123H18.5072V36.1414H19.2781ZM19.2781 36.9123V37.6831H18.5072V36.9123H19.2781ZM17.7364 36.9123V37.6831H16.9655V36.9123H17.7364ZM17.7364 36.1414V36.9123H16.9655V36.1414H17.7364ZM17.7364 35.3706V36.1414H16.9655V35.3706H17.7364ZM19.2781 35.3706V36.1414H18.5072V35.3706H19.2781ZM17.7364 32.2872V33.058H16.9655V32.2872H17.7364ZM17.7364 33.058V33.8289H16.9655V33.058H17.7364ZM18.5072 33.058V33.8289H17.7364V33.058H18.5072ZM19.2781 33.058V33.8289H18.5072V33.058H19.2781ZM19.2781 33.8289V34.5997H18.5072V33.8289H19.2781ZM20.0489 33.8289V34.5997H19.2781V33.8289H20.0489ZM20.0489 34.5997V35.3706H19.2781V34.5997H20.0489ZM19.2781 34.5997V35.3706H18.5072V34.5997H19.2781ZM18.5072 34.5997V35.3706H17.7364V34.5997H18.5072ZM18.5072 33.8289V34.5997H17.7364V33.8289H18.5072ZM17.7364 33.8289V34.5997H16.9655V33.8289H17.7364ZM16.9655 33.8289V34.5997H16.1947V33.8289H16.9655ZM16.9655 34.5997V35.3706H16.1947V34.5997H16.9655ZM17.7364 34.5997V35.3706H16.9655V34.5997H17.7364ZM16.9655 35.3706V36.1414H16.1947V35.3706H16.9655ZM16.1947 34.5997V35.3706H15.4238V34.5997H16.1947ZM16.1947 33.8289V34.5997H15.4238V33.8289H16.1947ZM16.1947 33.058V33.8289H15.4238V33.058H16.1947ZM16.1947 32.2872V33.058H15.4238V32.2872H16.1947ZM16.9655 32.2872V33.058H16.1947V32.2872H16.9655ZM16.9655 33.058V33.8289H16.1947V33.058H16.9655ZM15.4238 32.2872V33.058H14.653V32.2872H15.4238ZM15.4238 33.058V33.8289H14.653V33.058H15.4238ZM15.4238 33.8289V34.5997H14.653V33.8289H15.4238ZM15.4238 34.5997V35.3706H14.653V34.5997H15.4238ZM14.653 32.2872V33.058H13.8821V32.2872H14.653ZM14.653 33.058V33.8289H13.8821V33.058H14.653ZM13.8821 33.058V33.8289H13.1113V33.058H13.8821ZM13.8821 33.8289V34.5997H13.1113V33.8289H13.8821ZM13.1113 33.8289V34.5997H12.3404V33.8289H13.1113ZM13.1113 34.5997V35.3706H12.3404V34.5997H13.1113ZM13.8821 34.5997V35.3706H13.1113V34.5997H13.8821ZM14.653 34.5997V35.3706H13.8821V34.5997H14.653ZM14.653 33.8289V34.5997H13.8821V33.8289H14.653ZM13.1113 35.3706V36.1414H12.3404V35.3706H13.1113ZM13.8821 32.2872V33.058H13.1113V32.2872H13.8821ZM13.1113 33.058V33.8289H12.3404V33.058H13.1113ZM30.8552 34.5997V35.3706H30.0843V34.5997H30.8552ZM30.8552 33.8289V34.5997H30.0843V33.8289H30.8552ZM30.8552 33.058V33.8289H30.0843V33.058H30.8552ZM30.0843 33.058V33.8289H29.3135V33.058H30.0843ZM30.0843 32.2872V33.058H29.3135V32.2872H30.0843ZM30.0843 33.8289V34.5997H29.3135V33.8289H30.0843ZM29.3135 33.8289V34.5997H28.5426V33.8289H29.3135ZM29.3135 34.5997V35.3706H28.5426V34.5997H29.3135ZM30.0843 34.5997V35.3706H29.3135V34.5997H30.0843ZM28.5426 34.5997V35.3706H27.7718V34.5997H28.5426ZM28.5426 33.8289V34.5997H27.7718V33.8289H28.5426ZM28.5426 33.058V33.8289H27.7718V33.058H28.5426ZM28.5426 32.2872V33.058H27.7718V32.2872H28.5426ZM29.3135 32.2872V33.058H28.5426V32.2872H29.3135ZM29.3135 33.058V33.8289H28.5426V33.058H29.3135ZM27.7718 32.2872V33.058H27.0009V32.2872H27.7718ZM27.0009 32.2872V33.058H26.23V32.2872H27.0009ZM26.23 32.2872V33.058H25.4592V32.2872H26.23ZM26.23 33.058V33.8289H25.4592V33.058H26.23ZM26.23 33.8289V34.5997H25.4592V33.8289H26.23ZM26.23 34.5997V35.3706H25.4592V34.5997H26.23ZM27.0009 34.5997V35.3706H26.23V34.5997H27.0009ZM27.7718 34.5997V35.3706H27.0009V34.5997H27.7718ZM27.7718 33.8289V34.5997H27.0009V33.8289H27.7718ZM27.7718 33.058V33.8289H27.0009V33.058H27.7718ZM27.0009 33.058V33.8289H26.23V33.058H27.0009ZM27.0009 33.8289V34.5997H26.23V33.8289H27.0009ZM25.4592 33.8289V34.5997H24.6883V33.8289H25.4592ZM25.4592 33.058V33.8289H24.6883V33.058H25.4592ZM24.6883 33.058V33.8289H23.9175V33.058H24.6883ZM24.6883 33.8289V34.5997H23.9175V33.8289H24.6883ZM23.9175 33.8289V34.5997H23.1466V33.8289H23.9175ZM23.9175 34.5997V35.3706H23.1466V34.5997H23.9175ZM23.9175 35.3706V36.1414H23.1466V35.3706H23.9175ZM24.6883 35.3706V36.1414H23.9175V35.3706H24.6883ZM24.6883 34.5997V35.3706H23.9175V34.5997H24.6883ZM25.4592 34.5997V35.3706H24.6883V34.5997H25.4592ZM25.4592 35.3706V36.1414H24.6883V35.3706H25.4592ZM26.23 35.3706V36.1414H25.4592V35.3706H26.23ZM27.0009 35.3706V36.1414H26.23V35.3706H27.0009ZM23.1466 35.3706V36.1414H22.3758V35.3706H23.1466ZM23.1466 36.1414V36.9123H22.3758V36.1414H23.1466ZM23.1466 36.9123V37.6831H22.3758V36.9123H23.1466ZM23.1466 37.6831V38.454H22.3758V37.6831H23.1466ZM23.1466 38.454V39.2248H22.3758V38.454H23.1466ZM23.1466 39.2248V39.9957H22.3758V39.2248H23.1466ZM23.1466 39.9957V40.7665H22.3758V39.9957H23.1466ZM23.1466 40.7665V41.5374H22.3758V40.7665H23.1466ZM23.1466 41.5374V42.3082H22.3758V41.5374H23.1466ZM23.1466 42.3082V43.0791H22.3758V42.3082H23.1466ZM23.9175 42.3082V43.0791H23.1466V42.3082H23.9175ZM23.9175 43.0791V43.8499H23.1466V43.0791H23.9175ZM23.1466 43.0791V43.8499H22.3758V43.0791H23.1466ZM24.6883 43.0791V43.8499H23.9175V43.0791H24.6883ZM25.4592 43.0791V43.8499H24.6883V43.0791H25.4592ZM26.23 43.0791V43.8499H25.4592V43.0791H26.23ZM27.0009 43.0791V43.8499H26.23V43.0791H27.0009ZM26.23 42.3082V43.0791H25.4592V42.3082H26.23ZM26.23 41.5374V42.3082H25.4592V41.5374H26.23ZM26.23 40.7665V41.5374H25.4592V40.7665H26.23ZM26.23 39.9957V40.7665H25.4592V39.9957H26.23ZM26.23 39.2248V39.9957H25.4592V39.2248H26.23ZM26.23 38.454V39.2248H25.4592V38.454H26.23ZM26.23 37.6831V38.454H25.4592V37.6831H26.23ZM26.23 36.9123V37.6831H25.4592V36.9123H26.23ZM26.23 36.1414V36.9123H25.4592V36.1414H26.23ZM25.4592 36.1414V36.9123H24.6883V36.1414H25.4592ZM24.6883 36.1414V36.9123H23.9175V36.1414H24.6883ZM23.9175 36.1414V36.9123H23.1466V36.1414H23.9175ZM23.9175 36.9123V37.6831H23.1466V36.9123H23.9175ZM23.9175 37.6831V38.454H23.1466V37.6831H23.9175ZM23.9175 38.454V39.2248H23.1466V38.454H23.9175ZM23.9175 39.2248V39.9957H23.1466V39.2248H23.9175ZM23.9175 39.9957V40.7665H23.1466V39.9957H23.9175ZM23.9175 40.7665V41.5374H23.1466V40.7665H23.9175ZM23.9175 41.5374V42.3082H23.1466V41.5374H23.9175ZM24.6883 42.3082V43.0791H23.9175V42.3082H24.6883ZM25.4592 42.3082V43.0791H24.6883V42.3082H25.4592ZM25.4592 41.5374V42.3082H24.6883V41.5374H25.4592ZM25.4592 40.7665V41.5374H24.6883V40.7665H25.4592ZM25.4592 39.9957V40.7665H24.6883V39.9957H25.4592ZM25.4592 39.2248V39.9957H24.6883V39.2248H25.4592ZM24.6883 39.2248V39.9957H23.9175V39.2248H24.6883ZM24.6883 38.454V39.2248H23.9175V38.454H24.6883ZM24.6883 37.6831V38.454H23.9175V37.6831H24.6883ZM24.6883 36.9123V37.6831H23.9175V36.9123H24.6883ZM25.4592 36.9123V37.6831H24.6883V36.9123H25.4592ZM25.4592 37.6831V38.454H24.6883V37.6831H25.4592ZM25.4592 38.454V39.2248H24.6883V38.454H25.4592ZM24.6883 40.7665V41.5374H23.9175V40.7665H24.6883ZM24.6883 41.5374V42.3082H23.9175V41.5374H24.6883ZM24.6883 39.9957V40.7665H23.9175V39.9957H24.6883ZM30.8552 43.8499V44.6208H30.0843V43.8499H30.8552ZM30.0843 46.1625V46.9333H29.3135V46.1625H30.0843ZM29.3135 46.1625V46.9333H28.5426V46.1625H29.3135ZM28.5426 46.1625V46.9333H27.7718V46.1625H28.5426ZM27.7718 46.1625V46.9333H27.0009V46.1625H27.7718ZM27.0009 46.1625V46.9333H26.23V46.1625H27.0009ZM26.23 46.1625V46.9333H25.4592V46.1625H26.23ZM27.0009 45.3916V46.1625H26.23V45.3916H27.0009ZM27.7718 45.3916V46.1625H27.0009V45.3916H27.7718ZM28.5426 45.3916V46.1625H27.7718V45.3916H28.5426ZM29.3135 45.3916V46.1625H28.5426V45.3916H29.3135ZM30.0843 45.3916V46.1625H29.3135V45.3916H30.0843ZM30.8552 45.3916V46.1625H30.0843V45.3916H30.8552ZM30.8552 44.6208V45.3916H30.0843V44.6208H30.8552ZM30.0843 44.6208V45.3916H29.3135V44.6208H30.0843ZM29.3135 44.6208V45.3916H28.5426V44.6208H29.3135ZM28.5426 44.6208V45.3916H27.7718V44.6208H28.5426ZM27.7718 44.6208V45.3916H27.0009V44.6208H27.7718ZM27.0009 44.6208V45.3916H26.23V44.6208H27.0009ZM26.23 45.3916V46.1625H25.4592V45.3916H26.23ZM25.4592 45.3916V46.1625H24.6883V45.3916H25.4592ZM24.6883 45.3916V46.1625H23.9175V45.3916H24.6883ZM24.6883 44.6208V45.3916H23.9175V44.6208H24.6883ZM23.9175 44.6208V45.3916H23.1466V44.6208H23.9175ZM23.9175 43.8499V44.6208H23.1466V43.8499H23.9175ZM24.6883 43.8499V44.6208H23.9175V43.8499H24.6883ZM25.4592 43.8499V44.6208H24.6883V43.8499H25.4592ZM26.23 43.8499V44.6208H25.4592V43.8499H26.23ZM27.0009 43.8499V44.6208H26.23V43.8499H27.0009ZM27.7718 43.8499V44.6208H27.0009V43.8499H27.7718ZM28.5426 43.8499V44.6208H27.7718V43.8499H28.5426ZM29.3135 43.8499V44.6208H28.5426V43.8499H29.3135ZM30.0843 43.8499V44.6208H29.3135V43.8499H30.0843ZM26.23 44.6208V45.3916H25.4592V44.6208H26.23ZM25.4592 44.6208V45.3916H24.6883V44.6208H25.4592ZM31.626 44.6208V45.3916H30.8552V44.6208H31.626ZM31.626 43.8499V44.6208H30.8552V43.8499H31.626ZM31.626 43.0791V43.8499H30.8552V43.0791H31.626ZM31.626 42.3082V43.0791H30.8552V42.3082H31.626ZM31.626 41.5374V42.3082H30.8552V41.5374H31.626ZM31.626 40.7665V41.5374H30.8552V40.7665H31.626ZM31.626 39.9957V40.7665H30.8552V39.9957H31.626ZM31.626 39.2248V39.9957H30.8552V39.2248H31.626ZM31.626 38.454V39.2248H30.8552V38.454H31.626ZM31.626 37.6831V38.454H30.8552V37.6831H31.626ZM31.626 36.9123V37.6831H30.8552V36.9123H31.626ZM31.626 36.1414V36.9123H30.8552V36.1414H31.626ZM31.626 35.3706V36.1414H30.8552V35.3706H31.626ZM32.3969 35.3706V36.1414H31.626V35.3706H32.3969ZM32.3969 36.1414V36.9123H31.626V36.1414H32.3969ZM32.3969 36.9123V37.6831H31.626V36.9123H32.3969ZM32.3969 37.6831V38.454H31.626V37.6831H32.3969ZM32.3969 38.454V39.2248H31.626V38.454H32.3969ZM32.3969 39.2248V39.9957H31.626V39.2248H32.3969ZM32.3969 39.9957V40.7665H31.626V39.9957H32.3969ZM33.1677 40.7665V41.5374H32.3969V40.7665H33.1677ZM33.1677 41.5374V42.3082H32.3969V41.5374H33.1677ZM33.1677 42.3082V43.0791H32.3969V42.3082H33.1677ZM33.1677 43.0791V43.8499H32.3969V43.0791H33.1677ZM33.1677 43.8499V44.6208H32.3969V43.8499H33.1677ZM33.1677 44.6208V45.3916H32.3969V44.6208H33.1677ZM33.1677 45.3916V46.1625H32.3969V45.3916H33.1677ZM33.1677 46.1625V46.9333H32.3969V46.1625H33.1677ZM33.9386 46.1625V46.9333H33.1677V46.1625H33.9386ZM34.7094 46.1625V46.9333H33.9386V46.1625H34.7094ZM34.7094 45.3916V46.1625H33.9386V45.3916H34.7094ZM34.7094 44.6208V45.3916H33.9386V44.6208H34.7094ZM34.7094 43.8499V44.6208H33.9386V43.8499H34.7094ZM34.7094 43.0791V43.8499H33.9386V43.0791H34.7094ZM34.7094 42.3082V43.0791H33.9386V42.3082H34.7094ZM34.7094 41.5374V42.3082H33.9386V41.5374H34.7094ZM34.7094 40.7665V41.5374H33.9386V40.7665H34.7094ZM33.9386 40.7665V41.5374H33.1677V40.7665H33.9386ZM33.9386 39.9957V40.7665H33.1677V39.9957H33.9386ZM33.9386 41.5374V42.3082H33.1677V41.5374H33.9386ZM33.9386 42.3082V43.0791H33.1677V42.3082H33.9386ZM33.9386 43.0791V43.8499H33.1677V43.0791H33.9386ZM33.9386 43.8499V44.6208H33.1677V43.8499H33.9386ZM33.9386 44.6208V45.3916H33.1677V44.6208H33.9386ZM33.9386 45.3916V46.1625H33.1677V45.3916H33.9386ZM32.3969 44.6208V45.3916H31.626V44.6208H32.3969ZM32.3969 43.8499V44.6208H31.626V43.8499H32.3969ZM32.3969 43.0791V43.8499H31.626V43.0791H32.3969ZM32.3969 42.3082V43.0791H31.626V42.3082H32.3969ZM32.3969 41.5374V42.3082H31.626V41.5374H32.3969ZM32.3969 40.7665V41.5374H31.626V40.7665H32.3969ZM31.626 27.662V28.4329H30.8552V27.662H31.626ZM31.626 28.4329V29.2038H30.8552V28.4329H31.626ZM31.626 29.2038V29.9746H30.8552V29.2038H31.626ZM31.626 29.9746V30.7455H30.8552V29.9746H31.626ZM31.626 30.7455V31.5163H30.8552V30.7455H31.626ZM31.626 31.5163V32.2872H30.8552V31.5163H31.626ZM31.626 33.058V33.8289H30.8552V33.058H31.626ZM31.626 34.5997V35.3706H30.8552V34.5997H31.626ZM33.9386 27.662V28.4329H33.1677V27.662H33.9386ZM33.9386 28.4329V29.2038H33.1677V28.4329H33.9386ZM33.9386 29.2038V29.9746H33.1677V29.2038H33.9386ZM33.9386 29.9746V30.7455H33.1677V29.9746H33.9386ZM33.9386 30.7455V31.5163H33.1677V30.7455H33.9386ZM33.9386 31.5163V32.2872H33.1677V31.5163H33.9386ZM33.9386 33.058V33.8289H33.1677V33.058H33.9386ZM33.9386 33.8289V34.5997H33.1677V33.8289H33.9386ZM33.9386 34.5997V35.3706H33.1677V34.5997H33.9386ZM33.9386 36.1414V36.9123H33.1677V36.1414H33.9386ZM33.9386 36.9123V37.6831H33.1677V36.9123H33.9386ZM33.9386 37.6831V38.454H33.1677V37.6831H33.9386ZM34.7094 38.454V39.2248H33.9386V38.454H34.7094ZM34.7094 39.2248V39.9957H33.9386V39.2248H34.7094ZM34.7094 39.9957V40.7665H33.9386V39.9957H34.7094ZM34.7094 37.6831V38.454H33.9386V37.6831H34.7094ZM34.7094 36.9123V37.6831H33.9386V36.9123H34.7094ZM34.7094 35.3706V36.1414H33.9386V35.3706H34.7094ZM34.7094 34.5997V35.3706H33.9386V34.5997H34.7094ZM34.7094 33.8289V34.5997H33.9386V33.8289H34.7094ZM34.7094 33.058V33.8289H33.9386V33.058H34.7094ZM34.7094 32.2872V33.058H33.9386V32.2872H34.7094ZM34.7094 31.5163V32.2872H33.9386V31.5163H34.7094ZM34.7094 30.7455V31.5163H33.9386V30.7455H34.7094ZM33.9386 32.2872V33.058H33.1677V32.2872H33.9386ZM34.7094 29.9746V30.7455H33.9386V29.9746H34.7094ZM34.7094 29.2038V29.9746H33.9386V29.2038H34.7094ZM34.7094 28.4329V29.2038H33.9386V28.4329H34.7094ZM34.7094 27.662V28.4329H33.9386V27.662H34.7094ZM33.1677 27.662V28.4329H32.3969V27.662H33.1677ZM32.3969 27.662V28.4329H31.626V27.662H32.3969ZM32.3969 28.4329V29.2038H31.626V28.4329H32.3969ZM33.1677 28.4329V29.2038H32.3969V28.4329H33.1677ZM33.1677 29.2038V29.9746H32.3969V29.2038H33.1677ZM33.1677 29.9746V30.7455H32.3969V29.9746H33.1677ZM33.1677 30.7455V31.5163H32.3969V30.7455H33.1677ZM33.1677 31.5163V32.2872H32.3969V31.5163H33.1677ZM33.1677 32.2872V33.058H32.3969V32.2872H33.1677ZM33.1677 33.058V33.8289H32.3969V33.058H33.1677ZM32.3969 33.8289V34.5997H31.626V33.8289H32.3969ZM32.3969 34.5997V35.3706H31.626V34.5997H32.3969ZM32.3969 33.058V33.8289H31.626V33.058H32.3969ZM32.3969 32.2872V33.058H31.626V32.2872H32.3969ZM32.3969 31.5163V32.2872H31.626V31.5163H32.3969ZM32.3969 30.7455V31.5163H31.626V30.7455H32.3969ZM32.3969 29.9746V30.7455H31.626V29.9746H32.3969ZM32.3969 29.2038V29.9746H31.626V29.2038H32.3969ZM33.1677 34.5997V35.3706H32.3969V34.5997H33.1677ZM33.1677 36.1414V36.9123H32.3969V36.1414H33.1677ZM33.1677 36.9123V37.6831H32.3969V36.9123H33.1677ZM33.1677 37.6831V38.454H32.3969V37.6831H33.1677ZM33.1677 38.454V39.2248H32.3969V38.454H33.1677ZM33.1677 39.2248V39.9957H32.3969V39.2248H33.1677ZM33.1677 39.9957V40.7665H32.3969V39.9957H33.1677ZM33.9386 39.2248V39.9957H33.1677V39.2248H33.9386ZM33.9386 38.454V39.2248H33.1677V38.454H33.9386ZM31.626 32.2872V33.058H30.8552V32.2872H31.626ZM34.7094 36.1414V36.9123H33.9386V36.1414H34.7094ZM31.626 33.8289V34.5997H30.8552V33.8289H31.626ZM33.1677 33.8289V34.5997H32.3969V33.8289H33.1677ZM33.1677 35.3706V36.1414H32.3969V35.3706H33.1677ZM33.9386 35.3706V36.1414H33.1677V35.3706H33.9386ZM31.626 45.3916V46.1625H30.8552V45.3916H31.626ZM32.3969 45.3916V46.1625H31.626V45.3916H32.3969ZM32.3969 46.1625V46.9333H31.626V46.1625H32.3969ZM30.8552 32.2872V33.058H30.0843V32.2872H30.8552ZM30.8552 43.0791V43.8499H30.0843V43.0791H30.8552ZM31.626 46.1625V46.9333H30.8552V46.1625H31.626ZM46.2865 36.9123V37.6831H45.5157V36.9123H46.2865ZM47.0574 36.9123V37.6831H46.2865V36.9123H47.0574ZM47.8282 36.9123V37.6831H47.0574V36.9123H47.8282ZM48.5991 36.9123V37.6831H47.8282V36.9123H48.5991ZM49.3699 36.9123V37.6831H48.5991V36.9123H49.3699ZM49.3699 36.1414V36.9123H48.5991V36.1414H49.3699ZM49.3699 35.3706V36.1414H48.5991V35.3706H49.3699ZM48.5991 35.3706V36.1414H47.8282V35.3706H48.5991ZM47.8282 35.3706V36.1414H47.0574V35.3706H47.8282ZM47.0574 35.3706V36.1414H46.2865V35.3706H47.0574ZM47.0574 36.1414V36.9123H46.2865V36.1414H47.0574ZM46.2865 36.1414V36.9123H45.5157V36.1414H46.2865ZM47.8282 36.1414V36.9123H47.0574V36.1414H47.8282ZM48.5991 36.1414V36.9123H47.8282V36.1414H48.5991ZM46.2865 35.3706V36.1414H45.5157V35.3706H46.2865ZM45.5157 35.3706V36.1414H44.7448V35.3706H45.5157ZM45.5157 34.5997V35.3706H44.7448V34.5997H45.5157ZM46.2865 34.5997V35.3706H45.5157V34.5997H46.2865ZM47.0574 34.5997V35.3706H46.2865V34.5997H47.0574ZM47.8282 34.5997V35.3706H47.0574V34.5997H47.8282ZM48.5991 34.5997V35.3706H47.8282V34.5997H48.5991ZM48.5991 33.8289V34.5997H47.8282V33.8289H48.5991ZM47.8282 33.8289V34.5997H47.0574V33.8289H47.8282ZM47.0574 33.8289V34.5997H46.2865V33.8289H47.0574ZM46.2865 33.8289V34.5997H45.5157V33.8289H46.2865ZM45.5157 33.8289V34.5997H44.7448V33.8289H45.5157ZM47.0574 33.058V33.8289H46.2865V33.058H47.0574ZM47.8282 33.058V33.8289H47.0574V33.058H47.8282ZM46.2865 33.058V33.8289H45.5157V33.058H46.2865ZM46.2865 32.2872V33.058H45.5157V32.2872H46.2865ZM45.5157 32.2872V33.058H44.7448V32.2872H45.5157ZM45.5157 33.058V33.8289H44.7448V33.058H45.5157ZM44.7448 33.058V33.8289H43.974V33.058H44.7448ZM44.7448 32.2872V33.058H43.974V32.2872H44.7448ZM44.7448 33.8289V34.5997H43.974V33.8289H44.7448ZM43.974 33.8289V34.5997H43.2031V33.8289H43.974ZM43.974 34.5997V35.3706H43.2031V34.5997H43.974ZM44.7448 34.5997V35.3706H43.974V34.5997H44.7448ZM43.2031 34.5997V35.3706H42.4322V34.5997H43.2031ZM43.2031 33.8289V34.5997H42.4322V33.8289H43.2031ZM43.2031 33.058V33.8289H42.4322V33.058H43.2031ZM43.2031 32.2872V33.058H42.4322V32.2872H43.2031ZM43.974 32.2872V33.058H43.2031V32.2872H43.974ZM43.974 33.058V33.8289H43.2031V33.058H43.974ZM42.4322 32.2872V33.058H41.6614V32.2872H42.4322ZM41.6614 32.2872V33.058H40.8905V32.2872H41.6614ZM40.8905 32.2872V33.058H40.1197V32.2872H40.8905ZM40.8905 33.058V33.8289H40.1197V33.058H40.8905ZM40.8905 33.8289V34.5997H40.1197V33.8289H40.8905ZM40.8905 34.5997V35.3706H40.1197V34.5997H40.8905ZM41.6614 34.5997V35.3706H40.8905V34.5997H41.6614ZM42.4322 34.5997V35.3706H41.6614V34.5997H42.4322ZM42.4322 33.8289V34.5997H41.6614V33.8289H42.4322ZM42.4322 33.058V33.8289H41.6614V33.058H42.4322ZM41.6614 33.058V33.8289H40.8905V33.058H41.6614ZM41.6614 33.8289V34.5997H40.8905V33.8289H41.6614ZM40.1197 33.8289V34.5997H39.3488V33.8289H40.1197ZM40.1197 33.058V33.8289H39.3488V33.058H40.1197ZM39.3488 33.058V33.8289H38.578V33.058H39.3488ZM39.3488 33.8289V34.5997H38.578V33.8289H39.3488ZM38.578 33.8289V34.5997H37.8071V33.8289H38.578ZM38.578 34.5997V35.3706H37.8071V34.5997H38.578ZM38.578 35.3706V36.1414H37.8071V35.3706H38.578ZM39.3488 35.3706V36.1414H38.578V35.3706H39.3488ZM39.3488 34.5997V35.3706H38.578V34.5997H39.3488ZM40.1197 34.5997V35.3706H39.3488V34.5997H40.1197ZM40.1197 35.3706V36.1414H39.3488V35.3706H40.1197ZM40.8905 35.3706V36.1414H40.1197V35.3706H40.8905ZM41.6614 35.3706V36.1414H40.8905V35.3706H41.6614ZM37.8071 35.3706V36.1414H37.0363V35.3706H37.8071ZM37.8071 36.1414V36.9123H37.0363V36.1414H37.8071ZM37.8071 36.9123V37.6831H37.0363V36.9123H37.8071ZM37.8071 37.6831V38.454H37.0363V37.6831H37.8071ZM37.8071 38.454V39.2248H37.0363V38.454H37.8071ZM37.8071 39.2248V39.9957H37.0363V39.2248H37.8071ZM37.8071 39.9957V40.7665H37.0363V39.9957H37.8071ZM37.8071 40.7665V41.5374H37.0363V40.7665H37.8071ZM37.8071 41.5374V42.3082H37.0363V41.5374H37.8071ZM37.8071 42.3082V43.0791H37.0363V42.3082H37.8071ZM38.578 42.3082V43.0791H37.8071V42.3082H38.578ZM38.578 43.0791V43.8499H37.8071V43.0791H38.578ZM37.8071 43.0791V43.8499H37.0363V43.0791H37.8071ZM39.3488 43.0791V43.8499H38.578V43.0791H39.3488ZM40.1197 43.0791V43.8499H39.3488V43.0791H40.1197ZM40.8905 43.0791V43.8499H40.1197V43.0791H40.8905ZM41.6614 43.0791V43.8499H40.8905V43.0791H41.6614ZM40.8905 42.3082V43.0791H40.1197V42.3082H40.8905ZM40.8905 41.5374V42.3082H40.1197V41.5374H40.8905ZM40.8905 40.7665V41.5374H40.1197V40.7665H40.8905ZM40.8905 39.9957V40.7665H40.1197V39.9957H40.8905ZM40.8905 39.2248V39.9957H40.1197V39.2248H40.8905ZM40.8905 38.454V39.2248H40.1197V38.454H40.8905ZM40.8905 37.6831V38.454H40.1197V37.6831H40.8905ZM40.8905 36.9123V37.6831H40.1197V36.9123H40.8905ZM40.8905 36.1414V36.9123H40.1197V36.1414H40.8905ZM40.1197 36.1414V36.9123H39.3488V36.1414H40.1197ZM39.3488 36.1414V36.9123H38.578V36.1414H39.3488ZM38.578 36.1414V36.9123H37.8071V36.1414H38.578ZM38.578 36.9123V37.6831H37.8071V36.9123H38.578ZM38.578 37.6831V38.454H37.8071V37.6831H38.578ZM38.578 38.454V39.2248H37.8071V38.454H38.578ZM38.578 39.2248V39.9957H37.8071V39.2248H38.578ZM38.578 39.9957V40.7665H37.8071V39.9957H38.578ZM38.578 40.7665V41.5374H37.8071V40.7665H38.578ZM38.578 41.5374V42.3082H37.8071V41.5374H38.578ZM39.3488 42.3082V43.0791H38.578V42.3082H39.3488ZM40.1197 42.3082V43.0791H39.3488V42.3082H40.1197ZM40.1197 41.5374V42.3082H39.3488V41.5374H40.1197ZM40.1197 40.7665V41.5374H39.3488V40.7665H40.1197ZM40.1197 39.9957V40.7665H39.3488V39.9957H40.1197ZM40.1197 39.2248V39.9957H39.3488V39.2248H40.1197ZM39.3488 39.2248V39.9957H38.578V39.2248H39.3488ZM39.3488 38.454V39.2248H38.578V38.454H39.3488ZM39.3488 37.6831V38.454H38.578V37.6831H39.3488ZM39.3488 36.9123V37.6831H38.578V36.9123H39.3488ZM40.1197 36.9123V37.6831H39.3488V36.9123H40.1197ZM40.1197 37.6831V38.454H39.3488V37.6831H40.1197ZM40.1197 38.454V39.2248H39.3488V38.454H40.1197ZM39.3488 40.7665V41.5374H38.578V40.7665H39.3488ZM39.3488 41.5374V42.3082H38.578V41.5374H39.3488ZM39.3488 39.9957V40.7665H38.578V39.9957H39.3488ZM46.2865 42.3082V43.0791H45.5157V42.3082H46.2865ZM47.0574 42.3082V43.0791H46.2865V42.3082H47.0574ZM47.8282 42.3082V43.0791H47.0574V42.3082H47.8282ZM48.5991 42.3082V43.0791H47.8282V42.3082H48.5991ZM49.3699 42.3082V43.0791H48.5991V42.3082H49.3699ZM49.3699 43.0791V43.8499H48.5991V43.0791H49.3699ZM48.5991 43.0791V43.8499H47.8282V43.0791H48.5991ZM47.8282 43.0791V43.8499H47.0574V43.0791H47.8282ZM47.0574 43.0791V43.8499H46.2865V43.0791H47.0574ZM46.2865 43.0791V43.8499H45.5157V43.0791H46.2865ZM45.5157 43.0791V43.8499H44.7448V43.0791H45.5157ZM45.5157 43.8499V44.6208H44.7448V43.8499H45.5157ZM46.2865 43.8499V44.6208H45.5157V43.8499H46.2865ZM47.0574 43.8499V44.6208H46.2865V43.8499H47.0574ZM47.8282 43.8499V44.6208H47.0574V43.8499H47.8282ZM47.8282 44.6208V45.3916H47.0574V44.6208H47.8282ZM48.5991 44.6208V45.3916H47.8282V44.6208H48.5991ZM48.5991 43.8499V44.6208H47.8282V43.8499H48.5991ZM47.8282 45.3916V46.1625H47.0574V45.3916H47.8282ZM47.0574 45.3916V46.1625H46.2865V45.3916H47.0574ZM47.0574 44.6208V45.3916H46.2865V44.6208H47.0574ZM46.2865 44.6208V45.3916H45.5157V44.6208H46.2865ZM46.2865 45.3916V46.1625H45.5157V45.3916H46.2865ZM46.2865 46.1625V46.9333H45.5157V46.1625H46.2865ZM45.5157 46.1625V46.9333H44.7448V46.1625H45.5157ZM44.7448 46.1625V46.9333H43.974V46.1625H44.7448ZM43.974 46.1625V46.9333H43.2031V46.1625H43.974ZM43.2031 46.1625V46.9333H42.4322V46.1625H43.2031ZM42.4322 46.1625V46.9333H41.6614V46.1625H42.4322ZM41.6614 46.1625V46.9333H40.8905V46.1625H41.6614ZM40.8905 46.1625V46.9333H40.1197V46.1625H40.8905ZM41.6614 45.3916V46.1625H40.8905V45.3916H41.6614ZM42.4322 45.3916V46.1625H41.6614V45.3916H42.4322ZM43.2031 45.3916V46.1625H42.4322V45.3916H43.2031ZM43.974 45.3916V46.1625H43.2031V45.3916H43.974ZM44.7448 45.3916V46.1625H43.974V45.3916H44.7448ZM45.5157 45.3916V46.1625H44.7448V45.3916H45.5157ZM45.5157 44.6208V45.3916H44.7448V44.6208H45.5157ZM44.7448 44.6208V45.3916H43.974V44.6208H44.7448ZM43.974 44.6208V45.3916H43.2031V44.6208H43.974ZM43.2031 44.6208V45.3916H42.4322V44.6208H43.2031ZM42.4322 44.6208V45.3916H41.6614V44.6208H42.4322ZM41.6614 44.6208V45.3916H40.8905V44.6208H41.6614ZM40.8905 45.3916V46.1625H40.1197V45.3916H40.8905ZM40.1197 45.3916V46.1625H39.3488V45.3916H40.1197ZM39.3488 45.3916V46.1625H38.578V45.3916H39.3488ZM39.3488 44.6208V45.3916H38.578V44.6208H39.3488ZM38.578 44.6208V45.3916H37.8071V44.6208H38.578ZM38.578 43.8499V44.6208H37.8071V43.8499H38.578ZM39.3488 43.8499V44.6208H38.578V43.8499H39.3488ZM40.1197 43.8499V44.6208H39.3488V43.8499H40.1197ZM40.8905 43.8499V44.6208H40.1197V43.8499H40.8905ZM41.6614 43.8499V44.6208H40.8905V43.8499H41.6614ZM42.4322 43.8499V44.6208H41.6614V43.8499H42.4322ZM43.2031 43.8499V44.6208H42.4322V43.8499H43.2031ZM43.974 43.8499V44.6208H43.2031V43.8499H43.974ZM44.7448 43.8499V44.6208H43.974V43.8499H44.7448ZM40.8905 44.6208V45.3916H40.1197V44.6208H40.8905ZM40.1197 44.6208V45.3916H39.3488V44.6208H40.1197ZM49.3699 37.6831V38.454H48.5991V37.6831H49.3699ZM48.5991 37.6831V38.454H47.8282V37.6831H48.5991ZM47.8282 37.6831V38.454H47.0574V37.6831H47.8282ZM47.0574 37.6831V38.454H46.2865V37.6831H47.0574ZM46.2865 37.6831V38.454H45.5157V37.6831H46.2865ZM49.3699 38.454V39.2248H48.5991V38.454H49.3699ZM47.8282 38.454V39.2248H47.0574V38.454H47.8282ZM47.0574 38.454V39.2248H46.2865V38.454H47.0574ZM45.5157 38.454V39.2248H44.7448V38.454H45.5157ZM44.7448 38.454V39.2248H43.974V38.454H44.7448ZM43.974 38.454V39.2248H43.2031V38.454H43.974ZM43.2031 38.454V39.2248H42.4322V38.454H43.2031ZM42.4322 38.454V39.2248H41.6614V38.454H42.4322ZM41.6614 38.454V39.2248H40.8905V38.454H41.6614ZM46.2865 38.454V39.2248H45.5157V38.454H46.2865ZM48.5991 38.454V39.2248H47.8282V38.454H48.5991ZM49.3699 39.2248V39.9957H48.5991V39.2248H49.3699ZM48.5991 39.2248V39.9957H47.8282V39.2248H48.5991ZM47.8282 39.2248V39.9957H47.0574V39.2248H47.8282ZM47.0574 39.2248V39.9957H46.2865V39.2248H47.0574ZM46.2865 39.2248V39.9957H45.5157V39.2248H46.2865ZM45.5157 39.2248V39.9957H44.7448V39.2248H45.5157ZM44.7448 39.2248V39.9957H43.974V39.2248H44.7448ZM43.974 39.2248V39.9957H43.2031V39.2248H43.974ZM43.2031 39.2248V39.9957H42.4322V39.2248H43.2031ZM42.4322 39.2248V39.9957H41.6614V39.2248H42.4322ZM41.6614 39.2248V39.9957H40.8905V39.2248H41.6614ZM41.6614 39.9957V40.7665H40.8905V39.9957H41.6614ZM42.4322 39.9957V40.7665H41.6614V39.9957H42.4322ZM43.2031 39.9957V40.7665H42.4322V39.9957H43.2031ZM44.7448 39.9957V40.7665H43.974V39.9957H44.7448ZM45.5157 39.9957V40.7665H44.7448V39.9957H45.5157ZM46.2865 39.9957V40.7665H45.5157V39.9957H46.2865ZM47.0574 39.9957V40.7665H46.2865V39.9957H47.0574ZM47.8282 39.9957V40.7665H47.0574V39.9957H47.8282ZM48.5991 39.9957V40.7665H47.8282V39.9957H48.5991ZM49.3699 39.9957V40.7665H48.5991V39.9957H49.3699ZM43.974 39.9957V40.7665H43.2031V39.9957H43.974ZM52.4669 32.2872V33.058H51.696V32.2872H52.4669ZM53.2377 32.2872V33.058H52.4669V32.2872H53.2377ZM54.0086 32.2872V33.058H53.2377V32.2872H54.0086ZM54.0086 33.058V33.8289H53.2377V33.058H54.0086ZM54.7794 33.058V33.8289H54.0086V33.058H54.7794ZM55.5503 33.8289V34.5997H54.7794V33.8289H55.5503ZM55.5503 34.5997V35.3706H54.7794V34.5997H55.5503ZM55.5503 33.058V33.8289H54.7794V33.058H55.5503ZM55.5503 32.2872V33.058H54.7794V32.2872H55.5503ZM54.7794 32.2872V33.058H54.0086V32.2872H54.7794ZM53.2377 33.058V33.8289H52.4669V33.058H53.2377ZM53.2377 33.8289V34.5997H52.4669V33.8289H53.2377ZM52.4669 33.8289V34.5997H51.696V33.8289H52.4669ZM52.4669 33.058V33.8289H51.696V33.058H52.4669ZM52.4669 34.5997V35.3706H51.696V34.5997H52.4669ZM52.4669 35.3706V36.1414H51.696V35.3706H52.4669ZM52.4669 36.1414V36.9123H51.696V36.1414H52.4669ZM53.2377 36.1414V36.9123H52.4669V36.1414H53.2377ZM54.0086 36.1414V36.9123H53.2377V36.1414H54.0086ZM54.7794 36.1414V36.9123H54.0086V36.1414H54.7794ZM55.5503 36.1414V36.9123H54.7794V36.1414H55.5503ZM55.5503 35.3706V36.1414H54.7794V35.3706H55.5503ZM54.7794 35.3706V36.1414H54.0086V35.3706H54.7794ZM54.7794 34.5997V35.3706H54.0086V34.5997H54.7794ZM54.7794 33.8289V34.5997H54.0086V33.8289H54.7794ZM54.0086 33.8289V34.5997H53.2377V33.8289H54.0086ZM54.0086 34.5997V35.3706H53.2377V34.5997H54.0086ZM53.2377 34.5997V35.3706H52.4669V34.5997H53.2377ZM53.2377 35.3706V36.1414H52.4669V35.3706H53.2377ZM54.0086 35.3706V36.1414H53.2377V35.3706H54.0086ZM53.2377 36.9123V37.6831H52.4669V36.9123H53.2377ZM54.0086 36.9123V37.6831H53.2377V36.9123H54.0086ZM54.0086 37.6831V38.454H53.2377V37.6831H54.0086ZM54.7794 37.6831V38.454H54.0086V37.6831H54.7794ZM54.7794 38.454V39.2248H54.0086V38.454H54.7794ZM55.5503 38.454V39.2248H54.7794V38.454H55.5503ZM55.5503 39.2248V39.9957H54.7794V39.2248H55.5503ZM55.5503 39.9957V40.7665H54.7794V39.9957H55.5503ZM55.5503 40.7665V41.5374H54.7794V40.7665H55.5503ZM54.7794 40.7665V41.5374H54.0086V40.7665H54.7794ZM54.7794 39.9957V40.7665H54.0086V39.9957H54.7794ZM54.0086 41.5374V42.3082H53.2377V41.5374H54.0086ZM54.0086 40.7665V41.5374H53.2377V40.7665H54.0086ZM54.0086 42.3082V43.0791H53.2377V42.3082H54.0086ZM53.2377 42.3082V43.0791H52.4669V42.3082H53.2377ZM53.2377 41.5374V42.3082H52.4669V41.5374H53.2377ZM52.4669 42.3082V43.0791H51.696V42.3082H52.4669ZM54.0086 43.0791V43.8499H53.2377V43.0791H54.0086ZM54.7794 43.0791V43.8499H54.0086V43.0791H54.7794ZM55.5503 43.0791V43.8499H54.7794V43.0791H55.5503ZM55.5503 42.3082V43.0791H54.7794V42.3082H55.5503ZM56.3211 42.3082V43.0791H55.5503V42.3082H56.3211ZM56.3211 41.5374V42.3082H55.5503V41.5374H56.3211ZM57.092 41.5374V42.3082H56.3211V41.5374H57.092ZM57.092 40.7665V41.5374H56.3211V40.7665H57.092ZM57.8628 40.7665V41.5374H57.092V40.7665H57.8628ZM58.6337 40.7665V41.5374H57.8628V40.7665H58.6337ZM59.4045 40.7665V41.5374H58.6337V40.7665H59.4045ZM59.4045 41.5374V42.3082H58.6337V41.5374H59.4045ZM60.1754 41.5374V42.3082H59.4045V41.5374H60.1754ZM60.1754 42.3082V43.0791H59.4045V42.3082H60.1754ZM60.9462 42.3082V43.0791H60.1754V42.3082H60.9462ZM60.9462 43.0791V43.8499H60.1754V43.0791H60.9462ZM61.7171 43.0791V43.8499H60.9462V43.0791H61.7171ZM61.7171 42.3082V43.0791H60.9462V42.3082H61.7171ZM62.488 42.3082V43.0791H61.7171V42.3082H62.488ZM63.2588 42.3082V43.0791H62.488V42.3082H63.2588ZM64.0297 42.3082V43.0791H63.2588V42.3082H64.0297ZM64.0297 43.0791V43.8499H63.2588V43.0791H64.0297ZM63.2588 41.5374V42.3082H62.488V41.5374H63.2588ZM62.488 41.5374V42.3082H61.7171V41.5374H62.488ZM62.488 40.7665V41.5374H61.7171V40.7665H62.488ZM61.7171 40.7665V41.5374H60.9462V40.7665H61.7171ZM60.9462 40.7665V41.5374H60.1754V40.7665H60.9462ZM60.9462 39.9957V40.7665H60.1754V39.9957H60.9462ZM60.1754 40.7665V41.5374H59.4045V40.7665H60.1754ZM61.7171 41.5374V42.3082H60.9462V41.5374H61.7171ZM60.9462 41.5374V42.3082H60.1754V41.5374H60.9462ZM57.092 39.2248V39.9957H56.3211V39.2248H57.092ZM57.8628 39.2248V39.9957H57.092V39.2248H57.8628ZM58.6337 39.2248V39.9957H57.8628V39.2248H58.6337ZM59.4045 39.2248V39.9957H58.6337V39.2248H59.4045ZM60.1754 39.2248V39.9957H59.4045V39.2248H60.1754ZM60.9462 39.2248V39.9957H60.1754V39.2248H60.9462ZM60.1754 39.9957V40.7665H59.4045V39.9957H60.1754ZM59.4045 39.9957V40.7665H58.6337V39.9957H59.4045ZM58.6337 39.9957V40.7665H57.8628V39.9957H58.6337ZM57.8628 39.9957V40.7665H57.092V39.9957H57.8628ZM57.092 39.9957V40.7665H56.3211V39.9957H57.092ZM56.3211 39.9957V40.7665H55.5503V39.9957H56.3211ZM56.3211 39.2248V39.9957H55.5503V39.2248H56.3211ZM56.3211 40.7665V41.5374H55.5503V40.7665H56.3211ZM55.5503 41.5374V42.3082H54.7794V41.5374H55.5503ZM54.7794 42.3082V43.0791H54.0086V42.3082H54.7794ZM54.7794 41.5374V42.3082H54.0086V41.5374H54.7794ZM61.7171 39.9957V40.7665H60.9462V39.9957H61.7171ZM61.7171 38.454V39.2248H60.9462V38.454H61.7171ZM61.7171 37.6831V38.454H60.9462V37.6831H61.7171ZM62.488 37.6831V38.454H61.7171V37.6831H62.488ZM62.488 36.9123V37.6831H61.7171V36.9123H62.488ZM63.2588 36.9123V37.6831H62.488V36.9123H63.2588ZM63.2588 36.1414V36.9123H62.488V36.1414H63.2588ZM64.0297 36.1414V36.9123H63.2588V36.1414H64.0297ZM64.0297 35.3706V36.1414H63.2588V35.3706H64.0297ZM64.0297 34.5997V35.3706H63.2588V34.5997H64.0297ZM64.0297 33.8289V34.5997H63.2588V33.8289H64.0297ZM64.0297 33.058V33.8289H63.2588V33.058H64.0297ZM64.0297 32.2872V33.058H63.2588V32.2872H64.0297ZM63.2588 32.2872V33.058H62.488V32.2872H63.2588ZM62.488 32.2872V33.058H61.7171V32.2872H62.488ZM61.7171 32.2872V33.058H60.9462V32.2872H61.7171ZM60.9462 32.2872V33.058H60.1754V32.2872H60.9462ZM60.9462 33.058V33.8289H60.1754V33.058H60.9462ZM60.9462 33.8289V34.5997H60.1754V33.8289H60.9462ZM60.9462 34.5997V35.3706H60.1754V34.5997H60.9462ZM60.9462 35.3706V36.1414H60.1754V35.3706H60.9462ZM60.9462 36.1414V36.9123H60.1754V36.1414H60.9462ZM60.1754 36.1414V36.9123H59.4045V36.1414H60.1754ZM60.1754 36.9123V37.6831H59.4045V36.9123H60.1754ZM59.4045 36.9123V37.6831H58.6337V36.9123H59.4045ZM59.4045 37.6831V38.454H58.6337V37.6831H59.4045ZM58.6337 37.6831V38.454H57.8628V37.6831H58.6337ZM57.8628 37.6831V38.454H57.092V37.6831H57.8628ZM57.092 36.9123V37.6831H56.3211V36.9123H57.092ZM56.3211 36.9123V37.6831H55.5503V36.9123H56.3211ZM56.3211 36.1414V36.9123H55.5503V36.1414H56.3211ZM55.5503 36.9123V37.6831H54.7794V36.9123H55.5503ZM54.7794 36.9123V37.6831H54.0086V36.9123H54.7794ZM55.5503 37.6831V38.454H54.7794V37.6831H55.5503ZM56.3211 37.6831V38.454H55.5503V37.6831H56.3211ZM57.092 37.6831V38.454H56.3211V37.6831H57.092ZM57.092 38.454V39.2248H56.3211V38.454H57.092ZM56.3211 38.454V39.2248H55.5503V38.454H56.3211ZM57.8628 38.454V39.2248H57.092V38.454H57.8628ZM58.6337 38.454V39.2248H57.8628V38.454H58.6337ZM59.4045 38.454V39.2248H58.6337V38.454H59.4045ZM60.1754 38.454V39.2248H59.4045V38.454H60.1754ZM60.9462 38.454V39.2248H60.1754V38.454H60.9462ZM60.9462 37.6831V38.454H60.1754V37.6831H60.9462ZM60.1754 37.6831V38.454H59.4045V37.6831H60.1754ZM61.7171 33.058V33.8289H60.9462V33.058H61.7171ZM62.488 33.058V33.8289H61.7171V33.058H62.488ZM63.2588 33.058V33.8289H62.488V33.058H63.2588ZM63.2588 33.8289V34.5997H62.488V33.8289H63.2588ZM63.2588 34.5997V35.3706H62.488V34.5997H63.2588ZM63.2588 35.3706V36.1414H62.488V35.3706H63.2588ZM62.488 35.3706V36.1414H61.7171V35.3706H62.488ZM62.488 34.5997V35.3706H61.7171V34.5997H62.488ZM62.488 33.8289V34.5997H61.7171V33.8289H62.488ZM61.7171 33.8289V34.5997H60.9462V33.8289H61.7171ZM61.7171 34.5997V35.3706H60.9462V34.5997H61.7171ZM61.7171 35.3706V36.1414H60.9462V35.3706H61.7171ZM61.7171 36.1414V36.9123H60.9462V36.1414H61.7171ZM62.488 36.1414V36.9123H61.7171V36.1414H62.488ZM61.7171 36.9123V37.6831H60.9462V36.9123H61.7171ZM60.9462 36.9123V37.6831H60.1754V36.9123H60.9462ZM52.4669 43.0791V43.8499H51.696V43.0791H52.4669ZM53.2377 43.0791V43.8499H52.4669V43.0791H53.2377ZM62.488 43.0791V43.8499H61.7171V43.0791H62.488ZM63.2588 43.0791V43.8499H62.488V43.0791H63.2588ZM60.9462 43.8499V44.6208H60.1754V43.8499H60.9462ZM60.9462 44.6208V45.3916H60.1754V44.6208H60.9462ZM60.9462 45.3916V46.1625H60.1754V45.3916H60.9462ZM60.9462 46.1625V46.9333H60.1754V46.1625H60.9462ZM61.7171 46.1625V46.9333H60.9462V46.1625H61.7171ZM62.488 46.1625V46.9333H61.7171V46.1625H62.488ZM63.2588 46.1625V46.9333H62.488V46.1625H63.2588ZM64.0297 46.1625V46.9333H63.2588V46.1625H64.0297ZM64.0297 45.3916V46.1625H63.2588V45.3916H64.0297ZM64.0297 44.6208V45.3916H63.2588V44.6208H64.0297ZM64.0297 43.8499V44.6208H63.2588V43.8499H64.0297ZM63.2588 43.8499V44.6208H62.488V43.8499H63.2588ZM62.488 43.8499V44.6208H61.7171V43.8499H62.488ZM61.7171 43.8499V44.6208H60.9462V43.8499H61.7171ZM61.7171 44.6208V45.3916H60.9462V44.6208H61.7171ZM61.7171 45.3916V46.1625H60.9462V45.3916H61.7171ZM62.488 45.3916V46.1625H61.7171V45.3916H62.488ZM63.2588 45.3916V46.1625H62.488V45.3916H63.2588ZM63.2588 44.6208V45.3916H62.488V44.6208H63.2588ZM62.488 44.6208V45.3916H61.7171V44.6208H62.488ZM52.4669 43.8499V44.6208H51.696V43.8499H52.4669ZM52.4669 44.6208V45.3916H51.696V44.6208H52.4669ZM52.4669 45.3916V46.1625H51.696V45.3916H52.4669ZM53.2377 45.3916V46.1625H52.4669V45.3916H53.2377ZM53.2377 46.1625V46.9333H52.4669V46.1625H53.2377ZM52.4669 46.1625V46.9333H51.696V46.1625H52.4669ZM54.0086 46.1625V46.9333H53.2377V46.1625H54.0086ZM54.7794 46.1625V46.9333H54.0086V46.1625H54.7794ZM55.5503 46.1625V46.9333H54.7794V46.1625H55.5503ZM55.5503 45.3916V46.1625H54.7794V45.3916H55.5503ZM55.5503 44.6208V45.3916H54.7794V44.6208H55.5503ZM55.5503 43.8499V44.6208H54.7794V43.8499H55.5503ZM54.7794 43.8499V44.6208H54.0086V43.8499H54.7794ZM54.7794 44.6208V45.3916H54.0086V44.6208H54.7794ZM54.7794 45.3916V46.1625H54.0086V45.3916H54.7794ZM54.0086 45.3916V46.1625H53.2377V45.3916H54.0086ZM54.0086 44.6208V45.3916H53.2377V44.6208H54.0086ZM54.0086 43.8499V44.6208H53.2377V43.8499H54.0086ZM53.2377 44.6208V45.3916H52.4669V44.6208H53.2377ZM53.2377 43.8499V44.6208H52.4669V43.8499H53.2377Z" fill="black"/>
</svg>
