<svg width="50" height="50" viewBox="0 0 50 50" fill="none" xmlns="http://www.w3.org/2000/svg">
<g clip-path="url(#clip0_11325_8844)">
<path fill-rule="evenodd" clip-rule="evenodd" d="M0 45.5056V9.91826C0 7.84988 1.70703 6.1709 3.81232 6.1709H40.0155L0 45.5056Z" fill="#1EA361"/>
<path fill-rule="evenodd" clip-rule="evenodd" d="M0 46.252V45.5057L40.0166 6.16992H40.7759C42.8812 6.16992 44.5893 7.84891 44.5893 9.91728V10.6647L4.57266 50.0004H3.81339C1.70809 50.0004 0.00106489 48.3214 0.00106489 46.253L0 46.252Z" fill="#FEDB43"/>
<path fill-rule="evenodd" clip-rule="evenodd" d="M4.57227 50.0001L22.2942 32.5801L40.0162 50.0001H4.57227Z" fill="#5384C4"/>
<path fill-rule="evenodd" clip-rule="evenodd" d="M40.0159 49.9999L22.0234 32.3141L26.5972 27.8193L44.5896 45.5052V46.2515C44.5896 48.3199 42.8815 49.9989 40.7762 49.9989H40.017L40.0159 49.9999Z" fill="white"/>
<path fill-rule="evenodd" clip-rule="evenodd" d="M44.5892 45.505L26.8672 28.085L44.5892 10.665V45.505Z" fill="#C2C2C1"/>
<path d="M7.95353 11.0152C10.2218 9.99467 13.0608 10.4102 14.903 12.0808C14.3269 12.6586 13.7348 13.2228 13.1428 13.7849C11.3005 11.9866 7.83746 12.8397 6.97383 15.2179C5.84397 17.5574 7.72138 20.6338 10.3772 20.6673C12.1151 20.8662 13.8488 19.7221 14.2151 18.0211C13.0011 18.0232 11.7893 18.0117 10.5774 18.0306C10.5434 17.2957 10.5391 16.5599 10.5551 15.823C12.5826 15.8743 14.6602 15.7089 16.658 15.9036C16.8103 17.3617 16.7059 18.9088 15.9083 20.1869C14.6581 22.475 11.7052 23.4736 9.20691 22.8958C6.11765 22.2667 3.80576 19.1527 4.22746 16.0669C4.44364 13.8907 5.94088 11.9175 7.95353 11.0152Z" fill="#EFEFEF"/>
<path d="M36.8017 0H38.251C41.8631 0.203069 45.3954 1.93858 47.5859 4.79201C49.0192 6.59451 49.82 8.83246 50 11.1049V11.9486C49.9159 16.3544 47.0481 19.9699 44.5648 23.3969C41.7769 27.2688 39.2009 31.4883 38.4874 36.2604C38.2957 37.0685 38.5247 38.2011 37.5428 38.5653C37.3118 38.3884 37.0423 38.2419 36.8805 37.9949C36.5898 35.3267 35.9114 32.692 34.7528 30.2552C33.4387 27.4164 31.6092 24.8508 29.751 22.3407C28.619 20.8355 27.552 19.2769 26.6703 17.6168C25.2827 15.1276 24.7673 12.1862 25.3338 9.39456C25.7981 7.19011 26.9727 5.14686 28.5977 3.56627C30.7861 1.46231 33.7465 0.188415 36.8017 0ZM36.5195 7.75954C34.805 8.13532 33.3674 9.62589 33.2226 11.3698C33.0426 12.9933 34.0095 14.6409 35.4897 15.3579C37.0945 16.1921 39.2019 15.9367 40.5426 14.7309C41.7939 13.6423 42.2497 11.7634 41.5969 10.2424C40.8238 8.33944 38.5268 7.25501 36.5195 7.76059V7.75954Z" fill="#DC4B3E"/>
<path d="M36.5196 7.75925C38.5269 7.25471 40.8239 8.3381 41.597 10.2411C42.2508 11.762 41.7951 13.6409 40.5428 14.7295C39.2021 15.9354 37.0946 16.1918 35.4898 15.3565C34.0096 14.6395 33.0427 12.9919 33.2227 11.3684C33.3675 9.62455 34.8051 8.13398 36.5196 7.7582V7.75925Z" fill="#802C27"/>
</g>
<defs>
<clipPath id="clip0_11325_8844">
<rect width="50" height="50" fill="white"/>
</clipPath>
</defs>
</svg>
