<svg width="135" height="51" viewBox="0 0 135 51" fill="none" xmlns="http://www.w3.org/2000/svg">
<path d="M24.86 0.787113C23.245 0.787822 21.762 1.67875 21.0029 3.10421C20.2439 4.52966 20.3325 6.25746 21.2334 7.59779L23.1007 5.73315C23.039 5.54715 23.0078 5.35236 23.0085 5.15638C23.0085 4.1382 23.8339 3.31281 24.8521 3.31281C25.8702 3.31281 26.6956 4.1382 26.6956 5.15638C26.6956 6.17456 25.8702 6.99995 24.8521 6.99995C24.657 7.00038 24.4631 6.96925 24.2779 6.90777L22.4133 8.77241C23.9661 9.82556 26.0179 9.76977 27.5111 8.6338C29.0044 7.49783 29.6057 5.53531 29.0051 3.75779C28.4046 1.98027 26.7362 0.78462 24.86 0.787113Z" fill="#34A853"/>
<path d="M23.1218 13.5209C23.1246 12.045 22.6466 10.6083 21.7601 9.4282L19.3372 11.8485C20.0949 13.2345 19.8222 14.9572 18.6735 16.0413L19.9903 19.2597C21.9414 18.0031 23.1209 15.8417 23.1218 13.5209Z" fill="#FBBC04"/>
<path d="M16.3506 16.9947H16.2874C14.8012 16.9949 13.4793 16.0502 12.998 14.6441C12.5167 13.2381 12.9824 11.6815 14.1569 10.7709C15.3314 9.86025 16.9549 9.79693 18.1968 10.6133L20.5961 8.21406C18.263 6.32266 14.9684 6.17676 12.4773 7.85453C9.98626 9.5323 8.88309 12.6402 9.75888 15.5131C10.6347 18.3859 13.284 20.3499 16.2874 20.3527C16.7508 20.3529 17.2131 20.307 17.6674 20.2157L16.3506 16.9947Z" fill="#EA4335"/>
<path d="M24.9521 19.7785C23.4357 19.777 21.9272 19.9979 20.4749 20.4343L22.3949 25.1249C23.2306 24.9178 24.0885 24.8134 24.9495 24.8141C29.9386 24.8156 34.2321 28.3409 35.2043 33.2344C36.1765 38.1279 33.5568 43.0268 28.9471 44.9353C24.3375 46.8438 19.0216 45.2305 16.2501 41.0819C13.4787 36.9334 14.0236 31.4048 17.5515 27.8771C18.2877 27.1432 19.1281 26.522 20.0456 26.0335L18.1467 21.3561C11.0686 24.8226 7.71732 33.0477 10.3573 40.4738C12.9973 47.8999 20.7885 52.1638 28.4664 50.3845C36.1444 48.6051 41.2657 41.3487 40.3701 33.5184C39.4744 25.688 32.8467 19.7755 24.9653 19.7759L24.9521 19.7785Z" fill="#4285F4"/>
<path d="M71.7614 32.7871V18.2417H73.5227V31.2246H80.2841V32.7871H71.7614ZM87.2159 33.0144C86.2311 33.0144 85.367 32.78 84.6236 32.3113C83.8849 31.8425 83.3073 31.1867 82.8906 30.3439C82.4787 29.5011 82.2727 28.5163 82.2727 27.3894C82.2727 26.253 82.4787 25.2611 82.8906 24.4135C83.3073 23.566 83.8849 22.9078 84.6236 22.4391C85.367 21.9703 86.2311 21.736 87.2159 21.736C88.2008 21.736 89.0625 21.9703 89.8011 22.4391C90.5445 22.9078 91.1222 23.566 91.5341 24.4135C91.9508 25.2611 92.1591 26.253 92.1591 27.3894C92.1591 28.5163 91.9508 29.5011 91.5341 30.3439C91.1222 31.1867 90.5445 31.8425 89.8011 32.3113C89.0625 32.78 88.2008 33.0144 87.2159 33.0144ZM87.2159 31.5087C87.964 31.5087 88.5795 31.3169 89.0625 30.9334C89.5455 30.5499 89.9029 30.0456 90.1349 29.4206C90.367 28.7956 90.483 28.1185 90.483 27.3894C90.483 26.6602 90.367 25.9808 90.1349 25.351C89.9029 24.7213 89.5455 24.2123 89.0625 23.824C88.5795 23.4358 87.964 23.2417 87.2159 23.2417C86.4678 23.2417 85.8523 23.4358 85.3693 23.824C84.8864 24.2123 84.5289 24.7213 84.2969 25.351C84.0649 25.9808 83.9489 26.6602 83.9489 27.3894C83.9489 28.1185 84.0649 28.7956 84.2969 29.4206C84.5289 30.0456 84.8864 30.5499 85.3693 30.9334C85.8523 31.3169 86.4678 31.5087 87.2159 31.5087ZM99.1495 33.0144C98.1647 33.0144 97.3005 32.78 96.5572 32.3113C95.8185 31.8425 95.2409 31.1867 94.8242 30.3439C94.4123 29.5011 94.2063 28.5163 94.2063 27.3894C94.2063 26.253 94.4123 25.2611 94.8242 24.4135C95.2409 23.566 95.8185 22.9078 96.5572 22.4391C97.3005 21.9703 98.1647 21.736 99.1495 21.736C100.134 21.736 100.996 21.9703 101.735 22.4391C102.478 22.9078 103.056 23.566 103.468 24.4135C103.884 25.2611 104.093 26.253 104.093 27.3894C104.093 28.5163 103.884 29.5011 103.468 30.3439C103.056 31.1867 102.478 31.8425 101.735 32.3113C100.996 32.78 100.134 33.0144 99.1495 33.0144ZM99.1495 31.5087C99.8976 31.5087 100.513 31.3169 100.996 30.9334C101.479 30.5499 101.837 30.0456 102.069 29.4206C102.301 28.7956 102.417 28.1185 102.417 27.3894C102.417 26.6602 102.301 25.9808 102.069 25.351C101.837 24.7213 101.479 24.2123 100.996 23.824C100.513 23.4358 99.8976 23.2417 99.1495 23.2417C98.4014 23.2417 97.7859 23.4358 97.3029 23.824C96.82 24.2123 96.4625 24.7213 96.2305 25.351C95.9985 25.9808 95.8825 26.6602 95.8825 27.3894C95.8825 28.1185 95.9985 28.7956 96.2305 29.4206C96.4625 30.0456 96.82 30.5499 97.3029 30.9334C97.7859 31.3169 98.4014 31.5087 99.1495 31.5087ZM108.214 28.8098L108.185 26.736H108.526L113.299 21.878H115.373L110.288 27.0201H110.146L108.214 28.8098ZM106.651 32.7871V18.2417H108.327V32.7871H106.651ZM113.583 32.7871L109.322 27.3894L110.515 26.2246L115.714 32.7871H113.583ZM121.655 33.0144C120.604 33.0144 119.697 32.7824 118.935 32.3184C118.177 31.8496 117.592 31.1962 117.18 30.3581C116.773 29.5153 116.57 28.5352 116.57 27.4178C116.57 26.3004 116.773 25.3155 117.18 24.4632C117.592 23.6062 118.165 22.9386 118.899 22.4604C119.638 21.9775 120.5 21.736 121.484 21.736C122.053 21.736 122.614 21.8307 123.168 22.0201C123.722 22.2095 124.226 22.5172 124.68 22.9434C125.135 23.3648 125.497 23.9235 125.767 24.6195C126.037 25.3155 126.172 26.1725 126.172 27.1905V27.9007H117.763V26.4519H124.467C124.467 25.8364 124.344 25.2871 124.098 24.8042C123.857 24.3212 123.511 23.94 123.061 23.6607C122.616 23.3813 122.09 23.2417 121.484 23.2417C120.817 23.2417 120.239 23.4074 119.751 23.7388C119.268 24.0655 118.897 24.4917 118.636 25.0172C118.376 25.5428 118.246 26.1062 118.246 26.7076V27.6735C118.246 28.4973 118.388 29.1957 118.672 29.7686C118.961 30.3368 119.361 30.7701 119.872 31.0684C120.384 31.3619 120.978 31.5087 121.655 31.5087C122.095 31.5087 122.493 31.4471 122.848 31.324C123.208 31.1962 123.518 31.0068 123.778 30.7559C124.039 30.5002 124.24 30.1829 124.382 29.8042L126.001 30.2587C125.831 30.8079 125.545 31.2909 125.142 31.7076C124.74 32.1195 124.242 32.4415 123.651 32.6735C123.059 32.9007 122.393 33.0144 121.655 33.0144ZM128.722 32.7871V21.878H130.341V23.5257H130.455C130.653 22.986 131.013 22.548 131.534 22.2118C132.055 21.8757 132.642 21.7076 133.295 21.7076C133.419 21.7076 133.572 21.7099 133.757 21.7147C133.942 21.7194 134.081 21.7265 134.176 21.736V23.4405C134.119 23.4263 133.989 23.405 133.786 23.3766C133.587 23.3435 133.376 23.3269 133.153 23.3269C132.623 23.3269 132.15 23.4382 131.733 23.6607C131.321 23.8785 130.994 24.1815 130.753 24.5698C130.516 24.9533 130.398 25.3913 130.398 25.8837V32.7871H128.722Z" fill="white"/>
</svg>
