<svg width="100" height="100" viewBox="0 0 100 100" fill="none" xmlns="http://www.w3.org/2000/svg">
<path d="M100 50C100 77.6142 77.6142 100 50 100C22.3858 100 0 77.6142 0 50C0 22.3858 22.3858 0 50 0C77.6142 0 100 22.3858 100 50Z" fill="#FF5D00" fill-opacity="0.1"/>
<path d="M72.5556 21H27.4444C23.8839 21 21 23.8839 21 27.4444V72.5556C21 76.1161 23.8839 79 27.4444 79H72.5556C76.1161 79 79 76.1161 79 72.5556V27.4444C79 23.8839 76.1161 21 72.5556 21ZM30.6667 30.6667H46.7778V46.7778H30.6667V30.6667ZM45.1667 72.5556C40.72 72.5556 37.1111 68.9467 37.1111 64.5C37.1111 60.0533 40.72 56.4444 45.1667 56.4444C49.6133 56.4444 53.2222 60.0533 53.2222 64.5C53.2222 68.9467 49.6133 72.5556 45.1667 72.5556ZM54.8333 53.2222L64.5 37.1111L74.1667 53.2222H54.8333Z" fill="#FF5D00"/>
</svg>
