<svg width="100" height="100" viewBox="0 0 100 100" fill="none" xmlns="http://www.w3.org/2000/svg">
<path d="M100 50C100 77.6142 77.6142 100 50 100C22.3858 100 0 77.6142 0 50C0 22.3858 22.3858 0 50 0C77.6142 0 100 22.3858 100 50Z" fill="#FF5D00" fill-opacity="0.1"/>
<g clip-path="url(#clip0_0_1)">
<path d="M63.737 32.2244C63.4368 32.2244 63.1705 32.0352 63.0741 31.7535C62.8826 31.1931 62.6533 30.6392 62.3928 30.1071C62.2632 29.8424 62.3186 29.522 62.5307 29.3098C63.7369 28.1035 63.7367 26.1514 62.5307 24.9456L60.9979 23.4126C59.7946 22.2094 57.8368 22.2095 56.6335 23.4126C56.4213 23.6248 56.101 23.6802 55.8362 23.5506C55.305 23.2904 54.7511 23.0611 54.1901 22.8692C53.9083 22.7728 53.7191 22.5064 53.7191 22.2051C53.7191 20.5034 52.3347 19.1191 50.6331 19.1191H48.4645C46.7628 19.1191 45.3785 20.5036 45.3785 22.2064C45.3785 22.5065 45.1894 22.7729 44.9076 22.8693C44.3466 23.0611 43.7928 23.2904 43.2614 23.5507C42.9967 23.6803 42.6762 23.6249 42.464 23.4127C41.2608 22.2096 39.303 22.2095 38.0997 23.4127L36.5669 24.9456C35.3607 26.1518 35.3608 28.1039 36.5668 29.31C36.779 29.5221 36.8345 29.8425 36.7048 30.1074C36.4444 30.6388 36.2152 31.1927 36.0235 31.7535C35.9271 32.0352 35.6607 32.2245 35.3594 32.2245C33.6577 32.2245 32.2734 33.6089 32.2734 35.3105V37.4791C32.2734 39.1808 33.6579 40.5652 35.3607 40.5652C35.661 40.5652 35.9272 40.7544 36.0236 41.0361C36.2154 41.597 36.4447 42.1508 36.705 42.6823C36.8346 42.947 36.7792 43.2675 36.567 43.4797C35.3608 44.6859 35.361 46.638 36.5669 47.8439L38.0998 49.3768C39.306 50.5829 41.2582 50.5827 42.4641 49.3768C42.6763 49.1647 42.9969 49.1091 43.2614 49.2387C43.7927 49.499 44.3466 49.7283 44.9077 49.9202C45.1894 50.0166 45.3787 50.2829 45.3787 50.5843C45.3787 52.286 46.7631 53.6704 48.4646 53.6704H50.6332C52.3349 53.6704 53.7192 52.286 53.7192 50.5831C53.7192 50.283 53.9084 50.0166 54.1902 49.9202C54.7515 49.7283 55.3052 49.499 55.8362 49.2388C56.1013 49.1091 56.4216 49.1646 56.6336 49.3768C57.8398 50.5829 59.7919 50.5827 60.998 49.3768L62.5309 47.8439C63.7369 46.6378 63.7368 44.6856 62.5309 43.4797C62.3187 43.2675 62.2632 42.947 62.3929 42.6823C62.6535 42.1504 62.8827 41.5966 63.0743 41.0361C63.1707 40.7545 63.4369 40.5652 63.7384 40.5652C65.44 40.5652 66.8243 39.1808 66.8243 37.4791V35.3105C66.8243 33.6088 65.4399 32.2244 63.737 32.2244ZM56.2885 43.1343C52.5724 46.8504 46.5256 46.8505 42.8093 43.1343C39.093 39.4181 39.093 33.3713 42.8093 29.655C46.5341 25.9302 52.5633 25.9297 56.2885 29.655C60.0047 33.3713 60.0047 39.4181 56.2885 43.1343Z" fill="#FF5D00"/>
<path d="M79.2518 54.4293C77.9464 52.1415 75.0388 51.3467 72.7513 52.6517L59.4888 60.218C58.9436 57.8359 56.8088 56.0527 54.2637 56.0527H41.3453C37.6506 53.0579 32.4856 52.9059 28.6484 55.4762V52.4785C28.6484 51.8205 28.115 51.2871 27.457 51.2871H20.3086C19.6506 51.2871 19.1172 51.8205 19.1172 52.4785V78.6895C19.1172 79.3475 19.6506 79.8809 20.3086 79.8809H27.457C28.115 79.8809 28.6484 79.3475 28.6484 78.6895V77.4945C48.1979 77.4942 47.3384 77.4954 47.385 77.4934C48.1331 77.4609 48.8758 77.2457 49.5332 76.8709L77.4738 60.9313C79.7625 59.6265 80.5575 56.7143 79.2518 54.4293ZM26.2656 77.498H21.5V53.6699H26.2656V77.498ZM76.2934 58.8612L48.3529 74.8009C48.0256 74.9875 47.6732 75.092 47.305 75.1115H28.6484V58.5565C31.7497 55.3863 36.7928 55.1989 40.1206 58.1371C40.3383 58.3293 40.6187 58.4354 40.9092 58.4354H54.2637C55.906 58.4354 57.2422 59.7716 57.2422 61.4139C57.2422 63.0563 55.906 64.3925 54.2637 64.3925H39.7786C39.1205 64.3925 38.5871 64.9259 38.5871 65.5839C38.5871 66.2419 39.1205 66.7753 39.7786 66.7753H54.2637C56.6589 66.7753 58.6918 65.1963 59.3774 63.0247L73.9321 54.7213C75.0753 54.0693 76.5288 54.4652 77.1825 55.6108C77.8359 56.7545 77.4359 58.2099 76.2934 58.8612Z" fill="#FF5D00"/>
</g>
<defs>
<clipPath id="clip0_0_1">
<rect width="61" height="61" fill="white" transform="translate(19 19)"/>
</clipPath>
</defs>
</svg>
