<svg width="100" height="100" viewBox="0 0 100 100" fill="none" xmlns="http://www.w3.org/2000/svg">
<circle cx="50" cy="50" r="50" fill="#FF5D00" fill-opacity="0.1"/>
<path d="M49.9867 23.5221H50.0531C52.2844 23.5221 54.3563 24.2658 56.0297 25.5275H56.043C57.1852 26.3908 58.1414 27.5064 58.8187 28.7682L69.9219 48.1189L69.9883 48.2783L78.5016 63.0471C79.4047 64.5744 79.8828 66.3275 79.8828 68.1205C79.8828 69.5283 79.5906 70.8697 79.0727 72.0783L79.0859 72.1182C78.6875 73.0213 78.1562 73.8447 77.5055 74.6018C76.7617 75.465 75.8852 76.1955 74.9023 76.7666C73.4281 77.6299 71.7547 78.0814 70.0547 78.0947H69.882C67.7172 78.0947 65.632 77.3908 63.9055 76.0893H63.8922C62.75 75.226 61.7938 74.1104 61.1164 72.8486L50 53.4846L49.9336 53.3252L41.3805 38.49C40.4906 36.976 40.0391 35.2494 40.0391 33.4963C40.0391 32.4471 40.1984 31.4244 40.5039 30.4682L40.5172 30.4018L40.5438 30.3221C40.6766 29.9369 40.8359 29.4854 40.8359 29.4854C41.2211 28.5955 41.7656 27.7588 42.3898 27.0283L42.5492 26.8424L42.5891 26.8025V26.7893H42.6023L42.6289 26.7627L42.6555 26.7494C43.3195 26.0057 44.1297 25.3549 45.0328 24.8369C46.507 23.9736 48.1805 23.5221 49.8805 23.5088L49.9867 23.5221ZM30.1047 78.0814H29.9453C28.2453 78.0549 26.5719 77.6033 25.0977 76.7533C24.1016 76.1822 23.225 75.4518 22.4945 74.5885C21.8438 73.8447 21.3125 73.008 20.9141 72.1049L20.9273 72.065C20.3828 70.8166 20.1172 69.4619 20.1172 68.1072C20.1172 66.2479 20.6219 64.5213 21.4984 63.0338L30.0117 48.265L30.0781 48.1057L37.6484 34.9439C37.8344 36.551 38.3258 38.1182 39.1227 39.5658L39.2687 39.8049L47.6758 54.3877V54.3611L47.8484 54.7197L48.5656 55.9814L38.8836 72.8221C38.2063 74.0838 37.25 75.1994 36.1078 76.0627H36.0945C34.368 77.3643 32.2828 78.0682 30.118 78.0682L30.1047 78.0814Z" fill="#FF5D00"/>
</svg>
