<svg width="100" height="100" viewBox="0 0 100 100" fill="none" xmlns="http://www.w3.org/2000/svg">
<circle cx="50" cy="50" r="50" fill="#FF5D00" fill-opacity="0.1"/>
<g clip-path="url(#clip0_6899_4269)">
<path d="M69.3359 25.3906H23.5156V57.0312H55.2734V50H47.2122L49.485 52.2728L46.9994 54.7585L40.4831 48.2422L46.9994 41.7259L49.485 44.2116L47.2122 46.4844H55.2734V35.9375H69.3359V25.3906Z" fill="#FF5D00"/>
<path d="M58.7891 67.5781H80V74.6094H58.7891V67.5781Z" fill="#FF5D00"/>
<path d="M58.7891 46.4844H66.8503L64.5775 44.2116L67.0631 41.7259L73.5794 48.2422L67.0631 54.7585L64.5775 52.2728L66.8503 50H58.7891V64.0625H80V39.4531H58.7891V46.4844Z" fill="#FF5D00"/>
<path d="M25.2734 67.5781H55.2734V60.5469H20V62.3047C20 65.217 22.3611 67.5781 25.2734 67.5781Z" fill="#FF5D00"/>
</g>
<defs>
<clipPath id="clip0_6899_4269">
<rect width="60" height="60" fill="white" transform="translate(20 20)"/>
</clipPath>
</defs>
</svg>
