<svg width="100" height="100" viewBox="0 0 100 100" fill="none" xmlns="http://www.w3.org/2000/svg">
<path d="M100 50C100 77.6142 77.6142 100 50 100C22.3858 100 0 77.6142 0 50C0 22.3858 22.3858 0 50 0C77.6142 0 100 22.3858 100 50Z" fill="#FF5D00" fill-opacity="0.1"/>
<path d="M79.0628 42.0835H75.798V41.9481C75.798 40.3027 74.4551 38.9657 72.8051 38.9657H69.5824V35.933C69.5824 35.418 69.1629 35 68.6459 35H31.3543C30.8375 35 30.4178 35.418 30.4178 35.933V38.9657H27.1987C25.5464 38.9657 24.2022 40.3027 24.2022 41.9481V42.0835H20.9374C20.4195 42.0835 20 42.5016 20 43.0165V58.5222C20 59.0371 20.4195 59.4552 20.9374 59.4552H24.2022V61.0176C24.2022 62.6618 25.5464 64 27.1987 64H44.0539C44.572 64 44.9903 63.582 44.9903 63.067C44.9903 56.3371 48.7614 56.3371 50.0001 56.3371C51.2387 56.3371 55.0098 56.3371 55.0098 63.067C55.0098 63.582 55.4294 64 55.9463 64H72.8049C74.4549 64 75.7978 62.6618 75.7978 61.0176V59.4553H79.0626C79.5805 59.4553 80 59.0373 80 58.5223V43.0167C80.0002 42.5016 79.5807 42.0835 79.0628 42.0835ZM71.0741 53.5207C71.0741 54.0357 70.6546 54.4537 70.1377 54.4537C69.6198 54.4537 69.2002 54.0357 69.2002 53.5207V48.4619C69.2002 47.9469 69.6199 47.5289 70.1377 47.5289C70.6546 47.5289 71.0741 47.9469 71.0741 48.4619V53.5207ZM30.7999 53.5207C30.7999 54.0357 30.3804 54.4537 29.8625 54.4537C29.3458 54.4537 28.9262 54.0357 28.9262 53.5207V48.4619C28.9262 47.9469 29.3458 47.5289 29.8625 47.5289C30.3804 47.5289 30.7999 47.9469 30.7999 48.4619V53.5207ZM32.2919 36.8671H67.7085V38.9657H32.2919V36.8671Z" fill="#FF5D00"/>
</svg>
