<svg width="100" height="100" viewBox="0 0 100 100" fill="none" xmlns="http://www.w3.org/2000/svg">
<circle cx="50" cy="50" r="50" fill="#FF5D00" fill-opacity="0.1"/>
<path d="M62.4558 61.8667C62.4558 61.2171 62.9838 60.6892 63.6333 60.6892C64.2829 60.6892 64.8108 61.2171 64.8108 61.8667C64.8108 62.5162 64.2829 63.0442 63.6333 63.0442C62.9838 63.0442 62.4558 62.5162 62.4558 61.8667ZM58.9225 51.2667H40.0775C36.8306 51.2667 34.1892 48.6244 34.1892 45.3775C34.1892 42.134 36.8245 39.4952 40.1827 39.4952H40.1948C40.2034 39.4961 40.3251 39.503 40.3346 39.503C40.8927 39.5168 41.3887 39.1597 41.5276 38.6188C42.4627 34.9707 45.7407 32.4225 49.5 32.4225C53.2593 32.4225 56.5373 34.9707 57.4724 38.6188C57.6113 39.1597 58.1151 39.5168 58.6654 39.503C58.6749 39.503 58.913 39.4892 58.9225 39.4892C62.1694 39.4892 64.8108 42.1306 64.8108 45.3775C64.8108 48.6244 62.1694 51.2667 58.9225 51.2667ZM50.6775 47.7333C50.6775 47.0829 50.1504 46.5558 49.5 46.5558C48.8496 46.5558 48.3225 47.0829 48.3225 47.7333C48.3225 48.3838 48.8496 48.9108 49.5 48.9108C50.1504 48.9108 50.6775 48.3838 50.6775 47.7333ZM52.8298 43.2261C51.0484 41.4439 47.9516 41.4439 46.1702 43.2261C45.7105 43.6859 45.7105 44.4312 46.1702 44.891C46.63 45.3516 47.3753 45.3516 47.836 44.891C48.7271 43.9999 50.2729 43.9999 51.164 44.891C51.3943 45.1213 51.6954 45.236 51.9973 45.236C52.2984 45.236 52.5994 45.1213 52.8298 44.891C53.2895 44.4312 53.2895 43.6859 52.8298 43.2261ZM56.163 39.8929C54.3833 38.1133 52.018 37.1333 49.5 37.1333C46.982 37.1333 44.6166 38.1133 42.837 39.8929C42.3773 40.3527 42.3773 41.098 42.837 41.5578C43.2968 42.0184 44.0421 42.0184 44.5028 41.5578C45.8364 40.2241 47.6117 39.4892 49.5 39.4892C51.3883 39.4892 53.1636 40.2241 54.4972 41.5578C54.7275 41.7881 55.0286 41.9028 55.3305 41.9028C55.6316 41.9028 55.9326 41.7881 56.163 41.5578C56.6227 41.098 56.6227 40.3527 56.163 39.8929ZM76 49.5C76 64.1354 64.1354 76 49.5 76C34.8646 76 23 64.1354 23 49.5C23 34.8646 34.8646 23 49.5 23C64.1354 23 76 34.8646 76 49.5ZM57.7442 60.6892V53.6225H58.9225C63.4686 53.6225 67.1667 49.9236 67.1667 45.3775C67.1667 41.0221 63.7705 37.4439 59.4875 37.1523C58.0107 32.9375 54.0262 30.0667 49.5 30.0667C44.9738 30.0667 40.9893 32.9375 39.5125 37.1523C35.2295 37.4439 31.8333 41.0221 31.8333 45.3775C31.8333 49.9236 35.5314 53.6225 40.0775 53.6225H41.2558V60.6892H38.6835C38.1952 59.321 36.8996 58.3333 35.3667 58.3333C33.418 58.3333 31.8333 59.918 31.8333 61.8667C31.8333 63.8153 33.418 65.4 35.3667 65.4C36.8996 65.4 38.1952 64.4123 38.6835 63.0442H42.4333C43.0838 63.0442 43.6108 62.5171 43.6108 61.8667V53.6225H48.3225V58.5499C46.9544 59.0381 45.9667 60.3338 45.9667 61.8667C45.9667 63.8153 47.5513 65.4 49.5 65.4C51.4487 65.4 53.0333 63.8153 53.0333 61.8667C53.0333 60.3338 52.0456 59.0381 50.6775 58.5499V53.6225H55.3892V61.8667C55.3892 62.5171 55.9162 63.0442 56.5667 63.0442H60.3174C60.8048 64.4123 62.1004 65.4 63.6333 65.4C65.582 65.4 67.1667 63.8153 67.1667 61.8667C67.1667 59.918 65.582 58.3333 63.6333 58.3333C62.1004 58.3333 60.8048 59.321 60.3165 60.6892H57.7442ZM35.3667 60.6892C34.7171 60.6892 34.1892 61.2171 34.1892 61.8667C34.1892 62.5162 34.7171 63.0442 35.3667 63.0442C36.0162 63.0442 36.5442 62.5162 36.5442 61.8667C36.5442 61.2171 36.0162 60.6892 35.3667 60.6892ZM49.5 60.6892C48.8504 60.6892 48.3225 61.2171 48.3225 61.8667C48.3225 62.5162 48.8504 63.0442 49.5 63.0442C50.1496 63.0442 50.6775 62.5162 50.6775 61.8667C50.6775 61.2171 50.1496 60.6892 49.5 60.6892Z" fill="#FF5D00"/>
</svg>
