<svg width="100" height="100" viewBox="0 0 100 100" fill="none" xmlns="http://www.w3.org/2000/svg">
<path d="M100 50C100 77.6142 77.6142 100 50 100C22.3858 100 0 77.6142 0 50C0 22.3858 22.3858 0 50 0C77.6142 0 100 22.3858 100 50Z" fill="#FF5D00" fill-opacity="0.1"/>
<path d="M74.2677 29.4001V65.8001C74.2677 67.0378 73.776 68.2248 72.9009 69.1C72.0257 69.9751 70.8387 70.4668 69.601 70.4668H30.401C29.1634 70.4668 27.9764 69.9751 27.1012 69.1C26.226 68.2248 25.7344 67.0378 25.7344 65.8001V29.4001L26.6677 28.4668H73.3344L74.2677 29.4001Z" fill="#FF5D00"/>
<path d="M74.2677 26.5998V29.3998H25.7344V26.5998C25.7344 25.3621 26.226 24.1751 27.1012 23.2999C27.9764 22.4248 29.1634 21.9331 30.401 21.9331H69.601C70.2139 21.9331 70.8207 22.0538 71.3869 22.2883C71.9531 22.5229 72.4675 22.8666 72.9009 23.2999C73.3342 23.7333 73.678 24.2477 73.9125 24.8139C74.147 25.3801 74.2677 25.9869 74.2677 26.5998Z" fill="#FF5D00"/>
<path d="M46.1501 64.8664H44.4029V74.1998C44.4014 74.6944 44.2043 75.1683 43.8546 75.5181C43.5048 75.8678 43.0309 76.065 42.5363 76.0664H36.9363C36.4416 76.065 35.9677 75.8678 35.618 75.5181C35.2682 75.1683 35.0711 74.6944 35.0696 74.1998V64.8664H33.3224C32.9348 64.8608 32.557 64.7435 32.2344 64.5286C31.9118 64.3137 31.6579 64.0103 31.5033 63.6549C31.3487 63.2994 31.2998 62.9069 31.3625 62.5244C31.4253 62.1418 31.597 61.7855 31.8571 61.498L38.2709 54.33C38.4537 54.1213 38.6791 53.954 38.9318 53.8394C39.1845 53.7248 39.4588 53.6655 39.7363 53.6655C40.0137 53.6655 40.288 53.7248 40.5407 53.8394C40.7935 53.954 41.0188 54.1213 41.2016 54.33L47.6155 61.498C47.8755 61.7855 48.0472 62.1418 48.11 62.5244C48.1727 62.9069 48.1239 63.2994 47.9692 63.6549C47.8146 64.0103 47.5607 64.3137 47.2381 64.5286C46.9155 64.7435 46.5377 64.8608 46.1501 64.8664Z" fill="white"/>
<path d="M53.8546 64.8665H55.6018V55.5332C55.6032 55.0386 55.8004 54.5646 56.1501 54.2149C56.4999 53.8651 56.9738 53.668 57.4684 53.6665H63.0684C63.563 53.668 64.037 53.8651 64.3867 54.2149C64.7365 54.5646 64.9336 55.0386 64.9351 55.5332V64.8665H66.6814C67.069 64.8722 67.4467 64.9895 67.7693 65.2044C68.092 65.4193 68.3458 65.7226 68.5005 66.0781C68.6551 66.4335 68.704 66.8261 68.6412 67.2086C68.5785 67.5911 68.4068 67.9475 68.1467 68.2349L61.7328 75.4029C61.55 75.6117 61.3247 75.7789 61.072 75.8935C60.8193 76.0081 60.545 76.0674 60.2675 76.0674C59.99 76.0674 59.7157 76.0081 59.463 75.8935C59.2103 75.7789 58.985 75.6117 58.8022 75.4029L52.3883 68.2349C52.1282 67.9474 51.9564 67.591 51.8937 67.2084C51.831 66.8258 51.88 66.4332 52.0347 66.0777C52.1895 65.7222 52.4435 65.4188 52.7662 65.204C53.089 64.9892 53.4669 64.872 53.8546 64.8665Z" fill="white"/>
<path d="M61.1974 45.2664H59.3307V37.7998H61.1974C61.4449 37.7998 61.6823 37.7014 61.8574 37.5264C62.0324 37.3514 62.1307 37.114 62.1307 36.8664C62.1307 36.6189 62.0324 36.3815 61.8574 36.2065C61.6823 36.0314 61.4449 35.9331 61.1974 35.9331H55.5974C55.3499 35.9331 55.1125 36.0314 54.9374 36.2065C54.7624 36.3815 54.6641 36.6189 54.6641 36.8664C54.6641 37.114 54.7624 37.3514 54.9374 37.5264C55.1125 37.7014 55.3499 37.7998 55.5974 37.7998H57.4641V45.2664H55.5974C55.3499 45.2664 55.1125 45.3648 54.9374 45.5398C54.7624 45.7148 54.6641 45.9522 54.6641 46.1998C54.6641 46.4473 54.7624 46.6847 54.9374 46.8597C55.1125 47.0348 55.3499 47.1331 55.5974 47.1331H61.1974C61.4449 47.1331 61.6823 47.0348 61.8574 46.8597C62.0324 46.6847 62.1307 46.4473 62.1307 46.1998C62.1307 45.9522 62.0324 45.7148 61.8574 45.5398C61.6823 45.3648 61.4449 45.2664 61.1974 45.2664Z" fill="white"/>
<path d="M42.0635 35.9331C41.1972 35.9331 40.3663 36.2773 39.7537 36.8899C39.141 37.5025 38.7969 38.3334 38.7969 39.1998V46.1998C38.7969 46.4473 38.8952 46.6847 39.0702 46.8597C39.2453 47.0348 39.4827 47.1331 39.7302 47.1331C39.9777 47.1331 40.2151 47.0348 40.3902 46.8597C40.5652 46.6847 40.6635 46.4473 40.6635 46.1998V42.4664H43.4635V46.1998C43.4635 46.4473 43.5619 46.6847 43.7369 46.8597C43.9119 47.0348 44.1493 47.1331 44.3969 47.1331C44.6444 47.1331 44.8818 47.0348 45.0568 46.8597C45.2319 46.6847 45.3302 46.4473 45.3302 46.1998V39.1998C45.3302 38.3334 44.986 37.5025 44.3734 36.8899C43.7608 36.2773 42.9299 35.9331 42.0635 35.9331ZM40.6635 40.5998V39.1998C40.6635 38.8285 40.811 38.4724 41.0736 38.2098C41.3361 37.9473 41.6922 37.7998 42.0635 37.7998C42.4348 37.7998 42.7909 37.9473 43.0535 38.2098C43.316 38.4724 43.4635 38.8285 43.4635 39.1998V40.5998H40.6635Z" fill="white"/>
<path d="M50.462 35.9331H48.1286C47.8811 35.9331 47.6437 36.0314 47.4687 36.2065C47.2936 36.3815 47.1953 36.6189 47.1953 36.8664V46.1998C47.1953 46.4473 47.2936 46.6847 47.4687 46.8597C47.6437 47.0348 47.8811 47.1331 48.1286 47.1331C48.3762 47.1331 48.6136 47.0348 48.7886 46.8597C48.9636 46.6847 49.062 46.4473 49.062 46.1998V42.4664H50.462C51.3284 42.4664 52.1592 42.1223 52.7719 41.5097C53.3845 40.897 53.7286 40.0661 53.7286 39.1998C53.7286 38.3334 53.3845 37.5025 52.7719 36.8899C52.1592 36.2773 51.3284 35.9331 50.462 35.9331ZM50.462 40.5998H49.062V37.7998H50.462C50.8333 37.7998 51.1894 37.9473 51.4519 38.2098C51.7145 38.4724 51.862 38.8285 51.862 39.1998C51.862 39.5711 51.7145 39.9272 51.4519 40.1897C51.1894 40.4523 50.8333 40.5998 50.462 40.5998Z" fill="white"/>
<path d="M31.3354 26.6001H30.4021C30.1545 26.6001 29.9172 26.5017 29.7421 26.3267C29.5671 26.1517 29.4688 25.9143 29.4688 25.6667C29.4688 25.4192 29.5671 25.1818 29.7421 25.0068C29.9172 24.8317 30.1545 24.7334 30.4021 24.7334H31.3354C31.583 24.7334 31.8203 24.8317 31.9954 25.0068C32.1704 25.1818 32.2688 25.4192 32.2688 25.6667C32.2688 25.9143 32.1704 26.1517 31.9954 26.3267C31.8203 26.5017 31.583 26.6001 31.3354 26.6001Z" fill="#FF4D4D"/>
<path d="M35.9995 26.6001H35.0661C34.8186 26.6001 34.5812 26.5017 34.4062 26.3267C34.2311 26.1517 34.1328 25.9143 34.1328 25.6667C34.1328 25.4192 34.2311 25.1818 34.4062 25.0068C34.5812 24.8317 34.8186 24.7334 35.0661 24.7334H35.9995C36.247 24.7334 36.4844 24.8317 36.6594 25.0068C36.8345 25.1818 36.9328 25.4192 36.9328 25.6667C36.9328 25.9143 36.8345 26.1517 36.6594 26.3267C36.4844 26.5017 36.247 26.6001 35.9995 26.6001Z" fill="white"/>
<path d="M40.6635 26.6001H39.7302C39.4827 26.6001 39.2453 26.5017 39.0702 26.3267C38.8952 26.1517 38.7969 25.9143 38.7969 25.6667C38.7969 25.4192 38.8952 25.1818 39.0702 25.0068C39.2453 24.8317 39.4827 24.7334 39.7302 24.7334H40.6635C40.9111 24.7334 41.1485 24.8317 41.3235 25.0068C41.4985 25.1818 41.5969 25.4192 41.5969 25.6667C41.5969 25.9143 41.4985 26.1517 41.3235 26.3267C41.1485 26.5017 40.9111 26.6001 40.6635 26.6001Z" fill="white"/>
<path d="M64.937 26.6001H50.0036C49.7561 26.6001 49.5187 26.5017 49.3437 26.3267C49.1686 26.1517 49.0703 25.9143 49.0703 25.6667C49.0703 25.4192 49.1686 25.1818 49.3437 25.0068C49.5187 24.8317 49.7561 24.7334 50.0036 24.7334H64.937C65.1845 24.7334 65.4219 24.8317 65.5969 25.0068C65.772 25.1818 65.8703 25.4192 65.8703 25.6667C65.8703 25.9143 65.772 26.1517 65.5969 26.3267C65.4219 26.5017 65.1845 26.6001 64.937 26.6001Z" fill="#FF5D00"/>
</svg>
