<svg width="72" height="64" viewBox="0 0 72 64" fill="none" xmlns="http://www.w3.org/2000/svg">
<path fill-rule="evenodd" clip-rule="evenodd" d="M26.9129 0C26.6394 0.000554008 26.3687 0.0545615 26.1163 0.158933C25.8639 0.263304 25.6347 0.41599 25.4419 0.608253C25.2491 0.800517 25.0964 1.02858 24.9926 1.2794C24.8888 1.53022 24.8359 1.79887 24.8369 2.06998V15.3114C24.8391 15.8561 25.0587 16.3778 25.4476 16.7627C25.8366 17.1475 26.3634 17.3641 26.9129 17.3652H44.8773C45.4261 17.363 45.9518 17.1459 46.3399 16.7612C46.728 16.3765 46.947 15.8554 46.9492 15.3114V2.06998C46.9513 1.52314 46.7342 0.997864 46.3457 0.609679C45.9571 0.221493 45.4289 0.00218899 44.8773 0H26.9129ZM17.8047 2.99622C17.5301 2.98453 17.2559 3.02691 16.9979 3.12092C16.7399 3.21493 16.5032 3.3587 16.3016 3.54392C16.101 3.72935 15.9395 3.95227 15.8261 4.19986C15.7128 4.44744 15.65 4.71479 15.6413 4.98652C15.6327 5.25826 15.6783 5.52902 15.7756 5.78321C15.8729 6.0374 16.0199 6.27001 16.2082 6.46765L16.3544 6.62063H7.25847C6.98395 6.61957 6.71194 6.67238 6.45811 6.77603C6.20428 6.87968 5.97366 7.03211 5.77954 7.22454C5.58542 7.41697 5.43165 7.64558 5.3271 7.89721C5.22254 8.14883 5.16926 8.41848 5.17034 8.69061C5.1714 8.96139 5.22625 9.22931 5.33177 9.47907C5.43728 9.72883 5.59139 9.95555 5.78529 10.1463C5.9792 10.337 6.20909 10.488 6.46186 10.5906C6.71463 10.6933 6.98532 10.7456 7.25847 10.7445H16.3666L16.2081 10.9096C15.8328 11.3081 15.6319 11.8377 15.6494 12.3825C15.6669 12.9274 15.9014 13.4433 16.3015 13.8172C16.5007 14.0042 16.7351 14.1502 16.9914 14.247C17.2477 14.3438 17.5207 14.3893 17.7948 14.3811C18.069 14.3729 18.3387 14.311 18.5886 14.199C18.8385 14.087 19.0636 13.9271 19.2509 13.7286L22.6715 10.088C23.0313 9.7061 23.2315 9.20304 23.2315 8.68049C23.2315 8.15794 23.0313 7.65488 22.6715 7.27298L19.2509 3.63648C18.8729 3.2423 18.3531 3.01223 17.8047 2.99622ZM28.9848 4.12384H42.7892V13.2414H28.9848V4.12384ZM33.3926 6.6207C33.1191 6.62123 32.8484 6.67522 32.596 6.77958C32.3436 6.88394 32.1144 7.03663 31.9216 7.22889C31.7287 7.42116 31.5761 7.64923 31.4723 7.90006C31.3685 8.15089 31.3156 8.41955 31.3167 8.69066C31.3188 9.23542 31.5383 9.7572 31.9273 10.142C32.3162 10.5269 32.843 10.7435 33.3926 10.7445H38.3976C38.9464 10.7424 39.4722 10.5253 39.8603 10.1406C40.2484 9.75591 40.4673 9.23473 40.4695 8.69066C40.4706 8.41988 40.4178 8.15155 40.3143 7.90098C40.2107 7.65042 40.0584 7.42252 39.866 7.2303C39.6736 7.03809 39.4449 6.88532 39.193 6.78073C38.941 6.67613 38.6707 6.62176 38.3976 6.6207H33.3926ZM51.1864 6.6207C50.9119 6.61964 50.6399 6.67245 50.386 6.7761C50.1322 6.87975 49.9016 7.03218 49.7075 7.22461C49.5133 7.41703 49.3596 7.64565 49.255 7.89726C49.1505 8.14888 49.0972 8.41853 49.0983 8.69066C49.0993 8.96143 49.1542 9.22935 49.2597 9.47911C49.3652 9.72887 49.5193 9.95558 49.7132 10.1463C49.9071 10.337 50.137 10.488 50.3898 10.5907C50.6425 10.6933 50.9132 10.7456 51.1864 10.7445H57.5117C62.9159 10.7445 67.2008 14.997 67.2008 20.3494C67.2008 25.7018 62.9159 29.9381 57.5117 29.9381H55.5089L55.6551 29.7851C55.8434 29.5875 55.9905 29.3549 56.0878 29.1007C56.1851 28.8465 56.2307 28.5757 56.222 28.304C56.2133 28.0322 56.1505 27.7649 56.0372 27.5173C55.9239 27.2697 55.7623 27.0468 55.5617 26.8614C55.1585 26.4913 54.624 26.2944 54.0748 26.3137C53.8 26.3221 53.5297 26.3845 53.2793 26.4971C53.029 26.6098 52.8037 26.7706 52.6164 26.9701L49.1917 30.5905C48.8308 30.9726 48.6299 31.4765 48.6299 32C48.6299 32.5235 48.8308 33.0274 49.1917 33.4095L52.6164 37.0461C52.8034 37.2443 53.028 37.404 53.2774 37.516C53.5268 37.6279 53.796 37.69 54.0697 37.6986C54.3433 37.7072 54.616 37.6622 54.872 37.5661C55.128 37.47 55.3624 37.3248 55.5617 37.1387C55.9619 36.7647 56.1964 36.2489 56.2139 35.704C56.2314 35.1591 56.0305 34.6295 55.6551 34.231L55.4966 34.0619H57.5116C65.1472 34.0619 71.3607 27.9163 71.3607 20.3494C71.3607 12.7825 65.1472 6.62071 57.5116 6.62071L51.1864 6.6207ZM26.9129 23.3174C26.6394 23.3179 26.3687 23.372 26.1163 23.4763C25.8639 23.5807 25.6347 23.7334 25.4419 23.9256C25.2491 24.1179 25.0964 24.346 24.9926 24.5968C24.8888 24.8476 24.8359 25.1163 24.8369 25.3874V38.6287C24.8391 39.1735 25.0587 39.6952 25.4476 40.0801C25.8366 40.4649 26.3634 40.6815 26.9129 40.6826H44.8773C45.4261 40.6804 45.9518 40.4633 46.3399 40.0786C46.728 39.6939 46.947 39.1728 46.9492 38.6287V25.3874C46.9513 24.8405 46.7342 24.3153 46.3457 23.9271C45.9571 23.5389 45.4289 23.3196 44.8773 23.3174H26.9129ZM28.9848 27.4412H42.7892V36.5588H28.9848V27.4412ZM14.4897 29.9381C6.85412 29.9381 0.640625 36.0999 0.640625 43.6667C0.640625 51.2336 6.85412 57.3793 14.4897 57.3793H16.3666L16.2081 57.5484C15.8328 57.9469 15.6319 58.4764 15.6494 59.0213C15.6669 59.5662 15.9014 60.0821 16.3015 60.456C16.5009 60.6427 16.7355 60.7885 16.992 60.8849C17.2484 60.9814 17.5215 61.0266 17.7956 61.018C18.0698 61.0094 18.3394 60.9471 18.5892 60.8348C18.839 60.7224 19.0638 60.5623 19.2509 60.3634L22.6715 56.7269C23.0313 56.345 23.2314 55.842 23.2314 55.3194C23.2314 54.7969 23.0313 54.2938 22.6715 53.9119L19.2509 50.2874C18.8749 49.8888 18.3548 49.6541 17.8046 49.635C17.53 49.6233 17.2558 49.6657 16.9978 49.7597C16.7398 49.8537 16.5031 49.9974 16.3015 50.1827C16.1015 50.368 15.9405 50.5907 15.8275 50.8379C15.7146 51.0852 15.652 51.352 15.6433 51.6233C15.6346 51.8946 15.68 52.1648 15.777 52.4187C15.8739 52.6725 16.0204 52.9048 16.2081 53.1024L16.3543 53.2554H14.4896C9.08549 53.2554 4.80055 49.019 4.80055 43.6666C4.80055 38.3143 9.08549 34.0618 14.4896 34.0618H20.815C21.3638 34.0597 21.8895 33.8426 22.2776 33.4579C22.6657 33.0732 22.8847 32.5521 22.8868 32.008C22.8879 31.7372 22.8352 31.4689 22.7316 31.2183C22.6281 30.9678 22.4758 30.7399 22.2834 30.5476C22.091 30.3554 21.8623 30.2027 21.6103 30.0981C21.3584 29.9935 21.0881 29.9391 20.815 29.938L14.4897 29.9381ZM33.3926 29.9381C33.1191 29.9386 32.8484 29.9926 32.596 30.097C32.3435 30.2013 32.1144 30.354 31.9215 30.5463C31.7287 30.7386 31.576 30.9666 31.4723 31.2175C31.3685 31.4683 31.3156 31.737 31.3167 32.0081C31.3188 32.5528 31.5383 33.0746 31.9273 33.4594C32.3163 33.8443 32.843 34.0609 33.3926 34.0619H38.3976C38.9464 34.0598 39.4722 33.8427 39.8603 33.458C40.2484 33.0733 40.4673 32.5521 40.4695 32.0081C40.4706 31.7373 40.4178 31.469 40.3143 31.2184C40.2107 30.9678 40.0584 30.7399 39.866 30.5477C39.6736 30.3555 39.4449 30.2027 39.193 30.0981C38.941 29.9935 38.6707 29.9391 38.3976 29.9381H33.3926ZM26.9129 46.6509C26.3634 46.652 25.8366 46.8686 25.4476 47.2534C25.0587 47.6383 24.8391 48.16 24.8369 48.7048V61.9461C24.8391 62.4909 25.0587 63.0126 25.4476 63.3975C25.8366 63.7823 26.3634 63.9989 26.9129 64H44.8773C45.4261 63.9978 45.9518 63.7807 46.3399 63.396C46.728 63.0113 46.947 62.4902 46.9492 61.9461V48.7048C46.947 48.1607 46.728 47.6396 46.3399 47.2549C45.9518 46.8702 45.4261 46.6531 44.8773 46.6509H26.9129ZM61.2492 49.627C60.9754 49.6174 60.7023 49.6616 60.4458 49.757C60.1892 49.8524 59.9542 49.997 59.7542 50.1827C59.5542 50.3681 59.3932 50.5908 59.2802 50.838C59.1673 51.0852 59.1047 51.3521 59.096 51.6234C59.0873 51.8946 59.1327 52.1649 59.2297 52.4187C59.3266 52.6725 59.4731 52.9049 59.6608 53.1024L59.807 53.2554H50.7111C50.4366 53.2543 50.1646 53.3072 49.9107 53.4108C49.6569 53.5145 49.4263 53.6669 49.2322 53.8593C49.038 54.0517 48.8843 54.2804 48.7797 54.532C48.6752 54.7836 48.6219 55.0533 48.623 55.3254C48.624 55.5962 48.6789 55.8641 48.7844 56.1138C48.8899 56.3636 49.044 56.5903 49.2379 56.781C49.4318 56.9717 49.6617 57.1227 49.9145 57.2254C50.1673 57.328 50.4379 57.3803 50.7111 57.3792H59.8192L59.6607 57.5484C59.2854 57.9468 59.0845 58.4764 59.102 59.0213C59.1195 59.5662 59.354 60.082 59.7541 60.456C59.9535 60.6427 60.1882 60.7884 60.4446 60.8849C60.701 60.9813 60.9741 61.0265 61.2483 61.0179C61.5224 61.0093 61.7921 60.947 62.0418 60.8347C62.2916 60.7224 62.5165 60.5622 62.7035 60.3634L66.1282 56.7268C66.488 56.3449 66.6881 55.8419 66.6881 55.3193C66.6881 54.7968 66.488 54.2937 66.1282 53.9118L62.7035 50.2874C62.5171 50.0876 62.2926 49.9264 62.0429 49.813C61.7933 49.6996 61.5236 49.6365 61.2492 49.627ZM28.9848 50.7586H42.7892V59.8762H28.9848V50.7586ZM33.3926 53.2555C33.1191 53.256 32.8484 53.31 32.596 53.4144C32.3435 53.5187 32.1144 53.6714 31.9215 53.8637C31.7287 54.0559 31.576 54.284 31.4723 54.5348C31.3685 54.7857 31.3156 55.0543 31.3167 55.3254C31.3188 55.8702 31.5383 56.392 31.9273 56.7768C32.3163 57.1616 32.843 57.3782 33.3926 57.3793H38.3976C38.9464 57.3772 39.4722 57.1601 39.8603 56.7754C40.2484 56.3907 40.4673 55.8695 40.4695 55.3254C40.4706 55.0547 40.4178 54.7863 40.3143 54.5358C40.2107 54.2852 40.0584 54.0573 39.866 53.8651C39.6736 53.6729 39.4449 53.5201 39.193 53.4155C38.941 53.3109 38.6707 53.2565 38.3976 53.2555H33.3926Z" fill="#FF5D00"/>
</svg>
