<svg width="70" height="70" viewBox="0 0 70 70" fill="none" xmlns="http://www.w3.org/2000/svg">
<path d="M26.4134 67.4382C25.86 66.6739 25.475 65.789 25.3001 64.8797C25.1237 63.9752 24.2559 63.3837 23.372 63.5629C22.4818 63.7406 21.9011 64.6173 22.0759 65.5218C22.1722 66.0217 22.3234 66.5114 22.4986 66.9929C20.6992 66.8173 19.0001 65.8387 17.9518 64.2637C17.6823 63.8595 17.4578 63.4244 17.2861 62.9714C16.9348 62.0522 16.9124 61.0614 17.222 60.2515C17.5412 59.4171 17.9679 59.2346 18.1074 59.1743C18.9431 58.8158 19.3329 57.8364 18.98 56.9873C18.6271 56.1366 17.6615 55.7439 16.8274 56.1008C15.6492 56.6068 14.7477 57.5952 14.2051 58.9502C13.0297 57.7545 12.3199 56.1024 12.3199 54.3375C12.3199 53.7443 12.4001 53.1609 12.5621 52.5563C13.0482 50.762 14.2689 49.2774 15.9098 48.4854C16.7295 48.0894 17.0776 47.0937 16.6878 46.2609C16.2964 45.4282 15.3179 45.0778 14.4982 45.4706C12.7602 46.3111 11.3442 47.6637 10.3858 49.3214C9.50433 48.1921 8.99944 46.7804 8.99944 45.2783C8.99944 42.7295 10.4447 40.417 12.7001 39.379C13.478 39.0106 14.3202 38.8232 15.204 38.8232C16.1119 38.8232 16.8466 38.0769 16.8466 37.1545C16.8466 36.2321 16.1119 35.4857 15.204 35.4857C14.5259 35.4857 13.8622 35.5583 13.2186 35.7C13.1989 35.4894 13.1652 35.2812 13.1652 35.0669C13.1652 32.8278 14.2592 30.7793 16.0927 29.5848C17.068 28.9492 18.2005 28.6119 19.3682 28.6119H19.3923C20.3002 28.6119 21.022 27.8655 21.022 26.9431C21.022 26.895 20.9988 26.8543 20.9948 26.807L21.0301 26.8046C21.0204 26.6596 21.0108 26.5096 21.0108 26.3564C21.0108 22.7973 23.7939 19.9014 27.2154 19.9014C30.3133 19.9014 32.9348 22.2962 33.3558 25.4821V34.3808L30.4717 35.9958C29.8541 36.3462 29.2911 36.2012 29.0088 36.0855C28.5131 35.8785 28.1362 35.4532 27.9758 34.917C27.6036 33.6638 26.7951 32.6127 25.6964 31.9543C24.9152 31.4866 23.9078 31.7506 23.4474 32.5442C22.9871 33.3379 23.2469 34.3613 24.0281 34.829C24.4131 35.0604 24.6986 35.4336 24.8318 35.8817C25.2793 37.3875 26.3508 38.5886 27.7704 39.1753C28.3784 39.4279 29.0152 39.5517 29.652 39.5517C30.4813 39.5517 31.309 39.3399 32.0581 38.9194L33.3558 38.1926V54.8028L33.258 54.6895C30.7556 51.7887 26.9347 50.5747 23.2806 51.5247C22.4016 51.7529 21.8722 52.6622 22.0968 53.5553C22.3197 54.4467 23.2229 54.9894 24.0955 54.758C26.5369 54.1257 29.1034 54.9389 30.7877 56.8895L33.3558 59.8657V69.6713C30.8599 70.5378 28.0026 69.6562 26.4134 67.4382ZM59.6151 49.321C58.657 47.6641 57.241 46.3107 55.5034 45.4706C54.6837 45.0778 53.7036 45.4282 53.3138 46.261C52.924 47.0937 53.2721 48.0894 54.0918 48.4854C55.7328 49.2791 56.9535 50.7621 57.4379 52.5547C57.6015 53.1609 57.6817 53.7443 57.6817 54.3375C57.6817 56.0931 56.9807 57.7374 55.7937 58.9429C55.2511 57.5927 54.3508 56.6064 53.1742 56.1008C52.3417 55.7439 51.3745 56.1366 51.0216 56.9873C50.6687 57.8364 51.0585 58.8158 51.8942 59.1743C52.0337 59.2346 52.4604 59.4171 52.7796 60.2499C53.0892 61.0614 53.0668 62.0523 52.7155 62.9714C52.5422 63.426 52.3193 63.8595 52.0466 64.2653C51.0015 65.8396 49.2988 66.8174 47.5026 66.9934C47.6778 66.511 47.829 66.0213 47.9257 65.5218C48.1005 64.6173 47.5198 63.7406 46.6296 63.563C45.7345 63.3837 44.8763 63.9753 44.7015 64.8797C44.5266 65.7858 44.1416 66.6723 43.585 67.4432C41.9994 69.6578 39.1429 70.5375 36.641 69.6693V59.8698L39.2139 56.8895C40.8966 54.9405 43.4631 54.124 45.9061 54.758C46.7964 54.9894 47.6819 54.4467 47.9048 53.5553C48.1294 52.6622 47.5984 51.7529 46.721 51.5247C43.0669 50.573 39.246 51.7904 36.7436 54.6895L36.641 54.8085V38.1926L37.9386 38.9194C38.6894 39.3398 39.5171 39.5517 40.3464 39.5517C40.9832 39.5517 41.62 39.4262 42.228 39.1752C43.6476 38.5886 44.7191 37.3875 45.1683 35.8785C45.2998 35.4336 45.5853 35.0604 45.9703 34.829C46.7515 34.3613 47.0113 33.3378 46.551 32.5442C46.089 31.7506 45.08 31.4866 44.3021 31.9543C43.2017 32.6143 42.3916 33.667 42.0227 34.917C41.8623 35.4531 41.4853 35.8785 40.9896 36.0854C40.7089 36.2012 40.1491 36.3462 39.5251 35.9958L36.641 34.3808V25.4976C37.0556 22.3035 39.6815 19.9014 42.7846 19.9014C46.2061 19.9014 48.9892 22.7973 48.9892 26.3564C48.9892 26.5178 48.9796 26.6775 48.9684 26.8274C48.9659 26.862 48.9816 26.8926 48.9812 26.9268C48.9812 26.9325 48.978 26.9374 48.978 26.9431C48.978 26.9692 48.9916 26.9908 48.9928 27.0164C49.002 27.2136 49.0333 27.401 49.1055 27.5762C49.1167 27.6043 49.1368 27.6267 49.1496 27.6544C49.229 27.8207 49.3241 27.9734 49.4516 28.1042C49.4792 28.1328 49.5141 28.1507 49.5438 28.1776C49.6693 28.2892 49.8009 28.3886 49.9565 28.4579C50.023 28.488 50.0968 28.4958 50.1682 28.5169C50.2765 28.5487 50.3767 28.6001 50.4938 28.6086C50.5323 28.6102 50.5708 28.6119 50.6093 28.6119C50.6133 28.6119 50.6165 28.6094 50.6206 28.6094C50.6246 28.6094 50.6278 28.6119 50.6318 28.6119C51.8012 28.6119 52.9336 28.9492 53.9121 29.5864C55.7424 30.7793 56.8364 32.8278 56.8364 35.0669C56.8364 35.2816 56.8027 35.4898 56.7826 35.7008C56.1378 35.5583 55.4745 35.4857 54.7976 35.4857C53.8897 35.4857 53.155 36.2321 53.155 37.1545C53.155 38.0769 53.8897 38.8232 54.7976 38.8232C55.6798 38.8232 56.522 39.0106 57.3176 39.3871C59.5553 40.417 61.0006 42.7295 61.0006 45.2783C61.0006 46.7804 60.4957 48.1921 59.6151 49.321ZM36.0895 16.468C35.2834 16.468 34.6312 15.8054 34.6312 14.9865V9.31772L31.1263 11.0178C30.6749 11.2362 30.1437 11.2059 29.7207 10.9339C29.2963 10.6633 29.0399 10.1902 29.0399 9.68088V1.48157C29.0399 0.662664 29.6922 0 30.4983 0C31.3043 0 31.9566 0.662664 31.9566 1.48157V7.33118L35.4614 5.63113C35.9143 5.41121 36.4441 5.44305 36.8671 5.71505C37.2915 5.98562 37.5478 6.45873 37.5478 6.96802V14.9865C37.5478 15.8054 36.8955 16.468 36.0895 16.468ZM6.0171 20.5872L0.417344 14.7897C-0.146621 14.2066 -0.138075 13.2676 0.43728 12.6947C1.00979 12.1232 1.93264 12.1275 2.49946 12.7149L6.4643 16.8196L7.78448 13.0433C7.95252 12.563 8.35272 12.2027 8.84405 12.0928C9.33537 11.9828 9.84808 12.1376 10.1998 12.5022L15.6757 18.171C16.2397 18.7541 16.2311 19.6931 15.6558 20.266C15.0818 20.8361 14.159 20.8317 13.5936 20.2458L9.75266 16.2698L8.43248 20.0461C8.26443 20.5265 7.86424 20.8867 7.37291 20.9967C6.88446 21.1054 6.37228 20.9555 6.0171 20.5872ZM62.6271 20.9967C62.1358 20.8867 61.7356 20.5265 61.5676 20.0447L60.2488 16.2698L56.4064 20.2458C55.8396 20.8317 54.9168 20.8361 54.3443 20.266C53.7689 19.6931 53.7604 18.7541 54.3243 18.171L59.8016 12.5022C60.1548 12.1362 60.6718 11.9843 61.1574 12.0928C61.6487 12.2027 62.0489 12.563 62.217 13.0448L63.5357 16.8196L67.5005 12.7149C68.0659 12.1275 68.9888 12.1232 69.5627 12.6947C70.1381 13.2676 70.1466 14.2066 69.5827 14.7897L63.9829 20.5872C63.6343 20.9487 63.1246 21.1075 62.6271 20.9967Z" fill="#FF5D00"/>
</svg>
