<svg width="101" height="100" viewBox="0 0 101 100" fill="none" xmlns="http://www.w3.org/2000/svg">
<circle cx="50.5" cy="50" r="50" fill="#FF5D00" fill-opacity="0.1"/>
<g clip-path="url(#clip0_0_1)">
<path d="M72.125 70.7812H54.6094V72.625C54.6094 73.6391 53.7797 74.4688 52.7656 74.4688H41.7031C40.6891 74.4688 39.8594 73.6391 39.8594 72.625V70.7812H22.3438C21.3297 70.7812 20.5 71.6109 20.5 72.625V74.4688C20.5 77.5202 22.9798 80 26.0313 80H68.4375C71.4889 80 73.9688 77.5202 73.9688 74.4688V72.625C73.9688 71.6109 73.1391 70.7812 72.125 70.7812ZM70.8805 67.0938C71.0925 66.513 71.2031 65.8953 71.2031 65.25V46.5452C70.3089 46.7203 69.387 46.8125 68.4375 46.8125C60.3066 46.8125 53.6875 40.1934 53.6875 32.0625H28.7969C25.7455 32.0625 23.2656 34.5423 23.2656 37.5938V65.25C23.2656 65.8953 23.3763 66.513 23.5883 67.0938H70.8805ZM54.2277 49.0379C54.0516 48.8678 53.9112 48.6644 53.8145 48.4394C53.7179 48.2145 53.667 47.9726 53.6649 47.7277C53.6628 47.4829 53.7094 47.2401 53.8021 47.0136C53.8948 46.787 54.0318 46.5811 54.2049 46.408C54.378 46.2349 54.5838 46.098 54.8104 46.0053C55.037 45.9126 55.2798 45.8659 55.5246 45.868C55.7694 45.8702 56.0114 45.921 56.2363 46.0177C56.4613 46.1143 56.6647 46.2547 56.8348 46.4308L60.5223 50.1183C60.8679 50.4641 61.0621 50.933 61.0621 51.4219C61.0621 51.9108 60.8679 52.3797 60.5223 52.7254L56.8348 56.4129C56.4743 56.7734 56.0033 56.9531 55.5313 56.9531C55.0593 56.9531 54.5882 56.7734 54.2277 56.4129C53.8821 56.0672 53.6879 55.5983 53.6879 55.1094C53.6879 54.6205 53.8821 54.1516 54.2277 53.8058L56.6117 51.4219L54.2277 49.0379ZM43.6418 56.3696L47.3293 45.3071C47.4059 45.0774 47.527 44.865 47.6856 44.6821C47.8443 44.4991 48.0374 44.3492 48.254 44.2409C48.4706 44.1327 48.7063 44.0681 48.9479 44.0509C49.1894 44.0338 49.432 44.0643 49.6617 44.1409C49.8914 44.2175 50.1038 44.3385 50.2867 44.4972C50.4696 44.6558 50.6195 44.849 50.7278 45.0656C50.8361 45.2821 50.9007 45.5179 50.9178 45.7595C50.935 46.001 50.9044 46.2435 50.8278 46.4732L47.1403 57.5358C47.0638 57.7655 46.9427 57.9778 46.7841 58.1608C46.6254 58.3437 46.4323 58.4936 46.2157 58.6019C45.9991 58.7102 45.7633 58.7747 45.5218 58.7919C45.2803 58.8091 45.0377 58.7785 44.808 58.7019C44.5783 58.6254 44.3659 58.5043 44.183 58.3456C44 58.187 43.8502 57.9939 43.7419 57.7773C43.6336 57.5607 43.569 57.3249 43.5518 57.0834C43.5347 56.8418 43.5653 56.5993 43.6418 56.3696ZM33.9465 50.1183L37.634 46.4308C37.8041 46.2547 38.0075 46.1143 38.2324 46.0177C38.4574 45.921 38.6993 45.8702 38.9441 45.868C39.1889 45.8659 39.4317 45.9126 39.6583 46.0053C39.8849 46.098 40.0908 46.2349 40.2639 46.408C40.437 46.5811 40.5739 46.787 40.6666 47.0136C40.7593 47.2401 40.806 47.4829 40.8038 47.7277C40.8017 47.9726 40.7508 48.2145 40.6542 48.4394C40.5576 48.6644 40.4171 48.8678 40.241 49.0379L37.8571 51.4219L40.241 53.8058C40.4171 53.9759 40.5576 54.1794 40.6542 54.4043C40.7508 54.6293 40.8017 54.8712 40.8038 55.116C40.806 55.3608 40.7593 55.6036 40.6666 55.8302C40.5739 56.0568 40.437 56.2626 40.2639 56.4358C40.0908 56.6089 39.8849 56.7458 39.6583 56.8385C39.4317 56.9312 39.1889 56.9778 38.9441 56.9757C38.6993 56.9736 38.4574 56.9227 38.2324 56.8261C38.0075 56.7295 37.8041 56.589 37.634 56.4129L33.9465 52.7254C33.6008 52.3797 33.4066 51.9108 33.4066 51.4219C33.4066 50.933 33.6008 50.4641 33.9465 50.1183ZM50.9403 28.375C51.4293 28.375 51.8983 28.1807 52.244 27.835C52.5898 27.4892 52.7841 27.0202 52.7841 26.5312C52.7841 26.0423 52.5898 25.5733 52.244 25.2275C51.8983 24.8818 51.4293 24.6875 50.9403 24.6875H50.9311C49.9133 24.6875 49.092 25.5135 49.092 26.5312C49.092 27.549 49.9216 28.375 50.9403 28.375ZM43.5653 28.375C44.0543 28.375 44.5233 28.1807 44.869 27.835C45.2148 27.4892 45.4091 27.0202 45.4091 26.5312C45.4091 26.0423 45.2148 25.5733 44.869 25.2275C44.5233 24.8818 44.0543 24.6875 43.5653 24.6875H43.5561C42.5383 24.6875 41.717 25.5135 41.717 26.5312C41.717 27.549 42.5466 28.375 43.5653 28.375ZM68.4375 38.8641C69.7484 37.543 70.6574 35.7924 71.0224 33.9062H65.8516C66.2176 35.7924 67.1266 37.543 68.4375 38.8641ZM71.0224 30.2188C70.6574 28.3326 69.7484 26.582 68.4375 25.2609C67.1266 26.582 66.2176 28.3326 65.8526 30.2188H71.0224ZM69.5143 42.7784C69.2006 43.004 68.8239 43.1253 68.4375 43.125C73.9171 43.125 78.4546 39.136 79.3341 33.9062H74.7468C74.2462 37.4518 72.3444 40.7429 69.5143 42.7784ZM74.7468 30.2188H79.3341C78.4546 24.9899 73.9199 21.0028 68.4421 21C68.8182 21.0009 69.1944 21.1162 69.5143 21.3466C72.3444 23.3821 74.2462 26.6732 74.7468 30.2188ZM67.3608 21.3466C67.6806 21.1162 68.0568 21.0009 68.4329 21C62.9551 21.0028 58.4204 24.9899 57.5409 30.2188H62.1282C62.6288 26.6732 64.5306 23.3821 67.3608 21.3466Z" fill="#FF5D00"/>
<path d="M62.1263 33.9062H57.5391C58.4185 39.136 62.956 43.125 68.4356 43.125C68.0586 43.125 67.6806 43.0098 67.3589 42.7784C64.5287 40.7429 62.6269 37.4518 62.1263 33.9062Z" fill="#FF5D00"/>
</g>
<defs>
<clipPath id="clip0_0_1">
<rect width="59" height="59" fill="white" transform="translate(20.5 21)"/>
</clipPath>
</defs>
</svg>
