<svg width="101" height="100" viewBox="0 0 101 100" fill="none" xmlns="http://www.w3.org/2000/svg">
<circle cx="50.5" cy="50" r="50" fill="#FF5D00" fill-opacity="0.1"/>
<path d="M50.4984 54.2527C53.5157 54.2527 55.9617 51.8067 55.9617 48.7894C55.9617 45.7722 53.5157 43.3262 50.4984 43.3262C47.4811 43.3262 45.0352 45.7722 45.0352 48.7894C45.0352 51.8067 47.4811 54.2527 50.4984 54.2527Z" fill="#FF5D00"/>
<path d="M71.2508 39.7796C70.1965 39.3962 69.0942 39.0128 67.9441 38.6773C68.2316 37.5272 68.4712 36.377 68.6629 35.2748C69.6693 28.9489 68.5671 24.492 65.5 22.7668C64.5895 22.2396 63.5831 22 62.4329 22C59.0783 22 54.8131 24.492 50.5 28.6613C46.1869 24.492 41.9217 22 38.5671 22C37.4169 22 36.4105 22.2396 35.5 22.7668C32.4329 24.5399 31.3307 28.9968 32.3371 35.2748C32.5288 36.377 32.7684 37.5272 33.0559 38.6773C31.9058 39.0128 30.8035 39.3482 29.7492 39.7796C23.7588 42.0799 20.5 45.2428 20.5 48.7891C20.5 52.3355 23.8067 55.4984 29.7492 57.7987C30.8035 58.1821 31.9058 58.5655 33.0559 58.901C32.7684 60.0511 32.5288 61.2013 32.3371 62.3035C31.3307 68.6294 32.4329 73.0863 35.5 74.8115C36.4105 75.3387 37.4169 75.5783 38.5671 75.5783C41.9696 75.5783 46.2348 73.0863 50.5 68.9169C54.8131 73.0863 59.0783 75.5783 62.4329 75.5783C63.5831 75.5783 64.5895 75.3387 65.5 74.8115C68.5671 73.0383 69.6693 68.5815 68.6629 62.3035C68.4712 61.2013 68.2316 60.0511 67.9441 58.901C69.0942 58.5655 70.1965 58.23 71.2508 57.7987C77.2412 55.4984 80.5 52.3355 80.5 48.7891C80.5 45.2428 77.2412 42.0799 71.2508 39.7796ZM64.1581 25.1629C66.123 26.3131 66.7939 29.8594 65.9792 34.8914C65.8355 35.8978 65.5958 36.9521 65.3083 38.0543C62.8163 37.4792 60.1805 37.0958 57.401 36.8562C55.7716 34.5559 54.0942 32.4952 52.4169 30.6262C55.9633 27.1278 59.5575 24.7316 62.4808 24.7316C63.1038 24.7316 63.6789 24.8754 64.1581 25.1629ZM58.7907 53.5815C57.9281 55.115 56.9217 56.6486 55.8674 58.1821C54.0942 58.3259 52.3211 58.3738 50.5 58.3738C48.631 58.3738 46.8578 58.3259 45.1326 58.1821C44.0783 56.6486 43.1198 55.115 42.2572 53.5815C41.3466 52 40.484 50.3706 39.7173 48.7891C40.484 47.2077 41.3466 45.5783 42.2572 43.9968C43.1198 42.4633 44.1262 40.9297 45.1805 39.3962C46.9537 39.2524 48.7268 39.2045 50.5479 39.2045C52.4169 39.2045 54.1901 39.2524 55.9153 39.3962C56.9697 40.9297 57.9281 42.4633 58.7907 43.9968C59.7013 45.5783 60.5639 47.2077 61.3307 48.7891C60.516 50.3706 59.7013 51.9521 58.7907 53.5815ZM62.7684 52C63.4872 53.6773 64.0623 55.3067 64.5895 56.9361C62.9601 57.3195 61.2348 57.607 59.4137 57.8466C59.9888 56.9361 60.6118 55.9776 61.139 54.9712C61.7141 53.9649 62.2412 52.9585 62.7684 52ZM50.5 64.9872C49.3498 63.7412 48.2476 62.3994 47.1933 61.0096C48.2955 61.0575 49.3978 61.1054 50.5 61.1054C51.6022 61.1054 52.7045 61.0575 53.8067 61.0096C52.7524 62.3994 51.6502 63.7412 50.5 64.9872ZM41.5863 57.7987C39.7652 57.5591 38.0399 57.2716 36.4105 56.8882C36.9377 55.3067 37.5128 53.6294 38.2316 51.9521C38.7588 52.9105 39.2859 53.9169 39.861 54.8754C40.4361 55.9297 41.0112 56.8403 41.5863 57.7987ZM38.2316 45.5783C37.5128 43.901 36.9377 42.2716 36.4105 40.6422C38.0399 40.2588 39.7652 39.9712 41.5863 39.7316C41.0112 40.6422 40.3882 41.6006 39.861 42.607C39.2859 43.6134 38.7588 44.6198 38.2316 45.5783ZM50.5 32.5911C51.6502 33.8371 52.7524 35.1789 53.8067 36.5687C52.7045 36.5208 51.6022 36.4728 50.5 36.4728C49.3978 36.4728 48.2955 36.5208 47.1933 36.5687C48.2476 35.1789 49.3498 33.8371 50.5 32.5911ZM61.139 42.655L59.4137 39.7796C61.2348 40.0192 62.9601 40.3067 64.5895 40.6901C64.0623 42.2716 63.4872 43.9489 62.7684 45.6262C62.2412 44.6198 61.7141 43.6134 61.139 42.655ZM35.0208 34.8914C34.2061 29.8594 34.877 26.3131 36.8419 25.1629C37.3211 24.8754 37.8962 24.7316 38.5192 24.7316C41.3946 24.7316 44.9888 27.0799 48.5831 30.6262C46.9058 32.4473 45.2284 34.5559 43.599 36.8562C40.8195 37.0958 38.1837 37.5272 35.6917 38.0543C35.4042 36.9521 35.2125 35.8978 35.0208 34.8914ZM23.1837 48.7891C23.1837 46.5367 25.9153 44.1406 30.7077 42.3674C31.6661 41.984 32.7204 41.6486 33.7748 41.361C34.5415 43.7572 35.5 46.2971 36.6502 48.8371C35.5 51.377 34.4936 53.869 33.7748 56.2652C27.1613 54.3482 23.1837 51.4728 23.1837 48.7891ZM36.8419 72.4153C34.877 71.2652 34.2061 67.7189 35.0208 62.6869C35.1645 61.6805 35.4042 60.6262 35.6917 59.524C38.1837 60.099 40.8195 60.4824 43.599 60.722C45.2284 63.0224 46.9058 65.0831 48.5831 66.9521C45.0367 70.4505 41.4425 72.8466 38.5192 72.8466C37.8962 72.8466 37.3211 72.7029 36.8419 72.4153ZM65.9792 62.6869C66.7939 67.7189 66.123 71.2652 64.1581 72.4153C63.6789 72.7029 63.1038 72.8466 62.4808 72.8466C59.6054 72.8466 56.0112 70.4984 52.4169 66.9521C54.0942 65.131 55.7716 63.0224 57.401 60.722C60.1805 60.4824 62.8163 60.0511 65.3083 59.524C65.5958 60.6262 65.7875 61.6805 65.9792 62.6869ZM70.2923 55.2109C69.3339 55.5942 68.2796 55.9297 67.2252 56.2173C66.4585 53.8211 65.5 51.2812 64.3498 48.7412C65.5 46.2013 66.5064 43.7093 67.2252 41.3131C73.8387 43.23 77.8163 46.1054 77.8163 48.7891C77.8163 51.0415 75.0367 53.4377 70.2923 55.2109Z" fill="#FF5D00"/>
</svg>
