<svg width="50" height="50" viewBox="0 0 50 50" fill="none" xmlns="http://www.w3.org/2000/svg">
<path fill-rule="evenodd" clip-rule="evenodd" d="M22.1986 28.6348C21.6756 28.4502 21.1993 28.284 20.7819 28.1519C19.0951 27.6172 17.514 28.0693 15.9703 28.8635C15.2913 27.6952 14.7854 26.4359 14.4626 25.1266L11.6142 24.0564V19.5153L14.4626 18.4451C14.828 16.9588 15.4276 15.5457 16.2474 14.2469L15.0059 11.5213L18.2946 8.31101L21.0867 9.5229C22.4172 8.72254 23.8647 8.13718 25.3826 7.78509L26.4835 5H31.1354L32.2316 7.78509C33.7495 8.13718 35.1971 8.72254 36.5275 9.5229L39.3196 8.31101L42.6082 11.5213L41.3715 14.2469C42.1913 15.5457 42.7909 16.9588 43.1517 18.4451L46 19.5153V24.0564L43.1517 25.1266C42.8132 26.5172 42.26 27.8475 41.5193 29.0795C40.956 29.2771 40.3414 29.5575 39.6737 29.9372L31.7847 34.4224C31.3909 34.6465 30.9891 34.802 30.5764 34.8958C30.7264 34.6534 30.8441 34.3801 30.927 34.079C31.2373 32.9525 30.7997 31.8304 29.9249 31.133C34.7228 30.5919 38.4488 26.6117 38.4488 21.7831C38.4488 16.5853 34.1312 12.376 28.8067 12.376C23.4821 12.376 19.1701 16.5853 19.1701 21.7831C19.1701 23.5334 19.659 25.1721 20.5108 26.576C20.9732 27.3381 21.5425 28.0309 22.1986 28.6348ZM24.8333 28.833C23.4382 28.0813 22.2905 26.9459 21.5387 25.5726L23.7222 23.441C22.8197 21.2981 23.2649 18.7444 25.0394 17.0121C26.7163 15.3751 29.1189 14.8988 31.2227 15.5715L26.9114 19.7802L27.7346 22.7625L30.7897 23.5661L35.1009 19.3575C35.7839 21.4052 35.2961 23.7506 33.6192 25.3876C31.8447 27.1198 29.2286 27.5544 27.0395 26.6793L24.8333 28.833ZM14.8336 40.2097L10.757 33.1781L16.0285 30.1987C17.4365 29.4038 18.8572 28.799 20.4036 29.2893H20.4039C22.2984 29.889 25.3894 31.1705 28.5455 31.7328C29.4265 32.0274 29.9866 32.8878 29.744 33.7685L29.7439 33.7687C29.5064 34.6323 28.7594 35.0669 27.7241 34.9505C25.9773 34.599 24.3561 34.0817 22.5574 33.6099C22.2775 33.5364 21.9893 33.6986 21.9141 33.9718C21.8389 34.2449 22.0051 34.5263 22.2849 34.5998C24.112 35.079 25.7585 35.603 27.5339 35.9587L28.5348 36.1182C28.5354 36.1184 28.5361 36.1185 28.5367 36.1186C29.9202 36.3336 31.1901 36.1448 32.4015 35.4556L40.2903 30.9705C41.97 30.0153 43.2097 29.7508 44.0863 29.93C45.1304 30.1436 45.5369 31.0464 45.4673 31.8704C45.4216 32.411 45.1804 32.9317 44.7436 33.1943L30.428 41.7984L30.4275 41.7987C29.2392 42.5146 27.9369 42.6778 26.5884 42.3266L16.2048 39.6101C16.0703 39.5749 15.927 39.5933 15.8064 39.6613L14.8336 40.2097ZM8.38551 31.8622L14.892 43.0852C15.2054 43.6296 15.0076 44.3245 14.4526 44.6304L12.2401 45.8546C11.6824 46.1607 10.9706 45.9675 10.6571 45.4256L4.15069 34.2027C3.83464 33.6583 4.03248 32.9634 4.58758 32.6574L6.80264 31.4333C7.35765 31.1272 8.06946 31.3204 8.38551 31.8622ZM6.87386 33.421C6.37179 33.491 6.02503 33.9462 6.09678 34.4364C6.1715 34.9266 6.63779 35.268 7.13995 35.195C7.64211 35.125 7.98879 34.6669 7.91704 34.1767C7.84231 33.6865 7.37603 33.3481 6.87386 33.421Z" fill="#A3ACB5"/>
</svg>
