<svg width="50" height="50" viewBox="0 0 50 50" fill="none" xmlns="http://www.w3.org/2000/svg">
<mask id="mask0_10891_27580" style="mask-type:luminance" maskUnits="userSpaceOnUse" x="0" y="0" width="50" height="50">
<path d="M0 3.8147e-06H50V50H0V3.8147e-06Z" fill="white"/>
</mask>
<g mask="url(#mask0_10891_27580)">
<path d="M45.6055 37.5H4.39453C2.77656 37.5 1.46484 36.1883 1.46484 34.5703V6.05469C1.46484 4.43672 2.77656 3.125 4.39453 3.125H45.6055C47.2234 3.125 48.5352 4.43672 48.5352 6.05469V34.5703C48.5352 36.1883 47.2234 37.5 45.6055 37.5Z" stroke="#1B275F" stroke-width="1.9" stroke-miterlimit="10" stroke-linecap="round" stroke-linejoin="round"/>
<path d="M31.25 46.875H18.75L20.3125 37.5H29.6875L31.25 46.875Z" stroke="#1B275F" stroke-width="1.9" stroke-miterlimit="10" stroke-linecap="round" stroke-linejoin="round"/>
<path d="M15.625 46.875H34.375" stroke="#1B275F" stroke-width="1.9" stroke-miterlimit="10" stroke-linecap="round" stroke-linejoin="round"/>
<path d="M7.8125 12.5V28.125H20.3125" stroke="#1B275F" stroke-width="1.9" stroke-miterlimit="10" stroke-linecap="round" stroke-linejoin="round"/>
<path d="M14.0625 28.125V17.1875" stroke="#1B275F" stroke-width="1.9" stroke-miterlimit="10" stroke-linecap="round" stroke-linejoin="round"/>
<path d="M20.3125 28.125V21.875" stroke="#1B275F" stroke-width="1.9" stroke-miterlimit="10" stroke-linecap="round" stroke-linejoin="round"/>
<path d="M42.1875 20.3125C42.1875 24.1958 39.0396 27.3438 35.1562 27.3438C31.2729 27.3438 28.125 24.1958 28.125 20.3125C28.125 16.4292 31.2729 13.2812 35.1562 13.2812C39.0396 13.2812 42.1875 16.4292 42.1875 20.3125Z" stroke="#1B275F" stroke-width="1.9" stroke-miterlimit="10" stroke-linecap="round" stroke-linejoin="round"/>
<path d="M35.1562 13.2812V20.3125H42.1875" stroke="#1B275F" stroke-width="1.9" stroke-miterlimit="10" stroke-linecap="round" stroke-linejoin="round"/>
<path d="M35.1562 20.3125L30.1846 25.2842" stroke="#1B275F" stroke-width="1.9" stroke-miterlimit="10" stroke-linecap="round" stroke-linejoin="round"/>
<path d="M25 3.125V6.25" stroke="#1B275F" stroke-width="1.9" stroke-miterlimit="10" stroke-linecap="round" stroke-linejoin="round"/>
</g>
</svg>
