<svg width="133" height="51" viewBox="0 0 133 51" fill="none" xmlns="http://www.w3.org/2000/svg">
<path d="M19.4271 20.0753L24.6528 25.4225C24.7743 25.5441 24.8958 25.6135 25 25.6135C25.1042 25.6135 25.2257 25.5441 25.3472 25.4225L30.5729 20.0753C30.6944 19.9538 30.7639 19.8322 30.7639 19.7281C30.7639 19.5545 30.6771 19.485 30.4861 19.485H19.5312C19.3403 19.485 19.2535 19.5718 19.2535 19.7281C19.2361 19.8322 19.3056 19.9538 19.4271 20.0753ZM50 1.06489C50 0.873915 49.9132 0.787109 49.7396 0.787109C49.6354 0.787109 49.5312 0.839193 49.4271 0.943359L45.1389 5.28364V46.2559L49.4271 50.6309C49.5312 50.735 49.6354 50.7871 49.7396 50.7871C49.9132 50.7871 50 50.7003 50 50.5093V1.06489ZM0 50.5093C0 50.7003 0.0868056 50.7871 0.260417 50.7871C0.364583 50.7871 0.46875 50.735 0.572917 50.6309L4.86111 46.2559V5.28364L0.572917 0.943359C0.46875 0.839193 0.347222 0.787109 0.260417 0.787109C0.0868056 0.787109 0 0.873915 0 1.06489V50.5093ZM11.1458 11.6899H38.8715L42.7604 7.73155C42.8646 7.62739 42.9167 7.52322 42.9167 7.41905C42.9167 7.24544 42.8299 7.15864 42.6389 7.15864H7.36111C7.17014 7.15864 7.08333 7.24544 7.08333 7.41905C7.08333 7.52322 7.13542 7.62739 7.23958 7.73155L11.1458 11.6899ZM7.23958 43.8427C7.13542 43.9468 7.08333 44.051 7.08333 44.1552C7.08333 44.3288 7.17014 44.3982 7.36111 44.3982H42.6215C42.8125 44.3982 42.8993 44.3114 42.8993 44.1552C42.8993 44.051 42.8472 43.9468 42.7431 43.8427L38.8542 39.8843H11.1458L7.23958 43.8427ZM36.7708 37.7663C36.875 37.8704 36.9792 37.9225 37.0833 37.9225C37.2569 37.9225 37.3264 37.8357 37.3264 37.6447V13.9295C37.3264 13.7385 37.2396 13.6517 37.0833 13.6517C36.9792 13.6517 36.875 13.7038 36.7708 13.8079L32.7083 17.9399V33.6517L36.7708 37.7663ZM17.2917 33.6343V17.9399L13.2292 13.8079C13.125 13.7038 13.0208 13.6517 12.9167 13.6517C12.7431 13.6517 12.6736 13.7559 12.6736 13.9295V37.6447C12.6736 37.8357 12.7604 37.9225 12.9167 37.9225C13.0208 37.9225 13.125 37.8704 13.2292 37.7663L17.2917 33.6343Z" fill="black"/>
<path d="M71.7614 18.2417H73.8636L78.8068 30.3155H78.9773L83.9205 18.2417H86.0227V32.7871H84.375V21.736H84.233L79.6875 32.7871H78.0966L73.5511 21.736H73.4091V32.7871H71.7614V18.2417ZM92.5373 33.0428C91.846 33.0428 91.2186 32.9126 90.6552 32.6522C90.0917 32.387 89.6443 32.0059 89.3129 31.5087C88.9814 31.0068 88.8157 30.4007 88.8157 29.6905C88.8157 29.0655 88.9388 28.5589 89.185 28.1706C89.4312 27.7776 89.7603 27.4699 90.1722 27.2473C90.5842 27.0248 91.0387 26.8591 91.5359 26.7502C92.0378 26.6365 92.542 26.5466 93.0487 26.4803C93.7115 26.3951 94.2489 26.3311 94.6609 26.2885C95.0775 26.2412 95.3806 26.1631 95.57 26.0542C95.7641 25.9453 95.8612 25.7559 95.8612 25.486V25.4292C95.8612 24.7284 95.6694 24.1839 95.2859 23.7956C94.9071 23.4074 94.3318 23.2132 93.56 23.2132C92.7598 23.2132 92.1325 23.3884 91.6779 23.7388C91.2234 24.0892 90.9038 24.4632 90.7191 24.861L89.1282 24.2928C89.4123 23.6299 89.7911 23.1138 90.2646 22.7445C90.7428 22.3704 91.2636 22.11 91.8271 21.9632C92.3952 21.8117 92.954 21.736 93.5032 21.736C93.8536 21.736 94.256 21.7786 94.7106 21.8638C95.1699 21.9443 95.6126 22.1124 96.0387 22.3681C96.4696 22.6238 96.8271 23.0096 97.1112 23.5257C97.3952 24.0418 97.5373 24.7331 97.5373 25.5996V32.7871H95.8612V31.3098H95.7759C95.6623 31.5466 95.4729 31.7999 95.2077 32.0698C94.9426 32.3397 94.5898 32.5693 94.1495 32.7587C93.7092 32.9481 93.1718 33.0428 92.5373 33.0428ZM92.793 31.5371C93.4558 31.5371 94.0146 31.4069 94.4691 31.1465C94.9284 30.8861 95.274 30.5499 95.506 30.138C95.7428 29.726 95.8612 29.2928 95.8612 28.8382V27.3042C95.7901 27.3894 95.6339 27.4675 95.3924 27.5385C95.1557 27.6048 94.881 27.664 94.5685 27.7161C94.2608 27.7634 93.9601 27.806 93.6665 27.8439C93.3777 27.8771 93.1433 27.9055 92.9634 27.9292C92.5278 27.986 92.1206 28.0783 91.7418 28.2061C91.3678 28.3292 91.0647 28.5163 90.8327 28.7672C90.6055 29.0134 90.4918 29.3496 90.4918 29.7757C90.4918 30.3581 90.7073 30.7985 91.1381 31.0968C91.5737 31.3903 92.1254 31.5371 92.793 31.5371ZM100.597 32.7871V21.878H102.216V23.5257H102.33C102.528 22.986 102.888 22.548 103.409 22.2118C103.93 21.8757 104.517 21.7076 105.17 21.7076C105.294 21.7076 105.447 21.7099 105.632 21.7147C105.817 21.7194 105.956 21.7265 106.051 21.736V23.4405C105.994 23.4263 105.864 23.405 105.661 23.3766C105.462 23.3435 105.251 23.3269 105.028 23.3269C104.498 23.3269 104.025 23.4382 103.608 23.6607C103.196 23.8785 102.869 24.1815 102.628 24.5698C102.391 24.9533 102.273 25.3913 102.273 25.8837V32.7871H100.597ZM117.29 21.878L113.256 32.7871H111.552L107.518 21.878H109.336L112.347 30.5712H112.461L115.472 21.878H117.29ZM123.686 33.0144C122.635 33.0144 121.728 32.7824 120.966 32.3184C120.208 31.8496 119.624 31.1962 119.212 30.3581C118.804 29.5153 118.601 28.5352 118.601 27.4178C118.601 26.3004 118.804 25.3155 119.212 24.4632C119.624 23.6062 120.196 22.9386 120.93 22.4604C121.669 21.9775 122.531 21.736 123.516 21.736C124.084 21.736 124.645 21.8307 125.199 22.0201C125.753 22.2095 126.257 22.5172 126.712 22.9434C127.166 23.3648 127.528 23.9235 127.798 24.6195C128.068 25.3155 128.203 26.1725 128.203 27.1905V27.9007H119.794V26.4519H126.499C126.499 25.8364 126.375 25.2871 126.129 24.8042C125.888 24.3212 125.542 23.94 125.092 23.6607C124.647 23.3813 124.122 23.2417 123.516 23.2417C122.848 23.2417 122.27 23.4074 121.783 23.7388C121.3 24.0655 120.928 24.4917 120.668 25.0172C120.407 25.5428 120.277 26.1062 120.277 26.7076V27.6735C120.277 28.4973 120.419 29.1957 120.703 29.7686C120.992 30.3368 121.392 30.7701 121.903 31.0684C122.415 31.3619 123.009 31.5087 123.686 31.5087C124.126 31.5087 124.524 31.4471 124.879 31.324C125.239 31.1962 125.549 31.0068 125.81 30.7559C126.07 30.5002 126.271 30.1829 126.413 29.8042L128.033 30.2587C127.862 30.8079 127.576 31.2909 127.173 31.7076C126.771 32.1195 126.274 32.4415 125.682 32.6735C125.09 32.9007 124.425 33.0144 123.686 33.0144ZM132.429 18.2417V32.7871H130.753V18.2417H132.429Z" fill="white"/>
</svg>
