<svg width="70" height="71" viewBox="0 0 70 71" fill="none" xmlns="http://www.w3.org/2000/svg">
<path d="M0 35.8542C0 16.5243 15.67 0.854248 35 0.854248C54.33 0.854248 70 16.5243 70 35.8542C70 55.1842 54.33 70.8542 35 70.8542C15.67 70.8542 0 55.1842 0 35.8542Z" fill="#E8F2FC"/>
<path d="M25.9423 19.4045H23.4721C21.6606 19.4045 20.1785 20.8867 20.1785 22.6982V42.4229C20.1785 44.2344 21.6606 45.7166 23.4721 45.7166H25.9423V19.4045Z" fill="#4361EE"/>
<path d="M48.3618 33.8093L39.94 25.3883V22.6982C39.94 20.8867 38.4579 19.4045 36.6464 19.4045H30.8825V45.7166H36.6464C38.4579 45.7166 39.94 44.2344 39.94 42.4229V39.3665L41.6856 41.1121L44.0151 38.7835L40.1755 34.9439L34.9872 29.7556C34.676 29.4444 34.5055 29.0277 34.5063 28.5831C34.5072 28.1434 34.6768 27.7325 34.9872 27.4237C35.6081 26.8021 36.6991 26.8037 37.3191 27.4237L40.7634 30.8689L46.0464 36.1519L45.9871 36.1337L46.0769 36.193C46.1848 36.3552 46.5273 36.9736 46.5273 38.3059V49.0102H33.3527C31.7759 49.0102 30.3844 47.6656 30.1143 45.8821L30.0953 45.7536H26.7646L26.8585 46.3745C27.3699 49.7546 30.162 52.3039 33.3536 52.3039H49.8218V38.3059C49.8209 35.447 48.7143 34.1493 48.3618 33.8093Z" fill="#4361EE"/>
</svg>
