<svg width="70" height="70" viewBox="0 0 70 70" fill="none" xmlns="http://www.w3.org/2000/svg">
<path d="M35 0.5C54.0538 0.5 69.5 15.9462 69.5 35C69.5 54.0538 54.0538 69.5 35 69.5C15.9462 69.5 0.5 54.0538 0.5 35C0.5 15.9462 15.9462 0.5 35 0.5Z" fill="#E8F2FC"/>
<path d="M35 0.5C54.0538 0.5 69.5 15.9462 69.5 35C69.5 54.0538 54.0538 69.5 35 69.5C15.9462 69.5 0.5 54.0538 0.5 35C0.5 15.9462 15.9462 0.5 35 0.5Z" stroke="#E8F2FC"/>
<path d="M19.5146 18.8884C19.8611 18.8884 20.1414 19.1686 20.1416 19.5144V44.5222L21.6211 44.8708L24.2178 39.6814L24.4648 39.1873L24.0811 38.7898C23.4806 38.1662 23.1124 37.3295 23.1123 36.408C23.1123 34.5111 24.6569 32.9656 26.5537 32.9656C28.4506 32.9656 29.9961 34.5111 29.9961 36.408C29.996 37.0329 29.8151 37.6206 29.5068 38.1414L29.1992 38.6599L29.624 39.0886L30.8994 40.3757L31.3291 40.8093L31.8535 40.4968C32.3752 40.1864 32.9639 40.0046 33.5928 40.0046C33.7456 40.0047 33.9033 40.027 34.1191 40.0613L34.6758 40.1492L34.9355 39.6482L38.0068 33.7175L38.2373 33.2732L37.9287 32.8777C37.4669 32.2854 37.1895 31.5636 37.1895 30.7771C37.1895 28.8803 38.7341 27.3349 40.6309 27.3347C42.5278 27.3347 44.0732 28.8802 44.0732 30.7771C44.0732 31.5036 43.843 32.1767 43.4521 32.7371L43.0967 33.2468L43.5137 33.7078L45.4551 35.8552L45.8271 36.2664L46.3389 36.0505C46.7473 35.8779 47.197 35.781 47.6699 35.781C49.5668 35.781 51.1123 37.3265 51.1123 39.2234C51.1122 41.1202 49.5667 42.6648 47.6699 42.6648C45.7731 42.6648 44.2276 41.1202 44.2275 39.2234C44.2275 38.6497 44.3851 38.107 44.6523 37.6101L44.9141 37.1248L44.5439 36.7156L42.3584 34.2976L42.0312 33.9353L41.5625 34.0701C41.2394 34.1629 40.935 34.2185 40.6309 34.2185C40.3778 34.2185 40.1255 34.1844 39.8691 34.1248L39.2773 33.9871L38.998 34.5271L36.0234 40.2712L35.7754 40.7517L36.1367 41.1541C36.6929 41.7719 37.0341 42.57 37.0342 43.446C37.0342 45.3428 35.4895 46.8883 33.5928 46.8884C31.6959 46.8884 30.1504 45.3429 30.1504 43.446C30.1504 43.0429 30.2331 42.6507 30.375 42.2654L30.5479 41.7986L30.1973 41.4451L28.5713 39.8054L28.2178 39.448L27.7461 39.6218C27.3577 39.7653 26.9609 39.8494 26.5537 39.8494C26.444 39.8494 26.3675 39.8319 26.1396 39.8035L25.5908 39.7351L25.3438 40.2292L21.0938 48.7283L20.5283 49.8582H50.4854C50.8317 49.8582 51.1113 50.1389 51.1113 50.4851C51.1113 50.8312 50.8318 51.112 50.4854 51.1121H19.5137C19.4694 51.112 19.3986 51.1008 19.293 51.0613L19.29 51.0603L19.2656 51.0515C19.2417 51.0311 19.2088 51.0049 19.1689 50.9773L19.1699 50.9763C19.1471 50.9605 19.1173 50.9408 19.1035 50.9314C19.0853 50.9189 19.0741 50.9104 19.0654 50.9041L19.0645 50.9031C19.0601 50.896 19.0541 50.8868 19.0459 50.8728C19.0376 50.8587 19.022 50.8319 19.0078 50.8083L19.0039 50.8005L18.999 50.7937C18.9843 50.7704 18.9683 50.7457 18.959 50.7312C18.9494 50.7163 18.9433 50.7059 18.9385 50.698C18.9365 50.6863 18.9348 50.6717 18.9316 50.6492C18.9289 50.6296 18.9236 50.5968 18.9189 50.5662H18.9199C18.9118 50.5116 18.9002 50.4657 18.8926 50.4363C18.8912 50.4308 18.89 50.4255 18.8887 50.4207V19.5144C18.8889 19.1687 19.1686 18.8887 19.5146 18.8884Z" fill="#4361EE" stroke="#4361EE" stroke-width="1.5625"/>
</svg>
