<svg width="70" height="70" viewBox="0 0 70 70" fill="none" xmlns="http://www.w3.org/2000/svg">
<path d="M35 0.5C54.0538 0.5 69.5 15.9462 69.5 35C69.5 54.0538 54.0538 69.5 35 69.5C15.9462 69.5 0.5 54.0538 0.5 35C0.5 15.9462 15.9462 0.5 35 0.5Z" fill="#E8F2FC"/>
<path d="M35 0.5C54.0538 0.5 69.5 15.9462 69.5 35C69.5 54.0538 54.0538 69.5 35 69.5C15.9462 69.5 0.5 54.0538 0.5 35C0.5 15.9462 15.9462 0.5 35 0.5Z" stroke="#E8F2FC"/>
<path d="M45.4878 20.4023V28.6074L35.8638 38.2314C35.3374 38.7578 35.0366 39.473 35.0366 40.2256V46.5303H41.3413C42.0939 46.5303 42.8091 46.2295 43.3354 45.7031L45.4878 43.5498V49.5977H23.2603V20.4023H45.4878ZM47.8394 29.3066C48.0993 29.0467 48.5178 29.047 48.7778 29.3066L52.2622 32.791C52.52 33.0491 52.5201 33.4673 52.2612 33.7275L41.812 44.1777C41.6868 44.3016 41.5174 44.3721 41.3413 44.3721H37.1958V40.2256C37.1958 40.0493 37.2653 39.8808 37.3882 39.7578L47.8394 29.3066ZM28.0698 39.5625H33.7114V37.4043H28.0698V39.5625ZM28.0698 36.0791H37.1948V34.1289H36.9868V33.9209H28.0698V36.0791ZM48.1616 30.8584L46.7808 32.2402L46.6333 32.3877L46.7808 32.5342L49.0327 34.7871L49.1802 34.9336L49.3276 34.7871L50.7085 33.4053L50.856 33.2578L50.7085 33.1113L48.4565 30.8584L48.3091 30.7109L48.1616 30.8584ZM40.6792 25.334L40.5571 25.2119H28.0698V30.8535H40.6792V25.334Z" fill="#4361EE" stroke="#E8F2FC" stroke-width="0.416667"/>
</svg>
