<svg width="70" height="71" viewBox="0 0 70 71" fill="none" xmlns="http://www.w3.org/2000/svg">
<path d="M0 35.8545C0 16.5245 15.67 0.854492 35 0.854492C54.33 0.854492 70 16.5245 70 35.8545C70 55.1845 54.33 70.8545 35 70.8545C15.67 70.8545 0 55.1845 0 35.8545Z" fill="#E8F2FC"/>
<path d="M52.8552 24.6994C52.776 24.6455 52.6824 24.6165 52.5866 24.616C52.5015 24.6123 52.4183 24.6422 52.3551 24.6994L40.7682 36.2214L39.6568 40.0651C39.6308 40.143 39.6233 40.2258 39.635 40.307C39.6466 40.3882 39.677 40.4656 39.7237 40.533C39.7705 40.6004 39.8323 40.656 39.9043 40.6954C39.9762 40.7348 40.0564 40.7568 40.1384 40.7598H40.2681L44.1211 39.6391L55.6987 28.0893C55.7522 28.0258 55.7816 27.9454 55.7816 27.8624C55.7816 27.7793 55.7522 27.699 55.6987 27.6355L52.8552 24.6994Z" fill="#4361EE"/>
<path d="M35.9705 41.4728C35.0998 41.9822 34.2848 42.5379 33.4049 43.001C33.1498 43.1355 32.8792 43.2381 32.5991 43.3067C32.6028 43.2697 32.6028 43.2325 32.5991 43.1955C32.515 42.6955 32.3309 42.2176 32.0577 41.7904C31.7846 41.3633 31.4282 40.9955 31.0096 40.7093C30.5911 40.4231 30.1192 40.2243 29.622 40.1247C29.1249 40.0251 28.6127 40.0268 28.1163 40.1298C26.0169 40.6576 23.9509 41.3102 21.9292 42.0841C19.8187 42.7507 17.6688 43.2858 15.4921 43.6864C15.0491 43.8119 14.6734 44.1067 14.4463 44.5072C14.2192 44.9076 14.159 45.3814 14.2787 45.826C14.4083 46.2642 14.7025 46.6353 15.0996 46.8615C15.4967 47.0876 15.966 47.1514 16.409 47.0393C18.5853 46.6365 20.735 46.1013 22.8461 45.437C23.902 45.1035 24.9579 44.7516 26.0045 44.4089L27.8569 43.8068C28.204 43.6581 28.5679 43.5523 28.9406 43.4919C29.0425 43.4919 29.061 43.6957 29.1258 43.8346C29.3111 44.2607 29.4315 44.7053 29.663 45.122C29.8953 45.6068 30.2532 46.0206 30.6995 46.3203C31.1458 46.62 31.6642 46.7947 32.2008 46.8263C34.2755 46.9374 36.0168 45.437 37.7581 44.4922C39.6753 43.39 37.9248 40.3891 35.9705 41.4728Z" fill="#4361EE"/>
</svg>
