<svg width="70" height="71" viewBox="0 0 70 71" fill="none" xmlns="http://www.w3.org/2000/svg">
<path d="M0 35.8545C0 16.5245 15.67 0.854492 35 0.854492C54.33 0.854492 70 16.5245 70 35.8545C70 55.1845 54.33 70.8545 35 70.8545C15.67 70.8545 0 55.1845 0 35.8545Z" fill="#E8F2FC"/>
<path d="M50.4854 49.9316H21.7929L26.0428 41.4331C26.2118 41.4542 26.3793 41.4852 26.5538 41.4852C27.0704 41.4852 27.559 41.3782 28.0164 41.2093L29.6424 42.8493C29.4748 43.304 29.3693 43.7882 29.3693 44.3007C29.3693 46.629 31.2641 48.5239 33.5925 48.5239C35.9208 48.5239 37.8157 46.629 37.8157 44.3007C37.8157 43.2153 37.392 42.2341 36.7176 41.4852L39.6922 35.7402C39.9948 35.8106 40.3074 35.8542 40.6311 35.8542C41.0309 35.8542 41.411 35.7811 41.7784 35.6755L43.9647 38.094C43.6451 38.688 43.4467 39.3567 43.4467 40.0775C43.4467 42.4058 45.3415 44.3007 47.6699 44.3007C49.9982 44.3007 51.8931 42.4058 51.8931 40.0775C51.8931 37.7491 49.9982 35.8542 47.6699 35.8542C47.0899 35.8542 46.5367 35.9725 46.0341 36.185L44.0928 34.0383C44.57 33.3541 44.8544 32.5264 44.8544 31.631C44.8544 29.3027 42.9595 27.4078 40.6312 27.4078C38.3028 27.4078 36.408 29.3027 36.408 31.631C36.408 32.608 36.7543 33.4963 37.3131 34.2128L34.2415 40.1436C34.0289 40.1098 33.8149 40.0774 33.5925 40.0774C32.8083 40.0774 32.0834 40.3054 31.4541 40.6799L30.1787 39.3932C30.5504 38.7654 30.777 38.0418 30.777 37.2619C30.777 34.9335 28.8822 33.0387 26.5538 33.0387C24.2255 33.0387 22.3306 34.9335 22.3306 37.2619C22.3306 38.3979 22.7867 39.4256 23.5187 40.1857L20.9228 45.3761V20.3691C20.9229 19.5921 20.2937 18.9614 19.5151 18.9614C18.7367 18.9614 18.1074 19.5921 18.1074 20.3691V51.3393C18.1074 51.4082 18.137 51.4688 18.1468 51.5349C18.1623 51.6377 18.1708 51.7377 18.2073 51.8334C18.2397 51.9179 18.2904 51.9883 18.3382 52.0643C18.3847 52.1417 18.4255 52.2206 18.4889 52.2881C18.5565 52.3628 18.6409 52.4148 18.724 52.4726C18.7817 52.512 18.8225 52.5669 18.8859 52.5993C18.9028 52.6077 18.9225 52.6105 18.9408 52.619C18.9661 52.6303 18.9928 52.6373 19.0196 52.6472C19.1815 52.7077 19.3477 52.7471 19.5137 52.7471H19.5151H50.4853C51.2637 52.7471 51.893 52.1165 51.893 51.3394C51.893 50.5624 51.2638 49.9316 50.4854 49.9316Z" fill="#4361EE"/>
</svg>
