<svg width="60" height="60" viewBox="0 0 60 60" fill="none" xmlns="http://www.w3.org/2000/svg">
<g clip-path="url(#clip0_2584_11728)">
<path d="M55.2874 32.3717L27.4617 4.86349L27.4692 4.87146C24.3328 1.73365 20.203 0.156188 16.0914 0.159C11.9797 0.156305 7.84957 1.73365 4.71293 4.87158C1.5743 8.00927 -0.00210726 12.1383 2.11408e-06 16.2503C-0.00210726 20.3624 1.5743 24.4922 4.71305 27.6292L32.5379 55.1366L32.5304 55.1286C35.6678 58.2664 39.7968 59.8428 43.9084 59.8412C48.0205 59.8428 52.1494 58.2664 55.2867 55.1294C58.4255 51.9907 60.0019 47.8601 60.0001 43.7489C60.0019 39.6376 58.4258 35.5087 55.2874 32.3717ZM9.3286 20.883C6.66317 18.2182 6.66317 13.8253 9.36223 11.1267C10.669 9.81947 12.407 9.10029 14.2563 9.10029L9.3286 20.883ZM52.5765 52.4192C50.1782 54.8157 47.0523 56.0069 43.9083 56.0079C40.7646 56.0069 37.6383 54.8157 35.2396 52.4183L35.2334 52.4122L35.2325 52.4103L22.4114 39.7358C22.449 39.4888 22.5057 39.1991 22.5877 38.8776C22.8844 37.6901 23.4817 36.0906 24.3829 34.3988C25.7331 31.857 27.7673 29.101 30.4562 26.9763C33.1325 24.8649 36.4158 23.3557 40.4854 23.1272L52.5717 35.0754L52.5775 35.0798C54.9739 37.479 56.1652 40.6045 56.1679 43.7485C56.1652 46.8928 54.9749 50.0191 52.5765 52.4192Z" fill="#4361EE"/>
</g>
<defs>
<clipPath id="clip0_2584_11728">
<rect width="60" height="60" fill="white"/>
</clipPath>
</defs>
</svg>
