<svg width="60" height="60" viewBox="0 0 60 60" fill="none" xmlns="http://www.w3.org/2000/svg">
<g clip-path="url(#clip0_2584_11763)">
<path d="M10.0001 52.5001V46.2501C10.0001 38.6561 16.1561 32.5001 23.7501 32.5001H33.7501M20.0001 52.5001V45.0001M40.0001 16.2501C40.0001 21.7729 35.5228 26.2501 30.0001 26.2501C24.4772 26.2501 20.0001 21.7729 20.0001 16.2501C20.0001 10.7272 24.4772 6.25006 30.0001 6.25006C35.5228 6.25006 40.0001 10.7272 40.0001 16.2501ZM43.7501 32.4996C42.6098 30.9818 40.7946 30.0001 38.7501 30.0001C35.2983 30.0001 32.5001 32.7983 32.5001 36.2501C32.5001 37.7988 33.0633 39.2161 33.9963 40.3078L43.7501 52.5001L53.5038 40.3078C54.4368 39.2161 55.0001 37.7988 55.0001 36.2501C55.0001 32.7983 52.2018 30.0001 48.7501 30.0001C46.7056 30.0001 44.8903 30.9818 43.7501 32.4996Z" stroke="#4361EE" stroke-width="4" stroke-linecap="round" stroke-linejoin="round"/>
</g>
<defs>
<clipPath id="clip0_2584_11763">
<rect width="60" height="60" fill="white"/>
</clipPath>
</defs>
</svg>
