<svg width="60" height="60" viewBox="0 0 60 60" fill="none" xmlns="http://www.w3.org/2000/svg">
<path d="M5 35C5 25.572 5 20.8579 7.92893 17.9289C10.8579 15 15.5719 15 25 15H35C44.428 15 49.1422 15 52.071 17.9289C55 20.8579 55 25.572 55 35C55 44.428 55 49.1422 52.071 52.071C49.1422 55 44.428 55 35 55H25C15.5719 55 10.8579 55 7.92893 52.071C5 49.1422 5 44.428 5 35Z" stroke="#4361EE" stroke-width="3.75"/>
<path d="M40 15C40 10.286 40 7.92892 38.5355 6.46447C37.071 5 34.714 5 30 5C25.286 5 22.9289 5 21.4645 6.46447C20 7.92892 20 10.286 20 15" stroke="#4361EE" stroke-width="3.75"/>
<path d="M33.75 35H26.25M30 31.25V38.75" stroke="#4361EE" stroke-width="3.75" stroke-linecap="round"/>
<path d="M30 45C35.5228 45 40 40.5228 40 35C40 29.4772 35.5228 25 30 25C24.4772 25 20 29.4772 20 35C20 40.5228 24.4772 45 30 45Z" stroke="#4361EE" stroke-width="3.75"/>
</svg>
