<svg width="60" height="60" viewBox="0 0 60 60" fill="none" xmlns="http://www.w3.org/2000/svg">
<g clip-path="url(#clip0_2584_11805)">
<path d="M52.5341 4.71417H42.2119V2.54688C42.2119 1.15099 41.0609 0 39.665 0H20.441C19.0451 0 17.8941 1.15099 17.8941 2.54688V4.71417H7.44946C6.77601 4.66519 5.01279 5.26518 4.90259 7.26105V57.4517C4.90259 58.8475 6.05358 59.9985 7.44946 59.9985H52.6688C54.2973 60.0598 55.1544 58.272 55.0932 57.4517V7.26105C55.1544 6.67331 54.5544 4.78764 52.5341 4.71417ZM22.9879 5.09375H37.2528V9.42834H22.9879V5.09375ZM50.1219 55.0272H9.86165V9.80792H17.8819V11.8405C18.041 13.9466 19.792 14.3874 20.4287 14.3874H39.7874C41.0609 14.3874 42.2119 13.2364 42.2119 11.8405V9.80792H50.1096V55.0272H50.1219Z" fill="#4361EE"/>
<path d="M20.8206 40.248H39.163C40.5588 40.248 41.7098 39.097 41.7098 37.7011C41.7098 36.3052 40.5588 35.1542 39.163 35.1542H20.8206C19.4247 35.1542 18.2737 36.3052 18.2737 37.7011C18.2737 39.097 19.4247 40.248 20.8206 40.248Z" fill="#4361EE"/>
<path d="M39.5425 44.8397H21.2001C19.8043 44.8397 18.6533 45.9907 18.6533 47.3866C18.6533 48.7825 19.8043 49.9335 21.2001 49.9335H39.5425C40.816 49.9335 41.967 48.7825 42.0894 47.3866C42.0894 45.9907 40.9507 44.8397 39.5425 44.8397Z" fill="#4361EE"/>
<path d="M26.1714 26.8769H27.5673V28.285C27.5673 29.6809 28.7183 30.8319 30.1142 30.8319C31.5101 30.8319 32.6611 29.6809 32.6611 28.285V26.8891H34.057C35.4529 26.8891 36.6038 25.7381 36.6038 24.3422C36.6038 22.9464 35.4529 21.7954 34.057 21.7954H32.6611V20.3995C32.6611 19.0036 31.5101 17.8526 30.1142 17.8526C28.7183 17.8526 27.5673 19.0036 27.5673 20.3995V21.7954H26.1714C24.7756 21.7954 23.6246 22.9464 23.6246 24.3422C23.6246 25.7259 24.7633 26.8769 26.1714 26.8769Z" fill="#4361EE"/>
</g>
<defs>
<clipPath id="clip0_2584_11805">
<rect width="60" height="60" fill="white"/>
</clipPath>
</defs>
</svg>
