<svg width="60" height="60" viewBox="0 0 60 60" fill="none" xmlns="http://www.w3.org/2000/svg">
<g clip-path="url(#clip0_2584_11755)">
<path d="M27.5 5C37.67 5 46.065 12.59 47.335 22.4125L52.96 31.26C53.33 31.8425 53.255 32.71 52.3975 33.08L47.5 35.175V42.5C47.5 45.2625 45.2625 47.5 42.5 47.5H37.5025L37.5 55H15V45.765C15 42.815 13.91 40.0225 11.89 37.5025C9.1425 34.0775 7.5 29.73 7.5 25C7.5 13.955 16.455 5 27.5 5ZM27.5 10C19.215 10 12.5 16.715 12.5 25C12.5 28.4625 13.67 31.7325 15.79 34.375C18.525 37.785 20 41.6675 20 45.765V50H32.5L32.505 42.5H42.5V31.88L46.375 30.22L42.5175 24.1575L42.375 23.0525C41.415 15.6275 35.06 10 27.5 10ZM26.175 19.4075L27.5 20.7325L28.825 19.4075C30.535 17.6975 33.305 17.6975 35.0125 19.4075C36.7225 21.115 36.7225 23.885 35.0125 25.5925L27.5 33.1075L19.9875 25.5925C18.2775 23.885 18.2775 21.115 19.9875 19.4075C21.695 17.6975 24.465 17.6975 26.175 19.4075Z" fill="#4361EE"/>
</g>
<defs>
<clipPath id="clip0_2584_11755">
<rect width="60" height="60" fill="white"/>
</clipPath>
</defs>
</svg>
