<svg width="38" height="37" viewBox="0 0 38 37" fill="none" xmlns="http://www.w3.org/2000/svg">
<path fill-rule="evenodd" clip-rule="evenodd" d="M20.5764 35.8461L21.5787 34.1527C22.356 32.8392 22.7448 32.1825 23.3692 31.8193C23.9936 31.4562 24.7795 31.4427 26.3518 31.4157C28.673 31.3756 30.1286 31.2334 31.3494 30.7277C33.6147 29.7894 35.4143 27.9899 36.3526 25.7246C37.0563 24.0258 37.0563 21.872 37.0563 17.5646V15.7157C37.0563 9.66345 37.0563 6.6373 35.694 4.41429C34.9317 3.17038 33.886 2.12454 32.642 1.36228C30.4189 -1.10204e-07 27.3928 0 21.3406 0H15.7938C9.74157 0 6.71543 -1.10204e-07 4.49241 1.36228C3.2485 2.12454 2.20267 3.17038 1.4404 4.41429C0.0781249 6.6373 0.078125 9.66345 0.078125 15.7157V17.5646C0.078125 21.872 0.0781249 24.0258 0.781819 25.7246C1.72008 27.9899 3.51976 29.7894 5.78493 30.7277C7.00578 31.2334 8.46148 31.3756 10.7825 31.4157C12.3547 31.4427 13.1408 31.4562 13.7652 31.8193C14.3896 32.1827 14.7783 32.8392 15.5557 34.1527L16.558 35.8461C17.4514 37.3553 19.683 37.3553 20.5764 35.8461ZM25.9628 18.4891C26.984 18.4891 27.8117 17.6613 27.8117 16.6402C27.8117 15.619 26.984 14.7913 25.9628 14.7913C24.9417 14.7913 24.1139 15.619 24.1139 16.6402C24.1139 17.6613 24.9417 18.4891 25.9628 18.4891ZM20.4161 16.6402C20.4161 17.6613 19.5884 18.4891 18.5672 18.4891C17.5461 18.4891 16.7183 17.6613 16.7183 16.6402C16.7183 15.619 17.5461 14.7913 18.5672 14.7913C19.5884 14.7913 20.4161 15.619 20.4161 16.6402ZM11.1716 18.4891C12.1927 18.4891 13.0205 17.6613 13.0205 16.6402C13.0205 15.619 12.1927 14.7913 11.1716 14.7913C10.1505 14.7913 9.32267 15.619 9.32267 16.6402C9.32267 17.6613 10.1505 18.4891 11.1716 18.4891Z" fill="#2A2D30"/>
</svg>
