<svg width="100" height="100" viewBox="0 0 100 100" fill="none" xmlns="http://www.w3.org/2000/svg">
<circle cx="50" cy="50" r="50" fill="#FF5D00" fill-opacity="0.1"/>
<path d="M48.4052 47.875C45.5184 47.8731 42.6983 48.7429 40.3141 50.3706C37.9299 51.9983 36.0928 54.3079 35.0433 56.9972C33.9938 59.6864 33.7808 62.6299 34.4322 65.4423C35.0835 68.2546 36.569 70.8048 38.6939 72.7588C38.9516 75.0095 38.8223 77.2878 38.3114 79.495C38.26 79.6757 38.2573 79.8668 38.3038 80.0488C38.3503 80.2308 38.4442 80.3973 38.5759 80.5312C38.7077 80.6651 38.8726 80.7617 39.0538 80.8111C39.2351 80.8605 39.4262 80.861 39.6077 80.8125C40.8837 80.5706 42.0861 80.0359 43.1204 79.2505C44.1547 78.4651 44.9927 77.4504 45.5683 76.2863C47.5228 76.6594 49.5335 76.6214 51.4726 76.1749C53.4116 75.7283 55.2364 74.8829 56.8308 73.6925C58.4252 72.5021 59.7543 70.9928 60.7334 69.2606C61.7126 67.5284 62.3204 65.6114 62.5181 63.6314C62.7158 61.6515 62.4991 59.6521 61.8817 57.7605C61.2644 55.8689 60.26 54.1266 58.9325 52.6444C57.6049 51.1623 55.9833 49.9728 54.1708 49.1516C52.3584 48.3305 50.3949 47.8957 48.4052 47.875ZM53.1864 56.375H46.8114V60.625H51.0614V62.75H46.8114V70.1875H44.6864V55.3125C44.6864 55.0307 44.7984 54.7605 44.9976 54.5612C45.1969 54.3619 45.4672 54.25 45.7489 54.25H53.1864V56.375Z" fill="#FF5D00"/>
<path d="M66.4677 35.125C63.2207 35.1318 60.0719 36.2385 57.5345 38.2645C54.9972 40.2905 53.2211 43.1163 52.4958 46.2813C56.0336 47.1903 59.1691 49.249 61.4096 52.1338C63.6502 55.0186 64.8688 58.5661 64.8739 62.2188C64.8739 62.7181 64.8739 63.2175 64.7996 63.7063C65.8165 63.8177 66.8426 63.8177 67.8596 63.7063C68.3698 65.0689 69.2259 66.2752 70.3436 67.2066C71.4614 68.1381 72.8023 68.7626 74.2346 69.0188C74.4033 69.0537 74.578 69.0472 74.7437 68.9996C74.9093 68.952 75.0609 68.8648 75.1853 68.7456C75.3097 68.6264 75.4033 68.4787 75.4579 68.3153C75.5126 68.1519 75.5267 67.9776 75.499 67.8075C74.9805 65.5396 74.8689 63.1976 75.1696 60.8906C77.5626 59.0728 79.3242 56.5493 80.2057 53.6764C81.0872 50.8035 81.0442 47.7262 80.0826 44.8791C79.121 42.0319 77.2895 39.5587 74.8466 37.8086C72.4037 36.0584 69.4728 35.1197 66.4677 35.125ZM72.3115 51.5938C72.3115 52.58 71.9197 53.5259 71.2222 54.2233C70.5248 54.9207 69.579 55.3125 68.5927 55.3125C67.6064 55.3125 66.6605 54.9207 65.9631 54.2233C65.2657 53.5259 64.8739 52.58 64.8739 51.5938V41.5H66.9989V44.6875H71.2489V46.8125H66.9989V51.5938C66.9989 52.0164 67.1669 52.4218 67.4657 52.7207C67.7646 53.0196 68.17 53.1875 68.5927 53.1875C69.0154 53.1875 69.4208 53.0196 69.7197 52.7207C70.0185 52.4218 70.1864 52.0164 70.1864 51.5938V50H72.3115V51.5938ZM37.7802 19.1875C34.8934 19.1856 32.0733 20.0554 29.6891 21.6831C27.3049 23.3108 25.4678 25.6204 24.4183 28.3097C23.3688 30.9989 23.1558 33.9424 23.8072 36.7548C24.4585 39.5671 25.944 42.1173 28.0689 44.0713C28.3266 46.3221 28.1973 48.6003 27.6864 50.8075C27.635 50.9882 27.6323 51.1793 27.6788 51.3613C27.7253 51.5433 27.8192 51.7098 27.9509 51.8437C28.0827 51.9776 28.2476 52.0742 28.4288 52.1236C28.6101 52.173 28.8012 52.1735 28.9827 52.125C30.2587 51.8831 31.4611 51.3484 32.4954 50.563C33.5297 49.7776 34.3677 48.7629 34.9433 47.5988C36.8978 47.9718 38.9086 47.9339 40.8476 47.4874C42.7866 47.0408 44.6114 46.1954 46.2058 45.005C47.8002 43.8146 49.1293 42.3053 50.1085 40.5731C51.0876 38.8409 51.6954 36.9239 51.8931 34.9439C52.0908 32.964 51.8741 30.9646 51.2567 29.073C50.6394 27.1814 49.635 25.4391 48.3075 23.9569C46.9799 22.4748 45.3583 21.2853 43.5458 20.4641C41.7334 19.643 39.7699 19.2082 37.7802 19.1875ZM44.5377 35.9644L38.5346 41.9781C38.4358 42.0777 38.3183 42.1568 38.1888 42.2107C38.0593 42.2646 37.9205 42.2924 37.7802 42.2924C37.6399 42.2924 37.5011 42.2646 37.3716 42.2107C37.2421 42.1568 37.1246 42.0777 37.0258 41.9781L31.0227 35.9644C30.0884 35.0278 29.5371 33.7763 29.4768 32.4547C29.4164 31.1332 29.8513 29.8366 30.6964 28.8188C31.5415 27.801 32.736 27.135 34.0461 26.9514C35.3563 26.7677 36.6878 27.0794 37.7802 27.8256C38.8726 27.0794 40.2041 26.7677 41.5143 26.9514C42.8244 27.135 44.0189 27.801 44.8639 28.8188C45.709 29.8366 46.144 31.1332 46.0836 32.4547C46.0233 33.7763 45.472 35.0278 44.5377 35.9644Z" fill="#FF5D00"/>
</svg>
