<svg width="100" height="100" viewBox="0 0 100 100" fill="none" xmlns="http://www.w3.org/2000/svg">
<circle cx="50" cy="50" r="50" fill="#FF5D00" fill-opacity="0.1"/>
<path d="M57.387 24.6632C57.352 24.5666 57.3369 24.4639 57.3426 24.3613C57.3484 24.2587 57.3749 24.1583 57.4205 24.0662C57.4661 23.9741 57.53 23.8921 57.6082 23.8253C57.6863 23.7584 57.7773 23.708 57.8755 23.6772C57.9737 23.6463 58.0771 23.6356 58.1795 23.6457C58.282 23.6558 58.3813 23.6865 58.4716 23.7359C58.5619 23.7853 58.6412 23.8524 58.7048 23.9332C58.7684 24.014 58.8149 24.1069 58.8417 24.2061C59.4971 26.2721 59.8297 28.4265 59.8277 30.5937C59.8454 32.6074 59.6324 34.6166 59.1928 36.582C59.1538 36.7497 59.0591 36.8992 58.9241 37.0063C58.7891 37.1134 58.6218 37.1717 58.4494 37.1717C58.3914 37.1716 58.3336 37.1654 58.2769 37.1534C58.1791 37.131 58.0868 37.0895 58.0051 37.0314C57.9234 36.9733 57.854 36.8997 57.8008 36.8147C57.7477 36.7298 57.7118 36.6353 57.6953 36.5365C57.6787 36.4378 57.6819 36.3367 57.7045 36.2392C58.1177 34.3887 58.318 32.4971 58.3013 30.6013C58.3047 28.5867 57.9963 26.5838 57.387 24.6632ZM23.6714 59.2417C23.8349 59.2417 23.994 59.1892 24.1253 59.0921C24.2567 58.995 24.3533 58.8584 24.4011 58.7023L27.2753 49.3053C27.3079 49.2088 27.3207 49.1067 27.313 49.0051C27.3054 48.9036 27.2774 48.8046 27.2308 48.714C27.1841 48.6234 27.1197 48.543 27.0414 48.4777C26.9631 48.4124 26.8725 48.3634 26.7749 48.3336C26.6773 48.3039 26.5748 48.2939 26.4733 48.3045C26.3718 48.315 26.2734 48.3457 26.184 48.3948C26.0946 48.4439 26.016 48.5104 25.9528 48.5904C25.8896 48.6704 25.8431 48.7622 25.8161 48.8604L22.9418 58.2574C22.907 58.3713 22.8994 58.4917 22.9196 58.609C22.9398 58.7264 22.9873 58.8373 23.0582 58.933C23.1292 59.0287 23.2216 59.1065 23.3281 59.1601C23.4346 59.2137 23.5522 59.2417 23.6714 59.2417ZM76.8595 72.6949C76.7879 72.789 76.6956 72.8653 76.5897 72.9182C76.4839 72.971 76.3673 72.9989 76.249 72.9997H24.2591C24.138 73.0032 24.0178 72.9773 23.9088 72.9244C23.7999 72.8714 23.7054 72.793 23.6334 72.6957C23.5614 72.5984 23.5141 72.4851 23.4955 72.3656C23.4768 72.246 23.4875 72.1238 23.5264 72.0093L25.8161 64.5276V64.4972L30.9296 47.8121L30.5937 47.4768C25.6024 42.4942 22 38.8829 22 30.5937C22 26.1927 23.7513 21.9721 26.8687 18.8602C29.986 15.7483 34.2141 14 38.6227 14C43.0313 14 47.2594 15.7483 50.3767 18.8602C53.4941 21.9721 55.2454 26.1927 55.2454 30.5937C55.3356 33.0576 54.9205 35.5139 54.0254 37.8119C53.1303 40.1099 51.7742 42.201 50.0403 43.957H67.8186C67.9818 43.956 68.141 44.0072 68.2728 44.1032C68.4047 44.1992 68.5023 44.3349 68.5512 44.4903L69.6808 48.1778C69.6891 48.186 69.6944 48.1967 69.696 48.2082C69.696 48.2235 69.7113 48.254 69.7113 48.2692L76.9618 72.0093C76.9991 72.1236 77.0093 72.2451 76.9915 72.3641C76.9738 72.4831 76.9286 72.5963 76.8595 72.6949ZM67.2584 45.4807H52.8261L59.4232 51.3243L68.0338 48.0269L67.2584 45.4807ZM31.0975 29.7099C31.096 31.1978 31.5367 32.6527 32.3638 33.8905C33.1909 35.1283 34.3673 36.0933 35.7441 36.6634C37.1209 37.2335 38.6361 37.383 40.0981 37.0931C41.56 36.8032 42.9029 36.0869 43.9569 35.0347C45.0108 33.9826 45.7284 32.642 46.0189 31.1827C46.3093 29.7233 46.1595 28.2107 45.5884 26.8363C45.0173 25.462 44.0506 24.2876 42.8106 23.4619C41.5707 22.6362 40.1132 22.1963 38.6227 22.1978C36.6274 22.1994 34.7143 22.9914 33.3033 24.3998C31.8924 25.8083 31.0991 27.718 31.0975 29.7099ZM27.7241 63.461V63.4701L57.8205 51.9399L50.5242 45.4807H48.636C48.0102 46.1359 47.3538 46.7912 46.6669 47.4768C44.0113 50.038 41.528 52.7715 39.2333 55.6594C39.1597 55.7502 39.0667 55.8233 38.961 55.8735C38.8553 55.9236 38.7397 55.9493 38.6227 55.9489C38.5079 55.9492 38.3946 55.9232 38.2914 55.873C38.1883 55.8228 38.098 55.7498 38.0274 55.6594C36.2036 53.3342 34.2411 51.1207 32.1507 49.0311L27.7241 63.461ZM25.2818 71.4759H58.2158L46.3556 58.4326C46.2607 58.3205 46.2003 58.1835 46.1815 58.038L27.1547 65.32L25.2818 71.4759ZM75.211 71.4759L68.4795 49.4897L47.5675 57.497L60.2704 71.4759H75.211ZM56.5673 21.4283C56.7183 21.4283 56.8658 21.3836 56.9913 21.2999C57.1168 21.2162 57.2147 21.0972 57.2724 20.958C57.3302 20.8188 57.3453 20.6656 57.3159 20.5178C57.2864 20.37 57.2137 20.2342 57.107 20.1277C57.0002 20.0211 56.8643 19.9486 56.7162 19.9192C56.5682 19.8898 56.4147 19.9049 56.2752 19.9625C56.1358 20.0202 56.0166 20.1179 55.9327 20.2431C55.8489 20.3684 55.8041 20.5157 55.8041 20.6664C55.8041 20.8685 55.8845 21.0623 56.0276 21.2051C56.1708 21.348 56.3649 21.4283 56.5673 21.4283ZM22.7708 61.3278C22.6199 61.3278 22.4723 61.3724 22.3468 61.4561C22.2213 61.5399 22.1235 61.6589 22.0657 61.7981C22.008 61.9373 21.9928 62.0905 22.0223 62.2383C22.0517 62.3861 22.1244 62.5218 22.2312 62.6284C22.3379 62.7349 22.4739 62.8075 22.6219 62.8369C22.77 62.8663 22.9235 62.8512 23.0629 62.7935C23.2024 62.7358 23.3216 62.6382 23.4054 62.5129C23.4893 62.3876 23.5341 62.2403 23.5341 62.0896C23.5341 61.8876 23.4536 61.6938 23.3105 61.5509C23.1674 61.408 22.9733 61.3278 22.7708 61.3278Z" fill="#FF5D00"/>
</svg>
