<svg width="100" height="100" viewBox="0 0 100 100" fill="none" xmlns="http://www.w3.org/2000/svg">
<circle cx="50" cy="50" r="50" fill="#FF5D00" fill-opacity="0.1"/>
<path fill-rule="evenodd" clip-rule="evenodd" d="M79.0005 50.0003C79.0005 66.0063 66.0063 79.0005 50.0003 79.0005C46.0479 79.0005 42.1391 78.1926 38.5162 76.6308L31.813 78.8928C31.1894 79.102 30.5017 79.0047 29.9632 78.6256C29.4225 78.2486 29.0952 77.6375 29.0786 76.9788L28.9109 69.9068C23.8379 64.5314 21 57.4119 21 50.0003C21 33.9942 33.9942 21 50.0003 21C66.0063 21 79.0005 33.9942 79.0005 50.0003ZM74.8576 50.0003C74.8576 36.2811 63.7194 25.1429 50.0003 25.1429C36.2811 25.1429 25.1429 36.2811 25.1429 50.0003C25.1429 56.5937 27.7633 62.9178 32.4261 67.5785C32.8031 67.9555 33.0185 68.4631 33.033 68.9955L33.1532 74.0663L37.961 72.4444C38.4644 72.2745 39.0154 72.3056 39.498 72.5293C42.7875 74.0622 46.3711 74.8576 50.0003 74.8576C63.7194 74.8576 74.8576 63.7194 74.8576 50.0003ZM45.673 61.8178L31.9725 58.1473C30.8684 57.8511 30.2117 56.7138 30.5079 55.6098C30.8042 54.5057 31.9414 53.849 33.0455 54.1452L35.0258 54.6755C35.8274 51.5725 37.3748 45.5943 38.4312 41.6482C40.2065 35.0237 47.0277 31.0859 53.6522 32.8611C53.6874 32.8694 53.7206 32.8777 53.7537 32.8881C60.3181 34.7047 64.2083 41.4908 62.4414 48.0821L58.9572 61.0887L61.0576 61.6501C62.1617 61.9463 62.8184 63.0835 62.5222 64.1876C62.2259 65.2917 61.0887 65.9483 59.9846 65.6521L56.4072 64.693C55.5932 67.6282 52.5606 69.3642 49.615 68.5749C46.6694 67.7857 44.9107 64.7655 45.673 61.8178ZM54.9552 60.0157L58.4393 47.0091C59.6242 42.5928 56.9976 38.046 52.5813 36.8611C48.1629 35.6783 43.6161 38.3028 42.4333 42.7212C41.3748 46.6714 39.8232 52.6641 39.0278 55.7485L54.9552 60.0157ZM49.6771 62.8909C49.5052 63.6283 49.9505 64.3761 50.688 64.5729C51.4254 64.7718 52.1836 64.3471 52.4052 63.6221L49.6771 62.8909Z" fill="#FF5D00"/>
</svg>
