<svg width="100" height="100" viewBox="0 0 100 100" fill="none" xmlns="http://www.w3.org/2000/svg">
<circle cx="50" cy="50" r="50" fill="#FF5D00" fill-opacity="0.1"/>
<path d="M73.4196 27.1353C73.0294 26.4468 72.4844 25.8839 71.834 25.4824C71.1859 25.081 70.439 24.8388 69.6474 24.8051L61.6904 24.4037L53.7376 24.0067C53.668 24 53.6052 24 53.5357 24H53.3339C51.9389 24 50.5843 24.3723 49.3957 25.0384C48.207 25.7112 47.1843 26.6801 46.4622 27.8754L45.0493 30.2056C45.2915 30.3671 45.5203 30.5263 45.7491 30.699L47.1956 28.3172C47.8325 27.2721 48.7341 26.3998 49.8128 25.792C50.8916 25.1842 52.1094 24.8612 53.3316 24.8612L53.6927 24.8725L69.5956 25.6641C70.2281 25.6978 70.8471 25.8884 71.3764 26.2158C71.9101 26.5478 72.3519 27.0142 72.6614 27.566C72.9709 28.1177 73.1369 28.7367 73.1436 29.3624C73.1503 29.9881 72.9934 30.6138 72.6951 31.17L53.5759 66.5308C52.9614 67.6679 52.0486 68.621 50.9407 69.2804C49.8328 69.9465 48.559 70.2919 47.2672 70.2919C46.9734 70.2919 46.6819 70.2739 46.3881 70.2403C46.101 70.2066 45.8072 70.1483 45.5269 70.0788L29.9041 66.1743C29.3233 66.0307 28.8074 65.7616 28.3656 65.3826C27.9238 64.9968 27.5851 64.5281 27.3542 63.9764C27.1299 63.4202 27.038 62.8461 27.085 62.2652C27.1254 61.6844 27.3093 61.1281 27.6188 60.6168L31.5391 54.1509C31.2811 54.0253 31.0232 53.893 30.7698 53.7495L26.8765 60.1746C26.4975 60.8003 26.2732 61.4956 26.2217 62.1953V66.5528C26.1634 67.2526 26.28 67.9702 26.5603 68.6543C26.8406 69.3383 27.2668 69.9236 27.8006 70.3879C28.3343 70.8476 28.978 71.1862 29.6889 71.3634L37.5023 73.3146L45.3117 75.2657C45.6324 75.3464 45.9553 75.4025 46.2828 75.4429C46.6102 75.4832 46.9376 75.5057 47.265 75.5057C48.7407 75.5057 50.1582 75.0975 51.3827 74.3686C52.6049 73.6397 53.6344 72.5879 54.3341 71.2849L63.8922 53.6079L73.4504 35.924C73.8227 35.2288 74.0066 34.4662 74.0021 33.7015V29.3506C73.9954 28.5881 73.8003 27.8301 73.4101 27.1348L73.4196 27.1353ZM70.8696 38.5887C70.8696 38.9857 70.7665 39.3804 70.5714 39.7258L66.817 46.2944C66.6668 46.5523 66.2765 46.4492 66.2765 46.1576V45.5498C66.2765 45.1484 66.3797 44.7582 66.5816 44.4128L70.3359 37.8395C70.4794 37.5861 70.8696 37.6893 70.8696 37.9831V38.5908V38.5887Z" fill="#FF5D00"/>
<path d="M72.5142 26.4087C72.2495 25.9377 71.8772 25.5475 71.4242 25.2671C70.9757 24.9913 70.4599 24.8298 69.9194 24.8029L53.6823 24C52.5565 24 51.4373 24.2983 50.4439 24.8545C49.4503 25.4174 48.6183 26.2203 48.0374 27.1802L46.5573 29.627C49.641 32.159 51.6101 35.9941 51.6101 40.2823C51.6101 43.1821 50.7197 45.9496 49.0601 48.2685L50.9373 50.1411C51.5921 50.8005 51.7873 51.7895 51.4374 52.644C51.0808 53.5052 50.2443 54.0614 49.3136 54.0614H37.8309C35.9066 54.0614 34.0811 53.6645 32.417 52.9535L28.4609 59.482C28.1962 59.9193 28.0482 60.3836 28.0078 60.877C27.9742 61.3659 28.0482 61.8526 28.2433 62.3235C28.4317 62.7878 28.7188 63.1914 29.0933 63.5121C29.4656 63.8328 29.903 64.0571 30.3963 64.185L46.0191 68.0895C46.2837 68.1523 46.5483 68.2039 46.8175 68.2398C48.264 68.417 49.7509 68.103 51.0024 67.3561C52.0183 66.7484 52.8616 65.876 53.4245 64.8241L72.5437 29.4632C72.7972 28.9923 72.9295 28.4652 72.9228 27.9359C72.9228 27.4066 72.7792 26.8796 72.5146 26.4154L72.5142 26.4087ZM44.7944 64.445C44.7316 64.7096 44.4962 64.8868 44.2315 64.8868C44.1912 64.8868 44.1463 64.8801 44.0992 64.8689L34.3389 62.5723C34.0339 62.4983 33.8388 62.1933 33.9151 61.8838C33.9891 61.5743 34.2941 61.3837 34.6036 61.4532L44.3638 63.7498C44.6733 63.8238 44.864 64.1355 44.7944 64.445Z" fill="#FF5D00"/>
<path d="M48.9651 41.7134C48.9651 38.2461 47.431 35.1401 45.0045 33.0428C44.8609 32.9105 44.7107 32.7894 44.5559 32.6705C44.3317 32.4934 44.0962 32.3252 43.8607 32.1659C42.0351 30.9437 39.8418 30.2305 37.4827 30.2305C31.1379 30.2305 26 35.3685 26 41.7131C26 46.0595 28.4109 49.836 31.9698 51.7829C32.2233 51.9264 32.4744 52.052 32.7391 52.1686C32.9117 52.2538 33.0889 52.3301 33.2728 52.3974C34.5758 52.9132 35.9932 53.1958 37.4801 53.1958H48.9628L45.5987 49.8317C47.6777 47.7527 48.9628 44.882 48.9628 41.7129L48.9651 41.7134ZM44.6075 38.5041L36.5696 46.542C36.397 46.7147 36.1839 46.8223 35.9619 46.8582C35.8924 46.8761 35.8296 46.8806 35.76 46.8806C35.5178 46.8806 35.2778 46.7999 35.076 46.6519C35.0312 46.6182 34.9908 46.5823 34.9504 46.542L30.9315 42.523C30.4785 42.0745 30.4785 41.3523 30.9315 40.9038C31.38 40.4508 32.1022 40.4508 32.5507 40.9038L35.76 44.1064L37.9422 41.9242L40.4921 39.381L42.9905 36.8826C43.4391 36.4295 44.1612 36.4295 44.6097 36.8826C45.0628 37.3311 45.0628 38.0533 44.6097 38.5018L44.6075 38.5041Z" fill="#FF5D00"/>
</svg>
