<svg width="1600" height="312" viewBox="0 0 1600 312" fill="none" xmlns="http://www.w3.org/2000/svg"><path d="M143.156 63.185V219h-29.653l-77.825-94.61v94.609H0V63.185h29.89l77.588 94.609V63.185z" fill="url(#a)"/><path d="M196.228 168.899q2.438 11.144 11.607 17.601c6.085 4.304 13.675 6.456 22.742 6.456 6.232 0 11.785-.943 16.599-2.8 4.844-1.858 9.333-4.777 13.498-8.786l18.518 20.018c-11.282 12.914-27.792 19.37-49.501 19.37-13.527 0-25.488-2.624-35.885-7.901q-15.595-7.872-24.1-21.935c-5.641-9.346-8.477-19.959-8.477-31.841 0-11.881 2.806-22.288 8.359-31.723 5.582-9.434 13.231-16.775 22.978-22.023 9.746-5.248 20.645-7.901 32.666-7.901s22.358 2.506 31.897 7.577c9.511 5.041 16.983 12.294 22.417 21.699 5.435 9.434 8.152 20.372 8.152 32.843 0 .442-.236 3.567-.679 9.346zm9.363-38.504c-5.346 4.452-8.624 10.525-9.806 18.25h59.1c-1.182-7.577-4.46-13.621-9.806-18.132-5.346-4.54-11.903-6.781-19.641-6.781s-14.501 2.241-19.847 6.693z" fill="url(#b)"/><path d="m496.136 99.236-43.475 119.757h-33.463l-26.966-74.354-27.881 74.354h-33.463L287.649 99.236h32.783l28.325 81.017 29.446-81.017h29.446l28.531 81.017 29.21-81.017h30.776z" fill="url(#c)"/><path d="M594.994 185.595h-72.479l-13.822 33.374h-37.008L541.27 63.156h35.678l69.791 155.813h-37.922zm-11.371-27.389-24.75-59.672-24.751 59.672z" fill="url(#d)"/><path d="M773.188 99.232v99.709c0 21.964-5.73 38.297-17.16 48.97-11.459 10.702-28.176 16.009-50.18 16.009-11.607 0-22.594-1.415-32.99-4.216-10.396-2.83-19.021-6.899-25.873-12.235l13.823-24.942c5.05 4.157 11.43 7.459 19.168 9.906s15.447 3.656 23.185 3.656c12.05 0 20.911-2.713 26.64-8.137q8.595-8.137 8.595-24.589v-5.13c-9.067 9.936-21.708 14.918-37.923 14.918-10.987 0-21.058-2.417-30.214-7.223-9.127-4.805-16.392-11.616-21.738-20.372s-8.034-18.839-8.034-30.278 2.688-21.522 8.034-30.278 12.611-15.537 21.738-20.373c9.156-4.805 19.227-7.223 30.214-7.223 17.396 0 30.628 5.72 39.695 17.129v-15.36h32.991v.06zm-43.15 77.332c5.877-5.425 8.801-12.5 8.801-21.257 0-8.756-2.924-15.832-8.801-21.256-5.878-5.425-13.409-8.137-22.624-8.137s-16.806 2.712-22.742 8.137c-5.937 5.424-8.92 12.5-8.92 21.256s2.983 15.832 8.92 21.257c5.966 5.425 13.527 8.137 22.742 8.137s16.746-2.712 22.624-8.137" fill="url(#e)"/><path d="M826.252 168.899q2.436 11.144 11.607 17.601c6.084 4.304 13.675 6.456 22.742 6.456 6.232 0 11.785-.943 16.599-2.8 4.844-1.858 9.333-4.777 13.497-8.786l18.519 20.018c-11.283 12.914-27.793 19.37-49.501 19.37-13.527 0-25.489-2.624-35.885-7.901q-15.594-7.872-24.1-21.935c-5.642-9.346-8.477-19.959-8.477-31.841 0-11.881 2.806-22.288 8.358-31.723 5.583-9.434 13.232-16.775 22.979-22.023s20.645-7.901 32.665-7.901c12.021 0 22.358 2.506 31.898 7.577 9.51 5.041 16.983 12.294 22.417 21.699 5.435 9.434 8.152 20.372 8.152 32.843 0 .442-.236 3.567-.679 9.346zm9.392-38.504c-5.346 4.452-8.624 10.525-9.806 18.25h59.1c-1.181-7.577-4.46-13.621-9.806-18.132s-11.902-6.781-19.64-6.781-14.502 2.241-19.848 6.693z" fill="url(#f)"/><path d="M951.641 218.732c-11.519-3.331-20.793-7.695-27.763-13.031l12.257-27.153c6.675 4.894 14.649 8.845 23.864 11.793s18.43 4.452 27.645 4.452c10.249 0 17.836-1.534 22.746-4.57q7.35-4.555 7.35-12.117c0-3.715-1.45-6.781-4.34-9.228-2.9-2.447-6.62-4.423-11.14-5.897-4.545-1.474-10.658-3.125-18.397-4.894-11.902-2.83-21.619-5.631-29.21-8.461-7.59-2.83-14.088-7.341-19.522-13.591q-8.152-9.331-8.152-24.942 0-13.577 7.354-24.589c4.903-7.34 12.316-13.178 22.181-17.483 9.894-4.304 21.944-6.456 36.239-6.456 9.957 0 19.697 1.18 29.207 3.567 9.51 2.359 17.84 5.779 24.96 10.23l-11.16 27.36c-14.42-8.137-28.83-12.235-43.243-12.235-10.13 0-17.573 1.621-22.417 4.894-4.844 3.272-7.236 7.577-7.236 12.913s2.776 9.317 8.358 11.911q8.374 3.891 25.519 7.695c11.899 2.83 21.619 5.631 29.209 8.461s14.09 7.282 19.52 13.356c5.44 6.073 8.15 14.328 8.15 24.706 0 8.903-2.48 17.04-7.47 24.382-4.99 7.341-12.43 13.178-22.41 17.482-9.96 4.305-22.07 6.457-36.362 6.457-12.346 0-24.278-1.68-35.796-5.012z" fill="url(#g)"/><path d="m1183.91 99.236-54.2 127.098c-5.49 13.798-12.31 23.527-20.4 29.158-8.1 5.631-17.87 8.461-29.33 8.461-6.23 0-12.44-.973-18.52-2.889s-11.08-4.599-14.95-8.019l12.7-24.706c2.69 2.358 5.76 4.216 9.25 5.572 3.48 1.327 6.94 2.005 10.37 2.005 4.75 0 8.62-1.15 11.6-3.45 2.96-2.299 5.64-6.132 8.04-11.468l.44-1.121-51.95-120.64h35.91l33.67 81.252 33.91-81.253z" fill="url(#h)"/><path d="M1203.42 217.073c-9.51-2.447-17.1-5.513-22.74-9.228l11.58-24.912c5.34 3.42 11.81 6.191 19.4 8.343s15 3.243 22.3 3.243c14.71 0 22.06-3.626 22.06-10.908 0-3.42-2.01-5.867-6.02-7.341-4.02-1.474-10.19-2.742-18.52-3.774-9.81-1.474-17.93-3.184-24.31-5.13-6.41-1.916-11.93-5.336-16.63-10.23-4.69-4.894-7.03-11.882-7.03-20.933 0-7.577 2.19-14.269 6.59-20.136 4.37-5.867 10.78-10.437 19.17-13.709s18.31-4.894 29.77-4.894c8.48 0 16.92.914 25.31 2.771s15.33 4.422 20.85 7.695l-11.61 24.706c-10.57-5.955-22.06-8.904-34.55-8.904-7.44 0-13 1.032-16.72 3.126-3.72 2.063-5.58 4.746-5.58 8.019q0 5.572 6.03 7.783c4.01 1.474 10.39 2.889 19.16 4.216 9.81 1.651 17.84 3.39 24.07 5.248 6.24 1.857 11.67 5.218 16.28 10.112s6.91 11.734 6.91 20.49c0 7.43-2.25 14.034-6.68 19.812-4.46 5.779-10.95 10.29-19.52 13.474-8.53 3.184-18.69 4.805-30.42 4.805-9.95 0-19.7-1.238-29.21-3.685z" fill="url(#i)"/><path d="M1443.92 0c-62.2 0-115.86 36.293-140.97 88.83 14.92 19.606 23.75 44.076 23.75 70.551s-8.01 48.587-21.62 67.691c25.9 50.208 78.35 84.555 138.84 84.555 86.21 0 156.09-69.755 156.09-155.813C1600.01 69.754 1530.13 0 1443.92 0m-45.36 215.574h-27.97V94.962h27.97zm120.29-97.881h-38.66v97.881h-27.97v-97.881h-38.66v-22.73h105.29z" fill="url(#j)"/><defs><linearGradient id="a" x1="12.5" y1="156.266" x2="1600.02" y2="155.81" gradientUnits="userSpaceOnUse"><stop stop-color="#fff" stop-opacity=".1"/><stop offset=".49" stop-color="#020206" stop-opacity="0"/><stop offset="1" stop-color="#999" stop-opacity=".1"/></linearGradient><linearGradient id="b" x1="12.5" y1="156.266" x2="1600.02" y2="155.81" gradientUnits="userSpaceOnUse"><stop stop-color="#fff" stop-opacity=".1"/><stop offset=".49" stop-color="#020206" stop-opacity="0"/><stop offset="1" stop-color="#999" stop-opacity=".1"/></linearGradient><linearGradient id="c" x1="12.5" y1="156.266" x2="1600.02" y2="155.81" gradientUnits="userSpaceOnUse"><stop stop-color="#fff" stop-opacity=".1"/><stop offset=".49" stop-color="#020206" stop-opacity="0"/><stop offset="1" stop-color="#999" stop-opacity=".1"/></linearGradient><linearGradient id="d" x1="12.5" y1="156.266" x2="1600.02" y2="155.81" gradientUnits="userSpaceOnUse"><stop stop-color="#fff" stop-opacity=".1"/><stop offset=".49" stop-color="#020206" stop-opacity="0"/><stop offset="1" stop-color="#999" stop-opacity=".1"/></linearGradient><linearGradient id="e" x1="12.5" y1="156.266" x2="1600.02" y2="155.81" gradientUnits="userSpaceOnUse"><stop stop-color="#fff" stop-opacity=".1"/><stop offset=".49" stop-color="#020206" stop-opacity="0"/><stop offset="1" stop-color="#999" stop-opacity=".1"/></linearGradient><linearGradient id="f" x1="12.5" y1="156.266" x2="1600.02" y2="155.81" gradientUnits="userSpaceOnUse"><stop stop-color="#fff" stop-opacity=".1"/><stop offset=".49" stop-color="#020206" stop-opacity="0"/><stop offset="1" stop-color="#999" stop-opacity=".1"/></linearGradient><linearGradient id="g" x1="12.5" y1="156.266" x2="1600.02" y2="155.81" gradientUnits="userSpaceOnUse"><stop stop-color="#fff" stop-opacity=".1"/><stop offset=".49" stop-color="#020206" stop-opacity="0"/><stop offset="1" stop-color="#999" stop-opacity=".1"/></linearGradient><linearGradient id="h" x1="12.5" y1="156.266" x2="1600.02" y2="155.81" gradientUnits="userSpaceOnUse"><stop stop-color="#fff" stop-opacity=".1"/><stop offset=".49" stop-color="#020206" stop-opacity="0"/><stop offset="1" stop-color="#999" stop-opacity=".1"/></linearGradient><linearGradient id="i" x1="12.5" y1="156.266" x2="1600.02" y2="155.81" gradientUnits="userSpaceOnUse"><stop stop-color="#fff" stop-opacity=".1"/><stop offset=".49" stop-color="#020206" stop-opacity="0"/><stop offset="1" stop-color="#999" stop-opacity=".1"/></linearGradient><linearGradient id="j" x1="12.5" y1="156.266" x2="1600.02" y2="155.81" gradientUnits="userSpaceOnUse"><stop stop-color="#fff" stop-opacity=".1"/><stop offset=".49" stop-color="#020206" stop-opacity="0"/><stop offset="1" stop-color="#999" stop-opacity=".1"/></linearGradient></defs></svg>