<svg width="72" height="35" viewBox="0 0 72 35" fill="none" xmlns="http://www.w3.org/2000/svg">
<path d="M1.81938 24.3935V25H1.21292V24.3935H1.81938ZM1.81938 23.7871V24.3935H1.21292V23.7871H1.81938ZM1.81938 23.1806V23.7871H1.21292V23.1806H1.81938ZM1.81938 22.5742V23.1806H1.21292V22.5742H1.81938ZM1.81938 21.9677V22.5742H1.21292V21.9677H1.81938ZM1.81938 21.3612V21.9677H1.21292V21.3612H1.81938ZM1.81938 20.7548V21.3612H1.21292V20.7548H1.81938ZM1.81938 20.1483V20.7548H1.21292V20.1483H1.81938ZM1.81938 19.5419V20.1483H1.21292V19.5419H1.81938ZM1.81938 18.9354V19.5419H1.21292V18.9354H1.81938ZM1.81938 18.3289V18.9354H1.21292V18.3289H1.81938ZM1.81938 17.7225V18.3289H1.21292V17.7225H1.81938ZM1.81938 17.116V17.7225H1.21292V17.116H1.81938ZM1.81938 16.5096V17.116H1.21292V16.5096H1.81938ZM1.81938 15.9031V16.5096H1.21292V15.9031H1.81938ZM2.42584 15.9031V16.5096H1.81938V15.9031H2.42584ZM2.42584 16.5096V17.116H1.81938V16.5096H2.42584ZM2.42584 17.116V17.7225H1.81938V17.116H2.42584ZM2.42584 17.7225V18.3289H1.81938V17.7225H2.42584ZM2.42584 18.3289V18.9354H1.81938V18.3289H2.42584ZM2.42584 18.9354V19.5419H1.81938V18.9354H2.42584ZM2.42584 19.5419V20.1483H1.81938V19.5419H2.42584ZM3.0323 20.1483V20.7548H2.42584V20.1483H3.0323ZM3.0323 20.7548V21.3612H2.42584V20.7548H3.0323ZM3.0323 21.3612V21.9677H2.42584V21.3612H3.0323ZM3.0323 21.9677V22.5742H2.42584V21.9677H3.0323ZM3.0323 22.5742V23.1806H2.42584V22.5742H3.0323ZM3.0323 23.1806V23.7871H2.42584V23.1806H3.0323ZM3.0323 23.7871V24.3935H2.42584V23.7871H3.0323ZM3.0323 24.3935V25H2.42584V24.3935H3.0323ZM3.63876 24.3935V25H3.0323V24.3935H3.63876ZM4.24522 24.3935V25H3.63876V24.3935H4.24522ZM4.24522 23.7871V24.3935H3.63876V23.7871H4.24522ZM4.24522 23.1806V23.7871H3.63876V23.1806H4.24522ZM4.24522 22.5742V23.1806H3.63876V22.5742H4.24522ZM4.24522 21.9677V22.5742H3.63876V21.9677H4.24522ZM4.24522 21.3612V21.9677H3.63876V21.3612H4.24522ZM4.24522 20.7548V21.3612H3.63876V20.7548H4.24522ZM4.24522 20.1483V20.7548H3.63876V20.1483H4.24522ZM3.63876 20.1483V20.7548H3.0323V20.1483H3.63876ZM3.63876 19.5419V20.1483H3.0323V19.5419H3.63876ZM3.63876 20.7548V21.3612H3.0323V20.7548H3.63876ZM3.63876 21.3612V21.9677H3.0323V21.3612H3.63876ZM3.63876 21.9677V22.5742H3.0323V21.9677H3.63876ZM3.63876 22.5742V23.1806H3.0323V22.5742H3.63876ZM3.63876 23.1806V23.7871H3.0323V23.1806H3.63876ZM3.63876 23.7871V24.3935H3.0323V23.7871H3.63876ZM2.42584 24.3935V25H1.81938V24.3935H2.42584ZM2.42584 23.7871V24.3935H1.81938V23.7871H2.42584ZM2.42584 23.1806V23.7871H1.81938V23.1806H2.42584ZM2.42584 22.5742V23.1806H1.81938V22.5742H2.42584ZM2.42584 21.9677V22.5742H1.81938V21.9677H2.42584ZM2.42584 21.3612V21.9677H1.81938V21.3612H2.42584ZM2.42584 20.7548V21.3612H1.81938V20.7548H2.42584ZM2.42584 20.1483V20.7548H1.81938V20.1483H2.42584ZM1.81938 9.8385V10.445H1.21292V9.8385H1.81938ZM1.81938 10.445V11.0514H1.21292V10.445H1.81938ZM1.81938 11.0514V11.6579H1.21292V11.0514H1.81938ZM1.81938 11.6579V12.2643H1.21292V11.6579H1.81938ZM1.81938 12.2643V12.8708H1.21292V12.2643H1.81938ZM1.81938 12.8708V13.4773H1.21292V12.8708H1.81938ZM1.81938 13.4773V14.0837H1.21292V13.4773H1.81938ZM1.81938 14.0837V14.6902H1.21292V14.0837H1.81938ZM1.81938 14.6902V15.2966H1.21292V14.6902H1.81938ZM1.81938 15.2966V15.9031H1.21292V15.2966H1.81938ZM3.63876 9.8385V10.445H3.0323V9.8385H3.63876ZM3.63876 10.445V11.0514H3.0323V10.445H3.63876ZM3.63876 11.0514V11.6579H3.0323V11.0514H3.63876ZM3.63876 11.6579V12.2643H3.0323V11.6579H3.63876ZM3.63876 12.2643V12.8708H3.0323V12.2643H3.63876ZM3.63876 12.8708V13.4773H3.0323V12.8708H3.63876ZM3.63876 14.0837V14.6902H3.0323V14.0837H3.63876ZM3.63876 14.6902V15.2966H3.0323V14.6902H3.63876ZM3.63876 15.2966V15.9031H3.0323V15.2966H3.63876ZM3.63876 15.9031V16.5096H3.0323V15.9031H3.63876ZM3.63876 16.5096V17.116H3.0323V16.5096H3.63876ZM3.63876 17.116V17.7225H3.0323V17.116H3.63876ZM3.63876 17.7225V18.3289H3.0323V17.7225H3.63876ZM4.24522 18.3289V18.9354H3.63876V18.3289H4.24522ZM4.24522 18.9354V19.5419H3.63876V18.9354H4.24522ZM4.24522 19.5419V20.1483H3.63876V19.5419H4.24522ZM4.24522 17.7225V18.3289H3.63876V17.7225H4.24522ZM4.24522 17.116V17.7225H3.63876V17.116H4.24522ZM4.24522 16.5096V17.116H3.63876V16.5096H4.24522ZM4.24522 15.9031V16.5096H3.63876V15.9031H4.24522ZM4.24522 15.2966V15.9031H3.63876V15.2966H4.24522ZM4.24522 14.6902V15.2966H3.63876V14.6902H4.24522ZM4.24522 14.0837V14.6902H3.63876V14.0837H4.24522ZM4.24522 13.4773V14.0837H3.63876V13.4773H4.24522ZM4.24522 12.8708V13.4773H3.63876V12.8708H4.24522ZM4.24522 12.2643V12.8708H3.63876V12.2643H4.24522ZM3.63876 13.4773V14.0837H3.0323V13.4773H3.63876ZM4.24522 11.6579V12.2643H3.63876V11.6579H4.24522ZM4.24522 11.0514V11.6579H3.63876V11.0514H4.24522ZM4.24522 10.445V11.0514H3.63876V10.445H4.24522ZM4.24522 9.8385V10.445H3.63876V9.8385H4.24522ZM3.0323 9.8385V10.445H2.42584V9.8385H3.0323ZM2.42584 9.8385V10.445H1.81938V9.8385H2.42584ZM2.42584 10.445V11.0514H1.81938V10.445H2.42584ZM3.0323 10.445V11.0514H2.42584V10.445H3.0323ZM3.0323 11.0514V11.6579H2.42584V11.0514H3.0323ZM3.0323 11.6579V12.2643H2.42584V11.6579H3.0323ZM3.0323 12.2643V12.8708H2.42584V12.2643H3.0323ZM3.0323 12.8708V13.4773H2.42584V12.8708H3.0323ZM3.0323 13.4773V14.0837H2.42584V13.4773H3.0323ZM3.0323 14.0837V14.6902H2.42584V14.0837H3.0323ZM2.42584 14.6902V15.2966H1.81938V14.6902H2.42584ZM2.42584 15.2966V15.9031H1.81938V15.2966H2.42584ZM2.42584 14.0837V14.6902H1.81938V14.0837H2.42584ZM2.42584 13.4773V14.0837H1.81938V13.4773H2.42584ZM2.42584 12.8708V13.4773H1.81938V12.8708H2.42584ZM2.42584 12.2643V12.8708H1.81938V12.2643H2.42584ZM2.42584 11.6579V12.2643H1.81938V11.6579H2.42584ZM2.42584 11.0514V11.6579H1.81938V11.0514H2.42584ZM3.0323 14.6902V15.2966H2.42584V14.6902H3.0323ZM3.0323 15.2966V15.9031H2.42584V15.2966H3.0323ZM3.0323 15.9031V16.5096H2.42584V15.9031H3.0323ZM3.0323 16.5096V17.116H2.42584V16.5096H3.0323ZM3.0323 17.116V17.7225H2.42584V17.116H3.0323ZM3.0323 17.7225V18.3289H2.42584V17.7225H3.0323ZM3.0323 18.3289V18.9354H2.42584V18.3289H3.0323ZM3.0323 18.9354V19.5419H2.42584V18.9354H3.0323ZM3.0323 19.5419V20.1483H2.42584V19.5419H3.0323ZM3.63876 18.9354V19.5419H3.0323V18.9354H3.63876ZM3.63876 18.3289V18.9354H3.0323V18.3289H3.63876ZM13.3421 9.8385V10.445H12.7357V9.8385H13.3421ZM13.3421 10.445V11.0514H12.7357V10.445H13.3421ZM13.3421 11.0514V11.6579H12.7357V11.0514H13.3421ZM13.3421 12.2643V12.8708H12.7357V12.2643H13.3421ZM13.3421 12.8708V13.4773H12.7357V12.8708H13.3421ZM13.3421 13.4773V14.0837H12.7357V13.4773H13.3421ZM13.3421 14.0837V14.6902H12.7357V14.0837H13.3421ZM13.3421 14.6902V15.2966H12.7357V14.6902H13.3421ZM13.3421 15.2966V15.9031H12.7357V15.2966H13.3421ZM13.3421 15.9031V16.5096H12.7357V15.9031H13.3421ZM13.9486 16.5096V17.116H13.3421V16.5096H13.9486ZM13.9486 17.116V17.7225H13.3421V17.116H13.9486ZM13.9486 17.7225V18.3289H13.3421V17.7225H13.9486ZM13.9486 18.3289V18.9354H13.3421V18.3289H13.9486ZM13.9486 18.9354V19.5419H13.3421V18.9354H13.9486ZM13.9486 19.5419V20.1483H13.3421V19.5419H13.9486ZM14.555 19.5419V20.1483H13.9486V19.5419H14.555ZM14.555 20.1483V20.7548H13.9486V20.1483H14.555ZM14.555 20.7548V21.3612H13.9486V20.7548H14.555ZM14.555 21.3612V21.9677H13.9486V21.3612H14.555ZM14.555 21.9677V22.5742H13.9486V21.9677H14.555ZM14.555 22.5742V23.1806H13.9486V22.5742H14.555ZM14.555 23.1806V23.7871H13.9486V23.1806H14.555ZM14.555 23.7871V24.3935H13.9486V23.7871H14.555ZM14.555 24.3935V25H13.9486V24.3935H14.555ZM13.9486 24.3935V25H13.3421V24.3935H13.9486ZM13.9486 23.7871V24.3935H13.3421V23.7871H13.9486ZM13.9486 23.1806V23.7871H13.3421V23.1806H13.9486ZM13.9486 22.5742V23.1806H13.3421V22.5742H13.9486ZM13.9486 21.9677V22.5742H13.3421V21.9677H13.9486ZM13.9486 21.3612V21.9677H13.3421V21.3612H13.9486ZM13.9486 20.7548V21.3612H13.3421V20.7548H13.9486ZM13.3421 20.7548V21.3612H12.7357V20.7548H13.3421ZM13.3421 20.1483V20.7548H12.7357V20.1483H13.3421ZM13.9486 20.1483V20.7548H13.3421V20.1483H13.9486ZM13.3421 16.5096V17.116H12.7357V16.5096H13.3421ZM13.3421 17.116V17.7225H12.7357V17.116H13.3421ZM13.3421 17.7225V18.3289H12.7357V17.7225H13.3421ZM13.3421 18.3289V18.9354H12.7357V18.3289H13.3421ZM13.3421 18.9354V19.5419H12.7357V18.9354H13.3421ZM13.3421 19.5419V20.1483H12.7357V19.5419H13.3421ZM13.3421 11.6579V12.2643H12.7357V11.6579H13.3421ZM13.3421 21.3612V21.9677H12.7357V21.3612H13.3421ZM13.3421 21.9677V22.5742H12.7357V21.9677H13.3421ZM13.3421 22.5742V23.1806H12.7357V22.5742H13.3421ZM13.3421 23.1806V23.7871H12.7357V23.1806H13.3421ZM13.3421 23.7871V24.3935H12.7357V23.7871H13.3421ZM13.3421 24.3935V25H12.7357V24.3935H13.3421ZM15.1615 24.3935V25H14.555V24.3935H15.1615ZM15.768 24.3935V25H15.1615V24.3935H15.768ZM15.768 23.7871V24.3935H15.1615V23.7871H15.768ZM15.768 23.1806V23.7871H15.1615V23.1806H15.768ZM15.768 22.5742V23.1806H15.1615V22.5742H15.768ZM15.768 21.9677V22.5742H15.1615V21.9677H15.768ZM15.768 21.3612V21.9677H15.1615V21.3612H15.768ZM15.768 20.7548V21.3612H15.1615V20.7548H15.768ZM15.768 20.1483V20.7548H15.1615V20.1483H15.768ZM15.768 19.5419V20.1483H15.1615V19.5419H15.768ZM15.768 18.9354V19.5419H15.1615V18.9354H15.768ZM15.768 18.3289V18.9354H15.1615V18.3289H15.768ZM15.768 17.7225V18.3289H15.1615V17.7225H15.768ZM15.768 17.116V17.7225H15.1615V17.116H15.768ZM15.768 16.5096V17.116H15.1615V16.5096H15.768ZM15.768 15.9031V16.5096H15.1615V15.9031H15.768ZM15.768 15.2966V15.9031H15.1615V15.2966H15.768ZM15.768 14.6902V15.2966H15.1615V14.6902H15.768ZM15.768 14.0837V14.6902H15.1615V14.0837H15.768ZM15.768 13.4773V14.0837H15.1615V13.4773H15.768ZM13.9486 9.8385V10.445H13.3421V9.8385H13.9486ZM14.555 9.8385V10.445H13.9486V9.8385H14.555ZM15.1615 9.8385V10.445H14.555V9.8385H15.1615ZM15.768 9.8385V10.445H15.1615V9.8385H15.768ZM15.768 10.445V11.0514H15.1615V10.445H15.768ZM15.768 11.0514V11.6579H15.1615V11.0514H15.768ZM15.768 11.6579V12.2643H15.1615V11.6579H15.768ZM15.768 12.2643V12.8708H15.1615V12.2643H15.768ZM15.768 12.8708V13.4773H15.1615V12.8708H15.768ZM13.9486 10.445V11.0514H13.3421V10.445H13.9486ZM14.555 10.445V11.0514H13.9486V10.445H14.555ZM15.1615 10.445V11.0514H14.555V10.445H15.1615ZM15.1615 11.0514V11.6579H14.555V11.0514H15.1615ZM15.1615 11.6579V12.2643H14.555V11.6579H15.1615ZM15.1615 12.2643V12.8708H14.555V12.2643H15.1615ZM15.1615 12.8708V13.4773H14.555V12.8708H15.1615ZM14.555 12.8708V13.4773H13.9486V12.8708H14.555ZM14.555 12.2643V12.8708H13.9486V12.2643H14.555ZM14.555 11.6579V12.2643H13.9486V11.6579H14.555ZM14.555 11.0514V11.6579H13.9486V11.0514H14.555ZM13.9486 11.0514V11.6579H13.3421V11.0514H13.9486ZM13.9486 11.6579V12.2643H13.3421V11.6579H13.9486ZM13.9486 12.2643V12.8708H13.3421V12.2643H13.9486ZM13.9486 12.8708V13.4773H13.3421V12.8708H13.9486ZM13.9486 13.4773V14.0837H13.3421V13.4773H13.9486ZM13.9486 14.0837V14.6902H13.3421V14.0837H13.9486ZM13.9486 14.6902V15.2966H13.3421V14.6902H13.9486ZM13.9486 15.2966V15.9031H13.3421V15.2966H13.9486ZM14.555 15.2966V15.9031H13.9486V15.2966H14.555ZM14.555 14.6902V15.2966H13.9486V14.6902H14.555ZM14.555 14.0837V14.6902H13.9486V14.0837H14.555ZM14.555 13.4773V14.0837H13.9486V13.4773H14.555ZM15.1615 13.4773V14.0837H14.555V13.4773H15.1615ZM15.1615 14.0837V14.6902H14.555V14.0837H15.1615ZM15.1615 14.6902V15.2966H14.555V14.6902H15.1615ZM15.1615 15.2966V15.9031H14.555V15.2966H15.1615ZM15.1615 15.9031V16.5096H14.555V15.9031H15.1615ZM15.1615 16.5096V17.116H14.555V16.5096H15.1615ZM15.1615 17.116V17.7225H14.555V17.116H15.1615ZM15.1615 17.7225V18.3289H14.555V17.7225H15.1615ZM15.1615 18.3289V18.9354H14.555V18.3289H15.1615ZM15.1615 18.9354V19.5419H14.555V18.9354H15.1615ZM14.555 18.9354V19.5419H13.9486V18.9354H14.555ZM14.555 18.3289V18.9354H13.9486V18.3289H14.555ZM14.555 17.7225V18.3289H13.9486V17.7225H14.555ZM14.555 17.116V17.7225H13.9486V17.116H14.555ZM14.555 16.5096V17.116H13.9486V16.5096H14.555ZM13.9486 15.9031V16.5096H13.3421V15.9031H13.9486ZM14.555 15.9031V16.5096H13.9486V15.9031H14.555ZM15.1615 19.5419V20.1483H14.555V19.5419H15.1615ZM15.1615 20.1483V20.7548H14.555V20.1483H15.1615ZM15.1615 20.7548V21.3612H14.555V20.7548H15.1615ZM15.1615 21.3612V21.9677H14.555V21.3612H15.1615ZM15.1615 21.9677V22.5742H14.555V21.9677H15.1615ZM15.1615 22.5742V23.1806H14.555V22.5742H15.1615ZM15.1615 23.1806V23.7871H14.555V23.1806H15.1615ZM15.1615 23.7871V24.3935H14.555V23.7871H15.1615ZM8.49044 17.116V17.7225H7.88398V17.116H8.49044ZM8.49044 16.5096V17.116H7.88398V16.5096H8.49044ZM8.49044 15.9031V16.5096H7.88398V15.9031H8.49044ZM8.49044 15.2966V15.9031H7.88398V15.2966H8.49044ZM8.49044 14.6902V15.2966H7.88398V14.6902H8.49044ZM8.49044 14.0837V14.6902H7.88398V14.0837H8.49044ZM8.49044 17.7225V18.3289H7.88398V17.7225H8.49044ZM9.70336 13.4773V14.0837H9.0969V13.4773H9.70336ZM10.3098 12.8708V13.4773H9.70336V12.8708H10.3098ZM10.9163 12.2643V12.8708H10.3098V12.2643H10.9163ZM11.5227 11.6579V12.2643H10.9163V11.6579H11.5227ZM7.88398 13.4773V14.0837H7.27752V13.4773H7.88398ZM7.27752 12.8708V13.4773H6.67106V12.8708H7.27752ZM6.67106 12.2643V12.8708H6.0646V12.2643H6.67106ZM6.0646 11.6579V12.2643H5.45814V11.6579H6.0646ZM9.70336 17.116V17.7225H9.0969V17.116H9.70336ZM10.3098 16.5096V17.116H9.70336V16.5096H10.3098ZM10.9163 15.9031V16.5096H10.3098V15.9031H10.9163ZM11.5227 15.2966V15.9031H10.9163V15.2966H11.5227ZM7.88398 17.116V17.7225H7.27752V17.116H7.88398ZM7.27752 16.5096V17.116H6.67106V16.5096H7.27752ZM6.67106 15.9031V16.5096H6.0646V15.9031H6.67106ZM6.0646 15.2966V15.9031H5.45814V15.2966H6.0646ZM4.85168 10.445V11.0514H4.24522V10.445H4.85168ZM5.45814 11.0514V11.6579H4.85168V11.0514H5.45814ZM12.1292 11.0514V11.6579H11.5227V11.0514H12.1292ZM12.7357 10.445V11.0514H12.1292V10.445H12.7357ZM5.45814 12.8708V13.4773H4.85168V12.8708H5.45814ZM5.45814 14.6902V15.2966H4.85168V14.6902H5.45814ZM5.45814 14.0837V14.6902H4.85168V14.0837H5.45814ZM4.85168 14.0837V14.6902H4.24522V14.0837H4.85168ZM12.1292 14.6902V15.2966H11.5227V14.6902H12.1292ZM12.7357 14.0837V14.6902H12.1292V14.0837H12.7357ZM12.7357 13.4773V14.0837H12.1292V13.4773H12.7357ZM12.7357 12.8708V13.4773H12.1292V12.8708H12.7357ZM12.7357 12.2643V12.8708H12.1292V12.2643H12.7357ZM12.7357 11.6579V12.2643H12.1292V11.6579H12.7357ZM12.7357 11.0514V11.6579H12.1292V11.0514H12.7357ZM12.1292 11.6579V12.2643H11.5227V11.6579H12.1292ZM12.1292 12.2643V12.8708H11.5227V12.2643H12.1292ZM12.1292 12.8708V13.4773H11.5227V12.8708H12.1292ZM12.1292 13.4773V14.0837H11.5227V13.4773H12.1292ZM12.1292 14.0837V14.6902H11.5227V14.0837H12.1292ZM11.5227 12.2643V12.8708H10.9163V12.2643H11.5227ZM11.5227 12.8708V13.4773H10.9163V12.8708H11.5227ZM11.5227 13.4773V14.0837H10.9163V13.4773H11.5227ZM11.5227 14.0837V14.6902H10.9163V14.0837H11.5227ZM11.5227 14.6902V15.2966H10.9163V14.6902H11.5227ZM10.9163 12.8708V13.4773H10.3098V12.8708H10.9163ZM10.9163 13.4773V14.0837H10.3098V13.4773H10.9163ZM10.9163 14.0837V14.6902H10.3098V14.0837H10.9163ZM10.9163 14.6902V15.2966H10.3098V14.6902H10.9163ZM10.9163 15.2966V15.9031H10.3098V15.2966H10.9163ZM10.3098 13.4773V14.0837H9.70336V13.4773H10.3098ZM10.3098 14.0837V14.6902H9.70336V14.0837H10.3098ZM10.3098 14.6902V15.2966H9.70336V14.6902H10.3098ZM10.3098 15.2966V15.9031H9.70336V15.2966H10.3098ZM10.3098 15.9031V16.5096H9.70336V15.9031H10.3098ZM9.70336 14.0837V14.6902H9.0969V14.0837H9.70336ZM9.70336 14.6902V15.2966H9.0969V14.6902H9.70336ZM9.70336 15.2966V15.9031H9.0969V15.2966H9.70336ZM9.70336 15.9031V16.5096H9.0969V15.9031H9.70336ZM9.70336 16.5096V17.116H9.0969V16.5096H9.70336ZM7.88398 16.5096V17.116H7.27752V16.5096H7.88398ZM7.88398 15.9031V16.5096H7.27752V15.9031H7.88398ZM7.27752 15.9031V16.5096H6.67106V15.9031H7.27752ZM7.27752 15.2966V15.9031H6.67106V15.2966H7.27752ZM6.67106 15.2966V15.9031H6.0646V15.2966H6.67106ZM6.67106 14.6902V15.2966H6.0646V14.6902H6.67106ZM6.0646 14.6902V15.2966H5.45814V14.6902H6.0646ZM6.0646 14.0837V14.6902H5.45814V14.0837H6.0646ZM5.45814 13.4773V14.0837H4.85168V13.4773H5.45814ZM4.85168 13.4773V14.0837H4.24522V13.4773H4.85168ZM4.85168 12.8708V13.4773H4.24522V12.8708H4.85168ZM4.85168 12.2643V12.8708H4.24522V12.2643H4.85168ZM4.85168 11.6579V12.2643H4.24522V11.6579H4.85168ZM4.85168 11.0514V11.6579H4.24522V11.0514H4.85168ZM5.45814 11.6579V12.2643H4.85168V11.6579H5.45814ZM5.45814 12.2643V12.8708H4.85168V12.2643H5.45814ZM6.0646 12.2643V12.8708H5.45814V12.2643H6.0646ZM6.0646 12.8708V13.4773H5.45814V12.8708H6.0646ZM6.67106 12.8708V13.4773H6.0646V12.8708H6.67106ZM6.67106 13.4773V14.0837H6.0646V13.4773H6.67106ZM7.27752 13.4773V14.0837H6.67106V13.4773H7.27752ZM7.27752 14.0837V14.6902H6.67106V14.0837H7.27752ZM7.88398 14.0837V14.6902H7.27752V14.0837H7.88398ZM7.88398 14.6902V15.2966H7.27752V14.6902H7.88398ZM7.88398 15.2966V15.9031H7.27752V15.2966H7.88398ZM7.27752 14.6902V15.2966H6.67106V14.6902H7.27752ZM6.67106 14.0837V14.6902H6.0646V14.0837H6.67106ZM6.0646 13.4773V14.0837H5.45814V13.4773H6.0646ZM9.0969 14.0837V14.6902H8.49044V14.0837H9.0969ZM9.0969 14.6902V15.2966H8.49044V14.6902H9.0969ZM9.0969 15.2966V15.9031H8.49044V15.2966H9.0969ZM9.0969 15.9031V16.5096H8.49044V15.9031H9.0969ZM9.0969 16.5096V17.116H8.49044V16.5096H9.0969ZM9.0969 17.116V17.7225H8.49044V17.116H9.0969ZM9.0969 17.7225V18.3289H8.49044V17.7225H9.0969ZM18.7926 9.8385V10.445H18.1861V9.8385H18.7926ZM18.7926 10.445V11.0514H18.1861V10.445H18.7926ZM18.7926 11.0514V11.6579H18.1861V11.0514H18.7926ZM20.6119 9.8385V10.445H20.0055V9.8385H20.6119ZM20.6119 10.445V11.0514H20.0055V10.445H20.6119ZM20.6119 11.0514V11.6579H20.0055V11.0514H20.6119ZM21.2184 11.0514V11.6579H20.6119V11.0514H21.2184ZM21.2184 10.445V11.0514H20.6119V10.445H21.2184ZM21.2184 9.8385V10.445H20.6119V9.8385H21.2184ZM20.0055 9.8385V10.445H19.399V9.8385H20.0055ZM19.399 9.8385V10.445H18.7926V9.8385H19.399ZM19.399 10.445V11.0514H18.7926V10.445H19.399ZM20.0055 10.445V11.0514H19.399V10.445H20.0055ZM20.0055 11.0514V11.6579H19.399V11.0514H20.0055ZM19.399 11.0514V11.6579H18.7926V11.0514H19.399ZM18.7926 11.6579V12.2643H18.1861V11.6579H18.7926ZM19.399 11.6579V12.2643H18.7926V11.6579H19.399ZM20.0055 11.6579V12.2643H19.399V11.6579H20.0055ZM20.6119 11.6579V12.2643H20.0055V11.6579H20.6119ZM21.2184 11.6579V12.2643H20.6119V11.6579H21.2184ZM18.7926 24.3935V25H18.1861V24.3935H18.7926ZM18.7926 23.7871V24.3935H18.1861V23.7871H18.7926ZM18.7926 23.1806V23.7871H18.1861V23.1806H18.7926ZM18.7926 22.5742V23.1806H18.1861V22.5742H18.7926ZM18.7926 21.9677V22.5742H18.1861V21.9677H18.7926ZM18.7926 21.3612V21.9677H18.1861V21.3612H18.7926ZM18.7926 20.7548V21.3612H18.1861V20.7548H18.7926ZM18.7926 20.1483V20.7548H18.1861V20.1483H18.7926ZM18.7926 19.5419V20.1483H18.1861V19.5419H18.7926ZM18.7926 18.9354V19.5419H18.1861V18.9354H18.7926ZM18.7926 18.3289V18.9354H18.1861V18.3289H18.7926ZM18.7926 17.7225V18.3289H18.1861V17.7225H18.7926ZM18.7926 17.116V17.7225H18.1861V17.116H18.7926ZM18.7926 16.5096V17.116H18.1861V16.5096H18.7926ZM18.7926 15.9031V16.5096H18.1861V15.9031H18.7926ZM19.399 15.9031V16.5096H18.7926V15.9031H19.399ZM19.399 16.5096V17.116H18.7926V16.5096H19.399ZM19.399 17.116V17.7225H18.7926V17.116H19.399ZM19.399 17.7225V18.3289H18.7926V17.7225H19.399ZM19.399 18.3289V18.9354H18.7926V18.3289H19.399ZM19.399 18.9354V19.5419H18.7926V18.9354H19.399ZM19.399 19.5419V20.1483H18.7926V19.5419H19.399ZM20.0055 20.1483V20.7548H19.399V20.1483H20.0055ZM20.0055 20.7548V21.3612H19.399V20.7548H20.0055ZM20.0055 21.3612V21.9677H19.399V21.3612H20.0055ZM20.0055 21.9677V22.5742H19.399V21.9677H20.0055ZM20.0055 22.5742V23.1806H19.399V22.5742H20.0055ZM20.0055 23.1806V23.7871H19.399V23.1806H20.0055ZM20.0055 23.7871V24.3935H19.399V23.7871H20.0055ZM20.0055 24.3935V25H19.399V24.3935H20.0055ZM20.6119 24.3935V25H20.0055V24.3935H20.6119ZM21.2184 24.3935V25H20.6119V24.3935H21.2184ZM21.2184 23.7871V24.3935H20.6119V23.7871H21.2184ZM21.2184 23.1806V23.7871H20.6119V23.1806H21.2184ZM21.2184 22.5742V23.1806H20.6119V22.5742H21.2184ZM21.2184 21.9677V22.5742H20.6119V21.9677H21.2184ZM21.2184 21.3612V21.9677H20.6119V21.3612H21.2184ZM21.2184 20.7548V21.3612H20.6119V20.7548H21.2184ZM21.2184 20.1483V20.7548H20.6119V20.1483H21.2184ZM20.6119 20.1483V20.7548H20.0055V20.1483H20.6119ZM20.6119 19.5419V20.1483H20.0055V19.5419H20.6119ZM20.6119 20.7548V21.3612H20.0055V20.7548H20.6119ZM20.6119 21.3612V21.9677H20.0055V21.3612H20.6119ZM20.6119 21.9677V22.5742H20.0055V21.9677H20.6119ZM20.6119 22.5742V23.1806H20.0055V22.5742H20.6119ZM20.6119 23.1806V23.7871H20.0055V23.1806H20.6119ZM20.6119 23.7871V24.3935H20.0055V23.7871H20.6119ZM19.399 24.3935V25H18.7926V24.3935H19.399ZM19.399 23.7871V24.3935H18.7926V23.7871H19.399ZM19.399 23.1806V23.7871H18.7926V23.1806H19.399ZM19.399 22.5742V23.1806H18.7926V22.5742H19.399ZM19.399 21.9677V22.5742H18.7926V21.9677H19.399ZM19.399 21.3612V21.9677H18.7926V21.3612H19.399ZM19.399 20.7548V21.3612H18.7926V20.7548H19.399ZM19.399 20.1483V20.7548H18.7926V20.1483H19.399ZM18.7926 14.6902V15.2966H18.1861V14.6902H18.7926ZM18.7926 15.2966V15.9031H18.1861V15.2966H18.7926ZM20.6119 14.6902V15.2966H20.0055V14.6902H20.6119ZM20.6119 15.2966V15.9031H20.0055V15.2966H20.6119ZM20.6119 15.9031V16.5096H20.0055V15.9031H20.6119ZM20.6119 16.5096V17.116H20.0055V16.5096H20.6119ZM20.6119 17.116V17.7225H20.0055V17.116H20.6119ZM20.6119 17.7225V18.3289H20.0055V17.7225H20.6119ZM21.2184 18.3289V18.9354H20.6119V18.3289H21.2184ZM21.2184 18.9354V19.5419H20.6119V18.9354H21.2184ZM21.2184 19.5419V20.1483H20.6119V19.5419H21.2184ZM21.2184 17.7225V18.3289H20.6119V17.7225H21.2184ZM21.2184 17.116V17.7225H20.6119V17.116H21.2184ZM21.2184 16.5096V17.116H20.6119V16.5096H21.2184ZM21.2184 15.9031V16.5096H20.6119V15.9031H21.2184ZM21.2184 15.2966V15.9031H20.6119V15.2966H21.2184ZM21.2184 14.6902V15.2966H20.6119V14.6902H21.2184ZM19.399 14.6902V15.2966H18.7926V14.6902H19.399ZM19.399 15.2966V15.9031H18.7926V15.2966H19.399ZM20.0055 14.6902V15.2966H19.399V14.6902H20.0055ZM20.0055 15.2966V15.9031H19.399V15.2966H20.0055ZM20.0055 15.9031V16.5096H19.399V15.9031H20.0055ZM20.0055 16.5096V17.116H19.399V16.5096H20.0055ZM20.0055 17.116V17.7225H19.399V17.116H20.0055ZM20.0055 17.7225V18.3289H19.399V17.7225H20.0055ZM20.0055 18.3289V18.9354H19.399V18.3289H20.0055ZM20.0055 18.9354V19.5419H19.399V18.9354H20.0055ZM20.0055 19.5419V20.1483H19.399V19.5419H20.0055ZM20.6119 18.9354V19.5419H20.0055V18.9354H20.6119ZM20.6119 18.3289V18.9354H20.0055V18.3289H20.6119ZM20.6119 14.0837V14.6902H20.0055V14.0837H20.6119ZM21.2184 14.0837V14.6902H20.6119V14.0837H21.2184ZM20.0055 14.0837V14.6902H19.399V14.0837H20.0055ZM19.399 14.0837V14.6902H18.7926V14.0837H19.399ZM18.7926 14.0837V14.6902H18.1861V14.0837H18.7926ZM24.256 13.4773V14.0837H23.6496V13.4773H24.256ZM24.8625 13.4773V14.0837H24.256V13.4773H24.8625ZM25.469 13.4773V14.0837H24.8625V13.4773H25.469ZM25.469 14.0837V14.6902H24.8625V14.0837H25.469ZM26.0754 14.0837V14.6902H25.469V14.0837H26.0754ZM26.6819 14.6902V15.2966H26.0754V14.6902H26.6819ZM26.6819 15.2966V15.9031H26.0754V15.2966H26.6819ZM26.6819 14.0837V14.6902H26.0754V14.0837H26.6819ZM26.6819 13.4773V14.0837H26.0754V13.4773H26.6819ZM26.0754 13.4773V14.0837H25.469V13.4773H26.0754ZM24.8625 14.0837V14.6902H24.256V14.0837H24.8625ZM24.8625 14.6902V15.2966H24.256V14.6902H24.8625ZM24.256 14.6902V15.2966H23.6496V14.6902H24.256ZM24.256 14.0837V14.6902H23.6496V14.0837H24.256ZM24.256 15.2966V15.9031H23.6496V15.2966H24.256ZM24.256 15.9031V16.5096H23.6496V15.9031H24.256ZM24.256 16.5096V17.116H23.6496V16.5096H24.256ZM24.8625 16.5096V17.116H24.256V16.5096H24.8625ZM25.469 16.5096V17.116H24.8625V16.5096H25.469ZM26.0754 16.5096V17.116H25.469V16.5096H26.0754ZM26.6819 16.5096V17.116H26.0754V16.5096H26.6819ZM26.6819 15.9031V16.5096H26.0754V15.9031H26.6819ZM26.0754 15.9031V16.5096H25.469V15.9031H26.0754ZM26.0754 15.2966V15.9031H25.469V15.2966H26.0754ZM26.0754 14.6902V15.2966H25.469V14.6902H26.0754ZM25.469 14.6902V15.2966H24.8625V14.6902H25.469ZM25.469 15.2966V15.9031H24.8625V15.2966H25.469ZM24.8625 15.2966V15.9031H24.256V15.2966H24.8625ZM24.8625 15.9031V16.5096H24.256V15.9031H24.8625ZM25.469 15.9031V16.5096H24.8625V15.9031H25.469ZM24.8625 17.116V17.7225H24.256V17.116H24.8625ZM25.469 17.116V17.7225H24.8625V17.116H25.469ZM25.469 17.7225V18.3289H24.8625V17.7225H25.469ZM26.0754 17.7225V18.3289H25.469V17.7225H26.0754ZM26.0754 18.3289V18.9354H25.469V18.3289H26.0754ZM26.6819 18.3289V18.9354H26.0754V18.3289H26.6819ZM26.6819 18.9354V19.5419H26.0754V18.9354H26.6819ZM26.6819 19.5419V20.1483H26.0754V19.5419H26.6819ZM26.6819 20.1483V20.7548H26.0754V20.1483H26.6819ZM26.0754 20.1483V20.7548H25.469V20.1483H26.0754ZM26.0754 19.5419V20.1483H25.469V19.5419H26.0754ZM25.469 20.7548V21.3612H24.8625V20.7548H25.469ZM25.469 20.1483V20.7548H24.8625V20.1483H25.469ZM25.469 21.3612V21.9677H24.8625V21.3612H25.469ZM24.8625 21.3612V21.9677H24.256V21.3612H24.8625ZM24.8625 20.7548V21.3612H24.256V20.7548H24.8625ZM24.256 21.3612V21.9677H23.6496V21.3612H24.256ZM25.469 21.9677V22.5742H24.8625V21.9677H25.469ZM26.0754 21.9677V22.5742H25.469V21.9677H26.0754ZM26.6819 21.9677V22.5742H26.0754V21.9677H26.6819ZM26.6819 21.3612V21.9677H26.0754V21.3612H26.6819ZM27.2883 21.3612V21.9677H26.6819V21.3612H27.2883ZM27.2883 20.7548V21.3612H26.6819V20.7548H27.2883ZM27.8948 20.7548V21.3612H27.2883V20.7548H27.8948ZM27.8948 20.1483V20.7548H27.2883V20.1483H27.8948ZM28.5013 20.1483V20.7548H27.8948V20.1483H28.5013ZM29.1077 20.1483V20.7548H28.5013V20.1483H29.1077ZM29.7142 20.1483V20.7548H29.1077V20.1483H29.7142ZM29.7142 20.7548V21.3612H29.1077V20.7548H29.7142ZM30.3206 20.7548V21.3612H29.7142V20.7548H30.3206ZM30.3206 21.3612V21.9677H29.7142V21.3612H30.3206ZM30.9271 21.3612V21.9677H30.3206V21.3612H30.9271ZM30.9271 21.9677V22.5742H30.3206V21.9677H30.9271ZM31.5336 21.9677V22.5742H30.9271V21.9677H31.5336ZM31.5336 21.3612V21.9677H30.9271V21.3612H31.5336ZM32.14 21.3612V21.9677H31.5336V21.3612H32.14ZM32.7465 21.3612V21.9677H32.14V21.3612H32.7465ZM33.3529 21.3612V21.9677H32.7465V21.3612H33.3529ZM33.3529 21.9677V22.5742H32.7465V21.9677H33.3529ZM32.7465 20.7548V21.3612H32.14V20.7548H32.7465ZM32.14 20.7548V21.3612H31.5336V20.7548H32.14ZM32.14 20.1483V20.7548H31.5336V20.1483H32.14ZM31.5336 20.1483V20.7548H30.9271V20.1483H31.5336ZM30.9271 20.1483V20.7548H30.3206V20.1483H30.9271ZM30.9271 19.5419V20.1483H30.3206V19.5419H30.9271ZM30.3206 20.1483V20.7548H29.7142V20.1483H30.3206ZM31.5336 20.7548V21.3612H30.9271V20.7548H31.5336ZM30.9271 20.7548V21.3612H30.3206V20.7548H30.9271ZM27.8948 18.9354V19.5419H27.2883V18.9354H27.8948ZM28.5013 18.9354V19.5419H27.8948V18.9354H28.5013ZM29.1077 18.9354V19.5419H28.5013V18.9354H29.1077ZM29.7142 18.9354V19.5419H29.1077V18.9354H29.7142ZM30.3206 18.9354V19.5419H29.7142V18.9354H30.3206ZM30.9271 18.9354V19.5419H30.3206V18.9354H30.9271ZM30.3206 19.5419V20.1483H29.7142V19.5419H30.3206ZM29.7142 19.5419V20.1483H29.1077V19.5419H29.7142ZM29.1077 19.5419V20.1483H28.5013V19.5419H29.1077ZM28.5013 19.5419V20.1483H27.8948V19.5419H28.5013ZM27.8948 19.5419V20.1483H27.2883V19.5419H27.8948ZM27.2883 19.5419V20.1483H26.6819V19.5419H27.2883ZM27.2883 18.9354V19.5419H26.6819V18.9354H27.2883ZM27.2883 20.1483V20.7548H26.6819V20.1483H27.2883ZM26.6819 20.7548V21.3612H26.0754V20.7548H26.6819ZM26.0754 21.3612V21.9677H25.469V21.3612H26.0754ZM26.0754 20.7548V21.3612H25.469V20.7548H26.0754ZM31.5336 19.5419V20.1483H30.9271V19.5419H31.5336ZM31.5336 18.3289V18.9354H30.9271V18.3289H31.5336ZM31.5336 17.7225V18.3289H30.9271V17.7225H31.5336ZM32.14 17.7225V18.3289H31.5336V17.7225H32.14ZM32.14 17.116V17.7225H31.5336V17.116H32.14ZM32.7465 17.116V17.7225H32.14V17.116H32.7465ZM32.7465 16.5096V17.116H32.14V16.5096H32.7465ZM33.3529 16.5096V17.116H32.7465V16.5096H33.3529ZM33.3529 15.9031V16.5096H32.7465V15.9031H33.3529ZM33.3529 15.2966V15.9031H32.7465V15.2966H33.3529ZM33.3529 14.6902V15.2966H32.7465V14.6902H33.3529ZM33.3529 14.0837V14.6902H32.7465V14.0837H33.3529ZM33.3529 13.4773V14.0837H32.7465V13.4773H33.3529ZM32.7465 13.4773V14.0837H32.14V13.4773H32.7465ZM32.14 13.4773V14.0837H31.5336V13.4773H32.14ZM31.5336 13.4773V14.0837H30.9271V13.4773H31.5336ZM30.9271 13.4773V14.0837H30.3206V13.4773H30.9271ZM30.9271 14.0837V14.6902H30.3206V14.0837H30.9271ZM30.9271 14.6902V15.2966H30.3206V14.6902H30.9271ZM30.9271 15.2966V15.9031H30.3206V15.2966H30.9271ZM30.9271 15.9031V16.5096H30.3206V15.9031H30.9271ZM30.9271 16.5096V17.116H30.3206V16.5096H30.9271ZM30.3206 16.5096V17.116H29.7142V16.5096H30.3206ZM30.3206 17.116V17.7225H29.7142V17.116H30.3206ZM29.7142 17.116V17.7225H29.1077V17.116H29.7142ZM29.7142 17.7225V18.3289H29.1077V17.7225H29.7142ZM29.1077 17.7225V18.3289H28.5013V17.7225H29.1077ZM28.5013 17.7225V18.3289H27.8948V17.7225H28.5013ZM27.8948 17.116V17.7225H27.2883V17.116H27.8948ZM27.2883 17.116V17.7225H26.6819V17.116H27.2883ZM27.2883 16.5096V17.116H26.6819V16.5096H27.2883ZM26.6819 17.116V17.7225H26.0754V17.116H26.6819ZM26.0754 17.116V17.7225H25.469V17.116H26.0754ZM26.6819 17.7225V18.3289H26.0754V17.7225H26.6819ZM27.2883 17.7225V18.3289H26.6819V17.7225H27.2883ZM27.8948 17.7225V18.3289H27.2883V17.7225H27.8948ZM27.8948 18.3289V18.9354H27.2883V18.3289H27.8948ZM27.2883 18.3289V18.9354H26.6819V18.3289H27.2883ZM28.5013 18.3289V18.9354H27.8948V18.3289H28.5013ZM29.1077 18.3289V18.9354H28.5013V18.3289H29.1077ZM29.7142 18.3289V18.9354H29.1077V18.3289H29.7142ZM30.3206 18.3289V18.9354H29.7142V18.3289H30.3206ZM30.9271 18.3289V18.9354H30.3206V18.3289H30.9271ZM30.9271 17.7225V18.3289H30.3206V17.7225H30.9271ZM30.3206 17.7225V18.3289H29.7142V17.7225H30.3206ZM31.5336 14.0837V14.6902H30.9271V14.0837H31.5336ZM32.14 14.0837V14.6902H31.5336V14.0837H32.14ZM32.7465 14.0837V14.6902H32.14V14.0837H32.7465ZM32.7465 14.6902V15.2966H32.14V14.6902H32.7465ZM32.7465 15.2966V15.9031H32.14V15.2966H32.7465ZM32.7465 15.9031V16.5096H32.14V15.9031H32.7465ZM32.14 15.9031V16.5096H31.5336V15.9031H32.14ZM32.14 15.2966V15.9031H31.5336V15.2966H32.14ZM32.14 14.6902V15.2966H31.5336V14.6902H32.14ZM31.5336 14.6902V15.2966H30.9271V14.6902H31.5336ZM31.5336 15.2966V15.9031H30.9271V15.2966H31.5336ZM31.5336 15.9031V16.5096H30.9271V15.9031H31.5336ZM31.5336 16.5096V17.116H30.9271V16.5096H31.5336ZM32.14 16.5096V17.116H31.5336V16.5096H32.14ZM31.5336 17.116V17.7225H30.9271V17.116H31.5336ZM30.9271 17.116V17.7225H30.3206V17.116H30.9271ZM24.256 21.9677V22.5742H23.6496V21.9677H24.256ZM24.8625 21.9677V22.5742H24.256V21.9677H24.8625ZM32.14 21.9677V22.5742H31.5336V21.9677H32.14ZM32.7465 21.9677V22.5742H32.14V21.9677H32.7465ZM30.9271 22.5742V23.1806H30.3206V22.5742H30.9271ZM30.9271 23.1806V23.7871H30.3206V23.1806H30.9271ZM30.9271 23.7871V24.3935H30.3206V23.7871H30.9271ZM30.9271 24.3935V25H30.3206V24.3935H30.9271ZM31.5336 24.3935V25H30.9271V24.3935H31.5336ZM32.14 24.3935V25H31.5336V24.3935H32.14ZM32.7465 24.3935V25H32.14V24.3935H32.7465ZM33.3529 24.3935V25H32.7465V24.3935H33.3529ZM33.3529 23.7871V24.3935H32.7465V23.7871H33.3529ZM33.3529 23.1806V23.7871H32.7465V23.1806H33.3529ZM33.3529 22.5742V23.1806H32.7465V22.5742H33.3529ZM32.7465 22.5742V23.1806H32.14V22.5742H32.7465ZM32.14 22.5742V23.1806H31.5336V22.5742H32.14ZM31.5336 22.5742V23.1806H30.9271V22.5742H31.5336ZM31.5336 23.1806V23.7871H30.9271V23.1806H31.5336ZM31.5336 23.7871V24.3935H30.9271V23.7871H31.5336ZM32.14 23.7871V24.3935H31.5336V23.7871H32.14ZM32.7465 23.7871V24.3935H32.14V23.7871H32.7465ZM32.7465 23.1806V23.7871H32.14V23.1806H32.7465ZM32.14 23.1806V23.7871H31.5336V23.1806H32.14ZM24.256 22.5742V23.1806H23.6496V22.5742H24.256ZM24.256 23.1806V23.7871H23.6496V23.1806H24.256ZM24.256 23.7871V24.3935H23.6496V23.7871H24.256ZM24.8625 23.7871V24.3935H24.256V23.7871H24.8625ZM24.8625 24.3935V25H24.256V24.3935H24.8625ZM24.256 24.3935V25H23.6496V24.3935H24.256ZM25.469 24.3935V25H24.8625V24.3935H25.469ZM26.0754 24.3935V25H25.469V24.3935H26.0754ZM26.6819 24.3935V25H26.0754V24.3935H26.6819ZM26.6819 23.7871V24.3935H26.0754V23.7871H26.6819ZM26.6819 23.1806V23.7871H26.0754V23.1806H26.6819ZM26.6819 22.5742V23.1806H26.0754V22.5742H26.6819ZM26.0754 22.5742V23.1806H25.469V22.5742H26.0754ZM26.0754 23.1806V23.7871H25.469V23.1806H26.0754ZM26.0754 23.7871V24.3935H25.469V23.7871H26.0754ZM25.469 23.7871V24.3935H24.8625V23.7871H25.469ZM25.469 23.1806V23.7871H24.8625V23.1806H25.469ZM25.469 22.5742V23.1806H24.8625V22.5742H25.469ZM24.8625 23.1806V23.7871H24.256V23.1806H24.8625ZM24.8625 22.5742V23.1806H24.256V22.5742H24.8625ZM38.8229 11.0514V11.6579H38.2165V11.0514H38.8229ZM38.8229 11.6579V12.2643H38.2165V11.6579H38.8229ZM38.8229 12.2643V12.8708H38.2165V12.2643H38.8229ZM38.8229 12.8708V13.4773H38.2165V12.8708H38.8229ZM38.8229 13.4773V14.0837H38.2165V13.4773H38.8229ZM38.8229 14.0837V14.6902H38.2165V14.0837H38.8229ZM38.8229 14.6902V15.2966H38.2165V14.6902H38.8229ZM38.8229 15.2966V15.9031H38.2165V15.2966H38.8229ZM39.4294 15.2966V15.9031H38.8229V15.2966H39.4294ZM40.0358 15.2966V15.9031H39.4294V15.2966H40.0358ZM40.6423 15.2966V15.9031H40.0358V15.2966H40.6423ZM41.2488 15.2966V15.9031H40.6423V15.2966H41.2488ZM38.8229 16.5096V17.116H38.2165V16.5096H38.8229ZM38.2165 16.5096V17.116H37.61V16.5096H38.2165ZM38.2165 15.9031V16.5096H37.61V15.9031H38.2165ZM38.8229 15.9031V16.5096H38.2165V15.9031H38.8229ZM38.8229 17.116V17.7225H38.2165V17.116H38.8229ZM38.2165 17.116V17.7225H37.61V17.116H38.2165ZM37.61 17.116V17.7225H37.0035V17.116H37.61ZM37.0035 17.116V17.7225H36.3971V17.116H37.0035ZM36.3971 17.116V17.7225H35.7906V17.116H36.3971ZM35.1842 15.2966V15.9031H34.5777V15.2966H35.1842ZM35.7906 15.2966V15.9031H35.1842V15.2966H35.7906ZM36.3971 15.2966V15.9031H35.7906V15.2966H36.3971ZM37.0035 15.2966V15.9031H36.3971V15.2966H37.0035ZM37.61 15.2966V15.9031H37.0035V15.2966H37.61ZM38.2165 15.2966V15.9031H37.61V15.2966H38.2165ZM37.61 16.5096V17.116H37.0035V16.5096H37.61ZM37.61 15.9031V16.5096H37.0035V15.9031H37.61ZM37.0035 15.9031V16.5096H36.3971V15.9031H37.0035ZM36.3971 15.9031V16.5096H35.7906V15.9031H36.3971ZM36.3971 16.5096V17.116H35.7906V16.5096H36.3971ZM37.0035 16.5096V17.116H36.3971V16.5096H37.0035ZM38.2165 11.6579V12.2643H37.61V11.6579H38.2165ZM38.2165 12.2643V12.8708H37.61V12.2643H38.2165ZM37.61 12.2643V12.8708H37.0035V12.2643H37.61ZM37.61 12.8708V13.4773H37.0035V12.8708H37.61ZM37.61 13.4773V14.0837H37.0035V13.4773H37.61ZM37.0035 12.8708V13.4773H36.3971V12.8708H37.0035ZM37.0035 13.4773V14.0837H36.3971V13.4773H37.0035ZM36.3971 13.4773V14.0837H35.7906V13.4773H36.3971ZM36.3971 14.0837V14.6902H35.7906V14.0837H36.3971ZM36.3971 14.6902V15.2966H35.7906V14.6902H36.3971ZM37.61 14.6902V15.2966H37.0035V14.6902H37.61ZM38.2165 14.6902V15.2966H37.61V14.6902H38.2165ZM38.2165 14.0837V14.6902H37.61V14.0837H38.2165ZM38.2165 13.4773V14.0837H37.61V13.4773H38.2165ZM38.2165 12.8708V13.4773H37.61V12.8708H38.2165ZM37.61 14.0837V14.6902H37.0035V14.0837H37.61ZM37.0035 14.6902V15.2966H36.3971V14.6902H37.0035ZM37.0035 14.0837V14.6902H36.3971V14.0837H37.0035ZM41.2488 22.5742V23.1806H40.6423V22.5742H41.2488ZM41.2488 23.1806V23.7871H40.6423V23.1806H41.2488ZM41.2488 24.3935V25H40.6423V24.3935H41.2488ZM40.6423 24.3935V25H40.0358V24.3935H40.6423ZM40.0358 24.3935V25H39.4294V24.3935H40.0358ZM39.4294 24.3935V25H38.8229V24.3935H39.4294ZM38.8229 24.3935V25H38.2165V24.3935H38.8229ZM38.8229 23.7871V24.3935H38.2165V23.7871H38.8229ZM38.2165 23.7871V24.3935H37.61V23.7871H38.2165ZM37.61 23.7871V24.3935H37.0035V23.7871H37.61ZM37.61 23.1806V23.7871H37.0035V23.1806H37.61ZM37.0035 23.1806V23.7871H36.3971V23.1806H37.0035ZM37.0035 22.5742V23.1806H36.3971V22.5742H37.0035ZM37.0035 21.9677V22.5742H36.3971V21.9677H37.0035ZM36.3971 21.9677V22.5742H35.7906V21.9677H36.3971ZM36.3971 21.3612V21.9677H35.7906V21.3612H36.3971ZM36.3971 20.7548V21.3612H35.7906V20.7548H36.3971ZM36.3971 20.1483V20.7548H35.7906V20.1483H36.3971ZM36.3971 19.5419V20.1483H35.7906V19.5419H36.3971ZM36.3971 18.9354V19.5419H35.7906V18.9354H36.3971ZM36.3971 18.3289V18.9354H35.7906V18.3289H36.3971ZM36.3971 17.7225V18.3289H35.7906V17.7225H36.3971ZM37.0035 17.7225V18.3289H36.3971V17.7225H37.0035ZM37.61 17.7225V18.3289H37.0035V17.7225H37.61ZM38.2165 17.7225V18.3289H37.61V17.7225H38.2165ZM38.8229 17.7225V18.3289H38.2165V17.7225H38.8229ZM38.8229 18.3289V18.9354H38.2165V18.3289H38.8229ZM38.8229 18.9354V19.5419H38.2165V18.9354H38.8229ZM38.8229 19.5419V20.1483H38.2165V19.5419H38.8229ZM38.8229 20.1483V20.7548H38.2165V20.1483H38.8229ZM38.8229 20.7548V21.3612H38.2165V20.7548H38.8229ZM38.8229 21.3612V21.9677H38.2165V21.3612H38.8229ZM38.8229 21.9677V22.5742H38.2165V21.9677H38.8229ZM39.4294 21.9677V22.5742H38.8229V21.9677H39.4294ZM39.4294 22.5742V23.1806H38.8229V22.5742H39.4294ZM40.0358 22.5742V23.1806H39.4294V22.5742H40.0358ZM40.0358 23.1806V23.7871H39.4294V23.1806H40.0358ZM40.6423 23.1806V23.7871H40.0358V23.1806H40.6423ZM40.6423 22.5742V23.1806H40.0358V22.5742H40.6423ZM41.2488 23.7871V24.3935H40.6423V23.7871H41.2488ZM40.6423 23.7871V24.3935H40.0358V23.7871H40.6423ZM40.0358 23.7871V24.3935H39.4294V23.7871H40.0358ZM39.4294 23.7871V24.3935H38.8229V23.7871H39.4294ZM39.4294 23.1806V23.7871H38.8229V23.1806H39.4294ZM38.8229 23.1806V23.7871H38.2165V23.1806H38.8229ZM38.8229 22.5742V23.1806H38.2165V22.5742H38.8229ZM38.2165 22.5742V23.1806H37.61V22.5742H38.2165ZM38.2165 23.1806V23.7871H37.61V23.1806H38.2165ZM37.61 22.5742V23.1806H37.0035V22.5742H37.61ZM38.2165 21.9677V22.5742H37.61V21.9677H38.2165ZM38.2165 21.3612V21.9677H37.61V21.3612H38.2165ZM37.61 21.9677V22.5742H37.0035V21.9677H37.61ZM37.61 21.3612V21.9677H37.0035V21.3612H37.61ZM38.2165 20.7548V21.3612H37.61V20.7548H38.2165ZM38.2165 20.1483V20.7548H37.61V20.1483H38.2165ZM38.2165 19.5419V20.1483H37.61V19.5419H38.2165ZM38.2165 18.9354V19.5419H37.61V18.9354H38.2165ZM38.2165 18.3289V18.9354H37.61V18.3289H38.2165ZM37.61 18.3289V18.9354H37.0035V18.3289H37.61ZM37.0035 18.3289V18.9354H36.3971V18.3289H37.0035ZM37.0035 18.9354V19.5419H36.3971V18.9354H37.0035ZM37.0035 19.5419V20.1483H36.3971V19.5419H37.0035ZM37.0035 20.1483V20.7548H36.3971V20.1483H37.0035ZM37.0035 20.7548V21.3612H36.3971V20.7548H37.0035ZM37.0035 21.3612V21.9677H36.3971V21.3612H37.0035ZM37.61 20.7548V21.3612H37.0035V20.7548H37.61ZM37.61 20.1483V20.7548H37.0035V20.1483H37.61ZM37.61 19.5419V20.1483H37.0035V19.5419H37.61ZM37.61 18.9354V19.5419H37.0035V18.9354H37.61ZM41.2488 14.0837V14.6902H40.6423V14.0837H41.2488ZM40.6423 14.0837V14.6902H40.0358V14.0837H40.6423ZM40.6423 14.6902V15.2966H40.0358V14.6902H40.6423ZM41.2488 14.6902V15.2966H40.6423V14.6902H41.2488ZM40.0358 14.6902V15.2966H39.4294V14.6902H40.0358ZM39.4294 14.6902V15.2966H38.8229V14.6902H39.4294ZM39.4294 14.0837V14.6902H38.8229V14.0837H39.4294ZM40.0358 14.0837V14.6902H39.4294V14.0837H40.0358ZM36.3971 12.8708V13.4773H35.7906V12.8708H36.3971ZM37.0035 12.2643V12.8708H36.3971V12.2643H37.0035ZM37.61 11.6579V12.2643H37.0035V11.6579H37.61ZM38.2165 11.0514V11.6579H37.61V11.0514H38.2165ZM35.7906 14.0837V14.6902H35.1842V14.0837H35.7906ZM35.7906 14.6902V15.2966H35.1842V14.6902H35.7906ZM35.1842 14.6902V15.2966H34.5777V14.6902H35.1842ZM35.1842 14.0837V14.6902H34.5777V14.0837H35.1842ZM38.8229 10.445V11.0514H38.2165V10.445H38.8229ZM35.1842 15.9031V16.5096H34.5777V15.9031H35.1842ZM35.7906 15.9031V16.5096H35.1842V15.9031H35.7906ZM39.4294 15.9031V16.5096H38.8229V15.9031H39.4294ZM40.0358 15.9031V16.5096H39.4294V15.9031H40.0358ZM40.6423 15.9031V16.5096H40.0358V15.9031H40.6423ZM41.2488 15.9031V16.5096H40.6423V15.9031H41.2488ZM43.6817 24.3935V25H43.0753V24.3935H43.6817ZM43.6817 23.7871V24.3935H43.0753V23.7871H43.6817ZM43.6817 23.1806V23.7871H43.0753V23.1806H43.6817ZM43.6817 22.5742V23.1806H43.0753V22.5742H43.6817ZM43.6817 21.9677V22.5742H43.0753V21.9677H43.6817ZM43.6817 21.3612V21.9677H43.0753V21.3612H43.6817ZM43.6817 20.7548V21.3612H43.0753V20.7548H43.6817ZM43.6817 20.1483V20.7548H43.0753V20.1483H43.6817ZM43.6817 19.5419V20.1483H43.0753V19.5419H43.6817ZM43.6817 18.9354V19.5419H43.0753V18.9354H43.6817ZM43.6817 18.3289V18.9354H43.0753V18.3289H43.6817ZM43.6817 17.7225V18.3289H43.0753V17.7225H43.6817ZM43.6817 17.116V17.7225H43.0753V17.116H43.6817ZM43.6817 16.5096V17.116H43.0753V16.5096H43.6817ZM43.6817 15.9031V16.5096H43.0753V15.9031H43.6817ZM44.2882 15.9031V16.5096H43.6817V15.9031H44.2882ZM44.2882 16.5096V17.116H43.6817V16.5096H44.2882ZM44.2882 17.116V17.7225H43.6817V17.116H44.2882ZM44.2882 17.7225V18.3289H43.6817V17.7225H44.2882ZM44.2882 18.3289V18.9354H43.6817V18.3289H44.2882ZM44.2882 18.9354V19.5419H43.6817V18.9354H44.2882ZM44.2882 19.5419V20.1483H43.6817V19.5419H44.2882ZM44.8946 20.1483V20.7548H44.2882V20.1483H44.8946ZM44.8946 20.7548V21.3612H44.2882V20.7548H44.8946ZM44.8946 21.3612V21.9677H44.2882V21.3612H44.8946ZM44.8946 21.9677V22.5742H44.2882V21.9677H44.8946ZM44.8946 22.5742V23.1806H44.2882V22.5742H44.8946ZM44.8946 23.1806V23.7871H44.2882V23.1806H44.8946ZM44.8946 23.7871V24.3935H44.2882V23.7871H44.8946ZM44.8946 24.3935V25H44.2882V24.3935H44.8946ZM45.5011 24.3935V25H44.8946V24.3935H45.5011ZM46.1076 24.3935V25H45.5011V24.3935H46.1076ZM46.1076 23.7871V24.3935H45.5011V23.7871H46.1076ZM46.1076 23.1806V23.7871H45.5011V23.1806H46.1076ZM46.1076 22.5742V23.1806H45.5011V22.5742H46.1076ZM46.1076 21.9677V22.5742H45.5011V21.9677H46.1076ZM46.1076 21.3612V21.9677H45.5011V21.3612H46.1076ZM46.1076 20.7548V21.3612H45.5011V20.7548H46.1076ZM46.1076 20.1483V20.7548H45.5011V20.1483H46.1076ZM45.5011 20.1483V20.7548H44.8946V20.1483H45.5011ZM45.5011 19.5419V20.1483H44.8946V19.5419H45.5011ZM45.5011 20.7548V21.3612H44.8946V20.7548H45.5011ZM45.5011 21.3612V21.9677H44.8946V21.3612H45.5011ZM45.5011 21.9677V22.5742H44.8946V21.9677H45.5011ZM45.5011 22.5742V23.1806H44.8946V22.5742H45.5011ZM45.5011 23.1806V23.7871H44.8946V23.1806H45.5011ZM45.5011 23.7871V24.3935H44.8946V23.7871H45.5011ZM44.2882 24.3935V25H43.6817V24.3935H44.2882ZM44.2882 23.7871V24.3935H43.6817V23.7871H44.2882ZM44.2882 23.1806V23.7871H43.6817V23.1806H44.2882ZM44.2882 22.5742V23.1806H43.6817V22.5742H44.2882ZM44.2882 21.9677V22.5742H43.6817V21.9677H44.2882ZM44.2882 21.3612V21.9677H43.6817V21.3612H44.2882ZM44.2882 20.7548V21.3612H43.6817V20.7548H44.2882ZM44.2882 20.1483V20.7548H43.6817V20.1483H44.2882ZM43.6817 13.4773V14.0837H43.0753V13.4773H43.6817ZM43.6817 14.0837V14.6902H43.0753V14.0837H43.6817ZM43.6817 14.6902V15.2966H43.0753V14.6902H43.6817ZM43.6817 15.2966V15.9031H43.0753V15.2966H43.6817ZM45.5011 14.0837V14.6902H44.8946V14.0837H45.5011ZM45.5011 14.6902V15.2966H44.8946V14.6902H45.5011ZM45.5011 15.2966V15.9031H44.8946V15.2966H45.5011ZM45.5011 15.9031V16.5096H44.8946V15.9031H45.5011ZM45.5011 16.5096V17.116H44.8946V16.5096H45.5011ZM45.5011 17.116V17.7225H44.8946V17.116H45.5011ZM45.5011 17.7225V18.3289H44.8946V17.7225H45.5011ZM46.1076 18.3289V18.9354H45.5011V18.3289H46.1076ZM46.1076 18.9354V19.5419H45.5011V18.9354H46.1076ZM46.1076 19.5419V20.1483H45.5011V19.5419H46.1076ZM46.1076 17.7225V18.3289H45.5011V17.7225H46.1076ZM46.1076 17.116V17.7225H45.5011V17.116H46.1076ZM46.1076 16.5096V17.116H45.5011V16.5096H46.1076ZM46.1076 15.9031V16.5096H45.5011V15.9031H46.1076ZM46.1076 15.2966V15.9031H45.5011V15.2966H46.1076ZM46.1076 14.6902V15.2966H45.5011V14.6902H46.1076ZM46.1076 14.0837V14.6902H45.5011V14.0837H46.1076ZM46.1076 13.4773V14.0837H45.5011V13.4773H46.1076ZM45.5011 13.4773V14.0837H44.8946V13.4773H45.5011ZM44.8946 13.4773V14.0837H44.2882V13.4773H44.8946ZM44.8946 14.0837V14.6902H44.2882V14.0837H44.8946ZM44.2882 14.6902V15.2966H43.6817V14.6902H44.2882ZM44.2882 15.2966V15.9031H43.6817V15.2966H44.2882ZM44.2882 14.0837V14.6902H43.6817V14.0837H44.2882ZM44.2882 13.4773V14.0837H43.6817V13.4773H44.2882ZM44.8946 14.6902V15.2966H44.2882V14.6902H44.8946ZM44.8946 15.2966V15.9031H44.2882V15.2966H44.8946ZM44.8946 15.9031V16.5096H44.2882V15.9031H44.8946ZM44.8946 16.5096V17.116H44.2882V16.5096H44.8946ZM44.8946 17.116V17.7225H44.2882V17.116H44.8946ZM44.8946 17.7225V18.3289H44.2882V17.7225H44.8946ZM44.8946 18.3289V18.9354H44.2882V18.3289H44.8946ZM44.8946 18.9354V19.5419H44.2882V18.9354H44.8946ZM44.8946 19.5419V20.1483H44.2882V19.5419H44.8946ZM45.5011 18.9354V19.5419H44.8946V18.9354H45.5011ZM45.5011 18.3289V18.9354H44.8946V18.3289H45.5011ZM50.3528 15.9031V16.5096H49.7463V15.9031H50.3528ZM50.3528 13.4773V14.0837H49.7463V13.4773H50.3528ZM50.3528 14.0837V14.6902H49.7463V14.0837H50.3528ZM50.9592 14.0837V14.6902H50.3528V14.0837H50.9592ZM51.5657 14.6902V15.2966H50.9592V14.6902H51.5657ZM50.9592 15.2966V15.9031H50.3528V15.2966H50.9592ZM50.9592 14.6902V15.2966H50.3528V14.6902H50.9592ZM50.3528 14.6902V15.2966H49.7463V14.6902H50.3528ZM49.7463 14.6902V15.2966H49.1399V14.6902H49.7463ZM49.7463 15.2966V15.9031H49.1399V15.2966H49.7463ZM50.3528 15.2966V15.9031H49.7463V15.2966H50.3528ZM49.7463 15.9031V16.5096H49.1399V15.9031H49.7463ZM49.1399 15.2966V15.9031H48.5334V15.2966H49.1399ZM49.1399 14.6902V15.2966H48.5334V14.6902H49.1399ZM49.1399 14.0837V14.6902H48.5334V14.0837H49.1399ZM49.1399 13.4773V14.0837H48.5334V13.4773H49.1399ZM49.7463 13.4773V14.0837H49.1399V13.4773H49.7463ZM49.7463 14.0837V14.6902H49.1399V14.0837H49.7463ZM48.5334 13.4773V14.0837H47.9269V13.4773H48.5334ZM48.5334 14.0837V14.6902H47.9269V14.0837H48.5334ZM48.5334 14.6902V15.2966H47.9269V14.6902H48.5334ZM48.5334 15.2966V15.9031H47.9269V15.2966H48.5334ZM47.9269 13.4773V14.0837H47.3205V13.4773H47.9269ZM47.9269 14.0837V14.6902H47.3205V14.0837H47.9269ZM47.3205 14.0837V14.6902H46.714V14.0837H47.3205ZM47.3205 14.6902V15.2966H46.714V14.6902H47.3205ZM46.714 14.6902V15.2966H46.1076V14.6902H46.714ZM46.714 15.2966V15.9031H46.1076V15.2966H46.714ZM47.3205 15.2966V15.9031H46.714V15.2966H47.3205ZM47.9269 15.2966V15.9031H47.3205V15.2966H47.9269ZM47.9269 14.6902V15.2966H47.3205V14.6902H47.9269ZM46.714 15.9031V16.5096H46.1076V15.9031H46.714ZM47.3205 13.4773V14.0837H46.714V13.4773H47.3205ZM46.714 14.0837V14.6902H46.1076V14.0837H46.714ZM49.1399 15.9031V16.5096H48.5334V15.9031H49.1399ZM49.7463 16.5096V17.116H49.1399V16.5096H49.7463ZM54.6075 21.3612V20.7548H55.2139V21.3612H54.6075ZM54.001 21.3612V20.7548H54.6075V21.3612H54.001ZM53.3945 21.3612V20.7548H54.001V21.3612H53.3945ZM52.7881 21.3612V20.7548H53.3945V21.3612H52.7881ZM52.1816 21.3612V20.7548H52.7881V21.3612H52.1816ZM52.1816 21.9677V21.3612H52.7881V21.9677H52.1816ZM52.1816 22.5742V21.9677H52.7881V22.5742H52.1816ZM52.7881 22.5742V21.9677H53.3945V22.5742H52.7881ZM53.3945 22.5742V21.9677H54.001V22.5742H53.3945ZM54.001 22.5742V21.9677H54.6075V22.5742H54.001ZM54.001 21.9677V21.3612H54.6075V21.9677H54.001ZM54.6075 21.9677V21.3612H55.2139V21.9677H54.6075ZM53.3945 21.9677V21.3612H54.001V21.9677H53.3945ZM52.7881 21.9677V21.3612H53.3945V21.9677H52.7881ZM54.6075 22.5742V21.9677H55.2139V22.5742H54.6075ZM55.2139 22.5742V21.9677H55.8204V22.5742H55.2139ZM55.2139 23.1806V22.5742H55.8204V23.1806H55.2139ZM54.6075 23.1806V22.5742H55.2139V23.1806H54.6075ZM54.001 23.1806V22.5742H54.6075V23.1806H54.001ZM53.3945 23.1806V22.5742H54.001V23.1806H53.3945ZM52.7881 23.1806V22.5742H53.3945V23.1806H52.7881ZM52.7881 23.7871V23.1806H53.3945V23.7871H52.7881ZM53.3945 23.7871V23.1806H54.001V23.7871H53.3945ZM54.001 23.7871V23.1806H54.6075V23.7871H54.001ZM54.6075 23.7871V23.1806H55.2139V23.7871H54.6075ZM55.2139 23.7871V23.1806H55.8204V23.7871H55.2139ZM54.001 24.3935V23.7871H54.6075V24.3935H54.001ZM53.3945 24.3935V23.7871H54.001V24.3935H53.3945ZM54.6075 24.3935V23.7871H55.2139V24.3935H54.6075ZM54.6075 25V24.3935H55.2139V25H54.6075ZM55.2139 25V24.3935H55.8204V25H55.2139ZM55.2139 24.3935V23.7871H55.8204V24.3935H55.2139ZM55.8204 24.3935V23.7871H56.4268V24.3935H55.8204ZM55.8204 25V24.3935H56.4268V25H55.8204ZM55.8204 23.7871V23.1806H56.4268V23.7871H55.8204ZM56.4268 23.7871V23.1806H57.0333V23.7871H56.4268ZM56.4268 23.1806V22.5742H57.0333V23.1806H56.4268ZM55.8204 23.1806V22.5742H56.4268V23.1806H55.8204ZM57.0333 23.1806V22.5742H57.6398V23.1806H57.0333ZM57.0333 23.7871V23.1806H57.6398V23.7871H57.0333ZM57.0333 24.3935V23.7871H57.6398V24.3935H57.0333ZM57.0333 25V24.3935H57.6398V25H57.0333ZM56.4268 25V24.3935H57.0333V25H56.4268ZM56.4268 24.3935V23.7871H57.0333V24.3935H56.4268ZM57.6398 25V24.3935H58.2462V25H57.6398ZM58.8527 24.3935V23.7871H59.4591V24.3935H58.8527ZM58.8527 23.7871V23.1806H59.4591V23.7871H58.8527ZM58.8527 23.1806V22.5742H59.4591V23.1806H58.8527ZM58.2462 23.1806V22.5742H58.8527V23.1806H58.2462ZM57.6398 23.1806V22.5742H58.2462V23.1806H57.6398ZM57.6398 23.7871V23.1806H58.2462V23.7871H57.6398ZM57.6398 24.3935V23.7871H58.2462V24.3935H57.6398ZM58.2462 24.3935V23.7871H58.8527V24.3935H58.2462ZM58.2462 23.7871V23.1806H58.8527V23.7871H58.2462ZM59.4591 23.7871V23.1806H60.0656V23.7871H59.4591ZM59.4591 24.3935V23.7871H60.0656V24.3935H59.4591ZM60.0656 24.3935V23.7871H60.6721V24.3935H60.0656ZM60.0656 23.7871V23.1806H60.6721V23.7871H60.0656ZM60.6721 23.7871V23.1806H61.2785V23.7871H60.6721ZM60.6721 23.1806V22.5742H61.2785V23.1806H60.6721ZM60.6721 22.5742V21.9677H61.2785V22.5742H60.6721ZM60.0656 22.5742V21.9677H60.6721V22.5742H60.0656ZM60.0656 23.1806V22.5742H60.6721V23.1806H60.0656ZM59.4591 23.1806V22.5742H60.0656V23.1806H59.4591ZM59.4591 22.5742V21.9677H60.0656V22.5742H59.4591ZM58.8527 22.5742V21.9677H59.4591V22.5742H58.8527ZM61.2785 22.5742V21.9677H61.885V22.5742H61.2785ZM61.2785 21.9677V21.3612H61.885V21.9677H61.2785ZM61.2785 21.3612V20.7548H61.885V21.3612H61.2785ZM61.2785 20.7548V20.1483H61.885V20.7548H61.2785ZM61.2785 20.1483V19.5419H61.885V20.1483H61.2785ZM61.2785 19.5419V18.9354H61.885V19.5419H61.2785ZM61.2785 18.9354V18.3289H61.885V18.9354H61.2785ZM61.2785 18.3289V17.7225H61.885V18.3289H61.2785ZM61.2785 17.7225V17.116H61.885V17.7225H61.2785ZM61.2785 17.116V16.5096H61.885V17.116H61.2785ZM60.6721 17.116V16.5096H61.2785V17.116H60.6721ZM60.6721 16.5096V15.9031H61.2785V16.5096H60.6721ZM61.2785 16.5096V15.9031H61.885V16.5096H61.2785ZM60.0656 16.5096V15.9031H60.6721V16.5096H60.0656ZM59.4591 16.5096V15.9031H60.0656V16.5096H59.4591ZM58.8527 16.5096V15.9031H59.4591V16.5096H58.8527ZM58.2462 16.5096V15.9031H58.8527V16.5096H58.2462ZM58.8527 17.116V16.5096H59.4591V17.116H58.8527ZM58.8527 17.7225V17.116H59.4591V17.7225H58.8527ZM58.8527 18.3289V17.7225H59.4591V18.3289H58.8527ZM58.8527 18.9354V18.3289H59.4591V18.9354H58.8527ZM58.8527 19.5419V18.9354H59.4591V19.5419H58.8527ZM58.8527 20.1483V19.5419H59.4591V20.1483H58.8527ZM58.8527 20.7548V20.1483H59.4591V20.7548H58.8527ZM58.8527 21.3612V20.7548H59.4591V21.3612H58.8527ZM58.8527 21.9677V21.3612H59.4591V21.9677H58.8527ZM59.4591 21.9677V21.3612H60.0656V21.9677H59.4591ZM60.0656 21.9677V21.3612H60.6721V21.9677H60.0656ZM60.6721 21.9677V21.3612H61.2785V21.9677H60.6721ZM60.6721 21.3612V20.7548H61.2785V21.3612H60.6721ZM60.6721 20.7548V20.1483H61.2785V20.7548H60.6721ZM60.6721 20.1483V19.5419H61.2785V20.1483H60.6721ZM60.6721 19.5419V18.9354H61.2785V19.5419H60.6721ZM60.6721 18.9354V18.3289H61.2785V18.9354H60.6721ZM60.6721 18.3289V17.7225H61.2785V18.3289H60.6721ZM60.6721 17.7225V17.116H61.2785V17.7225H60.6721ZM60.0656 17.116V16.5096H60.6721V17.116H60.0656ZM59.4591 17.116V16.5096H60.0656V17.116H59.4591ZM59.4591 17.7225V17.116H60.0656V17.7225H59.4591ZM59.4591 18.3289V17.7225H60.0656V18.3289H59.4591ZM59.4591 18.9354V18.3289H60.0656V18.9354H59.4591ZM59.4591 19.5419V18.9354H60.0656V19.5419H59.4591ZM60.0656 19.5419V18.9354H60.6721V19.5419H60.0656ZM60.0656 20.1483V19.5419H60.6721V20.1483H60.0656ZM60.0656 20.7548V20.1483H60.6721V20.7548H60.0656ZM60.0656 21.3612V20.7548H60.6721V21.3612H60.0656ZM59.4591 21.3612V20.7548H60.0656V21.3612H59.4591ZM59.4591 20.7548V20.1483H60.0656V20.7548H59.4591ZM59.4591 20.1483V19.5419H60.0656V20.1483H59.4591ZM60.0656 18.3289V17.7225H60.6721V18.3289H60.0656ZM60.0656 17.7225V17.116H60.6721V17.7225H60.0656ZM60.0656 18.9354V18.3289H60.6721V18.9354H60.0656ZM54.6075 17.116V16.5096H55.2139V17.116H54.6075ZM54.001 17.116V16.5096H54.6075V17.116H54.001ZM53.3945 17.116V16.5096H54.001V17.116H53.3945ZM52.7881 17.116V16.5096H53.3945V17.116H52.7881ZM52.1816 17.116V16.5096H52.7881V17.116H52.1816ZM52.1816 16.5096V15.9031H52.7881V16.5096H52.1816ZM52.7881 16.5096V15.9031H53.3945V16.5096H52.7881ZM53.3945 16.5096V15.9031H54.001V16.5096H53.3945ZM54.001 16.5096V15.9031H54.6075V16.5096H54.001ZM54.6075 16.5096V15.9031H55.2139V16.5096H54.6075ZM55.2139 16.5096V15.9031H55.8204V16.5096H55.2139ZM55.2139 15.9031V15.2966H55.8204V15.9031H55.2139ZM54.6075 15.9031V15.2966H55.2139V15.9031H54.6075ZM54.001 15.9031V15.2966H54.6075V15.9031H54.001ZM53.3945 15.9031V15.2966H54.001V15.9031H53.3945ZM53.3945 15.2966V14.6902H54.001V15.2966H53.3945ZM52.7881 15.2966V14.6902H53.3945V15.2966H52.7881ZM52.7881 15.9031V15.2966H53.3945V15.9031H52.7881ZM53.3945 14.6902V14.0837H54.001V14.6902H53.3945ZM54.001 14.6902V14.0837H54.6075V14.6902H54.001ZM54.001 15.2966V14.6902H54.6075V15.2966H54.001ZM54.6075 15.2966V14.6902H55.2139V15.2966H54.6075ZM54.6075 14.6902V14.0837H55.2139V14.6902H54.6075ZM54.6075 14.0837V13.4773H55.2139V14.0837H54.6075ZM55.2139 14.0837V13.4773H55.8204V14.0837H55.2139ZM55.8204 14.0837V13.4773H56.4268V14.0837H55.8204ZM56.4268 14.0837V13.4773H57.0333V14.0837H56.4268ZM57.0333 14.0837V13.4773H57.6398V14.0837H57.0333ZM57.6398 14.0837V13.4773H58.2462V14.0837H57.6398ZM58.2462 14.0837V13.4773H58.8527V14.0837H58.2462ZM58.8527 14.0837V13.4773H59.4591V14.0837H58.8527ZM58.2462 14.6902V14.0837H58.8527V14.6902H58.2462ZM57.6398 14.6902V14.0837H58.2462V14.6902H57.6398ZM57.0333 14.6902V14.0837H57.6398V14.6902H57.0333ZM56.4268 14.6902V14.0837H57.0333V14.6902H56.4268ZM55.8204 14.6902V14.0837H56.4268V14.6902H55.8204ZM55.2139 14.6902V14.0837H55.8204V14.6902H55.2139ZM55.2139 15.2966V14.6902H55.8204V15.2966H55.2139ZM55.8204 15.2966V14.6902H56.4268V15.2966H55.8204ZM56.4268 15.2966V14.6902H57.0333V15.2966H56.4268ZM57.0333 15.2966V14.6902H57.6398V15.2966H57.0333ZM57.6398 15.2966V14.6902H58.2462V15.2966H57.6398ZM58.2462 15.2966V14.6902H58.8527V15.2966H58.2462ZM58.8527 14.6902V14.0837H59.4591V14.6902H58.8527ZM59.4591 14.6902V14.0837H60.0656V14.6902H59.4591ZM60.0656 14.6902V14.0837H60.6721V14.6902H60.0656ZM60.0656 15.2966V14.6902H60.6721V15.2966H60.0656ZM60.6721 15.2966V14.6902H61.2785V15.2966H60.6721ZM60.6721 15.9031V15.2966H61.2785V15.9031H60.6721ZM60.0656 15.9031V15.2966H60.6721V15.9031H60.0656ZM59.4591 15.9031V15.2966H60.0656V15.9031H59.4591ZM58.8527 15.9031V15.2966H59.4591V15.9031H58.8527ZM58.2462 15.9031V15.2966H58.8527V15.9031H58.2462ZM57.6398 15.9031V15.2966H58.2462V15.9031H57.6398ZM57.0333 15.9031V15.2966H57.6398V15.9031H57.0333ZM56.4268 15.9031V15.2966H57.0333V15.9031H56.4268ZM55.8204 15.9031V15.2966H56.4268V15.9031H55.8204ZM58.8527 15.2966V14.6902H59.4591V15.2966H58.8527ZM59.4591 15.2966V14.6902H60.0656V15.2966H59.4591ZM52.7881 20.7548V20.1483H53.3945V20.7548H52.7881ZM53.3945 20.7548V20.1483H54.001V20.7548H53.3945ZM54.001 20.7548V20.1483H54.6075V20.7548H54.001ZM54.6075 20.7548V20.1483H55.2139V20.7548H54.6075ZM53.3945 20.1483V19.5419H54.001V20.1483H53.3945ZM54.001 20.1483V19.5419H54.6075V20.1483H54.001ZM55.2139 20.1483V19.5419H55.8204V20.1483H55.2139ZM55.8204 20.1483V19.5419H56.4268V20.1483H55.8204ZM56.4268 20.1483V19.5419H57.0333V20.1483H56.4268ZM57.0333 20.1483V19.5419H57.6398V20.1483H57.0333ZM57.6398 20.1483V19.5419H58.2462V20.1483H57.6398ZM58.2462 20.1483V19.5419H58.8527V20.1483H58.2462ZM54.6075 20.1483V19.5419H55.2139V20.1483H54.6075ZM52.7881 20.1483V19.5419H53.3945V20.1483H52.7881ZM53.3945 19.5419V18.9354H54.001V19.5419H53.3945ZM54.001 19.5419V18.9354H54.6075V19.5419H54.001ZM54.6075 19.5419V18.9354H55.2139V19.5419H54.6075ZM55.2139 19.5419V18.9354H55.8204V19.5419H55.2139ZM55.8204 19.5419V18.9354H56.4268V19.5419H55.8204ZM56.4268 19.5419V18.9354H57.0333V19.5419H56.4268ZM57.0333 19.5419V18.9354H57.6398V19.5419H57.0333ZM57.6398 19.5419V18.9354H58.2462V19.5419H57.6398ZM58.2462 19.5419V18.9354H58.8527V19.5419H58.2462ZM58.2462 18.9354V18.3289H58.8527V18.9354H58.2462ZM57.6398 18.9354V18.3289H58.2462V18.9354H57.6398ZM57.0333 18.9354V18.3289H57.6398V18.9354H57.0333ZM55.8204 18.9354V18.3289H56.4268V18.9354H55.8204ZM55.2139 18.9354V18.3289H55.8204V18.9354H55.2139ZM54.6075 18.9354V18.3289H55.2139V18.9354H54.6075ZM56.4268 18.9354V18.3289H57.0333V18.9354H56.4268ZM61.885 22.5742V23.1806H61.2785V22.5742H61.885ZM61.885 23.1806V23.7871H61.2785V23.1806H61.885ZM61.885 23.7871V24.3935H61.2785V23.7871H61.885ZM61.885 24.3935V25H61.2785V24.3935H61.885ZM61.2785 24.3935V25H60.6721V24.3935H61.2785ZM61.2785 23.7871V24.3935H60.6721V23.7871H61.2785ZM60.6721 24.3935V25H60.0656V24.3935H60.6721ZM60.0656 24.3935V25H59.4591V24.3935H60.0656ZM59.4591 24.3935V25H58.8527V24.3935H59.4591ZM58.8527 21.9677V22.5742H58.2462V21.9677H58.8527ZM54.6075 24.3935V25H54.001V24.3935H54.6075ZM55.8204 20.1483V20.7548H55.2139V20.1483H55.8204ZM64.9285 24.3935V25H64.3221V24.3935H64.9285ZM64.9285 23.7871V24.3935H64.3221V23.7871H64.9285ZM64.9285 23.1806V23.7871H64.3221V23.1806H64.9285ZM64.9285 22.5742V23.1806H64.3221V22.5742H64.9285ZM64.9285 21.9677V22.5742H64.3221V21.9677H64.9285ZM64.9285 21.3612V21.9677H64.3221V21.3612H64.9285ZM64.9285 20.7548V21.3612H64.3221V20.7548H64.9285ZM64.9285 20.1483V20.7548H64.3221V20.1483H64.9285ZM64.9285 19.5419V20.1483H64.3221V19.5419H64.9285ZM64.9285 18.9354V19.5419H64.3221V18.9354H64.9285ZM64.9285 18.3289V18.9354H64.3221V18.3289H64.9285ZM64.9285 17.7225V18.3289H64.3221V17.7225H64.9285ZM64.9285 17.116V17.7225H64.3221V17.116H64.9285ZM64.9285 16.5096V17.116H64.3221V16.5096H64.9285ZM64.9285 15.9031V16.5096H64.3221V15.9031H64.9285ZM65.535 15.9031V16.5096H64.9285V15.9031H65.535ZM65.535 16.5096V17.116H64.9285V16.5096H65.535ZM65.535 17.116V17.7225H64.9285V17.116H65.535ZM65.535 17.7225V18.3289H64.9285V17.7225H65.535ZM65.535 18.3289V18.9354H64.9285V18.3289H65.535ZM65.535 18.9354V19.5419H64.9285V18.9354H65.535ZM65.535 19.5419V20.1483H64.9285V19.5419H65.535ZM66.1415 20.1483V20.7548H65.535V20.1483H66.1415ZM66.1415 20.7548V21.3612H65.535V20.7548H66.1415ZM66.1415 21.3612V21.9677H65.535V21.3612H66.1415ZM66.1415 21.9677V22.5742H65.535V21.9677H66.1415ZM66.1415 22.5742V23.1806H65.535V22.5742H66.1415ZM66.1415 23.1806V23.7871H65.535V23.1806H66.1415ZM66.1415 23.7871V24.3935H65.535V23.7871H66.1415ZM66.1415 24.3935V25H65.535V24.3935H66.1415ZM66.7479 24.3935V25H66.1415V24.3935H66.7479ZM67.3544 24.3935V25H66.7479V24.3935H67.3544ZM67.3544 23.7871V24.3935H66.7479V23.7871H67.3544ZM67.3544 23.1806V23.7871H66.7479V23.1806H67.3544ZM67.3544 22.5742V23.1806H66.7479V22.5742H67.3544ZM67.3544 21.9677V22.5742H66.7479V21.9677H67.3544ZM67.3544 21.3612V21.9677H66.7479V21.3612H67.3544ZM67.3544 20.7548V21.3612H66.7479V20.7548H67.3544ZM67.3544 20.1483V20.7548H66.7479V20.1483H67.3544ZM66.7479 20.1483V20.7548H66.1415V20.1483H66.7479ZM66.7479 19.5419V20.1483H66.1415V19.5419H66.7479ZM66.7479 20.7548V21.3612H66.1415V20.7548H66.7479ZM66.7479 21.3612V21.9677H66.1415V21.3612H66.7479ZM66.7479 21.9677V22.5742H66.1415V21.9677H66.7479ZM66.7479 22.5742V23.1806H66.1415V22.5742H66.7479ZM66.7479 23.1806V23.7871H66.1415V23.1806H66.7479ZM66.7479 23.7871V24.3935H66.1415V23.7871H66.7479ZM65.535 24.3935V25H64.9285V24.3935H65.535ZM65.535 23.7871V24.3935H64.9285V23.7871H65.535ZM65.535 23.1806V23.7871H64.9285V23.1806H65.535ZM65.535 22.5742V23.1806H64.9285V22.5742H65.535ZM65.535 21.9677V22.5742H64.9285V21.9677H65.535ZM65.535 21.3612V21.9677H64.9285V21.3612H65.535ZM65.535 20.7548V21.3612H64.9285V20.7548H65.535ZM65.535 20.1483V20.7548H64.9285V20.1483H65.535ZM64.9285 9.8385V10.445H64.3221V9.8385H64.9285ZM64.9285 10.445V11.0514H64.3221V10.445H64.9285ZM64.9285 11.0514V11.6579H64.3221V11.0514H64.9285ZM64.9285 11.6579V12.2643H64.3221V11.6579H64.9285ZM64.9285 12.2643V12.8708H64.3221V12.2643H64.9285ZM64.9285 12.8708V13.4773H64.3221V12.8708H64.9285ZM64.9285 13.4773V14.0837H64.3221V13.4773H64.9285ZM64.9285 14.0837V14.6902H64.3221V14.0837H64.9285ZM64.9285 14.6902V15.2966H64.3221V14.6902H64.9285ZM64.9285 15.2966V15.9031H64.3221V15.2966H64.9285ZM66.7479 9.8385V10.445H66.1415V9.8385H66.7479ZM66.7479 10.445V11.0514H66.1415V10.445H66.7479ZM66.7479 11.0514V11.6579H66.1415V11.0514H66.7479ZM66.7479 11.6579V12.2643H66.1415V11.6579H66.7479ZM66.7479 12.2643V12.8708H66.1415V12.2643H66.7479ZM66.7479 12.8708V13.4773H66.1415V12.8708H66.7479ZM66.7479 14.0837V14.6902H66.1415V14.0837H66.7479ZM66.7479 14.6902V15.2966H66.1415V14.6902H66.7479ZM66.7479 15.2966V15.9031H66.1415V15.2966H66.7479ZM66.7479 15.9031V16.5096H66.1415V15.9031H66.7479ZM66.7479 16.5096V17.116H66.1415V16.5096H66.7479ZM66.7479 17.116V17.7225H66.1415V17.116H66.7479ZM66.7479 17.7225V18.3289H66.1415V17.7225H66.7479ZM67.3544 18.3289V18.9354H66.7479V18.3289H67.3544ZM67.3544 18.9354V19.5419H66.7479V18.9354H67.3544ZM67.3544 19.5419V20.1483H66.7479V19.5419H67.3544ZM67.3544 17.7225V18.3289H66.7479V17.7225H67.3544ZM67.3544 17.116V17.7225H66.7479V17.116H67.3544ZM67.3544 16.5096V17.116H66.7479V16.5096H67.3544ZM67.3544 15.9031V16.5096H66.7479V15.9031H67.3544ZM67.3544 15.2966V15.9031H66.7479V15.2966H67.3544ZM67.3544 14.6902V15.2966H66.7479V14.6902H67.3544ZM67.3544 14.0837V14.6902H66.7479V14.0837H67.3544ZM67.3544 13.4773V14.0837H66.7479V13.4773H67.3544ZM67.3544 12.8708V13.4773H66.7479V12.8708H67.3544ZM67.3544 12.2643V12.8708H66.7479V12.2643H67.3544ZM66.7479 13.4773V14.0837H66.1415V13.4773H66.7479ZM67.3544 11.6579V12.2643H66.7479V11.6579H67.3544ZM67.3544 11.0514V11.6579H66.7479V11.0514H67.3544ZM67.3544 10.445V11.0514H66.7479V10.445H67.3544ZM67.3544 9.8385V10.445H66.7479V9.8385H67.3544ZM66.1415 9.8385V10.445H65.535V9.8385H66.1415ZM65.535 9.8385V10.445H64.9285V9.8385H65.535ZM65.535 10.445V11.0514H64.9285V10.445H65.535ZM66.1415 10.445V11.0514H65.535V10.445H66.1415ZM66.1415 11.0514V11.6579H65.535V11.0514H66.1415ZM66.1415 11.6579V12.2643H65.535V11.6579H66.1415ZM66.1415 12.2643V12.8708H65.535V12.2643H66.1415ZM66.1415 12.8708V13.4773H65.535V12.8708H66.1415ZM66.1415 13.4773V14.0837H65.535V13.4773H66.1415ZM66.1415 14.0837V14.6902H65.535V14.0837H66.1415ZM65.535 14.6902V15.2966H64.9285V14.6902H65.535ZM65.535 15.2966V15.9031H64.9285V15.2966H65.535ZM65.535 14.0837V14.6902H64.9285V14.0837H65.535ZM65.535 13.4773V14.0837H64.9285V13.4773H65.535ZM65.535 12.8708V13.4773H64.9285V12.8708H65.535ZM65.535 12.2643V12.8708H64.9285V12.2643H65.535ZM65.535 11.6579V12.2643H64.9285V11.6579H65.535ZM65.535 11.0514V11.6579H64.9285V11.0514H65.535ZM66.1415 14.6902V15.2966H65.535V14.6902H66.1415ZM66.1415 15.2966V15.9031H65.535V15.2966H66.1415ZM66.1415 15.9031V16.5096H65.535V15.9031H66.1415ZM66.1415 16.5096V17.116H65.535V16.5096H66.1415ZM66.1415 17.116V17.7225H65.535V17.116H66.1415ZM66.1415 17.7225V18.3289H65.535V17.7225H66.1415ZM66.1415 18.3289V18.9354H65.535V18.3289H66.1415ZM66.1415 18.9354V19.5419H65.535V18.9354H66.1415ZM66.1415 19.5419V20.1483H65.535V19.5419H66.1415ZM66.7479 18.9354V19.5419H66.1415V18.9354H66.7479ZM66.7479 18.3289V18.9354H66.1415V18.3289H66.7479Z" fill="black"/>
</svg>
