<svg width="440" height="1012" viewBox="0 0 440 1012" fill="none" xmlns="http://www.w3.org/2000/svg">
<g clip-path="url(#clip0_8340_4968)">
<rect width="440" height="1012" fill="black"/>
<path opacity="0.5" d="M515.355 256.141C515.591 257.899 515.81 259.661 516.015 261.428L515.795 261.453C515.999 263.214 516.188 264.981 516.36 266.752L516.579 266.73C516.751 268.489 516.907 270.253 517.048 272.02L516.828 272.038C516.969 273.805 517.094 275.576 517.204 277.351L517.424 277.338C517.533 279.107 517.628 280.88 517.706 282.658H517.707L517.485 282.668C517.563 284.432 517.626 286.2 517.673 287.972L517.893 287.967C517.939 289.74 517.971 291.518 517.986 293.3L517.767 293.302C517.774 294.192 517.778 295.083 517.778 295.974C517.778 296.866 517.774 297.757 517.767 298.647L517.986 298.648C517.971 300.429 517.939 302.207 517.893 303.98L517.673 303.975C517.626 305.748 517.563 307.517 517.485 309.281L517.706 309.29C517.628 311.067 517.533 312.841 517.424 314.61L517.204 314.597C517.094 316.373 516.969 318.143 516.828 319.91L517.048 319.928C516.907 321.695 516.751 323.459 516.579 325.218L516.36 325.197C516.188 326.968 515.999 328.734 515.795 330.496L516.015 330.52C515.81 332.287 515.591 334.049 515.355 335.805L515.137 335.777C514.902 337.533 514.651 339.284 514.386 341.03L514.604 341.062C514.337 342.824 514.052 344.58 513.754 346.331L513.537 346.295C513.239 348.045 512.925 349.79 512.596 351.53L512.812 351.57C512.483 353.314 512.138 355.051 511.778 356.784L511.562 356.739C511.201 358.481 510.824 360.217 510.432 361.948L510.646 361.997C510.254 363.729 509.847 365.455 509.425 367.175L509.211 367.123C508.788 368.846 508.35 370.564 507.896 372.275L508.109 372.331C507.654 374.05 507.184 375.764 506.699 377.471L506.486 377.411C506.002 379.117 505.502 380.817 504.987 382.511L505.199 382.574C504.683 384.274 504.15 385.968 503.604 387.655L503.396 387.588C502.849 389.278 502.287 390.961 501.711 392.638L501.92 392.709C501.343 394.387 500.752 396.057 500.146 397.721L499.939 397.646C499.332 399.316 498.71 400.979 498.073 402.635L498.278 402.714C497.641 404.371 496.99 406.022 496.324 407.666L496.12 407.584C495.454 409.227 494.773 410.863 494.079 412.491L494.282 412.577C493.585 414.212 492.874 415.84 492.148 417.461L491.947 417.371C491.222 418.99 490.482 420.602 489.729 422.206L489.93 422.299C489.175 423.906 488.406 425.505 487.624 427.096L487.427 427C486.643 428.593 485.846 430.179 485.035 431.756L485.231 431.856C484.42 433.434 483.595 435.005 482.757 436.566L482.562 436.462C481.722 438.025 480.869 439.581 480.002 441.128L480.195 441.235C479.327 442.784 478.446 444.325 477.551 445.857L477.36 445.747C476.466 447.278 475.558 448.8 474.638 450.313L474.826 450.428C473.903 451.945 472.967 453.455 472.018 454.955L471.831 454.837C470.882 456.336 469.92 457.826 468.945 459.306L469.129 459.428C468.153 460.91 467.164 462.383 466.163 463.846L465.981 463.722C464.979 465.187 463.965 466.642 462.938 468.088L463.117 468.216C462.089 469.662 461.047 471.099 459.994 472.526L459.817 472.396C458.764 473.824 457.698 475.241 456.62 476.649L456.796 476.783C455.717 478.192 454.625 479.592 453.521 480.981L453.349 480.845C452.246 482.233 451.13 483.612 450.003 484.98L450.174 485.12C449.045 486.49 447.905 487.85 446.752 489.2L446.584 489.057C445.432 490.406 444.268 491.744 443.093 493.072L443.258 493.219C442.082 494.547 440.893 495.865 439.693 497.173L439.532 497.024C438.333 498.331 437.122 499.627 435.9 500.913L436.061 501.065C434.838 502.352 433.603 503.626 432.357 504.89L432.201 504.736C430.957 506 429.701 507.253 428.435 508.494L428.589 508.651C427.321 509.893 426.042 511.124 424.753 512.344L424.602 512.183C423.313 513.402 422.014 514.61 420.704 515.805L420.852 515.968C419.541 517.164 418.22 518.348 416.889 519.521L416.743 519.356C415.413 520.528 414.071 521.688 412.72 522.837L412.861 523.005C411.509 524.154 410.146 525.292 408.773 526.417L408.634 526.246C407.263 527.369 405.881 528.481 404.49 529.581L404.627 529.754C403.234 530.854 401.831 531.942 400.419 533.018L400.286 532.844C398.876 533.918 397.455 534.98 396.025 536.03L396.156 536.207C394.726 537.257 393.287 538.294 391.838 539.319L391.71 539.139C390.262 540.163 388.805 541.175 387.338 542.174L387.462 542.355C385.996 543.353 384.52 544.339 383.035 545.311L382.915 545.127C381.432 546.098 379.94 547.056 378.438 548.002L378.556 548.189C377.054 549.135 375.542 550.068 374.022 550.988L373.909 550.799C372.394 551.716 370.869 552.621 369.336 553.512L369.447 553.702C367.913 554.594 366.37 555.472 364.818 556.337L364.712 556.143C363.163 557.007 361.606 557.857 360.041 558.693L360.146 558.888C358.582 559.724 357.01 560.546 355.43 561.354L355.329 561.157C353.75 561.965 352.162 562.759 350.567 563.539L350.664 563.737C349.071 564.516 347.471 565.282 345.862 566.033L345.77 565.833C344.164 566.583 342.551 567.318 340.931 568.04L341.021 568.242C339.399 568.965 337.769 569.673 336.132 570.367L336.047 570.164C334.417 570.855 332.78 571.532 331.136 572.195L331.218 572.399C329.573 573.062 327.921 573.712 326.262 574.346L326.184 574.14C324.527 574.774 322.863 575.393 321.192 575.998L321.268 576.205C319.602 576.808 317.931 577.397 316.252 577.971L316.181 577.762C314.503 578.335 312.819 578.894 311.129 579.438L311.195 579.648C309.507 580.192 307.813 580.721 306.112 581.235L306.049 581.023C304.355 581.535 302.654 582.033 300.947 582.515L301.007 582.728C299.299 583.211 297.585 583.679 295.864 584.133L295.809 583.919C294.097 584.37 292.38 584.805 290.656 585.226L290.708 585.441C288.987 585.862 287.26 586.266 285.527 586.657L285.479 586.442C283.748 586.832 282.012 587.208 280.27 587.568L280.313 587.783C278.581 588.141 276.843 588.484 275.1 588.812L275.06 588.596C273.319 588.923 271.574 589.235 269.823 589.532L269.859 589.75C268.108 590.047 266.351 590.329 264.59 590.596L264.558 590.377C262.812 590.641 261.061 590.89 259.305 591.124L259.333 591.344C257.576 591.578 255.814 591.796 254.047 591.999L254.022 591.779C252.261 591.982 250.494 592.17 248.724 592.342L248.744 592.56C246.985 592.731 245.221 592.887 243.453 593.027L243.437 592.807C241.67 592.947 239.899 593.072 238.124 593.181L238.137 593.401C236.367 593.51 234.594 593.605 232.816 593.682L232.808 593.462C231.043 593.539 229.274 593.601 227.502 593.647L227.507 593.868C225.733 593.915 223.955 593.945 222.174 593.961L222.173 593.741C221.283 593.749 220.392 593.753 219.5 593.753C218.608 593.753 217.717 593.749 216.827 593.741L216.825 593.961C215.044 593.945 213.267 593.915 211.493 593.868L211.499 593.647C209.727 593.601 207.958 593.539 206.193 593.462L206.184 593.682C204.406 593.605 202.633 593.51 200.863 593.401L200.877 593.181C199.102 593.072 197.33 592.947 195.563 592.807L195.546 593.027C193.778 592.887 192.014 592.731 190.255 592.56L190.276 592.342C188.506 592.17 186.74 591.982 184.979 591.779L184.953 591.999C183.186 591.796 181.424 591.578 179.666 591.344L179.695 591.124C177.939 590.89 176.188 590.641 174.442 590.377L174.409 590.596C172.648 590.329 170.892 590.047 169.141 589.75L169.178 589.532C167.427 589.235 165.681 588.924 163.94 588.596L163.899 588.812C162.156 588.485 160.419 588.142 158.687 587.784L158.731 587.568C156.989 587.208 155.252 586.832 153.521 586.442L153.472 586.657C151.739 586.266 150.012 585.862 148.291 585.441L148.344 585.226C146.62 584.805 144.903 584.37 143.191 583.919L143.135 584.133C141.414 583.679 139.7 583.211 137.992 582.728L138.053 582.515C136.346 582.033 134.645 581.535 132.951 581.023L132.888 581.235C131.187 580.721 129.492 580.192 127.804 579.648L127.872 579.438C126.181 578.894 124.497 578.335 122.819 577.762L122.747 577.971C121.068 577.397 119.397 576.808 117.731 576.205L117.808 575.998C116.137 575.393 114.473 574.774 112.816 574.14L112.737 574.346C111.078 573.712 109.426 573.062 107.781 572.399L107.864 572.195C106.22 571.532 104.583 570.855 102.954 570.164L102.867 570.367C101.23 569.673 99.6004 568.965 97.9785 568.242L98.0693 568.04C96.4488 567.318 94.8356 566.583 93.2305 565.833L93.1367 566.033C91.5282 565.282 89.9277 564.516 88.335 563.737L88.4326 563.539C86.8376 562.759 85.2498 561.965 83.6709 561.157L83.5703 561.354H83.5693C81.9892 560.546 80.4172 559.724 78.8535 558.888H78.8545L78.959 558.693C77.3937 557.857 75.8366 557.007 74.2881 556.143L74.1807 556.337C72.6291 555.472 71.0861 554.594 69.5518 553.702L69.6641 553.512C68.1311 552.621 66.6062 551.716 65.0908 550.799L64.9766 550.988C63.4566 550.068 61.9454 549.135 60.4434 548.189L60.5615 548.002C59.0605 547.056 57.5678 546.098 56.085 545.127L55.9639 545.311C54.479 544.339 53.0034 543.353 51.5371 542.355L51.6621 542.174C50.1952 541.175 48.738 540.163 47.29 539.139L47.1611 539.319C45.712 538.294 44.2727 537.257 42.8428 536.207L42.9736 536.03C41.5438 534.98 40.1241 533.918 38.7139 532.844L38.5801 533.018C37.1676 531.942 35.7646 530.854 34.3721 529.754L34.5098 529.581C33.1185 528.481 31.7372 527.37 30.3662 526.246L30.2256 526.417C28.8524 525.291 27.4893 524.154 26.1367 523.005L26.2803 522.837C24.9287 521.688 23.5875 520.528 22.2568 519.356L22.1104 519.521C20.7785 518.348 19.4571 517.164 18.1465 515.968L18.2959 515.805C16.986 514.609 15.6868 513.402 14.3984 512.183L14.2461 512.343C12.9567 511.123 11.6776 509.893 10.4102 508.651L10.5654 508.493C9.29887 507.252 8.04313 506 6.79883 504.736L6.6416 504.89C5.39631 503.626 4.16117 502.352 2.93848 501.065L3.09961 500.913C1.87776 499.627 0.666718 498.331 -0.532227 497.024L-0.695312 497.173C-1.89481 495.865 -3.08251 494.547 -4.25879 493.218L-4.09277 493.072C-5.26804 491.744 -6.43224 490.406 -7.58398 489.057L-7.75293 489.2C-8.90548 487.85 -10.0461 486.49 -11.1748 485.12L-11.0029 484.98C-12.13 483.612 -13.2457 482.233 -14.3486 480.845L-14.5225 480.981C-15.6261 479.592 -16.7177 478.192 -17.7969 476.783L-17.6201 476.648C-18.698 475.24 -19.7642 473.823 -20.8174 472.395L-20.9961 472.526C-22.0492 471.099 -23.0901 469.662 -24.1182 468.216L-23.9375 468.088C-24.9648 466.642 -25.9795 465.187 -26.9814 463.722L-27.1641 463.846C-28.1657 462.382 -29.1548 460.909 -30.1309 459.427L-29.9453 459.305C-30.92 457.825 -31.8823 456.336 -32.8311 454.837L-33.0186 454.954C-33.9679 453.454 -34.904 451.945 -35.8271 450.428L-35.6377 450.313C-36.5582 448.8 -37.4662 447.278 -38.3604 445.747L-38.5518 445.857C-39.4466 444.325 -40.3283 442.784 -41.1963 441.235L-41.002 441.128C-41.8686 439.581 -42.7219 438.025 -43.5615 436.462L-43.7578 436.566C-44.5964 435.005 -45.4211 433.434 -46.2324 431.856L-46.0352 431.756C-46.8459 430.179 -47.6435 428.593 -48.4268 427L-48.625 427.096C-49.4073 425.505 -50.1761 423.906 -50.9307 422.299L-50.7295 422.206C-51.4824 420.602 -52.2223 418.99 -52.9473 417.371L-53.1494 417.461C-53.8749 415.84 -54.586 414.212 -55.2832 412.577L-55.0791 412.491C-55.7733 410.863 -56.4543 409.227 -57.1201 407.584L-57.3252 407.666C-57.9911 406.022 -58.642 404.371 -59.2793 402.714L-59.0732 402.635C-59.7097 400.979 -60.332 399.316 -60.9395 397.646L-61.1475 397.721C-61.7529 396.057 -62.3444 394.387 -62.9209 392.709L-62.7109 392.638C-63.2869 390.961 -63.8488 389.278 -64.3955 387.589L-64.6055 387.656C-65.1515 385.969 -65.6837 384.275 -66.2002 382.574L-65.9873 382.511C-66.5016 380.817 -67.0016 379.117 -67.4863 377.411L-67.7002 377.471C-68.1853 375.764 -68.6551 374.051 -69.1104 372.331L-68.8965 372.275C-69.3495 370.564 -69.7868 368.846 -70.21 367.123L-70.4258 367.176C-70.8483 365.455 -71.2551 363.729 -71.6475 361.997L-71.4316 361.949C-71.8237 360.219 -72.2008 358.482 -72.5625 356.74L-72.7793 356.784C-73.139 355.052 -73.484 353.314 -73.8135 351.571L-73.5957 351.53C-73.9246 349.79 -74.2387 348.045 -74.5371 346.295L-74.7549 346.331C-75.0534 344.58 -75.3377 342.824 -75.6055 341.062L-75.3857 341.03C-75.6512 339.284 -75.9018 337.533 -76.1367 335.777L-76.3564 335.806C-76.5916 334.049 -76.8113 332.287 -77.0156 330.52L-76.7949 330.496C-76.9986 328.734 -77.1876 326.968 -77.3604 325.197L-77.5801 325.218C-77.7517 323.459 -77.908 321.695 -78.0488 319.928L-77.8281 319.911C-77.9689 318.144 -78.0944 316.373 -78.2041 314.597L-78.4248 314.61C-78.5342 312.841 -78.6287 311.067 -78.707 309.29L-78.4854 309.281C-78.5631 307.517 -78.626 305.749 -78.6729 303.976L-78.8936 303.981C-78.9404 302.207 -78.9716 300.43 -78.9873 298.648L-78.7666 298.647C-78.7744 297.757 -78.7783 296.866 -78.7783 295.974C-78.7783 295.083 -78.7744 294.191 -78.7666 293.302L-78.9873 293.3C-78.9716 291.519 -78.9404 289.741 -78.8936 287.968L-78.6729 287.973C-78.626 286.201 -78.5631 284.432 -78.4854 282.668L-78.707 282.658C-78.6287 280.88 -78.5342 279.107 -78.4248 277.338L-78.2041 277.351C-78.0944 275.576 -77.9689 273.805 -77.8281 272.039L-78.0488 272.02C-77.908 270.253 -77.7517 268.489 -77.5801 266.73L-77.3604 266.752C-77.1876 264.981 -76.9986 263.214 -76.7949 261.453L-77.0156 261.428C-76.812 259.666 -76.5927 257.91 -76.3584 256.158L-76.3564 256.142L-76.1367 256.172C-75.9018 254.416 -75.6512 252.665 -75.3857 250.919L-75.6055 250.886C-75.3377 249.124 -75.0534 247.368 -74.7549 245.617L-74.5371 245.654C-74.2387 243.904 -73.9246 242.159 -73.5957 240.419L-73.8135 240.378C-73.4839 238.634 -73.1391 236.896 -72.7793 235.164L-72.5625 235.21C-72.2007 233.468 -71.8237 231.731 -71.4316 230.001L-71.6475 229.951C-71.2784 228.322 -70.8967 226.698 -70.501 225.079L-70.4258 224.773L-70.2109 224.826C-69.7878 223.103 -69.3495 221.385 -68.8965 219.674L-69.1104 219.617C-68.6551 217.898 -68.1853 216.184 -67.7002 214.477L-67.4863 214.538C-67.0016 212.832 -66.5016 211.132 -65.9873 209.438L-66.2002 209.374C-65.6838 207.674 -65.1514 205.98 -64.6055 204.293L-64.3955 204.361C-63.8488 202.671 -63.287 200.988 -62.7109 199.311L-62.9209 199.239C-62.3444 197.561 -61.7529 195.89 -61.1475 194.226L-60.9395 194.303C-60.332 192.633 -59.7097 190.97 -59.0732 189.314L-59.2793 189.234C-58.642 187.576 -57.9911 185.925 -57.3252 184.282L-57.1201 184.365C-56.4543 182.722 -55.7733 181.086 -55.0791 179.458L-55.2832 179.371C-54.586 177.735 -53.8749 176.107 -53.1494 174.487L-52.9473 174.578C-52.2223 172.959 -51.4824 171.347 -50.7295 169.743L-50.9307 169.649C-50.1761 168.042 -49.4073 166.443 -48.625 164.851L-48.4268 164.949C-47.6435 163.356 -46.8459 161.77 -46.0352 160.193L-46.2324 160.092C-45.4211 158.513 -44.5964 156.943 -43.7578 155.382L-43.5615 155.487C-42.7219 153.923 -41.8686 152.368 -41.002 150.821L-41.1963 150.713C-40.6208 149.686 -40.0394 148.662 -39.4521 147.642L-38.5518 146.091L-38.3604 146.202C-37.4662 144.671 -36.5582 143.149 -35.6377 141.636L-35.8271 141.52C-34.9039 140.002 -33.9681 138.493 -33.0186 136.993L-32.8311 137.112C-31.8822 135.613 -30.92 134.123 -29.9453 132.642L-30.1299 132.52C-29.4333 131.462 -28.7302 130.409 -28.0205 129.36L-27.1641 128.101L-26.9814 128.226C-25.9795 126.762 -24.9648 125.307 -23.9375 123.861L-24.1182 123.732C-23.09 122.286 -22.0483 120.849 -20.9951 119.422L-20.8174 119.553C-19.7642 118.125 -18.698 116.707 -17.6201 115.3L-17.7969 115.165C-16.7177 113.755 -15.6261 112.356 -14.5225 110.967L-14.3486 111.104C-13.2457 109.716 -12.13 108.337 -11.0029 106.969L-11.1748 106.828C-10.0461 105.458 -8.90549 104.098 -7.75293 102.748L-7.58398 102.891C-6.4322 101.543 -5.26808 100.205 -4.09277 98.8768L-4.25879 98.7293C-3.08254 97.4004 -1.89381 96.0828 -0.694336 94.7752L-0.532227 94.9246C0.666716 93.6176 1.87777 92.3214 3.09961 91.0359L2.93848 90.8826C4.16117 89.5963 5.39631 88.3218 6.6416 87.0574L6.79883 87.2127C8.0432 85.9492 9.2988 84.6961 10.5654 83.4549L10.4102 83.2967C11.6777 82.0545 12.9566 80.8239 14.2461 79.6043L14.3984 79.7654C15.6869 78.5468 16.9858 77.3391 18.2959 76.1434L18.1475 75.9803C19.4579 74.7843 20.7787 73.5994 22.1104 72.4266L22.2568 72.5926C23.5874 71.4207 24.9287 70.2605 26.2803 69.1121L26.1377 68.9432C27.4901 67.7941 28.8525 66.6564 30.2256 65.5311L30.3662 65.7029C31.7372 64.5794 33.1185 63.4675 34.5098 62.368L34.3721 62.1942C35.7646 61.0936 37.1676 60.0056 38.5801 58.9295L38.7139 59.1053C40.1241 58.0309 41.5448 56.9685 42.9746 55.9188L42.8428 55.741C44.2727 54.6913 45.712 53.6535 47.1611 52.6287L47.29 52.8094C48.738 51.7855 50.1952 50.7738 51.6621 49.7752L51.5371 49.5926C53.0034 48.5944 54.479 47.6091 55.9639 46.6365L56.085 46.8221C57.5678 45.8508 59.0605 44.8925 60.5615 43.9471L60.4434 43.7586C61.9454 42.8125 63.4566 41.8797 64.9766 40.9598L65.0908 41.1502C66.6062 40.2331 68.1311 39.3281 69.6641 38.4373L69.5518 38.2459C71.0861 37.3543 72.6291 36.4761 74.1807 35.6111L74.2881 35.8055C75.8366 34.9423 77.3937 34.092 78.959 33.2557L78.8545 33.0604L78.8535 33.0594C80.4172 32.2239 81.9892 31.4019 83.5693 30.5936L83.5703 30.5945L83.6709 30.7918C85.2498 29.9842 86.8376 29.1902 88.4326 28.41L88.335 28.2108C89.9277 27.4317 91.5282 26.6662 93.1367 25.9149L93.2305 26.116C94.8355 25.3662 96.4488 24.6309 98.0693 23.909L97.9785 23.7059C99.6004 22.9833 101.23 22.2752 102.867 21.5809L102.953 21.785C104.583 21.0938 106.22 20.4166 107.864 19.7537L107.781 19.5486C109.426 18.8855 111.078 18.236 112.737 17.6014L112.816 17.8084C114.473 17.1748 116.137 16.5558 117.808 15.951L117.731 15.743C119.397 15.1402 121.068 14.5513 122.747 13.9774L122.819 14.1873C124.497 13.6139 126.181 13.0548 127.871 12.5106L127.804 12.2996C129.492 11.7563 131.186 11.2267 132.887 10.7127L132.951 10.9256C134.645 10.4136 136.346 9.91596 138.053 9.43341L137.992 9.21954C139.7 8.73662 141.414 8.26842 143.135 7.81525L143.191 8.03009C144.903 7.57926 146.62 7.14355 148.344 6.72247L148.291 6.50665C150.012 6.08614 151.739 5.6814 153.472 5.29083L153.521 5.50665C155.252 5.11643 156.988 4.7407 158.73 4.38068L158.686 4.16486C160.418 3.80685 162.156 3.46344 163.899 3.13556L163.94 3.35333C165.681 3.02606 167.426 2.71377 169.177 2.41681L169.14 2.19806C170.891 1.90098 172.648 1.61883 174.409 1.35236L174.442 1.57208C176.188 1.30796 177.939 1.05877 179.695 0.825012L179.666 0.604309C181.423 0.370369 183.185 0.152313 184.952 -0.0509644L184.978 0.169739C186.739 -0.0329311 188.506 -0.220868 190.276 -0.392761L190.255 -0.612488C192.014 -0.78327 193.778 -0.939129 195.546 -1.07928L195.563 -0.858582C197.33 -0.998616 199.101 -1.12343 200.876 -1.2326L200.862 -1.45331C202.632 -1.56213 204.405 -1.65665 206.183 -1.73456L206.192 -1.51288C207.957 -1.59021 209.726 -1.65183 211.498 -1.69843L211.492 -1.9201C213.266 -1.96674 215.044 -1.99727 216.825 -2.01288L216.827 -1.79218C217.717 -1.79997 218.608 -1.80389 219.5 -1.80389C220.392 -1.80389 221.283 -1.79997 222.173 -1.79218L222.174 -2.01288C223.955 -1.99728 225.732 -1.96672 227.506 -1.9201L227.501 -1.69843C229.273 -1.65183 231.042 -1.59021 232.807 -1.51288L232.815 -1.73456C234.593 -1.65666 236.366 -1.56211 238.136 -1.45331L238.123 -1.2326C239.898 -1.12343 241.67 -0.99863 243.437 -0.858582L243.453 -1.07928C245.221 -0.939135 246.985 -0.783264 248.744 -0.612488L248.724 -0.392761C250.494 -0.220884 252.26 -0.0329099 254.021 0.169739L254.046 -0.0509644C255.813 0.152339 257.575 0.370333 259.333 0.604309L259.305 0.825012C261.061 1.05877 262.812 1.30796 264.558 1.57208L264.59 1.35236C266.351 1.61878 268.107 1.90105 269.858 2.19806L269.822 2.41681C271.573 2.71379 273.319 3.02505 275.06 3.35236L275.1 3.13556C276.843 3.46337 278.58 3.80596 280.312 4.16388L280.269 4.38068C282.011 4.74073 283.748 5.1164 285.479 5.50665L285.527 5.29083C287.26 5.6814 288.987 6.08615 290.708 6.50665L290.656 6.72247C292.38 7.14355 294.097 7.57926 295.809 8.03009L295.864 7.81525C297.585 8.26841 299.299 8.73663 301.007 9.21954L300.947 9.43341C302.654 9.91595 304.355 10.4136 306.049 10.9256L306.111 10.7127C307.813 11.2268 309.507 11.7562 311.195 12.2996L311.128 12.5106C312.819 13.0549 314.503 13.6139 316.181 14.1873L316.252 13.9774C317.931 14.5513 319.602 15.1402 321.268 15.743L321.192 15.951C322.863 16.5558 324.527 17.1748 326.184 17.8084L326.262 17.6014C327.921 18.236 329.573 18.8855 331.218 19.5486L331.136 19.7537C332.78 20.4166 334.417 21.0938 336.046 21.785L336.132 21.5809C337.769 22.2752 339.399 22.9833 341.021 23.7059L340.931 23.909C342.551 24.631 344.164 25.3662 345.77 26.116L345.862 25.9149C347.471 26.6662 349.071 27.4317 350.664 28.2108L350.567 28.41C352.162 29.1902 353.75 29.9842 355.329 30.7918L355.43 30.5945V30.5936C357.01 31.4019 358.582 32.2239 360.146 33.0594V33.0604L360.041 33.2557C361.606 34.092 363.163 34.9423 364.712 35.8055L364.818 35.6111C366.37 36.4761 367.913 37.3543 369.447 38.2459L369.336 38.4373C370.869 39.3281 372.394 40.2331 373.909 41.1502L374.022 40.9598C375.542 41.8797 377.054 42.8126 378.556 43.7586L378.438 43.9471C379.94 44.8925 381.432 45.8508 382.915 46.8221L383.035 46.6365C384.52 47.6091 385.996 48.5944 387.462 49.5926L387.338 49.7752C388.805 50.7738 390.262 51.7855 391.71 52.8094L391.838 52.6287C393.287 53.6535 394.726 54.6913 396.156 55.741L396.026 55.9188C397.456 56.9684 398.876 58.0309 400.286 59.1053L400.419 58.9295C401.831 60.0056 403.234 61.0936 404.627 62.1942L404.49 62.368C405.882 63.4675 407.263 64.5793 408.634 65.7029L408.773 65.5311C410.147 66.6565 411.51 67.7939 412.862 68.9432L412.72 69.1121C414.071 70.2605 415.413 71.4207 416.743 72.5926L416.889 72.4266C418.221 73.5996 419.542 74.7841 420.853 75.9803L420.704 76.1443C422.014 77.3399 423.313 78.547 424.602 79.7654L424.753 79.6053C426.042 80.8247 427.321 82.0547 428.589 83.2967L428.435 83.4559C429.701 84.697 430.957 85.9493 432.201 87.2127L432.357 87.0574C433.603 88.3218 434.838 89.5963 436.061 90.8826L435.9 91.0359C437.122 92.3214 438.333 93.6176 439.532 94.9246L439.694 94.7752C440.894 96.0829 442.082 97.4014 443.258 98.7303L443.093 98.8768C444.268 100.205 445.432 101.543 446.584 102.891L446.752 102.748C447.905 104.098 449.045 105.458 450.174 106.828L450.003 106.969C451.13 108.337 452.246 109.716 453.349 111.104L453.521 110.967C454.625 112.356 455.717 113.755 456.796 115.165L456.62 115.301C457.698 116.708 458.764 118.126 459.817 119.554L459.995 119.422C461.048 120.849 462.089 122.286 463.117 123.732L462.938 123.861C463.965 125.307 464.979 126.762 465.981 128.226L466.163 128.101C467.165 129.565 468.154 131.039 469.13 132.521L468.945 132.643C469.92 134.124 470.882 135.613 471.831 137.112L472.018 136.994C472.967 138.494 473.903 140.003 474.826 141.52H474.827L474.638 141.636C475.558 143.149 476.466 144.671 477.36 146.202L477.551 146.091C478.446 147.623 479.327 149.163 480.195 150.713L480.002 150.821C480.869 152.368 481.722 153.923 482.562 155.487L482.757 155.382C483.595 156.943 484.42 158.513 485.231 160.092H485.232L485.035 160.193C485.846 161.77 486.643 163.356 487.427 164.949L487.624 164.851C488.406 166.443 489.175 168.042 489.93 169.649L489.729 169.743C490.482 171.347 491.222 172.959 491.947 174.578L492.148 174.487C492.874 176.107 493.585 177.735 494.282 179.371L494.079 179.458C494.773 181.086 495.454 182.722 496.12 184.365L496.324 184.282C496.99 185.925 497.641 187.576 498.278 189.234L498.073 189.314C498.71 190.97 499.332 192.633 499.939 194.303L500.146 194.226C500.752 195.89 501.343 197.561 501.92 199.239L501.711 199.311C502.287 200.988 502.849 202.671 503.396 204.36L503.604 204.292C504.151 205.979 504.683 207.673 505.199 209.374L504.987 209.438C505.502 211.132 506.002 212.832 506.486 214.538L506.699 214.476C507.184 216.184 507.654 217.897 508.109 219.617H508.11L507.896 219.674C508.35 221.385 508.787 223.103 509.21 224.826L509.425 224.772C509.847 226.493 510.254 228.219 510.646 229.951L510.432 230C510.824 231.73 511.201 233.467 511.562 235.209L511.778 235.164C512.138 236.896 512.483 238.634 512.812 240.377L512.596 240.419C512.925 242.159 513.239 243.904 513.537 245.654L513.754 245.617C514.052 247.368 514.337 249.124 514.604 250.886L514.386 250.919C514.651 252.665 514.902 254.416 515.137 256.172L515.355 256.141Z" stroke="url(#paint0_linear_8340_4968)" stroke-width="0.444021" stroke-dasharray="5.33 5.33"/>
<path d="M219.5 95.0652C330.646 95.0652 420.909 185.598 420.909 297.474C420.909 409.351 330.646 499.884 219.5 499.884C108.354 499.884 18.0908 409.351 18.0908 297.474C18.0908 185.598 108.354 95.0652 219.5 95.0652Z" stroke="url(#paint1_linear_8340_4968)" stroke-width="42.182"/>
<circle opacity="0.5" cx="219" cy="296.974" r="184.778" stroke="white" stroke-width="0.444021" stroke-dasharray="5.33 5.33"/>
<path opacity="0.5" d="M436.065 245.064C436.481 246.816 436.877 248.576 437.251 250.344V250.345L437.034 250.39C437.405 252.146 437.755 253.91 438.084 255.681L438.303 255.641V255.64C438.631 257.411 438.938 259.189 439.224 260.973H439.225L439.006 261.009C439.29 262.781 439.552 264.56 439.793 266.346L440.012 266.316C440.253 268.1 440.472 269.89 440.67 271.686L440.451 271.711C440.647 273.494 440.822 275.285 440.976 277.081L441.195 277.062C441.348 278.855 441.479 280.653 441.589 282.458L441.369 282.471C441.478 284.262 441.565 286.06 441.631 287.862L441.851 287.853C441.916 289.65 441.961 291.451 441.983 293.259V293.26L441.762 293.263C441.773 294.165 441.778 295.069 441.778 295.974C441.778 296.88 441.773 297.784 441.762 298.686L441.983 298.689C441.961 300.496 441.916 302.298 441.851 304.095L441.631 304.087C441.565 305.889 441.478 307.687 441.369 309.478L441.589 309.49C441.479 311.295 441.348 313.093 441.195 314.886L440.976 314.868C440.822 316.664 440.647 318.454 440.451 320.238L440.67 320.262C440.472 322.058 440.253 323.848 440.012 325.632L439.793 325.603C439.552 327.389 439.29 329.168 439.006 330.94L439.224 330.974C438.938 332.759 438.631 334.537 438.303 336.307L438.084 336.266C437.755 338.038 437.405 339.802 437.034 341.558L437.251 341.604C436.877 343.372 436.481 345.132 436.065 346.884L435.851 346.833C435.434 348.585 434.997 350.33 434.539 352.066L434.753 352.122C434.292 353.869 433.81 355.607 433.308 357.337L433.096 357.275C432.593 359.005 432.07 360.726 431.526 362.438L431.736 362.505C431.19 364.226 430.623 365.938 430.035 367.64L429.826 367.569C429.239 369.272 428.63 370.965 428.002 372.648L428.209 372.724C427.578 374.416 426.927 376.097 426.256 377.768L426.051 377.687C425.379 379.359 424.688 381.02 423.977 382.671L424.181 382.758C423.467 384.415 422.732 386.062 421.979 387.698L421.778 387.606C421.025 389.242 420.252 390.867 419.46 392.481L419.659 392.578C418.864 394.198 418.05 395.807 417.217 397.404L417.021 397.302C416.188 398.898 415.336 400.484 414.465 402.057L414.658 402.164C413.785 403.742 412.892 405.309 411.981 406.863L411.791 406.752C410.88 408.305 409.951 409.847 409.004 411.376L409.191 411.492C408.242 413.025 407.274 414.545 406.288 416.053L406.103 415.932C405.117 417.439 404.113 418.934 403.092 420.415L403.273 420.54C402.25 422.024 401.208 423.495 400.148 424.953L399.971 424.823C398.912 426.28 397.836 427.724 396.743 429.153L396.918 429.287C395.823 430.719 394.712 432.137 393.583 433.541L393.41 433.403C392.282 434.806 391.137 436.196 389.976 437.57L390.144 437.713C388.98 439.089 387.801 440.452 386.604 441.8L386.438 441.652C385.243 442.998 384.032 444.33 382.805 445.646L382.966 445.797C381.737 447.115 380.491 448.418 379.23 449.706L379.073 449.551C377.814 450.837 376.539 452.108 375.248 453.363L375.401 453.521C374.11 454.778 372.803 456.018 371.48 457.243L371.33 457.082C370.01 458.305 368.674 459.512 367.324 460.703L367.47 460.868C366.118 462.06 364.752 463.235 363.371 464.394L363.229 464.225C361.851 465.382 360.459 466.523 359.052 467.646L359.189 467.818C357.782 468.943 356.36 470.05 354.924 471.14L354.79 470.966C353.357 472.054 351.91 473.125 350.45 474.179L350.579 474.357C349.118 475.411 347.644 476.448 346.156 477.467L346.031 477.286C344.547 478.303 343.05 479.301 341.54 480.282L341.66 480.468C340.149 481.449 338.626 482.413 337.09 483.358L336.975 483.17C335.443 484.112 333.898 485.037 332.342 485.943L332.452 486.134C330.895 487.04 329.326 487.928 327.745 488.797L327.64 488.603C326.064 489.47 324.476 490.317 322.877 491.145L322.979 491.342C321.379 492.17 319.768 492.98 318.146 493.77L318.05 493.572C316.434 494.36 314.807 495.128 313.169 495.877L313.26 496.078C311.621 496.827 309.972 497.556 308.312 498.266L308.227 498.063C306.575 498.77 304.912 499.457 303.239 500.124L303.32 500.33C301.647 500.997 299.964 501.644 298.271 502.271L298.194 502.065C296.51 502.689 294.816 503.294 293.112 503.878L293.183 504.087C291.479 504.671 289.765 505.235 288.043 505.778L287.978 505.567C286.265 506.107 284.543 506.627 282.812 507.127L282.873 507.339C281.142 507.838 279.403 508.316 277.655 508.774L277.601 508.561C275.864 509.016 274.118 509.451 272.365 509.864L272.415 510.079C270.662 510.492 268.902 510.885 267.133 511.257L267.089 511.04C265.332 511.409 263.568 511.757 261.796 512.084L261.835 512.301C260.065 512.627 258.287 512.933 256.502 513.217L256.468 512.999C254.696 513.281 252.916 513.541 251.13 513.781L251.16 514.001C249.376 514.24 247.585 514.457 245.787 514.653L245.765 514.434C243.981 514.629 242.19 514.803 240.394 514.955L240.412 515.176C238.62 515.328 236.821 515.457 235.017 515.566L235.004 515.346C233.213 515.455 231.416 515.541 229.613 515.606L229.62 515.827C227.824 515.892 226.022 515.936 224.215 515.958L224.212 515.736C223.309 515.747 222.405 515.753 221.5 515.753C220.595 515.753 219.691 515.747 218.788 515.736L218.785 515.958H218.784C216.977 515.936 215.175 515.892 213.379 515.827L213.387 515.606C211.584 515.541 209.787 515.455 207.996 515.346L207.983 515.566C206.179 515.457 204.38 515.328 202.587 515.176L202.606 514.955C200.81 514.803 199.02 514.629 197.236 514.434L197.212 514.653C195.414 514.457 193.623 514.24 191.839 514.001H191.84L191.87 513.781C190.084 513.541 188.304 513.281 186.532 512.999L186.497 513.217C184.712 512.933 182.934 512.627 181.164 512.301L181.204 512.084C179.432 511.757 177.668 511.409 175.911 511.04L175.866 511.257C174.098 510.885 172.337 510.492 170.584 510.079L170.635 509.864C168.882 509.451 167.136 509.016 165.399 508.561L165.344 508.774C163.596 508.316 161.857 507.838 160.126 507.339L160.188 507.127C158.457 506.627 156.735 506.107 155.022 505.567L154.956 505.778C153.234 505.235 151.52 504.671 149.816 504.087L149.888 503.878C148.184 503.294 146.49 502.689 144.806 502.064L144.729 502.271C143.035 501.644 141.352 500.997 139.679 500.33L139.761 500.124C138.088 499.457 136.425 498.77 134.773 498.063L134.686 498.265C133.026 497.556 131.377 496.827 129.739 496.078L129.831 495.877C128.193 495.128 126.566 494.36 124.95 493.572L124.854 493.77C123.231 492.98 121.62 492.17 120.021 491.342L120.123 491.145C118.524 490.317 116.936 489.47 115.36 488.603L115.254 488.797C113.673 487.928 112.104 487.04 110.547 486.134L110.658 485.943C109.102 485.037 107.557 484.112 106.025 483.17L105.909 483.358C104.373 482.413 102.85 481.449 101.339 480.468L101.46 480.282C99.9501 479.301 98.4527 478.303 96.9688 477.286L96.8428 477.467C95.3553 476.448 93.8808 475.411 92.4199 474.357L92.5498 474.179C91.0896 473.125 89.6429 472.054 88.21 470.966L88.0752 471.14C86.6394 470.05 85.2174 468.943 83.8096 467.818L83.9482 467.646C82.5414 466.523 81.1488 465.382 79.7705 464.225L79.6279 464.394C78.2472 463.235 76.8808 462.06 75.5293 460.868L75.6758 460.703C74.3256 459.512 72.9903 458.305 71.6699 457.082L71.5186 457.243C70.1964 456.018 68.8894 454.778 67.5977 453.521L67.752 453.363C66.4615 452.108 65.1862 450.837 63.9268 449.551L63.7686 449.706C62.5076 448.418 61.2624 447.115 60.0332 445.797L60.1953 445.646C58.9678 444.33 57.7567 442.998 56.5615 441.652L56.3945 441.8C55.1982 440.452 54.0189 439.089 52.8555 437.713L53.0244 437.57C51.8627 436.196 50.7181 434.806 49.5898 433.403L49.416 433.541C48.2872 432.137 47.1758 430.719 46.0811 429.287L46.2568 429.153C45.1638 427.724 44.0877 426.28 43.0293 424.823L42.8506 424.953C41.7915 423.495 40.7494 422.024 39.7256 420.54L39.9082 420.415C38.8867 418.934 37.8832 417.439 36.8975 415.932L36.7109 416.053C35.7249 414.545 34.7573 413.025 33.8076 411.492L33.9961 411.376C33.0487 409.847 32.1195 408.305 31.209 406.752L31.0176 406.863C30.1066 405.309 29.2143 403.742 28.3408 402.164L28.5352 402.057C27.6643 400.484 26.8125 398.898 25.9795 397.302L25.7822 397.404C24.9489 395.807 24.1347 394.198 23.3398 392.578L23.54 392.481C22.7481 390.867 21.9748 389.242 21.2217 387.606L21.0205 387.698C20.2672 386.062 19.5323 384.415 18.8184 382.758L19.0234 382.67C18.3125 381.019 17.6205 379.358 16.9492 377.687L16.7432 377.768C16.0719 376.097 15.4211 374.416 14.79 372.724L14.998 372.647C14.37 370.964 13.7615 369.271 13.1738 367.568L12.9639 367.64C12.3762 365.938 11.8093 364.226 11.2627 362.505L11.4736 362.438C10.9299 360.726 10.4068 359.005 9.9043 357.275L9.69141 357.337C9.18892 355.607 8.70689 353.869 8.24609 352.122L8.46094 352.066C8.00299 350.33 7.56557 348.585 7.14941 346.833L6.93359 346.884C6.51762 345.132 6.12175 343.372 5.74805 341.604L5.96582 341.558C5.5946 339.802 5.24494 338.039 4.91602 336.267L4.69629 336.307C4.36755 334.537 4.06137 332.759 3.77539 330.974L3.99414 330.94C3.71022 329.168 3.44823 327.389 3.20703 325.603L2.9873 325.632C2.74645 323.848 2.52686 322.058 2.3291 320.262L2.54883 320.238C2.3525 318.454 2.1777 316.664 2.02441 314.868L1.80371 314.886C1.65076 313.093 1.51977 311.295 1.41016 309.49L1.63086 309.478C1.52204 307.687 1.4347 305.889 1.36914 304.087L1.14844 304.095C1.08311 302.298 1.03753 300.496 1.01562 298.689L1.23828 298.686C1.22734 297.784 1.22168 296.88 1.22168 295.974C1.22168 295.069 1.22734 294.165 1.23828 293.263L1.0166 293.26L1.01562 293.259C1.03754 291.452 1.0831 289.65 1.14844 287.853L1.36914 287.862C1.4347 286.06 1.52204 284.262 1.63086 282.471L1.41016 282.458C1.51977 280.653 1.65075 278.855 1.80371 277.062L2.02441 277.081C2.1777 275.285 2.3525 273.494 2.54883 271.711L2.3291 271.686C2.52686 269.89 2.74644 268.1 2.9873 266.316L3.20703 266.346C3.44823 264.56 3.71022 262.781 3.99414 261.009L3.77539 260.973C4.06138 259.189 4.36754 257.411 4.69629 255.64L4.69727 255.641L4.91602 255.682C5.24497 253.911 5.59456 252.147 5.96582 250.39L5.74902 250.345L5.74805 250.344C6.12176 248.576 6.51762 246.816 6.93359 245.064L7.14941 245.116C7.56557 243.363 8.00299 241.619 8.46094 239.883L8.24609 239.826C8.70689 238.079 9.18891 236.341 9.69141 234.611L9.9043 234.674C10.4068 232.944 10.9299 231.222 11.4736 229.511L11.2627 229.443C11.8093 227.722 12.3762 226.01 12.9639 224.307L13.1738 224.38C13.7615 222.677 14.37 220.984 14.998 219.301L14.79 219.223C15.4211 217.532 16.0719 215.851 16.7432 214.18L16.9492 214.262C17.6205 212.59 18.3125 210.929 19.0234 209.278L18.8193 209.191L18.8184 209.19C19.36 207.933 19.9142 206.682 20.4785 205.436L21.0205 204.25L21.2217 204.343C21.9748 202.707 22.7481 201.082 23.54 199.468L23.3398 199.37C24.1347 197.75 24.9489 196.141 25.7822 194.544L25.9795 194.647C26.8125 193.051 27.6643 191.465 28.5352 189.891L28.3408 189.784C29.2143 188.206 30.1066 186.639 31.0176 185.085L31.209 185.197C32.1195 183.643 33.0487 182.102 33.9961 180.573L33.8076 180.456C34.7573 178.923 35.7249 177.403 36.7109 175.895L36.8975 176.016C37.8832 174.509 38.8867 173.015 39.9082 171.534L39.7256 171.408C40.7494 169.924 41.7915 168.453 42.8506 166.995L43.0293 167.126C44.0877 165.669 45.1638 164.225 46.2568 162.796L46.0811 162.661C47.1758 161.229 48.2872 159.811 49.416 158.407L49.5898 158.546C50.7181 157.143 51.8627 155.753 53.0244 154.379L52.8555 154.235C54.0189 152.859 55.1981 151.496 56.3945 150.148L56.3955 150.149L56.5615 150.297C57.7567 148.951 58.9678 147.619 60.1953 146.303L60.0332 146.151C61.2478 144.849 62.478 143.561 63.7236 142.288L63.7686 142.242L63.9268 142.398C65.1862 141.112 66.4615 139.841 67.752 138.586L67.5977 138.427C68.8894 137.17 70.1964 135.93 71.5186 134.705L71.6699 134.867C72.9903 133.644 74.3256 132.437 75.6758 131.246L75.5293 131.08C76.8808 129.888 78.2472 128.713 79.6279 127.554L79.7705 127.723C81.1488 126.567 82.5414 125.426 83.9482 124.303L83.8096 124.13C85.2174 123.005 86.6394 121.898 88.0752 120.807L88.21 120.983C89.6429 119.895 91.0896 118.824 92.5498 117.77L92.4199 117.591C93.8808 116.537 95.3553 115.5 96.8428 114.481L96.9688 114.663C98.4527 113.646 99.9501 112.648 101.46 111.667L101.339 111.48C102.85 110.499 104.373 109.535 105.909 108.59L106.025 108.779C107.557 107.836 109.102 106.912 110.658 106.006L110.547 105.814C112.095 104.913 113.656 104.03 115.228 103.166L115.254 103.151L115.36 103.346C116.936 102.479 118.524 101.632 120.123 100.804L120.021 100.606C121.62 99.7775 123.231 98.9681 124.854 98.1776L124.95 98.3768C126.566 97.5893 128.193 96.8209 129.831 96.0721L129.739 95.8699C131.378 95.1208 133.027 94.3914 134.687 93.6815L134.773 93.8856C136.425 93.1789 138.088 92.4923 139.761 91.825L139.679 91.618C141.352 90.9505 143.035 90.304 144.729 89.6766L144.806 89.8836C146.49 89.2594 148.184 88.6551 149.888 88.0711L149.816 87.8611C151.52 87.277 153.234 86.7131 154.956 86.1697L155.022 86.3817C156.735 85.8414 158.457 85.3214 160.188 84.8221L160.126 84.6092C161.857 84.1098 163.596 83.6315 165.344 83.1736L165.399 83.3875C167.136 82.9325 168.882 82.4983 170.635 82.0848L170.584 81.869C172.337 81.4556 174.098 81.0626 175.866 80.6912L175.911 80.909C177.668 80.5402 179.432 80.1918 181.204 79.8651L181.164 79.6473C182.934 79.3208 184.712 79.0153 186.497 78.7313L186.532 78.95C188.304 78.668 190.084 78.4074 191.87 78.1678L191.84 77.9481L191.839 77.9471C193.623 77.7077 195.414 77.4912 197.212 77.2947L197.235 77.5145C199.019 77.3195 200.81 77.1462 202.606 76.994L202.587 76.7723C204.379 76.6204 206.178 76.4905 207.982 76.3817L207.996 76.6024C209.787 76.4943 211.584 76.4077 213.387 76.3426L213.379 76.1209C215.175 76.056 216.977 76.0118 218.784 75.9901L218.785 75.991L218.788 76.2127C219.691 76.2018 220.595 76.1961 221.5 76.1961C222.405 76.1961 223.309 76.2018 224.212 76.2127L224.215 75.991V75.9901C226.022 76.0118 227.824 76.056 229.62 76.1209L229.613 76.3426C231.416 76.4077 233.213 76.4943 235.004 76.6024L235.016 76.3817C236.82 76.4905 238.619 76.6203 240.412 76.7723L240.394 76.994C242.19 77.1462 243.98 77.3195 245.764 77.5145L245.787 77.2947C247.585 77.4912 249.376 77.7077 251.16 77.9471V77.9481L251.13 78.1678C252.916 78.4074 254.696 78.668 256.468 78.95L256.502 78.7313C258.287 79.0153 260.065 79.3208 261.835 79.6473L261.796 79.8651C263.568 80.1918 265.332 80.5402 267.089 80.909L267.133 80.6912C268.901 81.0626 270.662 81.4556 272.415 81.869L272.365 82.0848C274.118 82.4983 275.864 82.9325 277.601 83.3875L277.655 83.1736C279.403 83.6315 281.142 84.1099 282.873 84.6092L282.812 84.8221C284.543 85.3214 286.265 85.8414 287.978 86.3817L288.043 86.1697C289.765 86.7131 291.479 87.277 293.183 87.8611L293.112 88.0711C294.816 88.6551 296.51 89.2603 298.194 89.8846L298.271 89.6766C299.964 90.304 301.647 90.9505 303.32 91.618L303.239 91.825C304.912 92.4923 306.575 93.1789 308.227 93.8856L308.313 93.6824C309.973 94.3922 311.622 95.121 313.26 95.8699L313.169 96.0721C314.807 96.8209 316.434 97.5893 318.05 98.3768L318.146 98.1776C319.768 98.9681 321.379 99.7775 322.979 100.606L322.877 100.804C324.476 101.632 326.064 102.479 327.64 103.346L327.745 103.151C329.326 104.02 330.895 104.908 332.452 105.814L332.342 106.006C333.898 106.912 335.443 107.836 336.975 108.779L337.09 108.59C338.626 109.535 340.149 110.499 341.66 111.48L341.54 111.667C343.05 112.648 344.547 113.646 346.031 114.663L346.156 114.481C347.644 115.5 349.118 116.537 350.579 117.591L350.45 117.77C351.91 118.824 353.357 119.895 354.79 120.983L354.924 120.807C356.36 121.898 357.782 123.005 359.189 124.13L359.052 124.303C360.459 125.426 361.851 126.567 363.229 127.723L363.371 127.554C364.752 128.713 366.118 129.888 367.47 131.08H367.471L367.324 131.246C368.674 132.437 370.01 133.644 371.33 134.867L371.48 134.705C372.803 135.93 374.11 137.17 375.401 138.427H375.402L375.248 138.586C376.539 139.841 377.814 141.112 379.073 142.398L379.23 142.242C380.491 143.53 381.737 144.833 382.966 146.151H382.967L382.805 146.303C384.032 147.619 385.243 148.951 386.438 150.297L386.604 150.149V150.148C387.801 151.496 388.98 152.859 390.144 154.235L389.976 154.379C391.137 155.753 392.282 157.143 393.41 158.546L393.583 158.407C394.712 159.811 395.823 161.229 396.918 162.661L396.743 162.796C397.836 164.225 398.912 165.669 399.971 167.126L400.148 166.995C401.208 168.453 402.25 169.924 403.273 171.408L403.092 171.534C404.113 173.015 405.117 174.509 406.103 176.016L406.288 175.895C407.274 177.403 408.242 178.923 409.191 180.456L409.004 180.573C409.951 182.102 410.88 183.643 411.791 185.197L411.981 185.085C412.892 186.639 413.785 188.206 414.658 189.784H414.659L414.465 189.891C415.336 191.465 416.188 193.051 417.021 194.647L417.217 194.544C418.05 196.141 418.864 197.75 419.659 199.37L419.46 199.468C420.252 201.082 421.025 202.707 421.778 204.343L421.979 204.25C422.732 205.886 423.467 207.533 424.181 209.19V209.191L423.977 209.279C424.687 210.93 425.38 212.59 426.051 214.262L426.256 214.18C426.927 215.851 427.578 217.532 428.209 219.223H428.21L428.002 219.302C428.63 220.985 429.239 222.678 429.826 224.381L430.035 224.307C430.623 226.01 431.19 227.722 431.736 229.443H431.737L431.526 229.511C432.07 231.222 432.593 232.944 433.096 234.674L433.308 234.611C433.81 236.341 434.292 238.079 434.753 239.826L434.539 239.883C434.997 241.619 435.434 243.363 435.851 245.116L436.065 245.064Z" stroke="url(#paint2_linear_8340_4968)" stroke-width="0.444021" stroke-dasharray="5.33 5.33"/>
<g style="mix-blend-mode:plus-lighter" filter="url(#filter0_f_8340_4968)">
<path d="M215.206 730L-54.3818 933.362H489.1L215.206 730Z" fill="url(#paint3_linear_8340_4968)"/>
</g>
<g style="mix-blend-mode:plus-lighter" filter="url(#filter1_f_8340_4968)">
<path d="M214.806 879.635L-105 933.362H539.719L214.806 879.635Z" fill="#514BFF"/>
</g>
<g style="mix-blend-mode:plus-lighter" filter="url(#filter2_f_8340_4968)">
<path d="M215.931 879.635L37.0864 933.362H397.632L215.931 879.635Z" fill="#514BFF"/>
</g>
<g style="mix-blend-mode:plus-lighter" filter="url(#filter3_f_8340_4968)">
<path d="M216.054 911.161L52.627 933.362H382.091L216.054 911.161Z" fill="#BBCEE2"/>
</g>
<g style="mix-blend-mode:plus-lighter" filter="url(#filter4_f_8340_4968)">
<path d="M215.966 932.03L41.5269 944.018H393.192L215.966 932.03Z" fill="white"/>
</g>
<g filter="url(#filter5_f_8340_4968)">
<ellipse cx="202.03" cy="66.1592" rx="202.03" ry="66.1592" transform="matrix(1 0 0 -1 13.6655 1011.51)" fill="white" fill-opacity="0.2"/>
</g>
</g>
<defs>
<filter id="filter0_f_8340_4968" x="-187.588" y="596.793" width="809.895" height="469.775" filterUnits="userSpaceOnUse" color-interpolation-filters="sRGB">
<feFlood flood-opacity="0" result="BackgroundImageFix"/>
<feBlend mode="normal" in="SourceGraphic" in2="BackgroundImageFix" result="shape"/>
<feGaussianBlur stdDeviation="66.6032" result="effect1_foregroundBlur_8340_4968"/>
</filter>
<filter id="filter1_f_8340_4968" x="-238.206" y="746.429" width="911.132" height="320.139" filterUnits="userSpaceOnUse" color-interpolation-filters="sRGB">
<feFlood flood-opacity="0" result="BackgroundImageFix"/>
<feBlend mode="normal" in="SourceGraphic" in2="BackgroundImageFix" result="shape"/>
<feGaussianBlur stdDeviation="66.6032" result="effect1_foregroundBlur_8340_4968"/>
</filter>
<filter id="filter2_f_8340_4968" x="-96.12" y="746.429" width="626.958" height="320.139" filterUnits="userSpaceOnUse" color-interpolation-filters="sRGB">
<feFlood flood-opacity="0" result="BackgroundImageFix"/>
<feBlend mode="normal" in="SourceGraphic" in2="BackgroundImageFix" result="shape"/>
<feGaussianBlur stdDeviation="66.6032" result="effect1_foregroundBlur_8340_4968"/>
</filter>
<filter id="filter3_f_8340_4968" x="-36.1773" y="822.356" width="507.072" height="199.81" filterUnits="userSpaceOnUse" color-interpolation-filters="sRGB">
<feFlood flood-opacity="0" result="BackgroundImageFix"/>
<feBlend mode="normal" in="SourceGraphic" in2="BackgroundImageFix" result="shape"/>
<feGaussianBlur stdDeviation="44.4021" result="effect1_foregroundBlur_8340_4968"/>
</filter>
<filter id="filter4_f_8340_4968" x="32.6464" y="923.149" width="369.426" height="29.7494" filterUnits="userSpaceOnUse" color-interpolation-filters="sRGB">
<feFlood flood-opacity="0" result="BackgroundImageFix"/>
<feBlend mode="normal" in="SourceGraphic" in2="BackgroundImageFix" result="shape"/>
<feGaussianBlur stdDeviation="4.44021" result="effect1_foregroundBlur_8340_4968"/>
</filter>
<filter id="filter5_f_8340_4968" x="-430.356" y="435.17" width="1292.1" height="1020.36" filterUnits="userSpaceOnUse" color-interpolation-filters="sRGB">
<feFlood flood-opacity="0" result="BackgroundImageFix"/>
<feBlend mode="normal" in="SourceGraphic" in2="BackgroundImageFix" result="shape"/>
<feGaussianBlur stdDeviation="222.011" result="effect1_foregroundBlur_8340_4968"/>
</filter>
<linearGradient id="paint0_linear_8340_4968" x1="430.929" y1="108.572" x2="-94.321" y2="320.252" gradientUnits="userSpaceOnUse">
<stop stop-color="white"/>
<stop offset="1" stop-color="#999999" stop-opacity="0.56"/>
</linearGradient>
<linearGradient id="paint1_linear_8340_4968" x1="408.659" y1="383.594" x2="55.8378" y2="309.957" gradientUnits="userSpaceOnUse">
<stop stop-color="#5B6FFF"/>
<stop offset="1" stop-color="#09090B" stop-opacity="0"/>
</linearGradient>
<linearGradient id="paint2_linear_8340_4968" x1="221.5" y1="75.9744" x2="31.1424" y2="417.883" gradientUnits="userSpaceOnUse">
<stop stop-color="white"/>
<stop offset="1" stop-color="#999999" stop-opacity="0.75"/>
</linearGradient>
<linearGradient id="paint3_linear_8340_4968" x1="217.359" y1="933.362" x2="217.359" y2="730" gradientUnits="userSpaceOnUse">
<stop stop-color="#111C27"/>
<stop offset="1" stop-color="#05080B" stop-opacity="0"/>
</linearGradient>
<clipPath id="clip0_8340_4968">
<rect width="440" height="1012" fill="white"/>
</clipPath>
</defs>
</svg>
