<svg width="71" height="70" viewBox="0 0 71 70" fill="none" xmlns="http://www.w3.org/2000/svg">
<g clip-path="url(#clip0_1167_3111)">
<path d="M35.4939 61.1721C34.4685 61.2336 13.0389 62.1974 13.2952 46.5302C13.4491 36.7382 19.0679 30.4324 26.2658 27.5922C29.1778 26.4541 32.3358 25.8799 35.4939 25.8799C38.6519 25.8799 41.8202 26.4541 44.7219 27.5922C51.9301 30.4221 57.5387 36.7382 57.7027 46.5302C57.9488 62.1872 36.5192 61.2336 35.4939 61.1721ZM14.9255 46.5507C14.7102 60.3723 34.1507 59.6033 35.3913 59.5418H35.5451C35.6887 59.5418 56.298 60.7722 56.0725 46.5507C55.9289 37.5278 50.7509 31.7243 44.1375 29.12C41.3813 28.0521 38.4496 27.5096 35.4939 27.5204C32.5415 27.5109 29.6135 28.0534 26.8605 29.12C20.2368 31.7243 15.0691 37.5278 14.9255 46.5507Z" fill="#0E9943"/>
<path d="M29.5273 27.2433C29.53 27.351 29.5539 27.4571 29.5976 27.5556C29.6413 27.6541 29.704 27.743 29.7821 27.8173C29.8601 27.8916 29.9521 27.9497 30.0526 27.9885C30.1532 28.0272 30.2604 28.0458 30.3681 28.0431C30.4758 28.0404 30.5819 28.0165 30.6804 27.9728C30.7789 27.9291 30.8678 27.8664 30.9421 27.7883C31.0164 27.7102 31.0745 27.6183 31.1133 27.5177C31.152 27.4172 31.1705 27.31 31.1679 27.2023C30.973 20.394 28.0508 16.3747 26.1437 14.4676L31.5882 14.0779C31.7396 14.0669 31.8848 14.014 32.0079 13.9253C32.131 13.8366 32.2271 13.7155 32.2855 13.5755C33.0545 12.0785 33.9363 11.0942 34.8488 10.6328C35.2071 10.4472 35.604 10.3489 36.0075 10.3457C36.4144 10.3473 36.815 10.4457 37.1764 10.6328C38.0992 11.1044 38.981 12.099 39.7602 13.6268C39.8274 13.7602 39.9298 13.8727 40.0563 13.9523C40.1828 14.0318 40.3286 14.0752 40.4779 14.0779L45.8815 14.4676C43.9744 16.3747 41.0419 20.394 40.8573 27.2023C40.8519 27.4198 40.9331 27.6306 41.0831 27.7883C41.2331 27.946 41.4395 28.0376 41.6571 28.0431C41.8746 28.0485 42.0854 27.9673 42.2431 27.8173C42.4008 27.6673 42.4924 27.4608 42.4979 27.2433C42.7234 18.5176 47.7374 14.9084 48.3218 14.5291C48.477 14.4445 48.6008 14.312 48.6746 14.1514C48.7484 13.9907 48.7684 13.8106 48.7315 13.6377C48.6946 13.4648 48.6029 13.3084 48.4699 13.1919C48.337 13.0754 48.1699 13.0049 47.9937 12.9911L41.0009 12.4784C40.3229 11.0957 39.2485 9.94634 37.9146 9.1768C37.3255 8.87005 36.6717 8.70835 36.0075 8.70514C35.3467 8.70997 34.6966 8.87163 34.1106 9.1768C32.7767 9.94634 31.7023 11.0957 31.0243 12.4784L24.0725 12.9808C23.8972 12.9845 23.7278 13.0443 23.589 13.1513C23.4501 13.2583 23.3492 13.407 23.3011 13.5756C23.2529 13.7441 23.26 13.9236 23.3214 14.0879C23.3827 14.2521 23.495 14.3923 23.6419 14.4881C23.6624 14.4983 29.2812 17.9947 29.5273 27.2433Z" fill="#0E9943"/>
<path d="M28.0508 18.302C27.8705 18.4002 27.7336 18.5626 27.6671 18.7569C27.6007 18.9513 27.6096 19.1635 27.6921 19.3516C27.7745 19.5397 27.9245 19.69 28.1125 19.7728C28.3004 19.8557 28.5126 19.865 28.707 19.799C29.8349 19.2863 32.4495 18.6198 35.8024 18.5993C38.0787 18.5788 40.683 18.8762 43.3899 19.7374C43.5923 19.7893 43.8068 19.762 43.9897 19.6611C44.1726 19.5602 44.3102 19.3934 44.3743 19.1945C44.4384 18.9957 44.4242 18.7799 44.3346 18.5912C44.2451 18.4025 44.0869 18.255 43.8923 18.1789C41.2721 17.3548 38.5389 16.9465 35.7922 16.969C33.1515 16.9309 30.5267 17.3829 28.0508 18.302ZM35.3615 53.1123V51.2051C34.5582 51.1283 33.7743 50.9133 33.0442 50.5694C32.4079 50.2202 31.8768 49.7068 31.5062 49.0827C31.0488 48.325 30.788 47.465 30.7475 46.5809L32.6546 46.222C32.8084 47.2473 33.0647 47.9856 33.4441 48.4777C33.6679 48.7886 33.954 49.0494 34.2841 49.2435C34.6142 49.4377 34.9811 49.561 35.3615 49.6056V43.5459C34.517 43.3703 33.7067 43.0587 32.9622 42.623C32.3743 42.3003 31.8905 41.8165 31.5677 41.2286C31.2308 40.5984 31.0614 39.8923 31.0756 39.1779C31.0756 37.8347 31.5575 36.7376 32.5111 35.8968C33.3309 35.2644 34.327 34.9026 35.3615 34.8612V33.9487H36.4894V34.8612C37.5968 34.9638 38.4785 35.2919 39.1245 35.8353C39.971 36.5537 40.5073 37.5712 40.6215 38.6755L38.6529 38.9728C38.5913 38.3416 38.3452 37.7425 37.9454 37.2503C37.5598 36.8345 37.0482 36.557 36.4894 36.4607V41.9566C37.443 42.1924 38.0787 42.3872 38.3863 42.5205C38.9261 42.7416 39.4199 43.0615 39.8422 43.4638C40.2114 43.8432 40.4985 44.2841 40.7035 44.7968C40.9086 45.3094 41.0111 45.8734 41.0111 46.4681C41.0261 47.0752 40.9208 47.6793 40.7013 48.2456C40.4817 48.8119 40.1523 49.3292 39.732 49.7676C39.3117 50.206 38.8088 50.5569 38.2523 50.8001C37.6958 51.0433 37.0966 51.174 36.4894 51.1846V53.1123H35.3615ZM35.3615 36.4402C34.6923 36.5189 34.0737 36.8355 33.6184 37.3323C33.1952 37.7973 32.9644 38.4056 32.9725 39.0343C32.9518 39.6254 33.1447 40.2042 33.5159 40.6646C34.0177 41.1835 34.6585 41.5466 35.3615 41.7105V36.4402ZM36.4894 49.5954C37.1999 49.5215 37.8558 49.1806 38.3247 48.6418C38.8141 48.0732 39.0705 47.3407 39.0425 46.5911C39.0703 45.9946 38.889 45.4071 38.5298 44.9301C37.9591 44.3779 37.2511 43.9884 36.4791 43.8022L36.4894 49.5954Z" fill="#0E9943"/>
<path fill-rule="evenodd" clip-rule="evenodd" d="M30.7461 46.591L32.6635 46.2322C32.8173 47.2575 33.0736 47.9957 33.453 48.4879C33.6768 48.7987 33.9629 49.0595 34.293 49.2537C34.6231 49.4479 34.99 49.5712 35.3704 49.6158V43.556C34.5259 43.3805 33.7156 43.0688 32.9711 42.6332C32.3832 42.3104 31.8994 41.8267 31.5766 41.2387C31.2397 40.6086 31.0703 39.9025 31.0845 39.1881C31.0845 37.8449 31.5664 36.7478 32.52 35.907C33.3357 35.2729 34.328 34.9075 35.3602 34.8611V33.9486H36.488V34.8611C37.5954 34.9637 38.4772 35.2918 39.1232 35.8352C39.9696 36.5536 40.5059 37.5711 40.6202 38.6754L38.6515 38.9727C38.5899 38.3415 38.3438 37.7424 37.944 37.2502C37.5585 36.8344 37.0468 36.5569 36.488 36.4607V41.9565C37.4416 42.1923 38.0773 42.3871 38.3849 42.5204C38.9247 42.7415 39.4185 43.0614 39.8409 43.4637C40.21 43.8431 40.4971 44.284 40.7022 44.7967C40.9072 45.3093 41.0098 45.8733 41.0098 46.468C41.0248 47.0751 40.9194 47.6793 40.6999 48.2455C40.4804 48.8118 40.151 49.3291 39.7307 49.7675C39.3104 50.2059 38.8075 50.5568 38.2509 50.8C37.6944 51.0432 37.0953 51.1739 36.488 51.1845V53.1122H35.3602V51.2051C34.5569 51.1282 33.7729 50.9132 33.0429 50.5693C32.4065 50.2201 31.8754 49.7067 31.5049 49.0826C31.0475 48.3249 30.7866 47.4752 30.7461 46.591ZM26.8703 29.1192C20.2466 31.7236 15.0789 37.527 14.9354 46.55C14.72 60.3716 34.1605 59.6026 35.4012 59.5411H35.555C35.6985 59.5411 56.3079 60.7715 56.0823 46.55C55.9387 37.527 50.7608 31.7236 44.1473 29.1192C41.3912 28.0514 38.4595 27.5089 35.5037 27.5197C32.5514 27.5101 29.6233 28.0526 26.8703 29.1192Z" fill="white"/>
<path fill-rule="evenodd" clip-rule="evenodd" d="M33.5254 40.6756C34.0272 41.1944 34.668 41.5576 35.371 41.7214V36.4512C34.7018 36.5299 34.0832 36.8465 33.6279 37.3432C33.2047 37.8082 32.9739 38.4166 32.982 39.0453C32.9613 39.6364 33.1542 40.2151 33.5254 40.6756ZM36.4989 43.8131V49.6063C37.2094 49.5324 37.8653 49.1916 38.3342 48.6527C38.8236 48.0842 39.08 47.3517 39.052 46.602C39.0798 46.0055 38.8985 45.4181 38.5393 44.941C37.9686 44.3888 37.2708 43.9994 36.4989 43.8131Z" fill="white"/>
<path fill-rule="evenodd" clip-rule="evenodd" d="M35.4948 25.8793C37.3097 25.8793 39.1245 26.0638 40.8881 26.4432C41.0522 23.6338 41.6879 21.3268 42.5082 19.4709C40.3233 18.8752 38.067 18.582 35.8024 18.5994C33.0955 18.6096 30.8808 19.0608 29.5273 19.4914C30.3169 21.3063 30.9321 23.5415 31.1166 26.2484C32.5521 26.0023 34.0286 25.8793 35.4948 25.8793Z" fill="#F4F4F4"/>
<path fill-rule="evenodd" clip-rule="evenodd" d="M35.793 16.9694C38.314 16.9528 40.8243 17.2981 43.2472 17.9947C44.1188 16.4157 45.0928 15.2571 45.8823 14.4676L40.4685 14.0779C40.3192 14.0752 40.1734 14.0318 40.0469 13.9523C39.9204 13.8728 39.818 13.7602 39.7508 13.6268C38.9818 12.0888 38.0897 11.1044 37.1772 10.6328C36.8159 10.4457 36.4152 10.3473 36.0083 10.3457C35.6049 10.3489 35.2079 10.4472 34.8497 10.6328C33.9371 11.0942 33.0553 12.0683 32.2863 13.5755C32.2279 13.7155 32.1319 13.8366 32.0088 13.9253C31.8857 14.014 31.7404 14.0669 31.5891 14.0779L26.1445 14.4676C26.934 15.2673 27.9184 16.426 28.7899 18.0152C30.2664 17.5128 32.7682 16.9899 35.793 16.9694Z" fill="#0E9943"/>
</g>
<defs>
<clipPath id="clip0_1167_3111">
<rect width="70" height="70" fill="white" transform="translate(0.5)"/>
</clipPath>
</defs>
</svg>
