<svg width="162" height="51" viewBox="0 0 162 51" fill="none" xmlns="http://www.w3.org/2000/svg">
<g clip-path="url(#clip0_5224_19472)">
<path d="M29.0732 0.923828L30.4075 3.42989C30.7075 3.89235 31.0325 4.3017 31.4152 4.68292C32.5375 5.79116 33.5835 6.97397 34.5463 8.22328C36.807 11.1918 38.3319 14.4884 39.4209 18.0538C40.074 20.2317 40.4286 22.466 40.4552 24.7252C40.5646 31.4793 38.2491 37.2789 33.5807 42.0989C32.8213 42.8632 32.001 43.5644 31.1278 44.1956C30.6653 44.1956 30.4466 43.8409 30.256 43.5144C29.9088 42.9089 29.6778 42.2439 29.5748 41.5536C29.4107 40.7365 29.3029 39.9193 29.356 39.0756V38.6944C29.3185 38.6132 28.9107 1.116 29.0732 0.923828Z" fill="#599636"/>
<path d="M29.0727 0.84086C29.018 0.731493 28.9634 0.8143 28.9087 0.867421C28.9352 1.41425 28.7446 1.90172 28.4462 2.36731C28.1181 2.82977 27.6838 3.18443 27.2479 3.56565C24.8262 5.66237 22.9201 8.19499 21.3936 11.0276C19.3625 14.8398 18.3157 18.9254 18.0189 23.2267C17.8829 24.7781 18.5095 30.2527 18.9985 31.8323C20.3328 36.0257 22.7295 39.5395 25.8339 42.5893C26.5963 43.3236 27.4119 44.0048 28.2556 44.6594C28.5009 44.6594 28.5275 44.4407 28.5837 44.2782C28.6912 43.9305 28.7732 43.5754 28.829 43.2158L29.3758 39.1317L29.0727 0.84086Z" fill="#6CAC48"/>
<path d="M30.4073 45.8551C30.4619 45.2301 30.7619 44.7114 31.0885 44.1943C30.7604 44.0584 30.5166 43.7881 30.326 43.4865C30.1617 43.201 30.0256 42.9001 29.9198 42.5882C29.5386 41.4445 29.4573 40.2446 29.348 39.0759V38.3682C29.212 38.4775 29.1839 39.4025 29.1839 39.54C29.1044 40.7751 28.9405 42.0034 28.6933 43.2162C28.6121 43.7068 28.5574 44.1959 28.2559 44.6318C28.2559 44.6864 28.2559 44.7411 28.2824 44.8224C28.773 46.266 28.9074 47.7362 28.9902 49.2345V49.7814C28.9902 50.4344 28.9636 50.297 29.5058 50.5157C29.7245 50.5969 29.9682 50.6251 30.187 50.7875C30.351 50.7875 30.3776 50.6516 30.3776 50.5423L30.2963 49.6439V47.1378C30.2698 46.7004 30.351 46.266 30.4057 45.8567L30.4073 45.8551Z" fill="#C2BFBF"/>
</g>
<path d="M71.7614 18.2417H73.8636L78.8068 30.3155H78.9773L83.9205 18.2417H86.0227V32.7871H84.375V21.736H84.233L79.6875 32.7871H78.0966L73.5511 21.736H73.4091V32.7871H71.7614V18.2417ZM93.7589 33.0144C92.774 33.0144 91.9099 32.78 91.1665 32.3113C90.4279 31.8425 89.8503 31.1867 89.4336 30.3439C89.0217 29.5011 88.8157 28.5163 88.8157 27.3894C88.8157 26.253 89.0217 25.2611 89.4336 24.4135C89.8503 23.566 90.4279 22.9078 91.1665 22.4391C91.9099 21.9703 92.774 21.736 93.7589 21.736C94.7437 21.736 95.6055 21.9703 96.3441 22.4391C97.0875 22.9078 97.6651 23.566 98.0771 24.4135C98.4937 25.2611 98.7021 26.253 98.7021 27.3894C98.7021 28.5163 98.4937 29.5011 98.0771 30.3439C97.6651 31.1867 97.0875 31.8425 96.3441 32.3113C95.6055 32.78 94.7437 33.0144 93.7589 33.0144ZM93.7589 31.5087C94.507 31.5087 95.1225 31.3169 95.6055 30.9334C96.0884 30.5499 96.4459 30.0456 96.6779 29.4206C96.9099 28.7956 97.0259 28.1185 97.0259 27.3894C97.0259 26.6602 96.9099 25.9808 96.6779 25.351C96.4459 24.7213 96.0884 24.2123 95.6055 23.824C95.1225 23.4358 94.507 23.2417 93.7589 23.2417C93.0108 23.2417 92.3952 23.4358 91.9123 23.824C91.4293 24.2123 91.0719 24.7213 90.8398 25.351C90.6078 25.9808 90.4918 26.6602 90.4918 27.3894C90.4918 28.1185 90.6078 28.7956 90.8398 29.4206C91.0719 30.0456 91.4293 30.5499 91.9123 30.9334C92.3952 31.3169 93.0108 31.5087 93.7589 31.5087ZM102.937 26.2246V32.7871H101.261V21.878H102.88V23.5826H103.022C103.278 23.0286 103.666 22.5835 104.187 22.2473C104.708 21.9064 105.38 21.736 106.204 21.736C106.942 21.736 107.589 21.8875 108.143 22.1905C108.697 22.4888 109.128 22.9434 109.435 23.5542C109.743 24.1602 109.897 24.9273 109.897 25.8553V32.7871H108.221V25.9689C108.221 25.1119 107.998 24.4443 107.553 23.9661C107.108 23.4831 106.497 23.2417 105.721 23.2417C105.186 23.2417 104.708 23.3577 104.286 23.5897C103.87 23.8217 103.54 24.1602 103.299 24.6053C103.058 25.0504 102.937 25.5901 102.937 26.2246ZM117.363 37.1053C116.554 37.1053 115.858 37.0011 115.275 36.7928C114.693 36.5892 114.208 36.3193 113.819 35.9831C113.436 35.6517 113.13 35.2966 112.903 34.9178L114.238 33.9803C114.39 34.1792 114.582 34.4064 114.814 34.6621C115.046 34.9225 115.363 35.1474 115.765 35.3368C116.172 35.531 116.705 35.628 117.363 35.628C118.244 35.628 118.971 35.415 119.544 34.9888C120.117 34.5627 120.403 33.8951 120.403 32.986V30.7701H120.261C120.138 30.9689 119.963 31.2151 119.735 31.5087C119.513 31.7975 119.191 32.0556 118.77 32.2828C118.353 32.5054 117.789 32.6167 117.079 32.6167C116.199 32.6167 115.408 32.4083 114.707 31.9917C114.011 31.575 113.459 30.9689 113.052 30.1735C112.65 29.378 112.449 28.4121 112.449 27.2757C112.449 26.1583 112.645 25.1853 113.038 24.3567C113.431 23.5234 113.978 22.8794 114.679 22.4249C115.379 21.9656 116.189 21.736 117.108 21.736C117.818 21.736 118.381 21.8543 118.798 22.0911C119.219 22.3231 119.541 22.5882 119.764 22.8865C119.991 23.1801 120.166 23.4216 120.289 23.611H120.46V21.878H122.079V33.0996C122.079 34.0371 121.866 34.7994 121.44 35.3865C121.019 35.9784 120.45 36.4116 119.735 36.6863C119.025 36.9656 118.234 37.1053 117.363 37.1053ZM117.306 31.111C117.979 31.111 118.547 30.9571 119.011 30.6493C119.475 30.3416 119.828 29.8989 120.069 29.3212C120.311 28.7435 120.431 28.0523 120.431 27.2473C120.431 26.4614 120.313 25.7677 120.076 25.1664C119.84 24.565 119.489 24.0939 119.025 23.753C118.561 23.4121 117.988 23.2417 117.306 23.2417C116.596 23.2417 116.004 23.4216 115.531 23.7814C115.062 24.1413 114.709 24.6242 114.473 25.2303C114.241 25.8364 114.125 26.5087 114.125 27.2473C114.125 28.0049 114.243 28.6749 114.48 29.2573C114.721 29.8349 115.076 30.2895 115.545 30.6209C116.019 30.9476 116.606 31.111 117.306 31.111ZM129.579 33.0144C128.594 33.0144 127.73 32.78 126.987 32.3113C126.248 31.8425 125.671 31.1867 125.254 30.3439C124.842 29.5011 124.636 28.5163 124.636 27.3894C124.636 26.253 124.842 25.2611 125.254 24.4135C125.671 23.566 126.248 22.9078 126.987 22.4391C127.73 21.9703 128.594 21.736 129.579 21.736C130.564 21.736 131.426 21.9703 132.164 22.4391C132.908 22.9078 133.485 23.566 133.897 24.4135C134.314 25.2611 134.522 26.253 134.522 27.3894C134.522 28.5163 134.314 29.5011 133.897 30.3439C133.485 31.1867 132.908 31.8425 132.164 32.3113C131.426 32.78 130.564 33.0144 129.579 33.0144ZM129.579 31.5087C130.327 31.5087 130.943 31.3169 131.426 30.9334C131.909 30.5499 132.266 30.0456 132.498 29.4206C132.73 28.7956 132.846 28.1185 132.846 27.3894C132.846 26.6602 132.73 25.9808 132.498 25.351C132.266 24.7213 131.909 24.2123 131.426 23.824C130.943 23.4358 130.327 23.2417 129.579 23.2417C128.831 23.2417 128.216 23.4358 127.733 23.824C127.25 24.2123 126.892 24.7213 126.66 25.351C126.428 25.9808 126.312 26.6602 126.312 27.3894C126.312 28.1185 126.428 28.7956 126.66 29.4206C126.892 30.0456 127.25 30.5499 127.733 30.9334C128.216 31.3169 128.831 31.5087 129.579 31.5087ZM141.797 32.7871H137.308V18.2417H141.996C143.407 18.2417 144.614 18.5328 145.618 19.1152C146.622 19.6929 147.391 20.5239 147.926 21.6081C148.461 22.6877 148.729 23.9803 148.729 25.486C148.729 27.0011 148.459 28.3056 147.919 29.3993C147.379 30.4883 146.593 31.3264 145.561 31.9135C144.529 32.4959 143.274 32.7871 141.797 32.7871ZM139.07 31.2246H141.683C142.886 31.2246 143.883 30.9926 144.673 30.5286C145.464 30.0646 146.054 29.4041 146.442 28.5471C146.83 27.69 147.024 26.6697 147.024 25.486C147.024 24.3117 146.832 23.3008 146.449 22.4533C146.065 21.601 145.492 20.9476 144.73 20.4931C143.968 20.0338 143.018 19.8042 141.882 19.8042H139.07V31.2246ZM151.683 32.7871V18.2417H156.768C157.782 18.2417 158.617 18.4168 159.276 18.7672C159.934 19.1129 160.424 19.5792 160.746 20.1664C161.068 20.7488 161.229 21.3951 161.229 22.1053C161.229 22.7303 161.117 23.2464 160.895 23.6536C160.677 24.0608 160.388 24.3828 160.028 24.6195C159.673 24.8562 159.287 25.0314 158.871 25.1451V25.2871C159.316 25.3155 159.763 25.4718 160.213 25.7559C160.663 26.04 161.039 26.4471 161.342 26.9775C161.645 27.5078 161.797 28.1564 161.797 28.9235C161.797 29.6526 161.631 30.3084 161.3 30.8908C160.968 31.4732 160.445 31.9348 159.73 32.2757C159.015 32.6167 158.085 32.7871 156.939 32.7871H151.683ZM153.445 31.2246H156.939C158.089 31.2246 158.906 31.0021 159.389 30.557C159.877 30.1072 160.121 29.5627 160.121 28.9235C160.121 28.431 159.995 27.9765 159.744 27.5598C159.493 27.1384 159.136 26.8023 158.672 26.5513C158.208 26.2956 157.659 26.1678 157.024 26.1678H153.445V31.2246ZM153.445 24.6337H156.712C157.242 24.6337 157.72 24.5295 158.146 24.3212C158.577 24.1129 158.918 23.8193 159.169 23.4405C159.425 23.0617 159.553 22.6167 159.553 22.1053C159.553 21.4661 159.33 20.9239 158.885 20.4789C158.44 20.0291 157.734 19.8042 156.768 19.8042H153.445V24.6337Z" fill="white"/>
<defs>
<clipPath id="clip0_5224_19472">
<rect width="50" height="50" fill="white" transform="translate(0 0.787109)"/>
</clipPath>
</defs>
</svg>
