<svg width="76" height="77" viewBox="0 0 76 77" fill="none" xmlns="http://www.w3.org/2000/svg">
<g clip-path="url(#clip0_1167_3204)">
<path d="M14.25 43.25C14.25 45.1289 14.8072 46.9656 15.851 48.5279C16.8949 50.0902 18.3786 51.3078 20.1145 52.0269C21.8504 52.7459 23.7605 52.934 25.6034 52.5675C27.4462 52.2009 29.1389 51.2961 30.4675 49.9675C31.7961 48.6389 32.7009 46.9462 33.0675 45.1034C33.434 43.2605 33.2459 41.3504 32.5269 39.6145C31.8078 37.8786 30.5902 36.3949 29.0279 35.351C27.4656 34.3072 25.6289 33.75 23.75 33.75C21.2304 33.75 18.8141 34.7509 17.0325 36.5325C15.2509 38.3141 14.25 40.7304 14.25 43.25ZM28.5 43.25C28.5 44.1895 28.2214 45.1078 27.6995 45.889C27.1775 46.6701 26.4357 47.2789 25.5677 47.6384C24.6998 47.9979 23.7447 48.092 22.8233 47.9087C21.9019 47.7255 21.0555 47.2731 20.3912 46.6088C19.7269 45.9445 19.2745 45.0981 19.0913 44.1767C18.908 43.2553 19.0021 42.3002 19.3616 41.4323C19.7211 40.5643 20.3299 39.8225 21.111 39.3005C21.8922 38.7786 22.8105 38.5 23.75 38.5C25.0098 38.5 26.218 39.0004 27.1088 39.8912C27.9996 40.782 28.5 41.9902 28.5 43.25ZM35.625 57.5H11.875C8.72555 57.5 5.7051 58.7511 3.47811 60.9781C1.25111 63.2051 0 66.2256 0 69.375C0 71.2647 0.750667 73.0769 2.08686 74.4131C3.42306 75.7493 5.23533 76.5 7.125 76.5H40.375C42.2647 76.5 44.0769 75.7493 45.4131 74.4131C46.7493 73.0769 47.5 71.2647 47.5 69.375C47.5 66.2256 46.2489 63.2051 44.0219 60.9781C41.7949 58.7511 38.7744 57.5 35.625 57.5ZM40.375 71.75H7.125C6.49511 71.75 5.89102 71.4998 5.44562 71.0544C5.00022 70.609 4.75 70.0049 4.75 69.375C4.75 67.4853 5.50067 65.6731 6.83686 64.3369C8.17306 63.0007 9.98533 62.25 11.875 62.25H35.625C37.5147 62.25 39.3269 63.0007 40.6631 64.3369C41.9993 65.6731 42.75 67.4853 42.75 69.375C42.75 70.0049 42.4998 70.609 42.0544 71.0544C41.609 71.4998 41.0049 71.75 40.375 71.75ZM76 2.875V40.875C76 41.5049 75.7498 42.109 75.3044 42.5544C74.859 42.9998 74.2549 43.25 73.625 43.25H47.5V48H59.375C60.0049 48 60.609 48.2502 61.0544 48.6956C61.4998 49.141 61.75 49.7451 61.75 50.375C61.75 51.0049 61.4998 51.609 61.0544 52.0544C60.609 52.4998 60.0049 52.75 59.375 52.75H40.375C39.7451 52.75 39.141 52.4998 38.6956 52.0544C38.2502 51.609 38 51.0049 38 50.375C38 49.7451 38.2502 49.141 38.6956 48.6956C39.141 48.2502 39.7451 48 40.375 48H42.75V43.25H40.375C39.7451 43.25 39.141 42.9998 38.6956 42.5544C38.2502 42.109 38 41.5049 38 40.875C38 40.2451 38.2502 39.641 38.6956 39.1956C39.141 38.7502 39.7451 38.5 40.375 38.5H71.25V5.25H19V26.625C19 27.2549 18.7498 27.859 18.3044 28.3044C17.859 28.7498 17.2549 29 16.625 29C15.9951 29 15.391 28.7498 14.9456 28.3044C14.5002 27.859 14.25 27.2549 14.25 26.625V2.875C14.25 2.24511 14.5002 1.64102 14.9456 1.19562C15.391 0.750223 15.9951 0.5 16.625 0.5L73.625 0.5C74.2549 0.5 74.859 0.750223 75.3044 1.19562C75.7498 1.64102 76 2.24511 76 2.875ZM30.875 29C30.5635 29.0038 30.2547 28.9424 29.9684 28.8197C29.682 28.6969 29.4246 28.5157 29.2125 28.2875C28.9853 28.0743 28.8042 27.8167 28.6804 27.5308C28.5567 27.2449 28.4928 26.9366 28.4928 26.625C28.4928 26.3134 28.5567 26.0051 28.6804 25.7192C28.8042 25.4333 28.9853 25.1757 29.2125 24.9625L38.7125 15.4625C38.9257 15.2353 39.1833 15.0542 39.4692 14.9304C39.7551 14.8067 40.0634 14.7428 40.375 14.7428C40.6866 14.7428 40.9949 14.8067 41.2808 14.9304C41.5667 15.0542 41.8243 15.2353 42.0375 15.4625L49.875 23.2525L62.4625 10.7125C62.6808 10.4942 62.94 10.321 63.2253 10.2028C63.5105 10.0847 63.8162 10.0239 64.125 10.0239C64.4338 10.0239 64.7395 10.0847 65.0247 10.2028C65.31 10.321 65.5692 10.4942 65.7875 10.7125C66.0058 10.9308 66.179 11.19 66.2972 11.4753C66.4153 11.7605 66.4761 12.0662 66.4761 12.375C66.4761 12.6838 66.4153 12.9895 66.2972 13.2747C66.179 13.56 66.0058 13.8192 65.7875 14.0375L51.5375 28.2875C51.3243 28.5147 51.0667 28.6958 50.7808 28.8196C50.4949 28.9433 50.1866 29.0072 49.875 29.0072C49.5634 29.0072 49.2551 28.9433 48.9692 28.8196C48.6833 28.6958 48.4257 28.5147 48.2125 28.2875L40.375 20.4975L32.5375 28.2875C32.3254 28.5157 32.068 28.6969 31.7816 28.8197C31.4953 28.9424 31.1865 29.0038 30.875 29Z" fill="black"/>
</g>
<defs>
<clipPath id="clip0_1167_3204">
<rect width="76" height="76" fill="white" transform="translate(0 0.5)"/>
</clipPath>
</defs>
</svg>
