<svg width="88" height="88" viewBox="0 0 88 88" fill="none" xmlns="http://www.w3.org/2000/svg">
<path d="M0 37.1014C0 19.6116 0 10.8668 5.43338 5.43338C10.8668 0 19.6117 0 37.1014 0H50C67.4898 0 76.2347 0 81.6681 5.43338C87.1014 10.8668 87.1014 19.6117 87.1014 37.1014V50C87.1014 67.4898 87.1014 76.2347 81.6681 81.6681C76.2347 87.1014 67.4898 87.1014 50 87.1014H37.1014C19.6116 87.1014 10.8668 87.1014 5.43338 81.6681C0 76.2347 0 67.4898 0 50V37.1014Z" fill="#1B1D1E"/>
<g clip-path="url(#clip0_10906_29126)">
<path d="M53.4261 37.9932H66.3413C67.5614 37.9932 68.5506 38.9826 68.5506 40.2032V51.9713C68.5506 56.4573 64.9152 60.0939 60.4308 60.0939H60.3924C55.908 60.0945 52.2721 56.4584 52.2715 51.9724C52.2715 51.972 52.2715 51.9717 52.2715 51.9712V39.1482C52.2715 38.5103 52.7885 37.9932 53.4261 37.9932Z" fill="#5059C9"/>
<path d="M62.1554 35.666C65.0453 35.666 67.388 33.3225 67.388 30.4316C67.388 27.5408 65.0453 25.1973 62.1554 25.1973C59.2655 25.1973 56.9229 27.5408 56.9229 30.4316C56.9229 33.3225 59.2655 35.666 62.1554 35.666Z" fill="#5059C9"/>
<path d="M45.8765 35.6665C50.0508 35.6665 53.4347 32.2814 53.4347 28.1057C53.4347 23.93 50.0508 20.5449 45.8765 20.5449C41.7023 20.5449 38.3184 23.93 38.3184 28.1057C38.3184 32.2814 41.7023 35.6665 45.8765 35.6665Z" fill="#7B83EB"/>
<path d="M55.9546 37.9932H34.636C33.4304 38.023 32.4766 39.0239 32.5046 40.23V53.6521C32.3362 60.8898 38.0604 66.8959 45.2953 67.073C52.5303 66.8959 58.2543 60.8898 58.086 53.6521V40.23C58.1139 39.0239 57.1602 38.023 55.9546 37.9932Z" fill="#7B83EB"/>
<path opacity="0.1" d="M46.458 37.9932V56.802C46.4522 57.6645 45.9297 58.4394 45.1324 58.7678C44.8786 58.8752 44.6057 58.9306 44.3301 58.9307H33.5278C33.3766 58.5468 33.2371 58.163 33.1208 57.7675C32.7138 56.4328 32.5061 55.0452 32.5045 53.6498V40.2265C32.4766 39.0223 33.4287 38.023 34.6324 37.9932H46.458Z" fill="black"/>
<path opacity="0.2" d="M45.2952 37.9932V57.9652C45.2952 58.2409 45.2398 58.5139 45.1324 58.7678C44.8041 59.5654 44.0296 60.0881 43.1673 60.0939H34.0743C33.8766 59.71 33.6906 59.3261 33.5278 58.9307C33.365 58.5352 33.2371 58.163 33.1208 57.7675C32.7138 56.4328 32.5061 55.0452 32.5045 53.6498V40.2265C32.4766 39.0223 33.4287 38.023 34.6324 37.9932H45.2952Z" fill="black"/>
<path opacity="0.2" d="M45.2952 37.9932V55.6388C45.2864 56.8108 44.3388 57.7586 43.1673 57.7675H33.1208C32.7138 56.4328 32.5061 55.0452 32.5045 53.6498V40.2265C32.4766 39.0223 33.4287 38.023 34.6324 37.9932H45.2952Z" fill="black"/>
<path opacity="0.2" d="M44.1324 37.9932V55.6388C44.1235 56.8108 43.176 57.7586 42.0045 57.7675H33.1208C32.7138 56.4328 32.5061 55.0452 32.5045 53.6498V40.2265C32.4766 39.0223 33.4287 38.023 34.6324 37.9932H44.1324Z" fill="black"/>
<path opacity="0.1" d="M46.4576 31.9792V35.6433C46.2599 35.6549 46.0739 35.6665 45.8762 35.6665C45.6785 35.6665 45.4925 35.6549 45.2948 35.6433C44.9023 35.6172 44.513 35.5549 44.132 35.4572C41.7773 34.8994 39.832 33.2474 38.8994 31.0138C38.739 30.6387 38.6144 30.2492 38.5273 29.8506H44.3297C45.503 29.855 46.4531 30.8054 46.4576 31.9792Z" fill="black"/>
<path opacity="0.2" d="M45.2948 33.1423V35.6432C44.9023 35.6171 44.513 35.5548 44.132 35.4571C41.7773 34.8993 39.832 33.2473 38.8994 31.0137H43.1668C44.3402 31.0181 45.2903 31.9685 45.2948 33.1423Z" fill="black"/>
<path opacity="0.2" d="M45.2948 33.1423V35.6432C44.9023 35.6171 44.513 35.5548 44.132 35.4571C41.7773 34.8993 39.832 33.2473 38.8994 31.0137H43.1668C44.3402 31.0181 45.2903 31.9685 45.2948 33.1423Z" fill="black"/>
<path opacity="0.2" d="M44.132 33.1423V35.4571C41.7773 34.8993 39.832 33.2473 38.8994 31.0137H42.0041C43.1774 31.0181 44.1275 31.9686 44.132 33.1423Z" fill="black"/>
<path d="M20.6822 31.0137H42.0008C43.1779 31.0137 44.1322 31.9683 44.1322 33.1458V54.4718C44.1322 55.6494 43.1779 56.6039 42.0008 56.6039H20.6822C19.505 56.6039 18.5508 55.6493 18.5508 54.4718V33.1458C18.5508 31.9683 19.505 31.0137 20.6822 31.0137Z" fill="url(#paint0_linear_10906_29126)"/>
<path d="M36.951 39.1308H32.6894V50.7395H29.9743V39.1308H25.7324V36.8789H36.951V39.1308Z" fill="white"/>
</g>
<defs>
<linearGradient id="paint0_linear_10906_29126" x1="22.9948" y1="29.3477" x2="39.6969" y2="58.2649" gradientUnits="userSpaceOnUse">
<stop stop-color="#5A62C3"/>
<stop offset="0.5" stop-color="#4D55BD"/>
<stop offset="1" stop-color="#3940AB"/>
</linearGradient>
<clipPath id="clip0_10906_29126">
<rect width="50" height="46.5278" fill="white" transform="translate(18.5508 20.5449)"/>
</clipPath>
</defs>
</svg>
