<svg width="100" height="101" viewBox="0 0 100 101" fill="none" xmlns="http://www.w3.org/2000/svg">
<path d="M100 50.5C100 78.1142 77.6142 100.5 50 100.5C22.3858 100.5 0 78.1142 0 50.5C0 22.8858 22.3858 0.5 50 0.5C77.6142 0.5 100 22.8858 100 50.5Z" fill="#FF5D00" fill-opacity="0.1"/>
<path d="M76.5 67.5H75C75.653 66.6365 76.0043 65.5825 76 64.5V32.5C75.9995 31.1741 75.4726 29.9026 74.535 28.965C73.5974 28.0274 72.3259 27.5005 71 27.5H29C27.6741 27.5005 26.4026 28.0274 25.465 28.965C24.5274 29.9026 24.0005 31.1741 24 32.5V64.5C23.9957 65.5825 24.347 66.6365 25 67.5H23.5C18.8977 67.5923 18.8731 74.382 23.5001 74.5H76.5C81.0979 74.4094 81.1307 67.6188 76.5 67.5ZM74 64.5C73.9977 65.2949 73.6808 66.0566 73.1187 66.6187C72.5566 67.1809 71.7949 67.4977 71 67.5H53C52.735 67.5008 52.4811 67.6064 52.2938 67.7938C52.1064 67.9811 52.0008 68.235 52 68.5C52 69.0304 51.7893 69.5391 51.4142 69.9142C51.0391 70.2893 50.5304 70.5 50 70.5C49.4696 70.5 48.9609 70.2893 48.5858 69.9142C48.2107 69.5391 48 69.0304 48 68.5C47.9992 68.235 47.8936 67.9811 47.7062 67.7938C47.5189 67.6064 47.265 67.5008 47 67.5H29C28.2051 67.4977 27.4434 67.1808 26.8813 66.6187C26.3192 66.0566 26.0023 65.2949 26 64.5V32.5C26.0023 31.7051 26.3191 30.9434 26.8812 30.3813C27.4434 29.8191 28.2051 29.5023 29 29.5H71C71.7949 29.5023 72.5566 29.8191 73.1188 30.3812C73.6809 30.9433 73.9977 31.7051 74 32.5V64.5Z" fill="#FF5D00"/>
<path d="M49.9995 42.065C50.196 41.871 50.399 41.6853 50.6027 41.5H49.3957C49.5994 41.6852 49.8025 41.8709 49.9995 42.065ZM38 52.54C42.0707 52.8286 45.9347 54.4436 49 57.1377V43.8945C46.1285 40.8023 42.2054 38.8943 38 38.5449V52.54ZM52.4943 58.5H55.7037L55.0967 56.6786C54.1771 57.2075 53.3061 57.817 52.4943 58.5Z" fill="#FF5D00"/>
<path d="M36 53.5V41.5H35C34.7349 41.5003 34.4807 41.6057 34.2932 41.7932C34.1057 41.9807 34.0003 42.2349 34 42.5V57.5C34.0003 57.7651 34.1057 58.0193 34.2932 58.2068C34.4807 58.3943 34.7349 58.4997 35 58.5H47.5062C44.5744 55.9788 40.8525 54.5636 36.9863 54.5C36.7235 54.4963 36.4727 54.3893 36.2882 54.2022C36.1036 54.0151 36.0001 53.7628 36 53.5ZM53.8897 53.0566C53.7769 52.7047 53.7634 52.3284 53.8504 51.9692C53.9375 51.61 54.1218 51.2818 54.3832 51.0204C54.6446 50.7591 54.9729 50.5749 55.3321 50.4879C55.6913 50.4009 56.0675 50.4146 56.4195 50.5274L62 52.3876V38.5449C57.7952 38.8965 53.8728 40.804 51 43.8945V57.1397C52.0657 56.2266 53.2239 55.4274 54.4557 54.7551L53.8897 53.0566Z" fill="#FF5D00"/>
<path d="M71 31.5H29C28.8687 31.5 28.7386 31.5258 28.6173 31.5761C28.4959 31.6263 28.3857 31.7 28.2928 31.7928C28.2 31.8857 28.1263 31.9959 28.0761 32.1173C28.0258 32.2386 28 32.3687 28 32.5V64.5C28 64.6313 28.0258 64.7614 28.0761 64.8827C28.1263 65.0041 28.2 65.1143 28.2928 65.2072C28.3857 65.3 28.4959 65.3737 28.6173 65.424C28.7386 65.4742 28.8687 65.5 29 65.5H71C71.1313 65.5 71.2614 65.4742 71.3827 65.424C71.5041 65.3737 71.6143 65.3 71.7072 65.2072C71.8 65.1143 71.8737 65.0041 71.924 64.8827C71.9742 64.7614 72 64.6313 72 64.5V32.5C72 32.3687 71.9742 32.2386 71.924 32.1173C71.8737 31.9959 71.8 31.8857 71.7072 31.7928C71.6143 31.7 71.5041 31.6263 71.3827 31.5761C71.2614 31.5258 71.1313 31.5 71 31.5ZM68 57.5C67.9989 58.1955 67.7564 58.869 67.3139 59.4056C66.8715 59.9421 66.2564 60.3085 65.5739 60.442C65.5483 60.5244 64.0998 61.9484 64 62.0517C63.8148 62.2381 63.5944 62.3858 63.3517 62.4864C63.109 62.587 62.8487 62.6384 62.586 62.6377C61.5071 62.7428 60.5596 61.3687 59.8628 60.7422C59.661 61.0247 59.3901 61.2508 59.076 61.3987C58.7619 61.5467 58.4151 61.6117 58.0687 61.5874C57.7223 61.5631 57.388 61.4503 57.0976 61.26C56.8072 61.0696 56.5705 60.8079 56.4101 60.5H35C34.2046 60.4991 33.4421 60.1828 32.8796 59.6204C32.3172 59.0579 32.0009 58.2954 32 57.5V42.5C32.0009 41.7046 32.3172 40.9421 32.8796 40.3796C33.4421 39.8172 34.2046 39.5009 35 39.5H36V37.5C36 37.3675 36.0263 37.2364 36.0775 37.1141C36.1286 36.9919 36.2035 36.8811 36.2979 36.7881C36.3893 36.6912 36.5006 36.6153 36.6242 36.5656C36.7478 36.5158 36.8806 36.4935 37.0137 36.5C40.4969 36.546 43.8945 37.5869 46.8057 39.5H53.192C56.1032 37.585 59.502 36.544 62.9863 36.5C63.1189 36.497 63.2508 36.521 63.3738 36.5705C63.4969 36.6201 63.6086 36.6941 63.7022 36.7881C63.7965 36.8811 63.8714 36.9919 63.9225 37.1141C63.9737 37.2364 64 37.3675 64 37.5V39.5H65C65.7954 39.5009 66.5579 39.8172 67.1204 40.3796C67.6828 40.9421 67.9991 41.7046 68 42.5V57.5Z" fill="#FF5D00"/>
<path d="M61.6934 56.5C61.6282 55.904 62.6357 55.2107 62.9634 54.8154C62.4565 54.6464 56.473 52.6518 55.7891 52.4238L58.1807 59.5986C58.5815 59.2664 59.2642 58.2658 59.8652 58.3281C60.1304 58.3282 60.3847 58.4336 60.5722 58.6211L62.5884 60.6377L64.0024 59.2236L61.9864 57.207C61.8935 57.1142 61.8198 57.004 61.7695 56.8827C61.7192 56.7613 61.6934 56.6313 61.6934 56.5ZM65.0025 41.5H64.0025V53.1138C64.2848 53.2927 64.5189 53.5381 64.6845 53.8283C64.8501 54.1186 64.9421 54.445 64.9525 54.7791C64.9629 55.1131 64.8913 55.4446 64.744 55.7446C64.5967 56.0446 64.3781 56.3039 64.1075 56.5C64.6787 57.0297 65.2146 57.5964 65.7115 58.1963C65.8037 58.1053 65.8769 57.9968 65.9268 57.8773C65.9768 57.7578 66.0025 57.6295 66.0025 57.5V42.5C66.0023 42.2349 65.8968 41.9806 65.7093 41.7932C65.5218 41.6057 65.2676 41.5002 65.0025 41.5Z" fill="#FF5D00"/>
</svg>
