<svg width="100" height="101" viewBox="0 0 100 101" fill="none" xmlns="http://www.w3.org/2000/svg">
<path d="M100 50.5C100 78.1142 77.6142 100.5 50 100.5C22.3858 100.5 0 78.1142 0 50.5C0 22.8858 22.3858 0.5 50 0.5C77.6142 0.5 100 22.8858 100 50.5Z" fill="#FF5D00" fill-opacity="0.1"/>
<path d="M68.198 53.226C64.5956 41.4201 56.3039 30.3727 47.0744 25.0791C46.5546 24.7802 46.0383 24.5093 45.5245 24.2533C45.3685 24.1755 45.2136 24.1049 45.0582 24.0312C44.6902 23.8566 44.3242 23.6928 43.9601 23.5399C43.7966 23.4716 43.6332 23.4032 43.4705 23.3394C43.0692 23.1819 42.6709 23.0385 42.2755 22.9094C42.1719 22.8753 42.0671 22.8351 41.964 22.8031C41.4689 22.6488 40.9792 22.5169 40.4948 22.4073C40.3804 22.3813 40.2681 22.3636 40.1543 22.34C39.782 22.2629 39.4128 22.1976 39.0477 22.147C38.8975 22.1262 38.7483 22.1087 38.5994 22.0924C38.2542 22.0546 37.9131 22.0302 37.5753 22.0167C37.4471 22.0115 37.3174 22.0023 37.1903 22.0007C36.8576 21.9964 36.532 22.0139 36.2073 22.0339C36.061 22.0428 35.9115 22.0421 35.767 22.0561C35.3111 22.0983 34.858 22.1667 34.4101 22.2608C33.8269 22.3886 33.2549 22.5626 32.6996 22.7811C32.6913 22.7844 32.6163 22.8123 32.608 22.8156C27.7826 24.759 25 30.1461 25 37.5833C25.0058 39.4302 25.1602 41.2737 25.4618 43.096C27.6317 56.4596 37.0764 70.6815 47.9181 76.9147C53.9592 80.3839 59.5706 80.9469 63.7198 78.5053C63.7305 78.499 63.7392 78.4921 63.7499 78.4858L63.7511 78.4847C64.0269 78.3254 64.2908 78.1551 64.5427 77.9738C64.7928 77.7944 65.0329 77.6017 65.262 77.3965C65.288 77.3731 65.3155 77.3514 65.3445 77.3317C68.3902 74.6316 70 70.1661 70 64.4097C69.9541 60.614 69.347 56.8457 68.198 53.226ZM58.7459 43.2249V61.3944C58.7407 61.4428 58.731 61.4907 58.7169 61.5374C58.7235 61.655 58.7459 61.7756 58.7459 61.8917C58.8013 62.5197 58.6856 63.151 58.4108 63.7191C58.1361 64.2871 57.7125 64.7709 57.1847 65.1196C56.7455 65.3697 56.2474 65.4991 55.7414 65.4946C54.9684 65.4714 54.2151 65.2467 53.5567 64.843C52.2873 64.0348 51.2307 62.936 50.475 61.6385C49.7193 60.3409 49.2866 58.8823 49.213 57.3844C49.1575 56.7563 49.2733 56.125 49.5482 55.5569C49.8231 54.9888 50.2469 54.5051 50.775 54.1566C51.3486 53.8742 51.9881 53.7509 52.6263 53.7995C53.2644 53.8482 53.8776 54.0671 54.4013 54.4332C55.4644 55.0824 56.371 55.9563 57.0569 56.993V47.4441C56.8964 47.3393 56.7582 47.204 56.6503 47.0461C55.7533 45.7 54.5675 44.5687 53.1782 43.7337C51.7902 42.936 50.5086 42.7472 49.7498 43.2298C48.4303 44.0669 46.5433 43.8995 44.5714 42.7677C43.6977 42.2524 42.8955 41.6254 42.1855 40.9026V55.8596C42.241 56.4877 42.1252 57.1191 41.8503 57.6871C41.5754 58.2552 41.1516 58.739 40.6235 59.0874C40.1849 59.3374 39.6873 59.4669 39.1819 59.4625C38.4089 59.4393 37.6556 59.2146 36.9972 58.8108C35.7277 58.0026 34.6709 56.9039 33.9151 55.6064C33.1593 54.3089 32.7264 52.8502 32.6526 51.3523C32.5971 50.7243 32.7129 50.093 32.9876 49.525C33.2624 48.9569 33.686 48.4731 34.2138 48.1245C34.7878 47.8423 35.4275 47.719 36.0659 47.7677C36.7042 47.8164 37.3176 48.0351 37.8417 48.4011C38.9046 49.0499 39.8109 49.9236 40.4965 50.9601V34.9719C40.4826 34.7343 40.545 34.4985 40.6747 34.2985C40.8045 34.0986 40.9948 33.9449 41.2181 33.8598C41.4538 33.7856 41.7071 33.7883 41.9411 33.8676C42.1751 33.9469 42.3775 34.0986 42.5187 34.3005C43.3202 35.3149 44.3022 36.1739 45.4159 36.8349C46.8023 37.6318 48.0822 37.8197 48.8393 37.3363C50.1564 36.4984 52.0458 36.6658 54.0227 37.8008C55.8738 38.9164 57.4134 40.477 58.5001 42.3393C58.5286 42.3875 58.5417 42.4426 58.5654 42.4934C58.6787 42.6345 58.7421 42.8088 58.7459 42.9893L58.7459 43.2249Z" fill="#FF5D00"/>
</svg>
