<svg width="100" height="101" viewBox="0 0 100 101" fill="none" xmlns="http://www.w3.org/2000/svg">
<path d="M100 50.5C100 78.1142 77.6142 100.5 50 100.5C22.3858 100.5 0 78.1142 0 50.5C0 22.8858 22.3858 0.5 50 0.5C77.6142 0.5 100 22.8858 100 50.5Z" fill="#FF5D00" fill-opacity="0.1"/>
<path fill-rule="evenodd" clip-rule="evenodd" d="M31 72.1352C31.0015 73.4248 31.4891 74.6612 32.3559 75.5732C33.2227 76.4852 34.398 76.9983 35.6239 77H63.3761C64.6021 76.9984 65.7774 76.4854 66.6443 75.5734C67.5111 74.6614 67.9987 73.4249 68 72.1352V38.7811C67.9999 38.6178 67.9691 38.4562 67.9094 38.3055C67.8496 38.1548 67.7621 38.018 67.6518 37.9031L54.7878 24.3633C54.5655 24.1312 54.2652 24.0006 53.952 24H35.6239C34.3978 24.0019 33.2225 24.5152 32.3557 25.4274C31.4889 26.3396 31.0013 27.5762 31 28.866V72.1352ZM63.9656 37.5374H57.6427C56.8819 37.5363 56.1525 37.2177 55.6146 36.6516C55.0768 36.0854 54.7744 35.318 54.7738 34.5176V27.8655L63.9656 37.5374ZM38.0058 42.5712C37.6928 42.5707 37.3928 42.4396 37.1717 42.2066C36.9505 41.9737 36.8263 41.6579 36.8263 41.3286V31.7639C36.8265 31.4348 36.9507 31.1191 37.1719 30.8863C37.393 30.6534 37.6929 30.5224 38.0058 30.5219H47.1002C47.413 30.5224 47.7129 30.6535 47.9339 30.8863C48.1549 31.1192 48.2791 31.4348 48.2791 31.7639V41.3286C48.2791 41.6578 48.155 41.9735 47.9339 42.2064C47.7129 42.4394 47.413 42.5706 47.1002 42.5712H38.0058ZM39.1892 33.0059H45.9173V40.0867H39.1892V33.0059ZM36.037 49.4029C36.0372 49.2395 36.0679 49.0778 36.1275 48.9269C36.1871 48.776 36.2743 48.639 36.3843 48.5236C36.4942 48.4082 36.6247 48.3167 36.7683 48.2544C36.9118 48.1921 37.0657 48.1601 37.221 48.1603H61.779C61.9341 48.1603 62.0877 48.1925 62.231 48.2549C62.3744 48.3174 62.5046 48.4089 62.6142 48.5243C62.7239 48.6397 62.8109 48.7766 62.8703 48.9274C62.9296 49.0781 62.9602 49.2397 62.9602 49.4029C62.9602 49.5661 62.9296 49.7277 62.8703 49.8784C62.8109 50.0292 62.7239 50.1661 62.6142 50.2815C62.5046 50.3969 62.3744 50.4884 62.231 50.5509C62.0877 50.6133 61.9341 50.6455 61.779 50.6455H37.221C37.0657 50.6457 36.9118 50.6137 36.7683 50.5514C36.6247 50.4891 36.4942 50.3976 36.3843 50.2822C36.2743 50.1668 36.1871 50.0298 36.1275 49.8789C36.0679 49.728 36.0372 49.5663 36.037 49.4029ZM36.037 56.1103C36.0372 55.947 36.0679 55.7853 36.1275 55.6344C36.1871 55.4836 36.2744 55.3466 36.3843 55.2312C36.4943 55.1159 36.6248 55.0245 36.7683 54.9622C36.9119 54.9 37.0657 54.8681 37.221 54.8684H61.779C61.9363 54.8648 62.0926 54.8942 62.2389 54.9551C62.3852 55.0159 62.5184 55.1068 62.6308 55.2225C62.7432 55.3382 62.8325 55.4764 62.8935 55.6289C62.9545 55.7814 62.9859 55.9452 62.9859 56.1106C62.9859 56.2761 62.9545 56.4399 62.8935 56.5924C62.8325 56.7449 62.7432 56.8831 62.6308 56.9988C62.5184 57.1145 62.3852 57.2054 62.2389 57.2662C62.0926 57.327 61.9363 57.3565 61.779 57.3529H37.221C37.0656 57.3532 36.9118 57.3213 36.7682 57.259C36.6246 57.1967 36.4941 57.1052 36.3841 56.9898C36.2742 56.8744 36.1869 56.7374 36.1273 56.5864C36.0678 56.4355 36.0371 56.2737 36.037 56.1103ZM36.037 62.8184C36.0372 62.655 36.0679 62.4933 36.1275 62.3425C36.1871 62.1916 36.2744 62.0546 36.3843 61.9393C36.4943 61.8239 36.6248 61.7325 36.7683 61.6703C36.9119 61.608 37.0657 61.5761 37.221 61.5764H61.779C61.9363 61.5728 62.0926 61.6023 62.2389 61.6631C62.3852 61.7239 62.5184 61.8148 62.6308 61.9305C62.7432 62.0463 62.8325 62.1844 62.8935 62.3369C62.9545 62.4894 62.9859 62.6532 62.9859 62.8187C62.9859 62.9841 62.9545 63.1479 62.8935 63.3004C62.8325 63.4529 62.7432 63.5911 62.6308 63.7068C62.5184 63.8225 62.3852 63.9134 62.2389 63.9743C62.0926 64.0351 61.9363 64.0645 61.779 64.0609H37.221C37.0656 64.0612 36.9118 64.0293 36.7682 63.967C36.6246 63.9047 36.4941 63.8133 36.3841 63.6979C36.2742 63.5825 36.1869 63.4454 36.1273 63.2945C36.0678 63.1436 36.0371 62.9818 36.037 62.8184ZM36.037 69.5264C36.0371 69.363 36.0678 69.2012 36.1273 69.0503C36.1869 68.8994 36.2742 68.7623 36.3841 68.6469C36.4941 68.5315 36.6246 68.44 36.7682 68.3778C36.9118 68.3155 37.0656 68.2835 37.221 68.2839H61.779C61.9363 68.2803 62.0926 68.3097 62.2389 68.3705C62.3852 68.4313 62.5184 68.5223 62.6308 68.638C62.7432 68.7537 62.8325 68.8919 62.8935 69.0444C62.9545 69.1969 62.9859 69.3607 62.9859 69.5261C62.9859 69.6916 62.9545 69.8554 62.8935 70.0079C62.8325 70.1604 62.7432 70.2985 62.6308 70.4142C62.5184 70.53 62.3852 70.6209 62.2389 70.6817C62.0926 70.7425 61.9363 70.772 61.779 70.7684H37.221C37.0657 70.7687 36.9119 70.7368 36.7683 70.6745C36.6248 70.6123 36.4943 70.5209 36.3843 70.4055C36.2744 70.2902 36.1871 70.1532 36.1275 70.0023C36.0679 69.8515 36.0372 69.6898 36.037 69.5264Z" fill="#FF5D00"/>
</svg>
