<svg width="100" height="101" viewBox="0 0 100 101" fill="none" xmlns="http://www.w3.org/2000/svg">
<path d="M100 50.5C100 78.1142 77.6142 100.5 50 100.5C22.3858 100.5 0 78.1142 0 50.5C0 22.8858 22.3858 0.5 50 0.5C77.6142 0.5 100 22.8858 100 50.5Z" fill="#FF5D00" fill-opacity="0.1"/>
<path d="M28 69.4873V72.1873C28.0022 74.6713 30.016 76.6851 32.5 76.6873H54.1C56.584 76.6851 58.5978 74.6713 58.6 72.1873V69.4873H28ZM43.2997 74.8873C42.5707 74.8873 41.916 74.4486 41.637 73.7758C41.358 73.103 41.5132 72.3291 42.0262 71.8138C42.5415 71.3008 43.3155 71.1456 43.9882 71.4246C44.661 71.7036 45.0997 72.3583 45.0997 73.0873C45.0997 73.5643 44.9107 74.0233 44.5732 74.3608C44.2357 74.6983 43.7767 74.8873 43.2997 74.8873Z" fill="#FF5D00"/>
<path d="M58.6 28.0875V27.1875C58.5977 24.7035 56.584 22.6897 54.1 22.6875H32.5C30.016 22.6897 28.0022 24.7035 28 27.1875V28.0875H58.6ZM37.8997 24.4875H48.6997C49.197 24.4875 49.5997 24.8903 49.5997 25.3875C49.5997 25.8847 49.197 26.2875 48.6997 26.2875H37.8997C37.4025 26.2875 36.9997 25.8847 36.9997 25.3875C36.9997 24.8903 37.4025 24.4875 37.8997 24.4875Z" fill="#FF5D00"/>
<path d="M45.0997 64.0877C42.6157 64.0854 40.602 62.0717 40.5997 59.5877V37.9877C40.602 35.5037 42.6157 33.4899 45.0997 33.4877H58.6V29.8877H28V67.6877H58.6V64.0877H45.0997Z" fill="#FF5D00"/>
<path d="M54.9292 54.916L52.4182 56.4235C52.3214 56.482 52.2764 56.5968 52.3057 56.7048C52.3349 56.8128 52.434 56.887 52.5464 56.887H55.0844C55.0259 56.59 54.9967 56.2885 54.9967 55.987L54.9292 54.916Z" fill="#FF5D00"/>
<path d="M47.7969 49.3725V49.6875H54.6029L54.3981 46.4385L47.7969 49.3725Z" fill="#FF5D00"/>
<path d="M56.7984 40.6877C56.3012 40.6877 55.8984 41.0905 55.8984 41.5877L56.7962 55.9313C56.7962 55.956 56.7962 55.9808 56.7984 56.0055V55.9853L56.8007 55.9313L57.7007 41.5313C57.6737 41.0543 57.2754 40.6832 56.7984 40.6877Z" fill="#FF5D00"/>
<path d="M79.2984 35.2871H71.1987V36.1871C71.1987 36.6844 70.796 37.0871 70.2987 37.0871C69.8015 37.0871 69.3987 36.6844 69.3987 36.1871V35.2871H45.0984C43.609 35.2894 42.4007 36.4976 42.3984 37.9871V59.5871C42.4007 61.0766 43.609 62.2849 45.0984 62.2871H69.3987V61.3871C69.3987 60.8899 69.8015 60.4871 70.2987 60.4871C70.796 60.4871 71.1987 60.8899 71.1987 61.3871V62.2871H79.2984C80.7879 62.2849 81.9962 61.0766 81.9984 59.5871V37.9871C81.9962 36.4976 80.7879 35.2894 79.2984 35.2871ZM70.2984 58.6871C69.9924 58.6871 69.6864 58.7411 69.3984 58.8469V56.8871H71.1984V58.8469C70.9104 58.7411 70.6045 58.6871 70.2984 58.6871ZM70.2984 38.8871C70.6044 38.8871 70.9104 38.8331 71.1984 38.7274V40.6871H69.3984V38.7274C69.6864 38.8331 69.9924 38.8871 70.2984 38.8871ZM69.3984 51.4871V49.6871H71.1984V51.4871H69.3984ZM71.1984 53.2871V55.0871H69.3984V53.2871H71.1984ZM69.3984 47.8871V46.0871H71.1984V47.8871H69.3984ZM69.3984 44.2871V42.4871H71.1984V44.2871H69.3984ZM54.1005 41.6434C54.0847 40.9234 54.357 40.2259 54.8587 39.7061C55.3604 39.1886 56.0489 38.8916 56.7712 38.8849C57.4912 38.8781 58.1864 39.1594 58.6995 39.6656C59.2102 40.1741 59.4982 40.8649 59.4982 41.5871L59.316 44.5211L66.5292 47.7274C67.1794 48.0154 67.598 48.6611 67.598 49.3722V49.6872C67.5957 50.6817 66.7925 51.4849 65.798 51.4872H58.8814L58.7936 52.8934L62.1034 54.8801C62.8931 55.3549 63.2688 56.2976 63.0236 57.1841C62.7784 58.0729 61.9684 58.6872 61.0481 58.6872H52.5475C51.6273 58.6872 50.8173 58.0729 50.572 57.1841C50.3268 56.2976 50.7025 55.3549 51.4923 54.8801L54.8043 52.8934L54.7165 51.4872H47.7976C46.8031 51.4849 45.9999 50.6817 45.9976 49.6872V49.3722C45.9976 48.6611 46.4161 48.0154 47.0664 47.7274L54.2797 44.5211L54.1005 41.6434Z" fill="#FF5D00"/>
<path d="M58.6034 56.017C58.6011 56.3095 58.5719 56.602 58.5156 56.8877H61.0536C61.1661 56.8877 61.2651 56.8135 61.2943 56.7055C61.3236 56.5975 61.2786 56.4827 61.1818 56.4242L58.6708 54.9189L58.6034 56.017Z" fill="#FF5D00"/>
<path d="M58.9922 49.6875H65.7959V49.3725L59.1944 46.4385L58.9922 49.6875Z" fill="#FF5D00"/>
</svg>
