<svg width="72" height="50" viewBox="0 0 72 50" fill="none" xmlns="http://www.w3.org/2000/svg">
<path d="M2.60163 35.1328V36H1.73442V35.1328H2.60163ZM2.60163 34.2656V35.1328H1.73442V34.2656H2.60163ZM2.60163 33.3984V34.2656H1.73442V33.3984H2.60163ZM2.60163 32.5312V33.3984H1.73442V32.5312H2.60163ZM2.60163 31.664V32.5312H1.73442V31.664H2.60163ZM2.60163 30.7967V31.664H1.73442V30.7967H2.60163ZM2.60163 29.9295V30.7967H1.73442V29.9295H2.60163ZM2.60163 29.0623V29.9295H1.73442V29.0623H2.60163ZM2.60163 28.1951V29.0623H1.73442V28.1951H2.60163ZM2.60163 27.3279V28.1951H1.73442V27.3279H2.60163ZM2.60163 26.4607V27.3279H1.73442V26.4607H2.60163ZM2.60163 25.5935V26.4607H1.73442V25.5935H2.60163ZM2.60163 24.7263V25.5935H1.73442V24.7263H2.60163ZM2.60163 23.8591V24.7263H1.73442V23.8591H2.60163ZM2.60163 22.9919V23.8591H1.73442V22.9919H2.60163ZM3.46883 22.9919V23.8591H2.60163V22.9919H3.46883ZM3.46883 23.8591V24.7263H2.60163V23.8591H3.46883ZM3.46883 24.7263V25.5935H2.60163V24.7263H3.46883ZM3.46883 25.5935V26.4607H2.60163V25.5935H3.46883ZM3.46883 26.4607V27.3279H2.60163V26.4607H3.46883ZM3.46883 27.3279V28.1951H2.60163V27.3279H3.46883ZM3.46883 28.1951V29.0623H2.60163V28.1951H3.46883ZM4.33604 29.0623V29.9295H3.46883V29.0623H4.33604ZM4.33604 29.9295V30.7967H3.46883V29.9295H4.33604ZM4.33604 30.7967V31.664H3.46883V30.7967H4.33604ZM4.33604 31.664V32.5312H3.46883V31.664H4.33604ZM4.33604 32.5312V33.3984H3.46883V32.5312H4.33604ZM4.33604 33.3984V34.2656H3.46883V33.3984H4.33604ZM4.33604 34.2656V35.1328H3.46883V34.2656H4.33604ZM4.33604 35.1328V36H3.46883V35.1328H4.33604ZM5.20325 35.1328V36H4.33604V35.1328H5.20325ZM6.07046 35.1328V36H5.20325V35.1328H6.07046ZM6.07046 34.2656V35.1328H5.20325V34.2656H6.07046ZM6.07046 33.3984V34.2656H5.20325V33.3984H6.07046ZM6.07046 32.5312V33.3984H5.20325V32.5312H6.07046ZM6.07046 31.664V32.5312H5.20325V31.664H6.07046ZM6.07046 30.7967V31.664H5.20325V30.7967H6.07046ZM6.07046 29.9295V30.7967H5.20325V29.9295H6.07046ZM6.07046 29.0623V29.9295H5.20325V29.0623H6.07046ZM5.20325 29.0623V29.9295H4.33604V29.0623H5.20325ZM5.20325 28.1951V29.0623H4.33604V28.1951H5.20325ZM5.20325 29.9295V30.7967H4.33604V29.9295H5.20325ZM5.20325 30.7967V31.664H4.33604V30.7967H5.20325ZM5.20325 31.664V32.5312H4.33604V31.664H5.20325ZM5.20325 32.5312V33.3984H4.33604V32.5312H5.20325ZM5.20325 33.3984V34.2656H4.33604V33.3984H5.20325ZM5.20325 34.2656V35.1328H4.33604V34.2656H5.20325ZM3.46883 35.1328V36H2.60163V35.1328H3.46883ZM3.46883 34.2656V35.1328H2.60163V34.2656H3.46883ZM3.46883 33.3984V34.2656H2.60163V33.3984H3.46883ZM3.46883 32.5312V33.3984H2.60163V32.5312H3.46883ZM3.46883 31.664V32.5312H2.60163V31.664H3.46883ZM3.46883 30.7967V31.664H2.60163V30.7967H3.46883ZM3.46883 29.9295V30.7967H2.60163V29.9295H3.46883ZM3.46883 29.0623V29.9295H2.60163V29.0623H3.46883ZM2.60163 19.523V20.3902H1.73442V19.523H2.60163ZM2.60163 20.3902V21.2575H1.73442V20.3902H2.60163ZM2.60163 21.2575V22.1247H1.73442V21.2575H2.60163ZM2.60163 22.1247V22.9919H1.73442V22.1247H2.60163ZM5.20325 20.3902V21.2575H4.33604V20.3902H5.20325ZM5.20325 21.2575V22.1247H4.33604V21.2575H5.20325ZM5.20325 22.1247V22.9919H4.33604V22.1247H5.20325ZM5.20325 22.9919V23.8591H4.33604V22.9919H5.20325ZM5.20325 23.8591V24.7263H4.33604V23.8591H5.20325ZM5.20325 24.7263V25.5935H4.33604V24.7263H5.20325ZM5.20325 25.5935V26.4607H4.33604V25.5935H5.20325ZM6.07046 26.4607V27.3279H5.20325V26.4607H6.07046ZM6.07046 27.3279V28.1951H5.20325V27.3279H6.07046ZM6.07046 28.1951V29.0623H5.20325V28.1951H6.07046ZM6.07046 25.5935V26.4607H5.20325V25.5935H6.07046ZM6.07046 24.7263V25.5935H5.20325V24.7263H6.07046ZM6.07046 23.8591V24.7263H5.20325V23.8591H6.07046ZM6.07046 22.9919V23.8591H5.20325V22.9919H6.07046ZM6.07046 22.1247V22.9919H5.20325V22.1247H6.07046ZM6.07046 21.2575V22.1247H5.20325V21.2575H6.07046ZM6.07046 20.3902V21.2575H5.20325V20.3902H6.07046ZM6.07046 19.523V20.3902H5.20325V19.523H6.07046ZM5.20325 19.523V20.3902H4.33604V19.523H5.20325ZM4.33604 19.523V20.3902H3.46883V19.523H4.33604ZM4.33604 20.3902V21.2575H3.46883V20.3902H4.33604ZM3.46883 21.2575V22.1247H2.60163V21.2575H3.46883ZM3.46883 22.1247V22.9919H2.60163V22.1247H3.46883ZM3.46883 20.3902V21.2575H2.60163V20.3902H3.46883ZM3.46883 19.523V20.3902H2.60163V19.523H3.46883ZM4.33604 21.2575V22.1247H3.46883V21.2575H4.33604ZM4.33604 22.1247V22.9919H3.46883V22.1247H4.33604ZM4.33604 22.9919V23.8591H3.46883V22.9919H4.33604ZM4.33604 23.8591V24.7263H3.46883V23.8591H4.33604ZM4.33604 24.7263V25.5935H3.46883V24.7263H4.33604ZM4.33604 25.5935V26.4607H3.46883V25.5935H4.33604ZM4.33604 26.4607V27.3279H3.46883V26.4607H4.33604ZM4.33604 27.3279V28.1951H3.46883V27.3279H4.33604ZM4.33604 28.1951V29.0623H3.46883V28.1951H4.33604ZM5.20325 27.3279V28.1951H4.33604V27.3279H5.20325ZM5.20325 26.4607V27.3279H4.33604V26.4607H5.20325ZM10.4065 35.1328V36H9.5393V35.1328H10.4065ZM11.2737 35.1328V36H10.4065V35.1328H11.2737ZM12.1409 35.1328V36H11.2737V35.1328H12.1409ZM13.0081 35.1328V36H12.1409V35.1328H13.0081ZM13.8753 34.2656V35.1328H13.0081V34.2656H13.8753ZM13.8753 33.3984V34.2656H13.0081V33.3984H13.8753ZM13.8753 35.1328V36H13.0081V35.1328H13.8753ZM13.0081 34.2656V35.1328H12.1409V34.2656H13.0081ZM12.1409 34.2656V35.1328H11.2737V34.2656H12.1409ZM11.2737 34.2656V35.1328H10.4065V34.2656H11.2737ZM10.4065 34.2656V35.1328H9.5393V34.2656H10.4065ZM10.4065 33.3984V34.2656H9.5393V33.3984H10.4065ZM10.4065 32.5312V33.3984H9.5393V32.5312H10.4065ZM11.2737 32.5312V33.3984H10.4065V32.5312H11.2737ZM12.1409 32.5312V33.3984H11.2737V32.5312H12.1409ZM13.0081 32.5312V33.3984H12.1409V32.5312H13.0081ZM13.8753 32.5312V33.3984H13.0081V32.5312H13.8753ZM13.0081 33.3984V34.2656H12.1409V33.3984H13.0081ZM12.1409 33.3984V34.2656H11.2737V33.3984H12.1409ZM11.2737 33.3984V34.2656H10.4065V33.3984H11.2737ZM13.0081 22.9919V23.8591H12.1409V22.9919H13.0081ZM11.2737 22.9919V23.8591H10.4065V22.9919H11.2737ZM11.2737 23.8591V24.7263H10.4065V23.8591H11.2737ZM11.2737 24.7263V25.5935H10.4065V24.7263H11.2737ZM10.4065 25.5935V26.4607H9.5393V25.5935H10.4065ZM10.4065 26.4607V27.3279H9.5393V26.4607H10.4065ZM10.4065 27.3279V28.1951H9.5393V27.3279H10.4065ZM10.4065 28.1951V29.0623H9.5393V28.1951H10.4065ZM10.4065 29.0623V29.9295H9.5393V29.0623H10.4065ZM10.4065 29.9295V30.7967H9.5393V29.9295H10.4065ZM10.4065 30.7967V31.664H9.5393V30.7967H10.4065ZM10.4065 31.664V32.5312H9.5393V31.664H10.4065ZM11.2737 31.664V32.5312H10.4065V31.664H11.2737ZM12.1409 31.664V32.5312H11.2737V31.664H12.1409ZM13.0081 31.664V32.5312H12.1409V31.664H13.0081ZM13.8753 31.664V32.5312H13.0081V31.664H13.8753ZM13.8753 30.7967V31.664H13.0081V30.7967H13.8753ZM13.8753 29.0623V29.9295H13.0081V29.0623H13.8753ZM13.8753 28.1951V29.0623H13.0081V28.1951H13.8753ZM13.8753 27.3279V28.1951H13.0081V27.3279H13.8753ZM13.8753 26.4607V27.3279H13.0081V26.4607H13.8753ZM13.8753 25.5935V26.4607H13.0081V25.5935H13.8753ZM13.8753 24.7263V25.5935H13.0081V24.7263H13.8753ZM13.0081 27.3279V28.1951H12.1409V27.3279H13.0081ZM13.0081 29.0623V29.9295H12.1409V29.0623H13.0081ZM13.0081 29.9295V30.7967H12.1409V29.9295H13.0081ZM13.0081 30.7967V31.664H12.1409V30.7967H13.0081ZM13.8753 29.9295V30.7967H13.0081V29.9295H13.8753ZM13.0081 25.5935V26.4607H12.1409V25.5935H13.0081ZM12.1409 25.5935V26.4607H11.2737V25.5935H12.1409ZM11.2737 25.5935V26.4607H10.4065V25.5935H11.2737ZM11.2737 26.4607V27.3279H10.4065V26.4607H11.2737ZM11.2737 27.3279V28.1951H10.4065V27.3279H11.2737ZM11.2737 28.1951V29.0623H10.4065V28.1951H11.2737ZM11.2737 29.0623V29.9295H10.4065V29.0623H11.2737ZM11.2737 29.9295V30.7967H10.4065V29.9295H11.2737ZM11.2737 30.7967V31.664H10.4065V30.7967H11.2737ZM12.1409 30.7967V31.664H11.2737V30.7967H12.1409ZM12.1409 29.9295V30.7967H11.2737V29.9295H12.1409ZM12.1409 29.0623V29.9295H11.2737V29.0623H12.1409ZM12.1409 28.1951V29.0623H11.2737V28.1951H12.1409ZM12.1409 27.3279V28.1951H11.2737V27.3279H12.1409ZM12.1409 26.4607V27.3279H11.2737V26.4607H12.1409ZM13.0081 26.4607V27.3279H12.1409V26.4607H13.0081ZM13.0081 28.1951V29.0623H12.1409V28.1951H13.0081ZM13.0081 24.7263V25.5935H12.1409V24.7263H13.0081ZM13.0081 23.8591V24.7263H12.1409V23.8591H13.0081ZM12.1409 23.8591V24.7263H11.2737V23.8591H12.1409ZM12.1409 24.7263V25.5935H11.2737V24.7263H12.1409ZM10.4065 24.7263V25.5935H9.5393V24.7263H10.4065ZM10.4065 23.8591V24.7263H9.5393V23.8591H10.4065ZM10.4065 22.9919V23.8591H9.5393V22.9919H10.4065ZM12.1409 22.9919V23.8591H11.2737V22.9919H12.1409ZM10.4065 19.523V20.3902H9.5393V19.523H10.4065ZM10.4065 20.3902V21.2575H9.5393V20.3902H10.4065ZM11.2737 20.3902V21.2575H10.4065V20.3902H11.2737ZM12.1409 20.3902V21.2575H11.2737V20.3902H12.1409ZM12.1409 21.2575V22.1247H11.2737V21.2575H12.1409ZM13.0081 21.2575V22.1247H12.1409V21.2575H13.0081ZM13.0081 22.1247V22.9919H12.1409V22.1247H13.0081ZM12.1409 22.1247V22.9919H11.2737V22.1247H12.1409ZM11.2737 22.1247V22.9919H10.4065V22.1247H11.2737ZM11.2737 21.2575V22.1247H10.4065V21.2575H11.2737ZM10.4065 21.2575V22.1247H9.5393V21.2575H10.4065ZM9.5393 21.2575V22.1247H8.67209V21.2575H9.5393ZM9.5393 22.1247V22.9919H8.67209V22.1247H9.5393ZM10.4065 22.1247V22.9919H9.5393V22.1247H10.4065ZM9.5393 22.9919V23.8591H8.67209V22.9919H9.5393ZM9.5393 19.523V20.3902H8.67209V19.523H9.5393ZM9.5393 20.3902V21.2575H8.67209V20.3902H9.5393ZM8.67209 19.523V20.3902H7.80488V19.523H8.67209ZM8.67209 20.3902V21.2575H7.80488V20.3902H8.67209ZM8.67209 21.2575V22.1247H7.80488V21.2575H8.67209ZM7.80488 20.3902V21.2575H6.93767V20.3902H7.80488ZM6.93767 21.2575V22.1247H6.07046V21.2575H6.93767ZM6.93767 22.1247V22.9919H6.07046V22.1247H6.93767ZM7.80488 22.1247V22.9919H6.93767V22.1247H7.80488ZM7.80488 21.2575V22.1247H6.93767V21.2575H7.80488ZM6.93767 22.9919V23.8591H6.07046V22.9919H6.93767ZM18.2114 35.1328V36H17.3442V35.1328H18.2114ZM19.0786 35.1328V36H18.2114V35.1328H19.0786ZM19.9458 35.1328V36H19.0786V35.1328H19.9458ZM20.813 35.1328V36H19.9458V35.1328H20.813ZM21.6802 34.2656V35.1328H20.813V34.2656H21.6802ZM21.6802 33.3984V34.2656H20.813V33.3984H21.6802ZM21.6802 35.1328V36H20.813V35.1328H21.6802ZM20.813 34.2656V35.1328H19.9458V34.2656H20.813ZM19.9458 34.2656V35.1328H19.0786V34.2656H19.9458ZM19.0786 34.2656V35.1328H18.2114V34.2656H19.0786ZM18.2114 34.2656V35.1328H17.3442V34.2656H18.2114ZM18.2114 33.3984V34.2656H17.3442V33.3984H18.2114ZM18.2114 32.5312V33.3984H17.3442V32.5312H18.2114ZM19.0786 32.5312V33.3984H18.2114V32.5312H19.0786ZM19.9458 32.5312V33.3984H19.0786V32.5312H19.9458ZM20.813 32.5312V33.3984H19.9458V32.5312H20.813ZM21.6802 32.5312V33.3984H20.813V32.5312H21.6802ZM20.813 33.3984V34.2656H19.9458V33.3984H20.813ZM19.9458 33.3984V34.2656H19.0786V33.3984H19.9458ZM19.0786 33.3984V34.2656H18.2114V33.3984H19.0786ZM21.6802 22.9919V23.8591H20.813V22.9919H21.6802ZM20.813 22.9919V23.8591H19.9458V22.9919H20.813ZM19.0786 22.9919V23.8591H18.2114V22.9919H19.0786ZM19.0786 23.8591V24.7263H18.2114V23.8591H19.0786ZM19.0786 24.7263V25.5935H18.2114V24.7263H19.0786ZM18.2114 25.5935V26.4607H17.3442V25.5935H18.2114ZM18.2114 26.4607V27.3279H17.3442V26.4607H18.2114ZM18.2114 27.3279V28.1951H17.3442V27.3279H18.2114ZM18.2114 28.1951V29.0623H17.3442V28.1951H18.2114ZM18.2114 29.0623V29.9295H17.3442V29.0623H18.2114ZM18.2114 29.9295V30.7967H17.3442V29.9295H18.2114ZM18.2114 30.7967V31.664H17.3442V30.7967H18.2114ZM18.2114 31.664V32.5312H17.3442V31.664H18.2114ZM19.0786 31.664V32.5312H18.2114V31.664H19.0786ZM19.9458 31.664V32.5312H19.0786V31.664H19.9458ZM20.813 31.664V32.5312H19.9458V31.664H20.813ZM21.6802 31.664V32.5312H20.813V31.664H21.6802ZM21.6802 30.7967V31.664H20.813V30.7967H21.6802ZM21.6802 29.0623V29.9295H20.813V29.0623H21.6802ZM21.6802 28.1951V29.0623H20.813V28.1951H21.6802ZM21.6802 27.3279V28.1951H20.813V27.3279H21.6802ZM21.6802 26.4607V27.3279H20.813V26.4607H21.6802ZM21.6802 25.5935V26.4607H20.813V25.5935H21.6802ZM21.6802 24.7263V25.5935H20.813V24.7263H21.6802ZM21.6802 23.8591V24.7263H20.813V23.8591H21.6802ZM20.813 27.3279V28.1951H19.9458V27.3279H20.813ZM20.813 29.0623V29.9295H19.9458V29.0623H20.813ZM20.813 29.9295V30.7967H19.9458V29.9295H20.813ZM20.813 30.7967V31.664H19.9458V30.7967H20.813ZM21.6802 29.9295V30.7967H20.813V29.9295H21.6802ZM20.813 25.5935V26.4607H19.9458V25.5935H20.813ZM19.9458 25.5935V26.4607H19.0786V25.5935H19.9458ZM19.0786 25.5935V26.4607H18.2114V25.5935H19.0786ZM19.0786 26.4607V27.3279H18.2114V26.4607H19.0786ZM19.0786 27.3279V28.1951H18.2114V27.3279H19.0786ZM19.0786 28.1951V29.0623H18.2114V28.1951H19.0786ZM19.0786 29.0623V29.9295H18.2114V29.0623H19.0786ZM19.0786 29.9295V30.7967H18.2114V29.9295H19.0786ZM19.0786 30.7967V31.664H18.2114V30.7967H19.0786ZM19.9458 30.7967V31.664H19.0786V30.7967H19.9458ZM19.9458 29.9295V30.7967H19.0786V29.9295H19.9458ZM19.9458 29.0623V29.9295H19.0786V29.0623H19.9458ZM19.9458 28.1951V29.0623H19.0786V28.1951H19.9458ZM19.9458 27.3279V28.1951H19.0786V27.3279H19.9458ZM19.9458 26.4607V27.3279H19.0786V26.4607H19.9458ZM20.813 26.4607V27.3279H19.9458V26.4607H20.813ZM20.813 28.1951V29.0623H19.9458V28.1951H20.813ZM20.813 24.7263V25.5935H19.9458V24.7263H20.813ZM20.813 23.8591V24.7263H19.9458V23.8591H20.813ZM19.9458 23.8591V24.7263H19.0786V23.8591H19.9458ZM19.9458 24.7263V25.5935H19.0786V24.7263H19.9458ZM18.2114 24.7263V25.5935H17.3442V24.7263H18.2114ZM18.2114 23.8591V24.7263H17.3442V23.8591H18.2114ZM18.2114 22.9919V23.8591H17.3442V22.9919H18.2114ZM19.9458 22.9919V23.8591H19.0786V22.9919H19.9458ZM18.2114 19.523V20.3902H17.3442V19.523H18.2114ZM18.2114 20.3902V21.2575H17.3442V20.3902H18.2114ZM19.0786 20.3902V21.2575H18.2114V20.3902H19.0786ZM19.9458 20.3902V21.2575H19.0786V20.3902H19.9458ZM19.9458 21.2575V22.1247H19.0786V21.2575H19.9458ZM20.813 21.2575V22.1247H19.9458V21.2575H20.813ZM20.813 22.1247V22.9919H19.9458V22.1247H20.813ZM19.9458 22.1247V22.9919H19.0786V22.1247H19.9458ZM19.0786 22.1247V22.9919H18.2114V22.1247H19.0786ZM19.0786 21.2575V22.1247H18.2114V21.2575H19.0786ZM18.2114 21.2575V22.1247H17.3442V21.2575H18.2114ZM17.3442 21.2575V22.1247H16.477V21.2575H17.3442ZM17.3442 22.1247V22.9919H16.477V22.1247H17.3442ZM18.2114 22.1247V22.9919H17.3442V22.1247H18.2114ZM17.3442 22.9919V23.8591H16.477V22.9919H17.3442ZM16.477 22.1247V22.9919H15.6098V22.1247H16.477ZM16.477 21.2575V22.1247H15.6098V21.2575H16.477ZM16.477 20.3902V21.2575H15.6098V20.3902H16.477ZM16.477 19.523V20.3902H15.6098V19.523H16.477ZM17.3442 19.523V20.3902H16.477V19.523H17.3442ZM17.3442 20.3902V21.2575H16.477V20.3902H17.3442ZM15.6098 19.523V20.3902H14.7425V19.523H15.6098ZM15.6098 20.3902V21.2575H14.7425V20.3902H15.6098ZM14.7425 20.3902V21.2575H13.8753V20.3902H14.7425ZM14.7425 21.2575V22.1247H13.8753V21.2575H14.7425ZM13.8753 21.2575V22.1247H13.0081V21.2575H13.8753ZM13.8753 22.1247V22.9919H13.0081V22.1247H13.8753ZM14.7425 22.1247V22.9919H13.8753V22.1247H14.7425ZM15.6098 22.1247V22.9919H14.7425V22.1247H15.6098ZM15.6098 21.2575V22.1247H14.7425V21.2575H15.6098ZM13.8753 22.9919V23.8591H13.0081V22.9919H13.8753ZM14.7425 22.9919V23.8591H13.8753V22.9919H14.7425ZM13.8753 23.8591V24.7263H13.0081V23.8591H13.8753ZM7.80488 19.523V20.3902H6.93767V19.523H7.80488ZM6.93767 20.3902V21.2575H6.07046V20.3902H6.93767ZM14.7425 19.523V20.3902H13.8753V19.523H14.7425ZM13.8753 20.3902V21.2575H13.0081V20.3902H13.8753ZM8.67209 22.1247V22.9919H7.80488V22.1247H8.67209ZM11.2737 19.523V20.3902H10.4065V19.523H11.2737ZM29.4724 35.1328V36H28.6052V35.1328H29.4724ZM29.4724 34.2656V35.1328H28.6052V34.2656H29.4724ZM29.4724 33.3984V34.2656H28.6052V33.3984H29.4724ZM29.4724 32.5312V33.3984H28.6052V32.5312H29.4724ZM29.4724 31.664V32.5312H28.6052V31.664H29.4724ZM29.4724 30.7967V31.664H28.6052V30.7967H29.4724ZM29.4724 29.9295V30.7967H28.6052V29.9295H29.4724ZM29.4724 29.0623V29.9295H28.6052V29.0623H29.4724ZM29.4724 28.1951V29.0623H28.6052V28.1951H29.4724ZM29.4724 27.3279V28.1951H28.6052V27.3279H29.4724ZM29.4724 26.4607V27.3279H28.6052V26.4607H29.4724ZM29.4724 25.5935V26.4607H28.6052V25.5935H29.4724ZM29.4724 24.7263V25.5935H28.6052V24.7263H29.4724ZM29.4724 23.8591V24.7263H28.6052V23.8591H29.4724ZM29.4724 22.9919V23.8591H28.6052V22.9919H29.4724ZM30.3396 22.9919V23.8591H29.4724V22.9919H30.3396ZM30.3396 23.8591V24.7263H29.4724V23.8591H30.3396ZM30.3396 24.7263V25.5935H29.4724V24.7263H30.3396ZM30.3396 25.5935V26.4607H29.4724V25.5935H30.3396ZM30.3396 26.4607V27.3279H29.4724V26.4607H30.3396ZM30.3396 27.3279V28.1951H29.4724V27.3279H30.3396ZM30.3396 28.1951V29.0623H29.4724V28.1951H30.3396ZM31.2068 29.0623V29.9295H30.3396V29.0623H31.2068ZM31.2068 29.9295V30.7967H30.3396V29.9295H31.2068ZM31.2068 30.7967V31.664H30.3396V30.7967H31.2068ZM31.2068 31.664V32.5312H30.3396V31.664H31.2068ZM31.2068 32.5312V33.3984H30.3396V32.5312H31.2068ZM31.2068 33.3984V34.2656H30.3396V33.3984H31.2068ZM31.2068 34.2656V35.1328H30.3396V34.2656H31.2068ZM31.2068 35.1328V36H30.3396V35.1328H31.2068ZM32.074 35.1328V36H31.2068V35.1328H32.074ZM32.9412 35.1328V36H32.074V35.1328H32.9412ZM32.9412 34.2656V35.1328H32.074V34.2656H32.9412ZM32.9412 33.3984V34.2656H32.074V33.3984H32.9412ZM32.9412 32.5312V33.3984H32.074V32.5312H32.9412ZM32.9412 31.664V32.5312H32.074V31.664H32.9412ZM32.9412 30.7967V31.664H32.074V30.7967H32.9412ZM32.9412 29.9295V30.7967H32.074V29.9295H32.9412ZM32.9412 29.0623V29.9295H32.074V29.0623H32.9412ZM32.074 29.0623V29.9295H31.2068V29.0623H32.074ZM32.074 28.1951V29.0623H31.2068V28.1951H32.074ZM32.074 29.9295V30.7967H31.2068V29.9295H32.074ZM32.074 30.7967V31.664H31.2068V30.7967H32.074ZM32.074 31.664V32.5312H31.2068V31.664H32.074ZM32.074 32.5312V33.3984H31.2068V32.5312H32.074ZM32.074 33.3984V34.2656H31.2068V33.3984H32.074ZM32.074 34.2656V35.1328H31.2068V34.2656H32.074ZM30.3396 35.1328V36H29.4724V35.1328H30.3396ZM30.3396 34.2656V35.1328H29.4724V34.2656H30.3396ZM30.3396 33.3984V34.2656H29.4724V33.3984H30.3396ZM30.3396 32.5312V33.3984H29.4724V32.5312H30.3396ZM30.3396 31.664V32.5312H29.4724V31.664H30.3396ZM30.3396 30.7967V31.664H29.4724V30.7967H30.3396ZM30.3396 29.9295V30.7967H29.4724V29.9295H30.3396ZM30.3396 29.0623V29.9295H29.4724V29.0623H30.3396ZM29.4724 14.3198V15.187H28.6052V14.3198H29.4724ZM29.4724 15.187V16.0542H28.6052V15.187H29.4724ZM29.4724 16.0542V16.9214H28.6052V16.0542H29.4724ZM29.4724 16.9214V17.7886H28.6052V16.9214H29.4724ZM29.4724 17.7886V18.6558H28.6052V17.7886H29.4724ZM29.4724 18.6558V19.523H28.6052V18.6558H29.4724ZM29.4724 19.523V20.3902H28.6052V19.523H29.4724ZM29.4724 20.3902V21.2575H28.6052V20.3902H29.4724ZM29.4724 21.2575V22.1247H28.6052V21.2575H29.4724ZM29.4724 22.1247V22.9919H28.6052V22.1247H29.4724ZM32.074 14.3198V15.187H31.2068V14.3198H32.074ZM32.074 15.187V16.0542H31.2068V15.187H32.074ZM32.074 16.0542V16.9214H31.2068V16.0542H32.074ZM32.074 16.9214V17.7886H31.2068V16.9214H32.074ZM32.074 17.7886V18.6558H31.2068V17.7886H32.074ZM32.074 18.6558V19.523H31.2068V18.6558H32.074ZM32.074 20.3902V21.2575H31.2068V20.3902H32.074ZM32.074 21.2575V22.1247H31.2068V21.2575H32.074ZM32.074 22.1247V22.9919H31.2068V22.1247H32.074ZM32.074 22.9919V23.8591H31.2068V22.9919H32.074ZM32.074 23.8591V24.7263H31.2068V23.8591H32.074ZM32.074 24.7263V25.5935H31.2068V24.7263H32.074ZM32.074 25.5935V26.4607H31.2068V25.5935H32.074ZM32.9412 26.4607V27.3279H32.074V26.4607H32.9412ZM32.9412 27.3279V28.1951H32.074V27.3279H32.9412ZM32.9412 28.1951V29.0623H32.074V28.1951H32.9412ZM32.9412 25.5935V26.4607H32.074V25.5935H32.9412ZM32.9412 24.7263V25.5935H32.074V24.7263H32.9412ZM32.9412 23.8591V24.7263H32.074V23.8591H32.9412ZM32.9412 22.9919V23.8591H32.074V22.9919H32.9412ZM32.9412 22.1247V22.9919H32.074V22.1247H32.9412ZM32.9412 21.2575V22.1247H32.074V21.2575H32.9412ZM32.9412 20.3902V21.2575H32.074V20.3902H32.9412ZM32.9412 19.523V20.3902H32.074V19.523H32.9412ZM32.9412 18.6558V19.523H32.074V18.6558H32.9412ZM32.9412 17.7886V18.6558H32.074V17.7886H32.9412ZM32.074 19.523V20.3902H31.2068V19.523H32.074ZM32.9412 16.9214V17.7886H32.074V16.9214H32.9412ZM32.9412 16.0542V16.9214H32.074V16.0542H32.9412ZM32.9412 15.187V16.0542H32.074V15.187H32.9412ZM32.9412 14.3198V15.187H32.074V14.3198H32.9412ZM31.2068 14.3198V15.187H30.3396V14.3198H31.2068ZM30.3396 14.3198V15.187H29.4724V14.3198H30.3396ZM30.3396 15.187V16.0542H29.4724V15.187H30.3396ZM31.2068 15.187V16.0542H30.3396V15.187H31.2068ZM31.2068 16.0542V16.9214H30.3396V16.0542H31.2068ZM31.2068 16.9214V17.7886H30.3396V16.9214H31.2068ZM31.2068 17.7886V18.6558H30.3396V17.7886H31.2068ZM31.2068 18.6558V19.523H30.3396V18.6558H31.2068ZM31.2068 19.523V20.3902H30.3396V19.523H31.2068ZM31.2068 20.3902V21.2575H30.3396V20.3902H31.2068ZM30.3396 21.2575V22.1247H29.4724V21.2575H30.3396ZM30.3396 22.1247V22.9919H29.4724V22.1247H30.3396ZM30.3396 20.3902V21.2575H29.4724V20.3902H30.3396ZM30.3396 19.523V20.3902H29.4724V19.523H30.3396ZM30.3396 18.6558V19.523H29.4724V18.6558H30.3396ZM30.3396 17.7886V18.6558H29.4724V17.7886H30.3396ZM30.3396 16.9214V17.7886H29.4724V16.9214H30.3396ZM30.3396 16.0542V16.9214H29.4724V16.0542H30.3396ZM31.2068 21.2575V22.1247H30.3396V21.2575H31.2068ZM31.2068 22.1247V22.9919H30.3396V22.1247H31.2068ZM31.2068 22.9919V23.8591H30.3396V22.9919H31.2068ZM31.2068 23.8591V24.7263H30.3396V23.8591H31.2068ZM31.2068 24.7263V25.5935H30.3396V24.7263H31.2068ZM31.2068 25.5935V26.4607H30.3396V25.5935H31.2068ZM31.2068 26.4607V27.3279H30.3396V26.4607H31.2068ZM31.2068 27.3279V28.1951H30.3396V27.3279H31.2068ZM31.2068 28.1951V29.0623H30.3396V28.1951H31.2068ZM32.074 27.3279V28.1951H31.2068V27.3279H32.074ZM32.074 26.4607V27.3279H31.2068V26.4607H32.074ZM28.6052 14.3198V15.187H27.738V14.3198H28.6052ZM27.738 14.3198V15.187H26.8708V14.3198H27.738ZM26.8708 14.3198V15.187H26.0036V14.3198H26.8708ZM26.0036 14.3198V15.187H25.1363V14.3198H26.0036ZM25.1363 14.3198V15.187H24.2691V14.3198H25.1363ZM25.1363 15.187V16.0542H24.2691V15.187H25.1363ZM25.1363 16.0542V16.9214H24.2691V16.0542H25.1363ZM26.0036 15.187V16.0542H25.1363V15.187H26.0036ZM26.8708 15.187V16.0542H26.0036V15.187H26.8708ZM27.738 15.187V16.0542H26.8708V15.187H27.738ZM28.6052 16.0542V16.9214H27.738V16.0542H28.6052ZM28.6052 15.187V16.0542H27.738V15.187H28.6052ZM27.738 16.0542V16.9214H26.8708V16.0542H27.738ZM26.8708 16.0542V16.9214H26.0036V16.0542H26.8708ZM26.0036 16.0542V16.9214H25.1363V16.0542H26.0036ZM33.8084 14.3198V15.187H32.9412V14.3198H33.8084ZM34.6756 14.3198V15.187H33.8084V14.3198H34.6756ZM35.5429 14.3198V15.187H34.6756V14.3198H35.5429ZM36.4101 14.3198V15.187H35.5429V14.3198H36.4101ZM37.2773 14.3198V15.187H36.4101V14.3198H37.2773ZM37.2773 15.187V16.0542H36.4101V15.187H37.2773ZM36.4101 15.187V16.0542H35.5429V15.187H36.4101ZM35.5429 15.187V16.0542H34.6756V15.187H35.5429ZM34.6756 15.187V16.0542H33.8084V15.187H34.6756ZM33.8084 15.187V16.0542H32.9412V15.187H33.8084ZM33.8084 16.0542V16.9214H32.9412V16.0542H33.8084ZM34.6756 16.0542V16.9214H33.8084V16.0542H34.6756ZM35.5429 16.0542V16.9214H34.6756V16.0542H35.5429ZM36.4101 16.0542V16.9214H35.5429V16.0542H36.4101ZM37.2773 16.0542V16.9214H36.4101V16.0542H37.2773ZM25.1363 16.9214V17.7886H24.2691V16.9214H25.1363ZM25.1363 17.7886V18.6558H24.2691V17.7886H25.1363ZM26.0036 17.7886V18.6558H25.1363V17.7886H26.0036ZM26.8708 17.7886V18.6558H26.0036V17.7886H26.8708ZM27.738 17.7886V18.6558H26.8708V17.7886H27.738ZM28.6052 17.7886V18.6558H27.738V17.7886H28.6052ZM28.6052 16.9214V17.7886H27.738V16.9214H28.6052ZM27.738 16.9214V17.7886H26.8708V16.9214H27.738ZM26.8708 16.9214V17.7886H26.0036V16.9214H26.8708ZM26.0036 16.9214V17.7886H25.1363V16.9214H26.0036ZM37.2773 16.9214V17.7886H36.4101V16.9214H37.2773ZM37.2773 17.7886V18.6558H36.4101V17.7886H37.2773ZM36.4101 17.7886V18.6558H35.5429V17.7886H36.4101ZM35.5429 17.7886V18.6558H34.6756V17.7886H35.5429ZM34.6756 17.7886V18.6558H33.8084V17.7886H34.6756ZM33.8084 17.7886V18.6558H32.9412V17.7886H33.8084ZM33.8084 16.9214V17.7886H32.9412V16.9214H33.8084ZM34.6756 16.9214V17.7886H33.8084V16.9214H34.6756ZM35.5429 16.9214V17.7886H34.6756V16.9214H35.5429ZM36.4101 16.9214V17.7886H35.5429V16.9214H36.4101ZM41.6294 35.1328V36H40.7622V35.1328H41.6294ZM41.6294 34.2656V35.1328H40.7622V34.2656H41.6294ZM41.6294 33.3984V34.2656H40.7622V33.3984H41.6294ZM41.6294 32.5312V33.3984H40.7622V32.5312H41.6294ZM41.6294 31.664V32.5312H40.7622V31.664H41.6294ZM41.6294 30.7967V31.664H40.7622V30.7967H41.6294ZM41.6294 29.9295V30.7967H40.7622V29.9295H41.6294ZM41.6294 29.0623V29.9295H40.7622V29.0623H41.6294ZM41.6294 28.1951V29.0623H40.7622V28.1951H41.6294ZM41.6294 27.3279V28.1951H40.7622V27.3279H41.6294ZM41.6294 26.4607V27.3279H40.7622V26.4607H41.6294ZM41.6294 25.5935V26.4607H40.7622V25.5935H41.6294ZM41.6294 24.7263V25.5935H40.7622V24.7263H41.6294ZM41.6294 23.8591V24.7263H40.7622V23.8591H41.6294ZM41.6294 22.9919V23.8591H40.7622V22.9919H41.6294ZM42.4966 22.9919V23.8591H41.6294V22.9919H42.4966ZM42.4966 23.8591V24.7263H41.6294V23.8591H42.4966ZM42.4966 24.7263V25.5935H41.6294V24.7263H42.4966ZM42.4966 25.5935V26.4607H41.6294V25.5935H42.4966ZM42.4966 26.4607V27.3279H41.6294V26.4607H42.4966ZM42.4966 27.3279V28.1951H41.6294V27.3279H42.4966ZM42.4966 28.1951V29.0623H41.6294V28.1951H42.4966ZM43.3638 29.0623V29.9295H42.4966V29.0623H43.3638ZM43.3638 29.9295V30.7967H42.4966V29.9295H43.3638ZM43.3638 30.7967V31.664H42.4966V30.7967H43.3638ZM43.3638 31.664V32.5312H42.4966V31.664H43.3638ZM43.3638 32.5312V33.3984H42.4966V32.5312H43.3638ZM43.3638 33.3984V34.2656H42.4966V33.3984H43.3638ZM43.3638 34.2656V35.1328H42.4966V34.2656H43.3638ZM43.3638 35.1328V36H42.4966V35.1328H43.3638ZM44.231 35.1328V36H43.3638V35.1328H44.231ZM45.0982 35.1328V36H44.231V35.1328H45.0982ZM45.0982 34.2656V35.1328H44.231V34.2656H45.0982ZM45.0982 33.3984V34.2656H44.231V33.3984H45.0982ZM45.0982 32.5312V33.3984H44.231V32.5312H45.0982ZM45.0982 31.664V32.5312H44.231V31.664H45.0982ZM45.0982 30.7967V31.664H44.231V30.7967H45.0982ZM45.0982 29.9295V30.7967H44.231V29.9295H45.0982ZM45.0982 29.0623V29.9295H44.231V29.0623H45.0982ZM44.231 29.0623V29.9295H43.3638V29.0623H44.231ZM44.231 28.1951V29.0623H43.3638V28.1951H44.231ZM44.231 29.9295V30.7967H43.3638V29.9295H44.231ZM44.231 30.7967V31.664H43.3638V30.7967H44.231ZM44.231 31.664V32.5312H43.3638V31.664H44.231ZM44.231 32.5312V33.3984H43.3638V32.5312H44.231ZM44.231 33.3984V34.2656H43.3638V33.3984H44.231ZM44.231 34.2656V35.1328H43.3638V34.2656H44.231ZM42.4966 35.1328V36H41.6294V35.1328H42.4966ZM42.4966 34.2656V35.1328H41.6294V34.2656H42.4966ZM42.4966 33.3984V34.2656H41.6294V33.3984H42.4966ZM42.4966 32.5312V33.3984H41.6294V32.5312H42.4966ZM42.4966 31.664V32.5312H41.6294V31.664H42.4966ZM42.4966 30.7967V31.664H41.6294V30.7967H42.4966ZM42.4966 29.9295V30.7967H41.6294V29.9295H42.4966ZM42.4966 29.0623V29.9295H41.6294V29.0623H42.4966ZM41.6294 14.3198V15.187H40.7622V14.3198H41.6294ZM41.6294 15.187V16.0542H40.7622V15.187H41.6294ZM41.6294 16.0542V16.9214H40.7622V16.0542H41.6294ZM41.6294 16.9214V17.7886H40.7622V16.9214H41.6294ZM41.6294 17.7886V18.6558H40.7622V17.7886H41.6294ZM41.6294 18.6558V19.523H40.7622V18.6558H41.6294ZM41.6294 19.523V20.3902H40.7622V19.523H41.6294ZM41.6294 20.3902V21.2575H40.7622V20.3902H41.6294ZM41.6294 21.2575V22.1247H40.7622V21.2575H41.6294ZM41.6294 22.1247V22.9919H40.7622V22.1247H41.6294ZM44.231 14.3198V15.187H43.3638V14.3198H44.231ZM44.231 15.187V16.0542H43.3638V15.187H44.231ZM44.231 16.0542V16.9214H43.3638V16.0542H44.231ZM44.231 16.9214V17.7886H43.3638V16.9214H44.231ZM44.231 17.7886V18.6558H43.3638V17.7886H44.231ZM44.231 18.6558V19.523H43.3638V18.6558H44.231ZM44.231 20.3902V21.2575H43.3638V20.3902H44.231ZM44.231 21.2575V22.1247H43.3638V21.2575H44.231ZM44.231 22.1247V22.9919H43.3638V22.1247H44.231ZM44.231 22.9919V23.8591H43.3638V22.9919H44.231ZM44.231 23.8591V24.7263H43.3638V23.8591H44.231ZM44.231 24.7263V25.5935H43.3638V24.7263H44.231ZM44.231 25.5935V26.4607H43.3638V25.5935H44.231ZM45.0982 26.4607V27.3279H44.231V26.4607H45.0982ZM45.0982 27.3279V28.1951H44.231V27.3279H45.0982ZM45.0982 28.1951V29.0623H44.231V28.1951H45.0982ZM45.0982 25.5935V26.4607H44.231V25.5935H45.0982ZM45.0982 24.7263V25.5935H44.231V24.7263H45.0982ZM45.0982 23.8591V24.7263H44.231V23.8591H45.0982ZM45.0982 22.9919V23.8591H44.231V22.9919H45.0982ZM45.0982 22.1247V22.9919H44.231V22.1247H45.0982ZM45.0982 21.2575V22.1247H44.231V21.2575H45.0982ZM45.0982 20.3902V21.2575H44.231V20.3902H45.0982ZM45.0982 19.523V20.3902H44.231V19.523H45.0982ZM45.0982 18.6558V19.523H44.231V18.6558H45.0982ZM45.0982 17.7886V18.6558H44.231V17.7886H45.0982ZM44.231 19.523V20.3902H43.3638V19.523H44.231ZM45.0982 16.9214V17.7886H44.231V16.9214H45.0982ZM45.0982 16.0542V16.9214H44.231V16.0542H45.0982ZM45.0982 15.187V16.0542H44.231V15.187H45.0982ZM45.0982 14.3198V15.187H44.231V14.3198H45.0982ZM43.3638 14.3198V15.187H42.4966V14.3198H43.3638ZM42.4966 14.3198V15.187H41.6294V14.3198H42.4966ZM42.4966 15.187V16.0542H41.6294V15.187H42.4966ZM43.3638 15.187V16.0542H42.4966V15.187H43.3638ZM43.3638 16.0542V16.9214H42.4966V16.0542H43.3638ZM43.3638 16.9214V17.7886H42.4966V16.9214H43.3638ZM43.3638 17.7886V18.6558H42.4966V17.7886H43.3638ZM43.3638 18.6558V19.523H42.4966V18.6558H43.3638ZM43.3638 19.523V20.3902H42.4966V19.523H43.3638ZM43.3638 20.3902V21.2575H42.4966V20.3902H43.3638ZM42.4966 21.2575V22.1247H41.6294V21.2575H42.4966ZM42.4966 22.1247V22.9919H41.6294V22.1247H42.4966ZM42.4966 20.3902V21.2575H41.6294V20.3902H42.4966ZM42.4966 19.523V20.3902H41.6294V19.523H42.4966ZM42.4966 18.6558V19.523H41.6294V18.6558H42.4966ZM42.4966 17.7886V18.6558H41.6294V17.7886H42.4966ZM42.4966 16.9214V17.7886H41.6294V16.9214H42.4966ZM42.4966 16.0542V16.9214H41.6294V16.0542H42.4966ZM43.3638 21.2575V22.1247H42.4966V21.2575H43.3638ZM43.3638 22.1247V22.9919H42.4966V22.1247H43.3638ZM43.3638 22.9919V23.8591H42.4966V22.9919H43.3638ZM43.3638 23.8591V24.7263H42.4966V23.8591H43.3638ZM43.3638 24.7263V25.5935H42.4966V24.7263H43.3638ZM43.3638 25.5935V26.4607H42.4966V25.5935H43.3638ZM43.3638 26.4607V27.3279H42.4966V26.4607H43.3638ZM43.3638 27.3279V28.1951H42.4966V27.3279H43.3638ZM43.3638 28.1951V29.0623H42.4966V28.1951H43.3638ZM44.231 27.3279V28.1951H43.3638V27.3279H44.231ZM44.231 26.4607V27.3279H43.3638V26.4607H44.231ZM45.9654 35.1328V36H45.0982V35.1328H45.9654ZM46.8327 35.1328V36H45.9654V35.1328H46.8327ZM46.8327 34.2656V35.1328H45.9654V34.2656H46.8327ZM46.8327 33.3984V34.2656H45.9654V33.3984H46.8327ZM46.8327 32.5312V33.3984H45.9654V32.5312H46.8327ZM46.8327 31.664V32.5312H45.9654V31.664H46.8327ZM45.9654 31.664V32.5312H45.0982V31.664H45.9654ZM45.9654 32.5312V33.3984H45.0982V32.5312H45.9654ZM45.9654 33.3984V34.2656H45.0982V33.3984H45.9654ZM45.9654 34.2656V35.1328H45.0982V34.2656H45.9654ZM47.6999 31.664V32.5312H46.8327V31.664H47.6999ZM48.5671 31.664V32.5312H47.6999V31.664H48.5671ZM49.4343 31.664V32.5312H48.5671V31.664H49.4343ZM49.4343 34.2656V35.1328H48.5671V34.2656H49.4343ZM48.5671 35.1328V36H47.6999V35.1328H48.5671ZM47.6999 35.1328V36H46.8327V35.1328H47.6999ZM49.4343 35.1328V36H48.5671V35.1328H49.4343ZM48.5671 34.2656V35.1328H47.6999V34.2656H48.5671ZM47.6999 34.2656V35.1328H46.8327V34.2656H47.6999ZM47.6999 33.3984V34.2656H46.8327V33.3984H47.6999ZM48.5671 33.3984V34.2656H47.6999V33.3984H48.5671ZM49.4343 33.3984V34.2656H48.5671V33.3984H49.4343ZM49.4343 32.5312V33.3984H48.5671V32.5312H49.4343ZM48.5671 32.5312V33.3984H47.6999V32.5312H48.5671ZM47.6999 32.5312V33.3984H46.8327V32.5312H47.6999ZM50.3015 35.1328V36H49.4343V35.1328H50.3015ZM51.1687 35.1328V36H50.3015V35.1328H51.1687ZM52.0359 35.1328V36H51.1687V35.1328H52.0359ZM52.0359 34.2656V35.1328H51.1687V34.2656H52.0359ZM50.3015 31.664V32.5312H49.4343V31.664H50.3015ZM51.1687 31.664V32.5312H50.3015V31.664H51.1687ZM52.0359 31.664V32.5312H51.1687V31.664H52.0359ZM52.0359 32.5312V33.3984H51.1687V32.5312H52.0359ZM52.0359 33.3984V34.2656H51.1687V33.3984H52.0359ZM51.1687 33.3984V34.2656H50.3015V33.3984H51.1687ZM51.1687 32.5312V33.3984H50.3015V32.5312H51.1687ZM50.3015 32.5312V33.3984H49.4343V32.5312H50.3015ZM50.3015 33.3984V34.2656H49.4343V33.3984H50.3015ZM50.3015 34.2656V35.1328H49.4343V34.2656H50.3015ZM51.1687 34.2656V35.1328H50.3015V34.2656H51.1687ZM56.3864 31.664V32.5312H55.5191V31.664H56.3864ZM56.3864 30.7967V31.664H55.5191V30.7967H56.3864ZM56.3864 29.9295V30.7967H55.5191V29.9295H56.3864ZM56.3864 29.0623V29.9295H55.5191V29.0623H56.3864ZM56.3864 22.9919V23.8591H55.5191V22.9919H56.3864ZM57.2536 22.9919V23.8591H56.3864V22.9919H57.2536ZM57.2536 23.8591V24.7263H56.3864V23.8591H57.2536ZM57.2536 24.7263V25.5935H56.3864V24.7263H57.2536ZM58.1208 29.0623V29.9295H57.2536V29.0623H58.1208ZM58.1208 29.9295V30.7967H57.2536V29.9295H58.1208ZM58.1208 30.7967V31.664H57.2536V30.7967H58.1208ZM58.1208 31.664V32.5312H57.2536V31.664H58.1208ZM58.1208 32.5312V33.3984H57.2536V32.5312H58.1208ZM58.1208 33.3984V34.2656H57.2536V33.3984H58.1208ZM58.1208 34.2656V35.1328H57.2536V34.2656H58.1208ZM59.8552 35.1328V36H58.988V35.1328H59.8552ZM59.8552 34.2656V35.1328H58.988V34.2656H59.8552ZM59.8552 33.3984V34.2656H58.988V33.3984H59.8552ZM59.8552 32.5312V33.3984H58.988V32.5312H59.8552ZM59.8552 31.664V32.5312H58.988V31.664H59.8552ZM59.8552 30.7967V31.664H58.988V30.7967H59.8552ZM59.8552 29.9295V30.7967H58.988V29.9295H59.8552ZM59.8552 29.0623V29.9295H58.988V29.0623H59.8552ZM58.988 29.0623V29.9295H58.1208V29.0623H58.988ZM58.988 29.9295V30.7967H58.1208V29.9295H58.988ZM58.988 30.7967V31.664H58.1208V30.7967H58.988ZM58.988 31.664V32.5312H58.1208V31.664H58.988ZM58.988 32.5312V33.3984H58.1208V32.5312H58.988ZM58.988 33.3984V34.2656H58.1208V33.3984H58.988ZM58.988 34.2656V35.1328H58.1208V34.2656H58.988ZM57.2536 33.3984V34.2656H56.3864V33.3984H57.2536ZM57.2536 32.5312V33.3984H56.3864V32.5312H57.2536ZM57.2536 31.664V32.5312H56.3864V31.664H57.2536ZM57.2536 30.7967V31.664H56.3864V30.7967H57.2536ZM57.2536 29.9295V30.7967H56.3864V29.9295H57.2536ZM57.2536 29.0623V29.9295H56.3864V29.0623H57.2536ZM56.3864 22.1247V22.9919H55.5191V22.1247H56.3864ZM58.988 22.1247V22.9919H58.1208V22.1247H58.988ZM58.988 22.9919V23.8591H58.1208V22.9919H58.988ZM58.988 23.8591V24.7263H58.1208V23.8591H58.988ZM58.988 24.7263V25.5935H58.1208V24.7263H58.988ZM58.988 25.5935V26.4607H58.1208V25.5935H58.988ZM59.8552 26.4607V27.3279H58.988V26.4607H59.8552ZM59.8552 25.5935V26.4607H58.988V25.5935H59.8552ZM59.8552 24.7263V25.5935H58.988V24.7263H59.8552ZM59.8552 23.8591V24.7263H58.988V23.8591H59.8552ZM59.8552 22.9919V23.8591H58.988V22.9919H59.8552ZM59.8552 22.1247V22.9919H58.988V22.1247H59.8552ZM57.2536 22.1247V22.9919H56.3864V22.1247H57.2536ZM58.1208 22.1247V22.9919H57.2536V22.1247H58.1208ZM58.1208 22.9919V23.8591H57.2536V22.9919H58.1208ZM58.1208 23.8591V24.7263H57.2536V23.8591H58.1208ZM58.1208 24.7263V25.5935H57.2536V24.7263H58.1208ZM58.1208 25.5935V26.4607H57.2536V25.5935H58.1208ZM66.7929 35.1328V36H65.9256V35.1328H66.7929ZM66.7929 34.2656V35.1328H65.9256V34.2656H66.7929ZM66.7929 33.3984V34.2656H65.9256V33.3984H66.7929ZM66.7929 32.5312V33.3984H65.9256V32.5312H66.7929ZM66.7929 31.664V32.5312H65.9256V31.664H66.7929ZM66.7929 30.7967V31.664H65.9256V30.7967H66.7929ZM66.7929 29.9295V30.7967H65.9256V29.9295H66.7929ZM66.7929 29.0623V29.9295H65.9256V29.0623H66.7929ZM66.7929 28.1951V29.0623H65.9256V28.1951H66.7929ZM66.7929 27.3279V28.1951H65.9256V27.3279H66.7929ZM66.7929 26.4607V27.3279H65.9256V26.4607H66.7929ZM66.7929 25.5935V26.4607H65.9256V25.5935H66.7929ZM66.7929 24.7263V25.5935H65.9256V24.7263H66.7929ZM66.7929 23.8591V24.7263H65.9256V23.8591H66.7929ZM66.7929 22.9919V23.8591H65.9256V22.9919H66.7929ZM67.6601 23.8591V24.7263H66.7929V23.8591H67.6601ZM67.6601 24.7263V25.5935H66.7929V24.7263H67.6601ZM67.6601 25.5935V26.4607H66.7929V25.5935H67.6601ZM67.6601 26.4607V27.3279H66.7929V26.4607H67.6601ZM67.6601 27.3279V28.1951H66.7929V27.3279H67.6601ZM67.6601 28.1951V29.0623H66.7929V28.1951H67.6601ZM68.5273 29.0623V29.9295H67.6601V29.0623H68.5273ZM68.5273 29.9295V30.7967H67.6601V29.9295H68.5273ZM68.5273 30.7967V31.664H67.6601V30.7967H68.5273ZM68.5273 31.664V32.5312H67.6601V31.664H68.5273ZM68.5273 32.5312V33.3984H67.6601V32.5312H68.5273ZM68.5273 33.3984V34.2656H67.6601V33.3984H68.5273ZM68.5273 34.2656V35.1328H67.6601V34.2656H68.5273ZM70.2617 31.664V32.5312H69.3945V31.664H70.2617ZM70.2617 30.7967V31.664H69.3945V30.7967H70.2617ZM70.2617 29.9295V30.7967H69.3945V29.9295H70.2617ZM70.2617 29.0623V29.9295H69.3945V29.0623H70.2617ZM69.3945 29.0623V29.9295H68.5273V29.0623H69.3945ZM69.3945 28.1951V29.0623H68.5273V28.1951H69.3945ZM69.3945 29.9295V30.7967H68.5273V29.9295H69.3945ZM69.3945 30.7967V31.664H68.5273V30.7967H69.3945ZM69.3945 31.664V32.5312H68.5273V31.664H69.3945ZM69.3945 32.5312V33.3984H68.5273V32.5312H69.3945ZM69.3945 33.3984V34.2656H68.5273V33.3984H69.3945ZM67.6601 34.2656V35.1328H66.7929V34.2656H67.6601ZM67.6601 33.3984V34.2656H66.7929V33.3984H67.6601ZM67.6601 32.5312V33.3984H66.7929V32.5312H67.6601ZM67.6601 31.664V32.5312H66.7929V31.664H67.6601ZM67.6601 30.7967V31.664H66.7929V30.7967H67.6601ZM67.6601 29.9295V30.7967H66.7929V29.9295H67.6601ZM67.6601 29.0623V29.9295H66.7929V29.0623H67.6601ZM69.3945 25.5935V26.4607H68.5273V25.5935H69.3945ZM70.2617 26.4607V27.3279H69.3945V26.4607H70.2617ZM70.2617 27.3279V28.1951H69.3945V27.3279H70.2617ZM70.2617 28.1951V29.0623H69.3945V28.1951H70.2617ZM68.5273 23.8591V24.7263H67.6601V23.8591H68.5273ZM68.5273 24.7263V25.5935H67.6601V24.7263H68.5273ZM68.5273 25.5935V26.4607H67.6601V25.5935H68.5273ZM68.5273 26.4607V27.3279H67.6601V26.4607H68.5273ZM68.5273 27.3279V28.1951H67.6601V27.3279H68.5273ZM68.5273 28.1951V29.0623H67.6601V28.1951H68.5273ZM69.3945 27.3279V28.1951H68.5273V27.3279H69.3945ZM69.3945 26.4607V27.3279H68.5273V26.4607H69.3945ZM60.7224 35.1328V36H59.8552V35.1328H60.7224ZM61.5896 35.1328V36H60.7224V35.1328H61.5896ZM62.4568 35.1328V36H61.5896V35.1328H62.4568ZM64.1912 35.1328V36H63.324V35.1328H64.1912ZM65.0584 35.1328V36H64.1912V35.1328H65.0584ZM65.9256 35.1328V36H65.0584V35.1328H65.9256ZM65.9256 34.2656V35.1328H65.0584V34.2656H65.9256ZM65.0584 34.2656V35.1328H64.1912V34.2656H65.0584ZM64.1912 34.2656V35.1328H63.324V34.2656H64.1912ZM62.4568 34.2656V35.1328H61.5896V34.2656H62.4568ZM61.5896 34.2656V35.1328H60.7224V34.2656H61.5896ZM60.7224 34.2656V35.1328H59.8552V34.2656H60.7224ZM60.7224 33.3984V34.2656H59.8552V33.3984H60.7224ZM61.5896 33.3984V34.2656H60.7224V33.3984H61.5896ZM62.4568 33.3984V34.2656H61.5896V33.3984H62.4568ZM64.1912 33.3984V34.2656H63.324V33.3984H64.1912ZM65.0584 33.3984V34.2656H64.1912V33.3984H65.0584ZM65.9256 33.3984V34.2656H65.0584V33.3984H65.9256ZM65.9256 32.5312V33.3984H65.0584V32.5312H65.9256ZM65.0584 32.5312V33.3984H64.1912V32.5312H65.0584ZM64.1912 32.5312V33.3984H63.324V32.5312H64.1912ZM62.4568 32.5312V33.3984H61.5896V32.5312H62.4568ZM61.5896 32.5312V33.3984H60.7224V32.5312H61.5896ZM60.7224 32.5312V33.3984H59.8552V32.5312H60.7224ZM60.7224 31.664V32.5312H59.8552V31.664H60.7224ZM65.9256 31.664V32.5312H65.0584V31.664H65.9256ZM69.3945 18.6558V17.7886H70.2617V18.6558H69.3945ZM69.3945 19.523V18.6558H70.2617V19.523H69.3945ZM69.3945 20.3902V19.523H70.2617V20.3902H69.3945ZM67.6601 20.3902V19.523H68.5273V20.3902H67.6601ZM67.6601 19.523V18.6558H68.5273V19.523H67.6601ZM67.6601 18.6558V17.7886H68.5273V18.6558H67.6601ZM67.6601 17.7886V16.9214H68.5273V17.7886H67.6601ZM67.6601 16.9214V16.0542H68.5273V16.9214H67.6601ZM67.6601 16.0542V15.187H68.5273V16.0542H67.6601ZM65.9256 15.187V14.3198H66.7929V15.187H65.9256ZM65.9256 16.0542V15.187H66.7929V16.0542H65.9256ZM65.9256 16.9214V16.0542H66.7929V16.9214H65.9256ZM65.9256 17.7886V16.9214H66.7929V17.7886H65.9256ZM65.9256 18.6558V17.7886H66.7929V18.6558H65.9256ZM65.9256 19.523V18.6558H66.7929V19.523H65.9256ZM65.9256 20.3902V19.523H66.7929V20.3902H65.9256ZM66.7929 20.3902V19.523H67.6601V20.3902H66.7929ZM66.7929 19.523V18.6558H67.6601V19.523H66.7929ZM66.7929 18.6558V17.7886H67.6601V18.6558H66.7929ZM66.7929 17.7886V16.9214H67.6601V17.7886H66.7929ZM66.7929 16.9214V16.0542H67.6601V16.9214H66.7929ZM66.7929 16.0542V15.187H67.6601V16.0542H66.7929ZM68.5273 16.9214V16.0542H69.3945V16.9214H68.5273ZM68.5273 17.7886V16.9214H69.3945V17.7886H68.5273ZM68.5273 18.6558V17.7886H69.3945V18.6558H68.5273ZM68.5273 19.523V18.6558H69.3945V19.523H68.5273ZM68.5273 20.3902V19.523H69.3945V20.3902H68.5273ZM58.988 15.187V14.3198H59.8552V15.187H58.988ZM58.988 16.0542V15.187H59.8552V16.0542H58.988ZM58.988 16.9214V16.0542H59.8552V16.9214H58.988ZM58.988 17.7886V16.9214H59.8552V17.7886H58.988ZM58.988 18.6558V17.7886H59.8552V18.6558H58.988ZM58.988 19.523V18.6558H59.8552V19.523H58.988ZM58.988 20.3902V19.523H59.8552V20.3902H58.988ZM57.2536 20.3902V19.523H58.1208V20.3902H57.2536ZM57.2536 19.523V18.6558H58.1208V19.523H57.2536ZM57.2536 18.6558V17.7886H58.1208V18.6558H57.2536ZM57.2536 17.7886V16.9214H58.1208V17.7886H57.2536ZM57.2536 16.9214V16.0542H58.1208V16.9214H57.2536ZM57.2536 16.0542V15.187H58.1208V16.0542H57.2536ZM55.5191 18.6558V17.7886H56.3864V18.6558H55.5191ZM55.5191 19.523V18.6558H56.3864V19.523H55.5191ZM55.5191 20.3902V19.523H56.3864V20.3902H55.5191ZM56.3864 20.3902V19.523H57.2536V20.3902H56.3864ZM56.3864 19.523V18.6558H57.2536V19.523H56.3864ZM56.3864 18.6558V17.7886H57.2536V18.6558H56.3864ZM56.3864 17.7886V16.9214H57.2536V17.7886H56.3864ZM56.3864 16.9214V16.0542H57.2536V16.9214H56.3864ZM58.1208 16.0542V15.187H58.988V16.0542H58.1208ZM58.1208 16.9214V16.0542H58.988V16.9214H58.1208ZM58.1208 17.7886V16.9214H58.988V17.7886H58.1208ZM58.1208 18.6558V17.7886H58.988V18.6558H58.1208ZM58.1208 19.523V18.6558H58.988V19.523H58.1208ZM58.1208 20.3902V19.523H58.988V20.3902H58.1208ZM65.0584 15.187V14.3198H65.9256V15.187H65.0584ZM64.1912 15.187V14.3198H65.0584V15.187H64.1912ZM63.324 15.187V14.3198H64.1912V15.187H63.324ZM61.5896 15.187V14.3198H62.4568V15.187H61.5896ZM60.7224 15.187V14.3198H61.5896V15.187H60.7224ZM59.8552 15.187V14.3198H60.7224V15.187H59.8552ZM59.8552 16.0542V15.187H60.7224V16.0542H59.8552ZM60.7224 16.0542V15.187H61.5896V16.0542H60.7224ZM61.5896 16.0542V15.187H62.4568V16.0542H61.5896ZM63.324 16.0542V15.187H64.1912V16.0542H63.324ZM64.1912 16.0542V15.187H65.0584V16.0542H64.1912ZM65.0584 16.0542V15.187H65.9256V16.0542H65.0584ZM65.0584 16.9214V16.0542H65.9256V16.9214H65.0584ZM64.1912 16.9214V16.0542H65.0584V16.9214H64.1912ZM63.324 16.9214V16.0542H64.1912V16.9214H63.324ZM61.5896 16.9214V16.0542H62.4568V16.9214H61.5896ZM60.7224 16.9214V16.0542H61.5896V16.9214H60.7224ZM59.8552 16.9214V16.0542H60.7224V16.9214H59.8552ZM59.8552 17.7886V16.9214H60.7224V17.7886H59.8552ZM60.7224 17.7886V16.9214H61.5896V17.7886H60.7224ZM61.5896 17.7886V16.9214H62.4568V17.7886H61.5896ZM63.324 17.7886V16.9214H64.1912V17.7886H63.324ZM64.1912 17.7886V16.9214H65.0584V17.7886H64.1912ZM65.0584 17.7886V16.9214H65.9256V17.7886H65.0584ZM65.0584 18.6558V17.7886H65.9256V18.6558H65.0584ZM59.8552 18.6558V17.7886H60.7224V18.6558H59.8552ZM56.3864 21.2575V22.1247H55.5191V21.2575H56.3864ZM57.2536 21.2575V22.1247H56.3864V21.2575H57.2536ZM56.3864 20.3902V21.2575H55.5191V20.3902H56.3864ZM58.988 20.3902V21.2575H58.1208V20.3902H58.988ZM58.988 21.2575V22.1247H58.1208V21.2575H58.988ZM59.8552 21.2575V22.1247H58.988V21.2575H59.8552ZM59.8552 20.3902V21.2575H58.988V20.3902H59.8552ZM57.2536 20.3902V21.2575H56.3864V20.3902H57.2536ZM58.1208 20.3902V21.2575H57.2536V20.3902H58.1208ZM58.1208 21.2575V22.1247H57.2536V21.2575H58.1208ZM61.5896 31.664V32.5312H60.7224V31.664H61.5896ZM62.4568 31.664V32.5312H61.5896V31.664H62.4568ZM64.1912 31.664V32.5312H63.324V31.664H64.1912ZM65.0584 31.664V32.5312H64.1912V31.664H65.0584ZM65.9256 30.7967V31.664H65.0584V30.7967H65.9256ZM60.7224 30.7967V31.664H59.8552V30.7967H60.7224ZM61.5896 17.7886V18.6558H60.7224V17.7886H61.5896ZM62.4568 17.7886V18.6558H61.5896V17.7886H62.4568ZM64.1912 17.7886V18.6558H63.324V17.7886H64.1912ZM65.0584 17.7886V18.6558H64.1912V17.7886H65.0584ZM65.9256 18.6558V19.523H65.0584V18.6558H65.9256ZM60.7224 18.6558V19.523H59.8552V18.6558H60.7224ZM62.4568 24.7263V25.5935H61.5896V24.7263H62.4568ZM64.1912 24.7263V25.5935H63.324V24.7263H64.1912ZM65.0584 24.7263V25.5935H64.1912V24.7263H65.0584ZM65.9256 24.7263V25.5935H65.0584V24.7263H65.9256ZM65.9256 25.5935V26.4607H65.0584V25.5935H65.9256ZM65.0584 25.5935V26.4607H64.1912V25.5935H65.0584ZM64.1912 25.5935V26.4607H63.324V25.5935H64.1912ZM62.4568 25.5935V26.4607H61.5896V25.5935H62.4568ZM62.4568 22.9919V23.8591H61.5896V22.9919H62.4568ZM64.1912 22.9919V23.8591H63.324V22.9919H64.1912ZM65.0584 22.9919V23.8591H64.1912V22.9919H65.0584ZM65.9256 22.9919V23.8591H65.0584V22.9919H65.9256ZM65.9256 23.8591V24.7263H65.0584V23.8591H65.9256ZM65.0584 23.8591V24.7263H64.1912V23.8591H65.0584ZM64.1912 23.8591V24.7263H63.324V23.8591H64.1912ZM62.4568 23.8591V24.7263H61.5896V23.8591H62.4568ZM62.4568 26.4607V27.3279H61.5896V26.4607H62.4568ZM64.1912 26.4607V27.3279H63.324V26.4607H64.1912ZM65.0584 26.4607V27.3279H64.1912V26.4607H65.0584ZM65.9256 26.4607V27.3279H65.0584V26.4607H65.9256ZM69.3945 24.7263V25.5935H68.5273V24.7263H69.3945ZM65.9256 27.3279V28.1951H65.0584V27.3279H65.9256ZM60.7224 22.9919V23.8591H59.8552V22.9919H60.7224ZM61.5896 22.9919V23.8591H60.7224V22.9919H61.5896ZM60.7224 22.1247V22.9919H59.8552V22.1247H60.7224ZM61.5896 23.8591V24.7263H60.7224V23.8591H61.5896ZM61.5896 24.7263V25.5935H60.7224V24.7263H61.5896ZM61.5896 25.5935V26.4607H60.7224V25.5935H61.5896ZM61.5896 26.4607V27.3279H60.7224V26.4607H61.5896ZM60.7224 26.4607V27.3279H59.8552V26.4607H60.7224ZM60.7224 25.5935V26.4607H59.8552V25.5935H60.7224ZM60.7224 24.7263V25.5935H59.8552V24.7263H60.7224ZM60.7224 23.8591V24.7263H59.8552V23.8591H60.7224ZM63.324 14.3198V15.187H62.4568V14.3198H63.324ZM63.324 15.187V16.0542H62.4568V15.187H63.324ZM63.324 16.0542V16.9214H62.4568V16.0542H63.324ZM63.324 16.9214V17.7886H62.4568V16.9214H63.324ZM63.324 17.7886V18.6558H62.4568V17.7886H63.324ZM63.324 22.9919V23.8591H62.4568V22.9919H63.324ZM63.324 23.8591V24.7263H62.4568V23.8591H63.324ZM63.324 24.7263V25.5935H62.4568V24.7263H63.324ZM63.324 25.5935V26.4607H62.4568V25.5935H63.324ZM63.324 26.4607V27.3279H62.4568V26.4607H63.324ZM63.324 31.664V32.5312H62.4568V31.664H63.324ZM63.324 32.5312V33.3984H62.4568V32.5312H63.324ZM63.324 33.3984V34.2656H62.4568V33.3984H63.324ZM63.324 34.2656V35.1328H62.4568V34.2656H63.324ZM63.324 35.1328V36H62.4568V35.1328H63.324Z" fill="black"/>
</svg>
