<svg width="50" height="50" viewBox="0 0 50 50" fill="none" xmlns="http://www.w3.org/2000/svg">
<path d="M9.11888 42.1117H40.8839C42.097 42.1117 43.0809 41.1278 43.0809 39.9147V22.0779C43.0809 20.8648 42.097 19.8809 40.8839 19.8809H35.3372C35.2931 20.5512 35.2164 21.2205 35.0955 21.8803C37.1717 23.1212 38.4673 25.3623 38.4673 27.8221V33.6872C38.4673 34.1926 38.1269 34.6318 37.6435 34.7526C37.5553 34.7746 37.4565 34.7852 37.3693 34.7852C36.9742 34.7852 36.6002 34.5761 36.4026 34.2136L34.5355 30.8083C34.0416 29.8964 33.1958 29.227 32.2292 28.8971C31.3373 30.2349 30.3553 31.3914 29.3628 32.2631C29.1758 32.4271 28.938 32.5105 28.6886 32.5105C27.3202 32.5105 22.6826 32.5105 21.3141 32.5105C21.0648 32.5105 20.8279 32.428 20.64 32.2631C19.6474 31.3904 18.6655 30.2349 17.7736 28.8971C16.807 29.227 15.9612 29.8964 15.4673 30.8083L13.6002 34.2136C13.4026 34.5761 13.0286 34.7852 12.6335 34.7852C12.5453 34.7852 12.4465 34.7746 12.3593 34.7526C11.8759 34.6318 11.5355 34.1926 11.5355 33.6872V27.8221C11.5355 25.3614 12.832 23.1212 14.9072 21.8803C14.7864 21.2215 14.7097 20.5512 14.6656 19.8809H9.11888C7.90578 19.8809 6.92188 20.8648 6.92188 22.0779V39.9147C6.92283 41.1288 7.90578 42.1117 9.11888 42.1117ZM27.0335 35.5437C27.0335 34.9396 27.5273 34.4457 28.1315 34.4457C28.7462 34.4457 29.2295 34.9396 29.2295 35.5437V38.5866C29.2295 39.1907 28.7462 39.6846 28.1315 39.6846C27.5273 39.6846 27.0335 39.1907 27.0335 38.5866V35.5437ZM23.9034 34.8408C23.9034 34.2367 24.3972 33.7428 25.0014 33.7428C25.6055 33.7428 26.0994 34.2367 26.0994 34.8408V39.278C26.0994 39.8927 25.6055 40.376 25.0014 40.376C24.3972 40.376 23.9034 39.8927 23.9034 39.278V34.8408ZM20.7723 35.5437C20.7723 34.9396 21.2556 34.4457 21.8703 34.4457C22.4745 34.4457 22.9684 34.9396 22.9684 35.5437V38.5866C22.9684 39.1907 22.4745 39.6846 21.8703 39.6846C21.2556 39.6846 20.7723 39.1907 20.7723 38.5866V35.5437Z" fill="#A3ACB5"/>
<path d="M13.7344 29.4256C14.4373 28.316 15.4701 27.4597 16.6564 26.9648C16.2056 26.0749 15.8106 25.1303 15.4807 24.1426C14.3932 25.0325 13.7344 26.3722 13.7344 27.8222V29.4256Z" fill="#A3ACB5"/>
<path d="M4 44.3193V46.2411C4 46.8453 4.48332 47.3391 5.09802 47.3391H44.9021C45.5168 47.3391 46.0001 46.8453 46.0001 46.2411V44.3193H4Z" fill="#A3ACB5"/>
<path d="M36.2696 29.4256V27.8222C36.2696 26.3722 35.6108 25.0325 34.5234 24.1426C34.1935 25.1313 33.7984 26.0759 33.3477 26.9648C34.5349 27.4597 35.5667 28.317 36.2696 29.4256Z" fill="#A3ACB5"/>
<path d="M24.9973 2C23.9098 3.21885 21.8777 5.67957 20.1094 8.72239H29.8851C28.1168 5.67957 26.0847 3.21885 24.9973 2Z" fill="#A3ACB5"/>
<path d="M19.2114 27.0647C19.9805 28.3391 20.8589 29.4592 21.7594 30.3156H28.2401C29.1406 29.4592 30.019 28.3382 30.7881 27.0752C30.7987 27.0532 30.8102 27.0311 30.8207 27.009C32.1825 24.7468 33.1606 21.9457 33.1606 19.0457C33.1606 18.9575 33.1501 18.8703 33.1501 18.782C33.1501 18.7715 33.1501 18.7715 33.1501 18.7715C33.0954 16.0806 32.2275 13.3782 31.0518 10.9185H18.9592C17.7729 13.3792 16.9051 16.0806 16.8504 18.7715V18.782C16.8504 18.8703 16.8398 18.9575 16.8398 19.0457C16.8398 21.9457 17.817 24.7459 19.1797 27.0196C19.1893 27.0321 19.2008 27.0532 19.2114 27.0647ZM27.3502 28.5252H22.6493C22.0451 28.5252 21.5513 28.0419 21.5513 27.4272C21.5513 26.823 22.0451 26.3291 22.6493 26.3291H27.3502C27.9543 26.3291 28.4482 26.823 28.4482 27.4272C28.4482 28.0419 27.9543 28.5252 27.3502 28.5252ZM24.9997 13.2689C27.1852 13.2689 28.9651 15.0478 28.9651 17.2342C28.9651 19.4207 27.1852 21.1996 24.9997 21.1996C22.8142 21.1996 21.0344 19.4207 21.0344 17.2342C21.0344 15.0478 22.8142 13.2689 24.9997 13.2689Z" fill="#A3ACB5"/>
</svg>
