<svg width="138" height="51" viewBox="0 0 138 51" fill="none" xmlns="http://www.w3.org/2000/svg">
<g clip-path="url(#clip0_5224_19472)">
<path d="M46.0242 39.1097C43.3057 39.0419 41.1989 39.3139 39.4319 40.0613C38.9222 40.2651 38.1065 40.2653 38.0385 40.9108C38.3106 41.1829 38.3444 41.6246 38.5823 41.9983C38.9904 42.6777 39.7037 43.5954 40.3494 44.0712C41.0629 44.6148 41.7766 45.1584 42.524 45.6342C43.8493 46.4498 45.3446 46.9254 46.6358 47.741C47.3836 48.2164 48.1308 48.8285 48.8784 49.3382C49.2523 49.6098 49.49 50.0517 49.9658 50.2216V50.1197C49.7279 49.8138 49.6599 49.3721 49.4222 49.0323C49.0826 48.6925 48.7426 48.3865 48.4028 48.0467C47.4173 46.7216 46.1941 45.5662 44.8688 44.6148C43.7816 43.8672 41.4027 42.8478 40.961 41.5904C40.961 41.5904 40.9269 41.5565 40.893 41.5227C41.6406 41.4546 42.524 41.1828 43.2377 40.9788C44.3932 40.6729 45.4465 40.7409 46.6358 40.4352C47.1794 40.2992 47.7232 40.1293 48.2668 39.9594V39.6537C47.6554 39.0419 47.2135 38.2265 46.5678 37.6488C44.8349 36.1533 42.9318 34.6924 40.961 33.4692C39.9075 32.7896 38.5482 32.3477 37.4269 31.7702C37.0193 31.566 36.3395 31.4643 36.1018 31.1245C35.49 30.3769 35.1502 29.3916 34.7085 28.5079C33.7234 26.6388 32.7716 24.5663 31.9221 22.5954C31.3107 21.2701 30.9368 19.9448 30.1891 18.7216C26.6892 12.9449 22.8833 9.44494 17.0386 6.01278C15.7813 5.29928 14.2863 4.99337 12.6892 4.61967C11.8399 4.58556 10.9902 4.51777 10.1406 4.48366C9.59703 4.24575 9.05321 3.60026 8.5774 3.29434C6.6409 2.07092 1.6455 -0.579311 0.218277 2.92065C-0.699241 5.12939 1.5775 7.304 2.359 8.42552C2.93693 9.20704 3.68432 10.0904 4.09213 10.9741C4.33004 11.5514 4.39783 12.1634 4.63574 12.775C5.17955 14.2698 5.68905 15.9351 6.40277 17.3285C6.77668 18.042 7.18428 18.7896 7.66009 19.4351C7.93189 19.8088 8.40749 19.9789 8.5096 20.5905C8.034 21.2701 7.99989 22.2895 7.72788 23.1391C6.50466 26.9788 6.98048 31.7361 8.7134 34.5564C9.257 35.4057 10.5484 37.2751 12.2814 36.5614C13.8105 35.9498 13.4707 34.0128 13.9124 32.3138C14.0145 31.9058 13.9465 31.6342 14.1503 31.3624C14.1505 31.3963 14.1503 31.4304 14.1503 31.4304C14.6261 32.3818 15.1017 33.2993 15.5434 34.2507C16.5969 35.9156 18.4318 37.6488 19.9609 38.8042C20.7767 39.4156 21.4222 40.4691 22.4416 40.843V40.7409H22.3736C22.1696 40.435 21.8639 40.2992 21.5921 40.0613C20.9805 39.4497 20.3007 38.7021 19.8251 38.0225C18.3981 36.1194 17.1405 34.0128 16.0192 31.838C15.4756 30.7847 14.9998 29.6292 14.5581 28.5759C14.3541 28.1679 14.3541 27.5565 14.0143 27.3527C13.5046 28.1001 12.7572 28.7458 12.3833 29.6634C11.738 31.1245 11.6698 32.9254 11.4318 34.7943C11.2961 34.8284 11.3638 34.7943 11.2958 34.8623C10.2086 34.5903 9.83471 33.4692 9.4269 32.5176C8.40748 30.1051 8.23758 26.2312 9.1212 23.445C9.35911 22.7313 10.3785 20.4886 9.97072 19.809C9.76692 19.1633 9.08709 18.7896 8.71339 18.2799C8.27169 17.6342 7.79588 16.8188 7.49018 16.1051C6.67456 14.2022 6.26676 12.0954 5.38335 10.1923C4.97554 9.30872 4.26204 8.39142 3.68432 7.57602C3.03883 6.6585 2.3251 6.01278 1.81539 4.92536C1.6457 4.55166 1.40758 3.94006 1.67938 3.53225C1.74739 3.26045 1.88318 3.15855 2.15519 3.09054C2.5969 2.71663 3.85422 3.19244 4.29592 3.39624C5.55324 3.90573 6.60655 4.38176 7.66007 5.09526C8.13567 5.43507 8.64538 6.08079 9.25698 6.25069H9.9707C11.0581 6.48838 12.2813 6.31869 13.3008 6.62439C15.1019 7.20188 16.7327 8.05161 18.194 8.96913C22.6456 11.7895 26.3153 15.7993 28.796 20.5905C29.2038 21.3718 29.3735 22.0857 29.7474 22.9012C30.4611 24.5663 31.3445 26.2653 32.0581 27.8963C32.7716 29.4932 33.4512 31.1245 34.4706 32.4498C34.9805 33.1631 37.0191 33.537 37.9366 33.9109C38.6162 34.2166 39.6698 34.4887 40.2814 34.8623C41.4366 35.5756 42.592 36.3915 43.6794 37.173C44.2232 37.5806 45.9221 38.4303 46.0242 39.1097Z" fill="#00546B"/>
<path d="M11.3638 9.58008C10.7861 9.58008 10.3785 9.6483 9.9707 9.7502C9.9707 9.7502 9.9707 9.78431 9.9707 9.8182H10.0387C10.3107 10.3618 10.7861 10.7357 11.1259 11.2113C11.3979 11.7549 11.6356 12.2987 11.9076 12.8426C11.9415 12.8084 11.9754 12.7746 11.9754 12.7746C12.4515 12.4345 12.6891 11.8909 12.6891 11.0755C12.4851 10.8376 12.4512 10.5997 12.2813 10.3618C12.0775 10.0218 11.6356 9.8521 11.3638 9.58008Z" fill="#00546B"/>
</g>
<path d="M71.7614 18.2417H73.8636L78.8068 30.3155H78.9773L83.9205 18.2417H86.0227V32.7871H84.375V21.736H84.233L79.6875 32.7871H78.0966L73.5511 21.736H73.4091V32.7871H71.7614V18.2417ZM90.4066 36.878C90.1225 36.878 89.8692 36.8543 89.6467 36.807C89.4241 36.7644 89.2702 36.7218 89.185 36.6792L89.6112 35.2019C90.0183 35.306 90.3782 35.3439 90.6907 35.3155C91.0032 35.2871 91.2802 35.1474 91.5217 34.8965C91.7679 34.6503 91.9928 34.2502 92.1964 33.6962L92.5089 32.8439L88.4748 21.878H90.293L93.3043 30.5712H93.418L96.4293 21.878H98.2475L93.6168 34.378C93.4085 34.9415 93.1504 35.4078 92.8427 35.7772C92.5349 36.1512 92.1774 36.4282 91.7702 36.6081C91.3678 36.7881 90.9132 36.878 90.4066 36.878ZM108.642 21.878C108.556 21.1583 108.211 20.5996 107.605 20.2019C106.999 19.8042 106.255 19.6053 105.375 19.6053C104.731 19.6053 104.167 19.7095 103.684 19.9178C103.206 20.1261 102.832 20.4126 102.562 20.7772C102.297 21.1417 102.164 21.556 102.164 22.0201C102.164 22.4083 102.257 22.7421 102.441 23.0215C102.631 23.2961 102.872 23.5257 103.166 23.7104C103.459 23.8903 103.767 24.0395 104.089 24.1578C104.411 24.2715 104.707 24.3638 104.977 24.4348L106.454 24.8326C106.833 24.932 107.254 25.0693 107.718 25.2445C108.187 25.4197 108.635 25.6588 109.061 25.9618C109.492 26.2601 109.847 26.6436 110.126 27.1124C110.405 27.5811 110.545 28.1564 110.545 28.8382C110.545 29.6242 110.339 30.3345 109.927 30.9689C109.52 31.6034 108.923 32.1077 108.137 32.4817C107.356 32.8558 106.407 33.0428 105.289 33.0428C104.248 33.0428 103.346 32.8747 102.583 32.5385C101.826 32.2024 101.229 31.7336 100.794 31.1323C100.363 30.531 100.119 29.8326 100.062 29.0371H101.88C101.928 29.5864 102.112 30.0409 102.434 30.4007C102.761 30.7559 103.173 31.021 103.67 31.1962C104.172 31.3667 104.712 31.4519 105.289 31.4519C105.962 31.4519 106.565 31.343 107.1 31.1252C107.636 30.9026 108.059 30.5949 108.372 30.2019C108.684 29.8042 108.841 29.3401 108.841 28.8098C108.841 28.3269 108.706 27.9339 108.436 27.6309C108.166 27.3278 107.811 27.0816 107.37 26.8922C106.93 26.7028 106.454 26.5371 105.943 26.3951L104.153 25.8837C103.017 25.557 102.117 25.0906 101.454 24.4846C100.791 23.8785 100.46 23.0854 100.46 22.1053C100.46 21.2909 100.68 20.5807 101.12 19.9746C101.565 19.3638 102.162 18.8903 102.91 18.5542C103.663 18.2132 104.503 18.0428 105.431 18.0428C106.369 18.0428 107.202 18.2109 107.931 18.5471C108.661 18.8785 109.238 19.333 109.664 19.9107C110.095 20.4883 110.323 21.1441 110.346 21.878H108.642ZM118.725 28.2417H120.657L122.276 30.3723L122.702 30.9405L125.117 34.1507H123.185L121.594 32.0201L121.197 31.4803L118.725 28.2417ZM125.714 25.5144C125.714 27.0485 125.437 28.3742 124.883 29.4917C124.329 30.6091 123.569 31.4708 122.603 32.0769C121.637 32.6829 120.534 32.986 119.293 32.986C118.053 32.986 116.95 32.6829 115.984 32.0769C115.018 31.4708 114.258 30.6091 113.704 29.4917C113.15 28.3742 112.873 27.0485 112.873 25.5144C112.873 23.9803 113.15 22.6545 113.704 21.5371C114.258 20.4197 115.018 19.5579 115.984 18.9519C116.95 18.3458 118.053 18.0428 119.293 18.0428C120.534 18.0428 121.637 18.3458 122.603 18.9519C123.569 19.5579 124.329 20.4197 124.883 21.5371C125.437 22.6545 125.714 23.9803 125.714 25.5144ZM124.009 25.5144C124.009 24.2549 123.799 23.1919 123.377 22.3255C122.96 21.459 122.395 20.8032 121.68 20.3581C120.969 19.9131 120.174 19.6905 119.293 19.6905C118.413 19.6905 117.615 19.9131 116.9 20.3581C116.19 20.8032 115.624 21.459 115.202 22.3255C114.786 23.1919 114.577 24.2549 114.577 25.5144C114.577 26.7739 114.786 27.8368 115.202 28.7033C115.624 29.5698 116.19 30.2256 116.9 30.6706C117.615 31.1157 118.413 31.3382 119.293 31.3382C120.174 31.3382 120.969 31.1157 121.68 30.6706C122.395 30.2256 122.96 29.5698 123.377 28.7033C123.799 27.8368 124.009 26.7739 124.009 25.5144ZM128.675 32.7871V18.2417H130.437V31.2246H137.198V32.7871H128.675Z" fill="white"/>
<defs>
<clipPath id="clip0_5224_19472">
<rect width="50" height="50" fill="white" transform="translate(0 0.787109)"/>
</clipPath>
</defs>
</svg>
