<svg width="100" height="100" viewBox="0 0 100 100" fill="none" xmlns="http://www.w3.org/2000/svg">
<circle cx="50" cy="50" r="50" fill="#FF5D00" fill-opacity="0.1"/>
<path d="M67.9545 27H55.9091C55.5123 27.0021 55.1222 27.1021 54.7733 27.2912C54.4245 27.4803 54.1278 27.7527 53.9095 28.0841L49.79 34.2273H39.0455C35.8508 34.2273 32.787 35.4963 30.528 37.7553C28.2691 40.0143 27 43.0781 27 46.2727V63.1364C27 66.331 28.2691 69.3948 30.528 71.6538C32.787 73.9127 35.8508 75.1818 39.0455 75.1818H67.9545C71.1492 75.1818 74.213 73.9127 76.472 71.6538C78.7309 69.3948 80 66.331 80 63.1364V39.0455C80 35.8508 78.7309 32.787 76.472 30.528C74.213 28.2691 71.1492 27 67.9545 27ZM50.3923 55.2105L45.5741 60.0286C45.3501 60.2544 45.0837 60.4337 44.7901 60.556C44.4965 60.6783 44.1817 60.7412 43.8636 60.7412C43.5456 60.7412 43.2307 60.6783 42.9372 60.556C42.6436 60.4337 42.3771 60.2544 42.1532 60.0286C41.9274 59.8047 41.7482 59.5382 41.6259 59.2447C41.5035 58.9511 41.4406 58.6362 41.4406 58.3182C41.4406 58.0002 41.5035 57.6853 41.6259 57.3917C41.7482 57.0981 41.9274 56.8317 42.1532 56.6077L45.285 53.5L42.1532 50.3923C41.6995 49.9386 41.4447 49.3234 41.4447 48.6818C41.4447 48.0403 41.6995 47.425 42.1532 46.9714C42.6068 46.5177 43.2221 46.2629 43.8636 46.2629C44.5052 46.2629 45.1205 46.5177 45.5741 46.9714L50.3923 51.7895C50.6181 52.0135 50.7973 52.2799 50.9196 52.5735C51.0419 52.8671 51.1049 53.182 51.1049 53.5C51.1049 53.818 51.0419 54.1329 50.9196 54.4265C50.7973 54.72 50.6181 54.9865 50.3923 55.2105ZM63.1364 60.7273H58.3182C57.6793 60.7273 57.0665 60.4735 56.6147 60.0217C56.1629 59.5699 55.9091 58.9571 55.9091 58.3182C55.9091 57.6792 56.1629 57.0665 56.6147 56.6147C57.0665 56.1629 57.6793 55.9091 58.3182 55.9091H63.1364C63.7753 55.9091 64.3881 56.1629 64.8399 56.6147C65.2916 57.0665 65.5455 57.6792 65.5455 58.3182C65.5455 58.9571 65.2916 59.5699 64.8399 60.0217C64.3881 60.4735 63.7753 60.7273 63.1364 60.7273Z" fill="#FF5D00"/>
</svg>
