<svg width="100" height="100" viewBox="0 0 100 100" fill="none" xmlns="http://www.w3.org/2000/svg">
<circle cx="50" cy="50" r="50" fill="#FF5D00" fill-opacity="0.1"/>
<g clip-path="url(#clip0_3009_7081)">
<path d="M73.125 70.7812H55.6094V72.625C55.6094 73.6391 54.7797 74.4688 53.7656 74.4688H42.7031C41.6891 74.4688 40.8594 73.6391 40.8594 72.625V70.7812H23.3438C22.3297 70.7812 21.5 71.6109 21.5 72.625V74.4688C21.5 77.5202 23.9798 80 27.0313 80H69.4375C72.4889 80 74.9688 77.5202 74.9688 74.4688V72.625C74.9688 71.6109 74.1391 70.7812 73.125 70.7812ZM71.8805 67.0938C72.0925 66.513 72.2031 65.8953 72.2031 65.25V46.5452C71.3089 46.7203 70.387 46.8125 69.4375 46.8125C61.3066 46.8125 54.6875 40.1934 54.6875 32.0625H29.7969C26.7455 32.0625 24.2656 34.5423 24.2656 37.5938V65.25C24.2656 65.8953 24.3763 66.513 24.5883 67.0938H71.8805ZM55.2277 49.0379C55.0516 48.8678 54.9112 48.6644 54.8145 48.4394C54.7179 48.2145 54.667 47.9726 54.6649 47.7277C54.6628 47.4829 54.7094 47.2401 54.8021 47.0136C54.8948 46.787 55.0318 46.5811 55.2049 46.408C55.378 46.2349 55.5838 46.098 55.8104 46.0053C56.037 45.9126 56.2798 45.8659 56.5246 45.868C56.7694 45.8702 57.0114 45.921 57.2363 46.0177C57.4613 46.1143 57.6647 46.2547 57.8348 46.4308L61.5223 50.1183C61.8679 50.4641 62.0621 50.933 62.0621 51.4219C62.0621 51.9108 61.8679 52.3797 61.5223 52.7254L57.8348 56.4129C57.4743 56.7734 57.0033 56.9531 56.5313 56.9531C56.0593 56.9531 55.5882 56.7734 55.2277 56.4129C54.8821 56.0672 54.6879 55.5983 54.6879 55.1094C54.6879 54.6205 54.8821 54.1516 55.2277 53.8058L57.6117 51.4219L55.2277 49.0379ZM44.6418 56.3696L48.3293 45.3071C48.4059 45.0774 48.527 44.865 48.6856 44.6821C48.8443 44.4991 49.0374 44.3492 49.254 44.2409C49.4706 44.1327 49.7063 44.0681 49.9479 44.0509C50.1894 44.0338 50.432 44.0643 50.6617 44.1409C50.8914 44.2175 51.1038 44.3385 51.2867 44.4972C51.4696 44.6558 51.6195 44.849 51.7278 45.0656C51.8361 45.2821 51.9007 45.5179 51.9178 45.7595C51.935 46.001 51.9044 46.2435 51.8278 46.4732L48.1403 57.5358C48.0638 57.7655 47.9427 57.9778 47.7841 58.1608C47.6254 58.3437 47.4323 58.4936 47.2157 58.6019C46.9991 58.7102 46.7633 58.7747 46.5218 58.7919C46.2803 58.8091 46.0377 58.7785 45.808 58.7019C45.5783 58.6254 45.3659 58.5043 45.183 58.3456C45 58.187 44.8502 57.9939 44.7419 57.7773C44.6336 57.5607 44.569 57.3249 44.5518 57.0834C44.5347 56.8418 44.5653 56.5993 44.6418 56.3696ZM34.9465 50.1183L38.634 46.4308C38.8041 46.2547 39.0075 46.1143 39.2324 46.0177C39.4574 45.921 39.6993 45.8702 39.9441 45.868C40.1889 45.8659 40.4317 45.9126 40.6583 46.0053C40.8849 46.098 41.0908 46.2349 41.2639 46.408C41.437 46.5811 41.5739 46.787 41.6666 47.0136C41.7593 47.2401 41.806 47.4829 41.8038 47.7277C41.8017 47.9726 41.7508 48.2145 41.6542 48.4394C41.5576 48.6644 41.4171 48.8678 41.241 49.0379L38.8571 51.4219L41.241 53.8058C41.4171 53.9759 41.5576 54.1794 41.6542 54.4043C41.7508 54.6293 41.8017 54.8712 41.8038 55.116C41.806 55.3608 41.7593 55.6036 41.6666 55.8302C41.5739 56.0568 41.437 56.2626 41.2639 56.4358C41.0908 56.6089 40.8849 56.7458 40.6583 56.8385C40.4317 56.9312 40.1889 56.9778 39.9441 56.9757C39.6993 56.9736 39.4574 56.9227 39.2324 56.8261C39.0075 56.7295 38.8041 56.589 38.634 56.4129L34.9465 52.7254C34.6008 52.3797 34.4066 51.9108 34.4066 51.4219C34.4066 50.933 34.6008 50.4641 34.9465 50.1183ZM51.9403 28.375C52.4293 28.375 52.8983 28.1807 53.244 27.835C53.5898 27.4892 53.7841 27.0202 53.7841 26.5312C53.7841 26.0423 53.5898 25.5733 53.244 25.2275C52.8983 24.8818 52.4293 24.6875 51.9403 24.6875H51.9311C50.9133 24.6875 50.092 25.5135 50.092 26.5312C50.092 27.549 50.9216 28.375 51.9403 28.375ZM44.5653 28.375C45.0543 28.375 45.5233 28.1807 45.869 27.835C46.2148 27.4892 46.4091 27.0202 46.4091 26.5312C46.4091 26.0423 46.2148 25.5733 45.869 25.2275C45.5233 24.8818 45.0543 24.6875 44.5653 24.6875H44.5561C43.5383 24.6875 42.717 25.5135 42.717 26.5312C42.717 27.549 43.5466 28.375 44.5653 28.375ZM69.4375 38.8641C70.7484 37.543 71.6574 35.7924 72.0224 33.9062H66.8516C67.2176 35.7924 68.1266 37.543 69.4375 38.8641ZM72.0224 30.2188C71.6574 28.3326 70.7484 26.582 69.4375 25.2609C68.1266 26.582 67.2176 28.3326 66.8526 30.2188H72.0224ZM70.5143 42.7784C70.2006 43.004 69.8239 43.1253 69.4375 43.125C74.9171 43.125 79.4546 39.136 80.3341 33.9062H75.7468C75.2462 37.4518 73.3444 40.7429 70.5143 42.7784ZM75.7468 30.2188H80.3341C79.4546 24.9899 74.9199 21.0028 69.4421 21C69.8182 21.0009 70.1944 21.1162 70.5143 21.3466C73.3444 23.3821 75.2462 26.6732 75.7468 30.2188ZM68.3608 21.3466C68.6806 21.1162 69.0568 21.0009 69.4329 21C63.9551 21.0028 59.4204 24.9899 58.5409 30.2188H63.1282C63.6288 26.6732 65.5306 23.3821 68.3608 21.3466Z" fill="#FF5D00"/>
<path d="M63.1263 33.9062H58.5391C59.4185 39.136 63.956 43.125 69.4356 43.125C69.0586 43.125 68.6806 43.0098 68.3589 42.7784C65.5287 40.7429 63.6269 37.4518 63.1263 33.9062Z" fill="#FF5D00"/>
</g>
<defs>
<clipPath id="clip0_3009_7081">
<rect width="59" height="59" fill="white" transform="translate(21.5 21)"/>
</clipPath>
</defs>
</svg>
