<svg width="100" height="101" viewBox="0 0 100 101" fill="none" xmlns="http://www.w3.org/2000/svg">
<circle cx="50" cy="50.5" r="50" fill="#FF5D00" fill-opacity="0.1"/>
<path d="M39.6 70.4C36.727 70.4 34.426 72.7718 34.426 75.7C34.426 78.6283 36.727 81 39.6 81C42.473 81 44.8 78.6283 44.8 75.7C44.8 72.7718 42.473 70.4 39.6 70.4ZM24 28V33.3H29.2L38.547 53.4003L35.037 59.8928C34.634 60.6613 34.4 61.5225 34.4 62.45C34.4 65.3783 36.727 67.75 39.6 67.75H70.8V62.45H40.705C40.341 62.45 40.055 62.1585 40.055 61.7875C40.055 61.6683 40.081 61.5623 40.133 61.4695L42.46 57.15H61.83C63.78 57.15 65.483 56.0503 66.38 54.4205L75.675 37.222C75.883 36.851 76 36.4138 76 35.95C76 35.2472 75.7261 34.5731 75.2385 34.0762C74.7509 33.5792 74.0896 33.3 73.4 33.3H34.959L32.489 28H24ZM65.6 70.4C62.727 70.4 60.426 72.7718 60.426 75.7C60.426 78.6283 62.727 81 65.6 81C68.473 81 70.8 78.6283 70.8 75.7C70.8 72.7718 68.473 70.4 65.6 70.4Z" fill="#FF5D00"/>
</svg>
