<svg width="100" height="101" viewBox="0 0 100 101" fill="none" xmlns="http://www.w3.org/2000/svg">
<circle cx="50" cy="50.5" r="50" fill="#FF5D00" fill-opacity="0.1"/>
<path d="M52.8597 20V41.1522C56.4347 42.3439 58.818 45.621 58.818 49.4939C58.818 50.9835 58.5201 52.4731 57.6264 53.6648L63.5847 58.4315C63.8827 58.4315 64.1806 58.1335 64.7764 58.1335C66.5639 58.1335 67.7556 59.3252 67.7556 61.1127C67.7556 62.9002 66.5639 64.0919 64.7764 64.0919C62.9889 64.0919 61.7972 62.9002 61.7972 61.1127V60.8148L55.8389 56.0481C54.3493 57.5377 52.2638 58.4315 49.8805 58.4315C44.8159 58.4315 40.9429 54.5585 40.9429 49.4939C40.9429 45.621 43.3263 42.3439 46.9013 41.1522V20.2979H46.6034C36.1763 21.4896 27.5366 30.1292 26.3449 40.8543C25.4512 47.4085 27.2387 53.3668 30.8137 58.1335C33.495 61.7086 34.9846 65.5815 34.9846 70.0503V79.5837H61.7972V70.6461H67.7556C71.0327 70.6461 73.714 67.9648 73.714 64.6877V55.7502L78.1827 53.9627C79.3744 53.3668 79.9702 51.5793 79.3744 50.3877L73.714 41.4501C72.5223 30.4271 63.8827 21.4896 52.8597 20ZM49.8805 45.3231C47.4971 45.3231 45.4117 47.4085 45.4117 49.7918C45.4117 52.1752 47.4971 54.2606 49.8805 54.2606C52.2638 54.2606 54.3493 52.1752 54.3493 49.7918C54.3493 47.4085 52.2638 45.3231 49.8805 45.3231Z" fill="#FF5D00"/>
</svg>
