<svg width="100" height="100" viewBox="0 0 100 100" fill="none" xmlns="http://www.w3.org/2000/svg">
<circle cx="50" cy="50" r="50" fill="#FF5D00" fill-opacity="0.1"/>
<path d="M66.9613 21.5C64.2268 21.502 61.6049 22.5891 59.6714 24.5227C57.7379 26.4562 56.6507 29.0781 56.6488 31.8125C56.6524 34.5192 57.72 37.1159 59.6212 39.0424C61.5225 40.9688 64.1049 42.0706 66.8112 42.11H67.1C69.8064 42.0706 72.3888 40.9688 74.29 39.0424C76.1912 37.1159 77.2589 34.5192 77.2625 31.8125C77.2625 29.0794 76.1776 26.4581 74.246 24.5244C72.3145 22.5908 69.6943 21.503 66.9613 21.5ZM71.9113 27.17L73.235 28.4938L65.2738 36.4475C65.1872 36.5351 65.0842 36.6047 64.9706 36.6522C64.8569 36.6997 64.735 36.7242 64.6119 36.7242C64.4887 36.7242 64.3668 36.6997 64.2532 36.6522C64.1396 36.6047 64.0365 36.5351 63.95 36.4475L60.6838 33.185L62.0075 31.8575L64.6175 34.4563L71.9113 27.17ZM24.5487 28.985C24.1396 28.984 23.7468 29.1453 23.4565 29.4335C23.1662 29.7218 23.002 30.1134 23 30.5225V40.5725C23 41.42 23.6937 42.11 24.545 42.11H60.5075C58.7566 41.0208 57.3113 39.5042 56.3077 37.7029C55.304 35.9015 54.7749 33.8746 54.77 31.8125C54.77 30.8338 54.9125 29.8962 55.13 28.985H24.5487ZM27.6875 34.61H42.6875V36.485H27.6875V34.61ZM24.545 43.985C24.1365 43.985 23.7447 44.1467 23.4552 44.4349C23.1656 44.723 23.002 45.114 23 45.5225V55.5725C23 56.4238 23.6975 57.11 24.545 57.11H68.3375C68.7453 57.11 69.1363 56.948 69.4247 56.6597C69.713 56.3713 69.875 55.9803 69.875 55.5725V45.5225C69.875 45.1147 69.713 44.7237 69.4247 44.4353C69.1363 44.147 68.7453 43.985 68.3375 43.985H67.1075C67.0588 43.985 67.0138 44 66.9575 44C66.9087 44 66.8675 43.985 66.815 43.985H24.545ZM63.395 49.4225C64.01 49.4225 64.52 49.925 64.52 50.5475C64.52 51.1663 64.01 51.6725 63.395 51.6725C63.0966 51.6715 62.8106 51.5528 62.5993 51.3421C62.3879 51.1315 62.2682 50.8459 62.2663 50.5475C62.2663 49.925 62.7725 49.4225 63.3913 49.4225H63.395ZM27.6875 49.61H42.6875V51.485H27.6875V49.61ZM24.545 58.985C24.1365 58.985 23.7447 59.1467 23.4552 59.4349C23.1656 59.723 23.002 60.114 23 60.5225V70.5725C23 71.4238 23.6975 72.11 24.545 72.11H68.3375C68.7453 72.11 69.1363 71.948 69.4247 71.6597C69.713 71.3713 69.875 70.9803 69.875 70.5725V60.5225C69.875 60.1147 69.713 59.7237 69.4247 59.4353C69.1363 59.147 68.7453 58.985 68.3375 58.985H24.545ZM63.29 64.4225C63.5889 64.4225 63.8755 64.5412 64.0868 64.7526C64.2982 64.9639 64.4169 65.2505 64.4169 65.5494C64.4169 65.8482 64.2982 66.1349 64.0868 66.3462C63.8755 66.5575 63.5889 66.6763 63.29 66.6763C62.9906 66.6763 62.7035 66.5573 62.4919 66.3456C62.2802 66.134 62.1613 65.8469 62.1613 65.5475C62.1613 65.2481 62.2802 64.961 62.4919 64.7494C62.7035 64.5377 62.9906 64.4225 63.29 64.4225ZM27.6875 64.61H42.6875V66.485H27.6875V64.61Z" fill="#FF5D00"/>
</svg>
