<svg width="72" height="31" viewBox="0 0 72 31" fill="none" xmlns="http://www.w3.org/2000/svg">
<path d="M1.60864 21.5546V22.0908H1.07243V21.5546H1.60864ZM1.60864 21.0184V21.5546H1.07243V21.0184H1.60864ZM1.60864 20.4822V21.0184H1.07243V20.4822H1.60864ZM1.60864 19.946V20.4822H1.07243V19.946H1.60864ZM1.60864 19.4098V19.946H1.07243V19.4098H1.60864ZM1.60864 18.8735V19.4098H1.07243V18.8735H1.60864ZM1.60864 18.3373V18.8735H1.07243V18.3373H1.60864ZM1.60864 17.8011V18.3373H1.07243V17.8011H1.60864ZM1.60864 17.2649V17.8011H1.07243V17.2649H1.60864ZM1.60864 16.7287V17.2649H1.07243V16.7287H1.60864ZM1.60864 16.1925V16.7287H1.07243V16.1925H1.60864ZM1.60864 15.6563V16.1925H1.07243V15.6563H1.60864ZM1.60864 15.1201V15.6563H1.07243V15.1201H1.60864ZM1.60864 14.5838V15.1201H1.07243V14.5838H1.60864ZM1.60864 14.0476V14.5838H1.07243V14.0476H1.60864ZM2.14485 14.0476V14.5838H1.60864V14.0476H2.14485ZM2.14485 14.5838V15.1201H1.60864V14.5838H2.14485ZM2.14485 15.1201V15.6563H1.60864V15.1201H2.14485ZM2.14485 15.6563V16.1925H1.60864V15.6563H2.14485ZM2.14485 16.1925V16.7287H1.60864V16.1925H2.14485ZM2.14485 16.7287V17.2649H1.60864V16.7287H2.14485ZM2.14485 17.2649V17.8011H1.60864V17.2649H2.14485ZM2.68106 17.8011V18.3373H2.14485V17.8011H2.68106ZM2.68106 18.3373V18.8735H2.14485V18.3373H2.68106ZM2.68106 18.8735V19.4098H2.14485V18.8735H2.68106ZM2.68106 19.4098V19.946H2.14485V19.4098H2.68106ZM2.68106 19.946V20.4822H2.14485V19.946H2.68106ZM2.68106 20.4822V21.0184H2.14485V20.4822H2.68106ZM2.68106 21.0184V21.5546H2.14485V21.0184H2.68106ZM2.68106 21.5546V22.0908H2.14485V21.5546H2.68106ZM3.21728 21.5546V22.0908H2.68106V21.5546H3.21728ZM3.75349 21.5546V22.0908H3.21728V21.5546H3.75349ZM3.75349 21.0184V21.5546H3.21728V21.0184H3.75349ZM3.75349 20.4822V21.0184H3.21728V20.4822H3.75349ZM3.75349 19.946V20.4822H3.21728V19.946H3.75349ZM3.75349 19.4098V19.946H3.21728V19.4098H3.75349ZM3.75349 18.8735V19.4098H3.21728V18.8735H3.75349ZM3.75349 18.3373V18.8735H3.21728V18.3373H3.75349ZM3.75349 17.8011V18.3373H3.21728V17.8011H3.75349ZM3.21728 17.8011V18.3373H2.68106V17.8011H3.21728ZM3.21728 17.2649V17.8011H2.68106V17.2649H3.21728ZM3.21728 18.3373V18.8735H2.68106V18.3373H3.21728ZM3.21728 18.8735V19.4098H2.68106V18.8735H3.21728ZM3.21728 19.4098V19.946H2.68106V19.4098H3.21728ZM3.21728 19.946V20.4822H2.68106V19.946H3.21728ZM3.21728 20.4822V21.0184H2.68106V20.4822H3.21728ZM3.21728 21.0184V21.5546H2.68106V21.0184H3.21728ZM2.14485 21.5546V22.0908H1.60864V21.5546H2.14485ZM2.14485 21.0184V21.5546H1.60864V21.0184H2.14485ZM2.14485 20.4822V21.0184H1.60864V20.4822H2.14485ZM2.14485 19.946V20.4822H1.60864V19.946H2.14485ZM2.14485 19.4098V19.946H1.60864V19.4098H2.14485ZM2.14485 18.8735V19.4098H1.60864V18.8735H2.14485ZM2.14485 18.3373V18.8735H1.60864V18.3373H2.14485ZM2.14485 17.8011V18.3373H1.60864V17.8011H2.14485ZM1.60864 8.6855V9.22171H1.07243V8.6855H1.60864ZM1.60864 9.22171V9.75792H1.07243V9.22171H1.60864ZM1.60864 9.75792V10.2941H1.07243V9.75792H1.60864ZM1.60864 10.2941V10.8303H1.07243V10.2941H1.60864ZM1.60864 10.8303V11.3666H1.07243V10.8303H1.60864ZM1.60864 11.3666V11.9028H1.07243V11.3666H1.60864ZM1.60864 11.9028V12.439H1.07243V11.9028H1.60864ZM1.60864 12.439V12.9752H1.07243V12.439H1.60864ZM1.60864 12.9752V13.5114H1.07243V12.9752H1.60864ZM1.60864 13.5114V14.0476H1.07243V13.5114H1.60864ZM3.21728 8.6855V9.22171H2.68106V8.6855H3.21728ZM3.21728 9.22171V9.75792H2.68106V9.22171H3.21728ZM3.21728 9.75792V10.2941H2.68106V9.75792H3.21728ZM3.21728 10.2941V10.8303H2.68106V10.2941H3.21728ZM3.21728 10.8303V11.3666H2.68106V10.8303H3.21728ZM3.21728 11.3666V11.9028H2.68106V11.3666H3.21728ZM3.21728 12.439V12.9752H2.68106V12.439H3.21728ZM3.21728 12.9752V13.5114H2.68106V12.9752H3.21728ZM3.21728 13.5114V14.0476H2.68106V13.5114H3.21728ZM3.21728 14.0476V14.5838H2.68106V14.0476H3.21728ZM3.21728 14.5838V15.1201H2.68106V14.5838H3.21728ZM3.21728 15.1201V15.6563H2.68106V15.1201H3.21728ZM3.21728 15.6563V16.1925H2.68106V15.6563H3.21728ZM3.75349 16.1925V16.7287H3.21728V16.1925H3.75349ZM3.75349 16.7287V17.2649H3.21728V16.7287H3.75349ZM3.75349 17.2649V17.8011H3.21728V17.2649H3.75349ZM3.75349 15.6563V16.1925H3.21728V15.6563H3.75349ZM3.75349 15.1201V15.6563H3.21728V15.1201H3.75349ZM3.75349 14.5838V15.1201H3.21728V14.5838H3.75349ZM3.75349 14.0476V14.5838H3.21728V14.0476H3.75349ZM3.75349 13.5114V14.0476H3.21728V13.5114H3.75349ZM3.75349 12.9752V13.5114H3.21728V12.9752H3.75349ZM3.75349 12.439V12.9752H3.21728V12.439H3.75349ZM3.75349 11.9028V12.439H3.21728V11.9028H3.75349ZM3.75349 11.3666V11.9028H3.21728V11.3666H3.75349ZM3.75349 10.8303V11.3666H3.21728V10.8303H3.75349ZM3.21728 11.9028V12.439H2.68106V11.9028H3.21728ZM3.75349 10.2941V10.8303H3.21728V10.2941H3.75349ZM3.75349 9.75792V10.2941H3.21728V9.75792H3.75349ZM3.75349 9.22171V9.75792H3.21728V9.22171H3.75349ZM3.75349 8.6855V9.22171H3.21728V8.6855H3.75349ZM2.68106 8.6855V9.22171H2.14485V8.6855H2.68106ZM2.14485 8.6855V9.22171H1.60864V8.6855H2.14485ZM2.14485 9.22171V9.75792H1.60864V9.22171H2.14485ZM2.68106 9.22171V9.75792H2.14485V9.22171H2.68106ZM2.68106 9.75792V10.2941H2.14485V9.75792H2.68106ZM2.68106 10.2941V10.8303H2.14485V10.2941H2.68106ZM2.68106 10.8303V11.3666H2.14485V10.8303H2.68106ZM2.68106 11.3666V11.9028H2.14485V11.3666H2.68106ZM2.68106 11.9028V12.439H2.14485V11.9028H2.68106ZM2.68106 12.439V12.9752H2.14485V12.439H2.68106ZM2.14485 12.9752V13.5114H1.60864V12.9752H2.14485ZM2.14485 13.5114V14.0476H1.60864V13.5114H2.14485ZM2.14485 12.439V12.9752H1.60864V12.439H2.14485ZM2.14485 11.9028V12.439H1.60864V11.9028H2.14485ZM2.14485 11.3666V11.9028H1.60864V11.3666H2.14485ZM2.14485 10.8303V11.3666H1.60864V10.8303H2.14485ZM2.14485 10.2941V10.8303H1.60864V10.2941H2.14485ZM2.14485 9.75792V10.2941H1.60864V9.75792H2.14485ZM2.68106 12.9752V13.5114H2.14485V12.9752H2.68106ZM2.68106 13.5114V14.0476H2.14485V13.5114H2.68106ZM2.68106 14.0476V14.5838H2.14485V14.0476H2.68106ZM2.68106 14.5838V15.1201H2.14485V14.5838H2.68106ZM2.68106 15.1201V15.6563H2.14485V15.1201H2.68106ZM2.68106 15.6563V16.1925H2.14485V15.6563H2.68106ZM2.68106 16.1925V16.7287H2.14485V16.1925H2.68106ZM2.68106 16.7287V17.2649H2.14485V16.7287H2.68106ZM2.68106 17.2649V17.8011H2.14485V17.2649H2.68106ZM3.21728 16.7287V17.2649H2.68106V16.7287H3.21728ZM3.21728 16.1925V16.7287H2.68106V16.1925H3.21728ZM9.11562 8.6855V9.22171H8.57941V8.6855H9.11562ZM9.11562 9.22171V9.75792H8.57941V9.22171H9.11562ZM9.11562 9.75792V10.2941H8.57941V9.75792H9.11562ZM9.11562 10.8303V11.3666H8.57941V10.8303H9.11562ZM9.11562 11.3666V11.9028H8.57941V11.3666H9.11562ZM9.11562 11.9028V12.439H8.57941V11.9028H9.11562ZM9.11562 12.439V12.9752H8.57941V12.439H9.11562ZM9.11562 12.9752V13.5114H8.57941V12.9752H9.11562ZM9.11562 13.5114V14.0476H8.57941V13.5114H9.11562ZM9.11562 14.0476V14.5838H8.57941V14.0476H9.11562ZM9.65183 14.5838V15.1201H9.11562V14.5838H9.65183ZM9.65183 15.1201V15.6563H9.11562V15.1201H9.65183ZM9.65183 15.6563V16.1925H9.11562V15.6563H9.65183ZM9.65183 16.1925V16.7287H9.11562V16.1925H9.65183ZM9.65183 16.7287V17.2649H9.11562V16.7287H9.65183ZM9.65183 17.2649V17.8011H9.11562V17.2649H9.65183ZM10.188 17.2649V17.8011H9.65183V17.2649H10.188ZM10.188 17.8011V18.3373H9.65183V17.8011H10.188ZM10.188 18.3373V18.8735H9.65183V18.3373H10.188ZM10.188 18.8735V19.4098H9.65183V18.8735H10.188ZM10.188 19.4098V19.946H9.65183V19.4098H10.188ZM10.188 19.946V20.4822H9.65183V19.946H10.188ZM10.188 20.4822V21.0184H9.65183V20.4822H10.188ZM10.188 21.0184V21.5546H9.65183V21.0184H10.188ZM10.188 21.5546V22.0908H9.65183V21.5546H10.188ZM9.65183 21.5546V22.0908H9.11562V21.5546H9.65183ZM9.65183 21.0184V21.5546H9.11562V21.0184H9.65183ZM9.65183 20.4822V21.0184H9.11562V20.4822H9.65183ZM9.65183 19.946V20.4822H9.11562V19.946H9.65183ZM9.65183 19.4098V19.946H9.11562V19.4098H9.65183ZM9.65183 18.8735V19.4098H9.11562V18.8735H9.65183ZM9.65183 18.3373V18.8735H9.11562V18.3373H9.65183ZM9.11562 18.3373V18.8735H8.57941V18.3373H9.11562ZM9.11562 17.8011V18.3373H8.57941V17.8011H9.11562ZM9.65183 17.8011V18.3373H9.11562V17.8011H9.65183ZM9.11562 14.5838V15.1201H8.57941V14.5838H9.11562ZM9.11562 15.1201V15.6563H8.57941V15.1201H9.11562ZM9.11562 15.6563V16.1925H8.57941V15.6563H9.11562ZM9.11562 16.1925V16.7287H8.57941V16.1925H9.11562ZM9.11562 16.7287V17.2649H8.57941V16.7287H9.11562ZM9.11562 17.2649V17.8011H8.57941V17.2649H9.11562ZM9.11562 10.2941V10.8303H8.57941V10.2941H9.11562ZM9.11562 18.8735V19.4098H8.57941V18.8735H9.11562ZM9.11562 19.4098V19.946H8.57941V19.4098H9.11562ZM9.11562 19.946V20.4822H8.57941V19.946H9.11562ZM9.11562 20.4822V21.0184H8.57941V20.4822H9.11562ZM9.11562 21.0184V21.5546H8.57941V21.0184H9.11562ZM9.11562 21.5546V22.0908H8.57941V21.5546H9.11562ZM10.7243 21.5546V22.0908H10.188V21.5546H10.7243ZM11.2605 21.5546V22.0908H10.7243V21.5546H11.2605ZM11.2605 21.0184V21.5546H10.7243V21.0184H11.2605ZM11.2605 20.4822V21.0184H10.7243V20.4822H11.2605ZM11.2605 19.946V20.4822H10.7243V19.946H11.2605ZM11.2605 19.4098V19.946H10.7243V19.4098H11.2605ZM11.2605 18.8735V19.4098H10.7243V18.8735H11.2605ZM11.2605 18.3373V18.8735H10.7243V18.3373H11.2605ZM11.2605 17.8011V18.3373H10.7243V17.8011H11.2605ZM11.2605 17.2649V17.8011H10.7243V17.2649H11.2605ZM11.2605 16.7287V17.2649H10.7243V16.7287H11.2605ZM11.2605 16.1925V16.7287H10.7243V16.1925H11.2605ZM11.2605 15.6563V16.1925H10.7243V15.6563H11.2605ZM11.2605 15.1201V15.6563H10.7243V15.1201H11.2605ZM11.2605 14.5838V15.1201H10.7243V14.5838H11.2605ZM11.2605 14.0476V14.5838H10.7243V14.0476H11.2605ZM11.2605 13.5114V14.0476H10.7243V13.5114H11.2605ZM11.2605 12.9752V13.5114H10.7243V12.9752H11.2605ZM11.2605 12.439V12.9752H10.7243V12.439H11.2605ZM11.2605 11.9028V12.439H10.7243V11.9028H11.2605ZM9.65183 8.6855V9.22171H9.11562V8.6855H9.65183ZM10.188 8.6855V9.22171H9.65183V8.6855H10.188ZM10.7243 8.6855V9.22171H10.188V8.6855H10.7243ZM11.2605 8.6855V9.22171H10.7243V8.6855H11.2605ZM11.2605 9.22171V9.75792H10.7243V9.22171H11.2605ZM11.2605 9.75792V10.2941H10.7243V9.75792H11.2605ZM11.2605 10.2941V10.8303H10.7243V10.2941H11.2605ZM11.2605 10.8303V11.3666H10.7243V10.8303H11.2605ZM11.2605 11.3666V11.9028H10.7243V11.3666H11.2605ZM9.65183 9.22171V9.75792H9.11562V9.22171H9.65183ZM10.188 9.22171V9.75792H9.65183V9.22171H10.188ZM10.7243 9.22171V9.75792H10.188V9.22171H10.7243ZM10.7243 9.75792V10.2941H10.188V9.75792H10.7243ZM10.7243 10.2941V10.8303H10.188V10.2941H10.7243ZM10.7243 10.8303V11.3666H10.188V10.8303H10.7243ZM10.7243 11.3666V11.9028H10.188V11.3666H10.7243ZM10.188 11.3666V11.9028H9.65183V11.3666H10.188ZM10.188 10.8303V11.3666H9.65183V10.8303H10.188ZM10.188 10.2941V10.8303H9.65183V10.2941H10.188ZM10.188 9.75792V10.2941H9.65183V9.75792H10.188ZM9.65183 9.75792V10.2941H9.11562V9.75792H9.65183ZM9.65183 10.2941V10.8303H9.11562V10.2941H9.65183ZM9.65183 10.8303V11.3666H9.11562V10.8303H9.65183ZM9.65183 11.3666V11.9028H9.11562V11.3666H9.65183ZM9.65183 11.9028V12.439H9.11562V11.9028H9.65183ZM9.65183 12.439V12.9752H9.11562V12.439H9.65183ZM9.65183 12.9752V13.5114H9.11562V12.9752H9.65183ZM9.65183 13.5114V14.0476H9.11562V13.5114H9.65183ZM10.188 13.5114V14.0476H9.65183V13.5114H10.188ZM10.188 12.9752V13.5114H9.65183V12.9752H10.188ZM10.188 12.439V12.9752H9.65183V12.439H10.188ZM10.188 11.9028V12.439H9.65183V11.9028H10.188ZM10.7243 11.9028V12.439H10.188V11.9028H10.7243ZM10.7243 12.439V12.9752H10.188V12.439H10.7243ZM10.7243 12.9752V13.5114H10.188V12.9752H10.7243ZM10.7243 13.5114V14.0476H10.188V13.5114H10.7243ZM10.7243 14.0476V14.5838H10.188V14.0476H10.7243ZM10.7243 14.5838V15.1201H10.188V14.5838H10.7243ZM10.7243 15.1201V15.6563H10.188V15.1201H10.7243ZM10.7243 15.6563V16.1925H10.188V15.6563H10.7243ZM10.7243 16.1925V16.7287H10.188V16.1925H10.7243ZM10.7243 16.7287V17.2649H10.188V16.7287H10.7243ZM10.188 16.7287V17.2649H9.65183V16.7287H10.188ZM10.188 16.1925V16.7287H9.65183V16.1925H10.188ZM10.188 15.6563V16.1925H9.65183V15.6563H10.188ZM10.188 15.1201V15.6563H9.65183V15.1201H10.188ZM10.188 14.5838V15.1201H9.65183V14.5838H10.188ZM9.65183 14.0476V14.5838H9.11562V14.0476H9.65183ZM10.188 14.0476V14.5838H9.65183V14.0476H10.188ZM10.7243 17.2649V17.8011H10.188V17.2649H10.7243ZM10.7243 17.8011V18.3373H10.188V17.8011H10.7243ZM10.7243 18.3373V18.8735H10.188V18.3373H10.7243ZM10.7243 18.8735V19.4098H10.188V18.8735H10.7243ZM10.7243 19.4098V19.946H10.188V19.4098H10.7243ZM10.7243 19.946V20.4822H10.188V19.946H10.7243ZM10.7243 20.4822V21.0184H10.188V20.4822H10.7243ZM10.7243 21.0184V21.5546H10.188V21.0184H10.7243ZM4.82592 10.2941V10.8303H4.2897V10.2941H4.82592ZM4.82592 10.8303V11.3666H4.2897V10.8303H4.82592ZM5.36213 11.3666V11.9028H4.82592V11.3666H5.36213ZM5.36213 11.9028V12.439H4.82592V11.9028H5.36213ZM5.89834 12.439V12.9752H5.36213V12.439H5.89834ZM5.89834 12.9752V13.5114H5.36213V12.9752H5.89834ZM6.43456 13.5114V14.0476H5.89834V13.5114H6.43456ZM6.43456 14.0476V14.5838H5.89834V14.0476H6.43456ZM6.97077 14.5838V15.1201H6.43456V14.5838H6.97077ZM6.97077 15.1201V15.6563H6.43456V15.1201H6.97077ZM7.50698 15.6563V16.1925H6.97077V15.6563H7.50698ZM7.50698 16.1925V16.7287H6.97077V16.1925H7.50698ZM8.04319 16.7287V17.2649H7.50698V16.7287H8.04319ZM8.04319 17.2649V17.8011H7.50698V17.2649H8.04319ZM8.57941 17.8011V18.3373H8.04319V17.8011H8.57941ZM8.57941 18.3373V18.8735H8.04319V18.3373H8.57941ZM4.82592 11.3666V11.9028H4.2897V11.3666H4.82592ZM4.82592 11.9028V12.439H4.2897V11.9028H4.82592ZM4.82592 12.439V12.9752H4.2897V12.439H4.82592ZM4.82592 12.9752V13.5114H4.2897V12.9752H4.82592ZM4.82592 13.5114V14.0476H4.2897V13.5114H4.82592ZM5.36213 12.439V12.9752H4.82592V12.439H5.36213ZM5.36213 12.9752V13.5114H4.82592V12.9752H5.36213ZM5.36213 13.5114V14.0476H4.82592V13.5114H5.36213ZM5.36213 14.0476V14.5838H4.82592V14.0476H5.36213ZM5.36213 14.5838V15.1201H4.82592V14.5838H5.36213ZM5.89834 13.5114V14.0476H5.36213V13.5114H5.89834ZM5.89834 14.0476V14.5838H5.36213V14.0476H5.89834ZM5.89834 14.5838V15.1201H5.36213V14.5838H5.89834ZM5.89834 15.1201V15.6563H5.36213V15.1201H5.89834ZM5.89834 15.6563V16.1925H5.36213V15.6563H5.89834ZM6.43456 14.5838V15.1201H5.89834V14.5838H6.43456ZM6.43456 15.1201V15.6563H5.89834V15.1201H6.43456ZM6.43456 15.6563V16.1925H5.89834V15.6563H6.43456ZM6.43456 16.1925V16.7287H5.89834V16.1925H6.43456ZM6.43456 16.7287V17.2649H5.89834V16.7287H6.43456ZM6.97077 15.6563V16.1925H6.43456V15.6563H6.97077ZM6.97077 16.1925V16.7287H6.43456V16.1925H6.97077ZM6.97077 16.7287V17.2649H6.43456V16.7287H6.97077ZM6.97077 17.2649V17.8011H6.43456V17.2649H6.97077ZM6.97077 17.8011V18.3373H6.43456V17.8011H6.97077ZM7.50698 16.7287V17.2649H6.97077V16.7287H7.50698ZM7.50698 17.2649V17.8011H6.97077V17.2649H7.50698ZM7.50698 17.8011V18.3373H6.97077V17.8011H7.50698ZM7.50698 18.3373V18.8735H6.97077V18.3373H7.50698ZM7.50698 18.8735V19.4098H6.97077V18.8735H7.50698ZM8.04319 17.8011V18.3373H7.50698V17.8011H8.04319ZM8.04319 18.3373V18.8735H7.50698V18.3373H8.04319ZM8.04319 18.8735V19.4098H7.50698V18.8735H8.04319ZM8.04319 19.4098V19.946H7.50698V19.4098H8.04319ZM8.04319 19.946V20.4822H7.50698V19.946H8.04319ZM8.57941 18.8735V19.4098H8.04319V18.8735H8.57941ZM8.57941 19.4098V19.946H8.04319V19.4098H8.57941ZM8.57941 19.946V20.4822H8.04319V19.946H8.57941ZM8.57941 20.4822V21.0184H8.04319V20.4822H8.57941ZM8.57941 21.0184V21.5546H8.04319V21.0184H8.57941ZM4.82592 14.0476V14.5838H4.2897V14.0476H4.82592ZM5.36213 15.1201V15.6563H4.82592V15.1201H5.36213ZM5.89834 16.1925V16.7287H5.36213V16.1925H5.89834ZM6.43456 17.2649V17.8011H5.89834V17.2649H6.43456ZM6.97077 18.3373V18.8735H6.43456V18.3373H6.97077ZM7.50698 19.4098V19.946H6.97077V19.4098H7.50698ZM8.04319 20.4822V21.0184H7.50698V20.4822H8.04319ZM8.57941 21.5546V22.0908H8.04319V21.5546H8.57941ZM4.82592 9.75792V10.2941H4.2897V9.75792H4.82592ZM5.36213 10.8303V11.3666H4.82592V10.8303H5.36213ZM5.89834 11.9028V12.439H5.36213V11.9028H5.89834ZM6.43456 12.9752V13.5114H5.89834V12.9752H6.43456ZM6.97077 14.0476V14.5838H6.43456V14.0476H6.97077ZM7.50698 15.1201V15.6563H6.97077V15.1201H7.50698ZM8.04319 16.1925V16.7287H7.50698V16.1925H8.04319ZM8.57941 17.2649V17.8011H8.04319V17.2649H8.57941ZM4.2897 8.6855V9.22171H3.75349V8.6855H4.2897ZM4.2897 9.22171V9.75792H3.75349V9.22171H4.2897ZM4.2897 9.75792V10.2941H3.75349V9.75792H4.2897ZM4.2897 10.2941V10.8303H3.75349V10.2941H4.2897ZM4.2897 10.8303V11.3666H3.75349V10.8303H4.2897ZM4.2897 11.3666V11.9028H3.75349V11.3666H4.2897ZM4.2897 11.9028V12.439H3.75349V11.9028H4.2897ZM4.2897 12.439V12.9752H3.75349V12.439H4.2897ZM4.2897 12.9752V13.5114H3.75349V12.9752H4.2897ZM4.2897 13.5114V14.0476H3.75349V13.5114H4.2897ZM4.82592 14.5838V15.1201H4.2897V14.5838H4.82592ZM5.36213 15.6563V16.1925H4.82592V15.6563H5.36213ZM5.89834 16.7287V17.2649H5.36213V16.7287H5.89834ZM6.43456 17.8011V18.3373H5.89834V17.8011H6.43456ZM6.97077 18.8735V19.4098H6.43456V18.8735H6.97077ZM7.50698 19.946V20.4822H6.97077V19.946H7.50698ZM8.04319 21.0184V21.5546H7.50698V21.0184H8.04319ZM4.82592 9.22171V9.75792H4.2897V9.22171H4.82592ZM5.36213 10.2941V10.8303H4.82592V10.2941H5.36213ZM5.89834 11.3666V11.9028H5.36213V11.3666H5.89834ZM6.43456 12.439V12.9752H5.89834V12.439H6.43456ZM6.97077 13.5114V14.0476H6.43456V13.5114H6.97077ZM7.50698 14.5838V15.1201H6.97077V14.5838H7.50698ZM8.04319 15.6563V16.1925H7.50698V15.6563H8.04319ZM8.57941 16.7287V17.2649H8.04319V16.7287H8.57941ZM19.2942 15.1201V15.6563H18.758V15.1201H19.2942ZM19.8305 15.1201V15.6563H19.2942V15.1201H19.8305ZM20.3667 15.1201V15.6563H19.8305V15.1201H20.3667ZM20.9029 15.1201V15.6563H20.3667V15.1201H20.9029ZM21.4391 15.1201V15.6563H20.9029V15.1201H21.4391ZM21.4391 14.5838V15.1201H20.9029V14.5838H21.4391ZM21.4391 14.0476V14.5838H20.9029V14.0476H21.4391ZM20.9029 14.0476V14.5838H20.3667V14.0476H20.9029ZM20.3667 14.0476V14.5838H19.8305V14.0476H20.3667ZM19.8305 14.0476V14.5838H19.2942V14.0476H19.8305ZM19.8305 14.5838V15.1201H19.2942V14.5838H19.8305ZM19.2942 14.5838V15.1201H18.758V14.5838H19.2942ZM20.3667 14.5838V15.1201H19.8305V14.5838H20.3667ZM20.9029 14.5838V15.1201H20.3667V14.5838H20.9029ZM19.2942 14.0476V14.5838H18.758V14.0476H19.2942ZM18.758 14.0476V14.5838H18.2218V14.0476H18.758ZM18.758 13.5114V14.0476H18.2218V13.5114H18.758ZM19.2942 13.5114V14.0476H18.758V13.5114H19.2942ZM19.8305 13.5114V14.0476H19.2942V13.5114H19.8305ZM20.3667 13.5114V14.0476H19.8305V13.5114H20.3667ZM20.9029 13.5114V14.0476H20.3667V13.5114H20.9029ZM20.9029 12.9752V13.5114H20.3667V12.9752H20.9029ZM20.3667 12.9752V13.5114H19.8305V12.9752H20.3667ZM19.8305 12.9752V13.5114H19.2942V12.9752H19.8305ZM19.2942 12.9752V13.5114H18.758V12.9752H19.2942ZM18.758 12.9752V13.5114H18.2218V12.9752H18.758ZM19.8305 12.439V12.9752H19.2942V12.439H19.8305ZM20.3667 12.439V12.9752H19.8305V12.439H20.3667ZM19.2942 12.439V12.9752H18.758V12.439H19.2942ZM19.2942 11.9028V12.439H18.758V11.9028H19.2942ZM18.758 11.9028V12.439H18.2218V11.9028H18.758ZM18.758 12.439V12.9752H18.2218V12.439H18.758ZM18.2218 12.439V12.9752H17.6856V12.439H18.2218ZM18.2218 11.9028V12.439H17.6856V11.9028H18.2218ZM18.2218 12.9752V13.5114H17.6856V12.9752H18.2218ZM17.6856 12.9752V13.5114H17.1494V12.9752H17.6856ZM17.6856 13.5114V14.0476H17.1494V13.5114H17.6856ZM18.2218 13.5114V14.0476H17.6856V13.5114H18.2218ZM17.1494 13.5114V14.0476H16.6132V13.5114H17.1494ZM17.1494 12.9752V13.5114H16.6132V12.9752H17.1494ZM17.1494 12.439V12.9752H16.6132V12.439H17.1494ZM17.1494 11.9028V12.439H16.6132V11.9028H17.1494ZM17.6856 11.9028V12.439H17.1494V11.9028H17.6856ZM17.6856 12.439V12.9752H17.1494V12.439H17.6856ZM16.6132 11.9028V12.439H16.077V11.9028H16.6132ZM16.077 11.9028V12.439H15.5408V11.9028H16.077ZM15.5408 11.9028V12.439H15.0045V11.9028H15.5408ZM15.5408 12.439V12.9752H15.0045V12.439H15.5408ZM15.5408 12.9752V13.5114H15.0045V12.9752H15.5408ZM15.5408 13.5114V14.0476H15.0045V13.5114H15.5408ZM16.077 13.5114V14.0476H15.5408V13.5114H16.077ZM16.6132 13.5114V14.0476H16.077V13.5114H16.6132ZM16.6132 12.9752V13.5114H16.077V12.9752H16.6132ZM16.6132 12.439V12.9752H16.077V12.439H16.6132ZM16.077 12.439V12.9752H15.5408V12.439H16.077ZM16.077 12.9752V13.5114H15.5408V12.9752H16.077ZM15.0045 12.9752V13.5114H14.4683V12.9752H15.0045ZM15.0045 12.439V12.9752H14.4683V12.439H15.0045ZM14.4683 12.439V12.9752H13.9321V12.439H14.4683ZM14.4683 12.9752V13.5114H13.9321V12.9752H14.4683ZM13.9321 12.9752V13.5114H13.3959V12.9752H13.9321ZM13.9321 13.5114V14.0476H13.3959V13.5114H13.9321ZM13.9321 14.0476V14.5838H13.3959V14.0476H13.9321ZM14.4683 14.0476V14.5838H13.9321V14.0476H14.4683ZM14.4683 13.5114V14.0476H13.9321V13.5114H14.4683ZM15.0045 13.5114V14.0476H14.4683V13.5114H15.0045ZM15.0045 14.0476V14.5838H14.4683V14.0476H15.0045ZM15.5408 14.0476V14.5838H15.0045V14.0476H15.5408ZM16.077 14.0476V14.5838H15.5408V14.0476H16.077ZM13.3959 14.0476V14.5838H12.8597V14.0476H13.3959ZM13.3959 14.5838V15.1201H12.8597V14.5838H13.3959ZM13.3959 15.1201V15.6563H12.8597V15.1201H13.3959ZM13.3959 15.6563V16.1925H12.8597V15.6563H13.3959ZM13.3959 16.1925V16.7287H12.8597V16.1925H13.3959ZM13.3959 16.7287V17.2649H12.8597V16.7287H13.3959ZM13.3959 17.2649V17.8011H12.8597V17.2649H13.3959ZM13.3959 17.8011V18.3373H12.8597V17.8011H13.3959ZM13.3959 18.3373V18.8735H12.8597V18.3373H13.3959ZM13.3959 18.8735V19.4098H12.8597V18.8735H13.3959ZM13.9321 18.8735V19.4098H13.3959V18.8735H13.9321ZM13.9321 19.4098V19.946H13.3959V19.4098H13.9321ZM13.3959 19.4098V19.946H12.8597V19.4098H13.3959ZM14.4683 19.4098V19.946H13.9321V19.4098H14.4683ZM15.0045 19.4098V19.946H14.4683V19.4098H15.0045ZM15.5408 19.4098V19.946H15.0045V19.4098H15.5408ZM16.077 19.4098V19.946H15.5408V19.4098H16.077ZM15.5408 18.8735V19.4098H15.0045V18.8735H15.5408ZM15.5408 18.3373V18.8735H15.0045V18.3373H15.5408ZM15.5408 17.8011V18.3373H15.0045V17.8011H15.5408ZM15.5408 17.2649V17.8011H15.0045V17.2649H15.5408ZM15.5408 16.7287V17.2649H15.0045V16.7287H15.5408ZM15.5408 16.1925V16.7287H15.0045V16.1925H15.5408ZM15.5408 15.6563V16.1925H15.0045V15.6563H15.5408ZM15.5408 15.1201V15.6563H15.0045V15.1201H15.5408ZM15.5408 14.5838V15.1201H15.0045V14.5838H15.5408ZM15.0045 14.5838V15.1201H14.4683V14.5838H15.0045ZM14.4683 14.5838V15.1201H13.9321V14.5838H14.4683ZM13.9321 14.5838V15.1201H13.3959V14.5838H13.9321ZM13.9321 15.1201V15.6563H13.3959V15.1201H13.9321ZM13.9321 15.6563V16.1925H13.3959V15.6563H13.9321ZM13.9321 16.1925V16.7287H13.3959V16.1925H13.9321ZM13.9321 16.7287V17.2649H13.3959V16.7287H13.9321ZM13.9321 17.2649V17.8011H13.3959V17.2649H13.9321ZM13.9321 17.8011V18.3373H13.3959V17.8011H13.9321ZM13.9321 18.3373V18.8735H13.3959V18.3373H13.9321ZM14.4683 18.8735V19.4098H13.9321V18.8735H14.4683ZM15.0045 18.8735V19.4098H14.4683V18.8735H15.0045ZM15.0045 18.3373V18.8735H14.4683V18.3373H15.0045ZM15.0045 17.8011V18.3373H14.4683V17.8011H15.0045ZM15.0045 17.2649V17.8011H14.4683V17.2649H15.0045ZM15.0045 16.7287V17.2649H14.4683V16.7287H15.0045ZM14.4683 16.7287V17.2649H13.9321V16.7287H14.4683ZM14.4683 16.1925V16.7287H13.9321V16.1925H14.4683ZM14.4683 15.6563V16.1925H13.9321V15.6563H14.4683ZM14.4683 15.1201V15.6563H13.9321V15.1201H14.4683ZM15.0045 15.1201V15.6563H14.4683V15.1201H15.0045ZM15.0045 15.6563V16.1925H14.4683V15.6563H15.0045ZM15.0045 16.1925V16.7287H14.4683V16.1925H15.0045ZM14.4683 17.8011V18.3373H13.9321V17.8011H14.4683ZM14.4683 18.3373V18.8735H13.9321V18.3373H14.4683ZM14.4683 17.2649V17.8011H13.9321V17.2649H14.4683ZM19.2942 18.8735V19.4098H18.758V18.8735H19.2942ZM19.8305 18.8735V19.4098H19.2942V18.8735H19.8305ZM20.3667 18.8735V19.4098H19.8305V18.8735H20.3667ZM20.9029 18.8735V19.4098H20.3667V18.8735H20.9029ZM21.4391 18.8735V19.4098H20.9029V18.8735H21.4391ZM21.4391 19.4098V19.946H20.9029V19.4098H21.4391ZM20.9029 19.4098V19.946H20.3667V19.4098H20.9029ZM20.3667 19.4098V19.946H19.8305V19.4098H20.3667ZM19.8305 19.4098V19.946H19.2942V19.4098H19.8305ZM19.2942 19.4098V19.946H18.758V19.4098H19.2942ZM18.758 19.4098V19.946H18.2218V19.4098H18.758ZM18.758 19.946V20.4822H18.2218V19.946H18.758ZM19.2942 19.946V20.4822H18.758V19.946H19.2942ZM19.8305 19.946V20.4822H19.2942V19.946H19.8305ZM20.3667 19.946V20.4822H19.8305V19.946H20.3667ZM20.3667 20.4822V21.0184H19.8305V20.4822H20.3667ZM20.9029 20.4822V21.0184H20.3667V20.4822H20.9029ZM20.9029 19.946V20.4822H20.3667V19.946H20.9029ZM20.3667 21.0184V21.5546H19.8305V21.0184H20.3667ZM19.8305 21.0184V21.5546H19.2942V21.0184H19.8305ZM19.8305 20.4822V21.0184H19.2942V20.4822H19.8305ZM19.2942 20.4822V21.0184H18.758V20.4822H19.2942ZM19.2942 21.0184V21.5546H18.758V21.0184H19.2942ZM19.2942 21.5546V22.0908H18.758V21.5546H19.2942ZM18.758 21.5546V22.0908H18.2218V21.5546H18.758ZM18.2218 21.5546V22.0908H17.6856V21.5546H18.2218ZM17.6856 21.5546V22.0908H17.1494V21.5546H17.6856ZM17.1494 21.5546V22.0908H16.6132V21.5546H17.1494ZM16.6132 21.5546V22.0908H16.077V21.5546H16.6132ZM16.077 21.5546V22.0908H15.5408V21.5546H16.077ZM15.5408 21.5546V22.0908H15.0045V21.5546H15.5408ZM16.077 21.0184V21.5546H15.5408V21.0184H16.077ZM16.6132 21.0184V21.5546H16.077V21.0184H16.6132ZM17.1494 21.0184V21.5546H16.6132V21.0184H17.1494ZM17.6856 21.0184V21.5546H17.1494V21.0184H17.6856ZM18.2218 21.0184V21.5546H17.6856V21.0184H18.2218ZM18.758 21.0184V21.5546H18.2218V21.0184H18.758ZM18.758 20.4822V21.0184H18.2218V20.4822H18.758ZM18.2218 20.4822V21.0184H17.6856V20.4822H18.2218ZM17.6856 20.4822V21.0184H17.1494V20.4822H17.6856ZM17.1494 20.4822V21.0184H16.6132V20.4822H17.1494ZM16.6132 20.4822V21.0184H16.077V20.4822H16.6132ZM16.077 20.4822V21.0184H15.5408V20.4822H16.077ZM15.5408 21.0184V21.5546H15.0045V21.0184H15.5408ZM15.0045 21.0184V21.5546H14.4683V21.0184H15.0045ZM14.4683 21.0184V21.5546H13.9321V21.0184H14.4683ZM14.4683 20.4822V21.0184H13.9321V20.4822H14.4683ZM13.9321 20.4822V21.0184H13.3959V20.4822H13.9321ZM13.9321 19.946V20.4822H13.3959V19.946H13.9321ZM14.4683 19.946V20.4822H13.9321V19.946H14.4683ZM15.0045 19.946V20.4822H14.4683V19.946H15.0045ZM15.5408 19.946V20.4822H15.0045V19.946H15.5408ZM16.077 19.946V20.4822H15.5408V19.946H16.077ZM16.6132 19.946V20.4822H16.077V19.946H16.6132ZM17.1494 19.946V20.4822H16.6132V19.946H17.1494ZM17.6856 19.946V20.4822H17.1494V19.946H17.6856ZM18.2218 19.946V20.4822H17.6856V19.946H18.2218ZM15.5408 20.4822V21.0184H15.0045V20.4822H15.5408ZM15.0045 20.4822V21.0184H14.4683V20.4822H15.0045ZM21.4391 15.6563V16.1925H20.9029V15.6563H21.4391ZM20.9029 15.6563V16.1925H20.3667V15.6563H20.9029ZM20.3667 15.6563V16.1925H19.8305V15.6563H20.3667ZM19.8305 15.6563V16.1925H19.2942V15.6563H19.8305ZM19.2942 15.6563V16.1925H18.758V15.6563H19.2942ZM21.4391 16.1925V16.7287H20.9029V16.1925H21.4391ZM20.3667 16.1925V16.7287H19.8305V16.1925H20.3667ZM19.8305 16.1925V16.7287H19.2942V16.1925H19.8305ZM18.758 16.1925V16.7287H18.2218V16.1925H18.758ZM18.2218 16.1925V16.7287H17.6856V16.1925H18.2218ZM17.6856 16.1925V16.7287H17.1494V16.1925H17.6856ZM17.1494 16.1925V16.7287H16.6132V16.1925H17.1494ZM16.6132 16.1925V16.7287H16.077V16.1925H16.6132ZM16.077 16.1925V16.7287H15.5408V16.1925H16.077ZM19.2942 16.1925V16.7287H18.758V16.1925H19.2942ZM20.9029 16.1925V16.7287H20.3667V16.1925H20.9029ZM21.4391 16.7287V17.2649H20.9029V16.7287H21.4391ZM20.9029 16.7287V17.2649H20.3667V16.7287H20.9029ZM20.3667 16.7287V17.2649H19.8305V16.7287H20.3667ZM19.8305 16.7287V17.2649H19.2942V16.7287H19.8305ZM19.2942 16.7287V17.2649H18.758V16.7287H19.2942ZM18.758 16.7287V17.2649H18.2218V16.7287H18.758ZM18.2218 16.7287V17.2649H17.6856V16.7287H18.2218ZM17.6856 16.7287V17.2649H17.1494V16.7287H17.6856ZM17.1494 16.7287V17.2649H16.6132V16.7287H17.1494ZM16.6132 16.7287V17.2649H16.077V16.7287H16.6132ZM16.077 16.7287V17.2649H15.5408V16.7287H16.077ZM16.077 17.2649V17.8011H15.5408V17.2649H16.077ZM16.6132 17.2649V17.8011H16.077V17.2649H16.6132ZM17.1494 17.2649V17.8011H16.6132V17.2649H17.1494ZM18.2218 17.2649V17.8011H17.6856V17.2649H18.2218ZM18.758 17.2649V17.8011H18.2218V17.2649H18.758ZM19.2942 17.2649V17.8011H18.758V17.2649H19.2942ZM19.8305 17.2649V17.8011H19.2942V17.2649H19.8305ZM20.3667 17.2649V17.8011H19.8305V17.2649H20.3667ZM20.9029 17.2649V17.8011H20.3667V17.2649H20.9029ZM21.4391 17.2649V17.8011H20.9029V17.2649H21.4391ZM17.6856 17.2649V17.8011H17.1494V17.2649H17.6856ZM23.5934 11.9028V12.439H23.0572V11.9028H23.5934ZM24.1296 11.9028V12.439H23.5934V11.9028H24.1296ZM24.6658 11.9028V12.439H24.1296V11.9028H24.6658ZM25.202 11.9028V12.439H24.6658V11.9028H25.202ZM25.202 12.439V12.9752H24.6658V12.439H25.202ZM25.7382 12.439V12.9752H25.202V12.439H25.7382ZM25.7382 12.9752V13.5114H25.202V12.9752H25.7382ZM25.7382 11.9028V12.439H25.202V11.9028H25.7382ZM25.7382 13.5114V14.0476H25.202V13.5114H25.7382ZM25.7382 14.0476V14.5838H25.202V14.0476H25.7382ZM25.7382 14.5838V15.1201H25.202V14.5838H25.7382ZM25.7382 15.1201V15.6563H25.202V15.1201H25.7382ZM25.7382 15.6563V16.1925H25.202V15.6563H25.7382ZM25.7382 16.1925V16.7287H25.202V16.1925H25.7382ZM25.7382 16.7287V17.2649H25.202V16.7287H25.7382ZM25.7382 17.2649V17.8011H25.202V17.2649H25.7382ZM25.7382 17.8011V18.3373H25.202V17.8011H25.7382ZM25.202 17.8011V18.3373H24.6658V17.8011H25.202ZM24.6658 18.3373V18.8735H24.1296V18.3373H24.6658ZM24.1296 18.3373V18.8735H23.5934V18.3373H24.1296ZM23.5934 18.3373V18.8735H23.0572V18.3373H23.5934ZM23.5934 17.8011V18.3373H23.0572V17.8011H23.5934ZM23.5934 17.2649V17.8011H23.0572V17.2649H23.5934ZM23.5934 16.7287V17.2649H23.0572V16.7287H23.5934ZM23.5934 16.1925V16.7287H23.0572V16.1925H23.5934ZM24.1296 16.1925V16.7287H23.5934V16.1925H24.1296ZM24.1296 15.6563V16.1925H23.5934V15.6563H24.1296ZM24.1296 15.1201V15.6563H23.5934V15.1201H24.1296ZM24.1296 14.5838V15.1201H23.5934V14.5838H24.1296ZM24.1296 14.0476V14.5838H23.5934V14.0476H24.1296ZM24.1296 13.5114V14.0476H23.5934V13.5114H24.1296ZM24.1296 12.9752V13.5114H23.5934V12.9752H24.1296ZM24.1296 12.439V12.9752H23.5934V12.439H24.1296ZM23.5934 12.439V12.9752H23.0572V12.439H23.5934ZM23.5934 12.9752V13.5114H23.0572V12.9752H23.5934ZM23.5934 13.5114V14.0476H23.0572V13.5114H23.5934ZM23.5934 14.0476V14.5838H23.0572V14.0476H23.5934ZM23.5934 14.5838V15.1201H23.0572V14.5838H23.5934ZM23.5934 15.1201V15.6563H23.0572V15.1201H23.5934ZM23.5934 15.6563V16.1925H23.0572V15.6563H23.5934ZM24.6658 14.5838V15.1201H24.1296V14.5838H24.6658ZM24.6658 14.0476V14.5838H24.1296V14.0476H24.6658ZM24.6658 13.5114V14.0476H24.1296V13.5114H24.6658ZM24.6658 12.9752V13.5114H24.1296V12.9752H24.6658ZM24.6658 12.439V12.9752H24.1296V12.439H24.6658ZM25.202 14.5838V15.1201H24.6658V14.5838H25.202ZM25.202 15.1201V15.6563H24.6658V15.1201H25.202ZM25.202 14.0476V14.5838H24.6658V14.0476H25.202ZM25.202 13.5114V14.0476H24.6658V13.5114H25.202ZM25.202 12.9752V13.5114H24.6658V12.9752H25.202ZM24.6658 16.1925V16.7287H24.1296V16.1925H24.6658ZM24.6658 15.6563V16.1925H24.1296V15.6563H24.6658ZM24.6658 15.1201V15.6563H24.1296V15.1201H24.6658ZM25.202 15.6563V16.1925H24.6658V15.6563H25.202ZM25.202 16.1925V16.7287H24.6658V16.1925H25.202ZM25.202 16.7287V17.2649H24.6658V16.7287H25.202ZM24.6658 17.2649V17.8011H24.1296V17.2649H24.6658ZM24.6658 17.8011V18.3373H24.1296V17.8011H24.6658ZM24.6658 16.7287V17.2649H24.1296V16.7287H24.6658ZM24.1296 16.7287V17.2649H23.5934V16.7287H24.1296ZM24.1296 17.2649V17.8011H23.5934V17.2649H24.1296ZM24.1296 17.8011V18.3373H23.5934V17.8011H24.1296ZM25.202 17.2649V17.8011H24.6658V17.2649H25.202ZM24.6658 18.8735V19.4098H24.1296V18.8735H24.6658ZM24.1296 18.8735V19.4098H23.5934V18.8735H24.1296ZM25.202 18.8735V19.4098H24.6658V18.8735H25.202ZM25.202 18.3373V18.8735H24.6658V18.3373H25.202ZM25.7382 18.3373V18.8735H25.202V18.3373H25.7382ZM26.2744 18.3373V18.8735H25.7382V18.3373H26.2744ZM26.2744 18.8735V19.4098H25.7382V18.8735H26.2744ZM25.7382 18.8735V19.4098H25.202V18.8735H25.7382ZM26.8106 18.8735V19.4098H26.2744V18.8735H26.8106ZM24.6658 19.4098V19.946H24.1296V19.4098H24.6658ZM25.202 19.4098V19.946H24.6658V19.4098H25.202ZM25.7382 19.4098V19.946H25.202V19.4098H25.7382ZM26.2744 19.4098V19.946H25.7382V19.4098H26.2744ZM26.8106 19.4098V19.946H26.2744V19.4098H26.8106ZM27.3469 19.4098V19.946H26.8106V19.4098H27.3469ZM27.8831 19.4098V19.946H27.3469V19.4098H27.8831ZM28.4193 19.4098V19.946H27.8831V19.4098H28.4193ZM28.9555 19.4098V19.946H28.4193V19.4098H28.9555ZM29.4917 19.4098V19.946H28.9555V19.4098H29.4917ZM28.9555 18.8735V19.4098H28.4193V18.8735H28.9555ZM28.4193 18.8735V19.4098H27.8831V18.8735H28.4193ZM27.8831 18.8735V19.4098H27.3469V18.8735H27.8831ZM28.4193 18.3373V18.8735H27.8831V18.3373H28.4193ZM26.8106 21.5546V22.0908H26.2744V21.5546H26.8106ZM26.8106 21.0184V21.5546H26.2744V21.0184H26.8106ZM26.8106 20.4822V21.0184H26.2744V20.4822H26.8106ZM27.3469 19.946V20.4822H26.8106V19.946H27.3469ZM27.8831 19.946V20.4822H27.3469V19.946H27.8831ZM27.8831 20.4822V21.0184H27.3469V20.4822H27.8831ZM27.8831 21.0184V21.5546H27.3469V21.0184H27.8831ZM27.8831 21.5546V22.0908H27.3469V21.5546H27.8831ZM27.3469 21.5546V22.0908H26.8106V21.5546H27.3469ZM27.3469 20.4822V21.0184H26.8106V20.4822H27.3469ZM27.3469 21.0184V21.5546H26.8106V21.0184H27.3469ZM28.4193 20.4822V21.0184H27.8831V20.4822H28.4193ZM28.4193 19.946V20.4822H27.8831V19.946H28.4193ZM28.9555 19.946V20.4822H28.4193V19.946H28.9555ZM29.4917 19.946V20.4822H28.9555V19.946H29.4917ZM28.9555 20.4822V21.0184H28.4193V20.4822H28.9555ZM28.4193 21.0184V21.5546H27.8831V21.0184H28.4193ZM25.202 19.946V20.4822H24.6658V19.946H25.202ZM25.7382 19.946V20.4822H25.202V19.946H25.7382ZM25.7382 20.4822V21.0184H25.202V20.4822H25.7382ZM26.2744 20.4822V21.0184H25.7382V20.4822H26.2744ZM26.2744 21.0184V21.5546H25.7382V21.0184H26.2744ZM26.8106 19.946V20.4822H26.2744V19.946H26.8106ZM26.2744 19.946V20.4822H25.7382V19.946H26.2744ZM28.9555 11.9028V12.439H28.4193V11.9028H28.9555ZM29.4917 11.9028V12.439H28.9555V11.9028H29.4917ZM30.0279 11.9028V12.439H29.4917V11.9028H30.0279ZM30.5641 12.439V12.9752H30.0279V12.439H30.5641ZM31.1004 13.5114V14.0476H30.5641V13.5114H31.1004ZM31.1004 14.0476V14.5838H30.5641V14.0476H31.1004ZM31.1004 14.5838V15.1201H30.5641V14.5838H31.1004ZM31.1004 15.6563V16.1925H30.5641V15.6563H31.1004ZM31.1004 16.1925V16.7287H30.5641V16.1925H31.1004ZM31.1004 16.7287V17.2649H30.5641V16.7287H31.1004ZM31.1004 17.2649V17.8011H30.5641V17.2649H31.1004ZM31.1004 17.8011V18.3373H30.5641V17.8011H31.1004ZM30.5641 17.8011V18.3373H30.0279V17.8011H30.5641ZM30.0279 18.3373V18.8735H29.4917V18.3373H30.0279ZM29.4917 18.3373V18.8735H28.9555V18.3373H29.4917ZM28.9555 18.3373V18.8735H28.4193V18.3373H28.9555ZM28.9555 17.8011V18.3373H28.4193V17.8011H28.9555ZM28.9555 17.2649V17.8011H28.4193V17.2649H28.9555ZM28.9555 16.1925V16.7287H28.4193V16.1925H28.9555ZM29.4917 16.1925V16.7287H28.9555V16.1925H29.4917ZM29.4917 15.6563V16.1925H28.9555V15.6563H29.4917ZM29.4917 15.1201V15.6563H28.9555V15.1201H29.4917ZM29.4917 14.5838V15.1201H28.9555V14.5838H29.4917ZM29.4917 14.0476V14.5838H28.9555V14.0476H29.4917ZM29.4917 13.5114V14.0476H28.9555V13.5114H29.4917ZM29.4917 12.9752V13.5114H28.9555V12.9752H29.4917ZM29.4917 12.439V12.9752H28.9555V12.439H29.4917ZM28.9555 12.439V12.9752H28.4193V12.439H28.9555ZM28.9555 12.9752V13.5114H28.4193V12.9752H28.9555ZM28.9555 13.5114V14.0476H28.4193V13.5114H28.9555ZM28.9555 14.0476V14.5838H28.4193V14.0476H28.9555ZM28.9555 14.5838V15.1201H28.4193V14.5838H28.9555ZM28.9555 15.6563V16.1925H28.4193V15.6563H28.9555ZM30.0279 14.5838V15.1201H29.4917V14.5838H30.0279ZM30.0279 14.0476V14.5838H29.4917V14.0476H30.0279ZM30.0279 13.5114V14.0476H29.4917V13.5114H30.0279ZM30.0279 12.9752V13.5114H29.4917V12.9752H30.0279ZM30.5641 14.5838V15.1201H30.0279V14.5838H30.5641ZM30.5641 15.1201V15.6563H30.0279V15.1201H30.5641ZM30.5641 14.0476V14.5838H30.0279V14.0476H30.5641ZM30.5641 13.5114V14.0476H30.0279V13.5114H30.5641ZM30.0279 16.1925V16.7287H29.4917V16.1925H30.0279ZM30.0279 15.6563V16.1925H29.4917V15.6563H30.0279ZM30.0279 15.1201V15.6563H29.4917V15.1201H30.0279ZM30.5641 15.6563V16.1925H30.0279V15.6563H30.5641ZM30.5641 16.1925V16.7287H30.0279V16.1925H30.5641ZM30.5641 16.7287V17.2649H30.0279V16.7287H30.5641ZM30.0279 17.2649V17.8011H29.4917V17.2649H30.0279ZM30.0279 17.8011V18.3373H29.4917V17.8011H30.0279ZM30.0279 16.7287V17.2649H29.4917V16.7287H30.0279ZM29.4917 16.7287V17.2649H28.9555V16.7287H29.4917ZM29.4917 17.2649V17.8011H28.9555V17.2649H29.4917ZM29.4917 17.8011V18.3373H28.9555V17.8011H29.4917ZM30.5641 17.2649V17.8011H30.0279V17.2649H30.5641ZM30.0279 18.8735V19.4098H29.4917V18.8735H30.0279ZM30.5641 18.8735V19.4098H30.0279V18.8735H30.5641ZM30.5641 18.3373V18.8735H30.0279V18.3373H30.5641ZM31.1004 18.3373V18.8735H30.5641V18.3373H31.1004ZM31.6366 18.3373V18.8735H31.1004V18.3373H31.6366ZM31.6366 18.8735V19.4098H31.1004V18.8735H31.6366ZM31.1004 18.8735V19.4098H30.5641V18.8735H31.1004ZM32.1728 18.8735V19.4098H31.6366V18.8735H32.1728ZM30.5641 19.4098V19.946H30.0279V19.4098H30.5641ZM31.1004 19.4098V19.946H30.5641V19.4098H31.1004ZM31.6366 19.4098V19.946H31.1004V19.4098H31.6366ZM32.1728 19.4098V19.946H31.6366V19.4098H32.1728ZM32.709 19.4098V19.946H32.1728V19.4098H32.709ZM33.2452 19.4098V19.946H32.709V19.4098H33.2452ZM33.7814 19.4098V19.946H33.2452V19.4098H33.7814ZM34.3176 19.4098V19.946H33.7814V19.4098H34.3176ZM34.8538 19.4098V19.946H34.3176V19.4098H34.8538ZM35.3901 19.4098V19.946H34.8538V19.4098H35.3901ZM34.8538 18.8735V19.4098H34.3176V18.8735H34.8538ZM34.3176 18.8735V19.4098H33.7814V18.8735H34.3176ZM33.7814 18.8735V19.4098H33.2452V18.8735H33.7814ZM33.2452 18.8735V19.4098H32.709V18.8735H33.2452ZM33.7814 18.3373V18.8735H33.2452V18.3373H33.7814ZM34.3176 18.3373V18.8735H33.7814V18.3373H34.3176ZM34.8538 18.3373V18.8735H34.3176V18.3373H34.8538ZM35.3901 18.3373V18.8735H34.8538V18.3373H35.3901ZM35.9263 18.3373V18.8735H35.3901V18.3373H35.9263ZM35.9263 18.8735V19.4098H35.3901V18.8735H35.9263ZM35.3901 18.8735V19.4098H34.8538V18.8735H35.3901ZM36.4625 18.3373V18.8735H35.9263V18.3373H36.4625ZM32.1728 21.5546V22.0908H31.6366V21.5546H32.1728ZM32.1728 21.0184V21.5546H31.6366V21.0184H32.1728ZM32.1728 20.4822V21.0184H31.6366V20.4822H32.1728ZM32.709 19.946V20.4822H32.1728V19.946H32.709ZM33.2452 19.946V20.4822H32.709V19.946H33.2452ZM33.2452 20.4822V21.0184H32.709V20.4822H33.2452ZM33.2452 21.0184V21.5546H32.709V21.0184H33.2452ZM33.2452 21.5546V22.0908H32.709V21.5546H33.2452ZM32.709 21.5546V22.0908H32.1728V21.5546H32.709ZM32.709 20.4822V21.0184H32.1728V20.4822H32.709ZM32.709 21.0184V21.5546H32.1728V21.0184H32.709ZM33.7814 20.4822V21.0184H33.2452V20.4822H33.7814ZM33.7814 19.946V20.4822H33.2452V19.946H33.7814ZM34.3176 19.946V20.4822H33.7814V19.946H34.3176ZM34.8538 19.946V20.4822H34.3176V19.946H34.8538ZM34.3176 20.4822V21.0184H33.7814V20.4822H34.3176ZM33.7814 21.0184V21.5546H33.2452V21.0184H33.7814ZM30.5641 19.946V20.4822H30.0279V19.946H30.5641ZM31.1004 19.946V20.4822H30.5641V19.946H31.1004ZM31.1004 20.4822V21.0184H30.5641V20.4822H31.1004ZM31.6366 20.4822V21.0184H31.1004V20.4822H31.6366ZM31.6366 21.0184V21.5546H31.1004V21.0184H31.6366ZM32.1728 19.946V20.4822H31.6366V19.946H32.1728ZM31.6366 19.946V20.4822H31.1004V19.946H31.6366ZM34.3176 17.8011V18.3373H33.7814V17.8011H34.3176ZM34.3176 17.2649V17.8011H33.7814V17.2649H34.3176ZM34.3176 16.7287V17.2649H33.7814V16.7287H34.3176ZM34.3176 16.1925V16.7287H33.7814V16.1925H34.3176ZM34.8538 16.1925V16.7287H34.3176V16.1925H34.8538ZM35.3901 16.1925V16.7287H34.8538V16.1925H35.3901ZM35.9263 16.1925V16.7287H35.3901V16.1925H35.9263ZM36.4625 16.1925V16.7287H35.9263V16.1925H36.4625ZM36.4625 16.7287V17.2649H35.9263V16.7287H36.4625ZM36.4625 17.2649V17.8011H35.9263V17.2649H36.4625ZM36.4625 17.8011V18.3373H35.9263V17.8011H36.4625ZM35.9263 17.8011V18.3373H35.3901V17.8011H35.9263ZM35.3901 17.8011V18.3373H34.8538V17.8011H35.3901ZM34.8538 17.8011V18.3373H34.3176V17.8011H34.8538ZM35.3901 17.2649V17.8011H34.8538V17.2649H35.3901ZM35.9263 17.2649V17.8011H35.3901V17.2649H35.9263ZM35.9263 16.7287V17.2649H35.3901V16.7287H35.9263ZM35.3901 16.7287V17.2649H34.8538V16.7287H35.3901ZM34.8538 16.7287V17.2649H34.3176V16.7287H34.8538ZM34.8538 17.2649V17.8011H34.3176V17.2649H34.8538ZM34.3176 15.6563V16.1925H33.7814V15.6563H34.3176ZM34.3176 15.1201V15.6563H33.7814V15.1201H34.3176ZM34.3176 14.5838V15.1201H33.7814V14.5838H34.3176ZM34.3176 14.0476V14.5838H33.7814V14.0476H34.3176ZM34.3176 13.5114V14.0476H33.7814V13.5114H34.3176ZM34.3176 12.9752V13.5114H33.7814V12.9752H34.3176ZM34.3176 12.439V12.9752H33.7814V12.439H34.3176ZM34.3176 11.9028V12.439H33.7814V11.9028H34.3176ZM34.8538 12.439V12.9752H34.3176V12.439H34.8538ZM34.8538 11.9028V12.439H34.3176V11.9028H34.8538ZM35.3901 11.9028V12.439H34.8538V11.9028H35.3901ZM35.9263 11.9028V12.439H35.3901V11.9028H35.9263ZM35.9263 12.439V12.9752H35.3901V12.439H35.9263ZM35.9263 12.9752V13.5114H35.3901V12.9752H35.9263ZM36.4625 12.9752V13.5114H35.9263V12.9752H36.4625ZM36.4625 13.5114V14.0476H35.9263V13.5114H36.4625ZM36.4625 14.0476V14.5838H35.9263V14.0476H36.4625ZM36.4625 14.5838V15.1201H35.9263V14.5838H36.4625ZM36.4625 15.1201V15.6563H35.9263V15.1201H36.4625ZM36.4625 15.6563V16.1925H35.9263V15.6563H36.4625ZM36.4625 12.439V12.9752H35.9263V12.439H36.4625ZM36.4625 11.9028V12.439H35.9263V11.9028H36.4625ZM35.3901 12.439V12.9752H34.8538V12.439H35.3901ZM35.3901 12.9752V13.5114H34.8538V12.9752H35.3901ZM35.3901 13.5114V14.0476H34.8538V13.5114H35.3901ZM35.3901 14.0476V14.5838H34.8538V14.0476H35.3901ZM35.3901 14.5838V15.1201H34.8538V14.5838H35.3901ZM35.3901 15.1201V15.6563H34.8538V15.1201H35.3901ZM34.8538 15.1201V15.6563H34.3176V15.1201H34.8538ZM34.8538 15.6563V16.1925H34.3176V15.6563H34.8538ZM34.8538 14.5838V15.1201H34.3176V14.5838H34.8538ZM34.8538 14.0476V14.5838H34.3176V14.0476H34.8538ZM34.8538 13.5114V14.0476H34.3176V13.5114H34.8538ZM34.8538 12.9752V13.5114H34.3176V12.9752H34.8538ZM35.9263 13.5114V14.0476H35.3901V13.5114H35.9263ZM35.9263 14.0476V14.5838H35.3901V14.0476H35.9263ZM35.9263 14.5838V15.1201H35.3901V14.5838H35.9263ZM35.9263 15.1201V15.6563H35.3901V15.1201H35.9263ZM35.9263 15.6563V16.1925H35.3901V15.6563H35.9263ZM35.3901 15.6563V16.1925H34.8538V15.6563H35.3901ZM30.5641 11.9028V12.439H30.0279V11.9028H30.5641ZM31.1004 11.9028V12.439H30.5641V11.9028H31.1004ZM31.1004 12.439V12.9752H30.5641V12.439H31.1004ZM31.1004 12.9752V13.5114H30.5641V12.9752H31.1004ZM30.5641 12.9752V13.5114H30.0279V12.9752H30.5641ZM28.9555 15.1201V15.6563H28.4193V15.1201H28.9555ZM28.9555 16.7287V17.2649H28.4193V16.7287H28.9555ZM31.1004 15.1201V15.6563H30.5641V15.1201H31.1004ZM30.0279 12.439V12.9752H29.4917V12.439H30.0279ZM30.0279 19.4098V19.946H29.4917V19.4098H30.0279ZM29.4917 18.8735V19.4098H28.9555V18.8735H29.4917ZM39.1373 21.5546V22.0908H38.6011V21.5546H39.1373ZM39.1373 21.0184V21.5546H38.6011V21.0184H39.1373ZM39.1373 20.4822V21.0184H38.6011V20.4822H39.1373ZM39.1373 19.946V20.4822H38.6011V19.946H39.1373ZM39.1373 19.4098V19.946H38.6011V19.4098H39.1373ZM39.1373 18.8735V19.4098H38.6011V18.8735H39.1373ZM39.1373 18.3373V18.8735H38.6011V18.3373H39.1373ZM39.1373 17.8011V18.3373H38.6011V17.8011H39.1373ZM39.1373 17.2649V17.8011H38.6011V17.2649H39.1373ZM39.1373 16.7287V17.2649H38.6011V16.7287H39.1373ZM39.1373 16.1925V16.7287H38.6011V16.1925H39.1373ZM39.1373 15.6563V16.1925H38.6011V15.6563H39.1373ZM39.1373 15.1201V15.6563H38.6011V15.1201H39.1373ZM39.1373 14.5838V15.1201H38.6011V14.5838H39.1373ZM39.1373 14.0476V14.5838H38.6011V14.0476H39.1373ZM39.6735 14.0476V14.5838H39.1373V14.0476H39.6735ZM39.6735 14.5838V15.1201H39.1373V14.5838H39.6735ZM39.6735 15.1201V15.6563H39.1373V15.1201H39.6735ZM39.6735 15.6563V16.1925H39.1373V15.6563H39.6735ZM39.6735 16.1925V16.7287H39.1373V16.1925H39.6735ZM39.6735 16.7287V17.2649H39.1373V16.7287H39.6735ZM39.6735 17.2649V17.8011H39.1373V17.2649H39.6735ZM40.2097 17.8011V18.3373H39.6735V17.8011H40.2097ZM40.2097 18.3373V18.8735H39.6735V18.3373H40.2097ZM40.2097 18.8735V19.4098H39.6735V18.8735H40.2097ZM40.2097 19.4098V19.946H39.6735V19.4098H40.2097ZM40.2097 19.946V20.4822H39.6735V19.946H40.2097ZM40.2097 20.4822V21.0184H39.6735V20.4822H40.2097ZM40.2097 21.0184V21.5546H39.6735V21.0184H40.2097ZM40.2097 21.5546V22.0908H39.6735V21.5546H40.2097ZM40.7459 21.5546V22.0908H40.2097V21.5546H40.7459ZM41.2821 21.5546V22.0908H40.7459V21.5546H41.2821ZM41.2821 21.0184V21.5546H40.7459V21.0184H41.2821ZM41.2821 20.4822V21.0184H40.7459V20.4822H41.2821ZM41.2821 19.946V20.4822H40.7459V19.946H41.2821ZM41.2821 19.4098V19.946H40.7459V19.4098H41.2821ZM41.2821 18.8735V19.4098H40.7459V18.8735H41.2821ZM41.2821 18.3373V18.8735H40.7459V18.3373H41.2821ZM41.2821 17.8011V18.3373H40.7459V17.8011H41.2821ZM40.7459 17.8011V18.3373H40.2097V17.8011H40.7459ZM40.7459 17.2649V17.8011H40.2097V17.2649H40.7459ZM40.7459 18.3373V18.8735H40.2097V18.3373H40.7459ZM40.7459 18.8735V19.4098H40.2097V18.8735H40.7459ZM40.7459 19.4098V19.946H40.2097V19.4098H40.7459ZM40.7459 19.946V20.4822H40.2097V19.946H40.7459ZM40.7459 20.4822V21.0184H40.2097V20.4822H40.7459ZM40.7459 21.0184V21.5546H40.2097V21.0184H40.7459ZM39.6735 21.5546V22.0908H39.1373V21.5546H39.6735ZM39.6735 21.0184V21.5546H39.1373V21.0184H39.6735ZM39.6735 20.4822V21.0184H39.1373V20.4822H39.6735ZM39.6735 19.946V20.4822H39.1373V19.946H39.6735ZM39.6735 19.4098V19.946H39.1373V19.4098H39.6735ZM39.6735 18.8735V19.4098H39.1373V18.8735H39.6735ZM39.6735 18.3373V18.8735H39.1373V18.3373H39.6735ZM39.6735 17.8011V18.3373H39.1373V17.8011H39.6735ZM39.1373 11.9028V12.439H38.6011V11.9028H39.1373ZM39.1373 12.439V12.9752H38.6011V12.439H39.1373ZM39.1373 12.9752V13.5114H38.6011V12.9752H39.1373ZM39.1373 13.5114V14.0476H38.6011V13.5114H39.1373ZM40.7459 12.439V12.9752H40.2097V12.439H40.7459ZM40.7459 12.9752V13.5114H40.2097V12.9752H40.7459ZM40.7459 13.5114V14.0476H40.2097V13.5114H40.7459ZM40.7459 14.0476V14.5838H40.2097V14.0476H40.7459ZM40.7459 14.5838V15.1201H40.2097V14.5838H40.7459ZM40.7459 15.1201V15.6563H40.2097V15.1201H40.7459ZM40.7459 15.6563V16.1925H40.2097V15.6563H40.7459ZM41.2821 16.1925V16.7287H40.7459V16.1925H41.2821ZM41.2821 16.7287V17.2649H40.7459V16.7287H41.2821ZM41.2821 17.2649V17.8011H40.7459V17.2649H41.2821ZM41.2821 15.6563V16.1925H40.7459V15.6563H41.2821ZM41.2821 15.1201V15.6563H40.7459V15.1201H41.2821ZM41.2821 14.5838V15.1201H40.7459V14.5838H41.2821ZM41.2821 14.0476V14.5838H40.7459V14.0476H41.2821ZM41.2821 13.5114V14.0476H40.7459V13.5114H41.2821ZM41.2821 12.9752V13.5114H40.7459V12.9752H41.2821ZM41.2821 12.439V12.9752H40.7459V12.439H41.2821ZM41.2821 11.9028V12.439H40.7459V11.9028H41.2821ZM40.7459 11.9028V12.439H40.2097V11.9028H40.7459ZM40.2097 11.9028V12.439H39.6735V11.9028H40.2097ZM40.2097 12.439V12.9752H39.6735V12.439H40.2097ZM39.6735 12.9752V13.5114H39.1373V12.9752H39.6735ZM39.6735 13.5114V14.0476H39.1373V13.5114H39.6735ZM39.6735 12.439V12.9752H39.1373V12.439H39.6735ZM39.6735 11.9028V12.439H39.1373V11.9028H39.6735ZM40.2097 12.9752V13.5114H39.6735V12.9752H40.2097ZM40.2097 13.5114V14.0476H39.6735V13.5114H40.2097ZM40.2097 14.0476V14.5838H39.6735V14.0476H40.2097ZM40.2097 14.5838V15.1201H39.6735V14.5838H40.2097ZM40.2097 15.1201V15.6563H39.6735V15.1201H40.2097ZM40.2097 15.6563V16.1925H39.6735V15.6563H40.2097ZM40.2097 16.1925V16.7287H39.6735V16.1925H40.2097ZM40.2097 16.7287V17.2649H39.6735V16.7287H40.2097ZM40.2097 17.2649V17.8011H39.6735V17.2649H40.2097ZM40.7459 16.7287V17.2649H40.2097V16.7287H40.7459ZM40.7459 16.1925V16.7287H40.2097V16.1925H40.7459ZM43.9632 21.5546V22.0908H43.427V21.5546H43.9632ZM44.4994 21.5546V22.0908H43.9632V21.5546H44.4994ZM45.0356 21.5546V22.0908H44.4994V21.5546H45.0356ZM45.5718 21.5546V22.0908H45.0356V21.5546H45.5718ZM46.108 21.0184V21.5546H45.5718V21.0184H46.108ZM46.108 20.4822V21.0184H45.5718V20.4822H46.108ZM46.108 21.5546V22.0908H45.5718V21.5546H46.108ZM45.5718 21.0184V21.5546H45.0356V21.0184H45.5718ZM45.0356 21.0184V21.5546H44.4994V21.0184H45.0356ZM44.4994 21.0184V21.5546H43.9632V21.0184H44.4994ZM43.9632 21.0184V21.5546H43.427V21.0184H43.9632ZM43.9632 20.4822V21.0184H43.427V20.4822H43.9632ZM43.9632 19.946V20.4822H43.427V19.946H43.9632ZM44.4994 19.946V20.4822H43.9632V19.946H44.4994ZM45.0356 19.946V20.4822H44.4994V19.946H45.0356ZM45.5718 19.946V20.4822H45.0356V19.946H45.5718ZM46.108 19.946V20.4822H45.5718V19.946H46.108ZM45.5718 20.4822V21.0184H45.0356V20.4822H45.5718ZM45.0356 20.4822V21.0184H44.4994V20.4822H45.0356ZM44.4994 20.4822V21.0184H43.9632V20.4822H44.4994ZM45.5718 14.0476V14.5838H45.0356V14.0476H45.5718ZM44.4994 14.0476V14.5838H43.9632V14.0476H44.4994ZM44.4994 14.5838V15.1201H43.9632V14.5838H44.4994ZM44.4994 15.1201V15.6563H43.9632V15.1201H44.4994ZM43.9632 15.6563V16.1925H43.427V15.6563H43.9632ZM43.9632 16.1925V16.7287H43.427V16.1925H43.9632ZM43.9632 16.7287V17.2649H43.427V16.7287H43.9632ZM43.9632 17.2649V17.8011H43.427V17.2649H43.9632ZM43.9632 17.8011V18.3373H43.427V17.8011H43.9632ZM43.9632 18.3373V18.8735H43.427V18.3373H43.9632ZM43.9632 18.8735V19.4098H43.427V18.8735H43.9632ZM43.9632 19.4098V19.946H43.427V19.4098H43.9632ZM44.4994 19.4098V19.946H43.9632V19.4098H44.4994ZM45.0356 19.4098V19.946H44.4994V19.4098H45.0356ZM45.5718 19.4098V19.946H45.0356V19.4098H45.5718ZM46.108 19.4098V19.946H45.5718V19.4098H46.108ZM46.108 18.8735V19.4098H45.5718V18.8735H46.108ZM46.108 17.8011V18.3373H45.5718V17.8011H46.108ZM46.108 17.2649V17.8011H45.5718V17.2649H46.108ZM46.108 16.7287V17.2649H45.5718V16.7287H46.108ZM46.108 16.1925V16.7287H45.5718V16.1925H46.108ZM46.108 15.6563V16.1925H45.5718V15.6563H46.108ZM46.108 15.1201V15.6563H45.5718V15.1201H46.108ZM45.5718 16.7287V17.2649H45.0356V16.7287H45.5718ZM45.5718 17.8011V18.3373H45.0356V17.8011H45.5718ZM45.5718 18.3373V18.8735H45.0356V18.3373H45.5718ZM45.5718 18.8735V19.4098H45.0356V18.8735H45.5718ZM46.108 18.3373V18.8735H45.5718V18.3373H46.108ZM45.5718 15.6563V16.1925H45.0356V15.6563H45.5718ZM45.0356 15.6563V16.1925H44.4994V15.6563H45.0356ZM44.4994 15.6563V16.1925H43.9632V15.6563H44.4994ZM44.4994 16.1925V16.7287H43.9632V16.1925H44.4994ZM44.4994 16.7287V17.2649H43.9632V16.7287H44.4994ZM44.4994 17.2649V17.8011H43.9632V17.2649H44.4994ZM44.4994 17.8011V18.3373H43.9632V17.8011H44.4994ZM44.4994 18.3373V18.8735H43.9632V18.3373H44.4994ZM44.4994 18.8735V19.4098H43.9632V18.8735H44.4994ZM45.0356 18.8735V19.4098H44.4994V18.8735H45.0356ZM45.0356 18.3373V18.8735H44.4994V18.3373H45.0356ZM45.0356 17.8011V18.3373H44.4994V17.8011H45.0356ZM45.0356 17.2649V17.8011H44.4994V17.2649H45.0356ZM45.0356 16.7287V17.2649H44.4994V16.7287H45.0356ZM45.0356 16.1925V16.7287H44.4994V16.1925H45.0356ZM45.5718 16.1925V16.7287H45.0356V16.1925H45.5718ZM45.5718 17.2649V17.8011H45.0356V17.2649H45.5718ZM45.5718 15.1201V15.6563H45.0356V15.1201H45.5718ZM45.5718 14.5838V15.1201H45.0356V14.5838H45.5718ZM45.0356 14.5838V15.1201H44.4994V14.5838H45.0356ZM45.0356 15.1201V15.6563H44.4994V15.1201H45.0356ZM43.9632 15.1201V15.6563H43.427V15.1201H43.9632ZM43.9632 14.5838V15.1201H43.427V14.5838H43.9632ZM43.9632 14.0476V14.5838H43.427V14.0476H43.9632ZM45.0356 14.0476V14.5838H44.4994V14.0476H45.0356ZM43.9632 11.9028V12.439H43.427V11.9028H43.9632ZM43.9632 12.439V12.9752H43.427V12.439H43.9632ZM44.4994 12.439V12.9752H43.9632V12.439H44.4994ZM45.0356 12.439V12.9752H44.4994V12.439H45.0356ZM45.0356 12.9752V13.5114H44.4994V12.9752H45.0356ZM45.5718 12.9752V13.5114H45.0356V12.9752H45.5718ZM45.5718 13.5114V14.0476H45.0356V13.5114H45.5718ZM45.0356 13.5114V14.0476H44.4994V13.5114H45.0356ZM44.4994 13.5114V14.0476H43.9632V13.5114H44.4994ZM44.4994 12.9752V13.5114H43.9632V12.9752H44.4994ZM43.9632 12.9752V13.5114H43.427V12.9752H43.9632ZM43.427 12.9752V13.5114H42.8908V12.9752H43.427ZM43.427 13.5114V14.0476H42.8908V13.5114H43.427ZM43.9632 13.5114V14.0476H43.427V13.5114H43.9632ZM43.427 14.0476V14.5838H42.8908V14.0476H43.427ZM43.427 11.9028V12.439H42.8908V11.9028H43.427ZM43.427 12.439V12.9752H42.8908V12.439H43.427ZM42.8908 11.9028V12.439H42.3545V11.9028H42.8908ZM42.8908 12.439V12.9752H42.3545V12.439H42.8908ZM42.8908 12.9752V13.5114H42.3545V12.9752H42.8908ZM42.3545 12.439V12.9752H41.8183V12.439H42.3545ZM41.8183 12.9752V13.5114H41.2821V12.9752H41.8183ZM41.8183 13.5114V14.0476H41.2821V13.5114H41.8183ZM42.3545 13.5114V14.0476H41.8183V13.5114H42.3545ZM42.3545 12.9752V13.5114H41.8183V12.9752H42.3545ZM41.8183 14.0476V14.5838H41.2821V14.0476H41.8183ZM48.7891 21.5546V22.0908H48.2529V21.5546H48.7891ZM49.3253 21.5546V22.0908H48.7891V21.5546H49.3253ZM49.8615 21.5546V22.0908H49.3253V21.5546H49.8615ZM50.3977 21.5546V22.0908H49.8615V21.5546H50.3977ZM50.9339 21.0184V21.5546H50.3977V21.0184H50.9339ZM50.9339 20.4822V21.0184H50.3977V20.4822H50.9339ZM50.9339 21.5546V22.0908H50.3977V21.5546H50.9339ZM50.3977 21.0184V21.5546H49.8615V21.0184H50.3977ZM49.8615 21.0184V21.5546H49.3253V21.0184H49.8615ZM49.3253 21.0184V21.5546H48.7891V21.0184H49.3253ZM48.7891 21.0184V21.5546H48.2529V21.0184H48.7891ZM48.7891 20.4822V21.0184H48.2529V20.4822H48.7891ZM48.7891 19.946V20.4822H48.2529V19.946H48.7891ZM49.3253 19.946V20.4822H48.7891V19.946H49.3253ZM49.8615 19.946V20.4822H49.3253V19.946H49.8615ZM50.3977 19.946V20.4822H49.8615V19.946H50.3977ZM50.9339 19.946V20.4822H50.3977V19.946H50.9339ZM50.3977 20.4822V21.0184H49.8615V20.4822H50.3977ZM49.8615 20.4822V21.0184H49.3253V20.4822H49.8615ZM49.3253 20.4822V21.0184H48.7891V20.4822H49.3253ZM50.9339 14.0476V14.5838H50.3977V14.0476H50.9339ZM50.3977 14.0476V14.5838H49.8615V14.0476H50.3977ZM49.3253 14.0476V14.5838H48.7891V14.0476H49.3253ZM49.3253 14.5838V15.1201H48.7891V14.5838H49.3253ZM49.3253 15.1201V15.6563H48.7891V15.1201H49.3253ZM48.7891 15.6563V16.1925H48.2529V15.6563H48.7891ZM48.7891 16.1925V16.7287H48.2529V16.1925H48.7891ZM48.7891 16.7287V17.2649H48.2529V16.7287H48.7891ZM48.7891 17.2649V17.8011H48.2529V17.2649H48.7891ZM48.7891 17.8011V18.3373H48.2529V17.8011H48.7891ZM48.7891 18.3373V18.8735H48.2529V18.3373H48.7891ZM48.7891 18.8735V19.4098H48.2529V18.8735H48.7891ZM48.7891 19.4098V19.946H48.2529V19.4098H48.7891ZM49.3253 19.4098V19.946H48.7891V19.4098H49.3253ZM49.8615 19.4098V19.946H49.3253V19.4098H49.8615ZM50.3977 19.4098V19.946H49.8615V19.4098H50.3977ZM50.9339 19.4098V19.946H50.3977V19.4098H50.9339ZM50.9339 18.8735V19.4098H50.3977V18.8735H50.9339ZM50.9339 17.8011V18.3373H50.3977V17.8011H50.9339ZM50.9339 17.2649V17.8011H50.3977V17.2649H50.9339ZM50.9339 16.7287V17.2649H50.3977V16.7287H50.9339ZM50.9339 16.1925V16.7287H50.3977V16.1925H50.9339ZM50.9339 15.6563V16.1925H50.3977V15.6563H50.9339ZM50.9339 15.1201V15.6563H50.3977V15.1201H50.9339ZM50.9339 14.5838V15.1201H50.3977V14.5838H50.9339ZM50.3977 16.7287V17.2649H49.8615V16.7287H50.3977ZM50.3977 17.8011V18.3373H49.8615V17.8011H50.3977ZM50.3977 18.3373V18.8735H49.8615V18.3373H50.3977ZM50.3977 18.8735V19.4098H49.8615V18.8735H50.3977ZM50.9339 18.3373V18.8735H50.3977V18.3373H50.9339ZM50.3977 15.6563V16.1925H49.8615V15.6563H50.3977ZM49.8615 15.6563V16.1925H49.3253V15.6563H49.8615ZM49.3253 15.6563V16.1925H48.7891V15.6563H49.3253ZM49.3253 16.1925V16.7287H48.7891V16.1925H49.3253ZM49.3253 16.7287V17.2649H48.7891V16.7287H49.3253ZM49.3253 17.2649V17.8011H48.7891V17.2649H49.3253ZM49.3253 17.8011V18.3373H48.7891V17.8011H49.3253ZM49.3253 18.3373V18.8735H48.7891V18.3373H49.3253ZM49.3253 18.8735V19.4098H48.7891V18.8735H49.3253ZM49.8615 18.8735V19.4098H49.3253V18.8735H49.8615ZM49.8615 18.3373V18.8735H49.3253V18.3373H49.8615ZM49.8615 17.8011V18.3373H49.3253V17.8011H49.8615ZM49.8615 17.2649V17.8011H49.3253V17.2649H49.8615ZM49.8615 16.7287V17.2649H49.3253V16.7287H49.8615ZM49.8615 16.1925V16.7287H49.3253V16.1925H49.8615ZM50.3977 16.1925V16.7287H49.8615V16.1925H50.3977ZM50.3977 17.2649V17.8011H49.8615V17.2649H50.3977ZM50.3977 15.1201V15.6563H49.8615V15.1201H50.3977ZM50.3977 14.5838V15.1201H49.8615V14.5838H50.3977ZM49.8615 14.5838V15.1201H49.3253V14.5838H49.8615ZM49.8615 15.1201V15.6563H49.3253V15.1201H49.8615ZM48.7891 15.1201V15.6563H48.2529V15.1201H48.7891ZM48.7891 14.5838V15.1201H48.2529V14.5838H48.7891ZM48.7891 14.0476V14.5838H48.2529V14.0476H48.7891ZM49.8615 14.0476V14.5838H49.3253V14.0476H49.8615ZM48.7891 11.9028V12.439H48.2529V11.9028H48.7891ZM48.7891 12.439V12.9752H48.2529V12.439H48.7891ZM49.3253 12.439V12.9752H48.7891V12.439H49.3253ZM49.8615 12.439V12.9752H49.3253V12.439H49.8615ZM49.8615 12.9752V13.5114H49.3253V12.9752H49.8615ZM50.3977 12.9752V13.5114H49.8615V12.9752H50.3977ZM50.3977 13.5114V14.0476H49.8615V13.5114H50.3977ZM49.8615 13.5114V14.0476H49.3253V13.5114H49.8615ZM49.3253 13.5114V14.0476H48.7891V13.5114H49.3253ZM49.3253 12.9752V13.5114H48.7891V12.9752H49.3253ZM48.7891 12.9752V13.5114H48.2529V12.9752H48.7891ZM48.2529 12.9752V13.5114H47.7167V12.9752H48.2529ZM48.2529 13.5114V14.0476H47.7167V13.5114H48.2529ZM48.7891 13.5114V14.0476H48.2529V13.5114H48.7891ZM48.2529 14.0476V14.5838H47.7167V14.0476H48.2529ZM47.7167 13.5114V14.0476H47.1805V13.5114H47.7167ZM47.7167 12.9752V13.5114H47.1805V12.9752H47.7167ZM47.7167 12.439V12.9752H47.1805V12.439H47.7167ZM47.7167 11.9028V12.439H47.1805V11.9028H47.7167ZM48.2529 11.9028V12.439H47.7167V11.9028H48.2529ZM48.2529 12.439V12.9752H47.7167V12.439H48.2529ZM47.1805 11.9028V12.439H46.6442V11.9028H47.1805ZM47.1805 12.439V12.9752H46.6442V12.439H47.1805ZM46.6442 12.439V12.9752H46.108V12.439H46.6442ZM46.6442 12.9752V13.5114H46.108V12.9752H46.6442ZM46.108 12.9752V13.5114H45.5718V12.9752H46.108ZM46.108 13.5114V14.0476H45.5718V13.5114H46.108ZM46.6442 13.5114V14.0476H46.108V13.5114H46.6442ZM47.1805 13.5114V14.0476H46.6442V13.5114H47.1805ZM47.1805 12.9752V13.5114H46.6442V12.9752H47.1805ZM46.108 14.0476V14.5838H45.5718V14.0476H46.108ZM46.6442 14.0476V14.5838H46.108V14.0476H46.6442ZM46.108 14.5838V15.1201H45.5718V14.5838H46.108ZM42.3545 11.9028V12.439H41.8183V11.9028H42.3545ZM41.8183 12.439V12.9752H41.2821V12.439H41.8183ZM46.6442 11.9028V12.439H46.108V11.9028H46.6442ZM46.108 12.439V12.9752H45.5718V12.439H46.108ZM42.8908 13.5114V14.0476H42.3545V13.5114H42.8908ZM44.4994 11.9028V12.439H43.9632V11.9028H44.4994ZM54.1434 18.8735V18.3373H54.6796V18.8735H54.1434ZM53.6072 18.8735V18.3373H54.1434V18.8735H53.6072ZM53.0709 18.8735V18.3373H53.6072V18.8735H53.0709ZM52.5347 18.8735V18.3373H53.0709V18.8735H52.5347ZM51.9985 18.8735V18.3373H52.5347V18.8735H51.9985ZM51.9985 19.4098V18.8735H52.5347V19.4098H51.9985ZM51.9985 19.946V19.4098H52.5347V19.946H51.9985ZM52.5347 19.946V19.4098H53.0709V19.946H52.5347ZM53.0709 19.946V19.4098H53.6072V19.946H53.0709ZM53.6072 19.946V19.4098H54.1434V19.946H53.6072ZM53.6072 19.4098V18.8735H54.1434V19.4098H53.6072ZM54.1434 19.4098V18.8735H54.6796V19.4098H54.1434ZM53.0709 19.4098V18.8735H53.6072V19.4098H53.0709ZM52.5347 19.4098V18.8735H53.0709V19.4098H52.5347ZM54.1434 19.946V19.4098H54.6796V19.946H54.1434ZM54.6796 19.946V19.4098H55.2158V19.946H54.6796ZM54.6796 20.4822V19.946H55.2158V20.4822H54.6796ZM54.1434 20.4822V19.946H54.6796V20.4822H54.1434ZM53.6072 20.4822V19.946H54.1434V20.4822H53.6072ZM53.0709 20.4822V19.946H53.6072V20.4822H53.0709ZM52.5347 20.4822V19.946H53.0709V20.4822H52.5347ZM52.5347 21.0184V20.4822H53.0709V21.0184H52.5347ZM53.0709 21.0184V20.4822H53.6072V21.0184H53.0709ZM53.6072 21.0184V20.4822H54.1434V21.0184H53.6072ZM54.1434 21.0184V20.4822H54.6796V21.0184H54.1434ZM54.6796 21.0184V20.4822H55.2158V21.0184H54.6796ZM53.6072 21.5546V21.0184H54.1434V21.5546H53.6072ZM53.0709 21.5546V21.0184H53.6072V21.5546H53.0709ZM54.1434 21.5546V21.0184H54.6796V21.5546H54.1434ZM54.1434 22.0908V21.5546H54.6796V22.0908H54.1434ZM54.6796 22.0908V21.5546H55.2158V22.0908H54.6796ZM54.6796 21.5546V21.0184H55.2158V21.5546H54.6796ZM55.2158 21.5546V21.0184H55.752V21.5546H55.2158ZM55.2158 22.0908V21.5546H55.752V22.0908H55.2158ZM55.2158 21.0184V20.4822H55.752V21.0184H55.2158ZM55.752 21.0184V20.4822H56.2882V21.0184H55.752ZM55.752 20.4822V19.946H56.2882V20.4822H55.752ZM55.2158 20.4822V19.946H55.752V20.4822H55.2158ZM56.2882 20.4822V19.946H56.8244V20.4822H56.2882ZM56.2882 21.0184V20.4822H56.8244V21.0184H56.2882ZM56.2882 21.5546V21.0184H56.8244V21.5546H56.2882ZM56.2882 22.0908V21.5546H56.8244V22.0908H56.2882ZM55.752 22.0908V21.5546H56.2882V22.0908H55.752ZM55.752 21.5546V21.0184H56.2882V21.5546H55.752ZM56.8244 22.0908V21.5546H57.3606V22.0908H56.8244ZM57.8969 21.5546V21.0184H58.4331V21.5546H57.8969ZM57.8969 21.0184V20.4822H58.4331V21.0184H57.8969ZM57.8969 20.4822V19.946H58.4331V20.4822H57.8969ZM57.3606 20.4822V19.946H57.8969V20.4822H57.3606ZM56.8244 20.4822V19.946H57.3606V20.4822H56.8244ZM56.8244 21.0184V20.4822H57.3606V21.0184H56.8244ZM56.8244 21.5546V21.0184H57.3606V21.5546H56.8244ZM57.3606 21.5546V21.0184H57.8969V21.5546H57.3606ZM57.3606 21.0184V20.4822H57.8969V21.0184H57.3606ZM58.4331 21.0184V20.4822H58.9693V21.0184H58.4331ZM58.4331 21.5546V21.0184H58.9693V21.5546H58.4331ZM58.9693 21.5546V21.0184H59.5055V21.5546H58.9693ZM58.9693 21.0184V20.4822H59.5055V21.0184H58.9693ZM59.5055 21.0184V20.4822H60.0417V21.0184H59.5055ZM59.5055 20.4822V19.946H60.0417V20.4822H59.5055ZM59.5055 19.946V19.4098H60.0417V19.946H59.5055ZM58.9693 19.946V19.4098H59.5055V19.946H58.9693ZM58.9693 20.4822V19.946H59.5055V20.4822H58.9693ZM58.4331 20.4822V19.946H58.9693V20.4822H58.4331ZM58.4331 19.946V19.4098H58.9693V19.946H58.4331ZM57.8969 19.946V19.4098H58.4331V19.946H57.8969ZM60.0417 19.946V19.4098H60.5779V19.946H60.0417ZM60.0417 19.4098V18.8735H60.5779V19.4098H60.0417ZM60.0417 18.8735V18.3373H60.5779V18.8735H60.0417ZM60.0417 18.3373V17.8011H60.5779V18.3373H60.0417ZM60.0417 17.8011V17.2649H60.5779V17.8011H60.0417ZM60.0417 17.2649V16.7287H60.5779V17.2649H60.0417ZM60.0417 16.7287V16.1925H60.5779V16.7287H60.0417ZM60.0417 16.1925V15.6563H60.5779V16.1925H60.0417ZM60.0417 15.6563V15.1201H60.5779V15.6563H60.0417ZM60.0417 15.1201V14.5838H60.5779V15.1201H60.0417ZM59.5055 15.1201V14.5838H60.0417V15.1201H59.5055ZM59.5055 14.5838V14.0476H60.0417V14.5838H59.5055ZM60.0417 14.5838V14.0476H60.5779V14.5838H60.0417ZM58.9693 14.5838V14.0476H59.5055V14.5838H58.9693ZM58.4331 14.5838V14.0476H58.9693V14.5838H58.4331ZM57.8969 14.5838V14.0476H58.4331V14.5838H57.8969ZM57.3606 14.5838V14.0476H57.8969V14.5838H57.3606ZM57.8969 15.1201V14.5838H58.4331V15.1201H57.8969ZM57.8969 15.6563V15.1201H58.4331V15.6563H57.8969ZM57.8969 16.1925V15.6563H58.4331V16.1925H57.8969ZM57.8969 16.7287V16.1925H58.4331V16.7287H57.8969ZM57.8969 17.2649V16.7287H58.4331V17.2649H57.8969ZM57.8969 17.8011V17.2649H58.4331V17.8011H57.8969ZM57.8969 18.3373V17.8011H58.4331V18.3373H57.8969ZM57.8969 18.8735V18.3373H58.4331V18.8735H57.8969ZM57.8969 19.4098V18.8735H58.4331V19.4098H57.8969ZM58.4331 19.4098V18.8735H58.9693V19.4098H58.4331ZM58.9693 19.4098V18.8735H59.5055V19.4098H58.9693ZM59.5055 19.4098V18.8735H60.0417V19.4098H59.5055ZM59.5055 18.8735V18.3373H60.0417V18.8735H59.5055ZM59.5055 18.3373V17.8011H60.0417V18.3373H59.5055ZM59.5055 17.8011V17.2649H60.0417V17.8011H59.5055ZM59.5055 17.2649V16.7287H60.0417V17.2649H59.5055ZM59.5055 16.7287V16.1925H60.0417V16.7287H59.5055ZM59.5055 16.1925V15.6563H60.0417V16.1925H59.5055ZM59.5055 15.6563V15.1201H60.0417V15.6563H59.5055ZM58.9693 15.1201V14.5838H59.5055V15.1201H58.9693ZM58.4331 15.1201V14.5838H58.9693V15.1201H58.4331ZM58.4331 15.6563V15.1201H58.9693V15.6563H58.4331ZM58.4331 16.1925V15.6563H58.9693V16.1925H58.4331ZM58.4331 16.7287V16.1925H58.9693V16.7287H58.4331ZM58.4331 17.2649V16.7287H58.9693V17.2649H58.4331ZM58.9693 17.2649V16.7287H59.5055V17.2649H58.9693ZM58.9693 17.8011V17.2649H59.5055V17.8011H58.9693ZM58.9693 18.3373V17.8011H59.5055V18.3373H58.9693ZM58.9693 18.8735V18.3373H59.5055V18.8735H58.9693ZM58.4331 18.8735V18.3373H58.9693V18.8735H58.4331ZM58.4331 18.3373V17.8011H58.9693V18.3373H58.4331ZM58.4331 17.8011V17.2649H58.9693V17.8011H58.4331ZM58.9693 16.1925V15.6563H59.5055V16.1925H58.9693ZM58.9693 15.6563V15.1201H59.5055V15.6563H58.9693ZM58.9693 16.7287V16.1925H59.5055V16.7287H58.9693ZM54.1434 15.1201V14.5838H54.6796V15.1201H54.1434ZM53.6072 15.1201V14.5838H54.1434V15.1201H53.6072ZM53.0709 15.1201V14.5838H53.6072V15.1201H53.0709ZM52.5347 15.1201V14.5838H53.0709V15.1201H52.5347ZM51.9985 15.1201V14.5838H52.5347V15.1201H51.9985ZM51.9985 14.5838V14.0476H52.5347V14.5838H51.9985ZM52.5347 14.5838V14.0476H53.0709V14.5838H52.5347ZM53.0709 14.5838V14.0476H53.6072V14.5838H53.0709ZM53.6072 14.5838V14.0476H54.1434V14.5838H53.6072ZM54.1434 14.5838V14.0476H54.6796V14.5838H54.1434ZM54.6796 14.5838V14.0476H55.2158V14.5838H54.6796ZM54.6796 14.0476V13.5114H55.2158V14.0476H54.6796ZM54.1434 14.0476V13.5114H54.6796V14.0476H54.1434ZM53.6072 14.0476V13.5114H54.1434V14.0476H53.6072ZM53.0709 14.0476V13.5114H53.6072V14.0476H53.0709ZM53.0709 13.5114V12.9752H53.6072V13.5114H53.0709ZM52.5347 13.5114V12.9752H53.0709V13.5114H52.5347ZM52.5347 14.0476V13.5114H53.0709V14.0476H52.5347ZM53.0709 12.9752V12.439H53.6072V12.9752H53.0709ZM53.6072 12.9752V12.439H54.1434V12.9752H53.6072ZM53.6072 13.5114V12.9752H54.1434V13.5114H53.6072ZM54.1434 13.5114V12.9752H54.6796V13.5114H54.1434ZM54.1434 12.9752V12.439H54.6796V12.9752H54.1434ZM54.1434 12.439V11.9028H54.6796V12.439H54.1434ZM54.6796 12.439V11.9028H55.2158V12.439H54.6796ZM55.2158 12.439V11.9028H55.752V12.439H55.2158ZM55.752 12.439V11.9028H56.2882V12.439H55.752ZM56.2882 12.439V11.9028H56.8244V12.439H56.2882ZM56.8244 12.439V11.9028H57.3606V12.439H56.8244ZM57.3606 12.439V11.9028H57.8969V12.439H57.3606ZM57.8969 12.439V11.9028H58.4331V12.439H57.8969ZM57.3606 12.9752V12.439H57.8969V12.9752H57.3606ZM56.8244 12.9752V12.439H57.3606V12.9752H56.8244ZM56.2882 12.9752V12.439H56.8244V12.9752H56.2882ZM55.752 12.9752V12.439H56.2882V12.9752H55.752ZM55.2158 12.9752V12.439H55.752V12.9752H55.2158ZM54.6796 12.9752V12.439H55.2158V12.9752H54.6796ZM54.6796 13.5114V12.9752H55.2158V13.5114H54.6796ZM55.2158 13.5114V12.9752H55.752V13.5114H55.2158ZM55.752 13.5114V12.9752H56.2882V13.5114H55.752ZM56.2882 13.5114V12.9752H56.8244V13.5114H56.2882ZM56.8244 13.5114V12.9752H57.3606V13.5114H56.8244ZM57.3606 13.5114V12.9752H57.8969V13.5114H57.3606ZM57.8969 12.9752V12.439H58.4331V12.9752H57.8969ZM58.4331 12.9752V12.439H58.9693V12.9752H58.4331ZM58.9693 12.9752V12.439H59.5055V12.9752H58.9693ZM58.9693 13.5114V12.9752H59.5055V13.5114H58.9693ZM59.5055 13.5114V12.9752H60.0417V13.5114H59.5055ZM59.5055 14.0476V13.5114H60.0417V14.0476H59.5055ZM58.9693 14.0476V13.5114H59.5055V14.0476H58.9693ZM58.4331 14.0476V13.5114H58.9693V14.0476H58.4331ZM57.8969 14.0476V13.5114H58.4331V14.0476H57.8969ZM57.3606 14.0476V13.5114H57.8969V14.0476H57.3606ZM56.8244 14.0476V13.5114H57.3606V14.0476H56.8244ZM56.2882 14.0476V13.5114H56.8244V14.0476H56.2882ZM55.752 14.0476V13.5114H56.2882V14.0476H55.752ZM55.2158 14.0476V13.5114H55.752V14.0476H55.2158ZM57.8969 13.5114V12.9752H58.4331V13.5114H57.8969ZM58.4331 13.5114V12.9752H58.9693V13.5114H58.4331ZM52.5347 18.3373V17.8011H53.0709V18.3373H52.5347ZM53.0709 18.3373V17.8011H53.6072V18.3373H53.0709ZM53.6072 18.3373V17.8011H54.1434V18.3373H53.6072ZM54.1434 18.3373V17.8011H54.6796V18.3373H54.1434ZM53.0709 17.8011V17.2649H53.6072V17.8011H53.0709ZM53.6072 17.8011V17.2649H54.1434V17.8011H53.6072ZM54.6796 17.8011V17.2649H55.2158V17.8011H54.6796ZM55.2158 17.8011V17.2649H55.752V17.8011H55.2158ZM55.752 17.8011V17.2649H56.2882V17.8011H55.752ZM56.2882 17.8011V17.2649H56.8244V17.8011H56.2882ZM56.8244 17.8011V17.2649H57.3606V17.8011H56.8244ZM57.3606 17.8011V17.2649H57.8969V17.8011H57.3606ZM54.1434 17.8011V17.2649H54.6796V17.8011H54.1434ZM52.5347 17.8011V17.2649H53.0709V17.8011H52.5347ZM53.0709 17.2649V16.7287H53.6072V17.2649H53.0709ZM53.6072 17.2649V16.7287H54.1434V17.2649H53.6072ZM54.1434 17.2649V16.7287H54.6796V17.2649H54.1434ZM54.6796 17.2649V16.7287H55.2158V17.2649H54.6796ZM55.2158 17.2649V16.7287H55.752V17.2649H55.2158ZM55.752 17.2649V16.7287H56.2882V17.2649H55.752ZM56.2882 17.2649V16.7287H56.8244V17.2649H56.2882ZM56.8244 17.2649V16.7287H57.3606V17.2649H56.8244ZM57.3606 17.2649V16.7287H57.8969V17.2649H57.3606ZM57.3606 16.7287V16.1925H57.8969V16.7287H57.3606ZM56.8244 16.7287V16.1925H57.3606V16.7287H56.8244ZM56.2882 16.7287V16.1925H56.8244V16.7287H56.2882ZM55.2158 16.7287V16.1925H55.752V16.7287H55.2158ZM54.6796 16.7287V16.1925H55.2158V16.7287H54.6796ZM54.1434 16.7287V16.1925H54.6796V16.7287H54.1434ZM55.752 16.7287V16.1925H56.2882V16.7287H55.752ZM60.5779 19.946V20.4822H60.0417V19.946H60.5779ZM60.5779 20.4822V21.0184H60.0417V20.4822H60.5779ZM60.5779 21.0184V21.5546H60.0417V21.0184H60.5779ZM60.5779 21.5546V22.0908H60.0417V21.5546H60.5779ZM60.0417 21.5546V22.0908H59.5055V21.5546H60.0417ZM60.0417 21.0184V21.5546H59.5055V21.0184H60.0417ZM59.5055 21.5546V22.0908H58.9693V21.5546H59.5055ZM58.9693 21.5546V22.0908H58.4331V21.5546H58.9693ZM58.4331 21.5546V22.0908H57.8969V21.5546H58.4331ZM57.8969 19.4098V19.946H57.3606V19.4098H57.8969ZM54.1434 21.5546V22.0908H53.6072V21.5546H54.1434ZM55.2158 17.8011V18.3373H54.6796V17.8011H55.2158ZM63.2689 21.5546V22.0908H62.7327V21.5546H63.2689ZM63.2689 21.0184V21.5546H62.7327V21.0184H63.2689ZM63.2689 20.4822V21.0184H62.7327V20.4822H63.2689ZM63.2689 19.946V20.4822H62.7327V19.946H63.2689ZM63.2689 19.4098V19.946H62.7327V19.4098H63.2689ZM63.2689 18.8735V19.4098H62.7327V18.8735H63.2689ZM63.2689 18.3373V18.8735H62.7327V18.3373H63.2689ZM63.2689 17.8011V18.3373H62.7327V17.8011H63.2689ZM63.2689 17.2649V17.8011H62.7327V17.2649H63.2689ZM63.2689 16.7287V17.2649H62.7327V16.7287H63.2689ZM63.2689 16.1925V16.7287H62.7327V16.1925H63.2689ZM63.2689 15.6563V16.1925H62.7327V15.6563H63.2689ZM63.2689 15.1201V15.6563H62.7327V15.1201H63.2689ZM63.2689 14.5838V15.1201H62.7327V14.5838H63.2689ZM63.2689 14.0476V14.5838H62.7327V14.0476H63.2689ZM63.8052 14.0476V14.5838H63.2689V14.0476H63.8052ZM63.8052 14.5838V15.1201H63.2689V14.5838H63.8052ZM63.8052 15.1201V15.6563H63.2689V15.1201H63.8052ZM63.8052 15.6563V16.1925H63.2689V15.6563H63.8052ZM63.8052 16.1925V16.7287H63.2689V16.1925H63.8052ZM63.8052 16.7287V17.2649H63.2689V16.7287H63.8052ZM63.8052 17.2649V17.8011H63.2689V17.2649H63.8052ZM64.3414 17.8011V18.3373H63.8052V17.8011H64.3414ZM64.3414 18.3373V18.8735H63.8052V18.3373H64.3414ZM64.3414 18.8735V19.4098H63.8052V18.8735H64.3414ZM64.3414 19.4098V19.946H63.8052V19.4098H64.3414ZM64.3414 19.946V20.4822H63.8052V19.946H64.3414ZM64.3414 20.4822V21.0184H63.8052V20.4822H64.3414ZM64.3414 21.0184V21.5546H63.8052V21.0184H64.3414ZM64.3414 21.5546V22.0908H63.8052V21.5546H64.3414ZM64.8776 21.5546V22.0908H64.3414V21.5546H64.8776ZM65.4138 21.5546V22.0908H64.8776V21.5546H65.4138ZM65.4138 21.0184V21.5546H64.8776V21.0184H65.4138ZM65.4138 20.4822V21.0184H64.8776V20.4822H65.4138ZM65.4138 19.946V20.4822H64.8776V19.946H65.4138ZM65.4138 19.4098V19.946H64.8776V19.4098H65.4138ZM65.4138 18.8735V19.4098H64.8776V18.8735H65.4138ZM65.4138 18.3373V18.8735H64.8776V18.3373H65.4138ZM65.4138 17.8011V18.3373H64.8776V17.8011H65.4138ZM64.8776 17.8011V18.3373H64.3414V17.8011H64.8776ZM64.8776 17.2649V17.8011H64.3414V17.2649H64.8776ZM64.8776 18.3373V18.8735H64.3414V18.3373H64.8776ZM64.8776 18.8735V19.4098H64.3414V18.8735H64.8776ZM64.8776 19.4098V19.946H64.3414V19.4098H64.8776ZM64.8776 19.946V20.4822H64.3414V19.946H64.8776ZM64.8776 20.4822V21.0184H64.3414V20.4822H64.8776ZM64.8776 21.0184V21.5546H64.3414V21.0184H64.8776ZM63.8052 21.5546V22.0908H63.2689V21.5546H63.8052ZM63.8052 21.0184V21.5546H63.2689V21.0184H63.8052ZM63.8052 20.4822V21.0184H63.2689V20.4822H63.8052ZM63.8052 19.946V20.4822H63.2689V19.946H63.8052ZM63.8052 19.4098V19.946H63.2689V19.4098H63.8052ZM63.8052 18.8735V19.4098H63.2689V18.8735H63.8052ZM63.8052 18.3373V18.8735H63.2689V18.3373H63.8052ZM63.8052 17.8011V18.3373H63.2689V17.8011H63.8052ZM63.2689 11.9028V12.439H62.7327V11.9028H63.2689ZM63.2689 12.439V12.9752H62.7327V12.439H63.2689ZM63.2689 12.9752V13.5114H62.7327V12.9752H63.2689ZM63.2689 13.5114V14.0476H62.7327V13.5114H63.2689ZM64.8776 12.439V12.9752H64.3414V12.439H64.8776ZM64.8776 12.9752V13.5114H64.3414V12.9752H64.8776ZM64.8776 13.5114V14.0476H64.3414V13.5114H64.8776ZM64.8776 14.0476V14.5838H64.3414V14.0476H64.8776ZM64.8776 14.5838V15.1201H64.3414V14.5838H64.8776ZM64.8776 15.1201V15.6563H64.3414V15.1201H64.8776ZM64.8776 15.6563V16.1925H64.3414V15.6563H64.8776ZM65.4138 16.1925V16.7287H64.8776V16.1925H65.4138ZM65.4138 16.7287V17.2649H64.8776V16.7287H65.4138ZM65.4138 17.2649V17.8011H64.8776V17.2649H65.4138ZM65.4138 15.6563V16.1925H64.8776V15.6563H65.4138ZM65.4138 15.1201V15.6563H64.8776V15.1201H65.4138ZM65.4138 14.5838V15.1201H64.8776V14.5838H65.4138ZM65.4138 14.0476V14.5838H64.8776V14.0476H65.4138ZM65.4138 13.5114V14.0476H64.8776V13.5114H65.4138ZM65.4138 12.9752V13.5114H64.8776V12.9752H65.4138ZM65.4138 12.439V12.9752H64.8776V12.439H65.4138ZM65.4138 11.9028V12.439H64.8776V11.9028H65.4138ZM64.8776 11.9028V12.439H64.3414V11.9028H64.8776ZM64.3414 11.9028V12.439H63.8052V11.9028H64.3414ZM64.3414 12.439V12.9752H63.8052V12.439H64.3414ZM63.8052 12.9752V13.5114H63.2689V12.9752H63.8052ZM63.8052 13.5114V14.0476H63.2689V13.5114H63.8052ZM63.8052 12.439V12.9752H63.2689V12.439H63.8052ZM63.8052 11.9028V12.439H63.2689V11.9028H63.8052ZM64.3414 12.9752V13.5114H63.8052V12.9752H64.3414ZM64.3414 13.5114V14.0476H63.8052V13.5114H64.3414ZM64.3414 14.0476V14.5838H63.8052V14.0476H64.3414ZM64.3414 14.5838V15.1201H63.8052V14.5838H64.3414ZM64.3414 15.1201V15.6563H63.8052V15.1201H64.3414ZM64.3414 15.6563V16.1925H63.8052V15.6563H64.3414ZM64.3414 16.1925V16.7287H63.8052V16.1925H64.3414ZM64.3414 16.7287V17.2649H63.8052V16.7287H64.3414ZM64.3414 17.2649V17.8011H63.8052V17.2649H64.3414ZM64.8776 16.7287V17.2649H64.3414V16.7287H64.8776ZM64.8776 16.1925V16.7287H64.3414V16.1925H64.8776ZM69.1673 21.5546V22.0908H68.6311V21.5546H69.1673ZM69.7035 21.5546V22.0908H69.1673V21.5546H69.7035ZM70.2397 21.5546V22.0908H69.7035V21.5546H70.2397ZM70.7759 21.5546V22.0908H70.2397V21.5546H70.7759ZM71.3121 21.0184V21.5546H70.7759V21.0184H71.3121ZM71.3121 20.4822V21.0184H70.7759V20.4822H71.3121ZM71.3121 21.5546V22.0908H70.7759V21.5546H71.3121ZM70.7759 21.0184V21.5546H70.2397V21.0184H70.7759ZM70.2397 21.0184V21.5546H69.7035V21.0184H70.2397ZM69.7035 21.0184V21.5546H69.1673V21.0184H69.7035ZM69.1673 21.0184V21.5546H68.6311V21.0184H69.1673ZM69.1673 20.4822V21.0184H68.6311V20.4822H69.1673ZM69.1673 19.946V20.4822H68.6311V19.946H69.1673ZM69.7035 19.946V20.4822H69.1673V19.946H69.7035ZM70.2397 19.946V20.4822H69.7035V19.946H70.2397ZM70.7759 19.946V20.4822H70.2397V19.946H70.7759ZM71.3121 19.946V20.4822H70.7759V19.946H71.3121ZM70.7759 20.4822V21.0184H70.2397V20.4822H70.7759ZM70.2397 20.4822V21.0184H69.7035V20.4822H70.2397ZM69.7035 20.4822V21.0184H69.1673V20.4822H69.7035ZM71.3121 14.0476V14.5838H70.7759V14.0476H71.3121ZM70.7759 14.0476V14.5838H70.2397V14.0476H70.7759ZM69.7035 14.0476V14.5838H69.1673V14.0476H69.7035ZM69.7035 14.5838V15.1201H69.1673V14.5838H69.7035ZM69.7035 15.1201V15.6563H69.1673V15.1201H69.7035ZM69.1673 15.6563V16.1925H68.6311V15.6563H69.1673ZM69.1673 16.1925V16.7287H68.6311V16.1925H69.1673ZM69.1673 16.7287V17.2649H68.6311V16.7287H69.1673ZM69.1673 17.2649V17.8011H68.6311V17.2649H69.1673ZM69.1673 17.8011V18.3373H68.6311V17.8011H69.1673ZM69.1673 18.3373V18.8735H68.6311V18.3373H69.1673ZM69.1673 18.8735V19.4098H68.6311V18.8735H69.1673ZM69.1673 19.4098V19.946H68.6311V19.4098H69.1673ZM69.7035 19.4098V19.946H69.1673V19.4098H69.7035ZM70.2397 19.4098V19.946H69.7035V19.4098H70.2397ZM70.7759 19.4098V19.946H70.2397V19.4098H70.7759ZM71.3121 19.4098V19.946H70.7759V19.4098H71.3121ZM71.3121 18.8735V19.4098H70.7759V18.8735H71.3121ZM71.3121 17.8011V18.3373H70.7759V17.8011H71.3121ZM71.3121 17.2649V17.8011H70.7759V17.2649H71.3121ZM71.3121 16.7287V17.2649H70.7759V16.7287H71.3121ZM71.3121 16.1925V16.7287H70.7759V16.1925H71.3121ZM71.3121 15.6563V16.1925H70.7759V15.6563H71.3121ZM71.3121 15.1201V15.6563H70.7759V15.1201H71.3121ZM71.3121 14.5838V15.1201H70.7759V14.5838H71.3121ZM70.7759 16.7287V17.2649H70.2397V16.7287H70.7759ZM70.7759 17.8011V18.3373H70.2397V17.8011H70.7759ZM70.7759 18.3373V18.8735H70.2397V18.3373H70.7759ZM70.7759 18.8735V19.4098H70.2397V18.8735H70.7759ZM71.3121 18.3373V18.8735H70.7759V18.3373H71.3121ZM70.7759 15.6563V16.1925H70.2397V15.6563H70.7759ZM70.2397 15.6563V16.1925H69.7035V15.6563H70.2397ZM69.7035 15.6563V16.1925H69.1673V15.6563H69.7035ZM69.7035 16.1925V16.7287H69.1673V16.1925H69.7035ZM69.7035 16.7287V17.2649H69.1673V16.7287H69.7035ZM69.7035 17.2649V17.8011H69.1673V17.2649H69.7035ZM69.7035 17.8011V18.3373H69.1673V17.8011H69.7035ZM69.7035 18.3373V18.8735H69.1673V18.3373H69.7035ZM69.7035 18.8735V19.4098H69.1673V18.8735H69.7035ZM70.2397 18.8735V19.4098H69.7035V18.8735H70.2397ZM70.2397 18.3373V18.8735H69.7035V18.3373H70.2397ZM70.2397 17.8011V18.3373H69.7035V17.8011H70.2397ZM70.2397 17.2649V17.8011H69.7035V17.2649H70.2397ZM70.2397 16.7287V17.2649H69.7035V16.7287H70.2397ZM70.2397 16.1925V16.7287H69.7035V16.1925H70.2397ZM70.7759 16.1925V16.7287H70.2397V16.1925H70.7759ZM70.7759 17.2649V17.8011H70.2397V17.2649H70.7759ZM70.7759 15.1201V15.6563H70.2397V15.1201H70.7759ZM70.7759 14.5838V15.1201H70.2397V14.5838H70.7759ZM70.2397 14.5838V15.1201H69.7035V14.5838H70.2397ZM70.2397 15.1201V15.6563H69.7035V15.1201H70.2397ZM69.1673 15.1201V15.6563H68.6311V15.1201H69.1673ZM69.1673 14.5838V15.1201H68.6311V14.5838H69.1673ZM69.1673 14.0476V14.5838H68.6311V14.0476H69.1673ZM70.2397 14.0476V14.5838H69.7035V14.0476H70.2397ZM69.1673 11.9028V12.439H68.6311V11.9028H69.1673ZM69.1673 12.439V12.9752H68.6311V12.439H69.1673ZM69.7035 12.439V12.9752H69.1673V12.439H69.7035ZM70.2397 12.439V12.9752H69.7035V12.439H70.2397ZM70.2397 12.9752V13.5114H69.7035V12.9752H70.2397ZM70.7759 12.9752V13.5114H70.2397V12.9752H70.7759ZM70.7759 13.5114V14.0476H70.2397V13.5114H70.7759ZM70.2397 13.5114V14.0476H69.7035V13.5114H70.2397ZM69.7035 13.5114V14.0476H69.1673V13.5114H69.7035ZM69.7035 12.9752V13.5114H69.1673V12.9752H69.7035ZM69.1673 12.9752V13.5114H68.6311V12.9752H69.1673ZM68.6311 12.9752V13.5114H68.0949V12.9752H68.6311ZM68.6311 13.5114V14.0476H68.0949V13.5114H68.6311ZM69.1673 13.5114V14.0476H68.6311V13.5114H69.1673ZM68.6311 14.0476V14.5838H68.0949V14.0476H68.6311ZM68.0949 13.5114V14.0476H67.5586V13.5114H68.0949ZM68.0949 12.9752V13.5114H67.5586V12.9752H68.0949ZM68.0949 12.439V12.9752H67.5586V12.439H68.0949ZM68.0949 11.9028V12.439H67.5586V11.9028H68.0949ZM68.6311 11.9028V12.439H68.0949V11.9028H68.6311ZM68.6311 12.439V12.9752H68.0949V12.439H68.6311ZM67.5586 11.9028V12.439H67.0224V11.9028H67.5586ZM67.5586 12.439V12.9752H67.0224V12.439H67.5586ZM67.5586 12.9752V13.5114H67.0224V12.9752H67.5586ZM67.5586 13.5114V14.0476H67.0224V13.5114H67.5586ZM67.0224 11.9028V12.439H66.4862V11.9028H67.0224ZM67.0224 12.439V12.9752H66.4862V12.439H67.0224ZM66.4862 12.439V12.9752H65.95V12.439H66.4862ZM66.4862 12.9752V13.5114H65.95V12.9752H66.4862ZM65.95 12.9752V13.5114H65.4138V12.9752H65.95ZM65.95 13.5114V14.0476H65.4138V13.5114H65.95ZM66.4862 13.5114V14.0476H65.95V13.5114H66.4862ZM67.0224 13.5114V14.0476H66.4862V13.5114H67.0224ZM67.0224 12.9752V13.5114H66.4862V12.9752H67.0224ZM65.95 14.0476V14.5838H65.4138V14.0476H65.95ZM66.4862 11.9028V12.439H65.95V11.9028H66.4862ZM65.95 12.439V12.9752H65.4138V12.439H65.95Z" fill="black"/>
</svg>
