<svg width="135" height="51" viewBox="0 0 135 51" fill="none" xmlns="http://www.w3.org/2000/svg">
<path d="M23.3627 0.800565C23.2551 0.810338 22.913 0.844546 22.6051 0.868981C15.5034 1.50916 8.85142 5.34047 4.63832 11.2291C2.29228 14.5033 0.791789 18.2174 0.224829 22.1513C0.0244379 23.5245 0 23.9301 0 25.792C0 27.6539 0.0244379 28.0595 0.224829 29.4327C1.58358 38.8204 8.26491 46.7078 17.3265 49.6301C18.9492 50.153 20.6598 50.5098 22.6051 50.7248C23.3627 50.8079 26.6373 50.8079 27.3949 50.7248C30.7527 50.3534 33.5973 49.5226 36.4027 48.0908C36.8328 47.8709 36.9159 47.8122 36.8573 47.7634C36.8182 47.734 34.9853 45.2759 32.7859 42.3047L28.7879 36.9047L23.7781 29.4914C21.0215 25.4157 18.7537 22.0829 18.7341 22.0829C18.7146 22.078 18.695 25.3717 18.6852 29.3936C18.6706 36.4356 18.6657 36.719 18.5777 36.8852C18.4506 37.1246 18.3529 37.2224 18.1476 37.3299C17.9912 37.4081 17.8544 37.4228 17.1163 37.4228H16.2708L16.0459 37.281C15.8993 37.1882 15.7918 37.066 15.7185 36.9243L15.6158 36.7044L15.6256 26.9062L15.6403 17.1032L15.7918 16.9126C15.87 16.8099 16.0362 16.678 16.1535 16.6145C16.3539 16.5167 16.4321 16.507 17.2776 16.507C18.2747 16.507 18.4409 16.5461 18.6999 16.8295C18.7732 16.9077 21.4858 20.9931 24.7312 25.9142C27.9765 30.8353 32.4145 37.5547 34.5943 40.8533L38.5533 46.8495L38.7537 46.7176C40.5279 45.5643 42.4047 43.9223 43.8905 42.2119C47.0528 38.5809 49.0909 34.1534 49.7752 29.4327C49.9756 28.0595 50 27.6539 50 25.792C50 23.9301 49.9756 23.5245 49.7752 22.1513C48.4164 12.7636 41.7351 4.87621 32.6735 1.95387C31.0753 1.43586 29.3744 1.07912 27.4682 0.864094C26.999 0.815225 23.7683 0.76147 23.3627 0.800565ZM33.5973 15.9205C33.8319 16.0378 34.0225 16.2626 34.0909 16.4972C34.13 16.6242 34.1398 19.3413 34.13 25.4646L34.1153 34.2512L32.566 31.8762L31.0117 29.5011V23.114C31.0117 18.9846 31.0313 16.6633 31.0606 16.5509C31.1388 16.2773 31.3099 16.0623 31.5445 15.9352C31.7449 15.8326 31.8182 15.8228 32.5855 15.8228C33.3089 15.8228 33.436 15.8326 33.5973 15.9205Z" fill="black"/>
<path d="M83.2955 18.2417V32.7871H81.5909L73.6648 21.3667H73.5227V32.7871H71.7614V18.2417H73.4659L81.4205 29.6905H81.5625V18.2417H83.2955ZM91.1665 33.0144C90.1154 33.0144 89.2087 32.7824 88.4464 32.3184C87.6888 31.8496 87.104 31.1962 86.6921 30.3581C86.2849 29.5153 86.0813 28.5352 86.0813 27.4178C86.0813 26.3004 86.2849 25.3155 86.6921 24.4632C87.104 23.6062 87.677 22.9386 88.4109 22.4604C89.1495 21.9775 90.0112 21.736 90.9961 21.736C91.5643 21.736 92.1254 21.8307 92.6793 22.0201C93.2333 22.2095 93.7376 22.5172 94.1921 22.9434C94.6467 23.3648 95.0089 23.9235 95.2788 24.6195C95.5487 25.3155 95.6836 26.1725 95.6836 27.1905V27.9007H87.2745V26.4519H93.979C93.979 25.8364 93.8559 25.2871 93.6097 24.8042C93.3683 24.3212 93.0226 23.94 92.5728 23.6607C92.1277 23.3813 91.6022 23.2417 90.9961 23.2417C90.3285 23.2417 89.7508 23.4074 89.2631 23.7388C88.7802 24.0655 88.4085 24.4917 88.1481 25.0172C87.8877 25.5428 87.7575 26.1062 87.7575 26.7076V27.6735C87.7575 28.4973 87.8995 29.1957 88.1836 29.7686C88.4724 30.3368 88.8725 30.7701 89.3839 31.0684C89.8952 31.3619 90.4895 31.5087 91.1665 31.5087C91.6069 31.5087 92.0046 31.4471 92.3597 31.324C92.7196 31.1962 93.0297 31.0068 93.2901 30.7559C93.5505 30.5002 93.7518 30.1829 93.8938 29.8042L95.5131 30.2587C95.3427 30.8079 95.0562 31.2909 94.6538 31.7076C94.2513 32.1195 93.7541 32.4415 93.1623 32.6735C92.5704 32.9007 91.9052 33.0144 91.1665 33.0144ZM99.1903 21.878L101.804 26.3382L104.418 21.878H106.349L102.827 27.3326L106.349 32.7871H104.418L101.804 28.5542L99.1903 32.7871H97.2585L100.724 27.3326L97.2585 21.878H99.1903ZM113.485 21.878V23.2985H107.832V21.878H113.485ZM109.48 19.2644H111.156V29.6621C111.156 30.1356 111.225 30.4907 111.362 30.7275C111.504 30.9595 111.684 31.1157 111.902 31.1962C112.124 31.272 112.359 31.3098 112.605 31.3098C112.789 31.3098 112.941 31.3004 113.059 31.2814C113.178 31.2578 113.272 31.2388 113.343 31.2246L113.684 32.7303C113.571 32.7729 113.412 32.8155 113.208 32.8581C113.005 32.9055 112.747 32.9292 112.434 32.9292C111.961 32.9292 111.497 32.8274 111.042 32.6238C110.592 32.4202 110.218 32.11 109.92 31.6934C109.627 31.2767 109.48 30.7511 109.48 30.1167V19.2644ZM117.228 32.9007C116.878 32.9007 116.577 32.7753 116.326 32.5243C116.075 32.2734 115.95 31.9727 115.95 31.6223C115.95 31.272 116.075 30.9713 116.326 30.7203C116.577 30.4694 116.878 30.3439 117.228 30.3439C117.579 30.3439 117.879 30.4694 118.13 30.7203C118.381 30.9713 118.507 31.272 118.507 31.6223C118.507 31.8543 118.448 32.0674 118.329 32.2615C118.216 32.4557 118.062 32.6119 117.868 32.7303C117.678 32.8439 117.465 32.9007 117.228 32.9007ZM121.515 21.878H123.191V33.5826C123.191 34.2549 123.075 34.8373 122.843 35.3297C122.615 35.8221 122.27 36.2033 121.806 36.4732C121.346 36.7431 120.766 36.878 120.066 36.878C120.009 36.878 119.952 36.878 119.895 36.878C119.838 36.878 119.782 36.878 119.725 36.878V35.3155C119.782 35.3155 119.834 35.3155 119.881 35.3155C119.928 35.3155 119.98 35.3155 120.037 35.3155C120.549 35.3155 120.923 35.164 121.159 34.861C121.396 34.5627 121.515 34.1365 121.515 33.5826V21.878ZM122.338 20.0598C122.012 20.0598 121.73 19.9486 121.493 19.726C121.261 19.5035 121.145 19.236 121.145 18.9235C121.145 18.611 121.261 18.3435 121.493 18.1209C121.73 17.8984 122.012 17.7871 122.338 17.7871C122.665 17.7871 122.944 17.8984 123.176 18.1209C123.413 18.3435 123.532 18.611 123.532 18.9235C123.532 19.236 123.413 19.5035 123.176 19.726C122.944 19.9486 122.665 20.0598 122.338 20.0598ZM133.988 24.3212L132.482 24.7473C132.388 24.4964 132.248 24.2525 132.063 24.0158C131.883 23.7743 131.637 23.5755 131.325 23.4192C131.012 23.263 130.612 23.1848 130.124 23.1848C129.457 23.1848 128.9 23.3387 128.455 23.6465C128.015 23.9495 127.795 24.3354 127.795 24.8042C127.795 25.2208 127.946 25.5499 128.249 25.7914C128.552 26.0328 129.026 26.2341 129.67 26.3951L131.289 26.7928C132.264 27.0295 132.991 27.3917 133.469 27.8794C133.948 28.3624 134.187 28.985 134.187 29.7473C134.187 30.3723 134.007 30.931 133.647 31.4235C133.292 31.9159 132.795 32.3042 132.156 32.5882C131.516 32.8723 130.773 33.0144 129.925 33.0144C128.813 33.0144 127.892 32.7729 127.163 32.29C126.433 31.807 125.972 31.1015 125.778 30.1735L127.369 29.7757C127.52 30.3629 127.807 30.8032 128.228 31.0968C128.654 31.3903 129.21 31.5371 129.897 31.5371C130.678 31.5371 131.299 31.3714 131.758 31.04C132.222 30.7038 132.454 30.3013 132.454 29.8326C132.454 29.4538 132.321 29.1365 132.056 28.8809C131.791 28.6204 131.384 28.4263 130.835 28.2985L129.016 27.8723C128.017 27.6356 127.283 27.2686 126.815 26.7715C126.351 26.2696 126.119 25.6422 126.119 24.8894C126.119 24.2739 126.291 23.7293 126.637 23.2559C126.987 22.7824 127.463 22.4107 128.065 22.1408C128.671 21.8709 129.357 21.736 130.124 21.736C131.204 21.736 132.051 21.9727 132.667 22.4462C133.287 22.9197 133.728 23.5447 133.988 24.3212Z" fill="white"/>
</svg>
