<svg width="41" height="41" viewBox="0 0 41 41" fill="none" xmlns="http://www.w3.org/2000/svg">
<path d="M0 20.5C0 9.17816 9.17816 0 20.5 0C31.8218 0 41 9.17816 41 20.5C41 31.8218 31.8218 41 20.5 41C9.17816 41 0 31.8218 0 20.5Z" fill="#283A8F"/>
<path d="M12.6084 19.4984H25.9959L21.1396 14.6422C20.7459 14.2484 20.7459 13.6578 21.1396 13.2641C21.5334 12.8703 22.124 12.8703 22.5178 13.2641L29.0803 19.8266C29.474 20.2203 29.474 20.8109 29.0803 21.2047L22.5178 27.7673C22.3209 27.9641 22.0584 28.0298 21.7959 28.0298C21.5334 28.0298 21.2709 27.9641 21.074 27.7673C20.6803 27.3735 20.6803 26.7829 21.074 26.3891L25.9303 21.5328H12.6084C12.0834 21.5328 11.624 21.0734 11.624 20.5484C11.624 20.0234 12.0834 19.4984 12.6084 19.4984Z" fill="#F5FAFE"/>
</svg>
