<svg width="619" height="235" viewBox="0 0 619 235" fill="none" xmlns="http://www.w3.org/2000/svg">
<path opacity="0.5" d="M82.2564 4.6161C93.5398 4.6161 104.395 6.50857 114.821 10.2935C125.319 14.0785 134.674 20.113 142.887 28.397C151.171 36.6811 157.706 47.6789 162.49 61.3904C167.346 75.0305 169.81 91.7772 169.882 111.63C169.882 130.269 167.775 146.909 163.561 161.549C159.419 176.117 153.456 188.508 145.672 198.72C137.888 208.932 128.497 216.716 117.499 222.072C106.502 227.357 94.2183 229.999 80.6496 229.999C66.0096 229.999 53.0837 227.179 41.8716 221.537C30.6596 215.824 21.6257 208.075 14.7699 198.291C7.98558 188.436 3.87926 177.367 2.45098 165.084H48.1918C49.9771 173.082 53.7264 179.295 59.4395 183.723C65.1527 188.079 72.2227 190.257 80.6496 190.257C94.9324 190.257 105.787 184.044 113.214 171.618C120.642 159.121 124.391 142.017 124.462 120.307H122.962C119.677 126.734 115.25 132.269 109.679 136.911C104.109 141.481 97.7176 145.016 90.5047 147.516C83.3633 150.015 75.7577 151.265 67.6879 151.265C54.7619 151.265 43.2285 148.23 33.0877 142.16C22.9469 136.09 14.9485 127.734 9.0925 117.094C3.23653 106.453 0.308551 94.3124 0.308551 80.6722C0.237136 65.9609 3.62931 52.8564 10.4851 41.3587C17.3408 29.861 26.9104 20.8628 39.1936 14.3641C51.5483 7.79403 65.9025 4.54468 82.2564 4.6161ZM82.5777 41.0373C75.3649 41.0373 68.9376 42.7513 63.2959 46.1792C57.7256 49.6071 53.2979 54.2133 50.0129 59.9978C46.7992 65.7824 45.2281 72.2454 45.2995 79.3868C45.2995 86.5996 46.8706 93.0983 50.0129 98.8829C53.2265 104.596 57.5828 109.167 63.0817 112.594C68.652 115.951 75.0078 117.629 82.1493 117.629C87.5053 117.629 92.4686 116.629 97.0391 114.63C101.61 112.63 105.573 109.881 108.93 106.381C112.357 102.811 115.036 98.7043 116.964 94.0624C118.892 89.4205 119.856 84.4929 119.856 79.2797C119.785 72.3525 118.142 65.9966 114.928 60.2121C111.715 54.4275 107.287 49.7856 101.645 46.2863C96.0036 42.787 89.6477 41.0373 82.5777 41.0373ZM283.859 229.999C267.362 229.999 252.686 227.321 239.832 221.965C227.049 216.538 217.015 209.146 209.731 199.791C202.447 190.436 198.804 179.831 198.804 167.976C198.804 158.835 200.875 150.444 205.017 142.803C209.231 135.09 214.944 128.698 222.157 123.628C229.37 118.486 237.439 115.201 246.366 113.773V112.273C234.654 109.916 225.156 104.239 217.872 95.2408C210.588 86.1711 206.946 75.6375 206.946 63.64C206.946 52.2851 210.266 42.18 216.908 33.3246C223.549 24.3978 232.655 17.3992 244.224 12.3288C255.864 7.18701 269.076 4.6161 283.859 4.6161C298.641 4.6161 311.817 7.18701 323.387 12.3288C335.027 17.4707 344.168 24.505 350.81 33.4317C357.451 42.2871 360.808 52.3565 360.879 63.64C360.808 75.709 357.094 86.2426 349.738 95.2408C342.383 104.239 332.956 109.916 321.458 112.273V113.773C330.242 115.201 338.205 118.486 345.346 123.628C352.559 128.698 358.272 135.09 362.486 142.803C366.771 150.444 368.949 158.835 369.02 167.976C368.949 179.831 365.271 190.436 357.987 199.791C350.702 209.146 340.633 216.538 327.778 221.965C314.995 227.321 300.355 229.999 283.859 229.999ZM283.859 195.935C291.214 195.935 297.642 194.614 303.141 191.971C308.639 189.258 312.924 185.544 315.995 180.831C319.137 176.046 320.708 170.547 320.708 164.334C320.708 157.978 319.102 152.372 315.888 147.516C312.674 142.588 308.318 138.732 302.819 135.947C297.32 133.09 291 131.662 283.859 131.662C276.789 131.662 270.469 133.09 264.898 135.947C259.328 138.732 254.936 142.588 251.722 147.516C248.58 152.372 247.009 157.978 247.009 164.334C247.009 170.547 248.544 176.046 251.615 180.831C254.686 185.544 259.007 189.258 264.577 191.971C270.147 194.614 276.574 195.935 283.859 195.935ZM283.859 97.9188C290 97.9188 295.464 96.669 300.248 94.1695C305.033 91.67 308.782 88.2064 311.496 83.7788C314.21 79.3511 315.567 74.245 315.567 68.4604C315.567 62.7473 314.21 57.7483 311.496 53.4634C308.782 49.1072 305.069 45.715 300.355 43.2869C295.642 40.7874 290.143 39.5377 283.859 39.5377C277.646 39.5377 272.147 40.7874 267.362 43.2869C262.577 45.715 258.828 49.1072 256.114 53.4634C253.472 57.7483 252.151 62.7473 252.151 68.4604C252.151 74.245 253.508 79.3511 256.221 83.7788C258.935 88.2064 262.684 91.67 267.469 94.1695C272.254 96.669 277.717 97.9188 283.859 97.9188ZM521.534 185.865V174.296C521.534 165.512 523.391 157.443 527.105 150.087C530.889 142.66 536.353 136.732 543.494 132.305C550.707 127.806 559.491 125.556 569.846 125.556C580.344 125.556 589.163 127.77 596.305 132.198C603.518 136.625 608.945 142.553 612.587 149.98C616.301 157.335 618.158 165.441 618.158 174.296V185.865C618.158 194.649 616.301 202.755 612.587 210.182C608.874 217.538 603.411 223.429 596.198 227.857C588.985 232.356 580.201 234.606 569.846 234.606C559.348 234.606 550.528 232.356 543.387 227.857C536.246 223.429 530.818 217.538 527.105 210.182C523.391 202.755 521.534 194.649 521.534 185.865ZM552.707 174.296V185.865C552.707 190.936 553.921 195.721 556.349 200.22C558.848 204.719 563.347 206.968 569.846 206.968C576.345 206.968 580.772 204.754 583.129 200.327C585.557 195.899 586.771 191.079 586.771 185.865V174.296C586.771 169.083 585.628 164.227 583.343 159.728C581.058 155.229 576.559 152.979 569.846 152.979C563.419 152.979 558.955 155.229 556.456 159.728C553.956 164.227 552.707 169.083 552.707 174.296ZM408.95 60.3192V48.7501C408.95 39.8947 410.842 31.7892 414.627 24.4335C418.412 17.0065 423.875 11.0791 431.017 6.65141C438.23 2.22372 446.942 0.00988084 457.154 0.00988084C467.724 0.00988084 476.579 2.22372 483.72 6.65141C490.862 11.0791 496.289 17.0065 500.003 24.4335C503.716 31.7892 505.573 39.8947 505.573 48.7501V60.3192C505.573 69.1746 503.681 77.2801 499.896 84.6357C496.182 91.9914 490.719 97.8831 483.506 102.311C476.365 106.667 467.581 108.845 457.154 108.845C446.728 108.845 437.908 106.631 430.695 102.204C423.554 97.7045 418.126 91.8129 414.413 84.5286C410.771 77.1729 408.95 69.1031 408.95 60.3192ZM440.336 48.7501V60.3192C440.336 65.5324 441.55 70.3529 443.978 74.7806C446.478 79.2083 450.87 81.4221 457.154 81.4221C463.724 81.4221 468.188 79.2083 470.544 74.7806C472.973 70.3529 474.187 65.5324 474.187 60.3192V48.7501C474.187 43.5369 473.044 38.6807 470.759 34.1816C468.473 29.6825 463.939 27.4329 457.154 27.4329C450.798 27.4329 446.406 29.7182 443.978 34.2887C441.55 38.8592 440.336 43.6797 440.336 48.7501ZM423.09 227L573.917 7.61549H601.982L451.155 227H423.09Z" fill="url(#paint0_linear_7072_878)"/>
<defs>
<linearGradient id="paint0_linear_7072_878" x1="-1233.16" y1="95.102" x2="481.614" y2="-346.902" gradientUnits="userSpaceOnUse">
<stop stop-color="#C0CCFF"/>
<stop offset="1" stop-color="#09090B"/>
</linearGradient>
</defs>
</svg>
