<svg width="81" height="30" viewBox="0 0 81 30" fill="none" xmlns="http://www.w3.org/2000/svg">
<path d="M35.0525 29.0246H43.7732C50.3308 29.0246 54.0422 25.9279 54.0422 21.0781V20.782C54.0422 17.2072 51.9247 15.3629 49.3517 14.3156C51.4693 13.2454 53.3136 11.31 53.3136 8.05402V7.84907C53.3136 5.73151 52.6533 4.13766 51.4693 2.95365C49.7388 1.24595 46.9837 0.517334 43.7732 0.517334H35.0525V29.0246ZM46.7333 9.23797C46.7333 11.0368 45.4809 12.0842 43.4317 12.0842H41.6101V6.39182H43.5228C45.5265 6.39182 46.7333 7.32536 46.7333 9.19244V9.23797ZM47.3481 20.19V20.2356C47.3481 22.0344 46.0046 23.1728 43.8871 23.1728H41.6101V17.2528H43.8415C46.0501 17.2528 47.3481 18.4368 47.3481 20.19ZM55.1124 29.0246H61.7839V0.517334H55.1124V29.0246ZM63.1045 29.0246H80.3637V22.9451H71.2559L80.3637 5.73151V0.517334H63.4005V6.57398H72.2352L63.1045 23.7876V29.0246Z" fill="white"/>
<path d="M0.557373 29.0246H7.06944V14.8393L14.3557 29.0018H20.3896V0.517334H13.8775V14.0423L6.91005 0.517334H0.557373V29.0246ZM25.5354 29.0246C28.0173 29.0246 30.021 28.6603 31.4555 27.2258C33.0039 25.6775 33.778 23.4688 33.778 20.4178V0.517334H27.0838V19.598C27.0838 21.7611 26.1047 22.6947 24.7613 22.6947H21.5053V29.0246H25.5354Z" fill="white"/>
</svg>
