<svg width="76" height="75" viewBox="0 0 76 75" fill="none" xmlns="http://www.w3.org/2000/svg">
<path d="M54.0605 61.1738V65.1359H21.3703V51.1467H15.1094V69.5706C15.1094 72.5707 17.5387 75 20.5388 75H54.8757C57.8756 75 60.305 72.5707 60.305 69.5706V61.1738H54.0605ZM39.892 71.6902H35.5387C34.6256 71.6902 33.9082 70.9565 33.9082 70.0597C33.9082 69.163 34.6256 68.4293 35.5387 68.4293H39.892C40.7887 68.4293 41.5224 69.163 41.5224 70.0597C41.5224 70.9565 40.7887 71.6902 39.892 71.6902ZM54.8757 0H20.5388C17.5387 0 15.1094 2.42933 15.1094 5.42938V23.8533H21.3703V9.86411H54.0605V13.8261H60.305V5.42938C60.305 2.42933 57.8756 0 54.8757 0ZM41.0659 6.66842H34.3485C33.4518 6.66842 32.7181 5.93481 32.7181 5.03799C32.7181 4.14127 33.4518 3.40755 34.3485 3.40755H41.0659C41.9626 3.40755 42.6963 4.14127 42.6963 5.03799C42.6963 5.93481 41.9626 6.66842 41.0659 6.66842Z" fill="#FF5D00"/>
<path d="M27.6956 27.1152H3.72833C1.95111 27.1152 0.5 28.5662 0.5 30.3435V44.6587C0.5 46.4358 1.95111 47.887 3.72833 47.887H27.6956C29.4729 47.887 30.924 46.4358 30.924 44.6587V30.3435C30.924 28.5662 29.4729 27.1152 27.6956 27.1152ZM24.0924 42.8326H7.33153C6.41849 42.8326 5.70109 42.1153 5.70109 41.2021C5.70109 40.3054 6.41849 39.5717 7.33153 39.5717H24.0924C25.0055 39.5717 25.7229 40.3054 25.7229 41.2021C25.7229 42.1153 25.0055 42.8326 24.0924 42.8326ZM24.0924 35.4304H7.33153C6.41849 35.4304 5.70109 34.6967 5.70109 33.8C5.70109 32.8869 6.41849 32.1695 7.33153 32.1695H24.0924C25.0055 32.1695 25.7229 32.8869 25.7229 33.8C25.7229 34.6967 25.0055 35.4304 24.0924 35.4304Z" fill="#FF5D00"/>
<path d="M72.2933 17.0879H48.3259C46.5487 17.0879 45.0977 18.539 45.0977 20.3161V54.6857C45.0977 56.4629 46.5487 57.9139 48.3259 57.9139H72.2933C74.0704 57.9139 75.5052 56.4629 75.5052 54.6857V20.3161C75.5052 18.539 74.0704 17.0879 72.2933 17.0879ZM60.3095 23.9031C62.1846 23.9031 63.7009 25.4194 63.7009 27.2781C63.7009 29.1531 62.1846 30.6694 60.3095 30.6694C58.4346 30.6694 56.9183 29.1531 56.9183 27.2781C56.9183 25.4194 58.4346 23.9031 60.3095 23.9031ZM51.4563 40.9575C53.0379 37.6476 56.4129 35.3651 60.3095 35.3651C64.2063 35.3651 67.5813 37.6476 69.1629 40.9575C69.9455 42.5879 68.6575 44.4792 66.8313 44.4792H53.7716C51.9617 44.4792 50.6737 42.5879 51.4563 40.9575ZM68.3802 52.7292H52.239C51.3421 52.7292 50.6085 51.9956 50.6085 51.0987C50.6085 50.202 51.3421 49.4683 52.239 49.4683H68.3802C69.2769 49.4683 70.0106 50.202 70.0106 51.0987C70.0106 51.9956 69.2769 52.7292 68.3802 52.7292Z" fill="#FF5D00"/>
</svg>
