<svg width="50" height="49" viewBox="0 0 50 49" fill="none" xmlns="http://www.w3.org/2000/svg">
<path d="M48.8625 41.3094C47.2501 33.1578 45.6143 25.0111 43.9836 16.8628C43.2608 13.252 41.5583 11.7557 37.8778 11.7473C37.7176 11.7473 37.5707 11.7406 37.4388 11.7256H33.9186C33.9186 11.5953 33.9186 11.4634 33.9186 11.3331C33.9202 10.5682 33.9236 9.79832 33.8284 9.04177C33.8234 8.99 33.8151 8.93822 33.8084 8.88645C33.6982 8.11988 33.4812 7.37837 33.1975 6.67192C32.5966 5.1772 31.6852 3.83612 30.5202 2.87248C29.1731 1.76021 27.5257 1.18236 25.8716 1.03706C23.8285 0.85669 21.7237 1.33099 19.9694 2.5418C18.2151 3.75428 16.8414 5.72832 16.3507 8.00799C16.0903 9.2188 16.0769 10.478 16.0786 11.7273H12.6719C12.5283 11.7506 12.3631 11.764 12.1711 11.764C8.23191 11.7724 6.67292 13.2437 5.90511 17.135C4.34779 25.0378 2.78546 32.9423 1.19308 40.8418C0.308428 45.2225 2.50337 47.9831 6.96335 47.9915C12.9473 48.0015 18.9329 47.9931 24.9185 47.9915C31.091 47.9898 37.2652 48.0182 43.4378 47.9798C47.2735 47.9547 49.6053 45.0588 48.8625 41.3094ZM18.155 9.09187C18.2852 8.23011 18.6141 7.41845 19.033 6.68695C19.8359 5.27907 21.0176 4.10667 22.4298 3.65241C23.256 3.38687 24.1239 3.37351 24.9819 3.37351C25.8482 3.37351 26.7245 3.38353 27.5591 3.65074C28.9745 4.105 30.1613 5.27573 30.9642 6.68528C31.3831 7.41845 31.7119 8.23178 31.8421 9.09688C31.9273 9.6597 31.9273 10.2359 31.9273 10.8087C31.9273 11.1143 31.9273 11.4216 31.9273 11.7273H18.0699C18.0699 11.42 18.0699 11.1127 18.0699 10.8054C18.0699 10.2325 18.0699 9.65803 18.1567 9.09354L18.155 9.09187ZM42.7951 46.1009C30.8206 46.1043 18.8461 46.1059 6.87322 46.0926C3.75023 46.0892 2.37151 44.4125 2.97908 41.3412C4.56811 33.3081 6.17551 25.2783 7.7996 17.2502C8.28032 14.8704 9.39865 13.713 11.2247 13.5827C11.4534 13.566 11.6921 13.566 11.9424 13.5827H16.0853C16.0886 14.7718 16.0903 15.9593 16.0936 17.1484C16.0936 17.474 16.0936 17.798 16.0953 18.1237H18.0716C18.0716 16.6106 18.0716 15.0958 18.0699 13.5827H31.9256C31.9256 15.0958 31.9256 16.6106 31.9239 18.1237H33.9019C33.9052 16.6106 33.9102 15.0958 33.9136 13.5827H37.1701C37.2936 13.5577 37.4388 13.5493 37.6091 13.5593C37.7276 13.566 37.8478 13.5744 37.9663 13.5827C39.5269 13.6863 41.0642 13.9117 41.6501 15.6854C42.1809 17.292 42.493 18.9754 42.8285 20.6405C44.1922 27.4344 45.5376 34.2333 46.8712 41.0339C47.5506 44.4943 46.2519 46.0993 42.7935 46.1009H42.7951Z" fill="#1B275F"/>
<path d="M33.0229 28.1172C32.9899 29.9036 32.4179 31.2808 31.4686 32.5205C29.7508 34.7595 27.5357 36.4066 25.1503 37.85C24.9938 37.944 24.8826 37.9562 24.7191 37.857C22.1442 36.2691 19.7205 34.5088 18.0097 31.9459C17.0517 30.5095 16.6083 28.9303 16.9856 27.2049C17.542 24.6611 20.7098 22.4029 23.8429 24.8056C24.2341 25.1051 24.5748 25.6953 24.9591 25.7145C25.2981 25.7319 25.6458 25.1068 26.0301 24.8196C27.3984 23.7923 28.8849 23.404 30.4897 24.2119C32.1571 25.0529 32.9621 26.4684 33.0247 28.1155L33.0229 28.1172Z" fill="#1B275F"/>
</svg>
