<svg width="32" height="29" viewBox="0 0 32 29" fill="none" xmlns="http://www.w3.org/2000/svg">
<path d="M6.37656 23.9121H14.3473V25.5063H12.7531C11.7966 25.5063 11.159 26.1439 11.159 27.1004C11.159 28.0569 11.7966 28.6945 12.7531 28.6945H19.1297C20.0862 28.6945 20.7238 28.0569 20.7238 27.1004C20.7238 26.1439 20.0862 25.5063 19.1297 25.5063H17.5355V23.9121H25.5063C29.0134 23.9121 31.8828 21.0427 31.8828 17.5355V6.37656C31.8828 2.86945 29.0134 0 25.5063 0H6.37656C2.86945 0 0 2.86945 0 6.37656V17.5355C0 21.0427 2.86945 23.9121 6.37656 23.9121ZM25.5063 20.7238H6.37656C5.26066 20.7238 4.14477 20.0862 3.66652 19.1297H28.2163C27.738 20.0862 26.6221 20.7238 25.5063 20.7238ZM6.37656 3.18828H25.5063C27.2598 3.18828 28.6945 4.62301 28.6945 6.37656V15.9414H3.18828V6.37656C3.18828 4.62301 4.62301 3.18828 6.37656 3.18828Z" fill="#F5FAFE"/>
<path d="M11.94 14.2568C12.2588 14.5756 12.5776 14.735 13.0559 14.735C13.5341 14.735 13.8529 14.5756 14.1718 14.2568C14.8094 13.6191 14.8094 12.6626 14.1718 12.025L12.0994 9.95259L14.1718 7.8802C14.8094 7.24255 14.8094 6.28606 14.1718 5.64841C13.5341 5.01075 12.5776 5.01075 11.94 5.64841L8.75168 8.83669C8.11402 9.47435 8.11402 10.4308 8.75168 11.0685L11.94 14.2568ZM18.3165 14.2568C18.6354 14.5756 19.1136 14.735 19.4324 14.735C19.7512 14.735 20.2295 14.5756 20.5483 14.2568L23.7366 11.0685C24.3743 10.4308 24.3743 9.47435 23.7366 8.83669L20.5483 5.64841C19.9107 5.01075 18.9542 5.01075 18.3165 5.64841C17.6789 6.28606 17.6789 7.24255 18.3165 7.8802L20.3889 9.95259L18.3165 12.025C17.6789 12.6626 17.6789 13.6191 18.3165 14.2568Z" fill="#F5FAFE"/>
</svg>
