<svg width="50" height="50" viewBox="0 0 50 50" fill="none" xmlns="http://www.w3.org/2000/svg">
<path d="M44.5312 3.90625H5.46875C3.3125 3.90625 1.5625 5.65625 1.5625 7.8125V34.375C1.5625 36.5312 3.3125 38.2812 5.46875 38.2812H18.1328L15.875 42.6953C15.5078 43.4219 15.5391 44.2656 15.9609 44.9609C16.3984 45.6719 17.1563 46.0938 18 46.0938H31.9922C32.8359 46.0938 33.5938 45.6719 34.0312 44.9609C34.4531 44.2656 34.4922 43.4219 34.1172 42.6953L31.8594 38.2812H44.5234C46.6797 38.2812 48.4297 36.5312 48.4297 34.375V7.8125C48.4297 5.65625 46.6797 3.90625 44.5234 3.90625H44.5312ZM46.875 7.8125V32.0312H28.9062V5.46875H44.5312C45.8203 5.46875 46.875 6.52344 46.875 7.8125ZM5.46875 5.46875H27.3438V32.0312H3.125V7.8125C3.125 6.52344 4.17969 5.46875 5.46875 5.46875ZM32.7266 43.4062C32.8984 43.75 32.7656 44.0391 32.6953 44.1484C32.625 44.2656 32.4141 44.5312 31.9922 44.5312H18C17.5781 44.5312 17.3672 44.2578 17.2969 44.1484C17.2344 44.0391 17.0938 43.75 17.2656 43.4062L19.8828 38.2812H30.1016L32.7188 43.4062H32.7266ZM46.875 34.375C46.875 35.6641 45.8203 36.7188 44.5312 36.7188H5.46875C4.17969 36.7188 3.125 35.6641 3.125 34.375V33.5938H46.875V34.375Z" fill="#1B275F"/>
<path d="M7.03125 18.75H24.2188C25.0781 18.75 25.7812 18.0469 25.7812 17.1875V9.375C25.7812 8.51562 25.0781 7.8125 24.2188 7.8125H7.03125C6.17188 7.8125 5.46875 8.51562 5.46875 9.375V17.1875C5.46875 18.0469 6.17188 18.75 7.03125 18.75ZM7.03125 9.375H24.2188V17.1875H7.03125V9.375Z" fill="#1B275F"/>
<path d="M7.03125 29.6875H13.2812C14.1406 29.6875 14.8438 28.9844 14.8438 28.125V21.875C14.8438 21.0156 14.1406 20.3125 13.2812 20.3125H7.03125C6.17188 20.3125 5.46875 21.0156 5.46875 21.875V28.125C5.46875 28.9844 6.17188 29.6875 7.03125 29.6875ZM7.03125 21.875H13.2812V28.125H7.03125V21.875Z" fill="#1B275F"/>
<path d="M24.2188 20.3125H17.9688C17.1094 20.3125 16.4062 21.0156 16.4062 21.875V28.125C16.4062 28.9844 17.1094 29.6875 17.9688 29.6875H24.2188C25.0781 29.6875 25.7812 28.9844 25.7812 28.125V21.875C25.7812 21.0156 25.0781 20.3125 24.2188 20.3125ZM17.9688 28.125V21.875H24.2188V28.125H17.9688Z" fill="#1B275F"/>
<path d="M43.75 28.125H32.0312C31.6016 28.125 31.25 28.4766 31.25 28.9062C31.25 29.3359 31.6016 29.6875 32.0312 29.6875H43.75C44.1797 29.6875 44.5312 29.3359 44.5312 28.9062C44.5312 28.4766 44.1797 28.125 43.75 28.125Z" fill="#1B275F"/>
<path d="M43.75 24.2188H32.0312C31.6016 24.2188 31.25 24.5703 31.25 25C31.25 25.4297 31.6016 25.7812 32.0312 25.7812H43.75C44.1797 25.7812 44.5312 25.4297 44.5312 25C44.5312 24.5703 44.1797 24.2188 43.75 24.2188Z" fill="#1B275F"/>
<path d="M43.75 20.3125H32.0312C31.6016 20.3125 31.25 20.6641 31.25 21.0938C31.25 21.5234 31.6016 21.875 32.0312 21.875H43.75C44.1797 21.875 44.5312 21.5234 44.5312 21.0938C44.5312 20.6641 44.1797 20.3125 43.75 20.3125Z" fill="#1B275F"/>
<path d="M40.9367 16.25C41.0773 16.3516 41.2414 16.4063 41.4054 16.4063C41.6398 16.4063 41.8742 16.2969 42.0304 16.0938L44.3742 12.9688C44.5851 12.6875 44.5851 12.3125 44.3742 12.0313L42.0304 8.90627C41.7726 8.56252 41.2804 8.49221 40.9367 8.75002C40.5929 9.00783 40.5226 9.50002 40.7804 9.84377L42.7726 12.5L40.7804 15.1563C40.5226 15.5 40.5929 15.9922 40.9367 16.25Z" fill="#1B275F"/>
<path d="M30.627 12.9688L32.9707 16.0938C33.127 16.2969 33.3613 16.4063 33.5957 16.4063C33.7598 16.4063 33.9238 16.3516 34.0645 16.25C34.4082 15.9922 34.4785 15.5 34.2207 15.1563L32.2285 12.5L34.2207 9.84377C34.4785 9.50002 34.4082 9.00783 34.0645 8.75002C33.7207 8.49221 33.2285 8.56252 32.9707 8.90627L30.627 12.0313C30.416 12.3125 30.416 12.6875 30.627 12.9688Z" fill="#1B275F"/>
<path d="M36.5304 16.3828C36.5929 16.3984 36.6554 16.4063 36.7179 16.4063C37.0695 16.4063 37.3898 16.1719 37.4757 15.8125L39.0382 9.5625C39.1398 9.14063 38.8898 8.71875 38.4679 8.61719C38.046 8.50782 37.6241 8.76563 37.5226 9.18751L35.9601 15.4375C35.8585 15.8594 36.1085 16.2813 36.5304 16.3828Z" fill="#1B275F"/>
</svg>
