<svg width="32" height="32" viewBox="0 0 32 32" fill="none" xmlns="http://www.w3.org/2000/svg">
<path d="M11.5726 17.0525L10.627 17.223C10.8584 15.0456 13.6623 9.92325 15.3156 7.11614C16.8506 9.65028 18.2073 12.2866 19.3759 15.0062C18.6022 15.2554 17.7954 15.5047 16.9556 15.7408L15.666 16.0949L15.0048 16.2589L14.6609 16.3507L14.3302 16.4294C13.4375 16.6459 12.5117 16.8492 11.5726 17.0525ZM32 10.8218V11.1497C32 11.1497 32 11.1891 32 11.1956V11.2874V11.3793V11.4776C31.9563 11.6302 31.9011 11.7793 31.8347 11.9236C31.7589 12.0884 31.6728 12.2484 31.5768 12.4024C31.471 12.5598 31.3519 12.7238 31.2197 12.8878C30.9211 13.2437 30.5938 13.5749 30.241 13.8781C29.3504 14.6385 28.3869 15.3107 27.3643 15.8851C26.6105 16.3179 25.7838 16.7574 24.8779 17.1968L23.8066 17.6428L23.7338 17.6756V17.8133C23.7018 19.6869 23.0362 21.4956 21.8438 22.9491C20.6514 24.4027 19.0013 25.4169 17.1582 25.8291C15.3151 26.2413 13.3858 26.0275 11.6798 25.2222C9.9738 24.4168 8.59 23.0665 7.75036 21.3878C7.32713 21.3878 6.89729 21.3878 6.42777 21.3878C5.88551 21.3878 5.33664 21.355 4.78115 21.3025C4.2094 21.2526 3.64163 21.165 3.08163 21.0402C2.78362 20.9722 2.48993 20.8868 2.20211 20.7844C1.89577 20.6761 1.60113 20.5377 1.32259 20.3712L1.09113 20.2203L0.859682 20.0433C0.698333 19.9054 0.554044 19.7491 0.429841 19.5776C0.287032 19.3776 0.177621 19.1562 0.105807 18.9217C0.0377727 18.7028 0.00213226 18.4753 0 18.2462V18.1019C0 18.1019 0 18.056 0 18.0232V17.9248C0 17.8527 0 17.8068 0 17.7543L0.0396776 17.6034C0.112937 17.4108 0.206009 17.2262 0.317421 17.0525C0.472708 16.7553 0.663666 16.4778 0.886134 16.2261C1.28164 15.7853 1.72522 15.3894 2.20872 15.0456C2.65331 14.7163 3.11462 14.4098 3.59082 14.1273C4.06034 13.8519 4.52986 13.5961 5.00599 13.3534C5.48212 13.1108 5.95826 12.8878 6.43439 12.6976L7.86939 12.0876H7.90246C7.51611 12.7993 7.16735 13.5305 6.85762 14.2782C6.50713 14.4553 6.15664 14.6455 5.81938 14.8422C5.38293 15.0915 4.9597 15.3473 4.5497 15.6227C4.14354 15.8918 3.75278 16.183 3.37921 16.495C3.02895 16.7828 2.70981 17.1059 2.42695 17.4591C2.36082 17.5444 2.30791 17.6231 2.25501 17.7018C2.2089 17.7749 2.16909 17.8517 2.13598 17.9314C2.10813 17.9926 2.086 18.0563 2.06985 18.1216C2.07353 18.1344 2.07353 18.1481 2.06985 18.1609V18.2199C2.06777 18.2374 2.06777 18.255 2.06985 18.2724C2.08263 18.294 2.09819 18.3138 2.11614 18.3314C2.14708 18.3666 2.18267 18.3975 2.22195 18.4233L2.30791 18.4823L2.40711 18.5348C2.5762 18.6198 2.75342 18.6879 2.93614 18.7381C3.15336 18.8013 3.37418 18.8517 3.59744 18.8889C4.06095 18.9682 4.52933 19.0164 4.99938 19.0332C5.48212 19.0332 5.97148 19.0332 6.46084 19.0332H6.57987H7.02294C6.96204 18.6294 6.9311 18.2216 6.93036 17.8133C6.93036 15.9769 8.1802 12.7304 10.7526 7.90318C12.5976 4.42709 14.4691 1.41011 14.4889 1.34452L15.3156 0L16.1752 1.37732C16.1752 1.41011 18.0665 4.42709 19.9116 7.93598C21.2198 10.279 22.3259 12.7275 23.218 15.2554L23.4627 15.1571L24.3356 14.8029C24.9969 14.5274 25.6053 14.2454 26.1674 13.9699C26.7295 13.6945 27.2122 13.419 27.6553 13.1501C28.0557 12.9128 28.44 12.6499 28.806 12.3631C29.0852 12.1534 29.3443 11.9185 29.5797 11.6613C29.664 11.5693 29.7435 11.473 29.8177 11.3727C29.8693 11.2995 29.9157 11.2228 29.9566 11.1432C29.9853 11.0928 30.0096 11.0402 30.0293 10.9858V10.8808C30.0407 10.8423 30.0407 10.8013 30.0293 10.7628C29.9989 10.7135 29.961 10.6693 29.9169 10.6316C29.8422 10.5638 29.7601 10.5045 29.6722 10.4545C29.3817 10.2977 29.0731 10.1766 28.753 10.0938C28.304 9.97259 27.8464 9.8849 27.3842 9.83143C26.8684 9.7724 26.293 9.72649 25.6714 9.71337C24.3594 9.68583 23.047 9.74719 21.7433 9.89701C21.4987 9.49693 21.2408 9.08374 20.963 8.65743L21.287 8.60496C22.0806 8.48034 22.8411 8.3754 23.5751 8.30326C24.3092 8.23111 25.0035 8.17209 25.6648 8.15241C26.8406 8.08904 28.0198 8.16833 29.1763 8.38852C29.6564 8.4831 30.1214 8.64196 30.5584 8.86075C30.7599 8.96386 30.9505 9.08691 31.1271 9.22803C31.2951 9.36494 31.4461 9.52127 31.5768 9.6937C31.6883 9.84527 31.7795 10.0106 31.8479 10.1856C31.897 10.3155 31.9346 10.4493 31.9603 10.5857C31.9603 10.6447 31.9603 10.6906 31.9603 10.7365V10.9202L32 10.8218ZM8.90763 17.8133C8.90805 18.1651 8.93902 18.5162 9.00021 18.8627L9.37714 18.8168C9.77392 18.7709 10.1641 18.7118 10.5542 18.6528C11.123 18.561 11.6917 18.4626 12.2538 18.3577C13.1928 18.174 14.1186 17.9773 15.018 17.7543L15.3486 17.6756L15.6925 17.5903L16.3538 17.4198L17.6764 17.0656C18.794 16.7508 19.852 16.4098 20.8638 16.0818L21.3862 15.9047C20.3282 12.527 17.2796 7.03088 15.3552 3.80402C12.968 7.75889 8.90763 15.1308 8.90763 17.8133ZM21.6904 18.502C21.1548 18.6987 20.6059 18.8955 20.0372 19.0791C19.4685 19.2628 18.9527 19.4267 18.384 19.5907C17.9409 19.7219 17.4912 19.8399 17.0283 19.958L16.6844 20.0498L16.334 20.1351L15.9901 20.2138L15.633 20.299L13.9731 20.6467C13.5565 20.7254 13.1399 20.8041 12.7167 20.8696C11.8173 21.0205 10.8915 21.1451 9.95908 21.2369C10.6872 22.3172 11.7306 23.1513 12.9496 23.6277C14.1686 24.104 15.5052 24.2 16.7806 23.9026C18.0561 23.6053 19.2096 22.9288 20.087 21.9637C20.9644 20.9986 21.5238 19.7909 21.6904 18.502Z" fill="#F5FAFE"/>
</svg>
