<svg width="141" height="51" viewBox="0 0 141 51" fill="none" xmlns="http://www.w3.org/2000/svg">
<g clip-path="url(#clip0_5224_19472)">
<g clip-path="url(#clip1_5224_19472)">
<path d="M44.34 11.866L27.0309 1.27835C25.9393 0.623363 24.518 0.623363 23.4177 1.27835L5.92376 11.866C4.79722 12.5487 4 13.8318 4 15.2042V36.3514C4 37.7238 4.81802 39.0073 5.94456 39.6937L10.5665 42.4592C12.7756 43.6054 13.5564 43.6054 14.5616 43.6054C17.8325 43.6054 19.7009 41.5218 19.7009 37.8876V17.01C19.7009 16.7151 19.5553 16.2764 19.2805 16.2764H17.0734C16.7939 16.2764 16.1682 16.7151 16.1682 17.0095V37.8872C16.1682 39.4981 14.785 41.1013 12.1998 39.7396L7.42398 36.8398C7.25755 36.7447 7.14019 36.5532 7.14019 36.3514V15.2042C7.14019 15.0049 7.35804 14.8048 7.52565 14.7026L24.9631 4.13315C25.126 4.03598 25.3654 4.03598 25.5279 4.13315L42.7527 14.7001C42.9175 14.8048 42.8594 14.9987 42.8594 15.2042V36.3514C42.8594 36.5532 42.9313 36.7496 42.7684 36.8468L25.4636 47.4225C25.3152 47.5163 25.1311 47.5163 24.9686 47.4225L20.5303 44.6317C20.3965 44.5499 20.2375 44.5205 20.1092 44.5962C18.8743 45.3335 18.6466 45.4315 17.4883 45.8545C17.2033 45.9591 16.7829 46.1406 17.6492 46.6521L23.4578 50.2719C24.0123 50.6093 24.6414 50.787 25.2818 50.7871C25.9264 50.7871 26.5575 50.611 27.1137 50.2719L44.3396 39.6937C45.4662 39.0024 46 37.7238 46 36.3514V15.2042C46 13.8318 45.4662 12.552 44.34 11.866ZM30.6563 33.0004C26.0535 33.0004 25.0396 31.6627 24.7017 29.2516C24.6624 28.9919 24.4532 28.6814 24.2024 28.6814H21.9528C21.6745 28.6814 21.4508 29.037 21.4508 29.3289C21.4508 32.4161 23.0441 36.1567 30.6567 36.1567C36.1673 36.1567 39.3267 33.901 39.3267 29.9091C39.3267 25.9511 36.7883 24.9123 31.4441 24.1672C26.0422 23.4151 25.4934 23.0351 25.4934 21.7019C25.4934 20.6029 25.9581 19.137 29.958 19.137C33.5319 19.137 34.8492 19.945 35.3913 22.4826C35.4376 22.7212 35.6444 22.8924 35.878 22.8924H38.1366C38.2755 22.8924 38.4082 22.8333 38.5056 22.7287C38.5998 22.6162 38.6496 22.4752 38.637 22.3238C38.2873 17.954 35.5314 15.9175 29.9576 15.9175C24.9996 15.9175 22.0419 18.1231 22.0419 21.8202C22.0419 25.8303 24.9847 26.9385 29.744 27.4343C35.4376 28.0223 35.8804 28.8989 35.8804 30.0786C35.8804 32.1275 34.3189 33.0004 30.6563 33.0004Z" fill="#83CD29"/>
</g>
</g>
<path d="M83.2955 18.2417V32.7871H81.5909L73.6648 21.3667H73.5227V32.7871H71.7614V18.2417H73.4659L81.4205 29.6905H81.5625V18.2417H83.2955ZM91.0245 33.0144C90.0397 33.0144 89.1755 32.78 88.4322 32.3113C87.6935 31.8425 87.1159 31.1867 86.6992 30.3439C86.2873 29.5011 86.0813 28.5163 86.0813 27.3894C86.0813 26.253 86.2873 25.2611 86.6992 24.4135C87.1159 23.566 87.6935 22.9078 88.4322 22.4391C89.1755 21.9703 90.0397 21.736 91.0245 21.736C92.0094 21.736 92.8711 21.9703 93.6097 22.4391C94.3531 22.9078 94.9308 23.566 95.3427 24.4135C95.7594 25.2611 95.9677 26.253 95.9677 27.3894C95.9677 28.5163 95.7594 29.5011 95.3427 30.3439C94.9308 31.1867 94.3531 31.8425 93.6097 32.3113C92.8711 32.78 92.0094 33.0144 91.0245 33.0144ZM91.0245 31.5087C91.7726 31.5087 92.3881 31.3169 92.8711 30.9334C93.354 30.5499 93.7115 30.0456 93.9435 29.4206C94.1755 28.7956 94.2915 28.1185 94.2915 27.3894C94.2915 26.6602 94.1755 25.9808 93.9435 25.351C93.7115 24.7213 93.354 24.2123 92.8711 23.824C92.3881 23.4358 91.7726 23.2417 91.0245 23.2417C90.2764 23.2417 89.6609 23.4358 89.1779 23.824C88.695 24.2123 88.3375 24.7213 88.1055 25.351C87.8735 25.9808 87.7575 26.6602 87.7575 27.3894C87.7575 28.1185 87.8735 28.7956 88.1055 29.4206C88.3375 30.0456 88.695 30.5499 89.1779 30.9334C89.6609 31.3169 90.2764 31.5087 91.0245 31.5087ZM102.646 33.0144C101.737 33.0144 100.934 32.7847 100.238 32.3255C99.5419 31.8614 98.9974 31.208 98.6044 30.3652C98.2114 29.5177 98.0149 28.5163 98.0149 27.361C98.0149 26.2151 98.2114 25.2208 98.6044 24.378C98.9974 23.5352 99.5443 22.8842 100.245 22.4249C100.946 21.9656 101.755 21.736 102.674 21.736C103.384 21.736 103.945 21.8543 104.357 22.0911C104.774 22.3231 105.091 22.5882 105.309 22.8865C105.531 23.1801 105.704 23.4216 105.827 23.611H105.969V18.2417H107.646V32.7871H106.026V31.111H105.827C105.704 31.3098 105.529 31.5608 105.302 31.8638C105.075 32.1621 104.75 32.4296 104.329 32.6664C103.907 32.8984 103.346 33.0144 102.646 33.0144ZM102.873 31.5087C103.545 31.5087 104.113 31.3335 104.577 30.9831C105.041 30.628 105.394 30.138 105.636 29.513C105.877 28.8832 105.998 28.1564 105.998 27.3326C105.998 26.5182 105.879 25.8056 105.643 25.1948C105.406 24.5792 105.056 24.101 104.592 23.7601C104.128 23.4145 103.555 23.2417 102.873 23.2417C102.163 23.2417 101.571 23.4239 101.097 23.7885C100.629 24.1484 100.276 24.6384 100.039 25.2587C99.8071 25.8742 99.6911 26.5655 99.6911 27.3326C99.6911 28.1091 99.8094 28.8146 100.046 29.449C100.288 30.0788 100.643 30.5807 101.112 30.9547C101.585 31.324 102.172 31.5087 102.873 31.5087ZM115.522 33.0144C114.471 33.0144 113.564 32.7824 112.802 32.3184C112.044 31.8496 111.46 31.1962 111.048 30.3581C110.64 29.5153 110.437 28.5352 110.437 27.4178C110.437 26.3004 110.64 25.3155 111.048 24.4632C111.46 23.6062 112.032 22.9386 112.766 22.4604C113.505 21.9775 114.367 21.736 115.352 21.736C115.92 21.736 116.481 21.8307 117.035 22.0201C117.589 22.2095 118.093 22.5172 118.548 22.9434C119.002 23.3648 119.364 23.9235 119.634 24.6195C119.904 25.3155 120.039 26.1725 120.039 27.1905V27.9007H111.63V26.4519H118.335C118.335 25.8364 118.211 25.2871 117.965 24.8042C117.724 24.3212 117.378 23.94 116.928 23.6607C116.483 23.3813 115.958 23.2417 115.352 23.2417C114.684 23.2417 114.106 23.4074 113.619 23.7388C113.136 24.0655 112.764 24.4917 112.504 25.0172C112.243 25.5428 112.113 26.1062 112.113 26.7076V27.6735C112.113 28.4973 112.255 29.1957 112.539 29.7686C112.828 30.3368 113.228 30.7701 113.739 31.0684C114.251 31.3619 114.845 31.5087 115.522 31.5087C115.962 31.5087 116.36 31.4471 116.715 31.324C117.075 31.1962 117.385 31.0068 117.646 30.7559C117.906 30.5002 118.107 30.1829 118.249 29.8042L119.869 30.2587C119.698 30.8079 119.412 31.2909 119.009 31.7076C118.607 32.1195 118.11 32.4415 117.518 32.6735C116.926 32.9007 116.261 33.0144 115.522 33.0144ZM123.81 32.9007C123.46 32.9007 123.159 32.7753 122.908 32.5243C122.657 32.2734 122.532 31.9727 122.532 31.6223C122.532 31.272 122.657 30.9713 122.908 30.7203C123.159 30.4694 123.46 30.3439 123.81 30.3439C124.161 30.3439 124.461 30.4694 124.712 30.7203C124.963 30.9713 125.089 31.272 125.089 31.6223C125.089 31.8543 125.03 32.0674 124.911 32.2615C124.798 32.4557 124.644 32.6119 124.45 32.7303C124.26 32.8439 124.047 32.9007 123.81 32.9007ZM128.097 21.878H129.773V33.5826C129.773 34.2549 129.657 34.8373 129.425 35.3297C129.197 35.8221 128.852 36.2033 128.388 36.4732C127.929 36.7431 127.348 36.878 126.648 36.878C126.591 36.878 126.534 36.878 126.477 36.878C126.42 36.878 126.364 36.878 126.307 36.878V35.3155C126.364 35.3155 126.416 35.3155 126.463 35.3155C126.51 35.3155 126.562 35.3155 126.619 35.3155C127.131 35.3155 127.505 35.164 127.741 34.861C127.978 34.5627 128.097 34.1365 128.097 33.5826V21.878ZM128.92 20.0598C128.594 20.0598 128.312 19.9486 128.075 19.726C127.843 19.5035 127.727 19.236 127.727 18.9235C127.727 18.611 127.843 18.3435 128.075 18.1209C128.312 17.8984 128.594 17.7871 128.92 17.7871C129.247 17.7871 129.527 17.8984 129.759 18.1209C129.995 18.3435 130.114 18.611 130.114 18.9235C130.114 19.236 129.995 19.5035 129.759 19.726C129.527 19.9486 129.247 20.0598 128.92 20.0598ZM140.57 24.3212L139.064 24.7473C138.97 24.4964 138.83 24.2525 138.645 24.0158C138.465 23.7743 138.219 23.5755 137.907 23.4192C137.594 23.263 137.194 23.1848 136.706 23.1848C136.039 23.1848 135.482 23.3387 135.037 23.6465C134.597 23.9495 134.377 24.3354 134.377 24.8042C134.377 25.2208 134.528 25.5499 134.831 25.7914C135.134 26.0328 135.608 26.2341 136.252 26.3951L137.871 26.7928C138.846 27.0295 139.573 27.3917 140.051 27.8794C140.53 28.3624 140.769 28.985 140.769 29.7473C140.769 30.3723 140.589 30.931 140.229 31.4235C139.874 31.9159 139.377 32.3042 138.738 32.5882C138.098 32.8723 137.355 33.0144 136.507 33.0144C135.395 33.0144 134.474 32.7729 133.745 32.29C133.016 31.807 132.554 31.1015 132.36 30.1735L133.951 29.7757C134.102 30.3629 134.389 30.8032 134.81 31.0968C135.236 31.3903 135.792 31.5371 136.479 31.5371C137.26 31.5371 137.881 31.3714 138.34 31.04C138.804 30.7038 139.036 30.3013 139.036 29.8326C139.036 29.4538 138.903 29.1365 138.638 28.8809C138.373 28.6204 137.966 28.4263 137.417 28.2985L135.598 27.8723C134.599 27.6356 133.865 27.2686 133.397 26.7715C132.933 26.2696 132.701 25.6422 132.701 24.8894C132.701 24.2739 132.873 23.7293 133.219 23.2559C133.569 22.7824 134.045 22.4107 134.647 22.1408C135.253 21.8709 135.939 21.736 136.706 21.736C137.786 21.736 138.633 21.9727 139.249 22.4462C139.869 22.9197 140.31 23.5447 140.57 24.3212Z" fill="white"/>
<defs>
<clipPath id="clip0_5224_19472">
<rect width="50" height="50" fill="white" transform="translate(0 0.787109)"/>
</clipPath>
<clipPath id="clip1_5224_19472">
<rect width="50" height="50" fill="white" transform="translate(0 0.787109)"/>
</clipPath>
</defs>
</svg>
