<svg width="32" height="28" viewBox="0 0 32 28" fill="none" xmlns="http://www.w3.org/2000/svg">
<path d="M15.5916 7.3081C17.6096 7.3081 19.2456 5.67213 19.2456 3.65405C19.2456 1.63597 17.6096 0 15.5916 0C13.5735 0 11.9375 1.63597 11.9375 3.65405C11.9375 5.67213 13.5735 7.3081 15.5916 7.3081Z" fill="#F5FAFE"/>
<path d="M28.3787 13.7073L24.9731 12.9969C23.8129 12.7539 22.6673 13.2856 22.0617 14.2311C21.4735 13.9289 20.841 13.6684 20.1682 13.4522V11.4271C20.1696 9.89481 18.9152 8.64185 17.3884 8.64185H13.9062C12.3713 8.64185 11.1224 9.89481 11.1224 11.4271V13.4629C10.4563 13.6751 9.83054 13.9356 9.2383 14.2391C8.63267 13.2896 7.48579 12.7539 6.32416 12.9969L2.91583 13.7073C1.41982 14.0202 0.448874 15.5041 0.761773 17.0055L1.61723 21.092C1.92745 22.5893 3.41269 23.5602 4.91007 23.2473L5.98841 23.0217C6.52823 23.8194 7.27493 24.5513 8.23106 25.1771C10.2226 26.4824 12.8534 27.2022 15.6452 27.2022C19.9171 27.2022 23.5966 25.4846 25.2914 23.0177L26.3872 23.2473C27.8832 23.5589 29.3685 22.5893 29.6787 21.092L30.5354 17.0055C30.847 15.5041 29.876 14.0202 28.3787 13.7073ZM15.6439 25.8069C13.1219 25.8069 10.7583 25.1717 8.99512 24.0101C8.39081 23.6153 7.88989 23.1762 7.48841 22.7062L8.31429 22.5329C9.81298 22.2214 10.7839 20.7374 10.471 19.2387L9.70422 15.5645C10.1514 15.3242 10.6214 15.1133 11.121 14.9334V15.6035C11.121 17.1331 12.3726 18.386 13.9048 18.386H17.387C18.9152 18.386 20.1668 17.1318 20.1668 15.6035V14.8984C20.6758 15.0797 21.1538 15.2879 21.597 15.5242L20.8195 19.2401C20.5092 20.7388 21.4788 22.2227 22.9775 22.5343L23.8114 22.7088C22.2564 24.55 19.1798 25.8069 15.6439 25.8069Z" fill="#F5FAFE"/>
<path d="M27.6384 12.1116C29.6565 12.1116 31.2925 10.4756 31.2925 8.45752C31.2925 6.43944 29.6565 4.80347 27.6384 4.80347C25.6203 4.80347 23.9844 6.43944 23.9844 8.45752C23.9844 10.4756 25.6203 12.1116 27.6384 12.1116Z" fill="#F5FAFE"/>
<path d="M4.40378 12.0353C6.38053 11.6216 7.6429 9.68385 7.23462 7.7084C6.81832 5.73433 4.88452 4.46661 2.9064 4.88024C0.932326 5.2925 -0.335392 7.22897 0.0782369 9.20441C0.490558 11.1812 2.42703 12.4476 4.40378 12.0353Z" fill="#F5FAFE"/>
</svg>
