<svg width="32" height="32" viewBox="0 0 32 32" fill="none" xmlns="http://www.w3.org/2000/svg">
<path d="M25.8338 17.3887V14.409H23.7033C23.5021 13.3416 23.0828 12.3272 22.4716 11.4292L23.9615 9.93932L21.8608 7.82369L20.3709 9.31357C19.4729 8.70245 18.4586 8.28317 17.3912 8.08194V5.96631H14.4114V8.09684C13.344 8.29807 12.3296 8.71735 11.4316 9.32847L9.94176 7.83859L7.82613 9.93932L9.31601 11.4292C8.7049 12.3272 8.28561 13.3416 8.08438 14.409H5.96875V17.3887H8.09928C8.30051 18.4561 8.71979 19.4705 9.33091 20.3685L7.84103 21.8584L9.94176 23.974L11.4316 22.4841C12.3296 23.0952 13.344 23.5145 14.4114 23.7157V25.8314H17.3912V23.7008C18.4586 23.4996 19.4729 23.0803 20.3709 22.4692L21.8608 23.9591L23.9764 21.8584L22.4865 20.3685C23.0977 19.4705 23.517 18.4561 23.7182 17.3887H25.8338Z" stroke="#F5FAFE" stroke-width="2" stroke-linejoin="round"/>
<path d="M15.896 20.8649C18.6387 20.8649 20.8622 18.6414 20.8622 15.8986C20.8622 13.1558 18.6387 10.9324 15.896 10.9324C13.1532 10.9324 10.9297 13.1558 10.9297 15.8986C10.9297 18.6414 13.1532 20.8649 15.896 20.8649Z" stroke="#F5FAFE" stroke-width="2" stroke-linejoin="round"/>
<path d="M24.8438 6.95952L30.8033 1" stroke="#F5FAFE" stroke-width="2" stroke-linejoin="round"/>
<path d="M27.3281 1H30.8045V4.47639" stroke="#F5FAFE" stroke-width="2" stroke-linejoin="round"/>
<path d="M6.95952 6.95952L1 1" stroke="#F5FAFE" stroke-width="2" stroke-linejoin="round"/>
<path d="M4.47639 1H1V4.47639" stroke="#F5FAFE" stroke-width="2" stroke-linejoin="round"/>
<path d="M24.8438 24.8384L30.8033 30.7979" stroke="#F5FAFE" stroke-width="2" stroke-linejoin="round"/>
<path d="M27.3281 30.7974H30.8045V27.321" stroke="#F5FAFE" stroke-width="2" stroke-linejoin="round"/>
<path d="M6.95952 24.8384L1 30.7979" stroke="#F5FAFE" stroke-width="2" stroke-linejoin="round"/>
<path d="M4.47639 30.7974H1V27.321" stroke="#F5FAFE" stroke-width="2" stroke-linejoin="round"/>
</svg>
