<svg width="50" height="43" viewBox="0 0 50 43" fill="none" xmlns="http://www.w3.org/2000/svg">
<g clip-path="url(#clip0_16151_32259)">
<path d="M46.8403 0.135604C32.4988 -0.122044 18.1471 0.122044 3.80553 0C2.85418 0.0135604 1.8145 0.0305109 1.12477 0.783113C-0.0644075 1.71878 -0.00664723 3.34942 0.00354576 4.70885C0.0477154 16.2589 -0.0304309 27.809 0.0307271 39.3556C-0.0542145 41.4541 1.94701 43.1153 3.9924 42.9593C17.9364 43.0237 31.8804 43.0034 45.821 42.9559C48.1926 43.0407 50.0375 40.7693 49.9662 38.5013C50.0001 27.2428 49.9458 15.9775 49.9967 4.71224C50.0987 2.7731 49.0216 0.294939 46.8403 0.138994V0.135604ZM1.49172 2.75954C1.91983 1.38994 3.57789 1.3018 4.76707 1.33231C17.6782 1.34248 30.5859 1.44757 43.497 1.3018C45.0837 1.3696 47.35 0.962788 48.179 2.73581C48.7328 4.32576 48.4202 6.0581 48.4882 7.71247C32.7468 7.78027 17.0054 7.61755 1.26408 7.78366C1.31844 6.10896 1.12817 4.40035 1.49172 2.75615V2.75954ZM48.4033 39.3285C48.2843 40.5727 47.0714 41.5796 45.8244 41.4982C32.6857 41.6168 19.5469 41.5151 6.40814 41.5355C5.27332 41.5219 4.11811 41.6033 3.00028 41.3829C1.78732 41.027 1.22331 39.6947 1.29126 38.5217C1.30825 28.7006 1.26068 18.8828 1.33883 9.06173C2.58917 9.04139 3.8429 9.01766 5.09664 9.00749C19.5571 9.09563 34.0243 9.05834 48.4848 9.05156C48.5731 18.0014 48.4984 26.9445 48.5324 35.8944C48.529 37.0402 48.5629 38.1928 48.3998 39.3319L48.4033 39.3285Z" fill="#1B275F"/>
<path d="M11.0971 15.8047C10.5025 15.8522 9.76184 15.6793 9.35752 16.2454C8.52849 16.9675 9.07551 18.7439 10.2919 18.4659C10.5263 18.0557 10.7166 17.6252 10.8491 17.1709C20.6853 17.0455 30.525 17.215 40.3612 17.0895C40.4393 16.6895 40.5141 16.2895 40.5922 15.8928C30.7628 15.6894 20.9266 15.9098 11.0971 15.8047Z" fill="#1B275F"/>
<path d="M22.0131 22.8662C20.4196 24.8731 19.1149 27.2563 18.8125 29.8328C19.1047 29.8532 19.6857 29.9006 19.9813 29.9277C20.8001 27.4597 22.2 25.263 23.6338 23.1136C23.1411 22.9611 22.4446 22.2424 22.0165 22.8662H22.0131Z" fill="#1B275F"/>
<path d="M29.252 22.6764C28.0186 25.0393 27.159 27.5615 26.2043 30.0397C25.9936 30.8126 25.2053 32.128 26.5848 32.1754C26.7003 32.0941 26.9416 31.9279 27.0571 31.8466C28.2361 29.0667 29.2588 26.2156 30.3528 23.4086C30.5193 22.7713 29.5951 22.8865 29.252 22.673V22.6764Z" fill="#1B275F"/>
<path d="M34.0261 23.7442C34.9672 25.1037 36.2787 26.1546 37.3252 27.4293C36.0681 28.7582 34.6377 29.9142 33.4247 31.2838C33.2378 31.8771 33.8664 32.233 34.1688 32.6331C35.9288 30.938 37.7771 29.3142 39.3163 27.3988C38.0659 25.8054 36.5777 24.4256 35.3206 22.8425C34.8653 22.0865 33.5878 23.0933 34.0227 23.7442H34.0261Z" fill="#1B275F"/>
<path d="M12.5743 27.3682C13.5393 26.5444 14.5789 25.8054 15.4454 24.8765C16.0331 24.4493 15.9448 23.073 14.9833 23.4764C13.349 24.7036 11.8166 26.0698 10.3047 27.4462C11.9627 29.2802 14.0081 30.7109 15.7036 32.5178C15.8904 32.2737 16.2744 31.7923 16.4646 31.5482C15.4216 29.9379 13.8824 28.7514 12.5743 27.3716V27.3682Z" fill="#1B275F"/>
</g>
<defs>
<clipPath id="clip0_16151_32259">
<rect width="50" height="43" fill="white"/>
</clipPath>
</defs>
</svg>
