<svg width="50" height="50" viewBox="0 0 50 50" fill="none" xmlns="http://www.w3.org/2000/svg">
<path d="M0 26.4221C0 27.2873 0.0492821 28.1586 0.14571 29.0145C0.18214 29.3329 0.460712 29.5694 0.784283 29.5694C0.807854 29.5694 0.831425 29.5684 0.855 29.5653C1.2075 29.5279 1.4625 29.2209 1.42393 28.8786C1.33286 28.0684 1.28571 27.2416 1.28571 26.4221C1.28571 14.5466 10.9243 4.79549 23.025 4.1264L20.9036 6.82143C20.6882 7.09529 20.7429 7.48533 21.0257 7.69384C21.1425 7.77994 21.2786 7.82143 21.4147 7.82143C21.6086 7.82143 21.8004 7.73741 21.9268 7.57662L24.8647 3.84424C25.08 3.57038 25.0254 3.18034 24.7425 2.97183L20.8875 0.127425C20.6057 -0.0810823 20.2018 -0.0281774 19.9865 0.245682C19.7711 0.519542 19.8257 0.909585 20.1086 1.11809L22.5354 2.90855C16.709 3.32142 11.2886 5.71873 7.11965 9.76231C2.52857 14.2146 0 20.1306 0 26.4221ZM32.8018 5.63471C32.4718 5.50919 32.309 5.14715 32.4397 4.82765C32.5693 4.50815 32.9433 4.35047 33.2733 4.47702C37.7722 6.1928 41.6122 9.1399 44.3776 13.0019C47.2083 16.9542 48.7051 21.5953 48.7051 26.4232C48.7051 29.9761 47.8758 33.4792 46.2965 36.6545L49.109 35.5155C49.4369 35.3827 49.8129 35.5331 49.9501 35.8495C50.0872 36.167 49.9319 36.5311 49.6051 36.6639L45.1329 38.474C45.0515 38.5072 44.9679 38.5228 44.8854 38.5228C44.6336 38.5228 44.3947 38.3786 44.2919 38.14L42.4222 33.8101C42.2851 33.4927 42.4394 33.1286 42.7672 32.9958C43.0951 32.863 43.4711 33.0124 43.6083 33.3298L44.9604 36.4616C46.5708 33.363 47.4183 29.918 47.4183 26.4221C47.4183 17.1804 41.6808 9.02061 32.8018 5.63471ZM3.18107 37.8205C3.2025 37.6566 3.29036 37.5083 3.42536 37.4076C3.56036 37.307 3.73072 37.2624 3.90001 37.2832L8.70751 37.8807C9.06001 37.9242 9.30859 38.2365 9.26358 38.5767C9.21859 38.917 8.89609 39.1587 8.54466 39.1151L5.07 38.6836C9.31715 44.9253 16.59 48.7552 24.3515 48.7552C29.6004 48.7552 34.7368 47.0031 38.8147 43.8205C39.0911 43.6048 39.4961 43.6473 39.719 43.9149C39.9419 44.1826 39.8979 44.5747 39.6215 44.7904C35.3154 48.1504 29.8929 50 24.3515 50C20.009 50 15.7457 48.8797 12.0236 46.7604C8.91966 44.9927 6.25394 42.5716 4.22786 39.7002L3.83893 42.6338C3.79715 42.9481 3.52072 43.1774 3.2025 43.1774C3.17572 43.1774 3.14786 43.1753 3.12 43.1722C2.7675 43.1286 2.51893 42.8164 2.56393 42.4761L3.18107 37.8205ZM27.5486 18.7675H14.609C14.2543 18.7675 13.9661 18.4885 13.9661 18.1451C13.9661 17.8018 14.2543 17.5227 14.609 17.5227H27.5486C27.9033 17.5227 28.1915 17.8018 28.1915 18.1451C28.1915 18.4885 27.9033 18.7675 27.5486 18.7675ZM34.0951 18.7675C33.7404 18.7675 33.4522 18.4885 33.4522 18.1451C33.4522 17.8018 33.7404 17.5227 34.0951 17.5227C34.4497 17.5227 34.7379 17.8018 34.7379 18.1451C34.739 18.4885 34.4508 18.7675 34.0951 18.7675ZM32.234 18.7675C31.8793 18.7675 31.5911 18.4885 31.5911 18.1451C31.5911 17.8018 31.8793 17.5227 32.234 17.5227C32.5886 17.5227 32.8768 17.8018 32.8768 18.1451C32.8768 18.4885 32.5897 18.7675 32.234 18.7675ZM30.3729 18.7675C30.0183 18.7675 29.7301 18.4885 29.7301 18.1451C29.7301 17.8018 30.0183 17.5227 30.3729 17.5227C30.7286 17.5227 31.0158 17.8018 31.0158 18.1451C31.0158 18.4885 30.7286 18.7675 30.3729 18.7675ZM36.944 15.4376H11.7589C11.4043 15.4376 11.1161 15.7167 11.1161 16.0601V36.7842C11.1161 37.1276 11.4043 37.4066 11.7589 37.4066H36.944C37.2986 37.4066 37.5869 37.1276 37.5869 36.7842V16.0601C37.5869 15.7157 37.2997 15.4376 36.944 15.4376ZM12.4018 36.1618V20.8516H36.3011V36.1618H12.4018ZM36.3011 16.6825V19.6067H12.4018V16.6825H36.3011ZM33.3322 24.0663H24.8508C24.4961 24.0663 24.2079 23.7873 24.2079 23.4439C24.2079 23.1005 24.4961 22.8215 24.8508 22.8215H33.3322C33.6868 22.8215 33.9751 23.1005 33.9751 23.4439C33.9751 23.7873 33.6868 24.0663 33.3322 24.0663ZM33.3322 27.4418H24.8508C24.4961 27.4418 24.2079 27.1628 24.2079 26.8194C24.2079 26.4761 24.4961 26.197 24.8508 26.197H33.3322C33.6868 26.197 33.9751 26.4761 33.9751 26.8194C33.9751 27.1628 33.6868 27.4418 33.3322 27.4418ZM15.3718 29.5725H33.3322C33.6868 29.5725 33.9751 29.8516 33.9751 30.195C33.9751 30.5383 33.6868 30.8174 33.3322 30.8174H15.3729C15.0182 30.8174 14.73 30.5383 14.73 30.195C14.73 29.8516 15.0172 29.5725 15.3718 29.5725ZM15.3718 32.9481H33.3322C33.6868 32.9481 33.9751 33.2271 33.9751 33.5705C33.9751 33.9138 33.6868 34.1929 33.3322 34.1929H15.3729C15.0182 34.1929 14.73 33.9138 14.73 33.5705C14.73 33.2271 15.0172 32.9481 15.3718 32.9481ZM21.6311 26.7831C21.5047 26.9159 21.3322 26.9823 21.1597 26.9823C21.0033 26.9823 20.8468 26.9273 20.7225 26.8163C20.4622 26.5829 20.4461 26.1887 20.6882 25.9366L21.4597 25.1306L20.6882 24.3246C20.4472 24.0725 20.4622 23.6783 20.7225 23.4449C20.9829 23.2115 21.39 23.2261 21.6311 23.4781L22.8065 24.7063C23.0347 24.9449 23.0347 25.3142 22.8065 25.5528L21.6311 26.7831ZM16.0757 23.4802C16.3168 23.2281 16.724 23.2126 16.9843 23.447C17.2447 23.6804 17.2607 24.0746 17.0186 24.3267L16.2482 25.1327L17.0186 25.9387C17.2597 26.1908 17.2447 26.585 16.9843 26.8184C16.86 26.9294 16.7036 26.9844 16.5472 26.9844C16.3747 26.9844 16.2022 26.9169 16.0757 26.7852L14.9004 25.557C14.6722 25.3184 14.6722 24.9491 14.9004 24.7105L16.0757 23.4802ZM19.6275 27.2396C19.5557 27.2644 19.484 27.2759 19.4122 27.2759C19.1475 27.2759 18.9 27.1171 18.8068 26.862L17.6893 23.8194C17.5704 23.4958 17.745 23.14 18.0793 23.0248C18.4147 22.9097 18.7811 23.0787 18.9 23.4024L20.0175 26.4449C20.1375 26.7676 19.9629 27.1244 19.6275 27.2396Z" fill="#1B275F"/>
</svg>
