<svg width="50" height="50" viewBox="0 0 50 50" fill="none" xmlns="http://www.w3.org/2000/svg">
<g clip-path="url(#clip0_16157_32282)">
<path d="M25 7.8125C21.6006 7.8125 18.2776 8.82053 15.4511 10.7091C12.6247 12.5977 10.4217 15.282 9.12083 18.4226C7.81995 21.5632 7.47958 25.0191 8.14276 28.3531C8.80594 31.6872 10.4429 34.7497 12.8466 37.1534C15.2503 39.5571 18.3128 41.1941 21.6469 41.8572C24.9809 42.5204 28.4368 42.1801 31.5774 40.8792C34.718 39.5783 37.4023 37.3753 39.2909 34.5489C41.1795 31.7224 42.1875 28.3994 42.1875 25C42.1824 20.4432 40.3699 16.0745 37.1477 12.8523C33.9256 9.63012 29.5568 7.81765 25 7.8125ZM26.9531 36.8671V40.4894C25.6573 40.6702 24.3427 40.6702 23.0469 40.4894V36.8671C23.0469 36.7209 23.0058 36.5776 22.9284 36.4535C22.851 36.3294 22.7403 36.2295 22.609 36.1652C21.7515 35.7495 21.0177 35.1166 20.4807 34.3294C19.9437 33.5422 19.6221 32.6281 19.5478 31.6781C19.4736 30.728 19.6494 29.7751 20.0577 28.9141C20.4659 28.053 21.0925 27.3138 21.875 26.77V32.0313C21.875 32.1339 21.8952 32.2355 21.9344 32.3303C21.9737 32.4251 22.0312 32.5112 22.1038 32.5837C22.1763 32.6563 22.2625 32.7138 22.3573 32.7531C22.4521 32.7923 22.5537 32.8125 22.6563 32.8125H27.3438C27.4464 32.8125 27.548 32.7923 27.6428 32.7531C27.7376 32.7138 27.8237 32.6563 27.8962 32.5837C27.9688 32.5112 28.0263 32.4251 28.0656 32.3303C28.1048 32.2355 28.125 32.1339 28.125 32.0313V26.7624C28.9076 27.307 29.5341 28.0469 29.9424 28.9085C30.3506 29.7701 30.5264 30.7235 30.4522 31.6741C30.378 32.6247 30.0564 33.5393 29.5194 34.3271C28.9824 35.115 28.2487 35.7487 27.3911 36.1652C27.2597 36.2295 27.149 36.3294 27.0716 36.4535C26.9942 36.5776 26.9531 36.7209 26.9531 36.8671ZM28.5156 40.2115V37.3359C29.6564 36.6781 30.5893 35.7128 31.2079 34.5503C31.8265 33.3877 32.1059 32.0747 32.0142 30.761C31.9225 29.4473 31.4634 28.1859 30.6892 27.1205C29.9151 26.0552 28.8571 25.229 27.6359 24.736C27.5173 24.6883 27.3888 24.6704 27.2617 24.6838C27.1346 24.6973 27.0127 24.7418 26.9067 24.8133C26.8008 24.8849 26.714 24.9813 26.654 25.0942C26.594 25.2071 26.5626 25.333 26.5625 25.4608V31.25H23.4375V25.4688C23.4375 25.3411 23.4061 25.2152 23.3462 25.1024C23.2862 24.9896 23.1995 24.8932 23.0936 24.8216C22.9878 24.7501 22.866 24.7056 22.7389 24.6921C22.6118 24.6786 22.4834 24.6964 22.3649 24.744C21.1438 25.2359 20.0857 26.0613 19.3113 27.1259C18.537 28.1905 18.0777 29.4514 17.9859 30.7646C17.8941 32.0778 18.1734 33.3903 18.7921 34.5523C19.4107 35.7143 20.3436 36.6789 21.4844 37.3359V40.2115C17.7451 39.348 14.4544 37.1386 12.2396 34.0045C10.0249 30.8705 9.04096 27.0309 9.47549 23.2179C9.91002 19.405 11.7326 15.8852 14.5958 13.3299C17.4589 10.7745 21.1623 9.36213 25 9.36213C28.8377 9.36213 32.5411 10.7745 35.4043 13.3299C38.2674 15.8852 40.09 19.405 40.5245 23.2179C40.9591 27.0309 39.9751 30.8705 37.7604 34.0045C35.5456 37.1386 32.2549 39.348 28.5156 40.2115Z" fill="#1B275F"/>
<path d="M47.9935 19.7068H46.4714C46.155 19.6969 45.85 19.5863 45.6007 19.3912C45.3514 19.1961 45.1708 18.9266 45.0852 18.6219C44.722 17.4816 44.2621 16.3745 43.7103 15.3126C43.5549 15.0361 43.4918 14.7172 43.5302 14.4023C43.5686 14.0875 43.7066 13.7931 43.924 13.5621L45.0058 12.4794C45.1341 12.3514 45.2138 12.1826 45.2312 12.0022C45.2486 11.8218 45.2026 11.6409 45.1012 11.4907C43.3516 8.88696 41.1129 6.64796 38.5094 4.89811C38.359 4.79708 38.1782 4.7514 37.9978 4.76886C37.8175 4.78632 37.6488 4.86585 37.5206 4.99387L36.438 6.07609C36.2071 6.2939 35.9127 6.43213 35.5976 6.47057C35.2826 6.50901 34.9635 6.44563 34.687 6.28972C33.625 5.738 32.5178 5.27805 31.3774 4.91489C31.0727 4.82915 30.8033 4.64846 30.6083 4.39908C30.4133 4.1497 30.303 3.84464 30.2933 3.52824V2.00658C30.2933 1.82533 30.2302 1.64974 30.115 1.50985C29.9997 1.36997 29.8395 1.27451 29.6616 1.23982C26.5837 0.630998 23.4163 0.630998 20.3384 1.23982C20.1605 1.27451 20.0003 1.36997 19.885 1.50985C19.7698 1.64974 19.7067 1.82533 19.7067 2.00658V3.52826C19.697 3.84465 19.5867 4.14971 19.3917 4.39909C19.1967 4.64846 18.9273 4.82915 18.6226 4.91489C17.4822 5.27804 16.375 5.73798 15.313 6.2897C15.0365 6.44559 14.7174 6.50895 14.4024 6.47052C14.0874 6.43208 13.7929 6.29386 13.562 6.07608L12.4794 4.99387C12.3513 4.86564 12.1826 4.78596 12.0022 4.76849C11.8218 4.75102 11.6409 4.79685 11.4906 4.89811C8.88712 6.64796 6.64838 8.88696 4.89884 11.4907C4.7974 11.6409 4.75144 11.8218 4.76885 12.0022C4.78625 12.1826 4.86593 12.3514 4.9942 12.4794L6.07605 13.5621C6.29335 13.793 6.43132 14.0873 6.46988 14.402C6.50843 14.7168 6.44557 15.0357 6.29044 15.3122C5.73816 16.3741 5.27795 17.4814 4.91484 18.6219C4.82919 18.9266 4.64859 19.1961 4.3993 19.3912C4.15001 19.5863 3.845 19.6969 3.52859 19.7068H2.00653C1.82534 19.7068 1.64979 19.7697 1.50991 19.8849C1.37004 20.0001 1.27454 20.1603 1.23977 20.3381C0.628409 23.416 0.628409 26.5841 1.23977 29.662C1.27454 29.8398 1.37004 30 1.50991 30.1152C1.64979 30.2304 1.82534 30.2933 2.00653 30.2933H3.52859C3.84491 30.3031 4.14987 30.4135 4.39916 30.6085C4.64845 30.8035 4.82909 31.0728 4.91484 31.3775C5.27768 32.5179 5.73764 33.6252 6.28966 34.6871C6.4451 34.9637 6.50821 35.2826 6.46979 35.5976C6.43136 35.9125 6.29342 36.2069 6.07603 36.438L4.9942 37.5203C4.8661 37.6484 4.78654 37.8172 4.76914 37.9975C4.75174 38.1779 4.79759 38.3587 4.89884 38.509C6.64847 41.1128 8.88719 43.3519 11.4906 45.102C11.641 45.2032 11.8218 45.2489 12.0022 45.2314C12.1826 45.214 12.3512 45.1344 12.4794 45.0062L13.562 43.924C13.7929 43.7062 14.0873 43.5679 14.4023 43.5294C14.7174 43.4909 15.0365 43.5542 15.313 43.71C16.3749 44.262 17.4822 44.722 18.6226 45.0852C18.9273 45.1709 19.1967 45.3516 19.3917 45.601C19.5867 45.8504 19.697 46.1554 19.7067 46.4718V47.9935C19.7067 48.1748 19.7698 48.3504 19.885 48.4902C20.0003 48.6301 20.1605 48.7256 20.3384 48.7603C23.4161 49.3716 26.5839 49.3716 29.6616 48.7603C29.8395 48.7256 29.9997 48.6301 30.115 48.4902C30.2302 48.3504 30.2933 48.1748 30.2933 47.9935V46.4718C30.303 46.1554 30.4133 45.8504 30.6083 45.601C30.8033 45.3516 31.0727 45.1709 31.3774 45.0852C32.5178 44.722 33.6251 44.2619 34.687 43.71C34.9636 43.5544 35.2826 43.4913 35.5976 43.5298C35.9126 43.5683 36.207 43.7064 36.438 43.924L37.5206 45.0062C37.6489 45.1341 37.8175 45.2136 37.9978 45.2311C38.1782 45.2485 38.3589 45.2029 38.5094 45.102C41.1128 43.3519 43.3515 41.1128 45.1012 38.509C45.2024 38.3587 45.2483 38.1779 45.2309 37.9975C45.2135 37.8171 45.1339 37.6484 45.0058 37.5202L43.924 36.438C43.7066 36.207 43.5687 35.9127 43.5301 35.5978C43.4916 35.283 43.5544 34.9641 43.7096 34.6874C44.262 33.6257 44.7222 32.5184 45.0852 31.3778C45.1708 31.0731 45.3514 30.8037 45.6007 30.6086C45.85 30.4136 46.155 30.3031 46.4714 30.2933H47.9935C48.1747 30.2933 48.3502 30.2304 48.4901 30.1152C48.63 30 48.7255 29.8398 48.7602 29.662C49.3716 26.5841 49.3716 23.416 48.7602 20.3381C48.7255 20.1603 48.63 20.0001 48.4901 19.8849C48.3502 19.7697 48.1747 19.7068 47.9935 19.7068ZM47.3411 28.7308H46.4714C45.8231 28.7397 45.1946 28.9553 44.6773 29.3463C44.1601 29.7372 43.7812 30.2831 43.5959 30.9044C43.26 31.9597 42.8342 32.9843 42.3233 33.9669C42.0138 34.5379 41.895 35.1929 41.9842 35.8362C42.0734 36.4796 42.366 37.0775 42.8192 37.5428L43.4395 38.1634C41.9853 40.2023 40.2024 41.9854 38.1638 43.4399L37.5427 42.8192C37.0776 42.3658 36.4796 42.0731 35.8362 41.984C35.1928 41.8948 34.5377 42.0139 33.9668 42.3237C32.9841 42.8343 31.9596 43.2599 30.9044 43.5959C30.2829 43.7811 29.7369 44.16 29.3459 44.6774C28.9549 45.1947 28.7394 45.8234 28.7308 46.4718V47.3412C26.2612 47.7593 23.7388 47.7593 21.2692 47.3412V46.4718C21.2606 45.8234 21.0451 45.1947 20.6541 44.6774C20.2631 44.1601 19.7171 43.7812 19.0956 43.5959C18.0404 43.2599 17.0158 42.8343 16.0332 42.3237C15.4623 42.0137 14.8072 41.8945 14.1638 41.9836C13.5203 42.0728 12.9223 42.3656 12.4573 42.8193L11.8362 43.4399C9.79757 41.9854 8.01473 40.2023 6.56052 38.1634L7.18079 37.5428C7.63409 37.0775 7.92667 36.4794 8.01576 35.836C8.10485 35.1925 7.98577 34.5374 7.67594 33.9665C7.16544 32.9838 6.73995 31.9593 6.40412 30.9041C6.21868 30.2828 5.83977 29.737 5.32255 29.3461C4.80534 28.9552 4.17684 28.7397 3.52859 28.7308H2.65884C2.23872 26.2614 2.23872 23.7387 2.65884 21.2693H3.52859C4.1769 21.2604 4.80544 21.0448 5.32266 20.6538C5.83989 20.2629 6.21877 19.717 6.40412 19.0957C6.73981 18.0402 7.16557 17.0155 7.67669 16.0329C7.98619 15.4619 8.10501 14.807 8.01579 14.1637C7.92657 13.5204 7.63399 12.9225 7.18079 12.4573L6.56052 11.8363C8.01505 9.79781 9.79785 8.01488 11.8362 6.5602L12.4573 7.18086C12.9225 7.63414 13.5205 7.92672 14.1639 8.01581C14.8073 8.1049 15.4623 7.98583 16.0332 7.67601C17.0159 7.16565 18.0404 6.74017 19.0956 6.40419C19.7171 6.21895 20.2631 5.84004 20.6541 5.32272C21.0451 4.80539 21.2606 4.17669 21.2692 3.52828V2.65889C23.7388 2.24079 26.2612 2.24079 28.7308 2.65889V3.52826C28.7394 4.17666 28.9549 4.80536 29.3459 5.32269C29.7369 5.84002 30.2829 6.21893 30.9044 6.40416C31.9595 6.74014 32.9841 7.16563 33.9668 7.67598C34.5377 7.98584 35.1927 8.10494 35.8361 8.01584C36.4795 7.92675 37.0775 7.63415 37.5427 7.18083L38.1638 6.56018C40.2021 8.01486 41.985 9.79779 43.4395 11.8363L42.8192 12.4573C42.3659 12.9225 42.0733 13.5205 41.9843 14.1639C41.8952 14.8073 42.0142 15.4623 42.3241 16.0332C42.8347 17.0158 43.2602 18.0404 43.5959 19.0957C43.7812 19.717 44.1601 20.2629 44.6773 20.6538C45.1946 21.0448 45.8231 21.2604 46.4714 21.2693H47.3412C47.7613 23.7387 47.7612 26.2614 47.3411 28.7308Z" fill="#1B275F"/>
<path d="M30.442 15.0303C30.1828 14.0641 29.6619 13.1883 28.9367 12.4993C28.8159 12.3842 28.6615 12.3109 28.4961 12.29C28.3306 12.2691 28.1628 12.3018 28.0173 12.3833L27.5725 12.6317C27.412 12.5285 27.2453 12.4352 27.0736 12.352V11.8908C27.0735 11.7187 27.0166 11.5515 26.9117 11.415C26.8069 11.2785 26.66 11.1804 26.4937 11.1359C25.9843 10.9943 25.4569 10.9276 24.9282 10.9379C24.4477 10.9455 23.97 11.0128 23.5061 11.1382C23.3398 11.1826 23.1928 11.2807 23.088 11.4172C22.9831 11.5537 22.9263 11.721 22.9262 11.8931V12.352C22.7545 12.4352 22.5878 12.5285 22.4273 12.6317L21.9848 12.3848C21.8392 12.3036 21.6715 12.2711 21.5061 12.292C21.3407 12.3128 21.1863 12.386 21.0654 12.5008C20.3394 13.1891 19.8177 14.0646 19.5579 15.0307C19.513 15.1986 19.5255 15.3766 19.5932 15.5366C19.6609 15.6966 19.78 15.8295 19.9317 15.9142L20.3498 16.1477C20.3437 16.2343 20.3414 16.3205 20.3414 16.4063C20.3414 16.4921 20.3437 16.5783 20.3498 16.6649L19.9317 16.8984C19.7799 16.9831 19.6606 17.116 19.5929 17.2761C19.5252 17.4362 19.5129 17.6143 19.5579 17.7823C19.817 18.7485 20.3379 19.6243 21.0631 20.3133C21.184 20.4281 21.3384 20.5013 21.5038 20.5221C21.6692 20.543 21.8369 20.5105 21.9825 20.4293L22.4273 20.181C22.5878 20.2841 22.7545 20.3774 22.9262 20.4606V20.9218C22.9263 21.0939 22.9832 21.2611 23.0881 21.3976C23.1929 21.5341 23.3398 21.6322 23.5061 21.6767C23.9943 21.8077 24.4975 21.8744 25.003 21.8751C25.0258 21.8751 25.0487 21.8751 25.0716 21.8747C25.5521 21.8671 26.0298 21.7998 26.4937 21.6744C26.66 21.63 26.807 21.5319 26.9118 21.3954C27.0167 21.2589 27.0735 21.0916 27.0736 20.9195V20.4606C27.2453 20.3774 27.412 20.2841 27.5725 20.1809L28.015 20.4278C28.1606 20.509 28.3284 20.5416 28.4938 20.5207C28.6592 20.4998 28.8135 20.4266 28.9344 20.3118C29.6604 19.6235 30.1821 18.748 30.442 17.7819C30.4868 17.614 30.4743 17.436 30.4066 17.276C30.3389 17.116 30.2198 16.9831 30.0681 16.8984L29.65 16.6649C29.6554 16.578 29.6584 16.4914 29.6584 16.4063C29.6584 16.3212 29.6554 16.2346 29.65 16.1477L30.0681 15.9142C30.2199 15.8295 30.3392 15.6966 30.4069 15.5365C30.4746 15.3764 30.4869 15.1983 30.442 15.0303ZM28.0417 15.87C28.114 16.2239 28.114 16.5887 28.0417 16.9426C28.0108 17.104 28.0315 17.2711 28.1009 17.42C28.1704 17.569 28.285 17.6923 28.4286 17.7723L28.733 17.9424C28.6023 18.2354 28.4357 18.511 28.2371 18.763C28.0104 18.6434 27.7559 18.5866 27.5 18.5985C27.244 18.6104 26.9959 18.6907 26.7814 18.8309C26.6354 18.9295 26.4812 19.0154 26.3206 19.0876C26.0898 19.1933 25.8925 19.3603 25.7501 19.5705C25.6078 19.7806 25.5259 20.0258 25.5134 20.2793C25.3605 20.299 25.2066 20.31 25.0525 20.3121C24.8633 20.316 24.674 20.3053 24.4864 20.2801C24.4741 20.0264 24.3923 19.781 24.25 19.5707C24.1076 19.3604 23.9102 19.1933 23.6793 19.0876C23.5187 19.0154 23.3645 18.9296 23.2184 18.8313C23.004 18.6901 22.7555 18.6094 22.4991 18.5976C22.2426 18.5858 21.9877 18.6433 21.7612 18.7641C21.5626 18.5119 21.3962 18.2359 21.2661 17.9425L21.5705 17.7723C21.7136 17.6925 21.828 17.5697 21.8974 17.4212C21.9668 17.2728 21.9878 17.1063 21.9573 16.9453C21.8861 16.5895 21.8861 16.2231 21.9573 15.8673C21.9878 15.7063 21.9668 15.5397 21.8974 15.3913C21.828 15.2429 21.7136 15.12 21.5705 15.0402L21.2668 14.8705C21.3973 14.5772 21.5639 14.3014 21.7628 14.0496C21.9892 14.1697 22.2438 14.2267 22.4999 14.2148C22.756 14.2028 23.0041 14.1223 23.2184 13.9817C23.3644 13.8831 23.5186 13.7972 23.6793 13.7249C23.91 13.6192 24.1073 13.4522 24.2497 13.2421C24.392 13.0319 24.4739 12.7867 24.4864 12.5332C24.6393 12.5135 24.7932 12.5026 24.9473 12.5004C25.1365 12.4973 25.3257 12.508 25.5134 12.5324C25.5257 12.7861 25.6075 13.0315 25.7498 13.2418C25.8922 13.4521 26.0896 13.6192 26.3206 13.7249C26.4811 13.7972 26.6353 13.8829 26.7814 13.9813C26.996 14.1219 27.2445 14.2023 27.5008 14.2141C27.7571 14.2259 28.0119 14.1687 28.2386 14.0484C28.4369 14.3006 28.6033 14.5765 28.7337 14.8697L28.4286 15.0402C28.285 15.1203 28.1704 15.2435 28.1009 15.3925C28.0315 15.5415 28.0108 15.7085 28.0417 15.87Z" fill="#1B275F"/>
<path d="M25 14.0625C24.5365 14.0625 24.0833 14.2 23.6979 14.4575C23.3125 14.715 23.0121 15.0811 22.8347 15.5093C22.6573 15.9376 22.6109 16.4089 22.7013 16.8635C22.7917 17.3181 23.0149 17.7358 23.3427 18.0635C23.6705 18.3913 24.0881 18.6145 24.5428 18.705C24.9974 18.7954 25.4686 18.749 25.8969 18.5716C26.3252 18.3942 26.6912 18.0938 26.9488 17.7084C27.2063 17.3229 27.3438 16.8698 27.3438 16.4063C27.3431 15.7849 27.0959 15.1891 26.6565 14.7497C26.2171 14.3103 25.6214 14.0632 25 14.0625ZM25 17.1875C24.8455 17.1875 24.6944 17.1417 24.566 17.0558C24.4375 16.97 24.3374 16.848 24.2782 16.7052C24.2191 16.5625 24.2036 16.4054 24.2338 16.2538C24.2639 16.1023 24.3383 15.9631 24.4476 15.8538C24.5568 15.7446 24.696 15.6702 24.8476 15.64C24.9991 15.6099 25.1562 15.6253 25.299 15.6845C25.4417 15.7436 25.5637 15.8437 25.6496 15.9722C25.7354 16.1007 25.7813 16.2517 25.7813 16.4063C25.781 16.6134 25.6987 16.812 25.5522 16.9584C25.4057 17.1049 25.2071 17.1873 25 17.1875Z" fill="#1B275F"/>
</g>
<defs>
<clipPath id="clip0_16157_32282">
<rect width="50" height="50" fill="white"/>
</clipPath>
</defs>
</svg>
