<svg width="80" height="80" viewBox="0 0 80 80" fill="none" xmlns="http://www.w3.org/2000/svg">
<path d="M0 34.0765C0 18.0127 0 9.98079 4.99039 4.99039C9.98079 0 18.0127 0 34.0765 0H45.9235C61.9873 0 70.0192 0 75.0096 4.99039C80 9.98079 80 18.0127 80 34.0765V45.9235C80 61.9873 80 70.0192 75.0096 75.0096C70.0192 80 61.9873 80 45.9235 80H34.0765C18.0127 80 9.98079 80 4.99039 75.0096C0 70.0192 0 61.9873 0 45.9235V34.0765Z" fill="#1B1D1E"/>
<g clip-path="url(#clip0_10906_29240)">
<path fill-rule="evenodd" clip-rule="evenodd" d="M46.2043 17.3802L20.7618 19.2571C18.7092 19.4343 17.9951 20.7739 17.9951 22.3794V50.2362C17.9951 51.4867 18.4398 52.5567 19.5125 53.9867L25.4932 61.7537C26.4758 63.0041 27.3692 63.2723 29.2452 63.1832L58.791 61.3968C61.2892 61.2191 62.0051 60.0573 62.0051 58.0936V26.7544C62.0051 25.7395 61.6037 25.447 60.422 24.5809L52.0976 18.7193C50.1329 17.2925 49.3296 17.112 46.2043 17.3797V17.3802ZM29.9133 26.2415C27.5007 26.4036 26.9535 26.4403 25.5833 25.3276L22.0998 22.5603C21.7458 22.2021 21.9237 21.7553 22.8157 21.6662L47.2743 19.8811C49.3282 19.702 50.3977 20.4171 51.201 21.0416L55.3958 24.0771C55.5752 24.1676 56.0212 24.7017 55.4846 24.7017L30.226 26.2203L29.9133 26.2415ZM27.1007 57.8259V31.2213C27.1007 30.0595 27.4579 29.5236 28.5275 29.4336L57.5385 27.7372C58.5225 27.6485 58.9672 28.2731 58.9672 29.4331V55.8604C58.9672 57.0222 58.7878 58.005 57.1817 58.0936L29.4199 59.7009C27.8138 59.7895 27.1011 59.2555 27.1011 57.8259H27.1007ZM54.5052 32.6477C54.6831 33.4514 54.5052 34.255 53.7005 34.3469L52.3625 34.6118V54.2544C51.2006 54.879 50.131 55.2358 49.2372 55.2358C47.8086 55.2358 47.4517 54.789 46.3818 53.4508L37.6316 39.7015V53.004L40.3997 53.6299C40.3997 53.6299 40.3997 55.2372 38.1664 55.2372L32.0096 55.594C31.8303 55.2358 32.0096 54.3435 32.6335 54.1658L34.2415 53.7204V36.1319L32.01 35.9514C31.8307 35.1478 32.2767 33.9873 33.5274 33.8973L40.1335 33.4532L49.2376 47.3802V35.0591L46.917 34.7928C46.7377 33.8086 47.4517 33.0936 48.3438 33.0064L54.5052 32.6477Z" fill="white"/>
</g>
<defs>
<clipPath id="clip0_10906_29240">
<rect width="45.9235" height="45.9235" fill="white" transform="translate(17.0381 17.0381)"/>
</clipPath>
</defs>
</svg>
