<svg width="96" height="96" viewBox="0 0 96 96" fill="none" xmlns="http://www.w3.org/2000/svg">
<path d="M79.8553 65.8931C75.0905 60 71.7265 57 71.7265 40.7531C71.7265 25.875 64.2081 20.5744 58.0201 18C57.1982 17.6587 56.4244 16.875 56.174 16.0219C55.0885 12.2887 52.0455 9 48.0006 9C43.9557 9 40.9109 12.2906 39.8366 16.0256C39.5861 16.8881 38.8123 17.6587 37.9904 18C31.795 20.5781 24.284 25.86 24.284 40.7531C24.2747 57 20.9108 60 16.1459 65.8931C14.1717 68.3344 15.901 72 19.354 72H76.6658C80.1002 72 81.8184 68.3231 79.8553 65.8931Z" stroke="black" stroke-width="5" stroke-linecap="round" stroke-linejoin="round"/>
<path d="M59.875 72V75C59.875 78.1826 58.6239 81.2348 56.3969 83.4853C54.1699 85.7357 51.1494 87 48 87C44.8506 87 41.8301 85.7357 39.6031 83.4853C37.3761 81.2348 36.125 78.1826 36.125 75V72" stroke="black" stroke-width="5" stroke-linecap="round" stroke-linejoin="round"/>
</svg>
