<svg width="284" height="43" viewBox="0 0 284 43" fill="none" xmlns="http://www.w3.org/2000/svg">
<g clip-path="url(#clip0_28296_9414)">
<path d="M79.3238 14.1189V36.3958C79.3238 37.6972 79.3775 40.3114 79.4428 41.4554H77.7539L58.8491 17.1094V39.1444L62.4765 39.9813V41.4554H53.3139V39.9813L56.5805 39.0254V14.5988C55.9049 14.0422 54.5883 13.5239 53.7515 13.3243C53.5519 13.2821 53.1565 13.2053 52.8379 13.1631V11.689H60.6033L77.0131 33.0484V13.9999L73.3895 13.163V11.6889H82.5866V13.163L79.3238 14.1189ZM102.616 10.7715C94.5704 10.7715 87.281 16.9099 87.281 26.5914C87.281 36.1962 94.4898 42.3729 102.654 42.3729C110.742 42.3729 118.07 36.3536 118.07 25.7929C118.07 18.4223 112.493 10.7715 102.616 10.7715ZM103.334 40.6186C96.1634 40.6186 92.3786 32.4111 92.3786 25.5166C92.3786 18.6221 95.3266 12.5681 102.017 12.5681C108.312 12.5681 112.892 19.6201 112.892 27.3515C112.892 34.1617 110.063 40.6186 103.334 40.6186ZM149.915 11.6889V13.163L146.648 14.1611L136.445 41.4554H133.39L123.072 14.1611L119.767 13.163V11.6889H131.835V13.163L128.208 14.0805L136.215 35.7969L144.26 13.9999L140.994 13.163V11.6889H149.915ZM206.717 38.9448L198.791 26.91C199.827 26.6336 205.719 25.1172 205.719 19.5394C205.719 14.998 202.295 11.5316 193.812 11.5316C188.596 11.5316 183.337 11.689 182.661 11.689V13.1631L186.123 14.119V39.0255L182.661 39.9814V41.4555H194.887V39.9814L190.864 39.0255V27.7892H194.33L203.17 41.4555H210.978V40.0197L206.717 38.9448ZM192.776 25.6355H190.864V13.8003C197.236 13.8003 200.902 14.6794 200.902 19.858C200.902 23.6853 197.754 25.6355 192.776 25.6355ZM256.722 41.4561V39.9818L252.54 39.0254V14.1207L256.722 13.1643V11.69H243.658V13.1643L247.84 14.1207V39.0255L243.658 39.9819V41.4562L256.722 41.4561ZM263.949 40.4999C266.299 41.6156 269.605 42.3727 272.473 42.3727C278.885 42.3727 283.465 38.8661 283.465 33.8851C283.465 29.9402 281.633 27.5892 276.415 24.8397L272.911 23.0067C269.525 21.2136 268.131 19.6993 268.131 17.3085C268.131 14.3997 270.521 12.7261 273.867 12.7261C275.181 12.7261 276.575 13.0051 277.969 13.6028L280.398 18.8228H281.673L280.956 11.8893C279.283 11.2916 276.057 10.7736 273.986 10.7736C267.893 10.7736 264.109 13.8419 264.109 18.8228C264.109 22.17 266.419 24.9992 271.159 27.4697L274.146 29.0237C277.531 30.777 278.965 32.6099 278.965 35.1204C278.965 38.5074 276.017 40.46 272.274 40.46C270.481 40.46 268.769 39.9021 266.658 38.5872L264.348 33.2875H263.113L263.949 40.4999ZM178.696 39.9813V41.4554H165.952V39.9813L170.094 39.0638L167.269 31.294H156.194L153.289 39.1445L157.031 39.9814V41.4555H147.312V39.9814L150.859 38.9871L150.978 38.6262L161.092 11.689L164.559 10.8138L175.153 38.9833L178.696 39.9813ZM166.432 28.983L161.772 16.2726L157.07 28.983H166.432ZM213.175 11.6901L212.498 19.022H213.812L215.883 14.0012H222.774V39.0255L218.632 39.9819V41.4562H231.695V39.9819L227.553 39.0255V14.0013H234.443L236.514 19.0221H237.829L237.152 11.6902L213.175 11.6901Z" fill="#BFBFBF"/>
<path d="M15.1163 0H22.3975C22.3975 1.6174 22.4966 0.0200005 19.277 33.1744H18.2368C15.0163 0.00970078 15.1163 1.6176 15.1163 0ZM18.6528 42.378C3.0087 42.378 -2.1154 32.6611 0.762 23.8148C2.7584 17.6767 7.1482 12.6042 4.9747 7.1236C4.0856 5.1867 3.733 4.9302 3.1544 4.3678L3.8305 3.0678C6.2555 3.7058 8.6034 5.625 9.8634 8.6836C12.5835 15.2864 8.8253 19.4414 6.7429 25.9467C4.3449 33.4378 8.6784 40.35 18.6528 40.35C33.8444 40.35 34.7617 22.7844 25.918 18.9402L26.1992 17.4419C41.0396 19.8351 43.5528 42.378 18.6528 42.378Z" fill="#BFBFBF"/>
</g>
<defs>
<clipPath id="clip0_28296_9414">
<rect width="283.465" height="42.378" fill="white"/>
</clipPath>
</defs>
</svg>
