<svg width="74" height="74" viewBox="0 0 74 74" fill="none" xmlns="http://www.w3.org/2000/svg">
<g clip-path="url(#clip0_3368_19626)">
<path d="M34.3761 0.310264C50.7254 -0.817201 61.5664 7.13974 67.7648 16.8342C70.8728 21.6953 73.9224 29.0776 73.9363 36.6631C73.9513 44.9049 71.2668 52.0417 67.7648 57.2786C64.166 62.6609 59.5106 67.1067 53.6817 70.0257C43.9374 74.9052 30.3197 75.0386 21.4001 70.3404C11.4664 65.1085 3.82911 57.6399 0.987043 44.689C-0.150418 39.5059 -0.281074 32.8093 1.30328 27.0636C1.6753 25.7156 2.35113 24.2972 2.8859 22.9717C5.45653 16.603 9.83178 11.0649 15.2289 7.2346C17.3974 5.69548 20.0285 4.16469 22.3496 3.14301C25.2379 1.87152 30.1005 0.605497 34.3761 0.310264Z" fill="white"/>
<path d="M65.3893 37.5796C65.3893 52.9467 52.8628 65.4034 37.411 65.4034C21.9588 65.4034 9.43262 52.9467 9.43262 37.5796C9.43262 22.2128 21.9588 9.75519 37.411 9.75519C52.8628 9.75519 65.3893 22.2128 65.3893 37.5796Z" fill="black"/>
<path d="M34.3761 0.310264C50.7254 -0.817201 61.5664 7.13974 67.7648 16.8342C70.8728 21.6953 73.9224 29.0776 73.9363 36.6631C73.9513 44.9049 71.2668 52.0417 67.7648 57.2786C64.166 62.6609 59.5106 67.1067 53.6817 70.0257C43.9374 74.9052 30.3197 75.0386 21.4001 70.3404C11.4664 65.1085 3.82911 57.6399 0.987043 44.689C-0.150418 39.5059 -0.281074 32.8093 1.30328 27.0636C1.6753 25.7156 2.35113 24.2972 2.8859 22.9717C5.45653 16.603 9.83178 11.0649 15.2289 7.2346C17.3974 5.69548 20.0285 4.16469 22.3496 3.14301C25.2379 1.87152 30.1005 0.605497 34.3761 0.310264ZM28.8376 2.98577C22.7644 4.55162 18.312 7.35678 14.4374 10.3824C8.85099 14.7445 5.28916 20.8326 3.20271 28.1649C0.881246 36.3222 2.37223 46.1937 5.5762 52.3999C8.89868 58.8358 13.3598 63.8315 19.6596 67.3502C25.7889 70.7731 34.4093 72.9711 43.396 71.2845C51.3808 69.7856 57.445 66.3265 62.3851 61.2126C68.9948 54.3702 74.3072 41.7677 70.7719 28.4794C69.827 24.9279 68.5915 21.2264 66.6577 18.093C65.6127 16.4001 64.0793 14.7347 62.5435 13.0571C56.746 6.72549 47.3761 1.26956 35.3256 2.04113C33.0325 2.18774 31.0172 2.42347 28.8376 2.98548V2.98577Z" fill="black"/>
<path d="M39.1898 71.0364L71.5203 38.8847L71.346 38.711L39.0155 70.8628L39.1898 71.0364ZM36.3636 68.49L68.8349 36.1983L68.6606 36.0246L36.189 68.3163L36.3636 68.49ZM33.5372 65.9441L66.1498 33.5115L65.9752 33.3379L33.3629 65.7705L33.5372 65.9441ZM30.7107 63.3977L63.4644 30.8251L63.2901 30.6515L30.5364 63.2244L30.7107 63.3977ZM27.8846 60.8516L60.7793 28.1384L60.6047 27.9648L27.71 60.6782L27.8846 60.8516ZM25.0581 58.306L58.0936 25.452L57.9193 25.2783L24.8835 58.1327L25.0581 58.306ZM22.2316 55.7593L55.4085 22.7653L55.2339 22.5919L22.0571 55.5857L22.2316 55.7593ZM19.4052 53.2131L52.7231 20.0788L52.5485 19.9052L19.2306 53.0395L19.4052 53.2131ZM16.5787 50.6667L50.0372 17.3921L49.8626 17.2188L16.4041 50.4934L16.5787 50.6667ZM13.7523 48.1206L47.3523 14.7057L47.178 14.5324L13.578 47.9469L13.7523 48.1206ZM10.9258 45.5744L44.6672 12.0193L44.4926 11.8456L10.7515 45.4011L10.9258 45.5744ZM8.09938 43.0283L41.9821 9.33256L41.8078 9.15921L7.92508 42.8547L8.09938 43.0283ZM5.27322 40.4819L39.2965 6.64613L39.1221 6.4725L5.09863 40.3088L5.27322 40.4822V40.4819ZM2.44677 37.9357L36.6111 3.95942L36.4368 3.78607L2.27246 37.7624L2.44677 37.9357Z" fill="white"/>
<path d="M2.26123 38.2609L35.2375 71.0571L35.4121 70.8838L2.43582 38.0873L2.26123 38.2609ZM4.93564 35.5633L37.9761 68.4236L38.1504 68.2503L5.10994 35.3899L4.93564 35.5633ZM7.60975 32.8656L40.7144 65.7898L40.8889 65.6162L7.78435 32.6923L7.60975 32.8656ZM10.2842 30.1683L43.4529 63.156L43.6272 62.9826L10.4585 29.9943L10.2842 30.1683ZM12.9583 27.4706L46.1912 60.5221L46.3655 60.3488L13.1326 27.2973L12.9583 27.4706ZM15.6324 24.773L48.9295 57.8883L49.1038 57.715L15.807 24.5996L15.6324 24.773ZM18.3065 22.0756L51.6681 55.2545L51.8427 55.0812L18.4811 21.902L18.3065 22.0756ZM20.9806 19.378L54.4067 52.6207L54.581 52.4473L21.1552 19.2047L20.9806 19.378ZM23.655 16.6804L57.1449 49.9869L57.3195 49.8135L23.8293 16.507L23.655 16.6804ZM26.3292 13.983L59.8835 47.3528L60.0578 47.1794L26.5035 13.8097L26.3292 13.983ZM29.0036 11.2854L62.6215 44.7195L62.7961 44.5459L29.1779 11.112L29.0036 11.2854ZM31.6777 8.58774L65.3598 42.0854L65.5344 41.9121L31.8517 8.4144L31.6777 8.58774ZM34.3518 5.89039L68.0984 39.4519L68.273 39.2785L34.5261 5.71705L34.3518 5.89039ZM37.0259 3.19275L70.837 36.8181L71.0113 36.6444L37.2005 3.01941L37.0262 3.19275H37.0259Z" fill="white"/>
<path d="M60.6443 13.2146C57.7346 10.3209 54.1571 7.71323 49.8839 6.133C45.4546 4.49498 40.444 3.11425 34.5344 3.61503C25.1208 4.41305 18.5117 8.6133 13.4883 13.5294C9.96987 16.9727 7.32321 21.1922 5.57612 26.1192C3.01098 33.3534 3.16678 41.8922 6.05076 49.2526C8.51068 55.531 12.5373 60.5948 18.2353 64.5174C23.5917 68.2057 31.2798 71.0657 39.9144 70.3404C50.4314 69.457 58.1262 64.0911 63.1759 57.9081C64.468 56.3265 65.7526 54.5384 66.4989 52.4002C67.2303 50.8593 67.5881 49.8123 67.9231 49.2529C69.3257 46.1272 70.0688 42.8297 70.2966 39.1811C70.9979 27.9593 66.6565 19.1937 60.6443 13.2149V13.2146ZM57.5449 47.4045C57.5247 47.4473 57.5068 47.487 57.4857 47.531C56.9639 49.0158 56.0652 50.2571 55.1619 51.3558C51.6304 55.6492 46.2495 59.3751 38.8949 59.9886C32.8564 60.4919 27.4801 58.5061 23.7344 55.9453C20.4796 53.7202 18.0052 50.9654 16.27 47.6549C16.1642 47.4557 15.1565 45.147 15.1536 45.0455C13.7791 40.8053 13.6598 33.9876 15.0707 29.8963C16.0121 27.1653 17.5815 24.211 19.6595 21.8701C22.5291 18.6383 25.4006 16.5671 29.9455 15.1033C32.0204 14.4349 33.8782 13.7545 36.4333 13.6869C42.664 13.5219 49.0089 16.304 52.4155 19.3524C55.5463 22.1532 59.1142 27.6097 60.0115 32.7288C60.9345 37.9975 59.9493 43.1418 57.5449 47.4045Z" fill="black"/>
<path d="M46.7148 52.4586C45.1804 52.4586 43.834 51.4924 43.3639 50.0541L41.6553 44.8759H33.1063L31.5184 50.0067C31.0392 51.4728 29.6826 52.4545 28.1405 52.4545C27.7702 52.4545 27.4025 52.3962 27.0472 52.2818C25.2039 51.7313 24.1575 49.7583 24.7223 47.8857L31.9379 25.155C32.4064 23.7091 33.7859 22.7003 35.2927 22.7003H39.1295C40.6447 22.7003 42.0241 23.6921 42.4835 25.1113L50.0719 47.8337C50.679 49.6914 49.6742 51.6858 47.8334 52.2815C47.4692 52.3993 47.0934 52.4586 46.7148 52.4586Z" fill="white"/>
<path d="M46.7149 51.9678C45.3404 51.9678 44.1365 51.104 43.7162 49.8176L42.0069 44.6385L41.9231 44.3852H32.8335L32.7532 44.6451L31.1654 49.7759C31.0374 50.1712 30.8322 50.5376 30.5615 50.8539C30.2909 51.1702 29.9601 51.4303 29.5881 51.6192C29.2162 51.8081 28.8104 51.9221 28.394 51.9547C27.9777 51.9873 27.5589 51.9379 27.1619 51.8092C25.5067 51.3147 24.571 49.5468 25.0771 47.8688L32.2913 25.1433C32.7098 23.8511 33.9476 22.9458 35.2932 22.9458H39.1299C40.4853 22.9458 41.7216 23.8347 42.1318 25.1016L49.7214 47.8271C50.2646 49.4898 49.365 51.2762 47.7194 51.8092C47.3928 51.9147 47.0543 51.9678 46.7149 51.9678ZM46.7149 52.7038C47.1323 52.7038 47.5474 52.6382 47.9478 52.5089C49.9845 51.8497 51.0936 49.6468 50.4242 47.5974L42.8348 24.8728C42.3269 23.304 40.805 22.2099 39.1296 22.2099H35.2929C33.6244 22.2099 32.1034 23.3224 31.586 24.9196L24.3695 47.6523C23.7451 49.7218 24.8994 51.902 26.941 52.5115C27.3255 52.6356 27.7316 52.6998 28.1406 52.6998C29.8441 52.6998 31.342 51.6148 31.8707 49.9978L33.4602 44.8615L33.1064 45.1211H41.6554L41.3037 44.8682L43.0126 50.0461C43.532 51.6355 45.0207 52.7038 46.7149 52.7038Z" fill="black"/>
<path d="M18.377 15.4563L18.368 15.4439C17.4681 14.2176 17.7321 12.502 19.0574 11.5401C20.3825 10.5785 22.0848 10.8484 22.9846 12.0748L22.9939 12.0868C23.8937 13.3132 23.6298 15.0291 22.3045 15.9907C20.9791 16.9526 19.2768 16.683 18.377 15.4563ZM21.7879 12.9806L21.7789 12.9685C21.3268 12.3522 20.4848 12.1406 19.8286 12.6167C19.1782 13.0887 19.1277 13.9295 19.5797 14.5459L19.5887 14.558C20.0411 15.1743 20.8828 15.3862 21.5332 14.9144C22.1894 14.4378 22.2403 13.5969 21.7879 12.9806ZM27.0526 7.41773L28.4048 6.98652L32.1959 11.369L30.6916 11.8491L30.0328 11.0675L28.0802 11.6907L28.0085 12.7052L26.5334 13.1758L27.0526 7.41773ZM29.2775 10.1111L28.2513 8.85969L28.1421 10.4733L29.2775 10.1111ZM34.6315 8.73636L34.6431 5.76764L36.1396 5.77339L36.128 8.71193C36.1248 9.47488 36.5107 9.83882 37.1033 9.84169C37.6959 9.8437 38.0844 9.49788 38.0873 8.75792L38.0991 5.78173L39.5956 5.78747L39.584 8.71825C39.5771 10.4255 38.5943 11.1695 37.0828 11.1635C35.5713 11.1572 34.6249 10.3905 34.6315 8.73636ZM44.9993 8.21776L43.4739 7.75465L43.8509 6.52657L48.3111 7.88027L47.9342 9.10835L46.4088 8.64552L45.2337 12.4744L43.8246 12.0466L44.9993 8.21776ZM52.295 9.59389L53.5215 10.4057L52.4193 12.0532L53.9938 13.0953L55.0963 11.4478L56.3228 12.2596L53.3772 16.6617L52.1504 15.8496L53.27 14.1771L51.6952 13.135L50.5759 14.8075L49.3494 13.9957L52.295 9.59389Z" fill="white"/>
<path d="M56.628 57.7144L56.6376 57.7262C57.584 58.9175 57.386 60.6423 56.0985 61.6536C54.8113 62.6652 53.0995 62.46 52.1531 61.2687L52.1438 61.2569C51.1971 60.0653 51.3954 58.3408 52.6826 57.3292C53.9701 56.3181 55.6816 56.5231 56.6283 57.7144H56.628ZM53.3142 60.318L53.3238 60.3298C53.7993 60.9286 54.6485 61.1083 55.2865 60.6072C55.9181 60.1108 55.9366 59.2687 55.4608 58.6699L55.4513 58.6582C54.976 58.0594 54.1265 57.8797 53.4946 58.3761C52.8569 58.8772 52.8387 59.7192 53.3142 60.318ZM48.3106 66.0916L46.9786 66.5818L42.9973 62.3691L44.4787 61.8235L45.1716 62.5755L47.095 61.8675L47.1214 60.851L48.5745 60.3163L48.3106 66.0916ZM45.9686 63.4986L47.0491 64.7034L47.087 63.0867L45.9686 63.4986ZM40.6862 65.086L40.8178 68.0519L39.3233 68.1174L39.1927 65.1818C39.1588 64.42 38.7559 64.0747 38.1639 64.1006C37.5722 64.1265 37.2004 64.4907 37.2331 65.2303L37.3652 68.2034L35.8708 68.2689L35.7407 65.341C35.6646 63.6357 36.6108 62.8458 38.1205 62.7794C39.6306 62.7132 40.6128 63.4334 40.6862 65.086ZM30.2996 66.0557L31.8395 66.4693L31.503 67.7092L27 66.5004L27.3365 65.2605L28.8766 65.6739L29.9259 61.8083L31.3487 62.1903L30.2996 66.0557ZM23.0202 64.9785L21.7561 64.2253L22.7794 62.5275L21.1572 61.5605L20.1339 63.2583L18.8701 62.5051L21.6038 57.9691L22.8676 58.7226L21.829 60.4462L23.4512 61.4133L24.4898 59.6896L25.7539 60.4431L23.0202 64.9785Z" fill="white"/>
</g>
<defs>
<clipPath id="clip0_3368_19626">
<rect width="74" height="73.5928" fill="white" transform="translate(0 0.203613)"/>
</clipPath>
</defs>
</svg>
