<svg width="164" height="51" viewBox="0 0 164 51" fill="none" xmlns="http://www.w3.org/2000/svg">
<g clip-path="url(#clip0_5224_19472)">
<g clip-path="url(#clip1_5224_19472)">
<path d="M23.2278 0.859652C34.2746 0.0936366 41.5996 5.49969 45.7877 12.0862C47.8877 15.3889 49.9483 20.4046 49.9576 25.5583C49.9678 31.1579 48.1539 36.0067 45.7877 39.5647C43.3561 43.2216 40.2106 46.2421 36.2721 48.2253C29.6881 51.5405 20.4869 51.6311 14.4602 48.4391C7.74826 44.8844 2.58791 39.8102 0.667601 31.0112C-0.100954 27.4897 -0.189235 22.9399 0.881273 19.0362C1.13264 18.1204 1.58928 17.1567 1.95061 16.2561C3.68752 11.9292 6.64377 8.16649 10.2905 5.56414C11.7557 4.51844 13.5334 3.4784 15.1018 2.78426C17.0533 1.92039 20.3389 1.06024 23.2278 0.859652Z" fill="white"/>
<path d="M44.1816 26.1807C44.1816 36.6213 35.7178 45.0846 25.2773 45.0846C14.8367 45.0846 6.37305 36.6213 6.37305 26.1807C6.37305 15.7402 14.8367 7.27637 25.2773 7.27637C35.7178 7.27637 44.1816 15.7402 44.1816 26.1807Z" fill="black"/>
<path d="M23.2278 0.859652C34.2746 0.0936366 41.5996 5.49969 45.7877 12.0862C47.8877 15.3889 49.9483 20.4046 49.9576 25.5583C49.9678 31.1579 48.1539 36.0067 45.7877 39.5647C43.3561 43.2216 40.2106 46.2421 36.2721 48.2253C29.6881 51.5405 20.4869 51.6311 14.4602 48.4391C7.74826 44.8844 2.58791 39.8102 0.667601 31.0112C-0.100954 27.4897 -0.189235 22.9399 0.881273 19.0362C1.13264 18.1204 1.58928 17.1567 1.95061 16.2561C3.68752 11.9292 6.64377 8.16649 10.2905 5.56414C11.7557 4.51844 13.5334 3.4784 15.1018 2.78426C17.0533 1.92039 20.3389 1.06024 23.2278 0.859652ZM19.4856 2.67743C15.3821 3.74129 12.3737 5.64715 9.75569 7.70282C5.98108 10.6665 3.57444 14.8028 2.16467 19.7845C0.596116 25.3266 1.60354 32.0335 3.76838 36.2501C6.0133 40.6227 9.02756 44.0169 13.2842 46.4075C17.4256 48.7331 23.2502 50.2264 29.3223 49.0805C34.7174 48.0622 38.8149 45.712 42.1528 42.2376C46.6188 37.5887 50.2082 29.0264 47.8196 19.9981C47.1811 17.5852 46.3463 15.0704 45.0397 12.9415C44.3336 11.7913 43.2975 10.6598 42.2598 9.52C38.3426 5.21825 32.0115 1.51141 23.8694 2.03563C22.3199 2.13524 20.9582 2.29539 19.4856 2.67723V2.67743Z" fill="black"/>
<path d="M26.4793 48.9115L48.3242 27.0672L48.2064 26.9492L26.3615 48.7936L26.4793 48.9115ZM24.5697 47.1814L46.5098 25.242L46.392 25.124L24.4518 47.0635L24.5697 47.1814ZM22.66 45.4518L44.6955 23.4166L44.5775 23.2986L22.5422 45.3338L22.66 45.4518ZM20.7502 43.7217L42.8811 21.5914L42.7633 21.4734L20.6324 43.6039L20.7502 43.7217ZM18.8406 41.9918L41.0668 19.766L40.9488 19.648L18.7227 41.874L18.8406 41.9918ZM16.9309 40.2623L39.2522 17.9408L39.1344 17.8229L16.8129 40.1445L16.9309 40.2623ZM15.0211 38.532L37.4379 16.1154L37.3199 15.9977L14.9031 38.4141L15.0211 38.532ZM13.1113 36.8021L35.6234 14.2902L35.5055 14.1723L12.9934 36.6842L13.1113 36.8021ZM11.2016 35.0721L33.8086 12.4648L33.6906 12.3471L11.0836 34.9543L11.2016 35.0721ZM9.2918 33.3422L31.9945 10.6396L31.8768 10.5219L9.17402 33.2242L9.2918 33.3422ZM7.38203 31.6123L30.1803 8.81445L30.0623 8.69648L7.26426 31.4945L7.38203 31.6123ZM5.47227 29.8824L28.366 6.98906L28.2482 6.87129L5.35449 29.7645L5.47227 29.8824ZM3.5627 28.1523L26.5514 5.16387L26.4336 5.0459L3.44473 28.0348L3.5627 28.1525V28.1523ZM1.65293 26.4225L24.7369 3.33848L24.6191 3.2207L1.53516 26.3047L1.65293 26.4225Z" fill="white"/>
<path d="M1.52734 26.6438L23.8086 48.926L23.9266 48.8082L1.64531 26.5258L1.52734 26.6438ZM3.33438 24.8109L25.659 47.1367L25.7768 47.0189L3.45215 24.6932L3.33438 24.8109ZM5.14121 22.9781L27.5092 45.3473L27.6271 45.2293L5.25918 22.8604L5.14121 22.9781ZM6.94824 21.1455L29.3596 43.5578L29.4773 43.44L7.06602 21.0273L6.94824 21.1455ZM8.75508 19.3127L31.2098 41.7684L31.3275 41.6506L8.87285 19.1949L8.75508 19.3127ZM10.5619 17.4799L33.06 39.9789L33.1777 39.8611L10.6799 17.3621L10.5619 17.4799ZM12.3687 15.6473L34.9104 38.1895L35.0283 38.0717L12.4867 15.5293L12.3687 15.6473ZM14.1756 13.8145L36.7607 36.4L36.8785 36.2822L14.2936 13.6967L14.1756 13.8145ZM15.9826 11.9816L38.6109 34.6105L38.7289 34.4928L16.1004 11.8639L15.9826 11.9816ZM17.7895 10.149L40.4613 32.8209L40.5791 32.7031L17.9072 10.0313L17.7895 10.149ZM19.5965 8.31621L42.3113 31.0318L42.4293 30.9139L19.7143 8.19844L19.5965 8.31621ZM21.4033 6.4834L44.1615 29.2422L44.2795 29.1244L21.5209 6.36563L21.4033 6.4834ZM23.2102 4.65078L46.0119 27.4529L46.1299 27.3352L23.3279 4.53301L23.2102 4.65078ZM25.017 2.81797L47.8623 25.6635L47.9801 25.5455L25.135 2.7002L25.0172 2.81797H25.017Z" fill="white"/>
<path d="M40.9761 9.62702C39.0101 7.66101 36.5929 5.88933 33.7056 4.81569C30.7128 3.7028 27.3273 2.76472 23.3343 3.10495C16.9738 3.64714 12.5082 6.50085 9.11402 9.84089C6.73668 12.1803 4.9484 15.0471 3.76793 18.3946C2.03472 23.3096 2.14 29.111 4.08863 34.1118C5.75074 38.3774 8.47144 41.8178 12.3214 44.4829C15.9406 46.9887 21.1353 48.9319 26.9695 48.4391C34.0755 47.8389 39.2748 44.1932 42.6867 39.9924C43.5597 38.9178 44.4277 37.703 44.932 36.2503C45.4261 35.2034 45.6679 34.4921 45.8943 34.112C46.8419 31.9883 47.3441 29.7479 47.498 27.269C47.9718 19.6448 45.0384 13.6893 40.9761 9.62722V9.62702ZM38.882 32.8561C38.8683 32.8852 38.8562 32.9122 38.8419 32.9421C38.4894 33.9508 37.8822 34.7942 37.2718 35.5407C34.8857 38.4577 31.25 40.9891 26.2806 41.4059C22.2005 41.7479 18.5679 40.3987 16.0371 38.6589C13.8378 37.1471 12.166 35.2755 10.9935 33.0262C10.922 32.8909 10.2412 31.3223 10.2392 31.2534C9.3105 28.3725 9.22984 23.7405 10.1832 20.9608C10.8193 19.1053 11.8796 17.0981 13.2837 15.5077C15.2226 13.312 17.1628 11.9048 20.2337 10.9102C21.6357 10.4561 22.891 9.99382 24.6173 9.94792C28.8273 9.83581 33.1144 11.726 35.4162 13.7971C37.5316 15.7001 39.9423 19.4073 40.5486 22.8852C41.1722 26.4649 40.5066 29.96 38.882 32.8561Z" fill="black"/>
<path d="M31.5648 36.2895C30.5281 36.2895 29.6184 35.633 29.3008 34.6559L28.1463 31.1377H22.3699L21.2971 34.6236C20.9732 35.6197 20.0566 36.2867 19.0147 36.2867C18.7645 36.2867 18.516 36.2471 18.276 36.1693C17.0305 35.7953 16.3234 34.4549 16.7051 33.1826L21.5805 17.7391C21.8971 16.7566 22.8291 16.0713 23.8473 16.0713H26.4397C27.4635 16.0713 28.3955 16.7451 28.7059 17.7094L33.8332 33.1473C34.2434 34.4094 33.5645 35.7645 32.3207 36.1691C32.0746 36.2492 31.8207 36.2895 31.5648 36.2895Z" fill="white"/>
<path d="M31.5644 35.9562C30.6357 35.9562 29.8222 35.3693 29.5382 34.4953L28.3833 30.9766L28.3267 30.8045H22.1851L22.1308 30.9811L21.0579 34.467C20.9715 34.7356 20.8328 34.9845 20.6499 35.1994C20.467 35.4143 20.2435 35.591 19.9922 35.7194C19.7409 35.8477 19.4667 35.9252 19.1854 35.9473C18.9041 35.9695 18.6212 35.9359 18.3528 35.8484C17.2345 35.5125 16.6023 34.3113 16.9443 33.1713L21.8187 17.7312C22.1015 16.8533 22.9378 16.2383 23.847 16.2383H26.4394C27.3552 16.2383 28.1905 16.8422 28.4677 17.7029L33.5958 33.143C33.9628 34.2727 33.355 35.4863 32.2431 35.8484C32.0224 35.9201 31.7937 35.9562 31.5644 35.9562ZM31.5644 36.4562C31.8464 36.4562 32.1269 36.4117 32.3974 36.3238C33.7736 35.876 34.523 34.3793 34.0706 32.9869L28.9427 17.5475C28.5995 16.4816 27.5712 15.7383 26.4392 15.7383H23.8468C22.7194 15.7383 21.6917 16.4941 21.3421 17.5793L16.4661 33.0242C16.0443 34.4303 16.8241 35.9115 18.2036 36.3256C18.4634 36.41 18.7378 36.4535 19.0142 36.4535C20.1652 36.4535 21.1773 35.7164 21.5345 34.6178L22.6085 31.1281L22.3694 31.3045H28.1458L27.9081 31.1326L29.0628 34.6506C29.4138 35.7305 30.4196 36.4562 31.5644 36.4562Z" fill="black"/>
<path d="M12.4174 11.15L12.4114 11.1416C11.8034 10.3084 11.9817 9.14277 12.8772 8.48926C13.7725 7.83594 14.9227 8.01934 15.5307 8.85254L15.537 8.86074C16.145 9.69395 15.9667 10.8598 15.0711 11.5131C14.1756 12.1666 13.0254 11.9834 12.4174 11.15ZM14.7221 9.46797L14.7161 9.45977C14.4106 9.04102 13.8417 8.89727 13.3983 9.2207C12.9588 9.54141 12.9247 10.1127 13.2301 10.5314L13.2362 10.5396C13.5419 10.9584 14.1106 11.1023 14.5501 10.7818C14.9934 10.458 15.0278 9.88672 14.7221 9.46797ZM18.2794 5.68848L19.193 5.39551L21.7545 8.37305L20.7381 8.69922L20.293 8.16816L18.9737 8.5916L18.9252 9.28086L17.9286 9.60059L18.2794 5.68848ZM19.7827 7.51836L19.0893 6.66816L19.0155 7.76445L19.7827 7.51836ZM23.4002 6.58437L23.4081 4.56738L24.4192 4.57129L24.4114 6.56777C24.4092 7.08613 24.67 7.3334 25.0704 7.33535C25.4708 7.33672 25.7333 7.10176 25.7352 6.59902L25.7432 4.57695L26.7544 4.58086L26.7465 6.57207C26.7418 7.73203 26.0778 8.2375 25.0565 8.2334C24.0352 8.2291 23.3958 7.7082 23.4002 6.58437ZM30.4055 6.23203L29.3749 5.91738L29.6295 5.08301L32.6432 6.00273L32.3885 6.83711L31.3579 6.52266L30.5639 9.12402L29.6118 8.8334L30.4055 6.23203ZM35.335 7.16699L36.1637 7.71855L35.419 8.83789L36.4829 9.5459L37.2278 8.42656L38.0565 8.97812L36.0663 11.9689L35.2374 11.4172L35.9938 10.2809L34.9297 9.57285L34.1735 10.7092L33.3448 10.1576L35.335 7.16699Z" fill="white"/>
<path d="M38.2621 39.8612L38.2686 39.8692C38.908 40.6786 38.7742 41.8504 37.9043 42.5375C37.0346 43.2248 35.8779 43.0854 35.2385 42.276L35.2322 42.268C34.5926 41.4584 34.7266 40.2868 35.5963 39.5995C36.4662 38.9125 37.6227 39.0518 38.2623 39.8612H38.2621ZM36.0231 41.6301L36.0295 41.6381C36.3508 42.045 36.9246 42.167 37.3557 41.8266C37.7824 41.4893 37.7949 40.9172 37.4734 40.5104L37.467 40.5024C37.1459 40.0955 36.5719 39.9735 36.1449 40.3108C35.7141 40.6512 35.7018 41.2233 36.0231 41.6301ZM32.6422 45.5528L31.7422 45.8858L29.0521 43.0237L30.0531 42.653L30.5213 43.1639L31.8209 42.6829L31.8387 41.9922L32.8205 41.6289L32.6422 45.5528ZM31.0598 43.7911L31.7898 44.6096L31.8154 43.5112L31.0598 43.7911ZM27.4906 44.8696L27.5795 46.8846L26.5697 46.9291L26.4814 44.9346C26.4586 44.417 26.1863 44.1825 25.7863 44.2C25.3865 44.2176 25.1354 44.4651 25.1574 44.9676L25.2467 46.9875L24.2369 47.0321L24.149 45.0428C24.0977 43.8842 24.7369 43.3475 25.757 43.3024C26.7773 43.2575 27.441 43.7467 27.4906 44.8696ZM20.4727 45.5284L21.5131 45.8094L21.2857 46.6518L18.2432 45.8305L18.4705 44.9881L19.5111 45.269L20.2201 42.6426L21.1814 42.9022L20.4727 45.5284ZM15.5541 44.7965L14.7 44.2848L15.3914 43.1313L14.2953 42.4743L13.6039 43.6278L12.75 43.1161L14.5971 40.0342L15.451 40.5461L14.7492 41.7172L15.8453 42.3743L16.5471 41.2032L17.4012 41.7151L15.5541 44.7965Z" fill="white"/>
</g>
</g>
<path d="M84.0341 25.5144C84.0341 27.0485 83.7571 28.3742 83.2031 29.4917C82.6491 30.6091 81.8892 31.4708 80.9233 32.0769C79.9574 32.6829 78.8542 32.986 77.6136 32.986C76.3731 32.986 75.2699 32.6829 74.304 32.0769C73.3381 31.4708 72.5781 30.6091 72.0241 29.4917C71.4702 28.3742 71.1932 27.0485 71.1932 25.5144C71.1932 23.9803 71.4702 22.6545 72.0241 21.5371C72.5781 20.4197 73.3381 19.5579 74.304 18.9519C75.2699 18.3458 76.3731 18.0428 77.6136 18.0428C78.8542 18.0428 79.9574 18.3458 80.9233 18.9519C81.8892 19.5579 82.6491 20.4197 83.2031 21.5371C83.7571 22.6545 84.0341 23.9803 84.0341 25.5144ZM82.3295 25.5144C82.3295 24.2549 82.1188 23.1919 81.6974 22.3255C81.2808 21.459 80.715 20.8032 80 20.3581C79.2898 19.9131 78.4943 19.6905 77.6136 19.6905C76.733 19.6905 75.9351 19.9131 75.2202 20.3581C74.5099 20.8032 73.9441 21.459 73.5227 22.3255C73.1061 23.1919 72.8977 24.2549 72.8977 25.5144C72.8977 26.7739 73.1061 27.8368 73.5227 28.7033C73.9441 29.5698 74.5099 30.2256 75.2202 30.6706C75.9351 31.1157 76.733 31.3382 77.6136 31.3382C78.4943 31.3382 79.2898 31.1157 80 30.6706C80.715 30.2256 81.2808 29.5698 81.6974 28.7033C82.1188 27.8368 82.3295 26.7739 82.3295 25.5144ZM86.9087 32.7871H85.0621L90.4031 18.2417H92.2212L97.5621 32.7871H95.7156L91.369 20.5428H91.2553L86.9087 32.7871ZM87.5906 27.1053H95.0337V28.6678H87.5906V27.1053ZM106.475 28.3269V21.878H108.152V32.7871H106.475V30.9405H106.362C106.106 31.4945 105.708 31.9656 105.169 32.3539C104.629 32.7374 103.947 32.9292 103.123 32.9292C102.441 32.9292 101.835 32.78 101.305 32.4817C100.775 32.1787 100.358 31.7241 100.055 31.1181C99.752 30.5073 99.6005 29.7379 99.6005 28.8098V21.878H101.277V28.6962C101.277 29.4917 101.499 30.1261 101.944 30.5996C102.394 31.0731 102.967 31.3098 103.663 31.3098C104.08 31.3098 104.503 31.2033 104.934 30.9902C105.37 30.7772 105.734 30.4505 106.028 30.0101C106.326 29.5698 106.475 29.0087 106.475 28.3269ZM115.966 21.878V23.2985H110.312V21.878H115.966ZM111.96 19.2644H113.636V29.6621C113.636 30.1356 113.705 30.4907 113.842 30.7275C113.984 30.9595 114.164 31.1157 114.382 31.1962C114.605 31.272 114.839 31.3098 115.085 31.3098C115.27 31.3098 115.421 31.3004 115.54 31.2814C115.658 31.2578 115.753 31.2388 115.824 31.2246L116.165 32.7303C116.051 32.7729 115.893 32.8155 115.689 32.8581C115.485 32.9055 115.227 32.9292 114.915 32.9292C114.441 32.9292 113.977 32.8274 113.523 32.6238C113.073 32.4202 112.699 32.11 112.401 31.6934C112.107 31.2767 111.96 30.7511 111.96 30.1167V19.2644ZM120.398 26.2246V32.7871H118.722V18.2417H120.398V23.5826H120.54C120.795 23.0191 121.179 22.5717 121.69 22.2402C122.206 21.9041 122.893 21.736 123.75 21.736C124.493 21.736 125.144 21.8851 125.703 22.1834C126.262 22.477 126.695 22.9292 127.003 23.54C127.315 24.146 127.472 24.9178 127.472 25.8553V32.7871H125.795V25.9689C125.795 25.1025 125.571 24.4325 125.121 23.959C124.676 23.4808 124.058 23.2417 123.267 23.2417C122.718 23.2417 122.225 23.3577 121.79 23.5897C121.359 23.8217 121.018 24.1602 120.767 24.6053C120.521 25.0504 120.398 25.5901 120.398 26.2246ZM136.135 32.7871V31.5087L140.936 26.253C141.499 25.6375 141.963 25.1024 142.328 24.6479C142.692 24.1886 142.962 23.7578 143.137 23.3553C143.317 22.9481 143.407 22.522 143.407 22.0769C143.407 21.5655 143.284 21.1228 143.038 20.7488C142.797 20.3747 142.465 20.0859 142.044 19.8823C141.622 19.6787 141.149 19.5769 140.623 19.5769C140.065 19.5769 139.577 19.6929 139.16 19.9249C138.748 20.1522 138.429 20.4718 138.201 20.8837C137.979 21.2956 137.868 21.7786 137.868 22.3326H136.191C136.191 21.4803 136.388 20.7322 136.781 20.0882C137.174 19.4443 137.709 18.9424 138.386 18.5826C139.068 18.2227 139.833 18.0428 140.68 18.0428C141.532 18.0428 142.288 18.2227 142.946 18.5826C143.604 18.9424 144.12 19.4277 144.494 20.0385C144.868 20.6493 145.055 21.3288 145.055 22.0769C145.055 22.6119 144.958 23.1351 144.764 23.6465C144.574 24.1531 144.243 24.7189 143.77 25.3439C143.301 25.9642 142.65 26.7218 141.816 27.6167L138.549 31.111V31.2246H145.311V32.7871H136.135ZM149.494 32.9007C149.144 32.9007 148.843 32.7753 148.592 32.5243C148.341 32.2734 148.216 31.9727 148.216 31.6223C148.216 31.272 148.341 30.9713 148.592 30.7203C148.843 30.4694 149.144 30.3439 149.494 30.3439C149.844 30.3439 150.145 30.4694 150.396 30.7203C150.647 30.9713 150.772 31.272 150.772 31.6223C150.772 31.8543 150.713 32.0674 150.595 32.2615C150.481 32.4557 150.327 32.6119 150.133 32.7303C149.944 32.8439 149.731 32.9007 149.494 32.9007ZM157.988 32.986C156.918 32.986 156.007 32.6948 155.254 32.1124C154.501 31.5253 153.926 30.6754 153.528 29.5627C153.13 28.4453 152.931 27.0958 152.931 25.5144C152.931 23.9424 153.13 22.6001 153.528 21.4874C153.931 20.37 154.508 19.5177 155.261 18.9306C156.019 18.3387 156.928 18.0428 157.988 18.0428C159.049 18.0428 159.956 18.3387 160.708 18.9306C161.466 19.5177 162.044 20.37 162.441 21.4874C162.844 22.6001 163.045 23.9424 163.045 25.5144C163.045 27.0958 162.846 28.4453 162.449 29.5627C162.051 30.6754 161.475 31.5253 160.723 32.1124C159.97 32.6948 159.058 32.986 157.988 32.986ZM157.988 31.4235C159.049 31.4235 159.873 30.9121 160.46 29.8894C161.047 28.8667 161.341 27.4083 161.341 25.5144C161.341 24.2549 161.206 23.1825 160.936 22.2971C160.671 21.4116 160.287 20.7369 159.785 20.2729C159.288 19.8089 158.689 19.5769 157.988 19.5769C156.937 19.5769 156.116 20.0953 155.524 21.1323C154.932 22.1645 154.636 23.6252 154.636 25.5144C154.636 26.7739 154.769 27.8439 155.034 28.7246C155.299 29.6053 155.68 30.2753 156.177 30.7346C156.679 31.1938 157.283 31.4235 157.988 31.4235Z" fill="white"/>
<defs>
<clipPath id="clip0_5224_19472">
<rect width="50" height="50" fill="white" transform="translate(0 0.787109)"/>
</clipPath>
<clipPath id="clip1_5224_19472">
<rect width="50" height="50" fill="white" transform="translate(0 0.787109)"/>
</clipPath>
</defs>
</svg>
