<svg width="50" height="50" viewBox="0 0 50 50" fill="none" xmlns="http://www.w3.org/2000/svg">
<path d="M25.0002 32.9763C20.2574 32.9763 16.377 29.2303 16.377 24.6496V13.7085C16.377 9.12778 20.2574 5.38184 25.0002 5.38184C29.743 5.38184 33.6235 9.12778 33.6235 13.7085V24.6496C33.6235 29.2303 29.743 32.9763 25.0002 32.9763Z" stroke="#1B275F" stroke-width="2" stroke-linecap="round" stroke-linejoin="round"/>
<path d="M23.707 43.3239C23.707 43.6669 23.8433 43.996 24.0859 44.2385C24.3285 44.4811 24.6575 44.6174 25.0005 44.6174C25.3436 44.6174 25.6726 44.4811 25.9152 44.2385C26.1577 43.996 26.294 43.6669 26.294 43.3239H23.707ZM26.294 38.1499V36.8564H23.707V38.1499H26.294ZM26.294 43.3239V38.1499H23.707V43.3239H26.294Z" fill="#1B275F"/>
<path d="M11.2031 24.3525C11.2031 28.0118 12.6568 31.5212 15.2442 34.1086C17.8317 36.6961 21.3411 38.1498 25.0003 38.1498C28.6596 38.1498 32.169 36.6961 34.7564 34.1086C37.3439 31.5212 38.7976 28.0118 38.7976 24.3525" stroke="#1B275F" stroke-width="2" stroke-linecap="round"/>
</svg>
