<svg width="80" height="80" viewBox="0 0 80 80" fill="none" xmlns="http://www.w3.org/2000/svg">
<circle cx="40" cy="40" r="40" fill="#3FDB9F" fill-opacity="0.25"/>
<circle cx="40" cy="40" r="30" fill="#3FDB9F"/>
<path d="M54.7959 36.9563H51.8111C51.583 36.9605 51.3591 36.8946 51.1698 36.7674C50.9804 36.6402 50.8347 36.4579 50.7524 36.2452C50.6592 36.0372 50.6331 35.8055 50.6777 35.582C50.7223 35.3586 50.8353 35.1546 51.0011 34.9983L53.1122 32.8873C53.4187 32.58 53.5908 32.1637 53.5908 31.7297C53.5908 31.2957 53.4187 30.8794 53.1122 30.5721L50.4207 27.8807C50.1085 27.5813 49.6926 27.4142 49.26 27.4142C48.8274 27.4142 48.4115 27.5813 48.0992 27.8807L45.9882 29.9917C45.8283 30.1514 45.6247 30.2601 45.4031 30.3039C45.1815 30.3478 44.9518 30.3249 44.7432 30.2382C44.5345 30.1515 44.3563 30.0048 44.2311 29.8167C44.1059 29.6287 44.0393 29.4077 44.0398 29.1818V26.2033C44.0402 25.9873 43.998 25.7732 43.9157 25.5734C43.8334 25.3736 43.7126 25.192 43.5601 25.0389C43.4076 24.8858 43.2264 24.7642 43.0269 24.6812C42.8275 24.5981 42.6136 24.5551 42.3975 24.5547H38.5868C38.1504 24.5547 37.7318 24.728 37.4233 25.0366C37.1147 25.3452 36.9413 25.7637 36.9413 26.2002V29.1818C36.9418 29.4077 36.8752 29.6287 36.7499 29.8167C36.6247 30.0048 36.4465 30.1515 36.2379 30.2382C36.0293 30.3249 35.7996 30.3478 35.578 30.3039C35.3564 30.2601 35.1527 30.1514 34.9929 29.9917L32.8819 27.8807C32.5696 27.5813 32.1537 27.4142 31.7211 27.4142C31.2885 27.4142 30.8726 27.5813 30.5603 27.8807L27.8689 30.5721C27.5624 30.8794 27.3903 31.2957 27.3903 31.7297C27.3903 32.1637 27.5624 32.58 27.8689 32.8873L29.9768 35.0015C30.1371 35.1616 30.2463 35.3657 30.2905 35.5879C30.3348 35.8101 30.3121 36.0404 30.2254 36.2497C30.1386 36.459 29.9918 36.6379 29.8033 36.7636C29.6149 36.8894 29.3934 36.9565 29.1668 36.9563H26.2011C25.7672 36.9554 25.3506 37.1263 25.0423 37.4316C24.734 37.737 24.559 38.1519 24.5557 38.5858V42.4125C24.5552 42.6287 24.5975 42.8428 24.6801 43.0427C24.7626 43.2425 24.8838 43.424 25.0367 43.5769C25.1896 43.7298 25.3711 43.851 25.5709 43.9335C25.7708 44.0161 25.9849 44.0583 26.2011 44.0579H29.1827C29.4108 44.0537 29.6347 44.1196 29.8241 44.2468C30.0134 44.374 30.1591 44.5563 30.2415 44.7691C30.3283 44.9762 30.3495 45.205 30.3022 45.4245C30.2549 45.6441 30.1413 45.8438 29.9768 45.9968L27.8657 48.1078C27.5592 48.4151 27.3871 48.8314 27.3871 49.2654C27.3871 49.6994 27.5592 50.1157 27.8657 50.423L30.5572 53.1144C30.8694 53.4137 31.2853 53.5809 31.7179 53.5809C32.1505 53.5809 32.5664 53.4137 32.8787 53.1144L34.9897 51.0033C35.1496 50.8437 35.3532 50.735 35.5748 50.6911C35.7964 50.6473 36.0261 50.6701 36.2347 50.7569C36.4434 50.8436 36.6215 50.9903 36.7468 51.1783C36.872 51.3664 36.9386 51.5874 36.9381 51.8133V54.7949C36.9377 55.0115 36.9801 55.2261 37.0628 55.4263C37.1455 55.6265 37.2669 55.8085 37.4201 55.9616C37.5732 56.1148 37.7552 56.2362 37.9554 56.3189C38.1556 56.4016 38.3702 56.444 38.5868 56.4436H42.4134C42.8498 56.4436 43.2684 56.2702 43.577 55.9616C43.8855 55.653 44.0589 55.2345 44.0589 54.7981V51.8133C44.0546 51.5861 44.1198 51.3629 44.2457 51.1737C44.3717 50.9846 44.5524 50.8383 44.7637 50.7546C44.9716 50.6614 45.2034 50.6353 45.4268 50.6799C45.6502 50.7245 45.8542 50.8375 46.0105 51.0033L48.1216 53.1144C48.4338 53.4137 48.8497 53.5809 49.2823 53.5809C49.7149 53.5809 50.1308 53.4137 50.4431 53.1144L53.1345 50.423C53.441 50.1157 53.6131 49.6994 53.6131 49.2654C53.6131 48.8314 53.441 48.4151 53.1345 48.1078L51.0234 45.9968C50.8631 45.8367 50.754 45.6326 50.7097 45.4104C50.6655 45.1882 50.6881 44.9579 50.7749 44.7486C50.8616 44.5393 51.0085 44.3604 51.1969 44.2346C51.3853 44.1088 51.6069 44.0418 51.8334 44.042H54.815C55.2459 44.0378 55.658 43.8648 55.9627 43.5601C56.2674 43.2554 56.4404 42.8434 56.4446 42.4125V38.5858C56.4387 38.1521 56.2625 37.7382 55.9541 37.4333C55.6456 37.1284 55.2296 36.9571 54.7959 36.9563ZM40.5001 44.6447C39.6802 44.6447 38.8787 44.4016 38.197 43.946C37.5152 43.4905 36.9839 42.8431 36.6701 42.0856C36.3563 41.3281 36.2743 40.4945 36.4342 39.6904C36.5942 38.8862 36.989 38.1475 37.5688 37.5678C38.1485 36.988 38.8872 36.5932 39.6914 36.4332C40.4955 36.2733 41.329 36.3554 42.0865 36.6691C42.844 36.9829 43.4915 37.5142 43.947 38.196C44.4025 38.8777 44.6457 39.6792 44.6457 40.4991C44.6457 41.0435 44.5384 41.5826 44.3301 42.0856C44.1218 42.5885 43.8164 43.0455 43.4315 43.4305C43.0465 43.8154 42.5895 44.1208 42.0865 44.3291C41.5836 44.5375 41.0445 44.6447 40.5001 44.6447Z" fill="white"/>
</svg>
