<svg width="44" height="44" viewBox="0 0 44 44" fill="none" xmlns="http://www.w3.org/2000/svg">
<path d="M20.7783 22.2989C26.936 22.2989 31.9278 17.3071 31.9278 11.1494C31.9278 4.99177 26.936 0 20.7783 0C14.6207 0 9.62891 4.99177 9.62891 11.1494C9.62891 17.3071 14.6207 22.2989 20.7783 22.2989Z" fill="#4A689E"/>
<path fill-rule="evenodd" clip-rule="evenodd" d="M32.9434 25.7324C28.958 25.7324 25.7227 28.9678 25.7227 32.9532C25.7227 36.9386 28.958 40.176 32.9434 40.176C36.9289 40.176 40.1662 36.9386 40.1662 32.9532C40.1662 28.9678 36.9289 25.7324 32.9434 25.7324ZM32.9434 28.7732C35.2504 28.7732 37.1255 30.6463 37.1255 32.9532C37.1255 35.2601 35.2504 37.1353 32.9434 37.1353C30.6365 37.1353 28.7614 35.2601 28.7614 32.9532C28.7614 30.6463 30.6365 28.7732 32.9434 28.7732Z" fill="#4A689E"/>
<path fill-rule="evenodd" clip-rule="evenodd" d="M34.4626 27.2508V23.8309C34.4626 22.9917 33.7815 22.3105 32.9423 22.3105C32.103 22.3105 31.4219 22.9917 31.4219 23.8309V27.2528C31.4219 28.09 32.103 28.7732 32.9423 28.7732C33.7815 28.7711 34.4626 28.09 34.4626 27.2508Z" fill="#4A689E"/>
<path fill-rule="evenodd" clip-rule="evenodd" d="M38.0479 29.9991L40.4663 27.5786C41.0603 26.9867 41.0603 26.0218 40.4663 25.4298C39.8744 24.8359 38.9095 24.8359 38.3175 25.4298L35.8971 27.8483C35.3051 28.4422 35.3051 29.4051 35.8971 29.9991C36.491 30.591 37.4539 30.591 38.0479 29.9991Z" fill="#4A689E"/>
<path fill-rule="evenodd" clip-rule="evenodd" d="M38.6434 34.4743H42.0652C42.9045 34.4743 43.5856 33.7932 43.5856 32.954C43.5856 32.1147 42.9045 31.4336 42.0652 31.4336H38.6434C37.8061 31.4336 37.125 32.1147 37.125 32.954C37.123 33.7932 37.8061 34.4743 38.6434 34.4743Z" fill="#4A689E"/>
<path fill-rule="evenodd" clip-rule="evenodd" d="M35.8971 38.0596L38.3175 40.478C38.9095 41.072 39.8744 41.072 40.4663 40.478C41.0603 39.8861 41.0603 38.9212 40.4663 38.3292L38.0479 35.9088C37.4539 35.3169 36.491 35.3169 35.8971 35.9088C35.3051 36.5028 35.3051 37.4657 35.8971 38.0596Z" fill="#4A689E"/>
<path fill-rule="evenodd" clip-rule="evenodd" d="M31.4219 38.6551V42.077C31.4219 42.9163 32.103 43.5974 32.9423 43.5974C33.7815 43.5974 34.4626 42.9163 34.4626 42.077V38.6551C34.4626 37.8179 33.7815 37.1368 32.9423 37.1348C32.103 37.1348 31.4219 37.8179 31.4219 38.6551Z" fill="#4A689E"/>
<path fill-rule="evenodd" clip-rule="evenodd" d="M27.8365 35.9088L25.4181 38.3292C24.8242 38.9212 24.8242 39.8861 25.4181 40.478C26.0101 41.072 26.975 41.072 27.5669 40.478L29.9874 38.0596C30.5793 37.4657 30.5793 36.5028 29.9874 35.9088C29.3934 35.3169 28.4305 35.3169 27.8365 35.9088Z" fill="#4A689E"/>
<path fill-rule="evenodd" clip-rule="evenodd" d="M27.2371 31.4336H23.8173C22.978 31.4336 22.2969 32.1147 22.2969 32.954C22.2969 33.7932 22.978 34.4743 23.8173 34.4743H27.2371C28.0763 34.4743 28.7595 33.7932 28.7575 32.954C28.7575 32.1147 28.0763 31.4336 27.2371 31.4336Z" fill="#4A689E"/>
<path fill-rule="evenodd" clip-rule="evenodd" d="M29.9874 27.8483L27.5669 25.4298C26.975 24.8359 26.0101 24.8359 25.4181 25.4298C24.8242 26.0218 24.8242 26.9867 25.4181 27.5786L27.8365 29.9991C28.4305 30.591 29.3934 30.591 29.9874 29.9991C30.5793 29.4051 30.5793 28.4422 29.9874 27.8483Z" fill="#4A689E"/>
<path fill-rule="evenodd" clip-rule="evenodd" d="M23.6895 41.5819C22.607 40.1913 22.7043 38.1742 23.9835 36.8971L24.3767 36.5018H23.8193C21.861 36.5018 20.2717 34.9125 20.2717 32.9543C20.2717 30.996 21.861 29.4067 23.8193 29.4067H24.3767L23.9835 29.0114C22.6536 27.6836 22.6009 25.5571 23.8253 24.1645C22.832 24.0874 21.8144 24.0469 20.7785 24.0469C14.0442 24.0469 8.08233 25.7315 4.38072 28.2553C1.55687 30.1811 0 32.6279 0 35.1963V38.1357C0 39.05 0.362864 39.9277 1.00953 40.5724C1.6562 41.219 2.53194 41.5819 3.44619 41.5819H23.6895Z" fill="#4A689E"/>
</svg>
