<svg width="47" height="47" viewBox="0 0 47 47" fill="none" xmlns="http://www.w3.org/2000/svg">
<path d="M45.7939 20.2978L43.8671 20.0569C43.6491 18.7583 43.3106 17.5008 42.8623 16.2964L44.4082 15.1263C44.9619 14.7071 45.1168 13.9413 44.7696 13.3399L42.9337 10.1601C42.5865 9.55872 41.8458 9.30995 41.206 9.57992L39.4154 10.3354C38.5866 9.33464 37.6655 8.41346 36.6647 7.58472L37.4202 5.79413C37.6901 5.1543 37.4414 4.41359 36.84 4.06642L33.6602 2.23048C33.0587 1.8833 32.2929 2.03817 31.8738 2.59188L30.7036 4.13774C29.4992 3.6895 28.2417 3.35095 26.9431 3.13303L26.7022 1.20621C26.6161 0.517092 26.0304 0 25.3359 0H21.6641C20.9696 0 20.3839 0.517092 20.2978 1.20612L20.0569 3.13294C18.7583 3.35086 17.5008 3.68941 16.2964 4.13765L15.1263 2.59179C14.7071 2.03807 13.9413 1.88312 13.3399 2.23039L10.1601 4.06633C9.55863 4.4135 9.30995 5.15421 9.57992 5.79403L10.3353 7.58463C9.33455 8.41337 8.41337 9.33455 7.58463 10.3353L5.79403 9.57983C5.15421 9.30986 4.4135 9.55863 4.06633 10.16L2.23039 13.3398C1.88321 13.9412 2.03807 14.7071 2.59179 15.1262L4.13765 16.2964C3.68941 17.5008 3.35086 18.7583 3.13294 20.0569L1.20612 20.2978C0.517092 20.3839 0 20.9696 0 21.6641V25.3359C0 26.0304 0.517092 26.6161 1.20621 26.7022L3.13303 26.9431C3.35095 28.2417 3.6895 29.4992 4.13774 30.7036L2.59188 31.8738C2.03817 32.2929 1.8833 33.0587 2.23048 33.6602L4.06642 36.84C4.41359 37.4414 5.1543 37.6901 5.79413 37.4202L7.58472 36.6647C8.41346 37.6655 9.33464 38.5866 10.3354 39.4154L9.58001 41.206C9.31004 41.8458 9.55881 42.5865 10.1602 42.9337L13.34 44.7696C13.9414 45.1168 14.7072 44.9619 15.1264 44.4082L16.2965 42.8623C17.5009 43.3106 18.7584 43.6491 20.057 43.8671L20.2978 45.7939C20.384 46.4829 20.9697 47 21.6641 47H25.3359C26.0304 47 26.6161 46.4829 26.7022 45.7938L26.9431 43.867C28.2417 43.649 29.4992 43.3105 30.7036 42.8623L31.8738 44.4081C32.2929 44.9618 33.0587 45.1167 33.6602 44.7695L36.8401 42.9336C37.4415 42.5864 37.6902 41.8457 37.4203 41.2059L36.6648 39.4154C37.6655 38.5866 38.5867 37.6655 39.4155 36.6647L41.2061 37.4202C41.8459 37.6901 42.5866 37.4414 42.9338 36.84L44.7697 33.6602C45.1169 33.0588 44.9619 32.2929 44.4083 31.8738L42.8624 30.7037C43.3107 29.4993 43.6492 28.2418 43.8672 26.9432L45.794 26.7023C46.4829 26.6161 47 26.0304 47 25.3359V21.6641C47 20.9696 46.4829 20.3839 45.7939 20.2978ZM23.5 37.2695C15.9075 37.2695 9.73047 31.0925 9.73047 23.5C9.73047 15.9075 15.9075 9.73047 23.5 9.73047C31.0925 9.73047 37.2695 15.9075 37.2695 23.5C37.2695 31.0925 31.0925 37.2695 23.5 37.2695Z" fill="#4A689E"/>
<path d="M31.2354 23.3696V19.9198C31.2354 19.4279 30.9729 18.9733 30.5469 18.7274L27.5591 17.0024C27.6044 16.7576 27.6294 16.5057 27.6294 16.248C27.6294 13.9703 25.7763 12.1172 23.4985 12.1172C21.2208 12.1172 19.3677 13.9703 19.3677 16.248C19.3677 16.5058 19.3926 16.7577 19.438 17.0024L16.4502 18.7274C16.0242 18.9733 15.7617 19.4279 15.7617 19.9198V23.3696C14.159 23.938 13.0078 25.4685 13.0078 27.2636C13.0078 29.5413 14.8609 31.3944 17.1387 31.3944C18.1616 31.3944 19.0981 31.0199 19.8203 30.4018L22.8101 32.1279C23.2361 32.3739 23.761 32.3739 24.187 32.1279L27.1768 30.4017C27.899 31.0198 28.8355 31.3943 29.8584 31.3943C32.1362 31.3943 33.9893 29.5412 33.9893 27.2635C33.9893 25.4685 32.838 23.938 31.2354 23.3696ZM25.7276 27.2636C25.7276 27.5213 25.7524 27.7732 25.7979 28.018L23.4985 29.3455L21.1992 28.0181C21.2446 27.7732 21.2695 27.5213 21.2695 27.2637C21.2695 25.4686 20.1183 23.9381 18.5156 23.3696V20.7149L20.8169 19.3862C21.539 20.0043 22.4756 20.3788 23.4985 20.3788C24.5214 20.3788 25.458 20.0043 26.1802 19.3862L28.4815 20.7149V23.3696C26.8788 23.938 25.7276 25.4685 25.7276 27.2636Z" fill="#4A689E"/>
</svg>
