<svg width="43" height="43" viewBox="0 0 43 43" fill="none" xmlns="http://www.w3.org/2000/svg">
<path d="M42.0625 8.28125H0.9375C1.01327 7.04462 1.57425 5.88792 2.49843 5.06277C3.42261 4.23761 4.63522 3.81073 5.8725 3.875H6.8125V2.40625C6.8125 2.01671 6.96724 1.64313 7.24269 1.36769C7.51813 1.09224 7.89171 0.9375 8.28125 0.9375C8.67079 0.9375 9.04437 1.09224 9.31981 1.36769C9.59526 1.64313 9.75 2.01671 9.75 2.40625V3.875H15.625V2.40625C15.625 2.01671 15.7797 1.64313 16.0552 1.36769C16.3306 1.09224 16.7042 0.9375 17.0938 0.9375C17.4833 0.9375 17.8569 1.09224 18.1323 1.36769C18.4078 1.64313 18.5625 2.01671 18.5625 2.40625V3.875H24.4375V2.40625C24.4375 2.01671 24.5922 1.64313 24.8677 1.36769C25.1431 1.09224 25.5167 0.9375 25.9062 0.9375C26.2958 0.9375 26.6694 1.09224 26.9448 1.36769C27.2203 1.64313 27.375 2.01671 27.375 2.40625V3.875H33.25V2.40625C33.25 2.01671 33.4047 1.64313 33.6802 1.36769C33.9556 1.09224 34.3292 0.9375 34.7188 0.9375C35.1083 0.9375 35.4819 1.09224 35.7573 1.36769C36.0328 1.64313 36.1875 2.01671 36.1875 2.40625V3.875H37.1275C38.3648 3.81073 39.5774 4.23761 40.5016 5.06277C41.4258 5.88792 41.9867 7.04462 42.0625 8.28125ZM0.9375 31.7812C1.01327 33.0179 1.57425 34.1746 2.49843 34.9997C3.42261 35.8249 4.63522 36.2518 5.8725 36.1875H10.1466C9.75773 35.5134 9.65224 34.7126 9.85326 33.9609C10.0543 33.2091 10.5454 32.5678 11.2188 32.1778V27.375C11.2213 25.163 11.9373 23.0108 13.2603 21.238C14.5832 19.4652 16.4427 18.1664 18.5625 17.5344V17.0938C18.5625 16.3147 18.872 15.5675 19.4229 15.0166C19.9738 14.4657 20.7209 14.1562 21.5 14.1562C22.2791 14.1562 23.0262 14.4657 23.5771 15.0166C24.128 15.5675 24.4375 16.3147 24.4375 17.0938V17.5197C26.5597 18.1524 28.4209 19.4535 29.7441 21.2292C31.0673 23.0049 31.7818 25.1605 31.7812 27.375V32.1778C32.4546 32.5678 32.9457 33.2091 33.1467 33.9609C33.3478 34.7126 33.2423 35.5134 32.8534 36.1875H37.1275C38.3648 36.2518 39.5774 35.8249 40.5016 34.9997C41.4258 34.1746 41.9867 33.0179 42.0625 31.7812V11.2188H0.9375V31.7812ZM31.7812 34.7188C31.7812 35.1083 31.6265 35.4819 31.3511 35.7573C31.0756 36.0328 30.702 36.1875 30.3125 36.1875H27.375C27.375 37.7456 26.756 39.24 25.6543 40.3418C24.5525 41.4435 23.0581 42.0625 21.5 42.0625C19.9419 42.0625 18.4475 41.4435 17.3457 40.3418C16.244 39.24 15.625 37.7456 15.625 36.1875H12.6875C12.298 36.1875 11.9244 36.0328 11.6489 35.7573C11.3735 35.4819 11.2188 35.1083 11.2188 34.7188C11.2188 34.3292 11.3735 33.9556 11.6489 33.6802C11.9244 33.4047 12.298 33.25 12.6875 33.25V27.375C12.6896 25.294 13.4281 23.2808 14.7722 21.6921C16.1163 20.1033 17.9793 19.0415 20.0312 18.6947V17.0938C20.0312 16.7042 20.186 16.3306 20.4614 16.0552C20.7369 15.7797 21.1105 15.625 21.5 15.625C21.8895 15.625 22.2631 15.7797 22.5386 16.0552C22.814 16.3306 22.9688 16.7042 22.9688 17.0938V18.6947C25.0207 19.0415 26.8837 20.1033 28.2278 21.6921C29.5719 23.2808 30.3104 25.294 30.3125 27.375V33.25C30.702 33.25 31.0756 33.4047 31.3511 33.6802C31.6265 33.9556 31.7812 34.3292 31.7812 34.7188ZM24.4375 36.1875H18.5625C18.5625 36.9666 18.872 37.7137 19.4229 38.2646C19.9738 38.8155 20.7209 39.125 21.5 39.125C22.2791 39.125 23.0262 38.8155 23.5771 38.2646C24.128 37.7137 24.4375 36.9666 24.4375 36.1875ZM27.375 27.375C27.375 25.8169 26.756 24.3225 25.6543 23.2207C24.5525 22.119 23.0581 21.5 21.5 21.5C19.9419 21.5 18.4475 22.119 17.3457 23.2207C16.244 24.3225 15.625 25.8169 15.625 27.375V33.25H27.375V27.375Z" fill="#4A689E"/>
</svg>
