<svg width="46" height="46" viewBox="0 0 46 46" fill="none" xmlns="http://www.w3.org/2000/svg">
<path d="M23.4777 28.5C27.4202 28.5 30.5789 25.3175 30.5789 21.375L30.6027 7.125C30.6027 3.1825 27.4202 0 23.4777 0C19.5352 0 16.3527 3.1825 16.3527 7.125V21.375C16.3527 25.3175 19.5352 28.5 23.4777 28.5ZM37.9177 21.375C36.9202 21.375 36.0889 22.0875 35.9464 23.0613C35.0677 29.26 29.4864 33.4875 23.4777 33.4875C17.4689 33.4875 11.8877 29.2838 11.0089 23.0613C10.8664 22.0875 10.0114 21.375 9.03768 21.375C7.80268 21.375 6.85268 22.4675 7.01893 23.6788C8.11143 30.7088 14.0489 36.2663 21.1027 37.335V42.75C21.1027 44.0563 22.1714 45.125 23.4777 45.125C24.7839 45.125 25.8527 44.0563 25.8527 42.75V37.335C32.8827 36.29 38.8439 30.7088 39.9364 23.6788C40.1027 22.4675 39.1527 21.375 37.9177 21.375Z" fill="#4A689E"/>
</svg>
