<svg width="81" height="80" viewBox="0 0 81 80" fill="none" xmlns="http://www.w3.org/2000/svg">
<circle cx="40.5" cy="40" r="40" fill="#4361EE" fill-opacity="0.25"/>
<rect x="10.5" y="10" width="60" height="60" rx="30" fill="#4361EE"/>
<path d="M40.5004 38.1889L53.689 31.5946L50.0485 29.7744L36.8601 36.3688L40.5004 38.1889Z" fill="white"/>
<path d="M35.4474 35.6627L48.6357 29.0683L46.2589 27.8799L33.0703 34.4742L35.4474 35.6627Z" fill="white"/>
<path d="M32.2898 39.7679L34.8161 41.0311V36.7593L32.2898 35.4961V39.7679Z" fill="white"/>
<path d="M44.8466 27.1732L40.5001 25L27.3115 31.5943L31.658 33.7675L44.8466 27.1732Z" fill="white"/>
<path d="M39.8685 42.6834C39.8685 42.3343 40.1509 42.0518 40.5 42.0518C40.8491 42.0518 41.1316 42.3343 41.1316 42.6834V54.9999L54.3948 48.3682V32.6533L40.7825 39.4595C40.6937 39.5039 40.5969 39.5261 40.5 39.5261C40.4032 39.5261 40.3064 39.5039 40.2175 39.4595L36.079 37.3902V42.0524C36.079 42.2714 35.9655 42.4743 35.7792 42.5896C35.6781 42.6525 35.5627 42.684 35.4474 42.684C35.3505 42.684 35.2543 42.6618 35.1649 42.6174L31.3754 40.7226C31.1614 40.6153 31.0263 40.397 31.0263 40.1577V34.8639L26.6052 32.6533V48.3682L39.8685 54.9999V42.6834ZM38.6053 50.8946C38.6053 51.1135 38.4918 51.3165 38.3055 51.4318C38.2044 51.4947 38.089 51.5262 37.9737 51.5262C37.8769 51.5262 37.7807 51.504 37.6912 51.4595L33.2701 49.249C33.0561 49.1417 32.921 48.9233 32.921 48.684V44.8945C32.921 44.6756 33.0345 44.4727 33.2208 44.3573C33.4071 44.2414 33.639 44.2321 33.8351 44.3296L38.2562 46.5401C38.4702 46.6474 38.6053 46.8658 38.6053 47.1051V50.8946Z" fill="white"/>
<path d="M34.1843 48.2941L37.3422 49.873V47.4959L34.1843 45.917V48.2941Z" fill="white"/>
</svg>
