<svg width="51" height="51" viewBox="0 0 51 51" fill="none" xmlns="http://www.w3.org/2000/svg">
<rect x="1.21387" y="1.16846" width="49" height="49" rx="7.5" fill="url(#paint0_radial_8432_4068)" stroke="url(#paint1_linear_8432_4068)"/>
<path d="M25.1005 13.4033C22.4982 13.4033 20.0025 14.4371 18.1624 16.2772C16.3223 18.1173 15.2885 20.613 15.2885 23.2153V25.5457C14.9185 25.8681 14.6187 26.2631 14.4077 26.7061C14.1968 27.1492 14.0791 27.6309 14.062 28.1214C14.0899 28.8325 14.3321 29.5187 14.7567 30.0899C15.1812 30.6611 15.7685 31.0908 16.4414 31.3225C18.0359 35.137 21.2371 37.9334 25.1005 37.9334H28.78V35.4804H25.1005C22.3286 35.4804 19.8143 33.3953 18.551 30.096L18.2934 29.4215L17.5698 29.3479C17.2751 29.3062 17.0056 29.1588 16.8115 28.9332C16.6175 28.7075 16.5121 28.419 16.515 28.1214C16.5163 27.9073 16.5736 27.6973 16.6812 27.5123C16.7888 27.3273 16.9429 27.1736 17.1283 27.0666L17.7415 26.7109V24.4418C17.7415 24.1166 17.8707 23.8046 18.1008 23.5746C18.3308 23.3446 18.6427 23.2153 18.968 23.2153H31.2331C31.5583 23.2153 31.8703 23.3446 32.1003 23.5746C32.3303 23.8046 32.4596 24.1166 32.4596 24.4418V30.5744H27.4432C27.3318 30.2621 27.1382 29.9858 26.8827 29.7745C26.6273 29.5633 26.3195 29.425 25.9919 29.3742C25.6643 29.3235 25.3291 29.3622 25.0217 29.4863C24.7143 29.6104 24.4461 29.8152 24.2455 30.0791C24.045 30.343 23.9194 30.6562 23.8822 30.9856C23.8449 31.315 23.8974 31.6484 24.034 31.9504C24.1706 32.2525 24.3863 32.512 24.6582 32.7015C24.9301 32.8911 25.2482 33.0037 25.5789 33.0274H34.9126C35.5631 33.0274 36.1871 32.7689 36.6471 32.3089C37.1071 31.8489 37.3656 31.2249 37.3656 30.5744V28.1214C37.3656 27.4708 37.1071 26.8468 36.6471 26.3868C36.1871 25.9268 35.5631 25.6684 34.9126 25.6684V23.2153C34.9126 20.613 33.8788 18.1173 32.0387 16.2772C30.1986 14.4371 27.7028 13.4033 25.1005 13.4033Z" fill="white"/>
<defs>
<radialGradient id="paint0_radial_8432_4068" cx="0" cy="0" r="1" gradientUnits="userSpaceOnUse" gradientTransform="translate(25.7139 25.6685) rotate(90) scale(25)">
<stop stop-color="#120E1C"/>
<stop offset="1" stop-color="#28194E"/>
</radialGradient>
<linearGradient id="paint1_linear_8432_4068" x1="9.55235" y1="0.668456" x2="48.3365" y2="50.6685" gradientUnits="userSpaceOnUse">
<stop stop-color="#0F1124"/>
<stop offset="1" stop-color="#5A6DFB"/>
</linearGradient>
</defs>
</svg>
