<svg width="51" height="51" viewBox="0 0 51 51" fill="none" xmlns="http://www.w3.org/2000/svg">
<rect x="1.21387" y="1.16846" width="49" height="49" rx="7.5" fill="url(#paint0_radial_8432_4007)" stroke="url(#paint1_linear_8432_4007)"/>
<path d="M36.7525 22.1885C36.345 22.1885 35.9541 22.3504 35.6659 22.6386C35.3777 22.9267 35.2158 23.3176 35.2158 23.7251V30.6892C35.2158 31.0968 35.3777 31.4876 35.6659 31.7759C35.9541 32.0641 36.345 32.2259 36.7525 32.2259C37.16 32.2259 37.5509 32.0641 37.8391 31.7759C38.1273 31.4876 38.2892 31.0968 38.2892 30.6892V23.7251C38.2892 23.3176 38.1273 22.9267 37.8391 22.6386C37.5509 22.3504 37.16 22.1885 36.7525 22.1885Z" fill="white"/>
<path d="M16.939 22.1885C16.5315 22.1885 16.1406 22.3504 15.8524 22.6386C15.5643 22.9267 15.4023 23.3176 15.4023 23.7251V30.6892C15.4023 31.0968 15.5643 31.4876 15.8524 31.7759C16.1406 32.0641 16.5315 32.2259 16.939 32.2259C17.3466 32.2259 17.7374 32.0641 18.0256 31.7759C18.3138 31.4876 18.4757 31.0968 18.4757 30.6892V23.7251C18.4757 23.3176 18.3138 22.9267 18.0256 22.6386C17.7374 22.3504 17.3466 22.1885 16.939 22.1885Z" fill="white"/>
<path d="M19.5874 22.1885V32.6509C19.5874 32.8806 19.6326 33.1082 19.7206 33.3204C19.8085 33.5326 19.9373 33.7255 20.0997 33.8878C20.2622 34.0503 20.455 34.1791 20.6672 34.2671C20.8794 34.3549 21.1069 34.4001 21.3366 34.4001H22.4482V38.1111C22.4482 38.5186 22.6101 38.9095 22.8983 39.1977C23.1865 39.4859 23.5774 39.6477 23.9849 39.6477C24.3925 39.6477 24.7833 39.4859 25.0715 39.1977C25.3598 38.9095 25.5216 38.5186 25.5216 38.1111V34.4001H28.1699V38.1111C28.1699 38.5186 28.3318 38.9095 28.62 39.1977C28.9082 39.4859 29.2991 39.6477 29.7066 39.6477C30.1141 39.6477 30.505 39.4859 30.7932 39.1977C31.0814 38.9095 31.2433 38.5186 31.2433 38.1111V34.4001H32.3549C32.8189 34.4001 33.2637 34.2159 33.5918 33.8878C33.9199 33.5599 34.1041 33.1149 34.1041 32.6509V22.1885H19.5874Z" fill="white"/>
<path d="M33.9079 20.0143C33.4268 18.4001 32.3598 17.0241 30.9163 16.1563L30.6711 16.0091L30.4096 15.8783L30.7038 15.3716L31.5702 13.7368C31.5866 13.6902 31.5876 13.6396 31.5728 13.5924C31.5581 13.5453 31.5285 13.5042 31.4885 13.4752H31.3741C31.3324 13.4771 31.2915 13.4884 31.2547 13.5082C31.2179 13.528 31.1861 13.5558 31.1615 13.5897L30.2788 15.11L30.0009 15.6168L29.7393 15.5023L29.4614 15.4043C27.7673 14.8163 25.9242 14.8163 24.2301 15.4043L23.9686 15.5023L23.6907 15.6168L23.4128 15.11L22.53 13.4752C22.5149 13.4484 22.4948 13.4248 22.4706 13.4058C22.4465 13.3867 22.4188 13.3726 22.3892 13.3643C22.3596 13.3559 22.3286 13.3535 22.2981 13.3571C22.2676 13.3607 22.238 13.3703 22.2112 13.3853C22.1844 13.4004 22.1608 13.4205 22.1417 13.4447C22.1227 13.4688 22.1086 13.4965 22.1002 13.5261C22.0919 13.5557 22.0894 13.5867 22.0931 13.6172C22.0967 13.6477 22.1062 13.6773 22.1213 13.7041L22.9877 15.3389L23.282 15.8456L23.0204 15.9764L22.7752 16.1236C21.3248 16.995 20.2609 18.3863 19.7999 20.0143C19.6723 20.4391 19.6009 20.8788 19.5874 21.3221H34.1041C34.0881 20.8802 34.0222 20.4415 33.9079 20.0143ZM23.5762 19.1479C23.4469 19.1479 23.3205 19.1095 23.2129 19.0377C23.1054 18.9658 23.0216 18.8637 22.9721 18.7442C22.9226 18.6247 22.9097 18.4932 22.9349 18.3664C22.9601 18.2395 23.0224 18.123 23.1138 18.0316C23.2053 17.9401 23.3218 17.8779 23.4487 17.8526C23.5755 17.8274 23.707 17.8404 23.8265 17.8898C23.946 17.9393 24.048 18.0232 24.12 18.1307C24.1917 18.2382 24.2301 18.3646 24.2301 18.494C24.2301 18.6674 24.1613 18.8337 24.0385 18.9564C23.9159 19.079 23.7497 19.1479 23.5762 19.1479ZM30.1153 19.1479C29.986 19.1479 29.8595 19.1095 29.752 19.0377C29.6445 18.9658 29.5606 18.8637 29.5111 18.7442C29.4617 18.6247 29.4486 18.4932 29.474 18.3664C29.4992 18.2395 29.5614 18.123 29.653 18.0316C29.7444 17.9401 29.8609 17.8779 29.9878 17.8526C30.1146 17.8274 30.2461 17.8404 30.3656 17.8898C30.4851 17.9393 30.5871 18.0232 30.659 18.1307C30.7308 18.2382 30.7692 18.3646 30.7692 18.494C30.7692 18.6674 30.7004 18.8337 30.5776 18.9564C30.455 19.079 30.2887 19.1479 30.1153 19.1479Z" fill="white"/>
<defs>
<radialGradient id="paint0_radial_8432_4007" cx="0" cy="0" r="1" gradientUnits="userSpaceOnUse" gradientTransform="translate(25.7139 25.6685) rotate(90) scale(25)">
<stop stop-color="#120E1C"/>
<stop offset="1" stop-color="#28194E"/>
</radialGradient>
<linearGradient id="paint1_linear_8432_4007" x1="9.55235" y1="0.668456" x2="48.3365" y2="50.6685" gradientUnits="userSpaceOnUse">
<stop stop-color="#0F1124"/>
<stop offset="1" stop-color="#5A6DFB"/>
</linearGradient>
</defs>
</svg>
