<svg width="247" height="80" viewBox="0 0 247 80" fill="none" xmlns="http://www.w3.org/2000/svg">
<path d="M57.4997 146.088C45.6981 146.042 35.5433 143.137 27.0352 137.374C18.5729 131.61 12.0546 123.262 7.48031 112.33C2.95181 101.397 0.71043 88.2463 0.756172 72.8768C0.756172 57.5531 3.02042 44.4936 7.54893 33.6984C12.1232 22.9032 18.6415 14.6924 27.1038 9.06612C35.6119 3.39405 45.7439 0.558016 57.4997 0.558016C69.2555 0.558016 79.3646 3.39405 87.8269 9.06612C96.335 14.7382 102.876 22.9718 107.45 33.767C112.025 44.5165 114.289 57.5531 114.243 72.8768C114.243 88.292 111.956 101.466 107.382 112.398C102.853 123.331 96.3579 131.679 87.8955 137.442C79.4332 143.206 69.3012 146.088 57.4997 146.088ZM57.4997 121.455C65.5504 121.455 71.9772 117.407 76.7801 109.311C81.5831 101.214 83.9617 89.0697 83.9159 72.8768C83.9159 62.2188 82.8181 53.3448 80.6225 46.2547C78.4726 39.1646 75.4078 33.8356 71.4283 30.2677C67.4944 26.6998 62.8515 24.9159 57.4997 24.9159C49.4948 24.9159 43.0908 28.9183 38.2878 36.9233C33.4849 44.9282 31.0605 56.9127 31.0148 72.8768C31.0148 83.672 32.0897 92.6833 34.2396 99.9106C36.4353 107.092 39.5229 112.49 43.5025 116.103C47.4821 119.671 52.1478 121.455 57.4997 121.455ZM133.301 118.299V94.9018L191.965 2.4792H212.138V34.8648H200.199L163.216 93.3923V94.4901H246.582V118.299H133.301ZM200.748 143V111.163L201.297 100.803V2.4792H229.154V143H200.748Z" fill="url(#paint0_linear_7017_19250)"/>
<defs>
<linearGradient id="paint0_linear_7017_19250" x1="123" y1="-43" x2="241.627" y2="183.962" gradientUnits="userSpaceOnUse">
<stop stop-color="#C0CCFF"/>
<stop offset="1"/>
</linearGradient>
</defs>
</svg>
