<svg width="236" height="99" viewBox="0 0 236 99" fill="none" xmlns="http://www.w3.org/2000/svg">
<path d="M57.6225 146.088C45.821 146.042 35.6662 143.137 27.1581 137.374C18.6957 131.61 12.1774 123.262 7.60316 112.33C3.07466 101.397 0.833278 88.2463 0.879021 72.8768C0.879021 57.5531 3.14327 44.4936 7.67177 33.6984C12.246 22.9032 18.7643 14.6924 27.2267 9.06612C35.7348 3.39405 45.8667 0.558016 57.6225 0.558016C69.3783 0.558016 79.4874 3.39405 87.9498 9.06612C96.4579 14.7382 102.999 22.9718 107.573 33.767C112.148 44.5165 114.412 57.5531 114.366 72.8768C114.366 88.292 112.079 101.466 107.505 112.398C102.976 123.331 96.4807 131.679 88.0184 137.442C79.556 143.206 69.4241 146.088 57.6225 146.088ZM57.6225 121.455C65.6732 121.455 72.1 117.407 76.903 109.311C81.7059 101.214 84.0845 89.0697 84.0388 72.8768C84.0388 62.2188 82.941 53.3448 80.7453 46.2547C78.5954 39.1646 75.5307 33.8356 71.5511 30.2677C67.6173 26.6998 62.9744 24.9159 57.6225 24.9159C49.6176 24.9159 43.2137 28.9183 38.4107 36.9233C33.6077 44.9282 31.1834 56.9127 31.1376 72.8768C31.1376 83.672 32.2126 92.6833 34.3625 99.9106C36.5581 107.092 39.6457 112.49 43.6253 116.103C47.6049 119.671 52.2707 121.455 57.6225 121.455ZM135.55 143V121.593L185.57 75.2783C189.824 71.1615 193.392 67.4563 196.274 64.1629C199.201 60.8694 201.42 57.6446 202.929 54.4884C204.439 51.2864 205.193 47.8328 205.193 44.1277C205.193 40.0109 204.256 36.4658 202.38 33.4926C200.505 30.4736 197.943 28.1636 194.695 26.5626C191.448 24.9159 187.766 24.0925 183.649 24.0925C179.349 24.0925 175.598 24.9616 172.396 26.6998C169.194 28.438 166.724 30.931 164.986 34.1787C163.248 37.4264 162.378 41.2917 162.378 45.7744H134.178C134.178 36.5802 136.26 28.5981 140.422 21.8283C144.585 15.0584 150.417 9.82086 157.919 6.11572C165.42 2.41058 174.066 0.558016 183.855 0.558016C193.918 0.558016 202.678 2.34197 210.134 5.90988C217.635 9.43205 223.467 14.3265 227.63 20.5932C231.793 26.8599 233.874 34.0415 233.874 42.1379C233.874 47.444 232.822 52.6815 230.718 57.8504C228.659 63.0193 224.977 68.76 219.671 75.0725C214.365 81.3392 206.886 88.8638 197.234 97.6464L176.719 117.75V118.711H235.726V143H135.55Z" fill="url(#paint0_linear_7017_19248)"/>
<defs>
<linearGradient id="paint0_linear_7017_19248" x1="118.5" y1="-43" x2="4.81019" y2="160.204" gradientUnits="userSpaceOnUse">
<stop stop-color="#C0CCFF"/>
<stop offset="1"/>
</linearGradient>
</defs>
</svg>
