<svg width="81" height="80" viewBox="0 0 81 80" fill="none" xmlns="http://www.w3.org/2000/svg">
<circle cx="40.5" cy="40" r="40" fill="#008CFF" fill-opacity="0.25"/>
<circle cx="40.5" cy="40" r="30" fill="#008CFF"/>
<path d="M49.7126 34.8662C47.7135 34.868 45.7968 35.6625 44.3828 37.0756C42.9687 38.4886 42.1727 40.4047 42.1694 42.4037C42.5847 52.4004 56.8384 52.4031 57.2501 42.4037C57.248 40.4052 56.4532 38.4892 55.0401 37.0761C53.627 35.663 51.711 34.8682 49.7126 34.8662ZM53.6838 43.36C53.6849 43.7109 53.5746 44.0531 53.3686 44.3373C53.1627 44.6215 52.8718 44.8329 52.538 44.9411C52.2041 45.0493 51.8446 45.0486 51.5111 44.9393C51.1776 44.8299 50.8875 44.6175 50.6825 44.3326C50.4776 44.0478 50.3684 43.7052 50.3707 43.3542C50.3731 43.0033 50.4868 42.6622 50.6955 42.38C50.9042 42.0979 51.1971 41.8893 51.532 41.7844C51.8669 41.6795 52.2264 41.6836 52.5588 41.7962V39.4168L49.0488 40.4406V45.0418C49.0497 45.3924 48.9393 45.7342 48.7334 46.0179C48.5276 46.3017 48.2369 46.5128 47.9034 46.6207C47.5699 46.7287 47.2107 46.728 46.8776 46.6187C46.5445 46.5094 46.2548 46.2972 46.05 46.0126C45.8453 45.728 45.7362 45.3858 45.7385 45.0353C45.7408 44.6847 45.8543 44.3439 46.0627 44.0621C46.2711 43.7802 46.5636 43.5717 46.8981 43.4668C47.2326 43.3618 47.5918 43.3658 47.9238 43.4781L47.9238 40.0187C47.9243 39.8971 47.9639 39.7789 48.0369 39.6816C48.1098 39.5843 48.2122 39.5132 48.3288 39.4787L52.9638 38.1287C53.0476 38.1047 53.1358 38.1005 53.2216 38.1163C53.3073 38.1321 53.3882 38.1676 53.4579 38.2199C53.5277 38.2722 53.5843 38.3399 53.6235 38.4178C53.6627 38.4957 53.6833 38.5815 53.6838 38.6687V43.36Z" fill="white"/>
<path d="M47.3951 44.5137C47.2554 44.5156 47.1221 44.5725 47.024 44.6719C46.9258 44.7714 46.8708 44.9055 46.8708 45.0452C46.8709 45.185 46.9259 45.3191 47.024 45.4185C47.1221 45.518 47.2554 45.5749 47.3951 45.5768C47.5348 45.5749 47.6682 45.518 47.7663 45.4185C47.8644 45.319 47.9194 45.1849 47.9194 45.0452C47.9194 44.9055 47.8644 44.7714 47.7663 44.6719C47.6682 44.5724 47.5348 44.5156 47.3951 44.5137Z" fill="white"/>
<path d="M52.0301 42.8311C51.8905 42.8332 51.7574 42.8901 51.6594 42.9896C51.5615 43.0891 51.5066 43.223 51.5066 43.3626C51.5066 43.5022 51.5615 43.6362 51.6595 43.7357C51.7574 43.8351 51.8905 43.8921 52.0301 43.8942C52.1697 43.892 52.3028 43.8351 52.4008 43.7356C52.4987 43.6362 52.5536 43.5022 52.5536 43.3626C52.5536 43.223 52.4987 43.089 52.4008 42.9896C52.3028 42.8901 52.1697 42.8332 52.0301 42.8311Z" fill="white"/>
<path d="M41.1907 34.3542L43.8963 31.7217C43.9713 31.649 44.0243 31.5565 44.0491 31.4551C44.074 31.3536 44.0698 31.2472 44.037 31.148C44.0066 31.0477 43.9481 30.9583 43.8683 30.8905C43.7885 30.8226 43.6908 30.7792 43.587 30.7654L39.852 30.2198L38.1813 26.8336C38.1353 26.7396 38.064 26.6603 37.9754 26.6046C37.8867 26.5489 37.7843 26.5191 37.6796 26.5186C37.575 26.518 37.4722 26.5466 37.383 26.6013C37.2937 26.6559 37.2215 26.7344 37.1745 26.8279L35.4982 30.2142L31.7632 30.7542C31.659 30.7688 31.5611 30.8124 31.4805 30.8801C31.4 30.9477 31.34 31.0366 31.3076 31.1367C31.2761 31.2373 31.273 31.3448 31.2989 31.447C31.3247 31.5493 31.3783 31.6424 31.4538 31.7161L34.1538 34.3486L33.5126 38.0723C33.4946 38.1757 33.5059 38.2821 33.5454 38.3794C33.5849 38.4766 33.6509 38.5608 33.7359 38.6224C33.8209 38.684 33.9215 38.7204 34.0263 38.7276C34.131 38.7347 34.2356 38.7124 34.3282 38.663L37.6695 36.908L41.0107 38.6686C41.1029 38.7183 41.2072 38.741 41.3117 38.734C41.4162 38.727 41.5166 38.6907 41.6013 38.6292C41.6858 38.5668 41.7514 38.4823 41.7911 38.3851C41.8307 38.2879 41.8429 38.1816 41.8263 38.078L41.1907 34.3542Z" fill="white"/>
<path d="M33.6137 39.7881C31.5282 39.7914 29.5291 40.6218 28.055 42.097C26.5808 43.5722 25.7519 45.5719 25.75 47.6575C26.1808 58.0931 41.0553 58.0842 41.4831 47.6574C41.4809 45.571 40.6511 43.5707 39.1758 42.0954C37.7005 40.6201 35.7002 39.7903 33.6137 39.7881ZM36.6512 48.1187L31.2287 51.9437C31.144 52.002 31.045 52.0362 30.9423 52.0426C30.8397 52.049 30.7372 52.0273 30.6459 51.9799C30.5546 51.9325 30.4779 51.8612 30.424 51.7736C30.3701 51.686 30.3411 51.5853 30.34 51.4825V43.8269C30.3399 43.7235 30.3683 43.6222 30.4219 43.5339C30.4756 43.4455 30.5524 43.3736 30.6441 43.326C30.7359 43.2784 30.8389 43.257 30.942 43.2639C31.0451 43.2709 31.1443 43.3061 31.2287 43.3656L36.6512 47.1962C36.7251 47.2484 36.7854 47.3175 36.827 47.3977C36.8686 47.478 36.8903 47.5671 36.8903 47.6575C36.8903 47.7479 36.8686 47.837 36.827 47.9172C36.7854 47.9975 36.7251 48.0666 36.6512 48.1187Z" fill="white"/>
<path d="M31.4651 50.3975L35.352 47.6581L31.4651 44.9131V50.3975Z" fill="white"/>
</svg>
