<svg width="51" height="51" viewBox="0 0 51 51" fill="none" xmlns="http://www.w3.org/2000/svg">
<rect x="1.21387" y="1.16846" width="49" height="49" rx="7.5" fill="url(#paint0_radial_8432_4052)" stroke="url(#paint1_linear_8432_4052)"/>
<path d="M26.3664 34.1999L25.1244 39.3915L23.8823 34.1999C23.5613 32.8589 22.9595 31.6377 22.1335 30.6514C21.3076 29.6652 20.2849 28.9465 19.1618 28.5632L14.8125 27.0783L19.1603 25.5953C20.2833 25.212 21.3061 24.4933 22.132 23.5071C22.9579 22.5208 23.5598 21.2996 23.8808 19.9586L25.1244 14.7651L26.3664 19.9567C26.6874 21.2978 27.2892 22.519 28.1152 23.5052C28.9411 24.4915 29.9638 25.2101 31.0869 25.5935L35.4362 27.0783L31.0884 28.5614C29.9654 28.9447 28.9426 29.6634 28.1167 30.6496C27.2908 31.6358 26.6889 32.8571 26.3679 34.1981L26.3664 34.1999Z" fill="#FCF5FE"/>
<defs>
<radialGradient id="paint0_radial_8432_4052" cx="0" cy="0" r="1" gradientUnits="userSpaceOnUse" gradientTransform="translate(25.7139 25.6685) rotate(90) scale(25)">
<stop stop-color="#120E1C"/>
<stop offset="1" stop-color="#28194E"/>
</radialGradient>
<linearGradient id="paint1_linear_8432_4052" x1="9.55235" y1="0.668456" x2="48.3365" y2="50.6685" gradientUnits="userSpaceOnUse">
<stop stop-color="#0F1124"/>
<stop offset="1" stop-color="#5A6DFB"/>
</linearGradient>
</defs>
</svg>
