<svg width="197" height="100" viewBox="0 0 197 100" fill="none" xmlns="http://www.w3.org/2000/svg">
<path d="M57.708 146.088C45.9065 146.042 35.7517 143.137 27.2436 137.374C18.7812 131.61 12.2629 123.262 7.68866 112.33C3.16016 101.397 0.918781 88.2463 0.964523 72.8768C0.964523 57.5531 3.22877 44.4936 7.75728 33.6984C12.3315 22.9032 18.8498 14.6924 27.3122 9.06612C35.8203 3.39405 45.9522 0.558016 57.708 0.558016C69.4638 0.558016 79.5729 3.39405 88.0353 9.06612C96.5434 14.7382 103.085 22.9718 107.659 33.767C112.233 44.5165 114.497 57.5531 114.452 72.8768C114.452 88.292 112.164 101.466 107.59 112.398C103.062 123.331 96.5662 131.679 88.1039 137.442C79.6415 143.206 69.5096 146.088 57.708 146.088ZM57.708 121.455C65.7587 121.455 72.1855 117.407 76.9885 109.311C81.7914 101.214 84.17 89.0697 84.1243 72.8768C84.1243 62.2188 83.0265 53.3448 80.8308 46.2547C78.6809 39.1646 75.6162 33.8356 71.6366 30.2677C67.7028 26.6998 63.0599 24.9159 57.708 24.9159C49.7031 24.9159 43.2992 28.9183 38.4962 36.9233C33.6932 44.9282 31.2689 56.9127 31.2232 72.8768C31.2232 83.672 32.2981 92.6833 34.448 99.9106C36.6436 107.092 39.7312 112.49 43.7108 116.103C47.6904 119.671 52.3562 121.455 57.708 121.455ZM196.771 2.4792V143H167.061V30.6794H166.238L134.058 50.8518V24.5042L168.845 2.4792H196.771Z" fill="url(#paint0_linear_7017_19247)"/>
<defs>
<linearGradient id="paint0_linear_7017_19247" x1="105" y1="-43" x2="233" y2="168.5" gradientUnits="userSpaceOnUse">
<stop stop-color="#C0CCFF"/>
<stop offset="1"/>
</linearGradient>
</defs>
</svg>
