<svg width="51" height="51" viewBox="0 0 51 51" fill="none" xmlns="http://www.w3.org/2000/svg">
<rect x="1.21387" y="1.16846" width="49" height="49" rx="7.5" fill="url(#paint0_radial_8432_4042)" stroke="url(#paint1_linear_8432_4042)"/>
<path fill-rule="evenodd" clip-rule="evenodd" d="M28.7112 17.0281C29.5498 16.0561 30.1151 14.7024 29.9604 13.3555C28.7519 13.4015 27.2899 14.1275 26.4234 15.0983C25.6452 15.9598 24.966 17.3364 25.1486 18.6568C26.4966 18.7569 27.8726 18.0011 28.7112 17.0281ZM31.7342 25.5768C31.7679 29.0586 34.9212 30.2168 34.9561 30.2318C34.9305 30.3134 34.4524 31.8821 33.2951 33.5039C32.2937 34.9049 31.255 36.3002 29.6185 36.3301C28.011 36.3588 27.4934 35.4168 25.6545 35.4168C23.8168 35.4168 23.2422 36.3001 21.7209 36.3587C20.1413 36.4151 18.9375 34.843 17.9291 33.4466C15.8657 30.5906 14.2896 25.3757 16.4065 21.856C17.458 20.1087 19.3364 19.0006 21.3766 18.973C22.927 18.9443 24.3914 19.9728 25.3393 19.9728C26.2873 19.9728 28.0669 18.7363 29.9372 18.918C30.72 18.949 32.9183 19.2204 34.3291 21.2C34.2151 21.2678 31.7063 22.6668 31.7342 25.5768Z" fill="white"/>
<defs>
<radialGradient id="paint0_radial_8432_4042" cx="0" cy="0" r="1" gradientUnits="userSpaceOnUse" gradientTransform="translate(25.7139 25.6685) rotate(90) scale(25)">
<stop stop-color="#120E1C"/>
<stop offset="1" stop-color="#28194E"/>
</radialGradient>
<linearGradient id="paint1_linear_8432_4042" x1="9.55235" y1="0.668456" x2="48.3365" y2="50.6685" gradientUnits="userSpaceOnUse">
<stop stop-color="#0F1124"/>
<stop offset="1" stop-color="#5A6DFB"/>
</linearGradient>
</defs>
</svg>
