<svg width="51" height="51" viewBox="0 0 51 51" fill="none" xmlns="http://www.w3.org/2000/svg">
<rect x="1.21387" y="1.16846" width="49" height="49" rx="7.5" fill="url(#paint0_radial_8432_4018)" stroke="url(#paint1_linear_8432_4018)"/>
<path d="M15.814 18.9736C16.0121 19.757 16.4186 20.4732 16.9899 21.0444L17.5129 21.5607L21.6151 17.4587L21.0922 16.9424C20.5205 16.3712 19.8047 15.9647 19.0212 15.7666L15.0863 14.7718C15.0112 14.7529 14.9316 14.7749 14.8767 14.8294C14.8222 14.8843 14.8003 14.9638 14.8192 15.0389L15.814 18.9736Z" fill="white"/>
<path d="M20.4473 24.4571L24.5492 20.3554L22.5534 18.3848L18.4512 22.4867L20.4473 24.4571Z" fill="white"/>
<path d="M27.6147 31.6704L31.716 27.5691L34.1744 30.0275L30.0731 34.1288L27.6147 31.6704Z" fill="white"/>
<path d="M35.111 30.9604L31.0088 35.0624L32.3588 36.4125C32.9068 36.96 33.6353 37.2619 34.41 37.2619C35.1847 37.2619 35.9133 36.96 36.4612 36.4125C37.5918 35.2815 37.5918 33.4414 36.4612 32.3105L35.111 30.9604Z" fill="white"/>
<path d="M24.9603 26.8433C25.2177 26.5859 25.6351 26.5859 25.8924 26.8433L28.1627 29.1135L29.1618 28.1145L27.8659 26.8187C27.6085 26.5613 27.6085 26.144 27.8659 25.8866C28.1233 25.6293 28.5406 25.6292 28.798 25.8866L30.0939 27.1824L31.1106 26.1657L28.8403 23.8956C28.5829 23.6382 28.5829 23.2209 28.8403 22.9635C29.0977 22.7062 29.515 22.7061 29.7724 22.9635L32.0427 25.2337L33.0595 24.2171L31.7636 22.9213C31.5061 22.6639 31.5061 22.2466 31.7636 21.9892C32.021 21.7319 32.4383 21.7318 32.6957 21.9892L33.9916 23.285L35.0083 22.2683L32.738 19.9981C32.4805 19.7408 32.4805 19.3235 32.738 19.0661C32.9954 18.8087 33.4127 18.8087 33.6701 19.0661L35.9404 21.3363L36.8728 20.4025C37.1541 20.1212 37.309 19.7471 37.309 19.3493C37.309 18.9515 37.154 18.5775 36.8728 18.2962L33.7777 15.2014C33.4964 14.9201 33.1224 14.7651 32.7245 14.7651C32.3267 14.7651 31.9527 14.92 31.6713 15.2014L15.2487 31.6244C14.9674 31.9056 14.8125 32.2797 14.8125 32.6774C14.8125 33.0753 14.9674 33.4492 15.2487 33.7306L18.3438 36.8254C18.6251 37.1067 18.9991 37.2617 19.397 37.2617C19.7949 37.2617 20.1689 37.1068 20.4502 36.8255L21.384 35.8917L20.0882 34.5959C19.8308 34.3386 19.8308 33.9213 20.0882 33.6639C20.3456 33.4065 20.7629 33.4065 21.0203 33.6639L22.3162 34.9597L23.3328 33.943L21.0625 31.6729C20.8051 31.4155 20.8051 30.9982 21.0625 30.7408C21.3199 30.4835 21.7373 30.4835 21.9947 30.7408L24.265 33.0109L25.2817 31.9943L23.9858 30.6985C23.7284 30.4411 23.7284 30.0239 23.9858 29.7664C24.2432 29.5091 24.6605 29.509 24.9179 29.7664L26.2139 31.0622L27.2305 30.0456L24.9602 27.7754C24.7029 27.518 24.7029 27.1007 24.9603 26.8433Z" fill="white"/>
<defs>
<radialGradient id="paint0_radial_8432_4018" cx="0" cy="0" r="1" gradientUnits="userSpaceOnUse" gradientTransform="translate(25.7139 25.6685) rotate(90) scale(25)">
<stop stop-color="#120E1C"/>
<stop offset="1" stop-color="#28194E"/>
</radialGradient>
<linearGradient id="paint1_linear_8432_4018" x1="9.55235" y1="0.668456" x2="48.3365" y2="50.6685" gradientUnits="userSpaceOnUse">
<stop stop-color="#0F1124"/>
<stop offset="1" stop-color="#5A6DFB"/>
</linearGradient>
</defs>
</svg>
