<svg width="81" height="80" viewBox="0 0 81 80" fill="none" xmlns="http://www.w3.org/2000/svg">
<circle cx="40.5" cy="40" r="40" fill="#E51CFF" fill-opacity="0.25"/>
<rect x="10.5" y="10" width="60" height="60" rx="30" fill="#E51CFF"/>
<g clip-path="url(#clip0_7246_24871)">
<path d="M54.9135 32.5207L40.7924 27.5384C40.6032 27.4716 40.3968 27.4716 40.2076 27.5384L26.0865 32.5207C25.7354 32.6445 25.5005 32.9762 25.5 33.3485C25.4995 33.7208 25.7337 34.0529 26.0845 34.1776L40.2056 39.1978C40.3008 39.2316 40.4004 39.2486 40.5 39.2486C40.5996 39.2486 40.6992 39.2316 40.7944 39.1978L54.9155 34.1776C55.2663 34.0529 55.5004 33.7208 55.5 33.3485C55.4995 32.9762 55.2646 32.6445 54.9135 32.5207Z" fill="white"/>
<path d="M53.3892 44.2523V36.5859L51.6313 37.2108V44.2523C51.1019 44.5571 50.7451 45.1281 50.7451 45.7829C50.7451 46.4376 51.1019 47.0087 51.6313 47.3134V51.6327C51.6313 52.1181 52.0249 52.5116 52.5103 52.5116C52.9956 52.5116 53.3892 52.1181 53.3892 51.6327V47.3135C53.9186 47.0088 54.2754 46.4377 54.2754 45.7829C54.2754 45.1281 53.9187 44.5571 53.3892 44.2523Z" fill="white"/>
<path d="M40.5001 41.0062C40.1984 41.0062 39.9013 40.955 39.6169 40.8539L31.6785 38.0317V41.8994C31.6785 42.8456 32.6656 43.6458 34.6124 44.2777C36.3094 44.8285 38.4003 45.1318 40.5001 45.1318C42.5999 45.1318 44.6908 44.8285 46.3878 44.2777C48.3346 43.6458 49.3217 42.8456 49.3217 41.8994V38.0317L41.3834 40.8539C41.0989 40.955 40.8018 41.0062 40.5001 41.0062Z" fill="white"/>
</g>
<defs>
<clipPath id="clip0_7246_24871">
<rect width="30" height="30" fill="white" transform="translate(25.5 25)"/>
</clipPath>
</defs>
</svg>
