<svg width="81" height="80" viewBox="0 0 81 80" fill="none" xmlns="http://www.w3.org/2000/svg">
<circle cx="40.5" cy="40" r="40" fill="#008CFF" fill-opacity="0.25"/>
<rect x="10.5" y="10" width="60" height="60" rx="30" fill="#008CFF"/>
<path d="M25.5483 38.9914V39.9882C25.5483 40.433 25.8433 40.8243 26.2716 40.947C26.5617 41.0297 33.4641 42.9785 40.5 42.9785C47.5358 42.9785 54.4383 41.0297 54.7283 40.947C55.1566 40.8243 55.4516 40.4331 55.4516 39.9882V38.9914C55.4516 38.4405 55.0058 37.9946 54.4548 37.9946H26.5451C25.9942 37.9946 25.5483 38.4405 25.5483 38.9914Z" fill="white"/>
<path d="M52.4611 46.9659C53.0121 46.9659 53.4579 46.5201 53.4579 45.9691V43.3268C52.0424 43.6609 49.912 44.1079 47.4289 44.4536C47.178 48.0742 44.1831 50.953 40.4998 50.953C36.8165 50.953 33.8216 48.0742 33.5707 44.4536C31.0871 44.1078 28.957 43.6606 27.5417 43.3267V45.9691C27.5417 46.5201 27.9876 46.9659 28.5385 46.9659H29.9519C30.1836 47.7806 30.5117 48.5662 30.9332 49.3138L29.9276 50.3193C29.5383 50.7086 29.5383 51.3395 29.9276 51.7288L32.7466 54.5478C33.136 54.9372 33.7668 54.9372 34.1561 54.5478L35.1617 53.5423C35.9093 53.9638 36.6948 54.2918 37.5096 54.5235V56.0034C37.5096 56.5543 37.9554 57.0001 38.5063 57.0001H42.4934C43.0444 57.0001 43.4902 56.5543 43.4902 56.0034V54.5235C44.305 54.2918 45.0905 53.9638 45.8381 53.5423L46.8436 54.5478C47.233 54.9372 47.8638 54.9372 48.2531 54.5478L51.0721 51.7288C51.4615 51.3395 51.4615 50.7086 51.0721 50.3193L50.0666 49.3138C50.4881 48.5662 50.8161 47.7806 51.0478 46.9659H52.4611Z" fill="white"/>
<path d="M38.9162 33.9191C38.4142 34.1463 37.8228 33.9214 37.5982 33.4207L34.4865 26.4549C30.929 28.3269 28.3741 31.8792 27.7341 36.0012H53.2658C52.6258 31.8792 50.0709 28.3268 46.5134 26.4549L43.4017 33.4207C43.177 33.9218 42.5853 34.1461 42.0837 33.9191C41.5824 33.6933 41.3585 33.1034 41.5853 32.6011L45.0296 24.8965C45.2772 24.3474 44.9923 23.6777 44.4109 23.5201C41.8532 22.8266 39.1463 22.8266 36.5887 23.5202C36.0073 23.6778 35.7223 24.3475 35.9699 24.8966L39.4146 32.6011C39.6414 33.1034 39.4185 33.6933 38.9162 33.9191Z" fill="white"/>
</svg>
