<svg width="40" height="41" viewBox="0 0 40 41" fill="none" xmlns="http://www.w3.org/2000/svg">
<g clip-path="url(#clip0_4161_2384)">
<path d="M37.923 31.2772V12.8574C37.923 11.708 37.4664 10.6056 36.6536 9.7928C35.8408 8.98001 34.7384 8.52339 33.589 8.52339H25.6143C25.3532 7.48615 24.9484 6.49052 24.4116 5.56539C23.3773 3.72473 21.8842 2.1831 20.0775 1.09048C19.9128 0.995378 19.726 0.945313 19.5358 0.945312C19.3456 0.945313 19.1587 0.995378 18.994 1.09048C16.222 2.73268 14.2122 5.40471 13.4031 8.52339H5.41757C4.26811 8.52339 3.16572 8.98001 2.35293 9.7928C1.54014 10.6056 1.08351 11.708 1.08351 12.8574V31.2772C0.796149 31.2772 0.520553 31.3913 0.317354 31.5945C0.114156 31.7977 0 32.0733 0 32.3607V35.6113C0 36.7607 0.456623 37.8631 1.26942 38.6759C2.08221 39.4887 3.1846 39.9453 4.33406 39.9453H34.6725C35.8219 39.9453 36.9243 39.4887 37.7371 38.6759C38.5499 37.8631 39.0065 36.7607 39.0065 35.6113V32.3607C39.0065 32.0733 38.8924 31.7977 38.6892 31.5945C38.486 31.3913 38.2104 31.2772 37.923 31.2772ZM19.5033 12.8574C20.1462 12.8574 20.7746 13.0481 21.3092 13.4053C21.8437 13.7624 22.2604 14.2701 22.5064 14.8641C22.7524 15.458 22.8168 16.1116 22.6914 16.7421C22.5659 17.3727 22.2563 17.9519 21.8017 18.4065C21.3472 18.8611 20.768 19.1707 20.1374 19.2961C19.5069 19.4215 18.8533 19.3571 18.2593 19.1111C17.6654 18.8651 17.1577 18.4484 16.8005 17.9139C16.4434 17.3793 16.2527 16.7509 16.2527 16.108C16.2527 15.2459 16.5952 14.4191 17.2048 13.8095C17.8144 13.1999 18.6412 12.8574 19.5033 12.8574ZM25.8202 36.2072C25.722 36.3562 25.5886 36.4787 25.4317 36.5638C25.2748 36.6489 25.0993 36.6938 24.9208 36.6948H14.0857C13.9072 36.6938 13.7318 36.6489 13.5749 36.5638C13.418 36.4787 13.2845 36.3562 13.1864 36.2072L11.3444 33.4442H13.9448L14.6708 34.5277H24.3357L25.0617 33.4442H27.6621L25.8202 36.2072ZM35.756 31.2772H3.25054V12.8574C3.25054 12.2827 3.47886 11.7315 3.88525 11.3251C4.29165 10.9187 4.84284 10.6904 5.41757 10.6904H13.0022C13.0022 10.7446 13.0022 10.7988 13.0022 10.8529C13.0022 11.1022 13.0022 11.3514 13.0022 11.5897V15.122C11.4884 15.3779 10.1141 16.1612 9.12253 17.3332C8.13096 18.5052 7.58616 19.9904 7.5846 21.5256V24.7761C7.5846 25.0635 7.69876 25.3391 7.90196 25.5423C8.10516 25.7455 8.38075 25.8596 8.66812 25.8596C8.8055 25.8616 8.94187 25.8358 9.06902 25.7838L13.9557 23.8226C14.3923 24.2607 14.9448 24.5652 15.5484 24.7003L16.9137 27.4307C17.0037 27.6094 17.1415 27.7597 17.3117 27.8649C17.4819 27.97 17.6779 28.026 17.878 28.0267H21.1285C21.3286 28.026 21.5246 27.97 21.6949 27.8649C21.8651 27.7597 22.0028 27.6094 22.0929 27.4307L23.4581 24.7003C24.0617 24.5652 24.6143 24.2607 25.0509 23.8226L29.9375 25.7838C30.0647 25.8358 30.201 25.8616 30.3384 25.8596C30.6258 25.8596 30.9014 25.7455 31.1046 25.5423C31.3078 25.3391 31.4219 25.0635 31.4219 24.7761V21.5256C31.4204 19.9904 30.8756 18.5052 29.884 17.3332C28.8924 16.1612 27.5181 15.3779 26.0044 15.122V11.5897C26.0044 11.2972 26.0044 10.9938 26.0044 10.6904H33.589C34.1637 10.6904 34.7149 10.9187 35.1213 11.3251C35.5277 11.7315 35.756 12.2827 35.756 12.8574V31.2772Z" fill="#4361EE"/>
<path d="M23.8369 30.1934C24.4353 30.1934 24.9204 29.7083 24.9204 29.1099C24.9204 28.5115 24.4353 28.0264 23.8369 28.0264C23.2385 28.0264 22.7534 28.5115 22.7534 29.1099C22.7534 29.7083 23.2385 30.1934 23.8369 30.1934Z" fill="#4361EE"/>
<path d="M28.1709 30.1934C28.7693 30.1934 29.2544 29.7083 29.2544 29.1099C29.2544 28.5115 28.7693 28.0264 28.1709 28.0264C27.5725 28.0264 27.0874 28.5115 27.0874 29.1099C27.0874 29.7083 27.5725 30.1934 28.1709 30.1934Z" fill="#4361EE"/>
<path d="M32.5054 30.1934C33.1038 30.1934 33.5889 29.7083 33.5889 29.1099C33.5889 28.5115 33.1038 28.0264 32.5054 28.0264C31.907 28.0264 31.4219 28.5115 31.4219 29.1099C31.4219 29.7083 31.907 30.1934 32.5054 30.1934Z" fill="#4361EE"/>
</g>
<defs>
<clipPath id="clip0_4161_2384">
<rect width="40" height="40" fill="white" transform="translate(0 0.945312)"/>
</clipPath>
</defs>
</svg>
