<svg width="20" height="20" viewBox="0 0 20 20" fill="none" xmlns="http://www.w3.org/2000/svg">
<g clip-path="url(#clip0_12309_27683)">
<path d="M14.1406 0H5.85938C2.62344 0 0 2.62344 0 5.85938V14.1406C0 17.3766 2.62344 20 5.85938 20H14.1406C17.3766 20 20 17.3766 20 14.1406V5.85938C20 2.62344 17.3766 0 14.1406 0ZM11.6258 16.0906C11.6258 16.2078 11.0836 16.2664 10 16.2664C8.91641 16.2664 8.37422 16.2313 8.37422 16.1609V13.577C8.37422 13.4949 8.91602 13.4539 10 13.4539C11.084 13.4539 11.6258 13.4891 11.6258 13.5594V16.0906ZM11.2742 12.5223C11.2742 12.5926 10.8551 12.6277 10.0176 12.6277C9.18008 12.6277 8.76055 12.5984 8.76055 12.5398L8.40898 3.87383C8.40898 3.78008 8.94531 3.7332 10.0176 3.7332C11.0898 3.7332 11.6258 3.77422 11.6258 3.85625L11.2742 12.5223Z" fill="#A3ACB5"/>
</g>
<defs>
<clipPath id="clip0_12309_27683">
<rect width="20" height="20" fill="white"/>
</clipPath>
</defs>
</svg>
