<svg width="20" height="20" viewBox="0 0 20 20" fill="none" xmlns="http://www.w3.org/2000/svg">
<g clip-path="url(#clip0_12309_27692)">
<path d="M13.7656 0H6.23438C2.79672 0 0 2.79672 0 6.23438V13.7656C0 17.2033 2.79672 20 6.23438 20H13.7656C17.2033 20 20 17.2033 20 13.7656V6.23438C20 2.79672 17.2033 0 13.7656 0ZM6.23438 10.7384C4.75348 10.7384 3.91699 9.76711 3.89406 9.73844C3.69191 9.48574 3.73289 9.11699 3.98559 8.91488C4.22309 8.72484 4.56324 8.74965 4.77105 8.96324C5.16266 9.3523 5.68207 9.56652 6.23438 9.56652C6.78672 9.56652 7.30613 9.35234 7.69777 8.9632C7.90559 8.74965 8.24566 8.72477 8.4832 8.91488C8.7359 9.11703 8.77688 9.48574 8.57473 9.73844C8.55176 9.76711 7.71523 10.7384 6.23438 10.7384ZM12.8917 14.8381C12.573 15.1113 12.2177 14.9315 12.0927 14.8042C11.5333 14.2463 10.7902 13.9391 10 13.9391C9.20973 13.9391 8.46668 14.2463 7.90723 14.8043C7.69316 15.0222 7.34371 15.0399 7.10828 14.8381C6.86258 14.6275 6.8341 14.2576 7.04473 14.012C7.20383 13.8257 8.26258 12.7673 10 12.7673C11.7374 12.7673 12.7961 13.8257 12.9553 14.012C13.1659 14.2576 13.1374 14.6275 12.8917 14.8381ZM16.106 9.73844C16.0831 9.76707 15.2466 10.7384 13.7657 10.7384C12.2848 10.7384 11.4482 9.76711 11.4253 9.73844C11.2232 9.48574 11.2641 9.11699 11.5168 8.91488C11.7543 8.72484 12.0945 8.74965 12.3023 8.96324C12.6939 9.3523 13.2134 9.56652 13.7657 9.56652C14.318 9.56652 14.8374 9.35234 15.229 8.9632C15.4368 8.74965 15.7769 8.72477 16.0145 8.91488C16.2671 9.11699 16.3081 9.4857 16.106 9.73844Z" fill="#A3ACB5"/>
</g>
<defs>
<clipPath id="clip0_12309_27692">
<rect width="20" height="20" fill="white"/>
</clipPath>
</defs>
</svg>
