<svg width="20" height="20" viewBox="0 0 20 20" fill="none" xmlns="http://www.w3.org/2000/svg">
<g clip-path="url(#clip0_12309_27703)">
<path d="M4.58765 12.3415H1.2452C0.558602 12.3415 0 11.6943 0 10.8994V1.73842C0 0.943634 0.558602 0.296875 1.2452 0.296875H4.58765C5.27419 0.296875 5.83262 0.943634 5.83262 1.73837V10.8994C5.83268 11.6943 5.27425 12.3415 4.58765 12.3415Z" fill="#A3ACB5"/>
<path d="M11.1043 19.7036C10.0512 19.7036 9.19442 18.8471 9.19442 17.7938C9.19442 17.7228 9.19869 17.6517 9.20671 17.5798C9.19408 17.517 9.19271 17.4528 9.20637 17.3906C9.57102 15.7174 8.811 13.8172 8.32519 12.834C8.28313 12.7493 8.24227 12.6669 8.203 12.5921C8.12952 12.507 8.03026 12.4495 7.91815 12.4287H7.77478C7.75412 12.4287 7.72145 12.4267 7.69636 12.4236C6.89923 12.3785 6.2832 11.7309 6.2832 10.937V1.78828C6.2832 0.966 6.95233 0.296875 7.77478 0.296875H18.0897C18.1352 0.296875 18.1789 0.302509 18.2203 0.313266C19.1864 0.415083 19.9283 1.22848 19.9283 2.20721C19.9283 2.73355 19.7141 3.21127 19.3665 3.55696C19.7551 3.90692 20.0009 4.41413 20.0009 4.97745C20.0009 5.52239 19.7715 6.01435 19.4045 6.36294C19.7715 6.71085 20.0009 7.20349 20.0009 7.74837C20.0009 8.29325 19.7715 8.78521 19.4045 9.13318C19.7715 9.48177 20.0009 9.97372 20.0009 10.5187C20.0009 11.5719 19.144 12.429 18.0904 12.429L13.6785 12.4283C14.9122 16.2641 12.7216 18.8361 12.6211 18.9503C12.6191 18.9523 12.617 18.9544 12.615 18.9578C12.254 19.4253 11.6935 19.7036 11.1043 19.7036Z" fill="#A3ACB5"/>
</g>
<defs>
<clipPath id="clip0_12309_27703">
<rect width="20" height="20" fill="white"/>
</clipPath>
</defs>
</svg>
