<svg width="20" height="20" viewBox="0 0 20 20" fill="none" xmlns="http://www.w3.org/2000/svg">
<g clip-path="url(#clip0_12309_27727)">
<path d="M10.4084 0.999494L12.1149 6.25235C12.3405 6.94692 13.1157 7.50971 13.8455 7.50971H19.3686C20.0988 7.50971 20.2121 7.85743 19.6211 8.28668L15.1527 11.5334C14.5617 11.9631 14.266 12.8736 14.4916 13.5677L16.1981 18.8202C16.4242 19.5147 16.1284 19.7289 15.537 19.3005L11.069 16.0543C10.4781 15.625 9.52038 15.625 8.92983 16.0543L4.46188 19.3005C3.87088 19.7302 3.57516 19.5147 3.80081 18.8202L5.50725 13.5677C5.7329 12.8732 5.43718 11.9622 4.84618 11.5334L0.378673 8.28624C-0.212324 7.85699 -0.0990603 7.50927 0.631201 7.50927H6.15378C6.88404 7.50927 7.65881 6.94648 7.88446 6.25191L9.5909 0.999053C9.81698 0.30493 10.1828 0.30493 10.4084 0.999494Z" fill="#F5FAFE"/>
</g>
<defs>
<clipPath id="clip0_12309_27727">
<rect width="20" height="20" fill="white"/>
</clipPath>
</defs>
</svg>
