<svg width="20" height="20" viewBox="0 0 20 20" fill="none" xmlns="http://www.w3.org/2000/svg">
<path d="M14.3309 4.78711C14.5672 5.29617 14.7434 5.83102 14.8559 6.38086C15.7104 6.84493 16.445 7.50201 17.001 8.29984C17.557 9.09768 17.9191 10.0142 18.0586 10.9766C18.1981 11.939 18.1112 12.9207 17.8046 13.8436C17.498 14.7665 16.9803 15.6051 16.2927 16.2927C15.6051 16.9803 14.7665 17.498 13.8436 17.8046C12.9207 18.1112 11.939 18.1981 10.9766 18.0586C10.0142 17.9191 9.09768 17.557 8.29984 17.001C7.50201 16.445 6.84493 15.7104 6.38086 14.8559C5.83102 14.7434 5.29617 14.5672 4.78711 14.3309C5.20356 15.5314 5.9182 16.6064 6.86398 17.4551C7.80976 18.3037 8.95565 18.8982 10.1941 19.1826C11.4326 19.467 12.723 19.4321 13.9443 19.0812C15.1656 18.7302 16.2777 18.0747 17.1762 17.1762C18.0747 16.2777 18.7302 15.1656 19.0812 13.9443C19.4321 12.723 19.467 11.4326 19.1826 10.1941C18.8982 8.95565 18.3037 7.80976 17.4551 6.86398C16.6064 5.9182 15.5314 5.20356 14.3309 4.78711Z" fill="#F5FAFE"/>
<path d="M11.8753 4.37525C12.7114 4.37335 13.5419 4.51282 14.3315 4.78775C13.845 3.73819 13.1123 2.82157 12.1957 2.11577C11.2791 1.40997 10.2057 0.935837 9.06667 0.733661C7.92762 0.531486 6.75661 0.607238 5.65311 0.954483C4.54961 1.30173 3.54623 1.9102 2.72822 2.72822C1.9102 3.54623 1.30173 4.54961 0.954483 5.65311C0.607238 6.75661 0.531486 7.92762 0.733661 9.06667C0.935837 10.2057 1.40997 11.2791 2.11577 12.1957C2.82157 13.1123 3.73819 13.845 4.78775 14.3315C4.51282 13.5419 4.37335 12.7114 4.37525 11.8753C4.37525 9.88613 5.16543 7.97848 6.57195 6.57195C7.97848 5.16543 9.88613 4.37525 11.8753 4.37525Z" fill="#F5FAFE"/>
<path d="M5.625 11.8746C5.62481 12.9159 5.88477 13.9406 6.38125 14.8559C7.54451 15.0923 8.74822 15.0369 9.88487 14.6947C11.0215 14.3525 12.0557 13.7341 12.8951 12.8947C13.7344 12.0553 14.3529 11.0211 14.6951 9.8845C15.0373 8.74785 15.0927 7.54414 14.8563 6.38088C13.9042 5.8642 12.8343 5.60381 11.7513 5.62525C10.6683 5.64669 9.6095 5.94922 8.67867 6.50318C7.74785 7.05713 6.97697 7.8435 6.44164 8.78516C5.90631 9.72681 5.6249 10.7914 5.625 11.8746Z" fill="#F5FAFE"/>
</svg>
