<svg width="20" height="20" viewBox="0 0 20 20" fill="none" xmlns="http://www.w3.org/2000/svg">
<g clip-path="url(#clip0_12309_27715)">
<path d="M15.4123 7.65847L18.7548 7.65847C19.4414 7.65847 20 8.30574 20 9.10065L20 18.2616C20 19.0564 19.4414 19.7031 18.7548 19.7031L15.4124 19.7031C14.7258 19.7031 14.1674 19.0564 14.1674 18.2616L14.1674 9.10065C14.1673 8.30574 14.7258 7.65847 15.4123 7.65847Z" fill="#F5FAFE"/>
<path d="M8.89569 0.296444C9.94881 0.296444 10.8056 1.15293 10.8056 2.20616C10.8056 2.27724 10.8013 2.34833 10.7933 2.42015C10.8059 2.48298 10.8073 2.54724 10.7936 2.60944C10.429 4.28263 11.189 6.18278 11.6748 7.166C11.7169 7.25069 11.7577 7.3331 11.797 7.40794C11.8705 7.49303 11.9697 7.55045 12.0819 7.57128L12.2252 7.57128C12.2459 7.57128 12.2785 7.57333 12.3036 7.5764C13.1008 7.62154 13.7168 8.26915 13.7168 9.06303L13.7168 18.2117C13.7168 19.034 13.0477 19.7031 12.2252 19.7031L1.91029 19.7031C1.86482 19.7031 1.82111 19.6975 1.77973 19.6867C0.813577 19.5849 0.071656 18.7715 0.0716559 17.7928C0.0716559 17.2665 0.285934 16.7887 0.633503 16.443C0.2449 16.0931 -0.000850243 15.5859 -0.000850292 15.0225C-0.00085034 14.4776 0.228452 13.9857 0.595541 13.6371C0.228509 13.2892 -0.000850487 12.7965 -0.000850534 12.2516C-0.000850582 11.7067 0.228452 11.2148 0.595541 10.8668C0.228509 10.5182 -0.000850729 10.0263 -0.000850776 9.48134C-0.000850868 8.42811 0.855976 7.571 1.90955 7.571L6.32151 7.57168C5.08781 3.73592 7.27839 1.16385 7.3789 1.04969C7.38095 1.0477 7.383 1.04565 7.38504 1.04218C7.74604 0.574692 8.30652 0.296444 8.89569 0.296444Z" fill="#F5FAFE"/>
</g>
<defs>
<clipPath id="clip0_12309_27715">
<rect width="20" height="20" fill="white" transform="translate(20 20) rotate(180)"/>
</clipPath>
</defs>
</svg>
