<svg width="50" height="50" viewBox="0 0 50 50" fill="none" xmlns="http://www.w3.org/2000/svg">
<path d="M27.8613 21.3184C29.5117 21.3184 30.8496 22.6562 30.8496 24.3066C30.8496 25.957 29.5117 27.2949 27.8613 27.2949C26.2109 27.2949 24.873 25.957 24.873 24.3066C24.873 22.6562 26.2109 21.3184 27.8613 21.3184ZM29.1504 23.0176C28.0078 21.875 26.0449 22.6855 26.0449 24.3066C26.0449 25.9277 28.0078 26.7383 29.1504 25.5957C29.8535 24.8828 29.8535 23.7305 29.1504 23.0176ZM33.0566 27.3535C32.0703 29.0332 30.3418 30.1172 28.4375 30.3027V36.4844C34.9219 36.1816 40.0488 30.8203 40.0488 24.2969C40.0488 22.1387 39.4922 20.0781 38.4473 18.2422L33.0566 27.3535ZM27.2754 30.3027C24.4141 30.0195 22.1387 27.7539 21.8652 24.8926H3.61328V44.2285H27.2754V30.3027ZM21.8652 23.7207C22.0508 21.8066 23.1348 20.0879 24.834 19.1016L33.9258 13.7207C29.1602 10.9961 23.1348 11.7969 19.248 15.6934C17.168 17.7734 15.8398 20.5957 15.6934 23.7305H21.8652V23.7207ZM35.0488 13.0371L39.8535 10.1855C36.6797 7.48047 32.6758 5.91797 28.4375 5.79102V10.9473C30.8105 11.0449 33.0762 11.7773 35.0488 13.0371ZM40.918 9.56055L43.0957 8.27148C43.6133 7.96875 44.209 8.55469 43.8965 9.08203L42.6172 11.25C49.5117 19.0234 49.1797 30.8496 41.7969 38.2324C38.3594 41.6699 33.6621 43.8379 28.457 43.9941V44.8047C28.457 45.127 28.1934 45.3906 27.8711 45.3906H3.02734C2.70508 45.3906 2.44141 45.127 2.44141 44.8047V24.2969C2.44141 23.9746 2.70508 23.7109 3.02734 23.7109H8.17383C8.48633 13.0859 17.1973 4.59961 27.8613 4.59961C32.7246 4.60938 37.334 6.38672 40.918 9.56055ZM41.9727 12.3047L39.1211 17.1094C40.3809 19.082 41.1035 21.3477 41.2109 23.7207H46.3672C46.25 19.4824 44.6777 15.4785 41.9727 12.3047ZM31.709 27.2656L32.0605 26.7383L41.7188 10.4492L25.4199 20.1074C22.6172 21.7773 22.1973 25.5176 24.4238 27.7441C26.4941 29.8145 29.9219 29.5898 31.709 27.2656ZM19.1406 32.3145C18.8867 32.1191 18.8379 31.748 19.0332 31.4941C19.2285 31.2402 19.5996 31.1914 19.8535 31.3867L23.3887 34.0918C23.7012 34.3359 23.6816 34.7949 23.3789 35.0293L19.8535 37.7344C19.5996 37.9297 19.2285 37.8809 19.0332 37.627C18.8379 37.373 18.8867 37.002 19.1406 36.8066L22.0703 34.5605L19.1406 32.3145ZM14.1699 37.9395C14.0137 38.2227 13.6523 38.3106 13.3691 38.1543C13.0957 37.9883 12.998 37.6367 13.1543 37.3535L16.7188 31.1719C16.875 30.8887 17.2363 30.791 17.5195 30.957C17.8027 31.1133 17.8906 31.4746 17.7344 31.7578L14.1699 37.9395ZM11.0352 31.3867C11.2891 31.1914 11.6602 31.2402 11.8555 31.4941C12.0508 31.748 12.002 32.1191 11.748 32.3145L8.81836 34.5605L11.748 36.8066C12.002 37.002 12.0508 37.373 11.8555 37.627C11.6602 37.8809 11.2891 37.9297 11.0352 37.7344L7.50977 35.0293C7.20703 34.7949 7.1875 34.3359 7.5 34.0918L11.0352 31.3867ZM28.4473 37.6563V42.8125C33.1152 42.666 37.3535 40.791 40.5371 37.8027L36.8848 34.1504C34.6484 36.2207 31.6992 37.5195 28.4473 37.6563ZM9.3457 23.7207H14.502C14.6387 20.4688 15.9473 17.5195 17.998 15.2734L14.3555 11.6211C11.3672 14.8047 9.49219 19.043 9.3457 23.7207ZM37.7246 33.3301L41.377 36.9824C44.3652 33.7988 46.2402 29.5605 46.3867 24.8926H41.2305C41.0742 28.1445 39.7754 31.0938 37.7246 33.3301ZM15.1855 10.8008L18.8379 14.4531C21.084 12.3926 24.0332 11.0938 27.2852 10.957V5.79102C22.5977 5.9375 18.3594 7.8125 15.1855 10.8008Z" fill="#1B275F"/>
</svg>
