<svg width="46" height="46" viewBox="0 0 46 46" fill="none" xmlns="http://www.w3.org/2000/svg">
<path fill-rule="evenodd" clip-rule="evenodd" d="M38.3945 25.5354C41.1908 25.5354 43.4648 27.8095 43.4648 30.6058V33.141H46V42.0141C46 44.1107 44.2938 45.8169 42.1972 45.8169H34.5917C32.4951 45.8169 30.7889 44.1107 30.7889 42.0141V33.141H33.3241V30.6058C33.3241 27.8095 35.5982 25.5354 38.3945 25.5354ZM19.3806 0.183594C21.5355 0.183594 23.6397 0.792038 25.4397 1.93287C26.1495 2.36384 26.834 2.89623 27.4425 3.50468C28.6087 4.67087 29.4579 6.04493 30.0106 7.5407C30.2793 8.26323 30.505 9.00097 30.6241 9.77674L30.6774 10.124L30.7635 10.6032L30.7509 10.6108V10.6159L29.4985 11.3866C28.4362 12.0736 27.2295 12.8494 24.9098 12.857C24.8997 12.857 24.8921 12.8595 24.8819 12.8595C24.2988 12.8595 23.7867 12.8088 23.3304 12.7251C23.3152 12.7226 23.305 12.7175 23.2898 12.715C21.9513 12.459 21.0792 11.9012 20.2882 11.3916C20.06 11.2421 19.842 11.1026 19.6189 10.9733C18.9547 10.593 18.2423 10.3243 17.0482 10.3243H17.0406C15.6665 10.3269 14.9313 10.7021 14.1556 11.1863C14.0491 11.2547 13.9451 11.3156 13.8361 11.3866C13.7626 11.4347 13.6764 11.4854 13.6004 11.5336C13.4508 11.6299 13.2987 11.7263 13.1339 11.8226C13.0274 11.886 12.9083 11.9418 12.7942 12.0026C12.6294 12.0888 12.4621 12.1725 12.277 12.2511C12.1198 12.3221 11.95 12.3829 11.775 12.4437C11.6102 12.4995 11.4302 12.5452 11.2477 12.5933C11.0347 12.6491 10.8243 12.7023 10.586 12.7404C10.5581 12.7454 10.5353 12.753 10.5074 12.7581V14.1271C10.5074 14.5327 10.5328 14.9384 10.6088 15.3186C11.1666 19.6538 14.8933 23.0002 19.3806 23.0002C24.02 23.0002 27.8481 19.4003 28.203 14.8623C29.3438 14.5074 30.1551 13.975 30.7889 13.5694V14.1271C30.7889 18.0617 28.7836 21.5374 25.7414 23.5884H25.858C28.24 23.9868 30.5799 24.6055 32.8475 25.4366C31.5799 26.7954 30.7889 28.603 30.7889 30.6058H28.2537V42.0141C28.2537 42.0471 28.2639 42.0775 28.2639 42.113C24.8667 43.0054 21.789 43.2817 19.3806 43.2817C11.1691 43.2817 4.8337 40.422 0.964995 38.0212L0.366699 37.6485V32.9813C0.366699 29.6526 2.40753 26.7295 5.56383 25.5354C7.94943 24.6304 10.4263 23.9915 12.9361 23.5783H13.0502C10.3376 21.7504 8.42858 18.8121 8.04831 15.3947C7.99761 14.9891 7.97225 14.5581 7.97225 14.1271V11.5919C7.97225 10.2483 8.20042 8.98067 8.63139 7.78914C10.2032 3.35257 14.437 0.183594 19.3806 0.183594ZM38.3945 28.0706C36.9976 28.0706 35.8593 29.2089 35.8593 30.6058V33.141H40.9296V30.6058C40.9296 29.2089 39.7913 28.0706 38.3945 28.0706Z" fill="#2A2D30"/>
</svg>
