<svg width="50" height="50" viewBox="0 0 50 50" fill="none" xmlns="http://www.w3.org/2000/svg">
<g clip-path="url(#clip0_21746_38966)">
<path d="M47.891 30.7409C41.7111 31.9697 41.285 29.9515 41.285 29.9515C47.8108 20.6131 50.5359 8.75599 48.182 5.85478C41.7617 -2.05944 30.6464 1.68405 30.4608 1.7817L30.3975 1.78984C29.1784 1.5457 27.8117 1.39922 26.2762 1.3748C23.4794 1.33004 21.3576 2.08281 19.7504 3.25876C19.7504 3.25876 -0.0800133 -4.62292 0.843804 13.1709C1.04207 16.955 6.46685 41.8086 12.942 34.3012C15.3085 31.5547 17.5948 29.2353 17.5948 29.2353C18.7296 29.9637 20.0921 30.334 21.5137 30.1997L21.6234 30.1102C21.5896 30.452 21.6065 30.7856 21.6655 31.1803C19.9993 32.9788 20.4886 33.2921 17.1519 33.9554C13.7772 34.6268 15.7599 35.819 17.0549 36.1323C18.6241 36.5107 22.2519 37.0478 24.707 33.7356L24.6099 34.1141C25.2638 34.6186 25.7236 37.3978 25.6477 39.9165C25.5717 42.4352 25.5211 44.1645 26.0357 45.5154C26.5504 46.8663 27.065 49.9059 31.4479 48.9985C35.1094 48.2417 37.0076 46.2804 37.2734 43.0089C37.459 40.6814 37.8851 41.0273 37.9104 38.948L38.2521 37.9633C38.6444 34.8099 38.3153 33.7926 40.5721 34.2646L41.1205 34.3094C42.7826 34.3826 44.955 34.053 46.2289 33.4793C48.9666 32.2545 50.5991 30.1997 47.891 30.7409Z" fill="#336791"/>
<path d="M24.2069 32.529C24.2196 32.1221 24.5697 31.8006 24.9915 31.8128C25.4134 31.825 25.7466 32.1628 25.734 32.5697C25.6454 35.5929 25.6623 38.6244 25.7762 41.0495C25.8816 43.2345 26.063 44.8784 26.3161 45.4888C26.5861 46.1358 27.0037 47.092 27.8052 47.7389C28.5856 48.3737 29.7878 48.7603 31.7029 48.3656C33.3776 48.0197 34.5039 47.5274 35.2548 46.7746C35.9972 46.03 36.419 44.9761 36.6806 43.5031C36.8746 42.4289 37.1404 40.5531 37.3808 38.6854C37.6845 36.3498 37.9629 33.9898 38.022 33.2289C38.0515 32.822 38.4185 32.5168 38.8404 32.5493C39.2622 32.5778 39.5786 32.9318 39.5448 33.3387C39.4858 34.0793 39.2074 36.4678 38.891 38.8726C38.6379 40.8013 38.3679 42.7137 38.1823 43.7513C37.8659 45.5132 37.3302 46.8112 36.3473 47.7959C35.3687 48.7765 33.9977 49.395 32.0109 49.806C29.5431 50.3146 27.9149 49.7572 26.8139 48.862C25.7298 47.9831 25.2151 46.8193 24.8903 46.034C24.5697 45.265 24.3546 43.4502 24.2407 41.1105C24.131 38.665 24.1183 35.5929 24.2069 32.529Z" fill="white"/>
<path d="M19.999 2.44263C20.3913 2.59318 20.5812 3.02043 20.4251 3.39885C20.269 3.77726 19.8261 3.96037 19.4338 3.80982C19.3832 3.78947 0.695906 -3.57544 1.56067 13.0587C1.66612 15.1135 3.35346 23.5201 5.91821 29.3835C6.72813 31.2309 7.6182 32.8097 8.56311 33.8188C9.35194 34.6651 10.1576 35.072 10.9338 34.8035C11.3641 34.6529 11.8239 34.3152 12.309 33.7537C14.6839 30.9989 16.8437 28.822 16.8522 28.818C17.1432 28.525 17.6241 28.5128 17.9278 28.7935C18.2315 29.0743 18.2442 29.5382 17.9531 29.8311C17.9489 29.8352 15.8398 31.9552 13.4817 34.6936C12.811 35.4749 12.1276 35.9591 11.44 36.1951C9.98048 36.6956 8.63904 36.1096 7.42416 34.8075C6.36114 33.6723 5.38248 31.9511 4.51351 29.9532C1.87704 23.9351 0.143304 15.26 0.0336268 13.1279C-0.949247 -5.81746 19.94 2.41822 19.999 2.44263Z" fill="white"/>
<path d="M30.8379 2.32957L29.7031 1.13329C29.7959 1.10073 29.8887 1.07225 29.9815 1.04784C30.2304 0.970525 30.5004 0.893214 30.7915 0.811834C31.2175 0.689763 31.8418 0.531072 32.6053 0.388656C36.4145 -0.32342 43.8472 -0.709976 48.7447 5.32844C50.1283 7.03335 50.0144 11.2529 48.5844 16.2497C47.3189 20.6727 45.0368 25.7711 41.8815 30.2877C41.6452 30.6255 41.1686 30.715 40.8185 30.4871C40.4683 30.2593 40.3755 29.7995 40.6118 29.4617C43.6743 25.0794 45.8847 20.1356 47.1122 15.855C48.4199 11.2895 48.6266 7.56639 47.5425 6.23176C43.147 0.815902 36.3681 1.18211 32.888 1.83722C32.1751 1.9715 31.6056 2.11392 31.2175 2.22378L30.8379 2.32957Z" fill="white"/>
<path d="M41.9646 29.6494C41.973 29.6698 41.9772 29.6901 41.9815 29.7105C41.9815 29.7145 42.243 31.0288 47.6889 29.9465C48.4608 29.7918 49.0092 29.8244 49.3636 29.9912C49.8234 30.2028 50.0216 30.5568 49.9921 31.0125C49.9752 31.2892 49.8402 31.5863 49.6167 31.8833C49.102 32.5628 47.9251 33.4417 46.4951 34.0806C45.4236 34.5607 43.7911 34.8822 42.2936 34.9635C41.412 35.0124 40.5683 34.9798 39.8976 34.8496C39.0539 34.6869 38.4127 34.3491 38.147 33.7998C38.0753 33.6533 38.0331 33.4946 38.0247 33.3237C37.8559 30.4673 39.2986 29.9668 40.3068 29.6901C40.2013 29.5436 40.0579 29.3687 39.8976 29.1774C39.3872 28.563 38.7333 27.7736 38.2145 26.5651C38.1343 26.382 37.9023 25.9751 37.5902 25.438C36.2698 23.1553 33.6713 18.655 34.1818 15.5828C34.5445 13.3897 36.2783 11.9329 40.6105 12.3683L40.5683 12.2463C40.3616 11.6807 40.0326 10.9401 39.5559 10.11C37.6661 6.78972 33.5448 2.15918 26.226 2.04525C15.06 1.87028 15.427 15.4526 15.427 15.4893C15.4354 15.8962 15.098 16.2298 14.6761 16.238C14.2543 16.2461 13.9084 15.9206 13.9 15.5137C13.9 15.4689 13.4866 0.372889 26.2471 0.57227C34.3041 0.69841 38.8261 5.7684 40.8931 9.39795C41.4078 10.3013 41.7748 11.1232 42.0068 11.762C42.2683 12.4782 42.3653 13.0397 42.3232 13.2879C42.2641 13.6541 42.0532 13.882 41.6904 13.9512L41.4162 13.9552C37.4425 13.3408 35.9408 14.2808 35.6877 15.8107C35.2616 18.3864 37.6914 22.5856 38.9232 24.7218C39.2564 25.2996 39.5095 25.7391 39.6234 26.0077C40.0621 27.029 40.6358 27.7207 41.083 28.266C41.5006 28.7583 41.8296 29.1571 41.9646 29.6494ZM47.9968 31.3869C43.9599 32.1926 42.0785 31.6025 41.2137 30.9678C41.0956 31.0044 40.9691 31.037 40.8341 31.0736C40.2941 31.2201 39.4547 31.4479 39.5433 33.1976C39.6065 33.2627 39.8428 33.3319 40.1887 33.401C40.7413 33.5068 41.45 33.5313 42.205 33.4906C43.5254 33.4173 44.947 33.1447 45.8539 32.7378C46.7862 32.3187 47.5666 31.8141 48.0474 31.3747L47.9968 31.3869Z" fill="white"/>
<path d="M22.1895 31.5986C21.8774 31.9363 21.62 32.2496 21.4007 32.5181C20.4642 33.6656 20.1732 34.0237 17.2667 34.6015C16.7436 34.7073 16.3893 34.809 16.1699 34.9107C16.4399 35.0979 16.8449 35.2525 17.1992 35.338C17.9163 35.5129 19.1059 35.7205 20.3799 35.5129C21.62 35.3095 22.9573 34.6951 24.0414 33.2302C24.0751 33.1814 24.1046 33.1285 24.13 33.0756C24.2396 32.8193 24.2143 32.4978 24.1046 32.1926C23.9865 31.8671 23.7714 31.5823 23.5225 31.4073C23.4635 31.3666 23.4044 31.3341 23.3411 31.3097L23.3032 31.2934C23.1471 31.2323 22.9741 31.1672 22.8265 31.1794C22.6662 31.1957 22.4637 31.3015 22.1895 31.5986ZM20.1985 31.6026C20.4052 31.3503 20.6456 31.0574 21.0084 30.6627C21.0379 30.6261 21.0717 30.5894 21.1054 30.5569C21.6664 29.9709 22.2022 29.7512 22.6957 29.7105C23.185 29.6698 23.5647 29.8041 23.8853 29.9343C23.8979 29.9384 23.9106 29.9425 23.9275 29.9506C24.092 30.0157 24.2523 30.1052 24.4084 30.211C24.9104 30.5569 25.3237 31.1062 25.5473 31.7043C25.7751 32.3269 25.8131 33.0227 25.5431 33.6412C25.4756 33.7958 25.3912 33.9423 25.2858 34.0847C23.919 35.932 22.2148 36.7052 20.6372 36.9656C19.089 37.2219 17.6801 36.9737 16.828 36.7703C16.2079 36.6197 15.4402 36.2861 14.9888 35.8792C14.7231 35.6391 14.5417 35.3543 14.491 35.0369C14.432 34.6585 14.5501 34.2922 14.9087 33.9667C15.2546 33.6534 15.8958 33.3686 16.9546 33.157C19.3126 32.689 19.5235 32.4327 20.1985 31.6026Z" fill="white"/>
<path d="M22.2647 30.9658C22.3279 31.3686 22.0411 31.747 21.6235 31.804C21.2059 31.861 20.8136 31.5884 20.7545 31.1855C20.7376 31.0879 20.7292 30.9902 20.7208 30.8885C20.4677 30.8803 20.2188 30.8641 19.9741 30.8274C18.3374 30.6077 16.8568 29.8102 15.7431 28.6302C14.6421 27.4664 13.8997 25.9284 13.7267 24.2112C13.6635 23.6009 13.6761 22.9661 13.7689 22.3273C14.1444 19.7475 14.0009 17.4404 13.9292 16.2441C13.9081 15.9186 13.8955 15.6745 13.8955 15.4873C13.8997 15.0031 15.161 13.937 16.823 13.2778C17.5739 12.9808 18.4133 12.7326 19.2443 12.6105C20.1218 12.4843 21.0076 12.4966 21.8049 12.7366C23.0535 13.115 24.0448 14.0062 24.4245 15.7111C25.7954 21.8187 24.5679 24.4432 23.6103 26.498C23.4458 26.852 23.2897 27.1857 23.1716 27.4868C23.1674 27.5071 23.159 27.5234 23.1505 27.5438C22.7498 28.5854 23.3361 27.0595 23.0324 27.8367C22.5557 29.09 22.1381 30.1642 22.2647 30.9658ZM20.8853 29.4196C21.0498 28.7645 21.3198 28.0727 21.6066 27.3281C21.8344 26.7422 21.2396 28.2762 21.7163 27.0351C21.7247 27.0148 21.7332 26.9944 21.7416 26.9741C21.8892 26.5957 22.0495 26.258 22.214 25.8999C23.083 24.0403 24.1882 21.664 22.927 16.0325C22.6823 14.938 22.0875 14.3764 21.3451 14.1526C20.7883 13.9858 20.1344 13.9817 19.4637 14.0794C18.7466 14.1852 18.0295 14.3968 17.3883 14.6491C16.262 15.0926 15.4099 15.4669 15.4099 15.4995C15.4099 15.6053 15.4225 15.8454 15.4436 16.1668C15.5195 17.4079 15.6672 19.8126 15.2749 22.5389C15.1989 23.0719 15.1863 23.5887 15.2369 24.0851C15.3761 25.4686 15.9751 26.7096 16.8652 27.6495C17.7426 28.5773 18.9027 29.208 20.1766 29.3789C20.4128 29.4033 20.649 29.4196 20.8853 29.4196Z" fill="white"/>
<path d="M19.6423 15.3856C19.6085 15.6257 20.1021 16.2727 20.7432 16.3581C21.3844 16.4436 21.937 15.939 21.9708 15.6989C22.0045 15.4589 21.511 15.1903 20.8698 15.1049C20.2286 15.0194 19.676 15.1456 19.6423 15.3856Z" fill="white"/>
<path d="M19.8956 15.4168C19.8871 15.4697 19.9757 15.6081 20.1233 15.7586C20.2879 15.9254 20.5199 16.076 20.7772 16.1126H20.7814C21.0345 16.1452 21.2707 16.0638 21.4479 15.9458C21.6124 15.84 21.7137 15.7261 21.7263 15.661C21.7263 15.6487 21.663 15.6121 21.5576 15.5552C21.3846 15.4616 21.1315 15.3843 20.8405 15.3436H20.832C20.5452 15.307 20.2794 15.3151 20.0896 15.3598C19.9715 15.3883 19.8956 15.4087 19.8956 15.4168ZM19.7563 16.0963C19.5075 15.8441 19.3683 15.543 19.3936 15.3558V15.3476C19.4273 15.1157 19.6425 14.957 19.9715 14.8797C20.2204 14.8227 20.5494 14.8105 20.8995 14.8553C20.9037 14.8553 20.908 14.8553 20.9122 14.8553C21.2665 14.9041 21.5829 15.0018 21.8065 15.1238C22.1017 15.2825 22.2663 15.4982 22.2325 15.7261C22.2072 15.9051 22.0174 16.1655 21.7348 16.3486C21.469 16.5236 21.1062 16.6497 20.7139 16.5968H20.7097C20.3216 16.548 19.9884 16.3323 19.7563 16.0963Z" fill="white"/>
<path d="M39.2364 14.8934C39.2702 15.1335 38.7766 15.7805 38.1354 15.8659C37.49 15.9514 36.9416 15.4468 36.9079 15.2068C36.8741 14.9667 37.3677 14.6981 38.0131 14.6127C38.6501 14.5272 39.1984 14.6534 39.2364 14.8934Z" fill="white"/>
<path d="M39.3544 14.875C39.3755 15.0296 39.249 15.2941 39.0254 15.5219C38.8102 15.7416 38.4981 15.941 38.1438 15.9858H38.1395C37.7852 16.0305 37.4562 15.9166 37.2115 15.7579C36.9584 15.5952 36.7939 15.3714 36.7686 15.2208C36.7433 15.0458 36.8825 14.875 37.1313 14.7407C37.3423 14.6267 37.6418 14.5332 37.9792 14.4884C38.3167 14.4436 38.6331 14.4558 38.8693 14.5087C39.1477 14.5698 39.3291 14.6959 39.3544 14.875ZM38.8398 15.351C39.0127 15.1761 39.114 14.997 39.1013 14.9075C39.0929 14.8424 38.9832 14.7854 38.8145 14.7447C38.6078 14.6959 38.3251 14.6878 38.0172 14.7285C37.7135 14.7692 37.4435 14.8546 37.2579 14.9523C37.106 15.0336 37.0175 15.1191 37.0259 15.1842C37.0385 15.2737 37.1651 15.4243 37.3591 15.5504C37.5574 15.6806 37.8274 15.7742 38.1142 15.7376H38.1184C38.4011 15.701 38.6584 15.5341 38.8398 15.351Z" fill="white"/>
<path d="M40.7704 13.2584C40.7493 12.8515 41.0741 12.5057 41.496 12.4853C41.9178 12.465 42.2763 12.7783 42.2974 13.1852C42.3607 14.3245 42.2173 15.2278 42.0654 16.1759C41.9515 16.8839 41.8334 17.6245 41.8081 18.4505C41.7828 19.2358 41.8883 20.1066 42.0022 21.0018C42.2974 23.3577 42.6096 25.8805 40.7957 28.4887C40.5595 28.8265 40.087 28.916 39.7369 28.6922C39.3868 28.4643 39.294 28.0086 39.526 27.6709C41.0193 25.5184 40.7409 23.2763 40.4793 21.1767C40.3612 20.2408 40.2473 19.3294 40.2811 18.4098C40.3106 17.4576 40.4329 16.6967 40.551 15.9602C40.6945 15.0732 40.8252 14.235 40.7704 13.2584Z" fill="white"/>
</g>
<defs>
<clipPath id="clip0_21746_38966">
<rect width="50" height="50" fill="white"/>
</clipPath>
</defs>
</svg>
