<svg width="60" height="60" viewBox="0 0 60 60" fill="none" xmlns="http://www.w3.org/2000/svg">
<path d="M0 30C0 13.4315 13.4315 0 30 0C46.5685 0 60 13.4315 60 30C60 46.5685 46.5685 60 30 60C13.4315 60 0 46.5685 0 30Z" fill="#121314"/>
<path d="M50.9962 33.0676C50.9878 37.7875 47.2505 41.6592 42.5306 41.8271C42.4298 41.8439 42.3206 41.8607 42.2114 41.8607H19.0065C16.1511 41.8691 13.4048 40.7605 11.3472 38.7785C7.01357 34.6045 6.87919 27.7093 11.0532 23.3758C13.1108 21.2426 15.9411 20.0332 18.9058 20.0332H18.9226C18.9897 20.0332 19.0569 19.9828 19.0737 19.924C19.8548 16.6234 22.0552 13.8435 25.0954 12.3402C28.2196 10.7781 31.8058 10.7445 35.1987 12.2226C37.5671 13.2556 39.4567 15.1285 40.5065 17.4884C41.4892 19.714 41.8251 22.0572 41.4808 24.2996C43.1604 24.1652 44.8821 24.5011 46.503 25.3074C47.9896 26.0465 49.1905 27.239 49.938 28.7256C50.6183 30.0777 50.9794 31.5558 50.9962 33.0676Z" fill="#6981F1"/>
</svg>
