<svg width="60" height="60" viewBox="0 0 60 60" fill="none" xmlns="http://www.w3.org/2000/svg">
<path d="M0 30C0 13.4315 13.4315 0 30 0C46.5685 0 60 13.4315 60 30C60 46.5685 46.5685 60 30 60C13.4315 60 0 46.5685 0 30Z" fill="#121314"/>
<path d="M40.2001 12.4303C39.3665 11.9454 38.3086 12.229 36.1928 12.7963L32.9382 13.6689C32.1623 13.8769 31.7743 13.9809 31.3818 13.9513C30.9891 13.9216 30.6209 13.7605 29.8844 13.4383L26.7952 12.0866C24.787 11.2079 23.7829 10.7686 22.8868 11.1229C21.9908 11.4773 21.5513 12.4876 20.6722 14.5081L19.32 17.6163C18.9977 18.3573 18.8365 18.7278 18.5687 19.0186C18.3009 19.3094 17.9463 19.4991 17.2372 19.8784L14.2623 21.4695C12.3284 22.5037 11.3615 23.0209 11.0778 23.9478C10.7941 24.8746 11.3039 25.8508 12.3235 27.8031L13.892 30.8064C14.2659 31.5223 14.4529 31.8803 14.5116 32.2727C14.5702 32.6649 14.4963 33.0625 14.3484 33.8577L13.7281 37.1934C13.3248 39.3618 13.1232 40.446 13.6654 41.2475C14.2077 42.0489 15.2829 42.2559 17.4334 42.6698L20.7415 43.3066C21.5301 43.4585 21.9244 43.5343 22.2654 43.7328C22.6063 43.9311 22.8687 44.2372 23.3935 44.8495L25.5949 47.418C27.0258 49.0877 27.7414 49.9226 28.7012 49.995C29.6611 50.0675 30.4921 49.3494 32.1541 47.9133L34.7107 45.7041C35.3201 45.1775 35.625 44.9142 35.9914 44.7692C36.3579 44.6242 36.759 44.6085 37.5612 44.5768L40.9266 44.4439C43.1144 44.3576 44.2081 44.3144 44.8629 43.6034C45.5176 42.8924 45.4786 41.79 45.4006 39.5852L45.2806 36.1936C45.2519 35.385 45.2376 34.9808 45.3536 34.6016C45.4698 34.2225 45.7075 33.8967 46.1831 33.2449L48.1783 30.5107C49.4753 28.7333 50.1239 27.8447 49.9804 26.8855C49.8369 25.9264 48.9573 25.2698 47.198 23.9566L44.4917 21.9366C44.3889 21.8598 44.2943 21.7892 44.2071 21.7234L29.0404 38.1067L19.1311 26.956C19.8968 26.1844 20.2797 25.7986 20.7171 25.6197C21.2166 25.4155 21.7709 25.3921 22.2856 25.5535C22.7364 25.6949 23.1499 26.0472 23.9769 26.7515L29.0404 31.0642L42.55 18.5777L41.8892 16.1103C41.3189 13.9803 41.0337 12.9153 40.2001 12.4303Z" fill="#6981F1"/>
</svg>
