<svg width="60" height="60" viewBox="0 0 60 60" fill="none" xmlns="http://www.w3.org/2000/svg">
<circle cx="21" cy="21" r="21" transform="matrix(1 0 0 -1 9 51)" fill="#6981F1"/>
<path d="M35.0671 25.8594H24.9349C24.7733 27.2198 24.6875 28.6123 24.6875 30C24.6875 31.3876 24.7733 32.7801 24.9349 34.1405H35.0671C35.2287 32.7801 35.3145 31.3876 35.3145 30C35.3145 28.6123 35.2287 27.2198 35.0671 25.8594Z" fill="#121314"/>
<path d="M25.5391 37.6562C25.885 39.1575 26.3288 40.5668 26.8608 41.8192C28.1828 44.9309 29.5455 45.9375 29.9983 45.9375C30.4511 45.9375 31.8138 44.9309 33.1356 41.8192C33.6678 40.5667 34.1114 39.1575 34.4574 37.6562H25.5391Z" fill="#121314"/>
<path d="M36.3708 16.8069C37.0836 18.4846 37.6507 20.3575 38.0606 22.3447H43.9719C42.1363 19.0077 39.1404 16.3953 35.5312 15.0547C35.8233 15.5938 36.1037 16.1783 36.3708 16.8069Z" fill="#121314"/>
<path d="M38.8306 30C38.8306 31.3957 38.7541 32.7825 38.6095 34.1405H45.3924C45.7481 32.8196 45.939 31.4318 45.939 30C45.939 28.5682 45.7481 27.1803 45.3923 25.8594H38.6094C38.7541 27.2175 38.8306 28.6043 38.8306 30Z" fill="#121314"/>
<path d="M21.1709 30C21.1709 28.6043 21.2474 27.2175 21.392 25.8594H14.6091C14.2534 27.1803 14.0625 28.5682 14.0625 30C14.0625 31.4318 14.2534 32.8196 14.6092 34.1405H21.3921C21.2474 32.7825 21.1709 31.3957 21.1709 30Z" fill="#121314"/>
<path d="M34.4574 22.3438C34.1114 20.8425 33.6677 19.4332 33.1356 18.1808C31.8136 15.0691 30.451 14.0625 29.9982 14.0625C29.5454 14.0625 28.1827 15.0691 26.8608 18.1808C26.3287 19.4333 25.885 20.8425 25.5391 22.3438H34.4574Z" fill="#121314"/>
<path d="M38.0606 37.6562C37.6507 39.6434 37.0836 41.5163 36.3708 43.1941C36.1037 43.8227 35.8233 44.4072 35.5312 44.9462C39.1405 43.6056 42.1363 40.9933 43.9719 37.6562H38.0606Z" fill="#121314"/>
<path d="M23.6246 43.1941C22.9117 41.5163 22.3446 39.6434 21.9347 37.6562H16.0234C17.8591 40.9933 20.8548 43.6056 24.4641 44.9462C24.1721 44.4072 23.8916 43.8227 23.6246 43.1941Z" fill="#121314"/>
<path d="M21.9347 22.3447C22.3446 20.3575 22.9117 18.4846 23.6246 16.8069C23.8916 16.1783 24.1721 15.5938 24.4641 15.0547C20.8548 16.3953 17.8591 19.0077 16.0234 22.3447H21.9347Z" fill="#121314"/>
<path d="M51.2133 8.78672C45.5469 3.12059 38.0133 0 30 0C21.9867 0 14.4531 3.12059 8.78672 8.78672C3.12059 14.4531 0 21.9867 0 30C0 38.0133 3.12059 45.5469 8.78672 51.2133C14.4531 56.8794 21.9867 60 30 60C38.0133 60 45.5469 56.8794 51.2133 51.2133C56.8794 45.5469 60 38.0133 60 30C60 21.9867 56.8794 14.4531 51.2133 8.78672ZM30 49.4531C19.2736 49.4531 10.5469 40.7264 10.5469 30C10.5469 19.2736 19.2736 10.5469 30 10.5469C40.7264 10.5469 49.4531 19.2736 49.4531 30C49.4531 40.7264 40.7264 49.4531 30 49.4531Z" fill="#121314"/>
</svg>
