<svg width="60" height="60" viewBox="0 0 60 60" fill="none" xmlns="http://www.w3.org/2000/svg">
<g clip-path="url(#clip0_16183_8579)">
<path d="M30 60C46.5685 60 60 46.5685 60 30C60 13.4315 46.5685 0 30 0C13.4315 0 0 13.4315 0 30C0 46.5685 13.4315 60 30 60Z" fill="#121314"/>
<path d="M30 8C25.6488 8 21.3953 9.29028 17.7775 11.7077C14.1596 14.1251 11.3398 17.561 9.67466 21.581C8.00953 25.6009 7.57386 30.0244 8.42273 34.292C9.27161 38.5596 11.3669 42.4796 14.4437 45.5563C17.5204 48.6331 21.4404 50.7284 25.708 51.5773C29.9756 52.4261 34.3991 51.9905 38.419 50.3253C42.439 48.6602 45.8749 45.8404 48.2923 42.2225C50.7097 38.6047 52 34.3512 52 30C52 27.1109 51.431 24.2501 50.3254 21.581C49.2197 18.9118 47.5992 16.4865 45.5564 14.4436C43.5135 12.4008 41.0882 10.7803 38.419 9.67465C35.7499 8.56905 32.8891 8 30 8ZM25.05 33.718C25.2065 33.8692 25.3309 34.0504 25.4159 34.2507C25.5009 34.451 25.5447 34.6664 25.5447 34.884C25.5447 35.1016 25.5009 35.317 25.4159 35.5173C25.3309 35.7176 25.2065 35.8988 25.05 36.05C24.8988 36.2058 24.7174 36.329 24.5169 36.4123C24.3164 36.4955 24.1011 36.5369 23.884 36.534C23.6673 36.5348 23.4525 36.4924 23.2523 36.4093C23.0521 36.3262 22.8705 36.204 22.718 36.05L17.834 31.166C17.5272 30.8555 17.3551 30.4365 17.3551 30C17.3551 29.5634 17.5272 29.1445 17.834 28.834L22.718 23.95C23.0308 23.6585 23.4445 23.4999 23.872 23.5074C24.2994 23.515 24.7073 23.6881 25.0096 23.9904C25.3119 24.2927 25.485 24.7006 25.4926 25.128C25.5001 25.5555 25.3415 25.9692 25.05 26.282L21.332 30L25.05 33.718ZM33.806 21.596L29.406 39.196C29.3149 39.5533 29.1078 39.8703 28.8172 40.0973C28.5265 40.3242 28.1688 40.4483 27.8 40.45C27.667 40.4462 27.5346 40.4315 27.404 40.406C26.9794 40.2988 26.6141 40.0285 26.3876 39.6537C26.161 39.2788 26.0915 38.8298 26.194 38.404L30.594 20.804C30.6426 20.5895 30.7334 20.3869 30.8612 20.2079C30.9891 20.029 31.1513 19.8773 31.3384 19.7618C31.5255 19.6463 31.7337 19.5692 31.951 19.5351C32.1682 19.501 32.3901 19.5106 32.6036 19.5632C32.8171 19.6158 33.018 19.7105 33.1945 19.8417C33.371 19.9729 33.5195 20.1379 33.6315 20.3272C33.7434 20.5165 33.8165 20.7262 33.8465 20.944C33.8765 21.1619 33.8627 21.3835 33.806 21.596ZM42.166 31.166L37.282 36.05C37.1295 36.204 36.9479 36.3262 36.7477 36.4093C36.5475 36.4924 36.3328 36.5348 36.116 36.534C35.8989 36.5369 35.6836 36.4955 35.4831 36.4123C35.2826 36.329 35.1012 36.2058 34.95 36.05C34.7935 35.8988 34.6691 35.7176 34.5841 35.5173C34.4991 35.317 34.4553 35.1016 34.4553 34.884C34.4553 34.6664 34.4991 34.451 34.5841 34.2507C34.6691 34.0504 34.7935 33.8692 34.95 33.718L38.668 30L34.95 26.282C34.6585 25.9692 34.4999 25.5555 34.5074 25.128C34.515 24.7006 34.6881 24.2927 34.9904 23.9904C35.2927 23.6881 35.7006 23.515 36.1281 23.5074C36.5555 23.4999 36.9692 23.6585 37.282 23.95L42.166 28.834C42.4729 29.1445 42.6449 29.5634 42.6449 30C42.6449 30.4365 42.4729 30.8555 42.166 31.166Z" fill="#6981F1"/>
</g>
<defs>
<clipPath id="clip0_16183_8579">
<rect width="60" height="60" fill="white"/>
</clipPath>
</defs>
</svg>
