<svg width="60" height="60" viewBox="0 0 60 60" fill="none" xmlns="http://www.w3.org/2000/svg">
<g clip-path="url(#clip0_16183_17271)">
<path d="M30 60C46.5685 60 60 46.5685 60 30C60 13.4315 46.5685 0 30 0C13.4315 0 0 13.4315 0 30C0 46.5685 13.4315 60 30 60Z" fill="#121314"/>
<path d="M13.3275 30.0364C14.1469 29.3358 15.1325 28.8252 16.225 28.5877C16.5694 27.0083 17.5906 25.6783 18.98 24.9302V23.1252H21.3075L16.1537 14.207L11 23.1252H13.3275V30.0364Z" fill="#6981F1"/>
<path d="M44.605 29.3839L44.0825 29.2414L44.0469 28.707C43.8331 25.572 41.2087 23.1258 38.0619 23.1258C37.6106 23.1258 37.1594 23.1733 36.72 23.2802L36.2212 23.3989L35.9244 22.9833C34.5112 20.9883 32.2194 19.8008 29.7969 19.8008C28.2531 19.8008 26.7687 20.2639 25.51 21.1427C24.275 21.9977 23.3369 23.197 22.7906 24.5864L22.5769 25.1208L22.0069 25.0614C21.8525 25.0495 21.6862 25.0377 21.52 25.0377C20.4394 25.0377 19.3944 25.4177 18.5512 26.0945C17.7319 26.7714 17.15 27.7095 16.9362 28.7427L16.8294 29.2177L16.3544 29.3245C15.0481 29.6214 13.8606 30.3577 13.0175 31.4027C12.1506 32.4833 11.6875 33.7777 11.6875 35.167C11.6875 38.4683 14.3831 41.1639 17.6844 41.1639H33.7275L30.8181 36.1289H33.7037V27.2583H40.8644V36.1289H43.75L40.8525 41.1639H43.0019C46.3031 41.1639 48.9987 38.4683 48.9987 35.167C48.9987 32.4833 47.1937 30.0964 44.605 29.3839Z" fill="#6981F1"/>
<path d="M34.4759 28.0039V36.8745H32.1484L37.3022 45.7927L42.4441 36.8745H40.1166V28.0039H34.4759Z" fill="#6981F1"/>
</g>
<defs>
<clipPath id="clip0_16183_17271">
<rect width="60" height="60" fill="white"/>
</clipPath>
</defs>
</svg>
