<svg width="100" height="100" viewBox="0 0 100 100" fill="none" xmlns="http://www.w3.org/2000/svg">
<circle cx="50" cy="50" r="50" fill="#FF5D00" fill-opacity="0.1"/>
<path d="M32.625 78H66.375C67.8668 78 69.2976 77.41 70.3525 76.3598C71.4074 75.3096 72 73.8852 72 72.4V38.3195C72 36.8343 71.4073 35.4099 70.3524 34.3598L59.5851 23.6402C58.5302 22.59 57.0995 22 55.6076 22H32.625C31.1332 22 29.7024 22.59 28.6475 23.6402C27.5926 24.6904 27 26.1148 27 27.6V72.4C27 73.8852 27.5926 75.3096 28.6475 76.3598C29.7024 77.41 31.1332 78 32.625 78ZM55.125 26.2H55.6071C55.792 26.1996 55.9752 26.2357 56.146 26.3061C56.3169 26.3765 56.4721 26.4798 56.6027 26.6102L67.3692 37.3289C67.5002 37.4589 67.604 37.6134 67.6747 37.7835C67.7454 37.9536 67.7816 38.136 67.7812 38.3201V38.8H60.75C59.2582 38.8 57.8274 38.21 56.7725 37.1598C55.7176 36.1096 55.125 34.6852 55.125 33.2V26.2ZM39.0741 56.4204C39.3351 56.1603 39.6451 55.9539 39.9863 55.8132C40.3275 55.6724 40.6932 55.5999 41.0625 55.5999C41.4318 55.5999 41.7975 55.6724 42.1387 55.8132C42.4799 55.9539 42.7899 56.1603 43.0509 56.4204L46.6875 60.0405L55.9491 50.8204C56.4795 50.3104 57.1899 50.0281 57.9274 50.0345C58.6648 50.0409 59.3702 50.3354 59.8917 50.8545C60.4131 51.3736 60.7089 52.0759 60.7153 52.8101C60.7217 53.5442 60.4383 54.2515 59.9259 54.7796L48.6759 65.9796C48.4149 66.2397 48.1049 66.446 47.7637 66.5868C47.4225 66.7275 47.0568 66.8 46.6875 66.8C46.3182 66.8 45.9525 66.7275 45.6113 66.5868C45.2701 66.446 44.9601 66.2397 44.6991 65.9796L39.0741 60.3796C38.8128 60.1197 38.6055 59.8111 38.4641 59.4715C38.3227 59.1318 38.2499 58.7677 38.2499 58.4C38.2499 58.0323 38.3227 57.6682 38.4641 57.3285C38.6055 56.9889 38.8128 56.6803 39.0741 56.4204Z" fill="#FF5D00"/>
</svg>
