<svg width="70" height="70" viewBox="0 0 70 70" fill="none" xmlns="http://www.w3.org/2000/svg">
<g clip-path="url(#clip0_14111_31584)">
<path d="M35 70C54.33 70 70 54.33 70 35C70 15.67 54.33 0 35 0C15.67 0 0 15.67 0 35C0 54.33 15.67 70 35 70Z" fill="#121617"/>
<path d="M53.9 33.6H51.1V26.6C51.1 25.4861 50.6575 24.4178 49.8698 23.6302C49.0822 22.8425 48.0139 22.4 46.9 22.4H39.9V19.6C39.9 18.1148 39.31 16.6904 38.2598 15.6402C37.2096 14.59 35.7852 14 34.3 14C32.8148 14 31.3904 14.59 30.3402 15.6402C29.29 16.6904 28.7 18.1148 28.7 19.6V22.4H21.7C20.5861 22.4 19.5178 22.8425 18.7302 23.6302C17.9425 24.4178 17.5 25.4861 17.5 26.6V35C17.5 35.3713 17.6475 35.7274 17.9101 35.9899C18.1726 36.2525 18.5287 36.4 18.9 36.4H23.1C23.8426 36.4 24.5548 36.695 25.0799 37.2201C25.605 37.7452 25.9 38.4574 25.9 39.2C25.9 39.9426 25.605 40.6548 25.0799 41.1799C24.5548 41.705 23.8426 42 23.1 42H18.9C18.5287 42 18.1726 42.1475 17.9101 42.4101C17.6475 42.6726 17.5 43.0287 17.5 43.4V51.8C17.5 52.9139 17.9425 53.9822 18.7302 54.7698C19.5178 55.5575 20.5861 56 21.7 56H30.1C30.4713 56 30.8274 55.8525 31.0899 55.5899C31.3525 55.3274 31.5 54.9713 31.5 54.6V50.4C31.5 49.6574 31.795 48.9452 32.3201 48.4201C32.8452 47.895 33.5574 47.6 34.3 47.6C35.0426 47.6 35.7548 47.895 36.2799 48.4201C36.805 48.9452 37.1 49.6574 37.1 50.4V54.6C37.1 54.9713 37.2475 55.3274 37.5101 55.5899C37.7726 55.8525 38.1287 56 38.5 56H46.9C48.0139 56 49.0822 55.5575 49.8698 54.7698C50.6575 53.9822 51.1 52.9139 51.1 51.8V44.8H53.9C55.3852 44.8 56.8096 44.21 57.8598 43.1598C58.91 42.1096 59.5 40.6852 59.5 39.2C59.5 37.7148 58.91 36.2904 57.8598 35.2402C56.8096 34.19 55.3852 33.6 53.9 33.6Z" fill="#F5FAFE"/>
</g>
<defs>
<clipPath id="clip0_14111_31584">
<rect width="70" height="70" fill="white"/>
</clipPath>
</defs>
</svg>
