<svg width="70" height="70" viewBox="0 0 70 70" fill="none" xmlns="http://www.w3.org/2000/svg">
<g clip-path="url(#clip0_14111_31548)">
<path d="M35 70C54.33 70 70 54.33 70 35C70 15.67 54.33 0 35 0C15.67 0 0 15.67 0 35C0 54.33 15.67 70 35 70Z" fill="#121617"/>
<path d="M16.7969 31.3598C16.7969 24.4984 16.7969 21.0677 18.9263 18.9292C21.0557 16.7907 24.4955 16.7998 31.3569 16.7998H38.6369C45.4983 16.7998 48.929 16.7998 51.0675 18.9292C53.206 21.0586 53.1969 24.4984 53.1969 31.3598V38.6398C53.1969 45.5012 53.1969 48.9319 51.0675 51.0704C48.9381 53.2089 45.4983 53.1998 38.6369 53.1998H31.3569C24.4955 53.1998 21.0648 53.1998 18.9263 51.0704C16.7878 48.941 16.7969 45.5012 16.7969 38.6398V31.3598Z" fill="#F5FAFE"/>
<path d="M32.7498 37.2472C32.8776 37.3751 32.9494 37.5486 32.9494 37.7295C32.9494 37.9103 32.8776 38.0838 32.7498 38.2118L28.4546 42.507H31.3575C31.5385 42.507 31.7121 42.5788 31.8401 42.7069C31.968 42.8348 32.04 43.0084 32.04 43.1895C32.04 43.3705 31.968 43.5441 31.8401 43.672C31.7121 43.8001 31.5385 43.872 31.3575 43.872H26.8075C26.6735 43.8705 26.5429 43.8302 26.4314 43.7558C26.32 43.6816 26.2325 43.5765 26.1796 43.4534C26.144 43.3699 26.1255 43.2802 26.125 43.1895V38.6395C26.125 38.4584 26.1969 38.2848 26.3248 38.1569C26.4529 38.0288 26.6265 37.957 26.8075 37.957C26.9885 37.957 27.1621 38.0288 27.2901 38.1569C27.418 38.2848 27.49 38.4584 27.49 38.6395V41.5424L31.7852 37.2472C31.9132 37.1193 32.0866 37.0476 32.2675 37.0476C32.4483 37.0476 32.6218 37.1193 32.7498 37.2472ZM43.8154 26.5456C43.7829 26.4632 43.7338 26.3883 43.6712 26.3258C43.6086 26.2631 43.5338 26.214 43.4514 26.1816C43.3679 26.146 43.2782 26.1274 43.1875 26.127H38.6375C38.4565 26.127 38.2829 26.1988 38.1549 26.3269C38.0269 26.4548 37.955 26.6284 37.955 26.8095C37.955 26.9905 38.0269 27.1641 38.1549 27.292C38.2829 27.4201 38.4565 27.492 38.6375 27.492H41.5404L37.2452 31.7872C37.1174 31.9151 37.0456 32.0886 37.0456 32.2695C37.0456 32.4503 37.1174 32.6238 37.2452 32.7518C37.3732 32.8796 37.5466 32.9514 37.7275 32.9514C37.9083 32.9514 38.0818 32.8796 38.2098 32.7518L42.505 28.4566V31.3595C42.505 31.5405 42.5769 31.7141 42.7049 31.842C42.8329 31.9701 43.0065 32.042 43.1875 32.042C43.3685 32.042 43.5421 31.9701 43.6701 31.842C43.798 31.7141 43.87 31.5405 43.87 31.3595V26.8095C43.8695 26.7187 43.851 26.6291 43.8154 26.5456ZM43.1875 37.957C43.0072 37.9593 42.835 38.032 42.7075 38.1595C42.58 38.2869 42.5073 38.4592 42.505 38.6395V41.5424L38.2098 37.2472C38.0804 37.1266 37.9093 37.061 37.7325 37.0641C37.5556 37.0672 37.387 37.1389 37.2619 37.2639C37.1368 37.3889 37.0652 37.5576 37.0621 37.7344C37.059 37.9112 37.1246 38.0824 37.2452 38.2118L41.5404 42.507H38.6375C38.4565 42.507 38.2829 42.5788 38.1549 42.7069C38.0269 42.8348 37.955 43.0084 37.955 43.1895C37.955 43.3705 38.0269 43.5441 38.1549 43.672C38.2829 43.8001 38.4565 43.872 38.6375 43.872H43.1875C43.3214 43.8705 43.4521 43.8302 43.5635 43.7558C43.6751 43.6816 43.7625 43.5765 43.8154 43.4534C43.851 43.3699 43.8695 43.2802 43.87 43.1895V38.6395C43.8676 38.4592 43.795 38.2869 43.6675 38.1595C43.54 38.032 43.3678 37.9593 43.1875 37.957ZM28.4546 27.492H31.3575C31.5385 27.492 31.7121 27.4201 31.8401 27.292C31.968 27.1641 32.04 26.9905 32.04 26.8095C32.04 26.6284 31.968 26.4548 31.8401 26.3269C31.7121 26.1988 31.5385 26.127 31.3575 26.127H26.8075C26.7168 26.1274 26.627 26.146 26.5436 26.1816C26.4612 26.214 26.3864 26.2631 26.3237 26.3258C26.2612 26.3883 26.2121 26.4632 26.1796 26.5456C26.144 26.6291 26.1255 26.7187 26.125 26.8095V31.3595C26.125 31.5405 26.1969 31.7141 26.3248 31.842C26.4529 31.9701 26.6265 32.042 26.8075 32.042C26.9885 32.042 27.1621 31.9701 27.2901 31.842C27.418 31.7141 27.49 31.5405 27.49 31.3595V28.4566L31.7852 32.7518C31.9132 32.8796 32.0866 32.9514 32.2675 32.9514C32.4483 32.9514 32.6218 32.8796 32.7498 32.7518C32.8776 32.6238 32.9494 32.4503 32.9494 32.2695C32.9494 32.0886 32.8776 31.9151 32.7498 31.7872L28.4546 27.492Z" fill="#121617"/>
</g>
<defs>
<clipPath id="clip0_14111_31548">
<rect width="70" height="70" fill="white"/>
</clipPath>
</defs>
</svg>
