<svg width="70" height="70" viewBox="0 0 70 70" fill="none" xmlns="http://www.w3.org/2000/svg">
<g clip-path="url(#clip0_14111_31529)">
<path d="M35 70C54.33 70 70 54.33 70 35C70 15.67 54.33 0 35 0C15.67 0 0 15.67 0 35C0 54.33 15.67 70 35 70Z" fill="#121617"/>
<path d="M35 32.3C37.8802 32.3 40.5721 32.0368 43.0755 31.5105C45.579 30.9842 47.5538 30.207 49 29.1789V32.3C49 33.1445 48.3741 33.9278 47.1224 34.65C45.8707 35.3721 44.1693 35.9443 42.0182 36.3666C39.8672 36.7888 37.5278 36.9999 35 36.9999C32.4722 36.9999 30.1328 36.7888 27.9818 36.3666C25.8307 35.9443 24.1294 35.3721 22.8776 34.65C21.6259 33.9278 21 33.1445 21 32.3V29.1789C22.4462 30.207 24.421 30.9842 26.9245 31.5105C29.4279 32.0368 32.1198 32.3 35 32.3ZM35 46.3999C37.8802 46.3999 40.5721 46.1368 43.0755 45.6105C45.579 45.0842 47.5538 44.307 49 43.2789V46.3999C49 47.2445 48.3741 48.0278 47.1224 48.75C45.8707 49.4721 44.1693 50.0443 42.0182 50.4665C39.8672 50.8888 37.5278 51.1 35 51.1C32.4722 51.1 30.1328 50.8888 27.9818 50.4665C25.8307 50.0443 24.1294 49.4721 22.8776 48.75C21.6259 48.0278 21 47.2445 21 46.3999V43.2789C22.4462 44.307 24.421 45.0842 26.9245 45.6105C29.4279 46.1368 32.1198 46.3999 35 46.3999ZM35 39.35C37.8802 39.35 40.5721 39.0868 43.0755 38.5605C45.579 38.0342 47.5538 37.257 49 36.2289V39.35C49 40.1945 48.3741 40.9778 47.1224 41.6999C45.8707 42.4221 44.1693 42.9943 42.0182 43.4165C39.8672 43.8389 37.5278 44.05 35 44.05C32.4722 44.05 30.1328 43.8389 27.9818 43.4165C25.8307 42.9943 24.1294 42.4221 22.8776 41.6999C21.6259 40.9778 21 40.1945 21 39.35V36.2289C22.4462 37.257 24.421 38.0342 26.9245 38.5605C29.4279 39.0868 32.1198 39.35 35 39.35ZM35 18.2C37.5278 18.2 39.8672 18.4111 42.0182 18.8334C44.1693 19.2556 45.8707 19.8278 47.1224 20.5499C48.3741 21.2721 49 22.0554 49 22.9V25.2499C49 26.0945 48.3741 26.8778 47.1224 27.6C45.8707 28.3221 44.1693 28.8943 42.0182 29.3166C39.8672 29.7388 37.5278 29.9499 35 29.9499C32.4722 29.9499 30.1328 29.7388 27.9818 29.3166C25.8307 28.8943 24.1294 28.3221 22.8776 27.6C21.6259 26.8778 21 26.0945 21 25.2499V22.9C21 22.0554 21.6259 21.2721 22.8776 20.5499C24.1294 19.8278 25.8307 19.2556 27.9818 18.8334C30.1328 18.4111 32.4722 18.2 35 18.2Z" fill="#F5FAFE"/>
</g>
<defs>
<clipPath id="clip0_14111_31529">
<rect width="70" height="70" fill="white"/>
</clipPath>
</defs>
</svg>
