<svg width="70" height="70" viewBox="0 0 70 70" fill="none" xmlns="http://www.w3.org/2000/svg">
<g clip-path="url(#clip0_14111_31580)">
<path d="M35 70C54.33 70 70 54.33 70 35C70 15.67 54.33 0 35 0C15.67 0 0 15.67 0 35C0 54.33 15.67 70 35 70Z" fill="#121617"/>
<path d="M49.8719 30.4489C48.1939 30.4511 46.5753 31.0706 45.3247 32.1894C44.074 33.3082 43.2786 34.848 43.0902 36.5154H38.9672C37.8553 36.5168 36.7567 36.273 35.7499 35.8014C34.7429 35.3298 33.8523 34.642 33.1415 33.7869L29.8748 29.8669C31.3583 29.2125 32.5604 28.0511 33.2655 26.5909C33.9707 25.1308 34.1327 23.4672 33.7228 21.8984C33.3128 20.3295 32.3576 18.958 31.0283 18.0294C29.699 17.1009 28.0825 16.676 26.4683 16.8311C24.8543 16.9861 23.3482 17.7108 22.2198 18.8754C21.0915 20.04 20.4148 21.5682 20.3109 23.1864C20.207 24.8046 20.6828 26.4069 21.6529 27.7061C22.623 29.0054 24.0241 29.9168 25.6051 30.277V39.7207C23.9691 40.0935 22.5278 41.0561 21.5566 42.4243C20.5853 43.7925 20.152 45.4706 20.3397 47.138C20.5273 48.8055 21.3226 50.3453 22.5736 51.4635C23.8247 52.5817 25.4438 53.1998 27.1218 53.1998C28.7997 53.1998 30.4189 52.5817 31.6699 51.4635C32.9209 50.3453 33.7163 48.8055 33.9039 47.138C34.0915 45.4706 33.6583 43.7925 32.687 42.4243C31.7157 41.0561 30.2744 40.0935 28.6384 39.7207V33.1213L30.8114 35.7286C31.8064 36.9258 33.0532 37.8888 34.4629 38.5491C35.8726 39.2094 37.4105 39.5507 38.9672 39.5487H43.4384C43.8556 40.7282 44.589 41.7704 45.5585 42.5613C46.5279 43.3522 47.6961 43.8614 48.9354 44.0332C50.1747 44.2049 51.4374 44.0327 52.5854 43.5353C53.7334 43.038 54.7226 42.2346 55.4449 41.213C56.1671 40.1914 56.5947 38.9909 56.6807 37.7427C56.7667 36.4946 56.508 35.2468 55.9328 34.1357C55.3576 33.0247 54.488 32.0931 53.4191 31.4429C52.3502 30.7927 51.1231 30.4488 49.8719 30.4489ZM30.9133 46.3736C30.9133 47.1235 30.691 47.8566 30.2744 48.4801C29.8577 49.1036 29.2656 49.5896 28.5728 49.8766C27.88 50.1635 27.1176 50.2387 26.382 50.0924C25.6465 49.946 24.971 49.5849 24.4407 49.0547C23.9104 48.5244 23.5493 47.8488 23.403 47.1133C23.2567 46.3778 23.3318 45.6154 23.6188 44.9226C23.9058 44.2298 24.3917 43.6376 25.0153 43.221C25.6388 42.8044 26.3719 42.582 27.1218 42.582C28.127 42.5831 29.0908 42.9829 29.8016 43.6938C30.5125 44.4046 30.9123 45.3683 30.9133 46.3736ZM49.8719 41.0654C49.122 41.0654 48.389 40.843 47.7655 40.4264C47.1419 40.0098 46.6559 39.4176 46.369 38.7248C46.082 38.0319 46.0069 37.2695 46.1532 36.5341C46.2995 35.7986 46.6606 35.123 47.1909 34.5927C47.7212 34.0624 48.3968 33.7014 49.1322 33.5551C49.8677 33.4088 50.6301 33.4838 51.323 33.7708C52.0158 34.0578 52.608 34.5437 53.0246 35.1673C53.4412 35.7908 53.6636 36.5238 53.6636 37.2737C53.6624 38.279 53.2626 39.2428 52.5518 39.9536C51.841 40.6644 50.8772 41.0642 49.8719 41.0654Z" fill="#F5FAFE"/>
</g>
<defs>
<clipPath id="clip0_14111_31580">
<rect width="70" height="70" fill="white"/>
</clipPath>
</defs>
</svg>
