<svg width="70" height="70" viewBox="0 0 70 70" fill="none" xmlns="http://www.w3.org/2000/svg">
<g clip-path="url(#clip0_14111_31479)">
<path d="M35 70C54.33 70 70 54.33 70 35C70 15.67 54.33 0 35 0C15.67 0 0 15.67 0 35C0 54.33 15.67 70 35 70Z" fill="#121617"/>
<path d="M22.8359 54.5999H46.4609C47.5052 54.5999 48.5068 54.1869 49.2452 53.4518C49.9836 52.7166 50.3984 51.7195 50.3984 50.6799V26.8236C50.3984 25.7839 49.9835 24.7868 49.2451 24.0518L41.708 16.548C40.9696 15.8129 39.9681 15.3999 38.9238 15.3999H22.8359C21.7917 15.3999 20.7901 15.8129 20.0517 16.548C19.3133 17.2832 18.8984 18.2803 18.8984 19.3199V50.6799C18.8984 51.7195 19.3133 52.7166 20.0517 53.4518C20.7901 54.1869 21.7917 54.5999 22.8359 54.5999ZM38.5859 18.3399H38.9234C39.0528 18.3396 39.1811 18.3649 39.3006 18.4142C39.4203 18.4635 39.5289 18.5358 39.6203 18.627L47.1569 26.1301C47.2486 26.2211 47.3212 26.3293 47.3707 26.4484C47.4202 26.5674 47.4456 26.6951 47.4453 26.824V27.1599H42.5234C41.4792 27.1599 40.4776 26.7469 39.7392 26.0118C39.0008 25.2766 38.5859 24.2795 38.5859 23.2399V18.3399ZM27.3503 39.4942C27.533 39.3121 27.75 39.1676 27.9888 39.0691C28.2277 38.9706 28.4837 38.9198 28.7422 38.9198C29.0007 38.9198 29.2567 38.9706 29.4955 39.0691C29.7344 39.1676 29.9514 39.3121 30.1341 39.4942L32.6797 42.0283L39.1628 35.5742C39.5341 35.2172 40.0314 35.0196 40.5476 35.0241C41.0638 35.0285 41.5576 35.2347 41.9226 35.5981C42.2876 35.9614 42.4947 36.453 42.4991 36.967C42.5036 37.4808 42.3052 37.976 41.9466 38.3456L34.0716 46.1856C33.8889 46.3677 33.6719 46.5121 33.433 46.6107C33.1942 46.7092 32.9382 46.7599 32.6797 46.7599C32.4212 46.7599 32.1652 46.7092 31.9263 46.6107C31.6875 46.5121 31.4705 46.3677 31.2878 46.1856L27.3503 42.2656C27.1674 42.0837 27.0223 41.8677 26.9233 41.63C26.8243 41.3922 26.7734 41.1373 26.7734 40.8799C26.7734 40.6225 26.8243 40.3676 26.9233 40.1299C27.0223 39.8921 27.1674 39.6761 27.3503 39.4942Z" fill="#F5FAFE"/>
</g>
<defs>
<clipPath id="clip0_14111_31479">
<rect width="70" height="70" fill="white"/>
</clipPath>
</defs>
</svg>
