<svg width="110" height="51" viewBox="0 0 110 51" fill="none" xmlns="http://www.w3.org/2000/svg">
<mask id="mask0_5224_19472" style="mask-type:luminance" maskUnits="userSpaceOnUse" x="1" y="13" width="48" height="26">
<path d="M1 25.7872C1 32.7597 11.7454 38.4121 25 38.4121C38.2546 38.4121 49.0001 32.7597 49.0001 25.7872C49.0001 18.8148 38.2546 13.1623 25 13.1623C11.7454 13.1623 1 18.8148 1 25.7872Z" fill="white"/>
</mask>
<g mask="url(#mask0_5224_19472)">
<path d="M1 25.7872C1 32.7597 11.7454 38.4121 25 38.4121C38.2546 38.4121 49.0001 32.7597 49.0001 25.7872C49.0001 18.8148 38.2546 13.1623 25 13.1623C11.7454 13.1623 1 18.8148 1 25.7872Z" fill="url(#paint0_radial_5224_19472)"/>
</g>
<mask id="mask1_5224_19472" style="mask-type:luminance" maskUnits="userSpaceOnUse" x="0" y="11" width="50" height="29">
<path d="M0 11.7246H50V39.8496H0V11.7246Z" fill="white"/>
</mask>
<g mask="url(#mask1_5224_19472)">
<path d="M25 37.4746C37.7369 37.4746 48.0625 32.2419 48.0625 25.787C48.0625 19.3323 37.7369 14.0994 25 14.0994C12.2631 14.0994 1.9375 19.3323 1.9375 25.787C1.9375 32.2419 12.2631 37.4746 25 37.4746Z" fill="#777BB3"/>
</g>
<mask id="mask2_5224_19472" style="mask-type:luminance" maskUnits="userSpaceOnUse" x="0" y="11" width="50" height="29">
<path d="M0 11.7246H50V39.8496H0V11.7246Z" fill="white"/>
</mask>
<g mask="url(#mask2_5224_19472)">
<path d="M14.0393 27.2361C15.0866 27.2361 15.8684 27.043 16.3631 26.6622C16.8525 26.2854 17.1906 25.6326 17.3677 24.7219C17.5329 23.8707 17.47 23.2763 17.1807 22.9556C16.885 22.628 16.2456 22.4618 15.2803 22.4618H13.6066L12.6787 27.2361H14.0393ZM8.56503 33.1172C8.48734 33.1172 8.41356 33.0825 8.36416 33.0224C8.31469 32.9624 8.29463 32.8834 8.30948 32.8071L10.7685 20.1551C10.7923 20.0328 10.8995 19.9444 11.0241 19.9444H16.324C17.9896 19.9444 19.2294 20.3967 20.0086 21.2888C20.792 22.1856 21.034 23.4391 20.7276 25.0146C20.603 25.6564 20.3886 26.2525 20.0904 26.7862C19.7919 27.3205 19.3973 27.8148 18.9176 28.2558C18.3432 28.7933 17.6932 29.1831 16.9873 29.4124C16.2926 29.6387 15.4004 29.7535 14.3356 29.7535H12.1896L11.5768 32.9064C11.553 33.0288 11.4458 33.1172 11.3212 33.1172H8.56503Z" fill="black"/>
<path d="M13.8219 22.7225H15.281C16.446 22.7225 16.8507 22.9782 16.9882 23.1305C17.2163 23.3835 17.2594 23.9168 17.1127 24.6728C16.948 25.5192 16.6426 26.1192 16.2049 26.4562C15.7568 26.8012 15.0284 26.976 14.0399 26.976H12.9953L13.8219 22.7225ZM16.3246 19.6844H11.0247C10.7754 19.6844 10.5611 19.8611 10.5135 20.1058L8.0545 32.7578C8.02481 32.9105 8.06492 33.0684 8.16379 33.1884C8.26275 33.3085 8.41014 33.3779 8.5657 33.3779H11.3218C11.5712 33.3779 11.7855 33.2012 11.8331 32.9565L12.4049 30.0142H14.3363C15.4285 30.0142 16.3479 29.8951 17.0688 29.6603C17.8102 29.4194 18.4923 29.011 19.0961 28.4464C19.5954 27.987 20.0067 27.4714 20.3183 26.9137C20.63 26.3558 20.854 25.7337 20.9839 25.0646C21.3064 23.4062 21.0444 22.0783 20.2054 21.1179C19.3745 20.1666 18.0687 19.6844 16.3246 19.6844ZM12.3634 27.4969H14.0399C15.1511 27.4969 15.9788 27.2876 16.5226 26.8689C17.0666 26.4502 17.4334 25.7513 17.624 24.7719C17.8064 23.8317 17.7233 23.1681 17.3748 22.7816C17.0259 22.395 16.328 22.2017 15.281 22.2017H13.3926L12.3634 27.4969ZM16.3246 20.2052C17.919 20.2052 19.0821 20.6236 19.8132 21.4605C20.5442 22.2974 20.7643 23.4655 20.4726 24.9653C20.3526 25.5831 20.1496 26.1479 19.8637 26.6596C19.5775 27.1717 19.2038 27.6399 18.742 28.0645C18.1917 28.5795 17.5803 28.9465 16.9075 29.1651C16.2348 29.3843 15.3779 29.4934 14.3363 29.4934H11.9755L11.3218 32.8571H8.5657L11.0247 20.2052H16.3246Z" fill="white"/>
<path d="M27.0467 29.7539C26.9689 29.7539 26.8952 29.7192 26.8458 29.6591C26.7962 29.5991 26.7762 29.5202 26.791 29.4438L27.8788 23.8458C27.9823 23.3135 27.9567 22.9313 27.807 22.7699C27.7153 22.6712 27.44 22.5056 26.6258 22.5056H24.6552L23.2876 29.5431C23.2638 29.6655 23.1566 29.7539 23.0319 29.7539H20.2975C20.2198 29.7539 20.1461 29.7192 20.0966 29.6591C20.0471 29.5991 20.0271 29.5201 20.0419 29.4438L22.5009 16.7918C22.5247 16.6695 22.6319 16.5812 22.7566 16.5812H25.4909C25.5687 16.5812 25.6424 16.6159 25.6919 16.6759C25.7414 16.7359 25.7614 16.8148 25.7466 16.8912L25.1532 19.9449H27.2732C28.8882 19.9449 29.9833 20.2296 30.6212 20.8154C31.2713 21.4129 31.4742 22.3684 31.2242 23.6556L30.0801 29.5431C30.0563 29.6655 29.9492 29.7539 29.8245 29.7539H27.0467Z" fill="black"/>
<path d="M25.4916 16.3211H22.7572C22.5078 16.3211 22.2935 16.4978 22.246 16.7425L19.7869 29.3945C19.7572 29.5472 19.7973 29.7051 19.8963 29.8252C19.9953 29.9452 20.1427 30.0146 20.2982 30.0146H23.0326C23.2819 30.0146 23.4963 29.8379 23.5439 29.5932L24.8705 22.7664H26.6265C27.4393 22.7664 27.6098 22.94 27.6167 22.9475C27.666 23.0005 27.7308 23.2462 27.6238 23.7965L26.5361 29.3945C26.5064 29.5472 26.5465 29.7051 26.6454 29.8252C26.7444 29.9452 26.8918 30.0146 27.0473 30.0146H29.8251C30.0744 30.0146 30.2888 29.8379 30.3364 29.5932L31.4804 23.7056C31.7489 22.3236 31.5192 21.2869 30.798 20.624C30.1098 19.992 28.9571 19.6848 27.2738 19.6848H25.4696L26.0029 16.9413C26.0325 16.7886 25.9925 16.6306 25.8935 16.5107C25.7946 16.3906 25.6472 16.3211 25.4916 16.3211ZM25.4916 16.8419L24.8379 20.2056H27.2738C28.8065 20.2056 29.8637 20.4732 30.4456 21.0075C31.0275 21.5423 31.2018 22.4087 30.9692 23.6063L29.8251 29.4938H27.0473L28.1351 23.8959C28.2589 23.2591 28.2134 22.8247 27.9985 22.5931C27.7835 22.3615 27.3261 22.2456 26.6265 22.2456H24.4411L23.0326 29.4938H20.2982L22.7572 16.8419H25.4916Z" fill="white"/>
<path d="M35.551 27.2361C36.5983 27.2361 37.3801 27.043 37.8748 26.6622C38.3642 26.2855 38.7023 25.6326 38.8795 24.7219C39.0447 23.8707 38.9818 23.2763 38.6925 22.9556C38.3967 22.628 37.7573 22.4618 36.792 22.4618H35.1183L34.1905 27.2361H35.551ZM30.0768 33.1172C29.9991 33.1172 29.9254 33.0825 29.876 33.0224C29.8265 32.9624 29.8063 32.8834 29.8212 32.8071L32.2802 20.1551C32.3041 20.0328 32.4112 19.9444 32.5359 19.9444H37.8357C39.5014 19.9444 40.7411 20.3967 41.5204 21.2888C42.3038 22.1855 42.5457 23.4391 42.2394 25.0146C42.1146 25.6564 41.9003 26.2525 41.6021 26.7862C41.3036 27.3205 40.909 27.8148 40.4293 28.2558C39.8549 28.7933 39.205 29.1831 38.499 29.4124C37.8043 29.6387 36.9122 29.7535 35.8473 29.7535H33.7012L33.0886 32.9064C33.0648 33.0288 32.9576 33.1172 32.8329 33.1172H30.0768Z" fill="black"/>
<path d="M35.3336 22.7225H36.7926C37.9576 22.7225 38.3623 22.9782 38.4998 23.1305C38.728 23.3835 38.7711 23.9168 38.6244 24.6727C38.4596 25.5192 38.1542 26.1192 37.7166 26.4562C37.2685 26.8012 36.54 26.976 35.5516 26.976H34.507L35.3336 22.7225ZM37.8363 19.6844H32.5364C32.2871 19.6844 32.0728 19.8611 32.0252 20.1058L29.5662 32.7578C29.5365 32.9105 29.5766 33.0684 29.6755 33.1884C29.7745 33.3085 29.9219 33.3779 30.0774 33.3779H32.8335C33.0828 33.3779 33.2972 33.2012 33.3448 32.9565L33.9166 30.0142H35.8479C36.9401 30.0142 37.8595 29.8951 38.5805 29.6603C39.3219 29.4194 40.0042 29.0109 40.6079 28.4462C41.1072 27.987 41.5183 27.4714 41.8299 26.9137C42.1417 26.3558 42.3656 25.7337 42.4956 25.0646C42.818 23.4061 42.5561 22.0782 41.717 21.1178C40.8861 20.1666 39.5805 19.6844 37.8363 19.6844ZM33.8752 27.4969H35.5516C36.6627 27.4969 37.4904 27.2876 38.0343 26.8689C38.5783 26.4502 38.945 25.7513 39.1357 24.7719C39.3181 23.8317 39.2351 23.1681 38.8864 22.7816C38.5375 22.395 37.8397 22.2017 36.7926 22.2017H34.9042L33.8752 27.4969ZM37.8363 20.2052C39.4306 20.2052 40.5937 20.6236 41.3248 21.4605C42.0559 22.2974 42.2759 23.4655 41.9843 24.9653C41.8642 25.5831 41.6612 26.1479 41.3753 26.6596C41.0891 27.1717 40.7154 27.6399 40.2536 28.0645C39.7033 28.5795 39.0919 28.9465 38.4192 29.1651C37.7464 29.3843 36.8896 29.4934 35.8479 29.4934H33.4871L32.8335 32.8571H30.0774L32.5364 20.2052H37.8363Z" fill="white"/>
</g>
<path d="M71.7614 32.7871V18.2417H76.6761C77.8172 18.2417 78.75 18.4476 79.4744 18.8596C80.2036 19.2667 80.7434 19.8184 81.0938 20.5144C81.4441 21.2104 81.6193 21.9869 81.6193 22.8439C81.6193 23.7009 81.4441 24.4798 81.0938 25.1806C80.7481 25.8813 80.2131 26.44 79.4886 26.8567C78.7642 27.2686 77.8362 27.4746 76.7045 27.4746H73.1818V25.9121H76.6477C77.429 25.9121 78.0563 25.7772 78.5298 25.5073C79.0033 25.2374 79.3466 24.8728 79.5597 24.4135C79.7775 23.9495 79.8864 23.4263 79.8864 22.8439C79.8864 22.2615 79.7775 21.7407 79.5597 21.2814C79.3466 20.8221 79.0009 20.4623 78.5227 20.2019C78.0445 19.9367 77.41 19.8042 76.6193 19.8042H73.5227V32.7871H71.7614ZM84.4567 32.7871V18.2417H86.218V24.7189H93.9737V18.2417H95.7351V32.7871H93.9737V26.2814H86.218V32.7871H84.4567ZM99.2614 32.7871V18.2417H104.176C105.317 18.2417 106.25 18.4476 106.974 18.8596C107.704 19.2667 108.243 19.8184 108.594 20.5144C108.944 21.2104 109.119 21.9869 109.119 22.8439C109.119 23.7009 108.944 24.4798 108.594 25.1806C108.248 25.8813 107.713 26.44 106.989 26.8567C106.264 27.2686 105.336 27.4746 104.205 27.4746H100.682V25.9121H104.148C104.929 25.9121 105.556 25.7772 106.03 25.5073C106.503 25.2374 106.847 24.8728 107.06 24.4135C107.277 23.9495 107.386 23.4263 107.386 22.8439C107.386 22.2615 107.277 21.7407 107.06 21.2814C106.847 20.8221 106.501 20.4623 106.023 20.2019C105.545 19.9367 104.91 19.8042 104.119 19.8042H101.023V32.7871H99.2614Z" fill="white"/>
<defs>
<radialGradient id="paint0_radial_5224_19472" cx="0" cy="0" r="1" gradientUnits="userSpaceOnUse" gradientTransform="translate(15.4097 17.6008) scale(31.5154 31.5154)">
<stop stop-color="#AEB2D5"/>
<stop offset="0.3" stop-color="#AEB2D5"/>
<stop offset="0.75" stop-color="#484C89"/>
<stop offset="1" stop-color="#484C89"/>
</radialGradient>
</defs>
</svg>
