<svg width="70" height="70" viewBox="0 0 70 70" fill="none" xmlns="http://www.w3.org/2000/svg">
<g clip-path="url(#clip0_14111_31533)">
<path d="M35 70C54.33 70 70 54.33 70 35C70 15.67 54.33 0 35 0C15.67 0 0 15.67 0 35C0 54.33 15.67 70 35 70Z" fill="#121617"/>
<path d="M35.875 17.5C33.4291 17.5 31.0767 18.0221 28.8829 19.0523C27.8558 19.5363 27.4131 20.7591 27.8959 21.7873C28.3789 22.8175 29.6038 23.2571 30.632 22.7753C32.2735 22.004 34.0375 21.6125 35.875 21.6125C42.6783 21.6125 48.2125 27.1467 48.2125 33.95C48.2125 40.7533 42.6783 46.2875 35.875 46.2875C34.4202 46.2875 32.9975 46.0385 31.6451 45.5485C30.5797 45.1609 29.398 45.7111 29.0105 46.7775C28.6228 47.8457 29.1741 49.0246 30.2413 49.4122C32.0446 50.0688 33.9403 50.4 35.875 50.4C44.9453 50.4 52.325 43.0203 52.325 33.95C52.325 24.8797 44.9453 17.5 35.875 17.5ZM17.3687 31.8938C16.2333 31.8938 15.3125 32.8135 15.3125 33.95C15.3125 35.0865 16.2333 36.0063 17.3687 36.0063H25.5938C26.7292 36.0063 27.65 35.0865 27.65 33.95C27.65 32.8135 26.7292 31.8938 25.5938 31.8938H17.3687Z" fill="#F5FAFE"/>
<path d="M29.7094 25.7252C29.7094 24.5887 28.7886 23.6689 27.6531 23.6689H21.4844C20.3489 23.6689 19.4281 24.5887 19.4281 25.7252C19.4281 26.8617 20.3489 27.7814 21.4844 27.7814H27.6531C28.7886 27.7814 29.7094 26.8617 29.7094 25.7252ZM13.2594 44.2314H27.6531C28.7886 44.2314 29.7094 43.3117 29.7094 42.1752C29.7094 41.0387 28.7886 40.1189 27.6531 40.1189H13.2594C12.1239 40.1189 11.2031 41.0387 11.2031 42.1752C11.2031 43.3117 12.1239 44.2314 13.2594 44.2314ZM35.8781 27.7814C34.7427 27.7814 33.8219 28.7012 33.8219 29.8377V33.9502C33.8219 34.7293 34.2617 35.4401 34.9584 35.7895L39.0709 37.8458C39.3662 37.9923 39.6803 38.0627 39.9886 38.0627C40.7436 38.0627 41.4695 37.6471 41.8299 36.9262C42.3381 35.9102 41.9264 34.6753 40.9102 34.1671L37.9344 32.679V29.8377C37.9344 28.7012 37.0136 27.7814 35.8781 27.7814Z" fill="#F5FAFE"/>
</g>
<defs>
<clipPath id="clip0_14111_31533">
<rect width="70" height="70" fill="white"/>
</clipPath>
</defs>
</svg>
