<svg width="70" height="70" viewBox="0 0 70 70" fill="none" xmlns="http://www.w3.org/2000/svg">
<g clip-path="url(#clip0_14111_31575)">
<path d="M35 70C54.33 70 70 54.33 70 35C70 15.67 54.33 0 35 0C15.67 0 0 15.67 0 35C0 54.33 15.67 70 35 70Z" fill="#121617"/>
<path d="M38.3766 36.3496H36.3515V40.3996H38.3766C38.9136 40.3996 39.4287 40.1862 39.8084 39.8065C40.1882 39.4267 40.4015 38.9116 40.4015 38.3746C40.4015 37.8375 40.1882 37.3224 39.8084 36.9427C39.4287 36.5629 38.9136 36.3496 38.3766 36.3496ZM29.6016 31.6246C29.6016 32.1616 29.8149 32.6767 30.1947 33.0565C30.5744 33.4362 31.0895 33.6496 31.6265 33.6496H33.6516V29.5996H31.6265C31.0895 29.5996 30.5744 29.8129 30.1947 30.1927C29.8149 30.5725 29.6016 31.0875 29.6016 31.6246Z" fill="#F5FAFE"/>
<path d="M35.0016 16.1001C31.2635 16.1001 27.6094 17.2085 24.5013 19.2853C21.3932 21.3621 18.9707 24.3138 17.5403 27.7673C16.1098 31.2209 15.7355 35.021 16.4647 38.6873C17.194 42.3535 18.994 45.7212 21.6372 48.3644C24.2804 51.0076 27.6481 52.8077 31.3144 53.5369C34.9806 54.2662 38.7808 53.8919 42.2343 52.4614C45.6878 51.0309 48.6396 48.6084 50.7164 45.5004C52.7931 42.3923 53.9016 38.7382 53.9016 35.0001C53.8962 29.9891 51.9032 25.185 48.3599 21.6417C44.8167 18.0985 40.0125 16.1055 35.0016 16.1001ZM38.3765 43.1001H36.3516V45.8001C36.3516 46.1582 36.2093 46.5015 35.9562 46.7547C35.703 47.0078 35.3596 47.1501 35.0016 47.1501C34.6435 47.1501 34.3002 47.0078 34.047 46.7547C33.7938 46.5015 33.6515 46.1582 33.6515 45.8001V43.1001H29.6016C29.2435 43.1001 28.9002 42.9578 28.647 42.7047C28.3938 42.4515 28.2516 42.1081 28.2516 41.7501C28.2516 41.3921 28.3938 41.0487 28.647 40.7955C28.9002 40.5423 29.2435 40.4001 29.6016 40.4001H33.6515V36.3501H31.6266C30.3734 36.3501 29.1716 35.8523 28.2855 34.9661C27.3994 34.0801 26.9016 32.8783 26.9016 31.6251C26.9016 30.372 27.3994 29.1701 28.2855 28.284C29.1716 27.3979 30.3734 26.9001 31.6266 26.9001H33.6515V24.2001C33.6515 23.842 33.7938 23.4987 34.047 23.2455C34.3002 22.9923 34.6435 22.8501 35.0016 22.8501C35.3596 22.8501 35.703 22.9923 35.9562 23.2455C36.2093 23.4987 36.3516 23.842 36.3516 24.2001V26.9001H40.4016C40.7596 26.9001 41.103 27.0424 41.3562 27.2955C41.6094 27.5487 41.7516 27.892 41.7516 28.2501C41.7516 28.6081 41.6094 28.9515 41.3562 29.2047C41.103 29.4578 40.7596 29.6001 40.4016 29.6001H36.3516V33.6501H38.3765C39.6297 33.6501 40.8315 34.1479 41.7176 35.034C42.6038 35.9201 43.1015 37.1219 43.1015 38.3751C43.1015 39.6282 42.6038 40.83 41.7176 41.7162C40.8315 42.6023 39.6297 43.1001 38.3765 43.1001Z" fill="#F5FAFE"/>
</g>
<defs>
<clipPath id="clip0_14111_31575">
<rect width="70" height="70" fill="white"/>
</clipPath>
</defs>
</svg>
