<svg width="100" height="100" viewBox="0 0 100 100" fill="none" xmlns="http://www.w3.org/2000/svg">
<circle cx="50" cy="50" r="50" fill="#FF5D00" fill-opacity="0.1"/>
<g clip-path="url(#clip0_2561_3805)">
<path d="M50 12C29.0123 12 12 29.0123 12 50C12 70.9877 29.0123 88 50 88C70.9877 88 88 70.9877 88 50L86.7197 40.1346C84.5497 32.057 79.7747 24.9213 73.1355 19.8343C66.4963 14.7474 58.364 11.9935 50 12ZM32.4615 29.5385H67.5385V70.4615H32.4615V29.5385ZM35.3846 32.4615V44.1539H47.0769V32.4615H35.3846ZM50 32.4615V35.3846H64.6154V32.4615H50ZM38.3077 35.3846H44.1538V41.2308H38.3077V35.3846ZM50 38.3077V41.2308H64.6154V38.3077H50ZM35.3846 47.0769V50H64.6154V47.0769H35.3846ZM35.3846 52.9231V55.8462H50V52.9231H35.3846ZM58.7692 55.8462C55.5568 55.8462 52.9231 58.4799 52.9231 61.6923C52.9231 64.9048 55.5568 67.5385 58.7692 67.5385C61.9817 67.5385 64.6154 64.9048 64.6154 61.6923C64.6154 58.4799 61.9817 55.8462 58.7692 55.8462ZM35.3846 58.7692V61.6923H50V58.7692H35.3846ZM58.7692 58.7692C60.4003 58.7692 61.6923 60.0612 61.6923 61.6923C61.6923 63.3234 60.4003 64.6154 58.7692 64.6154C57.1382 64.6154 55.8462 63.3234 55.8462 61.6923C55.8462 60.0612 57.1382 58.7692 58.7692 58.7692ZM35.3846 64.6154V67.5385H50V64.6154H35.3846Z" fill="#FF5D00"/>
</g>
<defs>
<clipPath id="clip0_2561_3805">
<rect width="76" height="76" fill="white" transform="translate(12 12)"/>
</clipPath>
</defs>
</svg>
