<svg width="100" height="100" viewBox="0 0 100 100" fill="none" xmlns="http://www.w3.org/2000/svg">
<circle cx="50" cy="50" r="50" fill="#FF5D00" fill-opacity="0.1"/>
<path d="M44.0238 51.8486C43.8482 51.8486 43.6758 51.8024 43.5238 51.7146L36.7458 47.7996C36.5173 47.6681 36.3275 47.4786 36.1956 47.2504C36.0636 47.0222 35.9941 46.7632 35.9941 46.4996C35.9941 46.2359 36.0636 45.977 36.1956 45.7487C36.3275 45.5205 36.5173 45.3311 36.7458 45.1996L43.5248 41.2856C43.7546 41.153 44.0277 41.1171 44.2839 41.1858C44.5402 41.2545 44.7587 41.4223 44.8913 41.6521C45.0239 41.8819 45.0598 42.155 44.991 42.4112C44.9223 42.6675 44.7546 42.886 44.5248 43.0186L38.4928 46.4996L44.5248 49.9816C44.7159 50.0914 44.8654 50.2614 44.95 50.4649C45.0345 50.6685 45.0495 50.8943 44.9924 51.1073C44.9354 51.3202 44.8096 51.5083 44.6346 51.6424C44.4596 51.7765 44.2442 51.849 44.0238 51.8486ZM55.9778 51.8486C55.7573 51.849 55.5429 51.7765 55.3679 51.6424C55.1929 51.5083 55.0672 51.3202 55.0101 51.1073C54.9531 50.8943 54.968 50.6685 55.0526 50.4649C55.1372 50.2614 55.2867 50.0914 55.4778 49.9816L61.5088 46.4996L55.4768 43.0176C55.247 42.885 55.0793 42.6665 55.0105 42.4102C54.9418 42.154 54.9777 41.8809 55.1103 41.6511C55.2429 41.4213 55.4614 41.2535 55.7176 41.1848C55.9739 41.1161 56.247 41.152 56.4768 41.2846L63.2558 45.1996C63.4843 45.3311 63.674 45.5205 63.806 45.7487C63.938 45.977 64.0075 46.2359 64.0075 46.4996C64.0075 46.7632 63.938 47.0222 63.806 47.2504C63.674 47.4786 63.4843 47.6681 63.2558 47.7996L56.4768 51.7136C56.3252 51.8015 56.1531 51.8481 55.9778 51.8486ZM46.7318 55.5716C46.5674 55.5715 46.4055 55.5308 46.2606 55.4532C46.1156 55.3756 45.992 55.2635 45.9008 55.1267C45.8095 54.9899 45.7533 54.8328 45.7373 54.6692C45.7213 54.5055 45.7458 54.3405 45.8088 54.1886L52.4758 38.0466C52.5259 37.9252 52.5995 37.8148 52.6923 37.7219C52.7851 37.6289 52.8954 37.5551 53.0167 37.5047C53.138 37.4544 53.2681 37.4284 53.3994 37.4283C53.5308 37.4282 53.6609 37.4539 53.7823 37.5041C53.9037 37.5542 54.014 37.6278 54.107 37.7206C54.2 37.8134 54.2737 37.9237 54.3241 38.045C54.3745 38.1663 54.4005 38.2963 54.4006 38.4277C54.4007 38.5591 54.3749 38.6892 54.3248 38.8106L47.6568 54.9526C47.5813 55.1358 47.453 55.2924 47.2884 55.4027C47.1237 55.5129 46.9299 55.5717 46.7318 55.5716ZM34.9118 30.3266C34.6762 30.3361 34.443 30.2767 34.2408 30.1556C34.0682 30.0435 33.9252 29.8916 33.8238 29.7126C33.7179 29.5238 33.6455 29.3181 33.6098 29.1046C33.5311 28.6584 33.5311 28.2018 33.6098 27.7556C33.6453 27.5411 33.7177 27.3344 33.8238 27.1446C33.9249 26.9648 34.0679 26.8121 34.2408 26.6996C34.4466 26.5872 34.6773 26.5283 34.9118 26.5283C35.1463 26.5283 35.377 26.5872 35.5828 26.6996C35.756 26.812 35.8994 26.9647 36.0008 27.1446C36.1061 27.3346 36.1781 27.5413 36.2138 27.7556C36.2533 27.9777 36.2734 28.2029 36.2738 28.4286C36.3007 28.9138 36.183 29.3962 35.9358 29.8146C35.8248 29.9821 35.6719 30.1175 35.4922 30.2073C35.3125 30.2972 35.1123 30.3383 34.9118 30.3266ZM34.9118 27.1776C34.8123 27.1748 34.7145 27.2036 34.6324 27.2598C34.5503 27.316 34.4881 27.3968 34.4548 27.4906C34.3404 27.7895 34.2896 28.109 34.3058 28.4286C34.289 28.7486 34.3398 29.0685 34.4548 29.3676C34.4905 29.4598 34.5532 29.5391 34.6348 29.595C34.7163 29.6509 34.8129 29.6808 34.9118 29.6808C35.0107 29.6808 35.1072 29.6509 35.1888 29.595C35.2704 29.5391 35.3331 29.4598 35.3688 29.3676C35.4833 29.0684 35.5341 28.7485 35.5178 28.4286C35.5333 28.109 35.4825 27.7896 35.3688 27.4906C35.3354 27.3968 35.2733 27.316 35.1912 27.2598C35.1091 27.2036 35.0113 27.1748 34.9118 27.1776ZM37.2258 29.6606H37.7828V27.2996H37.1418V26.7696C37.2871 26.766 37.4318 26.7486 37.5738 26.7176C37.7176 26.6881 37.8503 26.6188 37.9568 26.5176H38.5278V29.6566H39.0888V30.2726H37.2258V29.6606ZM41.2798 30.3266C41.0442 30.3361 40.811 30.2767 40.6088 30.1556C40.4362 30.0435 40.2932 29.8916 40.1918 29.7126C40.0859 29.5238 40.0135 29.3181 39.9778 29.1046C39.8991 28.6584 39.8991 28.2018 39.9778 27.7556C40.0133 27.5411 40.0857 27.3344 40.1918 27.1446C40.2933 26.9659 40.4363 26.8143 40.6088 26.7026C40.8146 26.5902 41.0453 26.5313 41.2798 26.5313C41.5143 26.5313 41.745 26.5902 41.9508 26.7026C42.1233 26.8143 42.2663 26.9659 42.3678 27.1446C42.4731 27.3346 42.5451 27.5413 42.5808 27.7556C42.6203 27.9777 42.6404 28.2029 42.6408 28.4286C42.6677 28.9138 42.55 29.3962 42.3028 29.8146C42.1919 29.9819 42.0391 30.1172 41.8596 30.2071C41.6801 30.2969 41.4802 30.3381 41.2798 30.3266ZM41.2798 27.1776C41.1803 27.1748 41.0825 27.2036 41.0004 27.2598C40.9183 27.316 40.8561 27.3968 40.8228 27.4906C40.7084 27.7895 40.6576 28.109 40.6738 28.4286C40.657 28.7486 40.7078 29.0685 40.8228 29.3676C40.8585 29.4598 40.9212 29.5391 41.0028 29.595C41.0843 29.6509 41.1809 29.6808 41.2798 29.6808C41.3787 29.6808 41.4752 29.6509 41.5568 29.595C41.6384 29.5391 41.7011 29.4598 41.7368 29.3676C41.8513 29.0684 41.9021 28.7485 41.8858 28.4286C41.9013 28.109 41.8505 27.7896 41.7368 27.4906C41.7034 27.3968 41.6413 27.316 41.5592 27.2598C41.4771 27.2036 41.3793 27.1748 41.2798 27.1776ZM44.8108 30.3266C44.5755 30.3366 44.3425 30.2771 44.1408 30.1556C43.9677 30.0438 43.8243 29.8918 43.7228 29.7126C43.6172 29.5237 43.5452 29.318 43.5098 29.1046C43.4298 28.6585 43.4298 28.2017 43.5098 27.7556C43.545 27.5411 43.6171 27.3344 43.7228 27.1446C43.8239 26.9645 43.9674 26.8118 44.1408 26.6996C44.3465 26.5874 44.577 26.5286 44.8113 26.5286C45.0456 26.5286 45.2761 26.5874 45.4818 26.6996C45.6543 26.8113 45.7973 26.9629 45.8988 27.1416C46.0045 27.3314 46.0766 27.5381 46.1118 27.7526C46.1513 27.9747 46.1714 28.1999 46.1718 28.4256C46.1992 28.9109 46.0815 29.3934 45.8338 29.8116C45.7233 29.9795 45.5706 30.1154 45.3911 30.2058C45.2116 30.2961 45.0115 30.3378 44.8108 30.3266ZM44.8108 27.1776C44.7113 27.1748 44.6135 27.2036 44.5314 27.2598C44.4493 27.316 44.3871 27.3968 44.3538 27.4906C44.24 27.7896 44.1893 28.109 44.2048 28.4286C44.1885 28.7485 44.2393 29.0684 44.3538 29.3676C44.3895 29.4598 44.4522 29.5391 44.5338 29.595C44.6153 29.6509 44.7119 29.6808 44.8108 29.6808C44.9097 29.6808 45.0062 29.6509 45.0878 29.595C45.1694 29.5391 45.2321 29.4598 45.2678 29.3676C45.3823 29.0684 45.4331 28.7485 45.4168 28.4286C45.4323 28.109 45.3815 27.7896 45.2678 27.4906C45.2344 27.3968 45.1723 27.316 45.0902 27.2598C45.0081 27.2036 44.9103 27.1748 44.8108 27.1776ZM47.1258 29.6606H47.6818V27.2996H47.0408V26.7696C47.1861 26.7661 47.3308 26.7486 47.4728 26.7176C47.6166 26.6881 47.7493 26.6188 47.8558 26.5176H48.4268V29.6566H48.9878V30.2726H47.1258V29.6606ZM50.0308 29.6606H50.5878V27.2996H49.9468V26.7696C50.0921 26.766 50.2368 26.7486 50.3788 26.7176C50.5226 26.6878 50.6552 26.6186 50.7618 26.5176H51.3328V29.6566H51.8938V30.2726H50.0308V29.6606ZM56.4678 68.1996C56.1306 67.9976 55.7384 67.907 55.3468 67.9406H54.1288V70.0996H55.3468C55.5306 70.1001 55.7141 70.0864 55.8958 70.0586C56.0562 70.0345 56.2111 69.9827 56.3538 69.9056C56.4864 69.8302 56.5965 69.7207 56.6728 69.5886C56.7593 69.4243 56.8007 69.2401 56.7928 69.0546C56.7994 68.8725 56.7709 68.6909 56.7088 68.5196C56.6586 68.3932 56.5754 68.2827 56.4678 68.1996ZM40.7358 68.1996C40.3986 67.9975 40.0064 67.9069 39.6148 67.9406H38.4008V70.0996H39.6188C39.8022 70.1001 39.9855 70.0864 40.1668 70.0586C40.3272 70.0349 40.4823 69.9831 40.6248 69.9056C40.7576 69.8304 40.8678 69.7209 40.9438 69.5886C41.0319 69.4249 41.0741 69.2403 41.0658 69.0546C41.0716 68.8725 41.0428 68.6909 40.9808 68.5196C40.9302 68.3923 40.8454 68.2816 40.7358 68.1996Z" fill="#FF5D00"/>
<path d="M72 61.67V35.376L71.707 35.083L57.417 20.793L57.124 20.5H32C30.9391 20.5 29.9217 20.9214 29.1716 21.6716C28.4214 22.4217 28 23.4391 28 24.5V58.242C27.6968 58.416 27.4448 58.6667 27.2693 58.969C27.0937 59.2713 27.0009 59.6144 27 59.964V74.5C27.0016 75.8256 27.5289 77.0964 28.4662 78.0338C29.4036 78.9711 30.6744 79.4984 32 79.5H68C69.3256 79.4984 70.5964 78.9711 71.5338 78.0338C72.4711 77.0964 72.9984 75.8256 73 74.5V63.393C72.9993 63.0433 72.9065 62.6999 72.731 62.3974C72.5554 62.095 72.3033 61.8441 72 61.67ZM42.119 71.051C41.4372 71.5478 40.6028 71.7898 39.761 71.735H38.4V75.235H36.488V66.312H39.776C40.2007 66.308 40.6242 66.3564 41.037 66.456C41.4022 66.5415 41.7461 66.7004 42.048 66.923C42.3397 67.1453 42.5719 67.4363 42.724 67.77C42.8976 68.1689 42.9812 68.6011 42.969 69.036C42.9929 69.4147 42.9286 69.7939 42.7811 70.1435C42.6336 70.4932 42.4069 70.8038 42.119 71.051ZM50.877 75.239H48.944V71.52H45.921V75.239H44.013V66.312H45.921V69.755H48.969V66.312H50.877V75.239ZM57.851 71.051C57.1692 71.5478 56.3348 71.7898 55.493 71.735H54.128V75.235H52.221V66.312H55.508C55.933 66.3081 56.3568 66.3564 56.77 66.456C57.1346 66.5415 57.4779 66.7004 57.779 66.923C58.0709 67.1451 58.3032 67.4361 58.455 67.77C58.6286 68.1689 58.7122 68.6011 58.7 69.036C58.7239 69.4146 58.6596 69.7937 58.5123 70.1433C58.365 70.4929 58.1386 70.8036 57.851 71.051ZM62.229 75.239H60.3V73.271H62.232L62.229 75.239ZM63.492 69.251C63.4057 69.4189 63.3088 69.5813 63.202 69.737C63.0917 69.8986 62.9711 70.0529 62.841 70.199C62.6469 70.4293 62.465 70.6697 62.296 70.919C62.1245 71.1699 62.0338 71.4671 62.036 71.771V72.348H60.452V71.548C60.4513 71.3446 60.4817 71.1423 60.542 70.948C60.6033 70.7554 60.6816 70.5687 60.776 70.39C60.8727 70.209 60.9813 70.0347 61.101 69.868C61.221 69.7 61.341 69.537 61.46 69.377C61.517 69.304 61.574 69.22 61.635 69.125C61.696 69.03 61.75 68.925 61.803 68.825C61.8529 68.7236 61.897 68.6194 61.935 68.513C61.9694 68.4167 61.9873 68.3153 61.988 68.213C61.9905 68.1351 61.9724 68.058 61.9355 67.9893C61.8986 67.9207 61.8443 67.8629 61.778 67.822C61.6491 67.7339 61.4971 67.6859 61.341 67.684C61.2395 67.689 61.1401 67.715 61.0492 67.7605C60.9584 67.8059 60.8779 67.8698 60.813 67.948C60.7218 68.041 60.6503 68.1516 60.603 68.273C60.5414 68.4341 60.4991 68.6019 60.477 68.773L58.832 68.317C58.9466 67.7027 59.266 67.1454 59.738 66.736C60.2305 66.3586 60.8401 66.1664 61.46 66.193C61.7723 66.1711 62.0857 66.2164 62.3789 66.3259C62.6722 66.4355 62.9386 66.6067 63.16 66.828C63.5424 67.2198 63.7551 67.7465 63.752 68.294C63.7455 68.6296 63.6562 68.9583 63.492 69.251ZM70 61.393H48.086L45.686 58.647C45.4983 58.4325 45.2669 58.2606 45.0074 58.1428C44.7478 58.025 44.466 57.964 44.181 57.964H30V24.5C30 23.9696 30.2107 23.4609 30.5858 23.0858C30.9609 22.7107 31.4696 22.5 32 22.5H55.71V32.79C55.71 33.8509 56.1314 34.8683 56.8816 35.6184C57.6317 36.3686 58.6491 36.79 59.71 36.79H70V61.393Z" fill="#FF5D00"/>
</svg>
