<svg width="100" height="100" viewBox="0 0 100 100" fill="none" xmlns="http://www.w3.org/2000/svg">
<circle cx="50" cy="50" r="50" fill="#FF5D00" fill-opacity="0.1"/>
<g
    fill="grey"
    transform="
               translate(19 20)">
<path d="M6.71 50.2745H54.29C58.4837 45.0132 61 38.4176 61 31.1738C61 14.3607 47.3512 0.673828 30.5 0.673828C13.6487 0.673828 0 14.3607 0 31.1738C0 38.4176 2.51625 45.0132 6.71 50.2745ZM26.6875 8.29883C26.6875 6.20195 28.4031 4.48633 30.5 4.48633C32.5969 4.48633 34.3125 6.20195 34.3125 8.29883C34.3125 10.4338 32.5969 12.1113 30.5 12.1113C28.4031 12.1113 26.6875 10.4338 26.6875 8.29883ZM7.625 15.9238C7.625 13.827 9.34062 12.1113 11.4375 12.1113C13.5344 12.1113 15.25 13.827 15.25 15.9238C15.25 18.0588 13.5344 19.7363 11.4375 19.7363C9.34062 19.7363 7.625 18.0588 7.625 15.9238ZM24.8575 28.8863C28.06 25.722 49.6769 15.5426 49.6769 15.5426C49.6769 15.5426 39.5356 37.1976 36.3713 40.362C33.1688 43.5645 28.06 43.5645 24.8575 40.362C21.6931 37.1976 21.6931 32.0507 24.8575 28.8863ZM3.8125 34.9863C3.8125 32.8895 5.52812 31.1738 7.625 31.1738C9.72188 31.1738 11.4375 32.8895 11.4375 34.9863C11.4375 37.1213 9.72188 38.7988 7.625 38.7988C5.52812 38.7988 3.8125 37.1213 3.8125 34.9863ZM26.6875 34.9863C26.6875 32.8895 28.4031 31.1738 30.5 31.1738C32.5969 31.1738 34.3125 32.8895 34.3125 34.9863C34.3125 37.1213 32.5969 38.7988 30.5 38.7988C28.4031 38.7988 26.6875 37.1213 26.6875 34.9863ZM49.5625 34.9863C49.5625 32.8895 51.2781 31.1738 53.375 31.1738C55.4719 31.1738 57.1875 32.8895 57.1875 34.9863C57.1875 37.1213 55.4719 38.7988 53.375 38.7988C51.2781 38.7988 49.5625 37.1213 49.5625 34.9863Z" fill="#FF5D00"/>
</g>
<defs>
</defs>
</svg>
