<svg width="100" height="100" viewBox="0 0 100 100" fill="none" xmlns="http://www.w3.org/2000/svg">
<circle cx="50" cy="50" r="50" fill="#FF5D00" fill-opacity="0.1"/>
<path d="M72.4613 23C69.7268 23.002 67.1049 24.0891 65.1714 26.0227C63.2379 27.9562 62.1507 30.5781 62.1488 33.3125C62.1524 36.0192 63.22 38.6159 65.1212 40.5424C67.0225 42.4688 69.6049 43.5706 72.3112 43.61H72.6C75.3064 43.5706 77.8888 42.4688 79.79 40.5424C81.6912 38.6159 82.7589 36.0192 82.7625 33.3125C82.7625 30.5794 81.6776 27.9581 79.746 26.0244C77.8145 24.0908 75.1943 23.003 72.4613 23ZM77.4113 28.67L78.735 29.9938L70.7738 37.9475C70.6872 38.0351 70.5842 38.1047 70.4706 38.1522C70.3569 38.1997 70.235 38.2242 70.1119 38.2242C69.9887 38.2242 69.8668 38.1997 69.7532 38.1522C69.6396 38.1047 69.5365 38.0351 69.45 37.9475L66.1838 34.685L67.5075 33.3575L70.1175 35.9563L77.4113 28.67ZM30.0487 30.485C29.6396 30.484 29.2468 30.6453 28.9565 30.9335C28.6662 31.2218 28.502 31.6134 28.5 32.0225V42.0725C28.5 42.92 29.1937 43.61 30.045 43.61H66.0075C64.2566 42.5208 62.8113 41.0042 61.8077 39.2029C60.804 37.4015 60.2749 35.3746 60.27 33.3125C60.27 32.3338 60.4125 31.3962 60.63 30.485H30.0487ZM33.1875 36.11H48.1875V37.985H33.1875V36.11ZM30.045 45.485C29.6365 45.485 29.2447 45.6467 28.9552 45.9349C28.6656 46.223 28.502 46.614 28.5 47.0225V57.0725C28.5 57.9238 29.1975 58.61 30.045 58.61H73.8375C74.2453 58.61 74.6363 58.448 74.9247 58.1597C75.213 57.8713 75.375 57.4803 75.375 57.0725V47.0225C75.375 46.6147 75.213 46.2237 74.9247 45.9353C74.6363 45.647 74.2453 45.485 73.8375 45.485H72.6075C72.5588 45.485 72.5138 45.5 72.4575 45.5C72.4087 45.5 72.3675 45.485 72.315 45.485H30.045ZM68.895 50.9225C69.51 50.9225 70.02 51.425 70.02 52.0475C70.02 52.6663 69.51 53.1725 68.895 53.1725C68.5966 53.1715 68.3106 53.0528 68.0993 52.8421C67.8879 52.6315 67.7682 52.3459 67.7663 52.0475C67.7663 51.425 68.2725 50.9225 68.8913 50.9225H68.895ZM33.1875 51.11H48.1875V52.985H33.1875V51.11ZM30.045 60.485C29.6365 60.485 29.2447 60.6467 28.9552 60.9349C28.6656 61.223 28.502 61.614 28.5 62.0225V72.0725C28.5 72.9238 29.1975 73.61 30.045 73.61H73.8375C74.2453 73.61 74.6363 73.448 74.9247 73.1597C75.213 72.8713 75.375 72.4803 75.375 72.0725V62.0225C75.375 61.6147 75.213 61.2237 74.9247 60.9353C74.6363 60.647 74.2453 60.485 73.8375 60.485H30.045ZM68.79 65.9225C69.0889 65.9225 69.3755 66.0412 69.5868 66.2526C69.7982 66.4639 69.9169 66.7505 69.9169 67.0494C69.9169 67.3482 69.7982 67.6349 69.5868 67.8462C69.3755 68.0575 69.0889 68.1763 68.79 68.1763C68.4906 68.1763 68.2035 68.0573 67.9919 67.8456C67.7802 67.634 67.6613 67.3469 67.6613 67.0475C67.6613 66.7481 67.7802 66.461 67.9919 66.2494C68.2035 66.0377 68.4906 65.9225 68.79 65.9225ZM33.1875 66.11H48.1875V67.985H33.1875V66.11Z" fill="#FF5D00"/>
</svg>
