<svg width="70" height="70" viewBox="0 0 70 70" fill="none" xmlns="http://www.w3.org/2000/svg">
<g clip-path="url(#clip0_1167_3103)">
<path d="M55.4696 40.973C54.7981 44.1022 53.4966 47.062 51.6445 49.6722C49.7924 52.2823 47.4283 54.4882 44.6964 56.1554C41.9644 57.8226 38.9216 58.9162 35.7534 59.3698C32.5852 59.8233 29.3579 59.6272 26.2679 58.7934C23.2674 57.9947 20.4545 56.6105 17.9909 54.7206C15.5274 52.8307 13.4618 50.4724 11.9131 47.7812C11.9059 47.7677 11.8991 47.7541 11.8926 47.7402V47.7197C8.78077 42.3095 7.93338 35.8853 9.55483 29.8583C11.1236 24.0138 14.9174 18.7743 20.567 15.5035C20.5805 15.4963 20.5941 15.4894 20.608 15.483H20.6285V15.4727C23.4826 13.832 26.6492 12.8082 29.9236 12.4674C33.198 12.1265 36.5075 12.4762 39.6383 13.4938C39.7433 13.5283 39.8403 13.5733 39.9234 13.6462C40.0064 13.7191 40.0739 13.8079 40.1218 13.9075C40.1697 14.0071 40.197 14.1154 40.202 14.2258C40.207 14.3361 40.1897 14.4464 40.151 14.5499L34.6654 34.6466L54.8851 39.9579C54.9896 39.9853 55.0876 40.033 55.1736 40.0984C55.2596 40.1638 55.3318 40.2455 55.3861 40.3389C55.4404 40.4323 55.4757 40.5354 55.49 40.6425C55.5044 40.7495 55.4974 40.8583 55.4696 40.9627V40.973ZM50.1583 48.9296C51.8194 46.6328 53.019 44.0592 53.6957 41.3421L33.4965 36.0411C33.3852 36.0197 33.2795 35.9755 33.1861 35.9112C33.0927 35.847 33.0137 35.7641 32.954 35.6677C32.8942 35.5714 32.8551 35.4637 32.8391 35.3515C32.823 35.2393 32.8305 35.1249 32.8608 35.0157L38.3977 14.8165C35.5686 14.0162 32.6081 13.7899 29.6903 14.1509C26.7726 14.5119 23.9565 15.4529 21.4078 16.9185H21.3873V16.9287C18.8829 18.3686 16.6878 20.2893 14.9281 22.5803C13.1685 24.8714 11.879 27.4876 11.1339 30.2787C10.3804 33.0765 10.1892 35.996 10.5711 38.8682C10.953 41.7404 11.9005 44.5085 13.3588 47.0122C16.4041 52.2414 21.2642 55.7584 26.6883 57.2041C33.2915 58.9779 37.4954 57.7168 43.4423 54.9791C46.1595 53.3898 48.4152 51.3186 50.1583 48.9296Z" fill="#0E9943"/>
<path d="M58.0754 21.1326C61.0071 26.1988 61.95 32.1742 60.7208 37.897C60.7154 37.9246 60.7085 37.952 60.7003 37.979L60.6798 38.0508C60.6505 38.158 60.5998 38.2581 60.5307 38.3451C60.4616 38.4321 60.3755 38.5042 60.2777 38.5569C60.1799 38.6096 60.0724 38.642 59.9617 38.6519C59.8511 38.6618 59.7395 38.6492 59.6339 38.6147L38.6862 33.0163C38.5781 32.9882 38.4768 32.9383 38.3887 32.8697C38.3006 32.8011 38.2274 32.7152 38.1736 32.6172C38.1198 32.5193 38.0866 32.4114 38.076 32.3002C38.0655 32.189 38.0777 32.0768 38.112 31.9705L43.7309 11.0125C43.7602 10.9065 43.8106 10.8075 43.879 10.7213C43.9475 10.6351 44.0325 10.5636 44.1291 10.511C44.2257 10.4584 44.332 10.4258 44.4415 10.415C44.5509 10.4043 44.6615 10.4157 44.7665 10.4486L44.8382 10.4588V10.4691C50.4242 12.2632 55.1428 16.0716 58.0754 21.1532V21.1326ZM59.3468 29.5199C58.5059 24.138 55.6914 19.262 51.4517 15.8419C49.5467 14.3033 47.3981 13.0939 45.0946 12.2634L39.8859 31.6321L59.2545 36.8204C59.6852 34.4211 59.7262 31.9602 59.3468 29.5199ZM34.3285 35.6925C34.4371 35.5129 34.4727 35.2986 34.4281 35.0936C34.3835 34.8886 34.262 34.7085 34.0887 34.5903C33.9153 34.4721 33.7033 34.4248 33.4961 34.4582C33.289 34.4915 33.1025 34.603 32.9751 34.7697L19.5431 54.8151C19.4468 54.9942 19.4205 55.2027 19.4692 55.4002C19.518 55.5976 19.6384 55.7699 19.807 55.8836C19.9756 55.9973 20.1805 56.0443 20.3818 56.0155C20.5831 55.9867 20.7666 55.8841 20.8965 55.7276L34.3285 35.6925Z" fill="#0E9943"/>
<path fill-rule="evenodd" clip-rule="evenodd" d="M32.9037 34.892L38.3893 14.8158C35.5618 14.017 32.6031 13.7914 29.6872 14.1523C26.7713 14.5133 23.957 15.4535 21.4096 16.9178H21.3891V16.928C18.8847 18.3679 16.6896 20.2886 14.93 22.5796C13.1704 24.8707 11.8809 27.4869 11.1357 30.2779C9.6268 35.8861 10.4049 41.8638 13.2992 46.8987L13.3197 46.9192C14.9689 49.8001 17.2514 52.2684 19.9947 54.1376L32.914 34.8817L32.9037 34.892Z" fill="#F4F4F4"/>
<path fill-rule="evenodd" clip-rule="evenodd" d="M53.6976 41.3414L34.0111 36.1736L21.3789 55.0091C23.0502 55.973 24.8343 56.7112 26.6902 57.2034C33.2934 58.9772 37.4973 57.716 43.4442 54.9784C45.9788 53.507 48.1922 51.5418 49.9535 49.1994C51.7147 46.8569 52.9879 44.1848 53.6976 41.3414ZM39.8966 31.6314L59.2652 36.8196C60.1806 31.7111 59.2591 26.4434 56.6638 21.9491C54.0686 17.4547 49.9669 14.0234 45.0848 12.2627L39.8966 31.6314Z" fill="#0E9943"/>
</g>
<defs>
<clipPath id="clip0_1167_3103">
<rect width="70" height="70" fill="white"/>
</clipPath>
</defs>
</svg>
