<svg width="50" height="50" viewBox="0 0 50 50" fill="none" xmlns="http://www.w3.org/2000/svg">
<path d="M20.807 38.2834C22.426 39.9102 24.6648 40.9238 27.1439 40.9238C30.4452 40.9238 33.3291 39.1343 34.8596 36.4814C36.1877 37.057 37.6676 37.3824 39.2234 37.3824C45.1809 37.3824 50 32.6522 50 26.8208C50 20.9893 45.1682 16.2591 39.2234 16.2591C38.4897 16.2591 37.7814 16.3342 37.0984 16.4593C35.745 14.1192 33.1773 12.5425 30.2176 12.5425C28.978 12.5425 27.8143 12.8178 26.7771 13.3184C25.4111 10.1899 22.2236 8 18.5049 8C14.7862 8 11.3332 10.3776 10.0683 13.7188C9.51176 13.6062 8.94258 13.5436 8.34809 13.5436C3.74399 13.5436 0 17.2102 0 21.7402C0 24.7685 1.68227 27.4214 4.17405 28.8355C3.65545 29.9868 3.37718 31.2506 3.37718 32.5771C3.37718 37.7828 7.72831 42 13.0913 42C16.2408 42 19.0362 40.5359 20.807 38.2834Z" fill="#0D9DDA"/>
</svg>
