<svg width="50" height="50" viewBox="0 0 50 50" fill="none" xmlns="http://www.w3.org/2000/svg">
<path d="M43.3919 12.7144C41.0247 9.64909 37.8017 7.3546 34.1304 6.12114C30.4591 4.88768 26.5044 4.77066 22.7666 5.78487C19.0288 6.79909 15.6758 8.89898 13.1315 11.819C10.5872 14.739 8.96595 18.3479 8.47285 22.1893C7.97974 26.0308 8.6369 29.9322 10.3612 33.4001C12.0855 36.868 14.7995 39.7467 18.16 41.6721C21.5205 43.5975 25.3764 44.483 29.2402 44.2168C33.104 43.9506 36.8021 42.5445 39.8667 40.1765C48.4211 33.5655 50.0004 21.2718 43.3919 12.7144Z" fill="#FF6C37"/>
<path d="M34.4987 17.5784L26.2424 25.9002L23.9092 23.5016C32.0352 15.3755 32.8503 16.1098 34.4987 17.5784Z" fill="white"/>
<path d="M26.2422 26.1273C26.1691 26.1255 26.0993 26.0965 26.0464 26.0459L23.6967 23.6962C23.6438 23.6414 23.6143 23.5683 23.6143 23.4921C23.6143 23.416 23.6438 23.3428 23.6967 23.2881C31.7083 15.2765 32.8018 15.6516 34.6944 17.3649C34.7261 17.3902 34.7514 17.4226 34.7684 17.4595C34.7854 17.4963 34.7936 17.5366 34.7923 17.5772C34.8045 17.6568 34.7739 17.7381 34.7109 17.7895L26.4546 26.0465C26.3967 26.0996 26.3208 26.1281 26.2422 26.1273ZM24.3166 23.5004L26.2422 25.426L34.0745 17.5937C33.8041 17.2548 33.4182 17.0275 32.9907 16.9553C32.5632 16.883 32.1241 16.9709 31.7573 17.2021C30.3377 17.8385 28.0535 19.78 24.3166 23.5004Z" fill="#FF6C37"/>
<path d="M28.6082 28.201L26.3564 25.9003L34.6128 17.7412C36.8322 19.9116 33.5359 23.5347 28.6082 28.201Z" fill="white"/>
<path d="M28.6084 28.4948C28.5361 28.489 28.4676 28.4606 28.4126 28.4134L26.1118 26.1616C26.0773 26.0779 26.0773 25.984 26.1118 25.9003C26.0874 25.8317 26.0874 25.7567 26.1118 25.688L34.3682 17.4316C34.4256 17.3777 34.5014 17.3477 34.5802 17.3477C34.659 17.3477 34.7348 17.3777 34.7922 17.4316C35.0596 17.6777 35.2708 17.9785 35.4116 18.3136C35.5523 18.6486 35.6193 19.01 35.6079 19.3732C35.6079 21.576 33.0948 24.3498 28.8201 28.3969C28.763 28.4534 28.6884 28.4881 28.6084 28.4948ZM26.7806 25.9003L28.6243 27.7434C31.8875 24.6594 35.0046 21.4775 35.0205 19.3236C35.0382 18.867 34.8873 18.4199 34.5964 18.0674L26.7806 25.9003Z" fill="#FF6C37"/>
<path d="M23.9737 23.55L25.6057 25.1819C25.6161 25.1911 25.6244 25.2024 25.6302 25.2151C25.6359 25.2278 25.6388 25.2415 25.6388 25.2554C25.6388 25.2693 25.6359 25.283 25.6302 25.2957C25.6244 25.3083 25.6161 25.3196 25.6057 25.3288L22.1625 26.0631C22.093 26.0781 22.0205 26.07 21.9561 26.0399C21.8916 26.0099 21.8387 25.9597 21.8055 25.8968C21.7722 25.834 21.7604 25.762 21.7718 25.6918C21.7833 25.6216 21.8173 25.5571 21.8688 25.5081L23.8758 23.5176C23.8758 23.5176 23.9413 23.5176 23.9737 23.55Z" fill="white"/>
<path d="M22.0815 26.3895C21.9727 26.3881 21.866 26.3589 21.7718 26.3045C21.6775 26.2502 21.5987 26.1727 21.543 26.0792C21.4802 25.9609 21.4575 25.8254 21.4781 25.6931C21.4987 25.5607 21.5616 25.4386 21.6574 25.3449L23.6479 23.3379C23.7197 23.2738 23.8126 23.2383 23.9089 23.2383C24.0052 23.2383 24.0981 23.2738 24.1699 23.3379L25.8018 24.9698C25.8985 25.0616 25.9364 25.2005 25.8997 25.329C25.863 25.4575 25.7553 25.5597 25.6225 25.5903L22.1794 26.3246L22.0815 26.3895ZM23.9092 23.9094L22.0655 25.7531L25.1171 25.1002L23.9092 23.9094Z" fill="#FF6C37"/>
<path d="M38.8888 12.993C37.7078 11.8536 35.8525 11.8059 34.614 12.881C33.3756 13.9561 33.1638 15.8016 34.1282 17.1294C35.0925 18.4572 36.9105 18.8293 38.3179 17.9861L36.0985 15.7667L38.8888 12.993Z" fill="white"/>
<path d="M36.6852 18.7354C36.0067 18.7267 35.3458 18.5186 34.7848 18.1369C34.2237 17.7552 33.7875 17.2168 33.5303 16.5889C33.2732 15.9614 33.2058 15.2724 33.3363 14.607C33.4668 13.9417 33.7895 13.3292 34.2645 12.8453C34.9178 12.204 35.7967 11.8447 36.7121 11.8447C37.6276 11.8447 38.5065 12.204 39.1597 12.8453C39.2221 12.8979 39.2576 12.9756 39.2576 13.0576C39.2575 13.098 39.2487 13.1378 39.2318 13.1744C39.2149 13.2111 39.1903 13.2436 39.1597 13.27L36.5163 15.7665L38.5234 17.7411C38.5559 17.7722 38.5803 17.8107 38.5945 17.8534C38.6087 17.896 38.6122 17.9415 38.6047 17.9859C38.5999 18.0286 38.5857 18.0698 38.5632 18.1065C38.5407 18.1432 38.5104 18.1745 38.4744 18.1982C37.9352 18.5352 37.3154 18.7212 36.6797 18.7367L36.6852 18.7354ZM36.6852 12.4041C35.5226 12.4102 34.4824 13.1096 34.0461 14.1786C33.6098 15.2476 33.8472 16.4781 34.6623 17.2993C35.0677 17.7071 35.5868 17.9829 36.1516 18.0907C36.7164 18.1984 37.3006 18.1331 37.8276 17.9033L35.902 15.9776C35.8714 15.9531 35.8467 15.9221 35.8297 15.8868C35.8127 15.8514 35.8039 15.8127 35.8039 15.7735C35.8039 15.7343 35.8127 15.6957 35.8297 15.6603C35.8467 15.625 35.8714 15.594 35.902 15.5695L38.4475 13.0074C37.9415 12.6196 37.3227 12.4082 36.6852 12.4041Z" fill="#FF6C37"/>
<path d="M38.9377 13.041L36.1475 15.8148L38.3668 18.0341C38.5902 17.9059 38.7982 17.7525 38.9867 17.577C39.5683 16.9622 39.8884 16.1454 39.8793 15.2991C39.8701 14.4528 39.5325 13.6431 38.9377 13.041Z" fill="white"/>
<path d="M38.317 18.2789C38.2803 18.2809 38.2437 18.2746 38.2098 18.2605C38.1759 18.2464 38.1456 18.2249 38.1212 18.1975L35.9018 15.9781C35.8712 15.9537 35.8465 15.9226 35.8295 15.8873C35.8125 15.852 35.8037 15.8133 35.8037 15.7741C35.8037 15.7349 35.8125 15.6962 35.8295 15.6609C35.8465 15.6255 35.8712 15.5945 35.9018 15.57L38.6756 12.8452C38.7024 12.8048 38.7387 12.7717 38.7814 12.7488C38.8241 12.7259 38.8719 12.7139 38.9203 12.7139C38.9688 12.7139 39.0165 12.7259 39.0592 12.7488C39.1019 12.7717 39.1383 12.8048 39.1651 12.8452C39.4907 13.1643 39.7494 13.5451 39.926 13.9654C40.1026 14.3856 40.1936 14.8369 40.1936 15.2928C40.1936 15.7487 40.1026 16.2 39.926 16.6203C39.7494 17.0406 39.4907 17.4214 39.1651 17.7404C38.973 17.9442 38.7532 18.1199 38.5122 18.2624C38.4515 18.293 38.3819 18.2989 38.317 18.2789ZM36.5223 15.7664L38.3659 17.6101C38.4928 17.5212 38.6128 17.423 38.7251 17.3164C39.2671 16.7759 39.5724 16.0423 39.5738 15.2769C39.5751 14.5919 39.3254 13.9302 38.872 13.4167L36.5223 15.7664Z" fill="#FF6C37"/>
<path d="M34.8414 17.9207C34.6204 17.7132 34.3286 17.5977 34.0255 17.5977C33.7223 17.5977 33.4305 17.7132 33.2095 17.9207L25.8184 25.2953L27.0422 26.5357L34.858 19.6824C34.9771 19.5681 35.0717 19.4307 35.1358 19.2786C35.1999 19.1264 35.2321 18.9628 35.2306 18.7977C35.229 18.6326 35.1937 18.4696 35.1268 18.3186C35.0598 18.1677 34.9627 18.0327 34.8414 17.9207Z" fill="white"/>
<path d="M26.9766 26.8301C26.9035 26.8283 26.8337 26.7993 26.7808 26.7487L25.5405 25.5084C25.4876 25.4536 25.458 25.3805 25.458 25.3043C25.458 25.2282 25.4876 25.155 25.5405 25.1002L32.9322 17.7409C33.1451 17.5283 33.417 17.3845 33.7126 17.3282C34.0082 17.272 34.3139 17.3058 34.5901 17.4254C34.8662 17.545 35.1 17.7447 35.2613 17.9988C35.4225 18.2529 35.5037 18.5495 35.4942 18.8503C35.4858 19.0544 35.4367 19.2549 35.3498 19.4398C35.2629 19.6247 35.1399 19.7904 34.9882 19.9272L27.1724 26.7805C27.1156 26.8208 27.0457 26.8388 26.9766 26.8301ZM26.112 25.2954L26.9277 26.1276L34.5966 19.4536C34.7863 19.2884 34.8995 19.0522 34.9068 18.8007C34.9142 18.5493 34.815 18.3033 34.6296 18.1319C34.4584 17.9614 34.2266 17.8657 33.985 17.8657C33.7434 17.8657 33.5116 17.9614 33.3404 18.1319L26.112 25.2954Z" fill="#FF6C37"/>
<path d="M20.0912 33.6996C20.0704 33.7279 20.0591 33.7622 20.0591 33.7975C20.0591 33.8327 20.0704 33.867 20.0912 33.8954L20.4174 35.315C20.4305 35.3985 20.4181 35.4841 20.3818 35.5605C20.3456 35.6369 20.2872 35.7006 20.2142 35.7433C20.1415 35.7858 20.0572 35.8042 19.9734 35.7957C19.8896 35.7872 19.8107 35.7524 19.748 35.6962L17.5127 33.5423L24.4804 26.5195H26.8956L28.5275 28.1515C25.9818 30.3772 23.1434 32.2439 20.0912 33.6996Z" fill="white"/>
<path d="M19.9437 36.0976C19.759 36.0939 19.5766 36.018 19.4542 35.8852L17.3169 33.7479C17.2862 33.7234 17.2615 33.6923 17.2446 33.657C17.2276 33.6217 17.2188 33.583 17.2188 33.5438C17.2188 33.5046 17.2276 33.4659 17.2446 33.4306C17.2615 33.3953 17.2862 33.3642 17.3169 33.3397L24.3329 26.3072C24.3722 26.2654 24.4235 26.237 24.4798 26.2258H26.9108C26.9742 26.2034 27.0433 26.2034 27.1066 26.2258L28.7386 27.8577C28.7696 27.8863 28.7932 27.922 28.8074 27.9618C28.8216 28.0016 28.8259 28.0442 28.82 28.086C28.8211 28.1265 28.8129 28.1668 28.7959 28.2036C28.7789 28.2404 28.7536 28.2728 28.7221 28.2983L28.5917 28.4127C26.0358 30.5435 23.2238 32.3469 20.2209 33.7809L20.5312 35.1026C20.5552 35.2046 20.5561 35.3106 20.5339 35.413C20.5116 35.5153 20.4669 35.6114 20.4028 35.6943C20.3387 35.7771 20.2569 35.8446 20.1634 35.8918C20.0699 35.9391 19.9671 35.9648 19.8624 35.9672L19.9437 36.0976ZM17.9532 33.5355L19.8783 35.4771C19.8962 35.4931 19.9194 35.5019 19.9434 35.5019C19.9675 35.5019 19.9907 35.4931 20.0086 35.4771C20.0206 35.4604 20.0271 35.4404 20.0271 35.4199C20.0271 35.3993 20.0206 35.3793 20.0086 35.3627L19.6825 33.9431C19.6568 33.8412 19.6671 33.7335 19.7117 33.6384C19.7563 33.5433 19.8325 33.4665 19.9272 33.4211C22.8493 32.0062 25.5888 30.2419 28.0857 28.1667L26.7475 26.8285H24.5611L17.9532 33.5355Z" fill="#FF6C37"/>
<path d="M15.8325 35.2169L17.4644 33.585L19.9775 36.098L15.9799 35.8208C15.9113 35.8155 15.8461 35.7885 15.7937 35.7439C15.7413 35.6993 15.7043 35.6393 15.688 35.5724C15.6717 35.5055 15.677 35.4351 15.703 35.3714C15.7291 35.3077 15.7746 35.2538 15.8331 35.2175L15.8325 35.2169Z" fill="white"/>
<path d="M20.0251 36.3428L16.0434 36.0656C15.8072 36.0435 15.6041 35.882 15.5209 35.666C15.4377 35.45 15.4884 35.1936 15.6518 35.021L17.2838 33.3891C17.3385 33.3362 17.4117 33.3066 17.4878 33.3066C17.564 33.3066 17.6371 33.3362 17.6919 33.3891L20.1884 35.8857C20.223 35.933 20.2416 35.9901 20.2416 36.0487C20.2416 36.1074 20.223 36.1645 20.1884 36.2118C20.1507 36.2728 20.093 36.3195 20.0251 36.3428ZM16.0434 35.4292L19.3067 35.6415L17.512 33.9606L16.0434 35.4292Z" fill="#FF6C37"/>
<path d="M27.1234 26.7166L23.8271 27.2227L25.7363 25.3301L27.1234 26.7166Z" fill="white"/>
<path d="M23.8275 27.5315C23.7727 27.5329 23.7187 27.5182 23.6722 27.4891C23.6258 27.4601 23.5889 27.418 23.5662 27.3681C23.5314 27.3208 23.5127 27.2637 23.5127 27.205C23.5127 27.1463 23.5314 27.0892 23.5662 27.0419L25.4588 25.1328C25.5162 25.0789 25.592 25.0488 25.6708 25.0488C25.7496 25.0488 25.8254 25.0789 25.8828 25.1328L27.2706 26.5194C27.2983 26.5633 27.313 26.6143 27.313 26.6662C27.313 26.7182 27.2983 26.7691 27.2706 26.8131C27.257 26.8667 27.2282 26.9152 27.1878 26.9529C27.1473 26.9905 27.0968 27.0157 27.0424 27.0254L23.7791 27.5315H23.8275ZM25.7366 25.7527L24.6762 26.8131L26.5039 26.5359L25.7366 25.7527Z" fill="#FF6C37"/>
<path d="M27.1233 26.7153L24.8226 27.009C24.761 27.023 24.6966 27.0167 24.6388 26.9912C24.5811 26.9657 24.5331 26.9222 24.502 26.8673C24.4709 26.8124 24.4583 26.7489 24.4661 26.6862C24.4739 26.6236 24.5017 26.5651 24.5454 26.5195L25.7368 25.3281L27.1233 26.7153Z" fill="white"/>
<path d="M24.7575 27.3195C24.6509 27.3185 24.5464 27.2892 24.4547 27.2347C24.363 27.1803 24.2874 27.1025 24.2356 27.0093C24.1733 26.8976 24.1491 26.7686 24.1668 26.6419C24.1844 26.5152 24.243 26.3978 24.3335 26.3074L25.5248 25.116C25.5823 25.0621 25.6581 25.0321 25.7369 25.0321C25.8156 25.0321 25.8915 25.0621 25.9489 25.116L27.3361 26.5032C27.3773 26.5423 27.4063 26.5925 27.4196 26.6478C27.4329 26.703 27.4299 26.761 27.4109 26.8145C27.3919 26.8681 27.3578 26.915 27.3127 26.9496C27.2676 26.9841 27.2134 27.0049 27.1568 27.0093L24.8726 27.303L24.7575 27.3195ZM24.7575 26.7156L26.4874 26.5032L25.7206 25.7365L24.7416 26.7156H24.7575ZM38.9536 14.9181C38.9228 14.8666 38.8743 14.8282 38.8171 14.8102C38.7599 14.7921 38.6981 14.7957 38.6434 14.8202C38.6163 14.8339 38.5924 14.8529 38.5728 14.876C38.5533 14.8991 38.5385 14.9259 38.5295 14.9548C38.5114 15.0132 38.5171 15.0763 38.5454 15.1305C38.6599 15.3709 38.6281 15.6555 38.4641 15.8647C38.4437 15.8849 38.4277 15.9091 38.4172 15.9357C38.4067 15.9624 38.4018 15.9909 38.4029 16.0195C38.4035 16.0769 38.4253 16.1321 38.4641 16.1744C38.5059 16.1909 38.5525 16.1909 38.5944 16.1744C38.6324 16.1839 38.6723 16.1829 38.7097 16.1713C38.7472 16.1598 38.7807 16.1382 38.8067 16.1089C38.9411 15.9444 39.0262 15.7452 39.0522 15.5344C39.0782 15.3236 39.044 15.1103 38.9536 14.9181Z" fill="#FF6C37"/>
</svg>
