<svg width="182" height="51" viewBox="0 0 182 51" fill="none" xmlns="http://www.w3.org/2000/svg">
<g clip-path="url(#clip0_5224_19472)">
<path d="M47.891 31.527C41.7111 32.7558 41.285 30.7376 41.285 30.7376C47.8108 21.3992 50.5359 9.54212 48.182 6.64092C41.7617 -1.27331 30.6464 2.47018 30.4608 2.56784L30.3975 2.57598C29.1784 2.33183 27.8117 2.18535 26.2762 2.16094C23.4794 2.11618 21.3576 2.86894 19.7504 4.04489C19.7504 4.04489 -0.0800133 -3.83679 0.843804 13.957C1.04207 17.7412 6.46685 42.5947 12.942 35.0874C15.3085 32.3408 17.5948 30.0215 17.5948 30.0215C18.7296 30.7498 20.0921 31.1201 21.5137 30.9858L21.6234 30.8963C21.5896 31.2381 21.6065 31.5717 21.6655 31.9664C19.9993 33.7649 20.4886 34.0783 17.1519 34.7415C13.7772 35.4129 15.7599 36.6051 17.0549 36.9184C18.6241 37.2968 22.2519 37.834 24.707 34.5218L24.6099 34.9002C25.2638 35.4048 25.7236 38.1839 25.6476 40.7026C25.5717 43.2213 25.5211 44.9507 26.0357 46.3016C26.5504 47.6525 27.065 50.692 31.4479 49.7846C35.1094 49.0278 37.0076 47.0665 37.2734 43.7951C37.459 41.4676 37.8851 41.8134 37.9104 39.7342L38.2521 38.7495C38.6444 35.596 38.3153 34.5787 40.5721 35.0507L41.1205 35.0955C42.7826 35.1688 44.955 34.8392 46.2289 34.2654C48.9666 33.0407 50.5991 30.9858 47.891 31.527Z" fill="#336791"/>
<path d="M24.2089 33.3132C24.2215 32.9063 24.5717 32.5848 24.9935 32.597C25.4153 32.6092 25.7486 32.947 25.7359 33.3539C25.6473 36.3771 25.6642 39.4085 25.7781 41.8337C25.8836 44.0187 26.065 45.6626 26.3181 46.273C26.588 46.9199 27.0056 47.8762 27.8071 48.5231C28.5875 49.1579 29.7897 49.5444 31.7049 49.1498C33.3796 48.8039 34.5059 48.3115 35.2567 47.5588C35.9991 46.8141 36.421 45.7603 36.6825 44.2873C36.8766 43.2131 37.1423 41.3373 37.3828 39.4696C37.6865 37.134 37.9649 34.7739 38.0239 34.013C38.0535 33.6061 38.4205 33.301 38.8423 33.3335C39.2641 33.362 39.5805 33.716 39.5468 34.1229C39.4877 34.8635 39.2093 37.252 38.8929 39.6567C38.6398 41.5855 38.3699 43.4979 38.1842 44.5355C37.8679 46.2974 37.3321 47.5954 36.3493 48.5801C35.3706 49.5607 33.9997 50.1792 32.0128 50.5902C29.5451 51.0988 27.9168 50.5414 26.8158 49.6462C25.7317 48.7673 25.2171 47.6035 24.8923 46.8182C24.5717 46.0492 24.3565 44.2344 24.2426 41.8947C24.133 39.4492 24.1203 36.3771 24.2089 33.3132Z" fill="white"/>
<path d="M19.999 3.23072C20.3913 3.38127 20.5812 3.80851 20.4251 4.18693C20.269 4.56535 19.8261 4.74846 19.4338 4.5979C19.3832 4.57756 0.695906 -2.78735 1.56067 13.8468C1.66612 15.9016 3.35346 24.3082 5.91821 30.1716C6.72813 32.019 7.6182 33.5977 8.56311 34.6069C9.35194 35.4532 10.1576 35.8601 10.9338 35.5916C11.3641 35.441 11.8239 35.1033 12.309 34.5418C14.6839 31.787 16.8437 29.6101 16.8522 29.606C17.1432 29.3131 17.6241 29.3009 17.9278 29.5816C18.2316 29.8624 18.2442 30.3263 17.9531 30.6192C17.9489 30.6233 15.8398 32.7432 13.4817 35.4817C12.811 36.2629 12.1276 36.7472 11.44 36.9832C9.98048 37.4836 8.63904 36.8977 7.42416 35.5956C6.36114 34.4604 5.38248 32.7392 4.5135 30.7413C1.87704 24.7232 0.143304 16.0481 0.0336268 13.9159C-0.949247 -5.02938 19.94 3.2063 19.999 3.23072Z" fill="white"/>
<path d="M30.8359 3.11668L29.7012 1.92039C29.794 1.88784 29.8868 1.85936 29.9796 1.83495C30.2285 1.75763 30.4984 1.68032 30.7895 1.59894C31.2156 1.47687 31.8399 1.31818 32.6034 1.17577C36.4126 0.463689 43.8453 0.0771331 48.7428 6.11554C50.1264 7.82046 50.0125 12.04 48.5825 17.0368C47.317 21.4598 45.0348 26.5583 41.8795 31.0749C41.6433 31.4126 41.1666 31.5021 40.8165 31.2742C40.4664 31.0464 40.3736 30.5866 40.6098 30.2488C43.6723 25.8665 45.8827 20.9227 47.1103 16.6421C48.4179 12.0766 48.6246 8.3535 47.5405 7.01887C43.145 1.60301 36.3661 1.96922 32.886 2.62433C32.1731 2.75861 31.6036 2.90103 31.2156 3.01089L30.8359 3.11668Z" fill="white"/>
<path d="M41.9685 30.4356C41.9769 30.4559 41.9812 30.4762 41.9854 30.4966C41.9854 30.5007 42.2469 31.8149 47.6928 30.7326C48.4647 30.578 49.0131 30.6105 49.3675 30.7773C49.8273 30.9889 50.0255 31.3429 49.996 31.7987C49.9791 32.0754 49.8441 32.3724 49.6206 32.6694C49.1059 33.349 47.929 34.2279 46.499 34.8667C45.4275 35.3468 43.795 35.6683 42.2975 35.7497C41.4159 35.7985 40.5722 35.766 39.9015 35.6357C39.0578 35.473 38.4167 35.1353 38.1509 34.5859C38.0792 34.4395 38.037 34.2808 38.0286 34.1099C37.8598 31.2534 39.3025 30.7529 40.3107 30.4762C40.2052 30.3298 40.0618 30.1548 39.9015 29.9635C39.3911 29.3491 38.7372 28.5597 38.2184 27.3512C38.1382 27.1681 37.9062 26.7612 37.5941 26.2241C36.2737 23.9414 33.6752 19.4411 34.1857 16.369C34.5484 14.1758 36.2822 12.7191 40.6144 13.1545L40.5722 13.0324C40.3655 12.4668 40.0365 11.7262 39.5598 10.8962C37.67 7.57585 33.5487 2.94532 26.2299 2.83138C15.0639 2.65642 15.4309 16.2388 15.4309 16.2754C15.4394 16.6823 15.1019 17.016 14.68 17.0241C14.2582 17.0322 13.9123 16.7067 13.9039 16.2998C13.9039 16.255 13.4905 1.15902 26.251 1.3584C34.308 1.48454 38.8301 6.55453 40.897 10.1841C41.4117 11.0874 41.7787 11.9093 42.0107 12.5482C42.2722 13.2643 42.3692 13.8259 42.3271 14.0741C42.268 14.4403 42.0571 14.6681 41.6943 14.7373L41.4201 14.7414C37.4464 14.127 35.9447 15.0669 35.6916 16.5968C35.2656 19.1725 37.6953 23.3717 38.9271 25.508C39.2603 26.0858 39.5134 26.5252 39.6273 26.7938C40.066 27.8151 40.6397 28.5068 41.0869 29.0521C41.5045 29.5444 41.8335 29.9432 41.9685 30.4356ZM48.0007 32.173C43.9638 32.9787 42.0824 32.3887 41.2176 31.7539C41.0995 31.7905 40.973 31.8231 40.838 31.8597C40.298 32.0062 39.4586 32.2341 39.5472 33.9837C39.6104 34.0488 39.8467 34.118 40.1926 34.1872C40.7452 34.293 41.4539 34.3174 42.2089 34.2767C43.5293 34.2035 44.9509 33.9308 45.8578 33.5239C46.7901 33.1048 47.5705 32.6003 48.0513 32.1608L48.0007 32.173Z" fill="white"/>
<path d="M22.1876 32.3896C21.8754 32.7273 21.6181 33.0406 21.3987 33.3092C20.4623 34.4566 20.1712 34.8147 17.2648 35.3925C16.7417 35.4983 16.3873 35.6 16.168 35.7017C16.438 35.8889 16.8429 36.0435 17.1973 36.129C17.9144 36.304 19.104 36.5115 20.3779 36.304C21.6181 36.1005 22.9553 35.4861 24.0394 34.0212C24.0732 33.9724 24.1027 33.9195 24.128 33.8666C24.2377 33.6103 24.2124 33.2888 24.1027 32.9836C23.9846 32.6581 23.7694 32.3733 23.5206 32.1983C23.4615 32.1576 23.4024 32.1251 23.3392 32.1007L23.3012 32.0844C23.1451 32.0234 22.9722 31.9583 22.8245 31.9705C22.6642 31.9867 22.4618 32.0925 22.1876 32.3896ZM20.1965 32.3936C20.4032 32.1414 20.6437 31.8484 21.0064 31.4537C21.036 31.4171 21.0697 31.3805 21.1035 31.3479C21.6645 30.762 22.2002 30.5422 22.6938 30.5015C23.1831 30.4609 23.5627 30.5951 23.8833 30.7253C23.896 30.7294 23.9087 30.7335 23.9255 30.7416C24.09 30.8067 24.2503 30.8962 24.4064 31.002C24.9084 31.3479 25.3218 31.8972 25.5454 32.4954C25.7732 33.1179 25.8111 33.8137 25.5411 34.4322C25.4737 34.5868 25.3893 34.7333 25.2838 34.8757C23.9171 36.7231 22.2129 37.4962 20.6352 37.7566C19.0871 38.0129 17.6782 37.7647 16.8261 37.5613C16.206 37.4107 15.4382 37.0771 14.9869 36.6702C14.7211 36.4301 14.5397 36.1453 14.4891 35.8279C14.43 35.4495 14.5482 35.0833 14.9067 34.7577C15.2526 34.4444 15.8938 34.1596 16.9526 33.948C19.3107 33.4801 19.5216 33.2237 20.1965 32.3936Z" fill="white"/>
<path d="M22.2686 31.75C22.3319 32.1528 22.045 32.5312 21.6274 32.5882C21.2098 32.6452 20.8175 32.3725 20.7584 31.9697C20.7415 31.872 20.7331 31.7744 20.7247 31.6727C20.4716 31.6645 20.2227 31.6483 19.978 31.6116C18.3413 31.3919 16.8607 30.5944 15.747 29.4144C14.646 28.2506 13.9036 26.7125 13.7307 24.9954C13.6674 24.3851 13.68 23.7503 13.7728 23.1115C14.1483 20.5317 14.0048 18.2246 13.9331 17.0283C13.912 16.7028 13.8994 16.4586 13.8994 16.2715C13.9036 15.7872 15.1649 14.7212 16.8269 14.062C17.5778 13.7649 18.4172 13.5167 19.2482 13.3947C20.1257 13.2685 21.0115 13.2807 21.8088 13.5208C23.0574 13.8992 24.0487 14.7903 24.4284 16.4953C25.7993 22.6028 24.5718 25.2274 23.6142 27.2822C23.4497 27.6362 23.2936 27.9699 23.1755 28.271C23.1713 28.2913 23.1629 28.3076 23.1544 28.3279C22.7537 29.3696 23.34 27.8437 23.0363 28.6209C22.5596 29.8742 22.142 30.9484 22.2686 31.75ZM20.8892 30.2038C21.0537 29.5486 21.3237 28.8569 21.6105 28.1123C21.8383 27.5263 21.2435 29.0604 21.7202 27.8193C21.7286 27.799 21.7371 27.7786 21.7455 27.7583C21.8931 27.3799 22.0534 27.0421 22.218 26.6841C23.0869 24.8245 24.1921 22.4482 22.9309 16.8167C22.6862 15.7221 22.0914 15.1606 21.349 14.9368C20.7922 14.77 20.1383 14.7659 19.4676 14.8636C18.7505 14.9694 18.0334 15.181 17.3922 15.4332C16.2659 15.8768 15.4138 16.2511 15.4138 16.2837C15.4138 16.3895 15.4264 16.6295 15.4475 16.951C15.5234 18.192 15.6711 20.5968 15.2788 23.3231C15.2029 23.8561 15.1902 24.3729 15.2408 24.8693C15.38 26.2527 15.979 27.4938 16.8691 28.4337C17.7465 29.3615 18.9066 29.9922 20.1805 30.1631C20.4167 30.1875 20.653 30.2038 20.8892 30.2038Z" fill="white"/>
<path d="M19.6442 16.1737C19.6105 16.4138 20.104 17.0608 20.7452 17.1462C21.3864 17.2317 21.939 16.7271 21.9727 16.487C22.0065 16.247 21.5129 15.9784 20.8717 15.893C20.2306 15.8075 19.678 15.9336 19.6442 16.1737Z" fill="white"/>
<path d="M19.8975 16.2069C19.8891 16.2598 19.9777 16.3981 20.1253 16.5487C20.2898 16.7155 20.5218 16.866 20.7791 16.9027H20.7834C21.0365 16.9352 21.2727 16.8538 21.4499 16.7358C21.6144 16.63 21.7156 16.5161 21.7283 16.451C21.7283 16.4388 21.665 16.4022 21.5595 16.3452C21.3866 16.2516 21.1335 16.1743 20.8424 16.1336H20.834C20.5471 16.097 20.2814 16.1051 20.0916 16.1499C19.9734 16.1784 19.8975 16.1987 19.8975 16.2069ZM19.7583 16.8864C19.5094 16.6341 19.3702 16.333 19.3955 16.1458V16.1377C19.4293 15.9057 19.6444 15.7471 19.9734 15.6697C20.2223 15.6128 20.5513 15.6006 20.9015 15.6453C20.9057 15.6453 20.9099 15.6453 20.9141 15.6453C21.2685 15.6942 21.5848 15.7918 21.8084 15.9139C22.1037 16.0726 22.2682 16.2882 22.2345 16.5161C22.2092 16.6951 22.0193 16.9556 21.7367 17.1387C21.4709 17.3136 21.1082 17.4398 20.7159 17.3869H20.7116C20.3236 17.338 19.9903 17.1224 19.7583 16.8864Z" fill="white"/>
<path d="M39.2345 15.6815C39.2682 15.9216 38.7747 16.5686 38.1335 16.654C37.4881 16.7395 36.9397 16.2349 36.9059 15.9948C36.8722 15.7548 37.3657 15.4862 38.0111 15.4008C38.6481 15.3153 39.1965 15.4415 39.2345 15.6815Z" fill="white"/>
<path d="M39.3564 15.666C39.3775 15.8206 39.2509 16.0851 39.0273 16.3129C38.8122 16.5327 38.5 16.732 38.1457 16.7768H38.1415C37.7871 16.8216 37.4581 16.7076 37.2135 16.5489C36.9604 16.3862 36.7958 16.1624 36.7705 16.0118C36.7452 15.8369 36.8844 15.666 37.1333 15.5317C37.3442 15.4178 37.6437 15.3242 37.9812 15.2794C38.3187 15.2347 38.635 15.2469 38.8713 15.2998C39.1497 15.3608 39.3311 15.4869 39.3564 15.666ZM38.8417 16.142C39.0147 15.9671 39.1159 15.788 39.1033 15.6985C39.0948 15.6334 38.9852 15.5764 38.8164 15.5358C38.6097 15.4869 38.3271 15.4788 38.0192 15.5195C37.7154 15.5602 37.4455 15.6456 37.2599 15.7433C37.108 15.8247 37.0194 15.9101 37.0278 15.9752C37.0405 16.0647 37.167 16.2153 37.3611 16.3414C37.5594 16.4716 37.8293 16.5652 38.1162 16.5286H38.1204C38.403 16.492 38.6603 16.3251 38.8417 16.142Z" fill="white"/>
<path d="M40.7704 14.0465C40.7493 13.6396 41.0741 13.2937 41.496 13.2734C41.9178 13.2531 42.2763 13.5664 42.2974 13.9733C42.3607 15.1126 42.2173 16.0159 42.0654 16.964C41.9515 17.672 41.8334 18.4126 41.8081 19.2386C41.7828 20.0239 41.8883 20.8947 42.0022 21.7898C42.2974 24.1458 42.6096 26.6686 40.7957 29.2768C40.5595 29.6145 40.087 29.7041 39.7369 29.4803C39.3868 29.2524 39.294 28.7967 39.526 28.4589C41.0193 26.3064 40.7409 24.0644 40.4793 21.9648C40.3612 21.0289 40.2473 20.1175 40.2811 19.1979C40.3106 18.2457 40.4329 17.4848 40.551 16.7483C40.6945 15.8613 40.8252 15.0231 40.7704 14.0465Z" fill="white"/>
</g>
<path d="M71.7614 32.7871V18.2417H76.6761C77.8172 18.2417 78.75 18.4476 79.4744 18.8596C80.2036 19.2667 80.7434 19.8184 81.0938 20.5144C81.4441 21.2104 81.6193 21.9869 81.6193 22.8439C81.6193 23.7009 81.4441 24.4798 81.0938 25.1806C80.7481 25.8813 80.2131 26.44 79.4886 26.8567C78.7642 27.2686 77.8362 27.4746 76.7045 27.4746H73.1818V25.9121H76.6477C77.429 25.9121 78.0563 25.7772 78.5298 25.5073C79.0033 25.2374 79.3466 24.8728 79.5597 24.4135C79.7775 23.9495 79.8864 23.4263 79.8864 22.8439C79.8864 22.2615 79.7775 21.7407 79.5597 21.2814C79.3466 20.8221 79.0009 20.4623 78.5227 20.2019C78.0445 19.9367 77.41 19.8042 76.6193 19.8042H73.5227V32.7871H71.7614ZM88.544 33.0144C87.5592 33.0144 86.6951 32.78 85.9517 32.3113C85.2131 31.8425 84.6354 31.1867 84.2188 30.3439C83.8068 29.5011 83.6009 28.5163 83.6009 27.3894C83.6009 26.253 83.8068 25.2611 84.2188 24.4135C84.6354 23.566 85.2131 22.9078 85.9517 22.4391C86.6951 21.9703 87.5592 21.736 88.544 21.736C89.5289 21.736 90.3906 21.9703 91.1293 22.4391C91.8726 22.9078 92.4503 23.566 92.8622 24.4135C93.2789 25.2611 93.4872 26.253 93.4872 27.3894C93.4872 28.5163 93.2789 29.5011 92.8622 30.3439C92.4503 31.1867 91.8726 31.8425 91.1293 32.3113C90.3906 32.78 89.5289 33.0144 88.544 33.0144ZM88.544 31.5087C89.2921 31.5087 89.9077 31.3169 90.3906 30.9334C90.8736 30.5499 91.2311 30.0456 91.4631 29.4206C91.6951 28.7956 91.8111 28.1185 91.8111 27.3894C91.8111 26.6602 91.6951 25.9808 91.4631 25.351C91.2311 24.7213 90.8736 24.2123 90.3906 23.824C89.9077 23.4358 89.2921 23.2417 88.544 23.2417C87.7959 23.2417 87.1804 23.4358 86.6974 23.824C86.2145 24.2123 85.857 24.7213 85.625 25.351C85.393 25.9808 85.277 26.6602 85.277 27.3894C85.277 28.1185 85.393 28.7956 85.625 29.4206C85.857 30.0456 86.2145 30.5499 86.6974 30.9334C87.1804 31.3169 87.7959 31.5087 88.544 31.5087ZM103.773 24.3212L102.267 24.7473C102.173 24.4964 102.033 24.2525 101.848 24.0158C101.668 23.7743 101.422 23.5755 101.11 23.4192C100.797 23.263 100.397 23.1848 99.9094 23.1848C99.2418 23.1848 98.6855 23.3387 98.2404 23.6465C97.8001 23.9495 97.5799 24.3354 97.5799 24.8042C97.5799 25.2208 97.7314 25.5499 98.0344 25.7914C98.3375 26.0328 98.811 26.2341 99.4549 26.3951L101.074 26.7928C102.05 27.0295 102.776 27.3917 103.255 27.8794C103.733 28.3624 103.972 28.985 103.972 29.7473C103.972 30.3723 103.792 30.931 103.432 31.4235C103.077 31.9159 102.58 32.3042 101.941 32.5882C101.301 32.8723 100.558 33.0144 99.7106 33.0144C98.5979 33.0144 97.677 32.7729 96.9478 32.29C96.2186 31.807 95.757 31.1015 95.5629 30.1735L97.1538 29.7757C97.3053 30.3629 97.5917 30.8032 98.0131 31.0968C98.4393 31.3903 98.9956 31.5371 99.6822 31.5371C100.463 31.5371 101.084 31.3714 101.543 31.04C102.007 30.7038 102.239 30.3013 102.239 29.8326C102.239 29.4538 102.106 29.1365 101.841 28.8809C101.576 28.6204 101.169 28.4263 100.62 28.2985L98.8015 27.8723C97.8024 27.6356 97.0685 27.2686 96.5998 26.7715C96.1358 26.2696 95.9038 25.6422 95.9038 24.8894C95.9038 24.2739 96.0766 23.7293 96.4222 23.2559C96.7726 22.7824 97.2485 22.4107 97.8498 22.1408C98.4558 21.8709 99.1424 21.736 99.9094 21.736C100.989 21.736 101.837 21.9727 102.452 22.4462C103.072 22.9197 103.513 23.5447 103.773 24.3212ZM111.239 21.878V23.2985H105.586V21.878H111.239ZM107.234 19.2644H108.91V29.6621C108.91 30.1356 108.978 30.4907 109.116 30.7275C109.258 30.9595 109.438 31.1157 109.656 31.1962C109.878 31.272 110.112 31.3098 110.359 31.3098C110.543 31.3098 110.695 31.3004 110.813 31.2814C110.932 31.2578 111.026 31.2388 111.097 31.2246L111.438 32.7303C111.325 32.7729 111.166 32.8155 110.962 32.8581C110.759 32.9055 110.501 32.9292 110.188 32.9292C109.715 32.9292 109.251 32.8274 108.796 32.6238C108.346 32.4202 107.972 32.11 107.674 31.6934C107.38 31.2767 107.234 30.7511 107.234 30.1167V19.2644ZM118.047 37.1053C117.237 37.1053 116.541 37.0011 115.959 36.7928C115.376 36.5892 114.891 36.3193 114.503 35.9831C114.119 35.6517 113.814 35.2966 113.587 34.9178L114.922 33.9803C115.073 34.1792 115.265 34.4064 115.497 34.6621C115.729 34.9225 116.046 35.1474 116.449 35.3368C116.856 35.531 117.389 35.628 118.047 35.628C118.928 35.628 119.654 35.415 120.227 34.9888C120.8 34.5627 121.087 33.8951 121.087 32.986V30.7701H120.945C120.821 30.9689 120.646 31.2151 120.419 31.5087C120.196 31.7975 119.875 32.0556 119.453 32.2828C119.036 32.5054 118.473 32.6167 117.763 32.6167C116.882 32.6167 116.091 32.4083 115.391 31.9917C114.695 31.575 114.143 30.9689 113.736 30.1735C113.333 29.378 113.132 28.4121 113.132 27.2757C113.132 26.1583 113.329 25.1853 113.722 24.3567C114.115 23.5234 114.661 22.8794 115.362 22.4249C116.063 21.9656 116.873 21.736 117.791 21.736C118.501 21.736 119.065 21.8543 119.482 22.0911C119.903 22.3231 120.225 22.5882 120.447 22.8865C120.675 23.1801 120.85 23.4216 120.973 23.611H121.143V21.878H122.763V33.0996C122.763 34.0371 122.55 34.7994 122.124 35.3865C121.702 35.9784 121.134 36.4116 120.419 36.6863C119.709 36.9656 118.918 37.1053 118.047 37.1053ZM117.99 31.111C118.662 31.111 119.231 30.9571 119.695 30.6493C120.159 30.3416 120.511 29.8989 120.753 29.3212C120.994 28.7435 121.115 28.0523 121.115 27.2473C121.115 26.4614 120.997 25.7677 120.76 25.1664C120.523 24.565 120.173 24.0939 119.709 23.753C119.245 23.4121 118.672 23.2417 117.99 23.2417C117.28 23.2417 116.688 23.4216 116.214 23.7814C115.746 24.1413 115.393 24.6242 115.156 25.2303C114.924 25.8364 114.808 26.5087 114.808 27.2473C114.808 28.0049 114.927 28.6749 115.163 29.2573C115.405 29.8349 115.76 30.2895 116.229 30.6209C116.702 30.9476 117.289 31.111 117.99 31.111ZM125.831 32.7871V21.878H127.45V23.5257H127.564C127.763 22.986 128.123 22.548 128.643 22.2118C129.164 21.8757 129.751 21.7076 130.405 21.7076C130.528 21.7076 130.682 21.7099 130.866 21.7147C131.051 21.7194 131.191 21.7265 131.286 21.736V23.4405C131.229 23.4263 131.098 23.405 130.895 23.3766C130.696 23.3435 130.485 23.3269 130.263 23.3269C129.732 23.3269 129.259 23.4382 128.842 23.6607C128.43 23.8785 128.104 24.1815 127.862 24.5698C127.625 24.9533 127.507 25.3913 127.507 25.8837V32.7871H125.831ZM137.514 33.0144C136.463 33.0144 135.556 32.7824 134.794 32.3184C134.036 31.8496 133.452 31.1962 133.04 30.3581C132.633 29.5153 132.429 28.5352 132.429 27.4178C132.429 26.3004 132.633 25.3155 133.04 24.4632C133.452 23.6062 134.025 22.9386 134.759 22.4604C135.497 21.9775 136.359 21.736 137.344 21.736C137.912 21.736 138.473 21.8307 139.027 22.0201C139.581 22.2095 140.085 22.5172 140.54 22.9434C140.994 23.3648 141.357 23.9235 141.626 24.6195C141.896 25.3155 142.031 26.1725 142.031 27.1905V27.9007H133.622V26.4519H140.327C140.327 25.8364 140.204 25.2871 139.957 24.8042C139.716 24.3212 139.37 23.94 138.92 23.6607C138.475 23.3813 137.95 23.2417 137.344 23.2417C136.676 23.2417 136.098 23.4074 135.611 23.7388C135.128 24.0655 134.756 24.4917 134.496 25.0172C134.235 25.5428 134.105 26.1062 134.105 26.7076V27.6735C134.105 28.4973 134.247 29.1957 134.531 29.7686C134.82 30.3368 135.22 30.7701 135.732 31.0684C136.243 31.3619 136.837 31.5087 137.514 31.5087C137.955 31.5087 138.352 31.4471 138.707 31.324C139.067 31.1962 139.377 31.0068 139.638 30.7559C139.898 30.5002 140.099 30.1829 140.241 29.8042L141.861 30.2587C141.69 30.8079 141.404 31.2909 141.001 31.7076C140.599 32.1195 140.102 32.4415 139.51 32.6735C138.918 32.9007 138.253 33.0144 137.514 33.0144ZM152.763 21.878C152.678 21.1583 152.332 20.5996 151.726 20.2019C151.12 19.8042 150.376 19.6053 149.496 19.6053C148.852 19.6053 148.288 19.7095 147.805 19.9178C147.327 20.1261 146.953 20.4126 146.683 20.7772C146.418 21.1417 146.286 21.556 146.286 22.0201C146.286 22.4083 146.378 22.7421 146.562 23.0215C146.752 23.2961 146.993 23.5257 147.287 23.7104C147.58 23.8903 147.888 24.0395 148.21 24.1578C148.532 24.2715 148.828 24.3638 149.098 24.4348L150.575 24.8326C150.954 24.932 151.375 25.0693 151.839 25.2445C152.308 25.4197 152.756 25.6588 153.182 25.9618C153.613 26.2601 153.968 26.6436 154.247 27.1124C154.527 27.5811 154.666 28.1564 154.666 28.8382C154.666 29.6242 154.46 30.3345 154.048 30.9689C153.641 31.6034 153.045 32.1077 152.259 32.4817C151.477 32.8558 150.528 33.0428 149.411 33.0428C148.369 33.0428 147.467 32.8747 146.705 32.5385C145.947 32.2024 145.35 31.7336 144.915 31.1323C144.484 30.531 144.24 29.8326 144.183 29.0371H146.001C146.049 29.5864 146.233 30.0409 146.555 30.4007C146.882 30.7559 147.294 31.021 147.791 31.1962C148.293 31.3667 148.833 31.4519 149.411 31.4519C150.083 31.4519 150.687 31.343 151.222 31.1252C151.757 30.9026 152.18 30.5949 152.493 30.2019C152.805 29.8042 152.962 29.3401 152.962 28.8098C152.962 28.3269 152.827 27.9339 152.557 27.6309C152.287 27.3278 151.932 27.0816 151.491 26.8922C151.051 26.7028 150.575 26.5371 150.064 26.3951L148.274 25.8837C147.138 25.557 146.238 25.0906 145.575 24.4846C144.912 23.8785 144.581 23.0854 144.581 22.1053C144.581 21.2909 144.801 20.5807 145.241 19.9746C145.687 19.3638 146.283 18.8903 147.031 18.5542C147.784 18.2132 148.625 18.0428 149.553 18.0428C150.49 18.0428 151.323 18.2109 152.053 18.5471C152.782 18.8785 153.359 19.333 153.786 19.9107C154.216 20.4883 154.444 21.1441 154.467 21.878H152.763ZM162.846 28.2417H164.778L166.397 30.3723L166.824 30.9405L169.238 34.1507H167.306L165.716 32.0201L165.318 31.4803L162.846 28.2417ZM169.835 25.5144C169.835 27.0485 169.558 28.3742 169.004 29.4917C168.45 30.6091 167.69 31.4708 166.724 32.0769C165.758 32.6829 164.655 32.986 163.414 32.986C162.174 32.986 161.071 32.6829 160.105 32.0769C159.139 31.4708 158.379 30.6091 157.825 29.4917C157.271 28.3742 156.994 27.0485 156.994 25.5144C156.994 23.9803 157.271 22.6545 157.825 21.5371C158.379 20.4197 159.139 19.5579 160.105 18.9519C161.071 18.3458 162.174 18.0428 163.414 18.0428C164.655 18.0428 165.758 18.3458 166.724 18.9519C167.69 19.5579 168.45 20.4197 169.004 21.5371C169.558 22.6545 169.835 23.9803 169.835 25.5144ZM168.13 25.5144C168.13 24.2549 167.92 23.1919 167.498 22.3255C167.082 21.459 166.516 20.8032 165.801 20.3581C165.091 19.9131 164.295 19.6905 163.414 19.6905C162.534 19.6905 161.736 19.9131 161.021 20.3581C160.311 20.8032 159.745 21.459 159.324 22.3255C158.907 23.1919 158.699 24.2549 158.699 25.5144C158.699 26.7739 158.907 27.8368 159.324 28.7033C159.745 29.5698 160.311 30.2256 161.021 30.6706C161.736 31.1157 162.534 31.3382 163.414 31.3382C164.295 31.3382 165.091 31.1157 165.801 30.6706C166.516 30.2256 167.082 29.5698 167.498 28.7033C167.92 27.8368 168.13 26.7739 168.13 25.5144ZM172.797 32.7871V18.2417H174.558V31.2246H181.319V32.7871H172.797Z" fill="white"/>
<defs>
<clipPath id="clip0_5224_19472">
<rect width="50" height="50" fill="white" transform="translate(0 0.787109)"/>
</clipPath>
</defs>
</svg>
