<svg width="80" height="80" viewBox="0 0 80 80" fill="none" xmlns="http://www.w3.org/2000/svg">
<path d="M0 34.0765C0 18.0127 0 9.98079 4.99039 4.99039C9.98079 0 18.0127 0 34.0765 0H45.9235C61.9873 0 70.0192 0 75.0096 4.99039C80 9.98079 80 18.0127 80 34.0765V45.9235C80 61.9873 80 70.0192 75.0096 75.0096C70.0192 80 61.9873 80 45.9235 80H34.0765C18.0127 80 9.98079 80 4.99039 75.0096C0 70.0192 0 61.9873 0 45.9235V34.0765Z" fill="#1B1D1E"/>
<g clip-path="url(#clip0_10906_29414)">
<g clip-path="url(#clip1_10906_29414)">
<path d="M57.6222 26.6273C50.1062 16.8944 36.1221 15.0976 26.3888 22.6151C16.657 30.1325 14.8621 44.1166 22.3795 53.8484C29.8984 63.5799 43.8835 65.3738 53.6139 57.8549C63.3418 50.3374 65.1371 36.3577 57.6222 26.6273Z" fill="white"/>
<path d="M49.7147 25.9453C48.9482 26.0065 48.2213 26.3115 47.6406 26.8157C46.9609 27.4058 46.527 28.2293 46.4248 29.1237C46.3225 30.018 46.5592 30.9182 47.0881 31.6466C47.6163 32.3753 48.3985 32.8796 49.2803 33.0599C50.162 33.2402 51.0793 33.0835 51.8512 32.6207H51.852L51.9079 32.6766C52.1621 32.5309 52.3987 32.3563 52.6129 32.1564C53.2736 31.4575 53.6371 30.5292 53.6267 29.5675C53.6162 28.6057 53.2327 27.6856 52.557 27.0012V27.0004L49.3839 30.1537L49.328 30.0981L52.501 26.9434C52.1337 26.5893 51.6954 26.3172 51.215 26.1453C50.7347 25.9733 50.2233 25.9054 49.7147 25.946V25.9453ZM45.5371 31.107C44.0159 31.1045 41.5321 32.8288 35.4673 38.8935L35.4975 38.9244C35.4645 38.9129 35.4311 38.9118 35.4311 38.9118L33.1478 41.175C33.0892 41.2308 33.0504 41.3042 33.0373 41.384C33.0242 41.4639 33.0376 41.5458 33.0754 41.6174C33.1131 41.689 33.1732 41.7462 33.2466 41.7805C33.3199 41.8147 33.4024 41.8241 33.4815 41.8072L37.3972 40.9719C37.4145 40.9557 37.4261 40.9343 37.4302 40.9109L37.517 41.0006L36.1824 42.3245H36.1178L28.1938 50.3109L30.7361 52.7592C30.8072 52.8233 30.8969 52.863 30.9922 52.8726C31.0874 52.8822 31.1832 52.8612 31.2657 52.8127C31.3489 52.7644 31.4155 52.6921 31.4568 52.6053C31.4981 52.5184 31.5122 52.4211 31.4971 52.3261L31.1258 50.7117C31.1026 50.6792 31.0902 50.6403 31.0902 50.6004C31.0902 50.5606 31.1026 50.5217 31.1258 50.4892C34.5966 48.8346 37.8243 46.712 40.7187 44.1808L39.0917 42.5531L39.1225 42.548L38.1574 41.5833L38.2191 41.5209L38.2844 41.5876L38.2507 41.6202L40.8113 44.2368V44.2357C45.7194 39.5881 49.2031 35.8522 48.2972 33.3379C48.2559 33.0372 48.1163 32.7586 47.9 32.5457V32.5471C47.8451 32.5062 47.7872 32.4695 47.7267 32.4373C47.697 32.4058 47.6708 32.3735 47.6392 32.3426L47.6155 32.3663C47.549 32.3257 47.4792 32.2909 47.4067 32.2623L47.5104 32.1575C46.866 31.5835 46.3336 31.1084 45.5371 31.1063V31.107ZM28.1386 50.3586L26.2834 52.2142V52.2156C26.2168 52.2569 26.165 52.3182 26.1356 52.3907C26.1061 52.4633 26.1004 52.5433 26.1194 52.6193C26.1377 52.6952 26.1795 52.7634 26.2388 52.8143C26.2981 52.8651 26.372 52.8959 26.4498 52.9023L30.9962 53.2163L28.1386 50.3586Z" fill="white"/>
<path d="M50.0279 25.6387C48.9866 25.6374 47.9866 26.0459 47.2441 26.776C46.7158 27.3167 46.3541 27.9978 46.202 28.7383C46.05 29.4788 46.1141 30.2474 46.3866 30.9525C44.6857 30.2242 42.3845 31.4943 35.2265 38.6508C35.2215 38.6618 35.2171 38.6731 35.2133 38.6845C35.1986 38.6912 35.1844 38.6986 35.1706 38.7068L32.907 40.99C32.7985 41.0965 32.7273 41.2352 32.7038 41.3854C32.6804 41.5356 32.7059 41.6893 32.7768 41.8238C32.84 41.9302 32.9296 42.0186 33.0368 42.0804C33.1441 42.1423 33.2654 42.1755 33.3892 42.1769L33.5015 42.104L36.5239 41.4593L35.078 42.9185C35.0696 42.9376 35.0631 42.9576 35.0586 42.978L27.9728 50.0814C27.9445 50.1052 27.9211 50.1342 27.9039 50.1668L26.0791 51.993C25.9882 52.089 25.9261 52.2086 25.8998 52.3382C25.8735 52.4678 25.8842 52.6022 25.9306 52.726C25.9782 52.849 26.0589 52.9566 26.1637 53.0366C26.2686 53.1167 26.3935 53.1663 26.5247 53.1798L31.0518 53.4956C31.129 53.4684 31.1948 53.4159 31.2384 53.3467C31.2773 53.2926 31.2982 53.2276 31.2982 53.161C31.2982 53.0944 31.2773 53.0294 31.2384 52.9753L31.229 52.9664C31.3267 52.9151 31.4128 52.8442 31.482 52.7583C31.5547 52.6639 31.6055 52.5546 31.6307 52.4382C31.6559 52.3217 31.6548 52.2012 31.6276 52.0852L31.2746 50.583C34.6616 48.9643 37.8351 46.9324 40.7226 44.5337C40.7507 44.5496 40.7805 44.562 40.8116 44.5706C40.9027 44.5638 40.9881 44.5247 41.0527 44.4601C45.9141 39.857 48.7718 36.7026 48.7718 34.1984C48.7823 33.851 48.73 33.5046 48.6172 33.1759C49.0553 33.3575 49.5226 33.4584 49.9967 33.4736L49.9913 33.4751C50.6442 33.4551 51.2824 33.2766 51.8508 32.9549C51.8513 32.955 51.8518 32.9551 51.8523 32.9552C51.9258 32.9773 52.0051 32.9702 52.0736 32.9355C52.3479 32.774 52.5979 32.5744 52.8163 32.3428C53.1863 31.9798 53.4802 31.5466 53.6809 31.0687C53.8816 30.5908 53.985 30.0777 53.9852 29.5594C53.9851 29.0411 53.8817 28.528 53.6811 28.0501C53.4804 27.5722 53.1866 27.139 52.8166 26.776C52.8034 26.764 52.7893 26.7531 52.7743 26.7433C52.0358 26.0342 51.0514 25.6385 50.0275 25.639L50.0279 25.6387ZM49.9967 26.2744C50.7217 26.2788 51.4255 26.5199 52.0008 26.9611L49.1062 29.8733C49.0962 29.8844 49.0871 29.8961 49.0789 29.9085C49.0267 29.9613 48.9962 30.0316 48.9932 30.1058C48.9932 30.1506 49.0033 30.1948 49.0227 30.2352C49.0422 30.2756 49.0704 30.3111 49.1055 30.339H49.1062L51.2947 32.5276C50.6957 32.7888 50.0317 32.863 49.3897 32.7406C48.7477 32.6181 48.1577 32.3046 47.6969 31.8412C46.7691 30.9084 46.5 29.5077 46.9962 28.2925C47.4924 27.0763 48.6753 26.2816 49.9967 26.2744ZM52.5511 27.5058C53.0244 28.0784 53.2825 28.7985 53.2805 29.5415C53.2792 30.4118 52.9323 31.2459 52.3162 31.8606C52.1926 31.9768 52.061 32.0841 51.9222 32.1817L50.156 30.4427L49.8105 30.0972L49.9055 30.0021L52.5508 27.505L52.5511 27.5058ZM52.4198 29.0101C52.3549 28.9896 52.2847 28.9935 52.2225 29.0212C52.1609 29.0531 52.1145 29.1081 52.0934 29.1741C52.083 29.207 52.0792 29.2417 52.0823 29.2761C52.0854 29.3106 52.0952 29.344 52.1113 29.3746C52.1751 29.5087 52.2002 29.6578 52.1839 29.8053C52.1676 29.9529 52.1105 30.093 52.0191 30.2099C51.9957 30.2324 51.9774 30.2597 51.9653 30.2899C51.9532 30.3201 51.9477 30.3525 51.9491 30.3849C51.9506 30.451 51.9742 30.5141 52.0191 30.5615C52.0669 30.5797 52.1198 30.5797 52.1676 30.5615C52.2108 30.5722 52.256 30.571 52.2985 30.5579C52.341 30.5448 52.3791 30.5204 52.4087 30.4872C52.5614 30.3 52.658 30.0734 52.6875 29.8337C52.7171 29.5939 52.6782 29.3507 52.5755 29.1321V29.1335C52.5406 29.0747 52.4851 29.0307 52.4198 29.0101ZM45.5037 31.4222C45.9367 31.4365 46.3534 31.5909 46.6912 31.862C46.3272 31.9144 45.9898 32.083 45.7294 32.3428L37.5467 40.4888L35.9409 38.8829C40.1845 34.6594 42.7791 32.4533 44.3922 31.7304C44.7244 31.5208 45.111 31.4138 45.5037 31.4222ZM46.9262 32.4841C47.201 32.4842 47.4646 32.593 47.6592 32.7869C47.7628 32.8841 47.8446 33.0022 47.8989 33.1334C47.9533 33.2647 47.9791 33.4059 47.9746 33.5479C47.9699 33.6893 47.9361 33.8283 47.8753 33.9561C47.8145 34.0839 47.728 34.1977 47.6212 34.2906L38.9209 41.8629L37.9819 40.924L46.1933 32.7869C46.388 32.5932 46.6515 32.4841 46.9262 32.4841ZM48.0004 34.8872C47.3941 37.2918 44.1805 40.5498 40.8295 43.7157L39.4744 42.362L48.0004 34.8872ZM35.4676 39.3572L35.5659 39.4541L36.8263 40.7145L33.3713 41.4536L35.4676 39.3572ZM37.546 41.4525L37.5475 41.4539L37.9665 41.8827C37.9683 41.8928 37.9704 41.9028 37.973 41.9128L38.0009 41.9171L38.0899 42.0082L38.3841 42.3096L36.4521 42.5464L37.5464 41.4521L37.546 41.4525ZM38.9334 42.9149L40.2171 44.1979C37.3786 46.5582 34.2637 48.5649 30.9409 50.1736C30.8331 50.225 30.7463 50.3122 30.6955 50.4203C30.6447 50.5285 30.6329 50.6509 30.6622 50.7667L31.0335 52.3812C31.0472 52.4002 31.0546 52.4229 31.0546 52.4463C31.0546 52.4697 31.0472 52.4925 31.0335 52.5114C31.0131 52.5297 30.9866 52.5399 30.9592 52.5399C30.9318 52.5399 30.9054 52.5297 30.885 52.5114L28.6957 50.3042L35.4436 43.4573L38.9334 42.9149ZM28.1941 50.7864L28.5059 51.0785L30.1175 52.6901L26.524 52.4576L28.1941 50.7864Z" fill="#F37036"/>
</g>
</g>
<defs>
<clipPath id="clip0_10906_29414">
<rect width="45.9235" height="45.9235" fill="white" transform="translate(17.0381 17.0381)"/>
</clipPath>
<clipPath id="clip1_10906_29414">
<rect width="45.9235" height="45.9235" fill="white" transform="translate(17.0381 17.2754)"/>
</clipPath>
</defs>
</svg>
