<svg width="50" height="50" viewBox="0 0 50 50" fill="none" xmlns="http://www.w3.org/2000/svg">
<g clip-path="url(#clip0_15293_5271)">
<path d="M8.23571 0L5.39453 13.8574L13.5433 21.5457L8.24892 30.9834L19.0219 49.9511H30.8074L41.6265 30.9834L36.2863 21.5457L44.159 13.8574L41.5671 0L30.4853 14.759H19.3903L8.23571 0Z" fill="#6CCB94" fill-opacity="0.9"/>
<path d="M8.25 30.9836L13.5442 21.5459L24.9146 30.9837L8.25 30.9836Z" fill="#5DBD85" fill-opacity="0.9"/>
<path d="M13.543 21.5464L24.9134 30.9842L19.3899 14.7598L13.543 21.5464Z" fill="#64C48C" fill-opacity="0.9"/>
<path d="M41.6265 30.9836L36.2862 21.5459L24.9141 30.9837L41.6265 30.9836Z" fill="#6ECC95" fill-opacity="0.9"/>
<path d="M19.0234 49.9511H30.809L24.9155 30.9834L19.0234 49.9511Z" fill="#5EBE86" fill-opacity="0.9"/>
<path d="M36.2862 21.5464L24.9141 30.9842L30.4855 14.7598L36.2862 21.5464Z" fill="#76D29C" fill-opacity="0.9"/>
<path d="M41.5663 0L44.1576 13.8575L36.2852 21.5459L30.4844 14.7591L41.5663 0Z" fill="#74D09B" fill-opacity="0.9"/>
<path d="M24.9141 30.9834L30.808 49.9511L41.6269 30.9834H24.9141Z" fill="#64C48C" fill-opacity="0.9"/>
<path d="M24.9146 30.9834L19.0211 49.9511L8.25 30.9834H24.9146Z" fill="#58B880" fill-opacity="0.9"/>
<path d="M8.23571 0L5.39453 13.8576L13.5433 21.546L19.3901 14.7593L8.23571 0Z" fill="#5FBF87" fill-opacity="0.9"/>
<path d="M24.914 30.9839L30.4857 14.7598H19.3906L24.914 30.9839Z" fill="#6ECC95" fill-opacity="0.9"/>
</g>
<defs>
<clipPath id="clip0_15293_5271">
<rect width="38.7879" height="50" fill="white" transform="translate(5.39453)"/>
</clipPath>
</defs>
</svg>
