<svg width="80" height="80" viewBox="0 0 80 80" fill="none" xmlns="http://www.w3.org/2000/svg">
<circle cx="40" cy="40" r="40" fill="#3FDB9F" fill-opacity="0.25"/>
<circle cx="40" cy="40" r="30" fill="#3FDB9F"/>
<g clip-path="url(#clip0_8432_1999)">
<path d="M26.8912 35.4742C26.8912 31.842 28.3216 28.5376 30.6486 26.0947H23V47.0711H33.3853C29.4922 44.6738 26.8912 40.3721 26.8912 35.4742Z" fill="white"/>
<path d="M50.3515 26.0947C52.6785 28.5377 54.109 31.842 54.109 35.4742C54.109 40.3721 51.508 44.6738 47.6147 47.0711H58.0001V26.0947H50.3515Z" fill="white"/>
<path d="M40.5 23.8477C34.0892 23.8477 28.8735 29.0633 28.8735 35.4741C28.8735 41.8849 34.0892 47.1005 40.5 47.1005C46.9108 47.1005 52.1264 41.8849 52.1264 35.4741C52.1264 29.0633 46.9108 23.8477 40.5 23.8477ZM40.5 44.6388C35.4465 44.6388 31.3352 40.5275 31.3352 35.4741C31.3352 30.4207 35.4465 26.3093 40.5 26.3093C45.5534 26.3093 49.6647 30.4207 49.6647 35.4741C49.6647 40.5275 45.5534 44.6388 40.5 44.6388Z" fill="white"/>
<path d="M45.7846 34.449H47.5398C47.0898 31.3454 44.629 28.8846 41.5254 28.4346V30.1897H39.4746V28.4346C36.371 28.8846 33.9102 31.3454 33.4602 34.449H35.2153V36.4997H33.4602C33.9102 39.6033 36.371 42.0641 39.4746 42.5141V40.759H41.5254V42.5141C44.629 42.0641 47.0898 39.6033 47.5398 36.4997H45.7846V34.449ZM42.0196 38.3008L39.4745 36.451V31.8151H41.5253V35.4063L43.2253 36.642L42.0196 38.3008Z" fill="white"/>
<path d="M46.731 53.3184H34.2691L33.4066 55.1017H30.8281V57.1525H50.1245V55.1017H47.5934L46.731 53.3184Z" fill="white"/>
<path d="M23 49.1221H58V51.2681H23V49.1221Z" fill="white"/>
</g>
<defs>
<clipPath id="clip0_8432_1999">
<rect width="35" height="35" fill="white" transform="translate(23 23)"/>
</clipPath>
</defs>
</svg>
