<svg width="80" height="80" viewBox="0 0 80 80" fill="none" xmlns="http://www.w3.org/2000/svg">
<circle cx="40" cy="40" r="40" fill="#4361EE" fill-opacity="0.25"/>
<rect x="10" y="10" width="60" height="60" rx="30" fill="#4361EE"/>
<path d="M53.2705 39.0098H46.5805L43.8705 34.4998C43.7761 34.341 43.6395 34.2114 43.4758 34.1255C43.3122 34.0396 43.128 34.0006 42.9436 34.0131C42.7592 34.0255 42.5819 34.0888 42.4313 34.1959C42.2807 34.303 42.1627 34.4497 42.0905 34.6198L39.7705 40.0098L37.7705 37.3898C37.6795 37.2746 37.5642 37.1808 37.4328 37.1151C37.3015 37.0494 37.1573 37.0135 37.0105 37.0098C36.8509 37.0155 36.695 37.0593 36.5558 37.1376C36.4166 37.2159 36.2982 37.3264 36.2105 37.4598L34.4705 40.0098H27.2705C26.2039 38.2986 25.7977 36.2573 26.1277 34.2681C26.4577 32.2789 27.5015 30.4781 29.0635 29.203C30.6255 27.9279 32.5987 27.2658 34.6138 27.3407C36.6288 27.4156 38.5474 28.2223 40.0105 29.6098C41.4043 28.2971 43.2094 27.5074 45.1195 27.3746C47.0295 27.2419 48.9266 27.7744 50.4885 28.8816C52.0505 29.9889 53.181 31.6027 53.6881 33.449C54.1953 35.2952 54.0477 37.2601 53.2705 39.0098ZM45.1505 40.5198L43.1505 37.1998L40.9205 42.3998C40.8515 42.5613 40.7413 42.7017 40.6009 42.807C40.4604 42.9123 40.2948 42.9788 40.1205 42.9998H40.0105C39.8552 42.9998 39.7021 42.9637 39.5633 42.8943C39.4244 42.8248 39.3036 42.724 39.2105 42.5998L37.0605 39.7298L35.8405 41.5498C35.751 41.6893 35.6284 41.8043 35.4835 41.8846C35.3386 41.9649 35.1761 42.0079 35.0105 42.0098H28.9505L39.3005 52.3698C39.3934 52.4636 39.504 52.538 39.6259 52.5887C39.7478 52.6395 39.8785 52.6656 40.0105 52.6656C40.1425 52.6656 40.2732 52.6395 40.3951 52.5887C40.5169 52.538 40.6275 52.4636 40.7205 52.3698L51.5605 41.5298C51.7205 41.3598 51.8705 41.1898 52.0205 41.0098H46.0105C45.8369 41.0098 45.6664 40.9646 45.5156 40.8787C45.3648 40.7928 45.239 40.6691 45.1505 40.5198Z" fill="white"/>
</svg>
