<svg width="80" height="80" viewBox="0 0 80 80" fill="none" xmlns="http://www.w3.org/2000/svg">
<circle cx="40" cy="40" r="40" fill="#4361EE" fill-opacity="0.25"/>
<circle cx="40" cy="40" r="30" fill="#4361EE"/>
<path fill-rule="evenodd" clip-rule="evenodd" d="M29.1688 28.4445C25.7117 28.4445 22.9082 31.2891 22.9082 34.7989V44.5738C22.9082 46.3207 23.8442 47.848 25.2349 48.6642C25.6833 45.9722 27.9928 43.9213 30.7759 43.9213C33.7705 43.9213 36.2193 46.2998 36.3859 49.2971H44.4306C44.5968 46.2997 47.0458 43.9213 50.0406 43.9213C53.0023 43.9213 55.4279 46.2457 55.6442 49.1936C56.9487 48.8404 57.9082 47.6361 57.9082 46.2026V42.1297C57.9082 41.8959 57.8533 41.6652 57.7467 41.4568L54.6314 35.33C53.8318 33.7581 52.2357 32.7717 50.4936 32.7717H48.0901C47.4504 30.2819 45.2193 28.4443 42.5647 28.4443L29.1688 28.4445ZM53.8971 40.2826L48.2746 39.4808V35.7038H50.4931C51.1532 35.7038 51.7584 36.0777 52.0626 36.6743L53.8971 40.2826ZM52.9313 49.6233C52.9313 51.2429 51.6362 52.5554 50.0402 52.5554C48.444 52.5554 47.1506 51.2429 47.1506 49.6233C47.1506 48.0037 48.4441 46.6912 50.0402 46.6912C51.6363 46.6912 52.9313 48.0037 52.9313 49.6233ZM30.7742 52.5554C32.3703 52.5554 33.6654 51.2429 33.6654 49.6233C33.6654 48.0037 32.3703 46.6912 30.7742 46.6912C29.1781 46.6912 27.8847 48.0037 27.8847 49.6233C27.8847 51.2429 29.1782 52.5554 30.7742 52.5554Z" fill="white"/>
</svg>
