<svg width="80" height="80" viewBox="0 0 80 80" fill="none" xmlns="http://www.w3.org/2000/svg">
<circle cx="40" cy="40" r="40" fill="#E51CFF" fill-opacity="0.25"/>
<circle cx="40" cy="40" r="30" fill="#E51CFF"/>
<path d="M41.5938 48.1562V50.4858C41.2439 50.3875 40.8829 50.3438 40.5 50.3438C40.1171 50.3438 39.7561 50.3875 39.4062 50.4858V48.1562H41.5938ZM40.5 52.5312C39.292 52.5312 38.3125 53.5107 38.3125 54.7188C38.3125 55.9268 39.292 56.9062 40.5 56.9062C41.708 56.9062 42.6875 55.9268 42.6875 54.7188C42.6875 53.5107 41.708 52.5312 40.5 52.5312ZM26.2812 52.5312C25.0732 52.5312 24.0938 53.5107 24.0938 54.7188C24.0938 55.9268 25.0732 56.9062 26.2812 56.9062C27.4893 56.9062 28.4688 55.9268 28.4688 54.7188C28.4688 53.5107 27.4893 52.5312 26.2812 52.5312ZM54.7188 52.5312C53.5107 52.5312 52.5312 53.5107 52.5312 54.7188C52.5312 55.9268 53.5107 56.9062 54.7188 56.9062C55.9268 56.9062 56.9062 55.9268 56.9062 54.7188C56.9062 53.5107 55.9268 52.5312 54.7188 52.5312ZM32.8438 48.1562V53.625H30.5142C30.6125 53.9748 30.6562 54.3358 30.6562 54.7188C30.6562 55.1017 30.6125 55.4627 30.5142 55.8125H33.9375C34.5388 55.8125 35.0312 55.3201 35.0312 54.7188V48.1562H32.8438ZM50.4858 53.625H48.1562V48.1562H45.9688V54.7188C45.9688 55.3201 46.4612 55.8125 47.0625 55.8125H50.4858C50.3875 55.4627 50.3438 55.1017 50.3438 54.7188C50.3438 54.3358 50.3875 53.9748 50.4858 53.625ZM56.9062 38.3125C56.9062 42.5342 53.4717 45.9688 49.25 45.9688H31.75C27.5283 45.9688 24.0938 42.5342 24.0938 38.3125C24.0938 34.2675 27.2474 30.9446 31.225 30.6739C32.5965 26.7598 36.2964 24.0938 40.5 24.0938C44.7036 24.0938 48.4035 26.7598 49.775 30.6739C53.7526 30.9446 56.9062 34.2675 56.9062 38.3125ZM41.5938 40.5C41.5938 39.896 41.104 39.4062 40.5 39.4062C39.896 39.4062 39.4062 39.896 39.4062 40.5C39.4062 41.104 39.896 41.5938 40.5 41.5938C41.104 41.5938 41.5938 41.104 41.5938 40.5ZM43.5922 36.3141C41.9377 34.6595 39.0623 34.6595 37.4078 36.3141C36.9806 36.7413 36.9806 37.4334 37.4078 37.8607C37.8351 38.2879 38.5272 38.2879 38.9544 37.8607C39.7822 37.0329 41.2178 37.0329 42.0456 37.8607C42.2592 38.0743 42.539 38.1811 42.8189 38.1811C43.0987 38.1811 43.3786 38.0743 43.5922 37.8607C44.0194 37.4334 44.0194 36.7413 43.5922 36.3141ZM46.6876 33.2187C45.0352 31.5663 42.8381 30.6562 40.5 30.6562C38.1619 30.6562 35.9648 31.5663 34.3124 33.2187C33.8852 33.6459 33.8852 34.338 34.3124 34.7653C34.7397 35.1925 35.4318 35.1925 35.859 34.7653C37.0981 33.5263 38.7467 32.8438 40.5 32.8438C42.2533 32.8438 43.9019 33.5263 45.141 34.7653C45.3546 34.9789 45.6344 35.0857 45.9143 35.0857C46.1941 35.0857 46.474 34.9789 46.6876 34.7653C47.1148 34.338 47.1148 33.6459 46.6876 33.2187Z" fill="white"/>
</svg>
