<svg width="80" height="80" viewBox="0 0 80 80" fill="none" xmlns="http://www.w3.org/2000/svg">
<circle cx="40" cy="40" r="40" fill="#008CFF" fill-opacity="0.25"/>
<circle cx="40" cy="40" r="30" fill="#008CFF"/>
<path d="M57.3158 31.7744L40.8412 25.9618C40.6204 25.8838 40.3796 25.8838 40.1589 25.9618L23.6843 31.7744C23.2747 31.9189 23.0005 32.3059 23 32.7402C22.9995 33.1746 23.2727 33.5621 23.682 33.7076L40.1566 39.5644C40.2676 39.6039 40.3839 39.6237 40.5 39.6237C40.6162 39.6237 40.7324 39.6039 40.8434 39.5644L57.318 33.7076C57.7273 33.5621 58.0005 33.1746 58 32.7402C57.9995 32.3059 57.7253 31.9189 57.3158 31.7744Z" fill="white"/>
<path d="M55.5374 45.4607V36.5166L53.4866 37.2457V45.4607C52.8689 45.8163 52.4526 46.4824 52.4526 47.2464C52.4526 48.0102 52.8689 48.6764 53.4866 49.032V54.0712C53.4866 54.6374 53.9457 55.0965 54.512 55.0965C55.0783 55.0965 55.5374 54.6374 55.5374 54.0712V49.032C56.155 48.6766 56.5713 48.0103 56.5713 47.2464C56.5713 46.4825 56.1551 45.8163 55.5374 45.4607Z" fill="white"/>
<path d="M40.5002 41.6744C40.1482 41.6744 39.8015 41.6145 39.4698 41.4966L30.2083 38.2041V42.7164C30.2083 43.8203 31.3599 44.7539 33.6312 45.4911C35.611 46.1337 38.0504 46.4875 40.5002 46.4875C42.9499 46.4875 45.3893 46.1337 47.3691 45.4911C49.6404 44.7539 50.7921 43.8203 50.7921 42.7164V38.2041L41.5306 41.4966C41.1988 41.6145 40.8521 41.6744 40.5002 41.6744Z" fill="white"/>
</svg>
