<svg width="54" height="54" viewBox="0 0 54 54" fill="none" xmlns="http://www.w3.org/2000/svg">
<g clip-path="url(#clip0_7007_19050)">
<path d="M50.3241 27.6101C51.3328 27.407 52.3883 27.2045 53.5 26.9997C52.3889 26.7948 51.3328 26.5924 50.3241 26.3893C50.0042 14.0074 39.992 3.99515 27.6101 3.67528C27.4064 2.66657 27.204 1.61113 26.9997 0.49939C26.7948 1.61053 26.5924 2.66657 26.3893 3.67528C14.008 3.99515 3.99516 14.008 3.67589 26.3893C2.66718 26.5924 1.61174 26.7948 0.5 26.9997C1.61114 27.2045 2.66718 27.407 3.67589 27.6101C3.99516 39.992 14.008 50.0042 26.3899 50.3241C26.593 51.3328 26.7954 52.3882 27.0003 53.5C27.2052 52.3888 27.4076 51.3328 27.6107 50.3241C39.9926 50.0042 50.0048 39.992 50.3247 27.6101H50.3241ZM49.8102 26.2851C34.3967 23.1188 30.8812 19.6033 27.7149 4.18982C39.732 4.5618 49.4382 14.268 49.8102 26.2851ZM26.2851 4.18982C23.1188 19.6033 19.6033 23.1188 4.18983 26.2851C4.56181 14.268 14.268 4.5618 26.2851 4.18982ZM4.18983 27.7149C19.6033 30.8812 23.1188 34.3967 26.2851 49.8102C14.268 49.4382 4.56181 39.732 4.18983 27.7149ZM27.7149 49.8102C30.8812 34.3967 34.3967 30.8812 49.8102 27.7149C49.4382 39.732 39.732 49.4382 27.7149 49.8102Z" fill="white"/>
</g>
<defs>
<clipPath id="clip0_7007_19050">
<rect width="53" height="53" fill="white" transform="translate(0.5 0.5)"/>
</clipPath>
</defs>
</svg>
