<svg width="72" height="48" viewBox="0 0 72 48" fill="none" xmlns="http://www.w3.org/2000/svg">
<path d="M5.81301 20.7131H6.64344V21.5436H5.81301V20.7131ZM5.81301 19.8827H6.64344V20.7131H5.81301V19.8827ZM5.81301 19.0523H6.64344V19.8827H5.81301V19.0523ZM6.64344 19.0523H7.47387V19.8827H6.64344V19.0523ZM6.64344 19.8827H7.47387V20.7131H6.64344V19.8827ZM7.47387 19.8827H8.30429V20.7131H7.47387V19.8827ZM7.47387 20.7131H8.30429V21.5436H7.47387V20.7131ZM6.64344 20.7131H7.47387V21.5436H6.64344V20.7131ZM8.30429 20.7131H9.13472V21.5436H8.30429V20.7131ZM8.30429 19.8827H9.13472V20.7131H8.30429V19.8827ZM8.30429 19.0523H9.13472V19.8827H8.30429V19.0523ZM8.30429 18.2218H9.13472V19.0523H8.30429V18.2218ZM7.47387 18.2218H8.30429V19.0523H7.47387V18.2218ZM7.47387 19.0523H8.30429V19.8827H7.47387V19.0523ZM9.13472 18.2218H9.96515V19.0523H9.13472V18.2218ZM9.96515 18.2218H10.7956V19.0523H9.96515V18.2218ZM10.7956 18.2218H11.626V19.0523H10.7956V18.2218ZM10.7956 19.0523H11.626V19.8827H10.7956V19.0523ZM10.7956 19.8827H11.626V20.7131H10.7956V19.8827ZM10.7956 20.7131H11.626V21.5436H10.7956V20.7131ZM9.96515 20.7131H10.7956V21.5436H9.96515V20.7131ZM9.13472 20.7131H9.96515V21.5436H9.13472V20.7131ZM9.13472 19.8827H9.96515V20.7131H9.13472V19.8827ZM9.13472 19.0523H9.96515V19.8827H9.13472V19.0523ZM9.96515 19.0523H10.7956V19.8827H9.96515V19.0523ZM9.96515 19.8827H10.7956V20.7131H9.96515V19.8827ZM11.626 19.8827H12.4564V20.7131H11.626V19.8827ZM11.626 19.0523H12.4564V19.8827H11.626V19.0523ZM12.4564 19.0523H13.2869V19.8827H12.4564V19.0523ZM12.4564 19.8827H13.2869V20.7131H12.4564V19.8827ZM13.2869 19.8827H14.1173V20.7131H13.2869V19.8827ZM13.2869 20.7131H14.1173V21.5436H13.2869V20.7131ZM13.2869 21.5436H14.1173V22.374H13.2869V21.5436ZM12.4564 21.5436H13.2869V22.374H12.4564V21.5436ZM12.4564 20.7131H13.2869V21.5436H12.4564V20.7131ZM11.626 20.7131H12.4564V21.5436H11.626V20.7131ZM11.626 21.5436H12.4564V22.374H11.626V21.5436ZM10.7956 21.5436H11.626V22.374H10.7956V21.5436ZM9.96515 21.5436H10.7956V22.374H9.96515V21.5436ZM14.1173 21.5436H14.9477V22.374H14.1173V21.5436ZM14.1173 22.374H14.9477V23.2044H14.1173V22.374ZM14.1173 23.2044H14.9477V24.0348H14.1173V23.2044ZM14.1173 24.0348H14.9477V24.8653H14.1173V24.0348ZM14.1173 24.8653H14.9477V25.6957H14.1173V24.8653ZM14.1173 25.6957H14.9477V26.5261H14.1173V25.6957ZM14.1173 26.5261H14.9477V27.3566H14.1173V26.5261ZM14.1173 27.3566H14.9477V28.187H14.1173V27.3566ZM14.1173 28.187H14.9477V29.0174H14.1173V28.187ZM14.1173 29.0174H14.9477V29.8479H14.1173V29.0174ZM13.2869 29.0174H14.1173V29.8479H13.2869V29.0174ZM13.2869 29.8479H14.1173V30.6783H13.2869V29.8479ZM14.1173 29.8479H14.9477V30.6783H14.1173V29.8479ZM12.4564 29.8479H13.2869V30.6783H12.4564V29.8479ZM11.626 29.8479H12.4564V30.6783H11.626V29.8479ZM10.7956 29.8479H11.626V30.6783H10.7956V29.8479ZM9.96515 29.8479H10.7956V30.6783H9.96515V29.8479ZM10.7956 29.0174H11.626V29.8479H10.7956V29.0174ZM10.7956 28.187H11.626V29.0174H10.7956V28.187ZM10.7956 27.3566H11.626V28.187H10.7956V27.3566ZM10.7956 26.5261H11.626V27.3566H10.7956V26.5261ZM10.7956 25.6957H11.626V26.5261H10.7956V25.6957ZM10.7956 24.8653H11.626V25.6957H10.7956V24.8653ZM10.7956 24.0348H11.626V24.8653H10.7956V24.0348ZM10.7956 23.2044H11.626V24.0348H10.7956V23.2044ZM10.7956 22.374H11.626V23.2044H10.7956V22.374ZM11.626 22.374H12.4564V23.2044H11.626V22.374ZM12.4564 22.374H13.2869V23.2044H12.4564V22.374ZM13.2869 22.374H14.1173V23.2044H13.2869V22.374ZM13.2869 23.2044H14.1173V24.0348H13.2869V23.2044ZM13.2869 24.0348H14.1173V24.8653H13.2869V24.0348ZM13.2869 24.8653H14.1173V25.6957H13.2869V24.8653ZM13.2869 25.6957H14.1173V26.5261H13.2869V25.6957ZM13.2869 26.5261H14.1173V27.3566H13.2869V26.5261ZM13.2869 27.3566H14.1173V28.187H13.2869V27.3566ZM13.2869 28.187H14.1173V29.0174H13.2869V28.187ZM12.4564 29.0174H13.2869V29.8479H12.4564V29.0174ZM11.626 29.0174H12.4564V29.8479H11.626V29.0174ZM11.626 28.187H12.4564V29.0174H11.626V28.187ZM11.626 27.3566H12.4564V28.187H11.626V27.3566ZM11.626 26.5261H12.4564V27.3566H11.626V26.5261ZM11.626 25.6957H12.4564V26.5261H11.626V25.6957ZM12.4564 25.6957H13.2869V26.5261H12.4564V25.6957ZM12.4564 24.8653H13.2869V25.6957H12.4564V24.8653ZM12.4564 24.0348H13.2869V24.8653H12.4564V24.0348ZM12.4564 23.2044H13.2869V24.0348H12.4564V23.2044ZM11.626 23.2044H12.4564V24.0348H11.626V23.2044ZM11.626 24.0348H12.4564V24.8653H11.626V24.0348ZM11.626 24.8653H12.4564V25.6957H11.626V24.8653ZM12.4564 27.3566H13.2869V28.187H12.4564V27.3566ZM12.4564 28.187H13.2869V29.0174H12.4564V28.187ZM12.4564 26.5261H13.2869V27.3566H12.4564V26.5261ZM5.81301 30.6783H6.64344V31.5087H5.81301V30.6783ZM6.64344 33.1696H7.47387V34H6.64344V33.1696ZM7.47387 33.1696H8.30429V34H7.47387V33.1696ZM8.30429 33.1696H9.13472V34H8.30429V33.1696ZM9.13472 33.1696H9.96515V34H9.13472V33.1696ZM9.96515 33.1696H10.7956V34H9.96515V33.1696ZM10.7956 33.1696H11.626V34H10.7956V33.1696ZM9.96515 32.3391H10.7956V33.1696H9.96515V32.3391ZM9.13472 32.3391H9.96515V33.1696H9.13472V32.3391ZM8.30429 32.3391H9.13472V33.1696H8.30429V32.3391ZM7.47387 32.3391H8.30429V33.1696H7.47387V32.3391ZM6.64344 32.3391H7.47387V33.1696H6.64344V32.3391ZM5.81301 32.3391H6.64344V33.1696H5.81301V32.3391ZM5.81301 31.5087H6.64344V32.3391H5.81301V31.5087ZM6.64344 31.5087H7.47387V32.3391H6.64344V31.5087ZM7.47387 31.5087H8.30429V32.3391H7.47387V31.5087ZM8.30429 31.5087H9.13472V32.3391H8.30429V31.5087ZM9.13472 31.5087H9.96515V32.3391H9.13472V31.5087ZM9.96515 31.5087H10.7956V32.3391H9.96515V31.5087ZM10.7956 32.3391H11.626V33.1696H10.7956V32.3391ZM11.626 32.3391H12.4564V33.1696H11.626V32.3391ZM12.4564 32.3391H13.2869V33.1696H12.4564V32.3391ZM12.4564 31.5087H13.2869V32.3391H12.4564V31.5087ZM13.2869 31.5087H14.1173V32.3391H13.2869V31.5087ZM13.2869 30.6783H14.1173V31.5087H13.2869V30.6783ZM12.4564 30.6783H13.2869V31.5087H12.4564V30.6783ZM11.626 30.6783H12.4564V31.5087H11.626V30.6783ZM10.7956 30.6783H11.626V31.5087H10.7956V30.6783ZM9.96515 30.6783H10.7956V31.5087H9.96515V30.6783ZM9.13472 30.6783H9.96515V31.5087H9.13472V30.6783ZM8.30429 30.6783H9.13472V31.5087H8.30429V30.6783ZM7.47387 30.6783H8.30429V31.5087H7.47387V30.6783ZM6.64344 30.6783H7.47387V31.5087H6.64344V30.6783ZM10.7956 31.5087H11.626V32.3391H10.7956V31.5087ZM11.626 31.5087H12.4564V32.3391H11.626V31.5087ZM4.98258 31.5087H5.81301V32.3391H4.98258V31.5087ZM4.98258 30.6783H5.81301V31.5087H4.98258V30.6783ZM4.98258 29.8479H5.81301V30.6783H4.98258V29.8479ZM4.98258 29.0174H5.81301V29.8479H4.98258V29.0174ZM4.98258 28.187H5.81301V29.0174H4.98258V28.187ZM4.98258 27.3566H5.81301V28.187H4.98258V27.3566ZM4.98258 26.5261H5.81301V27.3566H4.98258V26.5261ZM4.98258 25.6957H5.81301V26.5261H4.98258V25.6957ZM4.98258 24.8653H5.81301V25.6957H4.98258V24.8653ZM4.98258 24.0348H5.81301V24.8653H4.98258V24.0348ZM4.98258 23.2044H5.81301V24.0348H4.98258V23.2044ZM4.98258 22.374H5.81301V23.2044H4.98258V22.374ZM4.98258 21.5436H5.81301V22.374H4.98258V21.5436ZM4.15215 21.5436H4.98258V22.374H4.15215V21.5436ZM4.15215 22.374H4.98258V23.2044H4.15215V22.374ZM4.15215 23.2044H4.98258V24.0348H4.15215V23.2044ZM4.15215 24.0348H4.98258V24.8653H4.15215V24.0348ZM4.15215 24.8653H4.98258V25.6957H4.15215V24.8653ZM4.15215 25.6957H4.98258V26.5261H4.15215V25.6957ZM4.15215 26.5261H4.98258V27.3566H4.15215V26.5261ZM3.32172 27.3566H4.15215V28.187H3.32172V27.3566ZM3.32172 28.187H4.15215V29.0174H3.32172V28.187ZM3.32172 29.0174H4.15215V29.8479H3.32172V29.0174ZM3.32172 29.8479H4.15215V30.6783H3.32172V29.8479ZM3.32172 30.6783H4.15215V31.5087H3.32172V30.6783ZM3.32172 31.5087H4.15215V32.3391H3.32172V31.5087ZM3.32172 32.3391H4.15215V33.1696H3.32172V32.3391ZM3.32172 33.1696H4.15215V34H3.32172V33.1696ZM2.49129 33.1696H3.32172V34H2.49129V33.1696ZM1.66086 33.1696H2.49129V34H1.66086V33.1696ZM1.66086 32.3391H2.49129V33.1696H1.66086V32.3391ZM1.66086 31.5087H2.49129V32.3391H1.66086V31.5087ZM1.66086 30.6783H2.49129V31.5087H1.66086V30.6783ZM1.66086 29.8479H2.49129V30.6783H1.66086V29.8479ZM1.66086 29.0174H2.49129V29.8479H1.66086V29.0174ZM1.66086 28.187H2.49129V29.0174H1.66086V28.187ZM1.66086 27.3566H2.49129V28.187H1.66086V27.3566ZM2.49129 27.3566H3.32172V28.187H2.49129V27.3566ZM2.49129 26.5261H3.32172V27.3566H2.49129V26.5261ZM2.49129 28.187H3.32172V29.0174H2.49129V28.187ZM2.49129 29.0174H3.32172V29.8479H2.49129V29.0174ZM2.49129 29.8479H3.32172V30.6783H2.49129V29.8479ZM2.49129 30.6783H3.32172V31.5087H2.49129V30.6783ZM2.49129 31.5087H3.32172V32.3391H2.49129V31.5087ZM2.49129 32.3391H3.32172V33.1696H2.49129V32.3391ZM4.15215 31.5087H4.98258V32.3391H4.15215V31.5087ZM4.15215 30.6783H4.98258V31.5087H4.15215V30.6783ZM4.15215 29.8479H4.98258V30.6783H4.15215V29.8479ZM4.15215 29.0174H4.98258V29.8479H4.15215V29.0174ZM4.15215 28.187H4.98258V29.0174H4.15215V28.187ZM4.15215 27.3566H4.98258V28.187H4.15215V27.3566ZM4.98258 34H5.81301V34.8304H4.98258V34ZM4.98258 34.8304H5.81301V35.6609H4.98258V34.8304ZM4.98258 35.6609H5.81301V36.4913H4.98258V35.6609ZM4.98258 36.4913H5.81301V37.3217H4.98258V36.4913ZM4.98258 37.3217H5.81301V38.1521H4.98258V37.3217ZM4.98258 38.1521H5.81301V38.9826H4.98258V38.1521ZM4.98258 19.0523H5.81301V19.8827H4.98258V19.0523ZM4.98258 20.7131H5.81301V21.5436H4.98258V20.7131ZM2.49129 34H3.32172V34.8304H2.49129V34ZM2.49129 34.8304H3.32172V35.6609H2.49129V34.8304ZM2.49129 35.6609H3.32172V36.4913H2.49129V35.6609ZM2.49129 36.4913H3.32172V37.3217H2.49129V36.4913ZM2.49129 37.3217H3.32172V38.1521H2.49129V37.3217ZM2.49129 38.1521H3.32172V38.9826H2.49129V38.1521ZM2.49129 19.0523H3.32172V19.8827H2.49129V19.0523ZM2.49129 19.8827H3.32172V20.7131H2.49129V19.8827ZM2.49129 20.7131H3.32172V21.5436H2.49129V20.7131ZM2.49129 22.374H3.32172V23.2044H2.49129V22.374ZM2.49129 23.2044H3.32172V24.0348H2.49129V23.2044ZM2.49129 24.0348H3.32172V24.8653H2.49129V24.0348ZM1.66086 24.8653H2.49129V25.6957H1.66086V24.8653ZM1.66086 25.6957H2.49129V26.5261H1.66086V25.6957ZM1.66086 26.5261H2.49129V27.3566H1.66086V26.5261ZM1.66086 24.0348H2.49129V24.8653H1.66086V24.0348ZM1.66086 23.2044H2.49129V24.0348H1.66086V23.2044ZM1.66086 21.5436H2.49129V22.374H1.66086V21.5436ZM1.66086 20.7131H2.49129V21.5436H1.66086V20.7131ZM1.66086 19.8827H2.49129V20.7131H1.66086V19.8827ZM1.66086 19.0523H2.49129V19.8827H1.66086V19.0523ZM1.66086 18.2218H2.49129V19.0523H1.66086V18.2218ZM1.66086 38.1521H2.49129V38.9826H1.66086V38.1521ZM1.66086 37.3217H2.49129V38.1521H1.66086V37.3217ZM2.49129 18.2218H3.32172V19.0523H2.49129V18.2218ZM1.66086 36.4913H2.49129V37.3217H1.66086V36.4913ZM1.66086 35.6609H2.49129V36.4913H1.66086V35.6609ZM1.66086 34.8304H2.49129V35.6609H1.66086V34.8304ZM1.66086 34H2.49129V34.8304H1.66086V34ZM3.32172 34H4.15215V34.8304H3.32172V34ZM4.15215 34H4.98258V34.8304H4.15215V34ZM4.15215 34.8304H4.98258V35.6609H4.15215V34.8304ZM3.32172 34.8304H4.15215V35.6609H3.32172V34.8304ZM3.32172 35.6609H4.15215V36.4913H3.32172V35.6609ZM3.32172 36.4913H4.15215V37.3217H3.32172V36.4913ZM3.32172 37.3217H4.15215V38.1521H3.32172V37.3217ZM3.32172 38.1521H4.15215V38.9826H3.32172V38.1521ZM3.32172 18.2218H4.15215V19.0523H3.32172V18.2218ZM3.32172 19.0523H4.15215V19.8827H3.32172V19.0523ZM4.15215 19.8827H4.98258V20.7131H4.15215V19.8827ZM4.15215 20.7131H4.98258V21.5436H4.15215V20.7131ZM4.15215 19.0523H4.98258V19.8827H4.15215V19.0523ZM4.15215 18.2218H4.98258V19.0523H4.15215V18.2218ZM4.15215 38.1521H4.98258V38.9826H4.15215V38.1521ZM4.15215 37.3217H4.98258V38.1521H4.15215V37.3217ZM4.15215 36.4913H4.98258V37.3217H4.15215V36.4913ZM4.15215 35.6609H4.98258V36.4913H4.15215V35.6609ZM3.32172 20.7131H4.15215V21.5436H3.32172V20.7131ZM3.32172 22.374H4.15215V23.2044H3.32172V22.374ZM3.32172 23.2044H4.15215V24.0348H3.32172V23.2044ZM3.32172 24.0348H4.15215V24.8653H3.32172V24.0348ZM3.32172 24.8653H4.15215V25.6957H3.32172V24.8653ZM3.32172 25.6957H4.15215V26.5261H3.32172V25.6957ZM3.32172 26.5261H4.15215V27.3566H3.32172V26.5261ZM2.49129 25.6957H3.32172V26.5261H2.49129V25.6957ZM2.49129 24.8653H3.32172V25.6957H2.49129V24.8653ZM4.98258 18.2218H5.81301V19.0523H4.98258V18.2218ZM1.66086 22.374H2.49129V23.2044H1.66086V22.374ZM4.98258 19.8827H5.81301V20.7131H4.98258V19.8827ZM3.32172 19.8827H4.15215V20.7131H3.32172V19.8827ZM3.32172 21.5436H4.15215V22.374H3.32172V21.5436ZM2.49129 21.5436H3.32172V22.374H2.49129V21.5436ZM4.98258 32.3391H5.81301V33.1696H4.98258V32.3391ZM4.15215 32.3391H4.98258V33.1696H4.15215V32.3391ZM4.15215 33.1696H4.98258V34H4.15215V33.1696ZM7.47387 18.2218V19.0523H6.64344V18.2218H7.47387ZM5.81301 33.1696V34H4.98258V33.1696H5.81301ZM6.64344 21.5436V22.374H5.81301V21.5436H6.64344ZM6.64344 33.1696V34H5.81301V33.1696H6.64344ZM21.6066 20.7131H22.437V21.5436H21.6066V20.7131ZM21.6066 19.8827H22.437V20.7131H21.6066V19.8827ZM21.6066 19.0523H22.437V19.8827H21.6066V19.0523ZM22.437 19.0523H23.2674V19.8827H22.437V19.0523ZM22.437 19.8827H23.2674V20.7131H22.437V19.8827ZM23.2674 19.8827H24.0979V20.7131H23.2674V19.8827ZM23.2674 20.7131H24.0979V21.5436H23.2674V20.7131ZM22.437 20.7131H23.2674V21.5436H22.437V20.7131ZM24.0979 20.7131H24.9283V21.5436H24.0979V20.7131ZM24.0979 19.8827H24.9283V20.7131H24.0979V19.8827ZM24.0979 19.0523H24.9283V19.8827H24.0979V19.0523ZM24.0979 18.2218H24.9283V19.0523H24.0979V18.2218ZM23.2674 18.2218H24.0979V19.0523H23.2674V18.2218ZM23.2674 19.0523H24.0979V19.8827H23.2674V19.0523ZM24.9283 18.2218H25.7587V19.0523H24.9283V18.2218ZM25.7587 18.2218H26.5892V19.0523H25.7587V18.2218ZM26.5892 18.2218H27.4196V19.0523H26.5892V18.2218ZM26.5892 19.0523H27.4196V19.8827H26.5892V19.0523ZM26.5892 19.8827H27.4196V20.7131H26.5892V19.8827ZM26.5892 20.7131H27.4196V21.5436H26.5892V20.7131ZM25.7587 20.7131H26.5892V21.5436H25.7587V20.7131ZM24.9283 20.7131H25.7587V21.5436H24.9283V20.7131ZM24.9283 19.8827H25.7587V20.7131H24.9283V19.8827ZM24.9283 19.0523H25.7587V19.8827H24.9283V19.0523ZM25.7587 19.0523H26.5892V19.8827H25.7587V19.0523ZM25.7587 19.8827H26.5892V20.7131H25.7587V19.8827ZM27.4196 19.8827H28.25V20.7131H27.4196V19.8827ZM27.4196 19.0523H28.25V19.8827H27.4196V19.0523ZM28.25 19.0523H29.0804V19.8827H28.25V19.0523ZM28.25 19.8827H29.0804V20.7131H28.25V19.8827ZM29.0804 19.8827H29.9109V20.7131H29.0804V19.8827ZM29.0804 20.7131H29.9109V21.5436H29.0804V20.7131ZM29.0804 21.5436H29.9109V22.374H29.0804V21.5436ZM28.25 21.5436H29.0804V22.374H28.25V21.5436ZM28.25 20.7131H29.0804V21.5436H28.25V20.7131ZM27.4196 20.7131H28.25V21.5436H27.4196V20.7131ZM27.4196 21.5436H28.25V22.374H27.4196V21.5436ZM26.5892 21.5436H27.4196V22.374H26.5892V21.5436ZM25.7587 21.5436H26.5892V22.374H25.7587V21.5436ZM29.9109 21.5436H30.7413V22.374H29.9109V21.5436ZM29.9109 22.374H30.7413V23.2044H29.9109V22.374ZM29.9109 23.2044H30.7413V24.0348H29.9109V23.2044ZM29.9109 24.0348H30.7413V24.8653H29.9109V24.0348ZM29.9109 24.8653H30.7413V25.6957H29.9109V24.8653ZM29.9109 25.6957H30.7413V26.5261H29.9109V25.6957ZM29.9109 26.5261H30.7413V27.3566H29.9109V26.5261ZM29.9109 27.3566H30.7413V28.187H29.9109V27.3566ZM29.9109 28.187H30.7413V29.0174H29.9109V28.187ZM29.9109 29.0174H30.7413V29.8479H29.9109V29.0174ZM29.0804 29.0174H29.9109V29.8479H29.0804V29.0174ZM29.0804 29.8479H29.9109V30.6783H29.0804V29.8479ZM29.9109 29.8479H30.7413V30.6783H29.9109V29.8479ZM28.25 29.8479H29.0804V30.6783H28.25V29.8479ZM27.4196 29.8479H28.25V30.6783H27.4196V29.8479ZM26.5892 29.8479H27.4196V30.6783H26.5892V29.8479ZM25.7587 29.8479H26.5892V30.6783H25.7587V29.8479ZM26.5892 29.0174H27.4196V29.8479H26.5892V29.0174ZM26.5892 28.187H27.4196V29.0174H26.5892V28.187ZM26.5892 27.3566H27.4196V28.187H26.5892V27.3566ZM26.5892 26.5261H27.4196V27.3566H26.5892V26.5261ZM26.5892 25.6957H27.4196V26.5261H26.5892V25.6957ZM26.5892 24.8653H27.4196V25.6957H26.5892V24.8653ZM26.5892 24.0348H27.4196V24.8653H26.5892V24.0348ZM26.5892 23.2044H27.4196V24.0348H26.5892V23.2044ZM26.5892 22.374H27.4196V23.2044H26.5892V22.374ZM27.4196 22.374H28.25V23.2044H27.4196V22.374ZM28.25 22.374H29.0804V23.2044H28.25V22.374ZM29.0804 22.374H29.9109V23.2044H29.0804V22.374ZM29.0804 23.2044H29.9109V24.0348H29.0804V23.2044ZM29.0804 24.0348H29.9109V24.8653H29.0804V24.0348ZM29.0804 24.8653H29.9109V25.6957H29.0804V24.8653ZM29.0804 25.6957H29.9109V26.5261H29.0804V25.6957ZM29.0804 26.5261H29.9109V27.3566H29.0804V26.5261ZM29.0804 27.3566H29.9109V28.187H29.0804V27.3566ZM29.0804 28.187H29.9109V29.0174H29.0804V28.187ZM28.25 29.0174H29.0804V29.8479H28.25V29.0174ZM27.4196 29.0174H28.25V29.8479H27.4196V29.0174ZM27.4196 28.187H28.25V29.0174H27.4196V28.187ZM27.4196 27.3566H28.25V28.187H27.4196V27.3566ZM27.4196 26.5261H28.25V27.3566H27.4196V26.5261ZM27.4196 25.6957H28.25V26.5261H27.4196V25.6957ZM28.25 25.6957H29.0804V26.5261H28.25V25.6957ZM28.25 24.8653H29.0804V25.6957H28.25V24.8653ZM28.25 24.0348H29.0804V24.8653H28.25V24.0348ZM28.25 23.2044H29.0804V24.0348H28.25V23.2044ZM27.4196 23.2044H28.25V24.0348H27.4196V23.2044ZM27.4196 24.0348H28.25V24.8653H27.4196V24.0348ZM27.4196 24.8653H28.25V25.6957H27.4196V24.8653ZM28.25 27.3566H29.0804V28.187H28.25V27.3566ZM28.25 28.187H29.0804V29.0174H28.25V28.187ZM28.25 26.5261H29.0804V27.3566H28.25V26.5261ZM21.6066 30.6783H22.437V31.5087H21.6066V30.6783ZM22.437 33.1696H23.2674V34H22.437V33.1696ZM23.2674 33.1696H24.0979V34H23.2674V33.1696ZM24.0979 33.1696H24.9283V34H24.0979V33.1696ZM24.9283 33.1696H25.7587V34H24.9283V33.1696ZM25.7587 33.1696H26.5892V34H25.7587V33.1696ZM26.5892 33.1696H27.4196V34H26.5892V33.1696ZM25.7587 32.3391H26.5892V33.1696H25.7587V32.3391ZM24.9283 32.3391H25.7587V33.1696H24.9283V32.3391ZM24.0979 32.3391H24.9283V33.1696H24.0979V32.3391ZM23.2674 32.3391H24.0979V33.1696H23.2674V32.3391ZM22.437 32.3391H23.2674V33.1696H22.437V32.3391ZM21.6066 32.3391H22.437V33.1696H21.6066V32.3391ZM21.6066 31.5087H22.437V32.3391H21.6066V31.5087ZM22.437 31.5087H23.2674V32.3391H22.437V31.5087ZM23.2674 31.5087H24.0979V32.3391H23.2674V31.5087ZM24.0979 31.5087H24.9283V32.3391H24.0979V31.5087ZM24.9283 31.5087H25.7587V32.3391H24.9283V31.5087ZM25.7587 31.5087H26.5892V32.3391H25.7587V31.5087ZM26.5892 32.3391H27.4196V33.1696H26.5892V32.3391ZM27.4196 32.3391H28.25V33.1696H27.4196V32.3391ZM28.25 32.3391H29.0804V33.1696H28.25V32.3391ZM28.25 31.5087H29.0804V32.3391H28.25V31.5087ZM29.0804 31.5087H29.9109V32.3391H29.0804V31.5087ZM29.0804 30.6783H29.9109V31.5087H29.0804V30.6783ZM28.25 30.6783H29.0804V31.5087H28.25V30.6783ZM27.4196 30.6783H28.25V31.5087H27.4196V30.6783ZM26.5892 30.6783H27.4196V31.5087H26.5892V30.6783ZM25.7587 30.6783H26.5892V31.5087H25.7587V30.6783ZM24.9283 30.6783H25.7587V31.5087H24.9283V30.6783ZM24.0979 30.6783H24.9283V31.5087H24.0979V30.6783ZM23.2674 30.6783H24.0979V31.5087H23.2674V30.6783ZM22.437 30.6783H23.2674V31.5087H22.437V30.6783ZM26.5892 31.5087H27.4196V32.3391H26.5892V31.5087ZM27.4196 31.5087H28.25V32.3391H27.4196V31.5087ZM20.7761 31.5087H21.6066V32.3391H20.7761V31.5087ZM20.7761 30.6783H21.6066V31.5087H20.7761V30.6783ZM20.7761 29.8479H21.6066V30.6783H20.7761V29.8479ZM20.7761 29.0174H21.6066V29.8479H20.7761V29.0174ZM20.7761 28.187H21.6066V29.0174H20.7761V28.187ZM20.7761 27.3566H21.6066V28.187H20.7761V27.3566ZM20.7761 26.5261H21.6066V27.3566H20.7761V26.5261ZM20.7761 25.6957H21.6066V26.5261H20.7761V25.6957ZM20.7761 24.8653H21.6066V25.6957H20.7761V24.8653ZM20.7761 24.0348H21.6066V24.8653H20.7761V24.0348ZM20.7761 23.2044H21.6066V24.0348H20.7761V23.2044ZM20.7761 22.374H21.6066V23.2044H20.7761V22.374ZM20.7761 21.5436H21.6066V22.374H20.7761V21.5436ZM19.9457 21.5436H20.7761V22.374H19.9457V21.5436ZM19.9457 22.374H20.7761V23.2044H19.9457V22.374ZM19.9457 23.2044H20.7761V24.0348H19.9457V23.2044ZM19.9457 24.0348H20.7761V24.8653H19.9457V24.0348ZM19.9457 24.8653H20.7761V25.6957H19.9457V24.8653ZM19.9457 25.6957H20.7761V26.5261H19.9457V25.6957ZM19.9457 26.5261H20.7761V27.3566H19.9457V26.5261ZM19.1153 27.3566H19.9457V28.187H19.1153V27.3566ZM19.1153 28.187H19.9457V29.0174H19.1153V28.187ZM19.1153 29.0174H19.9457V29.8479H19.1153V29.0174ZM19.1153 29.8479H19.9457V30.6783H19.1153V29.8479ZM19.1153 30.6783H19.9457V31.5087H19.1153V30.6783ZM19.1153 31.5087H19.9457V32.3391H19.1153V31.5087ZM19.1153 32.3391H19.9457V33.1696H19.1153V32.3391ZM19.1153 33.1696H19.9457V34H19.1153V33.1696ZM18.2849 33.1696H19.1153V34H18.2849V33.1696ZM17.4544 33.1696H18.2849V34H17.4544V33.1696ZM17.4544 32.3391H18.2849V33.1696H17.4544V32.3391ZM17.4544 31.5087H18.2849V32.3391H17.4544V31.5087ZM17.4544 30.6783H18.2849V31.5087H17.4544V30.6783ZM17.4544 29.8479H18.2849V30.6783H17.4544V29.8479ZM17.4544 29.0174H18.2849V29.8479H17.4544V29.0174ZM17.4544 28.187H18.2849V29.0174H17.4544V28.187ZM17.4544 27.3566H18.2849V28.187H17.4544V27.3566ZM18.2849 27.3566H19.1153V28.187H18.2849V27.3566ZM18.2849 26.5261H19.1153V27.3566H18.2849V26.5261ZM18.2849 28.187H19.1153V29.0174H18.2849V28.187ZM18.2849 29.0174H19.1153V29.8479H18.2849V29.0174ZM18.2849 29.8479H19.1153V30.6783H18.2849V29.8479ZM18.2849 30.6783H19.1153V31.5087H18.2849V30.6783ZM18.2849 31.5087H19.1153V32.3391H18.2849V31.5087ZM18.2849 32.3391H19.1153V33.1696H18.2849V32.3391ZM19.9457 31.5087H20.7761V32.3391H19.9457V31.5087ZM19.9457 30.6783H20.7761V31.5087H19.9457V30.6783ZM19.9457 29.8479H20.7761V30.6783H19.9457V29.8479ZM19.9457 29.0174H20.7761V29.8479H19.9457V29.0174ZM19.9457 28.187H20.7761V29.0174H19.9457V28.187ZM19.9457 27.3566H20.7761V28.187H19.9457V27.3566ZM20.7761 34H21.6066V34.8304H20.7761V34ZM20.7761 34.8304H21.6066V35.6609H20.7761V34.8304ZM20.7761 35.6609H21.6066V36.4913H20.7761V35.6609ZM20.7761 36.4913H21.6066V37.3217H20.7761V36.4913ZM20.7761 37.3217H21.6066V38.1521H20.7761V37.3217ZM20.7761 38.1521H21.6066V38.9826H20.7761V38.1521ZM20.7761 19.0523H21.6066V19.8827H20.7761V19.0523ZM20.7761 20.7131H21.6066V21.5436H20.7761V20.7131ZM18.2849 34H19.1153V34.8304H18.2849V34ZM18.2849 34.8304H19.1153V35.6609H18.2849V34.8304ZM18.2849 35.6609H19.1153V36.4913H18.2849V35.6609ZM18.2849 36.4913H19.1153V37.3217H18.2849V36.4913ZM18.2849 37.3217H19.1153V38.1521H18.2849V37.3217ZM18.2849 38.1521H19.1153V38.9826H18.2849V38.1521ZM18.2849 19.0523H19.1153V19.8827H18.2849V19.0523ZM18.2849 19.8827H19.1153V20.7131H18.2849V19.8827ZM18.2849 20.7131H19.1153V21.5436H18.2849V20.7131ZM18.2849 22.374H19.1153V23.2044H18.2849V22.374ZM18.2849 23.2044H19.1153V24.0348H18.2849V23.2044ZM18.2849 24.0348H19.1153V24.8653H18.2849V24.0348ZM17.4544 24.8653H18.2849V25.6957H17.4544V24.8653ZM17.4544 25.6957H18.2849V26.5261H17.4544V25.6957ZM17.4544 26.5261H18.2849V27.3566H17.4544V26.5261ZM17.4544 24.0348H18.2849V24.8653H17.4544V24.0348ZM17.4544 23.2044H18.2849V24.0348H17.4544V23.2044ZM17.4544 21.5436H18.2849V22.374H17.4544V21.5436ZM17.4544 20.7131H18.2849V21.5436H17.4544V20.7131ZM17.4544 19.8827H18.2849V20.7131H17.4544V19.8827ZM17.4544 19.0523H18.2849V19.8827H17.4544V19.0523ZM17.4544 18.2218H18.2849V19.0523H17.4544V18.2218ZM17.4544 38.1521H18.2849V38.9826H17.4544V38.1521ZM17.4544 37.3217H18.2849V38.1521H17.4544V37.3217ZM18.2849 18.2218H19.1153V19.0523H18.2849V18.2218ZM17.4544 36.4913H18.2849V37.3217H17.4544V36.4913ZM17.4544 35.6609H18.2849V36.4913H17.4544V35.6609ZM17.4544 34.8304H18.2849V35.6609H17.4544V34.8304ZM17.4544 34H18.2849V34.8304H17.4544V34ZM19.1153 34H19.9457V34.8304H19.1153V34ZM19.9457 34H20.7761V34.8304H19.9457V34ZM19.9457 34.8304H20.7761V35.6609H19.9457V34.8304ZM19.1153 34.8304H19.9457V35.6609H19.1153V34.8304ZM19.1153 35.6609H19.9457V36.4913H19.1153V35.6609ZM19.1153 36.4913H19.9457V37.3217H19.1153V36.4913ZM19.1153 37.3217H19.9457V38.1521H19.1153V37.3217ZM19.1153 38.1521H19.9457V38.9826H19.1153V38.1521ZM19.1153 18.2218H19.9457V19.0523H19.1153V18.2218ZM19.1153 19.0523H19.9457V19.8827H19.1153V19.0523ZM19.9457 19.8827H20.7761V20.7131H19.9457V19.8827ZM19.9457 20.7131H20.7761V21.5436H19.9457V20.7131ZM19.9457 19.0523H20.7761V19.8827H19.9457V19.0523ZM19.9457 18.2218H20.7761V19.0523H19.9457V18.2218ZM19.9457 38.1521H20.7761V38.9826H19.9457V38.1521ZM19.9457 37.3217H20.7761V38.1521H19.9457V37.3217ZM19.9457 36.4913H20.7761V37.3217H19.9457V36.4913ZM19.9457 35.6609H20.7761V36.4913H19.9457V35.6609ZM19.1153 20.7131H19.9457V21.5436H19.1153V20.7131ZM19.1153 22.374H19.9457V23.2044H19.1153V22.374ZM19.1153 23.2044H19.9457V24.0348H19.1153V23.2044ZM19.1153 24.0348H19.9457V24.8653H19.1153V24.0348ZM19.1153 24.8653H19.9457V25.6957H19.1153V24.8653ZM19.1153 25.6957H19.9457V26.5261H19.1153V25.6957ZM19.1153 26.5261H19.9457V27.3566H19.1153V26.5261ZM18.2849 25.6957H19.1153V26.5261H18.2849V25.6957ZM18.2849 24.8653H19.1153V25.6957H18.2849V24.8653ZM20.7761 18.2218H21.6066V19.0523H20.7761V18.2218ZM17.4544 22.374H18.2849V23.2044H17.4544V22.374ZM20.7761 19.8827H21.6066V20.7131H20.7761V19.8827ZM19.1153 19.8827H19.9457V20.7131H19.1153V19.8827ZM19.1153 21.5436H19.9457V22.374H19.1153V21.5436ZM18.2849 21.5436H19.1153V22.374H18.2849V21.5436ZM20.7761 32.3391H21.6066V33.1696H20.7761V32.3391ZM19.9457 32.3391H20.7761V33.1696H19.9457V32.3391ZM19.9457 33.1696H20.7761V34H19.9457V33.1696ZM23.2674 18.2218V19.0523H22.437V18.2218H23.2674ZM21.6066 33.1696V34H20.7761V33.1696H21.6066ZM22.437 21.5436V22.374H21.6066V21.5436H22.437ZM22.437 33.1696V34H21.6066V33.1696H22.437ZM34.0784 33.1696V34H33.248V33.1696H34.0784ZM34.0784 32.3391V33.1696H33.248V32.3391H34.0784ZM34.0784 31.5087V32.3391H33.248V31.5087H34.0784ZM34.0784 30.6783V31.5087H33.248V30.6783H34.0784ZM34.0784 29.8479V30.6783H33.248V29.8479H34.0784ZM34.0784 29.0174V29.8479H33.248V29.0174H34.0784ZM34.0784 28.187V29.0174H33.248V28.187H34.0784ZM34.0784 27.3566V28.187H33.248V27.3566H34.0784ZM34.0784 26.5261V27.3566H33.248V26.5261H34.0784ZM34.0784 25.6957V26.5261H33.248V25.6957H34.0784ZM34.0784 24.8653V25.6957H33.248V24.8653H34.0784ZM34.0784 24.0348V24.8653H33.248V24.0348H34.0784ZM34.0784 23.2044V24.0348H33.248V23.2044H34.0784ZM34.0784 22.374V23.2044H33.248V22.374H34.0784ZM34.0784 21.5436V22.374H33.248V21.5436H34.0784ZM34.9089 21.5436V22.374H34.0784V21.5436H34.9089ZM34.9089 22.374V23.2044H34.0784V22.374H34.9089ZM34.9089 23.2044V24.0348H34.0784V23.2044H34.9089ZM34.9089 24.0348V24.8653H34.0784V24.0348H34.9089ZM34.9089 24.8653V25.6957H34.0784V24.8653H34.9089ZM34.9089 25.6957V26.5261H34.0784V25.6957H34.9089ZM34.9089 26.5261V27.3566H34.0784V26.5261H34.9089ZM35.7393 27.3566V28.187H34.9089V27.3566H35.7393ZM35.7393 28.187V29.0174H34.9089V28.187H35.7393ZM35.7393 29.0174V29.8479H34.9089V29.0174H35.7393ZM35.7393 29.8479V30.6783H34.9089V29.8479H35.7393ZM35.7393 30.6783V31.5087H34.9089V30.6783H35.7393ZM35.7393 31.5087V32.3391H34.9089V31.5087H35.7393ZM35.7393 32.3391V33.1696H34.9089V32.3391H35.7393ZM35.7393 33.1696V34H34.9089V33.1696H35.7393ZM36.5697 33.1696V34H35.7393V33.1696H36.5697ZM37.4001 33.1696V34H36.5697V33.1696H37.4001ZM37.4001 32.3391V33.1696H36.5697V32.3391H37.4001ZM37.4001 31.5087V32.3391H36.5697V31.5087H37.4001ZM37.4001 30.6783V31.5087H36.5697V30.6783H37.4001ZM37.4001 29.8479V30.6783H36.5697V29.8479H37.4001ZM37.4001 29.0174V29.8479H36.5697V29.0174H37.4001ZM37.4001 28.187V29.0174H36.5697V28.187H37.4001ZM37.4001 27.3566V28.187H36.5697V27.3566H37.4001ZM36.5697 27.3566V28.187H35.7393V27.3566H36.5697ZM36.5697 26.5261V27.3566H35.7393V26.5261H36.5697ZM36.5697 28.187V29.0174H35.7393V28.187H36.5697ZM36.5697 29.0174V29.8479H35.7393V29.0174H36.5697ZM36.5697 29.8479V30.6783H35.7393V29.8479H36.5697ZM36.5697 30.6783V31.5087H35.7393V30.6783H36.5697ZM36.5697 31.5087V32.3391H35.7393V31.5087H36.5697ZM36.5697 32.3391V33.1696H35.7393V32.3391H36.5697ZM34.9089 33.1696V34H34.0784V33.1696H34.9089ZM34.9089 32.3391V33.1696H34.0784V32.3391H34.9089ZM34.9089 31.5087V32.3391H34.0784V31.5087H34.9089ZM34.9089 30.6783V31.5087H34.0784V30.6783H34.9089ZM34.9089 29.8479V30.6783H34.0784V29.8479H34.9089ZM34.9089 29.0174V29.8479H34.0784V29.0174H34.9089ZM34.9089 28.187V29.0174H34.0784V28.187H34.9089ZM34.9089 27.3566V28.187H34.0784V27.3566H34.9089ZM34.0784 18.2218V19.0523H33.248V18.2218H34.0784ZM34.0784 19.0523V19.8827H33.248V19.0523H34.0784ZM34.0784 19.8827V20.7131H33.248V19.8827H34.0784ZM34.0784 20.7131V21.5436H33.248V20.7131H34.0784ZM36.5697 19.0523V19.8827H35.7393V19.0523H36.5697ZM36.5697 19.8827V20.7131H35.7393V19.8827H36.5697ZM36.5697 20.7131V21.5436H35.7393V20.7131H36.5697ZM36.5697 21.5436V22.374H35.7393V21.5436H36.5697ZM36.5697 22.374V23.2044H35.7393V22.374H36.5697ZM36.5697 23.2044V24.0348H35.7393V23.2044H36.5697ZM36.5697 24.0348V24.8653H35.7393V24.0348H36.5697ZM37.4001 24.8653V25.6957H36.5697V24.8653H37.4001ZM37.4001 25.6957V26.5261H36.5697V25.6957H37.4001ZM37.4001 26.5261V27.3566H36.5697V26.5261H37.4001ZM37.4001 24.0348V24.8653H36.5697V24.0348H37.4001ZM37.4001 23.2044V24.0348H36.5697V23.2044H37.4001ZM37.4001 22.374V23.2044H36.5697V22.374H37.4001ZM37.4001 21.5436V22.374H36.5697V21.5436H37.4001ZM37.4001 20.7131V21.5436H36.5697V20.7131H37.4001ZM37.4001 19.8827V20.7131H36.5697V19.8827H37.4001ZM37.4001 19.0523V19.8827H36.5697V19.0523H37.4001ZM37.4001 18.2218V19.0523H36.5697V18.2218H37.4001ZM36.5697 18.2218V19.0523H35.7393V18.2218H36.5697ZM35.7393 18.2218V19.0523H34.9089V18.2218H35.7393ZM35.7393 19.0523V19.8827H34.9089V19.0523H35.7393ZM34.9089 19.8827V20.7131H34.0784V19.8827H34.9089ZM34.9089 20.7131V21.5436H34.0784V20.7131H34.9089ZM34.9089 19.0523V19.8827H34.0784V19.0523H34.9089ZM34.9089 18.2218V19.0523H34.0784V18.2218H34.9089ZM35.7393 19.8827V20.7131H34.9089V19.8827H35.7393ZM35.7393 20.7131V21.5436H34.9089V20.7131H35.7393ZM35.7393 21.5436V22.374H34.9089V21.5436H35.7393ZM35.7393 22.374V23.2044H34.9089V22.374H35.7393ZM35.7393 23.2044V24.0348H34.9089V23.2044H35.7393ZM35.7393 24.0348V24.8653H34.9089V24.0348H35.7393ZM35.7393 24.8653V25.6957H34.9089V24.8653H35.7393ZM35.7393 25.6957V26.5261H34.9089V25.6957H35.7393ZM35.7393 26.5261V27.3566H34.9089V26.5261H35.7393ZM36.5697 25.6957V26.5261H35.7393V25.6957H36.5697ZM36.5697 24.8653V25.6957H35.7393V24.8653H36.5697ZM43.2131 21.5436V22.374H42.3827V21.5436H43.2131ZM43.2131 18.2218V19.0523H42.3827V18.2218H43.2131ZM43.2131 19.0523V19.8827H42.3827V19.0523H43.2131ZM44.0436 19.0523V19.8827H43.2131V19.0523H44.0436ZM44.874 19.8827V20.7131H44.0436V19.8827H44.874ZM44.0436 20.7131V21.5436H43.2131V20.7131H44.0436ZM44.0436 19.8827V20.7131H43.2131V19.8827H44.0436ZM43.2131 19.8827V20.7131H42.3827V19.8827H43.2131ZM42.3827 19.8827V20.7131H41.5523V19.8827H42.3827ZM42.3827 20.7131V21.5436H41.5523V20.7131H42.3827ZM43.2131 20.7131V21.5436H42.3827V20.7131H43.2131ZM42.3827 21.5436V22.374H41.5523V21.5436H42.3827ZM41.5523 20.7131V21.5436H40.7219V20.7131H41.5523ZM41.5523 19.8827V20.7131H40.7219V19.8827H41.5523ZM41.5523 19.0523V19.8827H40.7219V19.0523H41.5523ZM41.5523 18.2218V19.0523H40.7219V18.2218H41.5523ZM42.3827 18.2218V19.0523H41.5523V18.2218H42.3827ZM42.3827 19.0523V19.8827H41.5523V19.0523H42.3827ZM40.7219 18.2218V19.0523H39.8914V18.2218H40.7219ZM40.7219 19.0523V19.8827H39.8914V19.0523H40.7219ZM40.7219 19.8827V20.7131H39.8914V19.8827H40.7219ZM40.7219 20.7131V21.5436H39.8914V20.7131H40.7219ZM39.8914 18.2218V19.0523H39.061V18.2218H39.8914ZM39.8914 19.0523V19.8827H39.061V19.0523H39.8914ZM39.061 19.0523V19.8827H38.2306V19.0523H39.061ZM39.061 19.8827V20.7131H38.2306V19.8827H39.061ZM38.2306 19.8827V20.7131H37.4001V19.8827H38.2306ZM38.2306 20.7131V21.5436H37.4001V20.7131H38.2306ZM39.061 20.7131V21.5436H38.2306V20.7131H39.061ZM39.8914 20.7131V21.5436H39.061V20.7131H39.8914ZM39.8914 19.8827V20.7131H39.061V19.8827H39.8914ZM38.2306 21.5436V22.374H37.4001V21.5436H38.2306ZM39.061 18.2218V19.0523H38.2306V18.2218H39.061ZM38.2306 19.0523V19.8827H37.4001V19.0523H38.2306ZM41.5523 21.5436V22.374H40.7219V21.5436H41.5523ZM42.3827 22.374V23.2044H41.5523V22.374H42.3827ZM55.6826 23.2044V24.0348H54.8521V23.2044H55.6826ZM56.513 23.2044V24.0348H55.6826V23.2044H56.513ZM57.3434 23.2044V24.0348H56.513V23.2044H57.3434ZM58.1739 23.2044V24.0348H57.3434V23.2044H58.1739ZM59.0043 23.2044V24.0348H58.1739V23.2044H59.0043ZM59.0043 22.374V23.2044H58.1739V22.374H59.0043ZM59.0043 21.5436V22.374H58.1739V21.5436H59.0043ZM58.1739 21.5436V22.374H57.3434V21.5436H58.1739ZM57.3434 21.5436V22.374H56.513V21.5436H57.3434ZM56.513 21.5436V22.374H55.6826V21.5436H56.513ZM56.513 22.374V23.2044H55.6826V22.374H56.513ZM55.6826 22.374V23.2044H54.8521V22.374H55.6826ZM57.3434 22.374V23.2044H56.513V22.374H57.3434ZM58.1739 22.374V23.2044H57.3434V22.374H58.1739ZM55.6826 21.5436V22.374H54.8521V21.5436H55.6826ZM54.8521 21.5436V22.374H54.0217V21.5436H54.8521ZM54.8521 20.7131V21.5436H54.0217V20.7131H54.8521ZM55.6826 20.7131V21.5436H54.8521V20.7131H55.6826ZM56.513 20.7131V21.5436H55.6826V20.7131H56.513ZM57.3434 20.7131V21.5436H56.513V20.7131H57.3434ZM58.1739 20.7131V21.5436H57.3434V20.7131H58.1739ZM58.1739 19.8827V20.7131H57.3434V19.8827H58.1739ZM57.3434 19.8827V20.7131H56.513V19.8827H57.3434ZM56.513 19.8827V20.7131H55.6826V19.8827H56.513ZM55.6826 19.8827V20.7131H54.8521V19.8827H55.6826ZM54.8521 19.8827V20.7131H54.0217V19.8827H54.8521ZM56.513 19.0523V19.8827H55.6826V19.0523H56.513ZM57.3434 19.0523V19.8827H56.513V19.0523H57.3434ZM55.6826 19.0523V19.8827H54.8521V19.0523H55.6826ZM55.6826 18.2218V19.0523H54.8521V18.2218H55.6826ZM54.8521 18.2218V19.0523H54.0217V18.2218H54.8521ZM54.8521 19.0523V19.8827H54.0217V19.0523H54.8521ZM54.0217 19.0523V19.8827H53.1913V19.0523H54.0217ZM54.0217 18.2218V19.0523H53.1913V18.2218H54.0217ZM54.0217 19.8827V20.7131H53.1913V19.8827H54.0217ZM53.1913 19.8827V20.7131H52.3608V19.8827H53.1913ZM53.1913 20.7131V21.5436H52.3608V20.7131H53.1913ZM54.0217 20.7131V21.5436H53.1913V20.7131H54.0217ZM52.3608 20.7131V21.5436H51.5304V20.7131H52.3608ZM52.3608 19.8827V20.7131H51.5304V19.8827H52.3608ZM52.3608 19.0523V19.8827H51.5304V19.0523H52.3608ZM52.3608 18.2218V19.0523H51.5304V18.2218H52.3608ZM53.1913 18.2218V19.0523H52.3608V18.2218H53.1913ZM53.1913 19.0523V19.8827H52.3608V19.0523H53.1913ZM51.5304 18.2218V19.0523H50.7V18.2218H51.5304ZM50.7 18.2218V19.0523H49.8696V18.2218H50.7ZM49.8696 18.2218V19.0523H49.0391V18.2218H49.8696ZM49.8696 19.0523V19.8827H49.0391V19.0523H49.8696ZM49.8696 19.8827V20.7131H49.0391V19.8827H49.8696ZM49.8696 20.7131V21.5436H49.0391V20.7131H49.8696ZM50.7 20.7131V21.5436H49.8696V20.7131H50.7ZM51.5304 20.7131V21.5436H50.7V20.7131H51.5304ZM51.5304 19.8827V20.7131H50.7V19.8827H51.5304ZM51.5304 19.0523V19.8827H50.7V19.0523H51.5304ZM50.7 19.0523V19.8827H49.8696V19.0523H50.7ZM50.7 19.8827V20.7131H49.8696V19.8827H50.7ZM49.0391 19.8827V20.7131H48.2087V19.8827H49.0391ZM49.0391 19.0523V19.8827H48.2087V19.0523H49.0391ZM48.2087 19.0523V19.8827H47.3783V19.0523H48.2087ZM48.2087 19.8827V20.7131H47.3783V19.8827H48.2087ZM47.3783 19.8827V20.7131H46.5478V19.8827H47.3783ZM47.3783 20.7131V21.5436H46.5478V20.7131H47.3783ZM47.3783 21.5436V22.374H46.5478V21.5436H47.3783ZM48.2087 21.5436V22.374H47.3783V21.5436H48.2087ZM48.2087 20.7131V21.5436H47.3783V20.7131H48.2087ZM49.0391 20.7131V21.5436H48.2087V20.7131H49.0391ZM49.0391 21.5436V22.374H48.2087V21.5436H49.0391ZM49.8696 21.5436V22.374H49.0391V21.5436H49.8696ZM50.7 21.5436V22.374H49.8696V21.5436H50.7ZM46.5478 21.5436V22.374H45.7174V21.5436H46.5478ZM46.5478 22.374V23.2044H45.7174V22.374H46.5478ZM46.5478 23.2044V24.0348H45.7174V23.2044H46.5478ZM46.5478 24.0348V24.8653H45.7174V24.0348H46.5478ZM46.5478 24.8653V25.6957H45.7174V24.8653H46.5478ZM46.5478 25.6957V26.5261H45.7174V25.6957H46.5478ZM46.5478 26.5261V27.3566H45.7174V26.5261H46.5478ZM46.5478 27.3566V28.187H45.7174V27.3566H46.5478ZM46.5478 28.187V29.0174H45.7174V28.187H46.5478ZM46.5478 29.0174V29.8479H45.7174V29.0174H46.5478ZM47.3783 29.0174V29.8479H46.5478V29.0174H47.3783ZM47.3783 29.8479V30.6783H46.5478V29.8479H47.3783ZM46.5478 29.8479V30.6783H45.7174V29.8479H46.5478ZM48.2087 29.8479V30.6783H47.3783V29.8479H48.2087ZM49.0391 29.8479V30.6783H48.2087V29.8479H49.0391ZM49.8696 29.8479V30.6783H49.0391V29.8479H49.8696ZM50.7 29.8479V30.6783H49.8696V29.8479H50.7ZM49.8696 29.0174V29.8479H49.0391V29.0174H49.8696ZM49.8696 28.187V29.0174H49.0391V28.187H49.8696ZM49.8696 27.3566V28.187H49.0391V27.3566H49.8696ZM49.8696 26.5261V27.3566H49.0391V26.5261H49.8696ZM49.8696 25.6957V26.5261H49.0391V25.6957H49.8696ZM49.8696 24.8653V25.6957H49.0391V24.8653H49.8696ZM49.8696 24.0348V24.8653H49.0391V24.0348H49.8696ZM49.8696 23.2044V24.0348H49.0391V23.2044H49.8696ZM49.8696 22.374V23.2044H49.0391V22.374H49.8696ZM49.0391 22.374V23.2044H48.2087V22.374H49.0391ZM48.2087 22.374V23.2044H47.3783V22.374H48.2087ZM47.3783 22.374V23.2044H46.5478V22.374H47.3783ZM47.3783 23.2044V24.0348H46.5478V23.2044H47.3783ZM47.3783 24.0348V24.8653H46.5478V24.0348H47.3783ZM47.3783 24.8653V25.6957H46.5478V24.8653H47.3783ZM47.3783 25.6957V26.5261H46.5478V25.6957H47.3783ZM47.3783 26.5261V27.3566H46.5478V26.5261H47.3783ZM47.3783 27.3566V28.187H46.5478V27.3566H47.3783ZM47.3783 28.187V29.0174H46.5478V28.187H47.3783ZM48.2087 29.0174V29.8479H47.3783V29.0174H48.2087ZM49.0391 29.0174V29.8479H48.2087V29.0174H49.0391ZM49.0391 28.187V29.0174H48.2087V28.187H49.0391ZM49.0391 27.3566V28.187H48.2087V27.3566H49.0391ZM49.0391 26.5261V27.3566H48.2087V26.5261H49.0391ZM49.0391 25.6957V26.5261H48.2087V25.6957H49.0391ZM48.2087 25.6957V26.5261H47.3783V25.6957H48.2087ZM48.2087 24.8653V25.6957H47.3783V24.8653H48.2087ZM48.2087 24.0348V24.8653H47.3783V24.0348H48.2087ZM48.2087 23.2044V24.0348H47.3783V23.2044H48.2087ZM49.0391 23.2044V24.0348H48.2087V23.2044H49.0391ZM49.0391 24.0348V24.8653H48.2087V24.0348H49.0391ZM49.0391 24.8653V25.6957H48.2087V24.8653H49.0391ZM48.2087 27.3566V28.187H47.3783V27.3566H48.2087ZM48.2087 28.187V29.0174H47.3783V28.187H48.2087ZM48.2087 26.5261V27.3566H47.3783V26.5261H48.2087ZM55.6826 28.187V29.0174H54.8521V28.187H55.6826ZM55.6826 29.0174V29.8479H54.8521V29.0174H55.6826ZM56.513 29.0174V29.8479H55.6826V29.0174H56.513ZM57.3434 29.0174V29.8479H56.513V29.0174H57.3434ZM58.1739 29.0174V29.8479H57.3434V29.0174H58.1739ZM59.0043 29.0174V29.8479H58.1739V29.0174H59.0043ZM59.0043 28.187V29.0174H58.1739V28.187H59.0043ZM58.1739 28.187V29.0174H57.3434V28.187H58.1739ZM57.3434 28.187V29.0174H56.513V28.187H57.3434ZM56.513 28.187V29.0174H55.6826V28.187H56.513ZM59.0043 29.8479V30.6783H58.1739V29.8479H59.0043ZM58.1739 29.8479V30.6783H57.3434V29.8479H58.1739ZM57.3434 29.8479V30.6783H56.513V29.8479H57.3434ZM56.513 29.8479V30.6783H55.6826V29.8479H56.513ZM55.6826 29.8479V30.6783H54.8521V29.8479H55.6826ZM54.8521 29.8479V30.6783H54.0217V29.8479H54.8521ZM54.8521 30.6783V31.5087H54.0217V30.6783H54.8521ZM55.6826 30.6783V31.5087H54.8521V30.6783H55.6826ZM56.513 30.6783V31.5087H55.6826V30.6783H56.513ZM57.3434 30.6783V31.5087H56.513V30.6783H57.3434ZM57.3434 31.5087V32.3391H56.513V31.5087H57.3434ZM58.1739 31.5087V32.3391H57.3434V31.5087H58.1739ZM58.1739 30.6783V31.5087H57.3434V30.6783H58.1739ZM57.3434 32.3391V33.1696H56.513V32.3391H57.3434ZM56.513 32.3391V33.1696H55.6826V32.3391H56.513ZM56.513 31.5087V32.3391H55.6826V31.5087H56.513ZM55.6826 31.5087V32.3391H54.8521V31.5087H55.6826ZM55.6826 32.3391V33.1696H54.8521V32.3391H55.6826ZM55.6826 33.1696V34H54.8521V33.1696H55.6826ZM54.8521 33.1696V34H54.0217V33.1696H54.8521ZM54.0217 33.1696V34H53.1913V33.1696H54.0217ZM53.1913 33.1696V34H52.3608V33.1696H53.1913ZM52.3608 33.1696V34H51.5304V33.1696H52.3608ZM51.5304 33.1696V34H50.7V33.1696H51.5304ZM50.7 33.1696V34H49.8696V33.1696H50.7ZM49.8696 33.1696V34H49.0391V33.1696H49.8696ZM50.7 32.3391V33.1696H49.8696V32.3391H50.7ZM51.5304 32.3391V33.1696H50.7V32.3391H51.5304ZM52.3608 32.3391V33.1696H51.5304V32.3391H52.3608ZM53.1913 32.3391V33.1696H52.3608V32.3391H53.1913ZM54.0217 32.3391V33.1696H53.1913V32.3391H54.0217ZM54.8521 32.3391V33.1696H54.0217V32.3391H54.8521ZM54.8521 31.5087V32.3391H54.0217V31.5087H54.8521ZM54.0217 31.5087V32.3391H53.1913V31.5087H54.0217ZM53.1913 31.5087V32.3391H52.3608V31.5087H53.1913ZM52.3608 31.5087V32.3391H51.5304V31.5087H52.3608ZM51.5304 31.5087V32.3391H50.7V31.5087H51.5304ZM50.7 31.5087V32.3391H49.8696V31.5087H50.7ZM49.8696 32.3391V33.1696H49.0391V32.3391H49.8696ZM49.0391 32.3391V33.1696H48.2087V32.3391H49.0391ZM48.2087 32.3391V33.1696H47.3783V32.3391H48.2087ZM48.2087 31.5087V32.3391H47.3783V31.5087H48.2087ZM47.3783 31.5087V32.3391H46.5478V31.5087H47.3783ZM47.3783 30.6783V31.5087H46.5478V30.6783H47.3783ZM48.2087 30.6783V31.5087H47.3783V30.6783H48.2087ZM49.0391 30.6783V31.5087H48.2087V30.6783H49.0391ZM49.8696 30.6783V31.5087H49.0391V30.6783H49.8696ZM50.7 30.6783V31.5087H49.8696V30.6783H50.7ZM51.5304 30.6783V31.5087H50.7V30.6783H51.5304ZM52.3608 30.6783V31.5087H51.5304V30.6783H52.3608ZM53.1913 30.6783V31.5087H52.3608V30.6783H53.1913ZM54.0217 30.6783V31.5087H53.1913V30.6783H54.0217ZM49.8696 31.5087V32.3391H49.0391V31.5087H49.8696ZM49.0391 31.5087V32.3391H48.2087V31.5087H49.0391ZM55.6826 24.0348V24.8653H54.8521V24.0348H55.6826ZM55.6826 24.8653V25.6957H54.8521V24.8653H55.6826ZM56.513 24.8653V25.6957H55.6826V24.8653H56.513ZM57.3434 24.8653V25.6957H56.513V24.8653H57.3434ZM58.1739 24.8653V25.6957H57.3434V24.8653H58.1739ZM59.0043 24.8653V25.6957H58.1739V24.8653H59.0043ZM59.0043 24.0348V24.8653H58.1739V24.0348H59.0043ZM58.1739 24.0348V24.8653H57.3434V24.0348H58.1739ZM57.3434 24.0348V24.8653H56.513V24.0348H57.3434ZM56.513 24.0348V24.8653H55.6826V24.0348H56.513ZM56.513 25.6957V26.5261H55.6826V25.6957H56.513ZM57.3434 25.6957V26.5261H56.513V25.6957H57.3434ZM57.3434 26.5261V27.3566H56.513V26.5261H57.3434ZM58.1739 26.5261V27.3566H57.3434V26.5261H58.1739ZM58.1739 25.6957V26.5261H57.3434V25.6957H58.1739ZM59.0043 25.6957V26.5261H58.1739V25.6957H59.0043ZM59.0043 26.5261V27.3566H58.1739V26.5261H59.0043ZM59.0043 27.3566V28.187H58.1739V27.3566H59.0043ZM58.1739 27.3566V28.187H57.3434V27.3566H58.1739ZM57.3434 27.3566V28.187H56.513V27.3566H57.3434ZM56.513 27.3566V28.187H55.6826V27.3566H56.513ZM56.513 26.5261V27.3566H55.6826V26.5261H56.513ZM55.6826 26.5261V27.3566H54.8521V26.5261H55.6826ZM55.6826 25.6957V26.5261H54.8521V25.6957H55.6826ZM55.6826 27.3566V28.187H54.8521V27.3566H55.6826ZM62.3406 20.7131V21.5436H61.5102V20.7131H62.3406ZM63.171 20.7131V21.5436H62.3406V20.7131H63.171ZM64.0015 20.7131V21.5436H63.171V20.7131H64.0015ZM64.8319 20.7131V21.5436H64.0015V20.7131H64.8319ZM65.6623 20.7131V21.5436H64.8319V20.7131H65.6623ZM66.4927 20.7131V21.5436H65.6623V20.7131H66.4927ZM67.3232 20.7131V21.5436H66.4927V20.7131H67.3232ZM68.1536 20.7131V21.5436H67.3232V20.7131H68.1536ZM68.984 20.7131V21.5436H68.1536V20.7131H68.984ZM69.8145 20.7131V21.5436H68.984V20.7131H69.8145ZM70.6449 20.7131V21.5436H69.8145V20.7131H70.6449ZM67.3232 23.2044V24.0348H66.4927V23.2044H67.3232ZM66.4927 23.2044V24.0348H65.6623V23.2044H66.4927ZM65.6623 23.2044V24.0348H64.8319V23.2044H65.6623ZM64.8319 23.2044V24.0348H64.0015V23.2044H64.8319ZM64.8319 22.374V23.2044H64.0015V22.374H64.8319ZM64.0015 22.374V23.2044H63.171V22.374H64.0015ZM64.0015 23.2044V24.0348H63.171V23.2044H64.0015ZM64.0015 21.5436V22.374H63.171V21.5436H64.0015ZM64.8319 21.5436V22.374H64.0015V21.5436H64.8319ZM65.6623 21.5436V22.374H64.8319V21.5436H65.6623ZM66.4927 21.5436V22.374H65.6623V21.5436H66.4927ZM67.3232 21.5436V22.374H66.4927V21.5436H67.3232ZM67.3232 22.374V23.2044H66.4927V22.374H67.3232ZM66.4927 22.374V23.2044H65.6623V22.374H66.4927ZM65.6623 22.374V23.2044H64.8319V22.374H65.6623ZM70.6449 13.2393V14.0697H69.8145V13.2393H70.6449ZM70.6449 14.0697V14.9001H69.8145V14.0697H70.6449ZM70.6449 14.9001V15.7306H69.8145V14.9001H70.6449ZM70.6449 15.7306V16.561H69.8145V15.7306H70.6449ZM69.8145 15.7306V16.561H68.984V15.7306H69.8145ZM68.984 15.7306V16.561H68.1536V15.7306H68.984ZM68.1536 15.7306V16.561H67.3232V15.7306H68.1536ZM68.1536 16.561V17.3914H67.3232V16.561H68.1536ZM67.3232 16.561V17.3914H66.4927V16.561H67.3232ZM66.4927 16.561V17.3914H65.6623V16.561H66.4927ZM65.6623 16.561V17.3914H64.8319V16.561H65.6623ZM65.6623 15.7306V16.561H64.8319V15.7306H65.6623ZM64.8319 15.7306V16.561H64.0015V15.7306H64.8319ZM64.8319 14.9001V15.7306H64.0015V14.9001H64.8319ZM65.6623 14.9001V15.7306H64.8319V14.9001H65.6623ZM66.4927 14.9001V15.7306H65.6623V14.9001H66.4927ZM66.4927 14.0697V14.9001H65.6623V14.0697H66.4927ZM65.6623 14.0697V14.9001H64.8319V14.0697H65.6623ZM67.3232 14.0697V14.9001H66.4927V14.0697H67.3232ZM68.1536 14.0697V14.9001H67.3232V14.0697H68.1536ZM68.1536 13.2393V14.0697H67.3232V13.2393H68.1536ZM67.3232 13.2393V14.0697H66.4927V13.2393H67.3232ZM68.984 13.2393V14.0697H68.1536V13.2393H68.984ZM69.8145 13.2393V14.0697H68.984V13.2393H69.8145ZM69.8145 14.0697V14.9001H68.984V14.0697H69.8145ZM69.8145 14.9001V15.7306H68.984V14.9001H69.8145ZM68.984 14.9001V15.7306H68.1536V14.9001H68.984ZM68.984 14.0697V14.9001H68.1536V14.0697H68.984ZM68.1536 14.9001V15.7306H67.3232V14.9001H68.1536ZM67.3232 14.9001V15.7306H66.4927V14.9001H67.3232ZM66.4927 15.7306V16.561H65.6623V15.7306H66.4927ZM67.3232 15.7306V16.561H66.4927V15.7306H67.3232ZM64.0015 16.561V17.3914H63.171V16.561H64.0015ZM64.8319 16.561V17.3914H64.0015V16.561H64.8319ZM64.8319 17.3914V18.2218H64.0015V17.3914H64.8319ZM64.0015 17.3914V18.2218H63.171V17.3914H64.0015ZM64.0015 18.2218V19.0523H63.171V18.2218H64.0015ZM64.0015 19.0523V19.8827H63.171V19.0523H64.0015ZM64.0015 19.8827V20.7131H63.171V19.8827H64.0015ZM64.8319 19.8827V20.7131H64.0015V19.8827H64.8319ZM65.6623 19.8827V20.7131H64.8319V19.8827H65.6623ZM64.8319 19.0523V19.8827H64.0015V19.0523H64.8319ZM64.8319 18.2218V19.0523H64.0015V18.2218H64.8319ZM65.6623 17.3914V18.2218H64.8319V17.3914H65.6623ZM66.4927 17.3914V18.2218H65.6623V17.3914H66.4927ZM66.4927 18.2218V19.0523H65.6623V18.2218H66.4927ZM66.4927 19.0523V19.8827H65.6623V19.0523H66.4927ZM66.4927 19.8827V20.7131H65.6623V19.8827H66.4927ZM67.3232 18.2218V19.0523H66.4927V18.2218H67.3232ZM67.3232 17.3914V18.2218H66.4927V17.3914H67.3232ZM67.3232 19.0523V19.8827H66.4927V19.0523H67.3232ZM67.3232 19.8827V20.7131H66.4927V19.8827H67.3232ZM65.6623 19.0523V19.8827H64.8319V19.0523H65.6623ZM65.6623 18.2218V19.0523H64.8319V18.2218H65.6623ZM64.0015 24.0348V24.8653H63.171V24.0348H64.0015ZM64.8319 24.0348V24.8653H64.0015V24.0348H64.8319ZM65.6623 24.0348V24.8653H64.8319V24.0348H65.6623ZM66.4927 24.0348V24.8653H65.6623V24.0348H66.4927ZM67.3232 24.0348V24.8653H66.4927V24.0348H67.3232ZM67.3232 24.8653V25.6957H66.4927V24.8653H67.3232ZM65.6623 24.8653V25.6957H64.8319V24.8653H65.6623ZM64.8319 24.8653V25.6957H64.0015V24.8653H64.8319ZM64.0015 24.8653V25.6957H63.171V24.8653H64.0015ZM66.4927 24.8653V25.6957H65.6623V24.8653H66.4927ZM64.0015 33.1696V34H63.171V33.1696H64.0015ZM64.0015 32.3391V33.1696H63.171V32.3391H64.0015ZM64.0015 31.5087V32.3391H63.171V31.5087H64.0015ZM64.0015 30.6783V31.5087H63.171V30.6783H64.0015ZM64.0015 29.8479V30.6783H63.171V29.8479H64.0015ZM64.0015 29.0174V29.8479H63.171V29.0174H64.0015ZM64.0015 28.187V29.0174H63.171V28.187H64.0015ZM64.8319 28.187V29.0174H64.0015V28.187H64.8319ZM64.8319 27.3566V28.187H64.0015V27.3566H64.8319ZM64.8319 26.5261V27.3566H64.0015V26.5261H64.8319ZM64.8319 25.6957V26.5261H64.0015V25.6957H64.8319ZM64.0015 26.5261V27.3566H63.171V26.5261H64.0015ZM64.0015 27.3566V28.187H63.171V27.3566H64.0015ZM64.0015 25.6957V26.5261H63.171V25.6957H64.0015ZM67.3232 25.6957V26.5261H66.4927V25.6957H67.3232ZM67.3232 26.5261V27.3566H66.4927V26.5261H67.3232ZM67.3232 27.3566V28.187H66.4927V27.3566H67.3232ZM67.3232 28.187V29.0174H66.4927V28.187H67.3232ZM67.3232 29.0174V29.8479H66.4927V29.0174H67.3232ZM67.3232 29.8479V30.6783H66.4927V29.8479H67.3232ZM67.3232 30.6783V31.5087H66.4927V30.6783H67.3232ZM67.3232 31.5087V32.3391H66.4927V31.5087H67.3232ZM67.3232 32.3391V33.1696H66.4927V32.3391H67.3232ZM67.3232 33.1696V34H66.4927V33.1696H67.3232ZM66.4927 33.1696V34H65.6623V33.1696H66.4927ZM65.6623 33.1696V34H64.8319V33.1696H65.6623ZM64.8319 33.1696V34H64.0015V33.1696H64.8319ZM64.8319 32.3391V33.1696H64.0015V32.3391H64.8319ZM65.6623 32.3391V33.1696H64.8319V32.3391H65.6623ZM66.4927 32.3391V33.1696H65.6623V32.3391H66.4927ZM66.4927 31.5087V32.3391H65.6623V31.5087H66.4927ZM65.6623 31.5087V32.3391H64.8319V31.5087H65.6623ZM64.8319 31.5087V32.3391H64.0015V31.5087H64.8319ZM65.6623 30.6783V31.5087H64.8319V30.6783H65.6623ZM66.4927 30.6783V31.5087H65.6623V30.6783H66.4927ZM64.8319 30.6783V31.5087H64.0015V30.6783H64.8319ZM64.8319 29.8479V30.6783H64.0015V29.8479H64.8319ZM64.8319 29.0174V29.8479H64.0015V29.0174H64.8319ZM65.6623 29.0174V29.8479H64.8319V29.0174H65.6623ZM65.6623 29.8479V30.6783H64.8319V29.8479H65.6623ZM66.4927 29.8479V30.6783H65.6623V29.8479H66.4927ZM66.4927 28.187V29.0174H65.6623V28.187H66.4927ZM66.4927 27.3566V28.187H65.6623V27.3566H66.4927ZM66.4927 26.5261V27.3566H65.6623V26.5261H66.4927ZM66.4927 25.6957V26.5261H65.6623V25.6957H66.4927ZM65.6623 25.6957V26.5261H64.8319V25.6957H65.6623ZM65.6623 26.5261V27.3566H64.8319V26.5261H65.6623ZM65.6623 27.3566V28.187H64.8319V27.3566H65.6623ZM65.6623 28.187V29.0174H64.8319V28.187H65.6623ZM66.4927 29.0174V29.8479H65.6623V29.0174H66.4927ZM68.1536 19.0523V19.8827H67.3232V19.0523H68.1536ZM68.984 19.0523V19.8827H68.1536V19.0523H68.984ZM69.8145 19.0523V19.8827H68.984V19.0523H69.8145ZM70.6449 19.0523V19.8827H69.8145V19.0523H70.6449ZM70.6449 19.8827V20.7131H69.8145V19.8827H70.6449ZM69.8145 19.8827V20.7131H68.984V19.8827H69.8145ZM68.984 19.8827V20.7131H68.1536V19.8827H68.984ZM68.1536 19.8827V20.7131H67.3232V19.8827H68.1536ZM62.3406 19.0523V19.8827H61.5102V19.0523H62.3406ZM63.171 19.0523V19.8827H62.3406V19.0523H63.171ZM63.171 19.8827V20.7131H62.3406V19.8827H63.171ZM62.3406 19.8827V20.7131H61.5102V19.8827H62.3406ZM70.6449 21.5436V22.374H69.8145V21.5436H70.6449ZM69.8145 21.5436V22.374H68.984V21.5436H69.8145ZM68.984 21.5436V22.374H68.1536V21.5436H68.984ZM68.1536 21.5436V22.374H67.3232V21.5436H68.1536ZM63.171 21.5436V22.374H62.3406V21.5436H63.171ZM62.3406 21.5436V22.374H61.5102V21.5436H62.3406Z" fill="black"/>
</svg>
