<svg width="41" height="41" viewBox="0 0 41 41" fill="none" xmlns="http://www.w3.org/2000/svg">
<path d="M40.8291 20.2656L39.3929 1.60714L20.7344 0.170898L0.639648 20.2656L20.7344 40.3604L40.8291 20.2656ZM26.1896 8.49646C26.814 7.87186 27.6096 7.44647 28.4758 7.27408C29.342 7.10169 30.2399 7.19004 31.0559 7.52797C31.8719 7.8659 32.5693 8.43822 33.0601 9.17256C33.5508 9.90689 33.8127 10.7703 33.8127 11.6534C33.8127 12.5366 33.5508 13.4 33.0601 14.1343C32.5693 14.8687 31.8719 15.441 31.0559 15.7789C30.2399 16.1169 29.342 16.2052 28.4758 16.0328C27.6096 15.8604 26.814 15.435 26.1896 14.8104C25.7746 14.3961 25.4453 13.904 25.2207 13.3623C24.996 12.8206 24.8804 12.2399 24.8804 11.6534C24.8804 11.067 24.996 10.4863 25.2207 9.94461C25.4453 9.4029 25.7746 8.9108 26.1896 8.49646Z" fill="#2A2D30"/>
</svg>
