<svg width="37" height="42" viewBox="0 0 37 42" fill="none" xmlns="http://www.w3.org/2000/svg">
<path d="M7.16785 0.277832H4.09592C1.84316 0.277832 0 2.12099 0 4.37375V28.9032C0 31.1559 1.84316 32.9991 4.09592 32.9991H7.16785V0.277832Z" fill="#2A2D30"/>
<path d="M35.0486 18.1913L24.5754 7.71909V4.37375C24.5754 2.12099 22.7322 0.277832 20.4794 0.277832H13.3116V32.9991H20.4794C22.7322 32.9991 24.5754 31.1559 24.5754 28.9032V25.1021L26.7462 27.273L29.643 24.3772L24.8682 19.6024L18.4161 13.1503C18.0291 12.7632 17.8171 12.2451 17.8181 11.6921C17.8191 11.1453 18.0301 10.6344 18.4161 10.2504C19.1882 9.47726 20.545 9.47931 21.316 10.2504L25.5993 14.5347L32.1692 21.1045L32.0955 21.082L32.2071 21.1557C32.3412 21.3575 32.7672 22.1265 32.7672 23.7833V37.095H16.3835C14.4226 37.095 12.6921 35.4228 12.3562 33.2049L12.3327 33.0452H8.19067L8.30741 33.8172C8.9433 38.0207 12.4156 41.1909 16.3846 41.1909H36.8641V23.7833C36.8631 20.228 35.4869 18.6142 35.0486 18.1913Z" fill="#2A2D30"/>
</svg>
