<svg width="80" height="80" viewBox="0 0 80 80" fill="none" xmlns="http://www.w3.org/2000/svg">
<g clip-path="url(#clip0_1823_10553)">
<path d="M0 40C0 17.9086 17.9086 0 40 0C62.0914 0 80 17.9086 80 40C80 62.0914 62.0914 80 40 80C17.9086 80 0 62.0914 0 40Z" fill="#6981F1"/>
<path d="M50.2862 46.4023H30.4084V48.9593H50.2862V46.4023Z" fill="#F7F7F7"/>
<path d="M40.3473 19.7227C34.0105 25.6814 30.4084 34.0415 30.4084 42.7351V44.9807H50.2862V42.7351C50.2862 34.0193 46.6842 25.6814 40.3473 19.7227ZM44.1939 32.2183C44.1939 34.3305 42.4819 36.0648 40.3473 36.0648C38.235 36.0648 36.5007 34.3528 36.5007 32.2183C36.5007 30.106 38.2128 28.3718 40.3473 28.3718C42.4819 28.3718 44.1939 30.106 44.1939 32.2183Z" fill="#F7F7F7"/>
<path d="M46.8175 50.3848H33.877V54.298H46.8175V50.3848Z" fill="#F7F7F7"/>
<path d="M57.1565 44.979L51.4199 38.4199C51.62 39.8429 51.709 41.2881 51.709 42.7334V44.979H57.1565Z" fill="#F7F7F7"/>
<path d="M28.9855 44.9772V42.7316C28.9855 41.3086 29.0744 39.9078 29.2523 38.5293L23.627 44.9772H28.9855Z" fill="#F7F7F7"/>
<path d="M40.3918 65.4351C43.0155 62.8782 44.5274 59.3874 44.5719 55.7188H36.2117C36.2561 59.3874 37.7681 62.8782 40.3918 65.4351Z" fill="#F7F7F7"/>
<path d="M35.4334 67.9902C35.0332 67.9902 34.7219 68.3015 34.7219 68.7017V76.795C34.7219 77.1952 35.0332 77.5065 35.4334 77.5065C35.8337 77.5065 36.1449 77.1952 36.1449 76.795V68.7017C36.1449 68.3015 35.8337 67.9902 35.4334 67.9902Z" fill="#F7F7F7"/>
<path d="M40.3919 70.4844C39.9917 70.4844 39.6804 70.7957 39.6804 71.1959V79.2891C39.6804 79.6893 39.9917 80.0006 40.3919 80.0006C40.7922 80.0006 41.1034 79.6893 41.1034 79.2891V71.1959C41.1034 70.7957 40.7922 70.4844 40.3919 70.4844Z" fill="#F7F7F7"/>
<path d="M45.3499 67.9902C44.9497 67.9902 44.6384 68.3015 44.6384 68.7017V76.795C44.6384 77.1952 44.9497 77.5065 45.3499 77.5065C45.7502 77.5065 46.0614 77.1952 46.0614 76.795V68.7017C46.0614 68.3015 45.7279 67.9902 45.3499 67.9902Z" fill="#F7F7F7"/>
</g>
<defs>
<clipPath id="clip0_1823_10553">
<path d="M0 40C0 17.9086 17.9086 0 40 0C62.0914 0 80 17.9086 80 40C80 62.0914 62.0914 80 40 80C17.9086 80 0 62.0914 0 40Z" fill="white"/>
</clipPath>
</defs>
</svg>
