<svg width="81" height="80" viewBox="0 0 81 80" fill="none" xmlns="http://www.w3.org/2000/svg">
<path d="M0.666504 40C0.666504 17.9086 18.5751 0 40.6665 0C62.7579 0 80.6665 17.9086 80.6665 40C80.6665 62.0914 62.7579 80 40.6665 80C18.5751 80 0.666504 62.0914 0.666504 40Z" fill="#6981F1"/>
<path d="M41.1097 17C51.2198 17 59.4158 25.5951 59.4158 36.1976H58.2787C58.2787 26.2536 50.5919 18.1924 41.1097 18.1924C31.6274 18.1924 23.9406 26.2536 23.9406 36.1976H22.8035C22.8035 25.5951 30.9995 17 41.1097 17Z" fill="white"/>
<path d="M43.2923 23.3314C43.1077 22.9603 42.7076 22.7687 42.3191 22.8694C41.9306 22.9683 41.6594 23.3313 41.6594 23.7508V40.0163C41.6594 40.3511 41.8344 40.6576 42.1191 40.8171C42.7846 41.1902 43.1982 41.9143 43.1982 42.705C43.1982 43.2959 42.9712 43.8466 42.5635 44.2561C42.1557 44.6615 41.621 44.8712 41.0556 44.8411C40.063 44.7886 39.2187 43.9375 39.1302 42.9047C39.0571 42.0414 39.4764 41.2225 40.1996 40.8171C40.4843 40.6578 40.6612 40.3511 40.6612 40.0163V23.755C40.6612 23.3355 40.3881 22.9724 39.9996 22.8736C39.6111 22.7727 39.2111 22.9643 39.0264 23.3375L29.9173 41.737C29.5769 42.4248 29.5327 43.2356 29.7942 43.9598L33.6294 54.5391C33.7564 54.89 34.0814 55.1241 34.4392 55.1241H47.8817C48.2375 55.1241 48.5625 54.8881 48.6894 54.5391L52.5246 43.9598C52.7862 43.2356 52.7419 42.4248 52.4015 41.737L43.2923 23.3314Z" fill="white"/>
<path d="M47.7448 56.3342H34.5736C34.0966 56.3342 33.7081 56.7416 33.7081 57.2418V61.0923C33.7081 61.5926 34.0966 62 34.5736 62H47.7448C48.2218 62 48.6103 61.5926 48.6103 61.0923V57.2418C48.6103 56.7416 48.2218 56.3342 47.7448 56.3342Z" fill="white"/>
<path d="M25.0776 36.1976C25.0776 37.1855 24.314 37.9862 23.372 37.9862C22.4301 37.9862 21.6665 37.1855 21.6665 36.1976C21.6665 35.2098 22.4301 34.409 23.372 34.409C24.314 34.409 25.0776 35.2098 25.0776 36.1976Z" fill="white"/>
<path d="M60.6665 36.1976C60.6665 37.1855 59.9029 37.9862 58.961 37.9862C58.019 37.9862 57.2554 37.1855 57.2554 36.1976C57.2554 35.2098 58.019 34.409 58.961 34.409C59.9029 34.409 60.6665 35.2098 60.6665 36.1976Z" fill="white"/>
</svg>
