<svg width="50" height="65" viewBox="0 0 50 65" fill="none" xmlns="http://www.w3.org/2000/svg">
<path d="M9 36.7222C9 38.1124 10.131 39.2434 11.5212 39.2434H38.4788C39.869 39.2434 41 38.1124 41 36.7222V17.5352H9V36.7222ZM31.1723 25.6227C30.6841 25.1345 30.6841 24.343 31.1723 23.8548C31.6605 23.3667 32.4519 23.3667 32.9401 23.8548L36.875 27.7899C37.3632 28.278 37.3632 29.0695 36.875 29.5576L32.9401 33.4927C32.696 33.7367 32.3761 33.8587 32.0562 33.8587C31.7362 33.8587 31.4164 33.7367 31.1723 33.4927C30.6841 33.0045 30.6841 32.213 31.1723 31.7248L34.2234 28.6738L31.1723 25.6227V25.6227ZM22.0556 34.5008L25.5287 21.465C25.7065 20.7978 26.3914 20.4013 27.0584 20.5789C27.7255 20.7567 28.1222 21.4415 27.9445 22.1087L24.4713 35.1445C24.3223 35.7037 23.8168 36.0729 23.2642 36.0729C23.1578 36.0729 23.0494 36.0592 22.9416 36.0305C22.2746 35.8527 21.8778 35.1679 22.0556 34.5008ZM13.1249 27.7899L17.0599 23.8548C17.5481 23.3668 18.3395 23.3667 18.8276 23.8548C19.3158 24.343 19.3158 25.1345 18.8276 25.6227L15.7766 28.6737L18.8276 31.7248C19.3158 32.213 19.3158 33.0045 18.8276 33.4926C18.5836 33.7366 18.2636 33.8587 17.9438 33.8587C17.6239 33.8587 17.304 33.7367 17.0599 33.4926L13.1249 29.5575C12.6367 29.0694 12.6367 28.2779 13.1249 27.7898V27.7899Z" fill="#F5FAFE"/>
<path d="M38.4781 10.7539H34.1752L31.8516 15.0139H40.9992V13.2751C40.9992 11.8849 39.8682 10.7539 38.478 10.7539H38.4781Z" fill="#F5FAFE"/>
<path d="M31.3041 10.7539H11.5212C10.131 10.7539 9 11.8849 9 13.2751V15.0139H28.9804L31.3041 10.7539Z" fill="#F5FAFE"/>
</svg>
