<svg width="50" height="65" viewBox="0 0 50 65" fill="none" xmlns="http://www.w3.org/2000/svg">
<path fill-rule="evenodd" clip-rule="evenodd" d="M33.0366 34.9722L34.5646 36.5002C35.1226 37.0592 35.8806 37.3732 36.6716 37.3732C37.4616 37.3732 38.2196 37.0592 38.7786 36.5002C39.3376 35.9412 39.6516 35.1832 39.6516 34.3932C39.6516 33.6022 39.3376 32.8442 38.7786 32.2862L37.2506 30.7582C38.7686 28.4502 39.6516 25.6892 39.6516 22.7232C39.6516 14.6372 33.0876 8.07324 25.0016 8.07324C16.9156 8.07324 10.3516 14.6372 10.3516 22.7232C10.3516 30.8092 16.9156 37.3732 25.0016 37.3732C27.9676 37.3732 30.7286 36.4902 33.0366 34.9722ZM25.0016 12.8952C19.5776 12.8952 15.1736 17.2992 15.1736 22.7232C15.1736 28.1472 19.5776 32.5512 25.0016 32.5512C30.4256 32.5512 34.8296 28.1472 34.8296 22.7232C34.8296 17.2992 30.4256 12.8952 25.0016 12.8952ZM30.9906 28.7912C30.0056 28.5692 29.4626 28.0662 28.9726 27.5182C28.6286 27.1332 28.3286 26.7072 27.8256 26.3912C27.2736 26.0452 26.6296 26.0092 26.2546 26.4042C25.9826 26.6902 25.8846 27.1632 25.9856 27.8012C26.1256 28.6882 25.8936 29.5662 25.5476 30.2982C25.3766 30.6592 25.1806 30.9832 24.9966 31.2512H25.0016C27.3346 31.2512 29.4506 30.3122 30.9906 28.7912ZM22.4276 14.5912C20.6546 15.1532 19.1316 16.2792 18.0696 17.7582C18.3346 17.7862 18.6316 17.8372 18.9246 17.9262C19.5256 18.1082 20.0996 18.4482 20.4426 19.0072C20.6786 19.3902 20.8146 19.8792 20.7566 20.5102C20.6896 21.2312 20.5396 21.8412 20.4266 22.3872C20.3236 22.8812 20.2386 23.3082 20.3676 23.7312C20.4976 24.1532 20.8436 24.5482 21.5086 25.0212C22.1416 25.4732 22.4486 25.9822 22.5636 26.4872C22.7296 27.2192 22.4756 27.9792 22.0476 28.6322C21.6166 29.2892 21.0226 29.8302 20.7096 30.0922C21.5476 30.5822 22.4756 30.9322 23.4626 31.1122C23.6016 30.9572 24.0456 30.4352 24.3726 29.7432C24.6136 29.2322 24.7996 28.6232 24.7016 28.0042C24.4686 26.5362 25.0096 25.5982 25.7656 25.1452C26.5306 24.6872 27.5886 24.7072 28.5166 25.2902C29.1336 25.6772 29.5206 26.1802 29.9416 26.6522C30.3776 27.1392 30.8786 27.5602 31.9916 27.6072C32.5406 26.8232 32.9606 25.9442 33.2216 24.9992C30.4856 25.4532 28.5736 23.1562 28.3876 21.0802C28.3516 20.6712 28.2626 20.3862 28.0796 20.1822C27.8826 19.9632 27.5976 19.8382 27.2426 19.7132C26.6126 19.4902 25.7946 19.3042 24.7886 18.9552C23.5516 18.5262 22.9236 17.5502 22.6366 16.5152C22.4486 15.8342 22.4136 15.1332 22.4276 14.5912ZM19.6086 29.3272C19.6406 29.2882 19.6786 29.2522 19.7216 29.2202C19.7216 29.2202 20.4716 28.6632 20.9606 27.9192C21.1916 27.5662 21.3856 27.1712 21.2956 26.7752C21.2396 26.5292 21.0636 26.3012 20.7536 26.0802C19.9206 25.4872 19.4716 24.9392 19.2366 24.4102C18.9856 23.8452 18.9646 23.2852 19.0546 22.6682C19.1486 22.0242 19.3776 21.3022 19.4616 20.3902C19.5316 19.6392 19.0376 19.3192 18.5476 19.1702C18.0296 19.0132 17.4966 19.0182 17.3166 19.0252C16.7766 20.1442 16.4736 21.3992 16.4736 22.7232C16.4736 25.3852 17.6956 27.7632 19.6086 29.3272ZM33.4846 23.6012C33.5146 23.3132 33.5296 23.0202 33.5296 22.7232C33.5296 18.0162 29.7086 14.1952 25.0016 14.1952C24.5736 14.1952 24.1526 14.2272 23.7416 14.2882C23.7056 14.7372 23.6946 15.4662 23.8896 16.1672C24.0706 16.8182 24.4366 17.4572 25.2146 17.7272C26.5026 18.1742 27.4876 18.3652 28.1746 18.6892C29.0546 19.1052 29.5686 19.6852 29.6826 20.9642C29.8226 22.5202 31.3456 24.2632 33.4846 23.6012Z" fill="#F5FAFE"/>
</svg>
