<svg width="50" height="65" viewBox="0 0 50 65" fill="none" xmlns="http://www.w3.org/2000/svg">
<g clip-path="url(#clip0_15281_21382)">
<path d="M16.5625 21.2734C15.431 22.13 14.6875 23.4742 14.6875 24.9994C14.6875 25.3091 14.6875 31.915 14.6875 31.562H16.5625C16.5625 31.2724 16.5625 20.8485 16.5625 21.2734Z" fill="#F5FAFE"/>
<path d="M35.3125 24.9995C35.3125 23.4742 34.569 22.13 33.4375 21.2734C33.4375 21.466 33.4375 31.7546 33.4375 31.562H35.3125C35.3125 30.9704 35.3125 24.7224 35.3125 24.9995Z" fill="#F5FAFE"/>
<path d="M25 22.3115C25.5178 22.3115 25.9375 21.8918 25.9375 21.374C25.9375 20.8563 25.5178 20.4365 25 20.4365C24.4822 20.4365 24.0625 20.8563 24.0625 21.374C24.0625 21.8918 24.4822 22.3115 25 22.3115Z" fill="#F5FAFE"/>
<path d="M25.5174 9.34146L24.9974 8.99902L24.4802 9.34509C22.4077 10.7304 20.814 12.6347 19.7773 14.8117H30.2183C29.0675 12.4135 27.471 10.6305 25.5174 9.34146Z" fill="#F5FAFE"/>
<path d="M18.4375 20.6425V29.6864H20.0496L18.6425 35.3114H16.3898C16.0015 34.2225 14.9706 33.4364 13.75 33.4364C12.1991 33.4364 10.9375 34.698 10.9375 36.2489C10.9375 37.7998 12.1991 39.0614 13.75 39.0614C14.9706 39.0614 16.0015 38.2753 16.3898 37.1864H20.1074L21.9816 29.6864H24.0624V35.5466C22.9736 35.9349 22.1874 36.9658 22.1874 38.1864C22.1874 39.7373 23.4491 40.9989 24.9999 40.9989C26.5508 40.9989 27.8124 39.7373 27.8124 38.1864C27.8124 36.9658 27.0263 35.9349 25.9374 35.5466V29.6864H28.0183L29.8925 37.1864H33.6101C33.9984 38.2753 35.0292 39.0614 36.2499 39.0614C37.8007 39.0614 39.0623 37.7998 39.0623 36.2489C39.0623 34.698 37.8007 33.4364 36.2499 33.4364C35.0292 33.4364 33.9984 34.2225 33.6101 35.3114H31.3573L29.9503 29.6864H31.5624V20.6425C31.5624 19.2937 31.3373 17.9629 30.9476 16.6865H19.0495C18.6633 17.9543 18.4375 19.2798 18.4375 20.6425ZM24.9999 18.5615C26.5508 18.5615 27.8124 19.8231 27.8124 21.374C27.8124 22.9249 26.5508 24.1865 24.9999 24.1865C23.4491 24.1865 22.1874 22.9249 22.1874 21.374C22.1874 19.8231 23.4491 18.5615 24.9999 18.5615Z" fill="#F5FAFE"/>
</g>
<defs>
<clipPath id="clip0_15281_21382">
<rect width="32" height="32" fill="white" transform="translate(9 8.99902)"/>
</clipPath>
</defs>
</svg>
