<svg width="86" height="86" viewBox="0 0 86 86" fill="none" xmlns="http://www.w3.org/2000/svg">
<path d="M25.2528 51.2287C24.0984 51.2287 23.0693 51.0163 22.1654 50.5916C21.267 50.1669 20.5537 49.5816 20.0255 48.8356C19.4974 48.0896 19.2224 47.2347 19.2006 46.271H22.631C22.6691 46.9189 22.9414 47.4444 23.4478 47.8473C23.9541 48.2502 24.5558 48.4517 25.2528 48.4517C25.8082 48.4517 26.2983 48.3292 26.723 48.0842C27.1531 47.8337 27.488 47.4879 27.7276 47.0469C27.9726 46.6004 28.0951 46.0885 28.0951 45.5114C28.0951 44.9233 27.9699 44.406 27.7194 43.9595C27.4744 43.513 27.1341 43.1645 26.6985 42.9141C26.2629 42.6636 25.7646 42.5356 25.2038 42.5302C24.7137 42.5302 24.2373 42.6309 23.7745 42.8324C23.3171 43.0339 22.9604 43.3088 22.7045 43.6573L19.56 43.0938L20.3522 34.2727H30.5781V37.1641H23.2681L22.8352 41.354H22.9332C23.2272 40.9402 23.671 40.5972 24.2645 40.3249C24.858 40.0527 25.5223 39.9165 26.2574 39.9165C27.2648 39.9165 28.1632 40.1534 28.9527 40.6271C29.7423 41.1009 30.3657 41.7515 30.8231 42.5792C31.2805 43.4014 31.5065 44.3488 31.501 45.4215C31.5065 46.5487 31.2451 47.5505 30.7169 48.4272C30.1942 49.2984 29.4618 49.9845 28.5198 50.4854C27.5833 50.9809 26.4943 51.2287 25.2528 51.2287ZM40.5262 51.3675C39.1214 51.3621 37.9126 51.0163 36.8998 50.3303C35.8925 49.6442 35.1166 48.6504 34.572 47.3491C34.033 46.0477 33.7662 44.4822 33.7716 42.6527C33.7716 40.8286 34.0411 39.274 34.5802 37.989C35.1247 36.704 35.9006 35.7266 36.908 35.0568C37.9208 34.3816 39.1268 34.044 40.5262 34.044C41.9256 34.044 43.129 34.3816 44.1363 35.0568C45.1491 35.732 45.9277 36.7121 46.4723 37.9972C47.0168 39.2768 47.2863 40.8286 47.2809 42.6527C47.2809 44.4877 47.0086 46.0559 46.4641 47.3572C45.925 48.6586 45.1518 49.6523 44.1445 50.3384C43.1371 51.0245 41.9311 51.3675 40.5262 51.3675ZM40.5262 48.4354C41.4846 48.4354 42.2496 47.9535 42.8213 46.9897C43.3931 46.0259 43.6762 44.5803 43.6708 42.6527C43.6708 41.384 43.5401 40.3277 43.2787 39.4837C43.0228 38.6397 42.658 38.0053 42.1843 37.5806C41.716 37.1559 41.1633 36.9435 40.5262 36.9435C39.5733 36.9435 38.811 37.42 38.2393 38.3729C37.6676 39.3258 37.379 40.7524 37.3735 42.6527C37.3735 43.9377 37.5015 45.0104 37.7574 45.8707C38.0188 46.7256 38.3863 47.3681 38.86 47.7983C39.3338 48.223 39.8892 48.4354 40.5262 48.4354ZM58.9585 47.8636V46.9815C58.9585 46.3118 59.1001 45.6965 59.3832 45.1357C59.6718 44.5694 60.0883 44.1174 60.6329 43.7798C61.1828 43.4368 61.8526 43.2653 62.6421 43.2653C63.4425 43.2653 64.115 43.4341 64.6595 43.7717C65.2094 44.1093 65.6233 44.5612 65.901 45.1275C66.1841 45.6883 66.3257 46.3063 66.3257 46.9815V47.8636C66.3257 48.5334 66.1841 49.1514 65.901 49.7177C65.6178 50.2785 65.2013 50.7277 64.6513 51.0653C64.1014 51.4084 63.4316 51.5799 62.6421 51.5799C61.8417 51.5799 61.1692 51.4084 60.6247 51.0653C60.0802 50.7277 59.6664 50.2785 59.3832 49.7177C59.1001 49.1514 58.9585 48.5334 58.9585 47.8636ZM61.3353 46.9815V47.8636C61.3353 48.2502 61.4278 48.6151 61.613 48.9581C61.8035 49.3011 62.1466 49.4727 62.6421 49.4727C63.1376 49.4727 63.4752 49.3039 63.6549 48.9663C63.84 48.6287 63.9326 48.2611 63.9326 47.8636V46.9815C63.9326 46.584 63.8455 46.2138 63.6712 45.8707C63.497 45.5277 63.1539 45.3562 62.6421 45.3562C62.152 45.3562 61.8117 45.5277 61.6211 45.8707C61.4306 46.2138 61.3353 46.584 61.3353 46.9815ZM50.3743 38.2912V37.4091C50.3743 36.7339 50.5186 36.1159 50.8072 35.555C51.0958 34.9888 51.5124 34.5368 52.0569 34.1992C52.6068 33.8616 53.2711 33.6928 54.0498 33.6928C54.8556 33.6928 55.5308 33.8616 56.0753 34.1992C56.6198 34.5368 57.0337 34.9888 57.3168 35.555C57.6 36.1159 57.7415 36.7339 57.7415 37.4091V38.2912C57.7415 38.9664 57.5972 39.5844 57.3086 40.1452C57.0255 40.7061 56.6089 41.1553 56.059 41.4929C55.5145 41.825 54.8447 41.9911 54.0498 41.9911C53.2548 41.9911 52.5823 41.8223 52.0324 41.4847C51.4879 41.1417 51.074 40.6925 50.7909 40.1371C50.5132 39.5762 50.3743 38.9609 50.3743 38.2912ZM52.7674 37.4091V38.2912C52.7674 38.6887 52.86 39.0562 53.0451 39.3938C53.2357 39.7314 53.5706 39.9002 54.0498 39.9002C54.5507 39.9002 54.891 39.7314 55.0707 39.3938C55.2558 39.0562 55.3484 38.6887 55.3484 38.2912V37.4091C55.3484 37.0116 55.2613 36.6413 55.087 36.2983C54.9128 35.9553 54.567 35.7837 54.0498 35.7837C53.5651 35.7837 53.2303 35.958 53.0451 36.3065C52.86 36.6549 52.7674 37.0225 52.7674 37.4091ZM51.4525 51L62.9525 34.2727H65.0924L53.5924 51H51.4525Z" fill="#0A0A0A"/>
<path d="M86 43C86 66.7482 66.7482 86 43 86C19.2518 86 0 66.7482 0 43C0 19.2518 19.2518 0 43 0C66.7482 0 86 19.2518 86 43ZM8.6 43C8.6 61.9986 24.0014 77.4 43 77.4C61.9986 77.4 77.4 61.9986 77.4 43C77.4 24.0014 61.9986 8.6 43 8.6C24.0014 8.6 8.6 24.0014 8.6 43Z" fill="#F5F5F5"/>
<path d="M43 0C48.6468 6.73379e-08 54.2384 1.11223 59.4554 3.27318C64.6724 5.43413 69.4127 8.60149 73.4056 12.5944C77.3985 16.5873 80.5659 21.3276 82.7268 26.5446C84.8878 31.7616 86 37.3532 86 43C86 48.6468 84.8878 54.2384 82.7268 59.4554C80.5659 64.6724 77.3985 69.4127 73.4056 73.4056C69.4127 77.3985 64.6724 80.5659 59.4554 82.7268C54.2384 84.8878 48.6468 86 43 86L43 77.4C47.5175 77.4 51.9907 76.5102 56.1643 74.7815C60.3379 73.0527 64.1301 70.5188 67.3245 67.3245C70.5188 64.1301 73.0527 60.3379 74.7815 56.1643C76.5102 51.9907 77.4 47.5175 77.4 43C77.4 38.4825 76.5102 34.0093 74.7815 29.8357C73.0527 25.6621 70.5188 21.8699 67.3245 18.6755C64.1301 15.4812 60.3379 12.9473 56.1643 11.2185C51.9907 9.48978 47.5175 8.6 43 8.6V0Z" fill="url(#paint0_linear_5202_13677)"/>
<defs>
<linearGradient id="paint0_linear_5202_13677" x1="-1.44772e-07" y1="43.4095" x2="86" y2="43.4095" gradientUnits="userSpaceOnUse">
<stop stop-color="#A855F7"/>
<stop offset="1" stop-color="#3B82F6"/>
</linearGradient>
</defs>
</svg>
