<svg width="86" height="86" viewBox="0 0 86 86" fill="none" xmlns="http://www.w3.org/2000/svg">
<path d="M25.6632 51.2287C24.4435 51.2287 23.3572 51.0191 22.4043 50.5998C21.4569 50.1751 20.7082 49.5924 20.1582 48.8519C19.6137 48.1059 19.3333 47.2456 19.317 46.271H22.8781C22.8998 46.6793 23.0332 47.0387 23.2783 47.3491C23.5287 47.654 23.8609 47.8909 24.2747 48.0597C24.6886 48.2285 25.1541 48.3129 25.6714 48.3129C26.2104 48.3129 26.6869 48.2176 27.1007 48.027C27.5145 47.8364 27.8385 47.5723 28.0727 47.2347C28.3068 46.8971 28.4239 46.5078 28.4239 46.0668C28.4239 45.6203 28.2986 45.2255 28.0482 44.8825C27.8031 44.534 27.4492 44.2617 26.9864 44.0657C26.529 43.8697 25.9845 43.7717 25.3528 43.7717H23.7928V41.1744H25.3528C25.8865 41.1744 26.3575 41.0818 26.7658 40.8967C27.1797 40.7115 27.5009 40.4556 27.7296 40.1289C27.9583 39.7968 28.0727 39.4102 28.0727 38.9691C28.0727 38.5498 27.9719 38.1823 27.7705 37.8665C27.5744 37.5452 27.2967 37.2947 26.9374 37.1151C26.5834 36.9354 26.1696 36.8455 25.6959 36.8455C25.2167 36.8455 24.7784 36.9326 24.3809 37.1069C23.9834 37.2757 23.6649 37.518 23.4253 37.8338C23.1857 38.1496 23.0578 38.5199 23.0414 38.9446H19.6519C19.6682 37.9808 19.9432 37.1314 20.4768 36.3963C21.0104 35.6612 21.7292 35.0868 22.633 34.6729C23.5424 34.2537 24.5688 34.044 25.7122 34.044C26.8666 34.044 27.8766 34.2537 28.7424 34.6729C29.6082 35.0922 30.2806 35.6585 30.7598 36.3718C31.2444 37.0797 31.484 37.8746 31.4786 38.7567C31.484 39.6933 31.1927 40.4747 30.6046 41.1009C30.022 41.727 29.2624 42.1245 28.3259 42.2933V42.424C29.5564 42.5819 30.493 43.0094 31.1355 43.7063C31.7835 44.3978 32.1047 45.2636 32.0993 46.3036C32.1047 47.2565 31.8298 48.1032 31.2744 48.8438C30.7244 49.5843 29.9648 50.1669 28.9956 50.5916C28.0264 51.0163 26.9156 51.2287 25.6632 51.2287ZM40.7508 51.2287C39.5965 51.2287 38.5674 51.0163 37.6635 50.5916C36.765 50.1669 36.0517 49.5816 35.5236 48.8356C34.9954 48.0896 34.7204 47.2347 34.6986 46.271H38.129C38.1672 46.9189 38.4394 47.4444 38.9458 47.8473C39.4522 48.2502 40.0539 48.4517 40.7508 48.4517C41.3062 48.4517 41.7963 48.3292 42.221 48.0842C42.6512 47.8337 42.986 47.4879 43.2256 47.0469C43.4707 46.6004 43.5932 46.0885 43.5932 45.5114C43.5932 44.9233 43.4679 44.406 43.2175 43.9595C42.9724 43.513 42.6321 43.1645 42.1965 42.9141C41.7609 42.6636 41.2627 42.5356 40.7018 42.5302C40.2118 42.5302 39.7353 42.6309 39.2725 42.8324C38.8151 43.0339 38.4585 43.3088 38.2025 43.6573L35.058 43.0938L35.8503 34.2727H46.0761V37.1641H38.7661L38.3332 41.354H38.4312C38.7253 40.9402 39.169 40.5972 39.7626 40.3249C40.3561 40.0527 41.0204 39.9165 41.7555 39.9165C42.7628 39.9165 43.6612 40.1534 44.4508 40.6271C45.2403 41.1009 45.8638 41.7515 46.3212 42.5792C46.7785 43.4014 47.0045 44.3488 46.9991 45.4215C47.0045 46.5487 46.7431 47.5505 46.215 48.4272C45.6922 49.2984 44.9599 49.9845 44.0179 50.4854C43.0813 50.9809 41.9923 51.2287 40.7508 51.2287ZM58.6216 47.8636V46.9815C58.6216 46.3118 58.7632 45.6965 59.0463 45.1357C59.3349 44.5694 59.7514 44.1174 60.2959 43.7798C60.8459 43.4368 61.5156 43.2653 62.3052 43.2653C63.1056 43.2653 63.7781 43.4341 64.3226 43.7717C64.8725 44.1093 65.2864 44.5612 65.5641 45.1275C65.8472 45.6883 65.9888 46.3063 65.9888 46.9815V47.8636C65.9888 48.5334 65.8472 49.1514 65.5641 49.7177C65.2809 50.2785 64.8644 50.7277 64.3144 51.0653C63.7645 51.4084 63.0947 51.5799 62.3052 51.5799C61.5047 51.5799 60.8323 51.4084 60.2878 51.0653C59.7433 50.7277 59.3294 50.2785 59.0463 49.7177C58.7632 49.1514 58.6216 48.5334 58.6216 47.8636ZM60.9984 46.9815V47.8636C60.9984 48.2502 61.0909 48.6151 61.2761 48.9581C61.4666 49.3011 61.8097 49.4727 62.3052 49.4727C62.8007 49.4727 63.1383 49.3039 63.318 48.9663C63.5031 48.6287 63.5957 48.2611 63.5957 47.8636V46.9815C63.5957 46.584 63.5085 46.2138 63.3343 45.8707C63.1601 45.5277 62.817 45.3562 62.3052 45.3562C61.8151 45.3562 61.4748 45.5277 61.2842 45.8707C61.0936 46.2138 60.9984 46.584 60.9984 46.9815ZM50.0374 38.2912V37.4091C50.0374 36.7339 50.1817 36.1159 50.4703 35.555C50.7589 34.9888 51.1754 34.5368 51.7199 34.1992C52.2699 33.8616 52.9342 33.6928 53.7128 33.6928C54.5187 33.6928 55.1939 33.8616 55.7384 34.1992C56.2829 34.5368 56.6967 34.9888 56.9799 35.555C57.263 36.1159 57.4046 36.7339 57.4046 37.4091V38.2912C57.4046 38.9664 57.2603 39.5844 56.9717 40.1452C56.6886 40.7061 56.272 41.1553 55.7221 41.4929C55.1776 41.825 54.5078 41.9911 53.7128 41.9911C52.9179 41.9911 52.2454 41.8223 51.6954 41.4847C51.1509 41.1417 50.7371 40.6925 50.454 40.1371C50.1763 39.5762 50.0374 38.9609 50.0374 38.2912ZM52.4305 37.4091V38.2912C52.4305 38.6887 52.5231 39.0562 52.7082 39.3938C52.8988 39.7314 53.2337 39.9002 53.7128 39.9002C54.2138 39.9002 54.5541 39.7314 54.7338 39.3938C54.9189 39.0562 55.0115 38.6887 55.0115 38.2912V37.4091C55.0115 37.0116 54.9244 36.6413 54.7501 36.2983C54.5759 35.9553 54.2301 35.7837 53.7128 35.7837C53.2282 35.7837 52.8934 35.958 52.7082 36.3065C52.5231 36.6549 52.4305 37.0225 52.4305 37.4091ZM51.1155 51L62.6155 34.2727H64.7555L53.2555 51H51.1155Z" fill="#0A0A0A"/>
<path d="M86 43C86 66.7482 66.7482 86 43 86C19.2518 86 0 66.7482 0 43C0 19.2518 19.2518 0 43 0C66.7482 0 86 19.2518 86 43ZM8.6 43C8.6 61.9986 24.0014 77.4 43 77.4C61.9986 77.4 77.4 61.9986 77.4 43C77.4 24.0014 61.9986 8.6 43 8.6C24.0014 8.6 8.6 24.0014 8.6 43Z" fill="#F5F5F5"/>
<path d="M43 0C50.9302 9.45662e-08 58.7059 2.19298 65.4674 6.33647C72.229 10.48 77.7131 16.4126 81.3133 23.4784C84.9135 30.5442 86.4896 38.468 85.8674 46.3737C85.2453 54.2795 82.449 61.8591 77.7877 68.2748L70.8302 63.2198C74.5592 58.0873 76.7962 52.0236 77.294 45.699C77.7917 39.3744 76.5308 33.0354 73.6506 27.3827C70.7705 21.7301 66.3832 16.984 60.974 13.6692C55.5647 10.3544 49.3441 8.6 43 8.6V0Z" fill="url(#paint0_linear_5202_8516)"/>
<defs>
<linearGradient id="paint0_linear_5202_8516" x1="-1.44772e-07" y1="43.4095" x2="86" y2="43.4095" gradientUnits="userSpaceOnUse">
<stop stop-color="#A855F7"/>
<stop offset="1" stop-color="#3B82F6"/>
</linearGradient>
</defs>
</svg>
