<svg width="42" height="35" viewBox="0 0 42 35" fill="none" xmlns="http://www.w3.org/2000/svg">
<path d="M6.23658 21.5349V25.6927C6.25321 28.6155 7.63358 28.1613 8.65638 27.284L14.552 21.9611V24.6532C14.552 27.1791 15.1341 27.7715 17.6703 27.7715H27.0252C27.0252 27.7715 32.4396 34.138 32.4822 34.0954C33.2618 35.0475 35.3729 34.7232 35.3406 32.9687V27.7715H38.4589C41.0055 27.7715 41.5772 27.1385 41.5772 24.6532V9.06178C41.5772 6.56715 40.964 5.94349 38.4589 5.94349H28.0646V3.86463C28.0646 1.29724 27.5865 0.746338 24.9463 0.746338H3.11829C0.665236 0.746338 0 1.27645 0 3.86463V17.3772C0 19.9124 0.571687 21.5349 3.11829 21.5349H6.23658ZM32.2224 24.6532V29.5604L28.0646 24.6532H18.7098C17.9302 24.6532 17.6703 24.3726 17.6703 23.6138V10.1012C17.6703 9.40479 17.9925 9.06178 18.7098 9.06178H37.4195C38.1357 9.06178 38.4589 9.44637 38.4589 10.0388V23.6138C38.4589 24.3632 38.0858 24.6532 37.4195 24.6532H32.2224Z" fill="#2A2D30"/>
</svg>
