<svg width="74" height="74" viewBox="0 0 74 74" fill="none" xmlns="http://www.w3.org/2000/svg">
<path d="M37.0003 0C16.5665 0 0 16.5648 0 36.9997C0 57.4339 16.5665 74 37.0003 74C57.4342 74 74 57.4339 74 36.9997C74 16.5648 57.4335 0 37.0003 0ZM37.0003 69.2491C31.1865 69.2491 26.4729 65.3653 26.4729 60.5759H47.5277C47.5277 65.3647 42.8141 69.2491 37.0003 69.2491ZM54.3882 57.7036H19.6105V51.3973H54.3889L54.3882 57.7036ZM54.2635 48.1515H19.7097C19.5948 48.0189 19.4773 47.8883 19.3663 47.7538C15.8064 43.4313 14.9681 41.1747 14.1538 38.875C14.1401 38.7992 18.4705 39.7597 21.5412 40.4505C21.5412 40.4505 23.1214 40.8162 25.4315 41.2374C23.2134 38.6373 21.8964 35.332 21.8964 31.9536C21.8964 24.5367 27.5849 18.0555 25.5327 12.8168C27.53 12.9794 29.6665 17.0323 29.8108 23.3692C31.9341 20.4349 32.8228 15.0761 32.8228 11.7904C32.8228 8.38851 35.0644 4.43683 37.3066 4.30167C35.3079 7.59582 37.8243 10.4199 40.0613 17.4254C40.9004 20.0568 40.7933 24.4851 41.441 27.2935C41.6558 21.4607 42.6587 12.95 46.359 10.0118C44.7266 13.712 46.6005 18.3421 47.8823 20.5681C49.9501 24.1593 51.2038 26.8802 51.2038 32.0261C51.2038 35.4763 49.9299 38.7248 47.7811 41.2641C50.2244 40.8057 51.9116 40.3924 51.9116 40.3924L59.8461 38.8443C59.8468 38.8436 58.6937 43.5854 54.2635 48.1515Z" fill="#E6522C"/>
</svg>
