<svg width="80" height="80" viewBox="0 0 80 80" fill="none" xmlns="http://www.w3.org/2000/svg">
<path d="M0 34.0765C0 18.0127 0 9.98079 4.99039 4.99039C9.98079 0 18.0127 0 34.0765 0H45.9235C61.9873 0 70.0192 0 75.0096 4.99039C80 9.98079 80 18.0127 80 34.0765V45.9235C80 61.9873 80 70.0192 75.0096 75.0096C70.0192 80 61.9873 80 45.9235 80H34.0765C18.0127 80 9.98079 80 4.99039 75.0096C0 70.0192 0 61.9873 0 45.9235V34.0765Z" fill="#1B1D1E"/>
<path d="M40 17.0381C27.319 17.0381 17.0381 27.318 17.0381 39.9996C17.0381 52.6808 27.319 62.9615 40 62.9615C52.681 62.9615 62.9615 52.6808 62.9615 39.9996C62.9615 27.318 52.6806 17.0381 40 17.0381ZM40 60.0132C36.392 60.0132 33.4668 57.603 33.4668 54.6307H46.5332C46.5332 57.6026 43.608 60.0132 40 60.0132ZM50.7907 52.8482H29.2081V48.9346H50.7911L50.7907 52.8482ZM50.7133 46.9203H29.2697C29.1984 46.838 29.1254 46.757 29.0566 46.6735C26.8474 43.991 26.3271 42.5906 25.8218 41.1634C25.8133 41.1164 28.5006 41.7125 30.4063 42.1412C30.4063 42.1412 31.3869 42.3681 32.8205 42.6295C31.444 41.0159 30.6267 38.9647 30.6267 36.8681C30.6267 32.2653 34.1569 28.2431 32.8833 24.9921C34.1229 25.093 35.4487 27.6081 35.5383 31.5407C36.856 29.7197 37.4075 26.3941 37.4075 24.3551C37.4075 22.2439 38.7986 19.7915 40.1901 19.7076C38.9497 21.752 40.5114 23.5045 41.8996 27.8521C42.4203 29.4851 42.3539 32.2333 42.7558 33.9761C42.8892 30.3563 43.5116 25.0747 45.8079 23.2513C44.7948 25.5476 45.9578 28.421 46.7532 29.8024C48.0365 32.0311 48.8145 33.7196 48.8145 36.9131C48.8145 39.0542 48.024 41.0702 46.6904 42.6461C48.2067 42.3616 49.2538 42.1051 49.2538 42.1051L54.1778 41.1443C54.1783 41.1439 53.4627 44.0866 50.7133 46.9203Z" fill="#E6522C"/>
</svg>
