<svg width="44" height="51" viewBox="0 0 44 51" fill="none" xmlns="http://www.w3.org/2000/svg">
<path fill-rule="evenodd" clip-rule="evenodd" d="M18.4973 9.30859C21.4086 9.30859 24.2809 10.0936 26.8053 11.5781L25.2929 14.1434C23.228 12.9268 20.8766 12.285 18.4973 12.285C11.112 12.285 5.10338 18.2937 5.10338 25.679C5.10338 33.0642 11.112 39.0729 18.4973 39.0729C25.8826 39.0729 31.8913 33.0642 31.8913 25.6789C31.8913 23.2997 31.2476 20.9483 30.031 18.8815L32.5963 17.371C34.0826 19.8954 34.8677 22.7695 34.8677 25.6789C34.8677 34.705 27.5233 42.0493 18.4973 42.0493C9.46944 42.0493 2.12695 34.705 2.12695 25.679C2.12695 16.6511 9.46944 9.30859 18.4973 9.30859ZM18.4975 14.889V17.8655C14.1891 17.8655 10.6844 21.3702 10.6844 25.6786C10.6844 29.987 14.1891 33.4917 18.4975 33.4917C22.804 33.4917 26.3106 29.987 26.3106 25.6786H29.2871C29.2871 31.6277 24.4466 36.4681 18.4975 36.4681C12.5484 36.4681 7.70795 31.6277 7.70795 25.6786C7.70795 19.7294 12.5484 14.889 18.4975 14.889ZM18.4971 20.4695V23.4459C17.2656 23.4459 16.2648 24.4486 16.2648 25.6782C16.2648 26.9097 17.2656 27.9105 18.4971 27.9105C19.7286 27.9105 20.7295 26.9097 20.7295 25.6782H23.7059C23.7059 28.5505 21.3694 30.887 18.4971 30.887C15.6249 30.887 13.2884 28.5505 13.2884 25.6782C13.2884 22.806 15.6249 20.4695 18.4971 20.4695ZM32.0613 9.47842L34.6936 12.1107L26.8451 19.9573L30.2791 23.3914H20.7843V13.8966L24.2147 17.3269L32.0613 9.47845V9.47842Z" fill="white"/>
</svg>
