<svg width="40" height="41" viewBox="0 0 40 41" fill="none" xmlns="http://www.w3.org/2000/svg">
<path d="M0 20.7637C0 9.71798 8.95431 0.763672 20 0.763672C31.0457 0.763672 40 9.71798 40 20.7637C40 31.8094 31.0457 40.7637 20 40.7637C8.95431 40.7637 0 31.8094 0 20.7637Z" fill="#4361EE"/>
<path d="M12.7054 31.7637V11.4H20.7395C22.284 11.4 23.5998 11.695 24.687 12.285C25.7741 12.8683 26.6027 13.6803 27.1728 14.7211C27.7495 15.7551 28.0378 16.9483 28.0378 18.3006C28.0378 19.6529 27.7462 20.8461 27.1628 21.8801C26.5795 22.9142 25.7343 23.7196 24.6273 24.2963C23.5269 24.873 22.1945 25.1614 20.6301 25.1614H15.5094V21.7111H19.9341C20.7627 21.7111 21.4455 21.5686 21.9824 21.2836C22.526 20.9919 22.9303 20.5908 23.1955 20.0804C23.4673 19.5634 23.6032 18.9701 23.6032 18.3006C23.6032 17.6245 23.4673 17.0345 23.1955 16.5307C22.9303 16.0203 22.526 15.6259 21.9824 15.3475C21.4389 15.0624 20.7495 14.9199 19.9142 14.9199H17.0108V31.7637H12.7054Z" fill="white"/>
</svg>
