<svg width="40" height="40" viewBox="0 0 40 40" fill="none" xmlns="http://www.w3.org/2000/svg">
<path fill-rule="evenodd" clip-rule="evenodd" d="M20 28.75C20.6903 28.75 21.25 29.3097 21.25 30V35C21.25 35.6903 20.6903 36.25 20 36.25C19.3097 36.25 18.75 35.6903 18.75 35V30C18.75 29.3097 19.3097 28.75 20 28.75Z" fill="white"/>
<path fill-rule="evenodd" clip-rule="evenodd" d="M12.083 35C12.083 34.3097 12.6427 33.75 13.333 33.75H26.6663C27.3567 33.75 27.9163 34.3097 27.9163 35C27.9163 35.6903 27.3567 36.25 26.6663 36.25H13.333C12.6427 36.25 12.083 35.6903 12.083 35ZM2.08301 10C2.08301 6.54822 4.88122 3.75 8.33301 3.75H31.6663C35.1182 3.75 37.9163 6.54822 37.9163 10V25C37.9163 28.4518 35.1182 31.25 31.6663 31.25H8.33301C4.88122 31.25 2.08301 28.4518 2.08301 25V10ZM19.451 12.7743C19.2713 12.4149 18.9298 12.1638 18.5332 12.0995C18.1367 12.0351 17.7332 12.1653 17.4492 12.4494L14.4819 15.4167H13.333C12.6427 15.4167 12.083 15.9763 12.083 16.6667C12.083 17.357 12.6427 17.9167 13.333 17.9167H14.9997C15.3312 17.9167 15.6491 17.785 15.8836 17.5505L17.9905 15.4435L20.5483 20.559C20.728 20.9183 21.0695 21.1695 21.4662 21.2338C21.8627 21.2982 22.2662 21.168 22.5502 20.8838L25.5175 17.9167H26.6663C27.3567 17.9167 27.9163 17.357 27.9163 16.6667C27.9163 15.9763 27.3567 15.4167 26.6663 15.4167H24.9997C24.6682 15.4167 24.3502 15.5484 24.1158 15.7828L22.0088 17.8898L19.451 12.7743Z" fill="white"/>
</svg>
