<svg width="72" height="73" viewBox="0 0 72 73" fill="none" xmlns="http://www.w3.org/2000/svg">
<g clip-path="url(#clip0_9862_1810)">
<path d="M25.5848 56.176C24.984 56.1737 24.4069 56.4098 23.98 56.8326C23.553 57.2553 23.3112 57.8301 23.3076 58.4309C23.3076 63.1073 25.8059 67.4317 29.849 69.7723C33.8921 72.113 38.8888 72.113 42.9319 69.7723C46.975 67.4317 49.4733 63.1073 49.4733 58.4309C49.4697 57.8301 49.2279 57.2553 48.8009 56.8326C48.374 56.4098 47.7968 56.1737 47.1961 56.176H25.5848Z" fill="#F58634"/>
<path d="M36.3906 0.473472C20.8816 0.473472 10.8091 13.9224 10.5599 26.2819L10.3143 42.9145L1.69664 49.389C1.4143 49.5988 1.18463 49.8714 1.02577 50.1852C0.8669 50.4991 0.783196 50.8456 0.781267 51.1973V57.8727C0.780114 58.172 0.838229 58.4687 0.952262 58.7455C1.06629 59.0223 1.23399 59.2738 1.44568 59.4855C1.65737 59.6972 1.90886 59.8648 2.18567 59.9789C2.46247 60.0929 2.75911 60.151 3.05849 60.1499H69.7452C70.346 60.1463 70.9208 59.9045 71.3435 59.4776C71.7663 59.0506 72.0024 58.4735 72.0001 57.8727V51.1973C72.0012 50.8284 71.9123 50.4648 71.7411 50.1381C71.5699 49.8113 71.3216 49.5312 71.0178 49.322L62.2438 43.3387L62.2215 26.1479C62.2215 26.1403 62.2215 26.1327 62.2215 26.1251C62.1615 20.1847 60.3913 13.8421 56.2159 8.86728C52.0405 3.89252 45.4131 0.473472 36.3906 0.473472Z" fill="#FFCC29"/>
<path d="M58.754 0.473596C58.3739 0.46131 57.9968 0.544796 57.6574 0.716376C57.318 0.887956 57.0271 1.14212 56.8117 1.4555C56.4747 1.95302 56.3489 2.56394 56.4619 3.15413C56.5749 3.74432 56.9175 4.26556 57.4144 4.6034C59.8428 6.24794 61.6295 8.2649 62.9288 10.5197C64.2282 12.7745 65.0386 15.2906 65.407 17.8648C65.4932 18.4597 65.812 18.9961 66.2934 19.3561C66.7748 19.7161 67.3794 19.8703 67.9744 19.7848C68.5693 19.6986 69.1057 19.3798 69.4657 18.8984C69.8257 18.417 69.9799 17.8123 69.8944 17.2173C69.454 14.1401 68.4795 11.0785 66.8582 8.26478C65.2368 5.45122 62.9616 2.88582 59.9595 0.852639C59.6017 0.614474 59.1837 0.483322 58.754 0.473596Z" fill="#F58634"/>
<path d="M14.3485 0.473627C13.8733 0.456579 13.4047 0.589334 13.009 0.853127C10.007 2.88631 7.73176 5.45171 6.11038 8.26527C4.48906 11.0789 3.5144 14.1403 3.07409 17.2178C2.9886 17.8128 3.14279 18.4175 3.5028 18.8989C3.8628 19.3803 4.39918 19.6991 4.9941 19.7853C5.58912 19.8708 6.19374 19.7166 6.67515 19.3566C7.15655 18.9966 7.47536 18.4602 7.56155 17.8653C7.92984 15.2912 8.74031 12.7751 10.0397 10.5202C11.3391 8.26538 13.1257 6.24843 15.5541 4.60389C16.0511 4.26605 16.3937 3.74481 16.5067 3.15462C16.6197 2.56443 16.4939 1.95351 16.1569 1.45598C15.9542 1.16135 15.6847 0.918815 15.3704 0.748171C15.0562 0.577527 14.706 0.483152 14.3485 0.473627Z" fill="#F58634"/>
</g>
<defs>
<clipPath id="clip0_9862_1810">
<rect width="72" height="72" fill="white" transform="translate(0 0.365723)"/>
</clipPath>
</defs>
</svg>
