<svg width="50" height="50" viewBox="0 0 50 50" fill="#A3ACB5" xmlns="http://www.w3.org/2000/svg">
<g clip-path="url(#clip0_22335_42718)">
<path d="M24.6193 10.4901V17.7725C24.8693 17.7346 25.1193 17.7119 25.3768 17.7043V10.4903C27.8894 10.297 29.8757 8.19531 29.8757 5.63395C29.8756 2.94546 27.6887 0.757812 25.0002 0.757812C22.3118 0.757812 20.1241 2.94546 20.1241 5.63395C20.1241 8.19387 22.1086 10.2946 24.6193 10.4901ZM25.0002 2.27296C26.8527 2.27296 28.3605 3.78069 28.3605 5.63395C28.3605 7.48645 26.8527 8.99418 25.0002 8.99418C23.147 8.99418 21.6393 7.48645 21.6393 5.63395C21.6393 3.78069 23.147 2.27296 25.0002 2.27296ZM25.3768 39.5109V34.1817C25.1344 34.2044 24.8768 34.212 24.6193 34.212V39.5111C22.1086 39.7067 20.1241 41.8074 20.1241 44.3673C20.1241 47.0558 22.3118 49.2427 25.0002 49.2427C27.6887 49.2427 29.8756 47.0558 29.8756 44.3673C29.8756 41.8058 27.8894 39.7043 25.3768 39.5109ZM25.0002 47.7275C23.147 47.7275 21.6393 46.2198 21.6393 44.3673C21.6393 42.5148 23.147 41.007 25.0002 41.007C26.8527 41.007 28.3605 42.5147 28.3605 44.3672C28.3605 46.2197 26.8527 47.7275 25.0002 47.7275ZM44.3665 20.1249C41.806 20.1249 39.705 22.1096 39.5103 24.6211H32.8768C32.8843 24.6893 32.8843 24.7499 32.8843 24.818C32.8843 25.0074 32.8768 25.1968 32.8616 25.3786H39.5102C39.7044 27.8905 41.8056 29.8764 44.3664 29.8764C47.055 29.8764 49.2427 27.6887 49.2427 25.0002C49.2427 22.3118 47.055 20.1249 44.3665 20.1249ZM44.3665 28.3612C42.514 28.3612 41.0063 26.8535 41.0063 25.0002C41.0063 23.1477 42.514 21.64 44.3665 21.64C46.2198 21.64 47.7275 23.1477 47.7275 25.0002C47.7275 26.8535 46.2198 28.3612 44.3665 28.3612ZM10.4895 25.3786H17.2783C17.3161 25.1211 17.354 24.8711 17.4071 24.6211H10.4894C10.2947 22.1096 8.19372 20.1249 5.63319 20.1249C2.94471 20.1249 0.757812 22.3118 0.757812 25.0002C0.757812 27.6887 2.94471 29.8764 5.63319 29.8764C8.19402 29.8764 10.2952 27.8905 10.4895 25.3786ZM5.63319 28.3612C3.78069 28.3612 2.27296 26.8535 2.27296 25.0002C2.27296 23.1477 3.78069 21.64 5.63319 21.64C7.48569 21.64 8.99349 23.1477 8.99349 25.0002C8.99349 26.8535 7.48577 28.3612 5.63319 28.3612ZM35.5283 34.9921L30.5889 30.0528C30.3768 30.2043 30.1496 30.3407 29.9223 30.4543L34.994 35.526C33.3453 37.4451 33.4294 40.3252 35.2467 42.1425C37.1531 44.0489 40.2358 44.0486 42.1419 42.1425C44.0483 40.2361 44.048 37.1534 42.1419 35.2474C40.3327 33.4384 37.4559 33.3388 35.5283 34.9921ZM41.0706 41.0714C39.7596 42.3808 37.6289 42.3808 36.318 41.0714C35.0078 39.7611 35.0078 37.629 36.318 36.3188C37.6299 35.0084 39.7596 35.0093 41.0706 36.3188C42.3808 37.6289 42.3808 39.7611 41.0706 41.0714ZM14.4705 15.0102L19.6874 20.2271C19.8617 20.0377 20.0435 19.8635 20.2329 19.6968L15.0083 14.4723C16.6608 12.5457 16.5632 9.6688 14.753 7.85865C12.8485 5.95259 9.76425 5.95236 7.85789 7.85865C5.95728 9.76001 5.95728 12.8524 7.85789 14.7538C9.66978 16.5656 12.5476 16.6595 14.4705 15.0102ZM8.9291 8.92986C10.2377 7.6213 12.3629 7.61099 13.6817 8.92986C16.8261 12.0743 12.0366 16.7899 8.9291 13.6824C7.61963 12.3723 7.61963 10.2401 8.9291 8.92986ZM18.4677 30.9922L14.4697 34.9903C13.5881 34.2345 12.4797 33.8189 11.3055 33.8189C10.0033 33.8189 8.77895 34.3264 7.85789 35.2474C4.80713 38.2994 6.9738 43.5711 11.3055 43.5711C14.0034 43.5711 16.1816 41.3856 16.1816 38.695C16.1816 37.5201 15.765 36.4107 15.0076 35.5281L18.9223 31.6134C18.7556 31.4164 18.6041 31.2044 18.4677 30.9922ZM11.3055 42.0561C8.34062 42.0561 6.80493 38.4442 8.92918 36.3188C9.56395 35.684 10.408 35.3341 11.3055 35.3341C12.2036 35.3341 13.047 35.684 13.6818 36.3188C15.785 38.422 14.291 42.0561 11.3055 42.0561ZM30.8464 19.6892L35.5274 15.0083C37.458 16.665 40.3353 16.5602 42.1418 14.7536C44.0482 12.8473 44.0479 9.76455 42.1418 7.85849C40.2355 5.95213 37.1527 5.95243 35.2467 7.85849C33.436 9.6691 33.3387 12.5475 34.9931 14.4742L30.2782 19.1891C30.4829 19.3483 30.6647 19.515 30.8464 19.6892ZM36.318 8.92986C37.6299 7.61948 39.7596 7.62031 41.0706 8.92986C42.3808 10.2401 42.3808 12.3722 41.0706 13.6824C39.7596 14.9919 37.6289 14.9919 36.318 13.6824C35.0078 12.3723 35.0078 10.2401 36.318 8.92986Z" fill="#A3ACB5"/>
<circle cx="24.9983" cy="24.9983" r="5.30303" fill="#A3ACB5"/>
</g>
<defs>
<clipPath id="clip0_22335_42718">
<rect width="50" height="50" fill="white"/>
</clipPath>
</defs>
</svg>
