<svg width="50" height="50" viewBox="0 0 50 50" fill="none" xmlns="http://www.w3.org/2000/svg">
<g clip-path="url(#clip0_15991_53317)">
<path d="M26.4927 25.3258H26.0078V26.4622H26.4927C26.8033 26.4622 27.0608 26.2046 27.0608 25.894C27.0608 25.5834 26.8033 25.3258 26.4927 25.3258Z" fill="#1B275F"/>
<path d="M25.0495 20.25C21.3752 20.25 18.3828 23.2424 18.3828 26.9167C18.3828 30.5909 21.3752 33.5833 25.0495 33.5833C28.7237 33.5833 31.7161 30.5909 31.7161 26.9167C31.7161 23.2424 28.7313 20.25 25.0495 20.25ZM24.5268 28.9773C24.5268 29.2348 24.3222 29.4394 24.0646 29.4394C23.8071 29.4394 23.6025 29.2348 23.6025 28.9773V27.7652H21.5646V28.9773C21.5646 29.2348 21.3601 29.4394 21.1025 29.4394C20.8449 29.4394 20.6404 29.2348 20.6404 28.9773V26.3485C20.6404 25.2803 21.5116 24.4091 22.5798 24.4091C23.648 24.4091 24.5192 25.2803 24.5192 26.3485V28.9773H24.5268ZM26.4889 27.3788H26.004V28.9697C26.004 29.2273 25.7995 29.4318 25.5419 29.4318C25.2843 29.4318 25.0798 29.2273 25.0798 28.9697V24.8636C25.0798 24.6061 25.2843 24.4015 25.5419 24.4015H26.4889C27.3071 24.4015 27.9737 25.0682 27.9737 25.8864C27.9737 26.7045 27.3071 27.3788 26.4889 27.3788ZM29.4586 28.9773C29.4586 29.2348 29.254 29.4394 28.9964 29.4394C28.7389 29.4394 28.5343 29.2348 28.5343 28.9773V24.8712C28.5343 24.6136 28.7389 24.4091 28.9964 24.4091C29.254 24.4091 29.4586 24.6136 29.4586 24.8712V28.9773Z" fill="#1B275F"/>
<path d="M22.5855 25.3258C22.0249 25.3258 21.5703 25.7804 21.5703 26.341V26.841H23.6082V26.341C23.6006 25.7804 23.1461 25.3258 22.5855 25.3258Z" fill="#1B275F"/>
<path d="M39.1638 43.1742V41.0454C39.1638 40.4318 38.9214 39.856 38.4896 39.4166L34.4593 35.3863L34.8759 34.9697C35.4063 34.4394 35.4896 33.5985 35.0653 32.9697L34.2244 31.7273C34.0956 31.5379 34.0729 31.303 34.1714 31.0985C34.2775 30.8712 34.3684 30.6363 34.4593 30.4015C34.535 30.197 34.7244 30.0379 34.9441 30L36.4138 29.7121C37.1562 29.5682 37.6941 28.9167 37.6941 28.1667V25.6591C37.6941 24.9015 37.1562 24.2576 36.4138 24.1136L34.9441 23.8257C34.7244 23.7803 34.535 23.6288 34.4593 23.4242C34.3684 23.1894 34.2775 22.9545 34.1714 22.7273C34.0805 22.5303 34.1032 22.2879 34.2244 22.0985L35.0653 20.856C35.4896 20.2348 35.4063 19.3939 34.8759 18.856L33.1032 17.0833C32.5729 16.553 31.732 16.4697 31.1032 16.8939L29.8608 17.7348C29.6714 17.8636 29.4366 17.8863 29.232 17.7879C29.0047 17.6818 28.7699 17.5909 28.535 17.5C28.3305 17.4242 28.1714 17.2348 28.1335 17.0151L27.8456 15.5454C27.7017 14.803 27.0502 14.2651 26.3002 14.2651H23.7926C23.035 14.2651 22.3911 14.803 22.2472 15.5454L21.9669 17.0227C21.9214 17.2424 21.7699 17.4318 21.5653 17.5076C21.3305 17.5985 21.0956 17.6894 20.8684 17.7954C20.6638 17.8863 20.429 17.8636 20.2396 17.7424L18.9972 16.9015C18.3759 16.4773 17.535 16.5606 16.9972 17.0909L15.2244 18.8636C14.6941 19.3939 14.6108 20.2348 15.035 20.8636L15.8759 22.106C16.0047 22.2954 16.0275 22.5303 15.929 22.7348C15.8229 22.9621 15.7244 23.197 15.6411 23.4318C15.5653 23.6363 15.3759 23.7954 15.1562 23.8333L13.6866 24.1212C12.9441 24.2651 12.4062 24.9167 12.4062 25.6667V28.1742C12.4062 28.9318 12.9441 29.5757 13.6866 29.7197L15.1562 30.0076C15.3759 30.053 15.5653 30.2045 15.6411 30.4091C15.732 30.6439 15.8229 30.8788 15.929 31.106C16.0199 31.303 15.9972 31.5454 15.8759 31.7348L15.035 32.9773C14.6108 33.5985 14.6941 34.4394 15.2244 34.9773L15.6184 35.3712L11.5653 39.4242C11.1335 39.856 10.8911 40.4394 10.8911 41.053V43.1818C9.48201 43.4015 8.40625 44.6212 8.40625 46.0909C8.40625 47.7121 9.72443 49.0379 11.3532 49.0379C12.982 49.0379 14.3002 47.7197 14.3002 46.0909C14.3002 44.6212 13.2244 43.4091 11.8153 43.1818V41.053C11.8153 40.6818 11.9593 40.3409 12.2169 40.0757L16.2699 36.0227L16.9972 36.75C17.5275 37.2803 18.3684 37.3636 18.9972 36.9394L20.2396 36.0985C20.429 35.9697 20.6638 35.947 20.8684 36.0454C21.0956 36.1515 21.3305 36.2424 21.5653 36.3333C21.7699 36.4091 21.929 36.5985 21.9669 36.8182L22.2547 38.2879C22.3987 39.0303 23.0502 39.5682 23.8002 39.5682H24.5275V43.1818C23.1562 43.4318 22.1108 44.6363 22.1108 46.0757C22.1108 47.697 23.429 49.0227 25.0578 49.0227C26.679 49.0227 28.0047 47.7045 28.0047 46.0757C28.0047 44.5833 26.8911 43.356 25.4517 43.1591V39.5606H26.3153C27.0729 39.5606 27.7169 39.0227 27.8608 38.2803L28.1487 36.8106C28.1941 36.5909 28.3456 36.4015 28.5502 36.3257C28.785 36.2348 29.0199 36.1439 29.2472 36.0379C29.4441 35.947 29.6866 35.9697 29.8759 36.0909L31.1184 36.9318C31.7396 37.356 32.5805 37.2727 33.1184 36.7424L33.8229 36.0379L37.8532 40.0682C38.1108 40.3257 38.2547 40.6742 38.2547 41.0454V43.1742C36.8456 43.3939 35.7699 44.6136 35.7699 46.0833C35.7699 47.7045 37.0881 49.0303 38.7169 49.0303C40.3456 49.0303 41.6638 47.7121 41.6638 46.0833C41.6487 44.6136 40.5729 43.3939 39.1638 43.1742ZM32.4517 36.0985C32.232 36.3182 31.8835 36.356 31.6184 36.1742L30.3759 35.3333C29.9214 35.0303 29.3381 34.9773 28.8532 35.2045C28.6487 35.2954 28.4366 35.3864 28.2244 35.4621C27.7169 35.6515 27.3381 36.0985 27.232 36.6363L26.9441 38.106C26.8835 38.4167 26.6108 38.6363 26.3002 38.6363H23.7926C23.482 38.6363 23.2093 38.4167 23.1487 38.106L22.8608 36.6363C22.7547 36.0985 22.3759 35.6515 21.8684 35.4621C21.6487 35.3788 21.4366 35.2954 21.2396 35.197C21.035 35.106 20.8153 35.0606 20.5956 35.0606C20.285 35.0606 19.9744 35.1515 19.7093 35.3333L18.4669 36.1742C18.2093 36.3485 17.8608 36.3182 17.6335 36.0985L15.8608 34.3257C15.6411 34.106 15.6032 33.7576 15.785 33.4924L16.6259 32.25C16.929 31.7954 16.982 31.2121 16.7547 30.7273C16.6638 30.5227 16.5729 30.3106 16.4972 30.0985C16.3078 29.5909 15.8608 29.2121 15.3229 29.106L13.8532 28.8182C13.5426 28.7576 13.3229 28.4848 13.3229 28.1742V25.6667C13.3229 25.356 13.5426 25.0833 13.8532 25.0227L15.3229 24.7348C15.8608 24.6288 16.3078 24.25 16.4972 23.7424C16.5729 23.5303 16.6638 23.3182 16.7547 23.1136C16.982 22.6212 16.929 22.0379 16.6259 21.5909L15.785 20.3485C15.6108 20.0909 15.6411 19.7424 15.8608 19.5151L17.6335 17.7424C17.8532 17.5227 18.2017 17.4848 18.4669 17.6667L19.7093 18.5076C20.1638 18.8106 20.7472 18.8636 21.232 18.6363C21.4366 18.5454 21.6487 18.4545 21.8608 18.3788C22.3684 18.1894 22.7472 17.7424 22.8532 17.2045L23.1411 15.7348C23.2017 15.4242 23.4744 15.2045 23.785 15.2045H26.2926C26.6032 15.2045 26.8759 15.4242 26.9366 15.7348L27.2244 17.2045C27.3305 17.7424 27.7093 18.1894 28.2169 18.3788C28.429 18.4621 28.6487 18.5454 28.8456 18.6439C29.3381 18.8636 29.9214 18.8182 30.3684 18.5151L31.6108 17.6742C31.8684 17.5 32.2169 17.5303 32.4441 17.7576L34.2169 19.5303C34.4366 19.75 34.4744 20.0985 34.2926 20.3636L33.4517 21.606C33.1487 22.0606 33.0956 22.6439 33.3229 23.1288C33.4138 23.3333 33.5047 23.5454 33.5805 23.7576C33.7699 24.2651 34.2169 24.6439 34.7547 24.75L36.2244 25.0379C36.535 25.0985 36.7547 25.3712 36.7547 25.6818V28.1894C36.7547 28.5 36.535 28.7727 36.2244 28.8333L34.7547 29.1212C34.2169 29.2273 33.7699 29.606 33.5805 30.1136C33.4972 30.3257 33.4138 30.5379 33.3153 30.7424C33.0881 31.2348 33.1411 31.8182 33.4441 32.2651L34.285 33.5076C34.4593 33.7651 34.429 34.1136 34.2093 34.3409L33.4669 35.0833L32.4517 36.0985Z" fill="#1B275F"/>
<path d="M46.5443 35.0834V32.9546C46.5443 32.3409 46.3018 31.7652 45.87 31.3258L42.0518 27.5076C44.6958 26.1212 46.3776 23.4243 46.3776 20.3409C46.3776 16.9243 44.2943 13.8788 41.1579 12.6212C41.1731 12.5758 41.1882 12.5303 41.2034 12.4849C41.2109 12.4622 41.2034 12.4318 41.2109 12.4091C41.4306 11.6212 41.5443 10.8182 41.5443 10.0228C41.5443 5.03033 37.4837 0.969727 32.4912 0.969727C28.1579 0.969727 24.4534 4.08336 23.62 8.23488C22.2564 6.77276 20.3397 5.93185 18.3094 5.93185C14.4534 5.93185 11.2943 8.95458 11.0594 12.75C6.96851 12.9849 3.71851 16.3788 3.71851 20.5228C3.71851 23.5 5.38518 26.197 7.88518 27.5606L4.12003 31.3258C3.68821 31.7576 3.44579 32.3409 3.44579 32.9546V35.0834C2.0367 35.3031 0.960938 36.5228 0.960938 37.9925C0.960938 39.6137 2.27912 40.9394 3.90791 40.9394C5.5367 40.9394 6.85488 39.6212 6.85488 37.9925C6.85488 36.5228 5.77912 35.3106 4.37003 35.0834V32.9546C4.37003 32.5834 4.51397 32.2425 4.77154 31.9773L8.77912 27.9697C9.11245 28.0985 9.46094 28.2122 9.817 28.2955C9.85488 28.3031 9.88518 28.3106 9.92306 28.3106C10.1352 28.3106 10.3246 28.1667 10.37 27.9546C10.4306 27.7046 10.2715 27.4622 10.0215 27.4015C6.90033 26.6818 4.63518 23.7879 4.63518 20.5228C4.63518 16.8864 7.48366 13.9091 11.067 13.6818C11.12 14.4697 11.2867 15.2425 11.5897 15.9773C11.6655 16.1515 11.8321 16.2652 12.014 16.2652C12.0746 16.2652 12.1352 16.2576 12.1882 16.2273C12.4231 16.1288 12.5367 15.8637 12.4382 15.6288C12.12 14.8637 11.9609 14.0531 11.9609 13.2122V13.2046C11.9609 9.70458 14.8094 6.85609 18.3018 6.85609C20.3928 6.85609 22.3473 7.88639 23.5367 9.61367C23.9837 10.2576 24.2943 10.9697 24.4761 11.7273C24.5291 11.9394 24.7185 12.0834 24.9231 12.0834C24.9609 12.0834 24.9912 12.0758 25.0291 12.0682C25.2791 12.0076 25.4306 11.7652 25.37 11.5152C25.1806 10.7046 24.8473 9.947 24.3928 9.25003C24.8018 5.12124 28.3246 1.89397 32.4988 1.89397C36.9837 1.89397 40.6276 5.53791 40.6276 10.0228C40.6276 10.9394 40.4685 11.8485 40.1503 12.7425C40.1428 12.7576 40.1503 12.7728 40.1428 12.7803C39.7412 13.894 39.0897 14.9167 38.2488 15.7652C38.067 15.947 38.067 16.2349 38.2488 16.4167C38.3397 16.5076 38.4534 16.5531 38.5746 16.5531C38.6958 16.5531 38.8094 16.5076 38.9003 16.4167C39.7412 15.5758 40.4079 14.5758 40.8549 13.4925C43.6276 14.6212 45.4685 17.3182 45.4685 20.3409C45.4685 23.644 43.3018 26.4394 40.067 27.3106C39.8246 27.3788 39.6731 27.6288 39.7412 27.8712C39.8094 28.1137 40.0594 28.2652 40.3018 28.197C40.5973 28.1212 40.8776 28.0228 41.1579 27.9167L45.2185 31.9773C45.4761 32.2349 45.62 32.5834 45.62 32.9546V35.0834C44.2109 35.3031 43.1352 36.5228 43.1352 37.9925C43.1352 39.6137 44.4534 40.9394 46.0821 40.9394C47.7034 40.9394 49.0291 39.6212 49.0291 37.9925C49.0291 36.5228 47.9534 35.3106 46.5443 35.0834Z" fill="#1B275F"/>
</g>
<defs>
<clipPath id="clip0_15991_53317">
<rect width="50" height="50" fill="white"/>
</clipPath>
</defs>
</svg>
