<svg width="50" height="44" viewBox="0 0 50 44" fill="none" xmlns="http://www.w3.org/2000/svg">
<path d="M48.6283 33.5238H33.9617C33.3826 33.5238 32.9141 33.0548 32.9141 32.4762V9.4286C32.9141 8.85006 33.3826 8.38098 33.9617 8.38098H48.6283C49.2074 8.38098 49.676 8.85006 49.676 9.4286V32.4762C49.676 33.0548 49.2074 33.5238 48.6283 33.5238ZM35.0093 31.4286H47.5807V10.4762H35.0093V31.4286Z" fill="#1B275F"/>
<path d="M41.869 14.6667H40.715C38.7221 14.6667 37.1016 13.0456 37.1016 11.0527V9.4286C37.1016 8.85006 37.5701 8.38098 38.1492 8.38098H44.4349C45.0139 8.38098 45.4825 8.85006 45.4825 9.4286V11.0527C45.4825 13.0456 43.862 14.6667 41.869 14.6667ZM39.1968 10.4762V11.0527C39.1968 11.8901 39.8782 12.5715 40.715 12.5715H41.869C42.7059 12.5715 43.3873 11.8901 43.3873 11.0527V10.4762H39.1968Z" fill="#1B275F"/>
<path d="M41.0474 25.2349C40.7794 25.2349 40.5113 25.1326 40.3067 24.928L38.1194 22.7406C37.7102 22.3314 37.7102 21.6685 38.1194 21.2592C38.5286 20.85 39.1916 20.85 39.6008 21.2592L41.0474 22.7059L44.6814 19.0719C45.0906 18.6627 45.7535 18.6627 46.1628 19.0719C46.572 19.4812 46.572 20.1441 46.1628 20.5533L41.7881 24.928C41.5835 25.1326 41.3155 25.2349 41.0474 25.2349Z" fill="#1B275F"/>
<path d="M26.6272 28.2857H2.53199C1.95294 28.2857 1.48438 27.8167 1.48438 27.2381V10.4762C1.48438 9.89766 1.95294 9.42859 2.53199 9.42859H26.6272C27.2063 9.42859 27.6748 9.89766 27.6748 10.4762V27.2381C27.6748 27.8167 27.2063 28.2857 26.6272 28.2857ZM3.57961 26.1905H25.5796V11.5238H3.57961V26.1905Z" fill="#1B275F"/>
<path d="M14.1072 22.9434C13.8392 22.9434 13.5711 22.841 13.3665 22.6364L10.6585 19.9284C10.2493 19.5192 10.2493 18.8562 10.6585 18.447C11.0677 18.0378 11.7307 18.0378 12.1399 18.447L14.1072 20.4143L18.7826 15.7389C19.1919 15.3297 19.8548 15.3297 20.264 15.7389C20.6733 16.1482 20.6733 16.8111 20.264 17.2203L14.8479 22.6364C14.6433 22.841 14.3753 22.9434 14.1072 22.9434Z" fill="#1B275F"/>
<path d="M27.2379 33.5239H2.35699C1.87615 33.5239 1.45772 33.1965 1.34109 32.7305L0.0315653 27.4924C-0.0472107 27.1793 0.0233808 26.8479 0.221855 26.5936C0.42033 26.3394 0.725204 26.1906 1.04747 26.1906H28.5475C28.8697 26.1906 29.1746 26.3394 29.3731 26.5936C29.5715 26.8479 29.6421 27.1793 29.5634 27.4924L28.2538 32.7305C28.1372 33.1965 27.7188 33.5239 27.2379 33.5239ZM3.17544 31.4286H26.4195L27.2052 28.2858H2.38973L3.17544 31.4286Z" fill="#1B275F"/>
<path d="M15.1658 8.65769C15.0737 8.65769 14.9796 8.64541 14.8865 8.61932C14.3289 8.46586 14.0015 7.88886 14.155 7.33128C15.4195 2.74079 19.5588 0 25.2266 0H31.7016C37.0062 0 40.7936 2.17657 42.365 6.12867C42.5799 6.66629 42.3169 7.27553 41.7798 7.48935C41.2386 7.70419 40.6319 7.44075 40.4191 6.90313C38.7546 2.71982 34.2429 2.09524 31.7016 2.09524H25.2266C20.5584 2.09524 17.1741 4.26055 16.1745 7.88783C16.0467 8.3523 15.6252 8.65769 15.1658 8.65769Z" fill="#1B275F"/>
<path d="M31.7016 44.0001H25.2266C19.5588 44.0001 15.4195 41.2593 14.155 36.6688C14.0015 36.1112 14.3289 35.5342 14.8865 35.3807C15.443 35.2227 16.0211 35.5547 16.1745 36.1122C17.1741 39.7395 20.5584 41.9048 25.2266 41.9048H31.7016C36.3709 41.9048 39.7552 39.7395 40.7537 36.1122C40.9071 35.5547 41.4831 35.2268 42.0417 35.3802C42.5993 35.5342 42.9267 36.1107 42.7732 36.6688C41.5097 41.2593 37.3704 44.0001 31.7016 44.0001Z" fill="#1B275F"/>
</svg>
