<svg width="50" height="50" viewBox="0 0 50 50" fill="none" xmlns="http://www.w3.org/2000/svg">
<path fill-rule="evenodd" clip-rule="evenodd" d="M47.8399 30.9021C47.3932 30.1561 45.5605 27.9408 40.735 30.7513L40.5367 30.8667L39.8515 29.3238C40.629 27.9901 41.2201 26.5645 41.6129 25.0752L44.4033 24.0011C44.7049 23.8851 44.9038 23.5952 44.9038 23.272V18.0964C44.9038 17.7731 44.7048 17.4834 44.4033 17.3673L41.6137 16.2936C41.2209 14.8035 40.6296 13.3773 39.8519 12.0436L41.0659 9.31006C41.1972 9.01475 41.1329 8.66904 40.9044 8.44053L37.2447 4.78086C37.016 4.55225 36.6704 4.48818 36.3751 4.61924L33.6407 5.83369C32.307 5.05615 30.8813 4.46504 29.3919 4.07217L28.3179 1.28184C28.2018 0.980273 27.912 0.78125 27.5888 0.78125H22.4132C22.0901 0.78125 21.8002 0.980273 21.6841 1.28184L20.6101 4.07227C19.1207 4.46504 17.695 5.05615 16.3614 5.83379L13.6269 4.61924C13.3315 4.48809 12.9859 4.55234 12.7574 4.78086L9.09759 8.44062C8.86907 8.66914 8.80481 9.01475 8.93606 9.31016L10.1504 12.0443C9.37278 13.3779 8.78157 14.8038 8.3887 16.2934L5.59866 17.3674C5.2971 17.4834 5.09808 17.7732 5.09808 18.0965V23.2721C5.09808 23.5953 5.2971 23.8851 5.59866 24.0012L8.38821 25.0749C8.78128 26.5653 9.37259 27.9915 10.15 29.3249L8.93597 32.0583C8.80472 32.3537 8.86897 32.6993 9.09749 32.9278L9.23372 33.064L8.42669 33.5312L7.84768 32.5082C7.2969 31.5352 6.05735 31.1916 5.08411 31.7422L2.70862 33.0866C2.23841 33.3527 1.89964 33.7872 1.75462 34.3102C1.6097 34.833 1.6764 35.38 1.94251 35.8502L8.92659 48.1906C9.29925 48.849 9.98733 49.2192 10.6949 49.2192C11.0329 49.2192 11.3756 49.1347 11.6903 48.9566L14.0658 47.6121C14.536 47.346 14.8747 46.9115 15.0198 46.3886C15.1648 45.8656 15.098 45.3186 14.8319 44.8484L14.1264 43.602L15.5258 42.794L26.3579 45.6965C26.9732 45.8614 27.5769 45.9438 28.1679 45.9437C29.3459 45.9437 30.4724 45.6163 31.5324 44.9638L46.8975 35.5026C48.3115 34.6322 48.7606 32.4394 47.8399 30.9021ZM10.5818 32.2021L11.7427 29.5883C11.8473 29.3527 11.829 29.0809 11.6939 28.8614C10.825 27.4507 10.1903 25.9195 9.80735 24.3104C9.74769 24.0598 9.56839 23.8547 9.32796 23.7622L6.66067 22.7355V18.6328L9.32854 17.6059C9.56888 17.5134 9.74827 17.3082 9.80794 17.0576C10.1906 15.4496 10.8252 13.9187 11.6944 12.5075C11.8294 12.2881 11.8477 12.0162 11.7432 11.7808L10.5819 9.16611L13.483 6.26494L16.098 7.42637C16.3335 7.53086 16.6053 7.5127 16.8247 7.37754C18.236 6.5085 19.7667 5.87393 21.3744 5.49131C21.625 5.43164 21.8301 5.25234 21.9227 5.01191L22.9496 2.34375H27.0524L28.0794 5.01191C28.1719 5.25234 28.377 5.43164 28.6277 5.49131C30.2354 5.87393 31.7661 6.50859 33.1775 7.37754C33.3969 7.5126 33.6688 7.53076 33.9042 7.42637L36.5192 6.26494L39.4203 9.16602L38.2594 11.78C38.1548 12.0154 38.1731 12.2873 38.3081 12.5067C39.1774 13.9182 39.812 15.4492 40.1947 17.0577C40.2542 17.3083 40.4336 17.5135 40.6741 17.606L43.3414 18.6327V22.7354L40.6733 23.7625C40.4329 23.855 40.2535 24.0601 40.1939 24.3107C39.8114 25.9184 39.1767 27.4491 38.3076 28.8605C38.1726 29.08 38.1543 29.3518 38.2589 29.5872L39.1784 31.6577L32.2682 35.6826C31.8686 35.9153 31.4624 36.0834 31.0399 36.1884C31.1903 35.9338 31.3093 35.649 31.3931 35.3364C31.83 33.7057 30.8613 32.0031 29.1875 31.4605C29.154 31.4497 29.1199 31.4411 29.0853 31.4349C28.7223 31.3694 28.3603 31.2935 28.0002 31.2108V30.4241C29.9458 29.8238 31.695 28.6369 32.9735 27.0334C34.425 25.2129 35.1923 23.0174 35.1923 20.6841C35.1923 17.4551 33.6535 14.4122 31.0643 12.4926C30.4926 11.032 29.4006 9.80547 27.9422 9.06592C27.6999 8.94316 27.4114 8.95479 27.18 9.09697C26.9486 9.23906 26.8076 9.49111 26.8076 9.7627V10.6532C26.2137 10.547 25.6093 10.4928 25.001 10.4928C24.3927 10.4928 23.7884 10.547 23.1944 10.6532V9.7627C23.1944 9.49111 23.0534 9.23906 22.822 9.09697C22.5907 8.95479 22.3022 8.94307 22.0598 9.06592C20.6014 9.80547 19.5093 11.032 18.9377 12.4926C16.3486 14.4122 14.8098 17.455 14.8098 20.6841C14.8098 23.0174 15.5771 25.2129 17.0286 27.0334C17.4702 27.5872 17.9679 28.0914 18.5104 28.5392C17.1095 28.63 15.8263 29.247 14.6997 29.8992L10.6333 32.2536L10.5818 32.2021ZM18.4921 15.0207C18.5445 17.4149 19.8943 19.5656 22.0019 20.6574V28.7774C18.6425 27.5412 16.3723 24.3441 16.3723 20.6841C16.3723 18.5836 17.1413 16.5757 18.4921 15.0207ZM23.0858 19.441C21.2429 18.6667 20.0522 16.875 20.0522 14.8764C20.0522 13.4718 20.6356 12.1698 21.6319 11.2479V15.524C21.6319 15.8031 21.7808 16.061 22.0225 16.2006L24.6104 17.6947C24.8522 17.8343 25.1499 17.8343 25.3916 17.6947L27.9795 16.2005C28.2212 16.0609 28.3701 15.803 28.3701 15.5239V11.2479C29.3664 12.1698 29.9498 13.4717 29.9498 14.8763C29.9498 16.8749 28.7591 18.6667 26.9162 19.441C26.6262 19.5629 26.4376 19.8468 26.4376 20.1612V30.8064C25.4328 30.5185 24.4641 30.1928 23.5644 29.8754V20.1613C23.5644 19.8468 23.3757 19.5629 23.0858 19.441ZM23.1944 12.2452C24.3788 11.9944 25.6234 11.9944 26.8076 12.2452V15.0729L25.001 16.116L23.1944 15.0729V12.2452ZM31.5099 15.0208C32.8607 16.5758 33.6298 18.5837 33.6298 20.6843C33.6298 24.3442 31.3595 27.5413 28.0002 28.7776V20.6576C30.1077 19.5656 31.4576 17.415 31.5099 15.0208ZM13.2963 46.2523L10.9208 47.5969C10.7011 47.7211 10.4108 47.6405 10.2866 47.4211L3.30247 35.0806C3.24192 34.9736 3.22698 34.8482 3.26048 34.7275C3.29397 34.6068 3.37132 34.507 3.47825 34.4465L5.85374 33.1021C5.92337 33.0626 6.00081 33.0426 6.07962 33.0426C6.122 33.0426 6.16468 33.0484 6.20686 33.0601C6.32757 33.0935 6.42737 33.1708 6.48792 33.2778L13.4721 45.6182C13.5963 45.8376 13.5158 46.1281 13.2963 46.2523ZM46.0784 34.1722L30.7133 43.6333C29.5021 44.3789 28.1729 44.5653 26.7624 44.1873L15.6176 41.2011C15.4174 41.1476 15.2043 41.1756 15.0248 41.2791L13.3568 42.2421L9.19632 34.891L15.4825 31.2515C16.8885 30.4374 18.4089 29.7552 19.9999 30.2713C20.5141 30.4381 21.1069 30.6523 21.7934 30.9006C23.7628 31.6126 26.2104 32.4975 28.7511 32.9622C29.6196 33.2668 30.1052 34.1055 29.8837 34.932C29.5924 36.0193 28.6848 36.1549 27.9621 36.0724C26.7164 35.8161 25.5323 35.4782 24.2793 35.1204C23.6844 34.9505 23.0693 34.7748 22.4369 34.6054C22.0201 34.4939 21.5918 34.741 21.4801 35.1578C21.3685 35.5746 21.6159 36.0029 22.0325 36.1146C22.6526 36.2808 23.2614 36.4546 23.8502 36.6229C25.143 36.992 26.3641 37.3408 27.6795 37.6097C27.6846 37.6107 27.6897 37.611 27.6949 37.612C27.7002 37.613 27.7053 37.6146 27.7107 37.6154L28.7635 37.7865C30.3455 38.0396 31.749 37.793 33.0544 37.0327L41.5212 32.1013C43.9426 30.6911 45.8036 30.5429 46.4993 31.7047C46.978 32.5039 46.7656 33.7491 46.0784 34.1722ZM6.52835 35.4593C6.59612 35.9228 6.27532 36.3534 5.81184 36.4212C5.34837 36.489 4.9177 36.1682 4.84993 35.7046C4.78216 35.2411 5.10296 34.8105 5.56644 34.7427C6.02991 34.675 6.46058 34.9958 6.52835 35.4593Z" fill="#1B275F"/>
</svg>
