<svg width="145" height="51" viewBox="0 0 145 51" fill="none" xmlns="http://www.w3.org/2000/svg">
<g clip-path="url(#clip0_5224_19472)">
<g clip-path="url(#clip1_5224_19472)">
<path d="M41.1452 15.3149L37.4481 19.0271C43.5187 25.1224 43.5187 34.93 37.4481 40.9337C31.3775 47.029 21.6097 47.029 15.6304 40.9337C9.55979 34.8383 9.55979 25.0308 15.6304 19.0271L25.2612 9.3571L26.6305 7.98222V0.695312L12.1158 15.2691C4.03691 23.3809 4.03691 36.4882 12.1158 44.6C20.1948 52.7118 33.2488 52.7118 41.1908 44.6C49.2241 36.4882 49.2241 23.4726 41.1452 15.3149Z" fill="#EE4C2C"/>
<path d="M33.8883 14.444C35.3756 14.444 36.5813 13.2334 36.5813 11.7401C36.5813 10.2467 35.3756 9.03613 33.8883 9.03613C32.401 9.03613 31.1953 10.2467 31.1953 11.7401C31.1953 13.2334 32.401 14.444 33.8883 14.444Z" fill="#EE4C2C"/>
</g>
</g>
<path d="M71.7614 32.7871V18.2417H76.6761C77.8172 18.2417 78.75 18.4476 79.4744 18.8596C80.2036 19.2667 80.7434 19.8184 81.0938 20.5144C81.4441 21.2104 81.6193 21.9869 81.6193 22.8439C81.6193 23.7009 81.4441 24.4798 81.0938 25.1806C80.7481 25.8813 80.2131 26.44 79.4886 26.8567C78.7642 27.2686 77.8362 27.4746 76.7045 27.4746H73.1818V25.9121H76.6477C77.429 25.9121 78.0563 25.7772 78.5298 25.5073C79.0033 25.2374 79.3466 24.8728 79.5597 24.4135C79.7775 23.9495 79.8864 23.4263 79.8864 22.8439C79.8864 22.2615 79.7775 21.7407 79.5597 21.2814C79.3466 20.8221 79.0009 20.4623 78.5227 20.2019C78.0445 19.9367 77.41 19.8042 76.6193 19.8042H73.5227V32.7871H71.7614ZM85.3089 36.878C85.0249 36.878 84.7715 36.8543 84.549 36.807C84.3265 36.7644 84.1726 36.7218 84.0874 36.6792L84.5135 35.2019C84.9207 35.306 85.2805 35.3439 85.593 35.3155C85.9055 35.2871 86.1825 35.1474 86.424 34.8965C86.6702 34.6503 86.8951 34.2502 87.0987 33.6962L87.4112 32.8439L83.3771 21.878H85.1953L88.2067 30.5712H88.3203L91.3317 21.878H93.1499L88.5192 34.378C88.3108 34.9415 88.0528 35.4078 87.745 35.7772C87.4373 36.1512 87.0798 36.4282 86.6726 36.6081C86.2701 36.7881 85.8156 36.878 85.3089 36.878ZM94.1104 19.8042V18.2417H105.02V19.8042H100.446V32.7871H98.6843V19.8042H94.1104ZM110.36 33.0144C109.376 33.0144 108.511 32.78 107.768 32.3113C107.029 31.8425 106.452 31.1867 106.035 30.3439C105.623 29.5011 105.417 28.5163 105.417 27.3894C105.417 26.253 105.623 25.2611 106.035 24.4135C106.452 23.566 107.029 22.9078 107.768 22.4391C108.511 21.9703 109.376 21.736 110.36 21.736C111.345 21.736 112.207 21.9703 112.946 22.4391C113.689 22.9078 114.267 23.566 114.679 24.4135C115.095 25.2611 115.304 26.253 115.304 27.3894C115.304 28.5163 115.095 29.5011 114.679 30.3439C114.267 31.1867 113.689 31.8425 112.946 32.3113C112.207 32.78 111.345 33.0144 110.36 33.0144ZM110.36 31.5087C111.109 31.5087 111.724 31.3169 112.207 30.9334C112.69 30.5499 113.047 30.0456 113.279 29.4206C113.511 28.7956 113.627 28.1185 113.627 27.3894C113.627 26.6602 113.511 25.9808 113.279 25.351C113.047 24.7213 112.69 24.2123 112.207 23.824C111.724 23.4358 111.109 23.2417 110.36 23.2417C109.612 23.2417 108.997 23.4358 108.514 23.824C108.031 24.2123 107.673 24.7213 107.441 25.351C107.209 25.9808 107.093 26.6602 107.093 27.3894C107.093 28.1185 107.209 28.7956 107.441 29.4206C107.673 30.0456 108.031 30.5499 108.514 30.9334C108.997 31.3169 109.612 31.5087 110.36 31.5087ZM117.862 32.7871V21.878H119.482V23.5257H119.595C119.794 22.986 120.154 22.548 120.675 22.2118C121.196 21.8757 121.783 21.7076 122.436 21.7076C122.559 21.7076 122.713 21.7099 122.898 21.7147C123.082 21.7194 123.222 21.7265 123.317 21.736V23.4405C123.26 23.4263 123.13 23.405 122.926 23.3766C122.727 23.3435 122.517 23.3269 122.294 23.3269C121.764 23.3269 121.29 23.4382 120.874 23.6607C120.462 23.8785 120.135 24.1815 119.893 24.5698C119.657 24.9533 119.538 25.3913 119.538 25.8837V32.7871H117.862ZM129.403 33.0144C128.381 33.0144 127.5 32.7729 126.761 32.29C126.023 31.807 125.455 31.1417 125.057 30.2942C124.659 29.4467 124.46 28.4784 124.46 27.3894C124.46 26.2814 124.664 25.3037 125.071 24.4561C125.483 23.6039 126.056 22.9386 126.79 22.4604C127.528 21.9775 128.39 21.736 129.375 21.736C130.142 21.736 130.833 21.878 131.449 22.1621C132.064 22.4462 132.569 22.8439 132.962 23.3553C133.355 23.8667 133.598 24.4632 133.693 25.1451H132.017C131.889 24.6479 131.605 24.2076 131.165 23.824C130.729 23.4358 130.142 23.2417 129.403 23.2417C128.75 23.2417 128.177 23.4121 127.685 23.753C127.197 24.0892 126.816 24.565 126.541 25.1806C126.271 25.7914 126.136 26.5087 126.136 27.3326C126.136 28.1754 126.269 28.9093 126.534 29.5343C126.804 30.1593 127.183 30.6446 127.67 30.9902C128.163 31.3359 128.741 31.5087 129.403 31.5087C129.839 31.5087 130.234 31.4329 130.589 31.2814C130.945 31.1299 131.245 30.9121 131.491 30.628C131.738 30.3439 131.913 30.003 132.017 29.6053H133.693C133.598 30.2492 133.364 30.8292 132.99 31.3453C132.621 31.8567 132.131 32.2639 131.52 32.5669C130.914 32.8652 130.208 33.0144 129.403 33.0144ZM137.82 26.2246V32.7871H136.143V18.2417H137.82V23.5826H137.962C138.217 23.0191 138.601 22.5717 139.112 22.2402C139.628 21.9041 140.315 21.736 141.172 21.736C141.915 21.736 142.566 21.8851 143.125 22.1834C143.684 22.477 144.117 22.9292 144.425 23.54C144.737 24.146 144.893 24.9178 144.893 25.8553V32.7871H143.217V25.9689C143.217 25.1025 142.992 24.4325 142.543 23.959C142.098 23.4808 141.48 23.2417 140.689 23.2417C140.14 23.2417 139.647 23.3577 139.212 23.5897C138.781 23.8217 138.44 24.1602 138.189 24.6053C137.943 25.0504 137.82 25.5901 137.82 26.2246Z" fill="white"/>
<defs>
<clipPath id="clip0_5224_19472">
<rect width="50" height="50" fill="white" transform="translate(0 0.787109)"/>
</clipPath>
<clipPath id="clip1_5224_19472">
<rect width="41.2162" height="50" fill="white" transform="translate(6 0.787109)"/>
</clipPath>
</defs>
</svg>
