<svg width="50" height="50" viewBox="0 0 50 50" fill="none" xmlns="http://www.w3.org/2000/svg">
<path d="M5 24.7637C5 13.718 13.9543 4.76367 25 4.76367C36.0457 4.76367 45 13.718 45 24.7637C45 35.8094 36.0457 44.7637 25 44.7637C13.9543 44.7637 5 35.8094 5 24.7637Z" fill="#4361EE"/>
<path d="M23.5048 28.6841H27.1639L29.0034 31.0506L30.813 33.1586L34.2235 37.4341H30.2065L27.8599 34.5506L26.6568 32.8404L23.5048 28.6841ZM34.5318 25.5819C34.5318 27.8025 34.1109 29.6917 33.269 31.2495C32.4338 32.8072 31.2936 33.9971 29.8485 34.8191C28.4101 35.6344 26.7927 36.0421 24.9963 36.0421C23.1866 36.0421 21.5626 35.6311 20.1241 34.8091C18.6857 33.9872 17.5488 32.7973 16.7136 31.2395C15.8784 29.6818 15.4608 27.7959 15.4608 25.5819C15.4608 23.3612 15.8784 21.472 16.7136 19.9142C17.5488 18.3565 18.6857 17.1699 20.1241 16.3546C21.5626 15.5326 23.1866 15.1216 24.9963 15.1216C26.7927 15.1216 28.4101 15.5326 29.8485 16.3546C31.2936 17.1699 32.4338 18.3565 33.269 19.9142C34.1109 21.472 34.5318 23.3612 34.5318 25.5819ZM30.1667 25.5819C30.1667 24.1434 29.9513 22.9303 29.5204 21.9426C29.0962 20.955 28.4963 20.2059 27.7207 19.6955C26.9451 19.1851 26.037 18.9299 24.9963 18.9299C23.9556 18.9299 23.0474 19.1851 22.2718 19.6955C21.4963 20.2059 20.8931 20.955 20.4622 21.9426C20.0379 22.9303 19.8258 24.1434 19.8258 25.5819C19.8258 27.0203 20.0379 28.2334 20.4622 29.2211C20.8931 30.2087 21.4963 30.9578 22.2718 31.4682C23.0474 31.9786 23.9556 32.2338 24.9963 32.2338C26.037 32.2338 26.9451 31.9786 27.7207 31.4682C28.4963 30.9578 29.0962 30.2087 29.5204 29.2211C29.9513 28.2334 30.1667 27.0203 30.1667 25.5819Z" fill="white"/>
</svg>
