<svg width="66" height="65" viewBox="0 0 66 65" fill="none" xmlns="http://www.w3.org/2000/svg">
<mask id="path-1-inside-1_0_1" fill="white">
<path d="M25.0065 3.47087C26.0583 2.55933 26.5491 2.13862 27.11 1.78803C30.6861 -0.596009 35.3139 -0.596009 38.8199 1.78803C39.3107 2.13862 39.8716 2.55933 40.9234 3.47087C41.3441 3.82147 41.5545 4.03182 41.7648 4.17206C43.2373 5.29396 44.9903 5.99515 46.8134 6.27562C47.0939 6.27562 47.3743 6.34574 47.9353 6.34574C49.3377 6.48598 49.9687 6.48598 50.5998 6.62621C54.8069 7.46764 58.0324 10.6931 58.8738 14.9002C59.014 15.4612 59.014 16.1623 59.1543 17.5647C59.2244 18.1257 59.2244 18.4061 59.2244 18.6866C59.4347 20.5097 60.206 22.2627 61.3279 23.7352C61.4682 23.9455 61.6785 24.1559 62.0291 24.5766C62.9407 25.6284 63.3614 26.1192 63.712 26.6802C66.096 30.2562 66.096 34.884 63.712 38.39C63.3614 38.8808 62.9407 39.4417 62.0291 40.4935C61.6785 40.9142 61.4682 41.1246 61.3279 41.3349C60.206 42.8074 59.5049 44.5604 59.2244 46.3835C59.1543 46.664 59.1543 46.9444 59.1543 47.5054C59.014 48.9078 59.014 49.5388 58.8738 50.1699C57.9622 54.2368 54.6667 57.5324 50.4595 58.3037C49.8986 58.4439 49.1974 58.4439 47.795 58.5841C47.2341 58.6543 46.9536 58.6543 46.6731 58.6543C44.8501 58.8646 43.0971 59.6359 41.6246 60.7578C41.4142 60.8981 41.2039 61.1084 40.7832 61.459C39.7314 62.3706 39.2406 62.7913 38.6796 63.1418C35.1036 65.5259 30.4757 65.5259 26.9698 63.1418C26.479 62.7913 25.918 62.3706 24.8662 61.459C24.4455 61.1084 24.2352 60.8981 24.0248 60.7578C22.5523 59.6359 20.7994 58.9347 18.9763 58.6543C18.6958 58.5841 18.4153 58.5841 17.8544 58.5841C16.452 58.4439 15.8209 58.4439 15.1899 58.3037C11.1931 57.5324 7.89752 54.2368 7.12621 50.0297C6.98598 49.4687 6.98598 48.7675 6.84574 47.3652C6.77562 46.8042 6.77562 46.5237 6.77562 46.2433C6.56527 44.4202 5.79396 42.6672 4.67206 41.1947C4.53182 40.9844 4.32147 40.774 3.97087 40.3533C3.05933 39.3015 2.63862 38.8107 2.28803 38.2497C-0.0960087 34.6737 -0.0960087 30.0458 2.28803 26.5399C2.63862 26.0491 3.05933 25.4881 3.97087 24.4364C4.32147 24.0156 4.53182 23.8053 4.67206 23.5949C5.79396 22.1224 6.49515 20.3695 6.77562 18.5464C6.77562 18.2659 6.84574 17.9854 6.84574 17.4245C6.98598 16.0221 6.98598 15.391 7.12621 14.76C7.89752 10.7632 11.1931 7.46764 15.4002 6.69633C15.9612 6.5561 16.6623 6.55609 18.0647 6.41586C18.6257 6.34574 18.9062 6.34574 19.1866 6.34574C21.0097 6.13538 22.7627 5.36408 24.2352 4.24218C24.3754 4.03182 24.5858 3.89159 25.0065 3.47087Z"/>
</mask>
<path d="M25.0065 3.47087L22.3867 0.448117L22.2789 0.54156L22.178 0.642447L25.0065 3.47087ZM27.11 1.78803L29.23 5.18002L29.2799 5.14885L29.3288 5.11623L27.11 1.78803ZM38.8199 1.78803L41.1448 -1.46691L41.1073 -1.49373L41.0691 -1.51968L38.8199 1.78803ZM40.9234 3.47087L38.3037 6.49363L38.3329 6.51898L38.3627 6.54376L40.9234 3.47087ZM41.7648 4.17206L44.189 0.990333L44.0886 0.913857L43.9836 0.843859L41.7648 4.17206ZM46.8134 6.27562L46.2052 10.2291L46.5075 10.2756H46.8134V6.27562ZM47.9353 6.34574L48.3333 2.36559L48.1348 2.34574H47.9353V6.34574ZM50.5998 6.62621L49.7321 10.531L49.7736 10.5402L49.8153 10.5485L50.5998 6.62621ZM58.8738 14.9002L54.9515 15.6847L54.9701 15.778L54.9932 15.8704L58.8738 14.9002ZM59.1543 17.5647L55.1741 17.9627L55.179 18.0119L55.1852 18.0609L59.1543 17.5647ZM59.2244 18.6866H55.2244V18.9166L55.2507 19.1451L59.2244 18.6866ZM61.3279 23.7352L64.6561 21.5164L64.5861 21.4114L64.5097 21.311L61.3279 23.7352ZM62.0291 24.5766L58.9562 27.1373L58.981 27.1671L59.0064 27.1963L62.0291 24.5766ZM63.712 26.6802L60.32 28.8001L60.3512 28.85L60.3838 28.899L63.712 26.6802ZM63.712 38.39L66.9669 40.7149L66.9937 40.6774L67.0197 40.6392L63.712 38.39ZM62.0291 40.4935L59.0064 37.8738L58.981 37.9031L58.9562 37.9328L62.0291 40.4935ZM61.3279 41.3349L64.5097 43.7591L64.5861 43.6587L64.6561 43.5537L61.3279 41.3349ZM59.2244 46.3835L63.1049 47.3536L63.1498 47.1744L63.1779 46.9917L59.2244 46.3835ZM59.1543 47.5054L63.1344 47.9034L63.1543 47.7049V47.5054H59.1543ZM58.8738 50.1699L62.777 51.0447L62.7785 51.0376L58.8738 50.1699ZM50.4595 58.3037L49.7382 54.3692L49.613 54.3922L49.4894 54.4231L50.4595 58.3037ZM47.795 58.5841L47.397 54.604L47.3479 54.6089L47.2989 54.615L47.795 58.5841ZM46.6731 58.6543V54.6543H46.4431L46.2146 54.6806L46.6731 58.6543ZM41.6246 60.7578L43.8434 64.086L43.9484 64.016L44.0488 63.9395L41.6246 60.7578ZM40.7832 61.459L38.2224 58.3861L38.1927 58.4109L38.1634 58.4363L40.7832 61.459ZM38.6796 63.1418L36.5596 59.7499L36.5097 59.781L36.4608 59.8136L38.6796 63.1418ZM26.9698 63.1418L24.6448 66.3968L24.6824 66.4236L24.7206 66.4496L26.9698 63.1418ZM24.8662 61.459L27.486 58.4363L27.4567 58.4109L27.427 58.3861L24.8662 61.459ZM24.0248 60.7578L21.6006 63.9395L21.701 64.016L21.806 64.086L24.0248 60.7578ZM18.9763 58.6543L18.0061 62.5348L18.1854 62.5797L18.368 62.6077L18.9763 58.6543ZM17.8544 58.5841L17.4564 62.5643L17.6549 62.5841H17.8544V58.5841ZM15.1899 58.3037L16.0576 54.3989L16.0029 54.3868L15.9478 54.3761L15.1899 58.3037ZM7.12621 50.0297L11.0606 49.3084L11.0377 49.1831L11.0068 49.0595L7.12621 50.0297ZM6.84574 47.3652L10.8259 46.9671L10.821 46.918L10.8149 46.869L6.84574 47.3652ZM6.77562 46.2433H10.7756V46.0133L10.7493 45.7848L6.77562 46.2433ZM4.67206 41.1947L1.34386 43.4135L1.41386 43.5185L1.49033 43.6189L4.67206 41.1947ZM3.97087 40.3533L7.04376 37.7925L7.01898 37.7628L6.99363 37.7336L3.97087 40.3533ZM2.28803 38.2497L5.68002 36.1297L5.64885 36.0799L5.61623 36.0309L2.28803 38.2497ZM2.28803 26.5399L-0.966908 24.215L-0.993731 24.2525L-1.01968 24.2907L2.28803 26.5399ZM3.97087 24.4364L6.99363 27.0561L7.01898 27.0268L7.04376 26.9971L3.97087 24.4364ZM4.67206 23.5949L1.49033 21.1708L1.41386 21.2711L1.34386 21.3761L4.67206 23.5949ZM6.77562 18.5464L10.7291 19.1546L10.7756 18.8523V18.5464H6.77562ZM6.84574 17.4245L2.86559 17.0265L2.84574 17.225V17.4245H6.84574ZM7.12621 14.76L11.031 15.6277L11.0431 15.573L11.0537 15.5179L7.12621 14.76ZM15.4002 6.69633L16.1215 10.6308L16.2468 10.6078L16.3704 10.5769L15.4002 6.69633ZM18.0647 6.41586L18.4627 10.396L18.5119 10.3911L18.5609 10.385L18.0647 6.41586ZM19.1866 6.34574V10.3457H19.4166L19.6451 10.3194L19.1866 6.34574ZM24.2352 4.24218L26.6593 7.42391L27.1919 7.01811L27.5634 6.46098L24.2352 4.24218ZM27.6262 6.49363C28.7553 5.51506 28.99 5.33003 29.23 5.18002L24.99 -1.60397C24.1082 -1.0528 23.3612 -0.396403 22.3867 0.448117L27.6262 6.49363ZM29.3288 5.11623C31.5748 3.61892 34.4354 3.64376 36.5706 5.09573L41.0691 -1.51968C36.1925 -4.83578 29.7974 -4.81094 24.8912 -1.54018L29.3288 5.11623ZM36.4949 5.04296C36.8791 5.31738 37.3419 5.66009 38.3037 6.49363L43.5431 0.448117C42.4014 -0.541425 41.7423 -1.04014 41.1448 -1.46691L36.4949 5.04296ZM38.3627 6.54376C38.5334 6.68601 38.6328 6.77536 38.8033 6.9231C38.9348 7.03706 39.2089 7.27552 39.546 7.50026L43.9836 0.843859C44.0579 0.893382 44.1038 0.93015 44.11 0.935139C44.113 0.937509 44.0984 0.925863 44.0427 0.877598C43.9503 0.797453 43.7341 0.606326 43.4841 0.397988L38.3627 6.54376ZM39.3407 7.35379C41.3905 8.9156 43.7814 9.85623 46.2052 10.2291L47.4216 2.32213C46.1991 2.13406 45.0841 1.67232 44.189 0.990333L39.3407 7.35379ZM46.8134 10.2756C46.7197 10.2756 46.6611 10.2697 46.6765 10.2711C46.7234 10.2752 46.7204 10.2758 46.8711 10.2908C47.1196 10.3157 47.4734 10.3457 47.9353 10.3457V2.34574C47.8362 2.34574 47.7693 2.34074 47.6672 2.33053C47.6426 2.32807 47.4818 2.31107 47.3797 2.30206C47.2461 2.29027 47.0473 2.27562 46.8134 2.27562V10.2756ZM47.5373 10.3259C48.2748 10.3996 48.8772 10.4426 49.2176 10.4716C49.5986 10.504 49.6917 10.522 49.7321 10.531L51.4675 2.72147C50.8768 2.5902 50.3389 2.53808 49.896 2.50038C49.4124 2.45923 48.9981 2.43207 48.3333 2.36559L47.5373 10.3259ZM49.8153 10.5485C52.439 11.0733 54.4267 13.061 54.9515 15.6847L62.7961 14.1158C61.638 8.32519 57.1748 3.862 51.3842 2.70389L49.8153 10.5485ZM54.9932 15.8704C54.9767 15.8042 54.9929 15.8301 55.0278 16.2491C55.0567 16.5952 55.0998 17.22 55.1741 17.9627L63.1344 17.1667C63.0684 16.5071 63.0415 16.0801 63.0002 15.5848C62.965 15.1624 62.9111 14.5571 62.7544 13.9301L54.9932 15.8704ZM55.1852 18.0609C55.2097 18.2572 55.2175 18.3678 55.2206 18.4306C55.2239 18.4959 55.2244 18.5469 55.2244 18.6866H63.2244C63.2244 18.312 63.2214 17.8525 63.1234 17.0686L55.1852 18.0609ZM55.2507 19.1451C55.5539 21.7728 56.6469 24.1915 58.1462 26.1593L64.5097 21.311C63.7652 20.3339 63.3155 19.2466 63.198 18.2281L55.2507 19.1451ZM57.9997 25.954C58.2245 26.2911 58.4629 26.5652 58.5769 26.6967C58.7246 26.8672 58.814 26.9666 58.9562 27.1373L65.102 22.0159C64.8937 21.7659 64.7026 21.5497 64.6224 21.4573C64.5741 21.4016 64.5625 21.3871 64.5649 21.39C64.5699 21.3962 64.6066 21.4421 64.6561 21.5164L57.9997 25.954ZM59.0064 27.1963C59.985 28.3254 60.17 28.5601 60.32 28.8001L67.104 24.5602C66.5528 23.6783 65.8964 22.9313 65.0519 21.9569L59.0064 27.1963ZM60.3838 28.899C61.8811 31.1449 61.8562 34.0055 60.4043 36.1407L67.0197 40.6392C70.3358 35.7626 70.3109 29.3675 67.0402 24.4613L60.3838 28.899ZM60.457 36.065C60.1826 36.4492 59.8399 36.912 59.0064 37.8738L65.0519 43.1133C66.0414 41.9715 66.5401 41.3124 66.9669 40.7149L60.457 36.065ZM58.9562 37.9328C58.814 38.1035 58.7246 38.2029 58.5769 38.3734C58.4629 38.5049 58.2245 38.779 57.9997 39.1161L64.6561 43.5537C64.6066 43.628 64.5699 43.6739 64.5649 43.6801C64.5625 43.6831 64.5741 43.6685 64.6224 43.6128C64.7025 43.5204 64.8937 43.3043 65.102 43.0543L58.9562 37.9328ZM58.1462 38.9108C56.5844 40.9607 55.6438 43.3516 55.2709 45.7753L63.1779 46.9917C63.3659 45.7693 63.8277 44.6542 64.5097 43.7591L58.1462 38.9108ZM55.3438 45.4134C55.1278 46.2776 55.1543 47.1216 55.1543 47.5054H63.1543C63.1543 47.3595 63.1543 47.2584 63.1552 47.1729C63.156 47.0886 63.1574 47.0513 63.158 47.039C63.1585 47.0296 63.1572 47.0631 63.1493 47.1231C63.1407 47.1877 63.1267 47.2668 63.1049 47.3536L55.3438 45.4134ZM55.1741 47.1074C55.1004 47.845 55.0574 48.4473 55.0284 48.7877C54.996 49.1687 54.978 49.2618 54.969 49.3022L62.7785 51.0376C62.9098 50.4469 62.9619 49.909 62.9996 49.4661C63.0408 48.9825 63.0679 48.5682 63.1344 47.9034L55.1741 47.1074ZM54.9706 49.2951C54.3995 51.8431 52.3204 53.8959 49.7382 54.3692L51.1809 62.2381C57.013 61.1689 61.525 56.6305 62.7769 51.0447L54.9706 49.2951ZM49.4894 54.4231C49.5555 54.4066 49.5297 54.4228 49.1107 54.4577C48.7645 54.4866 48.1398 54.5297 47.397 54.604L48.1931 62.5643C48.8527 62.4983 49.2797 62.4714 49.775 62.4301C50.1974 62.3949 50.8026 62.341 51.4297 62.1842L49.4894 54.4231ZM47.2989 54.615C47.1026 54.6396 46.992 54.6473 46.9291 54.6505C46.8639 54.6538 46.8128 54.6543 46.6731 54.6543V62.6543C47.0478 62.6543 47.5072 62.6512 48.2912 62.5532L47.2989 54.615ZM46.2146 54.6806C43.5869 54.9838 41.1683 56.0768 39.2004 57.5761L44.0488 63.9395C45.0259 63.1951 46.1132 62.7454 47.1316 62.6279L46.2146 54.6806ZM39.4058 57.4296C39.0687 57.6544 38.7945 57.8928 38.6631 58.0068C38.4926 58.1545 38.3931 58.2439 38.2224 58.3861L43.3439 64.5319C43.5939 64.3236 43.81 64.1324 43.9025 64.0523C43.9582 64.004 43.9727 63.9924 43.9698 63.9948C43.9636 63.9997 43.9177 64.0365 43.8434 64.086L39.4058 57.4296ZM38.1634 58.4363C37.0343 59.4148 36.7996 59.5998 36.5596 59.7499L40.7996 66.5338C41.6815 65.9827 42.4284 65.3263 43.4029 64.4818L38.1634 58.4363ZM36.4608 59.8136C34.2148 61.311 31.3543 61.2861 29.219 59.8341L24.7206 66.4496C29.5972 69.7657 35.9923 69.7408 40.8984 66.4701L36.4608 59.8136ZM29.2947 59.8869C28.9105 59.6125 28.4477 59.2698 27.486 58.4363L22.2465 64.4818C23.3883 65.4713 24.0474 65.97 24.6448 66.3968L29.2947 59.8869ZM27.427 58.3861C27.2563 58.2439 27.1568 58.1545 26.9864 58.0068C26.8549 57.8928 26.5807 57.6544 26.2436 57.4296L21.806 64.086C21.7317 64.0365 21.6858 63.9997 21.6796 63.9947C21.6767 63.9924 21.6912 64.004 21.7469 64.0523C21.8394 64.1324 22.0555 64.3236 22.3055 64.5319L27.427 58.3861ZM26.449 57.5761C24.3991 56.0143 22.0082 55.0737 19.5845 54.7008L18.368 62.6077C19.5905 62.7958 20.7055 63.2576 21.6006 63.9395L26.449 57.5761ZM19.9464 54.7737C19.0822 54.5576 18.2382 54.5841 17.8544 54.5841V62.5841C18.0003 62.5841 18.1014 62.5842 18.1869 62.585C18.2712 62.5859 18.3084 62.5873 18.3207 62.5879C18.3301 62.5884 18.2966 62.5871 18.2367 62.5791C18.1721 62.5706 18.0929 62.5565 18.0061 62.5348L19.9464 54.7737ZM18.2524 54.604C17.5148 54.5302 16.9124 54.4873 16.5721 54.4583C16.1911 54.4259 16.098 54.4079 16.0576 54.3989L14.3221 62.2084C14.9128 62.3397 15.4508 62.3918 15.8937 62.4295C16.3772 62.4706 16.7916 62.4978 17.4564 62.5643L18.2524 54.604ZM15.9478 54.3761C13.5978 53.9226 11.54 51.9232 11.0606 49.3084L3.19179 50.751C4.25502 56.5504 8.78837 61.1421 14.4319 62.2312L15.9478 54.3761ZM11.0068 49.0595C11.0233 49.1256 11.0071 49.0998 10.9722 48.6808C10.9433 48.3346 10.9002 47.7099 10.8259 46.9671L2.86559 47.7632C2.93155 48.4228 2.95852 48.8498 2.99979 49.3451C3.03499 49.7675 3.08888 50.3727 3.24564 50.9998L11.0068 49.0595ZM10.8149 46.869C10.7903 46.6727 10.7825 46.5621 10.7794 46.4993C10.7761 46.434 10.7756 46.383 10.7756 46.2433H2.77562C2.77562 46.6179 2.77863 47.0773 2.87663 47.8613L10.8149 46.869ZM10.7493 45.7848C10.4461 43.157 9.35309 40.7384 7.85379 38.7705L1.49033 43.6189C2.23483 44.596 2.68447 45.6833 2.80199 46.7018L10.7493 45.7848ZM8.00026 38.9759C7.77553 38.6388 7.53709 38.3647 7.42312 38.2332C7.27537 38.0627 7.18603 37.9633 7.04376 37.7925L0.89799 42.914C1.10632 43.164 1.29744 43.3801 1.37758 43.4726C1.42584 43.5283 1.43749 43.5428 1.43513 43.5399C1.43014 43.5337 1.39338 43.4878 1.34386 43.4135L8.00026 38.9759ZM6.99363 37.7336C6.01506 36.6044 5.83003 36.3698 5.68002 36.1297L-1.10397 40.3697C-0.552794 41.2516 0.103605 41.9986 0.948118 42.973L6.99363 37.7336ZM5.61623 36.0309C4.11892 33.785 4.14376 30.9244 5.59573 28.7892L-1.01968 24.2907C-4.33578 29.1673 -4.31094 35.5624 -1.04018 40.4685L5.61623 36.0309ZM5.54296 28.8649C5.81738 28.4807 6.16009 28.0179 6.99363 27.0561L0.948118 21.8166C-0.0414222 22.9584 -0.540142 23.6175 -0.966908 24.215L5.54296 28.8649ZM7.04376 26.9971C7.18602 26.8264 7.27537 26.7269 7.42311 26.5565C7.53707 26.425 7.77553 26.1508 8.00026 25.8137L1.34386 21.3761C1.39338 21.3018 1.43015 21.256 1.43513 21.2498C1.4375 21.2468 1.42585 21.2614 1.37759 21.317C1.29745 21.4095 1.10632 21.6256 0.89799 21.8756L7.04376 26.9971ZM7.85379 26.0191C9.4156 23.9692 10.3562 21.5783 10.7291 19.1546L2.82213 17.9382C2.63406 19.1606 2.17232 20.2756 1.49033 21.1708L7.85379 26.0191ZM10.7756 18.5464C10.7756 18.6401 10.7697 18.6987 10.7711 18.6832C10.7752 18.6363 10.7758 18.6393 10.7908 18.4886C10.8157 18.2401 10.8457 17.8863 10.8457 17.4245H2.84574C2.84574 17.5236 2.84074 17.5905 2.83053 17.6926C2.82807 17.7172 2.81107 17.8779 2.80206 17.9801C2.79027 18.1136 2.77562 18.3125 2.77562 18.5464H10.7756ZM10.8259 17.8225C10.8996 17.0849 10.9426 16.4825 10.9716 16.1422C11.004 15.7612 11.022 15.6681 11.031 15.6277L3.22147 13.8923C3.0902 14.4829 3.03808 15.0209 3.00039 15.4638C2.95923 15.9473 2.93207 16.3617 2.86559 17.0265L10.8259 17.8225ZM11.0537 15.5179C11.5073 13.1679 13.5067 11.1101 16.1215 10.6308L14.6789 2.76191C8.87949 3.82513 4.28779 8.35849 3.19868 14.002L11.0537 15.5179ZM16.3704 10.5769C16.3042 10.5934 16.3301 10.5772 16.7491 10.5423C17.0952 10.5134 17.72 10.4703 18.4627 10.396L17.6667 2.43571C17.0071 2.50167 16.5801 2.52864 16.0848 2.56991C15.6624 2.60511 15.0571 2.659 14.4301 2.81576L16.3704 10.5769ZM18.5609 10.385C18.7572 10.3604 18.8678 10.3527 18.9306 10.3495C18.9959 10.3462 19.0469 10.3457 19.1866 10.3457V2.34574C18.812 2.34574 18.3526 2.34875 17.5686 2.44674L18.5609 10.385ZM19.6451 10.3194C22.2729 10.0162 24.6915 8.92321 26.6593 7.42391L21.811 1.06045C20.8338 1.80494 19.7466 2.25459 18.7281 2.3721L19.6451 10.3194ZM27.5634 6.46098C27.4518 6.62831 27.3463 6.75023 27.2799 6.82135C27.249 6.85449 27.2272 6.87589 27.2212 6.88173C27.2158 6.88701 27.2185 6.88415 27.2374 6.86658C27.3035 6.80522 27.5552 6.57903 27.8349 6.2993L22.178 0.642447C22.0371 0.783425 21.9732 0.83771 21.7938 1.00424C21.6566 1.13167 21.2604 1.49328 20.907 2.02338L27.5634 6.46098Z" fill="#FCFDFD" mask="url(#path-1-inside-1_0_1)"/>
<path d="M25.1797 33.0423L31.9578 39.651L45.5141 26.4336" stroke="#FCFDFD" stroke-width="4" stroke-linecap="round"/>
</svg>
