<svg width="50" height="50" viewBox="0 0 50 50" fill="none" xmlns="http://www.w3.org/2000/svg">
<path d="M5 24.7637C5 13.718 13.9543 4.76367 25 4.76367C36.0457 4.76367 45 13.718 45 24.7637C45 35.8094 36.0457 44.7637 25 44.7637C13.9543 44.7637 5 35.8094 5 24.7637Z" fill="#4361EE"/>
<path d="M17.5824 35.7637V15.4H25.6165C27.1544 15.4 28.4669 15.6751 29.554 16.2253C30.6477 16.7689 31.4796 17.5411 32.0497 18.5421C32.6264 19.5364 32.9148 20.7064 32.9148 22.052C32.9148 23.4043 32.6231 24.5676 32.0398 25.5421C31.4564 26.5099 30.6113 27.2523 29.5043 27.7694C28.4039 28.2864 27.0715 28.5449 25.5071 28.5449H20.1278V25.0847H24.8111C25.633 25.0847 26.3158 24.972 26.8594 24.7466C27.4029 24.5212 27.8073 24.1832 28.0724 23.7324C28.3442 23.2817 28.4801 22.7215 28.4801 22.052C28.4801 21.3759 28.3442 20.8058 28.0724 20.3418C27.8073 19.8778 27.3996 19.5265 26.8494 19.2878C26.3059 19.0426 25.6198 18.9199 24.7912 18.9199H21.8878V35.7637H17.5824ZM28.5795 26.4966L33.6406 35.7637H28.8878L23.9361 26.4966H28.5795Z" fill="white"/>
</svg>
