<svg width="50" height="50" viewBox="0 0 50 50" fill="none" xmlns="http://www.w3.org/2000/svg">
<path fill-rule="evenodd" clip-rule="evenodd" d="M29.4686 45.4477C29.0357 45.4477 28.6843 45.0963 28.6843 44.6634C28.6843 44.2305 29.0357 43.8791 29.4686 43.8791H43.1077V23.3306C43.1077 22.8976 43.4592 22.5463 43.8921 22.5463C44.3249 22.5463 44.6764 22.8976 44.6764 23.3306V44.6634C44.6764 45.0965 44.3252 45.4477 43.8921 45.4477H29.4686ZM27.3715 3.57204C27.8043 3.57204 28.1558 3.92351 28.1558 4.35635C28.1558 4.78929 27.8043 5.14066 27.3715 5.14066H4.36941V21.8185C4.36941 22.2514 4.01794 22.6028 3.58509 22.6028C3.15225 22.6028 2.80078 22.2514 2.80078 21.8185V4.35635C2.80078 3.92321 3.15196 3.57204 3.58509 3.57204H27.3715ZM18.1267 19.4598C14.9505 19.4598 12.3614 16.8677 12.3614 13.6915C12.3614 10.5153 14.9505 7.92321 18.1267 7.92321C21.306 7.92321 23.895 10.5153 23.895 13.6915C23.895 16.8677 21.306 19.4598 18.1267 19.4598ZM9.8051 49.0197V47.0453C9.8051 46.3397 10.5285 45.7623 11.4123 45.7623H15.8672L16.7374 39.6579C16.7718 39.4164 16.9786 39.2368 17.2226 39.2368H19.0307C19.2747 39.2368 19.4816 39.4164 19.516 39.6579L20.3862 45.7623H24.841C25.7248 45.7623 26.4483 46.3397 26.4483 47.0453V49.0197H9.8051ZM14.7364 42.5798H7.76294C6.72588 42.5798 5.87764 41.7779 5.87764 40.7978V28.5239C5.87764 27.5439 6.72588 26.7384 7.76294 26.7384H28.4904C29.5274 26.7384 30.3757 27.5439 30.3757 28.5239V40.7978C30.3757 41.7779 29.5274 42.5798 28.4904 42.5798H21.517L21.0689 39.4366C20.9243 38.4219 20.0555 37.6682 19.0307 37.6682H17.2226C16.1978 37.6682 15.329 38.4219 15.1844 39.4366L14.7364 42.5798ZM27.3769 25.1698H8.87862C10.9511 22.3045 14.3213 20.4402 18.1267 20.4402C21.934 20.4402 25.305 22.3045 27.3769 25.1698ZM27.4485 20.4433C28.2337 15.6987 32.3543 12.0799 37.3197 12.0799C42.2878 12.0799 46.4085 15.6988 47.193 20.4432C47.215 20.5847 47.1741 20.7287 47.081 20.8374C46.9878 20.9463 46.8518 21.0088 46.7086 21.0088C43.8398 21.0088 30.8007 21.0088 27.9311 21.007C27.7884 21.007 27.6528 20.9446 27.5601 20.8363C27.4673 20.7278 27.4266 20.5843 27.4485 20.4433ZM37.3197 11.0995C34.5338 11.0995 32.2628 8.82596 32.2628 6.03998C32.2628 3.2541 34.5338 0.980469 37.3197 0.980469C40.1083 0.980469 42.3792 3.2541 42.3792 6.03998C42.3792 8.82596 40.1083 11.0995 37.3197 11.0995Z" fill="#A3ACB5"/>
</svg>
