<svg width="50" height="50" viewBox="0 0 50 50" fill="none" xmlns="http://www.w3.org/2000/svg">
<path d="M24.0166 31.9224C29.9422 32.6651 31.8086 26.3944 30.4931 21.9458C30.2685 21.0852 29.78 20.3165 29.0963 19.7476C28.4125 19.1787 27.5678 18.8383 26.6807 18.7739H23.251C19.2639 19.091 18.6773 23.9642 19.337 27.0708C19.5484 28.2522 20.1061 29.3442 20.9393 30.208C21.7725 31.0718 22.8436 31.6686 24.0166 31.9224Z" fill="#A3ACB5"/>
<path d="M34.9914 44.2193C35.6252 43.467 35.9737 42.5155 35.9758 41.5318C35.9809 41.1425 36.0041 37.2461 35.929 36.9693C35.7741 35.9111 35.2242 34.9508 34.3899 34.2818L31.5695 32.0552C31.0904 31.6829 30.4851 31.5119 29.882 31.5787C28.5757 32.8552 26.8218 33.5699 24.9953 33.5699C23.1688 33.5699 21.4149 32.8551 20.1086 31.5786C19.508 31.512 18.9051 31.683 18.4289 32.0552L15.5852 34.2974C14.7524 34.9587 14.2067 35.9157 14.0617 36.9693C13.9862 37.2234 14.0201 41.1614 14.0149 41.5318C14.0157 42.1624 14.1596 42.7846 14.4357 43.3516C14.7117 43.9186 15.1128 44.4156 15.6086 44.8052C20.0147 47.2357 26.7077 47.3442 31.9914 45.8288C33.1394 45.6317 34.1923 45.0668 34.9914 44.2193Z" fill="#A3ACB5"/>
<path d="M13.3052 24.2271L10.5786 24.2348C7.30784 24.4779 6.78492 28.4387 7.32873 30.9927C8.35021 35.96 14.8031 36.4487 16.4302 31.6488C17.2615 28.4824 16.8515 24.6585 13.3052 24.2271Z" fill="#A3ACB5"/>
<path d="M14.5547 45.9615C13.898 45.425 13.3688 44.7493 13.0053 43.9832C12.6418 43.2171 12.4532 42.3797 12.4531 41.5318C12.4866 40.7687 12.3617 37.2215 12.5547 36.5396C11.5796 36.6381 10.5953 36.4983 9.6862 36.1322C8.77715 35.7661 7.97062 35.1847 7.33596 34.438C7.09469 34.5053 6.86904 34.6195 6.6719 34.774L4.42971 36.5396C4.02131 36.8633 3.6917 37.2755 3.4657 37.7451C3.2397 38.2146 3.12322 38.7294 3.12502 39.2505V42.399C3.12315 43.1277 3.35189 43.8383 3.7785 44.4291C4.20511 45.0199 4.80771 45.4606 5.50002 45.688C7.58779 46.3778 9.77009 46.7389 11.9688 46.7583C13.0817 46.7557 14.1924 46.659 15.2891 46.4693C15.0271 46.3263 14.7809 46.1561 14.5547 45.9615Z" fill="#A3ACB5"/>
<path d="M39.3599 24.2271L36.6256 24.2348C33.364 24.4794 32.8394 28.4431 33.3834 30.9927C33.5494 32.1054 34.1096 33.1214 34.9621 33.8556C35.8145 34.5897 36.9024 34.9931 38.0275 34.9921C39.1525 34.9912 40.2397 34.5859 41.0909 33.8503C41.9421 33.1147 42.5006 32.0977 42.6646 30.9847C43.1689 27.8029 42.6934 24.6812 39.3599 24.2271Z" fill="#A3ACB5"/>
<path d="M45.5547 36.5318L43.3203 34.774C43.126 34.6196 42.9029 34.5054 42.6641 34.438C42.0959 35.1174 41.3828 35.661 40.5771 36.0287C39.7713 36.3965 38.8934 36.579 38.0079 36.563C37.8234 36.6087 37.3244 36.3987 37.4766 36.7505C37.5897 37.6878 37.5543 41.117 37.5079 42.0708C37.4419 42.8193 37.2268 43.5471 36.8753 44.2112C36.5237 44.8754 36.0429 45.4625 35.461 45.938C35.2229 46.1386 34.9666 46.3165 34.6953 46.4692C35.7942 46.6616 36.9078 46.7584 38.0234 46.7583C40.2247 46.7394 42.4097 46.3783 44.5 45.688C45.1929 45.4615 45.7961 45.0211 46.2229 44.4301C46.6497 43.839 46.878 43.1279 46.875 42.3989V39.2505C46.874 38.7271 46.7547 38.2108 46.5261 37.74C46.2974 37.2692 45.9654 36.8562 45.5547 36.5318Z" fill="#A3ACB5"/>
<path d="M22.088 8.94896L23.8748 7.16787V14.2506C23.8793 14.5584 24.0047 14.8521 24.224 15.0682C24.4433 15.2843 24.7388 15.4055 25.0467 15.4055C25.3546 15.4055 25.6501 15.2843 25.8693 15.0682C26.0886 14.8521 26.2141 14.5584 26.2185 14.2506V7.16749L28.0015 8.94514C28.1091 9.05668 28.238 9.14537 28.3807 9.20587C28.5233 9.26637 28.6767 9.29745 28.8316 9.29724C29.0616 9.29282 29.2854 9.22136 29.4754 9.09163C29.6654 8.96191 29.8134 8.77955 29.9013 8.56693C29.9892 8.3543 30.0131 8.12065 29.9701 7.89463C29.9271 7.66861 29.8191 7.46005 29.6594 7.29451L25.892 3.52865C25.7813 3.4152 25.6488 3.3252 25.5026 3.26399C25.3564 3.20278 25.1993 3.17163 25.0408 3.17238C24.8822 3.17313 24.7255 3.20577 24.5798 3.26836C24.4342 3.33094 24.3026 3.4222 24.1929 3.53669L20.4347 7.2945C20.2213 7.51497 20.1031 7.81047 20.1055 8.1173C20.1079 8.42413 20.2309 8.71771 20.4478 8.93475C20.6646 9.1518 20.9581 9.27492 21.265 9.27758C21.5718 9.28023 21.8674 9.16221 22.088 8.94896Z" fill="#A3ACB5"/>
<path d="M35.0663 15.3548L36.8524 13.5688V20.6492C36.8569 20.9571 36.9823 21.2508 37.2016 21.4669C37.4209 21.6829 37.7164 21.8041 38.0243 21.8041C38.3322 21.8041 38.6277 21.6829 38.8469 21.4668C39.0662 21.2507 39.1916 20.957 39.1961 20.6492V13.5688L40.9822 15.3552C41.2029 15.5677 41.4981 15.6852 41.8045 15.6823C42.1108 15.6794 42.4039 15.5565 42.6205 15.3398C42.8372 15.1232 42.9602 14.8302 42.9631 14.5239C42.9661 14.2175 42.8487 13.9222 42.6362 13.7015L38.8551 9.91196C38.7418 9.79954 38.6067 9.71136 38.4582 9.6528C38.3097 9.59424 38.1509 9.56652 37.9913 9.57133C37.8318 9.57615 37.6749 9.61338 37.5302 9.68078C37.3855 9.74818 37.256 9.84433 37.1496 9.96338L33.4123 13.7011C33.1992 13.9217 33.0813 14.2172 33.084 14.5239C33.0867 14.8306 33.2098 15.1239 33.4267 15.3408C33.6436 15.5576 33.9369 15.6806 34.2436 15.6832C34.5503 15.6858 34.8458 15.5679 35.0663 15.3548Z" fill="#A3ACB5"/>
<path d="M9.00982 15.3547L10.7966 13.5687V20.6491C10.8011 20.957 10.9266 21.2507 11.1459 21.4668C11.3652 21.6829 11.6607 21.804 11.9685 21.804C12.2764 21.804 12.5719 21.6828 12.7912 21.4667C13.0105 21.2506 13.1359 20.9569 13.1404 20.6491V13.5687L14.9264 15.3547C15.1469 15.568 15.4424 15.6861 15.7491 15.6836C16.0559 15.6811 16.3494 15.5582 16.5663 15.3413C16.7833 15.1244 16.9064 14.831 16.909 14.5242C16.9116 14.2175 16.7936 13.922 16.5804 13.7014L12.7993 9.9119C12.6867 9.8031 12.5538 9.7176 12.408 9.66027C12.2623 9.60295 12.1067 9.57494 11.9502 9.57784C11.7936 9.58074 11.6392 9.61451 11.4957 9.67719C11.3522 9.73988 11.2225 9.83025 11.114 9.94315L7.35576 13.701C7.14265 13.9216 7.02472 14.2171 7.02739 14.5238C7.03006 14.8305 7.1531 15.1239 7.37002 15.3408C7.58694 15.5577 7.88036 15.6807 8.18708 15.6833C8.4938 15.6858 8.78927 15.5678 9.00982 15.3547Z" fill="#A3ACB5"/>
</svg>
