<svg width="50" height="50" viewBox="0 0 50 50" fill="none" xmlns="http://www.w3.org/2000/svg">
<path fill-rule="evenodd" clip-rule="evenodd" d="M21.1393 15.2315L24.5867 13.2411C24.6778 13.1886 24.7898 13.1886 24.8808 13.2411L34.7119 18.917C34.8029 18.9695 34.859 19.0666 34.859 19.1717V30.5234C34.859 30.6284 34.8029 30.7256 34.7119 30.7781L24.8808 36.454C24.7898 36.5065 24.6778 36.5065 24.5868 36.454L14.7557 30.7781C14.6648 30.7256 14.6087 30.6284 14.6087 30.5234V19.1717C14.6087 19.0666 14.6648 18.9695 14.7557 18.917L18.2032 16.9266L28.3283 22.7723V26.8674C28.3283 26.9725 28.3844 27.0695 28.4753 27.1221C28.5664 27.1746 28.6785 27.1746 28.7695 27.1221L31.1174 25.7667C31.2084 25.7141 31.2645 25.6171 31.2645 25.512V21.0772L21.1393 15.2315ZM11.9356 18.6147L11.9351 19.1186C11.9351 19.7199 11.4443 20.2109 10.8451 20.2109V21.303C10.8451 21.9044 10.352 22.3953 9.75299 22.3953H9.72367V23.4876C9.72367 24.0866 9.23279 24.5797 8.63377 24.5797H7.21495C6.61593 24.5797 6.12279 24.0866 6.12279 23.4876V22.3953H6.09573C5.49446 22.3953 5.00348 21.9044 5.00348 21.303V20.2109C4.4022 20.2109 3.91132 19.7199 3.91132 19.1186V18.6147H11.9356ZM6.51407 17.351H4.44514C4.12309 11.8516 1.73828 12.0745 1.73828 8.34295C1.73828 4.63167 4.74691 1.62305 8.45818 1.62305C12.1695 1.62305 15.1781 4.63167 15.1781 8.34295C15.1781 12.0745 12.7933 11.8516 12.4712 17.351H10.4023V10.7375H11.1808C12.47 10.7375 13.5257 9.68177 13.5257 8.39256C13.5257 7.1003 12.4698 6.0453 11.1808 6.0453C9.88887 6.0453 8.83367 7.10059 8.83367 8.39256V9.16883H8.08269V8.39256C8.08269 7.10059 7.0275 6.0453 5.73554 6.0453C4.44661 6.0453 3.39054 7.1003 3.39054 8.39256C3.39054 9.68177 4.44632 10.7375 5.73554 10.7375H6.51407V17.351ZM8.83367 17.351H8.08269V10.7375H8.83367V17.351ZM10.4023 9.16883V8.39256C10.4023 7.96403 10.7523 7.61393 11.1808 7.61393C11.608 7.61393 11.9571 7.96432 11.9571 8.39256C11.9571 8.81932 11.6076 9.16883 11.1808 9.16883H10.4023ZM6.51407 9.16883H5.73554C5.30867 9.16883 4.95916 8.81932 4.95916 8.39256C4.95916 7.96432 5.30838 7.61393 5.73554 7.61393C6.16407 7.61393 6.51407 7.96403 6.51407 8.39256V9.16883ZM41.702 33.3502C42.4253 33.5222 43.1151 33.8079 43.7492 34.1985L45.0798 33.607L46.6469 35.1741L46.0576 36.5047C46.4483 37.1387 46.734 37.8285 46.9059 38.5541L48.2632 39.0765V41.2933L46.9059 41.8158C46.734 42.539 46.446 43.2289 46.0576 43.8629L46.6469 45.1934L45.0798 46.7607L43.7492 46.1713C43.1174 46.562 42.4253 46.8478 41.702 47.0196L41.1797 48.377H38.9628L38.4403 47.0196C37.7149 46.8478 37.025 46.5597 36.391 46.1713L35.0604 46.7607L33.4933 45.1934L34.0848 43.8629C33.6942 43.2312 33.4084 42.539 33.2343 41.8158L31.8769 41.2933V39.0765L33.2343 38.5541C33.4084 37.8285 33.6942 37.1387 34.0848 36.5047L33.4933 35.1741L35.0604 33.607L36.391 34.1985C37.025 33.8079 37.7149 33.5222 38.4382 33.3502L38.9628 31.9907H41.1797L41.702 33.3502ZM40.07 36.3172C37.9336 36.3172 36.2035 38.0474 36.2035 40.1838C36.2035 42.3203 37.9336 44.0527 40.07 44.0527C42.2065 44.0527 43.939 42.3203 43.939 40.1838C43.939 38.0474 42.2065 36.3172 40.07 36.3172ZM5.71416 28.4307C7.39622 37.4018 15.2776 44.1988 24.7338 44.1988C26.4417 44.1988 28.0983 43.9773 29.6762 43.561C30.0948 43.4506 30.5242 43.7008 30.6346 44.1193C30.745 44.5379 30.4948 44.9674 30.0762 45.0778C28.3706 45.5277 26.5799 45.7675 24.7338 45.7675C14.5018 45.7675 5.97603 38.4056 4.16759 28.6944L4.15171 28.7192C3.91818 29.0837 3.43269 29.19 3.06818 28.9565C2.70367 28.7229 2.5974 28.2375 2.83093 27.8729L4.0022 26.0449C4.12544 25.8527 4.32632 25.7236 4.5524 25.6916C4.77848 25.6595 5.0073 25.7276 5.17916 25.8779L6.81289 27.3078C7.13858 27.5929 7.17161 28.0888 6.88652 28.4145C6.60142 28.7403 6.10544 28.7732 5.77975 28.4881L5.71416 28.4307ZM45.4085 28.0575L45.4354 28.0364C45.7768 27.7702 46.27 27.8312 46.5362 28.1726C46.8024 28.5139 46.7414 29.0072 46.4 29.2733L44.688 30.6084C44.5079 30.7488 44.2755 30.8038 44.0516 30.759C43.8277 30.7141 43.6345 30.5739 43.5224 30.375L42.4565 28.4836C42.244 28.1065 42.3776 27.6278 42.7547 27.4153C43.1318 27.2028 43.6105 27.3364 43.8231 27.7134L43.8633 27.7848C44.0094 26.827 44.0851 25.846 44.0851 24.8476C44.0851 14.1673 35.4141 5.49628 24.7338 5.49628C22.4794 5.49628 20.3143 5.88246 18.3015 6.59256C17.8933 6.73658 17.4449 6.52207 17.3009 6.11393C17.1569 5.70569 17.3714 5.25736 17.7797 5.11334C19.9557 4.3456 22.2963 3.92765 24.7338 3.92765C36.2798 3.92765 45.6538 13.3016 45.6538 24.8476C45.6538 25.9389 45.5699 27.0109 45.4085 28.0575Z" fill="#A3ACB5"/>
</svg>
