<svg viewBox="0 0 16 16" xmlns="http://www.w3.org/2000/svg"><path d="m8.92606954.01413102c3.55630076-.21652132 6.37681506 2.09239195 6.58566066 5.6678702.2356792 4.06789785-3.004461 8.23735388-7.24100107 9.31611478-1.46582376.3698121-2.83775725.3276584-4.02959772-.0478751-.08622631-1.6057017.22610027-3.2784679.91398399-4.447289 1.12092639-1.90461146 2.81859544-1.74174168 3.79006495.3621443.36597816.7913529.57674665 1.7455756.63806217 2.728543.33915237-.1801166.66872578-.383225.98296738-.6016575-1.05002794-2.5484264-1.51947925-5.56631204 2.2437638-10.86624979-1.0940967-.87566032-2.7764457-1.30103902-4.87651727-1.03086612.31041551-.36214423.63998108-.72428846.99254637-1.08068375z"/><path d="m8.05999994 4.32917462c-.30466659.63998501-.18203553 1.16691399.27208395 1.17649295.45220448.00765217 1.06727088-.50585214 1.37193746-1.14774823.30465865-.63998108.18394659-1.16691399-.27017289-1.17649295-.45411559-.00765218-1.06918984.50585214-1.37384852 1.14774823zm-.30849661-1.81647011c-3.18074749 3.89928703-4.5315806 8.96356519-4.34188506 13.47984139-1.87778957-.7511142-3.25356093-2.5618393-3.39726491-4.8573279v-.0268415c-.23759817-4.07174356 3.01020596-8.24308317 7.25245972-9.3180376 1.64785922-.41579581 3.20373542-.30465872 4.50285552.2261042-.270169.7702761-.7223735 1.65168929-1.170744 2.31657331-.9388909 1.39492927-2.28783252 2.27442353-3.01212101 1.96593483-.72237737-.31041554-.54800973-1.69384301.39280006-3.09068729.21651735-.32190554.45603054-.61698923.70513052-.87566424-.30657764.04213799-.61699315.10155421-.93123084.18011657z" fill="#b80017"/></svg>