<svg width="35" height="35" viewBox="0 0 35 35" fill="none" xmlns="http://www.w3.org/2000/svg">
<path d="M22.629 20.1642L24.7611 21.3952C25.0784 21.5784 25.2738 21.9169 25.2738 22.2832V24.1289C25.2233 25.488 23.273 25.4869 23.223 24.1289V22.8752L21.0909 21.6442C20.7736 21.461 20.5782 21.1225 20.5782 20.7562V14.4219H15.1778V16.2808L15.9213 16.9314C16.3476 17.3044 16.3907 17.9522 16.0178 18.3784C15.6437 18.8058 14.9954 18.8466 14.5709 18.4748L13.4772 17.5178C13.2546 17.323 13.127 17.0417 13.127 16.7461V14.4219H9.72375L7.72656 16.4191V28.8457H12.4222V25.3593L10.29 24.1282C9.97278 23.945 9.77734 23.6066 9.77734 23.2402V17.498C9.82779 16.1389 11.7782 16.14 11.8281 17.498V22.6482L13.9603 23.8793C14.2776 24.0625 14.473 24.401 14.473 24.7673V28.8457H19.1215V25.3593L16.9893 24.1282C16.672 23.945 16.4766 23.6066 16.4766 23.2402V20.0957C16.527 18.7367 18.4774 18.7377 18.5273 20.0957V22.6482L20.6595 23.8793C20.9768 24.0625 21.1722 24.401 21.1722 24.7673V28.8457H25.2802L27.2774 26.8485V14.4219H22.629V20.1642Z" fill="white"/>
<path d="M32.0926 6.15234H32.4003C32.9665 6.15234 33.4256 5.69324 33.4256 5.12695V1.02539C33.4256 0.459102 32.9665 0 32.4003 0H2.5957C2.02941 0 1.57031 0.459102 1.57031 1.02539V5.12695C1.57031 5.69324 2.02941 6.15234 2.5957 6.15234H2.90332C4.2621 6.20402 4.26107 8.15192 2.90332 8.20312H2.5957C2.02941 8.20312 1.57031 8.66223 1.57031 9.22852V33.9746C1.57031 34.5409 2.02941 35 2.5957 35H32.4003C32.9665 35 33.4256 34.5409 33.4256 33.9746V9.22852C33.4256 8.66223 32.9665 8.20312 32.4003 8.20312H32.0926C30.7339 8.15145 30.7349 6.20355 32.0926 6.15234ZM29.3244 27.2752C29.3244 27.5472 29.2163 27.808 29.024 28.0002L26.4261 30.5981C26.2339 30.7904 25.9731 30.8984 25.7011 30.8984H6.69733C6.13104 30.8984 5.67194 30.4393 5.67194 29.873V15.9963C5.67194 15.7243 5.78002 15.4635 5.97231 15.2713L8.57018 12.6734C8.76247 12.4811 9.02326 12.373 9.2952 12.373H28.299C28.8653 12.373 29.3244 12.8321 29.3244 13.3984V27.2752Z" fill="white"/>
</svg>
