<svg width="296" height="47" viewBox="0 0 296 47" fill="none" xmlns="http://www.w3.org/2000/svg">
<path d="M18.0348 35.4126H12.2104C12.0728 35.4126 11.7946 35.275 11.7946 35.1344L9.9938 29.5882C9.85621 29.1724 9.16218 29.1724 9.0246 29.5882L7.22379 35.1344C7.22379 35.2719 6.94556 35.4126 6.80798 35.4126H0.983628C0.567821 35.4126 0.289597 35.966 0.705403 36.2442L5.41992 39.7113C5.55751 39.8489 5.69814 39.9895 5.5575 40.2647L3.7567 45.8108C3.61911 46.2266 4.1725 46.6424 4.45072 46.3642L9.16524 42.8971C9.30283 42.7595 9.58105 42.7595 9.71863 42.8971L14.4331 46.3642C14.849 46.6424 15.2648 46.2266 15.1272 45.8108L13.3264 40.2647C13.3264 40.1271 13.3264 39.8489 13.464 39.7113L18.1785 36.2442C18.7288 35.969 18.5882 35.4126 18.0348 35.4126Z" fill="#FF5B14"/>
<path d="M36.7525 35.4126H30.9282C30.7906 35.4126 30.5124 35.275 30.5124 35.1344L28.7116 29.5882C28.574 29.1724 27.88 29.1724 27.7424 29.5882L25.9416 35.1344C25.9416 35.2719 25.6633 35.4126 25.5258 35.4126H19.7014C19.2856 35.4126 19.0074 35.966 19.4232 36.2442L24.1377 39.7113C24.2753 39.8489 24.4159 39.9895 24.2753 40.2647L22.4745 45.8108C22.3369 46.2266 22.8903 46.6424 23.1685 46.3642L27.883 42.8971C28.0206 42.7595 28.2988 42.7595 28.4364 42.8971L33.1509 46.3642C33.5667 46.6424 33.9825 46.2266 33.845 45.8108L32.0441 40.2647C32.0441 40.1271 32.0441 39.8489 32.1817 39.7113L36.8962 36.2442C37.3059 35.969 37.1683 35.4126 36.7525 35.4126Z" fill="#FF5B14"/>
<path d="M55.8824 35.4126H50.0581C49.9205 35.4126 49.6423 35.275 49.6423 35.1344L47.8415 29.5882C47.7039 29.1724 47.0098 29.1724 46.8723 29.5882L45.0714 35.1344C45.0714 35.2719 44.7932 35.4126 44.6556 35.4126H38.8313C38.4155 35.4126 38.1373 35.966 38.5531 36.2442L43.2676 39.7113C43.4052 39.8489 43.5458 39.9895 43.4052 40.2647L41.6043 45.8108C41.4668 46.2266 42.0202 46.6424 42.2984 46.3642L47.0129 42.8971C47.1505 42.7595 47.4287 42.7595 47.5663 42.8971L52.2808 46.3642C52.6966 46.6424 53.1124 46.2266 52.9748 45.8108L51.174 40.2647C51.174 40.1271 51.174 39.8489 51.3116 39.7113L56.0261 36.2442C56.4389 35.969 56.2982 35.4126 55.8824 35.4126Z" fill="#FF5B14"/>
<path d="M74.8775 35.4126H69.0532C68.9156 35.4126 68.6374 35.275 68.6374 35.1344L66.8366 29.5882C66.699 29.1724 66.0049 29.1724 65.8674 29.5882L64.0666 35.1344C64.0666 35.2719 63.7883 35.4126 63.6507 35.4126H57.8264C57.4106 35.4126 57.1324 35.966 57.5482 36.2442L62.2627 39.7113C62.4003 39.8489 62.5409 39.9895 62.4003 40.2647L60.5995 45.8108C60.4619 46.2266 61.0153 46.6424 61.2935 46.3642L66.008 42.8971C66.1456 42.7595 66.4238 42.7595 66.5614 42.8971L71.2759 46.3642C71.6917 46.6424 72.1075 46.2266 71.9699 45.8108L70.1691 40.2647C70.1691 40.1271 70.1691 39.8489 70.3067 39.7113L75.0212 36.2442C75.4309 35.969 75.2933 35.4126 74.8775 35.4126Z" fill="#FF5B14"/>
<path d="M93.7329 36.2474C94.1487 35.9691 93.8705 35.4157 93.4547 35.4157H87.6303C87.4928 35.4157 87.2145 35.2782 87.2145 35.1375L85.4137 29.5914C85.2761 29.1756 84.5821 29.1756 84.4445 29.5914L82.6437 35.1375C82.6437 35.2751 82.3655 35.4157 82.2279 35.4157H76.4035C75.9877 35.4157 75.7095 35.9691 76.1253 36.2474L80.8398 39.7145C80.9774 39.852 81.1181 39.9927 80.9774 40.2678L79.1766 45.814C79.039 46.2298 79.5924 46.6456 79.8706 46.3674L84.5852 42.9003C84.7227 42.7627 85.001 42.7627 85.1385 42.9003L89.8531 46.3674C90.2689 46.6456 90.6847 46.2298 90.5471 45.814L88.7463 40.2678C88.7463 40.1303 88.7463 39.852 88.8839 39.7145L93.7329 36.2474Z" fill="#FF5B14"/>
<path d="M5.34091 17.7013C4.67424 17.7013 4.07386 17.5688 3.53977 17.3036C3.00568 17.0384 2.57765 16.6748 2.25568 16.2127C1.93371 15.7506 1.75758 15.2241 1.72727 14.6331H3.09091C3.14394 15.1597 3.38258 15.5953 3.80682 15.94C4.23485 16.2809 4.74621 16.4513 5.34091 16.4513C5.81818 16.4513 6.24242 16.3396 6.61364 16.1161C6.98864 15.8926 7.2822 15.5858 7.49432 15.1956C7.71023 14.8017 7.81818 14.3566 7.81818 13.8604C7.81818 13.3528 7.70644 12.9002 7.48295 12.5025C7.26326 12.1009 6.96023 11.7847 6.57386 11.5536C6.1875 11.3225 5.74621 11.2051 5.25 11.2013C4.89394 11.1975 4.52841 11.2525 4.15341 11.3661C3.77841 11.4759 3.4697 11.618 3.22727 11.7922L1.90909 11.6331L2.61364 5.90587H8.65909V7.15587H3.79545L3.38636 10.5877H3.45455C3.69318 10.3983 3.99242 10.2411 4.35227 10.1161C4.71212 9.9911 5.08712 9.9286 5.47727 9.9286C6.18939 9.9286 6.82386 10.0991 7.38068 10.44C7.94129 10.7771 8.38068 11.2392 8.69886 11.8263C9.02083 12.4134 9.18182 13.0839 9.18182 13.8377C9.18182 14.5801 9.01515 15.243 8.68182 15.8263C8.35227 16.4059 7.89773 16.8642 7.31818 17.2013C6.73864 17.5347 6.07955 17.7013 5.34091 17.7013ZM22.5071 8.81496C22.4389 8.23921 22.1624 7.79224 21.6776 7.47405C21.1927 7.15587 20.598 6.99678 19.8935 6.99678C19.3783 6.99678 18.9276 7.08011 18.5412 7.24678C18.1586 7.41345 17.8594 7.64261 17.6435 7.93428C17.4313 8.22595 17.3253 8.55739 17.3253 8.9286C17.3253 9.23921 17.3991 9.50625 17.5469 9.72974C17.6984 9.94943 17.8916 10.1331 18.1264 10.2809C18.3613 10.4248 18.6075 10.5441 18.8651 10.6388C19.1226 10.7297 19.3594 10.8036 19.5753 10.8604L20.7571 11.1786C21.0601 11.2581 21.3973 11.368 21.7685 11.5081C22.1435 11.6483 22.5014 11.8396 22.8423 12.082C23.187 12.3206 23.4711 12.6275 23.6946 13.0025C23.9181 13.3775 24.0298 13.8377 24.0298 14.3831C24.0298 15.0119 23.8651 15.5801 23.5355 16.0877C23.2098 16.5953 22.7325 16.9987 22.1037 17.2979C21.4787 17.5972 20.7192 17.7468 19.8253 17.7468C18.992 17.7468 18.2704 17.6123 17.6605 17.3434C17.0545 17.0744 16.5772 16.6994 16.2287 16.2184C15.884 15.7373 15.6889 15.1786 15.6435 14.5422H17.098C17.1359 14.9816 17.2836 15.3453 17.5412 15.6331C17.8026 15.9172 18.1321 16.1294 18.5298 16.2695C18.9313 16.4059 19.3632 16.4741 19.8253 16.4741C20.3632 16.4741 20.8461 16.3869 21.2741 16.2127C21.7022 16.0347 22.0412 15.7884 22.2912 15.4741C22.5412 15.1559 22.6662 14.7847 22.6662 14.3604C22.6662 13.9741 22.5582 13.6597 22.3423 13.4172C22.1264 13.1748 21.8423 12.9778 21.4901 12.8263C21.1378 12.6748 20.7571 12.5422 20.348 12.4286L18.9162 12.0195C18.0071 11.7581 17.2874 11.385 16.7571 10.9002C16.2268 10.4153 15.9616 9.78087 15.9616 8.99678C15.9616 8.34527 16.1378 7.77708 16.4901 7.29224C16.8461 6.8036 17.3234 6.42481 17.9219 6.15587C18.5241 5.88315 19.1965 5.74678 19.9389 5.74678C20.6889 5.74678 21.3556 5.88125 21.9389 6.15019C22.5223 6.41534 22.9844 6.77898 23.3253 7.2411C23.67 7.70322 23.8518 8.22784 23.8707 8.81496H22.5071ZM29.9602 8.81496V9.95133H25.4375V8.81496H29.9602ZM26.7557 6.72405H28.0966V15.0422C28.0966 15.421 28.1515 15.7051 28.2614 15.8945C28.375 16.0801 28.5189 16.2051 28.6932 16.2695C28.8712 16.3301 29.0587 16.3604 29.2557 16.3604C29.4034 16.3604 29.5246 16.3528 29.6193 16.3377C29.714 16.3188 29.7898 16.3036 29.8466 16.2922L30.1193 17.4968C30.0284 17.5309 29.9015 17.565 29.7386 17.5991C29.5758 17.6369 29.3693 17.6559 29.1193 17.6559C28.7405 17.6559 28.3693 17.5744 28.0057 17.4116C27.6458 17.2487 27.3466 17.0006 27.108 16.6672C26.8731 16.3339 26.7557 15.9134 26.7557 15.4059V6.72405ZM34.5455 17.7468C33.9924 17.7468 33.4905 17.6426 33.0398 17.4343C32.589 17.2222 32.2311 16.9172 31.9659 16.5195C31.7008 16.118 31.5682 15.6331 31.5682 15.065C31.5682 14.565 31.6667 14.1597 31.8636 13.8491C32.0606 13.5347 32.3239 13.2884 32.6534 13.1104C32.983 12.9324 33.3466 12.7998 33.7443 12.7127C34.1458 12.6218 34.5492 12.5498 34.9545 12.4968C35.4848 12.4286 35.9148 12.3775 36.2443 12.3434C36.5777 12.3055 36.8201 12.243 36.9716 12.1559C37.1269 12.0688 37.2045 11.9172 37.2045 11.7013V11.6559C37.2045 11.0953 37.0511 10.6597 36.7443 10.3491C36.4413 10.0384 35.9811 9.88315 35.3636 9.88315C34.7235 9.88315 34.2216 10.0233 33.858 10.3036C33.4943 10.5839 33.2386 10.8831 33.0909 11.2013L31.8182 10.7468C32.0455 10.2165 32.3485 9.8036 32.7273 9.50815C33.1098 9.2089 33.5265 9.00057 33.9773 8.88315C34.4318 8.76193 34.8788 8.70133 35.3182 8.70133C35.5985 8.70133 35.9205 8.73542 36.2841 8.8036C36.6515 8.86799 37.0057 9.00246 37.3466 9.20701C37.6913 9.41155 37.9773 9.72027 38.2045 10.1331C38.4318 10.546 38.5455 11.0991 38.5455 11.7922V17.5422H37.2045V16.3604H37.1364C37.0455 16.5498 36.8939 16.7525 36.6818 16.9684C36.4697 17.1843 36.1875 17.368 35.8352 17.5195C35.483 17.671 35.053 17.7468 34.5455 17.7468ZM34.75 16.5422C35.2803 16.5422 35.7273 16.4381 36.0909 16.2297C36.4583 16.0214 36.7348 15.7525 36.9205 15.4229C37.1098 15.0934 37.2045 14.7468 37.2045 14.3831V13.1559C37.1477 13.2241 37.0227 13.2866 36.8295 13.3434C36.6402 13.3964 36.4205 13.4438 36.1705 13.4854C35.9242 13.5233 35.6837 13.5574 35.4489 13.5877C35.2178 13.6142 35.0303 13.6369 34.8864 13.6559C34.5379 13.7013 34.2121 13.7752 33.9091 13.8775C33.6098 13.9759 33.3674 14.1256 33.1818 14.3263C33 14.5233 32.9091 14.7922 32.9091 15.1331C32.9091 15.5991 33.0814 15.9513 33.4261 16.19C33.7746 16.4248 34.2159 16.5422 34.75 16.5422ZM40.9929 17.5422V8.81496H42.2884V10.1331H42.3793C42.5384 9.70133 42.8262 9.35095 43.2429 9.08201C43.6596 8.81307 44.1293 8.6786 44.652 8.6786C44.7505 8.6786 44.8736 8.68049 45.0213 8.68428C45.169 8.68807 45.2808 8.69375 45.3565 8.70133V10.065C45.3111 10.0536 45.2069 10.0366 45.044 10.0138C44.8849 9.98731 44.7164 9.97405 44.5384 9.97405C44.1141 9.97405 43.7353 10.0631 43.402 10.2411C43.0724 10.4153 42.8111 10.6578 42.6179 10.9684C42.4285 11.2752 42.3338 11.6256 42.3338 12.0195V17.5422H40.9929ZM54.9915 17.7241C54.2036 17.7241 53.5123 17.5366 52.9176 17.1616C52.3267 16.7866 51.8646 16.2619 51.5312 15.5877C51.2017 14.9134 51.0369 14.1256 51.0369 13.2241C51.0369 12.315 51.2017 11.5214 51.5312 10.8434C51.8646 10.1653 52.3267 9.63883 52.9176 9.26383C53.5123 8.88883 54.2036 8.70133 54.9915 8.70133C55.7794 8.70133 56.4688 8.88883 57.0597 9.26383C57.6544 9.63883 58.1165 10.1653 58.446 10.8434C58.7794 11.5214 58.946 12.315 58.946 13.2241C58.946 14.1256 58.7794 14.9134 58.446 15.5877C58.1165 16.2619 57.6544 16.7866 57.0597 17.1616C56.4688 17.5366 55.7794 17.7241 54.9915 17.7241ZM54.9915 16.5195C55.59 16.5195 56.0824 16.3661 56.4688 16.0593C56.8551 15.7525 57.1411 15.3491 57.3267 14.8491C57.5123 14.3491 57.6051 13.8074 57.6051 13.2241C57.6051 12.6407 57.5123 12.0972 57.3267 11.5934C57.1411 11.0896 56.8551 10.6824 56.4688 10.3718C56.0824 10.0612 55.59 9.90587 54.9915 9.90587C54.393 9.90587 53.9006 10.0612 53.5142 10.3718C53.1278 10.6824 52.8419 11.0896 52.6562 11.5934C52.4706 12.0972 52.3778 12.6407 52.3778 13.2241C52.3778 13.8074 52.4706 14.3491 52.6562 14.8491C52.8419 15.3491 53.1278 15.7525 53.5142 16.0593C53.9006 16.3661 54.393 16.5195 54.9915 16.5195ZM62.3338 12.2922V17.5422H60.9929V8.81496H62.2884V10.1786H62.402C62.6065 9.73542 62.9171 9.37936 63.3338 9.11042C63.7505 8.83769 64.2884 8.70133 64.9474 8.70133C65.5384 8.70133 66.0554 8.82254 66.4986 9.06496C66.9418 9.3036 67.2865 9.66724 67.5327 10.1559C67.7789 10.6407 67.902 11.2544 67.902 11.9968V17.5422H66.5611V12.0877C66.5611 11.4021 66.383 10.868 66.027 10.4854C65.6709 10.0991 65.1823 9.90587 64.5611 9.90587C64.133 9.90587 63.7505 9.99868 63.4134 10.1843C63.08 10.3699 62.8168 10.6407 62.6236 10.9968C62.4304 11.3528 62.3338 11.7847 62.3338 12.2922Z" fill="white"/>
<path d="M148.371 2.85645H141.712V44.1407H148.371V2.85645Z" fill="white"/>
<path d="M171.495 44.1408H178.153V16.1738H171.495V30.9436H171.615C171.615 37.119 166.288 37.7224 164.836 37.7224C160.962 37.7224 160.116 33.9685 160.116 31.6698V16.1738H153.457V31.9127C153.457 35.7867 154.789 38.9345 156.725 41.236C158.54 43.0515 161.445 44.1408 164.716 44.1408C167.017 44.1408 170.042 43.5347 171.495 41.8393V44.1408Z" fill="white"/>
<path d="M184.569 44.1409H191.227V22.8326H196.071V16.1739H191.227V6.24731H184.569V16.1739H179.605V22.8326H184.569V44.1409Z" fill="white"/>
<path d="M211.567 44.0206C215.32 44.0206 218.831 42.6883 221.493 40.2667L222.462 39.2975L217.862 34.6973L216.893 35.9068C215.441 37.2391 213.625 37.9653 211.567 37.9653C206.966 37.9653 203.576 34.6973 203.576 29.8542C203.576 25.011 206.844 21.8633 211.567 21.8633C213.625 21.8633 215.441 22.4693 216.893 23.9217L217.862 24.7681L222.219 20.4108L221.25 19.4417C218.465 17.1402 215.198 15.6878 211.564 15.6878C203.333 15.5677 197.277 21.5001 197.277 29.8515C197.28 37.725 203.455 44.0206 211.567 44.0206Z" fill="white"/>
<path d="M232.269 28.522C232.269 22.3466 236.869 21.7432 238.321 21.7432C242.195 21.7432 242.195 25.497 242.195 27.7958V44.1408H248.854V27.6756C248.974 24.0446 248.128 20.774 245.949 18.5954C244.134 16.7799 241.712 15.6906 238.685 15.6906C236.383 15.6906 233.964 16.2966 232.146 17.992V2.85913H225.487V44.1434H232.146V28.5246H232.269V28.522Z" fill="white"/>
<path d="M206.482 29.8544C206.482 32.5189 208.661 34.5747 211.203 34.5747C213.867 34.5747 215.923 32.3961 215.923 29.8544C215.923 27.1898 213.744 25.134 211.203 25.134C208.661 25.134 206.482 27.1925 206.482 29.8544Z" fill="#E52421"/>
<path d="M122.945 44.0206C128.272 44.0206 133.358 41.9621 136.746 38.2083L137.715 37.2391L133.358 32.6389L132.511 33.8484C130.09 36.27 126.459 37.7224 122.948 37.7224C115.443 37.7224 110.114 31.9101 110.114 24.0419C110.114 16.051 115.44 10.3615 122.825 10.3615C126.336 10.3615 129.604 11.8139 132.389 14.2355L133.358 15.2046L137.715 10.8474L136.746 9.87824C133.115 6.00425 128.149 4.06592 122.945 4.06592C112.05 4.18606 103.938 12.6629 103.938 24.0419C103.938 35.4209 112.05 44.0206 122.945 44.0206Z" fill="white"/>
</svg>
