<svg width="72" height="73" viewBox="0 0 72 73" fill="none" xmlns="http://www.w3.org/2000/svg">
<g clip-path="url(#clip0_9862_216)">
<path d="M44.7311 43.745L43.365 46.1171C42.9535 46.8317 42.1917 47.2721 41.367 47.2721H30.902C30.0774 47.2721 29.3156 46.8317 28.904 46.1171L27.5378 43.745H44.7311ZM48.5555 37.1044L46.1468 41.2868H26.1222L23.7136 37.1044H48.5555ZM46.2353 30.6107L48.5594 34.6463H23.7097L26.0338 30.6107H46.2353ZM41.367 24.4719C42.1917 24.4719 42.9535 24.9123 43.365 25.6269L44.8196 28.1525H27.4495L28.904 25.6269C29.3156 24.9123 30.0774 24.4719 30.902 24.4719H41.367Z" fill="#00435B"/>
<path d="M15.6714 23.3712C14.5121 17.75 14.2634 13.4385 15.0127 10.3078C15.4584 8.44583 16.2731 6.92686 17.5121 5.83096C18.8201 4.67396 20.4738 4.10622 22.332 4.10622C25.3973 4.10622 28.6198 5.50408 32.0636 8.15963C33.4682 9.24278 34.9261 10.5483 36.4401 12.0771C36.5606 11.9219 36.6968 11.7756 36.8486 11.6403C41.1291 7.82587 44.7328 5.4559 47.8151 4.54211C49.6479 3.99877 51.3686 3.947 52.9356 4.47433C54.5896 5.03096 55.9075 6.1816 56.8374 7.79328C58.3719 10.4531 58.7766 13.9482 58.2045 18.2637C57.9713 20.0227 57.5726 21.9388 57.0093 24.015C57.2219 24.0406 57.4349 24.0878 57.6458 24.1576C63.0767 25.9574 66.9224 27.8928 69.2507 30.1046C70.6359 31.4206 71.5405 32.8856 71.8675 34.5074C72.2127 36.2191 71.8761 37.9361 70.9474 39.5465C69.4157 42.2025 66.5993 44.2973 62.5871 45.9565C60.976 46.6227 59.1532 47.2261 57.1166 47.7688C57.2095 47.9786 57.2816 48.2014 57.3298 48.4352C58.4891 54.0564 58.7379 58.3679 57.9885 61.4986C57.5429 63.3605 56.7281 64.8795 55.4892 65.9754C54.1812 67.1324 52.5274 67.7002 50.6693 67.7002C47.6039 67.7002 44.3814 66.3023 40.9377 63.6468C39.5181 62.5521 38.0441 61.2302 36.5128 59.6804C36.3552 59.9269 36.1617 60.156 35.9329 60.3599C31.6525 64.1744 28.0487 66.5443 24.9664 67.4581C23.1337 68.0015 21.4129 68.0532 19.846 67.5259C18.1919 66.9693 16.874 65.8186 15.9442 64.2069C14.4096 61.5471 14.0049 58.052 14.5771 53.7365C14.8187 51.9139 15.238 49.9227 15.8339 47.7595C15.601 47.7359 15.3671 47.6866 15.1358 47.61C9.70483 45.8102 5.85916 43.8748 3.5309 41.663C2.14564 40.347 1.24105 38.882 0.914049 37.2602C0.568897 35.5485 0.905447 33.8316 1.8342 32.2211C3.3659 29.5651 6.18224 27.4703 10.1945 25.8111C11.8536 25.125 13.7372 24.5056 15.8476 23.9505C15.7724 23.7664 15.713 23.5729 15.6714 23.3712Z" fill="#002B3B"/>
<path d="M53.5408 48.9875C54.0808 48.8918 54.5982 49.238 54.7188 49.7691L54.7254 49.8006L54.783 50.0995C56.6496 59.9134 55.3347 64.8203 50.8382 64.8203C46.4388 64.8203 40.8385 60.6332 34.0372 52.259C33.8869 52.074 33.8058 51.8424 33.8078 51.604C33.8128 51.0488 34.2583 50.6005 34.8096 50.5885L34.8416 50.5883L35.1997 50.5908C38.0618 50.6063 40.8441 50.5065 43.5467 50.2915C46.737 50.0375 50.0683 49.6029 53.5408 48.9875ZM22.6605 41.5692L22.6778 41.5983L22.8575 41.9119C24.2977 44.4157 25.7982 46.7922 27.3589 49.0412C29.197 51.6898 31.264 54.3711 33.56 57.0851C33.9152 57.505 33.8746 58.1282 33.4739 58.4988L33.4479 58.5221L33.2168 58.721C25.6204 65.2299 20.683 66.5293 18.4046 62.6192C16.1745 58.7917 16.983 51.8324 20.8303 41.7412C20.9149 41.5195 21.0737 41.3339 21.2798 41.2163C21.7615 40.9414 22.3723 41.1001 22.6605 41.5692ZM57.3956 27.0879L57.4267 27.0981L57.7126 27.1968C67.0892 30.4586 70.6516 34.0431 68.3999 37.9504C66.1976 41.7719 59.7952 44.5542 49.1928 46.2974C48.9564 46.3363 48.7138 46.2911 48.5072 46.1697C48.0193 45.8829 47.8563 45.2548 48.1432 44.767C49.6617 42.1839 51.0294 39.6136 52.2462 37.0563C53.6262 34.156 54.9213 31.0429 56.1314 27.717C56.3149 27.2128 56.8538 26.9389 57.3644 27.0789L57.3956 27.0879ZM24.2742 25.4457C24.7621 25.7325 24.9251 26.3605 24.6383 26.8484C23.1197 29.4315 21.7521 32.0018 20.5353 34.5591C19.1553 37.4594 17.8602 40.5725 16.6501 43.8983C16.4628 44.4129 15.9055 44.6875 15.3859 44.5274L15.3547 44.5173L15.0688 44.4186C5.69224 41.1568 2.12984 37.5723 4.3816 33.665C6.5839 29.8435 12.9863 27.0612 23.5887 25.3179C23.8251 25.2791 24.0677 25.3243 24.2742 25.4457ZM54.3768 9.38049C56.607 13.2079 55.7984 20.1672 51.9511 30.2584C51.8666 30.4802 51.7077 30.6657 51.5016 30.7834C51.0199 31.0583 50.4092 30.8995 50.1209 30.4305L50.1037 30.4014L49.924 30.0877C48.4838 27.5839 46.9833 25.2075 45.4225 22.9585C43.5844 20.3098 41.5174 17.6285 39.2215 14.9145C38.8663 14.4947 38.9068 13.8715 39.3075 13.5008L39.3336 13.4775L39.5646 13.2787C47.1611 6.76976 52.0985 5.47036 54.3768 9.38049ZM22.3275 7.05127C26.7269 7.05127 32.3273 11.2384 39.1286 19.6126C39.2789 19.7976 39.3599 20.0292 39.3579 20.2676C39.353 20.8228 38.9074 21.271 38.3561 21.2831L38.3242 21.2833L37.966 21.2807C35.104 21.2652 32.3217 21.365 29.619 21.5801C26.4288 21.834 23.0974 22.2687 19.6249 22.8841C19.0849 22.9798 18.5675 22.6336 18.4469 22.1024L18.4403 22.071L18.3828 21.7721C16.5161 11.9582 17.831 7.05127 22.3275 7.05127Z" fill="#FF4154"/>
<path d="M31.7437 24.5999H40.528C41.8127 24.5999 42.9993 25.287 43.6387 26.4012L48.0494 34.0866C48.6839 35.1922 48.6839 36.5515 48.0494 37.6571L43.6387 45.3425C42.9993 46.4568 41.8127 47.1439 40.528 47.1439H31.7437C30.459 47.1439 29.2725 46.4568 28.633 45.3425L24.2223 37.6571C23.5878 36.5515 23.5878 35.1922 24.2223 34.0866L28.633 26.4012C29.2725 25.287 30.459 24.5999 31.7437 24.5999ZM39.1892 26.9195C40.4746 26.9195 41.6616 27.6073 42.3008 28.7225L45.3765 34.0883C46.0098 35.193 46.0098 36.5507 45.3765 37.6554L42.3008 43.0213C41.6616 44.1364 40.4746 44.8242 39.1892 44.8242H33.0825C31.7972 44.8242 30.6101 44.1364 29.9709 43.0213L26.8952 37.6554C26.262 36.5507 26.262 35.193 26.8952 34.0883L29.9709 28.7225C30.6101 27.6073 31.7972 26.9195 33.0825 26.9195H39.1892ZM37.7462 29.4566H34.5255C33.2415 29.4566 32.0555 30.143 31.4158 31.2564L29.7905 34.0851C29.1548 35.1915 29.1548 36.5523 29.7905 37.6586L31.4158 40.4874C32.0555 41.6007 33.2415 42.2871 34.5255 42.2871H37.7462C39.0302 42.2871 40.2163 41.6007 40.856 40.4874L42.4813 37.6586C43.117 36.5523 43.117 35.1915 42.4813 34.0851L40.856 31.2564C40.2163 30.143 39.0302 29.4566 37.7462 29.4566ZM36.3567 31.885C37.6398 31.885 38.8251 32.5704 39.4651 33.6824L39.6956 34.0827C40.333 35.1903 40.333 36.5534 39.6956 37.661L39.4651 38.0613C38.8251 39.1733 37.6398 39.8587 36.3567 39.8587H35.915C34.632 39.8587 33.4467 39.1733 32.8066 38.0613L32.5762 37.661C31.9387 36.5534 31.9387 35.1903 32.5762 34.0827L32.8066 33.6824C33.4467 32.5704 34.632 31.885 35.915 31.885H36.3567ZM36.1365 34.2771C35.5654 34.2771 35.0387 34.581 34.7536 35.0745C34.4685 35.5678 34.4685 36.1759 34.7536 36.6692C35.0387 37.1627 35.5654 37.4666 36.1353 37.4666C36.7064 37.4666 37.233 37.1627 37.5181 36.6692C37.8032 36.1759 37.8032 35.5678 37.5181 35.0745C37.233 34.581 36.7064 34.2771 36.1365 34.2771ZM23.1978 35.8719H26.069H23.1978Z" fill="#FFD94C"/>
</g>
<defs>
<clipPath id="clip0_9862_216">
<rect width="72" height="72" fill="white" transform="translate(0 0.365723)"/>
</clipPath>
</defs>
</svg>
