<svg width="80" height="80" viewBox="0 0 80 80" fill="none" xmlns="http://www.w3.org/2000/svg">
<path d="M0 37.1014C0 19.6117 0 10.8668 5.43338 5.43338C10.8668 0 19.6117 0 37.1014 0H42.9C60.3898 0 69.1347 0 74.5681 5.43338C80.0014 10.8668 80.0014 19.6117 80.0014 37.1014V42.9C80.0014 60.3898 80.0014 69.1347 74.5681 74.5681C69.1347 80.0014 60.3898 80.0014 42.9 80.0014H37.1014C19.6117 80.0014 10.8668 80.0014 5.43338 74.5681C0 69.1347 0 60.3898 0 42.9V37.1014Z" fill="#1B1D1E"/>
<g clip-path="url(#clip0_12476_11704)">
<rect x="18.5508" y="18.5508" width="42.9" height="42.9" rx="10.296" fill="#00D8FF"/>
<path d="M40.6908 29.9006C42.5402 28.4856 44.7209 27.6539 46.5266 28.6964C48.3324 29.739 48.7025 32.0433 48.4017 34.3526C48.3646 34.6384 48.3164 34.9321 48.2575 35.2331C48.5477 35.3326 48.8262 35.4378 49.0923 35.5485C51.2425 36.4427 53.0531 37.9153 53.0531 40.0004C53.0531 42.0855 51.2425 43.5581 49.0923 44.4524C48.8262 44.5631 48.5477 44.6683 48.2575 44.7678C48.3164 45.0688 48.3646 45.3625 48.4017 45.6484C48.7025 47.9577 48.3324 50.262 46.5266 51.3046C44.7209 52.347 42.5402 51.5154 40.6908 50.1004C40.4619 49.9252 40.2315 49.7367 40.0004 49.5352C39.769 49.7368 39.5387 49.9253 39.3096 50.1006C37.4601 51.5157 35.2794 52.3472 33.4737 51.3048C31.668 50.2622 31.2979 47.9579 31.5986 45.6486C31.6359 45.3627 31.684 45.0689 31.7429 44.7678C31.4527 44.6683 31.1743 44.5631 30.9081 44.4524C28.7578 43.5581 26.9473 42.0855 26.9473 40.0004C26.9473 37.9153 28.7578 36.4427 30.9081 35.5485C31.1743 35.4378 31.4527 35.3325 31.7429 35.2331C31.684 34.932 31.6358 34.6382 31.5986 34.3523C31.2979 32.0431 31.668 29.7387 33.4737 28.6962C35.2794 27.6537 37.4601 28.4853 39.3096 29.9004C39.5387 30.0756 39.769 30.2642 40.0004 30.4658C40.2315 30.2643 40.4619 30.0758 40.6908 29.9006ZM34.0416 45.3841C34.0059 45.5799 33.9761 45.7703 33.952 45.9551C33.675 48.0823 34.1958 48.9812 34.6604 49.2494C35.1249 49.5176 36.1638 49.5193 37.8675 48.2158C38.0155 48.1026 38.1655 47.9815 38.3171 47.8526C37.7635 47.2281 37.2111 46.5342 36.6662 45.7751C35.7365 45.6828 34.8593 45.5513 34.0416 45.3841ZM45.9588 45.3841C45.1411 45.5513 44.2641 45.6828 43.3343 45.7751C42.7895 46.5341 42.2371 47.228 41.6834 47.8526C41.835 47.9814 41.9849 48.1023 42.1329 48.2155C43.8365 49.519 44.8755 49.5174 45.34 49.2492C45.8045 48.981 46.3253 48.082 46.0484 45.9549C46.0243 45.7701 45.9945 45.5798 45.9588 45.3841ZM40.0001 36.4405C39.2978 36.4405 38.6238 36.4614 37.9799 36.501C37.6236 37.0389 37.2685 37.6123 36.9172 38.2207C36.5661 38.8289 36.2471 39.4231 35.9594 40.0005C36.2471 40.5779 36.5661 41.172 36.9172 41.7803C37.2684 42.3887 37.6235 42.962 37.9798 43.4999C38.6238 43.5395 39.2978 43.5603 40.0001 43.5603C40.7026 43.5603 41.3767 43.5395 42.0207 43.4999C42.377 42.9621 42.732 42.3888 43.0831 41.7805C43.4344 41.1722 43.7533 40.578 44.0411 40.0005C43.7533 39.423 43.4344 38.8288 43.0831 38.2204C42.732 37.6121 42.3768 37.0388 42.0206 36.501C41.3766 36.4614 40.7026 36.4405 40.0001 36.4405ZM32.3585 37.532C32.1711 37.5989 31.9914 37.6683 31.8193 37.7398C29.8387 38.5635 29.3205 39.464 29.3205 40.0004C29.3205 40.5368 29.8387 41.4374 31.8193 42.261C31.9914 42.3326 32.1712 42.402 32.3586 42.4689C32.6226 41.6771 32.9473 40.8518 33.3322 40.0005C32.9473 39.1491 32.6225 38.3238 32.3585 37.532ZM47.6419 37.532C47.3779 38.3238 47.0532 39.1491 46.6683 40.0005C47.0531 40.8518 47.3779 41.6771 47.6419 42.4689C47.8293 42.4019 48.0091 42.3326 48.181 42.261C50.1617 41.4374 50.6798 40.5368 50.6798 40.0004C50.6798 39.464 50.1617 38.5635 48.181 37.7398C48.0091 37.6683 47.8293 37.5989 47.6419 37.532ZM40 38.2205C40.9831 38.2205 41.78 39.0175 41.78 40.0005C41.78 40.9836 40.9831 41.7804 40 41.7804C39.017 41.7804 38.2201 40.9836 38.2201 40.0005C38.2201 39.0175 39.017 38.2205 40 38.2205ZM34.6604 30.7515C34.1958 31.0197 33.675 31.9187 33.952 34.0459C33.9761 34.2306 34.0059 34.421 34.0416 34.6167C34.8594 34.4495 35.7365 34.318 36.6663 34.2257C37.2111 33.4667 37.7636 32.7729 38.3173 32.1483C38.1655 32.0195 38.0155 31.8985 37.8675 31.7852C36.1638 30.4817 35.1249 30.4833 34.6604 30.7515ZM45.34 30.7517C44.8755 30.4836 43.8365 30.482 42.1329 31.7855C41.9849 31.8986 41.835 32.0196 41.6834 32.1484C42.2371 32.7729 42.7894 33.4668 43.3342 34.2257C44.2639 34.3181 45.1411 34.4495 45.9588 34.6167C45.9945 34.4211 46.0243 34.2308 46.0484 34.0461C46.3253 31.9189 45.8045 31.0199 45.34 30.7517Z" fill="white"/>
</g>
<defs>
<clipPath id="clip0_12476_11704">
<rect width="42.9" height="42.9" fill="white" transform="translate(18.5508 18.5508)"/>
</clipPath>
</defs>
</svg>
