<svg width="43" height="43" viewBox="0 0 43 43" fill="none" xmlns="http://www.w3.org/2000/svg">
<g clip-path="url(#clip0_1749_2001)">
<path d="M21.5007 18.1138C22.1618 18.1138 22.8081 18.3095 23.3583 18.6761C23.9084 19.0426 24.3379 19.5638 24.5925 20.1739C24.8471 20.784 24.9155 21.4559 24.7891 22.1048C24.6627 22.7537 24.3471 23.3507 23.8821 23.8207C23.4171 24.2906 22.8235 24.6125 22.176 24.7458C21.5284 24.8791 20.8559 24.8179 20.2431 24.5698C19.6303 24.3217 19.1046 23.8978 18.7322 23.3516C18.3598 22.8053 18.1573 22.1611 18.1502 21.5C18.1479 21.0577 18.2327 20.6192 18.3998 20.2097C18.5669 19.8001 18.813 19.4275 19.1241 19.113C19.4352 18.7986 19.8052 18.5485 20.213 18.377C20.6208 18.2056 21.0583 18.1161 21.5007 18.1138ZM13.2052 35.8334C14.334 36.5142 16.7886 35.475 19.6552 32.7875C18.6971 31.6987 17.7942 30.5626 16.9498 29.3834C15.5047 29.2215 14.0693 28.9823 12.6498 28.6667C11.7361 32.5009 12.0765 35.1346 13.2052 35.8334ZM14.4773 25.5492L13.9577 24.6355C13.7552 25.1387 13.5817 25.6532 13.4382 26.1763C13.9219 26.2838 14.4594 26.3734 15.0148 26.463L14.4773 25.5492ZM26.1948 24.1875L27.6461 21.5L26.1948 18.8125C25.6573 17.863 25.084 17.0209 24.5644 16.1788C23.5969 16.125 22.5757 16.125 21.5007 16.125C20.4256 16.125 19.4044 16.125 18.4369 16.125C17.9173 16.9671 17.344 17.8092 16.8065 18.7588L15.3552 21.5L16.8065 24.1875C17.344 25.1371 17.9173 25.9792 18.4369 26.8213C19.4044 26.8213 20.4256 26.8213 21.5007 26.8213C22.5757 26.8213 23.5969 26.8213 24.5644 26.8213C25.084 25.9792 25.6573 25.1371 26.1948 24.1875ZM21.5007 12.1475C21.1602 12.5417 20.8019 12.9538 20.4436 13.4375H22.5577C22.1994 12.9538 21.8411 12.5417 21.5007 12.1475ZM21.5007 30.8525C21.8411 30.4584 22.1994 30.0463 22.5577 29.5625H20.4436C20.8019 30.0463 21.1602 30.4584 21.5007 30.8525ZM29.7782 7.16672C28.6673 6.48588 26.1948 7.52505 23.3461 10.2125C24.3042 11.3013 25.2071 12.4375 26.0515 13.6167C27.4953 13.7549 28.9307 13.9702 30.3515 14.2617C31.2652 10.4275 30.9248 7.7938 29.7782 7.09505M28.524 17.3792L29.0436 18.293C29.2461 17.7897 29.4196 17.2753 29.5632 16.7521C29.0794 16.6446 28.5419 16.555 27.9865 16.4655L28.524 17.3792ZM31.1219 4.83755C33.7557 6.34255 34.0423 10.3021 32.9136 14.9246C37.4644 16.2684 40.7431 18.508 40.7431 21.518C40.7431 24.528 37.4644 26.7675 32.9136 28.1113C34.0244 32.7338 33.7377 36.6934 31.1219 38.1984C28.5061 39.7034 24.9407 37.9834 21.5007 34.7046C18.0607 37.9834 14.4952 39.7034 11.8615 38.1984C9.22773 36.6934 8.95898 32.8234 10.0698 28.1113C5.51898 26.7675 2.24023 24.528 2.24023 21.518C2.24023 18.508 5.51898 16.2505 10.0698 14.9067C8.95898 10.2842 9.24565 6.32463 11.8615 4.81963C14.4773 3.31463 18.0607 5.03463 21.5007 8.31338C24.9407 5.03463 28.5061 3.31463 31.1219 4.81963M30.6023 21.5C31.2246 22.819 31.7748 24.1707 32.2507 25.5492C36.0131 24.4205 38.1273 22.808 38.1273 21.5C38.1273 20.1921 35.9594 18.5796 32.2507 17.4509C31.7748 18.8294 31.2246 20.1811 30.6023 21.5ZM12.399 21.5C11.7767 20.1811 11.2265 18.8294 10.7507 17.4509C6.98815 18.5796 4.87398 20.1921 4.87398 21.5C4.87398 22.808 7.0419 24.4205 10.7507 25.5492C11.2265 24.1707 11.7767 22.819 12.399 21.5ZM28.524 25.5492L27.9865 26.463C28.5419 26.463 29.0794 26.2838 29.5632 26.1763C29.4196 25.6532 29.2461 25.1387 29.0436 24.6355L28.524 25.5492ZM23.2923 32.7875C26.1411 35.475 28.6673 36.5142 29.7244 35.8334C30.7815 35.1525 31.2115 32.5725 30.2977 28.6667C28.8769 28.9582 27.4415 29.1735 25.9977 29.3117C25.1553 30.5154 24.2524 31.6755 23.2923 32.7875ZM14.4773 17.4509L15.0148 16.5371C14.4594 16.5371 13.9219 16.7163 13.4382 16.8238C13.5817 17.3469 13.7552 17.8614 13.9577 18.3646L14.4773 17.4509ZM19.709 10.2125C16.8065 7.52505 14.334 6.48588 13.2052 7.16672C12.0765 7.84755 11.7361 10.4275 12.6498 14.3334C14.0706 14.0419 15.506 13.8266 16.9498 13.6884C17.8097 12.4835 18.7306 11.3233 19.709 10.2125Z" fill="#8EA0F5"/>
</g>
<defs>
<clipPath id="clip0_1749_2001">
<rect width="43" height="43" fill="white"/>
</clipPath>
</defs>
</svg>
