<svg width="50" height="50" viewBox="0 0 50 50" fill="none" xmlns="http://www.w3.org/2000/svg">
<g clip-path="url(#clip0_15293_5287)">
<path d="M25 50C38.8071 50 50 38.8071 50 25C50 11.1929 38.8071 0 25 0C11.1929 0 0 11.1929 0 25C0 38.8071 11.1929 50 25 50Z" fill="white"/>
<mask id="mask0_15293_5287" style="mask-type:luminance" maskUnits="userSpaceOnUse" x="0" y="0" width="50" height="50">
<path d="M25 50C38.8071 50 50 38.8071 50 25C50 11.1929 38.8071 0 25 0C11.1929 0 0 11.1929 0 25C0 38.8071 11.1929 50 25 50Z" fill="white"/>
</mask>
<g mask="url(#mask0_15293_5287)">
<path d="M35.8583 2.24233C32.57 0.67932 28.891 -0.195312 25.0078 -0.195312C18.2337 -0.195312 12.0811 2.46641 7.53911 6.80105C2.71017 11.4095 44.4054 6.30487 35.8583 2.24233Z" fill="#FCC397"/>
<path d="M44.8036 9.32211C44.8325 9.35824 42.7396 12.1555 36.4494 12.9496C23.753 14.5525 1.95546 14.722 1.98832 14.6498C3.33674 11.6869 5.23978 9.02967 7.56481 6.81082C10.3043 7.66613 13.286 7.87927 16.1065 7.35952C20.7635 6.50754 24.9068 3.81664 29.5133 2.72003C31.558 2.22883 33.7856 2.08534 35.8836 2.252C39.3698 3.90898 42.4171 6.33966 44.8036 9.32211Z" fill="#FC9F95"/>
<path d="M49.9912 21.1608C50.0072 21.2627 21.3609 23.9554 7.40369 23.1706C2.85629 22.9149 0.172609 20.1655 0.203387 20.0154C0.586932 18.1447 1.1769 16.3492 1.94845 14.6539C5.98074 12.4468 10.7247 11.1731 15.3248 11.2233C21.0935 11.2824 26.7526 13.2057 32.5213 13.0623C36.8053 12.9533 41.1234 11.586 44.7636 9.32617C47.4463 12.6789 49.2939 16.7288 49.9912 21.1608Z" fill="#F77C88"/>
<path d="M50.221 24.9823C50.221 25.1225 50.2176 25.4022 50.2176 25.4022C50.2176 25.4022 42.261 27.409 32.014 27.2893C17.6616 27.1216 -0.390983 24.8065 -0.390625 24.7641C-0.376443 23.085 -0.198737 21.445 0.127346 19.859C3.56598 21.9807 7.73618 23.0199 11.75 22.5825C14.9417 22.2366 17.9734 21.0557 20.9293 19.7988C23.8852 18.5419 26.8243 17.1923 29.9486 16.4668C34.5382 15.404 39.4479 15.7751 43.8355 17.5044C45.9699 18.3461 48.0878 19.5563 49.9119 21.0155C50.1154 22.3079 50.221 23.6328 50.221 24.9823Z" fill="#F25192"/>
<path d="M21.5223 33.2064C13.9298 34.6085 0.900241 32.9913 0.867407 32.8914C0.0509935 30.4052 -0.390625 27.749 -0.390625 24.9897C-0.390625 24.9168 -0.390317 24.844 -0.389702 24.7713C0.762894 23.8574 2.10921 23.0424 3.42349 22.4092C6.67414 20.8318 10.3627 20.1738 13.9586 20.5281C17.5125 20.8824 20.9063 22.1983 24.1906 23.6154C26.9577 24.8094 29.7068 26.0991 32.579 26.9903C32.8603 27.0776 29.8799 31.663 21.5223 33.2064Z" fill="#D34CA3"/>
<path d="M49.3376 31.8067C48.8075 32.7021 43.7653 35.7183 36.9303 36.2348C27.8805 36.9188 17.1896 34.1832 20.736 32.7911C26.3194 30.5979 31.1617 26.6586 36.9303 25.0137C41.2397 23.7791 46.0167 23.9743 50.2472 25.466C50.2115 27.6587 49.897 29.7836 49.3376 31.8067Z" fill="#9A50A5"/>
<path d="M46.9886 37.6118C42.6189 45.1983 10.9264 47.1008 6.29661 41.9975C3.93988 39.3998 2.1156 36.3101 0.996094 32.9009C4.88807 30.6764 9.44404 29.7316 13.8232 30.3305C19.4908 31.1066 24.5689 34.2699 30.1607 35.5015C34.6745 36.4968 39.4579 36.1847 43.8033 34.6157C45.7677 33.901 47.7155 32.9432 49.4378 31.759C48.8656 33.8284 48.0371 35.7915 46.9886 37.6118Z" fill="#59569E"/>
<path d="M46.8871 37.5061C42.5266 45.1275 34.3163 50.2633 24.9065 50.2633C17.4719 50.2633 10.7862 47.0574 6.15625 41.9525C6.92457 42.2463 7.78389 42.5002 8.5715 42.7221C12.9759 43.9368 17.7171 43.903 22.0963 42.6124C24.9006 41.7857 27.5365 40.4698 30.2903 39.4744C35.5451 37.5795 41.3289 36.9122 46.8871 37.5061Z" fill="#39477F"/>
</g>
</g>
<defs>
<clipPath id="clip0_15293_5287">
<rect width="50" height="50" fill="white"/>
</clipPath>
</defs>
</svg>
