<svg width="50" height="50" viewBox="0 0 50 50" fill="none" xmlns="http://www.w3.org/2000/svg">
<path d="M44.7273 14.7136L29.5185 5.88262L14.3096 14.7136V9.80752L29.5185 0.976562L44.7273 9.80752V14.7136Z" stroke="#1B275F" stroke-width="1.95312" stroke-miterlimit="10" stroke-linecap="round" stroke-linejoin="round"/>
<path d="M17.2529 28.9743V13.0039" stroke="#1B275F" stroke-width="1.95312" stroke-miterlimit="10" stroke-linecap="round" stroke-linejoin="round"/>
<path d="M37.8594 5.81885V0.976562H41.7843V8.09824" stroke="#1B275F" stroke-width="1.95312" stroke-miterlimit="10" stroke-linecap="round" stroke-linejoin="round"/>
<path d="M27.6689 27.9113C29.0883 27.864 30.3073 28.9113 30.4744 30.3216C30.6595 31.8837 29.491 33.2792 27.9206 33.3716L33.1172 33.1137C33.6737 33.1137 34.2075 32.8926 34.6011 32.499L34.9155 32.1846V18.6387H24.1221V28.0296L27.6689 27.9113Z" stroke="#1B275F" stroke-width="1.95312" stroke-miterlimit="10" stroke-linecap="round" stroke-linejoin="round"/>
<path d="M33.1174 33.1133C33.6739 33.1133 34.2077 32.8922 34.6013 32.4987L43.3023 23.7976C44.2682 22.8318 45.8341 22.8318 46.7999 23.7976C47.7657 24.7634 47.7657 26.3293 46.7999 27.2951L33.3265 40.7685C32.7699 41.325 32.015 41.6377 31.2279 41.6377H22.4945C21.7074 41.6377 20.9525 41.9504 20.396 42.507L18.5695 44.3334L10.2324 35.9963L17.9947 28.234L27.669 27.9112C29.0884 27.8638 30.3074 28.9112 30.4745 30.3214C30.6596 31.8835 29.4911 33.2791 27.9207 33.3714" stroke="#1B275F" stroke-width="1.95312" stroke-miterlimit="10" stroke-linecap="round" stroke-linejoin="round"/>
<path d="M23.6338 33.5667L33.1169 33.1133" stroke="#1B275F" stroke-width="1.95312" stroke-miterlimit="10" stroke-linecap="round" stroke-linejoin="round"/>
<path d="M2.47656 40.9651L16.7117 49.023L19.9856 45.7491L8.83906 34.6025L2.47656 40.9651Z" stroke="#1B275F" stroke-width="1.95312" stroke-miterlimit="10" stroke-linecap="round" stroke-linejoin="round"/>
</svg>
