<svg width="50" height="50" viewBox="0 0 50 50" fill="none" xmlns="http://www.w3.org/2000/svg">
<path d="M35.8583 2.24233C32.57 0.67932 28.891 -0.195312 25.0078 -0.195312C18.2337 -0.195312 12.0811 2.46641 7.53911 6.80105C2.71017 11.4095 44.4054 6.30487 35.8583 2.24233Z" fill="#FCC397"/>
<path d="M44.8036 9.32016C44.8325 9.35628 42.7396 12.1536 36.4494 12.9477C23.753 14.5506 1.95546 14.7201 1.98832 14.6479C3.33674 11.6849 5.23978 9.02772 7.56481 6.80886C10.3043 7.66418 13.286 7.87732 16.1065 7.35756C20.7635 6.50559 24.9068 3.81468 29.5133 2.71808C31.558 2.22687 33.7856 2.08339 35.8836 2.25005C39.3698 3.90703 42.4171 6.33771 44.8036 9.32016Z" fill="#FC9F95"/>
<path d="M49.9912 21.1627C50.0072 21.2647 21.3609 23.9574 7.40369 23.1725C2.85629 22.9168 0.172609 20.1674 0.203387 20.0173C0.586932 18.1466 1.1769 16.3512 1.94845 14.6558C5.98074 12.4488 10.7247 11.175 15.3248 11.2253C21.0935 11.2843 26.7526 13.2076 32.5213 13.0642C36.8053 12.9552 41.1234 11.5879 44.7636 9.32812C47.4463 12.6808 49.2939 16.7308 49.9912 21.1627Z" fill="#F77C88"/>
<path d="M50.221 24.9814C50.221 25.1216 50.2176 25.4012 50.2176 25.4012C50.2176 25.4012 42.261 27.408 32.014 27.2883C17.6616 27.1206 -0.390983 24.8055 -0.390625 24.7631C-0.376443 23.0841 -0.198737 21.444 0.127346 19.8581C3.56598 21.9798 7.73618 23.0189 11.75 22.5815C14.9417 22.2357 17.9734 21.0547 20.9293 19.7978C23.8852 18.541 26.8243 17.1913 29.9486 16.4658C34.5382 15.403 39.4479 15.7741 43.8355 17.5034C45.9699 18.3451 48.0878 19.5553 49.9119 21.0145C50.1154 22.3069 50.221 23.6318 50.221 24.9814Z" fill="#F25192"/>
<path d="M21.5223 33.2055C13.9298 34.6076 0.900241 32.9904 0.867407 32.8904C0.0509935 30.4042 -0.390625 27.748 -0.390625 24.9887C-0.390625 24.9159 -0.390317 24.8431 -0.389702 24.7703C0.762894 23.8564 2.10921 23.0414 3.42349 22.4082C6.67414 20.8308 10.3627 20.1728 13.9586 20.5271C17.5125 20.8814 20.9063 22.1973 24.1906 23.6145C26.9577 24.8084 29.7068 26.0982 32.579 26.9893C32.8603 27.0766 29.8799 31.6621 21.5223 33.2055Z" fill="#D34CA3"/>
<path d="M49.3376 31.8067C48.8075 32.7021 43.7653 35.7183 36.9303 36.2348C27.8805 36.9188 17.1896 34.1832 20.736 32.7911C26.3194 30.5979 31.1617 26.6586 36.9303 25.0137C41.2397 23.7791 46.0167 23.9743 50.2472 25.466C50.2115 27.6587 49.897 29.7836 49.3376 31.8067Z" fill="#9A50A5"/>
<path d="M46.9886 37.6137C42.6189 45.2002 10.9264 47.1028 6.29661 41.9995C3.93988 39.4017 2.1156 36.3121 0.996094 32.9028C4.88807 30.6784 9.44404 29.7336 13.8232 30.3325C19.4908 31.1086 24.5689 34.2718 30.1607 35.5034C34.6745 36.4988 39.4579 36.1867 43.8033 34.6177C45.7677 33.903 47.7155 32.9451 49.4378 31.7609C48.8656 33.8304 48.0371 35.7934 46.9886 37.6137Z" fill="#59569E"/>
<path d="M46.8871 37.507C42.5266 45.1285 34.3163 50.2643 24.9065 50.2643C17.4719 50.2643 10.7862 47.0583 6.15625 41.9535C6.92457 42.2472 7.78389 42.5011 8.5715 42.723C12.9759 43.9377 17.7171 43.904 22.0963 42.6134C24.9006 41.7867 27.5365 40.4708 30.2903 39.4754C35.5451 37.5805 41.3289 36.9132 46.8871 37.507Z" fill="#39477F"/>
</svg>
