<svg width="80" height="80" viewBox="0 0 80 80" fill="none" xmlns="http://www.w3.org/2000/svg">
<circle cx="40" cy="40" r="40" fill="#3FDB9F" fill-opacity="0.25"/>
<circle cx="40" cy="40" r="30" fill="#3FDB9F"/>
<g clip-path="url(#clip0_9953_12740)">
<path d="M26.8912 35.4733C26.8912 31.8411 28.3216 28.5366 30.6486 26.0938H23V47.0702H33.3853C29.4922 44.6729 26.8912 40.3712 26.8912 35.4733Z" fill="white"/>
<path d="M50.351 26.0938C52.678 28.5367 54.1085 31.8411 54.1085 35.4733C54.1085 40.3712 51.5075 44.6729 47.6143 47.0702H57.9996V26.0938H50.351Z" fill="white"/>
<path d="M40.5004 23.8477C34.0896 23.8477 28.874 29.0633 28.874 35.4741C28.874 41.8849 34.0896 47.1005 40.5004 47.1005C46.9113 47.1005 52.1269 41.8849 52.1269 35.4741C52.1269 29.0633 46.9113 23.8477 40.5004 23.8477ZM40.5004 44.6388C35.447 44.6388 31.3357 40.5275 31.3357 35.4741C31.3357 30.4207 35.447 26.3093 40.5004 26.3093C45.5539 26.3093 49.6652 30.4207 49.6652 35.4741C49.6652 40.5275 45.5539 44.6388 40.5004 44.6388Z" fill="white"/>
<path d="M45.7844 34.448H47.5395C47.0895 31.3444 44.6287 28.8836 41.5251 28.4336V30.1887H39.4744V28.4336C36.3708 28.8836 33.91 31.3444 33.46 34.448H35.2151V36.4988H33.46C33.91 39.6024 36.3708 42.0632 39.4744 42.5132V40.758H41.5251V42.5132C44.6287 42.0632 47.0895 39.6024 47.5395 36.4988H45.7844V34.448ZM42.0193 38.2998L39.4743 36.45V31.8142H41.5251V35.4054L43.2251 36.641L42.0193 38.2998Z" fill="white"/>
<path d="M46.731 53.3184H34.2691L33.4066 55.1017H30.8281V57.1525H50.1245V55.1017H47.5934L46.731 53.3184Z" fill="white"/>
<path d="M23 49.1211H58V51.2671H23V49.1211Z" fill="white"/>
</g>
<defs>
<clipPath id="clip0_9953_12740">
<rect width="35" height="35" fill="white" transform="translate(23 23)"/>
</clipPath>
</defs>
</svg>
