<svg width="121" height="51" viewBox="0 0 121 51" fill="none" xmlns="http://www.w3.org/2000/svg">
<path d="M48.0378 36.9758C45.3691 38.3626 31.5474 43.9891 28.5998 45.5344C25.6523 47.0798 24.0191 47.0401 21.7089 45.9307C19.3986 44.8212 4.70063 38.957 2.03188 37.689C0.717428 37.055 0.0402846 36.5399 0.0402846 36.0248V30.9927C0.0402846 30.9927 19.1596 26.8322 22.2665 25.7624C25.3734 24.6529 26.4091 24.6133 29.038 25.5643C31.6669 26.5152 47.4005 29.3285 49.9896 30.2794V35.2324C49.9896 35.7475 49.3921 36.3022 48.0378 36.9758Z" fill="#A41E11"/>
<path d="M48.0378 31.9832C45.3691 33.3701 31.5474 38.9966 28.5998 40.5419C25.6523 42.0872 24.0191 42.0476 21.7089 40.9381C19.3986 39.8287 4.70063 33.9248 2.03188 32.6568C-0.597027 31.3889 -0.676691 30.5172 1.91239 29.5266C4.50147 28.4964 19.1198 22.7906 22.2267 21.7208C25.3336 20.6113 26.3692 20.5717 28.9981 21.5227C31.6271 22.4736 45.3691 27.902 47.9582 28.853C50.6269 29.804 50.7066 30.5964 48.0378 31.9832Z" fill="#D82C20"/>
<path d="M48.0378 28.8134C45.3691 30.2002 31.5474 35.8267 28.5998 37.372C25.6523 38.8777 24.0191 38.8777 21.7089 37.7683C19.3986 36.6588 4.70063 30.7549 2.03188 29.487C0.717428 28.853 0.0402846 28.3379 0.0402846 27.8228V22.7906C0.0402846 22.7906 19.1596 18.6302 22.2665 17.5603C25.3734 16.4509 26.4091 16.4112 29.038 17.3622C31.6669 18.3132 47.4005 21.1264 49.9896 22.0774V27.0303C49.9896 27.5454 49.3921 28.1001 48.0378 28.8134Z" fill="#A41E11"/>
<path d="M48.0378 23.7812C45.3691 25.168 31.5474 30.7945 28.5998 32.3398C25.6523 33.8455 24.0191 33.8455 21.7089 32.7361C19.3986 31.6266 4.70063 25.7227 2.03188 24.4548C-0.636859 23.1868 -0.676691 22.3151 1.91239 21.3245C4.50147 20.2943 19.1198 14.5886 22.2267 13.5187C25.3336 12.4093 26.3692 12.3697 28.9981 13.3206C31.6271 14.2716 45.3691 19.7 47.9582 20.6509C50.6269 21.6019 50.7066 22.3944 48.0378 23.7812Z" fill="#D82C20"/>
<path d="M48.0378 20.2943C45.3691 21.6812 31.5474 27.3077 28.5998 28.853C25.6523 30.3587 24.0191 30.3587 21.7089 29.2492C19.3986 28.1794 4.70063 22.2755 2.03188 21.0076C0.717429 20.3736 0.000452685 19.8585 0.000452685 19.3434V14.3112C0.000452685 14.3112 19.1198 10.1507 22.2267 9.08091C25.3336 7.97146 26.3692 7.93184 28.9981 8.8828C31.6271 9.83376 47.3607 12.647 49.9498 13.598V18.5509C49.9896 19.066 49.3921 19.5811 48.0378 20.2943Z" fill="#A41E11"/>
<path d="M48.0378 15.2622C45.3691 16.649 31.5474 22.2755 28.5998 23.8208C25.6523 25.3265 24.0191 25.3265 21.7089 24.2171C19.3986 23.1076 4.70063 17.2433 2.03188 15.9754C-0.636859 14.7074 -0.676691 13.8357 1.91239 12.8451C4.50147 11.8149 19.1198 6.10916 22.2267 5.03933C25.3336 3.92987 26.3692 3.89025 28.9981 4.84121C31.6271 5.79217 45.3691 11.2206 47.9582 12.1715C50.6269 13.1225 50.7066 13.915 48.0378 15.2622Z" fill="#D82C20"/>
<path d="M31.5474 10.4281L27.2455 10.9036L26.2497 13.2017L24.6963 10.6262L19.7173 10.1904L23.4217 8.84317L22.3064 6.78276L25.8116 8.12995L29.0778 7.06012L28.2015 9.19978L31.5474 10.4281ZM26.0107 21.6812L17.9248 18.3528L29.516 16.6094L26.0107 21.6812Z" fill="white"/>
<path d="M14.818 16.4905C18.2277 16.4905 20.9919 15.4261 20.9919 14.1131C20.9919 12.8001 18.2277 11.7357 14.818 11.7357C11.4082 11.7357 8.64399 12.8001 8.64399 14.1131C8.64399 15.4261 11.4082 16.4905 14.818 16.4905Z" fill="white"/>
<path d="M36.6857 11.0621L43.5368 13.7565L36.6857 16.4509V11.0621Z" fill="#7A0C00"/>
<path d="M29.1176 14.0735L36.6857 11.0621V16.4509L35.9289 16.7679L29.1176 14.0735Z" fill="#AD2115"/>
<path d="M71.7614 32.7871V18.2417H76.6761C77.8125 18.2417 78.7453 18.4358 79.4744 18.824C80.2036 19.2076 80.7434 19.7355 81.0938 20.4078C81.4441 21.0802 81.6193 21.8449 81.6193 22.7019C81.6193 23.5589 81.4441 24.3188 81.0938 24.9817C80.7434 25.6446 80.206 26.1654 79.4815 26.5442C78.7571 26.9183 77.8314 27.1053 76.7045 27.1053H72.7273V25.5144H76.6477C77.4242 25.5144 78.0492 25.4007 78.5227 25.1735C79.0009 24.9462 79.3466 24.6242 79.5597 24.2076C79.7775 23.7862 79.8864 23.2843 79.8864 22.7019C79.8864 22.1195 79.7775 21.6105 79.5597 21.1749C79.3419 20.7393 78.9938 20.4031 78.5156 20.1664C78.0374 19.9249 77.4053 19.8042 76.6193 19.8042H73.5227V32.7871H71.7614ZM78.608 26.253L82.1875 32.7871H80.142L76.6193 26.253H78.608ZM88.7837 33.0144C87.7326 33.0144 86.8259 32.7824 86.0636 32.3184C85.306 31.8496 84.7212 31.1962 84.3093 30.3581C83.9021 29.5153 83.6985 28.5352 83.6985 27.4178C83.6985 26.3004 83.9021 25.3155 84.3093 24.4632C84.7212 23.6062 85.2942 22.9386 86.0281 22.4604C86.7667 21.9775 87.6284 21.736 88.6133 21.736C89.1815 21.736 89.7425 21.8307 90.2965 22.0201C90.8505 22.2095 91.3548 22.5172 91.8093 22.9434C92.2638 23.3648 92.6261 23.9235 92.896 24.6195C93.1658 25.3155 93.3008 26.1725 93.3008 27.1905V27.9007H84.8917V26.4519H91.5962C91.5962 25.8364 91.4731 25.2871 91.2269 24.8042C90.9854 24.3212 90.6398 23.94 90.19 23.6607C89.7449 23.3813 89.2193 23.2417 88.6133 23.2417C87.9457 23.2417 87.368 23.4074 86.8803 23.7388C86.3974 24.0655 86.0257 24.4917 85.7653 25.0172C85.5049 25.5428 85.3746 26.1062 85.3746 26.7076V27.6735C85.3746 28.4973 85.5167 29.1957 85.8008 29.7686C86.0896 30.3368 86.4897 30.7701 87.0011 31.0684C87.5124 31.3619 88.1067 31.5087 88.7837 31.5087C89.2241 31.5087 89.6218 31.4471 89.9769 31.324C90.3368 31.1962 90.6469 31.0068 90.9073 30.7559C91.1677 30.5002 91.369 30.1829 91.511 29.8042L93.1303 30.2587C92.9599 30.8079 92.6734 31.2909 92.271 31.7076C91.8685 32.1195 91.3713 32.4415 90.7795 32.6735C90.1876 32.9007 89.5224 33.0144 88.7837 33.0144ZM99.9698 33.0144C99.0607 33.0144 98.2582 32.7847 97.5621 32.3255C96.8661 31.8614 96.3216 31.208 95.9286 30.3652C95.5356 29.5177 95.3391 28.5163 95.3391 27.361C95.3391 26.2151 95.5356 25.2208 95.9286 24.378C96.3216 23.5352 96.8685 22.8842 97.5692 22.4249C98.27 21.9656 99.0797 21.736 99.9982 21.736C100.708 21.736 101.27 21.8543 101.681 22.0911C102.098 22.3231 102.415 22.5882 102.633 22.8865C102.856 23.1801 103.029 23.4216 103.152 23.611H103.294V18.2417H104.97V32.7871H103.35V31.111H103.152C103.029 31.3098 102.853 31.5608 102.626 31.8638C102.399 32.1621 102.074 32.4296 101.653 32.6664C101.232 32.8984 100.671 33.0144 99.9698 33.0144ZM100.197 31.5087C100.869 31.5087 101.438 31.3335 101.902 30.9831C102.366 30.628 102.718 30.138 102.96 29.513C103.201 28.8832 103.322 28.1564 103.322 27.3326C103.322 26.5182 103.204 25.8056 102.967 25.1948C102.73 24.5792 102.38 24.101 101.916 23.7601C101.452 23.4145 100.879 23.2417 100.197 23.2417C99.4869 23.2417 98.895 23.4239 98.4215 23.7885C97.9528 24.1484 97.6 24.6384 97.3633 25.2587C97.1313 25.8742 97.0153 26.5655 97.0153 27.3326C97.0153 28.1091 97.1336 28.8146 97.3704 29.449C97.6119 30.0788 97.967 30.5807 98.4357 30.9547C98.9092 31.324 99.4963 31.5087 100.197 31.5087ZM108.272 32.7871V21.878H109.949V32.7871H108.272ZM109.125 20.0598C108.798 20.0598 108.516 19.9486 108.279 19.726C108.047 19.5035 107.931 19.236 107.931 18.9235C107.931 18.611 108.047 18.3435 108.279 18.1209C108.516 17.8984 108.798 17.7871 109.125 17.7871C109.451 17.7871 109.731 17.8984 109.963 18.1209C110.199 18.3435 110.318 18.611 110.318 18.9235C110.318 19.236 110.199 19.5035 109.963 19.726C109.731 19.9486 109.451 20.0598 109.125 20.0598ZM120.746 24.3212L119.24 24.7473C119.145 24.4964 119.006 24.2525 118.821 24.0158C118.641 23.7743 118.395 23.5755 118.082 23.4192C117.77 23.263 117.37 23.1848 116.882 23.1848C116.214 23.1848 115.658 23.3387 115.213 23.6465C114.773 23.9495 114.553 24.3354 114.553 24.8042C114.553 25.2208 114.704 25.5499 115.007 25.7914C115.31 26.0328 115.784 26.2341 116.428 26.3951L118.047 26.7928C119.022 27.0295 119.749 27.3917 120.227 27.8794C120.705 28.3624 120.945 28.985 120.945 29.7473C120.945 30.3723 120.765 30.931 120.405 31.4235C120.05 31.9159 119.553 32.3042 118.913 32.5882C118.274 32.8723 117.531 33.0144 116.683 33.0144C115.571 33.0144 114.65 32.7729 113.92 32.29C113.191 31.807 112.73 31.1015 112.536 30.1735L114.126 29.7757C114.278 30.3629 114.564 30.8032 114.986 31.0968C115.412 31.3903 115.968 31.5371 116.655 31.5371C117.436 31.5371 118.056 31.3714 118.516 31.04C118.98 30.7038 119.212 30.3013 119.212 29.8326C119.212 29.4538 119.079 29.1365 118.814 28.8809C118.549 28.6204 118.142 28.4263 117.592 28.2985L115.774 27.8723C114.775 27.6356 114.041 27.2686 113.572 26.7715C113.108 26.2696 112.876 25.6422 112.876 24.8894C112.876 24.2739 113.049 23.7293 113.395 23.2559C113.745 22.7824 114.221 22.4107 114.822 22.1408C115.429 21.8709 116.115 21.736 116.882 21.736C117.962 21.736 118.809 21.9727 119.425 22.4462C120.045 22.9197 120.485 23.5447 120.746 24.3212Z" fill="white"/>
</svg>
