<svg width="50" height="50" viewBox="0 0 50 50" fill="none" xmlns="http://www.w3.org/2000/svg">
<path d="M33.2145 42.0532C32.6495 41.489 32.3232 40.729 32.3032 39.9307C29.5829 41.4119 26.5348 42.1878 23.4374 42.1875C0.518927 41.7824 0.52252 8.21422 23.4381 7.8125C34.1929 8.00258 39.8991 15.4959 40.5596 23.4375H42.1874C42.7961 23.4391 43.3958 23.5834 43.9386 23.8588C44.4813 24.1342 44.9519 24.5331 45.3124 25.0234C45.323 14.3082 38.0328 3.58508 23.438 3.125C-5.72576 4.04016 -5.73271 45.9555 23.4374 46.875C27.4696 46.821 31.4237 45.7552 34.9367 43.7753L33.2145 42.0532Z" fill="#1B1D1E"/>
<path d="M35.1562 35.6389V27.3438C35.158 26.3219 35.5602 25.3415 36.2764 24.6128C36.9927 23.884 37.966 23.4649 38.9876 23.4453C38.3342 16.2749 33.1533 9.54531 23.4374 9.375C2.60243 9.74328 2.60571 40.2598 23.4381 40.625C28.6462 40.5329 32.5522 38.5569 35.1562 35.6389ZM24.9122 35.2932V36.2282C24.948 38.7887 20.9278 38.79 20.9632 36.2282V35.2867C18.3295 34.8641 16.4252 33.6758 15.2969 31.7477C15.1102 31.4287 15.0007 31.0706 14.977 30.7018C14.9533 30.333 15.0162 29.9638 15.1606 29.6237C15.3049 29.2835 15.5268 28.9818 15.8086 28.7426C16.0903 28.5035 16.424 28.3334 16.7831 28.2462L17.8534 28.0009C18.3391 27.8927 18.8465 27.9412 19.3029 28.1393C19.7594 28.3374 20.1413 28.675 20.394 29.1037C20.8914 29.9292 21.7917 30.3302 23.1467 30.3302C24.4731 30.4644 26.1337 29.5224 25.0594 28.4725C24.331 28.0942 23.5409 27.849 22.7263 27.7485C13.695 27.124 12.9516 16.4334 20.9631 14.5603V14.0625C20.9274 11.502 24.9475 11.5007 24.9121 14.0625V14.5073C25.8788 14.6203 26.8127 14.9268 27.6584 15.4086C28.504 15.8904 29.2439 16.5376 29.834 17.3115C30.0474 17.6109 30.1879 17.956 30.2442 18.3193C30.3006 18.6826 30.2713 19.054 30.1586 19.404C30.0459 19.7539 29.8531 20.0727 29.5953 20.3349C29.3376 20.5971 29.0222 20.7954 28.6742 20.9141L27.9045 21.1708C27.4289 21.3275 26.9156 21.3279 26.4397 21.1719C25.9639 21.0158 25.5505 20.7115 25.2601 20.3036C25.0139 19.9888 24.693 19.7406 24.3264 19.5816C23.9598 19.4226 23.5593 19.3577 23.1613 19.393C21.1088 19.3632 21.0625 20.3106 21.5675 20.9036C22.1231 21.2477 22.7515 21.4571 23.4024 21.5152C26.8308 22.3263 28.5371 22.431 30.4054 24.9437C33.2545 29.1502 30.0281 34.8318 24.9122 35.2932Z" fill="#1B1D1E"/>
<path d="M45.8258 38.2812H44.5311V27.3438C44.5304 26.7224 44.2833 26.1266 43.8439 25.6872C43.4045 25.2478 42.8088 25.0007 42.1874 25H39.0624C38.441 25.0007 37.8452 25.2478 37.4058 25.6872C36.9664 26.1266 36.7193 26.7224 36.7186 27.3438V38.2812H35.4239C35.117 38.2858 34.8181 38.3801 34.5641 38.5526C34.3101 38.725 34.1121 38.9681 33.9947 39.2517C33.8772 39.5353 33.8453 39.8471 33.903 40.1487C33.9606 40.4502 34.1053 40.7282 34.3192 40.9485L39.5201 46.1491C39.8133 46.4417 40.2106 46.6061 40.6249 46.6061C41.0391 46.6061 41.4365 46.4417 41.7296 46.1491L46.9306 40.9485C47.1444 40.7282 47.2891 40.4502 47.3467 40.1487C47.4044 39.8471 47.3725 39.5353 47.2551 39.2517C47.1376 38.9681 46.9396 38.725 46.6857 38.5526C46.4317 38.3801 46.1328 38.2858 45.8258 38.2812Z" fill="#1B1D1E"/>
</svg>
