<svg width="50" height="48" viewBox="0 0 50 48" fill="none" xmlns="http://www.w3.org/2000/svg">
<g clip-path="url(#clip0_15293_14129)">
<path d="M33.7965 33.3032C35.531 33.1229 36.8468 31.6209 36.787 29.8184C36.7272 28.0159 35.2319 26.5739 33.4376 26.5739H33.318C31.4639 26.634 30.0285 28.1961 30.0883 30.0587C30.1481 30.9599 30.507 31.741 31.0453 32.2818C29.0117 36.3073 25.9017 39.2514 21.2365 41.7148C18.0666 43.3971 14.7771 43.9979 11.4876 43.5773C8.79614 43.2168 6.70281 42.0152 5.387 40.0325C3.4731 37.0884 3.29367 33.904 4.90853 30.7196C6.04491 28.4365 7.83919 26.7541 8.97557 25.913C8.73633 25.1319 8.37748 23.8101 8.19805 22.8488C-0.474326 29.1575 0.422816 37.6892 3.05443 41.7148C5.02815 44.7189 9.03538 46.5815 13.4613 46.5815C14.6575 46.5815 15.8537 46.4613 17.0498 46.1609C24.7055 44.6588 30.507 40.0925 33.7965 33.3032ZM44.323 25.8529C39.7775 20.5055 33.0788 17.5615 25.4232 17.5615H24.4662C23.9279 16.48 22.7916 15.759 21.5356 15.759H21.4159C19.5618 15.8191 18.1264 17.3812 18.1862 19.2438C18.246 21.0463 19.7413 22.4883 21.5356 22.4883H21.6552C22.971 22.4282 24.1074 21.587 24.5858 20.4454H25.6624C30.2079 20.4454 34.5142 21.7673 38.4018 24.3508C41.3923 26.3336 43.5454 28.9171 44.7416 32.0414C45.7584 34.5649 45.6986 37.0283 44.622 39.1312C42.9474 42.3156 40.1363 44.058 36.4281 44.058C34.0357 44.058 31.763 43.337 30.5668 42.7963C29.9089 43.3971 28.7127 44.3584 27.8754 44.9592C30.4472 46.1609 33.0788 46.8218 35.5908 46.8218C41.3325 46.8218 45.579 43.6374 47.1938 40.453C48.9283 36.9682 48.8087 30.9599 44.323 25.8529ZM13.9398 34.3246C13.9996 36.1271 15.4948 37.5691 17.2891 37.5691H17.4087C19.2628 37.509 20.6982 35.9468 20.6384 34.0842C20.5786 32.2818 19.0834 30.8398 17.2891 30.8398H17.1695C17.0498 30.8398 16.8704 30.8398 16.7508 30.8999C14.2986 26.8142 13.2819 22.3681 13.6407 17.5615C13.8799 13.9565 15.0761 10.8322 17.1695 8.24862C18.9039 6.02555 22.2533 4.94406 24.526 4.88398C30.8658 4.76381 33.5573 12.6947 33.7367 15.8791C34.5142 16.0594 35.83 16.48 36.7272 16.7804C36.0095 7.04696 30.0285 2 24.2868 2C18.9039 2 13.9398 5.90539 11.966 11.6733C9.21481 19.3639 11.0091 26.7541 14.3584 32.5822C14.0594 33.0028 13.8799 33.6637 13.9398 34.3246Z" fill="#764ABC"/>
</g>
<defs>
<clipPath id="clip0_15293_14129">
<rect width="47" height="45" fill="white" transform="translate(1.23047 2)"/>
</clipPath>
</defs>
</svg>
