<svg width="60" height="60" viewBox="0 0 60 60" fill="none" xmlns="http://www.w3.org/2000/svg">
<g clip-path="url(#clip0_2584_11781)">
<path d="M52.1078 33.9068C52.1078 25.6883 47.1589 18.6079 40.0912 15.4928C40.0824 12.1893 37.3966 9.50445 34.0958 9.50445H24.1483V5.36909C24.1483 4.52102 23.4612 3.83384 22.6131 3.83384H20.9925C20.6019 1.65726 18.6982 0 16.4141 0C14.1301 0 12.2264 1.65726 11.8358 3.83384H10.2148C9.36671 3.83384 8.67953 4.52102 8.67953 5.36909V33.3099C8.67953 34.158 9.36671 34.8452 10.2148 34.8452H10.2744V39.7248C10.2744 40.5729 10.9615 41.2601 11.8096 41.2601H21.0189C21.867 41.2601 22.5541 40.5729 22.5541 39.7248V34.8452H22.6129C23.461 34.8452 24.1481 34.158 24.1481 33.3099V21.5149H30.501V23.5357C30.501 24.3837 31.1882 25.0709 32.0363 25.0709C36.8652 25.0709 40.7938 29.0085 40.7938 33.8487C40.7938 38.6898 36.947 42.4823 32.0363 42.4823C31.1882 42.4823 30.501 43.1695 30.501 44.0176V45.7612H9.90507C9.057 45.7612 8.36982 46.4484 8.36982 47.2965C8.36982 48.1446 9.057 48.8317 9.90507 48.8317H30.5012V50.6826H9.42771C8.57984 50.6826 7.89246 51.3698 7.89246 52.2179V58.465C7.89246 59.313 8.57984 60.0002 9.42771 60.0002H41.3882C42.2363 60.0002 42.9235 59.313 42.9235 58.465V52.2179C42.9235 51.717 42.6826 51.2736 42.3116 50.9934C43.7196 50.169 45.0325 49.1703 46.2194 48.0041C50.0166 44.2733 52.1078 39.2667 52.1078 33.9068ZM16.4141 3.07051C16.9853 3.07051 17.4853 3.37695 17.7637 3.83384H15.0648C15.3429 3.37695 15.843 3.07051 16.4141 3.07051ZM19.4838 38.1896H13.3449V34.8452H19.4836L19.4838 38.1896ZM22.6131 18.4443C21.765 18.4443 21.0778 19.1315 21.0778 19.9796V31.7747H11.75V6.90435H21.0776V11.0397C21.0776 11.8878 21.7648 12.575 22.6129 12.575H34.0956C35.7086 12.575 37.0209 13.8914 37.0209 15.5091C37.0209 17.1275 35.7086 18.4443 34.0956 18.4443H22.6131ZM39.853 56.9295H10.963V53.7529H39.853V56.9295ZM33.5717 50.6167V45.4568C36.1512 45.1322 38.5306 43.9914 40.3905 42.1638C42.6308 39.9627 43.8647 37.0095 43.8647 33.8485C43.8647 27.8366 39.3711 22.8561 33.5719 22.0995V21.5146H34.096C36.3127 21.5146 38.2508 20.3026 39.2882 18.5066C45.0442 21.2389 49.0375 27.1114 49.0375 33.9066C49.0375 38.4362 47.2726 42.6649 44.0676 45.8136C41.2329 48.5988 37.5513 50.2739 33.5717 50.6167Z" fill="#4361EE"/>
<path d="M35.2603 15.5902C35.2603 15.1851 35.0966 14.7898 34.81 14.5032C34.5234 14.2185 34.1283 14.0549 33.7251 14.0549C33.3218 14.0549 32.9247 14.2187 32.6402 14.5032C32.3536 14.7896 32.1898 15.1849 32.1898 15.5902C32.1898 15.9937 32.3536 16.3906 32.6402 16.6751C32.9247 16.9617 33.3218 17.1254 33.7251 17.1254C34.1283 17.1254 34.5255 16.9617 34.81 16.6751C35.0966 16.3887 35.2603 15.9937 35.2603 15.5902Z" fill="#4361EE"/>
</g>
<defs>
<clipPath id="clip0_2584_11781">
<rect width="60" height="60" fill="white"/>
</clipPath>
</defs>
</svg>
