<svg width="191" height="51" viewBox="0 0 191 51" fill="none" xmlns="http://www.w3.org/2000/svg">
<g clip-path="url(#clip0_5224_19472)">
<g clip-path="url(#clip1_5224_19472)">
<path fill-rule="evenodd" clip-rule="evenodd" d="M41.1526 7.76192L42.1643 9.16277C42.43 9.5325 42.3635 10.0624 42.012 10.3418L40.9378 11.2004C41.1331 11.7467 41.2581 12.3301 41.3089 12.9258L42.5315 13.1024C42.969 13.164 43.2737 13.5913 43.2151 14.0514L42.9885 15.7973C42.93 16.2574 42.5237 16.5819 42.0862 16.5162L40.7503 16.3231C40.512 16.8695 40.2073 17.3707 39.8479 17.8185L40.5979 18.8537C40.8636 19.2234 40.7932 19.7534 40.4417 20.0327L39.1096 21.0967C38.7581 21.376 38.2542 21.3021 37.9885 20.9365L37.1721 19.8068C36.6487 20.0122 36.0979 20.1436 35.5276 20.197L35.3596 21.4829C35.301 21.943 34.8948 22.2634 34.4573 22.2018L32.7971 21.9635C32.3596 21.9019 32.055 21.4746 32.1135 21.0145L32.2971 19.6096C31.7815 19.359 31.301 19.0386 30.8753 18.6647L29.8909 19.4494C29.5393 19.7287 29.0354 19.6589 28.7698 19.2892L27.7581 17.8883C27.4925 17.5186 27.5589 16.9886 27.9104 16.7093L28.9846 15.8507C28.7893 15.3002 28.6643 14.721 28.6135 14.1253L27.3909 13.9487C26.9534 13.887 26.6448 13.4598 26.7073 12.9997L26.9339 11.2538C26.9964 10.7937 27.3987 10.4732 27.8362 10.5349L29.1721 10.7279C29.4104 10.1857 29.7151 9.68039 30.0706 9.23261L29.3245 8.19738C29.0589 7.83176 29.1253 7.30182 29.4768 7.02247L30.8089 5.95848C31.1604 5.67913 31.6643 5.74897 31.93 6.1187L32.7464 7.24841C33.2659 7.04301 33.8206 6.91155 34.387 6.85815L34.555 5.57232C34.6135 5.11222 35.0198 4.78768 35.4573 4.8493L37.1175 5.08757C37.555 5.14919 37.8635 5.57643 37.801 6.03653L37.6175 7.44149C38.137 7.69209 38.6135 8.01251 39.0432 8.39046L40.0276 7.60582C40.3792 7.32236 40.8831 7.3922 41.1526 7.76192ZM12.5901 32.4144V25.6361H15.9104C16.5276 25.6361 16.9964 25.6895 17.3206 25.8045C17.6448 25.9155 17.9104 26.1209 18.1057 26.4208C18.305 26.7247 18.4065 27.0904 18.4065 27.5217C18.4065 27.8955 18.3284 28.2242 18.176 28.4953C18.0237 28.7706 17.8128 28.9924 17.5471 29.1608C17.3792 29.2676 17.1448 29.358 16.8479 29.4279C17.0862 29.5141 17.2581 29.5922 17.3635 29.6784C17.4378 29.736 17.5432 29.8551 17.68 30.0359C17.8167 30.2166 17.9104 30.3604 17.9573 30.459L18.926 32.4185H16.676L15.6135 30.3522C15.4768 30.0851 15.3596 29.9085 15.2542 29.8304C15.1096 29.7277 14.9456 29.6743 14.7659 29.6743H14.5901V32.4185H12.5901V32.4144ZM19.6135 44.2169H15.8948L15.3596 46.0573H12.0081L16.0042 34.8875H19.5979L23.5784 46.0573H20.1409L19.6135 44.2169ZM18.9182 41.7972L17.7581 37.7796L16.594 41.7972H18.9182ZM24.3518 34.8875H29.8128C31.0042 34.8875 31.8948 35.1833 32.4846 35.7789C33.0745 36.3746 33.3714 37.225 33.3714 38.3218C33.3714 39.4515 33.0471 40.3348 32.4026 40.9715C31.7581 41.6083 30.7698 41.9246 29.4456 41.9246H27.6448V46.0573H24.3518V34.8875ZM27.6448 39.661H28.4534C29.0901 39.661 29.5393 39.546 29.7971 39.3119C30.055 39.0818 30.1839 38.7819 30.1839 38.4245C30.1839 38.0753 30.0706 37.7754 29.8479 37.5331C29.6253 37.2907 29.2034 37.1674 28.5862 37.1674H27.6448V39.661ZM34.6995 34.8875H37.9925V46.0573H34.6995V34.8875ZM14.5901 28.3885H15.43C15.5198 28.3885 15.6956 28.3557 15.9573 28.294C16.0901 28.2653 16.1995 28.1954 16.2815 28.0804C16.3675 27.9654 16.4065 27.8339 16.4065 27.686C16.4065 27.4683 16.3401 27.2958 16.2073 27.1807C16.0745 27.0616 15.8284 27.0041 15.4651 27.0041H14.5901V28.3885ZM19.3089 25.6361H24.6409V27.0822H21.3089V28.1626H24.3987V29.5429H21.3089V30.878H24.7385V32.4103H19.3089V25.6361ZM25.2112 30.1714L27.1018 30.0482C27.1409 30.3727 27.2268 30.6151 27.3518 30.7835C27.5589 31.0547 27.8518 31.1943 28.2307 31.1943C28.512 31.1943 28.7346 31.1245 28.887 30.9848C29.0393 30.8451 29.1175 30.6808 29.1175 30.496C29.1175 30.3193 29.0432 30.1632 28.8987 30.0235C28.7542 29.8839 28.4143 29.7565 27.8792 29.6292C27.0081 29.4237 26.387 29.1485 26.012 28.8075C25.637 28.4666 25.4495 28.0311 25.4495 27.5012C25.4495 27.152 25.5471 26.8233 25.7385 26.5152C25.93 26.2071 26.219 25.9606 26.6057 25.784C26.9925 25.6074 27.5198 25.5211 28.1917 25.5211C29.0159 25.5211 29.6409 25.6813 30.0745 26.0058C30.5042 26.3304 30.762 26.8398 30.844 27.5464L28.9729 27.6655C28.9221 27.3574 28.8167 27.1314 28.6604 26.9959C28.5003 26.8562 28.2776 26.7864 28.0003 26.7864C27.7698 26.7864 27.594 26.8398 27.4768 26.9425C27.3596 27.0452 27.301 27.1725 27.301 27.3204C27.301 27.4272 27.3518 27.5217 27.4456 27.6121C27.5393 27.6984 27.7581 27.7846 28.1096 27.8627C28.9807 28.0599 29.6057 28.2612 29.9807 28.4625C30.3557 28.6638 30.6331 28.9143 30.801 29.2142C30.9729 29.51 31.0589 29.8469 31.0589 30.2166C31.0589 30.6521 30.9456 31.0505 30.7151 31.4162C30.4885 31.7818 30.1682 32.0611 29.7581 32.2501C29.3479 32.4391 28.8323 32.5336 28.2073 32.5336C27.1135 32.5336 26.3518 32.3117 25.93 31.868C25.5081 31.4162 25.2698 30.8534 25.2112 30.1714ZM31.3479 25.6361H37.4065V27.3122H35.3753V32.4144H33.3831V27.3122H31.3479V25.6361ZM24.6448 9.54893C23.93 9.49142 23.2073 9.49963 22.4925 9.57358C20.2932 9.79541 18.1565 10.6376 16.3909 12.0795C14.3479 13.7433 12.7971 16.2328 12.1995 19.5315L12.012 20.5627L11.0354 20.7434C10.0784 20.9201 9.22292 21.1624 8.47292 21.4705C7.74636 21.7663 7.09792 22.1319 6.53151 22.5633C6.07839 22.9084 5.68776 23.2945 5.35573 23.7135C4.32839 25.0076 3.85182 26.6303 3.86354 28.2735C3.87526 29.9414 4.39089 31.6257 5.34401 33.0101C5.69948 33.5236 6.10964 33.996 6.57839 34.4068C7.05495 34.8217 7.59011 35.1668 8.19167 35.4256C8.53151 35.5735 8.89479 35.6968 9.2737 35.7954V38.8723C8.49245 38.7244 7.7737 38.5026 7.10182 38.2109C6.21511 37.8247 5.42995 37.3277 4.73854 36.7197C4.08229 36.1445 3.50807 35.4914 3.01979 34.7807C1.71901 32.891 1.01589 30.5822 1.00026 28.2817C0.984635 25.9565 1.67214 23.6437 3.15651 21.7704C3.63698 21.1624 4.20339 20.6037 4.85182 20.1108C5.60573 19.5356 6.46901 19.0509 7.44557 18.6524C8.11745 18.3772 8.8362 18.1471 9.59401 17.9622C10.4534 14.3718 12.2854 11.6071 14.6409 9.6886C16.844 7.89338 19.4964 6.84582 22.2268 6.57058C23.6604 6.4268 25.1135 6.49253 26.5354 6.77188C26.5042 6.90744 26.4768 7.04301 26.4612 7.18268L26.4573 7.20733C26.43 7.44149 26.4182 7.67565 26.43 7.91392C26.1292 8.03716 25.8479 8.20559 25.594 8.411L25.5823 8.41921C25.2034 8.7191 24.8831 9.10526 24.6448 9.54893ZM45.3128 17.4364C45.5315 17.6459 45.7425 17.8637 45.9495 18.0978C46.3675 18.5702 46.762 19.1043 47.1331 19.7C48.3831 21.7211 49.0237 24.4201 48.9964 27.0616C48.969 29.6538 48.305 32.2337 46.9456 34.1316C46.0589 35.3681 44.9221 36.3787 43.5589 37.1798C42.6253 37.7303 41.5745 38.1862 40.43 38.556V35.3722C41.0471 35.1299 41.6214 34.8587 42.1487 34.5506C43.176 33.9467 44.0159 33.2114 44.6448 32.3282C45.6214 30.9602 46.1018 29.0253 46.1214 27.0411C46.1448 24.9583 45.6604 22.8673 44.719 21.3473C44.4495 20.9077 44.1526 20.5134 43.8401 20.1601C43.719 20.0245 43.5979 19.8971 43.4729 19.7739C43.4925 19.5685 43.5003 19.359 43.4885 19.1495C43.7893 19.0262 44.0706 18.8578 44.3245 18.6524L44.3362 18.6442C44.7386 18.3196 45.0745 17.9088 45.3128 17.4364ZM35.4065 10.0994C37.2073 10.3582 38.4651 12.1041 38.219 13.998C37.9729 15.8918 36.3128 17.2187 34.512 16.9599C32.7112 16.7011 31.4495 14.9551 31.6995 13.0613C31.9495 11.1675 33.6057 9.8406 35.4065 10.0994Z" fill="black"/>
</g>
</g>
<path d="M71.7614 32.7871V18.2417H76.6761C77.8125 18.2417 78.7453 18.4358 79.4744 18.824C80.2036 19.2076 80.7434 19.7355 81.0938 20.4078C81.4441 21.0802 81.6193 21.8449 81.6193 22.7019C81.6193 23.5589 81.4441 24.3188 81.0938 24.9817C80.7434 25.6446 80.206 26.1654 79.4815 26.5442C78.7571 26.9183 77.8314 27.1053 76.7045 27.1053H72.7273V25.5144H76.6477C77.4242 25.5144 78.0492 25.4007 78.5227 25.1735C79.0009 24.9462 79.3466 24.6242 79.5597 24.2076C79.7775 23.7862 79.8864 23.2843 79.8864 22.7019C79.8864 22.1195 79.7775 21.6105 79.5597 21.1749C79.3419 20.7393 78.9938 20.4031 78.5156 20.1664C78.0374 19.9249 77.4053 19.8042 76.6193 19.8042H73.5227V32.7871H71.7614ZM78.608 26.253L82.1875 32.7871H80.142L76.6193 26.253H78.608ZM84.5543 32.7871V18.2417H93.3327V19.8042H86.3157V24.7189H92.8782V26.2814H86.3157V31.2246H93.4464V32.7871H84.5543ZM104.462 21.878C104.377 21.1583 104.031 20.5996 103.425 20.2019C102.819 19.8042 102.076 19.6053 101.195 19.6053C100.551 19.6053 99.9876 19.7095 99.5046 19.9178C99.0264 20.1261 98.6523 20.4126 98.3825 20.7772C98.1173 21.1417 97.9847 21.556 97.9847 22.0201C97.9847 22.4083 98.0771 22.7421 98.2617 23.0215C98.4511 23.2961 98.6926 23.5257 98.9862 23.7104C99.2797 23.8903 99.5875 24.0395 99.9094 24.1578C100.231 24.2715 100.527 24.3638 100.797 24.4348L102.275 24.8326C102.653 24.932 103.075 25.0693 103.539 25.2445C104.007 25.4197 104.455 25.6588 104.881 25.9618C105.312 26.2601 105.667 26.6436 105.946 27.1124C106.226 27.5811 106.365 28.1564 106.365 28.8382C106.365 29.6242 106.159 30.3345 105.748 30.9689C105.34 31.6034 104.744 32.1077 103.958 32.4817C103.176 32.8558 102.227 33.0428 101.11 33.0428C100.068 33.0428 99.1661 32.8747 98.4038 32.5385C97.6462 32.2024 97.0496 31.7336 96.614 31.1323C96.1831 30.531 95.9393 29.8326 95.8825 29.0371H97.7006C97.748 29.5864 97.9326 30.0409 98.2546 30.4007C98.5813 30.7559 98.9933 31.021 99.4904 31.1962C99.9923 31.3667 100.532 31.4519 101.11 31.4519C101.782 31.4519 102.386 31.343 102.921 31.1252C103.456 30.9026 103.88 30.5949 104.192 30.2019C104.505 29.8042 104.661 29.3401 104.661 28.8098C104.661 28.3269 104.526 27.9339 104.256 27.6309C103.986 27.3278 103.631 27.0816 103.191 26.8922C102.75 26.7028 102.275 26.5371 101.763 26.3951L99.9734 25.8837C98.837 25.557 97.9374 25.0906 97.2745 24.4846C96.6116 23.8785 96.2802 23.0854 96.2802 22.1053C96.2802 21.2909 96.5004 20.5807 96.9407 19.9746C97.3858 19.3638 97.9824 18.8903 98.7305 18.5542C99.4833 18.2132 100.324 18.0428 101.252 18.0428C102.189 18.0428 103.023 18.2109 103.752 18.5471C104.481 18.8785 105.059 19.333 105.485 19.9107C105.916 20.4883 106.143 21.1441 106.167 21.878H104.462ZM108.466 19.8042V18.2417H119.375V19.8042H114.801V32.7871H113.04V19.8042H108.466ZM126.724 21.878V23.2985H120.843V21.878H126.724ZM122.605 32.7871V20.3723C122.605 19.7473 122.752 19.2265 123.045 18.8098C123.339 18.3932 123.72 18.0807 124.189 17.8723C124.657 17.664 125.152 17.5598 125.673 17.5598C126.085 17.5598 126.421 17.593 126.681 17.6593C126.942 17.7256 127.136 17.7871 127.264 17.8439L126.781 19.2928C126.696 19.2644 126.577 19.2289 126.426 19.1863C126.279 19.1436 126.085 19.1223 125.843 19.1223C125.289 19.1223 124.889 19.262 124.643 19.5414C124.402 19.8207 124.281 20.2303 124.281 20.7701V32.7871H122.605ZM135.948 28.3269V21.878H137.624V32.7871H135.948V30.9405H135.835C135.579 31.4945 135.181 31.9656 134.641 32.3539C134.102 32.7374 133.42 32.9292 132.596 32.9292C131.914 32.9292 131.308 32.78 130.778 32.4817C130.247 32.1787 129.831 31.7241 129.528 31.1181C129.225 30.5073 129.073 29.7379 129.073 28.8098V21.878H130.749V28.6962C130.749 29.4917 130.972 30.1261 131.417 30.5996C131.867 31.0731 132.44 31.3098 133.136 31.3098C133.552 31.3098 133.976 31.2033 134.407 30.9902C134.843 30.7772 135.207 30.4505 135.501 30.0101C135.799 29.5698 135.948 29.0087 135.948 28.3269ZM142.37 18.2417V32.7871H140.694V18.2417H142.37ZM151.889 32.7871H150.043L155.384 18.2417H157.202L162.543 32.7871H160.696L156.349 20.5428H156.236L151.889 32.7871ZM152.571 27.1053H160.014V28.6678H152.571V27.1053ZM164.808 32.7871V18.2417H169.723C170.864 18.2417 171.797 18.4476 172.521 18.8596C173.25 19.2667 173.79 19.8184 174.141 20.5144C174.491 21.2104 174.666 21.9869 174.666 22.8439C174.666 23.7009 174.491 24.4798 174.141 25.1806C173.795 25.8813 173.26 26.44 172.536 26.8567C171.811 27.2686 170.883 27.4746 169.751 27.4746H166.229V25.9121H169.695C170.476 25.9121 171.103 25.7772 171.577 25.5073C172.05 25.2374 172.393 24.8728 172.607 24.4135C172.824 23.9495 172.933 23.4263 172.933 22.8439C172.933 22.2615 172.824 21.7407 172.607 21.2814C172.393 20.8221 172.048 20.4623 171.57 20.2019C171.091 19.9367 170.457 19.8042 169.666 19.8042H166.57V32.7871H164.808ZM179.265 18.2417V32.7871H177.504V18.2417H179.265ZM190.297 24.3212L188.791 24.7473C188.696 24.4964 188.556 24.2525 188.372 24.0158C188.192 23.7743 187.946 23.5755 187.633 23.4192C187.321 23.263 186.921 23.1848 186.433 23.1848C185.765 23.1848 185.209 23.3387 184.764 23.6465C184.324 23.9495 184.103 24.3354 184.103 24.8042C184.103 25.2208 184.255 25.5499 184.558 25.7914C184.861 26.0328 185.334 26.2341 185.978 26.3951L187.598 26.7928C188.573 27.0295 189.3 27.3917 189.778 27.8794C190.256 28.3624 190.495 28.985 190.495 29.7473C190.495 30.3723 190.315 30.931 189.956 31.4235C189.6 31.9159 189.103 32.3042 188.464 32.5882C187.825 32.8723 187.082 33.0144 186.234 33.0144C185.121 33.0144 184.2 32.7729 183.471 32.29C182.742 31.807 182.28 31.1015 182.086 30.1735L183.677 29.7757C183.829 30.3629 184.115 30.8032 184.537 31.0968C184.963 31.3903 185.519 31.5371 186.206 31.5371C186.987 31.5371 187.607 31.3714 188.066 31.04C188.53 30.7038 188.762 30.3013 188.762 29.8326C188.762 29.4538 188.63 29.1365 188.365 28.8809C188.1 28.6204 187.692 28.4263 187.143 28.2985L185.325 27.8723C184.326 27.6356 183.592 27.2686 183.123 26.7715C182.659 26.2696 182.427 25.6422 182.427 24.8894C182.427 24.2739 182.6 23.7293 182.946 23.2559C183.296 22.7824 183.772 22.4107 184.373 22.1408C184.979 21.8709 185.666 21.736 186.433 21.736C187.512 21.736 188.36 21.9727 188.975 22.4462C189.596 22.9197 190.036 23.5447 190.297 24.3212Z" fill="white"/>
<defs>
<clipPath id="clip0_5224_19472">
<rect width="48" height="50" fill="white" transform="translate(1 0.787109)"/>
</clipPath>
<clipPath id="clip1_5224_19472">
<rect width="48" height="41.2162" fill="white" transform="translate(1 4.84082)"/>
</clipPath>
</defs>
</svg>
