<svg width="56" height="56" viewBox="0 0 56 56" fill="none" xmlns="http://www.w3.org/2000/svg">
<path d="M27.7266 55.4531C43.0391 55.4531 55.4531 43.0391 55.4531 27.7266C55.4531 12.4141 43.0391 0 27.7266 0C12.4141 0 0 12.4141 0 27.7266C0 43.0391 12.4141 55.4531 27.7266 55.4531Z" fill="#A0B6C5"/>
<path d="M14.5469 29.0391L37.7344 29.0391L29.4219 37.3516C28.9297 37.8437 28.9297 38.7188 29.4219 39.2109C29.9141 39.7031 30.7891 39.7031 31.2812 39.2109L41.8906 28.6563C42 28.5469 42.1094 28.3828 42.1641 28.2188C42.2734 27.8906 42.2734 27.5078 42.1641 27.2344C42.1094 27.0703 42 26.9063 41.8906 26.7969L31.2812 16.2422C31.0078 15.9688 30.6797 15.8594 30.3516 15.8594C30.0234 15.8594 29.6953 15.9688 29.4219 16.2422C28.9297 16.7344 28.9297 17.6094 29.4219 18.1016L37.7344 26.4141L14.4922 26.4141C13.7812 26.4141 13.1797 27.0156 13.1797 27.7266C13.1797 28.4375 13.7812 29.0391 14.5469 29.0391Z" fill="#FCFDFD"/>
</svg>
