<svg width="18" height="18" viewBox="0 0 18 18" fill="none" xmlns="http://www.w3.org/2000/svg">
<g clip-path="url(#clip0_4030_868)">
<path fill-rule="evenodd" clip-rule="evenodd" d="M9.2577 3.11707C9.14217 3.01515 8.99165 2.96193 8.83772 2.96857C8.6838 2.97522 8.53843 3.04121 8.4321 3.15271C8.32578 3.26421 8.26676 3.41255 8.26743 3.56662C8.2681 3.72068 8.32841 3.8685 8.4357 3.97907L13.0717 8.40407H3.4417C3.28363 8.40407 3.13204 8.46686 3.02027 8.57864C2.9085 8.69041 2.8457 8.842 2.8457 9.00007C2.8457 9.15814 2.9085 9.30973 3.02027 9.42151C3.13204 9.53328 3.28363 9.59607 3.4417 9.59607H13.0717L8.4357 14.0201C8.37555 14.0731 8.32673 14.1378 8.29216 14.2102C8.25759 14.2826 8.23799 14.3612 8.23453 14.4413C8.23107 14.5215 8.24383 14.6015 8.27203 14.6766C8.30023 14.7516 8.3433 14.8203 8.39866 14.8783C8.45401 14.9364 8.52052 14.9827 8.59418 15.0144C8.66785 15.0461 8.74717 15.0627 8.82738 15.063C8.9076 15.0634 8.98705 15.0475 9.061 15.0164C9.13494 14.9853 9.20184 14.9396 9.2577 14.8821L14.9697 9.43007C15.0287 9.37426 15.0755 9.30693 15.1074 9.23226C15.1393 9.15759 15.1555 9.07717 15.155 8.99599C15.1546 8.9148 15.1374 8.83457 15.1047 8.76027C15.072 8.68598 15.0243 8.6192 14.9647 8.56407L9.2577 3.11707Z" fill="white"/>
</g>
<defs>
<clipPath id="clip0_4030_868">
<rect width="18" height="18" fill="white"/>
</clipPath>
</defs>
</svg>
