<svg width="31" height="32" viewBox="0 0 31 32" fill="none" xmlns="http://www.w3.org/2000/svg">
<path fill-rule="evenodd" clip-rule="evenodd" d="M15.5007 4.51473C8.902 4.51473 3.55273 9.81568 3.55273 16.3547C3.55273 22.8937 8.902 28.1947 15.5007 28.1947C22.0993 28.1947 27.4486 22.8937 27.4486 16.3547C27.4486 9.81568 22.0993 4.51473 15.5007 4.51473ZM1.61523 16.3547C1.61523 8.75529 7.83195 2.59473 15.5007 2.59473C23.1694 2.59473 29.3861 8.75529 29.3861 16.3547C29.3861 23.9542 23.1694 30.1147 15.5007 30.1147C7.83195 30.1147 1.61523 23.9542 1.61523 16.3547Z" fill="#D9DFFC"/>
<path fill-rule="evenodd" clip-rule="evenodd" d="M15.489 10.9146C14.2369 10.9146 13.2241 11.9188 13.2241 13.1546C13.2241 14.3905 14.2369 15.3946 15.489 15.3946C16.7413 15.3946 17.7541 14.3905 17.7541 13.1546C17.7541 11.9188 16.7413 10.9146 15.489 10.9146ZM11.2865 13.1546C11.2865 10.8558 13.1693 8.99463 15.489 8.99463C17.8087 8.99463 19.6916 10.8558 19.6916 13.1546C19.6916 15.4534 17.8087 17.3146 15.489 17.3146C13.1693 17.3146 11.2865 15.4534 11.2865 13.1546ZM20.6001 23.4053C17.9573 20.5635 13.0367 20.6687 10.3882 23.4175C10.0187 23.801 9.40549 23.8151 9.01852 23.449C8.63155 23.0828 8.61736 22.4752 8.98683 22.0917C12.362 18.5886 18.5795 18.3994 22.0249 22.104C22.3874 22.4939 22.3625 23.1013 21.9691 23.4605C21.5756 23.8198 20.9627 23.7951 20.6001 23.4053Z" fill="#D9DFFC"/>
</svg>
