<svg width="32" height="32" viewBox="0 0 32 32" fill="none" xmlns="http://www.w3.org/2000/svg">
<g clip-path="url(#clip0_12190_27566)">
<path d="M16 0C7.178 0 0 7.178 0 16C0 24.822 7.178 32 16 32C24.822 32 32 24.822 32 16C32 7.178 24.822 0 16 0ZM16 30C8.28 30 2 23.72 2 16C2 8.28 8.28 2 16 2C23.72 2 30 8.28 30 16C30 23.72 23.72 30 16 30Z" fill="#D9DFFC"/>
<path d="M16 15C14.374 15 13 14.084 13 13C13 11.916 14.374 11 16 11C16.92 11 17.772 11.288 18.336 11.788C18.748 12.154 19.378 12.12 19.748 11.704C20.116 11.292 20.078 10.66 19.664 10.292C18.964 9.67 18.024 9.25 17 9.084V8C17 7.448 16.552 7 16 7C15.448 7 15 7.448 15 8V9.08C12.72 9.452 11 11.068 11 13C11 15.206 13.244 17 16 17C17.626 17 19 17.916 19 19C19 20.084 17.626 21 16 21C15.08 21 14.228 20.712 13.664 20.212C13.252 19.844 12.62 19.88 12.252 20.296C11.884 20.708 11.922 21.34 12.336 21.708C13.036 22.332 13.976 22.75 15 22.918V24C15 24.552 15.448 25 16 25C16.552 25 17 24.552 17 24V22.92C19.28 22.548 21 20.932 21 19C21 16.794 18.756 15 16 15Z" fill="#D9DFFC"/>
</g>
<defs>
<clipPath id="clip0_12190_27566">
<rect width="32" height="32" fill="white"/>
</clipPath>
</defs>
</svg>
