<svg width="21" height="26" viewBox="0 0 21 26" fill="none" xmlns="http://www.w3.org/2000/svg">
<path d="M10.5 26C8.28947 26 6.40132 25.4892 4.83553 24.4677C3.27997 23.4379 2.0826 21.9509 1.24342 20.0067C0.414474 18.0624 0 15.7269 0 13C0 10.2814 0.414474 7.95406 1.24342 6.01806C2.0826 4.07383 3.28509 2.58682 4.85088 1.55703C6.4269 0.519011 8.30994 0 10.5 0C12.6901 0 14.568 0.519011 16.1338 1.55703C17.7098 2.58682 18.9123 4.07383 19.7412 6.01806C20.5804 7.95406 21 10.2814 21 13C21 15.7269 20.5804 18.0624 19.7412 20.0067C18.9123 21.9509 17.7149 23.4379 16.1491 24.4677C14.5936 25.4892 12.7105 26 10.5 26ZM10.5 23.924C12.9254 23.924 14.8187 22.9724 16.1798 21.0694C17.5409 19.1581 18.2215 16.4683 18.2215 13C18.2215 10.6933 17.9094 8.72433 17.2851 7.09316C16.6711 5.45374 15.7858 4.20152 14.6294 3.3365C13.4832 2.47148 12.1067 2.03897 10.5 2.03897C8.09503 2.03897 6.20687 3.00285 4.83553 4.93061C3.46418 6.85013 2.77851 9.53992 2.77851 13C2.77851 15.3067 3.08553 17.2757 3.69956 18.9068C4.32383 20.538 5.20906 21.782 6.35526 22.6388C7.5117 23.4956 8.89327 23.924 10.5 23.924Z" fill="#D9DFFC"/>
</svg>
