<svg width="32" height="32" viewBox="0 0 32 32" fill="none" xmlns="http://www.w3.org/2000/svg">
<path d="M12.6661 29.345C12.5806 29.345 12.4927 29.3345 12.4061 29.3118C11.8741 29.1678 11.5567 28.6185 11.7007 28.085L18.3672 3.36505C18.5113 2.83307 19.0606 2.51568 19.5941 2.65973C20.126 2.80377 20.4434 3.35309 20.2994 3.88653L13.6326 28.6065C13.5113 29.0518 13.1072 29.345 12.6661 29.345Z" fill="#D9DFFC"/>
<path d="M9.66675 25.3356C9.41602 25.3356 9.16675 25.2436 8.97192 25.0556L0.30542 16.7035C0.110596 16.5155 0 16.2555 0 15.9836C0 15.7116 0.110596 15.453 0.30542 15.2636L8.97192 6.91154C9.36939 6.52897 10.0012 6.5424 10.3867 6.9384C10.7693 7.33708 10.7573 7.96891 10.3601 8.35295L2.44141 15.985L10.3601 23.6169C10.7573 23.9997 10.7693 24.633 10.3867 25.0317C10.1907 25.2331 9.92798 25.3356 9.66675 25.3356Z" fill="#D9DFFC"/>
<path d="M22.3332 25.3355C22.072 25.3355 21.8093 25.2329 21.6133 25.0301C21.2307 24.6314 21.2427 23.9995 21.6399 23.6155L29.5586 15.9834L21.6399 8.3516C21.2427 7.96879 21.2307 7.33549 21.6133 6.93681C21.9973 6.54081 22.6306 6.52763 23.0281 6.91019L31.6946 15.2622C31.8894 15.4529 32 15.7115 32 15.9834C32 16.2554 31.8894 16.5142 31.6946 16.7034L23.0281 25.0555C22.8332 25.2434 22.584 25.3355 22.3332 25.3355Z" fill="#D9DFFC"/>
</svg>
