<svg width="40" height="41" viewBox="0 0 40 41" fill="none" xmlns="http://www.w3.org/2000/svg">
<path d="M0 20.7637C0 9.71798 8.95431 0.763672 20 0.763672C31.0457 0.763672 40 9.71798 40 20.7637C40 31.8094 31.0457 40.7637 20 40.7637C8.95431 40.7637 0 31.8094 0 20.7637Z" fill="#4361EE"/>
<path d="M12.5824 31.7637V11.4H20.6165C22.1544 11.4 23.4669 11.6751 24.554 12.2253C25.6477 12.7689 26.4796 13.5411 27.0497 14.5421C27.6264 15.5364 27.9148 16.7064 27.9148 18.052C27.9148 19.4043 27.6231 20.5676 27.0398 21.5421C26.4564 22.5099 25.6113 23.2523 24.5043 23.7694C23.4039 24.2864 22.0715 24.5449 20.5071 24.5449H15.1278V21.0847H19.8111C20.633 21.0847 21.3158 20.972 21.8594 20.7466C22.4029 20.5212 22.8073 20.1832 23.0724 19.7324C23.3442 19.2817 23.4801 18.7215 23.4801 18.052C23.4801 17.3759 23.3442 16.8058 23.0724 16.3418C22.8073 15.8778 22.3996 15.5265 21.8494 15.2878C21.3059 15.0426 20.6198 14.9199 19.7912 14.9199H16.8878V31.7637H12.5824ZM23.5795 22.4966L28.6406 31.7637H23.8878L18.9361 22.4966H23.5795Z" fill="white"/>
</svg>
