<svg width="100" height="100" viewBox="0 0 100 100" fill="none" xmlns="http://www.w3.org/2000/svg">
<g id="Group 6">
<path id="Ellipse 1" d="M100 50C100 77.6142 77.6142 100 50 100C22.3858 100 0 77.6142 0 50C0 22.3858 22.3858 0 50 0C77.6142 0 100 22.3858 100 50Z" fill="#FF5D00" fill-opacity="0.1"/>
<g id="bulb-on-svgrepo-com 1">
<path id="Vector" fill-rule="evenodd" clip-rule="evenodd" d="M50 20C51.6569 20 53 21.3432 53 23V26C53 27.6568 51.6569 29 50 29C48.3431 29 47 27.6568 47 26V23C47 21.3432 48.3431 20 50 20Z" fill="#FF5D00"/>
<path id="Vector_2" fill-rule="evenodd" clip-rule="evenodd" d="M73.1212 26.8787C74.2927 28.0503 74.2927 29.9497 73.1212 31.1213L70.1212 34.1213C68.9497 35.2929 67.0501 35.2929 65.8786 34.1213C64.7071 32.9497 64.7071 31.0503 65.8786 29.8787L68.8786 26.8787C70.0501 25.7071 71.9497 25.7071 73.1212 26.8787Z" fill="#FF5D00"/>
<path id="Vector_3" fill-rule="evenodd" clip-rule="evenodd" d="M71 50C71 48.3431 72.3431 47 74 47H77C78.6569 47 80 48.3431 80 50C80 51.6569 78.6569 53 77 53H74C72.3431 53 71 51.6569 71 50Z" fill="#FF5D00"/>
<path id="Vector_4" fill-rule="evenodd" clip-rule="evenodd" d="M20 50C20 48.3431 21.3432 47 23 47H26C27.6568 47 29 48.3431 29 50C29 51.6569 27.6568 53 26 53H23C21.3432 53 20 51.6569 20 50Z" fill="#FF5D00"/>
<path id="Vector_5" fill-rule="evenodd" clip-rule="evenodd" d="M26.8787 26.8787C28.0503 25.7071 29.9497 25.7071 31.1213 26.8787L34.1213 29.8787C35.2929 31.0503 35.2929 32.9497 34.1213 34.1213C32.9497 35.2929 31.0503 35.2929 29.8787 34.1213L26.8787 31.1213C25.7071 29.9497 25.7071 28.0503 26.8787 26.8787Z" fill="#FF5D00"/>
<path id="Vector_6" fill-rule="evenodd" clip-rule="evenodd" d="M50 32C40.0589 32 32 40.0589 32 50C32 54.8996 33.9616 59.3471 37.1356 62.5898C37.9391 63.4109 38.3723 64.1651 38.506 64.8332L40.0933 72.7658C40.935 76.9724 44.6285 80 48.9185 80H51.0815C55.3715 80 59.0651 76.9724 59.9066 72.7658L61.4939 64.8332C61.6277 64.1651 62.0609 63.4109 62.8643 62.5898C66.0383 59.3471 68 54.8996 68 50C68 40.0589 59.9411 32 50 32ZM47 62C45.3431 62 44 63.3431 44 65C44 66.6569 45.3431 68 47 68H53C54.6569 68 56 66.6569 56 65C56 63.3431 54.6569 62 53 62H47Z" fill="#FF5D00"/>
</g>
</g>
</svg>
