<svg width="100" height="100" viewBox="0 0 100 100" fill="none" xmlns="http://www.w3.org/2000/svg">
<circle cx="50" cy="50" r="50" fill="#FF5D00" fill-opacity="0.1"/>
<g clip-path="url(#clip0_2373_1377)">
<path d="M71.625 66.7812H54.1094V68.625C54.1094 69.6391 53.2797 70.4688 52.2656 70.4688H41.2031C40.1891 70.4688 39.3594 69.6391 39.3594 68.625V66.7812H21.8438C20.8297 66.7812 20 67.6109 20 68.625V70.4688C20 73.5202 22.4798 76 25.5313 76H67.9375C70.9889 76 73.4688 73.5202 73.4688 70.4688V68.625C73.4688 67.6109 72.6391 66.7812 71.625 66.7812ZM70.3805 63.0938C70.5925 62.513 70.7031 61.8953 70.7031 61.25V42.5452C69.8089 42.7203 68.887 42.8125 67.9375 42.8125C59.8066 42.8125 53.1875 36.1934 53.1875 28.0625H28.2969C25.2455 28.0625 22.7656 30.5423 22.7656 33.5938V61.25C22.7656 61.8953 22.8763 62.513 23.0883 63.0938H70.3805ZM53.7277 45.0379C53.5516 44.8678 53.4112 44.6644 53.3145 44.4394C53.2179 44.2145 53.167 43.9726 53.1649 43.7277C53.1628 43.4829 53.2094 43.2401 53.3021 43.0136C53.3948 42.787 53.5318 42.5811 53.7049 42.408C53.878 42.2349 54.0838 42.098 54.3104 42.0053C54.537 41.9126 54.7798 41.8659 55.0246 41.868C55.2694 41.8702 55.5114 41.921 55.7363 42.0177C55.9613 42.1143 56.1647 42.2547 56.3348 42.4308L60.0223 46.1183C60.3679 46.4641 60.5621 46.933 60.5621 47.4219C60.5621 47.9108 60.3679 48.3797 60.0223 48.7254L56.3348 52.4129C55.9743 52.7734 55.5033 52.9531 55.0313 52.9531C54.5593 52.9531 54.0882 52.7734 53.7277 52.4129C53.3821 52.0672 53.1879 51.5983 53.1879 51.1094C53.1879 50.6205 53.3821 50.1516 53.7277 49.8058L56.1117 47.4219L53.7277 45.0379ZM43.1418 52.3696L46.8293 41.3071C46.9059 41.0774 47.027 40.865 47.1856 40.6821C47.3443 40.4991 47.5374 40.3492 47.754 40.2409C47.9706 40.1327 48.2063 40.0681 48.4479 40.0509C48.6894 40.0338 48.932 40.0643 49.1617 40.1409C49.3914 40.2175 49.6038 40.3385 49.7867 40.4972C49.9696 40.6558 50.1195 40.849 50.2278 41.0656C50.3361 41.2821 50.4007 41.5179 50.4178 41.7595C50.435 42.001 50.4044 42.2435 50.3278 42.4732L46.6403 53.5358C46.5638 53.7655 46.4427 53.9778 46.2841 54.1608C46.1254 54.3437 45.9323 54.4936 45.7157 54.6019C45.4991 54.7102 45.2633 54.7747 45.0218 54.7919C44.7803 54.8091 44.5377 54.7785 44.308 54.7019C44.0783 54.6254 43.8659 54.5043 43.683 54.3456C43.5 54.187 43.3502 53.9939 43.2419 53.7773C43.1336 53.5607 43.069 53.3249 43.0518 53.0834C43.0347 52.8418 43.0653 52.5993 43.1418 52.3696ZM33.4465 46.1183L37.134 42.4308C37.3041 42.2547 37.5075 42.1143 37.7324 42.0177C37.9574 41.921 38.1993 41.8702 38.4441 41.868C38.6889 41.8659 38.9317 41.9126 39.1583 42.0053C39.3849 42.098 39.5908 42.2349 39.7639 42.408C39.937 42.5811 40.0739 42.787 40.1666 43.0136C40.2593 43.2401 40.306 43.4829 40.3038 43.7277C40.3017 43.9726 40.2508 44.2145 40.1542 44.4394C40.0576 44.6644 39.9171 44.8678 39.741 45.0379L37.3571 47.4219L39.741 49.8058C39.9171 49.9759 40.0576 50.1794 40.1542 50.4043C40.2508 50.6293 40.3017 50.8712 40.3038 51.116C40.306 51.3608 40.2593 51.6036 40.1666 51.8302C40.0739 52.0568 39.937 52.2626 39.7639 52.4358C39.5908 52.6089 39.3849 52.7458 39.1583 52.8385C38.9317 52.9312 38.6889 52.9778 38.4441 52.9757C38.1993 52.9736 37.9574 52.9227 37.7324 52.8261C37.5075 52.7295 37.3041 52.589 37.134 52.4129L33.4465 48.7254C33.1008 48.3797 32.9066 47.9108 32.9066 47.4219C32.9066 46.933 33.1008 46.4641 33.4465 46.1183ZM50.4403 24.375C50.9293 24.375 51.3983 24.1807 51.744 23.835C52.0898 23.4892 52.2841 23.0202 52.2841 22.5312C52.2841 22.0423 52.0898 21.5733 51.744 21.2275C51.3983 20.8818 50.9293 20.6875 50.4403 20.6875H50.4311C49.4133 20.6875 48.592 21.5135 48.592 22.5312C48.592 23.549 49.4216 24.375 50.4403 24.375ZM43.0653 24.375C43.5543 24.375 44.0233 24.1807 44.369 23.835C44.7148 23.4892 44.9091 23.0202 44.9091 22.5312C44.9091 22.0423 44.7148 21.5733 44.369 21.2275C44.0233 20.8818 43.5543 20.6875 43.0653 20.6875H43.0561C42.0383 20.6875 41.217 21.5135 41.217 22.5312C41.217 23.549 42.0466 24.375 43.0653 24.375ZM67.9375 34.8641C69.2484 33.543 70.1574 31.7924 70.5224 29.9062H65.3516C65.7176 31.7924 66.6266 33.543 67.9375 34.8641ZM70.5224 26.2188C70.1574 24.3326 69.2484 22.582 67.9375 21.2609C66.6266 22.582 65.7176 24.3326 65.3526 26.2188H70.5224ZM69.0143 38.7784C68.7006 39.004 68.3239 39.1253 67.9375 39.125C73.4171 39.125 77.9546 35.136 78.8341 29.9062H74.2468C73.7462 33.4518 71.8444 36.7429 69.0143 38.7784ZM74.2468 26.2188H78.8341C77.9546 20.9899 73.4199 17.0028 67.9421 17C68.3182 17.0009 68.6944 17.1162 69.0143 17.3466C71.8444 19.3821 73.7462 22.6732 74.2468 26.2188ZM66.8608 17.3466C67.1806 17.1162 67.5568 17.0009 67.9329 17C62.4551 17.0028 57.9204 20.9899 57.0409 26.2188H61.6282C62.1288 22.6732 64.0306 19.3821 66.8608 17.3466Z" fill="#FF5D00"/>
<path d="M61.6283 29.9062H57.041C57.9205 35.136 62.458 39.125 67.9376 39.125C67.5605 39.125 67.1826 39.0098 66.8608 38.7784C64.0307 36.7429 62.1288 33.4518 61.6283 29.9062Z" fill="#FF5D00"/>
</g>
<defs>
<clipPath id="clip0_2373_1377">
<rect width="59" height="59" fill="white" transform="translate(20 17)"/>
</clipPath>
</defs>
</svg>
