<svg width="100" height="100" viewBox="0 0 100 100" fill="none" xmlns="http://www.w3.org/2000/svg">
<circle cx="50" cy="50" r="50" fill="#FF5D00" fill-opacity="0.1"/>
<g clip-path="url(#clip0_2356_1388)">
<path d="M47.7425 20V41.1522C51.3175 42.3439 53.7009 45.621 53.7009 49.4939C53.7009 50.9835 53.4029 52.4731 52.5092 53.6648L58.4675 58.4315C58.7655 58.4315 59.0634 58.1335 59.6592 58.1335C61.4467 58.1335 62.6384 59.3252 62.6384 61.1127C62.6384 62.9002 61.4467 64.0919 59.6592 64.0919C57.8717 64.0919 56.68 62.9002 56.68 61.1127V60.8148L50.7217 56.0481C49.2321 57.5377 47.1467 58.4315 44.7633 58.4315C39.6987 58.4315 35.8258 54.5585 35.8258 49.4939C35.8258 45.621 38.2091 42.3439 41.7841 41.1522V20.2979H41.4862C31.0591 21.4896 22.4194 30.1292 21.2278 40.8543C20.334 47.4085 22.1215 53.3668 25.6965 58.1335C28.3778 61.7086 29.8674 65.5815 29.8674 70.0503V79.5837H56.68V70.6461H62.6384C65.9155 70.6461 68.5968 67.9648 68.5968 64.6877V55.7502L73.0655 53.9627C74.2572 53.3668 74.8531 51.5793 74.2572 50.3877L68.5968 41.4501C67.4051 30.4271 58.7655 21.4896 47.7425 20ZM44.7633 45.3231C42.38 45.3231 40.2945 47.4085 40.2945 49.7918C40.2945 52.1752 42.38 54.2606 44.7633 54.2606C47.1467 54.2606 49.2321 52.1752 49.2321 49.7918C49.2321 47.4085 47.1467 45.3231 44.7633 45.3231Z" fill="#FF5D00"/>
</g>
<defs>
<clipPath id="clip0_2356_1388">
<rect width="65" height="65" fill="white" transform="translate(14.5 17)"/>
</clipPath>
</defs>
</svg>
