<svg width="100" height="100" viewBox="0 0 100 100" fill="none" xmlns="http://www.w3.org/2000/svg">
<circle cx="50" cy="50" r="50" fill="#FF5D00" fill-opacity="0.1"/>
<g clip-path="url(#clip0_2356_1553)">
<path d="M26.71 73.2745H74.29C78.4837 68.0132 81 61.4176 81 54.1738C81 37.3607 67.3512 23.6738 50.5 23.6738C33.6487 23.6738 20 37.3607 20 54.1738C20 61.4176 22.5162 68.0132 26.71 73.2745ZM46.6875 31.2988C46.6875 29.202 48.4031 27.4863 50.5 27.4863C52.5969 27.4863 54.3125 29.202 54.3125 31.2988C54.3125 33.4338 52.5969 35.1113 50.5 35.1113C48.4031 35.1113 46.6875 33.4338 46.6875 31.2988ZM27.625 38.9238C27.625 36.827 29.3406 35.1113 31.4375 35.1113C33.5344 35.1113 35.25 36.827 35.25 38.9238C35.25 41.0588 33.5344 42.7363 31.4375 42.7363C29.3406 42.7363 27.625 41.0588 27.625 38.9238ZM44.8575 51.8863C48.06 48.722 69.6769 38.5426 69.6769 38.5426C69.6769 38.5426 59.5356 60.1976 56.3713 63.362C53.1688 66.5645 48.06 66.5645 44.8575 63.362C41.6931 60.1976 41.6931 55.0507 44.8575 51.8863ZM23.8125 57.9863C23.8125 55.8895 25.5281 54.1738 27.625 54.1738C29.7219 54.1738 31.4375 55.8895 31.4375 57.9863C31.4375 60.1213 29.7219 61.7988 27.625 61.7988C25.5281 61.7988 23.8125 60.1213 23.8125 57.9863ZM46.6875 57.9863C46.6875 55.8895 48.4031 54.1738 50.5 54.1738C52.5969 54.1738 54.3125 55.8895 54.3125 57.9863C54.3125 60.1213 52.5969 61.7988 50.5 61.7988C48.4031 61.7988 46.6875 60.1213 46.6875 57.9863ZM69.5625 57.9863C69.5625 55.8895 71.2781 54.1738 73.375 54.1738C75.4719 54.1738 77.1875 55.8895 77.1875 57.9863C77.1875 60.1213 75.4719 61.7988 73.375 61.7988C71.2781 61.7988 69.5625 60.1213 69.5625 57.9863Z" fill="#FF5D00"/>
</g>
<defs>
<clipPath id="clip0_2356_1553">
<rect width="61" height="61" fill="white" transform="translate(20 19)"/>
</clipPath>
</defs>
</svg>
