<svg width="100" height="100" viewBox="0 0 100 100" fill="none" xmlns="http://www.w3.org/2000/svg">
<circle cx="50" cy="50" r="50" fill="#FF5D00" fill-opacity="0.1"/>
<path d="M76.2435 17C76.1878 17.22 76.1042 17.44 75.9928 17.66C75.8256 18.265 75.5749 18.8425 75.2406 19.3925C74.8506 20.1625 74.4049 20.905 73.9035 21.62C73.2349 22.5 72.5106 23.27 71.7305 23.93C70.7834 24.7 69.7248 25.3325 68.5548 25.8275C67.2733 26.3775 65.9083 26.7075 64.4597 26.8175C62.7882 26.9825 61.0053 26.8725 59.111 26.4875C57.0495 26.1025 54.8487 25.3875 52.5086 24.3425C50.8372 23.5725 49.9179 23.1325 49.7507 23.0225L21.8372 34.325L49.8343 47.7725L51.3386 47.195C52.6201 46.59 53.9851 45.93 55.4337 45.215C58.6652 43.73 61.5903 41.7225 64.2089 39.1925C66.4376 37.0475 68.4155 34.5725 70.1427 31.7675C71.5913 29.5125 72.817 27.12 73.8199 24.59C74.5999 22.775 75.2406 20.96 75.7421 19.145L76.2435 17ZM20.5 40.3475V69.0575L46.5749 83V53.465L20.5 40.3475ZM78.5 40.3475L52.4251 53.465V83L78.5 69.0575V40.3475Z" fill="#FF5D00"/>
</svg>
