<svg width="74" height="75" viewBox="0 0 74 75" fill="none" xmlns="http://www.w3.org/2000/svg">
<path d="M48.5156 45.4865C59.4349 45.4865 68.2865 36.6709 68.2865 25.7965C68.2865 14.922 59.4349 6.10645 48.5156 6.10645C37.5966 6.10645 28.745 14.922 28.745 25.7965C28.745 30.8334 31.0439 34.4968 31.0439 34.4968L7.13507 58.3078C6.06223 59.3762 4.56025 62.1542 7.13507 64.7184L9.89377 67.466C10.9666 68.3818 13.6639 69.6639 15.8709 67.466L19.0894 64.2607C22.3079 67.466 25.9861 65.6345 27.3655 63.8027C29.6644 60.5973 26.9057 57.392 26.9057 57.392L27.8253 56.4763C32.2391 60.872 36.1014 58.3078 37.4808 56.4763C39.7798 53.271 37.4808 50.0657 37.4808 50.0657C36.5613 48.2338 34.7223 48.2338 37.0209 45.9446L39.7798 43.197C41.9867 45.0285 46.5233 45.4865 48.5156 45.4865Z" stroke="#1C274C" stroke-width="4" stroke-linejoin="round"/>
<path d="M55.4129 25.7964C55.4129 29.5898 52.3253 32.6649 48.5164 32.6649C44.7073 32.6649 41.6196 29.5898 41.6196 25.7964C41.6196 22.0029 44.7073 18.9277 48.5164 18.9277C52.3253 18.9277 55.4129 22.0029 55.4129 25.7964Z" stroke="#1C274C" stroke-width="4"/>
</svg>
