<svg width="51" height="51" viewBox="0 0 51 51" fill="none" xmlns="http://www.w3.org/2000/svg">
<path d="M25.15 50.9442C20.1758 50.9442 15.3133 49.4778 11.1774 46.7304C7.04152 43.983 3.81799 40.0781 1.91444 35.5094C0.0108974 30.9406 -0.487157 25.9134 0.483261 21.0632C1.45368 16.2131 3.84899 11.758 7.36628 8.26124C10.8836 4.76449 15.3649 2.38318 20.2435 1.41843C25.1221 0.453677 30.1789 0.948822 34.7745 2.84125C39.3701 4.73367 43.298 7.93838 46.0615 12.0501C48.825 16.1619 50.3 20.9959 50.3 25.9411C50.2921 32.5699 47.6398 38.925 42.925 43.6122C38.2102 48.2995 31.8178 50.9363 25.15 50.9442ZM25.15 5.06376C20.9966 5.06376 16.9365 6.28819 13.483 8.58222C10.0296 10.8763 7.33798 14.1368 5.74854 17.9517C4.1591 21.7665 3.74323 25.9643 4.55352 30.0141C5.36381 34.0639 7.36386 37.7839 10.3008 40.7036C13.2377 43.6234 16.9795 45.6117 21.0531 46.4173C25.1267 47.2228 29.3491 46.8094 33.1864 45.2292C37.0236 43.6491 40.3034 40.9732 42.6109 37.5399C44.9184 34.1067 46.15 30.0702 46.15 25.9411C46.1368 20.4081 43.9201 15.1055 39.9847 11.1931C36.0493 7.28067 30.7155 5.07689 25.15 5.06376Z" fill="#FCFDFD"/>
<path d="M36.5791 15.1645C36.8391 14.9855 37.1391 14.896 37.3491 15.0949C37.5591 15.2937 37.4291 15.8007 37.2291 16.089L25.7191 33.6757C25.1746 34.6343 24.4478 35.4784 23.5791 36.1611C22.9563 36.5773 22.2357 36.8263 21.4875 36.8837C20.7393 36.9412 19.9888 36.8053 19.3091 36.4892C18.3367 35.9431 17.4807 35.2136 16.7891 34.3418L13.3391 30.5242C12.4791 29.5301 12.5891 27.8897 14.1691 27.7903C14.898 27.8126 15.6069 28.0326 16.2191 28.4265L19.4891 30.1365C19.907 30.4096 20.3992 30.5484 20.8991 30.5342C21.4171 30.4028 21.8773 30.1059 22.2091 29.6891L36.2891 15.413C36.3775 15.3211 36.4747 15.2379 36.5791 15.1645Z" fill="#FCFDFD"/>
</svg>
