<svg width="42" height="42" viewBox="0 0 42 42" fill="none" xmlns="http://www.w3.org/2000/svg">
<path d="M21 42C16.8466 42 12.7865 40.7684 9.33303 38.4609C5.8796 36.1534 3.18798 32.8736 1.59854 29.0364C0.00909922 25.1991 -0.406771 20.9767 0.403518 16.9031C1.21381 12.8295 3.21386 9.08767 6.15077 6.15077C9.08767 3.21386 12.8295 1.21381 16.9031 0.403518C20.9767 -0.406771 25.1991 0.00909922 29.0364 1.59854C32.8736 3.18798 36.1534 5.8796 38.4609 9.33303C40.7684 12.7865 42 16.8466 42 21C41.9934 26.5675 39.7787 31.9051 35.8419 35.8419C31.9051 39.7787 26.5675 41.9934 21 42ZM21 3.46522C17.5319 3.46522 14.1418 4.49361 11.2582 6.42036C8.37462 8.34711 6.12714 11.0857 4.79997 14.2897C3.47281 17.4938 3.12556 21.0195 3.80214 24.4209C4.47873 27.8223 6.14875 30.9467 8.60104 33.399C11.0533 35.8513 14.1777 37.5213 17.5791 38.1979C20.9806 38.8745 24.5062 38.5272 27.7103 37.2C30.9143 35.8729 33.6529 33.6254 35.5796 30.7418C37.5064 27.8582 38.5348 24.4681 38.5348 21C38.5238 16.3529 36.6728 11.8992 33.3868 8.61322C30.1008 5.32719 25.6471 3.47624 21 3.46522Z" fill="#00050F"/>
<path d="M30.5467 11.9492C30.7638 11.7989 31.0143 11.7238 31.1896 11.8908C31.365 12.0578 31.2564 12.4836 31.0894 12.7257L21.4787 27.4967C21.0241 28.3018 20.4172 29.0108 19.6918 29.5842C19.1718 29.9338 18.5701 30.1429 17.9454 30.1911C17.3206 30.2394 16.694 30.1253 16.1264 29.8597C15.3145 29.401 14.5997 28.7884 14.0223 28.0562L11.1415 24.8498C10.4234 24.0148 10.5153 22.6371 11.8346 22.5536C12.4432 22.5723 13.0351 22.7571 13.5463 23.088L16.2767 24.5241C16.6257 24.7535 17.0367 24.8701 17.4541 24.8581C17.8866 24.7478 18.2709 24.4984 18.5479 24.1484L30.3046 12.1579C30.3784 12.0808 30.4595 12.0109 30.5467 11.9492Z" fill="#00050F"/>
</svg>
