<svg width="32" height="32" viewBox="0 0 32 32" fill="none" xmlns="http://www.w3.org/2000/svg">
<path d="M21.5 22H5.5V7C5.5 6.45 5.95 6 6.5 6H18.5C19.05 6 19.5 6.45 19.5 7V10.5H22.5V5C22.5 3.35 21.15 2 19.5 2H5.5C3.85 2 2.5 3.35 2.5 5V23V27C2.5 28.65 3.85 30 5.5 30H19.5C21.15 30 22.5 28.65 22.5 27V23C22.5 22.45 22.05 22 21.5 22ZM14.5 27H10.5V25H14.5V27ZM30 19V21H24C24 19.35 22.65 18 21 18C19.35 18 18 19.35 18 21H12V19C12 18.45 12.45 18 13 18H14.95L13.55 16.6C13.15 16.2 13.15 15.6 13.55 15.2L15.65 13.1C16.05 12.7 16.65 12.7 17.05 13.1L18.45 14.5V12.5C18.45 11.95 18.9 11.5 19.45 11.5H22.45C23 11.5 23.45 11.95 23.45 12.5V14.45L24.85 13.05C25.25 12.65 25.85 12.65 26.25 13.05L28.35 15.15C28.75 15.55 28.75 16.15 28.35 16.55L27.05 18H29C29.55 18 30 18.45 30 19Z" fill="#F5FAFE"/>
</svg>
