<svg width="32" height="32" viewBox="0 0 32 32" fill="none" xmlns="http://www.w3.org/2000/svg">
<path d="M3.80388 1.80006C2.70712 1.80006 1.80078 2.7064 1.80078 3.80316V27.8404C1.80078 28.9371 2.70712 29.8435 3.80388 29.8435H18.8271C19.9238 29.8435 20.8302 28.9371 20.8302 27.8404V22.1439H26.5891V23.4498C25.5775 23.7718 24.8365 24.7245 24.8365 25.8371C24.8365 27.2111 25.9663 28.3411 27.3402 28.3411C28.7142 28.3411 29.8442 27.2111 29.8442 25.8371C29.8442 24.7245 29.103 23.7718 28.0914 23.4498V21.3928C28.0913 20.9779 27.7551 20.6417 27.3402 20.6417H20.8302V16.5728H24.9532C25.2752 17.5843 26.2275 18.3255 27.3402 18.3255C28.7142 18.3255 29.8441 17.1956 29.8441 15.8216C29.8441 14.4477 28.7142 13.3177 27.3402 13.3177C26.2275 13.3177 25.2752 14.0589 24.9532 15.0705H20.8302V11.0017H27.3402C27.7551 11.0016 28.0913 10.6653 28.0914 10.2505V8.19296C29.103 7.87089 29.8442 6.9186 29.8442 5.80607C29.8442 4.43213 28.7142 3.30213 27.3402 3.30213C25.9663 3.30213 24.8365 4.43213 24.8365 5.80607C24.8365 6.9186 25.5775 7.87089 26.5891 8.19296V9.49935H20.8302V3.80291C20.8302 2.70615 19.9238 1.7998 18.8271 1.7998L3.80388 1.80006ZM9.13019 3.30238H13.5009L12.6662 4.55438H9.96485L9.13019 3.30238ZM27.3402 4.80477C27.9022 4.80477 28.3419 5.24426 28.3419 5.80632C28.3419 6.36831 27.9022 6.80787 27.3402 6.80787C26.7782 6.80787 26.3387 6.36831 26.3387 5.80632C26.3387 5.24426 26.7782 4.80477 27.3402 4.80477ZM11.3154 9.53203C14.7808 9.53203 17.6052 12.3563 17.6052 15.8218C17.6052 19.2871 14.781 22.1115 11.3154 22.1115C7.85002 22.1115 5.02571 19.2874 5.02571 15.8218C5.02571 12.3563 7.8499 9.53203 11.3154 9.53203ZM27.3402 14.8203C27.9022 14.8203 28.3419 15.2598 28.3419 15.8219C28.3419 16.3839 27.9022 16.8234 27.3402 16.8234C26.7782 16.8234 26.3387 16.3839 26.3387 15.8219C26.3387 15.2598 26.7782 14.8203 27.3402 14.8203ZM27.3402 24.8358C27.9022 24.8358 28.3419 25.2753 28.3419 25.8374C28.3419 26.3994 27.9022 26.8389 27.3402 26.8389C26.7782 26.8389 26.3387 26.3994 26.3387 25.8374C26.3387 25.2753 26.7782 24.8358 27.3402 24.8358ZM9.81312 25.3364H12.8178C13.017 25.3364 13.208 25.4155 13.3489 25.5564C13.4898 25.6972 13.5689 25.8883 13.5689 26.0875C13.5689 26.2867 13.4898 26.4778 13.3489 26.6187C13.208 26.7595 13.017 26.8387 12.8178 26.8387H9.81312C9.6139 26.8387 9.42283 26.7595 9.28196 26.6187C9.14109 26.4778 9.06196 26.2867 9.06196 26.0875C9.06196 25.8883 9.14109 25.6972 9.28196 25.5564C9.42283 25.4155 9.6139 25.3364 9.81312 25.3364Z" fill="#F5FAFE"/>
<path d="M8.49335 12.8613C8.29413 12.8613 8.10308 12.9405 7.96222 13.0814C7.82135 13.2222 7.7422 13.4133 7.74219 13.6125V18.0206C7.74218 18.1192 7.7616 18.2169 7.79934 18.308C7.83709 18.3992 7.89242 18.482 7.96217 18.5518C8.03192 18.6215 8.11474 18.6769 8.20588 18.7146C8.29702 18.7524 8.3947 18.7718 8.49335 18.7718C8.592 18.7718 8.6897 18.7524 8.78084 18.7146C8.87199 18.6769 8.9548 18.6215 9.02456 18.5518C9.09432 18.482 9.14966 18.3992 9.18741 18.3081C9.22516 18.2169 9.24458 18.1192 9.24457 18.0206V17.0616H10.7437V18.0305C10.7437 18.1292 10.7631 18.2269 10.8009 18.318C10.8386 18.4091 10.8939 18.492 10.9637 18.5617C11.0334 18.6315 11.1163 18.6868 11.2074 18.7246C11.2985 18.7623 11.3962 18.7817 11.4949 18.7817C11.5935 18.7817 11.6912 18.7623 11.7823 18.7246C11.8735 18.6868 11.9563 18.6315 12.026 18.5617C12.0958 18.492 12.1511 18.4091 12.1889 18.318C12.2266 18.2269 12.246 18.1292 12.246 18.0305V13.6125C12.246 13.4133 12.1669 13.2222 12.026 13.0814C11.8851 12.9405 11.6941 12.8613 11.4949 12.8613H8.49335ZM9.24457 14.3637H10.7437V15.5593H9.24457V14.3637Z" fill="#F5FAFE"/>
<path d="M14.1379 12.8613C13.9387 12.8613 13.7476 12.9405 13.6067 13.0813C13.4659 13.2222 13.3867 13.4133 13.3867 13.6125V18.0206C13.3867 18.2198 13.4659 18.4108 13.6067 18.5517C13.7476 18.6926 13.9387 18.7717 14.1379 18.7717C14.3371 18.7717 14.5282 18.6926 14.669 18.5517C14.8099 18.4108 14.889 18.2198 14.889 18.0206V13.6125C14.889 13.4133 14.8099 13.2222 14.669 13.0813C14.5282 12.9405 14.3371 12.8613 14.1379 12.8613Z" fill="#F5FAFE"/>
</svg>
