<svg width="100" height="100" viewBox="0 0 100 100" fill="none" xmlns="http://www.w3.org/2000/svg">
<rect width="100" height="100" fill="#F5F5F5"/>
<g id="App Development Services01 Virginia" clip-path="url(#clip0_0_1)">
<rect width="1900" height="10237" transform="translate(-412 -1764)" fill="white"/>
<g id="Frame 61">
<rect width="1900" height="2280" transform="translate(-412 -464)" fill="#EFF3F5"/>
<g id="card">
<rect x="-182" y="-40" width="464" height="526" rx="8" fill="#FCFDFD"/>
<g id="rss-ios">
<path id="Ellipse 1" d="M100 50C100 77.6142 77.6142 100 50 100C22.3858 100 0 77.6142 0 50C0 22.3858 22.3858 0 50 0C77.6142 0 100 22.3858 100 50Z" fill="#FF5D00" fill-opacity="0.1"/>
<path id="Vector" d="M74.4 59.8101C73.4593 62.8149 71.9759 65.8197 69.9497 68.8245C66.8382 73.5361 63.7387 75.8918 60.6513 75.8918C59.4693 75.8918 57.7809 75.5072 55.5859 74.738C53.5116 73.9688 51.6905 73.5841 50.1226 73.5841C48.6513 73.5841 46.9387 73.9808 44.9849 74.774C43.0312 75.5913 41.4392 76 40.209 76C36.5427 76 32.9126 72.887 29.3186 66.6611C25.7729 60.387 24 54.3413 24 48.524C24 43.0433 25.3628 38.5481 28.0884 35.0385C30.7899 31.5769 34.2151 29.8462 38.3638 29.8462C40.1005 29.8462 42.2352 30.2067 44.7678 30.9279C47.2764 31.649 48.9407 32.0096 49.7608 32.0096C50.8462 32.0096 52.5709 31.601 54.9347 30.7837C57.395 29.9663 59.4814 29.5577 61.194 29.5577C64.0643 29.5577 66.6332 30.3389 68.9005 31.9014C70.1548 32.7668 71.409 33.9688 72.6633 35.5072C70.7578 37.1178 69.3829 38.5361 68.5387 39.762C66.9709 42.0216 66.1869 44.5096 66.1869 47.226C66.1869 50.2067 67.0191 52.887 68.6834 55.2668C70.3477 57.6466 72.2533 59.1611 74.4 59.8101ZM60.796 17.5144C60.796 18.9808 60.4462 20.6154 59.7467 22.4183C59.0231 24.2212 57.9015 25.8798 56.3819 27.3942C55.0794 28.6923 53.7769 29.5577 52.4744 29.9904C51.5819 30.2548 50.3276 30.4591 48.7116 30.6034C48.7839 27.0216 49.7246 23.9327 51.5337 21.3365C53.3186 18.7644 56.3337 16.9856 60.5789 16C60.603 16.0721 60.6332 16.2043 60.6693 16.3966C60.7055 16.5889 60.7357 16.7212 60.7598 16.7933C60.7598 16.8894 60.7658 17.0096 60.7779 17.1538C60.79 17.2981 60.796 17.4183 60.796 17.5144Z" fill="#FF5D00"/>
</g>
</g>
</g>
</g>
<defs>
<clipPath id="clip0_0_1">
<rect width="1900" height="10237" fill="white" transform="translate(-412 -1764)"/>
</clipPath>
</defs>
</svg>
