<svg width="100" height="100" viewBox="0 0 100 100" fill="none" xmlns="http://www.w3.org/2000/svg">
<circle cx="50" cy="50" r="50" fill="#FF5D00" fill-opacity="0.1"/>
<g clip-path="url(#clip0_6611_3954)">
<path fill-rule="evenodd" clip-rule="evenodd" d="M48.0142 24.7313V37.2651H38.6499C39.1894 35.2188 39.8635 33.3515 40.6466 31.7153C42.5866 27.6626 45.1768 25.0555 48.0142 24.7313Z" fill="#FF5D00"/>
<path fill-rule="evenodd" clip-rule="evenodd" d="M26.5093 37.2651C30.2847 30.3032 37.2528 25.3239 45.4504 24.2946C43.1693 25.4727 41.1479 27.8991 39.5684 31.1997C38.7144 32.982 37.9863 35.0257 37.414 37.2651H26.5093Z" fill="#FF5D00"/>
<path fill-rule="evenodd" clip-rule="evenodd" d="M38.3528 38.4655H48.0138V48.6279H37.187C37.2278 44.9888 37.6423 41.5473 38.3528 38.4655Z" fill="#FF5D00"/>
<path fill-rule="evenodd" clip-rule="evenodd" d="M23.4902 48.6279C23.5753 44.9977 24.4301 41.5571 25.898 38.4655H37.126C36.4315 41.5677 36.0276 45.0056 35.9868 48.6279H23.4902Z" fill="#FF5D00"/>
<path fill-rule="evenodd" clip-rule="evenodd" d="M37.187 49.8273H48.0138V60.1234H38.3705C37.6503 57.0088 37.2286 53.5195 37.187 49.8273Z" fill="#FF5D00"/>
<path fill-rule="evenodd" clip-rule="evenodd" d="M25.9635 60.1234C24.4567 56.9964 23.577 53.5106 23.4902 49.8273H35.9868C36.0285 53.5018 36.4484 56.9849 37.1694 60.1234H25.9635Z" fill="#FF5D00"/>
<path fill-rule="evenodd" clip-rule="evenodd" d="M38.6685 61.3237H48.0141V73.7247C44.0039 73.28 40.5402 68.3981 38.6685 61.3237Z" fill="#FF5D00"/>
<path fill-rule="evenodd" clip-rule="evenodd" d="M45.4917 74.1658C37.3287 73.1542 30.381 68.2271 26.5825 61.3237H37.4642C39.1146 67.6256 42.0148 72.3649 45.4917 74.1658Z" fill="#FF5D00"/>
<path fill-rule="evenodd" clip-rule="evenodd" d="M60.1472 71.5615C57.5836 72.8876 54.7622 73.7858 51.7769 74.1605C54.0588 72.9833 56.0803 70.556 57.6606 67.2554C57.7979 66.9675 57.9326 66.6734 58.0637 66.3722L60.1472 71.5615Z" fill="#FF5D00"/>
<path fill-rule="evenodd" clip-rule="evenodd" d="M57.4252 64.7812C57.1604 65.4659 56.8796 66.1197 56.5828 66.7398C54.6428 70.7925 52.0526 73.3996 49.2144 73.7238V61.3237H56.0362L57.4252 64.7812Z" fill="#FF5D00"/>
<path fill-rule="evenodd" clip-rule="evenodd" d="M70.6465 61.3237C70.6031 61.4017 70.5597 61.4796 70.5163 61.5567L69.9219 61.3237H70.6465Z" fill="#FF5D00"/>
<path fill-rule="evenodd" clip-rule="evenodd" d="M55.5543 60.1234H49.2144V49.8273H60.042C60.0217 51.5733 59.9162 53.2732 59.7329 54.9102L52.2865 51.987L55.5543 60.1234Z" fill="#FF5D00"/>
<path fill-rule="evenodd" clip-rule="evenodd" d="M73.7381 49.8273C73.6575 53.2847 72.8771 56.5677 71.5351 59.5432L60.8872 55.3629C61.0989 53.5833 61.2203 51.7309 61.2415 49.8273H73.7381Z" fill="#FF5D00"/>
<path fill-rule="evenodd" clip-rule="evenodd" d="M60.042 48.6279H49.2144V38.4655H58.8887C59.5902 41.5455 60.0004 44.9879 60.042 48.6279Z" fill="#FF5D00"/>
<path fill-rule="evenodd" clip-rule="evenodd" d="M71.3303 38.4655C72.7982 41.5571 73.653 44.9977 73.738 48.6279H61.2414C61.2007 45.0056 60.7923 41.5686 60.0898 38.4655H71.3303Z" fill="#FF5D00"/>
<path fill-rule="evenodd" clip-rule="evenodd" d="M58.5954 37.2652H49.2144V24.7305C53.2503 25.1778 56.7316 30.1182 58.5954 37.2652Z" fill="#FF5D00"/>
<path fill-rule="evenodd" clip-rule="evenodd" d="M51.7373 24.2893C59.9526 25.308 66.9375 30.2909 70.7192 37.2652H59.7994C58.1544 30.8968 55.2382 26.1035 51.7373 24.2893Z" fill="#FF5D00"/>
<path fill-rule="evenodd" clip-rule="evenodd" d="M73.8815 61.656L54.291 53.9651L62.1715 73.5874L66.0178 69.6676L72.2426 75.9039L76.5168 71.6368L70.2486 65.357L73.8815 61.656Z" fill="#2A231F"/>
</g>
<defs>
<clipPath id="clip0_6611_3954">
<rect width="60" height="60" fill="white" transform="translate(20 20)"/>
</clipPath>
</defs>
</svg>
