<svg width="100" height="100" viewBox="0 0 100 100" fill="none" xmlns="http://www.w3.org/2000/svg">
<circle cx="50" cy="50" r="50" fill="#FF5D00" fill-opacity="0.1"/>
<path fill-rule="evenodd" clip-rule="evenodd" d="M29.913 31.2619C35.2513 29.6234 42.1084 29 50.4804 29C58.8524 29 65.7094 29.6234 71.0478 31.2619C75.9465 32.7655 79.7161 35.1744 82.1409 38.8524C83.5208 39.0264 84.9613 39.5653 85.8978 41.1262C86.4223 42.0005 86.6605 43.0098 86.7892 44.0016C86.9202 45.0119 86.9607 46.2095 86.9607 47.5831C86.9607 49.9671 86.5762 51.6987 85.9553 52.9247C85.7109 53.4072 85.4165 53.8368 85.0726 54.1934C84.3416 60.8051 81.3601 64.8402 77.9663 67.19C74.495 69.5935 70.8289 70.0762 69.3245 70.1424C63.7113 70.3896 59.61 68.0088 56.5411 65.8327C55.8297 65.3282 55.2332 64.8817 54.69 64.4751C53.9636 63.9313 53.3325 63.4588 52.6489 63.0143C51.5172 62.2784 50.8793 62.0789 50.4804 62.0789C50.0814 62.0789 49.4436 62.2784 48.3118 63.0143C47.6283 63.4588 46.9971 63.9313 46.2707 64.4751C45.7275 64.8817 45.1311 65.3282 44.4197 65.8327C41.3508 68.0088 37.2495 70.3896 31.6363 70.1424C30.1319 70.0762 26.4658 69.5935 22.9945 67.19C19.6007 64.8402 16.6192 60.8051 15.8882 54.1934C15.5443 53.8368 15.2499 53.4072 15.0055 52.9247C14.3845 51.6987 14 49.9671 14 47.5831C14 46.2095 14.0405 45.0119 14.1716 44.0016C14.3003 43.0098 14.5384 42.0005 15.063 41.1262C15.9995 39.5653 17.44 39.0264 18.8199 38.8524C21.2447 35.1744 25.0142 32.7655 29.913 31.2619ZM31.3089 35.81C26.7127 37.2208 23.9017 39.3529 22.2981 42.2932C21.1168 44.4594 20.4745 47.2704 20.4745 50.9672C20.4745 51.5722 20.494 52.1497 20.531 52.7009C20.9288 58.6207 23.3462 61.647 25.7026 63.2785C28.1779 64.9923 30.8589 65.3461 31.8456 65.3895C35.875 65.5669 38.8995 63.9148 41.6678 61.9518C42.147 61.6121 42.6707 61.2223 43.2036 60.8257C44.0675 60.1828 44.9558 59.5218 45.7183 59.0259C47.0143 58.1832 48.6355 57.3214 50.4804 57.3214C52.3253 57.3214 53.9465 58.1832 55.2425 59.0259C56.005 59.5218 56.8932 60.1828 57.7571 60.8257C58.2901 61.2223 58.8138 61.6121 59.293 61.9518C62.0612 63.9148 65.0858 65.5669 69.1152 65.3895C70.1019 65.3461 72.7829 64.9923 75.2581 63.2785C77.6146 61.647 80.0319 58.6207 80.4297 52.7009C80.4668 52.1497 80.4863 51.5722 80.4863 50.9672C80.4863 47.2704 79.844 44.4594 78.6626 42.2932C77.059 39.3529 74.2481 37.2208 69.6518 35.81C64.9965 34.3811 58.7039 33.7575 50.4804 33.7575C42.2569 33.7575 35.9642 34.3811 31.3089 35.81Z" fill="#FF5D00"/>
<path fill-rule="evenodd" clip-rule="evenodd" d="M40.2008 36.3956C40.2008 36.0832 39.9312 35.8387 39.6205 35.8719C36.5661 36.1976 33.9693 36.6893 31.7827 37.3605C27.4576 38.688 25.0621 40.6083 23.7195 43.0701C22.7058 44.9288 22.0938 47.4504 22.0938 50.9678C22.0938 51.538 22.1122 52.0792 22.1467 52.5928C22.5126 58.0383 24.6879 60.606 26.6236 61.9462C28.7591 63.4248 31.1041 63.7348 31.9149 63.7705C35.4045 63.9241 38.0621 62.5203 40.728 60.6299C41.1012 60.3654 41.5746 60.0139 42.0746 59.6426L42.0828 59.6366C43.0196 58.941 44.053 58.1742 44.8325 57.6674C46.1829 56.7892 48.1398 55.7008 50.4784 55.7008C52.817 55.7008 54.7739 56.7892 56.1244 57.6674C56.9038 58.1742 57.9373 58.941 58.8742 59.6366L58.882 59.6424C59.382 60.0136 59.8558 60.3654 60.2288 60.6299C62.8947 62.5203 65.5523 63.9241 69.0419 63.7705C69.8526 63.7348 72.1977 63.4248 74.3332 61.9462C76.269 60.606 78.4443 58.0383 78.8102 52.5928C78.8447 52.0791 78.8631 51.5379 78.8631 50.9678C78.8631 47.4504 78.251 44.9288 77.2374 43.0701C75.8947 40.6083 73.4991 38.688 69.1741 37.3605C66.8035 36.6329 63.951 36.1161 60.5556 35.7932C60.2752 35.7665 60.0332 35.9878 60.0332 36.2696C60.0332 36.4975 60.1936 36.6937 60.4164 36.742C64.41 37.6085 67.647 39.0474 69.1288 41.0585C69.6503 41.7662 69.5638 43.0313 68.6866 42.9732C68.307 42.948 67.8141 42.7817 67.1069 42.5432C64.8489 41.7815 60.4049 40.2826 50.4784 40.2826C40.5519 40.2826 36.108 41.7815 33.85 42.5432C33.1427 42.7817 32.6498 42.948 32.2703 42.9732C31.3931 43.0313 31.3065 41.7662 31.828 41.0585C33.2157 39.175 36.1433 37.7935 39.7898 36.9139C40.0297 36.856 40.2008 36.6424 40.2008 36.3956Z" fill="#FF5D00"/>
</svg>
