<svg width="100" height="100" viewBox="0 0 100 100" fill="none" xmlns="http://www.w3.org/2000/svg">
<circle cx="50" cy="50" r="50" fill="#FF5D00" fill-opacity="0.1"/>
<path d="M66.9613 25C64.2268 25.002 61.6049 26.0891 59.6714 28.0227C57.7379 29.9562 56.6507 32.5781 56.6488 35.3125C56.6524 38.0192 57.72 40.6159 59.6212 42.5424C61.5225 44.4688 64.1049 45.5706 66.8112 45.61H67.1C69.8064 45.5706 72.3888 44.4688 74.29 42.5424C76.1912 40.6159 77.2589 38.0192 77.2625 35.3125C77.2625 32.5794 76.1776 29.9581 74.246 28.0244C72.3145 26.0908 69.6943 25.003 66.9613 25ZM71.9113 30.67L73.235 31.9938L65.2738 39.9475C65.1872 40.0351 65.0842 40.1047 64.9706 40.1522C64.8569 40.1997 64.735 40.2242 64.6119 40.2242C64.4887 40.2242 64.3668 40.1997 64.2532 40.1522C64.1396 40.1047 64.0365 40.0351 63.95 39.9475L60.6838 36.685L62.0075 35.3575L64.6175 37.9563L71.9113 30.67ZM24.5487 32.485C24.1396 32.484 23.7468 32.6453 23.4565 32.9335C23.1662 33.2218 23.002 33.6134 23 34.0225V44.0725C23 44.92 23.6937 45.61 24.545 45.61H60.5075C58.7566 44.5208 57.3113 43.0042 56.3077 41.2029C55.304 39.4015 54.7749 37.3746 54.77 35.3125C54.77 34.3338 54.9125 33.3962 55.13 32.485H24.5487ZM27.6875 38.11H42.6875V39.985H27.6875V38.11ZM24.545 47.485C24.1365 47.485 23.7447 47.6467 23.4552 47.9349C23.1656 48.223 23.002 48.614 23 49.0225V59.0725C23 59.9238 23.6975 60.61 24.545 60.61H68.3375C68.7453 60.61 69.1363 60.448 69.4247 60.1597C69.713 59.8713 69.875 59.4803 69.875 59.0725V49.0225C69.875 48.6147 69.713 48.2237 69.4247 47.9353C69.1363 47.647 68.7453 47.485 68.3375 47.485H67.1075C67.0588 47.485 67.0138 47.5 66.9575 47.5C66.9087 47.5 66.8675 47.485 66.815 47.485H24.545ZM63.395 52.9225C64.01 52.9225 64.52 53.425 64.52 54.0475C64.52 54.6663 64.01 55.1725 63.395 55.1725C63.0966 55.1715 62.8106 55.0528 62.5993 54.8421C62.3879 54.6315 62.2682 54.3459 62.2663 54.0475C62.2663 53.425 62.7725 52.9225 63.3913 52.9225H63.395ZM27.6875 53.11H42.6875V54.985H27.6875V53.11ZM24.545 62.485C24.1365 62.485 23.7447 62.6467 23.4552 62.9349C23.1656 63.223 23.002 63.614 23 64.0225V74.0725C23 74.9238 23.6975 75.61 24.545 75.61H68.3375C68.7453 75.61 69.1363 75.448 69.4247 75.1597C69.713 74.8713 69.875 74.4803 69.875 74.0725V64.0225C69.875 63.6147 69.713 63.2237 69.4247 62.9353C69.1363 62.647 68.7453 62.485 68.3375 62.485H24.545ZM63.29 67.9225C63.5889 67.9225 63.8755 68.0412 64.0868 68.2526C64.2982 68.4639 64.4169 68.7505 64.4169 69.0494C64.4169 69.3482 64.2982 69.6349 64.0868 69.8462C63.8755 70.0575 63.5889 70.1763 63.29 70.1763C62.9906 70.1763 62.7035 70.0573 62.4919 69.8456C62.2802 69.634 62.1613 69.3469 62.1613 69.0475C62.1613 68.7481 62.2802 68.461 62.4919 68.2494C62.7035 68.0377 62.9906 67.9225 63.29 67.9225ZM27.6875 68.11H42.6875V69.985H27.6875V68.11Z" fill="#FF5D00"/>
</svg>
