<svg width="100" height="100" viewBox="0 0 100 100" fill="none" xmlns="http://www.w3.org/2000/svg">
<circle cx="50" cy="50" r="50" fill="#FF5D00" fill-opacity="0.1"/>
<g clip-path="url(#clip0_6611_3966)">
<path d="M72.7535 46.7961C72.3066 33.6219 62.3465 23 50.298 23H48.6996C36.7285 23 26.7684 33.5445 26.2441 46.6156C24.2332 47.1914 22.7637 49.0305 22.7637 51.2133V56.8078C22.7637 59.4547 24.9121 61.6117 27.5676 61.6117C29.0199 61.6117 30.3176 60.9586 31.2027 59.9273C32.0707 63.2703 33.4629 66.45 35.2418 69.157C38.9027 74.743 43.784 77.8797 48.9746 77.9914L49.2668 78C54.5262 78 59.4934 74.9664 63.266 69.4664C63.5754 69.0109 63.8762 68.5297 64.1684 68.0484L65.8441 68.0312C67.4707 68.0365 69.0485 67.4762 70.3074 66.4462C71.5663 65.4162 72.428 63.9806 72.7449 62.3852H72.7879L72.848 61.8008C72.8566 61.7234 72.8566 61.6461 72.8566 61.5688C74.8074 60.9586 76.234 59.1453 76.234 57.0055V51.4109C76.234 49.2109 74.7645 47.3719 72.7535 46.7961ZM30.3863 47.3461C30.0168 47.0711 29.6043 46.8562 29.166 46.693C29.6559 35.1945 38.3012 25.9305 48.6996 25.9305H50.298C60.7652 25.9305 69.4191 35.2805 69.823 46.8734C69.4105 47.0195 69.0238 47.2258 68.6715 47.475C67.3395 36.7242 60.0691 29.6602 50.023 29.4453H49.6363C44.4199 29.4453 39.616 31.4477 36.1012 35.0742C33.0504 38.2367 31.091 42.4734 30.3863 47.3461ZM62.4324 65.1437L55.523 65.2383C55.2567 64.7296 54.8568 64.3031 54.3661 64.0048C53.8755 63.7065 53.3129 63.5476 52.7387 63.5453H50.0918C48.3387 63.5453 46.9207 64.9719 46.9207 66.7078C46.9207 68.4609 48.3473 69.8789 50.0918 69.8789H52.7387C53.9504 69.8789 55.0074 69.1742 55.5316 68.1602L60.5934 68.0914C57.3707 72.5344 53.2887 75.0609 49.2582 75.0609H49.0262C44.8238 74.9664 40.7934 72.3023 37.6738 67.5414C34.709 63.0211 33.0074 57.1859 33.0074 51.5312V51.2219L33.016 50.9125C33.1363 45.2664 34.9324 40.4969 38.2066 37.1023C41.1715 34.043 45.2105 32.3586 49.5762 32.3586H49.5934C49.7051 32.3586 49.8168 32.3586 49.9457 32.3672C59.373 32.5734 65.9645 40.2563 65.9645 51.0414C65.9645 51.2391 65.9645 51.4281 65.9559 51.6344C65.8699 56.3352 64.6066 61.1047 62.4324 65.1437ZM69.909 61.6203C69.6082 63.6055 67.8637 65.1008 65.8355 65.1008H65.7324C66.4887 63.4852 67.1246 61.7578 67.6402 59.9273C68.216 60.675 69.0066 61.2422 69.9176 61.5516C69.909 61.5688 69.909 61.5945 69.909 61.6203Z" fill="#FF5D00"/>
</g>
<defs>
<clipPath id="clip0_6611_3966">
<rect width="55" height="55" fill="white" transform="translate(22 23)"/>
</clipPath>
</defs>
</svg>
