<svg width="100" height="100" viewBox="0 0 100 100" fill="none" xmlns="http://www.w3.org/2000/svg">
<circle cx="50" cy="50" r="50" fill="#FF5D00" fill-opacity="0.1"/>
<path fill-rule="evenodd" clip-rule="evenodd" d="M25 71.6839C25 70.9661 25.7136 70.3843 26.5938 70.3843H74.4062C75.2865 70.3843 76 70.9661 76 71.6839C76 72.4016 75.2865 72.9835 74.4062 72.9835H26.5938C25.7136 72.9835 25 72.4016 25 71.6839Z" fill="#FF5D00"/>
<path fill-rule="evenodd" clip-rule="evenodd" d="M31.375 44.3926V70.3844H39.3438V44.3926H31.375ZM29.7812 41.7935C28.901 41.7935 28.1875 42.3753 28.1875 43.093V71.684C28.1875 72.4018 28.901 72.9836 29.7812 72.9836H40.9375C41.8177 72.9836 42.5312 72.4018 42.5312 71.684V43.093C42.5312 42.3753 41.8177 41.7935 40.9375 41.7935H29.7812Z" fill="#FF5D00"/>
<path fill-rule="evenodd" clip-rule="evenodd" d="M39.3438 21L64.8438 28.7975V46.9918H56.875C55.9948 46.9918 55.2812 47.5736 55.2812 48.2914V70.3844H39.3438V21ZM44.125 32.6963H47.3125V35.2955H44.125V32.6963ZM53.6875 32.6963H50.5V35.2955H53.6875V32.6963ZM56.875 32.6963H60.0625V35.2955H56.875V32.6963ZM47.3125 37.8946H44.125V40.4938H47.3125V37.8946ZM50.5 37.8946H53.6875V40.4938H50.5V37.8946ZM60.0625 37.8946H56.875V40.4938H60.0625V37.8946ZM44.125 43.093H47.3125V45.6922H44.125V43.093ZM53.6875 43.093H50.5V45.6922H53.6875V43.093ZM56.875 43.093H60.0625V45.6922H56.875V43.093ZM47.3125 48.2914H44.125V50.8905H47.3125V48.2914ZM50.5 48.2914H53.6875V50.8905H50.5V48.2914ZM44.125 53.4897H47.3125V56.0889H44.125V53.4897ZM53.6875 53.4897H50.5V56.0889H53.6875V53.4897ZM47.3125 58.6881H44.125V61.2872H47.3125V58.6881ZM50.5 58.6881H53.6875V61.2872H50.5V58.6881ZM44.125 63.8864H47.3125V66.4856H44.125V63.8864ZM53.6875 63.8864H50.5V66.4856H53.6875V63.8864Z" fill="#FF5D00"/>
<path fill-rule="evenodd" clip-rule="evenodd" d="M58.4688 49.5909V70.3843H69.625V49.5909H58.4688ZM56.875 46.9917C55.9948 46.9917 55.2812 47.5735 55.2812 48.2913V71.6839C55.2812 72.4016 55.9948 72.9835 56.875 72.9835H71.2188C72.099 72.9835 72.8125 72.4016 72.8125 71.6839V48.2913C72.8125 47.5735 72.099 46.9917 71.2188 46.9917H56.875Z" fill="#FF5D00"/>
<path fill-rule="evenodd" clip-rule="evenodd" d="M66.4375 54.7893H61.6562V52.1901H66.4375V54.7893ZM66.4375 59.9876H61.6562V57.3885H66.4375V59.9876ZM66.4375 65.186H61.6562V62.5868H66.4375V65.186ZM66.4375 70.3844H61.6562V67.7852H66.4375V70.3844ZM36.1562 32.6963V43.093H32.9688V32.6963H36.1562Z" fill="#FF5D00"/>
</svg>
