<svg width="100" height="100" viewBox="0 0 100 100" fill="none" xmlns="http://www.w3.org/2000/svg">
<circle cx="50" cy="50" r="50" fill="#FF5D00" fill-opacity="0.1"/>
<g clip-path="url(#clip0_0_1)">
<path d="M40.8293 60.0307C40.8293 56.0872 37.6341 52.8789 33.7067 52.8789C29.7792 52.8789 26.584 56.0872 26.584 60.0307C26.584 63.9743 29.7792 67.1826 33.7067 67.1826C37.6341 67.1826 40.8293 63.9743 40.8293 60.0307ZM33.7067 65.6442C30.6242 65.6442 28.1167 63.1265 28.1167 60.0314C28.1167 56.9363 30.6242 54.4186 33.7067 54.4186C36.7891 54.4186 39.2966 56.9363 39.2966 60.0314C39.2973 63.1258 36.7891 65.6442 33.7067 65.6442ZM32.29 58.3963C32.29 58.8887 32.9521 59.3212 33.7067 59.3212C35.3331 59.3212 36.656 60.4263 36.656 61.7843C36.656 62.9211 35.7291 63.8802 34.473 64.1625V64.3087C34.473 64.7332 34.1301 65.0782 33.7067 65.0782C33.2838 65.0782 32.9403 64.7339 32.9403 64.3087V64.1625C31.6842 63.8802 30.7573 62.9211 30.7573 61.7843C30.7573 61.3597 31.1001 61.0148 31.5236 61.0148C31.9465 61.0148 32.29 61.3591 32.29 61.7843C32.29 62.2767 32.9521 62.7091 33.7067 62.7091C34.4612 62.7091 35.1233 62.2773 35.1233 61.7843C35.1233 61.2919 34.4612 60.8595 33.7067 60.8595C32.0802 60.8595 30.7573 59.7543 30.7573 58.3963C30.7573 57.2595 31.6842 56.3005 32.9403 56.0181V55.7528C32.9403 55.3282 33.2832 54.9833 33.7067 54.9833C34.1295 54.9833 34.473 55.3276 34.473 55.7528V56.0181C35.7291 56.3005 36.656 57.2595 36.656 58.3963C36.656 58.8209 36.3132 59.1658 35.8897 59.1658C35.4662 59.1658 35.1233 58.8215 35.1233 58.3963C35.1233 57.904 34.4612 57.4715 33.7067 57.4715C32.9521 57.4715 32.29 57.904 32.29 58.3963ZM35.9815 42.5135C35.9815 42.089 36.3243 41.7441 36.7478 41.7441H44.7267C45.1495 41.7441 45.493 42.0883 45.493 42.5135C45.493 42.9381 45.1502 43.283 44.7267 43.283H36.7478C36.325 43.283 35.9815 42.9381 35.9815 42.5135ZM35.9815 47.3128C35.9815 46.8882 36.3243 46.5433 36.7478 46.5433H44.7267C45.1495 46.5433 45.493 46.8876 45.493 47.3128C45.493 47.7374 45.1502 48.0823 44.7267 48.0823H36.7478C36.325 48.0816 35.9815 47.7374 35.9815 47.3128ZM75.2883 42.5135C75.2883 42.9381 74.9455 43.283 74.522 43.283H66.5438C66.121 43.283 65.7774 42.9388 65.7774 42.5135C65.7774 42.089 66.1203 41.7441 66.5438 41.7441H74.5227C74.9455 41.7441 75.2883 42.0883 75.2883 42.5135ZM75.2883 47.3128C75.2883 47.7374 74.9455 48.0823 74.522 48.0823H66.5438C66.121 48.0823 65.7774 47.738 65.7774 47.3128C65.7774 46.8882 66.1203 46.5433 66.5438 46.5433H74.5227C74.9455 46.5433 75.2883 46.8876 75.2883 47.3128ZM75.2883 52.1114C75.2883 52.536 74.9455 52.8809 74.522 52.8809H66.5438C66.121 52.8809 65.7774 52.5366 65.7774 52.1114C65.7774 51.6868 66.1203 51.3419 66.5438 51.3419H74.5227C74.9455 51.3419 75.2883 51.6868 75.2883 52.1114ZM75.2883 56.9107C75.2883 57.3352 74.9455 57.6802 74.522 57.6802H66.5438C66.121 57.6802 65.7774 57.3359 65.7774 56.9107C65.7774 56.4854 66.1203 56.1412 66.5438 56.1412H74.5227C74.9455 56.1412 75.2883 56.4861 75.2883 56.9107ZM75.2883 61.7099C75.2883 62.1345 74.9455 62.4794 74.522 62.4794H66.5438C66.121 62.4794 65.7774 62.1351 65.7774 61.7099C65.7774 61.2847 66.1203 60.9404 66.5438 60.9404H74.5227C74.9455 60.9404 75.2883 61.2847 75.2883 61.7099ZM56.8611 49.0657H60.904C61.3268 49.0657 61.6703 48.7215 61.6703 48.2962V43.9189C61.6703 43.4943 61.3275 43.1494 60.904 43.1494H56.8611C56.4383 43.1494 56.0948 43.4937 56.0948 43.9189V48.2962C56.0948 48.7215 56.4383 49.0657 56.8611 49.0657ZM57.6275 44.6884H60.1376V47.5267H57.6275V44.6884ZM56.8611 41.775H60.904C61.3268 41.775 61.6703 41.4307 61.6703 41.0055V36.6282C61.6703 36.2036 61.3275 35.8587 60.904 35.8587H56.8611C56.4383 35.8587 56.0948 36.203 56.0948 36.6282V41.0055C56.0948 41.4301 56.4383 41.775 56.8611 41.775ZM57.6275 37.3977H60.1376V40.236H57.6275V37.3977ZM50.3658 41.775H54.4087C54.8315 41.775 55.175 41.4307 55.175 41.0055V36.6282C55.175 36.2036 54.8322 35.8587 54.4087 35.8587H50.3658C49.943 35.8587 49.5995 36.203 49.5995 36.6282V41.0055C49.6001 41.4301 49.943 41.775 50.3658 41.775ZM51.1322 37.3977H53.6423V40.236H51.1322V37.3977ZM50.3658 34.4836H54.4087C54.8315 34.4836 55.175 34.1394 55.175 33.7141V29.3368C55.175 28.9122 54.8322 28.5673 54.4087 28.5673H50.3658C49.943 28.5673 49.5995 28.9116 49.5995 29.3368V33.7141C49.6001 34.1394 49.943 34.4836 50.3658 34.4836ZM51.1322 30.1063H53.6423V32.9447H51.1322V30.1063ZM56.8611 34.4836H60.904C61.3268 34.4836 61.6703 34.1394 61.6703 33.7141V29.3368C61.6703 28.9122 61.3275 28.5673 60.904 28.5673H56.8611C56.4383 28.5673 56.0948 28.9116 56.0948 29.3368V33.7141C56.0948 34.1394 56.4383 34.4836 56.8611 34.4836ZM57.6275 30.1063H60.1376V32.9447H57.6275V30.1063ZM81.2343 66.8429H78.3295V36.6104C78.3295 36.1858 77.9866 35.8409 77.5632 35.8409H75.9596V33.2369C75.9596 32.8123 75.6168 32.4674 75.1933 32.4674H65.8718C65.449 32.4674 65.1055 32.8117 65.1055 33.2369V35.8409H64.2677V25.725C64.2677 25.2998 63.9248 24.9555 63.5013 24.9555H61.2396V21.3102C61.2396 20.885 60.8968 20.5407 60.4733 20.5407H56.4003V17.7695C56.4003 17.3449 56.0574 17 55.6339 17C55.2111 17 54.8676 17.3443 54.8676 17.7695V20.5407H50.7959C50.373 20.5407 50.0295 20.885 50.0295 21.3102V24.9555H47.7678C47.345 24.9555 47.0015 25.2998 47.0015 25.725V35.8409H46.1637V33.2369C46.1637 32.8123 45.8208 32.4674 45.3973 32.4674H36.0765C35.6537 32.4674 35.3102 32.8117 35.3102 33.2369V35.8409H33.7067C33.2838 35.8409 32.9403 36.1852 32.9403 36.6104V48.5483C29.7838 48.6708 26.6895 49.5449 23.9466 51.0984C23.7624 51.2024 23.63 51.3781 23.5795 51.5842C23.1947 53.1488 23 54.7628 23 56.3814C23 63.6735 26.9563 70.3843 33.3264 73.8986C33.35 73.9118 33.3736 73.9243 33.3979 73.9348C33.4975 73.9789 33.6024 74 33.706 74H33.7073C33.8115 74 33.9177 73.9783 34.018 73.9335C34.0416 73.923 34.0639 73.9118 34.0862 73.8986C34.6094 73.6103 35.1141 73.2976 35.6039 72.9672H81.2336C81.6565 72.9672 82 72.623 82 72.1977V67.6117C82.0007 67.1878 81.6578 66.8429 81.2343 66.8429ZM66.6382 34.0064H74.4269V35.8409H66.6382V34.0064ZM64.2683 37.3799H76.7975V66.8429H64.2683V37.3799ZM51.5622 22.0797H59.7082V24.9555H51.5622V22.0797ZM48.5342 26.4945H62.7356V66.8436H61.6697V55.5902C61.6697 55.1657 61.3268 54.8207 60.9033 54.8207H50.3658C49.943 54.8207 49.5995 55.165 49.5995 55.5902V66.8429H48.5342V26.4945ZM60.1376 56.3597V66.8429H51.1322V56.3597H60.1376ZM36.8429 34.0064H44.6316V35.8409H36.8429V34.0064ZM47.0021 37.3799V66.8429H41.4639C43.3585 63.7492 44.414 60.1433 44.414 56.3808C44.414 54.7628 44.2193 53.1488 43.8351 51.5835C43.7846 51.3775 43.6515 51.2017 43.468 51.0977C40.7251 49.5443 37.6309 48.6694 34.4743 48.547V37.3799H47.0021ZM33.7067 72.3478C28.0367 69.0526 24.5327 62.9738 24.5327 56.3814C24.5327 54.9985 24.6868 53.6194 24.9903 52.2773C27.6545 50.8324 30.6609 50.0702 33.7067 50.0702C36.7531 50.0702 39.7595 50.8324 42.423 52.2773C42.7272 53.6201 42.8813 54.9991 42.8813 56.3814C42.8806 62.9744 39.3766 69.0526 33.7067 72.3478ZM80.4679 71.4289H37.6007C38.6489 70.5093 39.593 69.4871 40.4203 68.3819H80.4679V71.4289ZM50.3658 49.0657H54.4087C54.8315 49.0657 55.175 48.7215 55.175 48.2962V43.9189C55.175 43.4943 54.8322 43.1494 54.4087 43.1494H50.3658C49.943 43.1494 49.5995 43.4937 49.5995 43.9189V48.2962C49.6001 48.7215 49.943 49.0657 50.3658 49.0657ZM51.1322 44.6884H53.6423V47.5267H51.1322V44.6884Z" fill="#FF5D00" stroke="#FF5D00" stroke-width="0.5"/>
</g>
<defs>
<clipPath id="clip0_0_1">
<rect width="78" height="78" fill="white" transform="translate(11 9)"/>
</clipPath>
</defs>
</svg>
