<svg width="100" height="100" viewBox="0 0 100 100" fill="none" xmlns="http://www.w3.org/2000/svg">
<circle cx="50" cy="50" r="50" fill="#FF5D00" fill-opacity="0.1"/>
<path d="M35.4412 34.06C35.4412 30.6437 38.1742 27.8887 41.6125 27.8887C45.0289 27.8887 47.7839 30.6437 47.7839 34.06C47.7619 37.4983 45.0069 40.2313 41.6125 40.2313C38.1964 40.2313 35.4412 37.4763 35.4412 34.06ZM69.4822 60.5286H58.2846V50.5223C58.2846 45.6473 54.0245 41.7069 49.2312 41.7069H34.2214C28.9588 41.7069 24.4507 46.267 24.4531 50.7604V69.1056C24.447 71.1388 25.883 72.2004 27.3121 72.2029C28.7449 72.2054 30.1711 71.144 30.1711 69.1056V51.2368H32.0772V72.1912H50.6605V51.2368H52.5666L52.5859 63.2374C52.5732 65.317 53.8587 66.2027 55.1873 66.2466H69.4822C73.3807 66.2466 73.3807 60.5286 69.4822 60.5286ZM81.5469 57.9519H73.1668V52.4546H69.5912V57.9519H61.2111V31.694H66.2392V29.7945H76.5188V31.694H81.5469V57.9519ZM67.9151 45.08H64.5631V48.432H67.9151V45.08ZM67.9151 40.0743H64.5631V43.4263H67.9151V40.0743ZM67.9151 35.0462H64.5631V38.3982H67.9151V35.0462ZM73.1668 45.08H69.5912V48.432H73.1668V45.08ZM73.1444 43.4263V40.0743H71.379H71.3566H69.5912V43.4263H73.1668H73.1444ZM73.1668 35.0462H71.4014H71.379H69.6136V38.3982H71.379H71.4014H73.1668V35.0462ZM78.1949 45.08H74.8429V48.432H78.1949V45.08ZM78.1949 40.0743H74.8429V43.4263H75.1334H78.1949V40.0743ZM78.1949 35.0462H74.8429V38.3982H78.1949V35.0462Z" fill="#FF5D00"/>
</svg>
