<svg width="100" height="100" viewBox="0 0 100 100" fill="none" xmlns="http://www.w3.org/2000/svg">
<circle cx="50" cy="50" r="50" fill="#FF5D00" fill-opacity="0.1"/>
<path d="M59.2859 37.2291V34.1265H50.4761H50.4282H41.6183V37.2291H33V81H45.9275V70.7375H55.0725V81H68V37.2291H59.2859ZM44.4911 66.0119H38.7456V60.2363H44.4911V66.0119ZM44.4911 57.3246H38.7456V51.5967H44.4911C44.4911 51.6444 44.4911 57.3246 44.4911 57.3246ZM44.4911 48.7327H38.6977V43.0048H44.4432V48.7327H44.4911ZM53.5404 66.0119H47.4118V60.2363H53.5404V66.0119ZM53.5404 57.3246H47.4118V51.5967H50.4761H50.5239H53.5882V57.3246H53.5404ZM53.5404 48.7327H50.4761H50.4282H47.3639V43.0048H50.4282H50.4761H53.5404V48.7327ZM62.1587 66.0119H56.8919H56.3653V60.2363H56.8919H62.1587V66.0119ZM62.1587 57.4201H56.8919H56.3653V51.6444H62.1108V57.4201H62.1587ZM62.1587 48.7327H56.3653V43.0048H62.1108V48.7327H62.1587ZM43.9644 31.8831C45.9275 31.8831 47.7469 30.7852 48.6088 29.1623H51.3858L53.1094 27.4439L54.4501 28.7804L55.7428 27.4916L57.0356 28.8282L58.3762 27.4916L59.7168 28.8282L61.9672 26.5847C62.3023 26.2506 62.3023 26.0597 61.9672 25.6778L60.0999 23.7685H48.5609C47.6033 22.0979 45.8317 21 43.8208 21C40.8523 21 38.4104 23.4344 38.4104 26.4415C38.554 29.4487 40.9959 31.8831 43.9644 31.8831ZM41.5705 24.9141C42.3844 24.9141 43.0069 25.5823 43.0069 26.3938C43.0069 27.2053 42.3365 27.8735 41.5705 27.8735C40.8044 27.8735 40.1341 27.2053 40.1341 26.3938C40.182 25.5823 40.7565 24.9141 41.5705 24.9141Z" fill="#FF5D00"/>
</svg>
