<svg width="100" height="100" viewBox="0 0 100 100" fill="none" xmlns="http://www.w3.org/2000/svg">
<circle cx="50" cy="50" r="50" fill="#FF5D00" fill-opacity="0.1"/>
<g clip-path="url(#clip0_0_1)">
<path d="M77.0549 43.0979L51.8485 20.6965C51.3374 20.2476 50.6803 20 50 20C49.3197 20 48.6626 20.2476 48.1515 20.6965L22.9451 43.0979C22.5166 43.4768 22.2145 43.9778 22.0794 44.5334C21.9442 45.0891 21.9824 45.6728 22.1889 46.2061C22.392 46.7324 22.7493 47.185 23.2141 47.5048C23.6788 47.8246 24.2294 47.9966 24.7935 47.9982H27.5942V73.1998C27.5942 73.9425 27.8893 74.6547 28.4146 75.1798C28.9398 75.705 29.6522 76 30.395 76H69.605C70.3478 76 71.0602 75.705 71.5854 75.1798C72.1107 74.6547 72.4058 73.9425 72.4058 73.1998V47.9982H75.2065C75.7707 47.9966 76.3212 47.8246 76.7859 47.5048C77.2507 47.185 77.608 46.7324 77.8111 46.2061C78.0176 45.6728 78.0558 45.0891 77.9207 44.5334C77.7855 43.9778 77.4834 43.4768 77.0549 43.0979ZM52.8007 70.3996H47.1993V61.9991C47.1993 61.2565 47.4944 60.5442 48.0196 60.0191C48.5448 59.494 49.2572 59.1989 50 59.1989C50.7428 59.1989 51.4552 59.494 51.9804 60.0191C52.5056 60.5442 52.8007 61.2565 52.8007 61.9991V70.3996ZM66.8043 70.3996H58.4022V61.9991C58.4022 59.7712 57.5169 57.6344 55.9412 56.059C54.3655 54.4836 52.2284 53.5986 50 53.5986C47.7716 53.5986 45.6345 54.4836 44.0588 56.059C42.4831 57.6344 41.5978 59.7712 41.5978 61.9991V70.3996H33.1957V47.9982H66.8043V70.3996ZM32.1594 42.3979L50 26.5489L67.8406 42.3979H32.1594Z" fill="#FF5D00"/>
</g>
<defs>
<clipPath id="clip0_0_1">
<rect width="78" height="78" fill="white" transform="translate(11 9)"/>
</clipPath>
</defs>
</svg>
