<svg width="100" height="100" viewBox="0 0 100 100" fill="none" xmlns="http://www.w3.org/2000/svg">
<circle cx="50" cy="50" r="50" fill="#FF5D00" fill-opacity="0.1"/>
<path d="M56.5189 27.3414C60.4043 25.4201 63.7731 24.8117 66.7786 25.0486C67.6769 25.12 68.3486 25.9061 68.2792 26.8044C68.2078 27.7049 67.4197 28.3766 66.5213 28.3051C64.1897 28.1214 61.4068 28.5685 57.9666 30.2692C52.1356 33.1542 46.9046 34.8917 41.7227 33.487C40.8509 33.2501 40.3364 32.3538 40.5733 31.482C40.8101 30.6122 41.7064 30.0977 42.5762 30.3346C46.5085 31.4004 50.7673 30.1855 56.5189 27.3414Z" fill="#FF5D00"/>
<path d="M68.2868 53.5835H63.3867V58.4836H68.2868V53.5835Z" fill="#FF5D00"/>
<path d="M68.2868 61.7505H63.3867V66.6506H68.2868V61.7505Z" fill="#FF5D00"/>
<path d="M60.115 61.7505V66.6506H55.2148V61.7505H60.115Z" fill="#FF5D00"/>
<path d="M55.2148 53.5835H60.115V58.4836H55.2148V53.5835Z" fill="#FF5D00"/>
<path fill-rule="evenodd" clip-rule="evenodd" d="M62.7718 31.5327C61.9163 31.5327 61.2058 32.1922 61.1425 33.0456L60.2339 45.4164H57.6674C57.3673 45.4164 57.0713 45.5001 56.8161 45.6553L44.6005 53.1218V42.9661C44.6005 42.47 44.3759 42.0004 43.988 41.69L35.8211 35.1565C35.2249 34.6808 34.3756 34.6808 33.7794 35.1565L25.6125 41.69C25.2246 42.0004 25 42.47 25 42.9661V72.3669C25 73.2693 25.7309 74.0002 26.6334 74.0002H72.3679C73.2703 74.0002 74.0012 73.2693 74.0012 72.3669V47.0493C74.0012 46.1468 73.2703 45.4159 72.3679 45.4159H71.4348L70.5262 33.0451C70.4629 32.1917 69.7524 31.5322 68.8969 31.5322L62.7718 31.5327ZM41.3335 70.7337V43.7504L34.8 38.5256L28.2665 43.7504V70.7337H41.3335ZM44.6003 70.7337H70.7343V48.6829H58.1267L44.6003 56.9496V70.7337ZM68.1596 45.4162L67.3796 34.7995H64.2884L63.5085 45.4162H68.1596Z" fill="#FF5D00"/>
</svg>
