<svg width="100" height="100" viewBox="0 0 100 100" fill="none" xmlns="http://www.w3.org/2000/svg">
<circle cx="50" cy="50" r="50" fill="#FF5D00" fill-opacity="0.1"/>
<path d="M74.5137 71.4017L51.2715 78.2743C48.0927 79.2133 44.7178 79.2416 41.524 78.3561L21.6509 72.8316C21.0759 72.6715 20.5874 72.2874 20.293 71.7639C19.9986 71.2403 19.9224 70.6202 20.081 70.0399C20.2397 69.4596 20.6203 68.9667 21.1391 68.6696C21.6579 68.3725 22.2724 68.2955 22.8474 68.4557L42.7205 73.9755C45.1081 74.6386 47.6316 74.6166 50.0076 73.912L73.2497 67.0394C74.0221 66.8099 74.6786 66.2918 75.0854 65.5907C75.4922 64.8896 75.6188 64.0583 75.4392 63.2663C75.2596 62.4744 74.7875 61.7813 74.119 61.3285C73.4506 60.8757 72.6362 60.6972 71.8418 60.8295L59.8316 62.8268C59.7776 62.8404 59.7327 62.8223 59.6832 62.8268C59.6787 62.9358 59.6922 63.0402 59.6832 63.1446C59.5105 65.035 58.6446 66.7922 57.255 68.0719C55.8654 69.3516 54.0524 70.0616 52.1712 70.0626C52.0497 70.0626 51.9283 70.0626 51.8113 70.0535L42.2212 69.7448C41.1172 69.7114 40.0162 69.6113 38.924 69.4452L35.231 68.8869C34.6404 68.7978 34.1092 68.4756 33.754 67.9912C33.3989 67.5069 33.2489 66.8999 33.3372 66.304C33.4255 65.708 33.7448 65.1719 34.2248 64.8135C34.7048 64.4551 35.3062 64.3038 35.8967 64.3929L39.5897 64.9558C40.5089 65.097 41.4357 65.1819 42.3651 65.21L51.9823 65.5187C52.7724 65.5599 53.5479 65.2923 54.1477 64.7716C54.7474 64.2509 55.1254 63.517 55.203 62.7224C55.2817 61.9254 55.048 61.1289 54.552 60.5036C54.0559 59.8782 53.3369 59.4738 52.549 59.3769L45.7792 58.5144C43.9302 58.2793 42.1915 57.4975 40.7817 56.2674C39.2273 54.9079 37.387 53.9227 35.3998 53.3864C33.4127 52.85 31.3307 52.7766 29.3113 53.1716L22.672 54.4426C22.0912 54.5438 21.4942 54.4108 21.0096 54.0723C20.5249 53.7339 20.1913 53.2169 20.0804 52.6327C19.9696 52.0485 20.0904 51.4438 20.417 50.9486C20.7435 50.4534 21.2496 50.1074 21.8263 49.9849L28.4657 48.7139C31.1504 48.1897 33.9181 48.288 36.5597 49.0013C39.2013 49.7145 41.6479 51.0241 43.7146 52.8311C44.4559 53.4771 45.3698 53.8877 46.3415 54.0113L53.1068 54.8738C54.2439 55.0174 55.3333 55.4219 56.2915 56.056C57.2498 56.6902 58.0514 57.5374 58.6351 58.5326C58.7821 58.4542 58.9375 58.3932 59.0984 58.351L71.1131 56.3537C73.0355 56.039 75.0045 56.4751 76.6197 57.5732C78.2349 58.6713 79.375 60.349 79.8081 62.2652C80.2413 64.1813 79.935 66.192 78.9515 67.8883C77.968 69.5847 76.3812 70.8439 74.5137 71.4017ZM36.9403 30.1841C36.9416 28.2489 37.4889 26.354 38.5182 24.7211C39.5475 23.0882 41.0162 21.7849 42.7526 20.9635C44.489 20.1421 46.4213 19.8366 48.3234 20.0828C50.2255 20.329 52.0189 21.1167 53.4937 22.3537C54.9684 21.1167 56.7618 20.329 58.6639 20.0828C60.566 19.8366 62.4983 20.1421 64.2347 20.9635C65.9711 21.7849 67.4399 23.0882 68.4692 24.7211C69.4985 26.354 70.0457 28.2489 70.047 30.1841C69.7888 34.7408 68.0137 39.0761 65.0094 42.4877C62.005 45.8994 57.9474 48.1876 53.4937 48.9817C49.0461 48.1757 44.9961 45.8845 41.994 42.4763C38.9919 39.068 37.2121 34.7359 36.9403 30.1841ZM41.4385 30.1932C41.7134 33.5445 43.0252 36.7239 45.1885 39.2817C47.3518 41.8395 50.2571 43.6464 53.4937 44.4469C56.7309 43.6462 59.6367 41.8386 61.8 39.2799C63.9634 36.7212 65.2748 33.5408 65.5488 30.1887C65.5486 28.9858 65.1677 27.8144 64.4618 26.8452C63.7558 25.8761 62.7616 25.1597 61.624 24.8005C60.4865 24.4413 59.2649 24.4581 58.1375 24.8484C57.01 25.2386 56.0355 25.982 55.3559 26.9702C55.1388 27.2616 54.8576 27.498 54.5344 27.6608C54.2112 27.8236 53.8549 27.9084 53.4937 27.9084C53.1324 27.9084 52.7762 27.8236 52.453 27.6608C52.1298 27.498 51.8485 27.2616 51.6314 26.9702C50.8422 25.8188 49.657 25.0046 48.3061 24.6858C46.9552 24.367 45.5352 24.5664 44.3218 25.2453C43.4487 25.7368 42.7213 26.4544 42.2144 27.3242C41.7076 28.1939 41.4398 29.1842 41.4385 30.1932Z" fill="#FF5D00"/>
</svg>
