<svg xmlns="http://www.w3.org/2000/svg" width="76" height="75" viewBox="0 0 76 75" fill="none"><path d="M56.2973 47.7439L19.2314 69.7599L67.2251 66.502L70.9212 18.0942L56.2971 47.7436L56.2973 47.7439Z" fill="url(#paint0_linear_751_603)"></path><path d="M67.3036 66.4689L63.1786 37.9897L51.9424 52.831L67.3036 66.4689Z" fill="url(#paint1_linear_751_603)"></path><path d="M67.3592 66.4685L37.1385 64.0957L19.3916 69.6974L67.3592 66.4685Z" fill="url(#paint2_linear_751_603)"></path><path d="M19.4348 69.704L26.9845 44.9644L10.3711 48.5173L19.4346 69.7038L19.4348 69.704Z" fill="url(#paint3_linear_751_603)"></path><path d="M51.9397 52.9125L44.9929 25.6953L25.1133 44.3354L51.9397 52.913V52.9125Z" fill="url(#paint4_linear_751_603)"></path><path d="M69.3451 26.0784L50.5531 10.7261L45.3203 27.6484L69.3451 26.0784Z" fill="url(#paint5_linear_751_603)"></path><path d="M60.5575 5.2522L49.5053 11.362L42.5322 5.17041L60.5575 5.2522Z" fill="url(#paint6_linear_751_603)"></path><path d="M6 56.8165L10.6299 48.3701L6.88462 38.3076L6 56.8165Z" fill="url(#paint7_linear_751_603)"></path><path d="M6.63574 37.9896L10.404 48.6812L26.7777 45.0067L45.4711 27.6285L50.7468 10.8669L42.44 5L28.3175 10.2868C23.8679 14.4266 15.2338 22.6174 14.9226 22.7713C14.6144 22.9288 9.22108 33.1255 6.63574 37.9896Z" fill="white"></path><path d="M19.8675 18.7825C29.5109 9.21834 41.9427 3.5677 46.7135 8.38264C51.4817 13.1976 46.4252 24.8986 36.7817 34.4597C27.1383 44.0205 14.8606 49.9825 10.0928 45.1676C5.32206 40.3559 10.224 28.3436 19.8675 18.7825Z" fill="url(#paint8_linear_751_603)"></path><path d="M19.4346 69.6939L26.9252 44.8755L51.8018 52.8696C42.8073 61.3064 32.8035 68.4386 19.4346 69.6939Z" fill="url(#paint9_linear_751_603)"></path><path d="M45.5039 27.5797L51.8903 52.8832C59.4039 44.9807 66.1472 36.4852 69.4498 25.9771L45.5042 27.5797H45.5039Z" fill="url(#paint10_linear_751_603)"></path><path d="M69.3844 26.1048C71.9405 18.3894 72.5301 7.32073 60.4781 5.26562L50.5889 10.7295L69.3844 26.1048Z" fill="url(#paint11_linear_751_603)"></path><path d="M6 56.7051C6.35405 69.439 15.5385 69.6288 19.4509 69.7404L10.4137 48.6289L6 56.7051Z" fill="#9E1209"></path><path d="M45.54 27.6189C51.3136 31.1686 62.9497 38.2975 63.1856 38.4284C63.5524 38.6348 68.2021 30.5851 69.2574 26.0356L45.54 27.6189Z" fill="url(#paint12_radial_751_603)"></path><path d="M26.915 44.8755L36.9286 64.2005C42.8497 60.9884 47.4865 57.0749 51.7328 52.8829L26.915 44.8755Z" fill="url(#paint13_radial_751_603)"></path><path d="M10.3748 48.6551L8.95605 65.5545C11.6331 69.2125 15.3162 69.5305 19.1792 69.2453C16.3843 62.2869 10.8007 48.3733 10.3748 48.6551Z" fill="url(#paint14_linear_751_603)"></path><path d="M50.5312 10.7719L70.4244 13.5643C69.3625 9.06429 66.1021 6.16024 60.5448 5.25244L50.5312 10.7719Z" fill="url(#paint15_linear_751_603)"></path><defs><linearGradient id="paint0_linear_751_603" x1="4399.94" y1="5773.6" x2="3031.33" y2="3354.32" gradientUnits="userSpaceOnUse"><stop stop-color="#FB7655"></stop><stop offset="0.41" stop-color="#E42B1E"></stop><stop offset="0.99" stop-color="#990000"></stop><stop offset="1" stop-color="#990000"></stop></linearGradient><linearGradient id="paint1_linear_751_603" x1="1843.85" y1="1772.1" x2="-79.2706" y2="1396.54" gradientUnits="userSpaceOnUse"><stop stop-color="#871101"></stop><stop offset="0.99" stop-color="#911209"></stop><stop offset="1" stop-color="#911209"></stop></linearGradient><linearGradient id="paint2_linear_751_603" x1="3654.09" y1="1292.7" x2="3629.3" y2="72.5948" gradientUnits="userSpaceOnUse"><stop stop-color="#871101"></stop><stop offset="0.99" stop-color="#911209"></stop><stop offset="1" stop-color="#911209"></stop></linearGradient><linearGradient id="paint3_linear_751_603" x1="841.242" y1="223.931" x2="1413.32" y2="1900.93" gradientUnits="userSpaceOnUse"><stop stop-color="white"></stop><stop offset="0.23" stop-color="#E57252"></stop><stop offset="0.46" stop-color="#DE3B20"></stop><stop offset="0.99" stop-color="#A60003"></stop><stop offset="1" stop-color="#A60003"></stop></linearGradient><linearGradient id="paint4_linear_751_603" x1="1263.8" y1="470.651" x2="1367.56" y2="2285.88" gradientUnits="userSpaceOnUse"><stop stop-color="white"></stop><stop offset="0.23" stop-color="#E4714E"></stop><stop offset="0.56" stop-color="#BE1A0D"></stop><stop offset="0.99" stop-color="#A80D00"></stop><stop offset="1" stop-color="#A80D00"></stop></linearGradient><linearGradient id="paint5_linear_751_603" x1="933.398" y1="274.613" x2="1085.13" y2="1592.95" gradientUnits="userSpaceOnUse"><stop stop-color="white"></stop><stop offset="0.18" stop-color="#E46342"></stop><stop offset="0.4" stop-color="#C82410"></stop><stop offset="0.99" stop-color="#A80D00"></stop><stop offset="1" stop-color="#A80D00"></stop></linearGradient><linearGradient id="paint6_linear_751_603" x1="287.839" y1="366.422" x2="501.768" y2="-540.432" gradientUnits="userSpaceOnUse"><stop stop-color="white"></stop><stop offset="0.54" stop-color="#C81F11"></stop><stop offset="0.99" stop-color="#BF0905"></stop><stop offset="1" stop-color="#BF0905"></stop></linearGradient><linearGradient id="paint7_linear_751_603" x1="133.897" y1="429.493" x2="693.138" y2="779.94" gradientUnits="userSpaceOnUse"><stop stop-color="white"></stop><stop offset="0.31" stop-color="#DE4024"></stop><stop offset="0.99" stop-color="#BF190B"></stop><stop offset="1" stop-color="#BF190B"></stop></linearGradient><linearGradient id="paint8_linear_751_603" x1="-824.35" y1="4927.29" x2="4201.84" y2="-254.314" gradientUnits="userSpaceOnUse"><stop stop-color="#BD0012"></stop><stop offset="0.07" stop-color="white"></stop><stop offset="0.17" stop-color="white"></stop><stop offset="0.27" stop-color="#C82F1C"></stop><stop offset="0.33" stop-color="#820C01"></stop><stop offset="0.46" stop-color="#A31601"></stop><stop offset="0.72" stop-color="#B31301"></stop><stop offset="0.99" stop-color="#E82609"></stop><stop offset="1" stop-color="#E82609"></stop></linearGradient><linearGradient id="paint9_linear_751_603" x1="1922.37" y1="1663.16" x2="500.286" y2="1066.04" gradientUnits="userSpaceOnUse"><stop stop-color="#8C0C01"></stop><stop offset="0.54" stop-color="#990C00"></stop><stop offset="0.99" stop-color="#A80D0E"></stop><stop offset="1" stop-color="#A80D0E"></stop></linearGradient><linearGradient id="paint10_linear_751_603" x1="1944.87" y1="1714.44" x2="479.869" y2="674.147" gradientUnits="userSpaceOnUse"><stop stop-color="#7E110B"></stop><stop offset="0.99" stop-color="#9E0C00"></stop><stop offset="1" stop-color="#9E0C00"></stop></linearGradient><linearGradient id="paint11_linear_751_603" x1="1936.17" y1="1549.91" x2="1247.16" y2="850.671" gradientUnits="userSpaceOnUse"><stop stop-color="#79130D"></stop><stop offset="0.99" stop-color="#9E120B"></stop><stop offset="1" stop-color="#9E120B"></stop></linearGradient><radialGradient id="paint12_radial_751_603" cx="0" cy="0" r="1" gradientUnits="userSpaceOnUse" gradientTransform="translate(804.52 524.506) scale(1650.09 862.473)"><stop stop-color="#A80D00"></stop><stop offset="0.99" stop-color="#7E0E08"></stop><stop offset="1" stop-color="#7E0E08"></stop></radialGradient><radialGradient id="paint13_radial_751_603" cx="0" cy="0" r="1" gradientUnits="userSpaceOnUse" gradientTransform="translate(363.171 834.494) scale(2193.54 1708.06)"><stop stop-color="#A30C00"></stop><stop offset="0.99" stop-color="#800E08"></stop><stop offset="1" stop-color="#800E08"></stop></radialGradient><linearGradient id="paint14_linear_751_603" x1="587.281" y1="2151.56" x2="-647.981" y2="1126.48" gradientUnits="userSpaceOnUse"><stop stop-color="#8B2114"></stop><stop offset="0.43" stop-color="#9E100A"></stop><stop offset="0.99" stop-color="#B3100C"></stop><stop offset="1" stop-color="#B3100C"></stop></linearGradient><linearGradient id="paint15_linear_751_603" x1="664.632" y1="301.147" x2="1015.33" y2="1188.08" gradientUnits="userSpaceOnUse"><stop stop-color="#B31000"></stop><stop offset="0.44" stop-color="#910F08"></stop><stop offset="0.99" stop-color="#791C12"></stop><stop offset="1" stop-color="#791C12"></stop></linearGradient></defs></svg>