<svg width="50" height="50" viewBox="0 0 50 50" fill="none" xmlns="http://www.w3.org/2000/svg">
<rect width="50" height="50" rx="12" fill="#D30001"/>
<path d="M34.5431 15.1988C34.3966 15.1174 33.9895 14.922 32.9636 14.6289L32.8984 15.7037C33.4358 15.8828 33.9569 16.0782 34.478 16.2899L34.5431 15.1988Z" fill="white"/>
<path d="M25.572 15.3783C20.817 15.8017 14.9873 20.117 11.5677 25.8164C8.14802 31.5159 7.67578 36.3359 7.67578 36.3359H20.5402C20.5402 36.3359 18.0813 25.1162 26.2233 20.573C27.9983 19.7099 33.6489 16.4857 42.8982 23.325C43.1914 23.0807 43.4682 22.8853 43.4682 22.8853C43.4682 22.8853 35.0005 14.4339 25.572 15.3783Z" fill="white"/>
<path d="M14.1385 21.2088L12.9824 20.1992C12.559 20.6063 12.1519 21.0134 11.7773 21.4205L13.0312 22.4953C13.3732 22.0556 13.7477 21.6159 14.1385 21.2088Z" fill="white"/>
<path d="M20.2959 16.3697L19.5631 15.2461C19.156 15.4578 18.7326 15.6858 18.293 15.9463L19.042 17.0862C19.4654 16.8256 19.8725 16.5814 20.2959 16.3697Z" fill="white"/>
<path d="M9.22203 28.4847L7.34936 27.8008C7.03996 28.501 6.698 29.3152 6.53516 29.7549L8.40782 30.4388C8.61952 29.8851 8.96148 29.0872 9.22203 28.4847Z" fill="white"/>
<path d="M26.9058 14.6613H27.0686L26.743 13.668C26.2382 13.668 25.7171 13.7005 25.1797 13.7657L25.4891 14.7264C25.9613 14.6776 26.4336 14.6613 26.9058 14.6613Z" fill="white"/>
<path d="M21.0273 33.0781C21.0599 33.9412 21.1413 34.6414 21.2228 35.1299L23.1768 35.8301C23.0303 35.1951 22.8837 34.4786 22.786 33.7132L21.0273 33.0781Z" fill="white"/>
<path d="M27.6875 20.6539L28.062 21.7775C28.5343 21.5495 29.0065 21.3541 29.4787 21.2076L29.1205 20.1328C28.5668 20.2957 28.0946 20.4748 27.6875 20.6539Z" fill="white"/>
<path d="M32.8672 20.7681C33.4046 20.7844 33.9419 20.8495 34.4793 20.9635L34.5444 19.9539C33.9908 19.8399 33.4534 19.7748 32.9323 19.7422L32.8672 20.7681Z" fill="white"/>
<path d="M21.762 27.1523C21.5503 27.7549 21.4037 28.3574 21.2734 28.9436L22.5924 29.9858C22.6576 29.3507 22.7716 28.7156 22.9344 28.0805L21.762 27.1523Z" fill="white"/>
<path d="M23.6328 23.7004L24.4144 24.8729C24.6913 24.4658 25.017 24.0912 25.3752 23.7167L24.6424 22.6094C24.2679 22.9513 23.9259 23.3259 23.6328 23.7004Z" fill="white"/>
</svg>
