<svg width="50" height="50" viewBox="0 0 50 50" fill="none" xmlns="http://www.w3.org/2000/svg">
<path d="M5 24.7637C5 13.718 13.9543 4.76367 25 4.76367C36.0457 4.76367 45 13.718 45 24.7637C45 35.8094 36.0457 44.7637 25 44.7637C13.9543 44.7637 5 35.8094 5 24.7637Z" fill="#4361EE"/>
<path d="M28.6429 21.2566C28.5634 20.4545 28.222 19.8314 27.6188 19.3873C27.0156 18.9431 26.1969 18.7211 25.1628 18.7211C24.4602 18.7211 23.8669 18.8205 23.383 19.0194C22.8991 19.2116 22.5279 19.4801 22.2694 19.8248C22.0175 20.1694 21.8915 20.5605 21.8915 20.998C21.8783 21.3626 21.9545 21.6808 22.1202 21.9526C22.2926 22.2244 22.5279 22.4597 22.8262 22.6586C23.1245 22.8508 23.4692 23.0198 23.8603 23.1657C24.2514 23.3049 24.669 23.4242 25.1131 23.5236L26.9426 23.9611C27.8309 24.16 28.6462 24.4251 29.3887 24.7566C30.1311 25.088 30.7741 25.4957 31.3176 25.9796C31.8612 26.4635 32.2821 27.0336 32.5804 27.6898C32.8854 28.3461 33.0411 29.0984 33.0478 29.9469C33.0411 31.1931 32.723 32.2736 32.0932 33.1884C31.4701 34.0965 30.5686 34.8025 29.3887 35.3063C28.2154 35.8034 26.8001 36.052 25.1429 36.052C23.499 36.052 22.0672 35.8001 20.8475 35.2963C19.6344 34.7926 18.6865 34.0468 18.0037 33.0591C17.3276 32.0648 16.973 30.8352 16.9398 29.3702H21.106C21.1524 30.053 21.348 30.623 21.6926 31.0804C22.044 31.5312 22.5113 31.8726 23.0946 32.1046C23.6846 32.33 24.3508 32.4426 25.0932 32.4426C25.8224 32.4426 26.4554 32.3366 26.9924 32.1245C27.5359 31.9123 27.9569 31.6174 28.2551 31.2395C28.5534 30.8617 28.7026 30.4275 28.7026 29.937C28.7026 29.4796 28.5667 29.0951 28.2949 28.7836C28.0298 28.472 27.6387 28.2069 27.1216 27.9881C26.6112 27.7694 25.9848 27.5705 25.2424 27.3915L23.025 26.8347C21.3082 26.4171 19.9526 25.7641 18.9583 24.8759C17.964 23.9876 17.4701 22.7911 17.4767 21.2864C17.4701 20.0534 17.7982 18.9763 18.4611 18.0549C19.1306 17.1335 20.0487 16.4142 21.2154 15.8972C22.382 15.3801 23.7078 15.1216 25.1926 15.1216C26.704 15.1216 28.0231 15.3801 29.15 15.8972C30.2836 16.4142 31.1652 17.1335 31.7949 18.0549C32.4247 18.9763 32.7495 20.0435 32.7694 21.2566H28.6429Z" fill="white"/>
</svg>
