<svg width="50" height="50" viewBox="0 0 50 50" fill="none" xmlns="http://www.w3.org/2000/svg">
<path fill-rule="evenodd" clip-rule="evenodd" d="M12.8582 34.6683C12.8582 29.8128 16.2582 25.6708 20.9876 24.6965C22.1942 25.3026 23.5574 25.6459 25.0006 25.6459C26.4437 25.6459 27.8069 25.3026 29.0135 24.6965C33.7436 25.6708 37.1429 29.8128 37.1429 34.6683V39.9729H12.8583L12.8582 34.6683ZM18.0809 16.8484C18.0809 13.0865 21.1851 10.0262 25.0006 10.0262C28.816 10.0262 31.9209 13.0865 31.9209 16.8484C31.9209 20.6104 28.816 23.6712 25.0006 23.6712C21.1851 23.6712 18.0809 20.6104 18.0809 16.8484ZM12.5477 41.9483C11.6292 41.9483 10.8828 41.2012 10.8828 40.2834V34.6683C10.8828 31.7968 11.9131 29.0049 13.7829 26.8072C15.1627 25.1864 16.9331 23.9606 18.8998 23.2421C17.1809 21.6369 16.1053 19.3652 16.1053 16.8484C16.1055 11.9972 20.096 8.05078 25.0006 8.05078C29.9051 8.05078 33.8956 11.9972 33.8956 16.8484C33.8956 19.3654 32.8201 21.637 31.1018 23.2421C33.0678 23.9606 34.8389 25.1859 36.2187 26.8072C38.0885 29.005 39.1175 31.7968 39.1175 34.6683V40.2834C39.1175 41.2012 38.3711 41.9483 37.4532 41.9483H12.5477Z" fill="#A3ACB5"/>
</svg>
