<svg width="50" height="50" viewBox="0 0 50 50" fill="none" xmlns="http://www.w3.org/2000/svg">
<path d="M36.2885 33.5564C41.0997 33.5564 45 29.6562 45 24.8449C45 20.0336 41.0997 16.1331 36.2885 16.1331C35.9853 16.1331 35.6855 16.1487 35.3901 16.1789C35.2524 11.0863 31.0813 7 25.9552 7C22.1848 7 18.9306 9.2109 17.4186 12.4072C16.7949 12.153 16.1127 12.0129 15.398 12.0129C12.4407 12.0129 10.0436 14.4103 10.0436 17.3675C10.0436 17.9626 10.1406 18.5351 10.3199 19.0698C7.24595 19.9649 5 22.8032 5 26.1661C5 30.2477 8.30867 33.5564 12.3903 33.5564H14.8464V37.1885H10.7817C10.6595 36.4802 10.0412 35.9396 9.29856 35.9396C8.46843 35.9396 7.79307 36.615 7.79307 37.4451C7.79307 38.2752 8.46843 38.9506 9.29856 38.9506C10.0412 38.9506 10.6595 38.41 10.7817 37.7017H15.103C15.2447 37.7017 15.3596 37.5868 15.3596 37.4451V33.5564H17.8542V41.2568H15.1472C15.025 40.5485 14.4067 40.0079 13.664 40.0079C12.8339 40.0079 12.1585 40.6832 12.1585 41.5134C12.1585 42.3435 12.8339 43.0189 13.664 43.0189C14.4067 43.0189 15.025 42.4782 15.1472 41.77H18.1108C18.2525 41.77 18.3673 41.6551 18.3673 41.5134V33.5564H20.8554V37.1024C20.8554 37.2441 20.9703 37.359 21.112 37.359C21.2537 37.359 21.3686 37.2441 21.3686 37.1024V33.5564H24.1068H24.3398C24.3398 33.5564 24.3583 33.5564 24.5 33.5564C24.6417 33.5564 24.5742 33.5564 24.5742 33.5564H24.62H27.3581V37.1024C27.3581 37.2441 27.473 37.359 27.6147 37.359C27.7564 37.359 27.8713 37.2441 27.8713 37.1024V33.5564H30.3594V41.5134C30.3594 41.6551 30.4743 41.77 30.616 41.77H33.242C33.3642 42.4782 34.2574 43.5 35 43.5C35.8301 43.5 37 43 37 41.5C37 40.6699 36.5 40.1698 35 39.5C34.3219 39.1972 33.3642 39.9211 33.242 40.6293H31.5V33.5L33.3671 33.5564V37.4451C33.3671 37.5868 33.482 37.7017 33.6237 37.7017H37.945C38.0672 38.41 38.6855 38.9506 39.4282 38.9506C40.2583 38.9506 40.9336 38.2752 40.9336 37.4451C40.9336 36.6149 40.2583 35.9396 39.4282 35.9396C38.6855 35.9396 38.0672 36.4802 37.945 37.1885H33.8803V33.5564H36.2885ZM9.29854 38.4374C8.75138 38.4374 8.30624 37.9923 8.30624 37.4451C8.30624 36.8979 8.75138 36.4528 9.29854 36.4528C9.8457 36.4528 10.2909 36.8979 10.2909 37.4451C10.2909 37.9923 9.8457 38.4374 9.29854 38.4374ZM13.664 42.5057C13.1169 42.5057 12.6717 42.0605 12.6717 41.5134C12.6717 40.9662 13.1169 40.521 13.664 40.521C14.2112 40.521 14.6563 40.9662 14.6563 41.5134C14.6563 42.0605 14.2112 42.5057 13.664 42.5057ZM35.0627 40.5211C35.6098 40.5211 36.055 40.9662 36.055 41.5134C36.055 42.0605 35.6099 42.5057 35.0627 42.5057C34.5156 42.5057 34.0704 42.0605 34.0704 41.5134C34.0704 40.9662 34.5156 40.5211 35.0627 40.5211ZM39.4282 36.4528C39.9753 36.4528 40.4205 36.898 40.4205 37.4451C40.4205 37.9923 39.9753 38.4374 39.4282 38.4374C38.881 38.4374 38.4359 37.9923 38.4359 37.4451C38.4359 36.898 38.881 36.4528 39.4282 36.4528Z" fill="#A3ACB5"/>
</svg>
