<svg width="80" height="80" viewBox="0 0 80 80" fill="none" xmlns="http://www.w3.org/2000/svg">
<circle cx="40" cy="40" r="40" fill="#E51CFF" fill-opacity="0.25"/>
<circle cx="40" cy="40" r="30" fill="#E51CFF"/>
<path d="M35.3779 48.4935C35.3779 46.9691 36.6127 45.7344 38.1371 45.7344H42.8555C44.3799 45.7344 45.6146 46.9691 45.6146 48.4935V53.2119C45.6146 54.7363 44.3799 55.9711 42.8555 55.9711H38.1371C36.6127 55.9711 35.3779 54.7363 35.3779 53.2119V48.4935Z" fill="white"/>
<path d="M49.9846 35.1667C49.9708 35.9255 50.6192 36.5946 51.3745 36.6532C54.9614 36.9292 58 39.978 58 43.741C58 46.6795 56.2134 49.2041 53.6681 50.287C53.137 50.5147 52.5955 50.6526 52.0471 50.7354C51.0435 50.8871 50.2123 50.0283 50.2123 49.0109V48.4936C50.2123 44.4273 46.9186 41.1335 42.8557 41.1335H38.1373C34.0745 41.1335 30.7807 44.4272 30.7807 48.4936V48.9385C30.7807 49.9801 29.9047 50.8354 28.9011 50.5561C25.497 49.6076 23 46.4828 23 42.7788C23 38.7021 26.0213 35.329 29.9495 34.7843C30.4359 34.7153 30.8222 34.3255 30.8773 33.8393C31.4154 29.052 35.4748 25.334 40.4033 25.334C45.8077 25.334 50.0848 29.9764 49.9846 35.1667Z" fill="white"/>
</svg>
