<svg width="50" height="50" viewBox="0 0 50 50" fill="none" xmlns="http://www.w3.org/2000/svg">
<path d="M46.9689 39.3903C46.7883 38.6403 46.0244 38.1959 45.2883 38.3764C44.5383 38.557 44.0939 39.3209 44.2744 40.057L45.0244 43.0431L39.6772 37.6959C42.7466 34.1681 44.4411 29.7098 44.4411 24.9736C44.4411 20.2375 42.7466 15.7931 39.6772 12.2514L45.0244 6.9042L44.2744 9.89031C44.0939 10.6403 44.5383 11.3903 45.2883 11.5709C45.3994 11.5986 45.5105 11.6125 45.6216 11.6125C46.2466 11.6125 46.8161 11.1959 46.9689 10.557L48.3716 4.94586C48.6078 3.98753 48.33 3.00142 47.6355 2.30697C46.9411 1.61253 45.9411 1.33475 44.9967 1.57086L39.3855 2.97364C38.6355 3.1542 38.1911 3.91808 38.3716 4.6542C38.5522 5.39031 39.3161 5.84864 40.0522 5.66809L43.0522 4.91809L37.705 10.2653C30.4272 3.94586 19.5522 3.94586 12.2744 10.2653L6.9272 4.91809L9.9272 5.66809C10.6633 5.84864 11.4272 5.4042 11.6078 4.6542C11.7883 3.9042 11.3439 3.1542 10.5939 2.97364L4.99664 1.62642C4.0522 1.39031 3.0522 1.6542 2.35776 2.36253C1.66331 3.07086 1.38553 4.04308 1.62164 5.00142L3.02442 10.6125C3.1772 11.2375 3.74664 11.6681 4.37164 11.6681C4.48276 11.6681 4.59387 11.6681 4.70498 11.6264C5.45498 11.4459 5.89942 10.682 5.71887 9.94586L4.96887 6.95975L10.3161 12.307C7.24664 15.8348 5.5522 20.2931 5.5522 25.0292C5.5522 29.7653 7.24664 34.2098 10.3161 37.7514L4.96887 43.0986L5.71887 40.1125C5.89942 39.3625 5.45498 38.6125 4.70498 38.432C3.95498 38.2375 3.20498 38.6959 3.02442 39.4459L1.62164 45.057C1.38553 46.0153 1.66331 47.0014 2.35776 47.6959C2.88553 48.2236 3.57998 48.5153 4.31609 48.5153C4.53831 48.5153 4.77442 48.4875 4.99664 48.432L10.6078 47.0292C11.3578 46.8486 11.8022 46.0848 11.6216 45.3486C11.4411 44.5986 10.6772 44.1542 9.94109 44.3348L6.94109 45.0848L12.2883 39.7375C15.9272 42.8903 20.4689 44.4875 25.0105 44.4875C29.5522 44.4875 34.0939 42.8903 37.7328 39.7375L43.08 45.0848L40.08 44.3348C39.33 44.1403 38.58 44.5986 38.3994 45.3486C38.2189 46.0986 38.6633 46.8486 39.4133 47.0292L45.0244 48.432C45.2466 48.4875 45.4828 48.5153 45.705 48.5153C46.4272 48.5153 47.1216 48.2236 47.6633 47.6959C48.3578 47.0014 48.6355 46.0153 48.3994 45.057L46.9966 39.4459L46.9689 39.3903ZM13.2189 36.7792C10.0661 33.6264 8.34387 29.4459 8.34387 24.9875C8.34387 20.5292 10.08 16.3486 13.2189 13.1959C16.4689 9.94586 20.7328 8.32086 25.0105 8.32086C29.2883 8.32086 33.5522 9.94586 36.8022 13.1959C39.955 16.3486 41.6772 20.5292 41.6772 24.9875C41.6772 29.4459 39.9411 33.6264 36.8022 36.7792C30.3022 43.2792 19.7328 43.2792 13.2328 36.7792H13.2189ZM26.3994 24.9875H23.6216C19.7883 24.9875 16.6772 28.0986 16.6772 31.932V36.0986C16.6772 36.8625 17.3022 37.4875 18.0661 37.4875H31.955C32.7189 37.4875 33.3439 36.8625 33.3439 36.0986V31.932C33.3439 28.0986 30.2328 24.9875 26.3994 24.9875ZM30.5661 34.7098H19.455V31.932C19.455 29.6403 21.33 27.7653 23.6216 27.7653H26.3994C28.6911 27.7653 30.5661 29.6403 30.5661 31.932V34.7098ZM25.0105 23.5986C28.08 23.5986 30.5661 21.1125 30.5661 18.0431C30.5661 14.9736 28.08 12.4875 25.0105 12.4875C21.9411 12.4875 19.455 14.9736 19.455 18.0431C19.455 21.1125 21.9411 23.5986 25.0105 23.5986ZM25.0105 15.2653C26.5383 15.2653 27.7883 16.5153 27.7883 18.0431C27.7883 19.5709 26.5383 20.8209 25.0105 20.8209C23.4828 20.8209 22.2328 19.5709 22.2328 18.0431C22.2328 16.5153 23.4828 15.2653 25.0105 15.2653Z" fill="#A3ACB5"/>
</svg>
