<svg width="32" height="32" viewBox="0 0 32 32" fill="none" xmlns="http://www.w3.org/2000/svg">
<path d="M22 2H20H12H10C8.3457 2 7 3.3457 7 5V27C7 28.6543 8.3457 30 10 30H22C23.6543 30 25 28.6543 25 27V5C25 3.3457 23.6543 2 22 2ZM19 4V5C19 5.55127 18.5518 6 18 6H14C13.4487 6 13 5.55127 13 5V4H19ZM23 27C23 27.5518 22.5518 28 22 28H10C9.44873 28 9 27.5518 9 27V5C9 4.44873 9.44873 4 10 4H11V5C11 6.6543 12.3457 8 14 8H18C19.6543 8 21 6.6543 21 5V4H22C22.5518 4 23 4.44873 23 5V27ZM19 26C19 26.5527 18.5527 27 18 27H14C13.4478 27 13 26.5527 13 26C13 25.4473 13.4478 25 14 25H18C18.5527 25 19 25.4473 19 26ZM21 15H19.858C19.4944 13.6012 18.399 12.5056 17 12.142V11C17 10.4478 16.5522 10 16 10C15.4478 10 15 10.4478 15 11V12.142C13.6013 12.5057 12.5057 13.6013 12.142 15H11C10.4478 15 10 15.4478 10 16C10 16.5522 10.4478 17 11 17H12.142C12.5056 18.399 13.6012 19.4944 15 19.858V21C15 21.5527 15.4478 22 16 22C16.5522 22 17 21.5527 17 21V19.858C18.399 19.4945 19.4945 18.399 19.858 17H21C21.5527 17 22 16.5522 22 16C22 15.4478 21.5527 15 21 15ZM16 18C14.897 18 14 17.1025 14 16C14 14.897 14.897 14 16 14C17.1025 14 18 14.897 18 16C18 17.1025 17.1025 18 16 18Z" fill="#F5FAFE"/>
</svg>
