<svg width="32" height="32" viewBox="0 0 32 32" fill="none" xmlns="http://www.w3.org/2000/svg">
<g clip-path="url(#clip0_12729_11236)">
<path d="M9.84766 18.4692L10.7852 20.0933L11.9001 19.4487C12.2434 19.25 12.6755 19.2903 12.9768 19.5476C13.4155 19.9211 13.907 20.2068 14.438 20.3953C14.8118 20.5281 15.0615 20.8823 15.0615 21.2788V22.5625H16.9365V21.2798C16.9365 20.8835 17.1855 20.53 17.5591 20.3972C18.0911 20.2068 18.5828 19.9211 19.0212 19.5476C19.3225 19.2905 19.7546 19.2502 20.0979 19.4487L21.2131 20.0933L22.1506 18.4692L21.052 17.8347C20.7087 17.6362 20.5264 17.2424 20.5989 16.8525C20.7158 16.2195 20.7158 15.7805 20.5989 15.1477C20.5264 14.7578 20.7087 14.364 21.052 14.1653L22.1506 13.531L21.2131 11.9067L20.0979 12.5513C19.7546 12.7483 19.3225 12.7097 19.0212 12.4524C18.5828 12.0789 18.0911 11.7932 17.5591 11.6028C17.1855 11.4702 16.9365 11.1167 16.9365 10.7202V9.4375H15.0615V10.7202C15.0615 11.1165 14.8125 11.47 14.439 11.6028C13.907 11.7932 13.4155 12.0789 12.9768 12.4524C12.6758 12.7095 12.2437 12.748 11.9001 12.5513L10.7852 11.9067L9.84766 13.5308L10.9463 14.1653C11.2896 14.3638 11.4717 14.7576 11.3994 15.1475C11.2825 15.7805 11.2825 16.2195 11.3994 16.8523C11.4717 17.2422 11.2896 17.636 10.9463 17.8347L9.84766 18.4692ZM15.999 13.1875C17.5498 13.1875 18.8115 14.4492 18.8115 16C18.8115 17.5508 17.5498 18.8125 15.999 18.8125C14.4482 18.8125 13.1865 17.5508 13.1865 16C13.1865 14.4492 14.4482 13.1875 15.999 13.1875Z" fill="#F5FAFE"/>
<path d="M3.8125 26.3125H28.1875V5.6875H3.8125V26.3125ZM9.46216 15.4736L8.09912 14.6863C7.65039 14.427 7.49658 13.854 7.75562 13.4053L9.63062 10.157C9.89038 9.70825 10.4644 9.55493 10.9116 9.81372L12.2966 10.614C12.5806 10.418 12.8782 10.2451 13.1875 10.0967V8.5C13.1875 7.98193 13.6069 7.5625 14.125 7.5625H17.875C18.3931 7.5625 18.8125 7.98193 18.8125 8.5V10.0967C19.1218 10.2451 19.4194 10.418 19.7034 10.614L21.0884 9.81372C21.5317 9.55713 22.1084 9.70605 22.3694 10.157L24.2444 13.4053C24.5034 13.854 24.3496 14.4272 23.9009 14.6863L22.5378 15.4736C22.5706 15.8384 22.5708 16.1602 22.5378 16.5264L23.9009 17.3137C24.3496 17.573 24.5034 18.146 24.2444 18.5947L22.3694 21.843C22.1067 22.2966 21.5317 22.4409 21.0884 22.1863L19.7034 21.386C19.4194 21.582 19.1218 21.7549 18.8125 21.9033V23.5C18.8125 24.0181 18.3931 24.4375 17.875 24.4375H14.125C13.6069 24.4375 13.1875 24.0181 13.1875 23.5V21.9033C12.8782 21.7549 12.5806 21.582 12.2966 21.386L10.9116 22.1863C10.4683 22.4409 9.89331 22.2966 9.63062 21.843L7.75562 18.5947C7.49658 18.146 7.65039 17.5728 8.09912 17.3137L9.46216 16.5264C9.42944 16.1616 9.4292 15.8398 9.46216 15.4736Z" fill="#F5FAFE"/>
<path d="M25.375 0H6.625C5.07422 0 3.8125 1.26172 3.8125 2.8125V3.75H28.1875V2.8125C28.1875 1.26172 26.9258 0 25.375 0Z" fill="#F5FAFE"/>
<path d="M3.8125 29.1875C3.8125 30.7383 5.07422 32 6.625 32H25.375C26.9258 32 28.1875 30.7383 28.1875 29.1875V28.25H3.8125V29.1875Z" fill="#F5FAFE"/>
<path d="M16 16.9375C16.5173 16.9375 16.9375 16.5173 16.9375 16C16.9375 15.4827 16.5173 15.0625 16 15.0625C15.4827 15.0625 15.0625 15.4827 15.0625 16C15.0625 16.5173 15.4827 16.9375 16 16.9375Z" fill="#F5FAFE"/>
</g>
<defs>
<clipPath id="clip0_12729_11236">
<rect width="32" height="32" fill="white"/>
</clipPath>
</defs>
</svg>
