<svg width="32" height="32" viewBox="0 0 32 32" fill="none" xmlns="http://www.w3.org/2000/svg">
<g clip-path="url(#clip0_12729_11223)">
<path d="M18.5283 9.4375H13.4707L15.9995 11.1233L18.5283 9.4375Z" fill="#F5FAFE"/>
<path d="M13.4707 15.0625H18.5283L15.9995 13.3767L13.4707 15.0625Z" fill="#F5FAFE"/>
<path d="M18.8125 20.6875H20.6875V22.5625H18.8125V20.6875Z" fill="#F5FAFE"/>
<path d="M11.3125 10.2517V14.2483L14.3101 12.25L11.3125 10.2517Z" fill="#F5FAFE"/>
<path d="M20.687 14.2483V10.2517L17.6895 12.25L20.687 14.2483Z" fill="#F5FAFE"/>
<path d="M5.6875 26.375H26.3125V5.625H5.6875V26.375ZM22.5625 23.5C22.5625 24.0181 22.1431 24.4375 21.625 24.4375H17.875C17.3569 24.4375 16.9375 24.0181 16.9375 23.5V19.75C16.9375 19.2319 17.3569 18.8125 17.875 18.8125H21.625C22.1431 18.8125 22.5625 19.2319 22.5625 19.75V23.5ZM9.4375 8.5C9.4375 8.01343 9.88623 7.5625 10.375 7.5625H21.625C22.124 7.5625 22.5625 8.03052 22.5625 8.5V16C22.5625 16.4758 22.1292 16.9375 21.625 16.9375H10.375C9.86938 16.9375 9.4375 16.4756 9.4375 16V8.5ZM9.4375 19.75C9.4375 19.2319 9.85693 18.8125 10.375 18.8125H14.125C14.6431 18.8125 15.0625 19.2319 15.0625 19.75V23.5C15.0625 24.0181 14.6431 24.4375 14.125 24.4375H10.375C9.85693 24.4375 9.4375 24.0181 9.4375 23.5V19.75Z" fill="#F5FAFE"/>
<path d="M26.3125 2.8125C26.3125 1.26172 25.0508 0 23.5 0H8.5C6.94922 0 5.6875 1.26172 5.6875 2.8125V3.75H26.3125V2.8125Z" fill="#F5FAFE"/>
<path d="M5.6875 29.1875C5.6875 30.7383 6.94922 32 8.5 32H23.5C25.0508 32 26.3125 30.7383 26.3125 29.1875V28.25H5.6875V29.1875Z" fill="#F5FAFE"/>
<path d="M11.3125 20.6875H13.1875V22.5625H11.3125V20.6875Z" fill="#F5FAFE"/>
</g>
<defs>
<clipPath id="clip0_12729_11223">
<rect width="32" height="32" fill="white"/>
</clipPath>
</defs>
</svg>
