<svg width="32" height="32" viewBox="0 0 32 32" fill="none" xmlns="http://www.w3.org/2000/svg">
<g clip-path="url(#clip0_12729_11186)">
<g clip-path="url(#clip1_12729_11186)">
<path d="M30.0008 10.75C29.5578 10.7509 29.1276 10.8987 28.7775 11.1701C28.4274 11.4415 28.1771 11.8212 28.0658 12.25H26.2758L25.8008 13.25H28.0658C28.1594 13.612 28.3527 13.9405 28.6237 14.1982C28.8947 14.4559 29.2325 14.6324 29.5988 14.7077C29.965 14.783 30.3451 14.7541 30.6957 14.6243C31.0464 14.4944 31.3536 14.2688 31.5825 13.9731C31.8114 13.6774 31.9528 13.3234 31.9905 12.9514C32.0283 12.5794 31.961 12.2042 31.7963 11.8685C31.6316 11.5328 31.376 11.2501 31.0586 11.0523C30.7412 10.8546 30.3747 10.7499 30.0008 10.75Z" fill="#F5FAFE"/>
<path d="M29.2498 16.25C28.9399 16.2504 28.6377 16.3467 28.3848 16.5258C28.1318 16.7048 27.9406 16.9578 27.8373 17.25H26.1098L23.8323 12.5325C23.791 12.4482 23.727 12.377 23.6475 12.3271C23.568 12.2772 23.4761 12.2505 23.3823 12.25H20.7498V12.1425C20.7493 11.8721 20.6682 11.608 20.5168 11.384C20.3654 11.1599 20.1505 10.9862 19.8998 10.885C20.0054 10.6362 20.0344 10.3616 19.9832 10.0962C19.932 9.83077 19.8028 9.58666 19.6123 9.395L19.1048 8.8875C18.9135 8.69637 18.6695 8.56667 18.404 8.51501C18.1386 8.46335 17.8638 8.49207 17.6148 8.5975C17.513 8.34734 17.3391 8.13314 17.1151 7.9822C16.8912 7.83127 16.6273 7.75043 16.3573 7.75H15.6423C15.3722 7.75043 15.1084 7.83127 14.8844 7.9822C14.6605 8.13314 14.4865 8.34734 14.3848 8.5975C14.2162 8.52645 14.0352 8.4899 13.8523 8.49C13.6743 8.4897 13.4981 8.52467 13.3337 8.5929C13.1694 8.66113 13.0202 8.76126 12.8948 8.8875L12.3873 9.395C12.1967 9.58666 12.0675 9.83077 12.0163 10.0962C11.9651 10.3616 11.9942 10.6362 12.0998 10.885C11.849 10.9862 11.6342 11.1599 11.4827 11.384C11.3313 11.608 11.2502 11.8721 11.2498 12.1425V12.25H7.61726C7.52338 12.2505 7.43151 12.2772 7.352 12.3271C7.27249 12.377 7.20851 12.4482 7.16726 12.5325L4.88976 17.25H4.16226C4.04431 16.9164 3.81223 16.6352 3.50702 16.4562C3.20181 16.2771 2.84314 16.2118 2.49439 16.2716C2.14565 16.3314 1.82928 16.5126 1.60121 16.7832C1.37314 17.0537 1.24805 17.3962 1.24805 17.75C1.24805 18.1038 1.37314 18.4463 1.60121 18.7168C1.82928 18.9874 2.14565 19.1686 2.49439 19.2284C2.84314 19.2882 3.20181 19.2229 3.50702 19.0438C3.81223 18.8648 4.04431 18.5836 4.16226 18.25H5.20476C5.29878 18.2502 5.39092 18.2237 5.47055 18.1737C5.55018 18.1237 5.61404 18.0522 5.65476 17.9675L7.93226 13.25H11.3098C11.3686 13.444 11.4701 13.6223 11.6068 13.772C11.7435 13.9216 11.9119 14.0388 12.0998 14.115C11.9942 14.3638 11.9651 14.6384 12.0163 14.9038C12.0675 15.1692 12.1967 15.4133 12.3873 15.605L12.8948 16.1125C13.0861 16.3036 13.33 16.4333 13.5955 16.485C13.8609 16.5366 14.1357 16.5079 14.3848 16.4025C14.4865 16.6527 14.6605 16.8669 14.8844 17.0178C15.1084 17.1687 15.3722 17.2496 15.6423 17.25H16.3573C16.6273 17.2496 16.8912 17.1687 17.1151 17.0178C17.3391 16.8669 17.513 16.6527 17.6148 16.4025C17.8638 16.5079 18.1386 16.5366 18.404 16.485C18.6695 16.4333 18.9135 16.3036 19.1048 16.1125L19.6123 15.605C19.8028 15.4133 19.932 15.1692 19.9832 14.9038C20.0344 14.6384 20.0054 14.3638 19.8998 14.115C20.0876 14.0388 20.256 13.9216 20.3927 13.772C20.5294 13.6223 20.6309 13.444 20.6898 13.25H23.0673L25.3448 17.9675C25.3855 18.0522 25.4493 18.1237 25.529 18.1737C25.6086 18.2237 25.7007 18.2502 25.7948 18.25H27.8373C27.9291 18.5091 28.0903 18.7379 28.3034 18.9116C28.5164 19.0852 28.7731 19.1969 29.0454 19.2345C29.3177 19.2721 29.5951 19.2341 29.8472 19.1247C30.0993 19.0153 30.3166 18.8387 30.4751 18.6142C30.6337 18.3897 30.7275 18.1259 30.7463 17.8517C30.765 17.5775 30.7081 17.3034 30.5816 17.0594C30.4551 16.8153 30.264 16.6108 30.0291 16.468C29.7942 16.3253 29.5246 16.2499 29.2498 16.25ZM19.7498 12.8575C19.7498 12.9045 19.7405 12.9509 19.7226 12.9943C19.7046 13.0377 19.6783 13.0771 19.6451 13.1103C19.6119 13.1435 19.5725 13.1698 19.5291 13.1878C19.4857 13.2058 19.4392 13.215 19.3923 13.215C19.3199 13.2149 19.2494 13.2379 19.1909 13.2806C19.1325 13.3233 19.0892 13.3835 19.0673 13.4525C19.0094 13.64 18.9341 13.8216 18.8423 13.995C18.8084 14.0589 18.7959 14.1321 18.8067 14.2036C18.8175 14.2752 18.851 14.3414 18.9023 14.3925L18.9048 14.395C18.9709 14.4624 19.0079 14.5531 19.0079 14.6475C19.0079 14.7419 18.9709 14.8326 18.9048 14.9L18.3998 15.405C18.3328 15.472 18.242 15.5098 18.1473 15.51C18.1003 15.5101 18.0538 15.5009 18.0105 15.4829C17.9671 15.4649 17.9278 15.4384 17.8948 15.405L17.8923 15.4025C17.8286 15.3388 17.7423 15.3028 17.6523 15.3025C17.5974 15.3033 17.5434 15.317 17.4948 15.3425C17.3214 15.4343 17.1397 15.5096 16.9523 15.5675C16.8833 15.5894 16.8231 15.6327 16.7804 15.6912C16.7377 15.7496 16.7147 15.8201 16.7148 15.8925C16.7148 15.9395 16.7055 15.9859 16.6876 16.0293C16.6696 16.0727 16.6433 16.1121 16.6101 16.1453C16.5769 16.1785 16.5375 16.2048 16.4941 16.2228C16.4507 16.2408 16.4042 16.25 16.3573 16.25H15.6423C15.5953 16.25 15.5488 16.2408 15.5054 16.2228C15.4621 16.2048 15.4226 16.1785 15.3894 16.1453C15.3563 16.1121 15.3299 16.0727 15.312 16.0293C15.294 15.9859 15.2848 15.9395 15.2848 15.8925C15.2848 15.8201 15.2619 15.7496 15.2192 15.6912C15.1764 15.6327 15.1162 15.5894 15.0473 15.5675C14.8598 15.5096 14.6782 15.4343 14.5048 15.3425C14.4561 15.317 14.4022 15.3033 14.3473 15.3025C14.2572 15.3028 14.1709 15.3388 14.1073 15.4025L14.1048 15.405C14.0717 15.4384 14.0324 15.4649 13.9891 15.4829C13.9457 15.5009 13.8992 15.5101 13.8523 15.51C13.7575 15.5098 13.6667 15.472 13.5998 15.405L13.0948 14.9C13.0287 14.8326 12.9916 14.7419 12.9916 14.6475C12.9916 14.5531 13.0287 14.4624 13.0948 14.395L13.0973 14.3925C13.1485 14.3414 13.182 14.2752 13.1928 14.2037C13.2036 14.1321 13.1911 14.059 13.1573 13.995C13.0655 13.8216 12.9901 13.64 12.9323 13.4525C12.9104 13.3835 12.867 13.3233 12.8086 13.2806C12.7502 13.2379 12.6796 13.2149 12.6073 13.215C12.5603 13.215 12.5138 13.2058 12.4704 13.1878C12.4271 13.1699 12.3876 13.1435 12.3544 13.1103C12.3212 13.0771 12.2949 13.0377 12.277 12.9943C12.259 12.9509 12.2498 12.9045 12.2498 12.8575V12.1425C12.2498 12.0955 12.259 12.0491 12.277 12.0057C12.2949 11.9623 12.3212 11.9229 12.3544 11.8897C12.3876 11.8565 12.4271 11.8302 12.4704 11.8122C12.5138 11.7942 12.5603 11.785 12.6073 11.785C12.6796 11.7851 12.7502 11.7621 12.8086 11.7194C12.867 11.6767 12.9104 11.6165 12.9323 11.5475C12.9901 11.36 13.0655 11.1784 13.1573 11.005C13.1912 10.9411 13.2037 10.8679 13.1929 10.7963C13.1821 10.7248 13.1486 10.6585 13.0973 10.6075L13.0948 10.605C13.0287 10.5376 12.9916 10.4469 12.9916 10.3525C12.9916 10.2581 13.0287 10.1674 13.0948 10.1L13.5998 9.595C13.6667 9.52797 13.7575 9.49021 13.8523 9.49C13.8992 9.48987 13.9457 9.49909 13.9891 9.51712C14.0324 9.53514 14.0717 9.56162 14.1048 9.595L14.1073 9.5975C14.1709 9.66121 14.2572 9.69716 14.3473 9.6975C14.4022 9.69669 14.4561 9.68299 14.5048 9.6575C14.6782 9.5657 14.8598 9.49037 15.0473 9.4325C15.1162 9.41059 15.1765 9.36727 15.2192 9.30884C15.2619 9.2504 15.2848 9.17988 15.2848 9.1075C15.2848 9.06055 15.294 9.01406 15.312 8.97068C15.3299 8.9273 15.3563 8.88789 15.3894 8.85469C15.4226 8.82149 15.4621 8.79516 15.5054 8.77719C15.5488 8.75923 15.5953 8.74999 15.6423 8.75H16.3573C16.4042 8.74999 16.4507 8.75923 16.4941 8.77719C16.5375 8.79516 16.5769 8.82149 16.6101 8.85469C16.6433 8.88789 16.6696 8.9273 16.6876 8.97068C16.7055 9.01406 16.7148 9.06055 16.7148 9.1075C16.7147 9.17988 16.7377 9.2504 16.7804 9.30884C16.8231 9.36727 16.8833 9.41059 16.9523 9.4325C17.1397 9.49037 17.3214 9.5657 17.4948 9.6575C17.5434 9.68299 17.5974 9.69669 17.6523 9.6975C17.7423 9.69716 17.8286 9.66121 17.8923 9.5975L17.8948 9.595C17.9278 9.56162 17.9671 9.53514 18.0105 9.51712C18.0538 9.49909 18.1003 9.48987 18.1473 9.49C18.242 9.49021 18.3328 9.52797 18.3998 9.595L18.9048 10.1C18.9709 10.1674 19.0079 10.2581 19.0079 10.3525C19.0079 10.4469 18.9709 10.5376 18.9048 10.605L18.9023 10.6075C18.8509 10.6585 18.8174 10.7248 18.8066 10.7963C18.7958 10.8679 18.8083 10.9411 18.8423 11.005C18.9341 11.1784 19.0094 11.36 19.0673 11.5475C19.0892 11.6165 19.1325 11.6767 19.1909 11.7194C19.2494 11.7621 19.3199 11.7851 19.3923 11.785C19.4392 11.785 19.4857 11.7942 19.5291 11.8122C19.5725 11.8302 19.6119 11.8565 19.6451 11.8897C19.6783 11.9229 19.7046 11.9623 19.7226 12.0057C19.7405 12.0491 19.7498 12.0955 19.7498 12.1425V12.8575Z" fill="#F5FAFE"/>
<path d="M2.75001 9.25005C3.0599 9.24968 3.36207 9.15334 3.615 8.97428C3.86793 8.79521 4.05919 8.54222 4.16251 8.25005H5.89001L7.35251 11.2776C7.43971 11.2596 7.52848 11.2504 7.61751 11.2501H8.45001L6.65501 7.53255C6.61429 7.44781 6.55043 7.37631 6.4708 7.32632C6.39117 7.27633 6.29902 7.24989 6.20501 7.25005H4.16251C4.07071 6.99097 3.90947 6.76212 3.6964 6.58849C3.48333 6.41486 3.22663 6.30315 2.95435 6.26556C2.68208 6.22796 2.40471 6.26594 2.15256 6.37533C1.90042 6.48473 1.68319 6.66133 1.52463 6.88584C1.36607 7.11035 1.27228 7.37413 1.2535 7.64834C1.23473 7.92256 1.29169 8.19665 1.41817 8.44068C1.54465 8.68471 1.73578 8.88927 1.97066 9.03201C2.20555 9.17475 2.47515 9.25018 2.75001 9.25005Z" fill="#F5FAFE"/>
<path d="M3.93454 13.25H5.71204L6.19454 12.25H3.93454C3.81284 11.7787 3.52342 11.3679 3.12053 11.0947C2.71765 10.8215 2.22895 10.7046 1.74604 10.7659C1.26313 10.8273 0.819172 11.0626 0.497377 11.4279C0.175583 11.7931 -0.00195312 12.2632 -0.00195312 12.75C-0.00195312 13.2368 0.175583 13.7069 0.497377 14.0721C0.819172 14.4374 1.26313 14.6727 1.74604 14.7341C2.22895 14.7954 2.71765 14.6785 3.12053 14.4053C3.52342 14.1321 3.81284 13.7213 3.93454 13.25Z" fill="#F5FAFE"/>
<path d="M16 10.25C15.555 10.25 15.12 10.382 14.75 10.6292C14.38 10.8764 14.0916 11.2278 13.9213 11.639C13.751 12.0501 13.7064 12.5025 13.7932 12.939C13.8801 13.3754 14.0943 13.7763 14.409 14.091C14.7237 14.4057 15.1246 14.62 15.561 14.7068C15.9975 14.7936 16.4499 14.749 16.861 14.5787C17.2722 14.4084 17.6236 14.12 17.8708 13.75C18.118 13.38 18.25 12.945 18.25 12.5C18.2491 11.9035 18.0118 11.3318 17.59 10.91C17.1682 10.4882 16.5965 10.2509 16 10.25Z" fill="#F5FAFE"/>
<path d="M24.6409 11.14L24.3984 11.655C24.5366 11.7804 24.6503 11.9305 24.7334 12.0975L24.9884 12.63L26.9284 8.535C26.9559 8.4775 27.1109 8.25 27.1109 8.25H27.8384C27.9564 8.58361 28.1885 8.86478 28.4937 9.04382C28.7989 9.22286 29.1576 9.28824 29.5063 9.2284C29.8551 9.16856 30.1714 8.98737 30.3995 8.71683C30.6276 8.4463 30.7527 8.10385 30.7527 7.75C30.7527 7.39616 30.6276 7.05371 30.3995 6.78317C30.1714 6.51264 29.8551 6.33144 29.5063 6.27161C29.1576 6.21177 28.7989 6.27715 28.4937 6.45619C28.1885 6.63523 27.9564 6.9164 27.8384 7.25H26.7959C26.7055 7.25155 26.617 7.27714 26.5397 7.32415C26.4624 7.37116 26.399 7.43789 26.3559 7.5175L24.7509 10.9075L24.6409 11.14Z" fill="#F5FAFE"/>
<path d="M7.5275 7.0425V7.0475C7.53765 7.06447 7.54683 7.082 7.555 7.1L9.35 10.815C9.41528 10.9507 9.44863 11.0995 9.4475 11.25H9.85C10.37 8.265 12.8725 6 15.88 6H16.12C19.1275 6 21.63 8.265 22.15 11.25H23.3825C23.415 11.25 23.4475 11.255 23.48 11.2575C23.485 11.2475 23.4875 11.2375 23.4925 11.2275L24.74 8.59C24.745 5.3375 24.75 2.5 24.75 2.5C24.7489 1.83729 24.4852 1.20204 24.0166 0.733436C23.548 0.264831 22.9127 0.00108945 22.25 0L9.75 0C9.08729 0.00108945 8.45204 0.264831 7.98344 0.733436C7.51483 1.20204 7.25109 1.83729 7.25 2.5V6.6775C7.35282 6.77564 7.44045 6.88854 7.51 7.0125C7.515 7.0225 7.5225 7.0325 7.5275 7.0425ZM16 2C16.0989 2 16.1956 2.02932 16.2778 2.08427C16.36 2.13921 16.4241 2.2173 16.4619 2.30866C16.4998 2.40002 16.5097 2.50055 16.4904 2.59755C16.4711 2.69454 16.4235 2.78363 16.3536 2.85355C16.2836 2.92348 16.1945 2.9711 16.0975 2.99039C16.0006 3.00969 15.9 2.99978 15.8087 2.96194C15.7173 2.9241 15.6392 2.86001 15.5843 2.77779C15.5293 2.69556 15.5 2.59889 15.5 2.5C15.5004 2.36751 15.5532 2.24056 15.6469 2.14687C15.7406 2.05319 15.8675 2.00039 16 2Z" fill="#F5FAFE"/>
<path d="M24.66 18.73C24.5742 18.6308 24.5019 18.5207 24.445 18.4025L23.9825 17.4425L22.44 14.25H21.9375C21.8077 14.6425 21.6498 15.0252 21.465 15.395C21.295 15.7375 21.1075 16.07 20.91 16.3925C20.2075 17.54 18.7725 19.365 18.1625 21.665C18.137 21.7754 18.1186 21.8873 18.1075 22H13.8925C13.8814 21.8873 13.863 21.7754 13.8375 21.665C13.2275 19.365 11.7925 17.54 11.09 16.3925C10.8925 16.07 10.705 15.7375 10.535 15.395C10.3502 15.0252 10.1923 14.6425 10.0625 14.25H8.56L8.0825 15.24L7.25 16.9625V29.5C7.25109 30.1627 7.51483 30.798 7.98344 31.2666C8.45204 31.7352 9.08729 31.9989 9.75 32H22.25C22.9127 31.9989 23.548 31.7352 24.0166 31.2666C24.4852 30.798 24.7489 30.1627 24.75 29.5V18.825C24.75 18.8 24.6775 18.7475 24.66 18.73ZM18.03 23C18.0125 23.2875 17.9975 23.5775 17.9875 23.825C17.9803 23.9813 17.9214 24.1308 17.82 24.25H14.18C14.0786 24.1308 14.0197 23.9813 14.0125 23.825C14.0025 23.5775 13.9875 23.2875 13.97 23H18.03ZM17.4125 25.25C17.3095 25.5424 17.1183 25.7956 16.8653 25.9747C16.6123 26.1538 16.31 26.25 16 26.25C15.69 26.25 15.3877 26.1538 15.1347 25.9747C14.8817 25.7956 14.6905 25.5424 14.5875 25.25H17.4125ZM18.25 30H13.75C13.6174 30 13.4902 29.9473 13.3964 29.8536C13.3027 29.7598 13.25 29.6326 13.25 29.5C13.25 29.3674 13.3027 29.2402 13.3964 29.1464C13.4902 29.0527 13.6174 29 13.75 29H18.25C18.3826 29 18.5098 29.0527 18.6036 29.1464C18.6973 29.2402 18.75 29.3674 18.75 29.5C18.75 29.6326 18.6973 29.7598 18.6036 29.8536C18.5098 29.9473 18.3826 30 18.25 30Z" fill="#F5FAFE"/>
</g>
</g>
<defs>
<clipPath id="clip0_12729_11186">
<rect width="32" height="32" fill="white"/>
</clipPath>
<clipPath id="clip1_12729_11186">
<rect width="32" height="32" fill="white"/>
</clipPath>
</defs>
</svg>
