<svg width="30" height="32" viewBox="0 0 30 32" fill="none" xmlns="http://www.w3.org/2000/svg">
<path d="M16.0504 13.905H15.4713V13.3656C15.4713 12.9814 15.1598 12.6699 14.7756 12.6699C14.3915 12.6699 14.08 12.9814 14.08 13.3656V13.905C13.9894 13.905 12.1848 13.905 12.2621 13.905C11.8779 13.905 11.5664 14.2165 11.5664 14.6006C11.5664 14.9848 11.8779 15.2963 12.2621 15.2963H12.7875C12.7875 15.3945 12.7875 19.3774 12.7875 19.2423H12.2621C11.8779 19.2423 11.5664 19.5537 11.5664 19.9379C11.5664 20.3221 11.8779 20.6336 12.2621 20.6336C12.3351 20.6336 14.192 20.6336 14.08 20.6336V21.1733C14.08 21.5575 14.3915 21.8689 14.7756 21.8689C15.1598 21.8689 15.4713 21.5575 15.4713 21.1733V20.6336H16.0504C17.1696 20.6336 18.0803 19.7229 18.0803 18.6037C18.0803 18.0906 17.8828 17.6269 17.568 17.2691C17.8828 16.9114 18.0803 16.4477 18.0803 15.9349C18.0803 14.8156 17.1696 13.905 16.0504 13.905ZM16.0504 19.2423H14.1788V17.9647H16.0504C16.4027 17.9647 16.689 18.2514 16.689 18.6037C16.689 18.9559 16.4027 19.2423 16.0504 19.2423ZM16.0504 16.5734H14.1788V15.2963H16.0504C16.4027 15.2963 16.689 15.5826 16.689 15.9349C16.689 16.2871 16.4027 16.5734 16.0504 16.5734Z" fill="#F5FAFE"/>
<path d="M28.5542 7.08732C25.7086 6.52885 23.5565 4.1266 23.3157 1.23955C23.2567 0.532692 22.6456 0 21.9363 0H7.70952C7.0002 0 6.38913 0.532692 6.33019 1.23955C6.08937 4.1266 3.9372 6.52885 1.09159 7.08732C0.377725 7.22739 -0.0837204 7.92015 0.0127044 8.64123C2.21586 25.118 10.7543 30.2874 13.7683 31.756C14.4349 32.0808 15.206 32.0815 15.873 31.7572C18.8926 30.2893 27.4306 25.111 29.6331 8.64128C29.7296 7.92019 29.2681 7.22739 28.5542 7.08732ZM18.4062 27.6517C17.3702 28.5047 16.2694 29.2258 15.1342 29.7947C15.036 29.844 14.929 29.8684 14.8224 29.8684C14.7154 29.8684 14.6084 29.8437 14.5102 29.7944C13.3757 29.2248 12.2762 28.504 11.2419 27.6517C10.9453 27.4072 10.9029 26.969 11.1471 26.6725C11.3917 26.3756 11.8305 26.3335 12.1264 26.5777C12.9854 27.2852 13.8906 27.8939 14.8227 28.3899C15.7551 27.8943 16.6617 27.2859 17.5217 26.5777C17.8186 26.3335 18.2568 26.3759 18.501 26.6725C18.7452 26.9693 18.7028 27.4075 18.4062 27.6517ZM21.9542 22.2969C21.9542 23.4587 21.0082 24.4047 19.8464 24.4047H9.80122C8.6395 24.4047 7.69343 23.4587 7.69343 22.2969V12.2448C7.69343 11.0831 8.6395 10.137 9.80122 10.137H9.87778V8.15436C9.87778 5.44827 12.083 3.22914 14.8029 3.22914C17.5469 3.22914 19.7282 5.46589 19.7282 8.15436V10.137H19.8464C21.0082 10.137 21.9542 11.0831 21.9542 12.2448V22.2969Z" fill="#F5FAFE"/>
<path d="M16.919 8.15431C16.919 7.00915 15.9838 6.03955 14.8042 6.03955C13.6355 6.03955 12.6895 6.99259 12.6895 8.15431V10.1369H16.919V8.15431Z" fill="#F5FAFE"/>
</svg>
