<svg width="32" height="17" viewBox="0 0 32 17" fill="none" xmlns="http://www.w3.org/2000/svg">
<path d="M8.50469 13.1692L3.43594 8.10049L8.50469 3.03174C9.06094 2.47549 9.06094 1.57549 8.50469 1.01924C7.94844 0.462988 7.04844 0.462988 6.49219 1.01924L0.417187 7.09424C-0.139062 7.65049 -0.139062 8.55049 0.417187 9.10674L6.49219 15.1817C7.04844 15.738 7.94844 15.738 8.50469 15.1817C9.06094 14.6255 9.06094 13.7255 8.50469 13.1692Z" fill="#F5FAFE"/>
<path d="M23.4914 13.1692L28.5602 8.10049L23.4914 3.03174C22.9352 2.47549 22.9352 1.57549 23.4914 1.01924C24.0477 0.462988 24.9477 0.462988 25.5039 1.01924L31.5789 7.09424C32.1352 7.65049 32.1352 8.55049 31.5789 9.10674L25.5039 15.1817C24.9477 15.738 24.0477 15.738 23.4914 15.1817C22.9352 14.6255 22.9352 13.7255 23.4914 13.1692Z" fill="#F5FAFE"/>
<path d="M19.8537 1.93184L14.8037 15.2756C14.5287 16.0131 13.7037 16.3818 12.9662 16.1006C12.2287 15.8256 11.86 15.0006 12.1412 14.2631L17.1912 0.91934C17.4662 0.18184 18.2912 -0.18691 19.0287 0.09434C19.76 0.37559 20.1287 1.19434 19.8537 1.93184Z" fill="#F5FAFE"/>
</svg>
