<svg width="32" height="32" viewBox="0 0 32 32" fill="none" xmlns="http://www.w3.org/2000/svg">
<g clip-path="url(#clip0_12729_11154)">
<g clip-path="url(#clip1_12729_11154)">
<path d="M7.69555 14.3088V22.8888C7.69555 23.1262 7.50055 23.3194 7.26305 23.3194H4.2743C4.0368 23.3194 3.8418 23.1262 3.8418 22.8888V14.3088C3.8418 14.0712 4.0368 13.8763 4.2743 13.8763H7.26305C7.50055 13.8769 7.69555 14.0719 7.69555 14.3088ZM11.0937 7.41875C10.858 7.41875 10.663 7.61187 10.663 7.84937V18.5906C11.7418 17.6675 13.0618 17.0175 14.5149 16.7519V7.84937C14.5149 7.61187 14.3218 7.41875 14.0843 7.41875H11.0937ZM17.9143 11.1606C17.6768 11.1606 17.4837 11.3556 17.4837 11.5931V16.7519C18.938 17.0175 20.258 17.6675 21.3355 18.5906V11.5931C21.3355 11.3556 21.1424 11.1606 20.9049 11.1606H17.9143ZM27.7262 8.26437H24.7355C24.498 8.26437 24.3049 8.4575 24.3049 8.695V22.8894C24.3049 23.1269 24.498 23.32 24.7355 23.32H27.7262C27.9618 23.32 28.1568 23.1269 28.1568 22.8894V8.69438C28.1562 8.45687 27.9618 8.26437 27.7262 8.26437ZM7.5218 7.43313L11.5455 3.62438C11.5612 3.60875 11.5774 3.59063 11.5918 3.575C11.8824 3.75063 12.2243 3.85313 12.5893 3.85313C13.1312 3.85313 13.6224 3.62812 13.973 3.26688C13.9905 3.28125 14.0105 3.29375 14.0299 3.30437L17.4743 5.195C17.4937 5.20563 17.5149 5.21625 17.5362 5.22312C17.5024 5.36688 17.4849 5.51562 17.4849 5.66937C17.4849 6.7325 18.3474 7.595 19.4105 7.595C20.4737 7.595 21.3362 6.7325 21.3362 5.66937C21.3362 5.5825 21.3312 5.49563 21.3199 5.4125C21.3412 5.4075 21.3624 5.39813 21.3855 5.38938L24.6593 3.99875C24.6805 3.99 24.7018 3.97938 24.7212 3.96688C25.0737 4.41313 25.6174 4.69875 26.2305 4.69875C27.2937 4.69875 28.1562 3.83625 28.1562 2.77125C28.1562 1.70812 27.2937 0.845625 26.2305 0.845625C25.1655 0.845625 24.3049 1.70812 24.3049 2.77125C24.3049 2.86 24.3099 2.945 24.3205 3.02813C24.2993 3.035 24.2762 3.0425 24.2549 3.05125L20.9812 4.44187C20.9599 4.45062 20.9387 4.46125 20.9193 4.47375C20.5668 4.02875 20.0212 3.74375 19.4099 3.74375C18.868 3.74375 18.3768 3.96688 18.028 4.32812C18.0087 4.31375 17.9893 4.30125 17.9693 4.29063L14.5249 2.40188C14.5055 2.38937 14.4843 2.38063 14.463 2.37188C14.4968 2.22813 14.5143 2.07938 14.5143 1.9275C14.5143 0.8625 13.653 0 12.5887 0C11.5255 0 10.663 0.863125 10.663 1.9275C10.663 2.255 10.7443 2.56375 10.8899 2.8325C10.8705 2.84687 10.8524 2.86063 10.8368 2.87687L6.8118 6.6875C6.79555 6.70312 6.7818 6.71938 6.76742 6.73688C6.47492 6.56 6.13492 6.45875 5.76805 6.45875C4.70492 6.45875 3.84242 7.32125 3.84242 8.38437C3.84242 9.4475 4.70492 10.31 5.76805 10.31C6.83305 10.31 7.69555 9.4475 7.69555 8.38437C7.69555 8.05687 7.61242 7.74813 7.46867 7.4775C7.4868 7.465 7.5043 7.44938 7.5218 7.43313ZM15.5987 25.1513V25.1494L15.5918 25.1406L15.5899 25.1388L15.5849 25.1319L15.5812 25.1281L15.5762 25.1213L15.5712 25.1106L15.5674 25.1069L15.5637 25.1L15.5599 25.0963L15.5549 25.0856L15.5499 25.0788L15.548 25.075L15.543 25.0662V25.0644L15.538 25.0556V25.0537L15.5324 25.0431V25.0413C15.5005 24.9756 15.4843 24.9031 15.4843 24.825V17.67C11.7618 17.9338 8.82492 21.0362 8.82492 24.8256C8.82492 28.7869 12.0387 32.0006 15.9999 32.0006C17.7962 32.0006 19.4368 31.34 20.6949 30.25L15.6387 25.1938C15.6237 25.18 15.6112 25.1656 15.5987 25.1513ZM16.5149 17.67V24.31H23.1549C22.9037 20.7575 20.0668 17.9212 16.5149 17.67ZM21.4243 29.5206C22.4093 28.385 23.0418 26.9338 23.1549 25.3412H17.2449L21.4243 29.5206Z" fill="#F5FAFE"/>
</g>
</g>
<defs>
<clipPath id="clip0_12729_11154">
<rect width="32" height="32" fill="white"/>
</clipPath>
<clipPath id="clip1_12729_11154">
<rect width="32" height="32" fill="white"/>
</clipPath>
</defs>
</svg>
