<svg width="29" height="32" viewBox="0 0 29 32" fill="none" xmlns="http://www.w3.org/2000/svg">
<path d="M20.3125 22.1875H18.7384C18.5769 24.6269 16.5421 26.5625 14.0625 26.5625C11.5829 26.5625 9.54806 24.6269 9.38656 22.1875H7.8125C3.50469 22.1875 0 25.6922 0 30V31.0625C0 31.5802 0.41975 32 0.9375 32H27.1875C27.7052 32 28.125 31.5802 28.125 31.0625V30C28.125 25.6922 24.6203 22.1875 20.3125 22.1875Z" fill="white"/>
<path d="M5.9375 14.0625V10.3125C4.90194 10.3125 4.0625 11.1519 4.0625 12.1875C4.0625 13.2231 4.90194 14.0625 5.9375 14.0625Z" fill="white"/>
<path d="M16.5246 6.21212C16.8624 5.87431 17.4002 5.84456 17.7732 6.14294L20.6414 8.4375H22.1875V8.125C22.1875 3.63769 18.5498 0 14.0625 0C9.57519 0 5.9375 3.63769 5.9375 8.125V8.4375H11.1522C13.1672 8.4375 15.0998 7.637 16.5246 6.21212Z" fill="white"/>
<path d="M11.25 21.373V21.8752C11.25 23.4285 12.5092 24.6877 14.0625 24.6877C15.6158 24.6877 16.875 23.4285 16.875 21.8752V21.373C15.9982 21.6975 15.0508 21.8752 14.0625 21.8752C13.0742 21.8752 12.1268 21.6976 11.25 21.373Z" fill="white"/>
<path d="M13.75 17.1873C13.75 16.6695 14.1698 16.2498 14.6875 16.2498H19.7919C20.1265 15.4842 20.3125 14.6388 20.3125 13.7498V10.5753L17.2282 8.10791C15.5269 9.53497 13.3991 10.3123 11.1519 10.3123H7.8125V13.7498C7.8125 17.2015 10.6107 19.9998 14.0625 19.9998C15.8107 19.9998 17.391 19.2817 18.5253 18.1248H14.6875C14.1698 18.1248 13.75 17.705 13.75 17.1873Z" fill="white"/>
<path d="M22.1876 14.0625H23.1251V14.6875C23.1251 15.5491 22.4241 16.25 21.5626 16.25H19.792C19.4855 16.9516 19.0539 17.5859 18.5254 18.125H21.5626C23.458 18.125 25.0001 16.5829 25.0001 14.6875V12.1875C25.0001 11.1519 24.1606 10.3125 23.1251 10.3125H22.1876V14.0625Z" fill="white"/>
</svg>
