<svg width="33" height="27" viewBox="0 0 33 27" fill="none" xmlns="http://www.w3.org/2000/svg">
<path d="M30.0672 8.28829C29.3147 7.5247 28.4213 6.91907 27.4381 6.50598C26.4549 6.09289 25.4012 5.88044 24.3371 5.88076H24.0013C23.4466 3.98663 22.2386 2.35856 20.5983 1.29441C18.958 0.230259 16.9951 -0.198806 15.0687 0.0857161C13.1423 0.370238 11.3812 1.34932 10.1077 2.84383C8.83412 4.33834 8.13328 6.24834 8.13337 8.22438H6.96846C6.05335 8.22438 5.1472 8.40734 4.30175 8.76281C3.45629 9.11829 2.6881 9.63931 2.04102 10.2961C1.39393 10.953 0.88064 11.7327 0.530442 12.5909C0.180244 13.4491 0 14.3689 0 15.2978C0 16.2267 0.180244 17.1465 0.530442 18.0047C0.88064 18.8629 1.39393 19.6427 2.04102 20.2995C2.6881 20.9564 3.45629 21.4774 4.30175 21.8329C5.1472 22.1883 6.05335 22.3713 6.96846 22.3713H9.67609V18.1102H8.13337C7.8272 18.1102 7.53357 17.9867 7.31708 17.767C7.10058 17.5472 6.97896 17.2492 6.97896 16.9384C6.97896 16.6276 7.10058 16.3295 7.31708 16.1098C7.53357 15.89 7.8272 15.7666 8.13337 15.7666H9.77054C9.90334 15.1166 10.2207 14.5204 10.6836 14.0515C11.1496 13.5829 11.7345 13.2547 12.3732 13.1034V11.367C12.4007 11.0741 12.5347 10.8021 12.7492 10.6042C12.9636 10.4063 13.243 10.2966 13.5329 10.2966C13.8227 10.2966 14.1021 10.4063 14.3166 10.6042C14.531 10.8021 14.6651 11.0741 14.6925 11.367V12.9329H17.7885V11.367C17.7885 11.0562 17.9101 10.7581 18.1266 10.5384C18.3431 10.3186 18.6367 10.1951 18.9429 10.1951C19.2491 10.1951 19.5427 10.3186 19.7592 10.5384C19.9757 10.7581 20.0973 11.0562 20.0973 11.367V13.0181C20.7329 13.1698 21.3143 13.4981 21.7764 13.9662C22.249 14.4309 22.5742 15.028 22.7105 15.6813H24.3371C24.6433 15.6813 24.9369 15.8048 25.1534 16.0246C25.3699 16.2443 25.4916 16.5424 25.4916 16.8531C25.4916 17.1639 25.3699 17.462 25.1534 17.6817C24.9369 17.9015 24.6433 18.025 24.3371 18.025H22.7944V22.2861H24.3371C25.9313 22.2783 27.4878 21.7932 28.8116 20.8917C30.1355 19.9902 31.1679 18.7122 31.7796 17.2179C32.3913 15.7236 32.5552 14.0793 32.2506 12.4909C31.946 10.9025 31.1865 9.4406 30.0672 8.28829Z" fill="#F5FAFE"/>
<path d="M19.7513 15.0227C19.5502 14.7908 19.2783 14.6596 18.9943 14.6572H13.3596C13.0858 14.6715 12.8274 14.8073 12.6382 15.0363C12.449 15.2653 12.3435 15.5698 12.3438 15.8865V22.4094C12.3429 22.568 12.3696 22.7252 12.4223 22.8717C12.4749 23.0182 12.5525 23.1509 12.6504 23.2621C12.7589 23.3939 12.8939 23.4928 13.0433 23.55V25.6542C13.0433 25.9773 13.1544 26.2871 13.3521 26.5156C13.5497 26.7441 13.8179 26.8724 14.0974 26.8724C14.377 26.8724 14.6451 26.7441 14.8428 26.5156C15.0405 26.2871 15.1515 25.9773 15.1515 25.6542V23.6276H17.231V25.6542C17.217 25.8247 17.2339 25.9967 17.2807 26.1592C17.3276 26.3217 17.4032 26.471 17.5029 26.5977C17.6026 26.7244 17.7241 26.8257 17.8597 26.895C17.9952 26.9642 18.1417 27 18.2899 27C18.4381 27 18.5847 26.9642 18.7202 26.895C18.8557 26.8257 18.9772 26.7244 19.0769 26.5977C19.1766 26.471 19.2523 26.3217 19.2991 26.1592C19.346 25.9967 19.3629 25.8247 19.3488 25.6542V23.55C19.5003 23.4909 19.638 23.3924 19.7513 23.2621C19.8492 23.1509 19.9268 23.0182 19.9795 22.8717C20.0322 22.7252 20.0588 22.568 20.058 22.4094V15.8865C20.0585 15.7263 20.0317 15.5675 19.9791 15.4193C19.9265 15.2711 19.8491 15.1363 19.7513 15.0227ZM16.1769 20.3717C16.0294 20.3879 15.8806 20.3683 15.74 20.3142C15.5994 20.2601 15.4701 20.1726 15.3605 20.0574C15.2508 19.9422 15.1632 19.8018 15.1033 19.6452C15.0433 19.4886 15.0124 19.3192 15.0124 19.1479C15.0124 18.9767 15.0433 18.8073 15.1033 18.6507C15.1632 18.4941 15.2508 18.3537 15.3605 18.2384C15.4701 18.1232 15.5994 18.0358 15.74 17.9816C15.8806 17.9275 16.0294 17.908 16.1769 17.9242C16.4404 17.9532 16.685 18.0947 16.8631 18.3209C17.0411 18.5472 17.1398 18.8421 17.1398 19.1479C17.1398 19.4538 17.0411 19.7486 16.8631 19.9749C16.685 20.2012 16.4404 20.3427 16.1769 20.3717Z" fill="#F5FAFE"/>
</svg>
