<svg width="28" height="32" viewBox="0 0 28 32" fill="none" xmlns="http://www.w3.org/2000/svg">
<path d="M21.2797 6.12195C22.4067 7.24897 24.2339 7.24897 25.361 6.12195C26.488 4.99493 26.488 3.16767 25.361 2.04065C24.2339 0.91363 22.4067 0.91363 21.2797 2.04065C20.1526 3.16767 20.1526 4.99493 21.2797 6.12195Z" fill="#F5FAFE"/>
<path d="M6.12268 6.12195C4.99566 7.24897 3.1684 7.24897 2.04138 6.12195C0.91436 4.99493 0.91436 3.16767 2.04138 2.04065C3.1684 0.91363 4.99566 0.91363 6.12268 2.04065C7.2497 3.16767 7.2497 4.99493 6.12268 6.12195Z" fill="#F5FAFE"/>
<path fill-rule="evenodd" clip-rule="evenodd" d="M21.2807 4.76078L18.7932 7.24834C18.4177 7.62381 18.4177 8.23329 18.7932 8.60877C19.1686 8.98425 19.7781 8.98425 20.1536 8.60877L22.6412 6.12122C23.0166 5.74574 23.0166 5.13626 22.6412 4.76078C22.2657 4.3853 21.6562 4.3853 21.2807 4.76078Z" fill="#F5FAFE"/>
<path fill-rule="evenodd" clip-rule="evenodd" d="M4.76119 6.12122L7.24874 8.60877C7.62422 8.98425 8.2337 8.98425 8.60917 8.60877C8.98465 8.23329 8.98465 7.62381 8.60918 7.24834L6.12162 4.76078C5.74614 4.3853 5.13667 4.3853 4.76119 4.76078C4.38571 5.13626 4.38571 5.74574 4.76119 6.12122Z" fill="#F5FAFE"/>
<path fill-rule="evenodd" clip-rule="evenodd" d="M22.3585 14.6844V29.114C22.3585 30.708 21.0665 31.9999 19.4725 31.9999C16.5154 31.9999 10.886 31.9999 7.92888 31.9999C6.3349 31.9999 5.04297 30.708 5.04297 29.114V14.6844H22.3585ZM5.09588 12.7605C5.57398 8.4316 9.2439 5.0647 13.7007 5.0647C18.1575 5.0647 21.8275 8.4316 22.3056 12.7605H5.09588ZM10.8148 8.91259C11.3458 8.91259 11.7768 9.34355 11.7768 9.87456C11.7768 10.4056 11.3458 10.8365 10.8148 10.8365C10.2838 10.8365 9.85283 10.4056 9.85283 9.87456C9.85283 9.34355 10.2838 8.91259 10.8148 8.91259ZM16.5866 8.91259C17.1176 8.91259 17.5486 9.34355 17.5486 9.87456C17.5486 10.4056 17.1176 10.8365 16.5866 10.8365C16.0556 10.8365 15.6247 10.4056 15.6247 9.87456C15.6247 9.34355 16.0556 8.91259 16.5866 8.91259Z" fill="#F5FAFE"/>
<path fill-rule="evenodd" clip-rule="evenodd" d="M3.11926 14.8491V27.9877C1.99856 27.5924 1.19531 26.5227 1.19531 25.2663C1.19531 23.1307 1.19531 19.7061 1.19531 17.5705C1.19531 16.3142 1.99856 15.2445 3.11926 14.8491Z" fill="#F5FAFE"/>
<path fill-rule="evenodd" clip-rule="evenodd" d="M24.2832 14.8491C25.4039 15.2445 26.2071 16.3142 26.2071 17.5705V25.2663C26.2071 26.5227 25.4039 27.5924 24.2832 27.9877V14.8491Z" fill="#F5FAFE"/>
</svg>
