<svg width="350" height="177" viewBox="0 0 350 177" fill="none" xmlns="http://www.w3.org/2000/svg">
<rect x="24.1443" y="28.3418" width="300.532" height="108.851" fill="#D9D9D9"/>
<g clip-path="url(#clip0_27252_78625)">
<rect width="350" height="176.574" rx="8" fill="url(#paint0_linear_27252_78625)"/>
</g>
<path fill-rule="evenodd" clip-rule="evenodd" d="M198.63 66.1428C198.63 67.0082 197.879 67.713 196.954 67.713C196.033 67.713 195.281 67.0082 195.281 66.1428C195.281 65.2774 196.033 64.5726 196.954 64.5726C197.879 64.5726 198.63 65.2774 198.63 66.1428ZM188.688 81.5461C188.688 80.6946 189.427 80.0007 190.337 80.0007C191.246 80.0007 191.985 80.6946 191.985 81.5461C191.985 82.3977 191.246 83.0916 190.337 83.0916C189.427 83.0916 188.688 82.3977 188.688 81.5461ZM188.688 110.909C188.688 110.058 189.427 109.364 190.337 109.364C191.246 109.364 191.985 110.058 191.985 110.909C191.985 111.761 191.246 112.455 190.337 112.455C189.427 112.455 188.688 111.761 188.688 110.909ZM205.17 90.8187C205.17 91.6703 204.432 92.3642 203.522 92.3642C202.612 92.3642 201.874 91.6703 201.874 90.8187C201.874 89.9672 202.612 89.2733 203.522 89.2733C204.432 89.2733 205.17 89.9672 205.17 90.8187ZM216.704 95.8754L208.402 91.4091C208.428 91.2144 208.466 91.0212 208.466 90.8187C208.466 88.2626 206.248 86.1824 203.522 86.1824C200.794 86.1824 198.577 88.2626 198.577 90.8187C198.577 93.3749 200.794 95.455 203.522 95.455C204.839 95.455 206.029 94.962 206.915 94.1739L214.868 98.4516L207.73 101.799C207.171 102.062 206.818 102.596 206.818 103.182V116.227L187.009 127.657L177.153 122.376V112.455H185.695C186.378 114.249 188.191 115.546 190.337 115.546C193.063 115.546 195.281 113.466 195.281 110.909C195.281 108.352 193.063 106.273 190.337 106.273C188.191 106.273 186.378 107.568 185.695 109.364H177.153V87.7279C177.153 87.1854 176.848 86.6816 176.352 86.4019L168.11 81.7656L166.414 84.416L173.857 88.6026V93.1477L163.966 100.281V93.9096C163.966 93.4398 163.739 92.9947 163.348 92.7026L155.726 86.9845V79.2821L164.879 73.5593C165.339 73.2719 165.614 72.7897 165.614 72.2735V63.0009H162.318V71.4467L154.096 76.5853L145.837 71.4436V59.2517L154.077 54.7452V67.6372H157.374V52.9417L163.971 49.3331L173.854 54.6788L173.855 73.819C173.855 74.3738 174.172 74.8853 174.686 75.1604L185.458 80.9326C185.428 81.135 185.392 81.336 185.392 81.5461C185.392 84.1023 187.609 86.1824 190.337 86.1824C193.063 86.1824 195.281 84.1023 195.281 81.5461C195.281 78.99 193.063 76.9098 190.337 76.9098C189.028 76.9098 187.845 77.3966 186.96 78.1771L177.151 72.9211L177.15 54.6819L186.978 49.364L205.17 60.7369V64.5464H201.625C200.929 62.7598 199.098 61.4818 196.954 61.4818C194.213 61.4818 191.985 63.5727 191.985 66.1428C191.985 68.7129 194.213 70.8038 196.954 70.8038C199.139 70.8038 200.998 69.4763 201.664 67.6372H205.17V72.2735C205.17 72.8283 205.486 73.3399 206.001 73.615L216.704 79.3516V95.8754ZM163.996 127.657L158.799 124.659L168.22 118.349L166.305 115.833L155.752 122.9L144.188 116.227V104.057L151.628 99.8703L149.932 97.2199L142.468 101.42L134.3 97.5908L134.298 88.6814L143.277 84.4732L141.804 81.7084L134.298 85.2258L134.3 79.3516L144.124 74.0879L152.429 79.2573V86.9242L143.277 92.6223L145.1 95.1969L154.005 89.6519L160.67 94.6514V102.66L153.072 108.138L155.081 110.588L173.857 97.0468V122.375L163.996 127.657ZM219.169 77.1138L208.466 71.3772V59.9101C208.466 59.3923 208.191 58.9102 207.731 58.6243L187.953 46.2608C187.433 45.9363 186.76 45.9146 186.216 46.2082L175.507 52.0036L164.79 46.2082C164.276 45.9301 163.645 45.9301 163.136 46.2113L143.358 57.0294C142.85 57.306 142.54 57.8145 142.54 58.3646V71.3772L131.834 77.1138C131.32 77.3874 131.003 77.9005 131.003 78.4553V79.0997C131.002 79.1322 131 79.1631 131 79.1955V96.016C131 96.0469 131.002 96.0778 131.003 96.1072V98.5459C131.003 99.1316 131.356 99.6663 131.915 99.9275L140.892 104.137V117.091C140.892 117.627 141.187 118.125 141.675 118.406L163.101 130.77C163.366 130.923 163.666 131 163.966 131C164.248 131 164.53 130.932 164.784 130.796L175.505 125.053L186.223 130.796C186.742 131.076 187.388 131.065 187.904 130.77L209.33 118.406C209.818 118.125 210.114 117.627 210.114 117.091V104.137L219.089 99.9275C219.647 99.6663 220 99.1316 220 98.5459V78.4553C220 77.9005 219.682 77.3889 219.169 77.1138Z" fill="white"/>
<defs>
<linearGradient id="paint0_linear_27252_78625" x1="-16.7578" y1="-18.6185" x2="67.361" y2="252.918" gradientUnits="userSpaceOnUse">
<stop stop-color="#0D682E"/>
<stop offset="1" stop-color="#56ADC0"/>
</linearGradient>
<clipPath id="clip0_27252_78625">
<rect width="350" height="176.574" rx="8" fill="white"/>
</clipPath>
</defs>
</svg>
