<svg width="60" height="60" viewBox="0 0 60 60" fill="none" xmlns="http://www.w3.org/2000/svg">
<path d="M49.5653 56.087H47.6087V45.6521C47.6087 38.8459 43.7269 32.9298 38.0611 30C43.7838 27.0407 47.6087 21.092 47.6087 14.3479V3.91301H49.5653C50.6457 3.91301 51.5218 3.03703 51.5218 1.95645C51.5218 0.875859 50.6457 0 49.5653 0C48.5012 0 11.4667 0 10.4348 0C9.35437 0 8.47827 0.875977 8.47827 1.95656C8.47827 3.03715 9.35425 3.91312 10.4348 3.91312H12.3914V14.348C12.3914 21.013 16.1416 27.0023 21.939 30.0001C16.2733 32.9299 12.3914 38.846 12.3914 45.6523V56.0871H10.4348C9.35437 56.0871 8.47827 56.9631 8.47827 58.0437C8.47827 59.1243 9.35425 60 10.4348 60C11.4663 60 48.4812 60 49.5653 60C50.6457 60 51.5218 59.124 51.5218 58.0434C51.5218 56.9628 50.6457 56.087 49.5653 56.087ZM16.3043 14.3479V3.91301H43.6957V14.3479C43.6957 14.7456 43.6776 15.1392 43.6441 15.5284H16.3559C16.3223 15.1392 16.3043 14.7455 16.3043 14.3479ZM17.2873 19.4414H42.7127C40.6874 24.4781 35.7525 28.0434 29.9999 28.0434C24.2473 28.0434 19.3126 24.4781 17.2873 19.4414ZM19.7518 56.087C29.528 47.9404 28.9212 48.3499 29.5161 48.1982C29.844 48.2817 30.1553 48.282 30.4837 48.1982C31.0788 48.3498 30.472 47.9404 40.248 56.087H19.7518ZM43.6957 53.8662C32.874 44.8481 33.2797 45.0266 31.9566 44.559V42.3913C31.9566 41.3108 31.0806 40.4347 30 40.4347C28.9194 40.4347 28.0434 41.3107 28.0434 42.3913V44.5591C26.707 45.0314 27.0948 44.8743 16.3043 53.8663V45.6521C16.3043 38.7647 21.4151 33.0491 28.0434 32.0968V34.5652C28.0434 35.6456 28.9194 36.5217 30 36.5217C31.0806 36.5217 31.9566 35.6457 31.9566 34.5652V32.0968C38.5849 33.0491 43.6957 38.7647 43.6957 45.6521V53.8662Z" fill="#4361EE"/>
</svg>
