<svg width="70" height="70" viewBox="0 0 70 70" fill="none" xmlns="http://www.w3.org/2000/svg">
<path d="M0 35C0 15.67 15.67 0 35 0C54.33 0 70 15.67 70 35C70 54.33 54.33 70 35 70C15.67 70 0 54.33 0 35Z" fill="#E8F2FC"/>
<g clip-path="url(#clip0_2678_13099)">
<path fill-rule="evenodd" clip-rule="evenodd" d="M16.25 36.5833V20.8333C16.25 18.3017 18.3017 16.25 20.8333 16.25H49.1667C51.6983 16.25 53.75 18.3017 53.75 20.8333V49.1667C53.75 51.6983 51.6983 53.75 49.1667 53.75H33.4167C33.4733 53.6967 33.53 53.6417 33.5867 53.5867C34.2517 52.92 34.7517 52.12 35.06 51.25H49.1667C50.3167 51.25 51.25 50.3167 51.25 49.1667V20.8333C51.25 19.6833 50.3167 18.75 49.1667 18.75H20.8333C19.6833 18.75 18.75 19.6833 18.75 20.8333V34.94C17.88 35.2483 17.08 35.7483 16.4133 36.4133C16.3583 36.47 16.3033 36.5267 16.25 36.5833Z" fill="#4361EE"/>
<path fill-rule="evenodd" clip-rule="evenodd" d="M29.1667 36.25C30.3817 36.25 31.5483 36.7333 32.4083 37.5917C33.2667 38.4517 33.75 39.6183 33.75 40.8333V49.1667C33.75 50.3817 33.2667 51.5483 32.4083 52.4083C31.5483 53.2667 30.3817 53.75 29.1667 53.75H20.8333C19.6183 53.75 18.4517 53.2667 17.5917 52.4083C16.7333 51.5483 16.25 50.3817 16.25 49.1667V40.8333C16.25 39.6183 16.7333 38.4517 17.5917 37.5917C18.4517 36.7333 19.6183 36.25 20.8333 36.25H29.1667Z" fill="#4361EE"/>
<path fill-rule="evenodd" clip-rule="evenodd" d="M35.8833 35.8832C35.3967 36.3716 34.6033 36.3716 34.1167 35.8832C33.6283 35.3966 33.6283 34.6032 34.1167 34.1166L42.45 25.7832C42.9367 25.2949 43.73 25.2949 44.2167 25.7832C44.705 26.2699 44.705 27.0632 44.2167 27.5499L35.8833 35.8832Z" fill="#4361EE"/>
<path fill-rule="evenodd" clip-rule="evenodd" d="M37.5 27.0833C36.81 27.0833 36.25 26.5233 36.25 25.8333C36.25 25.1433 36.81 24.5833 37.5 24.5833H44.1667C44.8567 24.5833 45.4167 25.1433 45.4167 25.8333V32.4999C45.4167 33.1899 44.8567 33.7499 44.1667 33.7499C43.4767 33.7499 42.9167 33.1899 42.9167 32.4999V27.0833H37.5Z" fill="#4361EE"/>
</g>
<defs>
<clipPath id="clip0_2678_13099">
<rect width="40" height="40" fill="white" transform="translate(15 15)"/>
</clipPath>
</defs>
</svg>
