<svg width="176" height="51" viewBox="0 0 176 51" fill="none" xmlns="http://www.w3.org/2000/svg">
<path d="M38.4625 36.5567C44.5137 29.3673 45.5203 18.9009 40.708 13.1844C35.8957 7.46791 27.0919 8.6646 21.0407 15.8539C14.9895 23.0433 16.7395 36.7868 18.7952 39.2262C20.4561 41.2007 32.4113 43.746 38.4625 36.5567Z" fill="#F89939"/>
<path d="M13.2755 26.4978C9.73785 22.342 4.5894 21.6494 1.77725 24.952C-1.0349 28.2593 -0.445944 34.3095 3.09167 38.4654C6.62928 42.6258 13.3886 41.4194 14.5899 40.0112C15.5611 38.869 16.817 30.6537 13.2755 26.4978Z" fill="#3499CD"/>
<path d="M48.3604 35.5156C48.1318 35.5156 48.0175 35.3545 48.0175 35.0276C48.0175 34.7837 48.1554 34.2497 48.4274 33.4349C48.8255 32.2427 49.0265 31.3865 49.0265 30.8663C49.0265 30.5533 48.9477 30.2909 48.79 30.0838C48.6323 29.8766 48.4353 29.7708 48.1988 29.7708C47.852 29.7708 47.4539 29.9595 47.0046 30.3416C46.5552 30.7236 45.9522 31.4095 45.1915 32.4038C45.3019 31.7594 45.5384 30.8755 45.8931 29.7523L44.1944 30.1344C43.8081 31.1103 43.5283 31.9895 43.3549 32.7721C43.2681 33.1541 43.2051 33.55 43.1617 33.9505C42.6296 34.5535 42.2828 34.9172 42.133 35.0507C41.9793 35.1841 41.8177 35.2486 41.6522 35.2486C41.4985 35.2486 41.3763 35.1795 41.2856 35.0461C41.195 34.9126 41.1516 34.7284 41.1516 34.5029C41.1516 34.2589 41.191 33.9781 41.2699 33.6605C41.3487 33.3429 41.5221 32.7444 41.7941 31.8652L42.4405 29.7846L41.8059 29.8168C41.2305 31.0965 40.5565 31.787 39.784 31.8836C39.9929 31.2484 40.0993 30.7605 40.0993 30.4198C40.0993 29.9871 39.918 29.7708 39.5554 29.7708C39.1258 29.7708 38.7908 30.0055 38.5503 30.4797C38.306 30.9538 38.1838 31.4003 38.1838 31.8192C38.1838 32.2381 38.3848 32.5327 38.7829 32.7398C38.5227 33.1864 38.2311 33.6052 37.9158 34.0011C37.5413 34.4338 37.2497 34.7653 37.0368 34.9816C36.8201 35.2072 36.6191 35.3176 36.4378 35.3176C36.154 35.3176 36.0121 35.0829 36.0121 34.618C36.0121 34.153 36.1697 33.3521 36.4851 32.1552L37.0999 29.7708H36.7097L35.2869 30.6914C35.0543 30.07 34.6484 29.7569 34.069 29.7569C33.6079 29.7569 33.0797 29.9871 32.4806 30.4428C31.8815 30.8986 31.3889 31.4924 31.0066 32.2335C30.711 32.8043 30.5297 33.4027 30.4627 34.0195C29.9266 34.6456 29.5246 35.0507 29.2566 35.2394C28.9768 35.4327 28.6851 35.5294 28.3777 35.5294C27.5933 35.5294 27.1085 35 26.9233 33.9413C28.9689 33.2416 29.9897 32.3302 29.9897 31.207C29.9897 30.7835 29.8596 30.4428 29.5995 30.1804C29.3394 29.9181 28.9925 29.7892 28.5629 29.7892C27.7313 29.7892 26.9745 30.2541 26.2927 31.1839C25.6739 32.0263 25.3389 32.9608 25.2798 33.9873C24.7161 34.6364 24.2905 35.0645 24.0146 35.2716C23.7308 35.4834 23.4628 35.5892 23.2145 35.5892C22.9662 35.5892 22.7691 35.4511 22.6233 35.1749C22.4735 34.8987 22.3986 34.5259 22.3986 34.0518C22.3986 33.84 22.4183 33.4533 22.4538 32.8871C23.384 31.7087 24.0658 30.6039 24.5033 29.5682C24.9408 28.5325 25.1576 27.4599 25.1576 26.3552C25.1576 25.9639 25.1142 25.6555 25.0275 25.4253C24.9408 25.1952 24.8304 25.0801 24.6964 25.0801C24.6688 25.0801 24.6255 25.0893 24.5703 25.1123L22.8006 25.8764C22.1976 27.2206 21.6813 28.689 21.2596 30.2863C20.8378 31.879 20.625 33.2462 20.625 34.3832C20.625 35.1427 20.7748 35.7457 21.0822 36.1969C21.3857 36.648 21.7877 36.8735 22.2843 36.8735C22.7179 36.8735 23.1711 36.7124 23.648 36.3902C24.1249 36.068 24.6767 35.5662 25.3113 34.8895C25.9458 34.2129 25.3113 34.8803 25.3113 34.8803C25.3862 35.3913 25.5675 35.8194 25.8513 36.1692C26.2414 36.6388 26.7499 36.8781 27.3805 36.8781C27.9481 36.8781 28.4644 36.717 28.9334 36.3948C29.3867 36.0864 29.8951 35.603 30.4627 34.9632C30.5099 35.4419 30.644 35.8562 30.8686 36.2107C31.1563 36.6572 31.5032 36.8827 31.9091 36.8827C32.3151 36.8827 32.7329 36.6986 33.127 36.3303C33.5211 35.9621 33.9468 35.3867 34.4119 34.6133C34.3685 36.1278 34.7154 36.8827 35.4485 36.8827C35.7401 36.8827 36.0476 36.7584 36.3668 36.5099C36.6861 36.2613 37.2182 35.7227 37.9631 34.8987C38.6095 34.153 39.0824 33.4533 39.3859 32.7997C39.7958 32.7168 40.1702 32.5741 40.5131 32.367C39.8116 33.6513 39.4608 34.6778 39.4608 35.4419C39.4608 35.8562 39.5593 36.2015 39.7524 36.4777C39.9456 36.7538 40.186 36.8965 40.4698 36.8965C41.0886 36.8965 41.9675 36.2475 43.1026 34.9632C43.1026 35.0645 43.0947 35.1611 43.0947 35.2624C43.0947 35.6215 43.1223 36.1646 43.1696 36.8965L44.7107 36.4731C44.7107 35.9851 44.7186 35.5984 44.7304 35.3084C44.754 34.9218 44.8013 34.4983 44.8683 34.0379C44.9117 33.7664 45.0181 33.5086 45.1876 33.2646L45.5778 32.7352C45.7197 32.5419 45.8576 32.367 45.9798 32.2151C46.1256 32.0355 46.2557 31.8836 46.37 31.7593C46.5001 31.6259 46.6144 31.5154 46.7129 31.4417C46.8193 31.3681 46.906 31.3266 46.9691 31.3266C47.0834 31.3266 47.1425 31.4141 47.1425 31.589C47.1425 31.764 47.0322 32.169 46.8154 32.8089C46.4055 34.0011 46.2005 34.8895 46.2005 35.4695C46.2005 35.8976 46.2951 36.2383 46.4882 36.4961C46.6774 36.7492 46.9297 36.8781 47.241 36.8781C48.0057 36.8781 48.9279 36.2153 50 34.8941V33.9597C49.2393 35.0046 48.6915 35.5294 48.3525 35.5294L48.3604 35.5156ZM22.639 31.6995C22.9543 29.8997 23.2775 28.5049 23.6047 27.506C23.9318 26.5071 24.1841 26.0053 24.3535 26.0053C24.4324 26.0053 24.4994 26.0652 24.5506 26.1895C24.6018 26.3091 24.6255 26.4749 24.6255 26.6728C24.6255 27.3587 24.4442 28.1734 24.0737 29.1263C23.7071 30.0746 23.2263 30.9354 22.639 31.6995ZM27.2859 31.2484C27.5657 30.7006 27.8574 30.429 28.1648 30.429C28.488 30.429 28.6536 30.6914 28.6536 31.2116C28.6536 32.2657 28.0584 32.9838 26.8681 33.3751C26.8681 32.5005 27.0061 31.7916 27.2859 31.2484ZM34.1754 33.9413C33.7655 34.8665 33.3241 35.3268 32.8629 35.3268C32.6738 35.3268 32.5161 35.2348 32.3939 35.0553C32.2717 34.8757 32.2087 34.6364 32.2087 34.3418C32.2087 33.5684 32.4176 32.7168 32.8314 31.7962C33.2453 30.8755 33.6867 30.4152 34.1518 30.4152C34.3449 30.4152 34.5025 30.4981 34.6168 30.673C34.7311 30.8433 34.7903 31.0827 34.7903 31.3865C34.7903 32.169 34.5853 33.0206 34.1754 33.9459V33.9413Z" fill="#010101"/>
<path d="M29.2581 26.0764C29.3185 26.176 29.3468 26.3042 29.3468 26.4561C29.3468 26.6079 29.3105 26.7456 29.2379 26.8737C29.1653 27.0019 29.0605 27.1063 28.9194 27.1775C28.7823 27.2487 28.625 27.2867 28.4516 27.2867C28.1613 27.2867 27.9435 27.2155 27.7903 27.0731C27.6371 26.9307 27.5403 26.7219 27.5 26.4418L27.875 26.3706C27.8952 26.5462 27.9556 26.6839 28.0484 26.7741C28.1452 26.869 28.2782 26.9165 28.4516 26.9165C28.625 26.9165 28.754 26.8737 28.8387 26.7931C28.9234 26.7124 28.9637 26.6127 28.9637 26.4988C28.9637 26.3991 28.9274 26.3184 28.8508 26.2615C28.7984 26.2235 28.6694 26.1713 28.4637 26.1096C28.1855 26.0289 27.996 25.9577 27.8871 25.896C27.7782 25.8343 27.6976 25.7536 27.6452 25.6444C27.5927 25.5353 27.5605 25.4214 27.5605 25.2932C27.5605 25.1746 27.5847 25.0701 27.629 24.9705C27.6734 24.8708 27.7379 24.7901 27.8145 24.7237C27.875 24.6714 27.9516 24.6287 28.0524 24.5955C28.1532 24.5623 28.2621 24.5433 28.379 24.5433C28.5524 24.5433 28.7056 24.5718 28.8387 24.6335C28.9718 24.6904 29.0685 24.7711 29.1331 24.8755C29.1976 24.9752 29.2379 25.1128 29.2621 25.2837L28.8911 25.3407C28.875 25.2078 28.8266 25.0986 28.746 25.0227C28.6653 24.9467 28.5524 24.9088 28.4032 24.9088C28.2298 24.9088 28.1048 24.942 28.0323 25.0084C27.9597 25.0749 27.9194 25.1556 27.9194 25.2457C27.9194 25.3027 27.9355 25.3549 27.9637 25.4024C27.996 25.4498 28.0444 25.4878 28.1089 25.521C28.1452 25.5353 28.2581 25.5732 28.4435 25.6349C28.7097 25.7204 28.8952 25.7868 29.004 25.839C29.1089 25.8912 29.1935 25.9719 29.254 26.0716L29.2581 26.0764ZM31.0605 26.7598C30.9597 26.869 30.8387 26.9212 30.6895 26.9212C30.504 26.9212 30.3548 26.8405 30.2419 26.6839C30.129 26.5273 30.0685 26.2662 30.0685 25.915C30.0685 25.5638 30.129 25.3122 30.246 25.1556C30.3629 24.9989 30.5202 24.9135 30.7097 24.9135C30.8347 24.9135 30.9435 24.9562 31.0323 25.0464C31.121 25.1366 31.1815 25.2695 31.2177 25.4451L31.5847 25.3786C31.5403 25.1129 31.4435 24.9088 31.2903 24.7664C31.1371 24.624 30.9395 24.5528 30.6976 24.5528C30.504 24.5528 30.3306 24.605 30.1653 24.7142C30.004 24.8186 29.879 24.98 29.8024 25.1935C29.7218 25.4071 29.6815 25.6539 29.6815 25.9387C29.6815 26.3754 29.7742 26.7124 29.9597 26.9449C30.1452 27.1775 30.3911 27.2962 30.6935 27.2962C30.9355 27.2962 31.1411 27.2107 31.3105 27.0399C31.4758 26.869 31.5806 26.6317 31.621 26.3327L31.25 26.2757C31.2218 26.4988 31.1613 26.6602 31.0605 26.7693V26.7598ZM31.9435 27.225H32.3226V24.605H31.9435V27.225ZM31.9435 24.1161H32.3226V23.6035H31.9435V24.1161ZM34.6573 24.6002H34.1694L33.2742 25.6682V23.6035H32.8952V27.2202H33.2742V26.1808L33.5403 25.8818L34.2782 27.2202H34.746L33.8064 25.5732L34.6573 24.6002ZM35.0444 24.1161H35.4234V23.6035H35.0444V24.1161ZM35.0444 27.225H35.4234V24.605H35.0444V27.225ZM36.8226 26.8263C36.754 26.8358 36.6976 26.8453 36.6573 26.8453C36.6008 26.8453 36.5564 26.8358 36.5282 26.812C36.5 26.7883 36.4758 26.7598 36.4637 26.7266C36.4516 26.6886 36.4435 26.6079 36.4435 26.4845V24.9515H36.8226V24.605H36.4435V23.6889L36.0685 23.9547V24.605H35.7903V24.9515H36.0685V26.4608C36.0685 26.7266 36.0847 26.9022 36.1129 26.9829C36.1452 27.0683 36.1976 27.1348 36.2702 27.1823C36.3468 27.2345 36.4516 27.2582 36.5887 27.2582C36.6734 27.2582 36.7661 27.244 36.875 27.2202L36.8185 26.8263H36.8226Z" fill="white"/>
<path d="M79.7159 21.878C79.6307 21.1583 79.285 20.5996 78.679 20.2019C78.0729 19.8042 77.3295 19.6053 76.4489 19.6053C75.8049 19.6053 75.2415 19.7095 74.7585 19.9178C74.2803 20.1261 73.9063 20.4126 73.6364 20.7772C73.3712 21.1417 73.2386 21.556 73.2386 22.0201C73.2386 22.4083 73.331 22.7421 73.5156 23.0215C73.705 23.2961 73.9465 23.5257 74.2401 23.7104C74.5336 23.8903 74.8414 24.0395 75.1634 24.1578C75.4853 24.2715 75.7812 24.3638 76.0511 24.4348L77.5284 24.8326C77.9072 24.932 78.3286 25.0693 78.7926 25.2445C79.2614 25.4197 79.7088 25.6588 80.1349 25.9618C80.5658 26.2601 80.9209 26.6436 81.2003 27.1124C81.4796 27.5811 81.6193 28.1564 81.6193 28.8382C81.6193 29.6242 81.4134 30.3345 81.0014 30.9689C80.5942 31.6034 79.9976 32.1077 79.2116 32.4817C78.4304 32.8558 77.4811 33.0428 76.3636 33.0428C75.322 33.0428 74.42 32.8747 73.6577 32.5385C72.9001 32.2024 72.3035 31.7336 71.8679 31.1323C71.437 30.531 71.1932 29.8326 71.1364 29.0371H72.9545C73.0019 29.5864 73.1866 30.0409 73.5085 30.4007C73.8352 30.7559 74.2472 31.021 74.7443 31.1962C75.2462 31.3667 75.786 31.4519 76.3636 31.4519C77.036 31.4519 77.6397 31.343 78.1747 31.1252C78.7098 30.9026 79.1335 30.5949 79.446 30.2019C79.7585 29.8042 79.9148 29.3401 79.9148 28.8098C79.9148 28.3269 79.7798 27.9339 79.5099 27.6309C79.2401 27.3278 78.8849 27.0816 78.4446 26.8922C78.0043 26.7028 77.5284 26.5371 77.017 26.3951L75.2273 25.8837C74.0909 25.557 73.1913 25.0906 72.5284 24.4846C71.8655 23.8785 71.5341 23.0854 71.5341 22.1053C71.5341 21.2909 71.7543 20.5807 72.1946 19.9746C72.6397 19.3638 73.2363 18.8903 73.9844 18.5542C74.7372 18.2132 75.5777 18.0428 76.5057 18.0428C77.4432 18.0428 78.2765 18.2109 79.0057 18.5471C79.7348 18.8785 80.3125 19.333 80.7386 19.9107C81.1695 20.4883 81.3968 21.1441 81.4205 21.878H79.7159ZM88.7198 33.0144C87.6971 33.0144 86.8164 32.7729 86.0778 32.29C85.3391 31.807 84.771 31.1417 84.3732 30.2942C83.9755 29.4467 83.7766 28.4784 83.7766 27.3894C83.7766 26.2814 83.9802 25.3037 84.3874 24.4561C84.7994 23.6039 85.3723 22.9386 86.1062 22.4604C86.8448 21.9775 87.7066 21.736 88.6914 21.736C89.4585 21.736 90.1497 21.878 90.7653 22.1621C91.3808 22.4462 91.8851 22.8439 92.2781 23.3553C92.671 23.8667 92.9149 24.4632 93.0096 25.1451H91.3335C91.2056 24.6479 90.9215 24.2076 90.4812 23.824C90.0456 23.4358 89.4585 23.2417 88.7198 23.2417C88.0664 23.2417 87.4935 23.4121 87.0011 23.753C86.5134 24.0892 86.1322 24.565 85.8576 25.1806C85.5877 25.7914 85.4528 26.5087 85.4528 27.3326C85.4528 28.1754 85.5853 28.9093 85.8505 29.5343C86.1204 30.1593 86.4992 30.6446 86.9869 30.9902C87.4793 31.3359 88.0569 31.5087 88.7198 31.5087C89.1554 31.5087 89.5508 31.4329 89.9059 31.2814C90.261 31.1299 90.5617 30.9121 90.8079 30.628C91.0541 30.3439 91.2293 30.003 91.3335 29.6053H93.0096C92.9149 30.2492 92.6805 30.8292 92.3065 31.3453C91.9371 31.8567 91.4471 32.2639 90.8363 32.5669C90.2302 32.8652 89.5247 33.0144 88.7198 33.0144ZM95.4599 32.7871V21.878H97.136V32.7871H95.4599ZM96.3121 20.0598C95.9854 20.0598 95.7037 19.9486 95.467 19.726C95.235 19.5035 95.119 19.236 95.119 18.9235C95.119 18.611 95.235 18.3435 95.467 18.1209C95.7037 17.8984 95.9854 17.7871 96.3121 17.7871C96.6388 17.7871 96.9182 17.8984 97.1502 18.1209C97.387 18.3435 97.5053 18.611 97.5053 18.9235C97.5053 19.236 97.387 19.5035 97.1502 19.726C96.9182 19.9486 96.6388 20.0598 96.3121 20.0598ZM101.768 28.8098L101.74 26.736H102.081L106.854 21.878H108.928L103.842 27.0201H103.7L101.768 28.8098ZM100.206 32.7871V18.2417H101.882V32.7871H100.206ZM107.138 32.7871L102.876 27.3894L104.07 26.2246L109.268 32.7871H107.138ZM111.085 32.7871V21.878H112.761V32.7871H111.085ZM111.937 20.0598C111.61 20.0598 111.329 19.9486 111.092 19.726C110.86 19.5035 110.744 19.236 110.744 18.9235C110.744 18.611 110.86 18.3435 111.092 18.1209C111.329 17.8984 111.61 17.7871 111.937 17.7871C112.264 17.7871 112.543 17.8984 112.775 18.1209C113.012 18.3435 113.13 18.611 113.13 18.9235C113.13 19.236 113.012 19.5035 112.775 19.726C112.543 19.9486 112.264 20.0598 111.937 20.0598ZM120.575 21.878V23.2985H114.922V21.878H120.575ZM116.57 19.2644H118.246V29.6621C118.246 30.1356 118.314 30.4907 118.452 30.7275C118.594 30.9595 118.774 31.1157 118.991 31.1962C119.214 31.272 119.448 31.3098 119.695 31.3098C119.879 31.3098 120.031 31.3004 120.149 31.2814C120.268 31.2578 120.362 31.2388 120.433 31.2246L120.774 32.7303C120.661 32.7729 120.502 32.8155 120.298 32.8581C120.095 32.9055 119.837 32.9292 119.524 32.9292C119.051 32.9292 118.587 32.8274 118.132 32.6238C117.682 32.4202 117.308 32.11 117.01 31.6934C116.716 31.2767 116.57 30.7511 116.57 30.1167V19.2644ZM128.956 25.7701V27.3326H122.592V25.7701H128.956ZM133.581 18.2417V32.7871H131.905V18.2417H133.581ZM141.225 33.0144C140.174 33.0144 139.267 32.7824 138.505 32.3184C137.747 31.8496 137.163 31.1962 136.751 30.3581C136.344 29.5153 136.14 28.5352 136.14 27.4178C136.14 26.3004 136.344 25.3155 136.751 24.4632C137.163 23.6062 137.736 22.9386 138.469 22.4604C139.208 21.9775 140.07 21.736 141.055 21.736C141.623 21.736 142.184 21.8307 142.738 22.0201C143.292 22.2095 143.796 22.5172 144.251 22.9434C144.705 23.3648 145.067 23.9235 145.337 24.6195C145.607 25.3155 145.742 26.1725 145.742 27.1905V27.9007H137.333V26.4519H144.038C144.038 25.8364 143.915 25.2871 143.668 24.8042C143.427 24.3212 143.081 23.94 142.631 23.6607C142.186 23.3813 141.661 23.2417 141.055 23.2417C140.387 23.2417 139.809 23.4074 139.322 23.7388C138.839 24.0655 138.467 24.4917 138.207 25.0172C137.946 25.5428 137.816 26.1062 137.816 26.7076V27.6735C137.816 28.4973 137.958 29.1957 138.242 29.7686C138.531 30.3368 138.931 30.7701 139.442 31.0684C139.954 31.3619 140.548 31.5087 141.225 31.5087C141.665 31.5087 142.063 31.4471 142.418 31.324C142.778 31.1962 143.088 31.0068 143.349 30.7559C143.609 30.5002 143.81 30.1829 143.952 29.8042L145.572 30.2587C145.401 30.8079 145.115 31.2909 144.712 31.7076C144.31 32.1195 143.813 32.4415 143.221 32.6735C142.629 32.9007 141.964 33.0144 141.225 33.0144ZM151.502 33.0428C150.811 33.0428 150.183 32.9126 149.62 32.6522C149.057 32.387 148.609 32.0059 148.278 31.5087C147.946 31.0068 147.781 30.4007 147.781 29.6905C147.781 29.0655 147.904 28.5589 148.15 28.1706C148.396 27.7776 148.725 27.4699 149.137 27.2473C149.549 27.0248 150.004 26.8591 150.501 26.7502C151.003 26.6365 151.507 26.5466 152.013 26.4803C152.676 26.3951 153.214 26.3311 153.626 26.2885C154.042 26.2412 154.345 26.1631 154.535 26.0542C154.729 25.9453 154.826 25.7559 154.826 25.486V25.4292C154.826 24.7284 154.634 24.1839 154.251 23.7956C153.872 23.4074 153.297 23.2132 152.525 23.2132C151.725 23.2132 151.097 23.3884 150.643 23.7388C150.188 24.0892 149.869 24.4632 149.684 24.861L148.093 24.2928C148.377 23.6299 148.756 23.1138 149.229 22.7445C149.708 22.3704 150.228 22.11 150.792 21.9632C151.36 21.8117 151.919 21.736 152.468 21.736C152.818 21.736 153.221 21.7786 153.675 21.8638C154.135 21.9443 154.577 22.1124 155.004 22.3681C155.434 22.6238 155.792 23.0096 156.076 23.5257C156.36 24.0418 156.502 24.7331 156.502 25.5996V32.7871H154.826V31.3098H154.741C154.627 31.5466 154.438 31.7999 154.173 32.0698C153.907 32.3397 153.555 32.5693 153.114 32.7587C152.674 32.9481 152.137 33.0428 151.502 33.0428ZM151.758 31.5371C152.421 31.5371 152.979 31.4069 153.434 31.1465C153.893 30.8861 154.239 30.5499 154.471 30.138C154.708 29.726 154.826 29.2928 154.826 28.8382V27.3042C154.755 27.3894 154.599 27.4675 154.357 27.5385C154.121 27.6048 153.846 27.664 153.533 27.7161C153.226 27.7634 152.925 27.806 152.631 27.8439C152.343 27.8771 152.108 27.9055 151.928 27.9292C151.493 27.986 151.085 28.0783 150.707 28.2061C150.333 28.3292 150.03 28.5163 149.798 28.7672C149.57 29.0134 149.457 29.3496 149.457 29.7757C149.457 30.3581 149.672 30.7985 150.103 31.0968C150.539 31.3903 151.09 31.5371 151.758 31.5371ZM159.561 32.7871V21.878H161.181V23.5257H161.294C161.493 22.986 161.853 22.548 162.374 22.2118C162.895 21.8757 163.482 21.7076 164.135 21.7076C164.258 21.7076 164.412 21.7099 164.597 21.7147C164.782 21.7194 164.921 21.7265 165.016 21.736V23.4405C164.959 23.4263 164.829 23.405 164.625 23.3766C164.426 23.3435 164.216 23.3269 163.993 23.3269C163.463 23.3269 162.989 23.4382 162.573 23.6607C162.161 23.8785 161.834 24.1815 161.593 24.5698C161.356 24.9533 161.238 25.3913 161.238 25.8837V32.7871H159.561ZM168.679 26.2246V32.7871H167.003V21.878H168.622V23.5826H168.764C169.02 23.0286 169.408 22.5835 169.929 22.2473C170.45 21.9064 171.122 21.736 171.946 21.736C172.685 21.736 173.331 21.8875 173.885 22.1905C174.439 22.4888 174.87 22.9434 175.178 23.5542C175.485 24.1602 175.639 24.9273 175.639 25.8553V32.7871H173.963V25.9689C173.963 25.1119 173.741 24.4443 173.295 23.9661C172.85 23.4831 172.24 23.2417 171.463 23.2417C170.928 23.2417 170.45 23.3577 170.028 23.5897C169.612 23.8217 169.283 24.1602 169.041 24.6053C168.8 25.0504 168.679 25.5901 168.679 26.2246Z" fill="white"/>
</svg>
