<svg width="80" height="80" viewBox="0 0 80 80" fill="none" xmlns="http://www.w3.org/2000/svg">
<path d="M0 37.1014C0 19.6117 0 10.8668 5.43338 5.43338C10.8668 0 19.6117 0 37.1014 0H42.9C60.3898 0 69.1347 0 74.5681 5.43338C80.0014 10.8668 80.0014 19.6117 80.0014 37.1014V42.9C80.0014 60.3898 80.0014 69.1347 74.5681 74.5681C69.1347 80.0014 60.3898 80.0014 42.9 80.0014H37.1014C19.6117 80.0014 10.8668 80.0014 5.43338 74.5681C0 69.1347 0 60.3898 0 42.9V37.1014Z" fill="#1B1D1E"/>
<g clip-path="url(#clip0_11783_37820)">
<rect x="18.0078" y="18.5508" width="43.9868" height="43.9868" rx="10.296" fill="#A4C639"/>
<path d="M35.5686 26.8448C35.4422 26.8459 35.311 26.8757 35.1915 26.9403C34.8119 27.1455 34.6727 27.6212 34.883 27.9911L35.74 29.5005C33.6751 30.7466 32.3068 32.8749 32.3068 35.3041C32.3068 35.3143 32.3068 35.3296 32.3068 35.3447C32.3069 35.35 32.3068 35.353 32.3068 35.359C32.3068 35.3669 32.3068 35.3785 32.3068 35.3805V35.7555C31.9103 35.3104 31.3273 35.0294 30.6759 35.0294C29.4827 35.0294 28.5137 35.9745 28.5137 37.1383V43.6344C28.5137 44.7982 29.4827 45.7433 30.6759 45.7433C31.3273 45.7433 31.9103 45.4622 32.3068 45.0172V45.9272C32.3068 47.154 33.3361 48.1578 34.594 48.1578H35.1744V51.0476C35.1744 52.2115 36.1434 53.1565 37.3366 53.1565C38.5299 53.1565 39.4989 52.2115 39.4989 51.0476V48.1578H40.5029V51.0476C40.5029 52.2115 41.4719 53.1565 42.6652 53.1565C43.8585 53.1565 44.8275 52.2115 44.8275 51.0476V48.1578H45.4079C46.6657 48.1578 47.695 47.154 47.695 45.9272V45.0172C48.0916 45.4622 48.6746 45.7433 49.3259 45.7433C50.5192 45.7433 51.4882 44.7982 51.4882 43.6344V37.1383C51.4882 35.9745 50.5192 35.0294 49.3259 35.0294C48.6746 35.0294 48.0916 35.3104 47.695 35.7555V35.3877V35.3805C47.6951 35.369 47.695 35.3576 47.695 35.359C47.6952 35.3361 47.695 35.3179 47.695 35.3041C47.695 32.8754 46.3237 30.7491 44.2594 29.5029L45.1189 27.9911C45.3291 27.6212 45.1899 27.1455 44.8103 26.9403C44.6908 26.8757 44.5596 26.8459 44.4332 26.8448C44.1529 26.8421 43.8778 26.9862 43.7329 27.2412L42.8342 28.8247C41.9554 28.5084 40.9993 28.3351 40.0009 28.3351C39.0036 28.3351 38.0457 28.5066 37.1677 28.8223L36.269 27.2412C36.1241 26.9862 35.8489 26.8422 35.5686 26.8448Z" fill="white"/>
<path d="M30.6752 35.5791C29.7847 35.5791 29.0762 36.2702 29.0762 37.1387V43.6348C29.0762 44.5033 29.7847 45.1943 30.6752 45.1943C31.5657 45.1943 32.2743 44.5033 32.2743 43.6348V37.1387C32.2743 36.2702 31.5657 35.5791 30.6752 35.5791ZM49.3252 35.5791C48.4347 35.5791 47.7261 36.2702 47.7261 37.1387V43.6348C47.7261 44.5033 48.4347 45.1943 49.3252 45.1943C50.2157 45.1943 50.9242 44.5033 50.9242 43.6348V37.1387C50.9242 36.2702 50.2157 35.5791 49.3252 35.5791Z" fill="white"/>
<path d="M37.3373 42.9922C36.4469 42.9922 35.7383 43.6833 35.7383 44.5517V51.0479C35.7383 51.9164 36.4469 52.6074 37.3373 52.6074C38.2278 52.6074 38.9364 51.9164 38.9364 51.0479V44.5517C38.9364 43.6833 38.2278 42.9922 37.3373 42.9922ZM42.6659 42.9922C41.7754 42.9922 41.0668 43.6833 41.0668 44.5517V51.0479C41.0668 51.9164 41.7754 52.6074 42.6659 52.6074C43.5564 52.6074 44.265 51.9164 44.265 51.0479V44.5517C44.265 43.6833 43.5564 42.9922 42.6659 42.9922Z" fill="white"/>
<path d="M35.5746 27.3945C35.5368 27.3949 35.5015 27.4044 35.4668 27.4232C35.3528 27.4848 35.3153 27.6126 35.3787 27.7241L36.5051 29.7088C34.3379 30.8086 32.874 32.8987 32.8711 35.2974H47.1328C47.1299 32.8987 45.6661 30.8086 43.4988 29.7088L44.6253 27.7241C44.6886 27.6126 44.6511 27.4848 44.5371 27.4232C44.5024 27.4044 44.4672 27.3949 44.4294 27.3945C44.3484 27.3938 44.2717 27.4332 44.2286 27.5092L43.0874 29.5153C42.1539 29.1115 41.1069 28.8848 40.002 28.8848C38.897 28.8848 37.85 29.1115 36.9165 29.5153L35.7754 27.5092C35.7322 27.4332 35.6555 27.3938 35.5746 27.3945ZM32.8711 35.8467V45.9276C32.8711 46.8591 33.64 47.609 34.595 47.609H45.4089C46.3639 47.609 47.1328 46.8591 47.1328 45.9276V35.8467H32.8711Z" fill="white"/>
<path d="M36.7103 31.5908C36.3847 31.5908 36.1152 31.8536 36.1152 32.1712C36.1152 32.4887 36.3847 32.7515 36.7103 32.7515C37.0359 32.7515 37.3053 32.4887 37.3053 32.1712C37.3053 31.8536 37.0359 31.5908 36.7103 31.5908ZM43.2926 31.5908C42.9671 31.5908 42.6976 31.8536 42.6976 32.1712C42.6976 32.4887 42.9671 32.7515 43.2926 32.7515C43.6182 32.7515 43.8877 32.4887 43.8877 32.1712C43.8877 31.8536 43.6182 31.5908 43.2926 31.5908Z" fill="#A4C639"/>
</g>
<defs>
<clipPath id="clip0_11783_37820">
<rect width="42.9" height="42.9" fill="white" transform="translate(18.5508 18.5508)"/>
</clipPath>
</defs>
</svg>
