<svg width="100" height="100" viewBox="0 0 100 100" fill="none" xmlns="http://www.w3.org/2000/svg">
<path d="M100 50C100 77.6142 77.6142 100 50 100C22.3858 100 0 77.6142 0 50C0 22.3858 22.3858 0 50 0C77.6142 0 100 22.3858 100 50Z" fill="#FF5D00" fill-opacity="0.1"/>
<path fill-rule="evenodd" clip-rule="evenodd" d="M42.0904 67.2961C38.9461 67.2961 34.7233 65.6913 32.5808 63.0572C22.3108 63.0572 22 77 22 77H61.9869C61.9869 77 62.7913 63 51.2489 63C49.1137 65.6628 45.2419 67.2961 42.0904 67.2961Z" fill="#FF5D00"/>
<path fill-rule="evenodd" clip-rule="evenodd" d="M51 45.0488C51 49.4962 46.9721 58 42 58C37.0279 58 33 49.4962 33 45.0488C33 40.6084 37.0243 37 42 37C46.9721 37 51 40.6084 51 45.0488Z" fill="#FF5D00"/>
<path fill-rule="evenodd" clip-rule="evenodd" d="M63.9981 24C56.8249 24 51 28.324 51 33.6711C51 38.5478 55.8597 42.5656 62.1579 43.2339L58.4549 50L68.8053 42.6477C73.6012 41.225 77 37.7449 77 33.6711C76.9962 28.324 71.1788 24 63.9981 24Z" fill="#FF5D00"/>
</svg>
