<svg width="100" height="100" viewBox="0 0 100 100" fill="none" xmlns="http://www.w3.org/2000/svg">
<path d="M100 50C100 77.6142 77.6142 100 50 100C22.3858 100 0 77.6142 0 50C0 22.3858 22.3858 0 50 0C77.6142 0 100 22.3858 100 50Z" fill="#FF5D00" fill-opacity="0.1"/>
<path d="M72.6845 21.152L47.6131 42.5091C47.5152 42.5922 47.4356 42.6946 47.3793 42.81C47.3229 42.9253 47.2912 43.0511 47.2859 43.1794C47.2807 43.3077 47.3021 43.4356 47.3488 43.5552C47.3956 43.6748 47.4666 43.7834 47.5574 43.8741L53.1288 49.4455C53.2156 49.5316 53.3185 49.5997 53.4316 49.6459C53.5447 49.6921 53.6659 49.7155 53.7881 49.7148C53.9159 49.7096 54.0413 49.6781 54.1563 49.6221C54.2714 49.5662 54.3736 49.4871 54.4567 49.3898L75.8138 24.3184C75.9669 24.1409 76.0471 23.9121 76.0385 23.6779C76.0299 23.4437 75.933 23.2213 75.7673 23.0556L73.9102 21.1984C73.7465 21.043 73.5317 20.9526 73.3061 20.944C73.0805 20.9355 72.8595 21.0094 72.6845 21.152Z" fill="#FB670F"/>
<path d="M37.0709 42.2863C38.6094 42.2863 39.8566 41.0391 39.8566 39.5006C39.8566 37.962 38.6094 36.7148 37.0709 36.7148C35.5324 36.7148 34.2852 37.962 34.2852 39.5006C34.2852 41.0391 35.5324 42.2863 37.0709 42.2863Z" fill="#FB670F"/>
<path d="M44.9723 48.6826C44.3492 48.4724 43.6796 48.4411 43.0395 48.5921C42.3994 48.7431 41.8144 49.0704 41.3509 49.5369L41.0073 49.8805C40.8055 50.0825 40.6921 50.3564 40.6921 50.6419C40.6921 50.9275 40.8055 51.2014 41.0073 51.4034C41.3604 51.7574 41.6172 52.1957 41.7533 52.6769C41.8893 53.158 41.9002 53.6659 41.7849 54.1524C41.6695 54.6389 41.4318 55.0879 41.0942 55.4567C40.7566 55.8255 40.3303 56.102 39.8559 56.2598L37.2188 57.1419L39.3637 57.8569C40.3787 58.1976 41.4512 58.3337 42.5191 58.2572C43.587 58.1807 44.6291 57.8931 45.5852 57.4112C46.4259 56.9935 47.1235 56.3353 47.5893 55.5203C48.0552 54.7053 48.2683 53.7702 48.2017 52.8338C48.135 51.8975 47.7915 51.002 47.2149 50.2612C46.6382 49.5204 45.8544 48.9678 44.963 48.6734L44.9723 48.6826Z" fill="#FB670F"/>
<path d="M43.572 32.9994C44.5977 32.9994 45.4291 32.168 45.4291 31.1423C45.4291 30.1166 44.5977 29.2852 43.572 29.2852C42.5463 29.2852 41.7148 30.1166 41.7148 31.1423C41.7148 32.168 42.5463 32.9994 43.572 32.9994Z" fill="#FB670F"/>
<path d="M55.903 50.6429C55.6497 50.9263 55.3411 51.1549 54.9961 51.3146C54.6512 51.4743 54.2772 51.5617 53.8972 51.5715H53.7858C53.0473 51.5708 52.3392 51.2769 51.8173 50.7543L46.2458 45.1829C45.9743 44.9114 45.7619 44.5868 45.6219 44.2293C45.4818 43.8718 45.4172 43.4892 45.432 43.1056C45.4468 42.7219 45.5408 42.3455 45.708 41.9999C45.8752 41.6542 46.1121 41.3469 46.4037 41.0972L64.0001 26.1101L63.8051 25.9151C61.9322 24.0336 59.7049 22.5421 57.2519 21.5269C54.799 20.5116 52.1691 19.9926 49.5144 20.0001C46.1079 19.9912 42.7547 20.8448 39.7671 22.4815C36.7796 24.1181 34.255 26.4845 32.4287 29.3601C27.5562 37.0253 24.9786 45.9245 25.0001 55.0072C25.0001 58.8355 26.2929 62.5517 28.6689 65.5535C31.0448 68.5552 34.3648 70.6668 38.0908 71.5459C41.8169 72.425 45.7306 72.0202 49.1977 70.397C52.6649 68.7738 55.4824 66.0275 57.1937 62.6029C57.4702 62.0522 57.8736 61.575 58.3706 61.2107C58.8676 60.8464 59.444 60.6053 60.0525 60.5074C60.6609 60.4095 61.2838 60.4575 61.8701 60.6474C62.4563 60.8374 62.989 61.1639 63.4244 61.6L64.2044 62.38C65.2524 63.4294 66.5882 64.1442 68.0427 64.4339C69.4972 64.7236 71.005 64.5752 72.3751 64.0075C73.7452 63.4397 74.916 62.4782 75.7394 61.2446C76.5627 60.0111 77.0014 58.561 77.0001 57.0779C77.0232 48.8268 74.6665 40.7442 70.2122 33.7986L55.903 50.6429ZM51.0001 23.7144C51.5511 23.7144 52.0897 23.8777 52.5478 24.1838C53.0059 24.4899 53.3629 24.925 53.5738 25.434C53.7846 25.943 53.8398 26.5032 53.7323 27.0435C53.6248 27.5839 53.3595 28.0803 52.9699 28.4699C52.5803 28.8595 52.0839 29.1248 51.5436 29.2323C51.0032 29.3397 50.4431 29.2846 49.9341 29.0737C49.425 28.8629 48.99 28.5058 48.6839 28.0477C48.3778 27.5896 48.2144 27.051 48.2144 26.5001C48.2144 25.7613 48.5079 25.0527 49.0303 24.5303C49.5527 24.0079 50.2613 23.7144 51.0001 23.7144ZM43.5715 27.4286C44.3062 27.4286 45.0243 27.6465 45.6351 28.0546C46.2459 28.4627 46.722 29.0428 47.0031 29.7215C47.2842 30.4002 47.3578 31.147 47.2145 31.8675C47.0711 32.588 46.7174 33.2499 46.1979 33.7693C45.6785 34.2888 45.0167 34.6425 44.2962 34.7858C43.5757 34.9292 42.8288 34.8556 42.1502 34.5745C41.4715 34.2933 40.8914 33.8173 40.4832 33.2065C40.0751 32.5957 39.8573 31.8775 39.8573 31.1429C39.8573 30.1578 40.2486 29.2131 40.9452 28.5165C41.6417 27.82 42.5865 27.4286 43.5715 27.4286ZM37.0716 34.8572C37.9898 34.8572 38.8875 35.1295 39.651 35.6397C40.4145 36.1498 41.0096 36.8749 41.361 37.7233C41.7124 38.5717 41.8043 39.5052 41.6252 40.4058C41.446 41.3065 41.0039 42.1337 40.3545 42.7831C39.7052 43.4324 38.878 43.8746 37.9773 44.0537C37.0767 44.2328 36.1432 44.1409 35.2948 43.7895C34.4464 43.4381 33.7213 42.843 33.2112 42.0795C32.701 41.316 32.4287 40.4183 32.4287 39.5001C32.4287 38.2687 32.9179 37.0878 33.7886 36.2171C34.6593 35.3464 35.8402 34.8572 37.0716 34.8572ZM46.4223 59.0743C45.0368 59.7729 43.5074 60.1385 41.9558 60.1422C40.8763 60.1395 39.8041 59.9639 38.7801 59.6222L33.9887 58.0715C33.8029 58.0104 33.6412 57.8923 33.5265 57.7339C33.4118 57.5754 33.3501 57.3849 33.3501 57.1893C33.3501 56.9938 33.4118 56.8032 33.5265 56.6448C33.6412 56.4864 33.8029 56.3682 33.9887 56.3072L39.2723 54.5522C39.4477 54.4949 39.6051 54.3929 39.7289 54.256C39.8526 54.1192 39.9385 53.9524 39.978 53.7722C40.0206 53.5929 40.0165 53.4058 39.9661 53.2286C39.9157 53.0514 39.8207 52.8901 39.6901 52.76C39.1424 52.2101 38.8348 51.4655 38.8348 50.6893C38.8348 49.9131 39.1424 49.1686 39.6901 48.6186L40.0337 48.2751C40.7442 47.5534 41.6444 47.0475 42.6303 46.8158C43.6162 46.5841 44.6475 46.6361 45.6051 46.9658C46.8399 47.3811 47.9243 48.1524 48.7216 49.1827C49.519 50.2129 49.9937 51.4561 50.086 52.7556C50.1784 54.0551 49.8842 55.3529 49.2405 56.4855C48.5968 57.6182 47.6324 58.5351 46.4687 59.1208L46.4223 59.0743Z" fill="#FB670F"/>
<path d="M50.9989 27.4275C51.5117 27.4275 51.9275 27.0117 51.9275 26.4989C51.9275 25.986 51.5117 25.5703 50.9989 25.5703C50.486 25.5703 50.0703 25.986 50.0703 26.4989C50.0703 27.0117 50.486 27.4275 50.9989 27.4275Z" fill="#FB670F"/>
</svg>
