<svg width="100" height="100" viewBox="0 0 100 100" fill="none" xmlns="http://www.w3.org/2000/svg">
<path d="M100 50C100 77.6142 77.6142 100 50 100C22.3858 100 0 77.6142 0 50C0 22.3858 22.3858 0 50 0C77.6142 0 100 22.3858 100 50Z" fill="#FF5D00" fill-opacity="0.1"/>
<path d="M66.9613 26C64.2268 26.002 61.6049 27.0891 59.6714 29.0227C57.7379 30.9562 56.6507 33.5781 56.6488 36.3125C56.6524 39.0192 57.72 41.6159 59.6212 43.5424C61.5225 45.4688 64.1049 46.5706 66.8112 46.61H67.1C69.8064 46.5706 72.3888 45.4688 74.29 43.5424C76.1912 41.6159 77.2589 39.0192 77.2625 36.3125C77.2625 33.5794 76.1776 30.9581 74.246 29.0244C72.3145 27.0908 69.6943 26.003 66.9613 26ZM71.9113 31.67L73.235 32.9938L65.2738 40.9475C65.1872 41.0351 65.0842 41.1047 64.9706 41.1522C64.8569 41.1997 64.735 41.2242 64.6119 41.2242C64.4887 41.2242 64.3668 41.1997 64.2532 41.1522C64.1396 41.1047 64.0365 41.0351 63.95 40.9475L60.6838 37.685L62.0075 36.3575L64.6175 38.9563L71.9113 31.67ZM24.5487 33.485C24.1396 33.484 23.7468 33.6453 23.4565 33.9335C23.1662 34.2218 23.002 34.6134 23 35.0225V45.0725C23 45.92 23.6937 46.61 24.545 46.61H60.5075C58.7566 45.5208 57.3113 44.0042 56.3077 42.2029C55.304 40.4015 54.7749 38.3746 54.77 36.3125C54.77 35.3338 54.9125 34.3962 55.13 33.485H24.5487ZM27.6875 39.11H42.6875V40.985H27.6875V39.11ZM24.545 48.485C24.1365 48.485 23.7447 48.6467 23.4552 48.9349C23.1656 49.223 23.002 49.614 23 50.0225V60.0725C23 60.9238 23.6975 61.61 24.545 61.61H68.3375C68.7453 61.61 69.1363 61.448 69.4247 61.1597C69.713 60.8713 69.875 60.4803 69.875 60.0725V50.0225C69.875 49.6147 69.713 49.2237 69.4247 48.9353C69.1363 48.647 68.7453 48.485 68.3375 48.485H67.1075C67.0588 48.485 67.0138 48.5 66.9575 48.5C66.9087 48.5 66.8675 48.485 66.815 48.485H24.545ZM63.395 53.9225C64.01 53.9225 64.52 54.425 64.52 55.0475C64.52 55.6663 64.01 56.1725 63.395 56.1725C63.0966 56.1715 62.8106 56.0528 62.5993 55.8421C62.3879 55.6315 62.2682 55.3459 62.2663 55.0475C62.2663 54.425 62.7725 53.9225 63.3913 53.9225H63.395ZM27.6875 54.11H42.6875V55.985H27.6875V54.11ZM24.545 63.485C24.1365 63.485 23.7447 63.6467 23.4552 63.9349C23.1656 64.223 23.002 64.614 23 65.0225V75.0725C23 75.9238 23.6975 76.61 24.545 76.61H68.3375C68.7453 76.61 69.1363 76.448 69.4247 76.1597C69.713 75.8713 69.875 75.4803 69.875 75.0725V65.0225C69.875 64.6147 69.713 64.2237 69.4247 63.9353C69.1363 63.647 68.7453 63.485 68.3375 63.485H24.545ZM63.29 68.9225C63.5889 68.9225 63.8755 69.0412 64.0868 69.2526C64.2982 69.4639 64.4169 69.7505 64.4169 70.0494C64.4169 70.3482 64.2982 70.6349 64.0868 70.8462C63.8755 71.0575 63.5889 71.1763 63.29 71.1763C62.9906 71.1763 62.7035 71.0573 62.4919 70.8456C62.2802 70.634 62.1613 70.3469 62.1613 70.0475C62.1613 69.7481 62.2802 69.461 62.4919 69.2494C62.7035 69.0377 62.9906 68.9225 63.29 68.9225ZM27.6875 69.11H42.6875V70.985H27.6875V69.11Z" fill="#FF5D00"/>
</svg>
