<svg width="100" height="101" viewBox="0 0 100 101" fill="none" xmlns="http://www.w3.org/2000/svg">
<path d="M100 50.5C100 78.1142 77.6142 100.5 50 100.5C22.3858 100.5 0 78.1142 0 50.5C0 22.8858 22.3858 0.5 50 0.5C77.6142 0.5 100 22.8858 100 50.5Z" fill="#FF5D00" fill-opacity="0.1"/>
<path d="M67.9613 27C65.2268 27.002 62.6049 28.0891 60.6714 30.0227C58.7379 31.9562 57.6507 34.5781 57.6488 37.3125C57.6524 40.0192 58.72 42.6159 60.6212 44.5424C62.5225 46.4688 65.1049 47.5706 67.8112 47.61H68.1C70.8064 47.5706 73.3888 46.4688 75.29 44.5424C77.1912 42.6159 78.2589 40.0192 78.2625 37.3125C78.2625 34.5794 77.1776 31.9581 75.246 30.0244C73.3145 28.0908 70.6943 27.003 67.9613 27ZM72.9113 32.67L74.235 33.9938L66.2738 41.9475C66.1872 42.0351 66.0842 42.1047 65.9706 42.1522C65.8569 42.1997 65.735 42.2242 65.6119 42.2242C65.4887 42.2242 65.3668 42.1997 65.2532 42.1522C65.1396 42.1047 65.0365 42.0351 64.95 41.9475L61.6838 38.685L63.0075 37.3575L65.6175 39.9563L72.9113 32.67ZM25.5487 34.485C25.1396 34.484 24.7468 34.6453 24.4565 34.9335C24.1662 35.2218 24.002 35.6134 24 36.0225V46.0725C24 46.92 24.6937 47.61 25.545 47.61H61.5075C59.7566 46.5208 58.3113 45.0042 57.3077 43.2029C56.304 41.4015 55.7749 39.3746 55.77 37.3125C55.77 36.3338 55.9125 35.3962 56.13 34.485H25.5487ZM28.6875 40.11H43.6875V41.985H28.6875V40.11ZM25.545 49.485C25.1365 49.485 24.7447 49.6467 24.4552 49.9349C24.1656 50.223 24.002 50.614 24 51.0225V61.0725C24 61.9238 24.6975 62.61 25.545 62.61H69.3375C69.7453 62.61 70.1363 62.448 70.4247 62.1597C70.713 61.8713 70.875 61.4803 70.875 61.0725V51.0225C70.875 50.6147 70.713 50.2237 70.4247 49.9353C70.1363 49.647 69.7453 49.485 69.3375 49.485H68.1075C68.0588 49.485 68.0138 49.5 67.9575 49.5C67.9087 49.5 67.8675 49.485 67.815 49.485H25.545ZM64.395 54.9225C65.01 54.9225 65.52 55.425 65.52 56.0475C65.52 56.6663 65.01 57.1725 64.395 57.1725C64.0966 57.1715 63.8106 57.0528 63.5993 56.8421C63.3879 56.6315 63.2682 56.3459 63.2663 56.0475C63.2663 55.425 63.7725 54.9225 64.3913 54.9225H64.395ZM28.6875 55.11H43.6875V56.985H28.6875V55.11ZM25.545 64.485C25.1365 64.485 24.7447 64.6467 24.4552 64.9349C24.1656 65.223 24.002 65.614 24 66.0225V76.0725C24 76.9238 24.6975 77.61 25.545 77.61H69.3375C69.7453 77.61 70.1363 77.448 70.4247 77.1597C70.713 76.8713 70.875 76.4803 70.875 76.0725V66.0225C70.875 65.6147 70.713 65.2237 70.4247 64.9353C70.1363 64.647 69.7453 64.485 69.3375 64.485H25.545ZM64.29 69.9225C64.5889 69.9225 64.8755 70.0412 65.0868 70.2526C65.2982 70.4639 65.4169 70.7505 65.4169 71.0494C65.4169 71.3482 65.2982 71.6349 65.0868 71.8462C64.8755 72.0575 64.5889 72.1763 64.29 72.1763C63.9906 72.1763 63.7035 72.0573 63.4919 71.8456C63.2802 71.634 63.1613 71.3469 63.1613 71.0475C63.1613 70.7481 63.2802 70.461 63.4919 70.2494C63.7035 70.0377 63.9906 69.9225 64.29 69.9225ZM28.6875 70.11H43.6875V71.985H28.6875V70.11Z" fill="#FF5D00"/>
</svg>
