<svg width="100" height="100" viewBox="0 0 100 100" fill="none" xmlns="http://www.w3.org/2000/svg">
<g id="Group 6">
<path id="Ellipse 1" d="M100 50C100 77.6142 77.6142 100 50 100C22.3858 100 0 77.6142 0 50C0 22.3858 22.3858 0 50 0C77.6142 0 100 22.3858 100 50Z" fill="#FF5D00" fill-opacity="0.1"/>
<path id="Vector" d="M73.8988 46.2288C73.4438 32.815 63.3025 22 51.035 22H49.4075C37.2188 22 27.0775 32.7362 26.5438 46.045C24.4963 46.6313 23 48.5038 23 50.7263V56.4225C23 59.1175 25.1875 61.3138 27.8913 61.3138C29.37 61.3138 30.6912 60.6488 31.5925 59.5988C32.4762 63.0025 33.8937 66.24 35.705 68.9963C39.4325 74.6838 44.4025 77.8775 49.6875 77.9913L49.985 78C55.34 78 60.3975 74.9113 64.2388 69.3112C64.5537 68.8475 64.86 68.3575 65.1575 67.8675L66.8638 67.85C68.5199 67.8554 70.1264 67.2848 71.4082 66.2361C72.69 65.1874 73.5673 63.7257 73.89 62.1012H73.9338L73.995 61.5063C74.0037 61.4275 74.0037 61.3488 74.0037 61.27C75.99 60.6488 77.4425 58.8025 77.4425 56.6237V50.9275C77.4425 48.6875 75.9463 46.815 73.8988 46.2288ZM30.7613 46.7887C30.385 46.5087 29.965 46.29 29.5188 46.1237C30.0175 34.4162 38.82 24.9838 49.4075 24.9838H51.035C61.6925 24.9838 70.5038 34.5038 70.915 46.3075C70.495 46.4563 70.1013 46.6663 69.7425 46.92C68.3863 35.9737 60.9837 28.7812 50.755 28.5625H50.3612C45.05 28.5625 40.1588 30.6013 36.58 34.2937C33.4737 37.5138 31.4788 41.8275 30.7613 46.7887ZM63.39 64.91L56.355 65.0063C56.0839 64.4883 55.6766 64.0541 55.1771 63.7504C54.6775 63.4466 54.1046 63.2849 53.52 63.2825H50.825C49.04 63.2825 47.5963 64.735 47.5963 66.5025C47.5963 68.2875 49.0487 69.7313 50.825 69.7313H53.52C54.7538 69.7313 55.83 69.0137 56.3638 67.9813L61.5175 67.9113C58.2363 72.435 54.08 75.0075 49.9762 75.0075H49.74C45.4613 74.9113 41.3575 72.1988 38.1813 67.3512C35.1625 62.7488 33.43 56.8075 33.43 51.05V50.735L33.4387 50.42C33.5612 44.6712 35.39 39.815 38.7238 36.3587C41.7425 33.2437 45.855 31.5288 50.3 31.5288H50.3175C50.4313 31.5288 50.545 31.5287 50.6763 31.5375C60.275 31.7475 66.9863 39.57 66.9863 50.5513C66.9863 50.7525 66.9863 50.945 66.9775 51.155C66.89 55.9412 65.6037 60.7975 63.39 64.91ZM71.0025 61.3225C70.6963 63.3438 68.92 64.8663 66.855 64.8663H66.75C67.52 63.2213 68.1675 61.4625 68.6925 59.5988C69.2788 60.36 70.0837 60.9375 71.0112 61.2525C71.0025 61.27 71.0025 61.2962 71.0025 61.3225Z" fill="#FF5D00"/>
</g>
</svg>
