<svg width="50" height="50" viewBox="0 0 50 50" fill="none" xmlns="http://www.w3.org/2000/svg">
<path d="M43.571 21.5277C43.571 17.7126 42.4396 13.9832 40.3201 10.8111C38.2006 7.63893 35.1882 5.16653 31.6634 3.70658C28.1387 2.2466 24.2602 1.86465 20.5184 2.60895C16.7766 3.35323 13.3396 5.19043 10.642 7.88809C7.94429 10.5858 6.10712 14.0227 5.36282 17.7645C4.61853 21.5063 5.0006 25.3848 6.46056 28.9094C7.92053 32.4341 10.3929 35.4468 13.565 37.5663C16.7372 39.6858 20.4665 40.8171 24.2816 40.8171" stroke="#A3ACB5" stroke-width="2" stroke-linecap="round" stroke-linejoin="round"/>
<path d="M4.99219 21.5312H43.571" stroke="#A3ACB5" stroke-width="2" stroke-linecap="round" stroke-linejoin="round"/>
<path d="M24.2825 40.8171C20.5597 40.8171 17.5312 32.1755 17.5312 21.5277C17.5312 10.8799 20.5597 2.23828 24.2825 2.23828C28.0054 2.23828 31.0338 10.8799 31.0338 21.5277" stroke="#A3ACB5" stroke-width="2" stroke-linecap="round" stroke-linejoin="round"/>
<path d="M36.5638 40.5651C40.2924 40.5651 43.3151 37.5424 43.3151 33.8138C43.3151 30.0851 40.2924 27.0625 36.5638 27.0625C32.8351 27.0625 29.8125 30.0851 29.8125 33.8138C29.8125 37.5424 32.8351 40.5651 36.5638 40.5651Z" stroke="#A3ACB5" stroke-width="2" stroke-linecap="round" stroke-linejoin="round"/>
<path d="M45.5024 42.7488L41.3359 38.6016" stroke="#A3ACB5" stroke-width="2" stroke-linecap="round" stroke-linejoin="round"/>
</svg>
