<svg width="38" height="38" viewBox="0 0 38 38" fill="none" xmlns="http://www.w3.org/2000/svg">
<path d="M18.8171 0.561523C13.9516 0.561523 9.28538 2.49434 5.84494 5.93478C2.4045 9.37522 0.47168 14.0415 0.47168 18.907C0.47168 23.7725 2.4045 28.4387 5.84494 31.8792C9.28538 35.3196 13.9516 37.2524 18.8171 37.2524C23.6827 37.2524 28.3489 35.3196 31.7893 31.8792C35.2298 28.4387 37.1626 23.7725 37.1626 18.907C37.1626 14.0415 35.2298 9.37522 31.7893 5.93478C28.3489 2.49434 23.6827 0.561523 18.8171 0.561523ZM29.6351 8.08901C32.3994 10.8533 34.105 14.6763 34.105 18.907H18.8171L29.6351 8.08901Z" fill="#2A2D30"/>
</svg>
