<svg width="40" height="40" viewBox="0 0 40 40" fill="none" xmlns="http://www.w3.org/2000/svg">
<path d="M35.5621 10.1259L20.5621 2.6259C20.3876 2.53798 20.195 2.49219 19.9996 2.49219C19.8042 2.49219 19.6116 2.53798 19.4371 2.6259L4.4371 10.1259C4.19289 10.244 3.99374 10.4384 3.86972 10.6797C3.7457 10.921 3.70353 11.1961 3.7496 11.4634C5.44451 20.6237 10.11 28.9706 17.0246 35.2134L19.1371 37.1134C19.3668 37.3207 19.6652 37.4355 19.9746 37.4355C20.284 37.4355 20.5824 37.3207 20.8121 37.1134L22.9246 35.2134C29.8577 28.9779 34.5412 20.6302 36.2496 11.4634C36.2957 11.1961 36.2535 10.921 36.1295 10.6797C36.0055 10.4384 35.8063 10.244 35.5621 10.1259ZM19.6371 22.1259C19.5209 22.2431 19.3826 22.3361 19.2303 22.3995C19.078 22.463 18.9146 22.4956 18.7496 22.4956C18.5846 22.4956 18.4212 22.463 18.2689 22.3995C18.1166 22.3361 17.9783 22.2431 17.8621 22.1259L14.1121 18.3759L15.8871 16.6009L18.7496 19.4759L24.1121 14.1009L25.8871 15.8759L19.6371 22.1259Z" fill="white"/>
</svg>
