<svg width="80" height="80" viewBox="0 0 80 80" fill="none" xmlns="http://www.w3.org/2000/svg">
<path d="M0 34.0765C0 18.0127 0 9.98079 4.99039 4.99039C9.98079 0 18.0127 0 34.0765 0H45.9235C61.9873 0 70.0192 0 75.0096 4.99039C80 9.98079 80 18.0127 80 34.0765V45.9235C80 61.9873 80 70.0192 75.0096 75.0096C70.0192 80 61.9873 80 45.9235 80H34.0765C18.0127 80 9.98079 80 4.99039 75.0096C0 70.0192 0 61.9873 0 45.9235V34.0765Z" fill="#1B1D1E"/>
<g clip-path="url(#clip0_10906_29507)">
<path d="M43.6535 19.5473C42.8766 18.0932 41.4812 17.2041 39.9758 17.2041C38.4705 17.2041 37.0751 18.0932 36.2981 19.5473L30.2483 31.233C39.6529 36.5282 45.8639 47.0486 46.5681 58.8764H42.3204C41.6175 48.7384 36.2102 39.7767 28.106 35.3183L22.5067 46.2367C27.0569 48.5381 30.255 53.2937 30.993 58.8557H21.2379C21.0029 58.8369 20.7921 58.6858 20.6772 58.4539C20.5623 58.2219 20.5588 57.9402 20.6679 57.7047L23.371 52.5203C22.4552 51.6586 21.4085 50.9911 20.2817 50.5502L17.6062 55.7346C17.0436 56.823 16.8912 58.1202 17.1832 59.3362C17.4753 60.5522 18.1873 61.5854 19.16 62.2048C19.7945 62.608 20.5097 62.8221 21.2379 62.8269H34.5972C35.1018 55.8042 32.3116 48.9957 27.2418 44.8784L29.3657 40.7309C35.766 45.6884 39.3672 54.0909 38.8358 62.8269H50.1539C50.6903 49.5901 44.9433 37.0305 35.0661 29.8539L39.3598 21.5589C39.559 21.1826 39.9898 21.0576 40.3252 21.2789C40.8125 21.5796 58.9804 57.3314 59.3206 57.7462C59.4426 57.9929 59.4382 58.2943 59.309 58.5363C59.1799 58.7783 58.9458 58.9239 58.6954 58.9179H54.3189C54.3741 60.2382 54.3741 61.555 54.3189 62.8685H58.7138C59.841 62.8767 60.9243 62.3761 61.7223 61.4782C62.5202 60.5802 62.9664 59.3596 62.9615 58.0884C62.9621 57.2571 62.7652 56.4408 62.3915 55.7243L43.6535 19.5473Z" fill="white"/>
</g>
<defs>
<clipPath id="clip0_10906_29507">
<rect width="45.9235" height="45.9235" fill="white" transform="translate(17.0381 17.0381)"/>
</clipPath>
</defs>
</svg>
