<svg width="50" height="50" viewBox="0 0 50 50" fill="none" xmlns="http://www.w3.org/2000/svg">
<path d="M28.9781 2.73186C28.1322 1.14866 26.6129 0.180664 24.9739 0.180664C23.3349 0.180664 21.8156 1.14866 20.9697 2.73186L14.3829 15.4549C24.6223 21.2201 31.3846 32.6744 32.1514 45.5521H27.5266C26.7612 34.5142 20.874 24.757 12.0504 19.9029L5.9541 31.7905C10.9082 34.2962 14.3902 39.4739 15.1937 45.5295H4.57266C4.31677 45.5091 4.08723 45.3447 3.96213 45.0921C3.83704 44.8395 3.83323 44.5329 3.95201 44.2764L6.89507 38.6318C5.89797 37.6936 4.7584 36.9669 3.53157 36.4868L0.61854 42.1315C0.00596945 43.3164 -0.159895 44.7288 0.158049 46.0527C0.475993 47.3767 1.25121 48.5016 2.3103 49.176C3.00112 49.6149 3.77975 49.8481 4.57266 49.8533H19.1178C19.6672 42.2073 16.6294 34.7943 11.1095 30.3116L13.4219 25.7959C20.3904 31.1935 24.3113 40.3419 23.7326 49.8533H36.0554C36.6394 35.4415 30.3823 21.767 19.6283 13.9534L24.3032 4.92198C24.52 4.51229 24.9891 4.37625 25.3543 4.61717C25.8848 4.94456 45.6654 43.87 46.0358 44.3216C46.1686 44.5902 46.1638 44.9184 46.0232 45.1819C45.8826 45.4454 45.6277 45.6039 45.3551 45.5973H40.5902C40.6502 47.0348 40.6502 48.4685 40.5902 49.8986H45.3751C46.6024 49.9076 47.7819 49.3625 48.6507 48.3849C49.5195 47.4072 50.0053 46.0782 50 44.6941C50.0006 43.7891 49.7863 42.9003 49.3793 42.1202L28.9781 2.73186Z" fill="#362D59"/>
</svg>
