<svg width="35" height="35" viewBox="0 0 35 35" fill="none" xmlns="http://www.w3.org/2000/svg">
<path fill-rule="evenodd" clip-rule="evenodd" d="M29.1849 6.16667V28.8333H6.51823V6.16667H29.1849ZM16.0585 11.8333H13.8511L9.66004 23.1667H11.6516L12.4428 20.9511H17.4598L18.234 23.1667H20.3455L16.0585 11.8333ZM23.8807 11.8333H21.8972V23.1667H23.8807V11.8333ZM14.9381 13.7348L16.9138 19.3889H12.9937L14.9381 13.7348ZM31.0738 23.1667H34.8516V26.9444H31.0738V23.1667ZM8.40712 30.7222H12.1849V34.5H8.40712V30.7222ZM15.9627 30.7222H19.7404V34.5H15.9627V30.7222ZM8.40712 0.5H12.1849V4.27778H8.40712V0.5ZM23.5182 30.7222H27.296V34.5H23.5182V30.7222ZM15.9627 0.5H19.7404V4.27778H15.9627V0.5ZM23.5182 0.5H27.296V4.27778H23.5182V0.5ZM31.0738 15.6111H34.8516V19.3889H31.0738V15.6111ZM0.851562 23.1667H4.62934V26.9444H0.851562V23.1667ZM31.0738 8.05556H34.8516V11.8333H31.0738V8.05556ZM0.851562 15.6111H4.62934V19.3889H0.851562V15.6111ZM0.851562 8.05556H4.62934V11.8333H0.851562V8.05556Z" fill="white"/>
</svg>
