<svg width="50" height="50" viewBox="0 0 50 50" fill="none" xmlns="http://www.w3.org/2000/svg">
<path d="M8 0.5H42C46.1421 0.5 49.5 3.85786 49.5 8V42C49.5 46.1421 46.1421 49.5 42 49.5H8C3.85787 49.5 0.5 46.1421 0.5 42V8C0.500001 3.85787 3.85786 0.5 8 0.5Z" fill="url(#paint0_radial_10363_935)"/>
<path d="M8 0.5H42C46.1421 0.5 49.5 3.85786 49.5 8V42C49.5 46.1421 46.1421 49.5 42 49.5H8C3.85787 49.5 0.5 46.1421 0.5 42V8C0.500001 3.85787 3.85786 0.5 8 0.5Z" stroke="url(#paint1_linear_10363_935)"/>
<path d="M25 7C24.1887 13.6224 23.9204 17.8276 22.3351 20.5422C19.7437 23.9162 15.2519 24.2376 7 25C15.1181 25.9823 19.5075 26.1951 22.1065 29.286C24.0483 32.0223 24.3768 36.2549 25 43C26.0585 34.252 26.2243 29.8343 30.06 27.3204C32.7873 26.0032 36.8569 25.7156 43 25C35.3828 24.0668 30.9633 23.8521 28.3322 21.5252C26.1073 18.8728 25.87 14.4687 25 7Z" fill="white"/>
<defs>
<radialGradient id="paint0_radial_10363_935" cx="0" cy="0" r="1" gradientUnits="userSpaceOnUse" gradientTransform="translate(25 25) rotate(90) scale(25)">
<stop stop-color="#120E1C"/>
<stop offset="1" stop-color="#28194E"/>
</radialGradient>
<linearGradient id="paint1_linear_10363_935" x1="8.83848" y1="-8.92546e-07" x2="47.6227" y2="50" gradientUnits="userSpaceOnUse">
<stop stop-color="#0F1124"/>
<stop offset="1" stop-color="#5A6DFB"/>
</linearGradient>
</defs>
</svg>
