<svg width="50" height="50" viewBox="0 0 50 50" fill="none" xmlns="http://www.w3.org/2000/svg">
<g clip-path="url(#clip0_4189_3625)">
<g clip-path="url(#clip1_4189_3625)">
<g clip-path="url(#clip2_4189_3625)">
<path d="M16.1186 15.167C17.5422 9.93633 22.2154 6.0835 27.8398 6.0835C34.5809 6.0835 39.9793 11.6632 39.9793 18.5228C39.9793 19.1065 40.3408 19.7365 40.9548 20.1175C43.3212 21.5858 44.875 24.2311 44.875 27.2387C44.875 29.921 43.6422 32.2826 41.7385 33.8265L41.726 33.8364C40.3307 34.9391 38.5707 35.5968 36.6858 35.5968H35.6152C35.0979 35.5968 34.7913 34.927 34.9965 34.4521C35.196 33.9901 35.3066 33.4807 35.3066 32.9455V28.2104C35.3066 28.1565 35.3503 28.1128 35.4041 28.1128H35.917C38.0173 28.1128 39.7199 26.4102 39.7199 24.3099C39.7199 22.2096 38.0173 20.507 35.917 20.507H35.4041C33.1036 20.507 31.0387 21.5154 29.6271 23.1143V19.0495C29.6271 16.9492 27.9245 15.2466 25.8242 15.2466C23.7239 15.2466 22.0213 16.9492 22.0213 19.0495V23.1139C20.6098 21.5152 18.545 20.507 16.2447 20.507H15.7376C13.6373 20.507 11.9347 22.2096 11.9347 24.3099C11.9347 26.4102 13.6373 28.1128 15.7376 28.1128H16.2447C16.2985 28.1128 16.3422 28.1565 16.3422 28.2104V32.9455C16.3422 33.4807 16.4528 33.9901 16.6523 34.4521C16.8574 34.927 16.5509 35.5968 16.0336 35.5968H14.901C13.5868 35.5968 11.9404 34.9854 10.5046 34.0439C7.72176 32.2592 5.875 29.0965 5.875 25.5094C5.875 19.9615 10.263 15.422 15.7524 15.422C15.9396 15.422 16.0852 15.2899 16.1186 15.167Z" fill="#2A2D30"/>
<path d="M19.1702 40.3423C18.6316 40.3423 18.1951 39.9057 18.1951 39.3672V37.417C18.1951 36.8785 18.6316 36.4419 19.1702 36.4419H21.1204C21.6589 36.4419 22.0955 36.8785 22.0955 37.417V39.3672C22.0955 39.9057 21.6589 40.3423 21.1204 40.3423H19.1702Z" fill="#2A2D30"/>
<path d="M33.4537 39.3672C33.4537 39.9057 33.0171 40.3423 32.4786 40.3423H30.5283C29.9898 40.3423 29.5532 39.9057 29.5532 39.3672V37.417C29.5532 36.8785 29.9898 36.4419 30.5283 36.4419H32.4786C33.0171 36.4419 33.4537 36.8785 33.4537 37.417V39.3672Z" fill="#2A2D30"/>
<path d="M27.7745 43.6914C27.7745 44.23 27.3379 44.6666 26.7994 44.6666H24.8491C24.3106 44.6666 23.874 44.23 23.874 43.6914V41.7412C23.874 41.2027 24.3106 40.7661 24.8491 40.7661H26.7994C27.3379 40.7661 27.7745 41.2027 27.7745 41.7412V43.6914Z" fill="#2A2D30"/>
<path d="M25.8243 37.7092C25.1242 37.7092 24.5566 37.1416 24.5566 36.4415V19.0494C24.5566 18.3493 25.1242 17.7817 25.8243 17.7817C26.5244 17.7817 27.0919 18.3493 27.0919 19.0494V36.4415C27.0919 37.1416 26.5244 37.7092 25.8243 37.7092Z" fill="#2A2D30"/>
<path d="M31.5037 34.2133C30.8036 34.2133 30.2361 33.6458 30.2361 32.9457V28.2106C30.2361 25.3563 32.5499 23.0425 35.4042 23.0425H35.9171C36.6172 23.0425 37.1848 23.61 37.1848 24.3101C37.1848 25.0103 36.6172 25.5778 35.9171 25.5778H35.4042C33.9501 25.5778 32.7714 26.7565 32.7714 28.2106V32.9457C32.7714 33.6458 32.2039 34.2133 31.5037 34.2133Z" fill="#2A2D30"/>
<path d="M21.4128 32.9457C21.4128 33.6458 20.8452 34.2133 20.1451 34.2133C19.445 34.2133 18.8775 33.6458 18.8775 32.9457V28.2106C18.8775 26.7565 17.6988 25.5778 16.2447 25.5778H15.7376C15.0375 25.5778 14.47 25.0103 14.47 24.3101C14.47 23.61 15.0375 23.0425 15.7376 23.0425H16.2447C19.0989 23.0425 21.4128 25.3563 21.4128 28.2106V32.9457Z" fill="#2A2D30"/>
</g>
</g>
</g>
<defs>
<clipPath id="clip0_4189_3625">
<rect width="40" height="40" fill="white" transform="translate(5 5)"/>
</clipPath>
<clipPath id="clip1_4189_3625">
<rect width="40" height="40" fill="white" transform="translate(5 5)"/>
</clipPath>
<clipPath id="clip2_4189_3625">
<rect width="40" height="40" fill="white" transform="translate(5 5)"/>
</clipPath>
</defs>
</svg>
