<svg width="70" height="70" viewBox="0 0 70 70" fill="none" xmlns="http://www.w3.org/2000/svg">
<path d="M0 35C0 15.67 15.67 0 35 0C54.33 0 70 15.67 70 35C70 54.33 54.33 70 35 70C15.67 70 0 54.33 0 35Z" fill="#F0F3FF"/>
<path d="M34.5 19L35.5142 22.5396C37.1692 28.3158 41.6847 32.8308 47.4609 34.4858L51 35.5L47.4604 36.5142C41.6842 38.1692 37.1692 42.6842 35.5142 48.4604L34.5 52L33.4858 48.4604C31.8308 42.6842 27.3158 38.1692 21.5396 36.5142L18 35.5L21.5391 34.4858C27.3153 32.8308 31.8304 28.3153 33.4858 22.5396L34.5 19Z" fill="#4361EE"/>
</svg>
