<svg width="32" height="32" viewBox="0 0 32 32" fill="none" xmlns="http://www.w3.org/2000/svg">
<path fill-rule="evenodd" clip-rule="evenodd" d="M4.92071 7.43624C4.44531 8.11356 4.44531 10.1268 4.44531 14.1535V16.1364C4.44531 23.2362 9.78326 26.6816 13.1324 28.1446C14.0409 28.5414 14.4951 28.7399 15.7786 28.7399V3.55469C14.7569 3.55469 13.7701 3.89247 11.7965 4.56804L11.0752 4.81494C7.28912 6.11093 5.39609 6.75892 4.92071 7.43624Z" fill="#1B1D1E"/>
<path fill-rule="evenodd" clip-rule="evenodd" d="M26.07 7.39058C26.5547 8.05992 26.5547 10.0495 26.5547 14.0288V15.9884C26.5547 23.0046 21.1121 26.4095 17.6973 27.8553C16.771 28.2475 16.3079 28.4436 14.9991 28.4436V3.55469C16.0409 3.55469 17.047 3.8885 19.0593 4.55612L19.7948 4.80012C23.6551 6.08086 25.5853 6.72123 26.07 7.39058Z" fill="#65686C"/>
</svg>
