<svg width="70" height="70" viewBox="0 0 70 70" fill="none" xmlns="http://www.w3.org/2000/svg">
<path d="M0 35C0 15.67 15.67 0 35 0C54.33 0 70 15.67 70 35C70 54.33 54.33 70 35 70C15.67 70 0 54.33 0 35Z" fill="#F0F3FF"/>
<path d="M44.2019 32.6612C42.9219 32.6612 41.8019 33.5412 41.5219 34.7412H39.5619C39.2419 32.5012 37.3219 30.7412 34.9619 30.7412C32.6019 30.7412 30.6819 32.4612 30.3619 34.7412H28.4019C28.0819 33.5412 27.0019 32.6612 25.7219 32.6612C24.2019 32.6612 22.9219 33.9012 22.9219 35.4612C22.9219 36.9812 24.1619 38.2612 25.7219 38.2612C27.0019 38.2612 28.1219 37.3812 28.4019 36.1812H30.3619C30.6819 38.1812 32.2419 39.7012 34.2419 40.0212V41.9812C33.0419 42.3012 32.1619 43.3812 32.1619 44.6612C32.1619 46.1812 33.4019 47.4612 34.9619 47.4612C36.5219 47.4612 37.7619 46.2212 37.7619 44.6612C37.7619 43.3812 36.8819 42.2612 35.6819 41.9812V40.0212C37.6819 39.7412 39.2419 38.1812 39.5619 36.1812H41.5219C41.8419 37.3812 42.9219 38.2612 44.2019 38.2612C45.7219 38.2612 47.0019 37.0212 47.0019 35.4612C47.0019 33.9012 45.7619 32.6612 44.2019 32.6612ZM36.4019 44.6212C36.4019 45.3812 35.7619 46.0212 35.0019 46.0212C34.2419 46.0212 33.6019 45.3812 33.6019 44.6212C33.6019 43.8612 34.2419 43.2212 35.0019 43.2212C35.7619 43.2212 36.4019 43.8612 36.4019 44.6212Z" fill="#4361EE"/>
<path d="M28.322 29.6609C28.002 29.9809 28.002 30.4609 28.322 30.7809C28.642 31.1009 29.122 31.1009 29.442 30.7809C32.402 27.8209 37.202 27.8209 40.162 30.7809C40.322 30.9409 40.522 31.0209 40.722 31.0209C40.922 31.0209 41.122 30.9409 41.282 30.7809C41.602 30.4609 41.602 29.9809 41.282 29.6609C37.722 26.0609 31.882 26.0609 28.322 29.6609Z" fill="#4361EE"/>
<path d="M26.2819 28.2213C31.0019 23.5413 38.6019 23.5413 43.3219 28.2213C43.4819 28.3813 43.6819 28.4613 43.8819 28.4613C44.0819 28.4613 44.2819 28.3813 44.4419 28.2213C44.7619 27.9013 44.7619 27.4213 44.4419 27.1013C39.1219 21.7813 30.4819 21.7813 25.1619 27.1013C24.8419 27.4213 24.8419 27.9013 25.1619 28.2213C25.4819 28.5413 25.9619 28.5413 26.2819 28.2213Z" fill="#4361EE"/>
</svg>
