<svg width="70" height="70" viewBox="0 0 70 70" fill="none" xmlns="http://www.w3.org/2000/svg">
<path d="M0 35C0 15.67 15.67 0 35 0C54.33 0 70 15.67 70 35C70 54.33 54.33 70 35 70C15.67 70 0 54.33 0 35Z" fill="#F0F3FF"/>
<path fill-rule="evenodd" clip-rule="evenodd" d="M22.5 25.2617C22.5 23.881 23.6193 22.7617 25 22.7617H30C31.3807 22.7617 32.5 23.881 32.5 25.2617V26.9284H37.5V25.2617C37.5 23.881 38.6193 22.7617 40 22.7617H45C46.3807 22.7617 47.5 23.881 47.5 25.2617V30.2617C47.5 31.6424 46.3807 32.7617 45 32.7617H43.3333V37.7617H45C46.3807 37.7617 47.5 38.8811 47.5 40.2617V45.2617C47.5 46.6424 46.3807 47.7617 45 47.7617H40C38.6193 47.7617 37.5 46.6424 37.5 45.2617V43.5951H32.5V45.2617C32.5 46.6424 31.3807 47.7617 30 47.7617H25C23.6193 47.7617 22.5 46.6424 22.5 45.2617V40.2617C22.5 38.8811 23.6193 37.7617 25 37.7617H26.6667V32.7617H25C23.6193 32.7617 22.5 31.6424 22.5 30.2617V25.2617ZM41.6667 32.7617H40C38.6193 32.7617 37.5 31.6424 37.5 30.2617V28.5951H32.5V30.2617C32.5 31.6424 31.3807 32.7617 30 32.7617H28.3333V37.7617H30C31.3807 37.7617 32.5 38.8811 32.5 40.2617V41.9284H37.5V40.2617C37.5 38.8811 38.6193 37.7617 40 37.7617H41.6667V32.7617ZM25 24.4284C24.5398 24.4284 24.1667 24.8015 24.1667 25.2617V30.2617C24.1667 30.722 24.5398 31.0951 25 31.0951H30C30.4602 31.0951 30.8333 30.722 30.8333 30.2617V25.2617C30.8333 24.8015 30.4602 24.4284 30 24.4284H25ZM24.1667 40.2617C24.1667 39.8016 24.5398 39.4284 25 39.4284H30C30.4602 39.4284 30.8333 39.8016 30.8333 40.2617V45.2617C30.8333 45.7219 30.4602 46.0951 30 46.0951H25C24.5398 46.0951 24.1667 45.7219 24.1667 45.2617V40.2617ZM39.1667 40.2617C39.1667 39.8016 39.5398 39.4284 40 39.4284H45C45.4602 39.4284 45.8333 39.8016 45.8333 40.2617V45.2617C45.8333 45.7219 45.4602 46.0951 45 46.0951H40C39.5398 46.0951 39.1667 45.7219 39.1667 45.2617V40.2617ZM39.1667 25.2617C39.1667 24.8015 39.5398 24.4284 40 24.4284H45C45.4602 24.4284 45.8333 24.8015 45.8333 25.2617V30.2617C45.8333 30.722 45.4602 31.0951 45 31.0951H40C39.5398 31.0951 39.1667 30.722 39.1667 30.2617V25.2617Z" fill="#4361EE"/>
</svg>
