<svg width="70" height="70" viewBox="0 0 70 70" fill="none" xmlns="http://www.w3.org/2000/svg">
<path d="M0 35C0 15.67 15.67 0 35 0C54.33 0 70 15.67 70 35C70 54.33 54.33 70 35 70C15.67 70 0 54.33 0 35Z" fill="#F0F3FF"/>
<g clip-path="url(#clip0_2031_10118)">
<path d="M29.9987 40.2617C29.0782 40.2617 28.332 41.0079 28.332 41.9284C28.332 42.8489 29.0782 43.5951 29.9987 43.5951C30.9192 43.5951 31.6654 42.8489 31.6654 41.9284C31.6654 41.0079 30.9192 40.2617 29.9987 40.2617Z" fill="#4361EE"/>
<path d="M38.332 41.9284C38.332 41.0079 39.0782 40.2617 39.9987 40.2617C40.9192 40.2617 41.6654 41.0079 41.6654 41.9284C41.6654 42.8489 40.9192 43.5951 39.9987 43.5951C39.0782 43.5951 38.332 42.8489 38.332 41.9284Z" fill="#4361EE"/>
<path fill-rule="evenodd" clip-rule="evenodd" d="M35 16.9287C33.159 16.9287 31.6667 18.4211 31.6667 20.262C31.6667 21.4958 32.337 22.5731 33.3333 23.1494V26.9287H25C22.2386 26.9287 20 29.1673 20 31.9287V48.5954C20 51.3569 22.2386 53.5954 25 53.5954H45C47.7615 53.5954 50 51.3569 50 48.5954V31.9287C50 29.1673 47.7615 26.9287 45 26.9287H36.6667V23.1494C37.663 22.5731 38.3333 21.4958 38.3333 20.262C38.3333 18.4211 36.841 16.9287 35 16.9287ZM23.3333 31.9287C23.3333 31.0082 24.0795 30.262 25 30.262H27.3033L29.7153 35.086C30.2799 36.2154 31.4341 36.9287 32.6967 36.9287H37.3033C38.5658 36.9287 39.72 36.2154 40.2847 35.086L42.6967 30.262H45C45.9205 30.262 46.6667 31.0082 46.6667 31.9287V48.5954C46.6667 49.5159 45.9205 50.262 45 50.262H25C24.0795 50.262 23.3333 49.5159 23.3333 48.5954V31.9287ZM37.3033 33.5954L38.97 30.262H31.03L32.6967 33.5954H37.3033Z" fill="#4361EE"/>
<path d="M16.6667 38.5947C15.7462 38.5947 15 39.3409 15 40.2614V43.5947C15 44.5152 15.7462 45.2614 16.6667 45.2614C17.5871 45.2614 18.3333 44.5152 18.3333 43.5947V40.2614C18.3333 39.3409 17.5871 38.5947 16.6667 38.5947Z" fill="#4361EE"/>
<path d="M51.668 40.2614C51.668 39.3409 52.4141 38.5947 53.3346 38.5947C54.2551 38.5947 55.0013 39.3409 55.0013 40.2614V43.5947C55.0013 44.5152 54.2551 45.2614 53.3346 45.2614C52.4141 45.2614 51.668 44.5152 51.668 43.5947V40.2614Z" fill="#4361EE"/>
</g>
<defs>
<clipPath id="clip0_2031_10118">
<rect width="40" height="40" fill="white" transform="translate(15 15.2617)"/>
</clipPath>
</defs>
</svg>
