<svg width="70" height="70" viewBox="0 0 70 70" fill="none" xmlns="http://www.w3.org/2000/svg">
<path d="M0 35C0 15.67 15.67 0 35 0C54.33 0 70 15.67 70 35C70 54.33 54.33 70 35 70C15.67 70 0 54.33 0 35Z" fill="#F0F3FF"/>
<path d="M35 50.2617V33.5951M35 33.5951L30 38.5951M35 33.5951L40 38.5951M26.6667 43.2924C22.8273 42.2741 20 38.8027 20 34.6772C20 30.5952 23 26.8242 27.5 26.0951C28.9116 22.739 32.2523 20.2617 36.1488 20.2617C41.14 20.2617 45.2195 24.1326 45.5 29.0117C48.1488 30.1699 50 33.0122 50 36.0899C50 39.9531 47.0833 43.1344 43.3333 43.5492" stroke="#4361EE" stroke-width="3" stroke-linecap="round" stroke-linejoin="round"/>
</svg>
