<svg width="70" height="70" viewBox="0 0 70 70" fill="none" xmlns="http://www.w3.org/2000/svg">
<path d="M0 35C0 15.67 15.67 0 35 0C54.33 0 70 15.67 70 35C70 54.33 54.33 70 35 70C15.67 70 0 54.33 0 35Z" fill="#F0F3FF"/>
<path d="M50.2076 21.9252C40.9796 23.2612 39.1496 20.9272 34.9996 17.2612C30.8496 20.9272 29.0196 23.2612 19.7916 21.9252C14.8736 46.4212 34.9996 53.2612 34.9996 53.2612C34.9996 53.2612 55.1256 46.4212 50.2076 21.9252ZM39.9456 41.8792L34.9996 39.2792L30.0556 41.8792L30.9996 36.3732L26.9996 32.4732L32.5276 31.6712L34.9996 26.6612L37.4716 31.6712L42.9996 32.4732L38.9996 36.3712L39.9456 41.8792Z" fill="#4361EE"/>
</svg>
