<svg width="70" height="70" viewBox="0 0 70 70" fill="none" xmlns="http://www.w3.org/2000/svg">
<path d="M0 35C0 15.67 15.67 0 35 0C54.33 0 70 15.67 70 35C70 54.33 54.33 70 35 70C15.67 70 0 54.33 0 35Z" fill="#F0F3FF"/>
<path d="M46.399 27.928H49.649C50.533 27.928 51.3809 28.2792 52.006 28.9043C52.6311 29.5294 52.9823 30.3773 52.9823 31.2613V44.278C52.9823 45.1621 52.6311 46.0099 52.006 46.635C51.3809 47.2601 50.533 47.6113 49.649 47.6113H39.8823L37.5156 44.078C37.2394 43.6689 36.867 43.3339 36.4311 43.1023C35.9953 42.8707 35.5092 42.7496 35.0156 42.7496C34.522 42.7496 34.036 42.8707 33.6001 43.1023C33.1642 43.3339 32.7919 43.6689 32.5156 44.078L30.1156 47.478H20.349C19.4649 47.478 18.6171 47.1268 17.9919 46.5017C17.3668 45.8766 17.0156 45.0287 17.0156 44.1447V31.1947C17.0156 30.3106 17.3668 29.4628 17.9919 28.8376C18.6171 28.2125 19.4649 27.8613 20.349 27.8613H23.6823" stroke="#4361EE" stroke-width="2" stroke-miterlimit="10"/>
<path d="M21.9648 34.4453H25.2315" stroke="#4361EE" stroke-width="4.875" stroke-miterlimit="10"/>
<path d="M21.9648 40.9619H25.2315" stroke="#4361EE" stroke-width="4.875" stroke-miterlimit="10"/>
<path d="M35.0005 29.5616C35.9026 29.5616 36.6339 28.8303 36.6339 27.9283C36.6339 27.0262 35.9026 26.2949 35.0005 26.2949C34.0985 26.2949 33.3672 27.0262 33.3672 27.9283C33.3672 28.8303 34.0985 29.5616 35.0005 29.5616Z" stroke="#4361EE" stroke-width="4.875" stroke-miterlimit="10"/>
<path d="M30.1151 32.8116C29.4731 32.1707 28.9638 31.4095 28.6162 30.5716C28.2687 29.7336 28.0898 28.8354 28.0898 27.9283C28.0898 27.0211 28.2687 26.1229 28.6162 25.2849C28.9638 24.447 29.4731 23.6858 30.1151 23.0449" stroke="#4361EE" stroke-width="4.875" stroke-miterlimit="10"/>
<path d="M39.8828 23.0449C40.5248 23.6858 41.0342 24.447 41.3817 25.2849C41.7292 26.1229 41.9081 27.0211 41.9081 27.9283C41.9081 28.8354 41.7292 29.7336 41.3817 30.5716C41.0342 31.4095 40.5248 32.1707 39.8828 32.8116" stroke="#4361EE" stroke-width="4.875" stroke-miterlimit="10"/>
</svg>
