<svg width="143" height="51" viewBox="0 0 143 51" fill="none" xmlns="http://www.w3.org/2000/svg">
<path d="M40.3889 1.52782C38.4412 1.52782 36.8578 3.09169 36.8578 5.01462C36.8578 6.93754 38.4425 8.50141 40.3889 8.50141C42.3352 8.50141 43.9199 6.93754 43.9199 5.01462C43.9199 3.09169 42.3352 1.52782 40.3889 1.52782ZM9.61304 11.9151C7.66536 11.9151 6.08203 13.4789 6.08203 15.4019C6.08203 17.3248 7.66536 18.8887 9.61304 18.8887C11.5607 18.8887 13.1427 17.3248 13.1427 15.4019C13.1427 13.4789 11.5594 11.9151 9.61304 11.9151ZM9.61304 22.3023C7.66536 22.3023 6.08203 23.8662 6.08203 25.7891C6.08203 27.712 7.66536 29.2732 9.61304 29.2732C11.5607 29.2732 13.1427 27.7094 13.1427 25.7891C13.1427 23.8688 11.5594 22.3023 9.61304 22.3023ZM40.2937 22.3023C38.3461 22.3023 36.7627 23.8662 36.7627 25.7891C36.7627 27.712 38.3474 29.2732 40.2937 29.2732C42.2401 29.2732 43.8248 27.7094 43.8248 25.7891C43.8248 23.8688 42.2401 22.3023 40.2937 22.3023ZM40.3889 32.6896C38.4412 32.6896 36.8578 34.2534 36.8578 36.1763C36.8578 38.0993 38.4425 39.6631 40.3889 39.6631C42.3352 39.6631 43.9199 38.0993 43.9199 36.1763C43.9199 34.2534 42.3352 32.6896 40.3889 32.6896ZM9.61304 43.0768C7.66536 43.0768 6.08203 44.6407 6.08203 46.5636C6.08203 48.4865 7.66536 50.0504 9.61304 50.0504C11.5607 50.0504 13.1427 48.4865 13.1427 46.5636C13.1427 44.6407 11.5594 43.0768 9.61304 43.0768ZM30.2633 11.1744C27.9031 11.1744 25.9835 13.0694 25.9835 15.4005C25.9835 17.7317 27.9031 19.6254 30.2633 19.6254C32.6236 19.6254 34.5431 17.7304 34.5431 15.4005C34.5431 13.0707 32.6236 11.1744 30.2633 11.1744ZM19.7399 11.1744C17.3797 11.1744 15.4601 13.0694 15.4601 15.4005C15.4601 17.7317 17.3797 19.6254 19.7399 19.6254C22.1002 19.6254 24.0197 17.7304 24.0197 15.4005C24.0197 13.0707 22.1002 11.1744 19.7399 11.1744ZM30.2633 21.5616C27.9031 21.5616 25.9835 23.4566 25.9835 25.7878C25.9835 28.119 27.9031 30.0126 30.2633 30.0126C32.6236 30.0126 34.5431 28.1176 34.5431 25.7878C34.5431 23.4579 32.6236 21.5616 30.2633 21.5616ZM19.7399 21.5616C17.3797 21.5616 15.4601 23.4566 15.4601 25.7878C15.4601 28.119 17.3797 30.0126 19.7399 30.0126C22.1002 30.0126 24.0197 28.1176 24.0197 25.7878C24.0197 23.4579 22.1002 21.5616 19.7399 21.5616ZM30.2633 31.9488C27.9031 31.9488 25.9835 33.8438 25.9835 36.1737C25.9835 38.5035 27.9031 40.4012 30.2633 40.4012C32.6236 40.4012 34.5431 38.5062 34.5431 36.1737C34.5431 33.8412 32.6236 31.9488 30.2633 31.9488ZM19.7399 31.9488C17.3797 31.9488 15.4601 33.8438 15.4601 36.1737C15.4601 38.5035 17.3797 40.4012 19.7399 40.4012C22.1002 40.4012 24.0197 38.5062 24.0197 36.1737C24.0197 33.8412 22.1002 31.9488 19.7399 31.9488ZM30.2633 0.787109C27.9031 0.787109 25.9835 2.68211 25.9835 5.01462C25.9835 7.34713 27.9031 9.23946 30.2633 9.23946C32.6236 9.23946 34.5431 7.34447 34.5431 5.01462C34.5431 2.68477 32.6236 0.787109 30.2633 0.787109ZM19.7399 0.787109C17.3797 0.787109 15.4601 2.68211 15.4601 5.01462C15.4601 7.34713 17.3797 9.23946 19.7399 9.23946C22.1002 9.23946 24.0197 7.34447 24.0197 5.01462C24.0197 2.68477 22.1002 0.787109 19.7399 0.787109ZM30.2633 42.3361C27.9031 42.3361 25.9835 44.2311 25.9835 46.5609C25.9835 48.8908 27.9031 50.7871 30.2633 50.7871C32.6236 50.7871 34.5431 48.8921 34.5431 46.5609C34.5431 44.2298 32.6236 42.3361 30.2633 42.3361ZM19.7399 42.3361C17.3797 42.3361 15.4601 44.2311 15.4601 46.5609C15.4601 48.8908 17.3797 50.7871 19.7399 50.7871C22.1002 50.7871 24.0197 48.8921 24.0197 46.5609C24.0197 44.2298 22.1002 42.3361 19.7399 42.3361Z" fill="#131F29"/>
<path d="M79.7159 21.878C79.6307 21.1583 79.285 20.5996 78.679 20.2019C78.0729 19.8042 77.3295 19.6053 76.4489 19.6053C75.8049 19.6053 75.2415 19.7095 74.7585 19.9178C74.2803 20.1261 73.9063 20.4126 73.6364 20.7772C73.3712 21.1417 73.2386 21.556 73.2386 22.0201C73.2386 22.4083 73.331 22.7421 73.5156 23.0215C73.705 23.2961 73.9465 23.5257 74.2401 23.7104C74.5336 23.8903 74.8414 24.0395 75.1634 24.1578C75.4853 24.2715 75.7812 24.3638 76.0511 24.4348L77.5284 24.8326C77.9072 24.932 78.3286 25.0693 78.7926 25.2445C79.2614 25.4197 79.7088 25.6588 80.1349 25.9618C80.5658 26.2601 80.9209 26.6436 81.2003 27.1124C81.4796 27.5811 81.6193 28.1564 81.6193 28.8382C81.6193 29.6242 81.4134 30.3345 81.0014 30.9689C80.5942 31.6034 79.9976 32.1077 79.2116 32.4817C78.4304 32.8558 77.4811 33.0428 76.3636 33.0428C75.322 33.0428 74.42 32.8747 73.6577 32.5385C72.9001 32.2024 72.3035 31.7336 71.8679 31.1323C71.437 30.531 71.1932 29.8326 71.1364 29.0371H72.9545C73.0019 29.5864 73.1866 30.0409 73.5085 30.4007C73.8352 30.7559 74.2472 31.021 74.7443 31.1962C75.2462 31.3667 75.786 31.4519 76.3636 31.4519C77.036 31.4519 77.6397 31.343 78.1747 31.1252C78.7098 30.9026 79.1335 30.5949 79.446 30.2019C79.7585 29.8042 79.9148 29.3401 79.9148 28.8098C79.9148 28.3269 79.7798 27.9339 79.5099 27.6309C79.2401 27.3278 78.8849 27.0816 78.4446 26.8922C78.0043 26.7028 77.5284 26.5371 77.017 26.3951L75.2273 25.8837C74.0909 25.557 73.1913 25.0906 72.5284 24.4846C71.8655 23.8785 71.5341 23.0854 71.5341 22.1053C71.5341 21.2909 71.7543 20.5807 72.1946 19.9746C72.6397 19.3638 73.2363 18.8903 73.9844 18.5542C74.7372 18.2132 75.5777 18.0428 76.5057 18.0428C77.4432 18.0428 78.2765 18.2109 79.0057 18.5471C79.7348 18.8785 80.3125 19.333 80.7386 19.9107C81.1695 20.4883 81.3968 21.1441 81.4205 21.878H79.7159ZM84.288 32.7871V21.878H85.9641V32.7871H84.288ZM85.1403 20.0598C84.8136 20.0598 84.5318 19.9486 84.2951 19.726C84.0631 19.5035 83.9471 19.236 83.9471 18.9235C83.9471 18.611 84.0631 18.3435 84.2951 18.1209C84.5318 17.8984 84.8136 17.7871 85.1403 17.7871C85.467 17.7871 85.7463 17.8984 85.9783 18.1209C86.2151 18.3435 86.3335 18.611 86.3335 18.9235C86.3335 19.236 86.2151 19.5035 85.9783 19.726C85.7463 19.9486 85.467 20.0598 85.1403 20.0598ZM96.7614 24.3212L95.2557 24.7473C95.161 24.4964 95.0213 24.2525 94.8366 24.0158C94.6567 23.7743 94.4105 23.5755 94.098 23.4192C93.7855 23.263 93.3854 23.1848 92.8977 23.1848C92.2301 23.1848 91.6738 23.3387 91.2287 23.6465C90.7884 23.9495 90.5682 24.3354 90.5682 24.8042C90.5682 25.2208 90.7197 25.5499 91.0227 25.7914C91.3258 26.0328 91.7992 26.2341 92.4432 26.3951L94.0625 26.7928C95.0379 27.0295 95.7647 27.3917 96.2429 27.8794C96.7211 28.3624 96.9602 28.985 96.9602 29.7473C96.9602 30.3723 96.7803 30.931 96.4205 31.4235C96.0653 31.9159 95.5682 32.3042 94.929 32.5882C94.2898 32.8723 93.5464 33.0144 92.6989 33.0144C91.5862 33.0144 90.6652 32.7729 89.9361 32.29C89.2069 31.807 88.7453 31.1015 88.5511 30.1735L90.142 29.7757C90.2936 30.3629 90.58 30.8032 91.0014 31.0968C91.4276 31.3903 91.9839 31.5371 92.6705 31.5371C93.4517 31.5371 94.072 31.3714 94.5312 31.04C94.9953 30.7038 95.2273 30.3013 95.2273 29.8326C95.2273 29.4538 95.0947 29.1365 94.8295 28.8809C94.5644 28.6204 94.1572 28.4263 93.608 28.2985L91.7898 27.8723C90.7907 27.6356 90.0568 27.2686 89.5881 26.7715C89.1241 26.2696 88.892 25.6422 88.892 24.8894C88.892 24.2739 89.0649 23.7293 89.4105 23.2559C89.7609 22.7824 90.2367 22.4107 90.8381 22.1408C91.4441 21.8709 92.1307 21.736 92.8977 21.736C93.9773 21.736 94.8248 21.9727 95.4403 22.4462C96.0606 22.9197 96.5009 23.5447 96.7614 24.3212ZM104.057 33.0144C103.006 33.0144 102.099 32.7824 101.337 32.3184C100.579 31.8496 99.9947 31.1962 99.5827 30.3581C99.1755 29.5153 98.9719 28.5352 98.9719 27.4178C98.9719 26.3004 99.1755 25.3155 99.5827 24.4632C99.9947 23.6062 100.568 22.9386 101.301 22.4604C102.04 21.9775 102.902 21.736 103.887 21.736C104.455 21.736 105.016 21.8307 105.57 22.0201C106.124 22.2095 106.628 22.5172 107.083 22.9434C107.537 23.3648 107.9 23.9235 108.169 24.6195C108.439 25.3155 108.574 26.1725 108.574 27.1905V27.9007H100.165V26.4519H106.87C106.87 25.8364 106.747 25.2871 106.5 24.8042C106.259 24.3212 105.913 23.94 105.463 23.6607C105.018 23.3813 104.493 23.2417 103.887 23.2417C103.219 23.2417 102.641 23.4074 102.154 23.7388C101.671 24.0655 101.299 24.4917 101.039 25.0172C100.778 25.5428 100.648 26.1062 100.648 26.7076V27.6735C100.648 28.4973 100.79 29.1957 101.074 29.7686C101.363 30.3368 101.763 30.7701 102.275 31.0684C102.786 31.3619 103.38 31.5087 104.057 31.5087C104.498 31.5087 104.895 31.4471 105.25 31.324C105.61 31.1962 105.92 31.0068 106.181 30.7559C106.441 30.5002 106.642 30.1829 106.784 29.8042L108.404 30.2587C108.233 30.8079 107.947 31.2909 107.544 31.7076C107.142 32.1195 106.645 32.4415 106.053 32.6735C105.461 32.9007 104.796 33.0144 104.057 33.0144ZM112.8 26.2246V32.7871H111.124V21.878H112.743V23.5826H112.885C113.141 23.0286 113.529 22.5835 114.05 22.2473C114.571 21.9064 115.243 21.736 116.067 21.736C116.806 21.736 117.452 21.8875 118.006 22.1905C118.56 22.4888 118.991 22.9434 119.299 23.5542C119.606 24.1602 119.76 24.9273 119.76 25.8553V32.7871H118.084V25.9689C118.084 25.1119 117.862 24.4443 117.417 23.9661C116.971 23.4831 116.361 23.2417 115.584 23.2417C115.049 23.2417 114.571 23.3577 114.15 23.5897C113.733 23.8217 113.404 24.1602 113.162 24.6053C112.921 25.0504 112.8 25.5901 112.8 26.2246ZM130.55 24.3212L129.045 24.7473C128.95 24.4964 128.81 24.2525 128.626 24.0158C128.446 23.7743 128.2 23.5755 127.887 23.4192C127.575 23.263 127.174 23.1848 126.687 23.1848C126.019 23.1848 125.463 23.3387 125.018 23.6465C124.577 23.9495 124.357 24.3354 124.357 24.8042C124.357 25.2208 124.509 25.5499 124.812 25.7914C125.115 26.0328 125.588 26.2341 126.232 26.3951L127.852 26.7928C128.827 27.0295 129.554 27.3917 130.032 27.8794C130.51 28.3624 130.749 28.985 130.749 29.7473C130.749 30.3723 130.569 30.931 130.21 31.4235C129.854 31.9159 129.357 32.3042 128.718 32.5882C128.079 32.8723 127.335 33.0144 126.488 33.0144C125.375 33.0144 124.454 32.7729 123.725 32.29C122.996 31.807 122.534 31.1015 122.34 30.1735L123.931 29.7757C124.083 30.3629 124.369 30.8032 124.79 31.0968C125.217 31.3903 125.773 31.5371 126.46 31.5371C127.241 31.5371 127.861 31.3714 128.32 31.04C128.784 30.7038 129.016 30.3013 129.016 29.8326C129.016 29.4538 128.884 29.1365 128.619 28.8809C128.353 28.6204 127.946 28.4263 127.397 28.2985L125.579 27.8723C124.58 27.6356 123.846 27.2686 123.377 26.7715C122.913 26.2696 122.681 25.6422 122.681 24.8894C122.681 24.2739 122.854 23.7293 123.2 23.2559C123.55 22.7824 124.026 22.4107 124.627 22.1408C125.233 21.8709 125.92 21.736 126.687 21.736C127.766 21.736 128.614 21.9727 129.229 22.4462C129.85 22.9197 130.29 23.5447 130.55 24.3212ZM137.846 33.0144C136.795 33.0144 135.888 32.7824 135.126 32.3184C134.368 31.8496 133.784 31.1962 133.372 30.3581C132.965 29.5153 132.761 28.5352 132.761 27.4178C132.761 26.3004 132.965 25.3155 133.372 24.4632C133.784 23.6062 134.357 22.9386 135.091 22.4604C135.829 21.9775 136.691 21.736 137.676 21.736C138.244 21.736 138.805 21.8307 139.359 22.0201C139.913 22.2095 140.417 22.5172 140.872 22.9434C141.326 23.3648 141.689 23.9235 141.958 24.6195C142.228 25.3155 142.363 26.1725 142.363 27.1905V27.9007H133.954V26.4519H140.659C140.659 25.8364 140.536 25.2871 140.289 24.8042C140.048 24.3212 139.702 23.94 139.252 23.6607C138.807 23.3813 138.282 23.2417 137.676 23.2417C137.008 23.2417 136.431 23.4074 135.943 23.7388C135.46 24.0655 135.088 24.4917 134.828 25.0172C134.567 25.5428 134.437 26.1062 134.437 26.7076V27.6735C134.437 28.4973 134.579 29.1957 134.863 29.7686C135.152 30.3368 135.552 30.7701 136.064 31.0684C136.575 31.3619 137.169 31.5087 137.846 31.5087C138.287 31.5087 138.684 31.4471 139.039 31.324C139.399 31.1962 139.709 31.0068 139.97 30.7559C140.23 30.5002 140.431 30.1829 140.574 29.8042L142.193 30.2587C142.022 30.8079 141.736 31.2909 141.333 31.7076C140.931 32.1195 140.434 32.4415 139.842 32.6735C139.25 32.9007 138.585 33.0144 137.846 33.0144Z" fill="white"/>
</svg>
