<svg width="50" height="45" viewBox="0 0 50 45" fill="none" xmlns="http://www.w3.org/2000/svg">
<path d="M10.7922 1.46794L24.7322 0L38.6721 1.46794L49.4644 15.8986L24.7322 44.5857L0 15.8986L10.7922 1.46794Z" fill="#FDB300"/>
<path d="M10.0178 15.8984L24.7322 44.5855L0 15.8984H10.0178Z" fill="#EA6C00"/>
<path d="M39.4432 15.8984L24.7287 44.5855L49.4609 15.8984H39.4432Z" fill="#EA6C00"/>
<path d="M10.0156 15.8984H39.4445L24.7301 44.5855L10.0156 15.8984Z" fill="#FDAD00"/>
<path d="M24.7301 0L10.79 1.46792L10.0156 15.8986L24.7301 0Z" fill="#FDD231"/>
<path d="M24.7309 0L38.6709 1.46792L39.4453 15.8986L24.7309 0Z" fill="#FDD231"/>
<path d="M49.4609 15.8984L38.6686 1.46777L39.4432 15.8984H49.4609Z" fill="#FDAD00"/>
<path d="M0 15.8984L10.7922 1.46777L10.0178 15.8984H0Z" fill="#FDAD00"/>
<path d="M24.7301 0L10.0156 15.8986H39.4445L24.7301 0Z" fill="#FEEEB7"/>
</svg>
