<svg width="80" height="81" viewBox="0 0 80 81" fill="none" xmlns="http://www.w3.org/2000/svg">
<circle cx="40" cy="40.7871" r="40" fill="#008CFF" fill-opacity="0.25"/>
<circle cx="40" cy="40.7871" r="30" fill="#008CFF"/>
<path fill-rule="evenodd" clip-rule="evenodd" d="M34.4627 29.4565C34.5955 29.5813 34.6018 29.7914 34.4773 29.9245C34.3528 30.0576 34.1432 30.0638 34.0104 29.939C33.1306 29.1133 32.0474 28.7451 30.9704 28.7451C30.3707 28.7451 29.773 28.8595 29.2148 29.0717C29.2003 29.0779 29.1858 29.0841 29.1692 29.0904C29.1111 29.1133 29.0551 29.1361 28.997 29.1611C28.3744 29.4315 27.8058 29.8246 27.3431 30.3218C26.6085 31.108 26.1375 32.1563 26.1375 33.3793C26.1375 33.6331 26.1624 33.8827 26.206 34.126C26.2288 34.2571 26.2599 34.3881 26.2952 34.5171C26.8741 34.2488 27.505 34.0969 28.1773 34.0969C28.3599 34.0969 28.5093 34.2467 28.5093 34.4297C28.5093 34.6128 28.3599 34.7625 28.1773 34.7625C26.7829 34.7625 25.5835 35.5425 24.6912 36.6533C23.6246 37.9824 23 39.7733 23 41.2916C23 43.2676 23.828 45.0835 25.1477 46.4084C26.4696 47.7334 28.2831 48.5633 30.2524 48.5633C30.435 48.5633 30.5844 48.7131 30.5844 48.8961C30.5844 49.0792 30.435 49.2289 30.2524 49.2289C28.8144 49.2289 27.4532 48.8254 26.2786 48.1265C26.0172 49.154 26.15 50.1753 26.5795 51.0655C27.09 52.1284 28.0196 53.0082 29.1921 53.497C29.3062 53.5428 29.3933 53.651 29.4016 53.7841C29.4867 55.0425 30.1176 56.174 31.0825 56.9935C32.0515 57.811 33.3526 58.3143 34.7823 58.3143C36.2702 58.3143 37.6231 57.7673 38.6005 56.8833C39.5695 56.0097 40.1713 54.8054 40.1713 53.4846V50.8346C40.0281 51.051 39.8621 51.2506 39.6795 51.4337C38.9656 52.1492 37.98 52.5922 36.8926 52.5922C36.71 52.5922 36.5606 52.4425 36.5606 52.2594C36.5606 52.0764 36.71 51.9266 36.8926 51.9266C37.7974 51.9266 38.617 51.5585 39.2105 50.9636C39.804 50.3687 40.1713 49.5471 40.1713 48.6402L40.1692 32.6552V29.0922C40.1692 27.7714 39.5674 26.5671 38.5984 25.6935C37.6211 24.8116 36.2702 24.2625 34.7803 24.2625C33.3567 24.2625 32.0598 24.7658 31.0928 25.5853C30.2587 26.2925 29.6714 27.2348 29.4701 28.2872C29.9578 28.15 30.4641 28.0772 30.9704 28.0772C32.2071 28.0792 33.4501 28.5059 34.4627 29.4565ZM44.1115 35.9437C44.2941 35.9437 44.4435 36.0934 44.4435 36.2765C44.4435 36.4595 44.2941 36.6093 44.1115 36.6093C43.0221 36.6093 42.0364 36.1662 41.3247 35.4507C41.1421 35.2677 40.9781 35.068 40.8329 34.8517V53.4841C40.8329 54.805 41.4346 56.0093 42.4037 56.8829C43.381 57.7669 44.7319 58.3139 46.2198 58.3139C47.6433 58.3139 48.9402 57.8105 49.9072 56.991C50.7413 56.2838 51.3286 55.3415 51.5299 54.2891C51.0422 54.4264 50.5359 54.4992 50.0296 54.4992C48.7949 54.4992 47.5519 54.0728 46.5373 53.1222C46.4045 52.9974 46.3982 52.7874 46.5227 52.6542C46.6472 52.5211 46.8568 52.5149 46.9896 52.6397C47.8694 53.4654 48.9527 53.8336 50.0296 53.8336C50.6293 53.8336 51.227 53.7192 51.7852 53.507C51.7997 53.5008 51.8142 53.4946 51.8308 53.4883C51.8889 53.4654 51.9449 53.4426 52.0031 53.4176C52.6256 53.1472 53.1942 52.7541 53.6569 52.257C54.3915 51.4707 54.8625 50.4224 54.8625 49.1994C54.8625 48.9456 54.8376 48.696 54.794 48.4527C54.7712 48.3216 54.7401 48.1906 54.7048 48.0616C54.1259 48.3299 53.495 48.4818 52.8227 48.4818C52.6401 48.4818 52.4907 48.332 52.4907 48.149C52.4907 47.9659 52.6401 47.8162 52.8227 47.8162C54.2171 47.8162 55.4165 47.0362 56.3088 45.9255C57.3754 44.5963 58 42.8055 58 41.2871C58 39.3111 57.172 37.4953 55.8523 36.1703C54.5304 34.8453 52.7169 34.0154 50.7476 34.0154C50.565 34.0154 50.4156 33.8656 50.4156 33.6826C50.4156 33.4996 50.565 33.3498 50.7476 33.3498C52.1856 33.3498 53.5468 33.7533 54.7214 34.4522C54.9828 33.4247 54.85 32.4034 54.4205 31.5132C53.91 30.4503 52.9804 29.5705 51.8079 29.0817C51.6938 29.0359 51.6067 28.9277 51.5984 28.7946C51.5133 27.5362 50.8824 26.4047 49.9175 25.5852C48.9505 24.7657 47.6495 24.2603 46.2198 24.2603C44.7319 24.2603 43.379 24.8073 42.4016 25.6913C41.4326 26.5649 40.8308 27.7692 40.8308 29.09V32.653C40.8308 33.5599 41.1981 34.3815 41.7916 34.9764C42.3871 35.5733 43.2068 35.9437 44.1115 35.9437Z" fill="white"/>
</svg>
