<svg width="50" height="50" viewBox="0 0 50 50" fill="none" xmlns="http://www.w3.org/2000/svg">
<g clip-path="url(#clip0_10900_28324)">
<path d="M28.0232 12.9229C27.5944 12.9229 27.2268 13.2296 27.1504 13.6522L21.1766 35.9515L21.1674 35.9942C21.1521 36.0629 21.1445 36.1255 21.1445 36.1896C21.1445 36.6794 21.5443 37.0776 22.0341 37.0776C22.4063 37.0776 22.7437 36.8427 22.8702 36.4917L22.9068 36.388H22.9009L28.8839 14.0476C28.9022 13.9743 28.9129 13.8935 28.9129 13.8141C28.9128 13.3211 28.5146 12.9229 28.0232 12.9229Z" fill="#1B275F"/>
<path d="M14.4119 17.706C14.4119 17.2161 14.0137 16.8164 13.5238 16.8164C13.3575 16.8164 13.2019 16.8622 13.0554 16.9507L0.445508 24.2307C0.167871 24.3924 0 24.6793 0 24.9997C0 25.3171 0.170898 25.6101 0.445508 25.7672L13.0432 33.0441C13.6475 33.4119 14.4119 32.9525 14.4119 32.2934C14.4119 32.0004 14.273 31.7349 14.0319 31.5655L13.9083 31.4785L13.9037 31.4892L2.67031 24.9997L14.032 18.4339C14.27 18.269 14.4119 17.9959 14.4119 17.706Z" fill="#1B275F"/>
<path d="M49.5547 24.2315L36.9586 16.9577C36.3391 16.5808 35.5898 17.0493 35.5898 17.7069C35.5898 17.9968 35.7317 18.27 35.9698 18.4347L36.0979 18.514L47.3314 25.0005L36.0979 31.4901L36.0903 31.4809L35.9698 31.5664C35.7287 31.7357 35.5898 32.0012 35.5898 32.2942C35.5898 32.9534 36.3895 33.3944 36.9464 33.0526L49.5563 25.7696C49.8293 25.6109 50.0002 25.3164 50.0002 25.0005C50.0002 24.6847 49.8293 24.3902 49.5547 24.2315Z" fill="#1B275F"/>
</g>
<defs>
<clipPath id="clip0_10900_28324">
<rect width="50" height="50" fill="white"/>
</clipPath>
</defs>
</svg>
