<svg width="42" height="43" viewBox="0 0 42 43" fill="none" xmlns="http://www.w3.org/2000/svg">
<path d="M41.2723 5.97673C41.0166 4.70451 40.3751 3.54199 39.4351 2.64743C38.495 1.75288 37.3021 1.16976 36.0188 0.97747C35.1507 0.867288 34.2693 0.930379 33.4258 1.16309C32.5822 1.3958 31.7931 1.79351 31.1043 2.3332C31.0072 2.40724 30.9316 2.50585 30.8853 2.61885C30.839 2.73186 30.8237 2.85516 30.841 2.97605C30.8583 3.09694 30.9075 3.21103 30.9836 3.30655C31.0596 3.40208 31.1598 3.47558 31.2738 3.51946C34.4095 5.21848 37.1298 7.59143 39.2387 10.4676C39.3036 10.5655 39.3917 10.6458 39.4952 10.7013C39.5987 10.7568 39.7144 10.7859 39.8318 10.7859C39.9493 10.7859 40.0649 10.7568 40.1684 10.7013C40.2719 10.6458 40.36 10.5655 40.4249 10.4676C40.8618 9.81491 41.1621 9.08057 41.3077 8.30879C41.4534 7.537 41.4413 6.74373 41.2723 5.97673ZM10.0905 3.6042C10.1903 3.54637 10.2757 3.46664 10.3402 3.37103C10.4048 3.27541 10.4468 3.1664 10.4631 3.05219C10.4794 2.93799 10.4696 2.82158 10.4344 2.71171C10.3992 2.60185 10.3396 2.5014 10.2599 2.41793C9.59308 1.84081 8.80592 1.41965 7.95577 1.18512C7.10561 0.950595 6.21385 0.908603 5.34541 1.0622C4.06337 1.22273 2.86491 1.78448 1.92136 2.66715C0.977815 3.54983 0.337499 4.70822 0.0919585 5.97673C-0.179088 7.53773 0.154159 9.14338 1.02402 10.4676C1.08895 10.5655 1.17709 10.6458 1.28058 10.7013C1.38407 10.7568 1.4997 10.7859 1.61716 10.7859C1.73461 10.7859 1.85024 10.7568 1.95373 10.7013C2.05722 10.6458 2.14536 10.5655 2.21029 10.4676C4.24855 7.5809 6.95131 5.22688 10.0905 3.6042ZM20.6821 5.1294C15.7423 5.14281 11.0086 7.11111 7.51555 10.6041C4.02254 14.0971 2.05424 18.8308 2.04082 23.7707C2.02736 27.7406 3.30627 31.6071 5.68435 34.786L2.88815 37.5822C2.62678 37.835 2.41893 38.1379 2.27698 38.4727C2.13504 38.8075 2.06189 39.1674 2.06189 39.5311C2.06189 39.8947 2.13504 40.2547 2.27698 40.5895C2.41893 40.9243 2.62678 41.2271 2.88815 41.4799C3.13783 41.7467 3.43963 41.9594 3.77486 42.1048C4.11009 42.2503 4.47161 42.3253 4.83702 42.3253C5.20243 42.3253 5.56394 42.2503 5.89917 42.1048C6.2344 41.9594 6.5362 41.7467 6.78588 41.4799L9.58207 38.6837C12.7989 41.0509 16.6882 42.3275 20.6821 42.3273C24.6521 42.3407 28.5185 41.0618 31.6974 38.6837L34.4936 41.4799C34.756 41.7535 35.0721 41.97 35.422 42.1158C35.7719 42.2616 36.1482 42.3336 36.5272 42.3273C37.0721 42.3164 37.6019 42.1465 38.0515 41.8386C38.5011 41.5307 38.851 41.098 39.058 40.5939C39.265 40.0898 39.3203 39.5362 39.2169 39.0012C39.1135 38.4661 38.856 37.9729 38.4761 37.5822L35.6799 34.786C38.058 31.6071 39.3369 27.7406 39.3234 23.7707C39.3301 21.3208 38.8525 18.8937 37.9181 16.629C36.9837 14.3644 35.6108 12.3067 33.8785 10.5743C32.1461 8.842 30.0885 7.46915 27.8238 6.53471C25.5591 5.60028 23.132 5.12269 20.6821 5.1294ZM7.54848 23.686C7.54848 21.0884 8.31875 18.5491 9.76189 16.3893C11.205 14.2295 13.2562 12.5461 15.6561 11.5521C18.056 10.558 20.6967 10.2979 23.2444 10.8047C25.792 11.3114 28.1322 12.5623 29.969 14.3991C31.8058 16.2358 33.0566 18.576 33.5634 21.1237C34.0702 23.6714 33.8101 26.3121 32.816 28.712C31.822 31.1118 30.1386 33.163 27.9788 34.6062C25.819 36.0493 23.2797 36.8196 20.6821 36.8196C18.9571 36.8207 17.2487 36.4818 15.6548 35.8221C14.0608 35.1625 12.6125 34.1951 11.3927 32.9753C10.173 31.7555 9.20558 30.3073 8.54595 28.7133C7.88631 27.1194 7.54736 25.411 7.54848 23.686ZM22.8004 22.9234V17.5004C22.8039 17.2324 22.7536 16.9665 22.6526 16.7182C22.5516 16.4699 22.402 16.2444 22.2124 16.0549C22.0229 15.8653 21.7974 15.7157 21.5491 15.6147C21.3008 15.5137 21.0349 15.4634 20.7669 15.4668C20.2296 15.4734 19.7161 15.6898 19.3362 16.0698C18.9562 16.4497 18.7398 16.9631 18.7333 17.5004V23.686C18.7138 23.9556 18.7573 24.2261 18.8602 24.476C18.9631 24.726 19.1227 24.9487 19.3264 25.1264L24.1562 29.9562C24.5389 30.337 25.0568 30.5508 25.5966 30.5508C26.1365 30.5508 26.6544 30.337 27.0371 29.9562C27.2375 29.7736 27.3976 29.5511 27.5072 29.3031C27.6167 29.0551 27.6733 28.7869 27.6733 28.5157C27.6733 28.2446 27.6167 27.9764 27.5072 27.7284C27.3976 27.4804 27.2375 27.2579 27.0371 27.0753L22.8004 22.9234Z" fill="#2A2D30"/>
</svg>
