<svg width="123" height="51" viewBox="0 0 123 51" fill="none" xmlns="http://www.w3.org/2000/svg">
<g clip-path="url(#clip0_5224_19472)">
<g clip-path="url(#clip1_5224_19472)">
<g clip-path="url(#clip2_5224_19472)">
<path fill-rule="evenodd" clip-rule="evenodd" d="M25.625 35.7871H23.75V39.6974C22.6578 40.0837 21.875 41.1262 21.875 42.3496C21.875 43.9021 23.135 45.1621 24.6875 45.1621C26.24 45.1621 27.5 43.9021 27.5 42.3496C27.5 41.1262 26.7172 40.0837 25.625 39.6974V35.7871ZM32.2513 35.368C31.7956 35.5752 31.3006 35.7121 30.7812 35.7637C30.6266 35.7796 30.4709 35.7871 30.3125 35.7871H28.9062C29.3337 36.3562 30.0144 36.7246 30.7812 36.7246C31.04 36.7246 31.25 36.9346 31.25 37.1934V37.8224C30.1578 38.2087 29.375 39.2512 29.375 40.4746C29.375 42.0271 30.635 43.2871 32.1875 43.2871C33.74 43.2871 35 42.0271 35 40.4746C35 39.2512 34.2172 38.2087 33.125 37.8224V37.1934C33.125 36.4555 32.7838 35.7974 32.2513 35.368ZM17.1116 35.3624C17.0478 35.414 16.9859 35.4684 16.9278 35.5274C16.4937 35.9615 16.25 36.5493 16.25 37.1634V37.8224C15.1578 38.2087 14.375 39.2512 14.375 40.4746C14.375 42.0271 15.635 43.2871 17.1875 43.2871C18.74 43.2871 20 42.0271 20 40.4746C20 39.2512 19.2172 38.2087 18.125 37.8224V37.1634C18.125 37.0471 18.1709 36.9355 18.2534 36.853C18.3359 36.7705 18.4475 36.7246 18.5638 36.7246H18.5656C19.3362 36.7246 20.0216 36.3571 20.4547 35.7871H19.0625C18.3659 35.7871 17.705 35.6352 17.1116 35.3624ZM35 29.6784V31.0996C35 31.7868 34.8519 32.4393 34.5866 33.0271C35.0206 33.5671 35.6872 33.9121 36.4344 33.9121H37.0353C37.4216 35.0043 38.4641 35.7871 39.6875 35.7871C41.24 35.7871 42.5 34.5271 42.5 32.9746C42.5 31.4221 41.24 30.1621 39.6875 30.1621C38.4641 30.1621 37.4216 30.9449 37.0353 32.0371H36.4344C36.1597 32.0371 35.9375 31.8149 35.9375 31.5402C35.9375 31.5402 35.6938 30.3365 35.2597 29.9024C35.1781 29.8209 35.0919 29.7459 35 29.6784ZM14.375 29.6784C14.2831 29.7459 14.1969 29.8209 14.1153 29.9024C13.6812 30.3365 13.4375 30.9243 13.4375 31.5384V31.5402C13.4375 31.8149 13.2153 32.0371 12.9406 32.0371H12.3397C11.9534 30.9449 10.9109 30.1621 9.6875 30.1621C8.135 30.1621 6.875 31.4221 6.875 32.9746C6.875 34.5271 8.135 35.7871 9.6875 35.7871C10.9109 35.7871 11.9534 35.0043 12.3397 33.9121H12.9406C13.6878 33.9121 14.3544 33.5671 14.7884 33.0271C14.5231 32.4393 14.375 31.7868 14.375 31.0996V29.6784ZM33.125 19.8496C33.125 18.2971 31.865 17.0371 30.3125 17.0371H19.0625C17.51 17.0371 16.25 18.2971 16.25 19.8496V31.0996C16.25 32.6521 17.51 33.9121 19.0625 33.9121H30.3125C31.865 33.9121 33.125 32.6521 33.125 31.0996V19.8496ZM35 24.5371V26.4121H38.9103C39.2966 27.5043 40.3391 28.2871 41.5625 28.2871C43.115 28.2871 44.375 27.0271 44.375 25.4746C44.375 23.9221 43.115 22.6621 41.5625 22.6621C40.3391 22.6621 39.2966 23.4449 38.9103 24.5371H35ZM14.375 26.4121V24.5371H10.4647C10.0784 23.4449 9.03594 22.6621 7.8125 22.6621C6.26 22.6621 5 23.9221 5 25.4746C5 27.0271 6.26 28.2871 7.8125 28.2871C9.03594 28.2871 10.0784 27.5043 10.4647 26.4121H14.375ZM22.5378 26.6868L21.3256 25.4746L22.5378 24.2624C22.9034 23.8968 22.9034 23.3024 22.5378 22.9368C22.1722 22.5712 21.5778 22.5712 21.2122 22.9368L19.3372 24.8118C18.9706 25.1774 18.9706 25.7718 19.3372 26.1374L21.2122 28.0124C21.5778 28.378 22.1722 28.378 22.5378 28.0124C22.9034 27.6468 22.9034 27.0524 22.5378 26.6868ZM28.1628 28.0124L30.0378 26.1374C30.4044 25.7718 30.4044 25.1774 30.0378 24.8118L28.1628 22.9368C27.7972 22.5712 27.2028 22.5712 26.8372 22.9368C26.4716 23.3024 26.4716 23.8968 26.8372 24.2624L28.0494 25.4746L26.8372 26.6868C26.4716 27.0524 26.4716 27.6468 26.8372 28.0124C27.2028 28.378 27.7972 28.378 28.1628 28.0124ZM24.3444 24.194L23.4069 25.8177C23.1481 26.2659 23.3019 26.8396 23.75 27.0984C24.1981 27.3571 24.7719 27.2034 25.0306 26.7552L25.9681 25.1315C26.2269 24.6834 26.0731 24.1096 25.625 23.8509C25.1769 23.5921 24.6031 23.7459 24.3444 24.194ZM35 21.2559C35.5691 20.8284 35.9375 20.1477 35.9375 19.3809C35.9375 19.1221 36.1475 18.9121 36.4062 18.9121H37.0353C37.4216 20.0043 38.4641 20.7871 39.6875 20.7871C41.24 20.7871 42.5 19.5271 42.5 17.9746C42.5 16.4221 41.24 15.1621 39.6875 15.1621C38.4641 15.1621 37.4216 15.9449 37.0353 17.0371H36.4062C35.6684 17.0371 35.0103 17.3784 34.5809 17.9109C34.85 18.5015 35 19.1587 35 19.8496V21.2559ZM14.375 21.2559V19.8496C14.375 19.1587 14.525 18.5015 14.7941 17.9109C14.3647 17.3784 13.7066 17.0371 12.9688 17.0371H12.3397C11.9534 15.9449 10.9109 15.1621 9.6875 15.1621C8.135 15.1621 6.875 16.4221 6.875 17.9746C6.875 19.5271 8.135 20.7871 9.6875 20.7871C10.9109 20.7871 11.9534 20.0043 12.3397 18.9121H12.9688C13.2275 18.9121 13.4375 19.1221 13.4375 19.3809C13.4375 20.1477 13.8059 20.8284 14.375 21.2559ZM17.1116 15.5868C17.705 15.314 18.3659 15.1621 19.0625 15.1621H20.4547C20.0216 14.5921 19.3362 14.2246 18.5656 14.2246H18.5638C18.4475 14.2246 18.3359 14.1787 18.2534 14.0962C18.1709 14.0137 18.125 13.9021 18.125 13.7859V13.1268C19.2172 12.7405 20 11.698 20 10.4746C20 8.92211 18.74 7.66211 17.1875 7.66211C15.635 7.66211 14.375 8.92211 14.375 10.4746C14.375 11.698 15.1578 12.7405 16.25 13.1268V13.7859C16.25 14.3999 16.4937 14.9877 16.9278 15.4218C16.9859 15.4809 17.0478 15.5352 17.1116 15.5868ZM28.9062 15.1621H30.3125C31.0034 15.1621 31.6606 15.3121 32.2513 15.5812C32.7838 15.1518 33.125 14.4937 33.125 13.7559V13.1268C34.2172 12.7405 35 11.698 35 10.4746C35 8.92211 33.74 7.66211 32.1875 7.66211C30.635 7.66211 29.375 8.92211 29.375 10.4746C29.375 11.698 30.1578 12.7405 31.25 13.1268V13.7559C31.25 14.0146 31.04 14.2246 30.7812 14.2246C30.0144 14.2246 29.3337 14.593 28.9062 15.1621ZM23.75 15.1621H25.625V11.2518C26.7172 10.8655 27.5 9.82305 27.5 8.59961C27.5 7.04711 26.24 5.78711 24.6875 5.78711C23.135 5.78711 21.875 7.04711 21.875 8.59961C21.875 9.82305 22.6578 10.8655 23.75 11.2518V15.1621Z" fill="white"/>
</g>
</g>
</g>
<path d="M79.7159 21.878C79.6307 21.1583 79.285 20.5996 78.679 20.2019C78.0729 19.8042 77.3295 19.6053 76.4489 19.6053C75.8049 19.6053 75.2415 19.7095 74.7585 19.9178C74.2803 20.1261 73.9063 20.4126 73.6364 20.7772C73.3712 21.1417 73.2386 21.556 73.2386 22.0201C73.2386 22.4083 73.331 22.7421 73.5156 23.0215C73.705 23.2961 73.9465 23.5257 74.2401 23.7104C74.5336 23.8903 74.8414 24.0395 75.1634 24.1578C75.4853 24.2715 75.7812 24.3638 76.0511 24.4348L77.5284 24.8326C77.9072 24.932 78.3286 25.0693 78.7926 25.2445C79.2614 25.4197 79.7088 25.6588 80.1349 25.9618C80.5658 26.2601 80.9209 26.6436 81.2003 27.1124C81.4796 27.5811 81.6193 28.1564 81.6193 28.8382C81.6193 29.6242 81.4134 30.3345 81.0014 30.9689C80.5942 31.6034 79.9976 32.1077 79.2116 32.4817C78.4304 32.8558 77.4811 33.0428 76.3636 33.0428C75.322 33.0428 74.42 32.8747 73.6577 32.5385C72.9001 32.2024 72.3035 31.7336 71.8679 31.1323C71.437 30.531 71.1932 29.8326 71.1364 29.0371H72.9545C73.0019 29.5864 73.1866 30.0409 73.5085 30.4007C73.8352 30.7559 74.2472 31.021 74.7443 31.1962C75.2462 31.3667 75.786 31.4519 76.3636 31.4519C77.036 31.4519 77.6397 31.343 78.1747 31.1252C78.7098 30.9026 79.1335 30.5949 79.446 30.2019C79.7585 29.8042 79.9148 29.3401 79.9148 28.8098C79.9148 28.3269 79.7798 27.9339 79.5099 27.6309C79.2401 27.3278 78.8849 27.0816 78.4446 26.8922C78.0043 26.7028 77.5284 26.5371 77.017 26.3951L75.2273 25.8837C74.0909 25.557 73.1913 25.0906 72.5284 24.4846C71.8655 23.8785 71.5341 23.0854 71.5341 22.1053C71.5341 21.2909 71.7543 20.5807 72.1946 19.9746C72.6397 19.3638 73.2363 18.8903 73.9844 18.5542C74.7372 18.2132 75.5777 18.0428 76.5057 18.0428C77.4432 18.0428 78.2765 18.2109 79.0057 18.5471C79.7348 18.8785 80.3125 19.333 80.7386 19.9107C81.1695 20.4883 81.3968 21.1441 81.4205 21.878H79.7159ZM96.788 25.5144C96.788 27.0485 96.511 28.3742 95.957 29.4917C95.4031 30.6091 94.6431 31.4708 93.6772 32.0769C92.7113 32.6829 91.6081 32.986 90.3675 32.986C89.127 32.986 88.0238 32.6829 87.0579 32.0769C86.092 31.4708 85.332 30.6091 84.7781 29.4917C84.2241 28.3742 83.9471 27.0485 83.9471 25.5144C83.9471 23.9803 84.2241 22.6545 84.7781 21.5371C85.332 20.4197 86.092 19.5579 87.0579 18.9519C88.0238 18.3458 89.127 18.0428 90.3675 18.0428C91.6081 18.0428 92.7113 18.3458 93.6772 18.9519C94.6431 19.5579 95.4031 20.4197 95.957 21.5371C96.511 22.6545 96.788 23.9803 96.788 25.5144ZM95.0835 25.5144C95.0835 24.2549 94.8728 23.1919 94.4513 22.3255C94.0347 21.459 93.4689 20.8032 92.7539 20.3581C92.0437 19.9131 91.2482 19.6905 90.3675 19.6905C89.4869 19.6905 88.689 19.9131 87.9741 20.3581C87.2638 20.8032 86.698 21.459 86.2766 22.3255C85.86 23.1919 85.6516 24.2549 85.6516 25.5144C85.6516 26.7739 85.86 27.8368 86.2766 28.7033C86.698 29.5698 87.2638 30.2256 87.9741 30.6706C88.689 31.1157 89.4869 31.3382 90.3675 31.3382C91.2482 31.3382 92.0437 31.1157 92.7539 30.6706C93.4689 30.2256 94.0347 29.5698 94.4513 28.7033C94.8728 27.8368 95.0835 26.7739 95.0835 25.5144ZM99.6626 32.7871H97.8161L103.157 18.2417H104.975L110.316 32.7871H108.469L104.123 20.5428H104.009L99.6626 32.7871ZM100.344 27.1053H107.788V28.6678H100.344V27.1053ZM112.582 32.7871V18.2417H117.496C118.638 18.2417 119.57 18.4476 120.295 18.8596C121.024 19.2667 121.564 19.8184 121.914 20.5144C122.264 21.2104 122.44 21.9869 122.44 22.8439C122.44 23.7009 122.264 24.4798 121.914 25.1806C121.568 25.8813 121.033 26.44 120.309 26.8567C119.585 27.2686 118.656 27.4746 117.525 27.4746H114.002V25.9121H117.468C118.249 25.9121 118.877 25.7772 119.35 25.5073C119.824 25.2374 120.167 24.8728 120.38 24.4135C120.598 23.9495 120.707 23.4263 120.707 22.8439C120.707 22.2615 120.598 21.7407 120.38 21.2814C120.167 20.8221 119.821 20.4623 119.343 20.2019C118.865 19.9367 118.23 19.8042 117.44 19.8042H114.343V32.7871H112.582Z" fill="white"/>
<defs>
<clipPath id="clip0_5224_19472">
<rect width="40" height="40" fill="white" transform="translate(5 5.78711)"/>
</clipPath>
<clipPath id="clip1_5224_19472">
<rect width="40" height="40" fill="white" transform="translate(5 5.78711)"/>
</clipPath>
<clipPath id="clip2_5224_19472">
<rect width="40" height="40" fill="white" transform="translate(5 5.78711)"/>
</clipPath>
</defs>
</svg>
