<svg width="100" height="100" viewBox="0 0 100 100" fill="none" xmlns="http://www.w3.org/2000/svg">
<circle cx="50" cy="50" r="50" fill="#FF5D00" fill-opacity="0.1"/>
<path d="M50 54.875C54.7117 54.875 58.5312 51.0554 58.5312 46.3438C58.5312 41.6321 54.7117 37.8125 50 37.8125C45.2883 37.8125 41.4688 41.6321 41.4688 46.3438C41.4688 51.0554 45.2883 54.875 50 54.875Z" fill="#FF5D00"/>
<path d="M79.251 42.6875C77.7423 42.6918 76.2719 43.1625 75.0413 44.0353C73.8107 44.9081 72.8801 46.1401 72.3773 47.5625H69.3304C68.7914 43.2681 66.839 39.275 63.7807 36.2123C60.7225 33.1497 56.7322 31.1915 52.4385 30.6463V27.6238C54.0648 27.0488 55.4355 25.9174 56.3084 24.4295C57.1812 22.9416 57.4999 21.1931 57.2082 19.4929C56.9165 17.7928 56.0332 16.2505 54.7143 15.1387C53.3955 14.0268 51.726 13.417 50.001 13.417C48.276 13.417 46.6066 14.0268 45.2877 15.1387C43.9689 16.2505 43.0855 17.7928 42.7938 19.4929C42.5021 21.1931 42.8208 22.9416 43.6937 24.4295C44.5665 25.9174 45.9372 27.0488 47.5635 27.6238V30.6463C43.2698 31.1915 39.2796 33.1497 36.2213 36.2123C33.1631 39.275 31.2106 43.2681 30.6716 47.5625H27.6248C27.0498 45.9362 25.9183 44.5655 24.4305 43.6927C22.9426 42.8199 21.1941 42.5011 19.4939 42.7928C17.7938 43.0845 16.2515 43.9679 15.1396 45.2867C14.0278 46.6056 13.418 48.275 13.418 50C13.418 51.725 14.0278 53.3945 15.1396 54.7133C16.2515 56.0322 17.7938 56.9155 19.4939 57.2072C21.1941 57.4989 22.9426 57.1802 24.4305 56.3074C25.9183 55.4346 27.0498 54.0639 27.6248 52.4375H30.6716C30.9344 54.557 31.5524 56.6171 32.4998 58.5313C33.7573 55.9545 35.5724 53.6898 37.8135 51.9013C37.007 50.1598 36.591 48.263 36.5948 46.3438C36.6032 43.2129 37.7033 40.183 39.7055 37.7759C41.7076 35.3689 44.4865 33.7354 47.5635 33.1569C49.1748 32.8584 50.8272 32.8584 52.4385 33.1569C55.5155 33.7354 58.2944 35.3689 60.2966 37.7759C62.2987 40.183 63.3988 43.2129 63.4073 46.3438C63.411 48.263 62.9951 50.1598 62.1885 51.9013C64.4296 53.6898 66.2447 55.9545 67.5023 58.5313C68.4496 56.6171 69.0676 54.557 69.3304 52.4375H72.3773C72.8244 53.7023 73.6109 54.8197 74.6506 55.6674C75.6903 56.5151 76.9431 57.0605 78.272 57.2439C79.6009 57.4272 80.9546 57.2415 82.1851 56.707C83.4155 56.1725 84.4751 55.3099 85.2481 54.2135C86.0211 53.1171 86.4775 51.8292 86.5676 50.4907C86.6576 49.1522 86.3777 47.8148 85.7585 46.6248C85.1393 45.4347 84.2047 44.438 83.0569 43.7435C81.9092 43.0491 80.5925 42.6838 79.251 42.6875Z" fill="#FF5D00"/>
<path d="M74.8141 74.0827C73.744 73.0179 72.3706 72.3104 70.8824 72.0573C69.3942 71.8042 67.8641 72.0178 66.5022 72.6689L60.3109 66.4777C61.7164 65.6176 63.003 64.5768 64.1378 63.382C63.3724 60.4591 61.7205 57.8449 59.4091 55.8989C56.8978 58.3642 53.5194 59.7453 50.0003 59.7453C46.4813 59.7453 43.1028 58.3642 40.5916 55.8989C38.2801 57.8449 36.6282 60.4591 35.8628 63.382C37.0218 64.6009 38.3325 65.6658 39.7628 66.5508L33.6203 72.6933C32.2579 72.072 30.7408 71.8723 29.264 72.1199C27.7871 72.3674 26.4181 73.051 25.3328 74.0827C24.3798 75.0272 23.7051 76.2157 23.3825 77.5181C23.0599 78.8205 23.1018 80.1865 23.5037 81.4667C23.9056 82.7468 24.652 83.8917 25.6611 84.776C26.6702 85.6603 27.9032 86.2499 29.225 86.4803C30.5468 86.7106 31.9066 86.5729 33.1553 86.0821C34.4041 85.5913 35.4937 84.7663 36.305 83.6976C37.1162 82.6289 37.6178 81.3576 37.7548 80.0228C37.8917 78.6881 37.6588 77.3414 37.0816 76.1302L44.5159 68.8177C48.1302 69.9229 51.9923 69.9229 55.6066 68.8177L63.0653 76.3008C62.488 77.512 62.2551 78.8587 62.3921 80.1934C62.5291 81.5282 63.0306 82.7995 63.8419 83.8682C64.6531 84.937 65.7428 85.7619 66.9915 86.2527C68.2403 86.7435 69.6 86.8812 70.9218 86.6509C72.2437 86.4205 73.4766 85.8309 74.4858 84.9466C75.4949 84.0623 76.2412 82.9175 76.6431 81.6373C77.045 80.3572 77.087 78.9911 76.7644 77.6887C76.4417 76.3863 75.767 75.1978 74.8141 74.2533V74.0827Z" fill="#FF5D00"/>
</svg>
