<svg width="51" height="45" viewBox="0 0 51 45" fill="none" xmlns="http://www.w3.org/2000/svg">
<path d="M44.883 41.8577H6.11787C4.71028 41.8577 3.55859 40.6886 3.55859 39.2597V5.73469C3.55859 4.30582 4.71028 3.13672 6.11787 3.13672H44.883C46.2906 3.13672 47.4423 4.30582 47.4423 5.73469V39.2597C47.4423 40.6886 46.2906 41.8577 44.883 41.8577Z" stroke="#A3ACB5" stroke-width="1.5" stroke-miterlimit="10" stroke-linecap="round" stroke-linejoin="round"/>
<path d="M3.55859 10.1797H47.4423" stroke="#A3ACB5" stroke-width="1.5" stroke-miterlimit="10" stroke-linecap="round" stroke-linejoin="round"/>
<path d="M18.5163 25.79C20.9672 23.302 20.9672 19.2683 18.5163 16.7803C16.0654 14.2924 12.0917 14.2924 9.64084 16.7803C7.18996 19.2683 7.18996 23.302 9.64084 25.79C12.0917 28.2779 16.0654 28.2779 18.5163 25.79Z" stroke="#A3ACB5" stroke-width="1.5" stroke-miterlimit="10" stroke-linecap="round" stroke-linejoin="round"/>
<path d="M14.078 23.9139C15.5082 23.9139 16.6677 22.737 16.6677 21.2851C16.6677 19.8332 15.5082 18.6562 14.078 18.6562C12.6477 18.6562 11.4883 19.8332 11.4883 21.2851C11.4883 22.737 12.6477 23.9139 14.078 23.9139Z" stroke="#A3ACB5" stroke-width="1.5" stroke-miterlimit="10" stroke-linecap="round" stroke-linejoin="round"/>
<path d="M11.9453 15.293L13.1999 18.8115" stroke="#A3ACB5" stroke-width="1.5" stroke-miterlimit="10" stroke-linecap="round" stroke-linejoin="round"/>
<path d="M14.9609 23.7539L16.2156 27.2724" stroke="#A3ACB5" stroke-width="1.5" stroke-miterlimit="10" stroke-linecap="round" stroke-linejoin="round"/>
<path d="M16.5117 20.3869L19.9779 19.1133" stroke="#A3ACB5" stroke-width="1.5" stroke-miterlimit="10" stroke-linecap="round" stroke-linejoin="round"/>
<path d="M8.17578 23.4533L11.6419 22.1797" stroke="#A3ACB5" stroke-width="1.5" stroke-miterlimit="10" stroke-linecap="round" stroke-linejoin="round"/>
<path d="M23.6875 26.7188H44.1347" stroke="#A3ACB5" stroke-width="1.5" stroke-miterlimit="10" stroke-linecap="round" stroke-linejoin="round"/>
<path d="M28.7404 26.7163H25.2728C25.0755 26.7163 24.9141 26.5524 24.9141 26.3521V17.4306C24.9141 17.2303 25.0755 17.0664 25.2728 17.0664H28.7404C28.9377 17.0664 29.0992 17.2303 29.0992 17.4306V26.3521C29.0992 26.5524 28.9377 26.7163 28.7404 26.7163Z" stroke="#A3ACB5" stroke-width="1.5" stroke-miterlimit="10" stroke-linecap="round" stroke-linejoin="round"/>
<path d="M35.6126 26.7185H32.221C32.0028 26.7185 31.8242 26.5372 31.8242 26.3157V15.3168C31.8242 15.0953 32.0028 14.9141 32.221 14.9141H35.6126C35.8308 14.9141 36.0093 15.0953 36.0093 15.3168V26.3157C36.0093 26.5372 35.8308 26.7185 35.6126 26.7185Z" stroke="#A3ACB5" stroke-width="1.5" stroke-miterlimit="10" stroke-linecap="round" stroke-linejoin="round"/>
<path d="M42.4826 26.7174H39.1557C38.9196 26.7174 38.7266 26.5214 38.7266 26.2818V13.3457C38.7266 13.1062 38.9196 12.9102 39.1557 12.9102H42.4826C42.7186 12.9102 42.9117 13.1062 42.9117 13.3457V26.2818C42.9117 26.5214 42.7186 26.7174 42.4826 26.7174Z" stroke="#A3ACB5" stroke-width="1.5" stroke-miterlimit="10" stroke-linecap="round" stroke-linejoin="round"/>
<path d="M12.2185 33.2101H11.2177C10.9175 33.2101 10.6719 32.9608 10.6719 32.656V31.6401C10.6719 31.3353 10.9175 31.0859 11.2177 31.0859H12.2185C12.5188 31.0859 12.7644 31.3353 12.7644 31.6401V32.656C12.7644 32.9608 12.5188 33.2101 12.2185 33.2101Z" fill="#283A8F" stroke="#A3ACB5" stroke-miterlimit="10" stroke-linecap="round" stroke-linejoin="round"/>
<path d="M12.2185 38.5499H11.2177C10.9175 38.5499 10.6719 38.3006 10.6719 37.9958V36.9799C10.6719 36.6751 10.9175 36.4258 11.2177 36.4258H12.2185C12.5188 36.4258 12.7644 36.6751 12.7644 36.9799V37.9958C12.7644 38.3006 12.5188 38.5499 12.2185 38.5499Z" fill="#283A8F" stroke="#A3ACB5" stroke-miterlimit="10" stroke-linecap="round" stroke-linejoin="round"/>
<path d="M14.707 32.1484H40.8639" stroke="#A3ACB5" stroke-width="1.5" stroke-miterlimit="10" stroke-linecap="round" stroke-linejoin="round"/>
<path d="M14.707 37.4883H40.8639" stroke="#A3ACB5" stroke-width="1.5" stroke-miterlimit="10" stroke-linecap="round" stroke-linejoin="round"/>
</svg>
