<svg width="95" height="94" viewBox="0 0 95 94" fill="none" xmlns="http://www.w3.org/2000/svg">
<path d="M58.3311 41.1833C59.28 41.1833 60.2103 41.2633 61.1171 41.4172L61.197 41.7506C62.3241 46.4556 67.1317 49.2526 71.7418 47.8878C72.913 49.4074 73.8513 51.1304 74.5 52.9979C71.0712 56.3267 71.0712 61.8565 74.4996 65.1852C73.8513 67.0528 72.913 68.7755 71.7418 70.2956C67.1317 68.9305 62.3241 71.7275 61.197 76.4328L61.1171 76.7659C60.2103 76.92 59.28 77 58.3311 77C57.3827 77 56.4524 76.92 55.5456 76.7659L55.4657 76.4328C54.3386 71.7275 49.5309 68.9305 44.9207 70.2956C43.7495 68.7755 42.8114 67.0528 42.1628 65.1852C45.5914 61.8565 45.5914 56.3267 42.1628 52.9978C42.8114 51.1304 43.7495 49.4074 44.9207 47.8878C49.5309 49.2526 54.3386 46.4556 55.4657 41.7506L55.5456 41.4172C56.4524 41.2633 57.3827 41.1833 58.3311 41.1833ZM59.3868 21C65.7717 21 70.9477 26.2116 70.9477 32.6404V42.1616C69.0655 40.7376 66.9388 39.6243 64.6417 38.8974V33.6943H26.8059V60.154C26.8059 63.0764 29.1587 65.4452 32.0609 65.4452H38.2754C38.9974 67.7579 40.103 69.8998 41.5173 71.7945H32.0609C25.676 71.7945 20.5 66.5829 20.5 60.154V32.6404C20.5 26.2116 25.676 21 32.0609 21H59.3868ZM58.3311 54.2074C55.7423 54.2074 53.6433 56.394 53.6433 59.0916C53.6433 61.7888 55.7423 63.9755 58.3311 63.9755C60.9204 63.9755 63.0194 61.7888 63.0194 59.0916C63.0194 56.394 60.9204 54.2074 58.3311 54.2074ZM45.7197 37.9226C46.8805 37.9226 47.8216 38.8701 47.8216 40.039V40.7586C46.2872 41.6524 44.8753 42.7358 43.6177 43.9772V42.1554H35.2098V56.9751H37.4155C37.3469 57.6714 37.3117 58.3775 37.3117 59.0916C37.3117 59.8057 37.3469 60.5117 37.4155 61.208H33.1078C31.9469 61.208 31.0058 60.2603 31.0058 59.0916V40.039C31.0058 38.8701 31.9469 37.9226 33.1078 37.9226H45.7197Z" fill="#FF5D00"/>
</svg>
