<svg width="101" height="100" viewBox="0 0 101 100" fill="none" xmlns="http://www.w3.org/2000/svg">
<path d="M100.5 50C100.5 77.6142 78.1142 100 50.5 100C22.8858 100 0.5 77.6142 0.5 50C0.5 22.3858 22.8858 0 50.5 0C78.1142 0 100.5 22.3858 100.5 50Z" fill="#FF5D00" fill-opacity="0.1"/>
<path d="M72.1845 25.152L47.1131 46.5091C47.0152 46.5922 46.9356 46.6946 46.8793 46.81C46.8229 46.9253 46.7912 47.0511 46.7859 47.1794C46.7807 47.3077 46.8021 47.4356 46.8488 47.5552C46.8956 47.6748 46.9666 47.7834 47.0574 47.8741L52.6288 53.4455C52.7156 53.5316 52.8185 53.5997 52.9316 53.6459C53.0447 53.6921 53.1659 53.7155 53.2881 53.7148C53.4159 53.7096 53.5413 53.6781 53.6563 53.6221C53.7714 53.5662 53.8736 53.4871 53.9567 53.3898L75.3138 28.3184C75.4669 28.1409 75.5471 27.9121 75.5385 27.6779C75.5299 27.4437 75.433 27.2213 75.2673 27.0556L73.4102 25.1984C73.2465 25.043 73.0317 24.9526 72.8061 24.944C72.5805 24.9355 72.3595 25.0094 72.1845 25.152Z" fill="#FB670F"/>
<path d="M36.5709 46.2863C38.1094 46.2863 39.3566 45.0391 39.3566 43.5006C39.3566 41.962 38.1094 40.7148 36.5709 40.7148C35.0324 40.7148 33.7852 41.962 33.7852 43.5006C33.7852 45.0391 35.0324 46.2863 36.5709 46.2863Z" fill="#FB670F"/>
<path d="M44.4723 52.6826C43.8492 52.4724 43.1796 52.4411 42.5395 52.5921C41.8994 52.7431 41.3144 53.0704 40.8509 53.5369L40.5073 53.8805C40.3055 54.0825 40.1921 54.3564 40.1921 54.6419C40.1921 54.9275 40.3055 55.2014 40.5073 55.4034C40.8604 55.7574 41.1172 56.1957 41.2533 56.6769C41.3893 57.158 41.4002 57.6659 41.2849 58.1524C41.1695 58.6389 40.9318 59.0879 40.5942 59.4567C40.2566 59.8255 39.8303 60.102 39.3559 60.2598L36.7188 61.1419L38.8637 61.8569C39.8787 62.1976 40.9512 62.3337 42.0191 62.2572C43.087 62.1807 44.1291 61.8931 45.0852 61.4112C45.9259 60.9935 46.6235 60.3353 47.0893 59.5203C47.5552 58.7053 47.7683 57.7702 47.7017 56.8338C47.635 55.8975 47.2915 55.002 46.7149 54.2612C46.1382 53.5204 45.3544 52.9678 44.463 52.6734L44.4723 52.6826Z" fill="#FB670F"/>
<path d="M43.072 36.9994C44.0977 36.9994 44.9291 36.168 44.9291 35.1423C44.9291 34.1166 44.0977 33.2852 43.072 33.2852C42.0463 33.2852 41.2148 34.1166 41.2148 35.1423C41.2148 36.168 42.0463 36.9994 43.072 36.9994Z" fill="#FB670F"/>
<path d="M55.403 54.6429C55.1497 54.9263 54.8411 55.1549 54.4961 55.3146C54.1512 55.4743 53.7772 55.5617 53.3972 55.5715H53.2858C52.5473 55.5708 51.8392 55.2769 51.3173 54.7543L45.7458 49.1829C45.4743 48.9114 45.2619 48.5868 45.1219 48.2293C44.9818 47.8718 44.9172 47.4892 44.932 47.1056C44.9468 46.7219 45.0408 46.3455 45.208 45.9999C45.3752 45.6542 45.6121 45.3469 45.9037 45.0972L63.5001 30.1101L63.3051 29.9151C61.4322 28.0336 59.2049 26.5421 56.7519 25.5269C54.299 24.5116 51.6691 23.9926 49.0144 24.0001C45.6079 23.9912 42.2547 24.8448 39.2671 26.4815C36.2796 28.1181 33.755 30.4845 31.9287 33.3601C27.0562 41.0253 24.4786 49.9245 24.5001 59.0072C24.5001 62.8355 25.7929 66.5517 28.1689 69.5535C30.5448 72.5552 33.8648 74.6668 37.5908 75.5459C41.3169 76.425 45.2306 76.0202 48.6977 74.397C52.1649 72.7738 54.9824 70.0275 56.6937 66.6029C56.9702 66.0522 57.3736 65.575 57.8706 65.2107C58.3676 64.8464 58.944 64.6053 59.5525 64.5074C60.1609 64.4095 60.7838 64.4575 61.3701 64.6474C61.9563 64.8374 62.489 65.1639 62.9244 65.6L63.7044 66.38C64.7524 67.4294 66.0882 68.1442 67.5427 68.4339C68.9972 68.7236 70.505 68.5752 71.8751 68.0075C73.2452 67.4397 74.416 66.4782 75.2394 65.2446C76.0627 64.0111 76.5014 62.561 76.5001 61.0779C76.5232 52.8268 74.1665 44.7442 69.7122 37.7986L55.403 54.6429ZM50.5001 27.7144C51.0511 27.7144 51.5897 27.8777 52.0478 28.1838C52.5059 28.4899 52.8629 28.925 53.0738 29.434C53.2846 29.943 53.3398 30.5032 53.2323 31.0435C53.1248 31.5839 52.8595 32.0803 52.4699 32.4699C52.0803 32.8595 51.5839 33.1248 51.0436 33.2323C50.5032 33.3397 49.9431 33.2846 49.4341 33.0737C48.925 32.8629 48.49 32.5058 48.1839 32.0477C47.8778 31.5896 47.7144 31.051 47.7144 30.5001C47.7144 29.7613 48.0079 29.0527 48.5303 28.5303C49.0527 28.0079 49.7613 27.7144 50.5001 27.7144ZM43.0715 31.4286C43.8062 31.4286 44.5243 31.6465 45.1351 32.0546C45.7459 32.4627 46.222 33.0428 46.5031 33.7215C46.7842 34.4002 46.8578 35.147 46.7145 35.8675C46.5711 36.588 46.2174 37.2499 45.6979 37.7693C45.1785 38.2888 44.5167 38.6425 43.7962 38.7858C43.0757 38.9292 42.3288 38.8556 41.6502 38.5745C40.9715 38.2933 40.3914 37.8173 39.9832 37.2065C39.5751 36.5957 39.3573 35.8775 39.3573 35.1429C39.3573 34.1578 39.7486 33.2131 40.4452 32.5165C41.1417 31.82 42.0865 31.4286 43.0715 31.4286ZM36.5716 38.8572C37.4898 38.8572 38.3875 39.1295 39.151 39.6397C39.9145 40.1498 40.5096 40.8749 40.861 41.7233C41.2124 42.5717 41.3043 43.5052 41.1252 44.4058C40.946 45.3065 40.5039 46.1337 39.8545 46.7831C39.2052 47.4324 38.378 47.8746 37.4773 48.0537C36.5767 48.2328 35.6432 48.1409 34.7948 47.7895C33.9464 47.4381 33.2213 46.843 32.7112 46.0795C32.201 45.316 31.9287 44.4183 31.9287 43.5001C31.9287 42.2687 32.4179 41.0878 33.2886 40.2171C34.1593 39.3464 35.3402 38.8572 36.5716 38.8572ZM45.9223 63.0743C44.5368 63.7729 43.0074 64.1385 41.4558 64.1422C40.3763 64.1395 39.3041 63.9639 38.2801 63.6222L33.4887 62.0715C33.3029 62.0104 33.1412 61.8923 33.0265 61.7339C32.9118 61.5754 32.8501 61.3849 32.8501 61.1893C32.8501 60.9938 32.9118 60.8032 33.0265 60.6448C33.1412 60.4864 33.3029 60.3682 33.4887 60.3072L38.7723 58.5522C38.9477 58.4949 39.1051 58.3929 39.2289 58.256C39.3526 58.1192 39.4385 57.9524 39.478 57.7722C39.5206 57.5929 39.5165 57.4058 39.4661 57.2286C39.4157 57.0514 39.3207 56.8901 39.1901 56.76C38.6424 56.2101 38.3348 55.4655 38.3348 54.6893C38.3348 53.9131 38.6424 53.1686 39.1901 52.6186L39.5337 52.2751C40.2442 51.5534 41.1444 51.0475 42.1303 50.8158C43.1162 50.5841 44.1475 50.6361 45.1051 50.9658C46.3399 51.3811 47.4243 52.1524 48.2216 53.1827C49.019 54.2129 49.4937 55.4561 49.586 56.7556C49.6784 58.0551 49.3842 59.3529 48.7405 60.4855C48.0968 61.6182 47.1324 62.5351 45.9687 63.1208L45.9223 63.0743Z" fill="#FB670F"/>
<path d="M50.4989 31.4275C51.0117 31.4275 51.4275 31.0117 51.4275 30.4989C51.4275 29.986 51.0117 29.5703 50.4989 29.5703C49.986 29.5703 49.5703 29.986 49.5703 30.4989C49.5703 31.0117 49.986 31.4275 50.4989 31.4275Z" fill="#FB670F"/>
</svg>
