<svg width="101" height="100" viewBox="0 0 101 100" fill="none" xmlns="http://www.w3.org/2000/svg">
<circle cx="50.5" cy="50" r="50" fill="#FF5D00" fill-opacity="0.1"/>
<path fill-rule="evenodd" clip-rule="evenodd" d="M42.5904 71.2961C39.4461 71.2961 35.2233 69.6913 33.0808 67.0572C22.8108 67.0572 22.5 81 22.5 81H62.4869C62.4869 81 63.2913 67 51.7489 67C49.6137 69.6628 45.7419 71.2961 42.5904 71.2961Z" fill="#FF5D00"/>
<path fill-rule="evenodd" clip-rule="evenodd" d="M51.5 49.0488C51.5 53.4962 47.4721 62 42.5 62C37.5279 62 33.5 53.4962 33.5 49.0488C33.5 44.6084 37.5243 41 42.5 41C47.4721 41 51.5 44.6084 51.5 49.0488Z" fill="#FF5D00"/>
<path fill-rule="evenodd" clip-rule="evenodd" d="M64.4981 28C57.3249 28 51.5 32.324 51.5 37.6711C51.5 42.5478 56.3597 46.5656 62.6579 47.2339L58.9549 54L69.3053 46.6477C74.1012 45.225 77.5 41.7449 77.5 37.6711C77.4962 32.324 71.6788 28 64.4981 28Z" fill="#FF5D00"/>
</svg>
