<svg width="134" height="51" viewBox="0 0 134 51" fill="none" xmlns="http://www.w3.org/2000/svg">
<path fill-rule="evenodd" clip-rule="evenodd" d="M50 0.787109H0V50.7871H50V0.787109ZM7.60938 27.8809C7.80793 27.4722 7.84693 27.0042 7.71875 26.5684C7.6614 26.3954 7.57121 26.2352 7.45313 26.0965C7.29649 25.9117 7.12165 25.7431 6.93125 25.5934C6.65978 25.3763 6.38152 25.1678 6.09687 24.9684C5.84966 24.7941 5.61473 24.603 5.39375 24.3965C5.32978 24.3388 5.27843 24.2684 5.24294 24.1899C5.20745 24.1114 5.18857 24.0264 5.1875 23.9402C5.1875 23.7621 5.26562 23.6121 5.41875 23.4934C5.58871 23.3691 5.79588 23.3062 6.00625 23.3152C6.39375 23.3152 6.7625 23.434 7.1125 23.6715L7.62813 22.8746C7.35134 22.7034 7.0514 22.5729 6.7375 22.4871C6.41369 22.3987 6.07941 22.3546 5.74375 22.3559C5.41875 22.3559 5.11875 22.3996 4.84375 22.484C4.58632 22.5578 4.34476 22.6786 4.13125 22.8402C3.93798 22.9876 3.77909 23.1753 3.66563 23.3902C3.55123 23.6123 3.49328 23.8592 3.49688 24.109C3.49688 24.3371 3.5375 24.5434 3.62188 24.7215C3.70551 24.898 3.81622 25.0604 3.95 25.2027C4.0875 25.3496 4.2375 25.484 4.40625 25.609C4.57188 25.7371 4.74375 25.859 4.91875 25.9777L5.48125 26.384C5.60432 26.4749 5.71838 26.5775 5.82188 26.6902C5.90313 26.784 5.9625 26.8777 5.99063 26.9652C6.0222 27.0578 6.03805 27.155 6.0375 27.2527C6.04142 27.36 6.0203 27.4666 5.97582 27.5643C5.93134 27.6619 5.86472 27.7478 5.78125 27.8152C5.58715 27.9634 5.3471 28.0387 5.10313 28.0277C4.87066 28.0265 4.64129 27.9742 4.43125 27.8746C4.16673 27.7448 3.91906 27.5832 3.69375 27.3934L3.125 28.2809C3.46875 28.5434 3.8125 28.7309 4.15313 28.8434C4.49688 28.959 4.88125 29.0152 5.3125 29.0152C5.67188 29.0152 6.00625 28.9684 6.30938 28.8746C6.59041 28.792 6.85482 28.6609 7.09063 28.4871C7.30732 28.3283 7.48477 28.1189 7.60938 27.8809ZM15.2563 24.2559C15.3969 24.6434 15.4688 25.0746 15.4688 25.5496C15.4688 26.0496 15.3906 26.509 15.2281 26.9309C15.0719 27.3496 14.85 27.7152 14.5656 28.0277C14.2808 28.3445 13.9316 28.5967 13.5414 28.7675C13.1512 28.9384 12.729 29.0239 12.3031 29.0184C12.1124 29.0196 11.922 29.0029 11.7344 28.9684C11.5606 28.9345 11.3923 28.8766 11.2344 28.7965C11.0658 28.7104 10.9075 28.6056 10.7625 28.484C10.6063 28.359 10.45 28.2027 10.2781 28.0152V32.0371H8.58438V22.5121H10.2812L10.2906 23.4371C10.5607 23.095 10.9019 22.8156 11.2906 22.6184C11.6855 22.4381 12.116 22.3495 12.55 22.359C13.1448 22.3433 13.7289 22.5188 14.2166 22.8597C14.7042 23.2005 15.0697 23.6888 15.2594 24.2527L15.2563 24.2559ZM17.9625 28.8621H16.2188V19.5371H17.9594V28.859L17.9625 28.8621ZM25.3906 22.5059V28.8652L23.6531 28.8684L23.6469 28.0184C23.3576 28.3406 23.007 28.6019 22.6156 28.7871C22.2271 28.9501 21.8087 29.0299 21.3875 29.0215C20.9318 29.0367 20.4798 28.9345 20.075 28.7246C19.7211 28.5297 19.4468 28.2167 19.3 27.8402C19.2566 27.7463 19.2241 27.6478 19.2031 27.5465C19.1473 27.2822 19.1159 27.0134 19.1094 26.7434C19.1036 26.5351 19.1005 26.3267 19.1 26.1184V22.5059H20.8406V26.1465C20.8406 26.4684 20.8563 26.7152 20.8875 26.884C20.9188 27.0527 20.975 27.2059 21.0531 27.3402C21.2563 27.6996 21.6156 27.8777 22.1281 27.8777C22.7844 27.8777 23.2312 27.6121 23.4781 27.0871C23.5429 26.9427 23.5881 26.7903 23.6125 26.634C23.6375 26.4684 23.65 26.234 23.65 25.9277V22.5059H25.3906ZM32.8906 25.2559V28.8621H31.1563V25.2246C31.1611 24.9789 31.1454 24.7333 31.1094 24.4902C31.0823 24.3298 31.0273 24.1754 30.9469 24.034C30.7438 23.6777 30.3844 23.5027 29.8719 23.5027C29.5786 23.4936 29.288 23.5603 29.0281 23.6965C28.795 23.8262 28.6115 24.0295 28.5062 24.2746C28.4434 24.4223 28.4013 24.5779 28.3813 24.7371C28.3594 24.9027 28.35 25.134 28.35 25.4277V28.8559H26.5938V22.5121H28.3438L28.35 23.3621C28.6397 23.0403 28.9902 22.7791 29.3813 22.5934C29.7693 22.4286 30.1878 22.3477 30.6094 22.3559C31.1281 22.3559 31.5656 22.459 31.9219 22.6684C32.1399 22.7918 32.3296 22.9596 32.4787 23.1609C32.6278 23.3622 32.733 23.5926 32.7875 23.8371C32.8486 24.0953 32.8821 24.3593 32.8875 24.6246C32.8937 24.7965 32.8969 25.0059 32.8969 25.2496L32.8906 25.2559ZM37.4438 25.2684L40.0969 28.4434L38.4719 28.9902L35.8469 25.4871V28.8621H34.0969V19.5371H35.8469V25.0121H36.0344L38.3656 22.409L39.6844 22.9559L37.4438 25.2684ZM46.875 25.1246V26.1621L41.6 28.6902V27.5746L45.6875 25.6309L41.6 23.7152V22.5746L46.875 25.1246ZM41.525 21.4996C41.525 21.1809 41.7875 20.9277 42.1094 20.9277C42.4344 20.9277 42.6969 21.1777 42.6969 21.4965C42.6973 21.5732 42.6823 21.6492 42.6528 21.72C42.6233 21.7908 42.5798 21.8549 42.525 21.9085C42.4702 21.9622 42.4052 22.0042 42.3338 22.0322C42.2624 22.0602 42.186 22.0736 42.1094 22.0715C42.0331 22.0727 41.9573 22.0588 41.8865 22.0304C41.8156 22.0021 41.7511 21.9599 41.6967 21.9064C41.6423 21.8529 41.5991 21.7891 41.5696 21.7187C41.5402 21.6483 41.525 21.5759 41.525 21.4996Z" fill="black"/>
<path d="M79.7159 21.878C79.6307 21.1583 79.285 20.5996 78.679 20.2019C78.0729 19.8042 77.3295 19.6053 76.4489 19.6053C75.8049 19.6053 75.2415 19.7095 74.7585 19.9178C74.2803 20.1261 73.9063 20.4126 73.6364 20.7772C73.3712 21.1417 73.2386 21.556 73.2386 22.0201C73.2386 22.4083 73.331 22.7421 73.5156 23.0215C73.705 23.2961 73.9465 23.5257 74.2401 23.7104C74.5336 23.8903 74.8414 24.0395 75.1634 24.1578C75.4853 24.2715 75.7812 24.3638 76.0511 24.4348L77.5284 24.8326C77.9072 24.932 78.3286 25.0693 78.7926 25.2445C79.2614 25.4197 79.7088 25.6588 80.1349 25.9618C80.5658 26.2601 80.9209 26.6436 81.2003 27.1124C81.4796 27.5811 81.6193 28.1564 81.6193 28.8382C81.6193 29.6242 81.4134 30.3345 81.0014 30.9689C80.5942 31.6034 79.9976 32.1077 79.2116 32.4817C78.4304 32.8558 77.4811 33.0428 76.3636 33.0428C75.322 33.0428 74.42 32.8747 73.6577 32.5385C72.9001 32.2024 72.3035 31.7336 71.8679 31.1323C71.437 30.531 71.1932 29.8326 71.1364 29.0371H72.9545C73.0019 29.5864 73.1866 30.0409 73.5085 30.4007C73.8352 30.7559 74.2472 31.021 74.7443 31.1962C75.2462 31.3667 75.786 31.4519 76.3636 31.4519C77.036 31.4519 77.6397 31.343 78.1747 31.1252C78.7098 30.9026 79.1335 30.5949 79.446 30.2019C79.7585 29.8042 79.9148 29.3401 79.9148 28.8098C79.9148 28.3269 79.7798 27.9339 79.5099 27.6309C79.2401 27.3278 78.8849 27.0816 78.4446 26.8922C78.0043 26.7028 77.5284 26.5371 77.017 26.3951L75.2273 25.8837C74.0909 25.557 73.1913 25.0906 72.5284 24.4846C71.8655 23.8785 71.5341 23.0854 71.5341 22.1053C71.5341 21.2909 71.7543 20.5807 72.1946 19.9746C72.6397 19.3638 73.2363 18.8903 73.9844 18.5542C74.7372 18.2132 75.5777 18.0428 76.5057 18.0428C77.4432 18.0428 78.2765 18.2109 79.0057 18.5471C79.7348 18.8785 80.3125 19.333 80.7386 19.9107C81.1695 20.4883 81.3968 21.1441 81.4205 21.878H79.7159ZM84.288 36.878V21.878H85.9073V23.611H86.1062C86.2293 23.4216 86.3997 23.1801 86.6175 22.8865C86.8401 22.5882 87.1573 22.3231 87.5692 22.0911C87.9859 21.8543 88.5494 21.736 89.2596 21.736C90.1781 21.736 90.9878 21.9656 91.6886 22.4249C92.3893 22.8842 92.9362 23.5352 93.3292 24.378C93.7222 25.2208 93.9187 26.2151 93.9187 27.361C93.9187 28.5163 93.7222 29.5177 93.3292 30.3652C92.9362 31.208 92.3917 31.8614 91.6957 32.3255C90.9996 32.7847 90.1971 33.0144 89.288 33.0144C88.5872 33.0144 88.0262 32.8984 87.6048 32.6664C87.1834 32.4296 86.859 32.1621 86.6317 31.8638C86.4045 31.5608 86.2293 31.3098 86.1062 31.111H85.9641V36.878H84.288ZM85.9357 27.3326C85.9357 28.1564 86.0565 28.8832 86.2979 29.513C86.5394 30.138 86.8922 30.628 87.3562 30.9831C87.8202 31.3335 88.3884 31.5087 89.0607 31.5087C89.7615 31.5087 90.3462 31.324 90.815 30.9547C91.2885 30.5807 91.6436 30.0788 91.8803 29.449C92.1218 28.8146 92.2425 28.1091 92.2425 27.3326C92.2425 26.5655 92.1242 25.8742 91.8874 25.2587C91.6554 24.6384 91.3027 24.1484 90.8292 23.7885C90.3604 23.4239 89.771 23.2417 89.0607 23.2417C88.3789 23.2417 87.806 23.4145 87.342 23.7601C86.878 24.101 86.5276 24.5792 86.2908 25.1948C86.0541 25.8056 85.9357 26.5182 85.9357 27.3326ZM98.1516 18.2417V32.7871H96.4755V18.2417H98.1516ZM108.097 28.3269V21.878H109.773V32.7871H108.097V30.9405H107.983C107.727 31.4945 107.33 31.9656 106.79 32.3539C106.25 32.7374 105.568 32.9292 104.744 32.9292C104.062 32.9292 103.456 32.78 102.926 32.4817C102.396 32.1787 101.979 31.7241 101.676 31.1181C101.373 30.5073 101.222 29.7379 101.222 28.8098V21.878H102.898V28.6962C102.898 29.4917 103.12 30.1261 103.565 30.5996C104.015 31.0731 104.588 31.3098 105.284 31.3098C105.701 31.3098 106.125 31.2033 106.555 30.9902C106.991 30.7772 107.356 30.4505 107.649 30.0101C107.947 29.5698 108.097 29.0087 108.097 28.3269ZM114.519 26.2246V32.7871H112.843V21.878H114.462V23.5826H114.604C114.86 23.0286 115.248 22.5835 115.769 22.2473C116.29 21.9064 116.962 21.736 117.786 21.736C118.525 21.736 119.171 21.8875 119.725 22.1905C120.279 22.4888 120.71 22.9434 121.017 23.5542C121.325 24.1602 121.479 24.9273 121.479 25.8553V32.7871H119.803V25.9689C119.803 25.1119 119.58 24.4443 119.135 23.9661C118.69 23.4831 118.079 23.2417 117.303 23.2417C116.768 23.2417 116.29 23.3577 115.868 23.5897C115.452 23.8217 115.123 24.1602 114.881 24.6053C114.64 25.0504 114.519 25.5901 114.519 26.2246ZM126.104 28.8098L126.076 26.736H126.417L131.19 21.878H133.263L128.178 27.0201H128.036L126.104 28.8098ZM124.542 32.7871V18.2417H126.218V32.7871H124.542ZM131.474 32.7871L127.212 27.3894L128.406 26.2246L133.604 32.7871H131.474Z" fill="white"/>
</svg>
