<svg width="50" height="50" viewBox="0 0 50 50" fill="none" xmlns="http://www.w3.org/2000/svg">
<g clip-path="url(#clip0_17110_23196)">
<path d="M26.9421 38.2042C26.9206 37.9308 26.9077 37.7531 26.9077 37.7531C26.9077 37.7531 26.0787 32.164 25.0918 30.4962C24.9357 30.2318 25.1088 29.1459 25.5445 27.5376C25.7992 27.978 26.8743 29.8618 27.0902 30.4688C27.3334 31.1551 27.3845 31.3517 27.3845 31.3517C27.3845 31.3517 26.7948 28.3176 25.8272 26.5472C26.0393 25.8314 26.2926 25.0403 26.5793 24.1946C26.9459 24.8376 27.8234 26.3946 28.0166 26.9346C28.0556 27.0456 28.0885 27.1399 28.1181 27.2262C28.1275 27.1743 28.137 27.1225 28.1465 27.0706C27.9249 26.1306 27.4898 24.4949 26.894 23.2864C28.2158 16.4069 32.7237 7.21156 37.3452 3.10887H7.19719C5.17663 3.10887 3.52344 4.76237 3.52344 6.78284V40.0305C3.52344 42.0509 5.17663 43.7041 7.19719 43.7041H27.0535C26.9103 41.971 26.8626 40.0536 26.9421 38.2042Z" fill="#0F80CC"/>
<path d="M25.5433 27.5373C25.7979 27.9777 26.8731 29.8616 27.089 30.4685C27.3321 31.1548 27.3833 31.3515 27.3833 31.3515C27.3833 31.3515 26.7936 28.3174 25.826 26.5469C26.0381 25.8311 26.2914 25.04 26.5781 24.1943C26.9133 24.7825 27.6749 26.1334 27.9502 26.7734C27.9604 26.6526 27.9707 26.5318 27.9813 26.4121C27.7374 25.4748 27.367 24.2477 26.8928 23.2861C28.11 16.952 32.0279 8.65801 36.2488 4.18039H7.19598C5.76127 4.18039 4.59375 5.34761 4.59375 6.78258V37.6045C11.1736 35.0792 19.1075 32.7708 25.9358 32.8697C25.6823 31.8922 25.3937 31.0082 25.0906 30.4959C24.9345 30.2315 25.1076 29.1457 25.5433 27.5373Z" fill="url(#paint0_linear_17110_23196)"/>
<path d="M44.3811 2.02031C42.3163 0.17897 39.8163 0.91861 37.349 3.10838C36.9827 3.4337 36.6173 3.79462 36.2537 4.18016C32.0328 8.65778 28.115 16.9518 26.8978 23.2859C27.3719 24.2475 27.7423 25.4745 27.9862 26.4119C28.0487 26.6524 28.1051 26.8781 28.1502 27.0701C28.2574 27.5245 28.3149 27.8192 28.3149 27.8192C28.3149 27.8192 28.2771 27.676 28.1218 27.2257C28.0922 27.1394 28.0593 27.0451 28.0203 26.9341C28.0036 26.8883 27.9805 26.8326 27.9552 26.7732C27.6798 26.1331 26.9182 24.7822 26.583 24.1941C26.2964 25.0398 26.043 25.8309 25.8309 26.5467C26.7985 28.3171 27.3882 31.3512 27.3882 31.3512C27.3882 31.3512 27.3371 31.1546 27.0939 30.4683C26.8781 29.8613 25.8029 27.9775 25.5482 27.5371C25.1125 29.1454 24.9394 30.2313 25.0955 30.4957C25.3986 31.008 25.6873 31.8919 25.9407 32.8695C26.5134 35.0717 26.9114 37.7526 26.9114 37.7526C26.9114 37.7526 26.9243 37.9303 26.9459 38.2037C26.8663 40.0531 26.914 41.9705 27.0572 43.7036C27.2469 45.9978 27.6041 47.9687 28.0593 49.0234L28.3683 48.8549C27.6999 46.7769 27.4284 44.0535 27.5473 40.9127C27.7272 36.112 28.8319 30.3226 30.8732 24.2884C34.3218 15.1794 39.1066 7.8708 43.4858 4.3805C39.4944 7.98518 34.0923 19.6532 32.4752 23.974C30.6645 28.8126 29.3814 33.3531 28.6081 37.7034C29.9423 33.625 34.2563 31.872 34.2563 31.872C34.2563 31.872 36.3722 29.2625 38.8449 25.5344C37.3637 25.8722 34.9316 26.4505 34.117 26.7929C32.9153 27.2969 32.5915 27.4689 32.5915 27.4689C32.5915 27.4689 36.484 25.0985 39.8235 24.0252C44.4163 16.7916 49.42 6.51536 44.3811 2.02031Z" fill="#003B57"/>
</g>
<defs>
<linearGradient id="paint0_linear_17110_23196" x1="22.8465" y1="4.86439" x2="22.8465" y2="35.7457" gradientUnits="userSpaceOnUse">
<stop stop-color="#97D9F6"/>
<stop offset="0.920245" stop-color="#0F80CC"/>
<stop offset="1" stop-color="#0F80CC"/>
</linearGradient>
<clipPath id="clip0_17110_23196">
<rect width="50" height="50" fill="white"/>
</clipPath>
</defs>
</svg>
