<svg width="50" height="50" viewBox="0 0 50 50" fill="none" xmlns="http://www.w3.org/2000/svg">
<path d="M5 24.7656C5 13.7199 13.9543 4.76562 25 4.76562C36.0457 4.76562 45 13.7199 45 24.7656C45 35.8113 36.0457 44.7656 25 44.7656C13.9543 44.7656 5 35.8113 5 24.7656Z" fill="#4361EE"/>
<path d="M28.6429 21.2585C28.5634 20.4564 28.222 19.8333 27.6188 19.3892C27.0156 18.9451 26.1969 18.723 25.1628 18.723C24.4602 18.723 23.8669 18.8224 23.383 19.0213C22.8991 19.2135 22.5279 19.482 22.2694 19.8267C22.0175 20.1714 21.8915 20.5625 21.8915 21C21.8783 21.3646 21.9545 21.6828 22.1202 21.9545C22.2926 22.2263 22.5279 22.4616 22.8262 22.6605C23.1245 22.8527 23.4692 23.0218 23.8603 23.1676C24.2514 23.3068 24.669 23.4261 25.1131 23.5256L26.9426 23.9631C27.8309 24.1619 28.6462 24.4271 29.3887 24.7585C30.1311 25.09 30.7741 25.4976 31.3176 25.9815C31.8612 26.4654 32.2821 27.0355 32.5804 27.6918C32.8854 28.348 33.0411 29.1004 33.0478 29.9489C33.0411 31.1951 32.723 32.2756 32.0932 33.1903C31.4701 34.0985 30.5686 34.8045 29.3887 35.3082C28.2154 35.8054 26.8001 36.054 25.1429 36.054C23.499 36.054 22.0672 35.8021 20.8475 35.2983C19.6344 34.7945 18.6865 34.0488 18.0037 33.0611C17.3276 32.0668 16.973 30.8371 16.9398 29.3722H21.106C21.1524 30.0549 21.348 30.625 21.6926 31.0824C22.044 31.5331 22.5113 31.8745 23.0946 32.1065C23.6846 32.3319 24.3508 32.4446 25.0932 32.4446C25.8224 32.4446 26.4554 32.3385 26.9924 32.1264C27.5359 31.9143 27.9569 31.6193 28.2551 31.2415C28.5534 30.8636 28.7026 30.4295 28.7026 29.9389C28.7026 29.4815 28.5667 29.0971 28.2949 28.7855C28.0298 28.474 27.6387 28.2088 27.1216 27.9901C26.6112 27.7713 25.9848 27.5724 25.2424 27.3935L23.025 26.8366C21.3082 26.419 19.9526 25.7661 18.9583 24.8778C17.964 23.9896 17.4701 22.7931 17.4767 21.2884C17.4701 20.0554 17.7982 18.9782 18.4611 18.0568C19.1306 17.1354 20.0487 16.4162 21.2154 15.8991C22.382 15.3821 23.7078 15.1236 25.1926 15.1236C26.704 15.1236 28.0231 15.3821 29.15 15.8991C30.2836 16.4162 31.1652 17.1354 31.7949 18.0568C32.4247 18.9782 32.7495 20.0455 32.7694 21.2585H28.6429Z" fill="white"/>
</svg>
