<svg width="74" height="75" viewBox="0 0 74 75" fill="none" xmlns="http://www.w3.org/2000/svg">
<g clip-path="url(#clip0_4145_2942)">
<path d="M69.1998 30.6742C70.0272 28.1825 70.3134 25.5429 70.0392 22.9318C69.765 20.3206 68.9367 17.7981 67.6097 15.5326C65.6425 12.1083 62.6386 9.39724 59.0312 7.79021C55.4238 6.18319 51.3993 5.76324 47.5379 6.59093C45.3441 4.15066 42.5468 2.3306 39.427 1.31353C36.3072 0.296465 32.9747 0.118208 29.7642 0.796661C26.5537 1.47511 23.5783 2.98639 21.1367 5.17871C18.6951 7.37103 16.8734 10.1672 15.8544 13.2864C13.2819 13.8139 10.8516 14.8844 8.72594 16.4264C6.60028 17.9684 4.82823 19.9464 3.5282 22.2281C1.53956 25.6466 0.689627 29.609 1.10128 33.5425C1.51294 37.4759 3.16485 41.1765 5.81819 44.1092C4.98774 46.5997 4.69871 49.2389 4.97043 51.8501C5.24215 54.4613 6.06835 56.9844 7.39378 59.2506C9.36353 62.6761 12.37 65.3878 15.98 66.9948C19.5899 68.6018 23.6169 69.0212 27.4805 68.1925C29.2234 70.1552 31.3649 71.7235 33.7622 72.7927C36.1594 73.8618 38.7572 74.4072 41.382 74.3925C45.3399 74.3961 49.1965 73.142 52.3952 70.8112C55.594 68.4803 57.9693 65.1933 59.1784 61.4246C61.7506 60.8962 64.1805 59.8252 66.3061 58.2833C68.4316 56.7413 70.2039 54.7638 71.5046 52.4826C73.4697 49.0691 74.305 45.1215 73.8911 41.2046C73.4771 37.2876 71.8351 33.6016 69.1998 30.6742ZM41.382 69.5492C38.1405 69.5543 35.0007 68.4182 32.5131 66.3401L32.9506 66.0922L47.6837 57.5877C48.0504 57.3727 48.3548 57.0659 48.5671 56.6976C48.7794 56.3293 48.8922 55.9121 48.8945 55.487V34.7149L55.1229 38.3181C55.1536 38.3337 55.1803 38.3564 55.2007 38.3842C55.221 38.4121 55.2345 38.4444 55.24 38.4785V55.6915C55.2322 59.3644 53.7696 62.8847 51.1724 65.4818C48.5752 68.079 45.0549 69.5415 41.382 69.5492ZM11.5948 56.8292C9.9692 54.0222 9.38552 50.7319 9.94647 47.537L10.3843 47.7997L25.1319 56.3041C25.4968 56.5182 25.9122 56.6311 26.3353 56.6311C26.7584 56.6311 27.1738 56.5182 27.5387 56.3041L45.554 45.9179V53.1095C45.5523 53.1468 45.5423 53.1832 45.5245 53.216C45.5068 53.2488 45.4819 53.2772 45.4517 53.2991L30.529 61.9056C27.3443 63.7402 23.5617 64.2361 20.0117 63.2843C16.4618 62.3325 13.4346 60.0109 11.5948 56.8292ZM7.71475 24.7373C9.35164 21.9122 11.9353 19.7575 15.0084 18.6545V36.1592C15.0028 36.5821 15.1109 36.9987 15.3213 37.3656C15.5316 37.7325 15.8366 38.0362 16.2044 38.245L34.1321 48.5875L27.9035 52.1903C27.8698 52.2082 27.8322 52.2176 27.794 52.2176C27.7559 52.2176 27.7183 52.2082 27.6846 52.1903L12.7912 43.5986C9.61243 41.7561 7.29341 38.7289 6.34195 35.1801C5.39048 31.6313 5.88412 27.8501 7.71475 24.6645V24.7373ZM58.8867 36.626L40.9007 26.1815L47.1148 22.5925C47.1485 22.5746 47.1861 22.5652 47.2243 22.5652C47.2624 22.5652 47.3 22.5746 47.3337 22.5925L62.2272 31.199C64.5044 32.513 66.3608 34.4476 67.5797 36.7771C68.7986 39.1066 69.3297 41.7347 69.111 44.3547C68.8923 46.9747 67.9328 49.4784 66.3446 51.5735C64.7563 53.6686 62.6048 55.2687 60.1413 56.187V38.6823C60.1284 38.2601 60.0059 37.8485 59.7859 37.488C59.5659 37.1274 59.2562 36.8306 58.8867 36.626ZM65.0863 27.3048L64.6485 27.0421L49.9302 18.4648C49.5631 18.2494 49.1451 18.1358 48.7194 18.1358C48.2937 18.1358 47.8757 18.2494 47.5086 18.4648L29.5084 28.8507V21.6595C29.5045 21.6229 29.5106 21.586 29.5261 21.5526C29.5415 21.5192 29.5656 21.4907 29.5959 21.4699L44.4894 12.8778C46.772 11.5629 49.3818 10.925 52.0137 11.0388C54.6455 11.1526 57.1906 12.0135 59.3511 13.5207C61.5117 15.0278 63.1985 17.119 64.2142 19.5497C65.2298 21.9803 65.5325 24.6499 65.0866 27.2462L65.0863 27.3048ZM26.109 40.0534L19.8807 36.465C19.8495 36.4463 19.8229 36.4209 19.8026 36.3907C19.7824 36.3605 19.769 36.3262 19.7635 36.2902V19.1213C19.7669 16.4874 20.5201 13.909 21.9349 11.6874C23.3498 9.46577 25.3678 7.69287 27.7532 6.57594C30.1385 5.45901 32.7925 5.04421 35.4048 5.38004C38.0172 5.71587 40.48 6.78845 42.5052 8.47238L42.0674 8.72059L27.3346 17.2244C26.9679 17.4395 26.6635 17.7462 26.4512 18.1145C26.2389 18.4828 26.1261 18.9 26.1238 19.3251L26.109 40.0534ZM29.4933 32.7601L37.5161 28.1357L45.554 32.7601V42.0083L37.5454 46.6323L29.5081 42.0083L29.4933 32.7601Z" fill="black"/>
</g>
<defs>
<clipPath id="clip0_4145_2942">
<rect width="74" height="74" fill="white" transform="translate(0 0.392578)"/>
</clipPath>
</defs>
</svg>
