<svg width="72" height="73" viewBox="0 0 72 73" fill="none" xmlns="http://www.w3.org/2000/svg">
<path d="M71.5709 29.2147C65.1353 26.8303 58.7041 24.4326 52.2773 22.0214C52.1611 21.9731 52.0365 21.9482 51.9106 21.9482C51.7847 21.9482 51.6601 21.9731 51.5438 22.0214C45.1331 24.4236 38.7189 26.816 32.3011 29.1986C32.1494 29.2339 32.0171 29.3261 31.9315 29.4561C31.8458 29.5861 31.8133 29.7441 31.8406 29.8973C31.8406 33.4444 31.8406 36.9889 31.8406 40.536C31.8406 43.9037 31.8406 47.2715 31.8406 50.6392C31.8384 51.806 32.0517 52.9632 32.4698 54.0525C33.5233 56.6017 35.147 58.8756 37.2162 60.6996C41.4917 64.5553 46.3452 67.7169 51.6 70.0693C51.7139 70.1204 51.8388 70.1421 51.9633 70.1322C52.0877 70.1224 52.2077 70.0815 52.3121 70.0131C55.0794 68.7303 57.75 67.2486 60.3032 65.5799C63.5658 63.5777 66.4846 61.0629 68.9474 58.1323C70.8179 56.0276 71.8945 53.3356 71.9912 50.5214C71.9912 43.6271 71.9912 36.7319 71.9912 29.8358C72.0165 29.6978 71.9866 29.5555 71.908 29.4393C71.8294 29.3232 71.7084 29.2425 71.5709 29.2147ZM67.4911 55.7176C65.6116 58.2219 63.3259 60.3936 60.7288 62.1426C58.0494 64.044 55.2193 65.7236 52.2666 67.1647C52.169 67.2289 52.0561 67.2659 51.9394 67.272C51.8227 67.2782 51.7065 67.2531 51.6027 67.1995C47.0089 65.0375 42.7614 62.2055 38.9991 58.7962C37.196 57.2199 35.79 55.2407 34.8952 53.0191C34.6152 52.2422 34.4739 51.4222 34.4775 50.5964C34.4775 47.5338 34.4775 44.4713 34.4775 41.4087C34.4775 38.1507 34.4775 34.8901 34.4775 31.6321C34.4584 31.4767 34.4988 31.3199 34.5908 31.1932C34.6827 31.0665 34.8192 30.9794 34.9728 30.9494C40.4822 28.9059 45.9853 26.8535 51.4823 24.7922C51.614 24.7366 51.7555 24.7079 51.8985 24.7079C52.0415 24.7079 52.1831 24.7366 52.3148 24.7922C57.8135 26.8535 63.3175 28.9059 68.8269 30.9494C68.9891 30.9801 69.1331 31.0721 69.2293 31.2061C69.3255 31.3402 69.3664 31.5061 69.3436 31.6695C69.3275 37.7384 69.3008 43.81 69.3436 49.8736C69.3738 51.9689 68.7238 54.0176 67.4911 55.7122V55.7176Z" fill="#004D40"/>
<path d="M62.6215 1.86572H37.7248L32.103 13.1094H0.781372V58.084H68.2433V1.86572H62.6215ZM62.6215 13.1094H40.6696L43.6144 7.48755H62.6215V13.1094Z" fill="#55BCAF"/>
<path d="M70.219 30.9494C70.203 37.3234 70.1708 43.6975 70.219 50.0716C70.2498 52.2746 69.566 54.4283 68.2701 56.2101C66.2956 58.8399 63.8962 61.1217 61.1706 62.9617C58.3562 64.9583 55.3838 66.7221 52.2827 68.2355C52.1806 68.3022 52.0626 68.3406 51.9407 68.3468C51.8189 68.3529 51.6976 68.3265 51.5893 68.2703C46.7642 65.9975 42.3037 63.0202 38.354 59.436C36.4604 57.7808 34.9838 55.7025 34.0439 53.3698C33.7497 52.5544 33.6019 51.6934 33.6075 50.8265C33.6075 47.6141 33.6075 44.4016 33.6075 41.1891C33.6075 37.7652 33.6075 34.3439 33.6075 30.9199C33.5869 30.7571 33.6292 30.5925 33.7256 30.4597C33.8221 30.3269 33.9656 30.2359 34.1269 30.2051C39.9093 28.0635 45.6873 25.9058 51.4608 23.732C51.5991 23.6744 51.7474 23.6448 51.8972 23.6448C52.047 23.6448 52.1953 23.6744 52.3336 23.732C58.1107 25.8986 63.8905 28.0537 69.6729 30.1971C69.8427 30.2292 69.9939 30.3249 70.0954 30.4648C70.1969 30.6046 70.2411 30.778 70.219 30.9494Z" fill="#13645D"/>
<path d="M54.9704 35.3291C54.6362 36.1252 54.4546 36.977 54.435 37.8402C54.435 37.9366 54.3333 38.0463 54.2529 38.1293C54.0028 38.3879 53.8402 38.7185 53.7881 39.0745C53.7361 39.4304 53.7973 39.7938 53.963 40.1131C54.1287 40.4324 54.3906 40.6916 54.7117 40.8539C55.0327 41.0163 55.3967 41.0736 55.7521 41.0179C55.2658 40.185 54.982 39.2495 54.9236 38.2868C54.8651 37.3242 55.0336 36.3612 55.4154 35.4756C55.7973 34.59 56.3818 33.8064 57.122 33.1881C57.8622 32.5698 58.7372 32.134 59.6767 31.9159C60.5045 31.7045 61.3667 31.6639 62.2108 31.7965C63.0548 31.9292 63.863 32.2323 64.5861 32.6874C65.3093 33.1425 65.9321 33.7401 66.4168 34.4437C66.9015 35.1473 67.2378 35.9423 67.4054 36.7801C67.6873 38.289 67.3877 39.8488 66.5668 41.1459C65.7459 42.443 64.4646 43.3814 62.9802 43.7726L62.7794 42.7473C63.5235 42.5229 64.2058 42.1301 64.7735 41.5992C65.3411 41.0684 65.7788 40.4139 66.0525 39.6866C66.3262 38.9592 66.4286 38.1785 66.3516 37.4052C66.2747 36.6318 66.0206 35.8866 65.609 35.2274C65.2283 34.6426 64.7352 34.1393 64.1584 33.7466C63.5815 33.354 62.9324 33.0798 62.2488 32.9401C61.5651 32.8004 60.8605 32.7979 60.1758 32.9327C59.4912 33.0675 58.8401 33.337 58.2605 33.7255C57.1732 34.4337 56.4092 35.5422 56.1345 36.8104C55.8598 38.0786 56.0966 39.4039 56.7935 40.4985C56.9611 40.3382 57.0926 40.144 57.1793 39.9288C57.266 39.7137 57.3058 39.4825 57.2962 39.2508C57.2866 39.019 57.2277 38.792 57.1235 38.5848C57.0192 38.3775 56.8721 38.1949 56.6917 38.049C56.6136 37.9969 56.5526 37.9228 56.5164 37.8362C56.4802 37.7495 56.4704 37.654 56.4883 37.5618C56.5606 37.1575 56.6302 36.7587 56.6998 36.3544L56.8122 36.3169C57.1174 36.6382 57.4467 36.938 57.7224 37.2807C58.5405 38.3662 58.9623 39.6991 58.9177 41.0576C58.8731 42.4162 58.3648 43.7185 57.4773 44.748C56.5898 45.7776 55.3766 46.4723 54.0394 46.7166C52.7023 46.9609 51.3218 46.7401 50.1276 46.0909C50.0567 46.0338 49.9684 46.0026 49.8773 46.0026C49.7862 46.0026 49.6979 46.0338 49.627 46.0909C49.4948 46.2015 49.3253 46.2576 49.1532 46.2476C48.9811 46.2377 48.8193 46.1625 48.7007 46.0374C48.6344 45.9899 48.5656 45.9462 48.4946 45.9062C48.4185 45.8503 48.3301 45.8134 48.2369 45.7985C48.1437 45.7836 48.0482 45.7911 47.9585 45.8204C47.8687 45.8497 47.7873 45.8999 47.7208 45.967C47.6544 46.0341 47.6048 46.116 47.5763 46.206C47.4371 46.5728 47.3086 46.9422 47.1614 47.309C47.1444 47.3778 47.1123 47.442 47.0675 47.4969C47.0226 47.5519 46.9662 47.5962 46.9022 47.6266C46.8381 47.6571 46.7682 47.673 46.6973 47.6732C46.6263 47.6733 46.5563 47.6577 46.4921 47.6275C46.0344 47.4696 45.5766 47.309 45.1188 47.1564C44.9173 47.1314 44.7134 47.1756 44.5403 47.2816C44.3672 47.3876 44.2351 47.5492 44.1658 47.74C44.131 47.9889 44.0855 48.2352 44.048 48.4842C43.9971 48.8456 43.8044 48.9848 43.4215 48.9768C43.1915 48.9654 42.961 48.9852 42.7362 49.0357C42.3427 49.132 42.2303 49.4827 42.1205 49.804C41.9438 50.3153 41.6493 50.4037 41.1755 50.3662C40.9661 50.3593 40.7582 50.4043 40.5705 50.4973C40.2358 50.6526 39.9307 50.8641 39.5987 51.0328C39.4751 51.0911 39.3353 51.1053 39.2025 51.0729C38.3994 50.832 37.6096 50.5723 36.8146 50.318C36.3621 50.1734 36.2631 50.0342 36.3434 49.5845C36.4505 48.9714 36.5736 48.3611 36.6861 47.748C36.7172 47.5727 36.7888 47.4072 36.8953 47.2645C37.0017 47.1218 37.14 47.0059 37.2991 46.9261C40.4473 45.1539 43.5929 43.379 46.7358 41.6015C46.8273 41.5659 46.9039 41.5 46.9526 41.4147C47.0014 41.3294 47.0193 41.2299 47.0035 41.133C46.9708 40.188 47.1632 39.2487 47.5646 38.3925C47.9661 37.5364 48.5651 36.7879 49.3125 36.2086C50.0599 35.6293 50.9342 35.2358 51.8634 35.0606C52.7926 34.8853 53.7501 34.9333 54.6572 35.2006C54.7455 35.2327 54.858 35.2756 54.9704 35.3291ZM47.4077 43.0926L47.0972 43.2586L43.9918 45.0174C42.1339 46.0722 40.2769 47.126 38.4208 48.179C38.1103 48.353 38.0674 48.4762 38.2066 48.7305C38.3753 49.0303 38.5091 49.0651 38.8331 48.8831L45.2205 45.2744L47.7771 43.8315L47.4077 43.0926Z" fill="white"/>
<path d="M51.1906 47.3064C52.34 47.62 53.5509 47.6321 54.7063 47.3413C55.8618 47.0506 56.9227 46.4669 57.7868 45.6466C58.6414 44.8686 59.2747 43.8781 59.6222 42.7759C59.9697 41.6737 60.019 40.4991 59.7652 39.3716C60.7614 40.0408 61.5282 40.9996 61.9621 42.1186C62.396 43.2375 62.476 44.4627 62.1914 45.6285C61.9068 46.7944 61.2712 47.8449 60.3706 48.638C59.4699 49.4312 58.3476 49.9288 57.1551 50.0638C57.043 50.0847 56.929 50.0937 56.8151 50.0905C56.6357 50.0533 56.4489 50.0814 56.2883 50.1697C56.1278 50.2581 56.0042 50.4009 55.9397 50.5724C55.8915 50.6848 55.672 50.7571 55.514 50.7973C55.3603 50.8173 55.2046 50.8173 55.0509 50.7973C54.9511 50.7785 54.8482 50.786 54.7522 50.819C54.6562 50.852 54.5704 50.9093 54.5032 50.9854C54.436 51.0615 54.3897 51.1538 54.3689 51.2531C54.348 51.3525 54.3534 51.4555 54.3843 51.5522C54.4459 51.9083 54.5128 52.2643 54.5717 52.623C54.6386 53.0192 54.4967 53.2093 54.1005 53.2789L52.7299 53.5252C52.5524 53.6047 52.4049 53.7386 52.3086 53.9075C52.2123 54.0765 52.1724 54.2717 52.1945 54.4649C52.2935 54.7192 52.3952 54.9708 52.4943 55.2225C52.6255 55.5517 52.5344 55.7579 52.2266 55.9319C52.0088 56.0499 51.8072 56.1956 51.6269 56.3656C51.2923 56.7002 51.4931 57.1098 51.5305 57.4873C51.5598 57.6114 51.5438 57.7419 51.4854 57.8553C51.427 57.9686 51.33 58.0574 51.212 58.1057C51.0063 58.1788 50.8193 58.2967 50.6647 58.4509C50.5101 58.6051 50.3916 58.7916 50.3178 58.9971C50.2145 59.2825 50.0268 59.5296 49.7795 59.7056C49.5323 59.8816 49.2373 59.9781 48.9338 59.9823C48.3525 60.069 47.7762 60.1861 47.2071 60.333C46.6931 60.4427 46.5405 60.3598 46.3665 59.8779C46.1684 59.3425 45.9837 58.7749 45.7749 58.2288C45.7014 58.0526 45.6725 57.861 45.6907 57.671C45.7089 57.4809 45.7737 57.2983 45.8793 57.1392C47.6809 54.0901 49.4692 51.0355 51.2709 47.989C51.378 47.7561 51.4904 47.5607 51.1906 47.3064ZM52.6683 48.8832L52.6201 48.9207C50.8854 51.8619 49.1515 54.8066 47.4186 57.755C47.3864 57.7948 47.3641 57.8416 47.3534 57.8917C47.3427 57.9417 47.3439 57.9936 47.357 58.0431C47.37 58.0926 47.3945 58.1384 47.4284 58.1767C47.4624 58.215 47.5049 58.2447 47.5524 58.2636C47.8496 58.443 47.9968 58.4001 48.1923 58.0682C49.8592 55.2359 51.5252 52.4035 53.1903 49.5712C53.2358 49.4962 53.276 49.4132 53.3215 49.3303L52.6683 48.8832Z" fill="white"/>
</svg>
