<svg width="40" height="40" viewBox="0 0 40 40" fill="none" xmlns="http://www.w3.org/2000/svg">
<g clip-path="url(#clip0_10900_28333)">
<path d="M24.1663 38.3338C23.978 38.3338 23.788 38.2704 23.633 38.1404L18.633 33.9738C18.4413 33.8154 18.333 33.5804 18.333 33.3338C18.333 33.0871 18.4413 32.8521 18.633 32.6938L23.633 28.5271C23.9863 28.2338 24.5113 28.2788 24.8063 28.6338C25.1013 28.9871 25.053 29.5138 24.7013 29.8088L20.468 33.3338L24.6997 36.8604C25.053 37.1554 25.0997 37.6804 24.8047 38.0354C24.6413 38.2321 24.4047 38.3338 24.1663 38.3338Z" fill="#1B275F"/>
<path d="M34.1664 38.3335C33.9281 38.3335 33.6914 38.2318 33.5264 38.0335C33.2314 37.6802 33.2797 37.1535 33.6314 36.8585L37.8647 33.3335L33.6331 29.8068C33.2797 29.5118 33.2331 28.9868 33.5281 28.6318C33.8247 28.2785 34.3497 28.2352 34.7014 28.5252L39.7014 32.6918C39.8914 32.8518 39.9997 33.0868 39.9997 33.3335C39.9997 33.5802 39.8914 33.8152 39.6997 33.9735L34.6997 38.1402C34.5447 38.2702 34.3547 38.3335 34.1664 38.3335Z" fill="#1B275F"/>
<path d="M27.5002 39.9999C27.4252 39.9999 27.3468 39.9899 27.2702 39.9682C26.8268 39.8416 26.5718 39.3799 26.6985 38.9382L30.0318 27.2716C30.1568 26.8299 30.6152 26.5716 31.0618 26.6982C31.5052 26.8249 31.7602 27.2866 31.6335 27.7282L28.3002 39.3949C28.1968 39.7616 27.8635 39.9999 27.5002 39.9999Z" fill="#1B275F"/>
<path d="M18.3333 28.3335C18.1383 28.3335 17.9433 28.2652 17.785 28.1285C14.6733 25.4102 11.4083 24.2785 7.81167 24.6952C7.07833 24.7752 6.365 24.5518 5.82833 24.0735C5.30167 23.6068 5 22.9352 5 22.2335V2.65018C5 1.40351 5.93333 0.331845 7.16833 0.158511C11.1433 -0.428155 14.9017 0.676845 18.3333 3.46184C21.765 0.676845 25.5267 -0.426489 29.505 0.160178C30.7333 0.331845 31.6667 1.40351 31.6667 2.65018V22.5002C31.6667 22.9602 31.2933 23.3335 30.8333 23.3335C30.3733 23.3335 30 22.9602 30 22.5002V2.65018C30 2.23018 29.685 1.86684 29.2683 1.80851C25.5133 1.24684 22.1183 2.35518 18.8833 5.17851C18.5683 5.45185 18.1017 5.45185 17.7867 5.17851C14.5483 2.35518 11.1617 1.25351 7.405 1.80684C6.98167 1.86684 6.66667 2.22851 6.66667 2.65018V22.2335C6.66667 22.4635 6.76167 22.6752 6.93333 22.8285C7.11667 22.9918 7.37 23.0702 7.61833 23.0385C11.6583 22.5818 15.4417 23.8718 18.8817 26.8718C19.2283 27.1752 19.2633 27.7018 18.9617 28.0485C18.7967 28.2368 18.5667 28.3335 18.3333 28.3335Z" fill="#1B275F"/>
<path d="M35.8333 24.9997C35.3733 24.9997 35 24.6263 35 24.1663V5.83301C35 5.37301 34.625 4.99967 34.1667 4.99967H30.8333C30.3733 4.99967 30 4.62634 30 4.16634C30 3.70634 30.3733 3.33301 30.8333 3.33301H34.1667C35.545 3.33301 36.6667 4.45467 36.6667 5.83301V24.1663C36.6667 24.6263 36.2933 24.9997 35.8333 24.9997Z" fill="#1B275F"/>
<path d="M18.3333 28.333H2.5C1.12167 28.333 0 27.2113 0 25.833V5.83301C0 4.47967 1.115 3.35801 2.485 3.33301H5.83333C6.29333 3.33301 6.66667 3.70634 6.66667 4.16634C6.66667 4.62634 6.29333 4.99967 5.83333 4.99967H2.5C2.04833 5.00801 1.66667 5.38134 1.66667 5.83301V25.833C1.66667 26.293 2.04167 26.6663 2.5 26.6663H18.3333C18.7933 26.6663 19.1667 27.0397 19.1667 27.4997C19.1667 27.9597 18.7933 28.333 18.3333 28.333Z" fill="#1B275F"/>
<path d="M18.3333 28.333C17.8733 28.333 17.5 27.9597 17.5 27.4997V4.16634C17.5 3.70634 17.8733 3.33301 18.3333 3.33301C18.7933 3.33301 19.1667 3.70634 19.1667 4.16634V27.4997C19.1667 27.9597 18.7933 28.333 18.3333 28.333Z" fill="#1B275F"/>
</g>
<defs>
<clipPath id="clip0_10900_28333">
<rect width="40" height="40" fill="white"/>
</clipPath>
</defs>
</svg>
