<svg width="28" height="19" viewBox="0 0 28 19" fill="none" xmlns="http://www.w3.org/2000/svg">
<path d="M19.6793 5.17633C22.1046 5.66455 23.3163 5.91189 23.5995 6.76302C23.8828 7.61416 23.0451 8.51908 21.3735 10.3202L20.9405 10.7862C20.5975 11.0888 20.3183 11.4568 20.1193 11.8687C20.0224 12.3076 20.018 12.7619 20.1063 13.2027L20.1662 13.8191C20.3959 16.2018 20.5108 17.3938 19.7494 17.9301C18.988 18.4663 17.855 17.9925 15.5883 17.0443L15.0019 16.7988C14.5963 16.5807 14.1518 16.4443 13.6936 16.3972C13.2308 16.451 12.7826 16.5935 12.3738 16.8169L11.7832 17.0723C9.49955 18.0573 8.35774 18.5498 7.60862 18.0233C6.85949 17.4968 6.99251 16.3059 7.26546 13.9209L7.33577 13.3034C7.43305 12.865 7.43796 12.4111 7.35019 11.9707C7.15906 11.5628 6.88592 11.1987 6.54782 10.9011L6.12298 10.4418C4.48144 8.66776 3.66104 7.78105 3.95795 6.92075C4.25487 6.06045 5.4717 5.797 7.90536 5.27011L8.53548 5.1337C8.99807 5.08028 9.44598 4.93803 9.85463 4.71478C10.1971 4.41148 10.4758 4.04304 10.6744 3.63094L11.0031 3.09257C12.2746 1.00792 12.9063 -0.0299519 13.842 -0.0379193C14.7776 -0.0458867 15.3939 0.985348 16.6277 3.04633L16.9467 3.57979C17.1377 3.98779 17.4106 4.35214 17.7484 4.65017C18.1545 4.86818 18.5995 5.00414 19.0581 5.05028L19.6793 5.17633Z" fill="#FDBA02"/>
</svg>
