<svg width="60" height="60" viewBox="0 0 60 60" fill="none" xmlns="http://www.w3.org/2000/svg">
<g clip-path="url(#clip0_2584_11771)">
<path d="M60 0.00012207L45.3888 2.96625L36.8485 11.5065L27.0527 9.13629L10.2439 25.945L20.04 28.3152L17.9772 30.3779C17.1582 31.1968 16.7071 32.2857 16.7071 33.444C16.7071 34.6023 17.1582 35.6912 17.9772 36.5101L23.4897 42.0227C24.3087 42.8418 25.3976 43.2928 26.5559 43.2928C27.7142 43.2928 28.8031 42.8418 29.6221 42.0227L31.6848 39.9601L34.055 49.7562L50.8638 32.9473L48.4935 23.1512L57.0337 14.6112L60 0.00012207ZM40.9057 12.4882L46.2691 7.12477L48.3126 9.16829L28.0042 29.4765L25.9607 27.433L31.044 22.3498L40.9057 12.4882ZM17.2523 23.9752L28.1581 13.0693L33.897 14.4579L22.9912 25.3637L17.2523 23.9752ZM27.1028 39.5036C26.9058 39.7007 26.6757 39.7301 26.556 39.7301C26.4364 39.7301 26.2062 39.7008 26.0091 39.5036L20.4965 33.9909C20.2995 33.7939 20.27 33.5637 20.27 33.4441C20.27 33.3244 20.2994 33.0943 20.4965 32.8973L23.4414 29.9523L26.7447 33.2556L30.0479 36.5589L27.1028 39.5036ZM36.0249 42.7477L34.6364 37.0088L45.5422 26.1031L46.9307 31.842L36.0249 42.7477ZM32.5671 34.0393L30.5235 31.9958L50.8318 11.6873L52.8754 13.731L32.5671 34.0393ZM54.3089 10.1259L49.8742 5.69122L55.4384 4.56153L54.3089 10.1259Z" fill="#4361EE"/>
<path d="M19.3028 40.6973C15.1026 36.4971 8.26796 36.497 4.06749 40.6973C-2.10594 46.8707 0.550696 57.5958 0.666829 58.0493L0.928626 59.0714L1.95085 59.3332C2.16343 59.3876 4.63163 60 7.83073 60C11.4572 60 16.0227 59.2125 19.3028 55.9325C23.5032 51.7322 23.5032 44.8977 19.3028 40.6973ZM16.7835 53.4134C13.0198 57.177 6.47101 56.5283 3.90566 56.0945C3.47171 53.5289 2.8232 46.9802 6.58679 43.2165C9.39812 40.4054 13.9722 40.4053 16.7834 43.2166C18.1452 44.5785 18.8952 46.3891 18.8952 48.3151C18.8953 50.2409 18.1453 52.0515 16.7835 53.4134Z" fill="#4361EE"/>
<path d="M15.1038 44.8964C14.1906 43.9832 12.9764 43.4801 11.685 43.4801C10.3936 43.4801 9.1795 43.983 8.26625 44.8962C7.18848 45.9739 5.90985 48.131 5.93821 52.2884L5.95016 54.0474L7.83852 54.0581C11.9224 54.0581 14.0436 52.7942 15.1038 51.7339C16.0161 50.8215 16.5185 49.6076 16.5185 48.315C16.5185 47.0227 16.0161 45.8086 15.1038 44.8964ZM12.5845 49.2144C11.994 49.8051 10.964 50.2058 9.60993 50.3863C9.79075 49.0356 10.1925 48.0086 10.7857 47.4154C11.0294 47.1716 11.3404 47.0428 11.6851 47.0428C12.0297 47.0428 12.3407 47.1717 12.5846 47.4155C12.8239 47.6549 12.9557 47.9742 12.9557 48.315C12.9556 48.6557 12.8239 48.9751 12.5845 49.2144Z" fill="#4361EE"/>
</g>
<defs>
<clipPath id="clip0_2584_11771">
<rect width="60" height="60" fill="white"/>
</clipPath>
</defs>
</svg>
