<svg width="78" height="78" viewBox="0 0 78 78" fill="none" xmlns="http://www.w3.org/2000/svg">
<g clip-path="url(#clip0_2514_1646)">
<path d="M29.8347 60.255C13.2597 60.255 -0.195312 46.8 -0.195312 30.225C-0.195312 13.65 13.2597 0 29.8347 0C46.4097 0 60.0597 13.65 60.0597 30.225C60.0597 32.565 59.8647 34.905 59.2797 37.245C59.0847 38.22 57.9147 39 56.9397 38.61C55.9647 38.415 55.1847 37.245 55.5747 36.27C55.9647 34.32 56.3547 32.37 56.3547 30.225C56.3547 15.795 44.6547 3.9 30.0297 3.9C15.4047 3.9 3.70469 15.795 3.70469 30.225C3.70469 44.655 15.4047 56.55 30.0297 56.55C32.1747 56.55 34.1247 56.355 36.2697 55.77C37.2447 55.575 38.4147 56.16 38.6097 57.135C38.8047 58.11 38.2197 59.28 37.2447 59.475C34.7097 60.06 32.3697 60.255 29.8347 60.255Z" fill="white"/>
<path d="M70.9802 77.9998C69.2252 77.9998 67.4702 77.2198 66.1052 76.0498L44.6552 54.5998C43.8752 53.8198 43.8752 52.6498 44.6552 51.8698C45.4352 51.0898 46.6052 51.0898 47.3852 51.8698L68.8352 73.3198C70.0052 74.4898 71.9552 74.4898 72.9302 73.3198C74.1002 72.1498 74.1002 70.1998 72.9302 69.2248L51.4802 47.7748C50.7002 46.9948 50.7002 45.8248 51.4802 45.0448C52.2602 44.2648 53.4302 44.2648 54.2102 45.0448L75.6602 66.4948C78.3902 69.2248 78.3902 73.5148 75.6602 76.2448C74.4902 77.2198 72.7352 77.9998 70.9802 77.9998ZM29.8352 52.6498C17.5502 52.6498 7.41016 42.5098 7.41016 30.2248C7.41016 17.9398 17.5502 7.7998 29.8352 7.7998C42.1202 7.7998 52.2602 17.9398 52.2602 30.2248C52.2602 42.5098 42.3152 52.6498 29.8352 52.6498ZM29.8352 11.6998C19.6952 11.6998 11.3102 20.0848 11.3102 30.2248C11.3102 40.3648 19.6952 48.7498 29.8352 48.7498C39.9752 48.7498 48.3602 40.3648 48.3602 30.2248C48.3602 20.0848 40.1702 11.6998 29.8352 11.6998Z" fill="white"/>
</g>
<defs>
<clipPath id="clip0_2514_1646">
<rect width="78" height="78" fill="white"/>
</clipPath>
</defs>
</svg>
