<svg width="83" height="83" viewBox="0 0 83 83" fill="none" xmlns="http://www.w3.org/2000/svg">
<path d="M4.79688 82.2812H78.2031C79.2843 82.2801 80.321 81.85 81.0855 81.0855C81.85 80.321 82.2801 79.2843 82.2812 78.2031V48.2969C82.2801 47.2157 81.85 46.1791 81.0855 45.4145C80.321 44.65 79.2843 44.2199 78.2031 44.2188H66.7379C65.8832 41.8487 64.3183 39.7999 62.2566 38.3517C60.1949 36.9035 57.7367 36.1265 55.2172 36.1265C52.6977 36.1265 50.2395 36.9035 48.1778 38.3517C46.1161 39.7999 44.5512 41.8487 43.6965 44.2188H43.1062C43.8729 34.8845 38.7751 26.4305 30.1141 23.5048C40.7506 17.2778 36.4422 0.801223 23.9514 0.71875C11.4601 0.801767 7.15301 17.28 17.7891 23.5048C9.12489 26.4333 4.03155 34.8835 4.79688 44.2188C3.71565 44.2199 2.67905 44.65 1.91451 45.4145C1.14997 46.1791 0.71993 47.2157 0.71875 48.2969V78.2031C0.71993 79.2843 1.14997 80.321 1.91451 81.0855C2.67905 81.85 3.71565 82.2801 4.79688 82.2812ZM39.3985 79.5625C39.2349 79.5621 39.0781 79.497 38.9625 79.3813C38.8468 79.2656 38.7816 79.1088 38.7812 78.9452C37.3461 56.0836 70.5847 53.8394 71.6532 76.9673V78.9452C71.6528 79.1088 71.5877 79.2656 71.472 79.3813C71.3563 79.497 71.1995 79.5621 71.0359 79.5625H39.3985ZM78.2031 46.9375C78.5636 46.9377 78.9092 47.081 79.1641 47.3359C79.419 47.5908 79.5623 47.9364 79.5625 48.2969V78.2031C79.5623 78.5636 79.419 78.9092 79.1641 79.1641C78.9092 79.419 78.5636 79.5623 78.2031 79.5625H74.3095C74.8302 75.1543 73.8331 70.7002 71.4826 66.9347C69.1322 63.1692 65.5687 60.317 61.3798 58.8485C63.4224 57.6541 65.0752 55.8936 66.1385 53.7798C67.2019 51.666 67.6301 49.2895 67.3714 46.9375H78.2031ZM55.2172 38.7812C57.74 38.7843 60.1585 39.7878 61.9424 41.5717C63.7263 43.3555 64.7298 45.7741 64.7328 48.2969C64.2852 60.8907 46.1473 60.8875 45.7016 48.2967C45.7047 45.774 46.7082 43.3555 48.4921 41.5716C50.2759 39.7878 52.6945 38.7843 55.2172 38.7812ZM14.436 12.9531C14.439 10.4304 15.4425 8.0118 17.2264 6.22794C19.0103 4.44407 21.4288 3.44055 23.9516 3.4375C36.5454 3.88516 36.5422 22.023 23.9514 22.4688C21.4287 22.4657 19.0102 21.4621 17.2263 19.6783C15.4425 17.8944 14.439 15.4759 14.436 12.9531ZM7.51562 41.6235C8.91226 18.2408 42.0754 20.6123 40.3875 44.2188H7.51562V41.6235ZM3.4375 48.2969C3.43774 47.9364 3.58104 47.5908 3.83592 47.3359C4.0908 47.081 4.43642 46.9377 4.79688 46.9375H43.063C42.8043 49.2895 43.2326 51.6661 44.2959 53.7799C45.3592 55.8937 47.0121 57.6542 49.0547 58.8485C44.8658 60.317 41.3023 63.1692 38.9518 66.9347C36.6014 70.7002 35.6043 75.1543 36.1249 79.5625H4.79688C4.43642 79.5623 4.0908 79.419 3.83592 79.1641C3.58104 78.9092 3.43774 78.5636 3.4375 78.2031V48.2969Z" fill="white" stroke="white"/>
</svg>
