<svg width="59" height="50" viewBox="0 0 59 50" fill="none" xmlns="http://www.w3.org/2000/svg">
<g clip-path="url(#clip0_11325_8259)">
<path d="M29.25 50C44.852 50 57.5 38.8071 57.5 25C57.5 11.1929 44.852 0 29.25 0C13.648 0 1 11.1929 1 25C1 38.8071 13.648 50 29.25 50Z" fill="#635BFF"/>
<path d="M44.1299 25.1836C44.1299 23.311 43.1047 21.833 41.146 21.833C39.1873 21.833 37.9883 23.3105 37.9883 25.1689C37.9883 27.3706 39.3936 28.4829 41.4092 28.4829C42.393 28.4829 43.1367 28.2876 43.699 28.0073V26.5425C43.1367 26.791 42.4923 26.9448 41.674 26.9448C40.8723 26.9448 40.1611 26.6963 40.0706 25.833H44.1128C44.1133 25.7393 44.1299 25.3589 44.1299 25.1836ZM40.0469 24.4888C40.0469 23.6621 40.6174 23.3169 41.1383 23.3169C41.6426 23.3169 42.18 23.6587 42.18 24.4888H40.0469ZM34.7975 21.833C34.1945 21.831 33.6139 22.0356 33.1775 22.4038L33.0699 21.9502H31.2491V30.4795L33.3154 30.0918L33.3237 28.0215C33.6211 28.2119 34.0592 28.4824 34.787 28.4824C36.2668 28.4824 37.6142 27.4292 37.6142 25.1104C37.6076 22.9888 36.2436 21.833 34.7975 21.833ZM34.3009 26.873C33.8131 26.873 33.524 26.7192 33.3254 26.5312L33.3171 23.8174C33.5323 23.6055 33.8297 23.459 34.3009 23.459C35.0529 23.459 35.5738 24.2051 35.5738 25.1636C35.5743 26.1416 35.0618 26.873 34.3014 26.873H34.3009ZM28.4076 21.4014L30.4822 21.0063V19.5215L28.4076 19.9092V21.4014ZM28.4076 21.9575H30.4822V28.3584H28.4076V21.9575ZM26.184 22.4985L26.0504 21.9575H24.2661V28.3579H26.3324V24.02C26.8202 23.4565 27.6467 23.5591 27.9027 23.6396V21.9575C27.639 21.8696 26.6717 21.7085 26.184 22.4985ZM22.0508 20.3701L20.0363 20.7524L20.028 26.6118C20.028 27.6943 20.9456 28.4917 22.1688 28.4917C22.8464 28.4917 23.3424 28.3818 23.6155 28.2505V26.7637C23.3512 26.8589 22.0452 27.1953 22.0452 26.1128V23.5156H23.6155V21.9575H22.0425L22.0508 20.3701ZM16.4631 23.8154C16.4631 23.5303 16.7274 23.4204 17.1655 23.4204C17.8805 23.4337 18.5823 23.594 19.2153 23.8887V22.1685C18.5633 21.9412 17.8679 21.8273 17.1671 21.833C15.4893 21.833 14.373 22.6084 14.373 23.9033C14.373 25.9224 17.5142 25.6006 17.5142 26.4707C17.5142 26.8071 17.1831 26.917 16.7208 26.917C16.0349 26.917 15.1582 26.6685 14.4641 26.3311V28.0723C15.1766 28.3451 15.9444 28.487 16.7208 28.4893C18.4401 28.4893 19.6219 27.7358 19.6219 26.4263C19.6125 24.2471 16.4631 24.6348 16.4631 23.8154Z" fill="white"/>
</g>
<defs>
<clipPath id="clip0_11325_8259">
<rect width="56.5" height="50" fill="white" transform="translate(1)"/>
</clipPath>
</defs>
</svg>
