<svg width="70" height="70" viewBox="0 0 70 70" fill="none" xmlns="http://www.w3.org/2000/svg"><rect width="70" height="70" rx="35" fill="#fff"/><g clip-path="url(#a)" fill="#000"><path d="M53.877 45.303h-1.449a6 6 0 0 0-.902-2.173l1.026-1.026a1.172 1.172 0 0 0-1.657-1.658l-1.027 1.026a6 6 0 0 0-2.172-.903v-1.448a1.172 1.172 0 0 0-2.344 0v1.448a6 6 0 0 0-2.173.903l-1.027-1.026a1.171 1.171 0 1 0-1.657 1.658l1.026 1.026a6 6 0 0 0-.903 2.173H39.17a1.172 1.172 0 1 0 0 2.344h1.448c.157.79.47 1.526.903 2.172l-1.026 1.026a1.18 1.18 0 0 0 0 1.658 1.18 1.18 0 0 0 1.657 0l1.026-1.026a6 6 0 0 0 2.174.903v1.448a1.172 1.172 0 1 0 2.344 0V52.38a6 6 0 0 0 2.172-.903l1.027 1.026a1.18 1.18 0 0 0 1.657 0 1.18 1.18 0 0 0 0-1.658l-1.026-1.026a6 6 0 0 0 .902-2.172h1.449c.643 0 1.172-.529 1.172-1.172s-.53-1.172-1.172-1.172m-7.353 2.344a1.177 1.177 0 0 1-1.172-1.172c0-.643.529-1.172 1.172-1.172s1.172.529 1.172 1.172-.53 1.172-1.172 1.172m-22.138 3.198a3.6 3.6 0 0 1-1.482-.318l-5.183-2.325v4.515c0 .647.525 1.172 1.172 1.172h10.986c.648 0 1.172-.525 1.172-1.172v-4.514l-5.183 2.324c-.468.21-.966.318-1.482.318"/><path d="m33.073 42.833-8.166-3.662a1.28 1.28 0 0 0-1.043 0L15.7 42.833c-.398.178-.651.546-.651.947s.253.77.65.947l8.166 3.663c.328.148.713.147 1.042 0l8.166-3.663c.398-.178.65-.546.65-.947s-.252-.769-.65-.947M16.616 40.03q.12 0 .24-.026a1.17 1.17 0 0 0 .908-1.387A17.7 17.7 0 0 1 17.393 35c0-4.906 1.964-9.464 5.531-12.834a1.172 1.172 0 0 0-1.61-1.704 19.9 19.9 0 0 0-4.579 6.488A19.9 19.9 0 0 0 15.05 35c0 1.382.141 2.76.42 4.097.116.553.604.932 1.147.932M52.705 35c0 .644-.035 1.292-.104 1.926a1.172 1.172 0 1 0 2.33.254 20 20 0 0 0 .118-2.18c0-2.8-.568-5.507-1.687-8.05a19.9 19.9 0 0 0-4.579-6.488 1.172 1.172 0 1 0-1.61 1.704c3.567 3.37 5.532 7.928 5.532 12.834m-8.254-18.828c0-.647-.524-1.172-1.172-1.172h-4.453c-1.445.008-2.605 1.202-2.605 2.648v7.362h8.23zm0 12.437v-1.255h-8.23v2.427h7.058c.648 0 1.172-.525 1.172-1.172M31.27 15h-4.452c-.647 0-1.172.525-1.172 1.172v8.838h8.231v-7.362c0-1.446-1.16-2.64-2.606-2.648m-5.624 13.609c0 .647.524 1.172 1.171 1.172h7.059v-2.427h-8.23z"/></g><defs><clipPath id="a"><path fill="#fff" d="M15.049 15h40v40h-40z"/></clipPath></defs></svg>