<svg width="70" height="70" viewBox="0 0 70 70" fill="none" xmlns="http://www.w3.org/2000/svg"><rect width="70" height="70" rx="35" fill="#fff"/><path d="M35 16.25A18.75 18.75 0 1 0 53.75 35 18.773 18.773 0 0 0 35 16.25m4.506 19.213A4.508 4.508 0 1 1 35 30.956a4.536 4.536 0 0 1 4.506 4.506M22.5 27.437a4.91 4.91 0 1 1 9.819 0c-.263 6.513-9.55 6.513-9.819 0M43.25 46.05a1.423 1.423 0 0 1-1.425 1.425h-13.65a1.424 1.424 0 0 1-1.425-1.425v-1.762a3.86 3.86 0 0 1 2.644-3.67l2.412-.8a5.38 5.38 0 0 0 6.388 0l2.412.8a3.865 3.865 0 0 1 2.644 3.67zm-5.569-18.612a4.91 4.91 0 1 1 9.819 0c-.269 6.512-9.556 6.512-9.819 0" fill="#000"/><path d="m43.225 27.444 1.243-1.25a.446.446 0 1 0-.631-.632l-1.25 1.244-1.244-1.244a.446.446 0 0 0-.631.632l1.25 1.25-1.25 1.243a.446.446 0 0 0 .631.632l1.244-1.25 1.25 1.25a.447.447 0 0 0 .631-.632zm-14.088-1.481-2.456 2.006-.956-.988a.453.453 0 0 0-.638-.006.443.443 0 0 0-.006.625l1.25 1.281a.44.44 0 0 0 .6.038L29.7 26.65a.444.444 0 0 0-.563-.687" fill="#000"/></svg>