<svg width="45" height="45" viewBox="0 0 45 45" fill="none" xmlns="http://www.w3.org/2000/svg"><g clip-path="url(#a)" fill="#4361ee"><path d="M22.936.706A14.075 14.075 0 0 0 8.438 14.77a13.98 13.98 0 0 0 7.621 12.487q.257.136.45.352a8 8 0 0 1 1.772-.183h8.438c.6-.005 1.199.057 1.786.183a1.3 1.3 0 0 1 .436-.338 13.97 13.97 0 0 0 7.622-12.937A14.26 14.26 0 0 0 22.936.706m-.534 23.204a1.407 1.407 0 1 1 0-2.814 1.407 1.407 0 0 1 0 2.814m2.714-8.157a2.57 2.57 0 0 0-1.308 2.194v.14a1.407 1.407 0 0 1-2.813 0v-.14a5.36 5.36 0 0 1 2.714-4.627 2.617 2.617 0 0 0-1.628-4.866 2.62 2.62 0 0 0-1.93 1.28q-.15.254-.238.535a1.386 1.386 0 0 1-1.758.914 1.403 1.403 0 0 1-.928-1.758q.19-.573.492-1.097a5.45 5.45 0 0 1 5.948-2.56 5.38 5.38 0 0 1 4.022 4.023 5.445 5.445 0 0 1-2.573 5.962m1.603 14.485H18.28c-2.326 0-4.218 1.261-4.218 2.812s1.892 2.813 4.218 2.813h8.438c2.326 0 4.218-1.262 4.218-2.813 0-1.55-1.892-2.812-4.218-2.812m.886 8.395-.464 2.278a4.22 4.22 0 0 1-4.134 3.389h-1.013a4.22 4.22 0 0 1-4.134-3.39l-.465-2.277q.444.042.887.042h8.437q.442 0 .886-.042M4.219 16.175H1.406a1.406 1.406 0 1 1 0-2.812H4.22a1.406 1.406 0 0 1 0 2.812M7.755 5.367c-.299 0-.59-.095-.83-.272L4.657 3.432a1.406 1.406 0 0 1 1.661-2.268l2.269 1.663a1.406 1.406 0 0 1-.832 2.54M5.49 28.645a1.406 1.406 0 0 1-.833-2.54l2.269-1.663a1.407 1.407 0 1 1 1.661 2.269L6.32 28.374a1.4 1.4 0 0 1-.83.271m38.104-12.47H40.78a1.406 1.406 0 1 1 0-2.812h2.813a1.406 1.406 0 0 1 0 2.812M37.244 5.367a1.406 1.406 0 0 1-.832-2.54l2.269-1.663a1.406 1.406 0 0 1 1.662 2.268l-2.27 1.663c-.24.176-.53.272-.829.272m2.266 23.278a1.4 1.4 0 0 1-.829-.272l-2.268-1.662a1.405 1.405 0 0 1 1.162-2.51c.18.047.35.129.5.241l2.268 1.663a1.406 1.406 0 0 1-.832 2.54"/></g><defs><clipPath id="a"><path fill="#fff" d="M0 0h45v45H0z"/></clipPath></defs></svg>