<svg width="41" height="40" viewBox="0 0 41 40" fill="none" xmlns="http://www.w3.org/2000/svg"><path fill-rule="evenodd" clip-rule="evenodd" d="M38.716 14.084h-2.209v-2.659a.693.693 0 0 0-.676-.676h-6.085c-.45-4.867-4.507-8.653-9.464-8.653s-9.06 3.83-9.465 8.653h-6.13a.693.693 0 0 0-.676.676v2.66H1.848A1.856 1.856 0 0 0 0 15.931v22.22C0 39.189.811 40 1.848 40h36.868a1.83 1.83 0 0 0 1.847-1.848v-22.22c0-.991-.81-1.848-1.848-1.848M35.2 33.51h-9.825c-1.758 0-3.38.811-4.417 2.073V27.11h.766a2.71 2.71 0 0 0 2.704-2.704v-3.02c0-.811.316-1.262 1.488-2.163 2.253-1.668 3.695-4.327 3.83-7.122h5.409V33.51zM20.282 3.448a8.156 8.156 0 0 1 8.157 8.158c0 2.569-1.216 5.048-3.29 6.535-.946.72-1.758 1.397-1.983 2.569h-2.208v-4.372c0-1.532 1.262-2.84 2.84-2.84.36 0 .675-.315.675-.675a.693.693 0 0 0-.676-.677c-1.442 0-2.75.767-3.515 1.893-.767-1.126-2.029-1.893-3.516-1.893a.693.693 0 0 0-.676.676c0 .361.316.677.676.677 1.533 0 2.84 1.261 2.84 2.839v4.372h-2.209c-.225-1.172-1.036-1.848-1.983-2.57a8.13 8.13 0 0 1-3.29-6.534 8.156 8.156 0 0 1 8.158-8.158M5.363 12.1h5.409c.135 2.84 1.577 5.454 3.83 7.121 1.173.857 1.488 1.353 1.488 2.164v3.02a2.71 2.71 0 0 0 2.704 2.704h.767v8.518c-1.082-1.262-2.66-2.073-4.417-2.073h-9.78z" fill="#4361ee"/><path fill-rule="evenodd" clip-rule="evenodd" d="M8.203 26.704h4.327c.36 0 .676-.315.676-.676a.693.693 0 0 0-.676-.676H8.203a.693.693 0 0 0-.676.676c0 .36.316.676.676.676m0-4.146h4.327c.36 0 .676-.316.676-.676a.693.693 0 0 0-.676-.676H8.203a.693.693 0 0 0-.676.676c0 .36.316.676.676.676m0 8.338h8.609c.36 0 .676-.316.676-.676a.693.693 0 0 0-.676-.676H8.203a.693.693 0 0 0-.676.676c0 .36.316.676.676.676M30.874 4.124c.18 0 .36-.045.496-.18l2.794-2.795a.654.654 0 0 0 0-.946.654.654 0 0 0-.946 0l-2.795 2.794a.654.654 0 0 0 .451 1.127m.899 2.884c0 .361.316.677.677.677h3.92a.694.694 0 0 0 .677-.677.693.693 0 0 0-.676-.676h-3.922a.693.693 0 0 0-.676.676m-27.626.677h3.966c.36 0 .676-.316.676-.677a.693.693 0 0 0-.676-.676H4.192a.693.693 0 0 0-.676.676c0 .361.27.677.63.677m5.048-3.741c.136.135.316.18.496.18s.36-.045.496-.18a.653.653 0 0 0 0-.947L7.39.203a.654.654 0 0 0-.946 0 .654.654 0 0 0 0 .946zm23.164 21.408h-4.326a.693.693 0 0 0-.677.676c0 .36.316.676.677.676h4.326c.36 0 .676-.315.676-.676a.693.693 0 0 0-.676-.676m-4.326-4.146a.693.693 0 0 0-.677.676c0 .36.316.676.677.676h4.326c.36 0 .676-.316.676-.676a.693.693 0 0 0-.676-.676zm4.327 8.338H23.75a.693.693 0 0 0-.676.676c0 .36.316.676.676.676h8.609c.36 0 .676-.316.676-.676a.693.693 0 0 0-.676-.676" fill="#4361ee"/></svg>