<svg width="128" height="51" viewBox="0 0 128 51" fill="none" xmlns="http://www.w3.org/2000/svg">
<path d="M43.2753 7.26352C38.6001 0.56779 29.3652 -1.41668 22.6906 2.83958L10.9644 10.3178C9.37808 11.3131 8.01691 12.6285 6.96765 14.1804C5.91838 15.7324 5.20458 17.4862 4.87174 19.3298C4.72344 20.1571 4.64796 21.0008 4.64657 21.8471C4.65377 24.1422 5.21604 26.4014 6.28527 28.4319C5.2828 29.9559 4.59846 31.6672 4.27379 33.4627C3.94124 35.3394 3.98782 37.2846 4.40961 39.1351C4.83181 40.998 5.62121 42.7577 6.73201 44.3116C11.4069 51.0069 20.6624 52.9914 27.3164 48.7355L39.0305 41.257C40.6158 40.2604 41.9753 38.9434 43.022 37.39C44.0683 35.8365 44.7785 34.0811 45.1068 32.2367C45.2573 31.4074 45.3329 30.5663 45.3319 29.7232C45.3292 27.4326 44.7739 25.1769 43.7135 23.1468C44.7157 21.624 45.4 19.9142 45.7253 18.1203C45.8707 17.2902 45.9446 16.4495 45.9466 15.6068C45.9474 12.6175 45.0132 9.70298 43.2753 7.27139V7.26352Z" fill="#FF3E00"/>
<path d="M21.5871 44.6981C20.8266 44.8941 20.051 44.9931 19.2733 44.9935C17.7884 44.9939 16.3255 44.634 15.0099 43.9442C13.6946 43.2548 12.5659 42.2564 11.7205 41.0346C10.6883 39.5904 10.1338 37.8591 10.1348 36.0835C10.1354 35.5829 10.1787 35.0838 10.264 34.5939C10.3335 34.2252 10.427 33.8637 10.5436 33.5127L10.762 32.8489L11.3524 33.2982C12.7236 34.3051 14.2556 35.0719 15.8831 35.5654L16.3122 35.6948L16.2718 36.1239V36.3466C16.2708 36.8832 16.4379 37.4075 16.7491 37.8443C17.0005 38.2166 17.3392 38.5221 17.7354 38.7335C18.1412 38.9476 18.5794 39.0583 19.0225 39.0588C19.2564 39.0597 19.4897 39.0299 19.7183 38.9698C19.9662 38.9048 20.2058 38.8 20.4305 38.6581L31.9962 31.2377C32.343 31.0177 32.6287 30.7134 32.8261 30.3532C33.0232 29.9929 33.126 29.5883 33.1247 29.1772C33.1214 28.6405 32.9502 28.1182 32.6351 27.6833C32.3798 27.3157 32.0392 27.0156 31.6427 26.8081C31.2367 26.5986 30.7993 26.4915 30.3575 26.4933C30.1236 26.4925 29.8903 26.5225 29.6618 26.5827C29.4149 26.6461 29.1767 26.7509 28.9541 26.894L24.5446 29.7115C23.8026 30.1791 23.0122 30.5262 22.1943 30.7437C21.4381 30.9388 20.6609 31.0383 19.8802 31.0391C18.3956 31.0391 16.9333 30.6792 15.6181 29.9906C14.3028 29.3019 13.1737 28.3047 12.3274 27.0844C11.2965 25.6395 10.742 23.9086 10.7417 22.1333C10.7423 21.6339 10.7856 21.1357 10.8709 20.6437C11.069 19.5493 11.4917 18.5082 12.1131 17.5864C12.7342 16.6642 13.5402 15.8815 14.4796 15.2881L26.0576 7.90805C26.7841 7.44558 27.5764 7.09582 28.4079 6.87158C29.1641 6.67765 29.9413 6.58011 30.7217 6.58011C32.2099 6.57622 33.6767 6.93376 34.9964 7.62202C36.3162 8.30989 37.4492 9.30866 38.2987 10.5313C39.3235 11.9797 39.8709 13.7118 39.8644 15.4863C39.8637 15.9882 39.8203 16.4888 39.7349 16.9801C39.6655 17.3486 39.5721 17.71 39.4556 18.0609L39.2372 18.7247L38.6468 18.2918C37.2766 17.2833 35.7442 16.5165 34.1161 16.0245L33.687 15.8912L33.7274 15.4618V15.2395C33.7274 14.7012 33.5606 14.1766 33.2501 13.7374C32.9951 13.3702 32.6555 13.0706 32.2593 12.863C31.8541 12.6534 31.4175 12.5459 30.9764 12.5471C30.7448 12.5521 30.5143 12.5874 30.289 12.6524C30.0405 12.7147 29.8008 12.8197 29.5771 12.9641L17.9991 20.3441C17.7244 20.5155 17.4816 20.7521 17.2852 21.0397C17.1021 21.3082 16.974 21.6246 16.911 21.9635C16.8825 22.1043 16.8649 22.2479 16.8583 22.3925C16.858 22.9281 17.0248 23.4504 17.3356 23.8864C17.5903 24.2537 17.9303 24.5537 18.3261 24.7608C18.7313 24.9704 19.168 25.0778 19.609 25.0764C19.843 25.0772 20.0763 25.0472 20.3048 24.987C20.5532 24.9241 20.793 24.8193 21.017 24.6757L25.4346 21.8419C26.1763 21.3735 26.9667 21.0264 27.7849 20.8097C28.5454 20.6139 29.3209 20.5149 30.0987 20.5143C31.5839 20.5143 33.0468 20.8738 34.3627 21.5624C35.6786 22.2511 36.8087 23.2487 37.6557 24.4694C38.6865 25.9139 39.2411 27.6448 39.2414 29.4205C39.2426 29.9253 39.1978 30.4293 39.1079 30.926C38.9111 32.0208 38.4884 33.0623 37.8673 33.9845C37.2459 34.9063 36.4396 35.6886 35.4993 36.2817L23.9416 43.6617C23.1986 44.1314 22.4066 44.48 21.5871 44.6981Z" fill="white"/>
<path d="M79.7159 21.878C79.6307 21.1583 79.285 20.5996 78.679 20.2019C78.0729 19.8042 77.3295 19.6053 76.4489 19.6053C75.8049 19.6053 75.2415 19.7095 74.7585 19.9178C74.2803 20.1261 73.9063 20.4126 73.6364 20.7772C73.3712 21.1417 73.2386 21.556 73.2386 22.0201C73.2386 22.4083 73.331 22.7421 73.5156 23.0215C73.705 23.2961 73.9465 23.5257 74.2401 23.7104C74.5336 23.8903 74.8414 24.0395 75.1634 24.1578C75.4853 24.2715 75.7812 24.3638 76.0511 24.4348L77.5284 24.8326C77.9072 24.932 78.3286 25.0693 78.7926 25.2445C79.2614 25.4197 79.7088 25.6588 80.1349 25.9618C80.5658 26.2601 80.9209 26.6436 81.2003 27.1124C81.4796 27.5811 81.6193 28.1564 81.6193 28.8382C81.6193 29.6242 81.4134 30.3345 81.0014 30.9689C80.5942 31.6034 79.9976 32.1077 79.2116 32.4817C78.4304 32.8558 77.4811 33.0428 76.3636 33.0428C75.322 33.0428 74.42 32.8747 73.6577 32.5385C72.9001 32.2024 72.3035 31.7336 71.8679 31.1323C71.437 30.531 71.1932 29.8326 71.1364 29.0371H72.9545C73.0019 29.5864 73.1866 30.0409 73.5085 30.4007C73.8352 30.7559 74.2472 31.021 74.7443 31.1962C75.2462 31.3667 75.786 31.4519 76.3636 31.4519C77.036 31.4519 77.6397 31.343 78.1747 31.1252C78.7098 30.9026 79.1335 30.5949 79.446 30.2019C79.7585 29.8042 79.9148 29.3401 79.9148 28.8098C79.9148 28.3269 79.7798 27.9339 79.5099 27.6309C79.2401 27.3278 78.8849 27.0816 78.4446 26.8922C78.0043 26.7028 77.5284 26.5371 77.017 26.3951L75.2273 25.8837C74.0909 25.557 73.1913 25.0906 72.5284 24.4846C71.8655 23.8785 71.5341 23.0854 71.5341 22.1053C71.5341 21.2909 71.7543 20.5807 72.1946 19.9746C72.6397 19.3638 73.2363 18.8903 73.9844 18.5542C74.7372 18.2132 75.5777 18.0428 76.5057 18.0428C77.4432 18.0428 78.2765 18.2109 79.0057 18.5471C79.7348 18.8785 80.3125 19.333 80.7386 19.9107C81.1695 20.4883 81.3968 21.1441 81.4205 21.878H79.7159ZM93.2085 21.878L89.1744 32.7871H87.4698L83.4357 21.878H85.2539L88.2653 30.5712H88.3789L91.3903 21.878H93.2085ZM99.604 33.0144C98.5529 33.0144 97.6462 32.7824 96.8839 32.3184C96.1263 31.8496 95.5415 31.1962 95.1296 30.3581C94.7224 29.5153 94.5188 28.5352 94.5188 27.4178C94.5188 26.3004 94.7224 25.3155 95.1296 24.4632C95.5415 23.6062 96.1145 22.9386 96.8484 22.4604C97.587 21.9775 98.4487 21.736 99.4336 21.736C100.002 21.736 100.563 21.8307 101.117 22.0201C101.671 22.2095 102.175 22.5172 102.63 22.9434C103.084 23.3648 103.446 23.9235 103.716 24.6195C103.986 25.3155 104.121 26.1725 104.121 27.1905V27.9007H95.712V26.4519H102.417C102.417 25.8364 102.293 25.2871 102.047 24.8042C101.806 24.3212 101.46 23.94 101.01 23.6607C100.565 23.3813 100.04 23.2417 99.4336 23.2417C98.766 23.2417 98.1883 23.4074 97.7006 23.7388C97.2177 24.0655 96.846 24.4917 96.5856 25.0172C96.3252 25.5428 96.195 26.1062 96.195 26.7076V27.6735C96.195 28.4973 96.337 29.1957 96.6211 29.7686C96.9099 30.3368 97.31 30.7701 97.8214 31.0684C98.3327 31.3619 98.927 31.5087 99.604 31.5087C100.044 31.5087 100.442 31.4471 100.797 31.324C101.157 31.1962 101.467 31.0068 101.728 30.7559C101.988 30.5002 102.189 30.1829 102.331 29.8042L103.951 30.2587C103.78 30.8079 103.494 31.2909 103.091 31.7076C102.689 32.1195 102.192 32.4415 101.6 32.6735C101.008 32.9007 100.343 33.0144 99.604 33.0144ZM108.347 18.2417V32.7871H106.671V18.2417H108.347ZM116.161 21.878V23.2985H110.508V21.878H116.161ZM112.156 19.2644H113.832V29.6621C113.832 30.1356 113.9 30.4907 114.038 30.7275C114.18 30.9595 114.36 31.1157 114.577 31.1962C114.8 31.272 115.034 31.3098 115.281 31.3098C115.465 31.3098 115.617 31.3004 115.735 31.2814C115.853 31.2578 115.948 31.2388 116.019 31.2246L116.36 32.7303C116.246 32.7729 116.088 32.8155 115.884 32.8581C115.681 32.9055 115.423 32.9292 115.11 32.9292C114.637 32.9292 114.173 32.8274 113.718 32.6238C113.268 32.4202 112.894 32.11 112.596 31.6934C112.302 31.2767 112.156 30.7511 112.156 30.1167V19.2644ZM123.139 33.0144C122.088 33.0144 121.181 32.7824 120.419 32.3184C119.661 31.8496 119.077 31.1962 118.665 30.3581C118.258 29.5153 118.054 28.5352 118.054 27.4178C118.054 26.3004 118.258 25.3155 118.665 24.4632C119.077 23.6062 119.65 22.9386 120.384 22.4604C121.122 21.9775 121.984 21.736 122.969 21.736C123.537 21.736 124.098 21.8307 124.652 22.0201C125.206 22.2095 125.71 22.5172 126.165 22.9434C126.619 23.3648 126.982 23.9235 127.251 24.6195C127.521 25.3155 127.656 26.1725 127.656 27.1905V27.9007H119.247V26.4519H125.952C125.952 25.8364 125.829 25.2871 125.582 24.8042C125.341 24.3212 124.995 23.94 124.545 23.6607C124.1 23.3813 123.575 23.2417 122.969 23.2417C122.301 23.2417 121.723 23.4074 121.236 23.7388C120.753 24.0655 120.381 24.4917 120.121 25.0172C119.86 25.5428 119.73 26.1062 119.73 26.7076V27.6735C119.73 28.4973 119.872 29.1957 120.156 29.7686C120.445 30.3368 120.845 30.7701 121.357 31.0684C121.868 31.3619 122.462 31.5087 123.139 31.5087C123.58 31.5087 123.977 31.4471 124.332 31.324C124.692 31.1962 125.002 31.0068 125.263 30.7559C125.523 30.5002 125.724 30.1829 125.866 29.8042L127.486 30.2587C127.315 30.8079 127.029 31.2909 126.626 31.7076C126.224 32.1195 125.727 32.4415 125.135 32.6735C124.543 32.9007 123.878 33.0144 123.139 33.0144Z" fill="white"/>
</svg>
