<svg width="50" height="50" viewBox="0 0 50 50" fill="none" xmlns="http://www.w3.org/2000/svg">
<g clip-path="url(#clip0_19560_28721)">
<path d="M23.3627 0.0134552C23.2551 0.0232289 22.913 0.057437 22.6051 0.0818713C15.5034 0.722051 8.85142 4.55336 4.63832 10.442C2.29228 13.7162 0.791789 17.4303 0.224829 21.3642C0.0244379 22.7374 0 23.143 0 25.0049C0 26.8668 0.0244379 27.2724 0.224829 28.6456C1.58358 38.0333 8.26491 45.9207 17.3265 48.843C18.9492 49.3659 20.6598 49.7227 22.6051 49.9377C23.3627 50.0208 26.6373 50.0208 27.3949 49.9377C30.7527 49.5663 33.5973 48.7355 36.4027 47.3037C36.8328 47.0838 36.9159 47.0251 36.8573 46.9763C36.8182 46.9469 34.9853 44.4888 32.7859 41.5176L28.7879 36.1176L23.7781 28.7043C21.0215 24.6286 18.7537 21.2958 18.7341 21.2958C18.7146 21.2909 18.695 24.5846 18.6852 28.6065C18.6706 35.6485 18.6657 35.9319 18.5777 36.0981C18.4506 36.3375 18.3529 36.4353 18.1476 36.5428C17.9912 36.621 17.8544 36.6356 17.1163 36.6356H16.2708L16.0459 36.4939C15.8993 36.4011 15.7918 36.2789 15.7185 36.1372L15.6158 35.9173L15.6256 26.1191L15.6403 16.316L15.7918 16.1255C15.87 16.0228 16.0362 15.8909 16.1535 15.8274C16.3539 15.7296 16.4321 15.7198 17.2776 15.7198C18.2747 15.7198 18.4409 15.7589 18.6999 16.0424C18.7732 16.1206 21.4858 20.206 24.7312 25.1271C27.9765 30.0481 32.4145 36.7676 34.5943 40.0662L38.5533 46.0624L38.7537 45.9305C40.5279 44.7772 42.4047 43.1352 43.8905 41.4248C47.0528 37.7938 49.0909 33.3663 49.7752 28.6456C49.9756 27.2724 50 26.8668 50 25.0049C50 23.143 49.9756 22.7374 49.7752 21.3642C48.4164 11.9765 41.7351 4.0891 32.6735 1.16676C31.0753 0.648748 29.3744 0.292007 27.4682 0.0769845C26.999 0.0281158 23.7683 -0.0256398 23.3627 0.0134552ZM33.5973 15.1334C33.8319 15.2507 34.0225 15.4755 34.0909 15.7101C34.13 15.8371 34.1398 18.5542 34.13 24.6775L34.1153 33.4641L32.566 31.089L31.0117 28.714V22.3269C31.0117 18.1975 31.0313 15.8762 31.0606 15.7638C31.1388 15.4902 31.3099 15.2751 31.5445 15.1481C31.7449 15.0455 31.8182 15.0357 32.5855 15.0357C33.3089 15.0357 33.436 15.0455 33.5973 15.1334Z" fill="black"/>
</g>
<defs>
<clipPath id="clip0_19560_28721">
<rect width="50" height="50" fill="white"/>
</clipPath>
</defs>
</svg>
