<svg width="76" height="76" viewBox="0 0 76 76" fill="none" xmlns="http://www.w3.org/2000/svg">
<path d="M75.9939 18.8819C75.9934 17.2026 75.832 15.5276 75.5122 13.882C75.1922 12.1975 74.6483 10.5682 73.8963 9.04184C73.1105 7.56339 72.1338 6.2054 70.9939 5.00622C69.8182 3.80153 68.4526 2.81861 66.9573 2.10082C65.4817 1.32161 63.9034 0.777112 62.2744 0.485297C60.6585 0.159637 58.8842 0.159637 57.2683 0H17.4085C16.1652 0.0212022 14.9246 0.130001 13.6951 0.32566C12.4751 0.47607 11.2808 0.802704 10.1463 1.29625C9.82317 1.45589 9.34146 1.62191 9.01829 1.78155C7.94497 2.38405 6.92473 3.08494 5.96951 3.87599C5.64634 4.20165 5.32317 4.36128 5 4.68056C3.81162 5.83485 2.82883 7.20135 2.09756 8.71618C1.29898 10.2211 0.752461 11.8582 0.481707 13.5564C0.241416 15.2135 0.0806445 16.8822 0 18.5562V57.1181C0.00050157 58.7974 0.161879 60.4724 0.481707 62.118C0.801695 63.8025 1.34561 65.4318 2.09756 66.9582C2.88341 68.4366 3.86007 69.7946 5 70.9938C6.1757 72.1985 7.54132 73.1814 9.03659 73.8992C10.5122 74.6784 12.0905 75.2229 13.7195 75.5147C15.3354 75.8404 17.1098 75.8404 18.7256 76H57.2744C58.9537 75.9987 60.6294 75.8363 62.2805 75.5147C63.9095 75.2229 65.4878 74.6784 66.9634 73.8992C68.4267 73.1237 69.7843 72.1466 71 70.9938C72.1884 69.8395 73.1712 68.473 73.9024 66.9582C74.701 65.4532 75.2475 63.8161 75.5183 62.118C75.7586 60.4608 75.9194 58.7921 76 57.1181V18.8819H75.9939Z" fill="#F05138"/>
<path d="M51.1858 58.4965C44.3812 62.3871 35.0285 62.787 25.6147 58.7948C18.2748 55.7087 11.9991 50.4084 7.60156 43.5814C9.64525 45.2025 11.878 46.5502 14.247 47.5926C23.9671 52.0989 33.6811 51.7879 40.5225 47.5926C30.784 40.1921 22.5155 30.5703 16.3539 22.7129C15.138 21.385 14.0527 19.935 13.1139 18.3843C20.5617 25.1183 32.4071 33.6168 36.621 36.0223C30.6044 29.6341 25.0755 22.7715 20.084 15.4965C28.3813 23.852 37.5116 31.2708 47.3211 37.628C47.7559 37.8692 48.0928 38.0723 48.3623 38.2627C48.6498 37.5353 48.8973 36.7915 49.1034 36.0349C51.3757 27.8538 48.7788 18.5557 43.1072 10.8569C56.2388 18.708 64.048 33.4581 60.7773 45.8091C60.6916 46.1455 60.5997 46.4438 60.5017 46.7929L60.6181 46.9325C67.1043 54.9486 65.3219 63.4344 64.5073 61.8476C60.9856 55.0057 54.4749 57.1192 51.1858 58.4965Z" fill="#FEFEFE"/>
</svg>
