<svg width="152" height="51" viewBox="0 0 152 51" fill="none" xmlns="http://www.w3.org/2000/svg">
<path d="M0 25.7871C0 11.98 11.1929 0.787109 25 0.787109C38.8071 0.787109 50 11.98 50 25.7871C50 39.5942 38.8071 50.7871 25 50.7871C11.1929 50.7871 0 39.5942 0 25.7871Z" fill="white"/>
<path d="M25 0.787109C11.1831 0.787109 0 11.9703 0 25.7871C0 39.604 11.1831 50.7871 25 50.7871C38.8169 50.7871 50 39.604 50 25.7871C50 11.9703 38.8169 0.787109 25 0.787109ZM38.4927 15.2523C37.3177 15.2928 36.5478 14.604 36.5073 13.5505C36.5073 13.1453 36.5883 12.8211 36.872 12.416C37.1151 11.9297 37.1961 11.8487 37.1961 11.6461C37.1556 10.9978 36.1831 10.9573 35.8995 10.9573C32.1313 11.0788 31.1588 16.1437 30.3485 20.2766L29.9433 22.4646C32.0908 22.7887 33.6305 22.3835 34.4814 21.8568C35.6969 21.087 34.1572 20.2766 34.3193 19.3852C34.5219 18.4938 35.3323 18.048 35.9806 18.0075C36.9125 17.967 37.5608 18.9395 37.5203 19.9119C37.4797 21.4921 35.3728 23.7207 31.1183 23.5991C30.5916 23.5991 30.1459 23.5586 29.7002 23.5181L28.8898 27.9346C28.1605 31.2571 27.2285 35.8357 23.825 39.8066C20.9076 43.2912 17.9498 43.8179 16.6126 43.8584C14.141 43.9395 12.4797 42.6023 12.4392 40.86C12.3987 39.1583 13.8979 38.2263 14.8703 38.1858C16.2075 38.1453 17.0989 39.1177 17.1394 40.2117C17.1799 41.1437 16.6937 41.4273 16.3695 41.6299C16.1669 41.792 15.8428 41.9946 15.8428 42.3592C15.8428 42.5213 16.0454 42.886 16.5721 42.886C17.6256 42.8455 18.3144 42.3187 18.8007 41.9946C21.2318 39.9686 22.1637 36.4435 23.3793 30.0821L23.6224 28.5424C24.0276 26.4759 24.5138 24.1258 25.2026 21.8163C23.5008 20.5197 22.4878 18.9395 20.1783 18.3317C18.5981 17.886 17.6661 18.2506 16.9773 19.1015C16.1669 20.1145 16.4506 21.4111 17.2204 22.181L18.4765 23.5991C20.0567 25.4224 20.9076 26.8001 20.5835 28.7045C20.1378 31.6623 16.5316 33.9719 12.2771 32.6753C8.63047 31.5408 7.98217 28.9881 8.42788 27.5699C8.79255 26.3139 9.80551 26.0707 10.778 26.3949C11.8314 26.719 12.2366 27.9751 11.9125 28.9476C11.872 29.0691 11.8314 29.2312 11.7099 29.4338C11.5883 29.7174 11.3857 29.92 11.2642 30.2442C11.0211 31.014 12.0746 31.5408 12.8039 31.7839C14.4246 32.2701 16.0049 31.4192 16.41 30.1226C16.7747 28.907 16.0049 28.0562 15.7212 27.732L14.1815 26.0707C13.4927 25.3009 11.9125 23.1129 12.6823 20.6412C12.966 19.7093 13.5737 18.6964 14.4652 18.0481C16.329 16.6299 18.3955 16.4273 20.3404 16.9946C22.8525 17.7239 24.0681 19.3852 25.6483 20.6818C26.5397 18.1291 27.7553 15.5764 29.5786 13.4694C31.2399 11.5245 33.4279 10.1469 35.9806 10.0254C38.5332 9.94432 40.4376 11.0788 40.5186 12.9022C40.4781 13.7126 40.0324 15.2117 38.4927 15.2523Z" fill="#1A171B"/>
<path d="M79.7159 21.878C79.6307 21.1583 79.285 20.5996 78.679 20.2019C78.0729 19.8042 77.3295 19.6053 76.4489 19.6053C75.8049 19.6053 75.2415 19.7095 74.7585 19.9178C74.2803 20.1261 73.9063 20.4126 73.6364 20.7772C73.3712 21.1417 73.2386 21.556 73.2386 22.0201C73.2386 22.4083 73.331 22.7421 73.5156 23.0215C73.705 23.2961 73.9465 23.5257 74.2401 23.7104C74.5336 23.8903 74.8414 24.0395 75.1634 24.1578C75.4853 24.2715 75.7812 24.3638 76.0511 24.4348L77.5284 24.8326C77.9072 24.932 78.3286 25.0693 78.7926 25.2445C79.2614 25.4197 79.7088 25.6588 80.1349 25.9618C80.5658 26.2601 80.9209 26.6436 81.2003 27.1124C81.4796 27.5811 81.6193 28.1564 81.6193 28.8382C81.6193 29.6242 81.4134 30.3345 81.0014 30.9689C80.5942 31.6034 79.9976 32.1077 79.2116 32.4817C78.4304 32.8558 77.4811 33.0428 76.3636 33.0428C75.322 33.0428 74.42 32.8747 73.6577 32.5385C72.9001 32.2024 72.3035 31.7336 71.8679 31.1323C71.437 30.531 71.1932 29.8326 71.1364 29.0371H72.9545C73.0019 29.5864 73.1866 30.0409 73.5085 30.4007C73.8352 30.7559 74.2472 31.021 74.7443 31.1962C75.2462 31.3667 75.786 31.4519 76.3636 31.4519C77.036 31.4519 77.6397 31.343 78.1747 31.1252C78.7098 30.9026 79.1335 30.5949 79.446 30.2019C79.7585 29.8042 79.9148 29.3401 79.9148 28.8098C79.9148 28.3269 79.7798 27.9339 79.5099 27.6309C79.2401 27.3278 78.8849 27.0816 78.4446 26.8922C78.0043 26.7028 77.5284 26.5371 77.017 26.3951L75.2273 25.8837C74.0909 25.557 73.1913 25.0906 72.5284 24.4846C71.8655 23.8785 71.5341 23.0854 71.5341 22.1053C71.5341 21.2909 71.7543 20.5807 72.1946 19.9746C72.6397 19.3638 73.2363 18.8903 73.9844 18.5542C74.7372 18.2132 75.5777 18.0428 76.5057 18.0428C77.4432 18.0428 78.2765 18.2109 79.0057 18.5471C79.7348 18.8785 80.3125 19.333 80.7386 19.9107C81.1695 20.4883 81.3968 21.1441 81.4205 21.878H79.7159ZM85.3675 36.878C85.0835 36.878 84.8301 36.8543 84.6076 36.807C84.3851 36.7644 84.2312 36.7218 84.146 36.6792L84.5721 35.2019C84.9793 35.306 85.3391 35.3439 85.6516 35.3155C85.9641 35.2871 86.2411 35.1474 86.4826 34.8965C86.7288 34.6503 86.9537 34.2502 87.1573 33.6962L87.4698 32.8439L83.4357 21.878H85.2539L88.2653 30.5712H88.3789L91.3903 21.878H93.2085L88.5778 34.378C88.3694 34.9415 88.1114 35.4078 87.8036 35.7772C87.4959 36.1512 87.1384 36.4282 86.7312 36.6081C86.3287 36.7881 85.8742 36.878 85.3675 36.878ZM95.4208 32.7871V21.878H97.0401V23.5826H97.1822C97.4094 23.0002 97.7764 22.548 98.283 22.226C98.7897 21.8993 99.3981 21.736 100.108 21.736C100.828 21.736 101.427 21.8993 101.905 22.226C102.388 22.548 102.765 23.0002 103.034 23.5826H103.148C103.427 23.0191 103.846 22.5717 104.405 22.2402C104.964 21.9041 105.634 21.736 106.415 21.736C107.391 21.736 108.188 22.0414 108.809 22.6522C109.429 23.2582 109.739 24.2028 109.739 25.486V32.7871H108.063V25.486C108.063 24.681 107.843 24.1058 107.402 23.7601C106.962 23.4145 106.444 23.2417 105.847 23.2417C105.08 23.2417 104.486 23.4737 104.064 23.9377C103.643 24.397 103.432 24.9793 103.432 25.6848V32.7871H101.728V25.3155C101.728 24.6953 101.526 24.1957 101.124 23.8169C100.721 23.4334 100.203 23.2417 99.5685 23.2417C99.1329 23.2417 98.7257 23.3577 98.3469 23.5897C97.9729 23.8217 97.6699 24.1436 97.4379 24.5556C97.2106 24.9628 97.0969 25.4339 97.0969 25.9689V32.7871H95.4208ZM117.662 21.878V23.2985H111.781V21.878H117.662ZM113.542 32.7871V20.3723C113.542 19.7473 113.689 19.2265 113.983 18.8098C114.276 18.3932 114.657 18.0807 115.126 17.8723C115.595 17.664 116.09 17.5598 116.61 17.5598C117.022 17.5598 117.359 17.593 117.619 17.6593C117.879 17.7256 118.074 17.7871 118.201 17.8439L117.718 19.2928C117.633 19.2644 117.515 19.2289 117.363 19.1863C117.217 19.1436 117.022 19.1223 116.781 19.1223C116.227 19.1223 115.827 19.262 115.581 19.5414C115.339 19.8207 115.218 20.2303 115.218 20.7701V32.7871H113.542ZM123.993 33.0144C123.008 33.0144 122.144 32.78 121.401 32.3113C120.662 31.8425 120.085 31.1867 119.668 30.3439C119.256 29.5011 119.05 28.5163 119.05 27.3894C119.05 26.253 119.256 25.2611 119.668 24.4135C120.085 23.566 120.662 22.9078 121.401 22.4391C122.144 21.9703 123.008 21.736 123.993 21.736C124.978 21.736 125.84 21.9703 126.578 22.4391C127.322 22.9078 127.9 23.566 128.311 24.4135C128.728 25.2611 128.936 26.253 128.936 27.3894C128.936 28.5163 128.728 29.5011 128.311 30.3439C127.9 31.1867 127.322 31.8425 126.578 32.3113C125.84 32.78 124.978 33.0144 123.993 33.0144ZM123.993 31.5087C124.741 31.5087 125.357 31.3169 125.84 30.9334C126.323 30.5499 126.68 30.0456 126.912 29.4206C127.144 28.7956 127.26 28.1185 127.26 27.3894C127.26 26.6602 127.144 25.9808 126.912 25.351C126.68 24.7213 126.323 24.2123 125.84 23.824C125.357 23.4358 124.741 23.2417 123.993 23.2417C123.245 23.2417 122.63 23.4358 122.147 23.824C121.664 24.2123 121.306 24.7213 121.074 25.351C120.842 25.9808 120.726 26.6602 120.726 27.3894C120.726 28.1185 120.842 28.7956 121.074 29.4206C121.306 30.0456 121.664 30.5499 122.147 30.9334C122.63 31.3169 123.245 31.5087 123.993 31.5087ZM133.171 26.2246V32.7871H131.495V21.878H133.114V23.5826H133.256C133.512 23.0286 133.9 22.5835 134.421 22.2473C134.942 21.9064 135.614 21.736 136.438 21.736C137.177 21.736 137.823 21.8875 138.377 22.1905C138.931 22.4888 139.362 22.9434 139.67 23.5542C139.978 24.1602 140.131 24.9273 140.131 25.8553V32.7871H138.455V25.9689C138.455 25.1119 138.233 24.4443 137.788 23.9661C137.343 23.4831 136.732 23.2417 135.955 23.2417C135.42 23.2417 134.942 23.3577 134.521 23.5897C134.104 23.8217 133.775 24.1602 133.533 24.6053C133.292 25.0504 133.171 25.5901 133.171 26.2246ZM143.883 36.878C143.599 36.878 143.346 36.8543 143.123 36.807C142.901 36.7644 142.747 36.7218 142.662 36.6792L143.088 35.2019C143.495 35.306 143.855 35.3439 144.167 35.3155C144.48 35.2871 144.757 35.1474 144.998 34.8965C145.244 34.6503 145.469 34.2502 145.673 33.6962L145.985 32.8439L141.951 21.878H143.77L146.781 30.5712H146.895L149.906 21.878H151.724L147.093 34.378C146.885 34.9415 146.627 35.4078 146.319 35.7772C146.011 36.1512 145.654 36.4282 145.247 36.6081C144.844 36.7881 144.39 36.878 143.883 36.878Z" fill="white"/>
</svg>
