<svg width="72" height="73" viewBox="0 0 72 73" fill="none" xmlns="http://www.w3.org/2000/svg">
<g clip-path="url(#clip0_9862_1830)">
<path d="M36.3906 71.6346C56.0709 71.6346 72.025 55.6806 72.025 36.0002C72.025 16.3198 56.0709 0.365723 36.3906 0.365723C16.7102 0.365723 0.756104 16.3198 0.756104 36.0002C0.756104 55.6806 16.7102 71.6346 36.3906 71.6346Z" fill="url(#paint0_linear_9862_1830)"/>
<path fill-rule="evenodd" clip-rule="evenodd" d="M33.2155 24.1574L31.6079 25.765C30.6138 26.759 30.6138 28.3706 31.6079 29.3646C32.1049 29.8615 32.7563 30.1103 33.4076 30.1103C34.0588 30.1103 34.7104 29.8617 35.2073 29.3646L40.9321 23.6398C41.9262 22.6458 41.9262 21.0342 40.9321 20.0403L35.2073 14.3154C34.2137 13.3213 32.602 13.3213 31.6077 14.3154C30.6135 15.3094 30.6135 16.9211 31.6077 17.9151L32.7302 19.0376C24.9137 20.7225 19.0375 27.6877 19.0375 36.0007C19.0375 40.0528 20.4642 43.9963 23.0548 47.1046C23.5583 47.7087 24.2824 48.0202 25.0115 48.0202C25.586 48.0202 26.1639 47.8267 26.6397 47.4301C27.7196 46.5301 27.8654 44.925 26.9653 43.8451C25.1356 41.65 24.1279 38.864 24.1279 36.0004C24.1285 30.3369 27.9887 25.5602 33.2155 24.1574ZM46.4007 24.7977C45.3005 25.6728 45.118 27.274 45.9931 28.3741C47.7331 30.5613 48.6525 33.1984 48.6525 36.0005C48.6525 41.779 44.6333 46.6337 39.2444 47.9236L40.9325 46.236C41.9266 45.242 41.9266 43.6303 40.9325 42.6363C39.9385 41.6425 38.3269 41.6425 37.333 42.6363L31.6081 48.361C30.6139 49.355 30.6139 50.9666 31.6081 51.9605L37.3328 57.6854C37.8298 58.1826 38.4809 58.431 39.1325 58.431C39.7838 58.431 40.4353 58.1824 40.9322 57.6854C41.9263 56.6913 41.9263 55.0797 40.9322 54.0857L39.852 53.0056C47.7675 51.397 53.7431 44.3835 53.7431 36.0003C53.7431 32.092 52.4057 28.258 49.977 25.205C49.1021 24.105 47.5008 23.9224 46.4007 24.7977Z" fill="white"/>
</g>
<defs>
<linearGradient id="paint0_linear_9862_1830" x1="36.3906" y1="0.365723" x2="36.3906" y2="71.6346" gradientUnits="userSpaceOnUse">
<stop stop-color="#01F1FE"/>
<stop offset="1" stop-color="#4FADFE"/>
</linearGradient>
<clipPath id="clip0_9862_1830">
<rect width="72" height="72" fill="white" transform="translate(0 0.365723)"/>
</clipPath>
</defs>
</svg>
