<svg width="50" height="50" viewBox="0 0 50 50" fill="none" xmlns="http://www.w3.org/2000/svg">
<g clip-path="url(#clip0_17275_17418)">
<mask id="mask0_17275_17418" style="mask-type:luminance" maskUnits="userSpaceOnUse" x="0" y="14" width="50" height="31">
<path d="M0 14H50V44.1091H0V14Z" fill="white"/>
</mask>
<g mask="url(#mask0_17275_17418)">
<path fill-rule="evenodd" clip-rule="evenodd" d="M25 14C18.3333 14 14.1667 17.3455 12.5 24.0364C15 20.6909 17.9167 19.4364 21.25 20.2727C23.1519 20.7495 24.5111 22.135 26.0157 23.6674C28.4667 26.1644 31.3037 29.0545 37.5 29.0545C44.1667 29.0545 48.3333 25.7091 50 19.0182C47.5 22.3636 44.5833 23.6182 41.25 22.7818C39.3481 22.3051 37.9889 20.9195 36.4843 19.3871C34.0333 16.8901 31.1963 14 25 14ZM12.5 29.0545C5.83333 29.0545 1.66667 32.4 0 39.0909C2.5 35.7455 5.41667 34.4909 8.75 35.3273C10.6519 35.8049 12.0111 37.1896 13.5157 38.722C15.9667 41.219 18.8037 44.1091 25 44.1091C31.6667 44.1091 35.8333 40.7636 37.5 34.0727C35 37.4182 32.0833 38.6727 28.75 37.8364C26.8481 37.3596 25.4889 35.9741 23.9843 34.4417C21.5333 31.9446 18.6963 29.0545 12.5 29.0545Z" fill="#38BDF8"/>
</g>
</g>
<defs>
<clipPath id="clip0_17275_17418">
<rect width="50" height="50" fill="white"/>
</clipPath>
</defs>
</svg>
