<svg width="100" height="100" viewBox="0 0 100 100" fill="none" xmlns="http://www.w3.org/2000/svg">
<path d="M100 50C100 77.6142 77.6142 100 50 100C22.3858 100 0 77.6142 0 50C0 22.3858 22.3858 0 50 0C77.6142 0 100 22.3858 100 50Z" fill="#FF5D00" fill-opacity="0.1"/>
<path fill-rule="evenodd" clip-rule="evenodd" d="M78.9996 53C82.8633 53 86 56.1372 86 60C86 63.8635 82.8633 67 78.9996 67C75.1359 67 71.9992 63.8635 71.9992 60C71.9992 56.1372 75.1359 53 78.9996 53ZM78.9996 57.3492C80.4622 57.3492 81.6505 58.5374 81.6505 60C81.6505 61.4632 80.4622 62.6508 78.9996 62.6508C77.5363 62.6508 76.3487 61.4632 76.3487 60C76.3487 58.5374 77.5363 57.3492 78.9996 57.3492ZM23.0004 53C26.8641 53 30.0008 56.1372 30.0008 60C30.0008 63.8635 26.8641 67 23.0004 67C19.1367 67 16 63.8635 16 60C16 56.1372 19.1367 53 23.0004 53ZM23.0004 57.3492C24.4637 57.3492 25.6513 58.5374 25.6513 60C25.6513 61.4632 24.4637 62.6508 23.0004 62.6508C21.5371 62.6508 20.3495 61.4632 20.3495 60C20.3495 58.5374 21.5371 57.3492 23.0004 57.3492Z" fill="#FF5D00"/>
<path fill-rule="evenodd" clip-rule="evenodd" d="M11.8224 49.1523H14.6063C15.3365 49.1523 15.9291 49.7467 15.9291 50.4791C15.9291 51.2115 15.3365 51.8059 14.6063 51.8059H10.235C10.0697 52.2052 9.92749 52.6178 9.80976 53.0431C9.60406 53.788 9.39572 54.5396 9.19266 55.274C8.75084 56.8721 9.07824 58.5849 10.079 59.9051C11.0797 61.2252 12.638 62 14.2915 62H14.8312C14.7512 61.5363 14.7095 61.0593 14.7095 60.5724C14.7095 55.9732 18.4326 52.2384 23.0188 52.2384C27.605 52.2384 31.3281 55.9732 31.3281 60.5724C31.3281 61.0593 31.2865 61.5363 31.2064 62H70.7191C70.6391 61.5363 70.5974 61.0593 70.5974 60.5724C70.5974 55.9732 74.3205 52.2384 78.9068 52.2384C83.493 52.2384 87.2161 55.9732 87.2161 60.5724C87.2161 61.0593 87.1744 61.5363 87.0944 62H88.3544C89.8154 62 91 60.8119 91 59.3465C91 56.9968 91 53.4968 91 50.5746C91 47.6431 88.6315 45.2676 85.7087 45.2676C84.5486 45.2676 83.3766 45.2676 82.4016 45.2676C81.4095 45.2676 79.9855 44.6042 79.4914 42.6141C77.951 36.4048 72.3806 32 65.9457 32C59.8608 32 52.3696 32 46.1325 32C39.3286 32 33.2627 36.1043 30.6581 42.2824C29.6792 44.6042 26.646 45.2676 25.5203 45.2676C23.8714 45.2676 21.9143 45.2676 20.0074 45.2676C16.7612 45.2676 13.7868 46.7496 11.8224 49.1523ZM48.843 51.8059H52.4562C53.1858 51.8059 53.7791 51.2115 53.7791 50.4791C53.7791 49.7467 53.1858 49.1523 52.4562 49.1523H48.843C48.1128 49.1523 47.5201 49.7467 47.5201 50.4791C47.5201 51.2115 48.1128 51.8059 48.843 51.8059ZM67.5642 51.8059H71.1768C71.907 51.8059 72.4997 51.2115 72.4997 50.4791C72.4997 49.7467 71.907 49.1523 71.1768 49.1523H67.5642C66.834 49.1523 66.2414 49.7467 66.2414 50.4791C66.2414 51.2115 66.834 51.8059 67.5642 51.8059ZM53.961 37.307H44.9572C40.574 37.307 37.0202 40.8707 37.0202 45.2676H53.961V37.307ZM56.6066 37.307V45.2676H72.1498C72.1498 40.8707 68.5967 37.307 64.2128 37.307H56.6066Z" fill="#FF5D00"/>
</svg>
