<svg width="100" height="100" viewBox="0 0 100 100" fill="none" xmlns="http://www.w3.org/2000/svg">
<circle cx="50" cy="50" r="50" fill="#D7E6ED"/>
<g clip-path="url(#clip0_4949_5057)">
<path d="M50.337 39.3417V50.0937C50.3336 51.1384 49.9315 52.1424 49.2128 52.9007C48.4941 53.659 47.5131 54.1143 46.47 54.1737V71.9777C46.4671 72.7772 46.1482 73.5431 45.5829 74.1085C45.0175 74.6739 44.2515 74.9927 43.452 74.9956H37.885C37.0855 74.9927 36.3195 74.6739 35.7542 74.1085C35.1888 73.5431 34.8699 72.7772 34.867 71.9777V54.1777C33.8239 54.1183 32.8429 53.663 32.1242 52.9047C31.4055 52.1464 31.0034 51.1424 31 50.0977V39.3417C31.004 38.3173 31.4126 37.336 32.137 36.6116C32.8613 35.8873 33.8426 35.4786 34.867 35.4747H37.502C37.546 35.4738 37.5892 35.4854 37.6269 35.508C37.6646 35.5307 37.6951 35.5635 37.715 35.6027L40.69 41.3397L43.665 35.6027C43.6849 35.5635 43.7154 35.5307 43.7531 35.508C43.7908 35.4854 43.8341 35.4738 43.878 35.4747H46.513C47.5308 35.4873 48.5027 35.9001 49.2186 36.6237C49.9344 37.3474 50.3365 38.3238 50.338 39.3417H50.337Z" fill="#6B8DA4"/>
<path d="M45.3656 28.675C45.3656 29.5996 45.0914 30.5035 44.5777 31.2723C44.064 32.0411 43.3339 32.6403 42.4797 32.9942C41.6254 33.348 40.6854 33.4406 39.7786 33.2602C38.8717 33.0798 38.0387 32.6346 37.3849 31.9807C36.7311 31.3269 36.2858 30.4939 36.1055 29.5871C35.9251 28.6802 36.0177 27.7402 36.3715 26.886C36.7253 26.0317 37.3245 25.3016 38.0933 24.7879C38.8621 24.2742 39.766 24 40.6906 24C41.3051 23.9982 41.9138 24.1178 42.4819 24.3521C43.0499 24.5864 43.566 24.9307 44.0005 25.3652C44.435 25.7997 44.7792 26.3158 45.0135 26.8838C45.2478 27.4518 45.3675 28.0606 45.3656 28.675Z" fill="#6B8DA4"/>
<path d="M57.9331 68.9531C57.2321 68.9518 56.5523 69.1937 56.0097 69.6376C55.467 70.0814 55.0952 70.6998 54.9575 71.3871C54.8198 72.0745 54.9247 72.7883 55.2545 73.407C55.5842 74.0256 56.1184 74.5107 56.7658 74.7795C57.4132 75.0484 58.1338 75.0844 58.8048 74.8813C59.4758 74.6782 60.0556 74.2487 60.4453 73.666C60.835 73.0833 61.0105 72.3834 60.9419 71.6857C60.8733 70.9881 60.5648 70.3358 60.0691 69.8402C59.5028 69.273 58.7345 68.954 57.9331 68.9531Z" fill="#6B8DA4"/>
<path d="M68.2925 68.9531C67.5915 68.9518 66.9117 69.1937 66.3691 69.6376C65.8264 70.0814 65.4545 70.6998 65.3168 71.3871C65.1791 72.0745 65.2841 72.7883 65.6139 73.407C65.9436 74.0256 66.4778 74.5107 67.1252 74.7795C67.7726 75.0484 68.4932 75.0844 69.1642 74.8813C69.8352 74.6782 70.415 74.2487 70.8047 73.666C71.1944 73.0833 71.3699 72.3834 71.3013 71.6857C71.2327 70.9881 70.9242 70.3358 70.4285 69.8402C69.8622 69.273 69.0939 68.954 68.2925 68.9531Z" fill="#6B8DA4"/>
<path d="M70.5315 58.6811H56.3965L55.5405 54.7401C55.4914 54.518 55.368 54.3193 55.1908 54.1767C55.0135 54.0342 54.793 53.9564 54.5655 53.9561H52.3125C52.0473 53.9561 51.7929 54.0614 51.6054 54.2489C51.4179 54.4365 51.3125 54.6908 51.3125 54.9561C51.3125 55.2213 51.4179 55.4756 51.6054 55.6632C51.7929 55.8507 52.0473 55.9561 52.3125 55.9561H53.7385L56.2875 67.4681C56.3366 67.6901 56.46 67.8888 56.6373 68.0314C56.8145 68.1739 57.0351 68.2517 57.2625 68.2521H70.0105C70.2626 68.2528 70.5057 68.1584 70.6911 67.9876C70.8765 67.8169 70.9906 67.5823 71.0105 67.3311L71.5295 59.7591C71.5387 59.6222 71.5196 59.4849 71.4735 59.3558C71.4274 59.2266 71.3552 59.1083 71.2614 59.0082C71.1676 58.9081 71.0542 58.8284 70.9283 58.774C70.8024 58.7197 70.6667 58.6917 70.5295 58.6921L70.5315 58.6811Z" fill="#6B8DA4"/>
</g>
<g clip-path="url(#clip1_4949_5057)">
<path d="M50.337 39.3417V50.0937C50.3336 51.1384 49.9315 52.1424 49.2128 52.9007C48.4941 53.659 47.5131 54.1143 46.47 54.1737V71.9777C46.4671 72.7772 46.1482 73.5431 45.5829 74.1085C45.0175 74.6739 44.2515 74.9927 43.452 74.9956H37.885C37.0855 74.9927 36.3195 74.6739 35.7542 74.1085C35.1888 73.5431 34.8699 72.7772 34.867 71.9777V54.1777C33.8239 54.1183 32.8429 53.663 32.1242 52.9047C31.4055 52.1464 31.0034 51.1424 31 50.0977V39.3417C31.004 38.3173 31.4126 37.336 32.137 36.6116C32.8613 35.8873 33.8426 35.4786 34.867 35.4747H37.502C37.546 35.4738 37.5892 35.4854 37.6269 35.508C37.6646 35.5307 37.6951 35.5635 37.715 35.6027L40.69 41.3397L43.665 35.6027C43.6849 35.5635 43.7154 35.5307 43.7531 35.508C43.7908 35.4854 43.8341 35.4738 43.878 35.4747H46.513C47.5308 35.4873 48.5027 35.9001 49.2186 36.6237C49.9344 37.3474 50.3365 38.3238 50.338 39.3417H50.337Z" fill="#3E5565"/>
<path d="M45.3656 28.675C45.3656 29.5996 45.0914 30.5035 44.5777 31.2723C44.064 32.0411 43.3339 32.6403 42.4797 32.9942C41.6254 33.348 40.6854 33.4406 39.7786 33.2602C38.8717 33.0798 38.0387 32.6346 37.3849 31.9807C36.7311 31.3269 36.2858 30.4939 36.1055 29.5871C35.9251 28.6802 36.0177 27.7402 36.3715 26.886C36.7253 26.0317 37.3245 25.3016 38.0933 24.7879C38.8621 24.2742 39.766 24 40.6906 24C41.3051 23.9982 41.9138 24.1178 42.4819 24.3521C43.0499 24.5864 43.566 24.9307 44.0005 25.3652C44.435 25.7997 44.7792 26.3158 45.0135 26.8838C45.2478 27.4518 45.3675 28.0606 45.3656 28.675Z" fill="#3E5565"/>
<path d="M57.9331 68.9531C57.2321 68.9518 56.5523 69.1937 56.0097 69.6376C55.467 70.0814 55.0952 70.6998 54.9575 71.3871C54.8198 72.0745 54.9247 72.7883 55.2545 73.407C55.5842 74.0256 56.1184 74.5107 56.7658 74.7795C57.4132 75.0484 58.1338 75.0844 58.8048 74.8813C59.4758 74.6782 60.0556 74.2487 60.4453 73.666C60.835 73.0833 61.0105 72.3834 60.9419 71.6857C60.8733 70.9881 60.5648 70.3358 60.0691 69.8402C59.5028 69.273 58.7345 68.954 57.9331 68.9531Z" fill="#3E5565"/>
<path d="M68.2925 68.9531C67.5915 68.9518 66.9117 69.1937 66.3691 69.6376C65.8264 70.0814 65.4545 70.6998 65.3168 71.3871C65.1791 72.0745 65.2841 72.7883 65.6139 73.407C65.9436 74.0256 66.4778 74.5107 67.1252 74.7795C67.7726 75.0484 68.4932 75.0844 69.1642 74.8813C69.8352 74.6782 70.415 74.2487 70.8047 73.666C71.1944 73.0833 71.3699 72.3834 71.3013 71.6857C71.2327 70.9881 70.9242 70.3358 70.4285 69.8402C69.8622 69.273 69.0939 68.954 68.2925 68.9531Z" fill="#3E5565"/>
<path d="M70.5315 58.6811H56.3965L55.5405 54.7401C55.4914 54.518 55.368 54.3193 55.1908 54.1767C55.0135 54.0342 54.793 53.9564 54.5655 53.9561H52.3125C52.0473 53.9561 51.7929 54.0614 51.6054 54.2489C51.4179 54.4365 51.3125 54.6908 51.3125 54.9561C51.3125 55.2213 51.4179 55.4756 51.6054 55.6632C51.7929 55.8507 52.0473 55.9561 52.3125 55.9561H53.7385L56.2875 67.4681C56.3366 67.6901 56.46 67.8888 56.6373 68.0314C56.8145 68.1739 57.0351 68.2517 57.2625 68.2521H70.0105C70.2626 68.2528 70.5057 68.1584 70.6911 67.9876C70.8765 67.8169 70.9906 67.5823 71.0105 67.3311L71.5295 59.7591C71.5387 59.6222 71.5196 59.4849 71.4735 59.3558C71.4274 59.2266 71.3552 59.1083 71.2614 59.0082C71.1676 58.9081 71.0542 58.8284 70.9283 58.774C70.8024 58.7197 70.6667 58.6917 70.5295 58.6921L70.5315 58.6811Z" fill="#3E5565"/>
</g>
<defs>
<clipPath id="clip0_4949_5057">
<rect width="40.529" height="51" fill="white" transform="translate(31 24)"/>
</clipPath>
<clipPath id="clip1_4949_5057">
<rect width="40.529" height="51" fill="white" transform="translate(31 24)"/>
</clipPath>
</defs>
</svg>
