<svg width="50" height="50" viewBox="0 0 50 50" fill="none" xmlns="http://www.w3.org/2000/svg">
<g clip-path="url(#clip0_12348_11007)">
<path d="M42.2286 43.983C41.9836 43.983 41.739 43.8891 41.5523 43.7025C41.1797 43.3288 41.1807 42.7237 41.5542 42.3511C45.9308 37.9871 48.3414 32.1801 48.3414 25.9999C48.3414 13.2684 37.9835 2.91056 25.2517 2.91056C12.5204 2.91056 2.1624 13.2684 2.1624 25.9999C2.1624 32.167 4.56418 37.9654 8.92506 42.3269C9.29817 42.7001 9.29817 43.3046 8.92506 43.6777C8.55184 44.0509 7.9474 44.0509 7.57429 43.6777C2.85251 38.9554 0.251953 32.6773 0.251953 25.9999C0.251953 12.2149 11.4668 1 25.2517 1C39.037 1 50.252 12.2149 50.252 25.9999C50.252 32.6917 47.6421 38.9791 42.9032 43.7044C42.7165 43.8903 42.4727 43.983 42.2286 43.983Z" fill="#A3ACB5"/>
<path d="M25.2482 8.94623C24.7205 8.94623 24.293 8.51867 24.293 7.99101V4.8069C24.293 4.27923 24.7205 3.85156 25.2482 3.85156C25.7759 3.85156 26.2035 4.27912 26.2035 4.8069V7.99112C26.2035 8.51878 25.7759 8.94623 25.2482 8.94623Z" fill="#A3ACB5"/>
<path d="M31.4126 10.0345C31.304 10.0345 31.1937 10.0158 31.0858 9.97672C30.5901 9.79628 30.3345 9.24817 30.5149 8.75217L31.6039 5.75984C31.7842 5.26417 32.3325 5.00795 32.8285 5.18895C33.3241 5.36928 33.5798 5.9175 33.3993 6.4135L32.3105 9.40584C32.1691 9.7935 31.8028 10.0345 31.4126 10.0345Z" fill="#A3ACB5"/>
<path d="M36.8257 13.159C36.6093 13.159 36.3914 13.0856 36.2122 12.9355C35.8083 12.5965 35.7554 11.9939 36.0946 11.5897L38.1414 9.15056C38.4803 8.74701 39.0826 8.69379 39.4872 9.03301C39.8911 9.3719 39.944 9.97456 39.6046 10.3788L37.558 12.8179C37.3693 13.043 37.0985 13.159 36.8257 13.159Z" fill="#A3ACB5"/>
<path d="M40.847 17.9514C40.5168 17.9514 40.1955 17.7797 40.0187 17.4735C39.755 17.0167 39.9117 16.4324 40.3684 16.1687L43.1263 14.5766C43.5843 14.3122 44.168 14.4696 44.4311 14.926C44.6951 15.3828 44.5383 15.9671 44.0815 16.2308L41.3237 17.8229C41.1732 17.91 41.009 17.9514 40.847 17.9514Z" fill="#A3ACB5"/>
<path d="M42.9873 23.8297C42.5326 23.8297 42.1294 23.5034 42.0479 23.0398C41.9561 22.5204 42.3031 22.0248 42.8228 21.9333L45.9585 21.3804C46.4787 21.2906 46.9735 21.6357 47.0648 22.1553C47.1566 22.6747 46.8096 23.1703 46.2899 23.2617L43.1543 23.8146C43.0983 23.8247 43.0423 23.8297 42.9873 23.8297Z" fill="#A3ACB5"/>
<path d="M25.2482 8.94623C24.7205 8.94623 24.293 8.51867 24.293 7.99101V4.8069C24.293 4.27923 24.7205 3.85156 25.2482 3.85156C25.7759 3.85156 26.2035 4.27912 26.2035 4.8069V7.99112C26.2035 8.51878 25.7759 8.94623 25.2482 8.94623Z" fill="#A3ACB5"/>
<path d="M19.0875 10.0343C18.6972 10.0343 18.3309 9.79335 18.1898 9.40557L17.1008 6.41324C16.9205 5.91724 17.176 5.36901 17.6717 5.18868C18.1667 5.00835 18.7156 5.2639 18.8961 5.75957L19.9851 8.7519C20.1655 9.2479 19.9099 9.79601 19.4142 9.97646C19.3063 10.0157 19.1959 10.0343 19.0875 10.0343Z" fill="#A3ACB5"/>
<path d="M13.6783 13.159C13.4057 13.159 13.1348 13.043 12.946 12.8179L10.8993 10.3788C10.5601 9.9746 10.613 9.37193 11.0169 9.03304C11.4218 8.69382 12.024 8.74693 12.3627 9.1506L14.4093 11.5897C14.7485 11.9939 14.6957 12.5965 14.2918 12.9355C14.1128 13.0856 13.8948 13.159 13.6783 13.159Z" fill="#A3ACB5"/>
<path d="M9.65349 17.9514C9.49149 17.9514 9.32727 17.9101 9.17672 17.823L6.41916 16.2309C5.96238 15.9672 5.80561 15.3829 6.06972 14.9261C6.33372 14.4693 6.91794 14.3123 7.37449 14.5767L10.1321 16.1688C10.5888 16.4324 10.7456 17.0168 10.4816 17.4735C10.3046 17.7801 9.98372 17.9514 9.65349 17.9514Z" fill="#A3ACB5"/>
<path d="M7.5164 23.8303C7.46129 23.8303 7.4054 23.8253 7.3494 23.8153L4.2134 23.2624C3.69385 23.1709 3.34685 22.6753 3.43851 22.1561C3.52962 21.6362 4.02585 21.2885 4.54485 21.3812L7.68085 21.9341C8.20051 22.0255 8.54751 22.5212 8.45574 23.0405C8.37429 23.5041 7.97096 23.8303 7.5164 23.8303Z" fill="#A3ACB5"/>
<path d="M37.7858 39.887C37.5364 39.887 37.2873 39.7899 37.1002 39.5966C36.7329 39.2178 36.7419 38.6133 37.1207 38.2458C40.4632 35.005 42.304 30.6562 42.304 26.0016C42.304 16.5979 34.6536 8.94755 25.2497 8.94755C15.8462 8.94755 8.19571 16.598 8.19571 26.0016C8.19571 30.6556 10.0359 35.0037 13.3777 38.2444C13.7565 38.612 13.7655 39.2164 13.3983 39.5952C13.031 39.9752 12.4262 39.9833 12.0475 39.6163C8.33149 36.0124 6.28516 31.1772 6.28516 26.0017C6.28516 15.5446 14.7925 7.03711 25.2496 7.03711C35.7067 7.03711 44.2145 15.5446 44.2145 26.0017C44.2145 31.1778 42.1675 36.0132 38.4509 39.6177C38.2653 39.7974 38.0256 39.887 37.7858 39.887Z" fill="#A3ACB5"/>
<path d="M6.89783 37.5524C6.56761 37.5524 6.24661 37.3813 6.06972 37.0747C5.80561 36.6176 5.96238 36.0336 6.41916 35.77L9.17672 34.1778C9.63416 33.9142 10.2178 34.0708 10.4815 34.5273C10.7455 34.9844 10.5887 35.5684 10.1319 35.8321L7.37449 37.4243C7.22405 37.5114 7.05983 37.5524 6.89783 37.5524Z" fill="#A3ACB5"/>
<path d="M4.37788 30.6374C3.92299 30.6374 3.51999 30.3112 3.43854 29.8475C3.34676 29.3283 3.69388 28.8325 4.21343 28.7412L7.34943 28.1883C7.86932 28.0975 8.36443 28.4436 8.45576 28.9632C8.54743 29.4825 8.20043 29.9782 7.68088 30.0696L4.54488 30.6225C4.48888 30.6324 4.43288 30.6374 4.37788 30.6374Z" fill="#A3ACB5"/>
<path d="M43.603 37.5523C43.441 37.5523 43.2768 37.5112 43.1264 37.4242L40.3685 35.8321C39.9117 35.5684 39.7549 34.9844 40.0187 34.5273C40.2827 34.0708 40.8669 33.9142 41.3237 34.1778L44.0816 35.77C44.5384 36.0336 44.6951 36.6176 44.4311 37.0747C44.2545 37.3813 43.9333 37.5523 43.603 37.5523Z" fill="#A3ACB5"/>
<path d="M46.1255 30.6393C46.0701 30.6393 46.0145 30.6343 45.9585 30.6244L42.8228 30.0715C42.3031 29.98 41.9561 29.4844 42.0479 28.9651C42.1394 28.4452 42.6387 28.0997 43.1544 28.1902L46.29 28.743C46.8097 28.8345 47.1566 29.3302 47.0649 29.8494C46.9834 30.313 46.5801 30.6393 46.1255 30.6393Z" fill="#A3ACB5"/>
<path d="M25.2482 31.0045C22.4879 31.0045 20.2422 28.7589 20.2422 25.9984C20.2422 25.2795 20.3955 24.5795 20.6983 23.9184L24.3576 14.4893C24.5004 14.1218 24.8539 13.8799 25.2482 13.8799C25.6422 13.8799 25.9961 14.1218 26.1389 14.4893L29.8109 23.9454C30.1051 24.5984 30.2543 25.2888 30.2543 25.9983C30.2543 28.7589 28.0085 31.0045 25.2482 31.0045ZM25.2482 17.4743L22.4574 24.6618C22.2479 25.1235 22.1526 25.5561 22.1526 25.9985C22.1526 27.7053 23.5414 29.0941 25.2482 29.0941C26.9551 29.0941 28.3437 27.7053 28.3437 25.9985C28.3437 25.5558 28.2486 25.1235 28.0614 24.7137C28.0536 24.6969 28.0461 24.6794 28.0393 24.662L25.2482 17.4743Z" fill="#A3ACB5"/>
<path d="M17.7171 30.6398C17.3645 30.6398 17.0253 30.4436 16.8593 30.1056C16.2268 28.8186 15.9062 27.4338 15.9062 25.9898C15.9062 24.6474 16.1929 23.3411 16.7579 22.1073L17.1121 21.1906C17.3037 20.6986 17.8585 20.4555 18.3485 20.6458C18.8404 20.8367 19.0841 21.3903 18.8933 21.8822L18.5169 22.8511C18.0449 23.8853 17.8167 24.9238 17.8167 25.9898C17.8167 27.1392 18.0714 28.2405 18.5738 29.263C18.8064 29.7365 18.6111 30.309 18.1378 30.5416C18.0022 30.6081 17.8587 30.6398 17.7171 30.6398Z" fill="#A3ACB5"/>
<path d="M32.5768 31.0484C32.4186 31.0484 32.2581 31.0089 32.11 30.9258C31.6501 30.6675 31.4866 30.0851 31.7446 29.6252C32.3644 28.5218 32.6918 27.2649 32.6918 25.9904C32.6918 24.9244 32.4638 23.8862 32.0143 22.9042L31.6256 21.9082C31.4346 21.4165 31.6785 20.8631 32.1704 20.6718C32.6619 20.4799 33.2155 20.7249 33.4068 21.2166L33.7734 22.1607C34.316 23.3423 34.6024 24.6481 34.6024 25.9904C34.6024 27.5918 34.1904 29.1721 33.4107 30.5605C33.2354 30.8727 32.911 31.0484 32.5768 31.0484Z" fill="#A3ACB5"/>
<path d="M42.2288 43.9854C41.9974 43.9854 41.7654 43.9021 41.5816 43.7323L26.7982 30.1076C26.4101 29.75 26.3855 29.1458 26.7432 28.7577C27.1011 28.3706 27.7053 28.3453 28.093 28.7027L42.8764 42.3281C43.2645 42.6851 43.2891 43.2896 42.9315 43.6777C42.743 43.8817 42.4862 43.9854 42.2288 43.9854Z" fill="#A3ACB5"/>
<path d="M36.4938 43.9851H14.0062C13.6128 43.9851 13.2596 43.7438 13.1162 43.3774C12.9732 43.0105 13.0695 42.5938 13.3587 42.3276L21.2013 35.0992C21.5894 34.7404 22.1935 34.7659 22.5512 35.154C22.9087 35.542 22.8842 36.1465 22.4962 36.5035L16.4522 42.0745H34.0478L28.4546 36.919C28.0666 36.5614 28.042 35.9575 28.3996 35.5694C28.7578 35.1814 29.362 35.1565 29.7495 35.5148L37.1412 42.3278C37.4304 42.594 37.5267 43.0106 37.3837 43.3775C37.2404 43.7439 36.8872 43.9851 36.4938 43.9851Z" fill="#A3ACB5"/>
<path d="M8.28366 43.9858C8.02589 43.9858 7.76933 43.8825 7.58089 43.6779C7.22333 43.2898 7.24822 42.6853 7.63589 42.3283L22.4195 28.7029C22.808 28.3453 23.4119 28.3704 23.7694 28.7579C24.127 29.146 24.1022 29.7502 23.7144 30.1078L8.93077 43.7327C8.747 43.9024 8.515 43.9858 8.28366 43.9858Z" fill="#A3ACB5"/>
</g>
<defs>
<clipPath id="clip0_12348_11007">
<rect width="50" height="50" fill="white"/>
</clipPath>
</defs>
</svg>
