<svg width="50" height="50" viewBox="0 0 50 50" fill="none" xmlns="http://www.w3.org/2000/svg">
<path d="M16.883 24.0712C15.2736 25.6807 14.1776 27.7312 13.7336 29.9636C13.2895 32.1959 13.5174 34.5098 14.3885 36.6126C15.2595 38.7154 16.7345 40.5127 18.627 41.7773C20.5195 43.0418 22.7445 43.7167 25.0205 43.7167C27.2966 43.7167 29.5216 43.0418 31.4141 41.7773C33.3066 40.5127 34.7816 38.7154 35.6526 36.6126C36.5236 34.5098 36.7515 32.1959 36.3075 29.9636C35.8635 27.7312 34.7675 25.6807 33.158 24.0712C30.9981 21.9162 28.0716 20.706 25.0205 20.706C21.9694 20.706 19.0429 21.9162 16.883 24.0712ZM32.2299 39.4181C30.804 40.844 28.9873 41.8151 27.0095 42.2085C25.0318 42.6019 22.9818 42.4 21.1187 41.6283C19.2557 40.8566 17.6633 39.5498 16.543 37.8732C15.4227 36.1965 14.8247 34.2252 14.8247 32.2087C14.8247 30.1922 15.4227 28.221 16.543 26.5443C17.6633 24.8676 19.2557 23.5608 21.1187 22.7891C22.9818 22.0174 25.0318 21.8155 27.0095 22.209C28.9873 22.6024 30.804 23.5734 32.2299 24.9993C33.1806 25.9439 33.9352 27.0671 34.45 28.3044C34.9649 29.5417 35.23 30.8686 35.23 32.2087C35.23 33.5489 34.965 34.8758 34.4501 36.1131C33.9352 37.3504 33.1807 38.4737 32.23 39.4182L32.2299 39.4181ZM25.7518 31.6063V27.4762C26.7659 27.6768 27.608 28.4158 28.0519 29.5867C28.1144 29.7484 28.2382 29.8789 28.3965 29.9496C28.5547 30.0203 28.7345 30.0255 28.8966 29.9641C29.0587 29.9027 29.1899 29.7797 29.2616 29.6218C29.3333 29.464 29.3397 29.2843 29.2793 29.1218C28.6413 27.4375 27.3041 26.3733 25.7518 26.1558V24.7683C25.7518 24.5943 25.6826 24.4274 25.5596 24.3043C25.4365 24.1812 25.2696 24.1121 25.0955 24.1121C24.9215 24.1121 24.7546 24.1812 24.6315 24.3043C24.5084 24.4274 24.4393 24.5943 24.4393 24.7683V26.1719C24.1247 26.2228 23.8158 26.3045 23.5171 26.4156C22.1296 26.9301 21.2202 28.1207 21.2001 29.4488C21.1807 30.7431 22.0345 31.8664 23.4842 32.4537C23.4909 32.4564 23.4977 32.459 23.5045 32.4616C23.8091 32.5713 24.1216 32.6577 24.4393 32.7199V36.9325C23.275 36.7187 22.2534 36.0377 21.9558 34.7433C21.937 34.6589 21.9016 34.5791 21.8517 34.5084C21.8019 34.4377 21.7385 34.3775 21.6653 34.3314C21.5922 34.2853 21.5106 34.2541 21.4253 34.2396C21.34 34.2251 21.2527 34.2276 21.1684 34.247C21.0841 34.2664 21.0045 34.3022 20.9341 34.3525C20.8637 34.4028 20.8039 34.4665 20.7582 34.5399C20.7125 34.6134 20.6818 34.6951 20.6678 34.7805C20.6538 34.8659 20.6568 34.9532 20.6767 35.0373C21.1313 37.0146 22.7373 38.0065 24.4393 38.2545V39.6492C24.4393 39.8232 24.5084 39.9902 24.6315 40.1132C24.7546 40.2363 24.9215 40.3054 25.0955 40.3054C25.2696 40.3054 25.4365 40.2363 25.5596 40.1132C25.6826 39.9902 25.7518 39.8232 25.7518 39.6492V38.3025C25.872 38.294 25.9913 38.2825 26.1092 38.2672C27.5743 38.0764 28.7228 37.2641 29.1817 36.0927C29.5799 35.0765 29.3809 33.9807 28.6359 33.0859C27.7387 32.008 26.7021 31.7583 25.7521 31.6064L25.7518 31.6063ZM23.9669 31.2335C23.0313 30.8514 22.5014 30.2087 22.5124 29.4688C22.524 28.6986 23.111 27.9663 23.9733 27.6467C24.1255 27.5902 24.2811 27.5436 24.4393 27.5071V31.3756C24.2795 31.3367 24.1219 31.2893 23.9672 31.2336L23.9669 31.2335ZM27.9597 35.6137C27.6784 36.3322 26.923 36.8377 25.9399 36.9656C25.8775 36.9737 25.8147 36.9803 25.7518 36.9861V32.9371C26.4722 33.0648 27.0748 33.2623 27.6273 33.9258C28.0635 34.4492 28.1815 35.0487 27.96 35.6138L27.9597 35.6137ZM13.7436 20.9325C7.52575 27.1504 7.52575 37.2677 13.7436 43.4856C16.7344 46.4764 20.7908 48.1566 25.0204 48.1566C29.25 48.1566 33.3064 46.4764 36.2972 43.4856C39.2879 40.4948 40.9681 36.4385 40.9681 32.2089C40.9681 27.9792 39.2879 23.9229 36.2972 20.9321C30.0793 14.7141 19.962 14.7143 13.7439 20.9321L13.7436 20.9325ZM35.3691 42.5572C34.0101 43.9162 32.3968 44.9942 30.6212 45.7297C28.8456 46.4652 26.9425 46.8437 25.0206 46.8437C23.0987 46.8437 21.1956 46.4652 19.42 45.7297C17.6444 44.9942 16.031 43.9162 14.672 42.5572C8.96584 36.851 8.96584 27.5666 14.672 21.8601C20.3782 16.1537 29.6627 16.154 35.3691 21.8601C36.7281 23.2191 37.8061 24.8325 38.5416 26.6081C39.2771 28.3837 39.6556 30.2868 39.6556 32.2087C39.6556 34.1306 39.2771 36.0337 38.5416 37.8093C37.8061 39.5849 36.7281 41.1982 35.3691 42.5572ZM43.354 2.99275C43.354 3.1668 43.2849 3.33372 43.1618 3.45679C43.0387 3.57986 42.8718 3.649 42.6978 3.649H35.7911C35.4937 3.64935 35.2086 3.76763 34.9984 3.9779C34.7881 4.18817 34.6698 4.47326 34.6695 4.77062V11.8689L35.9163 10.5987C35.9761 10.5347 36.048 10.4833 36.1279 10.4475C36.2078 10.4117 36.2941 10.3923 36.3816 10.3904C36.4691 10.3884 36.5562 10.404 36.6376 10.4363C36.719 10.4685 36.7931 10.5167 36.8556 10.578C36.9181 10.6393 36.9677 10.7124 37.0015 10.7932C37.0353 10.874 37.0526 10.9607 37.0523 11.0482C37.0521 11.1358 37.0344 11.2224 37.0001 11.303C36.9659 11.3835 36.9159 11.4565 36.8531 11.5174L34.4821 13.9338C34.421 13.9962 34.348 14.0457 34.2675 14.0795C34.187 14.1133 34.1006 14.1307 34.0133 14.1307C33.926 14.1307 33.8396 14.1133 33.7591 14.0795C33.6786 14.0457 33.6057 13.9962 33.5446 13.9338L31.2498 11.5937C31.1895 11.5322 31.1419 11.4594 31.1097 11.3794C31.0776 11.2994 31.0614 11.2139 31.0623 11.1277C31.0632 11.0416 31.081 10.9564 31.1148 10.8771C31.1486 10.7978 31.1977 10.726 31.2592 10.6656C31.3208 10.6053 31.3936 10.5577 31.4736 10.5255C31.5535 10.4933 31.639 10.4772 31.7252 10.4781C31.8114 10.479 31.8966 10.4968 31.9759 10.5306C32.0552 10.5644 32.127 10.6134 32.1873 10.675L33.3574 11.8682V4.77062C33.3582 4.12528 33.6149 3.50659 34.0712 3.05026C34.5275 2.59394 35.1462 2.33724 35.7916 2.3365H42.6982C42.8722 2.33662 43.039 2.40582 43.162 2.52888C43.2849 2.65193 43.354 2.81878 43.354 2.99275ZM14.2113 3.649H7.30469C7.21851 3.649 7.13317 3.63203 7.05355 3.59905C6.97393 3.56607 6.90159 3.51773 6.84065 3.45679C6.77971 3.39585 6.73137 3.32351 6.69839 3.24389C6.66541 3.16427 6.64844 3.07893 6.64844 2.99275C6.64844 2.90657 6.66541 2.82123 6.69839 2.74161C6.73137 2.66199 6.77971 2.58965 6.84065 2.52871C6.90159 2.46777 6.97393 2.41943 7.05355 2.38645C7.13317 2.35347 7.21851 2.3365 7.30469 2.3365H14.2113C14.8567 2.33722 15.4754 2.5939 15.9317 3.05023C16.3881 3.50656 16.6447 4.12528 16.6455 4.77062V11.8682L17.8156 10.675C17.9374 10.5507 18.1036 10.4798 18.2777 10.4781C18.4517 10.4763 18.6194 10.5438 18.7437 10.6656C18.868 10.7875 18.9388 10.9537 18.9406 11.1277C18.9424 11.3018 18.8749 11.4694 18.7531 11.5937L16.4582 13.9339C16.3971 13.9962 16.3242 14.0457 16.2437 14.0795C16.1633 14.1132 16.0769 14.1306 15.9897 14.1306C15.9024 14.1306 15.8161 14.1132 15.7356 14.0795C15.6552 14.0457 15.5823 13.9962 15.5212 13.9339L13.1497 11.5178C13.0869 11.4568 13.0369 11.3839 13.0027 11.3033C12.9685 11.2228 12.9507 11.1361 12.9505 11.0486C12.9502 10.9611 12.9675 10.8743 13.0013 10.7936C13.0351 10.7128 13.0847 10.6396 13.1472 10.5783C13.2097 10.517 13.2838 10.4689 13.3653 10.4366C13.4467 10.4044 13.5337 10.3888 13.6212 10.3908C13.7087 10.3927 13.795 10.4121 13.8749 10.4479C13.9548 10.4837 14.0267 10.5351 14.0865 10.5991L15.3333 11.8693V4.77062C15.333 4.47319 15.2147 4.18805 15.0043 3.97777C14.794 3.76749 14.5088 3.64925 14.2113 3.649ZM22.3676 11.5939C22.3073 11.5324 22.2597 11.4595 22.2275 11.3796C22.1953 11.2996 22.1792 11.2141 22.1801 11.1279C22.1809 11.0417 22.1988 10.9566 22.2326 10.8773C22.2663 10.798 22.3154 10.7261 22.377 10.6658C22.4385 10.6055 22.5114 10.5579 22.5913 10.5257C22.6713 10.4935 22.7568 10.4774 22.843 10.4783C22.9292 10.4791 23.0143 10.497 23.0936 10.5308C23.1729 10.5646 23.2448 10.6136 23.3051 10.6752L24.5133 11.9072V2.5C24.5133 2.32595 24.5825 2.15903 24.7056 2.03596C24.8286 1.91289 24.9955 1.84375 25.1696 1.84375C25.3436 1.84375 25.5106 1.91289 25.6336 2.03596C25.7567 2.15903 25.8258 2.32595 25.8258 2.5V11.8301L27.0342 10.5987C27.0939 10.5347 27.1659 10.4833 27.2458 10.4475C27.3257 10.4117 27.4119 10.3923 27.4994 10.3904C27.587 10.3884 27.674 10.404 27.7554 10.4363C27.8368 10.4685 27.9109 10.5167 27.9734 10.578C28.0359 10.6393 28.0856 10.7124 28.1193 10.7932C28.1531 10.874 28.1704 10.9607 28.1702 11.0482C28.1699 11.1358 28.1522 11.2224 28.118 11.303C28.0838 11.3835 28.0338 11.4565 27.9709 11.5174L25.5999 13.9338C25.5388 13.9962 25.4659 14.0457 25.3854 14.0795C25.3049 14.1133 25.2185 14.1307 25.1312 14.1307C25.0439 14.1307 24.9574 14.1133 24.8769 14.0795C24.7965 14.0457 24.7235 13.9962 24.6624 13.9338L22.3676 11.5939Z" fill="#A3ACB5"/>
</svg>
