<svg width="49" height="50" viewBox="0 0 49 50" fill="none" xmlns="http://www.w3.org/2000/svg">
<path d="M27.5007 50.0003H21.5632L21.3548 46.8753C21.0423 46.7712 20.834 46.667 20.6256 46.5628L18.2298 48.6462L14.0632 44.4795L16.1465 42.0837C16.0423 41.8753 15.9382 41.5628 15.834 41.3545L12.709 41.1462V35.2087L15.7298 35.0003C15.834 34.6878 15.9382 34.4795 16.0423 34.2712L13.959 31.8753L18.1257 27.7087L20.4173 29.792C20.6257 29.6878 20.9382 29.5837 21.1465 29.4795L21.3548 26.3545H27.2923L27.5007 29.3753C27.8132 29.4795 28.0215 29.5837 28.2298 29.6878L30.6257 27.6045L34.8965 31.7712L32.8132 34.167C32.9173 34.3753 33.0215 34.6878 33.1256 34.8962L36.2506 35.1045V41.042L33.2298 41.2503C33.1257 41.5628 33.0215 41.7712 32.9173 42.0837L35.0006 44.5837L30.834 48.7503L28.4381 46.667C28.2298 46.7712 27.9173 46.8753 27.709 46.9795L27.5007 50.0003ZM23.4382 47.917H25.6257L25.834 45.417L26.459 45.2087C27.084 45.0003 27.6048 44.792 28.2298 44.5837L28.8548 44.2712L30.834 45.9378L32.2923 44.4795L30.6257 42.3962L31.0423 41.5628C31.2506 41.1462 31.459 40.7295 31.5631 40.3128L31.6673 39.4795L34.3756 39.2712V37.0837L31.7715 36.7712L31.5631 36.1462C31.3548 35.5212 31.1465 35.0003 30.9382 34.3753L30.6257 33.7503L32.2923 31.7712L30.7298 30.3128L28.6465 32.0837L27.8132 31.667C27.3965 31.4587 26.9798 31.2503 26.5632 31.1462L25.7298 31.042L25.5215 28.3337H23.334L23.1257 30.8337L22.5007 31.042C21.8757 31.2503 21.3548 31.4587 20.7298 31.667L20.1048 31.9795L18.2298 30.3128L16.7715 31.7712L18.4382 33.7503L18.0215 34.5837C17.8132 35.0003 17.6048 35.417 17.5007 35.8337L17.3965 36.667L14.6882 36.8753V39.0628L17.1882 39.2712L17.3965 39.8962C17.6048 40.5212 17.8132 41.042 18.0215 41.667L18.334 42.292L16.6673 44.2712L18.1257 45.7295L20.1048 43.9587L20.7298 44.3753C21.1465 44.5837 21.6673 44.8962 22.1882 45.0003L23.0215 45.1045L23.4382 47.917Z" fill="#A3ACB5"/>
<path d="M24.4792 42.6048C21.9792 42.6048 20 40.6256 20 38.1256C20 35.6257 21.9792 33.6465 24.4792 33.6465C26.9792 33.6465 28.9583 35.6257 28.9583 38.1256C28.9583 40.6256 26.9792 42.6048 24.4792 42.6048ZM24.4792 35.7298C23.125 35.7298 22.0833 36.8757 22.0833 38.1256C22.0833 39.4798 23.2292 40.5215 24.4792 40.5215C25.7292 40.5215 26.875 39.3756 26.875 38.1256C26.875 36.7715 25.8333 35.7298 24.4792 35.7298Z" fill="#A3ACB5"/>
<path d="M24.4792 42.6048C21.9792 42.6048 20 40.6256 20 38.1256C20 35.6257 21.9792 33.6465 24.4792 33.6465C26.9792 33.6465 28.9583 35.6257 28.9583 38.1256C28.9583 40.6256 26.9792 42.6048 24.4792 42.6048ZM24.4792 35.7298C23.125 35.7298 22.0833 36.7715 22.0833 38.1256C22.0833 39.4798 23.125 40.5215 24.4792 40.5215C25.8333 40.5215 26.875 39.4798 26.875 38.1256C26.875 36.7715 25.8333 35.7298 24.4792 35.7298Z" fill="#A3ACB5"/>
<path d="M36.1458 26.3538L34.6875 24.8955L42.9167 16.6663V8.95801H45V17.4997L36.1458 26.3538Z" fill="#A3ACB5"/>
<path d="M41.0417 26.6663H34.375V19.8955H36.4583V24.583H41.0417V26.6663Z" fill="#A3ACB5"/>
<path d="M43.959 10C41.2507 10 38.959 7.8125 38.959 5C38.959 2.1875 41.2507 0 43.959 0C46.6673 0 48.959 2.1875 48.959 5C48.959 7.8125 46.6673 10 43.959 10ZM43.959 2.08333C42.2923 2.08333 41.0423 3.4375 41.0423 5C41.0423 6.66667 42.3965 7.91667 43.959 7.91667C45.5215 7.91667 46.8756 6.5625 46.8756 5C46.8756 3.33333 45.6257 2.08333 43.959 2.08333Z" fill="#A3ACB5"/>
<path d="M24.4792 24.2705L19.6875 19.4788L21.1458 18.0205L24.4792 21.3538L27.8125 18.0205L29.2708 19.4788L24.4792 24.2705Z" fill="#A3ACB5"/>
<path d="M12.8132 26.3538L3.95898 17.4997V8.95801H6.04232V16.6663L14.2715 24.8955L12.8132 26.3538Z" fill="#A3ACB5"/>
<path d="M14.5827 26.6663H7.91602V24.583H12.4993V19.8955H14.5827V26.6663Z" fill="#A3ACB5"/>
<path d="M5 10C2.29167 10 0 7.8125 0 5C0 2.1875 2.29167 0 5 0C7.70833 0 10 2.1875 10 5C10 7.8125 7.70833 10 5 10ZM5 2.08333C3.33333 2.08333 2.08333 3.33333 2.08333 5C2.08333 6.66667 3.4375 7.91667 5 7.91667C6.66667 7.91667 7.91667 6.5625 7.91667 5C7.91667 3.33333 6.66667 2.08333 5 2.08333Z" fill="#A3ACB5"/>
<path d="M23.4375 8.95801H25.5208V22.8122H23.4375V8.95801Z" fill="#A3ACB5"/>
<path d="M24.4785 10C21.7702 10 19.4785 7.8125 19.4785 5C19.4785 2.1875 21.7702 0 24.4785 0C27.1868 0 29.4785 2.1875 29.4785 5C29.4785 7.8125 27.1868 10 24.4785 10ZM24.4785 2.08333C22.8118 2.08333 21.5618 3.4375 21.5618 5C21.5618 6.66667 22.916 7.91667 24.4785 7.91667C26.1452 7.91667 27.3952 6.5625 27.3952 5C27.3952 3.33333 26.1452 2.08333 24.4785 2.08333Z" fill="#A3ACB5"/>
</svg>
