<svg width="49" height="45" viewBox="0 0 49 45" fill="none" xmlns="http://www.w3.org/2000/svg">
<path d="M45.1855 40.6641H2.94336C2.51367 40.6641 2.16211 40.3125 2.16211 39.8828V14.4375C2.16211 12.625 3.63867 11.1484 5.45117 11.1484H7.83398C8.26367 11.1484 8.61523 11.5 8.61523 11.9297C8.61523 12.3594 8.26367 12.7109 7.83398 12.7109H5.45117C4.49805 12.7109 3.72461 13.4844 3.72461 14.4375V39.1016H44.4043V14.4375C44.4043 13.4844 43.6309 12.7109 42.6777 12.7109H37.9746C37.5449 12.7109 37.1934 12.3594 37.1934 11.9297C37.1934 11.5 37.5449 11.1484 37.9746 11.1484H42.6777C44.4902 11.1484 45.9668 12.625 45.9668 14.4375V39.8828C45.9668 40.3203 45.6152 40.6641 45.1855 40.6641Z" fill="#A3ACB5"/>
<path d="M33.0059 12.7109H19.6309C19.2012 12.7109 18.8496 12.3594 18.8496 11.9297C18.8496 11.5 19.2012 11.1484 19.6309 11.1484H33.0059C33.4355 11.1484 33.7871 11.5 33.7871 11.9297C33.7871 12.3594 33.4355 12.7109 33.0059 12.7109Z" fill="#1B275F"/>
<path d="M44.2881 44.6875H4.24119C2.28025 44.6875 0.553687 43.2266 0.0458744 41.1328C-0.0713131 40.6328 0.0380619 40.125 0.350562 39.7188C0.663062 39.3203 1.13181 39.0938 1.63181 39.0938H46.8974C47.3974 39.0938 47.8662 39.3203 48.1787 39.7188C48.4912 40.1172 48.6006 40.6328 48.4834 41.1328C47.9756 43.2266 46.249 44.6875 44.2881 44.6875ZM1.63181 40.6641C1.56931 40.7031 1.55369 40.7344 1.5615 40.7656C1.89744 42.1563 2.999 43.125 4.24119 43.125H44.2881C45.5303 43.125 46.6318 42.1563 46.9678 40.7656C46.9756 40.7266 46.9678 40.7031 46.9521 40.6875L1.63181 40.6641Z" fill="#1B275F"/>
<path d="M17.873 23.9062H9.5918C8.19336 23.9062 7.05273 22.7656 7.05273 21.3672V8.44531C7.05273 7.04688 8.19336 5.90625 9.5918 5.90625H17.873C19.2715 5.90625 20.4121 7.04688 20.4121 8.44531V21.3594C20.4121 22.7656 19.2715 23.9062 17.873 23.9062ZM9.5918 7.46875C9.05273 7.46875 8.61523 7.90625 8.61523 8.44531V21.3594C8.61523 21.8984 9.05273 22.3359 9.5918 22.3359H17.873C18.4121 22.3359 18.8496 21.8984 18.8496 21.3594V8.44531C18.8496 7.90625 18.4121 7.46875 17.873 7.46875H9.5918Z" fill="#1B275F"/>
<path d="M39.623 37.0469H31.3418C29.9434 37.0469 28.8027 35.9062 28.8027 34.5078V21.5938C28.8027 20.1953 29.9434 19.0547 31.3418 19.0547H39.623C41.0215 19.0547 42.1621 20.1953 42.1621 21.5938V34.5078C42.1621 35.9062 41.0293 37.0469 39.623 37.0469ZM31.3496 20.6172C30.8105 20.6172 30.373 21.0547 30.373 21.5938V34.5078C30.373 35.0469 30.8105 35.4844 31.3496 35.4844H39.6309C40.1699 35.4844 40.6074 35.0469 40.6074 34.5078V21.5938C40.6074 21.0547 40.1699 20.6172 39.6309 20.6172H31.3496Z" fill="#1B275F"/>
<path d="M27.084 30.25H15.1777C13.9512 30.25 12.9512 29.25 12.9512 28.0234V23.125C12.9512 22.6953 13.3027 22.3438 13.7324 22.3438C14.1621 22.3438 14.5137 22.6953 14.5137 23.125V28.0234C14.5137 28.3906 14.8105 28.6875 15.1777 28.6875H27.0918C27.5215 28.6875 27.873 29.0391 27.873 29.4687C27.873 29.8984 27.5137 30.25 27.084 30.25Z" fill="#1B275F"/>
<path d="M35.4902 18.125C35.0605 18.125 34.709 17.7734 34.709 17.3438V1.90625C34.709 1.71875 34.5527 1.5625 34.3652 1.5625H14.8574C14.6699 1.5625 14.5137 1.71875 14.5137 1.90625V4.16406C14.5137 4.59375 14.1621 4.94531 13.7324 4.94531C13.3027 4.94531 12.9512 4.59375 12.9512 4.16406V1.90625C12.9512 0.851562 13.8105 0 14.8574 0H34.3574C35.4121 0 36.2637 0.859375 36.2637 1.90625V17.3438C36.2715 17.7734 35.9199 18.125 35.4902 18.125Z" fill="#1B275F"/>
<path d="M32.5449 34.5156H32.2402C31.8105 34.5156 31.459 34.1641 31.459 33.7344C31.459 33.3047 31.8105 32.9531 32.2402 32.9531H32.5449C32.9746 32.9531 33.3262 33.3047 33.3262 33.7344C33.3262 34.1641 32.9746 34.5156 32.5449 34.5156Z" fill="#1B275F"/>
<path d="M34.9746 34.5156H34.6699C34.2402 34.5156 33.8887 34.1641 33.8887 33.7344C33.8887 33.3047 34.2402 32.9531 34.6699 32.9531H34.9746C35.4043 32.9531 35.7559 33.3047 35.7559 33.7344C35.7559 34.1641 35.4121 34.5156 34.9746 34.5156Z" fill="#1B275F"/>
<path d="M10.6387 21.6406H10.334C9.9043 21.6406 9.55273 21.2891 9.55273 20.8594C9.55273 20.4297 9.9043 20.0781 10.334 20.0781H10.6387C11.0684 20.0781 11.4199 20.4297 11.4199 20.8594C11.4199 21.2891 11.0684 21.6406 10.6387 21.6406Z" fill="#1B275F"/>
<path d="M13.0684 21.6406H12.7637C12.334 21.6406 11.9824 21.2891 11.9824 20.8594C11.9824 20.4297 12.334 20.0781 12.7637 20.0781H13.0684C13.498 20.0781 13.8496 20.4297 13.8496 20.8594C13.8496 21.2891 13.498 21.6406 13.0684 21.6406Z" fill="#1B275F"/>
</svg>
