<svg width="72" height="82" viewBox="0 0 72 82" fill="none" xmlns="http://www.w3.org/2000/svg">
<g clip-path="url(#clip0_7877_14692)">
<path d="M21.8058 4.79709C27.0657 3.36163 32.6551 2.07214 36.0001 2.07214C39.3451 2.07214 44.9345 3.36163 50.1944 4.79709C55.5754 6.25688 61.0001 7.9843 64.1899 9.03049C66.9114 9.93261 68.8781 12.319 69.251 15.1713C72.1402 36.9563 65.4358 53.1016 57.3012 63.7824C53.8504 68.3503 49.7375 72.3736 45.0994 75.7187C43.4973 76.8789 41.7974 77.8965 40.0189 78.7599C38.6615 79.4022 37.2023 79.9277 36.0001 79.9277C34.7979 79.9277 33.3435 79.4022 31.9813 78.7599C30.2028 77.8965 28.5029 76.8789 26.9008 75.7187C22.2627 72.3736 18.1498 68.3503 14.699 63.7824C6.56443 53.1016 -0.140036 36.9563 2.74924 15.1713C3.12206 12.319 5.0888 9.93261 7.81031 9.03049C12.4412 7.50748 17.1077 6.09594 21.8058 4.79709Z" fill="#4844EE" stroke="#E4E4E4" stroke-width="12.4148"/>
<path d="M47.1844 25.7112L42.9697 28.1653C41.361 29.102 40.8095 31.1763 41.738 32.7983C42.6666 34.4203 44.7235 34.9758 46.3322 34.0391L50.5469 31.5849C52.1556 30.6481 52.7071 28.5739 51.7785 26.9519C50.85 25.3299 48.7932 24.7744 47.1844 25.7112Z" fill="white"/>
<path d="M32.6638 46.4648V51.3731C32.6638 53.2465 34.1693 54.7653 36.0263 54.7653C37.8834 54.7653 39.3888 53.2465 39.3888 51.3731V46.4648C39.3888 44.5913 37.8834 43.0725 36.0263 43.0725C34.1693 43.0725 32.6638 44.5913 32.6638 46.4648Z" fill="white"/>
<path d="M50.5694 41.0874L42.8375 36.4932C40.7093 35.2284 39.4034 32.925 39.4034 30.4332V21.3139C39.4034 19.5151 37.9583 18.0577 36.1748 18.0577H35.8946C34.111 18.0577 32.666 19.5151 32.666 21.3139V30.3934C32.666 32.8832 31.36 35.1886 29.2319 36.4534L21.4293 41.0895C19.8265 42.0422 19.2929 44.1257 20.2376 45.7423C21.1823 47.3589 23.2482 47.897 24.851 46.9443L32.4584 42.4233C34.6425 41.1251 37.3541 41.1251 39.5384 42.4233L47.1457 46.9443C48.7486 47.897 50.8144 47.3589 51.7591 45.7423C52.7038 44.1257 52.1702 42.0422 50.5674 41.0895L50.5694 41.0874Z" fill="white"/>
<path d="M21.4999 31.6014L25.7254 34.0619C27.3133 34.9865 29.3437 34.4378 30.2605 32.8363L30.303 32.762C31.2198 31.1605 30.6758 29.1127 29.0879 28.1881L24.8624 25.7277C23.2745 24.8031 21.244 25.3518 20.3273 26.9533L20.2847 27.0276C19.3679 28.6291 19.912 30.6768 21.4999 31.6014Z" fill="white"/>
</g>
<defs>
<clipPath id="clip0_7877_14692">
<rect width="72" height="82" fill="white"/>
</clipPath>
</defs>
</svg>
