<svg width="32" height="32" viewBox="0 0 32 32" fill="none" xmlns="http://www.w3.org/2000/svg">
<path d="M31.2242 18.9091C29.7211 18.2788 28.8484 17.1636 28.8484 16C28.8484 14.8363 29.7211 13.7697 31.2242 13.1394C31.4181 13.0424 31.5636 12.8 31.5151 12.606C31.0787 10.7636 30.3999 9.06665 29.3818 7.56362C29.2363 7.36968 28.9939 7.27271 28.7999 7.36968C27.2969 7.9515 25.8908 7.80604 25.0666 6.9818C24.2424 6.15756 24.0969 4.79998 24.6787 3.29695C24.7757 3.10301 24.6787 2.86059 24.4848 2.71513C22.9333 1.74544 21.2363 1.01816 19.4424 0.630285C19.1999 0.5818 19.006 0.67877 18.909 0.921194C18.2787 2.37574 17.1636 3.29695 15.9999 3.29695C14.8363 3.29695 13.7211 2.37574 13.0908 0.921194C12.9939 0.727255 12.7514 0.5818 12.5575 0.630285C10.7636 0.969679 9.0666 1.69695 7.4666 2.66665C7.27266 2.8121 7.22417 3.05453 7.27266 3.24847C7.85448 4.7515 7.70902 6.15756 6.88478 6.93332C6.10902 7.75756 4.65447 7.90301 3.15144 7.3212C2.9575 7.22423 2.71508 7.32119 2.56963 7.51513C1.59993 9.01816 0.872656 10.7151 0.484777 12.5576C0.436293 12.8 0.533262 13.0424 0.775687 13.0909C2.27872 13.7212 3.15144 14.7879 3.15144 15.9515C3.15144 17.1151 2.27872 18.1818 0.775687 18.8606C0.581747 18.9576 0.436293 19.2 0.484777 19.3939C0.872656 21.1879 1.59993 22.8848 2.61811 24.4363C2.76357 24.6303 3.00599 24.7273 3.19993 24.6303C4.70296 24.0485 6.10902 24.1939 6.93326 24.9697C7.75751 25.7939 7.90296 27.1515 7.32114 28.6545C7.22417 28.8485 7.32114 29.0909 7.51508 29.2363C9.0666 30.206 10.8121 30.9333 12.5575 31.3212H12.6545C12.8484 31.3212 13.0424 31.2242 13.0908 31.0303C13.7211 29.5757 14.8363 28.6545 15.9999 28.6545C17.1636 28.6545 18.2787 29.5757 18.909 31.0303C19.006 31.2242 19.2484 31.3697 19.4424 31.3212C21.2363 30.9333 22.9333 30.206 24.4848 29.2363C24.6787 29.0909 24.7757 28.8485 24.6787 28.6545C24.0969 27.1515 24.2424 25.7454 25.0666 24.9212C25.8908 24.097 27.2484 24 28.7999 24.5818C29.0424 24.6788 29.2848 24.5818 29.3818 24.3879C30.3514 22.8363 31.0787 21.1394 31.4666 19.3454C31.5636 19.2 31.4181 19.006 31.2242 18.9091ZM14.6424 26.2303H14.5939C9.59993 25.5515 5.81811 21.1879 5.81811 16.097C5.81811 11.3939 9.0666 7.27271 13.5757 6.15756L12.9939 5.72119C12.7999 5.57574 12.7514 5.23635 12.8969 5.04241C13.0908 4.84847 13.3817 4.79998 13.5757 4.94544L14.9817 6.06059C15.0302 6.10907 15.0302 6.10907 15.0302 6.15756L15.0787 6.20604C15.0787 6.25453 15.1272 6.30301 15.1272 6.3515V6.39998V6.54544V6.59392C15.1272 6.64241 15.0787 6.69089 15.0302 6.73938L13.9151 8.14544C13.8181 8.24241 13.6727 8.33938 13.5272 8.33938C13.4302 8.33938 13.3333 8.29089 13.2363 8.24241C13.0424 8.09695 12.9939 7.75756 13.1393 7.56362L13.3817 7.22423C9.50296 8.33938 6.73932 11.9757 6.73932 16.097C6.73932 20.703 10.1817 24.6303 14.6908 25.2606C14.9333 25.3091 15.1272 25.5515 15.1272 25.7939C15.1272 26.0848 14.8848 26.2303 14.6424 26.2303ZM14.9333 15.6606L14.2545 16.2909C14.1575 16.3879 14.0605 16.4363 13.9151 16.4363C13.8181 16.4363 13.6727 16.3879 13.5757 16.2909L10.5696 13.3333C10.0363 12.8485 9.74538 12.1697 9.79387 11.5879C9.79387 11.1515 9.98781 10.7151 10.2787 10.4242L10.3272 10.3757C11.103 9.69695 12.4121 9.84241 13.3333 10.7636L16.3878 13.7212C16.4848 13.8182 16.5333 13.9636 16.5333 14.0606C16.5333 14.206 16.4848 14.303 16.3878 14.4L15.6605 15.0303L18.8605 18.1333L19.1999 17.7939C19.2969 17.697 19.4424 17.6485 19.5878 17.697C19.7333 17.697 19.8302 17.7939 19.9272 17.8909L22.109 20.7515C22.2545 20.9454 22.2545 21.2363 22.0605 21.3818L21.4302 21.9636C21.3333 22.0606 21.2363 22.1091 21.0908 22.1091C20.9939 22.1091 20.8969 22.0606 20.7999 22.0121L17.8424 19.8788C17.7454 19.7818 17.6484 19.6363 17.6484 19.4909C17.6484 19.3454 17.6969 19.2 17.7939 19.103L18.1333 18.8121L14.9333 15.6606ZM18.6666 25.9879L19.103 26.2303C19.3454 26.3757 19.3939 26.6666 19.2969 26.9091C19.1999 27.0545 19.0545 27.1515 18.8605 27.1515C18.7636 27.1515 18.7151 27.1515 18.6181 27.103L17.1636 26.2788C17.0181 26.2303 16.9211 26.1333 16.8727 25.9394C16.8727 25.9394 16.8727 25.9394 16.8727 25.8909C16.8727 25.8909 16.8727 25.8909 16.8727 25.8424V25.7939C16.8727 25.7454 16.8727 25.7454 16.8727 25.697V25.6485C16.8727 25.6 16.8727 25.6 16.9211 25.5515L17.7939 24C17.9393 23.7576 18.2302 23.7091 18.4727 23.806C18.7151 23.9515 18.7636 24.2424 18.6666 24.4848L18.3272 25.1151C22.303 24.0485 25.2121 20.3636 25.2121 16.097C25.2121 11.4909 21.7696 7.56362 17.2605 6.93332C17.0181 6.88483 16.8242 6.64241 16.8727 6.39998C16.9211 6.15756 17.1636 5.96362 17.406 5.96362C22.3999 6.69089 26.1817 11.006 26.1817 16.097C26.1817 20.7515 23.0302 24.7757 18.6666 25.9879Z" fill="#F5FAFE"/>
</svg>
