<svg width="48" height="50" viewBox="0 0 48 50" fill="none" xmlns="http://www.w3.org/2000/svg">
<rect width="47.0588" height="50" rx="13.5294" fill="#1B1D1E"/>
<g clip-path="url(#clip0_16113_31364)">
<path d="M33.7075 28.7763C34.8339 28.6392 37.318 28.3439 37.7602 28.9135C38.2023 29.4727 37.2655 31.8253 36.8444 32.8696C36.7181 33.1861 36.9918 33.3127 37.276 33.0701C39.1285 31.5087 39.6128 28.2488 39.2339 27.7741C38.8548 27.3101 35.6024 26.909 33.6233 28.3017C33.318 28.5231 33.3707 28.8186 33.7075 28.7763Z" fill="#FF9900"/>
<path d="M23.4979 34.4837C27.8243 34.4837 32.8558 33.1227 36.319 30.5592C36.8874 30.1373 36.3926 29.4939 35.8137 29.7575C31.9295 31.4032 27.7085 32.2051 23.8663 32.2051C18.1716 32.2051 12.6663 30.6333 8.20341 28.0381C7.81365 27.806 7.51904 28.2068 7.84522 28.5023C11.9717 32.2367 17.4348 34.4837 23.4979 34.4837Z" fill="#FF9900"/>
<path d="M16.6243 22.4044C16.6243 22.7948 16.6664 23.1111 16.74 23.3433C16.8335 23.6043 16.9462 23.8582 17.077 24.1027C17.1295 24.1872 17.1506 24.2717 17.1506 24.3455C17.1506 24.4511 17.0875 24.5567 16.9505 24.6621L16.2875 25.1052C16.1928 25.1683 16.0978 25.2001 16.0138 25.2001C15.9084 25.2001 15.8032 25.1472 15.698 25.0523C15.5561 24.8995 15.4292 24.7335 15.319 24.5565C15.2013 24.3538 15.0924 24.1461 14.9926 23.934C14.1716 24.9046 13.14 25.39 11.8979 25.39C11.0137 25.39 10.3086 25.1367 9.79277 24.6305C9.27693 24.1241 9.01367 23.4486 9.01367 22.6049C9.01367 21.7081 9.32941 20.9802 9.97154 20.4317C10.6137 19.883 11.4664 19.6089 12.5507 19.6089C12.9085 19.6089 13.2769 19.6404 13.6665 19.6931C14.0558 19.746 14.4558 19.8303 14.8769 19.9252V19.1551C14.8769 18.3534 14.7084 17.7942 14.382 17.4672C14.0454 17.1402 13.4768 16.9821 12.6664 16.9821C12.2979 16.9821 11.9191 17.0241 11.5295 17.119C11.1425 17.2115 10.7626 17.3314 10.3927 17.4779C10.273 17.5316 10.1499 17.5774 10.0242 17.615C9.95063 17.6359 9.89794 17.6466 9.8557 17.6466C9.7085 17.6466 9.63469 17.5412 9.63469 17.3196V16.8027C9.63469 16.6339 9.65602 16.5072 9.7085 16.4336C9.76098 16.3596 9.8557 16.2858 10.0031 16.2117C10.3715 16.0219 10.8138 15.8638 11.3294 15.7371C11.8452 15.6001 12.3929 15.5365 12.9716 15.5365C14.2243 15.5365 15.14 15.8215 15.7294 16.3911C16.3084 16.9607 16.6032 17.826 16.6032 18.9863V22.4044H16.6243ZM12.3506 24.008C12.6979 24.008 13.0559 23.9446 13.4348 23.8181C13.8137 23.6914 14.1505 23.4593 14.4347 23.1429C14.6032 22.9424 14.7295 22.721 14.7927 22.4677C14.8558 22.2145 14.8978 21.9086 14.8978 21.55V21.1069C14.5787 21.0291 14.2554 20.9692 13.9295 20.9277C13.6014 20.8858 13.2709 20.8646 12.9401 20.8641C12.2348 20.8641 11.719 21.0013 11.3716 21.2861C11.0243 21.5711 10.8558 21.9719 10.8558 22.4993C10.8558 22.9951 10.9821 23.3644 11.2454 23.6176C11.4979 23.8813 11.8664 24.008 12.3504 24.008H12.3506ZM20.8031 25.1472C20.6137 25.1472 20.4874 25.1156 20.4031 25.0418C20.3191 24.9785 20.2452 24.8306 20.1821 24.6303L17.7085 16.4756C17.6454 16.2644 17.6138 16.1275 17.6138 16.0537C17.6138 15.8849 17.6978 15.79 17.8664 15.79H18.8978C19.0979 15.79 19.2349 15.8215 19.3085 15.8954C19.3928 15.9587 19.4557 16.1066 19.5191 16.3069L21.2876 23.2906L22.9296 16.3069C22.9821 16.0957 23.0452 15.9587 23.1295 15.8954C23.2138 15.832 23.361 15.79 23.5506 15.79H24.3927C24.5928 15.79 24.7295 15.8215 24.8138 15.8954C24.898 15.9587 24.9716 16.1066 25.0137 16.3069L26.6768 23.375L28.498 16.3069C28.561 16.0957 28.6346 15.9587 28.7084 15.8954C28.7927 15.832 28.9294 15.79 29.1191 15.79H30.0978C30.2664 15.79 30.3611 15.8742 30.3611 16.0537C30.3611 16.1063 30.3506 16.159 30.34 16.2224C30.3235 16.3123 30.2989 16.4006 30.2664 16.4861L27.7296 24.6412C27.6663 24.8522 27.5927 24.9891 27.5084 25.0525C27.4243 25.1158 27.2874 25.1581 27.1084 25.1581H26.2032C26.0031 25.1581 25.8661 25.1263 25.7821 25.0525C25.698 24.9787 25.6242 24.8415 25.5822 24.6305L23.9506 17.8262L22.3295 24.6201C22.2768 24.831 22.2137 24.9682 22.1294 25.042C22.0454 25.1158 21.8979 25.1474 21.7085 25.1474L20.8031 25.1472ZM34.3295 25.4322C33.7821 25.4322 33.2347 25.3689 32.7084 25.2423C32.1821 25.1156 31.7716 24.9785 31.4979 24.8202C31.3294 24.7252 31.2138 24.6196 31.1715 24.5249C31.1306 24.4317 31.1091 24.3312 31.1084 24.2294V23.6914C31.1084 23.47 31.1927 23.3644 31.3505 23.3644C31.4137 23.3644 31.4768 23.375 31.54 23.3959C31.6031 23.4173 31.6978 23.4593 31.8032 23.5015C32.175 23.6654 32.5632 23.7891 32.9612 23.8706C33.3821 23.9551 33.7928 23.9973 34.2137 23.9973C34.8769 23.9973 35.3928 23.8813 35.7505 23.6492C36.1085 23.4171 36.2979 23.0796 36.2979 22.6469C36.2979 22.3517 36.2032 22.1091 36.0138 21.9086C35.8243 21.7081 35.4664 21.5289 34.9505 21.3601L33.4243 20.8852C32.6559 20.6427 32.0874 20.2841 31.7401 19.8092C31.3928 19.345 31.2138 18.8281 31.2138 18.2796C31.2138 17.8365 31.3085 17.4461 31.4979 17.1086C31.6874 16.7711 31.94 16.4756 32.2559 16.2435C32.5716 16.001 32.9294 15.8215 33.3505 15.695C33.7716 15.5683 34.2137 15.5156 34.6768 15.5156C34.9085 15.5156 35.1506 15.5263 35.3821 15.5579C35.6242 15.5894 35.8452 15.6317 36.0663 15.6739C36.2768 15.7266 36.4769 15.7793 36.6664 15.8425C36.8558 15.906 37.0032 15.9692 37.1084 16.0325C37.2558 16.117 37.3612 16.2013 37.4243 16.2962C37.4875 16.3807 37.5191 16.4967 37.5191 16.6444V17.1404C37.5191 17.362 37.4348 17.4781 37.2769 17.4781C37.1927 17.4781 37.0559 17.4358 36.8769 17.3514C36.2768 17.0772 35.6031 16.9401 34.8558 16.9401C34.2559 16.9401 33.7821 17.035 33.4559 17.2353C33.1295 17.4358 32.9612 17.7418 32.9612 18.1744C32.9612 18.4697 33.0664 18.7227 33.2769 18.9232C33.4875 19.1237 33.8768 19.3243 34.4347 19.5035L35.9295 19.9783C36.6875 20.2209 37.2347 20.5586 37.5611 20.991C37.8875 21.4235 38.0454 21.9193 38.0454 22.4679C38.0454 22.9215 37.9506 23.333 37.7716 23.6916C37.5822 24.0502 37.3296 24.3668 37.0032 24.6201C36.6768 24.8837 36.2875 25.0736 35.8348 25.2108C35.3612 25.3584 34.8663 25.4322 34.3295 25.4322Z" fill="#A3ACB5"/>
</g>
<defs>
<clipPath id="clip0_16113_31364">
<rect width="32" height="32" fill="white" transform="translate(7.5293 9)"/>
</clipPath>
</defs>
</svg>
