<svg width="179" height="51" viewBox="0 0 179 51" fill="none" xmlns="http://www.w3.org/2000/svg">
<g clip-path="url(#clip0_5224_19472)">
<path d="M28.6408 8.47852V16.1712L41.9608 23.8639V16.1712L28.6408 8.47852ZM2 16.1712V23.8639L8.66 27.7094V20.0175L2 16.1712ZM21.98 20.0175L15.32 23.8639V46.9403L21.98 50.7866V35.4021L28.6408 39.2484V31.5557L21.98 27.7094V20.0175Z" fill="#E55B2D"/>
<path d="M28.641 8.47852L8.66016 20.0175V27.7094L21.9802 20.0175V27.7094L28.641 23.8639V8.47852ZM48.6218 12.3249L41.961 16.1712V23.8639L48.6218 20.0175V12.3249ZM35.301 27.7094L28.641 31.5557V39.2484L35.301 35.4021V27.7094ZM28.641 39.2484L21.9802 35.4021V50.7866L28.641 46.9403V39.2484Z" fill="#ED8E24"/>
<path d="M28.6408 0.787109L2 16.1717L8.66 20.018L28.6408 8.47899L41.9608 16.1717L48.6216 12.3253L28.6408 0.787109ZM28.6408 23.8643L21.98 27.7099L28.6408 31.5562L35.3008 27.7099L28.6408 23.8643Z" fill="#F8BF3C"/>
</g>
<path d="M70.9659 19.8042V18.2417H81.875V19.8042H77.3011V32.7871H75.5398V19.8042H70.9659ZM87.358 33.0144C86.3068 33.0144 85.4001 32.7824 84.6378 32.3184C83.8802 31.8496 83.2955 31.1962 82.8835 30.3581C82.4763 29.5153 82.2727 28.5352 82.2727 27.4178C82.2727 26.3004 82.4763 25.3155 82.8835 24.4632C83.2955 23.6062 83.8684 22.9386 84.6023 22.4604C85.3409 21.9775 86.2027 21.736 87.1875 21.736C87.7557 21.736 88.3168 21.8307 88.8707 22.0201C89.4247 22.2095 89.929 22.5172 90.3835 22.9434C90.8381 23.3648 91.2003 23.9235 91.4702 24.6195C91.7401 25.3155 91.875 26.1725 91.875 27.1905V27.9007H83.4659V26.4519H90.1705C90.1705 25.8364 90.0473 25.2871 89.8011 24.8042C89.5597 24.3212 89.214 23.94 88.7642 23.6607C88.3191 23.3813 87.7936 23.2417 87.1875 23.2417C86.5199 23.2417 85.9422 23.4074 85.4545 23.7388C84.9716 24.0655 84.5999 24.4917 84.3395 25.0172C84.0791 25.5428 83.9489 26.1062 83.9489 26.7076V27.6735C83.9489 28.4973 84.0909 29.1957 84.375 29.7686C84.6638 30.3368 85.0639 30.7701 85.5753 31.0684C86.0866 31.3619 86.6809 31.5087 87.358 31.5087C87.7983 31.5087 88.196 31.4471 88.5511 31.324C88.911 31.1962 89.2211 31.0068 89.4815 30.7559C89.742 30.5002 89.9432 30.1829 90.0852 29.8042L91.7045 30.2587C91.5341 30.8079 91.2476 31.2909 90.8452 31.7076C90.4427 32.1195 89.9455 32.4415 89.3537 32.6735C88.7618 32.9007 88.0966 33.0144 87.358 33.0144ZM96.1009 26.2246V32.7871H94.4247V21.878H96.044V23.5826H96.1861C96.4418 23.0286 96.83 22.5835 97.3509 22.2473C97.8717 21.9064 98.544 21.736 99.3679 21.736C100.107 21.736 100.753 21.8875 101.307 22.1905C101.861 22.4888 102.292 22.9434 102.599 23.5542C102.907 24.1602 103.061 24.9273 103.061 25.8553V32.7871H101.385V25.9689C101.385 25.1119 101.162 24.4443 100.717 23.9661C100.272 23.4831 99.6615 23.2417 98.8849 23.2417C98.3499 23.2417 97.8717 23.3577 97.4503 23.5897C97.0336 23.8217 96.7045 24.1602 96.4631 24.6053C96.2216 25.0504 96.1009 25.5901 96.1009 26.2246ZM113.851 24.3212L112.346 24.7473C112.251 24.4964 112.111 24.2525 111.926 24.0158C111.747 23.7743 111.5 23.5755 111.188 23.4192C110.875 23.263 110.475 23.1848 109.988 23.1848C109.32 23.1848 108.764 23.3387 108.319 23.6465C107.878 23.9495 107.658 24.3354 107.658 24.8042C107.658 25.2208 107.81 25.5499 108.113 25.7914C108.416 26.0328 108.889 26.2341 109.533 26.3951L111.152 26.7928C112.128 27.0295 112.855 27.3917 113.333 27.8794C113.811 28.3624 114.05 28.985 114.05 29.7473C114.05 30.3723 113.87 30.931 113.51 31.4235C113.155 31.9159 112.658 32.3042 112.019 32.5882C111.38 32.8723 110.636 33.0144 109.789 33.0144C108.676 33.0144 107.755 32.7729 107.026 32.29C106.297 31.807 105.835 31.1015 105.641 30.1735L107.232 29.7757C107.383 30.3629 107.67 30.8032 108.091 31.0968C108.517 31.3903 109.074 31.5371 109.76 31.5371C110.542 31.5371 111.162 31.3714 111.621 31.04C112.085 30.7038 112.317 30.3013 112.317 29.8326C112.317 29.4538 112.185 29.1365 111.919 28.8809C111.654 28.6204 111.247 28.4263 110.698 28.2985L108.88 27.8723C107.881 27.6356 107.147 27.2686 106.678 26.7715C106.214 26.2696 105.982 25.6422 105.982 24.8894C105.982 24.2739 106.155 23.7293 106.5 23.2559C106.851 22.7824 107.327 22.4107 107.928 22.1408C108.534 21.8709 109.221 21.736 109.988 21.736C111.067 21.736 111.915 21.9727 112.53 22.4462C113.15 22.9197 113.591 23.5447 113.851 24.3212ZM121.005 33.0144C120.02 33.0144 119.156 32.78 118.413 32.3113C117.674 31.8425 117.096 31.1867 116.68 30.3439C116.268 29.5011 116.062 28.5163 116.062 27.3894C116.062 26.253 116.268 25.2611 116.68 24.4135C117.096 23.566 117.674 22.9078 118.413 22.4391C119.156 21.9703 120.02 21.736 121.005 21.736C121.99 21.736 122.852 21.9703 123.59 22.4391C124.334 22.9078 124.911 23.566 125.323 24.4135C125.74 25.2611 125.948 26.253 125.948 27.3894C125.948 28.5163 125.74 29.5011 125.323 30.3439C124.911 31.1867 124.334 31.8425 123.59 32.3113C122.852 32.78 121.99 33.0144 121.005 33.0144ZM121.005 31.5087C121.753 31.5087 122.369 31.3169 122.852 30.9334C123.335 30.5499 123.692 30.0456 123.924 29.4206C124.156 28.7956 124.272 28.1185 124.272 27.3894C124.272 26.6602 124.156 25.9808 123.924 25.351C123.692 24.7213 123.335 24.2123 122.852 23.824C122.369 23.4358 121.753 23.2417 121.005 23.2417C120.257 23.2417 119.641 23.4358 119.158 23.824C118.675 24.2123 118.318 24.7213 118.086 25.351C117.854 25.9808 117.738 26.6602 117.738 27.3894C117.738 28.1185 117.854 28.7956 118.086 29.4206C118.318 30.0456 118.675 30.5499 119.158 30.9334C119.641 31.3169 120.257 31.5087 121.005 31.5087ZM128.507 32.7871V21.878H130.126V23.5257H130.24C130.439 22.986 130.798 22.548 131.319 22.2118C131.84 21.8757 132.427 21.7076 133.081 21.7076C133.204 21.7076 133.358 21.7099 133.542 21.7147C133.727 21.7194 133.867 21.7265 133.961 21.736V23.4405C133.904 23.4263 133.774 23.405 133.571 23.3766C133.372 23.3435 133.161 23.3269 132.939 23.3269C132.408 23.3269 131.935 23.4382 131.518 23.6607C131.106 23.8785 130.779 24.1815 130.538 24.5698C130.301 24.9533 130.183 25.3913 130.183 25.8837V32.7871H128.507ZM136.175 32.7871V18.2417H144.897V19.8042H137.937V24.7189H144.244V26.2814H137.937V32.7871H136.175ZM149.363 18.2417V32.7871H147.686V18.2417H149.363ZM156.864 33.0144C155.879 33.0144 155.015 32.78 154.272 32.3113C153.533 31.8425 152.956 31.1867 152.539 30.3439C152.127 29.5011 151.921 28.5163 151.921 27.3894C151.921 26.253 152.127 25.2611 152.539 24.4135C152.956 23.566 153.533 22.9078 154.272 22.4391C155.015 21.9703 155.879 21.736 156.864 21.736C157.849 21.736 158.711 21.9703 159.45 22.4391C160.193 22.9078 160.771 23.566 161.183 24.4135C161.599 25.2611 161.808 26.253 161.808 27.3894C161.808 28.5163 161.599 29.5011 161.183 30.3439C160.771 31.1867 160.193 31.8425 159.45 32.3113C158.711 32.78 157.849 33.0144 156.864 33.0144ZM156.864 31.5087C157.612 31.5087 158.228 31.3169 158.711 30.9334C159.194 30.5499 159.551 30.0456 159.783 29.4206C160.015 28.7956 160.131 28.1185 160.131 27.3894C160.131 26.6602 160.015 25.9808 159.783 25.351C159.551 24.7213 159.194 24.2123 158.711 23.824C158.228 23.4358 157.612 23.2417 156.864 23.2417C156.116 23.2417 155.501 23.4358 155.018 23.824C154.535 24.2123 154.177 24.7213 153.945 25.351C153.713 25.9808 153.597 26.6602 153.597 27.3894C153.597 28.1185 153.713 28.7956 153.945 29.4206C154.177 30.0456 154.535 30.5499 155.018 30.9334C155.501 31.3169 156.116 31.5087 156.864 31.5087ZM166.467 32.7871L163.143 21.878H164.904L167.262 30.2303H167.376L169.705 21.878H171.495L173.796 30.2019H173.91L176.268 21.878H178.029L174.705 32.7871H173.058L170.671 24.4064H170.501L168.114 32.7871H166.467Z" fill="white"/>
<defs>
<clipPath id="clip0_5224_19472">
<rect width="50" height="50" fill="white" transform="translate(0 0.787109)"/>
</clipPath>
</defs>
</svg>
