<svg width="162" height="51" viewBox="0 0 162 51" fill="none" xmlns="http://www.w3.org/2000/svg">
<path fill-rule="evenodd" clip-rule="evenodd" d="M32.0535 19.0119V33.401L19.7031 26.2064V11.8174L32.0535 19.0119Z" fill="#5C4EE5"/>
<path fill-rule="evenodd" clip-rule="evenodd" d="M33.4082 33.401L45.7648 26.2064V11.8174L33.4082 19.0119V33.401Z" fill="#4040B2"/>
<path fill-rule="evenodd" clip-rule="evenodd" d="M6 18.1766L18.3508 25.3703V10.9816L6 3.78711V18.1766ZM32.0543 34.9793L19.7039 27.7848V42.1676L32.0543 49.3621V34.9793Z" fill="#5C4EE5"/>
<path d="M70.9659 19.8042V18.2417H81.875V19.8042H77.3011V32.7871H75.5398V19.8042H70.9659ZM87.358 33.0144C86.3068 33.0144 85.4001 32.7824 84.6378 32.3184C83.8802 31.8496 83.2955 31.1962 82.8835 30.3581C82.4763 29.5153 82.2727 28.5352 82.2727 27.4178C82.2727 26.3004 82.4763 25.3155 82.8835 24.4632C83.2955 23.6062 83.8684 22.9386 84.6023 22.4604C85.3409 21.9775 86.2027 21.736 87.1875 21.736C87.7557 21.736 88.3168 21.8307 88.8707 22.0201C89.4247 22.2095 89.929 22.5172 90.3835 22.9434C90.8381 23.3648 91.2003 23.9235 91.4702 24.6195C91.7401 25.3155 91.875 26.1725 91.875 27.1905V27.9007H83.4659V26.4519H90.1705C90.1705 25.8364 90.0473 25.2871 89.8011 24.8042C89.5597 24.3212 89.214 23.94 88.7642 23.6607C88.3191 23.3813 87.7936 23.2417 87.1875 23.2417C86.5199 23.2417 85.9422 23.4074 85.4545 23.7388C84.9716 24.0655 84.5999 24.4917 84.3395 25.0172C84.0791 25.5428 83.9489 26.1062 83.9489 26.7076V27.6735C83.9489 28.4973 84.0909 29.1957 84.375 29.7686C84.6638 30.3368 85.0639 30.7701 85.5753 31.0684C86.0866 31.3619 86.6809 31.5087 87.358 31.5087C87.7983 31.5087 88.196 31.4471 88.5511 31.324C88.911 31.1962 89.2211 31.0068 89.4815 30.7559C89.742 30.5002 89.9432 30.1829 90.0852 29.8042L91.7045 30.2587C91.5341 30.8079 91.2476 31.2909 90.8452 31.7076C90.4427 32.1195 89.9455 32.4415 89.3537 32.6735C88.7618 32.9007 88.0966 33.0144 87.358 33.0144ZM94.4247 32.7871V21.878H96.044V23.5257H96.1577C96.3565 22.986 96.7164 22.548 97.2372 22.2118C97.758 21.8757 98.3452 21.7076 98.9986 21.7076C99.1217 21.7076 99.2756 21.7099 99.4602 21.7147C99.6449 21.7194 99.7846 21.7265 99.8793 21.736V23.4405C99.8224 23.4263 99.6922 23.405 99.4886 23.3766C99.2898 23.3435 99.0791 23.3269 98.8565 23.3269C98.3262 23.3269 97.8527 23.4382 97.4361 23.6607C97.0241 23.8785 96.6974 24.1815 96.456 24.5698C96.2192 24.9533 96.1009 25.3913 96.1009 25.8837V32.7871H94.4247ZM101.866 32.7871V21.878H103.485V23.5257H103.599C103.798 22.986 104.158 22.548 104.679 22.2118C105.199 21.8757 105.787 21.7076 106.44 21.7076C106.563 21.7076 106.717 21.7099 106.902 21.7147C107.086 21.7194 107.226 21.7265 107.321 21.736V23.4405C107.264 23.4263 107.134 23.405 106.93 23.3766C106.731 23.3435 106.52 23.3269 106.298 23.3269C105.768 23.3269 105.294 23.4382 104.877 23.6607C104.466 23.8785 104.139 24.1815 103.897 24.5698C103.661 24.9533 103.542 25.3913 103.542 25.8837V32.7871H101.866ZM112.518 33.0428C111.826 33.0428 111.199 32.9126 110.636 32.6522C110.072 32.387 109.625 32.0059 109.293 31.5087C108.962 31.0068 108.796 30.4007 108.796 29.6905C108.796 29.0655 108.919 28.5589 109.165 28.1706C109.412 27.7776 109.741 27.4699 110.153 27.2473C110.565 27.0248 111.019 26.8591 111.516 26.7502C112.018 26.6365 112.522 26.5466 113.029 26.4803C113.692 26.3951 114.229 26.3311 114.641 26.2885C115.058 26.2412 115.361 26.1631 115.55 26.0542C115.745 25.9453 115.842 25.7559 115.842 25.486V25.4292C115.842 24.7284 115.65 24.1839 115.266 23.7956C114.888 23.4074 114.312 23.2132 113.54 23.2132C112.74 23.2132 112.113 23.3884 111.658 23.7388C111.204 24.0892 110.884 24.4632 110.7 24.861L109.109 24.2928C109.393 23.6299 109.772 23.1138 110.245 22.7445C110.723 22.3704 111.244 22.11 111.808 21.9632C112.376 21.8117 112.934 21.736 113.484 21.736C113.834 21.736 114.237 21.7786 114.691 21.8638C115.15 21.9443 115.593 22.1124 116.019 22.3681C116.45 22.6238 116.808 23.0096 117.092 23.5257C117.376 24.0418 117.518 24.7331 117.518 25.5996V32.7871H115.842V31.3098H115.756C115.643 31.5466 115.453 31.7999 115.188 32.0698C114.923 32.3397 114.57 32.5693 114.13 32.7587C113.69 32.9481 113.152 33.0428 112.518 33.0428ZM112.773 31.5371C113.436 31.5371 113.995 31.4069 114.45 31.1465C114.909 30.8861 115.254 30.5499 115.487 30.138C115.723 29.726 115.842 29.2928 115.842 28.8382V27.3042C115.771 27.3894 115.614 27.4675 115.373 27.5385C115.136 27.6048 114.862 27.664 114.549 27.7161C114.241 27.7634 113.941 27.806 113.647 27.8439C113.358 27.8771 113.124 27.9055 112.944 27.9292C112.508 27.986 112.101 28.0783 111.722 28.2061C111.348 28.3292 111.045 28.5163 110.813 28.7672C110.586 29.0134 110.472 29.3496 110.472 29.7757C110.472 30.3581 110.688 30.7985 111.119 31.0968C111.554 31.3903 112.106 31.5371 112.773 31.5371ZM125.435 21.878V23.2985H119.554V21.878H125.435ZM121.316 32.7871V20.3723C121.316 19.7473 121.462 19.2265 121.756 18.8098C122.05 18.3932 122.431 18.0807 122.9 17.8723C123.368 17.664 123.863 17.5598 124.384 17.5598C124.796 17.5598 125.132 17.593 125.392 17.6593C125.653 17.7256 125.847 17.7871 125.975 17.8439L125.492 19.2928C125.407 19.2644 125.288 19.2289 125.137 19.1863C124.99 19.1436 124.796 19.1223 124.554 19.1223C124 19.1223 123.6 19.262 123.354 19.5414C123.113 19.8207 122.992 20.2303 122.992 20.7701V32.7871H121.316ZM131.767 33.0144C130.782 33.0144 129.918 32.78 129.174 32.3113C128.436 31.8425 127.858 31.1867 127.441 30.3439C127.029 29.5011 126.824 28.5163 126.824 27.3894C126.824 26.253 127.029 25.2611 127.441 24.4135C127.858 23.566 128.436 22.9078 129.174 22.4391C129.918 21.9703 130.782 21.736 131.767 21.736C132.752 21.736 133.613 21.9703 134.352 22.4391C135.095 22.9078 135.673 23.566 136.085 24.4135C136.502 25.2611 136.71 26.253 136.71 27.3894C136.71 28.5163 136.502 29.5011 136.085 30.3439C135.673 31.1867 135.095 31.8425 134.352 32.3113C133.613 32.78 132.752 33.0144 131.767 33.0144ZM131.767 31.5087C132.515 31.5087 133.13 31.3169 133.613 30.9334C134.096 30.5499 134.454 30.0456 134.686 29.4206C134.918 28.7956 135.034 28.1185 135.034 27.3894C135.034 26.6602 134.918 25.9808 134.686 25.351C134.454 24.7213 134.096 24.2123 133.613 23.824C133.13 23.4358 132.515 23.2417 131.767 23.2417C131.019 23.2417 130.403 23.4358 129.92 23.824C129.437 24.2123 129.08 24.7213 128.848 25.351C128.616 25.9808 128.5 26.6602 128.5 27.3894C128.5 28.1185 128.616 28.7956 128.848 29.4206C129.08 30.0456 129.437 30.5499 129.92 30.9334C130.403 31.3169 131.019 31.5087 131.767 31.5087ZM139.268 32.7871V21.878H140.888V23.5257H141.001C141.2 22.986 141.56 22.548 142.081 22.2118C142.602 21.8757 143.189 21.7076 143.842 21.7076C143.965 21.7076 144.119 21.7099 144.304 21.7147C144.489 21.7194 144.628 21.7265 144.723 21.736V23.4405C144.666 23.4263 144.536 23.405 144.332 23.3766C144.134 23.3435 143.923 23.3269 143.7 23.3269C143.17 23.3269 142.696 23.4382 142.28 23.6607C141.868 23.8785 141.541 24.1815 141.3 24.5698C141.063 24.9533 140.945 25.3913 140.945 25.8837V32.7871H139.268ZM146.71 32.7871V21.878H148.329V23.5826H148.471C148.699 23.0002 149.065 22.548 149.572 22.226C150.079 21.8993 150.687 21.736 151.397 21.736C152.117 21.736 152.716 21.8993 153.194 22.226C153.677 22.548 154.054 23.0002 154.324 23.5826H154.437C154.717 23.0191 155.136 22.5717 155.694 22.2402C156.253 21.9041 156.923 21.736 157.704 21.736C158.68 21.736 159.477 22.0414 160.098 22.6522C160.718 23.2582 161.028 24.2028 161.028 25.486V32.7871H159.352V25.486C159.352 24.681 159.132 24.1058 158.691 23.7601C158.251 23.4145 157.733 23.2417 157.136 23.2417C156.369 23.2417 155.775 23.4737 155.353 23.9377C154.932 24.397 154.721 24.9793 154.721 25.6848V32.7871H153.017V25.3155C153.017 24.6953 152.815 24.1957 152.413 23.8169C152.011 23.4334 151.492 23.2417 150.858 23.2417C150.422 23.2417 150.015 23.3577 149.636 23.5897C149.262 23.8217 148.959 24.1436 148.727 24.5556C148.5 24.9628 148.386 25.4339 148.386 25.9689V32.7871H146.71Z" fill="white"/>
</svg>
