<svg width="72" height="38" viewBox="0 0 72 38" fill="none" xmlns="http://www.w3.org/2000/svg">
<path d="M5.22445 26.3469V27H4.57139V26.3469H5.22445ZM5.22445 25.6939V26.3469H4.57139V25.6939H5.22445ZM5.22445 25.0408V25.6939H4.57139V25.0408H5.22445ZM5.22445 24.3878V25.0408H4.57139V24.3878H5.22445ZM5.22445 23.7347V24.3878H4.57139V23.7347H5.22445ZM5.22445 23.0817V23.7347H4.57139V23.0817H5.22445ZM5.22445 22.4286V23.0817H4.57139V22.4286H5.22445ZM5.22445 21.7756V22.4286H4.57139V21.7756H5.22445ZM5.22445 21.1225V21.7756H4.57139V21.1225H5.22445ZM5.22445 20.4694V21.1225H4.57139V20.4694H5.22445ZM5.22445 19.8164V20.4694H4.57139V19.8164H5.22445ZM5.22445 19.1633V19.8164H4.57139V19.1633H5.22445ZM5.22445 18.5103V19.1633H4.57139V18.5103H5.22445ZM5.22445 17.8572V18.5103H4.57139V17.8572H5.22445ZM5.22445 17.2042V17.8572H4.57139V17.2042H5.22445ZM5.87751 17.2042V17.8572H5.22445V17.2042H5.87751ZM5.87751 17.8572V18.5103H5.22445V17.8572H5.87751ZM5.87751 18.5103V19.1633H5.22445V18.5103H5.87751ZM5.87751 19.1633V19.8164H5.22445V19.1633H5.87751ZM5.87751 19.8164V20.4694H5.22445V19.8164H5.87751ZM5.87751 20.4694V21.1225H5.22445V20.4694H5.87751ZM5.87751 21.1225V21.7756H5.22445V21.1225H5.87751ZM6.53056 21.7756V22.4286H5.87751V21.7756H6.53056ZM6.53056 22.4286V23.0817H5.87751V22.4286H6.53056ZM6.53056 23.0817V23.7347H5.87751V23.0817H6.53056ZM6.53056 23.7347V24.3878H5.87751V23.7347H6.53056ZM6.53056 24.3878V25.0408H5.87751V24.3878H6.53056ZM6.53056 25.0408V25.6939H5.87751V25.0408H6.53056ZM6.53056 25.6939V26.3469H5.87751V25.6939H6.53056ZM6.53056 26.3469V27H5.87751V26.3469H6.53056ZM7.18362 26.3469V27H6.53056V26.3469H7.18362ZM7.83667 26.3469V27H7.18362V26.3469H7.83667ZM7.83667 25.6939V26.3469H7.18362V25.6939H7.83667ZM7.83667 25.0408V25.6939H7.18362V25.0408H7.83667ZM7.83667 24.3878V25.0408H7.18362V24.3878H7.83667ZM7.83667 23.7347V24.3878H7.18362V23.7347H7.83667ZM7.83667 23.0817V23.7347H7.18362V23.0817H7.83667ZM7.83667 22.4286V23.0817H7.18362V22.4286H7.83667ZM7.83667 21.7756V22.4286H7.18362V21.7756H7.83667ZM7.18362 21.7756V22.4286H6.53056V21.7756H7.18362ZM7.18362 21.1225V21.7756H6.53056V21.1225H7.18362ZM7.18362 22.4286V23.0817H6.53056V22.4286H7.18362ZM7.18362 23.0817V23.7347H6.53056V23.0817H7.18362ZM7.18362 23.7347V24.3878H6.53056V23.7347H7.18362ZM7.18362 24.3878V25.0408H6.53056V24.3878H7.18362ZM7.18362 25.0408V25.6939H6.53056V25.0408H7.18362ZM7.18362 25.6939V26.3469H6.53056V25.6939H7.18362ZM5.87751 26.3469V27H5.22445V26.3469H5.87751ZM5.87751 25.6939V26.3469H5.22445V25.6939H5.87751ZM5.87751 25.0408V25.6939H5.22445V25.0408H5.87751ZM5.87751 24.3878V25.0408H5.22445V24.3878H5.87751ZM5.87751 23.7347V24.3878H5.22445V23.7347H5.87751ZM5.87751 23.0817V23.7347H5.22445V23.0817H5.87751ZM5.87751 22.4286V23.0817H5.22445V22.4286H5.87751ZM5.87751 21.7756V22.4286H5.22445V21.7756H5.87751ZM5.22445 10.6736V11.3267H4.57139V10.6736H5.22445ZM5.22445 11.3267V11.9797H4.57139V11.3267H5.22445ZM5.22445 11.9797V12.6328H4.57139V11.9797H5.22445ZM5.22445 12.6328V13.2858H4.57139V12.6328H5.22445ZM5.22445 13.2858V13.9389H4.57139V13.2858H5.22445ZM5.22445 13.9389V14.5919H4.57139V13.9389H5.22445ZM5.22445 14.5919V15.245H4.57139V14.5919H5.22445ZM5.22445 15.245V15.898H4.57139V15.245H5.22445ZM5.22445 15.898V16.5511H4.57139V15.898H5.22445ZM5.22445 16.5511V17.2042H4.57139V16.5511H5.22445ZM7.18362 10.6736V11.3267H6.53056V10.6736H7.18362ZM7.18362 11.3267V11.9797H6.53056V11.3267H7.18362ZM7.18362 11.9797V12.6328H6.53056V11.9797H7.18362ZM7.18362 12.6328V13.2858H6.53056V12.6328H7.18362ZM7.18362 13.2858V13.9389H6.53056V13.2858H7.18362ZM7.18362 13.9389V14.5919H6.53056V13.9389H7.18362ZM7.18362 15.245V15.898H6.53056V15.245H7.18362ZM7.18362 15.898V16.5511H6.53056V15.898H7.18362ZM7.18362 16.5511V17.2042H6.53056V16.5511H7.18362ZM7.18362 17.2042V17.8572H6.53056V17.2042H7.18362ZM7.18362 17.8572V18.5103H6.53056V17.8572H7.18362ZM7.18362 18.5103V19.1633H6.53056V18.5103H7.18362ZM7.18362 19.1633V19.8164H6.53056V19.1633H7.18362ZM7.83667 19.8164V20.4694H7.18362V19.8164H7.83667ZM7.83667 20.4694V21.1225H7.18362V20.4694H7.83667ZM7.83667 21.1225V21.7756H7.18362V21.1225H7.83667ZM7.83667 19.1633V19.8164H7.18362V19.1633H7.83667ZM7.83667 18.5103V19.1633H7.18362V18.5103H7.83667ZM7.83667 17.8572V18.5103H7.18362V17.8572H7.83667ZM7.83667 17.2042V17.8572H7.18362V17.2042H7.83667ZM7.83667 16.5511V17.2042H7.18362V16.5511H7.83667ZM7.83667 15.898V16.5511H7.18362V15.898H7.83667ZM7.83667 15.245V15.898H7.18362V15.245H7.83667ZM7.83667 14.5919V15.245H7.18362V14.5919H7.83667ZM7.83667 13.9389V14.5919H7.18362V13.9389H7.83667ZM7.83667 13.2858V13.9389H7.18362V13.2858H7.83667ZM7.18362 14.5919V15.245H6.53056V14.5919H7.18362ZM7.83667 12.6328V13.2858H7.18362V12.6328H7.83667ZM7.83667 11.9797V12.6328H7.18362V11.9797H7.83667ZM7.83667 11.3267V11.9797H7.18362V11.3267H7.83667ZM7.83667 10.6736V11.3267H7.18362V10.6736H7.83667ZM6.53056 10.6736V11.3267H5.87751V10.6736H6.53056ZM5.87751 10.6736V11.3267H5.22445V10.6736H5.87751ZM5.87751 11.3267V11.9797H5.22445V11.3267H5.87751ZM6.53056 11.3267V11.9797H5.87751V11.3267H6.53056ZM6.53056 11.9797V12.6328H5.87751V11.9797H6.53056ZM6.53056 12.6328V13.2858H5.87751V12.6328H6.53056ZM6.53056 13.2858V13.9389H5.87751V13.2858H6.53056ZM6.53056 13.9389V14.5919H5.87751V13.9389H6.53056ZM6.53056 14.5919V15.245H5.87751V14.5919H6.53056ZM6.53056 15.245V15.898H5.87751V15.245H6.53056ZM5.87751 15.898V16.5511H5.22445V15.898H5.87751ZM5.87751 16.5511V17.2042H5.22445V16.5511H5.87751ZM5.87751 15.245V15.898H5.22445V15.245H5.87751ZM5.87751 14.5919V15.245H5.22445V14.5919H5.87751ZM5.87751 13.9389V14.5919H5.22445V13.9389H5.87751ZM5.87751 13.2858V13.9389H5.22445V13.2858H5.87751ZM5.87751 12.6328V13.2858H5.22445V12.6328H5.87751ZM5.87751 11.9797V12.6328H5.22445V11.9797H5.87751ZM6.53056 15.898V16.5511H5.87751V15.898H6.53056ZM6.53056 16.5511V17.2042H5.87751V16.5511H6.53056ZM6.53056 17.2042V17.8572H5.87751V17.2042H6.53056ZM6.53056 17.8572V18.5103H5.87751V17.8572H6.53056ZM6.53056 18.5103V19.1633H5.87751V18.5103H6.53056ZM6.53056 19.1633V19.8164H5.87751V19.1633H6.53056ZM6.53056 19.8164V20.4694H5.87751V19.8164H6.53056ZM6.53056 20.4694V21.1225H5.87751V20.4694H6.53056ZM6.53056 21.1225V21.7756H5.87751V21.1225H6.53056ZM7.18362 20.4694V21.1225H6.53056V20.4694H7.18362ZM7.18362 19.8164V20.4694H6.53056V19.8164H7.18362ZM4.57139 10.6736V11.3267H3.91834V10.6736H4.57139ZM3.91834 10.6736V11.3267H3.26528V10.6736H3.91834ZM3.26528 10.6736V11.3267H2.61222V10.6736H3.26528ZM2.61222 10.6736V11.3267H1.95917V10.6736H2.61222ZM1.95917 10.6736V11.3267H1.30611V10.6736H1.95917ZM1.95917 11.3267V11.9797H1.30611V11.3267H1.95917ZM1.95917 11.9797V12.6328H1.30611V11.9797H1.95917ZM2.61222 11.3267V11.9797H1.95917V11.3267H2.61222ZM3.26528 11.3267V11.9797H2.61222V11.3267H3.26528ZM3.91834 11.3267V11.9797H3.26528V11.3267H3.91834ZM4.57139 11.9797V12.6328H3.91834V11.9797H4.57139ZM4.57139 11.3267V11.9797H3.91834V11.3267H4.57139ZM3.91834 11.9797V12.6328H3.26528V11.9797H3.91834ZM3.26528 11.9797V12.6328H2.61222V11.9797H3.26528ZM2.61222 11.9797V12.6328H1.95917V11.9797H2.61222ZM8.48973 10.6736V11.3267H7.83667V10.6736H8.48973ZM9.14279 10.6736V11.3267H8.48973V10.6736H9.14279ZM9.79584 10.6736V11.3267H9.14279V10.6736H9.79584ZM10.4489 10.6736V11.3267H9.79584V10.6736H10.4489ZM11.102 10.6736V11.3267H10.4489V10.6736H11.102ZM11.102 11.3267V11.9797H10.4489V11.3267H11.102ZM10.4489 11.3267V11.9797H9.79584V11.3267H10.4489ZM9.79584 11.3267V11.9797H9.14279V11.3267H9.79584ZM9.14279 11.3267V11.9797H8.48973V11.3267H9.14279ZM8.48973 11.3267V11.9797H7.83667V11.3267H8.48973ZM8.48973 11.9797V12.6328H7.83667V11.9797H8.48973ZM9.14279 11.9797V12.6328H8.48973V11.9797H9.14279ZM9.79584 11.9797V12.6328H9.14279V11.9797H9.79584ZM10.4489 11.9797V12.6328H9.79584V11.9797H10.4489ZM11.102 11.9797V12.6328H10.4489V11.9797H11.102ZM1.95917 12.6328V13.2858H1.30611V12.6328H1.95917ZM1.95917 13.2858V13.9389H1.30611V13.2858H1.95917ZM2.61222 13.2858V13.9389H1.95917V13.2858H2.61222ZM3.26528 13.2858V13.9389H2.61222V13.2858H3.26528ZM3.91834 13.2858V13.9389H3.26528V13.2858H3.91834ZM4.57139 13.2858V13.9389H3.91834V13.2858H4.57139ZM4.57139 12.6328V13.2858H3.91834V12.6328H4.57139ZM3.91834 12.6328V13.2858H3.26528V12.6328H3.91834ZM3.26528 12.6328V13.2858H2.61222V12.6328H3.26528ZM2.61222 12.6328V13.2858H1.95917V12.6328H2.61222ZM11.102 12.6328V13.2858H10.4489V12.6328H11.102ZM11.102 13.2858V13.9389H10.4489V13.2858H11.102ZM10.4489 13.2858V13.9389H9.79584V13.2858H10.4489ZM9.79584 13.2858V13.9389H9.14279V13.2858H9.79584ZM9.14279 13.2858V13.9389H8.48973V13.2858H9.14279ZM8.48973 13.2858V13.9389H7.83667V13.2858H8.48973ZM8.48973 12.6328V13.2858H7.83667V12.6328H8.48973ZM9.14279 12.6328V13.2858H8.48973V12.6328H9.14279ZM9.79584 12.6328V13.2858H9.14279V12.6328H9.79584ZM10.4489 12.6328V13.2858H9.79584V12.6328H10.4489ZM20.9099 18.5103V19.1633H20.2569V18.5103H20.9099ZM21.563 18.5103V19.1633H20.9099V18.5103H21.563ZM22.216 18.5103V19.1633H21.563V18.5103H22.216ZM22.8691 18.5103V19.1633H22.216V18.5103H22.8691ZM23.5221 18.5103V19.1633H22.8691V18.5103H23.5221ZM23.5221 17.8572V18.5103H22.8691V17.8572H23.5221ZM23.5221 17.2042V17.8572H22.8691V17.2042H23.5221ZM22.8691 17.2042V17.8572H22.216V17.2042H22.8691ZM22.216 17.2042V17.8572H21.563V17.2042H22.216ZM21.563 17.2042V17.8572H20.9099V17.2042H21.563ZM21.563 17.8572V18.5103H20.9099V17.8572H21.563ZM20.9099 17.8572V18.5103H20.2569V17.8572H20.9099ZM22.216 17.8572V18.5103H21.563V17.8572H22.216ZM22.8691 17.8572V18.5103H22.216V17.8572H22.8691ZM20.9099 17.2042V17.8572H20.2569V17.2042H20.9099ZM20.2569 17.2042V17.8572H19.6038V17.2042H20.2569ZM20.2569 16.5511V17.2042H19.6038V16.5511H20.2569ZM20.9099 16.5511V17.2042H20.2569V16.5511H20.9099ZM21.563 16.5511V17.2042H20.9099V16.5511H21.563ZM22.216 16.5511V17.2042H21.563V16.5511H22.216ZM22.8691 16.5511V17.2042H22.216V16.5511H22.8691ZM22.8691 15.898V16.5511H22.216V15.898H22.8691ZM22.216 15.898V16.5511H21.563V15.898H22.216ZM21.563 15.898V16.5511H20.9099V15.898H21.563ZM20.9099 15.898V16.5511H20.2569V15.898H20.9099ZM20.2569 15.898V16.5511H19.6038V15.898H20.2569ZM21.563 15.245V15.898H20.9099V15.245H21.563ZM22.216 15.245V15.898H21.563V15.245H22.216ZM20.9099 15.245V15.898H20.2569V15.245H20.9099ZM20.9099 14.5919V15.245H20.2569V14.5919H20.9099ZM20.2569 14.5919V15.245H19.6038V14.5919H20.2569ZM20.2569 15.245V15.898H19.6038V15.245H20.2569ZM19.6038 15.245V15.898H18.9507V15.245H19.6038ZM19.6038 14.5919V15.245H18.9507V14.5919H19.6038ZM19.6038 15.898V16.5511H18.9507V15.898H19.6038ZM18.9507 15.898V16.5511H18.2977V15.898H18.9507ZM18.9507 16.5511V17.2042H18.2977V16.5511H18.9507ZM19.6038 16.5511V17.2042H18.9507V16.5511H19.6038ZM18.2977 16.5511V17.2042H17.6446V16.5511H18.2977ZM18.2977 15.898V16.5511H17.6446V15.898H18.2977ZM18.2977 15.245V15.898H17.6446V15.245H18.2977ZM18.2977 14.5919V15.245H17.6446V14.5919H18.2977ZM18.9507 14.5919V15.245H18.2977V14.5919H18.9507ZM18.9507 15.245V15.898H18.2977V15.245H18.9507ZM17.6446 14.5919V15.245H16.9916V14.5919H17.6446ZM16.9916 14.5919V15.245H16.3385V14.5919H16.9916ZM16.3385 14.5919V15.245H15.6855V14.5919H16.3385ZM16.3385 15.245V15.898H15.6855V15.245H16.3385ZM16.3385 15.898V16.5511H15.6855V15.898H16.3385ZM16.3385 16.5511V17.2042H15.6855V16.5511H16.3385ZM16.9916 16.5511V17.2042H16.3385V16.5511H16.9916ZM17.6446 16.5511V17.2042H16.9916V16.5511H17.6446ZM17.6446 15.898V16.5511H16.9916V15.898H17.6446ZM17.6446 15.245V15.898H16.9916V15.245H17.6446ZM16.9916 15.245V15.898H16.3385V15.245H16.9916ZM16.9916 15.898V16.5511H16.3385V15.898H16.9916ZM15.6855 15.898V16.5511H15.0324V15.898H15.6855ZM15.6855 15.245V15.898H15.0324V15.245H15.6855ZM15.0324 15.245V15.898H14.3794V15.245H15.0324ZM15.0324 15.898V16.5511H14.3794V15.898H15.0324ZM14.3794 15.898V16.5511H13.7263V15.898H14.3794ZM14.3794 16.5511V17.2042H13.7263V16.5511H14.3794ZM14.3794 17.2042V17.8572H13.7263V17.2042H14.3794ZM15.0324 17.2042V17.8572H14.3794V17.2042H15.0324ZM15.0324 16.5511V17.2042H14.3794V16.5511H15.0324ZM15.6855 16.5511V17.2042H15.0324V16.5511H15.6855ZM15.6855 17.2042V17.8572H15.0324V17.2042H15.6855ZM16.3385 17.2042V17.8572H15.6855V17.2042H16.3385ZM16.9916 17.2042V17.8572H16.3385V17.2042H16.9916ZM13.7263 17.2042V17.8572H13.0732V17.2042H13.7263ZM13.7263 17.8572V18.5103H13.0732V17.8572H13.7263ZM13.7263 18.5103V19.1633H13.0732V18.5103H13.7263ZM13.7263 19.1633V19.8164H13.0732V19.1633H13.7263ZM13.7263 19.8164V20.4694H13.0732V19.8164H13.7263ZM13.7263 20.4694V21.1225H13.0732V20.4694H13.7263ZM13.7263 21.1225V21.7756H13.0732V21.1225H13.7263ZM13.7263 21.7756V22.4286H13.0732V21.7756H13.7263ZM13.7263 22.4286V23.0817H13.0732V22.4286H13.7263ZM13.7263 23.0817V23.7347H13.0732V23.0817H13.7263ZM14.3794 23.0817V23.7347H13.7263V23.0817H14.3794ZM14.3794 23.7347V24.3878H13.7263V23.7347H14.3794ZM13.7263 23.7347V24.3878H13.0732V23.7347H13.7263ZM15.0324 23.7347V24.3878H14.3794V23.7347H15.0324ZM15.6855 23.7347V24.3878H15.0324V23.7347H15.6855ZM16.3385 23.7347V24.3878H15.6855V23.7347H16.3385ZM16.9916 23.7347V24.3878H16.3385V23.7347H16.9916ZM16.3385 23.0817V23.7347H15.6855V23.0817H16.3385ZM16.3385 22.4286V23.0817H15.6855V22.4286H16.3385ZM16.3385 21.7756V22.4286H15.6855V21.7756H16.3385ZM16.3385 21.1225V21.7756H15.6855V21.1225H16.3385ZM16.3385 20.4694V21.1225H15.6855V20.4694H16.3385ZM16.3385 19.8164V20.4694H15.6855V19.8164H16.3385ZM16.3385 19.1633V19.8164H15.6855V19.1633H16.3385ZM16.3385 18.5103V19.1633H15.6855V18.5103H16.3385ZM16.3385 17.8572V18.5103H15.6855V17.8572H16.3385ZM15.6855 17.8572V18.5103H15.0324V17.8572H15.6855ZM15.0324 17.8572V18.5103H14.3794V17.8572H15.0324ZM14.3794 17.8572V18.5103H13.7263V17.8572H14.3794ZM14.3794 18.5103V19.1633H13.7263V18.5103H14.3794ZM14.3794 19.1633V19.8164H13.7263V19.1633H14.3794ZM14.3794 19.8164V20.4694H13.7263V19.8164H14.3794ZM14.3794 20.4694V21.1225H13.7263V20.4694H14.3794ZM14.3794 21.1225V21.7756H13.7263V21.1225H14.3794ZM14.3794 21.7756V22.4286H13.7263V21.7756H14.3794ZM14.3794 22.4286V23.0817H13.7263V22.4286H14.3794ZM15.0324 23.0817V23.7347H14.3794V23.0817H15.0324ZM15.6855 23.0817V23.7347H15.0324V23.0817H15.6855ZM15.6855 22.4286V23.0817H15.0324V22.4286H15.6855ZM15.6855 21.7756V22.4286H15.0324V21.7756H15.6855ZM15.6855 21.1225V21.7756H15.0324V21.1225H15.6855ZM15.6855 20.4694V21.1225H15.0324V20.4694H15.6855ZM15.0324 20.4694V21.1225H14.3794V20.4694H15.0324ZM15.0324 19.8164V20.4694H14.3794V19.8164H15.0324ZM15.0324 19.1633V19.8164H14.3794V19.1633H15.0324ZM15.0324 18.5103V19.1633H14.3794V18.5103H15.0324ZM15.6855 18.5103V19.1633H15.0324V18.5103H15.6855ZM15.6855 19.1633V19.8164H15.0324V19.1633H15.6855ZM15.6855 19.8164V20.4694H15.0324V19.8164H15.6855ZM15.0324 21.7756V22.4286H14.3794V21.7756H15.0324ZM15.0324 22.4286V23.0817H14.3794V22.4286H15.0324ZM15.0324 21.1225V21.7756H14.3794V21.1225H15.0324ZM20.9099 23.0817V23.7347H20.2569V23.0817H20.9099ZM21.563 23.0817V23.7347H20.9099V23.0817H21.563ZM22.216 23.0817V23.7347H21.563V23.0817H22.216ZM22.8691 23.0817V23.7347H22.216V23.0817H22.8691ZM23.5221 23.0817V23.7347H22.8691V23.0817H23.5221ZM23.5221 23.7347V24.3878H22.8691V23.7347H23.5221ZM22.8691 23.7347V24.3878H22.216V23.7347H22.8691ZM22.216 23.7347V24.3878H21.563V23.7347H22.216ZM21.563 23.7347V24.3878H20.9099V23.7347H21.563ZM20.9099 23.7347V24.3878H20.2569V23.7347H20.9099ZM20.2569 23.7347V24.3878H19.6038V23.7347H20.2569ZM20.2569 24.3878V25.0408H19.6038V24.3878H20.2569ZM20.9099 24.3878V25.0408H20.2569V24.3878H20.9099ZM21.563 24.3878V25.0408H20.9099V24.3878H21.563ZM22.216 24.3878V25.0408H21.563V24.3878H22.216ZM22.216 25.0408V25.6939H21.563V25.0408H22.216ZM22.8691 25.0408V25.6939H22.216V25.0408H22.8691ZM22.8691 24.3878V25.0408H22.216V24.3878H22.8691ZM22.216 25.6939V26.3469H21.563V25.6939H22.216ZM21.563 25.6939V26.3469H20.9099V25.6939H21.563ZM21.563 25.0408V25.6939H20.9099V25.0408H21.563ZM20.9099 25.0408V25.6939H20.2569V25.0408H20.9099ZM20.9099 25.6939V26.3469H20.2569V25.6939H20.9099ZM20.9099 26.3469V27H20.2569V26.3469H20.9099ZM20.2569 26.3469V27H19.6038V26.3469H20.2569ZM19.6038 26.3469V27H18.9507V26.3469H19.6038ZM18.9507 26.3469V27H18.2977V26.3469H18.9507ZM18.2977 26.3469V27H17.6446V26.3469H18.2977ZM17.6446 26.3469V27H16.9916V26.3469H17.6446ZM16.9916 26.3469V27H16.3385V26.3469H16.9916ZM16.3385 26.3469V27H15.6855V26.3469H16.3385ZM16.9916 25.6939V26.3469H16.3385V25.6939H16.9916ZM17.6446 25.6939V26.3469H16.9916V25.6939H17.6446ZM18.2977 25.6939V26.3469H17.6446V25.6939H18.2977ZM18.9507 25.6939V26.3469H18.2977V25.6939H18.9507ZM19.6038 25.6939V26.3469H18.9507V25.6939H19.6038ZM20.2569 25.6939V26.3469H19.6038V25.6939H20.2569ZM20.2569 25.0408V25.6939H19.6038V25.0408H20.2569ZM19.6038 25.0408V25.6939H18.9507V25.0408H19.6038ZM18.9507 25.0408V25.6939H18.2977V25.0408H18.9507ZM18.2977 25.0408V25.6939H17.6446V25.0408H18.2977ZM17.6446 25.0408V25.6939H16.9916V25.0408H17.6446ZM16.9916 25.0408V25.6939H16.3385V25.0408H16.9916ZM16.3385 25.6939V26.3469H15.6855V25.6939H16.3385ZM15.6855 25.6939V26.3469H15.0324V25.6939H15.6855ZM15.0324 25.6939V26.3469H14.3794V25.6939H15.0324ZM15.0324 25.0408V25.6939H14.3794V25.0408H15.0324ZM14.3794 25.0408V25.6939H13.7263V25.0408H14.3794ZM14.3794 24.3878V25.0408H13.7263V24.3878H14.3794ZM15.0324 24.3878V25.0408H14.3794V24.3878H15.0324ZM15.6855 24.3878V25.0408H15.0324V24.3878H15.6855ZM16.3385 24.3878V25.0408H15.6855V24.3878H16.3385ZM16.9916 24.3878V25.0408H16.3385V24.3878H16.9916ZM17.6446 24.3878V25.0408H16.9916V24.3878H17.6446ZM18.2977 24.3878V25.0408H17.6446V24.3878H18.2977ZM18.9507 24.3878V25.0408H18.2977V24.3878H18.9507ZM19.6038 24.3878V25.0408H18.9507V24.3878H19.6038ZM16.3385 25.0408V25.6939H15.6855V25.0408H16.3385ZM15.6855 25.0408V25.6939H15.0324V25.0408H15.6855ZM23.5221 19.1633V19.8164H22.8691V19.1633H23.5221ZM22.8691 19.1633V19.8164H22.216V19.1633H22.8691ZM22.216 19.1633V19.8164H21.563V19.1633H22.216ZM21.563 19.1633V19.8164H20.9099V19.1633H21.563ZM20.9099 19.1633V19.8164H20.2569V19.1633H20.9099ZM23.5221 19.8164V20.4694H22.8691V19.8164H23.5221ZM22.216 19.8164V20.4694H21.563V19.8164H22.216ZM21.563 19.8164V20.4694H20.9099V19.8164H21.563ZM20.2569 19.8164V20.4694H19.6038V19.8164H20.2569ZM19.6038 19.8164V20.4694H18.9507V19.8164H19.6038ZM18.9507 19.8164V20.4694H18.2977V19.8164H18.9507ZM18.2977 19.8164V20.4694H17.6446V19.8164H18.2977ZM17.6446 19.8164V20.4694H16.9916V19.8164H17.6446ZM16.9916 19.8164V20.4694H16.3385V19.8164H16.9916ZM20.9099 19.8164V20.4694H20.2569V19.8164H20.9099ZM22.8691 19.8164V20.4694H22.216V19.8164H22.8691ZM23.5221 20.4694V21.1225H22.8691V20.4694H23.5221ZM22.8691 20.4694V21.1225H22.216V20.4694H22.8691ZM22.216 20.4694V21.1225H21.563V20.4694H22.216ZM21.563 20.4694V21.1225H20.9099V20.4694H21.563ZM20.9099 20.4694V21.1225H20.2569V20.4694H20.9099ZM20.2569 20.4694V21.1225H19.6038V20.4694H20.2569ZM19.6038 20.4694V21.1225H18.9507V20.4694H19.6038ZM18.9507 20.4694V21.1225H18.2977V20.4694H18.9507ZM18.2977 20.4694V21.1225H17.6446V20.4694H18.2977ZM17.6446 20.4694V21.1225H16.9916V20.4694H17.6446ZM16.9916 20.4694V21.1225H16.3385V20.4694H16.9916ZM16.9916 21.1225V21.7756H16.3385V21.1225H16.9916ZM17.6446 21.1225V21.7756H16.9916V21.1225H17.6446ZM18.2977 21.1225V21.7756H17.6446V21.1225H18.2977ZM19.6038 21.1225V21.7756H18.9507V21.1225H19.6038ZM20.2569 21.1225V21.7756H19.6038V21.1225H20.2569ZM20.9099 21.1225V21.7756H20.2569V21.1225H20.9099ZM21.563 21.1225V21.7756H20.9099V21.1225H21.563ZM22.216 21.1225V21.7756H21.563V21.1225H22.216ZM22.8691 21.1225V21.7756H22.216V21.1225H22.8691ZM23.5221 21.1225V21.7756H22.8691V21.1225H23.5221ZM18.9507 21.1225V21.7756H18.2977V21.1225H18.9507ZM34.6356 17.2042V17.8572H33.9825V17.2042H34.6356ZM33.9825 17.2042V17.8572H33.3295V17.2042H33.9825ZM33.3295 17.2042V17.8572H32.6764V17.2042H33.3295ZM32.6764 17.2042V17.8572H32.0233V17.2042H32.6764ZM32.0233 16.5511V17.2042H31.3703V16.5511H32.0233ZM32.6764 16.5511V17.2042H32.0233V16.5511H32.6764ZM33.3295 16.5511V17.2042H32.6764V16.5511H33.3295ZM33.9825 16.5511V17.2042H33.3295V16.5511H33.9825ZM34.6356 16.5511V17.2042H33.9825V16.5511H34.6356ZM34.6356 15.898V16.5511H33.9825V15.898H34.6356ZM33.9825 15.898V16.5511H33.3295V15.898H33.9825ZM33.3295 15.898V16.5511H32.6764V15.898H33.3295ZM32.6764 15.898V16.5511H32.0233V15.898H32.6764ZM32.0233 15.898V16.5511H31.3703V15.898H32.0233ZM33.3295 15.245V15.898H32.6764V15.245H33.3295ZM33.9825 15.245V15.898H33.3295V15.245H33.9825ZM32.6764 15.245V15.898H32.0233V15.245H32.6764ZM32.6764 14.5919V15.245H32.0233V14.5919H32.6764ZM32.0233 14.5919V15.245H31.3703V14.5919H32.0233ZM32.0233 15.245V15.898H31.3703V15.245H32.0233ZM31.3703 15.245V15.898H30.7172V15.245H31.3703ZM31.3703 14.5919V15.245H30.7172V14.5919H31.3703ZM31.3703 15.898V16.5511H30.7172V15.898H31.3703ZM30.7172 15.898V16.5511H30.0642V15.898H30.7172ZM30.7172 16.5511V17.2042H30.0642V16.5511H30.7172ZM31.3703 16.5511V17.2042H30.7172V16.5511H31.3703ZM30.0642 16.5511V17.2042H29.4111V16.5511H30.0642ZM30.0642 15.898V16.5511H29.4111V15.898H30.0642ZM30.0642 15.245V15.898H29.4111V15.245H30.0642ZM30.0642 14.5919V15.245H29.4111V14.5919H30.0642ZM30.7172 14.5919V15.245H30.0642V14.5919H30.7172ZM30.7172 15.245V15.898H30.0642V15.245H30.7172ZM29.4111 14.5919V15.245H28.7581V14.5919H29.4111ZM28.7581 14.5919V15.245H28.105V14.5919H28.7581ZM28.105 14.5919V15.245H27.452V14.5919H28.105ZM28.105 15.245V15.898H27.452V15.245H28.105ZM28.105 15.898V16.5511H27.452V15.898H28.105ZM28.105 16.5511V17.2042H27.452V16.5511H28.105ZM28.7581 16.5511V17.2042H28.105V16.5511H28.7581ZM29.4111 16.5511V17.2042H28.7581V16.5511H29.4111ZM29.4111 15.898V16.5511H28.7581V15.898H29.4111ZM29.4111 15.245V15.898H28.7581V15.245H29.4111ZM28.7581 15.245V15.898H28.105V15.245H28.7581ZM28.7581 15.898V16.5511H28.105V15.898H28.7581ZM27.452 15.898V16.5511H26.7989V15.898H27.452ZM27.452 15.245V15.898H26.7989V15.245H27.452ZM26.7989 15.245V15.898H26.1458V15.245H26.7989ZM26.7989 15.898V16.5511H26.1458V15.898H26.7989ZM26.1458 15.898V16.5511H25.4928V15.898H26.1458ZM26.1458 16.5511V17.2042H25.4928V16.5511H26.1458ZM26.1458 17.2042V17.8572H25.4928V17.2042H26.1458ZM26.7989 17.2042V17.8572H26.1458V17.2042H26.7989ZM26.7989 16.5511V17.2042H26.1458V16.5511H26.7989ZM27.452 16.5511V17.2042H26.7989V16.5511H27.452ZM27.452 17.2042V17.8572H26.7989V17.2042H27.452ZM28.105 17.2042V17.8572H27.452V17.2042H28.105ZM28.7581 17.2042V17.8572H28.105V17.2042H28.7581ZM25.4928 17.2042V17.8572H24.8397V17.2042H25.4928ZM25.4928 17.8572V18.5103H24.8397V17.8572H25.4928ZM25.4928 18.5103V19.1633H24.8397V18.5103H25.4928ZM25.4928 23.0817V23.7347H24.8397V23.0817H25.4928ZM26.1458 23.0817V23.7347H25.4928V23.0817H26.1458ZM26.1458 23.7347V24.3878H25.4928V23.7347H26.1458ZM25.4928 23.7347V24.3878H24.8397V23.7347H25.4928ZM26.7989 23.7347V24.3878H26.1458V23.7347H26.7989ZM27.452 23.7347V24.3878H26.7989V23.7347H27.452ZM28.105 23.7347V24.3878H27.452V23.7347H28.105ZM28.7581 23.7347V24.3878H28.105V23.7347H28.7581ZM28.105 23.0817V23.7347H27.452V23.0817H28.105ZM28.105 18.5103V19.1633H27.452V18.5103H28.105ZM28.105 17.8572V18.5103H27.452V17.8572H28.105ZM27.452 17.8572V18.5103H26.7989V17.8572H27.452ZM26.7989 17.8572V18.5103H26.1458V17.8572H26.7989ZM26.1458 17.8572V18.5103H25.4928V17.8572H26.1458ZM26.1458 18.5103V19.1633H25.4928V18.5103H26.1458ZM26.7989 23.0817V23.7347H26.1458V23.0817H26.7989ZM27.452 23.0817V23.7347H26.7989V23.0817H27.452ZM26.7989 18.5103V19.1633H26.1458V18.5103H26.7989ZM27.452 18.5103V19.1633H26.7989V18.5103H27.452ZM32.6764 22.4286V23.0817H32.0233V22.4286H32.6764ZM32.6764 23.0817V23.7347H32.0233V23.0817H32.6764ZM33.3295 23.0817V23.7347H32.6764V23.0817H33.3295ZM33.9825 23.0817V23.7347H33.3295V23.0817H33.9825ZM34.6356 23.0817V23.7347H33.9825V23.0817H34.6356ZM35.2886 23.0817V23.7347H34.6356V23.0817H35.2886ZM35.2886 22.4286V23.0817H34.6356V22.4286H35.2886ZM34.6356 22.4286V23.0817H33.9825V22.4286H34.6356ZM33.9825 22.4286V23.0817H33.3295V22.4286H33.9825ZM33.3295 22.4286V23.0817H32.6764V22.4286H33.3295ZM35.2886 23.7347V24.3878H34.6356V23.7347H35.2886ZM34.6356 23.7347V24.3878H33.9825V23.7347H34.6356ZM33.9825 23.7347V24.3878H33.3295V23.7347H33.9825ZM33.3295 23.7347V24.3878H32.6764V23.7347H33.3295ZM32.6764 23.7347V24.3878H32.0233V23.7347H32.6764ZM32.0233 23.7347V24.3878H31.3703V23.7347H32.0233ZM32.0233 24.3878V25.0408H31.3703V24.3878H32.0233ZM32.6764 24.3878V25.0408H32.0233V24.3878H32.6764ZM33.3295 24.3878V25.0408H32.6764V24.3878H33.3295ZM33.9825 24.3878V25.0408H33.3295V24.3878H33.9825ZM33.9825 25.0408V25.6939H33.3295V25.0408H33.9825ZM34.6356 25.0408V25.6939H33.9825V25.0408H34.6356ZM34.6356 24.3878V25.0408H33.9825V24.3878H34.6356ZM33.9825 25.6939V26.3469H33.3295V25.6939H33.9825ZM33.3295 25.6939V26.3469H32.6764V25.6939H33.3295ZM33.3295 25.0408V25.6939H32.6764V25.0408H33.3295ZM32.6764 25.0408V25.6939H32.0233V25.0408H32.6764ZM32.6764 25.6939V26.3469H32.0233V25.6939H32.6764ZM32.6764 26.3469V27H32.0233V26.3469H32.6764ZM32.0233 26.3469V27H31.3703V26.3469H32.0233ZM31.3703 26.3469V27H30.7172V26.3469H31.3703ZM30.7172 26.3469V27H30.0642V26.3469H30.7172ZM30.0642 26.3469V27H29.4111V26.3469H30.0642ZM29.4111 26.3469V27H28.7581V26.3469H29.4111ZM28.7581 26.3469V27H28.105V26.3469H28.7581ZM28.105 26.3469V27H27.452V26.3469H28.105ZM28.7581 25.6939V26.3469H28.105V25.6939H28.7581ZM29.4111 25.6939V26.3469H28.7581V25.6939H29.4111ZM30.0642 25.6939V26.3469H29.4111V25.6939H30.0642ZM30.7172 25.6939V26.3469H30.0642V25.6939H30.7172ZM31.3703 25.6939V26.3469H30.7172V25.6939H31.3703ZM32.0233 25.6939V26.3469H31.3703V25.6939H32.0233ZM32.0233 25.0408V25.6939H31.3703V25.0408H32.0233ZM31.3703 25.0408V25.6939H30.7172V25.0408H31.3703ZM30.7172 25.0408V25.6939H30.0642V25.0408H30.7172ZM30.0642 25.0408V25.6939H29.4111V25.0408H30.0642ZM29.4111 25.0408V25.6939H28.7581V25.0408H29.4111ZM28.7581 25.0408V25.6939H28.105V25.0408H28.7581ZM28.105 25.6939V26.3469H27.452V25.6939H28.105ZM27.452 25.6939V26.3469H26.7989V25.6939H27.452ZM26.7989 25.6939V26.3469H26.1458V25.6939H26.7989ZM26.7989 25.0408V25.6939H26.1458V25.0408H26.7989ZM26.1458 25.0408V25.6939H25.4928V25.0408H26.1458ZM26.1458 24.3878V25.0408H25.4928V24.3878H26.1458ZM26.7989 24.3878V25.0408H26.1458V24.3878H26.7989ZM27.452 24.3878V25.0408H26.7989V24.3878H27.452ZM28.105 24.3878V25.0408H27.452V24.3878H28.105ZM28.7581 24.3878V25.0408H28.105V24.3878H28.7581ZM29.4111 24.3878V25.0408H28.7581V24.3878H29.4111ZM30.0642 24.3878V25.0408H29.4111V24.3878H30.0642ZM30.7172 24.3878V25.0408H30.0642V24.3878H30.7172ZM31.3703 24.3878V25.0408H30.7172V24.3878H31.3703ZM28.105 25.0408V25.6939H27.452V25.0408H28.105ZM27.452 25.0408V25.6939H26.7989V25.0408H27.452ZM33.9825 21.1225V21.7756H33.3295V21.1225H33.9825ZM35.2886 21.7756V22.4286H34.6356V21.7756H35.2886ZM34.6356 21.7756V22.4286H33.9825V21.7756H34.6356ZM33.9825 21.7756V22.4286H33.3295V21.7756H33.9825ZM33.3295 21.7756V22.4286H32.6764V21.7756H33.3295ZM33.3295 21.1225V21.7756H32.6764V21.1225H33.3295ZM32.6764 21.1225V21.7756H32.0233V21.1225H32.6764ZM32.6764 21.7756V22.4286H32.0233V21.7756H32.6764ZM28.7581 18.5103V19.1633H28.105V18.5103H28.7581ZM26.1458 19.1633V19.8164H25.4928V19.1633H26.1458ZM26.1458 19.8164V20.4694H25.4928V19.8164H26.1458ZM26.7989 19.8164V20.4694H26.1458V19.8164H26.7989ZM26.7989 20.4694V21.1225H26.1458V20.4694H26.7989ZM27.452 20.4694V21.1225H26.7989V20.4694H27.452ZM28.105 21.1225V21.7756H27.452V21.1225H28.105ZM28.105 20.4694V21.1225H27.452V20.4694H28.105ZM28.105 19.8164V20.4694H27.452V19.8164H28.105ZM28.105 19.1633V19.8164H27.452V19.1633H28.105ZM27.452 19.1633V19.8164H26.7989V19.1633H27.452ZM27.452 19.8164V20.4694H26.7989V19.8164H27.452ZM26.7989 19.1633V19.8164H26.1458V19.1633H26.7989ZM28.7581 21.1225V21.7756H28.105V21.1225H28.7581ZM29.4111 21.1225V21.7756H28.7581V21.1225H29.4111ZM30.0642 21.1225V21.7756H29.4111V21.1225H30.0642ZM30.7172 21.1225V21.7756H30.0642V21.1225H30.7172ZM30.7172 20.4694V21.1225H30.0642V20.4694H30.7172ZM30.0642 20.4694V21.1225H29.4111V20.4694H30.0642ZM29.4111 20.4694V21.1225H28.7581V20.4694H29.4111ZM28.7581 20.4694V21.1225H28.105V20.4694H28.7581ZM28.7581 19.8164V20.4694H28.105V19.8164H28.7581ZM28.7581 19.1633V19.8164H28.105V19.1633H28.7581ZM29.4111 19.1633V19.8164H28.7581V19.1633H29.4111ZM30.0642 19.1633V19.8164H29.4111V19.1633H30.0642ZM30.7172 19.1633V19.8164H30.0642V19.1633H30.7172ZM30.7172 19.8164V20.4694H30.0642V19.8164H30.7172ZM30.0642 19.8164V20.4694H29.4111V19.8164H30.0642ZM29.4111 19.8164V20.4694H28.7581V19.8164H29.4111ZM31.3703 19.1633V19.8164H30.7172V19.1633H31.3703ZM32.0233 19.1633V19.8164H31.3703V19.1633H32.0233ZM32.0233 19.8164V20.4694H31.3703V19.8164H32.0233ZM32.0233 20.4694V21.1225H31.3703V20.4694H32.0233ZM32.0233 21.1225V21.7756H31.3703V21.1225H32.0233ZM31.3703 21.1225V21.7756H30.7172V21.1225H31.3703ZM31.3703 20.4694V21.1225H30.7172V20.4694H31.3703ZM31.3703 19.8164V20.4694H30.7172V19.8164H31.3703ZM32.0233 21.7756V22.4286H31.3703V21.7756H32.0233ZM32.6764 19.1633V19.8164H32.0233V19.1633H32.6764ZM34.6356 21.1225V21.7756H33.9825V21.1225H34.6356ZM34.6356 20.4694V21.1225H33.9825V20.4694H34.6356ZM33.9825 19.8164V20.4694H33.3295V19.8164H33.9825ZM33.3295 19.8164V20.4694H32.6764V19.8164H33.3295ZM32.6764 19.8164V20.4694H32.0233V19.8164H32.6764ZM32.6764 20.4694V21.1225H32.0233V20.4694H32.6764ZM33.3295 20.4694V21.1225H32.6764V20.4694H33.3295ZM33.9825 20.4694V21.1225H33.3295V20.4694H33.9825ZM32.0233 17.2042V17.8572H31.3703V17.2042H32.0233ZM40.5246 11.9797V12.6328H39.8715V11.9797H40.5246ZM40.5246 12.6328V13.2858H39.8715V12.6328H40.5246ZM40.5246 13.2858V13.9389H39.8715V13.2858H40.5246ZM40.5246 13.9389V14.5919H39.8715V13.9389H40.5246ZM40.5246 14.5919V15.245H39.8715V14.5919H40.5246ZM40.5246 15.245V15.898H39.8715V15.245H40.5246ZM40.5246 15.898V16.5511H39.8715V15.898H40.5246ZM40.5246 16.5511V17.2042H39.8715V16.5511H40.5246ZM41.1776 16.5511V17.2042H40.5246V16.5511H41.1776ZM41.8307 16.5511V17.2042H41.1776V16.5511H41.8307ZM42.4837 16.5511V17.2042H41.8307V16.5511H42.4837ZM43.1368 16.5511V17.2042H42.4837V16.5511H43.1368ZM40.5246 17.8572V18.5103H39.8715V17.8572H40.5246ZM39.8715 17.8572V18.5103H39.2184V17.8572H39.8715ZM39.8715 17.2042V17.8572H39.2184V17.2042H39.8715ZM40.5246 17.2042V17.8572H39.8715V17.2042H40.5246ZM40.5246 18.5103V19.1633H39.8715V18.5103H40.5246ZM39.8715 18.5103V19.1633H39.2184V18.5103H39.8715ZM39.2184 18.5103V19.1633H38.5654V18.5103H39.2184ZM38.5654 18.5103V19.1633H37.9123V18.5103H38.5654ZM37.9123 18.5103V19.1633H37.2593V18.5103H37.9123ZM36.6062 16.5511V17.2042H35.9532V16.5511H36.6062ZM37.2593 16.5511V17.2042H36.6062V16.5511H37.2593ZM37.9123 16.5511V17.2042H37.2593V16.5511H37.9123ZM38.5654 16.5511V17.2042H37.9123V16.5511H38.5654ZM39.2184 16.5511V17.2042H38.5654V16.5511H39.2184ZM39.8715 16.5511V17.2042H39.2184V16.5511H39.8715ZM39.2184 17.8572V18.5103H38.5654V17.8572H39.2184ZM39.2184 17.2042V17.8572H38.5654V17.2042H39.2184ZM38.5654 17.2042V17.8572H37.9123V17.2042H38.5654ZM37.9123 17.2042V17.8572H37.2593V17.2042H37.9123ZM37.9123 17.8572V18.5103H37.2593V17.8572H37.9123ZM38.5654 17.8572V18.5103H37.9123V17.8572H38.5654ZM39.8715 12.6328V13.2858H39.2184V12.6328H39.8715ZM39.8715 13.2858V13.9389H39.2184V13.2858H39.8715ZM39.2184 13.2858V13.9389H38.5654V13.2858H39.2184ZM39.2184 13.9389V14.5919H38.5654V13.9389H39.2184ZM39.2184 14.5919V15.245H38.5654V14.5919H39.2184ZM38.5654 13.9389V14.5919H37.9123V13.9389H38.5654ZM38.5654 14.5919V15.245H37.9123V14.5919H38.5654ZM37.9123 14.5919V15.245H37.2593V14.5919H37.9123ZM37.9123 15.245V15.898H37.2593V15.245H37.9123ZM37.9123 15.898V16.5511H37.2593V15.898H37.9123ZM39.2184 15.898V16.5511H38.5654V15.898H39.2184ZM39.8715 15.898V16.5511H39.2184V15.898H39.8715ZM39.8715 15.245V15.898H39.2184V15.245H39.8715ZM39.8715 14.5919V15.245H39.2184V14.5919H39.8715ZM39.8715 13.9389V14.5919H39.2184V13.9389H39.8715ZM39.2184 15.245V15.898H38.5654V15.245H39.2184ZM38.5654 15.898V16.5511H37.9123V15.898H38.5654ZM38.5654 15.245V15.898H37.9123V15.245H38.5654ZM43.1368 24.3878V25.0408H42.4837V24.3878H43.1368ZM43.1368 25.0408V25.6939H42.4837V25.0408H43.1368ZM43.1368 26.3469V27H42.4837V26.3469H43.1368ZM42.4837 26.3469V27H41.8307V26.3469H42.4837ZM41.8307 26.3469V27H41.1776V26.3469H41.8307ZM41.1776 26.3469V27H40.5246V26.3469H41.1776ZM40.5246 26.3469V27H39.8715V26.3469H40.5246ZM40.5246 25.6939V26.3469H39.8715V25.6939H40.5246ZM39.8715 25.6939V26.3469H39.2184V25.6939H39.8715ZM39.2184 25.6939V26.3469H38.5654V25.6939H39.2184ZM39.2184 25.0408V25.6939H38.5654V25.0408H39.2184ZM38.5654 25.0408V25.6939H37.9123V25.0408H38.5654ZM38.5654 24.3878V25.0408H37.9123V24.3878H38.5654ZM38.5654 23.7347V24.3878H37.9123V23.7347H38.5654ZM37.9123 23.7347V24.3878H37.2593V23.7347H37.9123ZM37.9123 23.0817V23.7347H37.2593V23.0817H37.9123ZM37.9123 22.4286V23.0817H37.2593V22.4286H37.9123ZM37.9123 21.7756V22.4286H37.2593V21.7756H37.9123ZM37.9123 21.1225V21.7756H37.2593V21.1225H37.9123ZM37.9123 20.4694V21.1225H37.2593V20.4694H37.9123ZM37.9123 19.8164V20.4694H37.2593V19.8164H37.9123ZM37.9123 19.1633V19.8164H37.2593V19.1633H37.9123ZM38.5654 19.1633V19.8164H37.9123V19.1633H38.5654ZM39.2184 19.1633V19.8164H38.5654V19.1633H39.2184ZM39.8715 19.1633V19.8164H39.2184V19.1633H39.8715ZM40.5246 19.1633V19.8164H39.8715V19.1633H40.5246ZM40.5246 19.8164V20.4694H39.8715V19.8164H40.5246ZM40.5246 20.4694V21.1225H39.8715V20.4694H40.5246ZM40.5246 21.1225V21.7756H39.8715V21.1225H40.5246ZM40.5246 21.7756V22.4286H39.8715V21.7756H40.5246ZM40.5246 22.4286V23.0817H39.8715V22.4286H40.5246ZM40.5246 23.0817V23.7347H39.8715V23.0817H40.5246ZM40.5246 23.7347V24.3878H39.8715V23.7347H40.5246ZM41.1776 23.7347V24.3878H40.5246V23.7347H41.1776ZM41.1776 24.3878V25.0408H40.5246V24.3878H41.1776ZM41.8307 24.3878V25.0408H41.1776V24.3878H41.8307ZM41.8307 25.0408V25.6939H41.1776V25.0408H41.8307ZM42.4837 25.0408V25.6939H41.8307V25.0408H42.4837ZM42.4837 24.3878V25.0408H41.8307V24.3878H42.4837ZM43.1368 25.6939V26.3469H42.4837V25.6939H43.1368ZM42.4837 25.6939V26.3469H41.8307V25.6939H42.4837ZM41.8307 25.6939V26.3469H41.1776V25.6939H41.8307ZM41.1776 25.6939V26.3469H40.5246V25.6939H41.1776ZM41.1776 25.0408V25.6939H40.5246V25.0408H41.1776ZM40.5246 25.0408V25.6939H39.8715V25.0408H40.5246ZM40.5246 24.3878V25.0408H39.8715V24.3878H40.5246ZM39.8715 24.3878V25.0408H39.2184V24.3878H39.8715ZM39.8715 25.0408V25.6939H39.2184V25.0408H39.8715ZM39.2184 24.3878V25.0408H38.5654V24.3878H39.2184ZM39.8715 23.7347V24.3878H39.2184V23.7347H39.8715ZM39.8715 23.0817V23.7347H39.2184V23.0817H39.8715ZM39.2184 23.7347V24.3878H38.5654V23.7347H39.2184ZM39.2184 23.0817V23.7347H38.5654V23.0817H39.2184ZM39.8715 22.4286V23.0817H39.2184V22.4286H39.8715ZM39.8715 21.7756V22.4286H39.2184V21.7756H39.8715ZM39.8715 21.1225V21.7756H39.2184V21.1225H39.8715ZM39.8715 20.4694V21.1225H39.2184V20.4694H39.8715ZM39.8715 19.8164V20.4694H39.2184V19.8164H39.8715ZM39.2184 19.8164V20.4694H38.5654V19.8164H39.2184ZM38.5654 19.8164V20.4694H37.9123V19.8164H38.5654ZM38.5654 20.4694V21.1225H37.9123V20.4694H38.5654ZM38.5654 21.1225V21.7756H37.9123V21.1225H38.5654ZM38.5654 21.7756V22.4286H37.9123V21.7756H38.5654ZM38.5654 22.4286V23.0817H37.9123V22.4286H38.5654ZM38.5654 23.0817V23.7347H37.9123V23.0817H38.5654ZM39.2184 22.4286V23.0817H38.5654V22.4286H39.2184ZM39.2184 21.7756V22.4286H38.5654V21.7756H39.2184ZM39.2184 21.1225V21.7756H38.5654V21.1225H39.2184ZM39.2184 20.4694V21.1225H38.5654V20.4694H39.2184ZM43.1368 15.245V15.898H42.4837V15.245H43.1368ZM42.4837 15.245V15.898H41.8307V15.245H42.4837ZM42.4837 15.898V16.5511H41.8307V15.898H42.4837ZM43.1368 15.898V16.5511H42.4837V15.898H43.1368ZM41.8307 15.898V16.5511H41.1776V15.898H41.8307ZM41.1776 15.898V16.5511H40.5246V15.898H41.1776ZM41.1776 15.245V15.898H40.5246V15.245H41.1776ZM41.8307 15.245V15.898H41.1776V15.245H41.8307ZM37.9123 13.9389V14.5919H37.2593V13.9389H37.9123ZM38.5654 13.2858V13.9389H37.9123V13.2858H38.5654ZM39.2184 12.6328V13.2858H38.5654V12.6328H39.2184ZM39.8715 11.9797V12.6328H39.2184V11.9797H39.8715ZM37.2593 15.245V15.898H36.6062V15.245H37.2593ZM37.2593 15.898V16.5511H36.6062V15.898H37.2593ZM36.6062 15.898V16.5511H35.9532V15.898H36.6062ZM36.6062 15.245V15.898H35.9532V15.245H36.6062ZM40.5246 11.3267V11.9797H39.8715V11.3267H40.5246ZM36.6062 17.2042V17.8572H35.9532V17.2042H36.6062ZM37.2593 17.2042V17.8572H36.6062V17.2042H37.2593ZM41.1776 17.2042V17.8572H40.5246V17.2042H41.1776ZM41.8307 17.2042V17.8572H41.1776V17.2042H41.8307ZM42.4837 17.2042V17.8572H41.8307V17.2042H42.4837ZM43.1368 17.2042V17.8572H42.4837V17.2042H43.1368ZM45.7567 10.6736V11.3267H45.1036V10.6736H45.7567ZM45.7567 11.3267V11.9797H45.1036V11.3267H45.7567ZM45.7567 11.9797V12.6328H45.1036V11.9797H45.7567ZM47.7158 10.6736V11.3267H47.0628V10.6736H47.7158ZM47.7158 11.3267V11.9797H47.0628V11.3267H47.7158ZM47.7158 11.9797V12.6328H47.0628V11.9797H47.7158ZM48.3689 11.9797V12.6328H47.7158V11.9797H48.3689ZM48.3689 11.3267V11.9797H47.7158V11.3267H48.3689ZM48.3689 10.6736V11.3267H47.7158V10.6736H48.3689ZM47.0628 10.6736V11.3267H46.4097V10.6736H47.0628ZM46.4097 10.6736V11.3267H45.7567V10.6736H46.4097ZM46.4097 11.3267V11.9797H45.7567V11.3267H46.4097ZM47.0628 11.3267V11.9797H46.4097V11.3267H47.0628ZM47.0628 11.9797V12.6328H46.4097V11.9797H47.0628ZM46.4097 11.9797V12.6328H45.7567V11.9797H46.4097ZM45.7567 12.6328V13.2858H45.1036V12.6328H45.7567ZM46.4097 12.6328V13.2858H45.7567V12.6328H46.4097ZM47.0628 12.6328V13.2858H46.4097V12.6328H47.0628ZM47.7158 12.6328V13.2858H47.0628V12.6328H47.7158ZM48.3689 12.6328V13.2858H47.7158V12.6328H48.3689ZM45.7567 26.3469V27H45.1036V26.3469H45.7567ZM45.7567 25.6939V26.3469H45.1036V25.6939H45.7567ZM45.7567 25.0408V25.6939H45.1036V25.0408H45.7567ZM45.7567 24.3878V25.0408H45.1036V24.3878H45.7567ZM45.7567 23.7347V24.3878H45.1036V23.7347H45.7567ZM45.7567 23.0817V23.7347H45.1036V23.0817H45.7567ZM45.7567 22.4286V23.0817H45.1036V22.4286H45.7567ZM45.7567 21.7756V22.4286H45.1036V21.7756H45.7567ZM45.7567 21.1225V21.7756H45.1036V21.1225H45.7567ZM45.7567 20.4694V21.1225H45.1036V20.4694H45.7567ZM45.7567 19.8164V20.4694H45.1036V19.8164H45.7567ZM45.7567 19.1633V19.8164H45.1036V19.1633H45.7567ZM45.7567 18.5103V19.1633H45.1036V18.5103H45.7567ZM45.7567 17.8572V18.5103H45.1036V17.8572H45.7567ZM45.7567 17.2042V17.8572H45.1036V17.2042H45.7567ZM46.4097 17.2042V17.8572H45.7567V17.2042H46.4097ZM46.4097 17.8572V18.5103H45.7567V17.8572H46.4097ZM46.4097 18.5103V19.1633H45.7567V18.5103H46.4097ZM46.4097 19.1633V19.8164H45.7567V19.1633H46.4097ZM46.4097 19.8164V20.4694H45.7567V19.8164H46.4097ZM46.4097 20.4694V21.1225H45.7567V20.4694H46.4097ZM46.4097 21.1225V21.7756H45.7567V21.1225H46.4097ZM47.0628 21.7756V22.4286H46.4097V21.7756H47.0628ZM47.0628 22.4286V23.0817H46.4097V22.4286H47.0628ZM47.0628 23.0817V23.7347H46.4097V23.0817H47.0628ZM47.0628 23.7347V24.3878H46.4097V23.7347H47.0628ZM47.0628 24.3878V25.0408H46.4097V24.3878H47.0628ZM47.0628 25.0408V25.6939H46.4097V25.0408H47.0628ZM47.0628 25.6939V26.3469H46.4097V25.6939H47.0628ZM47.0628 26.3469V27H46.4097V26.3469H47.0628ZM47.7158 26.3469V27H47.0628V26.3469H47.7158ZM48.3689 26.3469V27H47.7158V26.3469H48.3689ZM48.3689 25.6939V26.3469H47.7158V25.6939H48.3689ZM48.3689 25.0408V25.6939H47.7158V25.0408H48.3689ZM48.3689 24.3878V25.0408H47.7158V24.3878H48.3689ZM48.3689 23.7347V24.3878H47.7158V23.7347H48.3689ZM48.3689 23.0817V23.7347H47.7158V23.0817H48.3689ZM48.3689 22.4286V23.0817H47.7158V22.4286H48.3689ZM48.3689 21.7756V22.4286H47.7158V21.7756H48.3689ZM47.7158 21.7756V22.4286H47.0628V21.7756H47.7158ZM47.7158 21.1225V21.7756H47.0628V21.1225H47.7158ZM47.7158 22.4286V23.0817H47.0628V22.4286H47.7158ZM47.7158 23.0817V23.7347H47.0628V23.0817H47.7158ZM47.7158 23.7347V24.3878H47.0628V23.7347H47.7158ZM47.7158 24.3878V25.0408H47.0628V24.3878H47.7158ZM47.7158 25.0408V25.6939H47.0628V25.0408H47.7158ZM47.7158 25.6939V26.3469H47.0628V25.6939H47.7158ZM46.4097 26.3469V27H45.7567V26.3469H46.4097ZM46.4097 25.6939V26.3469H45.7567V25.6939H46.4097ZM46.4097 25.0408V25.6939H45.7567V25.0408H46.4097ZM46.4097 24.3878V25.0408H45.7567V24.3878H46.4097ZM46.4097 23.7347V24.3878H45.7567V23.7347H46.4097ZM46.4097 23.0817V23.7347H45.7567V23.0817H46.4097ZM46.4097 22.4286V23.0817H45.7567V22.4286H46.4097ZM46.4097 21.7756V22.4286H45.7567V21.7756H46.4097ZM45.7567 15.898V16.5511H45.1036V15.898H45.7567ZM45.7567 16.5511V17.2042H45.1036V16.5511H45.7567ZM47.7158 15.898V16.5511H47.0628V15.898H47.7158ZM47.7158 16.5511V17.2042H47.0628V16.5511H47.7158ZM47.7158 17.2042V17.8572H47.0628V17.2042H47.7158ZM47.7158 17.8572V18.5103H47.0628V17.8572H47.7158ZM47.7158 18.5103V19.1633H47.0628V18.5103H47.7158ZM47.7158 19.1633V19.8164H47.0628V19.1633H47.7158ZM48.3689 19.8164V20.4694H47.7158V19.8164H48.3689ZM48.3689 20.4694V21.1225H47.7158V20.4694H48.3689ZM48.3689 21.1225V21.7756H47.7158V21.1225H48.3689ZM48.3689 19.1633V19.8164H47.7158V19.1633H48.3689ZM48.3689 18.5103V19.1633H47.7158V18.5103H48.3689ZM48.3689 17.8572V18.5103H47.7158V17.8572H48.3689ZM48.3689 17.2042V17.8572H47.7158V17.2042H48.3689ZM48.3689 16.5511V17.2042H47.7158V16.5511H48.3689ZM48.3689 15.898V16.5511H47.7158V15.898H48.3689ZM46.4097 15.898V16.5511H45.7567V15.898H46.4097ZM46.4097 16.5511V17.2042H45.7567V16.5511H46.4097ZM47.0628 15.898V16.5511H46.4097V15.898H47.0628ZM47.0628 16.5511V17.2042H46.4097V16.5511H47.0628ZM47.0628 17.2042V17.8572H46.4097V17.2042H47.0628ZM47.0628 17.8572V18.5103H46.4097V17.8572H47.0628ZM47.0628 18.5103V19.1633H46.4097V18.5103H47.0628ZM47.0628 19.1633V19.8164H46.4097V19.1633H47.0628ZM47.0628 19.8164V20.4694H46.4097V19.8164H47.0628ZM47.0628 20.4694V21.1225H46.4097V20.4694H47.0628ZM47.0628 21.1225V21.7756H46.4097V21.1225H47.0628ZM47.7158 20.4694V21.1225H47.0628V20.4694H47.7158ZM47.7158 19.8164V20.4694H47.0628V19.8164H47.7158ZM47.7158 15.245V15.898H47.0628V15.245H47.7158ZM48.3689 15.245V15.898H47.7158V15.245H48.3689ZM47.0628 15.245V15.898H46.4097V15.245H47.0628ZM46.4097 15.245V15.898H45.7567V15.245H46.4097ZM45.7567 15.245V15.898H45.1036V15.245H45.7567ZM51.6399 16.5511V17.2042H50.9869V16.5511H51.6399ZM52.293 16.5511V17.2042H51.6399V16.5511H52.293ZM52.946 16.5511V17.2042H52.293V16.5511H52.946ZM53.5991 16.5511V17.2042H52.946V16.5511H53.5991ZM54.2521 16.5511V17.2042H53.5991V16.5511H54.2521ZM54.9052 16.5511V17.2042H54.2521V16.5511H54.9052ZM55.5582 16.5511V17.2042H54.9052V16.5511H55.5582ZM56.2113 16.5511V17.2042H55.5582V16.5511H56.2113ZM56.8644 16.5511V17.2042H56.2113V16.5511H56.8644ZM57.5174 16.5511V17.2042H56.8644V16.5511H57.5174ZM58.1705 16.5511V17.2042H57.5174V16.5511H58.1705ZM55.5582 18.5103V19.1633H54.9052V18.5103H55.5582ZM54.9052 18.5103V19.1633H54.2521V18.5103H54.9052ZM54.2521 18.5103V19.1633H53.5991V18.5103H54.2521ZM53.5991 18.5103V19.1633H52.946V18.5103H53.5991ZM53.5991 17.8572V18.5103H52.946V17.8572H53.5991ZM52.946 17.8572V18.5103H52.293V17.8572H52.946ZM52.946 18.5103V19.1633H52.293V18.5103H52.946ZM52.946 17.2042V17.8572H52.293V17.2042H52.946ZM53.5991 17.2042V17.8572H52.946V17.2042H53.5991ZM54.2521 17.2042V17.8572H53.5991V17.2042H54.2521ZM54.9052 17.2042V17.8572H54.2521V17.2042H54.9052ZM55.5582 17.2042V17.8572H54.9052V17.2042H55.5582ZM55.5582 17.8572V18.5103H54.9052V17.8572H55.5582ZM54.9052 17.8572V18.5103H54.2521V17.8572H54.9052ZM54.2521 17.8572V18.5103H53.5991V17.8572H54.2521ZM58.1705 10.6736V11.3267H57.5174V10.6736H58.1705ZM58.1705 11.3267V11.9797H57.5174V11.3267H58.1705ZM58.1705 11.9797V12.6328H57.5174V11.9797H58.1705ZM58.1705 12.6328V13.2858H57.5174V12.6328H58.1705ZM57.5174 12.6328V13.2858H56.8644V12.6328H57.5174ZM56.8644 12.6328V13.2858H56.2113V12.6328H56.8644ZM56.2113 12.6328V13.2858H55.5582V12.6328H56.2113ZM56.2113 13.2858V13.9389H55.5582V13.2858H56.2113ZM55.5582 13.2858V13.9389H54.9052V13.2858H55.5582ZM54.9052 13.2858V13.9389H54.2521V13.2858H54.9052ZM54.2521 13.2858V13.9389H53.5991V13.2858H54.2521ZM54.2521 12.6328V13.2858H53.5991V12.6328H54.2521ZM53.5991 12.6328V13.2858H52.946V12.6328H53.5991ZM53.5991 11.9797V12.6328H52.946V11.9797H53.5991ZM54.2521 11.9797V12.6328H53.5991V11.9797H54.2521ZM54.9052 11.9797V12.6328H54.2521V11.9797H54.9052ZM54.9052 11.3267V11.9797H54.2521V11.3267H54.9052ZM54.2521 11.3267V11.9797H53.5991V11.3267H54.2521ZM55.5582 11.3267V11.9797H54.9052V11.3267H55.5582ZM56.2113 11.3267V11.9797H55.5582V11.3267H56.2113ZM56.2113 10.6736V11.3267H55.5582V10.6736H56.2113ZM55.5582 10.6736V11.3267H54.9052V10.6736H55.5582ZM56.8644 10.6736V11.3267H56.2113V10.6736H56.8644ZM57.5174 10.6736V11.3267H56.8644V10.6736H57.5174ZM57.5174 11.3267V11.9797H56.8644V11.3267H57.5174ZM57.5174 11.9797V12.6328H56.8644V11.9797H57.5174ZM56.8644 11.9797V12.6328H56.2113V11.9797H56.8644ZM56.8644 11.3267V11.9797H56.2113V11.3267H56.8644ZM56.2113 11.9797V12.6328H55.5582V11.9797H56.2113ZM55.5582 11.9797V12.6328H54.9052V11.9797H55.5582ZM54.9052 12.6328V13.2858H54.2521V12.6328H54.9052ZM55.5582 12.6328V13.2858H54.9052V12.6328H55.5582ZM52.946 13.2858V13.9389H52.293V13.2858H52.946ZM53.5991 13.2858V13.9389H52.946V13.2858H53.5991ZM53.5991 13.9389V14.5919H52.946V13.9389H53.5991ZM52.946 13.9389V14.5919H52.293V13.9389H52.946ZM52.946 14.5919V15.245H52.293V14.5919H52.946ZM52.946 15.245V15.898H52.293V15.245H52.946ZM52.946 15.898V16.5511H52.293V15.898H52.946ZM53.5991 15.898V16.5511H52.946V15.898H53.5991ZM54.2521 15.898V16.5511H53.5991V15.898H54.2521ZM53.5991 15.245V15.898H52.946V15.245H53.5991ZM53.5991 14.5919V15.245H52.946V14.5919H53.5991ZM54.2521 13.9389V14.5919H53.5991V13.9389H54.2521ZM54.9052 13.9389V14.5919H54.2521V13.9389H54.9052ZM54.9052 14.5919V15.245H54.2521V14.5919H54.9052ZM54.9052 15.245V15.898H54.2521V15.245H54.9052ZM54.9052 15.898V16.5511H54.2521V15.898H54.9052ZM55.5582 14.5919V15.245H54.9052V14.5919H55.5582ZM55.5582 13.9389V14.5919H54.9052V13.9389H55.5582ZM55.5582 15.245V15.898H54.9052V15.245H55.5582ZM55.5582 15.898V16.5511H54.9052V15.898H55.5582ZM54.2521 15.245V15.898H53.5991V15.245H54.2521ZM54.2521 14.5919V15.245H53.5991V14.5919H54.2521ZM52.946 19.1633V19.8164H52.293V19.1633H52.946ZM53.5991 19.1633V19.8164H52.946V19.1633H53.5991ZM54.2521 19.1633V19.8164H53.5991V19.1633H54.2521ZM54.9052 19.1633V19.8164H54.2521V19.1633H54.9052ZM55.5582 19.1633V19.8164H54.9052V19.1633H55.5582ZM55.5582 19.8164V20.4694H54.9052V19.8164H55.5582ZM54.2521 19.8164V20.4694H53.5991V19.8164H54.2521ZM53.5991 19.8164V20.4694H52.946V19.8164H53.5991ZM52.946 19.8164V20.4694H52.293V19.8164H52.946ZM54.9052 19.8164V20.4694H54.2521V19.8164H54.9052ZM52.946 26.3469V27H52.293V26.3469H52.946ZM52.946 25.6939V26.3469H52.293V25.6939H52.946ZM52.946 25.0408V25.6939H52.293V25.0408H52.946ZM52.946 24.3878V25.0408H52.293V24.3878H52.946ZM52.946 23.7347V24.3878H52.293V23.7347H52.946ZM52.946 23.0817V23.7347H52.293V23.0817H52.946ZM52.946 22.4286V23.0817H52.293V22.4286H52.946ZM53.5991 22.4286V23.0817H52.946V22.4286H53.5991ZM53.5991 21.7756V22.4286H52.946V21.7756H53.5991ZM53.5991 21.1225V21.7756H52.946V21.1225H53.5991ZM53.5991 20.4694V21.1225H52.946V20.4694H53.5991ZM52.946 21.1225V21.7756H52.293V21.1225H52.946ZM52.946 21.7756V22.4286H52.293V21.7756H52.946ZM52.946 20.4694V21.1225H52.293V20.4694H52.946ZM55.5582 20.4694V21.1225H54.9052V20.4694H55.5582ZM55.5582 21.1225V21.7756H54.9052V21.1225H55.5582ZM55.5582 21.7756V22.4286H54.9052V21.7756H55.5582ZM55.5582 22.4286V23.0817H54.9052V22.4286H55.5582ZM55.5582 23.0817V23.7347H54.9052V23.0817H55.5582ZM55.5582 23.7347V24.3878H54.9052V23.7347H55.5582ZM55.5582 24.3878V25.0408H54.9052V24.3878H55.5582ZM55.5582 25.0408V25.6939H54.9052V25.0408H55.5582ZM55.5582 25.6939V26.3469H54.9052V25.6939H55.5582ZM55.5582 26.3469V27H54.9052V26.3469H55.5582ZM54.9052 26.3469V27H54.2521V26.3469H54.9052ZM54.2521 26.3469V27H53.5991V26.3469H54.2521ZM53.5991 26.3469V27H52.946V26.3469H53.5991ZM53.5991 25.6939V26.3469H52.946V25.6939H53.5991ZM54.2521 25.6939V26.3469H53.5991V25.6939H54.2521ZM54.9052 25.6939V26.3469H54.2521V25.6939H54.9052ZM54.9052 25.0408V25.6939H54.2521V25.0408H54.9052ZM54.2521 25.0408V25.6939H53.5991V25.0408H54.2521ZM53.5991 25.0408V25.6939H52.946V25.0408H53.5991ZM54.2521 24.3878V25.0408H53.5991V24.3878H54.2521ZM54.9052 24.3878V25.0408H54.2521V24.3878H54.9052ZM53.5991 24.3878V25.0408H52.946V24.3878H53.5991ZM53.5991 23.7347V24.3878H52.946V23.7347H53.5991ZM53.5991 23.0817V23.7347H52.946V23.0817H53.5991ZM54.2521 23.0817V23.7347H53.5991V23.0817H54.2521ZM54.2521 23.7347V24.3878H53.5991V23.7347H54.2521ZM54.9052 23.7347V24.3878H54.2521V23.7347H54.9052ZM54.9052 22.4286V23.0817H54.2521V22.4286H54.9052ZM54.9052 21.7756V22.4286H54.2521V21.7756H54.9052ZM54.9052 21.1225V21.7756H54.2521V21.1225H54.9052ZM54.9052 20.4694V21.1225H54.2521V20.4694H54.9052ZM54.2521 20.4694V21.1225H53.5991V20.4694H54.2521ZM54.2521 21.1225V21.7756H53.5991V21.1225H54.2521ZM54.2521 21.7756V22.4286H53.5991V21.7756H54.2521ZM54.2521 22.4286V23.0817H53.5991V22.4286H54.2521ZM54.9052 23.0817V23.7347H54.2521V23.0817H54.9052ZM56.2113 15.245V15.898H55.5582V15.245H56.2113ZM56.8644 15.245V15.898H56.2113V15.245H56.8644ZM57.5174 15.245V15.898H56.8644V15.245H57.5174ZM58.1705 15.245V15.898H57.5174V15.245H58.1705ZM58.1705 15.898V16.5511H57.5174V15.898H58.1705ZM57.5174 15.898V16.5511H56.8644V15.898H57.5174ZM56.8644 15.898V16.5511H56.2113V15.898H56.8644ZM56.2113 15.898V16.5511H55.5582V15.898H56.2113ZM51.6399 15.245V15.898H50.9869V15.245H51.6399ZM52.293 15.245V15.898H51.6399V15.245H52.293ZM52.293 15.898V16.5511H51.6399V15.898H52.293ZM51.6399 15.898V16.5511H50.9869V15.898H51.6399ZM58.1705 17.2042V17.8572H57.5174V17.2042H58.1705ZM57.5174 17.2042V17.8572H56.8644V17.2042H57.5174ZM56.8644 17.2042V17.8572H56.2113V17.2042H56.8644ZM56.2113 17.2042V17.8572H55.5582V17.2042H56.2113ZM52.293 17.2042V17.8572H51.6399V17.2042H52.293ZM51.6399 17.2042V17.8572H50.9869V17.2042H51.6399ZM60.7916 14.5919V15.245H60.1386V14.5919H60.7916ZM61.4447 14.5919V15.245H60.7916V14.5919H61.4447ZM62.0977 14.5919V15.245H61.4447V14.5919H62.0977ZM62.7508 14.5919V15.245H62.0977V14.5919H62.7508ZM62.7508 15.245V15.898H62.0977V15.245H62.7508ZM63.4038 15.245V15.898H62.7508V15.245H63.4038ZM63.4038 15.898V16.5511H62.7508V15.898H63.4038ZM63.4038 14.5919V15.245H62.7508V14.5919H63.4038ZM63.4038 16.5511V17.2042H62.7508V16.5511H63.4038ZM63.4038 17.2042V17.8572H62.7508V17.2042H63.4038ZM63.4038 17.8572V18.5103H62.7508V17.8572H63.4038ZM63.4038 18.5103V19.1633H62.7508V18.5103H63.4038ZM63.4038 19.1633V19.8164H62.7508V19.1633H63.4038ZM63.4038 19.8164V20.4694H62.7508V19.8164H63.4038ZM63.4038 20.4694V21.1225H62.7508V20.4694H63.4038ZM63.4038 21.1225V21.7756H62.7508V21.1225H63.4038ZM63.4038 21.7756V22.4286H62.7508V21.7756H63.4038ZM62.7508 21.7756V22.4286H62.0977V21.7756H62.7508ZM62.0977 22.4286V23.0817H61.4447V22.4286H62.0977ZM61.4447 22.4286V23.0817H60.7916V22.4286H61.4447ZM60.7916 22.4286V23.0817H60.1386V22.4286H60.7916ZM60.7916 21.7756V22.4286H60.1386V21.7756H60.7916ZM60.7916 21.1225V21.7756H60.1386V21.1225H60.7916ZM60.7916 20.4694V21.1225H60.1386V20.4694H60.7916ZM60.7916 19.8164V20.4694H60.1386V19.8164H60.7916ZM61.4447 19.8164V20.4694H60.7916V19.8164H61.4447ZM61.4447 19.1633V19.8164H60.7916V19.1633H61.4447ZM61.4447 18.5103V19.1633H60.7916V18.5103H61.4447ZM61.4447 17.8572V18.5103H60.7916V17.8572H61.4447ZM61.4447 17.2042V17.8572H60.7916V17.2042H61.4447ZM61.4447 16.5511V17.2042H60.7916V16.5511H61.4447ZM61.4447 15.898V16.5511H60.7916V15.898H61.4447ZM61.4447 15.245V15.898H60.7916V15.245H61.4447ZM60.7916 15.245V15.898H60.1386V15.245H60.7916ZM60.7916 15.898V16.5511H60.1386V15.898H60.7916ZM60.7916 16.5511V17.2042H60.1386V16.5511H60.7916ZM60.7916 17.2042V17.8572H60.1386V17.2042H60.7916ZM60.7916 17.8572V18.5103H60.1386V17.8572H60.7916ZM60.7916 18.5103V19.1633H60.1386V18.5103H60.7916ZM60.7916 19.1633V19.8164H60.1386V19.1633H60.7916ZM62.0977 17.8572V18.5103H61.4447V17.8572H62.0977ZM62.0977 17.2042V17.8572H61.4447V17.2042H62.0977ZM62.0977 16.5511V17.2042H61.4447V16.5511H62.0977ZM62.0977 15.898V16.5511H61.4447V15.898H62.0977ZM62.0977 15.245V15.898H61.4447V15.245H62.0977ZM62.7508 17.8572V18.5103H62.0977V17.8572H62.7508ZM62.7508 18.5103V19.1633H62.0977V18.5103H62.7508ZM62.7508 17.2042V17.8572H62.0977V17.2042H62.7508ZM62.7508 16.5511V17.2042H62.0977V16.5511H62.7508ZM62.7508 15.898V16.5511H62.0977V15.898H62.7508ZM62.0977 19.8164V20.4694H61.4447V19.8164H62.0977ZM62.0977 19.1633V19.8164H61.4447V19.1633H62.0977ZM62.0977 18.5103V19.1633H61.4447V18.5103H62.0977ZM62.7508 19.1633V19.8164H62.0977V19.1633H62.7508ZM62.7508 19.8164V20.4694H62.0977V19.8164H62.7508ZM62.7508 20.4694V21.1225H62.0977V20.4694H62.7508ZM62.0977 21.1225V21.7756H61.4447V21.1225H62.0977ZM62.0977 21.7756V22.4286H61.4447V21.7756H62.0977ZM62.0977 20.4694V21.1225H61.4447V20.4694H62.0977ZM61.4447 20.4694V21.1225H60.7916V20.4694H61.4447ZM61.4447 21.1225V21.7756H60.7916V21.1225H61.4447ZM61.4447 21.7756V22.4286H60.7916V21.7756H61.4447ZM62.7508 21.1225V21.7756H62.0977V21.1225H62.7508ZM62.0977 23.0817V23.7347H61.4447V23.0817H62.0977ZM61.4447 23.0817V23.7347H60.7916V23.0817H61.4447ZM62.7508 23.0817V23.7347H62.0977V23.0817H62.7508ZM62.7508 22.4286V23.0817H62.0977V22.4286H62.7508ZM63.4038 22.4286V23.0817H62.7508V22.4286H63.4038ZM64.0569 22.4286V23.0817H63.4038V22.4286H64.0569ZM64.0569 23.0817V23.7347H63.4038V23.0817H64.0569ZM63.4038 23.0817V23.7347H62.7508V23.0817H63.4038ZM64.71 23.0817V23.7347H64.0569V23.0817H64.71ZM62.0977 23.7347V24.3878H61.4447V23.7347H62.0977ZM62.7508 23.7347V24.3878H62.0977V23.7347H62.7508ZM63.4038 23.7347V24.3878H62.7508V23.7347H63.4038ZM64.0569 23.7347V24.3878H63.4038V23.7347H64.0569ZM64.71 23.7347V24.3878H64.0569V23.7347H64.71ZM65.363 23.7347V24.3878H64.71V23.7347H65.363ZM66.0161 23.7347V24.3878H65.363V23.7347H66.0161ZM66.6691 23.7347V24.3878H66.0161V23.7347H66.6691ZM67.3222 23.7347V24.3878H66.6691V23.7347H67.3222ZM67.9752 23.7347V24.3878H67.3222V23.7347H67.9752ZM68.6283 23.7347V24.3878H67.9752V23.7347H68.6283ZM69.2814 23.7347V24.3878H68.6283V23.7347H69.2814ZM68.6283 23.0817V23.7347H67.9752V23.0817H68.6283ZM67.9752 23.0817V23.7347H67.3222V23.0817H67.9752ZM67.3222 23.0817V23.7347H66.6691V23.0817H67.3222ZM66.6691 23.0817V23.7347H66.0161V23.0817H66.6691ZM67.3222 22.4286V23.0817H66.6691V22.4286H67.3222ZM67.9752 22.4286V23.0817H67.3222V22.4286H67.9752ZM68.6283 22.4286V23.0817H67.9752V22.4286H68.6283ZM69.2814 22.4286V23.0817H68.6283V22.4286H69.2814ZM69.9344 22.4286V23.0817H69.2814V22.4286H69.9344ZM69.9344 23.0817V23.7347H69.2814V23.0817H69.9344ZM69.2814 23.0817V23.7347H68.6283V23.0817H69.2814ZM70.5875 22.4286V23.0817H69.9344V22.4286H70.5875ZM64.71 26.3469V27H64.0569V26.3469H64.71ZM64.71 25.6939V26.3469H64.0569V25.6939H64.71ZM64.71 25.0408V25.6939H64.0569V25.0408H64.71ZM65.363 25.0408V25.6939H64.71V25.0408H65.363ZM65.363 24.3878V25.0408H64.71V24.3878H65.363ZM66.0161 24.3878V25.0408H65.363V24.3878H66.0161ZM66.6691 24.3878V25.0408H66.0161V24.3878H66.6691ZM66.6691 25.0408V25.6939H66.0161V25.0408H66.6691ZM66.6691 25.6939V26.3469H66.0161V25.6939H66.6691ZM66.6691 26.3469V27H66.0161V26.3469H66.6691ZM66.0161 26.3469V27H65.363V26.3469H66.0161ZM65.363 26.3469V27H64.71V26.3469H65.363ZM65.363 25.6939V26.3469H64.71V25.6939H65.363ZM66.0161 25.0408V25.6939H65.363V25.0408H66.0161ZM66.0161 25.6939V26.3469H65.363V25.6939H66.0161ZM67.3222 25.0408V25.6939H66.6691V25.0408H67.3222ZM67.3222 24.3878V25.0408H66.6691V24.3878H67.3222ZM67.9752 24.3878V25.0408H67.3222V24.3878H67.9752ZM68.6283 24.3878V25.0408H67.9752V24.3878H68.6283ZM67.9752 25.0408V25.6939H67.3222V25.0408H67.9752ZM67.3222 25.6939V26.3469H66.6691V25.6939H67.3222ZM62.7508 24.3878V25.0408H62.0977V24.3878H62.7508ZM63.4038 24.3878V25.0408H62.7508V24.3878H63.4038ZM63.4038 25.0408V25.6939H62.7508V25.0408H63.4038ZM64.0569 25.0408V25.6939H63.4038V25.0408H64.0569ZM64.0569 25.6939V26.3469H63.4038V25.6939H64.0569ZM64.71 24.3878V25.0408H64.0569V24.3878H64.71ZM64.0569 24.3878V25.0408H63.4038V24.3878H64.0569ZM67.9752 21.7756V22.4286H67.3222V21.7756H67.9752ZM67.9752 21.1225V21.7756H67.3222V21.1225H67.9752ZM67.9752 20.4694V21.1225H67.3222V20.4694H67.9752ZM67.9752 19.8164V20.4694H67.3222V19.8164H67.9752ZM68.6283 19.8164V20.4694H67.9752V19.8164H68.6283ZM69.2814 19.8164V20.4694H68.6283V19.8164H69.2814ZM69.9344 19.8164V20.4694H69.2814V19.8164H69.9344ZM70.5875 19.8164V20.4694H69.9344V19.8164H70.5875ZM70.5875 20.4694V21.1225H69.9344V20.4694H70.5875ZM70.5875 21.1225V21.7756H69.9344V21.1225H70.5875ZM70.5875 21.7756V22.4286H69.9344V21.7756H70.5875ZM69.9344 21.7756V22.4286H69.2814V21.7756H69.9344ZM69.2814 21.7756V22.4286H68.6283V21.7756H69.2814ZM68.6283 21.7756V22.4286H67.9752V21.7756H68.6283ZM69.2814 21.1225V21.7756H68.6283V21.1225H69.2814ZM69.9344 21.1225V21.7756H69.2814V21.1225H69.9344ZM69.9344 20.4694V21.1225H69.2814V20.4694H69.9344ZM69.2814 20.4694V21.1225H68.6283V20.4694H69.2814ZM68.6283 20.4694V21.1225H67.9752V20.4694H68.6283ZM68.6283 21.1225V21.7756H67.9752V21.1225H68.6283ZM67.9752 19.1633V19.8164H67.3222V19.1633H67.9752ZM67.9752 18.5103V19.1633H67.3222V18.5103H67.9752ZM67.9752 17.8572V18.5103H67.3222V17.8572H67.9752ZM67.9752 17.2042V17.8572H67.3222V17.2042H67.9752ZM67.9752 16.5511V17.2042H67.3222V16.5511H67.9752ZM67.9752 15.898V16.5511H67.3222V15.898H67.9752ZM67.9752 15.245V15.898H67.3222V15.245H67.9752ZM67.9752 14.5919V15.245H67.3222V14.5919H67.9752ZM68.6283 15.245V15.898H67.9752V15.245H68.6283ZM68.6283 14.5919V15.245H67.9752V14.5919H68.6283ZM69.2814 14.5919V15.245H68.6283V14.5919H69.2814ZM69.9344 14.5919V15.245H69.2814V14.5919H69.9344ZM69.9344 15.245V15.898H69.2814V15.245H69.9344ZM69.9344 15.898V16.5511H69.2814V15.898H69.9344ZM70.5875 15.898V16.5511H69.9344V15.898H70.5875ZM70.5875 16.5511V17.2042H69.9344V16.5511H70.5875ZM70.5875 17.2042V17.8572H69.9344V17.2042H70.5875ZM70.5875 17.8572V18.5103H69.9344V17.8572H70.5875ZM70.5875 18.5103V19.1633H69.9344V18.5103H70.5875ZM70.5875 19.1633V19.8164H69.9344V19.1633H70.5875ZM70.5875 15.245V15.898H69.9344V15.245H70.5875ZM70.5875 14.5919V15.245H69.9344V14.5919H70.5875ZM69.2814 15.245V15.898H68.6283V15.245H69.2814ZM69.2814 15.898V16.5511H68.6283V15.898H69.2814ZM69.2814 16.5511V17.2042H68.6283V16.5511H69.2814ZM69.2814 17.2042V17.8572H68.6283V17.2042H69.2814ZM69.2814 17.8572V18.5103H68.6283V17.8572H69.2814ZM69.2814 18.5103V19.1633H68.6283V18.5103H69.2814ZM68.6283 18.5103V19.1633H67.9752V18.5103H68.6283ZM68.6283 19.1633V19.8164H67.9752V19.1633H68.6283ZM68.6283 17.8572V18.5103H67.9752V17.8572H68.6283ZM68.6283 17.2042V17.8572H67.9752V17.2042H68.6283ZM68.6283 16.5511V17.2042H67.9752V16.5511H68.6283ZM68.6283 15.898V16.5511H67.9752V15.898H68.6283ZM69.9344 16.5511V17.2042H69.2814V16.5511H69.9344ZM69.9344 17.2042V17.8572H69.2814V17.2042H69.9344ZM69.9344 17.8572V18.5103H69.2814V17.8572H69.9344ZM69.9344 18.5103V19.1633H69.2814V18.5103H69.9344ZM69.9344 19.1633V19.8164H69.2814V19.1633H69.9344ZM69.2814 19.1633V19.8164H68.6283V19.1633H69.2814ZM63.4038 26.3469V27H62.7508V26.3469H63.4038ZM64.0569 26.3469V27H63.4038V26.3469H64.0569ZM64.71 27V27.6531H64.0569V27H64.71ZM65.363 27V27.6531H64.71V27H65.363ZM66.0161 27V27.6531H65.363V27H66.0161ZM64.0569 27V27.6531H63.4038V27H64.0569ZM63.4038 27V27.6531H62.7508V27H63.4038ZM62.7508 27V27.6531H62.0977V27H62.7508ZM62.7508 27.6531V28.3061H62.0977V27.6531H62.7508ZM62.0977 27.6531V28.3061H61.4447V27.6531H62.0977ZM62.0977 28.3061V28.9592H61.4447V28.3061H62.0977ZM61.4447 28.3061V28.9592H60.7916V28.3061H61.4447ZM61.4447 28.9592V29.6122H60.7916V28.9592H61.4447ZM61.4447 29.6122V30.2653H60.7916V29.6122H61.4447ZM61.4447 30.2653V30.9183H60.7916V30.2653H61.4447ZM62.0977 30.2653V30.9183H61.4447V30.2653H62.0977ZM62.7508 30.2653V30.9183H62.0977V30.2653H62.7508ZM62.7508 29.6122V30.2653H62.0977V29.6122H62.7508ZM62.7508 28.9592V29.6122H62.0977V28.9592H62.7508ZM62.0977 28.9592V29.6122H61.4447V28.9592H62.0977ZM62.0977 29.6122V30.2653H61.4447V29.6122H62.0977ZM63.4038 28.9592V29.6122H62.7508V28.9592H63.4038ZM63.4038 29.6122V30.2653H62.7508V29.6122H63.4038ZM64.0569 28.9592V29.6122H63.4038V28.9592H64.0569ZM64.0569 28.3061V28.9592H63.4038V28.3061H64.0569ZM64.71 28.3061V28.9592H64.0569V28.3061H64.71ZM64.71 27.6531V28.3061H64.0569V27.6531H64.71ZM65.363 27.6531V28.3061H64.71V27.6531H65.363ZM64.0569 27.6531V28.3061H63.4038V27.6531H64.0569ZM63.4038 27.6531V28.3061H62.7508V27.6531H63.4038ZM63.4038 28.3061V28.9592H62.7508V28.3061H63.4038ZM62.7508 28.3061V28.9592H62.0977V28.3061H62.7508Z" fill="black"/>
</svg>
