<svg width="49" height="50" viewBox="0 0 49 50" fill="none" xmlns="http://www.w3.org/2000/svg">
<path d="M47.2119 23.8906H42.5156" stroke="#A3ACB5" stroke-width="2" stroke-linecap="round"/>
<path d="M24.766 2.32812C14.7837 2.32812 9.7925 2.32812 6.69139 5.48617C4.33255 7.8883 3.76795 11.4041 3.63281 17.4232M45.8991 17.4232C45.7639 11.4041 45.1994 7.8883 42.8405 5.48617C40.9185 3.52893 38.2708 2.78472 34.1585 2.50174M45.8991 30.3619C45.7639 36.381 45.1994 39.8968 42.8405 42.299C39.7395 45.457 34.7483 45.457 24.766 45.457C14.7837 45.457 9.7925 45.457 6.69139 42.299C4.33258 39.8968 3.76797 36.381 3.63281 30.3619" stroke="#A3ACB5" stroke-width="2" stroke-linecap="round"/>
<path d="M15.3594 14.3086H34.1444" stroke="#A3ACB5" stroke-width="2" stroke-linecap="round"/>
<path d="M24.75 33.477V14.3086" stroke="#A3ACB5" stroke-width="2" stroke-linecap="round"/>
<path d="M6.97751 23.8906H2.28125" stroke="#A3ACB5" stroke-width="2" stroke-linecap="round"/>
</svg>
