<svg width="372" height="51" viewBox="0 0 372 51" fill="none" xmlns="http://www.w3.org/2000/svg">
<path d="M16.0714 38.6085L12.5 35.0353L9.98036 37.5532L16.0714 43.6443L26.7857 32.93L24.2679 30.4121L16.0714 38.6085Z" fill="black"/>
<path d="M46.4286 50.7871H39.2857V47.2157H46.4286V25.7871H39.2857V11.5014C39.2836 9.60764 38.5304 7.79207 37.1913 6.45298C35.8522 5.1139 34.0366 4.36066 32.1429 4.35854V0.787109C34.9835 0.790276 37.7069 1.92012 39.7155 3.92875C41.7241 5.93738 42.854 8.66076 42.8571 11.5014V22.2157H46.4286C47.3755 22.2167 48.2833 22.5933 48.9529 23.2628C49.6224 23.9324 49.999 24.8402 50 25.7871V47.2157C49.999 48.1626 49.6224 49.0704 48.9529 49.74C48.2833 50.4095 47.3755 50.7861 46.4286 50.7871Z" fill="black"/>
<path d="M32.1429 22.2157H28.5714V11.5014C28.5714 8.65979 27.4426 5.93457 25.4333 3.92525C23.424 1.91593 20.6987 0.787109 17.8571 0.787109C15.0155 0.787109 12.2903 1.91593 10.281 3.92525C8.27168 5.93457 7.14286 8.65979 7.14286 11.5014V22.2157H3.57143C2.62423 22.2157 1.71582 22.592 1.04605 23.2617C0.376274 23.9315 0 24.8399 0 25.7871V47.2157C0 48.1629 0.376274 49.0713 1.04605 49.7411C1.71582 50.4108 2.62423 50.7871 3.57143 50.7871H32.1429C33.0901 50.7871 33.9985 50.4108 34.6682 49.7411C35.338 49.0713 35.7143 48.1629 35.7143 47.2157V25.7871C35.7143 24.8399 35.338 23.9315 34.6682 23.2617C33.9985 22.592 33.0901 22.2157 32.1429 22.2157ZM10.7143 11.5014C10.7143 9.60699 11.4668 7.79018 12.8064 6.45063C14.1459 5.11109 15.9627 4.35854 17.8571 4.35854C19.7515 4.35854 21.5684 5.11109 22.9079 6.45063C24.2474 7.79018 25 9.60699 25 11.5014V22.2157H10.7143V11.5014ZM32.1429 47.2157H3.57143V25.7871H32.1429V47.2157Z" fill="black"/>
<path d="M70.9659 19.8042V18.2417H81.875V19.8042H77.3011V32.7871H75.5398V19.8042H70.9659ZM85.5877 32.7871L82.2638 21.878H84.0252L86.3832 30.2303H86.4968L88.8263 21.878H90.6161L92.9173 30.2019H93.0309L95.3888 21.878H97.1502L93.8263 32.7871H92.1786L89.7923 24.4064H89.6218L87.2354 32.7871H85.5877ZM103.427 33.0144C102.442 33.0144 101.578 32.78 100.835 32.3113C100.096 31.8425 99.5182 31.1867 99.1016 30.3439C98.6896 29.5011 98.4837 28.5163 98.4837 27.3894C98.4837 26.253 98.6896 25.2611 99.1016 24.4135C99.5182 23.566 100.096 22.9078 100.835 22.4391C101.578 21.9703 102.442 21.736 103.427 21.736C104.412 21.736 105.273 21.9703 106.012 22.4391C106.755 22.9078 107.333 23.566 107.745 24.4135C108.162 25.2611 108.37 26.253 108.37 27.3894C108.37 28.5163 108.162 29.5011 107.745 30.3439C107.333 31.1867 106.755 31.8425 106.012 32.3113C105.273 32.78 104.412 33.0144 103.427 33.0144ZM103.427 31.5087C104.175 31.5087 104.79 31.3169 105.273 30.9334C105.756 30.5499 106.114 30.0456 106.346 29.4206C106.578 28.7956 106.694 28.1185 106.694 27.3894C106.694 26.6602 106.578 25.9808 106.346 25.351C106.114 24.7213 105.756 24.2123 105.273 23.824C104.79 23.4358 104.175 23.2417 103.427 23.2417C102.679 23.2417 102.063 23.4358 101.58 23.824C101.097 24.2123 100.74 24.7213 100.508 25.351C100.276 25.9808 100.16 26.6602 100.16 27.3894C100.16 28.1185 100.276 28.7956 100.508 29.4206C100.74 30.0456 101.097 30.5499 101.58 30.9334C102.063 31.3169 102.679 31.5087 103.427 31.5087ZM117.179 25.7701V27.3326H110.815V25.7701H117.179ZM124.986 21.878V23.2985H119.105V21.878H124.986ZM120.866 32.7871V20.3723C120.866 19.7473 121.013 19.2265 121.307 18.8098C121.6 18.3932 121.982 18.0807 122.45 17.8723C122.919 17.664 123.414 17.5598 123.935 17.5598C124.347 17.5598 124.683 17.593 124.943 17.6593C125.204 17.7256 125.398 17.7871 125.526 17.8439L125.043 19.2928C124.957 19.2644 124.839 19.2289 124.688 19.1863C124.541 19.1436 124.347 19.1223 124.105 19.1223C123.551 19.1223 123.151 19.262 122.905 19.5414C122.663 19.8207 122.543 20.2303 122.543 20.7701V32.7871H120.866ZM130.233 33.0428C129.541 33.0428 128.914 32.9126 128.35 32.6522C127.787 32.387 127.34 32.0059 127.008 31.5087C126.677 31.0068 126.511 30.4007 126.511 29.6905C126.511 29.0655 126.634 28.5589 126.88 28.1706C127.127 27.7776 127.456 27.4699 127.868 27.2473C128.279 27.0248 128.734 26.8591 129.231 26.7502C129.733 26.6365 130.237 26.5466 130.744 26.4803C131.407 26.3951 131.944 26.3311 132.356 26.2885C132.773 26.2412 133.076 26.1631 133.265 26.0542C133.459 25.9453 133.556 25.7559 133.556 25.486V25.4292C133.556 24.7284 133.365 24.1839 132.981 23.7956C132.602 23.4074 132.027 23.2132 131.255 23.2132C130.455 23.2132 129.828 23.3884 129.373 23.7388C128.919 24.0892 128.599 24.4632 128.414 24.861L126.824 24.2928C127.108 23.6299 127.486 23.1138 127.96 22.7445C128.438 22.3704 128.959 22.11 129.522 21.9632C130.091 21.8117 130.649 21.736 131.199 21.736C131.549 21.736 131.951 21.7786 132.406 21.8638C132.865 21.9443 133.308 22.1124 133.734 22.3681C134.165 22.6238 134.522 23.0096 134.806 23.5257C135.091 24.0418 135.233 24.7331 135.233 25.5996V32.7871H133.556V31.3098H133.471C133.358 31.5466 133.168 31.7999 132.903 32.0698C132.638 32.3397 132.285 32.5693 131.845 32.7587C131.404 32.9481 130.867 33.0428 130.233 33.0428ZM130.488 31.5371C131.151 31.5371 131.71 31.4069 132.164 31.1465C132.624 30.8861 132.969 30.5499 133.201 30.138C133.438 29.726 133.556 29.2928 133.556 28.8382V27.3042C133.485 27.3894 133.329 27.4675 133.088 27.5385C132.851 27.6048 132.576 27.664 132.264 27.7161C131.956 27.7634 131.655 27.806 131.362 27.8439C131.073 27.8771 130.839 27.9055 130.659 27.9292C130.223 27.986 129.816 28.0783 129.437 28.2061C129.063 28.3292 128.76 28.5163 128.528 28.7672C128.301 29.0134 128.187 29.3496 128.187 29.7757C128.187 30.3581 128.403 30.7985 128.833 31.0968C129.269 31.3903 129.821 31.5371 130.488 31.5371ZM142.724 33.0144C141.701 33.0144 140.82 32.7729 140.082 32.29C139.343 31.807 138.775 31.1417 138.377 30.2942C137.979 29.4467 137.781 28.4784 137.781 27.3894C137.781 26.2814 137.984 25.3037 138.391 24.4561C138.803 23.6039 139.376 22.9386 140.11 22.4604C140.849 21.9775 141.71 21.736 142.695 21.736C143.462 21.736 144.154 21.878 144.769 22.1621C145.385 22.4462 145.889 22.8439 146.282 23.3553C146.675 23.8667 146.919 24.4632 147.013 25.1451H145.337C145.21 24.6479 144.925 24.2076 144.485 23.824C144.049 23.4358 143.462 23.2417 142.724 23.2417C142.07 23.2417 141.497 23.4121 141.005 23.753C140.517 24.0892 140.136 24.565 139.862 25.1806C139.592 25.7914 139.457 26.5087 139.457 27.3326C139.457 28.1754 139.589 28.9093 139.854 29.5343C140.124 30.1593 140.503 30.6446 140.991 30.9902C141.483 31.3359 142.061 31.5087 142.724 31.5087C143.159 31.5087 143.555 31.4329 143.91 31.2814C144.265 31.1299 144.566 30.9121 144.812 30.628C145.058 30.3439 145.233 30.003 145.337 29.6053H147.013C146.919 30.2492 146.684 30.8292 146.31 31.3453C145.941 31.8567 145.451 32.2639 144.84 32.5669C144.234 32.8652 143.529 33.0144 142.724 33.0144ZM154.208 21.878V23.2985H148.555V21.878H154.208ZM150.202 19.2644H151.879V29.6621C151.879 30.1356 151.947 30.4907 152.085 30.7275C152.227 30.9595 152.406 31.1157 152.624 31.1962C152.847 31.272 153.081 31.3098 153.327 31.3098C153.512 31.3098 153.664 31.3004 153.782 31.2814C153.9 31.2578 153.995 31.2388 154.066 31.2246L154.407 32.7303C154.293 32.7729 154.135 32.8155 153.931 32.8581C153.728 32.9055 153.469 32.9292 153.157 32.9292C152.683 32.9292 152.219 32.8274 151.765 32.6238C151.315 32.4202 150.941 32.11 150.643 31.6934C150.349 31.2767 150.202 30.7511 150.202 30.1167V19.2644ZM161.044 33.0144C160.059 33.0144 159.195 32.78 158.452 32.3113C157.713 31.8425 157.135 31.1867 156.719 30.3439C156.307 29.5011 156.101 28.5163 156.101 27.3894C156.101 26.253 156.307 25.2611 156.719 24.4135C157.135 23.566 157.713 22.9078 158.452 22.4391C159.195 21.9703 160.059 21.736 161.044 21.736C162.029 21.736 162.891 21.9703 163.629 22.4391C164.373 22.9078 164.95 23.566 165.362 24.4135C165.779 25.2611 165.987 26.253 165.987 27.3894C165.987 28.5163 165.779 29.5011 165.362 30.3439C164.95 31.1867 164.373 31.8425 163.629 32.3113C162.891 32.78 162.029 33.0144 161.044 33.0144ZM161.044 31.5087C161.792 31.5087 162.408 31.3169 162.891 30.9334C163.374 30.5499 163.731 30.0456 163.963 29.4206C164.195 28.7956 164.311 28.1185 164.311 27.3894C164.311 26.6602 164.195 25.9808 163.963 25.351C163.731 24.7213 163.374 24.2123 162.891 23.824C162.408 23.4358 161.792 23.2417 161.044 23.2417C160.296 23.2417 159.68 23.4358 159.197 23.824C158.714 24.2123 158.357 24.7213 158.125 25.351C157.893 25.9808 157.777 26.6602 157.777 27.3894C157.777 28.1185 157.893 28.7956 158.125 29.4206C158.357 30.0456 158.714 30.5499 159.197 30.9334C159.68 31.3169 160.296 31.5087 161.044 31.5087ZM168.546 32.7871V21.878H170.165V23.5257H170.279C170.478 22.986 170.837 22.548 171.358 22.2118C171.879 21.8757 172.466 21.7076 173.12 21.7076C173.243 21.7076 173.397 21.7099 173.581 21.7147C173.766 21.7194 173.906 21.7265 174 21.736V23.4405C173.944 23.4263 173.813 23.405 173.61 23.3766C173.411 23.3435 173.2 23.3269 172.978 23.3269C172.447 23.3269 171.974 23.4382 171.557 23.6607C171.145 23.8785 170.819 24.1815 170.577 24.5698C170.34 24.9533 170.222 25.3913 170.222 25.8837V32.7871H168.546ZM182.436 32.7871H180.589L185.93 18.2417H187.749L193.089 32.7871H191.243L186.896 20.5428H186.783L182.436 32.7871ZM183.118 27.1053H190.561V28.6678H183.118V27.1053ZM202.003 28.3269V21.878H203.679V32.7871H202.003V30.9405H201.889C201.634 31.4945 201.236 31.9656 200.696 32.3539C200.156 32.7374 199.474 32.9292 198.651 32.9292C197.969 32.9292 197.363 32.78 196.832 32.4817C196.302 32.1787 195.885 31.7241 195.582 31.1181C195.279 30.5073 195.128 29.7379 195.128 28.8098V21.878H196.804V28.6962C196.804 29.4917 197.027 30.1261 197.472 30.5996C197.921 31.0731 198.494 31.3098 199.19 31.3098C199.607 31.3098 200.031 31.2033 200.462 30.9902C200.897 30.7772 201.262 30.4505 201.555 30.0101C201.854 29.5698 202.003 29.0087 202.003 28.3269ZM211.493 21.878V23.2985H205.84V21.878H211.493ZM207.488 19.2644H209.164V29.6621C209.164 30.1356 209.232 30.4907 209.37 30.7275C209.512 30.9595 209.692 31.1157 209.909 31.1962C210.132 31.272 210.366 31.3098 210.613 31.3098C210.797 31.3098 210.949 31.3004 211.067 31.2814C211.185 31.2578 211.28 31.2388 211.351 31.2246L211.692 32.7303C211.578 32.7729 211.42 32.8155 211.216 32.8581C211.013 32.9055 210.755 32.9292 210.442 32.9292C209.969 32.9292 209.505 32.8274 209.05 32.6238C208.6 32.4202 208.226 32.11 207.928 31.6934C207.634 31.2767 207.488 30.7511 207.488 30.1167V19.2644ZM215.925 26.2246V32.7871H214.249V18.2417H215.925V23.5826H216.067C216.323 23.0191 216.706 22.5717 217.218 22.2402C217.734 21.9041 218.42 21.736 219.277 21.736C220.021 21.736 220.672 21.8851 221.23 22.1834C221.789 22.477 222.222 22.9292 222.53 23.54C222.843 24.146 222.999 24.9178 222.999 25.8553V32.7871H221.323V25.9689C221.323 25.1025 221.098 24.4325 220.648 23.959C220.203 23.4808 219.585 23.2417 218.794 23.2417C218.245 23.2417 217.753 23.3577 217.317 23.5897C216.886 23.8217 216.545 24.1602 216.294 24.6053C216.048 25.0504 215.925 25.5901 215.925 26.2246ZM230.639 33.0144C229.588 33.0144 228.681 32.7824 227.919 32.3184C227.161 31.8496 226.577 31.1962 226.165 30.3581C225.758 29.5153 225.554 28.5352 225.554 27.4178C225.554 26.3004 225.758 25.3155 226.165 24.4632C226.577 23.6062 227.15 22.9386 227.884 22.4604C228.622 21.9775 229.484 21.736 230.469 21.736C231.037 21.736 231.598 21.8307 232.152 22.0201C232.706 22.2095 233.21 22.5172 233.665 22.9434C234.119 23.3648 234.482 23.9235 234.751 24.6195C235.021 25.3155 235.156 26.1725 235.156 27.1905V27.9007H226.747V26.4519H233.452C233.452 25.8364 233.329 25.2871 233.082 24.8042C232.841 24.3212 232.495 23.94 232.045 23.6607C231.6 23.3813 231.075 23.2417 230.469 23.2417C229.801 23.2417 229.223 23.4074 228.736 23.7388C228.253 24.0655 227.881 24.4917 227.621 25.0172C227.36 25.5428 227.23 26.1062 227.23 26.7076V27.6735C227.23 28.4973 227.372 29.1957 227.656 29.7686C227.945 30.3368 228.345 30.7701 228.857 31.0684C229.368 31.3619 229.962 31.5087 230.639 31.5087C231.08 31.5087 231.477 31.4471 231.832 31.324C232.192 31.1962 232.502 31.0068 232.763 30.7559C233.023 30.5002 233.224 30.1829 233.366 29.8042L234.986 30.2587C234.815 30.8079 234.529 31.2909 234.126 31.7076C233.724 32.1195 233.227 32.4415 232.635 32.6735C232.043 32.9007 231.378 33.0144 230.639 33.0144ZM239.382 26.2246V32.7871H237.706V21.878H239.325V23.5826H239.467C239.723 23.0286 240.111 22.5835 240.632 22.2473C241.153 21.9064 241.825 21.736 242.649 21.736C243.388 21.736 244.034 21.8875 244.588 22.1905C245.142 22.4888 245.573 22.9434 245.881 23.5542C246.188 24.1602 246.342 24.9273 246.342 25.8553V32.7871H244.666V25.9689C244.666 25.1119 244.444 24.4443 243.999 23.9661C243.554 23.4831 242.943 23.2417 242.166 23.2417C241.631 23.2417 241.153 23.3577 240.732 23.5897C240.315 23.8217 239.986 24.1602 239.744 24.6053C239.503 25.0504 239.382 25.5901 239.382 26.2246ZM254.15 21.878V23.2985H248.496V21.878H254.15ZM250.144 19.2644H251.82V29.6621C251.82 30.1356 251.889 30.4907 252.026 30.7275C252.168 30.9595 252.348 31.1157 252.566 31.1962C252.788 31.272 253.023 31.3098 253.269 31.3098C253.453 31.3098 253.605 31.3004 253.723 31.2814C253.842 31.2578 253.936 31.2388 254.007 31.2246L254.348 32.7303C254.235 32.7729 254.076 32.8155 253.873 32.8581C253.669 32.9055 253.411 32.9292 253.098 32.9292C252.625 32.9292 252.161 32.8274 251.706 32.6238C251.257 32.4202 250.882 32.11 250.584 31.6934C250.291 31.2767 250.144 30.7511 250.144 30.1167V19.2644ZM256.671 32.7871V21.878H258.347V32.7871H256.671ZM257.523 20.0598C257.196 20.0598 256.915 19.9486 256.678 19.726C256.446 19.5035 256.33 19.236 256.33 18.9235C256.33 18.611 256.446 18.3435 256.678 18.1209C256.915 17.8984 257.196 17.7871 257.523 17.7871C257.85 17.7871 258.129 17.8984 258.361 18.1209C258.598 18.3435 258.716 18.611 258.716 18.9235C258.716 19.236 258.598 19.5035 258.361 19.726C258.129 19.9486 257.85 20.0598 257.523 20.0598ZM265.849 33.0144C264.826 33.0144 263.945 32.7729 263.207 32.29C262.468 31.807 261.9 31.1417 261.502 30.2942C261.104 29.4467 260.906 28.4784 260.906 27.3894C260.906 26.2814 261.109 25.3037 261.516 24.4561C261.928 23.6039 262.501 22.9386 263.235 22.4604C263.974 21.9775 264.835 21.736 265.82 21.736C266.587 21.736 267.279 21.878 267.894 22.1621C268.51 22.4462 269.014 22.8439 269.407 23.3553C269.8 23.8667 270.044 24.4632 270.138 25.1451H268.462C268.335 24.6479 268.05 24.2076 267.61 23.824C267.174 23.4358 266.587 23.2417 265.849 23.2417C265.195 23.2417 264.622 23.4121 264.13 23.753C263.642 24.0892 263.261 24.565 262.987 25.1806C262.717 25.7914 262.582 26.5087 262.582 27.3326C262.582 28.1754 262.714 28.9093 262.979 29.5343C263.249 30.1593 263.628 30.6446 264.116 30.9902C264.608 31.3359 265.186 31.5087 265.849 31.5087C266.284 31.5087 266.68 31.4329 267.035 31.2814C267.39 31.1299 267.691 30.9121 267.937 30.628C268.183 30.3439 268.358 30.003 268.462 29.6053H270.138C270.044 30.2492 269.809 30.8292 269.435 31.3453C269.066 31.8567 268.576 32.2639 267.965 32.5669C267.359 32.8652 266.654 33.0144 265.849 33.0144ZM275.799 33.0428C275.108 33.0428 274.48 32.9126 273.917 32.6522C273.353 32.387 272.906 32.0059 272.575 31.5087C272.243 31.0068 272.077 30.4007 272.077 29.6905C272.077 29.0655 272.201 28.5589 272.447 28.1706C272.693 27.7776 273.022 27.4699 273.434 27.2473C273.846 27.0248 274.3 26.8591 274.798 26.7502C275.299 26.6365 275.804 26.5466 276.31 26.4803C276.973 26.3951 277.511 26.3311 277.923 26.2885C278.339 26.2412 278.642 26.1631 278.832 26.0542C279.026 25.9453 279.123 25.7559 279.123 25.486V25.4292C279.123 24.7284 278.931 24.1839 278.548 23.7956C278.169 23.4074 277.594 23.2132 276.822 23.2132C276.022 23.2132 275.394 23.3884 274.94 23.7388C274.485 24.0892 274.165 24.4632 273.981 24.861L272.39 24.2928C272.674 23.6299 273.053 23.1138 273.526 22.7445C274.004 22.3704 274.525 22.11 275.089 21.9632C275.657 21.8117 276.216 21.736 276.765 21.736C277.115 21.736 277.518 21.7786 277.972 21.8638C278.432 21.9443 278.874 22.1124 279.3 22.3681C279.731 22.6238 280.089 23.0096 280.373 23.5257C280.657 24.0418 280.799 24.7331 280.799 25.5996V32.7871H279.123V31.3098H279.038C278.924 31.5466 278.735 31.7999 278.469 32.0698C278.204 32.3397 277.852 32.5693 277.411 32.7587C276.971 32.9481 276.433 33.0428 275.799 33.0428ZM276.055 31.5371C276.718 31.5371 277.276 31.4069 277.731 31.1465C278.19 30.8861 278.536 30.5499 278.768 30.138C279.004 29.726 279.123 29.2928 279.123 28.8382V27.3042C279.052 27.3894 278.896 27.4675 278.654 27.5385C278.417 27.6048 278.143 27.664 277.83 27.7161C277.522 27.7634 277.222 27.806 276.928 27.8439C276.639 27.8771 276.405 27.9055 276.225 27.9292C275.79 27.986 275.382 28.0783 275.004 28.2061C274.629 28.3292 274.326 28.5163 274.094 28.7672C273.867 29.0134 273.754 29.3496 273.754 29.7757C273.754 30.3581 273.969 30.7985 274.4 31.0968C274.835 31.3903 275.387 31.5371 276.055 31.5371ZM288.603 21.878V23.2985H282.949V21.878H288.603ZM284.597 19.2644H286.273V29.6621C286.273 30.1356 286.342 30.4907 286.479 30.7275C286.621 30.9595 286.801 31.1157 287.019 31.1962C287.241 31.272 287.476 31.3098 287.722 31.3098C287.907 31.3098 288.058 31.3004 288.176 31.2814C288.295 31.2578 288.39 31.2388 288.461 31.2246L288.801 32.7303C288.688 32.7729 288.529 32.8155 288.326 32.8581C288.122 32.9055 287.864 32.9292 287.551 32.9292C287.078 32.9292 286.614 32.8274 286.159 32.6238C285.71 32.4202 285.336 32.11 285.037 31.6934C284.744 31.2767 284.597 30.7511 284.597 30.1167V19.2644ZM291.124 32.7871V21.878H292.8V32.7871H291.124ZM291.976 20.0598C291.65 20.0598 291.368 19.9486 291.131 19.726C290.899 19.5035 290.783 19.236 290.783 18.9235C290.783 18.611 290.899 18.3435 291.131 18.1209C291.368 17.8984 291.65 17.7871 291.976 17.7871C292.303 17.7871 292.582 17.8984 292.814 18.1209C293.051 18.3435 293.169 18.611 293.169 18.9235C293.169 19.236 293.051 19.5035 292.814 19.726C292.582 19.9486 292.303 20.0598 291.976 20.0598ZM300.302 33.0144C299.317 33.0144 298.453 32.78 297.71 32.3113C296.971 31.8425 296.393 31.1867 295.977 30.3439C295.565 29.5011 295.359 28.5163 295.359 27.3894C295.359 26.253 295.565 25.2611 295.977 24.4135C296.393 23.566 296.971 22.9078 297.71 22.4391C298.453 21.9703 299.317 21.736 300.302 21.736C301.287 21.736 302.148 21.9703 302.887 22.4391C303.63 22.9078 304.208 23.566 304.62 24.4135C305.037 25.2611 305.245 26.253 305.245 27.3894C305.245 28.5163 305.037 29.5011 304.62 30.3439C304.208 31.1867 303.63 31.8425 302.887 32.3113C302.148 32.78 301.287 33.0144 300.302 33.0144ZM300.302 31.5087C301.05 31.5087 301.665 31.3169 302.148 30.9334C302.631 30.5499 302.989 30.0456 303.221 29.4206C303.453 28.7956 303.569 28.1185 303.569 27.3894C303.569 26.6602 303.453 25.9808 303.221 25.351C302.989 24.7213 302.631 24.2123 302.148 23.824C301.665 23.4358 301.05 23.2417 300.302 23.2417C299.554 23.2417 298.938 23.4358 298.455 23.824C297.972 24.2123 297.615 24.7213 297.383 25.351C297.151 25.9808 297.035 26.6602 297.035 27.3894C297.035 28.1185 297.151 28.7956 297.383 29.4206C297.615 30.0456 297.972 30.5499 298.455 30.9334C298.938 31.3169 299.554 31.5087 300.302 31.5087ZM309.48 26.2246V32.7871H307.804V21.878H309.423V23.5826H309.565C309.821 23.0286 310.209 22.5835 310.73 22.2473C311.251 21.9064 311.923 21.736 312.747 21.736C313.485 21.736 314.132 21.8875 314.686 22.1905C315.24 22.4888 315.671 22.9434 315.978 23.5542C316.286 24.1602 316.44 24.9273 316.44 25.8553V32.7871H314.764V25.9689C314.764 25.1119 314.541 24.4443 314.096 23.9661C313.651 23.4831 313.04 23.2417 312.264 23.2417C311.729 23.2417 311.251 23.3577 310.829 23.5897C310.413 23.8217 310.083 24.1602 309.842 24.6053C309.6 25.0504 309.48 25.5901 309.48 26.2246ZM325.724 25.5144C325.724 23.7246 325.956 22.0792 326.42 20.5783C326.889 19.0726 327.557 17.6877 328.423 16.4235H329.901C329.56 16.8922 329.24 17.4699 328.942 18.1564C328.648 18.8382 328.39 19.5887 328.168 20.4078C327.945 21.2222 327.77 22.065 327.642 22.9363C327.519 23.8075 327.457 24.6668 327.457 25.5144C327.457 26.6413 327.566 27.7847 327.784 28.9448C328.002 30.1048 328.295 31.182 328.665 32.1763C329.034 33.1706 329.446 33.9803 329.901 34.6053H328.423C327.557 33.3411 326.889 31.9585 326.42 30.4576C325.956 28.9519 325.724 27.3042 325.724 25.5144ZM332.346 32.7871V31.5087L337.147 26.253C337.71 25.6375 338.174 25.1024 338.539 24.6479C338.903 24.1886 339.173 23.7578 339.348 23.3553C339.528 22.9481 339.618 22.522 339.618 22.0769C339.618 21.5655 339.495 21.1228 339.249 20.7488C339.007 20.3747 338.676 20.0859 338.255 19.8823C337.833 19.6787 337.36 19.5769 336.834 19.5769C336.275 19.5769 335.788 19.6929 335.371 19.9249C334.959 20.1522 334.64 20.4718 334.412 20.8837C334.19 21.2956 334.078 21.7786 334.078 22.3326H332.402C332.402 21.4803 332.599 20.7322 332.992 20.0882C333.385 19.4443 333.92 18.9424 334.597 18.5826C335.279 18.2227 336.043 18.0428 336.891 18.0428C337.743 18.0428 338.498 18.2227 339.157 18.5826C339.815 18.9424 340.331 19.4277 340.705 20.0385C341.079 20.6493 341.266 21.3288 341.266 22.0769C341.266 22.6119 341.169 23.1351 340.975 23.6465C340.785 24.1531 340.454 24.7189 339.98 25.3439C339.512 25.9642 338.861 26.7218 338.027 27.6167L334.76 31.111V31.2246H341.522V32.7871H332.346ZM344.711 32.7871V18.2417H353.432V19.8042H346.472V24.7189H352.779V26.2814H346.472V32.7871H344.711ZM355.229 32.7871H353.382L358.723 18.2417H360.542L365.882 32.7871H364.036L359.689 20.5428H359.576L355.229 32.7871ZM355.911 27.1053H363.354V28.6678H355.911V27.1053ZM371.5 25.5144C371.5 27.3042 371.266 28.9519 370.797 30.4576C370.333 31.9585 369.668 33.3411 368.801 34.6053H367.324C367.665 34.1365 367.982 33.5589 368.276 32.8723C368.574 32.1905 368.835 31.4424 369.057 30.628C369.28 29.8089 369.453 28.9637 369.576 28.0925C369.703 27.2166 369.767 26.3572 369.767 25.5144C369.767 24.3875 369.658 23.244 369.441 22.084C369.223 20.9239 368.929 19.8468 368.56 18.8524C368.191 17.8581 367.779 17.0485 367.324 16.4235H368.801C369.668 17.6877 370.333 19.0726 370.797 20.5783C371.266 22.0792 371.5 23.7246 371.5 25.5144Z" fill="white"/>
</svg>
