<svg width="72" height="62" viewBox="0 0 72 62" fill="none" xmlns="http://www.w3.org/2000/svg">
<g clip-path="url(#clip0_8875_4099)">
<path d="M65.3917 12.0358C58.2901 7.95728 49.2092 10.3808 45.1053 17.4462L34.7603 35.2754C31.7669 40.4239 35.6204 42.223 39.9174 44.7862L49.8718 50.5022C53.2427 52.4367 57.5484 51.2883 59.4928 47.939L70.1276 29.6162C73.7003 23.4592 71.5803 15.5904 65.3917 12.0358Z" fill="#EA4335"/>
<path d="M53.6862 19.4154L43.7318 13.6994C38.2367 10.6645 35.1248 10.4637 32.8687 14.0313L18.1873 39.3278C14.0878 46.3888 16.5282 55.4192 23.6253 59.4889C29.8139 63.0434 37.7232 60.9343 41.2959 54.7772L56.2583 28.9916C58.2114 25.638 57.0571 21.3499 53.6862 19.4154Z" fill="#FBBC04"/>
<path d="M55.6021 6.41151L48.6103 2.39413C40.8768 -2.04684 30.9882 0.586297 26.5245 8.28046L13.2123 31.2188C11.246 34.6031 12.4135 38.9348 15.8151 40.8868L23.6453 45.3845C27.512 47.6073 32.454 46.2884 34.6882 42.4413L49.8964 16.2367C53.0477 10.8088 60.022 8.94858 65.4776 12.0839L55.6021 6.41151Z" fill="#34A853"/>
<path d="M28.4156 14.8434L20.8576 10.5116C17.4867 8.58149 13.1811 9.72556 11.2367 13.0705L2.16886 28.6597C-2.29487 36.332 0.351763 46.1485 8.08535 50.5764L13.8395 53.8731L20.8181 57.873L23.8466 59.6066C18.4699 56.026 16.7626 48.8514 20.05 43.2009L22.3981 39.166L30.9964 24.3846C32.9364 21.0486 31.7821 16.7734 28.4156 14.8434Z" fill="#4285F4"/>
</g>
<defs>
<clipPath id="clip0_8875_4099">
<rect width="72" height="61" fill="white" transform="translate(0 0.236328)"/>
</clipPath>
</defs>
</svg>
