<svg width="72" height="74" viewBox="0 0 72 74" fill="none" xmlns="http://www.w3.org/2000/svg">
<g clip-path="url(#clip0_7869_14678)">
<path d="M71.721 44.3076C71.2893 43.0046 70.1584 42.097 68.6959 41.8793C68.0063 41.7767 67.2165 41.8204 66.2819 42.0124C64.6529 42.3473 63.4444 42.4749 62.5624 42.4995C65.8915 36.8982 68.5986 30.5108 70.157 24.498C72.677 14.7756 71.3304 10.3464 69.7568 8.34297C65.5923 3.04016 59.5165 0.191449 52.1865 0.104283C48.2763 0.0566365 44.8436 0.825991 43.0529 1.37925C41.3857 1.08609 39.593 0.922406 37.712 0.892136C34.186 0.836081 31.0705 1.60207 28.4085 3.17638C26.9348 2.67973 24.5695 1.9796 21.838 1.53284C15.4136 0.481814 10.2358 1.30078 6.44852 3.96703C1.86245 7.19524 -0.263515 12.8041 0.129673 20.6378C0.254548 23.125 1.65067 30.6924 3.84892 37.8691C5.1123 41.9942 6.45949 45.4197 7.85308 48.0515C9.82942 51.7834 11.9441 53.981 14.3182 54.7702C15.6488 55.212 18.0664 55.5214 20.6092 53.4109C20.9315 53.7999 21.3615 54.1864 21.9322 54.5455C22.657 55.0009 23.5432 55.3731 24.4283 55.5937C27.6179 56.3883 30.6056 56.1896 33.1546 55.0757C33.1704 55.5275 33.1825 55.9592 33.1926 56.3319C33.2095 56.9365 33.2263 57.5293 33.2486 58.0837C33.3996 61.8321 33.6555 64.7466 34.4138 66.7859C34.4554 66.898 34.5114 67.069 34.5704 67.2503C34.9487 68.4045 35.5812 70.3367 37.1905 71.8499C38.857 73.4175 40.8727 73.8982 42.7188 73.8982C43.6447 73.8982 44.5281 73.7771 45.3029 73.6117C48.0648 73.0218 51.2016 72.1232 53.4707 68.9034C55.6161 65.8596 56.659 61.2751 56.8477 54.0516C56.8721 53.8473 56.8946 53.6522 56.9163 53.4664L56.9613 53.0847L57.4667 53.129L57.5969 53.1376C60.41 53.2654 63.8497 52.671 65.9621 51.6931C67.6314 50.9212 72.9805 48.107 71.721 44.3076Z" fill="black"/>
<path d="M66.9111 45.0463C58.5467 46.7658 57.9716 43.9437 57.9716 43.9437C66.8028 30.8849 70.4948 14.3086 67.3091 10.2516C58.6173 -0.815079 43.5719 4.41878 43.3207 4.55443L43.24 4.569C41.5874 4.22707 39.7381 4.02359 37.6594 3.98968C33.8749 3.92802 31.0039 4.97849 28.8254 6.62482C28.8254 6.62482 1.98567 -4.39391 3.23414 20.4827C3.49964 25.7749 10.8459 60.5265 19.608 50.0299C22.8105 46.1915 25.9051 42.9462 25.9051 42.9462C27.4419 43.9636 29.2818 44.4827 31.2106 44.2963L31.3605 44.1696C31.3139 44.6461 31.3352 45.1122 31.4205 45.664C29.1631 48.1773 29.8266 48.6184 25.3142 49.5442C20.7481 50.482 23.4304 52.1513 25.1818 52.588C27.3049 53.1168 32.2167 53.8663 35.5354 49.2364L35.4032 49.7648C36.2875 50.4708 36.9085 54.3565 36.8044 57.8793C36.7004 61.4018 36.6309 63.8203 37.3275 65.7093C38.0248 67.5984 38.7192 71.8487 44.6513 70.5822C49.6078 69.5236 52.1764 66.7805 52.5339 62.2048C52.7873 58.9519 53.3613 59.4328 53.3973 56.5244L53.8577 55.1477C54.3885 50.7381 53.9421 49.3155 56.9956 49.9772L57.7381 50.0422C59.9853 50.144 62.9272 49.6818 64.6538 48.8822C68.3714 47.163 70.5764 44.2921 66.9105 45.0463H66.9111Z" fill="#336791"/>
<path d="M30.3964 22.8495C29.6426 22.7449 28.96 22.8416 28.6147 23.1023C28.4206 23.2489 28.3604 23.4187 28.3441 23.5356C28.3008 23.8453 28.5185 24.1878 28.6524 24.3644C29.0309 24.8644 29.5839 25.208 30.1312 25.2837C30.2105 25.2949 30.2895 25.2999 30.368 25.2999C31.2806 25.2999 32.1106 24.5917 32.1837 24.069C32.2751 23.4142 31.3214 22.9776 30.3964 22.8495ZM55.3669 22.8702C55.2949 22.357 54.3786 22.2107 53.509 22.3312C52.6405 22.4518 51.7984 22.8425 51.8687 23.3568C51.925 23.7567 52.6497 24.4395 53.5075 24.4395C53.5801 24.4395 53.6532 24.4347 53.7269 24.4243C54.2995 24.3453 54.7197 23.9829 54.9194 23.7741C55.2232 23.4557 55.3992 23.1009 55.3669 22.8702Z" fill="white"/>
<path d="M69.6943 44.851C69.3754 43.8899 68.3488 43.5808 66.6433 43.9317C61.5794 44.9732 59.7659 44.2518 59.1705 43.8148C63.1066 37.8394 66.3446 30.6161 68.0915 23.8769C68.9189 20.6846 69.3759 17.7198 69.4133 15.3033C69.4547 12.6511 69.0013 10.702 68.0664 9.51141C64.2971 4.7117 58.7649 2.1371 52.0684 2.06647C47.4646 2.0149 43.5749 3.18897 42.8209 3.51913C41.2329 3.12563 39.5018 2.88403 37.6172 2.8532C34.1612 2.79742 31.1737 3.62199 28.7004 5.3028C27.626 4.90425 24.8495 3.9544 21.454 3.40926C15.5838 2.46754 10.919 3.18112 7.59008 5.53123C3.61798 8.33566 1.78423 13.3487 2.13945 20.4306C2.25898 22.8133 3.62136 30.143 5.77123 37.1625C8.60117 46.4015 11.6775 51.6317 14.9141 52.7077C15.293 52.8335 15.7297 52.9215 16.2115 52.9215C17.3922 52.9215 18.8398 52.3912 20.3459 50.5868C22.1829 48.3908 24.0832 46.248 26.0443 44.1612C27.3167 44.8418 28.7145 45.2218 30.1441 45.2599C30.1469 45.2972 30.1505 45.3345 30.1539 45.3715C29.9078 45.6639 29.6669 45.9606 29.4311 46.2613C28.4405 47.5145 28.2344 47.7754 25.0459 48.4296C24.1388 48.6162 21.7299 49.1109 21.6945 50.7937C21.6562 52.6323 24.5421 53.4044 24.8709 53.4863C26.0167 53.7722 27.1206 53.9131 28.1734 53.9131C30.7336 53.9131 32.9867 53.0746 34.7872 51.452C34.7318 58.0065 35.0061 64.4652 35.7958 66.433C36.4427 68.044 38.0227 71.9811 43.0138 71.9808C43.7462 71.9808 44.5522 71.8959 45.439 71.7064C50.6481 70.5937 52.9101 68.2994 53.7851 63.2412C54.2534 60.538 55.0569 54.083 55.4349 50.6205C56.2326 50.8685 57.2594 50.982 58.3695 50.9817C60.6847 50.9817 63.3563 50.4915 65.0317 49.7166C66.9139 48.8455 70.3102 46.7081 69.6943 44.851ZM57.2895 21.4536C57.2723 22.4758 57.1311 23.4038 56.9815 24.3724C56.8204 25.4142 56.6539 26.4913 56.612 27.7988C56.5706 29.0712 56.7301 30.3941 56.8842 31.6736C57.1958 34.2577 57.5156 36.9181 56.2778 39.5432C56.0722 39.1801 55.8891 38.8049 55.7294 38.4195C55.5756 38.0479 55.2414 37.4509 54.7788 36.6246C52.979 33.4082 48.7645 25.8761 50.922 22.8026C51.5646 21.8878 53.1956 20.9472 57.2895 21.4536ZM52.3271 4.1363C58.3273 4.26831 63.0737 6.50518 66.4341 10.7844C69.0114 14.0667 66.1733 29.0017 57.9572 41.8863C57.8746 41.7816 57.7915 41.6772 57.708 41.5732L57.6039 41.4437C59.7271 37.9495 59.312 34.4923 58.9424 31.4272C58.7905 30.1694 58.6471 28.9813 58.6836 27.8652C58.7213 26.6825 58.8783 25.6679 59.0301 24.6869C59.2166 23.4781 59.4065 22.2272 59.3541 20.7527C59.3932 20.598 59.409 20.4152 59.3885 20.1983C59.2549 18.7843 57.6349 14.5524 54.333 10.7222C52.5268 8.62714 49.8929 6.28264 46.2966 4.70133C47.8434 4.38182 49.9587 4.08389 52.3271 4.1363ZM18.752 49.2662C17.0927 51.2544 15.9469 50.8733 15.57 50.7483C13.1147 49.9321 10.2656 44.7605 7.75376 36.5596C5.58026 29.4636 4.31014 22.3281 4.20945 20.3272C3.8922 13.9992 5.43148 9.58905 8.78483 7.21904C14.2422 3.36246 23.2146 5.6708 26.82 6.84151C26.7682 6.89252 26.7142 6.94017 26.663 6.99202C20.7467 12.9462 20.887 23.119 20.9016 23.741C20.9011 23.9809 20.9213 24.3206 20.9489 24.7878C21.0507 26.4989 21.2403 29.6834 20.734 33.2897C20.2638 36.6409 21.3005 39.921 23.5777 42.289C23.8114 42.5316 24.0571 42.7624 24.3138 42.9807C23.3001 44.0626 21.0971 46.455 18.752 49.2662ZM25.0743 40.8599C23.2388 38.9512 22.4052 36.2964 22.7869 33.5755C23.3212 29.766 23.1241 26.4481 23.018 24.6656C23.0031 24.4162 22.9899 24.1975 22.9823 24.0252C23.8466 23.2614 27.8519 21.1229 30.7083 21.7751C32.0116 22.0725 32.8058 22.957 33.136 24.4784C34.8449 32.3549 33.3621 35.6378 32.1708 38.276C31.9252 38.8195 31.6932 39.3332 31.4952 39.8646L31.3416 40.2755C30.953 41.3142 30.5913 42.28 30.3671 43.1971C28.4158 43.1915 26.5176 42.3608 25.0743 40.8596V40.8599ZM25.3738 51.4823C24.804 51.3405 24.2915 51.0941 23.9909 50.8898C24.242 50.7721 24.689 50.6118 25.4641 50.4526C29.2151 49.6832 29.7945 49.1401 31.0595 47.5394C31.3495 47.1722 31.6783 46.7563 32.1336 46.2496L32.1342 46.249C32.8123 45.4923 33.1225 45.6206 33.685 45.8533C34.1409 46.041 34.585 46.6106 34.765 47.2373C34.8502 47.5332 34.9459 48.0949 34.6328 48.5321C31.9902 52.2194 28.1393 52.1721 25.3738 51.4823ZM45.0048 69.6867C40.4159 70.6666 38.7911 68.3333 37.7204 65.6659C37.0294 63.9439 36.6896 56.1786 36.9306 47.603C36.9337 47.4889 36.9174 47.3788 36.8859 47.2751C36.8577 47.0703 36.8149 46.8678 36.7577 46.6691C36.3994 45.4214 35.5261 44.3776 34.4784 43.9449C34.0622 43.7731 33.2983 43.4578 32.3803 43.6918C32.576 42.888 32.9155 41.9801 33.2837 40.9972L33.4381 40.5838C33.6119 40.1177 33.8301 39.6348 34.0608 39.1236C35.3075 36.3634 37.015 32.5828 35.1619 24.042C34.4677 20.8429 32.1497 19.2807 28.6357 19.6436C26.5292 19.8608 24.6018 20.7078 23.6405 21.1936C23.4337 21.2978 23.2447 21.3987 23.0681 21.4968C23.3364 18.2736 24.35 12.25 28.1419 8.4388C30.5294 6.03964 33.7089 4.85464 37.5829 4.91854C45.216 5.04299 50.1109 8.94666 52.8733 12.1998C55.2538 15.0028 56.5428 17.8266 57.0572 19.3496C53.1886 18.9575 50.5575 19.7185 49.2238 21.6187C46.3221 25.7522 50.8112 33.7748 52.9686 37.6306C53.3644 38.3371 53.7058 38.9479 53.8132 39.2074C54.5158 40.9042 55.4254 42.037 56.0894 42.8639C56.293 43.1172 56.4905 43.363 56.6406 43.5777C55.469 43.9143 53.3644 44.6921 53.5562 48.5798C53.4015 50.5305 52.3015 59.6635 51.7427 62.8903C51.005 67.1533 49.4308 68.7411 45.0048 69.687V69.6867ZM64.159 47.8432C62.9609 48.3973 60.9559 48.813 59.0512 48.9024C56.9475 49.0005 55.8765 48.6675 55.6245 48.4626C55.5064 46.0399 56.4111 45.7868 57.3688 45.5189C57.5193 45.4769 57.6661 45.4357 57.8078 45.3863C57.8959 45.4578 57.9923 45.5287 58.0981 45.5982C59.789 46.7103 62.8048 46.8303 67.0626 45.9544L67.1093 45.9452C66.535 46.4802 65.5523 47.1983 64.159 47.8432Z" fill="white"/>
</g>
<defs>
<clipPath id="clip0_7869_14678">
<rect width="72" height="74" fill="white"/>
</clipPath>
</defs>
</svg>
