<svg width="72" height="81" viewBox="0 0 72 81" fill="none" xmlns="http://www.w3.org/2000/svg">
<g clip-path="url(#clip0_7869_14563)">
<path d="M30.5532 71.5602C33.107 71.5602 35.1773 73.6305 35.1773 76.1843C35.1773 78.7381 33.107 80.8084 30.5532 80.8084C27.9994 80.8084 25.9291 78.7381 25.9291 76.1843C25.9291 73.6305 27.9994 71.5602 30.5532 71.5602ZM56.2077 63.1233L60.7773 64.4772L57.15 76.7194C56.833 77.7891 55.8163 78.4957 54.7032 78.4199L53.5828 78.343L53.5554 78.3656L41.9145 77.5488L42.2384 72.7938L50.0594 73.3246L44.9392 65.9384L48.8558 63.2229L53.9828 70.6182L56.2077 63.1233ZM6.47232 54.6602L11.2263 54.997L10.6695 62.8168L18.0422 57.69L20.7639 61.6024L13.3815 66.7346L20.9168 68.9549L19.5699 73.5266L7.2699 69.9028C6.19606 69.5864 5.48722 68.5652 5.56633 67.4486L6.47232 54.6602ZM37.1676 48.0013L45.7478 58.3603L41.8807 61.5633L36.7744 55.3984L35.1188 64.877L30.1726 64.0124L31.8297 54.519L24.9552 58.5723L22.4065 54.2459L33.9597 47.4397C35.0218 46.8139 36.3812 47.0519 37.1676 48.0013ZM61.1731 41.0513L65.4593 38.7194L71.7032 50.1957C72.2502 51.2011 72.0248 52.4515 71.1612 53.2026L70.2778 53.9658L61.2636 61.8107L58.0615 58.1289L64.1218 52.8566L55.0951 51.2304L55.961 46.4285L64.9814 48.0538L61.1731 41.0513ZM10.6262 29.0529L13.855 32.7113L7.87799 37.9829L16.9219 39.5618L16.0837 44.3687L7.02977 42.7885L10.9187 49.8191L6.64906 52.181L0.304986 40.7129C-0.248913 39.7116 -0.0324971 38.4599 0.825435 37.7027L10.6262 29.0529ZM41.1965 25.2787L49.7476 35.6099L45.8795 38.8115L40.7743 32.6439L39.1188 42.1253L34.1726 41.2607L35.824 31.8042L28.9758 35.8185L26.4368 31.4865L36.9559 25.3191L36.9663 25.279L37.0127 25.285L37.9929 24.7135C39.0549 24.091 40.4116 24.3304 41.1965 25.2787ZM52.2157 20.1978L54.0859 15.691L66.1833 20.7112C67.2391 21.1494 67.8492 22.262 67.6508 23.3879L67.4494 24.5077L65.3836 36.2586L60.5782 35.4121L61.9629 27.546L53.937 31.9818L51.5785 27.7102L59.6197 23.2709L52.2157 20.1978ZM29.1704 11.3168L29.3784 16.1917L21.3872 16.5333L27.4143 23.4211L23.7422 26.6342L17.7049 19.7361L16.2983 27.6114L11.4952 26.7523L13.797 13.8826C13.9982 12.7578 14.9531 11.9234 16.0946 11.8747L17.2255 11.8241L17.2508 11.8057L29.1704 11.3168ZM45.517 0.920235L54.0295 11.3167L50.1444 14.4977L45.0921 8.32622L43.388 17.7951L38.4461 16.9058L40.1531 7.41558L33.255 11.4486L30.7217 7.11328L42.3078 0.34309C43.3739 -0.279878 44.7347 -0.0351444 45.517 0.920235Z" fill="#201D1E"/>
</g>
<defs>
<clipPath id="clip0_7869_14563">
<rect width="72" height="81" fill="white"/>
</clipPath>
</defs>
</svg>
