<svg width="72" height="72" viewBox="0 0 72 72" fill="none" xmlns="http://www.w3.org/2000/svg">
<g clip-path="url(#clip0_7881_14363)">
<path d="M33.447 0.104458C49.3548 -0.998582 59.9025 6.78606 65.9335 16.2707C68.9575 21.0263 71.9245 28.2491 71.9382 35.6703C71.9528 43.7336 69.3407 50.7163 65.9335 55.8397C62.4317 61.1056 57.9024 65.455 52.2307 68.3109C42.75 73.0849 29.5003 73.2154 20.8218 68.6188C11.1567 63.4999 3.72562 56.1934 0.960345 43.5225C-0.146295 38.4518 -0.273495 31.8999 1.26826 26.2785C1.63006 24.9598 2.28754 23.572 2.80798 22.2754C5.30902 16.0445 9.56602 10.6263 14.8172 6.87882C16.9273 5.37306 19.4871 3.87546 21.7457 2.87574C24.5558 1.63194 29.2872 0.392818 33.447 0.104458Z" fill="white"/>
<path d="M63.6221 36.567C63.6221 51.6015 51.4342 63.7886 36.3999 63.7886C21.3655 63.7886 9.17786 51.6015 9.17786 36.567C9.17786 21.5328 21.3655 9.34473 36.3999 9.34473C51.4341 9.34473 63.6221 21.5328 63.6221 36.567Z" fill="black"/>
<path d="M33.447 0.104458C49.3548 -0.998582 59.9025 6.78606 65.9335 16.2707C68.9575 21.0263 71.9245 28.2491 71.9382 35.6703C71.9528 43.7336 69.3407 50.7163 65.9335 55.8397C62.4317 61.1056 57.9024 65.455 52.2307 68.3109C42.75 73.0849 29.5003 73.2154 20.8218 68.6188C11.1567 63.4999 3.72562 56.1934 0.960345 43.5225C-0.146295 38.4518 -0.273495 31.8999 1.26826 26.2785C1.63006 24.9598 2.28754 23.572 2.80798 22.2754C5.30902 16.0445 9.56602 10.6263 14.8172 6.87882C16.9273 5.37306 19.4871 3.87546 21.7457 2.87574C24.5558 1.63194 29.2872 0.392818 33.447 0.104458ZM28.0581 2.7219C22.1495 4.25382 17.8171 6.99834 14.0474 9.95826C8.61155 14.2264 5.14618 20.1826 3.1159 27.3562C0.857145 35.3372 2.30806 44.995 5.42542 51.0668C8.6581 57.3634 12.9986 62.2511 19.1282 65.6935C25.0916 69.0424 33.4791 71.1928 42.2231 69.5426C49.9919 68.0764 55.8921 64.6921 60.6989 59.6888C67.1299 52.9946 72.2987 40.6647 68.8591 27.6641C67.9397 24.1895 66.7376 20.5682 64.8559 17.5024C63.8393 15.8462 62.3474 14.2168 60.8528 12.5756C55.2121 6.38106 46.0953 1.0431 34.3707 1.79802C32.1395 1.94166 30.1785 2.17206 28.0581 2.7219Z" fill="black"/>
<path d="M38.1309 69.2997L69.5874 37.8439L69.4177 37.6742L37.9612 69.13L38.1309 69.2997Z" fill="white"/>
<path d="M35.381 66.8085L66.9747 35.2154L66.805 35.0457L35.2113 66.6388L35.381 66.8085Z" fill="white"/>
<path d="M32.631 64.3177L64.3621 32.5871L64.1924 32.4174L32.4613 64.148L32.631 64.3177Z" fill="white"/>
<path d="M29.8809 61.8265L61.7493 29.9586L61.5796 29.7889L29.7112 61.6567L29.8809 61.8265Z" fill="white"/>
<path d="M27.131 59.3354L59.1367 27.3302L58.967 27.1605L26.9613 59.1657L27.131 59.3354Z" fill="white"/>
<path d="M24.381 56.8449L56.5238 24.7018L56.3541 24.5321L24.2113 56.6752L24.381 56.8449Z" fill="white"/>
<path d="M21.6309 54.3533L53.9111 22.0735L53.7414 21.9038L21.4612 54.1836L21.6309 54.3533Z" fill="white"/>
<path d="M18.8809 51.8621L51.2983 19.445L51.1286 19.2753L18.7112 51.6924L18.8809 51.8621Z" fill="white"/>
<path d="M16.1309 49.3711L48.685 16.8167L48.5153 16.647L15.9612 49.2014L16.1309 49.3711Z" fill="white"/>
<path d="M13.3809 46.8799L46.0728 14.1883L45.9031 14.0186L13.2112 46.7102L13.3809 46.8799Z" fill="white"/>
<path d="M10.6309 44.389L43.4601 11.56L43.2904 11.3903L10.4612 44.2193L10.6309 44.389Z" fill="white"/>
<path d="M7.88089 41.8978L40.8475 8.93142L40.6778 8.76172L7.71118 41.7281L7.88089 41.8978Z" fill="white"/>
<path d="M5.13076 39.4067L38.2347 6.30313L38.065 6.13342L4.96106 39.237L5.13076 39.4067Z" fill="white"/>
<path d="M2.38076 36.9156L35.622 3.67471L35.4523 3.505L2.21106 36.7458L2.38076 36.9156Z" fill="white"/>
<path d="M2.20032 37.2335L34.2854 69.3201L34.4551 69.1504L2.37003 37.0638L2.20032 37.2335Z" fill="white"/>
<path d="M4.80225 34.5944L36.9498 66.7435L37.1195 66.5738L4.97196 34.4247L4.80225 34.5944Z" fill="white"/>
<path d="M7.4043 31.9552L39.6142 64.1666L39.7839 63.9969L7.57401 31.7855L7.4043 31.9552Z" fill="white"/>
<path d="M10.0062 29.3161L42.2787 61.5899L42.4484 61.4202L10.1759 29.1464L10.0062 29.3161Z" fill="white"/>
<path d="M12.608 26.6769L44.9429 59.0131L45.1126 58.8434L12.7777 26.5072L12.608 26.6769Z" fill="white"/>
<path d="M15.21 24.0377L47.6074 56.4363L47.7771 56.2666L15.3797 23.868L15.21 24.0377Z" fill="white"/>
<path d="M17.812 21.3986L50.2719 53.8595L50.4416 53.6898L17.9817 21.2289L17.812 21.3986Z" fill="white"/>
<path d="M20.4138 18.7594L52.9362 51.2827L53.1059 51.113L20.5835 18.5897L20.4138 18.7594Z" fill="white"/>
<path d="M23.0157 16.1203L55.6007 48.7059L55.7704 48.5362L23.1855 15.9506L23.0157 16.1203Z" fill="white"/>
<path d="M25.6177 13.4811L58.2649 46.1289L58.4346 45.9592L25.7874 13.3114L25.6177 13.4811Z" fill="white"/>
<path d="M28.2197 10.8419L60.9294 43.5524L61.0992 43.3827L28.3894 10.6722L28.2197 10.8419Z" fill="white"/>
<path d="M30.8215 8.20278L63.5938 40.9755L63.7635 40.8058L30.9912 8.03308L30.8215 8.20278Z" fill="white"/>
<path d="M33.4235 5.56375L66.2581 38.3989L66.4278 38.2292L33.5932 5.39404L33.4235 5.56375Z" fill="white"/>
<path d="M36.0255 2.92459L68.9226 35.822L69.0923 35.6523L36.1952 2.75488L36.0255 2.92459Z" fill="white"/>
<path d="M59.0052 12.7296C56.174 9.8984 52.6933 7.3472 48.5356 5.80112C44.2259 4.19852 39.3508 2.84768 33.601 3.33764C24.4418 4.11836 18.011 8.22776 13.1236 13.0375C9.7002 16.4062 7.12512 20.5344 5.42532 25.3546C2.92956 32.4324 3.081 40.7864 5.8872 47.9875C8.28084 54.1299 12.1986 59.0842 17.7425 62.9221C22.9542 66.5301 30.4343 69.3284 38.8356 68.6188C49.0682 67.7546 56.5553 62.5048 61.4684 56.4556C62.7256 54.9081 63.9755 53.1589 64.7016 51.0669C65.4131 49.5596 65.7613 48.5349 66.0874 47.9876C67.452 44.9298 68.175 41.7034 68.3968 38.1339C69.079 27.1549 64.8547 18.5792 59.0052 12.7296ZM55.9895 46.1793C55.9699 46.2211 55.9524 46.26 55.932 46.303C55.4244 47.7556 54.55 48.9703 53.6711 50.045C50.235 54.2455 44.9995 57.8908 37.8437 58.4911C31.9684 58.9836 26.7374 57.0406 23.0929 54.5353C19.9259 52.3581 17.5184 49.6632 15.8303 46.4244C15.7273 46.2295 14.7469 43.9707 14.744 43.8714C13.4066 39.7231 13.2906 33.0528 14.6633 29.0499C15.5794 26.3784 17.1061 23.4878 19.1282 21.1977C21.9202 18.0356 24.7141 16.0094 29.136 14.5772C31.155 13.9232 32.9624 13.2576 35.4485 13.1916C41.5109 13.0302 47.6843 15.7521 50.9989 18.7342C54.045 21.4747 57.5166 26.8129 58.3894 31.8212C59.2876 36.976 58.329 42.009 55.9895 46.1793Z" fill="black"/>
<path d="M45.4522 51.1239C43.9594 51.1239 42.6494 50.1786 42.1922 48.7714L40.5295 43.7053H32.2117L30.6668 48.7252C30.2005 50.1597 28.8805 51.12 27.38 51.12C27.0197 51.12 26.6619 51.063 26.3164 50.9509C24.5229 50.4124 23.5047 48.482 24.0542 46.6501L31.0749 24.4113C31.5308 22.9966 32.8729 22.0099 34.3389 22.0099H38.0721C39.5464 22.0099 40.8884 22.9798 41.3354 24.3687L48.7189 46.5992C49.3093 48.4167 48.3316 50.3678 46.5407 50.9508C46.1866 51.0657 45.8205 51.1239 45.4522 51.1239Z" fill="white"/>
<path d="M45.4522 50.6439C44.1149 50.6439 42.9434 49.7986 42.5345 48.5402L40.8714 43.473L40.7901 43.2253H40.5294H32.2116H31.9457L31.8675 43.4794L30.3226 48.4994C29.9064 49.7796 28.725 50.64 27.3799 50.64C27.0578 50.64 26.7374 50.589 26.4274 50.4885C24.817 50.0049 23.9065 48.2753 24.3989 46.6335L31.4181 24.3997C31.8255 23.1355 33.0294 22.2499 34.3388 22.2499H38.072C39.3906 22.2499 40.5937 23.1195 40.9926 24.359L48.3771 46.5927C48.9056 48.2195 48.0305 49.9672 46.4292 50.4885C46.1113 50.5917 45.7827 50.6439 45.4522 50.6439ZM45.4522 51.3639C45.8584 51.3639 46.262 51.2998 46.6518 51.1732C48.6334 50.5282 49.7125 48.3731 49.0612 46.368L41.677 24.1353C41.1829 22.6003 39.7022 21.5299 38.072 21.5299H34.3388C32.7155 21.5299 31.2357 22.6184 30.7322 24.1809L23.7108 46.4217C23.1035 48.4464 24.2263 50.5793 26.2128 51.1757C26.5868 51.2971 26.9821 51.36 27.3799 51.36C29.0372 51.36 30.4948 50.2985 31.0091 48.7166L32.5557 43.6912L32.2116 43.9453H40.5294L40.1873 43.6976L41.8501 48.7637C42.3553 50.3186 43.8039 51.3639 45.4522 51.3639Z" fill="black"/>
<path d="M17.8801 14.9225L17.8714 14.9106C16.9959 13.7107 17.2528 12.0322 18.5422 11.0911C19.8316 10.1502 21.4879 10.4143 22.3635 11.6141L22.3722 11.626C23.2477 12.8259 22.9908 14.5045 21.7014 15.4455C20.412 16.3864 18.7557 16.1224 17.8801 14.9225ZM21.199 12.5005L21.1902 12.4887C20.7503 11.8858 19.9312 11.6784 19.2925 12.1445C18.6598 12.6063 18.6106 13.4289 19.0505 14.0319L19.0593 14.0437C19.4993 14.6466 20.3183 14.854 20.9511 14.3922C21.5898 13.9261 21.639 13.1035 21.199 12.5005Z" fill="white"/>
<path d="M26.3214 7.05815L27.6372 6.63599L31.3258 10.9241L29.8622 11.3936L29.2212 10.6292L27.3212 11.2388L27.2516 12.2313L25.8162 12.6919L26.3214 7.05815ZM28.4862 9.69311L27.488 8.46887L27.3813 10.0476L28.4862 9.69311Z" fill="white"/>
<path d="M33.6955 8.34809L33.707 5.44373L35.1628 5.44949L35.1514 8.32433C35.1484 9.07073 35.5239 9.42689 36.1004 9.42929C36.6769 9.43157 37.0551 9.09317 37.0579 8.36897L37.0695 5.45729L38.5253 5.46305L38.5139 8.33045C38.5073 10.0006 37.5512 10.7285 36.0805 10.7226C34.6099 10.7166 33.6891 9.96653 33.6955 8.34809Z" fill="white"/>
<path d="M43.7831 7.8406L42.299 7.3876L42.6657 6.18604L47.0052 7.51048L46.6385 8.71203L45.1544 8.25916L44.0111 12.0051L42.64 11.5866L43.7831 7.8406Z" fill="white"/>
<path d="M50.8815 9.18713L52.075 9.98141L51.0024 11.5933L52.5343 12.6128L53.607 11.0008L54.8005 11.7951L51.9346 16.1018L50.7409 15.3075L51.8301 13.6709L50.298 12.6514L49.209 14.288L48.0155 13.4937L50.8815 9.18713Z" fill="white"/>
<path d="M55.0975 56.266L55.1066 56.2776C56.0275 57.4432 55.8347 59.1306 54.5822 60.1202C53.3296 61.1097 51.6643 60.909 50.7434 59.7435L50.7343 59.7318C49.8134 58.5662 50.0062 56.8788 51.2587 55.8893C52.5112 54.8999 54.1766 55.1004 55.0975 56.266ZM51.8732 58.8132L51.8823 58.8249C52.345 59.4106 53.1715 59.5865 53.792 59.0963C54.4066 58.6107 54.4245 57.7868 53.9617 57.201L53.9525 57.1894C53.4899 56.6037 52.6634 56.4278 52.0487 56.9134C51.4282 57.4036 51.4105 58.2275 51.8732 58.8132Z" fill="white"/>
<path d="M47.0048 64.4618L45.7088 64.9415L41.835 60.82L43.2765 60.2863L43.9507 61.0219L45.822 60.3293L45.8478 59.3347L47.2616 58.8114L47.0048 64.4618ZM44.7261 61.9248L45.7772 63.1038L45.8143 61.522L44.7261 61.9248Z" fill="white"/>
<path d="M39.5865 63.4782L39.7145 66.3797L38.2601 66.4439L38.1333 63.5719C38.1004 62.8263 37.7083 62.4886 37.1324 62.514C36.5565 62.5395 36.1949 62.8957 36.2269 63.6192L36.3553 66.528L34.9009 66.5922L34.7744 63.7277C34.7007 62.0592 35.6209 61.2862 37.09 61.2214C38.5593 61.1565 39.5151 61.8613 39.5865 63.4782Z" fill="white"/>
<path d="M29.4805 64.427L30.9789 64.8315L30.6515 66.0444L26.2701 64.8618L26.5976 63.6488L28.0961 64.0533L29.1169 60.2714L30.5012 60.645L29.4805 64.427Z" fill="white"/>
<path d="M22.398 63.373L21.1681 62.636L22.1635 60.9751L20.5851 60.029L19.5897 61.6899L18.36 60.9529L21.0197 56.5154L22.2494 57.2525L21.2388 58.9388L22.8173 59.8849L23.8279 58.1986L25.0577 58.9358L22.398 63.373Z" fill="white"/>
</g>
<defs>
<clipPath id="clip0_7881_14363">
<rect width="72" height="72" fill="white"/>
</clipPath>
</defs>
</svg>
