<svg width="82" height="55" viewBox="0 0 82 55" fill="none" xmlns="http://www.w3.org/2000/svg">
<path d="M19.3568 24.6316C19.3524 24.4858 19.3346 24.3445 19.3346 24.1957C19.3346 15.8942 26.0184 9.16663 34.2696 9.16663C40.3472 9.16663 45.5626 12.822 47.899 18.0588C49.1174 17.2167 50.5932 16.7198 52.1843 16.7198C56.2803 16.7198 59.6134 19.9988 59.745 24.0916C65.6347 24.5974 70.2143 30.3475 70.2143 34.9282V35.925C70.2143 40.8494 64.9234 45.8333 58.3993 45.8333H23.6007C17.0766 45.8333 11.7858 40.8494 11.7858 35.925V34.9342C11.7858 31.1404 14.931 25.9289 19.3568 24.639V24.6316Z" fill="#262261"/>
<path d="M27.021 26.5063H29.347L31.6686 37.5304H31.7041L34.1647 26.5063H36.4907L33.0305 40.3124H30.2431L27.021 26.5063ZM37.8999 26.5063H42.2444C44.8839 26.5063 46.0388 28.1681 46.0388 30.5276C46.0388 33.0032 44.5955 34.6084 42.0211 34.6084H40.0988V40.3139H37.9043L37.8999 26.5063ZM40.0928 32.9452H41.6499C42.8181 32.9452 43.8384 32.3054 43.8384 30.5648C43.8384 29.0771 43.2469 28.1695 41.4902 28.1695H40.0855L40.0928 32.9452ZM56.3351 35.3627V35.6528C56.3351 38.1478 55.3369 40.5832 52.1059 40.5832C48.6457 40.5832 47.5707 38.3397 47.5707 33.4079C47.5707 28.4716 48.6502 26.2266 52.1281 26.2266C56.0319 26.2266 56.2611 29.1276 56.2611 30.5588V30.8118H54.0697V30.5797C54.0697 29.3032 53.6852 27.8318 52.1089 27.8898C50.4941 27.8898 49.7637 28.897 49.7637 33.3454C49.7637 37.7937 50.4941 38.9154 52.1089 38.9154C53.9351 38.9154 54.1495 36.8624 54.1495 35.5889V35.3508L56.3351 35.3627Z" fill="white"/>
</svg>
