<svg width="74" height="74" viewBox="0 0 74 74" fill="none" xmlns="http://www.w3.org/2000/svg">
<g clip-path="url(#clip0_2427_13418)">
<path d="M35.3784 0H38.2418C45.71 0.309297 53.0927 2.82703 59.0792 7.32831C64.75 11.5423 69.1807 17.4091 71.6401 24.0396C73.0513 27.7321 73.7583 31.6593 74 35.5975V38.032C73.7607 44.5607 71.8817 51.0513 68.3748 56.5794C64.443 62.878 58.5918 67.9858 51.767 70.933C47.2992 72.8704 42.4946 73.9124 37.6255 74H36.386C29.6017 73.8896 22.8521 71.8841 17.1362 68.2234C10.6635 64.1112 5.5078 57.9414 2.66689 50.812C1.09323 46.938 0.254953 42.7928 0 38.6257V35.7599C0.291375 27.4407 3.44158 19.2203 8.90891 12.9263C13.394 7.69484 19.3672 3.74625 25.9503 1.69795C29.0057 0.734219 32.1877 0.237031 35.3784 0ZM14.5635 21.693C14.5462 28.7189 14.5572 35.7443 14.5572 42.768C15.3839 42.7743 16.2106 42.7743 17.0391 42.7743C16.9957 36.7427 17.0975 30.7129 16.9778 24.683C17.2553 25.2074 17.5085 25.7468 17.8248 26.248C21.4109 31.7448 24.9201 37.2891 28.5068 42.7812C29.5115 42.768 30.5163 42.768 31.5211 42.7836C31.5194 35.7536 31.5171 28.7236 31.5234 21.6936C30.7044 21.6856 29.8854 21.6833 29.0664 21.6866C29.1098 27.6529 28.9878 33.6191 29.1387 39.579C25.3768 33.5943 21.5646 27.6436 17.7525 21.6889C16.6895 21.6824 15.6265 21.6837 14.5635 21.693ZM37.0202 21.6866C36.9457 28.7166 37.0179 35.7466 36.9931 42.7743C40.733 42.7656 44.4728 42.7882 48.2145 42.7628C48.201 42.0012 48.2057 41.2394 48.2283 40.478C45.3308 40.4688 42.4315 40.482 39.5316 40.4664C39.4888 38.0325 39.5293 35.5952 39.5085 33.1607C42.0493 33.1156 44.5902 33.1676 47.1282 33.1335C47.1218 32.3952 47.1218 31.657 47.1172 30.9181C44.581 30.9996 42.0453 30.8869 39.5067 30.9251C39.5137 28.5993 39.5183 26.2712 39.5183 23.9425C42.2349 23.9425 44.9515 23.9309 47.6658 23.9494C47.6612 23.1973 47.6658 22.4428 47.6751 21.6912C44.1225 21.682 40.5699 21.6866 37.0202 21.6866ZM50.087 21.7178C50.0893 22.4498 50.0893 23.1793 50.0916 23.9089C52.1081 23.8858 54.1223 23.972 56.1388 23.9292C56.1255 30.2093 56.1411 36.4849 56.1325 42.761C56.9765 42.7859 57.8264 42.7812 58.6704 42.709C58.6011 39.2449 58.7387 35.7784 58.5803 32.316C58.619 30.7557 58.5398 29.1976 58.6479 27.639C58.7092 26.4018 58.4878 25.1664 58.6277 23.9292C60.6603 23.9563 62.6948 23.9378 64.7269 23.9378C64.7176 23.1991 64.7321 22.4603 64.7702 21.7225C59.8741 21.6618 54.9785 21.6681 50.087 21.7178ZM7.83359 39.945C6.69064 40.4711 6.61606 42.2708 7.74745 42.8512C8.74183 43.5334 10.2363 42.6367 10.1912 41.4579C10.2681 40.2994 8.86728 39.3258 7.83359 39.945ZM24.7322 48.7839C22.2595 50.7894 22.289 55.256 25.0212 57.0222C26.5637 58.0021 28.549 57.7992 30.1793 57.1465C30.1862 56.7875 30.1949 56.4302 30.2082 56.0712C28.664 56.8777 26.5024 57.0424 25.193 55.7185C23.4788 53.8471 23.865 50.3599 26.1255 49.084C27.4037 48.411 28.9623 48.6076 30.2221 49.2221C30.218 48.8406 30.2198 48.459 30.2221 48.0775C28.4316 47.4421 26.2203 47.4762 24.7322 48.7839ZM34.68 50.3506C33.5873 50.4778 32.5074 51.056 32.0015 52.0654C31.2771 53.5084 31.3604 55.4572 32.501 56.6672C33.6775 57.9952 35.938 58.0085 37.2301 56.8389C38.632 55.5046 38.7905 53.0996 37.6677 51.541C37.004 50.5992 35.7755 50.2784 34.68 50.3506ZM45.0209 51.9249C44.0612 53.5916 44.2508 56.1163 45.9448 57.25C47.2068 57.9553 48.7966 57.731 50.0344 57.0719C50.0321 56.7152 50.0367 56.3579 50.0523 56.0035C49.077 56.6221 47.7762 57.0765 46.6923 56.4528C45.9355 56.0353 45.7071 55.1479 45.5857 54.357C47.2478 54.3345 48.9076 54.3096 50.5721 54.3143C50.5287 53.2575 50.5038 52.063 49.7338 51.2456C48.4625 49.8407 45.8927 50.2876 45.0209 51.9249ZM40.1566 50.5744V57.5165C40.5335 57.5165 40.9151 57.5165 41.2972 57.5188C41.3105 56.2498 41.2741 54.9785 41.3105 53.7067C41.3198 52.9724 41.6152 52.2278 42.1684 51.7329C42.6315 51.3832 43.257 51.5768 43.7878 51.5907C43.7808 51.223 43.7762 50.8565 43.7745 50.4911C42.7379 50.261 41.8458 50.8681 41.3221 51.715C41.3105 51.3491 41.2989 50.9831 41.2926 50.62C40.9133 50.6062 40.5335 50.5906 40.1566 50.5744Z" fill="#623697"/>
<path d="M33.9694 51.582C34.9244 51.1167 36.2952 51.345 36.8282 52.3336C37.4352 53.4245 37.4219 54.8675 36.749 55.9243C35.8702 57.2459 33.5537 56.9569 32.9779 55.4954C32.3951 54.19 32.6212 52.3255 33.9694 51.582ZM45.6949 53.4268C45.7215 52.5169 46.3563 51.6133 47.2709 51.415C47.8351 51.3201 48.4832 51.419 48.874 51.8734C49.2625 52.2862 49.344 52.8643 49.4406 53.3997C48.1918 53.4066 46.9436 53.3817 45.6949 53.4268Z" fill="#623697"/>
</g>
<defs>
<clipPath id="clip0_2427_13418">
<rect width="74" height="74" fill="white"/>
</clipPath>
</defs>
</svg>
