<svg width="74" height="30" viewBox="0 0 74 30" fill="none" xmlns="http://www.w3.org/2000/svg">
<g clip-path="url(#clip0_7859_14421)">
<path d="M8.19181 25.9425C8.74121 26.6719 9.45519 27.2618 10.2758 27.6643C11.1634 28.103 12.1427 28.3248 13.133 28.3115C13.9338 28.3324 14.7309 28.1968 15.4794 27.9121C16.078 27.6774 16.6125 27.3045 17.0389 26.8241C17.4392 26.356 17.7313 25.8058 17.8948 25.2124C18.0729 24.5712 18.1612 23.9084 18.1569 23.243V20.929H18.1019C17.5828 21.75 16.8342 22.4012 15.9484 22.8023C15.1038 23.1692 14.192 23.3568 13.2709 23.3532C12.3683 23.36 11.473 23.1916 10.6348 22.8574C9.84115 22.5429 9.11499 22.0801 8.49536 21.4937C7.88051 20.9047 7.39212 20.197 7.05986 19.4137C6.7063 18.5867 6.52775 17.6959 6.5354 16.7968C6.52778 15.9004 6.69665 15.0113 7.03244 14.1798C7.34983 13.3932 7.8134 12.6735 8.39871 12.0588C8.98395 11.4491 9.68872 10.9661 10.4691 10.64C11.3042 10.2936 12.2011 10.1202 13.1054 10.1305C13.5172 10.1328 13.928 10.1696 14.3336 10.2405C14.7797 10.3182 15.2151 10.4477 15.6311 10.6263C16.6186 11.0534 17.4723 11.7387 18.1019 12.6099H18.1569V10.4609H19.979V23.243C19.9727 23.994 19.8848 24.7421 19.7166 25.4742C19.5408 26.2657 19.192 27.0088 18.6953 27.6503C18.1302 28.3582 17.407 28.9243 16.5835 29.3035C15.6816 29.744 14.5038 29.9643 13.05 29.9643C11.8691 29.9844 10.696 29.769 9.5995 29.3309C8.55048 28.8824 7.60946 28.2156 6.83934 27.3752L8.19181 25.9425ZM8.52297 16.7419C8.51842 17.3984 8.64515 18.0492 8.89575 18.6563C9.13467 19.2388 9.48104 19.7714 9.91686 20.2264C10.3502 20.6773 10.8654 21.042 11.4352 21.3009C12.0288 21.5701 12.6742 21.7064 13.3261 21.7002C14.6173 21.7049 15.8614 21.2172 16.8042 20.3368C17.2673 19.9008 17.6299 19.3696 17.8671 18.7801C18.1228 18.132 18.2404 17.4379 18.2123 16.7419C18.2169 16.0891 18.1047 15.4407 17.881 14.8272C17.6683 14.2441 17.3396 13.71 16.9147 13.2571C16.4779 12.7979 15.952 12.4324 15.3689 12.1828C14.7233 11.909 14.0275 11.7729 13.3261 11.7832C12.6742 11.7773 12.0288 11.9136 11.4352 12.1828C10.8656 12.4419 10.3504 12.8064 9.91686 13.2571C9.48117 13.7122 9.13477 14.2448 8.89556 14.8272C8.64507 15.4344 8.51841 16.0853 8.52297 16.7419ZM27.4042 23.3532H25.4168V3.84947H31.4346C33.4221 3.84947 34.9909 4.28105 36.1411 5.14421C37.2911 6.00762 37.8663 7.31154 37.8665 9.05597C37.9015 10.3222 37.4411 11.5522 36.5829 12.4855C35.727 13.4131 34.4894 13.9502 32.8701 14.0969L38.5014 23.3532H36.0721L30.717 14.29H27.4044L27.4042 23.3532ZM27.4042 12.4719H30.9377C31.697 12.4879 32.4546 12.3951 33.1874 12.1964C33.7234 12.0534 34.2255 11.8053 34.6644 11.4665C35.0184 11.1822 35.2939 10.8124 35.4648 10.3922C35.6327 9.96684 35.7171 9.51318 35.7133 9.05597C35.7153 8.60799 35.6309 8.16381 35.4648 7.74765C35.2919 7.32462 35.0169 6.95079 34.6644 6.65939C34.2297 6.31394 33.7262 6.06505 33.1874 5.92935C32.4529 5.74064 31.6961 5.65263 30.9377 5.66777H27.4042V12.4719ZM41.9239 3.84947H47.6107C49.5981 3.84947 51.1669 4.28111 52.317 5.1444C53.4671 6.00781 54.0422 7.31173 54.0425 9.05616C54.0425 10.8011 53.4673 12.1096 52.317 12.9815C51.1669 13.854 49.5981 14.2902 47.6107 14.29H43.9117V23.3532H41.9239V3.84947ZM43.9119 12.4721H47.1141C47.8733 12.488 48.6309 12.3952 49.3638 12.1966C49.8997 12.0535 50.4018 11.8054 50.8407 11.4667C51.1947 11.1824 51.4701 10.8126 51.6411 10.3924C51.8091 9.96705 51.8935 9.51337 51.8896 9.05616C51.8917 8.60818 51.8073 8.16398 51.6411 7.74784C51.4682 7.32484 51.1932 6.95101 50.8407 6.65958C50.406 6.31418 49.9025 6.0653 49.3638 5.92955C48.6292 5.74086 47.8724 5.65285 47.1141 5.66796H43.9117L43.9119 12.4721ZM74 20.2679C73.6503 20.785 73.2379 21.2569 72.772 21.6729C72.2677 22.125 71.7062 22.5093 71.1018 22.8158C70.4566 23.1446 69.776 23.3988 69.073 23.5736C68.319 23.7604 67.5446 23.8529 66.7677 23.849C65.3819 23.8619 64.0073 23.5998 62.7239 23.0778C60.2763 22.0908 58.3375 20.151 57.3547 17.706C56.8288 16.4019 56.5661 15.007 56.5819 13.6013C56.5662 12.1957 56.8288 10.8008 57.3547 9.49667C58.3375 7.05171 60.2763 5.11205 62.7239 4.12522C64.0073 3.60311 65.3819 3.3409 66.7677 3.35385C68.0168 3.36053 69.2533 3.60351 70.4117 4.06992C71.6471 4.56332 72.7252 5.38219 73.5308 6.43914L71.792 7.73387C71.5584 7.38659 71.2798 7.07163 70.9636 6.79717C70.5983 6.47442 70.1952 6.19697 69.7632 5.97088C69.3015 5.72824 68.8157 5.53436 68.3137 5.3924C67.8112 5.24732 67.2908 5.17312 66.7677 5.17195C65.6082 5.15298 64.4586 5.38807 63.4001 5.86066C62.4397 6.29547 61.5798 6.92378 60.8744 7.70612C60.1763 8.49072 59.6371 9.40291 59.2868 10.3922C58.5509 12.4686 58.5509 14.7341 59.2868 16.8104C59.6371 17.7997 60.1762 18.7119 60.8744 19.4963C61.5796 20.279 62.4395 20.9074 63.4001 21.342C64.4585 21.8149 65.6082 22.0501 66.7677 22.0309C67.2815 22.0311 67.7943 21.985 68.2999 21.8931C68.8142 21.7987 69.3148 21.6415 69.7906 21.4249C70.2921 21.1953 70.7571 20.8936 71.1708 20.5293C71.6357 20.115 72.0398 19.6375 72.3714 19.1109L74 20.2679Z" fill="#244B5A"/>
<path d="M5.14722 10.2352L-8.61441e-05 5.13662L5.10909 1.46388e-05L10.2564 5.09857L5.14722 10.2352Z" fill="url(#paint0_linear_7859_14421)"/>
<path d="M19.1538 8.05884L16.1346 5.06827L19.1314 2.05538L22.1506 5.04595L19.1538 8.05884Z" fill="url(#paint1_linear_7859_14421)"/>
<path d="M5.33449 2.02319L2.24048 5.13392L5.3575 8.2215L7.99456 8.21174L5.22922 5.47435L18.8841 5.42383L17.6873 6.62614L19.0059 6.62136L20.553 5.06599L18.9944 3.5223L17.6758 3.52708L18.8816 4.72078L5.22672 4.7713L7.97135 2.01343L5.33449 2.02319Z" fill="#244B5A"/>
</g>
<defs>
<linearGradient id="paint0_linear_7859_14421" x1="-509.583" y1="-499.62" x2="516.065" y2="-503.441" gradientUnits="userSpaceOnUse">
<stop stop-color="#72C9C9"/>
<stop offset="1" stop-color="#02B0AD"/>
</linearGradient>
<linearGradient id="paint1_linear_7859_14421" x1="-282.763" y1="-290.998" x2="318.834" y2="-293.239" gradientUnits="userSpaceOnUse">
<stop stop-color="#03B6B4"/>
<stop offset="1" stop-color="#74CBCA"/>
</linearGradient>
<clipPath id="clip0_7859_14421">
<rect width="74" height="30" fill="white"/>
</clipPath>
</defs>
</svg>
