<svg width="75" height="74" viewBox="0 0 75 74" fill="none" xmlns="http://www.w3.org/2000/svg">
<g clip-path="url(#clip0_2971_11347)">
<g clip-path="url(#clip1_2971_11347)">
<path d="M74.7998 36.9989C74.7998 16.5923 58.2012 0 37.8009 0C17.4005 0 0.799805 16.5923 0.799805 36.9989C0.799805 56.2775 15.6209 72.1571 34.4672 73.8461H34.5579C34.8671 73.8728 35.1771 73.896 35.4878 73.9157L35.667 73.9262C35.9481 73.9431 36.2335 73.9557 36.5231 73.9642H36.7487C37.0987 73.9642 37.4487 73.981 37.803 73.981C38.1572 73.981 38.4714 73.981 38.8045 73.9663H38.9458C39.2396 73.9578 39.532 73.9459 39.823 73.9304H39.882C40.5385 73.8939 41.1907 73.8397 41.8388 73.7681C60.3456 71.7607 74.7998 56.0372 74.7998 36.9989ZM41.7122 70.2468L41.3559 60.0139L50.292 54.5316C52.3831 55.965 55.1019 56.1029 57.3274 54.8887C59.5529 53.6745 60.9083 51.3136 60.8348 48.7795C60.6916 45.2305 57.8473 42.3862 54.2983 42.2429C52.2875 42.1708 50.3509 43.0065 49.024 44.519C47.6972 46.0315 47.1206 48.0604 47.4539 50.0446L41.1471 53.9455L40.6896 41.0516L49.4844 35.6727C52.574 37.98 56.8757 37.7296 59.6769 35.0795C62.478 32.4295 62.9662 28.1482 60.8336 24.9356C58.7009 21.7229 54.566 20.5106 51.0363 22.0631C47.5065 23.6156 45.6057 27.4826 46.5324 31.2257L40.4787 34.9832L40.1203 24.6934C43.0006 23.5797 44.8516 20.7552 44.7233 17.6698C44.5733 14.072 41.7909 11.1371 38.2063 10.7954C34.6217 10.4537 31.335 12.8102 30.508 16.3148C29.6811 19.8194 31.5677 23.3966 34.9269 24.6934L34.2732 46.0131L27.684 41.8149C28.1236 40.0184 27.9137 38.1243 27.0915 36.4676C25.7736 33.7265 23.1168 31.7824 20.0868 31.5926C16.3396 31.348 12.8898 33.6344 11.6551 37.1809C10.4205 40.7274 11.7046 44.6618 14.7936 46.7972C17.8827 48.9325 22.017 48.7437 24.8986 46.3357L34.0835 52.1469L33.531 70.2067C17.0842 68.1087 4.31056 54.0172 4.31056 36.9989C4.32321 18.5406 19.3404 3.51919 37.8009 3.51919C56.2613 3.51919 71.2785 18.5364 71.2785 36.9968C71.2785 54.1352 58.334 68.3027 41.7122 70.2468Z" fill="#333E48"/>
<path d="M37.5896 13.6328C39.9955 13.6351 41.9453 15.5849 41.9476 17.9908C41.9476 20.3977 39.9964 22.3488 37.5896 22.3488C35.1827 22.3488 33.2316 20.3977 33.2316 17.9908C33.2316 15.584 35.1827 13.6328 37.5896 13.6328ZM54.0188 45.0366C56.2013 45.0354 57.9735 46.8 57.9816 48.9825C57.9859 50.5831 57.0253 52.0286 55.548 52.6447C54.0707 53.2608 52.3677 52.926 51.2335 51.7966C50.0992 50.6672 49.7573 48.9657 50.367 47.4858C50.9768 46.0058 52.4182 45.0391 54.0188 45.0366ZM56.4575 33.5582C54.1456 34.6815 51.3608 33.7212 50.2326 31.4117C49.4075 29.7186 49.6836 27.6951 50.9322 26.2849C52.1807 24.8747 54.1559 24.3556 55.9365 24.9696C57.7171 25.5835 58.9525 27.2097 59.0665 29.0898C59.1806 30.9698 58.1508 32.7334 56.4575 33.5582ZM19.4039 34.8532C22.1767 34.8555 24.4239 37.1027 24.4262 39.8755C24.425 42.6475 22.1773 44.894 19.4053 44.8936C16.6332 44.8932 14.3861 42.6461 14.3857 39.8741C14.3854 37.102 16.6318 34.8543 19.4039 34.8532Z" fill="#009BDE"/>
</g>
</g>
<defs>
<clipPath id="clip0_2971_11347">
<rect width="74" height="74" fill="white" transform="translate(0.799805)"/>
</clipPath>
<clipPath id="clip1_2971_11347">
<rect width="74" height="74" fill="white" transform="translate(0.799805)"/>
</clipPath>
</defs>
</svg>
