<svg width="74" height="74" viewBox="0 0 74 74" fill="none" xmlns="http://www.w3.org/2000/svg">
<path d="M36.1949 39.1659C34.4492 36.3173 33.1827 33.9555 31.4283 29.5082C28.4616 21.9963 49.4713 15.2085 40.9527 2.16586C44.6453 11.1755 27.699 16.7453 26.1247 24.2483C24.6851 31.1494 36.1861 39.1659 36.1949 39.1659Z" fill="#F44336"/>
<path d="M37.0182 25.7754C36.6955 30.0663 40.7645 32.3533 40.8822 35.4879C40.9763 38.0392 38.4502 40.1659 38.4502 40.1659C38.4502 40.1659 43.0351 39.2517 44.4654 35.3599C46.0537 31.0384 41.383 28.0794 41.8637 24.6191C42.3124 21.314 52 15.1659 52 15.1659C52 15.1659 37.746 16.1243 37.0182 25.7754Z" fill="#F44336"/>
<path d="M51.0122 38.9946C54.0525 38.3117 56.6161 40.2478 56.6161 42.4786C56.6161 47.507 49.6464 52.2598 49.6464 52.2598C49.6464 52.2598 60.4364 50.9737 60.4364 42.7178C60.4364 37.2578 55.1376 35.8937 51.0122 38.9946ZM45.8902 43.0506C45.8902 43.0506 49.2546 40.6534 50.1508 39.7538C41.8949 41.5062 23.0449 41.742 23.0449 40.2201C23.0449 38.8178 29.1237 37.3809 29.1237 37.3809C29.1237 37.3809 15.6505 37.1868 15.6505 41.1613C15.6505 45.304 33.2872 45.6004 45.8902 43.0506Z" fill="#1565C0"/>
<path d="M43.8207 46.8223C36.0051 49.4206 21.6098 48.5903 25.8738 45.1011C23.7973 45.1011 20.7189 46.7703 20.7189 48.3754C20.7189 51.5942 36.2877 54.0798 47.8109 49.3669L43.8207 46.8223Z" fill="#1565C0"/>
<path d="M27.7891 52.3135C24.9534 52.3135 23.1178 54.1405 23.1178 55.4717C23.1178 59.6161 40.0351 60.0338 46.7379 55.827L42.4774 52.9982C37.4698 55.1995 24.891 55.5029 27.7891 52.3135Z" fill="#1565C0"/>
<path d="M58.2871 59.0614C58.2871 57.439 56.4584 56.6746 55.8032 56.3089C59.6651 65.6221 17.1204 64.8993 17.1204 59.4011C17.1204 58.1514 20.2525 56.9277 23.1472 57.5066L20.6859 56.0524C14.9173 55.1476 11 57.6834 11 59.7287C11 69.2673 58.2871 68.808 58.2871 59.0614Z" fill="#1565C0"/>
<path d="M63 62.4796C55.8136 69.5776 37.591 72.1637 19.2662 67.7784C37.591 75.5836 62.9133 71.1878 63 62.4796Z" fill="#1565C0"/>
</svg>
