<svg width="74" height="74" viewBox="0 0 74 74" fill="none" xmlns="http://www.w3.org/2000/svg">
<g clip-path="url(#clip0_1539_6746)">
<path d="M30.4718 14.8012C29.9648 14.8012 29.4744 14.9824 29.0889 15.3124C28.7034 15.6423 28.4481 16.0992 28.3689 16.6009L24.8739 38.8009L21.6627 59.2L21.6608 59.2171L21.6646 59.2L24.8758 38.8009C25.0391 37.7641 25.9302 37.0012 26.9776 37.0012H37.2164C47.5209 37.0012 56.2668 29.4703 57.864 19.2653C57.9858 18.4899 58.0509 17.722 58.0657 16.9641V16.9629H58.0645C55.4459 15.5867 52.3708 14.8012 49.0014 14.8012H30.4718Z" fill="#001C64"/>
<path d="M58.0649 16.9633C58.0505 17.7212 57.9846 18.4899 57.8632 19.2653C56.266 29.4703 47.5201 37.0012 37.2157 37.0012H26.9768C25.9294 37.0012 25.0383 37.7641 24.875 38.8009L21.6638 59.2L19.6486 71.9983C19.6098 72.2455 19.6249 72.4982 19.6929 72.739C19.7608 72.9798 19.8801 73.203 20.0424 73.3932C20.2048 73.5834 20.4063 73.7362 20.6332 73.8409C20.8601 73.9456 21.1069 73.9999 21.3567 74H32.4704C32.9775 74 33.4679 73.8187 33.8534 73.4888C34.2389 73.1589 34.4942 72.702 34.5733 72.2003L37.501 53.6008C37.6651 52.5641 38.5566 51.8 39.604 51.8H46.1481C56.4525 51.8 65.1973 44.2695 66.7945 34.0653C67.9284 26.821 64.2891 20.231 58.0649 16.9633Z" fill="#0070E0"/>
<path d="M17.8451 6.10352e-05C17.3379 7.68636e-05 16.8473 0.1815 16.4618 0.511657C16.0763 0.841815 15.8211 1.29902 15.7422 1.80093L7.02143 57.1971C6.98243 57.4444 6.9974 57.6973 7.06531 57.9382C7.13322 58.1792 7.25245 58.4025 7.41479 58.5929C7.57714 58.7832 7.77876 58.9361 8.00574 59.0409C8.23272 59.1457 8.47967 59.2 8.7296 59.2H21.6624L24.8736 38.8009L28.3686 16.6009C28.4477 16.0992 28.703 15.6423 29.0885 15.3124C29.4741 14.9824 29.9645 14.8012 30.4715 14.8012H49.0003C52.3704 14.8012 55.4455 15.5878 58.0646 16.9622C58.2429 7.67159 50.5901 6.10352e-05 40.067 6.10352e-05H17.8451Z" fill="#003087"/>
</g>
<defs>
<clipPath id="clip0_1539_6746">
<rect width="60" height="74" fill="white" transform="translate(7)"/>
</clipPath>
</defs>
</svg>
