<svg width="74" height="74" viewBox="0 0 74 74" fill="none" xmlns="http://www.w3.org/2000/svg">
<path d="M41.4284 11.384V22.7691L61.142 34.1543V22.7691L41.4284 11.384ZM2 22.7691V34.1543L11.8568 39.8457V28.4617L2 22.7691ZM31.5704 28.4617L21.7136 34.1543V68.3074L31.5704 74V51.2308L41.4284 56.9234V45.5383L31.5704 39.8457V28.4617Z" fill="#E55B2D"/>
<path d="M41.4284 11.384L11.8568 28.4617V39.8457L31.5704 28.4617V39.8457L41.4284 34.1543V11.384ZM71 17.0766L61.142 22.7691V34.1543L71 28.4617V17.0766ZM51.2852 39.8457L41.4284 45.5383V56.9234L51.2852 51.2308V39.8457ZM41.4284 56.9234L31.5704 51.2308V74L41.4284 68.3074V56.9234Z" fill="#ED8E24"/>
<path d="M41.4284 0L2 22.7691L11.8568 28.4617L41.4284 11.384L61.142 22.7691L71 17.0766L41.4284 0ZM41.4284 34.1543L31.5704 39.8457L41.4284 45.5383L51.2852 39.8457L41.4284 34.1543Z" fill="#F8BF3C"/>
</svg>
