<svg width="72" height="72" viewBox="0 0 72 72" fill="none" xmlns="http://www.w3.org/2000/svg">
<path d="M66.4517 0H5.54834C2.48407 0 0 2.48407 0 5.54834V66.4517C0 69.5159 2.48407 72 5.54834 72H66.4517C69.5159 72 72 69.5159 72 66.4517V5.54834C72 2.48407 69.5159 0 66.4517 0Z" fill="#0EAF9C"/>
<path d="M54.331 47.9378C54.331 48.36 53.9869 48.7005 53.5634 48.7005C49.7443 48.7005 46.6488 45.6248 46.6488 41.8302V29.4808C46.6488 24 42.1769 19.5581 36.6623 19.5581C31.1478 19.5581 26.9214 24.0014 26.9214 29.4808V34.0555C26.9125 34.4691 27.2434 34.8109 27.658 34.8183C27.664 34.8183 27.6684 34.8183 27.6743 34.8183H32.0375C32.461 34.827 32.8124 34.4924 32.8212 34.0702C32.8212 34.0643 32.8212 34.0599 32.8212 34.0541V29.2951C32.8212 27.1867 34.5403 25.4787 36.6623 25.4787C38.7843 25.4787 40.5034 27.1867 40.5034 29.2951V57.9816C40.4946 58.4112 40.1372 58.7532 39.7048 58.7443C35.9035 58.7443 32.8212 55.6818 32.8212 51.9048C32.8212 51.8945 32.8212 51.8843 32.8212 51.8741V42.7143C32.8124 42.2905 32.4638 41.9515 32.0375 41.9515H27.6743C27.2581 41.9515 26.9214 42.2861 26.9214 42.6996C26.9214 42.7054 26.9214 42.7099 26.9214 42.7157V45.7695C26.9214 49.5641 23.5802 52.6397 19.7612 52.6397C19.3362 52.6397 18.9937 52.2979 18.9937 51.877V29.4822C18.9937 19.7861 26.9037 11.9266 36.6623 11.9266C46.4209 11.9266 54.331 19.7861 54.331 29.4822V47.9378Z" fill="white"/>
</svg>
