<svg width="72" height="72" viewBox="0 0 72 72" fill="none" xmlns="http://www.w3.org/2000/svg">
<g clip-path="url(#clip0_7859_14419)">
<path d="M38.0926 39.3519C35.0252 42.419 35.0252 47.3921 38.0926 50.4591C41.16 53.5262 46.1336 53.5262 49.201 50.4591C52.2684 47.3921 52.2684 42.419 49.201 39.3519C46.1336 36.2848 41.16 36.2848 38.0926 39.3519ZM46.3965 47.6623C44.8774 49.1812 42.4162 49.1812 40.8971 47.6623C39.378 46.1433 39.378 43.6823 40.8971 42.1634C42.4162 40.6445 44.8774 40.6445 46.3965 42.1634C47.9156 43.675 47.9156 46.1433 46.3965 47.6623ZM49.0695 0.706527L44.2566 5.51894C43.3145 6.46098 43.3145 8.00913 44.2566 8.95116L63.0482 27.7408C63.9903 28.6828 65.5386 28.6828 66.4808 27.7408L71.2937 22.9283C72.2358 21.9863 72.2358 20.4382 71.2937 19.4961L52.4948 0.706527C51.5527 -0.235509 50.0117 -0.235509 49.0695 0.706527ZM15.3499 62.2017C16.2044 61.3473 16.2044 59.9525 15.3499 59.0981L12.9032 56.6518C12.0487 55.7974 10.6538 55.7974 9.7993 56.6518L4.74537 61.7052L4.73806 61.7125L3.35042 60.325C2.58357 59.5582 1.33469 59.5582 0.575141 60.325C-0.191714 61.0917 -0.191714 62.3405 0.575141 63.1L8.90098 71.4249C9.66784 72.1917 10.9167 72.1917 11.6763 71.4249C12.4358 70.6581 12.4431 69.4094 11.6763 68.6499L10.2886 67.2624L10.2959 67.2551L15.3499 62.2017Z" fill="#F5A800"/>
<path d="M40.8094 14.523L30.1173 25.214C29.1679 26.1634 29.1679 27.7261 30.1173 28.6755L36.7196 35.277C41.3864 31.9178 47.9302 32.3341 52.1297 36.5331L57.4757 31.1876C58.4252 30.2382 58.4252 28.6755 57.4757 27.7261L44.2712 14.523C43.3218 13.5664 41.7589 13.5664 40.8094 14.523ZM33.9443 38.0593L30.0443 34.1597C29.1314 33.2469 27.6342 33.2469 26.7212 34.1597L12.969 47.9178C12.0561 48.8306 12.0561 50.3277 12.969 51.2405L20.7617 59.0324C21.6746 59.9452 23.1718 59.9452 24.0847 59.0324L32.9291 50.1743C31.0594 46.3112 31.3954 41.6449 33.9443 38.0593Z" fill="#425CC7"/>
</g>
<defs>
<clipPath id="clip0_7859_14419">
<rect width="72" height="72" fill="white"/>
</clipPath>
</defs>
</svg>
