<svg width="79" height="28" viewBox="0 0 79 28" fill="none" xmlns="http://www.w3.org/2000/svg">
<g clip-path="url(#clip0_7861_14505)">
<path d="M48.1195 0.140052C47.3201 0.413386 46.6474 1.12672 46.4875 1.86672C46.4475 2.06672 46.4276 2.47339 46.4409 2.77339C46.5075 4.04005 47.3401 4.92005 48.6723 5.14005C49.072 5.20672 49.2185 5.20005 49.6315 5.10672C50.291 4.96005 50.6507 4.76672 51.0237 4.35339C51.4367 3.90005 51.6298 3.40005 51.6765 2.69339C51.7431 1.47339 51.1036 0.513386 49.9712 0.146719C49.3917 -0.0466142 48.679 -0.0466142 48.1195 0.140052Z" fill="black"/>
<path d="M5.56197 1.31343C3.29056 1.49343 1.69857 2.30676 0.779342 3.7401C0.0732715 4.84676 -0.179848 6.39343 0.133221 7.6401C0.592833 9.4201 1.67858 10.6668 4.78263 12.9801C7.90666 15.3068 8.85919 16.4001 8.85919 17.6734C8.85919 19.7534 6.8742 20.9401 5.06239 19.9534C3.61695 19.1668 2.33137 17.5001 1.19233 14.9401L0.819309 14.1001L0.412985 14.0801L0 14.0601V17.9334V21.8068L4.01661 21.7868C7.97993 21.7601 8.03322 21.7601 8.52614 21.6068C10.7709 20.9201 12.3895 19.1268 12.8159 16.8601C13.089 15.3868 12.8025 14.1068 11.8966 12.8401C11.3704 12.1068 10.2847 11.1401 8.35295 9.7001C7.32715 8.93343 6.28137 8.15343 6.02159 7.9601C5.31551 7.42676 4.45624 6.5001 4.22976 6.03343C4.07656 5.7201 4.02993 5.5201 4.00995 5.08676C3.98331 4.60676 4.00329 4.5001 4.16315 4.1401C4.62277 3.12676 5.78179 2.6001 6.91417 2.9001C8.31299 3.26676 9.39874 4.46676 10.671 7.04676L11.2705 8.26676H11.6635H12.0565V4.76676V1.26676L8.94578 1.2801C7.22723 1.28676 5.70852 1.3001 5.56197 1.31343Z" fill="black"/>
<path d="M58.9236 1.72671C58.9036 1.75338 58.7903 2.06004 58.6771 2.40671C58.2974 3.55338 57.658 4.56004 56.8054 5.36671C55.9328 6.19338 55.0602 6.64004 54.1409 6.71338L53.688 6.75338V7.30671V7.86004L54.6738 7.88004L55.653 7.90004L55.6863 13.6667C55.7196 19.4067 55.7196 19.4334 55.8662 19.82C56.086 20.4067 56.3124 20.7534 56.6988 21.1C57.0984 21.46 57.4115 21.6267 58.0177 21.82C58.424 21.9534 58.6371 21.96 61.7012 21.9867L64.9452 22.0067L64.9318 19.1534L64.9119 16.3L64.4589 16.28C64.1392 16.2667 64.0059 16.2867 63.986 16.3467C63.3931 18.24 63.0534 18.9934 62.4872 19.62C61.8145 20.3667 60.9086 20.52 60.429 19.9734C60.036 19.5267 60.0493 19.7134 60.0493 13.8V8.36671L62.5805 8.34671C65.3182 8.32671 65.6712 8.35338 66.0109 8.64671C66.2707 8.86004 66.304 8.93338 66.9035 10.4134C67.1766 11.0867 67.6895 12.3534 68.0425 13.2334C68.3956 14.1134 68.8818 15.3134 69.115 15.9C69.3548 16.4867 69.5746 17.0267 69.6079 17.1C69.6412 17.1734 69.8344 17.64 70.0342 18.1334C70.2274 18.6267 70.6537 19.6734 70.9667 20.4534L71.5463 21.8734L71.3264 22.2867C70.9867 22.92 70.4738 23.4267 69.881 23.72L69.3748 23.9667H68.3756C67.523 23.96 67.2765 23.9334 66.7103 23.7867C66.344 23.6934 65.9909 23.5934 65.931 23.5667C65.8178 23.52 65.8111 23.6534 65.8111 25.7667V28.0067L67.3631 27.9867C68.8885 27.9667 68.9151 27.9667 69.2948 27.7867C70.4871 27.2267 71.6995 25.2534 72.8785 21.9667C72.985 21.6734 73.4313 20.46 73.871 19.2667C74.3172 18.0734 75.0566 16.08 75.5162 14.8334C75.9758 13.5867 76.4221 12.3867 76.5021 12.1667C76.582 11.9467 76.8418 11.24 77.0816 10.6C77.8276 8.60004 78.1274 8.09338 78.7002 7.92671L79 7.84004V7.28671V6.73338L76.6553 6.74671L74.3039 6.76671V7.29338V7.82671L74.7968 7.90671C75.6162 8.04671 75.9359 8.41338 75.9359 9.23338C75.9359 9.96671 75.8959 10.0934 74.1907 14.7C74.0841 14.9934 73.9309 15.4067 73.851 15.6134C73.7777 15.8267 73.6911 16 73.6645 16C73.6378 16 73.5712 15.8734 73.5179 15.7134C73.458 15.56 73.2315 14.9667 73.005 14.4C72.7785 13.8334 72.5054 13.1267 72.3989 12.8334C72.2923 12.54 72.1591 12.2067 72.1124 12.1C72.0658 11.9867 71.8993 11.5667 71.7461 11.1667C71.5862 10.76 71.3664 10.18 71.2398 9.86671C70.9667 9.16671 70.9135 8.87338 71 8.54671C71.0933 8.20004 71.3331 8.00004 71.7527 7.90004L72.1058 7.82004V7.29338V6.76671L66.0642 6.74671L60.016 6.73338V4.20004V1.66671H59.4898C59.1967 1.66671 58.9436 1.69338 58.9236 1.72671Z" fill="black"/>
<path d="M38.4676 6.50671C37.6882 6.70671 37.0554 7.00671 36.5359 7.43338C36.1295 7.76005 35.4768 8.45338 35.1304 8.92005C34.9639 9.14671 34.7973 9.33338 34.764 9.33338C34.7307 9.33338 34.7041 8.76005 34.7041 8.03338V6.73338H31.8398H28.9756V7.28671V7.84005L29.3686 7.92005C29.8082 8.01338 30.1413 8.29338 30.2812 8.68005C30.4077 9.02005 30.401 19.54 30.2812 19.8867C30.1213 20.32 29.7616 20.6 29.222 20.7L28.9756 20.7467V21.2734V21.8H32.5726H36.1695V21.2667C36.1695 20.8 36.1562 20.7334 36.0563 20.7334C35.7898 20.7334 35.4168 20.58 35.197 20.3867C34.7107 19.96 34.7374 20.26 34.7174 15.34L34.6974 10.9134L34.8706 10.66C35.177 10.2267 35.8764 9.60671 36.2694 9.42671C36.7823 9.18671 37.4218 9.18005 37.8681 9.40671C38.2145 9.58005 38.4209 9.81338 38.6274 10.2667C38.7607 10.56 38.7673 10.6867 38.7673 15.1867C38.7673 20.28 38.794 19.9867 38.341 20.3867C38.1212 20.58 37.7482 20.7334 37.4884 20.7334C37.3818 20.7334 37.3685 20.8 37.3685 21.2667V21.8H40.9655H44.5624V21.2734V20.7467L44.316 20.7C43.9163 20.6267 43.5766 20.4134 43.3834 20.12L43.1969 19.84L43.157 14.7734C43.1303 11.26 43.097 9.60005 43.0371 9.36671C42.7173 7.98671 42.0046 7.12671 40.7989 6.66671C40.4659 6.54005 40.2461 6.51338 39.5 6.49338C39.0071 6.48005 38.5408 6.48671 38.4676 6.50671Z" fill="black"/>
<path d="M15.2538 9.62675V12.5334H15.7267H16.193L16.2929 12.2801C17.0256 10.5134 18.1647 9.01342 19.1505 8.52675C19.5635 8.32675 19.6767 8.30008 20.1496 8.30008C20.7625 8.30675 21.0955 8.44008 21.4352 8.83342C21.8948 9.35342 22.048 9.90675 22.048 11.0468V11.7401L21.4352 12.0268C21.0955 12.1868 20.5893 12.4067 20.3162 12.5201C17.3054 13.7534 16.3795 14.2667 15.4203 15.2334C14.8475 15.8001 14.541 16.3001 14.3545 16.9601C14.2013 17.4934 14.248 18.7934 14.4411 19.3334C14.6743 19.9867 14.9474 20.4267 15.387 20.8734C16.1597 21.6534 16.9124 21.9601 18.0514 21.9601C19.2038 21.9601 20.0764 21.6001 20.929 20.7667C21.2953 20.4067 21.4752 20.1667 21.8815 19.5067L22.0014 19.3067L22.0947 19.6734C22.3078 20.5267 22.8674 21.2534 23.5734 21.5867L23.9464 21.7667L25.8315 21.7867L27.7099 21.8067V21.2734C27.7099 20.7601 27.7033 20.7334 27.5634 20.7334C27.4768 20.7334 27.257 20.6601 27.0705 20.5734C26.7507 20.4267 26.5509 20.2201 26.4044 19.9001C26.3711 19.8267 26.3311 17.5868 26.3045 14.8667C26.2711 10.0134 26.2711 9.96008 26.1179 9.51342C25.645 8.08008 24.7191 7.31342 22.9806 6.92008C22.3878 6.78675 22.1213 6.78008 18.8041 6.75342L15.2538 6.72008V9.62675ZM21.9814 15.6334V18.2001L21.5018 18.6934C20.8291 19.3667 20.3561 19.5201 19.6101 19.3001C18.9706 19.1134 18.5776 18.5067 18.4511 17.5068C18.2779 16.0868 18.8374 15.2467 20.9623 13.7601C21.4152 13.4467 21.7949 13.1601 21.8216 13.1267C21.9548 12.9001 21.9814 13.2801 21.9814 15.6334Z" fill="black"/>
<path d="M45.8279 7.30005C45.8279 7.85338 45.8345 7.86672 45.9877 7.86672C46.4274 7.86672 46.9003 8.16672 47.0935 8.56672C47.22 8.83338 47.2267 8.98005 47.2267 14.2934C47.2267 19.5067 47.22 19.7467 47.1001 19.9867C47.0335 20.12 46.9203 20.2867 46.847 20.3467C46.6805 20.5 46.1609 20.7334 45.9811 20.7334C45.8345 20.7334 45.8279 20.76 45.8279 21.2667V21.8H49.4248H53.0218V21.2734V20.7534L52.7687 20.7067C52.1759 20.6134 51.7496 20.22 51.6297 19.6667C51.5764 19.4267 51.5564 17.4134 51.5564 13.1134C51.5564 9.69338 51.5564 6.86005 51.5564 6.81338C51.5564 6.75338 50.9369 6.73338 48.6921 6.73338H45.8279V7.30005Z" fill="black"/>
</g>
<defs>
<clipPath id="clip0_7861_14505">
<rect width="79" height="28" fill="white"/>
</clipPath>
</defs>
</svg>
