<svg width="74" height="74" viewBox="0 0 74 74" fill="none" xmlns="http://www.w3.org/2000/svg">
<path d="M11 58.6064L11.4333 58.0023L31.8765 19.2215L31.9198 18.8111L22.909 1.88566C22.7441 1.57615 22.4859 1.32635 22.1712 1.17159C21.8565 1.01683 21.501 0.964957 21.1552 1.0233C20.8094 1.08165 20.4906 1.24726 20.2441 1.49671C19.9975 1.74615 19.8357 2.06681 19.7814 2.41331L11 58.6064Z" fill="#FFC24A"/>
<path d="M11.2549 58.1476L11.5812 57.5104L31.8127 19.1323L22.8249 2.14056C22.6767 1.84506 22.4367 1.60554 22.1409 1.45788C21.8451 1.31022 21.5095 1.26238 21.1842 1.32152C20.859 1.38065 20.5616 1.54359 20.3367 1.78591C20.1119 2.02823 19.9716 2.33689 19.9368 2.66566L11.2549 58.1476Z" fill="#FFA712"/>
<path d="M38.4887 31.6123L45.1977 24.73L38.4861 11.9313C38.3384 11.6559 38.1188 11.4257 37.8506 11.2652C37.5824 11.1047 37.2756 11.0199 36.9631 11.0199C36.6505 11.0199 36.3438 11.1047 36.0756 11.2652C35.8074 11.4257 35.5878 11.6559 35.44 11.9313L31.8536 18.7678V19.3515L38.4887 31.6123Z" fill="#F4BD62"/>
<path d="M38.3688 31.3319L44.8918 24.6535L38.3688 12.2143C38.2621 11.945 38.0797 11.7124 37.8437 11.5445C37.6077 11.3765 37.3282 11.2804 37.0388 11.2677C36.7494 11.2551 36.4626 11.3264 36.2128 11.4731C35.963 11.6198 35.761 11.8356 35.6312 12.0945L32.0269 19.0508L31.9198 19.4051L38.3688 31.3319Z" fill="#FFA50E"/>
<path d="M11.0051 58.609L11.2013 58.4102L11.9125 58.1221L38.0655 32.0661L38.3968 31.1637L31.8739 18.7296L11.0051 58.609Z" fill="#F6820C"/>
<path d="M39.3247 71.7492L63 58.5478L56.2349 16.9198C56.1864 16.6263 56.058 16.3519 55.8638 16.1267C55.6695 15.9014 55.417 15.734 55.1338 15.6429C54.8507 15.5518 54.5479 15.5404 54.2588 15.6101C53.9696 15.6797 53.7053 15.8277 53.4947 16.0378L11 58.6064L34.5351 71.7466C35.2668 72.1549 36.0907 72.3693 36.9286 72.3693C37.7665 72.3693 38.5905 72.1549 39.3222 71.7466" fill="#FDE068"/>
<path d="M63 58.3859L56.2296 17.3507C56.2176 17.072 56.1219 16.8029 55.9546 16.5777C55.7872 16.3525 55.5557 16.1812 55.2894 16.0855C55.0231 15.9898 54.7339 15.974 54.4585 16.0402C54.183 16.1063 53.9338 16.2514 53.7421 16.457L11 58.4746L34.4881 71.3867C35.2206 71.7889 36.0455 72 36.8842 72C37.723 72 38.5479 71.7889 39.2804 71.3867L63 58.3859Z" fill="#FCCA3F"/>
<path d="M39.3247 71.3515C38.593 71.7598 37.7691 71.9742 36.9312 71.9742C36.0933 71.9742 35.2693 71.7598 34.5376 71.3515L11.1937 58.4076L11 58.6064L34.5351 71.7466C35.2668 72.1549 36.0907 72.3693 36.9286 72.3693C37.7665 72.3693 38.5905 72.1549 39.3222 71.7466L63 58.5478L62.9414 58.1909L39.3247 71.3515Z" fill="#EEAB37"/>
</svg>
