<svg width="74" height="74" viewBox="0 0 74 74" fill="none" xmlns="http://www.w3.org/2000/svg">
<g clip-path="url(#clip0_1382_4098)">
<path d="M58.0154 21.5013L52.5437 26.9954C61.5281 36.0164 61.5281 50.5316 52.5437 59.417C43.5592 68.4381 29.1029 68.4381 20.2535 59.417C11.269 50.3959 11.269 35.8808 20.2535 26.9954L34.5071 12.6837L36.5337 10.6489V-0.135712L15.052 21.4335C3.09515 33.439 3.09515 52.8377 15.052 64.8432C27.0088 76.8487 46.3288 76.8487 58.083 64.8432C69.9722 52.8377 69.9722 33.5747 58.0154 21.5013Z" fill="#EE4C2C"/>
<path d="M47.2745 20.2126C49.4757 20.2126 51.2601 18.421 51.2601 16.2108C51.2601 14.0007 49.4757 12.209 47.2745 12.209C45.0734 12.209 43.2889 14.0007 43.2889 16.2108C43.2889 18.421 45.0734 20.2126 47.2745 20.2126Z" fill="#EE4C2C"/>
</g>
<defs>
<clipPath id="clip0_1382_4098">
<rect width="61" height="74" fill="white" transform="translate(5.99994 -7.62939e-06)"/>
</clipPath>
</defs>
</svg>
