<svg width="72" height="54" viewBox="0 0 72 54" fill="none" xmlns="http://www.w3.org/2000/svg">
<g clip-path="url(#clip0_7889_14468)">
<path d="M23.7319 30.4738C21.0442 31.2366 19.2809 32.574 18.1193 33.9104C19.2319 32.9367 20.7222 32.0432 22.7324 31.4733C24.7886 30.8906 26.5427 30.8947 27.9922 31.1745V30.041C26.7557 29.928 25.3382 30.0181 23.7319 30.4738ZM17.9965 20.946L8.01464 23.5757C8.01464 23.5757 8.19656 23.8327 8.53341 24.1756L16.9967 21.9455C16.9967 21.9455 16.8768 23.4908 15.8353 24.8733C17.8054 23.3828 17.9965 20.946 17.9965 20.946ZM26.3519 44.405C12.3048 48.1884 4.87297 31.9093 2.62291 23.4598C1.58335 19.5596 1.12955 16.6057 1.00859 14.6995C0.995599 14.5015 1.00161 14.3347 1.0156 14.1818C0.286913 14.2258 -0.0619551 14.6046 0.00902411 15.6992C0.129979 17.6044 0.583783 20.558 1.62334 24.4595C3.87239 32.9077 11.3052 49.1869 25.3524 45.4035C28.4099 44.5798 30.707 43.0795 32.4313 41.1643C30.842 42.5997 28.8528 43.7302 26.3519 44.405ZM28.9917 10.983V11.9827H34.5015C34.3884 11.6288 34.2745 11.3099 34.1615 10.983H28.9917Z" fill="#2D4552"/>
<path d="M35.7329 19.2165C38.2108 19.9202 39.5213 21.6575 40.214 23.1949L42.9768 23.9796C42.9768 23.9796 42.5999 18.5989 37.7329 17.2164C33.1799 15.9228 30.3781 19.7463 30.0372 20.241C31.3617 19.2974 33.2959 18.5248 35.7329 19.2165ZM57.7256 23.2197C53.1684 21.9203 50.3676 25.7516 50.0318 26.2395C51.3573 25.2969 53.2904 24.5242 55.7264 25.2189C58.2003 25.9237 59.5098 27.6589 60.2045 29.1974L62.9713 29.985C62.9713 29.985 62.5884 24.6032 57.7256 23.2197ZM54.9807 37.4068L31.9975 30.9815C31.9975 30.9815 32.2463 32.243 33.201 33.8764L52.5518 39.2861C54.1449 38.3644 54.9807 37.4068 54.9807 37.4068ZM39.0464 51.237C20.8481 46.3579 23.0482 23.1709 25.9929 12.1834C27.2054 7.65539 28.4518 4.28984 29.4856 2.03379C28.8688 1.90683 28.358 2.23171 27.8532 3.25827C26.7557 5.4843 25.3522 9.10877 23.9939 14.1826C21.05 25.1699 18.8499 48.3561 37.0474 53.2352C45.6247 55.5331 52.3067 52.0406 57.2878 46.5559C52.5597 50.8382 46.5233 53.2391 39.0464 51.237Z" fill="#2D4552"/>
<path d="M28.9917 38.9714V34.2923L15.9913 37.9788C15.9913 37.9788 16.952 32.3972 23.732 30.4739C25.7882 29.8911 27.5425 29.8951 28.9917 30.175V10.9831H35.501C34.7923 8.79302 34.1067 7.10687 33.5308 5.93528C32.5782 3.99613 31.6017 5.2816 29.3847 7.13586C27.8233 8.44031 23.877 11.2232 17.9385 12.8234C12 14.4246 7.19904 14 5.1959 13.6531C2.35608 13.1631 0.870714 12.5395 1.00967 14.6995C1.1306 16.6047 1.58443 19.5586 2.62398 23.4598C4.87302 31.9083 12.3059 48.1874 26.353 44.404C30.0223 43.4153 32.6122 41.4612 34.4075 38.9703H28.9917V38.9714ZM8.01371 23.5758L17.9965 20.946C17.9965 20.946 17.7055 24.7864 13.9632 25.773C10.2198 26.7585 8.01371 23.5758 8.01371 23.5758Z" fill="#E2574C"/>
<path d="M66.5619 11.205C63.967 11.6599 57.7416 12.2266 50.0479 10.1644C42.3522 8.10345 37.2462 4.49888 35.2232 2.8046C32.3555 0.402615 31.094 -1.26668 29.8526 1.25827C28.755 3.48532 27.3515 7.10978 25.993 12.1837C23.0494 23.1709 20.8493 46.3571 39.0465 51.2362C57.2399 56.1111 66.9257 34.93 69.8695 23.9416C71.228 18.8688 71.8237 15.0274 71.9877 12.5505C72.1745 9.74475 70.2473 10.5593 66.5619 11.205ZM30.0004 20.2953C30.0004 20.2953 32.8682 15.835 37.732 17.2175C42.599 18.5999 42.9759 23.9806 42.9759 23.9806L30.0004 20.2953ZM41.8733 40.3098C33.3181 37.8037 31.9986 30.9816 31.9986 30.9816L54.9808 37.407C54.9808 37.406 50.3418 42.7846 41.8733 40.3098ZM49.9989 26.2896C49.9989 26.2896 52.8627 21.8325 57.7257 23.2189C62.5885 24.6035 62.9715 29.9841 62.9715 29.9841L49.9989 26.2896Z" fill="#2EAD33"/>
<path d="M24.4487 35.5808L15.9913 37.9777C15.9913 37.9777 16.9101 32.7441 23.1403 30.67L18.3513 12.6976L17.9375 12.8234C11.999 14.4249 7.19806 14 5.19492 13.6531C2.35512 13.1634 0.869756 12.5395 1.00869 14.6998C1.12964 16.6049 1.58345 19.5586 2.623 23.4601C4.87206 31.9083 12.3049 48.1874 26.352 44.404L26.7658 44.2741L24.4487 35.5808ZM8.01373 23.576L17.9965 20.9461C17.9965 20.9461 17.7056 24.7864 13.9632 25.773C10.2198 26.7585 8.01373 23.576 8.01373 23.576Z" fill="#D65348"/>
<path d="M42.2592 40.4037L41.8723 40.3096C33.317 37.8037 31.9976 30.9816 31.9976 30.9816L43.8486 34.2942L50.1228 10.1844L50.0469 10.1644C42.3512 8.10345 37.2454 4.49888 35.2222 2.8046C32.3544 0.402615 31.093 -1.26668 29.8515 1.25827C28.755 3.48532 27.3515 7.10978 25.993 12.1837C23.0494 23.1709 20.8493 46.3571 39.0465 51.236L39.4194 51.32L42.2592 40.4037ZM30.0004 20.2953C30.0004 20.2953 32.8682 15.835 37.732 17.2175C42.599 18.5999 42.9759 23.9806 42.9759 23.9806L30.0004 20.2953Z" fill="#1D8D22"/>
<path d="M24.8796 35.4579L22.6115 36.1015C23.1474 39.1222 24.0918 42.021 25.5742 44.5819C25.8322 44.525 26.0881 44.476 26.3509 44.404C27.0396 44.2182 27.6783 43.9881 28.2932 43.7372C26.6369 41.2793 25.5412 38.4485 24.8796 35.4579ZM23.994 14.1829C22.8284 18.533 21.7858 24.7943 22.0728 31.0746C22.5865 30.8516 23.1292 30.6439 23.732 30.4729L24.1519 30.379C23.64 23.6707 24.7465 16.8348 25.993 12.1837C26.309 11.0071 26.6258 9.91266 26.9416 8.89209C26.4329 9.2158 25.8852 9.54765 25.2613 9.88951C24.8406 11.1881 24.4157 12.6075 23.994 14.1829Z" fill="#C04B41"/>
</g>
<defs>
<clipPath id="clip0_7889_14468">
<rect width="72" height="54" fill="white"/>
</clipPath>
</defs>
</svg>
