<svg width="72" height="65" viewBox="0 0 72 65" fill="none" xmlns="http://www.w3.org/2000/svg">
<path d="M9.43636 16.0926L18.7441 0.00489188L56.2276 0L65.4849 16.2476L65.4963 48.7492L56.2292 64.987L18.7572 65L9.34192 48.7508L9.43636 16.0926Z" fill="#4D4D4D"/>
<path d="M9.34359 48.7459H26.2363L16.9578 32.3728L24.5037 16.0959L9.43804 16.0927L0 32.5049" fill="#EDEDED"/>
<path d="M31.3591 48.7459H43.7071L54.6253 32.8098L43.8976 16.2491H29.3725L20.6233 32.2521L31.3591 48.7459Z" fill="#E0E0E0"/>
<path d="M0 32.5033L9.34359 48.7508H26.2379L17.0604 32.5587L0 32.5033Z" fill="#ACACAC"/>
<path d="M20.8008 32.5065L31.3608 48.7508H43.7071L54.4543 32.513L20.8008 32.5065Z" fill="#9E9E9E"/>
<path d="M24.9825 32.5147L21.7958 33.4441L18.7377 32.5131L31.2224 10.842L34.3456 16.2525" fill="#00B8E3"/>
<path d="M34.3325 48.7459L31.2256 54.1791L22.9323 45.2319L18.7311 32.5179V32.5114H24.9808" fill="#33C6E9"/>
<path d="M18.7393 32.513H18.7328V32.5179L15.6112 37.9348L12.4766 32.5423L15.6551 27.021L24.9824 10.8452H31.2256" fill="#008AAA"/>
<path d="M53.0913 48.7459H71.9999L71.9885 16.2476H53.0913V48.7459Z" fill="#D4D4D4"/>
<path d="M53.0913 32.557V48.7491H71.9658V32.557H53.0913Z" fill="#919191"/>
<path d="M31.2289 54.1857H24.9808L15.6112 37.9332L18.7328 32.5195L31.2289 54.1857Z" fill="#00B8E3"/>
<path d="M56.2097 32.513L43.7218 54.1808C42.5738 52.4915 40.6067 48.7508 40.6067 48.7508L49.9747 32.5098L56.2097 32.513Z" fill="#008AAA"/>
<path d="M49.9585 54.1808L43.7218 54.1792L56.2114 32.5114L59.3314 27.101L62.4611 32.5473M56.2098 32.513H49.9764L40.6051 16.2508L43.7071 10.8469L51.2921 20.5035L56.2098 32.513Z" fill="#00B8E3"/>
<path d="M59.3313 27.0977V27.1026L56.2097 32.513L43.7087 10.8485L49.9633 10.8518L59.3313 27.0977Z" fill="#33C6E9"/>
</svg>
