<svg width="72" height="72" viewBox="0 0 72 72" fill="none" xmlns="http://www.w3.org/2000/svg">
<path d="M64.8902 48.5719C64.7389 48.0018 64.4942 47.4609 64.166 46.971C64.2363 46.7131 64.29 46.451 64.3258 46.186C64.5589 44.5053 63.9762 42.9666 62.8782 41.776C62.2833 41.1258 61.6457 40.6963 60.9704 40.4328C61.4137 38.5363 61.6378 36.5954 61.639 34.648C61.639 33.7584 61.5886 32.8871 61.5043 32.0287C61.4604 31.6001 61.4072 31.1726 61.3448 30.7462C61.1516 29.4882 60.8647 28.2462 60.4867 27.0309C60.2389 26.2324 59.9523 25.4464 59.6278 24.6757C59.1415 23.5345 58.5736 22.4297 57.9287 21.3699C57.5057 20.6648 57.045 19.983 56.5486 19.3275C56.3053 18.9965 56.0519 18.6732 55.7881 18.3583C55.0068 17.4088 54.1577 16.5172 53.2476 15.6904C52.9453 15.4124 52.6345 15.144 52.3153 14.8854C52.0011 14.6234 51.6799 14.3698 51.3523 14.1249C50.6927 13.634 50.0113 13.1735 49.3098 12.7448C45.4339 10.3908 40.8886 9.04077 36.0306 9.04077C21.886 9.04077 10.4222 20.5051 10.4222 34.6489C10.4217 36.621 10.65 38.5864 11.1028 40.5056C10.4953 40.7694 9.91316 41.1806 9.37316 41.7755C8.27544 42.9654 7.69241 44.4985 7.92556 46.1793C7.961 46.4462 8.01416 46.7106 8.08503 46.9704C7.75712 47.4606 7.5126 48.0018 7.36138 48.5719C7.02388 49.8546 7.13497 51.0114 7.56388 52.0251C7.09756 53.3497 7.214 54.7605 7.82122 55.987C8.26278 56.8828 8.89475 57.5758 9.67381 58.1951C10.6 58.9314 11.7593 59.5569 13.1577 60.1571C14.826 60.8687 16.8626 61.5372 17.7887 61.7825C20.181 62.4018 22.4749 62.7944 24.7997 62.8135C28.112 62.8442 30.9644 62.0654 33.0066 60.0722C34.0098 60.1951 35.0198 60.2567 36.0306 60.2561C37.0985 60.2539 38.1653 60.1866 39.225 60.055C41.2624 62.0609 44.1258 62.8467 47.4502 62.8152C49.7747 62.7966 52.0686 62.404 54.4547 61.7839C55.3871 61.5386 57.4228 60.8701 59.092 60.1585C60.4903 59.5575 61.6497 58.932 62.582 58.1968C63.3552 57.5772 63.9866 56.8845 64.4284 55.9887C65.0418 54.7619 65.1521 53.3511 64.6922 52.0265C65.1169 51.0128 65.2274 49.8535 64.8902 48.5719ZM62.5165 51.9393C62.9864 52.8311 63.0165 53.8388 62.602 54.7774C61.9731 56.1996 60.411 57.3201 57.3772 58.5231C55.4906 59.2712 53.7631 59.7496 53.7479 59.7538C51.2527 60.401 48.9959 60.7297 47.0424 60.7297C43.8074 60.7297 41.4002 59.837 39.8736 58.0742C37.292 58.514 34.6561 58.529 32.0697 58.1186C30.5412 59.8522 28.1477 60.7297 24.9401 60.7297C22.9862 60.7297 20.7298 60.401 18.2342 59.7538C18.219 59.7496 16.4922 59.2712 14.605 58.5231C11.5714 57.3201 10.0088 56.2005 9.38019 54.7774C8.96563 53.8388 8.99572 52.8311 9.46569 51.9393C9.509 51.8563 9.55569 51.7756 9.60547 51.6974C9.32383 51.2744 9.13491 50.7966 9.05113 50.2951C8.96737 49.7939 8.99066 49.2806 9.11947 48.789C9.30622 48.0794 9.69181 47.4893 10.2155 47.0655C9.96322 46.6509 9.7977 46.1897 9.72894 45.7093C9.57819 44.6647 9.92497 43.6219 10.7049 42.7714C11.3124 42.1096 12.171 41.7454 13.1217 41.7454H13.147C12.4302 39.4478 12.0668 37.0547 12.0692 34.648C12.0692 21.5218 22.7106 10.8796 35.8388 10.8796C48.9667 10.8796 59.6081 21.5207 59.6081 34.648C59.61 37.0611 59.2441 39.4605 58.5227 41.7634C58.6375 41.7521 58.75 41.7465 58.8605 41.7462C59.8111 41.7462 60.6701 42.1104 61.277 42.7722C62.0569 43.6219 62.404 44.6656 62.2529 45.7101C62.1843 46.1905 62.0187 46.6518 61.7667 47.0663C62.2903 47.4902 62.6762 48.0802 62.8627 48.7898C62.9915 49.2815 63.0148 49.7947 62.931 50.2962C62.8475 50.7974 62.6585 51.2752 62.3767 51.6982C62.4265 51.7756 62.4737 51.8563 62.5165 51.9393Z" fill="white"/>
<path d="M62.3767 51.6982C62.6585 51.2752 62.8475 50.7973 62.9314 50.2962C63.0149 49.7947 62.9915 49.2814 62.8627 48.7898C62.676 48.0802 62.2901 47.4901 61.7667 47.0663C62.019 46.6517 62.1844 46.1905 62.253 45.7101C62.404 44.6655 62.0572 43.6227 61.277 42.7722C60.6701 42.1104 59.8112 41.7462 58.8605 41.7462C58.75 41.7462 58.6375 41.7521 58.5228 41.7633C59.2433 39.4604 59.6087 37.0614 59.6061 34.6485C59.6061 21.5221 48.9648 10.8801 35.838 10.8801C22.7109 10.8801 12.0684 21.5209 12.0684 34.6485C12.066 37.0552 12.4294 39.4483 13.1462 41.7459H13.1208C12.1702 41.7459 11.3116 42.1098 10.7044 42.7716C9.92445 43.6213 9.57736 44.6653 9.7284 45.7095C9.79722 46.1899 9.96273 46.6514 10.215 47.066C9.69127 47.4896 9.30542 48.0796 9.11867 48.7892C8.98992 49.2811 8.96671 49.7944 9.05058 50.2959C9.13445 50.7971 9.32345 51.2752 9.60521 51.6982C9.55515 51.7764 9.50902 51.8571 9.46543 51.9401C8.99574 52.8319 8.96539 53.8396 9.38024 54.7782C10.0091 56.2004 11.5711 57.3209 14.605 58.5238C16.4913 59.272 18.2191 59.7504 18.2343 59.7546C20.7295 60.4018 22.9863 60.7305 24.9398 60.7305C28.1478 60.7305 30.5412 59.853 32.0698 58.1194C34.6562 58.5298 37.292 58.5146 39.8736 58.075C41.4003 59.8378 43.8075 60.7305 47.0424 60.7305C48.996 60.7305 51.2527 60.4018 53.7477 59.7546C53.7632 59.7504 55.49 59.272 57.3772 58.5238C60.4111 57.3209 61.9734 56.2004 62.602 54.7782C63.0166 53.8396 62.9865 52.8319 62.5165 51.9401C62.4738 51.8565 62.4265 51.7755 62.3767 51.6982ZM30.976 55.4053C30.8444 55.6354 30.7035 55.8601 30.5536 56.0787C30.1584 56.6572 29.6387 57.0993 29.0354 57.4278C27.8822 58.0567 26.4226 58.2763 24.9398 58.2763C22.5973 58.2763 20.196 57.7282 18.8502 57.3792C18.7838 57.362 10.6 55.0504 11.6361 53.0828C11.8105 52.7518 12.0974 52.6196 12.4588 52.6196C13.9176 52.6196 16.574 54.7919 17.7156 54.7919C17.9707 54.7919 18.1507 54.6834 18.2241 54.4184C18.7107 52.6736 10.8292 51.9401 11.493 49.4133C11.61 48.9661 11.9278 48.7844 12.3744 48.7844C14.3032 48.7842 18.6322 52.1763 19.5376 52.1763C19.607 52.1763 19.6568 52.1558 19.6838 52.113C19.6877 52.1066 19.6917 52.1004 19.6954 52.0936C20.1203 51.3919 19.8765 50.8817 16.9652 49.0986L16.6857 48.9284C13.482 46.9895 11.2334 45.8226 12.5122 44.4304C12.6593 44.2698 12.868 44.1987 13.1214 44.1987C13.4218 44.1987 13.7854 44.2991 14.1859 44.4678C15.8779 45.1813 18.223 47.1273 19.2026 47.9758C19.3567 48.1097 19.5098 48.245 19.6619 48.3811C19.6619 48.3811 20.9022 49.6709 21.652 49.6709C21.8247 49.6709 21.9712 49.6029 22.0705 49.4347C22.6024 48.5381 17.1309 44.3919 16.8224 42.681C16.6131 41.522 16.9692 40.9348 17.6273 40.9348C17.9403 40.9348 18.3223 41.0681 18.7439 41.3355C20.0517 42.1655 22.5767 46.5046 23.5012 48.1927C23.8111 48.7583 24.3402 48.9973 24.8169 48.9973C25.7627 48.9973 26.5021 48.0571 24.9035 46.8624C22.5008 45.0646 23.344 42.1261 24.4907 41.9453C24.5396 41.9374 24.5891 41.9335 24.6383 41.9335C25.6812 41.9335 26.141 43.7304 26.141 43.7304C26.141 43.7304 27.4893 47.1161 29.8055 49.4305C31.907 51.5311 32.2006 53.2549 30.976 55.4053ZM38.4654 55.8019L38.3453 55.8163L38.1406 55.8396C38.0329 55.8508 37.9249 55.8615 37.8166 55.8714L37.7111 55.8809L37.6146 55.8891L37.478 55.9001L37.3269 55.911L37.1762 55.9209L37.1427 55.9231C37.1033 55.9254 37.064 55.9279 37.024 55.9299L36.9737 55.9327C36.927 55.9352 36.8803 55.9375 36.833 55.9394L36.6696 55.9465L36.5214 55.9515L36.4224 55.9543H36.3721C36.3411 55.9543 36.3105 55.956 36.2795 55.9563H36.2306C36.1997 55.9563 36.169 55.9563 36.1381 55.9577L36.0121 55.9594H35.8363C35.6982 55.9594 35.5604 55.958 35.4231 55.9552L35.3118 55.9527C35.28 55.9527 35.2482 55.9513 35.217 55.9501L35.0989 55.9468L34.9523 55.9411L34.8201 55.9352L34.7861 55.9338L34.6604 55.9273C34.6252 55.9254 34.5906 55.9237 34.5558 55.9212L34.4745 55.9164C34.3724 55.9099 34.2703 55.9029 34.1682 55.895L34.0613 55.8863C34.0163 55.8829 33.9713 55.8787 33.9266 55.8748C33.874 55.8703 33.8214 55.8652 33.7688 55.8601C33.6808 55.852 33.5928 55.843 33.5047 55.8334H33.5005C34.7858 52.9661 34.1359 50.288 31.5385 47.6929C29.835 45.9916 28.7018 43.4795 28.4667 42.928C27.9908 41.2953 26.7314 39.4804 24.6397 39.4804C24.4628 39.4804 24.2862 39.4945 24.1115 39.522C23.1952 39.6663 22.3942 40.1937 21.8227 40.9873C21.2051 40.2193 20.6049 39.6087 20.0621 39.2638C19.2437 38.7449 18.4269 38.4817 17.6312 38.4817C16.6381 38.4817 15.7505 38.8895 15.1318 39.6292L15.116 39.648C15.1042 39.5994 15.093 39.5507 15.0814 39.5018L15.08 39.4953C14.9623 38.9919 14.8634 38.4842 14.7836 37.9732C14.7836 37.9698 14.7836 37.9664 14.7819 37.9631C14.7757 37.9245 14.7701 37.8857 14.7642 37.8472C14.7469 37.733 14.7307 37.6185 14.7155 37.5041C14.7088 37.452 14.7015 37.4 14.695 37.348L14.6759 37.1919C14.6697 37.1398 14.6646 37.0926 14.659 37.0431L14.6573 37.0307C14.6349 36.8282 14.6152 36.6257 14.5982 36.4227L14.5921 36.3448L14.5822 36.212C14.5794 36.1757 14.5766 36.1392 14.5746 36.1026C14.5746 36.0939 14.5732 36.0854 14.5729 36.0773C14.5658 35.9755 14.5597 35.8734 14.5546 35.7713C14.5518 35.7181 14.549 35.6653 14.5468 35.6118L14.5411 35.4723L14.5397 35.4301L14.5352 35.3016L14.5324 35.1922C14.5324 35.1486 14.5302 35.105 14.5296 35.0614C14.5288 35.0178 14.5276 34.97 14.5274 34.9239C14.5268 34.8778 14.5274 34.8322 14.526 34.7863C14.5248 34.7402 14.526 34.6944 14.526 34.6485C14.526 22.8774 24.069 13.3343 35.8414 13.3343C47.6134 13.3343 57.1562 22.8771 57.1562 34.6485V34.9239C57.1562 34.9697 57.1548 35.0159 57.1539 35.0614C57.1539 35.0994 57.1522 35.1368 57.1511 35.1753C57.1511 35.2091 57.1497 35.2431 57.1486 35.2757C57.1486 35.3188 57.146 35.3618 57.1446 35.4048V35.4082L57.1387 35.5575C57.1368 35.6011 57.1351 35.645 57.1328 35.6886L57.1314 35.7195L57.1238 35.859C57.1072 36.158 57.0845 36.4564 57.056 36.7545V36.7582C57.0513 36.8071 57.0465 36.8561 57.0411 36.905L57.0285 37.0206L57.0035 37.2467L56.9891 37.3612L56.9714 37.4959C56.9649 37.5448 56.9585 37.5941 56.9511 37.6427C56.9438 37.6976 56.9357 37.7521 56.9275 37.8067L56.9081 37.9358L56.885 38.082C56.8772 38.1307 56.8687 38.1791 56.8597 38.2274C56.8505 38.2761 56.8431 38.3245 56.8347 38.3728C56.8178 38.4696 56.8001 38.5663 56.7815 38.6628C56.7531 38.8071 56.7242 38.9511 56.6944 39.0951L56.6634 39.2377C56.6533 39.2852 56.6423 39.333 56.6316 39.3806C56.0317 38.7975 55.2372 38.48 54.3611 38.48C53.566 38.48 52.7484 38.743 51.9303 39.2619C51.3875 39.6067 50.7875 40.2176 50.1696 40.9854C49.5973 40.1917 48.7963 39.6643 47.8805 39.5201C47.7059 39.4925 47.5293 39.4784 47.3524 39.4784C45.2601 39.4784 44.0015 41.2934 43.5254 42.926C43.2891 43.4775 42.1557 45.9897 40.4508 47.6935C37.8551 50.2804 37.2004 52.9464 38.4654 55.8019ZM60.4707 50.0619L60.4623 50.0869C60.4409 50.1434 60.4161 50.1986 60.3883 50.252C60.3672 50.2914 60.3444 50.3296 60.3197 50.3668C60.2727 50.4368 60.2212 50.5037 60.1653 50.5667C60.1523 50.5813 60.14 50.596 60.1253 50.6103C60.1051 50.632 60.0845 50.6533 60.0635 50.6742C59.6849 51.0493 59.1078 51.3784 58.4553 51.6802C58.3813 51.7137 58.3062 51.7471 58.2305 51.7809L58.1552 51.8144C58.1048 51.8366 58.0545 51.8585 58.0016 51.8802C57.9513 51.9021 57.899 51.924 57.8466 51.9454L57.6897 52.0101C57.3227 52.1611 56.9466 52.3051 56.5799 52.4472L56.423 52.5082L56.268 52.5689C56.1648 52.6092 56.063 52.6494 55.9628 52.6896L55.8135 52.7498L55.6667 52.8097L55.5947 52.8401C55.5466 52.86 55.4996 52.88 55.4526 52.9C54.3735 53.3632 53.597 53.8343 53.7601 54.4187C53.7646 54.4353 53.7696 54.4511 53.7753 54.4665C53.7899 54.5098 53.8099 54.5506 53.8349 54.5892C53.8495 54.6119 53.8664 54.6336 53.8852 54.6533C54.077 54.8527 54.4261 54.8212 54.8662 54.6628C54.9281 54.6401 54.9897 54.6164 55.0507 54.5917L55.089 54.5759C55.1897 54.5332 55.2963 54.4854 55.4051 54.4336C55.4324 54.4207 55.46 54.4083 55.4875 54.394C56.0258 54.1307 56.6359 53.7763 57.2411 53.4538C57.4833 53.323 57.7288 53.1989 57.9774 53.0811C58.5506 52.8114 59.0895 52.6201 59.5226 52.6201C59.726 52.6201 59.9054 52.6618 60.055 52.7574L60.08 52.774C60.174 52.8401 60.2527 52.925 60.3115 53.0234C60.323 53.0423 60.3343 53.0623 60.3453 53.0828C60.5593 53.4892 60.3801 53.9099 59.9608 54.3225C59.5583 54.7188 58.9323 55.1072 58.2207 55.4667C58.1678 55.4934 58.115 55.5201 58.0612 55.5463C55.9434 56.5863 53.17 57.3696 53.1315 57.3794C52.3924 57.571 51.3354 57.8224 50.1446 58.0106L49.9685 58.0381L49.9396 58.0423C49.8063 58.0626 49.6727 58.0814 49.5388 58.0989C49.403 58.1172 49.2657 58.1338 49.1276 58.1492L49.1023 58.152C48.6017 58.2097 48.0991 58.2479 47.5954 58.2662H47.588C47.4058 58.2727 47.2238 58.2761 47.0416 58.2761H46.8315C46.5536 58.2724 46.2763 58.2598 45.9993 58.2384C45.9928 58.2384 45.9858 58.2384 45.9793 58.2367C45.88 58.2291 45.781 58.2198 45.682 58.2088C45.5794 58.1979 45.477 58.1855 45.3749 58.1717C45.3077 58.1627 45.2407 58.1526 45.1738 58.1416C45.1057 58.1307 45.0377 58.1194 44.9699 58.1076L44.8774 58.0902L44.8703 58.0888C44.7727 58.0702 44.6757 58.0497 44.579 58.0272C44.5227 58.0145 44.4667 58.0021 44.4113 57.9869L44.3779 57.9785C44.3503 57.9718 44.3236 57.9644 44.2963 57.9571L44.2814 57.9532L44.1948 57.9279C44.1633 57.9192 44.1318 57.9096 44.1003 57.9003L44.0893 57.8972L44.0075 57.8722C43.9765 57.8626 43.9456 57.8525 43.9149 57.8424L43.8395 57.8173L43.7841 57.7979C43.7307 57.7791 43.6775 57.7597 43.625 57.7394L43.5749 57.7198L43.5335 57.7034C43.4537 57.6714 43.3744 57.6379 43.2959 57.6028L43.2439 57.5774L43.2351 57.5735C43.2166 57.5648 43.1983 57.5561 43.1797 57.5485C43.1435 57.531 43.1075 57.513 43.0717 57.4948L43.0608 57.4894L43.009 57.4621C42.917 57.414 42.827 57.3629 42.7387 57.3086L42.6904 57.2788C42.6662 57.2638 42.642 57.2484 42.6184 57.2326L42.5554 57.191L42.4876 57.1443L42.4471 57.1153C42.4043 57.085 42.3624 57.0535 42.3214 57.0211L42.2558 56.9708C42.2297 56.9497 42.2038 56.9283 42.1782 56.9067C42.1565 56.8889 42.1355 56.8704 42.1144 56.8518L42.1127 56.8504C42.0899 56.8304 42.0677 56.8105 42.0455 56.7899C42.0235 56.77 42.0016 56.7497 41.9802 56.7292L41.9777 56.7267C41.9552 56.7053 41.9332 56.6836 41.9116 56.6614C41.8899 56.6395 41.8677 56.6175 41.8466 56.595C41.8255 56.5728 41.8039 56.55 41.783 56.5267C41.7622 56.5036 41.7431 56.4825 41.7234 56.4598L41.717 56.4522C41.6978 56.4302 41.679 56.408 41.6604 56.3852C41.6202 56.3371 41.5811 56.2879 41.5434 56.2376C41.5055 56.1869 41.4683 56.1352 41.432 56.0826L41.3975 56.0308C41.3513 55.9633 41.3063 55.8953 41.2627 55.8261C41.2301 55.7763 41.1983 55.7263 41.1674 55.6753C41.1474 55.6436 41.1283 55.6115 41.1092 55.58L41.1013 55.5671C41.083 55.5361 41.065 55.5058 41.0476 55.4751C41.0375 55.4585 41.0279 55.4419 41.0189 55.4248C41.0096 55.4073 40.9989 55.3896 40.9891 55.3719L40.973 55.344L40.9632 55.326C40.9444 55.2923 40.9258 55.2583 40.9078 55.2239C40.8994 55.2088 40.8912 55.1936 40.8825 55.1789L40.8575 55.1303L40.8321 55.0822C40.7689 54.9556 40.709 54.8274 40.6527 54.6974L40.6327 54.6499C40.6198 54.6181 40.6077 54.5866 40.5948 54.5554C40.5886 54.5402 40.5824 54.5253 40.577 54.5101C40.547 54.4322 40.5188 54.3535 40.493 54.2742C40.4837 54.2458 40.4747 54.2179 40.4662 54.1898C40.446 54.1259 40.4277 54.0615 40.4114 53.9966C40.3914 53.9209 40.3737 53.8447 40.3588 53.7679C40.3557 53.7524 40.3526 53.737 40.3501 53.7221C40.3355 53.647 40.3236 53.5713 40.3144 53.4954C40.3121 53.4805 40.3104 53.4656 40.3087 53.4507L40.304 53.4051C40.2978 53.3455 40.293 53.2856 40.2902 53.2257C40.2902 53.2105 40.2888 53.1953 40.2882 53.1807C40.2868 53.1508 40.2862 53.121 40.286 53.0912C40.2702 51.8894 40.8783 50.7341 42.1785 49.4344C44.4946 47.1206 45.8429 43.7346 45.8429 43.7346C45.8429 43.7346 45.8792 43.5926 45.9545 43.3881C45.965 43.3597 45.9759 43.3304 45.9883 43.2998C46.0322 43.1853 46.0817 43.0728 46.1365 42.9631L46.1475 42.942C46.1942 42.8487 46.2454 42.7575 46.3005 42.6689C46.3134 42.6484 46.3258 42.6282 46.3401 42.6076C46.3815 42.5466 46.4251 42.487 46.4709 42.4293C46.496 42.3981 46.5232 42.3672 46.5505 42.3371C46.5615 42.3253 46.5722 42.3134 46.5837 42.3022C46.7179 42.1635 46.8711 42.0505 47.0447 41.9903L47.0666 41.983C47.0812 41.9782 47.0959 41.9737 47.1108 41.9695C47.1279 41.965 47.1451 41.961 47.1628 41.9574L47.171 41.9557C47.2075 41.9484 47.2446 41.9436 47.282 41.9411H47.2851C47.3045 41.9411 47.3242 41.9391 47.3442 41.9391C47.3692 41.9391 47.3926 41.9391 47.417 41.9416C47.4424 41.9439 47.4674 41.9467 47.4927 41.9506C47.7014 41.9838 47.9 42.1081 48.071 42.2999C48.1359 42.3731 48.1944 42.4518 48.2456 42.5351C48.2794 42.5891 48.3111 42.6462 48.3412 42.7063C48.3533 42.7314 48.3649 42.7544 48.3761 42.7792C48.4054 42.8428 48.4318 42.9074 48.4549 42.9735C48.5097 43.1282 48.551 43.2874 48.5783 43.4494C48.602 43.5914 48.616 43.7349 48.6205 43.8786C48.6228 43.9554 48.6228 44.0333 48.6205 44.1118C48.6053 44.4768 48.5305 44.8371 48.3992 45.1783C48.3874 45.2095 48.3741 45.241 48.3615 45.2725C48.3356 45.336 48.3072 45.3985 48.2765 45.4595C48.2538 45.5059 48.2299 45.5526 48.204 45.599C48.1871 45.6299 48.1694 45.6609 48.1517 45.6918C48.1064 45.7689 48.0575 45.8454 48.0049 45.9216L47.9731 45.9672C47.8488 46.1404 47.7104 46.303 47.5591 46.4532C47.41 46.6025 47.2503 46.7406 47.0812 46.8666C46.9119 46.992 46.753 47.131 46.6062 47.282C46.1835 47.7255 46.085 48.117 46.1801 48.4138C46.1953 48.4604 46.2153 48.5057 46.2395 48.5485C46.2679 48.5974 46.3016 48.6424 46.3399 48.6835L46.3548 48.6989L46.37 48.7141C46.3851 48.7288 46.4012 48.7431 46.4183 48.7572L46.4352 48.7707C46.476 48.8022 46.5193 48.8303 46.5646 48.855C46.5778 48.8621 46.5896 48.8691 46.6045 48.8759C46.6535 48.8998 46.7038 48.9203 46.7555 48.9369C46.7699 48.9417 46.7842 48.9459 46.7989 48.9504L46.8171 48.9552L46.8425 48.9619L46.8641 48.9673L46.8877 48.9723L46.9111 48.9771L46.9333 48.9808C46.9496 48.9836 46.9665 48.9864 46.9834 48.9883L46.9994 48.9909L47.0286 48.9937L47.0466 48.9957L47.0762 48.9976H47.0936L47.1245 48.9993H47.2219L47.2497 48.9976L47.2818 48.9957L47.3209 48.992L47.3574 48.9878C47.3659 48.9878 47.3743 48.9855 47.3827 48.9838C47.4952 48.9675 47.6055 48.9377 47.711 48.895L47.7557 48.8761C47.7807 48.8652 47.806 48.8536 47.8291 48.8413C47.8786 48.8165 47.9267 48.7884 47.9728 48.7577C48.0372 48.7155 48.098 48.6683 48.1548 48.6163C48.1683 48.6042 48.1815 48.5912 48.1944 48.5788C48.2009 48.5727 48.2071 48.5668 48.2133 48.56C48.2256 48.5473 48.2383 48.535 48.2507 48.5212C48.3407 48.4222 48.4186 48.3131 48.4827 48.1958C49.0331 47.1948 49.61 46.2088 50.2127 45.2387L50.2954 45.1063L50.3789 44.9738C50.4205 44.9066 50.4627 44.8405 50.5046 44.7747L50.5468 44.7088C50.6869 44.4895 50.8292 44.2715 50.974 44.0552L51.0598 43.927C51.2319 43.6719 51.4035 43.4238 51.5736 43.1881L51.6583 43.0714C51.8434 42.8163 52.036 42.5666 52.236 42.323L52.3153 42.2279C52.3285 42.2122 52.3406 42.1964 52.355 42.1813C52.3811 42.1503 52.4073 42.1202 52.4329 42.091C52.4458 42.0761 52.4579 42.0614 52.4717 42.0468L52.547 41.9619L52.5847 41.9205C52.6227 41.8798 52.6598 41.8407 52.6964 41.8033C52.7217 41.7779 52.745 41.7529 52.7692 41.7293C52.9118 41.5836 53.069 41.4528 53.2386 41.3395L53.278 41.3142C53.3157 41.2888 53.3548 41.2652 53.3947 41.2438C54.0596 40.8664 54.61 40.8386 54.927 41.1555C55.1188 41.3473 55.2251 41.6654 55.2192 42.1081C55.2192 42.1275 55.2192 42.1472 55.2178 42.1675V42.1891C55.2178 42.2094 55.2161 42.2296 55.2144 42.2502C55.2144 42.2755 55.2116 42.3005 55.2091 42.3258C55.2065 42.3508 55.2051 42.37 55.2026 42.3925C55.2026 42.3987 55.2015 42.4051 55.2004 42.4119C55.1987 42.4313 55.1961 42.4513 55.1933 42.4712C55.1933 42.4771 55.1933 42.4833 55.1911 42.4895C55.188 42.5162 55.184 42.5427 55.1795 42.5691C55.1765 42.5944 55.1722 42.618 55.1677 42.6428L55.1604 42.6847C55.1531 42.7246 55.1438 42.764 55.1323 42.8028C55.1104 42.8757 55.0839 42.9468 55.0527 43.016C55.0091 43.1111 54.961 43.2036 54.9081 43.2936C54.8789 43.3437 54.8488 43.3929 54.8176 43.4415C54.7855 43.4919 54.7518 43.5428 54.7169 43.5943C54.628 43.7214 54.5358 43.846 54.4399 43.9678L54.396 44.0232C54.2396 44.2181 54.0782 44.409 53.9117 44.5955L53.8591 44.6546C53.7882 44.7336 53.7162 44.8132 53.6425 44.8931L53.5871 44.9533C53.5503 44.9935 53.5117 45.0337 53.4746 45.0742C53.4378 45.1144 53.3992 45.1552 53.3604 45.196L53.2448 45.3178L53.1275 45.4404L53.0094 45.563C52.9301 45.6451 52.8505 45.7273 52.7704 45.8094C51.6299 46.9791 50.4284 48.1449 50.0217 48.8716C49.9944 48.9189 49.97 48.9678 49.948 49.0176C49.8901 49.1498 49.8659 49.2628 49.8825 49.3543C49.8878 49.3843 49.8982 49.413 49.9137 49.4395C49.9365 49.4791 49.9643 49.5157 49.9967 49.5483C50.0116 49.5629 50.0273 49.5764 50.0439 49.5888C50.1277 49.6484 50.2287 49.6791 50.3316 49.6763H50.3637L50.3966 49.6738L50.4295 49.6701L50.4568 49.6662C50.4605 49.6656 50.4644 49.665 50.468 49.6639L50.4931 49.6591L50.4995 49.6577L50.5274 49.6518L50.5372 49.6493C50.5471 49.6468 50.5566 49.6442 50.5665 49.6414C50.5763 49.6386 50.5898 49.6349 50.6016 49.631C50.6511 49.6161 50.6995 49.5984 50.747 49.5781C50.7721 49.568 50.7965 49.557 50.8207 49.5452C50.8334 49.5396 50.846 49.5337 50.8579 49.5275L50.8955 49.5089C50.9855 49.4623 51.0733 49.4113 51.1588 49.3568L51.1962 49.3315C51.2089 49.3236 51.2215 49.3154 51.2336 49.3064L51.271 49.2814L51.291 49.2676L51.345 49.2297C51.3953 49.1951 51.4423 49.1593 51.4898 49.1231L51.494 49.1197L51.5697 49.0612C51.6729 48.9796 51.7708 48.8975 51.8597 48.8202L51.9187 48.7684L51.9241 48.7633L51.955 48.7361C52.0276 48.6708 52.0923 48.6101 52.146 48.56L52.1682 48.5383C52.1876 48.5201 52.2053 48.5029 52.2214 48.4883L52.2529 48.4571L52.2641 48.4461L52.2672 48.443L52.3001 48.4101L52.3209 48.3884L52.3235 48.3865L52.3333 48.3775L52.3457 48.3662L52.3496 48.3626L52.36 48.353L52.4174 48.3027L52.4495 48.274C52.4666 48.2591 52.4832 48.2439 52.4998 48.2284L52.538 48.1944C52.5451 48.1888 52.5518 48.1826 52.5589 48.1764L52.5991 48.1412L52.6581 48.0892L52.6896 48.0619C52.812 47.9556 52.9608 47.8271 53.1318 47.6822L53.2018 47.6229L53.3174 47.5258L53.4358 47.4271C53.5905 47.2986 53.757 47.1622 53.933 47.0207L54.0486 46.9279C54.1471 46.8494 54.248 46.7696 54.3504 46.6891C54.3918 46.6568 54.4337 46.6244 54.4764 46.5924C54.581 46.5111 54.6862 46.4304 54.7923 46.3508C55.0336 46.1685 55.2825 45.986 55.5345 45.8083L55.6425 45.7329C55.7181 45.6808 55.7935 45.6285 55.8689 45.5776L55.9372 45.5315C56.072 45.4401 56.2086 45.3509 56.3465 45.264L56.4148 45.221L56.4826 45.1788C56.5506 45.1366 56.6181 45.0953 56.6854 45.0551L56.7526 45.0148L56.887 44.9367L57.0189 44.861L57.0456 44.8464L57.15 44.789C57.1936 44.7654 57.2369 44.7426 57.2802 44.7204L57.3446 44.6872L57.4073 44.6557C57.4293 44.6453 57.4509 44.6343 57.4723 44.6239C57.6135 44.5542 57.7575 44.49 57.9037 44.4315C57.9434 44.4147 57.9828 44.3995 58.0219 44.3863L58.1372 44.3458C58.1718 44.3342 58.2055 44.3233 58.2379 44.3134L58.2491 44.31C58.2665 44.3044 58.284 44.2993 58.3011 44.2948L58.3062 44.2934C58.3422 44.283 58.3779 44.274 58.4131 44.2656H58.4156C58.5152 44.2417 58.6164 44.2245 58.7185 44.2141C58.7655 44.2093 58.8125 44.2068 58.8597 44.2071H58.8833C58.9148 44.2071 58.9452 44.2091 58.9753 44.2122C58.9891 44.2122 59.0029 44.215 59.0164 44.2167H59.022C59.0355 44.2183 59.049 44.2203 59.0625 44.2234C59.0757 44.2259 59.0892 44.2282 59.1021 44.2313H59.1064C59.1196 44.2341 59.1314 44.2375 59.1452 44.2414C59.2166 44.2614 59.2847 44.2923 59.3471 44.3328C59.3778 44.3528 59.4065 44.3753 59.4329 44.4003L59.4405 44.4076C59.4455 44.4121 59.4503 44.4169 59.4548 44.4217L59.4686 44.4366C59.5817 44.555 59.675 44.6908 59.7454 44.8388L59.7561 44.8641C59.78 44.9203 59.7988 44.9786 59.8123 45.0379C59.8522 45.2196 59.8368 45.4092 59.7679 45.5821C59.7417 45.6519 59.7099 45.7191 59.6725 45.7832C59.585 45.9306 59.4813 46.0676 59.3634 46.1916L59.3384 46.2183C59.301 46.2577 59.2622 46.2971 59.2214 46.3364C59.2034 46.3542 59.1845 46.3716 59.1657 46.3893L59.108 46.4425L59.0779 46.4692C59.0054 46.5339 58.9309 46.5966 58.8552 46.6573C58.8094 46.6945 58.7632 46.7308 58.7165 46.7665C58.5517 46.8925 58.3838 47.014 58.2128 47.1313C58.1096 47.2021 58.0055 47.2716 57.9006 47.3402C57.6422 47.5098 57.3809 47.6752 57.1171 47.8361C56.5636 48.1764 55.9502 48.5403 55.2963 48.936L55.127 49.0387C54.9416 49.1518 54.7667 49.2598 54.6019 49.3627L54.5189 49.4147L54.362 49.5154C54.2579 49.5821 54.1541 49.6493 54.0503 49.7165L53.9668 49.7716C53.926 49.7981 53.8855 49.8251 53.845 49.8521L53.8054 49.8774L53.6839 49.9592L53.6195 50.0034L53.5441 50.0557L53.474 50.1043C53.3568 50.1873 53.2476 50.2663 53.1472 50.3414L53.1095 50.3701C53.0505 50.4148 52.992 50.4604 52.9343 50.5068C52.8474 50.5768 52.7681 50.6438 52.697 50.7082L52.6621 50.74C52.6421 50.7583 52.6224 50.7765 52.6036 50.7945C52.5906 50.8072 52.5785 50.8198 52.565 50.8319L52.547 50.8499C52.5068 50.8904 52.4675 50.9318 52.4295 50.9743L52.4109 50.9956C52.3696 51.0434 52.3336 51.0893 52.3021 51.134L52.288 51.154C52.2633 51.19 52.2405 51.2271 52.22 51.2653C52.2146 51.2749 52.2098 51.2845 52.205 51.294L52.1913 51.3227L52.182 51.3435L52.1761 51.3576L52.1713 51.3703L52.1648 51.3874C52.1474 51.4349 52.1353 51.4844 52.1283 51.5345L52.126 51.5519L52.1243 51.5683V51.6568C52.1243 51.6642 52.1243 51.6715 52.1263 51.6793L52.1277 51.6928C52.1277 51.7002 52.1294 51.7072 52.1305 51.7151C52.1316 51.7224 52.1336 51.7356 52.1359 51.746V51.7474C52.1378 51.7573 52.1398 51.7668 52.1423 51.7767C52.1449 51.7865 52.1474 51.7978 52.1505 51.8079C52.1558 51.8278 52.1626 51.8475 52.1696 51.8672C52.1741 51.879 52.1783 51.8906 52.1831 51.9021C52.1831 51.9043 52.1848 51.9069 52.1859 51.9091L52.196 51.9319L52.2101 51.9631C52.2253 51.9955 52.2419 52.027 52.2599 52.0576L52.2785 52.0897L52.2976 52.1218C52.301 52.1271 52.3049 52.1322 52.3091 52.1369L52.3153 52.1434L52.3223 52.1499L52.3296 52.1555C52.3403 52.1631 52.3519 52.169 52.364 52.1732C52.3704 52.1755 52.3772 52.1772 52.3839 52.1788C52.5462 52.2154 52.8798 52.0813 53.323 51.8473C53.348 51.8338 53.3756 51.8197 53.4023 51.8051L53.5373 51.7314L53.6031 51.6948C53.6501 51.6698 53.6979 51.6414 53.7469 51.6135L53.836 51.5632C54.4219 51.226 55.1216 50.7928 55.845 50.3699C55.9128 50.3302 55.9808 50.2905 56.0489 50.2514L56.1856 50.164C56.3442 50.0731 56.5037 49.9834 56.6637 49.8948C56.8654 49.784 57.0684 49.676 57.2735 49.5714L57.4073 49.5036C57.4962 49.4597 57.5842 49.417 57.6711 49.3754C57.8393 49.2955 58.0095 49.2195 58.1816 49.1478L58.2758 49.1096L58.2871 49.1051C58.7863 48.9073 59.2388 48.7853 59.605 48.7853C59.684 48.7844 59.7634 48.7912 59.8413 48.8047H59.8438C59.8688 48.8092 59.8916 48.8143 59.915 48.8199H59.9192C59.9791 48.8351 60.0373 48.8567 60.0924 48.8846C60.1698 48.9245 60.2392 48.9777 60.298 49.0418C60.325 49.0716 60.3489 49.1039 60.37 49.1383C60.4094 49.1987 60.4403 49.2643 60.4625 49.3329C60.4715 49.3596 60.4794 49.3858 60.4876 49.4136C60.5469 49.6265 60.541 49.8523 60.4707 50.0619Z" fill="#FF9D00"/>
<path fill-rule="evenodd" clip-rule="evenodd" d="M57.1528 34.7864V34.6483C57.1528 22.8769 47.6134 13.3344 35.8411 13.3344C24.0691 13.3344 14.526 22.8774 14.526 34.6483V34.6944C14.5255 34.7251 14.5252 34.7558 14.526 34.7864C14.5274 34.8323 14.5279 34.8781 14.5274 34.9239L14.5289 35.0252L14.5297 35.0615C14.5297 35.0784 14.5303 35.0949 14.5308 35.1118C14.5317 35.1385 14.5322 35.1655 14.5322 35.1923L14.5353 35.3017L14.5398 35.4302L14.5412 35.4724L14.5468 35.6054V35.6119C14.5491 35.6639 14.5519 35.7157 14.5544 35.7674L14.5547 35.7714C14.5575 35.8242 14.5604 35.8774 14.5637 35.9305C14.5665 35.9795 14.5693 36.0284 14.573 36.0774L14.5736 36.0861C14.576 36.128 14.5788 36.1702 14.582 36.2121L14.5828 36.2233L14.5921 36.3448L14.593 36.3527C14.5947 36.3763 14.5963 36.3999 14.5986 36.4227C14.6154 36.6255 14.635 36.8283 14.6574 37.0305L14.6588 37.0432L14.6759 37.1919L14.6951 37.348L14.7091 37.4541L14.7156 37.5039C14.7306 37.6186 14.7468 37.7331 14.7642 37.8473L14.7654 37.8549L14.782 37.9629C14.8622 38.4773 14.9617 38.9886 15.0801 39.4957L15.0815 39.5019L15.0905 39.5398L15.1161 39.6481L15.1318 39.6293C15.7506 38.8896 16.6382 38.4818 17.6313 38.4818C18.4272 38.4818 19.2437 38.745 20.0622 39.2639C20.605 39.6087 21.2052 40.2193 21.8228 40.9874C22.3943 40.1937 23.1953 39.6661 24.1116 39.5221C24.2863 39.4945 24.4629 39.4808 24.6398 39.4805C26.7312 39.4805 27.9909 41.2954 28.4667 42.928C28.7019 43.4796 29.835 45.9917 31.5439 47.691C34.1415 50.2861 34.7915 52.9639 33.5059 55.8312H33.5104C33.5979 55.8411 33.6859 55.8501 33.7745 55.8582C33.8271 55.8633 33.8794 55.8684 33.9323 55.8729L33.9508 55.8745L34.067 55.8844L34.1739 55.8928C34.2757 55.9007 34.3778 55.908 34.4801 55.9145L34.5614 55.9193L34.6258 55.9232L34.6658 55.9254L34.7915 55.9319L34.8258 55.9333L34.9577 55.9392L35.1045 55.9449L35.2224 55.9482L35.242 55.9488C35.2671 55.9499 35.2921 55.9508 35.3171 55.9508L35.3441 55.9516C35.5101 55.9555 35.6757 55.9575 35.8417 55.9572H36.0177L36.1434 55.9558C36.1744 55.9544 36.205 55.9544 36.2363 55.9544H36.2852L36.3277 55.9533C36.3443 55.9527 36.3609 55.9522 36.3777 55.9522H36.4281L36.5268 55.9496L36.6753 55.9446L36.8387 55.9373C36.886 55.9356 36.9326 55.933 36.9793 55.9308L37.0297 55.9277L37.1045 55.9238L37.1484 55.9212L37.1815 55.919L37.3326 55.9091L37.4833 55.8982L37.6203 55.8872L37.7165 55.879L37.8222 55.8695C37.9989 55.8537 38.1749 55.8352 38.351 55.8141L38.4711 55.7997C37.2057 52.9445 37.8608 50.2782 40.4474 47.6935C42.1526 45.9897 43.2858 43.4776 43.522 42.9258C43.9982 41.2934 45.2571 39.4785 47.349 39.4785C47.5259 39.4785 47.7028 39.4926 47.8775 39.5201C48.793 39.6641 49.594 40.1918 50.1663 40.9854C50.7842 40.2176 51.3841 39.6065 51.9272 39.2617C52.7454 38.743 53.5627 38.4798 54.3578 38.4798C55.2341 38.4798 56.0284 38.7976 56.6283 39.3806C56.6393 39.3331 56.65 39.2856 56.6604 39.2378L56.691 39.0954C56.702 39.0434 56.713 38.9914 56.7234 38.9394C56.7419 38.8474 56.7605 38.7554 56.7782 38.6626C56.7968 38.5664 56.8145 38.4697 56.8314 38.3729L56.8401 38.3206C56.8454 38.2897 56.8505 38.2587 56.8564 38.2275C56.866 38.1791 56.8738 38.1308 56.8817 38.0818L56.8848 38.0633L56.9048 37.9359L56.9244 37.8068V37.8056C56.9388 37.7103 56.9523 37.6149 56.965 37.5196L56.968 37.496L56.9858 37.3615L57.0001 37.2468L57.0254 37.0207L57.0353 36.9298L57.0378 36.9051C57.0431 36.8561 57.0482 36.8072 57.0527 36.7583V36.7543C57.0564 36.7155 57.0603 36.6764 57.0637 36.6373C57.0836 36.4157 57.1005 36.1929 57.114 35.9693C57.1165 35.9328 57.1185 35.8959 57.1208 35.8591V35.8574L57.1281 35.7193L57.1298 35.6884C57.1343 35.595 57.1382 35.5016 57.1413 35.4083V35.4049L57.1427 35.3683C57.1441 35.3377 57.1452 35.3067 57.1452 35.2758L57.1458 35.2634C57.1469 35.2344 57.148 35.2046 57.148 35.1751L57.1489 35.1498C57.1497 35.1203 57.1506 35.091 57.1506 35.0615L57.1511 35.0364C57.152 34.999 57.1528 34.9614 57.1528 34.9239V34.7864ZM30.5545 56.0787C32.2425 53.6034 32.1227 51.7455 29.8069 49.4308C27.4905 47.1159 26.1425 43.7307 26.1425 43.7307C26.1425 43.7307 25.6394 41.7645 24.4919 41.9451C23.3444 42.1256 22.5026 45.0639 24.9053 46.8624C27.3077 48.661 24.4272 49.8805 23.5024 48.1928C22.5777 46.5047 20.0529 42.1659 18.7439 41.3359C17.435 40.5059 16.5145 40.9711 16.823 42.6817C16.9763 43.5308 18.4017 44.98 19.7334 46.334C21.0845 47.7076 22.3391 48.9834 22.0708 49.4348C21.5384 50.3311 19.6634 48.3815 19.6634 48.3815C19.6634 48.3815 13.792 43.0383 12.514 44.4308C11.3355 45.7141 13.1527 46.8051 15.9528 48.4867C16.1908 48.6295 16.436 48.7769 16.6872 48.9288C19.8909 50.8683 20.14 51.3799 19.6853 52.1137C19.5174 52.3848 18.445 51.741 17.1259 50.9493C14.8773 49.599 11.9124 47.819 11.4936 49.4123C11.1314 50.7912 13.3127 51.6361 15.291 52.4025C16.9391 53.0409 18.4467 53.6248 18.2248 54.4174C17.995 55.2392 16.7493 54.5538 15.3878 53.8045C13.8592 52.9633 12.1844 52.0419 11.6362 53.0817C10.6004 55.0477 18.7828 57.3621 18.8503 57.3792C21.494 58.0649 28.208 59.5179 30.5545 56.0787ZM41.429 56.0787C39.7409 53.6034 39.8607 51.7455 42.1768 49.4308C44.4929 47.1159 45.841 43.7307 45.841 43.7307C45.841 43.7307 46.3441 41.7645 47.4916 41.9451C48.6391 42.1256 49.4809 45.0639 47.0785 46.8624C44.6757 48.661 47.5563 49.8805 48.481 48.1928C49.4061 46.5047 51.9292 42.1659 53.2381 41.3359C54.547 40.5059 55.4681 40.9711 55.1593 42.6817C55.0063 43.5308 53.5807 44.98 52.249 46.3343C50.8978 47.7079 49.6432 48.9834 49.9112 49.4348C50.4436 50.3311 52.3201 48.3804 52.3201 48.3804C52.3201 48.3804 58.1912 43.0374 59.4698 44.4299C60.6479 45.713 58.8308 46.8042 56.0304 48.4858C55.7854 48.6329 55.5407 48.7803 55.2963 48.9279C52.0926 50.8674 51.8434 51.379 52.2979 52.1125C52.4661 52.3839 53.5385 51.7399 54.8573 50.9482C57.1061 49.5982 60.0711 47.8179 60.4899 49.4114C60.8524 50.7904 58.6707 51.6353 56.6924 52.4017C55.0443 53.0401 53.5368 53.624 53.7584 54.4165C53.9879 55.2381 55.2333 54.5527 56.5945 53.8034C58.1231 52.9622 59.7983 52.0403 60.3461 53.0809C61.3823 55.0479 53.1984 57.3601 53.1324 57.377C50.4886 58.0649 43.7746 59.5179 41.429 56.0787Z" fill="#FFD21E"/>
<path fill-rule="evenodd" clip-rule="evenodd" d="M42.7632 28.847C43.0957 28.9646 43.3429 29.3223 43.578 29.6629C43.8958 30.123 44.1917 30.5514 44.6456 30.3101C45.1811 30.0252 45.6202 29.5881 45.907 29.0537C46.1942 28.5194 46.3165 27.9121 46.2586 27.3083C46.2153 26.8568 46.0724 26.4206 45.8401 26.0311C45.6078 25.6415 45.2919 25.3083 44.9156 25.0555C44.539 24.8028 44.111 24.6366 43.6627 24.5692C43.2141 24.5017 42.7562 24.5346 42.3219 24.6654C41.8877 24.7961 41.488 25.0215 41.1514 25.3253C40.8147 25.6292 40.5495 26.0038 40.3751 26.4224C40.2007 26.8409 40.1212 27.293 40.1422 27.7459C40.1636 28.199 40.2848 28.6414 40.4978 29.0419C40.7081 29.4376 41.175 29.2509 41.6677 29.0537C42.0539 28.8993 42.4564 28.7385 42.7632 28.847ZM28.314 28.847C27.9816 28.9646 27.7343 29.3226 27.4992 29.6629C27.1814 30.1233 26.8852 30.5514 26.4316 30.3101C25.7581 29.9535 25.2417 29.3586 24.9828 28.642C24.724 27.9252 24.7413 27.1377 25.0315 26.4331C25.3216 25.7284 25.8638 25.157 26.5522 24.8303C27.2407 24.5036 28.0262 24.4451 28.7556 24.666C29.3363 24.8408 29.8522 25.1839 30.238 25.6519C30.6239 26.1198 30.8621 26.6917 30.9232 27.2951C30.9839 27.8985 30.8644 28.5064 30.5797 29.0419C30.3691 29.4376 29.9022 29.2509 29.4095 29.054C29.023 28.8993 28.6211 28.7385 28.314 28.847ZM40.5278 41.9957C42.8181 40.1915 43.6593 37.2457 43.6593 35.4311C43.6593 33.9967 42.6943 34.4481 41.1494 35.2131L41.0622 35.2561C39.6442 35.9584 37.7564 36.8936 35.6842 36.8936C33.6116 36.8936 31.7239 35.9584 30.3061 35.2559C28.7111 34.4658 27.7107 33.9703 27.7107 35.4314C27.7107 37.3034 28.6057 40.3771 31.0621 42.1628C31.3864 41.505 31.8428 40.9211 32.4031 40.4475C32.9631 39.9738 33.615 39.6209 34.3176 39.4105C34.5628 39.3374 34.8154 39.7595 35.0738 40.1918C35.3233 40.6086 35.5784 41.035 35.8377 41.035C36.1142 41.035 36.3856 40.6148 36.6508 40.2047C36.9278 39.7758 37.1981 39.3582 37.4594 39.4417C38.7742 39.8639 39.8742 40.7793 40.5278 41.9957Z" fill="#32343D"/>
<path d="M40.5272 41.9954C39.3344 42.9354 37.749 43.5656 35.6844 43.5656C33.7446 43.5656 32.2275 43.0093 31.062 42.1625C31.3863 41.5046 31.8428 40.9205 32.403 40.4471C32.963 39.9735 33.6149 39.6205 34.3175 39.4102C34.799 39.2664 35.3094 41.0347 35.8376 41.0347C36.4029 41.0347 36.9477 39.278 37.4593 39.4414C38.7739 39.8638 39.8736 40.7793 40.5272 41.9954Z" fill="#FF323D"/>
<path fill-rule="evenodd" clip-rule="evenodd" d="M22.8374 31.3988C22.565 31.581 22.2517 31.6932 21.9254 31.7253C21.5991 31.7576 21.2699 31.7087 20.9671 31.583C20.7251 31.4831 20.5051 31.3363 20.3199 31.151C20.1347 30.9659 19.9879 30.746 19.888 30.5038C19.7625 30.2009 19.7137 29.8718 19.746 29.5456C19.7782 29.2193 19.8905 28.906 20.0727 28.6335C20.2918 28.3056 20.6031 28.05 20.9675 27.8991C21.3318 27.7482 21.7327 27.7087 22.1194 27.7857C22.5062 27.8627 22.8614 28.0526 23.1402 28.3314C23.4189 28.6104 23.6087 28.9659 23.6854 29.3527C23.7623 29.7394 23.7227 30.1402 23.5719 30.5044C23.421 30.8686 23.1652 31.1797 22.8374 31.3988ZM51.3598 31.3988C51.0873 31.581 50.774 31.6932 50.4477 31.7253C50.1212 31.7576 49.7922 31.7087 49.4893 31.583C49.2471 31.4828 49.0272 31.3363 48.8421 31.151C48.657 30.9659 48.5102 30.746 48.4101 30.5038C48.2849 30.2009 48.2363 29.8718 48.2683 29.5456C48.3007 29.2193 48.4129 28.906 48.5949 28.6335C48.7586 28.3883 48.9748 28.1827 49.2277 28.031C49.4805 27.8794 49.7638 27.7859 50.0571 27.757C50.3507 27.7282 50.6469 27.7648 50.9242 27.8642C51.2018 27.9637 51.4538 28.1234 51.6622 28.332C51.9412 28.6107 52.131 28.9659 52.2078 29.3527C52.2849 29.7394 52.2452 30.1402 52.0942 30.5044C51.9432 30.8686 51.6878 31.1797 51.3598 31.3988Z" fill="#FFAD03"/>
</svg>
