<svg width="74" height="74" viewBox="0 0 74 74" fill="none" xmlns="http://www.w3.org/2000/svg">
<g clip-path="url(#clip0_1382_4094)">
<path d="M46.9704 23.3628H49.1953L55.6227 16.9353L55.9523 14.216C44.0039 3.66841 25.7104 4.82205 15.1628 16.7705C12.1963 20.0666 10.1362 24.022 8.90015 28.3069C9.64177 27.9773 10.3834 27.9773 11.125 28.1421L23.9799 25.9997C23.9799 25.9997 24.6391 24.9284 24.9688 25.0108C30.737 18.7482 40.3781 18.0066 46.9704 23.3628Z" fill="#EA4335"/>
<path d="M64.8518 28.3069C63.3685 22.8683 60.3196 18.0065 56.117 14.216L47.0527 23.2803C50.8432 26.4117 53.0681 31.1086 52.9033 35.9704V37.5361C57.3531 37.5361 60.8964 41.1618 60.8964 45.5292C60.8964 49.8965 57.2707 53.5223 52.9033 53.5223H36.9171L35.3514 55.1704V64.8115L36.9171 66.3772H52.9857C64.5221 66.4596 73.9161 57.148 73.9985 45.6116C74.0809 38.7721 70.62 32.2623 64.8518 28.3069Z" fill="#4285F4"/>
<path d="M20.7661 66.3772H36.8347V53.5223H20.7661C19.6125 53.5223 18.4588 53.2751 17.47 52.7807L15.2451 53.5223L8.73527 59.9497L8.15845 62.1746C11.7842 64.9763 16.234 66.4596 20.7661 66.3772Z" fill="#34A853"/>
<path d="M20.7661 24.6812C9.22969 24.7636 -0.0818604 34.1576 0.000542732 45.694C0.000542732 52.1215 3.04946 58.2193 8.15845 62.0922L17.47 52.7807C13.4323 50.9678 11.6194 46.1884 13.4323 42.1507C15.2451 38.1129 20.0245 36.3 24.0623 38.1129C25.8751 38.9369 27.276 40.3378 28.1 42.1507L37.4116 32.8391C33.4562 27.7301 27.276 24.6812 20.7661 24.6812Z" fill="#FBBC05"/>
</g>
<defs>
<clipPath id="clip0_1382_4094">
<rect width="74" height="74" fill="white"/>
</clipPath>
</defs>
</svg>
