<svg width="72" height="72" viewBox="0 0 72 72" fill="none" xmlns="http://www.w3.org/2000/svg">
<path d="M34.8929 9L36.9764 10.845C38.5199 12.213 40.0679 13.5765 41.5934 14.9625C51.4799 23.94 59.8499 34.0425 66.1499 45.6705C66.4739 46.2645 66.7664 46.8765 67.0589 47.484L67.4999 48.3975L67.0139 48.654L66.6494 48.1365L65.7044 46.791L65.0429 45.828C60.4574 39.1725 55.8629 32.508 49.5539 27.1755C47.645 25.5596 45.5387 24.1926 43.2854 23.1075C38.7224 20.925 34.6634 21.798 31.1804 25.38C27.8684 28.7865 26.1494 33.0165 24.5969 37.3185C24.3944 37.872 24.1829 38.421 23.9714 38.97L23.6024 39.9375L22.8284 39.69C23.2784 38.124 23.6924 36.549 24.1064 34.9695C25.0514 31.392 25.9964 27.8145 27.3104 24.3675C28.7054 20.6955 30.4694 17.154 32.2289 13.6125C32.9894 12.078 33.7499 10.5435 34.4789 9H34.8929Z" fill="#C22E33"/>
<path d="M38.0159 53.199C30.6989 56.664 12.9959 60.237 4.59892 59.319C3.22642 52.092 16.6949 18.225 23.3099 13.095L22.8824 14.076C22.6918 14.5378 22.4847 14.9925 22.2614 15.4395L21.9644 16.02C18.5444 22.599 15.1289 29.187 13.3784 36.405C12.748 38.8911 12.4038 41.4412 12.3524 44.0055C12.3074 50.0355 16.0604 54.1395 22.3289 54.396C25.3439 54.5175 28.3904 54.2025 31.4324 53.883C32.7554 53.748 34.0739 53.6085 35.3924 53.505C35.8784 53.469 36.3554 53.4105 36.9764 53.3295L38.0159 53.2035V53.199Z" fill="#C22E33"/>
<path d="M17.2124 66.5145C15.2099 66.6675 13.2074 66.8205 11.2139 67.0005C29.6504 68.7555 47.3489 65.754 64.8089 59.6025C59.1164 49.5675 51.4439 41.643 42.5249 34.7535C42.6419 35.1945 42.9029 35.514 43.1594 35.829L43.3754 36.099C44.1404 37.116 44.9414 38.115 45.7469 39.114C47.5874 41.4045 49.4279 43.695 50.8139 46.215C54.3149 52.605 52.4159 58.131 45.5579 61.047C41.0489 62.9685 36.1214 64.278 31.2479 65.061C26.6129 65.799 21.9104 66.1545 17.2124 66.5145Z" fill="#C22E33"/>
</svg>
