<svg width="74" height="74" viewBox="0 0 74 74" fill="none" xmlns="http://www.w3.org/2000/svg">
<g clip-path="url(#clip0_2971_11576)">
<g clip-path="url(#clip1_2971_11576)">
<path d="M68.1171 56.7174C64.0938 56.6171 60.9757 57.0197 58.3605 58.1258C57.6061 58.4275 56.399 58.4278 56.2983 59.3831C56.7009 59.7857 56.7511 60.4394 57.1032 60.9925C57.7071 61.998 58.7627 63.3562 59.7184 64.0604C60.7744 64.865 61.8307 65.6695 62.9368 66.3737C64.8983 67.5808 67.1113 68.2847 69.0223 69.4918C70.1291 70.1954 71.2349 71.1012 72.3414 71.8556C72.8948 72.2575 73.2465 72.9116 73.9507 73.163V73.0122C73.5986 72.5595 73.498 71.9057 73.1462 71.4028C72.6436 70.8999 72.1404 70.4472 71.6375 69.9443C70.1789 67.9831 68.3685 66.2731 66.4071 64.865C64.798 63.7585 61.2773 62.2498 60.6236 60.3889C60.6236 60.3889 60.5731 60.3388 60.5229 60.2886C61.6294 60.188 62.9368 59.7857 63.9932 59.4838C65.7032 59.031 67.2621 59.1317 69.0223 58.6792C69.8268 58.4779 70.6317 58.2265 71.4362 57.975V57.5226C70.5313 56.6171 69.8773 55.4103 68.9216 54.5553C66.3569 52.342 63.5404 50.1799 60.6236 48.3695C59.0644 47.3637 57.0527 46.7097 55.3932 45.855C54.7899 45.5527 53.7838 45.4022 53.432 44.8993C52.5265 43.7928 52.0236 42.3346 51.3699 41.0268C49.9119 38.2605 48.5032 35.1932 47.2459 32.2763C46.3411 30.3149 45.7877 28.3534 44.6812 26.543C39.5013 17.9935 33.8686 12.8136 25.2185 7.734C23.3577 6.67801 21.145 6.22527 18.7813 5.67219C17.5243 5.62171 16.2667 5.52138 15.0094 5.4709C14.2049 5.11879 13.4001 4.16346 12.6958 3.71071C9.82983 1.90004 2.43664 -2.0223 0.324349 3.15763C-1.03358 6.42657 2.336 9.645 3.49262 11.3049C4.34795 12.4615 5.4541 13.7689 6.05766 15.0767C6.40976 15.9311 6.51009 16.8369 6.86219 17.7421C7.66704 19.9544 8.42109 22.4191 9.47739 24.4812C10.0308 25.5372 10.634 26.6437 11.3382 27.599C11.7405 28.1521 12.4444 28.4039 12.5955 29.309C11.8916 30.3149 11.8411 31.8236 11.4386 33.0809C9.6282 38.7637 10.3324 45.8045 12.8971 49.9786C13.7017 51.2356 15.613 54.0022 18.1777 52.9459C20.4408 52.0407 19.9379 49.1741 20.5916 46.6595C20.7428 46.0556 20.6421 45.6537 20.9437 45.2514C20.944 45.3016 20.9437 45.352 20.9437 45.352C21.6479 46.7601 22.3518 48.1181 23.0055 49.5261C24.5648 51.9902 27.2803 54.5553 29.5434 56.2653C30.7508 57.1702 31.7062 58.7294 33.2149 59.2828V59.1316H33.1142C32.8123 58.6789 32.3599 58.4779 31.9576 58.1258C31.0524 57.2206 30.0463 56.1142 29.3424 55.1083C27.2304 52.2918 25.3693 49.1741 23.7097 45.9553C22.9052 44.3964 22.201 42.6864 21.5473 41.1275C21.2453 40.5236 21.2453 39.6187 20.7424 39.3171C19.9881 40.4233 18.8819 41.3789 18.3285 42.7369C17.3735 44.8993 17.2725 47.5647 16.9204 50.3307C16.7195 50.3812 16.8198 50.3307 16.7191 50.4313C15.1101 50.0287 14.5567 48.3695 13.9531 46.9611C12.4444 43.3906 12.1929 37.6572 13.5007 33.5336C13.8528 32.4773 15.3615 29.1582 14.758 28.1524C14.4563 27.1967 13.4502 26.6437 12.8971 25.8893C12.2434 24.9336 11.5392 23.7268 11.0868 22.6706C9.87965 19.8544 9.2761 16.7363 7.96866 13.9198C7.3651 12.612 6.30911 11.2544 5.4541 10.0476C4.49876 8.68966 3.44245 7.734 2.68808 6.12461C2.43694 5.57154 2.08452 4.66636 2.48678 4.0628C2.58743 3.66054 2.7884 3.50973 3.19099 3.40908C3.84471 2.85569 5.70555 3.55989 6.35925 3.86151C8.22009 4.61556 9.77899 5.32008 11.3382 6.37607C12.0421 6.87898 12.7965 7.83464 13.7016 8.0861H14.7579C16.3673 8.43788 18.1777 8.18674 19.6864 8.63917C22.3521 9.49387 24.7657 10.7515 26.9285 12.1094C33.5168 16.2835 38.9479 22.2181 42.6194 29.309C43.223 30.4654 43.4741 31.522 44.0275 32.7288C45.0838 35.1932 46.3912 37.7077 47.4472 40.1217C48.5032 42.4851 49.509 44.8993 51.0178 46.8608C51.7725 47.9165 54.7896 48.4699 56.1475 49.0233C57.1533 49.4757 58.7126 49.8783 59.6177 50.4314C61.3275 51.487 63.0375 52.6945 64.6469 53.8511C65.4517 54.4543 67.966 55.7119 68.1171 56.7174Z" fill="#00546B"/>
<path d="M16.8196 13.0137C15.9646 13.0137 15.3614 13.1146 14.7578 13.2655C14.7578 13.2655 14.7578 13.3159 14.7578 13.3661H14.8585C15.261 14.1706 15.9646 14.724 16.4675 15.4279C16.8701 16.2324 17.2219 17.0373 17.6245 17.8421C17.6746 17.7917 17.7248 17.7415 17.7248 17.7415C18.4293 17.2383 18.7811 16.4337 18.7811 15.2269C18.4792 14.8748 18.429 14.5227 18.1775 14.1706C17.8759 13.6674 17.2219 13.4163 16.8196 13.0137Z" fill="#00546B"/>
</g>
</g>
<defs>
<clipPath id="clip0_2971_11576">
<rect width="74" height="74" fill="white"/>
</clipPath>
<clipPath id="clip1_2971_11576">
<rect width="74" height="74" fill="white"/>
</clipPath>
</defs>
</svg>
