<svg width="72" height="67" viewBox="0 0 72 67" fill="none" xmlns="http://www.w3.org/2000/svg">
<g clip-path="url(#clip0_7859_14438)">
<path d="M36.0967 0C16.1947 0 0 16.3472 0 36.4366C0 49.2386 6.63398 60.465 16.3898 66.9645C16.9752 66.5706 17.5606 66.1767 18.1459 65.7828C18.5361 65.5858 19.1215 65.1919 19.5117 64.995C20.0971 64.798 20.6824 64.4041 21.0727 64.2072C21.658 64.0102 22.2434 63.8133 22.8287 63.4193C23.2189 63.2224 23.8043 63.0254 24.1945 62.8285C24.7799 62.6315 25.5604 62.4346 26.1457 62.2376C26.7311 62.0407 27.1213 62.0407 27.7066 61.8437C28.292 61.6468 28.6822 61.6468 29.2676 61.4498C29.8529 61.2528 30.4383 61.2528 31.0236 61.2528C31.609 61.2528 32.3895 61.0559 32.9748 61.0559V58.6924V56.7229V48.6478V46.6782V39.3909H31.0236V35.4518H32.9748H38.8283H40.7795V46.0873V48.2538V56.5259V58.4955V61.4498C46.2428 62.2376 51.1207 64.2072 55.6084 66.9645C65.5594 60.465 71.9983 49.2386 71.9983 36.4366C72.1934 16.3472 55.9986 0 36.0967 0ZM46.8281 36.4366C46.8281 30.5279 41.9502 25.6041 36.0967 25.6041C30.2432 25.6041 25.3652 30.5279 25.3652 36.4366C25.3652 40.5726 27.7066 44.3148 31.2188 46.0873V48.2538C26.7311 46.2843 23.4141 41.7544 23.4141 36.4366C23.4141 29.3462 29.0725 23.6345 36.0967 23.6345C43.1209 23.6345 48.7793 29.3462 48.7793 36.4366C48.7793 40.9665 46.4379 44.9056 42.9258 47.2691V44.9056C45.2672 42.7391 46.8281 39.7848 46.8281 36.4366ZM42.9258 57.9046V55.7381C50.9256 52.9808 56.584 45.2995 56.584 36.2396C56.584 25.0132 47.4135 15.7564 36.0967 15.7564C24.7799 15.7564 15.6094 25.0132 15.6094 36.4366C15.6094 46.0873 22.2434 54.3594 31.2188 56.5259V58.4955C21.2678 56.329 13.6582 47.2691 13.6582 36.4366C13.6582 23.8315 23.6092 13.7868 36.0967 13.7868C48.5842 13.7868 58.5352 23.8315 58.5352 36.4366C58.5352 46.4813 51.9012 55.1473 42.9258 57.9046Z" fill="#E44A49"/>
</g>
<defs>
<clipPath id="clip0_7859_14438">
<rect width="72" height="67" fill="white"/>
</clipPath>
</defs>
</svg>
