<svg width="74" height="74" viewBox="0 0 74 74" fill="none" xmlns="http://www.w3.org/2000/svg">
<path d="M66.431 16.3968L39.6431 0.727032C37.9537 -0.242344 35.754 -0.242344 34.0513 0.727032L6.97724 16.3968C5.23379 17.4072 4 19.3061 4 21.3373V52.6352C4 54.6663 5.26598 56.5659 7.00944 57.5818L14.1625 61.6747C17.5814 63.3711 18.7896 63.3711 20.3454 63.3711C25.4075 63.3711 28.2991 60.2874 28.2991 54.9087V24.0098C28.2991 23.5735 28.0737 22.9242 27.6485 22.9242H24.2326C23.8001 22.9242 22.8318 23.5735 22.8318 24.0092V54.9081C22.8318 57.2923 20.691 59.665 16.6902 57.6497L9.29902 53.3579C9.04145 53.2172 8.85981 52.9338 8.85981 52.6352V21.3373C8.85981 21.0423 9.19696 20.7461 9.45636 20.595L36.4429 4.95214C36.695 4.80833 37.0656 4.80833 37.3171 4.95214L63.9743 20.5913C64.2295 20.7461 64.1396 21.0331 64.1396 21.3373V52.6352C64.1396 52.9338 64.2507 53.2245 63.9986 53.3683L37.2174 69.0203C36.9878 69.1592 36.7029 69.1592 36.4514 69.0203L29.5827 64.8901C29.3755 64.7689 29.1295 64.7254 28.9308 64.8374C27.0197 65.9286 26.6674 66.0736 24.8747 66.6997C24.4337 66.8545 23.7831 67.1232 25.1238 67.8802L34.1132 73.2375C34.9715 73.7369 35.9451 73.9998 36.9362 74C37.9336 74 38.9105 73.7393 39.7713 73.2375L66.4304 57.5818C68.1738 56.5586 69 54.6663 69 52.6352V21.3373C69 19.3061 68.1738 17.4121 66.431 16.3968ZM45.2537 47.6757C38.1305 47.6757 36.5614 45.6959 36.0383 42.1275C35.9776 41.7431 35.6538 41.2836 35.2656 41.2836H31.7842C31.3535 41.2836 31.0072 41.8099 31.0072 42.2419C31.0072 46.811 33.4729 52.3469 45.2543 52.3469C53.7827 52.3469 58.6723 49.0086 58.6723 43.1005C58.6723 37.2426 54.7437 35.7054 46.4729 34.6026C38.1129 33.4894 37.2636 32.927 37.2636 30.9539C37.2636 29.3273 37.9828 27.1578 44.173 27.1578C49.7041 27.1578 51.7428 28.3536 52.5817 32.1094C52.6534 32.4625 52.9736 32.7158 53.335 32.7158H56.8304C57.0455 32.7158 57.2508 32.6283 57.4014 32.4735C57.5472 32.307 57.6244 32.0983 57.605 31.8744C57.0637 25.407 52.7986 22.393 44.1724 22.393C36.4994 22.393 31.9221 25.6573 31.9221 31.129C31.9221 37.0639 36.4763 38.7041 43.842 39.4378C52.6534 40.3081 53.3386 41.6055 53.3386 43.3514C53.3386 46.3838 50.9221 47.6757 45.2537 47.6757Z" fill="#83CD29"/>
</svg>
