<svg width="74" height="74" viewBox="0 0 74 74" fill="none" xmlns="http://www.w3.org/2000/svg">
<path fill-rule="evenodd" clip-rule="evenodd" d="M48.2341 12.6541C50.8953 9.56985 52.689 5.27412 52.1982 1C48.3633 1.146 43.7238 3.44971 40.9741 6.5303C38.5049 9.26414 36.3494 13.6324 36.9289 17.8226C41.2067 18.1401 45.573 15.7419 48.2341 12.6541ZM57.8268 39.7816C57.9338 50.8301 67.9398 54.5054 68.0506 54.5528C67.9694 54.812 66.4524 59.7897 62.78 64.9362C59.6021 69.3819 56.3061 73.8095 51.113 73.9044C46.0122 73.9957 44.3698 71.0065 38.5344 71.0065C32.7028 71.0065 30.8795 73.8092 26.0518 73.9953C21.0396 74.1742 17.2195 69.1855 14.0195 64.7544C7.47182 55.6915 2.47066 39.1432 9.18809 27.9742C12.5247 22.4299 18.4855 18.9136 24.9593 18.826C29.8793 18.7347 34.5261 21.9984 37.5342 21.9984C40.5423 21.9984 46.1894 18.0746 52.1243 18.6513C54.6083 18.7499 61.5841 19.611 66.0612 25.8926C65.6995 26.1079 57.7382 30.5472 57.8268 39.7816Z" fill="url(#paint0_linear_1512_7415)"/>
<defs>
<linearGradient id="paint0_linear_1512_7415" x1="37.0253" y1="0.999999" x2="75.3506" y2="105.634" gradientUnits="userSpaceOnUse">
<stop/>
<stop offset="1" stop-color="#666666"/>
</linearGradient>
</defs>
</svg>
