<svg width="72" height="56" viewBox="0 0 72 56" fill="none" xmlns="http://www.w3.org/2000/svg">
<g clip-path="url(#clip0_7881_14361)">
<path d="M33.3112 53.0236L50.2922 50.0105L50.4495 49.9738L41.7176 39.5381C38.7909 36.057 35.8803 32.5625 32.9857 29.0546C32.9857 29.0031 42.0029 4.06037 42.0541 3.97218C42.0688 3.94278 48.2071 14.5842 56.928 29.7675L71.8897 55.8199L72.0031 56.0184L44.249 56.0147L16.4949 56.011L33.3112 53.0236ZM0.00415039 49.8488C0.00415039 49.8341 4.11952 42.6577 9.14943 33.9013L18.2947 17.9795L28.9508 8.99527C34.8111 4.05669 39.6215 0.00734908 39.6434 0C39.6043 0.15114 39.5465 0.296792 39.4715 0.433596L27.8972 25.3654L16.5315 49.8488L8.26782 49.8598C3.72445 49.8672 0.00415039 49.8598 0.00415039 49.8451V49.8488Z" fill="#0089D6"/>
</g>
<defs>
<clipPath id="clip0_7881_14361">
<rect width="72" height="56" fill="white"/>
</clipPath>
</defs>
</svg>
