<svg width="74" height="74" viewBox="0 0 74 74" fill="none" xmlns="http://www.w3.org/2000/svg">
<path d="M71.1125 29.6H47.8457C47.2849 29.5998 46.7471 29.377 46.3505 28.9807C45.9539 28.5844 45.731 28.0469 45.7307 27.4863V3.25057C45.7307 1.45584 44.2746 0 42.4798 0H34.1741C32.3782 0 30.9229 1.45584 30.9229 3.25057V27.3396C30.9229 28.5894 29.912 29.6052 28.6616 29.6107L21.0368 29.647C19.7757 29.6538 18.7511 28.6312 18.7536 27.3718L18.8009 3.25603C18.805 1.45857 17.3484 0 15.55 0H7.25117C5.45496 0 4 1.45584 4 3.25057V71.114C4 72.7084 5.29227 74 6.88613 74H71.1125C72.7077 74 74 72.7084 74 71.114V32.486C74 30.8916 72.7077 29.6 71.1125 29.6ZM60.2018 55.0801C60.2018 57.1694 58.507 58.8636 56.4166 58.8636H49.8527C47.762 58.8636 46.0673 57.1694 46.0673 55.0801V48.5196C46.0673 46.43 47.762 44.7362 49.8527 44.7362H56.4166C58.507 44.7362 60.2018 46.43 60.2018 48.5196V55.0801Z" fill="#FF6600"/>
</svg>
