<svg width="74" height="74" viewBox="0 0 74 74" fill="none" xmlns="http://www.w3.org/2000/svg">
<path d="M55.8584 64.5059C47.1354 69.442 35.1413 69.9493 23.0742 64.8832C13.3038 60.8113 5.19689 53.6834 0 45.5394C2.49451 47.5755 5.40472 49.2049 8.52279 50.6295C20.9846 56.351 33.4438 55.9592 42.2117 50.644C29.739 41.2773 19.1244 29.0448 11.2255 19.0682C9.56183 17.4391 8.31456 15.4028 7.06732 13.5702C16.6295 22.1224 31.8049 32.9138 37.2085 35.9696C25.7771 24.1584 15.5905 9.49822 16.0054 9.90468C34.091 27.8238 50.9297 38.0054 50.9297 38.0054C51.4868 38.3133 51.9168 38.5694 52.2625 38.7984C52.627 37.8902 52.9465 36.9472 53.2158 35.9696C56.1258 25.5847 52.8009 13.7734 45.5243 4C62.3614 13.9776 72.3406 32.7105 68.1818 48.3904C68.0734 48.8134 67.9555 49.2309 67.8284 49.6409C76.1423 59.8228 74.0021 70.7899 72.963 68.7538C68.4527 60.1083 60.1033 62.752 55.8584 64.5059Z" fill="url(#paint0_linear_1382_4031)"/>
<defs>
<linearGradient id="paint0_linear_1382_4031" x1="37.0272" y1="4" x2="37.0272" y2="69.0034" gradientUnits="userSpaceOnUse">
<stop stop-color="#F88A36"/>
<stop offset="1" stop-color="#FD2020"/>
</linearGradient>
</defs>
</svg>
