<svg width="74" height="74" viewBox="0 0 74 74" fill="none" xmlns="http://www.w3.org/2000/svg">
<path d="M34.3877 0.202118L36.3624 3.91109C36.8064 4.59554 37.2873 5.20137 37.8538 5.76557C39.5147 7.40577 41.0629 9.15633 42.4877 11.0053C45.8337 15.3987 48.0905 20.2777 49.7022 25.5545C50.6687 28.7778 51.1936 32.0845 51.233 35.4281C51.3948 45.4243 47.9679 54.0076 41.0587 61.1412C39.9349 62.2724 38.7207 63.3102 37.4284 64.2443C36.7439 64.2443 36.4202 63.7194 36.1381 63.2361C35.6244 62.34 35.2824 61.3558 35.1299 60.3342C34.8871 59.1248 34.7276 57.9155 34.8062 56.6668V56.1026C34.7507 55.9824 34.1472 0.486534 34.3877 0.202118Z" fill="#599636"/>
<path d="M34.3876 0.079551C34.3067 -0.0823118 34.2258 0.0402414 34.1448 0.118861C34.1841 0.928175 33.902 1.64962 33.4604 2.33869C32.9748 3.02314 32.332 3.54804 31.6868 4.11225C28.1027 7.21539 25.2817 10.9637 23.0225 15.1559C20.0165 20.798 18.4673 26.8447 18.0279 33.2106C17.8268 35.5067 18.754 43.6091 19.4778 45.9468C21.4525 52.1531 24.9996 57.3535 29.5942 61.8672C30.7226 62.954 31.9296 63.9622 33.1783 64.931C33.5413 64.931 33.5806 64.6073 33.6639 64.3668C33.823 63.8523 33.9444 63.3267 34.0269 62.7945L34.8362 56.75L34.3876 0.079551Z" fill="#6CAC48"/>
<path d="M36.3624 66.7C36.4433 65.7751 36.8873 65.0074 37.3705 64.242C36.8849 64.0408 36.5242 63.6408 36.2421 63.1945C35.9989 62.772 35.7975 62.3266 35.6409 61.8649C35.0767 60.1723 34.9565 58.3964 34.7946 56.6668V55.6193C34.5934 55.7812 34.5518 57.1501 34.5518 57.3536C34.4341 59.1816 34.1915 60.9995 33.8257 62.7945C33.7055 63.5205 33.6246 64.2443 33.1783 64.8894C33.1783 64.9704 33.1783 65.0513 33.2176 65.1715C33.9437 67.3081 34.1425 69.484 34.2651 71.7016V72.5109C34.2651 73.4774 34.2258 73.2739 35.0281 73.5977C35.3519 73.7179 35.7126 73.7595 36.0363 74C36.2791 74 36.3184 73.7988 36.3184 73.637L36.1982 72.3074V68.5984C36.1589 67.951 36.2791 67.3081 36.36 66.7023L36.3624 66.7Z" fill="#C2BFBF"/>
</svg>
