<svg width="79" height="40" viewBox="0 0 79 40" fill="none" xmlns="http://www.w3.org/2000/svg">
<path d="M2.65747 24.6014V23.3578H3.68087V17.3055H2.65747V16.0618H6.71014C8.55227 16.0618 9.69848 16.8909 9.69848 18.3833C9.69848 19.3367 9.12537 19.9171 8.38852 20.2073C9.45286 20.4974 10.1897 21.2022 10.1897 22.1971C10.1897 23.7723 8.96163 24.6429 6.91482 24.6429H2.65747V24.6014ZM5.0727 17.3055V19.6269H6.58733C7.73354 19.6269 8.30665 19.2124 8.30665 18.4662C8.30665 17.6785 7.69261 17.3055 6.5464 17.3055H5.0727ZM5.0727 23.3578H6.79201C8.1429 23.3578 8.79788 22.9432 8.79788 22.1141C8.79788 21.2851 8.10197 20.8705 6.71014 20.8705H5.0727V23.3578Z" fill="#3E3C42"/>
<path d="M17.5583 20.1658C17.3946 19.6683 17.0261 19.3781 16.5349 19.3781C15.3887 19.3781 14.2834 20.2072 14.2834 21.741V23.3578H16.5349V24.6014H11.4998V23.3578H12.9325V19.5854H11.8272V18.3418H14.2834V19.4196C14.6928 18.6734 15.5115 18.1345 16.6168 18.1345C17.8448 18.1345 18.6226 18.8392 18.8682 19.8341L17.5583 20.1658Z" fill="#3E3C42"/>
<path d="M24.3536 20.9534V20.5803C24.3536 19.7098 23.6168 19.3367 22.839 19.3367C22.1022 19.3367 21.4472 19.6269 20.9559 20.0829L20.0963 19.1709C20.7103 18.632 21.57 18.1345 22.8799 18.1345C24.5174 18.1345 25.7455 18.9636 25.7455 20.5803V23.3578H26.687V24.6014H24.3536V23.9381C23.9852 24.477 23.0846 24.8087 22.1431 24.8087C20.7922 24.8087 19.646 24.1454 19.646 22.8189C19.646 21.285 21.2016 20.6632 22.6343 20.6632C23.3302 20.7047 23.9033 20.829 24.3536 20.9534ZM24.3536 22.0727C23.9443 21.9069 23.2893 21.8239 22.7162 21.8239C21.8565 21.8239 21.0378 22.0727 21.0378 22.8603C21.0378 23.4407 21.57 23.6894 22.2659 23.6894C23.2484 23.6894 24.3536 23.1919 24.3536 22.2799V22.0727Z" fill="#3E3C42"/>
<path d="M34.7513 23.3578V24.6014H28.2424V23.3578H30.9442V19.5854H28.8974V18.3418H32.2951V23.3578H34.7513ZM30.7805 15.1498H32.2951V17.0567H30.7805V15.1498Z" fill="#3E3C42"/>
<path d="M36.3477 23.3578H37.3302V19.5854H36.3887V18.3418H38.6402V19.1709C39.0495 18.5491 39.8682 18.1345 40.8507 18.1345C42.2835 18.1345 43.3069 19.0051 43.3069 20.456V23.3578H44.2893V24.6014H40.9326V23.3578H41.956V20.7876C41.956 19.7098 41.2601 19.3781 40.646 19.3781C39.6226 19.3781 38.5992 20.1243 38.5992 21.2436V23.3578H39.6226V24.6014H36.2659V23.3578" fill="#3E3C42"/>
<path d="M46.1315 19.5854H44.4531V18.3418H46.1315V16.0618H47.4824V18.3418H50.6345V19.5854H47.4824V22.2385C47.4824 23.2334 48.1783 23.6065 48.997 23.6065C49.7339 23.6065 50.3889 23.192 50.8391 22.736L51.7397 23.648C51.1666 24.2698 50.2251 24.8501 48.997 24.8501C47.3596 24.8501 46.1724 23.9796 46.1724 22.28V19.5854" fill="#3E3C42"/>
<path d="M58.9856 20.1658C58.8219 19.6683 58.4535 19.3781 57.9622 19.3781C56.816 19.3781 55.7107 20.2072 55.7107 21.741V23.3578H57.9622V24.6014H52.968V23.3578H54.4008V19.5854H53.2955V18.3418H55.7517V19.4196C56.161 18.6734 56.9798 18.1345 58.085 18.1345C59.3131 18.1345 60.0909 18.8392 60.3365 19.8341L58.9856 20.1658Z" fill="#3E3C42"/>
<path d="M67.9506 23.6479C67.2956 24.3112 66.1085 24.8087 64.7985 24.8087C62.6289 24.8087 61.1143 23.3992 61.1143 21.4509C61.1143 19.5025 62.588 18.0931 64.6348 18.0931C66.6816 18.0931 68.0734 19.6269 68.0734 21.6996V21.9069H62.5061C62.7517 22.9432 63.6114 23.6065 64.7985 23.6065C65.781 23.6065 66.5997 23.2334 67.05 22.736L67.9506 23.6479ZM62.588 20.8291H66.5588C66.3541 19.9171 65.5353 19.3367 64.6348 19.3367C63.5704 19.2953 62.7926 19.9171 62.588 20.8291Z" fill="#3E3C42"/>
<path d="M76.2196 23.6479C75.5646 24.3112 74.3775 24.8087 73.0675 24.8087C70.8979 24.8087 69.3833 23.3992 69.3833 21.4509C69.3833 19.5025 70.857 18.0931 72.9038 18.0931C74.9506 18.0931 76.3424 19.6269 76.3424 21.6996V21.9069H70.7751C71.0207 22.9432 71.8804 23.6065 73.0675 23.6065C74.05 23.6065 74.8687 23.2334 75.319 22.736L76.2196 23.6479ZM70.857 20.8291H74.8278C74.6231 19.9171 73.8044 19.3367 72.9038 19.3367C71.8804 19.2953 71.0617 19.9171 70.857 20.8291Z" fill="#3E3C42"/>
</svg>
