<svg width="72" height="72" viewBox="0 0 72 72" fill="none" xmlns="http://www.w3.org/2000/svg">
<g clip-path="url(#clip0_7881_14350)">
<path d="M69.4546 26.4375C68.0488 26.4375 66.9091 27.5771 66.9091 28.9829C66.9091 49.9291 49.9291 66.9091 28.9829 66.9091C27.5771 66.9091 26.4375 68.0488 26.4375 69.4546C26.4375 70.8604 27.5771 72 28.9829 72C52.7406 72 72 52.7406 72 28.9829C72 27.5771 70.8604 26.4375 69.4546 26.4375Z" fill="#005EB8"/>
<path d="M54.0916 42.75C56.5394 38.7568 58.9067 33.4325 58.441 25.9786C57.4762 10.5382 43.4913 -1.17521 30.2857 0.0941985C25.116 0.591156 19.8077 4.8051 20.2793 12.3531C20.4842 15.6331 22.0896 17.569 24.6987 19.0574C27.182 20.4741 30.3726 21.3715 33.9894 22.3887C38.3582 23.6176 43.426 24.9978 47.321 27.8682C51.9891 31.3083 55.1803 35.2961 54.0916 42.75Z" fill="#003B5C"/>
<path d="M4.40844 15.75C1.9606 19.7432 -0.406694 25.0675 0.0590547 32.5214C1.02383 47.9618 15.0087 59.6752 28.2143 58.4058C33.384 57.9088 38.6923 53.6949 38.2207 46.1469C38.0158 42.8669 36.4103 40.931 33.8013 39.4426C31.318 38.0259 28.1275 37.1285 24.5106 36.1113C20.1418 34.8824 15.074 33.5022 11.1791 30.6318C6.5109 27.1917 3.31978 23.2039 4.40844 15.75Z" fill="#005EB8"/>
</g>
<defs>
<clipPath id="clip0_7881_14350">
<rect width="72" height="72" fill="white"/>
</clipPath>
</defs>
</svg>
