<svg width="74" height="74" viewBox="0 0 74 74" fill="none" xmlns="http://www.w3.org/2000/svg">
<path d="M51.2742 49.6971C54.005 49.4395 56.0767 47.2949 55.9824 44.7211C55.8885 42.1475 53.5341 40.0884 50.7091 40.0884H50.5209C47.6014 40.1743 45.3415 42.4047 45.4357 45.0642C45.5299 46.3511 46.0948 47.4664 46.9423 48.2385C43.7406 53.9866 38.8439 58.1903 31.4988 61.7077C26.5079 64.1098 21.3288 64.9678 16.1496 64.3674C11.912 63.8525 8.61608 62.1369 6.54408 59.3055C3.53089 55.1018 3.24848 50.5548 5.79107 46.008C7.58037 42.7479 10.4051 40.3457 12.1944 39.1446C11.8177 38.0294 11.2526 36.142 10.9702 34.7695C-2.68424 43.7775 -1.27159 55.9598 2.87183 61.7077C5.97925 65.9974 12.2886 68.6569 19.257 68.6569C21.1403 68.6569 23.0235 68.4852 24.9071 68.0565C36.9607 65.9116 46.0951 59.3913 51.2742 49.6971ZM67.8479 39.059C60.691 31.4236 50.1442 27.2199 38.0906 27.2199H36.584C35.7365 25.6757 33.9472 24.646 31.9697 24.646H31.7813C28.8623 24.7319 26.6024 26.9624 26.6964 29.6221C26.7906 32.1957 29.1447 34.2547 31.9697 34.2547H32.1579C34.2296 34.1689 36.0189 32.9678 36.7722 31.3377H38.4673C45.6242 31.3377 52.4041 33.2251 58.5253 36.9142C63.2336 39.7453 66.6237 43.4344 68.5069 47.8953C70.1078 51.4986 70.0135 55.016 68.3185 58.0188C65.6819 62.5656 61.2561 65.0536 55.4176 65.0536C51.6508 65.0536 48.0725 64.024 46.189 63.2519C45.1533 64.1098 43.2698 65.4823 41.9513 66.3406C46.0008 68.0562 50.1442 69 54.0992 69C63.1393 69 69.8253 64.4529 72.3679 59.9062C75.0987 54.9301 74.9102 46.3511 67.8479 39.059ZM20.0103 51.1552C20.1046 53.729 22.4587 55.7878 25.2837 55.7878H25.4722C28.3914 55.7022 30.6513 53.4715 30.5571 50.8121C30.4631 48.2382 28.1087 46.1794 25.2837 46.1794H25.0955C24.9071 46.1794 24.6244 46.1794 24.4365 46.265C20.5755 40.4313 18.9746 34.083 19.5398 27.2196C19.9161 22.0722 21.7996 17.611 25.0955 13.9219C27.8263 10.7476 33.0997 9.2034 36.6783 9.11781C46.6599 8.94611 50.8972 20.2704 51.18 24.8175C52.4041 25.0748 54.4758 25.6754 55.8885 26.1044C54.7583 12.2065 45.3415 5 36.3016 5C27.8263 5 20.0103 10.5764 16.9026 18.8123C12.571 29.7935 15.396 40.3457 20.6694 48.6674C20.1988 49.2678 19.9161 50.2114 20.0103 51.1552Z" fill="#764ABC"/>
</svg>
