<svg width="74" height="74" viewBox="0 0 74 74" fill="none" xmlns="http://www.w3.org/2000/svg">
<path d="M21.5931 12.9211C9.79932 12.9211 0.766113 28.2703 0.766113 44.5012C0.766113 54.6617 5.68018 61.0789 13.9185 61.0789C19.8442 61.0789 24.1079 58.2895 31.6958 45.036C31.6958 45.036 34.861 39.4571 37.029 35.6125L41.5384 27.9813C45.3685 22.0699 48.5337 19.1215 52.2915 19.1215C60.0962 19.1215 66.3399 30.6117 66.3399 44.7324C66.3399 50.109 64.5767 53.2309 60.92 53.2309C57.4224 53.2309 55.7458 50.9184 49.0974 40.2231L42.9837 45.5563C49.9067 57.1477 53.7657 61.0789 60.761 61.0789C68.7825 61.0789 73.2485 54.5606 73.2485 44.1832C73.2485 27.1719 64.013 12.8922 52.7829 12.8922C46.8427 12.8922 42.1888 17.3727 37.9829 23.0528L33.3145 29.9035C28.704 36.9856 25.9001 41.4227 25.9001 41.4227C19.7575 51.0629 17.6329 53.2164 14.2075 53.2164C10.681 53.2164 8.59971 50.1235 8.59971 44.6168C8.59971 32.8231 14.4821 20.7692 21.4919 20.7692L21.5931 12.9211Z" fill="url(#paint0_linear_7829_5891)"/>
<path d="M38.3731 28.3859L33.3145 29.9469C28.704 37.0289 25.9001 41.466 25.9001 41.466C19.7575 51.1063 17.6329 53.2598 14.2075 53.2598C10.681 53.2598 8.59971 50.1668 8.59971 44.6602C8.59971 32.8664 14.4821 20.8125 21.4919 20.8125L21.5931 12.9356C9.79932 12.9211 0.766113 28.2703 0.766113 44.5012C0.766113 54.6617 5.68018 61.0789 13.9185 61.0789C19.8442 61.0789 24.1079 58.2895 31.6958 45.0359C31.6958 45.0359 34.861 39.457 37.029 35.6125L38.3731 28.3859Z" fill="url(#paint1_linear_7829_5891)"/>
<path d="M42.9835 45.5707C49.9065 57.1621 53.7655 61.0789 60.7608 61.0789L60.9198 53.2308C57.4222 53.2308 55.7456 50.9328 49.0972 40.2375C43.5183 31.1609 40.671 26.6226 37.9827 23.0816C32.2015 15.725 27.3741 12.9211 21.5929 12.9211L21.4917 20.798C25.2929 20.798 28.4581 22.9949 33.3144 29.9469C35.3522 32.8086 39.5292 39.616 42.9835 45.5707Z" fill="url(#paint2_linear_7829_5891)"/>
<path d="M37.9684 23.0816C32.1871 15.725 27.3598 12.9211 21.5641 12.9211C15.8551 12.9211 10.7965 16.5199 7.08203 22.0699L12.6609 27.7789C14.9879 23.573 18.1242 20.8125 21.4918 20.8125C25.293 20.8125 28.4293 22.9805 33.2855 29.9324L37.9684 23.0816Z" fill="url(#paint3_linear_7829_5891)"/>
<path d="M46.8281 51.641C51.5832 58.5641 55.1676 61.0789 60.7609 61.0789C68.7824 61.0789 73.2484 54.5606 73.2484 44.1832L66.3398 44.7324C66.3398 50.109 64.5766 53.2309 60.9199 53.2309C58.1016 53.2309 56.4539 51.7278 52.4215 45.5129L46.8281 51.641Z" fill="url(#paint4_linear_7829_5891)"/>
<defs>
<linearGradient id="paint0_linear_7829_5891" x1="0.766113" y1="36.9856" x2="73.2485" y2="36.9856" gradientUnits="userSpaceOnUse">
<stop stop-color="#0064E0"/>
<stop offset="0.061763" stop-color="#006AE5"/>
<stop offset="0.2183" stop-color="#007AF4"/>
<stop offset="0.8106" stop-color="#007DF6"/>
<stop offset="1" stop-color="#0080F9"/>
</linearGradient>
<linearGradient id="paint1_linear_7829_5891" x1="7.19573" y1="27.9415" x2="33.3462" y2="54.9827" gradientUnits="userSpaceOnUse">
<stop stop-color="#0064E0"/>
<stop offset="0.0134753" stop-color="#0065E1"/>
<stop offset="0.2894" stop-color="#0075F0"/>
<stop offset="0.5971" stop-color="#007FF9"/>
<stop offset="1" stop-color="#0082FC"/>
</linearGradient>
<linearGradient id="paint2_linear_7829_5891" x1="15.9345" y1="8.99215" x2="60.1394" y2="56.7641" gradientUnits="userSpaceOnUse">
<stop stop-color="#0082FB"/>
<stop offset="0.0216721" stop-color="#017CF5"/>
<stop offset="0.0904785" stop-color="#0471EA"/>
<stop offset="0.1872" stop-color="#066AE3"/>
<stop offset="0.4561" stop-color="#0668E1"/>
<stop offset="0.7462" stop-color="#056AE3"/>
<stop offset="0.8847" stop-color="#0472EB"/>
<stop offset="0.9742" stop-color="#017CF5"/>
<stop offset="1" stop-color="#0082FB"/>
</linearGradient>
<linearGradient id="paint3_linear_7829_5891" x1="7.08203" y1="21.4267" x2="37.9684" y2="21.4267" gradientUnits="userSpaceOnUse">
<stop stop-color="#0064E0"/>
<stop offset="0.4218" stop-color="#0069E4"/>
<stop offset="0.4332" stop-color="#0069E4"/>
<stop offset="1" stop-color="#0668E1"/>
</linearGradient>
<linearGradient id="paint4_linear_7829_5891" x1="46.8304" y1="52.6311" x2="73.2484" y2="52.6311" gradientUnits="userSpaceOnUse">
<stop stop-color="#066BE3"/>
<stop offset="0.3087" stop-color="#0470E9"/>
<stop offset="0.559" stop-color="#0279F2"/>
<stop offset="1" stop-color="#0080F9"/>
</linearGradient>
</defs>
</svg>
