<svg width="72" height="72" viewBox="0 0 72 72" fill="none" xmlns="http://www.w3.org/2000/svg">
<path d="M63.6327 25.4531C66.7393 25.4531 69.2577 22.9347 69.2577 19.8281C69.2577 16.7216 66.7393 14.2031 63.6327 14.2031C60.5262 14.2031 58.0077 16.7216 58.0077 19.8281C58.0077 19.8953 58.0105 19.9619 58.0128 20.0285L51.5828 23.9763C51.0575 23.3018 50.4862 22.6557 49.8689 22.0424C46.8289 19.0222 43.0037 17.1141 38.8826 16.5157V10.4955C40.5635 9.52284 41.6951 7.70667 41.6951 5.625C41.6951 2.51845 39.1766 0 36.0701 0C32.9635 0 30.4451 2.51845 30.4451 5.625C30.4451 7.70667 31.5767 9.52284 33.2576 10.4955V16.512C29.0107 17.1156 25.0979 19.081 22.0364 22.1925C21.4975 22.7402 20.9956 23.3144 20.5296 23.9109L13.9876 19.9991C13.9893 19.9422 13.9919 19.8855 13.9919 19.8283C13.9919 16.7217 11.4735 14.2033 8.36694 14.2033C5.2604 14.2033 2.74194 16.7217 2.74194 19.8283C2.74194 22.9348 5.2604 25.4533 8.36694 25.4533C9.33022 25.4533 10.2366 25.2108 11.0293 24.784L17.7382 28.7956C16.8255 31.119 16.3588 33.6199 16.3836 36.1928C16.4072 38.6648 16.8809 41.0624 17.7635 43.2908L10.8405 47.5414C10.0941 47.175 9.25485 46.9688 8.36708 46.9688C5.26054 46.9688 2.74208 49.4872 2.74208 52.5938C2.74208 55.7003 5.26054 58.2188 8.36708 58.2188C11.4736 58.2188 13.9921 55.7003 13.9921 52.5938C13.9921 52.4665 13.9863 52.3408 13.978 52.2156L20.5702 48.1681C21.0744 48.8088 21.6208 49.4221 22.2088 50.004C25.2407 53.0045 29.0892 54.9004 33.2576 55.4896V61.5043C31.5767 62.477 30.4451 64.2932 30.4451 66.3749C30.4451 69.4814 32.9635 71.9999 36.0701 71.9999C39.1766 71.9999 41.6951 69.4814 41.6951 66.3749C41.6951 64.2932 40.5635 62.477 38.8826 61.5043V55.4863C41.6006 55.0959 44.2045 54.1415 46.543 52.6695L40.4608 49.3618C39.0567 49.8225 37.58 50.0618 36.0768 50.0625C36.0744 50.0625 36.0727 50.0625 36.0702 50.0625C28.3898 50.0625 22.082 43.8175 22.0083 36.1388C21.9721 32.3722 23.4059 28.8204 26.0459 26.1375C28.6864 23.454 32.2129 21.9625 35.9754 21.9378C36.0064 21.9376 36.0369 21.9375 36.0675 21.9375C39.7535 21.9375 43.2439 23.3899 45.9044 26.0329C48.631 28.7416 50.1324 32.3308 50.1324 36.1395V36.3729C50.1324 38.1833 48.6705 39.6562 46.8737 39.6562C45.0736 39.6562 43.6637 38.2141 43.6637 36.3731V34.3125V26.4375H38.0387V26.6611C37.2832 26.4246 36.4803 26.2969 35.6481 26.2969C31.2282 26.2969 27.6324 29.8927 27.6324 34.3125V37.4062C27.6324 41.8261 31.2282 45.4219 35.6481 45.4219C37.7976 45.4219 39.7508 44.5697 41.1918 43.1873C41.9053 43.7933 42.7152 44.2865 43.5942 44.6423L43.5855 44.6583L58.0097 52.5029C58.0091 52.5333 58.0073 52.5632 58.0073 52.5938C58.0073 55.7003 60.5257 58.2188 63.6323 58.2188C66.7388 58.2188 69.2573 55.7003 69.2573 52.5938C69.2573 49.4872 66.7388 46.9688 63.6323 46.9688C62.6423 46.9688 61.7128 47.2254 60.9047 47.6743L52.6133 43.1648C54.535 41.5295 55.7577 39.0923 55.7577 36.3731V36.1396C55.7577 33.6095 55.2834 31.1504 54.3782 28.8607L60.9964 24.7974C61.7829 25.2153 62.6798 25.4531 63.6327 25.4531ZM38.039 37.4062C38.039 38.7245 36.9666 39.7969 35.6483 39.7969C34.3301 39.7969 33.2577 38.7245 33.2577 37.4062V34.3125C33.2577 32.9943 34.3301 31.9219 35.6483 31.9219C36.9666 31.9219 38.039 32.9943 38.039 34.3125V36.3731V37.4062Z" fill="black"/>
</svg>
