<svg width="75" height="67" viewBox="0 0 75 67" fill="none" xmlns="http://www.w3.org/2000/svg">
<g clip-path="url(#clip0_7859_14424)">
<path d="M43.4671 3.66066C42.1983 1.53918 39.9193 0.242065 37.4608 0.242065C35.0024 0.242065 32.7234 1.53918 31.4546 3.66066L21.5743 20.7095C36.9334 28.4349 47.0769 43.7837 48.2271 61.0398H41.2898C40.1418 46.249 31.311 33.1744 18.0757 26.6698L8.93114 42.5992C16.3622 45.9568 21.5853 52.8949 22.7906 61.0096H6.85899C6.47515 60.9822 6.13084 60.7618 5.9432 60.4234C5.75556 60.0849 5.74985 59.674 5.92802 59.3304L10.3426 51.7666C8.84696 50.5094 7.13761 49.5356 5.29736 48.8923L0.92781 56.4561C0.00895418 58.044 -0.239842 59.9366 0.237073 61.7106C0.713989 63.4847 1.87682 64.9921 3.46545 65.8958C4.50168 66.484 5.66962 66.7964 6.85899 66.8035H28.6767C29.5009 56.5577 24.944 46.6243 16.6642 40.6175L20.1328 34.5664C30.5856 41.7992 36.4669 54.0581 35.5989 66.8035H54.0832C54.9591 47.4915 45.5734 29.1678 29.4425 18.6975L36.4548 6.59543C36.78 6.04644 37.4837 5.86415 38.0314 6.18698C38.8273 6.62568 68.4982 58.7858 69.0537 59.3909C69.253 59.7508 69.2458 60.1906 69.0349 60.5437C68.824 60.8968 68.4416 61.1091 68.0327 61.1003H60.8852C60.9753 63.0266 60.9753 64.9478 60.8852 66.8641H68.0627C69.9036 66.8761 71.6729 66.1458 72.976 64.8357C74.2792 63.5257 75.008 61.7448 75 59.8901C75.0008 58.6773 74.6794 57.4864 74.069 56.441L43.4671 3.66066Z" fill="#362D59"/>
</g>
<defs>
<clipPath id="clip0_7859_14424">
<rect width="75" height="67" fill="white"/>
</clipPath>
</defs>
</svg>
