<svg width="74" height="74" viewBox="0 0 74 74" fill="none" xmlns="http://www.w3.org/2000/svg">
<g clip-path="url(#clip0_1341_5099)">
<path d="M67.4481 4.33316C66.4196 6.80268 65.0884 9.13465 63.4852 11.2754C60.0526 7.72066 55.9426 4.89121 51.3984 2.95451C46.8541 1.01781 41.968 0.013206 37.0291 0.000129328C32.0902 -0.0129474 27.1988 0.965774 22.6444 2.87838C18.09 4.79099 13.9651 7.59863 10.5138 11.1352C7.06244 14.6717 4.35479 18.8653 2.55104 23.4678C0.74729 28.0704 -0.115921 32.9883 0.0124844 37.9306C0.14089 42.873 1.2583 47.7394 3.29861 52.2418C5.33891 56.7442 8.26066 60.7913 11.891 64.1435L13.2627 65.3641C18.4685 69.7589 24.7877 72.6258 31.5208 73.647C38.2538 74.6683 45.1378 73.8042 51.4105 71.1504C57.6831 68.4965 63.0996 64.1566 67.0601 58.6111C71.0206 53.0657 73.3706 46.5311 73.8498 39.7311C74.9167 30.4239 72.0969 18.5228 67.4481 4.33316ZM17.2257 64.4486C16.8338 64.9306 16.3081 65.2856 15.7148 65.4685C15.1215 65.6515 14.4873 65.6543 13.8924 65.4766C13.2976 65.2989 12.7687 64.9487 12.3726 64.4702C11.9765 63.9916 11.731 63.4063 11.6671 62.7882C11.6032 62.17 11.7238 61.5468 12.0137 60.9973C12.3035 60.4477 12.7496 59.9965 13.2956 59.7007C13.8415 59.4048 14.4628 59.2776 15.0809 59.3352C15.6991 59.3927 16.2863 59.6324 16.7684 60.0239C17.4004 60.5597 17.8009 61.3195 17.8861 62.1442C17.9714 62.9689 17.7347 63.7946 17.2257 64.4486ZM67.2195 53.3868C58.1505 65.5167 38.6407 61.3971 26.2185 62.0074C26.2185 62.0074 24.0084 62.16 21.7983 62.4651C21.7983 62.4651 22.6366 62.0837 23.7035 61.7022C32.4677 58.6507 36.583 58.0404 41.9177 55.294C51.9013 50.1826 61.8848 38.9682 63.8662 27.3723C60.0557 38.5105 48.4718 48.1228 37.9548 52.0136C30.7149 54.6837 17.6829 57.2775 17.6829 57.2775L17.1495 56.9723C8.30909 52.6239 8.00425 33.3991 24.1608 27.2198C31.2483 24.4734 37.9548 25.9991 45.652 24.1682C53.8065 22.261 63.2566 16.1579 67.0671 8.14759C71.3348 21.0404 76.5171 41.028 67.2195 53.3868Z" fill="#6DB33F"/>
</g>
<defs>
<clipPath id="clip0_1341_5099">
<rect width="74" height="74" fill="white"/>
</clipPath>
</defs>
</svg>
