<svg width="74" height="74" viewBox="0 0 74 74" fill="none" xmlns="http://www.w3.org/2000/svg">
<g clip-path="url(#clip0_1382_4029)">
<path d="M70.8803 45.4979C61.7339 47.3167 61.1033 44.3295 61.1033 44.3295C70.7617 30.5076 74.7949 12.9577 71.3111 8.66358C61.8088 -3.0504 45.3576 2.4904 45.0829 2.63494L44.9893 2.64699C43.1849 2.28563 41.1621 2.06882 38.8895 2.03268C34.7502 1.96643 31.6098 3.08062 29.2311 4.82115C29.2311 4.82115 -0.11881 -6.84464 1.24848 19.4922C1.54192 25.0933 9.57084 61.8794 19.1544 50.7676C22.6569 46.7024 26.0407 43.2695 26.0407 43.2695C27.7202 44.3475 29.7368 44.8956 31.8408 44.6969L32.0031 44.5644C31.9532 45.0703 31.9781 45.5641 32.0656 46.1483C29.5994 48.8103 30.3237 49.274 25.3852 50.2557C20.3905 51.2495 23.3249 53.0141 25.2416 53.4778C27.5641 54.0379 32.9334 54.8329 36.567 49.9305L36.4234 50.4906C37.3911 51.2374 38.0716 55.3508 37.9593 59.0788C37.8469 62.8068 37.772 65.3664 38.5336 67.366C39.2953 69.3655 40.057 73.8643 46.5438 72.5213C51.9631 71.4011 54.7726 68.4982 55.1659 63.656C55.4406 60.2111 56.0712 60.723 56.1086 57.6455L56.6143 56.188C57.195 51.5205 56.708 50.0148 60.0482 50.7134L60.8598 50.7797C63.3197 50.8881 66.535 50.4003 68.4205 49.5511C72.4724 47.7383 74.8886 44.6969 70.8803 45.4979Z" fill="#336791"/>
<path d="M35.8303 48.1418C35.849 47.5395 36.3672 47.0638 36.9915 47.0818C37.6159 47.0999 38.1091 47.5998 38.0904 48.202C37.9593 52.6768 37.9842 57.1637 38.1528 60.7532C38.3089 63.9873 38.5773 66.4204 38.9519 67.3238C39.3515 68.2814 39.9696 69.6967 41.1558 70.6543C42.3109 71.5939 44.0902 72.166 46.9247 71.5818C49.4033 71.0699 51.0703 70.3411 52.1816 69.227C53.2804 68.1248 53.9047 66.565 54.2918 64.3848C54.579 62.7948 54.9723 60.0184 55.3282 57.254C55.7777 53.797 56.1898 50.3039 56.2772 49.1777C56.3209 48.5754 56.8641 48.1237 57.4884 48.1719C58.1127 48.2141 58.581 48.738 58.531 49.3403C58.4436 50.4364 58.0316 53.9717 57.5633 57.5311C57.1887 60.3858 56.7891 63.2164 56.5144 64.7522C56.0462 67.36 55.2533 69.2812 53.7986 70.7386C52.3501 72.1901 50.3211 73.1055 47.3804 73.7138C43.7281 74.4666 41.3182 73.6415 39.6887 72.3166C38.0841 71.0157 37.3224 69.2932 36.8417 68.1308C36.3672 66.9926 36.0488 64.3065 35.8802 60.8435C35.7179 57.2239 35.6992 52.6768 35.8303 48.1418Z" fill="white"/>
<path d="M29.5994 3.61655C30.1801 3.83938 30.461 4.47176 30.23 5.03186C29.999 5.59196 29.3435 5.86298 28.7628 5.64014C28.6879 5.61003 1.02997 -5.29089 2.30985 19.3295C2.46594 22.371 4.96327 34.8137 8.75921 43.4922C9.95793 46.2265 11.2753 48.5633 12.6738 50.0569C13.8413 51.3096 15.0338 51.9119 16.1825 51.5144C16.8194 51.2915 17.4999 50.7916 18.2179 49.9605C21.7329 45.8832 24.9294 42.6611 24.9419 42.6551C25.3727 42.2215 26.0845 42.2034 26.534 42.619C26.9835 43.0345 27.0022 43.7211 26.5714 44.1547C26.5652 44.1608 23.4435 47.2985 19.9535 51.3517C18.9608 52.5081 17.9494 53.2248 16.9317 53.5741C14.7715 54.3149 12.7862 53.4476 10.9881 51.5204C9.41476 49.8401 7.96631 47.2925 6.68019 44.3354C2.7781 35.428 0.212096 22.5878 0.0497692 19.4319C-1.40493 -8.60935 29.512 3.58041 29.5994 3.61655Z" fill="white"/>
<path d="M45.6386 3.44801L43.9591 1.67736C44.0965 1.62918 44.2338 1.58703 44.3712 1.55089C44.7395 1.43646 45.1391 1.32203 45.5699 1.20158C46.2005 1.0209 47.1245 0.786018 48.2545 0.575226C53.8922 -0.47873 64.893 -1.05088 72.1415 7.88668C74.1893 10.4101 74.0207 16.6556 71.9042 24.0514C70.0312 30.5979 66.6536 38.1443 61.9836 44.8294C61.634 45.3292 60.9285 45.4617 60.4103 45.1245C59.8921 44.7872 59.7547 44.1067 60.1044 43.6068C64.637 37.1204 67.9085 29.803 69.7253 23.4672C71.6608 16.7098 71.9667 11.1991 70.3621 9.22369C63.8566 1.2076 53.8236 1.74964 48.6728 2.71928C47.6177 2.91802 46.7748 3.12881 46.2005 3.29142L45.6386 3.44801Z" fill="white"/>
<path d="M62.1147 43.8838C62.1272 43.9139 62.1334 43.944 62.1397 43.9741C62.1397 43.9802 62.5268 45.9255 70.5869 44.3234C71.7294 44.0946 72.5411 44.1428 73.0655 44.3897C73.746 44.7029 74.0395 45.2268 73.9958 45.9014C73.9708 46.3109 73.771 46.7506 73.4401 47.1902C72.6784 48.196 70.9365 49.4969 68.82 50.4424C67.2342 51.1531 64.8181 51.6289 62.6017 51.7493C61.2968 51.8216 60.0482 51.7734 59.0555 51.5807C57.8068 51.3398 56.8578 50.8399 56.4645 50.0269C56.3583 49.81 56.2959 49.5752 56.2834 49.3222C56.0337 45.0943 58.1689 44.3536 59.6611 43.944C59.505 43.7272 59.2927 43.4682 59.0555 43.1852C58.3 42.2758 57.3323 41.1074 56.5644 39.3187C56.4458 39.0476 56.1024 38.4454 55.6404 37.6504C53.6862 34.2717 49.8403 27.6107 50.5958 23.0636C51.1327 19.8174 53.6987 17.6613 60.1106 18.3058L60.0482 18.1251C59.7422 17.2879 59.2553 16.1918 58.5498 14.9632C55.7527 10.0488 49.653 3.19504 38.8208 3.02641C22.2947 2.76743 22.8379 22.8709 22.8379 22.9251C22.8504 23.5274 22.3509 24.0212 21.7266 24.0333C21.1023 24.0453 20.5903 23.5635 20.5778 22.9612C20.5778 22.895 19.966 0.551113 38.8521 0.84622C50.7768 1.03292 57.4697 8.53709 60.5289 13.9093C61.2906 15.2463 61.8337 16.4628 62.1771 17.4084C62.5642 18.4684 62.7078 19.2995 62.6454 19.6669C62.558 20.2089 62.2458 20.5462 61.7089 20.6486L61.3031 20.6546C55.4219 19.7452 53.1992 21.1364 52.8246 23.4009C52.194 27.2132 55.7902 33.4285 57.6133 36.5904C58.1065 37.4456 58.4811 38.0961 58.6497 38.4936C59.299 40.0052 60.1481 41.0291 60.8098 41.8361C61.4279 42.5648 61.9149 43.1551 62.1147 43.8838ZM71.0427 46.4554C65.0678 47.6479 62.2833 46.7746 61.0034 45.8351C60.8286 45.8893 60.6413 45.9375 60.4415 45.9917C59.6423 46.2085 58.3999 46.5458 58.531 49.1355C58.6247 49.2319 58.9743 49.3343 59.4863 49.4366C60.3041 49.5932 61.353 49.6294 62.4706 49.5691C64.4247 49.4607 66.5287 49.0572 67.8711 48.455C69.2508 47.8346 70.4058 47.0878 71.1176 46.4374L71.0427 46.4554Z" fill="white"/>
<path d="M32.8397 46.7747C32.3777 47.2745 31.9969 47.7383 31.6722 48.1358C30.2862 49.8341 29.8554 50.3641 25.5537 51.2194C24.7796 51.3759 24.2551 51.5265 23.9305 51.6771C24.3301 51.9541 24.9294 52.183 25.4538 52.3094C26.5152 52.5684 28.2758 52.8756 30.1613 52.5684C31.9969 52.2673 33.976 51.3579 35.5805 49.1897C35.6305 49.1175 35.6742 49.0392 35.7116 48.9609C35.874 48.5814 35.8365 48.1057 35.6742 47.654C35.4994 47.1722 35.181 46.7506 34.8126 46.4916C34.7252 46.4314 34.6378 46.3832 34.5441 46.3471L34.4879 46.323C34.2569 46.2326 34.001 46.1363 33.7825 46.1543C33.5452 46.1784 33.2455 46.335 32.8397 46.7747ZM29.8929 46.7807C30.1988 46.4073 30.5547 45.9737 31.0916 45.3895C31.1353 45.3353 31.1852 45.2811 31.2352 45.2329C32.0655 44.3656 32.8584 44.0404 33.5889 43.9802C34.3131 43.9199 34.875 44.1187 35.3495 44.3114C35.3683 44.3174 35.387 44.3235 35.412 44.3355C35.6555 44.4319 35.8927 44.5644 36.1237 44.721C36.8667 45.2329 37.4785 46.0459 37.8094 46.9313C38.1465 47.8527 38.2027 48.8826 37.8032 49.798C37.7033 50.0269 37.5784 50.2437 37.4223 50.4545C35.3995 53.1887 32.8772 54.333 30.5422 54.7185C28.2509 55.0979 26.1656 54.7305 24.9044 54.4294C23.9867 54.2066 22.8504 53.7127 22.1823 53.1104C21.789 52.7551 21.5206 52.3335 21.4456 51.8638C21.3582 51.3037 21.533 50.7616 22.0637 50.2798C22.5757 49.8161 23.5247 49.3945 25.0917 49.0813C28.5818 48.3887 28.8939 48.0093 29.8929 46.7807Z" fill="white"/>
<path d="M32.9584 45.8291C33.052 46.4253 32.6275 46.9854 32.0094 47.0698C31.3913 47.1541 30.8107 46.7506 30.7233 46.1543C30.6983 46.0098 30.6858 45.8652 30.6733 45.7147C30.2987 45.7026 29.9304 45.6785 29.5683 45.6243C27.1458 45.2991 24.9544 44.1187 23.3062 42.3721C21.6767 40.6497 20.5779 38.3731 20.3219 35.8316C20.2282 34.9282 20.247 33.9886 20.3843 33.0431C20.94 29.2248 20.7277 25.8099 20.6216 24.0393C20.5903 23.5575 20.5716 23.1961 20.5716 22.9191C20.5779 22.2024 22.4446 20.6245 24.9045 19.6488C26.0158 19.2092 27.2582 18.8418 28.4882 18.6611C29.7868 18.4744 31.0979 18.4925 32.2779 18.8478C34.1259 19.4079 35.5931 20.7269 36.155 23.2503C38.184 32.2903 36.3672 36.1749 34.95 39.2163C34.7065 39.7402 34.4755 40.2341 34.3007 40.6798C34.2945 40.7099 34.282 40.734 34.2695 40.7641C33.6764 42.3059 34.5442 40.0474 34.0947 41.1977C33.3892 43.0527 32.7711 44.6426 32.9584 45.8291ZM30.9168 43.5405C31.1603 42.5709 31.5599 41.547 31.9844 40.4449C32.3216 39.5776 31.4413 41.8482 32.1467 40.0113C32.1592 39.9811 32.1717 39.951 32.1842 39.9209C32.4027 39.3608 32.64 38.8609 32.8835 38.331C34.1696 35.5786 35.8053 32.0614 33.9386 23.7261C33.5765 22.106 32.6962 21.2749 31.5973 20.9437C30.7732 20.6967 29.8055 20.6907 28.8128 20.8353C27.7514 20.9919 26.6901 21.305 25.7411 21.6784C24.0741 22.3349 22.813 22.889 22.813 22.9372C22.813 23.0937 22.8317 23.4491 22.8629 23.9249C22.9753 25.7618 23.1938 29.3211 22.6132 33.3563C22.5008 34.1452 22.4821 34.9101 22.557 35.6449C22.763 37.6926 23.6496 39.5294 24.9669 40.9207C26.2655 42.2938 27.9824 43.2273 29.8679 43.4803C30.2176 43.5164 30.5672 43.5405 30.9168 43.5405Z" fill="white"/>
<path d="M29.075 22.7745C29.025 23.1299 29.7555 24.0875 30.7045 24.2139C31.6535 24.3404 32.4714 23.5936 32.5213 23.2383C32.5713 22.883 31.8408 22.4855 30.8918 22.359C29.9428 22.2325 29.1249 22.4192 29.075 22.7745Z" fill="white"/>
<path d="M29.4496 22.8227C29.4371 22.901 29.5682 23.1058 29.7867 23.3286C30.0302 23.5756 30.3736 23.7984 30.7544 23.8526H30.7607C31.1353 23.9008 31.4849 23.7803 31.7471 23.6057C31.9906 23.4491 32.1405 23.2805 32.1592 23.1841C32.1592 23.166 32.0655 23.1118 31.9095 23.0275C31.6535 22.889 31.2789 22.7746 30.8481 22.7143H30.8356C30.4111 22.6601 30.0177 22.6722 29.7368 22.7384C29.562 22.7806 29.4496 22.8107 29.4496 22.8227ZM29.2436 23.8285C28.8752 23.4551 28.6692 23.0094 28.7066 22.7324V22.7204C28.7566 22.3771 29.075 22.1422 29.562 22.0278C29.9303 21.9434 30.4173 21.9254 30.9355 21.9916C30.9417 21.9916 30.948 21.9916 30.9542 21.9916C31.4787 22.0639 31.9469 22.2084 32.2778 22.3891C32.7148 22.624 32.9583 22.9432 32.9084 23.2805C32.8709 23.5455 32.59 23.9309 32.1717 24.2019C31.7783 24.4609 31.2414 24.6476 30.6608 24.5693H30.6545C30.0802 24.497 29.5869 24.1778 29.2436 23.8285Z" fill="white"/>
<path d="M58.069 22.0458C58.119 22.4012 57.3885 23.3587 56.4395 23.4852C55.4843 23.6117 54.6727 22.8649 54.6227 22.5096C54.5728 22.1542 55.3032 21.7567 56.2585 21.6303C57.2012 21.5038 58.0128 21.6905 58.069 22.0458Z" fill="white"/>
<path d="M58.2501 22.0217C58.2813 22.2506 58.094 22.6421 57.7631 22.9793C57.4447 23.3045 56.9827 23.5996 56.4583 23.6659H56.452C55.9276 23.7321 55.4406 23.5635 55.0785 23.3286C54.7039 23.0877 54.4604 22.7565 54.4229 22.5336C54.3855 22.2747 54.5915 22.0217 54.9599 21.823C55.272 21.6543 55.7153 21.5158 56.2148 21.4496C56.7142 21.3833 57.1825 21.4014 57.5321 21.4797C57.9442 21.57 58.2126 21.7567 58.2501 22.0217ZM57.4884 22.7264C57.7444 22.4674 57.8942 22.2024 57.8755 22.0699C57.863 21.9735 57.7007 21.8892 57.451 21.829C57.145 21.7567 56.7267 21.7447 56.271 21.8049C55.8214 21.8651 55.4219 21.9916 55.1472 22.1362C54.9224 22.2566 54.7913 22.3831 54.8038 22.4794C54.8225 22.6119 55.0098 22.8348 55.297 23.0215C55.5904 23.2142 55.99 23.3527 56.4146 23.2985H56.4208C56.8391 23.2443 57.22 22.9974 57.4884 22.7264Z" fill="white"/>
<path d="M60.3416 19.6247C60.3104 19.0225 60.7911 18.5106 61.4155 18.4805C62.0398 18.4503 62.5705 18.9141 62.6017 19.5163C62.6953 21.2027 62.4831 22.5397 62.2583 23.943C62.0897 24.9909 61.9149 26.087 61.8775 27.3096C61.84 28.472 61.9961 29.7608 62.1647 31.0858C62.6017 34.5729 63.0637 38.3069 60.3791 42.1674C60.0294 42.6673 59.3302 42.7998 58.812 42.4685C58.2938 42.1312 58.1564 41.4567 58.4998 40.9568C60.71 37.7709 60.2979 34.4524 59.9108 31.3447C59.736 29.9595 59.5674 28.6105 59.6174 27.2494C59.6611 25.8401 59.8421 24.7139 60.0169 23.6238C60.2292 22.3108 60.4228 21.0702 60.3416 19.6247Z" fill="white"/>
</g>
<defs>
<clipPath id="clip0_1382_4029">
<rect width="74" height="74" fill="white"/>
</clipPath>
</defs>
</svg>
