<svg width="72" height="82" viewBox="0 0 72 82" fill="none" xmlns="http://www.w3.org/2000/svg">
<g clip-path="url(#clip0_7861_14515)">
<path d="M62.9363 16.1024C62.8799 15.6921 62.5202 15.4654 62.2229 15.4405C61.9262 15.4156 55.6464 14.9509 55.6464 14.9509C55.6464 14.9509 51.285 10.6277 50.8065 10.1493C50.3274 9.67086 49.3921 9.81634 49.0291 9.92316C48.9753 9.93889 48.0761 10.2161 46.5882 10.6755C45.1311 6.48983 42.5603 2.64298 38.0368 2.64298C37.9121 2.64298 37.7834 2.64822 37.6548 2.65543C36.3683 0.956786 34.7747 0.218872 33.3984 0.218872C22.8615 0.218872 17.8274 13.3709 16.2489 20.0547C12.1546 21.3215 9.24574 22.222 8.87425 22.3386C6.58887 23.0542 6.51668 23.1263 6.21673 25.2765C5.99029 26.9044 0.010376 73.0797 0.010376 73.0797L46.6072 81.7971L71.8553 76.3433C71.8553 76.3433 62.9921 16.5126 62.9363 16.1024ZM44.0127 11.4711C42.8425 11.8328 41.5121 12.2437 40.0701 12.6894C40.0714 12.4121 40.0727 12.1389 40.0727 11.8407C40.0727 9.23899 39.7111 7.14452 39.1309 5.48388C41.4615 5.77617 43.0138 8.42374 44.0127 11.4711ZM36.2397 5.99964C36.8875 7.62095 37.3089 9.94741 37.3089 13.0871C37.3089 13.2477 37.3076 13.3945 37.3062 13.5433C34.7419 14.3362 31.9558 15.1973 29.163 16.0611C30.731 10.0188 33.6701 7.10061 36.2397 5.99964ZM33.109 3.04077C33.5638 3.04077 34.0219 3.19478 34.4604 3.49623C31.0835 5.08281 27.4638 9.07908 25.9352 17.0592C23.701 17.7499 21.5173 18.4249 19.4984 19.0494C21.2889 12.9626 25.5407 3.04077 33.109 3.04077Z" fill="#95BF46"/>
<path d="M62.2229 15.4405C61.9262 15.4156 55.6464 14.9509 55.6464 14.9509C55.6464 14.9509 51.285 10.6276 50.8065 10.1492C50.6273 9.97099 50.3858 9.8799 50.1331 9.84058L46.6099 81.7964L71.8553 76.3433C71.8553 76.3433 62.9921 16.5126 62.9363 16.1024C62.8799 15.6921 62.5202 15.4654 62.2229 15.4405Z" fill="#5E8E3E"/>
<path d="M38.0368 29.3698L34.9238 38.616C34.9238 38.616 32.196 37.1624 28.8526 37.1624C23.9511 37.1624 23.7043 40.234 23.7043 41.008C23.7043 45.231 34.7295 46.849 34.7295 56.7407C34.7295 64.5229 29.7859 69.5343 23.1201 69.5343C15.1213 69.5343 11.031 64.5635 11.031 64.5635L13.1726 57.4983C13.1726 57.4983 17.3772 61.1027 20.9253 61.1027C23.2435 61.1027 24.1867 59.2802 24.1867 57.9485C24.1867 52.4397 15.1417 52.194 15.1417 43.1424C15.1417 35.5241 20.6182 28.1515 31.6729 28.1515C35.9325 28.1515 38.0368 29.3698 38.0368 29.3698Z" fill="white"/>
</g>
<defs>
<clipPath id="clip0_7861_14515">
<rect width="72" height="82" fill="white"/>
</clipPath>
</defs>
</svg>
