<svg width="74" height="74" viewBox="0 0 74 74" fill="none" xmlns="http://www.w3.org/2000/svg">
<path d="M34.5767 0.0199137C34.4176 0.0343788 33.9112 0.0850067 33.4555 0.12117C22.9451 1.06864 13.1001 6.73897 6.86471 15.4542C3.39257 20.3 1.17185 25.7968 0.332747 31.619C0.0361681 33.6513 0 34.2516 0 37.0072C0 39.7629 0.0361681 40.3632 0.332747 42.3955C2.34369 56.2893 12.2321 67.9626 25.6432 72.2877C28.0448 73.0616 30.5765 73.5896 33.4555 73.9078C34.5767 74.0307 39.4233 74.0307 40.5445 73.9078C45.514 73.3581 49.7239 72.1286 53.8761 70.0094C54.5126 69.684 54.6356 69.5972 54.5488 69.5248C54.4909 69.4815 51.7783 65.8435 48.5232 61.4461L42.6061 53.4541L35.1916 42.4823C31.1118 36.4503 27.7554 31.5177 27.7265 31.5177C27.6976 31.5105 27.6686 36.3852 27.6542 42.3376C27.6325 52.7598 27.6252 53.1793 27.495 53.4252C27.3069 53.7796 27.1623 53.9242 26.8585 54.0833C26.627 54.1991 26.4244 54.2207 25.3322 54.2207H24.0807L23.748 54.011C23.531 53.8736 23.3718 53.6928 23.2633 53.483L23.1114 53.1576L23.1259 38.6563L23.1476 24.1477L23.3718 23.8657C23.4876 23.7138 23.7335 23.5185 23.9071 23.4245C24.2037 23.2798 24.3195 23.2654 25.5709 23.2654C27.0465 23.2654 27.2925 23.3232 27.6759 23.7427C27.7844 23.8584 31.799 29.9049 36.6021 37.1881C41.4053 44.4712 47.9734 54.416 51.1996 59.298L57.0588 68.1724L57.3554 67.9771C59.9812 66.2702 62.7589 63.8401 64.958 61.3087C69.6381 55.9349 72.6545 49.3822 73.6673 42.3955C73.9638 40.3632 74 39.7629 74 37.0072C74 34.2516 73.9638 33.6513 73.6673 31.619C71.6563 17.7252 61.7679 6.05187 48.3568 1.7268C45.9914 0.960147 43.4741 0.43217 40.653 0.113937C39.9586 0.0416114 35.1771 -0.0379469 34.5767 0.0199137ZM49.7239 22.3975C50.0712 22.571 50.3533 22.9037 50.4545 23.2509C50.5124 23.439 50.5269 27.4603 50.5124 36.5227L50.4907 49.5268L48.1977 46.0118L45.8974 42.4968V33.0438C45.8974 26.9323 45.9263 23.4968 45.9697 23.3305C46.0854 22.9254 46.3386 22.6072 46.6858 22.4192C46.9824 22.2673 47.0909 22.2528 48.2266 22.2528C49.2972 22.2528 49.4852 22.2673 49.7239 22.3975Z" fill="black"/>
</svg>
