<svg width="74" height="74" viewBox="0 0 74 74" fill="none" xmlns="http://www.w3.org/2000/svg">
<path d="M17.7775 68.0566L13 14.544H65.4961L60.7136 68.0482L39.2159 74L17.7775 68.0566Z" fill="#E34F26"/>
<path d="M39.248 69.4468L56.6192 64.6373L60.7062 18.9156H39.248V69.4468Z" fill="#EF652A"/>
<path d="M39.2512 38.7651H30.5548L29.9542 32.0444H39.2512V25.4812H39.2285H22.7719L22.9292 27.242L24.5444 45.3281H39.2512V38.7651Z" fill="#EBEBEB"/>
<path d="M39.2524 55.81L39.2236 55.8176L31.9044 53.8439L31.4365 48.6096H27.8799H24.8393L25.76 58.9146L39.2222 62.6467L39.2524 62.6383V55.81Z" fill="#EBEBEB"/>
<path d="M17.8796 0H21.2194V3.29524H24.2745V0H27.6145V9.9788H24.2747V6.63731H21.2196V9.9788H17.8798L17.8796 0Z" fill="black"/>
<path d="M32.0104 3.30912H29.0702V0H38.292V3.30912H35.3505V9.9788H32.0105L32.0104 3.30912Z" fill="black"/>
<path d="M39.7502 0H43.2327L45.3749 3.50625L47.5149 0H50.9987V9.9788H47.6727V5.03276L45.3749 8.58078H45.3175L43.0181 5.03276V9.9788H39.7502V0Z" fill="black"/>
<path d="M52.665 0H56.0058V6.68038H60.7025V9.9788H52.665V0Z" fill="black"/>
<path d="M39.2272 38.7673V45.3303H47.3198L46.557 53.8421L39.2272 55.8178V62.6459L52.7001 58.917L52.7989 57.8081L54.3432 40.5296L54.5036 38.7673H52.7326H39.2272Z" fill="white"/>
<path d="M39.2272 25.4812V29.5575V32.0284V32.0444H55.0805H55.1016L55.2334 30.5692L55.5329 27.242L55.69 25.4812H39.2272Z" fill="white"/>
</svg>
