<svg width="74" height="74" viewBox="0 0 74 74" fill="none" xmlns="http://www.w3.org/2000/svg">
<g clip-path="url(#clip0_1382_4127)">
<path d="M37.0217 71.0124L50.6377 29.247H23.4054L37.0217 71.0124Z" fill="#E24329"/>
<path d="M37.0217 71.0121L23.4054 29.2467H4.32324L37.0217 71.0121Z" fill="#FC6D26"/>
<path d="M4.32325 29.2467L0.185605 41.9391C0.00163293 42.5034 0.00160755 43.1112 0.185533 43.6755C0.369458 44.2397 0.727892 44.7315 1.20946 45.0802L37.0217 71.0124L4.32296 29.247L4.32325 29.2467Z" fill="#FCA326"/>
<path d="M4.32324 29.247H23.4054L15.205 4.09188C14.783 2.79747 12.9457 2.79775 12.5239 4.09188L4.32324 29.247Z" fill="#E24329"/>
<path d="M37.0216 71.0121L50.6377 29.2467H69.7201L37.0216 71.0121Z" fill="#FC6D26"/>
<path d="M69.7201 29.2467L73.8578 41.9391C74.0417 42.5034 74.0417 43.1112 73.8577 43.6755C73.6737 44.2398 73.3152 44.7315 72.8336 45.0802L37.0217 71.0124L69.7201 29.247V29.2467Z" fill="#FCA326"/>
<path d="M69.7202 29.247H50.6377L58.8384 4.09188C59.2604 2.79747 61.0977 2.79775 61.5195 4.09188L69.7202 29.247Z" fill="#E24329"/>
</g>
<defs>
<clipPath id="clip0_1382_4127">
<rect width="74" height="68" fill="white" transform="translate(0 3)"/>
</clipPath>
</defs>
</svg>
