<svg width="74" height="74" viewBox="0 0 74 74" fill="none" xmlns="http://www.w3.org/2000/svg">
<path d="M37.2769 73.5L15.7886 67.5966L11 14.4444H63.6182L58.8246 67.5883L37.2769 73.5Z" fill="#264DE4"/>
<path d="M54.7186 64.2054L58.8151 18.7915H37.307V68.9825L54.7186 64.2054Z" fill="#2965F1"/>
<path d="M21.9796 38.505L22.57 45.0239H37.311V38.505H21.9796Z" fill="#EBEBEB"/>
<path d="M20.7946 25.3101L21.3934 31.8291H37.3123V25.3101H20.7946Z" fill="#EBEBEB"/>
<path d="M37.3089 55.4348L37.28 55.4424L29.9437 53.4821L29.4748 48.2829H22.8622L23.7851 58.5185L37.2786 62.2255L37.3089 62.2172V55.4348Z" fill="#EBEBEB"/>
<path d="M23.3853 0H31.3636V3.30176H26.7217V6.60352H31.3636V9.90528H23.3853V0Z" fill="black"/>
<path d="M32.9593 0H40.9376V2.8711H36.2957V3.44531H40.9376V10.0488H32.9593V7.03418H37.6012V6.45996H32.9593V0Z" fill="black"/>
<path d="M42.5291 0H50.5074V2.8711H45.8654V3.44531H50.5074V10.0488H42.5291V7.03418H47.171V6.45996H42.5291V0Z" fill="black"/>
<path d="M52.5985 38.5045L53.7877 25.3101H37.2865V31.8291H46.5686L45.9692 38.5045H37.2865V45.0233H45.398L44.6334 53.4779L37.2865 55.4403V62.2224L50.7907 58.5185L50.8898 57.4172L52.4377 40.255L52.5985 38.5045Z" fill="white"/>
</svg>
