<svg width="76" height="20" viewBox="0 0 76 20" fill="none" xmlns="http://www.w3.org/2000/svg">
<path d="M27.6088 10.1786C27.7263 10.4429 27.8368 10.7143 27.9405 10.9929C28.042 10.7119 28.1549 10.4355 28.279 10.1643C28.3965 9.90003 28.5208 9.63574 28.6452 9.38574L32.1274 2.28574C32.1895 2.16432 32.2517 2.07146 32.3208 2.00003C32.383 1.93574 32.459 1.88574 32.5419 1.85003C32.6248 1.81432 32.7146 1.80003 32.8183 1.80003H35.5819V15.8429H32.8045V7.75717C32.8045 7.36432 32.8252 6.94289 32.8597 6.48574L29.2601 13.7072C29.1495 13.9357 28.9975 14.1 28.811 14.2215C28.6245 14.3357 28.4034 14.3929 28.1615 14.3929H27.7332C27.4914 14.3929 27.2772 14.3357 27.0837 14.2215C26.8972 14.1072 26.7452 13.9357 26.6346 13.7072L23.0074 6.4786C23.035 6.70717 23.0488 6.9286 23.0626 7.15003C23.0765 7.37146 23.0834 7.5786 23.0834 7.76432V15.8429H20.3059V1.80003H23.0695C23.1732 1.80003 23.263 1.81432 23.3459 1.85003C23.4288 1.88574 23.4979 1.9286 23.567 2.00003C23.6292 2.06432 23.6983 2.16432 23.7605 2.28574L27.2565 9.42146C27.3739 9.66432 27.4983 9.91432 27.6088 10.1786ZM50.4848 8.81432C50.4848 9.42146 50.4226 10 50.3052 10.5572C50.1808 11.1143 50.0081 11.6357 49.7801 12.1215C49.5521 12.6072 49.2757 13.0643 48.9372 13.4786C48.6055 13.9 48.2255 14.2643 47.8041 14.5857L51.2448 18.4715H48.6539C48.2808 18.4715 47.9423 18.4215 47.6383 18.3286C47.3343 18.2357 47.0648 18.05 46.8299 17.7643L45.1441 15.8072C44.8677 15.8643 44.5914 15.9072 44.3081 15.9429C44.0248 15.9715 43.7346 15.9929 43.4375 15.9929C42.3805 15.9929 41.4132 15.8072 40.5426 15.4429C39.6721 15.0786 38.9259 14.5715 38.311 13.9215C37.6892 13.2786 37.2125 12.5143 36.8739 11.6429C36.5354 10.7715 36.3626 9.82146 36.3626 8.80717C36.3626 7.79289 36.5354 6.85003 36.8739 5.97146C37.2125 5.10003 37.6892 4.33574 38.311 3.69289C38.9328 3.05003 39.6721 2.54289 40.5426 2.1786C41.4132 1.81432 42.3735 1.6286 43.4375 1.6286C44.4946 1.6286 45.455 1.81432 46.3255 2.18574C47.1961 2.55717 47.9354 3.06432 48.5503 3.70717C49.1652 4.35003 49.6419 5.10717 49.9805 5.98574C50.319 6.85717 50.4848 7.80003 50.4848 8.81432ZM47.2583 8.81432C47.2583 8.12146 47.1685 7.49289 46.9957 6.93574C46.823 6.3786 46.5743 5.90717 46.2426 5.52146C45.9179 5.13574 45.5172 4.84289 45.0474 4.63574C44.5775 4.4286 44.0386 4.3286 43.4306 4.3286C42.8226 4.3286 42.2768 4.4286 41.8001 4.63574C41.3234 4.84289 40.9226 5.13574 40.5979 5.52146C40.2732 5.90717 40.0245 6.3786 39.8448 6.93574C39.6721 7.49289 39.5823 8.11432 39.5823 8.81432C39.5823 9.51432 39.6721 10.1429 39.8448 10.7C40.0175 11.2572 40.2663 11.7286 40.5979 12.1143C40.9226 12.5 41.3234 12.7929 41.8001 13C42.2768 13.2 42.8157 13.3072 43.4306 13.3072C44.0317 13.3072 44.5706 13.2072 45.0474 13C45.5172 12.8 45.9179 12.5 46.2426 12.1143C46.5674 11.7286 46.8161 11.2572 46.9957 10.7C47.1754 10.1429 47.2583 9.51432 47.2583 8.81432ZM60.6066 1.79289V4.3786H56.9241V15.8429H53.7735V4.3786H50.091V1.79289H60.6066ZM72.6699 1.79289V4.3786H68.8492V15.8429H65.6986V4.3786H62.0161V1.79289H72.6699Z" fill="#660066"/>
<path d="M3.17822 2.95714V5.17142H3.21968C9.05095 5.17142 13.8044 10.0286 13.8528 16.0143H15.9324C15.8771 8.82142 10.184 2.97856 3.17822 2.95714ZM3.17822 7.52856V9.74285H3.21968C6.59822 9.74285 9.35495 12.55 9.40331 16.0143H11.483C11.4346 11.3428 7.73131 7.54999 3.17822 7.52856ZM17.1899 10.2857V5.82142C16.6579 5.07142 16.0015 4.21428 15.3451 3.54999C14.6128 2.79999 13.756 2.12142 12.927 1.52856H8.33931C12.3604 3.02142 15.587 6.22856 17.1899 10.2857Z" fill="white"/>
<path d="M3.21284 9.74285H3.17139V15.2857C3.17139 15.6857 3.4892 16.0143 3.87611 16.0143H9.39648C9.34811 12.55 6.5983 9.74285 3.21284 9.74285ZM3.21284 5.17142H3.17139V7.52857C7.72448 7.55 11.4278 11.3357 11.4761 16.0143H13.839C13.7976 10.0286 9.05102 5.17142 3.21284 5.17142ZM17.1899 15.2929V10.2857C15.587 6.22857 12.3605 3.02142 8.3463 1.52857H3.87611C3.4892 1.52857 3.17139 1.85714 3.17139 2.25714V2.96428C10.1772 2.98571 15.8772 8.82142 15.9187 16.0214H16.4852C16.879 16.0143 17.1899 15.6929 17.1899 15.2929ZM15.3452 3.55C15.9947 4.22142 16.6579 5.07142 17.1899 5.82142V2.25C17.1902 2.15518 17.1723 2.06124 17.1374 1.97358C17.1024 1.88593 17.051 1.80629 16.9862 1.73924C16.9213 1.67219 16.8443 1.61906 16.7595 1.58291C16.6747 1.54675 16.5838 1.52828 16.4921 1.52857H12.9339C13.763 2.12142 14.6198 2.8 15.3452 3.55Z" fill="#660066"/>
</svg>
