<svg width="74" height="74" viewBox="0 0 74 74" fill="none" xmlns="http://www.w3.org/2000/svg">
<g clip-path="url(#clip0_1382_4030)">
<path d="M71.0991 21.5766C67.1502 23.6347 46.6932 32.0464 42.3379 34.3167C37.9829 36.587 35.5634 36.5648 32.123 34.9209C28.6826 33.2761 6.91272 24.4816 2.99159 22.6077C-0.930123 20.734 -1.01193 19.4433 2.83983 17.9347C6.69188 16.4263 28.3424 7.93282 32.9182 6.29095C37.4935 4.64936 39.0808 4.59039 42.9744 6.01692C46.8684 7.44344 67.2034 15.5369 71.0511 16.9467C74.9002 18.3561 75.0479 19.5184 71.0991 21.5766Z" fill="#C6302B"/>
<path d="M58.389 10.4084L52.0267 11.0689L50.6025 14.496L48.3022 10.6717L40.9556 10.0115L46.4374 8.03458L44.7927 5L49.925 7.00725L54.7633 5.42319L53.4556 8.56096L58.389 10.4084ZM50.2227 27.0347L38.3489 22.1099L55.3631 19.4982L50.2227 27.0347ZM33.7606 12.3133C38.7831 12.3133 42.8545 13.8916 42.8545 15.8381C42.8545 17.7852 38.7831 19.3632 33.7606 19.3632C28.7381 19.3632 24.6667 17.7849 24.6667 15.8381C24.6667 13.8916 28.7381 12.3133 33.7606 12.3133Z" fill="white"/>
<path d="M49.3333 5.00029L59.4031 8.97952L49.342 12.955L49.3333 5.00029Z" fill="#621B1C"/>
<path d="M71.1007 33.6914C67.1515 35.7496 46.694 44.1613 42.3387 46.4327C37.9834 48.703 35.5639 48.6808 32.1232 47.036C28.6825 45.3921 6.91235 36.5971 2.99064 34.7234C1.0308 33.786 0 32.996 0 32.2496V24.7687C0 24.7687 28.3426 18.5992 32.9181 16.9579C37.4934 15.316 39.081 15.2571 42.9746 16.6833C46.8692 18.1098 70.152 22.3096 74 23.7194L73.9983 31.0939C73.9988 31.8325 73.1108 32.6436 71.1007 33.6914Z" fill="#912626"/>
<path d="M49.3333 20.0734L60.4738 15.6667L60.4825 23.6214L59.3901 24.0486L49.3333 20.0734Z" fill="#9A2928"/>
<path d="M71.0992 42.9103C67.1503 44.9684 46.6934 53.3795 42.3381 55.6507C37.983 57.921 35.5636 57.8987 32.1232 56.254C28.6825 54.6104 6.91286 45.8153 2.99144 43.9416C-0.929979 42.0676 -1.01207 40.7773 2.83997 39.2684C6.69202 37.7603 28.3425 29.2656 32.9184 27.6243C37.4937 25.983 39.0809 25.9235 42.9746 27.35C46.8685 28.7763 67.2035 36.8697 71.0512 38.2795C74.9004 39.6901 75.0481 40.8521 71.0992 42.9103Z" fill="#C6302B"/>
<path d="M71.1007 55.0254C67.1515 57.0841 46.694 65.4952 42.3387 67.7667C37.9834 70.0367 35.5639 70.0147 32.1232 68.3699C28.6825 66.7261 6.91235 57.9313 2.99064 56.0568C1.0308 55.1202 0 54.3305 0 53.5832V46.1026C0 46.1026 28.3426 39.9328 32.9181 38.2913C37.4934 36.6497 39.081 36.5901 42.9746 38.0167C46.8692 39.4432 70.152 43.643 74 45.0527L73.9983 52.4276C73.9988 53.1667 73.1108 53.9778 71.1007 55.0254Z" fill="#912626"/>
<path d="M71.0992 64.2437C67.1503 66.3013 46.6934 74.713 42.3381 76.9833C37.983 79.2544 35.5636 79.2322 32.1232 77.5874C28.6825 75.9438 6.91286 67.1485 2.99144 65.2751C-0.929979 63.4005 -1.01207 62.1104 2.83997 60.6021C6.69202 59.0932 28.3422 50.5991 32.9184 48.9575C37.4937 47.3165 39.0809 47.2567 42.9746 48.6835C46.8685 50.1097 67.2035 58.2038 71.0512 59.6129C74.9004 61.0238 75.0481 62.1856 71.0992 64.2437Z" fill="#C6302B"/>
<path d="M71.1007 76.3589C67.1515 78.4173 46.694 86.8287 42.3387 89.0993C37.9834 91.3702 35.5639 91.3482 32.1232 89.7035C28.6828 88.0587 6.91235 79.2648 2.99064 77.3903C1.0308 76.4537 0 75.6628 0 74.9159V67.4361C0 67.4361 28.3426 61.2661 32.9181 59.6245C37.4934 57.9829 39.081 57.9236 42.9746 59.3499C46.8689 60.7767 70.1517 64.9774 74 66.3868L73.9983 73.7608C73.9988 74.5002 73.1108 75.3113 71.1007 76.3589Z" fill="#912626"/>
</g>
<defs>
<clipPath id="clip0_1382_4030">
<rect width="74" height="74" fill="white"/>
</clipPath>
</defs>
</svg>
