<svg width="74" height="74" viewBox="0 0 74 74" fill="none" xmlns="http://www.w3.org/2000/svg">
<mask id="mask0_1539_6958" style="mask-type:luminance" maskUnits="userSpaceOnUse" x="1" y="18" width="72" height="38">
<path d="M1.48001 37C1.48001 47.3193 17.3832 55.6849 37 55.6849C56.6168 55.6849 72.5201 47.3193 72.5201 37C72.5201 26.6809 56.6168 18.3151 37 18.3151C17.3832 18.3151 1.48001 26.6809 1.48001 37Z" fill="white"/>
</mask>
<g mask="url(#mask0_1539_6958)">
<path d="M1.48001 37C1.48001 47.3193 17.3832 55.6849 37 55.6849C56.6168 55.6849 72.5201 47.3193 72.5201 37C72.5201 26.6809 56.6168 18.3151 37 18.3151C17.3832 18.3151 1.48001 26.6809 1.48001 37Z" fill="url(#paint0_radial_1539_6958)"/>
</g>
<mask id="mask1_1539_6958" style="mask-type:luminance" maskUnits="userSpaceOnUse" x="0" y="16" width="74" height="42">
<path d="M0 16.1875H74V57.8125H0V16.1875Z" fill="white"/>
</mask>
<g mask="url(#mask1_1539_6958)">
<path d="M37 54.2975C55.8506 54.2975 71.1325 46.5531 71.1325 36.9999C71.1325 27.4469 55.8506 19.7023 37 19.7023C18.1494 19.7023 2.86752 27.4469 2.86752 36.9999C2.86752 46.5531 18.1494 54.2975 37 54.2975Z" fill="#777BB3"/>
</g>
<mask id="mask2_1539_6958" style="mask-type:luminance" maskUnits="userSpaceOnUse" x="0" y="16" width="74" height="42">
<path d="M0 16.1875H74V57.8125H0V16.1875Z" fill="white"/>
</mask>
<g mask="url(#mask2_1539_6958)">
<path d="M20.7784 39.1446C22.3284 39.1446 23.4855 38.8588 24.2177 38.2953C24.942 37.7376 25.4423 36.7714 25.7045 35.4236C25.949 34.1638 25.8558 33.2841 25.4278 32.8094C24.9901 32.3246 24.0437 32.0787 22.6151 32.0787H20.138L18.7648 39.1446H20.7784ZM12.6765 47.8486C12.5615 47.8486 12.4523 47.7972 12.3792 47.7083C12.306 47.6196 12.2763 47.5027 12.2983 47.3897L15.9376 28.6648C15.9729 28.4838 16.1315 28.353 16.316 28.353H24.1597C26.6249 28.353 28.4597 29.0223 29.613 30.3426C30.7725 31.6699 31.1305 33.5251 30.6771 35.8568C30.4927 36.8067 30.1753 37.6889 29.734 38.4788C29.2922 39.2695 28.7083 40.0012 27.9982 40.6538C27.1483 41.4493 26.1863 42.0261 25.1415 42.3656C24.1134 42.7005 22.7929 42.8703 21.217 42.8703H18.0409L17.1339 47.5367C17.0987 47.7178 16.9401 47.8486 16.7556 47.8486H12.6765Z" fill="black"/>
<path d="M20.4558 32.464H22.6152C24.3394 32.464 24.9383 32.8424 25.1418 33.0679C25.4794 33.4422 25.5432 34.2316 25.3262 35.3504C25.0823 36.603 24.6304 37.4912 23.9826 37.9899C23.3194 38.5004 22.2413 38.7592 20.7784 38.7592H19.2324L20.4558 32.464ZM24.1598 27.9675H16.3159C15.9469 27.9675 15.6297 28.2291 15.5593 28.5912L11.92 47.3162C11.876 47.5422 11.9354 47.7759 12.0817 47.9536C12.2282 48.1312 12.4463 48.234 12.6765 48.234H16.7555C17.1246 48.234 17.4418 47.9724 17.5122 47.6103L18.3586 43.2557H21.217C22.8334 43.2557 24.1942 43.0794 25.2612 42.7319C26.3584 42.3754 27.368 41.771 28.2615 40.9354C29.0005 40.2555 29.6092 39.4924 30.0704 38.6669C30.5317 37.8412 30.8632 36.9205 31.0555 35.9302C31.5328 33.4759 31.1451 31.5105 29.9033 30.0891C28.6735 28.6813 26.741 27.9675 24.1598 27.9675ZM18.2972 39.53H20.7784C22.423 39.53 23.6479 39.2203 24.4528 38.6006C25.2578 37.9809 25.8008 36.9466 26.0829 35.4971C26.3528 34.1055 26.2298 33.1235 25.714 32.5514C25.1976 31.9793 24.1648 31.6932 22.6152 31.6932H19.8204L18.2972 39.53ZM24.1598 28.7383C26.5194 28.7383 28.2408 29.3576 29.3228 30.5962C30.4047 31.8348 30.7305 33.5636 30.2988 35.7833C30.1211 36.6976 29.8206 37.5336 29.3976 38.2909C28.974 39.0488 28.4209 39.7417 27.7375 40.3701C26.923 41.1323 26.0181 41.6755 25.0225 41.999C24.0268 42.3234 22.7587 42.4849 21.217 42.4849H17.7231L16.7555 47.4632H12.6765L16.3159 28.7383H24.1598Z" fill="white"/>
<path d="M40.0297 42.8703C39.9146 42.8703 39.8055 42.8189 39.7324 42.73C39.6591 42.6412 39.6294 42.5245 39.6514 42.4114L41.2612 34.1264C41.4144 33.3384 41.3766 32.7729 41.155 32.5339C41.0193 32.3879 40.6118 32.1429 39.4069 32.1429H36.4903L34.4662 42.5584C34.431 42.7395 34.2723 42.8703 34.0879 42.8703H30.041C29.9259 42.8703 29.8168 42.8189 29.7436 42.73C29.6703 42.6412 29.6407 42.5243 29.6626 42.4114L33.302 23.6864C33.3372 23.5054 33.4959 23.3746 33.6803 23.3746H37.7272C37.8423 23.3746 37.9514 23.426 38.0246 23.5148C38.0979 23.6037 38.1275 23.7205 38.1056 23.8335L37.2273 28.3529H40.3649C42.7551 28.3529 44.3759 28.7743 45.3199 29.6413C46.2822 30.5257 46.5824 31.9398 46.2124 33.8447L44.5192 42.5584C44.484 42.7395 44.3254 42.8703 44.1408 42.8703H40.0297Z" fill="black"/>
<path d="M37.7273 22.9892H33.6804C33.3113 22.9892 32.9941 23.2508 32.9237 23.6129L29.2843 42.3379C29.2404 42.5639 29.2997 42.7975 29.4462 42.9752C29.5927 43.1529 29.8108 43.2557 30.041 43.2557H34.0879C34.4569 43.2557 34.7742 42.9941 34.8446 42.6319L36.808 32.5282H39.4069C40.6098 32.5282 40.8622 32.7852 40.8724 32.7962C40.9454 32.8747 41.0413 33.2383 40.8829 34.0528L39.273 42.3379C39.2291 42.5639 39.2885 42.7975 39.4349 42.9752C39.5814 43.1529 39.7995 43.2557 40.0297 43.2557H44.1408C44.5098 43.2557 44.8271 42.9941 44.8975 42.6319L46.5907 33.9183C46.988 31.8729 46.6481 30.3386 45.5808 29.3576C44.5622 28.4221 42.8561 27.9675 40.3649 27.9675H37.6948L38.484 23.9071C38.5278 23.6811 38.4685 23.4473 38.3221 23.2698C38.1756 23.0921 37.9575 22.9892 37.7273 22.9892ZM37.7273 23.76L36.7597 28.7383H40.3649C42.6334 28.7383 44.198 29.1343 45.0592 29.9251C45.9203 30.7165 46.1783 31.9988 45.8341 33.7713L44.1408 42.4848H40.0297L41.6396 34.1999C41.8228 33.2575 41.7555 32.6146 41.4374 32.2718C41.1192 31.9291 40.4423 31.7574 39.4069 31.7574H36.1725L34.0879 42.4848H30.041L33.6804 23.76H37.7273Z" fill="white"/>
<path d="M52.6157 39.1446C54.1658 39.1446 55.3229 38.8588 56.0551 38.2953C56.7794 37.7377 57.2797 36.7715 57.542 35.4236C57.7865 34.1638 57.6933 33.2841 57.2651 32.8094C56.8274 32.3246 55.8811 32.0787 54.4525 32.0787H51.9754L50.6022 39.1446H52.6157ZM44.514 47.8486C44.399 47.8486 44.2898 47.7972 44.2167 47.7083C44.1435 47.6196 44.1137 47.5027 44.1357 47.3897L47.775 28.6648C47.8104 28.4838 47.9689 28.353 48.1535 28.353H55.9971C58.4624 28.353 60.2971 29.0223 61.4505 30.3426C62.61 31.6697 62.9679 33.525 62.5147 35.8568C62.3299 36.8067 62.0127 37.6889 61.5714 38.4788C61.1296 39.2695 60.5457 40.0012 59.8356 40.6538C58.9856 41.4493 58.0236 42.0261 56.9789 42.3656C55.9508 42.7005 54.6303 42.8703 53.0543 42.8703H49.8781L48.9715 47.5367C48.9362 47.7178 48.7776 47.8486 48.593 47.8486H44.514Z" fill="black"/>
<path d="M52.2932 32.464H54.4525C56.1767 32.464 56.7757 32.8424 56.9792 33.0679C57.3169 33.4422 57.3807 34.2316 57.1635 35.3503C56.9197 36.603 56.4676 37.4912 55.82 37.9899C55.1568 38.5004 54.0787 38.7592 52.6158 38.7592H51.0698L52.2932 32.464ZM55.9971 27.9675H48.1534C47.7844 27.9675 47.4672 28.2291 47.3968 28.5912L43.7575 47.3162C43.7135 47.5422 43.7729 47.7759 43.9192 47.9536C44.0657 48.1312 44.2838 48.234 44.514 48.234H48.593C48.962 48.234 49.2793 47.9724 49.3497 47.6103L50.196 43.2557H53.0544C54.6708 43.2557 56.0316 43.0794 57.0985 42.7319C58.1958 42.3754 59.2056 41.7708 60.0991 40.9351C60.8381 40.2554 61.4465 39.4924 61.9078 38.6669C62.3691 37.8412 62.7006 36.9205 62.8929 35.9302C63.3702 33.4758 62.9824 31.5104 61.7406 30.089C60.5109 28.6813 58.5785 27.9675 55.9971 27.9675ZM50.1347 39.53H52.6158C54.2603 39.53 55.4853 39.2203 56.2902 38.6006C57.0953 37.9809 57.6381 36.9466 57.9202 35.4971C58.1903 34.1055 58.0673 33.1235 57.5514 32.5514C57.0349 31.9793 56.0022 31.6932 54.4525 31.6932H51.6577L50.1347 39.53ZM55.9971 28.7383C58.3568 28.7383 60.0782 29.3576 61.1602 30.5962C62.2422 31.8348 62.5679 33.5636 62.1362 35.7833C61.9585 36.6976 61.658 37.5336 61.235 38.2909C60.8114 39.0488 60.2583 39.7417 59.5748 40.3701C58.7603 41.1323 57.8555 41.6755 56.8598 41.999C55.8642 42.3234 54.596 42.4849 53.0544 42.4849H49.5604L48.593 47.4632H44.514L48.1534 28.7383H55.9971Z" fill="white"/>
</g>
<defs>
<radialGradient id="paint0_radial_1539_6958" cx="0" cy="0" r="1" gradientUnits="userSpaceOnUse" gradientTransform="translate(22.8064 24.8842) scale(46.6429 46.6429)">
<stop stop-color="#AEB2D5"/>
<stop offset="0.3" stop-color="#AEB2D5"/>
<stop offset="0.75" stop-color="#484C89"/>
<stop offset="1" stop-color="#484C89"/>
</radialGradient>
</defs>
</svg>
