<svg width="72" height="72" viewBox="0 0 72 72" fill="none" xmlns="http://www.w3.org/2000/svg">
<g clip-path="url(#clip0_7859_14450)">
<path d="M36 0C16.117 0 0 16.117 0 36C0 55.883 16.117 72 36 72C55.883 72 72 55.883 72 36C72 16.117 55.883 0 36 0ZM53.0889 44.8279C40.7784 57.1384 18.7896 53.2104 18.7896 53.2104C18.7896 53.2104 14.8211 31.2621 27.1721 18.9111C34.0157 12.0675 45.3543 12.351 52.5219 19.4781C59.6895 26.6052 59.9325 37.9843 53.0889 44.8279ZM40.1305 21.0979L36.6074 28.3465L29.3588 31.8695L36.6074 35.3926L40.1305 42.6412L43.6535 35.3926L50.9021 31.8695L43.6535 28.3465L40.1305 21.0979Z" fill="#4264FB"/>
</g>
<defs>
<clipPath id="clip0_7859_14450">
<rect width="72" height="72" fill="white"/>
</clipPath>
</defs>
</svg>
