<svg width="76" height="74" viewBox="0 0 76 74" fill="none" xmlns="http://www.w3.org/2000/svg">
<path fill-rule="evenodd" clip-rule="evenodd" d="M36.9998 0C16.5674 0 0 16.5254 0 36.9114C0 53.2192 10.6022 67.0551 25.3021 71.9357C27.1519 72.278 27.8313 71.1353 27.8313 70.1607C27.8313 69.2805 27.797 66.3725 27.7803 63.288C17.487 65.5212 15.3156 58.9335 15.3156 58.9335C13.6319 54.6676 11.207 53.5326 11.207 53.5326C7.84943 51.2417 11.4599 51.2882 11.4599 51.2882C15.1754 51.5493 17.1311 55.0925 17.1311 55.0925C20.4318 60.7354 25.7873 59.1042 27.8989 58.1609C28.2313 55.7756 29.1895 54.1463 30.2478 53.2251C22.0298 52.293 13.3912 49.1273 13.3912 34.9838C13.3912 30.9545 14.8362 27.6612 17.2027 25.0769C16.8189 24.1468 15.5523 20.3923 17.562 15.3083C17.562 15.3083 20.6686 14.3157 27.7377 19.0916C30.6899 18.274 33.8549 17.8643 36.9993 17.8496C40.1436 17.8643 43.3116 18.274 46.2682 19.0916C53.3304 14.3161 56.4331 15.3078 56.4331 15.3078C58.4467 20.3914 57.1806 24.1458 56.7959 25.0754C59.1682 27.6602 60.6034 30.953 60.6034 34.9823C60.6034 49.1606 51.9482 52.2813 43.7096 53.1952C45.0364 54.3414 46.2192 56.5873 46.2192 60.0313C46.2192 64.9701 46.177 68.9456 46.177 70.1607C46.177 71.1436 46.8422 72.2937 48.7175 71.9318C63.4125 67.0459 74 53.2148 74 36.9119C73.9995 16.5254 57.4341 0 36.9998 0Z" fill="#1B1817"/>
<path d="M14.3968 52.469C14.3128 52.658 14.0158 52.7153 13.7454 52.5846C13.4686 52.461 13.315 52.2037 13.4041 52.0147C13.4862 51.8212 13.7832 51.7674 14.0586 51.8966C14.3344 52.0207 14.4915 52.2801 14.3968 52.469ZM15.9317 54.1838C15.7505 54.3517 15.3956 54.2743 15.1565 54.0089C14.9068 53.7441 14.861 53.3898 15.0447 53.2199C15.231 53.0525 15.5753 53.1309 15.8235 53.3958C16.0727 53.6632 16.1215 54.014 15.9317 54.1838ZM17.4299 56.3701C17.1968 56.5324 16.8157 56.3811 16.5801 56.0434C16.3471 55.7056 16.3471 55.3011 16.5852 55.1387C16.8218 54.9769 17.1968 55.1237 17.4359 55.4574C17.6675 55.8006 17.6675 56.2047 17.4299 56.3701ZM19.4873 58.4814C19.2789 58.7106 18.8354 58.6488 18.5107 58.3357C18.1785 58.0301 18.0858 57.5959 18.2943 57.3667C18.5057 57.137 18.9517 57.2008 19.2789 57.5124C19.6087 57.817 19.7088 58.2542 19.4873 58.4814ZM22.319 59.7062C22.2264 60.0027 21.8005 60.1384 21.3696 60.0113C20.9392 59.8816 20.6578 59.5338 20.7454 59.2338C20.834 58.9347 21.2639 58.794 21.6968 58.9292C22.1262 59.0584 22.4086 59.4041 22.319 59.7062ZM25.4276 59.9324C25.4377 60.2455 25.0732 60.5053 24.6221 60.5103C24.1671 60.5204 23.7991 60.2671 23.794 59.9595C23.794 59.6429 24.1514 59.3865 24.6045 59.379C25.0576 59.369 25.4276 59.6218 25.4276 59.9318M28.3222 59.4423C28.3761 59.7469 28.0624 60.0605 27.6134 60.1439C27.1724 60.2254 26.7642 60.0364 26.7083 59.7343C26.6529 59.4212 26.9726 59.1081 27.413 59.0272C27.8626 58.9488 28.2648 59.1322 28.3222 59.4423Z" fill="#1B1817"/>
</svg>
