<svg width="72" height="72" viewBox="0 0 72 72" fill="none" xmlns="http://www.w3.org/2000/svg">
<g clip-path="url(#clip0_7914_15523)">
<path d="M56.8795 13.7142H52.8348C52.0582 13.7142 51.4286 14.3438 51.4286 15.1205V15.7366C51.4286 16.5132 52.0582 17.1428 52.8348 17.1428H56.8795C57.6561 17.1428 58.2857 16.5132 58.2857 15.7366V15.1205C58.2857 14.3438 57.6561 13.7142 56.8795 13.7142Z" fill="#56B3B4"/>
<path d="M19.1652 68.5714H1.40625C0.6296 68.5714 0 69.201 0 69.9777V70.5937C0 71.3704 0.6296 72 1.40625 72H19.1652C19.9418 72 20.5714 71.3704 20.5714 70.5937V69.9777C20.5714 69.201 19.9418 68.5714 19.1652 68.5714Z" fill="#EA5E5E"/>
<path d="M53.4509 41.1428H42.5491C41.7724 41.1428 41.1428 41.7724 41.1428 42.5491V43.1651C41.1428 43.9418 41.7724 44.5714 42.5491 44.5714H53.4509C54.2275 44.5714 54.8571 43.9418 54.8571 43.1651V42.5491C54.8571 41.7724 54.2275 41.1428 53.4509 41.1428Z" fill="#BF85BF"/>
<path d="M36.308 41.1428H21.9777C21.201 41.1428 20.5714 41.7724 20.5714 42.5491V43.1651C20.5714 43.9418 21.201 44.5714 21.9777 44.5714H36.308C37.0847 44.5714 37.7143 43.9418 37.7143 43.1651V42.5491C37.7143 41.7724 37.0847 41.1428 36.308 41.1428Z" fill="#EA5E5E"/>
<path d="M15.7366 41.1428H1.40625C0.6296 41.1428 0 41.7724 0 42.5491V43.1651C0 43.9418 0.6296 44.5714 1.40625 44.5714H15.7366C16.5133 44.5714 17.1429 43.9418 17.1429 43.1651V42.5491C17.1429 41.7724 16.5133 41.1428 15.7366 41.1428Z" fill="#56B3B4"/>
<path d="M19.1652 54.8572H1.40625C0.6296 54.8572 0 55.4868 0 56.2634V56.8795C0 57.6561 0.6296 58.2857 1.40625 58.2857H19.1652C19.9418 58.2857 20.5714 57.6561 20.5714 56.8795V56.2634C20.5714 55.4868 19.9418 54.8572 19.1652 54.8572Z" fill="#BF85BF"/>
<path d="M19.1652 27.4286H1.40625C0.6296 27.4286 0 28.0582 0 28.8348V29.4509C0 30.2276 0.6296 30.8572 1.40625 30.8572H19.1652C19.9418 30.8572 20.5714 30.2276 20.5714 29.4509V28.8348C20.5714 28.0582 19.9418 27.4286 19.1652 27.4286Z" fill="#BF85BF"/>
<path d="M53.4509 6.85718H18.5491C17.7724 6.85718 17.1428 7.48678 17.1428 8.26343V8.8795C17.1428 9.65615 17.7724 10.2857 18.5491 10.2857H53.4509C54.2275 10.2857 54.8571 9.65615 54.8571 8.8795V8.26343C54.8571 7.48678 54.2275 6.85718 53.4509 6.85718Z" fill="#F7BA3E"/>
<path d="M12.308 6.85718H1.40625C0.6296 6.85718 0 7.48678 0 8.26343V8.8795C0 9.65615 0.6296 10.2857 1.40625 10.2857H12.308C13.0847 10.2857 13.7143 9.65615 13.7143 8.8795V8.26343C13.7143 7.48678 13.0847 6.85718 12.308 6.85718Z" fill="#EA5E5E"/>
<path d="M19.1651 61.7142H15.1205C14.3438 61.7142 13.7142 62.3438 13.7142 63.1205V63.7366C13.7142 64.5132 14.3438 65.1428 15.1205 65.1428H19.1651C19.9418 65.1428 20.5714 64.5132 20.5714 63.7366V63.1205C20.5714 62.3438 19.9418 61.7142 19.1651 61.7142Z" fill="#F7BA3E"/>
<path d="M19.1651 20.5714H15.1205C14.3438 20.5714 13.7142 21.201 13.7142 21.9777V22.5937C13.7142 23.3704 14.3438 24 15.1205 24H19.1651C19.9418 24 20.5714 23.3704 20.5714 22.5937V21.9777C20.5714 21.201 19.9418 20.5714 19.1651 20.5714Z" fill="#56B3B4"/>
<path d="M8.87946 61.7142H1.40625C0.6296 61.7142 0 62.3438 0 63.1205V63.7366C0 64.5132 0.6296 65.1428 1.40625 65.1428H8.87946C9.65611 65.1428 10.2857 64.5132 10.2857 63.7366V63.1205C10.2857 62.3438 9.65611 61.7142 8.87946 61.7142Z" fill="#56B3B4"/>
<path d="M8.87946 20.5714H1.40625C0.6296 20.5714 0 21.201 0 21.9777V22.5937C0 23.3704 0.6296 24 1.40625 24H8.87946C9.65611 24 10.2857 23.3704 10.2857 22.5937V21.9777C10.2857 21.201 9.65611 20.5714 8.87946 20.5714Z" fill="#F7BA3E"/>
<path opacity="0.5" d="M50.0223 61.7142H45.9777C45.201 61.7142 44.5714 62.3438 44.5714 63.1205V63.7366C44.5714 64.5132 45.201 65.1428 45.9777 65.1428H50.0223C50.799 65.1428 51.4286 64.5132 51.4286 63.7366V63.1205C51.4286 62.3438 50.799 61.7142 50.0223 61.7142Z" fill="#D0D4D8"/>
<path opacity="0.5" d="M39.7366 61.7142H25.4062C24.6296 61.7142 24 62.3438 24 63.1205V63.7366C24 64.5132 24.6296 65.1428 25.4062 65.1428H39.7366C40.5133 65.1428 41.1429 64.5132 41.1429 63.7366V63.1205C41.1429 62.3438 40.5133 61.7142 39.7366 61.7142Z" fill="#D0D4D8"/>
<path opacity="0.5" d="M70.5938 61.7142H56.2634C55.4868 61.7142 54.8572 62.3438 54.8572 63.1205V63.7366C54.8572 64.5132 55.4868 65.1428 56.2634 65.1428H70.5938C71.3704 65.1428 72 64.5132 72 63.7366V63.1205C72 62.3438 71.3704 61.7142 70.5938 61.7142Z" fill="#D0D4D8"/>
<path d="M56.8795 34.2858H28.8348C28.0582 34.2858 27.4286 34.9154 27.4286 35.692V36.3081C27.4286 37.0847 28.0582 37.7143 28.8348 37.7143H56.8795C57.6561 37.7143 58.2857 37.0847 58.2857 36.3081V35.692C58.2857 34.9154 57.6561 34.2858 56.8795 34.2858Z" fill="#56B3B4"/>
<path d="M22.5938 34.2858H11.692C10.9154 34.2858 10.2858 34.9154 10.2858 35.692V36.3081C10.2858 37.0847 10.9154 37.7143 11.692 37.7143H22.5938C23.3705 37.7143 24.0001 37.0847 24.0001 36.3081V35.692C24.0001 34.9154 23.3705 34.2858 22.5938 34.2858Z" fill="#F7BA3E"/>
<path d="M5.45089 34.2858H1.40625C0.6296 34.2858 0 34.9154 0 35.692V36.3081C0 37.0847 0.6296 37.7143 1.40625 37.7143H5.45089C6.22754 37.7143 6.85714 37.0847 6.85714 36.3081V35.692C6.85714 34.9154 6.22754 34.2858 5.45089 34.2858Z" fill="#EA5E5E"/>
<path d="M46.5938 13.7142H32.2634C31.4868 13.7142 30.8572 14.3438 30.8572 15.1205V15.7366C30.8572 16.5132 31.4868 17.1428 32.2634 17.1428H46.5938C47.3704 17.1428 48 16.5132 48 15.7366V15.1205C48 14.3438 47.3704 13.7142 46.5938 13.7142Z" fill="#BF85BF"/>
<path d="M26.0223 13.7142H1.40625C0.6296 13.7142 0 14.3438 0 15.1205V15.7366C0 16.5132 0.6296 17.1428 1.40625 17.1428H26.0223C26.799 17.1428 27.4286 16.5132 27.4286 15.7366V15.1205C27.4286 14.3438 26.799 13.7142 26.0223 13.7142Z" fill="#56B3B4"/>
<path d="M43.1652 48H11.692C10.9154 48 10.2858 48.6296 10.2858 49.4062V50.0223C10.2858 50.799 10.9154 51.4286 11.692 51.4286H43.1652C43.9419 51.4286 44.5715 50.799 44.5715 50.0223V49.4062C44.5715 48.6296 43.9419 48 43.1652 48Z" fill="#F7BA3E"/>
<path d="M5.45089 48H1.40625C0.6296 48 0 48.6296 0 49.4062V50.0223C0 50.799 0.6296 51.4286 1.40625 51.4286H5.45089C6.22754 51.4286 6.85714 50.799 6.85714 50.0223V49.4062C6.85714 48.6296 6.22754 48 5.45089 48Z" fill="#BF85BF"/>
<path d="M60.308 20.5714H42.5491C41.7724 20.5714 41.1428 21.201 41.1428 21.9777V22.5937C41.1428 23.3704 41.7724 24 42.5491 24H60.308C61.0847 24 61.7142 23.3704 61.7142 22.5937V21.9777C61.7142 21.201 61.0847 20.5714 60.308 20.5714Z" fill="#EA5E5E"/>
<path d="M60.308 27.4286H42.5491C41.7724 27.4286 41.1428 28.0582 41.1428 28.8348V29.4509C41.1428 30.2276 41.7724 30.8572 42.5491 30.8572H60.308C61.0847 30.8572 61.7142 30.2276 61.7142 29.4509V28.8348C61.7142 28.0582 61.0847 27.4286 60.308 27.4286Z" fill="#F7BA3E"/>
<path d="M43.1652 0H1.40625C0.6296 0 0 0.6296 0 1.40625V2.02232C0 2.79897 0.6296 3.42857 1.40625 3.42857H43.1652C43.9418 3.42857 44.5714 2.79897 44.5714 2.02232V1.40625C44.5714 0.6296 43.9418 0 43.1652 0Z" fill="#56B3B4"/>
<path opacity="0.5" d="M70.5937 0H49.4062C48.6296 0 48 0.6296 48 1.40625V2.02232C48 2.79897 48.6296 3.42857 49.4062 3.42857H70.5937C71.3704 3.42857 72 2.79897 72 2.02232V1.40625C72 0.6296 71.3704 0 70.5937 0Z" fill="#D0D4D8"/>
<path opacity="0.5" d="M56.8795 48H49.4062C48.6296 48 48 48.6296 48 49.4062V50.0223C48 50.799 48.6296 51.4286 49.4062 51.4286H56.8795C57.6561 51.4286 58.2857 50.799 58.2857 50.0223V49.4062C58.2857 48.6296 57.6561 48 56.8795 48Z" fill="#D0D4D8"/>
<path opacity="0.5" d="M70.5937 48H63.1205C62.3438 48 61.7142 48.6296 61.7142 49.4062V50.0223C61.7142 50.799 62.3438 51.4286 63.1205 51.4286H70.5937C71.3703 51.4286 71.9999 50.799 71.9999 50.0223V49.4062C71.9999 48.6296 71.3703 48 70.5937 48Z" fill="#D0D4D8"/>
<path opacity="0.5" d="M70.5938 41.1428H59.692C58.9154 41.1428 58.2858 41.7724 58.2858 42.5491V43.1651C58.2858 43.9418 58.9154 44.5714 59.692 44.5714H70.5938C71.3705 44.5714 72.0001 43.9418 72.0001 43.1651V42.5491C72.0001 41.7724 71.3705 41.1428 70.5938 41.1428Z" fill="#D0D4D8"/>
<path opacity="0.5" d="M70.5938 6.85718H59.692C58.9154 6.85718 58.2858 7.48678 58.2858 8.26343V8.8795C58.2858 9.65615 58.9154 10.2857 59.692 10.2857H70.5938C71.3705 10.2857 72.0001 9.65615 72.0001 8.8795V8.26343C72.0001 7.48678 71.3705 6.85718 70.5938 6.85718Z" fill="#D0D4D8"/>
<path opacity="0.5" d="M70.5937 34.2858H63.1205C62.3438 34.2858 61.7142 34.9154 61.7142 35.692V36.3081C61.7142 37.0847 62.3438 37.7143 63.1205 37.7143H70.5937C71.3703 37.7143 71.9999 37.0847 71.9999 36.3081V35.692C71.9999 34.9154 71.3703 34.2858 70.5937 34.2858Z" fill="#D0D4D8"/>
<path opacity="0.5" d="M70.5937 13.7142H63.1205C62.3438 13.7142 61.7142 14.3438 61.7142 15.1205V15.7366C61.7142 16.5132 62.3438 17.1428 63.1205 17.1428H70.5937C71.3703 17.1428 71.9999 16.5132 71.9999 15.7366V15.1205C71.9999 14.3438 71.3703 13.7142 70.5937 13.7142Z" fill="#D0D4D8"/>
<path opacity="0.5" d="M70.5937 20.5714H66.5491C65.7724 20.5714 65.1428 21.201 65.1428 21.9777V22.5937C65.1428 23.3704 65.7724 24 66.5491 24H70.5937C71.3704 24 72 23.3704 72 22.5937V21.9777C72 21.201 71.3704 20.5714 70.5937 20.5714Z" fill="#D0D4D8"/>
<path opacity="0.5" d="M70.5937 27.4286H66.5491C65.7724 27.4286 65.1428 28.0582 65.1428 28.8348V29.4509C65.1428 30.2276 65.7724 30.8572 66.5491 30.8572H70.5937C71.3704 30.8572 72 30.2276 72 29.4509V28.8348C72 28.0582 71.3704 27.4286 70.5937 27.4286Z" fill="#D0D4D8"/>
<path opacity="0.5" d="M70.5937 54.8572H39.1205C38.3438 54.8572 37.7142 55.4868 37.7142 56.2634V56.8795C37.7142 57.6561 38.3438 58.2857 39.1205 58.2857H70.5937C71.3703 58.2857 71.9999 57.6561 71.9999 56.8795V56.2634C71.9999 55.4868 71.3703 54.8572 70.5937 54.8572Z" fill="#D0D4D8"/>
<path opacity="0.5" d="M32.8795 54.8572H25.4062C24.6296 54.8572 24 55.4868 24 56.2634V56.8795C24 57.6561 24.6296 58.2857 25.4062 58.2857H32.8795C33.6561 58.2857 34.2857 57.6561 34.2857 56.8795V56.2634C34.2857 55.4868 33.6561 54.8572 32.8795 54.8572Z" fill="#D0D4D8"/>
<path opacity="0.5" d="M70.5938 68.5714H52.8348C52.0582 68.5714 51.4286 69.201 51.4286 69.9777V70.5937C51.4286 71.3704 52.0582 72 52.8348 72H70.5938C71.3704 72 72 71.3704 72 70.5937V69.9777C72 69.201 71.3704 68.5714 70.5938 68.5714Z" fill="#D0D4D8"/>
<path opacity="0.5" d="M46.5938 68.5714H25.4062C24.6296 68.5714 24 69.201 24 69.9777V70.5937C24 71.3704 24.6296 72 25.4062 72H46.5938C47.3704 72 48 71.3704 48 70.5937V69.9777C48 69.201 47.3704 68.5714 46.5938 68.5714Z" fill="#D0D4D8"/>
<path opacity="0.5" d="M36.308 20.5714H25.4062C24.6296 20.5714 24 21.201 24 21.9777V22.5937C24 23.3704 24.6296 24 25.4062 24H36.308C37.0847 24 37.7143 23.3704 37.7143 22.5937V21.9777C37.7143 21.201 37.0847 20.5714 36.308 20.5714Z" fill="#D0D4D8"/>
<path opacity="0.5" d="M36.308 27.4286H25.4062C24.6296 27.4286 24 28.0582 24 28.8348V29.4509C24 30.2276 24.6296 30.8572 25.4062 30.8572H36.308C37.0847 30.8572 37.7143 30.2276 37.7143 29.4509V28.8348C37.7143 28.0582 37.0847 27.4286 36.308 27.4286Z" fill="#D0D4D8"/>
</g>
<defs>
<clipPath id="clip0_7914_15523">
<rect width="72" height="72" fill="white"/>
</clipPath>
</defs>
</svg>
