<svg width="75" height="74" viewBox="0 0 75 74" fill="none" xmlns="http://www.w3.org/2000/svg">
<g clip-path="url(#clip0_2971_11412)">
<path fill-rule="evenodd" clip-rule="evenodd" d="M44.1721 0C43.6371 0 43.1402 0.115119 42.6815 0.268602C43.6562 0.920919 44.1913 1.78429 44.4588 2.76276C44.478 2.89706 44.5161 2.993 44.5353 3.12729C44.5544 3.24241 44.5735 3.35753 44.5735 3.47264C44.65 5.16099 44.1339 5.37204 43.7708 6.3697C43.2166 7.65516 43.3695 9.03654 44.0384 10.1493C44.0957 10.2836 44.1721 10.4371 44.2677 10.5714C43.5415 5.71738 47.5738 4.98832 48.3191 3.47264C48.3765 2.14882 47.2872 1.26627 46.4272 0.652318C45.6054 0.153488 44.8601 0 44.1721 0ZM50.2493 1.09359C50.1729 1.53487 50.2302 1.41975 50.2111 1.64998C50.192 1.80347 50.192 1.99533 50.1729 2.14882C50.1348 2.3023 50.0965 2.45579 50.0392 2.60928C50.001 2.76276 49.9436 2.91625 49.8863 3.06973C49.8098 3.22323 49.7525 3.35752 49.6761 3.51101C49.6187 3.58779 49.5805 3.66449 49.5232 3.74124C49.485 3.7988 49.4467 3.85636 49.4085 3.91392C49.313 4.04822 49.2174 4.18252 49.1219 4.29763C49.0072 4.41275 48.9116 4.54705 48.7779 4.64298V4.66219C48.6632 4.75812 48.5485 4.87324 48.4148 4.96916C48.0134 5.27613 47.5548 5.50637 47.1343 5.79416C47.0006 5.89008 46.8668 5.96683 46.7521 6.08194C46.6184 6.17787 46.5037 6.2738 46.389 6.38892C46.2553 6.50403 46.1597 6.61915 46.045 6.75345C45.9495 6.86857 45.8348 7.00286 45.7584 7.13717C45.6628 7.27146 45.5673 7.40577 45.4908 7.54007C45.4144 7.69355 45.3571 7.82786 45.2806 7.98134C45.2233 8.13482 45.166 8.26913 45.1277 8.42261C45.0704 8.59529 45.0322 8.74878 44.994 8.90227C44.9748 8.97904 44.9748 9.07493 44.9558 9.15168C44.9366 9.22845 44.9366 9.30516 44.9176 9.38191C44.9176 9.5354 44.8984 9.70807 44.8984 9.86155C44.8984 9.97667 44.8984 10.0918 44.9176 10.2069C44.9176 10.3604 44.9367 10.5139 44.9749 10.6865C44.994 10.84 45.0322 10.9935 45.0705 11.147C45.1278 11.3005 45.166 11.454 45.2234 11.6075C45.2615 11.7034 45.3189 11.7993 45.3571 11.8761L40.9617 10.1685C40.2164 9.95748 39.4902 9.76563 38.7449 9.59295C38.3435 9.49703 37.9422 9.4011 37.5409 9.30517C36.3942 9.07494 35.2285 8.90227 34.0628 8.78715C34.0246 8.78715 34.0054 8.76794 33.9672 8.76794C32.8206 8.65283 31.693 8.59527 30.5464 8.59527C29.7055 8.59527 28.8647 8.63361 28.0429 8.6912C26.8772 8.76797 25.7114 8.92143 24.5457 9.11328C24.259 9.15163 23.9723 9.20922 23.6857 9.26678C23.0933 9.38188 22.5199 9.51619 21.9657 9.65049C21.6791 9.72727 21.3924 9.80398 21.1058 9.88072C20.8191 9.99583 20.5516 10.1301 20.284 10.2453C20.0738 10.3412 19.8636 10.4371 19.6533 10.533C19.6152 10.5523 19.5769 10.5523 19.5578 10.5714C19.3667 10.6673 19.1947 10.744 19.0227 10.84C18.9654 10.8592 18.9271 10.8783 18.8889 10.8975C18.6787 10.9935 18.4685 11.1086 18.2965 11.2045C18.1627 11.2621 18.0289 11.3388 17.9143 11.3964C17.857 11.4347 17.7805 11.4731 17.7423 11.4923C17.5703 11.5882 17.3983 11.6842 17.2454 11.7801C17.0734 11.876 16.9205 11.9719 16.7868 12.0679C16.653 12.1638 16.5192 12.2405 16.4045 12.3365C16.3854 12.3557 16.3664 12.3557 16.3472 12.3748C16.2325 12.4516 16.0988 12.5475 15.9841 12.6434C15.9841 12.6434 15.965 12.6626 15.9459 12.6818C15.8504 12.7585 15.7548 12.8353 15.6593 12.912C15.6211 12.9312 15.5828 12.9695 15.5446 12.9888C15.449 13.0655 15.3535 13.1614 15.2579 13.2382C15.2388 13.2765 15.2006 13.2957 15.1815 13.315C15.0668 13.4301 14.9521 13.526 14.8375 13.6411C14.8183 13.6411 14.8183 13.6603 14.7993 13.6795C14.6846 13.7754 14.57 13.8905 14.4553 14.0056C14.4361 14.0248 14.4361 14.044 14.4171 14.044C14.3215 14.1399 14.226 14.2358 14.1304 14.3509C14.0922 14.3893 14.0349 14.4277 13.9967 14.466C13.9011 14.5812 13.7865 14.6963 13.6718 14.8114C13.6526 14.8497 13.6145 14.869 13.5953 14.9073C13.4424 15.0608 13.3087 15.2143 13.1558 15.3678C13.1366 15.387 13.1176 15.4061 13.0984 15.4253C12.7927 15.7515 12.4678 16.0777 12.1238 16.3654C11.7798 16.6724 11.4167 16.9602 11.0536 17.2096C10.6714 17.4782 10.3083 17.7085 9.90696 17.9387C9.52475 18.1497 9.12343 18.3416 8.703 18.5143C8.30167 18.6869 7.88124 18.8404 7.46081 18.9747C6.65816 19.1474 5.8364 19.4736 5.12931 19.5311C4.97643 19.5311 4.80443 19.5695 4.65155 19.5887C4.47955 19.627 4.32667 19.6654 4.17378 19.7038C4.0209 19.7613 3.86801 19.8189 3.71513 19.8765C3.56224 19.934 3.40936 20.0108 3.25648 20.0875C3.1227 20.1834 2.96982 20.2602 2.83604 20.3561C2.70227 20.452 2.56849 20.5671 2.45382 20.6823C2.32006 20.7782 2.18628 20.9125 2.07161 21.0276C1.95695 21.1619 1.84228 21.277 1.74673 21.4113C1.65118 21.5648 1.53652 21.6991 1.46007 21.8526C1.36452 21.9869 1.26897 22.1404 1.19252 22.2939C1.11605 22.4666 1.03964 22.62 0.982308 22.7927C0.924976 22.9462 0.867644 23.1189 0.810312 23.2915C0.772121 23.445 0.733839 23.5985 0.714761 23.752C0.714761 23.7712 0.695621 23.7903 0.695621 23.8096C0.65743 23.9822 0.657429 24.2125 0.638289 24.3276C0.619149 24.4619 0.600098 24.577 0.600098 24.7113C0.600098 24.7881 0.600098 24.884 0.619238 24.9607C0.638378 25.095 0.657429 25.2101 0.695711 25.3253C0.733902 25.4404 0.772184 25.5555 0.82948 25.6706V25.6898C0.886812 25.8049 0.963258 25.92 1.0397 26.0352C1.11617 26.1503 1.19259 26.2654 1.28814 26.3805C1.38369 26.4764 1.49835 26.5915 1.61302 26.6875C1.72768 26.8026 1.84235 26.8985 1.97612 26.9944C2.43477 27.3973 2.54944 27.5317 3.14187 27.8386C3.23742 27.8962 3.33298 27.9346 3.44764 27.9921C3.46678 27.9921 3.48583 28.0113 3.50497 28.0113C3.50497 28.0497 3.50497 28.0689 3.52412 28.1073C3.54326 28.2607 3.58145 28.4142 3.61967 28.5677C3.65786 28.7404 3.71523 28.8939 3.77256 29.0282C3.82989 29.1433 3.86811 29.2584 3.92544 29.3735C3.94458 29.4119 3.96363 29.4503 3.98278 29.4695C4.05925 29.6229 4.13566 29.7573 4.2121 29.8915C4.30765 30.0258 4.40321 30.1601 4.49876 30.2945C4.59431 30.4096 4.70897 30.5439 4.82364 30.659C4.9383 30.7741 5.05297 30.87 5.18674 30.9851C5.18674 30.9851 5.20589 31.0044 5.22493 31.0044C5.3396 31.1003 5.45426 31.1962 5.56893 31.273C5.7027 31.3689 5.83648 31.4456 5.98936 31.5224C6.12314 31.5992 6.27602 31.6759 6.4289 31.7334C6.54357 31.791 6.67734 31.8294 6.81112 31.8677C6.83026 31.887 6.84931 31.887 6.88759 31.9061C6.96406 31.9253 7.05958 31.9444 7.13602 31.9636C7.07869 32.9997 7.05955 33.9781 7.21249 34.3235C7.38448 34.7072 8.22535 33.5369 9.06622 32.1939C8.95156 33.5177 8.87511 35.0717 9.06622 35.5322C9.27644 36.0118 10.4231 34.5154 11.4168 32.8654C24.9662 29.7189 37.3308 39.12 38.6303 52.3966C38.3819 50.3245 35.8402 49.1733 34.6744 49.4611C34.1011 50.8809 33.1265 52.7035 31.5594 53.8355C31.6932 52.5692 31.6359 51.2646 31.3683 49.9983C30.9479 51.7634 30.1261 53.4134 28.9986 54.8332C27.1831 54.9675 25.3676 54.0849 24.412 52.7611C24.3356 52.7035 24.3165 52.5884 24.2592 52.5117C24.2018 52.3774 24.1445 52.2431 24.1063 52.1088C24.0489 51.9745 24.0107 51.8402 23.9916 51.7059C23.9725 51.5716 23.9725 51.4373 23.9725 51.2838C23.9725 51.1879 23.9725 51.0919 23.9725 50.996C23.9916 50.8617 24.0298 50.7274 24.068 50.5931C24.1062 50.4588 24.1445 50.3245 24.2018 50.1902C24.2783 50.0559 24.3356 49.9216 24.4311 49.7873C24.756 48.8664 24.756 48.1181 24.1636 47.6768C24.0489 47.6001 23.9342 47.5425 23.8005 47.485C23.724 47.4658 23.6285 47.4274 23.552 47.4082C23.4947 47.389 23.4565 47.3699 23.3992 47.3507C23.2654 47.3123 23.1316 47.2739 22.9978 47.2547C22.864 47.2164 22.7303 47.1972 22.5965 47.1972C22.4627 47.1779 22.3098 47.1588 22.1761 47.1588C22.0805 47.1588 21.985 47.178 21.8894 47.178C21.7365 47.178 21.6027 47.1973 21.469 47.2356C21.3352 47.2548 21.2014 47.2739 21.0676 47.3124C20.9339 47.3507 20.8001 47.3891 20.6663 47.4467C20.5326 47.5042 20.4179 47.5618 20.2841 47.6193C20.1695 47.6769 20.0548 47.7536 19.921 47.8112C15.4682 50.7274 18.1246 57.5576 21.1632 59.5338C20.0166 59.7448 18.8508 59.9942 18.5259 60.2436C18.5068 60.2628 18.4878 60.282 18.4878 60.282C19.3095 60.7808 20.1695 61.2029 21.0677 61.5674C22.2908 61.9703 23.5903 62.3349 24.1636 62.4883V62.5076C25.7498 62.8337 27.3551 62.9488 28.9795 62.8529C37.4455 62.2581 44.3826 55.7925 45.6439 47.274C45.6821 47.4467 45.7204 47.6001 45.7586 47.7728C45.8159 48.1182 45.8924 48.4827 45.9306 48.8472V48.8665C45.9688 49.0391 45.9879 49.2118 46.0071 49.3653V49.4421C46.0262 49.6147 46.0453 49.7874 46.0453 49.9409C46.0644 50.1519 46.0835 50.363 46.0835 50.574V50.881C46.0835 50.9769 46.1026 51.0921 46.1026 51.188C46.1026 51.3031 46.0835 51.4182 46.0835 51.5333V51.8019C46.0835 51.9362 46.0643 52.0513 46.0643 52.1856C46.0643 52.2624 46.0643 52.3391 46.0452 52.4351C46.0452 52.5694 46.026 52.7037 46.026 52.8572C46.0069 52.9147 46.0069 52.9723 46.0069 53.0298C45.9877 53.1833 45.9687 53.3176 45.9495 53.4711C45.9495 53.5287 45.9495 53.5862 45.9304 53.6438C45.9112 53.8356 45.8731 54.0083 45.8539 54.2002V54.2194V54.2386C45.8157 54.4113 45.7774 54.6031 45.7392 54.7758V54.8334C45.7011 55.006 45.6628 55.1787 45.6246 55.3514C45.6246 55.3706 45.6055 55.409 45.6055 55.4282C45.5673 55.6008 45.529 55.7735 45.4717 55.9462V56.0037C45.4144 56.1956 45.357 56.3683 45.3188 56.5409C45.2997 56.5602 45.2997 56.5793 45.2997 56.5793C45.2423 56.7711 45.185 56.963 45.1277 57.1549C45.0512 57.3467 44.9939 57.5194 44.9175 57.7113C44.841 57.9031 44.7837 58.095 44.7072 58.2676C44.6308 58.4595 44.5543 58.6322 44.4779 58.824H44.4587C44.3823 58.9967 44.3058 59.1886 44.2103 59.3612C44.1912 59.4188 44.1721 59.4572 44.153 59.4955C44.1338 59.5148 44.1338 59.5339 44.1148 59.5531C42.8726 62.0664 41.038 64.2728 38.7447 65.9995C38.5918 66.0955 38.4389 66.2106 38.286 66.3257C38.2478 66.364 38.1905 66.3833 38.1523 66.4216C38.0185 66.5175 37.8847 66.6135 37.7318 66.7094L37.7892 66.8245H37.8083C38.0758 66.7862 38.3434 66.7478 38.6109 66.7094H38.6301C39.127 66.6326 39.6238 66.5367 40.1207 66.4408C40.2545 66.4216 40.4074 66.3833 40.5411 66.3449C40.6367 66.3256 40.7131 66.3065 40.8087 66.2873C40.9425 66.2681 41.0762 66.2298 41.21 66.2105C41.3247 66.1722 41.4394 66.153 41.554 66.1146C43.4651 65.6542 45.3188 65.021 47.0961 64.2728C44.0575 68.4361 39.9869 71.7936 35.2284 74C37.4261 73.8465 39.6238 73.482 41.7451 72.868C49.4467 70.5849 55.9252 65.3856 59.8046 58.3827C59.0211 62.8147 57.2629 67.0355 54.6639 70.7192C56.5176 69.4913 58.2185 68.0716 59.7664 66.46C64.0472 61.9705 66.8565 56.2723 67.812 50.152C68.4618 53.1833 68.6529 56.3107 68.3662 59.3996C82.1641 40.0794 69.5128 20.0494 64.2192 14.7733C64.2 14.7349 64.181 14.7157 64.181 14.6773C64.1618 14.6966 64.1618 14.6966 64.1618 14.7157C64.1618 14.6965 64.1618 14.6965 64.1427 14.6773C64.1427 14.9076 64.1236 15.1378 64.1045 15.368C64.0472 15.8093 63.9899 16.2314 63.9134 16.6535C63.8179 17.0756 63.7032 17.4977 63.5885 17.9198C63.4548 18.3227 63.3019 18.7447 63.1299 19.1476C62.9579 19.5314 62.7668 19.9343 62.5566 20.318C62.3463 20.6825 62.117 21.0662 61.8686 21.4116C61.6201 21.7761 61.3526 22.1215 61.085 22.4476C60.7984 22.793 60.4926 23.0999 60.1868 23.4069C59.9957 23.5796 59.8237 23.7331 59.6326 23.8865C59.4797 24.0209 59.346 24.136 59.1931 24.2703C58.8491 24.5389 58.5051 24.7883 58.1229 25.0185C57.7598 25.2487 57.3776 25.479 56.9954 25.6708C56.594 25.8627 56.1927 26.0354 55.7914 26.208C55.3901 26.3615 54.9696 26.4958 54.5492 26.6109C54.1288 26.7261 53.6892 26.822 53.2688 26.8987C52.8293 26.9755 52.3897 27.0138 51.9693 27.0522C51.6635 27.0714 51.3577 27.0906 51.052 27.0906C50.6124 27.0906 50.1729 27.0522 49.7524 27.0138C49.3129 26.9755 48.8734 26.9179 48.4529 26.8219C48.0134 26.7452 47.5929 26.6301 47.1725 26.4958H47.1534C47.5738 26.4574 47.9942 26.419 48.4147 26.3423C48.8542 26.2655 49.2746 26.1696 49.6951 26.0545C50.1155 25.9394 50.536 25.8051 50.9373 25.6516C51.3577 25.4981 51.759 25.3062 52.1412 25.1144C52.5426 24.9225 52.9057 24.7115 53.2879 24.4813C53.651 24.2318 54.0141 23.9824 54.3581 23.7138C54.7021 23.4452 55.0269 23.1574 55.3327 22.8505C55.6576 22.5627 55.9443 22.2365 56.2309 21.9103C56.5176 21.565 56.7851 21.2197 57.0336 20.8743C57.0718 20.8168 57.11 20.74 57.1482 20.6825C57.3393 20.3755 57.5304 20.0685 57.7024 19.7615C57.9126 19.3778 58.1038 18.9941 58.2757 18.5912C58.4477 18.1883 58.6006 17.7854 58.7344 17.3633C58.8682 16.9604 58.9637 16.5383 59.0593 16.1162C59.1358 15.6749 59.2122 15.2529 59.2504 14.8308C59.2886 14.3895 59.3269 13.9482 59.3269 13.5261C59.3269 13.2192 59.3077 12.9122 59.2887 12.6052C59.2505 12.1639 59.1931 11.7418 59.1358 11.3198C59.0593 10.8785 58.9638 10.4564 58.8491 10.0343C58.7154 9.63141 58.5816 9.20931 58.4287 8.80642C58.2758 8.40351 58.0847 8.00061 57.8936 7.61689C57.6834 7.23317 57.4732 6.84945 57.2438 6.48493C56.9954 6.1204 56.747 5.77505 56.4794 5.4297C56.1928 5.10354 55.9061 4.77738 55.6003 4.45123C55.4474 4.29774 55.2754 4.12507 55.1034 3.97158C54.2435 3.30007 53.3453 2.66694 52.4471 2.09137C52.3133 2.01459 52.1986 1.95706 52.0649 1.8995C51.4342 1.4966 50.8417 1.28545 50.2493 1.09359Z" fill="#E0234E"/>
</g>
<defs>
<clipPath id="clip0_2971_11412">
<rect width="74" height="74" fill="white" transform="translate(0.600098)"/>
</clipPath>
</defs>
</svg>
