<svg width="79" height="79" viewBox="0 0 79 79" fill="none" xmlns="http://www.w3.org/2000/svg">
<g clip-path="url(#clip0_7859_14466)">
<path d="M0 27.3867C0 14.4765 0 8.02137 4.01067 4.01067C8.02137 0 14.4765 0 27.3867 0H51.6135C64.5236 0 70.9785 0 74.9893 4.01067C79 8.02137 79 14.4765 79 27.3867V51.6135C79 64.5236 79 70.9785 74.9893 74.9893C70.9785 79 64.5236 79 51.6135 79H27.3867C14.4765 79 8.02137 79 4.01067 74.9893C0 70.9785 0 64.5236 0 51.6135V27.3867Z" fill="#4945FF"/>
<path d="M54.51 23.9633H27.9132V37.5249H41.475V51.0865H55.0366V24.4899C55.0366 24.1991 54.8007 23.9633 54.51 23.9633Z" fill="white"/>
<path d="M41.4748 37.525H40.9481V38.0517H41.4748V37.525Z" fill="white"/>
<path d="M27.9132 37.525H40.9481C41.2392 37.525 41.475 37.7609 41.475 38.0516V51.0866H28.4399C28.149 51.0866 27.9132 50.8511 27.9132 50.56V37.525Z" fill="#9593FF"/>
<path d="M41.475 51.0865H55.0365L41.9244 64.1987C41.7586 64.3645 41.475 64.2471 41.475 64.0127V51.0865Z" fill="#9593FF"/>
<path d="M27.9132 37.5249H14.9872C14.7527 37.5249 14.6352 37.2413 14.801 37.0754L27.9132 23.9633V37.5249Z" fill="#9593FF"/>
</g>
<defs>
<clipPath id="clip0_7859_14466">
<rect width="79" height="79" fill="white"/>
</clipPath>
</defs>
</svg>
