<svg width="72" height="72" viewBox="0 0 72 72" fill="none" xmlns="http://www.w3.org/2000/svg">
<path fill-rule="evenodd" clip-rule="evenodd" d="M23.328 42.912C25.248 42.912 29.088 42.816 34.464 40.608C40.704 38.016 52.992 33.408 61.92 28.608C68.16 25.248 70.848 20.832 70.848 14.88C70.848 6.72 64.224 0 55.968 0H21.408C9.6 0 0 9.6 0 21.408C0 33.216 9.024 42.912 23.328 42.912Z" fill="#39594D"/>
<path fill-rule="evenodd" clip-rule="evenodd" d="M29.1841 57.6C29.1841 51.84 32.6401 46.56 38.0161 44.352L48.8641 39.84C59.9041 35.328 72.0001 43.392 72.0001 55.296C72.0001 64.512 64.5121 72 55.2961 72H43.4881C35.6161 72 29.1841 65.568 29.1841 57.6Z" fill="#D18EE2"/>
<path d="M12.384 45.696C5.568 45.696 0 51.264 0 58.08V59.712C0 66.432 5.568 72 12.384 72C19.2 72 24.768 66.432 24.768 59.616V57.984C24.672 51.264 19.2 45.696 12.384 45.696Z" fill="#FF7759"/>
</svg>
