<svg width="72" height="66" viewBox="0 0 72 66" fill="none" xmlns="http://www.w3.org/2000/svg">
<g clip-path="url(#clip0_7889_14463)">
<path d="M54.0322 19.9716L36.8195 44.9297C36.6371 45.1944 36.3732 45.3926 36.0678 45.4943C35.7625 45.5961 35.4325 45.5951 35.1278 45.4929C34.8231 45.3902 34.5604 45.191 34.3795 44.9259C34.1987 44.6603 34.1095 44.3432 34.1256 44.0227L34.8145 30.2432L23.6932 27.8779C23.4555 27.8274 23.2341 27.7191 23.0485 27.5627C22.8629 27.4063 22.7188 27.2065 22.6291 26.9811C22.5393 26.7557 22.5067 26.5116 22.534 26.2705C22.5614 26.0293 22.6478 25.7985 22.7858 25.5985L39.9986 0.640355C40.1812 0.375587 40.4451 0.177405 40.7504 0.0758069C41.0558 -0.0257917 41.3858 -0.0252663 41.6905 0.0773832C41.9952 0.179985 42.2579 0.379074 42.4388 0.644463C42.6197 0.909804 42.7088 1.22692 42.6927 1.54772L42.0038 15.3273L53.1249 17.6924C53.3626 17.7429 53.584 17.8512 53.7698 18.0076C53.9556 18.164 54.0994 18.3638 54.1889 18.5892C54.279 18.8146 54.3114 19.0587 54.2842 19.2998C54.2571 19.541 54.1704 19.7716 54.0322 19.9716Z" fill="#FCC72B"/>
<path d="M36.007 65.8695C35.5492 65.87 35.0958 65.7802 34.6728 65.6044C34.2498 65.4286 33.8657 65.1707 33.5424 64.8459L17.2783 48.5366C16.6277 47.8808 16.263 46.9928 16.2642 46.0676C16.2654 45.1423 16.6324 44.2548 17.2849 43.6009C17.9373 42.9465 18.8218 42.5783 19.7445 42.5768C20.6672 42.5759 21.5527 42.9413 22.2069 43.5938L36.007 57.4316L66.0705 27.2838C66.7259 26.6372 67.6095 26.2764 68.5288 26.2802C69.4485 26.2839 70.3292 26.6519 70.9789 27.3038C71.629 27.9558 71.9962 28.839 72.0001 29.761C72.0034 30.6831 71.6438 31.5692 70.9989 32.2264L38.4709 64.8459C38.1477 65.1712 37.7636 65.4286 37.3408 65.6044C36.918 65.7802 36.4647 65.87 36.007 65.8695Z" fill="#729B1B"/>
<path d="M35.9929 65.8695C36.4507 65.87 36.9041 65.7802 37.3271 65.6044C37.7501 65.4286 38.1342 65.1707 38.4575 64.8459L54.7216 48.5366C55.3722 47.8808 55.7371 46.9928 55.7356 46.0676C55.7347 45.1423 55.3675 44.2548 54.7149 43.6009C54.0624 42.9465 53.1779 42.5783 52.2553 42.5768C51.3327 42.5759 50.4472 42.9413 49.7928 43.5938L35.9929 57.4316L5.9294 27.2838C5.27401 26.6372 4.39037 26.2764 3.47101 26.2802C2.5516 26.2839 1.67091 26.6519 1.02081 27.3038C0.370689 27.9558 0.00380117 28.839 2.84897e-05 29.761C-0.00368633 30.6831 0.356019 31.5692 1.00082 32.2264L33.5289 64.8459C33.8522 65.1712 34.2363 65.4286 34.6591 65.6044C35.0819 65.7802 35.5352 65.87 35.9929 65.8695Z" fill="#729B1B" fill-opacity="0.5"/>
</g>
<defs>
<clipPath id="clip0_7889_14463">
<rect width="72" height="66" fill="white"/>
</clipPath>
</defs>
</svg>
