<svg width="61" height="63" viewBox="0 0 61 63" fill="none" xmlns="http://www.w3.org/2000/svg">
<g clip-path="url(#clip0_8018_4914)">
<path d="M30.6456 32.8444C30.4167 33.1698 30.2237 33.4376 30.038 33.7083C27.0757 38.0682 24.1145 42.4276 21.1541 46.7865C18.4002 50.8411 15.6433 54.8933 12.8836 58.9431C12.8378 59.0067 12.7792 59.0599 12.7114 59.0994C12.6437 59.1388 12.5685 59.1636 12.4906 59.172C8.59432 59.1384 4.69905 59.0962 0.80474 59.0453C0.761544 59.0453 0.716909 59.0324 0.631958 59.0194C0.663412 58.938 0.69996 58.8587 0.741387 58.7818C3.45886 54.5688 6.17634 50.3568 8.89381 46.1457C11.3041 42.4136 13.7159 38.6825 16.129 34.9523C18.8033 30.8075 21.4762 26.6598 24.1476 22.5092C24.5421 21.8972 24.9524 21.2968 25.3268 20.6734C25.4228 20.5065 25.4516 20.3093 25.4074 20.1219C24.6875 17.8268 23.9532 15.5374 23.2203 13.2481C22.9064 12.2675 22.5781 11.2927 22.2844 10.3064C22.1894 9.98968 22.0324 9.89321 21.7085 9.89465C19.2607 9.90473 16.8274 9.90185 14.3868 9.90185C13.9232 9.90185 13.9218 9.90185 13.9218 9.44398C13.9218 6.44333 13.9218 3.44269 13.9131 0.442041C13.9131 0.107996 14.0226 0.0331242 14.3364 0.0331242C19.2502 0.0417633 24.1648 0.0417633 29.0805 0.0331242C29.1946 0.0185263 29.3102 0.0459861 29.4056 0.110374C29.501 0.174762 29.5697 0.271674 29.5988 0.383008C32.1906 6.90168 34.7823 13.418 37.374 19.9318C40.3977 27.5285 43.4214 35.1261 46.4451 42.7246C47.3838 45.0831 48.3298 47.4401 49.2585 49.8044C49.3694 50.0923 49.4846 50.1471 49.7754 50.0578C52.3513 49.2616 54.933 48.4869 57.5074 47.6892C57.8314 47.5884 57.9495 47.6561 58.0502 47.9772C58.9286 50.7374 59.8241 53.4918 60.714 56.2491C60.7442 56.3442 60.7672 56.4406 60.8032 56.5731C60.6189 56.6408 60.4462 56.7171 60.2691 56.766C54.4137 58.6215 48.5616 60.478 42.713 62.3354C42.4336 62.4232 42.3501 62.3282 42.2565 62.0935C40.4702 57.5666 38.6795 53.0416 36.8845 48.5186C35.1288 44.0896 33.3722 39.6606 31.6146 35.2317C31.3511 34.5665 31.092 33.8984 30.8285 33.2332C30.7867 33.1194 30.7291 33.0201 30.6456 32.8444Z" fill="#FA7E14"/>
</g>
<defs>
<clipPath id="clip0_8018_4914">
<rect width="61" height="62.4232" fill="white"/>
</clipPath>
</defs>
</svg>
