<svg width="72" height="33" viewBox="0 0 72 33" fill="none" xmlns="http://www.w3.org/2000/svg">
<g clip-path="url(#clip0_7914_15586)">
<path d="M56.9129 14.0518L55.4192 13.4475C48.3989 29.4252 20.4711 19.7115 18.7906 24.4647C18.5105 27.6753 34.0419 25.0752 45.1454 25.6194C48.5314 25.7852 50.2293 28.3706 48.7915 32.5847L51.6234 32.5935C54.8902 22.2926 65.3155 27.5496 65.7512 24.15C65.0354 21.9149 53.7697 24.15 56.9129 14.0518Z" fill="white"/>
<path d="M49.5934 30.8232C50.0414 29.3123 49.8921 27.8014 49.1453 26.8948C48.3983 25.9881 47.3527 25.3839 46.0083 25.2328L20.0166 24.9304C19.8672 24.9304 19.7179 24.7793 19.5685 24.7793C19.4192 24.6283 19.4192 24.4772 19.5685 24.3262C19.7179 24.024 19.8672 23.8727 20.1659 23.8727L46.307 23.5706C49.444 23.4195 52.7304 20.8509 53.9252 17.8291L55.4192 13.9007C55.4192 13.7494 55.5685 13.5983 55.4192 13.4473C53.7758 5.74147 46.9046 -0.000244141 38.8381 -0.000244141C31.3692 -0.000244141 24.946 4.83483 22.7053 11.6342C21.2116 10.5765 19.4192 9.97201 17.3278 10.1234C13.7427 10.4255 10.9046 13.4473 10.4563 17.0736C10.307 17.9802 10.4563 18.8869 10.6059 19.7932C4.78012 19.9443 0 24.7793 0 30.8232C0 31.4274 0 31.8809 0.149344 32.4851C0.149344 32.7875 0.448031 32.9386 0.597656 32.9386H48.5477C48.8464 32.9386 49.1453 32.7875 49.1453 32.4851L49.5934 30.8232Z" fill="#F4811F"/>
<path d="M57.8091 13.9006H57.0621C56.9128 13.9006 56.7634 14.0517 56.6141 14.2028L55.5684 17.8291C55.1204 19.3399 55.2697 20.8511 56.0167 21.7575C56.7634 22.6641 57.8091 23.2684 59.1535 23.4197L64.6806 23.7218C64.83 23.7218 64.9793 23.8729 65.1286 23.8729C65.278 24.024 65.278 24.175 65.1286 24.3261C64.9793 24.6285 64.83 24.7795 64.531 24.7795L58.8548 25.0817C55.7177 25.2327 52.4316 27.8013 51.2366 30.8231L50.9376 32.1832C50.7883 32.3343 50.9376 32.6364 51.2366 32.6364H70.9545C71.2531 32.6364 71.4025 32.4853 71.4025 32.1832C71.7012 30.9744 71.9999 29.6146 71.9999 28.2545C71.9999 20.3977 65.5767 13.9006 57.8091 13.9006Z" fill="#FAAD3F"/>
</g>
<defs>
<clipPath id="clip0_7914_15586">
<rect width="72" height="33" fill="white"/>
</clipPath>
</defs>
</svg>
