<svg width="72" height="72" viewBox="0 0 72 72" fill="none" xmlns="http://www.w3.org/2000/svg">
<g clip-path="url(#clip0_7914_15581)">
<path d="M1.07112 27.072C-0.335038 32.7247 -0.356695 38.6333 1.00798 44.2962C2.37266 49.9591 5.08339 55.2092 8.91012 59.601C12.7356 63.99 17.5645 67.3901 22.9861 69.5123C28.4077 71.6344 34.2617 72.4158 40.0501 71.79C63.3541 69.681 79.3081 42.393 68.6011 21.39C67.3531 17.82 62.3911 20.286 62.8921 23.178C63.7531 25.278 64.4701 27.441 65.0311 29.643C66.2869 35.3587 65.8406 41.317 63.7474 46.7819C61.6543 52.2468 58.0059 56.9787 53.2531 60.393C49.6998 62.9436 45.6301 64.6834 41.3311 65.4897C37.0321 66.296 32.6085 66.1491 28.3724 65.0594C24.1364 63.9697 20.191 61.9638 16.8148 59.1831C13.4385 56.4023 10.7135 52.9146 8.83212 48.966C6.31151 43.6845 5.39329 37.7804 6.19088 31.9829C6.98848 26.1854 9.46695 20.7485 13.3201 16.344C17.1726 11.9425 22.2314 8.76743 27.8701 7.21197C34.8838 5.22892 42.3825 5.90295 48.9301 9.10497C49.1568 9.22003 49.3312 9.41722 49.4176 9.65635C49.504 9.89548 49.4959 10.1586 49.3951 10.392L37.5091 42.252C37.1881 44.682 35.4391 44.61 35.1181 42.252L27.9781 20.142C27.8157 19.5152 27.5261 18.9286 27.1271 18.4186C26.7281 17.9087 26.2284 17.4864 25.6591 17.178C22.0891 15.498 16.3801 19.179 18.5221 23.643L30.2641 54.966C31.8361 59.145 33.3331 60.468 36.4381 60.468C39.5431 60.468 41.0431 59.148 42.6121 54.966L60.0001 11.82C60.2278 11.1854 60.2429 10.4939 60.0432 9.84997C59.8436 9.20601 59.4399 8.64444 58.8931 8.24997C39.3001 -8.72103 6.96012 1.92297 1.07112 27.069V27.072Z" fill="black"/>
</g>
<defs>
<clipPath id="clip0_7914_15581">
<rect width="72" height="72" fill="white"/>
</clipPath>
</defs>
</svg>
