<svg width="72" height="70" viewBox="0 0 72 70" fill="none" xmlns="http://www.w3.org/2000/svg">
<g clip-path="url(#clip0_8018_4921)">
<path d="M72 69.876H0L23.9693 18.7482L38.4077 29.3625L57.2402 -0.000244141L72 69.876ZM45.6013 58.8328H45.7553C47.5372 58.836 49.2507 58.1473 50.5347 56.9117C51.1926 56.3147 51.716 55.5846 52.0702 54.7699C52.4244 53.9552 52.6013 53.0745 52.5892 52.1862C52.6186 51.3303 52.456 50.4787 52.1133 49.6938C51.7707 48.909 51.2566 48.2108 50.6089 47.6506C49.5172 46.5552 48.046 45.9217 46.5 45.8812H46.382C46.1797 45.8802 45.9783 45.9079 45.7837 45.9633L49.5847 40.3132L46.5566 38.1995L45.1236 40.3132L41.4619 45.9067C40.8326 46.8339 40.3062 47.6506 39.9799 48.2181C39.6416 48.8186 39.3506 49.4445 39.1093 50.0902C38.835 50.7765 38.6939 51.5088 38.6935 52.248C38.6848 53.1259 38.861 53.9959 39.2106 54.8014C39.5601 55.6069 40.0752 56.3298 40.7224 56.9231C41.9894 58.1575 43.6892 58.8471 45.4581 58.8442L45.6013 58.8328ZM29.504 52.7518L33.7005 58.6869H38.1861L33.2493 51.8017L37.6335 45.7151L34.7238 43.7015L33.4399 45.3964L29.4977 50.9543V39.7793L25.5683 36.5753V58.6847H29.4984V52.7462L29.504 52.7518ZM45.6075 55.1269C44.8412 55.1269 44.1063 54.8225 43.5644 54.2807C43.0226 53.7388 42.7182 53.0039 42.7182 52.2377C42.7182 51.4714 43.0226 50.7365 43.5644 50.1946C44.1063 49.6528 44.8412 49.3484 45.6075 49.3484H45.6333C46.0139 49.3488 46.3905 49.4261 46.7405 49.5757C47.0904 49.7253 47.4065 49.9441 47.6698 50.219C47.9469 50.4734 48.1676 50.7832 48.3176 51.1282C48.4675 51.4733 48.5434 51.8459 48.5404 52.2221C48.5309 52.9939 48.2177 53.7308 47.6688 54.2734C47.1199 54.816 46.3793 55.1205 45.6075 55.1211V55.1269Z" fill="#7D64FF"/>
</g>
<defs>
<clipPath id="clip0_8018_4921">
<rect width="72" height="69.8759" fill="white"/>
</clipPath>
</defs>
</svg>
