<svg width="72" height="63" viewBox="0 0 72 63" fill="none" xmlns="http://www.w3.org/2000/svg">
<g clip-path="url(#clip0_7921_15597)">
<path d="M19.4571 52.4314H18.7773L15.384 49.0682V48.3944L20.5715 43.2529H24.1654L24.6445 43.7278V47.2899L19.4571 52.4314Z" fill="#05BDBA"/>
<path d="M15.384 14.3919V13.7181L18.7773 10.3549H19.4571L24.6445 15.4964V19.0584L24.1654 19.5334H20.5715L15.384 14.3919Z" fill="#05BDBA"/>
<path d="M45.2549 41.5905H40.3182L39.9058 41.1819V29.728C39.9058 27.6902 39.0979 26.1107 36.6185 26.0555C35.3425 26.0224 33.8826 26.0555 32.3225 26.1162L32.0885 26.3537V41.1764L31.6762 41.585H26.7395L26.3271 41.1764V21.6099L26.7395 21.2012H37.8498C42.168 21.2012 45.6672 24.6694 45.6672 28.9493V41.1819L45.2549 41.5905Z" fill="#014847"/>
<path d="M20.1591 34.2566H0.41232L0 33.8479V28.9438L0.41232 28.5352H20.1591L20.5714 28.9438V33.8479L20.1591 34.2566Z" fill="#05BDBA"/>
<path d="M71.5877 34.2566H51.8408L51.4285 33.8479V28.9438L51.8408 28.5352H71.5877L72 28.9438V33.8479L71.5877 34.2566Z" fill="#05BDBA"/>
<path d="M33.1528 15.0877V0.408671L33.5652 0H38.513L38.9253 0.408671V15.0877L38.513 15.4963H33.5652L33.1528 15.0877Z" fill="#05BDBA"/>
<path d="M33.1528 62.383V47.7041L33.5652 47.2954H38.513L38.9253 47.7041V62.383L38.513 62.7916H33.5652L33.1528 62.383Z" fill="#05BDBA"/>
</g>
<defs>
<clipPath id="clip0_7921_15597">
<rect width="72" height="63" fill="white"/>
</clipPath>
</defs>
</svg>
