<svg width="72" height="67" viewBox="0 0 72 67" fill="none" xmlns="http://www.w3.org/2000/svg">
<path d="M56.6499 29.1377C56.6499 23.6954 55.6633 18.4707 53.7069 13.5977C53.3224 13.7651 53.0046 13.9158 52.8041 14.0163C51.9179 14.4684 51.4161 15.4397 51.5332 16.4277C51.7673 18.454 51.9179 20.8151 51.9179 22.9419C51.9179 32.8889 48.7072 42.4339 42.8882 49.819C37.387 56.8018 29.9962 61.273 21.9531 62.5624C21.9699 62.5624 22.0033 62.5958 22.02 62.5958C26.7188 65.2752 32.4709 65.4427 37.3201 63.0649C48.6737 57.4716 56.6666 44.3597 56.6666 29.121H56.6499V29.1377Z" fill="#D3121D"/>
<path d="M58.8738 12.5928C58.1213 12.576 57.4191 12.6263 56.767 12.7267C58.7902 17.8844 59.8269 23.4106 59.8269 29.1377C59.8269 46.2183 50.3126 61.4068 36.4338 66.933C37.1361 66.9833 37.8384 67 38.5576 67H38.6577C45.3462 67 51.7004 63.9186 55.8975 58.7106C61.2147 52.1128 64.4756 43.2544 64.4756 33.5084C64.4756 25.9728 62.5526 18.7552 58.8905 12.5928H58.8738Z" fill="#D3121D"/>
<path d="M71.9832 33.5085C71.9832 28.9536 71.0805 24.6164 69.4416 20.6645C68.6891 18.8392 67.6359 17.1646 66.2311 15.7747C65.4452 15.0044 64.6092 14.3513 63.7062 13.8824C63.4723 13.7652 63.2381 13.648 63.0039 13.5475C66.0306 19.5927 67.6359 26.4585 67.6359 33.5085C67.6359 43.4053 64.4252 52.9337 58.7065 60.2348C66.7831 54.1226 72 44.4268 72 33.5085H71.9832Z" fill="#D3121D"/>
<path d="M62.5365 10.1647C56.4499 3.90177 47.9554 0 38.5413 0C20.0476 0 4.89813 15.3392 5.09878 33.8434C5.14895 38.3646 6.08535 42.6851 7.75748 46.6035C7.20567 46.5365 6.65387 46.503 6.10206 46.5365C4.59714 46.6035 2.49027 46.0677 1.52043 45.7997C0.584036 45.5319 -0.302193 46.3022 0.0991185 47.2065V47.24C3.42665 54.8592 10.784 59.8161 17.807 59.7994C18.2752 59.7994 18.7434 59.7659 19.2116 59.7324C35.6653 58.4763 48.7246 42.4673 48.7246 22.9753C48.7246 21.7528 48.6744 20.5304 48.5741 19.3079C48.5241 18.6381 47.6713 18.4036 47.2699 18.9395C42.7216 24.968 35.9831 35.585 27.5389 30.0587C24.3115 27.9321 22.5559 23.3771 23.5423 18.7218C25.2981 10.3824 35.0133 4.90652 39.2772 6.6146C39.6115 6.74855 40.8155 7.2342 41.2167 8.32268C41.8356 9.99726 39.9627 11.3872 38.9929 14.3512C37.9561 17.5664 38.5413 20.9825 39.2772 21.1165C40.0798 21.284 41.4509 18.3032 44.8119 15.5736C47.2532 13.6143 49.0926 13.045 50.2462 10.9685C51.3666 8.95901 49.3769 6.78205 50.0457 6.59785C50.7312 6.39691 51.3499 8.75805 53.3565 9.91353C55.0286 10.8848 56.5335 10.2819 58.7407 10.1982C58.7407 10.1982 59.6771 10.1647 61.1987 10.3824C61.1987 10.3824 61.6335 10.4494 62.3191 10.5834C62.5532 10.6336 62.7205 10.3322 62.5532 10.1647H62.5365ZM37.6051 35.9868C37.8558 35.702 38.3241 35.1495 39.1267 35.0657C39.2772 35.0657 40.0798 34.982 40.6148 35.4845C41.4007 36.238 41.1833 37.6948 40.481 38.5321C39.8289 39.3024 38.558 39.8215 37.6553 39.2354C36.9026 38.7499 36.8692 37.7116 36.8692 37.6278C36.8692 36.824 37.3375 36.2715 37.5884 35.9868H37.6051Z" fill="#290042"/>
</svg>
