<svg width="72" height="88" viewBox="0 0 72 88" fill="none" xmlns="http://www.w3.org/2000/svg">
<g clip-path="url(#clip0_8018_4891)">
<path d="M5.8005 15.1899L0 18.0908V69.0026L5.8005 71.8866L5.83537 71.8447V15.2299L5.8005 15.1899Z" fill="#8C3123"/>
<path d="M36.8438 64.497L5.80054 71.8866V15.1899L36.8438 22.4183V64.497Z" fill="#E05243"/>
<path d="M22.8313 52.9281L35.9989 54.6043L36.0815 54.4136L36.1555 32.8221L35.9989 32.6533L22.8313 34.3054V52.9281Z" fill="#8C3123"/>
<path d="M35.999 64.58L66.1971 71.9023L66.2446 71.8267L66.2438 15.2406L66.196 15.1899L35.999 22.5013V64.58Z" fill="#8C3123"/>
<path d="M49.1702 52.9281L35.999 54.6043V32.6533L49.1702 34.3054V52.9281Z" fill="#E05243"/>
<path d="M49.1701 25.2995L35.9989 27.7L22.8313 25.2995L35.9823 21.8525L49.1701 25.2995Z" fill="#5E1F18"/>
<path d="M49.1701 61.9099L35.9989 59.4937L22.8313 61.9099L35.9828 65.581L49.1701 61.9099Z" fill="#F2B0A9"/>
<path d="M22.8313 25.2995L35.9989 22.041L36.1055 22.0081V0.178852L35.9989 0.0908203L22.8313 6.67573V25.2995Z" fill="#8C3123"/>
<path d="M49.1702 25.2995L35.999 22.041V0.0908203L49.1702 6.67573V25.2995Z" fill="#E05243"/>
<path d="M35.9988 87.1176L22.8298 80.5349V61.9114L35.9988 65.1688L36.1926 65.389L36.14 86.7376L35.9988 87.1176Z" fill="#8C3123"/>
<path d="M35.999 87.1176L49.1691 80.5349V61.9114L35.999 65.1688V87.1176Z" fill="#E05243"/>
<path d="M66.1969 15.1899L71.9999 18.0908V69.0026L66.1969 71.9023V15.1899Z" fill="#E05243"/>
</g>
<defs>
<clipPath id="clip0_8018_4891">
<rect width="72" height="87.1875" fill="white" transform="translate(0 0.0908203)"/>
</clipPath>
</defs>
</svg>
