<svg width="72" height="28" viewBox="0 0 72 28" fill="none" xmlns="http://www.w3.org/2000/svg">
<g clip-path="url(#clip0_7914_15592)">
<path d="M48.9999 2.86308V21.6593H54.6427V18.7875H52.7783V0L48.9995 0.000446394L48.9999 2.86308ZM0 18.7875H1.9182V9.7191H0V7.22519L1.9182 6.90955V4.38501C1.9182 1.32708 2.5834 4.46394e-05 6.48092 4.46394e-05C7.3227 4.46394e-05 8.32046 0.12441 9.19401 0.281853L8.67622 3.35581C8.08458 3.26202 7.7912 3.24537 7.4172 3.24537C6.04405 3.24537 5.69691 3.38246 5.69691 4.72485V6.90955H8.54795V9.7191H5.69691V18.7875H7.59512V21.6589L0 21.6597V18.7875ZM47.0779 17.8799C46.4868 18.0047 45.9697 17.9897 45.5958 17.9989C44.0415 18.0371 44.1758 17.5258 44.1758 16.0592V9.7191H47.1346V6.90955H44.1758V0H40.3969V16.8431C40.3969 20.1501 41.2126 21.6593 44.7673 21.6593C45.6092 21.6593 46.7661 21.4426 47.6396 21.2554L47.0779 17.8799ZM35.68 9.71397V9.21097C34.5368 9.00237 33.4016 8.99934 32.7858 8.99934C31.0273 8.99934 30.813 9.93239 30.813 10.4382C30.813 11.1537 31.057 11.5406 32.962 11.9573C35.7467 12.5828 38.5433 13.2354 38.5433 16.6903C38.5433 19.9666 36.858 21.6593 33.3107 21.6593C30.9369 21.6593 28.6336 21.1495 26.8762 20.7032V17.8799H29.7377L29.736 18.3815C30.9674 18.6194 32.2585 18.5956 32.9325 18.5956C34.8082 18.5956 35.1117 17.5866 35.1117 17.0502C35.1117 16.3057 34.5738 15.9481 32.8155 15.5914C29.5031 15.0251 26.8742 13.8936 26.8742 10.5269C26.8742 7.34027 29.0043 6.09019 32.5518 6.09019C34.955 6.09019 36.7824 6.46311 38.5407 6.90955V9.71397H35.68ZM16.538 17.8713V17.4269H16.0852V17.8701C14.0573 17.7518 12.4351 16.1215 12.3292 14.0891H12.7792V13.6361H12.3316C12.4518 11.6178 14.0673 10.003 16.0852 9.88525V10.3308H16.538V9.884C18.5271 9.99038 20.1293 11.5515 20.3024 13.5233V13.6532H19.8489V14.1061H20.3026L20.3027 14.2302C20.1304 16.2029 18.5277 17.7649 16.538 17.8713ZM24.0825 17.8799L24.0801 6.11474H20.3014V7.21805C19.5232 6.75085 18.6563 6.41682 17.7323 6.24558H17.7537V4.94001H18.2147V3.97982H14.41V4.94001H14.8709V6.24558H14.8972C11.2831 6.91129 8.54434 10.0777 8.54434 13.8863C8.54434 18.1784 12.0219 21.6579 16.3116 21.6579C17.7756 21.6579 19.1448 21.252 20.3137 20.5475L20.9944 21.6593H24.9857V17.8799H24.0825ZM64.2063 6.90955H72V9.71638H70.1369L65.3574 21.4819C63.9877 24.787 61.7373 27.8977 58.311 27.8977C57.4682 27.8977 56.3466 27.8043 55.5689 27.6173L55.9107 24.1858C56.4099 24.2792 57.0635 24.3407 57.4066 24.3407C58.9958 24.3407 60.7879 23.3555 61.3487 21.6402L56.5058 9.71638H54.6427V6.90955H62.4405V9.71638H60.5778L63.3216 16.4703L66.0649 9.71638H64.2063V6.90955ZM18.2949 12.1957L18.0073 11.9079L16.547 13.1812C16.4733 13.1548 16.3944 13.1397 16.312 13.1397C15.9179 13.1397 15.599 13.4682 15.599 13.8732C15.599 14.2785 15.9179 14.607 16.312 14.607C16.7059 14.607 17.0257 14.2785 17.0257 13.8732C17.0257 13.7963 17.014 13.7222 16.9927 13.6525L18.2949 12.1957Z" fill="#D52F2F"/>
</g>
<defs>
<clipPath id="clip0_7914_15592">
<rect width="72" height="28" fill="white"/>
</clipPath>
</defs>
</svg>
