<svg width="72" height="70" viewBox="0 0 72 70" fill="none" xmlns="http://www.w3.org/2000/svg">
<g clip-path="url(#clip0_7921_15606)">
<path d="M39.9589 53.7192C39.9589 62.6607 32.7077 69.9098 23.7623 69.9098C14.8156 69.9098 7.56445 62.6607 7.56445 53.7192C7.56445 44.7777 14.8156 37.5286 23.7623 37.5286C32.7077 37.5286 39.9589 44.7777 39.9589 53.7192Z" fill="#FF6600"/>
<path d="M71.9943 31.0526C71.9943 39.9929 64.7431 47.2432 55.7977 47.2432C46.851 47.2432 39.5999 39.9929 39.5999 31.0526C39.5999 22.1111 46.851 14.8608 55.7977 14.8608C64.7431 14.8608 71.9943 22.1111 71.9943 31.0526Z" fill="#FFCC00"/>
<path d="M32.4 30.6933C32.4 39.6336 25.1489 46.8839 16.2022 46.8839C7.25794 46.8839 0.00561523 39.6336 0.00561523 30.6933C0.00561523 21.7518 7.25794 14.5016 16.2022 14.5016C25.1489 14.5016 32.4 21.7518 32.4 30.6933Z" fill="#0089CC"/>
<path d="M64.796 53.7192C64.796 62.6607 57.5449 69.9098 48.597 69.9098C39.6527 69.9098 32.4004 62.6607 32.4004 53.7192C32.4004 44.7777 39.6527 37.5286 48.597 37.5286C57.5449 37.5286 64.796 44.7777 64.796 53.7192Z" fill="#009939"/>
<path d="M52.1976 16.3008C52.1976 25.2422 44.9453 32.4913 35.9998 32.4913C27.0543 32.4913 19.802 25.2422 19.802 16.3008C19.802 7.35926 27.0543 0.110176 35.9998 0.110176C44.9453 0.110176 52.1976 7.35926 52.1976 16.3008Z" fill="#BF0000"/>
<path d="M39.5996 31.0526C39.5996 31.3933 39.6293 31.7268 39.6507 32.0626C46.8353 30.4058 52.1974 23.9851 52.1974 16.3005C52.1974 15.9599 52.1677 15.6252 52.1463 15.2893C44.9617 16.9473 39.5996 23.368 39.5996 31.0526Z" fill="#FC0007"/>
<path d="M41.7366 39.0694C44.528 43.9472 49.7737 47.243 55.7983 47.243C58.2538 47.243 60.5727 46.6805 62.6588 45.7025C59.8686 40.8247 54.6229 37.5289 48.5971 37.5289C46.1416 37.5289 43.8227 38.0915 41.7366 39.0694Z" fill="#1CD306"/>
<path d="M32.4001 53.7192C32.4001 57.6748 33.8226 61.2946 36.1807 64.1062C38.5364 61.2946 39.9588 57.6748 39.9588 53.7192C39.9588 49.7635 38.5364 46.1437 36.1807 43.3321C33.8226 46.1437 32.4001 49.7635 32.4001 53.7192Z" fill="#0F7504"/>
<path d="M9.78931 45.5581C11.7567 46.4079 13.9225 46.8838 16.2022 46.8838C22.1674 46.8838 27.3644 43.6521 30.1761 38.8538C28.2086 38.004 26.0417 37.5293 23.7632 37.5293C17.798 37.5293 12.5998 40.761 9.78931 45.5581Z" fill="#0C5E87"/>
<path d="M19.8716 14.9349C19.8336 15.3859 19.8015 15.8393 19.8015 16.301C19.8015 23.9797 25.1553 30.3944 32.3316 32.0583C32.3684 31.6074 32.4005 31.154 32.4005 30.6935C32.4005 23.0148 27.0479 16.5977 19.8716 14.9349Z" fill="#6B0001"/>
<path d="M21.3835 51.7158H18.8497C16.6127 51.7158 14.7937 49.9035 14.7937 47.6735V24.7489C14.7937 22.5189 16.6127 20.7054 18.8497 20.7054H50.6219C52.8589 20.7054 54.6767 22.5189 54.6767 24.7489V47.6735C54.6767 49.9035 52.8589 51.7158 50.6219 51.7158H39.7981L18.0815 62.3568L21.3835 51.7158Z" fill="white"/>
</g>
<defs>
<clipPath id="clip0_7921_15606">
<rect width="72" height="70" fill="white"/>
</clipPath>
</defs>
</svg>
