<svg width="72" height="72" viewBox="0 0 72 72" fill="none" xmlns="http://www.w3.org/2000/svg">
<g clip-path="url(#clip0_7914_15583)">
<path d="M36.5247 71.8049C35.9184 71.8061 35.3645 71.4615 35.0977 70.917C34.8393 70.4045 34.8947 69.7897 35.2404 69.3316L52.1096 46.1048L22.5727 58.17C22.3725 58.2571 22.1568 58.3029 21.9385 58.3048C21.2368 58.3013 20.6209 57.8369 20.4244 57.1633C20.2231 56.5042 20.4897 55.792 21.0745 55.4272L47.052 40.088L1.31187 37.4562C0.55335 37.3233 0 36.6646 0 35.8945C0 35.1244 0.55335 34.4657 1.31187 34.3329L47.0758 31.7089L21.0903 16.3697C20.5056 16.005 20.2389 15.2928 20.4403 14.6337C20.6359 13.9628 21.2477 13.4992 21.9465 13.4922C22.1659 13.4914 22.3827 13.5402 22.5806 13.6348L52.1254 25.716L35.2563 2.49708C34.9105 2.03895 34.8552 1.42413 35.1136 0.911632C35.3723 0.36051 35.9238 0.00622091 36.5326 0C36.9491 0.00276889 37.3467 0.1744 37.6345 0.475634L71.2539 34.0871C72.2487 35.0836 72.2487 36.6975 71.2539 37.694L37.6186 71.3451C37.3307 71.6393 36.9363 71.8049 36.5247 71.8049Z" fill="black"/>
</g>
<defs>
<clipPath id="clip0_7914_15583">
<rect width="72" height="72" fill="white"/>
</clipPath>
</defs>
</svg>
