<svg width="72" height="73" viewBox="0 0 72 73" fill="none" xmlns="http://www.w3.org/2000/svg">
<path d="M39.15 46.8173H48.39C49.032 46.8173 49.557 47.3483 49.557 47.9993V53.4593C50.6686 53.7361 51.6555 54.3773 52.3602 55.2804C53.0649 56.1836 53.4468 57.2967 53.445 58.4423C53.445 61.2713 51.18 63.5663 48.39 63.5663C47.7214 63.562 47.0603 63.426 46.4443 63.1662C45.8283 62.9063 45.2694 62.5277 44.7998 62.0519C44.3301 61.5761 43.9587 61.0124 43.7069 60.3931C43.455 59.7737 43.3277 59.1109 43.332 58.4423C43.332 56.0213 44.994 53.9903 47.223 53.4563V49.1813H39.153V63.1703C39.1541 63.3736 39.1028 63.5736 39.004 63.7513C38.9052 63.9289 38.7623 64.078 38.589 64.1843L30.519 69.1073C30.3358 69.219 30.1252 69.2775 29.9107 69.2765C29.6961 69.2754 29.4861 69.2148 29.304 69.1013L14.526 59.8433C14.3559 59.7358 14.2157 59.587 14.1187 59.4108C14.0216 59.2345 13.9708 59.0365 13.971 58.8353V49.1783L6.588 44.8883C6.4201 44.791 6.27868 44.6539 6.17615 44.4891C6.07362 44.3244 6.01314 44.1369 6 43.9433V28.4963C6 28.0763 6.219 27.6863 6.576 27.4763L13.971 23.0903V13.6223C13.971 13.2353 14.157 12.8753 14.466 12.6563L14.529 12.6143L29.31 3.45228C29.4934 3.33888 29.7048 3.27881 29.9205 3.27881C30.1362 3.27881 30.3476 3.33888 30.531 3.45228L38.601 8.47728C38.946 8.69328 39.156 9.07728 39.156 9.48528V23.0783H50.724V17.3273C49.6122 17.0499 48.6252 16.4081 47.9206 15.5045C47.2159 14.6008 46.8341 13.4872 46.836 12.3413C46.836 9.51228 49.101 7.21728 51.891 7.21728C54.684 7.21728 56.946 9.51228 56.946 12.3413C56.946 14.7623 55.287 16.7933 53.058 17.3273V24.2693C53.058 24.9113 52.533 25.4393 51.891 25.4423H39.156V30.8603H59.028C59.2852 29.7459 59.9108 28.7508 60.8037 28.036C61.6965 27.3212 62.8043 26.9284 63.948 26.9213C66.738 26.9213 69.003 29.2133 69.003 32.0423C69.003 34.8713 66.741 37.1663 63.948 37.1663C62.8041 37.1584 61.6962 36.7651 60.8034 36.0498C59.9106 35.3345 59.2851 34.339 59.028 33.2243H39.15V39.0353H54.009L56.754 42.5753C57.519 42.1283 58.389 41.8943 59.274 41.8943C62.067 41.8943 64.329 44.1863 64.329 47.0153C64.329 49.8443 62.067 52.1393 59.274 52.1393C56.484 52.1393 54.219 49.8443 54.219 47.0153C54.219 45.9773 54.525 45.0113 55.047 44.2043L52.875 41.3993H39.15V46.8173ZM29.919 5.84628L23.79 9.64428V18.5483H21.456V11.0903L16.305 14.2853V23.1203L22.635 27.2003L29.136 23.1083V16.2803H31.47V23.7683C31.47 24.1763 31.26 24.5573 30.918 24.7733L23.889 29.1923V35.4353L28.155 38.4623L26.817 40.4003L22.599 37.4063L18.009 40.4213L16.74 38.4413L21.555 35.2763V29.3063L15.114 25.1483L8.334 29.1683V34.1963L14.25 30.6293L15.444 32.6603L8.334 36.9473V43.1783L14.832 46.9523L21.642 42.8483L22.833 44.8793L16.305 48.8123V58.1783L21.933 61.7033L29.028 57.4253L30.222 59.4593L24.171 63.1073L29.925 66.7103L36.819 62.5013V45.1613L22.545 53.8403L21.345 51.8153L36.819 42.4073V10.1453L29.919 5.84628ZM48.39 55.6883C47.6672 55.6954 46.9762 55.9867 46.4664 56.4993C45.9566 57.0118 45.6691 57.7044 45.666 58.4273V58.4483C45.666 59.9693 46.884 61.2023 48.39 61.2023C49.1123 61.1944 49.8026 60.9028 50.3117 60.3903C50.8208 59.8778 51.1079 59.1857 51.111 58.4633V58.4243C51.1079 57.7019 50.8208 57.0098 50.3117 56.4973C49.8026 55.9848 49.1123 55.6962 48.39 55.6883ZM59.28 44.2583C58.5572 44.2654 57.8662 44.5567 57.3564 45.0693C56.8467 45.5818 56.5591 46.2744 56.556 46.9973V47.0183C56.556 48.5423 57.774 49.7783 59.277 49.7783C59.9999 49.7712 60.6909 49.4799 61.2006 48.9673C61.7104 48.4548 61.9979 47.7622 62.001 47.0393V46.9973C61.9979 46.2744 61.7104 45.5818 61.2006 45.0693C60.6909 44.5567 60.0029 44.2654 59.28 44.2583ZM63.945 29.2883C63.2222 29.2954 62.5312 29.5867 62.0214 30.0993C61.5117 30.6118 61.2241 31.3044 61.221 32.0273V32.0483C61.221 33.5693 62.442 34.8023 63.945 34.8023C64.6673 34.7944 65.3576 34.5028 65.8667 33.9903C66.3758 33.4778 66.6629 32.7857 66.666 32.0633V32.0243C66.6629 31.3019 66.3758 30.6098 65.8667 30.0973C65.3576 29.5848 64.6673 29.2932 63.945 29.2853V29.2883ZM51.888 9.57828C51.1657 9.58615 50.4754 9.87782 49.9663 10.3903C49.4572 10.9028 49.1701 11.5949 49.167 12.3173V12.3383C49.167 13.8623 50.385 15.0983 51.888 15.0983C52.6109 15.0912 53.3019 14.7999 53.8116 14.2873C54.3214 13.7748 54.6089 13.0822 54.612 12.3593V12.3173C54.6089 11.5944 54.3214 10.9018 53.8116 10.3892C53.3019 9.87669 52.6109 9.58537 51.888 9.57828Z" fill="url(#paint0_linear_8018_4895)"/>
<defs>
<linearGradient id="paint0_linear_8018_4895" x1="56.4013" y1="16.4774" x2="18.5993" y2="56.0765" gradientUnits="userSpaceOnUse">
<stop stop-color="#6350FB"/>
<stop offset="0.5" stop-color="#3D8FFF"/>
<stop offset="1" stop-color="#9AD8F8"/>
</linearGradient>
</defs>
</svg>
