<svg width="72" height="64" viewBox="0 0 72 64" fill="none" xmlns="http://www.w3.org/2000/svg">
<g clip-path="url(#clip0_8018_4903)">
<path d="M22.7028 54.1119L24.4227 51.8921H37.15L43.7839 60.3678L42.6046 63.2435H26.1917L26.5848 60.3678L22.7028 54.1119Z" fill="#169FCC"/>
<path d="M26.5947 25.2117L32.7402 14.5947H39.9015L72.0003 51.8789L69.5117 63.2436H55.7478L56.6112 60.0535L26.5947 25.2117Z" fill="#14B59A"/>
<path d="M34.0542 12.5774L36.9968 7.13577L45.8247 0L60.9508 11.8587L58.989 13.8608L61.6219 17.5057V21.4073L54.0847 27.5677L41.4366 12.5774H34.0542Z" fill="#1BC263"/>
<path d="M10.6787 36.2884H14.6769L25.1026 27.5676L38.9191 43.6217L35.0221 49.4686H22.2684L13.4623 60.6669L11.4379 63.2435H0V49.5182L10.6787 36.2884Z" fill="#16BDCC"/>
</g>
<defs>
<clipPath id="clip0_8018_4903">
<rect width="72" height="63.2812" fill="white"/>
</clipPath>
</defs>
</svg>
