<svg width="72" height="23" viewBox="0 0 72 23" fill="none" xmlns="http://www.w3.org/2000/svg">
<g clip-path="url(#clip0_7921_15619)">
<path d="M44.7429 4.30036C43.9724 4.30036 43.3479 3.66192 43.3479 2.87436C43.3479 2.08679 43.9724 1.44836 44.7429 1.44836C45.5133 1.44836 46.1379 2.08679 46.1379 2.87436C46.1379 3.66192 45.5133 4.30036 44.7429 4.30036ZM44.7429 0C43.19 0 41.9311 1.2869 41.9311 2.87436V11.4999C41.9311 14.6712 39.407 17.2514 36.3046 17.2514C33.2023 17.2514 30.6783 14.6712 30.6783 11.4999V2.87436C30.6783 1.2869 29.4194 0 27.8665 0C26.3136 0 25.0547 1.2869 25.0547 2.87436V11.4999C25.0547 17.8411 30.1014 23 36.3046 23C42.5079 23 47.5547 17.8411 47.5547 11.4999V2.87436C47.5547 1.2869 46.2958 0 44.7429 0Z" fill="black"/>
<path d="M69.1879 21.5515C68.4175 21.5515 67.7929 20.913 67.7929 20.1255C67.7929 19.3379 68.4175 18.6995 69.1879 18.6995C69.9584 18.6995 70.5829 19.3379 70.5829 20.1255C70.5829 20.913 69.9584 21.5515 69.1879 21.5515ZM56.7732 11.5001L50.3233 18.0932C49.2252 19.2157 49.2252 21.0356 50.3233 22.1581C51.4214 23.2806 53.2018 23.2806 54.2999 22.1581L60.7498 15.565L67.1995 22.1581C68.2976 23.2805 70.0781 23.2806 71.1761 22.1581C72.2743 21.0356 72.2743 19.2157 71.1762 18.0932L64.7263 11.5001L64.7264 11.4999L71.1762 4.90675C72.2743 3.78426 72.2743 1.96436 71.1762 0.841869C70.0781 -0.280623 68.2977 -0.280623 67.1996 0.841869L60.7498 7.43496L54.3 0.841869C53.2019 -0.280577 51.4215 -0.280623 50.3234 0.841869C49.2253 1.96436 49.2253 3.78426 50.3234 4.90675L56.7732 11.4999V11.5001Z" fill="black"/>
<path d="M19.688 21.5522C18.9176 21.5522 18.293 20.9138 18.293 20.1262C18.293 19.3386 18.9176 18.7002 19.688 18.7002C20.4585 18.7002 21.083 19.3386 21.083 20.1262C21.083 20.9138 20.4585 21.5522 19.688 21.5522ZM20.7642 0.219149C19.7136 -0.225763 18.504 0.0201069 17.6999 0.842173L11.25 7.43531L4.80015 0.842173C3.99595 0.0201069 2.78654 -0.225763 1.73583 0.219149C0.685125 0.664015 0 1.71208 0 2.87468V20.1259C0 21.7133 1.25897 23.0002 2.81192 23.0002C4.36487 23.0002 5.62379 21.7133 5.62379 20.1259V9.81392L9.26172 13.5327C10.3599 14.6552 12.1401 14.6552 13.2383 13.5327L16.8763 9.81392V20.1259C16.8763 21.7133 18.1352 23.0002 19.6881 23.0002C21.2411 23.0002 22.5 21.7133 22.5 20.1259V2.87468C22.5 1.71208 21.8149 0.664015 20.7642 0.219149Z" fill="black"/>
</g>
<defs>
<clipPath id="clip0_7921_15619">
<rect width="72" height="23" fill="white"/>
</clipPath>
</defs>
</svg>
