<svg width="72" height="73" viewBox="0 0 72 73" fill="none" xmlns="http://www.w3.org/2000/svg">
<path d="M60 41.7608C59.6425 41.3316 59.1416 41.0465 58.59 40.9582C58.0384 40.87 57.4736 40.9846 57 41.2808L36 56.7008V57.3608C36.303 57.3249 36.6101 57.3536 36.9012 57.445C37.1923 57.5364 37.4607 57.6885 37.6888 57.8911C37.9169 58.0938 38.0994 58.3424 38.2245 58.6207C38.3495 58.8991 38.4141 59.2007 38.4141 59.5058C38.4141 59.8109 38.3495 60.1125 38.2245 60.3909C38.0994 60.6692 37.9169 60.9178 37.6888 61.1205C37.4607 61.3232 37.1923 61.4752 36.9012 61.5666C36.6101 61.658 36.303 61.6867 36 61.6508C36.4872 61.653 36.9616 61.4949 37.35 61.2008L59.58 44.7908C60.0131 44.4277 60.2959 43.9166 60.3735 43.3567C60.4511 42.7968 60.318 42.2281 60 41.7608Z" fill="#669DF6"/>
<path d="M35.9999 61.6508C35.4747 61.5886 34.9906 61.3358 34.6393 60.9405C34.288 60.5451 34.094 60.0347 34.094 59.5058C34.094 58.9769 34.288 58.4665 34.6393 58.0711C34.9906 57.6758 35.4747 57.423 35.9999 57.3608V56.7008L14.9999 41.2808C14.5282 40.9781 13.9616 40.8598 13.4083 40.9483C12.8549 41.0369 12.3535 41.3261 11.9999 41.7608C11.6836 42.2282 11.5571 42.7985 11.6463 43.3558C11.7355 43.913 12.0335 44.4154 12.4799 44.7608L34.7099 61.1708C35.0891 61.4606 35.5526 61.6187 36.0299 61.6208L35.9999 61.6508Z" fill="#AECBFA"/>
<path d="M36.0001 55.1111C35.1279 55.1111 34.2752 55.3697 33.55 55.8543C32.8248 56.3389 32.2596 57.0276 31.9258 57.8335C31.592 58.6393 31.5047 59.526 31.6748 60.3814C31.845 61.2369 32.265 62.0227 32.8817 62.6394C33.4985 63.2562 34.2843 63.6762 35.1397 63.8463C35.9952 64.0165 36.8819 63.9292 37.6877 63.5954C38.4935 63.2616 39.1823 62.6964 39.6669 61.9711C40.1514 61.2459 40.4101 60.3933 40.4101 59.5211C40.4101 58.3515 39.9455 57.2298 39.1184 56.4027C38.2914 55.5757 37.1697 55.1111 36.0001 55.1111ZM36.0001 61.6511C35.5716 61.651 35.1528 61.5236 34.797 61.2849C34.4412 61.0462 34.1644 60.707 34.0018 60.3106C33.8392 59.9142 33.7982 59.4783 33.8841 59.0585C33.9699 58.6387 34.1786 58.2539 34.4837 57.9531C34.7888 57.6522 35.1764 57.4489 35.5974 57.369C36.0183 57.2891 36.4536 57.3361 36.8477 57.5042C37.2418 57.6723 37.577 57.9539 37.8107 58.313C38.0444 58.6721 38.166 59.0926 38.1601 59.5211C38.1601 59.8033 38.104 60.0828 37.9951 60.3432C37.8862 60.6036 37.7266 60.8397 37.5257 61.0379C37.3247 61.2361 37.0863 61.3924 36.8244 61.4976C36.5625 61.6029 36.2823 61.6551 36.0001 61.6511Z" fill="#4285F4"/>
<path d="M18.0004 18.4211C17.406 18.4133 16.8382 18.1738 16.418 17.7535C15.9977 17.3332 15.7581 16.7654 15.7504 16.1711V10.5311C15.7135 10.2118 15.7447 9.88825 15.8417 9.5818C15.9387 9.27534 16.0994 8.99287 16.3133 8.75291C16.5272 8.51295 16.7894 8.32093 17.0828 8.18944C17.3761 8.05796 17.6939 7.98999 18.0154 7.98999C18.3368 7.98999 18.6546 8.05796 18.9479 8.18944C19.2413 8.32093 19.5035 8.51295 19.7174 8.75291C19.9313 8.99287 20.092 9.27534 20.189 9.5818C20.286 9.88825 20.3172 10.2118 20.2804 10.5311V16.1711C20.2725 16.7706 20.0288 17.3428 19.602 17.7639C19.1753 18.1851 18.5999 18.4211 18.0004 18.4211Z" fill="#AECBFA"/>
<path d="M17.9399 38.3708C19.1991 38.3708 20.2199 37.35 20.2199 36.0908C20.2199 34.8316 19.1991 33.8108 17.9399 33.8108C16.6807 33.8108 15.6599 34.8316 15.6599 36.0908C15.6599 37.35 16.6807 38.3708 17.9399 38.3708Z" fill="#AECBFA"/>
<path d="M17.9399 31.7409C19.1991 31.7409 20.2199 30.7201 20.2199 29.4609C20.2199 28.2017 19.1991 27.1809 17.9399 27.1809C16.6807 27.1809 15.6599 28.2017 15.6599 29.4609C15.6599 30.7201 16.6807 31.7409 17.9399 31.7409Z" fill="#AECBFA"/>
<path d="M17.9399 25.081C19.1991 25.081 20.2199 24.0602 20.2199 22.801C20.2199 21.5418 19.1991 20.521 17.9399 20.521C16.6807 20.521 15.6599 21.5418 15.6599 22.801C15.6599 24.0602 16.6807 25.081 17.9399 25.081Z" fill="#AECBFA"/>
<path d="M54 25.0206C53.4005 25.0127 52.8283 24.769 52.4072 24.3423C51.986 23.9155 51.7499 23.3401 51.75 22.7406V17.1006C51.75 16.5038 51.9871 15.9316 52.409 15.5096C52.831 15.0876 53.4033 14.8506 54 14.8506C54.5967 14.8506 55.169 15.0876 55.591 15.5096C56.0129 15.9316 56.25 16.5038 56.25 17.1006V22.7406C56.254 23.0386 56.1987 23.3344 56.0874 23.6108C55.9761 23.8873 55.811 24.1389 55.6017 24.351C55.3924 24.5631 55.143 24.7315 54.868 24.8465C54.5931 24.9614 54.298 25.0206 54 25.0206Z" fill="#4285F4"/>
<path d="M54.06 38.4008C55.3192 38.4008 56.34 37.38 56.34 36.1208C56.34 34.8616 55.3192 33.8408 54.06 33.8408C52.8008 33.8408 51.78 34.8616 51.78 36.1208C51.78 37.38 52.8008 38.4008 54.06 38.4008Z" fill="#4285F4"/>
<path d="M54.06 31.6508C55.3192 31.6508 56.34 30.63 56.34 29.3708C56.34 28.1116 55.3192 27.0908 54.06 27.0908C52.8008 27.0908 51.78 28.1116 51.78 29.3708C51.78 30.63 52.8008 31.6508 54.06 31.6508Z" fill="#4285F4"/>
<path d="M54.06 12.8107C55.3192 12.8107 56.34 11.7899 56.34 10.5307C56.34 9.27152 55.3192 8.25073 54.06 8.25073C52.8008 8.25073 51.78 9.27152 51.78 10.5307C51.78 11.7899 52.8008 12.8107 54.06 12.8107Z" fill="#4285F4"/>
<path d="M36 45.0907C35.4057 45.0829 34.8379 44.8434 34.4176 44.4231C33.9973 44.0028 33.7578 43.435 33.75 42.8407V37.1107C33.8141 36.5549 34.0803 36.0421 34.4979 35.6698C34.9156 35.2975 35.4555 35.0918 36.015 35.0918C36.5745 35.0918 37.1144 35.2975 37.5321 35.6698C37.9497 36.0421 38.2159 36.5549 38.28 37.1107V42.7807C38.284 43.0826 38.2279 43.3823 38.1151 43.6624C38.0023 43.9425 37.835 44.1974 37.6229 44.4123C37.4108 44.6272 37.1581 44.7979 36.8795 44.9143C36.6009 45.0308 36.302 45.0907 36 45.0907Z" fill="#669DF6"/>
<path d="M36 51.7206C37.2592 51.7206 38.28 50.6999 38.28 49.4406C38.28 48.1814 37.2592 47.1606 36 47.1606C34.7408 47.1606 33.72 48.1814 33.72 49.4406C33.72 50.6999 34.7408 51.7206 36 51.7206Z" fill="#669DF6"/>
<path d="M36 32.7905C37.2592 32.7905 38.28 31.7697 38.28 30.5105C38.28 29.2513 37.2592 28.2305 36 28.2305C34.7408 28.2305 33.72 29.2513 33.72 30.5105C33.72 31.7697 34.7408 32.7905 36 32.7905Z" fill="#669DF6"/>
<path d="M36 26.1306C37.2592 26.1306 38.28 25.1098 38.28 23.8506C38.28 22.5913 37.2592 21.5706 36 21.5706C34.7408 21.5706 33.72 22.5913 33.72 23.8506C33.72 25.1098 34.7408 26.1306 36 26.1306Z" fill="#669DF6"/>
<path d="M45.0004 31.7109C44.406 31.7031 43.8382 31.4636 43.418 31.0433C42.9977 30.623 42.7581 30.0552 42.7504 29.4609V23.8209C42.7135 23.5016 42.7447 23.178 42.8417 22.8716C42.9387 22.5651 43.0994 22.2827 43.3133 22.0427C43.5272 21.8027 43.7894 21.6107 44.0828 21.4792C44.3761 21.3478 44.6939 21.2798 45.0154 21.2798C45.3368 21.2798 45.6546 21.3478 45.9479 21.4792C46.2413 21.6107 46.5035 21.8027 46.7174 22.0427C46.9313 22.2827 47.092 22.5651 47.189 22.8716C47.286 23.178 47.3172 23.5016 47.2804 23.8209V29.4609C47.2725 30.0604 47.0288 30.6326 46.602 31.0537C46.1753 31.4749 45.5999 31.7109 45.0004 31.7109Z" fill="#4285F4"/>
<path d="M45.03 19.4406C46.2892 19.4406 47.31 18.4198 47.31 17.1606C47.31 15.9014 46.2892 14.8806 45.03 14.8806C43.7708 14.8806 42.75 15.9014 42.75 17.1606C42.75 18.4198 43.7708 19.4406 45.03 19.4406Z" fill="#4285F4"/>
<path d="M45.03 44.9406C46.2892 44.9406 47.31 43.9198 47.31 42.6606C47.31 41.4014 46.2892 40.3806 45.03 40.3806C43.7708 40.3806 42.75 41.4014 42.75 42.6606C42.75 43.9198 43.7708 44.9406 45.03 44.9406Z" fill="#4285F4"/>
<path d="M45.03 38.2807C46.2892 38.2807 47.31 37.2599 47.31 36.0007C47.31 34.7415 46.2892 33.7207 45.03 33.7207C43.7708 33.7207 42.75 34.7415 42.75 36.0007C42.75 37.2599 43.7708 38.2807 45.03 38.2807Z" fill="#4285F4"/>
<path d="M26.9699 44.9406C28.2292 44.9406 29.2499 43.9198 29.2499 42.6606C29.2499 41.4014 28.2292 40.3806 26.9699 40.3806C25.7107 40.3806 24.6899 41.4014 24.6899 42.6606C24.6899 43.9198 25.7107 44.9406 26.9699 44.9406Z" fill="#AECBFA"/>
<path d="M26.9699 26.1306C28.2292 26.1306 29.2499 25.1098 29.2499 23.8506C29.2499 22.5913 28.2292 21.5706 26.9699 21.5706C25.7107 21.5706 24.6899 22.5913 24.6899 23.8506C24.6899 25.1098 25.7107 26.1306 26.9699 26.1306Z" fill="#AECBFA"/>
<path d="M26.9699 19.4406C28.2292 19.4406 29.2499 18.4198 29.2499 17.1606C29.2499 15.9014 28.2292 14.8806 26.9699 14.8806C25.7107 14.8806 24.6899 15.9014 24.6899 17.1606C24.6899 18.4198 25.7107 19.4406 26.9699 19.4406Z" fill="#AECBFA"/>
<path d="M27 38.2811C26.4106 38.2816 25.8439 38.0538 25.4188 37.6454C24.9937 37.2371 24.7432 36.6801 24.72 36.0911V30.3911C24.72 29.7944 24.957 29.2221 25.379 28.8001C25.8009 28.3782 26.3732 28.1411 26.97 28.1411C27.5667 28.1411 28.139 28.3782 28.561 28.8001C28.9829 29.2221 29.22 29.7944 29.22 30.3911V36.0911C29.2045 36.6722 28.9647 37.2248 28.5509 37.6331C28.137 38.0413 27.5813 38.2736 27 38.2811Z" fill="#AECBFA"/>
</svg>
