<svg width="45" height="44" viewBox="0 0 45 44" fill="none" xmlns="http://www.w3.org/2000/svg">
<path d="M16.8521 3.24514C17.5324 2.65551 17.8499 2.38337 18.2127 2.15659C20.5259 0.614471 23.5194 0.614471 25.7873 2.15659C26.1048 2.38337 26.4676 2.65551 27.148 3.24514C27.4201 3.47192 27.5562 3.60799 27.6922 3.6987C28.6447 4.42441 29.7786 4.87797 30.9579 5.0594C31.1393 5.0594 31.3207 5.10475 31.6836 5.10475C32.5907 5.19546 32.9989 5.19546 33.4071 5.28618C36.1285 5.83045 38.2149 7.91685 38.7592 10.6382C38.8499 11.0011 38.8499 11.4546 38.9406 12.3618C38.986 12.7246 38.986 12.906 38.986 13.0875C39.122 14.2667 39.621 15.4006 40.3467 16.3531C40.4374 16.4892 40.5734 16.6253 40.8002 16.8974C41.3899 17.5778 41.662 17.8952 41.8888 18.2581C43.4309 20.5713 43.4309 23.5648 41.8888 25.8326C41.662 26.1501 41.3899 26.513 40.8002 27.1933C40.5734 27.4654 40.4374 27.6015 40.3467 27.7376C39.621 28.6901 39.1674 29.824 38.986 31.0032C38.9406 31.1847 38.9406 31.3661 38.9406 31.7289C38.8499 32.6361 38.8499 33.0443 38.7592 33.4525C38.1695 36.0832 36.0378 38.2149 33.3164 38.7138C32.9536 38.8045 32.5 38.8045 31.5929 38.8952C31.23 38.9406 31.0486 38.9406 30.8672 38.9406C29.6879 39.0767 28.554 39.5756 27.6015 40.3013C27.4654 40.392 27.3294 40.5281 27.0572 40.7549C26.3769 41.3445 26.0594 41.6166 25.6965 41.8434C23.3834 43.3855 20.3899 43.3855 18.122 41.8434C17.8045 41.6166 17.4417 41.3445 16.7613 40.7549C16.4892 40.5281 16.3531 40.392 16.2171 40.3013C15.2646 39.5756 14.1307 39.122 12.9514 38.9406C12.77 38.8952 12.5886 38.8952 12.2257 38.8952C11.3186 38.8045 10.9104 38.8045 10.5022 38.7138C7.91685 38.2149 5.7851 36.0832 5.28618 33.3618C5.19547 32.9989 5.19546 32.5454 5.10475 31.6382C5.0594 31.2754 5.0594 31.094 5.0594 30.9125C4.92333 29.7333 4.42441 28.5994 3.69871 27.6469C3.60799 27.5108 3.47192 27.3747 3.24514 27.1026C2.65551 26.4222 2.38337 26.1047 2.15659 25.7419C0.614471 23.4287 0.614471 20.4352 2.15659 18.1674C2.38337 17.8499 2.65551 17.487 3.24514 16.8067C3.47192 16.5346 3.60799 16.3985 3.69871 16.2624C4.42441 15.3099 4.87797 14.176 5.0594 12.9968C5.0594 12.8153 5.10475 12.6339 5.10475 12.2711C5.19546 11.3639 5.19547 10.9557 5.28618 10.5475C5.7851 7.9622 7.91685 5.83045 10.6382 5.33153C11.0011 5.24082 11.4546 5.24082 12.3618 5.15011C12.7246 5.10475 12.906 5.10475 13.0875 5.10475C14.2667 4.96868 15.4006 4.46976 16.3531 3.74406C16.4438 3.60799 16.5799 3.51728 16.8521 3.24514Z" stroke="#FCFDFD" stroke-width="2"/>
<path d="M14.5 22L19 26.5L28 17.5" stroke="#FCFDFD" stroke-width="2" stroke-linecap="round"/>
</svg>
