<svg width="24" height="24" viewBox="0 0 24 24" fill="none" xmlns="http://www.w3.org/2000/svg"><g clip-path="url(#a)"><path fill-rule="evenodd" clip-rule="evenodd" d="M11.75.734C5.676.734.734 5.676.734 11.75S5.676 22.766 11.75 22.766s11.016-4.942 11.016-11.016S17.824.734 11.75.734m6.65 5.017.299 1.228a2.26 2.26 0 0 1-.431 1.972l-6.483 8.195a2.25 2.25 0 0 1-1.8.874h-.057a2.25 2.25 0 0 1-1.815-.955L4.799 12.47a.355.355 0 0 1 .22-.556l2.187-.434a2.26 2.26 0 0 1 2.11.666l.938.98 7.55-7.542a.355.355 0 0 1 .596.167" fill="#4caf50"/></g><defs><clipPath id="a"><path fill="#fff" d="M0 0h23.5v23.5H0z"/></clipPath></defs></svg>