<svg width="44" height="51" viewBox="0 0 44 51" fill="none" xmlns="http://www.w3.org/2000/svg">
<path d="M7.49201 19.8262H0.341797V41.2767H7.49201V19.8262Z" fill="white"/>
<path d="M21.7394 25.5498C21.3602 26.0575 21.1528 26.6726 21.1528 27.3157C21.1528 28.1097 21.4601 28.8464 22.018 29.4035C22.5759 29.9615 23.3195 30.2687 24.1059 30.2687C24.8928 30.2687 25.6364 29.9615 26.1937 29.4112C27.2452 28.3597 27.3381 26.7082 26.4653 25.5499L21.7394 25.5498Z" fill="white"/>
<path d="M20.3594 36.6973V41.2807H27.5096V36.8257C26.4301 37.2119 25.2793 37.4122 24.1063 37.4122C22.8054 37.4123 21.5324 37.1624 20.3594 36.6973Z" fill="white"/>
<path d="M14.0177 27.3162C14.0177 24.6209 15.061 22.0898 16.9699 20.1807C17.1417 20.0089 17.3135 19.8441 17.4993 19.694V11.25H10.3491V41.2808H17.4993V34.9454C17.3135 34.7953 17.1417 34.6312 16.9699 34.4595C15.0609 32.5504 14.0177 30.0192 14.0177 27.3162Z" fill="white"/>
<path d="M34.6411 35.3841L30.7832 31.6261C31.6057 30.3539 32.0512 28.8722 32.0512 27.3185C32.0512 25.193 31.2251 23.1974 29.726 21.6983C28.2268 20.1991 26.2312 19.373 24.1056 19.373C21.9801 19.373 19.9838 20.1991 18.4854 21.6983C16.9855 23.1974 16.1602 25.193 16.1602 27.3185C16.1602 29.4441 16.9855 31.4404 18.4847 32.9395C19.9839 34.4386 21.9802 35.2647 24.1057 35.2647C25.6593 35.2647 27.1417 34.8185 28.4139 33.996L32.1706 37.8525C32.8709 38.6967 33.9044 38.7469 34.7032 37.9481C35.5027 37.15 35.4853 36.0824 34.6411 35.3841ZM24.1057 31.5828C22.9668 31.5828 21.8957 31.1387 21.0899 30.3336C20.2849 29.5286 19.8414 28.4574 19.8414 27.3185C19.8414 26.1797 20.2849 25.1093 21.0899 24.3041C21.8957 23.499 22.9662 23.0549 24.1057 23.0549C25.2439 23.0549 26.315 23.499 27.1201 24.3041C28.7827 25.9667 28.7827 28.6718 27.1201 30.3343C26.315 31.1394 25.2445 31.5828 24.1057 31.5828Z" fill="white"/>
</svg>
