<svg width="45" height="44" viewBox="0 0 45 44" fill="none" xmlns="http://www.w3.org/2000/svg">
<path d="M5.66699 40.9C5.66699 42.0596 6.61422 43 7.78464 43H35.3141C38.8173 43 41.667 40.174 41.667 36.7C41.667 33.226 38.8173 30.4 35.3141 30.4H18.3729C17.2044 30.4 16.2552 29.4577 16.2552 28.3C16.2552 27.1423 17.2044 26.2 18.3729 26.2H31.0788C32.2492 26.2 33.1964 25.2596 33.1964 24.1C33.1964 22.9404 32.2492 22 31.0788 22H24.7258V17.5018C28.3692 16.5627 31.0788 13.3024 31.0788 9.4C31.0788 4.76824 27.2799 1 22.6082 1C17.9364 1 14.1376 4.76824 14.1376 9.4C14.1376 13.3024 16.8471 16.5627 20.4905 17.5018V22H18.3729C14.8697 22 12.0199 24.826 12.0199 28.3C12.0199 31.774 14.8697 34.6 18.3729 34.6H35.3141C36.4826 34.6 37.4317 35.5423 37.4317 36.7C37.4317 37.8577 36.4826 38.8 35.3141 38.8H7.78464C6.61422 38.8 5.66699 39.7404 5.66699 40.9ZM18.3729 9.4C18.3729 7.0837 20.2735 5.2 22.6082 5.2C24.9429 5.2 26.8435 7.0837 26.8435 9.4C26.8435 11.7163 24.9429 13.6 22.6082 13.6C20.2735 13.6 18.3729 11.7163 18.3729 9.4Z" fill="#2A2D30"/>
</svg>
