<svg width="100" height="100" viewBox="0 0 100 100" fill="none" xmlns="http://www.w3.org/2000/svg">
<g id="Frame 6">
<rect width="100" height="100" fill="#FF5D00" fill-opacity="0.1"/>
<g id="payment-method-svgrepo-com (4) 1">
<g id="Group">
<g id="Group_2">
<g id="Group_3">
<path id="Vector" d="M75.1274 36.4824C75.3168 36.4824 75.3168 36.4824 75.5054 36.4824L72.6647 25.4968C71.9069 22.2755 68.4962 20.3811 65.4652 21.3283L23.4119 32.5051C20.1915 33.2628 18.2971 36.6727 19.2443 39.7037L22.8436 53.3432V45.1974C22.8436 40.2737 26.8218 36.2955 31.7472 36.2955H75.1274V36.4824Z" fill="#FF5D00"/>
<path id="Vector_2" d="M75.1297 39.5132H31.5592C28.3388 39.5132 25.6875 42.1661 25.6875 45.3857V73.0418C25.6875 76.264 28.3396 78.9144 31.5592 78.9144H75.1297C78.3501 78.9144 81.0014 76.2614 81.0014 73.0418V45.3874C81.0031 42.1653 78.3501 39.5132 75.1297 39.5132ZM77.0249 73.0444C77.0249 74.1818 76.0786 74.9379 75.1314 74.9379H31.5609C30.4243 74.9379 29.6674 73.9916 29.6674 73.0435V66.036H77.2152V73.0435L77.0249 73.0444ZM77.0249 52.3957H29.6657V45.3874C29.6657 44.25 30.6129 43.4931 31.5592 43.4931H75.1297C76.2672 43.4931 77.0232 44.4402 77.0232 45.3874L77.0249 52.3957Z" fill="#FF5D00"/>
</g>
</g>
</g>
</g>
</g>
</svg>
