<svg width="80" height="80" viewBox="0 0 80 80" fill="none" xmlns="http://www.w3.org/2000/svg">
<path d="M0 37.1014C0 19.6117 0 10.8668 5.43338 5.43338C10.8668 0 19.6117 0 37.1014 0H42.8986C60.3883 0 69.1332 0 74.5666 5.43338C80 10.8668 80 19.6117 80 37.1014V42.8986C80 60.3883 80 69.1332 74.5666 74.5666C69.1332 80 60.3883 80 42.8986 80H37.1014C19.6117 80 10.8668 80 5.43338 74.5666C0 69.1332 0 60.3883 0 42.8986V37.1014Z" fill="#1B1D1E"/>
<g clip-path="url(#clip0_10900_28536)">
<g clip-path="url(#clip1_10900_28536)">
<path d="M57.26 18.5508H22.7401C20.4264 18.5508 18.5508 20.4264 18.5508 22.7401V57.26C18.5508 59.5737 20.4264 61.4493 22.7401 61.4493H57.26C59.5737 61.4493 61.4493 59.5737 61.4493 57.26V22.7401C61.4493 20.4264 59.5737 18.5508 57.26 18.5508Z" fill="url(#paint0_linear_10900_28536)"/>
<path d="M53.8613 24.1279H44.799C43.6884 24.1279 42.7881 25.0282 42.7881 26.1388V40.8852C42.7881 41.9957 43.6884 42.896 44.799 42.896H53.8613C54.9718 42.896 55.8721 41.9957 55.8721 40.8852V26.1388C55.8721 25.0282 54.9718 24.1279 53.8613 24.1279Z" fill="white"/>
<path d="M35.2011 24.1279H26.1388C25.0282 24.1279 24.1279 25.0282 24.1279 26.1388V51.6098C24.1279 52.7204 25.0282 53.6207 26.1388 53.6207H35.2011C36.3117 53.6207 37.212 52.7204 37.212 51.6098V26.1388C37.212 25.0282 36.3117 24.1279 35.2011 24.1279Z" fill="white"/>
</g>
</g>
<defs>
<linearGradient id="paint0_linear_10900_28536" x1="2163.48" y1="18.5508" x2="2163.48" y2="4308.41" gradientUnits="userSpaceOnUse">
<stop stop-color="#0091E6"/>
<stop offset="1" stop-color="#0079BF"/>
</linearGradient>
<clipPath id="clip0_10900_28536">
<rect width="42.8986" height="42.8986" fill="white" transform="translate(18.5508 18.5508)"/>
</clipPath>
<clipPath id="clip1_10900_28536">
<rect width="42.8985" height="42.8985" fill="white" transform="translate(18.5508 18.5508)"/>
</clipPath>
</defs>
</svg>
