<svg width="76" height="80" viewBox="0 0 76 80" fill="none" xmlns="http://www.w3.org/2000/svg">
<path d="M47.8064 74.1351L41.7173 70.4103C38.8017 68.7431 37.0081 68.8815 34.0496 70.6079L21.0444 78.6283C20.4541 78.9948 19.7853 79.3084 19.2251 79.7083L19.1451 79.7665C19.0488 78.6219 19.1271 77.4117 19.1271 76.2611L19.1259 69.0901C19.1211 64.1463 18.8719 62.6105 14.0137 61.3319C8.58074 59.902 4.38196 58.3591 5.25504 51.6914L5.70629 49.1691C5.85088 48.382 6.10273 47.4443 6.00572 46.6481L5.99294 46.5547C5.59768 43.4537 1.07846 41.5288 0.555233 37.4607L0.542539 37.3664C-0.0129486 32.914 5.03967 30.8598 5.91544 27.3846C6.65771 24.4389 3.72711 20.6939 5.89627 16.6254C7.27507 14.0396 10.0966 13.0521 12.7516 12.3439C17.0077 11.2085 17.5681 11.1908 19.5367 7.2204C21.2381 3.78864 22.4721 0.522913 26.8111 0.0554145C28.8167 -0.215084 31.1799 0.771858 32.9366 1.63933C38.0498 4.16419 38.5028 3.88039 43.5603 1.4258C48.554 -0.997782 52.3876 -0.523172 55.0284 4.33662L56.7298 7.67311C58.2515 10.6549 59.1617 11.2733 62.4133 12.0846C67.5184 13.3583 71.7481 15.3718 70.9371 21.5263C70.7061 23.2796 69.7932 25.5718 70.1488 27.2838C70.9085 30.941 75.8536 32.5193 75.4842 37.382C75.3008 39.7967 73.4239 41.6571 71.8939 43.3571C69.8703 45.6055 69.8387 46.3554 70.3648 49.2084C71.5993 55.9043 70.87 59.0088 63.2946 61.0739C59.5232 62.102 56.9509 62.53 56.9477 67.1709L56.9346 79.7868L47.8064 74.1351ZM36.8192 12.8318C23.685 13.6799 13.6539 25.2291 14.5065 38.3074C15.3273 50.8982 26.8296 60.815 39.3879 60.0902C50.128 59.373 59.0214 51.7832 61.2401 41.1331C64.0187 27.7954 54.1481 14.6485 40.7573 12.9445L36.8192 12.8318Z" fill="#FF5D00"/>
<path d="M39.1118 57.1633C37.8248 57.1751 36.5398 57.1999 35.2599 57.0387C25.9292 55.8641 18.237 47.7511 17.4612 38.4251C16.4777 26.6027 25.3499 16.587 37.0761 15.6786C47.9549 15.2934 57.9281 23.8261 58.6734 34.8013C59.3654 44.992 53.0614 54.1365 42.9362 56.6189C41.6697 56.9293 40.4096 57.0805 39.1118 57.1633ZM38.0292 24.2648C36.8218 24.472 36.6651 25.4728 36.1967 26.4452L34.4801 29.7235C34.2182 30.2117 33.9544 30.8464 33.6035 31.2651L28.3862 31.8441C27.7258 31.9122 26.9561 31.8827 26.3159 32.041C25.3379 32.2827 24.9556 33.4187 25.5931 34.1695C26.0772 34.7394 26.7221 35.2212 27.2773 35.7225L30.3837 38.6316C31.1203 39.3609 31.0384 39.1828 30.8868 40.1937L30.0248 45.4635C29.8894 46.3419 29.7558 46.8994 30.5572 47.4683C31.4723 48.1183 32.5873 47.1352 33.379 46.6909L37.6901 44.3137C37.8569 44.2194 37.9657 44.0859 38.1664 44.1614L42.0051 46.2181C42.5791 46.5336 44.4979 47.8274 45.1632 47.6216C46.8878 47.0883 46.0223 45.1572 45.802 43.9118L45.2834 40.6222C45.0453 39.2061 44.9283 39.3946 45.9621 38.4064L49.6175 35.117C50.2453 34.5811 51.2291 33.8961 50.824 32.938C50.3001 31.6995 48.7384 31.9509 47.6558 31.829L43.8114 31.4358C42.6083 31.2884 42.5549 31.3858 41.9372 30.3249L40.1332 26.8405C39.6377 25.8221 39.3546 24.3517 38.0292 24.2648Z" fill="#FF5D00"/>
</svg>
