<svg width="74" height="74" viewBox="0 0 74 74" fill="none" xmlns="http://www.w3.org/2000/svg">
<g clip-path="url(#clip0_21849_63409)">
<path d="M37 74C56.872 74 73 57.424 73 37C73 16.576 56.872 0 37 0C17.128 0 1 16.576 1 37C1 57.424 17.128 74 37 74ZM37 64.232C22.312 64.232 10.504 52.096 10.504 37C10.504 21.904 22.312 9.76801 37 9.76801C51.688 9.76801 63.496 21.904 63.496 37C63.496 52.096 51.688 64.232 37 64.232ZM45.928 35.52C50.0635 35.52 53.416 32.0744 53.416 27.824C53.416 23.5736 50.0635 20.128 45.928 20.128C41.7925 20.128 38.44 23.5736 38.44 27.824C38.44 32.0744 41.7925 35.52 45.928 35.52ZM28.072 35.52C32.2075 35.52 35.56 32.0744 35.56 27.824C35.56 23.5736 32.2075 20.128 28.072 20.128C23.9365 20.128 20.584 23.5736 20.584 27.824C20.584 32.0744 23.9365 35.52 28.072 35.52ZM45.928 53.872C50.0635 53.872 53.416 50.4264 53.416 46.176C53.416 41.9256 50.0635 38.48 45.928 38.48C41.7925 38.48 38.44 41.9256 38.44 46.176C38.44 50.4264 41.7925 53.872 45.928 53.872ZM28.072 53.872C32.2075 53.872 35.56 50.4264 35.56 46.176C35.56 41.9256 32.2075 38.48 28.072 38.48C23.9365 38.48 20.584 41.9256 20.584 46.176C20.584 50.4264 23.9365 53.872 28.072 53.872Z" fill="#F12E45"/>
</g>
<defs>
<clipPath id="clip0_21849_63409">
<rect width="72" height="74" fill="white" transform="translate(1)"/>
</clipPath>
</defs>
</svg>
