<svg width="72" height="73" viewBox="0 0 72 73" fill="none" xmlns="http://www.w3.org/2000/svg">
<circle cx="36" cy="36.3657" r="33.5455" stroke="white" stroke-width="4.90909"/>
<path d="M68.6263 0H3.37371C1.51046 0 0 1.51046 0 3.37371V68.6263C0 70.4895 1.51046 72 3.37371 72H68.6263C70.4895 72 72 70.4895 72 68.6263V3.37371C72 1.51046 70.4895 0 68.6263 0Z" fill="#3178C6"/>
<path fill-rule="evenodd" clip-rule="evenodd" d="M41.7729 55.9516V63.8407C43.2063 64.5482 44.7339 65.0461 46.3089 65.3193C48.129 65.6553 49.9764 65.8206 51.8272 65.813C53.631 65.8216 55.4307 65.6397 57.1963 65.2704C58.7816 64.9501 60.2941 64.3399 61.6578 63.4704C62.9238 62.6532 63.9672 61.5346 64.6946 60.215C65.9974 57.4824 66.1692 54.3461 65.1729 51.4876C64.7525 50.4186 64.126 49.4426 63.3292 48.6153C62.4739 47.7355 61.5023 46.9767 60.4415 46.3601C59.2202 45.6448 57.9512 45.0142 56.6435 44.4727C55.6149 44.0458 54.6892 43.631 53.8663 43.2281C53.1355 42.8782 52.4361 42.4661 51.7758 41.9964C51.2586 41.6339 50.8095 41.183 50.4489 40.6644C50.1374 40.1936 49.9752 39.6397 49.9835 39.0753C49.9766 38.5557 50.1214 38.0455 50.4001 37.607C50.7027 37.148 51.1065 36.7645 51.5803 36.4858C52.1596 36.1448 52.7899 35.8991 53.4472 35.7581C54.2541 35.5789 55.0789 35.4926 55.9055 35.501C56.6006 35.5034 57.2948 35.5532 57.9832 35.6501C58.7266 35.7506 59.4621 35.9027 60.1843 36.1053C60.919 36.3089 61.6376 36.5667 62.3341 36.8767C63.0099 37.178 63.6564 37.5412 64.2652 37.9618V30.5998C62.9978 30.1203 61.6834 29.7756 60.3438 29.5713C58.7261 29.3359 57.0927 29.225 55.4581 29.2396C53.6712 29.2299 51.8896 29.4328 50.1506 29.8438C48.5788 30.203 47.0843 30.8414 45.7381 31.7287C44.4875 32.5618 43.4549 33.6825 42.7269 34.997C41.9554 36.4567 41.5737 38.0908 41.6186 39.7413C41.5617 41.9239 42.2806 44.0559 43.6475 45.7584C45.3245 47.646 47.4393 49.0932 49.8061 49.973C50.8861 50.4187 51.8932 50.855 52.8275 51.2818C53.6704 51.6569 54.4807 52.1016 55.2498 52.6113C55.8701 53.0148 56.4149 53.5239 56.8595 54.1156C57.2504 54.6522 57.4578 55.3005 57.4509 55.9644C57.4545 56.4619 57.3267 56.9515 57.0806 57.3838C56.8072 57.8484 56.4229 58.238 55.9621 58.5178C55.3854 58.8694 54.7546 59.1231 54.0952 59.2687C53.2362 59.4607 52.3576 59.5514 51.4775 59.5387C49.7503 59.5355 48.0368 59.231 46.4143 58.6387C44.7193 58.027 43.1474 57.117 41.7729 55.9516ZM28.5198 36.311H38.8055V29.813H10.1263V36.311H20.3658V65.2498H28.5198V36.311Z" fill="white"/>
</svg>
