<svg width="60" height="60" viewBox="0 0 60 60" fill="none" xmlns="http://www.w3.org/2000/svg">
<path d="M60 30C60 46.5685 46.5685 60 30 60C13.4315 60 0 46.5685 0 30C0 13.4315 13.4315 0 30 0C46.5685 0 60 13.4315 60 30Z" fill="#121314"/>
<path fill-rule="evenodd" clip-rule="evenodd" d="M49.8426 37.7665C49.8378 37.8641 49.7807 37.945 49.6902 37.9832L43.7529 40.4947C43.6767 40.5281 43.5982 40.5233 43.5291 40.4828C43.4576 40.4423 43.4148 40.3757 43.4053 40.2947L42.6101 33.8956C42.5982 33.798 42.6411 33.7099 42.7221 33.6551C42.803 33.6003 42.903 33.5979 42.9863 33.648L44.8979 34.7503C46.5192 28.2653 43.741 21.1924 37.6845 17.6928C31.6257 14.1956 24.1099 15.3288 19.3034 19.9735L16.3967 18.2951C22.1745 12.1244 31.6925 10.4793 39.3082 14.8788C46.9262 19.2759 50.2616 28.3391 47.8071 36.4285L49.7188 37.5332C49.8021 37.5831 49.8497 37.6689 49.8426 37.7665ZM22.3174 44.3109C16.2586 40.8113 13.4827 33.7383 15.1016 27.2535L17.0133 28.3557C17.0966 28.4057 17.1966 28.4033 17.2775 28.3486C17.3584 28.2938 17.4013 28.2057 17.3894 28.1081L16.5966 21.7089C16.5847 21.628 16.5419 21.5637 16.4728 21.5209C16.4014 21.4804 16.3228 21.4756 16.2467 21.5089L10.3093 24.0206C10.2188 24.0587 10.1617 24.1396 10.157 24.2373C10.1498 24.3349 10.1974 24.423 10.2831 24.4706L12.1924 25.5752C9.73795 33.6647 13.0732 42.7279 20.6914 47.1249C28.3072 51.5244 37.825 49.8793 43.6029 43.7087L40.6961 42.0304C35.8896 46.675 28.3762 47.8082 22.3175 44.311L22.3174 44.3109ZM19.6416 32.2695C19.6011 32.4552 19.4416 32.5838 19.2535 32.5838H18.4679C18.2631 32.5838 18.0941 32.7361 18.0703 32.9386C17.9918 33.648 17.9918 34.3622 18.0703 35.0716C18.0941 35.274 18.2631 35.4263 18.4679 35.4263H19.2535C19.4415 35.4263 19.6011 35.5549 19.6416 35.7406C19.8439 36.6643 20.2082 37.5618 20.7366 38.3855C20.839 38.545 20.8176 38.7474 20.6842 38.8807L20.1272 39.4378C19.9843 39.5806 19.97 39.8091 20.0986 39.9686C20.3176 40.2424 20.5556 40.5091 20.8105 40.7637C21.0652 41.0184 21.3318 41.2565 21.608 41.4756C21.7651 41.6041 21.9936 41.5899 22.1365 41.447L22.6936 40.8923C22.8268 40.7566 23.0316 40.7352 23.1912 40.8375C24.0124 41.366 24.91 41.7303 25.8336 41.9327C26.0193 41.9732 26.1479 42.1327 26.1479 42.3207V43.1063C26.1479 43.311 26.3003 43.4801 26.5027 43.5039C27.2121 43.5825 27.9286 43.5825 28.6357 43.5039C28.8381 43.4801 28.9904 43.311 28.9904 43.1063V42.3207C28.9904 42.1327 29.119 41.9732 29.3047 41.9327C30.2308 41.7303 31.1259 41.366 31.9496 40.8375C32.1091 40.7352 32.3115 40.7566 32.4472 40.8923L33.0018 41.447C33.1447 41.5899 33.3732 41.6041 33.5327 41.4756C33.8064 41.2565 34.0731 41.0185 34.3278 40.7637C34.5825 40.509 34.8206 40.2423 35.0397 39.9686C35.1683 39.8091 35.1563 39.5805 35.0111 39.4378L34.4565 38.8807C34.366 38.7902 34.3256 38.6712 34.3422 38.5522L32.4305 38.5236C32.0377 38.5236 31.6473 38.5022 31.2568 38.4593C30.964 38.426 30.7046 38.3046 30.4975 38.1213C29.6714 38.7093 28.662 39.0569 27.5693 39.0569C24.7791 39.0569 22.5175 36.7953 22.5175 34.0051C22.5175 31.215 24.7791 28.9534 27.5693 28.9534C29.6785 28.9534 31.4831 30.2437 32.2401 32.0792C32.3045 32.0816 32.3663 32.084 32.4306 32.084C33.4662 32.084 34.4137 31.6984 35.1326 31.0603C34.9398 30.5652 34.6969 30.0843 34.4018 29.6248C34.2994 29.4653 34.3209 29.2629 34.4566 29.1296L35.0112 28.5725C35.1564 28.4297 35.1683 28.2012 35.0398 28.0417C34.8207 27.7679 34.5827 27.5012 34.3279 27.2465C34.0732 26.9918 33.8065 26.7537 33.5327 26.5347C33.3733 26.4061 33.1447 26.418 33.0019 26.5632L32.4472 27.1178C32.3115 27.2536 32.1092 27.275 31.9497 27.1726C31.126 26.6441 30.2309 26.2798 29.3048 26.0774C29.1191 26.037 28.9905 25.8775 28.9905 25.687V24.9014C28.9905 24.699 28.8382 24.53 28.6358 24.5062C27.9287 24.4276 27.2122 24.4276 26.5027 24.5062C26.3004 24.53 26.148 24.699 26.148 24.9014V25.6894C26.148 25.8775 26.0194 26.037 25.8337 26.0774C24.91 26.2798 24.0125 26.6441 23.1912 27.1726C23.0318 27.275 22.827 27.2536 22.6936 27.1178L22.1366 26.5632C21.9937 26.418 21.7652 26.4061 21.6081 26.5347C21.3319 26.7537 21.0653 26.9918 20.8105 27.2465C20.5558 27.5012 20.3177 27.7679 20.0987 28.0417C19.9701 28.2012 19.9844 28.4298 20.1272 28.5725L20.6843 29.1296C20.8176 29.2629 20.8391 29.4653 20.7367 29.6248C20.2083 30.4485 19.844 31.346 19.6416 32.2697L19.6416 32.2695ZM33.497 18.4998C32.7875 18.4212 32.0733 18.4212 31.3639 18.4998C31.1616 18.5236 31.0092 18.6926 31.0092 18.8974V19.683C31.0092 19.871 30.8807 20.0306 30.6949 20.0711C29.7713 20.2735 28.8737 20.6377 28.05 21.1662C27.8905 21.2686 27.6881 21.2471 27.5548 21.1138L26.9978 20.5567C26.8549 20.4139 26.6264 20.3996 26.4669 20.5282C26.1931 20.7472 25.9264 20.9853 25.6717 21.24C25.417 21.4948 25.1789 21.7614 24.9599 22.0375C24.8313 22.1947 24.8457 22.4232 24.9884 22.5661L25.5455 23.1231C25.655 23.2326 25.6884 23.3921 25.6383 23.535C26.6739 23.5016 27.7118 23.4303 28.7426 23.5445C29.0355 23.5778 29.2973 23.6993 29.5021 23.8825C30.3282 23.2945 31.3376 22.9469 32.4303 22.9469C35.2204 22.9469 37.482 25.2085 37.482 27.9987C37.482 30.7888 35.2204 33.0504 32.4303 33.0504C30.3234 33.0504 28.5164 31.7601 27.7594 29.9246C27.6975 29.9223 27.6333 29.9198 27.5689 29.9198C26.5333 29.9198 25.5882 30.3055 24.8669 30.9435C25.0597 31.4387 25.3026 31.9196 25.5978 32.379C25.7002 32.5385 25.6788 32.7409 25.5431 32.8766L24.9883 33.4312C24.8455 33.5741 24.8312 33.8026 24.9598 33.9621C25.1788 34.2359 25.4169 34.5025 25.6716 34.7572C25.9264 35.012 26.193 35.25 26.4668 35.4691C26.6263 35.5977 26.8549 35.5857 26.9977 35.4405L27.5547 34.8858C27.688 34.7501 27.8928 34.7287 28.0523 34.8311C28.8735 35.3596 29.7711 35.7238 30.6947 35.9262C30.8804 35.9667 31.009 36.1262 31.009 36.3166V37.1022C31.009 37.3046 31.1614 37.4735 31.3638 37.4974C32.0732 37.576 32.7874 37.576 33.4968 37.4974C33.6992 37.476 33.8515 37.3046 33.8515 37.1022V36.3166C33.8515 36.1261 33.9801 35.9666 34.1658 35.9262C35.0919 35.7238 35.987 35.3596 36.8107 34.8311C36.9702 34.7287 37.1726 34.7501 37.3083 34.8858L37.863 35.4405C38.0058 35.5857 38.2344 35.5977 38.3938 35.4691C38.6676 35.25 38.9343 35.012 39.1889 34.7572C39.4436 34.5025 39.6817 34.2359 39.9008 33.9621C40.0294 33.8026 40.0174 33.5741 39.8722 33.4312L39.3175 32.8741C39.1818 32.7409 39.1604 32.5385 39.2627 32.379C39.7913 31.5552 40.1555 30.6601 40.3579 29.734C40.3984 29.5484 40.5579 29.4198 40.7459 29.4198H41.5339C41.7363 29.4198 41.9053 29.2674 41.9292 29.065C42.0078 28.358 42.0078 27.6414 41.9292 26.932C41.9054 26.7297 41.7363 26.5772 41.5339 26.5772H40.7459C40.5579 26.5772 40.3984 26.4487 40.3579 26.263C40.1555 25.3392 39.7913 24.4418 39.2627 23.6205C39.1604 23.461 39.1818 23.2562 39.3175 23.123L39.8722 22.5659C40.0174 22.423 40.0294 22.1945 39.9008 22.0374C39.6818 21.7612 39.4437 21.4946 39.1889 21.2399C38.9341 20.9851 38.6675 20.747 38.3938 20.528C38.2344 20.3994 38.0058 20.4138 37.863 20.5566L37.3059 21.1136C37.1726 21.2469 36.9702 21.2684 36.8107 21.166C35.987 20.6375 35.0895 20.2733 34.1658 20.0709C33.9801 20.0304 33.8515 19.8709 33.8515 19.6828V18.8972C33.8515 18.6924 33.6992 18.5234 33.4968 18.4996L33.497 18.4998Z" fill="#6981F1"/>
</svg>
