<svg width="60" height="60" viewBox="0 0 60 60" fill="none" xmlns="http://www.w3.org/2000/svg">
<path d="M60 30C60 46.5685 46.5685 60 30 60C13.4315 60 0 46.5685 0 30C0 13.4315 13.4315 0 30 0C46.5685 0 60 13.4315 60 30Z" fill="#121314"/>
<path fill-rule="evenodd" clip-rule="evenodd" d="M29.5015 14.338C21.5962 14.338 16.2488 22.2246 19.1946 29.3503C20.8937 33.4627 24.1248 33.9801 24.6284 38.4529H28.3105V28.723C26.7322 28.4673 25.2888 27.717 24.0844 26.6516C22.9201 25.6228 24.5107 23.8893 25.6751 24.9166C28.0409 27.0063 30.9633 27.0063 33.3275 24.9166C34.4903 23.8893 36.081 25.6243 34.9182 26.6516C33.712 27.717 32.2702 28.4658 30.6921 28.723V38.4544H34.3757C34.878 33.9828 38.1106 33.4627 39.8096 29.3518C42.7522 22.2246 37.4069 14.338 29.5015 14.338ZM34.3602 45.6623C35.9276 45.6623 35.9276 48 34.3602 48H24.6411C23.0737 48 23.0737 45.6623 24.6411 45.6623H34.3602ZM34.3602 42.0584C35.9276 42.0584 35.9276 44.3961 34.3602 44.3961H24.6411C23.0737 44.3961 23.0737 42.0584 24.6411 42.0584H34.3602ZM19.9558 15.8809C25.2269 10.7064 33.7724 10.7064 39.0455 15.8809C44.275 21.0144 44.3151 29.2891 39.182 34.4788C37.5246 36.1529 36.6937 37.2837 36.6937 39.6229C36.6937 40.2682 36.1603 40.7917 35.503 40.7917H23.4986C22.8412 40.7917 22.3079 40.2682 22.3079 39.6229C22.3079 35.1224 19.0676 35.258 16.9887 30.2281C14.9376 25.2605 16.1496 19.6173 19.9558 15.8809Z" fill="#6981F1"/>
</svg>
