<svg width="168" height="27" viewBox="0 0 168 27" fill="none" xmlns="http://www.w3.org/2000/svg">
<path d="M0 26.1595H28.7061V7.94287H0V26.1595Z" fill="#F5FAFE"/>
<path d="M28.7061 1.47056V13.0199C25.4142 11.904 21.4807 10.9555 16.9893 11.4577C10.5172 12.183 6.77899 15.2516 3.40344 18.3482C2.25966 19.2688 1.17168 20.1615 0 21.0263V1.49846C0 1.19159 0.111588 0.912625 0.306868 0.689449C0.530044 0.438377 0.86481 0.270996 1.22747 0.270996H27.5065C27.8692 0.270996 28.2039 0.438377 28.4271 0.689449C28.5945 0.884728 28.7061 1.16369 28.7061 1.47056Z" fill="#A3ACB5"/>
<path d="M15.0647 26.2433H18.5797C17.1012 24.9042 15.3995 23.7605 13.4746 23.2583C11.5776 22.7562 9.59689 22.9515 7.72778 23.3978C6.33293 23.7326 4.99387 24.2068 3.68271 24.8205C3.12477 25.0716 2.56683 25.3506 2.03678 25.6575C2.00888 25.6575 11.2986 22.6725 15.0647 26.2433ZM28.7064 17.0931V20.3291C25.3587 18.6274 22.318 16.2283 18.524 15.5867C14.9531 14.9729 11.2428 16.0051 8.11834 17.7347C6.6398 18.5437 5.21705 19.4922 3.7943 20.4128C3.7943 20.3013 9.76427 13.7176 17.9102 13.7176C24.4381 13.6618 28.1205 17.0931 28.7064 17.0931ZM14.5626 20.3849C10.378 20.3849 4.57541 22.9236 0.920898 24.7369C0.920898 24.6532 1.19987 24.5137 1.22777 24.4579C1.50674 24.2347 1.81361 24.0115 2.12047 23.8163C3.12477 23.1188 4.15696 22.4772 5.21705 21.8635C7.97886 20.3012 10.9917 18.9343 14.172 18.5437C15.79 18.3485 17.3802 18.5159 18.9145 19.018C20.4488 19.5201 21.8995 20.3013 23.2107 21.2218C25.1635 22.5609 26.8652 24.2068 28.4553 25.9643C28.5111 26.048 28.5948 26.1038 28.6506 26.1875V26.2712H24.5218C24.5776 26.2433 20.2257 20.3849 14.5626 20.3849C20.2257 20.3849 10.378 20.3849 14.5626 20.3849ZM56.0734 14.415C56.0734 15.5867 55.906 16.6747 55.5434 17.651C55.1807 18.6274 54.6507 19.4922 53.9532 20.2176C53.2558 20.9429 52.3631 21.5008 51.3309 21.9193C50.2708 22.3377 49.0712 22.533 47.7043 22.533C46.3094 22.533 45.1099 22.3377 44.0498 21.9193C42.9897 21.5008 42.1249 20.9429 41.4274 20.2176C40.73 19.4922 40.2 18.6274 39.8373 17.651C39.4747 16.6747 39.3073 15.5867 39.3073 14.415V2.27986H43.6871V14.2476C43.6871 14.8614 43.7987 15.4193 43.994 15.9493C44.1893 16.4794 44.4682 16.9257 44.8309 17.3163C45.1936 17.7068 45.612 17.9858 46.1142 18.209C46.6163 18.4322 47.1463 18.5437 47.7322 18.5437C48.318 18.5437 48.8481 18.4322 49.3223 18.209C49.7966 17.9858 50.2429 17.7068 50.5777 17.3163C50.9403 16.9257 51.2193 16.4794 51.4146 15.9493C51.6099 15.4193 51.7215 14.8614 51.7215 14.2476V2.27986H56.1013V14.415H56.0734ZM69.4919 7.10602C69.1292 6.65967 68.655 6.32491 68.0413 6.10173C67.4275 5.87856 66.8417 5.76697 66.3116 5.76697C66.0048 5.76697 65.67 5.79487 65.3352 5.87856C65.0005 5.96225 64.6657 6.07383 64.3867 6.24121C64.0799 6.4086 63.8567 6.60388 63.6614 6.88285C63.4661 7.13392 63.3824 7.46868 63.3824 7.83134C63.3824 8.41718 63.6056 8.89142 64.052 9.19829C64.4983 9.50515 65.0563 9.78412 65.7537 10.0073C66.4511 10.2305 67.1764 10.4536 67.9576 10.6768C68.7387 10.9 69.4919 11.2069 70.1614 11.6253C70.8589 12.0438 71.4168 12.5738 71.8632 13.2712C72.3095 13.9687 72.5327 14.8893 72.5327 16.033C72.5327 17.121 72.3374 18.0974 71.9189 18.9064C71.5005 19.7154 70.9426 20.4128 70.2451 20.9429C69.5477 21.4729 68.7387 21.8914 67.7902 22.1424C66.8696 22.3935 65.8932 22.533 64.861 22.533C63.5777 22.533 62.3781 22.3377 61.2623 21.9472C60.1464 21.5566 59.1142 20.915 58.1657 20.0502L61.2902 16.6468C61.7365 17.2326 62.2945 17.7068 62.9919 18.0416C63.6893 18.3764 64.3867 18.5437 65.1121 18.5437C65.4747 18.5437 65.8374 18.488 66.2 18.4043C66.5627 18.3206 66.8975 18.1811 67.1764 18.0137C67.4554 17.8463 67.7065 17.6231 67.8739 17.3721C68.0413 17.121 68.1528 16.8141 68.1528 16.4515C68.1528 15.8656 67.9297 15.3914 67.4554 15.0287C67.0091 14.694 66.4232 14.3871 65.7258 14.136C65.0284 13.885 64.2751 13.6618 63.4661 13.4107C62.6571 13.1596 61.9039 12.8528 61.2065 12.4343C60.509 12.0159 59.9232 11.4858 59.4769 10.8163C59.0305 10.1468 58.7794 9.25408 58.7794 8.1661C58.7794 7.10602 59.0026 6.18542 59.4211 5.37641C59.8395 4.5674 60.3975 3.89788 61.0949 3.36784C61.7923 2.8378 62.6013 2.41935 63.5219 2.14038C64.4425 1.86141 65.391 1.72192 66.3674 1.72192C67.4833 1.72192 68.5713 1.8893 69.6314 2.19617C70.6915 2.50303 71.64 3.03308 72.4769 3.78629L69.4919 7.10602ZM79.8138 10.6489H82.743C83.1336 10.6489 83.5241 10.621 83.8868 10.5373C84.2495 10.4536 84.5842 10.3421 84.8632 10.1468C85.1422 9.9794 85.3932 9.72832 85.5606 9.42146C85.728 9.11459 85.8396 8.72404 85.8396 8.24979C85.8396 7.74765 85.728 7.3292 85.4769 7.02233C85.2537 6.71547 84.9469 6.46439 84.5842 6.29701C84.2215 6.12963 83.8031 6.01804 83.3567 5.96225C82.9104 5.90645 82.464 5.87856 82.0735 5.87856H79.8138V10.6489ZM75.434 2.27986H82.8267C83.8589 2.27986 84.8353 2.36355 85.7559 2.55883C86.6765 2.75411 87.4855 3.06097 88.155 3.53522C88.8525 3.98157 89.3825 4.5953 89.7731 5.37641C90.1636 6.15752 90.3868 7.13391 90.3868 8.30558C90.3868 9.44936 90.1915 10.4258 89.8289 11.2069C89.4662 11.988 88.9362 12.6017 88.2945 13.076C87.625 13.5502 86.8718 13.885 85.9512 14.0802C85.0585 14.2755 84.0821 14.3871 83.022 14.3871H79.8138V22.0867H75.434V2.27986ZM99.2023 8.02661L96.7752 14.1639H101.629L99.2023 8.02661ZM97.5285 2.27986H101.155L109.803 22.0588H104.865L103.164 17.8742H95.4362L93.7903 22.0588H88.9641L97.5285 2.27986ZM120.934 8.02661L118.507 14.1639H123.361L120.934 8.02661ZM119.26 2.27986H122.887L131.535 22.0588H126.597L124.895 17.8742H117.168L115.522 22.0588H110.696L119.26 2.27986ZM145.26 7.41289C144.842 6.88285 144.312 6.49229 143.67 6.21332C143.029 5.93435 142.303 5.79486 141.494 5.79486C140.685 5.79486 139.904 5.96225 139.207 6.26911C138.509 6.57598 137.896 7.02233 137.365 7.60816C136.863 8.1661 136.445 8.86353 136.166 9.64464C135.887 10.4258 135.72 11.2627 135.72 12.1833C135.72 13.1039 135.859 13.9687 136.166 14.7498C136.445 15.5309 136.863 16.2004 137.365 16.7583C137.868 17.3163 138.453 17.7626 139.151 18.0974C139.848 18.4043 140.574 18.5716 141.355 18.5716C142.247 18.5716 143.056 18.3764 143.754 18.0137C144.451 17.651 145.009 17.121 145.456 16.4515L149.11 19.1575C148.273 20.3291 147.185 21.1939 145.902 21.7519C144.619 22.3098 143.28 22.5888 141.913 22.5888C140.35 22.5888 138.928 22.3377 137.617 21.8635C136.305 21.3892 135.162 20.6918 134.213 19.7712C133.265 18.8785 132.511 17.7626 131.981 16.4794C131.451 15.1961 131.172 13.7734 131.172 12.1833C131.172 10.5931 131.451 9.17039 131.981 7.88713C132.511 6.60387 133.265 5.5159 134.213 4.5953C135.162 3.7026 136.305 3.00518 137.617 2.50303C138.928 2.02879 140.35 1.77771 141.913 1.77771C142.471 1.77771 143.056 1.83351 143.67 1.9451C144.284 2.05668 144.87 2.22406 145.484 2.44724C146.069 2.67041 146.627 2.97728 147.185 3.33994C147.715 3.7026 148.217 4.17685 148.636 4.70689L145.26 7.41289ZM163.533 7.41289C163.114 6.88285 162.584 6.49229 161.943 6.21332C161.301 5.93435 160.576 5.79486 159.767 5.79486C158.93 5.79486 158.177 5.96225 157.479 6.26911C156.782 6.57598 156.168 7.02233 155.638 7.60816C155.136 8.1661 154.717 8.86353 154.438 9.64464C154.16 10.4258 153.992 11.2627 153.992 12.1833C153.992 13.1039 154.132 13.9687 154.438 14.7498C154.717 15.5309 155.136 16.2004 155.638 16.7583C156.14 17.3163 156.726 17.7626 157.423 18.0974C158.121 18.4043 158.846 18.5716 159.627 18.5716C160.52 18.5716 161.329 18.3764 162.026 18.0137C162.724 17.651 163.282 17.121 163.728 16.4515L167.383 19.1575C166.546 20.3291 165.458 21.1939 164.175 21.7519C162.891 22.3098 161.552 22.5888 160.185 22.5888C158.623 22.5888 157.2 22.3377 155.889 21.8635C154.578 21.3892 153.434 20.6918 152.486 19.7712C151.537 18.8785 150.784 17.7626 150.254 16.4794C149.724 15.1961 149.445 13.7734 149.445 12.1833C149.445 10.5931 149.724 9.17039 150.254 7.88713C150.784 6.60387 151.537 5.5159 152.486 4.5953C153.434 3.7026 154.578 3.00518 155.889 2.50303C157.2 2.02879 158.623 1.77771 160.185 1.77771C160.743 1.77771 161.329 1.83351 161.943 1.9451C162.557 2.05668 163.142 2.22406 163.756 2.44724C164.342 2.67041 164.9 2.97728 165.458 3.33994C165.988 3.7026 166.49 4.17685 166.908 4.70689L163.533 7.41289Z" fill="#A3ACB5"/>
</svg>
