<svg xmlns="http://www.w3.org/2000/svg" width="288" height="126" viewBox="0 0 288 126" fill="none"><path fill-rule="evenodd" clip-rule="evenodd" d="M75.5652 62.6889V48.3799C75.5652 47.9997 75.427 47.6541 75.2196 47.4121C74.9431 47.1011 74.5283 46.8937 74.079 46.8937H41.5208C41.0715 46.8937 40.6567 47.1011 40.3802 47.4121C40.1383 47.6886 40 48.0343 40 48.4144V72.6085C41.2307 71.7001 42.3868 70.7669 43.5737 69.8089C43.7869 69.6369 44.001 69.464 44.2167 69.2904C48.3988 65.4539 53.0302 61.652 61.0488 60.7534C66.6134 60.1313 71.4868 61.3064 75.5652 62.6889ZM63.0192 79.0717H58.6643C53.9983 74.6477 42.4888 78.3459 42.5234 78.3459C43.1801 77.9657 43.8714 77.6201 44.5626 77.309C46.1871 76.5486 47.8461 75.9611 49.5742 75.5463C51.89 74.9933 54.3439 74.7514 56.6942 75.3735C59.079 75.9956 61.1874 77.4127 63.0192 79.0717ZM75.5655 71.7444V67.7351C75.3991 67.7351 75.031 67.5116 74.465 67.168C72.5623 66.0128 68.4231 63.4997 62.1897 63.553C52.0973 63.553 44.7009 71.7098 44.7009 71.8481C44.9424 71.6918 45.1839 71.5349 45.4255 71.3779C46.9479 70.3888 48.4773 69.3951 50.0581 68.5301C53.9292 66.3872 58.526 65.1083 62.9501 65.8687C66.3102 66.437 69.1934 68.1178 72.0795 69.8004C73.2309 70.4716 74.3828 71.1432 75.5655 71.7444ZM41.1409 77.2053C45.6686 74.9587 52.8577 71.8135 58.0421 71.8135C65.0584 71.8135 70.4502 79.0717 70.3811 79.1063H75.4964V79.0026C75.4618 78.9508 75.4186 78.9076 75.3754 78.8643C75.3322 78.8211 75.289 78.7779 75.2545 78.7261C73.2844 76.5486 71.176 74.5094 68.7566 72.8504C67.1322 71.7098 65.3349 70.7421 63.434 70.1199C61.533 69.4978 59.5629 69.2904 57.5583 69.5324C53.6181 70.0163 49.8853 71.7098 46.4636 73.6454C45.1502 74.4057 43.8714 75.2007 42.6271 76.0648C42.2469 76.3067 41.8667 76.5832 41.5211 76.8597C41.5074 76.8872 41.4446 76.931 41.3738 76.9803C41.2665 77.0552 41.1409 77.1428 41.1409 77.2053ZM108.815 68.4264C109.264 67.2167 109.472 65.8687 109.472 64.4171H109.506V49.3822H104.08V64.2097C104.08 64.9701 103.942 65.6613 103.7 66.318C103.458 66.9747 103.112 67.5277 102.663 68.0116C102.248 68.4955 101.695 68.8411 101.108 69.1176C100.52 69.3941 99.8632 69.5324 99.1374 69.5324C98.4116 69.5324 97.7549 69.3941 97.1328 69.1176C96.5106 68.8411 95.9922 68.4955 95.5429 68.0116C95.0936 67.5277 94.7479 66.9747 94.506 66.318C94.2641 65.6613 94.1258 64.9701 94.1258 64.2097V49.3822H88.6994V64.4171C88.6994 65.8687 88.9068 67.2167 89.3561 68.4264C89.8054 69.6361 90.4621 70.7075 91.3262 71.6061C92.1903 72.5048 93.2617 73.196 94.5751 73.7145C95.8885 74.2329 97.3747 74.4749 99.1029 74.4749C100.796 74.4749 102.283 74.2329 103.596 73.7145C104.875 73.196 105.981 72.5048 106.845 71.6061C107.709 70.7075 108.366 69.6361 108.815 68.4264ZM124.299 54.1173C125.06 54.3938 125.647 54.8086 126.096 55.3616L129.795 51.2486C128.758 50.3154 127.583 49.6587 126.269 49.2785C124.956 48.8983 123.608 48.691 122.225 48.691C121.016 48.691 119.841 48.8638 118.7 49.2094C117.559 49.555 116.557 50.0735 115.693 50.7302C114.829 51.3869 114.138 52.2164 113.619 53.2187C113.101 54.221 112.824 55.3616 112.824 56.675C112.824 58.0229 113.135 59.1289 113.688 59.9584C114.241 60.788 114.967 61.4447 115.831 61.9631C116.695 62.4815 117.629 62.8617 118.631 63.1728C118.824 63.2326 119.014 63.2911 119.201 63.3488C119.989 63.5914 120.732 63.8202 121.43 64.0714C122.295 64.3825 123.02 64.7627 123.573 65.1774C124.161 65.6268 124.437 66.2143 124.437 66.9402C124.437 67.3895 124.299 67.7697 124.092 68.0807C123.884 68.3918 123.573 68.6683 123.228 68.8757C122.882 69.0831 122.467 69.2559 122.018 69.3596C121.569 69.4632 121.119 69.5324 120.67 69.5324C119.771 69.5324 118.907 69.325 118.043 68.9102C117.179 68.4955 116.488 67.9079 115.935 67.1821L112.064 71.3988C113.239 72.4702 114.518 73.2652 115.9 73.749C117.283 74.2329 118.769 74.4749 120.359 74.4749C121.638 74.4749 122.848 74.302 123.988 73.991C125.163 73.6799 126.166 73.1615 127.03 72.5048C127.894 71.8481 128.585 70.984 129.103 69.9817C129.622 68.9794 129.864 67.7697 129.864 66.4217C129.864 65.0046 129.587 63.8641 129.034 63C128.481 62.1359 127.79 61.4792 126.926 60.9608C126.096 60.4423 125.163 60.0621 124.196 59.7856C123.228 59.5091 122.329 59.2326 121.465 58.9561C120.601 58.6796 119.91 58.334 119.357 57.9538C118.804 57.5736 118.527 56.986 118.527 56.2602C118.527 55.8109 118.631 55.3962 118.873 55.0851C119.115 54.7395 119.391 54.4975 119.771 54.2901C120.117 54.0828 120.532 53.9445 120.947 53.8408C121.361 53.7371 121.776 53.7026 122.156 53.7026C122.813 53.7026 123.539 53.8408 124.299 54.1173ZM142.514 59.7511H138.885V53.8408H141.684C142.168 53.8408 142.721 53.8754 143.274 53.9445C143.827 54.0136 144.346 54.1519 144.795 54.3593C145.244 54.5666 145.625 54.8777 145.901 55.2579C146.212 55.6381 146.35 56.1565 146.35 56.7787C146.35 57.3662 146.212 57.8501 146.005 58.2303C145.797 58.6105 145.486 58.9216 145.141 59.1289C144.795 59.3709 144.38 59.5091 143.931 59.6128C143.482 59.7165 142.998 59.7511 142.514 59.7511ZM142.618 49.3822H133.458V73.9219H138.885V64.3825H142.859C144.173 64.3825 145.383 64.2443 146.489 64.0023C147.629 63.7604 148.562 63.3456 149.392 62.758C150.187 62.1705 150.843 61.4101 151.293 60.4423C151.742 59.4746 151.984 58.2649 151.984 56.8478C151.984 55.3961 151.708 54.1864 151.224 53.2187C150.74 52.2509 150.083 51.4905 149.219 50.9375C148.39 50.35 147.387 49.9698 146.247 49.7278C145.106 49.4859 143.896 49.3822 142.618 49.3822ZM159.899 64.106L162.906 56.5022L165.913 64.106H159.899ZM165.325 49.3822H160.832L150.221 73.8873H156.201L158.24 68.7029H167.814L169.922 73.8873H176.04L165.325 49.3822ZM186.823 64.106L189.83 56.5022L192.837 64.106H186.823ZM192.25 49.3822H187.757L177.146 73.8873H183.125L185.164 68.7029H194.738L196.847 73.8873H202.964L192.25 49.3822ZM217.999 54.2556C218.794 54.6012 219.451 55.0851 219.969 55.7418L224.151 52.3892C223.633 51.7325 223.011 51.1449 222.354 50.6956C221.663 50.2463 220.972 49.8661 220.246 49.5896C219.485 49.3131 218.76 49.1057 217.999 48.9675C217.239 48.8292 216.513 48.7601 215.822 48.7601C213.886 48.7601 212.124 49.0711 210.499 49.6587C208.875 50.2808 207.458 51.1449 206.282 52.2509C205.107 53.3915 204.174 54.7395 203.517 56.3293C202.861 57.9192 202.515 59.682 202.515 61.652C202.515 63.6221 202.861 65.3848 203.517 66.9747C204.174 68.5646 205.107 69.9471 206.282 71.0531C207.458 72.1937 208.875 73.0578 210.499 73.6454C212.124 74.2329 213.886 74.544 215.822 74.544C217.515 74.544 219.174 74.1984 220.764 73.5071C222.354 72.8158 223.702 71.7444 224.739 70.2928L220.211 66.9402C219.658 67.7697 218.967 68.4264 218.103 68.8757C217.239 69.325 216.237 69.5669 215.13 69.5669C214.163 69.5669 213.264 69.3596 212.4 68.9794C211.536 68.5646 210.81 68.0116 210.188 67.3203C209.566 66.6291 209.047 65.7996 208.702 64.8318C208.322 63.8641 208.149 62.7926 208.149 61.652C208.149 60.5115 208.356 59.4746 208.702 58.5068C209.047 57.5391 209.566 56.675 210.188 55.9837C210.845 55.2579 211.605 54.7049 212.469 54.3247C213.333 53.9445 214.301 53.7371 215.303 53.7371C216.306 53.7371 217.204 53.9099 217.999 54.2556ZM240.638 54.2556C241.433 54.6012 242.09 55.0851 242.608 55.7418L246.79 52.3892C246.272 51.7325 245.65 51.1449 244.993 50.6956C244.302 50.2463 243.61 49.8661 242.884 49.5896C242.124 49.3131 241.398 49.1057 240.638 48.9675C239.878 48.8292 239.152 48.7601 238.46 48.7601C236.525 48.7601 234.762 49.0711 233.138 49.6587C231.513 50.2808 230.096 51.1449 228.921 52.2509C227.746 53.3915 226.813 54.7395 226.156 56.3293C225.499 57.9192 225.154 59.682 225.154 61.652C225.154 63.6221 225.499 65.3848 226.156 66.9747C226.813 68.5646 227.746 69.9471 228.921 71.0531C230.096 72.1937 231.513 73.0578 233.138 73.6454C234.762 74.2329 236.525 74.544 238.46 74.544C240.154 74.544 241.813 74.1984 243.403 73.5071C244.993 72.8158 246.341 71.7444 247.378 70.2928L242.85 66.9402C242.297 67.7697 241.606 68.4264 240.742 68.8757C239.878 69.325 238.875 69.5669 237.769 69.5669C236.801 69.5669 235.903 69.3596 235.039 68.9794C234.175 68.5646 233.449 68.0116 232.827 67.3203C232.205 66.6291 231.686 65.7996 231.34 64.8318C230.96 63.8641 230.787 62.7926 230.787 61.652C230.787 60.5115 230.995 59.4746 231.34 58.5068C231.686 57.5391 232.205 56.675 232.827 55.9837C233.483 55.2579 234.244 54.7049 235.108 54.3247C235.972 53.9445 236.905 53.7371 237.942 53.7371C238.944 53.7371 239.843 53.9099 240.638 54.2556Z" fill="#E8E8E8"></path></svg>