<svg width="127" height="51" viewBox="0 0 127 51" fill="none" xmlns="http://www.w3.org/2000/svg">
<g clip-path="url(#clip0_5224_19472)">
<path d="M40 0.787109H50L25 50.7419L0 0.787109H9.875H19.125L25 12.3708L30.75 0.787109H40Z" fill="#41B883"/>
<path d="M0 0.787109L25 50.7419L50 0.787109H40L25 30.76L9.875 0.787109H0Z" fill="#41B883"/>
<path d="M9.875 0.787109L25 30.9048L40 0.787109H30.75L25 12.3708L19.125 0.787109H9.875Z" fill="#35495E"/>
</g>
<path d="M72.358 18.2417L76.6761 30.486H76.8466L81.1648 18.2417H83.0114L77.6705 32.7871H75.8523L70.5114 18.2417H72.358ZM91.9247 28.3269V21.878H93.6009V32.7871H91.9247V30.9405H91.8111C91.5554 31.4945 91.1577 31.9656 90.6179 32.3539C90.0781 32.7374 89.3963 32.9292 88.5724 32.9292C87.8906 32.9292 87.2846 32.78 86.7543 32.4817C86.224 32.1787 85.8073 31.7241 85.5043 31.1181C85.2012 30.5073 85.0497 29.7379 85.0497 28.8098V21.878H86.7259V28.6962C86.7259 29.4917 86.9484 30.1261 87.3935 30.5996C87.8433 31.0731 88.4162 31.3098 89.1122 31.3098C89.5289 31.3098 89.9527 31.2033 90.3835 30.9902C90.8191 30.7772 91.1837 30.4505 91.4773 30.0101C91.7756 29.5698 91.9247 29.0087 91.9247 28.3269ZM101.245 33.0144C100.194 33.0144 99.2868 32.7824 98.5245 32.3184C97.7669 31.8496 97.1822 31.1962 96.7702 30.3581C96.363 29.5153 96.1594 28.5352 96.1594 27.4178C96.1594 26.3004 96.363 25.3155 96.7702 24.4632C97.1822 23.6062 97.7551 22.9386 98.489 22.4604C99.2276 21.9775 100.089 21.736 101.074 21.736C101.642 21.736 102.203 21.8307 102.757 22.0201C103.311 22.2095 103.816 22.5172 104.27 22.9434C104.725 23.3648 105.087 23.9235 105.357 24.6195C105.627 25.3155 105.762 26.1725 105.762 27.1905V27.9007H97.3526V26.4519H104.057C104.057 25.8364 103.934 25.2871 103.688 24.8042C103.446 24.3212 103.101 23.94 102.651 23.6607C102.206 23.3813 101.68 23.2417 101.074 23.2417C100.407 23.2417 99.829 23.4074 99.3413 23.7388C98.8583 24.0655 98.4866 24.4917 98.2262 25.0172C97.9658 25.5428 97.8356 26.1062 97.8356 26.7076V27.6735C97.8356 28.4973 97.9776 29.1957 98.2617 29.7686C98.5505 30.3368 98.9506 30.7701 99.462 31.0684C99.9734 31.3619 100.568 31.5087 101.245 31.5087C101.685 31.5087 102.083 31.4471 102.438 31.324C102.798 31.1962 103.108 31.0068 103.368 30.7559C103.629 30.5002 103.83 30.1829 103.972 29.8042L105.591 30.2587C105.421 30.8079 105.134 31.2909 104.732 31.7076C104.329 32.1195 103.832 32.4415 103.24 32.6735C102.649 32.9007 101.983 33.0144 101.245 33.0144ZM109.533 32.9007C109.183 32.9007 108.882 32.7753 108.631 32.5243C108.38 32.2734 108.255 31.9727 108.255 31.6223C108.255 31.272 108.38 30.9713 108.631 30.7203C108.882 30.4694 109.183 30.3439 109.533 30.3439C109.883 30.3439 110.184 30.4694 110.435 30.7203C110.686 30.9713 110.811 31.272 110.811 31.6223C110.811 31.8543 110.752 32.0674 110.634 32.2615C110.52 32.4557 110.366 32.6119 110.172 32.7303C109.983 32.8439 109.77 32.9007 109.533 32.9007ZM113.819 21.878H115.495V33.5826C115.495 34.2549 115.379 34.8373 115.147 35.3297C114.92 35.8221 114.574 36.2033 114.11 36.4732C113.651 36.7431 113.071 36.878 112.37 36.878C112.314 36.878 112.257 36.878 112.2 36.878C112.143 36.878 112.086 36.878 112.029 36.878V35.3155C112.086 35.3155 112.138 35.3155 112.186 35.3155C112.233 35.3155 112.285 35.3155 112.342 35.3155C112.853 35.3155 113.227 35.164 113.464 34.861C113.701 34.5627 113.819 34.1365 113.819 33.5826V21.878ZM114.643 20.0598C114.316 20.0598 114.035 19.9486 113.798 19.726C113.566 19.5035 113.45 19.236 113.45 18.9235C113.45 18.611 113.566 18.3435 113.798 18.1209C114.035 17.8984 114.316 17.7871 114.643 17.7871C114.97 17.7871 115.249 17.8984 115.481 18.1209C115.718 18.3435 115.836 18.611 115.836 18.9235C115.836 19.236 115.718 19.5035 115.481 19.726C115.249 19.9486 114.97 20.0598 114.643 20.0598ZM126.293 24.3212L124.787 24.7473C124.692 24.4964 124.553 24.2525 124.368 24.0158C124.188 23.7743 123.942 23.5755 123.629 23.4192C123.317 23.263 122.917 23.1848 122.429 23.1848C121.761 23.1848 121.205 23.3387 120.76 23.6465C120.32 23.9495 120.099 24.3354 120.099 24.8042C120.099 25.2208 120.251 25.5499 120.554 25.7914C120.857 26.0328 121.33 26.2341 121.974 26.3951L123.594 26.7928C124.569 27.0295 125.296 27.3917 125.774 27.8794C126.252 28.3624 126.491 28.985 126.491 29.7473C126.491 30.3723 126.312 30.931 125.952 31.4235C125.597 31.9159 125.099 32.3042 124.46 32.5882C123.821 32.8723 123.078 33.0144 122.23 33.0144C121.117 33.0144 120.196 32.7729 119.467 32.29C118.738 31.807 118.277 31.1015 118.082 30.1735L119.673 29.7757C119.825 30.3629 120.111 30.8032 120.533 31.0968C120.959 31.3903 121.515 31.5371 122.202 31.5371C122.983 31.5371 123.603 31.3714 124.062 31.04C124.527 30.7038 124.759 30.3013 124.759 29.8326C124.759 29.4538 124.626 29.1365 124.361 28.8809C124.096 28.6204 123.688 28.4263 123.139 28.2985L121.321 27.8723C120.322 27.6356 119.588 27.2686 119.119 26.7715C118.655 26.2696 118.423 25.6422 118.423 24.8894C118.423 24.2739 118.596 23.7293 118.942 23.2559C119.292 22.7824 119.768 22.4107 120.369 22.1408C120.975 21.8709 121.662 21.736 122.429 21.736C123.509 21.736 124.356 21.9727 124.972 22.4462C125.592 22.9197 126.032 23.5447 126.293 24.3212Z" fill="white"/>
<defs>
<clipPath id="clip0_5224_19472">
<rect width="50" height="50" fill="white" transform="translate(0 0.787109)"/>
</clipPath>
</defs>
</svg>
