<svg width="100" height="101" viewBox="0 0 100 101" fill="none" xmlns="http://www.w3.org/2000/svg">
<circle cx="50" cy="50.5" r="50" fill="#FF5D00" fill-opacity="0.1"/>
<g clip-path="url(#clip0_0_1)">
<path d="M71.625 70.7812H54.1094V72.625C54.1094 73.6391 53.2797 74.4688 52.2656 74.4688H41.2031C40.1891 74.4688 39.3594 73.6391 39.3594 72.625V70.7812H21.8438C20.8297 70.7812 20 71.6109 20 72.625V74.4688C20 77.5202 22.4798 80 25.5313 80H67.9375C70.9889 80 73.4688 77.5202 73.4688 74.4688V72.625C73.4688 71.6109 72.6391 70.7812 71.625 70.7812ZM70.3805 67.0938C70.5925 66.513 70.7031 65.8953 70.7031 65.25V46.5452C69.8089 46.7203 68.887 46.8125 67.9375 46.8125C59.8066 46.8125 53.1875 40.1934 53.1875 32.0625H28.2969C25.2455 32.0625 22.7656 34.5423 22.7656 37.5938V65.25C22.7656 65.8953 22.8763 66.513 23.0883 67.0938H70.3805ZM53.7277 49.0379C53.5516 48.8678 53.4112 48.6644 53.3145 48.4394C53.2179 48.2145 53.167 47.9726 53.1649 47.7277C53.1628 47.4829 53.2094 47.2401 53.3021 47.0136C53.3948 46.787 53.5318 46.5811 53.7049 46.408C53.878 46.2349 54.0838 46.098 54.3104 46.0053C54.537 45.9126 54.7798 45.8659 55.0246 45.868C55.2694 45.8702 55.5114 45.921 55.7363 46.0177C55.9613 46.1143 56.1647 46.2547 56.3348 46.4308L60.0223 50.1183C60.3679 50.4641 60.5621 50.933 60.5621 51.4219C60.5621 51.9108 60.3679 52.3797 60.0223 52.7254L56.3348 56.4129C55.9743 56.7734 55.5033 56.9531 55.0313 56.9531C54.5593 56.9531 54.0882 56.7734 53.7277 56.4129C53.3821 56.0672 53.1879 55.5983 53.1879 55.1094C53.1879 54.6205 53.3821 54.1516 53.7277 53.8058L56.1117 51.4219L53.7277 49.0379ZM43.1418 56.3696L46.8293 45.3071C46.9059 45.0774 47.027 44.865 47.1856 44.6821C47.3443 44.4991 47.5374 44.3492 47.754 44.2409C47.9706 44.1327 48.2063 44.0681 48.4479 44.0509C48.6894 44.0338 48.932 44.0643 49.1617 44.1409C49.3914 44.2175 49.6038 44.3385 49.7867 44.4972C49.9696 44.6558 50.1195 44.849 50.2278 45.0656C50.3361 45.2821 50.4007 45.5179 50.4178 45.7595C50.435 46.001 50.4044 46.2435 50.3278 46.4732L46.6403 57.5358C46.5638 57.7655 46.4427 57.9778 46.2841 58.1608C46.1254 58.3437 45.9323 58.4936 45.7157 58.6019C45.4991 58.7102 45.2633 58.7747 45.0218 58.7919C44.7803 58.8091 44.5377 58.7785 44.308 58.7019C44.0783 58.6254 43.8659 58.5043 43.683 58.3456C43.5 58.187 43.3502 57.9939 43.2419 57.7773C43.1336 57.5607 43.069 57.3249 43.0518 57.0834C43.0347 56.8418 43.0653 56.5993 43.1418 56.3696ZM33.4465 50.1183L37.134 46.4308C37.3041 46.2547 37.5075 46.1143 37.7324 46.0177C37.9574 45.921 38.1993 45.8702 38.4441 45.868C38.6889 45.8659 38.9317 45.9126 39.1583 46.0053C39.3849 46.098 39.5908 46.2349 39.7639 46.408C39.937 46.5811 40.0739 46.787 40.1666 47.0136C40.2593 47.2401 40.306 47.4829 40.3038 47.7277C40.3017 47.9726 40.2508 48.2145 40.1542 48.4394C40.0576 48.6644 39.9171 48.8678 39.741 49.0379L37.3571 51.4219L39.741 53.8058C39.9171 53.9759 40.0576 54.1794 40.1542 54.4043C40.2508 54.6293 40.3017 54.8712 40.3038 55.116C40.306 55.3608 40.2593 55.6036 40.1666 55.8302C40.0739 56.0568 39.937 56.2626 39.7639 56.4358C39.5908 56.6089 39.3849 56.7458 39.1583 56.8385C38.9317 56.9312 38.6889 56.9778 38.4441 56.9757C38.1993 56.9736 37.9574 56.9227 37.7324 56.8261C37.5075 56.7295 37.3041 56.589 37.134 56.4129L33.4465 52.7254C33.1008 52.3797 32.9066 51.9108 32.9066 51.4219C32.9066 50.933 33.1008 50.4641 33.4465 50.1183ZM50.4403 28.375C50.9293 28.375 51.3983 28.1807 51.744 27.835C52.0898 27.4892 52.2841 27.0202 52.2841 26.5312C52.2841 26.0423 52.0898 25.5733 51.744 25.2275C51.3983 24.8818 50.9293 24.6875 50.4403 24.6875H50.4311C49.4133 24.6875 48.592 25.5135 48.592 26.5312C48.592 27.549 49.4216 28.375 50.4403 28.375ZM43.0653 28.375C43.5543 28.375 44.0233 28.1807 44.369 27.835C44.7148 27.4892 44.9091 27.0202 44.9091 26.5312C44.9091 26.0423 44.7148 25.5733 44.369 25.2275C44.0233 24.8818 43.5543 24.6875 43.0653 24.6875H43.0561C42.0383 24.6875 41.217 25.5135 41.217 26.5312C41.217 27.549 42.0466 28.375 43.0653 28.375ZM67.9375 38.8641C69.2484 37.543 70.1574 35.7924 70.5224 33.9062H65.3516C65.7176 35.7924 66.6266 37.543 67.9375 38.8641ZM70.5224 30.2188C70.1574 28.3326 69.2484 26.582 67.9375 25.2609C66.6266 26.582 65.7176 28.3326 65.3526 30.2188H70.5224ZM69.0143 42.7784C68.7006 43.004 68.3239 43.1253 67.9375 43.125C73.4171 43.125 77.9546 39.136 78.8341 33.9062H74.2468C73.7462 37.4518 71.8444 40.7429 69.0143 42.7784ZM74.2468 30.2188H78.8341C77.9546 24.9899 73.4199 21.0028 67.9421 21C68.3182 21.0009 68.6944 21.1162 69.0143 21.3466C71.8444 23.3821 73.7462 26.6732 74.2468 30.2188ZM66.8608 21.3466C67.1806 21.1162 67.5568 21.0009 67.9329 21C62.4551 21.0028 57.9204 24.9899 57.0409 30.2188H61.6282C62.1288 26.6732 64.0306 23.3821 66.8608 21.3466Z" fill="#FF5D00"/>
<path d="M61.6263 33.9062H57.0391C57.9185 39.136 62.456 43.125 67.9356 43.125C67.5586 43.125 67.1806 43.0098 66.8589 42.7784C64.0287 40.7429 62.1269 37.4518 61.6263 33.9062Z" fill="#FF5D00"/>
</g>
<defs>
<clipPath id="clip0_0_1">
<rect width="59" height="59" fill="white" transform="translate(20 21)"/>
</clipPath>
</defs>
</svg>
