<svg width="100" height="100" viewBox="0 0 100 100" fill="none" xmlns="http://www.w3.org/2000/svg">
<rect width="100" height="100" rx="50" fill="#FF5D00" fill-opacity="0.1"/>
<g clip-path="url(#clip0_8367_4441)">
<path d="M70.8333 43.25V36.5C70.8333 32.7785 68.0292 29.75 64.5833 29.75H52.0833V23H47.9167V29.75H35.4167C31.9708 29.75 29.1667 32.7785 29.1667 36.5V43.25H25V56.75H29.1667V70.25H55.6187L63.875 76.1945C64.625 76.7345 65.4896 77.0068 66.3562 77.0068C67.0812 77.0068 67.8062 76.8177 68.4708 76.433C69.9271 75.5892 70.8333 73.958 70.8333 72.1715V56.7477H75V43.2477H70.8333V43.25ZM57.2917 41C59.0167 41 60.4167 42.512 60.4167 44.375C60.4167 46.238 59.0167 47.75 57.2917 47.75C55.5667 47.75 54.1667 46.238 54.1667 44.375C54.1667 42.512 55.5667 41 57.2917 41ZM42.7083 41C44.4333 41 45.8333 42.512 45.8333 44.375C45.8333 46.238 44.4333 47.75 42.7083 47.75C40.9833 47.75 39.5833 46.238 39.5833 44.375C39.5833 42.512 40.9833 41 42.7083 41ZM50 61.25C43.5271 61.25 38.4104 56.3855 38.1958 56.1785L40.9667 52.8193C41.0083 52.8598 45.1437 56.7523 50 56.7523C54.8562 56.7523 58.9917 52.8598 59.0333 52.8193L61.8042 56.1785C61.5896 56.3855 56.4729 61.25 50 61.25Z" fill="#FF5D00"/>
</g>
<defs>
<clipPath id="clip0_8367_4441">
<rect width="50" height="54" fill="white" transform="translate(25 23)"/>
</clipPath>
</defs>
</svg>
