<svg width="100" height="100" viewBox="0 0 100 100" fill="none" xmlns="http://www.w3.org/2000/svg">
<rect width="100" height="100" rx="50" fill="#FF5D00" fill-opacity="0.1"/>
<path d="M66.8284 24.6953C64.094 24.6973 61.4721 25.7844 59.5386 27.718C57.6051 29.6515 56.5179 32.2734 56.5159 35.0078C56.5196 37.7145 57.5872 40.3112 59.4884 42.2377C61.3897 44.1642 63.9721 45.2659 66.6784 45.3053H66.9672C69.6736 45.2659 72.256 44.1642 74.1572 42.2377C76.0584 40.3112 77.126 37.7145 77.1297 35.0078C77.1297 32.2747 76.0447 29.6534 74.1132 27.7197C72.1817 25.7861 69.5615 24.6983 66.8284 24.6953ZM71.7784 30.3653L73.1022 31.6891L65.1409 39.6428C65.0544 39.7305 64.9514 39.8 64.8377 39.8475C64.7241 39.895 64.6022 39.9195 64.4791 39.9195C64.3559 39.9195 64.234 39.895 64.1204 39.8475C64.0068 39.8 63.9037 39.7305 63.8172 39.6428L60.5509 36.3803L61.8747 35.0528L64.4847 37.6516L71.7784 30.3653ZM24.4159 32.1803C24.0068 32.1793 23.614 32.3406 23.3237 32.6289C23.0333 32.9171 22.8692 33.3087 22.8672 33.7178V43.7678C22.8672 44.6153 23.5609 45.3053 24.4122 45.3053H60.3747C58.6237 44.2161 57.1785 42.6995 56.1749 40.8982C55.1712 39.0969 54.6421 37.0699 54.6372 35.0078C54.6372 34.0291 54.7797 33.0916 54.9972 32.1803H24.4159ZM27.5547 37.8053H42.5547V39.6803H27.5547V37.8053ZM24.4122 47.1803C24.0037 47.1803 23.6119 47.3421 23.3224 47.6302C23.0328 47.9183 22.8692 48.3094 22.8672 48.7178V58.7678C22.8672 59.6191 23.5647 60.3053 24.4122 60.3053H68.2047C68.6125 60.3053 69.0035 60.1433 69.2919 59.855C69.5802 59.5667 69.7422 59.1756 69.7422 58.7678V48.7178C69.7422 48.31 69.5802 47.919 69.2919 47.6306C69.0035 47.3423 68.6125 47.1803 68.2047 47.1803H66.9747C66.9259 47.1803 66.8809 47.1953 66.8247 47.1953C66.7759 47.1953 66.7347 47.1803 66.6822 47.1803H24.4122ZM63.2622 52.6178C63.8772 52.6178 64.3872 53.1203 64.3872 53.7428C64.3872 54.3616 63.8772 54.8678 63.2622 54.8678C62.9638 54.8668 62.6778 54.7481 62.4664 54.5374C62.2551 54.3268 62.1354 54.0412 62.1334 53.7428C62.1334 53.1203 62.6397 52.6178 63.2584 52.6178H63.2622ZM27.5547 52.8053H42.5547V54.6803H27.5547V52.8053ZM24.4122 62.1803C24.0037 62.1803 23.6119 62.3421 23.3224 62.6302C23.0328 62.9183 22.8692 63.3094 22.8672 63.7178V73.7678C22.8672 74.6191 23.5647 75.3053 24.4122 75.3053H68.2047C68.6125 75.3053 69.0035 75.1433 69.2919 74.855C69.5802 74.5667 69.7422 74.1756 69.7422 73.7678V63.7178C69.7422 63.31 69.5802 62.919 69.2919 62.6306C69.0035 62.3423 68.6125 62.1803 68.2047 62.1803H24.4122ZM63.1572 67.6178C63.4561 67.6178 63.7427 67.7365 63.954 67.9479C64.1653 68.1592 64.2841 68.4458 64.2841 68.7447C64.2841 69.0436 64.1653 69.3302 63.954 69.5415C63.7427 69.7528 63.4561 69.8716 63.1572 69.8716C62.8578 69.8716 62.5707 69.7526 62.359 69.541C62.1474 69.3293 62.0284 69.0422 62.0284 68.7428C62.0284 68.4435 62.1474 68.1563 62.359 67.9447C62.5707 67.733 62.8578 67.6178 63.1572 67.6178ZM27.5547 67.8053H42.5547V69.6803H27.5547V67.8053Z" fill="#FF5D00"/>
</svg>
