<svg width="100" height="100" viewBox="0 0 100 100" fill="none" xmlns="http://www.w3.org/2000/svg">
<rect width="100" height="100" rx="50" fill="#FF5D00" fill-opacity="0.1"/>
<path d="M57.125 28.625C50.7161 28.625 44.9804 31.4608 41.0653 35.9281C40.481 35.8676 39.911 35.75 39.3125 35.75C29.4764 35.75 21.5 43.7264 21.5 53.5625C21.5 63.3986 29.4764 71.375 39.3125 71.375C42.3727 71.375 53.7477 71.375 57.125 71.375C68.9311 71.375 78.5 61.8061 78.5 50C78.5 38.1939 68.9311 28.625 57.125 28.625ZM39.3125 67.8125C31.4536 67.8125 25.0625 61.4214 25.0625 53.5625C25.0625 45.7036 31.4536 39.3125 39.3125 39.3125C40.9085 39.3125 42.476 39.5868 43.9794 40.1319C44.7987 40.3563 45.7784 40.8016 46.7724 41.4215C46.8044 41.4393 46.8365 41.4571 46.865 41.4749L58.0726 48.4895C58.9027 49.0096 59.1592 50.1104 58.6355 50.9441C58.1154 51.7813 57.0181 52.0342 56.1774 51.5105L45.0517 44.5458C45.0161 44.528 44.9804 44.5066 44.9484 44.4853C44.2216 44.0257 43.5305 43.6979 42.8964 43.5234C35.4543 40.8693 28.625 46.4909 28.625 53.5625C28.625 59.4549 33.4201 64.25 39.3125 64.25C39.9146 64.25 40.5095 64.1859 41.0902 64.0897C41.9915 65.1264 42.9961 66.0776 44.1504 66.9504C42.6185 67.5026 40.9904 67.8125 39.3125 67.8125ZM57.125 67.8125C53.2704 67.8125 49.601 66.5941 46.5123 64.2892C45.3118 63.4057 44.3 62.4545 43.4379 61.3929C43.4058 61.3573 43.3738 61.3216 43.3452 61.2896L37.9338 54.6918C37.3104 53.9294 37.4208 52.8072 38.1832 52.1838C38.9384 51.5568 40.0642 51.6708 40.6912 52.4332L45.9993 58.9027C46.0421 58.949 46.0848 58.9953 46.124 59.0452C46.808 59.9073 47.6274 60.6875 48.632 61.4285C51.1115 63.2774 54.047 64.25 57.125 64.25C64.9839 64.25 71.375 57.8589 71.375 50C71.375 42.1411 64.9839 35.75 57.125 35.75C54.0363 35.75 51.1436 36.7261 48.7638 38.4646L48.7531 38.4575C48.6961 38.4219 48.6391 38.3862 48.5821 38.3542C47.4599 37.6595 46.3271 37.1465 45.2084 36.7938C48.4183 33.8654 52.6006 32.1875 57.125 32.1875C66.9468 32.1875 74.9375 40.1782 74.9375 50C74.9375 59.8218 66.9468 67.8125 57.125 67.8125Z" fill="#FF5D00"/>
</svg>
