<svg width="100" height="100" viewBox="0 0 100 100" fill="none" xmlns="http://www.w3.org/2000/svg">
<rect width="100" height="100" rx="50" fill="#FF5D00" fill-opacity="0.1"/>
<path d="M50 20C33.4308 20 20 33.4308 20 50C20 66.5692 33.4308 80 50 80C66.5692 80 80 66.5692 80 50L78.9892 42.2115C77.2761 35.8345 73.5064 30.201 68.2649 26.185C63.0234 22.169 56.6031 19.9949 50 20ZM36.1538 33.8462H63.8462V66.1539H36.1538V33.8462ZM38.4615 36.1539V45.3846H47.6923V36.1539H38.4615ZM50 36.1539V38.4615H61.5385V36.1539H50ZM40.7692 38.4615H45.3846V43.0769H40.7692V38.4615ZM50 40.7692V43.0769H61.5385V40.7692H50ZM38.4615 47.6923V50H61.5385V47.6923H38.4615ZM38.4615 52.3077V54.6154H50V52.3077H38.4615ZM56.9231 54.6154C54.3869 54.6154 52.3077 56.6946 52.3077 59.2308C52.3077 61.7669 54.3869 63.8462 56.9231 63.8462C59.4592 63.8462 61.5385 61.7669 61.5385 59.2308C61.5385 56.6946 59.4592 54.6154 56.9231 54.6154ZM38.4615 56.9231V59.2308H50V56.9231H38.4615ZM56.9231 56.9231C58.2108 56.9231 59.2308 57.9431 59.2308 59.2308C59.2308 60.5185 58.2108 61.5385 56.9231 61.5385C55.6354 61.5385 54.6154 60.5185 54.6154 59.2308C54.6154 57.9431 55.6354 56.9231 56.9231 56.9231ZM38.4615 61.5385V63.8462H50V61.5385H38.4615Z" fill="#FF5D00"/>
</svg>
