<svg width="100" height="100" viewBox="0 0 100 100" fill="none" xmlns="http://www.w3.org/2000/svg">
<rect width="100" height="100" rx="50" fill="#FF5D00" fill-opacity="0.1"/>
<g clip-path="url(#clip0_8370_4565)">
<path fill-rule="evenodd" clip-rule="evenodd" d="M48.0127 24.7305V37.2643H38.6484C39.1879 35.218 39.862 33.3506 40.6451 31.7145C42.5851 27.6617 45.1753 25.0547 48.0127 24.7305Z" fill="#FF5D00"/>
<path fill-rule="evenodd" clip-rule="evenodd" d="M26.5078 37.2655C30.2833 30.3036 37.2513 25.3243 45.4489 24.2949C43.1679 25.4731 41.1464 27.8994 39.5669 31.2001C38.713 32.9824 37.9848 35.026 37.4126 37.2655H26.5078Z" fill="#FF5D00"/>
<path fill-rule="evenodd" clip-rule="evenodd" d="M38.3533 38.4648H48.0143V48.6272H37.1875C37.2282 44.9882 37.6428 41.5467 38.3533 38.4648Z" fill="#FF5D00"/>
<path fill-rule="evenodd" clip-rule="evenodd" d="M23.4883 48.6272C23.5733 44.9971 24.4282 41.5564 25.896 38.4648H37.1241C36.4296 41.5671 36.0256 45.005 35.9849 48.6272H23.4883Z" fill="#FF5D00"/>
<path fill-rule="evenodd" clip-rule="evenodd" d="M37.1875 49.8281H48.0143V60.1243H38.371C37.6508 57.0097 37.2291 53.5203 37.1875 49.8281Z" fill="#FF5D00"/>
<path fill-rule="evenodd" clip-rule="evenodd" d="M25.9616 60.1243C24.4547 56.9973 23.5751 53.5115 23.4883 49.8281H35.9849C36.0265 53.5026 36.4464 56.9857 37.1675 60.1243H25.9616Z" fill="#FF5D00"/>
<path fill-rule="evenodd" clip-rule="evenodd" d="M38.668 61.3242H48.0136V73.7252C44.0034 73.2805 40.5398 68.3986 38.668 61.3242Z" fill="#FF5D00"/>
<path fill-rule="evenodd" clip-rule="evenodd" d="M45.4913 74.1663C37.3282 73.1547 30.3805 68.2276 26.582 61.3242H37.4637C39.1141 67.6261 42.0143 72.3654 45.4913 74.1663Z" fill="#FF5D00"/>
<path fill-rule="evenodd" clip-rule="evenodd" d="M60.1477 71.5623C57.5841 72.8884 54.7626 73.7867 51.7773 74.1614C54.0593 72.9841 56.0808 70.5569 57.6611 67.2562C57.7984 66.9683 57.9331 66.6742 58.0642 66.373L60.1477 71.5623Z" fill="#FF5D00"/>
<path fill-rule="evenodd" clip-rule="evenodd" d="M57.4257 64.7817C57.1609 65.4664 56.8801 66.1202 56.5833 66.7403C54.6433 70.793 52.0531 73.4 49.2148 73.7243V61.3242H56.0367L57.4257 64.7817Z" fill="#FF5D00"/>
<path fill-rule="evenodd" clip-rule="evenodd" d="M70.6465 61.3242C70.6031 61.4022 70.5597 61.4801 70.5163 61.5572L69.9219 61.3242H70.6465Z" fill="#FF5D00"/>
<path fill-rule="evenodd" clip-rule="evenodd" d="M55.5548 60.1243H49.2148V49.8281H60.0425C60.0221 51.5741 59.9167 53.2741 59.7334 54.9111L52.287 51.9878L55.5548 60.1243Z" fill="#FF5D00"/>
<path fill-rule="evenodd" clip-rule="evenodd" d="M73.7377 49.8281C73.657 53.2856 72.8766 56.5685 71.5346 59.5441L60.8867 55.3638C61.0984 53.5841 61.2198 51.7318 61.2411 49.8281H73.7377Z" fill="#FF5D00"/>
<path fill-rule="evenodd" clip-rule="evenodd" d="M60.0425 48.6272H49.2148V38.4648H58.8891C59.5907 41.5449 60.0009 44.9873 60.0425 48.6272Z" fill="#FF5D00"/>
<path fill-rule="evenodd" clip-rule="evenodd" d="M71.3303 38.4648C72.7982 41.5564 73.653 44.9971 73.738 48.6272H61.2414C61.2007 45.005 60.7923 41.568 60.0898 38.4648H71.3303Z" fill="#FF5D00"/>
<path fill-rule="evenodd" clip-rule="evenodd" d="M58.5959 37.2652H49.2148V24.7305C53.2508 25.1778 56.7321 30.1182 58.5959 37.2652Z" fill="#FF5D00"/>
<path fill-rule="evenodd" clip-rule="evenodd" d="M51.7383 24.2891C59.9536 25.3078 66.9385 30.2907 70.7201 37.2649H59.8004C58.1553 30.8966 55.2391 26.1033 51.7383 24.2891Z" fill="#FF5D00"/>
<path fill-rule="evenodd" clip-rule="evenodd" d="M73.8834 61.6557L54.293 53.9648L62.1734 73.5872L66.0198 69.6673L72.2446 75.9037L76.5188 71.6365L70.2506 65.3568L73.8834 61.6557Z" fill="#2A231F"/>
</g>
<defs>
<clipPath id="clip0_8370_4565">
<rect width="60" height="60" fill="white" transform="translate(20 20)"/>
</clipPath>
</defs>
</svg>
