<svg width="72" height="62" viewBox="0 0 72 62" fill="none" xmlns="http://www.w3.org/2000/svg">
<path d="M3.1929 18.4568H2.1286V17.3925H3.1929V18.4568ZM3.1929 19.5211H2.1286V18.4568H3.1929V19.5211ZM3.1929 20.5854H2.1286V19.5211H3.1929V20.5854ZM3.1929 21.6497H2.1286V20.5854H3.1929V21.6497ZM3.1929 22.714H2.1286V21.6497H3.1929V22.714ZM3.1929 23.7783H2.1286V22.714H3.1929V23.7783ZM3.1929 24.8426H2.1286V23.7783H3.1929V24.8426ZM3.1929 25.9069H2.1286V24.8426H3.1929V25.9069ZM3.1929 26.9712H2.1286V25.9069H3.1929V26.9712ZM3.1929 28.0355H2.1286V26.9712H3.1929V28.0355ZM3.1929 29.0998H2.1286V28.0355H3.1929V29.0998ZM3.1929 30.1641H2.1286V29.0998H3.1929V30.1641ZM3.1929 31.2284H2.1286V30.1641H3.1929V31.2284ZM3.1929 32.2927H2.1286V31.2284H3.1929V32.2927ZM3.1929 33.357H2.1286V32.2927H3.1929V33.357ZM4.25721 33.357H3.1929V32.2927H4.25721V33.357ZM4.25721 32.2927H3.1929V31.2284H4.25721V32.2927ZM4.25721 31.2284H3.1929V30.1641H4.25721V31.2284ZM4.25721 30.1641H3.1929V29.0998H4.25721V30.1641ZM4.25721 29.0998H3.1929V28.0355H4.25721V29.0998ZM4.25721 28.0355H3.1929V26.9712H4.25721V28.0355ZM4.25721 26.9712H3.1929V25.9069H4.25721V26.9712ZM5.32151 25.9069H4.25721V24.8426H5.32151V25.9069ZM5.32151 24.8426H4.25721V23.7783H5.32151V24.8426ZM5.32151 23.7783H4.25721V22.714H5.32151V23.7783ZM5.32151 22.714H4.25721V21.6497H5.32151V22.714ZM5.32151 21.6497H4.25721V20.5854H5.32151V21.6497ZM5.32151 20.5854H4.25721V19.5211H5.32151V20.5854ZM5.32151 19.5211H4.25721V18.4568H5.32151V19.5211ZM5.32151 18.4568H4.25721V17.3925H5.32151V18.4568ZM6.38581 18.4568H5.32151V17.3925H6.38581V18.4568ZM7.45011 18.4568H6.38581V17.3925H7.45011V18.4568ZM7.45011 19.5211H6.38581V18.4568H7.45011V19.5211ZM7.45011 20.5854H6.38581V19.5211H7.45011V20.5854ZM7.45011 21.6497H6.38581V20.5854H7.45011V21.6497ZM7.45011 22.714H6.38581V21.6497H7.45011V22.714ZM7.45011 23.7783H6.38581V22.714H7.45011V23.7783ZM7.45011 24.8426H6.38581V23.7783H7.45011V24.8426ZM7.45011 25.9069H6.38581V24.8426H7.45011V25.9069ZM6.38581 25.9069H5.32151V24.8426H6.38581V25.9069ZM6.38581 26.9712H5.32151V25.9069H6.38581V26.9712ZM6.38581 24.8426H5.32151V23.7783H6.38581V24.8426ZM6.38581 23.7783H5.32151V22.714H6.38581V23.7783ZM6.38581 22.714H5.32151V21.6497H6.38581V22.714ZM6.38581 21.6497H5.32151V20.5854H6.38581V21.6497ZM6.38581 20.5854H5.32151V19.5211H6.38581V20.5854ZM6.38581 19.5211H5.32151V18.4568H6.38581V19.5211ZM4.25721 18.4568H3.1929V17.3925H4.25721V18.4568ZM4.25721 19.5211H3.1929V18.4568H4.25721V19.5211ZM4.25721 20.5854H3.1929V19.5211H4.25721V20.5854ZM4.25721 21.6497H3.1929V20.5854H4.25721V21.6497ZM4.25721 22.714H3.1929V21.6497H4.25721V22.714ZM4.25721 23.7783H3.1929V22.714H4.25721V23.7783ZM4.25721 24.8426H3.1929V23.7783H4.25721V24.8426ZM4.25721 25.9069H3.1929V24.8426H4.25721V25.9069ZM3.1929 36.5499H2.1286V35.4856H3.1929V36.5499ZM3.1929 35.4856H2.1286V34.4213H3.1929V35.4856ZM3.1929 34.4213H2.1286V33.357H3.1929V34.4213ZM6.38581 38.6785H5.32151V37.6142H6.38581V38.6785ZM6.38581 36.5499H5.32151V35.4856H6.38581V36.5499ZM6.38581 35.4856H5.32151V34.4213H6.38581V35.4856ZM6.38581 34.4213H5.32151V33.357H6.38581V34.4213ZM6.38581 33.357H5.32151V32.2927H6.38581V33.357ZM6.38581 32.2927H5.32151V31.2284H6.38581V32.2927ZM6.38581 31.2284H5.32151V30.1641H6.38581V31.2284ZM6.38581 30.1641H5.32151V29.0998H6.38581V30.1641ZM7.45011 29.0998H6.38581V28.0355H7.45011V29.0998ZM7.45011 28.0355H6.38581V26.9712H7.45011V28.0355ZM7.45011 26.9712H6.38581V25.9069H7.45011V26.9712ZM7.45011 30.1641H6.38581V29.0998H7.45011V30.1641ZM7.45011 31.2284H6.38581V30.1641H7.45011V31.2284ZM7.45011 32.2927H6.38581V31.2284H7.45011V32.2927ZM7.45011 33.357H6.38581V32.2927H7.45011V33.357ZM7.45011 34.4213H6.38581V33.357H7.45011V34.4213ZM7.45011 35.4856H6.38581V34.4213H7.45011V35.4856ZM7.45011 36.5499H6.38581V35.4856H7.45011V36.5499ZM7.45011 37.6142H6.38581V36.5499H7.45011V37.6142ZM7.45011 38.6785H6.38581V37.6142H7.45011V38.6785ZM7.45011 39.7428H6.38581V38.6785H7.45011V39.7428ZM6.38581 37.6142H5.32151V36.5499H6.38581V37.6142ZM7.45011 40.8071H6.38581V39.7428H7.45011V40.8071ZM7.45011 41.8714H6.38581V40.8071H7.45011V41.8714ZM5.32151 38.6785H4.25721V37.6142H5.32151V38.6785ZM5.32151 37.6142H4.25721V36.5499H5.32151V37.6142ZM5.32151 36.5499H4.25721V35.4856H5.32151V36.5499ZM4.25721 35.4856H3.1929V34.4213H4.25721V35.4856ZM4.25721 34.4213H3.1929V33.357H4.25721V34.4213ZM4.25721 36.5499H3.1929V35.4856H4.25721V36.5499ZM4.25721 37.6142H3.1929V36.5499H4.25721V37.6142ZM5.32151 35.4856H4.25721V34.4213H5.32151V35.4856ZM5.32151 34.4213H4.25721V33.357H5.32151V34.4213ZM5.32151 33.357H4.25721V32.2927H5.32151V33.357ZM5.32151 32.2927H4.25721V31.2284H5.32151V32.2927ZM5.32151 31.2284H4.25721V30.1641H5.32151V31.2284ZM5.32151 30.1641H4.25721V29.0998H5.32151V30.1641ZM5.32151 29.0998H4.25721V28.0355H5.32151V29.0998ZM5.32151 28.0355H4.25721V26.9712H5.32151V28.0355ZM5.32151 26.9712H4.25721V25.9069H5.32151V26.9712ZM6.38581 28.0355H5.32151V26.9712H6.38581V28.0355ZM6.38581 29.0998H5.32151V28.0355H6.38581V29.0998ZM13.8359 41.8714H12.7716V40.8071H13.8359V41.8714ZM13.8359 40.8071H12.7716V39.7428H13.8359V40.8071ZM13.8359 39.7428H12.7716V38.6785H13.8359V39.7428ZM13.8359 38.6785H12.7716V37.6142H13.8359V38.6785ZM14.9002 39.7428H13.8359V38.6785H14.9002V39.7428ZM14.9002 40.8071H13.8359V39.7428H14.9002V40.8071ZM9.57871 44H8.51441V42.9357H9.57871V44ZM10.643 44H9.57871V42.9357H10.643V44ZM11.7073 44H10.643V42.9357H11.7073V44ZM12.7716 42.9357H11.7073V41.8714H12.7716V42.9357ZM11.7073 42.9357H10.643V41.8714H11.7073V42.9357ZM10.643 42.9357H9.57871V41.8714H10.643V42.9357ZM9.57871 42.9357H8.51441V41.8714H9.57871V42.9357ZM8.51441 42.9357H7.45011V41.8714H8.51441V42.9357ZM8.51441 41.8714H7.45011V40.8071H8.51441V41.8714ZM8.51441 40.8071H7.45011V39.7428H8.51441V40.8071ZM9.57871 41.8714H8.51441V40.8071H9.57871V41.8714ZM10.643 41.8714H9.57871V40.8071H10.643V41.8714ZM11.7073 41.8714H10.643V40.8071H11.7073V41.8714ZM12.7716 41.8714H11.7073V40.8071H12.7716V41.8714ZM12.7716 40.8071H11.7073V39.7428H12.7716V40.8071ZM11.7073 40.8071H10.643V39.7428H11.7073V40.8071ZM10.643 40.8071H9.57871V39.7428H10.643V40.8071ZM9.57871 40.8071H8.51441V39.7428H9.57871V40.8071ZM8.51441 39.7428H7.45011V38.6785H8.51441V39.7428ZM9.57871 39.7428H8.51441V38.6785H9.57871V39.7428ZM12.7716 39.7428H11.7073V38.6785H12.7716V39.7428ZM11.7073 39.7428H10.643V38.6785H11.7073V39.7428ZM12.7716 38.6785H11.7073V37.6142H12.7716V38.6785ZM8.51441 38.6785H7.45011V37.6142H8.51441V38.6785ZM6.38581 40.8071H5.32151V39.7428H6.38581V40.8071ZM6.38581 39.7428H5.32151V38.6785H6.38581V39.7428ZM5.32151 39.7428H4.25721V38.6785H5.32151V39.7428ZM4.25721 38.6785H3.1929V37.6142H4.25721V38.6785ZM3.1929 37.6142H2.1286V36.5499H3.1929V37.6142ZM8.51441 37.6142H7.45011V36.5499H8.51441V37.6142ZM9.57871 38.6785H8.51441V37.6142H9.57871V38.6785ZM10.643 39.7428H9.57871V38.6785H10.643V39.7428ZM11.7073 38.6785H10.643V37.6142H11.7073V38.6785ZM12.7716 37.6142H11.7073V36.5499H12.7716V37.6142ZM10.643 38.6785H9.57871V37.6142H10.643V38.6785ZM9.57871 37.6142H8.51441V36.5499H9.57871V37.6142ZM8.51441 36.5499H7.45011V35.4856H8.51441V36.5499ZM11.7073 37.6142H10.643V36.5499H11.7073V37.6142ZM12.7716 36.5499H11.7073V35.4856H12.7716V36.5499ZM13.8359 18.4568H12.7716V17.3925H13.8359V18.4568ZM13.8359 19.5211H12.7716V18.4568H13.8359V19.5211ZM13.8359 20.5854H12.7716V19.5211H13.8359V20.5854ZM13.8359 21.6497H12.7716V20.5854H13.8359V21.6497ZM13.8359 22.714H12.7716V21.6497H13.8359V22.714ZM13.8359 24.8426H12.7716V23.7783H13.8359V24.8426ZM13.8359 25.9069H12.7716V24.8426H13.8359V25.9069ZM13.8359 26.9712H12.7716V25.9069H13.8359V26.9712ZM13.8359 28.0355H12.7716V26.9712H13.8359V28.0355ZM13.8359 29.0998H12.7716V28.0355H13.8359V29.0998ZM13.8359 30.1641H12.7716V29.0998H13.8359V30.1641ZM13.8359 31.2284H12.7716V30.1641H13.8359V31.2284ZM13.8359 32.2927H12.7716V31.2284H13.8359V32.2927ZM13.8359 33.357H12.7716V32.2927H13.8359V33.357ZM14.9002 33.357H13.8359V32.2927H14.9002V33.357ZM14.9002 32.2927H13.8359V31.2284H14.9002V32.2927ZM14.9002 31.2284H13.8359V30.1641H14.9002V31.2284ZM14.9002 29.0998H13.8359V28.0355H14.9002V29.0998ZM14.9002 28.0355H13.8359V26.9712H14.9002V28.0355ZM14.9002 26.9712H13.8359V25.9069H14.9002V26.9712ZM15.9645 24.8426H14.9002V23.7783H15.9645V24.8426ZM15.9645 23.7783H14.9002V22.714H15.9645V23.7783ZM15.9645 22.714H14.9002V21.6497H15.9645V22.714ZM15.9645 21.6497H14.9002V20.5854H15.9645V21.6497ZM15.9645 20.5854H14.9002V19.5211H15.9645V20.5854ZM15.9645 19.5211H14.9002V18.4568H15.9645V19.5211ZM15.9645 18.4568H14.9002V17.3925H15.9645V18.4568ZM18.0931 18.4568H17.0288V17.3925H18.0931V18.4568ZM18.0931 19.5211H17.0288V18.4568H18.0931V19.5211ZM18.0931 20.5854H17.0288V19.5211H18.0931V20.5854ZM18.0931 22.714H17.0288V21.6497H18.0931V22.714ZM18.0931 23.7783H17.0288V22.714H18.0931V23.7783ZM18.0931 25.9069H17.0288V24.8426H18.0931V25.9069ZM17.0288 25.9069H15.9645V24.8426H17.0288V25.9069ZM17.0288 26.9712H15.9645V25.9069H17.0288V26.9712ZM17.0288 24.8426H15.9645V23.7783H17.0288V24.8426ZM17.0288 23.7783H15.9645V22.714H17.0288V23.7783ZM17.0288 22.714H15.9645V21.6497H17.0288V22.714ZM17.0288 21.6497H15.9645V20.5854H17.0288V21.6497ZM17.0288 20.5854H15.9645V19.5211H17.0288V20.5854ZM17.0288 19.5211H15.9645V18.4568H17.0288V19.5211ZM14.9002 18.4568H13.8359V17.3925H14.9002V18.4568ZM14.9002 20.5854H13.8359V19.5211H14.9002V20.5854ZM14.9002 21.6497H13.8359V20.5854H14.9002V21.6497ZM14.9002 22.714H13.8359V21.6497H14.9002V22.714ZM14.9002 23.7783H13.8359V22.714H14.9002V23.7783ZM14.9002 24.8426H13.8359V23.7783H14.9002V24.8426ZM13.8359 36.5499H12.7716V35.4856H13.8359V36.5499ZM13.8359 34.4213H12.7716V33.357H13.8359V34.4213ZM17.0288 38.6785H15.9645V37.6142H17.0288V38.6785ZM17.0288 36.5499H15.9645V35.4856H17.0288V36.5499ZM17.0288 35.4856H15.9645V34.4213H17.0288V35.4856ZM17.0288 34.4213H15.9645V33.357H17.0288V34.4213ZM17.0288 33.357H15.9645V32.2927H17.0288V33.357ZM17.0288 32.2927H15.9645V31.2284H17.0288V32.2927ZM17.0288 31.2284H15.9645V30.1641H17.0288V31.2284ZM17.0288 30.1641H15.9645V29.0998H17.0288V30.1641ZM18.0931 29.0998H17.0288V28.0355H18.0931V29.0998ZM18.0931 28.0355H17.0288V26.9712H18.0931V28.0355ZM18.0931 26.9712H17.0288V25.9069H18.0931V26.9712ZM18.0931 30.1641H17.0288V29.0998H18.0931V30.1641ZM18.0931 31.2284H17.0288V30.1641H18.0931V31.2284ZM18.0931 32.2927H17.0288V31.2284H18.0931V32.2927ZM18.0931 33.357H17.0288V32.2927H18.0931V33.357ZM18.0931 34.4213H17.0288V33.357H18.0931V34.4213ZM18.0931 35.4856H17.0288V34.4213H18.0931V35.4856ZM18.0931 36.5499H17.0288V35.4856H18.0931V36.5499ZM18.0931 37.6142H17.0288V36.5499H18.0931V37.6142ZM18.0931 38.6785H17.0288V37.6142H18.0931V38.6785ZM18.0931 39.7428H17.0288V38.6785H18.0931V39.7428ZM17.0288 37.6142H15.9645V36.5499H17.0288V37.6142ZM18.0931 40.8071H17.0288V39.7428H18.0931V40.8071ZM18.0931 41.8714H17.0288V40.8071H18.0931V41.8714ZM15.9645 38.6785H14.9002V37.6142H15.9645V38.6785ZM15.9645 37.6142H14.9002V36.5499H15.9645V37.6142ZM15.9645 36.5499H14.9002V35.4856H15.9645V36.5499ZM14.9002 35.4856H13.8359V34.4213H14.9002V35.4856ZM14.9002 34.4213H13.8359V33.357H14.9002V34.4213ZM14.9002 36.5499H13.8359V35.4856H14.9002V36.5499ZM14.9002 37.6142H13.8359V36.5499H14.9002V37.6142ZM15.9645 35.4856H14.9002V34.4213H15.9645V35.4856ZM15.9645 34.4213H14.9002V33.357H15.9645V34.4213ZM15.9645 31.2284H14.9002V30.1641H15.9645V31.2284ZM15.9645 30.1641H14.9002V29.0998H15.9645V30.1641ZM15.9645 29.0998H14.9002V28.0355H15.9645V29.0998ZM15.9645 28.0355H14.9002V26.9712H15.9645V28.0355ZM15.9645 26.9712H14.9002V25.9069H15.9645V26.9712ZM17.0288 28.0355H15.9645V26.9712H17.0288V28.0355ZM17.0288 29.0998H15.9645V28.0355H17.0288V29.0998ZM24.4789 18.4568H23.4146V17.3925H24.4789V18.4568ZM24.4789 19.5211H23.4146V18.4568H24.4789V19.5211ZM24.4789 20.5854H23.4146V19.5211H24.4789V20.5854ZM24.4789 21.6497H23.4146V20.5854H24.4789V21.6497ZM24.4789 22.714H23.4146V21.6497H24.4789V22.714ZM24.4789 23.7783H23.4146V22.714H24.4789V23.7783ZM24.4789 24.8426H23.4146V23.7783H24.4789V24.8426ZM24.4789 25.9069H23.4146V24.8426H24.4789V25.9069ZM24.4789 26.9712H23.4146V25.9069H24.4789V26.9712ZM24.4789 28.0355H23.4146V26.9712H24.4789V28.0355ZM24.4789 29.0998H23.4146V28.0355H24.4789V29.0998ZM24.4789 30.1641H23.4146V29.0998H24.4789V30.1641ZM24.4789 31.2284H23.4146V30.1641H24.4789V31.2284ZM24.4789 32.2927H23.4146V31.2284H24.4789V32.2927ZM24.4789 33.357H23.4146V32.2927H24.4789V33.357ZM25.5432 33.357H24.4789V32.2927H25.5432V33.357ZM25.5432 32.2927H24.4789V31.2284H25.5432V32.2927ZM25.5432 31.2284H24.4789V30.1641H25.5432V31.2284ZM25.5432 30.1641H24.4789V29.0998H25.5432V30.1641ZM25.5432 29.0998H24.4789V28.0355H25.5432V29.0998ZM25.5432 28.0355H24.4789V26.9712H25.5432V28.0355ZM25.5432 26.9712H24.4789V25.9069H25.5432V26.9712ZM26.6075 25.9069H25.5432V24.8426H26.6075V25.9069ZM26.6075 24.8426H25.5432V23.7783H26.6075V24.8426ZM26.6075 23.7783H25.5432V22.714H26.6075V23.7783ZM26.6075 22.714H25.5432V21.6497H26.6075V22.714ZM26.6075 21.6497H25.5432V20.5854H26.6075V21.6497ZM26.6075 20.5854H25.5432V19.5211H26.6075V20.5854ZM26.6075 19.5211H25.5432V18.4568H26.6075V19.5211ZM26.6075 18.4568H25.5432V17.3925H26.6075V18.4568ZM27.6718 18.4568H26.6075V17.3925H27.6718V18.4568ZM28.7361 18.4568H27.6718V17.3925H28.7361V18.4568ZM28.7361 19.5211H27.6718V18.4568H28.7361V19.5211ZM28.7361 20.5854H27.6718V19.5211H28.7361V20.5854ZM28.7361 21.6497H27.6718V20.5854H28.7361V21.6497ZM28.7361 22.714H27.6718V21.6497H28.7361V22.714ZM28.7361 23.7783H27.6718V22.714H28.7361V23.7783ZM28.7361 24.8426H27.6718V23.7783H28.7361V24.8426ZM28.7361 25.9069H27.6718V24.8426H28.7361V25.9069ZM27.6718 25.9069H26.6075V24.8426H27.6718V25.9069ZM27.6718 26.9712H26.6075V25.9069H27.6718V26.9712ZM27.6718 24.8426H26.6075V23.7783H27.6718V24.8426ZM27.6718 23.7783H26.6075V22.714H27.6718V23.7783ZM27.6718 22.714H26.6075V21.6497H27.6718V22.714ZM27.6718 21.6497H26.6075V20.5854H27.6718V21.6497ZM27.6718 20.5854H26.6075V19.5211H27.6718V20.5854ZM27.6718 19.5211H26.6075V18.4568H27.6718V19.5211ZM25.5432 18.4568H24.4789V17.3925H25.5432V18.4568ZM25.5432 19.5211H24.4789V18.4568H25.5432V19.5211ZM25.5432 20.5854H24.4789V19.5211H25.5432V20.5854ZM25.5432 21.6497H24.4789V20.5854H25.5432V21.6497ZM25.5432 22.714H24.4789V21.6497H25.5432V22.714ZM25.5432 23.7783H24.4789V22.714H25.5432V23.7783ZM25.5432 24.8426H24.4789V23.7783H25.5432V24.8426ZM25.5432 25.9069H24.4789V24.8426H25.5432V25.9069ZM24.4789 41.8714H23.4146V40.8071H24.4789V41.8714ZM24.4789 40.8071H23.4146V39.7428H24.4789V40.8071ZM24.4789 39.7428H23.4146V38.6785H24.4789V39.7428ZM24.4789 38.6785H23.4146V37.6142H24.4789V38.6785ZM24.4789 37.6142H23.4146V36.5499H24.4789V37.6142ZM24.4789 36.5499H23.4146V35.4856H24.4789V36.5499ZM24.4789 35.4856H23.4146V34.4213H24.4789V35.4856ZM24.4789 34.4213H23.4146V33.357H24.4789V34.4213ZM27.6718 38.6785H26.6075V37.6142H27.6718V38.6785ZM27.6718 36.5499H26.6075V35.4856H27.6718V36.5499ZM27.6718 35.4856H26.6075V34.4213H27.6718V35.4856ZM27.6718 34.4213H26.6075V33.357H27.6718V34.4213ZM27.6718 33.357H26.6075V32.2927H27.6718V33.357ZM27.6718 32.2927H26.6075V31.2284H27.6718V32.2927ZM27.6718 31.2284H26.6075V30.1641H27.6718V31.2284ZM27.6718 30.1641H26.6075V29.0998H27.6718V30.1641ZM28.7361 29.0998H27.6718V28.0355H28.7361V29.0998ZM28.7361 28.0355H27.6718V26.9712H28.7361V28.0355ZM28.7361 26.9712H27.6718V25.9069H28.7361V26.9712ZM28.7361 30.1641H27.6718V29.0998H28.7361V30.1641ZM28.7361 31.2284H27.6718V30.1641H28.7361V31.2284ZM28.7361 32.2927H27.6718V31.2284H28.7361V32.2927ZM28.7361 33.357H27.6718V32.2927H28.7361V33.357ZM28.7361 34.4213H27.6718V33.357H28.7361V34.4213ZM28.7361 35.4856H27.6718V34.4213H28.7361V35.4856ZM28.7361 36.5499H27.6718V35.4856H28.7361V36.5499ZM28.7361 37.6142H27.6718V36.5499H28.7361V37.6142ZM27.6718 37.6142H26.6075V36.5499H27.6718V37.6142ZM26.6075 39.7428H25.5432V38.6785H26.6075V39.7428ZM26.6075 38.6785H25.5432V37.6142H26.6075V38.6785ZM26.6075 37.6142H25.5432V36.5499H26.6075V37.6142ZM26.6075 36.5499H25.5432V35.4856H26.6075V36.5499ZM25.5432 35.4856H24.4789V34.4213H25.5432V35.4856ZM25.5432 34.4213H24.4789V33.357H25.5432V34.4213ZM25.5432 36.5499H24.4789V35.4856H25.5432V36.5499ZM25.5432 37.6142H24.4789V36.5499H25.5432V37.6142ZM25.5432 38.6785H24.4789V37.6142H25.5432V38.6785ZM25.5432 39.7428H24.4789V38.6785H25.5432V39.7428ZM25.5432 40.8071H24.4789V39.7428H25.5432V40.8071ZM26.6075 35.4856H25.5432V34.4213H26.6075V35.4856ZM26.6075 34.4213H25.5432V33.357H26.6075V34.4213ZM26.6075 33.357H25.5432V32.2927H26.6075V33.357ZM26.6075 32.2927H25.5432V31.2284H26.6075V32.2927ZM26.6075 31.2284H25.5432V30.1641H26.6075V31.2284ZM26.6075 30.1641H25.5432V29.0998H26.6075V30.1641ZM26.6075 29.0998H25.5432V28.0355H26.6075V29.0998ZM26.6075 28.0355H25.5432V26.9712H26.6075V28.0355ZM26.6075 26.9712H25.5432V25.9069H26.6075V26.9712ZM27.6718 28.0355H26.6075V26.9712H27.6718V28.0355ZM27.6718 29.0998H26.6075V28.0355H27.6718V29.0998ZM20.2217 44H19.1574V42.9357H20.2217V44ZM21.286 44H20.2217V42.9357H21.286V44ZM22.3503 44H21.286V42.9357H22.3503V44ZM23.4146 42.9357H22.3503V41.8714H23.4146V42.9357ZM22.3503 42.9357H21.286V41.8714H22.3503V42.9357ZM21.286 42.9357H20.2217V41.8714H21.286V42.9357ZM20.2217 42.9357H19.1574V41.8714H20.2217V42.9357ZM19.1574 42.9357H18.0931V41.8714H19.1574V42.9357ZM19.1574 41.8714H18.0931V40.8071H19.1574V41.8714ZM19.1574 40.8071H18.0931V39.7428H19.1574V40.8071ZM20.2217 41.8714H19.1574V40.8071H20.2217V41.8714ZM21.286 41.8714H20.2217V40.8071H21.286V41.8714ZM22.3503 41.8714H21.286V40.8071H22.3503V41.8714ZM23.4146 41.8714H22.3503V40.8071H23.4146V41.8714ZM23.4146 40.8071H22.3503V39.7428H23.4146V40.8071ZM22.3503 40.8071H21.286V39.7428H22.3503V40.8071ZM21.286 40.8071H20.2217V39.7428H21.286V40.8071ZM20.2217 40.8071H19.1574V39.7428H20.2217V40.8071ZM19.1574 39.7428H18.0931V38.6785H19.1574V39.7428ZM20.2217 39.7428H19.1574V38.6785H20.2217V39.7428ZM23.4146 39.7428H22.3503V38.6785H23.4146V39.7428ZM22.3503 39.7428H21.286V38.6785H22.3503V39.7428ZM23.4146 38.6785H22.3503V37.6142H23.4146V38.6785ZM19.1574 38.6785H18.0931V37.6142H19.1574V38.6785ZM17.0288 40.8071H15.9645V39.7428H17.0288V40.8071ZM17.0288 39.7428H15.9645V38.6785H17.0288V39.7428ZM15.9645 39.7428H14.9002V38.6785H15.9645V39.7428ZM14.9002 38.6785H13.8359V37.6142H14.9002V38.6785ZM13.8359 37.6142H12.7716V36.5499H13.8359V37.6142ZM19.1574 37.6142H18.0931V36.5499H19.1574V37.6142ZM20.2217 38.6785H19.1574V37.6142H20.2217V38.6785ZM21.286 39.7428H20.2217V38.6785H21.286V39.7428ZM22.3503 38.6785H21.286V37.6142H22.3503V38.6785ZM23.4146 37.6142H22.3503V36.5499H23.4146V37.6142ZM21.286 38.6785H20.2217V37.6142H21.286V38.6785ZM20.2217 37.6142H19.1574V36.5499H20.2217V37.6142ZM19.1574 36.5499H18.0931V35.4856H19.1574V36.5499ZM22.3503 37.6142H21.286V36.5499H22.3503V37.6142ZM23.4146 36.5499H22.3503V35.4856H23.4146V36.5499ZM13.8359 34.4213V35.4856H12.7716V34.4213H13.8359ZM15.9645 32.2927V33.357H14.9002V32.2927H15.9645ZM15.9645 31.2284V32.2927H14.9002V31.2284H15.9645ZM14.9002 29.0998V30.1641H13.8359V29.0998H14.9002ZM17.0288 17.3925V18.4568H15.9645V17.3925H17.0288ZM14.9002 18.4568V19.5211H13.8359V18.4568H14.9002ZM18.0931 20.5854V21.6497H17.0288V20.5854H18.0931ZM13.8359 22.714V23.7783H12.7716V22.714H13.8359ZM18.0931 23.7783V24.8426H17.0288V23.7783H18.0931ZM15.9645 24.8426V25.9069H14.9002V24.8426H15.9645ZM14.9002 24.8426V25.9069H13.8359V24.8426H14.9002ZM34.0452 42.9357V44H32.9809V42.9357H34.0452ZM34.0452 41.8714V42.9357H32.9809V41.8714H34.0452ZM34.0452 40.8071V41.8714H32.9809V40.8071H34.0452ZM34.0452 39.7428V40.8071H32.9809V39.7428H34.0452ZM34.0452 38.6785V39.7428H32.9809V38.6785H34.0452ZM34.0452 37.6142V38.6785H32.9809V37.6142H34.0452ZM34.0452 36.5499V37.6142H32.9809V36.5499H34.0452ZM34.0452 35.4856V36.5499H32.9809V35.4856H34.0452ZM34.0452 34.4213V35.4856H32.9809V34.4213H34.0452ZM34.0452 33.357V34.4213H32.9809V33.357H34.0452ZM34.0452 32.2927V33.357H32.9809V32.2927H34.0452ZM34.0452 31.2284V32.2927H32.9809V31.2284H34.0452ZM34.0452 30.1641V31.2284H32.9809V30.1641H34.0452ZM34.0452 29.0998V30.1641H32.9809V29.0998H34.0452ZM34.0452 28.0355V29.0998H32.9809V28.0355H34.0452ZM35.1095 28.0355V29.0998H34.0452V28.0355H35.1095ZM35.1095 29.0998V30.1641H34.0452V29.0998H35.1095ZM35.1095 30.1641V31.2284H34.0452V30.1641H35.1095ZM35.1095 31.2284V32.2927H34.0452V31.2284H35.1095ZM35.1095 32.2927V33.357H34.0452V32.2927H35.1095ZM35.1095 33.357V34.4213H34.0452V33.357H35.1095ZM35.1095 34.4213V35.4856H34.0452V34.4213H35.1095ZM36.1738 35.4856V36.5499H35.1095V35.4856H36.1738ZM36.1738 36.5499V37.6142H35.1095V36.5499H36.1738ZM36.1738 37.6142V38.6785H35.1095V37.6142H36.1738ZM36.1738 38.6785V39.7428H35.1095V38.6785H36.1738ZM36.1738 39.7428V40.8071H35.1095V39.7428H36.1738ZM36.1738 40.8071V41.8714H35.1095V40.8071H36.1738ZM36.1738 41.8714V42.9357H35.1095V41.8714H36.1738ZM36.1738 42.9357V44H35.1095V42.9357H36.1738ZM37.2381 42.9357V44H36.1738V42.9357H37.2381ZM38.3024 42.9357V44H37.2381V42.9357H38.3024ZM38.3024 41.8714V42.9357H37.2381V41.8714H38.3024ZM38.3024 40.8071V41.8714H37.2381V40.8071H38.3024ZM38.3024 39.7428V40.8071H37.2381V39.7428H38.3024ZM38.3024 38.6785V39.7428H37.2381V38.6785H38.3024ZM38.3024 37.6142V38.6785H37.2381V37.6142H38.3024ZM38.3024 36.5499V37.6142H37.2381V36.5499H38.3024ZM38.3024 35.4856V36.5499H37.2381V35.4856H38.3024ZM37.2381 35.4856V36.5499H36.1738V35.4856H37.2381ZM37.2381 34.4213V35.4856H36.1738V34.4213H37.2381ZM37.2381 36.5499V37.6142H36.1738V36.5499H37.2381ZM37.2381 37.6142V38.6785H36.1738V37.6142H37.2381ZM37.2381 38.6785V39.7428H36.1738V38.6785H37.2381ZM37.2381 39.7428V40.8071H36.1738V39.7428H37.2381ZM37.2381 40.8071V41.8714H36.1738V40.8071H37.2381ZM37.2381 41.8714V42.9357H36.1738V41.8714H37.2381ZM35.1095 42.9357V44H34.0452V42.9357H35.1095ZM35.1095 41.8714V42.9357H34.0452V41.8714H35.1095ZM35.1095 40.8071V41.8714H34.0452V40.8071H35.1095ZM35.1095 39.7428V40.8071H34.0452V39.7428H35.1095ZM35.1095 38.6785V39.7428H34.0452V38.6785H35.1095ZM35.1095 37.6142V38.6785H34.0452V37.6142H35.1095ZM35.1095 36.5499V37.6142H34.0452V36.5499H35.1095ZM35.1095 35.4856V36.5499H34.0452V35.4856H35.1095ZM34.0452 24.8426V25.9069H32.9809V24.8426H34.0452ZM34.0452 25.9069V26.9712H32.9809V25.9069H34.0452ZM34.0452 26.9712V28.0355H32.9809V26.9712H34.0452ZM37.2381 22.714V23.7783H36.1738V22.714H37.2381ZM37.2381 24.8426V25.9069H36.1738V24.8426H37.2381ZM37.2381 25.9069V26.9712H36.1738V25.9069H37.2381ZM37.2381 26.9712V28.0355H36.1738V26.9712H37.2381ZM37.2381 28.0355V29.0998H36.1738V28.0355H37.2381ZM37.2381 29.0998V30.1641H36.1738V29.0998H37.2381ZM37.2381 30.1641V31.2284H36.1738V30.1641H37.2381ZM37.2381 31.2284V32.2927H36.1738V31.2284H37.2381ZM38.3024 32.2927V33.357H37.2381V32.2927H38.3024ZM38.3024 33.357V34.4213H37.2381V33.357H38.3024ZM38.3024 34.4213V35.4856H37.2381V34.4213H38.3024ZM38.3024 31.2284V32.2927H37.2381V31.2284H38.3024ZM38.3024 30.1641V31.2284H37.2381V30.1641H38.3024ZM38.3024 29.0998V30.1641H37.2381V29.0998H38.3024ZM38.3024 28.0355V29.0998H37.2381V28.0355H38.3024ZM38.3024 26.9712V28.0355H37.2381V26.9712H38.3024ZM38.3024 25.9069V26.9712H37.2381V25.9069H38.3024ZM38.3024 24.8426V25.9069H37.2381V24.8426H38.3024ZM38.3024 23.7783V24.8426H37.2381V23.7783H38.3024ZM38.3024 22.714V23.7783H37.2381V22.714H38.3024ZM38.3024 21.6497V22.714H37.2381V21.6497H38.3024ZM37.2381 23.7783V24.8426H36.1738V23.7783H37.2381ZM38.3024 20.5854V21.6497H37.2381V20.5854H38.3024ZM38.3024 19.5211V20.5854H37.2381V19.5211H38.3024ZM36.1738 22.714V23.7783H35.1095V22.714H36.1738ZM36.1738 23.7783V24.8426H35.1095V23.7783H36.1738ZM36.1738 24.8426V25.9069H35.1095V24.8426H36.1738ZM35.1095 25.9069V26.9712H34.0452V25.9069H35.1095ZM35.1095 26.9712V28.0355H34.0452V26.9712H35.1095ZM35.1095 24.8426V25.9069H34.0452V24.8426H35.1095ZM35.1095 23.7783V24.8426H34.0452V23.7783H35.1095ZM36.1738 25.9069V26.9712H35.1095V25.9069H36.1738ZM36.1738 26.9712V28.0355H35.1095V26.9712H36.1738ZM36.1738 28.0355V29.0998H35.1095V28.0355H36.1738ZM36.1738 29.0998V30.1641H35.1095V29.0998H36.1738ZM36.1738 30.1641V31.2284H35.1095V30.1641H36.1738ZM36.1738 31.2284V32.2927H35.1095V31.2284H36.1738ZM36.1738 32.2927V33.357H35.1095V32.2927H36.1738ZM36.1738 33.357V34.4213H35.1095V33.357H36.1738ZM36.1738 34.4213V35.4856H35.1095V34.4213H36.1738ZM37.2381 33.357V34.4213H36.1738V33.357H37.2381ZM37.2381 32.2927V33.357H36.1738V32.2927H37.2381ZM45.7525 42.9357V44H44.6882V42.9357H45.7525ZM45.7525 41.8714V42.9357H44.6882V41.8714H45.7525ZM45.7525 40.8071V41.8714H44.6882V40.8071H45.7525ZM45.7525 39.7428V40.8071H44.6882V39.7428H45.7525ZM45.7525 38.6785V39.7428H44.6882V38.6785H45.7525ZM45.7525 37.6142V38.6785H44.6882V37.6142H45.7525ZM45.7525 36.5499V37.6142H44.6882V36.5499H45.7525ZM45.7525 35.4856V36.5499H44.6882V35.4856H45.7525ZM45.7525 34.4213V35.4856H44.6882V34.4213H45.7525ZM45.7525 33.357V34.4213H44.6882V33.357H45.7525ZM45.7525 32.2927V33.357H44.6882V32.2927H45.7525ZM45.7525 31.2284V32.2927H44.6882V31.2284H45.7525ZM45.7525 30.1641V31.2284H44.6882V30.1641H45.7525ZM45.7525 29.0998V30.1641H44.6882V29.0998H45.7525ZM45.7525 28.0355V29.0998H44.6882V28.0355H45.7525ZM46.8168 28.0355V29.0998H45.7525V28.0355H46.8168ZM46.8168 29.0998V30.1641H45.7525V29.0998H46.8168ZM46.8168 30.1641V31.2284H45.7525V30.1641H46.8168ZM46.8168 31.2284V32.2927H45.7525V31.2284H46.8168ZM46.8168 32.2927V33.357H45.7525V32.2927H46.8168ZM46.8168 33.357V34.4213H45.7525V33.357H46.8168ZM46.8168 34.4213V35.4856H45.7525V34.4213H46.8168ZM47.8811 35.4856V36.5499H46.8168V35.4856H47.8811ZM47.8811 36.5499V37.6142H46.8168V36.5499H47.8811ZM47.8811 37.6142V38.6785H46.8168V37.6142H47.8811ZM47.8811 38.6785V39.7428H46.8168V38.6785H47.8811ZM47.8811 39.7428V40.8071H46.8168V39.7428H47.8811ZM47.8811 40.8071V41.8714H46.8168V40.8071H47.8811ZM47.8811 41.8714V42.9357H46.8168V41.8714H47.8811ZM47.8811 42.9357V44H46.8168V42.9357H47.8811ZM48.9454 42.9357V44H47.8811V42.9357H48.9454ZM50.0097 42.9357V44H48.9454V42.9357H50.0097ZM50.0097 41.8714V42.9357H48.9454V41.8714H50.0097ZM50.0097 40.8071V41.8714H48.9454V40.8071H50.0097ZM50.0097 39.7428V40.8071H48.9454V39.7428H50.0097ZM50.0097 38.6785V39.7428H48.9454V38.6785H50.0097ZM50.0097 37.6142V38.6785H48.9454V37.6142H50.0097ZM50.0097 36.5499V37.6142H48.9454V36.5499H50.0097ZM50.0097 35.4856V36.5499H48.9454V35.4856H50.0097ZM48.9454 35.4856V36.5499H47.8811V35.4856H48.9454ZM48.9454 34.4213V35.4856H47.8811V34.4213H48.9454ZM48.9454 36.5499V37.6142H47.8811V36.5499H48.9454ZM48.9454 37.6142V38.6785H47.8811V37.6142H48.9454ZM48.9454 38.6785V39.7428H47.8811V38.6785H48.9454ZM48.9454 39.7428V40.8071H47.8811V39.7428H48.9454ZM48.9454 40.8071V41.8714H47.8811V40.8071H48.9454ZM48.9454 41.8714V42.9357H47.8811V41.8714H48.9454ZM46.8168 42.9357V44H45.7525V42.9357H46.8168ZM46.8168 41.8714V42.9357H45.7525V41.8714H46.8168ZM46.8168 40.8071V41.8714H45.7525V40.8071H46.8168ZM46.8168 39.7428V40.8071H45.7525V39.7428H46.8168ZM46.8168 38.6785V39.7428H45.7525V38.6785H46.8168ZM46.8168 37.6142V38.6785H45.7525V37.6142H46.8168ZM46.8168 36.5499V37.6142H45.7525V36.5499H46.8168ZM46.8168 35.4856V36.5499H45.7525V35.4856H46.8168ZM45.7525 19.5211V20.5854H44.6882V19.5211H45.7525ZM45.7525 20.5854V21.6497H44.6882V20.5854H45.7525ZM45.7525 21.6497V22.714H44.6882V21.6497H45.7525ZM45.7525 22.714V23.7783H44.6882V22.714H45.7525ZM45.7525 23.7783V24.8426H44.6882V23.7783H45.7525ZM45.7525 24.8426V25.9069H44.6882V24.8426H45.7525ZM45.7525 25.9069V26.9712H44.6882V25.9069H45.7525ZM45.7525 26.9712V28.0355H44.6882V26.9712H45.7525ZM48.9454 22.714V23.7783H47.8811V22.714H48.9454ZM48.9454 24.8426V25.9069H47.8811V24.8426H48.9454ZM48.9454 25.9069V26.9712H47.8811V25.9069H48.9454ZM48.9454 26.9712V28.0355H47.8811V26.9712H48.9454ZM48.9454 28.0355V29.0998H47.8811V28.0355H48.9454ZM48.9454 29.0998V30.1641H47.8811V29.0998H48.9454ZM48.9454 30.1641V31.2284H47.8811V30.1641H48.9454ZM48.9454 31.2284V32.2927H47.8811V31.2284H48.9454ZM50.0097 32.2927V33.357H48.9454V32.2927H50.0097ZM50.0097 33.357V34.4213H48.9454V33.357H50.0097ZM50.0097 34.4213V35.4856H48.9454V34.4213H50.0097ZM50.0097 31.2284V32.2927H48.9454V31.2284H50.0097ZM50.0097 30.1641V31.2284H48.9454V30.1641H50.0097ZM50.0097 29.0998V30.1641H48.9454V29.0998H50.0097ZM50.0097 28.0355V29.0998H48.9454V28.0355H50.0097ZM50.0097 26.9712V28.0355H48.9454V26.9712H50.0097ZM50.0097 25.9069V26.9712H48.9454V25.9069H50.0097ZM50.0097 24.8426V25.9069H48.9454V24.8426H50.0097ZM50.0097 23.7783V24.8426H48.9454V23.7783H50.0097ZM48.9454 23.7783V24.8426H47.8811V23.7783H48.9454ZM47.8811 21.6497V22.714H46.8168V21.6497H47.8811ZM47.8811 22.714V23.7783H46.8168V22.714H47.8811ZM47.8811 23.7783V24.8426H46.8168V23.7783H47.8811ZM47.8811 24.8426V25.9069H46.8168V24.8426H47.8811ZM46.8168 25.9069V26.9712H45.7525V25.9069H46.8168ZM46.8168 26.9712V28.0355H45.7525V26.9712H46.8168ZM46.8168 24.8426V25.9069H45.7525V24.8426H46.8168ZM46.8168 23.7783V24.8426H45.7525V23.7783H46.8168ZM46.8168 22.714V23.7783H45.7525V22.714H46.8168ZM46.8168 21.6497V22.714H45.7525V21.6497H46.8168ZM46.8168 20.5854V21.6497H45.7525V20.5854H46.8168ZM47.8811 25.9069V26.9712H46.8168V25.9069H47.8811ZM47.8811 26.9712V28.0355H46.8168V26.9712H47.8811ZM47.8811 28.0355V29.0998H46.8168V28.0355H47.8811ZM47.8811 29.0998V30.1641H46.8168V29.0998H47.8811ZM47.8811 30.1641V31.2284H46.8168V30.1641H47.8811ZM47.8811 31.2284V32.2927H46.8168V31.2284H47.8811ZM47.8811 32.2927V33.357H46.8168V32.2927H47.8811ZM47.8811 33.357V34.4213H46.8168V33.357H47.8811ZM47.8811 34.4213V35.4856H46.8168V34.4213H47.8811ZM48.9454 33.357V34.4213H47.8811V33.357H48.9454ZM48.9454 32.2927V33.357H47.8811V32.2927H48.9454ZM40.431 17.3925V18.4568H39.3667V17.3925H40.431ZM41.4953 17.3925V18.4568H40.431V17.3925H41.4953ZM42.5596 17.3925V18.4568H41.4953V17.3925H42.5596ZM43.6239 17.3925V18.4568H42.5596V17.3925H43.6239ZM44.6882 18.4568V19.5211H43.6239V18.4568H44.6882ZM43.6239 18.4568V19.5211H42.5596V18.4568H43.6239ZM42.5596 18.4568V19.5211H41.4953V18.4568H42.5596ZM41.4953 18.4568V19.5211H40.431V18.4568H41.4953ZM40.431 18.4568V19.5211H39.3667V18.4568H40.431ZM39.3667 18.4568V19.5211H38.3024V18.4568H39.3667ZM39.3667 19.5211V20.5854H38.3024V19.5211H39.3667ZM39.3667 20.5854V21.6497H38.3024V20.5854H39.3667ZM40.431 19.5211V20.5854H39.3667V19.5211H40.431ZM41.4953 19.5211V20.5854H40.431V19.5211H41.4953ZM42.5596 19.5211V20.5854H41.4953V19.5211H42.5596ZM43.6239 19.5211V20.5854H42.5596V19.5211H43.6239ZM44.6882 19.5211V20.5854H43.6239V19.5211H44.6882ZM44.6882 20.5854V21.6497H43.6239V20.5854H44.6882ZM43.6239 20.5854V21.6497H42.5596V20.5854H43.6239ZM42.5596 20.5854V21.6497H41.4953V20.5854H42.5596ZM41.4953 20.5854V21.6497H40.431V20.5854H41.4953ZM40.431 20.5854V21.6497H39.3667V20.5854H40.431ZM39.3667 21.6497V22.714H38.3024V21.6497H39.3667ZM40.431 21.6497V22.714H39.3667V21.6497H40.431ZM44.6882 21.6497V22.714H43.6239V21.6497H44.6882ZM43.6239 21.6497V22.714H42.5596V21.6497H43.6239ZM44.6882 22.714V23.7783H43.6239V22.714H44.6882ZM39.3667 22.714V23.7783H38.3024V22.714H39.3667ZM37.2381 20.5854V21.6497H36.1738V20.5854H37.2381ZM37.2381 21.6497V22.714H36.1738V21.6497H37.2381ZM36.1738 21.6497V22.714H35.1095V21.6497H36.1738ZM35.1095 22.714V23.7783H34.0452V22.714H35.1095ZM34.0452 23.7783V24.8426H32.9809V23.7783H34.0452ZM39.3667 23.7783V24.8426H38.3024V23.7783H39.3667ZM40.431 22.714V23.7783H39.3667V22.714H40.431ZM41.4953 21.6497V22.714H40.431V21.6497H41.4953ZM42.5596 21.6497V22.714H41.4953V21.6497H42.5596ZM43.6239 22.714V23.7783H42.5596V22.714H43.6239ZM44.6882 23.7783V24.8426H43.6239V23.7783H44.6882ZM39.3667 36.5499V37.6142H38.3024V36.5499H39.3667ZM40.431 36.5499V37.6142H39.3667V36.5499H40.431ZM41.4953 36.5499V37.6142H40.431V36.5499H41.4953ZM42.5596 36.5499V37.6142H41.4953V36.5499H42.5596ZM43.6239 36.5499V37.6142H42.5596V36.5499H43.6239ZM44.6882 36.5499V37.6142H43.6239V36.5499H44.6882ZM44.6882 35.4856V36.5499H43.6239V35.4856H44.6882ZM43.6239 35.4856V36.5499H42.5596V35.4856H43.6239ZM42.5596 35.4856V36.5499H41.4953V35.4856H42.5596ZM41.4953 35.4856V36.5499H40.431V35.4856H41.4953ZM40.431 35.4856V36.5499H39.3667V35.4856H40.431ZM39.3667 35.4856V36.5499H38.3024V35.4856H39.3667ZM39.3667 34.4213V35.4856H38.3024V34.4213H39.3667ZM40.431 34.4213V35.4856H39.3667V34.4213H40.431ZM41.4953 34.4213V35.4856H40.431V34.4213H41.4953ZM42.5596 34.4213V35.4856H41.4953V34.4213H42.5596ZM43.6239 34.4213V35.4856H42.5596V34.4213H43.6239ZM44.6882 34.4213V35.4856H43.6239V34.4213H44.6882ZM44.6882 33.357V34.4213H43.6239V33.357H44.6882ZM43.6239 33.357V34.4213H42.5596V33.357H43.6239ZM42.5596 33.357V34.4213H41.4953V33.357H42.5596ZM41.4953 33.357V34.4213H40.431V33.357H41.4953ZM40.431 33.357V34.4213H39.3667V33.357H40.431ZM39.3667 33.357V34.4213H38.3024V33.357H39.3667ZM39.3667 32.2927V33.357H38.3024V32.2927H39.3667ZM40.431 32.2927V33.357H39.3667V32.2927H40.431ZM41.4953 32.2927V33.357H40.431V32.2927H41.4953ZM42.5596 32.2927V33.357H41.4953V32.2927H42.5596ZM43.6239 32.2927V33.357H42.5596V32.2927H43.6239ZM44.6882 32.2927V33.357H43.6239V32.2927H44.6882ZM41.4953 22.714V23.7783H40.431V22.714H41.4953ZM42.5596 22.714V23.7783H41.4953V22.714H42.5596ZM40.431 23.7783V24.8426H39.3667V23.7783H40.431ZM39.3667 24.8426V25.9069H38.3024V24.8426H39.3667ZM43.6239 23.7783V24.8426H42.5596V23.7783H43.6239ZM44.6882 24.8426V25.9069H43.6239V24.8426H44.6882ZM55.352 42.9357V44H54.2877V42.9357H55.352ZM55.352 41.8714V42.9357H54.2877V41.8714H55.352ZM55.352 40.8071V41.8714H54.2877V40.8071H55.352ZM55.352 39.7428V40.8071H54.2877V39.7428H55.352ZM55.352 38.6785V39.7428H54.2877V38.6785H55.352ZM55.352 37.6142V38.6785H54.2877V37.6142H55.352ZM55.352 36.5499V37.6142H54.2877V36.5499H55.352ZM55.352 35.4856V36.5499H54.2877V35.4856H55.352ZM55.352 34.4213V35.4856H54.2877V34.4213H55.352ZM55.352 33.357V34.4213H54.2877V33.357H55.352ZM55.352 32.2927V33.357H54.2877V32.2927H55.352ZM55.352 31.2284V32.2927H54.2877V31.2284H55.352ZM55.352 30.1641V31.2284H54.2877V30.1641H55.352ZM55.352 29.0998V30.1641H54.2877V29.0998H55.352ZM55.352 28.0355V29.0998H54.2877V28.0355H55.352ZM56.4163 28.0355V29.0998H55.352V28.0355H56.4163ZM56.4163 29.0998V30.1641H55.352V29.0998H56.4163ZM56.4163 30.1641V31.2284H55.352V30.1641H56.4163ZM56.4163 31.2284V32.2927H55.352V31.2284H56.4163ZM56.4163 32.2927V33.357H55.352V32.2927H56.4163ZM56.4163 33.357V34.4213H55.352V33.357H56.4163ZM56.4163 34.4213V35.4856H55.352V34.4213H56.4163ZM57.4806 35.4856V36.5499H56.4163V35.4856H57.4806ZM57.4806 36.5499V37.6142H56.4163V36.5499H57.4806ZM57.4806 37.6142V38.6785H56.4163V37.6142H57.4806ZM57.4806 38.6785V39.7428H56.4163V38.6785H57.4806ZM57.4806 39.7428V40.8071H56.4163V39.7428H57.4806ZM57.4806 40.8071V41.8714H56.4163V40.8071H57.4806ZM57.4806 41.8714V42.9357H56.4163V41.8714H57.4806ZM57.4806 42.9357V44H56.4163V42.9357H57.4806ZM58.5449 42.9357V44H57.4806V42.9357H58.5449ZM59.6092 42.9357V44H58.5449V42.9357H59.6092ZM59.6092 41.8714V42.9357H58.5449V41.8714H59.6092ZM59.6092 40.8071V41.8714H58.5449V40.8071H59.6092ZM59.6092 39.7428V40.8071H58.5449V39.7428H59.6092ZM59.6092 38.6785V39.7428H58.5449V38.6785H59.6092ZM59.6092 37.6142V38.6785H58.5449V37.6142H59.6092ZM59.6092 36.5499V37.6142H58.5449V36.5499H59.6092ZM59.6092 35.4856V36.5499H58.5449V35.4856H59.6092ZM58.5449 35.4856V36.5499H57.4806V35.4856H58.5449ZM58.5449 34.4213V35.4856H57.4806V34.4213H58.5449ZM58.5449 36.5499V37.6142H57.4806V36.5499H58.5449ZM58.5449 37.6142V38.6785H57.4806V37.6142H58.5449ZM58.5449 38.6785V39.7428H57.4806V38.6785H58.5449ZM58.5449 39.7428V40.8071H57.4806V39.7428H58.5449ZM58.5449 40.8071V41.8714H57.4806V40.8071H58.5449ZM58.5449 41.8714V42.9357H57.4806V41.8714H58.5449ZM56.4163 42.9357V44H55.352V42.9357H56.4163ZM56.4163 41.8714V42.9357H55.352V41.8714H56.4163ZM56.4163 40.8071V41.8714H55.352V40.8071H56.4163ZM56.4163 39.7428V40.8071H55.352V39.7428H56.4163ZM56.4163 38.6785V39.7428H55.352V38.6785H56.4163ZM56.4163 37.6142V38.6785H55.352V37.6142H56.4163ZM56.4163 36.5499V37.6142H55.352V36.5499H56.4163ZM56.4163 35.4856V36.5499H55.352V35.4856H56.4163ZM55.352 17.3925V18.4568H54.2877V17.3925H55.352ZM55.352 18.4568V19.5211H54.2877V18.4568H55.352ZM55.352 19.5211V20.5854H54.2877V19.5211H55.352ZM55.352 20.5854V21.6497H54.2877V20.5854H55.352ZM55.352 21.6497V22.714H54.2877V21.6497H55.352ZM55.352 22.714V23.7783H54.2877V22.714H55.352ZM55.352 23.7783V24.8426H54.2877V23.7783H55.352ZM55.352 24.8426V25.9069H54.2877V24.8426H55.352ZM55.352 25.9069V26.9712H54.2877V25.9069H55.352ZM55.352 26.9712V28.0355H54.2877V26.9712H55.352ZM58.5449 17.3925V18.4568H57.4806V17.3925H58.5449ZM58.5449 18.4568V19.5211H57.4806V18.4568H58.5449ZM58.5449 19.5211V20.5854H57.4806V19.5211H58.5449ZM58.5449 20.5854V21.6497H57.4806V20.5854H58.5449ZM58.5449 21.6497V22.714H57.4806V21.6497H58.5449ZM58.5449 22.714V23.7783H57.4806V22.714H58.5449ZM58.5449 24.8426V25.9069H57.4806V24.8426H58.5449ZM58.5449 25.9069V26.9712H57.4806V25.9069H58.5449ZM58.5449 26.9712V28.0355H57.4806V26.9712H58.5449ZM58.5449 28.0355V29.0998H57.4806V28.0355H58.5449ZM58.5449 29.0998V30.1641H57.4806V29.0998H58.5449ZM58.5449 30.1641V31.2284H57.4806V30.1641H58.5449ZM58.5449 31.2284V32.2927H57.4806V31.2284H58.5449ZM59.6092 32.2927V33.357H58.5449V32.2927H59.6092ZM59.6092 33.357V34.4213H58.5449V33.357H59.6092ZM59.6092 34.4213V35.4856H58.5449V34.4213H59.6092ZM59.6092 31.2284V32.2927H58.5449V31.2284H59.6092ZM59.6092 30.1641V31.2284H58.5449V30.1641H59.6092ZM59.6092 29.0998V30.1641H58.5449V29.0998H59.6092ZM59.6092 28.0355V29.0998H58.5449V28.0355H59.6092ZM59.6092 26.9712V28.0355H58.5449V26.9712H59.6092ZM59.6092 25.9069V26.9712H58.5449V25.9069H59.6092ZM59.6092 24.8426V25.9069H58.5449V24.8426H59.6092ZM59.6092 23.7783V24.8426H58.5449V23.7783H59.6092ZM59.6092 22.714V23.7783H58.5449V22.714H59.6092ZM59.6092 21.6497V22.714H58.5449V21.6497H59.6092ZM58.5449 23.7783V24.8426H57.4806V23.7783H58.5449ZM59.6092 20.5854V21.6497H58.5449V20.5854H59.6092ZM59.6092 19.5211V20.5854H58.5449V19.5211H59.6092ZM59.6092 18.4568V19.5211H58.5449V18.4568H59.6092ZM59.6092 17.3925V18.4568H58.5449V17.3925H59.6092ZM57.4806 17.3925V18.4568H56.4163V17.3925H57.4806ZM56.4163 17.3925V18.4568H55.352V17.3925H56.4163ZM56.4163 18.4568V19.5211H55.352V18.4568H56.4163ZM57.4806 18.4568V19.5211H56.4163V18.4568H57.4806ZM57.4806 19.5211V20.5854H56.4163V19.5211H57.4806ZM57.4806 20.5854V21.6497H56.4163V20.5854H57.4806ZM57.4806 21.6497V22.714H56.4163V21.6497H57.4806ZM57.4806 22.714V23.7783H56.4163V22.714H57.4806ZM57.4806 23.7783V24.8426H56.4163V23.7783H57.4806ZM57.4806 24.8426V25.9069H56.4163V24.8426H57.4806ZM56.4163 25.9069V26.9712H55.352V25.9069H56.4163ZM56.4163 26.9712V28.0355H55.352V26.9712H56.4163ZM56.4163 24.8426V25.9069H55.352V24.8426H56.4163ZM56.4163 23.7783V24.8426H55.352V23.7783H56.4163ZM56.4163 22.714V23.7783H55.352V22.714H56.4163ZM56.4163 21.6497V22.714H55.352V21.6497H56.4163ZM56.4163 20.5854V21.6497H55.352V20.5854H56.4163ZM56.4163 19.5211V20.5854H55.352V19.5211H56.4163ZM57.4806 25.9069V26.9712H56.4163V25.9069H57.4806ZM57.4806 26.9712V28.0355H56.4163V26.9712H57.4806ZM57.4806 28.0355V29.0998H56.4163V28.0355H57.4806ZM57.4806 29.0998V30.1641H56.4163V29.0998H57.4806ZM57.4806 30.1641V31.2284H56.4163V30.1641H57.4806ZM57.4806 31.2284V32.2927H56.4163V31.2284H57.4806ZM57.4806 32.2927V33.357H56.4163V32.2927H57.4806ZM57.4806 33.357V34.4213H56.4163V33.357H57.4806ZM57.4806 34.4213V35.4856H56.4163V34.4213H57.4806ZM58.5449 33.357V34.4213H57.4806V33.357H58.5449ZM58.5449 32.2927V33.357H57.4806V32.2927H58.5449ZM60.6735 30.1641V31.2284H59.6092V30.1641H60.6735ZM61.7378 30.1641V31.2284H60.6735V30.1641H61.7378ZM61.7378 31.2284V32.2927H60.6735V31.2284H61.7378ZM60.6735 31.2284V32.2927H59.6092V31.2284H60.6735ZM60.6735 28.0355V29.0998H59.6092V28.0355H60.6735ZM61.7378 28.0355V29.0998H60.6735V28.0355H61.7378ZM60.6735 32.2927V33.357H59.6092V32.2927H60.6735ZM61.7378 32.2927V33.357H60.6735V32.2927H61.7378ZM61.7378 29.0998V30.1641H60.6735V29.0998H61.7378ZM60.6735 29.0998V30.1641H59.6092V29.0998H60.6735ZM60.6735 17.3925V18.4568H59.6092V17.3925H60.6735ZM61.7378 17.3925V18.4568H60.6735V17.3925H61.7378ZM61.7378 18.4568V19.5211H60.6735V18.4568H61.7378ZM60.6735 18.4568V19.5211H59.6092V18.4568H60.6735ZM60.6735 19.5211V20.5854H59.6092V19.5211H60.6735ZM61.7378 19.5211V20.5854H60.6735V19.5211H61.7378ZM61.7378 20.5854V21.6497H60.6735V20.5854H61.7378ZM60.6735 20.5854V21.6497H59.6092V20.5854H60.6735ZM60.6735 21.6497V22.714H59.6092V21.6497H60.6735ZM61.7378 21.6497V22.714H60.6735V21.6497H61.7378ZM62.8021 28.0355V29.0998H61.7378V28.0355H62.8021ZM63.8664 28.0355V29.0998H62.8021V28.0355H63.8664ZM64.9307 28.0355V29.0998H63.8664V28.0355H64.9307ZM64.9307 21.6497V22.714H63.8664V21.6497H64.9307ZM63.8664 21.6497V22.714H62.8021V21.6497H63.8664ZM62.8021 21.6497V22.714H61.7378V21.6497H62.8021ZM62.8021 17.3925V18.4568H61.7378V17.3925H62.8021ZM63.8664 17.3925V18.4568H62.8021V17.3925H63.8664ZM64.9307 17.3925V18.4568H63.8664V17.3925H64.9307ZM64.9307 20.5854V21.6497H63.8664V20.5854H64.9307ZM64.9307 19.5211V20.5854H63.8664V19.5211H64.9307ZM63.8664 19.5211V20.5854H62.8021V19.5211H63.8664ZM62.8021 19.5211V20.5854H61.7378V19.5211H62.8021ZM62.8021 18.4568V19.5211H61.7378V18.4568H62.8021ZM63.8664 18.4568V19.5211H62.8021V18.4568H63.8664ZM64.9307 18.4568V19.5211H63.8664V18.4568H64.9307ZM62.8021 20.5854V21.6497H61.7378V20.5854H62.8021ZM63.8664 20.5854V21.6497H62.8021V20.5854H63.8664ZM64.9307 30.1641V31.2284H63.8664V30.1641H64.9307ZM63.8664 30.1641V31.2284H62.8021V30.1641H63.8664ZM62.8021 30.1641V31.2284H61.7378V30.1641H62.8021ZM62.8021 29.0998V30.1641H61.7378V29.0998H62.8021ZM63.8664 29.0998V30.1641H62.8021V29.0998H63.8664ZM64.9307 29.0998V30.1641H63.8664V29.0998H64.9307ZM62.8021 31.2284V32.2927H61.7378V31.2284H62.8021ZM63.8664 31.2284V32.2927H62.8021V31.2284H63.8664ZM64.9307 31.2284V32.2927H63.8664V31.2284H64.9307ZM64.9307 32.2927V33.357H63.8664V32.2927H64.9307ZM63.8664 32.2927V33.357H62.8021V32.2927H63.8664ZM62.8021 32.2927V33.357H61.7378V32.2927H62.8021ZM71.3165 21.6497V22.714H70.2522V21.6497H71.3165ZM65.995 17.3925V18.4568H64.9307V17.3925H65.995ZM67.0593 17.3925V18.4568H65.995V17.3925H67.0593ZM68.1236 17.3925V18.4568H67.0593V17.3925H68.1236ZM69.1879 17.3925V18.4568H68.1236V17.3925H69.1879ZM70.2522 17.3925V18.4568H69.1879V17.3925H70.2522ZM70.2522 18.4568V19.5211H69.1879V18.4568H70.2522ZM71.3165 18.4568V19.5211H70.2522V18.4568H71.3165ZM71.3165 19.5211V20.5854H70.2522V19.5211H71.3165ZM71.3165 17.3925V18.4568H70.2522V17.3925H71.3165ZM71.3165 20.5854V21.6497H70.2522V20.5854H71.3165ZM70.2522 20.5854V21.6497H69.1879V20.5854H70.2522ZM69.1879 20.5854V21.6497H68.1236V20.5854H69.1879ZM68.1236 20.5854V21.6497H67.0593V20.5854H68.1236ZM67.0593 20.5854V21.6497H65.995V20.5854H67.0593ZM65.995 20.5854V21.6497H64.9307V20.5854H65.995ZM65.995 19.5211V20.5854H64.9307V19.5211H65.995ZM65.995 18.4568V19.5211H64.9307V18.4568H65.995ZM67.0593 18.4568V19.5211H65.995V18.4568H67.0593ZM68.1236 18.4568V19.5211H67.0593V18.4568H68.1236ZM69.1879 18.4568V19.5211H68.1236V18.4568H69.1879ZM69.1879 19.5211V20.5854H68.1236V19.5211H69.1879ZM70.2522 19.5211V20.5854H69.1879V19.5211H70.2522ZM68.1236 19.5211V20.5854H67.0593V19.5211H68.1236ZM67.0593 19.5211V20.5854H65.995V19.5211H67.0593ZM65.995 21.6497V22.714H64.9307V21.6497H65.995ZM67.0593 21.6497V22.714H65.995V21.6497H67.0593ZM68.1236 21.6497V22.714H67.0593V21.6497H68.1236ZM69.1879 21.6497V22.714H68.1236V21.6497H69.1879ZM70.2522 21.6497V22.714H69.1879V21.6497H70.2522ZM65.995 28.0355V29.0998H64.9307V28.0355H65.995ZM65.995 29.0998V30.1641H64.9307V29.0998H65.995ZM65.995 30.1641V31.2284H64.9307V30.1641H65.995ZM65.995 31.2284V32.2927H64.9307V31.2284H65.995ZM67.0593 31.2284V32.2927H65.995V31.2284H67.0593ZM67.0593 32.2927V33.357H65.995V32.2927H67.0593ZM65.995 32.2927V33.357H64.9307V32.2927H65.995ZM67.0593 28.0355V29.0998H65.995V28.0355H67.0593ZM67.0593 29.0998V30.1641H65.995V29.0998H67.0593ZM67.0593 30.1641V31.2284H65.995V30.1641H67.0593ZM68.1236 30.1641V31.2284H67.0593V30.1641H68.1236ZM69.1879 30.1641V31.2284H68.1236V30.1641H69.1879ZM69.1879 29.0998V30.1641H68.1236V29.0998H69.1879ZM69.1879 28.0355V29.0998H68.1236V28.0355H69.1879ZM68.1236 28.0355V29.0998H67.0593V28.0355H68.1236ZM68.1236 29.0998V30.1641H67.0593V29.0998H68.1236ZM68.1236 31.2284V32.2927H67.0593V31.2284H68.1236ZM68.1236 32.2927V33.357H67.0593V32.2927H68.1236ZM69.1879 32.2927V33.357H68.1236V32.2927H69.1879ZM69.1879 31.2284V32.2927H68.1236V31.2284H69.1879Z" fill="black"/>
</svg>
