<svg width="100" height="100" viewBox="0 0 100 100" fill="none" xmlns="http://www.w3.org/2000/svg">
<circle cx="50" cy="50" r="50" fill="#FF5D00" fill-opacity="0.1"/>
<path d="M22.7656 69.7008L27.0306 73.9664C27.0297 73.9658 27.0312 73.967 27.0306 73.9664C27.0315 73.967 27.0336 73.9691 27.0342 73.97L31.2983 78.235C32.4737 79.412 34.0206 80 35.5647 80C37.1116 80 38.6585 79.4123 39.8339 78.235C41.0094 79.412 42.5562 80 44.1004 80C45.6445 80 47.1911 79.4123 48.3669 78.235C49.507 77.0948 50.1346 75.5802 50.1346 73.9685C50.1346 72.3552 49.507 70.8394 48.3669 69.702L41.9661 63.3006L63.3 41.9665L69.7014 48.3686C70.8768 49.5428 72.4237 50.1306 73.9678 50.1306C75.512 50.1306 77.0586 49.5428 78.2343 48.3686C80.5886 46.0158 80.5886 42.1859 78.2343 39.8331C80.5886 37.4804 80.5886 33.6532 78.2343 31.3004L73.9693 27.0348C73.9687 27.0342 73.9703 27.0354 73.9693 27.0348C73.9684 27.0342 73.9663 27.0321 73.9657 27.0312L69.7017 22.7662C67.3456 20.4102 63.5181 20.4123 61.1663 22.7665C58.8151 20.4123 54.9846 20.412 52.6334 22.7662C51.4932 23.9064 50.8656 25.421 50.8656 27.0327C50.8656 28.646 51.4932 30.1618 52.6334 31.2992L59.0341 37.7006L37.7002 59.0347L31.2989 52.6327C28.9476 50.2844 25.1174 50.2829 22.7662 52.6342C20.412 54.9869 20.412 58.8156 22.7662 61.1684C20.4114 63.5205 20.4114 67.348 22.7656 69.7008ZM73.9678 44.1008L67.5668 37.6997L69.7014 39.8328C69.7062 39.8377 69.7125 39.841 69.7177 39.8461L73.9709 44.0978L73.9678 44.1008ZM73.9709 35.5636L73.9678 35.5666L71.8342 33.4326L73.9709 35.5636ZM61.166 31.2986L56.8995 27.0321L61.1594 31.2905C61.1618 31.2932 61.1636 31.2962 61.166 31.2986ZM44.1034 73.9655L44.1004 73.9685L37.6993 67.5674L44.1034 73.9655Z" fill="#FF5D00"/>
</svg>
