<svg width="100" height="100" viewBox="0 0 100 100" fill="none" xmlns="http://www.w3.org/2000/svg">
<circle cx="50" cy="50" r="50" fill="#FF5D00" fill-opacity="0.1"/>
<path d="M49.5015 38C54.2227 38 58.0499 33.7467 58.0499 28.5C58.0499 23.2533 54.2227 19 49.5015 19C44.7804 19 40.9531 23.2533 40.9531 28.5C40.9531 33.7467 44.7804 38 49.5015 38Z" fill="#FF5D00"/>
<path d="M73.2586 52.7601H69.0917L61.8636 43.4482C61.2632 42.678 60.5322 42.0625 59.7172 41.641C58.9023 41.2195 58.0212 41.0012 57.1302 41H41.8698C40.9788 41.0012 40.0977 41.2195 39.2828 41.641C38.4678 42.0625 37.7368 42.678 37.1364 43.4482L29.9083 52.7601H25.7414C25.0143 52.7601 24.317 53.098 23.8029 53.6995C23.2888 54.301 23 55.1168 23 55.9674C23 56.818 23.2888 57.6338 23.8029 58.2353C24.317 58.8368 25.0143 59.1747 25.7414 59.1747H33.0517C33.2652 59.1748 33.472 59.0878 33.6366 58.9288L39.3021 53.4016L40.0057 63.6329L29.2595 62.6279C28.2474 62.5311 27.2401 62.8717 26.4282 63.5851C25.6163 64.2986 25.056 65.3355 24.8534 66.4996C24.6508 67.6637 24.8199 68.8744 25.3287 69.9025C25.8376 70.9306 26.6508 71.7048 27.6147 72.0788L39.5397 76.7293L47.4622 79.8191C48.1547 80.0877 48.9066 80.0563 49.5809 79.7306C50.2552 79.4048 50.807 78.8064 51.1357 78.0443C51.2373 77.8103 51.314 77.5625 51.3641 77.3067C51.5394 76.4898 51.46 75.6266 51.1401 74.8722C50.8202 74.1177 50.2808 73.5215 49.6188 73.1906L40.8829 68.8073L41.5957 66.8402L50.1853 71.1486L50.1762 71.1059L59.2776 67.781L59.8259 69.8123L52.0312 72.6668C52.4495 73.1974 52.7754 73.8184 52.9907 74.4949C53.2159 75.2237 53.3122 75.9984 53.274 76.7721L71.1112 71.8115C72.0884 71.537 72.9413 70.8416 73.4999 69.8641C74.0584 68.8866 74.2815 67.6987 74.1247 66.5373C73.9679 65.3759 73.4427 64.3262 72.6538 63.5977C71.865 62.8692 70.8704 62.5153 69.8685 62.6065L58.9943 63.6329L59.6979 53.4016L65.3634 58.9288C65.528 59.0878 65.7348 59.1748 65.9483 59.1747H73.2586C73.9857 59.1747 74.683 58.8368 75.1971 58.2353C75.7112 57.6338 76 56.818 76 55.9674C76 55.1168 75.7112 54.301 75.1971 53.6995C74.683 53.098 73.9857 52.7601 73.2586 52.7601Z" fill="#FF5D00"/>
</svg>
