<svg width="100" height="100" viewBox="0 0 100 100" fill="none" xmlns="http://www.w3.org/2000/svg">
<circle cx="50" cy="50" r="50" fill="#FF5D00" fill-opacity="0.1"/>
<path d="M60.4881 42.5714C60.0059 35.2549 57.384 28.0897 52.5319 22.1337C51.2963 20.6221 49.036 20.6221 47.8004 22.1337C42.9855 27.9209 40.07 35.0588 39.4524 42.5714C43.31 44.6272 46.8661 47.2877 49.9703 50.5227C53.0744 47.318 56.6306 44.6574 60.4881 42.5714ZM40.899 50.5831C40.4771 50.2808 39.9949 50.0087 39.5428 49.7064C39.9949 50.0389 40.4771 50.2808 40.899 50.5831ZM49.9703 60.167C44.0935 51.1878 34.4798 44.9598 23.3592 43.8714C21.4304 43.69 19.8332 45.2923 20.014 47.2273C21.3702 61.7392 31.014 73.772 44.0634 78.4581C45.962 79.1535 47.9511 79.6674 50.0004 80C52.0497 79.6372 54.0086 79.1232 55.9374 78.4581C68.9868 73.772 78.6306 61.7694 79.9868 47.2273C80.0286 46.7761 79.9708 46.3212 79.8174 45.895C79.6641 45.4688 79.419 45.0818 79.0997 44.7614C78.7803 44.441 78.3944 44.1951 77.9696 44.0413C77.5447 43.8875 77.0913 43.8295 76.6416 43.8714C65.4607 44.9598 55.847 51.1878 49.9703 60.167Z" fill="#FF5D00"/>
</svg>
