<svg width="100" height="100" viewBox="0 0 100 100" fill="none" xmlns="http://www.w3.org/2000/svg">
<circle cx="50" cy="50" r="50" fill="#FF5D00" fill-opacity="0.1"/>
<path d="M51.8419 44.1723C48.3937 43.894 43.5713 42.9118 39.3139 39.3684C31.4657 32.8382 34.2803 25.6883 34.2803 25.6883C34.2803 25.6883 40.3889 23.8629 47.1098 28.4644C46.9508 29.4593 46.8416 30.5069 46.8416 31.6473C46.8416 37.8086 49.4284 41.7883 51.8419 44.1723ZM68.2002 31.6473C68.2002 30.5069 68.0911 29.4593 67.9321 28.4644C74.6529 23.8629 80.7615 25.6883 80.7615 25.6883C80.7615 25.6883 83.5761 32.8403 75.728 39.3684C71.4681 42.9118 66.6482 43.8919 63.1999 44.1723C65.6135 41.7883 68.2002 37.8086 68.2002 31.6473ZM64.6405 31.6473C64.6405 41.1327 57.5209 44.2945 57.5209 44.2945C57.5209 44.2945 50.4014 41.1327 50.4014 31.6473C50.4014 22.1618 57.5209 19 57.5209 19C57.5209 19 64.6405 22.1618 64.6405 31.6473ZM84.9573 51.3285L71.5963 63.1853C70.0252 64.5807 67.9558 65.4407 65.744 65.6199L47.3518 66.834L35.0943 77.6917C34.6316 78.1028 33.8793 78.1028 33.4165 77.6917L23.3471 68.7459C22.8843 68.3349 22.8843 67.6667 23.3471 67.2556L41.0131 51.5899C43.2391 49.6169 46.253 48.5103 50.7312 48.5103H65.2338C66.9353 48.5103 68.5776 49.3787 69.1495 50.8036C69.973 52.8651 68.4257 54.8402 66.2281 55.0573L56.1587 56.5645C53.8259 56.9144 54.412 60.0319 56.7496 59.6799L66.6197 58.1981C69.6479 57.9009 72.1896 55.8878 72.7947 53.175L79.9214 46.8556C81.3121 45.6204 83.5666 45.6204 84.9549 46.8556C86.348 48.0908 86.348 50.0933 84.9573 51.3285Z" fill="#FF5D00"/>
</svg>
