<svg width="100" height="100" viewBox="0 0 100 100" fill="none" xmlns="http://www.w3.org/2000/svg">
<circle cx="50" cy="50" r="50" fill="#FF5D00" fill-opacity="0.1"/>
<g clip-path="url(#clip0_0_1)">
<path d="M71.7587 53.1345L46.7155 28.3771L46.7223 28.3843C43.8995 25.5603 40.1827 24.1405 36.4822 24.1431C32.7818 24.1406 29.0646 25.5603 26.2416 28.3844C23.4169 31.2083 21.9981 34.9244 22 38.6252C21.9981 42.3261 23.4169 46.0429 26.2417 48.8662L51.2841 73.6229L51.2774 73.6157C54.101 76.4397 57.8171 77.8585 61.5176 77.857C65.2185 77.8585 68.9344 76.4397 71.7581 73.6165C74.5829 70.7916 76.0017 67.074 76.0001 63.374C76.0017 59.6738 74.5832 55.9578 71.7587 53.1345ZM30.3957 42.7947C27.9968 40.3963 27.9968 36.4427 30.426 34.014C31.6021 32.8375 33.1663 32.1902 34.8307 32.1902L30.3957 42.7947ZM69.3189 71.1773C67.1604 73.3341 64.3471 74.4062 61.5175 74.407C58.6882 74.4062 55.8745 73.3341 53.7156 71.1764L53.71 71.171L53.7093 71.1693L42.1703 59.7622C42.2041 59.5399 42.2552 59.2791 42.3289 58.9898C42.5959 57.921 43.1335 56.4815 43.9446 54.9589C45.1598 52.6713 46.9906 50.1909 49.4106 48.2786C51.8193 46.3784 54.7742 45.0201 58.4368 44.8144L69.3146 55.5678L69.3197 55.5718C71.4766 57.7311 72.5486 60.544 72.5511 63.3736C72.5486 66.2035 71.4774 69.0172 69.3189 71.1773Z" fill="#FF5D00"/>
</g>
<defs>
<clipPath id="clip0_0_1">
<rect width="54" height="54" fill="white" transform="translate(22 24)"/>
</clipPath>
</defs>
</svg>
