<svg width="100" height="100" viewBox="0 0 100 100" fill="none" xmlns="http://www.w3.org/2000/svg">
<circle cx="50" cy="50" r="50" fill="#FF5D00" fill-opacity="0.1"/>
<path d="M48.9986 20C31.879 20.0008 18 33.8727 18 50.9859C18 64.2679 26.3642 75.595 38.1145 80L45.2586 60.9593C41.2178 59.4462 38.3439 55.5503 38.3439 50.9859C38.3439 45.1042 43.1151 40.3356 49 40.3356C54.8849 40.3356 59.6561 45.1042 59.6561 50.9859C59.6561 55.5531 56.7794 59.4462 52.7414 60.9593L59.8855 80C71.6358 75.595 80 64.2679 80 50.9859C80 33.8727 66.121 20.0008 48.9986 20ZM48.9986 20C48.9991 20 48.9995 20 49 20H48.9972C48.9977 20 48.9981 20 48.9986 20Z" fill="#FF5D00"/>
<path d="M35.6468 67.9672C33.5422 70.2632 30.8741 68.7567 30.8741 68.7567C30.8741 68.7567 29.5733 65.7587 31.5978 63.5501C31.7719 63.3603 31.9849 63.2528 32.1887 63.1229L30.7802 61.5864C30.0451 61.8612 29.3512 62.296 28.7649 62.9355C26.7084 65.1791 26.8275 73.1713 26.8275 73.1713C26.8275 73.1713 34.1559 73.2987 36.2102 71.0577C36.7965 70.4181 37.1949 69.6611 37.4469 68.8591L36.0407 67.3251C35.9193 67.545 35.8209 67.7774 35.6468 67.9672Z" fill="#FF5D00"/>
</svg>
