<svg width="50" height="50" viewBox="0 0 50 50" fill="none" xmlns="http://www.w3.org/2000/svg">
<g clip-path="url(#clip0_12569_6909)">
<path d="M24.5075 9.71212C24.5075 10.2761 24.0142 10.7334 23.4045 10.7334C22.7949 10.7334 22.3016 10.2761 22.3016 9.71212V8.69092H20.0957V14.8184H26.7134V8.69092H24.5075V9.71212Z" fill="#A3ACB5"/>
<path d="M7.22821 41.6569C9.39101 41.6569 11.1498 39.8976 11.1498 37.7353C11.1498 35.9134 9.89539 34.3914 8.2086 33.9529V27.9314H23.8949V29.9913C21.6603 30.4468 19.9733 32.427 19.9733 34.7941C19.9733 37.4969 22.1725 39.6961 24.8753 39.6961C27.5781 39.6961 29.7772 37.4969 29.7772 34.7941C29.7772 32.427 28.0903 30.4468 25.8557 29.9913V27.9314H41.542V33.9529C39.8552 34.3914 38.6008 35.9134 38.6008 37.7353C38.6008 39.8976 40.3596 41.6569 42.5223 41.6569C44.6851 41.6569 46.4439 39.8976 46.4439 37.7353C46.4439 35.9134 45.1895 34.3914 43.5027 33.9529V26.951C43.5027 26.4096 43.0642 25.9706 42.5223 25.9706H25.8557V23.964C26.3433 23.8582 26.7135 23.472 26.7135 22.9886V21.4916C27.3285 21.3121 27.9263 21.0827 28.4993 20.8049L29.6443 21.8646C30.0579 22.2476 30.7903 22.2476 31.2039 21.8646L34.3232 18.9759C34.754 18.577 34.754 17.9307 34.3232 17.5318L33.1782 16.4717C33.4787 15.9411 33.7264 15.3886 33.9203 14.8186H35.537C36.1467 14.8186 36.64 14.3613 36.64 13.7974V9.71238C36.64 9.1484 36.1467 8.69117 35.537 8.69117H33.9203C33.7265 8.12121 33.4787 7.56866 33.1782 7.03813L34.3232 5.97797C34.754 5.57903 34.754 4.93278 34.3232 4.53389C34.3232 4.53389 31.2056 1.64675 31.2039 1.6452C30.7767 1.24948 30.0704 1.25056 29.6443 1.6452L28.4993 2.70482C27.9263 2.42706 27.3285 2.1977 26.7135 2.01818V0.521206C26.7135 -0.0427745 26.2202 -0.5 25.6106 -0.5H21.1988C20.5892 -0.5 20.0959 -0.0427745 20.0959 0.521206V2.01819C19.4808 2.19771 18.8831 2.42706 18.3101 2.70484L17.1651 1.64522C16.7515 1.26226 16.0191 1.26226 15.6055 1.64522L12.4862 4.53391C12.0554 4.9328 12.0554 5.57905 12.4862 5.97799L13.6312 7.03815C13.3307 7.56868 13.0829 8.12123 12.889 8.69119H11.2723C10.6627 8.69119 10.1694 9.14842 10.1694 9.7124V13.7974C10.1694 14.3614 10.6627 14.8187 11.2723 14.8187H12.889C13.0829 15.3886 13.3307 15.9411 13.6312 16.4717L12.4862 17.5318C12.0554 17.9307 12.0554 18.577 12.4862 18.9759C12.4862 18.9759 15.5936 21.8536 15.6054 21.8646C16.0328 22.2603 16.7392 22.259 17.1651 21.8646L18.3101 20.805C18.8831 21.0827 19.4808 21.3121 20.0959 21.4916V22.9886C20.0959 23.5525 20.5892 24.0098 21.1988 24.0098H23.8949V25.9706H7.22821C6.68632 25.9706 6.24782 26.4096 6.24782 26.951V33.9529C4.56103 34.3914 3.30664 35.9134 3.30664 37.7353C3.30664 39.8976 5.06542 41.6569 7.22821 41.6569ZM18.9929 16.8611C18.3833 16.8611 17.89 16.4038 17.89 15.8398V7.66992C17.89 7.10594 18.3833 6.64865 18.9929 6.64865H27.8165C28.4261 6.64865 28.9194 7.10594 28.9194 7.66992V15.8398C28.9194 16.4038 28.4261 16.8611 27.8165 16.8611H18.9929Z" fill="#A3ACB5"/>
<path d="M11.7966 41.4512C10.7084 42.7747 9.07112 43.6179 7.22798 43.6179C5.38484 43.6179 3.7476 42.7747 2.65938 41.4512C1.25736 42.6963 0.365234 44.5296 0.365234 46.559V48.5198C0.365234 49.059 0.806421 49.5002 1.34563 49.5002H13.1103C13.6495 49.5002 14.0907 49.059 14.0907 48.5198V46.559C14.0907 44.5296 13.1986 42.6963 11.7966 41.4512Z" fill="#A3ACB5"/>
<path d="M47.0905 41.4512C46.0023 42.7747 44.3651 43.6179 42.5219 43.6179C40.6788 43.6179 39.0415 42.7747 37.9533 41.4512C36.5513 42.6963 35.6592 44.5296 35.6592 46.559V48.5198C35.6592 49.059 36.1004 49.5002 36.6396 49.5002H48.4043C48.9435 49.5002 49.3847 49.059 49.3847 48.5198V46.559C49.3847 44.5296 48.4925 42.6963 47.0905 41.4512Z" fill="#A3ACB5"/>
<path d="M29.9832 39.3726C28.7282 40.7745 26.9047 41.6569 24.8753 41.6569C22.8459 41.6569 21.0224 40.7745 19.7674 39.3726C17.5223 40.9706 16.0518 43.5981 16.0518 46.5589V48.5196C16.0518 49.0588 16.4929 49.5 17.0322 49.5H32.7184C33.2576 49.5 33.6988 49.0588 33.6988 48.5196V46.5589C33.6988 43.5981 32.2282 40.9706 29.9832 39.3726Z" fill="#A3ACB5"/>
</g>
<defs>
<clipPath id="clip0_12569_6909">
<rect width="50" height="50" fill="white"/>
</clipPath>
</defs>
</svg>
