<svg width="74" height="74" viewBox="0 0 74 74" fill="none" xmlns="http://www.w3.org/2000/svg">
<path fill-rule="evenodd" clip-rule="evenodd" d="M43.5721 0C43.037 0 42.5401 0.115119 42.0814 0.268602C43.0561 0.920919 43.5912 1.78429 43.8587 2.76276C43.8779 2.89706 43.916 2.993 43.9352 3.12729C43.9543 3.24241 43.9734 3.35753 43.9734 3.47264C44.0499 5.16099 43.5338 5.37204 43.1707 6.3697C42.6165 7.65516 42.7694 9.03654 43.4383 10.1493C43.4956 10.2836 43.5721 10.4371 43.6676 10.5714C42.9414 5.71738 46.9737 4.98832 47.719 3.47264C47.7764 2.14882 46.6871 1.26627 45.8271 0.652318C45.0054 0.153488 44.26 0 43.5721 0ZM49.6492 1.09359C49.5728 1.53487 49.6301 1.41975 49.611 1.64998C49.5919 1.80347 49.5919 1.99533 49.5728 2.14882C49.5347 2.3023 49.4964 2.45579 49.4391 2.60928C49.4009 2.76276 49.3435 2.91625 49.2862 3.06973C49.2097 3.22323 49.1524 3.35752 49.076 3.51101C49.0186 3.58779 48.9804 3.66449 48.9231 3.74124C48.8849 3.7988 48.8466 3.85636 48.8084 3.91392C48.7129 4.04822 48.6173 4.18252 48.5218 4.29763C48.4071 4.41275 48.3115 4.54705 48.1778 4.64298V4.66219C48.0631 4.75812 47.9484 4.87324 47.8147 4.96916C47.4133 5.27613 46.9547 5.50637 46.5343 5.79416C46.4005 5.89008 46.2667 5.96683 46.152 6.08194C46.0183 6.17787 45.9036 6.2738 45.7889 6.38892C45.6552 6.50403 45.5596 6.61915 45.4449 6.75345C45.3494 6.86857 45.2347 7.00286 45.1583 7.13717C45.0627 7.27146 44.9672 7.40577 44.8907 7.54007C44.8143 7.69355 44.757 7.82786 44.6805 7.98134C44.6232 8.13482 44.5659 8.26913 44.5276 8.42261C44.4703 8.59529 44.4321 8.74878 44.3939 8.90227C44.3747 8.97904 44.3747 9.07493 44.3557 9.15168C44.3365 9.22845 44.3365 9.30516 44.3175 9.38191C44.3175 9.5354 44.2984 9.70807 44.2984 9.86155C44.2984 9.97667 44.2984 10.0918 44.3175 10.2069C44.3175 10.3604 44.3366 10.5139 44.3748 10.6865C44.3939 10.84 44.4321 10.9935 44.4704 11.147C44.5277 11.3005 44.5659 11.454 44.6233 11.6075C44.6614 11.7034 44.7188 11.7993 44.757 11.8761L40.3616 10.1685C39.6163 9.95748 38.8901 9.76563 38.1448 9.59295C37.7434 9.49703 37.3421 9.4011 36.9408 9.30517C35.7941 9.07494 34.6284 8.90227 33.4627 8.78715C33.4245 8.78715 33.4053 8.76794 33.3671 8.76794C32.2205 8.65283 31.0929 8.59527 29.9463 8.59527C29.1054 8.59527 28.2646 8.63361 27.4428 8.6912C26.2771 8.76797 25.1113 8.92143 23.9456 9.11328C23.6589 9.15163 23.3722 9.20922 23.0856 9.26678C22.4932 9.38188 21.9198 9.51619 21.3656 9.65049C21.079 9.72727 20.7923 9.80398 20.5057 9.88072C20.219 9.99583 19.9515 10.1301 19.6839 10.2453C19.4737 10.3412 19.2635 10.4371 19.0533 10.533C19.0151 10.5523 18.9768 10.5523 18.9577 10.5714C18.7666 10.6673 18.5946 10.744 18.4226 10.84C18.3653 10.8592 18.327 10.8783 18.2888 10.8975C18.0786 10.9935 17.8684 11.1086 17.6964 11.2045C17.5626 11.2621 17.4289 11.3388 17.3142 11.3964C17.2569 11.4347 17.1804 11.4731 17.1422 11.4923C16.9702 11.5882 16.7982 11.6842 16.6453 11.7801C16.4733 11.876 16.3204 11.9719 16.1867 12.0679C16.0529 12.1638 15.9191 12.2405 15.8044 12.3365C15.7853 12.3557 15.7663 12.3557 15.7471 12.3748C15.6324 12.4516 15.4987 12.5475 15.384 12.6434C15.384 12.6434 15.3649 12.6626 15.3458 12.6818C15.2503 12.7585 15.1547 12.8353 15.0592 12.912C15.021 12.9312 14.9827 12.9695 14.9445 12.9888C14.8489 13.0655 14.7534 13.1614 14.6578 13.2382C14.6387 13.2765 14.6005 13.2957 14.5814 13.315C14.4667 13.4301 14.352 13.526 14.2374 13.6411C14.2182 13.6411 14.2182 13.6603 14.1992 13.6795C14.0845 13.7754 13.9699 13.8905 13.8552 14.0056C13.8361 14.0248 13.8361 14.044 13.817 14.044C13.7215 14.1399 13.6259 14.2358 13.5303 14.3509C13.4921 14.3893 13.4348 14.4277 13.3966 14.466C13.301 14.5812 13.1864 14.6963 13.0717 14.8114C13.0525 14.8497 13.0144 14.869 12.9952 14.9073C12.8423 15.0608 12.7086 15.2143 12.5557 15.3678C12.5365 15.387 12.5175 15.4061 12.4983 15.4253C12.1926 15.7515 11.8677 16.0777 11.5237 16.3654C11.1797 16.6724 10.8166 16.9602 10.4535 17.2096C10.0713 17.4782 9.70819 17.7085 9.30687 17.9387C8.92465 18.1497 8.52333 18.3416 8.1029 18.5143C7.70157 18.6869 7.28114 18.8404 6.86071 18.9747C6.05806 19.1474 5.2363 19.4736 4.52921 19.5311C4.37633 19.5311 4.20433 19.5695 4.05145 19.5887C3.87945 19.627 3.72657 19.6654 3.57369 19.7038C3.4208 19.7613 3.26791 19.8189 3.11503 19.8765C2.96215 19.934 2.80926 20.0108 2.65638 20.0875C2.5226 20.1834 2.36972 20.2602 2.23594 20.3561C2.10217 20.452 1.96839 20.5671 1.85373 20.6823C1.71996 20.7782 1.58618 20.9125 1.47152 21.0276C1.35685 21.1619 1.24219 21.277 1.14664 21.4113C1.05108 21.5648 0.93642 21.6991 0.859974 21.8526C0.764423 21.9869 0.668872 22.1404 0.592426 22.2939C0.515953 22.4666 0.439543 22.62 0.382211 22.7927C0.324879 22.9462 0.267546 23.1189 0.210214 23.2915C0.172023 23.445 0.133741 23.5985 0.114664 23.752C0.114664 23.7712 0.0955235 23.7903 0.0955235 23.8096C0.0573319 23.9822 0.0573318 24.2125 0.038191 24.3276C0.019051 24.4619 0 24.577 0 24.7113C0 24.7881 5.94928e-08 24.884 0.0191401 24.9607C0.0382801 25.095 0.057331 25.2101 0.0956129 25.3253C0.133804 25.4404 0.172086 25.5555 0.229382 25.6706V25.6898C0.286714 25.8049 0.36316 25.92 0.439598 26.0352C0.51607 26.1503 0.59249 26.2654 0.68804 26.3805C0.783591 26.4764 0.898256 26.5915 1.01292 26.6875C1.12758 26.8026 1.24225 26.8985 1.37602 26.9944C1.83468 27.3973 1.94934 27.5317 2.54177 27.8386C2.63732 27.8962 2.73288 27.9346 2.84754 27.9921C2.86669 27.9921 2.88574 28.0113 2.90488 28.0113C2.90488 28.0497 2.90488 28.0689 2.92402 28.1073C2.94316 28.2607 2.98135 28.4142 3.01957 28.5677C3.05776 28.7404 3.11513 28.8939 3.17246 29.0282C3.22979 29.1433 3.26801 29.2584 3.32535 29.3735C3.34449 29.4119 3.36354 29.4503 3.38268 29.4695C3.45915 29.6229 3.53556 29.7573 3.612 29.8915C3.70756 30.0258 3.80311 30.1601 3.89866 30.2945C3.99421 30.4096 4.10887 30.5439 4.22354 30.659C4.3382 30.7741 4.45287 30.87 4.58665 30.9851C4.58665 30.9851 4.60579 31.0044 4.62484 31.0044C4.7395 31.1003 4.85417 31.1962 4.96883 31.273C5.1026 31.3689 5.23638 31.4456 5.38926 31.5224C5.52304 31.5992 5.67592 31.6759 5.82881 31.7334C5.94347 31.791 6.07724 31.8294 6.21102 31.8677C6.23016 31.887 6.24921 31.887 6.28749 31.9061C6.36396 31.9253 6.45948 31.9444 6.53592 31.9636C6.47859 32.9997 6.45945 33.9781 6.6124 34.3235C6.78439 34.7072 7.62526 33.5369 8.46613 32.1939C8.35146 33.5177 8.27502 35.0717 8.46613 35.5322C8.67634 36.0118 9.82298 34.5154 10.8167 32.8654C24.3661 29.7189 36.7307 39.12 38.0302 52.3966C37.7818 50.3245 35.2401 49.1733 34.0744 49.4611C33.501 50.8809 32.5264 52.7035 30.9593 53.8355C31.0931 52.5692 31.0358 51.2646 30.7682 49.9983C30.3478 51.7634 29.526 53.4134 28.3985 54.8332C26.583 54.9675 24.7675 54.0849 23.8119 52.7611C23.7355 52.7035 23.7164 52.5884 23.6591 52.5117C23.6017 52.3774 23.5444 52.2431 23.5062 52.1088C23.4488 51.9745 23.4106 51.8402 23.3915 51.7059C23.3724 51.5716 23.3724 51.4373 23.3724 51.2838C23.3724 51.1879 23.3724 51.0919 23.3724 50.996C23.3915 50.8617 23.4297 50.7274 23.4679 50.5931C23.5061 50.4588 23.5444 50.3245 23.6017 50.1902C23.6782 50.0559 23.7355 49.9216 23.831 49.7873C24.1559 48.8664 24.1559 48.1181 23.5635 47.6768C23.4488 47.6001 23.3341 47.5425 23.2004 47.485C23.1239 47.4658 23.0284 47.4274 22.9519 47.4082C22.8946 47.389 22.8564 47.3699 22.7991 47.3507C22.6653 47.3123 22.5315 47.2739 22.3977 47.2547C22.2639 47.2164 22.1302 47.1972 21.9964 47.1972C21.8626 47.1779 21.7097 47.1588 21.576 47.1588C21.4804 47.1588 21.3849 47.178 21.2893 47.178C21.1364 47.178 21.0026 47.1973 20.8689 47.2356C20.7351 47.2548 20.6013 47.2739 20.4676 47.3124C20.3338 47.3507 20.2 47.3891 20.0662 47.4467C19.9325 47.5042 19.8178 47.5618 19.684 47.6193C19.5694 47.6769 19.4547 47.7536 19.3209 47.8112C14.8681 50.7274 17.5245 57.5576 20.5631 59.5338C19.4165 59.7448 18.2507 59.9942 17.9258 60.2436C17.9067 60.2628 17.8877 60.282 17.8877 60.282C18.7094 60.7808 19.5694 61.2029 20.4676 61.5674C21.6907 61.9703 22.9902 62.3349 23.5635 62.4883V62.5076C25.1497 62.8337 26.755 62.9488 28.3794 62.8529C36.8454 62.2581 43.7825 55.7925 45.0438 47.274C45.082 47.4467 45.1203 47.6001 45.1585 47.7728C45.2158 48.1182 45.2923 48.4827 45.3305 48.8472V48.8665C45.3687 49.0391 45.3878 49.2118 45.407 49.3653V49.4421C45.4261 49.6147 45.4452 49.7874 45.4452 49.9409C45.4643 50.1519 45.4834 50.363 45.4834 50.574V50.881C45.4834 50.9769 45.5025 51.0921 45.5025 51.188C45.5025 51.3031 45.4834 51.4182 45.4834 51.5333V51.8019C45.4834 51.9362 45.4642 52.0513 45.4642 52.1856C45.4642 52.2624 45.4642 52.3391 45.4451 52.4351C45.4451 52.5694 45.4259 52.7037 45.4259 52.8572C45.4068 52.9147 45.4068 52.9723 45.4068 53.0298C45.3876 53.1833 45.3686 53.3176 45.3494 53.4711C45.3494 53.5287 45.3494 53.5862 45.3303 53.6438C45.3111 53.8356 45.273 54.0083 45.2538 54.2002V54.2194V54.2386C45.2156 54.4113 45.1773 54.6031 45.1391 54.7758V54.8334C45.101 55.006 45.0627 55.1787 45.0245 55.3514C45.0245 55.3706 45.0054 55.409 45.0054 55.4282C44.9672 55.6008 44.9289 55.7735 44.8716 55.9462V56.0037C44.8143 56.1956 44.7569 56.3683 44.7187 56.5409C44.6996 56.5602 44.6996 56.5793 44.6996 56.5793C44.6422 56.7711 44.5849 56.963 44.5276 57.1549C44.4511 57.3467 44.3938 57.5194 44.3174 57.7113C44.2409 57.9031 44.1836 58.095 44.1071 58.2676C44.0307 58.4595 43.9542 58.6322 43.8778 58.824H43.8586C43.7822 58.9967 43.7057 59.1886 43.6102 59.3612C43.5911 59.4188 43.572 59.4572 43.5529 59.4955C43.5337 59.5148 43.5337 59.5339 43.5147 59.5531C42.2725 62.0664 40.4379 64.2728 38.1446 65.9995C37.9917 66.0955 37.8388 66.2106 37.6859 66.3257C37.6478 66.364 37.5904 66.3833 37.5522 66.4216C37.4184 66.5175 37.2846 66.6135 37.1317 66.7094L37.1891 66.8245H37.2082C37.4757 66.7862 37.7433 66.7478 38.0108 66.7094H38.03C38.5269 66.6326 39.0237 66.5367 39.5206 66.4408C39.6544 66.4216 39.8073 66.3833 39.941 66.3449C40.0366 66.3256 40.113 66.3065 40.2086 66.2873C40.3424 66.2681 40.4761 66.2298 40.6099 66.2105C40.7246 66.1722 40.8393 66.153 40.9539 66.1146C42.865 65.6542 44.7187 65.021 46.496 64.2728C43.4574 68.4361 39.3868 71.7936 34.6283 74C36.826 73.8465 39.0237 73.482 41.145 72.868C48.8466 70.5849 55.3251 65.3856 59.2045 58.3827C58.421 62.8147 56.6628 67.0355 54.0638 70.7192C55.9175 69.4913 57.6184 68.0716 59.1663 66.46C63.4471 61.9705 66.2564 56.2723 67.2119 50.152C67.8617 53.1833 68.0528 56.3107 67.7661 59.3996C81.564 40.0794 68.9127 20.0494 63.6191 14.7733C63.5999 14.7349 63.5809 14.7157 63.5809 14.6773C63.5617 14.6966 63.5617 14.6966 63.5617 14.7157C63.5617 14.6965 63.5617 14.6965 63.5426 14.6773C63.5426 14.9076 63.5235 15.1378 63.5044 15.368C63.4471 15.8093 63.3898 16.2314 63.3133 16.6535C63.2178 17.0756 63.1031 17.4977 62.9884 17.9198C62.8547 18.3227 62.7018 18.7447 62.5298 19.1476C62.3578 19.5314 62.1667 19.9343 61.9565 20.318C61.7462 20.6825 61.5169 21.0662 61.2685 21.4116C61.02 21.7761 60.7525 22.1215 60.4849 22.4476C60.1983 22.793 59.8925 23.0999 59.5867 23.4069C59.3956 23.5796 59.2236 23.7331 59.0325 23.8865C58.8796 24.0209 58.7459 24.136 58.593 24.2703C58.249 24.5389 57.905 24.7883 57.5228 25.0185C57.1597 25.2487 56.7775 25.479 56.3953 25.6708C55.9939 25.8627 55.5926 26.0354 55.1913 26.208C54.79 26.3615 54.3695 26.4958 53.9491 26.6109C53.5287 26.7261 53.0891 26.822 52.6687 26.8987C52.2292 26.9755 51.7896 27.0138 51.3692 27.0522C51.0634 27.0714 50.7576 27.0906 50.4519 27.0906C50.0123 27.0906 49.5728 27.0522 49.1523 27.0138C48.7128 26.9755 48.2733 26.9179 47.8528 26.8219C47.4133 26.7452 46.9928 26.6301 46.5724 26.4958H46.5533C46.9737 26.4574 47.3941 26.419 47.8146 26.3423C48.2541 26.2655 48.6745 26.1696 49.095 26.0545C49.5154 25.9394 49.9359 25.8051 50.3372 25.6516C50.7576 25.4981 51.1589 25.3062 51.5411 25.1144C51.9425 24.9225 52.3056 24.7115 52.6878 24.4813C53.0509 24.2318 53.414 23.9824 53.758 23.7138C54.102 23.4452 54.4268 23.1574 54.7326 22.8505C55.0575 22.5627 55.3442 22.2365 55.6308 21.9103C55.9175 21.565 56.185 21.2197 56.4335 20.8743C56.4717 20.8168 56.5099 20.74 56.5481 20.6825C56.7392 20.3755 56.9303 20.0685 57.1023 19.7615C57.3125 19.3778 57.5037 18.9941 57.6756 18.5912C57.8476 18.1883 58.0005 17.7854 58.1343 17.3633C58.2681 16.9604 58.3636 16.5383 58.4592 16.1162C58.5357 15.6749 58.6121 15.2529 58.6503 14.8308C58.6885 14.3895 58.7268 13.9482 58.7268 13.5261C58.7268 13.2192 58.7076 12.9122 58.6886 12.6052C58.6504 12.1639 58.593 11.7418 58.5357 11.3198C58.4592 10.8785 58.3637 10.4564 58.249 10.0343C58.1153 9.63141 57.9815 9.20931 57.8286 8.80642C57.6757 8.40351 57.4846 8.00061 57.2935 7.61689C57.0833 7.23317 56.8731 6.84945 56.6437 6.48493C56.3953 6.1204 56.1469 5.77505 55.8793 5.4297C55.5927 5.10354 55.306 4.77738 55.0002 4.45123C54.8473 4.29774 54.6753 4.12507 54.5033 3.97158C53.6434 3.30007 52.7452 2.66694 51.847 2.09137C51.7132 2.01459 51.5985 1.95706 51.4648 1.8995C50.8341 1.4966 50.2416 1.28545 49.6492 1.09359Z" fill="#E0234E"/>
</svg>
