<svg width="74" height="74" viewBox="0 0 74 74" fill="none" xmlns="http://www.w3.org/2000/svg">
<g clip-path="url(#clip0_23125_70207)">
<path d="M37 73C56.8823 73 73 56.8823 73 37C73 17.1177 56.8823 1 37 1C17.1177 1 1 17.1177 1 37C1 56.8823 17.1177 73 37 73Z" fill="#635BFF"/>
<path d="M55.9613 37.2638C55.9613 34.5673 54.6548 32.4389 52.1588 32.4389C49.6627 32.4389 48.1348 34.5666 48.1348 37.2427C48.1348 40.4131 49.9256 42.0148 52.4941 42.0148C53.7478 42.0148 54.6956 41.7336 55.4121 41.33V39.2206C54.6956 39.5785 53.8744 39.8 52.8316 39.8C51.81 39.8 50.9037 39.4421 50.7884 38.1989H55.9395C55.9402 38.0639 55.9613 37.5162 55.9613 37.2638ZM50.7581 36.2632C50.7581 35.0729 51.4852 34.5757 52.1489 34.5757C52.7916 34.5757 53.4764 35.0679 53.4764 36.2632H50.7581ZM44.0686 32.4389C43.3002 32.4361 42.5604 32.7306 42.0042 33.2609L41.8671 32.6077H39.5468V44.8899L42.18 44.3316L42.1905 41.3504C42.5695 41.6246 43.1278 42.0141 44.0552 42.0141C45.941 42.0141 47.658 40.4975 47.658 37.1583C47.6496 34.1032 45.9115 32.4389 44.0686 32.4389ZM43.4358 39.6966C42.8142 39.6966 42.4458 39.4751 42.1927 39.2044L42.1821 35.2964C42.4563 34.9913 42.8353 34.7804 43.4358 34.7804C44.3941 34.7804 45.0579 35.8547 45.0579 37.235C45.0586 38.6433 44.4054 39.6966 43.4365 39.6966H43.4358ZM35.9257 31.8174L38.5695 31.2486V29.1104L35.9257 29.6686V31.8174ZM35.9257 32.6182H38.5695V41.8355H35.9257V32.6182ZM33.0921 33.3973L32.922 32.6182H30.648V41.8348H33.2812V35.5882C33.9028 34.7768 34.9561 34.9245 35.2823 35.0405V32.6182C34.9463 32.4917 33.7137 32.2596 33.0921 33.3973ZM27.825 30.3324L25.2579 30.8829L25.2473 39.3204C25.2473 40.8793 26.4166 42.0275 27.9755 42.0275C28.8389 42.0275 29.471 41.8693 29.8191 41.6801V39.5391C29.4823 39.6762 27.818 40.1607 27.818 38.6018V34.8619H29.8191V32.6182H27.8145L27.825 30.3324ZM20.7045 35.2936C20.7045 34.883 21.0412 34.7248 21.5995 34.7248C22.5107 34.7439 23.405 34.9748 24.2116 35.3991V32.922C23.3808 32.5947 22.4946 32.4307 21.6016 32.4389C19.4634 32.4389 18.041 33.5555 18.041 35.4202C18.041 38.3276 22.0439 37.8643 22.0439 39.1172C22.0439 39.6017 21.622 39.7599 21.0328 39.7599C20.1588 39.7599 19.0416 39.402 18.157 38.9161V41.4235C19.065 41.8164 20.0434 42.0207 21.0328 42.0239C23.2238 42.0239 24.7298 40.939 24.7298 39.0532C24.7179 35.9152 20.7045 36.4735 20.7045 35.2936Z" fill="white"/>
</g>
<defs>
<clipPath id="clip0_23125_70207">
<rect width="72" height="72" fill="white" transform="translate(1 1)"/>
</clipPath>
</defs>
</svg>
