<svg width="74" height="74" viewBox="0 0 74 74" fill="none" xmlns="http://www.w3.org/2000/svg">
<g clip-path="url(#clip0_23125_70211)">
<path d="M70.8773 45.4942C61.7311 47.3128 61.1005 44.3259 61.1005 44.3259C70.7587 30.5051 74.7918 12.9566 71.3081 8.66278C61.806 -3.05028 45.3553 2.49009 45.0806 2.63462L44.987 2.64666C43.1827 2.28533 41.1599 2.06854 38.8874 2.0324C34.7482 1.96616 31.6079 3.08026 29.2293 4.82065C29.2293 4.82065 -0.119748 -6.84422 1.2475 19.4906C1.54093 25.0912 9.56961 61.8744 19.1528 50.7635C22.6552 46.6986 26.039 43.266 26.039 43.266C27.7184 44.3439 29.735 44.8919 31.8389 44.6932L32.0012 44.5607C31.9513 45.0666 31.9763 45.5604 32.0637 46.1445C29.5976 48.8063 30.3218 49.27 25.3835 50.2516C20.389 51.2453 23.3233 53.0098 25.2399 53.4735C27.5624 54.0335 32.9315 54.8285 36.565 49.9264L36.4214 50.4865C37.3891 51.2332 38.0696 55.3464 37.9572 59.0741C37.8448 62.8018 37.7699 65.3612 38.5316 67.3605C39.2932 69.3599 40.0549 73.8584 46.5415 72.5155C51.9606 71.3954 54.77 68.4927 55.1633 63.6509C55.438 60.2062 56.0686 60.7181 56.106 57.6408L56.6117 56.1834C57.1923 51.5163 56.7054 50.0108 60.0454 50.7093L60.8571 50.7756C63.3169 50.884 66.5321 50.3962 68.4175 49.5471C72.4693 47.7344 74.8854 44.6932 70.8773 45.4942Z" fill="#336791"/>
<path d="M35.8288 48.138C35.8475 47.5358 36.3657 47.0601 36.99 47.0781C37.6143 47.0962 38.1075 47.596 38.0888 48.1983C37.9577 52.6727 37.9826 57.1592 38.1512 60.7484C38.3073 63.9823 38.5757 66.4152 38.9503 67.3185C39.3499 68.2761 39.968 69.6913 41.1542 70.6488C42.3091 71.5882 44.0884 72.1603 46.9228 71.5762C49.4014 71.0643 51.0683 70.3356 52.1796 69.2215C53.2783 68.1195 53.9027 66.5597 54.2897 64.3797C54.5769 62.7899 54.9702 60.0137 55.3261 57.2495C55.7756 53.7928 56.1877 50.3 56.2751 49.1738C56.3188 48.5716 56.8619 48.12 57.4862 48.1681C58.1105 48.2103 58.5788 48.7342 58.5288 49.3364C58.4414 50.4325 58.0294 53.9675 57.5611 57.5265C57.1866 60.381 56.787 63.2114 56.5123 64.7471C56.0441 67.3547 55.2512 69.2757 53.7965 70.7331C52.3481 72.1844 50.3191 73.0998 47.3786 73.708C43.7263 74.4608 41.3165 73.6358 39.687 72.3109C38.0825 71.0101 37.3209 69.2878 36.8401 68.1255C36.3657 66.9873 36.0473 64.3014 35.8787 60.8387C35.7164 57.2194 35.6976 52.6727 35.8288 48.138Z" fill="white"/>
<path d="M29.5986 3.61619C30.1792 3.839 30.4601 4.47133 30.2291 5.03139C29.9981 5.59145 29.3426 5.86244 28.762 5.63962C28.6871 5.60951 1.02994 -5.29056 2.30979 19.3279C2.46587 22.3691 4.96312 34.8108 8.75896 43.4887C9.95764 46.2228 11.2749 48.5594 12.6734 50.0529C13.8409 51.3055 15.0333 51.9077 16.1821 51.5102C16.8189 51.2874 17.4994 50.7876 18.2173 49.9565C21.7322 45.8795 24.9287 42.6577 24.9412 42.6517C25.372 42.2181 26.0837 42.2 26.5332 42.6155C26.9827 43.0311 27.0014 43.7176 26.5707 44.1512C26.5644 44.1572 23.4428 47.2947 19.9529 51.3476C18.9603 52.5039 17.9489 53.2205 16.9312 53.5698C14.7711 54.3105 12.7858 53.4433 10.9878 51.5163C9.41449 49.8361 7.96608 47.2887 6.67999 44.3318C2.77802 35.4251 0.212089 22.5859 0.0497677 19.4303C-1.40489 -8.60875 29.5112 3.58005 29.5986 3.61619Z" fill="white"/>
<path d="M45.6364 3.44777L43.957 1.67726C44.0944 1.62909 44.2317 1.58693 44.3691 1.5508C44.7374 1.43638 45.137 1.32196 45.5678 1.20151C46.1983 1.02085 47.1223 0.785986 48.2523 0.575212C53.8899 -0.478662 64.8903 -1.05076 72.1386 7.88608C74.1863 10.4094 74.0178 16.6543 71.9013 24.0495C70.0284 30.5956 66.6509 38.1413 61.981 44.8259C61.6314 45.3257 60.9259 45.4582 60.4077 45.1209C59.8895 44.7837 59.7522 44.1032 60.1018 43.6034C64.6343 37.1175 67.9057 29.8006 69.7225 23.4654C71.6579 16.7085 71.9638 11.1983 70.3593 9.223C63.8539 1.20754 53.8212 1.74953 48.6706 2.71909C47.6155 2.91782 46.7727 3.1286 46.1983 3.29119L45.6364 3.44777Z" fill="white"/>
<path d="M62.1121 43.8803C62.1246 43.9105 62.1309 43.9406 62.1371 43.9707C62.1371 43.9767 62.5242 45.9218 70.5841 44.32C71.7266 44.0911 72.5382 44.1393 73.0626 44.3862C73.7431 44.6993 74.0365 45.2233 73.9928 45.8978C73.9679 46.3073 73.7681 46.7469 73.4372 47.1865C72.6755 48.1922 70.9337 49.493 68.8173 50.4384C67.2315 51.1491 64.8154 51.6248 62.5991 51.7453C61.2943 51.8175 60.0456 51.7693 59.053 51.5766C57.8044 51.3357 56.8554 50.8359 56.4621 50.0229C56.356 49.8061 56.2935 49.5713 56.281 49.3183C56.0313 45.0908 58.1665 44.3501 59.6586 43.9406C59.5025 43.7238 59.2902 43.4648 59.053 43.1818C58.2976 42.2724 57.3299 41.1041 56.562 39.3156C56.4434 39.0446 56.1 38.4424 55.638 37.6474C53.6839 34.269 49.8381 27.6085 50.5935 23.0618C51.1304 19.8159 53.6964 17.66 60.1081 18.3043L60.0457 18.1237C59.7397 17.2866 59.2528 16.1906 58.5473 14.962C55.7504 10.048 49.6508 3.19479 38.819 3.02617C22.2934 2.76722 22.8365 22.8691 22.8365 22.9233C22.849 23.5255 22.3495 24.0193 21.7252 24.0314C21.1009 24.0434 20.589 23.5617 20.5765 22.9594C20.5765 22.8932 19.9647 0.551075 38.8502 0.846159C50.7746 1.03285 57.4672 8.53643 60.5264 13.9082C61.288 15.2451 61.8312 16.4616 62.1746 17.407C62.5616 18.4669 62.7052 19.298 62.6428 19.6653C62.5554 20.2073 62.2432 20.5446 61.7063 20.6469L61.3005 20.653C55.4195 19.7436 53.1969 21.1347 52.8223 23.3991C52.1918 27.2111 55.7878 33.4259 57.6108 36.5875C58.104 37.4427 58.4786 38.0931 58.6472 38.4905C59.2965 40.0021 60.1455 41.0258 60.8073 41.8328C61.4254 42.5615 61.9123 43.1517 62.1121 43.8803ZM71.0398 46.4518C65.0651 47.6442 62.2807 46.771 61.0009 45.8315C60.826 45.8857 60.6387 45.9339 60.439 45.9881C59.6398 46.2049 58.3975 46.5421 58.5286 49.1316C58.6222 49.228 58.9718 49.3304 59.4838 49.4327C60.3016 49.5893 61.3505 49.6255 62.468 49.5652C64.4221 49.4568 66.526 49.0534 67.8683 48.4511C69.248 47.8309 70.403 47.0841 71.1147 46.4337L71.0398 46.4518Z" fill="white"/>
<path d="M32.839 46.7711C32.377 47.2709 31.9962 47.7346 31.6715 48.1321C30.2856 49.8303 29.8548 50.3602 25.5533 51.2154C24.7791 51.372 24.2547 51.5225 23.93 51.6731C24.3296 51.9501 24.9289 52.1789 25.4534 52.3054C26.5147 52.5643 28.2753 52.8715 30.1607 52.5643C31.9962 52.2632 33.9753 51.3539 35.5797 49.1859C35.6297 49.1137 35.6734 49.0354 35.7109 48.9571C35.8732 48.5777 35.8357 48.1019 35.6734 47.6503C35.4986 47.1685 35.1802 46.747 34.8118 46.488C34.7244 46.4278 34.637 46.3796 34.5434 46.3435L34.4872 46.3194C34.2562 46.2291 34.0002 46.1327 33.7817 46.1508C33.5445 46.1749 33.2448 46.3314 32.839 46.7711ZM29.8922 46.7771C30.1982 46.4037 30.554 45.9701 31.0909 45.386C31.1346 45.3318 31.1846 45.2776 31.2345 45.2294C32.0649 44.3622 32.8577 44.037 33.5882 43.9768C34.3124 43.9166 34.8743 44.1153 35.3487 44.308C35.3675 44.314 35.3862 44.32 35.4112 44.3321C35.6547 44.4284 35.8919 44.5609 36.1229 44.7175C36.8658 45.2294 37.4777 46.0424 37.8085 46.9276C38.1457 47.849 38.2019 48.8788 37.8023 49.7942C37.7024 50.023 37.5775 50.2398 37.4215 50.4506C35.3987 53.1846 32.8765 54.3288 30.5415 54.7143C28.2503 55.0936 26.1651 54.7263 24.904 54.4252C23.9862 54.2024 22.85 53.7086 22.182 53.1063C21.7886 52.751 21.5202 52.3295 21.4453 51.8598C21.3579 51.2997 21.5327 50.7577 22.0633 50.2759C22.5753 49.8122 23.5242 49.3907 25.0913 49.0775C28.5812 48.385 28.8933 48.0056 29.8922 46.7771Z" fill="white"/>
<path d="M32.9579 45.8256C33.0515 46.4218 32.627 46.9819 32.0089 47.0662C31.3909 47.1505 30.8102 46.747 30.7228 46.1508C30.6979 46.0063 30.6854 45.8617 30.6729 45.7112C30.2983 45.6991 29.93 45.6751 29.5679 45.6209C27.1455 45.2957 24.9542 44.1153 23.306 42.3689C21.6765 40.6466 20.5777 38.3702 20.3218 35.8289C20.2281 34.9255 20.2468 33.9861 20.3842 33.0406C20.9398 29.2226 20.7276 25.808 20.6214 24.0375C20.5902 23.5557 20.5715 23.1944 20.5715 22.9174C20.5777 22.2008 22.4444 20.623 24.9042 19.6474C26.0155 19.2078 27.2579 18.8404 28.4878 18.6598C29.7864 18.4731 31.0974 18.4911 32.2774 18.8464C34.1254 19.4065 35.5925 20.7253 36.1544 23.2486C38.1834 32.2878 36.3666 36.1721 34.9494 39.2133C34.706 39.7372 34.475 40.231 34.3002 40.6767C34.2939 40.7068 34.2814 40.7309 34.2689 40.761C33.6758 42.3027 34.5436 40.0444 34.0941 41.1946C33.3887 43.0494 32.7706 44.6392 32.9579 45.8256ZM30.9164 43.5372C31.1599 42.5676 31.5594 41.5439 31.984 40.4418C32.3211 39.5746 31.4408 41.845 32.1463 40.0082C32.1588 39.9781 32.1712 39.948 32.1837 39.9179C32.4022 39.3578 32.6395 38.858 32.883 38.328C34.1691 35.5759 35.8048 32.059 33.9381 23.7244C33.576 22.1044 32.6957 21.2734 31.5969 20.9421C30.7728 20.6952 29.8051 20.6892 28.8124 20.8337C27.7511 20.9903 26.6898 21.3035 25.7408 21.6768C24.0739 22.3333 22.8128 22.8873 22.8128 22.9355C22.8128 23.092 22.8315 23.4473 22.8627 23.9231C22.9751 25.7598 23.1936 29.3189 22.613 33.3538C22.5006 34.1427 22.4819 34.9075 22.5568 35.6422C22.7628 37.6897 23.6494 39.5265 24.9667 40.9176C26.2652 42.2906 27.9821 43.224 29.8675 43.477C30.2171 43.5131 30.5668 43.5372 30.9164 43.5372Z" fill="white"/>
<path d="M29.0747 22.773C29.0247 23.1283 29.7552 24.0858 30.7041 24.2123C31.6531 24.3387 32.471 23.592 32.5209 23.2367C32.5708 22.8814 31.8404 22.4839 30.8914 22.3575C29.9425 22.231 29.1246 22.4177 29.0747 22.773Z" fill="white"/>
<path d="M29.4485 22.821C29.436 22.8993 29.5671 23.104 29.7856 23.3268C30.0291 23.5737 30.3725 23.7966 30.7533 23.8508H30.7595C31.1341 23.8989 31.4837 23.7785 31.7459 23.6038C31.9894 23.4473 32.1393 23.2787 32.158 23.1823C32.158 23.1642 32.0643 23.11 31.9083 23.0257C31.6523 22.8872 31.2777 22.7728 30.8469 22.7126H30.8344C30.4099 22.6584 30.0166 22.6704 29.7357 22.7367C29.5608 22.7788 29.4485 22.8089 29.4485 22.821ZM29.2424 23.8267C28.8741 23.4533 28.6681 23.0077 28.7055 22.7306V22.7186C28.7555 22.3753 29.0739 22.1405 29.5608 22.026C29.9292 21.9417 30.4162 21.9237 30.9343 21.9899C30.9406 21.9899 30.9468 21.9899 30.9531 21.9899C31.4775 22.0622 31.9457 22.2067 32.2766 22.3874C32.7136 22.6222 32.9571 22.9414 32.9072 23.2787C32.8697 23.5436 32.5888 23.929 32.1705 24.2C31.7772 24.459 31.2402 24.6457 30.6596 24.5674H30.6534C30.079 24.4951 29.5858 24.1759 29.2424 23.8267Z" fill="white"/>
<path d="M58.0678 22.044C58.1177 22.3993 57.3873 23.3568 56.4383 23.4833C55.4831 23.6097 54.6715 22.863 54.6216 22.5077C54.5716 22.1524 55.3021 21.7549 56.2573 21.6285C57.2 21.502 58.0116 21.6887 58.0678 22.044Z" fill="white"/>
<path d="M58.2474 22.02C58.2786 22.2488 58.0913 22.6402 57.7605 22.9775C57.4421 23.3027 56.9801 23.5978 56.4556 23.664H56.4494C55.925 23.7303 55.438 23.5616 55.0759 23.3268C54.7013 23.0859 54.4578 22.7547 54.4204 22.5318C54.3829 22.2729 54.5889 22.02 54.9573 21.8212C55.2694 21.6526 55.7127 21.5141 56.2122 21.4479C56.7116 21.3816 57.1798 21.3997 57.5295 21.478C57.9415 21.5683 58.21 21.755 58.2474 22.02ZM57.4858 22.7246C57.7417 22.4656 57.8916 22.2006 57.8728 22.0681C57.8603 21.9718 57.698 21.8875 57.4483 21.8273C57.1424 21.755 56.7241 21.7429 56.2683 21.8032C55.8188 21.8634 55.4193 21.9899 55.1446 22.1344C54.9198 22.2548 54.7887 22.3813 54.8012 22.4776C54.8199 22.6101 55.0072 22.833 55.2944 23.0196C55.5878 23.2123 55.9874 23.3509 56.4119 23.2967H56.4182C56.8365 23.2425 57.2173 22.9956 57.4858 22.7246Z" fill="white"/>
<path d="M60.3391 19.6231C60.3079 19.0209 60.7886 18.509 61.4129 18.4789C62.0372 18.4488 62.5679 18.9125 62.5991 19.5147C62.6928 21.2009 62.4805 22.5378 62.2557 23.941C62.0872 24.9889 61.9124 26.0849 61.8749 27.3074C61.8375 28.4696 61.9935 29.7584 62.1621 31.0833C62.5991 34.5701 63.0611 38.3038 60.3766 42.164C60.0269 42.6638 59.3277 42.7963 58.8095 42.4651C58.2913 42.1278 58.154 41.4534 58.4974 40.9535C60.7074 37.7678 60.2954 34.4496 59.9083 31.3422C59.7335 29.9571 59.5649 28.6082 59.6149 27.2472C59.6586 25.838 59.8396 24.7118 60.0145 23.6218C60.2267 22.309 60.4203 21.0684 60.3391 19.6231Z" fill="white"/>
</g>
<defs>
<clipPath id="clip0_23125_70211">
<rect width="74" height="74" fill="white"/>
</clipPath>
</defs>
</svg>
