<svg width="74" height="74" viewBox="0 0 74 74" fill="none" xmlns="http://www.w3.org/2000/svg">
<path d="M34.3884 0.202148L36.3631 3.91112C36.8071 4.59557 37.288 5.2014 37.8546 5.7656C39.5155 7.4058 41.0636 9.15636 42.4885 11.0053C45.8344 15.3988 48.0912 20.2778 49.7029 25.5545C50.6695 28.7779 51.1944 32.0845 51.2337 35.4281C51.3955 45.4243 47.9687 54.0077 41.0595 61.1412C39.9356 62.2724 38.7215 63.3102 37.4291 64.2443C36.7447 64.2443 36.4209 63.7194 36.1388 63.2362C35.6251 62.34 35.2832 61.3558 35.1306 60.3342C34.8879 59.1248 34.7283 57.9155 34.8069 56.6668V56.1026C34.7514 55.9824 34.1479 0.486565 34.3884 0.202148Z" fill="#599636"/>
<path d="M34.3876 0.079551C34.3067 -0.0823118 34.2258 0.0402414 34.1448 0.118861C34.1841 0.928175 33.902 1.64962 33.4604 2.33869C32.9748 3.02314 32.332 3.54804 31.6868 4.11225C28.1027 7.21539 25.2817 10.9637 23.0225 15.1559C20.0165 20.798 18.4673 26.8447 18.0279 33.2106C17.8268 35.5067 18.754 43.6091 19.4778 45.9468C21.4525 52.1531 24.9996 57.3535 29.5942 61.8672C30.7226 62.954 31.9296 63.9622 33.1783 64.931C33.5413 64.931 33.5806 64.6073 33.6639 64.3668C33.823 63.8523 33.9444 63.3267 34.0269 62.7945L34.8362 56.75L34.3876 0.079551Z" fill="#6CAC48"/>
<path d="M36.3618 66.6998C36.4427 65.7749 36.8867 65.0072 37.37 64.2418C36.8844 64.0406 36.5237 63.6406 36.2416 63.1943C35.9983 62.7718 35.797 62.3265 35.6404 61.8647C35.0762 60.1721 34.9559 58.3962 34.7941 56.6666V55.6191C34.5929 55.781 34.5513 57.1499 34.5513 57.3534C34.4336 59.1815 34.191 60.9993 33.8252 62.7943C33.7049 63.5204 33.624 64.2441 33.1777 64.8893C33.1777 64.9702 33.1777 65.0511 33.217 65.1714C33.9431 67.308 34.142 69.4838 34.2645 71.7014V72.5107C34.2645 73.4772 34.2252 73.2738 35.0276 73.5975C35.3513 73.7177 35.712 73.7593 36.0358 73.9998C36.2786 73.9998 36.3179 73.7986 36.3179 73.6368L36.1976 72.3072V68.5982C36.1583 67.9508 36.2786 67.308 36.3595 66.7021L36.3618 66.6998Z" fill="#C2BFBF"/>
</svg>
