<svg width="169" height="51" viewBox="0 0 169 51" fill="none" xmlns="http://www.w3.org/2000/svg">
<path d="M23.4326 21.6799C21.3528 25.1817 19.3602 28.5728 17.3261 31.9384C16.8037 32.8024 16.5451 33.5063 16.9624 34.6046C18.1147 37.6387 16.4892 40.5914 13.4344 41.3929C10.5534 42.1489 7.74651 40.2525 7.1749 37.1632C6.66837 34.4289 8.78701 31.7483 11.7972 31.3209C12.0493 31.2848 12.3068 31.2806 12.7306 31.2488L17.3094 23.5588C14.4296 20.6907 12.7156 17.3383 13.0949 13.1839C13.363 10.2473 14.516 7.70949 16.6233 5.62952C20.6595 1.64628 26.817 1.00133 31.5694 4.05865C36.1337 6.99542 38.2241 12.7158 36.4422 17.6118C35.0987 17.247 33.7457 16.8791 32.2585 16.475C32.8179 13.7529 32.4041 11.3085 30.5711 9.2144C29.36 7.83181 27.806 7.10714 26.039 6.84012C22.4964 6.30413 19.0183 8.58357 17.9863 12.0662C16.8148 16.0184 18.5879 19.2469 23.4326 21.6799Z" fill="#C73A63"/>
<path d="M29.3724 17.5386C30.8377 20.1277 32.3255 22.7558 33.8 25.3598C41.2529 23.0503 46.8721 27.1825 48.8881 31.6066C51.3231 36.9506 49.6584 43.28 44.8764 46.5771C39.9679 49.9615 33.7604 49.3833 29.4116 45.0357C30.5199 44.1064 31.6337 43.173 32.8238 42.1758C37.1191 44.9622 40.8759 44.8311 43.665 41.5315C46.0434 38.7166 45.9918 34.5196 43.5444 31.7638C40.7201 28.5838 36.937 28.4868 32.3641 31.5394C30.4672 28.1687 28.5373 24.825 26.7004 21.4299C26.0809 20.2857 25.3972 19.6217 24.0011 19.3796C21.6698 18.9748 20.1647 16.9696 20.0743 14.7232C19.9855 12.5014 21.2924 10.4931 23.335 9.71073C25.3584 8.9354 27.7328 9.56112 29.0938 11.2842C30.2061 12.6919 30.5595 14.2763 29.9742 16.0125C29.8115 16.4966 29.6008 16.9649 29.3724 17.5386Z" fill="#4B4B4B"/>
<path d="M32.8746 38.7035H23.9025C23.0425 42.2461 21.185 45.1063 17.9845 46.9252C15.4964 48.3388 12.8147 48.818 9.96062 48.3565C4.70558 47.5077 0.408705 42.7696 0.0303769 37.4344C-0.397742 31.3904 3.74995 26.0181 9.27845 24.8114C9.66011 26.1997 10.0459 27.6013 10.4275 28.9863C5.3552 31.5783 3.5996 34.8441 5.01922 38.9279C6.26888 42.5216 9.8187 44.4914 13.6731 43.7296C17.6093 42.9518 19.5939 39.6753 19.3516 34.4171C23.0831 34.4171 26.8178 34.3784 30.5497 34.4361C32.007 34.4591 33.132 34.3077 34.2297 33.021C36.0371 30.9037 39.3638 31.0947 41.3103 33.0944C43.2996 35.138 43.2043 38.4262 41.0992 40.3837C39.0682 42.2724 35.8595 42.1715 33.9592 40.1363C33.5687 39.7169 33.261 39.2188 32.8746 38.7035Z" fill="#4A4A4A"/>
<path d="M74.4034 32.7871L70.4261 18.2417H72.2159L75.2557 30.0882H75.3977L78.4943 18.2417H80.483L83.5795 30.0882H83.7216L86.7614 18.2417H88.5511L84.5739 32.7871H82.7557L79.5455 21.1962H79.4318L76.2216 32.7871H74.4034ZM94.0767 33.0144C93.0256 33.0144 92.1188 32.7824 91.3565 32.3184C90.599 31.8496 90.0142 31.1962 89.6023 30.3581C89.1951 29.5153 88.9915 28.5352 88.9915 27.4178C88.9915 26.3004 89.1951 25.3155 89.6023 24.4632C90.0142 23.6062 90.5871 22.9386 91.321 22.4604C92.0597 21.9775 92.9214 21.736 93.9062 21.736C94.4744 21.736 95.0355 21.8307 95.5895 22.0201C96.1435 22.2095 96.6477 22.5172 97.1023 22.9434C97.5568 23.3648 97.919 23.9235 98.1889 24.6195C98.4588 25.3155 98.5938 26.1725 98.5938 27.1905V27.9007H90.1847V26.4519H96.8892C96.8892 25.8364 96.7661 25.2871 96.5199 24.8042C96.2784 24.3212 95.9328 23.94 95.483 23.6607C95.0379 23.3813 94.5123 23.2417 93.9062 23.2417C93.2386 23.2417 92.661 23.4074 92.1733 23.7388C91.6903 24.0655 91.3187 24.4917 91.0582 25.0172C90.7978 25.5428 90.6676 26.1062 90.6676 26.7076V27.6735C90.6676 28.4973 90.8097 29.1957 91.0938 29.7686C91.3826 30.3368 91.7827 30.7701 92.294 31.0684C92.8054 31.3619 93.3996 31.5087 94.0767 31.5087C94.517 31.5087 94.9148 31.4471 95.2699 31.324C95.6297 31.1962 95.9399 31.0068 96.2003 30.7559C96.4607 30.5002 96.6619 30.1829 96.804 29.8042L98.4233 30.2587C98.2528 30.8079 97.9664 31.2909 97.5639 31.7076C97.1615 32.1195 96.6643 32.4415 96.0724 32.6735C95.4806 32.9007 94.8153 33.0144 94.0767 33.0144ZM101.371 32.7871V18.2417H103.047V23.611H103.189C103.312 23.4216 103.482 23.1801 103.7 22.8865C103.923 22.5882 104.24 22.3231 104.652 22.0911C105.069 21.8543 105.632 21.736 106.342 21.736C107.261 21.736 108.071 21.9656 108.771 22.4249C109.472 22.8842 110.019 23.5352 110.412 24.378C110.805 25.2208 111.001 26.2151 111.001 27.361C111.001 28.5163 110.805 29.5177 110.412 30.3652C110.019 31.208 109.474 31.8614 108.778 32.3255C108.082 32.7847 107.28 33.0144 106.371 33.0144C105.67 33.0144 105.109 32.8984 104.688 32.6664C104.266 32.4296 103.942 32.1621 103.714 31.8638C103.487 31.5608 103.312 31.3098 103.189 31.111H102.99V32.7871H101.371ZM103.018 27.3326C103.018 28.1564 103.139 28.8832 103.381 29.513C103.622 30.138 103.975 30.628 104.439 30.9831C104.903 31.3335 105.471 31.5087 106.143 31.5087C106.844 31.5087 107.429 31.324 107.898 30.9547C108.371 30.5807 108.726 30.0788 108.963 29.449C109.205 28.8146 109.325 28.1091 109.325 27.3326C109.325 26.5655 109.207 25.8742 108.97 25.2587C108.738 24.6384 108.385 24.1484 107.912 23.7885C107.443 23.4239 106.854 23.2417 106.143 23.2417C105.462 23.2417 104.889 23.4145 104.425 23.7601C103.961 24.101 103.61 24.5792 103.374 25.1948C103.137 25.8056 103.018 26.5182 103.018 27.3326ZM115.241 26.2246V32.7871H113.565V18.2417H115.241V23.5826H115.384C115.639 23.0191 116.023 22.5717 116.534 22.2402C117.05 21.9041 117.737 21.736 118.594 21.736C119.337 21.736 119.988 21.8851 120.547 22.1834C121.106 22.477 121.539 22.9292 121.847 23.54C122.159 24.146 122.315 24.9178 122.315 25.8553V32.7871H120.639V25.9689C120.639 25.1025 120.414 24.4325 119.964 23.959C119.519 23.4808 118.902 23.2417 118.111 23.2417C117.562 23.2417 117.069 23.3577 116.634 23.5897C116.203 23.8217 115.862 24.1602 115.611 24.6053C115.365 25.0504 115.241 25.5901 115.241 26.2246ZM129.814 33.0144C128.829 33.0144 127.965 32.78 127.221 32.3113C126.483 31.8425 125.905 31.1867 125.488 30.3439C125.076 29.5011 124.87 28.5163 124.87 27.3894C124.87 26.253 125.076 25.2611 125.488 24.4135C125.905 23.566 126.483 22.9078 127.221 22.4391C127.965 21.9703 128.829 21.736 129.814 21.736C130.798 21.736 131.66 21.9703 132.399 22.4391C133.142 22.9078 133.72 23.566 134.132 24.4135C134.548 25.2611 134.757 26.253 134.757 27.3894C134.757 28.5163 134.548 29.5011 134.132 30.3439C133.72 31.1867 133.142 31.8425 132.399 32.3113C131.66 32.78 130.798 33.0144 129.814 33.0144ZM129.814 31.5087C130.562 31.5087 131.177 31.3169 131.66 30.9334C132.143 30.5499 132.501 30.0456 132.733 29.4206C132.965 28.7956 133.081 28.1185 133.081 27.3894C133.081 26.6602 132.965 25.9808 132.733 25.351C132.501 24.7213 132.143 24.2123 131.66 23.824C131.177 23.4358 130.562 23.2417 129.814 23.2417C129.065 23.2417 128.45 23.4358 127.967 23.824C127.484 24.2123 127.127 24.7213 126.895 25.351C126.663 25.9808 126.547 26.6602 126.547 27.3894C126.547 28.1185 126.663 28.7956 126.895 29.4206C127.127 30.0456 127.484 30.5499 127.967 30.9334C128.45 31.3169 129.065 31.5087 129.814 31.5087ZM141.747 33.0144C140.762 33.0144 139.898 32.78 139.155 32.3113C138.416 31.8425 137.839 31.1867 137.422 30.3439C137.01 29.5011 136.804 28.5163 136.804 27.3894C136.804 26.253 137.01 25.2611 137.422 24.4135C137.839 23.566 138.416 22.9078 139.155 22.4391C139.898 21.9703 140.762 21.736 141.747 21.736C142.732 21.736 143.594 21.9703 144.332 22.4391C145.076 22.9078 145.653 23.566 146.065 24.4135C146.482 25.2611 146.69 26.253 146.69 27.3894C146.69 28.5163 146.482 29.5011 146.065 30.3439C145.653 31.1867 145.076 31.8425 144.332 32.3113C143.594 32.78 142.732 33.0144 141.747 33.0144ZM141.747 31.5087C142.495 31.5087 143.111 31.3169 143.594 30.9334C144.077 30.5499 144.434 30.0456 144.666 29.4206C144.898 28.7956 145.014 28.1185 145.014 27.3894C145.014 26.6602 144.898 25.9808 144.666 25.351C144.434 24.7213 144.077 24.2123 143.594 23.824C143.111 23.4358 142.495 23.2417 141.747 23.2417C140.999 23.2417 140.384 23.4358 139.901 23.824C139.418 24.2123 139.06 24.7213 138.828 25.351C138.596 25.9808 138.48 26.6602 138.48 27.3894C138.48 28.1185 138.596 28.7956 138.828 29.4206C139.06 30.0456 139.418 30.5499 139.901 30.9334C140.384 31.3169 140.999 31.5087 141.747 31.5087ZM150.811 28.8098L150.783 26.736H151.124L155.897 21.878H157.971L152.885 27.0201H152.743L150.811 28.8098ZM149.249 32.7871V18.2417H150.925V32.7871H149.249ZM156.181 32.7871L151.919 27.3894L153.113 26.2246L158.311 32.7871H156.181ZM167.855 24.3212L166.349 24.7473C166.255 24.4964 166.115 24.2525 165.93 24.0158C165.75 23.7743 165.504 23.5755 165.192 23.4192C164.879 23.263 164.479 23.1848 163.991 23.1848C163.324 23.1848 162.768 23.3387 162.322 23.6465C161.882 23.9495 161.662 24.3354 161.662 24.8042C161.662 25.2208 161.813 25.5499 162.116 25.7914C162.42 26.0328 162.893 26.2341 163.537 26.3951L165.156 26.7928C166.132 27.0295 166.858 27.3917 167.337 27.8794C167.815 28.3624 168.054 28.985 168.054 29.7473C168.054 30.3723 167.874 30.931 167.514 31.4235C167.159 31.9159 166.662 32.3042 166.023 32.5882C165.384 32.8723 164.64 33.0144 163.793 33.0144C162.68 33.0144 161.759 32.7729 161.03 32.29C160.301 31.807 159.839 31.1015 159.645 30.1735L161.236 29.7757C161.387 30.3629 161.674 30.8032 162.095 31.0968C162.521 31.3903 163.078 31.5371 163.764 31.5371C164.545 31.5371 165.166 31.3714 165.625 31.04C166.089 30.7038 166.321 30.3013 166.321 29.8326C166.321 29.4538 166.188 29.1365 165.923 28.8809C165.658 28.6204 165.251 28.4263 164.702 28.2985L162.884 27.8723C161.884 27.6356 161.151 27.2686 160.682 26.7715C160.218 26.2696 159.986 25.6422 159.986 24.8894C159.986 24.2739 160.159 23.7293 160.504 23.2559C160.855 22.7824 161.33 22.4107 161.932 22.1408C162.538 21.8709 163.224 21.736 163.991 21.736C165.071 21.736 165.919 21.9727 166.534 22.4462C167.154 22.9197 167.595 23.5447 167.855 24.3212Z" fill="white"/>
</svg>
