<svg width="80" height="80" viewBox="0 0 80 80" fill="none" xmlns="http://www.w3.org/2000/svg">
<circle cx="40" cy="40" r="40" fill="#313A67"/>
<rect x="10" y="10" width="60" height="60" rx="30" fill="#4361EE"/>
<mask id="mask0_6979_3131" style="mask-type:luminance" maskUnits="userSpaceOnUse" x="21" y="23" width="38" height="34">
<path d="M56.499 23.5H23.499V56.5H56.499V23.5Z" fill="white"/>
<path d="M39.9262 29.3167C39.9262 29.3167 45.0262 33.2609 45.0713 39.6165C45.1165 45.9721 40.0688 49.3809 40.0688 49.3809C40.0688 49.3809 34.9732 46.0442 34.928 39.6887C34.8829 33.333 39.9262 29.3167 39.9262 29.3167Z" fill="white"/>
<path d="M39.9262 29.3167C39.9262 29.3167 45.0262 33.2609 45.0713 39.6165C45.1165 45.9721 40.0688 49.3809 40.0688 49.3809C40.0688 49.3809 34.9732 46.0442 34.928 39.6887C34.8829 33.333 39.9262 29.3167 39.9262 29.3167Z" stroke="black" stroke-width="2" stroke-miterlimit="10"/>
<path d="M46.1183 40.3374C43.4329 41.9702 42.0154 44.2834 41.2682 46.205H38.7319C37.9845 44.2834 36.5671 41.9702 33.8817 40.3374C28.451 37.0355 22.415 39.3012 22.415 39.3012C22.415 39.3012 23.1812 45.7027 28.6119 49.0047C30.7158 50.2839 32.8324 50.6797 34.6363 50.6852V50.6855H45.4445V50.6845C47.2307 50.6676 49.3155 50.2648 51.3881 49.0047C56.8188 45.7027 57.585 39.3012 57.585 39.3012C57.585 39.3012 51.549 37.0355 46.1183 40.3374Z" fill="white"/>
<path d="M46.1183 40.3374C43.4329 41.9702 42.0154 44.2834 41.2682 46.205H38.7319C37.9845 44.2834 36.5671 41.9702 33.8817 40.3374C28.451 37.0355 22.415 39.3012 22.415 39.3012C22.415 39.3012 23.1812 45.7027 28.6119 49.0047C30.7158 50.2839 32.8324 50.6797 34.6363 50.6852V50.6855H45.4445V50.6845C47.2307 50.6676 49.3155 50.2648 51.3881 49.0047C56.8188 45.7027 57.585 39.3012 57.585 39.3012C57.585 39.3012 51.549 37.0355 46.1183 40.3374Z" stroke="black" stroke-width="2" stroke-miterlimit="10"/>
<path d="M30.0701 33.4526C30.0701 33.4526 27.7528 39.4689 31.0082 44.9277C34.2636 50.3865 40.347 50.6855 40.347 50.6855C40.347 50.6855 42.9756 45.1911 39.7202 39.7323C36.4648 34.2735 30.0701 33.4526 30.0701 33.4526Z" fill="white"/>
<path d="M30.0701 33.4526C30.0701 33.4526 27.7528 39.4689 31.0082 44.9277C34.2636 50.3865 40.347 50.6855 40.347 50.6855C40.347 50.6855 42.9756 45.1911 39.7202 39.7323C36.4648 34.2735 30.0701 33.4526 30.0701 33.4526Z" stroke="black" stroke-width="2" stroke-miterlimit="10"/>
<path d="M49.9298 33.4526C49.9298 33.4526 52.2472 39.4689 48.9918 44.9277C45.7364 50.3865 39.6529 50.6855 39.6529 50.6855C39.6529 50.6855 37.0244 45.1911 40.2797 39.7323C43.5351 34.2735 49.9298 33.4526 49.9298 33.4526Z" fill="white"/>
<path d="M49.9298 33.4526C49.9298 33.4526 52.2472 39.4689 48.9918 44.9277C45.7364 50.3865 39.6529 50.6855 39.6529 50.6855C39.6529 50.6855 37.0244 45.1911 40.2797 39.7323C43.5351 34.2735 49.9298 33.4526 49.9298 33.4526Z" stroke="black" stroke-width="2" stroke-miterlimit="10"/>
</mask>
<g mask="url(#mask0_6979_3131)">
<mask id="mask1_6979_3131" style="mask-type:luminance" maskUnits="userSpaceOnUse" x="23" y="23" width="34" height="34">
<path d="M23.499 23.5H56.499V56.5H23.499V23.5Z" fill="white"/>
</mask>
<g mask="url(#mask1_6979_3131)">
<path d="M39.9262 29.3167C39.9262 29.3167 45.0262 33.2609 45.0713 39.6165C45.1165 45.9721 40.0688 49.3809 40.0688 49.3809C40.0688 49.3809 34.9732 46.0442 34.928 39.6887C34.8829 33.333 39.9262 29.3167 39.9262 29.3167Z" fill="white"/>
<path d="M39.9262 29.3167C39.9262 29.3167 45.0262 33.2609 45.0713 39.6165C45.1165 45.9721 40.0688 49.3809 40.0688 49.3809C40.0688 49.3809 34.9732 46.0442 34.928 39.6887C34.8829 33.333 39.9262 29.3167 39.9262 29.3167Z" stroke="white" stroke-width="2" stroke-miterlimit="10"/>
<path d="M46.1173 40.3374C43.4319 41.9702 42.0145 44.2834 41.2672 46.205H38.7309C37.9836 44.2834 36.5662 41.9702 33.8807 40.3374C28.45 37.0355 22.4141 39.3012 22.4141 39.3012C22.4141 39.3012 23.1802 45.7027 28.611 49.0047C30.7149 50.2839 32.8314 50.6797 34.6353 50.6852V50.6855H45.4435V50.6845C47.2297 50.6676 49.3145 50.2648 51.3871 49.0047C56.8179 45.7027 57.584 39.3012 57.584 39.3012C57.584 39.3012 51.548 37.0355 46.1173 40.3374Z" fill="white"/>
<path d="M46.1173 40.3374C43.4319 41.9702 42.0145 44.2834 41.2672 46.205H38.7309C37.9836 44.2834 36.5662 41.9702 33.8807 40.3374C28.45 37.0355 22.4141 39.3012 22.4141 39.3012C22.4141 39.3012 23.1802 45.7027 28.611 49.0047C30.7149 50.2839 32.8314 50.6797 34.6353 50.6852V50.6855H45.4435V50.6845C47.2297 50.6676 49.3145 50.2648 51.3871 49.0047C56.8179 45.7027 57.584 39.3012 57.584 39.3012C57.584 39.3012 51.548 37.0355 46.1173 40.3374Z" stroke="white" stroke-width="2" stroke-miterlimit="10"/>
<path d="M30.0691 33.4526C30.0691 33.4526 27.7518 39.4689 31.0072 44.9277C34.2626 50.3865 40.346 50.6855 40.346 50.6855C40.346 50.6855 42.9746 45.1911 39.7192 39.7323C36.4638 34.2735 30.0691 33.4526 30.0691 33.4526Z" fill="white"/>
<path d="M30.0691 33.4526C30.0691 33.4526 27.7518 39.4689 31.0072 44.9277C34.2626 50.3865 40.346 50.6855 40.346 50.6855C40.346 50.6855 42.9746 45.1911 39.7192 39.7323C36.4638 34.2735 30.0691 33.4526 30.0691 33.4526Z" stroke="white" stroke-width="2" stroke-miterlimit="10"/>
<path d="M49.9289 33.4526C49.9289 33.4526 52.2462 39.4689 48.9908 44.9277C45.7354 50.3865 39.6519 50.6855 39.6519 50.6855C39.6519 50.6855 37.0234 45.1911 40.2787 39.7323C43.5341 34.2735 49.9289 33.4526 49.9289 33.4526Z" fill="white"/>
<path d="M49.9289 33.4526C49.9289 33.4526 52.2462 39.4689 48.9908 44.9277C45.7354 50.3865 39.6519 50.6855 39.6519 50.6855C39.6519 50.6855 37.0234 45.1911 40.2787 39.7323C43.5341 34.2735 49.9289 33.4526 49.9289 33.4526Z" stroke="white" stroke-width="2" stroke-miterlimit="10"/>
</g>
</g>
</svg>
