<svg width="100" height="100" viewBox="0 0 100 100" fill="none" xmlns="http://www.w3.org/2000/svg">
<circle cx="50" cy="50" r="50" fill="#FF5D00" fill-opacity="0.1"/>
<g clip-path="url(#clip0_2425_1411)">
<path d="M41.5026 84.0033H55.6693C57.1722 84.0033 58.6135 83.4063 59.6762 82.3436C60.7389 81.281 61.3359 79.8397 61.3359 78.3368H35.8359C35.8359 79.8397 36.433 81.281 37.4957 82.3436C38.5584 83.4063 39.9997 84.0033 41.5026 84.0033ZM35.8359 58.5043H61.3359V75.5036H35.8359V58.5043ZM58.5026 25.9705C58.5026 25.0186 58.0238 24.1318 57.2304 23.6048C56.8385 23.347 56.3889 23.1904 55.9216 23.1488C55.4544 23.1073 54.9842 23.1822 54.5529 23.3668L40.3863 29.4384C39.8772 29.6566 39.4432 30.0193 39.138 30.4816C38.8329 30.9438 38.6699 31.4854 38.6693 32.0393V55.6683H58.5026V25.9705ZM50.0026 50.0047H44.3359V35.4306L50.0026 33.0026V50.0047Z" fill="#FF5D00"/>
</g>
<defs>
<clipPath id="clip0_2425_1411">
<rect width="68" height="68" fill="white" transform="translate(16 16)"/>
</clipPath>
</defs>
</svg>
