<svg width="124" height="40" viewBox="0 0 124 40" fill="none" xmlns="http://www.w3.org/2000/svg">
<path d="M7.94629 8.10059V25.0088L8.44629 24.9971L7.94629 25.0098V25.0186C7.94645 25.0232 7.94692 25.0296 7.94727 25.0371C7.94794 25.0521 7.94942 25.0725 7.95117 25.0977C7.95469 25.1482 7.96082 25.2186 7.97168 25.3018C7.99306 25.4654 8.03346 25.6926 8.11426 25.9238C8.19328 26.1499 8.32393 26.4184 8.5459 26.6279C8.78423 26.8527 9.10842 26.9891 9.50293 26.9541C10.2135 26.891 10.6423 26.4507 10.8721 25.9463C11.0901 25.4678 11.1475 24.9052 11.1543 24.4541C11.1608 24.0215 11.1608 19.8034 11.1592 15.7031C11.1584 13.6508 11.1573 11.6248 11.1562 10.1123C11.1557 9.35607 11.1546 8.72799 11.1543 8.28906C11.1542 8.22174 11.1543 8.15879 11.1543 8.10059H17.4717V24.8477L17.4727 24.8574L17.9717 24.8389L17.4727 24.8584V24.8672C17.4729 24.872 17.4732 24.8789 17.4736 24.8867C17.4746 24.9022 17.4763 24.9233 17.4785 24.9492C17.4829 25.0017 17.4903 25.0754 17.5029 25.1621C17.5279 25.3333 17.5738 25.5697 17.6611 25.8125C17.8248 26.2676 18.2174 26.9466 19.0645 26.9561C19.8731 26.9649 20.3062 26.4003 20.5088 25.9258C20.708 25.4591 20.7497 24.9568 20.7412 24.7441C20.7412 24.7414 20.7406 24.7244 20.7402 24.6846C20.7399 24.6448 20.7395 24.5892 20.7393 24.5195C20.7387 24.3799 20.7377 24.1833 20.7373 23.9385C20.7365 23.4486 20.7366 22.7648 20.7363 21.9531C20.7358 20.33 20.7356 18.1945 20.7363 16.0684C20.7371 13.9421 20.7383 11.8244 20.7393 10.2393C20.7397 9.44704 20.7399 8.78762 20.7402 8.32617C20.7403 8.2448 20.7402 8.16928 20.7402 8.10059H26.9736V28.3369C26.9729 28.3446 26.9721 28.3551 26.9707 28.3682C26.9669 28.4035 26.9608 28.4578 26.9502 28.5283C26.9288 28.67 26.8913 28.8765 26.8271 29.125C26.6984 29.6237 26.4645 30.2824 26.0488 30.9336C25.2347 32.209 23.6897 33.5104 20.666 33.4473H20.665C18.8616 33.4131 17.6071 32.8967 16.6982 32.2832C15.775 31.6599 15.1993 30.9361 14.7188 30.4092L14.3623 30.0176L13.9922 30.3975C13.0188 31.3943 12.4159 32.1271 11.583 32.6494C10.7875 33.1483 9.75776 33.4585 7.95996 33.4473C6.16778 33.4361 4.5834 33.0133 3.43652 31.9736C2.2975 30.9409 1.50692 29.2241 1.45605 26.4473C1.40371 23.5849 1.38869 18.8744 1.38672 14.877C1.38573 12.8792 1.38809 11.0605 1.39062 9.74121C1.39189 9.08154 1.39352 8.5466 1.39453 8.17676C1.3946 8.15053 1.39446 8.12514 1.39453 8.10059H7.94629Z" fill="#0D1330" stroke="white"/>
<path d="M39.2393 24.1846V24.1836H39.2383V24.1797C39.2381 24.1782 39.2376 24.1766 39.2373 24.1748C39.2367 24.1705 39.2363 24.1644 39.2354 24.1582C39.2334 24.146 39.2302 24.1302 39.2266 24.1113C39.2192 24.0729 39.2083 24.0201 39.1914 23.959C39.158 23.8385 39.1003 23.6732 39.0029 23.502C38.8031 23.1505 38.415 22.7503 37.7471 22.7148C37.0064 22.6756 36.6029 23.1861 36.417 23.5645C36.322 23.7579 36.2651 23.9473 36.2324 24.084C36.2159 24.1533 36.2054 24.2121 36.1982 24.2549C36.1946 24.2764 36.1913 24.2944 36.1895 24.3076C36.1885 24.3141 36.188 24.32 36.1875 24.3242C36.1873 24.3261 36.1867 24.3277 36.1865 24.3291V24.333L36.1826 24.3613V32.6035H31.5059L31.4873 12.6611H36.1191V19.9834L36.9404 19.291C36.941 19.2906 36.9421 19.2901 36.9434 19.2891C36.9464 19.2866 36.952 19.283 36.959 19.2773C36.9732 19.2658 36.9957 19.2475 37.0254 19.2246C37.0847 19.1788 37.1731 19.1123 37.2861 19.0342C37.5135 18.877 37.8357 18.6741 38.2148 18.4902C38.9865 18.1161 39.9051 17.8644 40.7334 18.1104C41.5548 18.4255 42.2696 18.9739 42.793 19.6904C43.3175 20.4085 43.627 21.2645 43.6826 22.1562C43.698 22.9574 43.6982 25.6805 43.6943 28.2168C43.6924 29.4879 43.689 30.7094 43.6865 31.6133C43.6854 32.0142 43.6844 32.353 43.6836 32.6055H39.2432V24.2158L39.2393 24.1846Z" fill="#0D1330" stroke="white"/>
<path d="M52.8926 18.0654V32.4355H48.207V18.0654H52.8926Z" fill="#0D1330" stroke="white"/>
<path d="M50.5488 10.4658C51.9302 10.4658 53.0585 11.5982 53.0586 13.0059C53.0586 14.4135 51.9303 15.5469 50.5488 15.5469C49.1675 15.5468 48.0391 14.4135 48.0391 13.0059C48.0392 11.5983 49.1676 10.4659 50.5488 10.4658Z" fill="#0D1330" stroke="white"/>
<path d="M57.2363 25.5166C57.224 23.3945 58.0133 21.3492 59.4404 19.7998C60.2015 19.0306 61.1139 18.4367 62.1152 18.0537L62.5508 17.9014C63.7235 17.5339 64.9673 17.4616 66.1738 17.6895C67.8249 18.0735 69.3047 19.002 70.3809 20.3311C71.3915 21.5793 71.9921 23.1145 72.1025 24.7217L72.1182 25.0439C72.2448 30.219 69.135 32.1402 67.9287 32.6523C67.3439 32.9006 66.2948 33.0587 65.332 33.1514C64.8686 33.1959 64.4438 33.2236 64.1328 33.2402V27.6279C64.3067 27.6649 64.505 27.6945 64.7148 27.6982C65.0701 27.7044 65.484 27.641 65.8662 27.4062C66.2564 27.1665 66.5676 26.7765 66.7559 26.2158L66.7549 26.2148C66.8697 25.8812 66.9114 25.526 66.876 25.1748C66.8403 24.821 66.7274 24.4808 66.5469 24.1768V24.1758C66.3661 23.8717 66.1207 23.6097 65.8271 23.4111C65.5339 23.2129 65.2007 23.0831 64.8516 23.0303L64.8145 23.0244H64.7764C64.614 23.0244 64.0319 23.0383 63.4844 23.4053C62.8991 23.7977 62.4544 24.5237 62.4697 25.7412C62.4832 26.8157 62.4829 30.1736 62.4795 33.2686C62.4778 34.815 62.4748 36.2942 62.4727 37.3867C62.4716 37.9272 62.4714 38.373 62.4707 38.6855L57.2363 38.6826V25.5166Z" fill="#0D1330" stroke="white"/>
<path d="M86.334 9.95508H85.2764C84.1864 9.95508 83.5493 10.67 83.2129 11.2803C83.0432 11.5881 82.9353 11.891 82.8701 12.1143C82.8373 12.2266 82.8146 12.3216 82.7998 12.3896C82.7924 12.4237 82.787 12.4517 82.7832 12.4717C82.7813 12.4817 82.7794 12.49 82.7783 12.4961C82.7778 12.499 82.7777 12.5019 82.7773 12.5039V12.5059L82.7764 12.5068V12.5078L82.7705 12.5479V14.5557H86.3359V22.4023H82.7705V32.4365H75.6387C75.6378 32.1348 75.6368 31.701 75.6357 31.1514C75.6334 30.0083 75.631 28.3624 75.6309 26.3506C75.6307 22.3328 75.6383 16.8558 75.6738 11.0117C76.2128 5.56737 79.0031 2.9699 81.6348 1.70605C82.9651 1.06724 84.267 0.764846 85.2383 0.623047C85.685 0.557838 86.0596 0.527154 86.332 0.512695L86.334 9.95508Z" fill="#0D1330" stroke="white"/>
<path d="M95.0303 11.9854V32.4365H90.5117V11.9854H95.0303Z" fill="#0D1330" stroke="white"/>
<path d="M104.897 18.0654V32.4355H100.379V18.0654H104.897Z" fill="#0D1330" stroke="white"/>
<path d="M102.721 10.4658C104.115 10.4658 105.23 11.574 105.23 12.9219C105.23 14.2695 104.115 15.3779 102.721 15.3779C101.326 15.3778 100.211 14.2695 100.211 12.9219C100.211 11.5741 101.326 10.4659 102.721 10.4658Z" fill="#0D1330" stroke="white"/>
<path d="M108.461 26.2383C108.449 24.116 109.238 22.0701 110.665 20.5205C111.535 19.6411 112.603 18.9897 113.775 18.6221C114.949 18.2544 116.194 18.1819 117.4 18.4102C119.05 18.7945 120.529 19.7232 121.605 21.0518C122.616 22.3 123.216 23.8352 123.327 25.4424L123.343 25.7646C123.461 30.6163 120.735 32.6078 119.4 33.2598L119.153 33.373C118.568 33.6213 117.519 33.7795 116.557 33.8721C116.093 33.9166 115.668 33.9443 115.357 33.9609V28.3486C115.531 28.3855 115.729 28.4152 115.938 28.4189C116.294 28.4252 116.708 28.3619 117.091 28.127C117.481 27.8872 117.791 27.4971 117.979 26.9365L117.979 26.9355C118.094 26.6009 118.136 26.246 118.102 25.8965V25.8955L118.06 25.6328C118.004 25.3736 117.907 25.1252 117.771 24.8975C117.591 24.5926 117.345 24.3311 117.052 24.1328C116.759 23.9344 116.426 23.8039 116.077 23.751L116.039 23.7451H116.002C115.84 23.7451 115.258 23.759 114.71 24.126C114.125 24.5183 113.678 25.2435 113.693 26.4609V26.4619C113.707 27.5363 113.708 30.8942 113.704 33.9893C113.702 35.5357 113.699 37.0149 113.697 38.1074C113.696 38.6479 113.696 39.0937 113.695 39.4062L108.461 39.4033V26.2383Z" fill="#0D1330" stroke="white"/>
</svg>
