<svg width="124" height="41" viewBox="0 0 124 41" fill="none" xmlns="http://www.w3.org/2000/svg">
<path d="M7.94629 8.88721V25.7954L8.44629 25.7837L7.94629 25.7964V25.8052C7.94645 25.8099 7.94692 25.8162 7.94727 25.8237C7.94794 25.8387 7.94942 25.8591 7.95117 25.8843C7.95469 25.9348 7.96082 26.0052 7.97168 26.0884C7.99306 26.252 8.03346 26.4793 8.11426 26.7104C8.19328 26.9365 8.32393 27.2051 8.5459 27.4146C8.78423 27.6394 9.10842 27.7757 9.50293 27.7407C10.2135 27.6776 10.6423 27.2373 10.8721 26.7329C11.0901 26.2544 11.1475 25.6918 11.1543 25.2407C11.1608 24.8081 11.1608 20.5901 11.1592 16.4897C11.1584 14.4374 11.1573 12.4115 11.1562 10.8989C11.1557 10.1427 11.1546 9.51462 11.1543 9.07568C11.1542 9.00836 11.1543 8.94542 11.1543 8.88721H17.4717V25.6343L17.4727 25.644L17.9717 25.6255L17.4727 25.645V25.6538C17.4729 25.6586 17.4732 25.6656 17.4736 25.6733C17.4746 25.6888 17.4763 25.7099 17.4785 25.7358C17.4829 25.7883 17.4903 25.862 17.5029 25.9487C17.5279 26.1199 17.5738 26.3563 17.6611 26.5991C17.8248 27.0542 18.2174 27.7333 19.0645 27.7427C19.8731 27.7515 20.3062 27.1869 20.5088 26.7124C20.708 26.2458 20.7497 25.7434 20.7412 25.5308C20.7412 25.528 20.7406 25.511 20.7402 25.4712C20.7399 25.4314 20.7395 25.3759 20.7393 25.3062C20.7387 25.1665 20.7377 24.97 20.7373 24.7251C20.7365 24.2352 20.7366 23.5514 20.7363 22.7397C20.7358 21.1166 20.7356 18.9811 20.7363 16.855C20.7371 14.7287 20.7383 12.6111 20.7393 11.0259C20.7397 10.2337 20.7399 9.57424 20.7402 9.11279C20.7403 9.03142 20.7402 8.95591 20.7402 8.88721H26.9736V29.1235C26.9729 29.1312 26.9721 29.1417 26.9707 29.1548C26.9669 29.1901 26.9608 29.2444 26.9502 29.3149C26.9288 29.4566 26.8913 29.6632 26.8271 29.9116C26.6984 30.4103 26.4645 31.069 26.0488 31.7202C25.2347 32.9956 23.6897 34.2971 20.666 34.2339H20.665C18.8616 34.1997 17.6071 33.6834 16.6982 33.0698C15.775 32.4466 15.1993 31.7227 14.7188 31.1958L14.3623 30.8042L13.9922 31.1841C13.0188 32.181 12.4159 32.9137 11.583 33.436C10.7875 33.9349 9.75776 34.2451 7.95996 34.2339C6.16778 34.2227 4.5834 33.7999 3.43652 32.7603C2.2975 31.7276 1.50692 30.0107 1.45605 27.2339C1.40371 24.3715 1.38869 19.661 1.38672 15.6636C1.38573 13.6658 1.38809 11.8471 1.39062 10.5278C1.39189 9.86816 1.39352 9.33322 1.39453 8.96338C1.3946 8.93715 1.39446 8.91176 1.39453 8.88721H7.94629Z" fill="#A3ACB5" stroke="white"/>
<path d="M39.2393 24.9717V24.9707H39.2383V24.9668C39.2381 24.9653 39.2376 24.9637 39.2373 24.9619C39.2367 24.9576 39.2363 24.9515 39.2354 24.9453C39.2334 24.9331 39.2302 24.9174 39.2266 24.8984C39.2192 24.86 39.2083 24.8072 39.1914 24.7461C39.158 24.6256 39.1003 24.4604 39.0029 24.2891C38.8031 23.9377 38.415 23.5374 37.7471 23.502C37.0064 23.4627 36.6029 23.9732 36.417 24.3516C36.322 24.545 36.2651 24.7344 36.2324 24.8711C36.2159 24.9404 36.2054 24.9992 36.1982 25.042C36.1946 25.0635 36.1913 25.0815 36.1895 25.0947C36.1885 25.1012 36.188 25.1071 36.1875 25.1113C36.1873 25.1132 36.1867 25.1148 36.1865 25.1162V25.1201L36.1826 25.1484V33.3906H31.5059L31.4873 13.4482H36.1191V20.7705L36.9404 20.0781C36.941 20.0777 36.9421 20.0772 36.9434 20.0762C36.9464 20.0737 36.952 20.0701 36.959 20.0645C36.9732 20.0529 36.9957 20.0346 37.0254 20.0117C37.0847 19.9659 37.1731 19.8995 37.2861 19.8213C37.5135 19.6641 37.8357 19.4612 38.2148 19.2773C38.9865 18.9033 39.9051 18.6515 40.7334 18.8975C41.5548 19.2127 42.2696 19.761 42.793 20.4775C43.3175 21.1956 43.627 22.0516 43.6826 22.9434C43.698 23.7445 43.6982 26.4676 43.6943 29.0039C43.6924 30.275 43.689 31.4965 43.6865 32.4004C43.6854 32.8013 43.6844 33.1401 43.6836 33.3926H39.2432V25.0029L39.2393 24.9717Z" fill="#A3ACB5" stroke="white"/>
<path d="M52.8926 18.8525V33.2227H48.207V18.8525H52.8926Z" fill="#A3ACB5" stroke="white"/>
<path d="M50.5488 11.2529C51.9302 11.2529 53.0585 12.3853 53.0586 13.793C53.0586 15.2006 51.9303 16.334 50.5488 16.334C49.1675 16.3339 48.0391 15.2006 48.0391 13.793C48.0392 12.3854 49.1676 11.253 50.5488 11.2529Z" fill="#A3ACB5" stroke="white"/>
<path d="M57.2363 26.3037C57.224 24.1816 58.0133 22.1363 59.4404 20.5869C60.2015 19.8177 61.1139 19.2238 62.1152 18.8408L62.5508 18.6885C63.7235 18.321 64.9673 18.2487 66.1738 18.4766C67.8249 18.8606 69.3047 19.7891 70.3809 21.1182C71.3915 22.3664 71.9921 23.9016 72.1025 25.5088L72.1182 25.8311C72.2448 31.0061 69.135 32.9273 67.9287 33.4395C67.3439 33.6877 66.2948 33.8459 65.332 33.9385C64.8686 33.9831 64.4438 34.0107 64.1328 34.0273V28.415C64.3067 28.452 64.505 28.4817 64.7148 28.4854C65.0701 28.4916 65.484 28.4281 65.8662 28.1934C66.2564 27.9536 66.5676 27.5636 66.7559 27.0029L66.7549 27.002C66.8697 26.6683 66.9114 26.3131 66.876 25.9619C66.8403 25.6081 66.7274 25.2679 66.5469 24.9639V24.9629C66.3661 24.6588 66.1207 24.3968 65.8271 24.1982C65.5339 24 65.2007 23.8702 64.8516 23.8174L64.8145 23.8115H64.7764C64.614 23.8115 64.0319 23.8254 63.4844 24.1924C62.8991 24.5848 62.4544 25.3108 62.4697 26.5283C62.4832 27.6028 62.4829 30.9607 62.4795 34.0557C62.4778 35.6021 62.4748 37.0813 62.4727 38.1738C62.4716 38.7143 62.4714 39.1601 62.4707 39.4727L57.2363 39.4697V26.3037Z" fill="#A3ACB5" stroke="white"/>
<path d="M86.334 10.7422H85.2764C84.1864 10.7422 83.5493 11.4571 83.2129 12.0674C83.0432 12.3752 82.9353 12.6782 82.8701 12.9014C82.8373 13.0137 82.8146 13.1087 82.7998 13.1768C82.7924 13.2108 82.787 13.2388 82.7832 13.2588C82.7813 13.2688 82.7794 13.2771 82.7783 13.2832C82.7778 13.2861 82.7777 13.289 82.7773 13.291V13.293L82.7764 13.2939V13.2949L82.7705 13.335V15.3428H86.3359V23.1895H82.7705V33.2236H75.6387C75.6378 32.9219 75.6368 32.4881 75.6357 31.9385C75.6334 30.7954 75.631 29.1495 75.6309 27.1377C75.6307 23.1199 75.6383 17.6429 75.6738 11.7988C76.2128 6.35447 79.0031 3.75701 81.6348 2.49316C82.9651 1.85435 84.267 1.55196 85.2383 1.41016C85.685 1.34495 86.0596 1.31426 86.332 1.2998L86.334 10.7422Z" fill="#A3ACB5" stroke="white"/>
<path d="M95.0303 12.7725V33.2236H90.5117V12.7725H95.0303Z" fill="#A3ACB5" stroke="white"/>
<path d="M104.897 18.8525V33.2227H100.379V18.8525H104.897Z" fill="#A3ACB5" stroke="white"/>
<path d="M102.721 11.2529C104.115 11.2529 105.23 12.3611 105.23 13.709C105.23 15.0567 104.115 16.165 102.721 16.165C101.326 16.1649 100.211 15.0566 100.211 13.709C100.211 12.3612 101.326 11.253 102.721 11.2529Z" fill="#A3ACB5" stroke="white"/>
<path d="M108.461 27.0254C108.449 24.9031 109.238 22.8572 110.665 21.3076C111.535 20.4282 112.603 19.7768 113.775 19.4092C114.949 19.0415 116.194 18.969 117.4 19.1973C119.05 19.5816 120.529 20.5103 121.605 21.8389C122.616 23.0871 123.216 24.6223 123.327 26.2295L123.343 26.5518C123.461 31.4034 120.735 33.3949 119.4 34.0469L119.153 34.1602C118.568 34.4084 117.519 34.5666 116.557 34.6592C116.093 34.7038 115.668 34.7314 115.357 34.748V29.1357C115.531 29.1726 115.729 29.2023 115.938 29.2061C116.294 29.2123 116.708 29.149 117.091 28.9141C117.481 28.6743 117.791 28.2843 117.979 27.7236L117.979 27.7227C118.094 27.388 118.136 27.0331 118.102 26.6836V26.6826L118.06 26.4199C118.004 26.1607 117.907 25.9123 117.771 25.6846C117.591 25.3797 117.345 25.1182 117.052 24.9199C116.759 24.7215 116.426 24.591 116.077 24.5381L116.039 24.5322H116.002C115.84 24.5322 115.258 24.5461 114.71 24.9131C114.125 25.3054 113.678 26.0307 113.693 27.248V27.249C113.707 28.3234 113.708 31.6813 113.704 34.7764C113.702 36.3228 113.699 37.802 113.697 38.8945C113.696 39.435 113.696 39.8808 113.695 40.1934L108.461 40.1904V27.0254Z" fill="#A3ACB5" stroke="white"/>
</svg>
