<svg width="50" height="50" viewBox="0 0 50 50" fill="none" xmlns="http://www.w3.org/2000/svg">
<path d="M3.20312 27.9687C3.125 28.5937 3.125 29.1406 3.125 29.6875C3.125 40 12.9688 48.4375 25 48.4375C37.0312 48.4375 46.875 40 46.875 29.6875C46.875 29.1406 46.875 28.5937 46.7969 27.9687C46.7188 27.6562 46.4844 27.3438 46.0938 27.3438H37.5V31.25H32.8125V21.875C32.8125 21.4062 32.5 21.0938 32.0312 21.0938H17.9688C17.5 21.0938 17.1875 21.4062 17.1875 21.875V31.25H12.5V27.3438H3.90625C3.51562 27.3438 3.28125 27.6562 3.20312 27.9687ZM40.625 29.6875H42.9688C43.4375 29.6875 43.75 30 43.75 30.4688C43.75 30.9375 43.4375 31.25 42.9688 31.25H40.625C40.1562 31.25 39.8438 30.9375 39.8438 30.4688C39.8438 30 40.1562 29.6875 40.625 29.6875ZM40.625 32.8125H42.1875C42.6562 32.8125 42.9688 33.125 42.9688 33.5938C42.9688 34.0625 42.6562 34.375 42.1875 34.375H40.625C40.1562 34.375 39.8438 34.0625 39.8438 33.5938C39.8438 33.125 40.1562 32.8125 40.625 32.8125ZM32.8125 32.8125H37.5V43.2031C36.0156 44.1406 34.4531 44.9219 32.8125 45.5469V32.8125ZM28.5156 46.6406C26.1719 47.0312 23.8281 47.0312 21.4844 46.6406V44.9219C21.4844 42.9688 23.0469 41.4062 25 41.4062C26.9531 41.4062 28.5156 42.9688 28.5156 44.9219V46.6406ZM21.0938 24.2188H28.9062C29.375 24.2188 29.6875 24.5312 29.6875 25C29.6875 25.4688 29.375 25.7812 28.9062 25.7812H21.0938C20.625 25.7812 20.3125 25.4688 20.3125 25C20.3125 24.5312 20.625 24.2188 21.0938 24.2188ZM21.0938 28.9062H28.9062C29.375 28.9062 29.6875 29.2188 29.6875 29.6875C29.6875 30.1562 29.375 30.4688 28.9062 30.4688H21.0938C20.625 30.4688 20.3125 30.1562 20.3125 29.6875C20.3125 29.2188 20.625 28.9062 21.0938 28.9062ZM21.0938 33.5938H28.9062C29.375 33.5938 29.6875 33.9062 29.6875 34.375C29.6875 34.8438 29.375 35.1562 28.9062 35.1562H21.0938C20.625 35.1562 20.3125 34.8438 20.3125 34.375C20.3125 33.9062 20.625 33.5938 21.0938 33.5938ZM17.1875 32.8125V45.5469C15.5469 44.9219 13.9844 44.1406 12.5 43.2031V32.8125H17.1875ZM9.375 34.375H7.8125C7.34375 34.375 7.03125 34.0625 7.03125 33.5938C7.03125 33.125 7.34375 32.8125 7.8125 32.8125H9.375C9.84375 32.8125 10.1562 33.125 10.1562 33.5938C10.1562 34.0625 9.84375 34.375 9.375 34.375ZM7.03125 29.6875H9.375C9.84375 29.6875 10.1562 30 10.1562 30.4688C10.1562 30.9375 9.84375 31.25 9.375 31.25H7.03125C6.5625 31.25 6.25 30.9375 6.25 30.4688C6.25 30 6.5625 29.6875 7.03125 29.6875Z" fill="#A3ACB5"/>
<path d="M32.7305 8.35547L31.6367 7.80859C31.4805 7.10547 31.2461 6.48047 30.8555 5.85547L31.2461 4.68359C30.8555 4.13672 30.3086 3.58984 29.7617 3.19922L28.5898 3.58984C27.9648 3.19922 27.3398 2.96484 26.6367 2.80859L26.0117 1.63672C25.3086 1.55859 24.6055 1.55859 23.9023 1.63672L23.3555 2.73047C22.6523 2.88672 22.0273 3.12109 21.4023 3.51172L20.3086 3.12109C19.7617 3.58984 19.2148 4.05859 18.7461 4.68359L19.1367 5.85547C18.7461 6.48047 18.5117 7.10547 18.3555 7.80859L17.2617 8.35547C17.1836 9.05859 17.1836 9.76172 17.2617 10.4648L18.3555 11.0117C18.5117 11.7148 18.7461 12.3398 19.1367 12.9648L18.7461 14.0586C19.2148 14.6055 19.6836 15.1523 20.3086 15.6211L21.4805 15.2305C22.1055 15.6211 22.7305 15.8555 23.4336 16.0117L23.9805 17.1055C24.6836 17.1836 25.3867 17.1836 26.0898 17.1055L26.6367 16.0117C27.3398 15.8555 27.9648 15.6211 28.5898 15.2305L29.7617 15.6211C30.3086 15.2305 30.8555 14.6836 31.2461 14.1367L30.8555 12.9648C31.2461 12.3398 31.4805 11.7148 31.6367 11.0117L32.7305 10.4648C32.8867 9.76172 32.8867 9.05859 32.7305 8.35547ZM24.9961 12.4961C23.2773 12.4961 21.8711 11.0898 21.8711 9.37109C21.8711 7.65234 23.2773 6.24609 24.9961 6.24609C26.7148 6.24609 28.1211 7.65234 28.1211 9.37109C28.1211 11.0898 26.7148 12.4961 24.9961 12.4961Z" fill="#A3ACB5"/>
</svg>
