<svg width="50" height="50" viewBox="0 0 50 50" fill="none" xmlns="http://www.w3.org/2000/svg">
<g clip-path="url(#clip0_21701_40890)">
<path d="M20.9453 19.1577V21.1271H28.811V19.1577C28.8101 16.9857 27.0486 15.2257 24.8765 15.2266C22.7057 15.2274 20.9462 16.987 20.9453 19.1577Z" fill="#A3ACB5"/>
<path d="M7.6875 11.1401V14.3274C7.69689 20.7038 9.50571 26.9481 12.9059 32.3422C15.8692 37.0656 20.0026 41.0894 24.8825 44.0087C29.7623 41.0894 33.8957 37.0626 36.8591 32.3422C40.2589 26.948 42.0673 20.7037 42.0764 14.3274V11.1401L24.8825 6.55469L7.6875 11.1401ZM30.7759 19.1623V21.2168C31.9309 21.5226 32.7368 22.5656 32.7413 23.7604V31.2612C32.7365 32.7139 31.5594 33.8901 30.1067 33.8939H19.6602C18.2069 33.8922 17.0292 32.7145 17.0275 31.2612V23.7643C17.032 22.5695 17.838 21.5265 18.993 21.2207V19.1662C18.994 15.9135 21.6318 13.2776 24.8844 13.2787C28.1356 13.2798 30.7709 15.9151 30.7719 19.1662L30.7759 19.1623Z" fill="#A3ACB5"/>
<path d="M19.6604 23.0859C19.2873 23.0865 18.985 23.3888 18.9844 23.762V31.2588C18.985 31.632 19.2873 31.9344 19.6604 31.9348H30.1069C30.48 31.9344 30.7824 31.632 30.7829 31.2588V23.762C30.7824 23.3888 30.48 23.0865 30.1069 23.0859H19.6604ZM23.9043 26.0346C23.9043 25.4943 24.3423 25.0563 24.8827 25.0563C25.423 25.0563 25.861 25.4943 25.861 26.0346V28.9813C25.861 29.5216 25.423 29.9596 24.8827 29.9596C24.3423 29.9596 23.9043 29.5216 23.9043 28.9813V26.0346Z" fill="#A3ACB5"/>
<path d="M24.8811 0.5L1.92969 6.62037V13.4217C1.92969 28.9515 10.7091 43.1117 24.8811 50.5C39.053 43.1088 47.8325 28.9486 47.8325 13.4217V6.62037L24.8811 0.5ZM44.0317 14.3246C44.0244 21.0685 42.1135 27.6733 38.5189 33.3794C35.2904 38.5293 30.7432 42.8887 25.3742 45.988C25.0715 46.1627 24.6985 46.1627 24.3958 45.988C19.0268 42.8896 14.4815 38.5293 11.2501 33.3794C7.65325 27.674 5.73966 21.0692 5.72948 14.3246V10.3859C5.72919 9.94226 6.02758 9.55396 6.45638 9.43989L24.6267 4.59427C24.7921 4.55015 24.9662 4.55015 25.1315 4.59427L43.3058 9.43989C43.7342 9.55426 44.0321 9.94255 44.0317 10.3859V14.3246Z" fill="#A3ACB5"/>
</g>
<defs>
<clipPath id="clip0_21701_40890">
<rect width="50" height="50" fill="white"/>
</clipPath>
</defs>
</svg>
