<svg width="50" height="50" viewBox="0 0 50 50" fill="none" xmlns="http://www.w3.org/2000/svg">
<path d="M47.0353 6H2.96467C1.328 6 0.00206845 7.31804 0 8.94498V40.055C0.00207216 41.682 1.328 43 2.96467 43H47.0353C48.672 43 49.9979 41.682 50 40.055V8.94498C49.9979 7.31804 48.672 6 47.0353 6ZM43.4885 8.10887C44.5327 8.10887 45.4712 8.73288 45.871 9.69258C46.2688 10.6502 46.0492 11.7541 45.3116 12.4873C44.572 13.2204 43.4636 13.4387 42.4982 13.0412C41.5348 12.6458 40.9071 11.7109 40.9071 10.6729C40.9071 9.99325 41.1785 9.34045 41.6632 8.85852C42.148 8.37867 42.8027 8.10681 43.4885 8.10887ZM36.399 8.10887C37.4411 8.10887 38.3817 8.73288 38.7815 9.69052C39.1814 10.6502 38.9597 11.752 38.2222 12.4873C37.4846 13.2204 36.3741 13.4387 35.4108 13.0412C34.4474 12.6458 33.8176 11.7109 33.8176 10.6729C33.8196 9.25599 34.9736 8.10887 36.399 8.10887ZM29.3095 8.10887C30.3537 8.10887 31.2943 8.73288 31.6921 9.69258C32.0919 10.6502 31.8702 11.7541 31.1327 12.4873C30.3951 13.2204 29.2847 13.4387 28.3213 13.0412C27.3559 12.6458 26.7281 11.7109 26.7281 10.6729C26.7281 9.99325 26.9995 9.34045 27.4843 8.85852C27.9691 8.37661 28.6258 8.10681 29.3095 8.10887ZM5.59823 9.01711H18.8968C19.8166 9.01711 20.5624 9.75848 20.5624 10.6729C20.5624 11.5893 19.8166 12.3307 18.8968 12.3307H5.59823C4.67628 12.3307 3.93047 11.5893 3.93047 10.6729C3.93047 9.75848 4.67628 9.01711 5.59823 9.01711ZM46.1531 39.1776H3.84535V15.3479H46.1531V39.1776Z" fill="#A3ACB5"/>
<path d="M18.3084 24.6007L22.3214 20.6095L21.3601 19.6539V19.656C20.9664 19.2647 20.434 19.0443 19.8787 19.0443C19.3214 19.0443 18.789 19.2647 18.3953 19.656L17.347 20.6981V20.696C16.5286 21.5116 16.5286 22.8317 17.347 23.6452L18.3084 24.6007Z" fill="#A3ACB5"/>
<path d="M19.3542 25.641L23.3693 21.6518L30.8608 29.1009L26.8457 33.09L19.3542 25.641Z" fill="#A3ACB5"/>
<path d="M28.2857 32.9893C28.0143 33.2591 27.9169 33.6566 28.0329 34.0211C28.1489 34.3835 28.4597 34.6533 28.8367 34.7172L33.2662 35.4791L32.4996 31.0781C32.4333 30.7033 32.164 30.3943 31.7973 30.279C31.4306 30.1637 31.0308 30.2605 30.7594 30.5303L28.2857 32.9893Z" fill="#A3ACB5"/>
</svg>
