<svg width="50" height="50" viewBox="0 0 50 50" fill="none" xmlns="http://www.w3.org/2000/svg">
<path d="M27.3109 13.0539C27.3109 12.4014 27.0489 11.7757 26.5824 11.3143C26.1159 10.8529 25.4832 10.5938 24.8234 10.5938C24.1637 10.5938 23.531 10.8529 23.0645 11.3143C22.598 11.7757 22.3359 12.4014 22.3359 13.0539V13.8059H27.3109V13.0539Z" fill="#A3ACB5"/>
<path d="M8.2375 31.9141C7.57799 31.9148 6.94571 32.1742 6.47937 32.6354C6.01303 33.0966 5.75072 33.722 5.75 34.3742V35.1254H10.725V34.3742C10.7243 33.722 10.462 33.0966 9.99563 32.6354C9.52929 32.1742 8.897 31.9148 8.2375 31.9141Z" fill="#A3ACB5"/>
<path d="M8.24323 30.2729C8.70116 30.2729 9.07239 29.9058 9.07239 29.4529C9.07239 29 8.70116 28.6328 8.24323 28.6328C7.78529 28.6328 7.41406 29 7.41406 29.4529C7.41406 29.9058 7.78529 30.2729 8.24323 30.2729Z" fill="#A3ACB5"/>
<path d="M41.4073 30.2573C41.8652 30.2573 42.2365 29.8901 42.2365 29.4372C42.2365 28.9843 41.8652 28.6172 41.4073 28.6172C40.9494 28.6172 40.5781 28.9843 40.5781 29.4372C40.5781 29.8901 40.9494 30.2573 41.4073 30.2573Z" fill="#A3ACB5"/>
<path d="M24.8214 8.95261C25.2793 8.95261 25.6505 8.58546 25.6505 8.13255C25.6505 7.67965 25.2793 7.3125 24.8214 7.3125C24.3634 7.3125 23.9922 7.67965 23.9922 8.13255C23.9922 8.58546 24.3634 8.95261 24.8214 8.95261Z" fill="#A3ACB5"/>
<path d="M48.9208 23.6806H44.3295C43.7123 20.8204 42.4586 18.1321 40.6595 15.811C38.8605 13.4899 36.5612 11.5943 33.9287 10.262C33.853 7.91861 32.8568 5.69666 31.1514 4.06797C29.4461 2.43927 27.1661 1.53211 24.7954 1.5391C22.4248 1.54609 20.1502 2.46668 18.4547 4.1054C16.7593 5.74413 15.7764 7.97191 15.7148 10.3157C13.1092 11.6556 10.8352 13.5485 9.05545 15.859C7.27573 18.1694 6.03431 20.8403 5.41999 23.6806H0.829166C0.72027 23.6805 0.612436 23.7017 0.511824 23.7429C0.411213 23.7841 0.319795 23.8445 0.242794 23.9207C0.165793 23.9969 0.104718 24.0873 0.063059 24.1868C0.0213996 24.2863 -2.81843e-05 24.3929 1.39641e-07 24.5006V39.2616C-6.30805e-05 39.3693 0.0213408 39.476 0.0629878 39.5755C0.104635 39.675 0.165708 39.7654 0.242716 39.8416C0.319724 39.9178 0.411156 39.9782 0.511783 40.0194C0.612411 40.0605 0.72026 40.0817 0.829166 40.0817H9.35362C11.2154 42.3845 13.5771 44.2436 16.2639 45.5212C18.9507 46.7988 21.8938 47.4621 24.875 47.4621C27.8562 47.4621 30.7992 46.7988 33.4861 45.5212C36.1729 44.2436 38.5346 42.3845 40.3964 40.0817H48.9208C49.0297 40.0817 49.1375 40.0605 49.2382 40.0194C49.3388 39.9782 49.4302 39.9178 49.5072 39.8416C49.5842 39.7654 49.6453 39.675 49.687 39.5755C49.7286 39.476 49.75 39.3693 49.7499 39.2616V24.5006C49.75 24.3929 49.7285 24.2863 49.6869 24.1868C49.6452 24.0873 49.5841 23.9969 49.5071 23.9207C49.4301 23.8445 49.3387 23.7841 49.2381 23.7429C49.1375 23.7017 49.0297 23.6805 48.9208 23.6806ZM20.6773 13.0539C20.6798 12.3343 20.8743 11.6282 21.2412 11.0068C21.6081 10.3854 22.1344 9.87084 22.7668 9.51511C22.5123 9.14535 22.3646 8.71395 22.3395 8.26734C22.3144 7.82073 22.4129 7.3758 22.6243 6.98042C22.8358 6.58503 23.1523 6.25415 23.5397 6.02337C23.9272 5.79259 24.3709 5.67064 24.8231 5.67064C25.2754 5.67064 25.7191 5.79259 26.1065 6.02337C26.494 6.25415 26.8104 6.58503 27.0219 6.98042C27.2334 7.3758 27.3319 7.82073 27.3068 8.26734C27.2817 8.71395 27.134 9.14535 26.8795 9.51511C27.5119 9.87084 28.0382 10.3854 28.4051 11.0068C28.772 11.6282 28.9665 12.3343 28.969 13.0539V14.6259C28.969 14.7336 28.9476 14.8403 28.9059 14.9398C28.8643 15.0393 28.8032 15.1297 28.7262 15.2059C28.6492 15.282 28.5578 15.3424 28.4571 15.3836C28.3565 15.4248 28.2487 15.446 28.1398 15.446H21.5065C21.3976 15.446 21.2897 15.4248 21.1891 15.3836C21.0885 15.3424 20.9971 15.282 20.9201 15.2059C20.8431 15.1297 20.782 15.0393 20.7404 14.9398C20.6987 14.8403 20.6773 14.7336 20.6773 14.6259V13.0539ZM4.92316 36.767C4.81426 36.7671 4.70641 36.7459 4.60578 36.7047C4.50515 36.6635 4.41372 36.6031 4.33672 36.5269C4.25971 36.4508 4.19863 36.3604 4.15699 36.2608C4.11534 36.1613 4.09394 36.0546 4.094 35.9469V34.3757C4.09647 33.6561 4.29098 32.95 4.65788 32.3286C5.02478 31.7072 5.55105 31.1927 6.1835 30.8369C5.92901 30.4672 5.78126 30.0358 5.75616 29.5892C5.73106 29.1425 5.82955 28.6976 6.04103 28.3022C6.25252 27.9068 6.56899 27.576 6.95642 27.3452C7.34384 27.1144 7.78756 26.9925 8.23983 26.9925C8.6921 26.9925 9.13581 27.1144 9.52323 27.3452C9.91066 27.576 10.2271 27.9068 10.4386 28.3022C10.6501 28.6976 10.7486 29.1425 10.7235 29.5892C10.6984 30.0358 10.5506 30.4672 10.2962 30.8369C10.9286 31.1927 11.4549 31.7072 11.8218 32.3286C12.1887 32.95 12.3832 33.6561 12.3857 34.3757V35.9469C12.3857 36.0546 12.3643 36.1613 12.3227 36.2608C12.281 36.3604 12.2199 36.4508 12.1429 36.5269C12.0659 36.6031 11.9745 36.6635 11.8739 36.7047C11.7732 36.7459 11.6654 36.7671 11.5565 36.767H4.92316ZM24.875 45.822C22.3717 45.8303 19.8939 45.3243 17.5986 44.3362C15.3034 43.3481 13.2406 41.8993 11.5409 40.0817H15.7541C15.8631 40.0817 15.9709 40.0605 16.0715 40.0194C16.1722 39.9782 16.2636 39.9178 16.3406 39.8416C16.4176 39.7654 16.4787 39.675 16.5203 39.5755C16.562 39.476 16.5834 39.3693 16.5833 39.2616V24.5006C16.5833 24.3929 16.5619 24.2863 16.5203 24.1868C16.4786 24.0873 16.4175 23.9969 16.3405 23.9207C16.2635 23.8445 16.1721 23.7841 16.0715 23.7429C15.9709 23.7017 15.863 23.6805 15.7541 23.6806H7.11269C7.68581 21.2611 8.75717 18.9846 10.2599 16.993C11.7625 15.0015 13.6643 13.3378 15.8463 12.1058C16.2129 14.2028 17.3181 16.1037 18.9662 17.4718C20.6143 18.8399 22.6989 19.5869 24.8506 19.5804C27.0023 19.5738 29.0822 18.8143 30.7218 17.4362C32.3614 16.0582 33.4549 14.1506 33.8085 12.0515C36.0148 13.2787 37.939 14.9462 39.4589 16.9482C40.9788 18.9502 42.0613 21.2428 42.6375 23.6806H33.9958C33.8869 23.6805 33.7791 23.7017 33.6785 23.7429C33.5778 23.7841 33.4864 23.8445 33.4094 23.9207C33.3324 23.9969 33.2713 24.0873 33.2297 24.1868C33.188 24.2863 33.1666 24.3929 33.1666 24.5006V39.2616C33.1666 39.3693 33.188 39.476 33.2296 39.5755C33.2713 39.675 33.3323 39.7654 33.4093 39.8416C33.4864 39.9178 33.5778 39.9782 33.6784 40.0194C33.779 40.0605 33.8869 40.0817 33.9958 40.0817H38.2099C36.5099 41.8991 34.4469 43.3477 32.1515 44.3358C29.8561 45.3239 27.3783 45.83 24.875 45.822ZM45.5523 35.9301C45.5523 36.0378 45.5309 36.1445 45.4893 36.244C45.4476 36.3435 45.3866 36.434 45.3096 36.5101C45.2326 36.5863 45.1411 36.6467 45.0405 36.6879C44.9399 36.7291 44.832 36.7502 44.7231 36.7502H38.0898C37.9809 36.7502 37.873 36.7291 37.7724 36.6879C37.6718 36.6467 37.5804 36.5863 37.5033 36.5101C37.4263 36.434 37.3653 36.3435 37.3236 36.244C37.282 36.1445 37.2606 36.0378 37.2606 35.9301V34.3581C37.2631 33.6385 37.4576 32.9323 37.8245 32.311C38.1914 31.6896 38.7177 31.175 39.3501 30.8193C39.0956 30.4495 38.9479 30.0181 38.9228 29.5715C38.8977 29.1249 38.9962 28.68 39.2077 28.2846C39.4191 27.8892 39.7356 27.5583 40.123 27.3276C40.5105 27.0968 40.9542 26.9748 41.4065 26.9748C41.8587 26.9748 42.3024 27.0968 42.6899 27.3276C43.0773 27.5583 43.3938 27.8892 43.6052 28.2846C43.8167 28.68 43.9152 29.1249 43.8901 29.5715C43.865 30.0181 43.7173 30.4495 43.4628 30.8193C44.0952 31.175 44.6215 31.6896 44.9884 32.311C45.3553 32.9323 45.5498 33.6385 45.5523 34.3581V35.9301Z" fill="#A3ACB5"/>
<path d="M41.4094 31.8984C40.7499 31.8992 40.1176 32.1586 39.6512 32.6198C39.1849 33.081 38.9226 33.7063 38.9219 34.3586V35.1106H43.8969V34.3586C43.8961 33.7063 43.6338 33.081 43.1675 32.6198C42.7012 32.1586 42.0689 31.8991 41.4094 31.8984Z" fill="#A3ACB5"/>
<path d="M27.5521 22.4763C27.4886 22.4344 27.4148 22.4104 27.3385 22.4067C27.2623 22.4031 27.1865 22.42 27.1193 22.4556C27.052 22.4912 26.9957 22.5442 26.9565 22.609C26.9173 22.6737 26.8966 22.7478 26.8966 22.8232V24.5043H19.0714C18.8514 24.5043 18.6405 24.5907 18.485 24.7444C18.3295 24.8982 18.2422 25.1068 18.2422 25.3243C18.2422 25.5418 18.3295 25.7504 18.485 25.9042C18.6405 26.058 18.8514 26.1444 19.0714 26.1444H26.8966V27.8254C26.8966 27.9008 26.9173 27.9749 26.9565 28.0396C26.9957 28.1044 27.052 28.1574 27.1193 28.193C27.1865 28.2286 27.2623 28.2455 27.3386 28.2419C27.4148 28.2382 27.4886 28.2142 27.5521 28.1723L31.3454 25.6712C31.4031 25.6331 31.4505 25.5815 31.4833 25.521C31.516 25.4605 31.5331 25.3929 31.5331 25.3243C31.5331 25.2556 31.516 25.188 31.4833 25.1275C31.4505 25.067 31.4031 25.0154 31.3454 24.9773L27.5521 22.4763Z" fill="#A3ACB5"/>
<path d="M30.6805 30.2387H22.8553V28.5576C22.8553 28.4821 22.8346 28.4081 22.7954 28.3433C22.7561 28.2786 22.6999 28.2256 22.6326 28.19C22.5653 28.1544 22.4895 28.1375 22.4133 28.1411C22.3371 28.1448 22.2633 28.1688 22.1998 28.2106L18.4065 30.7118C18.3488 30.7498 18.3014 30.8014 18.2686 30.8619C18.2359 30.9225 18.2188 30.99 18.2188 31.0587C18.2188 31.1273 18.2359 31.1949 18.2686 31.2554C18.3014 31.316 18.3488 31.3676 18.4065 31.4056L22.1998 33.9068C22.2633 33.9486 22.3371 33.9727 22.4134 33.9763C22.4896 33.9799 22.5654 33.9631 22.6326 33.9274C22.6999 33.8918 22.7562 33.8388 22.7954 33.7741C22.8346 33.7093 22.8553 33.6353 22.8553 33.5598V31.8788H30.6805C30.9005 31.8788 31.1114 31.7924 31.2669 31.6386C31.4224 31.4848 31.5097 31.2762 31.5097 31.0587C31.5097 30.8412 31.4224 30.6326 31.2669 30.4788C31.1114 30.3251 30.9005 30.2387 30.6805 30.2387Z" fill="#A3ACB5"/>
</svg>
