<svg width="50" height="50" viewBox="0 0 50 50" fill="none" xmlns="http://www.w3.org/2000/svg">
<path d="M2.55078 34.0059C2.55078 34.8177 3.2096 35.4765 4.02137 35.4765C4.83313 35.4765 5.49196 34.8177 5.49196 34.0059C5.49196 31.7 5.8949 29.4883 6.63313 27.4324C5.78019 26.7736 4.96255 26.1412 4.20372 25.5559C3.13608 28.1647 2.55078 31.0177 2.55078 34.0059Z" fill="#1B275F"/>
<path d="M25.0001 11.5559C18.3295 11.5559 12.3295 14.4794 8.21484 19.1118C9.25896 19.5089 10.2501 19.8853 11.1884 20.2441C14.7207 16.6971 19.609 14.4971 25.0001 14.4971C35.756 14.4971 44.509 23.25 44.509 34.0059C44.509 34.8177 45.1678 35.4765 45.9795 35.4765C46.7913 35.4765 47.4501 34.8177 47.4501 34.0059C47.4501 21.6265 37.3795 11.5559 25.0001 11.5559Z" fill="#1B275F"/>
<path d="M27.1466 29.4707C27.0024 29.3972 1.77302 19.8089 1.37891 19.6589C1.79949 19.9854 23.2907 36.5825 23.4348 36.6589C24.026 36.9648 24.6613 37.1089 25.2848 37.1089C26.7495 37.1089 28.1671 36.3119 28.8848 34.9207C29.9083 32.9383 29.1289 30.4942 27.1466 29.4707Z" fill="#1B275F"/>
</svg>
