<svg width="50" height="50" viewBox="0 0 50 50" fill="none" xmlns="http://www.w3.org/2000/svg">
<path d="M21.7553 29.9949C21.6401 29.8568 21.525 29.734 21.4022 29.6034C21.2794 29.4729 21.1489 29.3655 21.0107 29.2503C20.9063 29.1668 20.7639 29.149 20.6422 29.2043L19.6596 29.6188C19.2277 29.3587 18.7594 29.1646 18.2702 29.0431L17.8787 28.0528C17.8305 27.93 17.7181 27.8443 17.5869 27.8302C17.4103 27.8148 17.2338 27.8071 17.0572 27.8071C16.8807 27.8071 16.7042 27.8148 16.5276 27.8302C16.3964 27.8442 16.2841 27.93 16.2358 28.0528L15.8443 29.0431C15.355 29.1646 14.8867 29.3587 14.4549 29.6188L13.4723 29.2043C13.3506 29.149 13.2082 29.1668 13.1038 29.2503C12.9656 29.3655 12.8428 29.4806 12.7123 29.6034C12.5818 29.7262 12.4744 29.8568 12.3592 29.9949C12.2757 30.0993 12.2578 30.2417 12.3132 30.3634L12.7277 31.346C12.4676 31.7779 12.2735 32.2462 12.152 32.7354L11.1617 33.1269C11.0389 33.1751 10.9532 33.2875 10.939 33.4187C10.9237 33.5953 10.916 33.7718 10.916 33.9484C10.916 34.125 10.9237 34.3015 10.939 34.478C10.9531 34.6092 11.0389 34.7216 11.1617 34.7698L12.152 35.1613C12.2735 35.6506 12.4676 36.1189 12.7277 36.5507L12.3132 37.5333C12.2578 37.655 12.2757 37.7974 12.3592 37.9018C12.4744 38.04 12.5895 38.1628 12.7123 38.2933C12.8351 38.4238 12.9656 38.5312 13.1038 38.6464C13.2082 38.73 13.3506 38.7478 13.4723 38.6924L14.4549 38.2779C14.8868 38.538 15.3551 38.7321 15.8443 38.8536L16.2358 39.8439C16.284 39.9667 16.3964 40.0524 16.5276 40.0666C16.7042 40.0819 16.8807 40.0896 17.0572 40.0896C17.2338 40.0896 17.4103 40.0819 17.5869 40.0666C17.7181 40.0525 17.8304 39.9667 17.8787 39.8439L18.2702 38.8536C18.7595 38.7321 19.2278 38.538 19.6596 38.2779L20.6422 38.6924C20.7639 38.7478 20.9063 38.73 21.0107 38.6464C21.1489 38.5312 21.2717 38.4161 21.4022 38.2933C21.5327 38.1705 21.6401 38.04 21.7553 37.9018C21.8388 37.7974 21.8567 37.655 21.8013 37.5333L21.3868 36.5507C21.6469 36.1188 21.841 35.6505 21.9625 35.1613L22.9528 34.7698C23.0756 34.7216 23.1613 34.6092 23.1755 34.478C23.1908 34.3015 23.1985 34.125 23.1985 33.9484C23.1985 33.7718 23.1908 33.5953 23.1755 33.4187C23.1614 33.2875 23.0756 33.1752 22.9528 33.1269L21.9625 32.7354C21.841 32.2462 21.6469 31.7778 21.3868 31.346L21.8013 30.3634C21.8567 30.2417 21.8388 30.0993 21.7553 29.9949ZM17.0572 37.0189C15.3614 37.0189 13.9867 35.6442 13.9867 33.9484C13.9867 32.2525 15.3614 30.8778 17.0572 30.8778C18.7531 30.8778 20.1278 32.2525 20.1278 33.9484C20.1279 35.6442 18.7532 37.0189 17.0572 37.0189Z" fill="#1B275F"/>
<path d="M29.2459 21.0134C29.3611 21.1515 29.4762 21.2743 29.599 21.4049C29.7218 21.5354 29.8524 21.6428 29.9905 21.758C30.0949 21.8415 30.2373 21.8593 30.359 21.804L31.3416 21.3895C31.7735 21.6496 32.2419 21.8437 32.7311 21.9652L33.1226 22.9555C33.1707 23.0783 33.2831 23.164 33.4143 23.1781C33.5909 23.1935 33.7674 23.2012 33.944 23.2012C34.1206 23.2012 34.2971 23.1935 34.4736 23.1781C34.6048 23.1641 34.7172 23.0783 34.7654 22.9555L35.1569 21.9652C35.6462 21.8437 36.1145 21.6496 36.5463 21.3895L37.5289 21.804C37.6506 21.8593 37.793 21.8415 37.8974 21.758C38.0356 21.6428 38.1584 21.5277 38.2889 21.4049C38.4194 21.2821 38.5268 21.1515 38.642 21.0134C38.7256 20.909 38.7434 20.7666 38.688 20.6449L38.2735 19.6623C38.5336 19.2304 38.7277 18.7621 38.8493 18.2729L39.8395 17.8814C39.9623 17.8332 40.048 17.7208 40.0622 17.5896C40.0776 17.413 40.0852 17.2365 40.0852 17.0599C40.0852 16.8833 40.0776 16.7068 40.0622 16.5303C40.0481 16.3991 39.9623 16.2867 39.8395 16.2385L38.8493 15.847C38.7277 15.3577 38.5336 14.8894 38.2735 14.4576L38.688 13.475C38.7434 13.3533 38.7256 13.2109 38.642 13.1065C38.5268 12.9683 38.4117 12.8455 38.2889 12.715C38.1661 12.5845 38.0356 12.4771 37.8974 12.3619C37.793 12.2783 37.6506 12.2605 37.5289 12.3159L36.5463 12.7304C36.1144 12.4703 35.6461 12.2762 35.1569 12.1546L34.7654 11.1644C34.7173 11.0416 34.6048 10.9559 34.4736 10.9417C34.2971 10.9263 34.1206 10.9187 33.944 10.9187C33.7674 10.9187 33.5909 10.9263 33.4143 10.9417C33.2831 10.9558 33.1708 11.0416 33.1226 11.1644L32.7311 12.1546C32.2418 12.2762 31.7734 12.4703 31.3416 12.7304L30.359 12.3159C30.2373 12.2605 30.0949 12.2783 29.9905 12.3619C29.8524 12.4771 29.7296 12.5922 29.599 12.715C29.4685 12.8378 29.3611 12.9683 29.2459 13.1065C29.1624 13.2109 29.1446 13.3533 29.1999 13.475L29.6144 14.4576C29.3543 14.8895 29.1602 15.3578 29.0387 15.847L28.0484 16.2385C27.9256 16.2866 27.8399 16.3991 27.8258 16.5303C27.8104 16.7068 27.8027 16.8833 27.8027 17.0599C27.8027 17.2365 27.8104 17.413 27.8258 17.5896C27.8398 17.7208 27.9256 17.8331 28.0484 17.8814L29.0387 18.2729C29.1602 18.7621 29.3543 19.2305 29.6144 19.6623L29.1999 20.6449C29.1446 20.7666 29.1624 20.909 29.2459 21.0134ZM33.944 13.9894C35.6398 13.9894 37.0145 15.3641 37.0145 17.0599C37.0145 18.7558 35.6398 20.1305 33.944 20.1305C32.2482 20.1305 30.8734 18.7558 30.8734 17.0599C30.8734 15.3641 32.2481 13.9894 33.944 13.9894Z" fill="#1B275F"/>
<path d="M43.1917 7.81134C38.1099 2.72955 29.8707 2.72955 24.7888 7.81134C19.7069 12.8931 19.707 21.1324 24.7888 26.2143C29.0847 30.5066 29.0877 37.4688 24.7953 41.7647C20.5029 46.0606 13.5408 46.0635 9.24487 41.7711C5.0777 37.6075 4.93205 30.8995 8.91454 26.5589L9.55856 25.9125C9.85497 25.6178 10.3327 25.6144 10.6333 25.9049L10.9894 26.2519C11.154 26.434 11.4351 26.4482 11.6172 26.2837C11.6996 26.2093 11.7511 26.1068 11.7617 25.9962L12.1623 22.2915C12.1765 22.156 12.1282 22.0215 12.0311 21.9261C11.9498 21.8436 11.8398 21.7956 11.7241 21.7918C11.7079 21.7918 11.6926 21.7918 11.6757 21.7918L7.96331 22.2033C7.72213 22.2241 7.54348 22.4365 7.56435 22.6777C7.57352 22.7845 7.62156 22.8842 7.69929 22.9579L8.12839 23.387C8.42804 23.6868 8.42804 24.1727 8.12839 24.4725L7.80832 24.7925C2.72878 29.8746 2.73085 38.1122 7.81281 43.1917C12.8948 48.2712 21.1324 48.2692 26.212 43.1872C31.2897 38.1069 31.2897 29.8729 26.212 24.7926C21.9161 20.5003 21.9131 13.5381 26.2055 9.24223C30.4979 4.94632 37.4601 4.94327 41.7561 9.23557C45.9232 13.3992 46.0689 20.1072 42.0864 24.4478L41.4424 25.0942C41.1452 25.3917 40.664 25.3948 40.3631 25.1011L40.0069 24.7533C39.8388 24.5739 39.557 24.5647 39.3776 24.7328C39.2996 24.8058 39.2505 24.9044 39.2392 25.0105L38.8385 28.7144C38.8241 28.8501 38.8725 28.9849 38.9698 29.0805C39.0654 29.1735 39.196 29.2211 39.3291 29.2118L43.0414 28.8027C43.2826 28.7818 43.4612 28.5694 43.4404 28.3282C43.4312 28.2214 43.3832 28.1217 43.3054 28.048L42.8786 27.6211C42.5789 27.3214 42.5789 26.8354 42.8786 26.5357L43.1987 26.2156C48.2662 21.1264 48.2632 12.8969 43.1917 7.81134Z" fill="#1B275F"/>
</svg>
