<svg width="50" height="50" viewBox="0 0 50 50" fill="none" xmlns="http://www.w3.org/2000/svg">
<g clip-path="url(#clip0_12610_28481)">
<path d="M25 50C11.2146 50 0 38.7854 0 25C0 11.2146 11.2146 0 25 0C38.7854 0 50 11.2146 50 25C50 26.075 49.9375 27.1125 49.8042 28.1687C49.7333 28.7375 49.1917 29.1458 48.6417 29.075C48.0708 29.0042 47.6646 28.4833 47.7354 27.9125C47.8583 26.9417 47.9167 25.9896 47.9167 25C47.9167 12.3646 37.6354 2.08333 25 2.08333C12.3646 2.08333 2.08333 12.3646 2.08333 25C2.08333 37.6354 12.3646 47.9167 25 47.9167C25.9979 47.9167 26.95 47.8583 27.9104 47.7375C28.475 47.6708 29.0021 48.0687 29.075 48.6417C29.1458 49.2125 28.7417 49.7333 28.1708 49.8042C27.1229 49.9354 26.0854 50 25 50Z" fill="#1B275F"/>
<path d="M24.6243 39.5626C24.616 39.5626 24.6056 39.5626 24.5973 39.5626C16.6452 39.3584 10.416 32.9605 10.416 25.0001C10.416 16.9584 16.9598 10.4167 24.9993 10.4167C32.9619 10.4167 39.3598 16.6459 39.5619 24.598C39.5764 25.173 39.1223 25.6501 38.5473 25.6667C38.0264 25.7001 37.4931 25.2272 37.4785 24.6522C37.3035 17.8376 31.8223 12.5001 24.9993 12.5001C18.1056 12.5001 12.4993 18.1063 12.4993 25.0001C12.4993 31.823 17.8389 37.3042 24.6514 37.4792C25.2264 37.4938 25.6806 37.973 25.666 38.548C25.6514 39.1147 25.1889 39.5626 24.6243 39.5626Z" fill="#1B275F"/>
<path d="M21.4583 29.8542C21.2063 29.8542 20.9542 29.7646 20.7542 29.5792C19.4812 28.4104 18.75 26.7417 18.75 25C18.75 21.5542 21.5542 18.75 25 18.75C26.7396 18.75 28.4104 19.4813 29.5792 20.7521C29.9688 21.175 29.9417 21.8354 29.5188 22.225C29.0938 22.6146 28.4375 22.5896 28.0458 22.1625C27.2688 21.3167 26.1604 20.8333 25 20.8333C22.7021 20.8333 20.8333 22.7021 20.8333 25C20.8333 26.1604 21.3167 27.2687 22.1625 28.0458C22.5875 28.4354 22.6146 29.0937 22.225 29.5187C22.0188 29.7396 21.7396 29.8542 21.4583 29.8542Z" fill="#1B275F"/>
<path d="M34.1861 48.4853C34.1777 48.4853 34.1694 48.4853 34.1611 48.4853C33.7215 48.4749 33.3361 48.1895 33.1965 47.7728L26.5652 27.8853C26.4402 27.5103 26.5382 27.0978 26.8173 26.8187C27.0986 26.5416 27.509 26.4416 27.884 26.5666L47.7736 33.1958C48.1902 33.3333 48.4757 33.7208 48.4861 34.1603C48.4965 34.5999 48.2277 34.9978 47.8194 35.1562L38.6736 38.6728L35.1569 47.8166C35.0048 48.2208 34.6152 48.4853 34.1861 48.4853ZM29.2048 29.2041L34.2569 44.3603L36.8986 37.4937C37.0048 37.2187 37.2215 37.002 37.4965 36.8958L44.3632 34.2562L29.2048 29.2041Z" fill="#1B275F"/>
</g>
<defs>
<clipPath id="clip0_12610_28481">
<rect width="50" height="50" fill="white"/>
</clipPath>
</defs>
</svg>
