<svg width="32" height="32" viewBox="0 0 32 32" fill="none" xmlns="http://www.w3.org/2000/svg">
<g clip-path="url(#clip0_10251_30698)">
<path d="M13.4375 17.625H7.5V23.5625C7.5 24.0802 7.91975 24.5 8.4375 24.5H14.375V18.5625C14.375 18.0447 13.9552 17.625 13.4375 17.625Z" fill="#F5FAFE"/>
<path d="M8.4375 26.375C6.88669 26.375 5.625 25.1133 5.625 23.5625V17.625H0.9375C0.41975 17.625 0 18.0447 0 18.5625V31.0625C0 31.5802 0.41975 32 0.9375 32H13.4375C13.9552 32 14.375 31.5802 14.375 31.0625V26.375H8.4375Z" fill="#F5FAFE"/>
<path d="M31.0625 0H8.4375C7.91975 0 7.5 0.41975 7.5 0.9375V15.75H13.4375C13.8712 15.75 14.2821 15.8488 14.6493 16.0249L23.6742 7H22.1875C21.6698 7 21.25 6.58025 21.25 6.0625C21.25 5.54475 21.6698 5.125 22.1875 5.125H25.9375C26.4552 5.125 26.875 5.54475 26.875 6.0625V9.8125C26.875 10.3302 26.4552 10.75 25.9375 10.75C25.4198 10.75 25 10.3302 25 9.8125V8.32581L15.9751 17.3507C16.1512 17.7179 16.25 18.1288 16.25 18.5625V24.5H31.0625C31.5802 24.5 32 24.0802 32 23.5625V0.9375C32 0.41975 31.5802 0 31.0625 0Z" fill="#F5FAFE"/>
</g>
<defs>
<clipPath id="clip0_10251_30698">
<rect width="32" height="32" fill="white"/>
</clipPath>
</defs>
</svg>
