<svg width="32" height="32" viewBox="0 0 32 32" fill="none" xmlns="http://www.w3.org/2000/svg">
<path d="M29.707 7.29288L24.707 2.29288C24.3166 1.90237 23.6835 1.90237 23.293 2.29288L18.293 7.29288C18.0068 7.57901 17.9214 8.0087 18.0762 8.38272C18.231 8.75675 18.5957 8.99991 19 8.99991H22V11.3905C22.0945 11.3719 22.1891 11.3515 22.2861 11.3515C22.686 11.3515 23.0625 11.5067 23.3462 11.7899L24.2095 12.6532C24.6973 13.1396 24.7905 13.8944 24.4341 14.4862L23.2046 16.5351C23.3325 16.8007 23.4453 17.0751 23.5435 17.3544L25.8638 17.9355C25.9133 17.9478 25.9528 17.978 26 17.995V8.99991H29C29.4043 8.99991 29.769 8.75675 29.9238 8.38272C30.0786 8.0087 29.9932 7.57901 29.707 7.29288Z" fill="#F5FAFE"/>
<path d="M6 17.995C6.04724 17.978 6.08667 17.9478 6.13623 17.9355L8.45655 17.3544C8.55469 17.0751 8.66748 16.8007 8.79541 16.5351L7.56543 14.4853C7.20948 13.8944 7.30274 13.1396 7.792 12.6523L8.65235 11.7909C8.9375 11.5067 9.31397 11.3515 9.71387 11.3515C9.81092 11.3515 9.90546 11.3719 10 11.3905V8.99991H13C13.4043 8.99991 13.769 8.75675 13.9238 8.38272C14.0786 8.0087 13.9932 7.57901 13.707 7.29288L8.70703 2.29288C8.31659 1.90237 7.68348 1.90237 7.29297 2.29288L2.29297 7.29288C2.00684 7.57901 1.92139 8.0087 2.07617 8.38272C2.23096 8.75675 2.59571 8.99991 3 8.99991H6V17.995Z" fill="#F5FAFE"/>
<path d="M25.6213 18.9053L22.7548 18.1887C22.595 17.5915 22.3604 17.0262 22.0579 16.5032L23.5773 13.9708C23.6954 13.774 23.6644 13.5222 23.5021 13.36L22.64 12.4979C22.4778 12.3356 22.226 12.3046 22.0292 12.4227L19.4968 13.9421C18.9738 13.6396 18.4085 13.405 17.8113 13.2452L17.0947 10.3787C17.0391 10.1561 16.8391 10 16.6096 10H15.3904C15.1609 10 14.9609 10.1561 14.9053 10.3787L14.1887 13.2452C13.5915 13.405 13.0262 13.6396 12.5032 13.9421L9.97076 12.4227C9.77405 12.3046 9.52222 12.3356 9.35999 12.4979L8.49786 13.36C8.33563 13.5222 8.30463 13.774 8.42267 13.9708L9.94214 16.5032C9.63959 17.0262 9.40503 17.5915 9.24518 18.1887L6.37872 18.9053C6.15613 18.9609 6 19.1609 6 19.3904V20.6096C6 20.8391 6.15613 21.0391 6.37872 21.0947L9.24518 21.8113C9.40503 22.4085 9.63959 22.9738 9.94214 23.4968L8.42267 26.0292C8.30463 26.226 8.33563 26.4778 8.49786 26.64L9.35999 27.5021C9.52222 27.6644 9.77405 27.6954 9.97076 27.5773L12.5032 26.0579C13.0262 26.3604 13.5915 26.595 14.1887 26.7548L14.9053 29.6213C14.9609 29.8439 15.1609 30 15.3904 30H16.6096C16.8391 30 17.0391 29.8439 17.0947 29.6213L17.8113 26.7548C18.4085 26.595 18.9738 26.3604 19.4968 26.0579L22.0292 27.5773C22.226 27.6954 22.4778 27.6644 22.64 27.5021L23.5021 26.64C23.6644 26.4778 23.6954 26.226 23.5773 26.0292L22.0579 23.4968C22.3604 22.9738 22.595 22.4085 22.7548 21.8113L25.6213 21.0947C25.8439 21.0391 26 20.8391 26 20.6096V19.3904C26 19.1609 25.8439 18.9609 25.6213 18.9053ZM13.7999 21.0994C14.0206 21.2654 14.0656 21.5789 13.9005 21.7996C13.8019 21.9305 13.6515 21.9998 13.5001 21.9998C13.3956 21.9998 13.2902 21.9676 13.2003 21.9002L11.2003 20.4002C11.0743 20.3055 11.0001 20.157 11.0001 19.9998C11.0001 19.8426 11.0743 19.6942 11.2003 19.5994L13.2003 18.0994C13.42 17.9344 13.7335 17.9783 13.9005 18.2C14.0656 18.4207 14.0206 18.7342 13.7999 18.9002L12.3331 19.9998L13.7999 21.0994ZM16.9744 18.6575L15.9744 21.6575C15.9041 21.8665 15.7088 21.9993 15.4998 21.9993C15.4471 21.9993 15.3943 21.9915 15.3416 21.9739C15.0799 21.886 14.9383 21.6028 15.0252 21.3411L16.0252 18.3411C16.1131 18.0793 16.3983 17.9397 16.658 18.0247C16.9197 18.1125 17.0613 18.3958 16.9744 18.6575ZM20.7998 20.4004L18.7998 21.9004C18.71 21.9678 18.6045 22 18.5 22C18.3486 22 18.1982 21.9307 18.0996 21.7998C17.9346 21.5791 17.9795 21.2656 18.2002 21.0996L19.667 20L18.2002 18.9004C17.9795 18.7344 17.9346 18.4209 18.0996 18.2002C18.2666 17.9785 18.5801 17.9346 18.7998 18.0996L20.7998 19.5996C20.9258 19.6943 21 19.8428 21 20C21 20.1572 20.9258 20.3057 20.7998 20.4004Z" fill="#F5FAFE"/>
</svg>
