<svg width="32" height="32" viewBox="0 0 32 32" fill="none" xmlns="http://www.w3.org/2000/svg">
<path d="M4.69956 30.9701C5.59456 30.9701 6.50956 30.5201 7.41456 29.6151C7.87456 29.1501 8.24456 28.6701 8.50956 28.2051C9.37956 26.7351 10.2046 25.5901 11.0996 24.6101L11.2546 24.4351C11.5396 24.1151 11.8346 23.7851 12.1146 23.4401L12.5796 22.8551C14.5396 24.1301 16.7946 24.7701 19.0546 24.7701C22.0946 24.7701 25.1346 23.6151 27.4496 21.3001C32.0796 16.6701 32.0846 9.1401 27.4496 4.5101C22.8196 -0.119902 15.2896 -0.119902 10.6596 4.5101C6.59456 8.5701 6.09956 14.8701 9.16456 19.4801L8.59456 19.9301C8.18956 20.2601 7.79956 20.6101 7.43456 20.9401C6.45456 21.8251 5.30956 22.6501 3.83456 23.5251C3.32956 23.8251 2.85456 24.1901 2.41956 24.6201C0.679558 26.3601 0.619557 28.1501 2.24956 29.7851C3.03456 30.5701 3.85956 30.9651 4.69956 30.9651V30.9701ZM3.12456 25.3301C3.49456 24.9651 3.91456 24.6401 4.34456 24.3851C5.87956 23.4751 7.07456 22.6151 8.10456 21.6801C8.45956 21.3601 8.83956 21.0201 9.21956 20.7051L9.75456 20.2801C10.0346 20.6301 10.3296 20.9701 10.6496 21.2951C11.0046 21.6501 11.3796 21.9651 11.7646 22.2651L11.3296 22.8101C11.0696 23.1351 10.7996 23.4351 10.5096 23.7601L10.3546 23.9301C9.40956 24.9601 8.54956 26.1551 7.63956 27.6951C7.41456 28.0951 7.09956 28.5001 6.69956 28.9001C5.34456 30.2551 4.18456 30.3051 2.94956 29.0701C1.71456 27.8301 1.76456 26.6701 3.11456 25.3201L3.12456 25.3301ZM13.1346 6.9851C14.7646 5.3551 16.9096 4.5401 19.0546 4.5401C21.1996 4.5401 23.3446 5.3551 24.9796 6.9901C28.2446 10.2551 28.2396 15.5701 24.9796 18.8301C21.7146 22.0951 16.3996 22.0951 13.1396 18.8301C9.87456 15.5651 9.87956 10.2501 13.1396 6.9901L13.1346 6.9851ZM13.8196 14.2301L14.9346 14.3551V14.3751C14.9346 14.7901 15.0046 15.1901 15.1296 15.5601L14.1796 16.5601C14.0896 16.6551 14.0396 16.7751 14.0396 16.9051V17.8651C14.0396 18.1401 14.2646 18.3651 14.5396 18.3651C14.8146 18.3651 15.0396 18.1401 15.0396 17.8651V17.1051L15.6096 16.5051C16.2846 17.4651 17.3996 18.0951 18.6596 18.0951H19.2446C20.5196 18.0951 21.6446 17.4501 22.3146 16.4751L22.9096 17.1001V17.8601C22.9096 18.1351 23.1346 18.3601 23.4096 18.3601C23.6846 18.3601 23.9096 18.1351 23.9096 17.8601V16.9001C23.9096 16.7701 23.8596 16.6501 23.7696 16.5551L22.7846 15.5151C22.9046 15.1551 22.9696 14.7651 22.9696 14.3651V14.3501L24.1296 14.2201L24.7446 15.1151C24.8396 15.2551 24.9996 15.3301 25.1596 15.3301C25.2596 15.3301 25.3546 15.3001 25.4446 15.2401C25.6746 15.0851 25.7296 14.7701 25.5746 14.5451L24.7896 13.4051C24.6846 13.2551 24.5046 13.1701 24.3196 13.1901L22.9696 13.3401V11.8101L23.8796 11.1451L25.3396 11.6901C25.5996 11.7851 25.8846 11.6551 25.9846 11.3951C26.0796 11.1351 25.9496 10.8501 25.6896 10.7501L23.9796 10.1101C23.8196 10.0501 23.6446 10.0751 23.5096 10.1751L22.9246 10.6001C22.8846 10.3451 22.8246 10.1001 22.7346 9.8651L23.0246 9.2651L23.4046 9.2101C23.6796 9.1701 23.8646 8.9151 23.8246 8.6401C23.7846 8.3651 23.5246 8.1801 23.2546 8.2201L22.6146 8.3151C22.4496 8.3401 22.3096 8.4451 22.2396 8.5901L22.1346 8.8101C21.4496 7.9701 20.4096 7.4301 19.2396 7.4301H18.6546C17.5046 7.4301 16.4746 7.9551 15.7946 8.7751L15.7046 8.5951C15.6346 8.4451 15.4946 8.3451 15.3296 8.3201L14.6896 8.2251C14.4196 8.1851 14.1596 8.3701 14.1196 8.6451C14.0796 8.9201 14.2646 9.1751 14.5396 9.2151L14.9196 9.2701L15.1846 9.8151C15.0896 10.0601 15.0196 10.3151 14.9796 10.5751L14.4396 10.1801C14.3046 10.0801 14.1246 10.0551 13.9696 10.1151L12.2596 10.7551C11.9996 10.8501 11.8696 11.1401 11.9646 11.4001C12.0596 11.6601 12.3496 11.7901 12.6096 11.6951L14.0696 11.1501L14.9296 11.7801V13.3401L13.6296 13.1951C13.4446 13.1701 13.2646 13.2551 13.1596 13.4101L12.3746 14.5501C12.2196 14.7801 12.2746 15.0901 12.5046 15.2451C12.5896 15.3051 12.6896 15.3351 12.7896 15.3351C12.9496 15.3351 13.1046 15.2601 13.2046 15.1201L13.8196 14.2251V14.2301ZM21.9696 11.4201V14.3751C21.9696 15.8101 20.8596 16.9851 19.4496 17.0901V11.4151H21.9696V11.4201ZM15.9346 11.4201H18.4546V17.0951C17.4496 17.0201 16.5946 16.3951 16.1896 15.5201C16.1796 15.4851 16.1646 15.4601 16.1446 15.4301C16.0096 15.1051 15.9346 14.7551 15.9346 14.3851V11.4251V11.4201Z" fill="#F5FAFE"/>
</svg>
