<svg width="32" height="32" viewBox="0 0 32 32" fill="none" xmlns="http://www.w3.org/2000/svg">
<path d="M32 14.2857C32 16.2857 31.0286 18.2286 29.3714 19.3714L28.0571 17.5429C29.0857 16.8 29.7143 15.6 29.7143 14.2857C29.7143 12.0571 27.9429 10.2857 25.7143 10.2857C25.5429 10.2857 25.4286 10.2857 25.2571 10.2857C24.9143 10.3429 24.6286 10.2286 24.3429 10C24.1143 9.77143 23.9429 9.48571 23.9429 9.14286V9.08571C23.9429 5.31429 20.8571 2.22857 17.0857 2.22857C14.4571 2.22857 12 3.77143 10.9143 6.17143C10.8 6.45714 10.5143 6.68571 10.1714 6.8C9.82857 6.91429 9.48571 6.85714 9.25714 6.62857C8.91429 6.4 8.45714 6.28571 8 6.28571C6.74286 6.28571 5.71429 7.31429 5.71429 8.57143C5.71429 8.74286 5.71429 8.91429 5.77143 9.14286C5.94286 9.71429 5.6 10.3429 5.02857 10.5143C3.37143 11.0286 2.28571 12.5714 2.28571 14.2857C2.28571 15.5429 2.91429 16.8 3.94286 17.5429L2.62857 19.3714C0.971429 18.2286 0 16.2857 0 14.2857C0 11.8857 1.37143 9.77143 3.42857 8.68571C3.42857 8.62857 3.42857 8.62857 3.42857 8.57143C3.42857 6.05714 5.48571 4 8 4C8.51429 4 8.97143 4.05714 9.42857 4.22857C11.0857 1.65714 14 0 17.1429 0C21.8286 0 25.6571 3.48571 26.2286 8C29.4286 8.28572 32 10.9714 32 14.2857ZM24 17.1429C22.5143 17.1429 21.2571 18.1143 20.8 19.4286H19.4286V18.2857C19.4286 17.6571 18.9143 17.1429 18.2857 17.1429H17.1429V15.7714C18.4571 15.3143 19.4286 14.0571 19.4286 12.5714C19.4286 10.6857 17.8857 9.14286 16 9.14286C14.1143 9.14286 12.5714 10.6857 12.5714 12.5714C12.5714 14.0571 13.5429 15.3143 14.8571 15.7714V17.1429H13.7143C13.0857 17.1429 12.5714 17.6571 12.5714 18.2857V19.4286H11.2C10.7429 18.1143 9.48571 17.1429 8 17.1429C6.11429 17.1429 4.57143 18.6857 4.57143 20.5714C4.57143 22.4571 6.11429 24 8 24C9.48571 24 10.7429 23.0286 11.2 21.7143H12.5714V22.8571C12.5714 23.4857 13.0857 24 13.7143 24H14.8571V25.3714C13.5429 25.8286 12.5714 27.0857 12.5714 28.5714C12.5714 30.4571 14.1143 32 16 32C17.8857 32 19.4286 30.4571 19.4286 28.5714C19.4286 27.0857 18.4571 25.8286 17.1429 25.3714V24H18.2857C18.9143 24 19.4286 23.4857 19.4286 22.8571V21.7143H20.8C21.2571 23.0286 22.5143 24 24 24C25.8857 24 27.4286 22.4571 27.4286 20.5714C27.4286 18.6857 25.8857 17.1429 24 17.1429Z" fill="#F5FAFE"/>
</svg>
