<svg width="32" height="32" viewBox="0 0 32 32" fill="none" xmlns="http://www.w3.org/2000/svg">
<g clip-path="url(#clip0_10251_30712)">
<path d="M17.882 28.2467V23.763C17.882 22.7221 17.674 21.68 17.277 20.7173H14.7221C14.3252 21.68 14.1172 22.7221 14.1172 23.763V28.2467C14.1172 28.4615 14.1538 28.6678 14.2204 28.8603H17.7786C17.8453 28.6679 17.882 28.4616 17.882 28.2467Z" fill="#F5FAFE"/>
<path d="M13.1767 10.0571C8.52959 12.1948 8.10832 18.9035 12.4817 21.5842C12.8221 20.0837 13.3892 19.1658 13.5363 18.835H15.0591V13.188H13.1767V10.0571Z" fill="#F5FAFE"/>
<path d="M22.5885 16.0115C22.5885 13.4281 21.0893 11.1294 18.8238 10.0571V13.188H16.9414V18.835H18.4642C18.6102 19.1633 19.1767 20.0761 19.5188 21.5842C21.4148 20.3937 22.5885 18.3147 22.5885 16.0115Z" fill="#F5FAFE"/>
<path d="M32 18.835V13.1879H28.8723C28.5401 11.6718 27.9368 10.2155 27.0984 8.90641L29.3103 6.69446L25.317 2.70123L23.1051 4.91312C21.7959 4.07472 20.3396 3.4713 18.8235 3.13913V0.0114746H13.1765V3.13913C11.6604 3.4713 10.2041 4.07472 8.895 4.91312L6.68298 2.70123L2.68969 6.69452L4.90158 8.90647C4.06318 10.2156 3.45976 11.672 3.12759 13.188H0V18.8351H3.12759C3.45983 20.3511 4.06318 21.8074 4.90158 23.1166L2.68969 25.3286L6.68298 29.3218L8.89443 27.1105C9.94039 27.7826 11.0667 28.2971 12.2569 28.6481C12.2184 28.2859 12.2427 28.412 12.2353 23.7631C12.2353 23.7091 12.2367 23.6551 12.2377 23.6011C5.55715 20.3516 6.16169 10.3578 13.2819 7.98682L14.6689 6.59971H17.331L18.7181 7.98682C25.8422 10.3599 26.4392 20.3543 19.7623 23.6011C19.7633 23.6551 19.7647 23.709 19.7647 23.7631C19.7572 28.4729 19.7816 28.2864 19.7431 28.648C20.9334 28.297 22.0596 27.7825 23.1056 27.1104L25.317 29.3218L29.3103 25.3285L27.0984 23.1166C27.9368 21.8075 28.5401 20.3512 28.8723 18.8351H32V18.835Z" fill="#F5FAFE"/>
<path d="M17.779 28.8603C17.1929 30.5418 14.8063 30.5408 14.2208 28.8603C13.0298 28.7975 13.499 29.0143 12.2568 28.6479C12.8385 33.1037 19.1629 33.1004 19.743 28.6479C18.353 29.0578 18.9005 28.7671 17.779 28.8603Z" fill="#F5FAFE"/>
</g>
<defs>
<clipPath id="clip0_10251_30712">
<rect width="32" height="32" fill="white"/>
</clipPath>
</defs>
</svg>
