<svg width="146" height="46" viewBox="0 0 146 46" fill="none" xmlns="http://www.w3.org/2000/svg">
<path d="M14.4716 0.490234C13.1 0.490234 11.8092 1.2605 11.1234 2.43618L0.51432 20.8416C-0.17144 22.0578 -0.17144 23.5173 0.51432 24.7335L11.0831 43.1389C11.8092 44.3146 13.0597 45.0848 14.4312 45.0848H35.5688C36.9403 45.0848 38.2311 44.3146 38.9169 43.1389L49.4857 24.7335C50.1714 23.5173 50.1714 22.0578 49.4857 20.8416L38.9572 2.43618C38.2715 1.2605 36.9806 0.490234 35.6091 0.490234H14.4716ZM14.6733 11.274H18.4248C18.5861 11.274 18.7475 11.3551 18.8282 11.5173L25 22.5848C25.0403 22.6254 25.0403 22.7065 25.0403 22.747C25.0403 22.6659 25.0807 22.6254 25.0807 22.5848L31.2525 11.5173C31.3332 11.3551 31.4946 11.274 31.6559 11.274H35.2864C35.5688 11.3146 35.7705 11.5578 35.7301 11.8416C35.7301 11.8821 35.7301 11.9227 35.6898 12.0037L29.7196 22.7875L35.7705 33.6119C35.8915 33.8551 35.7705 34.1794 35.5284 34.2605C35.4881 34.301 35.4074 34.301 35.3671 34.301H31.6963C31.5349 34.301 31.3735 34.22 31.2929 34.0578L25.0807 22.9902C25.0403 22.9497 25.0403 22.8686 25.0403 22.8281C25.0403 22.9092 25 22.9497 25 22.9902L18.7878 34.0578C18.7071 34.22 18.5458 34.301 18.3844 34.301H14.7539C14.4716 34.2605 14.2699 34.0173 14.3102 33.774C14.3102 33.7335 14.3505 33.6524 14.3505 33.6119L20.4014 22.7875L14.3505 11.9632C14.2295 11.72 14.3505 11.4362 14.5926 11.3146C14.5926 11.274 14.6329 11.274 14.6733 11.274Z" fill="#3498DB"/>
<path d="M72.6136 15.2417L76.3636 21.2928H76.4773L80.2273 15.2417H82.3011L77.7273 22.5144L82.3011 29.7871H80.2273L76.4773 23.8496H76.3636L72.6136 29.7871H70.5398L75.2273 22.5144L70.5398 15.2417H72.6136ZM87.5763 30.0428C86.8851 30.0428 86.2577 29.9126 85.6942 29.6522C85.1308 29.387 84.6834 29.0059 84.3519 28.5087C84.0205 28.0068 83.8548 27.4007 83.8548 26.6905C83.8548 26.0655 83.9779 25.5589 84.2241 25.1706C84.4703 24.7776 84.7994 24.4699 85.2113 24.2473C85.6232 24.0248 86.0778 23.8591 86.5749 23.7502C87.0768 23.6365 87.5811 23.5466 88.0877 23.4803C88.7506 23.3951 89.288 23.3311 89.6999 23.2885C90.1166 23.2412 90.4196 23.1631 90.609 23.0542C90.8031 22.9453 90.9002 22.7559 90.9002 22.486V22.4292C90.9002 21.7284 90.7085 21.1839 90.3249 20.7956C89.9461 20.4074 89.3709 20.2132 88.5991 20.2132C87.7989 20.2132 87.1715 20.3884 86.717 20.7388C86.2624 21.0892 85.9428 21.4632 85.7582 21.861L84.1673 21.2928C84.4513 20.6299 84.8301 20.1138 85.3036 19.7445C85.7818 19.3704 86.3027 19.11 86.8661 18.9632C87.4343 18.8117 87.993 18.736 88.5423 18.736C88.8926 18.736 89.2951 18.7786 89.7496 18.8638C90.2089 18.9443 90.6516 19.1124 91.0778 19.3681C91.5086 19.6238 91.8661 20.0096 92.1502 20.5257C92.4343 21.0418 92.5763 21.7331 92.5763 22.5996V29.7871H90.9002V28.3098H90.815C90.7013 28.5466 90.512 28.7999 90.2468 29.0698C89.9817 29.3397 89.6289 29.5693 89.1886 29.7587C88.7482 29.9481 88.2108 30.0428 87.5763 30.0428ZM87.832 28.5371C88.4949 28.5371 89.0536 28.4069 89.5082 28.1465C89.9674 27.8861 90.3131 27.5499 90.5451 27.138C90.7818 26.726 90.9002 26.2928 90.9002 25.8382V24.3042C90.8292 24.3894 90.6729 24.4675 90.4315 24.5385C90.1947 24.6048 89.9201 24.664 89.6076 24.7161C89.2998 24.7634 88.9992 24.806 88.7056 24.8439C88.4168 24.8771 88.1824 24.9055 88.0025 24.9292C87.5669 24.986 87.1597 25.0783 86.7809 25.2061C86.4068 25.3292 86.1038 25.5163 85.8718 25.7672C85.6445 26.0134 85.5309 26.3496 85.5309 26.7757C85.5309 27.3581 85.7463 27.7985 86.1772 28.0968C86.6128 28.3903 87.1644 28.5371 87.832 28.5371ZM95.6357 29.7871V18.878H97.255V20.5826H97.397C97.6243 20.0002 97.9912 19.548 98.4979 19.226C99.0045 18.8993 99.6129 18.736 100.323 18.736C101.043 18.736 101.642 18.8993 102.12 19.226C102.603 19.548 102.979 20.0002 103.249 20.5826H103.363C103.642 20.0191 104.061 19.5717 104.62 19.2402C105.179 18.9041 105.849 18.736 106.63 18.736C107.605 18.736 108.403 19.0414 109.023 19.6522C109.644 20.2582 109.954 21.2028 109.954 22.486V29.7871H108.278V22.486C108.278 21.681 108.058 21.1058 107.617 20.7601C107.177 20.4145 106.658 20.2417 106.062 20.2417C105.295 20.2417 104.701 20.4737 104.279 20.9377C103.858 21.397 103.647 21.9793 103.647 22.6848V29.7871H101.942V22.3155C101.942 21.6953 101.741 21.1957 101.339 20.8169C100.936 20.4334 100.418 20.2417 99.7834 20.2417C99.3478 20.2417 98.9406 20.3577 98.5618 20.5897C98.1877 20.8217 97.8847 21.1436 97.6527 21.5556C97.4254 21.9628 97.3118 22.4339 97.3118 22.9689V29.7871H95.6357ZM116.229 30.0428C115.537 30.0428 114.91 29.9126 114.347 29.6522C113.783 29.387 113.336 29.0059 113.004 28.5087C112.673 28.0068 112.507 27.4007 112.507 26.6905C112.507 26.0655 112.63 25.5589 112.876 25.1706C113.123 24.7776 113.452 24.4699 113.864 24.2473C114.276 24.0248 114.73 23.8591 115.227 23.7502C115.729 23.6365 116.233 23.5466 116.74 23.4803C117.403 23.3951 117.94 23.3311 118.352 23.2885C118.769 23.2412 119.072 23.1631 119.261 23.0542C119.455 22.9453 119.553 22.7559 119.553 22.486V22.4292C119.553 21.7284 119.361 21.1839 118.977 20.7956C118.598 20.4074 118.023 20.2132 117.251 20.2132C116.451 20.2132 115.824 20.3884 115.369 20.7388C114.915 21.0892 114.595 21.4632 114.411 21.861L112.82 21.2928C113.104 20.6299 113.482 20.1138 113.956 19.7445C114.434 19.3704 114.955 19.11 115.518 18.9632C116.087 18.8117 116.645 18.736 117.195 18.736C117.545 18.736 117.947 18.7786 118.402 18.8638C118.861 18.9443 119.304 19.1124 119.73 19.3681C120.161 19.6238 120.518 20.0096 120.803 20.5257C121.087 21.0418 121.229 21.7331 121.229 22.5996V29.7871H119.553V28.3098H119.467C119.354 28.5466 119.164 28.7999 118.899 29.0698C118.634 29.3397 118.281 29.5693 117.841 29.7587C117.401 29.9481 116.863 30.0428 116.229 30.0428ZM116.484 28.5371C117.147 28.5371 117.706 28.4069 118.161 28.1465C118.62 27.8861 118.965 27.5499 119.197 27.138C119.434 26.726 119.553 26.2928 119.553 25.8382V24.3042C119.482 24.3894 119.325 24.4675 119.084 24.5385C118.847 24.6048 118.572 24.664 118.26 24.7161C117.952 24.7634 117.652 24.806 117.358 24.8439C117.069 24.8771 116.835 24.9055 116.655 24.9292C116.219 24.986 115.812 25.0783 115.433 25.2061C115.059 25.3292 114.756 25.5163 114.524 25.7672C114.297 26.0134 114.183 26.3496 114.183 26.7757C114.183 27.3581 114.399 27.7985 114.83 28.0968C115.265 28.3903 115.817 28.5371 116.484 28.5371ZM124.288 29.7871V18.878H125.907V20.5257H126.021C126.22 19.986 126.58 19.548 127.1 19.2118C127.621 18.8757 128.208 18.7076 128.862 18.7076C128.985 18.7076 129.139 18.7099 129.324 18.7147C129.508 18.7194 129.648 18.7265 129.743 18.736V20.4405C129.686 20.4263 129.556 20.405 129.352 20.3766C129.153 20.3435 128.942 20.3269 128.72 20.3269C128.19 20.3269 127.716 20.4382 127.299 20.6607C126.887 20.8785 126.561 21.1815 126.319 21.5698C126.083 21.9533 125.964 22.3913 125.964 22.8837V29.7871H124.288ZM131.729 29.7871V18.878H133.406V29.7871H131.729ZM132.582 17.0598C132.255 17.0598 131.973 16.9486 131.737 16.726C131.504 16.5035 131.388 16.236 131.388 15.9235C131.388 15.611 131.504 15.3435 131.737 15.1209C131.973 14.8984 132.255 14.7871 132.582 14.7871C132.908 14.7871 133.188 14.8984 133.42 15.1209C133.656 15.3435 133.775 15.611 133.775 15.9235C133.775 16.236 133.656 16.5035 133.42 16.726C133.188 16.9486 132.908 17.0598 132.582 17.0598ZM138.152 23.2246V29.7871H136.475V18.878H138.095V20.5826H138.237C138.493 20.0286 138.881 19.5835 139.402 19.2473C139.922 18.9064 140.595 18.736 141.419 18.736C142.157 18.736 142.804 18.8875 143.358 19.1905C143.912 19.4888 144.342 19.9434 144.65 20.5542C144.958 21.1602 145.112 21.9273 145.112 22.8553V29.7871H143.436V22.9689C143.436 22.1119 143.213 21.4443 142.768 20.9661C142.323 20.4831 141.712 20.2417 140.936 20.2417C140.401 20.2417 139.922 20.3577 139.501 20.5897C139.084 20.8217 138.755 21.1602 138.514 21.6053C138.272 22.0504 138.152 22.5901 138.152 23.2246Z" fill="white"/>
</svg>
