<svg width="50" height="40" viewBox="0 0 50 40" fill="none" xmlns="http://www.w3.org/2000/svg">
<path d="M48.7345 6.56075C48.5228 5.73944 48.1187 4.98025 47.5558 4.34584C46.9928 3.71142 46.2871 3.21998 45.4968 2.91205C37.8474 -0.0274486 25.6651 -0.00292658 25 0.00056003C24.3353 -0.00477926 12.1529 -0.0275648 4.5033 2.91205C3.71304 3.21996 3.00731 3.71138 2.44437 4.34575C1.88142 4.98012 1.47739 5.73926 1.26561 6.56053C0.68817 8.7772 0 12.8305 0 19.5524C0 26.2742 0.68817 30.3275 1.2655 32.5441C1.47724 33.3654 1.88126 34.1246 2.44421 34.759C3.00715 35.3934 3.7129 35.8848 4.5032 36.1928C11.826 39.0068 23.3027 39.1047 24.853 39.1047C24.9915 39.1048 25.0085 39.1048 25.147 39.1047C26.6985 39.1046 38.1743 39.0066 45.4967 36.1928C46.287 35.8849 46.9927 35.3934 47.5556 34.7591C48.1186 34.1247 48.5226 33.3656 48.7344 32.5443C49.3118 30.3276 50 26.2743 50 19.5524C50 12.8306 49.3118 8.77731 48.7345 6.56075ZM32.6381 20.2953L21.9238 27.4382C21.7894 27.5278 21.6331 27.5793 21.4717 27.5871C21.3102 27.5949 21.1497 27.5588 21.0072 27.4825C20.8647 27.4063 20.7456 27.2928 20.6626 27.1541C20.5795 27.0155 20.5357 26.8569 20.5357 26.6953V12.4096C20.5357 12.2479 20.5795 12.0894 20.6626 11.9507C20.7456 11.8121 20.8647 11.6986 21.0072 11.6223C21.1497 11.546 21.3102 11.5099 21.4717 11.5177C21.6331 11.5255 21.7894 11.577 21.9238 11.6667L32.6381 18.8095C32.7604 18.8911 32.8607 19.0015 32.9301 19.1311C32.9994 19.2607 33.0357 19.4054 33.0357 19.5524C33.0357 19.6994 32.9994 19.8441 32.9301 19.9737C32.8607 20.1033 32.7604 20.2138 32.6381 20.2953Z" fill="white"/>
</svg>
