<svg width="126" height="51" viewBox="0 0 126 51" fill="none" xmlns="http://www.w3.org/2000/svg">
<path d="M7.70666 33.0731L5.09098 34.0286L4.95054 41.81L14.0051 38.5023C10.8995 37.4591 8.6316 35.6236 7.70666 33.0731Z" fill="#FDBD39"/>
<path d="M9.07553 24.8428L0 28.1582L5.09098 34.0286L7.70666 33.0731C6.78442 30.5299 7.35318 27.6551 9.07553 24.8428Z" fill="#F69833"/>
<path d="M24.348 13.6146C12.7912 17.8365 5.34057 26.5483 7.70666 33.0731L49.5577 17.7843C47.1916 11.2596 35.9048 9.39275 24.348 13.6146Z" fill="#FECF33"/>
<path d="M32.9163 37.2427C44.4732 33.0208 51.9377 24.3476 49.5577 17.7843L7.70666 33.0731C10.0867 39.6364 21.3595 41.4646 32.9163 37.2427Z" fill="#EE6723"/>
<path d="M49.5577 17.7843L7.70666 33.0731C8.52616 35.3329 11.6513 36.4463 16.0361 36.4463C20.311 36.4463 25.7832 35.3888 31.4883 33.3047C43.0451 29.0828 51.1761 22.2474 49.5577 17.7843Z" fill="#F69833"/>
<path d="M41.2283 14.4111C36.9533 14.4111 31.4811 15.4685 25.7761 17.5527C14.2192 21.7745 6.08819 28.61 7.70666 33.0731L49.5577 17.7843C48.7382 15.5244 45.6131 14.4111 41.2283 14.4111Z" fill="#FDBD39"/>
<path d="M38.917 42.222C37.6856 42.222 35.8688 41.1098 33.5173 38.9163C30.7354 36.3211 27.5488 32.52 24.5443 28.2133C21.5399 23.9068 19.0711 19.6013 17.5928 16.0898C15.9821 12.2632 15.7524 9.9103 16.9102 9.09652C17.164 8.91827 17.47 8.82797 17.8196 8.82797C18.7614 8.82797 20.5963 9.52911 23.9894 12.8695L24.0636 12.9425L24.0536 13.0463C24.0304 13.2863 24.009 13.5284 23.9899 13.7661L23.9521 14.2379L23.6192 13.9026C19.9633 10.2194 18.3539 9.82171 17.8316 9.82171C17.6827 9.82171 17.5641 9.852 17.479 9.91178C16.9769 10.2646 16.9445 11.9929 18.5061 15.7024C19.958 19.1512 22.3909 23.3917 25.3565 27.6424C28.3222 31.8936 31.4601 35.6385 34.1923 38.1873C37.1385 40.9356 38.4661 41.2324 38.9002 41.2324C39.0501 41.2324 39.1719 41.2002 39.2622 41.1366C39.792 40.7644 39.7926 38.913 38.0512 34.9204L37.9712 34.7371L38.1462 34.6413C38.3213 34.5455 38.4905 34.4511 38.6493 34.3609L38.8589 34.2417L38.9556 34.4632C40.1903 37.2923 41.3445 40.888 39.8311 41.9519C39.5759 42.1311 39.2684 42.222 38.917 42.222Z" fill="#EE6723"/>
<path d="M33.1968 37.1234L33.1793 37.3408C32.8871 40.9561 32.1178 45.3025 30.112 45.4784C30.0716 45.482 30.0298 45.4839 29.9879 45.4839C28.6253 45.4839 27.3361 43.5315 26.1564 39.681C25.0401 36.0382 24.1739 31.1472 23.7173 25.9089C23.2607 20.6718 23.2675 15.7041 23.7366 11.9211C24.2478 7.79879 25.2211 5.64599 26.6292 5.52242C26.6708 5.51858 26.714 5.5166 26.7566 5.5166C27.7451 5.5166 29.2349 6.63589 30.76 11.8494L29.7642 12.0416C29.255 10.2994 28.7 8.88239 28.1491 7.90872C27.6395 7.00811 27.144 6.51214 26.7538 6.51214C26.741 6.51214 26.7281 6.51268 26.7153 6.51377C26.105 6.56738 25.2161 8.04791 24.7205 12.044C24.2598 15.7591 24.2543 20.6524 24.7049 25.8223C25.1557 30.993 26.0078 35.811 27.104 39.3885C27.595 40.9908 28.1335 42.3113 28.6613 43.2073C29.148 44.0336 29.6191 44.4887 29.9876 44.4887C30.0003 44.4887 30.0129 44.4881 30.0255 44.4871C30.6095 44.4359 31.7101 42.8952 32.1733 37.4746L33.1968 37.1234Z" fill="#EE6723"/>
<path d="M71.2784 32.7871V31.5087L79.1193 19.8042H71.1932V18.2417H81.2216V19.5201L73.3807 31.2246H81.3068V32.7871H71.2784ZM88.608 33.0144C87.5568 33.0144 86.6501 32.7824 85.8878 32.3184C85.1302 31.8496 84.5455 31.1962 84.1335 30.3581C83.7263 29.5153 83.5227 28.5352 83.5227 27.4178C83.5227 26.3004 83.7263 25.3155 84.1335 24.4632C84.5455 23.6062 85.1184 22.9386 85.8523 22.4604C86.5909 21.9775 87.4527 21.736 88.4375 21.736C89.0057 21.736 89.5668 21.8307 90.1207 22.0201C90.6747 22.2095 91.179 22.5172 91.6335 22.9434C92.0881 23.3648 92.4503 23.9235 92.7202 24.6195C92.9901 25.3155 93.125 26.1725 93.125 27.1905V27.9007H84.7159V26.4519H91.4205C91.4205 25.8364 91.2973 25.2871 91.0511 24.8042C90.8097 24.3212 90.464 23.94 90.0142 23.6607C89.5691 23.3813 89.0436 23.2417 88.4375 23.2417C87.7699 23.2417 87.1922 23.4074 86.7045 23.7388C86.2216 24.0655 85.8499 24.4917 85.5895 25.0172C85.3291 25.5428 85.1989 26.1062 85.1989 26.7076V27.6735C85.1989 28.4973 85.3409 29.1957 85.625 29.7686C85.9138 30.3368 86.3139 30.7701 86.8253 31.0684C87.3366 31.3619 87.9309 31.5087 88.608 31.5087C89.0483 31.5087 89.446 31.4471 89.8011 31.324C90.161 31.1962 90.4711 31.0068 90.7315 30.7559C90.992 30.5002 91.1932 30.1829 91.3352 29.8042L92.9545 30.2587C92.7841 30.8079 92.4976 31.2909 92.0952 31.7076C91.6927 32.1195 91.1955 32.4415 90.6037 32.6735C90.0118 32.9007 89.3466 33.0144 88.608 33.0144ZM95.6747 36.878V21.878H97.294V23.611H97.4929C97.616 23.4216 97.7865 23.1801 98.0043 22.8865C98.2268 22.5882 98.544 22.3231 98.956 22.0911C99.3726 21.8543 99.9361 21.736 100.646 21.736C101.565 21.736 102.375 21.9656 103.075 22.4249C103.776 22.8842 104.323 23.5352 104.716 24.378C105.109 25.2208 105.305 26.2151 105.305 27.361C105.305 28.5163 105.109 29.5177 104.716 30.3652C104.323 31.208 103.778 31.8614 103.082 32.3255C102.386 32.7847 101.584 33.0144 100.675 33.0144C99.974 33.0144 99.4129 32.8984 98.9915 32.6664C98.5701 32.4296 98.2457 32.1621 98.0185 31.8638C97.7912 31.5608 97.616 31.3098 97.4929 31.111H97.3509V36.878H95.6747ZM97.3224 27.3326C97.3224 28.1564 97.4432 28.8832 97.6847 29.513C97.9261 30.138 98.2789 30.628 98.7429 30.9831C99.2069 31.3335 99.7751 31.5087 100.447 31.5087C101.148 31.5087 101.733 31.324 102.202 30.9547C102.675 30.5807 103.03 30.0788 103.267 29.449C103.509 28.8146 103.629 28.1091 103.629 27.3326C103.629 26.5655 103.511 25.8742 103.274 25.2587C103.042 24.6384 102.689 24.1484 102.216 23.7885C101.747 23.4239 101.158 23.2417 100.447 23.2417C99.7656 23.2417 99.1927 23.4145 98.7287 23.7601C98.2647 24.101 97.9143 24.5792 97.6776 25.1948C97.4408 25.8056 97.3224 26.5182 97.3224 27.3326ZM109.538 18.2417V32.7871H107.862V18.2417H109.538ZM112.608 32.7871V21.878H114.284V32.7871H112.608ZM113.461 20.0598C113.134 20.0598 112.852 19.9486 112.615 19.726C112.383 19.5035 112.267 19.236 112.267 18.9235C112.267 18.611 112.383 18.3435 112.615 18.1209C112.852 17.8984 113.134 17.7871 113.461 17.7871C113.787 17.7871 114.067 17.8984 114.299 18.1209C114.535 18.3435 114.654 18.611 114.654 18.9235C114.654 19.236 114.535 19.5035 114.299 19.726C114.067 19.9486 113.787 20.0598 113.461 20.0598ZM119.031 26.2246V32.7871H117.354V21.878H118.974V23.5826H119.116C119.371 23.0286 119.76 22.5835 120.281 22.2473C120.801 21.9064 121.474 21.736 122.298 21.736C123.036 21.736 123.683 21.8875 124.237 22.1905C124.79 22.4888 125.221 22.9434 125.529 23.5542C125.837 24.1602 125.991 24.9273 125.991 25.8553V32.7871H124.315V25.9689C124.315 25.1119 124.092 24.4443 123.647 23.9661C123.202 23.4831 122.591 23.2417 121.815 23.2417C121.28 23.2417 120.801 23.3577 120.38 23.5897C119.963 23.8217 119.634 24.1602 119.393 24.6053C119.151 25.0504 119.031 25.5901 119.031 26.2246Z" fill="white"/>
</svg>
