<svg width="88" height="88" viewBox="0 0 88 88" fill="none" xmlns="http://www.w3.org/2000/svg">
<path d="M0 37.1014C0 19.6116 0 10.8668 5.43338 5.43338C10.8668 0 19.6117 0 37.1014 0H50C67.4898 0 76.2347 0 81.6681 5.43338C87.1014 10.8668 87.1014 19.6117 87.1014 37.1014V50C87.1014 67.4898 87.1014 76.2347 81.6681 81.6681C76.2347 87.1014 67.4898 87.1014 50 87.1014H37.1014C19.6116 87.1014 10.8668 87.1014 5.43338 81.6681C0 76.2347 0 67.4898 0 50V37.1014Z" fill="#1B1D1E"/>
<g clip-path="url(#clip0_10906_29166)">
<path d="M18.5508 35.9524C18.5508 29.9519 18.5508 26.9516 19.7186 24.6597C20.7458 22.6436 22.3849 21.0046 24.4009 19.9774C26.6928 18.8096 29.6931 18.8096 35.6936 18.8096H51.4079C57.4085 18.8096 60.4088 18.8096 62.7006 19.9774C64.7167 21.0046 66.3558 22.6436 67.3829 24.6597C68.5508 26.9516 68.5508 29.9519 68.5508 35.9524V51.6667C68.5508 57.6672 68.5508 60.6676 67.3829 62.9594C66.3558 64.9755 64.7167 66.6146 62.7006 67.6417C60.4088 68.8096 57.4085 68.8096 51.4079 68.8096H35.6936C29.6931 68.8096 26.6928 68.8096 24.4009 67.6417C22.3849 66.6146 20.7458 64.9755 19.7186 62.9594C18.5508 60.6676 18.5508 57.6672 18.5508 51.6667V35.9524Z" fill="#4087FC"/>
<path d="M29.7414 33.0957C28.4922 33.0957 27.4795 34.2378 27.4795 35.6468V48.0191C27.4795 51.6118 30.0618 54.5243 33.2473 54.5243L46.6461 54.3968C47.8954 54.3968 48.9081 53.2546 48.9081 51.8457V39.3457C48.9081 35.753 45.8436 33.0957 42.6581 33.0957H29.7414Z" fill="white"/>
<path d="M51.9651 37.9659C51.1569 38.7652 50.6934 39.9185 50.6934 41.1309V46.3082C50.6934 47.5205 51.1569 48.6741 51.9651 49.4732L56.9948 53.9032C58.0182 54.915 59.6219 54.0953 59.6219 52.5603V35.1223C59.6219 33.5871 58.0182 32.7675 56.9948 33.7794L51.9651 37.9659Z" fill="white"/>
</g>
<defs>
<clipPath id="clip0_10906_29166">
<rect width="50" height="50" fill="white" transform="translate(18.5508 18.5508)"/>
</clipPath>
</defs>
</svg>
