<svg width="251" height="38" viewBox="0 0 251 38" fill="none" xmlns="http://www.w3.org/2000/svg">
<path d="M37.5794 18.9862C37.5794 29.2499 29.1669 37.5707 18.7894 37.5707C8.4118 37.5707 0 29.2524 0 18.9862C0 8.71991 8.41243 0.402239 18.7894 0.402239C29.1663 0.402239 37.5794 8.72242 37.5794 18.9862ZM58.1922 18.9862C58.1922 28.6482 53.9857 36.4802 48.7972 36.4802C43.6088 36.4802 39.4022 28.6457 39.4022 18.9862C39.4022 9.32661 43.6088 1.49217 48.7972 1.49217C53.9857 1.49217 58.1922 9.32661 58.1922 18.9862ZM66.6232 18.9862C66.6232 27.6429 65.1436 34.6601 63.3188 34.6601C61.494 34.6601 60.0144 27.6404 60.0144 18.9862C60.0144 10.3319 61.494 3.31226 63.3194 3.31226C65.1448 3.31226 66.6232 10.33 66.6232 18.9862ZM118.48 2.01363L118.533 2.00235V1.60436H107.847L97.925 24.5123L88.0029 1.60436H76.4878V2.00235L76.5394 2.01363C78.4899 2.44609 79.4801 3.09102 79.4801 5.41691V32.6463C79.4801 34.9722 78.4861 35.6171 76.5356 36.0496L76.4839 36.0609V36.4601H84.2966V36.0621L84.2449 36.0508C82.2945 35.6184 81.3043 34.9734 81.3043 32.6476V6.99633L94.0502 36.4601H94.7731L107.89 6.17466V33.3201C107.723 35.1571 106.742 35.7243 104.976 36.116L104.924 36.1279V36.5228H118.533V36.1279L118.48 36.116C116.712 35.7243 115.708 35.1571 115.54 33.3201L115.531 5.41691H115.54C115.54 3.09102 116.531 2.44609 118.48 2.01363ZM124.697 20.0517C124.919 15.1592 126.708 11.6281 129.709 11.5673C130.635 11.5823 131.411 11.8806 132.015 12.4547C133.297 13.6775 133.9 16.2328 133.807 20.0517H124.697ZM124.562 21.4305H140.513V21.3647C140.468 17.6236 139.364 14.7136 137.237 12.7155C135.398 10.9888 132.676 10.0386 129.816 10.0386H129.752C128.268 10.0386 126.448 10.3921 125.153 11.0326C123.678 11.7033 122.378 12.7061 121.296 14.0223C119.554 16.1426 118.499 19.0081 118.242 22.2284C118.234 22.3249 118.227 22.4214 118.22 22.5179C118.213 22.6145 118.209 22.7009 118.204 22.7931C118.181 23.2459 118.174 23.6992 118.181 24.1525C118.354 31.4461 122.365 37.2749 129.488 37.2749C135.741 37.2749 139.382 32.7848 140.29 26.7579L139.831 26.5994C138.236 29.8384 135.372 31.8014 132.111 31.562C127.66 31.2349 124.251 26.8018 124.56 21.4318M158.547 31.3145C158.024 32.5335 156.933 33.2041 155.47 33.2041C154.007 33.2041 152.669 32.2176 151.719 30.4251C150.698 28.5009 150.161 25.7808 150.161 22.5587C150.161 15.8524 152.285 11.5146 155.571 11.5146C156.947 11.5146 158.031 12.1852 158.547 13.3554V31.3145ZM169.129 36.0953C167.178 35.6422 166.188 34.9672 166.188 32.5228V0.000488281L154.338 3.43009V3.85002L154.41 3.84438C156.045 3.71464 157.154 3.93651 157.798 4.52065C158.302 4.97818 158.547 5.68015 158.547 6.66791V11.1267C157.379 10.394 155.99 10.0374 154.303 10.0374C150.883 10.0374 147.758 11.4519 145.504 14.021C143.154 16.6985 141.911 20.3575 141.911 24.6013C141.91 32.1806 145.709 37.2749 151.362 37.2749C154.669 37.2749 157.329 35.4949 158.547 32.4927V36.5228H169.18V36.1054L169.129 36.0953ZM179.292 4.4235C179.292 2.05687 177.475 0.271873 175.065 0.271873C172.667 0.271873 170.791 2.09573 170.791 4.4235C170.791 6.75127 172.669 8.57513 175.065 8.57513C177.475 8.57513 179.292 6.79013 179.292 4.4235ZM182.089 36.0953C180.138 35.6422 179.148 34.9672 179.148 32.5228H179.14V10.1144L168.506 13.1135V13.5209L168.57 13.5265C170.871 13.7277 171.501 14.5061 171.501 17.1473V36.5228H182.143V36.1054L182.089 36.0953ZM209.336 36.0953C207.385 35.6422 206.395 34.9672 206.395 32.5228V10.1144L196.271 13.0144V13.4231L196.331 13.4294C198.212 13.6236 198.755 14.4466 198.755 17.0996V31.2643C198.128 32.4833 196.952 33.2073 195.526 33.2561C193.215 33.2561 191.942 31.7225 191.942 28.9378V10.1151L181.309 13.1141V13.5209L181.372 13.5265C183.673 13.7271 184.303 14.5055 184.303 17.1473V29.1352C184.298 29.9721 184.372 30.8076 184.525 31.631L184.716 32.4489C185.617 35.6178 187.975 37.2749 191.671 37.2749C194.801 37.2749 197.545 35.3714 198.753 32.3931V36.5297H209.386V36.1123L209.336 36.0953ZM250.644 36.5228V36.1047L250.592 36.0928C248.476 35.6134 247.652 34.7096 247.652 32.8694V17.6267C247.652 12.874 244.934 10.0374 240.383 10.0374C237.065 10.0374 234.267 11.9208 233.19 14.8546C232.334 11.7459 229.872 10.0374 226.232 10.0374C223.034 10.0374 220.528 11.6951 219.453 14.4955V10.1163L208.819 12.9925V13.4024L208.883 13.408C211.156 13.6061 211.813 14.4071 211.813 16.9806V36.5228H221.735V36.1054L221.682 36.0928C219.994 35.703 219.449 34.9923 219.449 33.1684V15.697C219.896 14.6722 220.796 13.4582 222.576 13.4582C224.786 13.4582 225.906 14.9624 225.906 17.9257V36.5228H235.83V36.1054L235.778 36.0928C234.09 35.703 233.545 34.9923 233.545 33.1684V17.6249C233.549 17.0437 233.502 16.4632 233.404 15.89C233.878 14.7763 234.83 13.4582 236.682 13.4582C238.923 13.4582 240.012 14.9192 240.012 17.9257V36.5228H250.644Z" fill="white"/>
</svg>
