<svg width="204" height="66" viewBox="0 0 204 66" fill="none" xmlns="http://www.w3.org/2000/svg">
<path d="M32.8196 65.6438C50.9454 65.6438 65.6392 50.9489 65.6392 32.8219C65.6392 14.6949 50.9454 0 32.8196 0C14.6938 0 0 14.6949 0 32.8219C0 50.9489 14.6938 65.6438 32.8196 65.6438Z" fill="#FF4500"/>
<path d="M54.7075 32.8219C54.6096 30.1785 52.3906 28.1144 49.7393 28.2042C48.5645 28.245 47.4469 28.7263 46.5984 29.534C42.8621 26.9886 38.4731 25.5934 33.9617 25.4955L36.0909 15.2565L43.115 16.7332C43.3108 18.5363 44.9261 19.8417 46.729 19.6458C48.5319 19.45 49.8372 17.8346 49.6414 16.0316C49.4456 14.2286 47.8303 12.9232 46.0274 13.119C44.9913 13.2251 44.0613 13.8288 43.5474 14.7262L35.5036 13.119C34.957 12.9966 34.4104 13.3393 34.288 13.8941C34.288 13.9022 34.288 13.9022 34.288 13.9104L31.8651 25.2997C27.2966 25.3732 22.8505 26.7764 19.0652 29.3382C17.1399 27.527 14.1051 27.6168 12.2941 29.5503C10.483 31.4758 10.5727 34.5107 12.5062 36.3219C12.8815 36.6728 13.3138 36.9746 13.7951 37.1868C13.7625 37.6681 13.7625 38.1495 13.7951 38.6308C13.7951 45.9817 22.361 51.9619 32.9256 51.9619C43.4902 51.9619 52.0561 45.9898 52.0561 38.6308C52.0888 38.1495 52.0888 37.6681 52.0561 37.1868C53.7041 36.3627 54.7401 34.6658 54.7075 32.8219ZM21.8879 36.1098C21.8879 34.2986 23.3645 32.8219 25.1755 32.8219C26.9866 32.8219 28.4632 34.2986 28.4632 36.1098C28.4632 37.921 26.9866 39.3977 25.1755 39.3977C23.3563 39.3814 21.8879 37.921 21.8879 36.1098ZM40.9531 45.1332C38.6199 46.8873 35.7646 47.7847 32.8441 47.6623C29.9235 47.7847 27.0682 46.8873 24.735 45.1332C24.425 44.7579 24.4821 44.195 24.8574 43.8849C25.1837 43.6157 25.6487 43.6157 25.9832 43.8849C27.9574 45.329 30.364 46.0633 32.8114 45.949C35.2588 46.0796 37.6736 45.3779 39.6723 43.9502C40.0313 43.5994 40.6186 43.6075 40.9694 43.9665C41.3202 44.3255 41.3121 44.9129 40.9531 45.2637V45.1332ZM40.3657 39.5119C38.5547 39.5119 37.0781 38.0352 37.0781 36.224C37.0781 34.4128 38.5547 32.9361 40.3657 32.9361C42.1768 32.9361 43.6534 34.4128 43.6534 36.224C43.7268 38.0352 42.3155 39.5609 40.5044 39.6343C40.4473 39.6343 40.3984 39.6343 40.3413 39.6343L40.3657 39.5119Z" fill="white"/>
<path d="M183.146 25.5521C185.615 25.5521 187.617 23.5504 187.617 21.0812C187.617 18.612 185.615 16.6104 183.146 16.6104C180.677 16.6104 178.676 18.612 178.676 21.0812C178.676 23.5504 180.677 25.5521 183.146 25.5521Z" fill="#FF4500"/>
<path d="M119.791 40.1072C121.521 40.2296 123.022 38.9242 123.152 37.1864C123.16 37.0885 123.16 36.9743 123.16 36.8683C123.136 36.2645 123.063 35.6526 122.94 35.0571C121.88 29.395 117.042 25.226 111.291 24.9976C104.74 24.9976 99.2656 31.0186 99.2656 38.4102C99.2656 45.8019 104.65 51.8311 111.282 51.8311C114.798 51.9697 118.208 50.5502 120.574 47.9476C121.545 46.887 121.464 45.2471 120.403 44.2762C120.321 44.2028 120.248 44.1375 120.166 44.0804C119.106 43.4196 117.727 43.5583 116.83 44.4231C115.353 45.8916 113.371 46.732 111.282 46.7972C107.677 46.5117 104.789 43.6888 104.43 40.0746H119.693L119.791 40.1072ZM111.258 30.0477C114.431 30.2598 117.099 32.5279 117.809 35.6363H104.723C105.425 32.5197 108.076 30.2517 111.258 30.0477Z" fill="white"/>
<path d="M99.5268 27.6C99.5268 26.3436 98.5968 25.2748 97.3486 25.1198C93.9794 24.5568 90.553 25.8051 88.3422 28.4158V28.0895C88.3422 26.6944 87.2164 25.5685 85.8214 25.5685C84.4264 25.5685 83.3006 26.6944 83.3006 28.0895V48.7306C83.2679 50.085 84.304 51.2353 85.6582 51.3495C87.0369 51.4474 88.2443 50.4031 88.334 49.0244C88.3422 48.9264 88.3422 48.8285 88.334 48.7306V38.1408C88.1138 33.9147 91.3525 30.3168 95.5783 30.0883C95.9536 30.0639 96.337 30.072 96.7123 30.1128H97.2181C98.5234 29.9986 99.5268 28.9135 99.5268 27.6Z" fill="white"/>
<path d="M185.659 30.3086C185.659 28.9135 184.533 27.7876 183.138 27.7876C181.743 27.7876 180.617 28.9135 180.617 30.3086V48.7225C180.617 50.1176 181.743 51.2435 183.138 51.2435C184.533 51.2435 185.659 50.1176 185.659 48.7225V30.3086Z" fill="white"/>
<path d="M148.458 16.317C148.458 14.9301 147.333 13.8042 145.946 13.8042C144.559 13.8042 143.433 14.9301 143.433 16.317V27.5758C141.736 25.8626 139.403 24.9325 136.996 24.9977C130.445 24.9977 124.971 31.0188 124.971 38.4104C124.971 45.8021 130.364 51.8312 136.996 51.8312C139.444 51.9047 141.81 50.9664 143.547 49.2287C143.939 50.5585 145.334 51.3173 146.664 50.9256C147.667 50.6319 148.385 49.7508 148.45 48.6984L148.458 16.317ZM136.98 46.8627C133.121 46.8627 129.98 43.1097 129.98 38.4675C129.98 33.8253 133.097 30.0724 136.98 30.0724C140.863 30.0724 143.98 33.8253 143.98 38.4675C143.98 43.1097 140.863 46.8219 136.996 46.8219L136.98 46.8627Z" fill="white"/>
<path d="M174.743 16.317C174.743 14.9301 173.618 13.8042 172.231 13.8042C170.844 13.8042 169.718 14.9301 169.718 16.317V27.5758C168.021 25.8626 165.688 24.9325 163.281 24.9977C156.731 24.9977 151.257 31.0188 151.257 38.4104C151.257 45.8021 156.649 51.8312 163.281 51.8312C165.729 51.9047 168.095 50.9664 169.832 49.2287C170.224 50.5585 171.619 51.3173 172.949 50.9256C173.952 50.6319 174.67 49.7508 174.735 48.6984L174.743 16.317ZM163.273 46.8627C159.415 46.8627 156.274 43.1097 156.274 38.4675C156.274 33.8253 159.39 30.0724 163.273 30.0724C167.157 30.0724 170.273 33.8253 170.273 38.4675C170.273 43.1097 167.157 46.8219 163.29 46.8219L163.273 46.8627Z" fill="white"/>
<path d="M198.72 48.7144V30.0476H200.898C202.105 30.121 203.133 29.1991 203.207 27.9998C203.207 27.959 203.215 27.9101 203.215 27.8611C203.321 26.6618 202.432 25.6012 201.241 25.4951C201.175 25.487 201.102 25.487 201.037 25.487H198.728V22.0196C198.744 20.6734 197.716 19.5394 196.37 19.417C194.992 19.3191 193.792 20.3634 193.695 21.7422C193.686 21.7993 193.686 21.8646 193.686 21.9217V25.5441H191.5C190.293 25.4707 189.265 26.3926 189.191 27.5919C189.191 27.6327 189.183 27.6816 189.183 27.7306C189.077 28.9299 189.966 29.9905 191.157 30.0966C191.223 30.1047 191.296 30.1047 191.361 30.1047H193.54V48.7225C193.54 50.1095 194.665 51.2354 196.052 51.2354C197.439 51.3251 198.622 50.2645 198.712 48.8776C198.72 48.8286 198.72 48.7715 198.72 48.7144Z" fill="white"/>
</svg>
