<svg width="50" height="50" viewBox="0 0 50 50" fill="none" xmlns="http://www.w3.org/2000/svg">
<path d="M1.68955 5.5412H6.17735C7.33848 5.5412 8.28926 6.38578 8.44808 7.49191L9.13487 12.0278L12.1439 32.4888C12.5667 35.2305 14.9426 37.2884 17.7415 37.2884H40.5496C43.1359 37.2884 45.4066 35.4963 46.0395 32.9647L49.8405 17.0909C50.5789 14.032 48.6794 11.0266 45.6704 10.2894C45.2476 10.1844 44.8248 10.1308 44.3504 10.1308L12.2489 10.1287L11.7745 7.01832C11.3517 4.27661 8.97582 2.21875 6.17691 2.21875H1.6891C0.791966 2.21875 0 2.95617 0 3.90579C0 4.85541 0.738323 5.59283 1.6891 5.59283L1.68955 5.5412ZM36.9051 18.4608C37.0639 17.5648 37.9074 16.9324 38.8067 17.0375C39.7038 17.1961 40.3369 18.0386 40.2318 18.9367L38.753 28.956C38.6478 29.747 37.9074 30.3794 37.1154 30.3794H36.8515C35.9543 30.2208 35.3212 29.3783 35.4779 28.4802L36.9566 18.4608H36.9051ZM28.0884 18.671C28.0884 17.7749 28.8267 16.9839 29.7775 16.9839C30.7283 16.9839 31.4666 17.7213 31.4666 18.671V28.2679C31.4666 29.1639 30.7283 29.9549 29.7775 29.9549C28.8267 29.9549 28.0884 29.2175 28.0884 28.2679V18.671ZM20.6967 17.0354C21.5939 16.9303 22.4395 17.5627 22.5983 18.4588L24.077 28.4781C24.2359 29.3741 23.6027 30.2187 22.7035 30.3773H22.4395C21.5939 30.3773 20.9092 29.7964 20.8019 28.9539L19.3231 18.9346C19.1643 18.0386 19.7975 17.194 20.7483 17.0354H20.6967ZM24.0749 44.7203C24.0749 42.4009 22.227 40.5553 19.9048 40.5553C17.5825 40.5553 15.7346 42.4009 15.7346 44.7203C15.7346 47.0398 17.5825 48.8854 19.9048 48.8854C22.1755 48.8854 24.0749 47.0398 24.0749 44.7203ZM37.4866 40.5553C35.1644 40.5553 33.3164 42.4009 33.3164 44.7203C33.3164 47.0398 35.1644 48.8854 37.4866 48.8854C39.8089 48.8854 41.6568 47.0398 41.6568 44.7203C41.6568 42.4524 39.8089 40.5553 37.4866 40.5553Z" fill="white"/>
</svg>
