<svg width="50" height="50" viewBox="0 0 50 50" fill="none" xmlns="http://www.w3.org/2000/svg">
<path d="M39.6969 4.58572C36.195 4.06493 32.7828 5.00616 30.092 7.22498C28.3913 8.62731 27.1192 10.4501 26.3895 12.4899C25.6517 10.4501 24.3796 8.62731 22.6788 7.22498C19.988 5.00347 16.573 4.06493 13.0739 4.58572C7.07123 5.47538 2.36775 11.6734 2.81008 18.1264C3.01894 21.2295 3.86521 24.1454 5.1238 26.8418H15.6182L19.4807 19.3909C19.6191 19.1224 19.9012 18.965 20.1968 19.0003C20.5006 19.0356 20.7474 19.2471 20.818 19.5428L24.6019 34.0681L26.6281 27.3547C26.723 27.0509 27.0051 26.8421 27.3225 26.8421H31.5838L34.695 22.7924C34.8469 22.5889 35.0937 22.4886 35.346 22.5103C35.5983 22.5401 35.8153 22.6974 35.9238 22.9226L37.95 27.2544C38.1236 27.6152 37.9636 28.0491 37.6028 28.2173C37.2421 28.3909 36.8135 28.2309 36.6399 27.8701L35.1128 24.6152L32.5169 28.0085C32.3786 28.182 32.1616 28.2905 31.9392 28.2905H27.8596L25.2475 36.949C25.1526 37.2527 24.8705 37.4616 24.5531 37.4616H24.5395C24.214 37.4535 23.9401 37.2365 23.8533 36.9191L19.8958 21.7292L16.6978 27.9001C16.5757 28.1388 16.3289 28.2907 16.0603 28.2907H5.84788C11.9374 39.7184 25.009 46.9012 26.0152 47.4435C26.1237 47.5086 26.2539 47.5438 26.3922 47.5438C26.5224 47.5438 26.6526 47.5086 26.7611 47.4435C27.998 46.7789 48.7942 35.3645 49.9719 18.1269C50.4059 11.6739 45.7052 5.47569 39.6998 4.58618L39.6969 4.58572Z" fill="#F5FAFE"/>
<path d="M0.724253 26.8438C0.325518 26.8438 0 27.1692 0 27.568C0 27.9668 0.325497 28.2923 0.724253 28.2923H5.84541C5.59315 27.8149 5.34631 27.3375 5.12116 26.8465H0.724253V26.8438Z" fill="#F5FAFE"/>
</svg>
