<svg width="50" height="50" viewBox="0 0 50 50" fill="none" xmlns="http://www.w3.org/2000/svg">
<g clip-path="url(#clip0_25181_77718)">
<path d="M34.0352 19.1484H50.141V23.2731H34.0352V19.1484Z" fill="#F5FAFE"/>
<path d="M34.0352 41.588H43.5227C47.172 41.588 50.141 38.6191 50.141 34.9697V26.2188H34.0352V41.588ZM37.5976 30.7362H43.0046V33.6824H37.5976V30.7362Z" fill="#F5FAFE"/>
<path d="M50.141 16.2003V15.3058C50.141 11.6565 47.172 8.6875 43.5227 8.6875H34.0352V16.2003H50.141Z" fill="#A3ACB5"/>
<path d="M21.4501 45.7781C21.4501 47.5724 20.6538 49.1832 19.3975 50.2792H24.7073C28.2271 50.2792 31.0907 47.4156 31.0907 43.8958V42.75H20.6229C21.1476 43.6387 21.4501 44.6735 21.4501 45.7781Z" fill="#A3ACB5"/>
<path d="M15.4753 42.75C13.8056 42.75 12.4473 44.1084 12.4473 45.778C12.4473 47.4476 13.8056 48.8061 15.4753 48.8061C17.145 48.8061 18.5033 47.4477 18.5033 45.7781C18.5033 44.1085 17.1449 42.75 15.4753 42.75Z" fill="#A3ACB5"/>
<path d="M9.49989 45.778C9.49989 44.6734 9.80237 43.6386 10.3272 42.75H-0.140625V43.8957C-0.140625 47.4155 2.72297 50.2791 6.24278 50.2791H11.5525C10.2961 49.183 9.49989 47.5722 9.49989 45.778Z" fill="#A3ACB5"/>
<path d="M24.7056 0H6.24278C2.72297 0 -0.140625 2.8636 -0.140625 6.38341V39.8062H31.089V6.38341C31.089 2.8636 28.2254 0 24.7056 0ZM16.7628 18.0599C16.5992 18.0021 16.4404 17.9466 16.2861 17.8926C14.7683 17.3618 13.5694 16.9426 12.5606 16.002C11.5529 15.0624 11.1266 13.5717 11.4481 12.1117C11.7821 10.5949 12.8454 9.4061 14.2924 8.93147C14.3122 8.92499 14.3318 8.91929 14.3517 8.913V6.90724H17.2979V8.85673C19.3308 9.41936 20.6437 11.0409 20.721 11.1385L18.413 12.9695L18.419 12.977C18.3586 12.9029 16.9205 11.1698 15.2106 11.7309C14.5667 11.9421 14.377 12.5107 14.3254 12.7453C14.2298 13.179 14.328 13.6219 14.5698 13.8473C15.1259 14.3659 15.9743 14.6625 17.2586 15.1116C17.4159 15.1666 17.5778 15.2232 17.7447 15.2822C19.9546 16.0634 21.174 18.0115 20.8513 20.2454C20.6021 21.9702 19.3344 23.7651 17.298 24.4252V26.5848H14.3518V24.5875C12.2283 24.2082 10.9029 22.884 10.3397 22.3208L12.4229 20.2376C12.9797 20.7944 14.0166 21.8313 15.7471 21.7393C17.0706 21.6694 17.8092 20.6975 17.9354 19.824C18.0047 19.3446 17.9445 18.4776 16.7628 18.0599ZM20.9023 32.8833H10.046V29.9371H20.9024V32.8833H20.9023Z" fill="#A3ACB5"/>
</g>
<defs>
<clipPath id="clip0_25181_77718">
<rect width="50" height="50" fill="white"/>
</clipPath>
</defs>
</svg>
