<svg width="40" height="40" viewBox="0 0 40 40" fill="none" xmlns="http://www.w3.org/2000/svg">
<path fill-rule="evenodd" clip-rule="evenodd" d="M5.08904 9.36252C4.59897 9.74874 4.58301 9.97447 4.58301 10.0026C4.58301 10.0307 4.59897 10.2565 5.08904 10.6427C5.56501 11.0178 6.33122 11.4103 7.38946 11.763C9.49284 12.4642 12.4782 12.9193 15.833 12.9193C19.1878 12.9193 22.1732 12.4642 24.2765 11.763C25.3348 11.4103 26.101 11.0178 26.577 10.6427C27.067 10.2565 27.083 10.0307 27.083 10.0026C27.083 9.97447 27.067 9.74874 26.577 9.36252C26.101 8.9874 25.3348 8.59492 24.2765 8.24219C22.1732 7.54105 19.1878 7.08594 15.833 7.08594C12.4782 7.08594 9.49284 7.54105 7.38946 8.24219C6.33122 8.59492 5.56501 8.9874 5.08904 9.36252ZM27.083 13.2817C26.4835 13.6066 25.8012 13.89 25.0672 14.1347C22.6465 14.9416 19.3818 15.4193 15.833 15.4193C12.2843 15.4193 9.01959 14.9416 6.59887 14.1347C5.86481 13.89 5.18257 13.6066 4.58301 13.2817V16.6693C4.58301 16.6974 4.59897 16.9231 5.08904 17.3093C5.56501 17.6844 6.33122 18.0769 7.38946 18.4298C9.49284 19.1308 12.4782 19.5859 15.833 19.5859C17.8957 19.5859 19.8263 19.4138 21.5015 19.1151C22.9633 17.6293 24.909 16.6169 27.083 16.3335V13.2817ZM29.583 16.3334V10.0026C29.583 8.88014 28.8993 8.00975 28.1243 7.39899C27.3353 6.7771 26.271 6.27175 25.0672 5.87047C22.6465 5.06357 19.3818 4.58594 15.833 4.58594C12.2843 4.58594 9.01959 5.06357 6.59887 5.87047C5.39506 6.27175 4.33069 6.7771 3.54159 7.39899C2.76659 8.00975 2.08301 8.88014 2.08301 10.0026V30.0026C2.08301 31.1251 2.76661 31.9954 3.54159 32.6063C4.33069 33.2281 5.39506 33.7334 6.59887 34.1348C9.01959 34.9416 12.2843 35.4193 15.833 35.4193C18.9275 35.4193 21.8022 35.0561 24.089 34.4304C25.3693 35.0636 26.8112 35.4193 28.333 35.4193C33.6257 35.4193 37.9163 31.1286 37.9163 25.8359C37.9163 20.9669 34.285 16.9459 29.583 16.3334ZM21.4117 32.4643C20.3817 31.3889 19.5992 30.0733 19.1572 28.6088C18.0938 28.7028 16.9798 28.7526 15.833 28.7526C12.2843 28.7526 9.01959 28.2749 6.59887 27.4681C5.86481 27.2234 5.18257 26.9399 4.58301 26.6151V30.0026C4.58301 30.0308 4.59897 30.2564 5.08904 30.6426C5.56501 31.0178 6.33122 31.4103 7.38946 31.7631C9.49284 32.4641 12.4782 32.9193 15.833 32.9193C17.8645 32.9193 19.7625 32.7524 21.4117 32.4643ZM4.58301 23.3359C4.58301 23.3641 4.59897 23.5898 5.08904 23.9759C5.56501 24.3511 6.33122 24.7436 7.38946 25.0964C9.49284 25.7974 12.4782 26.2526 15.833 26.2526C16.8425 26.2526 17.8212 26.2114 18.7542 26.1341C18.7512 26.0351 18.7497 25.9356 18.7497 25.8359C18.7497 24.4341 19.0512 23.1016 19.5927 21.9008C18.3983 22.0216 17.1363 22.0859 15.833 22.0859C12.2843 22.0859 9.01959 21.6083 6.59887 20.8014C5.86481 20.5568 5.18257 20.2733 4.58301 19.9484V23.3359ZM21.3515 27.0404C21.715 29.1661 23.029 30.9728 24.8447 32.0024C25.8733 32.5858 27.0623 32.9193 28.333 32.9193C29.8375 32.9193 31.2325 32.4503 32.3797 31.6503L30.5675 29.8383C29.9065 30.2079 29.144 30.4193 28.333 30.4193C25.8017 30.4193 23.7497 28.3673 23.7497 25.8359C23.7497 23.3046 25.8017 21.2526 28.333 21.2526C30.8643 21.2526 32.9163 23.3046 32.9163 25.8359C32.9163 26.6469 32.705 27.4094 32.3353 28.0704L34.1473 29.8826C34.9473 28.7354 35.4163 27.3404 35.4163 25.8359C35.4163 21.9239 32.245 18.7526 28.333 18.7526C26.2398 18.7526 24.3602 19.6589 23.0617 21.1044C21.9342 22.3596 21.2497 24.0164 21.2497 25.8359C21.2497 26.2474 21.2847 26.6498 21.3515 27.0404ZM28.333 23.7526C27.1825 23.7526 26.2497 24.6854 26.2497 25.8359C26.2497 26.9864 27.1825 27.9193 28.333 27.9193C28.9087 27.9193 29.4278 27.6874 29.806 27.3091C30.1843 26.9308 30.4163 26.4116 30.4163 25.8359C30.4163 24.6854 29.4835 23.7526 28.333 23.7526Z" fill="black"/>
</svg>
