<svg width="50" height="50" viewBox="0 0 50 50" fill="none" xmlns="http://www.w3.org/2000/svg">
<path d="M35.2988 41.7646C30.7629 44.2154 24.8028 43.6484 20.7842 39.6299C15.9845 34.8301 15.9826 27.0585 20.7842 22.2549C26.2601 16.779 35.3338 17.6853 39.6475 24.0537V13.7656H26.9521C26.4131 13.7656 25.9756 13.3281 25.9756 12.7891V0.09375H5.46777C3.31348 0.09375 1.56152 1.8457 1.56152 4V46.0039C1.56152 48.1582 3.31348 49.9102 5.46777 49.9102H35.7412C37.3057 49.9102 38.6572 48.9863 39.2803 47.6562L36.0879 44.4639C35.3564 43.7324 35.0938 42.708 35.2988 41.7646ZM6.44434 4.97656C6.44434 4.4375 6.88184 4 7.4209 4H22.0693C22.6084 4 23.0459 4.4375 23.0459 4.97656V11.8125C23.0459 12.3516 22.6084 12.7891 22.0693 12.7891H7.4209C6.88184 12.7891 6.44434 12.3516 6.44434 11.8125V4.97656ZM6.44434 20.6133H11.3271C11.8662 20.6133 12.3037 21.0508 12.3037 21.5898C12.3037 22.1299 11.8662 22.5664 11.3271 22.5664H6.44434C5.90527 22.5664 5.46777 22.1299 5.46777 21.5898C5.46777 21.0508 5.90527 20.6133 6.44434 20.6133ZM6.44434 24.5195H15.2334C15.7725 24.5195 16.21 24.957 16.21 25.4961C16.21 26.0352 15.7725 26.4727 15.2334 26.4727H6.44434C5.90527 26.4727 5.46777 26.0352 5.46777 25.4961C5.46777 24.957 5.90527 24.5195 6.44434 24.5195ZM6.44434 28.4258H14.2568C14.7959 28.4258 15.2334 28.8633 15.2334 29.4023C15.2334 29.9414 14.7959 30.3789 14.2568 30.3789H6.44434C5.90527 30.3789 5.46777 29.9414 5.46777 29.4023C5.46777 28.8633 5.90527 28.4258 6.44434 28.4258ZM6.44434 32.332H12.3037C12.8428 32.332 13.2803 32.7695 13.2803 33.3086C13.2803 33.8477 12.8428 34.2852 12.3037 34.2852H6.44434C5.90527 34.2852 5.46777 33.8477 5.46777 33.3086C5.46777 32.7695 5.90527 32.332 6.44434 32.332ZM6.44434 36.2627H15.2334C15.7725 36.2627 16.21 36.7002 16.21 37.2393C16.21 37.7783 15.7725 38.2158 15.2334 38.2158H6.44434C5.90527 38.2158 5.46777 37.7783 5.46777 37.2393C5.46777 36.7002 5.90527 36.2627 6.44434 36.2627ZM6.44434 40.1689H17.1865C17.7256 40.1689 18.1631 40.6064 18.1631 41.1455C18.1631 41.6846 17.7256 42.1221 17.1865 42.1221H6.44434C5.90527 42.1221 5.46777 41.6846 5.46777 41.1455C5.46777 40.6064 5.90527 40.1689 6.44434 40.1689ZM26.9521 46.0283H6.44434C5.90527 46.0283 5.46777 45.5908 5.46777 45.0518C5.46777 44.5127 5.90527 44.0752 6.44434 44.0752H26.9521C27.4912 44.0752 27.9287 44.5127 27.9287 45.0518C27.9287 45.5908 27.4912 46.0283 26.9521 46.0283Z" fill="#F5FAFE"/>
<path d="M27.9287 0.664062V11.8107H39.0749L27.9287 0.664062Z" fill="#F5FAFE"/>
<path d="M8.39746 5.95312H21.0928V10.8359H8.39746V5.95312Z" fill="#F5FAFE"/>
<path d="M29.4715 25.4922C28.0139 25.4922 26.6453 26.058 25.618 27.0854C23.492 29.2113 23.4919 32.6664 25.618 34.7925C27.743 36.9174 31.2004 36.9174 33.3252 34.7925C34.3526 33.765 34.9183 32.3966 34.9183 30.939C34.9183 27.9235 32.488 25.4922 29.4715 25.4922Z" fill="#F5FAFE"/>
<path d="M47.5815 44.9086L41.6118 38.9389C41.23 38.558 40.6118 38.558 40.23 38.9389L39.5396 39.6293C39.1485 39.2387 37.4932 37.5808 37.4339 37.527C40.7987 33.4677 40.5804 27.4386 36.7776 23.6357C32.7425 19.6006 26.2002 19.6006 22.165 23.6357C18.1299 27.6709 18.1299 34.2132 22.165 38.2482C25.9679 42.0511 31.9971 42.2693 36.0563 38.9044C36.1089 38.9622 37.5375 40.3882 38.1587 41.0101L37.4683 41.7005C37.0864 42.0823 37.0864 42.7005 37.4683 43.0823L43.438 49.052C44.5795 50.1936 46.4392 50.1944 47.5815 49.052C48.1528 48.4808 48.438 47.7308 48.438 46.9798C48.438 46.2299 48.1528 45.4799 47.5815 44.9086ZM24.2366 36.1768C21.3475 33.2874 21.3472 28.5968 24.2367 25.7074C27.1258 22.8183 31.8166 22.8181 34.7061 25.7074C37.5953 28.5967 37.5955 33.2874 34.7062 36.1768C31.8196 39.0632 27.1231 39.0632 24.2366 36.1768Z" fill="#F5FAFE"/>
</svg>
