<svg width="53" height="53" viewBox="0 0 53 53" fill="none" xmlns="http://www.w3.org/2000/svg">
<path d="M16.7421 23.6649C16.8587 24.0649 17.1671 24.3649 17.5587 24.4649C17.6587 24.4899 17.7504 24.5066 17.8504 24.5066C18.1504 24.5066 18.4421 24.3899 18.6671 24.1649C19.8421 22.9899 20.9254 22.2149 21.9587 21.8149C22.0004 21.8733 22.0337 21.9399 22.0754 21.9983C21.8754 22.0733 21.6837 22.1983 21.5254 22.3566C21.2337 22.6566 21.0671 23.0483 21.0671 23.4649C21.0671 24.3316 21.7754 25.0316 22.6421 25.0316H22.8171C22.7921 25.2149 22.7754 25.3983 22.7837 25.5899C22.8087 26.8649 24.2587 29.6649 25.4671 31.7899C25.6837 32.1649 26.0837 32.3983 26.5171 32.3983H26.5337C26.9754 32.3899 27.3754 32.1399 27.5837 31.7483C28.7254 29.5899 30.0837 26.7399 30.0587 25.4649C30.0587 25.3066 30.0337 25.1483 30.0171 24.9899C30.3754 24.9483 30.7087 24.7983 30.9504 24.5483C31.2504 24.2566 31.4087 23.8566 31.4087 23.4399C31.4087 22.8399 31.0671 22.3316 30.5754 22.0649C30.6587 21.9399 30.7254 21.8149 30.8004 21.6816C31.8337 22.0566 32.9254 22.7816 34.1171 23.9066C34.3337 24.1066 34.6171 24.2149 34.9004 24.2149C35.0087 24.2149 35.1171 24.1983 35.2254 24.1649C35.6171 24.0483 35.9171 23.7399 36.0254 23.3399C36.6087 21.0566 35.6671 16.8733 32.9837 15.3816C33.6421 10.3483 31.9504 5.13994 28.0671 1.38994L27.0754 0.423269C26.4671 -0.160065 25.5004 -0.135065 24.9254 0.464935L23.9587 1.4566C20.2087 5.3316 18.7004 10.5899 19.5337 15.5899C16.8921 17.1733 16.0837 21.3983 16.7421 23.6649ZM22.6421 24.0149C22.3337 24.0149 22.0837 23.7649 22.0837 23.4649C22.0837 23.3149 22.1421 23.1733 22.2421 23.0733C22.3504 22.9649 22.4921 22.9066 22.6337 22.9066L24.8504 22.8983V23.0899C24.8504 23.2649 24.8671 23.6066 24.8921 24.0149H22.6421ZM26.8754 22.3983C26.8837 22.6066 26.8921 22.8233 26.9004 23.0483C26.9337 24.8399 26.6504 26.0066 26.4421 26.4316C26.2171 26.0149 25.9004 24.8566 25.8671 23.0649C25.8671 22.8399 25.8671 22.6233 25.8671 22.4149C25.8671 22.4066 25.8754 22.3983 25.8754 22.3899C25.8754 22.3816 25.8754 22.3816 25.8754 22.3733C25.9171 20.9733 26.1504 20.0483 26.3337 19.6816C26.5337 20.0399 26.7921 20.9649 26.8754 22.3816V22.3899V22.3983ZM30.2421 23.8399C30.1421 23.9399 30.0004 23.9983 29.8587 23.9983H27.9087C27.9254 23.5649 27.9254 23.2066 27.9254 23.0316C27.9254 22.9899 27.9254 22.9399 27.9254 22.8899H29.8587C30.1671 22.8899 30.4171 23.1399 30.4171 23.4483C30.4087 23.5899 30.3504 23.7316 30.2421 23.8399ZM24.7087 2.17327L25.6754 1.1816C25.8754 0.973269 26.1921 0.973269 26.3921 1.16494L27.3837 2.1316C31.0754 5.7066 32.6504 10.6816 31.9671 15.4649V15.4733C31.9337 15.5566 31.9254 15.6399 31.9337 15.7233C31.5921 17.8733 30.7837 19.9733 29.5087 21.8899H27.8587C27.7337 20.5233 27.3837 18.5566 26.3337 18.5566C26.3254 18.5566 26.3254 18.5566 26.3171 18.5566C25.5004 18.5733 25.2171 19.7483 25.1254 20.1316C25.0087 20.6316 24.9254 21.2399 24.8837 21.8983H23.2337C21.9087 20.0483 21.0337 17.9899 20.6254 15.8733C20.6254 15.8233 20.6171 15.7816 20.6004 15.7316C19.7087 10.9483 21.1171 5.8816 24.7087 2.17327Z" fill="#F5FAFE"/>
<path d="M16.6335 13.6677L10.0085 13.6844C8.39186 13.6844 7.0752 15.0094 7.0752 16.626L7.11686 37.9094C7.11686 39.526 8.43353 40.8427 10.0502 40.8427H10.0585L35.9752 40.7927C35.9919 40.7927 36.0085 40.8094 36.0335 40.8094H36.0419C36.0669 40.8094 36.0919 40.801 36.1169 40.7927L42.7585 40.776C43.5419 40.776 44.2752 40.4677 44.8335 39.9094C45.3835 39.351 45.6919 38.6177 45.6919 37.8344L45.6419 16.5427C45.6419 15.7594 45.3335 15.0177 44.7752 14.4677C44.2252 13.9177 43.4835 13.6094 42.7002 13.6094C42.7002 13.6094 42.7002 13.6094 42.6919 13.6094L35.8419 13.626C35.5585 13.626 35.3335 13.851 35.3335 14.1344C35.3335 14.4177 35.5585 14.6427 35.8419 14.6427L42.6919 14.626C43.2002 14.626 43.6835 14.826 44.0502 15.1844C44.4169 15.551 44.6169 16.026 44.6169 16.5427L44.6585 37.826C44.6585 38.3427 44.4585 38.826 44.1002 39.1844C43.7335 39.551 43.2585 39.751 42.7419 39.751L36.5085 39.7677C36.2919 38.2344 34.9752 37.051 33.3835 37.051C33.1169 37.0594 32.8669 37.0844 32.6252 37.1427C32.1669 36.2094 31.2002 35.601 30.1335 35.601H30.1252C29.9502 35.601 29.7669 35.6177 29.5919 35.651C29.0085 34.476 27.8002 33.7177 26.4585 33.7177H26.4502C25.0419 33.7177 23.7835 34.5677 23.2419 35.8344C23.1252 35.8177 23.0169 35.8344 22.8919 35.8177C21.8585 35.8177 20.9252 36.351 20.3919 37.2094C20.1085 37.126 19.8085 37.0844 19.5085 37.0844C19.5085 37.0844 19.5085 37.0844 19.5002 37.0844C18.6585 37.0844 17.8669 37.4177 17.2669 38.0094C16.7752 38.501 16.4669 39.1344 16.3752 39.8094L10.0419 39.826C8.98353 39.826 8.11686 38.9677 8.11686 37.9094L8.08353 16.6177C8.08353 15.5594 8.94186 14.6927 10.0002 14.6927L16.6252 14.676C16.9085 14.676 17.1335 14.451 17.1335 14.1677C17.1335 13.8844 16.9085 13.6427 16.6335 13.6677Z" fill="#F5FAFE"/>
<path d="M52.8417 44.6646C52.8417 44.2312 52.675 43.8229 52.3667 43.5229C52.0583 43.2229 51.6583 43.0562 51.2333 43.0562C51.2333 43.0562 51.2333 43.0562 51.225 43.0562L49.025 43.0646L48.9667 14.4229C48.9583 12.1396 47.1 10.2812 44.8167 10.2812H44.8083L35.7417 10.2979C35.4583 10.2979 35.2333 10.5229 35.2333 10.8063C35.2333 11.0896 35.4583 11.3146 35.7417 11.3146L44.8083 11.2979H44.8167C46.5417 11.2979 47.95 12.6979 47.9583 14.4312L48.0167 43.0729L4.81667 43.1562L4.75833 14.5146C4.75833 12.7812 6.15833 11.3729 7.89167 11.3729L16.5917 11.3562C16.875 11.3562 17.1 11.1313 17.1 10.8479C17.1 10.5646 16.875 10.3396 16.5917 10.3396L7.89167 10.3563C5.6 10.3646 3.74167 12.2312 3.75 14.5146L3.80833 43.1562L1.60833 43.1646C0.716667 43.1646 0 43.8896 0 44.7812L0.00833333 46.8729C0.0166667 50.2062 2.725 52.9062 6.05833 52.9062H6.075L46.8333 52.8229C50.1667 52.8146 52.875 50.0979 52.8667 46.7646L52.8417 44.6646ZM7.35 50.2146C7.34167 50.2146 7.34167 50.2146 7.35 50.2146C6.14167 50.2146 5.15833 49.2312 5.15833 48.0312C5.15833 47.4479 5.38333 46.8979 5.8 46.4812C6.21667 46.0646 6.76667 45.8396 7.35 45.8396H7.35833C8.56667 45.8396 9.55 46.8229 9.55 48.0229C9.53333 49.2229 8.55833 50.2146 7.35 50.2146ZM14.5167 49.5563C14.1 49.9729 13.55 50.1979 12.9667 50.1979C12.9667 50.1979 12.9667 50.1979 12.9583 50.1979C12.375 50.1979 11.825 49.9729 11.4083 49.5563C10.9917 49.1396 10.7667 48.5896 10.7667 48.0062C10.7667 47.4229 10.9917 46.8729 11.4083 46.4562C11.825 46.0396 12.375 45.8146 12.9583 45.8146H12.9667C13.55 45.8146 14.1 46.0396 14.5083 46.4562C14.925 46.8729 15.15 47.4146 15.15 48.0062C15.1583 48.5896 14.925 49.1396 14.5167 49.5563ZM20.1333 49.5479C19.7167 49.9646 19.1667 50.1896 18.5833 50.1896C18.5833 50.1896 18.5833 50.1896 18.575 50.1896C17.3667 50.1896 16.3833 49.2062 16.3833 48.0062C16.3833 47.4229 16.6083 46.8729 17.025 46.4562C17.4417 46.0396 17.9917 45.8146 18.575 45.8146H18.5833C19.1667 45.8146 19.7167 46.0396 20.125 46.4562C20.5417 46.8729 20.7667 47.4229 20.7667 48.0062C20.775 48.5812 20.55 49.1312 20.1333 49.5479Z" fill="#F5FAFE"/>
<path d="M26.125 7.12567C24.9667 7.14234 23.8833 7.609 23.0833 8.44234C22.2833 9.27567 21.85 10.3673 21.8667 11.5257C21.8833 12.684 22.3583 13.7673 23.1833 14.5673C24 15.359 25.0667 15.784 26.1917 15.784H26.2667C27.425 15.7673 28.5083 15.3007 29.3083 14.4673C30.1167 13.634 30.5417 12.5423 30.525 11.384C30.4917 8.99234 28.5333 7.084 26.125 7.12567ZM28.0083 13.209C27.5417 13.6923 26.9083 13.9673 26.2417 13.9757C26.225 13.9757 26.2167 13.9757 26.2 13.9757C25.5417 13.9757 24.925 13.7257 24.45 13.2673C23.9667 12.8007 23.6917 12.1673 23.6833 11.5007C23.6583 10.109 24.775 8.96734 26.1583 8.94234C26.825 8.95067 27.4667 9.184 27.95 9.65067C28.4333 10.1173 28.7083 10.7507 28.7167 11.4173C28.725 12.084 28.475 12.7173 28.0083 13.209Z" fill="#F5FAFE"/>
</svg>
