<svg width="50" height="50" viewBox="0 0 50 50" fill="none" xmlns="http://www.w3.org/2000/svg">
<g clip-path="url(#clip0_25181_77864)">
<path d="M26.4648 3.02344V29.3906H49.9023V3.02344H26.4648ZM42.5781 23.5312H39.6484V20.6016H36.7188V23.5312H33.7891V13.2773C33.7891 10.8542 35.7604 8.88281 38.1836 8.88281C40.6067 8.88281 42.5781 10.8542 42.5781 13.2773V23.5312Z" fill="#F5FAFE"/>
<path d="M12.2451 12.2422C11.4374 12.2422 10.7803 12.8993 10.7803 13.707V19.5664C10.7803 20.3741 11.4374 21.0312 12.2451 21.0312C13.0528 21.0312 13.71 20.3741 13.71 19.5664V13.707C13.71 12.8993 13.0528 12.2422 12.2451 12.2422Z" fill="#F5FAFE"/>
<path d="M38.1836 11.8125C37.3759 11.8125 36.7188 12.4696 36.7188 13.2773V17.6719H39.6484V13.2773C39.6484 12.4696 38.9913 11.8125 38.1836 11.8125Z" fill="#F5FAFE"/>
<path d="M0.0976562 38.1797H20.6055C20.6055 41.4105 17.977 44.0391 14.7461 44.0391H11.8164V46.9688H38.1836V44.0391H35.2539C32.023 44.0391 29.3945 41.4105 29.3945 38.1797H46.9727H49.9023V32.3203H0.0976562V38.1797Z" fill="#F5FAFE"/>
<path d="M23.5352 3.02344H0.0976562V29.3906H23.5352V3.02344ZM17.069 24.9961L15.0332 22.9603C14.2741 23.5848 13.3028 23.9604 12.2454 23.9604C9.82227 23.9604 7.85088 21.989 7.85088 19.5658V13.7064C7.85088 11.2833 9.82227 9.31191 12.2454 9.31191C14.6686 9.31191 16.6399 11.2833 16.6399 13.7064V19.5658C16.6399 19.8343 16.6145 20.0968 16.5681 20.3521L19.1406 22.9245L17.069 24.9961Z" fill="#F5FAFE"/>
</g>
<defs>
<clipPath id="clip0_25181_77864">
<rect width="50" height="50" fill="white"/>
</clipPath>
</defs>
</svg>
