<svg width="40" height="40" viewBox="0 0 40 40" fill="none" xmlns="http://www.w3.org/2000/svg">
<path d="M3.43213 17.4734V7.97595C3.43213 5.95691 5.37893 4.17915 8.52645 2.93715C14.9664 0.39595 25.3348 0.39595 31.7747 2.93715C34.9222 4.17915 36.869 5.95691 36.869 7.97595V17.4734C36.869 18.7855 36.0595 19.9883 34.6368 21.0079C33.2625 21.9928 31.2899 22.8215 28.921 23.4141C28.5573 23.5051 28.208 23.2287 28.2078 22.8573H28.2071V13.36C28.2071 13.0695 28.3977 12.8651 28.6743 12.7952C30.8882 12.2386 32.7147 11.4747 33.9677 10.5766C37.418 8.10387 35.3669 5.58803 31.3571 4.00579C25.188 1.57147 15.113 1.57147 8.94397 4.00579C4.93413 5.58803 2.88309 8.10387 6.33333 10.5766C7.59237 11.4789 9.43029 12.2458 11.6585 12.8032C11.9194 12.8684 12.0935 13.1026 12.0933 13.36H12.094V22.8574C12.094 23.2155 11.7739 23.5145 11.3445 23.4051C8.99149 22.8132 7.03165 21.9879 5.66429 21.0079C4.24157 19.9883 3.43213 18.7855 3.43213 17.4734ZM12.268 6.01019C12.5234 5.82299 12.5787 5.46411 12.3915 5.20875C12.2043 4.95339 11.8454 4.89803 11.5901 5.08523L8.38053 7.44179C8.05173 7.68299 8.08069 8.14235 8.39133 8.37467L11.5901 10.7233C11.8455 10.9105 12.2043 10.8552 12.3915 10.5998C12.5787 10.3443 12.5234 9.98555 12.268 9.79835L9.77245 7.96603C9.73053 7.93531 9.73053 7.87331 9.77245 7.84251L12.268 6.01019ZM28.0331 9.79827C27.7777 9.98547 27.7225 10.3444 27.9097 10.5997C28.0968 10.8552 28.4557 10.9104 28.7111 10.7232L31.9098 8.37459C32.2205 8.14227 32.2493 7.68291 31.9206 7.44171L28.7111 5.08515C28.4557 4.89795 28.0968 4.95323 27.9097 5.20867C27.7225 5.46411 27.7777 5.82291 28.0331 6.01011L30.5286 7.84243C30.5705 7.87315 30.5705 7.93515 30.5286 7.96595L28.0331 9.79827ZM38.2997 30.2939C38.2997 32.1639 36.7838 33.6798 34.9139 33.6798C33.3964 33.6798 32.1122 32.6813 31.6821 31.3056C31.6719 31.2731 31.643 31.2519 31.609 31.2519H27.2341C27.1918 31.2519 27.1574 31.2863 27.1574 31.3285V36.9452C27.1574 38.056 26.2507 38.9626 25.1401 38.9626H15.161C14.0504 38.9626 13.1437 38.056 13.1437 36.9452V31.0483C13.1437 31.0315 13.1483 31.017 13.1581 31.0034L19.6453 22.0216C19.6638 21.9959 19.6945 21.9846 19.7253 21.992C20.2884 22.1275 20.8689 21.9548 21.2656 21.5582C22.2937 20.5301 21.5611 18.7659 20.109 18.7659C18.823 18.7659 18.0458 20.184 18.7199 21.2656C18.7367 21.2925 18.7357 21.3251 18.717 21.3509L13.1437 29.0675V29.0643L10.9304 32.1287C10.8186 32.284 10.6434 32.3667 10.4657 32.3668V32.369H8.23781C8.20965 32.369 8.18549 32.3829 8.17149 32.4073L6.42765 35.4277C6.20613 35.8172 5.65181 35.8154 5.43149 35.4344L1.80125 29.1467C1.80037 29.1451 1.79949 29.1438 1.79853 29.1423C1.54517 28.7634 1.81509 28.2479 2.27621 28.2479H9.57901V28.2493C10.0146 28.2488 10.2984 28.7241 10.0752 29.1101L8.92365 31.1046C8.89405 31.1558 8.93085 31.2195 8.98997 31.2195H10.1353C10.1607 31.2195 10.1825 31.2083 10.1974 31.1878L13.1292 27.1286C13.139 27.115 13.1437 27.1005 13.1437 27.0837V15.349C13.1437 14.2383 14.0503 13.3316 15.161 13.3316H25.1401C26.2508 13.3316 27.1574 14.2383 27.1574 15.349V28.8764C27.1574 28.9186 27.123 28.953 27.0808 28.953H23.9285C23.8103 28.953 23.8563 28.7263 23.5011 28.3711C22.4729 27.343 20.7088 28.0756 20.7088 29.5277C20.7088 30.9798 22.4729 31.7124 23.5011 30.6843C23.8562 30.3291 23.8102 30.1024 23.9285 30.1024H31.462C31.5021 30.1024 31.5352 30.0717 31.5383 30.0316C31.6722 28.2843 33.1322 26.9081 34.9139 26.9081C36.7838 26.9081 38.2997 28.424 38.2997 30.2939ZM22.0686 16.4116C22.3861 16.4116 22.6433 16.1543 22.6433 15.8369C22.6433 15.5196 22.386 15.2622 22.0686 15.2622H18.2325C17.9151 15.2622 17.6577 15.5196 17.6577 15.8369C17.6577 16.1544 17.9151 16.4116 18.2325 16.4116H22.0686ZM23.1875 35.6582C23.1875 35.2186 22.8279 34.859 22.3883 34.859H17.9128C17.4732 34.859 17.1136 35.2186 17.1136 35.6582C17.1136 36.0978 17.4732 36.4574 17.9128 36.4574H22.3883C22.8279 36.4574 23.1875 36.0977 23.1875 35.6582ZM20.4529 20.7455C20.6428 20.5556 20.6427 20.2475 20.4529 20.0577C20.1476 19.7524 19.6229 19.9693 19.6229 20.4016C19.6229 20.834 20.1477 21.0507 20.4529 20.7455ZM21.8583 29.5277C21.8583 29.96 22.3832 30.1768 22.6884 29.8716C22.8782 29.6819 22.8782 29.3737 22.6884 29.1839C22.3832 28.8786 21.8583 29.0954 21.8583 29.5277Z" fill="black"/>
</svg>
