<svg width="30" height="30" viewBox="0 0 30 30" fill="none" xmlns="http://www.w3.org/2000/svg">
<path fill-rule="evenodd" clip-rule="evenodd" d="M23.3699 20.2363V21.9008C23.369 21.9967 23.3305 22.0885 23.2627 22.1563C23.1949 22.2242 23.1031 22.2627 23.0072 22.2636H8.2437C8.14774 22.2627 8.05597 22.2242 7.98811 22.1563C7.92025 22.0885 7.88174 21.9967 7.88086 21.9008V20.2363H23.3699Z" fill="#0039CA" fill-opacity="0.1"/>
<path fill-rule="evenodd" clip-rule="evenodd" d="M4.75195 12.3056L15.626 7.73584L26.5002 12.3056L15.626 16.8756L4.75195 12.3056Z" fill="#0039CA" fill-opacity="0.1"/>
<path fill-rule="evenodd" clip-rule="evenodd" d="M4.89616 22.2636H2.83008L3.73145 20.1534L3.81004 20.1561C3.82767 20.1566 3.84535 20.1577 3.86298 20.1577C3.8806 20.1577 3.89817 20.1566 3.91574 20.1561L3.99433 20.1533L4.89616 22.2636Z" fill="#0039CA" fill-opacity="0.1"/>
<path fill-rule="evenodd" clip-rule="evenodd" d="M4.68265 18.649C4.68264 18.8112 4.63455 18.9697 4.54445 19.1045C4.45435 19.2393 4.3263 19.3444 4.17648 19.4064C4.02667 19.4684 3.86182 19.4847 3.70279 19.453C3.54376 19.4214 3.39768 19.3433 3.28303 19.2286C3.16839 19.1139 3.09032 18.9678 3.0587 18.8088C3.02709 18.6498 3.04334 18.4849 3.10541 18.3351C3.16749 18.1853 3.27258 18.0573 3.40742 17.9672C3.54226 17.8771 3.70077 17.8291 3.86293 17.8291C4.08029 17.8293 4.28869 17.9158 4.44237 18.0695C4.59605 18.2232 4.68247 18.4316 4.68265 18.649Z" fill="#0039CA" fill-opacity="0.1"/>
<path fill-rule="evenodd" clip-rule="evenodd" d="M15.7771 16.7655L5.19943 12.32L15.7771 7.87475L26.3549 12.32L15.7771 16.7655ZM23.4067 19.4472V14.5551L15.9546 17.687C15.8983 17.7108 15.8378 17.7231 15.7767 17.7231C15.7155 17.7231 15.655 17.7108 15.5987 17.687L8.14661 14.5551V19.4472L23.4067 19.4472ZM23.1588 22.1633H8.39532C8.3298 22.1624 8.26721 22.136 8.22088 22.0897C8.17455 22.0433 8.14815 21.9808 8.1473 21.9152V20.3657H23.4067V21.9154C23.4058 21.9808 23.3795 22.0434 23.3332 22.0898C23.2868 22.1361 23.2243 22.1625 23.1588 22.1634V22.1633ZM4.71912 18.6635C4.71911 18.8029 4.67775 18.9392 4.60027 19.0552C4.52279 19.1711 4.41267 19.2615 4.28385 19.3148C4.15502 19.3682 4.01326 19.3821 3.8765 19.3549C3.73974 19.3277 3.61413 19.2605 3.51554 19.1619C3.41694 19.0633 3.34981 18.9377 3.32262 18.8009C3.29542 18.6642 3.3094 18.5224 3.36277 18.3936C3.41614 18.2648 3.50651 18.1547 3.62246 18.0772C3.73841 17.9997 3.87472 17.9584 4.01416 17.9584C4.20108 17.9586 4.3803 18.033 4.51246 18.1651C4.64463 18.2973 4.71895 18.4766 4.71912 18.6635ZM4.87327 22.1633H3.15482L3.95715 20.2853C3.97609 20.286 3.99492 20.287 4.01398 20.287C4.03305 20.287 4.05182 20.286 4.07071 20.2853L4.8731 22.1633H4.87327ZM27.7183 11.897L15.9551 6.953C15.8987 6.92955 15.8382 6.91748 15.7771 6.91748C15.716 6.91748 15.6555 6.92955 15.5991 6.953L3.83601 11.897C3.75262 11.9319 3.68143 11.9907 3.63137 12.066C3.58132 12.1412 3.55464 12.2296 3.55469 12.32V12.3207V17.1065C3.26153 17.1928 2.99868 17.3601 2.79644 17.5892C2.59419 17.8182 2.46076 18.0998 2.41152 18.4014C2.36227 18.703 2.39922 19.0124 2.51809 19.2939C2.63697 19.5754 2.83295 19.8176 3.08345 19.9926L2.03683 22.4424C2.00704 22.5122 1.99503 22.5884 2.00187 22.664C2.00871 22.7396 2.0342 22.8124 2.07605 22.8757C2.11789 22.9391 2.1748 22.9911 2.24167 23.0271C2.30853 23.0631 2.38328 23.0819 2.45921 23.0819H5.56881C5.64474 23.0819 5.71947 23.063 5.78632 23.027C5.85317 22.991 5.91006 22.939 5.9519 22.8757C5.99373 22.8123 6.01921 22.7396 6.02604 22.664C6.03288 22.5884 6.02087 22.5122 5.99108 22.4424L4.94457 19.9926C5.19504 19.8176 5.39097 19.5754 5.50982 19.2939C5.62867 19.0123 5.6656 18.703 5.61636 18.4014C5.56712 18.0998 5.43371 17.8183 5.23149 17.5892C5.02928 17.3601 4.76647 17.1928 4.47334 17.1065V13.0112L7.22876 14.1692V21.9154C7.22905 22.2247 7.35206 22.5212 7.57078 22.74C7.78949 22.9587 8.08606 23.0817 8.39537 23.082H23.159C23.4683 23.0817 23.7649 22.9587 23.9836 22.7399C24.2023 22.5212 24.3253 22.2247 24.3256 21.9154V14.1692L27.7187 12.7437C27.802 12.7087 27.8732 12.6498 27.9233 12.5745C27.9733 12.4992 28 12.4108 28 12.3203C28 12.2299 27.9733 12.1415 27.9233 12.0662C27.8732 11.9908 27.802 11.932 27.7187 11.8969L27.7183 11.897Z" fill="#0039CA" stroke="#0039CA" stroke-width="0.8"/>
</svg>
