<svg width="24" height="23" viewBox="0 0 24 23" fill="none" xmlns="http://www.w3.org/2000/svg">
<path d="M3.4702 15.9066C3.21745 18.9501 5.51322 21.4354 8.56724 21.4354H13.6116C17.0447 21.4354 19.4037 18.6657 18.835 15.2747C18.2347 11.7152 14.8016 8.7981 11.1894 8.7981C7.27191 8.7981 3.79666 11.9995 3.4702 15.9066Z" fill="#0039CA" fill-opacity="0.1" stroke="#0039CA" stroke-width="1.8" stroke-linecap="round" stroke-linejoin="round"/>
<path d="M9.85155 6.16544C11.3056 6.16544 12.4843 4.98671 12.4843 3.53267C12.4843 2.07864 11.3056 0.899902 9.85155 0.899902C8.39748 0.899902 7.21875 2.07864 7.21875 3.53267C7.21875 4.98671 8.39748 6.16544 9.85155 6.16544Z" fill="#0039CA" fill-opacity="0.1" stroke="#0039CA" stroke-width="1.8" stroke-linecap="round" stroke-linejoin="round"/>
<path d="M17.0437 7.42898C18.207 7.42898 19.1499 6.486 19.1499 5.32277C19.1499 4.15954 18.207 3.21655 17.0437 3.21655C15.8806 3.21655 14.9375 4.15954 14.9375 5.32277C14.9375 6.486 15.8806 7.42898 17.0437 7.42898Z" fill="#0039CA" fill-opacity="0.1" stroke="#0039CA" stroke-width="1.8" stroke-linecap="round" stroke-linejoin="round"/>
<path d="M20.941 11.6413C21.8134 11.6413 22.5207 10.934 22.5207 10.0616C22.5207 9.18915 21.8134 8.48193 20.941 8.48193C20.0686 8.48193 19.3613 9.18915 19.3613 10.0616C19.3613 10.934 20.0686 11.6413 20.941 11.6413Z" fill="#0039CA" fill-opacity="0.1" stroke="#0039CA" stroke-width="1.8" stroke-linecap="round" stroke-linejoin="round"/>
<path d="M3.00661 9.53524C4.16984 9.53524 5.11282 8.5922 5.11282 7.42897C5.11282 6.26574 4.16984 5.32275 3.00661 5.32275C1.84338 5.32275 0.900391 6.26574 0.900391 7.42897C0.900391 8.5922 1.84338 9.53524 3.00661 9.53524Z" fill="#0039CA" fill-opacity="0.1" stroke="#0039CA" stroke-width="1.8" stroke-linecap="round" stroke-linejoin="round"/>
</svg>
