<svg width="30" height="30" viewBox="0 0 30 30" fill="none" xmlns="http://www.w3.org/2000/svg">
<path d="M9.45898 11.7478C10.5213 12.279 11.4319 13.0812 12.0932 14.0785C12.4726 14.6422 12.4726 15.3685 12.0932 15.9322C11.4319 16.9186 10.5213 17.7208 9.45898 18.252" stroke="#0039CA" stroke-width="2" stroke-linecap="round" stroke-linejoin="round"/>
<path d="M16.082 18.2522H20.4182" stroke="#0039CA" stroke-width="2" stroke-linecap="round" stroke-linejoin="round"/>
<path d="M11.7464 25.8403H18.2506C23.6708 25.8403 25.8389 23.6723 25.8389 18.2521V11.7479C25.8389 6.32773 23.6708 4.15967 18.2506 4.15967H11.7464C6.32627 4.15967 4.1582 6.32773 4.1582 11.7479V18.2521C4.1582 23.6723 6.32627 25.8403 11.7464 25.8403Z" fill="#0039CA" fill-opacity="0.1" stroke="#0039CA" stroke-width="2" stroke-linecap="round" stroke-linejoin="round"/>
<path d="M9.45898 11.7478C10.5213 12.279 11.4319 13.0812 12.0932 14.0785C12.4726 14.6422 12.4726 15.3685 12.0932 15.9322C11.4319 16.9186 10.5213 17.7208 9.45898 18.252" stroke="#0039CA" stroke-width="2" stroke-linecap="round" stroke-linejoin="round"/>
<path d="M16.082 18.2522H20.4182" stroke="#0039CA" stroke-width="2" stroke-linecap="round" stroke-linejoin="round"/>
</svg>
