<svg width="30" height="30" viewBox="0 0 30 30" fill="none" xmlns="http://www.w3.org/2000/svg">
<path d="M7.11133 24.7451H22.8881V11.199L19.3821 8.64842L14.9997 5.4624L7.11133 11.199V24.7451Z" fill="#0039CA" fill-opacity="0.1"/>
<path d="M15.9133 15.108H14.0855C13.5815 15.108 13.1716 14.6981 13.1716 14.1941C13.1716 13.6901 13.5815 13.2802 14.0855 13.2802H15.9133H18.1981V11.4524H15.9133V9.62451H14.0855V11.4524C12.5734 11.4524 11.3438 12.682 11.3438 14.1941C11.3438 15.7062 12.5734 16.9359 14.0855 16.9359H15.9133C16.4169 16.9359 16.8273 17.3458 16.8273 17.8498C16.8273 18.3538 16.4169 18.7637 15.9133 18.7637H14.0855H11.8007V20.5915H14.0855V22.4194H15.9133V20.5915C17.4254 20.5915 18.6551 19.3619 18.6551 17.8498C18.6551 16.3377 17.4254 15.108 15.9133 15.108Z" fill="#0039CA"/>
<path d="M24.1394 12.8319V10.5713V4.14095H18.6559V6.5834L15.0002 3.9248L5.86104 10.5708V24.2472H4.0332V26.075H5.86104H24.1394H25.9673V24.2472H24.1394V12.8319ZM20.4838 5.96879H22.3116V9.24107L20.4838 7.91132V5.96879ZM7.68888 24.2472V11.5017L15.0002 6.18447L22.3116 11.5017V24.2472H7.68888Z" fill="#0039CA"/>
</svg>
