<svg width="30" height="30" viewBox="0 0 30 30" fill="none" xmlns="http://www.w3.org/2000/svg">
<path d="M27.13 12.5368C27.1098 11.8982 26.5941 11.3842 25.9552 11.3624L25.7869 11.3603C25.3947 11.3603 24.3055 11.3983 22.9588 11.6604C22.7178 9.84053 22.2297 8.54842 22.1892 8.44529C22.0695 8.13672 21.8285 7.89084 21.5227 7.76426C21.3739 7.70279 21.2162 7.67203 21.0585 7.67203C20.8918 7.67203 20.7256 7.70639 20.57 7.77473C20.481 7.81397 19.5011 8.25558 18.2785 9.11618C17.2072 7.07792 15.9677 5.76395 15.8767 5.66893C15.6474 5.4295 15.3307 5.29443 14.9999 5.29443C14.6691 5.29443 14.3525 5.4295 14.1236 5.6685C14.0326 5.76353 12.7914 7.07953 11.7197 9.11978C10.5 8.2616 9.51888 7.8135 9.4303 7.7743C9.27462 7.70596 9.10836 7.6716 8.94178 7.6716C8.78406 7.6716 8.62633 7.70231 8.47752 7.76383C8.17179 7.89042 7.93113 8.13672 7.81104 8.44486C7.77099 8.54799 7.28284 9.83968 7.04185 11.66C5.69433 11.3975 4.60563 11.3603 4.21336 11.3603L4.04431 11.3624C3.40574 11.3842 2.88968 11.8982 2.86949 12.5368C2.86219 12.7641 2.73319 18.1457 6.08016 21.493C9.13798 24.5508 13.9364 24.7057 14.8673 24.7057L14.9919 24.7041C14.9943 24.7041 14.9967 24.7057 14.9992 24.7057C15.0016 24.7057 15.004 24.7041 15.0065 24.7041L15.131 24.7057C16.062 24.7057 20.8604 24.5508 23.9182 21.493C27.2663 18.1461 27.1373 12.7645 27.13 12.5368ZM21.0585 8.8849C21.0585 8.8849 21.5446 10.158 21.7666 11.9447C21.0637 12.1417 20.3334 12.4062 19.6083 12.76C19.4202 11.8569 19.1383 11.0105 18.8063 10.2364C20.0454 9.33864 21.0585 8.8849 21.0585 8.8849ZM8.9413 8.8849C8.9413 8.8849 9.95437 9.33623 11.1943 10.234C10.8615 11.0105 10.5784 11.8602 10.3903 12.7665C9.66523 12.4126 8.93604 12.1441 8.23278 11.9468C8.45477 10.1592 8.9413 8.8849 8.9413 8.8849ZM6.93863 20.6353C3.92408 17.6208 4.08222 12.5752 4.08222 12.5752C4.08222 12.5752 4.12791 12.574 4.21284 12.574C4.84856 12.574 7.68194 12.6751 10.1929 14.0279C10.1638 14.347 10.1468 14.6709 10.1468 15.0001C10.1468 18.7349 12.1738 21.8897 13.3348 23.3921C11.5955 23.1855 8.85761 22.5542 6.93863 20.6353ZM15.0266 23.4642C15.0031 23.4565 14.9801 23.4492 14.9501 23.4383C14.5231 22.9728 11.3601 19.3739 11.3601 15.0001C11.3601 10.3097 14.9999 6.50736 14.9999 6.50736C14.9999 6.50736 18.6397 10.3097 18.6397 15.0001C18.6397 19.5009 15.2975 23.1738 15.0266 23.4642ZM23.0615 20.6353C21.1426 22.5542 18.4047 23.1855 16.6653 23.3922C17.826 21.8898 19.8529 18.7349 19.8529 15.0001C19.8529 14.6689 19.8359 14.3429 19.806 14.0218C22.317 12.6703 25.1516 12.5736 25.7869 12.5736C25.8718 12.5736 25.9175 12.5749 25.9175 12.5749C25.9175 12.5749 26.0757 17.6208 23.0615 20.6353Z" fill="#0039CA" stroke="#0039CA" stroke-width="0.5"/>
<path d="M17.9091 9.74558L15.3891 6.04572L15.134 5.79053L13.6348 6.68361L11.9444 9.74558L10.3815 8.85252L9.04185 8.08702L8.43583 8.85252L7.41517 12.1697L4.89546 11.9145L3.68359 12.1697V14.4343C3.68359 14.5619 4.4915 17.3368 4.89546 18.7083L7.19205 22.1531L12.1359 24.0349H16.6651L20.9072 22.7591L24.4795 20.1117L26.3614 15.2955L26.1062 11.9145L22.3744 12.3292L21.2262 8.2784L17.9091 9.74558Z" fill="#0039CA" fill-opacity="0.1"/>
</svg>
