<svg width="30" height="30" viewBox="0 0 30 30" fill="none" xmlns="http://www.w3.org/2000/svg">
<path fill-rule="evenodd" clip-rule="evenodd" d="M11.6173 21.001C11.6209 22.0216 11.0359 22.9439 10.1356 23.3372C9.23525 23.7303 8.19714 23.5168 7.50601 22.7965C6.81486 22.0761 6.60703 20.9908 6.97956 20.0474C7.35209 19.1041 8.23148 18.4888 9.20711 18.4888C9.84516 18.4875 10.4575 18.7516 10.9095 19.2227C11.3615 19.6938 11.6161 20.3334 11.6173 21.001Z" stroke="#0039CA" stroke-width="2" stroke-linecap="round" stroke-linejoin="round"/>
<path fill-rule="evenodd" clip-rule="evenodd" d="M23.4552 21.001C23.4587 22.0216 22.8738 22.9439 21.9735 23.3372C21.0732 23.7303 20.035 23.5168 19.3439 22.7965C18.6527 22.0761 18.4449 20.9908 18.8174 20.0474C19.1899 19.1041 20.0693 18.4888 21.0449 18.4888C21.683 18.4875 22.2954 18.7516 22.7473 19.2227C23.1994 19.6938 23.4539 20.3334 23.4552 21.001Z" stroke="#0039CA" stroke-width="2" stroke-linecap="round" stroke-linejoin="round"/>
<mask id="path-3-inside-1_16297_6615" fill="white">
<path d="M4.70309 13.1018C4.5413 13.5511 4.76724 14.0491 5.20772 14.2142C5.64821 14.3792 6.13646 14.1487 6.29824 13.6995L4.70309 13.1018ZM6.34788 11.0479L5.55718 10.7306C5.55483 10.7367 5.55253 10.7429 5.55031 10.749L6.34788 11.0479ZM12.8439 8.20164C13.3131 8.20164 13.6936 7.81361 13.6936 7.33495C13.6936 6.8563 13.3131 6.46826 12.8439 6.46826V8.20164ZM5.50067 14.2673C5.96993 14.2673 6.35035 13.8793 6.35035 13.4006C6.35035 12.922 5.96993 12.5339 5.50067 12.5339V14.2673ZM4.05478 13.4006L4.04832 14.2673H4.05478V13.4006ZM2.84969 14.6429L2.00002 14.6366V14.6429H2.84969ZM2.00002 16.5796C2.00002 17.0583 2.38043 17.4463 2.84969 17.4463C3.31896 17.4463 3.69937 17.0583 3.69937 16.5796H2.00002ZM5.50067 12.5339C5.03141 12.5339 4.651 12.922 4.651 13.4006C4.651 13.8793 5.03141 14.2673 5.50067 14.2673V12.5339ZM12.8439 14.2673C13.3131 14.2673 13.6936 13.8793 13.6936 13.4006C13.6936 12.922 13.3131 12.5339 12.8439 12.5339V14.2673ZM21.5976 13.6995C21.7593 14.1487 22.2476 14.3792 22.6881 14.2142C23.1285 14.0491 23.3545 13.5511 23.1927 13.1018L21.5976 13.6995ZM21.5479 11.0479L22.3455 10.749C22.3432 10.7429 22.341 10.7367 22.3386 10.7306L21.5479 11.0479ZM12.8439 6.46826C12.3746 6.46826 11.9942 6.8563 11.9942 7.33495C11.9942 7.81361 12.3746 8.20164 12.8439 8.20164V6.46826ZM22.3951 14.2673C22.8644 14.2673 23.2448 13.8793 23.2448 13.4006C23.2448 12.922 22.8644 12.5339 22.3951 12.5339V14.2673ZM12.8439 12.5339C12.3746 12.5339 11.9942 12.922 11.9942 13.4006C11.9942 13.8793 12.3746 14.2673 12.8439 14.2673V12.5339ZM22.3951 12.5339C21.9259 12.5339 21.5454 12.922 21.5454 13.4006C21.5454 13.8793 21.9259 14.2673 22.3951 14.2673V12.5339ZM25.9463 13.4006V14.2673H25.952L25.9463 13.4006ZM27.1503 14.6429H28V14.6366L27.1503 14.6429ZM26.3007 16.5796C26.3007 17.0583 26.6811 17.4463 27.1503 17.4463C27.6196 17.4463 28 17.0583 28 16.5796H26.3007ZM18.6351 21.8676C19.1044 21.8676 19.4848 21.4796 19.4848 21.0009C19.4848 20.5223 19.1044 20.1342 18.6351 20.1342V21.8676ZM11.6178 20.1342C11.1485 20.1342 10.7681 20.5223 10.7681 21.0009C10.7681 21.4796 11.1485 21.8676 11.6178 21.8676V20.1342ZM23.4555 20.1342C22.9863 20.1342 22.6058 20.5223 22.6058 21.0009C22.6058 21.4796 22.9863 21.8676 23.4555 21.8676V20.1342ZM25.9453 21.0009L25.9517 20.1342H25.9453V21.0009ZM27.1503 19.7587L28 19.7649V19.7587H27.1503ZM28 16.5796C28 16.101 27.6196 15.713 27.1503 15.713C26.6811 15.713 26.3007 16.101 26.3007 16.5796H28ZM6.79744 21.8676C7.2667 21.8676 7.64711 21.4796 7.64711 21.0009C7.64711 20.5223 7.2667 20.1342 6.79744 20.1342V21.8676ZM4.05478 21.0009V20.1342H4.04832L4.05478 21.0009ZM2.84969 19.7587H2L2.00004 19.7649L2.84969 19.7587ZM3.69937 16.5796C3.69937 16.101 3.31896 15.713 2.84969 15.713C2.38043 15.713 2.00002 16.101 2.00002 16.5796H3.69937ZM13.6936 7.33495C13.6936 6.8563 13.3131 6.46826 12.8439 6.46826C12.3746 6.46826 11.9942 6.8563 11.9942 7.33495H13.6936ZM11.9942 13.4006C11.9942 13.8793 12.3746 14.2673 12.8439 14.2673C13.3131 14.2673 13.6936 13.8793 13.6936 13.4006H11.9942ZM2.84969 15.713C2.38043 15.713 2.00002 16.101 2.00002 16.5796C2.00002 17.0583 2.38043 17.4463 2.84969 17.4463V15.713ZM5.05111 17.4463C5.52036 17.4463 5.90078 17.0583 5.90078 16.5796C5.90078 16.101 5.52036 15.713 5.05111 15.713V17.4463ZM27.1503 17.4463C27.6196 17.4463 28 17.0583 28 16.5796C28 16.101 27.6196 15.713 27.1503 15.713V17.4463ZM24.8561 15.713C24.3869 15.713 24.0064 16.101 24.0064 16.5796C24.0064 17.0583 24.3869 17.4463 24.8561 17.4463V15.713ZM6.29824 13.6995L7.14545 11.3467L5.55031 10.749L4.70309 13.1018L6.29824 13.6995ZM7.13857 11.3651C7.55191 10.2934 7.96619 9.50587 8.48388 8.98411C8.96542 8.49879 9.57773 8.20164 10.5165 8.20164V6.46826C9.15341 6.46826 8.105 6.92918 7.28949 7.75111C6.51013 8.53661 5.99106 9.60556 5.55718 10.7306L7.13857 11.3651ZM10.5165 8.20164H12.8439V6.46826H10.5165V8.20164ZM5.50067 12.5339H4.05478V14.2673H5.50067V12.5339ZM4.06124 12.534C3.51158 12.5297 2.9872 12.7543 2.60234 13.151L3.81027 14.3703C3.87742 14.3011 3.96345 14.2666 4.04832 14.2673L4.06124 12.534ZM2.60234 13.151C2.2182 13.547 2.00393 14.0818 2.00002 14.6366L3.69935 14.6491C3.70011 14.54 3.74241 14.4402 3.81027 14.3703L2.60234 13.151ZM2.00002 14.6429V16.5796H3.69937V14.6429H2.00002ZM5.50067 14.2673H12.8439V12.5339H5.50067V14.2673ZM23.1927 13.1018L22.3455 10.749L20.7504 11.3467L21.5976 13.6995L23.1927 13.1018ZM22.3386 10.7306C21.9047 9.60556 21.3857 8.53661 20.6063 7.75111C19.7908 6.92918 18.7423 6.46826 17.3792 6.46826V8.20164C18.3181 8.20164 18.9304 8.49879 19.4119 8.98411C19.9296 9.50587 20.3439 10.2934 20.7572 11.3651L22.3386 10.7306ZM17.3792 6.46826H12.8439V8.20164H17.3792V6.46826ZM22.3951 12.5339H12.8439V14.2673H22.3951V12.5339ZM22.3951 14.2673H25.9463V12.5339H22.3951V14.2673ZM25.952 14.2673C26.123 14.2662 26.299 14.416 26.3007 14.6491L28 14.6366C27.9918 13.4882 27.0902 12.5261 25.9406 12.534L25.952 14.2673ZM26.3007 14.6429V16.5796H28V14.6429H26.3007ZM18.6351 20.1342H11.6178V21.8676H18.6351V20.1342ZM23.4555 21.8676H25.9453V20.1342H23.4555V21.8676ZM25.9387 21.8676C26.4884 21.8719 27.0128 21.6472 27.3976 21.2505L26.1897 20.0313C26.1226 20.1005 26.0366 20.1349 25.9517 20.1342L25.9387 21.8676ZM27.3976 21.2505C27.7818 20.8545 27.996 20.3197 28 19.7649L26.3007 19.7524C26.2999 19.8615 26.2576 19.9613 26.1897 20.0313L27.3976 21.2505ZM28 19.7587V16.5796H26.3007V19.7587H28ZM6.79744 20.1342H4.05478V21.8676H6.79744V20.1342ZM4.04832 20.1342C3.96345 20.1349 3.87742 20.1005 3.81027 20.0313L2.60234 21.2505C2.9872 21.6472 3.51158 21.8719 4.06124 21.8676L4.04832 20.1342ZM3.81027 20.0313C3.74241 19.9613 3.70011 19.8615 3.69935 19.7524L2.00004 19.7649C2.00395 20.3197 2.2182 20.8545 2.60234 21.2505L3.81027 20.0313ZM3.69937 19.7587V16.5796H2.00002L2 19.7587H3.69937ZM11.9942 7.33495V13.4006H13.6936V7.33495H11.9942ZM2.84969 17.4463H5.05111V15.713H2.84969V17.4463ZM27.1503 15.713H24.8561V17.4463H27.1503V15.713Z"/>
</mask>
<path d="M4.70309 13.1018C4.5413 13.5511 4.76724 14.0491 5.20772 14.2142C5.64821 14.3792 6.13646 14.1487 6.29824 13.6995L4.70309 13.1018ZM6.34788 11.0479L5.55718 10.7306C5.55483 10.7367 5.55253 10.7429 5.55031 10.749L6.34788 11.0479ZM12.8439 8.20164C13.3131 8.20164 13.6936 7.81361 13.6936 7.33495C13.6936 6.8563 13.3131 6.46826 12.8439 6.46826V8.20164ZM5.50067 14.2673C5.96993 14.2673 6.35035 13.8793 6.35035 13.4006C6.35035 12.922 5.96993 12.5339 5.50067 12.5339V14.2673ZM4.05478 13.4006L4.04832 14.2673H4.05478V13.4006ZM2.84969 14.6429L2.00002 14.6366V14.6429H2.84969ZM2.00002 16.5796C2.00002 17.0583 2.38043 17.4463 2.84969 17.4463C3.31896 17.4463 3.69937 17.0583 3.69937 16.5796H2.00002ZM5.50067 12.5339C5.03141 12.5339 4.651 12.922 4.651 13.4006C4.651 13.8793 5.03141 14.2673 5.50067 14.2673V12.5339ZM12.8439 14.2673C13.3131 14.2673 13.6936 13.8793 13.6936 13.4006C13.6936 12.922 13.3131 12.5339 12.8439 12.5339V14.2673ZM21.5976 13.6995C21.7593 14.1487 22.2476 14.3792 22.6881 14.2142C23.1285 14.0491 23.3545 13.5511 23.1927 13.1018L21.5976 13.6995ZM21.5479 11.0479L22.3455 10.749C22.3432 10.7429 22.341 10.7367 22.3386 10.7306L21.5479 11.0479ZM12.8439 6.46826C12.3746 6.46826 11.9942 6.8563 11.9942 7.33495C11.9942 7.81361 12.3746 8.20164 12.8439 8.20164V6.46826ZM22.3951 14.2673C22.8644 14.2673 23.2448 13.8793 23.2448 13.4006C23.2448 12.922 22.8644 12.5339 22.3951 12.5339V14.2673ZM12.8439 12.5339C12.3746 12.5339 11.9942 12.922 11.9942 13.4006C11.9942 13.8793 12.3746 14.2673 12.8439 14.2673V12.5339ZM22.3951 12.5339C21.9259 12.5339 21.5454 12.922 21.5454 13.4006C21.5454 13.8793 21.9259 14.2673 22.3951 14.2673V12.5339ZM25.9463 13.4006V14.2673H25.952L25.9463 13.4006ZM27.1503 14.6429H28V14.6366L27.1503 14.6429ZM26.3007 16.5796C26.3007 17.0583 26.6811 17.4463 27.1503 17.4463C27.6196 17.4463 28 17.0583 28 16.5796H26.3007ZM18.6351 21.8676C19.1044 21.8676 19.4848 21.4796 19.4848 21.0009C19.4848 20.5223 19.1044 20.1342 18.6351 20.1342V21.8676ZM11.6178 20.1342C11.1485 20.1342 10.7681 20.5223 10.7681 21.0009C10.7681 21.4796 11.1485 21.8676 11.6178 21.8676V20.1342ZM23.4555 20.1342C22.9863 20.1342 22.6058 20.5223 22.6058 21.0009C22.6058 21.4796 22.9863 21.8676 23.4555 21.8676V20.1342ZM25.9453 21.0009L25.9517 20.1342H25.9453V21.0009ZM27.1503 19.7587L28 19.7649V19.7587H27.1503ZM28 16.5796C28 16.101 27.6196 15.713 27.1503 15.713C26.6811 15.713 26.3007 16.101 26.3007 16.5796H28ZM6.79744 21.8676C7.2667 21.8676 7.64711 21.4796 7.64711 21.0009C7.64711 20.5223 7.2667 20.1342 6.79744 20.1342V21.8676ZM4.05478 21.0009V20.1342H4.04832L4.05478 21.0009ZM2.84969 19.7587H2L2.00004 19.7649L2.84969 19.7587ZM3.69937 16.5796C3.69937 16.101 3.31896 15.713 2.84969 15.713C2.38043 15.713 2.00002 16.101 2.00002 16.5796H3.69937ZM13.6936 7.33495C13.6936 6.8563 13.3131 6.46826 12.8439 6.46826C12.3746 6.46826 11.9942 6.8563 11.9942 7.33495H13.6936ZM11.9942 13.4006C11.9942 13.8793 12.3746 14.2673 12.8439 14.2673C13.3131 14.2673 13.6936 13.8793 13.6936 13.4006H11.9942ZM2.84969 15.713C2.38043 15.713 2.00002 16.101 2.00002 16.5796C2.00002 17.0583 2.38043 17.4463 2.84969 17.4463V15.713ZM5.05111 17.4463C5.52036 17.4463 5.90078 17.0583 5.90078 16.5796C5.90078 16.101 5.52036 15.713 5.05111 15.713V17.4463ZM27.1503 17.4463C27.6196 17.4463 28 17.0583 28 16.5796C28 16.101 27.6196 15.713 27.1503 15.713V17.4463ZM24.8561 15.713C24.3869 15.713 24.0064 16.101 24.0064 16.5796C24.0064 17.0583 24.3869 17.4463 24.8561 17.4463V15.713ZM6.29824 13.6995L7.14545 11.3467L5.55031 10.749L4.70309 13.1018L6.29824 13.6995ZM7.13857 11.3651C7.55191 10.2934 7.96619 9.50587 8.48388 8.98411C8.96542 8.49879 9.57773 8.20164 10.5165 8.20164V6.46826C9.15341 6.46826 8.105 6.92918 7.28949 7.75111C6.51013 8.53661 5.99106 9.60556 5.55718 10.7306L7.13857 11.3651ZM10.5165 8.20164H12.8439V6.46826H10.5165V8.20164ZM5.50067 12.5339H4.05478V14.2673H5.50067V12.5339ZM4.06124 12.534C3.51158 12.5297 2.9872 12.7543 2.60234 13.151L3.81027 14.3703C3.87742 14.3011 3.96345 14.2666 4.04832 14.2673L4.06124 12.534ZM2.60234 13.151C2.2182 13.547 2.00393 14.0818 2.00002 14.6366L3.69935 14.6491C3.70011 14.54 3.74241 14.4402 3.81027 14.3703L2.60234 13.151ZM2.00002 14.6429V16.5796H3.69937V14.6429H2.00002ZM5.50067 14.2673H12.8439V12.5339H5.50067V14.2673ZM23.1927 13.1018L22.3455 10.749L20.7504 11.3467L21.5976 13.6995L23.1927 13.1018ZM22.3386 10.7306C21.9047 9.60556 21.3857 8.53661 20.6063 7.75111C19.7908 6.92918 18.7423 6.46826 17.3792 6.46826V8.20164C18.3181 8.20164 18.9304 8.49879 19.4119 8.98411C19.9296 9.50587 20.3439 10.2934 20.7572 11.3651L22.3386 10.7306ZM17.3792 6.46826H12.8439V8.20164H17.3792V6.46826ZM22.3951 12.5339H12.8439V14.2673H22.3951V12.5339ZM22.3951 14.2673H25.9463V12.5339H22.3951V14.2673ZM25.952 14.2673C26.123 14.2662 26.299 14.416 26.3007 14.6491L28 14.6366C27.9918 13.4882 27.0902 12.5261 25.9406 12.534L25.952 14.2673ZM26.3007 14.6429V16.5796H28V14.6429H26.3007ZM18.6351 20.1342H11.6178V21.8676H18.6351V20.1342ZM23.4555 21.8676H25.9453V20.1342H23.4555V21.8676ZM25.9387 21.8676C26.4884 21.8719 27.0128 21.6472 27.3976 21.2505L26.1897 20.0313C26.1226 20.1005 26.0366 20.1349 25.9517 20.1342L25.9387 21.8676ZM27.3976 21.2505C27.7818 20.8545 27.996 20.3197 28 19.7649L26.3007 19.7524C26.2999 19.8615 26.2576 19.9613 26.1897 20.0313L27.3976 21.2505ZM28 19.7587V16.5796H26.3007V19.7587H28ZM6.79744 20.1342H4.05478V21.8676H6.79744V20.1342ZM4.04832 20.1342C3.96345 20.1349 3.87742 20.1005 3.81027 20.0313L2.60234 21.2505C2.9872 21.6472 3.51158 21.8719 4.06124 21.8676L4.04832 20.1342ZM3.81027 20.0313C3.74241 19.9613 3.70011 19.8615 3.69935 19.7524L2.00004 19.7649C2.00395 20.3197 2.2182 20.8545 2.60234 21.2505L3.81027 20.0313ZM3.69937 19.7587V16.5796H2.00002L2 19.7587H3.69937ZM11.9942 7.33495V13.4006H13.6936V7.33495H11.9942ZM2.84969 17.4463H5.05111V15.713H2.84969V17.4463ZM27.1503 15.713H24.8561V17.4463H27.1503V15.713Z" fill="black"/>
<path d="M13.6936 7.33495V8.33495H14.6936V7.33495H13.6936ZM3.81027 14.3703L3.09987 15.0741L4.52071 13.6665L3.81027 14.3703ZM2.84969 17.4463V18.4463H3.84969V17.4463H2.84969ZM13.6936 13.4006H14.6936V12.4006H13.6936V13.4006ZM11.9942 7.33495H10.9942V8.33495H11.9942V7.33495ZM11.9942 13.4006V12.4006H10.9942V13.4006H11.9942ZM27.1503 17.4463H26.1503V18.4463H27.1503V17.4463ZM26.1897 20.0313L26.9002 19.3275L25.4793 20.735L26.1897 20.0313ZM27.1503 15.713V14.713H26.1503V15.713H27.1503ZM2.84969 15.713H3.84969V14.713H2.84969V15.713ZM6.29824 13.6995L6.64909 12.763L5.05394 12.1654L4.70309 13.1018L4.35225 14.0382L5.9474 14.6359L6.29824 13.6995ZM13.6936 7.33495H14.6936C14.6936 6.32277 13.884 5.46826 12.8439 5.46826V6.46826V7.46826C12.7423 7.46826 12.6936 7.38982 12.6936 7.33495H13.6936ZM12.8439 6.46826H11.8439V8.20164H12.8439H13.8439V6.46826H12.8439ZM5.50067 12.5339H4.50067V14.2673H5.50067H6.50067V12.5339H5.50067ZM3.20631 13.7606L2.49587 14.4643L3.09983 15.074L3.81027 14.3703L4.52071 13.6665L3.91675 13.0568L3.20631 13.7606ZM2.00002 16.5796H1.00002C1.00002 17.5918 1.80953 18.4463 2.84969 18.4463V17.4463V16.4463C2.95133 16.4463 3.00002 16.5248 3.00002 16.5796H2.00002ZM3.69937 16.5796V15.5796H2.00002V16.5796V17.5796H3.69937V16.5796ZM12.8439 14.2673V15.2673C13.884 15.2673 14.6936 14.4128 14.6936 13.4006H13.6936H12.6936C12.6936 13.3458 12.7423 13.2673 12.8439 13.2673V14.2673ZM12.8439 12.5339H11.8439V14.2673H12.8439H13.8439V12.5339H12.8439ZM23.1927 13.1018L22.8418 12.1654L21.2467 12.763L21.5976 13.6995L21.9484 14.6359L23.5435 14.0382L23.1927 13.1018ZM12.8439 6.46826V5.46826C11.8037 5.46826 10.9942 6.32281 10.9942 7.33495H11.9942H12.9942C12.9942 7.38978 12.9455 7.46826 12.8439 7.46826V6.46826ZM22.3951 12.5339H21.3951V14.2673H22.3951H23.3951V12.5339H22.3951ZM11.9942 13.4006H10.9942C10.9942 14.4127 11.8037 15.2673 12.8439 15.2673V14.2673V13.2673C12.9455 13.2673 12.9942 13.3458 12.9942 13.4006H11.9942ZM27.1503 17.4463V18.4463C28.1905 18.4463 29 17.5918 29 16.5796H28H27C27 16.5248 27.0487 16.4463 27.1503 16.4463V17.4463ZM28 16.5796V15.5796H26.3007V16.5796V17.5796H28V16.5796ZM18.6351 20.1342H17.6351V21.8676H18.6351H19.6351V20.1342H18.6351ZM11.6178 21.8676H12.6178V20.1342H11.6178H10.6178V21.8676H11.6178ZM23.4555 21.8676H24.4555V20.1342H23.4555H22.4555V21.8676H23.4555ZM26.7937 20.6409L27.5041 19.9372L26.9002 19.3275L26.1897 20.0313L25.4793 20.735L26.0833 21.3447L26.7937 20.6409ZM28 16.5796H29C29 15.5675 28.1905 14.713 27.1503 14.713V15.713V16.713C27.0487 16.713 27 16.6345 27 16.5796H28ZM6.79744 20.1342H5.79744V21.8676H6.79744H7.79744V20.1342H6.79744ZM2.84969 15.713V14.713C1.80953 14.713 1.00002 15.5675 1.00002 16.5796H2.00002H3.00002C3.00002 16.6345 2.95133 16.713 2.84969 16.713V15.713ZM11.9942 7.33495V8.33495H13.6936V7.33495V6.33495H11.9942V7.33495ZM13.6936 13.4006V12.4006H11.9942V13.4006V14.4006H13.6936V13.4006ZM2.84969 17.4463H3.84969V15.713H2.84969H1.84969V17.4463H2.84969ZM5.05111 15.713H4.05111V17.4463H5.05111H6.05111V15.713H5.05111ZM27.1503 15.713H26.1503V17.4463H27.1503H28.1503V15.713H27.1503ZM24.8561 17.4463H25.8561V15.713H24.8561H23.8561V17.4463H24.8561ZM10.5165 8.20164H11.5165V6.46826H10.5165H9.51654V8.20164H10.5165ZM2.60234 13.151L1.89194 13.8548L3.09987 15.0741L3.81027 14.3703L4.52067 13.6665L3.31274 12.4472L2.60234 13.151ZM17.3792 6.46826H16.3792V8.20164H17.3792H18.3792V6.46826H17.3792ZM27.3976 21.2505L28.108 20.5467L26.9002 19.3275L26.1897 20.0313L25.4793 20.735L26.6872 21.9543L27.3976 21.2505ZM3.81027 20.0313L3.09987 19.3275L1.89194 20.5467L2.60234 21.2505L3.31274 21.9543L4.52067 20.7351L3.81027 20.0313ZM4.70309 13.1018L6.5848 13.7794L6.58481 13.7794L4.70309 13.1018ZM5.20772 14.2142L4.50608 16.087L4.50609 16.087L5.20772 14.2142ZM6.29824 13.6995L8.17996 14.3771L8.17997 14.377L6.29824 13.6995ZM6.34788 11.0479L5.6462 12.9207L7.09268 9.19171L6.34788 11.0479ZM5.55718 10.7306L3.69115 10.0109L3.69057 10.0124L5.55718 10.7306ZM4.05478 13.4006H6.05478L2.05484 13.3857L4.05478 13.4006ZM4.04832 14.2673L4.03199 16.2672L4.04016 16.2673H4.04832V14.2673ZM3.81027 14.3703L5.24539 15.7633L5.24581 15.7628L3.81027 14.3703ZM2.84969 14.6429V16.6429L2.86438 12.6429L2.84969 14.6429ZM2.00002 14.6366L2.26498e-05 14.6226V14.6366H2.00002ZM2.00002 16.5796L4.00002 16.5797V16.5796H2.00002ZM21.5976 13.6995L23.4793 13.0219V13.0219L21.5976 13.6995ZM23.1927 13.1018L21.3109 13.7794L21.311 13.7794L23.1927 13.1018ZM21.5479 11.0479L20.8031 9.19172L22.2496 12.9207L21.5479 11.0479ZM22.3455 10.749L24.2273 10.0715L24.2234 10.0608L22.3455 10.749ZM25.9463 13.4006L27.9462 13.3875L23.9463 13.4006H25.9463ZM25.952 14.2673V16.2674L25.9655 16.2673L25.952 14.2673ZM27.1503 14.6429L27.1356 12.6429L27.1503 16.6429V14.6429ZM28 14.6366H30V14.6295L29.9999 14.6224L28 14.6366ZM25.9453 21.0009H23.9453L27.9452 21.0158L25.9453 21.0009ZM25.9517 20.1342L25.9681 18.1343L25.9599 18.1342H25.9517V20.1342ZM26.1897 20.0313L24.7546 18.6383L24.7546 18.6383L26.1897 20.0313ZM27.1503 19.7587V17.7587L27.1356 21.7586L27.1503 19.7587ZM28 19.7649L29.9999 19.7792L30 19.772V19.7649H28ZM4.05478 21.0009L2.05484 21.0158L6.05478 21.0009H4.05478ZM4.04832 20.1342V18.1342H4.04016L4.03199 18.1343L4.04832 20.1342ZM2.84969 19.7587L2.86438 21.7586L2.84969 17.7587V19.7587ZM2 19.7587L0 19.7586V19.7657L5.00679e-05 19.7728L2 19.7587ZM7.14545 11.3467L9.02717 12.0242L9.69611 10.1665L7.84712 9.47379L7.14545 11.3467ZM7.13857 11.3651L6.39376 13.2213L8.27516 13.9762L9.00461 12.0848L7.13857 11.3651ZM8.48388 8.98411L7.06414 7.57545L7.06414 7.57545L8.48388 8.98411ZM7.28949 7.75111L8.70924 9.15977L8.70925 9.15976L7.28949 7.75111ZM4.05478 12.5339V10.5339H2.05478V12.5339H4.05478ZM4.06124 12.534L6.06118 12.5489L6.07608 10.5495L4.07675 10.534L4.06124 12.534ZM2.60234 13.151L1.16684 11.7584L1.16676 11.7585L2.60234 13.151ZM3.69935 14.6491L3.68466 16.6491L5.68538 16.6638L5.6993 14.663L3.69935 14.6491ZM3.69937 14.6429H5.69937V12.6429H3.69937V14.6429ZM20.7504 11.3467L20.0487 9.47379L18.1997 10.1665L18.8686 12.0242L20.7504 11.3467ZM20.6063 7.75111L19.1865 9.15972L19.1866 9.15983L20.6063 7.75111ZM19.4119 8.98411L17.992 10.3927L17.9922 10.3928L19.4119 8.98411ZM20.7572 11.3651L18.8911 12.0847L19.6205 13.9762L21.502 13.2213L20.7572 11.3651ZM25.9463 12.5339H27.9463V10.5339H25.9463V12.5339ZM26.3007 14.6491L24.3007 14.6637L24.3153 16.6638L26.3153 16.6491L26.3007 14.6491ZM25.9406 12.534L25.927 10.534L23.9276 10.5476L23.9407 12.547L25.9406 12.534ZM26.3007 14.6429V12.6429H24.3007V14.6429H26.3007ZM25.9453 21.8676V23.8676H27.9453V21.8676H25.9453ZM25.9387 21.8676L23.9388 21.8526L23.9237 23.852L25.9231 23.8675L25.9387 21.8676ZM27.3976 21.2505L28.8332 22.6431L28.8332 22.6431L27.3976 21.2505ZM26.3007 19.7524L26.3153 17.7525L24.3152 17.7378L24.3007 19.7379L26.3007 19.7524ZM26.3007 19.7587H24.3007V21.7587H26.3007V19.7587ZM4.05478 21.8676H2.05478V23.8676H4.05478V21.8676ZM3.81027 20.0313L5.24581 18.6387L5.24539 18.6383L3.81027 20.0313ZM2.60234 21.2505L1.16676 22.643L1.16684 22.6431L2.60234 21.2505ZM4.06124 21.8676L4.0768 23.8675L6.07608 23.852L6.06118 21.8527L4.06124 21.8676ZM3.69935 19.7524L5.6993 19.7385L5.68538 17.7378L3.68466 17.7525L3.69935 19.7524ZM3.69937 19.7587V21.7587H5.69937V19.7587H3.69937ZM4.70309 13.1018L2.82139 12.4242C2.29824 13.8769 3.01449 15.5282 4.50608 16.087L5.20772 14.2142L5.90936 12.3413C6.51998 12.57 6.78437 13.2253 6.5848 13.7794L4.70309 13.1018ZM5.20772 14.2142L4.50609 16.087C6.01728 16.6532 7.65038 15.8477 8.17996 14.3771L6.29824 13.6995L4.41653 13.0219C4.62253 12.4498 5.27915 12.1052 5.90934 12.3413L5.20772 14.2142ZM6.34788 11.0479L7.09268 9.19171L6.30199 8.87443L5.55718 10.7306L4.81238 12.5867L5.60307 12.904L6.34788 11.0479ZM5.55718 10.7306L3.69057 10.0124C3.68348 10.0308 3.67589 10.0511 3.66803 10.073L5.55031 10.749L7.43258 11.4251C7.42917 11.4346 7.42617 11.4426 7.42379 11.4487L5.55718 10.7306ZM5.55031 10.749L4.84863 12.6219L5.6462 12.9207L6.34788 11.0479L7.04955 9.17498L6.25198 8.87617L5.55031 10.749ZM12.8439 8.20164V10.2016C14.4549 10.2016 15.6936 8.88065 15.6936 7.33495H13.6936H11.6936C11.6936 6.74656 12.1714 6.20164 12.8439 6.20164V8.20164ZM5.50067 14.2673V16.2673C7.11172 16.2673 8.35035 14.9462 8.35035 13.4006H6.35035H4.35035C4.35035 12.8123 4.82814 12.2673 5.50067 12.2673V14.2673ZM6.35035 13.4006H8.35035C8.35035 11.855 7.11171 10.5339 5.50067 10.5339V12.5339V14.5339C4.82816 14.5339 4.35035 13.989 4.35035 13.4006H6.35035ZM4.05478 13.4006L2.05484 13.3857L2.04838 14.2524L4.04832 14.2673L6.04827 14.2822L6.05473 13.4155L4.05478 13.4006ZM4.04832 14.2673V16.2673H4.05478V14.2673V12.2673H4.04832V14.2673ZM4.05478 14.2673H6.05478V13.4006H4.05478H2.05478V14.2673H4.05478ZM2.84969 14.6429L2.86438 12.6429L2.01471 12.6367L2.00002 14.6366L1.98533 16.6366L2.835 16.6428L2.84969 14.6429ZM2.00002 14.6366H2.26498e-05V14.6429H2.00002H4.00002V14.6366H2.00002ZM2.00002 14.6429V16.6429H2.84969V14.6429V12.6429H2.00002V14.6429ZM2.84969 17.4463V19.4463C4.46074 19.4463 5.69937 18.1253 5.69937 16.5796H3.69937H1.69937C1.69937 15.9913 2.17717 15.4463 2.84969 15.4463V17.4463ZM5.50067 12.5339V10.5339C3.88961 10.5339 2.651 11.855 2.651 13.4006H4.651H6.651C6.651 13.9889 6.1732 14.5339 5.50067 14.5339V12.5339ZM4.651 13.4006H2.651C2.651 14.9462 3.8896 16.2673 5.50067 16.2673V14.2673V12.2673C6.17322 12.2673 6.651 12.8123 6.651 13.4006H4.651ZM13.6936 13.4006H15.6936C15.6936 11.8549 14.4549 10.5339 12.8439 10.5339V12.5339V14.5339C12.1714 14.5339 11.6936 13.989 11.6936 13.4006H13.6936ZM21.5976 13.6995L19.7158 14.377C20.2454 15.8478 21.8786 16.6532 23.3897 16.087L22.6881 14.2142L21.9864 12.3413C22.6166 12.1052 23.2733 12.4497 23.4793 13.0219L21.5976 13.6995ZM22.6881 14.2142L23.3897 16.087C24.8814 15.5282 25.5974 13.8768 25.0744 12.4242L23.1927 13.1018L21.311 13.7794C21.1115 13.2254 21.3757 12.5701 21.9864 12.3413L22.6881 14.2142ZM21.5479 11.0479L22.2496 12.9207L23.0472 12.6219L22.3455 10.749L21.6438 8.87617L20.8462 9.17498L21.5479 11.0479ZM22.3455 10.749L24.2234 10.0608C24.2214 10.0555 24.2131 10.0327 24.2029 10.0064L22.3386 10.7306L20.4743 11.4547C20.4712 11.4468 20.469 11.4408 20.4679 11.4381C20.4671 11.4357 20.4666 11.4344 20.4676 11.4373L22.3455 10.749ZM22.3386 10.7306L21.5937 8.87444L20.8031 9.19172L21.5479 11.0479L22.2928 12.904L23.0834 12.5867L22.3386 10.7306ZM11.9942 7.33495H9.9942C9.9942 8.88058 11.2328 10.2016 12.8439 10.2016V8.20164V6.20164C13.5164 6.20164 13.9942 6.74663 13.9942 7.33495H11.9942ZM22.3951 14.2673V16.2673C24.0061 16.2673 25.2448 14.9463 25.2448 13.4006H23.2448H21.2448C21.2448 12.8123 21.7226 12.2673 22.3951 12.2673V14.2673ZM23.2448 13.4006H25.2448C25.2448 11.855 24.0061 10.5339 22.3951 10.5339V12.5339V14.5339C21.7226 14.5339 21.2448 13.989 21.2448 13.4006H23.2448ZM12.8439 12.5339V10.5339C11.2328 10.5339 9.9942 11.855 9.9942 13.4006H11.9942H13.9942C13.9942 13.9889 13.5164 14.5339 12.8439 14.5339V12.5339ZM22.3951 12.5339V10.5339C20.7841 10.5339 19.5454 11.855 19.5454 13.4006H21.5454H23.5454C23.5454 13.989 23.0676 14.5339 22.3951 14.5339V12.5339ZM21.5454 13.4006H19.5454C19.5454 14.9463 20.7841 16.2673 22.3951 16.2673V14.2673V12.2673C23.0676 12.2673 23.5454 12.8123 23.5454 13.4006H21.5454ZM25.9463 13.4006H23.9463V14.2673H25.9463H27.9463V13.4006H25.9463ZM25.9463 14.2673V16.2673H25.952V14.2673V12.2673H25.9463V14.2673ZM25.952 14.2673L27.9519 14.2542L27.9462 13.3875L25.9463 13.4006L23.9463 13.4137L23.952 14.2804L25.952 14.2673ZM27.1503 14.6429V16.6429H28V14.6429V12.6429H27.1503V14.6429ZM28 14.6429H30V14.6366H28H26V14.6429H28ZM28 14.6366L27.9853 12.6367L27.1356 12.6429L27.1503 14.6429L27.165 16.6428L28.0147 16.6366L28 14.6366ZM26.3007 16.5796H24.3007C24.3007 18.1253 25.5393 19.4463 27.1503 19.4463V17.4463V15.4463C27.8229 15.4463 28.3007 15.9913 28.3007 16.5796H26.3007ZM18.6351 21.8676V23.8676C20.2462 23.8676 21.4848 22.5466 21.4848 21.0009H19.4848H17.4848C17.4848 20.4126 17.9626 19.8676 18.6351 19.8676V21.8676ZM19.4848 21.0009H21.4848C21.4848 19.4553 20.2462 18.1342 18.6351 18.1342V20.1342V22.1342C17.9626 22.1342 17.4848 21.5893 17.4848 21.0009H19.4848ZM11.6178 20.1342V18.1342C10.0067 18.1342 8.76813 19.4553 8.76813 21.0009H10.7681H12.7681C12.7681 21.5892 12.2903 22.1342 11.6178 22.1342V20.1342ZM10.7681 21.0009H8.76813C8.76813 22.5465 10.0067 23.8676 11.6178 23.8676V21.8676V19.8676C12.2903 19.8676 12.7681 20.4126 12.7681 21.0009H10.7681ZM23.4555 20.1342V18.1342C21.8445 18.1342 20.6058 19.4553 20.6058 21.0009H22.6058H24.6058C24.6058 21.5893 24.128 22.1342 23.4555 22.1342V20.1342ZM22.6058 21.0009H20.6058C20.6058 22.5466 21.8445 23.8676 23.4555 23.8676V21.8676V19.8676C24.128 19.8676 24.6058 20.4126 24.6058 21.0009H22.6058ZM25.9453 21.0009L27.9452 21.0158L27.9517 20.1491L25.9517 20.1342L23.9518 20.1193L23.9453 20.986L25.9453 21.0009ZM25.9517 20.1342V18.1342H25.9453V20.1342V22.1342H25.9517V20.1342ZM25.9453 20.1342H23.9453V21.0009H25.9453H27.9453V20.1342H25.9453ZM27.1503 19.7587L27.1356 21.7586L27.9853 21.7648L28 19.7649L28.0147 17.765L27.165 17.7587L27.1503 19.7587ZM28 19.7649H30V19.7587H28H26V19.7649H28ZM28 19.7587V17.7587H27.1503V19.7587V21.7587H28V19.7587ZM27.1503 15.713V13.713C25.5393 13.713 24.3007 15.034 24.3007 16.5796H26.3007H28.3007C28.3007 17.168 27.8229 17.713 27.1503 17.713V15.713ZM6.79744 21.8676V23.8676C8.40849 23.8676 9.64711 22.5465 9.64711 21.0009H7.64711H5.64711C5.64711 20.4126 6.12491 19.8676 6.79744 19.8676V21.8676ZM7.64711 21.0009H9.64711C9.64711 19.4553 8.40849 18.1342 6.79744 18.1342V20.1342V22.1342C6.12491 22.1342 5.64711 21.5892 5.64711 21.0009H7.64711ZM4.05478 21.0009H6.05478V20.1342H4.05478H2.05478V21.0009H4.05478ZM4.05478 20.1342V18.1342H4.04832V20.1342V22.1342H4.05478V20.1342ZM4.04832 20.1342L2.04838 20.1491L2.05484 21.0158L4.05478 21.0009L6.05473 20.986L6.04827 20.1193L4.04832 20.1342ZM2.84969 19.7587V17.7587H2V19.7587V21.7587H2.84969V19.7587ZM2 19.7587L5.00679e-05 19.7728L9.42945e-05 19.7791L2.00004 19.7649L3.99999 19.7507L3.99995 19.7445L2 19.7587ZM2.00004 19.7649L2.01473 21.7648L2.86438 21.7586L2.84969 19.7587L2.83501 17.7587L1.98536 17.765L2.00004 19.7649ZM3.69937 16.5796H5.69937C5.69937 15.034 4.46074 13.713 2.84969 13.713V15.713V17.713C2.17717 17.713 1.69937 17.168 1.69937 16.5796H3.69937ZM5.05111 17.4463V19.4463C6.66216 19.4463 7.90078 18.1253 7.90078 16.5796H5.90078H3.90078C3.90078 15.9913 4.37857 15.4463 5.05111 15.4463V17.4463ZM5.90078 16.5796H7.90078C7.90078 15.034 6.66216 13.713 5.05111 13.713V15.713V17.713C4.37857 17.713 3.90078 17.168 3.90078 16.5796H5.90078ZM24.8561 15.713V13.713C23.2451 13.713 22.0064 15.034 22.0064 16.5796H24.0064H26.0064C26.0064 17.168 25.5286 17.713 24.8561 17.713V15.713ZM24.0064 16.5796H22.0064C22.0064 18.1253 23.2451 19.4463 24.8561 19.4463V17.4463V15.4463C25.5286 15.4463 26.0064 15.9913 26.0064 16.5796H24.0064ZM6.29824 13.6995L8.17997 14.377L9.02717 12.0242L7.14545 11.3467L5.26372 10.6691L4.41652 13.0219L6.29824 13.6995ZM7.14545 11.3467L7.84712 9.47379L6.25198 8.87617L5.55031 10.749L4.84863 12.6219L6.44377 13.2195L7.14545 11.3467ZM5.55031 10.749L3.66859 10.0714L2.82137 12.4242L4.70309 13.1018L6.58481 13.7794L7.43203 11.4266L5.55031 10.749ZM7.13857 11.3651L9.00461 12.0848C9.39565 11.0708 9.68979 10.6083 9.90362 10.3928L8.48388 8.98411L7.06414 7.57545C6.2426 8.40345 5.70816 9.5159 5.27253 10.6455L7.13857 11.3651ZM8.48388 8.98411L9.90362 10.3928C9.98258 10.3132 10.0365 10.2822 10.0846 10.2626C10.1372 10.2411 10.2619 10.2016 10.5165 10.2016V8.20164V6.20164C9.06532 6.20164 7.93555 6.69718 7.06414 7.57545L8.48388 8.98411ZM10.5165 6.46826V4.46826C8.64183 4.46826 7.07568 5.12701 5.86974 6.34246L7.28949 7.75111L8.70925 9.15976C9.13431 8.73135 9.66499 8.46826 10.5165 8.46826V6.46826ZM7.28949 7.75111L5.86975 6.34245C4.7873 7.43342 4.14808 8.82611 3.69115 10.0109L5.55718 10.7306L7.42322 11.4502C7.83403 10.385 8.23296 9.6398 8.70924 9.15977L7.28949 7.75111ZM5.55718 10.7306L4.81238 12.5867L6.39376 13.2213L7.13857 11.3651L7.88338 9.50899L6.30199 8.87443L5.55718 10.7306ZM10.5165 8.20164V10.2016H12.8439V8.20164V6.20164H10.5165V8.20164ZM12.8439 6.46826V4.46826H10.5165V6.46826V8.46826H12.8439V6.46826ZM5.50067 12.5339V10.5339H4.05478V12.5339V14.5339H5.50067V12.5339ZM4.05478 12.5339H2.05478V14.2673H4.05478H6.05478V12.5339H4.05478ZM4.05478 14.2673V16.2673H5.50067V14.2673V12.2673H4.05478V14.2673ZM4.06124 12.534L4.07675 10.534C2.96652 10.5254 1.92207 10.9799 1.16684 11.7584L2.60234 13.151L4.03784 14.5436C4.04533 14.5359 4.05053 14.5335 4.05131 14.5332C4.05175 14.533 4.05133 14.5332 4.05006 14.5335C4.04873 14.5338 4.04717 14.5339 4.04572 14.5339L4.06124 12.534ZM3.81027 14.3703L5.24581 15.7628C4.94205 16.076 4.50752 16.2711 4.03199 16.2672L4.04832 14.2673L4.06466 12.2674C3.41938 12.2621 2.81279 12.5261 2.37472 12.9777L3.81027 14.3703ZM4.04832 14.2673L6.04827 14.2822L6.06118 12.5489L4.06124 12.534L2.0613 12.5191L2.04838 14.2524L4.04832 14.2673ZM2.60234 13.151L1.16676 11.7585C0.41506 12.5334 0.00750625 13.5658 7.21216e-05 14.6226L2.00002 14.6366L3.99997 14.6507C4.00034 14.5979 4.02134 14.5606 4.03792 14.5435L2.60234 13.151ZM2.00002 14.6366L1.98533 16.6366L3.68466 16.6491L3.69935 14.6491L3.71404 12.6492L2.01471 12.6367L2.00002 14.6366ZM3.69935 14.6491L5.6993 14.663C5.69656 15.057 5.54489 15.4547 5.24539 15.7633L3.81027 14.3703L2.37515 12.9773C1.93993 13.4257 1.70366 14.0231 1.6994 14.6352L3.69935 14.6491ZM2.00002 14.6429H2.26498e-05V16.5796H2.00002H4.00002V14.6429H2.00002ZM3.69937 16.5796H5.69937V14.6429H3.69937H1.69937V16.5796H3.69937ZM3.69937 14.6429V12.6429H2.00002V14.6429V16.6429H3.69937V14.6429ZM5.50067 14.2673V16.2673H12.8439V14.2673V12.2673H5.50067V14.2673ZM12.8439 12.5339V10.5339H5.50067V12.5339V14.5339H12.8439V12.5339ZM23.1927 13.1018L25.0744 12.4242L24.2272 10.0715L22.3455 10.749L20.4638 11.4266L21.3109 13.7794L23.1927 13.1018ZM22.3455 10.749L21.6438 8.87617L20.0487 9.47379L20.7504 11.3467L21.4521 13.2195L23.0472 12.6219L22.3455 10.749ZM20.7504 11.3467L18.8686 12.0242L19.7158 14.377L21.5976 13.6995L23.4793 13.0219L22.6321 10.6691L20.7504 11.3467ZM22.3386 10.7306L24.2046 10.0109C23.7477 8.82622 23.1086 7.43342 22.026 6.34239L20.6063 7.75111L19.1866 9.15983C19.6628 9.6398 20.0617 10.3849 20.4726 11.4503L22.3386 10.7306ZM20.6063 7.75111L22.0261 6.3425C20.8201 5.12698 19.2539 4.46826 17.3792 4.46826V6.46826V8.46826C18.2308 8.46826 18.7615 8.73138 19.1865 9.15972L20.6063 7.75111ZM17.3792 8.20164V10.2016C17.6339 10.2016 17.7585 10.2411 17.8112 10.2626C17.8593 10.2822 17.9131 10.3132 17.992 10.3927L19.4119 8.98411L20.8317 7.57553C19.9603 6.69715 18.8304 6.20164 17.3792 6.20164V8.20164ZM19.4119 8.98411L17.9922 10.3928C18.206 10.6083 18.5001 11.0708 18.8911 12.0847L20.7572 11.3651L22.6232 10.6456C22.1876 9.51591 21.6532 8.40342 20.8315 7.57539L19.4119 8.98411ZM20.7572 11.3651L21.502 13.2213L23.0834 12.5867L22.3386 10.7306L21.5938 8.87443L20.0124 9.50898L20.7572 11.3651ZM17.3792 6.46826V4.46826H12.8439V6.46826V8.46826H17.3792V6.46826ZM12.8439 8.20164V10.2016H17.3792V8.20164V6.20164H12.8439V8.20164ZM22.3951 12.5339V10.5339H12.8439V12.5339V14.5339H22.3951V12.5339ZM12.8439 14.2673V16.2673H22.3951V14.2673V12.2673H12.8439V14.2673ZM22.3951 14.2673V16.2673H25.9463V14.2673V12.2673H22.3951V14.2673ZM25.9463 14.2673H27.9463V12.5339H25.9463H23.9463V14.2673H25.9463ZM25.9463 12.5339V10.5339H22.3951V12.5339V14.5339H25.9463V12.5339ZM25.952 14.2673L25.9655 16.2673C24.9811 16.2739 24.3067 15.4828 24.3007 14.6637L26.3007 14.6491L28.3006 14.6345C28.2912 13.3493 27.2649 12.2584 25.9384 12.2674L25.952 14.2673ZM26.3007 14.6491L26.3153 16.6491L28.0147 16.6366L28 14.6366L27.9853 12.6367L26.286 12.6492L26.3007 14.6491ZM28 14.6366L29.9999 14.6224C29.9846 12.4619 28.2709 10.5181 25.927 10.534L25.9406 12.534L25.9542 14.5339C25.9574 14.5339 25.9535 14.5339 25.9491 14.532C25.9466 14.5309 25.9512 14.5323 25.96 14.5414C25.9795 14.5616 25.9997 14.5992 26 14.6508L28 14.6366ZM25.9406 12.534L23.9407 12.547L23.952 14.2804L25.952 14.2673L27.9519 14.2542L27.9406 12.5209L25.9406 12.534ZM26.3007 14.6429H24.3007V16.5796H26.3007H28.3007V14.6429H26.3007ZM28 16.5796H30V14.6429H28H26V16.5796H28ZM28 14.6429V12.6429H26.3007V14.6429V16.6429H28V14.6429ZM18.6351 20.1342V18.1342H11.6178V20.1342V22.1342H18.6351V20.1342ZM11.6178 21.8676V23.8676H18.6351V21.8676V19.8676H11.6178V21.8676ZM23.4555 21.8676V23.8676H25.9453V21.8676V19.8676H23.4555V21.8676ZM25.9453 21.8676H27.9453V20.1342H25.9453H23.9453V21.8676H25.9453ZM25.9453 20.1342V18.1342H23.4555V20.1342V22.1342H25.9453V20.1342ZM25.9387 21.8676L25.9231 23.8675C27.0335 23.8762 28.078 23.4216 28.8332 22.6431L27.3976 21.2505L25.9621 19.8579C25.9546 19.8657 25.9494 19.868 25.9486 19.8684C25.9482 19.8686 25.9486 19.8683 25.9499 19.8681C25.9512 19.8678 25.9528 19.8677 25.9543 19.8677L25.9387 21.8676ZM26.1897 20.0313L24.7546 18.6383C25.0578 18.3259 25.4921 18.1304 25.9681 18.1343L25.9517 20.1342L25.9354 22.1342C26.5811 22.1394 27.1873 21.8751 27.6249 21.4242L26.1897 20.0313ZM25.9517 20.1342L23.9518 20.1192L23.9388 21.8526L25.9387 21.8676L27.9386 21.8826L27.9517 20.1493L25.9517 20.1342ZM27.3976 21.2505L28.8332 22.6431C29.585 21.868 29.9924 20.8357 29.9999 19.7792L28 19.7649L26 19.7506C25.9997 19.8037 25.9786 19.841 25.9621 19.858L27.3976 21.2505ZM28 19.7649L28.0147 17.765L26.3153 17.7525L26.3007 19.7524L26.286 21.7524L27.9853 21.7648L28 19.7649ZM26.3007 19.7524L24.3007 19.7379C24.3036 19.345 24.4547 18.9473 24.7546 18.6383L26.1897 20.0313L27.6249 21.4243C28.0605 20.9754 28.2962 20.378 28.3006 19.767L26.3007 19.7524ZM28 19.7587H30V16.5796H28H26V19.7587H28ZM26.3007 16.5796H24.3007V19.7587H26.3007H28.3007V16.5796H26.3007ZM26.3007 19.7587V21.7587H28V19.7587V17.7587H26.3007V19.7587ZM6.79744 20.1342V18.1342H4.05478V20.1342V22.1342H6.79744V20.1342ZM4.05478 20.1342H2.05478V21.8676H4.05478H6.05478V20.1342H4.05478ZM4.05478 21.8676V23.8676H6.79744V21.8676V19.8676H4.05478V21.8676ZM4.04832 20.1342L4.03199 18.1343C4.5075 18.1304 4.94203 18.3255 5.24581 18.6387L3.81027 20.0313L2.37472 21.4238C2.8128 21.8754 3.41939 22.1394 4.06466 22.1342L4.04832 20.1342ZM2.60234 21.2505L1.16684 22.6431C1.92201 23.4216 2.96644 23.8762 4.0768 23.8675L4.06124 21.8676L4.04568 19.8677C4.04715 19.8677 4.04874 19.8678 4.05009 19.8681C4.05137 19.8683 4.05179 19.8686 4.05135 19.8684C4.05058 19.8681 4.04536 19.8657 4.03784 19.8579L2.60234 21.2505ZM4.06124 21.8676L6.06118 21.8527L6.04827 20.1193L4.04832 20.1342L2.04838 20.1491L2.0613 21.8825L4.06124 21.8676ZM3.81027 20.0313L5.24539 18.6383C5.54489 18.9468 5.69656 19.3446 5.6993 19.7385L3.69935 19.7524L1.6994 19.7663C1.70366 20.3784 1.93992 20.9759 2.37515 21.4243L3.81027 20.0313ZM3.69935 19.7524L3.68466 17.7525L1.98536 17.765L2.00004 19.7649L2.01473 21.7648L3.71404 21.7524L3.69935 19.7524ZM2.00004 19.7649L9.36985e-05 19.779C0.00752735 20.8357 0.415024 21.8681 1.16676 22.643L2.60234 21.2505L4.03792 19.858C4.02138 19.8409 4.00037 19.8037 3.99999 19.7508L2.00004 19.7649ZM3.69937 19.7587H5.69937V16.5796H3.69937H1.69937V19.7587H3.69937ZM2.00002 16.5796L2.26498e-05 16.5796L0 19.7586L2 19.7587L4 19.7587L4.00002 16.5797L2.00002 16.5796ZM2 19.7587V21.7587H3.69937V19.7587V17.7587H2V19.7587ZM11.9942 7.33495H9.9942V13.4006H11.9942H13.9942V7.33495H11.9942ZM13.6936 13.4006H15.6936V7.33495H13.6936H11.6936V13.4006H13.6936ZM2.84969 17.4463V19.4463H5.05111V17.4463V15.4463H2.84969V17.4463ZM5.05111 15.713V13.713H2.84969V15.713V17.713H5.05111V15.713ZM27.1503 15.713V13.713H24.8561V15.713V17.713H27.1503V15.713ZM24.8561 17.4463V19.4463H27.1503V17.4463V15.4463H24.8561V17.4463Z" fill="#0039CA" mask="url(#path-3-inside-1_16297_6615)"/>
<path d="M18.2356 7.52734H11.9133H9.37484L8.22539 8.1979L6.64496 10.2573L5.54336 13.562H3.58016L2.76562 14.4719V19.7881L3.58016 21.0812H6.64496L7.69878 22.5659L8.84836 23.3322L10.8119 22.5659L12.2487 20.7939L18.2356 21.0812L18.5706 21.6081L20.8695 23.3322L22.3542 22.5659L23.9826 21.0812H25.6109L26.952 20.1713V14.4719L25.8983 13.562L22.3542 13.0351L21.4442 11.7899L20.3427 8.9163L18.2356 7.52734Z" fill="#0039CA" fill-opacity="0.1"/>
</svg>
