<svg width="30" height="30" viewBox="0 0 30 30" fill="none" xmlns="http://www.w3.org/2000/svg">
<path d="M23.3413 23.5833L21.802 9.66406H19.2424V11.1229H19.5024C19.8867 11.1229 20.1982 11.4344 20.1982 11.8186C20.1982 12.2028 19.8867 12.5143 19.5024 12.5143H17.5909C17.2067 12.5143 16.8952 12.2028 16.8952 11.8186C16.8952 11.4344 17.2067 11.1229 17.5909 11.1229H17.851V9.66406H12.1484V11.1229H12.4084C12.7927 11.1229 13.1042 11.4344 13.1042 11.8186C13.1042 12.2028 12.7927 12.5143 12.4084 12.5143H10.4969C10.1127 12.5143 9.80121 12.2028 9.80121 11.8186C9.80121 11.4344 10.1127 11.1229 10.4969 11.1229H10.757V9.66406H8.19742L6.6593 23.5838C6.61524 23.9819 6.73564 24.3626 6.99843 24.6561C7.26118 24.9495 7.62633 25.1111 8.0266 25.1111H21.9741C22.3735 25.1111 22.7381 24.9497 23.0008 24.6566C23.264 24.3629 23.385 23.9817 23.3413 23.5833Z" fill="#0039CA" fill-opacity="0.1"/>
<path d="M24.7248 23.4308L23.1169 8.89171C23.0779 8.53922 22.78 8.27248 22.4254 8.27248H19.2428V7.74027C19.2428 5.40083 17.3395 3.49756 15.0001 3.49756C12.6607 3.49756 10.7574 5.40083 10.7574 7.74027V8.27248H7.57476C7.22009 8.27248 6.92223 8.53926 6.88327 8.8918L5.27674 23.4307C5.18978 24.2155 5.43968 25.0004 5.9622 25.584C6.48473 26.1676 7.23734 26.5023 8.02702 26.5023H21.9745C22.763 26.5023 23.5149 26.168 24.0374 25.5851C24.5604 25.0015 24.811 24.2165 24.7248 23.4308ZM12.1488 7.74027C12.1488 6.16806 13.4279 4.88898 15.0001 4.88898C16.5723 4.88898 17.8514 6.16806 17.8514 7.74027V8.27248H12.1488V7.74027ZM23.0012 24.6564C22.7385 24.9494 22.3739 25.1109 21.9745 25.1109H8.02702C7.62671 25.1109 7.2616 24.9493 6.99885 24.6559C6.73611 24.3624 6.61566 23.9817 6.65972 23.5836L8.19784 9.66385H10.7574V11.1227H10.4973C10.1131 11.1227 9.80163 11.4342 9.80163 11.8184C9.80163 12.2026 10.1131 12.5141 10.4973 12.5141H12.4089C12.7931 12.5141 13.1046 12.2026 13.1046 11.8184C13.1046 11.4342 12.7931 11.1227 12.4089 11.1227H12.1488V9.66385H17.8514V11.1227H17.5913C17.2071 11.1227 16.8956 11.4342 16.8956 11.8184C16.8956 12.2026 17.2071 12.5141 17.5913 12.5141H19.5029C19.8871 12.5141 20.1986 12.2026 20.1986 11.8184C20.1986 11.4342 19.8871 11.1227 19.5029 11.1227H19.2428V9.66385H21.8024L23.3417 23.5831C23.3854 23.9814 23.2645 24.3626 23.0012 24.6564ZM17.5835 16.4613L13.5395 21.9856C13.4032 22.1717 13.1918 22.2704 12.9775 22.2704C12.8349 22.2704 12.691 22.2267 12.5672 22.136C12.2571 21.9091 12.1898 21.4738 12.4168 21.1637L16.4607 15.6394C16.6877 15.3294 17.1229 15.262 17.433 15.489C17.7431 15.716 17.8104 16.1513 17.5835 16.4613V16.4613ZM17.3258 18.431C16.4195 18.431 15.6822 19.1683 15.6822 20.0746V20.6267C15.6822 21.533 16.4195 22.2703 17.3258 22.2703C18.232 22.2703 18.9681 21.533 18.9681 20.6267V20.0746C18.9681 19.1683 18.2313 18.431 17.3258 18.431ZM17.5766 20.6267C17.5766 20.7634 17.4618 20.8789 17.3258 20.8789C17.1891 20.8789 17.0736 20.7634 17.0736 20.6267V20.0746C17.0736 19.9379 17.1891 19.8224 17.3258 19.8224C17.4618 19.8224 17.5766 19.9379 17.5766 20.0746V20.6267ZM14.318 17.5504V16.9982C14.318 16.0919 13.5813 15.3546 12.6757 15.3546C11.7702 15.3546 11.0321 16.0919 11.0321 16.9982V17.5504C11.0321 18.4566 11.7694 19.1939 12.6757 19.1939C13.5821 19.1939 14.318 18.4566 14.318 17.5504ZM12.4236 17.5504V16.9982C12.4236 16.8615 12.5391 16.746 12.6758 16.746C12.8118 16.746 12.9267 16.8615 12.9267 16.9982V17.5504C12.9267 17.687 12.8118 17.8025 12.6758 17.8025C12.5391 17.8025 12.4236 17.687 12.4236 17.5504Z" fill="#0039CA" stroke="#0039CA" stroke-width="0.5"/>
</svg>
