<svg width="30" height="30" viewBox="0 0 30 30" fill="none" xmlns="http://www.w3.org/2000/svg">
<path d="M27.9561 17.0926L27.9527 17.0766L27.949 17.0602L26.6489 11.5319L26.6437 11.5114L26.6385 11.4909C25.8211 8.43952 23.0439 6.30859 19.8845 6.30859H11.1131C7.95376 6.30859 5.17652 8.43952 4.3591 11.4909L4.3535 11.5114L4.34865 11.5319L3.04863 17.0602L3.0449 17.0761L3.04157 17.0921C2.56343 19.3693 3.87169 21.6285 6.08409 22.3481L6.16187 22.3731C6.61504 22.5208 7.08832 22.5959 7.56572 22.5959C9.1679 22.5959 10.6618 21.7424 11.4774 20.365L12.5836 18.7297L12.6112 18.6887L12.6361 18.646C12.6752 18.5779 12.7477 18.5355 12.8255 18.5355H18.1723C18.2501 18.5355 18.3227 18.5779 18.3617 18.646L18.3866 18.6887L18.4142 18.7297L19.5204 20.365C20.336 21.7424 21.8299 22.5959 23.4325 22.5959C23.9099 22.5959 24.3831 22.5208 24.8386 22.3723L24.9138 22.3481C27.1257 21.629 28.4335 19.3693 27.9561 17.0926ZM24.4894 21.0437L24.4139 21.0683C24.0898 21.1739 23.759 21.2245 23.4323 21.2245C22.3217 21.2245 21.2605 20.6385 20.6815 19.6339L19.5504 17.9614C19.2665 17.4684 18.7407 17.164 18.1722 17.164H12.8253C12.2568 17.164 11.7311 17.4684 11.4471 17.9614L10.316 19.6339C9.73711 20.6385 8.67628 21.2245 7.56557 21.2245C7.23889 21.2245 6.90813 21.1739 6.58404 21.0683L6.50812 21.0437C4.96661 20.5425 4.0509 18.96 4.38396 17.3742L5.68403 11.8459C6.34221 9.38863 8.56912 7.68002 11.1131 7.68002H19.8845C22.4284 7.68002 24.6553 9.38863 25.3135 11.8459L26.6136 17.3742C26.9463 18.96 26.031 20.5425 24.4894 21.0437Z" fill="#0039CA" stroke="#0039CA" stroke-width="0.8"/>
<path d="M10.6653 10.3354H9.0203V12.2245H7.13086V13.8688H9.0203V15.7586H10.6653V13.8688H12.5547V12.2245H10.6653V10.3354Z" fill="#0039CA" stroke="#0039CA" stroke-width="0.8"/>
<path d="M20.8804 12.0122C21.4527 12.0122 21.9159 11.5489 21.9159 10.9774C21.9159 10.4051 21.4527 9.94189 20.8804 9.94189C20.3089 9.94189 19.8457 10.4051 19.8457 10.9774C19.8457 11.5489 20.3089 12.0122 20.8804 12.0122Z" fill="#0039CA" stroke="#0039CA" stroke-width="0.8"/>
<path d="M18.8105 12.0122C18.239 12.0122 17.7754 12.4758 17.7754 13.0469C17.7754 13.6192 18.239 14.0829 18.8105 14.0829C19.3824 14.0829 19.8457 13.6192 19.8457 13.0469C19.8457 12.4758 19.3824 12.0122 18.8105 12.0122Z" fill="#0039CA" stroke="#0039CA" stroke-width="0.8"/>
<path d="M20.8804 14.0825C20.3089 14.0825 19.8457 14.5457 19.8457 15.118C19.8457 15.6896 20.3089 16.1528 20.8804 16.1528C21.4527 16.1528 21.9159 15.6896 21.9159 15.118C21.9159 14.5457 21.4526 14.0825 20.8804 14.0825Z" fill="#0039CA" stroke="#0039CA" stroke-width="0.8"/>
<path d="M22.9508 12.0122C22.3793 12.0122 21.916 12.4758 21.916 13.0469C21.916 13.6192 22.3793 14.0829 22.9508 14.0829C23.5227 14.0829 23.9863 13.6192 23.9863 13.0469C23.9863 12.4758 23.5227 12.0122 22.9508 12.0122Z" fill="#0039CA" stroke="#0039CA" stroke-width="0.8"/>
<path d="M6.66777 8.89213L9.14873 7.46354L20.5023 6.97485L23.3594 7.91469L25.5398 11.674L27.1187 18.2905C26.843 19.0048 26.2616 20.4333 26.1413 20.4333C26.021 20.4333 24.7628 21.2604 24.1488 21.6739L21.6301 21.0348L19.788 19.3431L17.7955 17.9146H12.4197C11.9059 18.704 10.8558 20.313 10.7655 20.4333C10.6753 20.5536 9.4999 21.1852 8.92347 21.4859H6.40471L4.56263 19.907L4.11133 16.2604L5.50227 10.8846L6.66777 8.89213Z" fill="#0039CA" fill-opacity="0.1"/>
</svg>
