<svg width="19" height="25" viewBox="0 0 19 25" fill="none" xmlns="http://www.w3.org/2000/svg">
<path d="M9.27747 17.5567C6.4318 17.5567 4.10352 15.3091 4.10352 12.5607V5.99597C4.10352 3.24757 6.4318 1 9.27747 1C12.1231 1 14.4514 3.24757 14.4514 5.99597V12.5607C14.4514 15.3091 12.1231 17.5567 9.27747 17.5567Z" fill="#0039CA" fill-opacity="0.1" stroke="#0039CA" stroke-width="2" stroke-linecap="round" stroke-linejoin="round"/>
<path d="M8.50195 23.7655C8.50195 23.9713 8.58372 24.1687 8.72927 24.3143C8.87481 24.4598 9.07221 24.5416 9.27805 24.5416C9.48388 24.5416 9.68128 24.4598 9.82683 24.3143C9.97237 24.1687 10.0541 23.9713 10.0541 23.7655H8.50195ZM10.0541 20.6611V19.885H8.50195V20.6611H10.0541ZM10.0541 23.7655V20.6611H8.50195V23.7655H10.0541Z" fill="#0039CA"/>
<path d="M1 12.3826C1 14.5781 1.87218 16.6837 3.42467 18.2362C4.97716 19.7887 7.08278 20.6609 9.27833 20.6609C11.4739 20.6609 13.5795 19.7887 15.132 18.2362C16.6845 16.6837 17.5567 14.5781 17.5567 12.3826" stroke="#0039CA" stroke-width="2" stroke-linecap="round"/>
</svg>
