<svg width="26" height="23" viewBox="0 0 26 23" fill="none" xmlns="http://www.w3.org/2000/svg">
<path fill-rule="evenodd" clip-rule="evenodd" d="M9.15624 6.36863C10.2554 6.36863 11.1465 5.47758 11.1465 4.37841C11.1465 3.27923 10.2554 2.38818 9.15624 2.38818C8.05706 2.38818 7.16602 3.27923 7.16602 4.37841C7.16602 5.47758 8.05706 6.36863 9.15624 6.36863Z" fill="#0039CA" fill-opacity="0.1"/>
<path fill-rule="evenodd" clip-rule="evenodd" d="M20.3004 5.1746C20.3004 5.8341 19.7657 6.36874 19.1062 6.36874C18.4468 6.36874 17.9121 5.8341 17.9121 5.1746C17.9121 4.51511 18.4468 3.98047 19.1062 3.98047C19.7657 3.98047 20.3004 4.51511 20.3004 5.1746Z" fill="#0039CA" fill-opacity="0.1"/>
<path fill-rule="evenodd" clip-rule="evenodd" d="M23.087 15.9217V19.9022H15.9222V13.5334H20.6987C22.0177 13.5334 23.087 14.6028 23.087 15.9217ZM13.5339 13.5334V19.9022H2.38867V15.9217C2.38867 14.6028 3.45793 13.5334 4.77694 13.5334H13.5339Z" fill="#0039CA" fill-opacity="0.1"/>
<path fill-rule="evenodd" clip-rule="evenodd" d="M9.15583 8.75698C11.574 8.75698 13.5343 6.79666 13.5343 4.37849C13.5343 1.96032 11.574 0 9.15583 0C6.73767 0 4.77734 1.96032 4.77734 4.37849C4.77734 6.79666 6.73767 8.75698 9.15583 8.75698ZM9.15583 6.36871C10.255 6.36871 11.1461 5.47767 11.1461 4.37849C11.1461 3.27931 10.255 2.38827 9.15583 2.38827C8.05666 2.38827 7.16561 3.27931 7.16561 4.37849C7.16561 5.47767 8.05666 6.36871 9.15583 6.36871Z" fill="#0039CA"/>
<path fill-rule="evenodd" clip-rule="evenodd" d="M22.6882 5.17469C22.6882 7.15319 21.0843 8.75709 19.1058 8.75709C17.1274 8.75709 15.5234 7.15319 15.5234 5.17469C15.5234 3.19618 17.1274 1.59229 19.1058 1.59229C21.0843 1.59229 22.6882 3.19618 22.6882 5.17469ZM20.3 5.17469C20.3 5.83418 19.7653 6.36882 19.1058 6.36882C18.4464 6.36882 17.9117 5.83418 17.9117 5.17469C17.9117 4.51519 18.4464 3.98055 19.1058 3.98055C19.7653 3.98055 20.3 4.51519 20.3 5.17469Z" fill="#0039CA"/>
<path fill-rule="evenodd" clip-rule="evenodd" d="M20.6983 11.1453C23.3364 11.1453 25.4749 13.2838 25.4749 15.9218V22.2905H0V15.9218C0 13.2838 2.13853 11.1453 4.77654 11.1453H20.6983ZM23.0866 15.9218V19.9022H15.9218V13.5335H20.6983C22.0173 13.5335 23.0866 14.6028 23.0866 15.9218ZM13.5335 13.5335V19.9022H2.38827V15.9218C2.38827 14.6028 3.45753 13.5335 4.77654 13.5335H13.5335Z" fill="#0039CA"/>
</svg>
