<svg width="26" height="26" viewBox="0 0 26 26" fill="none" xmlns="http://www.w3.org/2000/svg">
<path d="M12.8378 0.00397744C11.1182 0.0884984 9.75 1.50947 9.75 3.25V7.5595L0 10.8249V15.6286L9.81988 13.9807L10.2806 19.9526L7.79353 21.8615C7.35766 22.196 7.1203 22.728 7.16256 23.2757L7.22192 24.045C7.2381 24.2547 7.29484 24.4592 7.38898 24.6473C7.79069 25.4499 8.76693 25.7748 9.56947 25.3731L12.995 23.6584L16.4318 25.3749C16.6195 25.4686 16.8236 25.5252 17.0327 25.5413C17.9275 25.6104 18.709 24.9411 18.7781 24.0463L18.8398 23.2472L18.8446 23.1106C18.8411 22.6117 18.6081 22.1388 18.208 21.8323L15.7202 19.9258L16.1793 13.9913L26 15.6338V10.8408L16.25 7.56113V3.25C16.25 1.45507 14.7949 0 13 0L12.8378 0.00397744ZM13 1.625C13.8975 1.625 14.625 2.35254 14.625 3.25V8.72948L24.375 12.0088V13.7142L14.6958 12.0965L14.0327 20.6799L17.2196 23.1221L17.1579 23.9211L13.7211 22.2046C13.2635 21.9761 12.7251 21.9763 12.2677 22.2053L8.8421 23.92L8.78275 23.1507L11.9695 20.7055L11.3042 12.0849L1.625 13.7077V11.9933L11.375 8.73033V3.25C11.375 2.35254 12.1025 1.625 13 1.625Z" fill="#0039CA"/>
</svg>
