<svg width="23" height="23" viewBox="0 0 23 23" fill="none" xmlns="http://www.w3.org/2000/svg">
<path d="M22.3189 19.8647L21.559 2.27434C21.5494 1.66429 21.299 1.0828 20.8622 0.656736C20.4255 0.230673 19.838 -0.00537614 19.2279 9.29594e-05H3.09116C2.48115 -0.00528807 1.89376 0.230823 1.45717 0.656906C1.02059 1.08299 0.770249 1.66445 0.76078 2.27442L0.00090016 19.8748C0.000328207 19.889 0 19.8947 0 19.9089C0.000964047 20.214 0.0620321 20.516 0.179713 20.7975C0.297394 21.079 0.469383 21.3346 0.685857 21.5496C0.902332 21.7647 1.15905 21.935 1.44135 22.0508C1.72364 22.1666 2.02599 22.2256 2.33112 22.2246H19.9881C20.6048 22.2255 21.1967 21.9817 21.6338 21.5466C22.0708 21.1115 22.3173 20.5208 22.3191 19.9041C22.3195 19.8895 22.3189 19.8789 22.3189 19.8647ZM19.9889 20.2636H2.33185C2.24114 20.2642 2.15375 20.2295 2.08818 20.1668C2.0226 20.1041 1.98399 20.0184 1.98051 19.9278L2.73974 2.32385C2.74031 2.30964 2.74064 2.3049 2.74064 2.29068C2.74114 2.24573 2.75072 2.20135 2.76879 2.1602C2.78687 2.11904 2.81307 2.08196 2.84583 2.05118C2.87859 2.0204 2.91722 1.99655 2.95942 1.98106C3.00162 1.96558 3.04652 1.95878 3.09141 1.96108H19.2274C19.2722 1.95858 19.3171 1.96519 19.3593 1.9805C19.4015 1.99581 19.4402 2.01951 19.4731 2.05016C19.5059 2.08082 19.5322 2.1178 19.5503 2.15888C19.5685 2.19996 19.5781 2.2443 19.5787 2.28921C19.5787 2.30343 19.5787 2.31225 19.5797 2.32647L20.3396 19.9305C20.3359 20.0208 20.2972 20.1062 20.2317 20.1684C20.1661 20.2306 20.0789 20.2647 19.9885 20.2636H19.9889Z" fill="#0039CA"/>
<path d="M14.4738 3.81982C14.3443 3.81999 14.2161 3.84578 14.0966 3.8957C13.9771 3.94561 13.8687 4.01868 13.7776 4.11068C13.6864 4.20268 13.6144 4.3118 13.5656 4.43175C13.5168 4.55171 13.4923 4.68014 13.4933 4.80963V7.80119C13.4933 9.06144 12.4334 10.0868 11.1641 10.0868C9.89475 10.0868 8.83598 9.06144 8.83598 7.80119V4.80963C8.83598 4.54959 8.73268 4.30019 8.5488 4.11631C8.36493 3.93244 8.11553 3.82914 7.85549 3.82914C7.59545 3.82914 7.34606 3.93244 7.16218 4.11631C6.9783 4.30019 6.875 4.54959 6.875 4.80963V7.80119C6.875 8.93887 7.32694 10.03 8.13141 10.8344C8.93587 11.6389 10.027 12.0908 11.1646 12.0908C12.3023 12.0908 13.3934 11.6389 14.1979 10.8344C15.0024 10.03 15.4543 8.93887 15.4543 7.80119V4.80963C15.4553 4.68014 15.4308 4.55172 15.382 4.43176C15.3332 4.31181 15.2612 4.2027 15.17 4.1107C15.0789 4.0187 14.9705 3.94564 14.851 3.89572C14.7315 3.8458 14.6033 3.82 14.4738 3.81982Z" fill="#0039CA"/>
<path d="M20.0045 1.17432H3.03004L2.33903 1.77901L1.3457 20.7832H20.9546L20.0045 1.17432Z" fill="#0039CA" fill-opacity="0.1"/>
</svg>
