<svg width="30" height="30" viewBox="0 0 30 30" fill="none" xmlns="http://www.w3.org/2000/svg">
<path d="M6.98388 20.076H5.98229C5.20902 20.076 4.58008 20.7038 4.58008 21.4783C4.58008 21.8501 4.72825 22.2066 4.99272 22.4695C5.25316 22.7327 5.60965 22.8805 5.98229 22.8805H6.38292C6.75557 22.8805 7.11206 23.028 7.37249 23.2912C7.63697 23.554 7.78519 23.9106 7.78519 24.2828C7.78519 25.0572 7.15619 25.6851 6.38292 25.6851H5.38133" stroke="#0039CA" stroke-width="2" stroke-miterlimit="10" stroke-linecap="round" stroke-linejoin="round"/>
<path d="M24.6109 20.076H23.6093C22.836 20.076 22.207 20.7038 22.207 21.4783C22.207 21.8501 22.3553 22.2066 22.6197 22.4695C22.8802 22.7327 23.2366 22.8805 23.6093 22.8805H24.0099C24.3826 22.8805 24.7391 23.028 24.9995 23.2912C25.264 23.554 25.4121 23.9106 25.4121 24.2828C25.4121 25.0572 24.7832 25.6851 24.0099 25.6851H23.0083" stroke="#0039CA" stroke-width="2" stroke-miterlimit="10" stroke-linecap="round" stroke-linejoin="round"/>
<path d="M10.3125 25.6851V21.6786C10.3125 20.7932 11.0297 20.076 11.9151 20.076C12.8005 20.076 13.5177 20.7932 13.5177 21.6786V25.6851" stroke="#0039CA" stroke-width="2" stroke-miterlimit="10" stroke-linecap="round" stroke-linejoin="round"/>
<path d="M16.4746 25.6851V21.6786C16.4746 20.7932 17.1918 20.076 18.0772 20.076C18.9626 20.076 19.6798 20.7932 19.6798 21.6786V25.6851" stroke="#0039CA" stroke-width="2" stroke-miterlimit="10" stroke-linecap="round" stroke-linejoin="round"/>
<path d="M10.3125 23.281H13.5177" stroke="#0039CA" stroke-width="2" stroke-miterlimit="10" stroke-linecap="round" stroke-linejoin="round"/>
<path d="M16.4746 23.281H19.6798" stroke="#0039CA" stroke-width="2" stroke-miterlimit="10" stroke-linecap="round" stroke-linejoin="round"/>
<path d="M6.98297 10.5619V10.4606C6.98297 7.36479 9.495 4.85157 12.592 4.85157C14.8637 4.85157 16.8228 6.20456 17.7042 8.14844C17.9926 8.08835 18.2931 8.05673 18.6016 8.05673C20.4005 8.05673 21.951 9.13687 22.6321 10.6833C22.9967 10.5395 23.3933 10.4606 23.81 10.4606C25.5808 10.4606 27.0151 11.8965 27.0151 13.6657C27.0151 15.4346 25.5808 16.8708 23.81 16.8708H6.18172C4.41085 16.8708 2.97656 15.4346 2.97656 13.6657C2.97656 11.8965 4.41085 10.4606 6.18172 10.4606C6.45816 10.4606 6.72653 10.4954 6.98297 10.5619Z" stroke="#0039CA" stroke-width="2" stroke-miterlimit="10" stroke-linecap="round" stroke-linejoin="round"/>
<path d="M9.01959 6.33694L6.46978 10.8679L4.14484 11.4961L3.14844 12.5635V14.6627L5.78158 16.7263H23.9275L25.5642 16.4773L27.023 15.0897V13.3106L26.2046 11.8874L25.0305 10.6777L23.1447 10.3219L22.362 9.7882L21.3657 8.68522L19.5511 8.32941L17.7009 7.93803L16.6335 6.62157L14.4632 4.84253L12.0437 5.09165L9.01959 6.33694Z" fill="#0039CA" fill-opacity="0.1"/>
</svg>
