<svg width="50" height="50" viewBox="0 0 50 50" fill="none" xmlns="http://www.w3.org/2000/svg">
<path d="M38.9792 29.7707C38.1667 28.9582 36.8542 28.9582 36.0417 29.7707C35.2292 30.5832 35.2292 31.8957 36.0417 32.7082L36.6458 33.3123H13.5417C11.8125 33.3123 10.4167 31.9165 10.4167 30.1873V28.104C10.4167 26.3748 11.8125 24.979 13.5417 24.979H36.4583C38.4167 24.979 40.25 24.229 41.625 22.854C42.9792 21.4998 43.75 19.6248 43.75 17.6873C43.75 13.6665 40.4792 10.3957 36.4583 10.3957H18.375C17.5208 7.979 15.2292 6.229 12.5 6.229C9.0625 6.229 6.25 9.0415 6.25 12.479C6.25 15.9165 9.0625 18.729 12.5 18.729C15.2083 18.729 17.5 16.979 18.375 14.5623H36.4583C38.1875 14.5623 39.5833 15.9582 39.5833 17.6873C39.5833 18.5207 39.25 19.3332 38.6667 19.8957C38.0833 20.479 37.2708 20.8123 36.4583 20.8123H13.5417C9.52083 20.8123 6.25 24.0832 6.25 28.104V30.1873C6.25 34.2082 9.52083 37.479 13.5417 37.479H36.625L36.0208 38.0832C35.2083 38.8957 35.2083 40.2082 36.0208 41.0207C36.4167 41.4165 36.9583 41.6248 37.5 41.6248C38.0417 41.6248 38.5625 41.4165 38.9792 41.0207L43.1458 36.8332C43.5417 36.4373 43.75 35.9165 43.75 35.354C43.75 34.8123 43.5208 34.2707 43.1458 33.8748L38.9792 29.729V29.7707ZM12.5 14.5832C11.3542 14.5832 10.4167 13.6457 10.4167 12.4998C10.4167 11.354 11.3542 10.4165 12.5 10.4165C13.6458 10.4165 14.5833 11.354 14.5833 12.4998C14.5833 13.6457 13.6458 14.5832 12.5 14.5832Z" fill="#A3ACB5"/>
</svg>
