<svg width="50" height="50" viewBox="0 0 50 50" fill="none" xmlns="http://www.w3.org/2000/svg">
<path d="M11.7182 44.7917H38.2848C41.9765 44.7917 44.9765 41.7918 44.9765 38.1C44.9765 37.6417 44.6015 37.2667 44.1432 37.2667H42.8349V34.6917C42.8349 34.6751 42.8349 34.6667 42.8265 34.6501C42.6432 34.6751 42.4515 34.6917 42.2599 34.6917H41.1682V37.2667H30.6523C30.1932 37.2667 29.819 37.6417 29.819 38.1V39.3834H20.1765V38.1C20.1765 37.6417 19.8015 37.2667 19.3432 37.2667H8.82653V17.6417C8.82653 16.9584 9.38485 16.4001 10.0682 16.4001H23.2765V14.7334H10.0682C8.45986 14.7334 7.15986 16.0334 7.15986 17.6417V37.2667H5.86068C5.40149 37.2667 5.02734 37.6417 5.02734 38.1C5.02734 41.7918 8.02651 44.7917 11.7182 44.7917Z" fill="#A3ACB5"/>
<path d="M24.9419 7.7502V11.0502C24.9419 11.0585 24.9336 11.0585 24.9336 11.0669C24.9336 11.0752 24.9419 11.0752 24.9419 11.0835V27.1335C24.9419 27.1418 24.9336 27.1418 24.9336 27.1502C24.9336 27.1585 24.9419 27.1585 24.9419 27.1669V30.4835C24.9419 31.8835 26.0836 33.0252 27.4753 33.0252H42.2586C43.6586 33.0252 44.8003 31.8835 44.8003 30.4835V7.7502C44.8003 6.35016 43.6586 5.2085 42.2586 5.2085H27.4753C26.0836 5.2085 24.9419 6.35016 24.9419 7.7502ZM36.417 30.5752H33.3086C32.8503 30.5752 32.4753 30.2002 32.4753 29.7418C32.4753 29.2835 32.8503 28.9085 33.3086 28.9085H36.417C36.8836 28.9085 37.2503 29.2835 37.2503 29.7418C37.2503 30.2002 36.8836 30.5752 36.417 30.5752ZM43.1336 11.9002V26.3168H26.6086V11.9002H43.1336ZM31.992 7.83352H37.7336C38.2002 7.83352 38.5669 8.20853 38.5669 8.66685C38.5669 9.12517 38.2002 9.50018 37.7336 9.50018H31.992C31.5336 9.50018 31.1586 9.12517 31.1586 8.66685C31.1586 8.20853 31.5336 7.83352 31.992 7.83352Z" fill="#A3ACB5"/>
</svg>
