<svg width="32" height="32" viewBox="0 0 32 32" fill="none" xmlns="http://www.w3.org/2000/svg">
<path fill-rule="evenodd" clip-rule="evenodd" d="M16.001 4.57143C13.4763 4.57143 11.4296 6.61813 11.4296 9.14286V11.4286H20.5725V9.14286C20.5725 6.61813 18.5258 4.57143 16.001 4.57143ZM6.85819 9.14286V11.4286C4.96468 11.4286 3.42969 12.9636 3.42969 14.8571V28.5714C3.42969 30.4649 4.9647 32 6.85826 32H25.144C27.0375 32 28.5725 30.4649 28.5725 28.5714V14.8571C28.5725 12.9636 27.0375 11.4286 25.144 11.4286V9.14286C25.144 4.09339 21.0505 0 16.001 0C10.9516 0 6.85819 4.09339 6.85819 9.14286ZM16.0011 24.5714C17.5791 24.5714 18.8583 23.2923 18.8583 21.7143C18.8583 20.1363 17.5791 18.8571 16.0011 18.8571C14.4232 18.8571 13.144 20.1363 13.144 21.7143C13.144 23.2923 14.4232 24.5714 16.0011 24.5714Z" fill="#F5FAFE"/>
</svg>
