<svg width="32" height="32" viewBox="0 0 32 32" fill="none" xmlns="http://www.w3.org/2000/svg">
<g clip-path="url(#clip0_14643_16145)">
<path d="M17.579 29.3419H3.38684C2.86193 29.3419 2.43447 28.9144 2.43447 28.3894V3.1332C2.43447 2.60828 2.86193 2.18063 3.38684 2.18063H20.9355C21.4604 2.18063 21.8879 2.60828 21.8879 3.1332V12.535C22.5433 12.0936 23.2807 11.7683 24.0685 11.5707V3.1332C24.0684 1.40559 22.6631 0 20.9355 0H3.38684C1.65931 0 0.253906 1.40559 0.253906 3.1332V28.3894C0.253906 30.117 1.65931 31.5228 3.38684 31.5228H17.7361C17.6439 31.2016 17.579 30.8698 17.579 30.5197V29.3419Z" fill="#F5FAFE"/>
<path d="M7.36385 6.20508C6.76157 6.20508 6.27344 6.69328 6.27344 7.29543C6.27344 7.89751 6.76157 8.38577 7.36385 8.38577H14.7011C15.303 8.38577 15.7912 7.89751 15.7912 7.29543C15.7912 6.69328 15.303 6.20508 14.7011 6.20508H7.36385Z" fill="#F5FAFE"/>
<path d="M16.9582 11.8496H7.36385C6.76157 11.8496 6.27344 12.3378 6.27344 12.9398C6.27344 13.542 6.76157 14.0302 7.36385 14.0302H16.9582C17.5604 14.0302 18.0486 13.542 18.0486 12.9398C18.0486 12.3378 17.5604 11.8496 16.9582 11.8496Z" fill="#F5FAFE"/>
<path d="M16.9582 17.4932H7.36385C6.76157 17.4932 6.27344 17.9815 6.27344 18.5836C6.27344 19.1857 6.76157 19.6738 7.36385 19.6738H16.9582C17.5604 19.6738 18.0486 19.1857 18.0486 18.5836C18.0486 17.9815 17.5604 17.4932 16.9582 17.4932Z" fill="#F5FAFE"/>
<path d="M16.9582 25.3173C17.1941 25.3173 17.4007 25.2268 17.5791 25.0991V23.355C17.4006 23.2273 17.194 23.1367 16.9582 23.1367H7.36385C6.76157 23.1367 6.27344 23.6249 6.27344 24.2271C6.27344 24.8292 6.76157 25.3173 7.36385 25.3173H16.9582Z" fill="#F5FAFE"/>
<path d="M30.5042 20.4746V18.2901C30.5042 15.6678 28.3728 13.5361 25.7513 13.5361C23.1286 13.5361 20.9961 15.6678 20.9961 18.2901V20.4746C20.2997 20.5937 19.7578 21.1747 19.7578 21.907V30.52C19.7578 31.3386 20.4201 32.0003 21.2378 32.0003H30.2636C31.0813 32.0003 31.7458 31.3386 31.7458 30.52V21.907C31.7458 21.1747 31.2017 20.5937 30.5042 20.4746ZM26.9214 27.1782C26.9214 27.825 26.397 28.3495 25.7501 28.3495C25.1033 28.3495 24.5788 27.825 24.5788 27.1782V25.2495C24.5788 24.6025 25.1033 24.0782 25.7501 24.0782C26.397 24.0782 26.9214 24.6025 26.9214 25.2495V27.1782ZM28.0254 20.4266H23.477V18.2901C23.477 17.0364 24.498 16.0159 25.7513 16.0159C27.0034 16.0159 28.0254 17.0364 28.0254 18.2901V20.4266H28.0254Z" fill="#F5FAFE"/>
</g>
<defs>
<clipPath id="clip0_14643_16145">
<rect width="32" height="32" fill="white"/>
</clipPath>
</defs>
</svg>
