<svg width="32" height="32" viewBox="0 0 32 32" fill="none" xmlns="http://www.w3.org/2000/svg">
<path d="M7.55469 19.5502V20.7064H18.2609C18.5797 20.2127 18.9484 19.7627 19.3609 19.3502C19.2797 17.0064 17.8359 14.9502 15.6734 14.0752C14.2734 14.7002 12.6359 14.7002 11.2422 14.0752C9.02344 14.9689 7.55469 17.1189 7.55469 19.5502Z" fill="#F5FAFE"/>
<path d="M20.2564 1.375H7.10641C6.71266 4.48125 4.35641 7.0375 1.37516 7.86875C1.35641 14.6688 3.02516 20.3125 6.35016 24.6562C9.11266 28.2625 12.2502 29.9125 13.4689 30.45C13.5689 30.4938 13.6877 30.4875 13.7877 30.4375C14.5314 30.0312 15.9439 29.175 17.5502 27.7563C17.2064 26.8563 17.0252 25.9 17.0252 24.9312C17.0252 24.2125 17.1252 23.5187 17.3064 22.8625H6.47516C5.88141 22.8625 5.39391 22.3813 5.39391 21.7812V19.55C5.39391 16.6562 6.91266 14.0562 9.31891 12.625C8.50641 11.675 8.01891 10.4437 8.01891 9.10625C8.01891 6.10625 10.4627 3.66875 13.4627 3.66875C16.4627 3.66875 18.9064 6.10625 18.9064 9.10625C18.9064 10.45 18.4189 11.675 17.6064 12.625C19.5439 13.7812 20.9127 15.7 21.3627 17.9188C22.3252 17.4375 23.4002 17.1437 24.5377 17.0875C25.4752 14.2562 25.9564 11.1625 25.9752 7.86875C23.0002 7.03125 20.6502 4.475 20.2564 1.375Z" fill="#F5FAFE"/>
<path d="M13.4609 12.3809C15.2731 12.3809 16.7422 10.9118 16.7422 9.09961C16.7422 7.28743 15.2731 5.81836 13.4609 5.81836C11.6488 5.81836 10.1797 7.28743 10.1797 9.09961C10.1797 10.9118 11.6488 12.3809 13.4609 12.3809Z" fill="#F5FAFE"/>
<path d="M24.9062 19.2441C21.75 19.2441 19.1875 21.8004 19.1875 24.9379C19.1875 28.0754 21.75 30.6254 24.9062 30.6254C28.0625 30.6254 30.625 28.0691 30.625 24.9316C30.625 21.7941 28.0562 19.2441 24.9062 19.2441ZM24.4625 27.8504C24.025 28.2941 23.2812 28.2691 22.875 27.8004L20.7188 25.3066L22.3563 23.8941L23.75 25.5066L27.5625 21.6441L29.1 23.1629L24.4625 27.8504Z" fill="#F5FAFE"/>
</svg>
