<svg width="50" height="50" viewBox="0 0 50 50" fill="none" xmlns="http://www.w3.org/2000/svg">
<path d="M45.092 39.9996C46.933 39.9996 48.4253 38.5072 48.4253 36.6662V8.33249C48.4253 6.49148 46.933 4.99915 45.092 4.99915H36.2684C36.0868 4.79582 35.8984 4.59326 35.6993 4.39336C35.2701 3.96153 34.8127 3.55869 34.3301 3.18752C34.091 3.00517 33.7728 2.96588 33.4966 3.08414L31.1574 4.08399C30.3224 3.61935 29.4366 3.25237 28.5172 2.99068L27.5742 0.631629C27.4617 0.351244 27.2068 0.15364 26.9074 0.114729C25.6992 -0.038243 24.477 -0.038243 23.2689 0.114729C22.9694 0.15364 22.7146 0.351244 22.6024 0.631629L21.6655 2.99068C20.7465 3.25351 19.8611 3.62126 19.0265 4.08666L16.6873 3.08261C16.4111 2.96436 16.0925 3.00365 15.8537 3.18561C15.3719 3.55641 14.9149 3.95886 14.4861 4.38993C14.2862 4.58982 14.0978 4.79315 13.9155 4.99762H5.09115C3.25015 4.99762 1.75781 6.48996 1.75781 8.33096V36.6662C1.75781 38.5072 3.25015 39.9996 5.09115 39.9996H15.0912V42.0164L9.67458 45.1098C9.63567 45.1362 9.59943 45.1659 9.56548 45.1983C9.53649 45.2186 9.50864 45.2411 9.48194 45.2647C9.419 45.3311 9.3675 45.4074 9.32973 45.4905C9.32973 45.4982 9.32058 45.5031 9.31714 45.5108C9.27899 45.605 9.25878 45.7057 9.25725 45.8072C9.25725 45.8163 9.25191 45.824 9.25191 45.8331V48.3333C9.25191 49.2538 9.99846 50 10.9186 50H39.2584C40.1789 50 40.9251 49.2538 40.9251 48.3333V45.8331C40.9251 45.824 40.9201 45.8163 40.9201 45.8072C40.9182 45.7057 40.898 45.605 40.8603 45.5108C40.8603 45.5031 40.85 45.4974 40.8469 45.4898C40.8091 45.407 40.758 45.3307 40.6951 45.2647C40.6688 45.2411 40.6409 45.2186 40.6119 45.1983C40.578 45.1659 40.5413 45.1362 40.5024 45.1098L35.0916 42.0164V39.9996H45.092ZM16.4889 4.81261L18.7579 5.78346C19.0051 5.88951 19.2882 5.87006 19.5182 5.73082C20.4398 5.17425 21.4397 4.75882 22.4849 4.49903C22.7451 4.43456 22.9587 4.2484 23.0583 3.9993L23.975 1.71578C24.72 1.6517 25.4696 1.6517 26.215 1.71578L27.1317 3.9993C27.2309 4.2484 27.4445 4.43456 27.705 4.49903C28.7514 4.7592 29.7528 5.17539 30.6756 5.73349C30.9056 5.87235 31.1887 5.8918 31.4359 5.78575L33.7007 4.8149C33.9784 5.04721 34.2538 5.30051 34.5266 5.57518C34.799 5.84679 35.0534 6.1226 35.2835 6.3984L34.3076 8.6659C34.2016 8.91271 34.221 9.19538 34.3599 9.42503C34.9169 10.3471 35.3319 11.3473 35.5917 12.3925C35.6562 12.6531 35.8423 12.8663 36.0918 12.9659L38.3749 13.8826C38.4066 14.2419 38.4234 14.6169 38.4234 15.0026C38.4234 15.3886 38.4066 15.7636 38.3749 16.1226L36.0918 17.0393C35.8423 17.1389 35.6562 17.3521 35.5917 17.6127C35.3315 18.6594 34.9153 19.6608 34.3576 20.5836C34.2188 20.8132 34.1993 21.0959 34.305 21.3427L35.2751 23.6087C35.0443 23.8845 34.791 24.1611 34.5159 24.4346C34.2409 24.7077 33.9681 24.9603 33.6916 25.193L31.4248 24.2152C31.178 24.1084 30.8946 24.1279 30.6649 24.2679C29.7433 24.8245 28.743 25.2399 27.6982 25.4997C27.4376 25.5641 27.2244 25.7503 27.1248 25.9994L26.2081 28.2829C25.4627 28.347 24.7135 28.347 23.9681 28.2829L23.0514 25.9994C22.9519 25.7503 22.7386 25.5641 22.4781 25.4997C21.4317 25.2395 20.4299 24.8233 19.5071 24.2652C19.2771 24.1264 18.994 24.1065 18.7472 24.213L16.482 25.1838C16.2043 24.9515 15.9293 24.6982 15.6565 24.4243C15.3834 24.1508 15.1308 23.8757 14.8981 23.5995L15.869 21.3343C15.975 21.0875 15.9552 20.8045 15.8163 20.5744C15.2617 19.6516 14.8489 18.651 14.5914 17.6062C14.5266 17.3456 14.3404 17.132 14.0913 17.0328L11.8078 16.1161C11.7746 15.7602 11.7578 15.3852 11.7578 14.9992C11.7578 14.6135 11.7746 14.2385 11.8063 13.8791L14.0898 12.9625C14.3389 12.8633 14.5251 12.6497 14.5895 12.3891C14.8497 11.3427 15.2659 10.3413 15.824 9.41855C15.9628 9.18852 15.9823 8.90546 15.8762 8.65827L14.9054 6.39764V6.39268C15.1366 6.11458 15.3887 5.84068 15.6615 5.57098C15.9365 5.29746 16.2123 5.04493 16.4889 4.81261ZM5.09115 6.66582H13.2071L14.1787 8.93407C13.7133 9.76874 13.3455 10.6545 13.0831 11.5735L10.7236 12.5169C10.4436 12.6291 10.2457 12.8839 10.2071 13.1833C10.0526 14.3915 10.0526 15.6141 10.2071 16.8219C10.2457 17.1213 10.4436 17.3761 10.7236 17.4887L13.0831 18.4321C13.3455 19.3507 13.7133 20.2364 14.1787 21.0711L13.1788 23.4103C13.0606 23.6865 13.0999 24.0047 13.2822 24.2435C14.0276 25.2067 14.8924 26.0715 15.8556 26.8169C16.0944 26.9993 16.4126 27.0385 16.6888 26.9203L19.028 25.9204C19.8627 26.3858 20.7485 26.7536 21.6674 27.016L22.6104 29.3755C22.723 29.6559 22.9778 29.8535 23.2773 29.892C24.485 30.0465 25.7076 30.0465 26.9158 29.892C27.2152 29.8535 27.4701 29.6559 27.5822 29.3755L28.5256 27.016C29.4419 26.7517 30.3246 26.3824 31.1566 25.9162L33.4959 26.9161C33.772 27.0344 34.0902 26.9951 34.329 26.8127C35.2922 26.0673 36.157 25.2029 36.9024 24.2397C37.0844 24.0005 37.1237 23.6819 37.0051 23.4061L36.0048 21.0662C36.4706 20.2315 36.8383 19.3457 37.1008 18.4267L39.4602 17.4837C39.7402 17.3712 39.9378 17.1164 39.9768 16.8169C40.1313 15.6091 40.1313 14.3865 39.9768 13.1784C39.9378 12.8789 39.7402 12.6241 39.4602 12.5119L37.1 11.5735C36.8387 10.6545 36.4725 9.76912 36.0083 8.93407L36.9749 6.66582H45.092C46.0125 6.66582 46.7586 7.41198 46.7586 8.33249V31.6662H3.42448V8.33249C3.42448 7.41198 4.17065 6.66582 5.09115 6.66582ZM3.42448 36.6662V33.3329H46.7586V36.6662C46.7586 37.5867 46.0125 38.3329 45.092 38.3329H5.09115C4.17065 38.3329 3.42448 37.5867 3.42448 36.6662ZM10.9247 48.3333V46.6666H39.2584V48.3333H10.9247ZM13.2296 45L16.1463 43.3333H34.0368L36.9532 45H13.2296ZM33.4249 41.6662H16.7582V39.9996H33.4249V41.6662Z" fill="#1B275F"/>
<path d="M23.4234 36.6664H26.7567C27.2168 36.6664 27.5899 36.2933 27.5899 35.8333C27.5899 35.3728 27.2168 34.9998 26.7567 34.9998H23.4234C22.9629 34.9998 22.5898 35.3728 22.5898 35.8333C22.5898 36.2933 22.9629 36.6664 23.4234 36.6664Z" fill="#1B275F"/>
<path d="M15.3339 15.5887L19.5004 19.7556C19.8273 20.071 20.3473 20.0668 20.6685 19.7453C20.99 19.4237 20.9946 18.9041 20.6788 18.5772L17.1013 14.9993L20.6788 11.4218C20.9946 11.0949 20.99 10.5753 20.6685 10.2537C20.3473 9.93216 19.8273 9.92758 19.5004 10.2434L15.3339 14.4103C15.0085 14.7357 15.0085 15.2633 15.3339 15.5887Z" fill="#1B275F"/>
<path d="M29.5019 19.7556C29.8273 20.0806 30.3545 20.0806 30.6802 19.7556L34.8467 15.5887C35.1721 15.2633 35.1721 14.7357 34.8467 14.4103L30.6802 10.2434C30.3529 9.92758 29.8334 9.93216 29.5118 10.2537C29.1906 10.5753 29.186 11.0949 29.5019 11.4218L33.0793 14.9993L29.5019 18.5772C29.1765 18.9026 29.1765 19.4298 29.5019 19.7556Z" fill="#1B275F"/>
<path d="M23.1143 19.9405C23.2127 19.9798 23.3176 20 23.4237 19.9997C23.7647 19.9997 24.0714 19.7921 24.1977 19.4755L27.531 11.1418C27.6417 10.8652 27.5963 10.5509 27.412 10.3167C27.2274 10.0828 26.9325 9.96493 26.6376 10.0077C26.3427 10.0504 26.0932 10.2468 25.9826 10.5234L22.6493 18.8571C22.5673 19.0624 22.5703 19.292 22.6573 19.495C22.7446 19.6983 22.9091 19.8585 23.1143 19.9405Z" fill="#1B275F"/>
</svg>
