<svg width="50" height="50" viewBox="0 0 50 50" fill="none" xmlns="http://www.w3.org/2000/svg">
<g clip-path="url(#clip0_14524_31833)">
<path d="M38.6719 25.4687C38.4375 25.4687 38.2031 25.3906 38.0469 25.1562L37.5 24.4531C36.9531 23.75 36.875 22.8125 37.2656 22.0312C37.4219 21.7188 37.5781 21.4062 37.6562 21.0156C37.9688 20.1562 38.6719 19.6094 39.6094 19.4531L42.1094 19.0625C42.5 18.9844 42.8125 18.6719 42.8125 18.2812V16.5625C42.8125 16.1719 42.5 15.8594 42.1094 15.7812L39.6094 15.3906C38.75 15.2344 37.9688 14.6875 37.6562 13.8281C37.5781 13.5156 37.4219 13.2031 37.2656 12.8906C36.875 12.0312 36.9531 11.0938 37.5 10.3906L39.0625 8.28125C39.2969 7.96875 39.2969 7.5 38.9844 7.26563L37.7344 6.09375C37.4219 5.78125 36.9531 5.78125 36.6406 6.01562L34.6094 7.5C33.9062 8.04688 32.8906 8.125 32.1094 7.73438C31.7969 7.57812 31.4844 7.42188 31.1719 7.34375C30.3125 7.03125 29.6875 6.32812 29.6094 5.46875L29.2188 2.96875C29.1406 2.57812 28.8281 2.26562 28.4375 2.26562H26.7188C26.3281 2.26562 25.9375 2.57812 25.9375 2.96875L25.5469 5.46875C25.4688 6.32812 24.8438 7.10938 23.9844 7.42188C23.6719 7.57812 23.3594 7.65625 23.0469 7.8125C22.1875 8.20312 21.25 8.125 20.5469 7.57812L18.5156 6.09375C18.2031 5.85938 17.7344 5.85938 17.4219 6.17188L16.25 7.34375C15.9375 7.65625 15.9375 8.04688 16.1719 8.35938L17.7344 10.4688C18.2813 11.1719 18.3594 12.1094 17.9688 12.9688C17.8125 13.2812 17.7344 13.5937 17.5781 13.9844C17.2656 14.8437 16.5625 15.3906 15.625 15.5469L13.125 15.9375C12.7344 16.0156 12.4219 16.3281 12.4219 16.7188V18.4375C12.4219 18.8281 12.7344 19.1406 13.125 19.2188L15.625 19.6094C16.4844 19.7656 17.2656 20.3125 17.5781 21.1719C17.7344 21.5625 17.8125 21.875 17.9688 22.1094C18.2031 22.5781 18.2812 23.125 18.2031 23.5938C18.125 24.0625 17.7344 24.2969 17.2656 24.2188C16.7969 24.1406 16.5625 23.75 16.6406 23.2812C16.6406 23.125 16.6406 22.9688 16.5625 22.8125C16.4063 22.4219 16.25 22.0312 16.0938 21.7187C16.0156 21.4062 15.7031 21.25 15.4687 21.1719L12.9688 20.7812C11.7969 20.625 10.9375 19.6094 10.9375 18.3594V16.6406C10.9375 15.4687 11.7969 14.4531 12.9688 14.2188L15.4687 13.8281C15.7812 13.75 16.0156 13.5937 16.0938 13.2812C16.25 12.8906 16.4063 12.5 16.5625 12.1875C16.7188 11.9531 16.6406 11.6406 16.4844 11.4062L14.9219 9.375C14.2188 8.4375 14.2969 7.10938 15.1562 6.25L16.4062 5C17.1094 3.98438 18.4375 3.90625 19.375 4.6875L21.4062 6.17188C21.6406 6.32812 21.9531 6.40625 22.2656 6.25C22.5781 6.09375 22.9688 5.9375 23.3594 5.78125C23.6719 5.70312 23.8281 5.46875 23.9062 5.15625L24.2969 2.57812C24.4531 1.40625 25.4688 0.546875 26.7188 0.546875H28.4375C29.6094 0.546875 30.625 1.40625 30.8594 2.57812L31.25 5.07812C31.3281 5.39062 31.4844 5.625 31.7969 5.70313C32.1875 5.85938 32.5781 6.01562 32.8906 6.17188C33.125 6.32812 33.5156 6.25 33.75 6.09375L35.7812 4.60938C36.7188 3.90625 38.125 3.98438 38.9844 4.84375L40.2344 6.09375C41.0938 6.95313 41.1719 8.28125 40.4688 9.21875L38.9062 11.3281C38.75 11.5625 38.6719 11.875 38.8281 12.1094C38.9844 12.5 39.1406 12.8906 39.2969 13.2031C39.375 13.5156 39.6094 13.6719 39.9219 13.75L42.4219 14.1406C43.5938 14.2969 44.4531 15.3125 44.4531 16.5625V18.2812C44.4531 19.4531 43.5938 20.4688 42.4219 20.7031L39.8438 21.0156C39.5312 21.0938 39.2969 21.25 39.2188 21.5625C39.0625 22.0312 38.9062 22.3438 38.75 22.6562C38.5937 22.8906 38.6719 23.2031 38.8281 23.4375L39.2969 24.1406C39.5312 24.5312 39.4531 25 39.1406 25.2344C38.9844 25.3906 38.8281 25.4687 38.6719 25.4687Z" fill="#1B275F"/>
<path d="M27.5781 25.4687C23.0469 25.4687 19.375 21.875 19.375 17.4219C19.375 12.9687 23.0469 9.375 27.5781 9.375C32.1094 9.375 35.7812 12.9687 35.7812 17.4219C35.7812 21.7969 32.1094 25.4687 27.5781 25.4687ZM27.5781 10.9375C23.9844 10.9375 21.0156 13.8281 21.0156 17.4219C21.0156 21.0156 23.9844 23.9062 27.5781 23.9062C31.1719 23.9062 34.1406 21.0156 34.1406 17.4219C34.1406 13.8281 31.1719 10.9375 27.5781 10.9375Z" fill="#1B275F"/>
<path d="M19.295 41.7188C18.9044 41.7188 18.5919 41.4844 18.5137 41.0937C18.3575 40.7031 18.67 40.2344 19.0606 40.0781C19.6856 39.9219 20.3106 39.8438 21.0137 39.8438H33.2794C34.5294 39.8438 35.7012 39.4531 36.6387 38.75C41.2481 35.3906 45.1544 30.8594 48.2794 25.3125C48.4356 25.0781 48.4356 24.7656 48.3575 24.5312C48.2794 24.2969 48.1231 24.0625 47.8106 23.9063C47.2637 23.6719 46.7169 23.5156 46.0919 23.5156C44.7637 23.5156 43.5137 24.2188 42.8106 25.3125C42.6544 25.625 41.6387 27.5 41.0137 28.125C39.92 29.1406 36.7169 30.625 35.7012 31.0156C35.3106 31.1719 34.8419 31.0156 34.6075 30.625C34.4512 30.2344 34.6075 29.7656 34.9981 29.5312C36.9512 28.6719 39.2169 27.5 39.8419 26.875C40.1544 26.6406 40.8575 25.3906 41.3262 24.4531C42.3419 22.8125 44.1387 21.875 46.0137 21.875C46.8731 21.875 47.6544 22.0313 48.4356 22.4219C49.0606 22.7344 49.6075 23.2813 49.7637 23.9844C49.9981 24.6875 49.92 25.3906 49.5294 26.0156C46.3262 31.7188 42.2637 36.4062 37.4981 39.9219C36.2481 40.8594 34.7637 41.3281 33.1231 41.3281H21.0137C20.4669 41.3281 19.9981 41.4062 19.5294 41.5625C19.4512 41.7188 19.3731 41.7188 19.295 41.7188Z" fill="#1B275F"/>
<path d="M33.125 34.9219H22.8906C22.4219 34.9219 22.1094 34.5312 22.1094 34.1406C22.1094 33.75 22.5 33.3594 22.8906 33.3594H33.125C34.0625 33.3594 34.8437 32.5781 34.8437 31.6406C34.8437 31.1719 34.6875 30.7812 34.2969 30.4687C33.9844 30.1562 33.5156 30 33.0469 30H27.6563C26.1719 30 24.6875 29.5312 23.4375 28.5937C22.6562 27.7344 21.5625 27.3437 20.3906 27.3437H16.4844C15.1563 27.3437 13.8281 27.8125 12.8906 28.75L9.92188 31.5625C9.60938 31.875 9.0625 31.875 8.75 31.5625C8.4375 31.25 8.4375 30.7031 8.75 30.3906L11.7188 27.5781C12.9688 26.4062 14.6875 25.7031 16.4063 25.7031H20.3125C21.7969 25.7031 23.2812 26.1719 24.5312 27.1094C25.4688 27.8125 26.5625 28.2031 27.7344 28.2031H33.125C33.9844 28.2031 34.9219 28.5937 35.4688 29.1406C36.0938 29.7656 36.4844 30.625 36.4844 31.4844C36.4844 33.4375 35 34.9219 33.125 34.9219Z" fill="#1B275F"/>
<path d="M13.3594 49.4531C13.125 49.4531 12.9688 49.375 12.8125 49.2188L0.234375 36.7969C0.078125 36.6406 0 36.4844 0 36.25C0 36.0156 0.078125 35.8594 0.234375 35.7031L3.51562 32.5C4.53125 31.4844 6.32812 31.4844 7.34375 32.5L17.1875 42.1875C17.7344 42.6563 17.9688 43.3594 17.9688 44.0625C17.9688 44.7656 17.6562 45.4688 17.1875 46.0156L13.9062 49.2188C13.75 49.375 13.5938 49.4531 13.3594 49.4531ZM1.95312 36.25L13.3594 47.5L16.0938 44.8438C16.3281 44.6094 16.4062 44.375 16.4062 44.0625C16.4062 43.75 16.3281 43.5156 16.0938 43.2813L6.17188 33.5938C5.78125 33.2031 5 33.2031 4.60938 33.5938L1.95312 36.25Z" fill="#1B275F"/>
</g>
<defs>
<clipPath id="clip0_14524_31833">
<rect width="50" height="50" fill="white"/>
</clipPath>
</defs>
</svg>
