<svg width="105" height="50" viewBox="0 0 105 50" fill="none" xmlns="http://www.w3.org/2000/svg">
<rect width="47.0588" height="50" rx="13.5294" fill="#1B1D1E"/>
<path d="M23.5312 40.9375C32.3333 40.9375 39.4688 33.802 39.4688 25C39.4688 16.198 32.3333 9.0625 23.5312 9.0625C14.7292 9.0625 7.59375 16.198 7.59375 25C7.59375 33.802 14.7292 40.9375 23.5312 40.9375Z" fill="#382B73"/>
<path d="M23.5312 38.6133C31.0497 38.6133 37.1445 32.5184 37.1445 25C37.1445 17.4816 31.0497 11.3867 23.5312 11.3867C16.0128 11.3867 9.91797 17.4816 9.91797 25C9.91797 32.5184 16.0128 38.6133 23.5312 38.6133Z" fill="#473080"/>
<path d="M30.1766 27.3263L26.1287 24.1749V20.4723C26.1287 18.8037 25.6052 17.1674 24.6155 15.7423L24.2583 15.2282C23.906 14.7208 23.1557 14.7208 22.8034 15.2282L22.4462 15.7423C21.4565 17.1674 20.933 18.8037 20.933 20.4723V24.1749L16.8851 27.3263C16.6766 27.4886 16.5547 27.738 16.5547 28.0022V28.4401C16.5547 28.9132 16.9382 29.2967 17.4113 29.2967H20.0498C20.0775 29.816 20.4353 30.2668 20.9464 30.405C21.0202 30.425 21.0916 30.4518 21.1594 30.4849L20.9528 31.3407C20.8157 31.9083 20.9993 32.5979 21.2875 32.5979H21.7151C21.5324 32.9096 21.4276 33.2726 21.4276 33.6599C21.4276 34.6023 22.812 36.2218 23.3344 36.7994C23.4398 36.916 23.6216 36.916 23.7271 36.7994C24.2496 36.2218 25.6339 34.6022 25.6339 33.6599C25.6339 33.2725 25.5291 32.9095 25.3463 32.5979H25.6729C25.9611 32.5979 26.1448 31.9083 26.0078 31.3407L25.8126 30.5329C25.9065 30.4773 26.0081 30.434 26.1152 30.405C26.6263 30.2667 26.9841 29.816 27.0118 29.2967H29.6503C30.1233 29.2967 30.5069 28.9132 30.5069 28.4401V28.0022C30.507 27.738 30.3851 27.4886 30.1766 27.3263Z" fill="#382B73"/>
<path d="M21.4258 32.7302C21.4258 31.5686 22.3674 30.627 23.529 30.627C24.6906 30.627 25.6322 31.5686 25.6322 32.7302C25.6322 33.6726 24.2478 35.2921 23.7254 35.8697C23.62 35.9863 23.4382 35.9863 23.3327 35.8697C22.8102 35.2921 21.4258 33.6725 21.4258 32.7302Z" fill="#E7AD27"/>
<path d="M25.1503 31.563C25.1503 31.5009 25.1461 31.4398 25.1393 31.3793C24.7535 30.9197 24.1752 30.6271 23.5283 30.627C22.8812 30.627 22.3031 30.9197 21.9173 31.3793C21.9105 31.4396 21.9062 31.5007 21.9062 31.563C21.9062 32.2637 22.8985 33.4497 23.3309 33.9333C23.4364 34.0513 23.6205 34.0513 23.7259 33.9333C24.1581 33.4497 25.1503 32.2637 25.1503 31.563Z" fill="#FEDE3A"/>
<path d="M25.8099 29.3046H21.2539V19.5431C21.2539 17.8745 21.713 16.2382 22.5808 14.8131L22.894 14.2988C23.185 13.821 23.8788 13.821 24.1698 14.2988L24.483 14.8129C25.3509 16.238 25.8099 17.8744 25.8099 19.5429V29.3046Z" fill="#E6E7E8"/>
<path d="M24.6651 29.3045H22.4023V19.5429C22.4023 17.8744 22.6304 16.238 23.0614 14.8129L23.2169 14.2988C23.3614 13.821 23.7059 13.821 23.8505 14.2988L24.0061 14.8129C24.437 16.238 24.6651 17.8744 24.6651 19.5429V29.3045Z" fill="white"/>
<path d="M21.2539 19.251H25.8099V19.9915H21.2539V19.251Z" fill="#EF5A9D"/>
<path d="M21.2539 23.2461H25.8099V23.9865H21.2539V23.2461Z" fill="#EF5A9D"/>
<path d="M21.2539 25.3125H25.8099V25.6828H21.2539V25.3125Z" fill="#D1D3D4"/>
<path d="M21.2539 26.6543H25.8099V27.0246H21.2539V26.6543Z" fill="#D1D3D4"/>
<path d="M21.2539 27.9971H25.8099V28.3674H21.2539V27.9971Z" fill="#D1D3D4"/>
<path d="M25.8228 29.3042H21.2399C21.0707 29.3042 20.9336 29.167 20.9336 28.9979V19.5426C20.9336 17.8741 21.4571 16.2377 22.4469 14.8126L22.804 14.2985C23.1563 13.7911 23.9066 13.7911 24.259 14.2985L24.6161 14.8126C25.6058 16.2377 26.1293 17.8741 26.1293 19.5426V28.9979C26.1291 29.167 25.9919 29.3042 25.8228 29.3042Z" fill="#E6E7E8"/>
<path d="M24.8225 29.3045H22.2422V19.5429C22.2422 17.8744 22.5022 16.238 22.9938 14.8129L23.1711 14.2988C23.3359 13.821 23.7288 13.821 23.8936 14.2988L24.0709 14.8129C24.5624 16.238 24.8225 17.8744 24.8225 19.5429V29.3045Z" fill="white"/>
<path d="M20.9336 19.251H26.1292V19.9914H20.9336V19.251Z" fill="#E43D91"/>
<path d="M22.2422 19.5426V19.9914H24.8225V19.5426C24.8225 19.4451 24.8186 19.3482 24.8168 19.251H22.2478C22.246 19.3482 22.2422 19.445 22.2422 19.5426Z" fill="#EF5A9D"/>
<path d="M26.0078 30.4109L25.7406 29.3047H21.2198L20.9526 30.4109C20.8155 30.9785 20.9991 31.6681 21.2873 31.6681H25.673C25.9613 31.6681 26.1449 30.9785 26.0078 30.4109Z" fill="#E43D91"/>
<path d="M24.8819 30.4109L24.7337 29.3047H22.2247L22.0765 30.4109C22.0004 30.9785 22.1023 31.6681 22.2623 31.6681H24.6962C24.8561 31.6681 24.958 30.9785 24.8819 30.4109Z" fill="#EF5A9D"/>
<path d="M30.5072 27.0724V27.5103C30.5072 27.9833 30.1236 28.3669 29.6506 28.3669H26.1289V23.2451L30.1768 26.3965C30.3853 26.5588 30.5072 26.8082 30.5072 27.0724Z" fill="#EF5A9D"/>
<path d="M29.6506 27.5703H26.1289V28.3672H29.6506C30.1236 28.3672 30.5072 27.9836 30.5072 27.5105V27.0726C30.5072 27.0121 30.5 26.9526 30.4877 26.8945C30.4045 27.2808 30.0616 27.5703 29.6506 27.5703Z" fill="#E43D91"/>
<path d="M27.0156 23.9365V25.0601C27.0156 25.1402 27.0535 25.2156 27.1176 25.2636L28.6822 26.4317C28.8496 26.5566 29.0879 26.4372 29.0879 26.2282V25.5498L27.0156 23.9365Z" fill="#F06EA9"/>
<path d="M16.5547 27.0724V27.5103C16.5547 27.9833 16.9383 28.3669 17.4113 28.3669H20.933V23.2451L16.8851 26.3965C16.6766 26.5588 16.5547 26.8082 16.5547 27.0724Z" fill="#EF5A9D"/>
<path d="M16.5742 26.8945C16.5619 26.9526 16.5547 27.0122 16.5547 27.0726V27.5105C16.5547 27.9836 16.9383 28.3672 17.4113 28.3672H20.933V27.5703H17.4113C17.0003 27.5703 16.6574 27.2808 16.5742 26.8945Z" fill="#E43D91"/>
<path d="M20.0449 23.9365V25.0601C20.0449 25.1402 20.0071 25.2156 19.9429 25.2636L18.3784 26.4317C18.2109 26.5566 17.9727 26.4372 17.9727 26.2282V25.5498L20.0449 23.9365Z" fill="#F06EA9"/>
<path d="M23.9625 22.8532C24.4969 22.6496 25.101 22.8459 25.4136 23.3247C25.5767 23.5745 25.8261 23.7557 26.1141 23.8337C26.666 23.9831 27.0394 24.4969 27.0109 25.068C26.9961 25.3661 27.0913 25.6592 27.2786 25.8915C27.6373 26.3368 27.6373 26.9719 27.2786 27.4172C27.0914 27.6495 26.9962 27.9426 27.0109 28.2406C27.0394 28.8117 26.6662 29.3256 26.1141 29.475C25.826 29.553 25.5767 29.7341 25.4136 29.9839C25.101 30.4627 24.4969 30.659 23.9625 30.4554C23.6837 30.3492 23.3755 30.3492 23.0967 30.4554C22.5623 30.659 21.9582 30.4627 21.6456 29.9839C21.4825 29.7341 21.2332 29.553 20.9451 29.475C20.3932 29.3256 20.0198 28.8117 20.0482 28.2406C20.0631 27.9426 19.9679 27.6495 19.7808 27.4172C19.422 26.9719 19.422 26.3368 19.7808 25.8915C19.9679 25.659 20.0631 25.3661 20.0482 25.068C20.0198 24.4969 20.393 23.9831 20.9451 23.8337C21.2332 23.7557 21.4825 23.5745 21.6456 23.3247C21.9582 22.8459 22.5623 22.6496 23.0967 22.8532C23.3755 22.9595 23.6836 22.9595 23.9625 22.8532Z" fill="#FEDE3A"/>
<path d="M23.8393 23.9293C24.2223 23.7833 24.6554 23.924 24.8796 24.2673C24.9966 24.4463 25.1752 24.5762 25.3817 24.6321C25.7775 24.7393 26.0451 25.1076 26.0247 25.5171C26.0141 25.7308 26.0823 25.9409 26.2165 26.1074C26.4737 26.4267 26.4737 26.882 26.2165 27.2013C26.0823 27.3678 26.0141 27.5779 26.0247 27.7916C26.0451 28.2011 25.7775 28.5695 25.3817 28.6765C25.1752 28.7325 24.9966 28.8623 24.8796 29.0414C24.6554 29.3846 24.2224 29.5253 23.8393 29.3794C23.6394 29.3033 23.4184 29.3033 23.2185 29.3794C22.8353 29.5253 22.4024 29.3846 22.1782 29.0414C22.0612 28.8622 21.8825 28.7325 21.676 28.6765C21.2802 28.5695 21.0126 28.2011 21.0331 27.7916C21.0437 27.5779 20.9754 27.3678 20.8413 27.2013C20.5842 26.882 20.5842 26.4267 20.8413 26.1074C20.9754 25.9409 21.0438 25.7308 21.0331 25.5171C21.0126 25.1076 21.2802 24.7393 21.676 24.6321C21.8825 24.5762 22.0612 24.4463 22.1782 24.2673C22.4024 23.924 22.8353 23.7833 23.2185 23.9293C23.4184 24.0054 23.6394 24.0054 23.8393 23.9293Z" fill="#E7AD27"/>
<path d="M23.7572 25.0554L23.9816 25.7461C24.0135 25.8444 24.1051 25.911 24.2085 25.911H24.9348C25.1659 25.911 25.2619 26.2066 25.0751 26.3425L24.4874 26.7695C24.4038 26.8302 24.3688 26.9379 24.4008 27.0361L24.6252 27.7269C24.6967 27.9467 24.4451 28.1295 24.2581 27.9936L23.6705 27.5666C23.5869 27.5059 23.4736 27.5059 23.3901 27.5666L22.8024 27.9936C22.6155 28.1295 22.364 27.9467 22.4353 27.7269L22.6598 27.0361C22.6916 26.9379 22.6567 26.8302 22.5732 26.7695L21.9855 26.3425C21.7986 26.2066 21.8946 25.911 22.1257 25.911H22.8521C22.9554 25.911 23.047 25.8444 23.0789 25.7461L23.3034 25.0554C23.3749 24.8357 23.6857 24.8357 23.7572 25.0554Z" fill="white"/>
<path d="M23.7572 25.0554L23.9816 25.7461C24.0135 25.8444 24.1051 25.911 24.2085 25.911H24.9348C25.1659 25.911 25.2619 26.2066 25.0751 26.3425L24.4874 26.7695C24.4038 26.8302 24.3688 26.9379 24.4008 27.0361L24.6252 27.7269C24.6967 27.9467 24.4451 28.1295 24.2581 27.9936L23.6705 27.5666C23.5869 27.5059 23.4736 27.5059 23.3901 27.5666L22.8024 27.9936C22.6155 28.1295 22.364 27.9467 22.4353 27.7269L22.6598 27.0361C22.6916 26.9379 22.6567 26.8302 22.5732 26.7695L21.9855 26.3425C21.7986 26.2066 21.8946 25.911 22.1257 25.911H22.8521C22.9554 25.911 23.047 25.8444 23.0789 25.7461L23.3034 25.0554C23.3749 24.8357 23.6857 24.8357 23.7572 25.0554Z" fill="white"/>
<path d="M24.4947 26.3057L25.0189 25.9248C25.1877 25.9846 25.2396 26.2242 25.0768 26.3425L24.4891 26.7695C24.414 26.8241 24.3781 26.9168 24.395 27.0064C24.3657 26.8854 24.2861 26.4794 24.4947 26.3057Z" fill="#D1D3D4"/>
<path d="M22.5676 26.3057L22.0434 25.9248C21.8746 25.9846 21.8227 26.2242 21.9855 26.3425L22.5732 26.7695C22.6484 26.8241 22.6842 26.9168 22.6673 27.0064C22.6966 26.8854 22.7762 26.4794 22.5676 26.3057Z" fill="#D1D3D4"/>
<path d="M24.5567 27.5197C24.4791 27.5891 24.3586 27.61 24.2569 27.536L23.6693 27.109C23.5857 27.0483 23.4725 27.0483 23.389 27.109L22.8013 27.536C22.6995 27.61 22.5789 27.5891 22.5015 27.5197L22.4343 27.7266C22.3629 27.9464 22.6144 28.1291 22.8014 27.9933L23.3891 27.5663C23.4726 27.5056 23.5859 27.5056 23.6695 27.5663L24.257 27.9933C24.444 28.1291 24.6954 27.9464 24.6241 27.7266L24.5567 27.5197Z" fill="#D1D3D4"/>
<rect x="57.0586" width="47.0588" height="50" rx="13.5294" fill="#1B1D1E"/>
<g clip-path="url(#clip0_13563_13384)">
<path d="M88.861 28.0687C89.7762 27.9572 91.7945 27.7173 92.1538 28.1801C92.513 28.6345 91.7519 30.546 91.4097 31.3944C91.3071 31.6517 91.5295 31.7545 91.7604 31.5574C93.2656 30.2887 93.659 27.64 93.3512 27.2544C93.0432 26.8774 90.4006 26.5515 88.7925 27.683C88.5445 27.8629 88.5873 28.103 88.861 28.0687Z" fill="#FF9900"/>
<path d="M80.5661 32.7055C84.0813 32.7055 88.1693 31.5997 90.9832 29.5169C91.445 29.174 91.043 28.6513 90.5726 28.8655C87.4167 30.2026 83.9871 30.8542 80.8654 30.8542C76.2384 30.8542 71.7654 29.577 68.1393 27.4684C67.8226 27.2799 67.5832 27.6055 67.8482 27.8456C71.201 30.8798 75.6397 32.7055 80.5661 32.7055Z" fill="#FF9900"/>
<path d="M74.9805 22.8911C74.9805 23.2083 75.0147 23.4653 75.0745 23.6539C75.1505 23.866 75.2421 24.0723 75.3484 24.271C75.391 24.3396 75.4082 24.4082 75.4082 24.4682C75.4082 24.554 75.3568 24.6398 75.2456 24.7254L74.7068 25.0855C74.6299 25.1368 74.5528 25.1626 74.4845 25.1626C74.3988 25.1626 74.3134 25.1196 74.2279 25.0425C74.1126 24.9183 74.0095 24.7835 73.9199 24.6396C73.8243 24.4749 73.7358 24.3062 73.6547 24.1339C72.9877 24.9225 72.1495 25.3169 71.1403 25.3169C70.4219 25.3169 69.849 25.1111 69.4299 24.6998C69.0108 24.2883 68.7969 23.7395 68.7969 23.054C68.7969 22.3253 69.0534 21.7339 69.5751 21.2882C70.0969 20.8424 70.7897 20.6197 71.6707 20.6197C71.9614 20.6197 72.2608 20.6453 72.5773 20.6882C72.8936 20.7311 73.2186 20.7996 73.5608 20.8767V20.251C73.5608 19.5996 73.4238 19.1453 73.1586 18.8796C72.8851 18.6139 72.4232 18.4854 71.7647 18.4854C71.4653 18.4854 71.1575 18.5196 70.841 18.5967C70.5266 18.6718 70.2179 18.7693 69.9173 18.8883C69.82 18.9319 69.7201 18.9691 69.618 18.9997C69.5582 19.0167 69.5153 19.0254 69.481 19.0254C69.3614 19.0254 69.3014 18.9397 69.3014 18.7597V18.3397C69.3014 18.2026 69.3188 18.0996 69.3614 18.0398C69.4041 17.9797 69.481 17.9197 69.6008 17.8595C69.9001 17.7053 70.2595 17.5768 70.6784 17.4739C71.0975 17.3626 71.5425 17.3109 72.0127 17.3109C73.0305 17.3109 73.7745 17.5425 74.2534 18.0053C74.7238 18.4681 74.9634 19.1711 74.9634 20.1139V22.8911H74.9805ZM71.5082 24.194C71.7903 24.194 72.0812 24.1425 72.389 24.0397C72.6969 23.9368 72.9706 23.7482 73.2014 23.4911C73.3384 23.3282 73.441 23.1483 73.4923 22.9425C73.5436 22.7368 73.5778 22.4882 73.5778 22.1969V21.8368C73.3184 21.7736 73.0558 21.725 72.791 21.6912C72.5244 21.6572 72.2559 21.64 71.9871 21.6396C71.414 21.6396 70.9949 21.751 70.7127 21.9824C70.4305 22.214 70.2936 22.5397 70.2936 22.9682C70.2936 23.371 70.3962 23.6711 70.6101 23.8768C70.8153 24.091 71.1147 24.194 71.508 24.194H71.5082ZM78.3758 25.1196C78.2219 25.1196 78.1193 25.0939 78.0508 25.034C77.9825 24.9825 77.9225 24.8624 77.8712 24.6996L75.8614 18.0739C75.8101 17.9023 75.7845 17.7911 75.7845 17.7311C75.7845 17.594 75.8528 17.5169 75.9897 17.5169H76.8278C76.9903 17.5169 77.1016 17.5425 77.1614 17.6025C77.2299 17.654 77.281 17.7741 77.3325 17.9368L78.7694 23.6111L80.1036 17.9368C80.1462 17.7652 80.1975 17.654 80.266 17.6025C80.3345 17.551 80.4541 17.5169 80.6082 17.5169H81.2923C81.4549 17.5169 81.566 17.5425 81.6345 17.6025C81.7029 17.654 81.7627 17.7741 81.7969 17.9368L83.1482 23.6797L84.6279 17.9368C84.6791 17.7652 84.7389 17.654 84.7988 17.6025C84.8673 17.551 84.9784 17.5169 85.1325 17.5169H85.9278C86.0647 17.5169 86.1416 17.5853 86.1416 17.7311C86.1416 17.7739 86.1332 17.8167 86.1245 17.8682C86.1111 17.9413 86.0911 18.013 86.0647 18.0824L84.0036 24.7085C83.9521 24.8799 83.8923 24.9912 83.8238 25.0426C83.7555 25.0941 83.6443 25.1284 83.4988 25.1284H82.7634C82.6008 25.1284 82.4895 25.1026 82.4212 25.0426C82.3529 24.9827 82.293 24.8712 82.2588 24.6998L80.9332 19.1713L79.616 24.6913C79.5732 24.8627 79.5219 24.9742 79.4534 25.0341C79.3851 25.0941 79.2653 25.1198 79.1114 25.1198L78.3758 25.1196ZM89.366 25.3512C88.9212 25.3512 88.4764 25.2997 88.0488 25.1969C87.6212 25.0939 87.2877 24.9825 87.0653 24.8539C86.9284 24.7767 86.8345 24.6909 86.8001 24.614C86.7669 24.5383 86.7494 24.4566 86.7488 24.3739V23.9368C86.7488 23.7569 86.8173 23.6711 86.9456 23.6711C86.9969 23.6711 87.0482 23.6797 87.0995 23.6967C87.1508 23.714 87.2278 23.7482 87.3134 23.7825C87.6154 23.9156 87.9309 24.0161 88.2542 24.0824C88.5962 24.151 88.9299 24.1853 89.2719 24.1853C89.8108 24.1853 90.2299 24.091 90.5206 23.9025C90.8114 23.7139 90.9653 23.4397 90.9653 23.0881C90.9653 22.8482 90.8884 22.6512 90.7345 22.4882C90.5805 22.3253 90.2897 22.1797 89.8706 22.0426L88.6305 21.6567C88.0062 21.4597 87.5443 21.1683 87.2621 20.7825C86.9799 20.4053 86.8345 19.9853 86.8345 19.5397C86.8345 19.1796 86.9114 18.8624 87.0653 18.5882C87.2193 18.314 87.4245 18.0739 87.6812 17.8854C87.9377 17.6883 88.2284 17.5425 88.5706 17.4397C88.9127 17.3368 89.2719 17.2939 89.6482 17.2939C89.8364 17.2939 90.0332 17.3026 90.2212 17.3283C90.418 17.3539 90.5975 17.3882 90.7771 17.4226C90.9482 17.4654 91.1108 17.5082 91.2647 17.5595C91.4186 17.6111 91.5384 17.6625 91.6238 17.7139C91.7436 17.7826 91.8292 17.851 91.8805 17.9282C91.9318 17.9968 91.9575 18.0911 91.9575 18.2111V18.6141C91.9575 18.7941 91.889 18.8884 91.7608 18.8884C91.6923 18.8884 91.5812 18.8541 91.4358 18.7855C90.9482 18.5627 90.4008 18.4513 89.7936 18.4513C89.3062 18.4513 88.9212 18.5284 88.6562 18.6912C88.391 18.8541 88.2542 19.1027 88.2542 19.4542C88.2542 19.6941 88.3397 19.8997 88.5108 20.0626C88.6818 20.2255 88.9982 20.3885 89.4514 20.5341L90.666 20.9199C91.2818 21.117 91.7264 21.3914 91.9916 21.7427C92.2568 22.0941 92.3851 22.4969 92.3851 22.9427C92.3851 23.3112 92.3082 23.6456 92.1627 23.9369C92.0088 24.2283 91.8036 24.4855 91.5384 24.6913C91.2732 24.9055 90.9568 25.0598 90.589 25.1713C90.2042 25.2912 89.8021 25.3512 89.366 25.3512Z" fill="#A3ACB5"/>
</g>
<defs>
<clipPath id="clip0_13563_13384">
<rect width="26" height="26" fill="white" transform="translate(67.5898 12)"/>
</clipPath>
</defs>
</svg>
