<svg width="105" height="50" viewBox="0 0 105 50" fill="none" xmlns="http://www.w3.org/2000/svg">
<rect width="47.0588" height="50" rx="13.5294" fill="#1B1D1E"/>
<path d="M23.5312 40.9375C32.3333 40.9375 39.4688 33.802 39.4688 25C39.4688 16.198 32.3333 9.0625 23.5312 9.0625C14.7292 9.0625 7.59375 16.198 7.59375 25C7.59375 33.802 14.7292 40.9375 23.5312 40.9375Z" fill="#382B73"/>
<path d="M23.5312 38.6133C31.0497 38.6133 37.1445 32.5184 37.1445 25C37.1445 17.4816 31.0497 11.3867 23.5312 11.3867C16.0128 11.3867 9.91797 17.4816 9.91797 25C9.91797 32.5184 16.0128 38.6133 23.5312 38.6133Z" fill="#473080"/>
<path d="M30.1766 27.3263L26.1287 24.1749V20.4723C26.1287 18.8037 25.6052 17.1674 24.6155 15.7423L24.2583 15.2282C23.906 14.7208 23.1557 14.7208 22.8034 15.2282L22.4462 15.7423C21.4565 17.1674 20.933 18.8037 20.933 20.4723V24.1749L16.8851 27.3263C16.6766 27.4886 16.5547 27.738 16.5547 28.0022V28.4401C16.5547 28.9132 16.9382 29.2967 17.4113 29.2967H20.0498C20.0775 29.816 20.4353 30.2668 20.9464 30.405C21.0202 30.425 21.0916 30.4518 21.1594 30.4849L20.9528 31.3407C20.8157 31.9083 20.9993 32.5979 21.2875 32.5979H21.7151C21.5324 32.9096 21.4276 33.2726 21.4276 33.6599C21.4276 34.6023 22.812 36.2218 23.3344 36.7994C23.4398 36.916 23.6216 36.916 23.7271 36.7994C24.2496 36.2218 25.6339 34.6022 25.6339 33.6599C25.6339 33.2725 25.5291 32.9095 25.3463 32.5979H25.6729C25.9611 32.5979 26.1448 31.9083 26.0078 31.3407L25.8126 30.5329C25.9065 30.4773 26.0081 30.434 26.1152 30.405C26.6263 30.2667 26.9841 29.816 27.0118 29.2967H29.6503C30.1233 29.2967 30.5069 28.9132 30.5069 28.4401V28.0022C30.507 27.738 30.3851 27.4886 30.1766 27.3263Z" fill="#382B73"/>
<path d="M21.4258 32.7302C21.4258 31.5686 22.3674 30.627 23.529 30.627C24.6906 30.627 25.6322 31.5686 25.6322 32.7302C25.6322 33.6726 24.2478 35.2921 23.7254 35.8697C23.62 35.9863 23.4382 35.9863 23.3327 35.8697C22.8102 35.2921 21.4258 33.6725 21.4258 32.7302Z" fill="#E7AD27"/>
<path d="M25.1503 31.563C25.1503 31.5009 25.1461 31.4398 25.1393 31.3793C24.7535 30.9197 24.1752 30.6271 23.5283 30.627C22.8812 30.627 22.3031 30.9197 21.9173 31.3793C21.9105 31.4396 21.9062 31.5007 21.9062 31.563C21.9062 32.2637 22.8985 33.4497 23.3309 33.9333C23.4364 34.0513 23.6205 34.0513 23.7259 33.9333C24.1581 33.4497 25.1503 32.2637 25.1503 31.563Z" fill="#FEDE3A"/>
<path d="M25.8099 29.3046H21.2539V19.5431C21.2539 17.8745 21.713 16.2382 22.5808 14.8131L22.894 14.2988C23.185 13.821 23.8788 13.821 24.1698 14.2988L24.483 14.8129C25.3509 16.238 25.8099 17.8744 25.8099 19.5429V29.3046Z" fill="#E6E7E8"/>
<path d="M24.6651 29.3045H22.4023V19.5429C22.4023 17.8744 22.6304 16.238 23.0614 14.8129L23.2169 14.2988C23.3614 13.821 23.7059 13.821 23.8505 14.2988L24.0061 14.8129C24.437 16.238 24.6651 17.8744 24.6651 19.5429V29.3045Z" fill="white"/>
<path d="M21.2539 19.251H25.8099V19.9915H21.2539V19.251Z" fill="#EF5A9D"/>
<path d="M21.2539 23.2461H25.8099V23.9865H21.2539V23.2461Z" fill="#EF5A9D"/>
<path d="M21.2539 25.3125H25.8099V25.6828H21.2539V25.3125Z" fill="#D1D3D4"/>
<path d="M21.2539 26.6543H25.8099V27.0246H21.2539V26.6543Z" fill="#D1D3D4"/>
<path d="M21.2539 27.9971H25.8099V28.3674H21.2539V27.9971Z" fill="#D1D3D4"/>
<path d="M25.8228 29.3042H21.2399C21.0707 29.3042 20.9336 29.167 20.9336 28.9979V19.5426C20.9336 17.8741 21.4571 16.2377 22.4469 14.8126L22.804 14.2985C23.1563 13.7911 23.9066 13.7911 24.259 14.2985L24.6161 14.8126C25.6058 16.2377 26.1293 17.8741 26.1293 19.5426V28.9979C26.1291 29.167 25.9919 29.3042 25.8228 29.3042Z" fill="#E6E7E8"/>
<path d="M24.8225 29.3045H22.2422V19.5429C22.2422 17.8744 22.5022 16.238 22.9938 14.8129L23.1711 14.2988C23.3359 13.821 23.7288 13.821 23.8936 14.2988L24.0709 14.8129C24.5624 16.238 24.8225 17.8744 24.8225 19.5429V29.3045Z" fill="white"/>
<path d="M20.9336 19.251H26.1292V19.9914H20.9336V19.251Z" fill="#E43D91"/>
<path d="M22.2422 19.5426V19.9914H24.8225V19.5426C24.8225 19.4451 24.8186 19.3482 24.8168 19.251H22.2478C22.246 19.3482 22.2422 19.445 22.2422 19.5426Z" fill="#EF5A9D"/>
<path d="M26.0078 30.4109L25.7406 29.3047H21.2198L20.9526 30.4109C20.8155 30.9785 20.9991 31.6681 21.2873 31.6681H25.673C25.9613 31.6681 26.1449 30.9785 26.0078 30.4109Z" fill="#E43D91"/>
<path d="M24.8819 30.4109L24.7337 29.3047H22.2247L22.0765 30.4109C22.0004 30.9785 22.1023 31.6681 22.2623 31.6681H24.6962C24.8561 31.6681 24.958 30.9785 24.8819 30.4109Z" fill="#EF5A9D"/>
<path d="M30.5072 27.0724V27.5103C30.5072 27.9833 30.1236 28.3669 29.6506 28.3669H26.1289V23.2451L30.1768 26.3965C30.3853 26.5588 30.5072 26.8082 30.5072 27.0724Z" fill="#EF5A9D"/>
<path d="M29.6506 27.5703H26.1289V28.3672H29.6506C30.1236 28.3672 30.5072 27.9836 30.5072 27.5105V27.0726C30.5072 27.0121 30.5 26.9526 30.4877 26.8945C30.4045 27.2808 30.0616 27.5703 29.6506 27.5703Z" fill="#E43D91"/>
<path d="M27.0156 23.9365V25.0601C27.0156 25.1402 27.0535 25.2156 27.1176 25.2636L28.6822 26.4317C28.8496 26.5566 29.0879 26.4372 29.0879 26.2282V25.5498L27.0156 23.9365Z" fill="#F06EA9"/>
<path d="M16.5547 27.0724V27.5103C16.5547 27.9833 16.9383 28.3669 17.4113 28.3669H20.933V23.2451L16.8851 26.3965C16.6766 26.5588 16.5547 26.8082 16.5547 27.0724Z" fill="#EF5A9D"/>
<path d="M16.5742 26.8945C16.5619 26.9526 16.5547 27.0122 16.5547 27.0726V27.5105C16.5547 27.9836 16.9383 28.3672 17.4113 28.3672H20.933V27.5703H17.4113C17.0003 27.5703 16.6574 27.2808 16.5742 26.8945Z" fill="#E43D91"/>
<path d="M20.0449 23.9365V25.0601C20.0449 25.1402 20.0071 25.2156 19.9429 25.2636L18.3784 26.4317C18.2109 26.5566 17.9727 26.4372 17.9727 26.2282V25.5498L20.0449 23.9365Z" fill="#F06EA9"/>
<path d="M23.9625 22.8532C24.4969 22.6496 25.101 22.8459 25.4136 23.3247C25.5767 23.5745 25.8261 23.7557 26.1141 23.8337C26.666 23.9831 27.0394 24.4969 27.0109 25.068C26.9961 25.3661 27.0913 25.6592 27.2786 25.8915C27.6373 26.3368 27.6373 26.9719 27.2786 27.4172C27.0914 27.6495 26.9962 27.9426 27.0109 28.2406C27.0394 28.8117 26.6662 29.3256 26.1141 29.475C25.826 29.553 25.5767 29.7341 25.4136 29.9839C25.101 30.4627 24.4969 30.659 23.9625 30.4554C23.6837 30.3492 23.3755 30.3492 23.0967 30.4554C22.5623 30.659 21.9582 30.4627 21.6456 29.9839C21.4825 29.7341 21.2332 29.553 20.9451 29.475C20.3932 29.3256 20.0198 28.8117 20.0482 28.2406C20.0631 27.9426 19.9679 27.6495 19.7808 27.4172C19.422 26.9719 19.422 26.3368 19.7808 25.8915C19.9679 25.659 20.0631 25.3661 20.0482 25.068C20.0198 24.4969 20.393 23.9831 20.9451 23.8337C21.2332 23.7557 21.4825 23.5745 21.6456 23.3247C21.9582 22.8459 22.5623 22.6496 23.0967 22.8532C23.3755 22.9595 23.6836 22.9595 23.9625 22.8532Z" fill="#FEDE3A"/>
<path d="M23.8393 23.9293C24.2223 23.7833 24.6554 23.924 24.8796 24.2673C24.9966 24.4463 25.1752 24.5762 25.3817 24.6321C25.7775 24.7393 26.0451 25.1076 26.0247 25.5171C26.0141 25.7308 26.0823 25.9409 26.2165 26.1074C26.4737 26.4267 26.4737 26.882 26.2165 27.2013C26.0823 27.3678 26.0141 27.5779 26.0247 27.7916C26.0451 28.2011 25.7775 28.5695 25.3817 28.6765C25.1752 28.7325 24.9966 28.8623 24.8796 29.0414C24.6554 29.3846 24.2224 29.5253 23.8393 29.3794C23.6394 29.3033 23.4184 29.3033 23.2185 29.3794C22.8353 29.5253 22.4024 29.3846 22.1782 29.0414C22.0612 28.8622 21.8825 28.7325 21.676 28.6765C21.2802 28.5695 21.0126 28.2011 21.0331 27.7916C21.0437 27.5779 20.9754 27.3678 20.8413 27.2013C20.5842 26.882 20.5842 26.4267 20.8413 26.1074C20.9754 25.9409 21.0438 25.7308 21.0331 25.5171C21.0126 25.1076 21.2802 24.7393 21.676 24.6321C21.8825 24.5762 22.0612 24.4463 22.1782 24.2673C22.4024 23.924 22.8353 23.7833 23.2185 23.9293C23.4184 24.0054 23.6394 24.0054 23.8393 23.9293Z" fill="#E7AD27"/>
<path d="M23.7572 25.0554L23.9816 25.7461C24.0135 25.8444 24.1051 25.911 24.2085 25.911H24.9348C25.1659 25.911 25.2619 26.2066 25.0751 26.3425L24.4874 26.7695C24.4038 26.8302 24.3688 26.9379 24.4008 27.0361L24.6252 27.7269C24.6967 27.9467 24.4451 28.1295 24.2581 27.9936L23.6705 27.5666C23.5869 27.5059 23.4736 27.5059 23.3901 27.5666L22.8024 27.9936C22.6155 28.1295 22.364 27.9467 22.4353 27.7269L22.6598 27.0361C22.6916 26.9379 22.6567 26.8302 22.5732 26.7695L21.9855 26.3425C21.7986 26.2066 21.8946 25.911 22.1257 25.911H22.8521C22.9554 25.911 23.047 25.8444 23.0789 25.7461L23.3034 25.0554C23.3749 24.8357 23.6857 24.8357 23.7572 25.0554Z" fill="white"/>
<path d="M23.7572 25.0554L23.9816 25.7461C24.0135 25.8444 24.1051 25.911 24.2085 25.911H24.9348C25.1659 25.911 25.2619 26.2066 25.0751 26.3425L24.4874 26.7695C24.4038 26.8302 24.3688 26.9379 24.4008 27.0361L24.6252 27.7269C24.6967 27.9467 24.4451 28.1295 24.2581 27.9936L23.6705 27.5666C23.5869 27.5059 23.4736 27.5059 23.3901 27.5666L22.8024 27.9936C22.6155 28.1295 22.364 27.9467 22.4353 27.7269L22.6598 27.0361C22.6916 26.9379 22.6567 26.8302 22.5732 26.7695L21.9855 26.3425C21.7986 26.2066 21.8946 25.911 22.1257 25.911H22.8521C22.9554 25.911 23.047 25.8444 23.0789 25.7461L23.3034 25.0554C23.3749 24.8357 23.6857 24.8357 23.7572 25.0554Z" fill="white"/>
<path d="M24.4947 26.3057L25.0189 25.9248C25.1877 25.9846 25.2396 26.2242 25.0768 26.3425L24.4891 26.7695C24.414 26.8241 24.3781 26.9168 24.395 27.0064C24.3657 26.8854 24.2861 26.4794 24.4947 26.3057Z" fill="#D1D3D4"/>
<path d="M22.5676 26.3057L22.0434 25.9248C21.8746 25.9846 21.8227 26.2242 21.9855 26.3425L22.5732 26.7695C22.6484 26.8241 22.6842 26.9168 22.6673 27.0064C22.6966 26.8854 22.7762 26.4794 22.5676 26.3057Z" fill="#D1D3D4"/>
<path d="M24.5567 27.5197C24.4791 27.5891 24.3586 27.61 24.2569 27.536L23.6693 27.109C23.5857 27.0483 23.4725 27.0483 23.389 27.109L22.8013 27.536C22.6995 27.61 22.5789 27.5891 22.5015 27.5197L22.4343 27.7266C22.3629 27.9464 22.6144 28.1291 22.8014 27.9933L23.3891 27.5663C23.4726 27.5056 23.5859 27.5056 23.6695 27.5663L24.257 27.9933C24.444 28.1291 24.6954 27.9464 24.6241 27.7266L24.5567 27.5197Z" fill="#D1D3D4"/>
<rect x="57.0586" width="47.0588" height="50" rx="13.5294" fill="#1B1D1E"/>
<path d="M94.8052 25.093C94.8052 23.2943 92.506 21.5896 88.9808 20.5325C89.7943 17.0126 89.4328 14.2121 87.8396 13.3155C87.4724 13.1052 87.0431 13.0055 86.5742 13.0055V14.2397C86.8341 14.2397 87.0431 14.2896 87.2182 14.3836C87.9865 14.8153 88.3199 16.4591 88.0599 18.5733C87.9979 19.0936 87.8962 19.6415 87.7719 20.2005C86.6646 19.9348 85.4556 19.73 84.1846 19.5972C83.422 18.5733 82.631 17.6435 81.8344 16.8299C83.6761 15.1529 85.4049 14.2342 86.5799 14.2342V13C85.0263 13 82.9926 14.0848 80.9363 15.9665C78.8799 14.0958 76.8462 13.0221 75.2927 13.0221V14.2563C76.462 14.2563 78.1963 15.1696 80.038 16.8355C79.2471 17.649 78.4562 18.5733 77.7048 19.5972C76.4281 19.73 75.2191 19.9348 74.1119 20.206C73.9819 19.6526 73.8859 19.1157 73.8181 18.601C73.5527 16.4868 73.8802 14.843 74.643 14.4058C74.8124 14.3062 75.0327 14.2619 75.2927 14.2619V13.0277C74.8181 13.0277 74.3887 13.1273 74.0159 13.3376C72.4284 14.2342 72.0725 17.0292 72.8916 20.5381C69.3778 21.6007 67.0898 23.2998 67.0898 25.093C67.0898 26.8918 69.3891 28.5965 72.9142 29.6535C72.1007 33.1735 72.4623 35.9739 74.0554 36.8706C74.4227 37.0808 74.8519 37.1805 75.3265 37.1805C76.88 37.1805 78.9138 36.0957 80.9701 34.214C83.0264 36.0847 85.0602 37.1584 86.6138 37.1584C87.0882 37.1584 87.5176 37.0588 87.8905 36.8484C89.4779 35.9518 89.8339 33.1568 89.0147 29.648C92.5172 28.5909 94.8052 26.8862 94.8052 25.093ZM87.4499 21.4015C87.2408 22.1155 86.981 22.8515 86.6872 23.5876C86.4556 23.1449 86.2127 22.7021 85.9472 22.2593C85.6873 21.8166 85.4104 21.3849 85.1336 20.9642C85.9358 21.0805 86.7098 21.2244 87.4499 21.4015ZM84.8624 27.2958C84.4218 28.043 83.9699 28.7514 83.501 29.41C82.6592 29.4819 81.8063 29.5207 80.9475 29.5207C80.0945 29.5207 79.2414 29.4819 78.4054 29.4155C77.9365 28.7568 77.4788 28.054 77.0382 27.3123C76.6088 26.5874 76.2191 25.8512 75.8631 25.1097C76.2134 24.368 76.6088 23.6263 77.0326 22.9013C77.4733 22.1542 77.9251 21.4457 78.394 20.7871C79.2358 20.7152 80.0888 20.6764 80.9475 20.6764C81.8006 20.6764 82.6537 20.7152 83.4897 20.7816C83.9586 21.4402 84.4162 22.1431 84.8569 22.8848C85.2862 23.6097 85.6759 24.3459 86.0319 25.0875C85.6759 25.8291 85.2862 26.5708 84.8624 27.2958ZM86.6872 26.5763C86.9837 27.2976 87.2439 28.0327 87.4668 28.779C86.7267 28.9561 85.9472 29.1056 85.1393 29.2218C85.4161 28.7957 85.6929 28.3585 85.9528 27.9101C86.2127 27.4674 86.4556 27.019 86.6872 26.5763ZM80.9588 32.4817C80.4334 31.9503 79.908 31.3581 79.3883 30.7106C79.8968 30.7328 80.4165 30.7494 80.9418 30.7494C81.4729 30.7494 81.9983 30.7383 82.5124 30.7106C82.0275 31.328 81.5089 31.9192 80.9588 32.4817ZM76.7557 29.2218C75.9536 29.1056 75.1796 28.9617 74.4396 28.7846C74.6485 28.0706 74.9085 27.3345 75.2022 26.5984C75.4339 27.0412 75.6768 27.484 75.9422 27.9267C76.2077 28.3695 76.479 28.8012 76.7557 29.2218ZM80.9306 17.7044C81.456 18.2357 81.9814 18.8279 82.5011 19.4754C81.9926 19.4533 81.4729 19.4367 80.9475 19.4367C80.4165 19.4367 79.8911 19.4478 79.3771 19.4754C79.862 18.8581 80.3806 18.2669 80.9306 17.7044ZM76.7501 20.9642C76.4733 21.3904 76.1965 21.8276 75.9367 22.2759C75.6768 22.7187 75.4339 23.1615 75.2022 23.6042C74.9056 22.8829 74.6455 22.1478 74.4227 21.4015C75.1627 21.2299 75.9422 21.0805 76.7501 20.9642ZM71.6375 27.8935C69.6377 27.0578 68.344 25.962 68.344 25.093C68.344 24.2241 69.6377 23.1227 71.6375 22.2926C72.1233 22.0878 72.6544 21.9051 73.2024 21.7335C73.5244 22.8183 73.9481 23.9474 74.4735 25.1041C73.9538 26.2553 73.5356 27.3788 73.2193 28.4581C72.6601 28.2864 72.129 28.0983 71.6375 27.8935ZM74.6768 35.8024C73.9085 35.3707 73.5752 33.727 73.8351 31.6127C73.8973 31.0925 73.9989 30.5445 74.1232 29.9855C75.2305 30.2512 76.4394 30.456 77.7105 30.5888C78.4731 31.6127 79.264 32.5425 80.0606 33.3561C78.2189 35.0331 76.4902 35.9518 75.3151 35.9518C75.061 35.9463 74.8464 35.8965 74.6768 35.8024ZM88.077 31.5851C88.3424 33.6993 88.0148 35.343 87.2521 35.7803C87.0827 35.8799 86.8624 35.9242 86.6024 35.9242C85.433 35.9242 83.6987 35.011 81.8571 33.3451C82.648 32.5315 83.4389 31.6072 84.1903 30.5833C85.467 30.4505 86.6759 30.2457 87.7831 29.9745C87.9131 30.5335 88.0148 31.0704 88.077 31.5851ZM90.2519 27.8935C89.766 28.0983 89.235 28.281 88.687 28.4525C88.365 27.3678 87.9413 26.2387 87.4159 25.082C87.9357 23.9308 88.3537 22.8073 88.6701 21.728C89.2294 21.8996 89.7604 22.0878 90.2576 22.2926C92.2574 23.1282 93.5511 24.2241 93.5511 25.093C93.5454 25.962 92.2517 27.0633 90.2519 27.8935Z" fill="#61DAFB"/>
<path d="M80.941 27.6221C82.367 27.6221 83.5228 26.4897 83.5228 25.0927C83.5228 23.6959 82.367 22.5635 80.941 22.5635C79.5152 22.5635 78.3594 23.6959 78.3594 25.0927C78.3594 26.4897 79.5152 27.6221 80.941 27.6221Z" fill="#61DAFB"/>
</svg>
