<svg width="22" height="32" viewBox="0 0 22 32" fill="none" xmlns="http://www.w3.org/2000/svg">
<path d="M14.6471 23.9312H6.73447C6.14588 23.9312 5.66797 24.4089 5.66797 24.9979C5.66797 25.587 6.14588 26.0645 6.73447 26.0645H14.6471C15.2357 26.0645 15.7141 25.587 15.7141 24.9979C15.7141 24.4089 15.2357 23.9312 14.6471 23.9312Z" fill="#EBF1FE"/>
<path d="M8.61562 30.2314V30.8125C8.61562 31.4684 9.14666 32 9.80302 32H11.5759C12.231 32 12.7633 31.4684 12.7633 30.8125V30.2314C14.1072 30.1358 15.1709 29.0271 15.1709 27.6594H6.20703C6.2071 29.0271 7.27191 30.1358 8.61562 30.2314Z" fill="#EBF1FE"/>
<path d="M10.6908 0C4.78651 0 0 4.78605 0 10.6902C0 13.1816 0.857005 15.4685 2.28847 17.2842C3.55432 18.8888 4.75415 20.643 5.78837 22.407H15.5916C16.6365 20.6263 17.8146 18.905 19.0928 17.283C20.523 15.4681 21.3805 13.1808 21.3805 10.6901C21.3805 4.78612 16.5939 0 10.6908 0ZM10.7086 3.70894C6.91333 3.70894 3.82716 6.79556 3.82716 10.5897C3.82716 11.1788 3.35016 11.6564 2.7602 11.6564C2.17064 11.6564 1.69363 11.1788 1.69363 10.5897C1.69363 5.61942 5.73739 1.57567 10.7086 1.57567C11.2967 1.57567 11.7752 2.05313 11.7752 2.64217C11.7752 3.23122 11.2967 3.70894 10.7086 3.70894Z" fill="#EBF1FE"/>
</svg>
