<svg width="32" height="27" viewBox="0 0 32 27" fill="none" xmlns="http://www.w3.org/2000/svg">
<path d="M27.1646 5.7645L27.6558 4.91362C27.9149 4.465 27.7611 3.89188 27.3125 3.63281C26.8648 3.37281 26.2907 3.5275 26.0317 3.97612L25.5381 4.83112C24.3522 4.27162 23.0566 3.91069 21.6876 3.79738V1.875H22.6251C23.1433 1.875 23.5626 1.45569 23.5626 0.9375C23.5626 0.419312 23.1433 0 22.6251 0H18.8751C18.3569 0 17.9376 0.419312 17.9376 0.9375C17.9376 1.45569 18.3569 1.875 18.8751 1.875H19.8126V3.79738C18.4435 3.91069 17.1479 4.27162 15.962 4.83112L15.4684 3.97612C15.2075 3.5275 14.6326 3.37281 14.1876 3.63281C13.739 3.89194 13.5852 4.465 13.8443 4.91362L14.3355 5.7645C11.4152 7.79662 9.5 11.1726 9.5 15C9.5 21.2132 14.5367 26.25 20.75 26.25C26.9632 26.25 32 21.2132 32 15C32 11.1726 30.0848 7.79662 27.1646 5.7645ZM26.0536 11.0221L21.4128 15.6629C21.0466 16.0291 20.4534 16.0291 20.0871 15.6629C19.7209 15.2967 19.7209 14.7034 20.0871 14.3372L24.0102 10.4141C23.0644 9.73844 21.9356 9.375 20.75 9.375C17.6482 9.375 15.125 11.8982 15.125 15C15.125 15.5182 14.7057 15.9375 14.1875 15.9375C13.6693 15.9375 13.25 15.5182 13.25 15C13.25 10.8646 16.6146 7.5 20.75 7.5C22.7541 7.5 24.6373 8.28 26.0536 9.69637C26.4199 10.0626 26.4199 10.6558 26.0536 11.0221Z" fill="#F5FAFE"/>
<path d="M10.6372 6.64355C9.17213 6.71462 8.06675 7.69824 7.17731 8.5033C6.3405 9.26318 5.61725 9.91868 4.75575 9.91868C3.79706 9.91868 2.69669 8.83743 1.57931 7.75437C1.3065 7.49799 0.909125 7.43024 0.564937 7.57674C0.2225 7.72518 0 8.06387 0 8.43743V10.3124C0 13.4948 2.40194 16.1553 5.41219 16.7504C4.807 17.5589 3.50881 18.4002 2.55206 18.8332C2.3195 18.9376 2.14006 19.1336 2.05494 19.3734C1.96888 19.6133 1.98538 19.8788 2.09888 20.1067C2.84688 21.6027 5.1375 23.5427 7.90881 24.1909C9.28788 24.5126 10.3281 24.4534 11.3996 24.1951C9.06856 21.8249 7.625 18.5791 7.625 14.9999C7.625 11.8276 8.75694 8.91512 10.6372 6.64355Z" fill="#F5FAFE"/>
</svg>
