<svg width="32" height="32" viewBox="0 0 32 32" fill="none" xmlns="http://www.w3.org/2000/svg">
<path d="M20.5731 23.4285H24.0017C24.6321 23.4304 25.1427 23.941 25.1446 24.5714V26.2857C25.1446 26.6013 24.8887 26.8571 24.5731 26.8571C24.2576 26.8571 24.0017 26.6013 24.0017 26.2857V24.5714H20.5731V29.1428C20.5731 29.4584 20.3173 29.7143 20.0017 29.7143C19.6861 29.7143 19.4303 29.4584 19.4303 29.1428V21.1428H13.1446C12.5142 21.1409 12.0036 20.6304 12.0017 20V14.8571H6.28744V17.7143C6.28744 18.0299 6.0316 18.2857 5.71601 18.2857C5.40042 18.2857 5.14458 18.0299 5.14458 17.7143V14.8571C5.14646 14.2267 5.65703 13.7161 6.28744 13.7143H12.0017C12.6321 13.7161 13.1427 14.2267 13.1446 14.8571V20H15.4303V12H11.4303C11.1147 12 10.8589 11.7441 10.8589 11.4285C10.8589 11.113 11.1147 10.8571 11.4303 10.8571H15.4303C16.0607 10.859 16.5713 11.3696 16.5732 12V20H22.2874V2.85712C22.2812 2.56272 22.2351 2.27054 22.1503 1.98854V1.98283C21.7196 0.643353 20.3778 -0.18318 18.9878 0.0347256C17.5978 0.252631 16.5733 1.4501 16.5732 2.85712V5.71426C16.5732 6.02985 16.3173 6.28569 16.0017 6.28569C15.6861 6.28569 15.4303 6.02985 15.4303 5.71426V2.85712C15.4302 1.4501 14.4057 0.252631 13.0156 0.0347256C11.6256 -0.18318 10.2838 0.643353 9.85315 1.98283V1.99426C9.76738 2.27407 9.72122 2.56451 9.71601 2.85712V5.71426C9.71601 6.02985 9.46017 6.28569 9.14458 6.28569C8.82899 6.28569 8.57315 6.02985 8.57315 5.71426V2.85712C8.57301 2.66762 8.58829 2.47842 8.61886 2.2914C8.60411 2.2867 8.58861 2.28476 8.57315 2.28569C7.31078 2.28569 6.28744 3.30904 6.28744 4.5714C6.28647 5.07685 6.45554 5.56794 6.76744 5.96569C6.89345 6.12882 6.92184 6.34718 6.84172 6.53712C6.76403 6.72777 6.58899 6.86123 6.38458 6.88569C5.24836 7.01961 4.22416 7.63445 3.57174 8.57428C2.91932 9.51411 2.70137 10.6886 2.97315 11.8C3.02467 12.0029 2.96109 12.2178 2.80744 12.36C2.11159 13.0039 1.71599 13.909 1.71601 14.8571C1.71112 15.668 1.99928 16.4533 2.52744 17.0685C2.62817 17.1876 2.6775 17.3417 2.66458 17.4971C2.64652 17.6519 2.56857 17.7934 2.44744 17.8914C1.6205 18.5339 1.13907 19.5242 1.14458 20.5714C1.146 22.088 2.14265 23.4238 3.59601 23.8571C3.8592 23.9353 4.02957 24.1897 4.00172 24.4628V24.5714C3.99441 26.4365 5.28084 28.0576 7.09886 28.4743C7.31461 28.5185 7.48321 28.6871 7.52744 28.9028C7.98799 30.8838 9.86063 32.2047 11.8813 31.9738C13.9019 31.743 15.4284 30.0338 15.4303 28V24H13.1446V25.7143C13.1427 26.3447 12.6321 26.8552 12.0017 26.8571H9.71601C9.08561 26.8552 8.57503 26.3447 8.57315 25.7143V21.1428H4.00172C3.68613 21.1428 3.43029 20.887 3.43029 20.5714C3.43029 20.2558 3.68613 20 4.00172 20H8.57315V17.7143C8.57315 17.3987 8.82899 17.1428 9.14458 17.1428C9.46017 17.1428 9.71601 17.3987 9.71601 17.7143V25.7143H12.0017V24C12.0036 23.3696 12.5142 22.859 13.1446 22.8571H15.4303C16.0607 22.859 16.5713 23.3696 16.5732 24V28C16.574 29.9144 17.9312 31.5599 19.8105 31.9249C21.6899 32.2899 23.5644 31.2721 24.2817 29.4971C24.3258 29.3888 24.3639 29.2782 24.396 29.1657L24.4303 29.0571C24.4444 29.0179 24.4558 28.9778 24.4646 28.9371C24.5171 28.7148 24.6852 28.538 24.9046 28.4743C26.7226 28.0576 28.009 26.4365 28.0017 24.5714V24.4628C27.9739 24.1897 28.1442 23.9353 28.4074 23.8571C29.6572 23.4804 30.5866 22.4294 30.8074 21.1428H20.5731V23.4285ZM8.00172 9.14283C8.0036 8.51243 8.51418 8.00186 9.14458 7.99997H18.8589V2.28569C18.8589 1.9701 19.1147 1.71426 19.4303 1.71426C19.7459 1.71426 20.0017 1.9701 20.0017 2.28569V15.4285C20.0017 15.7441 19.7459 16 19.4303 16C19.1147 16 18.8589 15.7441 18.8589 15.4285V9.14283H9.14458V11.4285C9.14458 11.7441 8.88874 12 8.57315 12C8.25756 12 8.00172 11.7441 8.00172 11.4285V9.14283Z" fill="#F5FAFE"/>
<path d="M29.5542 17.8913C29.4331 17.7933 29.3552 17.6518 29.3371 17.4971C29.3242 17.3417 29.3735 17.1875 29.4742 17.0685C29.8746 16.6028 30.1378 16.035 30.2342 15.4285H25.7142C25.3987 15.4285 25.1428 15.1726 25.1428 14.8571C25.1428 14.5415 25.3987 14.2856 25.7142 14.2856H30.2342C30.1122 13.5457 29.7461 12.8678 29.1942 12.3599C29.0783 12.2497 29.0123 12.097 29.0114 11.9371C29.0114 11.8889 29.0172 11.841 29.0285 11.7942C29.1041 11.4875 29.1425 11.1729 29.1428 10.8571C29.1457 8.83033 27.6299 7.12287 25.6171 6.88563C25.4005 6.86254 25.2174 6.71512 25.1485 6.50848C25.0868 6.33606 25.1123 6.14442 25.2171 5.9942C25.2386 5.95946 25.2635 5.92693 25.2914 5.89705C25.2997 5.88416 25.3074 5.8708 25.3142 5.85705L25.3485 5.80563C25.4136 5.70539 25.4709 5.60032 25.52 5.49134C25.6487 5.20173 25.7149 4.88825 25.7142 4.57134C25.7142 3.30898 24.6909 2.28563 23.4285 2.28563C23.4131 2.2847 23.3976 2.28664 23.3828 2.29134C23.4134 2.47836 23.4287 2.66755 23.4285 2.85705V19.9999H30.8057C30.6661 19.1656 30.2198 18.4135 29.5542 17.8913Z" fill="#F5FAFE"/>
</svg>
