<svg width="32" height="32" viewBox="0 0 32 32" fill="none" xmlns="http://www.w3.org/2000/svg">
<path d="M16.375 12.5H15.625V11.5H16.875C17.0076 11.5 17.1348 11.4473 17.2286 11.3536C17.3223 11.2598 17.375 11.1326 17.375 11C17.375 10.8674 17.3223 10.7402 17.2286 10.6464C17.1348 10.5527 17.0076 10.5 16.875 10.5H16.625V10C16.625 9.86739 16.5723 9.74021 16.4786 9.64645C16.3848 9.55268 16.2576 9.5 16.125 9.5C15.9924 9.5 15.8652 9.55268 15.7714 9.64645C15.6777 9.74021 15.625 9.86739 15.625 10V10.5C15.3599 10.5003 15.1057 10.6057 14.9182 10.7932C14.7307 10.9807 14.6253 11.2349 14.625 11.5V12.5C14.6253 12.7651 14.7307 13.0193 14.9182 13.2068C15.1057 13.3943 15.3599 13.4997 15.625 13.5H16.375V14.5H15.125C14.9924 14.5 14.8652 14.5527 14.7714 14.6464C14.6777 14.7402 14.625 14.8674 14.625 15C14.625 15.1326 14.6777 15.2598 14.7714 15.3536C14.8652 15.4473 14.9924 15.5 15.125 15.5H15.375V16C15.375 16.1326 15.4277 16.2598 15.5214 16.3536C15.6152 16.4473 15.7424 16.5 15.875 16.5C16.0076 16.5 16.1348 16.4473 16.2286 16.3536C16.3223 16.2598 16.375 16.1326 16.375 16V15.5C16.6401 15.4997 16.8943 15.3943 17.0818 15.2068C17.2693 15.0193 17.3747 14.7651 17.375 14.5V13.5C17.3747 13.2349 17.2693 12.9807 17.0818 12.7932C16.8943 12.6057 16.6401 12.5003 16.375 12.5Z" fill="#F5FAFE"/>
<path d="M27.2 10.4H26.6883C26.4196 9.30049 25.9834 8.24884 25.3951 7.2819L25.7581 6.91888C26.0951 6.58104 26.2844 6.12332 26.2844 5.64611C26.2844 5.1689 26.0952 4.71117 25.7581 4.37333L24.6267 3.24192C24.4596 3.07477 24.2611 2.94219 24.0427 2.85173C23.8244 2.76127 23.5903 2.71471 23.3539 2.71472C23.1175 2.71472 22.8835 2.76128 22.6651 2.85174C22.4467 2.9422 22.2483 3.07479 22.0811 3.24194L21.7181 3.60493C20.7512 3.01661 19.6995 2.58044 18.6 2.31172V1.8C18.5995 1.32278 18.4096 0.865254 18.0722 0.527806C17.7347 0.190357 17.2772 0.000541257 16.8 0L15.2 0C14.7228 0.000537295 14.2653 0.190352 13.9278 0.527801C13.5904 0.86525 13.4005 1.32278 13.4 1.8V2.31172C12.3005 2.58044 11.2488 3.0166 10.2819 3.60492L9.91886 3.2419C9.58129 2.90434 9.12346 2.7147 8.64607 2.71471C8.16868 2.71471 7.71085 2.90435 7.37328 3.24191L6.24191 4.37329C5.90486 4.71112 5.71557 5.16885 5.71557 5.64606C5.71556 6.12327 5.90485 6.581 6.24189 6.91884L6.60493 7.28189C6.01659 8.24884 5.58043 9.30049 5.31172 10.4H4.8C4.32278 10.4005 3.86525 10.5904 3.52781 10.9278C3.19036 11.2653 3.00054 11.7228 3 12.2V13.8C3.00054 14.2772 3.19036 14.7347 3.52781 15.0722C3.86525 15.4096 4.32278 15.5995 4.8 15.6H5.31172C5.58043 16.6995 6.01659 17.7511 6.60492 18.7181L6.24192 19.0811C5.90486 19.4189 5.71557 19.8767 5.71557 20.3539C5.71557 20.8311 5.90486 21.2888 6.24192 21.6267L7.37329 22.758C7.54044 22.9252 7.73887 23.0578 7.95726 23.1482C8.17565 23.2387 8.40972 23.2853 8.6461 23.2853C8.88248 23.2852 9.11655 23.2387 9.33494 23.1482C9.55332 23.0578 9.75175 22.9252 9.9189 22.758L10.2819 22.3951C10.8291 22.7254 11.4039 23.0076 12 23.2384V20.5C12 20.3674 12.0527 20.2402 12.1464 20.1464C12.2402 20.0527 12.3674 20 12.5 20C12.6326 20 12.7598 20.0527 12.8536 20.1464C12.9473 20.2402 13 20.3674 13 20.5L13.0264 26.228H11C10.9001 26.228 10.8025 26.258 10.7198 26.3139C10.637 26.3699 10.573 26.4494 10.5358 26.5421C10.4987 26.6349 10.4902 26.7366 10.5114 26.8342C10.5326 26.9318 10.5825 27.0209 10.6548 27.0898L15.6548 31.8618C15.7478 31.9505 15.8714 32 16 32C16.1286 32 16.2522 31.9505 16.3452 31.8618L21.3452 27.0898C21.4175 27.0209 21.4674 26.9318 21.4886 26.8342C21.5098 26.7366 21.5013 26.6349 21.4642 26.5421C21.427 26.4494 21.363 26.3699 21.2802 26.3139C21.1975 26.258 21.0999 26.228 21 26.228H18.9736L19 21.75C19 21.6174 19.0527 21.4902 19.1464 21.3964C19.2402 21.3027 19.3674 21.25 19.5 21.25C19.6326 21.25 19.7598 21.3027 19.8536 21.3964C19.9473 21.4902 20 21.6174 20 21.75V23.2384C20.5961 23.0076 21.1709 22.7254 21.7181 22.3951L22.0811 22.7581C22.4187 23.0956 22.8765 23.2853 23.3539 23.2853C23.8313 23.2853 24.2891 23.0956 24.6267 22.7581L25.7581 21.6267C26.0951 21.2889 26.2844 20.8311 26.2844 20.3539C26.2845 19.8767 26.0952 19.419 25.7581 19.0811L25.3951 18.7181C25.9834 17.7511 26.4196 16.6995 26.6883 15.6H27.2C27.6772 15.5995 28.1347 15.4096 28.4722 15.0722C28.8096 14.7347 28.9995 14.2772 29 13.8V12.2C28.9995 11.7228 28.8096 11.2653 28.4722 10.9278C28.1347 10.5904 27.6772 10.4005 27.2 10.4ZM16 18.8472C14.8435 18.8473 13.713 18.5043 12.7514 17.8618C11.7898 17.2193 11.0404 16.3061 10.5978 15.2376C10.1552 14.1692 10.0395 12.9935 10.2651 11.8592C10.4907 10.725 11.0476 9.6831 11.8653 8.86534C12.6831 8.04758 13.725 7.49068 14.8592 7.26507C15.9935 7.03945 17.1692 7.15525 18.2376 7.59782C19.3061 8.04038 20.2193 8.78984 20.8618 9.75143C21.5043 10.713 21.8473 11.8435 21.8472 13C21.8472 14.5508 21.2312 16.0381 20.1346 17.1346C19.0381 18.2312 17.5508 18.8472 16 18.8472Z" fill="#F5FAFE"/>
</svg>
