<svg width="32" height="32" viewBox="0 0 32 32" fill="none" xmlns="http://www.w3.org/2000/svg">
<path fill-rule="evenodd" clip-rule="evenodd" d="M29.75 1H7.53C6.84125 1 6.28 1.56125 6.28 2.25V18.4356H12.0019C12.8631 18.4356 13.5644 19.1369 13.5644 19.9981V25.72H29.75C30.4387 25.72 31 25.1587 31 24.47V2.25C31 1.56125 30.4387 1 29.75 1ZM1.9375 19.06H12.0019C12.5181 19.06 12.9394 19.4812 12.9394 19.9975V30.0619C12.9394 30.5781 12.5181 30.9994 12.0019 30.9994H1.9375C1.42125 30.9994 1 30.5781 1 30.0619V19.9975C1 19.4812 1.42125 19.06 1.9375 19.06ZM22.1537 6.06625C21.6381 6.07 21.2169 5.65562 21.2125 5.14C21.2087 4.62437 21.6231 4.20312 22.1388 4.19875L26.875 4.14375C27.3906 4.14 27.8119 4.55438 27.8162 5.07L27.8713 9.80625C27.875 10.3219 27.4606 10.7431 26.945 10.7475C26.4294 10.7513 26.0081 10.3369 26.0037 9.82125L25.975 7.33563L16.0056 17.305C15.6394 17.6712 15.0463 17.6712 14.68 17.305C14.3138 16.9388 14.3138 16.3456 14.68 15.9794L24.6213 6.03813L22.1537 6.06687V6.06625Z" fill="#F5FAFE"/>
</svg>
