<svg width="32" height="32" viewBox="0 0 32 32" fill="none" xmlns="http://www.w3.org/2000/svg">
<path d="M8.82245 24.7424L5.59789 26.6496C5.02071 27.0008 4.29297 26.5743 4.29297 25.9093V22.3836C4.29297 20.464 5.2967 18.6948 6.94042 17.7162L8.00687 17.0889C8.00687 18.6698 8.10727 20.326 8.3331 22.0699C8.44599 23.0109 8.62166 23.9269 8.82245 24.7424ZM25.0581 17.7162L23.9916 17.0889C23.9916 18.6698 23.8912 20.326 23.6654 22.0699C23.5525 22.9984 23.3768 23.9144 23.176 24.7424L26.4006 26.6496C26.9778 27.0009 27.7055 26.5743 27.7055 25.9093V22.3836C27.7055 20.464 26.7018 18.6948 25.0581 17.7162ZM10.1524 24.8804C10.3406 25.5203 10.9178 25.9595 11.5953 25.9595H20.4032C21.0807 25.9595 21.6705 25.5203 21.8461 24.8804C21.9464 24.504 22.0468 24.1025 22.1221 23.6885H9.87635C9.95163 24.1025 10.052 24.504 10.1524 24.8804ZM22.4232 21.9194C22.3981 22.095 22.3731 22.2707 22.348 22.4338H9.65052C9.6254 22.2707 9.60036 22.095 9.57524 21.9194C8.63422 14.5168 9.92651 8.92081 11.6455 5.24459H20.353C22.072 8.92082 23.3643 14.5168 22.4232 21.9194ZM18.8976 11.4302C18.8976 9.82415 17.6053 8.51931 15.9992 8.51931C14.3932 8.51931 13.1009 9.82416 13.1009 11.4302C13.1009 13.0237 14.3932 14.3285 15.9992 14.3285C17.6053 14.3285 18.8976 13.0237 18.8976 11.4302ZM19.7256 3.9899H12.2728C13.7283 1.34253 15.3092 0 15.9992 0C16.6893 0 18.2702 1.34253 19.7256 3.9899ZM13.2583 30.0432V28.1771C13.2583 27.8304 12.9777 27.5498 12.6309 27.5498C12.2842 27.5498 12.0036 27.8304 12.0036 28.1771V30.0432C12.0036 30.39 12.2842 30.6706 12.6309 30.6706C12.9777 30.6706 13.2583 30.39 13.2583 30.0432ZM19.9949 30.0432V28.1771C19.9949 27.8304 19.7143 27.5498 19.3675 27.5498C19.0208 27.5498 18.7402 27.8304 18.7402 28.1771V30.0432C18.7402 30.39 19.0208 30.6706 19.3675 30.6706C19.7143 30.6706 19.9949 30.39 19.9949 30.0432ZM16.6266 31.3727V28.1771C16.6266 27.8304 16.346 27.5498 15.9992 27.5498C15.6525 27.5498 15.3719 27.8304 15.3719 28.1771V31.3727C15.3719 31.7194 15.6525 32 15.9992 32C16.346 32 16.6266 31.7194 16.6266 31.3727Z" fill="#F5FAFE"/>
</svg>
