<svg width="30" height="30" viewBox="0 0 30 30" fill="none" xmlns="http://www.w3.org/2000/svg">
<path d="M11.3562 9.6201H6.49783V21.7661M18.7305 8.23199H20.4657M23.5022 25.2363H6.49783C5.53956 25.2363 4.7627 24.4595 4.7627 23.5012V21.7661H25.2373V23.5012C25.2373 24.4595 24.4604 25.2363 23.5022 25.2363ZM25.2373 16.5606V6.49686C25.2373 5.53858 24.4604 4.76172 23.5022 4.76172H15.6941C14.7358 4.76172 13.9589 5.53858 13.9589 6.49686V16.5606C13.9589 17.5189 14.7358 18.2958 15.6941 18.2958H23.5022C24.4604 18.2958 25.2373 17.5189 25.2373 16.5606Z" stroke="#0039CA" stroke-width="2.3" stroke-miterlimit="10"/>
<path fill-rule="evenodd" clip-rule="evenodd" d="M24.6915 14.5499V17.5662H14.8604V5.74413L24.2693 4.8999C25.5882 4.8999 24.6915 13.231 24.6915 14.5499Z" fill="#0039CA" fill-opacity="0.1"/>
</svg>
