<svg width="60" height="60" viewBox="0 0 60 60" fill="none" xmlns="http://www.w3.org/2000/svg">
<path d="M60 30C60 46.5685 46.5685 60 30 60C13.4315 60 0 46.5685 0 30C0 13.4315 13.4315 0 30 0C46.5685 0 60 13.4315 60 30Z" fill="#121314"/>
<path d="M35.4447 28.2431V19.5481C35.4447 16.4887 32.9554 14 29.8967 14H17.5475C14.4887 14 12 16.4887 12 19.5481V28.2431C12 31.2575 14.4173 33.7186 17.401 33.7888V38.6047C17.401 39.1124 17.7209 39.5655 18.1992 39.7354C18.3306 39.7822 18.4662 39.805 18.6007 39.805C18.9547 39.805 19.2998 39.6477 19.5321 39.3621L24.0665 33.7906H29.8973C32.9554 33.7906 35.4447 31.3019 35.4447 28.2431ZM27.4302 28.0385H19.6287C18.9661 28.0385 18.4284 27.5008 18.4284 26.8383C18.4284 26.1757 18.9661 25.638 19.6287 25.638H27.4302C28.0927 25.638 28.6304 26.1757 28.6304 26.8383C28.6304 27.5008 28.0927 28.0385 27.4302 28.0385ZM27.6234 23.0017H19.8219C19.1594 23.0017 18.6217 22.464 18.6217 21.8015C18.6217 21.139 19.1594 20.6013 19.8219 20.6013H27.6234C28.2859 20.6013 28.8236 21.139 28.8236 21.8015C28.8236 22.464 28.2859 23.0017 27.6234 23.0017Z" fill="#6981F1"/>
<path d="M42.7124 21.1328H37.8449V28.2442C37.8449 32.6268 34.2796 36.1921 29.8964 36.1921H25.4453C25.9938 38.604 28.1512 40.4115 30.7263 40.4115H36.3818L41.0885 45.9818C41.3208 46.2573 41.6586 46.4073 42.0055 46.4073C42.1435 46.4073 42.2834 46.3833 42.4184 46.3341C42.8913 46.1606 43.2063 45.7106 43.2063 45.2071V40.3893C45.9651 40.1397 48.1339 37.8142 48.1339 34.9919V26.5525C48.1327 23.5639 45.7016 21.1328 42.7124 21.1328Z" fill="#6981F1"/>
</svg>
