<svg width="60" height="60" viewBox="0 0 60 60" fill="none" xmlns="http://www.w3.org/2000/svg">
<path d="M60 30C60 46.5685 46.5685 60 30 60C13.4315 60 0 46.5685 0 30C0 13.4315 13.4315 0 30 0C46.5685 0 60 13.4315 60 30Z" fill="#121314"/>
<path fill-rule="evenodd" clip-rule="evenodd" d="M34.4457 24.3625C33.3818 25.2473 31.9993 25.7818 30.4882 25.7818C27.1269 25.7818 24.4026 23.1376 24.4026 19.8752C24.4026 16.6129 27.1269 13.9688 30.4882 13.9688C33.8494 13.9688 36.5736 16.6129 36.5736 19.8752C36.5736 21.1334 36.1684 22.2996 35.4778 23.2577L37.3789 25.0627L37.4512 24.9906C37.6623 24.7788 38.0154 24.7738 38.2334 24.9788L41.5756 28.1269C41.7937 28.3318 41.7989 28.6728 41.586 28.8862L40.3796 30.0924C40.1685 30.304 39.8172 30.3091 39.5973 30.1041L36.2569 26.956C36.0371 26.7511 36.0319 26.4083 36.2448 26.1967L36.3098 26.1317L34.4457 24.3625ZM30.4882 23.7547C32.6896 23.7547 34.4851 22.012 34.4851 19.8752C34.4851 17.7386 32.6896 15.9958 30.4882 15.9958C28.2867 15.9958 26.4912 17.7386 26.4912 19.8752C26.4912 22.012 28.2867 23.7547 30.4882 23.7547ZM29.9548 17.5269V17.4211C29.9548 17.1355 30.1938 16.9035 30.4882 16.9035C30.7825 16.9035 31.0215 17.1355 31.0215 17.4211V17.5216C31.4975 17.6512 31.928 17.9667 32.1574 18.4971C32.2713 18.7605 32.1434 19.0642 31.872 19.1747C31.6006 19.2853 31.2877 19.1612 31.1738 18.8977C30.9974 18.4897 30.5234 18.4142 30.1851 18.5433C30.0111 18.6098 29.8626 18.7393 29.8727 18.9374L29.8728 18.9386C29.8799 19.0851 29.9859 19.1626 30.1024 19.2179C30.2487 19.2872 30.4182 19.3248 30.5778 19.3501L30.5788 19.3502C31.3504 19.4735 32.1822 19.8313 32.2926 20.7215C32.3973 21.5614 31.7468 22.0747 31.0215 22.2404V22.3307C31.0215 22.6164 30.7825 22.8483 30.4882 22.8483C30.1938 22.8483 29.9548 22.6164 29.9548 22.3307V22.2327C29.3551 22.0814 28.8507 21.6752 28.689 21.0447C28.6179 20.7674 28.7921 20.4863 29.0777 20.4173C29.3634 20.3483 29.653 20.5174 29.7241 20.7946C29.8123 21.1387 30.1802 21.2721 30.527 21.2638L30.5282 21.2638C30.6904 21.2602 30.867 21.2276 31.016 21.1567C31.1418 21.0969 31.2534 21.0042 31.2336 20.8459L31.2336 20.8453C31.2115 20.6675 31.0794 20.5758 30.9344 20.5119C30.7692 20.439 30.5812 20.3999 30.4064 20.3719C29.6456 20.2516 28.85 19.8632 28.8073 18.9876C28.7731 18.3091 29.1988 17.8074 29.7946 17.5799C29.8468 17.56 29.9004 17.5423 29.9548 17.5269ZM16.5652 42.5303V34.9297C16.5652 34.8439 16.6003 34.7616 16.6628 34.7009C16.7253 34.6403 16.8101 34.6062 16.8985 34.6062H23.356C23.4444 34.6062 23.5292 34.6403 23.5916 34.7009C23.6542 34.7616 23.6893 34.8439 23.6893 34.9297V42.5303H16.5652ZM26.77 42.5303V27.9095C26.77 27.8237 26.8051 27.7414 26.8676 27.6808C26.9301 27.6201 27.0149 27.586 27.1033 27.586H33.5608C33.6492 27.586 33.734 27.6201 33.7964 27.6808C33.859 27.7414 33.8941 27.8237 33.8941 27.9095V42.5303H26.77ZM36.9748 42.5303V34.9297C36.9748 34.8439 37.0099 34.7616 37.0724 34.7009C37.1349 34.6403 37.2197 34.6062 37.3081 34.6062H43.7656C43.854 34.6062 43.9388 34.6403 44.0013 34.7009C44.0638 34.7616 44.0989 34.8439 44.0989 34.9297V42.5303H36.9748ZM45.67 43.5655V45.0276H14.332V43.5655H45.67Z" fill="#6981F1"/>
</svg>
