<svg width="60" height="60" viewBox="0 0 60 60" fill="none" xmlns="http://www.w3.org/2000/svg">
<path d="M60 30C60 46.5685 46.5685 60 30 60C13.4315 60 0 46.5685 0 30C0 13.4315 13.4315 0 30 0C46.5685 0 60 13.4315 60 30Z" fill="#121314"/>
<path d="M32.355 18.6176C32.121 18.6176 31.8966 18.5246 31.7312 18.3591C31.5657 18.1937 31.4727 17.9693 31.4727 17.7353V15.3824C31.4727 15.1483 31.5656 14.9239 31.7311 14.7584C31.8966 14.593 32.121 14.5 32.355 14.5C32.589 14.5 32.8135 14.593 32.9789 14.7584C33.1444 14.9239 33.2374 15.1483 33.2374 15.3824V17.7353C33.2373 17.9693 33.1443 18.1937 32.9789 18.3591C32.8134 18.5246 32.589 18.6176 32.355 18.6176Z" fill="#6981F1"/>
<path d="M37.0581 18.6176C36.8241 18.6176 36.5997 18.5246 36.4343 18.3591C36.2688 18.1937 36.1758 17.9693 36.1758 17.7353V15.3824C36.1758 15.1483 36.2687 14.9239 36.4342 14.7584C36.5997 14.593 36.8241 14.5 37.0581 14.5C37.2921 14.5 37.5166 14.593 37.6821 14.7584C37.8475 14.9239 37.9405 15.1483 37.9405 15.3824V17.7353C37.9404 17.9693 37.8474 18.1937 37.682 18.3591C37.5165 18.5246 37.2921 18.6176 37.0581 18.6176Z" fill="#6981F1"/>
<path d="M41.7652 18.6176C41.5312 18.6176 41.3068 18.5246 41.1413 18.3591C40.9759 18.1937 40.8829 17.9693 40.8828 17.7353V15.3824C40.8828 15.1483 40.9758 14.9239 41.1412 14.7584C41.3067 14.593 41.5312 14.5 41.7652 14.5C41.9992 14.5 42.2236 14.593 42.3891 14.7584C42.5546 14.9239 42.6475 15.1483 42.6475 15.3824V17.7353C42.6475 17.9693 42.5545 18.1937 42.389 18.3591C42.2236 18.5246 41.9992 18.6176 41.7652 18.6176Z" fill="#6981F1"/>
<path d="M27.648 18.6176C27.414 18.6176 27.1896 18.5246 27.0241 18.3591C26.8587 18.1937 26.7657 17.9693 26.7656 17.7353V15.3824C26.7656 15.1483 26.8586 14.9239 27.0241 14.7584C27.1895 14.593 27.414 14.5 27.648 14.5C27.882 14.5 28.1064 14.593 28.2719 14.7584C28.4374 14.9239 28.5303 15.1483 28.5303 15.3824V17.7353C28.5303 17.9693 28.4373 18.1937 28.2718 18.3591C28.1064 18.5246 27.882 18.6176 27.648 18.6176Z" fill="#6981F1"/>
<path d="M22.9409 18.6176C22.707 18.6176 22.4826 18.5246 22.3171 18.3591C22.1516 18.1937 22.0587 17.9693 22.0586 17.7353V15.3824C22.0586 15.1483 22.1516 14.9239 22.317 14.7584C22.4825 14.593 22.7069 14.5 22.9409 14.5C23.175 14.5 23.3994 14.593 23.5649 14.7584C23.7303 14.9239 23.8233 15.1483 23.8233 15.3824V17.7353C23.8232 17.9693 23.7303 18.1937 23.5648 18.3591C23.3993 18.5246 23.1749 18.6176 22.9409 18.6176Z" fill="#6981F1"/>
<path d="M18.2378 18.6176C18.0038 18.6176 17.7794 18.5246 17.614 18.3591C17.4485 18.1937 17.3555 17.9693 17.3555 17.7353V15.3824C17.3555 15.1483 17.4484 14.9239 17.6139 14.7584C17.7794 14.593 18.0038 14.5 18.2378 14.5C18.4718 14.5 18.6963 14.593 18.8617 14.7584C19.0272 14.9239 19.1202 15.1483 19.1202 15.3824V17.7353C19.1201 17.9693 19.0271 18.1937 18.8617 18.3591C18.6962 18.5246 18.4718 18.6176 18.2378 18.6176Z" fill="#6981F1"/>
<path d="M13.8242 23.9141V42.4435C13.8242 42.9895 14.0411 43.5132 14.4272 43.8993C14.8133 44.2854 15.337 44.5023 15.883 44.5023H44.1183C44.6644 44.5023 45.188 44.2854 45.5741 43.8993C45.9602 43.5132 46.1772 42.9895 46.1772 42.4435V23.9141H13.8242ZM26.5069 37.185L22.9775 40.7144C22.8956 40.7963 22.7983 40.8613 22.6913 40.9057C22.5842 40.9501 22.4695 40.9729 22.3536 40.9729C22.2378 40.9729 22.123 40.9501 22.016 40.9057C21.9089 40.8613 21.8117 40.7963 21.7298 40.7144L19.9651 38.9497C19.8006 38.784 19.7085 38.5599 19.7089 38.3265C19.7094 38.0931 19.8023 37.8693 19.9673 37.7042C20.1324 37.5392 20.3562 37.4463 20.5896 37.4458C20.823 37.4454 21.0471 37.5375 21.2128 37.702L22.3536 38.8428L25.2592 35.9373C25.4249 35.7728 25.6489 35.6807 25.8824 35.6811C26.1158 35.6816 26.3396 35.7745 26.5046 35.9395C26.6697 36.1046 26.7626 36.3284 26.763 36.5618C26.7635 36.7952 26.6713 37.0193 26.5069 37.185ZM26.5069 28.9497L22.9775 32.4791C22.8956 32.561 22.7983 32.6261 22.6913 32.6704C22.5842 32.7148 22.4695 32.7376 22.3536 32.7376C22.2378 32.7376 22.123 32.7148 22.016 32.6704C21.9089 32.6261 21.8117 32.561 21.7298 32.4791L19.9651 30.7144C19.8827 30.6326 19.8172 30.5353 19.7725 30.4281C19.7277 30.3209 19.7046 30.206 19.7044 30.0899C19.7042 29.9737 19.7269 29.8587 19.7712 29.7514C19.8156 29.644 19.8807 29.5465 19.9628 29.4644C20.0449 29.3823 20.1424 29.3172 20.2498 29.2729C20.3571 29.2285 20.4721 29.2058 20.5883 29.206C20.7044 29.2062 20.8193 29.2294 20.9265 29.2741C21.0337 29.3188 21.131 29.3843 21.2128 29.4667L22.3536 30.6075L25.2592 27.702C25.4249 27.5375 25.6489 27.4454 25.8824 27.4458C26.1158 27.4463 26.3396 27.5392 26.5046 27.7042C26.6697 27.8693 26.7626 28.0931 26.763 28.3265C26.7635 28.5599 26.6713 28.784 26.5069 28.9497ZM35.883 40.9729H30.0007C29.7667 40.9729 29.5422 40.8799 29.3768 40.7145C29.2113 40.549 29.1183 40.3245 29.1183 40.0905C29.1183 39.8565 29.2113 39.6321 29.3768 39.4666C29.5422 39.3011 29.7667 39.2082 30.0007 39.2082H35.883C36.1171 39.2082 36.3415 39.3011 36.507 39.4666C36.6724 39.6321 36.7654 39.8565 36.7654 40.0905C36.7654 40.3245 36.6724 40.549 36.507 40.7145C36.3415 40.8799 36.1171 40.9729 35.883 40.9729ZM39.4125 37.4435H30.0007C29.7667 37.4435 29.5422 37.3505 29.3768 37.185C29.2113 37.0196 29.1183 36.7951 29.1183 36.5611C29.1183 36.3271 29.2113 36.1027 29.3768 35.9372C29.5422 35.7717 29.7667 35.6788 30.0007 35.6788H39.4125C39.6465 35.6788 39.8709 35.7717 40.0364 35.9372C40.2018 36.1027 40.2948 36.3271 40.2948 36.5611C40.2948 36.7951 40.2018 37.0196 40.0364 37.185C39.8709 37.3505 39.6465 37.4435 39.4125 37.4435ZM29.1183 31.8552C29.1184 31.6212 29.2114 31.3969 29.3768 31.2314C29.5423 31.0659 29.7667 30.9729 30.0007 30.9729H35.883C36.1171 30.9729 36.3415 31.0658 36.507 31.2313C36.6724 31.3968 36.7654 31.6212 36.7654 31.8552C36.7654 32.0893 36.6724 32.3137 36.507 32.4792C36.3415 32.6446 36.1171 32.7376 35.883 32.7376H30.0007C29.7667 32.7375 29.5423 32.6445 29.3768 32.4791C29.2114 32.3136 29.1184 32.0892 29.1183 31.8552ZM39.4125 29.2082H30.0007C29.7667 29.2082 29.5422 29.1152 29.3768 28.9497C29.2113 28.7843 29.1183 28.5598 29.1183 28.3258C29.1183 28.0918 29.2113 27.8674 29.3768 27.7019C29.5422 27.5364 29.7667 27.4435 30.0007 27.4435H39.4125C39.6465 27.4435 39.8709 27.5364 40.0364 27.7019C40.2018 27.8674 40.2948 28.0918 40.2948 28.3258C40.2948 28.5598 40.2018 28.7843 40.0364 28.9497C39.8709 29.1152 39.6465 29.2082 39.4125 29.2082Z" fill="#6981F1"/>
<path d="M44.1183 16.8516H15.883C15.337 16.8516 14.8133 17.0685 14.4272 17.4546C14.0411 17.8407 13.8242 18.3644 13.8242 18.9104V22.1457H46.1772V18.9104C46.1772 18.3644 45.9602 17.8407 45.5741 17.4546C45.188 17.0685 44.6644 16.8516 44.1183 16.8516Z" fill="#6981F1"/>
</svg>
