<svg width="60" height="60" viewBox="0 0 60 60" fill="none" xmlns="http://www.w3.org/2000/svg">
<path d="M60 30C60 46.5685 46.5685 60 30 60C13.4315 60 0 46.5685 0 30C0 13.4315 13.4315 0 30 0C46.5685 0 60 13.4315 60 30Z" fill="#121314"/>
<path fill-rule="evenodd" clip-rule="evenodd" d="M13.207 23.1406V40.4909H19.9252C19.3862 39.2332 19.0876 37.8492 19.0876 36.396C19.0876 30.65 23.7527 25.9849 29.4987 25.9849C32.6543 25.9849 35.4841 27.392 37.3934 29.612L39.7426 28.0285C40.1935 27.7242 40.8009 27.81 41.1504 28.2265C41.5 28.643 41.4787 29.256 41.1012 29.6474L38.9022 31.9254C39.5482 33.2804 39.9098 34.7963 39.9098 36.396C39.9098 37.8492 39.6112 39.2332 39.0722 40.4909H45.7904V23.1406H13.207Z" fill="#6981F1"/>
<path fill-rule="evenodd" clip-rule="evenodd" d="M38.1061 32.7479C38.5821 33.8685 38.8456 35.1017 38.8456 36.3955C38.8456 41.555 34.6565 45.744 29.497 45.744C24.3375 45.744 20.1484 41.555 20.1484 36.3955C20.1484 31.236 24.3375 27.0469 29.497 27.0469C32.2857 27.0469 34.7911 28.2709 36.5042 30.2099L29.7336 34.7741L27.8158 32.7815C27.6178 32.5761 27.3458 32.4585 27.0604 32.4561C26.7752 32.4532 26.5008 32.5655 26.2989 32.767L24.6641 34.4022C24.272 34.7939 24.2472 35.4215 24.607 35.843L28.7788 40.7336C28.9732 40.9617 29.2548 41.097 29.5544 41.1062C29.854 41.1154 30.1434 40.9979 30.3516 40.7822L38.1061 32.7479Z" fill="#6981F1"/>
<path fill-rule="evenodd" clip-rule="evenodd" d="M13.207 22.0766H45.7904V18.7963C45.7904 17.856 45.4167 16.9539 44.7516 16.2888C44.0865 15.6236 43.1848 15.25 42.2441 15.25H16.7533C15.8126 15.25 14.9109 15.6236 14.2458 16.2888C13.5807 16.9539 13.207 17.856 13.207 18.7963V22.0766ZM36.054 17.5135C36.6886 17.5135 37.2039 18.0288 37.2039 18.6631C37.2039 19.2978 36.6886 19.8131 36.054 19.8131C35.4197 19.8131 34.9043 19.2978 34.9043 18.6631C34.9043 18.0288 35.4197 17.5135 36.054 17.5135ZM40.7789 17.5135C41.4136 17.5135 41.9289 18.0288 41.9289 18.6631C41.9289 19.2978 41.4136 19.8131 40.7789 19.8131C40.1446 19.8131 39.6293 19.2978 39.6293 18.6631C39.6293 18.0288 40.1446 17.5135 40.7789 17.5135Z" fill="#6981F1"/>
<path fill-rule="evenodd" clip-rule="evenodd" d="M25.418 35.1509L27.0532 33.5161L29.5897 36.1518L40.3376 28.9062L29.5897 40.0416L25.418 35.1509Z" fill="#6981F1"/>
</svg>
