<svg width="60" height="60" viewBox="0 0 60 60" fill="none" xmlns="http://www.w3.org/2000/svg">
<path d="M60 30C60 46.5685 46.5685 60 30 60C13.4315 60 0 46.5685 0 30C0 13.4315 13.4315 0 30 0C46.5685 0 60 13.4315 60 30Z" fill="#121314"/>
<g clip-path="url(#clip0_22799_25063)">
<path d="M44.08 27.9524L41.1932 27.4638C40.914 26.3789 40.4826 25.3384 39.8989 24.3486L41.5929 21.9694C41.9038 21.5252 41.8594 20.9288 41.4724 20.5418L40.4445 19.5203L39.423 18.4988C39.036 18.1499 38.4396 18.1055 38.0018 18.41L35.6226 20.1104C34.6392 19.533 33.5923 19.0952 32.5074 18.8224L32.0188 15.9356C31.9237 15.4026 31.4668 15.0156 30.9339 15.0156H29.4937H28.0534C27.5205 15.0156 27.0573 15.4026 26.9685 15.9356L26.4799 18.8224C25.376 19.1016 24.3037 19.5457 23.3013 20.1611L20.9411 18.4862C20.4969 18.1753 19.9005 18.2197 19.5135 18.6067L18.492 19.6282L17.4705 20.6497C17.0898 21.0304 17.0391 21.6331 17.35 22.0772L19.0567 24.4819C18.4793 25.4653 18.0606 26.5312 17.7878 27.5971L14.92 28.0476C14.387 28.1427 14 28.5995 14 29.1325V30.5727L14.0063 32.0193C14.0063 32.5523 14.3934 33.0154 14.9263 33.1042L17.8322 33.5928C18.1177 34.6714 18.5555 35.7119 19.1455 36.689L17.4705 39.0492C17.1596 39.4933 17.2041 40.0897 17.5911 40.4767L18.6126 41.4982L19.6341 42.5197C20.0147 42.9004 20.6175 42.9512 21.0616 42.6403L23.4662 40.9336C24.4497 41.5109 25.5156 41.9297 26.5815 42.2025L27.0637 45.0576C27.1588 45.5905 27.6156 45.9776 28.1486 45.9776H29.5888H31.0291C31.562 45.9776 32.0252 45.5905 32.114 45.0576L32.6025 42.1517C33.6558 41.8726 34.6836 41.4475 35.6353 40.8891L38.0145 42.5832C38.4587 42.8941 39.0551 42.8496 39.4421 42.4626L40.4636 41.4411L41.4851 40.4196C41.8657 40.039 41.9165 39.4362 41.6056 38.9921L39.9052 36.6065C40.4826 35.6231 40.9204 34.5762 41.1932 33.4913L44.08 33.0027C44.613 32.9076 45 32.4507 45 31.9178V30.4776V29.0373C45 28.5044 44.613 28.0412 44.08 27.9524ZM34.0301 31.2008L29.7728 36.4035C29.6332 36.5748 29.3731 36.5748 29.2335 36.4035L24.9763 31.2008C24.824 31.0169 24.9509 30.744 25.1856 30.744H27.3999V24.9196C27.3999 24.6658 27.6029 24.4628 27.8567 24.4628H31.1433C31.3971 24.4628 31.6001 24.6658 31.6001 24.9196V30.744H33.8144C34.0491 30.744 34.1824 31.0169 34.0301 31.2008Z" fill="#6981F1"/>
</g>
<defs>
<clipPath id="clip0_22799_25063">
<rect width="31" height="31" fill="white" transform="translate(14 15)"/>
</clipPath>
</defs>
</svg>
