<svg width="60" height="60" viewBox="0 0 60 60" fill="none" xmlns="http://www.w3.org/2000/svg">
<path d="M60 30C60 46.5685 46.5685 60 30 60C13.4315 60 0 46.5685 0 30C0 13.4315 13.4315 0 30 0C46.5685 0 60 13.4315 60 30Z" fill="#121314"/>
<path d="M42 15.3359H18C15.7947 15.3359 14 17.1306 14 19.3359V40.6693C14 42.8746 15.7947 44.6693 18 44.6693H42C44.2053 44.6693 46 42.8746 46 40.6693V19.3359C46 17.1306 44.2053 15.3359 42 15.3359ZM42 42.0026H18C17.2653 42.0026 16.6667 41.4053 16.6667 40.6693V22.0026H43.3333V40.6693C43.3333 41.4053 42.7347 42.0026 42 42.0026Z" fill="#6981F1"/>
<path d="M23.9066 31.3307C23.7306 31.3307 23.5506 31.2947 23.3786 31.2201C22.7026 30.9281 22.392 30.1427 22.684 29.4667C23.9453 26.5507 26.8173 24.6641 30.0013 24.6641C33.168 24.6641 36.0493 26.5454 37.34 29.4574C37.6386 30.1307 35.2 31.2107 34.9026 30.5387C34.0373 28.5894 32.1146 27.3307 30.0013 27.3307C27.8826 27.3307 25.9706 28.5854 25.132 30.5267C24.9146 31.0294 24.4226 31.3307 23.9066 31.3307Z" fill="#6981F1"/>
<path d="M29.999 40.6664C26.8136 40.6664 23.9323 38.7824 22.6576 35.8678C22.3616 35.1931 24.8056 34.1251 25.1003 34.7984C25.951 36.7438 27.8736 37.9998 29.999 37.9998C32.1123 37.9998 34.035 36.7411 34.9003 34.7931C35.199 34.1224 35.9843 33.8158 36.659 34.1144C37.3323 34.4131 37.635 35.1998 37.3376 35.8731C36.047 38.7851 33.1656 40.6664 29.999 40.6664Z" fill="#6981F1"/>
<path d="M36.6669 31.3365H33.3336C32.7949 31.3365 32.3069 31.0111 32.1016 30.5138C31.8949 30.0152 32.0096 29.4418 32.3909 29.0605L35.7243 25.7272C36.1056 25.3445 36.6789 25.2312 37.1776 25.4378C37.6763 25.6445 38.0003 26.1311 38.0003 26.6698V30.0031C38.0003 30.7391 37.4043 31.3365 36.6669 31.3365Z" fill="#6981F1"/>
<path d="M23.3333 40C23.1613 40 22.988 39.968 22.8227 39.8987C22.324 39.6933 22 39.2053 22 38.6667V35.3333C22 34.596 22.596 34 23.3333 34H26.6667C27.2053 34 27.6933 34.324 27.8987 34.8227C28.1053 35.3213 27.9907 35.8947 27.6093 36.276L24.276 39.6093C24.0213 39.864 23.68 40 23.3333 40Z" fill="#6981F1"/>
</svg>
