<svg width="70" height="70" viewBox="0 0 70 70" fill="none" xmlns="http://www.w3.org/2000/svg">
<g clip-path="url(#clip0_20586_54511)">
<path d="M35 70C54.33 70 70 54.33 70 35C70 15.67 54.33 0 35 0C15.67 0 0 15.67 0 35C0 54.33 15.67 70 35 70Z" fill="#121617"/>
<path d="M53.044 33.8516H15.956C13.7745 33.8516 12 35.6261 12 37.8075V44.4336C12 45.1613 12.5906 45.752 13.3184 45.752H15.324V45.7405C15.324 42.101 18.2851 39.1408 21.9237 39.1408C25.5624 39.1408 28.5226 42.101 28.5226 45.7405V45.752H40.4774V45.7405C40.4774 42.101 43.4376 39.1408 47.0763 39.1408C50.7149 39.1408 53.676 42.101 53.676 45.7405V45.752H55.6816C56.4094 45.752 57 45.1613 57 44.4336V37.8075C57 35.6261 55.2255 33.8516 53.044 33.8516ZM29.2046 39.1312C28.4769 39.1312 27.8862 38.5405 27.8862 37.8119C27.8862 37.0842 28.4769 36.4936 29.2046 36.4936C29.9332 36.4936 30.5238 37.0842 30.5238 37.8119C30.5238 38.5405 29.9332 39.1312 29.2046 39.1312ZM34.5 39.1312C33.7714 39.1312 33.1808 38.5405 33.1808 37.8119C33.1808 37.0842 33.7714 36.4936 34.5 36.4936C35.2277 36.4936 35.8184 37.0842 35.8184 37.8119C35.8184 38.5405 35.2277 39.1312 34.5 39.1312ZM39.7954 39.1312C39.0668 39.1312 38.4762 38.5405 38.4762 37.8119C38.4762 37.0842 39.0668 36.4936 39.7954 36.4936C40.5231 36.4936 41.1138 37.0842 41.1138 37.8119C41.1138 38.5405 40.5231 39.1312 39.7954 39.1312Z" fill="white"/>
<path d="M47.0754 41.7812C44.8913 41.7812 43.1133 43.5593 43.1133 45.7442V45.7557C43.1194 47.9345 44.8948 49.7063 47.0754 49.7063C49.2568 49.7063 51.0322 47.9345 51.0384 45.7557V45.7442C51.0384 43.5593 49.2604 41.7812 47.0754 41.7812Z" fill="white"/>
<path d="M21.9239 41.7812C19.739 41.7812 17.9609 43.5593 17.9609 45.7442V45.7557C17.9671 47.9345 19.7425 49.7063 21.9239 49.7063C24.1045 49.7063 25.8799 47.9345 25.886 45.7557V45.7442C25.886 43.5593 24.108 41.7812 21.9239 41.7812Z" fill="white"/>
<path d="M30.5349 24.5859H25.8951C25.504 24.5859 25.1322 24.76 24.8817 25.0605L19.7656 31.2085H30.5349V24.5859Z" fill="white"/>
<path d="M33.1719 31.2085H47.912L42.795 25.0605C42.5445 24.76 42.1736 24.5859 41.7816 24.5859H33.1719V31.2085Z" fill="white"/>
<path d="M37.6667 20.0177C37.4435 19.5712 36.9873 19.2891 36.4872 19.2891H31.1918C30.6926 19.2891 30.2364 19.5712 30.0132 20.0177L29.0508 21.9425H38.6291L37.6667 20.0177Z" fill="white"/>
</g>
<defs>
<clipPath id="clip0_20586_54511">
<rect width="70" height="70" fill="white"/>
</clipPath>
</defs>
</svg>
