<svg width="70" height="70" viewBox="0 0 70 70" fill="none" xmlns="http://www.w3.org/2000/svg">
<g clip-path="url(#clip0_20586_54527)">
<path d="M35 70C54.33 70 70 54.33 70 35C70 15.67 54.33 0 35 0C15.67 0 0 15.67 0 35C0 54.33 15.67 70 35 70Z" fill="#121617"/>
<path d="M22.505 20.2001C22.8471 19.8328 23.0724 19.3763 23.1538 18.8863C23.2351 18.3963 23.1688 17.8938 22.9631 17.4398C22.7573 16.9858 22.4209 16.6 21.9948 16.3291C21.5686 16.0583 21.0711 15.9141 20.5625 15.9141C20.054 15.9141 19.5564 16.0583 19.1303 16.3291C18.7041 16.6 18.3677 16.9858 18.162 17.4398C17.9562 17.8938 17.89 18.3963 17.9713 18.8863C18.0526 19.3763 18.278 19.8328 18.62 20.2001C17.8296 20.5592 17.1605 21.1308 16.6909 21.8479C16.2213 22.565 15.9709 23.3978 15.9688 24.2489C15.9679 24.3332 15.9843 24.4169 16.017 24.495C16.0497 24.5731 16.098 24.6441 16.1591 24.7037C16.2202 24.7634 16.2929 24.8105 16.3729 24.8424C16.4529 24.8743 16.5386 24.8903 16.625 24.8895H24.5C24.5864 24.8903 24.6722 24.8743 24.7522 24.8424C24.8322 24.8105 24.9049 24.7634 24.966 24.7037C25.0271 24.6441 25.0754 24.5731 25.1081 24.495C25.1407 24.4169 25.1571 24.3332 25.1563 24.2489C25.1542 23.3978 24.9037 22.565 24.4342 21.8479C23.9646 21.1308 23.2954 20.5592 22.505 20.2001ZM20.5625 17.202C20.8221 17.202 21.0759 17.2772 21.2917 17.418C21.5076 17.5588 21.6758 17.7589 21.7751 17.993C21.8745 18.2271 21.9005 18.4847 21.8498 18.7333C21.7992 18.9818 21.6742 19.2101 21.4906 19.3893C21.3071 19.5685 21.0732 19.6905 20.8186 19.7399C20.564 19.7894 20.3001 19.764 20.0603 19.667C19.8204 19.57 19.6154 19.4058 19.4712 19.1951C19.327 18.9844 19.25 18.7367 19.25 18.4833C19.2511 18.1438 19.3897 17.8185 19.6356 17.5784C19.8815 17.3384 20.2148 17.2031 20.5625 17.202ZM17.3469 23.6083C17.4984 22.8849 17.9011 22.2347 18.4871 21.7678C19.073 21.3009 19.8062 21.0459 20.5625 21.0459C21.3189 21.0459 22.0521 21.3009 22.638 21.7678C23.224 22.2347 23.6267 22.8849 23.7782 23.6083H17.3469Z" fill="white"/>
<path d="M22.505 48.3876C22.8471 48.0203 23.0724 47.5638 23.1538 47.0738C23.2351 46.5838 23.1688 46.0813 22.9631 45.6273C22.7573 45.1733 22.4209 44.7875 21.9948 44.5166C21.5686 44.2458 21.0711 44.1016 20.5625 44.1016C20.054 44.1016 19.5564 44.2458 19.1303 44.5166C18.7041 44.7875 18.3677 45.1733 18.162 45.6273C17.9562 46.0813 17.89 46.5838 17.9713 47.0738C18.0526 47.5638 18.278 48.0203 18.62 48.3876C17.8296 48.7467 17.1605 49.3183 16.6909 50.0354C16.2213 50.7525 15.9709 51.5853 15.9688 52.4364C15.9679 52.5207 15.9843 52.6044 16.017 52.6825C16.0497 52.7606 16.098 52.8316 16.1591 52.8912C16.2202 52.9509 16.2929 52.998 16.3729 53.0299C16.4529 53.0618 16.5386 53.0778 16.625 53.077H24.5C24.5864 53.0778 24.6722 53.0618 24.7522 53.0299C24.8322 52.998 24.9049 52.9509 24.966 52.8912C25.0271 52.8316 25.0754 52.7606 25.1081 52.6825C25.1407 52.6044 25.1571 52.5207 25.1563 52.4364C25.1542 51.5853 24.9037 50.7525 24.4342 50.0354C23.9646 49.3183 23.2954 48.7467 22.505 48.3876ZM20.5625 45.3895C20.8221 45.3895 21.0759 45.4647 21.2917 45.6055C21.5076 45.7463 21.6758 45.9464 21.7751 46.1805C21.8745 46.4146 21.9005 46.6722 21.8498 46.9208C21.7992 47.1693 21.6742 47.3976 21.4906 47.5768C21.3071 47.756 21.0732 47.878 20.8186 47.9274C20.564 47.9769 20.3001 47.9515 20.0603 47.8545C19.8204 47.7575 19.6154 47.5933 19.4712 47.3826C19.327 47.1719 19.25 46.9242 19.25 46.6708C19.2511 46.3313 19.3897 46.006 19.6356 45.7659C19.8815 45.5259 20.2148 45.3906 20.5625 45.3895ZM17.3469 51.7958C17.4984 51.0724 17.9011 50.4222 18.4871 49.9553C19.073 49.4884 19.8062 49.2334 20.5625 49.2334C21.3189 49.2334 22.0521 49.4884 22.638 49.9553C23.224 50.4222 23.6267 51.0724 23.7782 51.7958H17.3469Z" fill="white"/>
<path d="M51.38 20.2001C51.7221 19.8328 51.9474 19.3763 52.0288 18.8863C52.1101 18.3963 52.0438 17.8938 51.8381 17.4398C51.6323 16.9858 51.2959 16.6 50.8698 16.3291C50.4436 16.0583 49.9461 15.9141 49.4375 15.9141C48.929 15.9141 48.4314 16.0583 48.0053 16.3291C47.5791 16.6 47.2427 16.9858 47.037 17.4398C46.8312 17.8938 46.765 18.3963 46.8463 18.8863C46.9276 19.3763 47.153 19.8328 47.495 20.2001C46.7046 20.5592 46.0355 21.1308 45.5659 21.8479C45.0963 22.565 44.8459 23.3978 44.8438 24.2489C44.8429 24.3332 44.8593 24.4169 44.892 24.495C44.9247 24.5731 44.973 24.6441 45.0341 24.7037C45.0952 24.7634 45.1679 24.8105 45.2479 24.8424C45.3279 24.8743 45.4136 24.8903 45.5 24.8895H53.375C53.4614 24.8903 53.5472 24.8743 53.6272 24.8424C53.7072 24.8105 53.7799 24.7634 53.841 24.7037C53.9021 24.6441 53.9504 24.5731 53.9831 24.495C54.0157 24.4169 54.0321 24.3332 54.0313 24.2489C54.0292 23.3978 53.7787 22.565 53.3092 21.8479C52.8396 21.1308 52.1704 20.5592 51.38 20.2001ZM49.4375 17.202C49.6971 17.202 49.9509 17.2772 50.1667 17.418C50.3826 17.5588 50.5508 17.7589 50.6501 17.993C50.7495 18.2271 50.7755 18.4847 50.7248 18.7333C50.6742 18.9818 50.5492 19.2101 50.3656 19.3893C50.1821 19.5685 49.9482 19.6905 49.6936 19.7399C49.439 19.7894 49.1751 19.764 48.9353 19.667C48.6954 19.57 48.4904 19.4058 48.3462 19.1951C48.202 18.9844 48.125 18.7367 48.125 18.4833C48.1261 18.1438 48.2647 17.8185 48.5106 17.5784C48.7565 17.3384 49.0898 17.2031 49.4375 17.202ZM46.2219 23.6083C46.3734 22.8849 46.7761 22.2347 47.3621 21.7678C47.948 21.3009 48.6812 21.0459 49.4375 21.0459C50.1939 21.0459 50.9271 21.3009 51.513 21.7678C52.099 22.2347 52.5017 22.8849 52.6532 23.6083H46.2219Z" fill="white"/>
<path d="M51.38 48.3876C51.7221 48.0203 51.9474 47.5638 52.0288 47.0738C52.1101 46.5838 52.0438 46.0813 51.8381 45.6273C51.6323 45.1733 51.2959 44.7875 50.8698 44.5166C50.4436 44.2458 49.9461 44.1016 49.4375 44.1016C48.929 44.1016 48.4314 44.2458 48.0053 44.5166C47.5791 44.7875 47.2427 45.1733 47.037 45.6273C46.8312 46.0813 46.765 46.5838 46.8463 47.0738C46.9276 47.5638 47.153 48.0203 47.495 48.3876C46.7046 48.7467 46.0355 49.3183 45.5659 50.0354C45.0963 50.7525 44.8459 51.5853 44.8438 52.4364C44.8429 52.5207 44.8593 52.6044 44.892 52.6825C44.9247 52.7606 44.973 52.8316 45.0341 52.8912C45.0952 52.9509 45.1679 52.998 45.2479 53.0299C45.3279 53.0618 45.4136 53.0778 45.5 53.077H53.375C53.4614 53.0778 53.5472 53.0618 53.6272 53.0299C53.7072 52.998 53.7799 52.9509 53.841 52.8912C53.9021 52.8316 53.9504 52.7606 53.9831 52.6825C54.0157 52.6044 54.0321 52.5207 54.0313 52.4364C54.0292 51.5853 53.7787 50.7525 53.3092 50.0354C52.8396 49.3183 52.1704 48.7467 51.38 48.3876ZM49.4375 45.3895C49.6971 45.3895 49.9509 45.4646 50.1667 45.6054C50.3826 45.7462 50.5508 45.9463 50.6501 46.1804C50.7495 46.4145 50.7755 46.6722 50.7248 46.9207C50.6742 47.1692 50.5492 47.3975 50.3656 47.5767C50.1821 47.7559 49.9482 47.8779 49.6936 47.9274C49.439 47.9768 49.1751 47.9514 48.9353 47.8545C48.6954 47.7575 48.4904 47.5933 48.3462 47.3826C48.202 47.1719 48.125 46.9241 48.125 46.6707C48.1261 46.3313 48.2647 46.006 48.5106 45.7659C48.7565 45.5259 49.0898 45.3905 49.4375 45.3895ZM46.2219 51.7957C46.3734 51.0723 46.7761 50.4222 47.3621 49.9553C47.948 49.4883 48.6812 49.2333 49.4375 49.2333C50.1939 49.2333 50.9271 49.4883 51.513 49.9553C52.099 50.4222 52.5017 51.0723 52.6532 51.7957H46.2219Z" fill="white"/>
<path d="M44.6469 43.0184L41.4181 39.8537C42.7267 38.3618 43.4459 36.4623 43.4459 34.4981C43.4459 32.534 42.7267 30.6345 41.4181 29.1425L43.3344 27.2591C43.3957 27.2004 43.4445 27.1304 43.478 27.0532C43.5114 26.976 43.5289 26.8931 43.5293 26.8093C43.5298 26.7255 43.5132 26.6424 43.4805 26.5649C43.4478 26.4873 43.3998 26.4169 43.339 26.3576C43.2783 26.2984 43.2062 26.2514 43.1267 26.2195C43.0473 26.1877 42.9622 26.1715 42.8764 26.1719C42.7905 26.1723 42.7056 26.1893 42.6265 26.222C42.5474 26.2547 42.4757 26.3023 42.4156 26.3622L40.4863 28.2328C38.9579 26.9554 37.0121 26.2533 35 26.2533C32.9879 26.2533 31.0421 26.9554 29.5138 28.2328L27.5844 26.3622C27.5243 26.3023 27.4526 26.2547 27.3735 26.222C27.2944 26.1893 27.2095 26.1723 27.1236 26.1719C27.0378 26.1715 26.9527 26.1877 26.8733 26.2195C26.7938 26.2514 26.7217 26.2984 26.661 26.3576C26.6002 26.4169 26.5522 26.4873 26.5195 26.5649C26.4868 26.6424 26.4702 26.7255 26.4707 26.8093C26.4711 26.8931 26.4886 26.976 26.522 27.0532C26.5555 27.1304 26.6043 27.2004 26.6656 27.2591L28.5819 29.1425C27.2733 30.6345 26.5541 32.534 26.5541 34.4981C26.5541 36.4623 27.2733 38.3618 28.5819 39.8537L25.3531 43.0184C25.2909 43.0763 25.2414 43.1458 25.2075 43.2229C25.1737 43.3 25.1562 43.383 25.1562 43.4669C25.1562 43.5507 25.1737 43.6337 25.2075 43.7108C25.2414 43.7879 25.2909 43.8575 25.3531 43.9153C25.4124 43.9761 25.4836 44.0244 25.5626 44.0575C25.6416 44.0905 25.7266 44.1076 25.8125 44.1076C25.8984 44.1076 25.9834 44.0905 26.0624 44.0575C26.1414 44.0244 26.2126 43.9761 26.2719 43.9153L29.5138 40.7634C31.0403 42.0448 32.9868 42.7494 35 42.7494C37.0132 42.7494 38.9597 42.0448 40.4863 40.7634L43.7281 43.9153C43.7874 43.9761 43.8586 44.0244 43.9376 44.0575C44.0166 44.0905 44.1016 44.1076 44.1875 44.1076C44.2734 44.1076 44.3584 44.0905 44.4374 44.0575C44.5164 44.0244 44.5876 43.9761 44.6469 43.9153C44.7091 43.8575 44.7586 43.7879 44.7925 43.7108C44.8263 43.6337 44.8438 43.5507 44.8438 43.4669C44.8438 43.383 44.8263 43.3 44.7925 43.2229C44.7586 43.1458 44.7091 43.0763 44.6469 43.0184ZM37.9138 37.7012H32.8081C32.1633 37.7002 31.5381 37.485 31.0352 37.091C30.5324 36.697 30.1819 36.1477 30.0414 35.5334C29.9008 34.9191 29.9787 34.2764 30.2621 33.711C30.5455 33.1456 31.0175 32.6912 31.6006 32.4225C31.8636 31.6331 32.4064 30.9612 33.1314 30.5276C33.8564 30.0939 34.7161 29.9269 35.5559 30.0566C36.3958 30.1863 37.1607 30.6041 37.7132 31.2351C38.2657 31.8661 38.5695 32.6687 38.57 33.4987V33.6781C39.048 33.8305 39.4546 34.1443 39.7168 34.5631C39.9791 34.9819 40.0797 35.4783 40.0006 35.9631C39.9215 36.4478 39.668 36.8891 39.2855 37.2077C38.9029 37.5263 38.4166 37.7013 37.9138 37.7012Z" fill="white"/>
<path d="M38.7139 35.6405C38.7146 35.7433 38.6944 35.8453 38.6544 35.9404C38.6144 36.0355 38.5554 36.122 38.4809 36.1947C38.4064 36.2674 38.3179 36.3249 38.2205 36.364C38.123 36.403 38.0186 36.4227 37.9132 36.4221H32.8077C32.6068 36.4216 32.408 36.3823 32.2226 36.3067C32.0373 36.231 31.8691 36.1204 31.7276 35.9811C31.5862 35.8418 31.4743 35.6767 31.3984 35.4951C31.3224 35.3135 31.284 35.1191 31.2852 34.923C31.284 34.6078 31.3867 34.3006 31.5781 34.0468C31.7696 33.793 32.0396 33.606 32.3483 33.5136C32.4573 33.4772 32.5552 33.4147 32.6331 33.3319C32.711 33.2491 32.7665 33.1486 32.7946 33.0396C32.9109 32.5073 33.225 32.036 33.6763 31.7165C34.1276 31.3969 34.6841 31.2518 35.2385 31.3091C35.7929 31.3664 36.306 31.6221 36.6787 32.0268C37.0514 32.4315 37.2575 32.9566 37.2571 33.5008C37.2533 33.6911 37.2269 33.8803 37.1783 34.0646C37.1564 34.167 37.1605 34.273 37.1902 34.3735C37.22 34.474 37.2745 34.5659 37.3489 34.6411C37.425 34.7175 37.5173 34.7766 37.6194 34.8142C37.7215 34.8519 37.8308 34.8671 37.9396 34.8589C38.1475 34.8651 38.3447 34.9502 38.4894 35.0962C38.634 35.2422 38.7145 35.4374 38.7139 35.6405Z" fill="white"/>
<path d="M27.427 20.2974C29.7665 19.1135 32.3631 18.4956 34.9982 18.4956C37.6334 18.4956 40.2299 19.1135 42.5695 20.2974C42.6459 20.3366 42.7295 20.3608 42.8156 20.3685C42.9016 20.3761 42.9883 20.3671 43.0708 20.342C43.1533 20.3169 43.2298 20.2761 43.2961 20.222C43.3624 20.1679 43.4171 20.1016 43.4571 20.0268C43.4971 19.9521 43.5215 19.8704 43.5291 19.7863C43.5367 19.7023 43.5272 19.6177 43.5011 19.5373C43.4751 19.4569 43.4331 19.3823 43.3775 19.3177C43.3218 19.2532 43.2537 19.2 43.177 19.1612C40.6443 17.8998 37.8415 17.2422 34.9982 17.2422C32.155 17.2422 29.3521 17.8998 26.8195 19.1612C26.6657 19.2402 26.5503 19.3755 26.4986 19.5373C26.4468 19.6992 26.4629 19.8745 26.5433 20.0249C26.6237 20.1752 26.7618 20.2883 26.9275 20.3393C27.0931 20.3904 27.2727 20.3753 27.427 20.2974Z" fill="white"/>
<path d="M42.5695 48.7046C40.2301 49.889 37.6335 50.5073 34.9982 50.5073C32.363 50.5073 29.7663 49.889 27.427 48.7046C27.2727 48.6266 27.0931 48.6115 26.9275 48.6626C26.7618 48.7137 26.6237 48.8267 26.5433 48.9771C26.4629 49.1274 26.4468 49.3027 26.4986 49.4646C26.5503 49.6265 26.6657 49.7617 26.8195 49.8407C29.3447 51.1259 32.1504 51.797 34.9982 51.797C37.846 51.797 40.6518 51.1259 43.177 49.8407C43.3307 49.7617 43.4461 49.6265 43.4979 49.4646C43.5496 49.3027 43.5336 49.1274 43.4532 48.9771C43.3728 48.8267 43.2346 48.7137 43.069 48.6626C42.9033 48.6115 42.7237 48.6266 42.5695 48.7046Z" fill="white"/>
<path d="M20.1703 26.2445C20.0159 26.1659 19.836 26.1504 19.6699 26.2013C19.5038 26.2522 19.3653 26.3654 19.2846 26.516C17.9685 28.9812 17.2812 31.7201 17.2812 34.5C17.2812 37.2799 17.9685 40.0188 19.2846 42.484C19.3245 42.5586 19.3791 42.6248 19.4452 42.6789C19.5113 42.7329 19.5876 42.7736 19.6698 42.7989C19.7521 42.8241 19.8386 42.8332 19.9245 42.8258C20.0103 42.8184 20.0939 42.7945 20.1703 42.7556C20.2467 42.7166 20.3145 42.6634 20.3699 42.5988C20.4252 42.5343 20.467 42.4598 20.4928 42.3795C20.5186 42.2992 20.528 42.2147 20.5204 42.1309C20.5128 42.0471 20.4883 41.9656 20.4484 41.891C19.23 39.6089 18.5938 37.0735 18.5938 34.5C18.5938 31.9266 19.23 29.3911 20.4484 27.109C20.5288 26.9584 20.5447 26.7827 20.4925 26.6206C20.4404 26.4585 20.3245 26.3232 20.1703 26.2445Z" fill="white"/>
<path d="M49.8292 42.7557C49.9836 42.8342 50.1635 42.8498 50.3296 42.7988C50.4957 42.7479 50.6342 42.6348 50.7149 42.4842C52.031 40.019 52.7183 37.2801 52.7183 34.5002C52.7183 31.7202 52.031 28.9814 50.7149 26.5161C50.6343 26.3655 50.4958 26.2522 50.3297 26.2013C50.1636 26.1504 49.9836 26.166 49.8292 26.2446C49.6749 26.3233 49.5589 26.4585 49.5067 26.6207C49.4546 26.7828 49.4705 26.9586 49.5511 27.1092C50.7695 29.3913 51.4058 31.9267 51.4058 34.5002C51.4058 37.0736 50.7695 39.6091 49.5511 41.8911C49.4707 42.0418 49.4548 42.2175 49.507 42.3796C49.5591 42.5417 49.675 42.677 49.8292 42.7557Z" fill="white"/>
</g>
<defs>
<clipPath id="clip0_20586_54527">
<rect width="70" height="70" fill="white"/>
</clipPath>
</defs>
</svg>
