<svg width="70" height="70" viewBox="0 0 70 70" fill="none" xmlns="http://www.w3.org/2000/svg">
<g clip-path="url(#clip0_20586_54494)">
<path d="M35 70C54.33 70 70 54.33 70 35C70 15.67 54.33 0 35 0C15.67 0 0 15.67 0 35C0 54.33 15.67 70 35 70Z" fill="#121617"/>
<path d="M22.125 55H46.875C47.969 55 49.0182 54.568 49.7918 53.7991C50.5654 53.0302 51 51.9874 51 50.9V25.9482C51 24.8608 50.5654 23.818 49.7918 23.0491L41.8957 15.2009C41.1221 14.432 40.073 14 38.9789 14H22.125C21.031 14 19.9818 14.432 19.2082 15.2009C18.4346 15.9698 18 17.0126 18 18.1V50.9C18 51.9874 18.4346 53.0302 19.2082 53.7991C19.9818 54.568 21.031 55 22.125 55ZM38.625 17.075H38.9785C39.1141 17.0747 39.2485 17.1011 39.3737 17.1527C39.4991 17.2042 39.6129 17.2799 39.7086 17.3753L47.6041 25.2229C47.7001 25.3181 47.7763 25.4312 47.8281 25.5558C47.88 25.6803 47.9065 25.8139 47.9062 25.9486V26.3H42.75C41.656 26.3 40.6068 25.868 39.8332 25.0991C39.0596 24.3302 38.625 23.2874 38.625 22.2V17.075ZM26.8543 39.2006C27.0457 39.0102 27.2731 38.8591 27.5233 38.7561C27.7735 38.653 28.0417 38.5999 28.3125 38.5999C28.5833 38.5999 28.8515 38.653 29.1017 38.7561C29.3519 38.8591 29.5793 39.0102 29.7707 39.2006L32.4375 41.8511L39.2293 35.1007C39.6183 34.7273 40.1393 34.5206 40.6801 34.5253C41.2209 34.5299 41.7381 34.7456 42.1206 35.1256C42.5029 35.5057 42.7199 36.0199 42.7246 36.5574C42.7292 37.0949 42.5214 37.6127 42.1457 37.9993L33.8957 46.1993C33.7043 46.3898 33.4769 46.5408 33.2267 46.6439C32.9765 46.7469 32.7083 46.8 32.4375 46.8C32.1667 46.8 31.8985 46.7469 31.6483 46.6439C31.3981 46.5408 31.1707 46.3898 30.9793 46.1993L26.8543 42.0993C26.6627 41.9091 26.5107 41.6831 26.407 41.4345C26.3033 41.1858 26.2499 40.9192 26.2499 40.65C26.2499 40.3808 26.3033 40.1142 26.407 39.8655C26.5107 39.6169 26.6627 39.3909 26.8543 39.2006Z" fill="#F5FAFE"/>
</g>
<defs>
<clipPath id="clip0_20586_54494">
<rect width="70" height="70" fill="white"/>
</clipPath>
</defs>
</svg>
