<svg width="30" height="30" viewBox="0 0 30 30" fill="none" xmlns="http://www.w3.org/2000/svg">
<path d="M14.9996 24.1907C20.0757 24.1907 24.1907 20.0757 24.1907 14.9996C24.1907 9.92357 20.0757 5.80859 14.9996 5.80859C9.92357 5.80859 5.80859 9.92357 5.80859 14.9996C5.80859 20.0757 9.92357 24.1907 14.9996 24.1907Z" fill="#0039CA" fill-opacity="0.1"/>
<path d="M18.4147 20.9079L20.6468 23.14C20.9094 23.4026 21.172 23.5339 21.4346 23.5339C21.6972 23.5339 21.9598 23.4026 22.2224 23.14C22.6163 22.7461 22.6163 21.9583 22.2224 21.5644L21.8285 21.1705C24.8485 20.9079 27.4745 18.2819 27.4745 14.9994C27.4745 11.5856 24.5859 8.82826 21.3033 8.82826C19.5964 8.82826 18.0208 9.48476 16.8391 10.6665C15.7887 11.7169 14.2131 14.2116 13.9505 14.4742C13.5566 15.1307 12.1123 17.2315 11.4558 17.888C10.668 18.5445 9.74888 18.9384 8.69847 18.9384C6.72896 18.9384 4.89076 17.1002 4.89076 14.9994C4.89076 13.0299 6.33506 11.323 8.30457 11.0604L8.04197 11.323C7.64807 11.7169 7.64807 12.5047 8.04197 12.8986C8.30457 13.1612 8.43587 13.2925 8.82978 13.2925C9.22368 13.2925 9.35498 13.1612 9.61758 12.8986L11.8497 10.6665C12.6375 9.87866 11.8497 8.95956 11.8497 8.95956L9.61758 6.85875C9.09238 6.33354 8.43587 6.33354 8.04197 6.85875C7.51677 7.25265 7.51677 7.90915 8.04197 8.43435L8.43587 8.82826C5.15336 8.95956 2.52734 11.7169 2.52734 14.9994C2.52734 18.4132 5.41596 21.1705 8.69847 21.1705C10.4054 21.1705 11.8497 20.514 13.1627 19.3323C14.2131 18.2819 15.7887 15.7872 16.0513 15.5246C16.4452 14.8681 17.8895 12.7673 18.546 12.1108C19.3338 11.323 20.2529 10.9291 21.4346 10.9291C23.5354 10.9291 25.3737 12.7673 25.3737 14.8681C25.3737 16.8376 23.9294 18.5445 21.9598 18.8071L22.2224 18.5445C22.6163 18.1506 22.6163 17.3628 22.2224 16.9689C21.8285 16.575 21.0407 16.575 20.6468 16.9689L18.4147 19.201C18.4147 19.201 17.6269 20.1201 18.4147 20.9079Z" fill="#0039CA"/>
</svg>
