<svg width="30" height="30" viewBox="0 0 30 30" fill="none" xmlns="http://www.w3.org/2000/svg">
<path d="M11.1671 16.562L13.5251 18.8326L18.8304 13.7238M10.4008 23.9414C6.59175 23.9414 3.50391 20.8817 3.50391 17.1075C3.50391 13.9793 5.80287 11.0895 9.25132 10.5308C10.333 7.95894 12.8931 6.06055 15.8791 6.06055C19.704 6.06055 22.8302 9.02687 23.0451 12.7659C25.075 13.6534 26.4936 15.8315 26.4936 18.19C26.4936 21.3664 23.9204 23.9414 20.7462 23.9414H10.4008Z" fill="#0039CA" fill-opacity="0.1"/>
<path d="M11.1671 16.562L13.5251 18.8326L18.8304 13.7238M10.4008 23.9414C6.59175 23.9414 3.50391 20.8817 3.50391 17.1075C3.50391 13.9793 5.80287 11.0895 9.25132 10.5308C10.333 7.95894 12.8931 6.06055 15.8791 6.06055C19.704 6.06055 22.8302 9.02687 23.0451 12.7659C25.075 13.6534 26.4936 15.8315 26.4936 18.19C26.4936 21.3664 23.9204 23.9414 20.7462 23.9414H10.4008Z" stroke="#0039CA" stroke-width="2" stroke-linecap="round" stroke-linejoin="round"/>
</svg>
