<svg width="30" height="30" viewBox="0 0 30 30" fill="none" xmlns="http://www.w3.org/2000/svg">
<path d="M12.2695 21.8301H17.7338H12.2695Z" fill="#0039CA" fill-opacity="0.1"/>
<path d="M15.0018 8.16937C11.2295 8.16937 8.17139 11.2274 8.17139 14.9997C8.17139 16.8594 8.91456 18.5454 10.1201 19.7772C10.5897 20.2569 10.9757 20.8278 11.1074 21.4861L11.8302 25.0983C12.0857 26.3753 13.207 27.2944 14.5093 27.2944H15.4942C16.7965 27.2944 17.9178 26.3753 18.1734 25.0983L18.8962 21.4861C19.0279 20.8278 19.4138 20.2569 19.8834 19.7772C21.089 18.5454 21.8321 16.8594 21.8321 14.9997C21.8321 11.2274 18.774 8.16937 15.0018 8.16937Z" fill="#0039CA" fill-opacity="0.1"/>
<path d="M15.002 4.07115V2.70508V4.07115Z" fill="#0039CA" fill-opacity="0.1"/>
<path d="M23.1977 6.8033L24.5638 5.43722L23.1977 6.8033Z" fill="#0039CA" fill-opacity="0.1"/>
<path d="M25.9301 14.9997H27.2962H25.9301Z" fill="#0039CA" fill-opacity="0.1"/>
<path d="M4.07311 14.9997H2.70703H4.07311Z" fill="#0039CA" fill-opacity="0.1"/>
<path d="M5.43894 5.43722L6.80502 6.8033L5.43894 5.43722Z" fill="#0039CA" fill-opacity="0.1"/>
<path d="M12.2695 21.8301H17.7338M15.002 4.07115V2.70508M23.1977 6.8033L24.5638 5.43722M25.9301 14.9997H27.2962M4.07311 14.9997H2.70703M5.43894 5.43722L6.80502 6.8033M15.0018 8.16937C11.2295 8.16937 8.17139 11.2274 8.17139 14.9997C8.17139 16.8594 8.91456 18.5454 10.1201 19.7772C10.5897 20.2569 10.9757 20.8278 11.1074 21.4861L11.8302 25.0983C12.0857 26.3753 13.207 27.2944 14.5093 27.2944H15.4942C16.7965 27.2944 17.9178 26.3753 18.1734 25.0983L18.8962 21.4861C19.0279 20.8278 19.4138 20.2569 19.8834 19.7772C21.089 18.5454 21.8321 16.8594 21.8321 14.9997C21.8321 11.2274 18.774 8.16937 15.0018 8.16937Z" stroke="#0039CA" stroke-width="2" stroke-linecap="round"/>
</svg>
