<svg width="30" height="30" viewBox="0 0 30 30" fill="none" xmlns="http://www.w3.org/2000/svg">
<path d="M15 4.58008C18.0781 4.58011 20.5868 7.05714 20.5869 10.1084C20.5869 11.5526 20.0224 12.8668 19.1045 13.8516C20.1812 14.3087 21.1495 15.0156 21.9209 15.9219C23.0811 17.2855 23.7197 19.0182 23.7197 20.8008V24.1699C23.7196 24.8584 23.1604 25.4189 22.4717 25.4189H7.52832C6.83918 25.4189 6.27945 24.8585 6.2793 24.1699V20.8008C6.2793 19.0182 6.91898 17.2854 8.0791 15.9219C8.85041 15.0159 9.81849 14.3088 10.8955 13.8516C9.97735 12.8667 9.41309 11.5525 9.41309 10.1084C9.41331 7.05712 11.9219 4.58008 15 4.58008ZM17.4355 15.0801C16.6986 15.4351 15.8729 15.6367 15 15.6367C14.1268 15.6367 13.3006 15.4353 12.5635 15.0801C9.88293 15.6704 7.96484 18.0338 7.96484 20.8008V23.7334H22.0352V20.8008C22.0352 18.0335 20.1169 15.6701 17.4355 15.0801ZM15 6.26562C12.8456 6.26562 11.0978 7.99275 11.0977 10.1084C11.0977 12.2242 12.8455 13.9521 15 13.9521C17.1545 13.9521 18.9023 12.2241 18.9023 10.1084C18.9022 7.99281 17.1544 6.26566 15 6.26562Z" fill="#0039CA" stroke="#0039CA" stroke-width="0.5"/>
</svg>
