<svg width="30" height="30" viewBox="0 0 30 30" fill="none" xmlns="http://www.w3.org/2000/svg">
<path fill-rule="evenodd" clip-rule="evenodd" d="M11.4191 9.24998C12.5182 9.24998 13.4093 8.35893 13.4093 7.25975C13.4093 6.16058 12.5182 5.26953 11.4191 5.26953C10.3199 5.26953 9.42884 6.16058 9.42884 7.25975C9.42884 8.35893 10.3199 9.24998 11.4191 9.24998Z" fill="#0039CA" fill-opacity="0.1"/>
<path fill-rule="evenodd" clip-rule="evenodd" d="M22.5642 8.05584C22.5642 8.71534 22.0295 9.24998 21.37 9.24998C20.7106 9.24998 20.1759 8.71534 20.1759 8.05584C20.1759 7.39635 20.7106 6.86171 21.37 6.86171C22.0295 6.86171 22.5642 7.39635 22.5642 8.05584Z" fill="#0039CA" fill-opacity="0.1"/>
<path fill-rule="evenodd" clip-rule="evenodd" d="M25.3507 18.803V22.7835H18.1859V16.4148H22.9624C24.2814 16.4148 25.3507 17.4841 25.3507 18.803ZM15.7976 16.4148V22.7835H4.65234V18.803C4.65234 17.4841 5.7216 16.4148 7.04061 16.4148H15.7976Z" fill="#0039CA" fill-opacity="0.1"/>
<path fill-rule="evenodd" clip-rule="evenodd" d="M11.4166 11.6378C13.8347 11.6378 15.7951 9.67752 15.7951 7.25935C15.7951 4.84118 13.8347 2.88086 11.4166 2.88086C8.99841 2.88086 7.03809 4.84118 7.03809 7.25935C7.03809 9.67752 8.99841 11.6378 11.4166 11.6378ZM11.4166 9.24957C12.5158 9.24957 13.4068 8.35853 13.4068 7.25935C13.4068 6.16017 12.5158 5.26913 11.4166 5.26913C10.3174 5.26913 9.42635 6.16017 9.42635 7.25935C9.42635 8.35853 10.3174 9.24957 11.4166 9.24957Z" fill="#0039CA"/>
<path fill-rule="evenodd" clip-rule="evenodd" d="M24.9509 8.05506C24.9509 10.0336 23.347 11.6375 21.3685 11.6375C19.3901 11.6375 17.7861 10.0336 17.7861 8.05506C17.7861 6.07655 19.3901 4.47266 21.3685 4.47266C23.347 4.47266 24.9509 6.07655 24.9509 8.05506ZM22.5627 8.05506C22.5627 8.71455 22.028 9.24919 21.3685 9.24919C20.7091 9.24919 20.1744 8.71455 20.1744 8.05506C20.1744 7.39556 20.7091 6.86092 21.3685 6.86092C22.028 6.86092 22.5627 7.39556 22.5627 8.05506Z" fill="#0039CA"/>
<path fill-rule="evenodd" clip-rule="evenodd" d="M22.96 14.0254C25.5981 14.0254 27.7366 16.1639 27.7366 18.8019V25.1706H2.26172V18.8019C2.26172 16.1639 4.40025 14.0254 7.03825 14.0254H22.96ZM25.3483 18.8019V22.7824H18.1835V16.4137H22.96C24.279 16.4137 25.3483 17.483 25.3483 18.8019ZM15.7952 16.4137V22.7824H4.64999V18.8019C4.64999 17.483 5.71925 16.4137 7.03825 16.4137H15.7952Z" fill="#0039CA"/>
</svg>
